g Acacia_Tree_NoLeaves_l_01
v 0.1892509 0.4224977 0.7418804
v 0.443985 0.2359495 1.847015
v 0.1374674 0.3835802 1.847015
v 0.5324345 0.2571774 0.7418804
v 0.1892509 0.4224977 0.7418804
v 0.4430199 0.3498087 -0.0001296997
v 0.0001296997 0.5630512 -0.0001296997
v 0.5195694 -0.09565544 1.847015
v 0.3796587 -0.4121437 0.7418804
v 0.3076124 -0.3613253 1.847015
v 0.6173458 -0.1143093 0.7418804
v -0.03235531 -0.3613253 1.847015
v -0.2385225 -0.1143093 0.7418804
v -0.2446337 -0.09565544 1.847015
v -0.001156807 -0.4121437 0.7418804
v -0.1539326 0.2571774 0.7418804
v 0.1374674 0.3835802 1.847015
v -0.1687288 0.2359495 1.847015
v 0.1892509 0.4224977 0.7418804
v 0.1374674 0.3835802 1.847015
v 0.01814175 0.334692 2.155141
v 0.5324345 0.2571774 0.7418804
v 0.5195694 -0.09565544 1.847015
v 0.443985 0.2359495 1.847015
v 0.6173458 -0.1143093 0.7418804
v 0.3076124 -0.3613253 1.847015
v -0.001156807 -0.4121437 0.7418804
v -0.03235531 -0.3613253 1.847015
v 0.3796587 -0.4121437 0.7418804
v -0.2446337 -0.09565544 1.847015
v -0.1539326 0.2571774 0.7418804
v -0.1687288 0.2359495 1.847015
v -0.2385225 -0.1143093 0.7418804
v -0.2385225 -0.1143093 0.7418804
v -0.4430819 0.3498087 -0.0001296997
v -0.1539326 0.2571774 0.7418804
v -0.5524378 -0.1297483 -0.0001296997
v 0.2458591 -0.514101 -0.0001296997
v -0.001156807 -0.4121437 0.7418804
v 0.3796587 -0.4121437 0.7418804
v -0.2459202 -0.514101 -0.0001296997
v 0.5324345 0.2571774 0.7418804
v 0.5523758 -0.1297483 -0.0001296997
v 0.6173458 -0.1143093 0.7418804
v 0.4430199 0.3498087 -0.0001296997
v -0.1539326 0.2571774 0.7418804
v 0.0001296997 0.5630512 -0.0001296997
v 0.1892509 0.4224977 0.7418804
v -0.4430819 0.3498087 -0.0001296997
v -0.2459202 -0.514101 -0.0001296997
v -0.2385225 -0.1143093 0.7418804
v -0.001156807 -0.4121437 0.7418804
v -0.5524378 -0.1297483 -0.0001296997
v 0.5523758 -0.1297483 -0.0001296997
v 0.3796587 -0.4121437 0.7418804
v 0.6173458 -0.1143093 0.7418804
v 0.2458591 -0.514101 -0.0001296997
v -0.2446337 -0.09565544 1.847015
v -0.4910049 0.2787266 2.584201
v -0.5665894 -0.05287838 2.584201
v -0.1687288 0.2359495 1.847015
v -0.2446337 -0.09565544 1.847015
v -0.3546324 -0.3188696 2.584201
v -0.03235531 -0.3613253 1.847015
v -0.5665894 -0.05287838 2.584201
v 0.1615906 -0.2789869 2.147422
v -0.3546324 -0.3188696 2.584201
v -0.05101013 -0.159339 2.584201
v -0.03235531 -0.3613253 1.847015
v -0.3546324 -0.3188696 2.584201
v -0.6479635 -0.08086014 3.413374
v -0.4028778 -0.2741623 3.518869
v -0.5665894 -0.05287838 2.584201
v -0.4910049 0.2787266 2.584201
v -0.215044 0.1236992 3.509542
v -0.5427885 0.1703367 3.517262
v -0.1481438 0.2665052 2.584201
v -0.3546324 -0.3188696 2.584201
v -0.1864176 -0.1291056 3.419806
v -0.05101013 -0.159339 2.584201
v -0.4028778 -0.2741623 3.518869
v -0.4910049 0.2787266 2.584201
v -0.6479635 -0.08086014 3.413374
v -0.5665894 -0.05287838 2.584201
v -0.5427885 0.1703367 3.517262
v -0.1864176 -0.1291056 3.419806
v -0.1481438 0.2665052 2.584201
v -0.05101013 -0.159339 2.584201
v -0.215044 0.1236992 3.509542
v -0.05101013 -0.159339 2.584201
v 0.01814175 0.334692 2.155141
v 0.1615906 -0.2789869 2.147422
v -0.1481438 0.2665052 2.584201
v -0.6469984 -0.08279037 3.777465
v -0.943223 -0.04934025 3.945357
v -0.5427885 0.1703367 3.517262
v -0.826149 -0.1609468 4.009362
v -0.215044 0.1236992 3.509542
v -0.5135202 0.199605 4.970083
v -0.5427885 0.1703367 3.517262
v -0.2742243 0.1677628 5.089732
v -0.1864176 -0.1291056 3.419806
v 0.2037249 -0.1599817 3.948895
v -0.215044 0.1236992 3.509542
v 0.2680511 -0.2857418 3.862054
v -0.2102194 -0.122673 3.76685
v -0.4096317 -0.114953 5.143444
v -0.262002 -0.01267338 5.106778
v -0.4028778 -0.2741623 3.518869
v -0.6469984 -0.08279037 3.777465
v -0.5135202 0.199605 4.970083
v -0.5945721 0.02045441 5.121895
v -0.5427885 0.1703367 3.517262
v -1.009158 -0.1802454 3.909334
v -1.45237 -0.2606535 5.096486
v -0.8879013 -0.2706242 3.975591
v -1.576521 -0.1783152 5.077509
v -0.6469984 -0.08279037 3.777465
v -0.4096317 -0.114953 5.143444
v -0.4028778 -0.2741623 3.518869
v -0.5945721 0.02045441 5.121895
v -0.6479635 -0.08086014 3.413374
v -0.8879013 -0.2706242 3.975591
v -0.4028778 -0.2741623 3.518869
v -1.009158 -0.1802454 3.909334
v -0.8879013 -0.2706242 3.975591
v -1.389009 -0.1609468 5.106135
v -0.826149 -0.1609468 4.009362
v -1.45237 -0.2606535 5.096486
v -0.6479635 -0.08086014 3.413374
v -0.943223 -0.04934025 3.945357
v -1.009158 -0.1802454 3.909334
v -0.5427885 0.1703367 3.517262
v -0.6469984 -0.08279037 3.777465
v -0.8879013 -0.2706242 3.975591
v -0.826149 -0.1609468 4.009362
v -0.4028778 -0.2741623 3.518869
v -1.576521 -0.1783152 5.077509
v -2.666539 -0.03615284 6.269165
v -2.709317 -0.1339302 6.232498
v -1.509299 -0.05931091 5.087801
v -1.509299 -0.05931091 5.087801
v -2.590633 -0.1197777 6.334457
v -2.666539 -0.03615284 6.269165
v -1.389009 -0.1609468 5.106135
v -0.943223 -0.04934025 3.945357
v -1.389009 -0.1609468 5.106135
v -1.509299 -0.05931091 5.087801
v -0.826149 -0.1609468 4.009362
v -1.009158 -0.1802454 3.909334
v -1.509299 -0.05931091 5.087801
v -1.576521 -0.1783152 5.077509
v -0.943223 -0.04934025 3.945357
v -2.610896 -0.2027597 6.2801
v -2.397654 -1.281521 7.084507
v -2.590633 -0.1197777 6.334457
v -2.666539 -0.03615284 6.269165
v -4.215852 -0.2323494 7.063278
v -2.709317 -0.1339302 6.232498
v -1.389009 -0.1609468 5.106135
v -2.610896 -0.2027597 6.2801
v -2.590633 -0.1197777 6.334457
v -1.45237 -0.2606535 5.096486
v -1.576521 -0.1783152 5.077509
v -2.610896 -0.2027597 6.2801
v -1.45237 -0.2606535 5.096486
v -2.709317 -0.1339302 6.232498
v -4.215852 -0.2323494 7.063278
v -4.961078 -0.2281685 8.029789
v -4.16439 -0.3301268 7.096407
v -5.007072 -0.1484032 8.023035
v -4.121613 -0.239747 7.135324
v -4.961078 -0.2281685 8.029789
v -4.915405 -0.154192 8.043299
v -4.16439 -0.3301268 7.096407
v -2.744697 -0.2101574 6.359222
v -4.215852 -0.2323494 7.063278
v -4.16439 -0.3301268 7.096407
v -2.709317 -0.1339302 6.232498
v -2.666539 -0.03615284 6.269165
v -4.121613 -0.239747 7.135324
v -4.215852 -0.2323494 7.063278
v -2.590633 -0.1197777 6.334457
v -5.007072 -0.1484032 8.023035
v -5.318735 -0.1603031 9.132675
v -5.357654 -0.1609468 9.124311
v -4.915405 -0.154192 8.043299
v -4.215852 -0.2323494 7.063278
v -4.915405 -0.154192 8.043299
v -5.007072 -0.1484032 8.023035
v -4.121613 -0.239747 7.135324
v -5.357654 -0.1609468 9.124311
v -5.318735 -0.1603031 9.132675
v -5.338677 -0.1924667 9.126884
v -4.915405 -0.154192 8.043299
v -5.338677 -0.1924667 9.126884
v -5.318735 -0.1603031 9.132675
v -4.961078 -0.2281685 8.029789
v -5.007072 -0.1484032 8.023035
v -5.338677 -0.1924667 9.126884
v -4.961078 -0.2281685 8.029789
v -5.357654 -0.1609468 9.124311
v -0.5189877 0.2169733 5.302653
v -0.4041643 0.2883759 6.640329
v -0.5704489 0.3128204 6.642902
v -0.2742243 0.1677628 5.089732
v -0.4096317 -0.114953 5.143444
v -0.3961239 0.1613302 6.642582
v -0.262002 -0.01267338 5.106778
v -0.5000114 0.08799839 6.662846
v -0.5189877 0.2169733 5.302653
v -0.7418804 0.4752455 5.398178
v -0.5778465 0.476532 5.465722
v -0.5945721 0.02045441 5.121895
v -0.2742243 0.1677628 5.089732
v -0.3961239 0.1613302 6.642582
v -0.4041643 0.2883759 6.640329
v -0.262002 -0.01267338 5.106778
v -0.5945721 0.02045441 5.121895
v -0.5000114 0.08799839 6.662846
v -0.4096317 -0.114953 5.143444
v -0.6293077 0.1841669 6.654804
v 0.2680511 -0.2857418 3.862054
v 0.7170525 -0.5260019 5.015757
v 0.2037249 -0.1599817 3.948895
v 0.7550058 -0.668808 4.978125
v -0.2102194 -0.122673 3.76685
v -0.2742243 0.1677628 5.089732
v -0.215044 0.1236992 3.509542
v -0.262002 -0.01267338 5.106778
v -0.2102194 -0.122673 3.76685
v 0.1464729 -0.4513826 3.890358
v -0.4028778 -0.2741623 3.518869
v 0.07571411 -0.3050394 3.999713
v 0.07571411 -0.3050394 3.999713
v 0.7170525 -0.5260019 5.015757
v 0.5533409 -0.6073751 5.037949
v 0.2037249 -0.1599817 3.948895
v -0.2102194 -0.122673 3.76685
v 0.2037249 -0.1599817 3.948895
v 0.07571411 -0.3050394 3.999713
v -0.215044 0.1236992 3.509542
v -0.1864176 -0.1291056 3.419806
v 0.1464729 -0.4513826 3.890358
v 0.2680511 -0.2857418 3.862054
v -0.4028778 -0.2741623 3.518869
v 0.7550058 -0.668808 4.978125
v 1.119739 -1.218159 5.96715
v 1.253538 -1.150616 5.953962
v 0.5967617 -0.7759113 4.988095
v 0.5967617 -0.7759113 4.988095
v 1.101084 -1.078248 6.007033
v 1.119739 -1.218159 5.96715
v 0.5533409 -0.6073751 5.037949
v 0.07571411 -0.3050394 3.999713
v 0.5967617 -0.7759113 4.988095
v 0.1464729 -0.4513826 3.890358
v 0.5533409 -0.6073751 5.037949
v 0.1464729 -0.4513826 3.890358
v 0.7550058 -0.668808 4.978125
v 0.2680511 -0.2857418 3.862054
v 0.5967617 -0.7759113 4.988095
v 1.253538 -1.150616 5.953962
v 2.028677 -2.271511 6.898281
v 1.244533 -1.041581 6.003495
v 2.123559 -2.323294 6.841673
v 1.244533 -1.041581 6.003495
v 2.028677 -2.271511 6.898281
v 1.17699 -1.178597 6.107061
v 0.7170525 -0.5260019 5.015757
v 1.101084 -1.078248 6.007033
v 0.5533409 -0.6073751 5.037949
v 1.244533 -1.041581 6.003495
v 0.7550058 -0.668808 4.978125
v 1.244533 -1.041581 6.003495
v 0.7170525 -0.5260019 5.015757
v 1.253538 -1.150616 5.953962
v 2.726623 -3.28498 8.173882
v 2.123559 -2.323294 6.841673
v 2.79288 -3.313284 8.140112
v 2.028677 -2.271511 6.898281
v 1.119739 -1.218159 5.96715
v 0.3757992 -0.8518171 7.000561
v 1.17699 -1.178597 6.107061
v 1.253538 -1.150616 5.953962
v 2.023209 -2.374112 6.851645
v 2.123559 -2.323294 6.841673
v 1.119739 -1.218159 5.96715
v 2.726623 -3.28498 8.173882
v 2.023209 -2.374112 6.851645
v 2.028677 -2.271511 6.898281
v 2.728553 -3.348985 8.145901
v 2.726623 -3.28498 8.173882
v 2.837265 -3.626556 9.173199
v 2.728553 -3.348985 8.145901
v 2.835013 -3.596644 9.187351
v 0.1615906 -0.2789869 2.147422
v 0.6787777 -0.2043676 2.52309
v 0.3076124 -0.3613253 1.847015
v 0.5208559 -0.1017666 2.598352
v 0.01814175 0.334692 2.155141
v -0.4910049 0.2787266 2.584201
v -0.1687288 0.2359495 1.847015
v -0.1481438 0.2665052 2.584201
v 0.5195694 -0.09565544 1.847015
v 0.7964964 0.1809502 2.455226
v 0.443985 0.2359495 1.847015
v 0.8444195 -0.06156158 2.427565
v 0.1615906 -0.2789869 2.147422
v 0.3076124 -0.3613253 1.847015
v -0.03235531 -0.3613253 1.847015
v 0.443985 0.2359495 1.847015
v 0.5333996 0.179985 2.598996
v 0.1374674 0.3835802 1.847015
v 0.7964964 0.1809502 2.455226
v 0.5195694 -0.09565544 1.847015
v 0.6787777 -0.2043676 2.52309
v 0.8444195 -0.06156158 2.427565
v 0.3076124 -0.3613253 1.847015
v 0.1374674 0.3835802 1.847015
v 0.5333996 0.179985 2.598996
v 0.01814175 0.334692 2.155141
v 0.1615906 -0.2789869 2.147422
v 0.5333996 0.179985 2.598996
v 0.5208559 -0.1017666 2.598352
v 0.01814175 0.334692 2.155141
v 0.6787777 -0.2043676 2.52309
v 1.467747 -0.07925224 3.299516
v 1.562629 -0.1609468 3.197236
v 0.5208559 -0.1017666 2.598352
v 0.7964964 0.1809502 2.455226
v 1.38573 0.1494303 3.228435
v 0.5333996 0.179985 2.598996
v 1.630172 0.1468573 3.112003
v 0.5208559 -0.1017666 2.598352
v 1.38573 0.1494303 3.228435
v 1.467747 -0.07925224 3.299516
v 0.5333996 0.179985 2.598996
v 0.8444195 -0.06156158 2.427565
v 1.562629 -0.1609468 3.197236
v 1.657833 -0.04708862 3.077267
v 0.6787777 -0.2043676 2.52309
v 0.8444195 -0.06156158 2.427565
v 1.630172 0.1468573 3.112003
v 0.7964964 0.1809502 2.455226
v 1.657833 -0.04708862 3.077267
v 1.38573 0.1494303 3.228435
v 1.271549 0.9950066 3.844686
v 1.134212 0.9030199 3.860446
v 1.630172 0.1468573 3.112003
v 1.657833 -0.04708862 3.077267
v 2.961416 0.1825581 3.666179
v 1.630172 0.1468573 3.112003
v 2.988755 -0.01138687 3.631442
v 1.562629 -0.1609468 3.197236
v 2.798669 -0.04355049 3.853692
v 2.893873 -0.125246 3.751411
v 1.467747 -0.07925224 3.299516
v 1.681955 0.1458921 3.374456
v 2.961416 0.1825581 3.666179
v 2.808318 0.1815939 3.850474
v 1.630172 0.1468573 3.112003
v 1.657833 -0.04708862 3.077267
v 2.893873 -0.125246 3.751411
v 2.988755 -0.01138687 3.631442
v 1.562629 -0.1609468 3.197236
v 4.191345 -0.07249737 5.029908
v 2.808318 0.1815939 3.850474
v 4.197457 0.07320309 5.027335
v 2.798669 -0.04355049 3.853692
v 4.248596 -0.125246 4.959791
v 2.798669 -0.04355049 3.853692
v 4.191345 -0.07249737 5.029908
v 2.893873 -0.125246 3.751411
v 4.288801 0.07352448 4.902219
v 2.988755 -0.01138687 3.631442
v 4.304882 -0.05159187 4.878739
v 2.961416 0.1825581 3.666179
v 2.808318 0.1815939 3.850474
v 4.288801 0.07352448 4.902219
v 4.197457 0.07320309 5.027335
v 2.961416 0.1825581 3.666179
v 4.197457 0.07320309 5.027335
v 5.902118 0.1491079 5.853292
v 5.862557 0.1484652 6.003173
v 4.288801 0.07352448 4.902219
v 4.304882 -0.05159187 4.878739
v 5.814312 -0.05319977 5.879665
v 5.90855 0.02367115 5.82563
v 4.248596 -0.125246 4.959791
v 4.197457 0.07320309 5.027335
v 5.857732 0.00308609 6.007676
v 4.191345 -0.07249737 5.029908
v 5.862557 0.1484652 6.003173
v 4.288801 0.07352448 4.902219
v 5.90855 0.02367115 5.82563
v 5.902118 0.1491079 5.853292
v 4.304882 -0.05159187 4.878739
v 4.191345 -0.07249737 5.029908
v 5.814312 -0.05319977 5.879665
v 4.248596 -0.125246 4.959791
v 5.857732 0.00308609 6.007676
v 5.90855 0.02367115 5.82563
v 7.768883 0.02270603 6.3708
v 5.902118 0.1491079 5.853292
v 6.021122 -0.05159187 5.951712
v 7.737041 -0.04580212 6.486588
v 7.758269 -0.08600616 6.421297
v 5.857732 0.00308609 6.007676
v 5.862557 0.1484652 6.003173
v 7.768883 0.02270603 6.3708
v 7.740579 0.06516171 6.483372
v 5.902118 0.1491079 5.853292
v 5.857732 0.00308609 6.007676
v 5.857089 -0.9187174 6.366941
v 5.814312 -0.05319977 5.879665
v 5.964515 -0.9032793 6.466326
v 5.857732 0.00308609 6.007676
v 7.740579 0.06516171 6.483372
v 7.737041 -0.04580212 6.486588
v 5.862557 0.1484652 6.003173
v 7.740579 0.06516171 6.483372
v 9.482872 0.02527905 7.365936
v 9.445884 0.06934261 7.396814
v 7.768883 0.02270603 6.3708
v 9.424977 -0.00463295 7.409679
v 7.740579 0.06516171 6.483372
v 9.445884 0.06934261 7.396814
v 7.737041 -0.04580212 6.486588
v 7.758269 -0.08600616 6.421297
v 9.424977 -0.00463295 7.409679
v 9.482872 0.02527905 7.365936
v 7.737041 -0.04580212 6.486588
v 9.424977 -0.00463295 7.409679
v 9.912896 0.02495766 8.357857
v 9.90968 -0.003025055 8.355927
v 9.445884 0.06934261 7.396814
v 9.482872 0.02527905 7.365936
v 9.90968 -0.003025055 8.355927
v 9.938627 0.005016327 8.352068
v 9.424977 -0.00463295 7.409679
v 9.445884 0.06934261 7.396814
v 9.938627 0.005016327 8.352068
v 9.912896 0.02495766 8.357857
v 9.482872 0.02527905 7.365936
v -0.4041643 0.2883759 6.640329
v -0.5633736 0.2121487 8.434406
v -0.5215607 0.3198957 8.432798
v -0.3961239 0.1613302 6.642582
v -0.5000114 0.08799839 6.662846
v -0.6675835 0.2513885 8.435692
v -0.5633736 0.2121487 8.434406
v -0.6293077 0.1841669 6.654804
v -0.5704489 0.3128204 6.642902
v -0.5215607 0.3198957 8.432798
v -0.6293077 0.3350134 8.435371
v -0.4041643 0.2883759 6.640329
v -0.5000114 0.08799839 6.662846
v -0.5633736 0.2121487 8.434406
v -0.3961239 0.1613302 6.642582
v -0.6293077 0.1841669 6.654804
v -0.6293077 0.3350134 8.435371
v -0.6675835 0.2513885 8.435692
v -0.5704489 0.3128204 6.642902
v -0.6675835 0.2513885 8.435692
v -0.7965574 0.3083172 9.588751
v -0.8242188 0.2552481 9.615124
v -0.6293077 0.3350134 8.435371
v -0.5215607 0.3198957 8.432798
v -0.7299805 0.2468853 9.609657
v -0.7331963 0.2980251 9.613195
v -0.5633736 0.2121487 8.434406
v -0.6675835 0.2513885 8.435692
v -0.7299805 0.2468853 9.609657
v -0.5633736 0.2121487 8.434406
v -0.8242188 0.2552481 9.615124
v -0.6293077 0.3350134 8.435371
v -0.7331963 0.2980251 9.613195
v -0.7965574 0.3083172 9.588751
v -0.5215607 0.3198957 8.432798
v -0.7299805 0.2468853 9.609657
v -0.6753025 0.2648964 10.41696
v -0.7331963 0.2980251 9.613195
v -0.8242188 0.2552481 9.615124
v -0.6753025 0.2648964 10.41696
v -0.7299805 0.2468853 9.609657
v -0.7373781 0.2546043 10.43497
v -0.7660027 0.3063879 9.661762
v -0.6753025 0.2648964 10.41696
v -0.7219381 0.2967386 10.42757
v -0.7331963 0.2980251 9.613195
v -0.7331963 0.2980251 9.613195
v -0.9602699 0.7743654 9.784948
v -0.7965574 0.3083172 9.588751
v -0.7219381 0.2967386 10.42757
v -0.5862093 0.262002 11.13163
v -0.5971451 0.2758322 11.13742
v -0.6753025 0.2648964 10.41696
v -0.7373781 0.2546043 10.43497
v -0.5971451 0.2758322 11.13742
v -0.6032562 0.2610369 11.13967
v -0.7219381 0.2967386 10.42757
v -0.7373781 0.2546043 10.43497
v -0.5862093 0.262002 11.13163
v -0.6753025 0.2648964 10.41696
v -0.6032562 0.2610369 11.13967
v -0.5971451 0.2758322 11.13742
v -0.5862093 0.262002 11.13163
v -0.6032562 0.2610369 11.13967
v -0.7660027 0.3063879 9.661762
v -1.011731 0.7425241 9.801674
v -0.9371119 0.7354479 9.834158
v -0.8242188 0.2552481 9.615124
v -0.7660027 0.3063879 9.661762
v -0.7373781 0.2546043 10.43497
v -0.8242188 0.2552481 9.615124
v -0.7219381 0.2967386 10.42757
v -0.9371119 0.7354479 9.834158
v -1.187986 1.206641 10.55172
v -1.15904 1.20439 10.56395
v -1.011731 0.7425241 9.801674
v -0.7660027 0.3063879 9.661762
v -0.9602699 0.7743654 9.784948
v -0.7331963 0.2980251 9.613195
v -0.9371119 0.7354479 9.834158
v -0.7965574 0.3083172 9.588751
v -1.011731 0.7425241 9.801674
v -0.8242188 0.2552481 9.615124
v -0.9602699 0.7743654 9.784948
v -1.159683 1.223045 10.55269
v -1.15904 1.20439 10.56395
v -1.187986 1.206641 10.55172
v -0.9371119 0.7354479 9.834158
v -1.159683 1.223045 10.55269
v -0.9602699 0.7743654 9.784948
v -1.15904 1.20439 10.56395
v -1.011731 0.7425241 9.801674
v -1.159683 1.223045 10.55269
v -1.187986 1.206641 10.55172
v -0.9602699 0.7743654 9.784948
v -0.5418243 0.5881395 5.348326
v -0.9789248 1.454943 6.325451
v -0.6955652 0.5784903 5.30587
v -0.8316164 1.481961 6.379807
v -0.5189877 0.2169733 5.302653
v -0.6293077 0.1841669 6.654804
v -0.5945721 0.02045441 5.121895
v -0.5704489 0.3128204 6.642902
v -0.5135202 0.199605 4.970083
v -0.5418243 0.5881395 5.348326
v -0.6955652 0.5784903 5.30587
v -0.2742243 0.1677628 5.089732
v -0.5418243 0.5881395 5.348326
v -0.8557386 1.326933 6.433519
v -0.8316164 1.481961 6.379807
v -0.5778465 0.476532 5.465722
v -0.5135202 0.199605 4.970083
v -0.7418804 0.4752455 5.398178
v -0.5945721 0.02045441 5.121895
v -0.6955652 0.5784903 5.30587
v -0.5189877 0.2169733 5.302653
v -0.5418243 0.5881395 5.348326
v -0.2742243 0.1677628 5.089732
v -0.5778465 0.476532 5.465722
v -0.9982233 1.543071 6.500742
v -1.509943 1.640848 6.53966
v -1.446902 1.660146 6.62071
v -1.028778 1.356845 6.407467
v -0.8557386 1.326933 6.433519
v -1.108865 1.965055 7.873796
v -0.9737787 1.941897 7.894382
v -1.028778 1.356845 6.407467
v -0.7418804 0.4752455 5.398178
v -0.8557386 1.326933 6.433519
v -0.5778465 0.476532 5.465722
v -1.028778 1.356845 6.407467
v -0.7418804 0.4752455 5.398178
v -0.9789248 1.454943 6.325451
v -1.028778 1.356845 6.407467
v -0.6955652 0.5784903 5.30587
v -0.9737787 1.941897 7.894382
v -0.9026976 2.073446 9.194427
v -1.01141 2.071195 7.848066
v -0.8727846 1.984353 9.194748
v -0.8316164 1.481961 6.379807
v -0.9737787 1.941897 7.894382
v -1.01141 2.071195 7.848066
v -0.8557386 1.326933 6.433519
v -0.8316164 1.481961 6.379807
v -1.01141 2.071195 7.848066
v -0.9982233 1.543071 6.500742
v -0.8727846 1.984353 9.194748
v -0.9310007 2.410519 10.34427
v -0.8891897 2.406338 10.35231
v -0.9634857 2.002687 9.200859
v -0.9737787 1.941897 7.894382
v -0.9634857 2.002687 9.200859
v -0.8727846 1.984353 9.194748
v -1.108865 1.965055 7.873796
v -1.108865 1.965055 7.873796
v -0.9026976 2.073446 9.194427
v -0.9634857 2.002687 9.200859
v -1.01141 2.071195 7.848066
v -0.9039841 2.437535 10.32851
v -0.8891897 2.406338 10.35231
v -0.9310007 2.410519 10.34427
v -0.9026976 2.073446 9.194427
v -0.9310007 2.410519 10.34427
v -0.9634857 2.002687 9.200859
v -0.9039841 2.437535 10.32851
v -0.9026976 2.073446 9.194427
v -0.8891897 2.406338 10.35231
v -0.9039841 2.437535 10.32851
v -0.8727846 1.984353 9.194748
v -1.028778 1.356845 6.407467
v -1.485499 1.728333 6.539337
v -1.509943 1.640848 6.53966
v -0.9789248 1.454943 6.325451
v -0.9982233 1.543071 6.500742
v -1.108865 1.965055 7.873796
v -1.028778 1.356845 6.407467
v -1.01141 2.071195 7.848066
v -1.446902 1.660146 6.62071
v -2.205958 1.961196 7.291639
v -2.151281 1.967628 7.338276
v -1.509943 1.640848 6.53966
v -0.8316164 1.481961 6.379807
v -1.485499 1.728333 6.539337
v -0.9789248 1.454943 6.325451
v -0.9982233 1.543071 6.500742
v -1.485499 1.728333 6.539337
v -0.8316164 1.481961 6.379807
v -1.446902 1.660146 6.62071
v -2.151281 1.967628 7.338276
v -2.460372 1.976313 8.463675
v -2.18248 2.017159 7.298071
v -2.435284 1.945757 8.462067
v -1.446902 1.660146 6.62071
v -2.18248 2.017159 7.298071
v -1.485499 1.728333 6.539337
v -2.151281 1.967628 7.338276
v -1.485499 1.728333 6.539337
v -2.205958 1.961196 7.291639
v -1.509943 1.640848 6.53966
v -2.18248 2.017159 7.298071
v -2.460372 1.976313 8.463675
v -2.435284 1.945757 8.462067
v -2.469056 1.94833 8.459171
v -2.205958 1.961196 7.291639
v -2.460372 1.976313 8.463675
v -2.469056 1.94833 8.459171
v -2.18248 2.017159 7.298071
v -2.151281 1.967628 7.338276
v -2.469056 1.94833 8.459171
v -2.435284 1.945757 8.462067
v -2.205958 1.961196 7.291639
v 2.868464 -3.610795 9.170305
v 2.726623 -3.28498 8.173882
v 2.79288 -3.313284 8.140112
v 2.835013 -3.596644 9.187351
v 2.835013 -3.596644 9.187351
v 2.868464 -3.610795 9.170305
v 2.837265 -3.626556 9.173199
v 2.728553 -3.348985 8.145901
v 2.868464 -3.610795 9.170305
v 2.79288 -3.313284 8.140112
v 2.837265 -3.626556 9.173199
v 0.4086056 -0.7363501 7.015999
v 0.0908308 -0.7964964 8.682707
v 0.3040743 -0.7617598 6.956175
v 0.1165609 -0.788456 8.683672
v 1.17699 -1.178597 6.107061
v 2.023209 -2.374112 6.851645
v 1.119739 -1.218159 5.96715
v 2.028677 -2.271511 6.898281
v 1.101084 -1.078248 6.007033
v 0.4086056 -0.7363501 7.015999
v 0.3040743 -0.7617598 6.956175
v 1.244533 -1.041581 6.003495
v 0.4086056 -0.7363501 7.015999
v 0.1152744 -0.8128996 8.687853
v 0.1165609 -0.788456 8.683672
v 0.3757992 -0.8518171 7.000561
v 1.101084 -1.078248 6.007033
v 0.3757992 -0.8518171 7.000561
v 1.119739 -1.218159 5.96715
v 0.3040743 -0.7617598 6.956175
v 1.17699 -1.178597 6.107061
v 0.4086056 -0.7363501 7.015999
v 1.244533 -1.041581 6.003495
v 0.3757992 -0.8518171 7.000561
v 0.1152744 -0.8128996 8.687853
v 0.0908308 -0.7964964 8.682707
v 0.1165609 -0.788456 8.683672
v 0.0908308 -0.7964964 8.682707
v 0.3757992 -0.8518171 7.000561
v 0.3040743 -0.7617598 6.956175
v 0.1152744 -0.8128996 8.687853
v 1.179884 0.8007383 3.952112
v 0.6591587 1.62959 5.200052
v 0.7164097 1.514124 5.265666
v 1.134212 0.9030199 3.860446
v 1.681955 0.1458921 3.374456
v 1.271549 0.9950066 3.844686
v 1.630172 0.1468573 3.112003
v 1.352923 0.9078436 3.95758
v 1.681955 0.1458921 3.374456
v 2.798669 -0.04355049 3.853692
v 1.467747 -0.07925224 3.299516
v 2.808318 0.1815939 3.850474
v 1.352923 0.9078436 3.95758
v 0.7164097 1.514124 5.265666
v 0.8875189 1.624444 5.271456
v 1.179884 0.8007383 3.952112
v 1.38573 0.1494303 3.228435
v 1.179884 0.8007383 3.952112
v 1.467747 -0.07925224 3.299516
v 1.134212 0.9030199 3.860446
v 1.681955 0.1458921 3.374456
v 1.179884 0.8007383 3.952112
v 1.352923 0.9078436 3.95758
v 1.467747 -0.07925224 3.299516
v 0.8875189 1.624444 5.271456
v 0.6308546 2.126838 7.061993
v 0.7328119 2.198239 7.043982
v 0.7164097 1.514124 5.265666
v 0.8875189 1.624444 5.271456
v 0.6614103 2.270286 7.038191
v 0.7923155 1.727368 5.185901
v 0.7328119 2.198239 7.043982
v 1.134212 0.9030199 3.860446
v 0.7923155 1.727368 5.185901
v 0.6591587 1.62959 5.200052
v 1.271549 0.9950066 3.844686
v 1.352923 0.9078436 3.95758
v 0.7923155 1.727368 5.185901
v 1.271549 0.9950066 3.844686
v 0.8875189 1.624444 5.271456
v 0.5932236 2.184731 6.999275
v 0.1866779 2.316923 7.369474
v 0.6308546 2.126838 7.061993
v 0.09276104 2.313064 7.288101
v 0.7328119 2.198239 7.043982
v 1.322369 2.234263 8.278414
v 1.375759 2.310812 8.247858
v 0.6308546 2.126838 7.061993
v 0.7164097 1.514124 5.265666
v 0.5932236 2.184731 6.999275
v 0.6308546 2.126838 7.061993
v 0.6591587 1.62959 5.200052
v 0.7923155 1.727368 5.185901
v 0.5932236 2.184731 6.999275
v 0.6591587 1.62959 5.200052
v 0.6614103 2.270286 7.038191
v 1.270263 2.300199 8.284523
v 1.608945 2.427565 10.03711
v 1.572599 2.422097 10.0384
v 1.375759 2.310812 8.247858
v 1.322369 2.234263 8.278414
v 1.572599 2.422097 10.0384
v 1.587073 2.396367 10.04258
v 1.270263 2.300199 8.284523
v 0.6231356 2.212393 7.155268
v 1.375759 2.310812 8.247858
v 1.270263 2.300199 8.284523
v 0.6614103 2.270286 7.038191
v 0.7328119 2.198239 7.043982
v 1.375759 2.310812 8.247858
v 0.6614103 2.270286 7.038191
v 1.572599 2.422097 10.0384
v 1.608945 2.427565 10.03711
v 1.587073 2.396367 10.04258
v 1.322369 2.234263 8.278414
v 1.608945 2.427565 10.03711
v 1.375759 2.310812 8.247858
v 1.587073 2.396367 10.04258
v 0.09276104 2.313064 7.288101
v -0.1185532 2.475811 7.945843
v -0.1642246 2.402156 7.949703
v 0.159339 2.393473 7.312868
v 0.6308546 2.126838 7.061993
v 0.1866779 2.316923 7.369474
v 0.6231356 2.212393 7.155268
v 0.6231356 2.212393 7.155268
v 1.322369 2.234263 8.278414
v 0.6308546 2.126838 7.061993
v 1.270263 2.300199 8.284523
v 0.5932236 2.184731 6.999275
v 0.159339 2.393473 7.312868
v 0.09276104 2.313064 7.288101
v 0.6614103 2.270286 7.038191
v 0.6231356 2.212393 7.155268
v 0.159339 2.393473 7.312868
v 0.6614103 2.270286 7.038191
v 0.1866779 2.316923 7.369474
v 4.304882 -0.05159187 4.878739
v 2.893873 -0.125246 3.751411
v 4.248596 -0.125246 4.959791
v 2.988755 -0.01138687 3.631442
v 6.021122 -0.05159187 5.951712
v 5.964515 -0.9032793 6.466326
v 5.857732 0.00308609 6.007676
v 6.021122 -0.05159187 5.951712
v 7.768883 0.02270603 6.3708
v 5.90855 0.02367115 5.82563
v 7.758269 -0.08600616 6.421297
v 5.857089 -0.9187174 6.366941
v 5.55411 -1.67906 7.525789
v 5.964193 -0.9634247 6.325451
v 5.484958 -1.634996 7.520643
v 6.021122 -0.05159187 5.951712
v 5.964193 -0.9634247 6.325451
v 5.964515 -0.9032793 6.466326
v 5.90855 0.02367115 5.82563
v 5.814312 -0.05319977 5.879665
v 5.964193 -0.9634247 6.325451
v 5.90855 0.02367115 5.82563
v 5.857089 -0.9187174 6.366941
v 5.560864 -1.579997 7.550554
v 5.449578 -1.986221 8.67724
v 5.484958 -1.634996 7.520643
v 5.472093 -1.967245 8.686888
v 5.964515 -0.9032793 6.466326
v 5.484958 -1.634996 7.520643
v 5.857089 -0.9187174 6.366941
v 5.560864 -1.579997 7.550554
v 5.964515 -0.9032793 6.466326
v 5.55411 -1.67906 7.525789
v 5.560864 -1.579997 7.550554
v 5.964193 -0.9634247 6.325451
v 5.449578 -1.986221 8.67724
v 5.472093 -1.967245 8.686888
v 5.476274 -2.001659 8.674667
v 5.560864 -1.579997 7.550554
v 5.476274 -2.001659 8.674667
v 5.472093 -1.967245 8.686888
v 5.55411 -1.67906 7.525789
v 5.55411 -1.67906 7.525789
v 5.449578 -1.986221 8.67724
v 5.476274 -2.001659 8.674667
v 5.484958 -1.634996 7.520643
v -0.1185532 2.475811 7.945843
v -0.1317406 2.795515 9.350742
v -0.1642246 2.402156 7.949703
v -0.1060095 2.837006 9.345274
v -0.1317406 2.795515 9.350742
v -0.07255936 2.423384 7.985083
v -0.1642246 2.402156 7.949703
v -0.07995701 2.801626 9.358782
v 0.1866779 2.316923 7.369474
v -0.1185532 2.475811 7.945843
v 0.159339 2.393473 7.312868
v -0.07255936 2.423384 7.985083
v 0.1866779 2.316923 7.369474
v -0.1642246 2.402156 7.949703
v -0.07255936 2.423384 7.985083
v 0.09276104 2.313064 7.288101
v -0.07995701 2.801626 9.358782
v -0.1317406 2.795515 9.350742
v -0.1060095 2.837006 9.345274
v -0.07255936 2.423384 7.985083
v -0.1060095 2.837006 9.345274
v -0.1185532 2.475811 7.945843
v -0.07995701 2.801626 9.358782
v 7.768883 0.02270603 6.3708
v 7.758269 -0.08600616 6.421297
v 9.482872 0.02527905 7.365936
v 2.123559 -2.323294 6.841673
v 2.728553 -3.348985 8.145901
v 2.79288 -3.313284 8.140112
v 2.023209 -2.374112 6.851645
v 9.938627 0.005016327 8.352068
v 9.90968 -0.003025055 8.355927
v 9.912896 0.02495766 8.357857
v -2.532739 -1.282486 7.119564
v -2.4266 -1.919321 8.245607
v -2.484173 -1.919965 8.260723
v -2.397654 -1.281521 7.084507
v -2.744697 -0.2101574 6.359222
v -2.397654 -1.281521 7.084507
v -2.532739 -1.282486 7.119564
v -2.590633 -0.1197777 6.334457
v -2.744697 -0.2101574 6.359222
v -4.121613 -0.239747 7.135324
v -2.590633 -0.1197777 6.334457
v -4.16439 -0.3301268 7.096407
v -2.610896 -0.2027597 6.2801
v -2.466483 -1.364502 7.039799
v -2.397654 -1.281521 7.084507
v -2.709317 -0.1339302 6.232498
v -2.744697 -0.2101574 6.359222
v -2.466483 -1.364502 7.039799
v -2.709317 -0.1339302 6.232498
v -2.532739 -1.282486 7.119564
v -2.484173 -1.919965 8.260723
v -2.4266 -1.919321 8.245607
v -2.45587 -1.955023 8.226631
v -2.397654 -1.281521 7.084507
v -2.45587 -1.955023 8.226631
v -2.4266 -1.919321 8.245607
v -2.466483 -1.364502 7.039799
v -2.532739 -1.282486 7.119564
v -2.45587 -1.955023 8.226631
v -2.466483 -1.364502 7.039799
v -2.484173 -1.919965 8.260723
vn 0.4353168 0.8976767 0.0683803
vn 0.4353168 0.8976767 0.0683803
vn 0.4353168 0.8976767 0.0683803
vn 0.4353168 0.8976767 0.0683803
vn 0.4353168 0.8976767 0.0683803
vn 0.4353168 0.8976767 0.0683803
vn 0.4353168 0.8976767 0.0683803
vn 0.7803269 -0.6235042 0.04829574
vn 0.7803269 -0.6235042 0.04829574
vn 0.7803269 -0.6235042 0.04829574
vn 0.7803269 -0.6235042 0.04829574
vn -0.7800597 -0.6235042 0.05243485
vn -0.7800597 -0.6235042 0.05243485
vn -0.7800597 -0.6235042 0.05243485
vn -0.7800597 -0.6235042 0.05243485
vn -0.4350495 0.8976767 0.07006028
vn -0.4350495 0.8976767 0.07006028
vn -0.4350495 0.8976767 0.07006028
vn -0.4350495 0.8976767 0.07006028
vn -0.4350495 0.8976767 -0.07006028
vn -0.4350495 0.8976767 -0.07006028
vn 0.9685142 0.2233388 0.11
vn 0.9685142 0.2233388 0.11
vn 0.9685142 0.2233388 0.11
vn 0.9685142 0.2233388 0.11
vn -0.003787041 -0.9998788 0.01510321
vn -0.003787041 -0.9998788 0.01510321
vn -0.003787041 -0.9998788 0.01510321
vn -0.003787041 -0.9998788 0.01510321
vn -0.976088 0.2233388 0
vn -0.976088 0.2233388 0
vn -0.976088 0.2233388 0
vn -0.976088 0.2233388 0
vn -0.9055178 0.2076566 0.3700219
vn -0.9055178 0.2076566 0.3700219
vn -0.9055178 0.2076566 0.3700219
vn -0.9055178 0.2076566 0.3700219
vn -0.003787041 -0.9920377 0.1258845
vn -0.003787041 -0.9920377 0.1258845
vn -0.003787041 -0.9920377 0.1258845
vn -0.003787041 -0.9920377 0.1258845
vn 0.9685142 0.2233388 -0.11
vn 0.9685142 0.2233388 -0.11
vn 0.9685142 0.2233388 -0.11
vn 0.9685142 0.2233388 -0.11
vn -0.4193673 0.8663121 0.2713565
vn -0.4193673 0.8663121 0.2713565
vn -0.4193673 0.8663121 0.2713565
vn -0.4193673 0.8663121 0.2713565
vn -0.7408539 -0.5921396 0.3170272
vn -0.7408539 -0.5921396 0.3170272
vn -0.7408539 -0.5921396 0.3170272
vn -0.7408539 -0.5921396 0.3170272
vn 0.7803269 -0.6235042 -0.04829574
vn 0.7803269 -0.6235042 -0.04829574
vn 0.7803269 -0.6235042 -0.04829574
vn 0.7803269 -0.6235042 -0.04829574
vn -0.8898356 0.2076566 -0.4062897
vn -0.8898356 0.2076566 -0.4062897
vn -0.8898356 0.2076566 -0.4062897
vn -0.8898356 0.2076566 -0.4062897
vn -0.7486951 -0.5999807 -0.2819197
vn -0.7486951 -0.5999807 -0.2819197
vn -0.7486951 -0.5999807 -0.2819197
vn -0.7486951 -0.5999807 -0.2819197
vn 0.2941763 -0.9214674 0.2536893
vn 0.2941763 -0.9214674 0.2536893
vn 0.2941763 -0.9214674 0.2536893
vn 0.2941763 -0.9214674 0.2536893
vn -0.7016482 -0.7097566 -0.06273179
vn -0.7016482 -0.7097566 -0.06273179
vn -0.7016482 -0.7097566 -0.06273179
vn -0.7016482 -0.7097566 -0.06273179
vn 0.0903067 0.9839293 0.1540386
vn 0.0903067 0.9839293 0.1540386
vn 0.0903067 0.9839293 0.1540386
vn 0.0903067 0.9839293 0.1540386
vn 0.5137282 -0.8508971 0.1098063
vn 0.5137282 -0.8508971 0.1098063
vn 0.5137282 -0.8508971 0.1098063
vn 0.5137282 -0.8508971 0.1098063
vn -0.9525647 0.3017502 -0.03958863
vn -0.9525647 0.3017502 -0.03958863
vn -0.9525647 0.3017502 -0.03958863
vn -0.9525647 0.3017502 -0.03958863
vn 0.9763554 0.1684508 0.1354787
vn 0.9763554 0.1684508 0.1354787
vn 0.9763554 0.1684508 0.1354787
vn 0.9763554 0.1684508 0.1354787
vn 0.897944 0.2076566 0.3880404
vn 0.897944 0.2076566 0.3880404
vn 0.897944 0.2076566 0.3880404
vn 0.897944 0.2076566 0.3880404
vn 0.4431579 0.6075546 0.6591574
vn 0.4431579 0.6075546 0.6591574
vn 0.4431579 0.6075546 0.6591574
vn 0.4431579 0.6075546 0.6591574
vn 0.1451947 0.9917704 0
vn 0.1451947 0.9917704 0
vn 0.1451947 0.9917704 0
vn 0.1451947 0.9917704 0
vn 0.7411212 0.4272084 -0.5179115
vn 0.7411212 0.4272084 -0.5179115
vn 0.7411212 0.4272084 -0.5179115
vn 0.7411212 0.4272084 -0.5179115
vn 0.560775 -0.8273737 0.03136993
vn 0.560775 -0.8273737 0.03136993
vn 0.560775 -0.8273737 0.03136993
vn 0.560775 -0.8273737 0.03136993
vn -0.9133589 0.403685 0.0530464
vn -0.9133589 0.403685 0.0530464
vn -0.9133589 0.403685 0.0530464
vn -0.9133589 0.403685 0.0530464
vn -0.4977787 -0.8273737 -0.2601328
vn -0.4977787 -0.8273737 -0.2601328
vn -0.4977787 -0.8273737 -0.2601328
vn -0.4977787 -0.8273737 -0.2601328
vn -0.5761901 -0.8116915 0.09571807
vn -0.5761901 -0.8116915 0.09571807
vn -0.5761901 -0.8116915 0.09571807
vn -0.5761901 -0.8116915 0.09571807
vn -0.4115262 -0.7960092 -0.4438643
vn -0.4115262 -0.7960092 -0.4438643
vn -0.4115262 -0.7960092 -0.4438643
vn -0.4115262 -0.7960092 -0.4438643
vn 0.7568035 -0.5294105 0.3833705
vn 0.7568035 -0.5294105 0.3833705
vn 0.7568035 -0.5294105 0.3833705
vn 0.7568035 -0.5294105 0.3833705
vn -0.7486951 0.4977787 -0.4378036
vn -0.7486951 0.4977787 -0.4378036
vn -0.7486951 0.4977787 -0.4378036
vn -0.7486951 0.4977787 -0.4378036
vn 0.7175978 -0.2157649 0.6621925
vn 0.7175978 -0.2157649 0.6621925
vn 0.7175978 -0.2157649 0.6621925
vn 0.7175978 -0.2157649 0.6621925
vn -0.631078 0.458573 -0.6256607
vn -0.631078 0.458573 -0.6256607
vn -0.631078 0.458573 -0.6256607
vn -0.631078 0.458573 -0.6256607
vn 0.4980459 0.7330128 0.4632953
vn 0.4980459 0.7330128 0.4632953
vn 0.4980459 0.7330128 0.4632953
vn 0.4980459 0.7330128 0.4632953
vn 0.5764573 0.7565362 0.3087878
vn 0.5764573 0.7565362 0.3087878
vn 0.5764573 0.7565362 0.3087878
vn 0.5764573 0.7565362 0.3087878
vn -0.7800597 0.4899375 -0.389189
vn -0.7800597 0.4899375 -0.389189
vn -0.7800597 0.4899375 -0.389189
vn -0.7800597 0.4899375 -0.389189
vn 0.9528319 -0.03541875 -0.3014247
vn 0.9528319 -0.03541875 -0.3014247
vn 0.9528319 -0.03541875 -0.3014247
vn -0.4507319 0.4742552 -0.7562557
vn -0.4507319 0.4742552 -0.7562557
vn -0.4507319 0.4742552 -0.7562557
vn 0.6078218 -0.4980459 0.6184682
vn 0.6078218 -0.4980459 0.6184682
vn 0.6078218 -0.4980459 0.6184682
vn 0.6078218 -0.4980459 0.6184682
vn -0.4350495 -0.8116915 -0.3897292
vn -0.4350495 -0.8116915 -0.3897292
vn -0.4350495 -0.8116915 -0.3897292
vn -0.4350495 -0.8116915 -0.3897292
vn -0.685966 -0.4980459 -0.5304724
vn -0.685966 -0.4980459 -0.5304724
vn -0.685966 -0.4980459 -0.5304724
vn -0.685966 -0.4980459 -0.5304724
vn 0.615663 -0.5215694 0.5906982
vn 0.615663 -0.5215694 0.5906982
vn 0.615663 -0.5215694 0.5906982
vn 0.615663 -0.5215694 0.5906982
vn -0.3174325 -0.6548687 -0.6858452
vn -0.3174325 -0.6548687 -0.6858452
vn -0.3174325 -0.6548687 -0.6858452
vn -0.3174325 -0.6548687 -0.6858452
vn 0.1295124 0.8898356 0.4375147
vn 0.1295124 0.8898356 0.4375147
vn 0.1295124 0.8898356 0.4375147
vn 0.1295124 0.8898356 0.4375147
vn 0.03541875 0.9996115 0
vn 0.03541875 0.9996115 0
vn 0.03541875 0.9996115 0
vn 0.03541875 0.9996115 0
vn 0.08246559 0.9996115 0
vn 0.08246559 0.9996115 0
vn 0.08246559 0.9996115 0
vn 0.08246559 0.9996115 0
vn -0.2076566 -0.05110103 0.9768661
vn -0.2076566 -0.05110103 0.9768661
vn -0.2076566 -0.05110103 0.9768661
vn 0.788168 -0.5372516 0.300253
vn 0.788168 -0.5372516 0.300253
vn 0.788168 -0.5372516 0.300253
vn 0.788168 -0.5372516 0.300253
vn -0.8192654 -0.4980459 -0.2841735
vn -0.8192654 -0.4980459 -0.2841735
vn -0.8192654 -0.4980459 -0.2841735
vn -0.8192654 -0.4980459 -0.2841735
vn 0.1451947 0.9839293 -0.1039311
vn 0.1451947 0.9839293 -0.1039311
vn 0.1451947 0.9839293 -0.1039311
vn 0.1451947 0.9839293 -0.1039311
vn 0.5842984 -0.7960092 0.1580022
vn 0.5842984 -0.7960092 0.1580022
vn 0.5842984 -0.7960092 0.1580022
vn 0.5842984 -0.7960092 0.1580022
vn -0.3252736 -0.560775 0.761399
vn -0.3252736 -0.560775 0.761399
vn -0.3252736 -0.560775 0.761399
vn -0.3252736 -0.560775 0.761399
vn 0.9920377 0.07435727 0.1016478
vn 0.9920377 0.07435727 0.1016478
vn 0.9920377 0.07435727 0.1016478
vn 0.9920377 0.07435727 0.1016478
vn -0.5997134 -0.7960092 0.08193383
vn -0.5997134 -0.7960092 0.08193383
vn -0.5997134 -0.7960092 0.08193383
vn -0.5997134 -0.7960092 0.08193383
vn 0.8665794 0.4428908 -0.2299737
vn 0.8665794 0.4428908 -0.2299737
vn 0.8665794 0.4428908 -0.2299737
vn 0.8665794 0.4428908 -0.2299737
vn 0.9998788 0.05867493 0
vn 0.9998788 0.05867493 0
vn 0.9998788 0.05867493 0
vn 0.9998788 0.05867493 0
vn -0.6389191 -0.4666814 0.6115479
vn -0.6389191 -0.4666814 0.6115479
vn -0.6389191 -0.4666814 0.6115479
vn -0.6389191 -0.4666814 0.6115479
vn -0.4664141 0.7565362 0.4583784
vn -0.4664141 0.7565362 0.4583784
vn -0.4664141 0.7565362 0.4583784
vn -0.4664141 0.7565362 0.4583784
vn -0.2547034 0.6467603 0.7189069
vn -0.2547034 0.6467603 0.7189069
vn -0.2547034 0.6467603 0.7189069
vn -0.2547034 0.6467603 0.7189069
vn 0.3412231 -0.6470275 -0.681852
vn 0.3412231 -0.6470275 -0.681852
vn 0.3412231 -0.6470275 -0.681852
vn 0.3412231 -0.6470275 -0.681852
vn 0.3961111 -0.7332801 -0.5526268
vn 0.3961111 -0.7332801 -0.5526268
vn 0.3961111 -0.7332801 -0.5526268
vn 0.3961111 -0.7332801 -0.5526268
vn -0.8898356 -0.2863352 0.3552531
vn -0.8898356 -0.2863352 0.3552531
vn -0.8898356 -0.2863352 0.3552531
vn -0.8898356 -0.2863352 0.3552531
vn -0.8663121 -0.4353168 0.2449542
vn -0.8663121 -0.4353168 0.2449542
vn -0.8663121 -0.4353168 0.2449542
vn -0.8663121 -0.4353168 0.2449542
vn 0.5842984 -0.6627098 -0.4684133
vn 0.5842984 -0.6627098 -0.4684133
vn 0.5842984 -0.6627098 -0.4684133
vn 0.5842984 -0.6627098 -0.4684133
vn 0.8352149 0.5526667 0
vn 0.8352149 0.5526667 0
vn 0.8352149 0.5526667 0
vn 0.8352149 0.5526667 0
vn 0.01973647 0.5997134 0.7999714
vn 0.01973647 0.5997134 0.7999714
vn 0.01973647 0.5997134 0.7999714
vn -0.2625445 0.7957419 0.5457703
vn -0.2625445 0.7957419 0.5457703
vn -0.2625445 0.7957419 0.5457703
vn -0.2625445 0.7957419 0.5457703
vn 0.897944 0.2782269 -0.341008
vn 0.897944 0.2782269 -0.341008
vn 0.897944 0.2782269 -0.341008
vn 0.897944 0.2782269 -0.341008
vn 0.5529339 0.7722185 0.3129582
vn 0.5529339 0.7722185 0.3129582
vn 0.5529339 0.7722185 0.3129582
vn 0.5529339 0.7722185 0.3129582
vn -0.05867493 -0.9528319 0.2977727
vn -0.05867493 -0.9528319 0.2977727
vn -0.05867493 -0.9528319 0.2977727
vn 0.1765592 -0.505887 -0.8443371
vn 0.1765592 -0.505887 -0.8443371
vn 0.1765592 -0.505887 -0.8443371
vn 0.1765592 -0.505887 -0.8443371
vn -0.9133589 -0.1530358 0.3773003
vn -0.9133589 -0.1530358 0.3773003
vn -0.9133589 -0.1530358 0.3773003
vn -0.9133589 -0.1530358 0.3773003
vn -0.9917704 -0.08246559 0.09793336
vn -0.9917704 -0.08246559 0.09793336
vn -0.9917704 -0.08246559 0.09793336
vn -0.9917704 -0.08246559 0.09793336
vn -0.1214041 -0.9293085 0.3487789
vn -0.1214041 -0.9293085 0.3487789
vn -0.1214041 -0.9293085 0.3487789
vn -0.1214041 -0.9293085 0.3487789
vn -0.1370864 0.9917704 0
vn -0.1370864 0.9917704 0
vn -0.1370864 0.9917704 0
vn -0.1370864 0.9917704 0
vn 0.8508971 0.2076566 -0.4825483
vn 0.8508971 0.2076566 -0.4825483
vn 0.8508971 0.2076566 -0.4825483
vn 0.8508971 0.2076566 -0.4825483
vn -0.003787041 -0.9606731 0.277656
vn -0.003787041 -0.9606731 0.277656
vn -0.003787041 -0.9606731 0.277656
vn 0.2628118 0.9682469 0
vn 0.2628118 0.9682469 0
vn 0.2628118 0.9682469 0
vn 0.2628118 0.9682469 0
vn 0.6783921 -0.6862332 -0.2624274
vn 0.6783921 -0.6862332 -0.2624274
vn 0.6783921 -0.6862332 -0.2624274
vn 0.6783921 -0.6862332 -0.2624274
vn 0.1216713 0.976088 0.1801339
vn 0.1216713 0.976088 0.1801339
vn 0.1216713 0.976088 0.1801339
vn -0.7094893 -0.1138301 0.6954621
vn -0.7094893 -0.1138301 0.6954621
vn -0.7094893 -0.1138301 0.6954621
vn -0.7094893 -0.1138301 0.6954621
vn -0.3017502 -0.843056 0.4452004
vn -0.3017502 -0.843056 0.4452004
vn -0.3017502 -0.843056 0.4452004
vn -0.3017502 -0.843056 0.4452004
vn 0.01973647 0.9996115 0.01968022
vn 0.01973647 0.9996115 0.01968022
vn 0.01973647 0.9996115 0.01968022
vn 0.01973647 0.9996115 0.01968022
vn -0.5918723 0.02731037 0.8055689
vn -0.5918723 0.02731037 0.8055689
vn -0.5918723 0.02731037 0.8055689
vn -0.5918723 0.02731037 0.8055689
vn 0.3961111 -0.788168 -0.471049
vn 0.3961111 -0.788168 -0.471049
vn 0.3961111 -0.788168 -0.471049
vn 0.3961111 -0.788168 -0.471049
vn 0.6078218 0.2154977 -0.7642731
vn 0.6078218 0.2154977 -0.7642731
vn 0.6078218 0.2154977 -0.7642731
vn 0.6078218 0.2154977 -0.7642731
vn -0.3880028 0.5056198 -0.7705858
vn -0.3880028 0.5056198 -0.7705858
vn -0.3880028 0.5056198 -0.7705858
vn -0.3880028 0.5056198 -0.7705858
vn 0.3725877 0.2154977 -0.902629
vn 0.3725877 0.2154977 -0.902629
vn 0.3725877 0.2154977 -0.902629
vn 0.3725877 0.2154977 -0.902629
vn -0.1841332 -0.843056 0.5053233
vn -0.1841332 -0.843056 0.5053233
vn -0.1841332 -0.843056 0.5053233
vn -0.1841332 -0.843056 0.5053233
vn -0.02731037 0.9996115 -0.005567263
vn -0.02731037 0.9996115 -0.005567263
vn -0.02731037 0.9996115 -0.005567263
vn -0.02731037 0.9996115 -0.005567263
vn 0.2549706 -0.7960092 -0.5489621
vn 0.2549706 -0.7960092 -0.5489621
vn 0.2549706 -0.7960092 -0.5489621
vn 0.2549706 -0.7960092 -0.5489621
vn -0.6467603 0.0351516 0.7618828
vn -0.6467603 0.0351516 0.7618828
vn -0.6467603 0.0351516 0.7618828
vn -0.6467603 0.0351516 0.7618828
vn -0.3331147 -0.8587383 0.3893624
vn -0.3331147 -0.8587383 0.3893624
vn -0.3331147 -0.8587383 0.3893624
vn -0.3331147 -0.8587383 0.3893624
vn 0.6705509 0.2233388 -0.7074469
vn 0.6705509 0.2233388 -0.7074469
vn 0.6705509 0.2233388 -0.7074469
vn 0.6705509 0.2233388 -0.7074469
vn 0.04325992 0.9996115 0
vn 0.04325992 0.9996115 0
vn 0.04325992 0.9996115 0
vn 0.04325992 0.9996115 0
vn -0.0351516 0.9996115 0
vn -0.0351516 0.9996115 0
vn -0.0351516 0.9996115 0
vn -0.0351516 0.9996115 0
vn 0.333382 -0.7960092 -0.5051988
vn 0.333382 -0.7960092 -0.5051988
vn 0.333382 -0.7960092 -0.5051988
vn 0.333382 -0.7960092 -0.5051988
vn -0.5056198 0.0351516 0.86204
vn -0.5056198 0.0351516 0.86204
vn -0.5056198 0.0351516 0.86204
vn -0.5056198 0.0351516 0.86204
vn 0.4902048 0.2154977 -0.8445472
vn 0.4902048 0.2154977 -0.8445472
vn 0.4902048 0.2154977 -0.8445472
vn 0.4902048 0.2154977 -0.8445472
vn -0.23118 -0.8587383 0.4573012
vn -0.23118 -0.8587383 0.4573012
vn -0.23118 -0.8587383 0.4573012
vn -0.23118 -0.8587383 0.4573012
vn 0.2706529 0.2233388 -0.9364116
vn 0.2706529 0.2233388 -0.9364116
vn 0.2706529 0.2233388 -0.9364116
vn -0.1449275 -0.8744205 0.463017
vn -0.1449275 -0.8744205 0.463017
vn -0.1449275 -0.8744205 0.463017
vn -0.1449275 -0.8744205 0.463017
vn 0.0903067 0.9839293 -0.1540386
vn 0.0903067 0.9839293 -0.1540386
vn 0.0903067 0.9839293 -0.1540386
vn 0.0903067 0.9839293 -0.1540386
vn -0.8427887 0.1919743 0.502845
vn -0.8427887 0.1919743 0.502845
vn -0.8427887 0.1919743 0.502845
vn -0.8427887 0.1919743 0.502845
vn -0.2468623 0.0351516 0.9684128
vn -0.2468623 0.0351516 0.9684128
vn -0.2468623 0.0351516 0.9684128
vn -0.2468623 0.0351516 0.9684128
vn 0.2314472 0.8741533 -0.4269522
vn 0.2314472 0.8741533 -0.4269522
vn 0.2314472 0.8741533 -0.4269522
vn 0.2314472 0.8741533 -0.4269522
vn -0.4742552 0.1370864 0.8696489
vn -0.4742552 0.1370864 0.8696489
vn -0.4742552 0.1370864 0.8696489
vn -0.4742552 0.1370864 0.8696489
vn -0.003787041 -0.9920377 0.1258845
vn -0.003787041 -0.9920377 0.1258845
vn -0.003787041 -0.9920377 0.1258845
vn -0.003787041 -0.9920377 0.1258845
vn -0.8663121 0.2547034 0.4296853
vn -0.8663121 0.2547034 0.4296853
vn -0.8663121 0.2547034 0.4296853
vn -0.8663121 0.2547034 0.4296853
vn 0.3176997 -0.9293085 -0.1882883
vn 0.3176997 -0.9293085 -0.1882883
vn 0.3176997 -0.9293085 -0.1882883
vn 0.3176997 -0.9293085 -0.1882883
vn 0.6078218 0.7486951 -0.2645907
vn 0.6078218 0.7486951 -0.2645907
vn 0.6078218 0.7486951 -0.2645907
vn 0.6078218 0.7486951 -0.2645907
vn 0.9841965 -0.1373535 0.1117645
vn 0.9841965 -0.1373535 0.1117645
vn 0.9841965 -0.1373535 0.1117645
vn 0.9841965 -0.1373535 0.1117645
vn -0.5056198 -0.8665794 0
vn -0.5056198 -0.8665794 0
vn -0.5056198 -0.8665794 0
vn -0.5056198 -0.8665794 0
vn 0.1451947 0.9917704 0
vn 0.1451947 0.9917704 0
vn 0.1451947 0.9917704 0
vn 0.1451947 0.9917704 0
vn 0.5842984 -0.8116915 0
vn 0.5842984 -0.8116915 0
vn 0.5842984 -0.8116915 0
vn -0.9133589 0.4115262 0
vn -0.9133589 0.4115262 0
vn -0.9133589 0.4115262 0
vn -0.9133589 0.4115262 0
vn -0.9055178 0.4115262 -0.1033619
vn -0.9055178 0.4115262 -0.1033619
vn -0.9055178 0.4115262 -0.1033619
vn -0.9055178 0.4115262 -0.1033619
vn 0.9606731 -0.2314472 0.1534255
vn 0.9606731 -0.2314472 0.1534255
vn 0.9606731 -0.2314472 0.1534255
vn 0.9606731 -0.2314472 0.1534255
vn -0.23118 -0.9685142 -0.09239102
vn -0.23118 -0.9685142 -0.09239102
vn -0.23118 -0.9685142 -0.09239102
vn -0.23118 -0.9685142 -0.09239102
vn 0.1451947 0.9917704 0
vn 0.1451947 0.9917704 0
vn 0.1451947 0.9917704 0
vn 0.1451947 0.9917704 0
vn 0.9920377 0.07435727 -0.1016478
vn 0.9920377 0.07435727 -0.1016478
vn 0.9920377 0.07435727 -0.1016478
vn 0.01189536 -0.9998788 0.0100484
vn 0.01189536 -0.9998788 0.0100484
vn 0.01189536 -0.9998788 0.0100484
vn 0.01189536 -0.9998788 0.0100484
vn 0.4509991 0.8898356 -0.06922754
vn 0.4509991 0.8898356 -0.06922754
vn 0.4509991 0.8898356 -0.06922754
vn 0.4509991 0.8898356 -0.06922754
vn 0.3804288 0.4664141 -0.7985811
vn 0.3804288 0.4664141 -0.7985811
vn 0.3804288 0.4664141 -0.7985811
vn 0.6078218 0.7957419 0
vn 0.6078218 0.7957419 0
vn 0.6078218 0.7957419 0
vn 0.6078218 0.7957419 0
vn -0.9133589 0.3801616 0.1457827
vn -0.9133589 0.3801616 0.1457827
vn -0.9133589 0.3801616 0.1457827
vn -0.9133589 0.3801616 0.1457827
vn 0.1373535 -0.9920377 0
vn 0.1373535 -0.9920377 0
vn 0.1373535 -0.9920377 0
vn 0.1373535 -0.9920377 0
vn 0.4274756 -0.04325992 0.9029912
vn 0.4274756 -0.04325992 0.9029912
vn 0.4274756 -0.04325992 0.9029912
vn -0.340956 -0.4588402 0.8204966
vn -0.340956 -0.4588402 0.8204966
vn -0.340956 -0.4588402 0.8204966
vn -0.340956 -0.4588402 0.8204966
vn -0.7957419 0.5997134 0.08449029
vn -0.7957419 0.5997134 0.08449029
vn -0.7957419 0.5997134 0.08449029
vn -0.7957419 0.5997134 0.08449029
vn -0.2703856 -0.843056 0.4649175
vn -0.2703856 -0.843056 0.4649175
vn -0.2703856 -0.843056 0.4649175
vn -0.2703856 -0.843056 0.4649175
vn 0.9214674 0.3331147 0.1998312
vn 0.9214674 0.3331147 0.1998312
vn 0.9214674 0.3331147 0.1998312
vn 0.9214674 0.3331147 0.1998312
vn -0.5683489 0.1214041 -0.8137817
vn -0.5683489 0.1214041 -0.8137817
vn -0.5683489 0.1214041 -0.8137817
vn -0.5683489 0.1214041 -0.8137817
vn -0.3095914 0.4820964 0.8195952
vn -0.3095914 0.4820964 0.8195952
vn -0.3095914 0.4820964 0.8195952
vn 0.9214674 0.3958439 0
vn 0.9214674 0.3958439 0
vn 0.9214674 0.3958439 0
vn 0.9214674 0.3958439 0
vn -0.513461 0.6702837 -0.5357962
vn -0.513461 0.6702837 -0.5357962
vn -0.513461 0.6702837 -0.5357962
vn -0.513461 0.6702837 -0.5357962
vn 0.1138301 0.7643774 -0.6346416
vn 0.1138301 0.7643774 -0.6346416
vn 0.1138301 0.7643774 -0.6346416
vn 0.1138301 0.7643774 -0.6346416
vn -0.9133589 0.4115262 0
vn -0.9133589 0.4115262 0
vn -0.9133589 0.4115262 0
vn -0.9133589 0.4115262 0
vn 0.3176997 0.6702837 -0.6706614
vn 0.3176997 0.6702837 -0.6706614
vn 0.3176997 0.6702837 -0.6706614
vn 0.3176997 0.6702837 -0.6706614
vn 0.9528319 -0.02757764 0.302243
vn 0.9528319 -0.02757764 0.302243
vn 0.9528319 -0.02757764 0.302243
vn 0.9528319 -0.02757764 0.302243
vn -0.8819945 -0.004054189 -0.4712423
vn -0.8819945 -0.004054189 -0.4712423
vn -0.8819945 -0.004054189 -0.4712423
vn -0.8819945 -0.004054189 -0.4712423
vn 0.7646446 -0.03541875 0.6434782
vn 0.7646446 -0.03541875 0.6434782
vn 0.7646446 -0.03541875 0.6434782
vn 0.7646446 -0.03541875 0.6434782
vn -0.05867493 -0.6313453 0.773279
vn -0.05867493 -0.6313453 0.773279
vn -0.05867493 -0.6313453 0.773279
vn -0.05867493 -0.6313453 0.773279
vn -0.2076566 -0.9057851 0.3693672
vn -0.2076566 -0.9057851 0.3693672
vn -0.2076566 -0.9057851 0.3693672
vn -0.2076566 -0.9057851 0.3693672
vn -0.23118 -0.7646446 0.60156
vn -0.23118 -0.7646446 0.60156
vn -0.23118 -0.7646446 0.60156
vn -0.23118 -0.7646446 0.60156
vn -0.9212002 0.1214041 -0.3696638
vn -0.9212002 0.1214041 -0.3696638
vn -0.9212002 0.1214041 -0.3696638
vn -0.9212002 0.1214041 -0.3696638
vn 0.9606731 0.2782269 0
vn 0.9606731 0.2782269 0
vn 0.9606731 0.2782269 0
vn 0.9606731 0.2782269 0
vn 0.9920377 0.07435727 0.1016478
vn 0.9920377 0.07435727 0.1016478
vn 0.9920377 0.07435727 0.1016478
vn 0.9920377 0.07435727 0.1016478
vn 0.07462442 0.9290413 -0.362372
vn 0.07462442 0.9290413 -0.362372
vn 0.07462442 0.9290413 -0.362372
vn -0.1606097 -0.9293085 0.332551
vn -0.1606097 -0.9293085 0.332551
vn -0.1606097 -0.9293085 0.332551
vn -0.1606097 -0.9293085 0.332551
vn -0.1841332 -0.9841965 0
vn -0.1841332 -0.9841965 0
vn -0.1841332 -0.9841965 0
vn -0.1841332 -0.9841965 0
vn -0.7408539 0.6702837 0.04307335
vn -0.7408539 0.6702837 0.04307335
vn -0.7408539 0.6702837 0.04307335
vn -0.7408539 0.6702837 0.04307335
vn -0.0978806 0.5683489 0.8169449
vn -0.0978806 0.5683489 0.8169449
vn -0.0978806 0.5683489 0.8169449
vn -0.7486951 0.631078 -0.2029682
vn -0.7486951 0.631078 -0.2029682
vn -0.7486951 0.631078 -0.2029682
vn -0.7486951 0.631078 -0.2029682
vn 0.9371496 0.3252736 -0.1262838
vn 0.9371496 0.3252736 -0.1262838
vn 0.9371496 0.3252736 -0.1262838
vn 0.9371496 0.3252736 -0.1262838
vn -0.4272084 -0.2157649 -0.878031
vn -0.4272084 -0.2157649 -0.878031
vn -0.4272084 -0.2157649 -0.878031
vn -0.4272084 -0.2157649 -0.878031
vn -0.8819945 0.4272084 -0.1989439
vn -0.8819945 0.4272084 -0.1989439
vn -0.8819945 0.4272084 -0.1989439
vn -0.8819945 0.4272084 -0.1989439
vn -0.1135629 -0.9449908 0.3067504
vn -0.1135629 -0.9449908 0.3067504
vn -0.1135629 -0.9449908 0.3067504
vn -0.1135629 -0.9449908 0.3067504
vn 0.1138301 0.7330128 -0.6706228
vn 0.1138301 0.7330128 -0.6706228
vn 0.1138301 0.7330128 -0.6706228
vn 0.3647466 0.8976767 0.2472579
vn 0.3647466 0.8976767 0.2472579
vn 0.3647466 0.8976767 0.2472579
vn 0.3647466 0.8976767 0.2472579
vn 0.7489623 0.631078 0.2019803
vn 0.7489623 0.631078 0.2019803
vn 0.7489623 0.631078 0.2019803
vn 0.7489623 0.631078 0.2019803
vn 0.6313453 0.7016482 0.3302921
vn 0.6313453 0.7016482 0.3302921
vn 0.6313453 0.7016482 0.3302921
vn 0.6313453 0.7016482 0.3302921
vn -0.6624426 0.2547034 -0.7044828
vn -0.6624426 0.2547034 -0.7044828
vn -0.6624426 0.2547034 -0.7044828
vn -0.6624426 0.2547034 -0.7044828
vn -0.09003949 -0.1216713 0.9884781
vn -0.09003949 -0.1216713 0.9884781
vn -0.09003949 -0.1216713 0.9884781
vn -0.9055178 0.3723204 -0.2035068
vn -0.9055178 0.3723204 -0.2035068
vn -0.9055178 0.3723204 -0.2035068
vn -0.9055178 0.3723204 -0.2035068
vn 0.05110103 -0.9998788 0
vn 0.05110103 -0.9998788 0
vn 0.05110103 -0.9998788 0
vn 0.05110103 -0.9998788 0
vn 0.4745225 0.858471 0.194566
vn 0.4745225 0.858471 0.194566
vn 0.4745225 0.858471 0.194566
vn 0.4745225 0.858471 0.194566
vn 0.278494 -0.3961111 0.8749498
vn 0.278494 -0.3961111 0.8749498
vn 0.278494 -0.3961111 0.8749498
vn 0.4353168 -0.8587383 -0.2703106
vn 0.4353168 -0.8587383 -0.2703106
vn 0.4353168 -0.8587383 -0.2703106
vn 0.4353168 -0.8587383 -0.2703106
vn -0.2390212 0.9682469 -0.07325806
vn -0.2390212 0.9682469 -0.07325806
vn -0.2390212 0.9682469 -0.07325806
vn -0.2390212 0.9682469 -0.07325806
vn -0.8271065 -0.278494 0.4881967
vn -0.8271065 -0.278494 0.4881967
vn -0.8271065 -0.278494 0.4881967
vn -0.8271065 -0.278494 0.4881967
vn -0.1370864 0.9055178 -0.401553
vn -0.1370864 0.9055178 -0.401553
vn -0.1370864 0.9055178 -0.401553
vn -0.1370864 0.9055178 -0.401553
vn 0.9528319 -0.2471295 0.1761771
vn 0.9528319 -0.2471295 0.1761771
vn 0.9528319 -0.2471295 0.1761771
vn 0.9528319 -0.2471295 0.1761771
vn -0.7957419 -0.3255408 -0.5107034
vn -0.7957419 -0.3255408 -0.5107034
vn -0.7957419 -0.3255408 -0.5107034
vn -0.7957419 -0.3255408 -0.5107034
vn 0.7489623 -0.06678331 0.6592386
vn 0.7489623 -0.06678331 0.6592386
vn 0.7489623 -0.06678331 0.6592386
vn 0.7489623 -0.06678331 0.6592386
vn -0.09003949 0.1841332 0.9787685
vn -0.09003949 0.1841332 0.9787685
vn -0.09003949 0.1841332 0.9787685
vn -0.7173306 -0.6940744 -0.06080793
vn -0.7173306 -0.6940744 -0.06080793
vn -0.7173306 -0.6940744 -0.06080793
vn -0.7173306 -0.6940744 -0.06080793
vn -0.8819945 -0.4588402 -0.1074774
vn -0.8819945 -0.4588402 -0.1074774
vn -0.8819945 -0.4588402 -0.1074774
vn -0.8819945 -0.4588402 -0.1074774
vn 0.843056 0.5056198 -0.1833174
vn 0.843056 0.5056198 -0.1833174
vn 0.843056 0.5056198 -0.1833174
vn 0.843056 0.5056198 -0.1833174
vn -0.3880028 0.04299271 0.9206549
vn -0.3880028 0.04299271 0.9206549
vn -0.3880028 0.04299271 0.9206549
vn -0.3880028 0.04299271 0.9206549
vn 0.4353168 -0.7175978 0.5436476
vn 0.4353168 -0.7175978 0.5436476
vn 0.4353168 -0.7175978 0.5436476
vn 0.4353168 -0.7175978 0.5436476
vn -0.9368824 -0.3412231 0.07627695
vn -0.9368824 -0.3412231 0.07627695
vn -0.9368824 -0.3412231 0.07627695
vn -0.9368824 -0.3412231 0.07627695
vn 0.2706529 -0.5137282 0.814144
vn 0.2706529 -0.5137282 0.814144
vn 0.2706529 -0.5137282 0.814144
vn 0.2706529 -0.5137282 0.814144
vn 0.5372516 -0.788168 0.300253
vn 0.5372516 -0.788168 0.300253
vn 0.5372516 -0.788168 0.300253
vn 0.5372516 -0.788168 0.300253
vn 0.7489623 0.6467603 -0.1440714
vn 0.7489623 0.6467603 -0.1440714
vn 0.7489623 0.6467603 -0.1440714
vn 0.7489623 0.6467603 -0.1440714
vn -0.5213021 0.6546015 -0.5474861
vn -0.5213021 0.6546015 -0.5474861
vn -0.5213021 0.6546015 -0.5474861
vn -0.5213021 0.6546015 -0.5474861
vn 0.7646446 0.6389191 -0.08426725
vn 0.7646446 0.6389191 -0.08426725
vn 0.7646446 0.6389191 -0.08426725
vn 0.7646446 0.6389191 -0.08426725
vn -0.340956 -0.9371496 -0.07415889
vn -0.340956 -0.9371496 -0.07415889
vn -0.340956 -0.9371496 -0.07415889
vn -0.340956 -0.9371496 -0.07415889
vn 0.615663 -0.7411212 -0.2677656
vn 0.615663 -0.7411212 -0.2677656
vn 0.615663 -0.7411212 -0.2677656
vn 0.615663 -0.7411212 -0.2677656
vn -0.8976767 -0.4196345 0.1344746
vn -0.8976767 -0.4196345 0.1344746
vn -0.8976767 -0.4196345 0.1344746
vn -0.8976767 -0.4196345 0.1344746
vn -0.631078 0.7330128 -0.2538362
vn -0.631078 0.7330128 -0.2538362
vn -0.631078 0.7330128 -0.2538362
vn -0.631078 0.7330128 -0.2538362
vn -0.1292452 0.9917704 0
vn -0.1292452 0.9917704 0
vn -0.1292452 0.9917704 0
vn -0.1292452 0.9917704 0
vn -0.7957419 -0.5842984 0.159343
vn -0.7957419 -0.5842984 0.159343
vn -0.7957419 -0.5842984 0.159343
vn -0.7957419 -0.5842984 0.159343
vn -0.3095914 0.9447235 0.1079383
vn -0.3095914 0.9447235 0.1079383
vn -0.3095914 0.9447235 0.1079383
vn -0.3095914 0.9447235 0.1079383
vn 0.6627098 0.6232369 -0.4152005
vn 0.6627098 0.6232369 -0.4152005
vn 0.6627098 0.6232369 -0.4152005
vn 0.01189536 0.1684508 0.9856383
vn 0.01189536 0.1684508 0.9856383
vn 0.01189536 0.1684508 0.9856383
vn 0.8038503 -0.5842984 -0.1114454
vn 0.8038503 -0.5842984 -0.1114454
vn 0.8038503 -0.5842984 -0.1114454
vn 0.8038503 -0.5842984 -0.1114454
vn -0.7251717 0.5761901 -0.3770027
vn -0.7251717 0.5761901 -0.3770027
vn -0.7251717 0.5761901 -0.3770027
vn -0.7251717 0.5761901 -0.3770027
vn 0.1608769 -0.7175978 0.6776223
vn 0.1608769 -0.7175978 0.6776223
vn 0.1608769 -0.7175978 0.6776223
vn -0.6938071 -0.5686162 0.4419359
vn -0.6938071 -0.5686162 0.4419359
vn -0.6938071 -0.5686162 0.4419359
vn -0.6938071 -0.5686162 0.4419359
vn -0.3017502 0.5448256 -0.7823758
vn -0.3017502 0.5448256 -0.7823758
vn -0.3017502 0.5448256 -0.7823758
vn -0.3017502 0.5448256 -0.7823758
vn 0.4588402 0.685966 0.5647267
vn 0.4588402 0.685966 0.5647267
vn 0.4588402 0.685966 0.5647267
vn 0.4588402 0.685966 0.5647267
vn 0.3961111 -0.8038503 -0.4437575
vn 0.3961111 -0.8038503 -0.4437575
vn 0.3961111 -0.8038503 -0.4437575
vn 0.3961111 -0.8038503 -0.4437575
vn 0.4196345 0.4507319 0.7878754
vn 0.4196345 0.4507319 0.7878754
vn 0.4196345 0.4507319 0.7878754
vn 0.2079238 -0.615663 -0.7600834
vn 0.2079238 -0.615663 -0.7600834
vn 0.2079238 -0.615663 -0.7600834
vn 0.2079238 -0.615663 -0.7600834
vn -0.458573 -0.6783921 -0.5740166
vn -0.458573 -0.6783921 -0.5740166
vn -0.458573 -0.6783921 -0.5740166
vn -0.458573 -0.6783921 -0.5740166
vn 0.897944 -0.2157649 -0.3835911
vn 0.897944 -0.2157649 -0.3835911
vn 0.897944 -0.2157649 -0.3835911
vn 0.897944 -0.2157649 -0.3835911
vn -0.3174325 -0.4588402 -0.8298809
vn -0.3174325 -0.4588402 -0.8298809
vn -0.3174325 -0.4588402 -0.8298809
vn -0.3174325 -0.4588402 -0.8298809
vn -0.6389191 0.7408539 0.2071662
vn -0.6389191 0.7408539 0.2071662
vn -0.6389191 0.7408539 0.2071662
vn -0.6389191 0.7408539 0.2071662
vn -0.5213021 0.7957419 0.3082839
vn -0.5213021 0.7957419 0.3082839
vn -0.5213021 0.7957419 0.3082839
vn -0.5213021 0.7957419 0.3082839
vn 0.9528319 -0.2392883 0.1866881
vn 0.9528319 -0.2392883 0.1866881
vn 0.9528319 -0.2392883 0.1866881
vn 0.9528319 -0.2392883 0.1866881
vn -0.1057218 -0.3412231 0.934018
vn -0.1057218 -0.3412231 0.934018
vn -0.1057218 -0.3412231 0.934018
vn 0.9998788 -0.03541875 0
vn 0.9998788 -0.03541875 0
vn 0.9998788 -0.03541875 0
vn 0.9998788 -0.03541875 0
vn -0.5056198 -0.8195326 -0.2696572
vn -0.5056198 -0.8195326 -0.2696572
vn -0.5056198 -0.8195326 -0.2696572
vn -0.5056198 -0.8195326 -0.2696572
vn -0.8427887 0.513461 -0.1614466
vn -0.8427887 0.513461 -0.1614466
vn -0.8427887 0.513461 -0.1614466
vn -0.8427887 0.513461 -0.1614466
vn 0.09814787 -0.9606731 0.2597579
vn 0.09814787 -0.9606731 0.2597579
vn 0.09814787 -0.9606731 0.2597579
vn 0.09814787 -0.9606731 0.2597579
vn 0.7568035 0.6075546 0.2410931
vn 0.7568035 0.6075546 0.2410931
vn 0.7568035 0.6075546 0.2410931
vn 0.7568035 0.6075546 0.2410931
vn 0.02757764 -0.9841965 0.1749192
vn 0.02757764 -0.9841965 0.1749192
vn 0.02757764 -0.9841965 0.1749192
vn 0.02757764 -0.9841965 0.1749192
vn -0.1762921 0.2390212 0.954877
vn -0.1762921 0.2390212 0.954877
vn -0.1762921 0.2390212 0.954877
vn 0.8038503 0.5683489 -0.1755115
vn 0.8038503 0.5683489 -0.1755115
vn 0.8038503 0.5683489 -0.1755115
vn 0.8038503 0.5683489 -0.1755115
vn 0.4588402 -0.4117934 -0.7873321
vn 0.4588402 -0.4117934 -0.7873321
vn 0.4588402 -0.4117934 -0.7873321
vn 0.2941763 -0.6783921 -0.6732344
vn 0.2941763 -0.6783921 -0.6732344
vn 0.2941763 -0.6783921 -0.6732344
vn 0.2941763 -0.6783921 -0.6732344
vn 0.1530358 -0.07462442 0.985399
vn 0.1530358 -0.07462442 0.985399
vn 0.1530358 -0.07462442 0.985399
vn 0.1138301 0.8663121 0.4863599
vn 0.1138301 0.8663121 0.4863599
vn 0.1138301 0.8663121 0.4863599
vn 0.1138301 0.8663121 0.4863599
vn -0.003787041 0.5605078 0.8281405
vn -0.003787041 0.5605078 0.8281405
vn -0.003787041 0.5605078 0.8281405
vn -0.003787041 0.5605078 0.8281405
vn 0.4274756 -0.5215694 0.7383968
vn 0.4274756 -0.5215694 0.7383968
vn 0.4274756 -0.5215694 0.7383968
vn 0.4274756 -0.5215694 0.7383968
vn 0.4588402 -0.4431579 -0.7701147
vn 0.4588402 -0.4431579 -0.7701147
vn 0.4588402 -0.4431579 -0.7701147
vn 0.4588402 -0.4431579 -0.7701147
vn -0.8192654 -0.4274756 -0.3821895
vn -0.8192654 -0.4274756 -0.3821895
vn -0.8192654 -0.4274756 -0.3821895
vn -0.8192654 -0.4274756 -0.3821895
vn 0.2079238 -0.5921396 0.7785489
vn 0.2079238 -0.5921396 0.7785489
vn 0.2079238 -0.5921396 0.7785489
vn 0.8116915 -0.5215694 -0.2629113
vn 0.8116915 -0.5215694 -0.2629113
vn 0.8116915 -0.5215694 -0.2629113
vn 0.8116915 -0.5215694 -0.2629113
vn -0.8506299 -0.4666814 -0.2421513
vn -0.8506299 -0.4666814 -0.2421513
vn -0.8506299 -0.4666814 -0.2421513
vn -0.8506299 -0.4666814 -0.2421513
g Acacia_Tree_NoLeaves_l_01_0
f 3/3/3 2/2/2 1/1/1
f 4/4/4 1/1/1 2/2/2
f 4/4/4 6/6/6 5/5/5
f 7/7/7 5/5/5 6/6/6
f 10/10/10 9/9/9 8/8/8
f 11/11/11 8/8/8 9/9/9
f 14/14/14 13/13/13 12/12/12
f 15/15/15 12/12/12 13/13/13
f 18/18/18 17/17/17 16/16/16
f 19/19/19 16/16/16 17/17/17
f 18/18/18 21/21/21 20/20/20
f 24/24/24 23/23/23 22/22/22
f 25/25/25 22/22/22 23/23/23
f 28/28/28 27/27/27 26/26/26
f 29/29/29 26/26/26 27/27/27
f 32/32/32 31/31/31 30/30/30
f 33/33/33 30/30/30 31/31/31
f 36/36/36 35/35/35 34/34/34
f 37/37/37 34/34/34 35/35/35
f 40/40/40 39/39/39 38/38/38
f 41/41/41 38/38/38 39/39/39
f 44/44/44 43/43/43 42/42/42
f 45/45/45 42/42/42 43/43/43
f 48/48/48 47/47/47 46/46/46
f 49/49/49 46/46/46 47/47/47
f 52/52/52 51/51/51 50/50/50
f 53/53/53 50/50/50 51/51/51
f 56/56/56 55/55/55 54/54/54
f 57/57/57 54/54/54 55/55/55
f 60/60/60 59/59/59 58/58/58
f 61/61/61 58/58/58 59/59/59
f 64/64/64 63/63/63 62/62/62
f 65/65/65 62/62/62 63/63/63
f 68/68/68 67/67/67 66/66/66
f 69/69/69 66/66/66 67/67/67
f 72/72/72 71/71/71 70/70/70
f 73/73/73 70/70/70 71/71/71
f 76/76/76 75/75/75 74/74/74
f 77/77/77 74/74/74 75/75/75
f 80/80/80 79/79/79 78/78/78
f 81/81/81 78/78/78 79/79/79
f 84/84/84 83/83/83 82/82/82
f 85/85/85 82/82/82 83/83/83
f 88/88/88 87/87/87 86/86/86
f 89/89/89 86/86/86 87/87/87
f 92/92/92 91/91/91 90/90/90
f 93/93/93 90/90/90 91/91/91
f 96/96/96 95/95/95 94/94/94
f 97/97/97 94/94/94 95/95/95
f 100/100/100 99/99/99 98/98/98
f 101/101/101 98/98/98 99/99/99
f 104/104/104 103/103/103 102/102/102
f 105/105/105 102/102/102 103/103/103
f 108/108/108 107/107/107 106/106/106
f 109/109/109 106/106/106 107/107/107
f 112/112/112 111/111/111 110/110/110
f 113/113/113 110/110/110 111/111/111
f 116/116/116 115/115/115 114/114/114
f 117/117/117 114/114/114 115/115/115
f 120/120/120 119/119/119 118/118/118
f 121/121/121 118/118/118 119/119/119
f 124/124/124 123/123/123 122/122/122
f 125/125/125 122/122/122 123/123/123
f 128/128/128 127/127/127 126/126/126
f 129/129/129 126/126/126 127/127/127
f 132/132/132 131/131/131 130/130/130
f 133/133/133 130/130/130 131/131/131
f 136/136/136 135/135/135 134/134/134
f 137/137/137 134/134/134 135/135/135
f 140/140/140 139/139/139 138/138/138
f 141/141/141 138/138/138 139/139/139
f 144/144/144 143/143/143 142/142/142
f 145/145/145 142/142/142 143/143/143
f 148/148/148 147/147/147 146/146/146
f 149/149/149 146/146/146 147/147/147
f 152/152/152 151/151/151 150/150/150
f 153/153/153 150/150/150 151/151/151
f 156/156/156 155/155/155 154/154/154
f 159/159/159 158/158/158 157/157/157
f 162/162/162 161/161/161 160/160/160
f 163/163/163 160/160/160 161/161/161
f 166/166/166 165/165/165 164/164/164
f 167/167/167 164/164/164 165/165/165
f 170/170/170 169/169/169 168/168/168
f 171/171/171 168/168/168 169/169/169
f 174/174/174 173/173/173 172/172/172
f 175/175/175 172/172/172 173/173/173
f 178/178/178 177/177/177 176/176/176
f 179/179/179 176/176/176 177/177/177
f 182/182/182 181/181/181 180/180/180
f 183/183/183 180/180/180 181/181/181
f 186/186/186 185/185/185 184/184/184
f 187/187/187 184/184/184 185/185/185
f 190/190/190 189/189/189 188/188/188
f 191/191/191 188/188/188 189/189/189
f 194/194/194 193/193/193 192/192/192
f 197/197/197 196/196/196 195/195/195
f 198/198/198 195/195/195 196/196/196
f 201/201/201 200/200/200 199/199/199
f 202/202/202 199/199/199 200/200/200
f 205/205/205 204/204/204 203/203/203
f 206/206/206 203/203/203 204/204/204
f 209/209/209 208/208/208 207/207/207
f 210/210/210 207/207/207 208/208/208
f 213/213/213 212/212/212 211/211/211
f 214/214/214 211/211/211 212/212/212
f 217/217/217 216/216/216 215/215/215
f 218/218/218 215/215/215 216/216/216
f 221/221/221 220/220/220 219/219/219
f 222/222/222 219/219/219 220/220/220
f 225/225/225 224/224/224 223/223/223
f 226/226/226 223/223/223 224/224/224
f 229/229/229 228/228/228 227/227/227
f 230/230/230 227/227/227 228/228/228
f 233/233/233 232/232/232 231/231/231
f 234/234/234 231/231/231 232/232/232
f 237/237/237 236/236/236 235/235/235
f 238/238/238 235/235/235 236/236/236
f 241/241/241 240/240/240 239/239/239
f 242/242/242 239/239/239 240/240/240
f 245/245/245 244/244/244 243/243/243
f 246/246/246 243/243/243 244/244/244
f 249/249/249 248/248/248 247/247/247
f 250/250/250 247/247/247 248/248/248
f 253/253/253 252/252/252 251/251/251
f 254/254/254 251/251/251 252/252/252
f 257/257/257 256/256/256 255/255/255
f 258/258/258 255/255/255 256/256/256
f 261/261/261 260/260/260 259/259/259
f 262/262/262 259/259/259 260/260/260
f 265/265/265 264/264/264 263/263/263
f 266/266/266 263/263/263 264/264/264
f 269/269/269 268/268/268 267/267/267
f 272/272/272 271/271/271 270/270/270
f 273/273/273 270/270/270 271/271/271
f 276/276/276 275/275/275 274/274/274
f 277/277/277 274/274/274 275/275/275
f 280/280/280 279/279/279 278/278/278
f 281/281/281 278/278/278 279/279/279
f 284/284/284 283/283/283 282/282/282
f 287/287/287 286/286/286 285/285/285
f 288/288/288 285/285/285 286/286/286
f 291/291/291 290/290/290 289/289/289
f 292/292/292 289/289/289 290/290/290
f 295/295/295 294/294/294 293/293/293
f 296/296/296 293/293/293 294/294/294
f 299/299/299 298/298/298 297/297/297
f 300/300/300 297/297/297 298/298/298
f 303/303/303 302/302/302 301/301/301
f 304/304/304 301/301/301 302/302/302
f 307/307/307 306/306/306 305/305/305
f 308/308/308 305/305/305 306/306/306
f 311/311/311 310/310/310 309/309/309
f 314/314/314 313/313/313 312/312/312
f 315/315/315 312/312/312 313/313/313
f 318/318/318 317/317/317 316/316/316
f 319/319/319 316/316/316 317/317/317
f 322/322/322 321/321/321 320/320/320
f 325/325/325 324/324/324 323/323/323
f 326/326/326 323/323/323 324/324/324
f 329/329/329 328/328/328 327/327/327
f 330/330/330 327/327/327 328/328/328
f 333/333/333 332/332/332 331/331/331
f 334/334/334 331/331/331 332/332/332
f 337/337/337 336/336/336 335/335/335
f 338/338/338 335/335/335 336/336/336
f 341/341/341 340/340/340 339/339/339
f 342/342/342 339/339/339 340/340/340
f 345/345/345 344/344/344 343/343/343
f 346/346/346 343/343/343 344/344/344
f 349/349/349 348/348/348 347/347/347
f 350/350/350 347/347/347 348/348/348
f 353/353/353 352/352/352 351/351/351
f 354/354/354 351/351/351 352/352/352
f 357/357/357 356/356/356 355/355/355
f 358/358/358 355/355/355 356/356/356
f 361/361/361 360/360/360 359/359/359
f 362/362/362 359/359/359 360/360/360
f 365/365/365 364/364/364 363/363/363
f 366/366/366 363/363/363 364/364/364
f 369/369/369 368/368/368 367/367/367
f 370/370/370 367/367/367 368/368/368
f 373/373/373 372/372/372 371/371/371
f 374/374/374 371/371/371 372/372/372
f 377/377/377 376/376/376 375/375/375
f 378/378/378 375/375/375 376/376/376
f 381/381/381 380/380/380 379/379/379
f 382/382/382 379/379/379 380/380/380
f 385/385/385 384/384/384 383/383/383
f 386/386/386 383/383/383 384/384/384
f 389/389/389 388/388/388 387/387/387
f 390/390/390 387/387/387 388/388/388
f 393/393/393 392/392/392 391/391/391
f 394/394/394 391/391/391 392/392/392
f 397/397/397 396/396/396 395/395/395
f 398/398/398 395/395/395 396/396/396
f 401/401/401 400/400/400 399/399/399
f 402/402/402 399/399/399 400/400/400
f 405/405/405 404/404/404 403/403/403
f 408/408/408 407/407/407 406/406/406
f 409/409/409 406/406/406 407/407/407
f 412/412/412 411/411/411 410/410/410
f 413/413/413 410/410/410 411/411/411
f 416/416/416 415/415/415 414/414/414
f 417/417/417 414/414/414 415/415/415
f 420/420/420 419/419/419 418/418/418
f 421/421/421 418/418/418 419/419/419
f 424/424/424 423/423/423 422/422/422
f 425/425/425 422/422/422 423/423/423
f 428/428/428 427/427/427 426/426/426
f 429/429/429 426/426/426 427/427/427
f 432/432/432 431/431/431 430/430/430
f 433/433/433 430/430/430 431/431/431
f 436/436/436 435/435/435 434/434/434
f 437/437/437 434/434/434 435/435/435
f 440/440/440 439/439/439 438/438/438
f 441/441/441 438/438/438 439/439/439
f 444/444/444 443/443/443 442/442/442
f 445/445/445 442/442/442 443/443/443
f 448/448/448 447/447/447 446/446/446
f 449/449/449 446/446/446 447/447/447
f 452/452/452 451/451/451 450/450/450
f 453/453/453 450/450/450 451/451/451
f 456/456/456 455/455/455 454/454/454
f 457/457/457 454/454/454 455/455/455
f 460/460/460 459/459/459 458/458/458
f 463/463/463 462/462/462 461/461/461
f 464/464/464 461/461/461 462/462/462
f 467/467/467 466/466/466 465/465/465
f 468/468/468 465/465/465 466/466/466
f 471/471/471 470/470/470 469/469/469
f 472/472/472 469/469/469 470/470/470
f 475/475/475 474/474/474 473/473/473
f 476/476/476 473/473/473 474/474/474
f 479/479/479 478/478/478 477/477/477
f 480/480/480 477/477/477 478/478/478
f 483/483/483 482/482/482 481/481/481
f 486/486/486 485/485/485 484/484/484
f 487/487/487 484/484/484 485/485/485
f 490/490/490 489/489/489 488/488/488
f 491/491/491 488/488/488 489/489/489
f 494/494/494 493/493/493 492/492/492
f 497/497/497 496/496/496 495/495/495
f 498/498/498 495/495/495 496/496/496
f 501/501/501 500/500/500 499/499/499
f 502/502/502 499/499/499 500/500/500
f 505/505/505 504/504/504 503/503/503
f 506/506/506 503/503/503 504/504/504
f 509/509/509 508/508/508 507/507/507
f 512/512/512 511/511/511 510/510/510
f 513/513/513 510/510/510 511/511/511
f 516/516/516 515/515/515 514/514/514
f 517/517/517 514/514/514 515/515/515
f 520/520/520 519/519/519 518/518/518
f 521/521/521 518/518/518 519/519/519
f 524/524/524 523/523/523 522/522/522
f 525/525/525 522/522/522 523/523/523
f 528/528/528 527/527/527 526/526/526
f 529/529/529 526/526/526 527/527/527
f 532/532/532 531/531/531 530/530/530
f 535/535/535 534/534/534 533/533/533
f 536/536/536 533/533/533 534/534/534
f 539/539/539 538/538/538 537/537/537
f 540/540/540 537/537/537 538/538/538
f 543/543/543 542/542/542 541/541/541
f 544/544/544 541/541/541 542/542/542
f 547/547/547 546/546/546 545/545/545
f 548/548/548 545/545/545 546/546/546
f 551/551/551 550/550/550 549/549/549
f 552/552/552 549/549/549 550/550/550
f 555/555/555 554/554/554 553/553/553
f 556/556/556 553/553/553 554/554/554
f 559/559/559 558/558/558 557/557/557
f 560/560/560 557/557/557 558/558/558
f 563/563/563 562/562/562 561/561/561
f 564/564/564 561/561/561 562/562/562
f 567/567/567 566/566/566 565/565/565
f 568/568/568 565/565/565 566/566/566
f 571/571/571 570/570/570 569/569/569
f 572/572/572 569/569/569 570/570/570
f 575/575/575 574/574/574 573/573/573
f 576/576/576 573/573/573 574/574/574
f 579/579/579 578/578/578 577/577/577
f 580/580/580 577/577/577 578/578/578
f 583/583/583 582/582/582 581/581/581
f 584/584/584 581/581/581 582/582/582
f 587/587/587 586/586/586 585/585/585
f 588/588/588 585/585/585 586/586/586
f 591/591/591 590/590/590 589/589/589
f 594/594/594 593/593/593 592/592/592
f 595/595/595 592/592/592 593/593/593
f 598/598/598 597/597/597 596/596/596
f 599/599/599 596/596/596 597/597/597
f 602/602/602 601/601/601 600/600/600
f 603/603/603 600/600/600 601/601/601
f 606/606/606 605/605/605 604/604/604
f 609/609/609 608/608/608 607/607/607
f 610/610/610 607/607/607 608/608/608
f 613/613/613 612/612/612 611/611/611
f 614/614/614 611/611/611 612/612/612
f 617/617/617 616/616/616 615/615/615
f 618/618/618 615/615/615 616/616/616
f 621/621/621 620/620/620 619/619/619
f 622/622/622 619/619/619 620/620/620
f 625/625/625 624/624/624 623/623/623
f 626/626/626 623/623/623 624/624/624
f 629/629/629 628/628/628 627/627/627
f 632/632/632 631/631/631 630/630/630
f 633/633/633 630/630/630 631/631/631
f 636/636/636 635/635/635 634/634/634
f 637/637/637 634/634/634 635/635/635
f 640/640/640 639/639/639 638/638/638
f 641/641/641 638/638/638 639/639/639
f 644/644/644 643/643/643 642/642/642
f 645/645/645 642/642/642 643/643/643
f 648/648/648 647/647/647 646/646/646
f 651/651/651 650/650/650 649/649/649
f 652/652/652 649/649/649 650/650/650
f 655/655/655 654/654/654 653/653/653
f 656/656/656 653/653/653 654/654/654
f 659/659/659 658/658/658 657/657/657
f 660/660/660 657/657/657 658/658/658
f 663/663/663 662/662/662 661/661/661
f 666/666/666 665/665/665 664/664/664
f 667/667/667 664/664/664 665/665/665
f 670/670/670 669/669/669 668/668/668
f 671/671/671 668/668/668 669/669/669
f 674/674/674 673/673/673 672/672/672
f 675/675/675 672/672/672 673/673/673
f 678/678/678 677/677/677 676/676/676
f 679/679/679 676/676/676 677/677/677
f 682/682/682 681/681/681 680/680/680
f 683/683/683 680/680/680 681/681/681
f 686/686/686 685/685/685 684/684/684
f 687/687/687 684/684/684 685/685/685
f 690/690/690 689/689/689 688/688/688
f 691/691/691 688/688/688 689/689/689
f 694/694/694 693/693/693 692/692/692
f 697/697/697 696/696/696 695/695/695
f 698/698/698 695/695/695 696/696/696
f 701/701/701 700/700/700 699/699/699
f 702/702/702 699/699/699 700/700/700
f 705/705/705 704/704/704 703/703/703
f 706/706/706 703/703/703 704/704/704
f 709/709/709 708/708/708 707/707/707
f 710/710/710 707/707/707 708/708/708
f 713/713/713 712/712/712 711/711/711
f 714/714/714 711/711/711 712/712/712
f 717/717/717 716/716/716 715/715/715
f 718/718/718 715/715/715 716/716/716
f 721/721/721 720/720/720 719/719/719
f 722/722/722 719/719/719 720/720/720
f 725/725/725 724/724/724 723/723/723
f 726/726/726 723/723/723 724/724/724
f 729/729/729 728/728/728 727/727/727
f 730/730/730 727/727/727 728/728/728
f 733/733/733 732/732/732 731/731/731
f 734/734/734 731/731/731 732/732/732
f 737/737/737 736/736/736 735/735/735
f 738/738/738 735/735/735 736/736/736
f 741/741/741 740/740/740 739/739/739
f 742/742/742 739/739/739 740/740/740
f 745/745/745 744/744/744 743/743/743
f 746/746/746 743/743/743 744/744/744
f 749/749/749 748/748/748 747/747/747
f 750/750/750 747/747/747 748/748/748
f 753/753/753 752/752/752 751/751/751
f 754/754/754 751/751/751 752/752/752
f 757/757/757 756/756/756 755/755/755
f 758/758/758 755/755/755 756/756/756
f 761/761/761 760/760/760 759/759/759
f 762/762/762 759/759/759 760/760/760
f 765/765/765 764/764/764 763/763/763
f 766/766/766 763/763/763 764/764/764
f 769/769/769 768/768/768 767/767/767
f 772/772/772 771/771/771 770/770/770
f 775/775/775 774/774/774 773/773/773
f 776/776/776 773/773/773 774/774/774
f 779/779/779 778/778/778 777/777/777
f 780/780/780 777/777/777 778/778/778
f 783/783/783 782/782/782 781/781/781
f 786/786/786 785/785/785 784/784/784
f 787/787/787 784/784/784 785/785/785
f 790/790/790 789/789/789 788/788/788
f 791/791/791 788/788/788 789/789/789
f 794/794/794 793/793/793 792/792/792
f 795/795/795 792/792/792 793/793/793
f 798/798/798 797/797/797 796/796/796
f 799/799/799 796/796/796 797/797/797
f 802/802/802 801/801/801 800/800/800
f 805/805/805 804/804/804 803/803/803
f 806/806/806 803/803/803 804/804/804
f 809/809/809 808/808/808 807/807/807
f 810/810/810 807/807/807 808/808/808
f 813/813/813 812/812/812 811/811/811
f 814/814/814 811/811/811 812/812/812
f 817/817/817 816/816/816 815/815/815
f 818/818/818 815/815/815 816/816/816
f 821/821/821 820/820/820 819/819/819
f 822/822/822 819/819/819 820/820/820
f 825/825/825 824/824/824 823/823/823
f 826/826/826 823/823/823 824/824/824
f 829/829/829 828/828/828 827/827/827
f 830/830/830 827/827/827 828/828/828
f 833/833/833 832/832/832 831/831/831
f 836/836/836 835/835/835 834/834/834
f 837/837/837 834/834/834 835/835/835
f 840/840/840 839/839/839 838/838/838
f 841/841/841 838/838/838 839/839/839
f 844/844/844 843/843/843 842/842/842
f 845/845/845 842/842/842 843/843/843
f 848/848/848 847/847/847 846/846/846
f 849/849/849 846/846/846 847/847/847
f 852/852/852 851/851/851 850/850/850
f 853/853/853 850/850/850 851/851/851
f 856/856/856 855/855/855 854/854/854
f 857/857/857 854/854/854 855/855/855
f 860/860/860 859/859/859 858/858/858
f 863/863/863 862/862/862 861/861/861
f 864/864/864 861/861/861 862/862/862
f 867/867/867 866/866/866 865/865/865
f 870/870/870 869/869/869 868/868/868
f 871/871/871 868/868/868 869/869/869
f 874/874/874 873/873/873 872/872/872
f 877/877/877 876/876/876 875/875/875
f 878/878/878 875/875/875 876/876/876
f 881/881/881 880/880/880 879/879/879
f 882/882/882 879/879/879 880/880/880
f 885/885/885 884/884/884 883/883/883
f 886/886/886 883/883/883 884/884/884
f 889/889/889 888/888/888 887/887/887
f 890/890/890 887/887/887 888/888/888
f 893/893/893 892/892/892 891/891/891
f 894/894/894 891/891/891 892/892/892
f 897/897/897 896/896/896 895/895/895
f 900/900/900 899/899/899 898/898/898
f 901/901/901 898/898/898 899/899/899
f 904/904/904 903/903/903 902/902/902
f 905/905/905 902/902/902 903/903/903
