g Acacia_Tree_NoLeaves_l_01
v -0.000123024 0.5630474 0.000123024
v 0.4429541 0.3497019 0.000123024
v 0.4439182 0.23596 1.846976
v 0.1377153 0.3834391 1.846976
v 0.5197458 -0.09562492 1.846976
v 0.5525188 -0.1296835 0.000123024
v 0.2459955 -0.5139618 0.000123024
v 0.3076849 -0.3613434 1.846976
v -0.03257465 -0.3613434 1.846976
v -0.2459202 -0.5139618 0.000123024
v -0.5524445 -0.1296835 0.000123024
v -0.2446356 -0.09562492 1.846976
v -0.4428797 0.3497019 0.000123024
v -0.000123024 0.5630474 0.000123024
v 0.1377153 0.3834391 1.846976
v -0.168808 0.23596 1.846976
v 0.1377153 0.3834391 1.846976
v 0.01819038 0.3346004 2.155107
v 0.4429541 0.3497019 0.000123024
v 0.5525188 -0.1296835 0.000123024
v 0.5197458 -0.09562492 1.846976
v 0.4439182 0.23596 1.846976
v 0.3076849 -0.3613434 1.846976
v 0.2459955 -0.5139618 0.000123024
v -0.2459202 -0.5139618 0.000123024
v -0.03257465 -0.3613434 1.846976
v -0.2446356 -0.09562492 1.846976
v -0.5524445 -0.1296835 0.000123024
v -0.4428797 0.3497019 0.000123024
v -0.168808 0.23596 1.846976
v -0.2446356 -0.09562492 1.846976
v -0.168808 0.23596 1.846976
v -0.4910755 0.2786932 2.584368
v -0.5665817 -0.05289173 2.584368
v -0.2446356 -0.09562492 1.846976
v -0.5665817 -0.05289173 2.584368
v -0.3545218 -0.3189316 2.584368
v -0.03257465 -0.3613434 1.846976
v 0.1614923 -0.2790899 2.147395
v -0.03257465 -0.3613434 1.846976
v -0.3545218 -0.3189316 2.584368
v -0.05088902 -0.1592436 2.584368
v -0.3545218 -0.3189316 2.584368
v -0.5665817 -0.05289173 2.584368
v -0.6481924 -0.08084488 3.413331
v -0.4027166 -0.2742691 3.518719
v -0.4910755 0.2786932 2.584368
v -0.1482449 0.2664843 2.584368
v -0.2147541 0.1238251 3.5094
v -0.5428047 0.170414 3.517112
v -0.3545218 -0.3189316 2.584368
v -0.4027166 -0.2742691 3.518719
v -0.1864796 -0.1290407 3.419757
v -0.05088902 -0.1592436 2.584368
v -0.4910755 0.2786932 2.584368
v -0.5428047 0.170414 3.517112
v -0.6481924 -0.08084488 3.413331
v -0.5665817 -0.05289173 2.584368
v -0.1864796 -0.1290407 3.419757
v -0.2147541 0.1238251 3.5094
v -0.1482449 0.2664843 2.584368
v -0.05088902 -0.1592436 2.584368
v -0.05088902 -0.1592436 2.584368
v -0.1482449 0.2664843 2.584368
v 0.01819038 0.3346004 2.155107
v 0.1614923 -0.2790899 2.147395
v -0.6469069 -0.08277321 3.77769
v -0.8258743 -0.1608496 4.009349
v -0.9431496 -0.04935741 3.945411
v -0.5428047 0.170414 3.517112
v -0.2147541 0.1238251 3.5094
v -0.2741957 0.1678438 5.089892
v -0.513567 0.1996527 4.970047
v -0.5428047 0.170414 3.517112
v -0.1864796 -0.1290407 3.419757
v 0.2681646 -0.2855158 3.862193
v 0.2035828 -0.1598864 3.948624
v -0.2147541 0.1238251 3.5094
v -0.2102556 -0.1226149 3.767086
v -0.4027166 -0.2742691 3.518719
v -0.4097853 -0.1149035 5.143229
v -0.2619858 -0.01272869 5.106602
v -0.6469069 -0.08277321 3.77769
v -0.5428047 0.170414 3.517112
v -0.513567 0.1996527 4.970047
v -0.5945349 0.02036572 5.121702
v -1.009017 -0.1801281 3.909102
v -1.57676 -0.1781998 5.077362
v -1.452094 -0.2607746 5.096642
v -0.8878851 -0.2707348 3.975613
v -0.6469069 -0.08277321 3.77769
v -0.5945349 0.02036572 5.121702
v -0.4097853 -0.1149035 5.143229
v -0.4027166 -0.2742691 3.518719
v -0.6481924 -0.08084488 3.413331
v -1.009017 -0.1801281 3.909102
v -0.8878851 -0.2707348 3.975613
v -0.4027166 -0.2742691 3.518719
v -0.8878851 -0.2707348 3.975613
v -1.452094 -0.2607746 5.096642
v -1.388797 -0.1608496 5.10628
v -0.8258743 -0.1608496 4.009349
v -0.6481924 -0.08084488 3.413331
v -0.5428047 0.170414 3.517112
v -0.9431496 -0.04935741 3.945411
v -1.009017 -0.1801281 3.909102
v -0.6469069 -0.08277321 3.77769
v -0.4027166 -0.2742691 3.518719
v -0.8878851 -0.2707348 3.975613
v -0.8258743 -0.1608496 4.009349
v -1.57676 -0.1781998 5.077362
v -1.509286 -0.05931759 5.087965
v -2.666622 -0.03618431 6.269078
v -2.709355 -0.1338596 6.232448
v -1.509286 -0.05931759 5.087965
v -1.388797 -0.1608496 5.10628
v -2.590794 -0.1197233 6.334302
v -2.666622 -0.03618431 6.269078
v -0.9431496 -0.04935741 3.945411
v -0.8258743 -0.1608496 4.009349
v -1.388797 -0.1608496 5.10628
v -1.509286 -0.05931759 5.087965
v -1.009017 -0.1801281 3.909102
v -0.9431496 -0.04935741 3.945411
v -1.509286 -0.05931759 5.087965
v -1.57676 -0.1781998 5.077362
v -2.666622 -0.03618431 6.269078
v -4.215627 -0.2325001 7.063338
v -2.709355 -0.1338596 6.232448
v -1.388797 -0.1608496 5.10628
v -1.452094 -0.2607746 5.096642
v -2.611035 -0.2026196 6.280002
v -2.590794 -0.1197233 6.334302
v -1.57676 -0.1781998 5.077362
v -2.709355 -0.1338596 6.232448
v -2.611035 -0.2026196 6.280002
v -1.452094 -0.2607746 5.096642
v -4.215627 -0.2325001 7.063338
v -5.006996 -0.1483183 8.023074
v -4.961051 -0.228323 8.02982
v -4.164538 -0.3301764 7.096112
v -4.121485 -0.2398901 7.135312
v -4.164538 -0.3301764 7.096112
v -4.961051 -0.228323 8.02982
v -4.915425 -0.1541023 8.043315
v -2.744699 -0.21033 6.359365
v -2.709355 -0.1338596 6.232448
v -4.215627 -0.2325001 7.063338
v -4.164538 -0.3301764 7.096112
v -2.666622 -0.03618431 6.269078
v -2.590794 -0.1197233 6.334302
v -4.121485 -0.2398901 7.135312
v -4.215627 -0.2325001 7.063338
v -5.006996 -0.1483183 8.023074
v -4.915425 -0.1541023 8.043315
v -5.338262 -0.1711311 9.128037
v -4.215627 -0.2325001 7.063338
v -4.121485 -0.2398901 7.135312
v -4.915425 -0.1541023 8.043315
v -5.006996 -0.1483183 8.023074
v -4.915425 -0.1541023 8.043315
v -4.961051 -0.228323 8.02982
v -5.338262 -0.1711311 9.128037
v -5.006996 -0.1483183 8.023074
v -5.338262 -0.1711311 9.128037
v -4.961051 -0.228323 8.02982
v -0.5190287 0.2170029 5.302596
v -0.2741957 0.1678438 5.089892
v -0.4043236 0.2883329 6.640183
v -0.5704374 0.3127518 6.642753
v -0.4097853 -0.1149035 5.143229
v -0.4997501 0.08816051 6.662995
v -0.3959694 0.1610966 6.642753
v -0.2619858 -0.01272869 5.106602
v -0.5190287 0.2170029 5.302596
v -0.5945349 0.02036572 5.121702
v -0.7420139 0.4753313 5.398344
v -0.5778275 0.4766169 5.465497
v -0.2741957 0.1678438 5.089892
v -0.2619858 -0.01272869 5.106602
v -0.3959694 0.1610966 6.642753
v -0.4043236 0.2883329 6.640183
v -0.5945349 0.02036572 5.121702
v -0.6292353 0.1842308 6.654643
v -0.4997501 0.08816051 6.662995
v -0.4097853 -0.1149035 5.143229
v 0.2681646 -0.2855158 3.862193
v 0.75494 -0.6688309 4.97808
v 0.7170258 -0.5261717 5.015673
v 0.2035828 -0.1598864 3.948624
v -0.2102556 -0.1226149 3.767086
v -0.2619858 -0.01272869 5.106602
v -0.2741957 0.1678438 5.089892
v -0.2147541 0.1238251 3.5094
v -0.2102556 -0.1226149 3.767086
v 0.07570457 -0.3051147 3.99971
v 0.1467123 -0.4513083 3.890467
v -0.4027166 -0.2742691 3.518719
v 0.07570457 -0.3051147 3.99971
v 0.2035828 -0.1598864 3.948624
v 0.7170258 -0.5261717 5.015673
v 0.5531607 -0.6074619 5.037842
v -0.2102556 -0.1226149 3.767086
v -0.2147541 0.1238251 3.5094
v 0.2035828 -0.1598864 3.948624
v 0.07570457 -0.3051147 3.99971
v -0.1864796 -0.1290407 3.419757
v -0.4027166 -0.2742691 3.518719
v 0.1467123 -0.4513083 3.890467
v 0.2681646 -0.2855158 3.862193
v 0.75494 -0.6688309 4.97808
v 0.596858 -0.7761459 4.988361
v 1.119941 -1.217938 5.967052
v 1.253603 -1.150786 5.9542
v 0.596858 -0.7761459 4.988361
v 0.5531607 -0.6074619 5.037842
v 1.101305 -1.078172 6.006894
v 1.119941 -1.217938 5.967052
v 0.07570457 -0.3051147 3.99971
v 0.5531607 -0.6074619 5.037842
v 0.596858 -0.7761459 4.988361
v 0.1467123 -0.4513083 3.890467
v 0.1467123 -0.4513083 3.890467
v 0.596858 -0.7761459 4.988361
v 0.75494 -0.6688309 4.97808
v 0.2681646 -0.2855158 3.862193
v 1.253603 -1.150786 5.9542
v 2.123693 -2.323544 6.841962
v 2.028587 -2.271493 6.898189
v 1.244607 -1.041543 6.00336
v 1.244607 -1.041543 6.00336
v 2.028587 -2.271493 6.898189
v 1.177133 -1.178739 6.107141
v 0.7170258 -0.5261717 5.015673
v 1.244607 -1.041543 6.00336
v 1.101305 -1.078172 6.006894
v 0.5531607 -0.6074619 5.037842
v 0.75494 -0.6688309 4.97808
v 1.253603 -1.150786 5.9542
v 1.244607 -1.041543 6.00336
v 0.7170258 -0.5261717 5.015673
v 2.726459 -3.285206 8.174087
v 2.028587 -2.271493 6.898189
v 2.123693 -2.323544 6.841962
v 2.792969 -3.313159 8.140349
v 1.119941 -1.217938 5.967052
v 0.375802 -0.8516521 7.000686
v 1.177133 -1.178739 6.107141
v 1.253603 -1.150786 5.9542
v 1.119941 -1.217938 5.967052
v 2.023125 -2.373989 6.851602
v 2.123693 -2.323544 6.841962
v 2.726459 -3.285206 8.174087
v 2.728708 -3.348824 8.145812
v 2.023125 -2.373989 6.851602
v 2.028587 -2.271493 6.898189
v 2.726459 -3.285206 8.174087
v 2.846948 -3.611329 9.176875
v 2.728708 -3.348824 8.145812
v 0.1614923 -0.2790899 2.147395
v 0.5210304 -0.1017294 2.598184
v 0.678791 -0.2045469 2.522999
v 0.3076849 -0.3613434 1.846976
v 0.01819038 0.3346004 2.155107
v -0.1482449 0.2664843 2.584368
v -0.4910755 0.2786932 2.584368
v -0.168808 0.23596 1.846976
v 0.5197458 -0.09562492 1.846976
v 0.8445835 -0.06156635 2.427571
v 0.7963877 0.1810179 2.455203
v 0.4439182 0.23596 1.846976
v 0.1614923 -0.2790899 2.147395
v 0.3076849 -0.3613434 1.846976
v -0.03257465 -0.3613434 1.846976
v 0.4439182 0.23596 1.846976
v 0.7963877 0.1810179 2.455203
v 0.5335617 0.1800537 2.599148
v 0.1377153 0.3834391 1.846976
v 0.5197458 -0.09562492 1.846976
v 0.3076849 -0.3613434 1.846976
v 0.678791 -0.2045469 2.522999
v 0.8445835 -0.06156635 2.427571
v 0.1377153 0.3834391 1.846976
v 0.5335617 0.1800537 2.599148
v 0.01819038 0.3346004 2.155107
v 0.1614923 -0.2790899 2.147395
v 0.01819038 0.3346004 2.155107
v 0.5335617 0.1800537 2.599148
v 0.5210304 -0.1017294 2.598184
v 0.678791 -0.2045469 2.522999
v 0.5210304 -0.1017294 2.598184
v 1.467591 -0.07923889 3.299269
v 1.562697 -0.1608496 3.197093
v 0.7963877 0.1810179 2.455203
v 1.630171 0.1466379 3.111948
v 1.385658 0.1492081 3.228581
v 0.5335617 0.1800537 2.599148
v 0.5210304 -0.1017294 2.598184
v 0.5335617 0.1800537 2.599148
v 1.385658 0.1492081 3.228581
v 1.467591 -0.07923889 3.299269
v 0.8445835 -0.06156635 2.427571
v 0.678791 -0.2045469 2.522999
v 1.562697 -0.1608496 3.197093
v 1.657803 -0.04710865 3.077248
v 0.8445835 -0.06156635 2.427571
v 1.657803 -0.04710865 3.077248
v 1.630171 0.1466379 3.111948
v 0.7963877 0.1810179 2.455203
v 1.385658 0.1492081 3.228581
v 1.630171 0.1466379 3.111948
v 1.271596 0.9948797 3.844521
v 1.134399 0.9029865 3.860586
v 1.657803 -0.04710865 3.077248
v 2.988642 -0.01144314 3.631496
v 2.961332 0.1823025 3.666197
v 1.630171 0.1466379 3.111948
v 1.562697 -0.1608496 3.197093
v 1.467591 -0.07923889 3.299269
v 2.798752 -0.04357433 3.853517
v 2.893857 -0.125185 3.751343
v 1.681901 0.1459951 3.374454
v 1.630171 0.1466379 3.111948
v 2.961332 0.1823025 3.666197
v 2.808391 0.1816607 3.850625
v 1.657803 -0.04710865 3.077248
v 1.562697 -0.1608496 3.197093
v 2.893857 -0.125185 3.751343
v 2.988642 -0.01144314 3.631496
v 4.191603 -0.07249165 5.02981
v 2.798752 -0.04357433 3.853517
v 2.808391 0.1816607 3.850625
v 4.197386 0.07305908 5.02756
v 4.248474 -0.125185 4.960087
v 2.893857 -0.125185 3.751343
v 2.798752 -0.04357433 3.853517
v 4.191603 -0.07249165 5.02981
v 4.288637 0.07370186 4.902251
v 2.961332 0.1823025 3.666197
v 2.988642 -0.01144314 3.631496
v 4.305023 -0.05160618 4.878797
v 2.808391 0.1816607 3.850625
v 2.961332 0.1823025 3.666197
v 4.288637 0.07370186 4.902251
v 4.197386 0.07305908 5.02756
v 4.197386 0.07305908 5.02756
v 4.288637 0.07370186 4.902251
v 5.901902 0.1488867 5.853311
v 5.862703 0.1485662 6.003038
v 4.305023 -0.05160618 4.878797
v 4.248474 -0.125185 4.960087
v 5.814186 -0.05321312 5.879658
v 5.908649 0.02390003 5.825678
v 4.197386 0.07305908 5.02756
v 5.862703 0.1485662 6.003038
v 5.857883 0.003014565 6.007537
v 4.191603 -0.07249165 5.02981
v 4.288637 0.07370186 4.902251
v 4.305023 -0.05160618 4.878797
v 5.908649 0.02390003 5.825678
v 5.901902 0.1488867 5.853311
v 4.191603 -0.07249165 5.02981
v 5.857883 0.003014565 6.007537
v 5.814186 -0.05321312 5.879658
v 4.248474 -0.125185 4.960087
v 5.908649 0.02390003 5.825678
v 7.768997 0.02261448 6.370608
v 5.901902 0.1488867 5.853311
v 6.021105 -0.05160618 5.95163
v 5.857883 0.003014565 6.007537
v 7.747469 -0.06606483 6.453826
v 5.862703 0.1485662 6.003038
v 5.901902 0.1488867 5.853311
v 7.768997 0.02261448 6.370608
v 7.740722 0.06502724 6.483386
v 5.857883 0.003014565 6.007537
v 5.964556 -0.9030609 6.466037
v 5.85724 -0.9184837 6.366754
v 5.814186 -0.05321312 5.879658
v 5.857883 0.003014565 6.007537
v 5.862703 0.1485662 6.003038
v 7.740722 0.06502724 6.483386
v 7.747469 -0.06606483 6.453826
v 7.740722 0.06502724 6.483386
v 7.768997 0.02261448 6.370608
v 9.48283 0.02550697 7.366008
v 9.44588 0.06952477 7.396853
v 9.424995 -0.004695892 7.409705
v 7.747469 -0.06606483 6.453826
v 7.740722 0.06502724 6.483386
v 9.44588 0.06952477 7.396853
v 7.747469 -0.06606483 6.453826
v 9.424995 -0.004695892 7.409705
v 9.48283 0.02550697 7.366008
v 9.424995 -0.004695892 7.409705
v 9.44588 0.06952477 7.396853
v 9.920445 0.008798599 8.355302
v 9.48283 0.02550697 7.366008
v 9.424995 -0.004695892 7.409705
v 9.920445 0.008798599 8.355302
v 9.44588 0.06952477 7.396853
v 9.48283 0.02550697 7.366008
v 9.920445 0.008798599 8.355302
v -0.4043236 0.2883329 6.640183
v -0.3959694 0.1610966 6.642753
v -0.5633688 0.212184 8.434342
v -0.5215988 0.3198204 8.432734
v -0.4997501 0.08816051 6.662995
v -0.6292353 0.1842308 6.654643
v -0.6485138 0.2931519 8.435306
v -0.5633688 0.212184 8.434342
v -0.5704374 0.3127518 6.642753
v -0.4043236 0.2883329 6.640183
v -0.5215988 0.3198204 8.432734
v -0.6485138 0.2931519 8.435306
v -0.4997501 0.08816051 6.662995
v -0.5633688 0.212184 8.434342
v -0.3959694 0.1610966 6.642753
v -0.6292353 0.1842308 6.654643
v -0.5704374 0.3127518 6.642753
v -0.6485138 0.2931519 8.435306
v -0.5215988 0.3198204 8.432734
v -0.5633688 0.212184 8.434342
v -0.7298031 0.2468843 9.60967
v -0.7333384 0.2979717 9.613204
v -0.6485138 0.2931519 8.435306
v -0.8104506 0.2819071 9.601958
v -0.7298031 0.2468843 9.60967
v -0.5633688 0.212184 8.434342
v -0.6485138 0.2931519 8.435306
v -0.5215988 0.3198204 8.432734
v -0.7333384 0.2979717 9.613204
v -0.8104506 0.2819071 9.601958
v -0.7298031 0.2468843 9.60967
v -0.6751823 0.2648783 10.41711
v -0.7333384 0.2979717 9.613204
v -0.8104506 0.2819071 9.601958
v -0.7375154 0.2545958 10.4351
v -0.6751823 0.2648783 10.41711
v -0.7298031 0.2468843 9.60967
v -0.7661114 0.3066473 9.661721
v -0.7333384 0.2979717 9.613204
v -0.6751823 0.2648783 10.41711
v -0.7217712 0.2966862 10.42739
v -0.7333384 0.2979717 9.613204
v -0.9601784 0.7744646 9.785102
v -0.8104506 0.2819071 9.601958
v -0.7217712 0.2966862 10.42739
v -0.6751823 0.2648783 10.41711
v -0.595499 0.2661629 11.13618
v -0.7375154 0.2545958 10.4351
v -0.7217712 0.2966862 10.42739
v -0.595499 0.2661629 11.13618
v -0.7375154 0.2545958 10.4351
v -0.595499 0.2661629 11.13618
v -0.6751823 0.2648783 10.41711
v -0.7661114 0.3066473 9.661721
v -0.8104506 0.2819071 9.601958
v -1.011587 0.7423353 9.80181
v -0.9370451 0.7352667 9.834262
v -0.7661114 0.3066473 9.661721
v -0.7217712 0.2966862 10.42739
v -0.7375154 0.2545958 10.4351
v -0.8104506 0.2819071 9.601958
v -0.9370451 0.7352667 9.834262
v -1.011587 0.7423353 9.80181
v -1.169026 1.211437 10.55623
v -0.7661114 0.3066473 9.661721
v -0.9370451 0.7352667 9.834262
v -0.9601784 0.7744646 9.785102
v -0.7333384 0.2979717 9.613204
v -0.8104506 0.2819071 9.601958
v -0.9601784 0.7744646 9.785102
v -1.011587 0.7423353 9.80181
v -0.9370451 0.7352667 9.834262
v -1.169026 1.211437 10.55623
v -0.9601784 0.7744646 9.785102
v -1.011587 0.7423353 9.80181
v -0.9601784 0.7744646 9.785102
v -1.169026 1.211437 10.55623
v -0.5418406 0.588109 5.348543
v -0.8316574 1.481976 6.379928
v -0.9788151 1.454986 6.325307
v -0.6957455 0.5784693 5.305809
v -0.5190287 0.2170029 5.302596
v -0.5704374 0.3127518 6.642753
v -0.6292353 0.1842308 6.654643
v -0.5945349 0.02036572 5.121702
v -0.513567 0.1996527 4.970047
v -0.2741957 0.1678438 5.089892
v -0.5418406 0.588109 5.348543
v -0.6957455 0.5784693 5.305809
v -0.5418406 0.588109 5.348543
v -0.5778275 0.4766169 5.465497
v -0.8557549 1.327107 6.433585
v -0.8316574 1.481976 6.379928
v -0.513567 0.1996527 4.970047
v -0.6957455 0.5784693 5.305809
v -0.7420139 0.4753313 5.398344
v -0.5945349 0.02036572 5.121702
v -0.5190287 0.2170029 5.302596
v -0.5778275 0.4766169 5.465497
v -0.5418406 0.588109 5.348543
v -0.2741957 0.1678438 5.089892
v -0.8557549 1.327107 6.433585
v -1.028616 1.356667 6.407239
v -1.108942 1.965217 7.873988
v -0.9736729 1.941761 7.894231
v -0.7420139 0.4753313 5.398344
v -1.028616 1.356667 6.407239
v -0.8557549 1.327107 6.433585
v -0.5778275 0.4766169 5.465497
v -0.7420139 0.4753313 5.398344
v -0.6957455 0.5784693 5.305809
v -0.9788151 1.454986 6.325307
v -1.028616 1.356667 6.407239
v -0.9736729 1.941761 7.894231
v -0.8727837 1.984494 9.194867
v -0.9026661 2.073496 9.194224
v -1.011266 2.071246 7.847962
v -0.9081278 2.418254 10.3416
v -0.8316574 1.481976 6.379928
v -0.8557549 1.327107 6.433585
v -0.9736729 1.941761 7.894231
v -1.011266 2.071246 7.847962
v -0.8316574 1.481976 6.379928
v -1.011266 2.071246 7.847962
v -0.998414 1.543344 6.500737
v -0.8727837 1.984494 9.194867
v -0.9637127 2.002809 9.200973
v -0.9081278 2.418254 10.3416
v -0.9736729 1.941761 7.894231
v -1.108942 1.965217 7.873988
v -0.9637127 2.002809 9.200973
v -0.8727837 1.984494 9.194867
v -1.108942 1.965217 7.873988
v -1.011266 2.071246 7.847962
v -0.9026661 2.073496 9.194224
v -0.9637127 2.002809 9.200973
v -0.9026661 2.073496 9.194224
v -0.9081278 2.418254 10.3416
v -0.9637127 2.002809 9.200973
v -0.998414 1.543344 6.500737
v -1.011266 2.071246 7.847962
v -1.108942 1.965217 7.873988
v -1.028616 1.356667 6.407239
v 2.792969 -3.313159 8.140349
v 2.846948 -3.611329 9.176875
v 2.726459 -3.285206 8.174087
v 2.728708 -3.348824 8.145812
v 2.846948 -3.611329 9.176875
v 2.792969 -3.313159 8.140349
v 0.4085751 -0.7366257 7.016109
v 0.1075134 -0.7992792 8.684638
v 0.3041506 -0.7616873 6.956023
v 1.177133 -1.178739 6.107141
v 2.028587 -2.271493 6.898189
v 2.023125 -2.373989 6.851602
v 1.119941 -1.217938 5.967052
v 1.101305 -1.078172 6.006894
v 1.244607 -1.041543 6.00336
v 0.4085751 -0.7366257 7.016109
v 0.3041506 -0.7616873 6.956023
v 0.4085751 -0.7366257 7.016109
v 0.375802 -0.8516521 7.000686
v 0.1075134 -0.7992792 8.684638
v 1.101305 -1.078172 6.006894
v 0.3041506 -0.7616873 6.956023
v 0.375802 -0.8516521 7.000686
v 1.119941 -1.217938 5.967052
v 1.177133 -1.178739 6.107141
v 0.375802 -0.8516521 7.000686
v 0.4085751 -0.7366257 7.016109
v 1.244607 -1.041543 6.00336
v 0.1075134 -0.7992792 8.684638
v 0.375802 -0.8516521 7.000686
v 0.3041506 -0.7616873 6.956023
v 1.179703 0.8008118 3.951837
v 1.134399 0.9029865 3.860586
v 0.6591911 1.629454 5.200101
v 0.716383 1.514106 5.265647
v 1.681901 0.1459951 3.374454
v 1.352886 0.9078064 3.95762
v 1.271596 0.9948797 3.844521
v 1.630171 0.1466379 3.111948
v 1.681901 0.1459951 3.374454
v 2.808391 0.1816607 3.850625
v 2.798752 -0.04357433 3.853517
v 1.467591 -0.07923889 3.299269
v 1.352886 0.9078064 3.95762
v 1.179703 0.8008118 3.951837
v 0.716383 1.514106 5.265647
v 0.8873167 1.624634 5.27143
v 1.385658 0.1492081 3.228581
v 1.134399 0.9029865 3.860586
v 1.179703 0.8008118 3.951837
v 1.467591 -0.07923889 3.299269
v 1.681901 0.1459951 3.374454
v 1.467591 -0.07923889 3.299269
v 1.179703 0.8008118 3.951837
v 1.352886 0.9078064 3.95762
v 0.8873167 1.624634 5.27143
v 0.716383 1.514106 5.265647
v 0.6119604 2.155749 7.030566
v 0.7330914 2.198482 7.044061
v 0.8873167 1.624634 5.27143
v 0.7330914 2.198482 7.044061
v 0.6614408 2.270133 7.038278
v 0.7922115 1.727452 5.185642
v 1.134399 0.9029865 3.860586
v 1.271596 0.9948797 3.844521
v 0.7922115 1.727452 5.185642
v 0.6591911 1.629454 5.200101
v 1.352886 0.9078064 3.95762
v 0.8873167 1.624634 5.27143
v 0.7922115 1.727452 5.185642
v 1.271596 0.9948797 3.844521
v 0.7330914 2.198482 7.044061
v 0.6119604 2.155749 7.030566
v 1.322362 2.234468 8.27851
v 1.375698 2.310617 8.247664
v 0.716383 1.514106 5.265647
v 0.6591911 1.629454 5.200101
v 0.6119604 2.155749 7.030566
v 0.7922115 1.727452 5.185642
v 0.6614408 2.270133 7.038278
v 0.6119604 2.155749 7.030566
v 0.6591911 1.629454 5.200101
v 1.270311 2.300014 8.284614
v 1.375698 2.310617 8.247664
v 1.589686 2.415362 10.03925
v 1.322362 2.234468 8.27851
v 1.270311 2.300014 8.284614
v 1.589686 2.415362 10.03925
v 0.6228838 2.212299 7.155232
v 0.6614408 2.270133 7.038278
v 1.375698 2.310617 8.247664
v 1.270311 2.300014 8.284614
v 0.7330914 2.198482 7.044061
v 1.375698 2.310617 8.247664
v 0.6614408 2.270133 7.038278
v 1.322362 2.234468 8.27851
v 1.589686 2.415362 10.03925
v 1.375698 2.310617 8.247664
v 0.6228838 2.212299 7.155232
v 1.270311 2.300014 8.284614
v 1.322362 2.234468 8.27851
v 0.6119604 2.155749 7.030566
v 4.305023 -0.05160618 4.878797
v 2.988642 -0.01144314 3.631496
v 2.893857 -0.125185 3.751343
v 4.248474 -0.125185 4.960087
v 6.021105 -0.05160618 5.95163
v 5.964556 -0.9030609 6.466037
v 5.857883 0.003014565 6.007537
v 6.021105 -0.05160618 5.95163
v 7.747469 -0.06606483 6.453826
v 7.768997 0.02261448 6.370608
v 5.908649 0.02390003 5.825678
v 5.85724 -0.9184837 6.366754
v 5.484849 -1.634991 7.520555
v 5.55393 -1.679331 7.525695
v 5.963913 -0.9634657 6.325307
v 6.021105 -0.05160618 5.95163
v 5.908649 0.02390003 5.825678
v 5.963913 -0.9634657 6.325307
v 5.964556 -0.9030609 6.466037
v 5.814186 -0.05321312 5.879658
v 5.85724 -0.9184837 6.366754
v 5.963913 -0.9634657 6.325307
v 5.908649 0.02390003 5.825678
v 5.560998 -1.580048 7.550435
v 5.465893 -1.985211 8.679496
v 5.484849 -1.634991 7.520555
v 5.964556 -0.9030609 6.466037
v 5.560998 -1.580048 7.550435
v 5.484849 -1.634991 7.520555
v 5.85724 -0.9184837 6.366754
v 5.964556 -0.9030609 6.466037
v 5.963913 -0.9634657 6.325307
v 5.55393 -1.679331 7.525695
v 5.560998 -1.580048 7.550435
v 5.560998 -1.580048 7.550435
v 5.55393 -1.679331 7.525695
v 5.465893 -1.985211 8.679496
v 5.55393 -1.679331 7.525695
v 5.484849 -1.634991 7.520555
v 5.465893 -1.985211 8.679496
v 7.768997 0.02261448 6.370608
v 7.747469 -0.06606483 6.453826
v 9.48283 0.02550697 7.366008
v 2.123693 -2.323544 6.841962
v 2.023125 -2.373989 6.851602
v 2.728708 -3.348824 8.145812
v 2.792969 -3.313159 8.140349
v -2.744699 -0.21033 6.359365
v -4.164538 -0.3301764 7.096112
v -4.121485 -0.2398901 7.135312
v -2.590794 -0.1197233 6.334302
vt 0.5749667 0.8306302
vt 0.5820685 0.8391522
vt 0.5763871 0.8150063
vt 0.572126 0.8164266
vt 0.5806481 0.8142961
vt 0.5849092 0.8277894
vt 0.5941415 0.8348912
vt 0.5849092 0.8128757
vt 0.5579225 0.8171368
vt 0.5586327 0.8327607
vt 0.5650243 0.8441235
vt 0.5628937 0.8164266
vt 0.5699955 0.8320505
vt 0.5749667 0.8306302
vt 0.572126 0.8164266
vt 0.5671548 0.8164266
vt 0.572126 0.8164266
vt 0.5707057 0.8121656
vt 0.5820685 0.8391522
vt 0.5849092 0.8277894
vt 0.5806481 0.8142961
vt 0.5763871 0.8150063
vt 0.5536615 0.817847
vt 0.5529513 0.841993
vt 0.5586327 0.8327607
vt 0.5579225 0.8171368
vt 0.5628937 0.8164266
vt 0.5650243 0.8441235
vt 0.5699955 0.8320505
vt 0.5671548 0.8164266
vt 0.5628937 0.8164266
vt 0.5671548 0.8164266
vt 0.5664446 0.8064842
vt 0.5628937 0.8064842
vt 0.5628937 0.8164266
vt 0.5628937 0.8064842
vt 0.5593429 0.8071944
vt 0.5579225 0.8171368
vt 0.5543716 0.8135859
vt 0.5579225 0.8171368
vt 0.5593429 0.8071944
vt 0.5550818 0.8079045
vt 0.5593429 0.8071944
vt 0.5628937 0.8064842
vt 0.5621836 0.7972518
vt 0.5579225 0.7965417
vt 0.5664446 0.8064842
vt 0.5699955 0.8071944
vt 0.5692853 0.7958316
vt 0.5650243 0.7958316
vt 0.5593429 0.8071944
vt 0.5579225 0.7965417
vt 0.5550818 0.7979621
vt 0.5550818 0.8079045
vt 0.5664446 0.8064842
vt 0.5650243 0.7958316
vt 0.5621836 0.7972518
vt 0.5628937 0.8064842
vt 0.572126 0.7965417
vt 0.5692853 0.7958316
vt 0.5699955 0.8071944
vt 0.5749667 0.805774
vt 0.5749667 0.805774
vt 0.5699955 0.8071944
vt 0.5707057 0.8121656
vt 0.5778074 0.8107452
vt 0.5138916 0.7745262
vt 0.5131814 0.7787873
vt 0.515312 0.7787873
vt 0.5160221 0.7709754
vt 0.5955619 0.8455439
vt 0.5749667 0.8469642
vt 0.5770972 0.8498049
vt 0.5955619 0.8498049
vt 0.5529513 0.7837585
vt 0.5614734 0.7823381
vt 0.5607632 0.7802076
vt 0.5522411 0.7809178
vt 0.592011 0.8604575
vt 0.5955619 0.8576168
vt 0.5749667 0.8554863
vt 0.5749667 0.8576168
vt 0.5927211 0.8533558
vt 0.5955619 0.8498049
vt 0.5770972 0.8498049
vt 0.5749667 0.8526456
vt 0.5089204 0.7787873
vt 0.5096305 0.7958316
vt 0.5117611 0.7951213
vt 0.5110509 0.7787873
vt 0.5927211 0.8533558
vt 0.5749667 0.8526456
vt 0.5749667 0.8554863
vt 0.5955619 0.8576168
vt 0.5075 0.7716855
vt 0.5089204 0.7787873
vt 0.5110509 0.7787873
vt 0.5110509 0.7702652
vt 0.5110509 0.7787873
vt 0.5117611 0.7951213
vt 0.5131814 0.7944112
vt 0.5131814 0.7787873
vt 0.5188628 0.7716855
vt 0.5160221 0.7709754
vt 0.515312 0.7787873
vt 0.5174425 0.7787873
vt 0.5138916 0.7745262
vt 0.5110509 0.7702652
vt 0.5110509 0.7787873
vt 0.5131814 0.7787873
vt 0.5167323 0.7958316
vt 0.5146018 0.7951213
vt 0.5138916 0.8171368
vt 0.515312 0.8171368
vt 0.5146018 0.7951213
vt 0.5131814 0.7944112
vt 0.5124712 0.8164266
vt 0.5138916 0.8171368
vt 0.515312 0.7787873
vt 0.5131814 0.7787873
vt 0.5131814 0.7944112
vt 0.5146018 0.7951213
vt 0.5174425 0.7787873
vt 0.515312 0.7787873
vt 0.5146018 0.7951213
vt 0.5167323 0.7958316
vt 0.5138916 0.8171368
vt 0.519573 0.8391522
vt 0.515312 0.8171368
vt 0.5131814 0.7944112
vt 0.5117611 0.7951213
vt 0.5110509 0.8164266
vt 0.5124712 0.8164266
vt 0.5096305 0.7958316
vt 0.5096305 0.8164266
vt 0.5110509 0.8164266
vt 0.5117611 0.7951213
vt 0.515312 0.8398625
vt 0.519573 0.8561965
vt 0.5202832 0.8554863
vt 0.5167323 0.8391522
vt 0.5181527 0.8391522
vt 0.5167323 0.8391522
vt 0.5202832 0.8554863
vt 0.5217035 0.8554863
vt 0.5117611 0.8185571
vt 0.5103407 0.817847
vt 0.515312 0.8398625
vt 0.5167323 0.8391522
vt 0.5138916 0.8171368
vt 0.5124712 0.8171368
vt 0.5181527 0.8391522
vt 0.519573 0.8391522
vt 0.5231239 0.8554863
vt 0.5217035 0.8554863
vt 0.523834 0.8704
vt 0.519573 0.8391522
vt 0.5181527 0.8391522
vt 0.5217035 0.8554863
vt 0.5231239 0.8554863
vt 0.5217035 0.8554863
vt 0.5202832 0.8554863
vt 0.523834 0.8704
vt 0.519573 0.8561965
vt 0.523834 0.8704
vt 0.5202832 0.8554863
vt 0.572126 0.8498049
vt 0.5749667 0.8469642
vt 0.5550818 0.8476744
vt 0.5550818 0.8498049
vt 0.5749667 0.8554863
vt 0.5550818 0.854066
vt 0.5550818 0.8554863
vt 0.5749667 0.8576168
vt 0.5295154 0.7773669
vt 0.5273849 0.773816
vt 0.5266747 0.781628
vt 0.5288053 0.781628
vt 0.5749667 0.8469642
vt 0.5749667 0.8441235
vt 0.5550818 0.846254
vt 0.5550818 0.8476744
vt 0.5749667 0.8526456
vt 0.5550818 0.8519354
vt 0.5550818 0.854066
vt 0.5749667 0.8554863
vt 0.5614734 0.7823381
vt 0.5778074 0.781628
vt 0.5770972 0.7794975
vt 0.5607632 0.7802076
vt 0.592011 0.8427031
vt 0.5749667 0.8441235
vt 0.5749667 0.8469642
vt 0.5955619 0.8455439
vt 0.5550818 0.7780771
vt 0.5607632 0.7773669
vt 0.5607632 0.7745262
vt 0.5522411 0.7752364
vt 0.5607632 0.7773669
vt 0.5607632 0.7802076
vt 0.5770972 0.7794975
vt 0.5770972 0.7773669
vt 0.5550818 0.7780771
vt 0.5522411 0.7809178
vt 0.5607632 0.7802076
vt 0.5607632 0.7773669
vt 0.5529513 0.7716855
vt 0.5522411 0.7752364
vt 0.5607632 0.7745262
vt 0.5614734 0.7716855
vt 0.5778074 0.7731059
vt 0.5778074 0.7752364
vt 0.5927211 0.7759466
vt 0.5934313 0.773816
vt 0.5778074 0.7752364
vt 0.5770972 0.7773669
vt 0.592011 0.7773669
vt 0.5927211 0.7759466
vt 0.5607632 0.7773669
vt 0.5770972 0.7773669
vt 0.5778074 0.7752364
vt 0.5607632 0.7745262
vt 0.5607632 0.7745262
vt 0.5778074 0.7752364
vt 0.5778074 0.7731059
vt 0.5614734 0.7716855
vt 0.6055043 0.8071944
vt 0.6076348 0.8292098
vt 0.6090552 0.8284996
vt 0.6069247 0.8064842
vt 0.6069247 0.8064842
vt 0.6090552 0.8284996
vt 0.608345 0.8071944
vt 0.5770972 0.7794975
vt 0.5927211 0.7794975
vt 0.592011 0.7773669
vt 0.5770972 0.7773669
vt 0.5778074 0.781628
vt 0.5934313 0.7809178
vt 0.5927211 0.7794975
vt 0.5770972 0.7794975
vt 0.6104755 0.8519354
vt 0.6090552 0.8284996
vt 0.6076348 0.8292098
vt 0.6090552 0.8519354
vt 0.5366172 0.7539311
vt 0.5366172 0.7709754
vt 0.5380375 0.7553515
vt 0.612606 0.8064842
vt 0.6104755 0.8064842
vt 0.6104755 0.8284996
vt 0.6118959 0.8292098
vt 0.6104755 0.8519354
vt 0.6111857 0.8519354
vt 0.6104755 0.8284996
vt 0.6090552 0.8284996
vt 0.6104755 0.8519354
vt 0.6111857 0.8661389
vt 0.6111857 0.8519354
vt 0.612606 0.7873094
vt 0.6047941 0.785889
vt 0.604084 0.7887298
vt 0.6147366 0.7908603
vt 0.5707057 0.8121656
vt 0.5699955 0.8071944
vt 0.5664446 0.8064842
vt 0.5671548 0.8164266
vt 0.6118959 0.7944112
vt 0.6026636 0.7922806
vt 0.6019534 0.7958316
vt 0.6111857 0.7979621
vt 0.5543716 0.8135859
vt 0.5536615 0.817847
vt 0.5579225 0.8171368
vt 0.6111857 0.7979621
vt 0.6019534 0.7958316
vt 0.6019534 0.8000926
vt 0.612606 0.8022231
vt 0.6118959 0.7944112
vt 0.6147366 0.7908603
vt 0.604084 0.7887298
vt 0.6026636 0.7922806
vt 0.612606 0.8022231
vt 0.6019534 0.8000926
vt 0.6090552 0.8050638
vt 0.612606 0.7873094
vt 0.6133162 0.7787873
vt 0.6047941 0.7823381
vt 0.6047941 0.785889
vt 0.604084 0.7887298
vt 0.6047941 0.785889
vt 0.5884601 0.7851789
vt 0.5884601 0.7873094
vt 0.6019534 0.7958316
vt 0.5877499 0.7922806
vt 0.5884601 0.7958316
vt 0.6019534 0.8000926
vt 0.6047941 0.785889
vt 0.6047941 0.7823381
vt 0.5905906 0.7823381
vt 0.5884601 0.7851789
vt 0.6026636 0.7922806
vt 0.604084 0.7887298
vt 0.5884601 0.7873094
vt 0.5877499 0.7901501
vt 0.6026636 0.7922806
vt 0.5877499 0.7901501
vt 0.5877499 0.7922806
vt 0.6019534 0.7958316
vt 0.543719 0.854066
vt 0.5465597 0.8561965
vt 0.5472699 0.8412828
vt 0.5451393 0.8412828
vt 0.5877499 0.7901501
vt 0.5692853 0.7901501
vt 0.5699955 0.7922806
vt 0.5877499 0.7922806
vt 0.5884601 0.7873094
vt 0.5884601 0.7851789
vt 0.5699955 0.785889
vt 0.5699955 0.7880195
vt 0.5856194 0.7958316
vt 0.5877499 0.7922806
vt 0.5699955 0.7922806
vt 0.5699955 0.7958316
vt 0.5877499 0.7901501
vt 0.5884601 0.7873094
vt 0.5699955 0.7880195
vt 0.5692853 0.7901501
vt 0.54798 0.7865992
vt 0.5699955 0.785889
vt 0.5699955 0.7830484
vt 0.5472699 0.7851789
vt 0.54798 0.7880195
vt 0.5699955 0.7880195
vt 0.5699955 0.785889
vt 0.54798 0.7865992
vt 0.54798 0.7915704
vt 0.5699955 0.7922806
vt 0.5692853 0.7901501
vt 0.54798 0.7894399
vt 0.5699955 0.7958316
vt 0.5699955 0.7922806
vt 0.54798 0.7915704
vt 0.5472699 0.7929908
vt 0.5273849 0.8597474
vt 0.5295154 0.8590372
vt 0.5295154 0.8341811
vt 0.5273849 0.8341811
vt 0.5309358 0.8590372
vt 0.5330663 0.8597474
vt 0.5330663 0.8356014
vt 0.531646 0.8341811
vt 0.535907 0.8597474
vt 0.535907 0.8341811
vt 0.5344867 0.8341811
vt 0.5344867 0.8597474
vt 0.5295154 0.8590372
vt 0.5309358 0.8590372
vt 0.531646 0.8341811
vt 0.5295154 0.8341811
vt 0.5344867 0.8597474
vt 0.5344867 0.8341811
vt 0.5330663 0.8356014
vt 0.5330663 0.8597474
vt 0.531646 0.8341811
vt 0.5302256 0.8093249
vt 0.5295154 0.8341811
vt 0.5330663 0.8320505
vt 0.5344867 0.8341811
vt 0.5323561 0.8093249
vt 0.5273849 0.8341811
vt 0.5295154 0.8341811
vt 0.5302256 0.8093249
vt 0.5288053 0.8093249
vt 0.6019534 0.8398625
vt 0.5969822 0.8270793
vt 0.5948517 0.8284996
vt 0.6005331 0.8405726
vt 0.5344867 0.8341811
vt 0.535907 0.8341811
vt 0.5344867 0.8093249
vt 0.5323561 0.8093249
vt 0.5288053 0.8093249
vt 0.5302256 0.8093249
vt 0.531646 0.7851789
vt 0.5309358 0.7851789
vt 0.5323561 0.7851789
vt 0.5323561 0.8093249
vt 0.5344867 0.8093249
vt 0.5337765 0.7851789
vt 0.5323561 0.8093249
vt 0.5323561 0.7851789
vt 0.531646 0.7851789
vt 0.5323561 0.7851789
vt 0.5337765 0.7851789
vt 0.5323561 0.7716855
vt 0.531646 0.7851789
vt 0.5323561 0.7851789
vt 0.5323561 0.7716855
vt 0.5309358 0.7851789
vt 0.531646 0.7851789
vt 0.531646 0.7716855
vt 0.6147366 0.7702652
vt 0.6154467 0.7688448
vt 0.592011 0.7674245
vt 0.592011 0.7688448
vt 0.6140264 0.7759466
vt 0.6147366 0.7745262
vt 0.5913008 0.7709754
vt 0.5913008 0.7731059
vt 0.6147366 0.7723957
vt 0.6147366 0.7702652
vt 0.592011 0.7688448
vt 0.5913008 0.7709754
vt 0.6140264 0.7759466
vt 0.5913008 0.7731059
vt 0.6140264 0.7780771
vt 0.6147366 0.7745262
vt 0.6147366 0.7723957
vt 0.5913008 0.7709754
vt 0.592011 0.7688448
vt 0.592011 0.7674245
vt 0.5763871 0.7674245
vt 0.5763871 0.7681347
vt 0.5913008 0.7709754
vt 0.5763871 0.769555
vt 0.5763871 0.7709754
vt 0.5913008 0.7731059
vt 0.5913008 0.7709754
vt 0.592011 0.7688448
vt 0.5763871 0.7681347
vt 0.5763871 0.769555
vt 0.5763871 0.7674245
vt 0.5657344 0.7667143
vt 0.5763871 0.7681347
vt 0.5763871 0.769555
vt 0.5657344 0.7681347
vt 0.5657344 0.769555
vt 0.5763871 0.7709754
vt 0.5756769 0.7681347
vt 0.5763871 0.7681347
vt 0.5657344 0.7667143
vt 0.5657344 0.7681347
vt 0.5394579 0.8185571
vt 0.5380375 0.8114554
vt 0.5380375 0.8185571
vt 0.5657344 0.7681347
vt 0.5657344 0.7667143
vt 0.555792 0.7667143
vt 0.5657344 0.7681347
vt 0.5657344 0.7681347
vt 0.555792 0.7667143
vt 0.5657344 0.7681347
vt 0.555792 0.7674245
vt 0.5657344 0.769555
vt 0.5366172 0.8185571
vt 0.5380375 0.8185571
vt 0.5373274 0.8114554
vt 0.535907 0.8121656
vt 0.5756769 0.7681347
vt 0.5657344 0.7681347
vt 0.5657344 0.7681347
vt 0.5763871 0.769555
vt 0.535907 0.8121656
vt 0.5373274 0.8114554
vt 0.5366172 0.8000926
vt 0.5401681 0.817847
vt 0.5387477 0.8114554
vt 0.5380375 0.8114554
vt 0.5394579 0.8185571
vt 0.5380375 0.8185571
vt 0.5380375 0.8114554
vt 0.5373274 0.8114554
vt 0.5387477 0.8114554
vt 0.5366172 0.8000926
vt 0.5380375 0.8114554
vt 0.5373274 0.8114554
vt 0.5380375 0.8114554
vt 0.5366172 0.8000926
vt 0.5224137 0.781628
vt 0.5224137 0.8000926
vt 0.5245442 0.7993824
vt 0.5245442 0.781628
vt 0.572126 0.8498049
vt 0.5550818 0.8498049
vt 0.5550818 0.8519354
vt 0.5749667 0.8526456
vt 0.5245442 0.7745262
vt 0.5209934 0.773816
vt 0.5224137 0.781628
vt 0.5245442 0.781628
vt 0.5224137 0.781628
vt 0.5202832 0.781628
vt 0.5202832 0.7993824
vt 0.5224137 0.8000926
vt 0.5245442 0.7745262
vt 0.5245442 0.781628
vt 0.5266747 0.781628
vt 0.5273849 0.773816
vt 0.5188628 0.7780771
vt 0.5202832 0.781628
vt 0.5224137 0.781628
vt 0.5209934 0.773816
vt 0.5288053 0.7993824
vt 0.5259646 0.7993824
vt 0.5252544 0.8185571
vt 0.5273849 0.8192673
vt 0.5266747 0.781628
vt 0.5259646 0.7993824
vt 0.5288053 0.7993824
vt 0.5288053 0.781628
vt 0.5266747 0.781628
vt 0.5245442 0.781628
vt 0.5245442 0.7993824
vt 0.5259646 0.7993824
vt 0.5217035 0.8185571
vt 0.5224137 0.8363116
vt 0.523834 0.8363116
vt 0.523834 0.8185571
vt 0.523834 0.8533558
vt 0.5224137 0.8000926
vt 0.5202832 0.7993824
vt 0.5217035 0.8185571
vt 0.523834 0.8185571
vt 0.5224137 0.8000926
vt 0.523834 0.8185571
vt 0.5245442 0.801513
vt 0.5259646 0.8363116
vt 0.5245442 0.8363116
vt 0.523834 0.8533558
vt 0.5273849 0.8192673
vt 0.5252544 0.8185571
vt 0.5245442 0.8363116
vt 0.5259646 0.8363116
vt 0.5252544 0.8185571
vt 0.523834 0.8185571
vt 0.523834 0.8363116
vt 0.5245442 0.8363116
vt 0.523834 0.8363116
vt 0.523834 0.8533558
vt 0.5245442 0.8363116
vt 0.5245442 0.801513
vt 0.523834 0.8185571
vt 0.5252544 0.8185571
vt 0.5259646 0.7993824
vt 0.6090552 0.8519354
vt 0.6111857 0.8661389
vt 0.6104755 0.8519354
vt 0.6111857 0.8519354
vt 0.6111857 0.8661389
vt 0.612606 0.8519354
vt 0.5380375 0.7716855
vt 0.535907 0.7944112
vt 0.5401681 0.7716855
vt 0.608345 0.8071944
vt 0.6090552 0.8284996
vt 0.6104755 0.8284996
vt 0.6104755 0.8064842
vt 0.5415884 0.7553515
vt 0.5401681 0.7539311
vt 0.5380375 0.7716855
vt 0.5401681 0.7716855
vt 0.5380375 0.7716855
vt 0.5366172 0.7709754
vt 0.535907 0.7944112
vt 0.5351968 0.7546413
vt 0.5351968 0.7709754
vt 0.5366172 0.7709754
vt 0.5366172 0.7539311
vt 0.5380375 0.7553515
vt 0.5366172 0.7709754
vt 0.5380375 0.7716855
vt 0.5401681 0.7539311
vt 0.5351968 0.7944112
vt 0.5366172 0.7709754
vt 0.5351968 0.7709754
vt 0.5430088 0.8412828
vt 0.5451393 0.8412828
vt 0.5451393 0.8206877
vt 0.543719 0.8206877
vt 0.5501106 0.8547761
vt 0.5494004 0.8412828
vt 0.5472699 0.8412828
vt 0.5465597 0.8561965
vt 0.5856194 0.7830484
vt 0.5699955 0.7830484
vt 0.5699955 0.785889
vt 0.5884601 0.7851789
vt 0.5494004 0.8412828
vt 0.5522411 0.8412828
vt 0.5522411 0.8206877
vt 0.5494004 0.8206877
vt 0.543719 0.854066
vt 0.5451393 0.8412828
vt 0.5430088 0.8412828
vt 0.5408783 0.8561965
vt 0.5501106 0.8547761
vt 0.5543716 0.8561965
vt 0.5522411 0.8412828
vt 0.5494004 0.8412828
vt 0.5494004 0.8206877
vt 0.5522411 0.8206877
vt 0.5529513 0.7965417
vt 0.5515309 0.7965417
vt 0.5494004 0.8206877
vt 0.5515309 0.7965417
vt 0.5501106 0.7958316
vt 0.5472699 0.8206877
vt 0.5451393 0.8412828
vt 0.5472699 0.8412828
vt 0.5472699 0.8206877
vt 0.5451393 0.8206877
vt 0.5494004 0.8412828
vt 0.5494004 0.8206877
vt 0.5472699 0.8206877
vt 0.5472699 0.8412828
vt 0.5380375 0.8206877
vt 0.5366172 0.8206877
vt 0.5380375 0.8384421
vt 0.5387477 0.8384421
vt 0.543719 0.8206877
vt 0.5451393 0.8206877
vt 0.5380375 0.7972518
vt 0.5472699 0.8206877
vt 0.5501106 0.7958316
vt 0.5486902 0.7965417
vt 0.5451393 0.8206877
vt 0.5401681 0.8384421
vt 0.5387477 0.8384421
vt 0.5387477 0.8618779
vt 0.5415884 0.8384421
vt 0.5401681 0.8384421
vt 0.5387477 0.8618779
vt 0.5408783 0.8213978
vt 0.5394579 0.8199775
vt 0.5387477 0.8384421
vt 0.5401681 0.8384421
vt 0.5380375 0.8206877
vt 0.5387477 0.8384421
vt 0.5394579 0.8199775
vt 0.5380375 0.8384421
vt 0.5380375 0.8611677
vt 0.5387477 0.8384421
vt 0.5408783 0.8213978
vt 0.5401681 0.8384421
vt 0.5415884 0.8384421
vt 0.5422986 0.8206877
vt 0.54798 0.7894399
vt 0.5692853 0.7901501
vt 0.5699955 0.7880195
vt 0.54798 0.7880195
vt 0.6033738 0.8384421
vt 0.5969822 0.8270793
vt 0.6019534 0.8398625
vt 0.5330663 0.8320505
vt 0.5323561 0.8093249
vt 0.5302256 0.8093249
vt 0.531646 0.8341811
vt 0.5948517 0.8284996
vt 0.5877499 0.8107452
vt 0.5863296 0.8107452
vt 0.5941415 0.8292098
vt 0.6033738 0.8384421
vt 0.6055043 0.8391522
vt 0.5991127 0.8270793
vt 0.5969822 0.8270793
vt 0.6005331 0.8405726
vt 0.5948517 0.8284996
vt 0.5941415 0.8292098
vt 0.5998229 0.841993
vt 0.5884601 0.8107452
vt 0.5813583 0.7972518
vt 0.5877499 0.8107452
vt 0.5969822 0.8270793
vt 0.5884601 0.8107452
vt 0.5877499 0.8107452
vt 0.5948517 0.8284996
vt 0.5969822 0.8270793
vt 0.5991127 0.8270793
vt 0.5891703 0.8093249
vt 0.5884601 0.8107452
vt 0.5884601 0.8107452
vt 0.5891703 0.8093249
vt 0.5820685 0.7972518
vt 0.5863296 0.8107452
vt 0.5877499 0.8107452
vt 0.5813583 0.7972518
vt 0.5302256 0.8093249
vt 0.5323561 0.8093249
vt 0.531646 0.7851789
vt 0.6118959 0.8292098
vt 0.6104755 0.8284996
vt 0.6111857 0.8519354
vt 0.612606 0.8519354
vt 0.5117611 0.8185571
vt 0.5167323 0.8391522
vt 0.5181527 0.8391522
vt 0.5124712 0.8171368
vn 0.4345523 0.8980587 0.06822628
vn 0.4345523 0.8980587 0.06822628
vn 0.4345523 0.8980587 0.06822628
vn 0.4345523 0.8980587 0.06822628
vn 0.7794634 -0.6226857 0.0685518
vn 0.7794634 -0.6226857 0.0685518
vn 0.7794634 -0.6226857 0.0685518
vn 0.7794634 -0.6226857 0.0685518
vn -0.7804754 -0.6226857 0.05586287
vn -0.7804754 -0.6226857 0.05586287
vn -0.7804754 -0.6226857 0.05586287
vn -0.7804754 -0.6226857 0.05586287
vn -0.4355643 0.8980587 0.06143521
vn -0.4355643 0.8980587 0.06143521
vn -0.4355643 0.8980587 0.06143521
vn -0.4355643 0.8980587 0.06143521
vn -0.4355643 0.8980587 -0.06143521
vn -0.4355643 0.8980587 -0.06143521
vn 0.9754357 0.2239143 0
vn 0.9754357 0.2239143 0
vn 0.9754357 0.2239143 0
vn 0.9754357 0.2239143 0
vn 0.003413439 -0.9989523 0.04563602
vn 0.003413439 -0.9989523 0.04563602
vn 0.003413439 -0.9989523 0.04563602
vn 0.003413439 -0.9989523 0.04563602
vn -0.9764476 0.2239143 0
vn -0.9764476 0.2239143 0
vn -0.9764476 0.2239143 0
vn -0.9764476 0.2239143 0
vn -0.8902199 0.2003977 -0.4090835
vn -0.8902199 0.2003977 -0.4090835
vn -0.8902199 0.2003977 -0.4090835
vn -0.8902199 0.2003977 -0.4090835
vn -0.7491198 -0.599169 -0.2825173
vn -0.7491198 -0.599169 -0.2825173
vn -0.7491198 -0.599169 -0.2825173
vn -0.7491198 -0.599169 -0.2825173
vn 0.2934523 -0.9205635 0.2577763
vn 0.2934523 -0.9205635 0.2577763
vn 0.2934523 -0.9205635 0.2577763
vn 0.2934523 -0.9205635 0.2577763
vn -0.7020865 -0.7089134 -0.06720301
vn -0.7020865 -0.7089134 -0.06720301
vn -0.7020865 -0.7089134 -0.06720301
vn -0.7020865 -0.7089134 -0.06720301
vn 0.08964121 0.9842865 0.1521333
vn 0.08964121 0.9842865 0.1521333
vn 0.08964121 0.9842865 0.1521333
vn 0.08964121 0.9842865 0.1521333
vn 0.5129412 -0.8500134 0.1198683
vn 0.5129412 -0.8500134 0.1198683
vn 0.5129412 -0.8500134 0.1198683
vn 0.5129412 -0.8500134 0.1198683
vn -0.952931 0.3023033 -0.02313579
vn -0.952931 0.3023033 -0.02313579
vn -0.952931 0.3023033 -0.02313579
vn -0.952931 0.3023033 -0.02313579
vn 0.9754357 0.1612032 0.1501293
vn 0.9754357 0.1612032 0.1501293
vn 0.9754357 0.1612032 0.1501293
vn 0.9754357 0.1612032 0.1501293
vn 0.9048856 0.2082366 0.3712404
vn 0.9048856 0.2082366 0.3712404
vn 0.9048856 0.2082366 0.3712404
vn 0.9048856 0.2082366 0.3712404
vn 0.4423912 0.6080199 0.6592433
vn 0.4423912 0.6080199 0.6592433
vn 0.4423912 0.6080199 0.6592433
vn 0.4423912 0.6080199 0.6592433
vn 0.1445134 0.9921255 0
vn 0.1445134 0.9921255 0
vn 0.1445134 0.9921255 0
vn 0.1445134 0.9921255 0
vn 0.7402689 0.4277255 -0.518703
vn 0.7402689 0.4277255 -0.518703
vn 0.7402689 0.4277255 -0.518703
vn 0.7402689 0.4277255 -0.518703
vn 0.5599746 -0.8264968 0.05771951
vn 0.5599746 -0.8264968 0.05771951
vn 0.5599746 -0.8264968 0.05771951
vn 0.5599746 -0.8264968 0.05771951
vn -0.9137365 0.3963699 0.0893111
vn -0.9137365 0.3963699 0.0893111
vn -0.9137365 0.3963699 0.0893111
vn -0.9137365 0.3963699 0.0893111
vn -0.4982755 -0.8343357 -0.2358083
vn -0.4982755 -0.8343357 -0.2358083
vn -0.4982755 -0.8343357 -0.2358083
vn -0.4982755 -0.8343357 -0.2358083
vn -0.5766644 -0.810819 0.1001533
vn -0.5766644 -0.810819 0.1001533
vn -0.5766644 -0.810819 0.1001533
vn -0.5766644 -0.810819 0.1001533
vn -0.4120477 -0.7951412 -0.444935
vn -0.4120477 -0.7951412 -0.444935
vn -0.4120477 -0.7951412 -0.444935
vn -0.4120477 -0.7951412 -0.444935
vn 0.7559468 -0.528619 0.3861431
vn 0.7559468 -0.528619 0.3861431
vn 0.7559468 -0.528619 0.3861431
vn 0.7559468 -0.528619 0.3861431
vn -0.7491198 0.4982755 -0.4365101
vn -0.7491198 0.4982755 -0.4365101
vn -0.7491198 0.4982755 -0.4365101
vn -0.7491198 0.4982755 -0.4365101
vn 0.7167523 -0.2150635 0.6633354
vn 0.7167523 -0.2150635 0.6633354
vn 0.7167523 -0.2150635 0.6633354
vn 0.7167523 -0.2150635 0.6633354
vn -0.6315365 0.459081 -0.624825
vn -0.6315365 0.459081 -0.624825
vn -0.6315365 0.459081 -0.624825
vn -0.6315365 0.459081 -0.624825
vn 0.4972634 0.7334421 0.4634563
vn 0.4972634 0.7334421 0.4634563
vn 0.4972634 0.7334421 0.4634563
vn 0.4972634 0.7334421 0.4634563
vn 0.5756524 0.7569588 0.3092536
vn 0.5756524 0.7569588 0.3092536
vn 0.5756524 0.7569588 0.3092536
vn 0.5756524 0.7569588 0.3092536
vn -0.7804754 0.4904366 -0.3877242
vn -0.7804754 0.4904366 -0.3877242
vn -0.7804754 0.4904366 -0.3877242
vn -0.7804754 0.4904366 -0.3877242
vn -0.4512421 0.4747588 -0.7556352
vn -0.4512421 0.4747588 -0.7556352
vn -0.4512421 0.4747588 -0.7556352
vn 0.6070079 -0.4972634 0.6198956
vn 0.6070079 -0.4972634 0.6198956
vn 0.6070079 -0.4972634 0.6198956
vn 0.6070079 -0.4972634 0.6198956
vn -0.4355643 -0.810819 -0.3909683
vn -0.4355643 -0.810819 -0.3909683
vn -0.4355643 -0.810819 -0.3909683
vn -0.4355643 -0.810819 -0.3909683
vn -0.6864088 -0.4972634 -0.5306336
vn -0.6864088 -0.4972634 -0.5306336
vn -0.6864088 -0.4972634 -0.5306336
vn -0.6864088 -0.4972634 -0.5306336
vn 0.6226857 -0.5207801 0.5839954
vn 0.6226857 -0.5207801 0.5839954
vn 0.6226857 -0.5207801 0.5839954
vn 0.6226857 -0.5207801 0.5839954
vn -0.3179811 -0.6540412 -0.6863804
vn -0.3179811 -0.6540412 -0.6863804
vn -0.3179811 -0.6540412 -0.6863804
vn -0.3179811 -0.6540412 -0.6863804
vn 0.1288357 0.8902199 0.4369324
vn 0.1288357 0.8902199 0.4369324
vn 0.1288357 0.8902199 0.4369324
vn 0.1288357 0.8902199 0.4369324
vn 0.05828565 0.9999643 0
vn 0.05828565 0.9999643 0
vn 0.05828565 0.9999643 0
vn 0.08180237 0.9999643 0
vn 0.08180237 0.9999643 0
vn 0.08180237 0.9999643 0
vn 0.08180237 0.9999643 0
vn 0.7873023 -0.5364579 0.303921
vn 0.7873023 -0.5364579 0.303921
vn 0.7873023 -0.5364579 0.303921
vn -0.8275087 -0.4972634 -0.2606883
vn -0.8275087 -0.4972634 -0.2606883
vn -0.8275087 -0.4972634 -0.2606883
vn 0.1445134 0.9842865 -0.1014689
vn 0.1445134 0.9842865 -0.1014689
vn 0.1445134 0.9842865 -0.1014689
vn 0.1445134 0.9842865 -0.1014689
vn 0.5834912 -0.7951412 0.1651923
vn 0.5834912 -0.7951412 0.1651923
vn 0.5834912 -0.7951412 0.1651923
vn 0.5834912 -0.7951412 0.1651923
vn -0.3258199 -0.5599746 0.7617545
vn -0.3258199 -0.5599746 0.7617545
vn -0.3258199 -0.5599746 0.7617545
vn -0.3258199 -0.5599746 0.7617545
vn 0.9911134 0.06713659 0.114834
vn 0.9911134 0.06713659 0.114834
vn 0.9911134 0.06713659 0.114834
vn 0.9911134 0.06713659 0.114834
vn -0.5923421 -0.8029801 0.06598304
vn -0.5923421 -0.8029801 0.06598304
vn -0.5923421 -0.8029801 0.06598304
vn -0.5923421 -0.8029801 0.06598304
vn 0.8656912 0.4434032 -0.2323196
vn 0.8656912 0.4434032 -0.2323196
vn 0.8656912 0.4434032 -0.2323196
vn 0.8656912 0.4434032 -0.2323196
vn 0.9989523 0.05929774 0
vn 0.9989523 0.05929774 0
vn 0.9989523 0.05929774 0
vn 0.9989523 0.05929774 0
vn -0.6393754 -0.4659079 0.6116608
vn -0.6393754 -0.4659079 0.6116608
vn -0.6393754 -0.4659079 0.6116608
vn -0.6393754 -0.4659079 0.6116608
vn -0.4669198 0.7569588 0.4571644
vn -0.4669198 0.7569588 0.4571644
vn -0.4669198 0.7569588 0.4571644
vn -0.4669198 0.7569588 0.4571644
vn -0.2552699 0.6472144 0.7182971
vn -0.2552699 0.6472144 0.7182971
vn -0.2552699 0.6472144 0.7182971
vn -0.2552699 0.6472144 0.7182971
vn 0.3404856 -0.6462023 -0.6830023
vn 0.3404856 -0.6462023 -0.6830023
vn 0.3404856 -0.6462023 -0.6830023
vn 0.3404856 -0.6462023 -0.6830023
vn 0.3953578 -0.7324301 -0.5542908
vn 0.3953578 -0.7324301 -0.5542908
vn 0.3953578 -0.7324301 -0.5542908
vn 0.3953578 -0.7324301 -0.5542908
vn -0.8902199 -0.2856134 0.3548712
vn -0.8902199 -0.2856134 0.3548712
vn -0.8902199 -0.2856134 0.3548712
vn -0.8902199 -0.2856134 0.3548712
vn -0.8667032 -0.4423912 0.2304681
vn -0.8667032 -0.4423912 0.2304681
vn -0.8667032 -0.4423912 0.2304681
vn -0.8667032 -0.4423912 0.2304681
vn 0.5834912 -0.669719 -0.4593632
vn 0.5834912 -0.669719 -0.4593632
vn 0.5834912 -0.669719 -0.4593632
vn 0.5834912 -0.669719 -0.4593632
vn 0.8343357 0.5531476 0
vn 0.8343357 0.5531476 0
vn 0.8343357 0.5531476 0
vn 0.8343357 0.5531476 0
vn 0.01909125 0.600181 0.7996363
vn 0.01909125 0.600181 0.7996363
vn 0.01909125 0.600181 0.7996363
vn -0.2631088 0.7961532 0.5448979
vn -0.2631088 0.7961532 0.5448979
vn -0.2631088 0.7961532 0.5448979
vn -0.2631088 0.7961532 0.5448979
vn 0.9048856 0.2787866 -0.321652
vn 0.9048856 0.2787866 -0.321652
vn 0.9048856 0.2787866 -0.321652
vn 0.9048856 0.2787866 -0.321652
vn 0.5599746 0.7726366 0.2991007
vn 0.5599746 0.7726366 0.2991007
vn 0.5599746 0.7726366 0.2991007
vn 0.5599746 0.7726366 0.2991007
vn -0.05929774 -0.951919 0.3005562
vn -0.05929774 -0.951919 0.3005562
vn -0.05929774 -0.951919 0.3005562
vn 0.175869 -0.5051023 -0.8449507
vn 0.175869 -0.5051023 -0.8449507
vn 0.175869 -0.5051023 -0.8449507
vn 0.175869 -0.5051023 -0.8449507
vn -0.9137365 -0.1523523 0.3766621
vn -0.9137365 -0.1523523 0.3766621
vn -0.9137365 -0.1523523 0.3766621
vn -0.9137365 -0.1523523 0.3766621
vn -0.9921255 -0.07396346 0.1010768
vn -0.9921255 -0.07396346 0.1010768
vn -0.9921255 -0.07396346 0.1010768
vn -0.1220089 -0.9284023 0.3509744
vn -0.1220089 -0.9284023 0.3509744
vn -0.1220089 -0.9284023 0.3509744
vn -0.1220089 -0.9284023 0.3509744
vn -0.1376866 0.9921255 0
vn -0.1376866 0.9921255 0
vn -0.1376866 0.9921255 0
vn -0.1376866 0.9921255 0
vn 0.8500134 0.2082366 -0.483854
vn 0.8500134 0.2082366 -0.483854
vn 0.8500134 0.2082366 -0.483854
vn 0.8500134 0.2082366 -0.483854
vn 0.003413439 -0.9675968 0.2524774
vn 0.003413439 -0.9675968 0.2524774
vn 0.003413439 -0.9675968 0.2524774
vn 0.2620968 0.9686088 0
vn 0.2620968 0.9686088 0
vn 0.2620968 0.9686088 0
vn 0.2620968 0.9686088 0
vn 0.6775579 -0.6853968 -0.2667331
vn 0.6775579 -0.6853968 -0.2667331
vn 0.6775579 -0.6853968 -0.2667331
vn 0.6775579 -0.6853968 -0.2667331
vn 0.1209968 0.9686088 0.2171562
vn 0.1209968 0.9686088 0.2171562
vn 0.1209968 0.9686088 0.2171562
vn -0.7099255 -0.1131579 0.6951267
vn -0.7099255 -0.1131579 0.6951267
vn -0.7099255 -0.1131579 0.6951267
vn -0.7099255 -0.1131579 0.6951267
vn -0.3023033 -0.8421745 0.4464916
vn -0.3023033 -0.8421745 0.4464916
vn -0.3023033 -0.8421745 0.4464916
vn -0.3023033 -0.8421745 0.4464916
vn 0.01909125 0.9999643 0
vn 0.01909125 0.9999643 0
vn 0.01909125 0.9999643 0
vn 0.01909125 0.9999643 0
vn -0.5923421 0.02794212 0.8052019
vn -0.5923421 0.02794212 0.8052019
vn -0.5923421 0.02794212 0.8052019
vn -0.5923421 0.02794212 0.8052019
vn 0.3953578 -0.7951412 -0.4598289
vn 0.3953578 -0.7951412 -0.4598289
vn 0.3953578 -0.7951412 -0.4598289
vn 0.3953578 -0.7951412 -0.4598289
vn 0.6070079 0.2160755 -0.7647567
vn 0.6070079 0.2160755 -0.7647567
vn 0.6070079 0.2160755 -0.7647567
vn 0.6070079 0.2160755 -0.7647567
vn -0.388531 0.5061143 -0.7699947
vn -0.388531 0.5061143 -0.7699947
vn -0.388531 0.5061143 -0.7699947
vn -0.388531 0.5061143 -0.7699947
vn 0.3718412 0.2160755 -0.9027987
vn 0.3718412 0.2160755 -0.9027987
vn 0.3718412 0.2160755 -0.9027987
vn 0.3718412 0.2160755 -0.9027987
vn -0.1847199 -0.8421745 0.5065773
vn -0.1847199 -0.8421745 0.5065773
vn -0.1847199 -0.8421745 0.5065773
vn -0.1847199 -0.8421745 0.5065773
vn -0.02794212 0.9999643 0
vn -0.02794212 0.9999643 0
vn -0.02794212 0.9999643 0
vn -0.02794212 0.9999643 0
vn 0.2542579 -0.7951412 -0.5505483
vn 0.2542579 -0.7951412 -0.5505483
vn 0.2542579 -0.7951412 -0.5505483
vn 0.2542579 -0.7951412 -0.5505483
vn -0.6472144 0.03578109 0.7614678
vn -0.6472144 0.03578109 0.7614678
vn -0.6472144 0.03578109 0.7614678
vn -0.6472144 0.03578109 0.7614678
vn -0.3336588 -0.8656912 0.3731629
vn -0.3336588 -0.8656912 0.3731629
vn -0.3336588 -0.8656912 0.3731629
vn -0.3336588 -0.8656912 0.3731629
vn 0.6775579 0.2239143 -0.7005553
vn 0.6775579 0.2239143 -0.7005553
vn 0.6775579 0.2239143 -0.7005553
vn 0.6775579 0.2239143 -0.7005553
vn 0.0426079 0.9999643 0
vn 0.0426079 0.9999643 0
vn 0.0426079 0.9999643 0
vn 0.0426079 0.9999643 0
vn -0.03578109 0.9999643 0
vn -0.03578109 0.9999643 0
vn -0.03578109 0.9999643 0
vn -0.03578109 0.9999643 0
vn 0.3326468 -0.7951412 -0.5070469
vn 0.3326468 -0.7951412 -0.5070469
vn 0.3326468 -0.7951412 -0.5070469
vn 0.3326468 -0.7951412 -0.5070469
vn -0.5061143 0.03578109 0.8617238
vn -0.5061143 0.03578109 0.8617238
vn -0.5061143 0.03578109 0.8617238
vn -0.5061143 0.03578109 0.8617238
vn 0.4894245 0.2160755 -0.8448521
vn 0.4894245 0.2160755 -0.8448521
vn 0.4894245 0.2160755 -0.8448521
vn 0.4894245 0.2160755 -0.8448521
vn -0.2317533 -0.8578523 0.4586717
vn -0.2317533 -0.8578523 0.4586717
vn -0.2317533 -0.8578523 0.4586717
vn -0.2317533 -0.8578523 0.4586717
vn 0.2777746 0.2239143 -0.9341861
vn 0.2777746 0.2239143 -0.9341861
vn 0.2777746 0.2239143 -0.9341861
vn -0.1376866 -0.881369 0.4519193
vn -0.1376866 -0.881369 0.4519193
vn -0.1376866 -0.881369 0.4519193
vn 0.08964121 0.9842865 -0.1521333
vn 0.08964121 0.9842865 -0.1521333
vn 0.08964121 0.9842865 -0.1521333
vn 0.08964121 0.9842865 -0.1521333
vn -0.8431866 0.1925588 0.5019537
vn -0.8431866 0.1925588 0.5019537
vn -0.8431866 0.1925588 0.5019537
vn -0.8431866 0.1925588 0.5019537
vn -0.2395921 -0.08964121 0.9667265
vn -0.2395921 -0.08964121 0.9667265
vn -0.2395921 -0.08964121 0.9667265
vn -0.2395921 -0.08964121 0.9667265
vn 0.2307412 0.8745421 -0.4265381
vn 0.2307412 0.8745421 -0.4265381
vn 0.2307412 0.8745421 -0.4265381
vn 0.2307412 0.8745421 -0.4265381
vn -0.4825976 -0.034769 0.8751518
vn -0.4825976 -0.034769 0.8751518
vn -0.4825976 -0.034769 0.8751518
vn -0.4825976 -0.034769 0.8751518
vn 0.2229024 -0.9127246 -0.3424156
vn 0.2229024 -0.9127246 -0.3424156
vn 0.2229024 -0.9127246 -0.3424156
vn -0.8431866 0.3179811 0.4335026
vn -0.8431866 0.3179811 0.4335026
vn -0.8431866 0.3179811 0.4335026
vn 0.3483245 -0.9205635 -0.1767285
vn 0.3483245 -0.9205635 -0.1767285
vn 0.3483245 -0.9205635 -0.1767285
vn 0.6383635 0.7177643 -0.2780405
vn 0.6383635 0.7177643 -0.2780405
vn 0.6383635 0.7177643 -0.2780405
vn 0.9832746 -0.1366746 0.1203793
vn 0.9832746 -0.1366746 0.1203793
vn 0.9832746 -0.1366746 0.1203793
vn 0.9832746 -0.1366746 0.1203793
vn -0.6393754 -0.7716246 0
vn -0.6393754 -0.7716246 0
vn -0.6393754 -0.7716246 0
vn -0.6393754 -0.7716246 0
vn -0.004425466 0.9999643 -0.007196974
vn -0.004425466 0.9999643 -0.007196974
vn -0.004425466 0.9999643 -0.007196974
vn -0.004425466 0.9999643 -0.007196974
vn 0.5834912 -0.810819 0.04594062
vn 0.5834912 -0.810819 0.04594062
vn 0.5834912 -0.810819 0.04594062
vn -0.9058977 0.4120477 -0.09780659
vn -0.9058977 0.4120477 -0.09780659
vn -0.9058977 0.4120477 -0.09780659
vn 0.9597579 -0.2307412 0.1600728
vn 0.9597579 -0.2307412 0.1600728
vn 0.9597579 -0.2307412 0.1600728
vn 0.9597579 -0.2307412 0.1600728
vn -0.5688254 -0.8186579 -0.07897411
vn -0.5688254 -0.8186579 -0.07897411
vn -0.5688254 -0.8186579 -0.07897411
vn -0.5688254 -0.8186579 -0.07897411
vn -0.2082366 0.9764476 -0.05645775
vn -0.2082366 0.9764476 -0.05645775
vn -0.2082366 0.9764476 -0.05645775
vn -0.2082366 0.9764476 -0.05645775
vn 0.9989523 0.07497543 0
vn 0.9989523 0.07497543 0
vn 0.9989523 0.07497543 0
vn -0.1690422 -0.9832746 0.06779289
vn -0.1690422 -0.9832746 0.06779289
vn -0.1690422 -0.9832746 0.06779289
vn -0.1690422 -0.9832746 0.06779289
vn 0.4502301 0.8902199 -0.06929251
vn 0.4502301 0.8902199 -0.06929251
vn 0.4502301 0.8902199 -0.06929251
vn 0.4502301 0.8902199 -0.06929251
vn 0.05828565 0.3650144 -0.9291756
vn 0.05828565 0.3650144 -0.9291756
vn 0.05828565 0.3650144 -0.9291756
vn 0.5521357 0.8353476 0
vn 0.5521357 0.8353476 0
vn 0.5521357 0.8353476 0
vn -0.9137365 0.3650144 0.1784658
vn -0.9137365 0.3650144 0.1784658
vn -0.9137365 0.3650144 0.1784658
vn 0.1601912 -0.9832746 -0.0866596
vn 0.1601912 -0.9832746 -0.0866596
vn 0.1601912 -0.9832746 -0.0866596
vn -0.4825976 -0.5051023 0.7155216
vn -0.4825976 -0.5051023 0.7155216
vn -0.4825976 -0.5051023 0.7155216
vn -0.4825976 -0.5051023 0.7155216
vn -0.7726366 0.6315365 0.06476356
vn -0.7726366 0.6315365 0.06476356
vn -0.7726366 0.6315365 0.06476356
vn -0.7726366 0.6315365 0.06476356
vn -0.2787866 -0.8421745 0.461541
vn -0.2787866 -0.8421745 0.461541
vn -0.2787866 -0.8421745 0.461541
vn 0.9205635 0.3336588 0.2030634
vn 0.9205635 0.3336588 0.2030634
vn 0.9205635 0.3336588 0.2030634
vn 0.9205635 0.3336588 0.2030634
vn -0.4120477 0.2003977 -0.8888518
vn -0.4120477 0.2003977 -0.8888518
vn -0.4120477 0.2003977 -0.8888518
vn 0.881369 0.4747588 0
vn 0.881369 0.4747588 0
vn 0.881369 0.4747588 0
vn -0.5688254 0.6393754 -0.5173362
vn -0.5688254 0.6393754 -0.5173362
vn -0.5688254 0.6393754 -0.5173362
vn 0.1131579 0.7647976 -0.6342554
vn 0.1131579 0.7647976 -0.6342554
vn 0.1131579 0.7647976 -0.6342554
vn 0.1131579 0.7647976 -0.6342554
vn -0.9137365 0.4120477 0
vn -0.9137365 0.4120477 0
vn -0.9137365 0.4120477 0
vn -0.9137365 0.4120477 0
vn 0.316969 0.670731 -0.6705599
vn 0.316969 0.670731 -0.6705599
vn 0.316969 0.670731 -0.6705599
vn 0.316969 0.670731 -0.6705599
vn 0.951919 -0.02693015 0.3051638
vn 0.951919 -0.02693015 0.3051638
vn 0.951919 -0.02693015 0.3051638
vn 0.951919 -0.02693015 0.3051638
vn -0.882381 -0.003413439 -0.4705232
vn -0.882381 -0.003413439 -0.4705232
vn -0.882381 -0.003413439 -0.4705232
vn -0.882381 -0.003413439 -0.4705232
vn 0.7637857 -0.034769 0.6445329
vn 0.7637857 -0.034769 0.6445329
vn 0.7637857 -0.034769 0.6445329
vn 0.7637857 -0.034769 0.6445329
vn -0.2082366 -0.9048856 0.3712404
vn -0.2082366 -0.9048856 0.3712404
vn -0.2082366 -0.9048856 0.3712404
vn -0.2082366 -0.9048856 0.3712404
vn -0.2317533 -0.7637857 0.60243
vn -0.2317533 -0.7637857 0.60243
vn -0.2317533 -0.7637857 0.60243
vn -0.2317533 -0.7637857 0.60243
vn -0.9215754 0.1220089 -0.3685277
vn -0.9215754 0.1220089 -0.3685277
vn -0.9215754 0.1220089 -0.3685277
vn -0.9215754 0.1220089 -0.3685277
vn 0.9597579 0.2787866 -0.03380599
vn 0.9597579 0.2787866 -0.03380599
vn 0.9597579 0.2787866 -0.03380599
vn 0.9597579 0.2787866 -0.03380599
vn 0.9440801 0.3179811 -0.08718243
vn 0.9911134 0.07497543 0.1098766
vn 0.9911134 0.07497543 0.1098766
vn 0.9911134 0.07497543 0.1098766
vn 0.9911134 0.07497543 0.1098766
vn 0.07396346 0.9294143 -0.36155
vn 0.07396346 0.9294143 -0.36155
vn 0.07396346 0.9294143 -0.36155
vn -0.1612032 -0.9205635 0.3557758
vn -0.1612032 -0.9205635 0.3557758
vn -0.1612032 -0.9205635 0.3557758
vn -0.1847199 -0.9832746 0
vn -0.1847199 -0.9832746 0
vn -0.1847199 -0.9832746 0
vn -0.1847199 -0.9832746 0
vn -0.741281 0.670731 0.02494838
vn -0.741281 0.670731 0.02494838
vn -0.741281 0.670731 0.02494838
vn -0.741281 0.670731 0.02494838
vn -0.7491198 0.6315365 -0.1999528
vn -0.7491198 0.6315365 -0.1999528
vn -0.7491198 0.6315365 -0.1999528
vn -0.882381 0.4277255 -0.1960985
vn -0.882381 0.4277255 -0.1960985
vn -0.882381 0.4277255 -0.1960985
vn -0.882381 0.4277255 -0.1960985
vn 0.4737468 0.8510254 0.2265386
vn 0.4737468 0.8510254 0.2265386
vn 0.4737468 0.8510254 0.2265386
vn 0.4502301 -0.8500134 -0.2734411
vn 0.4502301 -0.8500134 -0.2734411
vn 0.4502301 -0.8500134 -0.2734411
vn -0.2317533 0.9764476 0
vn -0.2317533 0.9764476 0
vn -0.2317533 0.9764476 0
vn -0.8275087 -0.2777746 0.4879248
vn -0.8275087 -0.2777746 0.4879248
vn -0.8275087 -0.2777746 0.4879248
vn -0.8275087 -0.2777746 0.4879248
vn -0.1376866 0.9058977 -0.4004894
vn -0.1376866 0.9058977 -0.4004894
vn -0.1376866 0.9058977 -0.4004894
vn -0.1376866 0.9058977 -0.4004894
vn 0.9440801 -0.2856134 0.1647353
vn 0.9440801 -0.2856134 0.1647353
vn 0.9440801 -0.2856134 0.1647353
vn -0.7961532 -0.3248079 -0.510529
vn -0.7961532 -0.3248079 -0.510529
vn -0.7961532 -0.3248079 -0.510529
vn -0.7961532 -0.3248079 -0.510529
vn 0.7481079 -0.06612456 0.6602743
vn 0.7481079 -0.06612456 0.6602743
vn 0.7481079 -0.06612456 0.6602743
vn 0.7481079 -0.06612456 0.6602743
vn -0.7569588 -0.6540412 0
vn -0.7569588 -0.6540412 0
vn -0.7569588 -0.6540412 0
vn -0.882381 -0.4659079 -0.06582986
vn -0.882381 -0.4659079 -0.06582986
vn -0.882381 -0.4659079 -0.06582986
vn -0.882381 -0.4659079 -0.06582986
vn 0.8421745 0.5061143 -0.1859848
vn 0.8421745 0.5061143 -0.1859848
vn 0.8421745 0.5061143 -0.1859848
vn 0.8421745 0.5061143 -0.1859848
vn -0.388531 0.04361993 0.9204026
vn -0.388531 0.04361993 0.9204026
vn -0.388531 0.04361993 0.9204026
vn -0.388531 0.04361993 0.9204026
vn 0.4345523 -0.7167523 0.5453718
vn 0.4345523 -0.7167523 0.5453718
vn 0.4345523 -0.7167523 0.5453718
vn 0.4345523 -0.7167523 0.5453718
vn -0.9372532 -0.3404856 0.07500662
vn -0.9372532 -0.3404856 0.07500662
vn -0.9372532 -0.3404856 0.07500662
vn -0.9372532 -0.3404856 0.07500662
vn 0.2699357 -0.5129412 0.8148779
vn 0.2699357 -0.5129412 0.8148779
vn 0.2699357 -0.5129412 0.8148779
vn 0.2699357 -0.5129412 0.8148779
vn 0.4188746 -0.8500134 0.3194076
vn 0.4188746 -0.8500134 0.3194076
vn 0.4188746 -0.8500134 0.3194076
vn 0.4188746 -0.8500134 0.3194076
vn 0.7559468 0.6472144 -0.09827562
vn 0.7559468 0.6472144 -0.09827562
vn 0.7559468 0.6472144 -0.09827562
vn 0.7559468 0.6472144 -0.09827562
vn -0.5217921 0.6550532 -0.5464781
vn -0.5217921 0.6550532 -0.5464781
vn -0.5217921 0.6550532 -0.5464781
vn -0.5217921 0.6550532 -0.5464781
vn 0.7716246 0.6393754 0
vn 0.7716246 0.6393754 0
vn 0.7716246 0.6393754 0
vn 0.7716246 0.6393754 0
vn 0.528619 -0.810819 -0.2512658
vn 0.528619 -0.810819 -0.2512658
vn 0.528619 -0.810819 -0.2512658
vn 0.528619 -0.810819 -0.2512658
vn -0.9137365 -0.4031968 0.05017906
vn -0.9137365 -0.4031968 0.05017906
vn -0.9137365 -0.4031968 0.05017906
vn -0.741281 0.6315365 -0.2272974
vn -0.741281 0.6315365 -0.2272974
vn -0.741281 0.6315365 -0.2272974
vn -0.741281 0.6315365 -0.2272974
vn -0.1141699 0.9921255 -0.05150094
vn -0.1141699 0.9921255 -0.05150094
vn -0.1141699 0.9921255 -0.05150094
vn -0.7647976 -0.6226857 0.1653697
vn -0.7647976 -0.6226857 0.1653697
vn -0.7647976 -0.6226857 0.1653697
vn -0.3101421 0.945092 0.1030192
vn -0.3101421 0.945092 0.1030192
vn -0.3101421 0.945092 0.1030192
vn -0.3101421 0.945092 0.1030192
vn 0.6618801 0.6236977 -0.4158315
vn 0.6618801 0.6236977 -0.4158315
vn 0.6618801 0.6236977 -0.4158315
vn 0.8029801 -0.5913301 -0.0745093
vn 0.8029801 -0.5913301 -0.0745093
vn 0.8029801 -0.5913301 -0.0745093
vn -0.6393754 -0.6540412 0.4042637
vn -0.6393754 -0.6540412 0.4042637
vn -0.6393754 -0.6540412 0.4042637
vn -0.6393754 -0.6540412 0.4042637
vn 0.3953578 -0.8029801 -0.445999
vn 0.3953578 -0.8029801 -0.445999
vn 0.3953578 -0.8029801 -0.445999
vn 0.3953578 -0.8029801 -0.445999
vn 0.4188746 0.4512421 0.7879877
vn 0.4188746 0.4512421 0.7879877
vn 0.4188746 0.4512421 0.7879877
vn 0.1915468 -0.7324301 -0.6533422
vn 0.1915468 -0.7324301 -0.6533422
vn 0.1915468 -0.7324301 -0.6533422
vn 0.1915468 -0.7324301 -0.6533422
vn -0.459081 -0.6775579 -0.5745955
vn -0.459081 -0.6775579 -0.5745955
vn -0.459081 -0.6775579 -0.5745955
vn -0.459081 -0.6775579 -0.5745955
vn 0.8970468 -0.2150635 -0.3860761
vn 0.8970468 -0.2150635 -0.3860761
vn 0.8970468 -0.2150635 -0.3860761
vn 0.8970468 -0.2150635 -0.3860761
vn -0.3179811 -0.458069 -0.8300969
vn -0.3179811 -0.458069 -0.8300969
vn -0.3179811 -0.458069 -0.8300969
vn -0.3179811 -0.458069 -0.8300969
vn -0.6236977 0.7491198 0.2232056
vn -0.6236977 0.7491198 0.2232056
vn -0.6236977 0.7491198 0.2232056
vn -0.5217921 0.7961532 0.306387
vn -0.5217921 0.7961532 0.306387
vn -0.5217921 0.7961532 0.306387
vn -0.5217921 0.7961532 0.306387
vn 0.951919 -0.2385801 0.1921711
vn 0.951919 -0.2385801 0.1921711
vn 0.951919 -0.2385801 0.1921711
vn 0.951919 -0.2385801 0.1921711
vn 0.9989523 -0.08180237 0
vn 0.9989523 -0.08180237 0
vn 0.9989523 -0.08180237 0
vn -0.5061143 -0.8186579 -0.271381
vn -0.5061143 -0.8186579 -0.271381
vn -0.5061143 -0.8186579 -0.271381
vn 0.3718412 -0.6853968 -0.6260714
vn 0.3718412 -0.6853968 -0.6260714
vn 0.3718412 -0.6853968 -0.6260714
vn 0.2934523 -0.6775579 -0.6743894
vn 0.2934523 -0.6775579 -0.6743894
vn 0.2934523 -0.6775579 -0.6743894
vn 0.2934523 -0.6775579 -0.6743894
vn 0.4267134 -0.5207801 0.7393942
vn 0.4267134 -0.5207801 0.7393942
vn 0.4267134 -0.5207801 0.7393942
vn 0.4267134 -0.5207801 0.7393942
g Acacia_Tree_NoLeaves_l_01_0
f 3/3/3 2/2/2 1/1/1
f 4/4/4 3/3/3 1/1/1
f 7/7/7 6/6/6 5/5/5
f 8/8/8 7/7/7 5/5/5
f 11/11/11 10/10/10 9/9/9
f 12/12/12 11/11/11 9/9/9
f 15/15/15 14/14/14 13/13/13
f 16/16/16 15/15/15 13/13/13
f 16/16/16 18/18/18 17/17/17
f 21/21/21 20/20/20 19/19/19
f 22/22/22 21/21/21 19/19/19
f 25/25/25 24/24/24 23/23/23
f 26/26/26 25/25/25 23/23/23
f 29/29/29 28/28/28 27/27/27
f 30/30/30 29/29/29 27/27/27
f 33/33/33 32/32/32 31/31/31
f 34/34/34 33/33/33 31/31/31
f 37/37/37 36/36/36 35/35/35
f 38/38/38 37/37/37 35/35/35
f 41/41/41 40/40/40 39/39/39
f 42/42/42 41/41/41 39/39/39
f 45/45/45 44/44/44 43/43/43
f 46/46/46 45/45/45 43/43/43
f 49/49/49 48/48/48 47/47/47
f 50/50/50 49/49/49 47/47/47
f 53/53/53 52/52/52 51/51/51
f 54/54/54 53/53/53 51/51/51
f 57/57/57 56/56/56 55/55/55
f 58/58/58 57/57/57 55/55/55
f 61/61/61 60/60/60 59/59/59
f 62/62/62 61/61/61 59/59/59
f 65/65/65 64/64/64 63/63/63
f 66/66/66 65/65/65 63/63/63
f 69/69/69 68/68/68 67/67/67
f 70/70/70 69/69/69 67/67/67
f 73/73/73 72/72/72 71/71/71
f 74/74/74 73/73/73 71/71/71
f 77/77/77 76/76/76 75/75/75
f 78/78/78 77/77/77 75/75/75
f 81/81/81 80/80/80 79/79/79
f 82/82/82 81/81/81 79/79/79
f 85/85/85 84/84/84 83/83/83
f 86/86/86 85/85/85 83/83/83
f 89/89/89 88/88/88 87/87/87
f 90/90/90 89/89/89 87/87/87
f 93/93/93 92/92/92 91/91/91
f 94/94/94 93/93/93 91/91/91
f 97/97/97 96/96/96 95/95/95
f 98/98/98 97/97/97 95/95/95
f 101/101/101 100/100/100 99/99/99
f 102/102/102 101/101/101 99/99/99
f 105/105/105 104/104/104 103/103/103
f 106/106/106 105/105/105 103/103/103
f 109/109/109 108/108/108 107/107/107
f 110/110/110 109/109/109 107/107/107
f 113/113/113 112/112/112 111/111/111
f 114/114/114 113/113/113 111/111/111
f 117/117/117 116/116/116 115/115/115
f 118/118/118 117/117/117 115/115/115
f 121/121/121 120/120/120 119/119/119
f 122/122/122 121/121/121 119/119/119
f 125/125/125 124/124/124 123/123/123
f 126/126/126 125/125/125 123/123/123
f 129/129/129 128/128/128 127/127/127
f 132/132/132 131/131/131 130/130/130
f 133/133/133 132/132/132 130/130/130
f 136/136/136 135/135/135 134/134/134
f 137/137/137 136/136/136 134/134/134
f 140/140/140 139/139/139 138/138/138
f 141/141/141 140/140/140 138/138/138
f 144/144/144 143/143/143 142/142/142
f 145/145/145 144/144/144 142/142/142
f 148/148/148 147/147/147 146/146/146
f 149/149/149 148/148/148 146/146/146
f 152/152/152 151/151/151 150/150/150
f 153/153/153 152/152/152 150/150/150
f 156/156/156 155/155/155 154/154/154
f 159/159/159 158/158/158 157/157/157
f 160/160/160 159/159/159 157/157/157
f 163/163/163 162/162/162 161/161/161
f 166/166/166 165/165/165 164/164/164
f 169/169/169 168/168/168 167/167/167
f 170/170/170 169/169/169 167/167/167
f 173/173/173 172/172/172 171/171/171
f 174/174/174 173/173/173 171/171/171
f 177/177/177 176/176/176 175/175/175
f 178/178/178 177/177/177 175/175/175
f 181/181/181 180/180/180 179/179/179
f 182/182/182 181/181/181 179/179/179
f 185/185/185 184/184/184 183/183/183
f 186/186/186 185/185/185 183/183/183
f 189/189/189 188/188/188 187/187/187
f 190/190/190 189/189/189 187/187/187
f 193/193/193 192/192/192 191/191/191
f 194/194/194 193/193/193 191/191/191
f 197/197/197 196/196/196 195/195/195
f 198/198/198 197/197/197 195/195/195
f 201/201/201 200/200/200 199/199/199
f 202/202/202 201/201/201 199/199/199
f 205/205/205 204/204/204 203/203/203
f 206/206/206 205/205/205 203/203/203
f 209/209/209 208/208/208 207/207/207
f 210/210/210 209/209/209 207/207/207
f 213/213/213 212/212/212 211/211/211
f 214/214/214 213/213/213 211/211/211
f 217/217/217 216/216/216 215/215/215
f 218/218/218 217/217/217 215/215/215
f 221/221/221 220/220/220 219/219/219
f 222/222/222 221/221/221 219/219/219
f 225/225/225 224/224/224 223/223/223
f 226/226/226 225/225/225 223/223/223
f 229/229/229 228/228/228 227/227/227
f 230/230/230 229/229/229 227/227/227
f 233/233/233 232/232/232 231/231/231
f 236/236/236 235/235/235 234/234/234
f 237/237/237 236/236/236 234/234/234
f 240/240/240 239/239/239 238/238/238
f 241/241/241 240/240/240 238/238/238
f 244/244/244 243/243/243 242/242/242
f 245/245/245 244/244/244 242/242/242
f 248/248/248 247/247/247 246/246/246
f 251/251/251 250/250/250 249/249/249
f 252/252/252 251/251/251 249/249/249
f 255/255/255 254/254/254 253/253/253
f 256/256/256 255/255/255 253/253/253
f 259/259/259 258/258/258 257/257/257
f 262/262/262 261/261/261 260/260/260
f 263/263/263 262/262/262 260/260/260
f 266/266/266 265/265/265 264/264/264
f 267/267/267 266/266/266 264/264/264
f 270/270/270 269/269/269 268/268/268
f 271/271/271 270/270/270 268/268/268
f 274/274/274 273/273/273 272/272/272
f 277/277/277 276/276/276 275/275/275
f 278/278/278 277/277/277 275/275/275
f 281/281/281 280/280/280 279/279/279
f 282/282/282 281/281/281 279/279/279
f 285/285/285 284/284/284 283/283/283
f 288/288/288 287/287/287 286/286/286
f 289/289/289 288/288/288 286/286/286
f 292/292/292 291/291/291 290/290/290
f 293/293/293 292/292/292 290/290/290
f 296/296/296 295/295/295 294/294/294
f 297/297/297 296/296/296 294/294/294
f 300/300/300 299/299/299 298/298/298
f 301/301/301 300/300/300 298/298/298
f 304/304/304 303/303/303 302/302/302
f 305/305/305 304/304/304 302/302/302
f 308/308/308 307/307/307 306/306/306
f 309/309/309 308/308/308 306/306/306
f 312/312/312 311/311/311 310/310/310
f 313/313/313 312/312/312 310/310/310
f 316/316/316 315/315/315 314/314/314
f 317/317/317 316/316/316 314/314/314
f 320/320/320 319/319/319 318/318/318
f 321/321/321 320/320/320 318/318/318
f 324/324/324 323/323/323 322/322/322
f 325/325/325 324/324/324 322/322/322
f 328/328/328 327/327/327 326/326/326
f 329/329/329 328/328/328 326/326/326
f 332/332/332 331/331/331 330/330/330
f 333/333/333 332/332/332 330/330/330
f 336/336/336 335/335/335 334/334/334
f 337/337/337 336/336/336 334/334/334
f 340/340/340 339/339/339 338/338/338
f 341/341/341 340/340/340 338/338/338
f 344/344/344 343/343/343 342/342/342
f 345/345/345 344/344/344 342/342/342
f 348/348/348 347/347/347 346/346/346
f 349/349/349 348/348/348 346/346/346
f 352/352/352 351/351/351 350/350/350
f 353/353/353 352/352/352 350/350/350
f 356/356/356 355/355/355 354/354/354
f 357/357/357 356/356/356 354/354/354
f 360/360/360 359/359/359 358/358/358
f 361/361/361 360/360/360 358/358/358
f 364/364/364 363/363/363 362/362/362
f 365/365/365 364/364/364 362/362/362
f 368/368/368 367/367/367 366/366/366
f 371/371/371 370/370/370 369/369/369
f 374/374/374 373/373/373 372/372/372
f 375/375/375 374/374/374 372/372/372
f 378/378/378 377/377/377 376/376/376
f 379/379/379 378/378/378 376/376/376
f 382/382/382 381/381/381 380/380/380
f 383/383/383 382/382/382 380/380/380
f 386/386/386 385/385/385 384/384/384
f 387/387/387 386/386/386 384/384/384
f 390/390/390 389/389/389 388/388/388
f 391/391/391 390/390/390 388/388/388
f 394/394/394 393/393/393 392/392/392
f 397/397/397 396/396/396 395/395/395
f 400/400/400 399/399/399 398/398/398
f 403/403/403 402/402/402 401/401/401
f 406/406/406 405/405/405 404/404/404
f 407/407/407 406/406/406 404/404/404
f 410/410/410 409/409/409 408/408/408
f 411/411/411 410/410/410 408/408/408
f 414/414/414 413/413/413 412/412/412
f 415/415/415 414/414/414 412/412/412
f 418/418/418 417/417/417 416/416/416
f 421/421/421 420/420/420 419/419/419
f 424/424/424 423/423/423 422/422/422
f 425/425/425 424/424/424 422/422/422
f 428/428/428 427/427/427 426/426/426
f 429/429/429 428/428/428 426/426/426
f 432/432/432 431/431/431 430/430/430
f 433/433/433 432/432/432 430/430/430
f 436/436/436 435/435/435 434/434/434
f 439/439/439 438/438/438 437/437/437
f 440/440/440 439/439/439 437/437/437
f 443/443/443 442/442/442 441/441/441
f 444/444/444 443/443/443 441/441/441
f 447/447/447 446/446/446 445/445/445
f 450/450/450 449/449/449 448/448/448
f 453/453/453 452/452/452 451/451/451
f 456/456/456 455/455/455 454/454/454
f 459/459/459 458/458/458 457/457/457
f 460/460/460 459/459/459 457/457/457
f 463/463/463 462/462/462 461/461/461
f 464/464/464 463/463/463 461/461/461
f 467/467/467 466/466/466 465/465/465
f 470/470/470 469/469/469 468/468/468
f 471/471/471 470/470/470 468/468/468
f 474/474/474 473/473/473 472/472/472
f 477/477/477 476/476/476 475/475/475
f 480/480/480 479/479/479 478/478/478
f 483/483/483 482/482/482 481/481/481
f 484/484/484 483/483/483 481/481/481
f 487/487/487 486/486/486 485/485/485
f 488/488/488 487/487/487 485/485/485
f 491/491/491 490/490/490 489/489/489
f 492/492/492 491/491/491 489/489/489
f 495/495/495 494/494/494 493/493/493
f 496/496/496 495/495/495 493/493/493
f 499/499/499 498/498/498 497/497/497
f 500/500/500 499/499/499 497/497/497
f 503/503/503 502/502/502 501/501/501
f 504/504/504 503/503/503 501/501/501
f 507/507/507 506/506/506 505/505/505
f 508/508/508 507/507/507 505/505/505
f 511/511/511 510/510/510 509/509/509
f 512/512/512 511/511/511 509/509/509
f 515/515/515 514/514/514 513/513/513
f 516/516/516 515/515/515 513/513/513
f 519/519/519 518/518/518 517/517/517
f 520/520/520 519/519/519 517/517/517
f 521/521/521 518/518/518 519/519/519
f 524/524/524 523/523/523 522/522/522
f 525/525/525 524/524/524 522/522/522
f 528/528/528 527/527/527 526/526/526
f 531/531/531 530/530/530 529/529/529
f 534/534/534 533/533/533 532/532/532
f 535/535/535 534/534/534 532/532/532
f 538/538/538 537/537/537 536/536/536
f 539/539/539 538/538/538 536/536/536
f 542/542/542 541/541/541 540/540/540
f 545/545/545 544/544/544 543/543/543
f 546/546/546 545/545/545 543/543/543
f 549/549/549 548/548/548 547/547/547
f 552/552/552 551/551/551 550/550/550
f 555/555/555 554/554/554 553/553/553
f 558/558/558 557/557/557 556/556/556
f 559/559/559 558/558/558 556/556/556
f 562/562/562 561/561/561 560/560/560
f 563/563/563 562/562/562 560/560/560
f 566/566/566 565/565/565 564/564/564
f 569/569/569 568/568/568 567/567/567
f 570/570/570 569/569/569 567/567/567
f 573/573/573 572/572/572 571/571/571
f 574/574/574 573/573/573 571/571/571
f 577/577/577 576/576/576 575/575/575
f 580/580/580 579/579/579 578/578/578
f 581/581/581 580/580/580 578/578/578
f 584/584/584 583/583/583 582/582/582
f 585/585/585 584/584/584 582/582/582
f 588/588/588 587/587/587 586/586/586
f 589/589/589 588/588/588 586/586/586
f 592/592/592 591/591/591 590/590/590
f 593/593/593 592/592/592 590/590/590
f 596/596/596 595/595/595 594/594/594
f 597/597/597 596/596/596 594/594/594
f 600/600/600 599/599/599 598/598/598
f 601/601/601 600/600/600 598/598/598
f 604/604/604 603/603/603 602/602/602
f 605/605/605 604/604/604 602/602/602
f 608/608/608 607/607/607 606/606/606
f 609/609/609 608/608/608 606/606/606
f 612/612/612 611/611/611 610/610/610
f 613/613/613 612/612/612 610/610/610
f 616/616/616 615/615/615 614/614/614
f 617/617/617 616/616/616 614/614/614
f 620/620/620 619/619/619 618/618/618
f 621/621/621 620/620/620 618/618/618
f 624/624/624 623/623/623 622/622/622
f 627/627/627 626/626/626 625/625/625
f 628/628/628 627/627/627 625/625/625
f 631/631/631 630/630/630 629/629/629
f 634/634/634 633/633/633 632/632/632
f 637/637/637 636/636/636 635/635/635
f 638/638/638 637/637/637 635/635/635
f 641/641/641 640/640/640 639/639/639
f 644/644/644 643/643/643 642/642/642
f 647/647/647 646/646/646 645/645/645
f 648/648/648 647/647/647 645/645/645
f 651/651/651 650/650/650 649/649/649
f 652/652/652 651/651/651 649/649/649
f 655/655/655 654/654/654 653/653/653
f 658/658/658 657/657/657 656/656/656
f 659/659/659 658/658/658 656/656/656
f 662/662/662 661/661/661 660/660/660
f 663/663/663 662/662/662 660/660/660
f 666/666/666 665/665/665 664/664/664
f 667/667/667 666/666/666 664/664/664
f 670/670/670 669/669/669 668/668/668
f 671/671/671 670/670/670 668/668/668
f 674/674/674 673/673/673 672/672/672
f 677/677/677 676/676/676 675/675/675
f 678/678/678 677/677/677 675/675/675
f 681/681/681 680/680/680 679/679/679
f 682/682/682 681/681/681 679/679/679
f 685/685/685 684/684/684 683/683/683
f 688/688/688 687/687/687 686/686/686
f 691/691/691 690/690/690 689/689/689
f 694/694/694 693/693/693 692/692/692
f 695/695/695 694/694/694 692/692/692
f 698/698/698 697/697/697 696/696/696
f 699/699/699 698/698/698 696/696/696
