g arch_01
v -5.500048 -1.499879 9.66202
v 5.499949 -1.499879 9.66202
v 5.499949 1.499978 9.66202
v -5.500048 1.499978 9.66202
v -5.500048 -1.499879 12.66188
v -5.500048 1.499978 12.66188
v 5.499949 1.499978 12.66188
v 5.499949 -1.499879 12.66188
v -5.500048 -1.499879 9.66202
v -5.500048 -1.499879 12.66188
v 5.499949 -1.499879 12.66188
v 5.499949 -1.499879 9.66202
v 5.499949 -1.499879 9.66202
v 5.499949 -1.499879 12.66188
v 5.499949 1.499978 12.66188
v 5.499949 1.499978 9.66202
v 5.499949 1.499978 9.66202
v 5.499949 1.499978 12.66188
v -5.500048 1.499978 12.66188
v -5.500048 1.499978 9.66202
v -5.500048 1.499978 9.66202
v -5.500048 1.499978 12.66188
v -5.500048 -1.499879 12.66188
v -5.500048 -1.499879 9.66202
v 4.70873 -1.284658 11.84964
v 3.658313 -1.284658 11.84964
v 3.658313 -1.784764 11.98352
v 4.70873 -1.784764 11.98352
v 4.70873 -1.784764 11.98352
v 3.658313 -1.784764 11.98352
v 3.658313 -2.150601 12.34975
v 4.70873 -2.150601 12.34975
v 4.70873 -2.150601 12.34975
v 3.658313 -2.150601 12.34975
v 3.658313 -2.28487 12.84946
v 4.70873 -2.28487 12.84946
v 4.70873 -2.150601 12.34975
v 4.70873 -2.28487 12.84946
v 4.70873 -1.284658 12.86776
v 4.70873 -1.784764 11.98352
v 4.70873 -1.284658 11.84964
v 3.658313 -1.284658 12.86776
v 3.658313 -2.28487 12.84946
v 3.658313 -2.150601 12.34975
v 3.658313 -1.784764 11.98352
v 3.658313 -1.284658 11.84964
v 2.58182 -1.284658 11.84964
v 1.531403 -1.284658 11.84964
v 1.531403 -1.784764 11.98352
v 2.58182 -1.784764 11.98352
v 2.58182 -1.784764 11.98352
v 1.531403 -1.784764 11.98352
v 1.531403 -2.150601 12.34975
v 2.58182 -2.150601 12.34975
v 2.58182 -2.150601 12.34975
v 1.531403 -2.150601 12.34975
v 1.531403 -2.28487 12.84946
v 2.58182 -2.28487 12.84946
v 2.58182 -2.150601 12.34975
v 2.58182 -2.28487 12.84946
v 2.58182 -1.284658 12.86776
v 2.58182 -1.784764 11.98352
v 2.58182 -1.284658 11.84964
v 1.531403 -1.284658 12.86776
v 1.531403 -2.28487 12.84946
v 1.531403 -2.150601 12.34975
v 1.531403 -1.784764 11.98352
v 1.531403 -1.284658 11.84964
v 0.4549112 -1.284658 11.84964
v -0.5955067 -1.284658 11.84964
v -0.5955067 -1.784764 11.98352
v 0.4549112 -1.784764 11.98352
v 0.4549112 -1.784764 11.98352
v -0.5955067 -1.784764 11.98352
v -0.5955067 -2.150601 12.34975
v 0.4549112 -2.150601 12.34975
v 0.4549112 -2.150601 12.34975
v -0.5955067 -2.150601 12.34975
v -0.5955067 -2.28487 12.84946
v 0.4549112 -2.28487 12.84946
v 0.4549112 -2.150601 12.34975
v 0.4549112 -2.28487 12.84946
v 0.4549112 -1.284658 12.86776
v 0.4549112 -1.784764 11.98352
v 0.4549112 -1.284658 11.84964
v -0.5955067 -1.284658 12.86776
v -0.5955067 -2.28487 12.84946
v -0.5955067 -2.150601 12.34975
v -0.5955067 -1.784764 11.98352
v -0.5955067 -1.284658 11.84964
v -1.671999 -1.284658 11.84964
v -2.722805 -1.284658 11.84964
v -2.722805 -1.784764 11.98352
v -1.671999 -1.784764 11.98352
v -1.671999 -1.784764 11.98352
v -2.722805 -1.784764 11.98352
v -2.722805 -2.150601 12.34975
v -1.671999 -2.150601 12.34975
v -1.671999 -2.150601 12.34975
v -2.722805 -2.150601 12.34975
v -2.722805 -2.28487 12.84946
v -1.671999 -2.28487 12.84946
v -1.671999 -2.150601 12.34975
v -1.671999 -2.28487 12.84946
v -1.671999 -1.284658 12.86776
v -1.671999 -1.784764 11.98352
v -1.671999 -1.284658 11.84964
v -2.722805 -1.284658 12.86776
v -2.722805 -2.28487 12.84946
v -2.722805 -2.150601 12.34975
v -2.722805 -1.784764 11.98352
v -2.722805 -1.284658 11.84964
v -3.798909 -1.284658 11.84964
v -4.849714 -1.284658 11.84964
v -4.849714 -1.784764 11.98352
v -3.798909 -1.784764 11.98352
v -3.798909 -1.784764 11.98352
v -4.849714 -1.784764 11.98352
v -4.849714 -2.150601 12.34975
v -3.798909 -2.150601 12.34975
v -3.798909 -2.150601 12.34975
v -4.849714 -2.150601 12.34975
v -4.849714 -2.28487 12.84946
v -3.798909 -2.28487 12.84946
v -3.798909 -2.150601 12.34975
v -3.798909 -2.28487 12.84946
v -3.798909 -1.284658 12.86776
v -3.798909 -1.784764 11.98352
v -3.798909 -1.284658 11.84964
v -4.849714 -1.284658 12.86776
v -4.849714 -2.28487 12.84946
v -4.849714 -2.150601 12.34975
v -4.849714 -1.784764 11.98352
v -4.849714 -1.284658 11.84964
v 4.70873 1.284758 11.84964
v 4.70873 1.784863 11.98352
v 3.658313 1.784863 11.98352
v 3.658313 1.284758 11.84964
v 4.70873 1.784863 11.98352
v 4.70873 2.150701 12.34975
v 3.658313 2.150701 12.34975
v 3.658313 1.784863 11.98352
v 4.70873 2.150701 12.34975
v 4.70873 2.28458 12.84946
v 3.658313 2.28458 12.84946
v 3.658313 2.150701 12.34975
v 4.70873 1.784863 11.98352
v 4.70873 1.284758 11.84964
v 4.70873 1.284758 12.86776
v 4.70873 2.28458 12.84946
v 4.70873 2.150701 12.34975
v 3.658313 2.28458 12.84946
v 3.658313 1.284758 12.86776
v 3.658313 1.284758 11.84964
v 3.658313 1.784863 11.98352
v 3.658313 2.150701 12.34975
v 2.58182 1.284758 11.84964
v 2.58182 1.784863 11.98352
v 1.531403 1.784863 11.98352
v 1.531403 1.284758 11.84964
v 2.58182 1.784863 11.98352
v 2.58182 2.150701 12.34975
v 1.531403 2.150701 12.34975
v 1.531403 1.784863 11.98352
v 2.58182 2.150701 12.34975
v 2.58182 2.28458 12.84946
v 1.531403 2.28458 12.84946
v 1.531403 2.150701 12.34975
v 2.58182 1.784863 11.98352
v 2.58182 1.284758 11.84964
v 2.58182 1.284758 12.86776
v 2.58182 2.28458 12.84946
v 2.58182 2.150701 12.34975
v 1.531403 2.28458 12.84946
v 1.531403 1.284758 12.86776
v 1.531403 1.284758 11.84964
v 1.531403 1.784863 11.98352
v 1.531403 2.150701 12.34975
v 0.4549112 1.284758 11.84964
v 0.4549112 1.784863 11.98352
v -0.5955067 1.784863 11.98352
v -0.5955067 1.284758 11.84964
v 0.4549112 1.784863 11.98352
v 0.4549112 2.150701 12.34975
v -0.5955067 2.150701 12.34975
v -0.5955067 1.784863 11.98352
v 0.4549112 2.150701 12.34975
v 0.4549112 2.28458 12.84946
v -0.5955067 2.28458 12.84946
v -0.5955067 2.150701 12.34975
v 0.4549112 1.784863 11.98352
v 0.4549112 1.284758 11.84964
v 0.4549112 1.284758 12.86776
v 0.4549112 2.28458 12.84946
v 0.4549112 2.150701 12.34975
v -0.5955067 2.28458 12.84946
v -0.5955067 1.284758 12.86776
v -0.5955067 1.284758 11.84964
v -0.5955067 1.784863 11.98352
v -0.5955067 2.150701 12.34975
v -1.671999 1.284758 11.84964
v -1.671999 1.784863 11.98352
v -2.722805 1.784863 11.98352
v -2.722805 1.284758 11.84964
v -1.671999 1.784863 11.98352
v -1.671999 2.150701 12.34975
v -2.722805 2.150701 12.34975
v -2.722805 1.784863 11.98352
v -1.671999 2.150701 12.34975
v -1.671999 2.28458 12.84946
v -2.722805 2.28458 12.84946
v -2.722805 2.150701 12.34975
v -1.671999 1.784863 11.98352
v -1.671999 1.284758 11.84964
v -1.671999 1.284758 12.86776
v -1.671999 2.28458 12.84946
v -1.671999 2.150701 12.34975
v -2.722805 2.28458 12.84946
v -2.722805 1.284758 12.86776
v -2.722805 1.284758 11.84964
v -2.722805 1.784863 11.98352
v -2.722805 2.150701 12.34975
v -3.798909 1.284758 11.84964
v -3.798909 1.784863 11.98352
v -4.849714 1.784863 11.98352
v -4.849714 1.284758 11.84964
v -3.798909 1.784863 11.98352
v -3.798909 2.150701 12.34975
v -4.849714 2.150701 12.34975
v -4.849714 1.784863 11.98352
v -3.798909 2.150701 12.34975
v -3.798909 2.28458 12.84946
v -4.849714 2.28458 12.84946
v -4.849714 2.150701 12.34975
v -3.798909 1.784863 11.98352
v -3.798909 1.284758 11.84964
v -3.798909 1.284758 12.86776
v -3.798909 2.28458 12.84946
v -3.798909 2.150701 12.34975
v -4.849714 2.28458 12.84946
v -4.849714 1.284758 12.86776
v -4.849714 1.284758 11.84964
v -4.849714 1.784863 11.98352
v -4.849714 2.150701 12.34975
v -2.837226 1.705469 11.93059
v -2.837226 2.04056 11.87183
v 2.837127 2.04056 11.87183
v 2.837127 1.705469 11.93059
v 2.837127 1.436541 10.40653
v 2.837127 1.705469 11.93059
v 2.837127 2.04056 11.87183
v 2.837127 1.77202 10.34738
v 2.837127 1.77202 10.34738
v 2.837127 2.04056 11.87183
v -2.837226 2.04056 11.87183
v -2.837226 1.77202 10.34738
v -2.837226 1.77202 10.34738
v -2.837226 2.04056 11.87183
v -2.837226 1.705469 11.93059
v -2.837226 1.436541 10.40653
v -2.837226 -1.70537 11.93059
v 2.837127 -1.70537 11.93059
v 2.837127 -2.04085 11.87183
v -2.837226 -2.04085 11.87183
v 2.837127 -1.436831 10.40653
v 2.837127 -1.771921 10.34738
v 2.837127 -2.04085 11.87183
v 2.837127 -1.70537 11.93059
v 2.837127 -1.771921 10.34738
v -2.837226 -1.771921 10.34738
v -2.837226 -2.04085 11.87183
v 2.837127 -2.04085 11.87183
v -2.837226 -1.771921 10.34738
v -2.837226 -1.436831 10.40653
v -2.837226 -1.70537 11.93059
v -2.837226 -2.04085 11.87183
v -6.717815 1.178899 9.803293
v -7.00309 1.178899 9.803293
v -7.00309 -1.178799 9.803293
v -6.717815 -1.178799 9.803293
v -6.834182 -1.178799 12.2038
v -6.834182 1.178899 12.2038
v -5.454512 1.178899 12.2038
v -5.454512 -1.178799 12.2038
v -7.538221 -1.178799 11.28571
v -7.538221 -1.178799 10.82647
v -7.538221 1.178899 10.82647
v -7.538221 1.178899 11.28571
v -5.772868 1.178899 9.528137
v -6.102899 1.178899 9.611423
v -6.102899 -1.178799 9.611423
v -5.772868 -1.178799 9.528137
v -5.454512 1.178899 9.685369
v -5.772868 1.178899 9.528137
v -5.772868 -1.178799 9.528137
v -5.454512 -1.178799 9.685369
v -6.421643 -1.178799 9.907986
v -6.102899 -1.178799 9.611423
v -6.102899 1.178899 9.611423
v -6.421643 1.178899 9.907986
v -6.421643 1.178899 9.907986
v -6.717815 1.178899 9.803293
v -6.717815 -1.178799 9.803293
v -6.421643 -1.178799 9.907986
v -7.278635 -1.178799 10.0154
v -7.00309 -1.178799 9.803293
v -7.00309 1.178899 9.803293
v -7.278635 1.178899 10.0154
v -7.183674 1.178899 12.0384
v -6.834182 1.178899 12.2038
v -6.834182 -1.178799 12.2038
v -7.183674 -1.178799 12.0384
v -7.183674 -1.178799 12.0384
v -7.431196 -1.178799 11.74456
v -7.431196 1.178899 11.74456
v -7.183674 1.178899 12.0384
v -7.431196 -1.178799 11.74456
v -7.538221 -1.178799 11.28571
v -7.538221 1.178899 11.28571
v -7.431196 1.178899 11.74456
v -7.278635 1.178899 10.0154
v -7.476341 1.178899 10.36723
v -7.476341 -1.178799 10.36723
v -7.278635 -1.178799 10.0154
v -7.476341 1.178899 10.36723
v -7.538221 1.178899 10.82647
v -7.538221 -1.178799 10.82647
v -7.476341 -1.178799 10.36723
v -6.834182 1.178899 12.2038
v -7.183674 1.178899 12.0384
v -6.717815 1.178899 9.803293
v -6.421643 1.178899 9.907986
v -7.431196 1.178899 11.74456
v -5.454512 -1.178799 12.2038
v -5.454512 -1.178799 9.685369
v -5.772868 -1.178799 9.528137
v -5.454512 1.178899 12.2038
v -5.772868 1.178899 9.528137
v -5.454512 1.178899 9.685369
v -6.102899 1.178899 9.611423
v -6.421643 1.178899 9.907986
v -6.834182 1.178899 12.2038
v -6.421643 1.178899 9.907986
v -5.454512 1.178899 12.2038
v -6.717815 1.178899 9.803293
v -7.278635 1.178899 10.0154
v -7.00309 1.178899 9.803293
v -7.538221 1.178899 10.82647
v -7.476341 1.178899 10.36723
v -6.717815 1.178899 9.803293
v -7.538221 1.178899 10.82647
v -7.278635 1.178899 10.0154
v -7.538221 1.178899 10.82647
v -7.431196 1.178899 11.74456
v -7.538221 1.178899 11.28571
v -6.717815 1.178899 9.803293
v -5.454512 -1.178799 12.2038
v -7.183674 -1.178799 12.0384
v -6.834182 -1.178799 12.2038
v -7.538221 -1.178799 11.28571
v -7.431196 -1.178799 11.74456
v -7.476341 -1.178799 10.36723
v -7.538221 -1.178799 10.82647
v -7.476341 -1.178799 10.36723
v -7.00309 -1.178799 9.803293
v -7.278635 -1.178799 10.0154
v -7.00309 -1.178799 9.803293
v -6.421643 -1.178799 9.907986
v -6.717815 -1.178799 9.803293
v -7.476341 -1.178799 10.36723
v -7.183674 -1.178799 12.0384
v -5.454512 -1.178799 12.2038
v -6.421643 -1.178799 9.907986
v -7.183674 -1.178799 12.0384
v -5.772868 -1.178799 9.528137
v -6.102899 -1.178799 9.611423
v 6.718105 1.178899 9.803293
v 6.718105 -1.178799 9.803293
v 7.00338 -1.178799 9.803293
v 7.00338 1.178899 9.803293
v 6.834083 -1.178799 12.2038
v 5.454413 -1.178799 12.2038
v 5.454413 1.178899 12.2038
v 6.834083 1.178899 12.2038
v 7.538512 -1.178799 11.28571
v 7.538512 1.178899 11.28571
v 7.538512 1.178899 10.82647
v 7.538512 -1.178799 10.82647
v 5.773158 1.178899 9.528137
v 5.773158 -1.178799 9.528137
v 6.1028 -1.178799 9.611423
v 6.1028 1.178899 9.611423
v 5.454413 1.178899 9.685369
v 5.454413 -1.178799 9.685369
v 5.773158 -1.178799 9.528137
v 5.773158 1.178899 9.528137
v 6.421544 -1.178799 9.907986
v 6.421544 1.178899 9.907986
v 6.1028 1.178899 9.611423
v 6.1028 -1.178799 9.611423
v 6.421544 1.178899 9.907986
v 6.421544 -1.178799 9.907986
v 6.718105 -1.178799 9.803293
v 6.718105 1.178899 9.803293
v 7.278535 -1.178799 10.0154
v 7.278535 1.178899 10.0154
v 7.00338 1.178899 9.803293
v 7.00338 -1.178799 9.803293
v 7.183573 1.178899 12.0384
v 7.183573 -1.178799 12.0384
v 6.834083 -1.178799 12.2038
v 6.834083 1.178899 12.2038
v 7.183573 -1.178799 12.0384
v 7.183573 1.178899 12.0384
v 7.431097 1.178899 11.74456
v 7.431097 -1.178799 11.74456
v 7.431097 -1.178799 11.74456
v 7.431097 1.178899 11.74456
v 7.538512 1.178899 11.28571
v 7.538512 -1.178799 11.28571
v 7.278535 1.178899 10.0154
v 7.278535 -1.178799 10.0154
v 7.476243 -1.178799 10.36723
v 7.476243 1.178899 10.36723
v 7.476243 1.178899 10.36723
v 7.476243 -1.178799 10.36723
v 7.538512 -1.178799 10.82647
v 7.538512 1.178899 10.82647
v 6.834083 1.178899 12.2038
v 6.718105 1.178899 9.803293
v 7.183573 1.178899 12.0384
v 6.421544 1.178899 9.907986
v 7.431097 1.178899 11.74456
v 5.454413 -1.178799 12.2038
v 5.773158 -1.178799 9.528137
v 5.454413 -1.178799 9.685369
v 5.454413 1.178899 12.2038
v 5.454413 1.178899 9.685369
v 5.773158 1.178899 9.528137
v 6.1028 1.178899 9.611423
v 6.421544 1.178899 9.907986
v 6.834083 1.178899 12.2038
v 5.454413 1.178899 12.2038
v 6.421544 1.178899 9.907986
v 6.718105 1.178899 9.803293
v 7.00338 1.178899 9.803293
v 7.278535 1.178899 10.0154
v 7.476243 1.178899 10.36723
v 7.538512 1.178899 10.82647
v 6.718105 1.178899 9.803293
v 7.278535 1.178899 10.0154
v 7.538512 1.178899 10.82647
v 7.431097 1.178899 11.74456
v 7.538512 1.178899 11.28571
v 5.454413 -1.178799 12.2038
v 6.834083 -1.178799 12.2038
v 7.183573 -1.178799 12.0384
v 6.421544 -1.178799 9.907986
v 5.773158 -1.178799 9.528137
v 6.1028 -1.178799 9.611423
v 7.183573 -1.178799 12.0384
v 7.431097 -1.178799 11.74456
v 7.538512 -1.178799 11.28571
v 7.476243 -1.178799 10.36723
v 7.538512 -1.178799 10.82647
v 7.476243 -1.178799 10.36723
v 7.278535 -1.178799 10.0154
v 7.00338 -1.178799 9.803293
v 7.00338 -1.178799 9.803293
v 6.718105 -1.178799 9.803293
v 6.421544 -1.178799 9.907986
v 7.476243 -1.178799 10.36723
v 7.183573 -1.178799 12.0384
v 7.476243 -1.178799 10.36723
v 6.421544 -1.178799 9.907986
v -7.886156 -1.574992 12.24272
v 7.886057 -1.574992 12.24272
v 7.886057 1.575091 12.24272
v -7.886156 1.575091 12.24272
v -4.81391 -1.031686 16.56971
v -4.81391 1.031786 16.56971
v 4.813811 1.031786 16.56971
v 4.813811 -1.031686 16.56971
v 8.935696 -2.52928 13.02577
v -8.935795 -2.52928 13.02577
v -6.734939 -1.715878 14.19644
v 6.73484 -1.715878 14.19644
v 8.935696 2.529379 13.02577
v 8.935696 -2.52928 13.02577
v 6.73484 -1.715878 14.19644
v 6.73484 1.715978 14.19644
v -8.935795 2.529379 13.02577
v 8.935696 2.529379 13.02577
v 6.73484 1.715978 14.19644
v -6.734939 1.715978 14.19644
v -8.935795 -2.52928 13.02577
v -8.935795 2.529379 13.02577
v -6.734939 1.715978 14.19644
v -6.734939 -1.715878 14.19644
v 4.813811 -1.031686 16.56971
v 5.527191 -1.332139 15.36712
v -5.52729 -1.332139 15.36712
v -4.81391 -1.031686 16.56971
v 4.813811 1.031786 16.56971
v 5.527191 1.332238 15.36712
v 5.527191 -1.332139 15.36712
v 4.813811 -1.031686 16.56971
v -4.81391 1.031786 16.56971
v -5.52729 1.332238 15.36712
v 5.527191 1.332238 15.36712
v 4.813811 1.031786 16.56971
v -4.81391 -1.031686 16.56971
v -5.52729 -1.332139 15.36712
v -5.52729 1.332238 15.36712
v -4.81391 1.031786 16.56971
v 5.527191 -1.332139 15.36712
v 6.73484 -1.715878 14.19644
v -6.734939 -1.715878 14.19644
v -5.52729 -1.332139 15.36712
v 5.527191 1.332238 15.36712
v 6.73484 1.715978 14.19644
v 6.73484 -1.715878 14.19644
v 5.527191 -1.332139 15.36712
v -5.52729 1.332238 15.36712
v -6.734939 1.715978 14.19644
v 6.73484 1.715978 14.19644
v 5.527191 1.332238 15.36712
v -5.52729 -1.332139 15.36712
v -6.734939 -1.715878 14.19644
v -6.734939 1.715978 14.19644
v -5.52729 1.332238 15.36712
v -8.935795 -2.52928 13.02577
v -7.886156 -1.574992 12.24272
v -7.886156 1.575091 12.24272
v -8.935795 2.529379 13.02577
v -8.935795 2.529379 13.02577
v -7.886156 1.575091 12.24272
v 7.886057 1.575091 12.24272
v 8.935696 2.529379 13.02577
v 8.935696 2.529379 13.02577
v 7.886057 1.575091 12.24272
v 7.886057 -1.574992 12.24272
v 8.935696 -2.52928 13.02577
v 8.935696 -2.52928 13.02577
v 7.886057 -1.574992 12.24272
v -7.886156 -1.574992 12.24272
v -8.935795 -2.52928 13.02577
v 2.860089 -0.5701103 -0.03614426
v 2.860089 -0.5701103 8.992228
v 4.538655 -0.5701103 8.992228
v 4.538655 -0.5701103 -0.03614426
v 4.538655 0.5702095 -0.03614426
v 4.538655 0.5702095 8.992228
v 2.860089 0.5702095 8.992228
v 2.860089 0.5702095 -0.03614426
v -4.538754 -0.5701103 -0.03614426
v -4.538754 -0.5701103 8.992228
v -2.860188 -0.5701103 8.992228
v -2.860188 -0.5701103 -0.03614426
v -2.860188 0.5702095 -0.03614426
v -2.860188 0.5702095 8.992228
v -4.538754 0.5702095 8.992228
v -4.538754 0.5702095 -0.03614426
v 5.199495 -1.000163 -0.03614426
v 4.816146 -1.000163 -0.03614426
v 4.816146 -1.000163 9.309025
v 5.199495 -1.000163 9.894753
v 2.582599 -1.000163 9.309025
v 2.199638 -1.000163 9.894753
v 2.582599 -1.000163 -0.03614426
v 2.199638 -1.000163 -0.03614426
v 2.199638 0.9998722 -0.03614426
v 2.582599 0.9998722 -0.03614426
v 2.582599 0.9998722 9.309025
v 2.199638 0.9998722 9.894753
v 4.816146 0.9998722 9.309025
v 5.199495 0.9998722 9.894753
v 4.816146 0.9998722 -0.03614426
v 5.199495 0.9998722 -0.03614426
v -2.199348 -1.000163 -0.03614426
v -2.582698 -1.000163 -0.03614426
v -2.582698 -1.000163 9.309025
v -2.199348 -1.000163 9.894753
v -4.816245 -1.000163 9.309025
v -5.199594 -1.000163 9.894753
v -4.816245 -1.000163 -0.03614426
v -5.199594 -1.000163 -0.03614426
v -5.199594 0.9998722 -0.03614426
v -4.816245 0.9998722 -0.03614426
v -4.816245 0.9998722 9.309025
v -5.199594 0.9998722 9.894753
v -2.582698 0.9998722 9.309025
v -2.199348 0.9998722 9.894753
v -2.582698 0.9998722 -0.03614426
v -2.199348 0.9998722 -0.03614426
v 4.816146 -1.000163 -0.03614426
v 4.538655 -0.5701103 -0.03614426
v 4.538655 -0.5701103 8.992228
v 4.816146 -1.000163 9.309025
v 4.816146 -1.000163 9.309025
v 4.538655 -0.5701103 8.992228
v 2.860089 -0.5701103 8.992228
v 2.582599 -1.000163 9.309025
v 2.582599 -1.000163 9.309025
v 2.860089 -0.5701103 8.992228
v 2.860089 -0.5701103 -0.03614426
v 2.582599 -1.000163 -0.03614426
v 2.582599 0.9998722 -0.03614426
v 2.860089 0.5702095 -0.03614426
v 2.860089 0.5702095 8.992228
v 2.582599 0.9998722 9.309025
v 2.582599 0.9998722 9.309025
v 2.860089 0.5702095 8.992228
v 4.538655 0.5702095 8.992228
v 4.816146 0.9998722 9.309025
v 4.816146 0.9998722 9.309025
v 4.538655 0.5702095 8.992228
v 4.538655 0.5702095 -0.03614426
v 4.816146 0.9998722 -0.03614426
v -2.582698 -1.000163 -0.03614426
v -2.860188 -0.5701103 -0.03614426
v -2.860188 -0.5701103 8.992228
v -2.582698 -1.000163 9.309025
v -2.582698 -1.000163 9.309025
v -2.860188 -0.5701103 8.992228
v -4.538754 -0.5701103 8.992228
v -4.816245 -1.000163 9.309025
v -4.816245 -1.000163 9.309025
v -4.538754 -0.5701103 8.992228
v -4.538754 -0.5701103 -0.03614426
v -4.816245 -1.000163 -0.03614426
v -4.816245 0.9998722 -0.03614426
v -4.538754 0.5702095 -0.03614426
v -4.538754 0.5702095 8.992228
v -4.816245 0.9998722 9.309025
v -4.816245 0.9998722 9.309025
v -4.538754 0.5702095 8.992228
v -2.860188 0.5702095 8.992228
v -2.582698 0.9998722 9.309025
v -2.582698 0.9998722 9.309025
v -2.860188 0.5702095 8.992228
v -2.860188 0.5702095 -0.03614426
v -2.582698 0.9998722 -0.03614426
v 2.199638 -1.000163 9.930946
v 2.199638 0.9998722 9.930946
v 5.199495 0.9998722 9.930946
v 5.199495 -1.000163 9.930946
v 5.199495 -1.000163 -0.06922531
v 5.199495 -1.000163 9.930946
v 5.199495 0.9998722 9.930946
v 5.199495 0.9998722 -0.06922531
v 2.199638 0.9998722 -0.06922531
v 2.199638 0.9998722 9.930946
v 2.199638 -1.000163 9.930946
v 2.199638 -1.000163 -0.06922531
v -5.199594 -1.000163 9.930946
v -5.199594 0.9998722 9.930946
v -2.199348 0.9998722 9.930946
v -2.199348 -1.000163 9.930946
v -2.199348 -1.000163 -0.06922531
v -2.199348 -1.000163 9.930946
v -2.199348 0.9998722 9.930946
v -2.199348 0.9998722 -0.06922531
v -5.199594 0.9998722 -0.06922531
v -5.199594 0.9998722 9.930946
v -5.199594 -1.000163 9.930946
v -5.199594 -1.000163 -0.06922531
vt 0.07659246 0.1550186
vt 0.06984612 0.1550186
vt 0.06984612 0.1946533
vt 0.07659246 0.1946533
vt 0.06984612 0.1550186
vt 0.06984612 0.1946533
vt 0.07659246 0.1946533
vt 0.07659246 0.1550186
vt 0.06984612 0.1550186
vt 0.06984612 0.1946533
vt 0.07659246 0.1946533
vt 0.07659246 0.1550186
vt 0.06984612 0.1550186
vt 0.06984612 0.1946533
vt 0.07659246 0.1946533
vt 0.07659246 0.1550186
vt 0.06984612 0.1550186
vt 0.06984612 0.1946533
vt 0.07659246 0.1946533
vt 0.07659246 0.1550186
vt 0.06984612 0.1550186
vt 0.06984612 0.1946533
vt 0.07659246 0.1946533
vt 0.07659246 0.1550186
vt 0.9047052 0.8304955
vt 0.9047052 0.869287
vt 0.9072351 0.869287
vt 0.9072351 0.8304955
vt 0.9072351 0.8304955
vt 0.9072351 0.869287
vt 0.9106082 0.869287
vt 0.9106082 0.8304955
vt 0.9106082 0.8304955
vt 0.9106082 0.869287
vt 0.9131382 0.869287
vt 0.9131382 0.8304955
vt 0.9106082 0.8304955
vt 0.9047052 0.8304955
vt 0.9047052 0.8304955
vt 0.9072351 0.8304955
vt 0.9047052 0.8304955
vt 0.9047052 0.869287
vt 0.9131382 0.869287
vt 0.9106082 0.869287
vt 0.9072351 0.869287
vt 0.9047052 0.869287
vt 0.9047052 0.8304955
vt 0.9047052 0.869287
vt 0.9072351 0.869287
vt 0.9072351 0.8304955
vt 0.9072351 0.8304955
vt 0.9072351 0.869287
vt 0.9106082 0.869287
vt 0.9106082 0.8304955
vt 0.9106082 0.8304955
vt 0.9106082 0.869287
vt 0.9131382 0.869287
vt 0.9131382 0.8304955
vt 0.9106082 0.8304955
vt 0.9047052 0.8304955
vt 0.9047052 0.8304955
vt 0.9072351 0.8304955
vt 0.9047052 0.8304955
vt 0.9047052 0.869287
vt 0.9131382 0.869287
vt 0.9106082 0.869287
vt 0.9072351 0.869287
vt 0.9047052 0.869287
vt 0.9047052 0.8304955
vt 0.9047052 0.869287
vt 0.9072351 0.869287
vt 0.9072351 0.8304955
vt 0.9072351 0.8304955
vt 0.9072351 0.869287
vt 0.9106082 0.869287
vt 0.9106082 0.8304955
vt 0.9106082 0.8304955
vt 0.9106082 0.869287
vt 0.9131382 0.869287
vt 0.9131382 0.8304955
vt 0.9106082 0.8304955
vt 0.9047052 0.8304955
vt 0.9047052 0.8304955
vt 0.9072351 0.8304955
vt 0.9047052 0.8304955
vt 0.9047052 0.869287
vt 0.9131382 0.869287
vt 0.9106082 0.869287
vt 0.9072351 0.869287
vt 0.9047052 0.869287
vt 0.9047052 0.8304955
vt 0.9047052 0.869287
vt 0.9072351 0.869287
vt 0.9072351 0.8304955
vt 0.9072351 0.8304955
vt 0.9072351 0.869287
vt 0.9106082 0.869287
vt 0.9106082 0.8304955
vt 0.9106082 0.8304955
vt 0.9106082 0.869287
vt 0.9131382 0.869287
vt 0.9131382 0.8304955
vt 0.9106082 0.8304955
vt 0.9047052 0.8304955
vt 0.9047052 0.8304955
vt 0.9072351 0.8304955
vt 0.9047052 0.8304955
vt 0.9047052 0.869287
vt 0.9131382 0.869287
vt 0.9106082 0.869287
vt 0.9072351 0.869287
vt 0.9047052 0.869287
vt 0.9047052 0.8304955
vt 0.9047052 0.869287
vt 0.9072351 0.869287
vt 0.9072351 0.8304955
vt 0.9072351 0.8304955
vt 0.9072351 0.869287
vt 0.9106082 0.869287
vt 0.9106082 0.8304955
vt 0.9106082 0.8304955
vt 0.9106082 0.869287
vt 0.9131382 0.869287
vt 0.9131382 0.8304955
vt 0.9106082 0.8304955
vt 0.9047052 0.8304955
vt 0.9047052 0.8304955
vt 0.9072351 0.8304955
vt 0.9047052 0.8304955
vt 0.9047052 0.869287
vt 0.9131382 0.869287
vt 0.9106082 0.869287
vt 0.9072351 0.869287
vt 0.9047052 0.869287
vt 0.9047052 0.8304955
vt 0.9072351 0.8304955
vt 0.9072351 0.869287
vt 0.9047052 0.869287
vt 0.9072351 0.8304955
vt 0.9106082 0.8304955
vt 0.9106082 0.869287
vt 0.9072351 0.869287
vt 0.9106082 0.8304955
vt 0.9131382 0.8304955
vt 0.9131382 0.869287
vt 0.9106082 0.869287
vt 0.9072351 0.8304955
vt 0.9047052 0.8304955
vt 0.9047052 0.8304955
vt 0.9047052 0.8304955
vt 0.9106082 0.8304955
vt 0.9131382 0.869287
vt 0.9047052 0.869287
vt 0.9047052 0.869287
vt 0.9072351 0.869287
vt 0.9106082 0.869287
vt 0.9047052 0.8304955
vt 0.9072351 0.8304955
vt 0.9072351 0.869287
vt 0.9047052 0.869287
vt 0.9072351 0.8304955
vt 0.9106082 0.8304955
vt 0.9106082 0.869287
vt 0.9072351 0.869287
vt 0.9106082 0.8304955
vt 0.9131382 0.8304955
vt 0.9131382 0.869287
vt 0.9106082 0.869287
vt 0.9072351 0.8304955
vt 0.9047052 0.8304955
vt 0.9047052 0.8304955
vt 0.9047052 0.8304955
vt 0.9106082 0.8304955
vt 0.9131382 0.869287
vt 0.9047052 0.869287
vt 0.9047052 0.869287
vt 0.9072351 0.869287
vt 0.9106082 0.869287
vt 0.9047052 0.8304955
vt 0.9072351 0.8304955
vt 0.9072351 0.869287
vt 0.9047052 0.869287
vt 0.9072351 0.8304955
vt 0.9106082 0.8304955
vt 0.9106082 0.869287
vt 0.9072351 0.869287
vt 0.9106082 0.8304955
vt 0.9131382 0.8304955
vt 0.9131382 0.869287
vt 0.9106082 0.869287
vt 0.9072351 0.8304955
vt 0.9047052 0.8304955
vt 0.9047052 0.8304955
vt 0.9047052 0.8304955
vt 0.9106082 0.8304955
vt 0.9131382 0.869287
vt 0.9047052 0.869287
vt 0.9047052 0.869287
vt 0.9072351 0.869287
vt 0.9106082 0.869287
vt 0.9047052 0.8304955
vt 0.9072351 0.8304955
vt 0.9072351 0.869287
vt 0.9047052 0.869287
vt 0.9072351 0.8304955
vt 0.9106082 0.8304955
vt 0.9106082 0.869287
vt 0.9072351 0.869287
vt 0.9106082 0.8304955
vt 0.9131382 0.8304955
vt 0.9131382 0.869287
vt 0.9106082 0.869287
vt 0.9072351 0.8304955
vt 0.9047052 0.8304955
vt 0.9047052 0.8304955
vt 0.9047052 0.8304955
vt 0.9106082 0.8304955
vt 0.9131382 0.869287
vt 0.9047052 0.869287
vt 0.9047052 0.869287
vt 0.9072351 0.869287
vt 0.9106082 0.869287
vt 0.9047052 0.8304955
vt 0.9072351 0.8304955
vt 0.9072351 0.869287
vt 0.9047052 0.869287
vt 0.9072351 0.8304955
vt 0.9106082 0.8304955
vt 0.9106082 0.869287
vt 0.9072351 0.869287
vt 0.9106082 0.8304955
vt 0.9131382 0.8304955
vt 0.9131382 0.869287
vt 0.9106082 0.869287
vt 0.9072351 0.8304955
vt 0.9047052 0.8304955
vt 0.9047052 0.8304955
vt 0.9047052 0.8304955
vt 0.9106082 0.8304955
vt 0.9131382 0.869287
vt 0.9047052 0.869287
vt 0.9047052 0.869287
vt 0.9072351 0.869287
vt 0.9106082 0.869287
vt 0.8971155 0.8304955
vt 0.8971155 0.869287
vt 0.9291607 0.869287
vt 0.9291607 0.8304955
vt 0.8971155 0.8304955
vt 0.8971155 0.869287
vt 0.9291607 0.869287
vt 0.9291607 0.8304955
vt 0.8971155 0.8304955
vt 0.8971155 0.869287
vt 0.9291607 0.869287
vt 0.9291607 0.8304955
vt 0.8971155 0.8304955
vt 0.8971155 0.869287
vt 0.9291607 0.869287
vt 0.9291607 0.8304955
vt 0.8971155 0.8304955
vt 0.9291607 0.8304955
vt 0.9291607 0.869287
vt 0.8971155 0.869287
vt 0.8971155 0.8304955
vt 0.9291607 0.8304955
vt 0.9291607 0.869287
vt 0.8971155 0.869287
vt 0.8971155 0.8304955
vt 0.9291607 0.8304955
vt 0.9291607 0.869287
vt 0.8971155 0.869287
vt 0.8971155 0.8304955
vt 0.9291607 0.8304955
vt 0.9291607 0.869287
vt 0.8971155 0.869287
vt 0.07406259 0.1946533
vt 0.07490587 0.1946533
vt 0.07490587 0.1550186
vt 0.07406259 0.1550186
vt 0.0715327 0.1550186
vt 0.0715327 0.1946533
vt 0.07659246 0.1946533
vt 0.07659246 0.1550186
vt 0.07659246 0.1786308
vt 0.07659246 0.1710412
vt 0.06984612 0.1710412
vt 0.06984612 0.1786308
vt 0.0715327 0.1946533
vt 0.072376 0.1946533
vt 0.072376 0.1550186
vt 0.0715327 0.1550186
vt 0.06984612 0.1946533
vt 0.0715327 0.1946533
vt 0.0715327 0.1550186
vt 0.06984612 0.1550186
vt 0.07321929 0.1550186
vt 0.072376 0.1550186
vt 0.072376 0.1946533
vt 0.07321929 0.1946533
vt 0.07321929 0.1946533
vt 0.07406259 0.1946533
vt 0.07406259 0.1550186
vt 0.07321929 0.1550186
vt 0.07659246 0.1550186
vt 0.07490587 0.1550186
vt 0.07490587 0.1946533
vt 0.07659246 0.1946533
vt 0.06984612 0.1946533
vt 0.0715327 0.1946533
vt 0.0715327 0.1550186
vt 0.06984612 0.1550186
vt 0.07659246 0.1946533
vt 0.07659246 0.1862204
vt 0.06984612 0.1862204
vt 0.06984612 0.1946533
vt 0.07659246 0.1862204
vt 0.07659246 0.1786308
vt 0.06984612 0.1786308
vt 0.06984612 0.1862204
vt 0.06984612 0.1550186
vt 0.06984612 0.1626082
vt 0.07659246 0.1626082
vt 0.07659246 0.1550186
vt 0.06984612 0.1626082
vt 0.06984612 0.1710412
vt 0.07659246 0.1710412
vt 0.07659246 0.1626082
vt 0.07490587 0.1946533
vt 0.07659246 0.1946533
vt 0.07406259 0.1550186
vt 0.07321929 0.1550186
vt 0.07659246 0.1862204
vt 0.07659246 0.1946533
vt 0.06984612 0.1550186
vt 0.07490587 0.1550186
vt 0.07659246 0.1946533
vt 0.0715327 0.1550186
vt 0.06984612 0.1550186
vt 0.072376 0.1550186
vt 0.07321929 0.1550186
vt 0.07490587 0.1946533
vt 0.07321929 0.1550186
vt 0.07659246 0.1946533
vt 0.07406259 0.1550186
vt 0.07659246 0.1550186
vt 0.07490587 0.1550186
vt 0.07659246 0.1710412
vt 0.07659246 0.1626082
vt 0.07406259 0.1550186
vt 0.07659246 0.1710412
vt 0.07659246 0.1550186
vt 0.07659246 0.1710412
vt 0.07659246 0.1862204
vt 0.07659246 0.1786308
vt 0.07406259 0.1550186
vt 0.07659246 0.1946533
vt 0.06984612 0.1946533
vt 0.0715327 0.1946533
vt 0.06984612 0.1786308
vt 0.06984612 0.1862204
vt 0.06984612 0.1626082
vt 0.06984612 0.1710412
vt 0.06984612 0.1626082
vt 0.0715327 0.1550186
vt 0.06984612 0.1550186
vt 0.0715327 0.1550186
vt 0.07321929 0.1550186
vt 0.072376 0.1550186
vt 0.06984612 0.1626082
vt 0.06984612 0.1946533
vt 0.07659246 0.1946533
vt 0.07321929 0.1550186
vt 0.06984612 0.1946533
vt 0.07490587 0.1550186
vt 0.07406259 0.1550186
vt 0.07406259 0.1946533
vt 0.07406259 0.1550186
vt 0.07490587 0.1550186
vt 0.07490587 0.1946533
vt 0.0715327 0.1550186
vt 0.07659246 0.1550186
vt 0.07659246 0.1946533
vt 0.0715327 0.1946533
vt 0.07659246 0.1786308
vt 0.06984612 0.1786308
vt 0.06984612 0.1710412
vt 0.07659246 0.1710412
vt 0.0715327 0.1946533
vt 0.0715327 0.1550186
vt 0.072376 0.1550186
vt 0.072376 0.1946533
vt 0.06984612 0.1946533
vt 0.06984612 0.1550186
vt 0.0715327 0.1550186
vt 0.0715327 0.1946533
vt 0.07321929 0.1550186
vt 0.07321929 0.1946533
vt 0.072376 0.1946533
vt 0.072376 0.1550186
vt 0.07321929 0.1946533
vt 0.07321929 0.1550186
vt 0.07406259 0.1550186
vt 0.07406259 0.1946533
vt 0.07659246 0.1550186
vt 0.07659246 0.1946533
vt 0.07490587 0.1946533
vt 0.07490587 0.1550186
vt 0.06984612 0.1946533
vt 0.06984612 0.1550186
vt 0.0715327 0.1550186
vt 0.0715327 0.1946533
vt 0.07659246 0.1946533
vt 0.06984612 0.1946533
vt 0.06984612 0.1862204
vt 0.07659246 0.1862204
vt 0.07659246 0.1862204
vt 0.06984612 0.1862204
vt 0.06984612 0.1786308
vt 0.07659246 0.1786308
vt 0.06984612 0.1550186
vt 0.07659246 0.1550186
vt 0.07659246 0.1626082
vt 0.06984612 0.1626082
vt 0.06984612 0.1626082
vt 0.07659246 0.1626082
vt 0.07659246 0.1710412
vt 0.06984612 0.1710412
vt 0.07490587 0.1946533
vt 0.07406259 0.1550186
vt 0.07659246 0.1946533
vt 0.07321929 0.1550186
vt 0.07659246 0.1862204
vt 0.07743575 0.214049
vt 0.07659246 0.1668247
vt 0.072376 0.1668247
vt 0.07659246 0.1946533
vt 0.06984612 0.1550186
vt 0.0715327 0.1550186
vt 0.072376 0.1550186
vt 0.07321929 0.1550186
vt 0.07490587 0.1946533
vt 0.07659246 0.1946533
vt 0.07321929 0.1550186
vt 0.07406259 0.1550186
vt 0.07490587 0.1550186
vt 0.07659246 0.1550186
vt 0.07659246 0.1626082
vt 0.07659246 0.1710412
vt 0.07406259 0.1550186
vt 0.07659246 0.1550186
vt 0.07659246 0.1710412
vt 0.07659246 0.1862204
vt 0.07659246 0.1786308
vt 0.07743575 0.214049
vt 0.07321929 0.214049
vt 0.072376 0.214049
vt 0.07490587 0.1668247
vt 0.07659246 0.1668247
vt 0.1221302 0.1162272
vt 0.072376 0.214049
vt 0.072376 0.2047728
vt 0.072376 0.1946533
vt 0.072376 0.1761009
vt 0.072376 0.1853771
vt 0.072376 0.1761009
vt 0.06647296 0.1162272
vt 0.08080892 0.1162272
vt 0.08080892 0.1162272
vt 0.09430159 0.1162272
vt 0.07490587 0.1668247
vt 0.072376 0.1761009
vt 0.072376 0.214049
vt 0.072376 0.1761009
vt 0.07490587 0.1668247
vt 0.6491877 0.1921234
vt 0.6475012 0.1921234
vt 0.6475012 0.2073027
vt 0.6491877 0.2073027
vt 0.6475012 0.1921234
vt 0.6475012 0.2073027
vt 0.6491877 0.2073027
vt 0.6491877 0.1921234
vt 0.6491877 0.1921234
vt 0.6475012 0.1921234
vt 0.6475012 0.1954966
vt 0.6491877 0.1954966
vt 0.6491877 0.1921234
vt 0.6475012 0.1921234
vt 0.6475012 0.1954966
vt 0.6491877 0.1954966
vt 0.6491877 0.1921234
vt 0.6475012 0.1921234
vt 0.6475012 0.1954966
vt 0.6491877 0.1954966
vt 0.6491877 0.1921234
vt 0.6475012 0.1921234
vt 0.6475012 0.1954966
vt 0.6491877 0.1954966
vt 0.6491877 0.2073027
vt 0.6491877 0.1997131
vt 0.6475012 0.1997131
vt 0.6475012 0.2073027
vt 0.6491877 0.2073027
vt 0.6491877 0.1997131
vt 0.6475012 0.1997131
vt 0.6475012 0.2073027
vt 0.6491877 0.2073027
vt 0.6491877 0.1997131
vt 0.6475012 0.1997131
vt 0.6475012 0.2073027
vt 0.6491877 0.2073027
vt 0.6491877 0.1997131
vt 0.6475012 0.1997131
vt 0.6475012 0.2073027
vt 0.6491877 0.1997131
vt 0.6491877 0.1954966
vt 0.6475012 0.1954966
vt 0.6475012 0.1997131
vt 0.6491877 0.1997131
vt 0.6491877 0.1954966
vt 0.6475012 0.1954966
vt 0.6475012 0.1997131
vt 0.6491877 0.1997131
vt 0.6491877 0.1954966
vt 0.6475012 0.1954966
vt 0.6475012 0.1997131
vt 0.6491877 0.1997131
vt 0.6491877 0.1954966
vt 0.6475012 0.1954966
vt 0.6475012 0.1997131
vt 0.6491877 0.1921234
vt 0.6491877 0.1921234
vt 0.6491877 0.2073027
vt 0.6491877 0.2073027
vt 0.6491877 0.2073027
vt 0.6491877 0.2073027
vt 0.6475012 0.2073027
vt 0.6475012 0.2073027
vt 0.6475012 0.2073027
vt 0.6475012 0.2073027
vt 0.6475012 0.1921234
vt 0.6475012 0.1921234
vt 0.6475012 0.1921234
vt 0.6475012 0.1921234
vt 0.6491877 0.1921234
vt 0.6491877 0.1921234
vt 0.06984612 0.1550186
vt 0.06984612 0.1946533
vt 0.07659246 0.1946533
vt 0.07659246 0.1550186
vt 0.06984612 0.1550186
vt 0.06984612 0.1946533
vt 0.07659246 0.1946533
vt 0.07659246 0.1550186
vt 0.06984612 0.1550186
vt 0.06984612 0.1946533
vt 0.07659246 0.1946533
vt 0.07659246 0.1550186
vt 0.06984612 0.1550186
vt 0.06984612 0.1946533
vt 0.07659246 0.1946533
vt 0.07659246 0.1550186
vt 0.07659246 0.1550186
vt 0.07659246 0.1550186
vt 0.07659246 0.1946533
vt 0.07659246 0.1946533
vt 0.06984612 0.1946533
vt 0.06984612 0.1946533
vt 0.06984612 0.1550186
vt 0.06984612 0.1550186
vt 0.07659246 0.1550186
vt 0.07659246 0.1550186
vt 0.07659246 0.1946533
vt 0.07659246 0.1946533
vt 0.06984612 0.1946533
vt 0.06984612 0.1946533
vt 0.06984612 0.1550186
vt 0.06984612 0.1550186
vt 0.07659246 0.1550186
vt 0.07659246 0.1550186
vt 0.07659246 0.1946533
vt 0.07659246 0.1946533
vt 0.06984612 0.1946533
vt 0.06984612 0.1946533
vt 0.06984612 0.1550186
vt 0.06984612 0.1550186
vt 0.07659246 0.1550186
vt 0.07659246 0.1550186
vt 0.07659246 0.1946533
vt 0.07659246 0.1946533
vt 0.06984612 0.1946533
vt 0.06984612 0.1946533
vt 0.06984612 0.1550186
vt 0.06984612 0.1550186
vt 0.07659246 0.1550186
vt 0.07659246 0.1550186
vt 0.07659246 0.1946533
vt 0.07659246 0.1946533
vt 0.07659246 0.1946533
vt 0.07659246 0.1946533
vt 0.06984612 0.1946533
vt 0.06984612 0.1946533
vt 0.06984612 0.1946533
vt 0.06984612 0.1946533
vt 0.06984612 0.1550186
vt 0.06984612 0.1550186
vt 0.07659246 0.1550186
vt 0.07659246 0.1550186
vt 0.07659246 0.1946533
vt 0.07659246 0.1946533
vt 0.07659246 0.1946533
vt 0.07659246 0.1946533
vt 0.06984612 0.1946533
vt 0.06984612 0.1946533
vt 0.06984612 0.1946533
vt 0.06984612 0.1946533
vt 0.06984612 0.1550186
vt 0.06984612 0.1550186
vt 0.07659246 0.1550186
vt 0.07659246 0.1550186
vt 0.07659246 0.1946533
vt 0.07659246 0.1946533
vt 0.07659246 0.1946533
vt 0.07659246 0.1946533
vt 0.06984612 0.1946533
vt 0.06984612 0.1946533
vt 0.06984612 0.1946533
vt 0.06984612 0.1946533
vt 0.06984612 0.1550186
vt 0.06984612 0.1550186
vt 0.07659246 0.1550186
vt 0.07659246 0.1550186
vt 0.07659246 0.1946533
vt 0.07659246 0.1946533
vt 0.07659246 0.1946533
vt 0.07659246 0.1946533
vt 0.06984612 0.1946533
vt 0.06984612 0.1946533
vt 0.06984612 0.1946533
vt 0.06984612 0.1946533
vt 0.06984612 0.1550186
vt 0.06984612 0.1550186
vt 0.06984612 0.1550186
vt 0.06984612 0.1946533
vt 0.07659246 0.1946533
vt 0.07659246 0.1550186
vt 0.06984612 0.1550186
vt 0.06984612 0.1946533
vt 0.07659246 0.1946533
vt 0.07659246 0.1550186
vt 0.06984612 0.1550186
vt 0.06984612 0.1946533
vt 0.07659246 0.1946533
vt 0.07659246 0.1550186
vt 0.06984612 0.1550186
vt 0.06984612 0.1946533
vt 0.07659246 0.1946533
vt 0.07659246 0.1550186
vt 0.06984612 0.1550186
vt 0.06984612 0.1946533
vt 0.07659246 0.1946533
vt 0.07659246 0.1550186
vt 0.06984612 0.1550186
vt 0.06984612 0.1946533
vt 0.07659246 0.1946533
vt 0.07659246 0.1550186
vn -0.003921628 0.003921628 -0.9999846
vn -0.003921628 0.003921628 -0.9999846
vn -0.003921628 0.003921628 -0.9999846
vn -0.003921628 0.003921628 -0.9999846
vn -0.003921628 0.003921628 0.9999846
vn -0.003921628 0.003921628 0.9999846
vn -0.003921628 0.003921628 0.9999846
vn -0.003921628 0.003921628 0.9999846
vn -0.003921628 -0.9999924 0
vn -0.003921628 -0.9999924 0
vn -0.003921628 -0.9999924 0
vn -0.003921628 -0.9999924 0
vn 0.9999924 0.003921628 0
vn 0.9999924 0.003921628 0
vn 0.9999924 0.003921628 0
vn 0.9999924 0.003921628 0
vn -0.003921628 0.9999924 0
vn -0.003921628 0.9999924 0
vn -0.003921628 0.9999924 0
vn -0.003921628 0.9999924 0
vn -0.9999924 0.003921628 0
vn -0.9999924 0.003921628 0
vn -0.9999924 0.003921628 0
vn -0.9999924 0.003921628 0
vn -0.003921628 -0.2549 -0.9669595
vn -0.003921628 -0.2549 -0.9669595
vn -0.003921628 -0.2549 -0.9669595
vn -0.003921628 -0.2549 -0.9669595
vn -0.003921628 -0.7097985 -0.7043939
vn -0.003921628 -0.7097985 -0.7043939
vn -0.003921628 -0.7097985 -0.7043939
vn -0.003921628 -0.7097985 -0.7043939
vn -0.003921628 -0.9686201 -0.2485151
vn -0.003921628 -0.9686201 -0.2485151
vn -0.003921628 -0.9686201 -0.2485151
vn -0.003921628 -0.9686201 -0.2485151
vn 0.9999924 0.003921628 0
vn 0.9999924 0.003921628 0
vn 0.9999924 0.003921628 0
vn 0.9999924 0.003921628 0
vn 0.9999924 0.003921628 0
vn -0.9999924 0.003921628 0
vn -0.9999924 0.003921628 0
vn -0.9999924 0.003921628 0
vn -0.9999924 0.003921628 0
vn -0.9999924 0.003921628 0
vn -0.003921628 -0.2549 -0.9669595
vn -0.003921628 -0.2549 -0.9669595
vn -0.003921628 -0.2549 -0.9669595
vn -0.003921628 -0.2549 -0.9669595
vn -0.003921628 -0.7097985 -0.7043939
vn -0.003921628 -0.7097985 -0.7043939
vn -0.003921628 -0.7097985 -0.7043939
vn -0.003921628 -0.7097985 -0.7043939
vn -0.003921628 -0.9686201 -0.2485151
vn -0.003921628 -0.9686201 -0.2485151
vn -0.003921628 -0.9686201 -0.2485151
vn -0.003921628 -0.9686201 -0.2485151
vn 0.9999924 0.003921628 0
vn 0.9999924 0.003921628 0
vn 0.9999924 0.003921628 0
vn 0.9999924 0.003921628 0
vn 0.9999924 0.003921628 0
vn -0.9999924 0.003921628 0
vn -0.9999924 0.003921628 0
vn -0.9999924 0.003921628 0
vn -0.9999924 0.003921628 0
vn -0.9999924 0.003921628 0
vn -0.003921628 -0.2549 -0.9669595
vn -0.003921628 -0.2549 -0.9669595
vn -0.003921628 -0.2549 -0.9669595
vn -0.003921628 -0.2549 -0.9669595
vn -0.003921628 -0.7097985 -0.7043939
vn -0.003921628 -0.7097985 -0.7043939
vn -0.003921628 -0.7097985 -0.7043939
vn -0.003921628 -0.7097985 -0.7043939
vn -0.003921628 -0.9686201 -0.2485151
vn -0.003921628 -0.9686201 -0.2485151
vn -0.003921628 -0.9686201 -0.2485151
vn -0.003921628 -0.9686201 -0.2485151
vn 0.9999924 0.003921628 0
vn 0.9999924 0.003921628 0
vn 0.9999924 0.003921628 0
vn 0.9999924 0.003921628 0
vn 0.9999924 0.003921628 0
vn -0.9999924 0.003921628 0
vn -0.9999924 0.003921628 0
vn -0.9999924 0.003921628 0
vn -0.9999924 0.003921628 0
vn -0.9999924 0.003921628 0
vn -0.003921628 -0.2549 -0.9669595
vn -0.003921628 -0.2549 -0.9669595
vn -0.003921628 -0.2549 -0.9669595
vn -0.003921628 -0.2549 -0.9669595
vn -0.003921628 -0.7097985 -0.7043939
vn -0.003921628 -0.7097985 -0.7043939
vn -0.003921628 -0.7097985 -0.7043939
vn -0.003921628 -0.7097985 -0.7043939
vn -0.003921628 -0.9686201 -0.2485151
vn -0.003921628 -0.9686201 -0.2485151
vn -0.003921628 -0.9686201 -0.2485151
vn -0.003921628 -0.9686201 -0.2485151
vn 0.9999924 0.003921628 0
vn 0.9999924 0.003921628 0
vn 0.9999924 0.003921628 0
vn 0.9999924 0.003921628 0
vn 0.9999924 0.003921628 0
vn -0.9999924 0.003921628 0
vn -0.9999924 0.003921628 0
vn -0.9999924 0.003921628 0
vn -0.9999924 0.003921628 0
vn -0.9999924 0.003921628 0
vn -0.003921628 -0.2549 -0.9669595
vn -0.003921628 -0.2549 -0.9669595
vn -0.003921628 -0.2549 -0.9669595
vn -0.003921628 -0.2549 -0.9669595
vn -0.003921628 -0.7097985 -0.7043939
vn -0.003921628 -0.7097985 -0.7043939
vn -0.003921628 -0.7097985 -0.7043939
vn -0.003921628 -0.7097985 -0.7043939
vn -0.003921628 -0.9686201 -0.2485151
vn -0.003921628 -0.9686201 -0.2485151
vn -0.003921628 -0.9686201 -0.2485151
vn -0.003921628 -0.9686201 -0.2485151
vn 0.9999924 0.003921628 0
vn 0.9999924 0.003921628 0
vn 0.9999924 0.003921628 0
vn 0.9999924 0.003921628 0
vn 0.9999924 0.003921628 0
vn -0.9999924 0.003921628 0
vn -0.9999924 0.003921628 0
vn -0.9999924 0.003921628 0
vn -0.9999924 0.003921628 0
vn -0.9999924 0.003921628 0
vn -0.003921628 0.2549001 -0.9669594
vn -0.003921628 0.2549001 -0.9669594
vn -0.003921628 0.2549001 -0.9669594
vn -0.003921628 0.2549001 -0.9669594
vn -0.003921628 0.7097986 -0.7043937
vn -0.003921628 0.7097986 -0.7043937
vn -0.003921628 0.7097986 -0.7043937
vn -0.003921628 0.7097986 -0.7043937
vn -0.003921628 0.9686201 -0.2485151
vn -0.003921628 0.9686201 -0.2485151
vn -0.003921628 0.9686201 -0.2485151
vn -0.003921628 0.9686201 -0.2485151
vn 0.9999924 0.003921628 0
vn 0.9999924 0.003921628 0
vn 0.9999924 0.003921628 0
vn 0.9999924 0.003921628 0
vn 0.9999924 0.003921628 0
vn -0.9999924 0.003921628 0
vn -0.9999924 0.003921628 0
vn -0.9999924 0.003921628 0
vn -0.9999924 0.003921628 0
vn -0.9999924 0.003921628 0
vn -0.003921628 0.2549001 -0.9669594
vn -0.003921628 0.2549001 -0.9669594
vn -0.003921628 0.2549001 -0.9669594
vn -0.003921628 0.2549001 -0.9669594
vn -0.003921628 0.7097986 -0.7043937
vn -0.003921628 0.7097986 -0.7043937
vn -0.003921628 0.7097986 -0.7043937
vn -0.003921628 0.7097986 -0.7043937
vn -0.003921628 0.9686201 -0.2485151
vn -0.003921628 0.9686201 -0.2485151
vn -0.003921628 0.9686201 -0.2485151
vn -0.003921628 0.9686201 -0.2485151
vn 0.9999924 0.003921628 0
vn 0.9999924 0.003921628 0
vn 0.9999924 0.003921628 0
vn 0.9999924 0.003921628 0
vn 0.9999924 0.003921628 0
vn -0.9999924 0.003921628 0
vn -0.9999924 0.003921628 0
vn -0.9999924 0.003921628 0
vn -0.9999924 0.003921628 0
vn -0.9999924 0.003921628 0
vn -0.003921628 0.2549001 -0.9669594
vn -0.003921628 0.2549001 -0.9669594
vn -0.003921628 0.2549001 -0.9669594
vn -0.003921628 0.2549001 -0.9669594
vn -0.003921628 0.7097986 -0.7043937
vn -0.003921628 0.7097986 -0.7043937
vn -0.003921628 0.7097986 -0.7043937
vn -0.003921628 0.7097986 -0.7043937
vn -0.003921628 0.9686201 -0.2485151
vn -0.003921628 0.9686201 -0.2485151
vn -0.003921628 0.9686201 -0.2485151
vn -0.003921628 0.9686201 -0.2485151
vn 0.9999924 0.003921628 0
vn 0.9999924 0.003921628 0
vn 0.9999924 0.003921628 0
vn 0.9999924 0.003921628 0
vn 0.9999924 0.003921628 0
vn -0.9999924 0.003921628 0
vn -0.9999924 0.003921628 0
vn -0.9999924 0.003921628 0
vn -0.9999924 0.003921628 0
vn -0.9999924 0.003921628 0
vn -0.003921628 0.2549001 -0.9669594
vn -0.003921628 0.2549001 -0.9669594
vn -0.003921628 0.2549001 -0.9669594
vn -0.003921628 0.2549001 -0.9669594
vn -0.003921628 0.7097986 -0.7043937
vn -0.003921628 0.7097986 -0.7043937
vn -0.003921628 0.7097986 -0.7043937
vn -0.003921628 0.7097986 -0.7043937
vn -0.003921628 0.9686201 -0.2485151
vn -0.003921628 0.9686201 -0.2485151
vn -0.003921628 0.9686201 -0.2485151
vn -0.003921628 0.9686201 -0.2485151
vn 0.9999924 0.003921628 0
vn 0.9999924 0.003921628 0
vn 0.9999924 0.003921628 0
vn 0.9999924 0.003921628 0
vn 0.9999924 0.003921628 0
vn -0.9999924 0.003921628 0
vn -0.9999924 0.003921628 0
vn -0.9999924 0.003921628 0
vn -0.9999924 0.003921628 0
vn -0.9999924 0.003921628 0
vn -0.003921628 0.2549001 -0.9669594
vn -0.003921628 0.2549001 -0.9669594
vn -0.003921628 0.2549001 -0.9669594
vn -0.003921628 0.2549001 -0.9669594
vn -0.003921628 0.7097986 -0.7043937
vn -0.003921628 0.7097986 -0.7043937
vn -0.003921628 0.7097986 -0.7043937
vn -0.003921628 0.7097986 -0.7043937
vn -0.003921628 0.9686201 -0.2485151
vn -0.003921628 0.9686201 -0.2485151
vn -0.003921628 0.9686201 -0.2485151
vn -0.003921628 0.9686201 -0.2485151
vn 0.9999924 0.003921628 0
vn 0.9999924 0.003921628 0
vn 0.9999924 0.003921628 0
vn 0.9999924 0.003921628 0
vn 0.9999924 0.003921628 0
vn -0.9999924 0.003921628 0
vn -0.9999924 0.003921628 0
vn -0.9999924 0.003921628 0
vn -0.9999924 0.003921628 0
vn -0.9999924 0.003921628 0
vn -0.003921628 0.1764693 0.9842983
vn -0.003921628 0.1764693 0.9842983
vn -0.003921628 0.1764693 0.9842983
vn -0.003921628 0.1764693 0.9842983
vn 0.9999924 0.003921628 0
vn 0.9999924 0.003921628 0
vn 0.9999924 0.003921628 0
vn 0.9999924 0.003921628 0
vn -0.003921628 0.9843062 -0.1764254
vn -0.003921628 0.9843062 -0.1764254
vn -0.003921628 0.9843062 -0.1764254
vn -0.003921628 0.9843062 -0.1764254
vn -0.9999924 0.003921628 0
vn -0.9999924 0.003921628 0
vn -0.9999924 0.003921628 0
vn -0.9999924 0.003921628 0
vn -0.003921628 -0.1764692 0.9842983
vn -0.003921628 -0.1764692 0.9842983
vn -0.003921628 -0.1764692 0.9842983
vn -0.003921628 -0.1764692 0.9842983
vn 0.9999924 0.003921628 0
vn 0.9999924 0.003921628 0
vn 0.9999924 0.003921628 0
vn 0.9999924 0.003921628 0
vn -0.003921628 -0.9843062 -0.1764254
vn -0.003921628 -0.9843062 -0.1764254
vn -0.003921628 -0.9843062 -0.1764254
vn -0.003921628 -0.9843062 -0.1764254
vn -0.9999924 0.003921628 0
vn -0.9999924 0.003921628 0
vn -0.9999924 0.003921628 0
vn -0.9999924 0.003921628 0
vn -0.003921628 0.003921628 -0.9999846
vn -0.003921628 0.003921628 -0.9999846
vn -0.003921628 0.003921628 -0.9999846
vn -0.003921628 0.003921628 -0.9999846
vn -0.003921628 0.003921628 0.9999846
vn -0.003921628 0.003921628 0.9999846
vn -0.003921628 0.003921628 0.9999846
vn -0.003921628 0.003921628 0.9999846
vn -0.9999924 0.003921628 0
vn -0.9999924 0.003921628 0
vn -0.9999924 0.003921628 0
vn -0.9999924 0.003921628 0
vn -0.247057 0.003921628 -0.968993
vn -0.247057 0.003921628 -0.968993
vn -0.247057 0.003921628 -0.968993
vn -0.247057 0.003921628 -0.968993
vn 0.4431338 0.003921628 -0.8964469
vn 0.4431338 0.003921628 -0.8964469
vn 0.4431338 0.003921628 -0.8964469
vn 0.4431338 0.003921628 -0.8964469
vn -0.6784263 0.003921628 -0.7346581
vn -0.6784263 0.003921628 -0.7346581
vn -0.6784263 0.003921628 -0.7346581
vn -0.6784263 0.003921628 -0.7346581
vn 0.3333308 0.003921628 -0.9428018
vn 0.3333308 0.003921628 -0.9428018
vn 0.3333308 0.003921628 -0.9428018
vn 0.3333308 0.003921628 -0.9428018
vn -0.6078385 0.003921628 -0.794051
vn -0.6078385 0.003921628 -0.794051
vn -0.6078385 0.003921628 -0.794051
vn -0.6078385 0.003921628 -0.794051
vn -0.4274478 0.003921628 0.9040315
vn -0.4274478 0.003921628 0.9040315
vn -0.4274478 0.003921628 0.9040315
vn -0.4274478 0.003921628 0.9040315
vn -0.7647001 0.003921628 0.6443745
vn -0.7647001 0.003921628 0.6443745
vn -0.7647001 0.003921628 0.6443745
vn -0.7647001 0.003921628 0.6443745
vn -0.9764632 0.003921628 0.2156485
vn -0.9764632 0.003921628 0.2156485
vn -0.9764632 0.003921628 0.2156485
vn -0.9764632 0.003921628 0.2156485
vn -0.8745031 0.003921628 -0.485004
vn -0.8745031 0.003921628 -0.485004
vn -0.8745031 0.003921628 -0.485004
vn -0.8745031 0.003921628 -0.485004
vn -0.9921494 0.003921628 -0.1249971
vn -0.9921494 0.003921628 -0.1249971
vn -0.9921494 0.003921628 -0.1249971
vn -0.9921494 0.003921628 -0.1249971
vn -0.003921628 0.9999924 0
vn -0.003921628 0.9999924 0
vn -0.003921628 0.9999924 0
vn -0.003921628 0.9999924 0
vn -0.003921628 0.9999924 0
vn -0.003921628 -0.9999924 0
vn -0.003921628 -0.9999924 0
vn -0.003921628 -0.9999924 0
vn -0.003921628 0.9999924 0
vn -0.003921628 0.9999924 0
vn -0.003921628 0.9999924 0
vn -0.003921628 0.9999924 0
vn -0.003921628 0.9999924 0
vn -0.003921628 0.9999924 0
vn -0.003921628 0.9999924 0
vn -0.003921628 0.9999924 0
vn -0.003921628 0.9999924 0
vn -0.003921628 0.9999924 0
vn -0.003921628 0.9999924 0
vn -0.003921628 0.9999924 0
vn -0.003921628 0.9999924 0
vn -0.003921628 0.9999924 0
vn -0.003921628 0.9999924 0
vn -0.003921628 0.9999924 0
vn -0.003921628 0.9999924 0
vn -0.003921628 0.9999924 0
vn -0.003921628 0.9999924 0
vn -0.003921628 0.9999924 0
vn -0.003921628 -0.9999924 0
vn -0.003921628 -0.9999924 0
vn -0.003921628 -0.9999924 0
vn -0.003921628 -0.9999924 0
vn -0.003921628 -0.9999924 0
vn -0.003921628 -0.9999924 0
vn -0.003921628 -0.9999924 0
vn -0.003921628 -0.9999924 0
vn -0.003921628 -0.9999924 0
vn -0.003921628 -0.9999924 0
vn -0.003921628 -0.9999924 0
vn -0.003921628 -0.9999924 0
vn -0.003921628 -0.9999924 0
vn -0.003921628 -0.9999924 0
vn -0.003921628 -0.9999924 0
vn -0.003921628 -0.9999924 0
vn -0.003921628 -0.9999924 0
vn -0.003921628 -0.9999924 0
vn -0.003921628 -0.9999924 0
vn -0.003921628 -0.9999924 0
vn -0.003921628 0.003921628 -0.9999846
vn -0.003921628 0.003921628 -0.9999846
vn -0.003921628 0.003921628 -0.9999846
vn -0.003921628 0.003921628 -0.9999846
vn -0.003921628 0.003921628 0.9999846
vn -0.003921628 0.003921628 0.9999846
vn -0.003921628 0.003921628 0.9999846
vn -0.003921628 0.003921628 0.9999846
vn 0.9999924 0.003921628 0
vn 0.9999924 0.003921628 0
vn 0.9999924 0.003921628 0
vn 0.9999924 0.003921628 0
vn 0.2470569 0.003921628 -0.968993
vn 0.2470569 0.003921628 -0.968993
vn 0.2470569 0.003921628 -0.968993
vn 0.2470569 0.003921628 -0.968993
vn -0.443134 0.003921628 -0.8964468
vn -0.443134 0.003921628 -0.8964468
vn -0.443134 0.003921628 -0.8964468
vn -0.443134 0.003921628 -0.8964468
vn 0.6784261 0.003921628 -0.7346581
vn 0.6784261 0.003921628 -0.7346581
vn 0.6784261 0.003921628 -0.7346581
vn 0.6784261 0.003921628 -0.7346581
vn -0.3333309 0.003921628 -0.9428017
vn -0.3333309 0.003921628 -0.9428017
vn -0.3333309 0.003921628 -0.9428017
vn -0.3333309 0.003921628 -0.9428017
vn 0.6078385 0.003921628 -0.794051
vn 0.6078385 0.003921628 -0.794051
vn 0.6078385 0.003921628 -0.794051
vn 0.6078385 0.003921628 -0.794051
vn 0.4274477 0.003921628 0.9040316
vn 0.4274477 0.003921628 0.9040316
vn 0.4274477 0.003921628 0.9040316
vn 0.4274477 0.003921628 0.9040316
vn 0.7647001 0.003921628 0.6443745
vn 0.7647001 0.003921628 0.6443745
vn 0.7647001 0.003921628 0.6443745
vn 0.7647001 0.003921628 0.6443745
vn 0.9764631 0.003921628 0.2156487
vn 0.9764631 0.003921628 0.2156487
vn 0.9764631 0.003921628 0.2156487
vn 0.9764631 0.003921628 0.2156487
vn 0.8745031 0.003921628 -0.485004
vn 0.8745031 0.003921628 -0.485004
vn 0.8745031 0.003921628 -0.485004
vn 0.8745031 0.003921628 -0.485004
vn 0.9921493 0.003921628 -0.1249976
vn 0.9921493 0.003921628 -0.1249976
vn 0.9921493 0.003921628 -0.1249976
vn 0.9921493 0.003921628 -0.1249976
vn -0.003921628 0.9999924 0
vn -0.003921628 0.9999924 0
vn -0.003921628 0.9999924 0
vn -0.003921628 0.9999924 0
vn -0.003921628 0.9999924 0
vn -0.003921628 -0.9999924 0
vn -0.003921628 -0.9999924 0
vn -0.003921628 -0.9999924 0
vn -0.003921628 0.9999924 0
vn -0.003921628 0.9999924 0
vn -0.003921628 0.9999924 0
vn -0.003921628 0.9999924 0
vn -0.003921628 0.9999924 0
vn -0.003921628 0.9999924 0
vn -0.003921628 0.9999924 0
vn -0.003921628 0.9999924 0
vn -0.003921628 0.9999924 0
vn -0.003921628 0.9999924 0
vn -0.003921628 0.9999924 0
vn -0.003921628 0.9999924 0
vn -0.003921628 0.9999924 0
vn -0.003921628 0.9999924 0
vn -0.003921628 0.9999924 0
vn -0.003921628 0.9999924 0
vn -0.003921628 0.9999924 0
vn -0.003921628 0.9999924 0
vn -0.003921628 -0.9999924 0
vn -0.003921628 -0.9999924 0
vn -0.003921628 -0.9999924 0
vn -0.003921628 -0.9999924 0
vn -0.003921628 -0.9999924 0
vn -0.003921628 -0.9999924 0
vn -0.003921628 -0.9999924 0
vn -0.003921628 -0.9999924 0
vn -0.003921628 -0.9999924 0
vn -0.003921628 -0.9999924 0
vn -0.003921628 -0.9999924 0
vn -0.003921628 -0.9999924 0
vn -0.003921628 -0.9999924 0
vn -0.003921628 -0.9999924 0
vn -0.003921628 -0.9999924 0
vn -0.003921628 -0.9999924 0
vn -0.003921628 -0.9999924 0
vn -0.003921628 -0.9999924 0
vn -0.003921628 -0.9999924 0
vn -0.003921628 -0.9999924 0
vn -0.003921628 -0.9999924 0
vn -0.003921628 0.003921628 -0.9999846
vn -0.003921628 0.003921628 -0.9999846
vn -0.003921628 0.003921628 -0.9999846
vn -0.003921628 0.003921628 -0.9999846
vn -0.003921628 0.003921628 0.9999846
vn -0.003921628 0.003921628 0.9999846
vn -0.003921628 0.003921628 0.9999846
vn -0.003921628 0.003921628 0.9999846
vn -0.003921628 -0.8196016 0.5729204
vn -0.003921628 -0.8196016 0.5729204
vn -0.003921628 -0.8196016 0.5729204
vn -0.003921628 -0.8196016 0.5729204
vn 0.4666631 0.003921628 0.8844265
vn 0.4666631 0.003921628 0.8844265
vn 0.4666631 0.003921628 0.8844265
vn 0.4666631 0.003921628 0.8844265
vn -0.003921628 0.8196017 0.5729204
vn -0.003921628 0.8196017 0.5729204
vn -0.003921628 0.8196017 0.5729204
vn -0.003921628 0.8196017 0.5729204
vn -0.4666631 0.003921628 0.8844265
vn -0.4666631 0.003921628 0.8844265
vn -0.4666631 0.003921628 0.8844265
vn -0.4666631 0.003921628 0.8844265
vn -0.003921628 -0.9686201 0.2485151
vn -0.003921628 -0.9686201 0.2485151
vn -0.003921628 -0.9686201 0.2485151
vn -0.003921628 -0.9686201 0.2485151
vn 0.858817 0.003921628 0.5122675
vn 0.858817 0.003921628 0.5122675
vn 0.858817 0.003921628 0.5122675
vn 0.858817 0.003921628 0.5122675
vn -0.003921628 0.9686201 0.2485151
vn -0.003921628 0.9686201 0.2485151
vn -0.003921628 0.9686201 0.2485151
vn -0.003921628 0.9686201 0.2485151
vn -0.858817 0.003921628 0.5122675
vn -0.858817 0.003921628 0.5122675
vn -0.858817 0.003921628 0.5122675
vn -0.858817 0.003921628 0.5122675
vn -0.003921628 -0.9529339 0.3031528
vn -0.003921628 -0.9529339 0.3031528
vn -0.003921628 -0.9529339 0.3031528
vn -0.003921628 -0.9529339 0.3031528
vn 0.6941123 0.003921628 0.7198561
vn 0.6941123 0.003921628 0.7198561
vn 0.6941123 0.003921628 0.7198561
vn 0.6941123 0.003921628 0.7198561
vn -0.003921628 0.9529339 0.3031528
vn -0.003921628 0.9529339 0.3031528
vn -0.003921628 0.9529339 0.3031528
vn -0.003921628 0.9529339 0.3031528
vn -0.6941124 0.003921628 0.7198559
vn -0.6941124 0.003921628 0.7198559
vn -0.6941124 0.003921628 0.7198559
vn -0.6941124 0.003921628 0.7198559
vn -0.5999955 0.003921628 -0.7999938
vn -0.5999955 0.003921628 -0.7999938
vn -0.5999955 0.003921628 -0.7999938
vn -0.5999955 0.003921628 -0.7999938
vn -0.003921628 0.6313678 -0.7754736
vn -0.003921628 0.6313678 -0.7754736
vn -0.003921628 0.6313678 -0.7754736
vn -0.003921628 0.6313678 -0.7754736
vn 0.5999954 0.003921628 -0.7999939
vn 0.5999954 0.003921628 -0.7999939
vn 0.5999954 0.003921628 -0.7999939
vn 0.5999954 0.003921628 -0.7999939
vn -0.003921628 -0.6313677 -0.7754737
vn -0.003921628 -0.6313677 -0.7754737
vn -0.003921628 -0.6313677 -0.7754737
vn -0.003921628 -0.6313677 -0.7754737
vn -0.003921628 -0.9999924 0
vn -0.003921628 -0.9999924 0
vn -0.003921628 -0.9999924 0
vn -0.003921628 -0.9999924 0
vn -0.003921628 0.9999924 0
vn -0.003921628 0.9999924 0
vn -0.003921628 0.9999924 0
vn -0.003921628 0.9999924 0
vn -0.003921628 -0.9999924 0
vn -0.003921628 -0.9999924 0
vn -0.003921628 -0.9999924 0
vn -0.003921628 -0.9999924 0
vn -0.003921628 0.9999924 0
vn -0.003921628 0.9999924 0
vn -0.003921628 0.9999924 0
vn -0.003921628 0.9999924 0
vn -0.003921628 -0.9999924 0
vn -0.003921628 -0.9999924 0
vn -0.003921628 -0.9999924 0
vn -0.003921628 -0.9999924 0
vn -0.003921628 -0.9999924 0
vn -0.003921628 -0.9999924 0
vn -0.003921628 -0.9999924 0
vn -0.003921628 -0.9999924 0
vn -0.003921628 0.9999924 0
vn -0.003921628 0.9999924 0
vn -0.003921628 0.9999924 0
vn -0.003921628 0.9999924 0
vn -0.003921628 0.9999924 0
vn -0.003921628 0.9999924 0
vn -0.003921628 0.9999924 0
vn -0.003921628 0.9999924 0
vn -0.003921628 -0.9999924 0
vn -0.003921628 -0.9999924 0
vn -0.003921628 -0.9999924 0
vn -0.003921628 -0.9999924 0
vn -0.003921628 -0.9999924 0
vn -0.003921628 -0.9999924 0
vn -0.003921628 -0.9999924 0
vn -0.003921628 -0.9999924 0
vn -0.003921628 0.9999924 0
vn -0.003921628 0.9999924 0
vn -0.003921628 0.9999924 0
vn -0.003921628 0.9999924 0
vn -0.003921628 0.9999924 0
vn -0.003921628 0.9999924 0
vn -0.003921628 0.9999924 0
vn -0.003921628 0.9999924 0
vn -0.8431308 -0.5450939 0
vn -0.8431308 -0.5450939 0
vn -0.8431308 -0.5450939 0
vn -0.8431308 -0.5450939 0
vn -0.003921628 -0.5921524 -0.8058165
vn -0.003921628 -0.5921524 -0.8058165
vn -0.003921628 -0.5921524 -0.8058165
vn -0.003921628 -0.5921524 -0.8058165
vn 0.8431308 -0.5450939 0
vn 0.8431308 -0.5450939 0
vn 0.8431308 -0.5450939 0
vn 0.8431308 -0.5450939 0
vn 0.8431308 0.5450939 0
vn 0.8431308 0.5450939 0
vn 0.8431308 0.5450939 0
vn 0.8431308 0.5450939 0
vn -0.003921628 0.5921524 -0.8058165
vn -0.003921628 0.5921524 -0.8058165
vn -0.003921628 0.5921524 -0.8058165
vn -0.003921628 0.5921524 -0.8058165
vn -0.8431308 0.5450939 0
vn -0.8431308 0.5450939 0
vn -0.8431308 0.5450939 0
vn -0.8431308 0.5450939 0
vn -0.8431308 -0.5450939 0
vn -0.8431308 -0.5450939 0
vn -0.8431308 -0.5450939 0
vn -0.8431308 -0.5450939 0
vn -0.003921628 -0.5921524 -0.8058165
vn -0.003921628 -0.5921524 -0.8058165
vn -0.003921628 -0.5921524 -0.8058165
vn -0.003921628 -0.5921524 -0.8058165
vn 0.8431308 -0.5450939 0
vn 0.8431308 -0.5450939 0
vn 0.8431308 -0.5450939 0
vn 0.8431308 -0.5450939 0
vn 0.8431308 0.5450939 0
vn 0.8431308 0.5450939 0
vn 0.8431308 0.5450939 0
vn 0.8431308 0.5450939 0
vn -0.003921628 0.5921524 -0.8058165
vn -0.003921628 0.5921524 -0.8058165
vn -0.003921628 0.5921524 -0.8058165
vn -0.003921628 0.5921524 -0.8058165
vn -0.8431308 0.5450939 0
vn -0.8431308 0.5450939 0
vn -0.8431308 0.5450939 0
vn -0.8431308 0.5450939 0
vn -0.003921628 0.003921628 0.9999846
vn -0.003921628 0.003921628 0.9999846
vn -0.003921628 0.003921628 0.9999846
vn -0.003921628 0.003921628 0.9999846
vn 0.9999924 0.003921628 0
vn 0.9999924 0.003921628 0
vn 0.9999924 0.003921628 0
vn 0.9999924 0.003921628 0
vn -0.9999924 0.003921628 0
vn -0.9999924 0.003921628 0
vn -0.9999924 0.003921628 0
vn -0.9999924 0.003921628 0
vn -0.003921628 0.003921628 0.9999846
vn -0.003921628 0.003921628 0.9999846
vn -0.003921628 0.003921628 0.9999846
vn -0.003921628 0.003921628 0.9999846
vn 0.9999924 0.003921628 0
vn 0.9999924 0.003921628 0
vn 0.9999924 0.003921628 0
vn 0.9999924 0.003921628 0
vn -0.9999924 0.003921628 0
vn -0.9999924 0.003921628 0
vn -0.9999924 0.003921628 0
vn -0.9999924 0.003921628 0
g arch_01_0
f 3/3/3 2/2/2 1/1/1
f 4/4/4 3/3/3 1/1/1
f 7/7/7 6/6/6 5/5/5
f 8/8/8 7/7/7 5/5/5
f 11/11/11 10/10/10 9/9/9
f 12/12/12 11/11/11 9/9/9
f 15/15/15 14/14/14 13/13/13
f 16/16/16 15/15/15 13/13/13
f 19/19/19 18/18/18 17/17/17
f 20/20/20 19/19/19 17/17/17
f 23/23/23 22/22/22 21/21/21
f 24/24/24 23/23/23 21/21/21
f 27/27/27 26/26/26 25/25/25
f 28/28/28 27/27/27 25/25/25
f 31/31/31 30/30/30 29/29/29
f 32/32/32 31/31/31 29/29/29
f 35/35/35 34/34/34 33/33/33
f 36/36/36 35/35/35 33/33/33
f 39/39/39 38/38/38 37/37/37
f 37/37/37 40/40/40 39/39/39
f 40/40/40 41/41/41 39/39/39
f 44/44/44 43/43/43 42/42/42
f 42/42/42 45/45/45 44/44/44
f 42/42/42 46/46/46 45/45/45
f 49/49/49 48/48/48 47/47/47
f 50/50/50 49/49/49 47/47/47
f 53/53/53 52/52/52 51/51/51
f 54/54/54 53/53/53 51/51/51
f 57/57/57 56/56/56 55/55/55
f 58/58/58 57/57/57 55/55/55
f 61/61/61 60/60/60 59/59/59
f 59/59/59 62/62/62 61/61/61
f 62/62/62 63/63/63 61/61/61
f 66/66/66 65/65/65 64/64/64
f 64/64/64 67/67/67 66/66/66
f 64/64/64 68/68/68 67/67/67
f 71/71/71 70/70/70 69/69/69
f 72/72/72 71/71/71 69/69/69
f 75/75/75 74/74/74 73/73/73
f 76/76/76 75/75/75 73/73/73
f 79/79/79 78/78/78 77/77/77
f 80/80/80 79/79/79 77/77/77
f 83/83/83 82/82/82 81/81/81
f 81/81/81 84/84/84 83/83/83
f 84/84/84 85/85/85 83/83/83
f 88/88/88 87/87/87 86/86/86
f 86/86/86 89/89/89 88/88/88
f 86/86/86 90/90/90 89/89/89
f 93/93/93 92/92/92 91/91/91
f 94/94/94 93/93/93 91/91/91
f 97/97/97 96/96/96 95/95/95
f 98/98/98 97/97/97 95/95/95
f 101/101/101 100/100/100 99/99/99
f 102/102/102 101/101/101 99/99/99
f 105/105/105 104/104/104 103/103/103
f 103/103/103 106/106/106 105/105/105
f 106/106/106 107/107/107 105/105/105
f 110/110/110 109/109/109 108/108/108
f 108/108/108 111/111/111 110/110/110
f 108/108/108 112/112/112 111/111/111
f 115/115/115 114/114/114 113/113/113
f 116/116/116 115/115/115 113/113/113
f 119/119/119 118/118/118 117/117/117
f 120/120/120 119/119/119 117/117/117
f 123/123/123 122/122/122 121/121/121
f 124/124/124 123/123/123 121/121/121
f 127/127/127 126/126/126 125/125/125
f 125/125/125 128/128/128 127/127/127
f 128/128/128 129/129/129 127/127/127
f 132/132/132 131/131/131 130/130/130
f 130/130/130 133/133/133 132/132/132
f 130/130/130 134/134/134 133/133/133
f 137/137/137 136/136/136 135/135/135
f 138/138/138 137/137/137 135/135/135
f 141/141/141 140/140/140 139/139/139
f 142/142/142 141/141/141 139/139/139
f 145/145/145 144/144/144 143/143/143
f 146/146/146 145/145/145 143/143/143
f 149/149/149 148/148/148 147/147/147
f 147/147/147 150/150/150 149/149/149
f 147/147/147 151/151/151 150/150/150
f 154/154/154 153/153/153 152/152/152
f 152/152/152 155/155/155 154/154/154
f 152/152/152 156/156/156 155/155/155
f 159/159/159 158/158/158 157/157/157
f 160/160/160 159/159/159 157/157/157
f 163/163/163 162/162/162 161/161/161
f 164/164/164 163/163/163 161/161/161
f 167/167/167 166/166/166 165/165/165
f 168/168/168 167/167/167 165/165/165
f 171/171/171 170/170/170 169/169/169
f 169/169/169 172/172/172 171/171/171
f 169/169/169 173/173/173 172/172/172
f 176/176/176 175/175/175 174/174/174
f 174/174/174 177/177/177 176/176/176
f 174/174/174 178/178/178 177/177/177
f 181/181/181 180/180/180 179/179/179
f 182/182/182 181/181/181 179/179/179
f 185/185/185 184/184/184 183/183/183
f 186/186/186 185/185/185 183/183/183
f 189/189/189 188/188/188 187/187/187
f 190/190/190 189/189/189 187/187/187
f 193/193/193 192/192/192 191/191/191
f 191/191/191 194/194/194 193/193/193
f 191/191/191 195/195/195 194/194/194
f 198/198/198 197/197/197 196/196/196
f 196/196/196 199/199/199 198/198/198
f 196/196/196 200/200/200 199/199/199
f 203/203/203 202/202/202 201/201/201
f 204/204/204 203/203/203 201/201/201
f 207/207/207 206/206/206 205/205/205
f 208/208/208 207/207/207 205/205/205
f 211/211/211 210/210/210 209/209/209
f 212/212/212 211/211/211 209/209/209
f 215/215/215 214/214/214 213/213/213
f 213/213/213 216/216/216 215/215/215
f 213/213/213 217/217/217 216/216/216
f 220/220/220 219/219/219 218/218/218
f 218/218/218 221/221/221 220/220/220
f 218/218/218 222/222/222 221/221/221
f 225/225/225 224/224/224 223/223/223
f 226/226/226 225/225/225 223/223/223
f 229/229/229 228/228/228 227/227/227
f 230/230/230 229/229/229 227/227/227
f 233/233/233 232/232/232 231/231/231
f 234/234/234 233/233/233 231/231/231
f 237/237/237 236/236/236 235/235/235
f 235/235/235 238/238/238 237/237/237
f 235/235/235 239/239/239 238/238/238
f 242/242/242 241/241/241 240/240/240
f 240/240/240 243/243/243 242/242/242
f 240/240/240 244/244/244 243/243/243
f 247/247/247 246/246/246 245/245/245
f 248/248/248 247/247/247 245/245/245
f 251/251/251 250/250/250 249/249/249
f 252/252/252 251/251/251 249/249/249
f 255/255/255 254/254/254 253/253/253
f 256/256/256 255/255/255 253/253/253
f 259/259/259 258/258/258 257/257/257
f 260/260/260 259/259/259 257/257/257
f 263/263/263 262/262/262 261/261/261
f 264/264/264 263/263/263 261/261/261
f 267/267/267 266/266/266 265/265/265
f 268/268/268 267/267/267 265/265/265
f 271/271/271 270/270/270 269/269/269
f 272/272/272 271/271/271 269/269/269
f 275/275/275 274/274/274 273/273/273
f 276/276/276 275/275/275 273/273/273
f 279/279/279 278/278/278 277/277/277
f 280/280/280 279/279/279 277/277/277
f 283/283/283 282/282/282 281/281/281
f 284/284/284 283/283/283 281/281/281
f 287/287/287 286/286/286 285/285/285
f 288/288/288 287/287/287 285/285/285
f 291/291/291 290/290/290 289/289/289
f 292/292/292 291/291/291 289/289/289
f 295/295/295 294/294/294 293/293/293
f 296/296/296 295/295/295 293/293/293
f 299/299/299 298/298/298 297/297/297
f 300/300/300 299/299/299 297/297/297
f 303/303/303 302/302/302 301/301/301
f 304/304/304 303/303/303 301/301/301
f 307/307/307 306/306/306 305/305/305
f 308/308/308 307/307/307 305/305/305
f 311/311/311 310/310/310 309/309/309
f 312/312/312 311/311/311 309/309/309
f 315/315/315 314/314/314 313/313/313
f 316/316/316 315/315/315 313/313/313
f 319/319/319 318/318/318 317/317/317
f 320/320/320 319/319/319 317/317/317
f 323/323/323 322/322/322 321/321/321
f 324/324/324 323/323/323 321/321/321
f 327/327/327 326/326/326 325/325/325
f 328/328/328 327/327/327 325/325/325
f 331/331/331 330/330/330 329/329/329
f 332/332/332 331/331/331 329/329/329
f 333/333/333 330/330/330 331/331/331
f 336/336/336 335/335/335 334/334/334
f 339/339/339 338/338/338 337/337/337
f 338/338/338 340/340/340 337/337/337
f 340/340/340 341/341/341 337/337/337
f 344/344/344 343/343/343 342/342/342
f 347/347/347 346/346/346 345/345/345
f 349/349/349 348/348/348 346/346/346
f 352/352/352 351/351/351 350/350/350
f 355/355/355 354/354/354 353/353/353
f 353/353/353 354/354/354 356/356/356
f 359/359/359 358/358/358 357/357/357
f 361/361/361 360/360/360 358/358/358
f 360/360/360 362/362/362 358/358/358
f 363/363/363 362/362/362 360/360/360
f 366/366/366 365/365/365 364/364/364
f 369/369/369 368/368/368 367/367/367
f 367/367/367 368/368/368 370/370/370
f 370/370/370 368/368/368 371/371/371
f 374/374/374 373/373/373 372/372/372
f 373/373/373 375/375/375 372/372/372
f 376/376/376 375/375/375 373/373/373
f 379/379/379 378/378/378 377/377/377
f 380/380/380 379/379/379 377/377/377
f 383/383/383 382/382/382 381/381/381
f 384/384/384 383/383/383 381/381/381
f 387/387/387 386/386/386 385/385/385
f 388/388/388 387/387/387 385/385/385
f 391/391/391 390/390/390 389/389/389
f 392/392/392 391/391/391 389/389/389
f 395/395/395 394/394/394 393/393/393
f 396/396/396 395/395/395 393/393/393
f 399/399/399 398/398/398 397/397/397
f 400/400/400 399/399/399 397/397/397
f 403/403/403 402/402/402 401/401/401
f 404/404/404 403/403/403 401/401/401
f 407/407/407 406/406/406 405/405/405
f 408/408/408 407/407/407 405/405/405
f 411/411/411 410/410/410 409/409/409
f 412/412/412 411/411/411 409/409/409
f 415/415/415 414/414/414 413/413/413
f 416/416/416 415/415/415 413/413/413
f 419/419/419 418/418/418 417/417/417
f 420/420/420 419/419/419 417/417/417
f 423/423/423 422/422/422 421/421/421
f 424/424/424 423/423/423 421/421/421
f 427/427/427 426/426/426 425/425/425
f 428/428/428 427/427/427 425/425/425
f 431/431/431 430/430/430 429/429/429
f 430/430/430 432/432/432 429/429/429
f 431/431/431 433/433/433 430/430/430
f 436/436/436 435/435/435 434/434/434
f 439/439/439 438/438/438 437/437/437
f 440/440/440 439/439/439 437/437/437
f 441/441/441 440/440/440 437/437/437
f 444/444/444 443/443/443 442/442/442
f 447/447/447 446/446/446 445/445/445
f 449/449/449 448/448/448 447/447/447
f 452/452/452 451/451/451 450/450/450
f 453/453/453 452/452/452 450/450/450
f 453/453/453 454/454/454 452/452/452
f 457/457/457 456/456/456 455/455/455
f 458/458/458 457/457/457 455/455/455
f 459/459/459 458/458/458 455/455/455
f 459/459/459 460/460/460 458/458/458
f 463/463/463 462/462/462 461/461/461
f 464/464/464 463/463/463 461/461/461
f 464/464/464 465/465/465 463/463/463
f 468/468/468 467/467/467 466/466/466
f 471/471/471 470/470/470 469/469/469
f 471/471/471 469/469/469 472/472/472
f 475/475/475 474/474/474 473/473/473
f 478/478/478 477/477/477 476/476/476
f 479/479/479 478/478/478 476/476/476
f 482/482/482 481/481/481 480/480/480
f 483/483/483 482/482/482 480/480/480
f 486/486/486 485/485/485 484/484/484
f 487/487/487 486/486/486 484/484/484
f 490/490/490 489/489/489 488/488/488
f 491/491/491 490/490/490 488/488/488
f 494/494/494 493/493/493 492/492/492
f 495/495/495 494/494/494 492/492/492
f 498/498/498 497/497/497 496/496/496
f 499/499/499 498/498/498 496/496/496
f 502/502/502 501/501/501 500/500/500
f 503/503/503 502/502/502 500/500/500
f 506/506/506 505/505/505 504/504/504
f 507/507/507 506/506/506 504/504/504
f 510/510/510 509/509/509 508/508/508
f 511/511/511 510/510/510 508/508/508
f 514/514/514 513/513/513 512/512/512
f 515/515/515 514/514/514 512/512/512
f 518/518/518 517/517/517 516/516/516
f 519/519/519 518/518/518 516/516/516
f 522/522/522 521/521/521 520/520/520
f 523/523/523 522/522/522 520/520/520
f 526/526/526 525/525/525 524/524/524
f 527/527/527 526/526/526 524/524/524
f 530/530/530 529/529/529 528/528/528
f 531/531/531 530/530/530 528/528/528
f 534/534/534 533/533/533 532/532/532
f 535/535/535 534/534/534 532/532/532
f 538/538/538 537/537/537 536/536/536
f 539/539/539 538/538/538 536/536/536
f 542/542/542 541/541/541 540/540/540
f 543/543/543 542/542/542 540/540/540
f 546/546/546 545/545/545 544/544/544
f 547/547/547 546/546/546 544/544/544
f 550/550/550 549/549/549 548/548/548
f 551/551/551 550/550/550 548/548/548
f 554/554/554 553/553/553 552/552/552
f 555/555/555 554/554/554 552/552/552
f 558/558/558 557/557/557 556/556/556
f 559/559/559 558/558/558 556/556/556
f 562/562/562 561/561/561 560/560/560
f 563/563/563 562/562/562 560/560/560
f 566/566/566 565/565/565 564/564/564
f 567/567/567 566/566/566 564/564/564
f 568/568/568 566/566/566 567/567/567
f 569/569/569 568/568/568 567/567/567
f 570/570/570 568/568/568 569/569/569
f 571/571/571 570/570/570 569/569/569
f 574/574/574 573/573/573 572/572/572
f 575/575/575 574/574/574 572/572/572
f 576/576/576 574/574/574 575/575/575
f 577/577/577 576/576/576 575/575/575
f 578/578/578 576/576/576 577/577/577
f 579/579/579 578/578/578 577/577/577
f 582/582/582 581/581/581 580/580/580
f 583/583/583 582/582/582 580/580/580
f 584/584/584 582/582/582 583/583/583
f 585/585/585 584/584/584 583/583/583
f 586/586/586 584/584/584 585/585/585
f 587/587/587 586/586/586 585/585/585
f 590/590/590 589/589/589 588/588/588
f 591/591/591 590/590/590 588/588/588
f 592/592/592 590/590/590 591/591/591
f 593/593/593 592/592/592 591/591/591
f 594/594/594 592/592/592 593/593/593
f 595/595/595 594/594/594 593/593/593
f 598/598/598 597/597/597 596/596/596
f 599/599/599 598/598/598 596/596/596
f 602/602/602 601/601/601 600/600/600
f 603/603/603 602/602/602 600/600/600
f 606/606/606 605/605/605 604/604/604
f 607/607/607 606/606/606 604/604/604
f 610/610/610 609/609/609 608/608/608
f 611/611/611 610/610/610 608/608/608
f 614/614/614 613/613/613 612/612/612
f 615/615/615 614/614/614 612/612/612
f 618/618/618 617/617/617 616/616/616
f 619/619/619 618/618/618 616/616/616
f 622/622/622 621/621/621 620/620/620
f 623/623/623 622/622/622 620/620/620
f 626/626/626 625/625/625 624/624/624
f 627/627/627 626/626/626 624/624/624
f 630/630/630 629/629/629 628/628/628
f 631/631/631 630/630/630 628/628/628
f 634/634/634 633/633/633 632/632/632
f 635/635/635 634/634/634 632/632/632
f 638/638/638 637/637/637 636/636/636
f 639/639/639 638/638/638 636/636/636
f 642/642/642 641/641/641 640/640/640
f 643/643/643 642/642/642 640/640/640
f 646/646/646 645/645/645 644/644/644
f 647/647/647 646/646/646 644/644/644
f 650/650/650 649/649/649 648/648/648
f 651/651/651 650/650/650 648/648/648
f 654/654/654 653/653/653 652/652/652
f 655/655/655 654/654/654 652/652/652
f 658/658/658 657/657/657 656/656/656
f 659/659/659 658/658/658 656/656/656
f 662/662/662 661/661/661 660/660/660
f 663/663/663 662/662/662 660/660/660
f 666/666/666 665/665/665 664/664/664
f 667/667/667 666/666/666 664/664/664
