g Banch
v -2.000036 1.160009 0.5999908
v -2.000036 1.160009 -0.6000274
v -2.000036 1.239991 -0.6000274
v -2.000036 1.239991 0.5999908
v -2.000036 1.160009 -0.6000274
v 2 1.160009 -0.6000274
v 2 1.239991 -0.6000274
v -2.000036 1.239991 -0.6000274
v 2 1.160009 -0.6000274
v 2 1.160009 0.5999908
v 2 1.239991 0.5999908
v 2 1.239991 -0.6000274
v 2 1.160009 0.5999908
v -2.000036 1.160009 0.5999908
v -2.000036 1.239991 0.5999908
v 2 1.239991 0.5999908
v -2.000036 1.160009 -0.6000274
v -2.000036 1.160009 0.5999908
v 2 1.160009 0.5999908
v 2 1.160009 -0.6000274
v 2 1.239991 -0.6000274
v 2 1.239991 0.5999908
v -2.000036 1.239991 0.5999908
v -2.000036 1.239991 -0.6000274
v -2.000036 2.000036 0.6133208
v -2.000036 2.799999 0.7200365
v -2.000036 2.799999 0.8000181
v -2.000036 2.000036 0.6933026
v -2.000036 2.799999 0.7200365
v 2 2.799999 0.7200365
v 2 2.799999 0.8000181
v -2.000036 2.799999 0.8000181
v 2 2.799999 0.7200365
v 2 2.000036 0.6133208
v 2 2.000036 0.6933026
v 2 2.799999 0.8000181
v 2 2.000036 0.6133208
v -2.000036 2.000036 0.6133208
v -2.000036 2.000036 0.6933026
v 2 2.000036 0.6933026
v -2.000036 2.799999 0.7200365
v -2.000036 2.000036 0.6133208
v 2 2.000036 0.6133208
v 2 2.799999 0.7200365
v 2 2.799999 0.8000181
v 2 2.000036 0.6933026
v -2.000036 2.000036 0.6933026
v -2.000036 2.799999 0.8000181
v -1.480009 1.160009 0.5999908
v -1.480009 2.799999 0.8000181
v -1.599981 2.799999 0.8000181
v -1.599981 1.160009 0.5999908
v -1.480009 2.799999 0.8000181
v -1.480009 2.799999 0.9199908
v -1.599981 2.799999 0.9199908
v -1.599981 2.799999 0.8000181
v -1.599981 1.160009 0.7200365
v -1.599981 2.799999 0.9199908
v -1.480009 2.799999 0.9199908
v -1.480009 1.160009 0.7200365
v -1.599981 -1.847744E-05 0.5999908
v -1.599981 -1.847744E-05 0.7200365
v -1.480009 -1.847744E-05 0.7200365
v -1.480009 -1.847744E-05 0.5999908
v 1.479972 -1.847744E-05 0.5999908
v 1.479972 -1.847744E-05 0.7200365
v 1.600018 -1.847744E-05 0.7200365
v 1.600018 -1.847744E-05 0.5999908
v 1.479972 1.160009 0.7200365
v 1.479972 2.799999 0.9199908
v 1.600018 2.799999 0.9199908
v 1.600018 1.160009 0.7200365
v 1.600018 2.799999 0.8000181
v 1.600018 2.799999 0.9199908
v 1.479972 2.799999 0.9199908
v 1.479972 2.799999 0.8000181
v 1.600018 1.160009 0.5999908
v 1.600018 2.799999 0.8000181
v 1.479972 2.799999 0.8000181
v 1.479972 1.160009 0.5999908
v 1.600018 1.160009 0.7200365
v 1.600018 2.799999 0.9199908
v 1.600018 2.799999 0.8000181
v 1.600018 1.160009 0.5999908
v 1.600018 1.040036 0.5999908
v 1.600018 -1.847744E-05 0.5999908
v 1.600018 -1.847744E-05 0.7200365
v 1.600018 1.040036 -0.4799817
v 1.600018 1.160009 -0.6000274
v 1.600018 -1.847744E-05 -0.4799817
v 1.600018 -1.847744E-05 -0.6000274
v 1.479972 1.160009 0.5999908
v 1.479972 2.799999 0.8000181
v 1.479972 2.799999 0.9199908
v 1.479972 1.160009 0.7200365
v 1.479972 1.040036 0.5999908
v 1.479972 -1.847744E-05 0.7200365
v 1.479972 -1.847744E-05 0.5999908
v 1.479972 1.160009 -0.6000274
v 1.479972 1.040036 -0.4799817
v 1.479972 -1.847744E-05 -0.6000274
v 1.479972 -1.847744E-05 -0.4799817
v 1.479972 -1.847744E-05 0.5999908
v 1.600018 -1.847744E-05 0.5999908
v 1.600018 1.040036 0.5999908
v 1.479972 1.040036 0.5999908
v 1.600018 -1.847744E-05 0.7200365
v 1.479972 -1.847744E-05 0.7200365
v 1.479972 1.160009 0.7200365
v 1.600018 1.160009 0.7200365
v 1.479972 1.160009 0.5999908
v 1.479972 1.160009 -0.6000274
v 1.600018 1.160009 -0.6000274
v 1.600018 1.160009 0.5999908
v 1.600018 1.040036 0.5999908
v 1.600018 1.040036 -0.4799817
v 1.479972 1.040036 -0.4799817
v 1.479972 1.040036 0.5999908
v 1.600018 -1.847744E-05 -0.4799817
v 1.600018 -1.847744E-05 -0.6000274
v 1.479972 -1.847744E-05 -0.6000274
v 1.479972 -1.847744E-05 -0.4799817
v 1.600018 1.040036 -0.4799817
v 1.600018 -1.847744E-05 -0.4799817
v 1.479972 -1.847744E-05 -0.4799817
v 1.479972 1.040036 -0.4799817
v 1.479972 1.160009 -0.6000274
v 1.479972 -1.847744E-05 -0.6000274
v 1.600018 -1.847744E-05 -0.6000274
v 1.600018 1.160009 -0.6000274
v -1.480009 1.160009 0.7200365
v -1.480009 2.799999 0.9199908
v -1.480009 2.799999 0.8000181
v -1.480009 1.160009 0.5999908
v -1.480009 1.040036 0.5999908
v -1.480009 -1.847744E-05 0.5999908
v -1.480009 -1.847744E-05 0.7200365
v -1.480009 1.040036 -0.4799817
v -1.480009 1.160009 -0.6000274
v -1.480009 -1.847744E-05 -0.4799817
v -1.480009 -1.847744E-05 -0.6000274
v -1.599981 1.160009 0.5999908
v -1.599981 2.799999 0.8000181
v -1.599981 2.799999 0.9199908
v -1.599981 1.160009 0.7200365
v -1.599981 1.040036 0.5999908
v -1.599981 -1.847744E-05 0.7200365
v -1.599981 -1.847744E-05 0.5999908
v -1.599981 1.160009 -0.6000274
v -1.599981 1.040036 -0.4799817
v -1.599981 -1.847744E-05 -0.6000274
v -1.599981 -1.847744E-05 -0.4799817
v -1.599981 -1.847744E-05 0.5999908
v -1.480009 -1.847744E-05 0.5999908
v -1.480009 1.040036 0.5999908
v -1.599981 1.040036 0.5999908
v -1.480009 -1.847744E-05 0.7200365
v -1.599981 -1.847744E-05 0.7200365
v -1.599981 1.160009 0.7200365
v -1.480009 1.160009 0.7200365
v -1.599981 1.160009 0.5999908
v -1.599981 1.160009 -0.6000274
v -1.480009 1.160009 -0.6000274
v -1.480009 1.160009 0.5999908
v -1.480009 1.040036 0.5999908
v -1.480009 1.040036 -0.4799817
v -1.599981 1.040036 -0.4799817
v -1.599981 1.040036 0.5999908
v -1.480009 -1.847744E-05 -0.4799817
v -1.480009 -1.847744E-05 -0.6000274
v -1.599981 -1.847744E-05 -0.6000274
v -1.599981 -1.847744E-05 -0.4799817
v -1.480009 1.040036 -0.4799817
v -1.480009 -1.847744E-05 -0.4799817
v -1.599981 -1.847744E-05 -0.4799817
v -1.599981 1.040036 -0.4799817
v -1.599981 1.160009 -0.6000274
v -1.599981 -1.847744E-05 -0.6000274
v -1.480009 -1.847744E-05 -0.6000274
v -1.480009 1.160009 -0.6000274
vn -0.9999924 0.003921628 0
vn -0.9999924 0.003921628 0
vn -0.9999924 0.003921628 0
vn -0.9999924 0.003921628 0
vn -0.003921628 0.003921628 -0.9999846
vn -0.003921628 0.003921628 -0.9999846
vn -0.003921628 0.003921628 -0.9999846
vn -0.003921628 0.003921628 -0.9999846
vn 0.9999924 0.003921628 0
vn 0.9999924 0.003921628 0
vn 0.9999924 0.003921628 0
vn 0.9999924 0.003921628 0
vn -0.003921628 0.003921628 0.9999846
vn -0.003921628 0.003921628 0.9999846
vn -0.003921628 0.003921628 0.9999846
vn -0.003921628 0.003921628 0.9999846
vn -0.003921628 -0.9999924 0
vn -0.003921628 -0.9999924 0
vn -0.003921628 -0.9999924 0
vn -0.003921628 -0.9999924 0
vn -0.003921628 0.9999924 0
vn -0.003921628 0.9999924 0
vn -0.003921628 0.9999924 0
vn -0.003921628 0.9999924 0
vn -0.9999924 0.003921628 0
vn -0.9999924 0.003921628 0
vn -0.9999924 0.003921628 0
vn -0.9999924 0.003921628 0
vn -0.003921628 0.9999924 0
vn -0.003921628 0.9999924 0
vn -0.003921628 0.9999924 0
vn -0.003921628 0.9999924 0
vn 0.9999924 0.003921628 0
vn 0.9999924 0.003921628 0
vn 0.9999924 0.003921628 0
vn 0.9999924 0.003921628 0
vn -0.003921628 -0.9999924 0
vn -0.003921628 -0.9999924 0
vn -0.003921628 -0.9999924 0
vn -0.003921628 -0.9999924 0
vn -0.003921628 0.1294109 -0.9915833
vn -0.003921628 0.1294109 -0.9915833
vn -0.003921628 0.1294109 -0.9915833
vn -0.003921628 0.1294109 -0.9915833
vn -0.003921628 -0.1294107 0.9915833
vn -0.003921628 -0.1294107 0.9915833
vn -0.003921628 -0.1294107 0.9915833
vn -0.003921628 -0.1294107 0.9915833
vn -0.003921628 0.1215677 -0.9925754
vn -0.003921628 0.1215677 -0.9925754
vn -0.003921628 0.1215677 -0.9925754
vn -0.003921628 0.1215677 -0.9925754
vn -0.003921628 0.9999924 0
vn -0.003921628 0.9999924 0
vn -0.003921628 0.9999924 0
vn -0.003921628 0.9999924 0
vn -0.003921628 -0.1215677 0.9925754
vn -0.003921628 -0.1215677 0.9925754
vn -0.003921628 -0.1215677 0.9925754
vn -0.003921628 -0.1215677 0.9925754
vn -0.003921628 -0.9999924 0
vn -0.003921628 -0.9999924 0
vn -0.003921628 -0.9999924 0
vn -0.003921628 -0.9999924 0
vn -0.003921628 -0.9999924 0
vn -0.003921628 -0.9999924 0
vn -0.003921628 -0.9999924 0
vn -0.003921628 -0.9999924 0
vn -0.003921628 -0.1215677 0.9925754
vn -0.003921628 -0.1215677 0.9925754
vn -0.003921628 -0.1215677 0.9925754
vn -0.003921628 -0.1215677 0.9925754
vn -0.003921628 0.9999924 0
vn -0.003921628 0.9999924 0
vn -0.003921628 0.9999924 0
vn -0.003921628 0.9999924 0
vn -0.003921628 0.1215677 -0.9925754
vn -0.003921628 0.1215677 -0.9925754
vn -0.003921628 0.1215677 -0.9925754
vn -0.003921628 0.1215677 -0.9925754
vn 0.9999924 0.003921628 0
vn 0.9999924 0.003921628 0
vn 0.9999924 0.003921628 0
vn 0.9999924 0.003921628 0
vn 0.9999924 0.003921628 0
vn 0.9999924 0.003921628 0
vn 0.9999924 0.003921628 0
vn 0.9999924 0.003921628 0
vn 0.9999924 0.003921628 0
vn 0.9999924 0.003921628 0
vn 0.9999924 0.003921628 0
vn -0.9999924 0.003921628 0
vn -0.9999924 0.003921628 0
vn -0.9999924 0.003921628 0
vn -0.9999924 0.003921628 0
vn -0.9999924 0.003921628 0
vn -0.9999924 0.003921628 0
vn -0.9999924 0.003921628 0
vn -0.9999924 0.003921628 0
vn -0.9999924 0.003921628 0
vn -0.9999924 0.003921628 0
vn -0.9999924 0.003921628 0
vn -0.003921628 0.003921628 -0.9999846
vn -0.003921628 0.003921628 -0.9999846
vn -0.003921628 0.003921628 -0.9999846
vn -0.003921628 0.003921628 -0.9999846
vn -0.003921628 0.003921628 0.9999846
vn -0.003921628 0.003921628 0.9999846
vn -0.003921628 0.003921628 0.9999846
vn -0.003921628 0.003921628 0.9999846
vn -0.003921628 0.9999924 0
vn -0.003921628 0.9999924 0
vn -0.003921628 0.9999924 0
vn -0.003921628 0.9999924 0
vn -0.003921628 -0.9999924 0
vn -0.003921628 -0.9999924 0
vn -0.003921628 -0.9999924 0
vn -0.003921628 -0.9999924 0
vn -0.003921628 -0.9999924 0
vn -0.003921628 -0.9999924 0
vn -0.003921628 -0.9999924 0
vn -0.003921628 -0.9999924 0
vn -0.003921628 0.003921628 0.9999846
vn -0.003921628 0.003921628 0.9999846
vn -0.003921628 0.003921628 0.9999846
vn -0.003921628 0.003921628 0.9999846
vn -0.003921628 0.003921628 -0.9999846
vn -0.003921628 0.003921628 -0.9999846
vn -0.003921628 0.003921628 -0.9999846
vn -0.003921628 0.003921628 -0.9999846
vn 0.9999924 0.003921628 0
vn 0.9999924 0.003921628 0
vn 0.9999924 0.003921628 0
vn 0.9999924 0.003921628 0
vn 0.9999924 0.003921628 0
vn 0.9999924 0.003921628 0
vn 0.9999924 0.003921628 0
vn 0.9999924 0.003921628 0
vn 0.9999924 0.003921628 0
vn 0.9999924 0.003921628 0
vn 0.9999924 0.003921628 0
vn -0.9999924 0.003921628 0
vn -0.9999924 0.003921628 0
vn -0.9999924 0.003921628 0
vn -0.9999924 0.003921628 0
vn -0.9999924 0.003921628 0
vn -0.9999924 0.003921628 0
vn -0.9999924 0.003921628 0
vn -0.9999924 0.003921628 0
vn -0.9999924 0.003921628 0
vn -0.9999924 0.003921628 0
vn -0.9999924 0.003921628 0
vn -0.003921628 0.003921628 -0.9999846
vn -0.003921628 0.003921628 -0.9999846
vn -0.003921628 0.003921628 -0.9999846
vn -0.003921628 0.003921628 -0.9999846
vn -0.003921628 0.003921628 0.9999846
vn -0.003921628 0.003921628 0.9999846
vn -0.003921628 0.003921628 0.9999846
vn -0.003921628 0.003921628 0.9999846
vn -0.003921628 0.9999924 0
vn -0.003921628 0.9999924 0
vn -0.003921628 0.9999924 0
vn -0.003921628 0.9999924 0
vn -0.003921628 -0.9999924 0
vn -0.003921628 -0.9999924 0
vn -0.003921628 -0.9999924 0
vn -0.003921628 -0.9999924 0
vn -0.003921628 -0.9999924 0
vn -0.003921628 -0.9999924 0
vn -0.003921628 -0.9999924 0
vn -0.003921628 -0.9999924 0
vn -0.003921628 0.003921628 0.9999846
vn -0.003921628 0.003921628 0.9999846
vn -0.003921628 0.003921628 0.9999846
vn -0.003921628 0.003921628 0.9999846
vn -0.003921628 0.003921628 -0.9999846
vn -0.003921628 0.003921628 -0.9999846
vn -0.003921628 0.003921628 -0.9999846
vn -0.003921628 0.003921628 -0.9999846
g Banch_0
f 3/3/3 2/2/2 1/1/1
f 4/4/4 3/3/3 1/1/1
f 7/7/7 6/6/6 5/5/5
f 8/8/8 7/7/7 5/5/5
f 11/11/11 10/10/10 9/9/9
f 12/12/12 11/11/11 9/9/9
f 15/15/15 14/14/14 13/13/13
f 16/16/16 15/15/15 13/13/13
f 19/19/19 18/18/18 17/17/17
f 20/20/20 19/19/19 17/17/17
f 23/23/23 22/22/22 21/21/21
f 24/24/24 23/23/23 21/21/21
f 27/27/27 26/26/26 25/25/25
f 28/28/28 27/27/27 25/25/25
f 31/31/31 30/30/30 29/29/29
f 32/32/32 31/31/31 29/29/29
f 35/35/35 34/34/34 33/33/33
f 36/36/36 35/35/35 33/33/33
f 39/39/39 38/38/38 37/37/37
f 40/40/40 39/39/39 37/37/37
f 43/43/43 42/42/42 41/41/41
f 44/44/44 43/43/43 41/41/41
f 47/47/47 46/46/46 45/45/45
f 48/48/48 47/47/47 45/45/45
f 51/51/51 50/50/50 49/49/49
f 52/52/52 51/51/51 49/49/49
f 55/55/55 54/54/54 53/53/53
f 56/56/56 55/55/55 53/53/53
f 59/59/59 58/58/58 57/57/57
f 60/60/60 59/59/59 57/57/57
f 63/63/63 62/62/62 61/61/61
f 64/64/64 63/63/63 61/61/61
f 67/67/67 66/66/66 65/65/65
f 68/68/68 67/67/67 65/65/65
f 71/71/71 70/70/70 69/69/69
f 72/72/72 71/71/71 69/69/69
f 75/75/75 74/74/74 73/73/73
f 76/76/76 75/75/75 73/73/73
f 79/79/79 78/78/78 77/77/77
f 80/80/80 79/79/79 77/77/77
f 83/83/83 82/82/82 81/81/81
f 84/84/84 83/83/83 81/81/81
f 84/84/84 81/81/81 85/85/85
f 85/85/85 81/81/81 86/86/86
f 81/81/81 87/87/87 86/86/86
f 85/85/85 88/88/88 84/84/84
f 88/88/88 89/89/89 84/84/84
f 88/88/88 90/90/90 89/89/89
f 90/90/90 91/91/91 89/89/89
f 94/94/94 93/93/93 92/92/92
f 95/95/95 94/94/94 92/92/92
f 92/92/92 96/96/96 95/95/95
f 95/95/95 96/96/96 97/97/97
f 96/96/96 98/98/98 97/97/97
f 92/92/92 99/99/99 96/96/96
f 99/99/99 100/100/100 96/96/96
f 99/99/99 101/101/101 100/100/100
f 101/101/101 102/102/102 100/100/100
f 105/105/105 104/104/104 103/103/103
f 106/106/106 105/105/105 103/103/103
f 109/109/109 108/108/108 107/107/107
f 110/110/110 109/109/109 107/107/107
f 113/113/113 112/112/112 111/111/111
f 114/114/114 113/113/113 111/111/111
f 117/117/117 116/116/116 115/115/115
f 118/118/118 117/117/117 115/115/115
f 121/121/121 120/120/120 119/119/119
f 122/122/122 121/121/121 119/119/119
f 125/125/125 124/124/124 123/123/123
f 126/126/126 125/125/125 123/123/123
f 129/129/129 128/128/128 127/127/127
f 130/130/130 129/129/129 127/127/127
f 133/133/133 132/132/132 131/131/131
f 134/134/134 133/133/133 131/131/131
f 134/134/134 131/131/131 135/135/135
f 135/135/135 131/131/131 136/136/136
f 131/131/131 137/137/137 136/136/136
f 135/135/135 138/138/138 134/134/134
f 138/138/138 139/139/139 134/134/134
f 138/138/138 140/140/140 139/139/139
f 140/140/140 141/141/141 139/139/139
f 144/144/144 143/143/143 142/142/142
f 145/145/145 144/144/144 142/142/142
f 142/142/142 146/146/146 145/145/145
f 145/145/145 146/146/146 147/147/147
f 146/146/146 148/148/148 147/147/147
f 142/142/142 149/149/149 146/146/146
f 149/149/149 150/150/150 146/146/146
f 149/149/149 151/151/151 150/150/150
f 151/151/151 152/152/152 150/150/150
f 155/155/155 154/154/154 153/153/153
f 156/156/156 155/155/155 153/153/153
f 159/159/159 158/158/158 157/157/157
f 160/160/160 159/159/159 157/157/157
f 163/163/163 162/162/162 161/161/161
f 164/164/164 163/163/163 161/161/161
f 167/167/167 166/166/166 165/165/165
f 168/168/168 167/167/167 165/165/165
f 171/171/171 170/170/170 169/169/169
f 172/172/172 171/171/171 169/169/169
f 175/175/175 174/174/174 173/173/173
f 176/176/176 175/175/175 173/173/173
f 179/179/179 178/178/178 177/177/177
f 180/180/180 179/179/179 177/177/177
