g Barrel02
v -0.9420006 3.053671 -1.108646E-05
v -0.9420006 2.987184 -1.108646E-05
v -0.9275029 2.987184 0.03505301
v -0.9275029 3.053671 0.03505301
v -1.343552 2.23027 -1.108646E-05
v -1.3654 1.840856 -1.108646E-05
v -0.9865723 1.840856 -0.914713
v -0.9654665 1.840856 -0.9654886
v -0.9500246 2.23027 -0.9500468
v -0.970726 2.23027 -0.900013
v 1.108646E-05 2.23027 -1.343574
v 1.108646E-05 3.053671 -1.146541
v -0.04267275 3.053671 -1.128874
v -0.05002272 2.23027 -1.322873
v 1.108646E-05 3.053671 -1.146541
v 0.7680506 3.053671 -0.8284013
v 0.6310307 3.053671 -0.6805924
v 1.108646E-05 3.053671 -0.9420226
v 1.365422 1.214691 -1.108646E-05
v 1.365422 1.840856 -1.108646E-05
v 1.344383 1.840856 -0.05078661
v 1.344383 1.214691 -0.05078661
v -0.9654665 1.214691 -0.9654886
v -0.9654665 1.840856 -0.9654886
v -0.9865723 1.840856 -0.914713
v -0.9865723 1.214691 -0.914713
v 0.9654886 1.214691 -0.9654886
v 0.9654886 1.840856 -0.9654886
v 0.914713 1.840856 -0.986527
v 0.914713 1.214691 -0.986527
v -0.9654665 1.214691 -0.9654886
v -0.05083191 1.214691 -1.344383
v -0.05083191 1.840856 -1.344383
v -0.9654665 1.840856 -0.9654886
v 1.108646E-05 1.214691 -1.365422
v 1.108646E-05 1.840856 -1.365422
v -0.05083191 1.840856 -1.344383
v -0.05083191 1.214691 -1.344383
v -1.3654 1.214691 -1.108646E-05
v -1.3654 1.840856 -1.108646E-05
v -1.344362 1.840856 0.05083191
v -1.344362 1.214691 0.05083191
v -1.343552 2.23027 -1.108646E-05
v -0.970726 2.23027 -0.900013
v -0.8283792 3.053671 -0.7680506
v -1.146519 3.053671 -1.108646E-05
v 1.108646E-05 2.23027 -1.343574
v 0.900013 2.23027 -0.9707482
v 0.7680506 3.053671 -0.8284013
v 1.108646E-05 3.053671 -1.146541
v -0.8107123 3.053671 -0.8107343
v -0.04267275 3.053671 -1.128874
v -0.03505301 3.053671 -0.9274575
v -0.6660726 3.053671 -0.6660948
v 0.9500468 2.23027 -0.9500468
v 1.322873 2.23027 -0.04997754
v 1.128874 3.053671 -0.04269493
v 0.8107343 3.053671 -0.8107343
v -0.03505301 2.987184 -0.9274575
v 1.108646E-05 2.987184 -0.9420226
v 0.6310307 2.987184 -0.6805924
v -0.6660726 2.987184 -0.6660948
v 0.6660948 2.987184 -0.6660948
v -0.6806378 2.987184 -0.6310307
v 0.9274575 2.987184 -0.03507519
v -0.9420006 2.987184 -1.108646E-05
v 0.9420226 2.987184 -1.108646E-05
v 0.6805924 2.987184 0.6310085
v -0.9275029 2.987184 0.03505301
v -0.6660726 2.987184 0.6660726
v 0.6660948 2.987184 0.6660726
v 0.03507519 2.987184 0.9275029
v -0.6310085 2.987184 0.6806378
v 1.108646E-05 2.987184 0.9420006
v 0.9500468 2.23027 0.9500246
v 0.9654886 1.840856 0.9654665
v 0.05078661 1.840856 1.344362
v 0.04997754 2.23027 1.322851
v 1.108646E-05 1.840856 1.3654
v 1.108646E-05 2.23027 1.343552
v -0.914691 1.214691 0.9865723
v 1.108646E-05 1.214691 1.3654
v 1.108646E-05 0.8253448 1.343552
v -0.9000583 0.8253448 0.970726
v -0.9500246 0.8253448 0.9500246
v -0.9654665 1.214691 0.9654665
v 0.9500468 2.23027 -0.9500468
v 0.9654886 1.840856 -0.9654886
v 1.344383 1.840856 -0.05078661
v 1.365422 1.840856 -1.108646E-05
v 1.343574 2.23027 -1.108646E-05
v 1.322873 2.23027 -0.04997754
v 1.365422 1.214691 -1.108646E-05
v 1.343574 0.8253448 -1.108646E-05
v 0.9707482 0.8253448 0.9000583
v 0.9500468 0.8253448 0.9500246
v 0.9654886 1.214691 0.9654665
v 0.986527 1.214691 0.914691
v 0.914713 1.840856 -0.986527
v 0.9654886 1.840856 -0.9654886
v 0.9500468 2.23027 -0.9500468
v 0.900013 2.23027 -0.9707482
v 1.108646E-05 1.840856 -1.365422
v 1.108646E-05 2.23027 -1.343574
v -0.05083191 1.840856 -1.344383
v 1.108646E-05 1.840856 -1.365422
v 1.108646E-05 2.23027 -1.343574
v -0.05002272 2.23027 -1.322873
v -0.9500246 2.23027 -0.9500468
v -0.9654665 1.840856 -0.9654886
v -0.05002272 0.8253448 -1.322873
v 1.108646E-05 0.8253448 -1.343574
v 1.108646E-05 1.214691 -1.365422
v -0.05083191 1.214691 -1.344383
v -0.9500246 0.8253448 -0.9500468
v -0.9654665 1.214691 -0.9654886
v 1.343574 2.23027 -1.108646E-05
v 1.365422 1.840856 -1.108646E-05
v 0.986527 1.840856 0.914691
v 0.9654886 1.840856 0.9654665
v 0.9500468 2.23027 0.9500246
v 0.9707482 2.23027 0.9000583
v -0.9654665 1.214691 0.9654665
v -0.9500246 0.8253448 0.9500246
v -1.322851 0.8253448 0.05002272
v -1.343552 0.8253448 -1.108646E-05
v -1.3654 1.214691 -1.108646E-05
v -1.344362 1.214691 0.05083191
v -0.9500246 2.23027 0.9500246
v -0.9654665 1.840856 0.9654665
v -1.344362 1.840856 0.05083191
v -1.3654 1.840856 -1.108646E-05
v -1.343552 2.23027 -1.108646E-05
v -1.322851 2.23027 0.05002272
v 0.05078661 1.214691 1.344362
v 0.9654886 1.214691 0.9654665
v 0.9500468 0.8253448 0.9500246
v 0.04997754 0.8253448 1.322851
v 1.108646E-05 1.214691 1.3654
v 1.108646E-05 0.8253448 1.343552
v 0.9500468 0.8253448 -0.9500468
v 0.9654886 1.214691 -0.9654886
v 0.914713 1.214691 -0.986527
v 0.900013 0.8253448 -0.9707482
v 1.108646E-05 1.214691 -1.365422
v 1.108646E-05 0.8253448 -1.343574
v 0.9500468 0.8253448 -0.9500468
v 1.322873 0.8253448 -0.04997754
v 1.343574 0.8253448 -1.108646E-05
v 1.365422 1.214691 -1.108646E-05
v 0.9654886 1.214691 -0.9654886
v 1.344383 1.214691 -0.05078661
v -1.343552 0.8253448 -1.108646E-05
v -0.970726 0.8253448 -0.900013
v -0.9500246 0.8253448 -0.9500468
v -0.9654665 1.214691 -0.9654886
v -1.3654 1.214691 -1.108646E-05
v -0.9865723 1.214691 -0.914713
v 0.6660948 3.053671 -0.6660948
v 0.6660948 2.987184 -0.6660948
v 0.6310307 2.987184 -0.6805924
v 0.6310307 3.053671 -0.6805924
v 1.108646E-05 3.053671 -0.9420226
v 0.6310307 3.053671 -0.6805924
v 0.6310307 2.987184 -0.6805924
v 1.108646E-05 2.987184 -0.9420226
v -1.343552 2.23027 -1.108646E-05
v -1.146519 3.053671 -1.108646E-05
v -1.128852 3.053671 0.04267275
v -1.322851 2.23027 0.05002272
v -0.9500246 2.23027 0.9500246
v -1.322851 2.23027 0.05002272
v -1.128852 3.053671 0.04267275
v -0.8107123 3.053671 0.8107123
v 1.108646E-05 0.00187695 1.146519
v 1.108646E-05 0.8253448 1.343552
v 0.04997754 0.8253448 1.322851
v 0.04269493 0.00187695 1.128852
v -0.8107123 3.053671 -0.8107343
v -0.6660726 3.053671 -0.6660948
v -0.6806378 3.053671 -0.6310307
v -0.8283792 3.053671 -0.7680506
v -0.6660726 3.053671 -0.6660948
v -0.6660726 2.987184 -0.6660948
v -0.6806378 2.987184 -0.6310307
v -0.6806378 3.053671 -0.6310307
v 0.9500468 2.23027 0.9500246
v 0.8107343 3.053671 0.8107123
v 0.8284013 3.053671 0.7680283
v 0.9707482 2.23027 0.9000583
v -0.9420006 3.053671 -1.108646E-05
v -0.6806378 3.053671 -0.6310307
v -0.6806378 2.987184 -0.6310307
v -0.9420006 2.987184 -1.108646E-05
v 0.9654886 1.214691 0.9654665
v 0.05078661 1.214691 1.344362
v 0.05078661 1.840856 1.344362
v 0.9654886 1.840856 0.9654665
v 1.108646E-05 1.214691 1.3654
v 1.108646E-05 1.840856 1.3654
v 0.05078661 1.840856 1.344362
v 0.05078661 1.214691 1.344362
v 1.146541 0.00187695 -1.108646E-05
v 1.343574 0.8253448 -1.108646E-05
v 1.322873 0.8253448 -0.04997754
v 1.128874 0.00187695 -0.04269493
v -0.6660726 3.053671 0.6660726
v -0.9275029 3.053671 0.03505301
v -0.9275029 2.987184 0.03505301
v -0.6660726 2.987184 0.6660726
v -0.6660726 3.053671 0.6660726
v -0.6660726 2.987184 0.6660726
v -0.6310085 2.987184 0.6806378
v -0.6310085 3.053671 0.6806378
v 1.146541 0.00187695 -1.108646E-05
v 0.8284013 0.00187695 0.7680283
v 0.9707482 0.8253448 0.9000583
v 1.343574 0.8253448 -1.108646E-05
v 0.8107343 0.00187695 0.8107123
v 0.9500468 0.8253448 0.9500246
v 0.9707482 0.8253448 0.9000583
v 0.8284013 0.00187695 0.7680283
v 0.8107343 0.00187695 -0.8107343
v 0.9500468 0.8253448 -0.9500468
v 0.900013 0.8253448 -0.9707482
v 0.7680506 0.00187695 -0.8284013
v 0.9500468 2.23027 0.9500246
v 0.04997754 2.23027 1.322851
v 0.04269493 3.053671 1.128852
v 0.8107343 3.053671 0.8107123
v 1.108646E-05 2.23027 1.343552
v 1.108646E-05 3.053671 1.146519
v 0.04269493 3.053671 1.128852
v 0.04997754 2.23027 1.322851
v 0.9654886 1.214691 -0.9654886
v 1.344383 1.214691 -0.05078661
v 1.344383 1.840856 -0.05078661
v 0.9654886 1.840856 -0.9654886
v 1.108646E-05 0.00187695 -1.146541
v 1.108646E-05 0.8253448 -1.343574
v -0.05002272 0.8253448 -1.322873
v -0.04267275 0.00187695 -1.128874
v -0.6310085 3.053671 0.6806378
v -0.6310085 2.987184 0.6806378
v 1.108646E-05 2.987184 0.9420006
v 1.108646E-05 3.053671 0.9420006
v -0.8107123 3.053671 0.8107123
v -0.6660726 3.053671 0.6660726
v -0.6310085 3.053671 0.6806378
v -0.7680283 3.053671 0.8283792
v 1.365422 1.214691 -1.108646E-05
v 0.986527 1.214691 0.914691
v 0.986527 1.840856 0.914691
v 1.365422 1.840856 -1.108646E-05
v 0.9654886 1.214691 0.9654665
v 0.9654886 1.840856 0.9654665
v 0.986527 1.840856 0.914691
v 0.986527 1.214691 0.914691
v 1.108646E-05 1.214691 -1.365422
v 0.914713 1.214691 -0.986527
v 0.914713 1.840856 -0.986527
v 1.108646E-05 1.840856 -1.365422
v -0.8107123 0.00187695 -0.8107343
v -0.9500246 0.8253448 -0.9500468
v -0.970726 0.8253448 -0.900013
v -0.8283792 0.00187695 -0.7680506
v 0.8107343 3.053671 0.8107123
v 0.04269493 3.053671 1.128852
v 0.03507519 3.053671 0.9275029
v 0.6660948 3.053671 0.6660726
v 1.108646E-05 3.053671 1.146519
v 1.108646E-05 3.053671 0.9420006
v 0.03507519 3.053671 0.9275029
v 0.04269493 3.053671 1.128852
v -0.7680283 3.053671 0.8283792
v -0.6310085 3.053671 0.6806378
v 1.108646E-05 3.053671 0.9420006
v 1.108646E-05 3.053671 1.146519
v -0.9654665 1.214691 0.9654665
v -0.9654665 1.840856 0.9654665
v -0.914691 1.840856 0.9865723
v -0.914691 1.214691 0.9865723
v 1.343574 2.23027 -1.108646E-05
v 1.146541 3.053671 -1.108646E-05
v 1.128874 3.053671 -0.04269493
v 1.322873 2.23027 -0.04997754
v -1.146519 0.00187695 -1.108646E-05
v -1.343552 0.8253448 -1.108646E-05
v -1.322851 0.8253448 0.05002272
v -1.128852 0.00187695 0.04267275
v 1.146541 3.053671 -1.108646E-05
v 0.8284013 3.053671 0.7680283
v 0.6805924 3.053671 0.6310085
v 0.9420226 3.053671 -1.108646E-05
v 0.8107343 3.053671 0.8107123
v 0.6660948 3.053671 0.6660726
v 0.6805924 3.053671 0.6310085
v 0.8284013 3.053671 0.7680283
v 0.9500468 2.23027 -0.9500468
v 0.8107343 3.053671 -0.8107343
v 0.7680506 3.053671 -0.8284013
v 0.900013 2.23027 -0.9707482
v -1.3654 1.214691 -1.108646E-05
v -0.9865723 1.214691 -0.914713
v -0.9865723 1.840856 -0.914713
v -1.3654 1.840856 -1.108646E-05
v 0.6660948 3.053671 0.6660726
v 0.03507519 3.053671 0.9275029
v 0.03507519 2.987184 0.9275029
v 0.6660948 2.987184 0.6660726
v 1.108646E-05 3.053671 0.9420006
v 1.108646E-05 2.987184 0.9420006
v 0.03507519 2.987184 0.9275029
v 0.03507519 3.053671 0.9275029
v -0.914691 1.214691 0.9865723
v -0.914691 1.840856 0.9865723
v 1.108646E-05 1.840856 1.3654
v 1.108646E-05 1.214691 1.3654
v -0.8107123 0.00187695 0.8107123
v -0.9500246 0.8253448 0.9500246
v -0.9000583 0.8253448 0.970726
v -0.7680283 0.00187695 0.8283792
v 0.8107343 3.053671 -0.8107343
v 1.128874 3.053671 -0.04269493
v 0.9274575 3.053671 -0.03507519
v 0.6660948 3.053671 -0.6660948
v 1.146541 3.053671 -1.108646E-05
v 0.9420226 3.053671 -1.108646E-05
v 0.9274575 3.053671 -0.03507519
v 1.128874 3.053671 -0.04269493
v 1.108646E-05 3.053671 -1.146541
v 1.108646E-05 3.053671 -0.9420226
v -0.03505301 3.053671 -0.9274575
v -0.04267275 3.053671 -1.128874
v -0.9654665 1.214691 0.9654665
v -1.344362 1.214691 0.05083191
v -1.344362 1.840856 0.05083191
v -0.9654665 1.840856 0.9654665
v 0.9420226 3.053671 -1.108646E-05
v 0.6805924 3.053671 0.6310085
v 0.6805924 2.987184 0.6310085
v 0.9420226 2.987184 -1.108646E-05
v 0.6660948 3.053671 0.6660726
v 0.6660948 2.987184 0.6660726
v 0.6805924 2.987184 0.6310085
v 0.6805924 3.053671 0.6310085
v -0.7680283 0.00187695 0.8283792
v -0.9000583 0.8253448 0.970726
v 1.108646E-05 0.8253448 1.343552
v 1.108646E-05 0.00187695 1.146519
v -0.9500246 2.23027 0.9500246
v -0.8107123 3.053671 0.8107123
v -0.7680283 3.053671 0.8283792
v -0.9000583 2.23027 0.970726
v 0.8107343 3.053671 -0.8107343
v 0.6660948 3.053671 -0.6660948
v 0.6310307 3.053671 -0.6805924
v 0.7680506 3.053671 -0.8284013
v -0.9500246 2.23027 -0.9500468
v -0.8107123 3.053671 -0.8107343
v -0.8283792 3.053671 -0.7680506
v -0.970726 2.23027 -0.900013
v 0.6660948 3.053671 -0.6660948
v 0.9274575 3.053671 -0.03507519
v 0.9274575 2.987184 -0.03507519
v 0.6660948 2.987184 -0.6660948
v 0.9420226 3.053671 -1.108646E-05
v 0.9420226 2.987184 -1.108646E-05
v 0.9274575 2.987184 -0.03507519
v 0.9274575 3.053671 -0.03507519
v 1.108646E-05 3.053671 -0.9420226
v 1.108646E-05 2.987184 -0.9420226
v -0.03505301 2.987184 -0.9274575
v -0.03505301 3.053671 -0.9274575
v -0.6660726 3.053671 -0.6660948
v -0.03505301 3.053671 -0.9274575
v -0.03505301 2.987184 -0.9274575
v -0.6660726 2.987184 -0.6660948
v -0.9000583 2.23027 0.970726
v -0.7680283 3.053671 0.8283792
v 1.108646E-05 3.053671 1.146519
v 1.108646E-05 2.23027 1.343552
v -1.146519 3.053671 -1.108646E-05
v -0.8283792 3.053671 -0.7680506
v -0.6806378 3.053671 -0.6310307
v -0.9420006 3.053671 -1.108646E-05
v 0.8107343 0.00187695 0.8107123
v 0.04269493 0.00187695 1.128852
v 0.04997754 0.8253448 1.322851
v 0.9500468 0.8253448 0.9500246
v -1.146519 3.053671 -1.108646E-05
v -0.9420006 3.053671 -1.108646E-05
v -0.9275029 3.053671 0.03505301
v -1.128852 3.053671 0.04267275
v -0.8107123 3.053671 0.8107123
v -1.128852 3.053671 0.04267275
v -0.9275029 3.053671 0.03505301
v -0.6660726 3.053671 0.6660726
v 1.343574 2.23027 -1.108646E-05
v 0.9707482 2.23027 0.9000583
v 0.8284013 3.053671 0.7680283
v 1.146541 3.053671 -1.108646E-05
v 0.8107343 0.00187695 -0.8107343
v 1.128874 0.00187695 -0.04269493
v 1.322873 0.8253448 -0.04997754
v 0.9500468 0.8253448 -0.9500468
v -0.9500246 2.23027 -0.9500468
v -0.05002272 2.23027 -1.322873
v -0.04267275 3.053671 -1.128874
v -0.8107123 3.053671 -0.8107343
v 1.108646E-05 0.00187695 -1.146541
v 0.7680506 0.00187695 -0.8284013
v 0.900013 0.8253448 -0.9707482
v 1.108646E-05 0.8253448 -1.343574
v -0.8107123 0.00187695 -0.8107343
v -0.04267275 0.00187695 -1.128874
v -0.05002272 0.8253448 -1.322873
v -0.9500246 0.8253448 -0.9500468
v -1.146519 0.00187695 -1.108646E-05
v -0.8283792 0.00187695 -0.7680506
v -0.970726 0.8253448 -0.900013
v -1.343552 0.8253448 -1.108646E-05
v -0.8107123 0.00187695 0.8107123
v -1.128852 0.00187695 0.04267275
v -1.322851 0.8253448 0.05002272
v -0.9500246 0.8253448 0.9500246
v 1.108646E-05 2.23027 1.343552
v 1.108646E-05 1.840856 1.3654
v -0.914691 1.840856 0.9865723
v -0.9000583 2.23027 0.970726
v -0.9500246 2.23027 0.9500246
v -0.9654665 1.840856 0.9654665
vt 0.699664 0.1569391
vt 0.699664 0.1569391
vt 0.699664 0.1569391
vt 0.699664 0.1569391
vt 0.5774063 1.002004
vt 0.5774063 1.002004
vt 0.5774063 1.002004
vt 0.5774063 1.002004
vt 0.5774063 1.002004
vt 0.5774063 1.002004
vt 0.699664 0.1569391
vt 0.699664 0.1569391
vt 0.699664 0.1569391
vt 0.699664 0.1569391
vt 0.9648309 0.3601512
vt 0.9648309 0.3601512
vt 0.9648309 0.3601512
vt 0.9648309 0.3601512
vt 0.699664 0.1569391
vt 0.699664 0.1569391
vt 0.699664 0.1569391
vt 0.699664 0.1569391
vt 0.699664 0.1569391
vt 0.699664 0.1569391
vt 0.699664 0.1569391
vt 0.699664 0.1569391
vt 0.699664 0.1569391
vt 0.699664 0.1569391
vt 0.699664 0.1569391
vt 0.699664 0.1569391
vt 0.9648309 0.3601512
vt 0.9648309 0.3601512
vt 0.9648309 0.3601512
vt 0.9648309 0.3601512
vt 0.699664 0.1569391
vt 0.699664 0.1569391
vt 0.699664 0.1569391
vt 0.699664 0.1569391
vt 0.699664 0.1569391
vt 0.699664 0.1569391
vt 0.699664 0.1569391
vt 0.699664 0.1569391
vt 0.9648309 0.3601512
vt 0.9648309 0.3601512
vt 0.9648309 0.3601512
vt 0.9648309 0.3601512
vt 0.9648309 0.3601512
vt 0.9648309 0.3601512
vt 0.9648309 0.3601512
vt 0.9648309 0.3601512
vt 0.9648309 0.3601512
vt 0.9648309 0.3601512
vt 0.9648309 0.3601512
vt 0.9648309 0.3601512
vt 0.9648309 0.3601512
vt 0.9648309 0.3601512
vt 0.9648309 0.3601512
vt 0.9648309 0.3601512
vt 0.8210956 0.3510645
vt 0.8210956 0.3510645
vt 0.8210956 0.3510645
vt 0.8210956 0.3510645
vt 0.8210956 0.3510645
vt 0.8210956 0.3510645
vt 0.8210956 0.3510645
vt 0.8210956 0.3510645
vt 0.8210956 0.3510645
vt 0.8210956 0.3510645
vt 0.8210956 0.3510645
vt 0.8210956 0.3510645
vt 0.8210956 0.3510645
vt 0.8210956 0.3510645
vt 0.8210956 0.3510645
vt 0.8210956 0.3510645
vt 0.5774063 1.002004
vt 0.5774063 1.002004
vt 0.5774063 1.002004
vt 0.5774063 1.002004
vt 0.5774063 1.002004
vt 0.5774063 1.002004
vt 0.5774063 1.002004
vt 0.5774063 1.002004
vt 0.5774063 1.002004
vt 0.5774063 1.002004
vt 0.5774063 1.002004
vt 0.5774063 1.002004
vt 0.5774063 1.002004
vt 0.5774063 1.002004
vt 0.5774063 1.002004
vt 0.5774063 1.002004
vt 0.5774063 1.002004
vt 0.5774063 1.002004
vt 0.5774063 1.002004
vt 0.5774063 1.002004
vt 0.5774063 1.002004
vt 0.5774063 1.002004
vt 0.5774063 1.002004
vt 0.5774063 1.002004
vt 0.5774063 1.002004
vt 0.5774063 1.002004
vt 0.5774063 1.002004
vt 0.5774063 1.002004
vt 0.5774063 1.002004
vt 0.5774063 1.002004
vt 0.5774063 1.002004
vt 0.5774063 1.002004
vt 0.5774063 1.002004
vt 0.5774063 1.002004
vt 0.5774063 1.002004
vt 0.5774063 1.002004
vt 0.5774063 1.002004
vt 0.5774063 1.002004
vt 0.5774063 1.002004
vt 0.5774063 1.002004
vt 0.5774063 1.002004
vt 0.5774063 1.002004
vt 0.5774063 1.002004
vt 0.5774063 1.002004
vt 0.5774063 1.002004
vt 0.5774063 1.002004
vt 0.5774063 1.002004
vt 0.5774063 1.002004
vt 0.5774063 1.002004
vt 0.5774063 1.002004
vt 0.5774063 1.002004
vt 0.5774063 1.002004
vt 0.5774063 1.002004
vt 0.5774063 1.002004
vt 0.5774063 1.002004
vt 0.5774063 1.002004
vt 0.5774063 1.002004
vt 0.5774063 1.002004
vt 0.5774063 1.002004
vt 0.5774063 1.002004
vt 0.5774063 1.002004
vt 0.5774063 1.002004
vt 0.5774063 1.002004
vt 0.5774063 1.002004
vt 0.5774063 1.002004
vt 0.5774063 1.002004
vt 0.5774063 1.002004
vt 0.5774063 1.002004
vt 0.5774063 1.002004
vt 0.5774063 1.002004
vt 0.5774063 1.002004
vt 0.5774063 1.002004
vt 0.5774063 1.002004
vt 0.5774063 1.002004
vt 0.5774063 1.002004
vt 0.5774063 1.002004
vt 0.5774063 1.002004
vt 0.5774063 1.002004
vt 0.5774063 1.002004
vt 0.5774063 1.002004
vt 0.5774063 1.002004
vt 0.5774063 1.002004
vt 0.5774063 1.002004
vt 0.5774063 1.002004
vt 0.699664 0.1569391
vt 0.699664 0.1569391
vt 0.699664 0.1569391
vt 0.699664 0.1569391
vt 0.9648309 0.3601512
vt 0.9648309 0.3601512
vt 0.9648309 0.3601512
vt 0.9648309 0.3601512
vt 0.699664 0.1569391
vt 0.699664 0.1569391
vt 0.699664 0.1569391
vt 0.699664 0.1569391
vt 0.9648309 0.3601512
vt 0.9648309 0.3601512
vt 0.9648309 0.3601512
vt 0.9648309 0.3601512
vt 0.699664 0.1569391
vt 0.699664 0.1569391
vt 0.699664 0.1569391
vt 0.699664 0.1569391
vt 0.699664 0.1569391
vt 0.699664 0.1569391
vt 0.699664 0.1569391
vt 0.699664 0.1569391
vt 0.699664 0.1569391
vt 0.699664 0.1569391
vt 0.699664 0.1569391
vt 0.699664 0.1569391
vt 0.699664 0.1569391
vt 0.699664 0.1569391
vt 0.699664 0.1569391
vt 0.699664 0.1569391
vt 0.9648309 0.3601512
vt 0.9648309 0.3601512
vt 0.9648309 0.3601512
vt 0.9648309 0.3601512
vt 0.9648309 0.3601512
vt 0.9648309 0.3601512
vt 0.9648309 0.3601512
vt 0.9648309 0.3601512
vt 0.699664 0.1569391
vt 0.699664 0.1569391
vt 0.699664 0.1569391
vt 0.699664 0.1569391
vt 0.699664 0.1569391
vt 0.699664 0.1569391
vt 0.699664 0.1569391
vt 0.699664 0.1569391
vt 0.9648309 0.3601512
vt 0.9648309 0.3601512
vt 0.9648309 0.3601512
vt 0.9648309 0.3601512
vt 0.699664 0.1569391
vt 0.699664 0.1569391
vt 0.699664 0.1569391
vt 0.699664 0.1569391
vt 0.9648309 0.3601512
vt 0.9648309 0.3601512
vt 0.9648309 0.3601512
vt 0.9648309 0.3601512
vt 0.699664 0.1569391
vt 0.699664 0.1569391
vt 0.699664 0.1569391
vt 0.699664 0.1569391
vt 0.699664 0.1569391
vt 0.699664 0.1569391
vt 0.699664 0.1569391
vt 0.699664 0.1569391
vt 0.9648309 0.3601512
vt 0.9648309 0.3601512
vt 0.9648309 0.3601512
vt 0.9648309 0.3601512
vt 0.699664 0.1569391
vt 0.699664 0.1569391
vt 0.699664 0.1569391
vt 0.699664 0.1569391
vt 0.9648309 0.3601512
vt 0.9648309 0.3601512
vt 0.9648309 0.3601512
vt 0.9648309 0.3601512
vt 0.699664 0.1569391
vt 0.699664 0.1569391
vt 0.699664 0.1569391
vt 0.699664 0.1569391
vt 0.9648309 0.3601512
vt 0.9648309 0.3601512
vt 0.9648309 0.3601512
vt 0.9648309 0.3601512
vt 0.699664 0.1569391
vt 0.699664 0.1569391
vt 0.699664 0.1569391
vt 0.699664 0.1569391
vt 0.9648309 0.3601512
vt 0.9648309 0.3601512
vt 0.9648309 0.3601512
vt 0.9648309 0.3601512
vt 0.699664 0.1569391
vt 0.699664 0.1569391
vt 0.699664 0.1569391
vt 0.699664 0.1569391
vt 0.9648309 0.3601512
vt 0.9648309 0.3601512
vt 0.9648309 0.3601512
vt 0.9648309 0.3601512
vt 0.699664 0.1569391
vt 0.699664 0.1569391
vt 0.699664 0.1569391
vt 0.699664 0.1569391
vt 0.9648309 0.3601512
vt 0.9648309 0.3601512
vt 0.9648309 0.3601512
vt 0.9648309 0.3601512
vt 0.699664 0.1569391
vt 0.699664 0.1569391
vt 0.699664 0.1569391
vt 0.699664 0.1569391
vt 0.9648309 0.3601512
vt 0.9648309 0.3601512
vt 0.9648309 0.3601512
vt 0.9648309 0.3601512
vt 0.699664 0.1569391
vt 0.699664 0.1569391
vt 0.699664 0.1569391
vt 0.699664 0.1569391
vt 0.699664 0.1569391
vt 0.699664 0.1569391
vt 0.699664 0.1569391
vt 0.699664 0.1569391
vt 0.699664 0.1569391
vt 0.699664 0.1569391
vt 0.699664 0.1569391
vt 0.699664 0.1569391
vt 0.9648309 0.3601512
vt 0.9648309 0.3601512
vt 0.9648309 0.3601512
vt 0.9648309 0.3601512
vt 0.699664 0.1569391
vt 0.699664 0.1569391
vt 0.699664 0.1569391
vt 0.699664 0.1569391
vt 0.699664 0.1569391
vt 0.699664 0.1569391
vt 0.699664 0.1569391
vt 0.699664 0.1569391
vt 0.9648309 0.3601512
vt 0.9648309 0.3601512
vt 0.9648309 0.3601512
vt 0.9648309 0.3601512
vt 0.9648309 0.3601512
vt 0.9648309 0.3601512
vt 0.9648309 0.3601512
vt 0.9648309 0.3601512
vt 0.699664 0.1569391
vt 0.699664 0.1569391
vt 0.699664 0.1569391
vt 0.699664 0.1569391
vt 0.9648309 0.3601512
vt 0.9648309 0.3601512
vt 0.9648309 0.3601512
vt 0.9648309 0.3601512
vt 0.699664 0.1569391
vt 0.699664 0.1569391
vt 0.699664 0.1569391
vt 0.699664 0.1569391
vt 0.9648309 0.3601512
vt 0.9648309 0.3601512
vt 0.9648309 0.3601512
vt 0.9648309 0.3601512
vt 0.699664 0.1569391
vt 0.699664 0.1569391
vt 0.699664 0.1569391
vt 0.699664 0.1569391
vt 0.699664 0.1569391
vt 0.699664 0.1569391
vt 0.699664 0.1569391
vt 0.699664 0.1569391
vt 0.9648309 0.3601512
vt 0.9648309 0.3601512
vt 0.9648309 0.3601512
vt 0.9648309 0.3601512
vt 0.9648309 0.3601512
vt 0.9648309 0.3601512
vt 0.9648309 0.3601512
vt 0.9648309 0.3601512
vt 0.699664 0.1569391
vt 0.699664 0.1569391
vt 0.699664 0.1569391
vt 0.699664 0.1569391
vt 0.9648309 0.3601512
vt 0.9648309 0.3601512
vt 0.9648309 0.3601512
vt 0.9648309 0.3601512
vt 0.699664 0.1569391
vt 0.699664 0.1569391
vt 0.699664 0.1569391
vt 0.699664 0.1569391
vt 0.699664 0.1569391
vt 0.699664 0.1569391
vt 0.699664 0.1569391
vt 0.699664 0.1569391
vt 0.699664 0.1569391
vt 0.699664 0.1569391
vt 0.699664 0.1569391
vt 0.699664 0.1569391
vt 0.9648309 0.3601512
vt 0.9648309 0.3601512
vt 0.9648309 0.3601512
vt 0.9648309 0.3601512
vt 0.699664 0.1569391
vt 0.699664 0.1569391
vt 0.699664 0.1569391
vt 0.699664 0.1569391
vt 0.699664 0.1569391
vt 0.699664 0.1569391
vt 0.699664 0.1569391
vt 0.699664 0.1569391
vt 0.9648309 0.3601512
vt 0.9648309 0.3601512
vt 0.9648309 0.3601512
vt 0.9648309 0.3601512
vt 0.9648309 0.3601512
vt 0.9648309 0.3601512
vt 0.9648309 0.3601512
vt 0.9648309 0.3601512
vt 0.9648309 0.3601512
vt 0.9648309 0.3601512
vt 0.9648309 0.3601512
vt 0.9648309 0.3601512
vt 0.9648309 0.3601512
vt 0.9648309 0.3601512
vt 0.9648309 0.3601512
vt 0.9648309 0.3601512
vt 0.699664 0.1569391
vt 0.699664 0.1569391
vt 0.699664 0.1569391
vt 0.699664 0.1569391
vt 0.9648309 0.3601512
vt 0.9648309 0.3601512
vt 0.9648309 0.3601512
vt 0.9648309 0.3601512
vt 0.9648309 0.3601512
vt 0.9648309 0.3601512
vt 0.9648309 0.3601512
vt 0.9648309 0.3601512
vt 0.9648309 0.3601512
vt 0.9648309 0.3601512
vt 0.9648309 0.3601512
vt 0.9648309 0.3601512
vt 0.9648309 0.3601512
vt 0.9648309 0.3601512
vt 0.9648309 0.3601512
vt 0.9648309 0.3601512
vt 0.9648309 0.3601512
vt 0.9648309 0.3601512
vt 0.9648309 0.3601512
vt 0.9648309 0.3601512
vt 0.9648309 0.3601512
vt 0.9648309 0.3601512
vt 0.9648309 0.3601512
vt 0.9648309 0.3601512
vt 0.9648309 0.3601512
vt 0.9648309 0.3601512
vt 0.9648309 0.3601512
vt 0.9648309 0.3601512
vt 0.9648309 0.3601512
vt 0.9648309 0.3601512
vt 0.9648309 0.3601512
vt 0.9648309 0.3601512
vt 0.5774063 1.002004
vt 0.5774063 1.002004
vt 0.5774063 1.002004
vt 0.5774063 1.002004
vt 0.5774063 1.002004
vt 0.5774063 1.002004
vn 0.9238801 -0.003438294 -0.3826666
vn 0.9238801 -0.003438294 -0.3826666
vn 0.9238801 -0.003438294 -0.3826666
vn 0.9238801 -0.003438294 -0.3826666
vn -0.9245481 0.04937398 -0.3778531
vn -0.9245481 0.04937398 -0.3778531
vn -0.9245481 0.04937398 -0.3778531
vn -0.9245481 0.04937398 -0.3778531
vn -0.9245481 0.04937398 -0.3778531
vn -0.9245481 0.04937398 -0.3778531
vn -0.3737919 0.2153553 -0.902165
vn -0.3737919 0.2153553 -0.902165
vn -0.3737919 0.2153553 -0.902165
vn -0.3737919 0.2153553 -0.902165
vn 0.003438294 0.9999942 0
vn 0.003438294 0.9999942 0
vn 0.003438294 0.9999942 0
vn 0.003438294 0.9999942 0
vn 0.9238801 -0.003438294 -0.3826666
vn 0.9238801 -0.003438294 -0.3826666
vn 0.9238801 -0.003438294 -0.3826666
vn 0.9238801 -0.003438294 -0.3826666
vn -0.9245481 -0.003438294 -0.3810498
vn -0.9245481 -0.003438294 -0.3810498
vn -0.9245481 -0.003438294 -0.3810498
vn -0.9245481 -0.003438294 -0.3810498
vn 0.3806685 -0.003438294 -0.9247051
vn 0.3806685 -0.003438294 -0.9247051
vn 0.3806685 -0.003438294 -0.9247051
vn 0.3806685 -0.003438294 -0.9247051
vn -0.3813366 -0.003438294 -0.9244299
vn -0.3813366 -0.003438294 -0.9244299
vn -0.3813366 -0.003438294 -0.9244299
vn -0.3813366 -0.003438294 -0.9244299
vn -0.3813366 -0.003438294 -0.9244299
vn -0.3813366 -0.003438294 -0.9244299
vn -0.3813366 -0.003438294 -0.9244299
vn -0.3813366 -0.003438294 -0.9244299
vn -0.9245481 -0.003438294 0.3810498
vn -0.9245481 -0.003438294 0.3810498
vn -0.9245481 -0.003438294 0.3810498
vn -0.9245481 -0.003438294 0.3810498
vn -0.9019144 0.2153553 -0.3743963
vn -0.9019144 0.2153553 -0.3743963
vn -0.9019144 0.2153553 -0.3743963
vn -0.9019144 0.2153553 -0.3743963
vn 0.3731239 0.2153553 -0.9024415
vn 0.3731239 0.2153553 -0.9024415
vn 0.3731239 0.2153553 -0.9024415
vn 0.3731239 0.2153553 -0.9024415
vn 0.003438294 0.9999942 0
vn 0.003438294 0.9999942 0
vn 0.003438294 0.9999942 0
vn 0.003438294 0.9999942 0
vn 0.9012463 0.2153553 -0.3760016
vn 0.9012463 0.2153553 -0.3760016
vn 0.9012463 0.2153553 -0.3760016
vn 0.9012463 0.2153553 -0.3760016
vn 0.003438294 0.9999942 0
vn 0.003438294 0.9999942 0
vn 0.003438294 0.9999942 0
vn 0.003438294 0.9999942 0
vn 0.003438294 0.9999942 0
vn 0.003438294 0.9999942 0
vn 0.003438294 0.9999942 0
vn 0.003438294 0.9999942 0
vn 0.003438294 0.9999942 0
vn 0.003438294 0.9999942 0
vn 0.003438294 0.9999942 0
vn 0.003438294 0.9999942 0
vn 0.003438294 0.9999942 0
vn 0.003438294 0.9999942 0
vn 0.003438294 0.9999942 0
vn 0.003438294 0.9999942 0
vn 0.3806685 0.04937398 0.9233925
vn 0.3806685 0.04937398 0.9233925
vn 0.3806685 0.04937398 0.9233925
vn 0.3806685 0.04937398 0.9233925
vn 0.3806685 0.04937398 0.9233925
vn 0.3806685 0.04937398 0.9233925
vn -0.3813366 -0.04870594 0.9231523
vn -0.3813366 -0.04870594 0.9231523
vn -0.3813366 -0.04870594 0.9231523
vn -0.3813366 -0.04870594 0.9231523
vn -0.3813366 -0.04870594 0.9231523
vn -0.3813366 -0.04870594 0.9231523
vn 0.9238801 0.04937398 -0.3794836
vn 0.9238801 0.04937398 -0.3794836
vn 0.9238801 0.04937398 -0.3794836
vn 0.9238801 0.04937398 -0.3794836
vn 0.9238801 0.04937398 -0.3794836
vn 0.9238801 0.04937398 -0.3794836
vn 0.9238801 -0.04870594 0.3795699
vn 0.9238801 -0.04870594 0.3795699
vn 0.9238801 -0.04870594 0.3795699
vn 0.9238801 -0.04870594 0.3795699
vn 0.9238801 -0.04870594 0.3795699
vn 0.9238801 -0.04870594 0.3795699
vn 0.3806685 0.04937398 -0.9233925
vn 0.3806685 0.04937398 -0.9233925
vn 0.3806685 0.04937398 -0.9233925
vn 0.3806685 0.04937398 -0.9233925
vn 0.3806685 0.04937398 -0.9233925
vn 0.3806685 0.04937398 -0.9233925
vn -0.3813366 0.04937398 -0.9231168
vn -0.3813366 0.04937398 -0.9231168
vn -0.3813366 0.04937398 -0.9231168
vn -0.3813366 0.04937398 -0.9231168
vn -0.3813366 0.04937398 -0.9231168
vn -0.3813366 0.04937398 -0.9231168
vn -0.3813366 -0.04870594 -0.9231523
vn -0.3813366 -0.04870594 -0.9231523
vn -0.3813366 -0.04870594 -0.9231523
vn -0.3813366 -0.04870594 -0.9231523
vn -0.3813366 -0.04870594 -0.9231523
vn -0.3813366 -0.04870594 -0.9231523
vn 0.9238801 0.04937398 0.3794836
vn 0.9238801 0.04937398 0.3794836
vn 0.9238801 0.04937398 0.3794836
vn 0.9238801 0.04937398 0.3794836
vn 0.9238801 0.04937398 0.3794836
vn 0.9238801 0.04937398 0.3794836
vn -0.9245481 -0.04870594 0.3779398
vn -0.9245481 -0.04870594 0.3779398
vn -0.9245481 -0.04870594 0.3779398
vn -0.9245481 -0.04870594 0.3779398
vn -0.9245481 -0.04870594 0.3779398
vn -0.9245481 -0.04870594 0.3779398
vn -0.9245481 0.04937398 0.3778531
vn -0.9245481 0.04937398 0.3778531
vn -0.9245481 0.04937398 0.3778531
vn -0.9245481 0.04937398 0.3778531
vn -0.9245481 0.04937398 0.3778531
vn -0.9245481 0.04937398 0.3778531
vn 0.3806685 -0.04870594 0.9234279
vn 0.3806685 -0.04870594 0.9234279
vn 0.3806685 -0.04870594 0.9234279
vn 0.3806685 -0.04870594 0.9234279
vn 0.3806685 -0.04870594 0.9234279
vn 0.3806685 -0.04870594 0.9234279
vn 0.3806685 -0.04870594 -0.9234279
vn 0.3806685 -0.04870594 -0.9234279
vn 0.3806685 -0.04870594 -0.9234279
vn 0.3806685 -0.04870594 -0.9234279
vn 0.3806685 -0.04870594 -0.9234279
vn 0.3806685 -0.04870594 -0.9234279
vn 0.9238801 -0.04870594 -0.3795699
vn 0.9238801 -0.04870594 -0.3795699
vn 0.9238801 -0.04870594 -0.3795699
vn 0.9238801 -0.04870594 -0.3795699
vn 0.9238801 -0.04870594 -0.3795699
vn 0.9238801 -0.04870594 -0.3795699
vn -0.9245481 -0.04870594 -0.3779398
vn -0.9245481 -0.04870594 -0.3779398
vn -0.9245481 -0.04870594 -0.3779398
vn -0.9245481 -0.04870594 -0.3779398
vn -0.9245481 -0.04870594 -0.3779398
vn -0.9245481 -0.04870594 -0.3779398
vn -0.3813366 -0.003438294 0.9244299
vn -0.3813366 -0.003438294 0.9244299
vn -0.3813366 -0.003438294 0.9244299
vn -0.3813366 -0.003438294 0.9244299
vn -0.3813366 -0.003438294 0.9244299
vn -0.3813366 -0.003438294 0.9244299
vn -0.3813366 -0.003438294 0.9244299
vn -0.3813366 -0.003438294 0.9244299
vn -0.9019144 0.2153553 0.3743963
vn -0.9019144 0.2153553 0.3743963
vn -0.9019144 0.2153553 0.3743963
vn -0.9019144 0.2153553 0.3743963
vn -0.9019144 0.2153553 0.3743963
vn -0.9019144 0.2153553 0.3743963
vn -0.9019144 0.2153553 0.3743963
vn -0.9019144 0.2153553 0.3743963
vn 0.3731239 -0.2146872 0.9026006
vn 0.3731239 -0.2146872 0.9026006
vn 0.3731239 -0.2146872 0.9026006
vn 0.3731239 -0.2146872 0.9026006
vn 0.003438294 0.9999942 0
vn 0.003438294 0.9999942 0
vn 0.003438294 0.9999942 0
vn 0.003438294 0.9999942 0
vn 0.9238801 -0.003438294 0.3826666
vn 0.9238801 -0.003438294 0.3826666
vn 0.9238801 -0.003438294 0.3826666
vn 0.9238801 -0.003438294 0.3826666
vn 0.9012463 0.2153553 0.3760016
vn 0.9012463 0.2153553 0.3760016
vn 0.9012463 0.2153553 0.3760016
vn 0.9012463 0.2153553 0.3760016
vn 0.9238801 -0.003438294 0.3826666
vn 0.9238801 -0.003438294 0.3826666
vn 0.9238801 -0.003438294 0.3826666
vn 0.9238801 -0.003438294 0.3826666
vn 0.3806685 -0.003438294 0.9247051
vn 0.3806685 -0.003438294 0.9247051
vn 0.3806685 -0.003438294 0.9247051
vn 0.3806685 -0.003438294 0.9247051
vn 0.3806685 -0.003438294 0.9247051
vn 0.3806685 -0.003438294 0.9247051
vn 0.3806685 -0.003438294 0.9247051
vn 0.3806685 -0.003438294 0.9247051
vn 0.9012463 -0.2146872 -0.3763835
vn 0.9012463 -0.2146872 -0.3763835
vn 0.9012463 -0.2146872 -0.3763835
vn 0.9012463 -0.2146872 -0.3763835
vn 0.9238801 -0.003438294 -0.3826666
vn 0.9238801 -0.003438294 -0.3826666
vn 0.9238801 -0.003438294 -0.3826666
vn 0.9238801 -0.003438294 -0.3826666
vn 0.3806685 -0.003438294 -0.9247051
vn 0.3806685 -0.003438294 -0.9247051
vn 0.3806685 -0.003438294 -0.9247051
vn 0.3806685 -0.003438294 -0.9247051
vn 0.9012463 -0.2146872 0.3763835
vn 0.9012463 -0.2146872 0.3763835
vn 0.9012463 -0.2146872 0.3763835
vn 0.9012463 -0.2146872 0.3763835
vn 0.9012463 -0.2146872 0.3763835
vn 0.9012463 -0.2146872 0.3763835
vn 0.9012463 -0.2146872 0.3763835
vn 0.9012463 -0.2146872 0.3763835
vn 0.3731239 -0.2146872 -0.9026006
vn 0.3731239 -0.2146872 -0.9026006
vn 0.3731239 -0.2146872 -0.9026006
vn 0.3731239 -0.2146872 -0.9026006
vn 0.3731239 0.2153553 0.9024415
vn 0.3731239 0.2153553 0.9024415
vn 0.3731239 0.2153553 0.9024415
vn 0.3731239 0.2153553 0.9024415
vn 0.3731239 0.2153553 0.9024415
vn 0.3731239 0.2153553 0.9024415
vn 0.3731239 0.2153553 0.9024415
vn 0.3731239 0.2153553 0.9024415
vn 0.9238801 -0.003438294 -0.3826666
vn 0.9238801 -0.003438294 -0.3826666
vn 0.9238801 -0.003438294 -0.3826666
vn 0.9238801 -0.003438294 -0.3826666
vn -0.3737919 -0.2146872 -0.9023242
vn -0.3737919 -0.2146872 -0.9023242
vn -0.3737919 -0.2146872 -0.9023242
vn -0.3737919 -0.2146872 -0.9023242
vn 0.3806685 -0.003438294 -0.9247051
vn 0.3806685 -0.003438294 -0.9247051
vn 0.3806685 -0.003438294 -0.9247051
vn 0.3806685 -0.003438294 -0.9247051
vn 0.003438294 0.9999942 0
vn 0.003438294 0.9999942 0
vn 0.003438294 0.9999942 0
vn 0.003438294 0.9999942 0
vn 0.9238801 -0.003438294 0.3826666
vn 0.9238801 -0.003438294 0.3826666
vn 0.9238801 -0.003438294 0.3826666
vn 0.9238801 -0.003438294 0.3826666
vn 0.9238801 -0.003438294 0.3826666
vn 0.9238801 -0.003438294 0.3826666
vn 0.9238801 -0.003438294 0.3826666
vn 0.9238801 -0.003438294 0.3826666
vn 0.3806685 -0.003438294 -0.9247051
vn 0.3806685 -0.003438294 -0.9247051
vn 0.3806685 -0.003438294 -0.9247051
vn 0.3806685 -0.003438294 -0.9247051
vn -0.9019144 -0.2146872 -0.3747798
vn -0.9019144 -0.2146872 -0.3747798
vn -0.9019144 -0.2146872 -0.3747798
vn -0.9019144 -0.2146872 -0.3747798
vn 0.003438294 0.9999942 0
vn 0.003438294 0.9999942 0
vn 0.003438294 0.9999942 0
vn 0.003438294 0.9999942 0
vn 0.003438294 0.9999942 0
vn 0.003438294 0.9999942 0
vn 0.003438294 0.9999942 0
vn 0.003438294 0.9999942 0
vn 0.003438294 0.9999942 0
vn 0.003438294 0.9999942 0
vn 0.003438294 0.9999942 0
vn 0.003438294 0.9999942 0
vn -0.3813366 -0.003438294 0.9244299
vn -0.3813366 -0.003438294 0.9244299
vn -0.3813366 -0.003438294 0.9244299
vn -0.3813366 -0.003438294 0.9244299
vn 0.9012463 0.2153553 -0.3760016
vn 0.9012463 0.2153553 -0.3760016
vn 0.9012463 0.2153553 -0.3760016
vn 0.9012463 0.2153553 -0.3760016
vn -0.9019144 -0.2146872 0.3747798
vn -0.9019144 -0.2146872 0.3747798
vn -0.9019144 -0.2146872 0.3747798
vn -0.9019144 -0.2146872 0.3747798
vn 0.003438294 0.9999942 0
vn 0.003438294 0.9999942 0
vn 0.003438294 0.9999942 0
vn 0.003438294 0.9999942 0
vn 0.003438294 0.9999942 0
vn 0.003438294 0.9999942 0
vn 0.003438294 0.9999942 0
vn 0.003438294 0.9999942 0
vn 0.3731239 0.2153553 -0.9024415
vn 0.3731239 0.2153553 -0.9024415
vn 0.3731239 0.2153553 -0.9024415
vn 0.3731239 0.2153553 -0.9024415
vn -0.9245481 -0.003438294 -0.3810498
vn -0.9245481 -0.003438294 -0.3810498
vn -0.9245481 -0.003438294 -0.3810498
vn -0.9245481 -0.003438294 -0.3810498
vn -0.3813366 -0.003438294 -0.9244299
vn -0.3813366 -0.003438294 -0.9244299
vn -0.3813366 -0.003438294 -0.9244299
vn -0.3813366 -0.003438294 -0.9244299
vn -0.3813366 -0.003438294 -0.9244299
vn -0.3813366 -0.003438294 -0.9244299
vn -0.3813366 -0.003438294 -0.9244299
vn -0.3813366 -0.003438294 -0.9244299
vn -0.3813366 -0.003438294 0.9244299
vn -0.3813366 -0.003438294 0.9244299
vn -0.3813366 -0.003438294 0.9244299
vn -0.3813366 -0.003438294 0.9244299
vn -0.3737919 -0.2146872 0.9023242
vn -0.3737919 -0.2146872 0.9023242
vn -0.3737919 -0.2146872 0.9023242
vn -0.3737919 -0.2146872 0.9023242
vn 0.003438294 0.9999942 0
vn 0.003438294 0.9999942 0
vn 0.003438294 0.9999942 0
vn 0.003438294 0.9999942 0
vn 0.003438294 0.9999942 0
vn 0.003438294 0.9999942 0
vn 0.003438294 0.9999942 0
vn 0.003438294 0.9999942 0
vn 0.003438294 0.9999942 0
vn 0.003438294 0.9999942 0
vn 0.003438294 0.9999942 0
vn 0.003438294 0.9999942 0
vn -0.9245481 -0.003438294 0.3810498
vn -0.9245481 -0.003438294 0.3810498
vn -0.9245481 -0.003438294 0.3810498
vn -0.9245481 -0.003438294 0.3810498
vn -0.9245481 -0.003438294 -0.3810498
vn -0.9245481 -0.003438294 -0.3810498
vn -0.9245481 -0.003438294 -0.3810498
vn -0.9245481 -0.003438294 -0.3810498
vn -0.9245481 -0.003438294 -0.3810498
vn -0.9245481 -0.003438294 -0.3810498
vn -0.9245481 -0.003438294 -0.3810498
vn -0.9245481 -0.003438294 -0.3810498
vn -0.3737919 -0.2146872 0.9023242
vn -0.3737919 -0.2146872 0.9023242
vn -0.3737919 -0.2146872 0.9023242
vn -0.3737919 -0.2146872 0.9023242
vn -0.3737919 0.2153553 0.902165
vn -0.3737919 0.2153553 0.902165
vn -0.3737919 0.2153553 0.902165
vn -0.3737919 0.2153553 0.902165
vn 0.003438294 0.9999942 0
vn 0.003438294 0.9999942 0
vn 0.003438294 0.9999942 0
vn 0.003438294 0.9999942 0
vn -0.9019144 0.2153553 -0.3743963
vn -0.9019144 0.2153553 -0.3743963
vn -0.9019144 0.2153553 -0.3743963
vn -0.9019144 0.2153553 -0.3743963
vn -0.9245481 -0.003438294 0.3810498
vn -0.9245481 -0.003438294 0.3810498
vn -0.9245481 -0.003438294 0.3810498
vn -0.9245481 -0.003438294 0.3810498
vn -0.9245481 -0.003438294 0.3810498
vn -0.9245481 -0.003438294 0.3810498
vn -0.9245481 -0.003438294 0.3810498
vn -0.9245481 -0.003438294 0.3810498
vn 0.3806685 -0.003438294 0.9247051
vn 0.3806685 -0.003438294 0.9247051
vn 0.3806685 -0.003438294 0.9247051
vn 0.3806685 -0.003438294 0.9247051
vn 0.3806685 -0.003438294 0.9247051
vn 0.3806685 -0.003438294 0.9247051
vn 0.3806685 -0.003438294 0.9247051
vn 0.3806685 -0.003438294 0.9247051
vn -0.3737919 0.2153553 0.902165
vn -0.3737919 0.2153553 0.902165
vn -0.3737919 0.2153553 0.902165
vn -0.3737919 0.2153553 0.902165
vn 0.003438294 0.9999942 0
vn 0.003438294 0.9999942 0
vn 0.003438294 0.9999942 0
vn 0.003438294 0.9999942 0
vn 0.3731239 -0.2146872 0.9026006
vn 0.3731239 -0.2146872 0.9026006
vn 0.3731239 -0.2146872 0.9026006
vn 0.3731239 -0.2146872 0.9026006
vn 0.003438294 0.9999942 0
vn 0.003438294 0.9999942 0
vn 0.003438294 0.9999942 0
vn 0.003438294 0.9999942 0
vn 0.003438294 0.9999942 0
vn 0.003438294 0.9999942 0
vn 0.003438294 0.9999942 0
vn 0.003438294 0.9999942 0
vn 0.9012463 0.2153553 0.3760016
vn 0.9012463 0.2153553 0.3760016
vn 0.9012463 0.2153553 0.3760016
vn 0.9012463 0.2153553 0.3760016
vn 0.9012463 -0.2146872 -0.3763835
vn 0.9012463 -0.2146872 -0.3763835
vn 0.9012463 -0.2146872 -0.3763835
vn 0.9012463 -0.2146872 -0.3763835
vn -0.3737919 0.2153553 -0.902165
vn -0.3737919 0.2153553 -0.902165
vn -0.3737919 0.2153553 -0.902165
vn -0.3737919 0.2153553 -0.902165
vn 0.3731239 -0.2146872 -0.9026006
vn 0.3731239 -0.2146872 -0.9026006
vn 0.3731239 -0.2146872 -0.9026006
vn 0.3731239 -0.2146872 -0.9026006
vn -0.3737919 -0.2146872 -0.9023242
vn -0.3737919 -0.2146872 -0.9023242
vn -0.3737919 -0.2146872 -0.9023242
vn -0.3737919 -0.2146872 -0.9023242
vn -0.9019144 -0.2146872 -0.3747798
vn -0.9019144 -0.2146872 -0.3747798
vn -0.9019144 -0.2146872 -0.3747798
vn -0.9019144 -0.2146872 -0.3747798
vn -0.9019144 -0.2146872 0.3747798
vn -0.9019144 -0.2146872 0.3747798
vn -0.9019144 -0.2146872 0.3747798
vn -0.9019144 -0.2146872 0.3747798
vn -0.3813366 0.04937398 0.9231168
vn -0.3813366 0.04937398 0.9231168
vn -0.3813366 0.04937398 0.9231168
vn -0.3813366 0.04937398 0.9231168
vn -0.3813366 0.04937398 0.9231168
vn -0.3813366 0.04937398 0.9231168
g Barrel02_0
f 3/3/3 2/2/2 1/1/1
f 4/4/4 3/3/3 1/1/1
f 7/7/7 6/6/6 5/5/5
f 5/5/5 8/8/8 7/7/7
f 5/5/5 9/9/9 8/8/8
f 5/5/5 10/10/10 9/9/9
f 13/13/13 12/12/12 11/11/11
f 14/14/14 13/13/13 11/11/11
f 17/17/17 16/16/16 15/15/15
f 18/18/18 17/17/17 15/15/15
f 21/21/21 20/20/20 19/19/19
f 22/22/22 21/21/21 19/19/19
f 25/25/25 24/24/24 23/23/23
f 26/26/26 25/25/25 23/23/23
f 29/29/29 28/28/28 27/27/27
f 30/30/30 29/29/29 27/27/27
f 33/33/33 32/32/32 31/31/31
f 34/34/34 33/33/33 31/31/31
f 37/37/37 36/36/36 35/35/35
f 38/38/38 37/37/37 35/35/35
f 41/41/41 40/40/40 39/39/39
f 42/42/42 41/41/41 39/39/39
f 45/45/45 44/44/44 43/43/43
f 46/46/46 45/45/45 43/43/43
f 49/49/49 48/48/48 47/47/47
f 50/50/50 49/49/49 47/47/47
f 53/53/53 52/52/52 51/51/51
f 54/54/54 53/53/53 51/51/51
f 57/57/57 56/56/56 55/55/55
f 58/58/58 57/57/57 55/55/55
f 61/61/61 60/60/60 59/59/59
f 59/59/59 62/62/62 61/61/61
f 62/62/62 63/63/63 61/61/61
f 62/62/62 64/64/64 63/63/63
f 64/64/64 65/65/65 63/63/63
f 64/64/64 66/66/66 65/65/65
f 66/66/66 67/67/67 65/65/65
f 66/66/66 68/68/68 67/67/67
f 66/66/66 69/69/69 68/68/68
f 69/69/69 70/70/70 68/68/68
f 70/70/70 71/71/71 68/68/68
f 70/70/70 72/72/72 71/71/71
f 70/70/70 73/73/73 72/72/72
f 73/73/73 74/74/74 72/72/72
f 77/77/77 76/76/76 75/75/75
f 75/75/75 78/78/78 77/77/77
f 78/78/78 79/79/79 77/77/77
f 78/78/78 80/80/80 79/79/79
f 83/83/83 82/82/82 81/81/81
f 81/81/81 84/84/84 83/83/83
f 81/81/81 85/85/85 84/84/84
f 81/81/81 86/86/86 85/85/85
f 89/89/89 88/88/88 87/87/87
f 87/87/87 90/90/90 89/89/89
f 87/87/87 91/91/91 90/90/90
f 87/87/87 92/92/92 91/91/91
f 95/95/95 94/94/94 93/93/93
f 93/93/93 96/96/96 95/95/95
f 93/93/93 97/97/97 96/96/96
f 93/93/93 98/98/98 97/97/97
f 101/101/101 100/100/100 99/99/99
f 99/99/99 102/102/102 101/101/101
f 99/99/99 103/103/103 102/102/102
f 103/103/103 104/104/104 102/102/102
f 107/107/107 106/106/106 105/105/105
f 105/105/105 108/108/108 107/107/107
f 105/105/105 109/109/109 108/108/108
f 105/105/105 110/110/110 109/109/109
f 113/113/113 112/112/112 111/111/111
f 111/111/111 114/114/114 113/113/113
f 111/111/111 115/115/115 114/114/114
f 115/115/115 116/116/116 114/114/114
f 119/119/119 118/118/118 117/117/117
f 117/117/117 120/120/120 119/119/119
f 117/117/117 121/121/121 120/120/120
f 117/117/117 122/122/122 121/121/121
f 125/125/125 124/124/124 123/123/123
f 123/123/123 126/126/126 125/125/125
f 123/123/123 127/127/127 126/126/126
f 123/123/123 128/128/128 127/127/127
f 131/131/131 130/130/130 129/129/129
f 129/129/129 132/132/132 131/131/131
f 129/129/129 133/133/133 132/132/132
f 129/129/129 134/134/134 133/133/133
f 137/137/137 136/136/136 135/135/135
f 135/135/135 138/138/138 137/137/137
f 135/135/135 139/139/139 138/138/138
f 139/139/139 140/140/140 138/138/138
f 143/143/143 142/142/142 141/141/141
f 141/141/141 144/144/144 143/143/143
f 144/144/144 145/145/145 143/143/143
f 144/144/144 146/146/146 145/145/145
f 149/149/149 148/148/148 147/147/147
f 147/147/147 150/150/150 149/149/149
f 147/147/147 151/151/151 150/150/150
f 151/151/151 152/152/152 150/150/150
f 155/155/155 154/154/154 153/153/153
f 153/153/153 156/156/156 155/155/155
f 153/153/153 157/157/157 156/156/156
f 157/157/157 158/158/158 156/156/156
f 161/161/161 160/160/160 159/159/159
f 162/162/162 161/161/161 159/159/159
f 165/165/165 164/164/164 163/163/163
f 166/166/166 165/165/165 163/163/163
f 169/169/169 168/168/168 167/167/167
f 170/170/170 169/169/169 167/167/167
f 173/173/173 172/172/172 171/171/171
f 174/174/174 173/173/173 171/171/171
f 177/177/177 176/176/176 175/175/175
f 178/178/178 177/177/177 175/175/175
f 181/181/181 180/180/180 179/179/179
f 182/182/182 181/181/181 179/179/179
f 185/185/185 184/184/184 183/183/183
f 186/186/186 185/185/185 183/183/183
f 189/189/189 188/188/188 187/187/187
f 190/190/190 189/189/189 187/187/187
f 193/193/193 192/192/192 191/191/191
f 194/194/194 193/193/193 191/191/191
f 197/197/197 196/196/196 195/195/195
f 198/198/198 197/197/197 195/195/195
f 201/201/201 200/200/200 199/199/199
f 202/202/202 201/201/201 199/199/199
f 205/205/205 204/204/204 203/203/203
f 206/206/206 205/205/205 203/203/203
f 209/209/209 208/208/208 207/207/207
f 210/210/210 209/209/209 207/207/207
f 213/213/213 212/212/212 211/211/211
f 214/214/214 213/213/213 211/211/211
f 217/217/217 216/216/216 215/215/215
f 218/218/218 217/217/217 215/215/215
f 221/221/221 220/220/220 219/219/219
f 222/222/222 221/221/221 219/219/219
f 225/225/225 224/224/224 223/223/223
f 226/226/226 225/225/225 223/223/223
f 229/229/229 228/228/228 227/227/227
f 230/230/230 229/229/229 227/227/227
f 233/233/233 232/232/232 231/231/231
f 234/234/234 233/233/233 231/231/231
f 237/237/237 236/236/236 235/235/235
f 238/238/238 237/237/237 235/235/235
f 241/241/241 240/240/240 239/239/239
f 242/242/242 241/241/241 239/239/239
f 245/245/245 244/244/244 243/243/243
f 246/246/246 245/245/245 243/243/243
f 249/249/249 248/248/248 247/247/247
f 250/250/250 249/249/249 247/247/247
f 253/253/253 252/252/252 251/251/251
f 254/254/254 253/253/253 251/251/251
f 257/257/257 256/256/256 255/255/255
f 258/258/258 257/257/257 255/255/255
f 261/261/261 260/260/260 259/259/259
f 262/262/262 261/261/261 259/259/259
f 265/265/265 264/264/264 263/263/263
f 266/266/266 265/265/265 263/263/263
f 269/269/269 268/268/268 267/267/267
f 270/270/270 269/269/269 267/267/267
f 273/273/273 272/272/272 271/271/271
f 274/274/274 273/273/273 271/271/271
f 277/277/277 276/276/276 275/275/275
f 278/278/278 277/277/277 275/275/275
f 281/281/281 280/280/280 279/279/279
f 282/282/282 281/281/281 279/279/279
f 285/285/285 284/284/284 283/283/283
f 286/286/286 285/285/285 283/283/283
f 289/289/289 288/288/288 287/287/287
f 290/290/290 289/289/289 287/287/287
f 293/293/293 292/292/292 291/291/291
f 294/294/294 293/293/293 291/291/291
f 297/297/297 296/296/296 295/295/295
f 298/298/298 297/297/297 295/295/295
f 301/301/301 300/300/300 299/299/299
f 302/302/302 301/301/301 299/299/299
f 305/305/305 304/304/304 303/303/303
f 306/306/306 305/305/305 303/303/303
f 309/309/309 308/308/308 307/307/307
f 310/310/310 309/309/309 307/307/307
f 313/313/313 312/312/312 311/311/311
f 314/314/314 313/313/313 311/311/311
f 317/317/317 316/316/316 315/315/315
f 318/318/318 317/317/317 315/315/315
f 321/321/321 320/320/320 319/319/319
f 322/322/322 321/321/321 319/319/319
f 325/325/325 324/324/324 323/323/323
f 326/326/326 325/325/325 323/323/323
f 329/329/329 328/328/328 327/327/327
f 330/330/330 329/329/329 327/327/327
f 333/333/333 332/332/332 331/331/331
f 334/334/334 333/333/333 331/331/331
f 337/337/337 336/336/336 335/335/335
f 338/338/338 337/337/337 335/335/335
f 341/341/341 340/340/340 339/339/339
f 342/342/342 341/341/341 339/339/339
f 345/345/345 344/344/344 343/343/343
f 346/346/346 345/345/345 343/343/343
f 349/349/349 348/348/348 347/347/347
f 350/350/350 349/349/349 347/347/347
f 353/353/353 352/352/352 351/351/351
f 354/354/354 353/353/353 351/351/351
f 357/357/357 356/356/356 355/355/355
f 358/358/358 357/357/357 355/355/355
f 361/361/361 360/360/360 359/359/359
f 362/362/362 361/361/361 359/359/359
f 365/365/365 364/364/364 363/363/363
f 366/366/366 365/365/365 363/363/363
f 369/369/369 368/368/368 367/367/367
f 370/370/370 369/369/369 367/367/367
f 373/373/373 372/372/372 371/371/371
f 374/374/374 373/373/373 371/371/371
f 377/377/377 376/376/376 375/375/375
f 378/378/378 377/377/377 375/375/375
f 381/381/381 380/380/380 379/379/379
f 382/382/382 381/381/381 379/379/379
f 385/385/385 384/384/384 383/383/383
f 386/386/386 385/385/385 383/383/383
f 389/389/389 388/388/388 387/387/387
f 390/390/390 389/389/389 387/387/387
f 393/393/393 392/392/392 391/391/391
f 394/394/394 393/393/393 391/391/391
f 397/397/397 396/396/396 395/395/395
f 398/398/398 397/397/397 395/395/395
f 401/401/401 400/400/400 399/399/399
f 402/402/402 401/401/401 399/399/399
f 405/405/405 404/404/404 403/403/403
f 406/406/406 405/405/405 403/403/403
f 409/409/409 408/408/408 407/407/407
f 410/410/410 409/409/409 407/407/407
f 413/413/413 412/412/412 411/411/411
f 414/414/414 413/413/413 411/411/411
f 417/417/417 416/416/416 415/415/415
f 418/418/418 417/417/417 415/415/415
f 421/421/421 420/420/420 419/419/419
f 422/422/422 421/421/421 419/419/419
f 425/425/425 424/424/424 423/423/423
f 426/426/426 425/425/425 423/423/423
f 429/429/429 428/428/428 427/427/427
f 427/427/427 430/430/430 429/429/429
f 430/430/430 431/431/431 429/429/429
f 431/431/431 432/432/432 429/429/429
