g Box003
v -1.000259 -6 28
v -1.000259 6 28
v 0.9997406 6 28
v 0.9997406 -6 28
v -1.000259 -6 6.562905
v -1.000259 -6 28
v 0.9997406 -6 28
v 0.9997406 -6 6.562905
v 0.9997406 -6 6.356421
v -1.000259 -6 6.356421
v -1.000259 -6 4.143191
v 0.9997406 -6 4.143191
v -1.000259 -6 0
v 0.9997406 -6 0
v 0.9997406 6 6.562905
v 0.9997406 6 28
v -1.000259 6 28
v -1.000259 6 6.562905
v -1.000259 6 6.356421
v 0.9997406 6 6.356421
v 0.9997406 6 4.143191
v -1.000259 6 4.143191
v 0.9997406 6 0
v -1.000259 6 0
v -1.000259 3.362906 10.45603
v -1.000259 3.157977 9.29546
v -1.000259 6 6.562905
v -1.000259 6 28
v -1.000259 3.157977 11.6166
v -1.000259 2.568612 12.63761
v -1.000259 1.665888 13.39507
v -1.000259 0.5582361 13.79818
v -1.000259 -0.6204929 13.79818
v -1.000259 -1.727626 13.39507
v -1.000259 -6 28
v -1.000259 -2.630869 12.63761
v -1.000259 -3.219715 11.6166
v -1.000259 -3.424643 10.45603
v -1.000259 -6 6.562905
v -1.000259 -6 6.356421
v -1.000259 6 6.356421
v -1.000259 2.809857 4.25214
v -1.000259 -3.294942 4.25214
v -1.000259 -4.645396 3.163684
v -1.000259 -6 4.143191
v -1.000259 -6 0
v -1.000259 -4.645396 0
v -1.000259 4.159793 3.163684
v -1.000259 6 4.143191
v -1.000259 4.159793 0
v -1.000259 6 0
v -1.000259 -3.164721 9.218158
v -1.000259 -2.630869 8.274448
v -1.000259 -1.727626 7.516992
v -1.000259 -0.6204929 7.113877
v -1.000259 0.5582361 7.113877
v -1.000259 1.665888 7.516992
v -1.000259 2.568612 8.274448
v 0.9997406 -3.424643 10.45603
v 0.9997406 -3.167315 9.216601
v 0.9997406 -6 6.562905
v 0.9997406 -2.630869 8.274448
v 0.9997406 -1.727626 7.516992
v 0.9997406 -0.6204929 7.113877
v 0.9997406 0.5582361 7.113877
v 0.9997406 1.665888 7.516992
v 0.9997406 6 6.562905
v 0.9997406 6 6.356421
v 0.9997406 -6 6.356421
v 0.9997406 2.809857 4.25214
v 0.9997406 -3.294942 4.25214
v 0.9997406 4.159793 3.163684
v 0.9997406 6 4.143191
v 0.9997406 6 0
v 0.9997406 4.159793 0
v 0.9997406 -4.645396 3.163684
v 0.9997406 -6 4.143191
v 0.9997406 -4.645396 0
v 0.9997406 -6 0
v 0.9997406 2.568612 8.274448
v 0.9997406 3.155383 9.290272
v 0.9997406 3.362906 10.45551
v 0.9997406 6 28
v 0.9997406 3.157977 11.6166
v 0.9997406 2.568612 12.63709
v 0.9997406 1.665888 13.39507
v 0.9997406 0.5582361 13.79818
v 0.9997406 -0.6204929 13.79818
v 0.9997406 -1.727626 13.39507
v 0.9997406 -6 28
v 0.9997406 -2.630869 12.63709
v 0.9997406 -3.220234 11.6166
v 0.3237352 -2.812451 9.44384
v -0.3237352 -2.812451 9.44384
v 0.3237352 -2.298833 8.553567
v -0.3237352 -2.298833 8.553567
v -0.3237352 -1.511284 7.893126
v -0.3237352 -2.990921 10.45655
v 0.3237352 -2.990921 10.45655
v 0.3237352 -2.812451 11.46874
v -0.3237352 -2.812451 11.46874
v 0.3237352 -2.298833 12.35901
v -0.3237352 -2.298833 12.35901
v 0.3237352 -1.511284 13.01945
v -0.3237352 -1.511284 13.01945
v 0.3237352 -0.5452662 13.37121
v -0.3237352 -0.5452662 13.37121
v 0.3237352 0.4830089 13.37121
v -0.3237352 0.4830089 13.37121
v 0.3237352 -1.511284 7.893126
v -0.3237352 -0.5452662 7.541375
v 0.3237352 -0.5452662 7.541375
v -0.3237352 0.4830089 7.541375
v 0.3237352 0.4830089 7.541375
v -0.3237352 1.448508 7.893126
v 0.3237352 1.448508 7.893126
v -0.3237352 2.236057 8.553567
v 0.3237352 2.236057 8.553567
v -0.3237352 2.749157 9.442284
v 0.3237352 2.748638 9.440727
v -0.3237352 2.928663 10.45655
v 0.3237352 2.928663 10.45655
v -0.3237352 2.750195 11.46874
v 0.3237352 2.750195 11.46874
v -0.3237352 2.236057 12.35901
v 0.3237352 2.236057 12.35901
v -0.3237352 1.448508 13.01945
v 0.3237352 1.448508 13.01945
v -0.3237352 0.4830089 13.37121
v 0.3237352 0.4830089 13.37121
v 0.9997406 -3.424643 10.45603
v 0.9997406 -3.220234 11.6166
v 0.3237352 -2.812451 11.46874
v 0.3237352 -2.990921 10.45655
v -1.000259 -3.219715 11.6166
v -1.000259 -3.424643 10.45603
v -0.3237352 -2.990921 10.45655
v -0.3237352 -2.812451 11.46874
v 0.9997406 -3.220234 11.6166
v 0.9997406 -2.630869 12.63709
v 0.3237352 -2.298833 12.35901
v 0.3237352 -2.812451 11.46874
v -1.000259 -2.630869 12.63761
v -1.000259 -3.219715 11.6166
v -0.3237352 -2.812451 11.46874
v -0.3237352 -2.298833 12.35901
v 0.9997406 -2.630869 12.63709
v 0.9997406 -1.727626 13.39507
v 0.3237352 -1.511284 13.01945
v 0.3237352 -2.298833 12.35901
v -1.000259 -1.727626 13.39507
v -1.000259 -2.630869 12.63761
v -0.3237352 -2.298833 12.35901
v -0.3237352 -1.511284 13.01945
v 0.9997406 -1.727626 13.39507
v 0.9997406 -0.6204929 13.79818
v 0.3237352 -0.5452662 13.37121
v 0.3237352 -1.511284 13.01945
v -1.000259 -0.6204929 13.79818
v -1.000259 -1.727626 13.39507
v -0.3237352 -1.511284 13.01945
v -0.3237352 -0.5452662 13.37121
v 0.9997406 -0.6204929 13.79818
v 0.9997406 0.5582361 13.79818
v 0.3237352 0.4830089 13.37121
v 0.3237352 -0.5452662 13.37121
v -1.000259 0.5582361 13.79818
v -1.000259 -0.6204929 13.79818
v -0.3237352 -0.5452662 13.37121
v -0.3237352 0.4830089 13.37121
v 0.9997406 0.5582361 13.79818
v 0.9997406 1.665888 13.39507
v 0.3237352 1.448508 13.01945
v 0.3237352 0.4830089 13.37121
v -1.000259 1.665888 13.39507
v -1.000259 0.5582361 13.79818
v -0.3237352 0.4830089 13.37121
v -0.3237352 1.448508 13.01945
v 0.9997406 1.665888 13.39507
v 0.9997406 2.568612 12.63709
v 0.3237352 2.236057 12.35901
v 0.3237352 1.448508 13.01945
v -1.000259 2.568612 12.63761
v -1.000259 1.665888 13.39507
v -0.3237352 1.448508 13.01945
v -0.3237352 2.236057 12.35901
v 0.9997406 2.568612 12.63709
v 0.9997406 3.157977 11.6166
v 0.3237352 2.750195 11.46874
v 0.3237352 2.236057 12.35901
v -1.000259 3.157977 11.6166
v -1.000259 2.568612 12.63761
v -0.3237352 2.236057 12.35901
v -0.3237352 2.750195 11.46874
v 0.9997406 3.157977 11.6166
v 0.9997406 3.362906 10.45551
v 0.3237352 2.928663 10.45655
v 0.3237352 2.750195 11.46874
v -1.000259 3.362906 10.45603
v -1.000259 3.157977 11.6166
v -0.3237352 2.750195 11.46874
v -0.3237352 2.928663 10.45655
v 0.9997406 3.362906 10.45551
v 0.9997406 3.155383 9.290272
v 0.3237352 2.748638 9.440727
v 0.3237352 2.928663 10.45655
v -1.000259 3.157977 9.29546
v -1.000259 3.362906 10.45603
v -0.3237352 2.928663 10.45655
v -0.3237352 2.749157 9.442284
v -1.000259 2.568612 8.274448
v -1.000259 3.157977 9.29546
v -0.3237352 2.749157 9.442284
v -0.3237352 2.236057 8.553567
v 0.9997406 3.155383 9.290272
v 0.9997406 2.568612 8.274448
v 0.3237352 2.236057 8.553567
v 0.3237352 2.748638 9.440727
v 0.9997406 2.568612 8.274448
v 0.9997406 1.665888 7.516992
v 0.3237352 1.448508 7.893126
v 0.3237352 2.236057 8.553567
v -1.000259 1.665888 7.516992
v -1.000259 2.568612 8.274448
v -0.3237352 2.236057 8.553567
v -0.3237352 1.448508 7.893126
v 0.9997406 1.665888 7.516992
v 0.9997406 0.5582361 7.113877
v 0.3237352 0.4830089 7.541375
v 0.3237352 1.448508 7.893126
v -1.000259 0.5582361 7.113877
v -1.000259 1.665888 7.516992
v -0.3237352 1.448508 7.893126
v -0.3237352 0.4830089 7.541375
v 0.9997406 0.5582361 7.113877
v 0.9997406 -0.6204929 7.113877
v 0.3237352 -0.5452662 7.541375
v 0.3237352 0.4830089 7.541375
v -1.000259 -0.6204929 7.113877
v -1.000259 0.5582361 7.113877
v -0.3237352 0.4830089 7.541375
v -0.3237352 -0.5452662 7.541375
v 0.9997406 -0.6204929 7.113877
v 0.9997406 -1.727626 7.516992
v 0.3237352 -1.511284 7.893126
v 0.3237352 -0.5452662 7.541375
v -1.000259 -1.727626 7.516992
v -1.000259 -0.6204929 7.113877
v -0.3237352 -0.5452662 7.541375
v -0.3237352 -1.511284 7.893126
v 0.9997406 -1.727626 7.516992
v 0.9997406 -2.630869 8.274448
v 0.3237352 -2.298833 8.553567
v 0.3237352 -1.511284 7.893126
v -1.000259 -2.630869 8.274448
v -1.000259 -1.727626 7.516992
v -0.3237352 -1.511284 7.893126
v -0.3237352 -2.298833 8.553567
v 0.9997406 -3.167315 9.216601
v 0.9997406 -3.424643 10.45603
v 0.3237352 -2.990921 10.45655
v 0.9997406 -2.630869 8.274448
v 0.9997406 -3.167315 9.216601
v 0.3237352 -2.812451 9.44384
v 0.3237352 -2.298833 8.553567
v -1.000259 -3.424643 10.45603
v -1.000259 -3.164721 9.218158
v -0.3237352 -2.812451 9.44384
v -0.3237352 -2.990921 10.45655
v -1.000259 -3.164721 9.218158
v -1.000259 -2.630869 8.274448
v -0.3237352 -2.298833 8.553567
v -0.3237352 -2.812451 9.44384
v 0.9997406 -3.167315 9.216601
v 0.3237352 -2.990921 10.45655
v 0.3237352 -2.812451 9.44384
v -0.3035021 3.007523 11.64099
v -0.3035021 2.59092 9.280933
v -0.3035021 2.59092 11.64099
v -0.3035021 3.007523 9.280933
v -0.4435797 3.007523 11.64099
v -0.4435797 2.59092 9.280933
v -0.4435797 3.007523 9.280933
v -0.4435797 2.59092 11.64099
v -0.3035021 3.007523 9.280933
v -0.3439689 2.549935 9.280933
v -0.3035021 2.59092 9.280933
v -0.4435797 2.59092 9.280933
v -0.4025941 2.549935 9.280933
v -0.4435797 3.007523 9.280933
v -0.3439689 2.549935 9.280933
v -0.4025941 2.549935 11.64099
v -0.3439689 2.549935 11.64099
v -0.4025941 2.549935 9.280933
v -0.3035021 2.59092 11.64099
v -0.4435797 3.007523 11.64099
v -0.3035021 3.007523 11.64099
v -0.4025941 2.549935 11.64099
v -0.4435797 2.59092 11.64099
v -0.3439689 2.549935 11.64099
v -0.3035021 2.59092 11.64099
v -0.3439689 2.549935 9.280933
v -0.3439689 2.549935 11.64099
v -0.3035021 2.59092 9.280933
v -0.4435797 2.59092 9.280933
v -0.4025941 2.549935 11.64099
v -0.4025941 2.549935 9.280933
v -0.4435797 2.59092 11.64099
v -0.4435797 -3.027756 11.64099
v -0.4435797 -2.611154 9.280933
v -0.4435797 -2.611154 11.64099
v -0.4435797 -3.027756 9.280933
v -0.3035021 -3.027756 11.64099
v -0.3035021 -2.611154 9.280933
v -0.3035021 -3.027756 9.280933
v -0.3035021 -2.611154 11.64099
v -0.4435797 -3.027756 9.280933
v -0.4025941 -2.570168 9.280933
v -0.4435797 -2.611154 9.280933
v -0.3035021 -2.611154 9.280933
v -0.3439689 -2.570168 9.280933
v -0.3035021 -3.027756 9.280933
v -0.4025941 -2.570168 9.280933
v -0.3439689 -2.570168 11.64099
v -0.4025941 -2.570168 11.64099
v -0.3439689 -2.570168 9.280933
v -0.4435797 -2.611154 11.64099
v -0.3035021 -3.027756 11.64099
v -0.4435797 -3.027756 11.64099
v -0.3439689 -2.570168 11.64099
v -0.3035021 -2.611154 11.64099
v -0.4025941 -2.570168 11.64099
v -0.4435797 -2.611154 11.64099
v -0.4025941 -2.570168 9.280933
v -0.4025941 -2.570168 11.64099
v -0.4435797 -2.611154 9.280933
v -0.3035021 -2.611154 9.280933
v -0.3439689 -2.570168 11.64099
v -0.3439689 -2.570168 9.280933
v -0.3035021 -2.611154 11.64099
vn -0.003921628 0.003921628 0.9999846
vn -0.003921628 0.003921628 0.9999846
vn -0.003921628 0.003921628 0.9999846
vn -0.003921628 0.003921628 0.9999846
vn -0.003921628 -0.9999924 0
vn -0.003921628 -0.9999924 0
vn -0.003921628 -0.9999924 0
vn -0.003921628 -0.9999924 0
vn -0.003921628 -0.9999924 0
vn -0.003921628 -0.9999924 0
vn -0.003921628 -0.9999924 0
vn -0.003921628 -0.9999924 0
vn -0.003921628 -0.9999924 0
vn -0.003921628 -0.9999924 0
vn -0.003921628 0.9999924 0
vn -0.003921628 0.9999924 0
vn -0.003921628 0.9999924 0
vn -0.003921628 0.9999924 0
vn -0.003921628 0.9999924 0
vn -0.003921628 0.9999924 0
vn -0.003921628 0.9999924 0
vn -0.003921628 0.9999924 0
vn -0.003921628 0.9999924 0
vn -0.003921628 0.9999924 0
vn -0.9999924 0.003921628 0
vn -0.9999924 0.003921628 0
vn -0.9999924 0.003921628 0
vn -0.9999924 0.003921628 0
vn -0.9999924 0.003921628 0
vn -0.9999924 0.003921628 0
vn -0.9999924 0.003921628 0
vn -0.9999924 0.003921628 0
vn -0.9999924 0.003921628 0
vn -0.9999924 0.003921628 0
vn -0.9999924 0.003921628 0
vn -0.9999924 0.003921628 0
vn -0.9999924 0.003921628 0
vn -0.9999924 0.003921628 0
vn -0.9999924 0.003921628 0
vn -0.9999924 0.003921628 0
vn -0.9999924 0.003921628 0
vn -0.9999924 0.003921628 0
vn -0.9999924 0.003921628 0
vn -0.9999924 0.003921628 0
vn -0.9999924 0.003921628 0
vn -0.9999924 0.003921628 0
vn -0.9999924 0.003921628 0
vn -0.9999924 0.003921628 0
vn -0.9999924 0.003921628 0
vn -0.9999924 0.003921628 0
vn -0.9999924 0.003921628 0
vn -0.9999924 0.003921628 0
vn -0.9999924 0.003921628 0
vn -0.9999924 0.003921628 0
vn -0.9999924 0.003921628 0
vn 0.9999924 0.003921628 0
vn -0.9999924 0.003921628 0
vn -0.9999924 0.003921628 0
vn 0.9999924 0.003921628 0
vn 0.9999924 0.003921628 0
vn 0.9999924 0.003921628 0
vn 0.9999924 0.003921628 0
vn 0.9999924 0.003921628 0
vn 0.9999924 0.003921628 0
vn -0.9999924 0.003921628 0
vn 0.9999924 0.003921628 0
vn 0.9999924 0.003921628 0
vn 0.9999924 0.003921628 0
vn 0.9999924 0.003921628 0
vn 0.9999924 0.003921628 0
vn 0.9999924 0.003921628 0
vn 0.9999924 0.003921628 0
vn 0.9999924 0.003921628 0
vn 0.9999924 0.003921628 0
vn 0.9999924 0.003921628 0
vn 0.9999924 0.003921628 0
vn 0.9999924 0.003921628 0
vn 0.9999924 0.003921628 0
vn 0.9999924 0.003921628 0
vn 0.9999924 0.003921628 0
vn 0.9999924 0.003921628 0
vn 0.9999924 0.003921628 0
vn 0.9999924 0.003921628 0
vn 0.9999924 0.003921628 0
vn 0.9999924 0.003921628 0
vn 0.9999924 0.003921628 0
vn 0.9999924 0.003921628 0
vn 0.9999924 0.003921628 0
vn 0.9999924 0.003921628 0
vn 0.9999924 0.003921628 0
vn 0.9999924 0.003921628 0
vn 0.9999924 0.003921628 0
vn -0.003921628 0.9372478 0.3486421
vn -0.003921628 0.9372478 0.3486421
vn -0.003921628 0.7647001 0.6443745
vn -0.003921628 0.7647001 0.6443745
vn -0.003921628 0.4980354 0.8671478
vn -0.003921628 0.9999924 0
vn -0.003921628 0.9999924 0
vn -0.003921628 0.9372478 -0.3486421
vn -0.003921628 0.9372478 -0.3486421
vn -0.003921628 0.7647001 -0.6443745
vn -0.003921628 0.7647001 -0.6443745
vn -0.003921628 0.4980354 -0.8671478
vn -0.003921628 0.4980354 -0.8671478
vn -0.003921628 0.1764693 -0.9842983
vn -0.003921628 0.1764693 -0.9842983
vn -0.003921628 -0.1764692 -0.9842983
vn -0.003921628 -0.1764692 -0.9842983
vn -0.003921628 0.4980354 0.8671478
vn -0.003921628 0.1764693 0.9842983
vn -0.003921628 0.1764693 0.9842983
vn -0.003921628 -0.1764692 0.9842983
vn -0.003921628 -0.1764692 0.9842983
vn -0.003921628 -0.4980354 0.8671479
vn -0.003921628 -0.4980354 0.8671479
vn -0.003921628 -0.7647001 0.6443745
vn -0.003921628 -0.7647001 0.6443745
vn -0.003921628 -0.9372478 0.3486421
vn -0.003921628 -0.9372478 0.3486421
vn -0.003921628 -0.9999924 0
vn -0.003921628 -0.9999924 0
vn -0.003921628 -0.9372478 -0.3486421
vn -0.003921628 -0.9372478 -0.3486421
vn -0.003921628 -0.7647001 -0.6443745
vn -0.003921628 -0.7647001 -0.6443745
vn -0.003921628 -0.4980354 -0.8671479
vn -0.003921628 -0.4980354 -0.8671479
vn -0.003921628 -0.1764692 -0.9842983
vn -0.003921628 -0.1764692 -0.9842983
vn 0.5372508 0.8431308 0.02218189
vn 0.5372508 0.7882293 -0.3000935
vn 0.5372508 0.7882293 -0.3000935
vn 0.5372508 0.8431308 0.02218189
vn -0.5372509 0.7882293 -0.3000933
vn -0.5294077 0.8431308 0.09411613
vn -0.5372509 0.8431308 -0.0221792
vn -0.5372509 0.7882293 -0.3000933
vn 0.5372508 0.7882293 -0.3000935
vn 0.5372508 0.647054 -0.5410017
vn 0.5372508 0.647054 -0.5410017
vn 0.5372508 0.7882293 -0.3000935
vn -0.5372509 0.647054 -0.5410016
vn -0.5372509 0.7882293 -0.3000933
vn -0.5372509 0.7882293 -0.3000933
vn -0.5372509 0.647054 -0.5410016
vn 0.5372508 0.647054 -0.5410017
vn 0.5372508 0.4196047 -0.7316376
vn 0.5372508 0.4196047 -0.7316376
vn 0.5372508 0.647054 -0.5410017
vn -0.5372509 0.4196047 -0.7316375
vn -0.5372509 0.647054 -0.5410016
vn -0.5372509 0.647054 -0.5410016
vn -0.5372509 0.4196047 -0.7316375
vn 0.5372508 0.4196047 -0.7316376
vn 0.5372508 0.145097 -0.830848
vn 0.5372508 0.145097 -0.830848
vn 0.5372508 0.4196047 -0.7316376
vn -0.5372509 0.145097 -0.830848
vn -0.5372509 0.4196047 -0.7316375
vn -0.5372509 0.4196047 -0.7316375
vn -0.5372509 0.145097 -0.830848
vn 0.5372508 0.145097 -0.830848
vn 0.5372508 -0.1450969 -0.830848
vn 0.5372508 -0.1450969 -0.830848
vn 0.5372508 0.145097 -0.830848
vn -0.5372509 -0.1450969 -0.830848
vn -0.5372509 0.145097 -0.830848
vn -0.5372509 0.145097 -0.830848
vn -0.5372509 -0.1450969 -0.830848
vn 0.5372508 -0.1450969 -0.830848
vn 0.5372508 -0.4196046 -0.7316377
vn 0.5372508 -0.4196046 -0.7316377
vn 0.5372508 -0.1450969 -0.830848
vn -0.5372509 -0.4196046 -0.7316375
vn -0.5372509 -0.1450969 -0.830848
vn -0.5372509 -0.1450969 -0.830848
vn -0.5372509 -0.4196046 -0.7316375
vn 0.5372508 -0.4196046 -0.7316377
vn 0.5372508 -0.6470538 -0.5410018
vn 0.5372508 -0.6470538 -0.5410018
vn 0.5372508 -0.4196046 -0.7316377
vn -0.5372509 -0.6470538 -0.5410017
vn -0.5372509 -0.4196046 -0.7316375
vn -0.5372509 -0.4196046 -0.7316375
vn -0.5372509 -0.6470538 -0.5410017
vn 0.5372508 -0.6470538 -0.5410018
vn 0.5372508 -0.7882293 -0.3000937
vn 0.5372508 -0.7882293 -0.3000937
vn 0.5372508 -0.6470538 -0.5410018
vn -0.5372509 -0.7882293 -0.3000935
vn -0.5372509 -0.6470538 -0.5410017
vn -0.5372509 -0.6470538 -0.5410017
vn -0.5372509 -0.7882293 -0.3000935
vn 0.5372508 -0.7882293 -0.3000937
vn 0.5372508 -0.8431308 0.02218189
vn 0.5372508 -0.8431308 0.02218189
vn 0.5372508 -0.7882293 -0.3000937
vn -0.5372509 -0.8431308 0.0221792
vn -0.5372509 -0.7882293 -0.3000935
vn -0.5372509 -0.7882293 -0.3000935
vn -0.5372509 -0.8431308 0.0221792
vn 0.5372508 -0.8431308 0.02218189
vn 0.5372508 -0.7882293 0.3000937
vn 0.5372508 -0.7882293 0.3000937
vn 0.5372508 -0.8431308 0.02218189
vn -0.5372509 -0.7882293 0.3000935
vn -0.5372509 -0.8431308 0.0221792
vn -0.5372509 -0.8431308 0.0221792
vn -0.5372509 -0.7882293 0.3000935
vn -0.5372509 -0.6470538 0.5410017
vn -0.5372509 -0.7882293 0.3000935
vn -0.5372509 -0.7882293 0.3000935
vn -0.5372509 -0.6470538 0.5410017
vn 0.5372508 -0.7882293 0.3000937
vn 0.5372508 -0.6470538 0.5410018
vn 0.5372508 -0.6470538 0.5410018
vn 0.5372508 -0.7882293 0.3000937
vn 0.5372508 -0.6470538 0.5410018
vn 0.5372508 -0.4196046 0.7316377
vn 0.5372508 -0.4196046 0.7316377
vn 0.5372508 -0.6470538 0.5410018
vn -0.5372509 -0.4196046 0.7316375
vn -0.5372509 -0.6470538 0.5410017
vn -0.5372509 -0.6470538 0.5410017
vn -0.5372509 -0.4196046 0.7316375
vn 0.5372508 -0.4196046 0.7316377
vn 0.5372508 -0.1450969 0.830848
vn 0.5372508 -0.1450969 0.830848
vn 0.5372508 -0.4196046 0.7316377
vn -0.5372509 -0.1450969 0.830848
vn -0.5372509 -0.4196046 0.7316375
vn -0.5372509 -0.4196046 0.7316375
vn -0.5372509 -0.1450969 0.830848
vn 0.5372508 -0.1450969 0.830848
vn 0.5372508 0.145097 0.830848
vn 0.5372508 0.145097 0.830848
vn 0.5372508 -0.1450969 0.830848
vn -0.5372509 0.145097 0.830848
vn -0.5372509 -0.1450969 0.830848
vn -0.5372509 -0.1450969 0.830848
vn -0.5372509 0.145097 0.830848
vn 0.5372508 0.145097 0.830848
vn 0.5372508 0.4196047 0.7316376
vn 0.5372508 0.4196047 0.7316376
vn 0.5372508 0.145097 0.830848
vn -0.5372509 0.4196047 0.7316375
vn -0.5372509 0.145097 0.830848
vn -0.5372509 0.145097 0.830848
vn -0.5372509 0.4196047 0.7316375
vn 0.5372508 0.4196047 0.7316376
vn 0.5372508 0.647054 0.5410017
vn 0.5372508 0.647054 0.5410017
vn 0.5372508 0.4196047 0.7316376
vn -0.5372509 0.647054 0.5410016
vn -0.5372509 0.4196047 0.7316375
vn -0.5372509 0.4196047 0.7316375
vn -0.5372509 0.647054 0.5410016
vn 0.5294077 0.7960724 0.2932512
vn 0.5372508 0.8431308 0.02218189
vn 0.5372508 0.8431308 0.02218189
vn 0.5372508 0.647054 0.5410017
vn 0.5294077 0.7960724 0.2932512
vn 0.5215646 0.8039155 0.2858151
vn 0.5372508 0.647054 0.5410017
vn -0.5294077 0.8431308 0.09411613
vn -0.5215647 0.7960724 0.3069838
vn -0.5215647 0.8039155 0.2858149
vn -0.5372509 0.8431308 -0.0221792
vn -0.5215647 0.7960724 0.3069838
vn -0.5372509 0.647054 0.5410016
vn -0.5372509 0.647054 0.5410016
vn -0.5215647 0.8039155 0.2858149
vn 0.5294077 0.7960724 0.2932512
vn 0.5372508 0.8431308 0.02218189
vn 0.5215646 0.8039155 0.2858151
vn 0.9999924 0.003921628 0
vn 0.9999924 0.003921628 0
vn 0.9999924 0.003921628 0
vn 0.9999924 0.003921628 0
vn -0.9999924 0.003921628 0
vn -0.9999924 0.003921628 0
vn -0.9999924 0.003921628 0
vn -0.9999924 0.003921628 0
vn -0.003921628 0.003921628 -0.9999846
vn -0.003921628 0.003921628 -0.9999846
vn -0.003921628 0.003921628 -0.9999846
vn -0.003921628 0.003921628 -0.9999846
vn -0.003921628 0.003921628 -0.9999846
vn -0.003921628 0.003921628 -0.9999846
vn -0.003921628 -0.9999924 0
vn -0.003921628 -0.9999924 0
vn -0.003921628 -0.9999924 0
vn -0.003921628 -0.9999924 0
vn -0.003921628 0.003921628 0.9999846
vn -0.003921628 0.003921628 0.9999846
vn -0.003921628 0.003921628 0.9999846
vn -0.003921628 0.003921628 0.9999846
vn -0.003921628 0.003921628 0.9999846
vn -0.003921628 0.003921628 0.9999846
vn 0.7097985 -0.7097985 0
vn 0.7097985 -0.7097985 0
vn 0.7097985 -0.7097985 0
vn 0.7097985 -0.7097985 0
vn -0.7097986 -0.7097985 0
vn -0.7097986 -0.7097985 0
vn -0.7097986 -0.7097985 0
vn -0.7097986 -0.7097985 0
vn -0.9999924 0.003921628 0
vn -0.9999924 0.003921628 0
vn -0.9999924 0.003921628 0
vn -0.9999924 0.003921628 0
vn 0.9999924 0.003921628 0
vn 0.9999924 0.003921628 0
vn 0.9999924 0.003921628 0
vn 0.9999924 0.003921628 0
vn -0.003921628 0.003921628 -0.9999846
vn -0.003921628 0.003921628 -0.9999846
vn -0.003921628 0.003921628 -0.9999846
vn -0.003921628 0.003921628 -0.9999846
vn -0.003921628 0.003921628 -0.9999846
vn -0.003921628 0.003921628 -0.9999846
vn -0.003921628 0.9999924 0
vn -0.003921628 0.9999924 0
vn -0.003921628 0.9999924 0
vn -0.003921628 0.9999924 0
vn -0.003921628 0.003921628 0.9999846
vn -0.003921628 0.003921628 0.9999846
vn -0.003921628 0.003921628 0.9999846
vn -0.003921628 0.003921628 0.9999846
vn -0.003921628 0.003921628 0.9999846
vn -0.003921628 0.003921628 0.9999846
vn -0.7097986 0.7097986 0
vn -0.7097986 0.7097986 0
vn -0.7097986 0.7097986 0
vn -0.7097986 0.7097986 0
vn 0.7097985 0.7097986 0
vn 0.7097985 0.7097986 0
vn 0.7097985 0.7097986 0
vn 0.7097985 0.7097986 0
g Box003_0
f 3/3/3 2/2/2 1/1/1
f 4/4/4 3/3/3 1/1/1
f 7/7/7 6/6/6 5/5/5
f 8/8/8 7/7/7 5/5/5
f 8/8/8 5/5/5 9/9/9
f 10/10/10 9/9/9 5/5/5
f 10/10/10 11/11/11 9/9/9
f 12/12/12 9/9/9 11/11/11
f 11/11/11 13/13/13 12/12/12
f 14/14/14 12/12/12 13/13/13
f 17/17/17 16/16/16 15/15/15
f 18/18/18 17/17/17 15/15/15
f 18/18/18 15/15/15 19/19/19
f 20/20/20 19/19/19 15/15/15
f 20/20/20 21/21/21 19/19/19
f 22/22/22 19/19/19 21/21/21
f 21/21/21 23/23/23 22/22/22
f 24/24/24 22/22/22 23/23/23
f 27/27/27 26/26/26 25/25/25
f 28/28/28 27/27/27 25/25/25
f 29/29/29 28/28/28 25/25/25
f 30/30/30 28/28/28 29/29/29
f 31/31/31 28/28/28 30/30/30
f 32/32/32 28/28/28 31/31/31
f 33/33/33 28/28/28 32/32/32
f 34/34/34 28/28/28 33/33/33
f 35/35/35 28/28/28 34/34/34
f 36/36/36 35/35/35 34/34/34
f 37/37/37 35/35/35 36/36/36
f 38/38/38 35/35/35 37/37/37
f 39/39/39 35/35/35 38/38/38
f 39/39/39 27/27/27 40/40/40
f 41/41/41 40/40/40 27/27/27
f 41/41/41 42/42/42 40/40/40
f 43/43/43 40/40/40 42/42/42
f 43/43/43 44/44/44 40/40/40
f 45/45/45 40/40/40 44/44/44
f 45/45/45 44/44/44 46/46/46
f 47/47/47 46/46/46 44/44/44
f 42/42/42 41/41/41 48/48/48
f 49/49/49 48/48/48 41/41/41
f 48/48/48 49/49/49 50/50/50
f 51/51/51 50/50/50 49/49/49
f 52/52/52 39/39/39 38/38/38
f 52/52/52 53/53/53 39/39/39
f 53/53/53 54/54/54 39/39/39
f 54/54/54 55/55/55 39/39/39
f 55/55/55 56/56/56 39/39/39
f 56/56/56 57/57/57 39/39/39
f 39/39/39 57/57/57 27/27/27
f 57/57/57 58/58/58 27/27/27
f 58/58/58 26/26/26 27/27/27
f 61/61/61 60/60/60 59/59/59
f 60/60/60 61/61/61 62/62/62
f 62/62/62 61/61/61 63/63/63
f 63/63/63 61/61/61 64/64/64
f 64/64/64 61/61/61 65/65/65
f 65/65/65 61/61/61 66/66/66
f 61/61/61 67/67/67 66/66/66
f 67/67/67 61/61/61 68/68/68
f 69/69/69 68/68/68 61/61/61
f 68/68/68 69/69/69 70/70/70
f 71/71/71 70/70/70 69/69/69
f 70/70/70 72/72/72 68/68/68
f 73/73/73 68/68/68 72/72/72
f 73/73/73 72/72/72 74/74/74
f 75/75/75 74/74/74 72/72/72
f 71/71/71 69/69/69 76/76/76
f 77/77/77 76/76/76 69/69/69
f 76/76/76 77/77/77 78/78/78
f 79/79/79 78/78/78 77/77/77
f 66/66/66 67/67/67 80/80/80
f 80/80/80 67/67/67 81/81/81
f 81/81/81 67/67/67 82/82/82
f 67/67/67 83/83/83 82/82/82
f 82/82/82 83/83/83 84/84/84
f 84/84/84 83/83/83 85/85/85
f 85/85/85 83/83/83 86/86/86
f 86/86/86 83/83/83 87/87/87
f 87/87/87 83/83/83 88/88/88
f 88/88/88 83/83/83 89/89/89
f 83/83/83 90/90/90 89/89/89
f 89/89/89 90/90/90 91/91/91
f 91/91/91 90/90/90 92/92/92
f 92/92/92 90/90/90 59/59/59
f 90/90/90 61/61/61 59/59/59
f 95/95/95 94/94/94 93/93/93
f 96/96/96 94/94/94 95/95/95
f 96/96/96 95/95/95 97/97/97
f 94/94/94 98/98/98 93/93/93
f 99/99/99 93/93/93 98/98/98
f 99/99/99 98/98/98 100/100/100
f 101/101/101 100/100/100 98/98/98
f 100/100/100 101/101/101 102/102/102
f 103/103/103 102/102/102 101/101/101
f 102/102/102 103/103/103 104/104/104
f 105/105/105 104/104/104 103/103/103
f 104/104/104 105/105/105 106/106/106
f 107/107/107 106/106/106 105/105/105
f 106/106/106 107/107/107 108/108/108
f 109/109/109 108/108/108 107/107/107
f 110/110/110 97/97/97 95/95/95
f 97/97/97 110/110/110 111/111/111
f 112/112/112 111/111/111 110/110/110
f 111/111/111 112/112/112 113/113/113
f 114/114/114 113/113/113 112/112/112
f 113/113/113 114/114/114 115/115/115
f 116/116/116 115/115/115 114/114/114
f 115/115/115 116/116/116 117/117/117
f 118/118/118 117/117/117 116/116/116
f 117/117/117 118/118/118 119/119/119
f 120/120/120 119/119/119 118/118/118
f 119/119/119 120/120/120 121/121/121
f 122/122/122 121/121/121 120/120/120
f 121/121/121 122/122/122 123/123/123
f 124/124/124 123/123/123 122/122/122
f 123/123/123 124/124/124 125/125/125
f 126/126/126 125/125/125 124/124/124
f 125/125/125 126/126/126 127/127/127
f 128/128/128 127/127/127 126/126/126
f 127/127/127 128/128/128 129/129/129
f 130/130/130 129/129/129 128/128/128
f 133/133/133 132/132/132 131/131/131
f 134/134/134 133/133/133 131/131/131
f 137/137/137 136/136/136 135/135/135
f 138/138/138 137/137/137 135/135/135
f 141/141/141 140/140/140 139/139/139
f 142/142/142 141/141/141 139/139/139
f 145/145/145 144/144/144 143/143/143
f 146/146/146 145/145/145 143/143/143
f 149/149/149 148/148/148 147/147/147
f 150/150/150 149/149/149 147/147/147
f 153/153/153 152/152/152 151/151/151
f 154/154/154 153/153/153 151/151/151
f 157/157/157 156/156/156 155/155/155
f 158/158/158 157/157/157 155/155/155
f 161/161/161 160/160/160 159/159/159
f 162/162/162 161/161/161 159/159/159
f 165/165/165 164/164/164 163/163/163
f 166/166/166 165/165/165 163/163/163
f 169/169/169 168/168/168 167/167/167
f 170/170/170 169/169/169 167/167/167
f 173/173/173 172/172/172 171/171/171
f 174/174/174 173/173/173 171/171/171
f 177/177/177 176/176/176 175/175/175
f 178/178/178 177/177/177 175/175/175
f 181/181/181 180/180/180 179/179/179
f 182/182/182 181/181/181 179/179/179
f 185/185/185 184/184/184 183/183/183
f 186/186/186 185/185/185 183/183/183
f 189/189/189 188/188/188 187/187/187
f 190/190/190 189/189/189 187/187/187
f 193/193/193 192/192/192 191/191/191
f 194/194/194 193/193/193 191/191/191
f 197/197/197 196/196/196 195/195/195
f 198/198/198 197/197/197 195/195/195
f 201/201/201 200/200/200 199/199/199
f 202/202/202 201/201/201 199/199/199
f 205/205/205 204/204/204 203/203/203
f 206/206/206 205/205/205 203/203/203
f 209/209/209 208/208/208 207/207/207
f 210/210/210 209/209/209 207/207/207
f 213/213/213 212/212/212 211/211/211
f 214/214/214 213/213/213 211/211/211
f 217/217/217 216/216/216 215/215/215
f 218/218/218 217/217/217 215/215/215
f 221/221/221 220/220/220 219/219/219
f 222/222/222 221/221/221 219/219/219
f 225/225/225 224/224/224 223/223/223
f 226/226/226 225/225/225 223/223/223
f 229/229/229 228/228/228 227/227/227
f 230/230/230 229/229/229 227/227/227
f 233/233/233 232/232/232 231/231/231
f 234/234/234 233/233/233 231/231/231
f 237/237/237 236/236/236 235/235/235
f 238/238/238 237/237/237 235/235/235
f 241/241/241 240/240/240 239/239/239
f 242/242/242 241/241/241 239/239/239
f 245/245/245 244/244/244 243/243/243
f 246/246/246 245/245/245 243/243/243
f 249/249/249 248/248/248 247/247/247
f 250/250/250 249/249/249 247/247/247
f 253/253/253 252/252/252 251/251/251
f 254/254/254 253/253/253 251/251/251
f 257/257/257 256/256/256 255/255/255
f 258/258/258 257/257/257 255/255/255
f 261/261/261 260/260/260 259/259/259
f 264/264/264 263/263/263 262/262/262
f 265/265/265 264/264/264 262/262/262
f 268/268/268 267/267/267 266/266/266
f 269/269/269 268/268/268 266/266/266
f 272/272/272 271/271/271 270/270/270
f 273/273/273 272/272/272 270/270/270
f 276/276/276 275/275/275 274/274/274
g Box003_1
f 279/279/279 278/278/278 277/277/277
f 280/280/280 277/277/277 278/278/278
f 283/283/283 282/282/282 281/281/281
f 284/284/284 281/281/281 282/282/282
f 287/287/287 286/286/286 285/285/285
f 286/286/286 288/288/288 285/285/285
f 289/289/289 288/288/288 286/286/286
f 288/288/288 290/290/290 285/285/285
f 293/293/293 292/292/292 291/291/291
f 294/294/294 291/291/291 292/292/292
f 297/297/297 296/296/296 295/295/295
f 296/296/296 298/298/298 295/295/295
f 299/299/299 298/298/298 296/296/296
f 295/295/295 298/298/298 300/300/300
f 303/303/303 302/302/302 301/301/301
f 304/304/304 301/301/301 302/302/302
f 307/307/307 306/306/306 305/305/305
f 308/308/308 305/305/305 306/306/306
f 311/311/311 310/310/310 309/309/309
f 312/312/312 309/309/309 310/310/310
f 315/315/315 314/314/314 313/313/313
f 316/316/316 313/313/313 314/314/314
f 319/319/319 318/318/318 317/317/317
f 318/318/318 320/320/320 317/317/317
f 321/321/321 320/320/320 318/318/318
f 320/320/320 322/322/322 317/317/317
f 325/325/325 324/324/324 323/323/323
f 326/326/326 323/323/323 324/324/324
f 329/329/329 328/328/328 327/327/327
f 328/328/328 330/330/330 327/327/327
f 331/331/331 330/330/330 328/328/328
f 327/327/327 330/330/330 332/332/332
f 335/335/335 334/334/334 333/333/333
f 336/336/336 333/333/333 334/334/334
f 339/339/339 338/338/338 337/337/337
f 340/340/340 337/337/337 338/338/338
