g Box031
v -1.480835 -1.480798 0.04559886
v 1.192487 -1.192487 1.895895
v 1.480798 -1.480798 0.04559886
v -1.192395 -1.192487 1.895895
v 1.480798 -1.480798 0.04559886
v 1.192487 1.192395 1.895895
v 1.480798 1.480835 0.04559886
v 1.192487 -1.192487 1.895895
v 1.480798 1.480835 0.04559886
v -1.192395 1.192395 1.895895
v -1.480835 1.480835 0.04559886
v 1.192487 1.192395 1.895895
v -1.480835 1.480835 0.04559886
v -1.192395 -1.192487 1.895895
v -1.480835 -1.480798 0.04559886
v -1.192395 1.192395 1.895895
v -1.69565 -1.695613 2.938894
v 1.695613 1.69565 2.938894
v 1.695613 -1.695613 2.938894
v -1.69565 1.69565 2.938894
v -1.468328 -1.46842 1.663286
v 1.695613 -1.695613 2.938894
v 1.46842 -1.46842 1.663286
v -1.69565 -1.695613 2.938894
v 1.46842 -1.46842 1.663286
v 1.695613 1.69565 2.938894
v 1.46842 1.468328 1.663286
v 1.695613 -1.695613 2.938894
v 1.46842 1.468328 1.663286
v -1.69565 1.69565 2.938894
v -1.468328 1.468328 1.663286
v 1.695613 1.69565 2.938894
v -1.468328 1.468328 1.663286
v -1.69565 -1.695613 2.938894
v -1.468328 -1.46842 1.663286
v -1.69565 1.69565 2.938894
v 1.426386 -1.426386 3.554456
v -1.426293 -1.426386 2.711314
v -1.426293 -1.426386 3.554456
v 1.426386 -1.426386 2.711314
v 1.426386 1.426293 3.554456
v 1.426386 -1.426386 2.711314
v 1.426386 -1.426386 3.554456
v 1.426386 1.426293 2.711314
v -1.426293 1.426293 3.554456
v 1.426386 1.426293 2.711314
v 1.426386 1.426293 3.554456
v -1.426293 1.426293 2.711314
v -1.426293 -1.426386 3.554456
v -1.426293 1.426293 2.711314
v -1.426293 1.426293 3.554456
v -1.426293 -1.426386 2.711314
v 1.426386 1.426293 3.554456
v -1.426293 -1.426386 3.554456
v -1.426293 1.426293 3.554456
v 1.426386 -1.426386 3.554456
v 1.161155 -0.8630446 5.143389
v 0.7074134 -1.005524 3.06706
v 1.005524 -0.7074134 3.06706
v 0.8630446 -1.161155 5.143389
v 1.457589 -1.159479 5.099034
v 1.005524 -0.7074134 3.06706
v 1.301958 -1.003977 3.022706
v 1.161155 -0.8630446 5.143389
v 1.159479 -1.457589 5.099034
v 1.301958 -1.003977 3.022706
v 1.003977 -1.301958 3.022706
v 1.457589 -1.159479 5.099034
v 0.8630446 -1.161155 5.143389
v 1.003977 -1.301958 3.022706
v 0.7074134 -1.005524 3.06706
v 1.159479 -1.457589 5.099034
v -1.005561 -0.7074134 3.06706
v -0.8629525 -1.161155 5.143389
v -1.161063 -0.8630446 5.143389
v -0.7074502 -1.005524 3.06706
v -1.301995 -1.003977 3.022706
v -1.161063 -0.8630446 5.143389
v -1.457497 -1.159479 5.099034
v -1.161063 -0.8630446 5.143389
v -1.301995 -1.003977 3.022706
v -1.005561 -0.7074134 3.06706
v -1.003884 -1.301958 3.022706
v -1.457497 -1.159479 5.099034
v -1.159386 -1.457589 5.099034
v -1.301995 -1.003977 3.022706
v -0.7074502 -1.005524 3.06706
v -1.159386 -1.457589 5.099034
v -0.8629525 -1.161155 5.143389
v -1.003884 -1.301958 3.022706
v 0.8630446 1.161063 5.143389
v 1.005524 0.7074502 3.06706
v 0.7074134 1.005561 3.06706
v 1.161155 0.8629525 5.143389
v 1.159479 1.457497 5.099034
v 0.7074134 1.005561 3.06706
v 1.003977 1.301995 3.022706
v 0.8630446 1.161063 5.143389
v 1.457589 1.159386 5.099034
v 1.003977 1.301995 3.022706
v 1.301958 1.003884 3.022706
v 1.159479 1.457497 5.099034
v 1.161155 0.8629525 5.143389
v 1.301958 1.003884 3.022706
v 1.005524 0.7074502 3.06706
v 1.457589 1.159386 5.099034
v -1.161063 0.8629525 5.143389
v -0.7074502 1.005561 3.06706
v -1.005561 0.7074502 3.06706
v -0.8629525 1.161063 5.143389
v -1.457497 1.159386 5.099034
v -1.005561 0.7074502 3.06706
v -1.301995 1.003884 3.022706
v -1.161063 0.8629525 5.143389
v -1.159386 1.457497 5.099034
v -1.301995 1.003884 3.022706
v -1.003884 1.301995 3.022706
v -1.457497 1.159386 5.099034
v -0.8629525 1.161063 5.143389
v -1.003884 1.301995 3.022706
v -0.7074502 1.005561 3.06706
v -1.159386 1.457497 5.099034
v 1.426386 -1.426386 4.904978
v -1.918072 -1.918036 5.326484
v 1.918036 -1.918036 5.326484
v -1.426293 -1.426386 4.904978
v 1.426386 1.426293 4.904978
v 1.918036 -1.918036 5.326484
v 1.918036 1.918072 5.326484
v 1.426386 -1.426386 4.904978
v -1.426293 1.426293 4.904978
v 1.918036 1.918072 5.326484
v -1.918072 1.918072 5.326484
v 1.426386 1.426293 4.904978
v -1.426293 -1.426386 4.904978
v -1.918072 1.918072 5.326484
v -1.918072 -1.918036 5.326484
v -1.426293 1.426293 4.904978
v -1.203871 -1.203834 5.79196
v 0.6536454 -0.6536454 6.532078
v 1.203834 -1.203834 5.79196
v -0.653682 -0.6536454 6.532078
v 1.203834 -1.203834 5.79196
v 0.6536454 0.653682 6.532078
v 1.203834 1.203871 5.79196
v 0.6536454 -0.6536454 6.532078
v 1.203834 1.203871 5.79196
v -0.653682 0.653682 6.532078
v -1.203871 1.203871 5.79196
v 0.6536454 0.653682 6.532078
v -1.203871 1.203871 5.79196
v -0.653682 -0.6536454 6.532078
v -1.203871 -1.203834 5.79196
v -0.653682 0.653682 6.532078
v 0.6536454 0.653682 6.532078
v -0.653682 -0.6536454 6.532078
v -0.653682 0.653682 6.532078
v 0.6536454 -0.6536454 6.532078
v 1.203834 -1.203834 5.79196
v -1.918072 -1.918036 5.326484
v -1.203871 -1.203834 5.79196
v 1.918036 -1.918036 5.326484
v 1.203834 1.203871 5.79196
v 1.918036 -1.918036 5.326484
v 1.203834 -1.203834 5.79196
v 1.918036 1.918072 5.326484
v -1.203871 1.203871 5.79196
v 1.918036 1.918072 5.326484
v 1.203834 1.203871 5.79196
v -1.918072 1.918072 5.326484
v -1.203871 -1.203834 5.79196
v -1.918072 1.918072 5.326484
v -1.203871 1.203871 5.79196
v -1.918072 -1.918036 5.326484
vt 0.4706457 0.1214652
vt 0.5486388 0.203036
vt 0.5486388 0.1214652
vt 0.4706457 0.203036
vt 0.4706457 0.1214652
vt 0.5486388 0.203036
vt 0.5486388 0.1214652
vt 0.4706457 0.203036
vt 0.4706457 0.1214652
vt 0.5486388 0.203036
vt 0.5486388 0.1214652
vt 0.4706457 0.203036
vt 0.4706457 0.1214652
vt 0.5486388 0.203036
vt 0.5486388 0.1214652
vt 0.4706457 0.203036
vt 0.4706457 0.1214652
vt 0.5486388 0.203036
vt 0.5486388 0.1214652
vt 0.4706457 0.203036
vt 0.4706457 0.1214652
vt 0.5486388 0.203036
vt 0.5486388 0.1214652
vt 0.4706457 0.203036
vt 0.4706457 0.1214652
vt 0.5486388 0.203036
vt 0.5486388 0.1214652
vt 0.4706457 0.203036
vt 0.4706457 0.1214652
vt 0.5486388 0.203036
vt 0.5486388 0.1214652
vt 0.4706457 0.203036
vt 0.4706457 0.1214652
vt 0.5486388 0.203036
vt 0.5486388 0.1214652
vt 0.4706457 0.203036
vt 0.7554281 0.1765613
vt 0.7582902 0.2008895
vt 0.7582902 0.1765613
vt 0.7554281 0.2008895
vt 0.7554281 0.2330885
vt 0.7582902 0.2581322
vt 0.7582902 0.2330885
vt 0.7554281 0.2581322
vt 0.7554281 0.14794
vt 0.7582902 0.1729836
vt 0.7582902 0.14794
vt 0.7554281 0.1729836
vt 0.7554281 0.2051827
vt 0.7582902 0.2295108
vt 0.7582902 0.2051827
vt 0.7554281 0.2295108
vt 0.7554281 0.2316574
vt 0.7532815 0.14794
vt 0.7532815 0.2316574
vt 0.7554281 0.14794
vt 0.1758458 0.253839
vt 0.1035769 0.2316574
vt 0.1035769 0.253839
vt 0.1758458 0.2316574
vt 0.0978526 0.1615351
vt 0.02773029 0.1379225
vt 0.02629923 0.1536642
vt 0.0999992 0.1457933
vt 0.09856813 0.192303
vt 0.02629923 0.1701215
vt 0.02629923 0.192303
vt 0.09856813 0.1701215
vt 0.1050079 0.1057235
vt 0.1772768 0.1293361
vt 0.1772768 0.106439
vt 0.1050079 0.127905
vt 0.02629923 0.2316574
vt 0.09856813 0.253839
vt 0.09856813 0.2316574
vt 0.02629923 0.253839
vt 0.1035769 0.2745894
vt 0.1772768 0.2781671
vt 0.1751302 0.2624254
vt 0.1772768 0.2896157
vt 0.1035769 0.286038
vt 0.1057235 0.3017797
vt 0.1035769 0.1701215
vt 0.1758458 0.192303
vt 0.1758458 0.1701215
vt 0.1035769 0.192303
vt 0.02773029 0.1057235
vt 0.0978526 0.1293361
vt 0.0999992 0.1135943
vt 0.02629923 0.1214652
vt 0.09856813 0.2846069
vt 0.02629923 0.2624254
vt 0.02629923 0.2846069
vt 0.09856813 0.2624254
vt 0.09856813 0.09928367
vt 0.02701476 0.07352445
vt 0.02629923 0.09570599
vt 0.09856813 0.07710212
vt 0.09856813 0.223071
vt 0.02629923 0.2008895
vt 0.02629923 0.223071
vt 0.09856813 0.2008895
vt 0.1028613 0.04204097
vt 0.1751302 0.06493805
vt 0.1751302 0.0427565
vt 0.1028613 0.06422251
vt 0.1758458 0.223071
vt 0.1035769 0.2008895
vt 0.1035769 0.223071
vt 0.1758458 0.2008895
vt 0.09856813 0.06708465
vt 0.02701476 0.04204097
vt 0.02629923 0.06422251
vt 0.09856813 0.0449031
vt 0.1772768 0.160104
vt 0.1050079 0.1379225
vt 0.1050079 0.160104
vt 0.1772768 0.1379225
vt 0.1028613 0.07352445
vt 0.1751302 0.09713706
vt 0.1751302 0.07495552
vt 0.1028613 0.09570599
vt 0.6638398 0.2295108
vt 0.6352184 0.2359506
vt 0.6674175 0.2359506
vt 0.6395116 0.2295108
vt 0.6638398 0.192303
vt 0.6674175 0.2359506
vt 0.6674175 0.1858632
vt 0.6638398 0.2295108
vt 0.6395116 0.192303
vt 0.6674175 0.1858632
vt 0.6352184 0.1858632
vt 0.6638398 0.192303
vt 0.6395116 0.2295108
vt 0.6352184 0.1858632
vt 0.6352184 0.2359506
vt 0.6395116 0.192303
vt 0.6416582 0.2266487
vt 0.6574 0.2194933
vt 0.6616932 0.2266487
vt 0.6459514 0.2194933
vt 0.6616932 0.2266487
vt 0.6574 0.2023205
vt 0.6616932 0.1951652
vt 0.6574 0.2194933
vt 0.6616932 0.1951652
vt 0.6459514 0.2023205
vt 0.6416582 0.1951652
vt 0.6574 0.2023205
vt 0.6416582 0.1951652
vt 0.6459514 0.2194933
vt 0.6416582 0.2266487
vt 0.6459514 0.2023205
vt 0.6574 0.2023205
vt 0.6459514 0.2194933
vt 0.6459514 0.2023205
vt 0.6574 0.2194933
vt 0.6616932 0.2266487
vt 0.6352184 0.2359506
vt 0.6416582 0.2266487
vt 0.6674175 0.2359506
vt 0.6616932 0.1951652
vt 0.6674175 0.2359506
vt 0.6616932 0.2266487
vt 0.6674175 0.1858632
vt 0.6416582 0.1951652
vt 0.6674175 0.1858632
vt 0.6616932 0.1951652
vt 0.6352184 0.1858632
vt 0.6416582 0.2266487
vt 0.6352184 0.1858632
vt 0.6416582 0.1951652
vt 0.6352184 0.2359506
vn -0.003921628 -0.9843062 0.1764254
vn -0.003921628 -0.9843062 0.1764254
vn -0.003921628 -0.9843062 0.1764254
vn -0.003921628 -0.9843062 0.1764254
vn 0.9843062 0.003921628 0.1764253
vn 0.9843062 0.003921628 0.1764253
vn 0.9843062 0.003921628 0.1764253
vn 0.9843062 0.003921628 0.1764253
vn -0.003921628 0.9843062 0.1764254
vn -0.003921628 0.9843062 0.1764254
vn -0.003921628 0.9843062 0.1764254
vn -0.003921628 0.9843062 0.1764254
vn -0.9843062 0.003921628 0.1764253
vn -0.9843062 0.003921628 0.1764253
vn -0.9843062 0.003921628 0.1764253
vn -0.9843062 0.003921628 0.1764253
vn -0.003921628 0.003921628 0.9999846
vn -0.003921628 0.003921628 0.9999846
vn -0.003921628 0.003921628 0.9999846
vn -0.003921628 0.003921628 0.9999846
vn -0.003921628 -0.9843062 -0.1764254
vn -0.003921628 -0.9843062 -0.1764254
vn -0.003921628 -0.9843062 -0.1764254
vn -0.003921628 -0.9843062 -0.1764254
vn 0.9843062 0.003921628 -0.1764253
vn 0.9843062 0.003921628 -0.1764253
vn 0.9843062 0.003921628 -0.1764253
vn 0.9843062 0.003921628 -0.1764253
vn -0.003921628 0.9843062 -0.1764254
vn -0.003921628 0.9843062 -0.1764254
vn -0.003921628 0.9843062 -0.1764254
vn -0.003921628 0.9843062 -0.1764254
vn -0.9843062 0.003921628 -0.1764253
vn -0.9843062 0.003921628 -0.1764253
vn -0.9843062 0.003921628 -0.1764253
vn -0.9843062 0.003921628 -0.1764253
vn -0.003921628 -0.9999924 0
vn -0.003921628 -0.9999924 0
vn -0.003921628 -0.9999924 0
vn -0.003921628 -0.9999924 0
vn 0.9999924 0.003921628 0
vn 0.9999924 0.003921628 0
vn 0.9999924 0.003921628 0
vn 0.9999924 0.003921628 0
vn -0.003921628 0.9999924 0
vn -0.003921628 0.9999924 0
vn -0.003921628 0.9999924 0
vn -0.003921628 0.9999924 0
vn -0.9999924 0.003921628 0
vn -0.9999924 0.003921628 0
vn -0.9999924 0.003921628 0
vn -0.9999924 0.003921628 0
vn -0.003921628 0.003921628 0.9999846
vn -0.003921628 0.003921628 0.9999846
vn -0.003921628 0.003921628 0.9999846
vn -0.003921628 0.003921628 0.9999846
vn -0.7019554 0.7019554 0.1204869
vn -0.7019554 0.7019554 0.1204869
vn -0.7019554 0.7019554 0.1204869
vn -0.7019554 0.7019554 0.1204869
vn 0.7097985 0.7097986 0
vn 0.7097985 0.7097986 0
vn 0.7097985 0.7097986 0
vn 0.7097985 0.7097986 0
vn 0.7019554 -0.7019554 -0.1204869
vn 0.7019554 -0.7019554 -0.1204869
vn 0.7019554 -0.7019554 -0.1204869
vn 0.7019554 -0.7019554 -0.1204869
vn -0.7097986 -0.7097985 0
vn -0.7097986 -0.7097985 0
vn -0.7097986 -0.7097985 0
vn -0.7097986 -0.7097985 0
vn 0.7019554 0.7019554 0.1204869
vn 0.7019554 0.7019554 0.1204869
vn 0.7019554 0.7019554 0.1204869
vn 0.7019554 0.7019554 0.1204869
vn -0.7097986 0.7097986 0
vn -0.7097986 0.7097986 0
vn -0.7097986 0.7097986 0
vn -0.7097986 0.7097986 0
vn -0.7097986 0.7097986 0
vn -0.7097986 0.7097986 0
vn -0.7019554 -0.7019554 -0.1204869
vn -0.7019554 -0.7019554 -0.1204869
vn -0.7019554 -0.7019554 -0.1204869
vn -0.7019554 -0.7019554 -0.1204869
vn 0.7097985 -0.7097985 0
vn 0.7097985 -0.7097985 0
vn 0.7097985 -0.7097985 0
vn 0.7097985 -0.7097985 0
vn -0.7019554 -0.7019554 0.1204869
vn -0.7019554 -0.7019554 0.1204869
vn -0.7019554 -0.7019554 0.1204869
vn -0.7019554 -0.7019554 0.1204869
vn -0.7097986 0.7097986 0
vn -0.7097986 0.7097986 0
vn -0.7097986 0.7097986 0
vn -0.7097986 0.7097986 0
vn 0.7019554 0.7019554 -0.1204869
vn 0.7019554 0.7019554 -0.1204869
vn 0.7019554 0.7019554 -0.1204869
vn 0.7019554 0.7019554 -0.1204869
vn 0.7097985 -0.7097985 0
vn 0.7097985 -0.7097985 0
vn 0.7097985 -0.7097985 0
vn 0.7097985 -0.7097985 0
vn 0.7019554 -0.7019554 0.1204869
vn 0.7019554 -0.7019554 0.1204869
vn 0.7019554 -0.7019554 0.1204869
vn 0.7019554 -0.7019554 0.1204869
vn -0.7097986 -0.7097985 0
vn -0.7097986 -0.7097985 0
vn -0.7097986 -0.7097985 0
vn -0.7097986 -0.7097985 0
vn -0.7019554 0.7019554 -0.1204869
vn -0.7019554 0.7019554 -0.1204869
vn -0.7019554 0.7019554 -0.1204869
vn -0.7019554 0.7019554 -0.1204869
vn 0.7097985 0.7097986 0
vn 0.7097985 0.7097986 0
vn 0.7097985 0.7097986 0
vn 0.7097985 0.7097986 0
vn -0.003921628 -0.6470538 -0.7624342
vn -0.003921628 -0.9999924 0
vn -0.003921628 -0.9999924 0
vn -0.003921628 -0.6470538 -0.7624342
vn 0.6470538 0.003921628 -0.7624342
vn 0.9999924 0.003921628 0
vn 0.9999924 0.003921628 0
vn 0.6470538 0.003921628 -0.7624342
vn -0.003921628 0.647054 -0.7624341
vn -0.003921628 0.9999924 0
vn -0.003921628 0.9999924 0
vn -0.003921628 0.647054 -0.7624341
vn -0.647054 0.003921628 -0.7624341
vn -0.9999924 0.003921628 0
vn -0.9999924 0.003921628 0
vn -0.647054 0.003921628 -0.7624341
vn -0.003921628 -0.8039154 0.5947307
vn -0.003921628 -0.8039154 0.5947307
vn -0.003921628 -0.8039154 0.5947307
vn -0.003921628 -0.8039154 0.5947307
vn 0.8039154 0.003921628 0.5947307
vn 0.8039154 0.003921628 0.5947307
vn 0.8039154 0.003921628 0.5947307
vn 0.8039154 0.003921628 0.5947307
vn -0.003921628 0.8039155 0.5947306
vn -0.003921628 0.8039155 0.5947306
vn -0.003921628 0.8039155 0.5947306
vn -0.003921628 0.8039155 0.5947306
vn -0.8039155 0.003921628 0.5947306
vn -0.8039155 0.003921628 0.5947306
vn -0.8039155 0.003921628 0.5947306
vn -0.8039155 0.003921628 0.5947306
vn -0.003921628 0.003921628 0.9999846
vn -0.003921628 0.003921628 0.9999846
vn -0.003921628 0.003921628 0.9999846
vn -0.003921628 0.003921628 0.9999846
vn -0.003921628 -0.5450939 0.8383659
vn -0.003921628 -0.9999924 0
vn -0.003921628 -0.5450939 0.8383659
vn -0.003921628 -0.9999924 0
vn 0.5450939 0.003921628 0.8383659
vn 0.9999924 0.003921628 0
vn 0.5450939 0.003921628 0.8383659
vn 0.9999924 0.003921628 0
vn -0.003921628 0.5450939 0.8383659
vn -0.003921628 0.9999924 0
vn -0.003921628 0.5450939 0.8383659
vn -0.003921628 0.9999924 0
vn -0.5450939 0.003921628 0.8383659
vn -0.9999924 0.003921628 0
vn -0.5450939 0.003921628 0.8383659
vn -0.9999924 0.003921628 0
g Box031_0
f 3/3/3 2/2/2 1/1/1
f 4/4/4 1/1/1 2/2/2
f 7/7/7 6/6/6 5/5/5
f 8/8/8 5/5/5 6/6/6
f 11/11/11 10/10/10 9/9/9
f 12/12/12 9/9/9 10/10/10
f 15/15/15 14/14/14 13/13/13
f 16/16/16 13/13/13 14/14/14
f 19/19/19 18/18/18 17/17/17
f 20/20/20 17/17/17 18/18/18
f 23/23/23 22/22/22 21/21/21
f 24/24/24 21/21/21 22/22/22
f 27/27/27 26/26/26 25/25/25
f 28/28/28 25/25/25 26/26/26
f 31/31/31 30/30/30 29/29/29
f 32/32/32 29/29/29 30/30/30
f 35/35/35 34/34/34 33/33/33
f 36/36/36 33/33/33 34/34/34
f 39/39/39 38/38/38 37/37/37
f 40/40/40 37/37/37 38/38/38
f 43/43/43 42/42/42 41/41/41
f 44/44/44 41/41/41 42/42/42
f 47/47/47 46/46/46 45/45/45
f 48/48/48 45/45/45 46/46/46
f 51/51/51 50/50/50 49/49/49
f 52/52/52 49/49/49 50/50/50
f 55/55/55 54/54/54 53/53/53
f 56/56/56 53/53/53 54/54/54
f 59/59/59 58/58/58 57/57/57
f 60/60/60 57/57/57 58/58/58
f 63/63/63 62/62/62 61/61/61
f 64/64/64 61/61/61 62/62/62
f 67/67/67 66/66/66 65/65/65
f 68/68/68 65/65/65 66/66/66
f 71/71/71 70/70/70 69/69/69
f 72/72/72 69/69/69 70/70/70
f 75/75/75 74/74/74 73/73/73
f 76/76/76 73/73/73 74/74/74
f 79/79/79 78/78/78 77/77/77
f 82/82/82 81/81/81 80/80/80
f 85/85/85 84/84/84 83/83/83
f 86/86/86 83/83/83 84/84/84
f 89/89/89 88/88/88 87/87/87
f 90/90/90 87/87/87 88/88/88
f 93/93/93 92/92/92 91/91/91
f 94/94/94 91/91/91 92/92/92
f 97/97/97 96/96/96 95/95/95
f 98/98/98 95/95/95 96/96/96
f 101/101/101 100/100/100 99/99/99
f 102/102/102 99/99/99 100/100/100
f 105/105/105 104/104/104 103/103/103
f 106/106/106 103/103/103 104/104/104
f 109/109/109 108/108/108 107/107/107
f 110/110/110 107/107/107 108/108/108
f 113/113/113 112/112/112 111/111/111
f 114/114/114 111/111/111 112/112/112
f 117/117/117 116/116/116 115/115/115
f 118/118/118 115/115/115 116/116/116
f 121/121/121 120/120/120 119/119/119
f 122/122/122 119/119/119 120/120/120
f 125/125/125 124/124/124 123/123/123
f 126/126/126 123/123/123 124/124/124
f 129/129/129 128/128/128 127/127/127
f 130/130/130 127/127/127 128/128/128
f 133/133/133 132/132/132 131/131/131
f 134/134/134 131/131/131 132/132/132
f 137/137/137 136/136/136 135/135/135
f 138/138/138 135/135/135 136/136/136
f 141/141/141 140/140/140 139/139/139
f 142/142/142 139/139/139 140/140/140
f 145/145/145 144/144/144 143/143/143
f 146/146/146 143/143/143 144/144/144
f 149/149/149 148/148/148 147/147/147
f 150/150/150 147/147/147 148/148/148
f 153/153/153 152/152/152 151/151/151
f 154/154/154 151/151/151 152/152/152
f 157/157/157 156/156/156 155/155/155
f 158/158/158 155/155/155 156/156/156
f 161/161/161 160/160/160 159/159/159
f 162/162/162 159/159/159 160/160/160
f 165/165/165 164/164/164 163/163/163
f 166/166/166 163/163/163 164/164/164
f 169/169/169 168/168/168 167/167/167
f 170/170/170 167/167/167 168/168/168
f 173/173/173 172/172/172 171/171/171
f 174/174/174 171/171/171 172/172/172
