g Box012
v -1.000046 0.6017857 6.071688
v 1.000046 0.6017857 6.071688
v -1.000046 2.183291 5.495994
v 1.000046 2.183291 5.495994
v -1.000046 3.472557 4.414373
v 1.000046 3.472557 4.414373
v 1.000046 4.314122 2.95674
v -1.000046 4.314122 2.95674
v 1.000046 4.606363 1.299428
v -1.000046 4.606363 1.299428
v 1.000046 4.314122 -0.3578854
v -1.000046 4.314122 -0.3578854
v 1.000046 3.472557 -1.815518
v -1.000046 3.472557 -1.815518
v 1.000046 2.183291 -2.897139
v -1.000046 2.183291 -2.897139
v -1.000046 2.183291 -2.897139
v 1.000046 2.183291 -2.897139
v -1.000046 2.183291 -3.999908
v 1.000046 2.183291 -3.999908
v -1.000046 2.539254 -3.180316
v -1.000046 2.540902 -3.586542
v -1.000046 3.159166 -3.180041
v -1.000046 3.159716 -3.999908
v -1.000046 2.183291 -3.999908
v -1.000046 6 -3.999908
v -1.000046 2.183291 -2.897139
v -1.000046 6 12
v 1.000046 6 12
v 1.000046 -6 12
v -1.000046 -6 12
v -1.000046 6 -3.999908
v 1.000046 6 -3.999908
v 1.000046 6 12
v -1.000046 6 12
v -1.000046 2.183291 -3.999908
v 1.000046 2.183291 -3.999908
v 1.000046 3.159716 -3.999908
v 1.000046 6 -3.999908
v -1.000046 6 -3.999908
v -1.000046 3.159716 -3.999908
v 1.000046 2.539254 -3.180316
v 1.000046 3.159166 -3.180041
v 1.000046 2.540902 -3.586542
v 1.000046 3.159716 -3.999908
v 1.000046 2.183291 -3.999908
v 1.000046 2.183291 -2.897139
v 1.000046 3.472557 -1.815518
v 1.000046 4.314122 -0.3578854
v 1.000046 6 -3.999908
v 1.000046 4.606363 1.299428
v 1.000046 4.314122 2.95674
v 1.000046 6 12
v 1.000046 3.472557 4.414373
v 1.000046 2.183291 5.495994
v 1.000046 -6 12
v 1.000046 0.6017857 6.071688
v -1.000046 0.6017857 6.071688
v -1.000046 -0.6017852 6.071688
v 1.000046 -0.6017852 6.071688
v 1.000046 0.6017857 6.071688
v 1.000046 0.6017857 6.071688
v 1.000046 -0.6017852 6.071688
v 1.000046 -6 12
v 1.000046 -2.183291 5.495994
v 1.000046 -3.472557 4.414373
v 1.000046 -4.314122 2.95674
v 1.000046 -4.606363 1.299428
v 1.000046 -6 -3.999908
v 1.000046 -4.314122 -0.3578854
v 1.000046 -3.472557 -1.815518
v 1.000046 -2.183291 -2.897139
v -1.000046 -0.6017852 6.071688
v -1.000046 -2.183291 5.495994
v 1.000046 -0.6017852 6.071688
v 1.000046 -2.183291 5.495994
v -1.000046 -3.472557 4.414373
v 1.000046 -3.472557 4.414373
v 1.000046 -4.314122 2.95674
v -1.000046 -4.314122 2.95674
v 1.000046 -4.606363 1.299428
v -1.000046 -4.606363 1.299428
v 1.000046 -4.314122 -0.3578854
v -1.000046 -4.314122 -0.3578854
v 1.000046 -3.472557 -1.815518
v -1.000046 -3.472557 -1.815518
v 1.000046 -2.183291 -2.897139
v -1.000046 -2.183291 -2.897139
v -1.000046 -2.183291 -2.897139
v -1.000046 -2.183291 -3.999908
v 1.000046 -2.183291 -2.897139
v 1.000046 -2.183291 -3.999908
v -1.000046 -2.539254 -3.180316
v -1.000046 -3.159167 -3.180041
v -1.000046 -2.540902 -3.586542
v -1.000046 -3.159716 -3.999908
v -1.000046 -2.183291 -3.999908
v -1.000046 -2.183291 -2.897139
v -1.000046 -3.472557 -1.815518
v -1.000046 -4.314122 -0.3578854
v -1.000046 -6 -3.999908
v -1.000046 -4.606363 1.299428
v -1.000046 -4.314122 2.95674
v -1.000046 -6 12
v -1.000046 -3.472557 4.414373
v -1.000046 -2.183291 5.495994
v -1.000046 6 12
v -1.000046 -0.6017852 6.071688
v 1.000046 -6 -3.999908
v -1.000046 -6 -3.999908
v 1.000046 -6 12
v -1.000046 -6 12
v 1.000046 -2.183291 -3.999908
v -1.000046 -2.183291 -3.999908
v 1.000046 -3.159716 -3.999908
v 1.000046 -6 -3.999908
v -1.000046 -6 -3.999908
v -1.000046 -3.159716 -3.999908
v 1.000046 -2.539254 -3.180316
v 1.000046 -2.540902 -3.586542
v 1.000046 -3.159167 -3.180041
v 1.000046 -3.159716 -3.999908
v 1.000046 -2.183291 -3.999908
v 1.000046 -6 -3.999908
v 1.000046 -2.183291 -2.897139
v -1.000046 6 12
v -1.000046 2.183291 5.495994
v -1.000046 3.472557 4.414373
v -1.000046 0.6017857 6.071688
v -1.000046 -0.6017852 6.071688
v -1.000046 4.314122 2.95674
v -1.000046 4.606363 1.299428
v -1.000046 6 -3.999908
v -1.000046 4.314122 -0.3578854
v -1.000046 3.472557 -1.815518
v -1.000046 2.183291 -2.897139
v -1.000046 6 -3.999908
v -1.000046 2.183291 -2.897139
v -1.000046 3.159166 -3.180041
v 1.000046 -6 -3.999908
v 1.000046 -2.183291 -2.897139
v 1.000046 -3.159167 -3.180041
v 1.140673 -2.682353 -3.585992
v -1.141497 -2.681254 -3.321767
v 1.140673 -2.681254 -3.321767
v -1.141497 -2.682353 -3.585992
v -1.141497 -2.682353 -3.585992
v -1.141497 -2.397253 -3.038865
v -1.141497 -2.681254 -3.321767
v -1.141497 -2.399725 -3.587091
v -1.141497 -3.300618 -3.03859
v -1.141497 -3.01799 -3.321492
v -1.141497 -3.301167 -4.14136
v -1.141497 -3.018265 -3.858457
v -1.141497 -2.04184 -4.14136
v -1.141497 -2.324743 -3.858457
v -1.141497 -2.04184 -2.83122
v -1.141497 -2.324743 -2.963332
v -1.141497 -3.362692 -1.723232
v -1.141497 -3.582696 -1.907805
v -1.141497 -4.178988 -0.3087206
v -1.141497 -4.448981 -0.4070497
v -1.141497 -4.462715 1.299428
v -1.141497 -4.750011 1.299428
v -1.141497 -4.178988 2.907576
v -1.141497 -4.448981 3.005905
v -1.141497 -3.362692 4.322087
v -1.141497 -3.582696 4.50666
v -1.141497 -2.111604 5.371847
v -1.141497 -2.255253 5.620417
v -1.141497 -0.5770659 5.930236
v -1.141497 -0.6267796 6.213139
v -1.141497 0.5770655 5.930236
v -1.141497 0.6267796 6.213139
v -1.141497 2.111605 5.371847
v -1.141497 2.255253 5.620417
v -1.141497 3.362692 4.322087
v -1.141497 3.582696 4.50666
v -1.141497 4.178988 2.907576
v -1.141497 4.448982 3.005905
v -1.141497 4.462715 1.299428
v -1.141497 4.750011 1.299428
v -1.141497 4.178988 -0.3087206
v -1.141497 4.448982 -0.4070497
v -1.141497 3.362692 -1.723232
v -1.141497 3.582696 -1.907805
v -1.141497 2.041841 -2.83122
v -1.141497 2.324742 -2.963332
v -1.141497 2.041841 -4.14136
v -1.141497 2.324742 -3.858457
v -1.141497 3.301167 -4.14136
v -1.141497 3.018265 -3.858457
v -1.141497 3.300617 -3.03859
v -1.141497 3.01799 -3.321492
v -1.141497 2.397253 -3.038865
v -1.141497 2.681254 -3.321767
v -1.141497 2.399725 -3.587091
v -1.141497 2.682353 -3.585992
v -1.141497 -2.399725 -3.587091
v 1.140673 -2.397253 -3.038865
v -1.141497 -2.397253 -3.038865
v 1.140673 -2.399725 -3.587091
v 1.140673 -2.399725 -3.587091
v 1.140673 -2.681254 -3.321767
v 1.140673 -2.397253 -3.038865
v 1.140673 -2.682353 -3.585992
v 1.140673 -3.01799 -3.321492
v 1.140673 -3.300618 -3.03859
v 1.140673 -3.018265 -3.858457
v 1.140673 -3.301167 -4.14136
v 1.140673 -2.324743 -3.858457
v 1.140673 -2.04184 -4.14136
v 1.140673 -2.324743 -2.963332
v 1.140673 -2.04184 -2.83122
v 1.140673 -3.582696 -1.907805
v 1.140673 -3.362692 -1.723232
v 1.140673 -4.448981 -0.4070497
v 1.140673 -4.178988 -0.3087206
v 1.140673 -4.750011 1.299428
v 1.140673 -4.462715 1.299428
v 1.140673 -4.448981 3.005905
v 1.140673 -4.178988 2.907576
v 1.140673 -3.582696 4.50666
v 1.140673 -3.362692 4.322087
v 1.140673 -2.255253 5.620417
v 1.140673 -2.111604 5.371847
v 1.140673 -0.6267796 6.213139
v 1.140673 -0.5770659 5.930236
v 1.140673 0.6267796 6.213139
v 1.140673 0.5770655 5.930236
v 1.140673 2.255253 5.620417
v 1.140673 2.111605 5.371847
v 1.140673 3.582696 4.50666
v 1.140673 3.362692 4.322087
v 1.140673 4.448982 3.005905
v 1.140673 4.178988 2.907576
v 1.140673 4.750011 1.299428
v 1.140673 4.462715 1.299428
v 1.140673 4.448982 -0.4070497
v 1.140673 4.178988 -0.3087206
v 1.140673 3.582696 -1.907805
v 1.140673 3.362692 -1.723232
v 1.140673 2.324742 -2.963332
v 1.140673 2.041841 -2.83122
v 1.140673 2.324742 -3.858457
v 1.140673 2.041841 -4.14136
v 1.140673 3.018265 -3.858457
v 1.140673 3.301167 -4.14136
v 1.140673 3.01799 -3.321492
v 1.140673 3.300617 -3.03859
v 1.140673 2.681254 -3.321767
v 1.140673 2.397253 -3.038865
v 1.140673 2.682353 -3.585992
v 1.140673 2.399725 -3.587091
v 1.140673 -2.681254 -3.321767
v -1.141497 -3.01799 -3.321492
v 1.140673 -3.01799 -3.321492
v -1.141497 -2.681254 -3.321767
v -1.141497 -2.397253 -3.038865
v 1.140673 -3.300618 -3.03859
v -1.141497 -3.300618 -3.03859
v 1.140673 -2.397253 -3.038865
v 1.140673 -3.01799 -3.321492
v -1.141497 -3.018265 -3.858457
v 1.140673 -3.018265 -3.858457
v -1.141497 -3.01799 -3.321492
v -1.141497 -3.300618 -3.03859
v 1.140673 -3.301167 -4.14136
v -1.141497 -3.301167 -4.14136
v 1.140673 -3.300618 -3.03859
v 1.140673 -3.018265 -3.858457
v -1.141497 -2.324743 -3.858457
v 1.140673 -2.324743 -3.858457
v -1.141497 -3.018265 -3.858457
v -1.141497 -3.301167 -4.14136
v 1.140673 -2.04184 -4.14136
v -1.141497 -2.04184 -4.14136
v 1.140673 -3.301167 -4.14136
v 1.140673 -2.324743 -3.858457
v -1.141497 -2.324743 -2.963332
v 1.140673 -2.324743 -2.963332
v -1.141497 -2.324743 -3.858457
v -1.141497 -2.04184 -4.14136
v 1.140673 -2.04184 -2.83122
v -1.141497 -2.04184 -2.83122
v 1.140673 -2.04184 -4.14136
v 1.140673 -2.324743 -2.963332
v -1.141497 -3.582696 -1.907805
v 1.140673 -3.582696 -1.907805
v -1.141497 -2.324743 -2.963332
v -1.141497 -4.448981 -0.4070497
v 1.140673 -4.448981 -0.4070497
v -1.141497 -4.750011 1.299428
v 1.140673 -4.750011 1.299428
v -1.141497 -2.04184 -2.83122
v 1.140673 -3.362692 -1.723232
v -1.141497 -3.362692 -1.723232
v 1.140673 -2.04184 -2.83122
v 1.140673 -4.178988 -0.3087206
v -1.141497 -4.178988 -0.3087206
v 1.140673 -4.462715 1.299428
v -1.141497 -4.462715 1.299428
v 1.140673 -4.750011 1.299428
v -1.141497 -4.448981 3.005905
v 1.140673 -4.448981 3.005905
v -1.141497 -4.750011 1.299428
v -1.141497 -3.582696 4.50666
v 1.140673 -3.582696 4.50666
v -1.141497 -2.255253 5.620417
v 1.140673 -2.255253 5.620417
v -1.141497 -0.6267796 6.213139
v 1.140673 -0.6267796 6.213139
v -1.141497 0.6267796 6.213139
v 1.140673 0.6267796 6.213139
v -1.141497 2.255253 5.620417
v 1.140673 2.255253 5.620417
v -1.141497 3.582696 4.50666
v 1.140673 3.582696 4.50666
v -1.141497 4.448982 3.005905
v 1.140673 4.448982 3.005905
v -1.141497 4.750011 1.299428
v 1.140673 4.750011 1.299428
v -1.141497 -4.462715 1.299428
v 1.140673 -4.178988 2.907576
v -1.141497 -4.178988 2.907576
v 1.140673 -4.462715 1.299428
v 1.140673 -3.362692 4.322087
v -1.141497 -3.362692 4.322087
v 1.140673 -2.111604 5.371847
v -1.141497 -2.111604 5.371847
v 1.140673 -0.5770659 5.930236
v -1.141497 -0.5770659 5.930236
v 1.140673 0.5770655 5.930236
v -1.141497 0.5770655 5.930236
v 1.140673 2.111605 5.371847
v -1.141497 2.111605 5.371847
v 1.140673 3.362692 4.322087
v -1.141497 3.362692 4.322087
v 1.140673 4.178988 2.907576
v -1.141497 4.178988 2.907576
v 1.140673 4.462715 1.299428
v -1.141497 4.462715 1.299428
v 1.140673 4.750011 1.299428
v -1.141497 4.448982 -0.4070497
v 1.140673 4.448982 -0.4070497
v -1.141497 4.750011 1.299428
v -1.141497 3.582696 -1.907805
v 1.140673 3.582696 -1.907805
v -1.141497 2.324742 -2.963332
v 1.140673 2.324742 -2.963332
v -1.141497 4.462715 1.299428
v 1.140673 4.178988 -0.3087206
v -1.141497 4.178988 -0.3087206
v 1.140673 4.462715 1.299428
v 1.140673 3.362692 -1.723232
v -1.141497 3.362692 -1.723232
v 1.140673 2.041841 -2.83122
v -1.141497 2.041841 -2.83122
v 1.140673 2.324742 -2.963332
v -1.141497 2.324742 -3.858457
v 1.140673 2.324742 -3.858457
v -1.141497 2.324742 -2.963332
v -1.141497 2.041841 -2.83122
v 1.140673 2.041841 -4.14136
v -1.141497 2.041841 -4.14136
v 1.140673 2.041841 -2.83122
v 1.140673 2.324742 -3.858457
v -1.141497 3.018265 -3.858457
v 1.140673 3.018265 -3.858457
v -1.141497 2.324742 -3.858457
v -1.141497 2.041841 -4.14136
v 1.140673 3.301167 -4.14136
v -1.141497 3.301167 -4.14136
v 1.140673 2.041841 -4.14136
v 1.140673 3.018265 -3.858457
v -1.141497 3.01799 -3.321492
v 1.140673 3.01799 -3.321492
v -1.141497 3.018265 -3.858457
v -1.141497 3.301167 -4.14136
v 1.140673 3.300617 -3.03859
v -1.141497 3.300617 -3.03859
v 1.140673 3.301167 -4.14136
v 1.140673 3.01799 -3.321492
v -1.141497 2.681254 -3.321767
v 1.140673 2.681254 -3.321767
v -1.141497 3.01799 -3.321492
v -1.141497 3.300617 -3.03859
v 1.140673 2.397253 -3.038865
v -1.141497 2.397253 -3.038865
v 1.140673 3.300617 -3.03859
v 1.140673 2.681254 -3.321767
v -1.141497 2.682353 -3.585992
v 1.140673 2.682353 -3.585992
v -1.141497 2.681254 -3.321767
v -1.141497 2.397253 -3.038865
v 1.140673 2.399725 -3.587091
v -1.141497 2.399725 -3.587091
v 1.140673 2.397253 -3.038865
v -1.141497 -2.682353 -3.585992
v 1.140673 -2.682353 -3.585992
v -1.141497 -2.399725 -3.587091
v 1.140673 -2.399725 -3.587091
v -1.141497 2.399725 -3.587091
v 1.140673 2.682353 -3.585992
v -1.141497 2.682353 -3.585992
v 1.140673 2.399725 -3.587091
vn -0.003921628 -0.1764692 -0.9842983
vn -0.003921628 -0.1764692 -0.9842983
vn -0.003921628 -0.4980354 -0.8671479
vn -0.003921628 -0.4980354 -0.8671479
vn -0.003921628 -0.7647001 -0.6443745
vn -0.003921628 -0.7647001 -0.6443745
vn -0.003921628 -0.9372478 -0.3486421
vn -0.003921628 -0.9372478 -0.3486421
vn -0.003921628 -0.9999924 0
vn -0.003921628 -0.9999924 0
vn -0.003921628 -0.9372478 0.3486421
vn -0.003921628 -0.9372478 0.3486421
vn -0.003921628 -0.7647001 0.6443745
vn -0.003921628 -0.7647001 0.6443745
vn -0.003921628 -0.6392108 0.7690216
vn -0.003921628 -0.6392108 0.7690216
vn -0.003921628 -0.9999924 0
vn -0.003921628 -0.9999924 0
vn -0.003921628 -0.9999924 0
vn -0.003921628 -0.9999924 0
vn -0.9999924 0.003921628 0
vn -0.9999924 0.003921628 0
vn -0.9999924 0.003921628 0
vn -0.9999924 0.003921628 0
vn -0.9999924 0.003921628 0
vn -0.9999924 0.003921628 0
vn -0.9999924 0.003921628 0
vn -0.003921628 0.003921628 0.9999846
vn -0.003921628 0.003921628 0.9999846
vn -0.003921628 0.003921628 0.9999846
vn -0.003921628 0.003921628 0.9999846
vn -0.003921628 0.9999924 0
vn -0.003921628 0.9999924 0
vn -0.003921628 0.9999924 0
vn -0.003921628 0.9999924 0
vn -0.003921628 0.003921628 -0.9999846
vn -0.003921628 0.003921628 -0.9999846
vn -0.003921628 0.003921628 -0.9999846
vn -0.003921628 0.003921628 -0.9999846
vn -0.003921628 0.003921628 -0.9999846
vn 0.9999924 0.003921628 0
vn 0.9999924 0.003921628 0
vn 0.9999924 0.003921628 0
vn 0.9999924 0.003921628 0
vn 0.9999924 0.003921628 0
vn 0.9999924 0.003921628 0
vn 0.9999924 0.003921628 0
vn 0.9999924 0.003921628 0
vn 0.9999924 0.003921628 0
vn 0.9999924 0.003921628 0
vn 0.9999924 0.003921628 0
vn 0.9999924 0.003921628 0
vn 0.9999924 0.003921628 0
vn 0.9999924 0.003921628 0
vn 0.9999924 0.003921628 0
vn 0.9999924 0.003921628 0
vn 0.9999924 0.003921628 0
vn -0.003921628 -0.1764692 -0.9842983
vn -0.003921628 0.1764693 -0.9842983
vn -0.003921628 0.1764693 -0.9842983
vn -0.003921628 -0.1764692 -0.9842983
vn 0.9999924 0.003921628 0
vn 0.9999924 0.003921628 0
vn 0.9999924 0.003921628 0
vn 0.9999924 0.003921628 0
vn 0.9999924 0.003921628 0
vn 0.9999924 0.003921628 0
vn 0.9999924 0.003921628 0
vn 0.9999924 0.003921628 0
vn 0.9999924 0.003921628 0
vn 0.9999924 0.003921628 0
vn 0.9999924 0.003921628 0
vn -0.003921628 0.1764693 -0.9842983
vn -0.003921628 0.4980354 -0.8671478
vn -0.003921628 0.1764693 -0.9842983
vn -0.003921628 0.4980354 -0.8671478
vn -0.003921628 0.7647001 -0.6443745
vn -0.003921628 0.7647001 -0.6443745
vn -0.003921628 0.9372478 -0.3486421
vn -0.003921628 0.9372478 -0.3486421
vn -0.003921628 0.9999924 0
vn -0.003921628 0.9999924 0
vn -0.003921628 0.9372478 0.3486421
vn -0.003921628 0.9372478 0.3486421
vn -0.003921628 0.7647001 0.6443745
vn -0.003921628 0.7647001 0.6443745
vn -0.003921628 0.6392108 0.7690216
vn -0.003921628 0.6392108 0.7690216
vn -0.003921628 0.9999924 0
vn -0.003921628 0.9999924 0
vn -0.003921628 0.9999924 0
vn -0.003921628 0.9999924 0
vn -0.9999924 0.003921628 0
vn -0.9999924 0.003921628 0
vn -0.9999924 0.003921628 0
vn -0.9999924 0.003921628 0
vn -0.9999924 0.003921628 0
vn -0.9999924 0.003921628 0
vn -0.9999924 0.003921628 0
vn -0.9999924 0.003921628 0
vn -0.9999924 0.003921628 0
vn -0.9999924 0.003921628 0
vn -0.9999924 0.003921628 0
vn -0.9999924 0.003921628 0
vn -0.9999924 0.003921628 0
vn -0.9999924 0.003921628 0
vn -0.9999924 0.003921628 0
vn -0.9999924 0.003921628 0
vn -0.003921628 -0.9999924 0
vn -0.003921628 -0.9999924 0
vn -0.003921628 -0.9999924 0
vn -0.003921628 -0.9999924 0
vn -0.003921628 0.003921628 -0.9999846
vn -0.003921628 0.003921628 -0.9999846
vn -0.003921628 0.003921628 -0.9999846
vn -0.003921628 0.003921628 -0.9999846
vn -0.003921628 0.003921628 -0.9999846
vn 0.9999924 0.003921628 0
vn 0.9999924 0.003921628 0
vn 0.9999924 0.003921628 0
vn 0.9999924 0.003921628 0
vn 0.9999924 0.003921628 0
vn 0.9999924 0.003921628 0
vn 0.9999924 0.003921628 0
vn 0.9999924 0.003921628 0
vn -0.9999924 0.003921628 0
vn -0.9999924 0.003921628 0
vn -0.9999924 0.003921628 0
vn -0.9999924 0.003921628 0
vn -0.9999924 0.003921628 0
vn -0.9999924 0.003921628 0
vn -0.9999924 0.003921628 0
vn -0.9999924 0.003921628 0
vn -0.9999924 0.003921628 0
vn -0.9999924 0.003921628 0
vn -0.9999924 0.003921628 0
vn -0.9999924 0.003921628 0
vn -0.9999924 0.003921628 0
vn -0.9999924 0.003921628 0
vn 0.9999924 0.003921628 0
vn 0.9999924 0.003921628 0
vn 0.9999924 0.003921628 0
vn -0.003921628 -0.9999924 0
vn -0.003921628 -0.9999924 0
vn -0.003921628 -0.9999924 0
vn -0.003921628 -0.9999924 0
vn -0.9999924 0.003921628 0
vn -0.9999924 0.003921628 0
vn -0.9999924 0.003921628 0
vn -0.9999924 0.003921628 0
vn -0.9999924 0.003921628 0
vn -0.9999924 0.003921628 0
vn -0.9999924 0.003921628 0
vn -0.9999924 0.003921628 0
vn -0.9999924 0.003921628 0
vn -0.9999924 0.003921628 0
vn -0.9999924 0.003921628 0
vn -0.9999924 0.003921628 0
vn -0.9999924 0.003921628 0
vn -0.9999924 0.003921628 0
vn -0.9999924 0.003921628 0
vn -0.9999924 0.003921628 0
vn -0.9999924 0.003921628 0
vn -0.9999924 0.003921628 0
vn -0.9999924 0.003921628 0
vn -0.9999924 0.003921628 0
vn -0.9999924 0.003921628 0
vn -0.9999924 0.003921628 0
vn -0.9999924 0.003921628 0
vn -0.9999924 0.003921628 0
vn -0.9999924 0.003921628 0
vn -0.9999924 0.003921628 0
vn -0.9999924 0.003921628 0
vn -0.9999924 0.003921628 0
vn -0.9999924 0.003921628 0
vn -0.9999924 0.003921628 0
vn -0.9999924 0.003921628 0
vn -0.9999924 0.003921628 0
vn -0.9999924 0.003921628 0
vn -0.9999924 0.003921628 0
vn -0.9999924 0.003921628 0
vn -0.9999924 0.003921628 0
vn -0.9999924 0.003921628 0
vn -0.9999924 0.003921628 0
vn -0.9999924 0.003921628 0
vn -0.9999924 0.003921628 0
vn -0.9999924 0.003921628 0
vn -0.9999924 0.003921628 0
vn -0.9999924 0.003921628 0
vn -0.9999924 0.003921628 0
vn -0.9999924 0.003921628 0
vn -0.9999924 0.003921628 0
vn -0.9999924 0.003921628 0
vn -0.9999924 0.003921628 0
vn -0.9999924 0.003921628 0
vn -0.9999924 0.003921628 0
vn -0.9999924 0.003921628 0
vn -0.9999924 0.003921628 0
vn -0.003921628 0.9999924 0
vn -0.003921628 0.9999924 0
vn -0.003921628 0.9999924 0
vn -0.003921628 0.9999924 0
vn 0.9999924 0.003921628 0
vn 0.9999924 0.003921628 0
vn 0.9999924 0.003921628 0
vn 0.9999924 0.003921628 0
vn 0.9999924 0.003921628 0
vn 0.9999924 0.003921628 0
vn 0.9999924 0.003921628 0
vn 0.9999924 0.003921628 0
vn 0.9999924 0.003921628 0
vn 0.9999924 0.003921628 0
vn 0.9999924 0.003921628 0
vn 0.9999924 0.003921628 0
vn 0.9999924 0.003921628 0
vn 0.9999924 0.003921628 0
vn 0.9999924 0.003921628 0
vn 0.9999924 0.003921628 0
vn 0.9999924 0.003921628 0
vn 0.9999924 0.003921628 0
vn 0.9999924 0.003921628 0
vn 0.9999924 0.003921628 0
vn 0.9999924 0.003921628 0
vn 0.9999924 0.003921628 0
vn 0.9999924 0.003921628 0
vn 0.9999924 0.003921628 0
vn 0.9999924 0.003921628 0
vn 0.9999924 0.003921628 0
vn 0.9999924 0.003921628 0
vn 0.9999924 0.003921628 0
vn 0.9999924 0.003921628 0
vn 0.9999924 0.003921628 0
vn 0.9999924 0.003921628 0
vn 0.9999924 0.003921628 0
vn 0.9999924 0.003921628 0
vn 0.9999924 0.003921628 0
vn 0.9999924 0.003921628 0
vn 0.9999924 0.003921628 0
vn 0.9999924 0.003921628 0
vn 0.9999924 0.003921628 0
vn 0.9999924 0.003921628 0
vn 0.9999924 0.003921628 0
vn 0.9999924 0.003921628 0
vn 0.9999924 0.003921628 0
vn 0.9999924 0.003921628 0
vn 0.9999924 0.003921628 0
vn 0.9999924 0.003921628 0
vn 0.9999924 0.003921628 0
vn 0.9999924 0.003921628 0
vn 0.9999924 0.003921628 0
vn 0.9999924 0.003921628 0
vn 0.9999924 0.003921628 0
vn 0.9999924 0.003921628 0
vn 0.9999924 0.003921628 0
vn -0.003921628 -0.003921509 -0.9999846
vn -0.003921628 -0.003921509 -0.9999846
vn -0.003921628 -0.003921509 -0.9999846
vn -0.003921628 -0.003921509 -0.9999846
vn -0.003921628 0.003921628 0.9999846
vn -0.003921628 0.003921628 0.9999846
vn -0.003921628 0.003921628 0.9999846
vn -0.003921628 0.003921628 0.9999846
vn -0.003921628 0.9999924 0
vn -0.003921628 0.9999924 0
vn -0.003921628 0.9999924 0
vn -0.003921628 0.9999924 0
vn -0.003921628 -0.9999924 0
vn -0.003921628 -0.9999924 0
vn -0.003921628 -0.9999924 0
vn -0.003921628 -0.9999924 0
vn -0.003921628 0.003921628 0.9999846
vn -0.003921628 0.003921628 0.9999846
vn -0.003921628 0.003921628 0.9999846
vn -0.003921628 0.003921628 0.9999846
vn -0.003921628 0.003921628 -0.9999846
vn -0.003921628 0.003921628 -0.9999846
vn -0.003921628 0.003921628 -0.9999846
vn -0.003921628 0.003921628 -0.9999846
vn -0.003921628 -0.9999924 0
vn -0.003921628 -0.9999924 0
vn -0.003921628 -0.9999924 0
vn -0.003921628 -0.9999924 0
vn -0.003921628 0.9999924 0
vn -0.003921628 0.9999924 0
vn -0.003921628 0.9999924 0
vn -0.003921628 0.9999924 0
vn -0.003921628 -0.6392108 -0.7690216
vn -0.003921628 -0.7647001 -0.6443745
vn -0.003921628 -0.7647001 -0.6443745
vn -0.003921628 -0.6392108 -0.7690216
vn -0.003921628 -0.9372478 -0.3486421
vn -0.003921628 -0.9372478 -0.3486421
vn -0.003921628 -0.9999924 0
vn -0.003921628 -0.9999924 0
vn -0.003921628 0.6392108 0.7690216
vn -0.003921628 0.7647001 0.6443745
vn -0.003921628 0.7647001 0.6443745
vn -0.003921628 0.6392108 0.7690216
vn -0.003921628 0.9372478 0.3486421
vn -0.003921628 0.9372478 0.3486421
vn -0.003921628 0.9999924 0
vn -0.003921628 0.9999924 0
vn -0.003921628 -0.9999924 0
vn -0.003921628 -0.9372478 0.3486421
vn -0.003921628 -0.9372478 0.3486421
vn -0.003921628 -0.9999924 0
vn -0.003921628 -0.7647001 0.6443745
vn -0.003921628 -0.7647001 0.6443745
vn -0.003921628 -0.4980354 0.8671479
vn -0.003921628 -0.4980354 0.8671479
vn -0.003921628 -0.1764692 0.9842983
vn -0.003921628 -0.1764692 0.9842983
vn -0.003921628 0.1764693 0.9842983
vn -0.003921628 0.1764693 0.9842983
vn -0.003921628 0.4980354 0.8671478
vn -0.003921628 0.4980354 0.8671478
vn -0.003921628 0.7647001 0.6443745
vn -0.003921628 0.7647001 0.6443745
vn -0.003921628 0.9372478 0.3486421
vn -0.003921628 0.9372478 0.3486421
vn -0.003921628 0.9999924 0
vn -0.003921628 0.9999924 0
vn -0.003921628 0.9999924 0
vn -0.003921628 0.9372478 -0.3486421
vn -0.003921628 0.9372478 -0.3486421
vn -0.003921628 0.9999924 0
vn -0.003921628 0.7647001 -0.6443745
vn -0.003921628 0.7647001 -0.6443745
vn -0.003921628 0.4980354 -0.8671478
vn -0.003921628 0.4980354 -0.8671478
vn -0.003921628 0.1764693 -0.9842983
vn -0.003921628 0.1764693 -0.9842983
vn -0.003921628 -0.1764692 -0.9842983
vn -0.003921628 -0.1764692 -0.9842983
vn -0.003921628 -0.4980354 -0.8671479
vn -0.003921628 -0.4980354 -0.8671479
vn -0.003921628 -0.7647001 -0.6443745
vn -0.003921628 -0.7647001 -0.6443745
vn -0.003921628 -0.9372478 -0.3486421
vn -0.003921628 -0.9372478 -0.3486421
vn -0.003921628 -0.9999924 0
vn -0.003921628 -0.9999924 0
vn -0.003921628 0.9999924 0
vn -0.003921628 0.9372478 -0.3486421
vn -0.003921628 0.9372478 -0.3486421
vn -0.003921628 0.9999924 0
vn -0.003921628 0.7647001 -0.6443745
vn -0.003921628 0.7647001 -0.6443745
vn -0.003921628 0.6392108 -0.7690216
vn -0.003921628 0.6392108 -0.7690216
vn -0.003921628 -0.9999924 0
vn -0.003921628 -0.9372478 0.3486421
vn -0.003921628 -0.9372478 0.3486421
vn -0.003921628 -0.9999924 0
vn -0.003921628 -0.7647001 0.6443745
vn -0.003921628 -0.7647001 0.6443745
vn -0.003921628 -0.6392108 0.7690216
vn -0.003921628 -0.6392108 0.7690216
vn -0.003921628 0.9999924 0
vn -0.003921628 0.9999924 0
vn -0.003921628 0.9999924 0
vn -0.003921628 0.9999924 0
vn -0.003921628 -0.9999924 0
vn -0.003921628 -0.9999924 0
vn -0.003921628 -0.9999924 0
vn -0.003921628 -0.9999924 0
vn -0.003921628 0.003921628 0.9999846
vn -0.003921628 0.003921628 0.9999846
vn -0.003921628 0.003921628 0.9999846
vn -0.003921628 0.003921628 0.9999846
vn -0.003921628 0.003921628 -0.9999846
vn -0.003921628 0.003921628 -0.9999846
vn -0.003921628 0.003921628 -0.9999846
vn -0.003921628 0.003921628 -0.9999846
vn -0.003921628 -0.9999924 0
vn -0.003921628 -0.9999924 0
vn -0.003921628 -0.9999924 0
vn -0.003921628 -0.9999924 0
vn -0.003921628 0.9999924 0
vn -0.003921628 0.9999924 0
vn -0.003921628 0.9999924 0
vn -0.003921628 0.9999924 0
vn -0.003921628 0.003921628 -0.9999846
vn -0.003921628 0.003921628 -0.9999846
vn -0.003921628 0.003921628 -0.9999846
vn -0.003921628 0.003921628 -0.9999846
vn -0.003921628 -0.003921509 0.9999846
vn -0.003921628 -0.003921509 0.9999846
vn -0.003921628 -0.003921509 0.9999846
vn -0.003921628 -0.003921509 0.9999846
vn -0.003921628 0.9999924 0
vn -0.003921628 0.9999924 0
vn -0.003921628 0.9999924 0
vn -0.003921628 0.9999924 0
vn -0.003921628 -0.9999924 0
vn -0.003921628 -0.9999924 0
vn -0.003921628 -0.9999924 0
vn -0.003921628 -0.9999924 0
vn -0.003921628 -0.003921509 -0.9999846
vn -0.003921628 -0.003921509 -0.9999846
vn -0.003921628 -0.003921509 -0.9999846
vn -0.003921628 -0.003921509 -0.9999846
vn -0.003921628 0.003921628 -0.9999846
vn -0.003921628 0.003921628 -0.9999846
vn -0.003921628 0.003921628 -0.9999846
vn -0.003921628 0.003921628 -0.9999846
g Box012_0
f 3/3/3 2/2/2 1/1/1
f 4/4/4 2/2/2 3/3/3
f 3/3/3 5/5/5 4/4/4
f 5/5/5 6/6/6 4/4/4
f 5/5/5 7/7/7 6/6/6
f 8/8/8 7/7/7 5/5/5
f 8/8/8 9/9/9 7/7/7
f 10/10/10 9/9/9 8/8/8
f 10/10/10 11/11/11 9/9/9
f 12/12/12 11/11/11 10/10/10
f 12/12/12 13/13/13 11/11/11
f 14/14/14 13/13/13 12/12/12
f 15/15/15 13/13/13 14/14/14
f 16/16/16 15/15/15 14/14/14
f 19/19/19 18/18/18 17/17/17
f 20/20/20 18/18/18 19/19/19
f 23/23/23 22/22/22 21/21/21
f 24/24/24 22/22/22 23/23/23
f 25/25/25 22/22/22 24/24/24
f 22/22/22 25/25/25 21/21/21
f 24/24/24 23/23/23 26/26/26
f 25/25/25 27/27/27 21/21/21
f 21/21/21 27/27/27 23/23/23
f 30/30/30 29/29/29 28/28/28
f 31/31/31 30/30/30 28/28/28
f 34/34/34 33/33/33 32/32/32
f 35/35/35 34/34/34 32/32/32
f 38/38/38 37/37/37 36/36/36
f 39/39/39 38/38/38 36/36/36
f 40/40/40 39/39/39 36/36/36
f 41/41/41 40/40/40 36/36/36
f 44/44/44 43/43/43 42/42/42
f 45/45/45 43/43/43 44/44/44
f 46/46/46 45/45/45 44/44/44
f 46/46/46 44/44/44 47/47/47
f 44/44/44 42/42/42 47/47/47
f 47/47/47 42/42/42 48/48/48
f 42/42/42 43/43/43 48/48/48
f 48/48/48 43/43/43 49/49/49
f 45/45/45 50/50/50 43/43/43
f 43/43/43 50/50/50 49/49/49
f 49/49/49 50/50/50 51/51/51
f 51/51/51 50/50/50 52/52/52
f 50/50/50 53/53/53 52/52/52
f 52/52/52 53/53/53 54/54/54
f 54/54/54 53/53/53 55/55/55
f 53/53/53 56/56/56 55/55/55
f 55/55/55 56/56/56 57/57/57
f 60/60/60 59/59/59 58/58/58
f 61/61/61 60/60/60 58/58/58
f 64/64/64 63/63/63 62/62/62
f 65/65/65 63/63/63 64/64/64
f 66/66/66 65/65/65 64/64/64
f 67/67/67 66/66/66 64/64/64
f 68/68/68 67/67/67 64/64/64
f 69/69/69 68/68/68 64/64/64
f 70/70/70 68/68/68 69/69/69
f 71/71/71 70/70/70 69/69/69
f 72/72/72 71/71/71 69/69/69
f 75/75/75 74/74/74 73/73/73
f 76/76/76 74/74/74 75/75/75
f 77/77/77 74/74/74 76/76/76
f 78/78/78 77/77/77 76/76/76
f 79/79/79 77/77/77 78/78/78
f 80/80/80 77/77/77 79/79/79
f 81/81/81 80/80/80 79/79/79
f 82/82/82 80/80/80 81/81/81
f 83/83/83 82/82/82 81/81/81
f 84/84/84 82/82/82 83/83/83
f 85/85/85 84/84/84 83/83/83
f 86/86/86 84/84/84 85/85/85
f 87/87/87 86/86/86 85/85/85
f 88/88/88 86/86/86 87/87/87
f 91/91/91 90/90/90 89/89/89
f 92/92/92 90/90/90 91/91/91
f 95/95/95 94/94/94 93/93/93
f 96/96/96 94/94/94 95/95/95
f 97/97/97 96/96/96 95/95/95
f 97/97/97 95/95/95 98/98/98
f 95/95/95 93/93/93 98/98/98
f 98/98/98 93/93/93 99/99/99
f 93/93/93 94/94/94 99/99/99
f 99/99/99 94/94/94 100/100/100
f 96/96/96 101/101/101 94/94/94
f 94/94/94 101/101/101 100/100/100
f 100/100/100 101/101/101 102/102/102
f 102/102/102 101/101/101 103/103/103
f 101/101/101 104/104/104 103/103/103
f 103/103/103 104/104/104 105/105/105
f 105/105/105 104/104/104 106/106/106
f 106/106/106 104/104/104 107/107/107
f 108/108/108 106/106/106 107/107/107
f 111/111/111 110/110/110 109/109/109
f 112/112/112 110/110/110 111/111/111
f 115/115/115 114/114/114 113/113/113
f 116/116/116 114/114/114 115/115/115
f 117/117/117 114/114/114 116/116/116
f 118/118/118 114/114/114 117/117/117
f 121/121/121 120/120/120 119/119/119
f 122/122/122 120/120/120 121/121/121
f 123/123/123 120/120/120 122/122/122
f 120/120/120 123/123/123 119/119/119
f 122/122/122 121/121/121 124/124/124
f 123/123/123 125/125/125 119/119/119
f 119/119/119 125/125/125 121/121/121
f 128/128/128 127/127/127 126/126/126
f 127/127/127 129/129/129 126/126/126
f 129/129/129 130/130/130 126/126/126
f 131/131/131 128/128/128 126/126/126
f 132/132/132 131/131/131 126/126/126
f 133/133/133 132/132/132 126/126/126
f 134/134/134 132/132/132 133/133/133
f 135/135/135 134/134/134 133/133/133
f 136/136/136 135/135/135 133/133/133
f 139/139/139 138/138/138 137/137/137
f 142/142/142 141/141/141 140/140/140
g Box012_1
f 145/145/145 144/144/144 143/143/143
f 146/146/146 143/143/143 144/144/144
f 149/149/149 148/148/148 147/147/147
f 150/150/150 147/147/147 148/148/148
f 148/148/148 149/149/149 151/151/151
f 152/152/152 151/151/151 149/149/149
f 151/151/151 152/152/152 153/153/153
f 154/154/154 153/153/153 152/152/152
f 153/153/153 154/154/154 155/155/155
f 156/156/156 155/155/155 154/154/154
f 155/155/155 156/156/156 157/157/157
f 158/158/158 157/157/157 156/156/156
f 157/157/157 158/158/158 159/159/159
f 160/160/160 159/159/159 158/158/158
f 159/159/159 160/160/160 161/161/161
f 162/162/162 161/161/161 160/160/160
f 161/161/161 162/162/162 163/163/163
f 164/164/164 163/163/163 162/162/162
f 163/163/163 164/164/164 165/165/165
f 166/166/166 165/165/165 164/164/164
f 165/165/165 166/166/166 167/167/167
f 168/168/168 167/167/167 166/166/166
f 167/167/167 168/168/168 169/169/169
f 170/170/170 169/169/169 168/168/168
f 169/169/169 170/170/170 171/171/171
f 172/172/172 171/171/171 170/170/170
f 171/171/171 172/172/172 173/173/173
f 174/174/174 173/173/173 172/172/172
f 173/173/173 174/174/174 175/175/175
f 176/176/176 175/175/175 174/174/174
f 175/175/175 176/176/176 177/177/177
f 178/178/178 177/177/177 176/176/176
f 177/177/177 178/178/178 179/179/179
f 180/180/180 179/179/179 178/178/178
f 179/179/179 180/180/180 181/181/181
f 182/182/182 181/181/181 180/180/180
f 181/181/181 182/182/182 183/183/183
f 184/184/184 183/183/183 182/182/182
f 183/183/183 184/184/184 185/185/185
f 186/186/186 185/185/185 184/184/184
f 185/185/185 186/186/186 187/187/187
f 188/188/188 187/187/187 186/186/186
f 187/187/187 188/188/188 189/189/189
f 190/190/190 189/189/189 188/188/188
f 189/189/189 190/190/190 191/191/191
f 192/192/192 191/191/191 190/190/190
f 191/191/191 192/192/192 193/193/193
f 194/194/194 193/193/193 192/192/192
f 193/193/193 194/194/194 195/195/195
f 196/196/196 195/195/195 194/194/194
f 195/195/195 196/196/196 197/197/197
f 198/198/198 197/197/197 196/196/196
f 201/201/201 200/200/200 199/199/199
f 202/202/202 199/199/199 200/200/200
f 205/205/205 204/204/204 203/203/203
f 206/206/206 203/203/203 204/204/204
f 204/204/204 205/205/205 207/207/207
f 208/208/208 207/207/207 205/205/205
f 207/207/207 208/208/208 209/209/209
f 210/210/210 209/209/209 208/208/208
f 209/209/209 210/210/210 211/211/211
f 212/212/212 211/211/211 210/210/210
f 211/211/211 212/212/212 213/213/213
f 214/214/214 213/213/213 212/212/212
f 213/213/213 214/214/214 215/215/215
f 216/216/216 215/215/215 214/214/214
f 215/215/215 216/216/216 217/217/217
f 218/218/218 217/217/217 216/216/216
f 217/217/217 218/218/218 219/219/219
f 220/220/220 219/219/219 218/218/218
f 219/219/219 220/220/220 221/221/221
f 222/222/222 221/221/221 220/220/220
f 221/221/221 222/222/222 223/223/223
f 224/224/224 223/223/223 222/222/222
f 223/223/223 224/224/224 225/225/225
f 226/226/226 225/225/225 224/224/224
f 225/225/225 226/226/226 227/227/227
f 228/228/228 227/227/227 226/226/226
f 227/227/227 228/228/228 229/229/229
f 230/230/230 229/229/229 228/228/228
f 229/229/229 230/230/230 231/231/231
f 232/232/232 231/231/231 230/230/230
f 231/231/231 232/232/232 233/233/233
f 234/234/234 233/233/233 232/232/232
f 233/233/233 234/234/234 235/235/235
f 236/236/236 235/235/235 234/234/234
f 235/235/235 236/236/236 237/237/237
f 238/238/238 237/237/237 236/236/236
f 237/237/237 238/238/238 239/239/239
f 240/240/240 239/239/239 238/238/238
f 239/239/239 240/240/240 241/241/241
f 242/242/242 241/241/241 240/240/240
f 241/241/241 242/242/242 243/243/243
f 244/244/244 243/243/243 242/242/242
f 243/243/243 244/244/244 245/245/245
f 246/246/246 245/245/245 244/244/244
f 245/245/245 246/246/246 247/247/247
f 248/248/248 247/247/247 246/246/246
f 247/247/247 248/248/248 249/249/249
f 250/250/250 249/249/249 248/248/248
f 249/249/249 250/250/250 251/251/251
f 252/252/252 251/251/251 250/250/250
f 251/251/251 252/252/252 253/253/253
f 254/254/254 253/253/253 252/252/252
f 257/257/257 256/256/256 255/255/255
f 258/258/258 255/255/255 256/256/256
f 261/261/261 260/260/260 259/259/259
f 262/262/262 259/259/259 260/260/260
f 265/265/265 264/264/264 263/263/263
f 266/266/266 263/263/263 264/264/264
f 269/269/269 268/268/268 267/267/267
f 270/270/270 267/267/267 268/268/268
f 273/273/273 272/272/272 271/271/271
f 274/274/274 271/271/271 272/272/272
f 277/277/277 276/276/276 275/275/275
f 278/278/278 275/275/275 276/276/276
f 281/281/281 280/280/280 279/279/279
f 282/282/282 279/279/279 280/280/280
f 285/285/285 284/284/284 283/283/283
f 286/286/286 283/283/283 284/284/284
f 289/289/289 288/288/288 287/287/287
f 290/290/290 287/287/287 288/288/288
f 288/288/288 289/289/289 291/291/291
f 292/292/292 291/291/291 289/289/289
f 291/291/291 292/292/292 293/293/293
f 294/294/294 293/293/293 292/292/292
f 297/297/297 296/296/296 295/295/295
f 298/298/298 295/295/295 296/296/296
f 296/296/296 297/297/297 299/299/299
f 300/300/300 299/299/299 297/297/297
f 299/299/299 300/300/300 301/301/301
f 302/302/302 301/301/301 300/300/300
f 305/305/305 304/304/304 303/303/303
f 306/306/306 303/303/303 304/304/304
f 304/304/304 305/305/305 307/307/307
f 308/308/308 307/307/307 305/305/305
f 307/307/307 308/308/308 309/309/309
f 310/310/310 309/309/309 308/308/308
f 309/309/309 310/310/310 311/311/311
f 312/312/312 311/311/311 310/310/310
f 311/311/311 312/312/312 313/313/313
f 314/314/314 313/313/313 312/312/312
f 313/313/313 314/314/314 315/315/315
f 316/316/316 315/315/315 314/314/314
f 315/315/315 316/316/316 317/317/317
f 318/318/318 317/317/317 316/316/316
f 317/317/317 318/318/318 319/319/319
f 320/320/320 319/319/319 318/318/318
f 319/319/319 320/320/320 321/321/321
f 322/322/322 321/321/321 320/320/320
f 325/325/325 324/324/324 323/323/323
f 326/326/326 323/323/323 324/324/324
f 324/324/324 325/325/325 327/327/327
f 328/328/328 327/327/327 325/325/325
f 327/327/327 328/328/328 329/329/329
f 330/330/330 329/329/329 328/328/328
f 329/329/329 330/330/330 331/331/331
f 332/332/332 331/331/331 330/330/330
f 331/331/331 332/332/332 333/333/333
f 334/334/334 333/333/333 332/332/332
f 333/333/333 334/334/334 335/335/335
f 336/336/336 335/335/335 334/334/334
f 335/335/335 336/336/336 337/337/337
f 338/338/338 337/337/337 336/336/336
f 337/337/337 338/338/338 339/339/339
f 340/340/340 339/339/339 338/338/338
f 339/339/339 340/340/340 341/341/341
f 342/342/342 341/341/341 340/340/340
f 345/345/345 344/344/344 343/343/343
f 346/346/346 343/343/343 344/344/344
f 344/344/344 345/345/345 347/347/347
f 348/348/348 347/347/347 345/345/345
f 347/347/347 348/348/348 349/349/349
f 350/350/350 349/349/349 348/348/348
f 353/353/353 352/352/352 351/351/351
f 354/354/354 351/351/351 352/352/352
f 352/352/352 353/353/353 355/355/355
f 356/356/356 355/355/355 353/353/353
f 355/355/355 356/356/356 357/357/357
f 358/358/358 357/357/357 356/356/356
f 361/361/361 360/360/360 359/359/359
f 362/362/362 359/359/359 360/360/360
f 365/365/365 364/364/364 363/363/363
f 366/366/366 363/363/363 364/364/364
f 369/369/369 368/368/368 367/367/367
f 370/370/370 367/367/367 368/368/368
f 373/373/373 372/372/372 371/371/371
f 374/374/374 371/371/371 372/372/372
f 377/377/377 376/376/376 375/375/375
f 378/378/378 375/375/375 376/376/376
f 381/381/381 380/380/380 379/379/379
f 382/382/382 379/379/379 380/380/380
f 385/385/385 384/384/384 383/383/383
f 386/386/386 383/383/383 384/384/384
f 389/389/389 388/388/388 387/387/387
f 390/390/390 387/387/387 388/388/388
f 393/393/393 392/392/392 391/391/391
f 394/394/394 391/391/391 392/392/392
f 397/397/397 396/396/396 395/395/395
f 398/398/398 395/395/395 396/396/396
f 401/401/401 400/400/400 399/399/399
f 402/402/402 400/400/400 401/401/401
f 405/405/405 404/404/404 403/403/403
f 403/403/403 404/404/404 406/406/406
