g Box153
v -0.2908361 -4.053116E-06 3.771146
v 0.2908442 -0.8333393 3.63753
v -0.2908361 -0.8333393 3.63753
v 0.2908442 -4.053116E-06 3.771146
v -0.2908361 0.8333311 3.63753
v 0.2908442 0.8333311 3.63753
v 0.2908442 1.666667 3.304118
v -0.2908361 1.666667 3.304118
v 0.2908442 2.500002 3.03408
v -0.2908361 2.500002 3.03408
v -0.2908361 -1.666675 3.304118
v 0.2908442 -1.666675 3.304118
v -0.2908361 -2.50001 3.03408
v 0.2908442 -2.50001 3.03408
v -0.5000167 1.063024 -4.053116E-06
v 0.5000246 2.500002 -4.053116E-06
v -0.5000167 2.500002 -4.053116E-06
v -0.5000167 0.5788703 -4.053116E-06
v 0.5000246 0.5788703 -4.053116E-06
v 0.5000246 -0.6855005 -4.053116E-06
v -0.5000167 -2.50001 -4.053116E-06
v 0.5000246 -2.50001 -4.053116E-06
v -0.5000167 -0.6855005 -4.053116E-06
v 0.2908442 -2.50001 3.03408
v 0.5000246 -1.666675 3.094938
v 0.5000246 -2.50001 2.824899
v 0.2908442 -1.666675 3.304118
v -0.2908361 2.500002 3.03408
v -0.5000167 1.666667 3.094938
v -0.5000167 2.500002 2.824899
v -0.2908361 1.666667 3.304118
v 0.2908442 -1.666675 3.304118
v 0.5000246 -0.8333393 3.428349
v 0.5000246 -1.666675 3.094938
v 0.2908442 -0.8333393 3.63753
v 0.2908442 -0.8333393 3.63753
v 0.5000246 -4.053116E-06 3.561965
v 0.5000246 -0.8333393 3.428349
v 0.2908442 -4.053116E-06 3.771146
v 0.5000246 -4.053116E-06 3.561965
v 0.2908442 0.8333311 3.63753
v 0.5000246 0.8333311 3.428349
v 0.2908442 -4.053116E-06 3.771146
v 0.5000246 0.8333311 3.428349
v 0.2908442 1.666667 3.304118
v 0.5000246 1.666667 3.094938
v 0.2908442 0.8333311 3.63753
v 0.5000246 1.666667 3.094938
v 0.2908442 2.500002 3.03408
v 0.5000246 2.500002 2.824899
v 0.2908442 1.666667 3.304118
v -0.2908361 1.666667 3.304118
v -0.5000167 0.8333311 3.428349
v -0.5000167 1.666667 3.094938
v -0.2908361 0.8333311 3.63753
v -0.2908361 0.8333311 3.63753
v -0.5000167 -4.053116E-06 3.561965
v -0.5000167 0.8333311 3.428349
v -0.2908361 -4.053116E-06 3.771146
v -0.5000167 -4.053116E-06 3.561965
v -0.2908361 -0.8333393 3.63753
v -0.5000167 -0.8333393 3.428349
v -0.2908361 -4.053116E-06 3.771146
v -0.5000167 -0.8333393 3.428349
v -0.2908361 -1.666675 3.304118
v -0.5000167 -1.666675 3.094938
v -0.2908361 -0.8333393 3.63753
v -0.5000167 -1.666675 3.094938
v -0.2908361 -2.50001 3.03408
v -0.5000167 -2.50001 2.824899
v -0.2908361 -1.666675 3.304118
v -0.5000167 -0.6557003 0.5014679
v 0.5000246 -0.6855005 -4.053116E-06
v 0.5000246 -0.6557003 0.5014679
v 0.5000246 -0.6855005 -4.053116E-06
v -0.5000167 -0.6557003 0.5014679
v -0.5000167 -0.6855005 -4.053116E-06
v -0.5000167 -0.9920145 0.7837934
v 0.5000246 -0.6557003 0.5014679
v 0.5000246 -0.9920145 0.7837934
v -0.5000167 -0.6557003 0.5014679
v -0.5000167 -1.211644 1.164034
v 0.5000246 -1.211644 1.164034
v -0.5000167 -1.270857 1.596521
v 0.5000246 -1.270857 1.596521
v -0.5000167 -1.211644 2.029008
v 0.5000246 -1.211644 2.029008
v -0.5000167 -0.9920145 2.409248
v 0.5000246 -0.9920145 2.409248
v -0.5000167 -0.6557003 2.691573
v 0.5000246 -0.6557003 2.691573
v -0.5000167 -0.243048 2.841734
v 0.5000246 -0.243048 2.841734
v 0.5000246 0.1961148 2.841734
v -0.5000167 0.1961148 2.841734
v 0.5000246 0.608767 2.691573
v -0.5000167 0.1961148 2.841734
v 0.5000246 0.1961148 2.841734
v -0.5000167 0.608767 2.691573
v 0.5000246 0.945178 2.409248
v -0.5000167 0.945178 2.409248
v 0.5000246 1.164711 2.029008
v -0.5000167 1.164711 2.029008
v 0.5000246 1.240953 1.596521
v -0.5000167 1.240953 1.596521
v 0.5000246 1.164711 1.164034
v -0.5000167 1.164711 1.164034
v 0.5000246 0.945178 0.7837934
v -0.5000167 0.945178 0.7837934
v 0.5000246 0.608767 0.5014679
v -0.5000167 0.608767 0.5014679
v -0.5000167 0.608767 0.5014679
v 0.5000246 0.5788703 -4.053116E-06
v -0.5000167 0.5788703 -4.053116E-06
v 0.5000246 0.5788703 -4.053116E-06
v -0.5000167 0.608767 0.5014679
v 0.5000246 0.608767 0.5014679
v 0.2908442 -2.50001 3.03408
v -0.5000167 -2.50001 2.824899
v -0.2908361 -2.50001 3.03408
v 0.5000246 -2.50001 2.824899
v -0.5000167 -2.50001 -4.053116E-06
v 0.5000246 -2.50001 -4.053116E-06
v -0.2908361 2.500002 3.03408
v 0.5000246 2.500002 2.824899
v 0.2908442 2.500002 3.03408
v -0.5000167 2.500002 2.824899
v 0.5000246 2.500002 -4.053116E-06
v -0.5000167 2.500002 -4.053116E-06
v 0.5000246 -2.50001 -4.053116E-06
v 0.5000246 -0.6557003 0.5014679
v 0.5000246 -0.6855005 -4.053116E-06
v 0.5000246 -0.9920145 0.7837934
v 0.5000246 -2.50001 2.824899
v 0.5000246 -1.211644 1.164034
v 0.5000246 -1.270857 1.596521
v 0.5000246 -1.211644 2.029008
v 0.5000246 -1.666675 3.094938
v 0.5000246 -0.9920145 2.409248
v 0.5000246 -0.8333393 3.428349
v 0.5000246 -0.6557003 2.691573
v 0.5000246 -0.243048 2.841734
v 0.5000246 -4.053116E-06 3.561965
v 0.5000246 0.1961148 2.841734
v 0.5000246 0.8333311 3.428349
v 0.5000246 0.608767 2.691573
v 0.5000246 1.666667 3.094938
v 0.5000246 0.945178 2.409248
v 0.5000246 2.500002 2.824899
v 0.5000246 1.164711 2.029008
v 0.5000246 1.240953 1.596521
v 0.5000246 1.164711 1.164034
v 0.5000246 0.945178 0.7837934
v 0.5000246 2.500002 -4.053116E-06
v 0.5000246 0.608767 0.5014679
v 0.5000246 0.5788703 -4.053116E-06
v -0.5000167 0.7909536 0.1690238
v -0.5000167 0.608767 0.5014679
v -0.5000167 0.5788703 -4.053116E-06
v -0.5000167 0.7896957 0.3744309
v -0.5000167 0.945178 0.7837934
v -0.5000167 1.062637 0.3744309
v -0.5000167 1.164711 1.164034
v -0.5000167 1.240953 1.596521
v -0.5000167 2.500002 -4.053116E-06
v -0.5000167 1.666667 3.094938
v -0.5000167 1.164711 2.029008
v -0.5000167 0.945178 2.409248
v -0.5000167 0.608767 2.691573
v -0.5000167 0.1961148 2.841734
v -0.5000167 -0.243048 2.841734
v -0.5000167 -2.50001 2.824899
v -0.5000167 -0.6557003 2.691573
v -0.5000167 -0.9920145 2.409248
v -0.5000167 -1.211644 2.029008
v -0.5000167 -1.270857 1.596521
v -0.5000167 -1.211644 1.164034
v -0.5000167 -0.6855005 -4.053116E-06
v -0.5000167 -0.9920145 0.7837934
v -0.5000167 -0.6557003 0.5014679
v -0.5000167 -2.50001 -4.053116E-06
v -0.5000167 -4.053116E-06 3.561965
v -0.5000167 -1.666675 3.094938
v -0.5000167 -0.8333393 3.428349
v -0.5000167 0.8333311 3.428349
v -0.5000167 2.500002 2.824899
v -0.5000167 1.063024 -4.053116E-06
v -0.5707433 -1.690186 3.161697
v -0.4292898 -2.569576 2.892433
v -0.5707433 -2.569576 2.892433
v -0.4292898 -1.690186 3.161697
v -0.5707433 -0.8523029 3.496947
v -0.4292898 -0.8523029 3.496947
v -0.5707433 -4.053116E-06 3.633562
v -0.4292898 -4.053116E-06 3.633562
v -0.5707433 0.8522949 3.496947
v -0.4292898 0.8522949 3.496947
v -0.5707433 1.690178 3.161697
v -0.4292898 1.690178 3.161697
v -0.5707433 2.572083 2.89253
v -0.4292898 2.572083 2.89253
v -0.5707433 -1.643164 3.028178
v -0.5707433 -2.569576 2.892433
v -0.5707433 -2.528165 2.757269
v -0.5707433 -1.690186 3.161697
v -0.5707433 -0.8143756 3.359751
v -0.5707433 -0.8523029 3.496947
v -0.5707433 -4.053116E-06 3.490368
v -0.5707433 -4.053116E-06 3.633562
v -0.5707433 0.8143678 3.359751
v -0.5707433 0.8522949 3.496947
v -0.5707433 1.643156 3.028178
v -0.5707433 1.690178 3.161697
v -0.5707433 2.530866 2.757269
v -0.5707433 2.572083 2.89253
v -0.4292898 -1.643164 3.028178
v -0.5707433 -2.528165 2.757269
v -0.4292898 -2.528165 2.757269
v -0.5707433 -1.643164 3.028178
v -0.4292898 -0.8143756 3.359751
v -0.5707433 -0.8143756 3.359751
v -0.4292898 -4.053116E-06 3.490368
v -0.5707433 -4.053116E-06 3.490368
v -0.4292898 0.8143678 3.359751
v -0.5707433 0.8143678 3.359751
v -0.4292898 1.643156 3.028178
v -0.5707433 1.643156 3.028178
v -0.4292898 2.530866 2.757269
v -0.5707433 2.530866 2.757269
v -0.4292898 -1.690186 3.161697
v -0.4292898 -2.528165 2.757269
v -0.4292898 -2.569576 2.892433
v -0.4292898 -1.643164 3.028178
v -0.4292898 -0.8523029 3.496947
v -0.4292898 -0.8143756 3.359751
v -0.4292898 -4.053116E-06 3.633562
v -0.4292898 -4.053116E-06 3.490368
v -0.4292898 0.8522949 3.496947
v -0.4292898 0.8143678 3.359751
v -0.4292898 1.690178 3.161697
v -0.4292898 1.643156 3.028178
v -0.4292898 2.572083 2.89253
v -0.4292898 2.530866 2.757269
v -0.5707433 -2.528165 2.757269
v -0.4292898 -2.569576 2.892433
v -0.4292898 -2.528165 2.757269
v -0.5707433 -2.569576 2.892433
v -0.5707433 2.530866 2.757269
v -0.4292898 2.572083 2.89253
v -0.5707433 2.572083 2.89253
v -0.4292898 2.530866 2.757269
v 0.5707512 1.690178 3.161697
v 0.4292979 2.572083 2.89253
v 0.5707512 2.572083 2.89253
v 0.4292979 1.690178 3.161697
v 0.5707512 0.8522949 3.496947
v 0.4292979 0.8522949 3.496947
v 0.5707512 -4.053116E-06 3.633562
v 0.4292979 -4.053116E-06 3.633562
v 0.5707512 -0.8523029 3.496947
v 0.4292979 -0.8523029 3.496947
v 0.5707512 -1.690186 3.161697
v 0.4292979 -1.690186 3.161697
v 0.5707512 -2.569576 2.892433
v 0.4292979 -2.569576 2.892433
v 0.5707512 1.643156 3.028178
v 0.5707512 2.572083 2.89253
v 0.5707512 2.530866 2.757269
v 0.5707512 1.690178 3.161697
v 0.5707512 0.8143678 3.359751
v 0.5707512 0.8522949 3.496947
v 0.5707512 -4.053116E-06 3.490368
v 0.5707512 -4.053116E-06 3.633562
v 0.5707512 -0.8143756 3.359751
v 0.5707512 -0.8523029 3.496947
v 0.5707512 -1.643164 3.028178
v 0.5707512 -1.690186 3.161697
v 0.5707512 -2.528165 2.757269
v 0.5707512 -2.569576 2.892433
v 0.4292979 1.643156 3.028178
v 0.5707512 2.530866 2.757269
v 0.4292979 2.530866 2.757269
v 0.5707512 1.643156 3.028178
v 0.4292979 0.8143678 3.359751
v 0.5707512 0.8143678 3.359751
v 0.4292979 -4.053116E-06 3.490368
v 0.5707512 -4.053116E-06 3.490368
v 0.4292979 -0.8143756 3.359751
v 0.5707512 -0.8143756 3.359751
v 0.4292979 -1.643164 3.028178
v 0.5707512 -1.643164 3.028178
v 0.4292979 -2.528165 2.757269
v 0.5707512 -2.528165 2.757269
v 0.4292979 1.690178 3.161697
v 0.4292979 2.530866 2.757269
v 0.4292979 2.572083 2.89253
v 0.4292979 1.643156 3.028178
v 0.4292979 0.8522949 3.496947
v 0.4292979 0.8143678 3.359751
v 0.4292979 -4.053116E-06 3.633562
v 0.4292979 -4.053116E-06 3.490368
v 0.4292979 -0.8523029 3.496947
v 0.4292979 -0.8143756 3.359751
v 0.4292979 -1.690186 3.161697
v 0.4292979 -1.643164 3.028178
v 0.4292979 -2.569576 2.892433
v 0.4292979 -2.528165 2.757269
v 0.5707512 2.530866 2.757269
v 0.4292979 2.572083 2.89253
v 0.4292979 2.530866 2.757269
v 0.5707512 2.572083 2.89253
v 0.5707512 -2.528165 2.757269
v 0.4292979 -2.569576 2.892433
v 0.5707512 -2.569576 2.892433
v 0.4292979 -2.528165 2.757269
v -0.4427385 0.8608091 0.3037043
v -0.5841918 0.8616803 0.1694109
v -0.4427385 0.8616803 0.1694109
v -0.5841918 0.8608091 0.3037043
v -0.4427385 0.7185822 0.4451575
v -0.4427385 0.8616803 0.1694109
v -0.4427385 0.720227 0.16854
v -0.4427385 0.8608091 0.3037043
v -0.5841918 0.7185822 0.4451575
v -0.4427385 0.720227 0.16854
v -0.5841918 0.720227 0.16854
v -0.4427385 0.7185822 0.4451575
v -0.5841918 0.8608091 0.3037043
v -0.5841918 0.720227 0.16854
v -0.5841918 0.8616803 0.1694109
v -0.5841918 0.7185822 0.4451575
v -0.5841918 0.9920068 0.3037043
v -0.5841918 1.133266 0.4451575
v -0.5841918 0.9922969 0.07072258
v -0.5841918 1.133847 -0.07073045
v -0.5841918 0.6495969 0.07072258
v -0.5841918 0.5081439 -0.07073045
v -0.5841918 0.6495969 0.4684749
v -0.5841918 0.5081439 0.5344608
v -0.5841918 0.9703338 0.7376425
v -0.5841918 0.8603253 0.8299448
v -0.5841918 1.202348 1.139459
v -0.5841918 1.067377 1.188609
v -0.5841918 1.282944 1.596521
v -0.5841918 1.139265 1.596521
v -0.5841918 1.202348 2.053486
v -0.5841918 1.067377 2.004432
v -0.5841918 0.9703338 2.455399
v -0.5841918 0.8603253 2.363096
v -0.5841918 0.6147661 2.753689
v -0.5841918 0.5429749 2.629361
v -0.5841918 0.1786993 2.912461
v -0.5841918 0.1537368 2.771008
v -0.5841918 -0.1787071 2.912461
v -0.5841918 -0.1537449 2.771008
v -0.5841918 -0.6147739 2.753689
v -0.5841918 -0.5429828 2.629361
v -0.5841918 -0.9702451 2.455399
v -0.5841918 -0.8602368 2.363096
v -0.5841918 -1.202356 2.053486
v -0.5841918 -1.067385 2.004432
v -0.5841918 -1.282951 1.596521
v -0.5841918 -1.139273 1.596521
v -0.5841918 -1.202356 1.139459
v -0.5841918 -1.067385 1.188609
v -0.5841918 -0.9702451 0.7376425
v -0.5841918 -0.8602368 0.8299448
v -0.5841918 -0.649605 0.4684749
v -0.5841918 -0.508152 0.5344608
v -0.5841918 -0.649605 0.07072258
v -0.5841918 -0.508152 -0.07073045
v -0.5841918 -0.9923048 0.07072258
v -0.5841918 -1.133855 -0.07073045
v -0.5841918 -0.9920145 0.3037043
v -0.5841918 -1.133274 0.4451575
v -0.5841918 -0.8608172 0.3037043
v -0.5841918 -0.7185901 0.4451575
v -0.5841918 -0.861688 0.1694109
v -0.5841918 -0.7202349 0.16854
v -0.4427385 0.9920068 0.3037043
v -0.5841918 0.8608091 0.3037043
v -0.4427385 0.8608091 0.3037043
v -0.5841918 0.9920068 0.3037043
v -0.4427385 1.133266 0.4451575
v -0.4427385 0.8608091 0.3037043
v -0.4427385 0.7185822 0.4451575
v -0.4427385 0.9920068 0.3037043
v -0.4427385 1.133847 -0.07073045
v -0.4427385 0.9922969 0.07072258
v -0.5841918 1.133266 0.4451575
v -0.4427385 0.7185822 0.4451575
v -0.5841918 0.7185822 0.4451575
v -0.4427385 1.133266 0.4451575
v -0.4427385 0.9922969 0.07072258
v -0.5841918 0.9920068 0.3037043
v -0.4427385 0.9920068 0.3037043
v -0.5841918 0.9922969 0.07072258
v -0.5841918 1.133847 -0.07073045
v -0.4427385 1.133266 0.4451575
v -0.5841918 1.133266 0.4451575
v -0.4427385 1.133847 -0.07073045
v -0.4427385 0.6495969 0.07072258
v -0.5841918 0.9922969 0.07072258
v -0.4427385 0.9922969 0.07072258
v -0.5841918 0.6495969 0.07072258
v -0.4427385 0.5081439 -0.07073045
v -0.4427385 0.9922969 0.07072258
v -0.4427385 1.133847 -0.07073045
v -0.4427385 0.6495969 0.07072258
v -0.4427385 0.5081439 0.5344608
v -0.5841918 0.5081439 -0.07073045
v -0.4427385 1.133847 -0.07073045
v -0.5841918 1.133847 -0.07073045
v -0.4427385 0.5081439 -0.07073045
v -0.4427385 0.6495969 0.4684749
v -0.5841918 0.6495969 0.07072258
v -0.4427385 0.6495969 0.07072258
v -0.5841918 0.6495969 0.4684749
v -0.4427385 0.6495969 0.07072258
v -0.4427385 0.5081439 0.5344608
v -0.4427385 0.6495969 0.4684749
v -0.4427385 0.8603253 0.8299448
v -0.4427385 0.9703338 0.7376425
v -0.4427385 1.067377 1.188609
v -0.4427385 1.202348 1.139459
v -0.4427385 1.139265 1.596521
v -0.4427385 1.282944 1.596521
v -0.4427385 1.067377 2.004432
v -0.4427385 1.202348 2.053486
v -0.4427385 0.8603253 2.363096
v -0.4427385 0.9703338 2.455399
v -0.4427385 0.5429749 2.629361
v -0.4427385 0.6147661 2.753689
v -0.4427385 0.1537368 2.771008
v -0.4427385 0.1786993 2.912461
v -0.4427385 -0.1537449 2.771008
v -0.4427385 -0.1787071 2.912461
v -0.4427385 -0.5429828 2.629361
v -0.4427385 -0.6147739 2.753689
v -0.4427385 -0.8602368 2.363096
v -0.4427385 -0.9702451 2.455399
v -0.4427385 -1.067385 2.004432
v -0.4427385 -1.202356 2.053486
v -0.4427385 -1.139273 1.596521
v -0.4427385 -1.282951 1.596521
v -0.4427385 -1.067385 1.188609
v -0.4427385 -1.202356 1.139459
v -0.4427385 -0.8602368 0.8299448
v -0.4427385 -0.9702451 0.7376425
v -0.4427385 -0.508152 0.5344608
v -0.4427385 -0.649605 0.4684749
v -0.4427385 -0.508152 -0.07073045
v -0.4427385 -0.649605 0.07072258
v -0.5841918 0.5081439 0.5344608
v -0.4427385 0.5081439 -0.07073045
v -0.5841918 0.5081439 -0.07073045
v -0.4427385 0.5081439 0.5344608
v -0.4427385 0.9703338 0.7376425
v -0.5841918 0.6495969 0.4684749
v -0.4427385 0.6495969 0.4684749
v -0.5841918 0.9703338 0.7376425
v -0.4427385 1.202348 1.139459
v -0.5841918 1.202348 1.139459
v -0.4427385 1.282944 1.596521
v -0.5841918 1.282944 1.596521
v -0.5841918 0.8603253 0.8299448
v -0.4427385 0.5081439 0.5344608
v -0.5841918 0.5081439 0.5344608
v -0.4427385 0.8603253 0.8299448
v -0.5841918 1.067377 1.188609
v -0.4427385 1.067377 1.188609
v -0.5841918 1.139265 1.596521
v -0.4427385 1.139265 1.596521
v -0.4427385 1.202348 2.053486
v -0.5841918 1.282944 1.596521
v -0.4427385 1.282944 1.596521
v -0.5841918 1.202348 2.053486
v -0.4427385 0.9703338 2.455399
v -0.5841918 0.9703338 2.455399
v -0.4427385 0.6147661 2.753689
v -0.5841918 0.6147661 2.753689
v -0.4427385 0.1786993 2.912461
v -0.5841918 0.1786993 2.912461
v -0.4427385 -0.1787071 2.912461
v -0.5841918 -0.1787071 2.912461
v -0.4427385 -0.6147739 2.753689
v -0.5841918 -0.6147739 2.753689
v -0.4427385 -0.9702451 2.455399
v -0.5841918 -0.9702451 2.455399
v -0.4427385 -1.202356 2.053486
v -0.5841918 -1.202356 2.053486
v -0.4427385 -1.282951 1.596521
v -0.5841918 -1.282951 1.596521
v -0.5841918 1.067377 2.004432
v -0.4427385 1.139265 1.596521
v -0.5841918 1.139265 1.596521
v -0.4427385 1.067377 2.004432
v -0.5841918 0.8603253 2.363096
v -0.4427385 0.8603253 2.363096
v -0.5841918 0.5429749 2.629361
v -0.4427385 0.5429749 2.629361
v -0.5841918 0.1537368 2.771008
v -0.4427385 0.1537368 2.771008
v -0.5841918 -0.1537449 2.771008
v -0.4427385 -0.1537449 2.771008
v -0.5841918 -0.5429828 2.629361
v -0.4427385 -0.5429828 2.629361
v -0.5841918 -0.8602368 2.363096
v -0.4427385 -0.8602368 2.363096
v -0.5841918 -1.067385 2.004432
v -0.4427385 -1.067385 2.004432
v -0.5841918 -1.139273 1.596521
v -0.4427385 -1.139273 1.596521
v -0.4427385 -1.202356 1.139459
v -0.5841918 -1.282951 1.596521
v -0.4427385 -1.282951 1.596521
v -0.5841918 -1.202356 1.139459
v -0.4427385 -0.9702451 0.7376425
v -0.5841918 -0.9702451 0.7376425
v -0.4427385 -0.649605 0.4684749
v -0.5841918 -0.649605 0.4684749
v -0.5841918 -1.067385 1.188609
v -0.4427385 -1.139273 1.596521
v -0.5841918 -1.139273 1.596521
v -0.4427385 -1.067385 1.188609
v -0.5841918 -0.8602368 0.8299448
v -0.4427385 -0.8602368 0.8299448
v -0.5841918 -0.508152 0.5344608
v -0.4427385 -0.508152 0.5344608
v -0.4427385 -0.649605 0.07072258
v -0.5841918 -0.649605 0.4684749
v -0.4427385 -0.649605 0.4684749
v -0.5841918 -0.649605 0.07072258
v -0.5841918 -0.508152 -0.07073045
v -0.4427385 -0.508152 0.5344608
v -0.5841918 -0.508152 0.5344608
v -0.4427385 -0.508152 -0.07073045
v -0.4427385 -0.9923048 0.07072258
v -0.5841918 -0.649605 0.07072258
v -0.4427385 -0.649605 0.07072258
v -0.5841918 -0.9923048 0.07072258
v -0.4427385 -1.133855 -0.07073045
v -0.4427385 -0.649605 0.07072258
v -0.4427385 -0.508152 -0.07073045
v -0.4427385 -0.9923048 0.07072258
v -0.5841918 -1.133855 -0.07073045
v -0.4427385 -0.508152 -0.07073045
v -0.5841918 -0.508152 -0.07073045
v -0.4427385 -1.133855 -0.07073045
v -0.4427385 -0.9920145 0.3037043
v -0.5841918 -0.9923048 0.07072258
v -0.4427385 -0.9923048 0.07072258
v -0.5841918 -0.9920145 0.3037043
v -0.4427385 -1.133274 0.4451575
v -0.4427385 -0.9923048 0.07072258
v -0.4427385 -1.133855 -0.07073045
v -0.4427385 -0.9920145 0.3037043
v -0.4427385 -0.7185901 0.4451575
v -0.4427385 -0.8608172 0.3037043
v -0.5841918 -1.133274 0.4451575
v -0.4427385 -1.133855 -0.07073045
v -0.5841918 -1.133855 -0.07073045
v -0.4427385 -1.133274 0.4451575
v -0.4427385 -0.8608172 0.3037043
v -0.5841918 -0.9920145 0.3037043
v -0.4427385 -0.9920145 0.3037043
v -0.5841918 -0.8608172 0.3037043
v -0.5841918 -0.7185901 0.4451575
v -0.4427385 -1.133274 0.4451575
v -0.5841918 -1.133274 0.4451575
v -0.4427385 -0.7185901 0.4451575
v -0.4427385 -0.861688 0.1694109
v -0.5841918 -0.8608172 0.3037043
v -0.4427385 -0.8608172 0.3037043
v -0.5841918 -0.861688 0.1694109
v -0.4427385 -0.7202349 0.16854
v -0.4427385 -0.8608172 0.3037043
v -0.4427385 -0.7185901 0.4451575
v -0.4427385 -0.861688 0.1694109
v -0.5841918 -0.7202349 0.16854
v -0.4427385 -0.7185901 0.4451575
v -0.5841918 -0.7185901 0.4451575
v -0.4427385 -0.7202349 0.16854
v -0.4427385 0.720227 0.16854
v -0.5841918 0.8616803 0.1694109
v -0.5841918 0.720227 0.16854
v -0.4427385 0.8616803 0.1694109
v -0.4427385 -0.7202349 0.16854
v -0.5841918 -0.861688 0.1694109
v -0.4427385 -0.861688 0.1694109
v -0.5841918 -0.7202349 0.16854
v 0.5707512 0.8608091 0.3037043
v 0.4292979 0.8616803 0.1694109
v 0.5707512 0.8616803 0.1694109
v 0.4292979 0.8608091 0.3037043
v 0.5707512 0.7185822 0.4451575
v 0.5707512 0.8616803 0.1694109
v 0.5707512 0.720227 0.16854
v 0.5707512 0.8608091 0.3037043
v 0.4292979 0.7185822 0.4451575
v 0.5707512 0.720227 0.16854
v 0.4292979 0.720227 0.16854
v 0.5707512 0.7185822 0.4451575
v 0.4292979 0.8608091 0.3037043
v 0.4292979 0.720227 0.16854
v 0.4292979 0.8616803 0.1694109
v 0.4292979 0.7185822 0.4451575
v 0.4292979 0.9920068 0.3037043
v 0.4292979 1.133266 0.4451575
v 0.4292979 0.9922969 0.07072258
v 0.4292979 1.133847 -0.07073045
v 0.4292979 0.6495969 0.07072258
v 0.4292979 0.5081439 -0.07073045
v 0.4292979 0.6495969 0.4684749
v 0.4292979 0.5081439 0.5344608
v 0.4292979 0.9703338 0.7376425
v 0.4292979 0.8603253 0.8299448
v 0.4292979 1.202348 1.139459
v 0.4292979 1.067377 1.188609
v 0.4292979 1.282944 1.596521
v 0.4292979 1.139265 1.596521
v 0.4292979 1.202348 2.053486
v 0.4292979 1.067377 2.004432
v 0.4292979 0.9703338 2.455399
v 0.4292979 0.8603253 2.363096
v 0.4292979 0.6147661 2.753689
v 0.4292979 0.5429749 2.629361
v 0.4292979 0.1786993 2.912461
v 0.4292979 0.1537368 2.771008
v 0.4292979 -0.1787071 2.912461
v 0.4292979 -0.1537449 2.771008
v 0.4292979 -0.6147739 2.753689
v 0.4292979 -0.5429828 2.629361
v 0.4292979 -0.9702451 2.455399
v 0.4292979 -0.8602368 2.363096
v 0.4292979 -1.202356 2.053486
v 0.4292979 -1.067385 2.004432
v 0.4292979 -1.282951 1.596521
v 0.4292979 -1.139273 1.596521
v 0.4292979 -1.202356 1.139459
v 0.4292979 -1.067385 1.188609
v 0.4292979 -0.9702451 0.7376425
v 0.4292979 -0.8602368 0.8299448
v 0.4292979 -0.649605 0.4684749
v 0.4292979 -0.508152 0.5344608
v 0.4292979 -0.649605 0.07072258
v 0.4292979 -0.508152 -0.07073045
v 0.4292979 -0.9923048 0.07072258
v 0.4292979 -1.133855 -0.07073045
v 0.4292979 -0.9920145 0.3037043
v 0.4292979 -1.133274 0.4451575
v 0.4292979 -0.8608172 0.3037043
v 0.4292979 -0.7185901 0.4451575
v 0.4292979 -0.861688 0.1694109
v 0.4292979 -0.7202349 0.16854
v 0.5707512 0.9920068 0.3037043
v 0.4292979 0.8608091 0.3037043
v 0.5707512 0.8608091 0.3037043
v 0.4292979 0.9920068 0.3037043
v 0.5707512 1.133266 0.4451575
v 0.5707512 0.8608091 0.3037043
v 0.5707512 0.7185822 0.4451575
v 0.5707512 0.9920068 0.3037043
v 0.5707512 1.133847 -0.07073045
v 0.5707512 0.9922969 0.07072258
v 0.4292979 1.133266 0.4451575
v 0.5707512 0.7185822 0.4451575
v 0.4292979 0.7185822 0.4451575
v 0.5707512 1.133266 0.4451575
v 0.5707512 0.9922969 0.07072258
v 0.4292979 0.9920068 0.3037043
v 0.5707512 0.9920068 0.3037043
v 0.4292979 0.9922969 0.07072258
v 0.4292979 1.133847 -0.07073045
v 0.5707512 1.133266 0.4451575
v 0.4292979 1.133266 0.4451575
v 0.5707512 1.133847 -0.07073045
v 0.5707512 0.6495969 0.07072258
v 0.4292979 0.9922969 0.07072258
v 0.5707512 0.9922969 0.07072258
v 0.4292979 0.6495969 0.07072258
v 0.5707512 0.5081439 -0.07073045
v 0.5707512 0.9922969 0.07072258
v 0.5707512 1.133847 -0.07073045
v 0.5707512 0.6495969 0.07072258
v 0.5707512 0.5081439 0.5344608
v 0.4292979 0.5081439 -0.07073045
v 0.5707512 1.133847 -0.07073045
v 0.4292979 1.133847 -0.07073045
v 0.5707512 0.5081439 -0.07073045
v 0.5707512 0.6495969 0.4684749
v 0.4292979 0.6495969 0.07072258
v 0.5707512 0.6495969 0.07072258
v 0.4292979 0.6495969 0.4684749
v 0.5707512 0.6495969 0.07072258
v 0.5707512 0.5081439 0.5344608
v 0.5707512 0.6495969 0.4684749
v 0.5707512 0.8603253 0.8299448
v 0.5707512 0.9703338 0.7376425
v 0.5707512 1.067377 1.188609
v 0.5707512 1.202348 1.139459
v 0.5707512 1.139265 1.596521
v 0.5707512 1.282944 1.596521
v 0.5707512 1.067377 2.004432
v 0.5707512 1.202348 2.053486
v 0.5707512 0.8603253 2.363096
v 0.5707512 0.9703338 2.455399
v 0.5707512 0.5429749 2.629361
v 0.5707512 0.6147661 2.753689
v 0.5707512 0.1537368 2.771008
v 0.5707512 0.1786993 2.912461
v 0.5707512 -0.1537449 2.771008
v 0.5707512 -0.1787071 2.912461
v 0.5707512 -0.5429828 2.629361
v 0.5707512 -0.6147739 2.753689
v 0.5707512 -0.8602368 2.363096
v 0.5707512 -0.9702451 2.455399
v 0.5707512 -1.067385 2.004432
v 0.5707512 -1.202356 2.053486
v 0.5707512 -1.139273 1.596521
v 0.5707512 -1.282951 1.596521
v 0.5707512 -1.067385 1.188609
v 0.5707512 -1.202356 1.139459
v 0.5707512 -0.8602368 0.8299448
v 0.5707512 -0.9702451 0.7376425
v 0.5707512 -0.508152 0.5344608
v 0.5707512 -0.649605 0.4684749
v 0.5707512 -0.508152 -0.07073045
v 0.5707512 -0.649605 0.07072258
v 0.4292979 0.5081439 0.5344608
v 0.5707512 0.5081439 -0.07073045
v 0.4292979 0.5081439 -0.07073045
v 0.5707512 0.5081439 0.5344608
v 0.5707512 0.9703338 0.7376425
v 0.4292979 0.6495969 0.4684749
v 0.5707512 0.6495969 0.4684749
v 0.4292979 0.9703338 0.7376425
v 0.5707512 1.202348 1.139459
v 0.4292979 1.202348 1.139459
v 0.5707512 1.282944 1.596521
v 0.4292979 1.282944 1.596521
v 0.4292979 0.8603253 0.8299448
v 0.5707512 0.5081439 0.5344608
v 0.4292979 0.5081439 0.5344608
v 0.5707512 0.8603253 0.8299448
v 0.4292979 1.067377 1.188609
v 0.5707512 1.067377 1.188609
v 0.4292979 1.139265 1.596521
v 0.5707512 1.139265 1.596521
v 0.5707512 1.202348 2.053486
v 0.4292979 1.282944 1.596521
v 0.5707512 1.282944 1.596521
v 0.4292979 1.202348 2.053486
v 0.5707512 0.9703338 2.455399
v 0.4292979 0.9703338 2.455399
v 0.5707512 0.6147661 2.753689
v 0.4292979 0.6147661 2.753689
v 0.5707512 0.1786993 2.912461
v 0.4292979 0.1786993 2.912461
v 0.5707512 -0.1787071 2.912461
v 0.4292979 -0.1787071 2.912461
v 0.5707512 -0.6147739 2.753689
v 0.4292979 -0.6147739 2.753689
v 0.5707512 -0.9702451 2.455399
v 0.4292979 -0.9702451 2.455399
v 0.5707512 -1.202356 2.053486
v 0.4292979 -1.202356 2.053486
v 0.5707512 -1.282951 1.596521
v 0.4292979 -1.282951 1.596521
v 0.4292979 1.067377 2.004432
v 0.5707512 1.139265 1.596521
v 0.4292979 1.139265 1.596521
v 0.5707512 1.067377 2.004432
v 0.4292979 0.8603253 2.363096
v 0.5707512 0.8603253 2.363096
v 0.4292979 0.5429749 2.629361
v 0.5707512 0.5429749 2.629361
v 0.4292979 0.1537368 2.771008
v 0.5707512 0.1537368 2.771008
v 0.4292979 -0.1537449 2.771008
v 0.5707512 -0.1537449 2.771008
v 0.4292979 -0.5429828 2.629361
v 0.5707512 -0.5429828 2.629361
v 0.4292979 -0.8602368 2.363096
v 0.5707512 -0.8602368 2.363096
v 0.4292979 -1.067385 2.004432
v 0.5707512 -1.067385 2.004432
v 0.4292979 -1.139273 1.596521
v 0.5707512 -1.139273 1.596521
v 0.5707512 -1.202356 1.139459
v 0.4292979 -1.282951 1.596521
v 0.5707512 -1.282951 1.596521
v 0.4292979 -1.202356 1.139459
v 0.5707512 -0.9702451 0.7376425
v 0.4292979 -0.9702451 0.7376425
v 0.5707512 -0.649605 0.4684749
v 0.4292979 -0.649605 0.4684749
v 0.4292979 -1.067385 1.188609
v 0.5707512 -1.139273 1.596521
v 0.4292979 -1.139273 1.596521
v 0.5707512 -1.067385 1.188609
v 0.4292979 -0.8602368 0.8299448
v 0.5707512 -0.8602368 0.8299448
v 0.4292979 -0.508152 0.5344608
v 0.5707512 -0.508152 0.5344608
v 0.5707512 -0.649605 0.07072258
v 0.4292979 -0.649605 0.4684749
v 0.5707512 -0.649605 0.4684749
v 0.4292979 -0.649605 0.07072258
v 0.4292979 -0.508152 -0.07073045
v 0.5707512 -0.508152 0.5344608
v 0.4292979 -0.508152 0.5344608
v 0.5707512 -0.508152 -0.07073045
v 0.5707512 -0.9923048 0.07072258
v 0.4292979 -0.649605 0.07072258
v 0.5707512 -0.649605 0.07072258
v 0.4292979 -0.9923048 0.07072258
v 0.5707512 -1.133855 -0.07073045
v 0.5707512 -0.649605 0.07072258
v 0.5707512 -0.508152 -0.07073045
v 0.5707512 -0.9923048 0.07072258
v 0.4292979 -1.133855 -0.07073045
v 0.5707512 -0.508152 -0.07073045
v 0.4292979 -0.508152 -0.07073045
v 0.5707512 -1.133855 -0.07073045
v 0.5707512 -0.9920145 0.3037043
v 0.4292979 -0.9923048 0.07072258
v 0.5707512 -0.9923048 0.07072258
v 0.4292979 -0.9920145 0.3037043
v 0.5707512 -1.133274 0.4451575
v 0.5707512 -0.9923048 0.07072258
v 0.5707512 -1.133855 -0.07073045
v 0.5707512 -0.9920145 0.3037043
v 0.5707512 -0.7185901 0.4451575
v 0.5707512 -0.8608172 0.3037043
v 0.4292979 -1.133274 0.4451575
v 0.5707512 -1.133855 -0.07073045
v 0.4292979 -1.133855 -0.07073045
v 0.5707512 -1.133274 0.4451575
v 0.5707512 -0.8608172 0.3037043
v 0.4292979 -0.9920145 0.3037043
v 0.5707512 -0.9920145 0.3037043
v 0.4292979 -0.8608172 0.3037043
v 0.4292979 -0.7185901 0.4451575
v 0.5707512 -1.133274 0.4451575
v 0.4292979 -1.133274 0.4451575
v 0.5707512 -0.7185901 0.4451575
v 0.5707512 -0.861688 0.1694109
v 0.4292979 -0.8608172 0.3037043
v 0.5707512 -0.8608172 0.3037043
v 0.4292979 -0.861688 0.1694109
v 0.5707512 -0.7202349 0.16854
v 0.5707512 -0.8608172 0.3037043
v 0.5707512 -0.7185901 0.4451575
v 0.5707512 -0.861688 0.1694109
v 0.4292979 -0.7202349 0.16854
v 0.5707512 -0.7185901 0.4451575
v 0.4292979 -0.7185901 0.4451575
v 0.5707512 -0.7202349 0.16854
v 0.5707512 0.720227 0.16854
v 0.4292979 0.8616803 0.1694109
v 0.4292979 0.720227 0.16854
v 0.5707512 0.8616803 0.1694109
v 0.5707512 -0.7202349 0.16854
v 0.4292979 -0.861688 0.1694109
v 0.5707512 -0.861688 0.1694109
v 0.4292979 -0.7202349 0.16854
vn -0.003921628 0.003921628 0.9999846
vn -0.003921628 -0.2627431 0.9648579
vn -0.003921628 -0.2627431 0.9648579
vn -0.003921628 0.003921628 0.9999846
vn -0.003921628 0.2627431 0.9648579
vn -0.003921628 0.2627431 0.9648579
vn -0.003921628 0.3411739 0.939992
vn -0.003921628 0.3411739 0.939992
vn -0.003921628 0.3098016 0.9507931
vn -0.003921628 0.3098016 0.9507931
vn -0.003921628 -0.3411738 0.939992
vn -0.003921628 -0.3411738 0.939992
vn -0.003921628 -0.3098015 0.9507932
vn -0.003921628 -0.3098015 0.9507932
vn -0.003921628 0.003921628 -0.9999846
vn -0.003921628 0.003921628 -0.9999846
vn -0.003921628 0.003921628 -0.9999846
vn -0.003921628 0.003921628 -0.9999846
vn -0.003921628 0.003921628 -0.9999846
vn -0.003921628 0.003921628 -0.9999846
vn -0.003921628 0.003921628 -0.9999846
vn -0.003921628 0.003921628 -0.9999846
vn -0.003921628 0.003921628 -0.9999846
vn 0.6862693 -0.2235277 0.6921487
vn 0.6862693 -0.2470569 0.6841033
vn 0.6862693 -0.2235277 0.6921487
vn 0.6862693 -0.2549 0.6812199
vn -0.6862693 0.2235278 0.6921487
vn -0.6862693 0.247057 0.6841033
vn -0.6862693 0.2235278 0.6921487
vn -0.6862693 0.2549001 0.6812198
vn 0.6862693 -0.2549 0.6812199
vn 0.6941123 -0.1999984 0.6915264
vn 0.6862693 -0.2470569 0.6841033
vn 0.6941123 -0.1843123 0.6958715
vn 0.6941123 -0.1843123 0.6958715
vn 0.7097985 0.003921628 0.7043939
vn 0.6941123 -0.1999984 0.6915264
vn 0.7097985 0.003921628 0.7043939
vn 0.7097985 0.003921628 0.7043939
vn 0.6941123 0.1843123 0.6958715
vn 0.6941123 0.1999985 0.6915264
vn 0.7097985 0.003921628 0.7043939
vn 0.6941123 0.1999985 0.6915264
vn 0.6862693 0.2549001 0.6812198
vn 0.6862693 0.247057 0.6841033
vn 0.6941123 0.1843123 0.6958715
vn 0.6862693 0.247057 0.6841033
vn 0.6862693 0.2235278 0.6921487
vn 0.6862693 0.2235278 0.6921487
vn 0.6862693 0.2549001 0.6812198
vn -0.6862693 0.2549001 0.6812198
vn -0.6941124 0.1999985 0.6915262
vn -0.6862693 0.247057 0.6841033
vn -0.6941124 0.1843123 0.6958713
vn -0.6941124 0.1843123 0.6958713
vn -0.7097986 0.003921628 0.7043937
vn -0.6941124 0.1999985 0.6915262
vn -0.7097986 0.003921628 0.7043937
vn -0.7097986 0.003921628 0.7043937
vn -0.6941124 -0.1843123 0.6958713
vn -0.6941124 -0.1999984 0.6915262
vn -0.7097986 0.003921628 0.7043937
vn -0.6941124 -0.1999984 0.6915262
vn -0.6862693 -0.2549 0.6812199
vn -0.6862693 -0.2470569 0.6841033
vn -0.6941124 -0.1843123 0.6958713
vn -0.6862693 -0.2470569 0.6841033
vn -0.6862693 -0.2235277 0.6921487
vn -0.6862693 -0.2235277 0.6921487
vn -0.6862693 -0.2549 0.6812199
vn -0.003921628 0.9999924 0
vn -0.003921628 0.9999924 0
vn -0.003921628 0.9999924 0
vn -0.003921628 0.9999924 0
vn -0.003921628 0.9999924 0
vn -0.003921628 0.9999924 0
vn -0.003921628 0.7647001 0.6443745
vn -0.003921628 0.6392108 0.7690216
vn -0.003921628 0.7647001 0.6443745
vn -0.003921628 0.6392108 0.7690216
vn -0.003921628 0.9450909 0.3267841
vn -0.003921628 0.9450909 0.3267841
vn -0.003921628 0.9999924 0
vn -0.003921628 0.9999924 0
vn -0.003921628 0.9450909 -0.3267841
vn -0.003921628 0.9450909 -0.3267841
vn -0.003921628 0.7647001 -0.6443745
vn -0.003921628 0.7647001 -0.6443745
vn -0.003921628 0.4980354 -0.8671478
vn -0.003921628 0.4980354 -0.8671478
vn -0.003921628 0.1764693 -0.9842983
vn -0.003921628 0.1764693 -0.9842983
vn -0.003921628 -0.1764692 -0.9842983
vn -0.003921628 -0.1764692 -0.9842983
vn -0.003921628 -0.4980354 -0.8671479
vn -0.003921628 -0.1764692 -0.9842983
vn -0.003921628 -0.1764692 -0.9842983
vn -0.003921628 -0.4980354 -0.8671479
vn -0.003921628 -0.7647001 -0.6443745
vn -0.003921628 -0.7647001 -0.6443745
vn -0.003921628 -0.9372478 -0.3486421
vn -0.003921628 -0.9372478 -0.3486421
vn -0.003921628 -0.9999924 0
vn -0.003921628 -0.9999924 0
vn -0.003921628 -0.9372478 0.3486421
vn -0.003921628 -0.9372478 0.3486421
vn -0.003921628 -0.7647001 0.6443745
vn -0.003921628 -0.7647001 0.6443745
vn -0.003921628 -0.6392108 0.7690216
vn -0.003921628 -0.6392108 0.7690216
vn -0.003921628 -0.9999924 0
vn -0.003921628 -0.9999924 0
vn -0.003921628 -0.9999924 0
vn -0.003921628 -0.9999924 0
vn -0.003921628 -0.9999924 0
vn -0.003921628 -0.9999924 0
vn -0.003921628 -0.9999924 0
vn -0.003921628 -0.9999924 0
vn -0.003921628 -0.9999924 0
vn -0.003921628 -0.9999924 0
vn -0.003921628 -0.9999924 0
vn -0.003921628 -0.9999924 0
vn -0.003921628 0.9999924 0
vn -0.003921628 0.9999924 0
vn -0.003921628 0.9999924 0
vn -0.003921628 0.9999924 0
vn -0.003921628 0.9999924 0
vn -0.003921628 0.9999924 0
vn 0.9999924 0.003921628 0
vn 0.9999924 0.003921628 0
vn 0.9999924 0.003921628 0
vn 0.9999924 0.003921628 0
vn 0.9999924 0.003921628 0
vn 0.9999924 0.003921628 0
vn 0.9999924 0.003921628 0
vn 0.9999924 0.003921628 0
vn 0.9999924 0.003921628 0
vn 0.9999924 0.003921628 0
vn 0.9999924 0.003921628 0
vn 0.9999924 0.003921628 0
vn 0.9999924 0.003921628 0
vn 0.9999924 0.003921628 0
vn 0.9999924 0.003921628 0
vn 0.9999924 0.003921628 0
vn 0.9999924 0.003921628 0
vn 0.9999924 0.003921628 0
vn 0.9999924 0.003921628 0
vn 0.9999924 0.003921628 0
vn 0.9999924 0.003921628 0
vn 0.9999924 0.003921628 0
vn 0.9999924 0.003921628 0
vn 0.9999924 0.003921628 0
vn 0.9999924 0.003921628 0
vn 0.9999924 0.003921628 0
vn 0.9999924 0.003921628 0
vn -0.9999924 0.003921628 0
vn -0.9999924 0.003921628 0
vn -0.9999924 0.003921628 0
vn -0.9999924 0.003921628 0
vn -0.9999924 0.003921628 0
vn -0.9999924 0.003921628 0
vn -0.9999924 0.003921628 0
vn -0.9999924 0.003921628 0
vn -0.9999924 0.003921628 0
vn -0.9999924 0.003921628 0
vn -0.9999924 0.003921628 0
vn -0.9999924 0.003921628 0
vn -0.9999924 0.003921628 0
vn -0.9999924 0.003921628 0
vn -0.9999924 0.003921628 0
vn -0.9999924 0.003921628 0
vn -0.9999924 0.003921628 0
vn -0.9999924 0.003921628 0
vn -0.9999924 0.003921628 0
vn -0.9999924 0.003921628 0
vn -0.9999924 0.003921628 0
vn -0.9999924 0.003921628 0
vn -0.9999924 0.003921628 0
vn -0.9999924 0.003921628 0
vn -0.9999924 0.003921628 0
vn -0.9999924 0.003921628 0
vn -0.9999924 0.003921628 0
vn -0.9999924 0.003921628 0
vn -0.9999924 0.003921628 0
vn -0.9999924 0.003921628 0
vn -0.9999924 0.003921628 0
vn -0.003921628 -0.3333308 0.9428018
vn -0.003921628 -0.2941154 0.9557618
vn -0.003921628 -0.2941154 0.9557618
vn -0.003921628 -0.3333308 0.9428018
vn -0.003921628 -0.2627431 0.9648579
vn -0.003921628 -0.2627431 0.9648579
vn -0.003921628 0.003921628 0.9999846
vn -0.003921628 0.003921628 0.9999846
vn -0.003921628 0.2627431 0.9648579
vn -0.003921628 0.2627431 0.9648579
vn -0.003921628 0.3333309 0.9428017
vn -0.003921628 0.3333309 0.9428017
vn -0.003921628 0.2941154 0.9557618
vn -0.003921628 0.2941154 0.9557618
vn -0.9999924 0.003921628 0
vn -0.9999924 0.003921628 0
vn -0.9999924 0.003921628 0
vn -0.9999924 0.003921628 0
vn -0.9999924 0.003921628 0
vn -0.9999924 0.003921628 0
vn -0.9999924 0.003921628 0
vn -0.9999924 0.003921628 0
vn -0.9999924 0.003921628 0
vn -0.9999924 0.003921628 0
vn -0.9999924 0.003921628 0
vn -0.9999924 0.003921628 0
vn -0.9999924 0.003921628 0
vn -0.9999924 0.003921628 0
vn -0.003921628 0.3333309 -0.9428017
vn -0.003921628 0.2941154 -0.9557618
vn -0.003921628 0.2941154 -0.9557618
vn -0.003921628 0.3333309 -0.9428017
vn -0.003921628 0.2627431 -0.9648579
vn -0.003921628 0.2627431 -0.9648579
vn -0.003921628 0.003921628 -0.9999846
vn -0.003921628 0.003921628 -0.9999846
vn -0.003921628 -0.2627431 -0.9648579
vn -0.003921628 -0.2627431 -0.9648579
vn -0.003921628 -0.3333308 -0.9428018
vn -0.003921628 -0.3333308 -0.9428018
vn -0.003921628 -0.2941154 -0.9557618
vn -0.003921628 -0.2941154 -0.9557618
vn 0.9999924 0.003921628 0
vn 0.9999924 0.003921628 0
vn 0.9999924 0.003921628 0
vn 0.9999924 0.003921628 0
vn 0.9999924 0.003921628 0
vn 0.9999924 0.003921628 0
vn 0.9999924 0.003921628 0
vn 0.9999924 0.003921628 0
vn 0.9999924 0.003921628 0
vn 0.9999924 0.003921628 0
vn 0.9999924 0.003921628 0
vn 0.9999924 0.003921628 0
vn 0.9999924 0.003921628 0
vn 0.9999924 0.003921628 0
vn -0.003921628 -0.9529339 -0.3031528
vn -0.003921628 -0.9529339 -0.3031528
vn -0.003921628 -0.9529339 -0.3031528
vn -0.003921628 -0.9529339 -0.3031528
vn -0.003921628 0.9529339 -0.3031528
vn -0.003921628 0.9529339 -0.3031528
vn -0.003921628 0.9529339 -0.3031528
vn -0.003921628 0.9529339 -0.3031528
vn -0.003921628 0.3333309 0.9428017
vn -0.003921628 0.2941154 0.9557618
vn -0.003921628 0.2941154 0.9557618
vn -0.003921628 0.3333309 0.9428017
vn -0.003921628 0.2627431 0.9648579
vn -0.003921628 0.2627431 0.9648579
vn -0.003921628 0.003921628 0.9999846
vn -0.003921628 0.003921628 0.9999846
vn -0.003921628 -0.2627431 0.9648579
vn -0.003921628 -0.2627431 0.9648579
vn -0.003921628 -0.3333308 0.9428018
vn -0.003921628 -0.3333308 0.9428018
vn -0.003921628 -0.2941154 0.9557618
vn -0.003921628 -0.2941154 0.9557618
vn 0.9999924 0.003921628 0
vn 0.9999924 0.003921628 0
vn 0.9999924 0.003921628 0
vn 0.9999924 0.003921628 0
vn 0.9999924 0.003921628 0
vn 0.9999924 0.003921628 0
vn 0.9999924 0.003921628 0
vn 0.9999924 0.003921628 0
vn 0.9999924 0.003921628 0
vn 0.9999924 0.003921628 0
vn 0.9999924 0.003921628 0
vn 0.9999924 0.003921628 0
vn 0.9999924 0.003921628 0
vn 0.9999924 0.003921628 0
vn -0.003921628 -0.3333308 -0.9428018
vn -0.003921628 -0.2941154 -0.9557618
vn -0.003921628 -0.2941154 -0.9557618
vn -0.003921628 -0.3333308 -0.9428018
vn -0.003921628 -0.2627431 -0.9648579
vn -0.003921628 -0.2627431 -0.9648579
vn -0.003921628 0.003921628 -0.9999846
vn -0.003921628 0.003921628 -0.9999846
vn -0.003921628 0.2627431 -0.9648579
vn -0.003921628 0.2627431 -0.9648579
vn -0.003921628 0.3333309 -0.9428017
vn -0.003921628 0.3333309 -0.9428017
vn -0.003921628 0.2941154 -0.9557618
vn -0.003921628 0.2941154 -0.9557618
vn -0.9999924 0.003921628 0
vn -0.9999924 0.003921628 0
vn -0.9999924 0.003921628 0
vn -0.9999924 0.003921628 0
vn -0.9999924 0.003921628 0
vn -0.9999924 0.003921628 0
vn -0.9999924 0.003921628 0
vn -0.9999924 0.003921628 0
vn -0.9999924 0.003921628 0
vn -0.9999924 0.003921628 0
vn -0.9999924 0.003921628 0
vn -0.9999924 0.003921628 0
vn -0.9999924 0.003921628 0
vn -0.9999924 0.003921628 0
vn -0.003921628 0.9529339 -0.3031528
vn -0.003921628 0.9529339 -0.3031528
vn -0.003921628 0.9529339 -0.3031528
vn -0.003921628 0.9529339 -0.3031528
vn -0.003921628 -0.9529339 -0.3031528
vn -0.003921628 -0.9529339 -0.3031528
vn -0.003921628 -0.9529339 -0.3031528
vn -0.003921628 -0.9529339 -0.3031528
vn -0.003921628 0.9999924 0
vn -0.003921628 0.9999924 0
vn -0.003921628 0.9999924 0
vn -0.003921628 0.9999924 0
vn 0.9999924 0.003921628 0
vn 0.9999924 0.003921628 0
vn 0.9999924 0.003921628 0
vn 0.9999924 0.003921628 0
vn -0.003921628 -0.9999924 0
vn -0.003921628 -0.9999924 0
vn -0.003921628 -0.9999924 0
vn -0.003921628 -0.9999924 0
vn -0.9999924 0.003921628 0
vn -0.9999924 0.003921628 0
vn -0.9999924 0.003921628 0
vn -0.9999924 0.003921628 0
vn -0.9999924 0.003921628 0
vn -0.9999924 0.003921628 0
vn -0.9999924 0.003921628 0
vn -0.9999924 0.003921628 0
vn -0.9999924 0.003921628 0
vn -0.9999924 0.003921628 0
vn -0.9999924 0.003921628 0
vn -0.9999924 0.003921628 0
vn -0.9999924 0.003921628 0
vn -0.9999924 0.003921628 0
vn -0.9999924 0.003921628 0
vn -0.9999924 0.003921628 0
vn -0.9999924 0.003921628 0
vn -0.9999924 0.003921628 0
vn -0.9999924 0.003921628 0
vn -0.9999924 0.003921628 0
vn -0.9999924 0.003921628 0
vn -0.9999924 0.003921628 0
vn -0.9999924 0.003921628 0
vn -0.9999924 0.003921628 0
vn -0.9999924 0.003921628 0
vn -0.9999924 0.003921628 0
vn -0.9999924 0.003921628 0
vn -0.9999924 0.003921628 0
vn -0.9999924 0.003921628 0
vn -0.9999924 0.003921628 0
vn -0.9999924 0.003921628 0
vn -0.9999924 0.003921628 0
vn -0.9999924 0.003921628 0
vn -0.9999924 0.003921628 0
vn -0.9999924 0.003921628 0
vn -0.9999924 0.003921628 0
vn -0.9999924 0.003921628 0
vn -0.9999924 0.003921628 0
vn -0.9999924 0.003921628 0
vn -0.9999924 0.003921628 0
vn -0.9999924 0.003921628 0
vn -0.9999924 0.003921628 0
vn -0.9999924 0.003921628 0
vn -0.9999924 0.003921628 0
vn -0.9999924 0.003921628 0
vn -0.9999924 0.003921628 0
vn -0.9999924 0.003921628 0
vn -0.9999924 0.003921628 0
vn -0.9999924 0.003921628 0
vn -0.9999924 0.003921628 0
vn -0.9999924 0.003921628 0
vn -0.9999924 0.003921628 0
vn -0.003921628 -0.003921509 -0.9999846
vn -0.003921628 -0.003921509 -0.9999846
vn -0.003921628 -0.003921509 -0.9999846
vn -0.003921628 -0.003921509 -0.9999846
vn 0.9999924 0.003921628 0
vn 0.9999924 0.003921628 0
vn 0.9999924 0.003921628 0
vn 0.9999924 0.003921628 0
vn 0.9999924 0.003921628 0
vn 0.9999924 0.003921628 0
vn -0.003921628 -0.003921509 0.9999846
vn -0.003921628 -0.003921509 0.9999846
vn -0.003921628 -0.003921509 0.9999846
vn -0.003921628 -0.003921509 0.9999846
vn -0.003921628 -0.9999924 0
vn -0.003921628 -0.9999924 0
vn -0.003921628 -0.9999924 0
vn -0.003921628 -0.9999924 0
vn -0.003921628 0.9999924 0
vn -0.003921628 0.9999924 0
vn -0.003921628 0.9999924 0
vn -0.003921628 0.9999924 0
vn -0.003921628 0.003921628 0.9999846
vn -0.003921628 0.003921628 0.9999846
vn -0.003921628 0.003921628 0.9999846
vn -0.003921628 0.003921628 0.9999846
vn 0.9999924 0.003921628 0
vn 0.9999924 0.003921628 0
vn 0.9999924 0.003921628 0
vn 0.9999924 0.003921628 0
vn 0.9999924 0.003921628 0
vn -0.003921628 0.003921628 -0.9999846
vn -0.003921628 0.003921628 -0.9999846
vn -0.003921628 0.003921628 -0.9999846
vn -0.003921628 0.003921628 -0.9999846
vn -0.003921628 0.9999924 0
vn -0.003921628 0.9999924 0
vn -0.003921628 0.9999924 0
vn -0.003921628 0.9999924 0
vn 0.9999924 0.003921628 0
vn 0.9999924 0.003921628 0
vn 0.9999924 0.003921628 0
vn 0.9999924 0.003921628 0
vn 0.9999924 0.003921628 0
vn 0.9999924 0.003921628 0
vn 0.9999924 0.003921628 0
vn 0.9999924 0.003921628 0
vn 0.9999924 0.003921628 0
vn 0.9999924 0.003921628 0
vn 0.9999924 0.003921628 0
vn 0.9999924 0.003921628 0
vn 0.9999924 0.003921628 0
vn 0.9999924 0.003921628 0
vn 0.9999924 0.003921628 0
vn 0.9999924 0.003921628 0
vn 0.9999924 0.003921628 0
vn 0.9999924 0.003921628 0
vn 0.9999924 0.003921628 0
vn 0.9999924 0.003921628 0
vn 0.9999924 0.003921628 0
vn 0.9999924 0.003921628 0
vn 0.9999924 0.003921628 0
vn 0.9999924 0.003921628 0
vn 0.9999924 0.003921628 0
vn 0.9999924 0.003921628 0
vn 0.9999924 0.003921628 0
vn 0.9999924 0.003921628 0
vn 0.9999924 0.003921628 0
vn 0.9999924 0.003921628 0
vn 0.9999924 0.003921628 0
vn 0.9999924 0.003921628 0
vn 0.9999924 0.003921628 0
vn 0.9999924 0.003921628 0
vn 0.9999924 0.003921628 0
vn -0.003921628 -0.9999924 0
vn -0.003921628 -0.9999924 0
vn -0.003921628 -0.9999924 0
vn -0.003921628 -0.9999924 0
vn -0.003921628 0.7647001 -0.6443745
vn -0.003921628 0.6392108 -0.7690216
vn -0.003921628 0.6392108 -0.7690216
vn -0.003921628 0.7647001 -0.6443745
vn -0.003921628 0.9372478 -0.3486421
vn -0.003921628 0.9372478 -0.3486421
vn -0.003921628 0.9999924 0
vn -0.003921628 0.9999924 0
vn -0.003921628 -0.7647001 0.6443745
vn -0.003921628 -0.6392108 0.7690216
vn -0.003921628 -0.6392108 0.7690216
vn -0.003921628 -0.7647001 0.6443745
vn -0.003921628 -0.9372478 0.3486421
vn -0.003921628 -0.9372478 0.3486421
vn -0.003921628 -0.9999924 0
vn -0.003921628 -0.9999924 0
vn -0.003921628 0.9372478 0.3486421
vn -0.003921628 0.9999924 0
vn -0.003921628 0.9999924 0
vn -0.003921628 0.9372478 0.3486421
vn -0.003921628 0.7647001 0.6443745
vn -0.003921628 0.7647001 0.6443745
vn -0.003921628 0.4980354 0.8671478
vn -0.003921628 0.4980354 0.8671478
vn -0.003921628 0.1764693 0.9842983
vn -0.003921628 0.1764693 0.9842983
vn -0.003921628 -0.1764692 0.9842983
vn -0.003921628 -0.1764692 0.9842983
vn -0.003921628 -0.4980354 0.8671479
vn -0.003921628 -0.4980354 0.8671479
vn -0.003921628 -0.7647001 0.6443745
vn -0.003921628 -0.7647001 0.6443745
vn -0.003921628 -0.9372478 0.3486421
vn -0.003921628 -0.9372478 0.3486421
vn -0.003921628 -0.9999924 0
vn -0.003921628 -0.9999924 0
vn -0.003921628 -0.9372478 -0.3486421
vn -0.003921628 -0.9999924 0
vn -0.003921628 -0.9999924 0
vn -0.003921628 -0.9372478 -0.3486421
vn -0.003921628 -0.7647001 -0.6443745
vn -0.003921628 -0.7647001 -0.6443745
vn -0.003921628 -0.4980354 -0.8671479
vn -0.003921628 -0.4980354 -0.8671479
vn -0.003921628 -0.1764692 -0.9842983
vn -0.003921628 -0.1764692 -0.9842983
vn -0.003921628 0.1764693 -0.9842983
vn -0.003921628 0.1764693 -0.9842983
vn -0.003921628 0.4980354 -0.8671478
vn -0.003921628 0.4980354 -0.8671478
vn -0.003921628 0.7647001 -0.6443745
vn -0.003921628 0.7647001 -0.6443745
vn -0.003921628 0.9372478 -0.3486421
vn -0.003921628 0.9372478 -0.3486421
vn -0.003921628 0.9999924 0
vn -0.003921628 0.9999924 0
vn -0.003921628 -0.9372478 -0.3486421
vn -0.003921628 -0.9999924 0
vn -0.003921628 -0.9999924 0
vn -0.003921628 -0.9372478 -0.3486421
vn -0.003921628 -0.7647001 -0.6443745
vn -0.003921628 -0.7647001 -0.6443745
vn -0.003921628 -0.6392108 -0.7690216
vn -0.003921628 -0.6392108 -0.7690216
vn -0.003921628 0.9372478 0.3486421
vn -0.003921628 0.9999924 0
vn -0.003921628 0.9999924 0
vn -0.003921628 0.9372478 0.3486421
vn -0.003921628 0.7647001 0.6443745
vn -0.003921628 0.7647001 0.6443745
vn -0.003921628 0.6392108 0.7690216
vn -0.003921628 0.6392108 0.7690216
vn -0.003921628 -0.9999924 0
vn -0.003921628 -0.9999924 0
vn -0.003921628 -0.9999924 0
vn -0.003921628 -0.9999924 0
vn -0.003921628 0.9999924 0
vn -0.003921628 0.9999924 0
vn -0.003921628 0.9999924 0
vn -0.003921628 0.9999924 0
vn -0.003921628 -0.003921509 0.9999846
vn -0.003921628 -0.003921509 0.9999846
vn -0.003921628 -0.003921509 0.9999846
vn -0.003921628 -0.003921509 0.9999846
vn 0.9999924 0.003921628 0
vn 0.9999924 0.003921628 0
vn 0.9999924 0.003921628 0
vn 0.9999924 0.003921628 0
vn -0.003921628 0.003921628 -0.9999846
vn -0.003921628 0.003921628 -0.9999846
vn -0.003921628 0.003921628 -0.9999846
vn -0.003921628 0.003921628 -0.9999846
vn -0.003921628 0.9999924 0
vn -0.003921628 0.9999924 0
vn -0.003921628 0.9999924 0
vn -0.003921628 0.9999924 0
vn 0.9999924 0.003921628 0
vn 0.9999924 0.003921628 0
vn 0.9999924 0.003921628 0
vn 0.9999924 0.003921628 0
vn 0.9999924 0.003921628 0
vn 0.9999924 0.003921628 0
vn -0.003921628 -0.9999924 0
vn -0.003921628 -0.9999924 0
vn -0.003921628 -0.9999924 0
vn -0.003921628 -0.9999924 0
vn -0.003921628 0.003921628 -0.9999846
vn -0.003921628 0.003921628 -0.9999846
vn -0.003921628 0.003921628 -0.9999846
vn -0.003921628 0.003921628 -0.9999846
vn -0.003921628 0.003921628 0.9999846
vn -0.003921628 0.003921628 0.9999846
vn -0.003921628 0.003921628 0.9999846
vn -0.003921628 0.003921628 0.9999846
vn -0.003921628 -0.9999924 0
vn -0.003921628 -0.9999924 0
vn -0.003921628 -0.9999924 0
vn -0.003921628 -0.9999924 0
vn 0.9999924 0.003921628 0
vn 0.9999924 0.003921628 0
vn 0.9999924 0.003921628 0
vn 0.9999924 0.003921628 0
vn -0.003921628 0.9999924 0
vn -0.003921628 0.9999924 0
vn -0.003921628 0.9999924 0
vn -0.003921628 0.9999924 0
vn -0.003921628 0.003921628 -0.9999846
vn -0.003921628 0.003921628 -0.9999846
vn -0.003921628 0.003921628 -0.9999846
vn -0.003921628 0.003921628 -0.9999846
vn -0.003921628 -0.003921509 -0.9999846
vn -0.003921628 -0.003921509 -0.9999846
vn -0.003921628 -0.003921509 -0.9999846
vn -0.003921628 -0.003921509 -0.9999846
vn -0.003921628 0.9999924 0
vn -0.003921628 0.9999924 0
vn -0.003921628 0.9999924 0
vn -0.003921628 0.9999924 0
vn 0.9999924 0.003921628 0
vn 0.9999924 0.003921628 0
vn 0.9999924 0.003921628 0
vn 0.9999924 0.003921628 0
vn -0.003921628 -0.9999924 0
vn -0.003921628 -0.9999924 0
vn -0.003921628 -0.9999924 0
vn -0.003921628 -0.9999924 0
vn -0.9999924 0.003921628 0
vn -0.9999924 0.003921628 0
vn -0.9999924 0.003921628 0
vn -0.9999924 0.003921628 0
vn -0.9999924 0.003921628 0
vn -0.9999924 0.003921628 0
vn -0.9999924 0.003921628 0
vn -0.9999924 0.003921628 0
vn -0.9999924 0.003921628 0
vn -0.9999924 0.003921628 0
vn -0.9999924 0.003921628 0
vn -0.9999924 0.003921628 0
vn -0.9999924 0.003921628 0
vn -0.9999924 0.003921628 0
vn -0.9999924 0.003921628 0
vn -0.9999924 0.003921628 0
vn -0.9999924 0.003921628 0
vn -0.9999924 0.003921628 0
vn -0.9999924 0.003921628 0
vn -0.9999924 0.003921628 0
vn -0.9999924 0.003921628 0
vn -0.9999924 0.003921628 0
vn -0.9999924 0.003921628 0
vn -0.9999924 0.003921628 0
vn -0.9999924 0.003921628 0
vn -0.9999924 0.003921628 0
vn -0.9999924 0.003921628 0
vn -0.9999924 0.003921628 0
vn -0.9999924 0.003921628 0
vn -0.9999924 0.003921628 0
vn -0.9999924 0.003921628 0
vn -0.9999924 0.003921628 0
vn -0.9999924 0.003921628 0
vn -0.9999924 0.003921628 0
vn -0.9999924 0.003921628 0
vn -0.9999924 0.003921628 0
vn -0.9999924 0.003921628 0
vn -0.9999924 0.003921628 0
vn -0.9999924 0.003921628 0
vn -0.9999924 0.003921628 0
vn -0.9999924 0.003921628 0
vn -0.9999924 0.003921628 0
vn -0.9999924 0.003921628 0
vn -0.9999924 0.003921628 0
vn -0.9999924 0.003921628 0
vn -0.9999924 0.003921628 0
vn -0.9999924 0.003921628 0
vn -0.9999924 0.003921628 0
vn -0.9999924 0.003921628 0
vn -0.9999924 0.003921628 0
vn -0.9999924 0.003921628 0
vn -0.9999924 0.003921628 0
vn -0.003921628 -0.003921509 -0.9999846
vn -0.003921628 -0.003921509 -0.9999846
vn -0.003921628 -0.003921509 -0.9999846
vn -0.003921628 -0.003921509 -0.9999846
vn 0.9999924 0.003921628 0
vn 0.9999924 0.003921628 0
vn 0.9999924 0.003921628 0
vn 0.9999924 0.003921628 0
vn 0.9999924 0.003921628 0
vn 0.9999924 0.003921628 0
vn -0.003921628 -0.003921509 0.9999846
vn -0.003921628 -0.003921509 0.9999846
vn -0.003921628 -0.003921509 0.9999846
vn -0.003921628 -0.003921509 0.9999846
vn -0.003921628 -0.9999924 0
vn -0.003921628 -0.9999924 0
vn -0.003921628 -0.9999924 0
vn -0.003921628 -0.9999924 0
vn -0.003921628 0.9999924 0
vn -0.003921628 0.9999924 0
vn -0.003921628 0.9999924 0
vn -0.003921628 0.9999924 0
vn -0.003921628 0.003921628 0.9999846
vn -0.003921628 0.003921628 0.9999846
vn -0.003921628 0.003921628 0.9999846
vn -0.003921628 0.003921628 0.9999846
vn 0.9999924 0.003921628 0
vn 0.9999924 0.003921628 0
vn 0.9999924 0.003921628 0
vn 0.9999924 0.003921628 0
vn 0.9999924 0.003921628 0
vn -0.003921628 0.003921628 -0.9999846
vn -0.003921628 0.003921628 -0.9999846
vn -0.003921628 0.003921628 -0.9999846
vn -0.003921628 0.003921628 -0.9999846
vn -0.003921628 0.9999924 0
vn -0.003921628 0.9999924 0
vn -0.003921628 0.9999924 0
vn -0.003921628 0.9999924 0
vn 0.9999924 0.003921628 0
vn 0.9999924 0.003921628 0
vn 0.9999924 0.003921628 0
vn 0.9999924 0.003921628 0
vn 0.9999924 0.003921628 0
vn 0.9999924 0.003921628 0
vn 0.9999924 0.003921628 0
vn 0.9999924 0.003921628 0
vn 0.9999924 0.003921628 0
vn 0.9999924 0.003921628 0
vn 0.9999924 0.003921628 0
vn 0.9999924 0.003921628 0
vn 0.9999924 0.003921628 0
vn 0.9999924 0.003921628 0
vn 0.9999924 0.003921628 0
vn 0.9999924 0.003921628 0
vn 0.9999924 0.003921628 0
vn 0.9999924 0.003921628 0
vn 0.9999924 0.003921628 0
vn 0.9999924 0.003921628 0
vn 0.9999924 0.003921628 0
vn 0.9999924 0.003921628 0
vn 0.9999924 0.003921628 0
vn 0.9999924 0.003921628 0
vn 0.9999924 0.003921628 0
vn 0.9999924 0.003921628 0
vn 0.9999924 0.003921628 0
vn 0.9999924 0.003921628 0
vn 0.9999924 0.003921628 0
vn 0.9999924 0.003921628 0
vn 0.9999924 0.003921628 0
vn 0.9999924 0.003921628 0
vn 0.9999924 0.003921628 0
vn 0.9999924 0.003921628 0
vn 0.9999924 0.003921628 0
vn -0.003921628 -0.9999924 0
vn -0.003921628 -0.9999924 0
vn -0.003921628 -0.9999924 0
vn -0.003921628 -0.9999924 0
vn -0.003921628 0.7647001 -0.6443745
vn -0.003921628 0.6392108 -0.7690216
vn -0.003921628 0.6392108 -0.7690216
vn -0.003921628 0.7647001 -0.6443745
vn -0.003921628 0.9372478 -0.3486421
vn -0.003921628 0.9372478 -0.3486421
vn -0.003921628 0.9999924 0
vn -0.003921628 0.9999924 0
vn -0.003921628 -0.7647001 0.6443745
vn -0.003921628 -0.6392108 0.7690216
vn -0.003921628 -0.6392108 0.7690216
vn -0.003921628 -0.7647001 0.6443745
vn -0.003921628 -0.9372478 0.3486421
vn -0.003921628 -0.9372478 0.3486421
vn -0.003921628 -0.9999924 0
vn -0.003921628 -0.9999924 0
vn -0.003921628 0.9372478 0.3486421
vn -0.003921628 0.9999924 0
vn -0.003921628 0.9999924 0
vn -0.003921628 0.9372478 0.3486421
vn -0.003921628 0.7647001 0.6443745
vn -0.003921628 0.7647001 0.6443745
vn -0.003921628 0.4980354 0.8671478
vn -0.003921628 0.4980354 0.8671478
vn -0.003921628 0.1764693 0.9842983
vn -0.003921628 0.1764693 0.9842983
vn -0.003921628 -0.1764692 0.9842983
vn -0.003921628 -0.1764692 0.9842983
vn -0.003921628 -0.4980354 0.8671479
vn -0.003921628 -0.4980354 0.8671479
vn -0.003921628 -0.7647001 0.6443745
vn -0.003921628 -0.7647001 0.6443745
vn -0.003921628 -0.9372478 0.3486421
vn -0.003921628 -0.9372478 0.3486421
vn -0.003921628 -0.9999924 0
vn -0.003921628 -0.9999924 0
vn -0.003921628 -0.9372478 -0.3486421
vn -0.003921628 -0.9999924 0
vn -0.003921628 -0.9999924 0
vn -0.003921628 -0.9372478 -0.3486421
vn -0.003921628 -0.7647001 -0.6443745
vn -0.003921628 -0.7647001 -0.6443745
vn -0.003921628 -0.4980354 -0.8671479
vn -0.003921628 -0.4980354 -0.8671479
vn -0.003921628 -0.1764692 -0.9842983
vn -0.003921628 -0.1764692 -0.9842983
vn -0.003921628 0.1764693 -0.9842983
vn -0.003921628 0.1764693 -0.9842983
vn -0.003921628 0.4980354 -0.8671478
vn -0.003921628 0.4980354 -0.8671478
vn -0.003921628 0.7647001 -0.6443745
vn -0.003921628 0.7647001 -0.6443745
vn -0.003921628 0.9372478 -0.3486421
vn -0.003921628 0.9372478 -0.3486421
vn -0.003921628 0.9999924 0
vn -0.003921628 0.9999924 0
vn -0.003921628 -0.9372478 -0.3486421
vn -0.003921628 -0.9999924 0
vn -0.003921628 -0.9999924 0
vn -0.003921628 -0.9372478 -0.3486421
vn -0.003921628 -0.7647001 -0.6443745
vn -0.003921628 -0.7647001 -0.6443745
vn -0.003921628 -0.6392108 -0.7690216
vn -0.003921628 -0.6392108 -0.7690216
vn -0.003921628 0.9372478 0.3486421
vn -0.003921628 0.9999924 0
vn -0.003921628 0.9999924 0
vn -0.003921628 0.9372478 0.3486421
vn -0.003921628 0.7647001 0.6443745
vn -0.003921628 0.7647001 0.6443745
vn -0.003921628 0.6392108 0.7690216
vn -0.003921628 0.6392108 0.7690216
vn -0.003921628 -0.9999924 0
vn -0.003921628 -0.9999924 0
vn -0.003921628 -0.9999924 0
vn -0.003921628 -0.9999924 0
vn -0.003921628 0.9999924 0
vn -0.003921628 0.9999924 0
vn -0.003921628 0.9999924 0
vn -0.003921628 0.9999924 0
vn -0.003921628 -0.003921509 0.9999846
vn -0.003921628 -0.003921509 0.9999846
vn -0.003921628 -0.003921509 0.9999846
vn -0.003921628 -0.003921509 0.9999846
vn 0.9999924 0.003921628 0
vn 0.9999924 0.003921628 0
vn 0.9999924 0.003921628 0
vn 0.9999924 0.003921628 0
vn -0.003921628 0.003921628 -0.9999846
vn -0.003921628 0.003921628 -0.9999846
vn -0.003921628 0.003921628 -0.9999846
vn -0.003921628 0.003921628 -0.9999846
vn -0.003921628 0.9999924 0
vn -0.003921628 0.9999924 0
vn -0.003921628 0.9999924 0
vn -0.003921628 0.9999924 0
vn 0.9999924 0.003921628 0
vn 0.9999924 0.003921628 0
vn 0.9999924 0.003921628 0
vn 0.9999924 0.003921628 0
vn 0.9999924 0.003921628 0
vn 0.9999924 0.003921628 0
vn -0.003921628 -0.9999924 0
vn -0.003921628 -0.9999924 0
vn -0.003921628 -0.9999924 0
vn -0.003921628 -0.9999924 0
vn -0.003921628 0.003921628 -0.9999846
vn -0.003921628 0.003921628 -0.9999846
vn -0.003921628 0.003921628 -0.9999846
vn -0.003921628 0.003921628 -0.9999846
vn -0.003921628 0.003921628 0.9999846
vn -0.003921628 0.003921628 0.9999846
vn -0.003921628 0.003921628 0.9999846
vn -0.003921628 0.003921628 0.9999846
vn -0.003921628 -0.9999924 0
vn -0.003921628 -0.9999924 0
vn -0.003921628 -0.9999924 0
vn -0.003921628 -0.9999924 0
vn 0.9999924 0.003921628 0
vn 0.9999924 0.003921628 0
vn 0.9999924 0.003921628 0
vn 0.9999924 0.003921628 0
vn -0.003921628 0.9999924 0
vn -0.003921628 0.9999924 0
vn -0.003921628 0.9999924 0
vn -0.003921628 0.9999924 0
vn -0.003921628 0.003921628 -0.9999846
vn -0.003921628 0.003921628 -0.9999846
vn -0.003921628 0.003921628 -0.9999846
vn -0.003921628 0.003921628 -0.9999846
vn -0.003921628 -0.003921509 -0.9999846
vn -0.003921628 -0.003921509 -0.9999846
vn -0.003921628 -0.003921509 -0.9999846
vn -0.003921628 -0.003921509 -0.9999846
g Box153_0
f 3/3/3 2/2/2 1/1/1
f 4/4/4 1/1/1 2/2/2
f 1/1/1 4/4/4 5/5/5
f 6/6/6 5/5/5 4/4/4
f 6/6/6 7/7/7 5/5/5
f 8/8/8 5/5/5 7/7/7
f 7/7/7 9/9/9 8/8/8
f 10/10/10 8/8/8 9/9/9
f 3/3/3 11/11/11 2/2/2
f 12/12/12 2/2/2 11/11/11
f 11/11/11 13/13/13 12/12/12
f 14/14/14 12/12/12 13/13/13
f 17/17/17 16/16/16 15/15/15
f 15/15/15 16/16/16 18/18/18
f 16/16/16 19/19/19 18/18/18
f 22/22/22 21/21/21 20/20/20
f 23/23/23 20/20/20 21/21/21
f 26/26/26 25/25/25 24/24/24
f 27/27/27 24/24/24 25/25/25
f 30/30/30 29/29/29 28/28/28
f 31/31/31 28/28/28 29/29/29
f 34/34/34 33/33/33 32/32/32
f 35/35/35 32/32/32 33/33/33
f 38/38/38 37/37/37 36/36/36
f 39/39/39 36/36/36 37/37/37
f 42/42/42 41/41/41 40/40/40
f 43/43/43 40/40/40 41/41/41
f 46/46/46 45/45/45 44/44/44
f 47/47/47 44/44/44 45/45/45
f 50/50/50 49/49/49 48/48/48
f 51/51/51 48/48/48 49/49/49
f 54/54/54 53/53/53 52/52/52
f 55/55/55 52/52/52 53/53/53
f 58/58/58 57/57/57 56/56/56
f 59/59/59 56/56/56 57/57/57
f 62/62/62 61/61/61 60/60/60
f 63/63/63 60/60/60 61/61/61
f 66/66/66 65/65/65 64/64/64
f 67/67/67 64/64/64 65/65/65
f 70/70/70 69/69/69 68/68/68
f 71/71/71 68/68/68 69/69/69
f 74/74/74 73/73/73 72/72/72
f 77/77/77 76/76/76 75/75/75
f 80/80/80 79/79/79 78/78/78
f 81/81/81 78/78/78 79/79/79
f 78/78/78 82/82/82 80/80/80
f 83/83/83 80/80/80 82/82/82
f 82/82/82 84/84/84 83/83/83
f 85/85/85 83/83/83 84/84/84
f 84/84/84 86/86/86 85/85/85
f 87/87/87 85/85/85 86/86/86
f 86/86/86 88/88/88 87/87/87
f 89/89/89 87/87/87 88/88/88
f 88/88/88 90/90/90 89/89/89
f 91/91/91 89/89/89 90/90/90
f 90/90/90 92/92/92 91/91/91
f 93/93/93 91/91/91 92/92/92
f 93/93/93 92/92/92 94/94/94
f 95/95/95 94/94/94 92/92/92
f 98/98/98 97/97/97 96/96/96
f 99/99/99 96/96/96 97/97/97
f 96/96/96 99/99/99 100/100/100
f 101/101/101 100/100/100 99/99/99
f 100/100/100 101/101/101 102/102/102
f 103/103/103 102/102/102 101/101/101
f 102/102/102 103/103/103 104/104/104
f 105/105/105 104/104/104 103/103/103
f 104/104/104 105/105/105 106/106/106
f 107/107/107 106/106/106 105/105/105
f 106/106/106 107/107/107 108/108/108
f 109/109/109 108/108/108 107/107/107
f 108/108/108 109/109/109 110/110/110
f 111/111/111 110/110/110 109/109/109
f 114/114/114 113/113/113 112/112/112
f 117/117/117 116/116/116 115/115/115
f 120/120/120 119/119/119 118/118/118
f 118/118/118 119/119/119 121/121/121
f 119/119/119 122/122/122 121/121/121
f 122/122/122 123/123/123 121/121/121
f 126/126/126 125/125/125 124/124/124
f 124/124/124 125/125/125 127/127/127
f 125/125/125 128/128/128 127/127/127
f 128/128/128 129/129/129 127/127/127
f 132/132/132 131/131/131 130/130/130
f 131/131/131 133/133/133 130/130/130
f 130/130/130 133/133/133 134/134/134
f 133/133/133 135/135/135 134/134/134
f 135/135/135 136/136/136 134/134/134
f 136/136/136 137/137/137 134/134/134
f 134/134/134 137/137/137 138/138/138
f 137/137/137 139/139/139 138/138/138
f 138/138/138 139/139/139 140/140/140
f 139/139/139 141/141/141 140/140/140
f 141/141/141 142/142/142 140/140/140
f 140/140/140 142/142/142 143/143/143
f 142/142/142 144/144/144 143/143/143
f 143/143/143 144/144/144 145/145/145
f 144/144/144 146/146/146 145/145/145
f 145/145/145 146/146/146 147/147/147
f 146/146/146 148/148/148 147/147/147
f 147/147/147 148/148/148 149/149/149
f 148/148/148 150/150/150 149/149/149
f 150/150/150 151/151/151 149/149/149
f 151/151/151 152/152/152 149/149/149
f 152/152/152 153/153/153 149/149/149
f 149/149/149 153/153/153 154/154/154
f 153/153/153 155/155/155 154/154/154
f 155/155/155 156/156/156 154/154/154
f 159/159/159 158/158/158 157/157/157
f 157/157/157 158/158/158 160/160/160
f 158/158/158 161/161/161 160/160/160
f 160/160/160 161/161/161 162/162/162
f 162/162/162 157/157/157 160/160/160
f 161/161/161 163/163/163 162/162/162
f 163/163/163 164/164/164 162/162/162
f 164/164/164 165/165/165 162/162/162
f 166/166/166 165/165/165 164/164/164
f 167/167/167 166/166/166 164/164/164
f 168/168/168 166/166/166 167/167/167
f 169/169/169 166/166/166 168/168/168
f 170/170/170 166/166/166 169/169/169
f 171/171/171 166/166/166 170/170/170
f 172/172/172 166/166/166 171/171/171
f 173/173/173 172/172/172 171/171/171
f 174/174/174 172/172/172 173/173/173
f 175/175/175 172/172/172 174/174/174
f 176/176/176 172/172/172 175/175/175
f 177/177/177 172/172/172 176/176/176
f 178/178/178 172/172/172 177/177/177
f 179/179/179 178/178/178 177/177/177
f 180/180/180 178/178/178 179/179/179
f 181/181/181 172/172/172 178/178/178
f 182/182/182 166/166/166 172/172/172
f 183/183/183 182/182/182 172/172/172
f 184/184/184 182/182/182 183/183/183
f 185/185/185 166/166/166 182/182/182
f 186/186/186 165/165/165 166/166/166
f 165/165/165 187/187/187 162/162/162
f 187/187/187 157/157/157 162/162/162
f 159/159/159 157/157/157 187/187/187
g Box153_1
f 190/190/190 189/189/189 188/188/188
f 191/191/191 188/188/188 189/189/189
f 188/188/188 191/191/191 192/192/192
f 193/193/193 192/192/192 191/191/191
f 192/192/192 193/193/193 194/194/194
f 195/195/195 194/194/194 193/193/193
f 194/194/194 195/195/195 196/196/196
f 197/197/197 196/196/196 195/195/195
f 196/196/196 197/197/197 198/198/198
f 199/199/199 198/198/198 197/197/197
f 198/198/198 199/199/199 200/200/200
f 201/201/201 200/200/200 199/199/199
f 204/204/204 203/203/203 202/202/202
f 205/205/205 202/202/202 203/203/203
f 202/202/202 205/205/205 206/206/206
f 207/207/207 206/206/206 205/205/205
f 206/206/206 207/207/207 208/208/208
f 209/209/209 208/208/208 207/207/207
f 208/208/208 209/209/209 210/210/210
f 211/211/211 210/210/210 209/209/209
f 210/210/210 211/211/211 212/212/212
f 213/213/213 212/212/212 211/211/211
f 212/212/212 213/213/213 214/214/214
f 215/215/215 214/214/214 213/213/213
f 218/218/218 217/217/217 216/216/216
f 219/219/219 216/216/216 217/217/217
f 216/216/216 219/219/219 220/220/220
f 221/221/221 220/220/220 219/219/219
f 220/220/220 221/221/221 222/222/222
f 223/223/223 222/222/222 221/221/221
f 222/222/222 223/223/223 224/224/224
f 225/225/225 224/224/224 223/223/223
f 224/224/224 225/225/225 226/226/226
f 227/227/227 226/226/226 225/225/225
f 226/226/226 227/227/227 228/228/228
f 229/229/229 228/228/228 227/227/227
f 232/232/232 231/231/231 230/230/230
f 233/233/233 230/230/230 231/231/231
f 230/230/230 233/233/233 234/234/234
f 235/235/235 234/234/234 233/233/233
f 234/234/234 235/235/235 236/236/236
f 237/237/237 236/236/236 235/235/235
f 236/236/236 237/237/237 238/238/238
f 239/239/239 238/238/238 237/237/237
f 238/238/238 239/239/239 240/240/240
f 241/241/241 240/240/240 239/239/239
f 240/240/240 241/241/241 242/242/242
f 243/243/243 242/242/242 241/241/241
f 246/246/246 245/245/245 244/244/244
f 247/247/247 244/244/244 245/245/245
f 250/250/250 249/249/249 248/248/248
f 248/248/248 249/249/249 251/251/251
f 254/254/254 253/253/253 252/252/252
f 255/255/255 252/252/252 253/253/253
f 252/252/252 255/255/255 256/256/256
f 257/257/257 256/256/256 255/255/255
f 256/256/256 257/257/257 258/258/258
f 259/259/259 258/258/258 257/257/257
f 258/258/258 259/259/259 260/260/260
f 261/261/261 260/260/260 259/259/259
f 260/260/260 261/261/261 262/262/262
f 263/263/263 262/262/262 261/261/261
f 262/262/262 263/263/263 264/264/264
f 265/265/265 264/264/264 263/263/263
f 268/268/268 267/267/267 266/266/266
f 269/269/269 266/266/266 267/267/267
f 266/266/266 269/269/269 270/270/270
f 271/271/271 270/270/270 269/269/269
f 270/270/270 271/271/271 272/272/272
f 273/273/273 272/272/272 271/271/271
f 272/272/272 273/273/273 274/274/274
f 275/275/275 274/274/274 273/273/273
f 274/274/274 275/275/275 276/276/276
f 277/277/277 276/276/276 275/275/275
f 276/276/276 277/277/277 278/278/278
f 279/279/279 278/278/278 277/277/277
f 282/282/282 281/281/281 280/280/280
f 283/283/283 280/280/280 281/281/281
f 280/280/280 283/283/283 284/284/284
f 285/285/285 284/284/284 283/283/283
f 284/284/284 285/285/285 286/286/286
f 287/287/287 286/286/286 285/285/285
f 286/286/286 287/287/287 288/288/288
f 289/289/289 288/288/288 287/287/287
f 288/288/288 289/289/289 290/290/290
f 291/291/291 290/290/290 289/289/289
f 290/290/290 291/291/291 292/292/292
f 293/293/293 292/292/292 291/291/291
f 296/296/296 295/295/295 294/294/294
f 297/297/297 294/294/294 295/295/295
f 294/294/294 297/297/297 298/298/298
f 299/299/299 298/298/298 297/297/297
f 298/298/298 299/299/299 300/300/300
f 301/301/301 300/300/300 299/299/299
f 300/300/300 301/301/301 302/302/302
f 303/303/303 302/302/302 301/301/301
f 302/302/302 303/303/303 304/304/304
f 305/305/305 304/304/304 303/303/303
f 304/304/304 305/305/305 306/306/306
f 307/307/307 306/306/306 305/305/305
f 310/310/310 309/309/309 308/308/308
f 311/311/311 308/308/308 309/309/309
f 314/314/314 313/313/313 312/312/312
f 312/312/312 313/313/313 315/315/315
f 318/318/318 317/317/317 316/316/316
f 319/319/319 316/316/316 317/317/317
f 322/322/322 321/321/321 320/320/320
f 323/323/323 320/320/320 321/321/321
f 326/326/326 325/325/325 324/324/324
f 327/327/327 324/324/324 325/325/325
f 330/330/330 329/329/329 328/328/328
f 331/331/331 328/328/328 329/329/329
f 328/328/328 331/331/331 332/332/332
f 333/333/333 332/332/332 331/331/331
f 332/332/332 333/333/333 334/334/334
f 335/335/335 334/334/334 333/333/333
f 334/334/334 335/335/335 336/336/336
f 337/337/337 336/336/336 335/335/335
f 336/336/336 337/337/337 338/338/338
f 339/339/339 338/338/338 337/337/337
f 338/338/338 339/339/339 340/340/340
f 341/341/341 340/340/340 339/339/339
f 340/340/340 341/341/341 342/342/342
f 343/343/343 342/342/342 341/341/341
f 342/342/342 343/343/343 344/344/344
f 345/345/345 344/344/344 343/343/343
f 344/344/344 345/345/345 346/346/346
f 347/347/347 346/346/346 345/345/345
f 346/346/346 347/347/347 348/348/348
f 349/349/349 348/348/348 347/347/347
f 348/348/348 349/349/349 350/350/350
f 351/351/351 350/350/350 349/349/349
f 350/350/350 351/351/351 352/352/352
f 353/353/353 352/352/352 351/351/351
f 352/352/352 353/353/353 354/354/354
f 355/355/355 354/354/354 353/353/353
f 354/354/354 355/355/355 356/356/356
f 357/357/357 356/356/356 355/355/355
f 356/356/356 357/357/357 358/358/358
f 359/359/359 358/358/358 357/357/357
f 358/358/358 359/359/359 360/360/360
f 361/361/361 360/360/360 359/359/359
f 360/360/360 361/361/361 362/362/362
f 363/363/363 362/362/362 361/361/361
f 362/362/362 363/363/363 364/364/364
f 365/365/365 364/364/364 363/363/363
f 364/364/364 365/365/365 366/366/366
f 367/367/367 366/366/366 365/365/365
f 366/366/366 367/367/367 368/368/368
f 369/369/369 368/368/368 367/367/367
f 368/368/368 369/369/369 370/370/370
f 371/371/371 370/370/370 369/369/369
f 370/370/370 371/371/371 372/372/372
f 373/373/373 372/372/372 371/371/371
f 372/372/372 373/373/373 374/374/374
f 375/375/375 374/374/374 373/373/373
f 374/374/374 375/375/375 376/376/376
f 377/377/377 376/376/376 375/375/375
f 376/376/376 377/377/377 378/378/378
f 379/379/379 378/378/378 377/377/377
f 382/382/382 381/381/381 380/380/380
f 383/383/383 380/380/380 381/381/381
f 386/386/386 385/385/385 384/384/384
f 387/387/387 384/384/384 385/385/385
f 384/384/384 387/387/387 388/388/388
f 389/389/389 388/388/388 387/387/387
f 392/392/392 391/391/391 390/390/390
f 393/393/393 390/390/390 391/391/391
f 396/396/396 395/395/395 394/394/394
f 397/397/397 394/394/394 395/395/395
f 400/400/400 399/399/399 398/398/398
f 401/401/401 398/398/398 399/399/399
f 404/404/404 403/403/403 402/402/402
f 405/405/405 402/402/402 403/403/403
f 408/408/408 407/407/407 406/406/406
f 409/409/409 406/406/406 407/407/407
f 406/406/406 409/409/409 410/410/410
f 413/413/413 412/412/412 411/411/411
f 414/414/414 411/411/411 412/412/412
f 417/417/417 416/416/416 415/415/415
f 418/418/418 415/415/415 416/416/416
f 421/421/421 420/420/420 419/419/419
f 420/420/420 421/421/421 422/422/422
f 423/423/423 422/422/422 421/421/421
f 422/422/422 423/423/423 424/424/424
f 425/425/425 424/424/424 423/423/423
f 424/424/424 425/425/425 426/426/426
f 427/427/427 426/426/426 425/425/425
f 426/426/426 427/427/427 428/428/428
f 429/429/429 428/428/428 427/427/427
f 428/428/428 429/429/429 430/430/430
f 431/431/431 430/430/430 429/429/429
f 430/430/430 431/431/431 432/432/432
f 433/433/433 432/432/432 431/431/431
f 432/432/432 433/433/433 434/434/434
f 435/435/435 434/434/434 433/433/433
f 434/434/434 435/435/435 436/436/436
f 437/437/437 436/436/436 435/435/435
f 436/436/436 437/437/437 438/438/438
f 439/439/439 438/438/438 437/437/437
f 438/438/438 439/439/439 440/440/440
f 441/441/441 440/440/440 439/439/439
f 440/440/440 441/441/441 442/442/442
f 443/443/443 442/442/442 441/441/441
f 442/442/442 443/443/443 444/444/444
f 445/445/445 444/444/444 443/443/443
f 444/444/444 445/445/445 446/446/446
f 447/447/447 446/446/446 445/445/445
f 446/446/446 447/447/447 448/448/448
f 449/449/449 448/448/448 447/447/447
f 448/448/448 449/449/449 450/450/450
f 451/451/451 450/450/450 449/449/449
f 450/450/450 451/451/451 452/452/452
f 453/453/453 452/452/452 451/451/451
f 456/456/456 455/455/455 454/454/454
f 457/457/457 454/454/454 455/455/455
f 460/460/460 459/459/459 458/458/458
f 461/461/461 458/458/458 459/459/459
f 458/458/458 461/461/461 462/462/462
f 463/463/463 462/462/462 461/461/461
f 462/462/462 463/463/463 464/464/464
f 465/465/465 464/464/464 463/463/463
f 468/468/468 467/467/467 466/466/466
f 469/469/469 466/466/466 467/467/467
f 466/466/466 469/469/469 470/470/470
f 471/471/471 470/470/470 469/469/469
f 470/470/470 471/471/471 472/472/472
f 473/473/473 472/472/472 471/471/471
f 476/476/476 475/475/475 474/474/474
f 477/477/477 474/474/474 475/475/475
f 474/474/474 477/477/477 478/478/478
f 479/479/479 478/478/478 477/477/477
f 478/478/478 479/479/479 480/480/480
f 481/481/481 480/480/480 479/479/479
f 480/480/480 481/481/481 482/482/482
f 483/483/483 482/482/482 481/481/481
f 482/482/482 483/483/483 484/484/484
f 485/485/485 484/484/484 483/483/483
f 484/484/484 485/485/485 486/486/486
f 487/487/487 486/486/486 485/485/485
f 486/486/486 487/487/487 488/488/488
f 489/489/489 488/488/488 487/487/487
f 488/488/488 489/489/489 490/490/490
f 491/491/491 490/490/490 489/489/489
f 490/490/490 491/491/491 492/492/492
f 493/493/493 492/492/492 491/491/491
f 496/496/496 495/495/495 494/494/494
f 497/497/497 494/494/494 495/495/495
f 494/494/494 497/497/497 498/498/498
f 499/499/499 498/498/498 497/497/497
f 498/498/498 499/499/499 500/500/500
f 501/501/501 500/500/500 499/499/499
f 500/500/500 501/501/501 502/502/502
f 503/503/503 502/502/502 501/501/501
f 502/502/502 503/503/503 504/504/504
f 505/505/505 504/504/504 503/503/503
f 504/504/504 505/505/505 506/506/506
f 507/507/507 506/506/506 505/505/505
f 506/506/506 507/507/507 508/508/508
f 509/509/509 508/508/508 507/507/507
f 508/508/508 509/509/509 510/510/510
f 511/511/511 510/510/510 509/509/509
f 510/510/510 511/511/511 512/512/512
f 513/513/513 512/512/512 511/511/511
f 516/516/516 515/515/515 514/514/514
f 517/517/517 514/514/514 515/515/515
f 514/514/514 517/517/517 518/518/518
f 519/519/519 518/518/518 517/517/517
f 518/518/518 519/519/519 520/520/520
f 521/521/521 520/520/520 519/519/519
f 524/524/524 523/523/523 522/522/522
f 525/525/525 522/522/522 523/523/523
f 522/522/522 525/525/525 526/526/526
f 527/527/527 526/526/526 525/525/525
f 526/526/526 527/527/527 528/528/528
f 529/529/529 528/528/528 527/527/527
f 532/532/532 531/531/531 530/530/530
f 533/533/533 530/530/530 531/531/531
f 536/536/536 535/535/535 534/534/534
f 537/537/537 534/534/534 535/535/535
f 540/540/540 539/539/539 538/538/538
f 541/541/541 538/538/538 539/539/539
f 544/544/544 543/543/543 542/542/542
f 545/545/545 542/542/542 543/543/543
f 548/548/548 547/547/547 546/546/546
f 549/549/549 546/546/546 547/547/547
f 552/552/552 551/551/551 550/550/550
f 553/553/553 550/550/550 551/551/551
f 556/556/556 555/555/555 554/554/554
f 557/557/557 554/554/554 555/555/555
f 554/554/554 557/557/557 558/558/558
f 559/559/559 558/558/558 557/557/557
f 562/562/562 561/561/561 560/560/560
f 563/563/563 560/560/560 561/561/561
f 566/566/566 565/565/565 564/564/564
f 567/567/567 564/564/564 565/565/565
f 570/570/570 569/569/569 568/568/568
f 571/571/571 568/568/568 569/569/569
f 574/574/574 573/573/573 572/572/572
f 575/575/575 572/572/572 573/573/573
f 578/578/578 577/577/577 576/576/576
f 579/579/579 576/576/576 577/577/577
f 582/582/582 581/581/581 580/580/580
f 583/583/583 580/580/580 581/581/581
f 586/586/586 585/585/585 584/584/584
f 587/587/587 584/584/584 585/585/585
f 590/590/590 589/589/589 588/588/588
f 588/588/588 589/589/589 591/591/591
f 594/594/594 593/593/593 592/592/592
f 595/595/595 592/592/592 593/593/593
f 598/598/598 597/597/597 596/596/596
f 599/599/599 596/596/596 597/597/597
f 602/602/602 601/601/601 600/600/600
f 603/603/603 600/600/600 601/601/601
f 606/606/606 605/605/605 604/604/604
f 607/607/607 604/604/604 605/605/605
f 604/604/604 607/607/607 608/608/608
f 609/609/609 608/608/608 607/607/607
f 608/608/608 609/609/609 610/610/610
f 611/611/611 610/610/610 609/609/609
f 610/610/610 611/611/611 612/612/612
f 613/613/613 612/612/612 611/611/611
f 612/612/612 613/613/613 614/614/614
f 615/615/615 614/614/614 613/613/613
f 614/614/614 615/615/615 616/616/616
f 617/617/617 616/616/616 615/615/615
f 616/616/616 617/617/617 618/618/618
f 619/619/619 618/618/618 617/617/617
f 618/618/618 619/619/619 620/620/620
f 621/621/621 620/620/620 619/619/619
f 620/620/620 621/621/621 622/622/622
f 623/623/623 622/622/622 621/621/621
f 622/622/622 623/623/623 624/624/624
f 625/625/625 624/624/624 623/623/623
f 624/624/624 625/625/625 626/626/626
f 627/627/627 626/626/626 625/625/625
f 626/626/626 627/627/627 628/628/628
f 629/629/629 628/628/628 627/627/627
f 628/628/628 629/629/629 630/630/630
f 631/631/631 630/630/630 629/629/629
f 630/630/630 631/631/631 632/632/632
f 633/633/633 632/632/632 631/631/631
f 632/632/632 633/633/633 634/634/634
f 635/635/635 634/634/634 633/633/633
f 634/634/634 635/635/635 636/636/636
f 637/637/637 636/636/636 635/635/635
f 636/636/636 637/637/637 638/638/638
f 639/639/639 638/638/638 637/637/637
f 638/638/638 639/639/639 640/640/640
f 641/641/641 640/640/640 639/639/639
f 640/640/640 641/641/641 642/642/642
f 643/643/643 642/642/642 641/641/641
f 642/642/642 643/643/643 644/644/644
f 645/645/645 644/644/644 643/643/643
f 644/644/644 645/645/645 646/646/646
f 647/647/647 646/646/646 645/645/645
f 646/646/646 647/647/647 648/648/648
f 649/649/649 648/648/648 647/647/647
f 648/648/648 649/649/649 650/650/650
f 651/651/651 650/650/650 649/649/649
f 650/650/650 651/651/651 652/652/652
f 653/653/653 652/652/652 651/651/651
f 652/652/652 653/653/653 654/654/654
f 655/655/655 654/654/654 653/653/653
f 658/658/658 657/657/657 656/656/656
f 659/659/659 656/656/656 657/657/657
f 662/662/662 661/661/661 660/660/660
f 663/663/663 660/660/660 661/661/661
f 660/660/660 663/663/663 664/664/664
f 665/665/665 664/664/664 663/663/663
f 668/668/668 667/667/667 666/666/666
f 669/669/669 666/666/666 667/667/667
f 672/672/672 671/671/671 670/670/670
f 673/673/673 670/670/670 671/671/671
f 676/676/676 675/675/675 674/674/674
f 677/677/677 674/674/674 675/675/675
f 680/680/680 679/679/679 678/678/678
f 681/681/681 678/678/678 679/679/679
f 684/684/684 683/683/683 682/682/682
f 685/685/685 682/682/682 683/683/683
f 682/682/682 685/685/685 686/686/686
f 689/689/689 688/688/688 687/687/687
f 690/690/690 687/687/687 688/688/688
f 693/693/693 692/692/692 691/691/691
f 694/694/694 691/691/691 692/692/692
f 697/697/697 696/696/696 695/695/695
f 696/696/696 697/697/697 698/698/698
f 699/699/699 698/698/698 697/697/697
f 698/698/698 699/699/699 700/700/700
f 701/701/701 700/700/700 699/699/699
f 700/700/700 701/701/701 702/702/702
f 703/703/703 702/702/702 701/701/701
f 702/702/702 703/703/703 704/704/704
f 705/705/705 704/704/704 703/703/703
f 704/704/704 705/705/705 706/706/706
f 707/707/707 706/706/706 705/705/705
f 706/706/706 707/707/707 708/708/708
f 709/709/709 708/708/708 707/707/707
f 708/708/708 709/709/709 710/710/710
f 711/711/711 710/710/710 709/709/709
f 710/710/710 711/711/711 712/712/712
f 713/713/713 712/712/712 711/711/711
f 712/712/712 713/713/713 714/714/714
f 715/715/715 714/714/714 713/713/713
f 714/714/714 715/715/715 716/716/716
f 717/717/717 716/716/716 715/715/715
f 716/716/716 717/717/717 718/718/718
f 719/719/719 718/718/718 717/717/717
f 718/718/718 719/719/719 720/720/720
f 721/721/721 720/720/720 719/719/719
f 720/720/720 721/721/721 722/722/722
f 723/723/723 722/722/722 721/721/721
f 722/722/722 723/723/723 724/724/724
f 725/725/725 724/724/724 723/723/723
f 724/724/724 725/725/725 726/726/726
f 727/727/727 726/726/726 725/725/725
f 726/726/726 727/727/727 728/728/728
f 729/729/729 728/728/728 727/727/727
f 732/732/732 731/731/731 730/730/730
f 733/733/733 730/730/730 731/731/731
f 736/736/736 735/735/735 734/734/734
f 737/737/737 734/734/734 735/735/735
f 734/734/734 737/737/737 738/738/738
f 739/739/739 738/738/738 737/737/737
f 738/738/738 739/739/739 740/740/740
f 741/741/741 740/740/740 739/739/739
f 744/744/744 743/743/743 742/742/742
f 745/745/745 742/742/742 743/743/743
f 742/742/742 745/745/745 746/746/746
f 747/747/747 746/746/746 745/745/745
f 746/746/746 747/747/747 748/748/748
f 749/749/749 748/748/748 747/747/747
f 752/752/752 751/751/751 750/750/750
f 753/753/753 750/750/750 751/751/751
f 750/750/750 753/753/753 754/754/754
f 755/755/755 754/754/754 753/753/753
f 754/754/754 755/755/755 756/756/756
f 757/757/757 756/756/756 755/755/755
f 756/756/756 757/757/757 758/758/758
f 759/759/759 758/758/758 757/757/757
f 758/758/758 759/759/759 760/760/760
f 761/761/761 760/760/760 759/759/759
f 760/760/760 761/761/761 762/762/762
f 763/763/763 762/762/762 761/761/761
f 762/762/762 763/763/763 764/764/764
f 765/765/765 764/764/764 763/763/763
f 764/764/764 765/765/765 766/766/766
f 767/767/767 766/766/766 765/765/765
f 766/766/766 767/767/767 768/768/768
f 769/769/769 768/768/768 767/767/767
f 772/772/772 771/771/771 770/770/770
f 773/773/773 770/770/770 771/771/771
f 770/770/770 773/773/773 774/774/774
f 775/775/775 774/774/774 773/773/773
f 774/774/774 775/775/775 776/776/776
f 777/777/777 776/776/776 775/775/775
f 776/776/776 777/777/777 778/778/778
f 779/779/779 778/778/778 777/777/777
f 778/778/778 779/779/779 780/780/780
f 781/781/781 780/780/780 779/779/779
f 780/780/780 781/781/781 782/782/782
f 783/783/783 782/782/782 781/781/781
f 782/782/782 783/783/783 784/784/784
f 785/785/785 784/784/784 783/783/783
f 784/784/784 785/785/785 786/786/786
f 787/787/787 786/786/786 785/785/785
f 786/786/786 787/787/787 788/788/788
f 789/789/789 788/788/788 787/787/787
f 792/792/792 791/791/791 790/790/790
f 793/793/793 790/790/790 791/791/791
f 790/790/790 793/793/793 794/794/794
f 795/795/795 794/794/794 793/793/793
f 794/794/794 795/795/795 796/796/796
f 797/797/797 796/796/796 795/795/795
f 800/800/800 799/799/799 798/798/798
f 801/801/801 798/798/798 799/799/799
f 798/798/798 801/801/801 802/802/802
f 803/803/803 802/802/802 801/801/801
f 802/802/802 803/803/803 804/804/804
f 805/805/805 804/804/804 803/803/803
f 808/808/808 807/807/807 806/806/806
f 809/809/809 806/806/806 807/807/807
f 812/812/812 811/811/811 810/810/810
f 813/813/813 810/810/810 811/811/811
f 816/816/816 815/815/815 814/814/814
f 817/817/817 814/814/814 815/815/815
f 820/820/820 819/819/819 818/818/818
f 821/821/821 818/818/818 819/819/819
f 824/824/824 823/823/823 822/822/822
f 825/825/825 822/822/822 823/823/823
f 828/828/828 827/827/827 826/826/826
f 829/829/829 826/826/826 827/827/827
f 832/832/832 831/831/831 830/830/830
f 833/833/833 830/830/830 831/831/831
f 830/830/830 833/833/833 834/834/834
f 835/835/835 834/834/834 833/833/833
f 838/838/838 837/837/837 836/836/836
f 839/839/839 836/836/836 837/837/837
f 842/842/842 841/841/841 840/840/840
f 843/843/843 840/840/840 841/841/841
f 846/846/846 845/845/845 844/844/844
f 847/847/847 844/844/844 845/845/845
f 850/850/850 849/849/849 848/848/848
f 851/851/851 848/848/848 849/849/849
f 854/854/854 853/853/853 852/852/852
f 855/855/855 852/852/852 853/853/853
f 858/858/858 857/857/857 856/856/856
f 859/859/859 856/856/856 857/857/857
f 862/862/862 861/861/861 860/860/860
f 863/863/863 860/860/860 861/861/861
f 866/866/866 865/865/865 864/864/864
f 864/864/864 865/865/865 867/867/867
