g Box158
v -2.913681 -0.2985857 0.322531
v -2.913681 1.011882 0.322531
v 2.91368 1.011882 0.322531
v 2.91368 -0.2985857 0.322531
v -3.189538 -0.5744429 4.863739E-05
v -3.189538 -0.5744429 0.468636
v 3.189538 -0.5744429 0.468636
v 3.189538 -0.5744429 4.863739E-05
v 3.189538 -0.5744429 4.863739E-05
v 3.189538 -0.5744429 0.468636
v 3.189538 1.287739 0.468636
v 3.189538 1.287739 4.863739E-05
v 3.189538 1.287739 4.863739E-05
v 3.189538 1.287739 0.468636
v -3.189538 1.287739 0.468636
v -3.189538 1.287739 4.863739E-05
v -3.189538 1.287739 4.863739E-05
v -3.189538 1.287739 0.468636
v -3.189538 -0.5744429 0.468636
v -3.189538 -0.5744429 4.863739E-05
v -3.189538 -0.5744429 0.468636
v -2.913681 -0.2985857 0.468636
v 2.91368 -0.2985857 0.468636
v 3.189538 -0.5744429 0.468636
v 2.91368 1.011882 0.468636
v 3.189538 1.287739 0.468636
v -2.913681 1.011882 0.468636
v -3.189538 1.287739 0.468636
v -2.913681 -0.2985857 0.468636
v -2.913681 -0.2985857 0.322531
v 2.91368 -0.2985857 0.322531
v 2.91368 -0.2985857 0.468636
v 2.91368 -0.2985857 0.468636
v 2.91368 -0.2985857 0.322531
v 2.91368 1.011882 0.322531
v 2.91368 1.011882 0.468636
v 2.91368 1.011882 0.468636
v 2.91368 1.011882 0.322531
v -2.913681 1.011882 0.322531
v -2.913681 1.011882 0.468636
v -2.913681 1.011882 0.468636
v -2.913681 1.011882 0.322531
v -2.913681 -0.2985857 0.322531
v -2.913681 -0.2985857 0.468636
vt 0.03812317 0.3812317
vt 0.03812317 0.6647117
vt 0.9784946 0.6647117
vt 0.9784946 0.3812317
vt 0.9902248 0.1671554
vt 0.9902248 0.09481916
vt 0.009775171 0.09481916
vt 0.009775171 0.1671554
vt 0.2961877 0.3362659
vt 0.2961877 0.2639296
vt 0.009775171 0.2639296
vt 0.009775171 0.3362659
vt 0.9902248 0.08211144
vt 0.9902248 0.009775171
vt 0.009775171 0.009775171
vt 0.009775171 0.08211144
vt 0.2961877 0.2512219
vt 0.2961877 0.1798632
vt 0.009775171 0.1798632
vt 0.009775171 0.2512219
vt 0 0
vt 0 0
vt 1 0
vt 1 0
vt 1 1
vt 1 1
vt 0 1
vt 0 1
vt 0 0
vt 0 0
vt 1 0
vt 1 0
vt 1 0
vt 1 0
vt 1 1
vt 1 1
vt 1 1
vt 1 1
vt 0 1
vt 0 1
vt 0 1
vt 0 1
vt 0 0
vt 0 0
vn -0.003921628 0.003921628 0.9999846
vn -0.003921628 0.003921628 0.9999846
vn -0.003921628 0.003921628 0.9999846
vn -0.003921628 0.003921628 0.9999846
vn -0.003921628 -0.9999924 0
vn -0.003921628 -0.9999924 0
vn -0.003921628 -0.9999924 0
vn -0.003921628 -0.9999924 0
vn 0.9999924 0.003921628 0
vn 0.9999924 0.003921628 0
vn 0.9999924 0.003921628 0
vn 0.9999924 0.003921628 0
vn -0.003921628 0.9999924 0
vn -0.003921628 0.9999924 0
vn -0.003921628 0.9999924 0
vn -0.003921628 0.9999924 0
vn -0.9999924 0.003921628 0
vn -0.9999924 0.003921628 0
vn -0.9999924 0.003921628 0
vn -0.9999924 0.003921628 0
vn -0.003921628 0.003921628 0.9999846
vn -0.003921628 0.003921628 0.9999846
vn -0.003921628 0.003921628 0.9999846
vn -0.003921628 0.003921628 0.9999846
vn -0.003921628 0.003921628 0.9999846
vn -0.003921628 0.003921628 0.9999846
vn -0.003921628 0.003921628 0.9999846
vn -0.003921628 0.003921628 0.9999846
vn -0.003921628 0.9999924 0
vn -0.003921628 0.9999924 0
vn -0.003921628 0.9999924 0
vn -0.003921628 0.9999924 0
vn -0.9999924 0.003921628 0
vn -0.9999924 0.003921628 0
vn -0.9999924 0.003921628 0
vn -0.9999924 0.003921628 0
vn -0.003921628 -0.9999924 0
vn -0.003921628 -0.9999924 0
vn -0.003921628 -0.9999924 0
vn -0.003921628 -0.9999924 0
vn 0.9999924 0.003921628 0
vn 0.9999924 0.003921628 0
vn 0.9999924 0.003921628 0
vn 0.9999924 0.003921628 0
g Box158_0
f 3/3/3 2/2/2 1/1/1
f 4/4/4 3/3/3 1/1/1
f 7/7/7 6/6/6 5/5/5
f 8/8/8 7/7/7 5/5/5
f 11/11/11 10/10/10 9/9/9
f 12/12/12 11/11/11 9/9/9
f 15/15/15 14/14/14 13/13/13
f 16/16/16 15/15/15 13/13/13
f 19/19/19 18/18/18 17/17/17
f 20/20/20 19/19/19 17/17/17
f 23/23/23 22/22/22 21/21/21
f 24/24/24 23/23/23 21/21/21
f 25/25/25 23/23/23 24/24/24
f 26/26/26 25/25/25 24/24/24
f 27/27/27 25/25/25 26/26/26
f 28/28/28 27/27/27 26/26/26
f 22/22/22 27/27/27 28/28/28
f 21/21/21 22/22/22 28/28/28
f 31/31/31 30/30/30 29/29/29
f 32/32/32 31/31/31 29/29/29
f 35/35/35 34/34/34 33/33/33
f 36/36/36 35/35/35 33/33/33
f 39/39/39 38/38/38 37/37/37
f 40/40/40 39/39/39 37/37/37
f 43/43/43 42/42/42 41/41/41
f 44/44/44 43/43/43 41/41/41
