g Box157
v 0.5820957 -0.5820957 4.71155
v 0.1656843 0.165724 5.024898
v 0.5820957 0.5821355 4.71155
v 0.1656843 -0.1656843 5.024898
v -0.5821355 0.5821355 4.71155
v -0.165724 -0.1656843 5.024898
v -0.5821355 -0.5820957 4.71155
v -0.165724 0.165724 5.024898
v -0.5821355 -0.5820957 4.71155
v 0.1656843 -0.1656843 5.024898
v 0.5820957 -0.5820957 4.71155
v -0.165724 -0.1656843 5.024898
v 0.5820957 0.5821355 4.71155
v -0.165724 0.165724 5.024898
v -0.5821355 0.5821355 4.71155
v 0.1656843 0.165724 5.024898
v 0.1656843 -0.1656843 5.024898
v 0.1313615 0.1314014 5.024898
v 0.1656843 0.165724 5.024898
v 0.1313615 -0.1313615 5.024898
v -0.165724 0.165724 5.024898
v -0.1314014 -0.1313615 5.024898
v -0.165724 -0.1656843 5.024898
v -0.1314014 0.1314014 5.024898
v -0.165724 -0.1656843 5.024898
v 0.1313615 -0.1313615 5.024898
v 0.1656843 -0.1656843 5.024898
v -0.1314014 -0.1313615 5.024898
v 0.1656843 0.165724 5.024898
v -0.1314014 0.1314014 5.024898
v -0.165724 0.165724 5.024898
v 0.1313615 0.1314014 5.024898
v 0.1313615 -0.1313615 5.024898
v 0.1313615 0.1314014 5.048915
v 0.1313615 0.1314014 5.024898
v 0.1313615 -0.1313615 5.048915
v -0.1314014 0.1314014 5.024898
v -0.1314014 -0.1313615 5.048915
v -0.1314014 -0.1313615 5.024898
v -0.1314014 0.1314014 5.048915
v -0.1314014 -0.1313615 5.024898
v 0.1313615 -0.1313615 5.048915
v 0.1313615 -0.1313615 5.024898
v -0.1314014 -0.1313615 5.048915
v 0.1313615 0.1314014 5.024898
v -0.1314014 0.1314014 5.048915
v -0.1314014 0.1314014 5.024898
v 0.1313615 0.1314014 5.048915
v -0.1314014 0.1314014 5.048915
v 0.1313615 -0.1313615 5.048915
v -0.1314014 -0.1313615 5.048915
v 0.1313615 0.1314014 5.048915
v -0.6834964 -0.6834566 4.759015
v -0.6834964 -0.4178572 4.74001
v -0.4178969 -0.6834566 4.717317
v -0.6834964 0.4178969 4.717317
v 0.6834566 -0.4178572 4.717317
v 0.4178572 0.6834964 4.717317
v 0.6834566 0.4178969 4.74001
v 0.6834566 0.6834964 4.759015
v -0.4178969 0.6834964 4.74001
v -0.6834964 0.6834964 4.759015
v 0.4178572 -0.6834566 4.74001
v 0.6834566 -0.6834566 4.759015
v -0.5821355 -0.5820957 4.428458
v -0.6834964 -0.6834566 4.759015
v -0.4178969 -0.6834566 4.717317
v 0.4178572 -0.6834566 4.74001
v 0.5820957 -0.5820957 4.428458
v 0.6834566 -0.6834566 4.759015
v 0.5820957 -0.5820957 4.428458
v 0.6834566 -0.6834566 4.759015
v 0.6834566 -0.4178572 4.717317
v 0.6834566 0.4178969 4.74001
v 0.5820957 0.5821355 4.428458
v 0.6834566 0.6834964 4.759015
v 0.5820957 0.5821355 4.428458
v 0.6834566 0.6834964 4.759015
v 0.4178572 0.6834964 4.717317
v -0.4178969 0.6834964 4.74001
v -0.5821355 0.5821355 4.428458
v -0.6834964 0.6834964 4.759015
v -0.5821355 0.5821355 4.428458
v -0.6834964 0.6834964 4.759015
v -0.6834964 0.4178969 4.717317
v -0.6834964 -0.4178572 4.74001
v -0.5821355 -0.5820957 4.428458
v -0.6834964 -0.6834566 4.759015
v 0.01071185 -0.001634777 5.433935
v -0.08573216 0.05396241 5.35782
v 0.01071185 0.1096541 5.35782
v 0.01071185 0.1096541 5.189043
v -0.08573216 0.05396241 5.189043
v -0.08573216 -0.0573265 5.35782
v 0.01071185 -0.001634777 5.433935
v -0.08573216 -0.0573265 5.189043
v 0.01071185 -0.1129237 5.35782
v 0.01071185 -0.001634777 5.433935
v 0.01071185 -0.1129237 5.189043
v 0.1070614 -0.0573265 5.35782
v 0.01071185 -0.001634777 5.433935
v 0.1070614 -0.0573265 5.189043
v 0.1070614 0.05396241 5.35782
v 0.01071185 -0.001634777 5.433935
v 0.1070614 0.05396241 5.189043
v 0.01071185 0.1096541 5.35782
v 0.01071185 -0.001634777 5.433935
v 0.01071185 0.1096541 5.189043
v -0.06578153 0.04242694 5.078415
v 0.01071185 0.08658314 5.078415
v 0.01071185 -0.001634777 5.01412
v 0.01071185 -0.08994734 5.078415
v -0.06578153 -0.04579103 5.078415
v 0.01071185 -0.001634777 5.01412
v 0.01071185 -0.001634777 5.01412
v 0.08711076 0.04242694 5.078415
v 0.08711076 -0.04579103 5.078415
v 0.01071185 -0.001634777 5.01412
v 0.01071185 -0.001634777 5.01412
v 0.01071185 -0.001634777 5.01412
v 0.01071185 0.08658314 5.078415
v -0.2999894 -0.3000441 3.246545
v 0.1301323 -0.3000441 3.494369
v 0.3000441 -0.3000441 3.246545
v -0.1301722 -0.3000441 3.494369
v 0.1301323 -0.3000441 4.23245
v 0.3000441 -0.3000441 4.446517
v -0.1301722 -0.3000441 4.23245
v -0.2999894 -0.3000441 4.446517
v 0.3000441 0.2999894 3.246545
v -0.1301722 0.2999894 3.494369
v -0.2999894 0.2999894 3.246545
v 0.1301323 0.2999894 3.494369
v -0.1301722 0.2999894 4.23245
v -0.2999894 0.2999894 4.446517
v 0.1301323 0.2999894 4.23245
v 0.3000441 0.2999894 4.446517
v 0.3000441 -0.3000441 3.246545
v 0.3000441 0.09480935 3.486521
v 0.3000441 0.2999894 3.246545
v 0.3000441 -0.09476948 3.486521
v 0.3000441 0.09480935 4.233773
v 0.3000441 0.2999894 4.446517
v 0.3000441 -0.09476948 4.233773
v 0.3000441 -0.3000441 4.446517
v -0.2999894 0.2999894 3.246545
v -0.2999894 -0.09476948 3.486521
v -0.2999894 -0.3000441 3.246545
v -0.2999894 0.09480935 3.486521
v -0.2999894 -0.09476948 4.233773
v -0.2999894 -0.3000441 4.446517
v -0.2999894 0.09480935 4.233773
v -0.2999894 0.2999894 4.446517
v 0.1301323 0.2999894 3.494369
v -0.1301722 0.2535638 3.494369
v -0.1301722 0.2999894 3.494369
v 0.1301323 0.2535638 3.494369
v -0.1301722 0.2999894 3.494369
v -0.1301722 0.2535638 4.23245
v -0.1301722 0.2999894 4.23245
v -0.1301722 0.2535638 3.494369
v -0.1301722 0.2999894 4.23245
v 0.1301323 0.2535638 4.23245
v 0.1301323 0.2999894 4.23245
v -0.1301722 0.2535638 4.23245
v 0.1301323 0.2999894 4.23245
v 0.1301323 0.2535638 3.494369
v 0.1301323 0.2999894 3.494369
v 0.1301323 0.2535638 4.23245
v 0.3000441 -0.09476948 3.486521
v 0.2354644 0.09480935 3.486521
v 0.3000441 0.09480935 3.486521
v 0.2354644 -0.09476948 3.486521
v 0.3000441 0.09480935 3.486521
v 0.2354644 0.09480935 4.233773
v 0.3000441 0.09480935 4.233773
v 0.2354644 0.09480935 3.486521
v 0.3000441 0.09480935 4.233773
v 0.2354644 -0.09476948 4.233773
v 0.3000441 -0.09476948 4.233773
v 0.2354644 0.09480935 4.233773
v 0.3000441 -0.09476948 4.233773
v 0.2354644 -0.09476948 3.486521
v 0.3000441 -0.09476948 3.486521
v 0.2354644 -0.09476948 4.233773
v -0.1301722 -0.3000441 3.494369
v 0.1301323 -0.2473781 3.494369
v 0.1301323 -0.3000441 3.494369
v -0.1301722 -0.2473781 3.494369
v 0.1301323 -0.3000441 3.494369
v 0.1301323 -0.2473781 4.23245
v 0.1301323 -0.3000441 4.23245
v 0.1301323 -0.2473781 3.494369
v 0.1301323 -0.3000441 4.23245
v -0.1301722 -0.2473781 4.23245
v -0.1301722 -0.3000441 4.23245
v 0.1301323 -0.2473781 4.23245
v -0.1301722 -0.3000441 4.23245
v -0.1301722 -0.2473781 3.494369
v -0.1301722 -0.3000441 3.494369
v -0.1301722 -0.2473781 4.23245
v -0.2999894 0.09480935 3.486521
v -0.2373952 -0.09476948 3.486521
v -0.2999894 -0.09476948 3.486521
v -0.2373952 0.09480935 3.486521
v -0.2999894 -0.09476948 3.486521
v -0.2373952 -0.09476948 4.233773
v -0.2999894 -0.09476948 4.233773
v -0.2373952 -0.09476948 3.486521
v -0.2999894 -0.09476948 4.233773
v -0.2373952 0.09480935 4.233773
v -0.2999894 0.09480935 4.233773
v -0.2373952 -0.09476948 4.233773
v -0.2999894 0.09480935 4.233773
v -0.2373952 0.09480935 3.486521
v -0.2999894 0.09480935 3.486521
v -0.2373952 0.09480935 4.233773
v 0.4884883 -0.000878334 2.858405
v 0.2445415 0.4215845 3.038434
v 0.2445415 0.4215845 2.858405
v 0.4884883 -0.000878334 3.038434
v -0.2432575 0.4215845 3.038434
v -0.2432575 0.4215845 2.858405
v 0.2445415 -0.4234358 2.858405
v 0.2445415 -0.4234358 3.038434
v -0.2432575 -0.4234358 2.858405
v -0.2432575 -0.4234358 3.038434
v -0.4872044 -0.000878334 2.858405
v -0.4872044 -0.000878334 3.038434
v -0.2432575 0.4215845 2.858405
v -0.2432575 0.4215845 3.038434
v 0.3816434 0.6590071 3.279922
v -0.7613136 -0.000878334 3.279922
v -0.3803595 0.6590071 3.279922
v 0.3816434 -0.6607639 3.279922
v -0.3803595 -0.6607639 3.279922
v 0.7625975 -0.000878334 3.279922
v 0.4884883 -0.000878334 3.038434
v 0.3033535 0.5235128 3.098191
v 0.2445415 0.4215845 3.038434
v 0.6061122 -0.000878334 3.098191
v 0.2445415 0.4215845 3.038434
v -0.3020695 0.5235128 3.098191
v -0.2432575 0.4215845 3.038434
v 0.3033535 0.5235128 3.098191
v -0.2432575 0.4215845 3.038434
v -0.6048283 -0.000878334 3.098191
v -0.4872044 -0.000878334 3.038434
v -0.3020695 0.5235128 3.098191
v -0.4872044 -0.000878334 3.038434
v -0.3020695 -0.5252694 3.098191
v -0.2432575 -0.4234358 3.038434
v -0.6048283 -0.000878334 3.098191
v -0.2432575 -0.4234358 3.038434
v 0.3033535 -0.5252694 3.098191
v 0.2445415 -0.4234358 3.038434
v -0.3020695 -0.5252694 3.098191
v 0.2445415 -0.4234358 3.038434
v 0.6061122 -0.000878334 3.098191
v 0.4884883 -0.000878334 3.038434
v 0.3033535 -0.5252694 3.098191
v 0.6061122 -0.000878334 3.098191
v 0.3816434 0.6590071 3.279922
v 0.3033535 0.5235128 3.098191
v 0.7625975 -0.000878334 3.279922
v 0.3033535 0.5235128 3.098191
v -0.3803595 0.6590071 3.279922
v -0.3020695 0.5235128 3.098191
v 0.3816434 0.6590071 3.279922
v -0.3020695 0.5235128 3.098191
v -0.7613136 -0.000878334 3.279922
v -0.6048283 -0.000878334 3.098191
v -0.3803595 0.6590071 3.279922
v -0.6048283 -0.000878334 3.098191
v -0.3803595 -0.6607639 3.279922
v -0.3020695 -0.5252694 3.098191
v -0.7613136 -0.000878334 3.279922
v -0.3020695 -0.5252694 3.098191
v 0.3816434 -0.6607639 3.279922
v 0.3033535 -0.5252694 3.098191
v -0.3803595 -0.6607639 3.279922
v 0.3033535 -0.5252694 3.098191
v 0.7625975 -0.000878334 3.279922
v 0.6061122 -0.000878334 3.098191
v 0.3816434 -0.6607639 3.279922
v 0.3336104 -0.000878334 0.6181603
v 0.1671026 0.2874139 2.980757
v 0.1671026 0.2874139 0.6181603
v 0.3336104 -0.000878334 2.980757
v -0.1658186 0.2874139 2.980757
v -0.1658186 0.2874139 0.6181603
v 0.1671026 -0.2892651 0.6181603
v 0.1671026 -0.2892651 2.980757
v -0.1658186 -0.2892651 0.6181603
v -0.1658186 -0.2892651 2.980757
v -0.3323265 -0.000878334 0.6181603
v -0.3323265 -0.000878334 2.980757
v -0.1658186 0.2874139 0.6181603
v -0.1658186 0.2874139 2.980757
v -0.4436154 -0.4070781 0.7460905
v 0.4436702 0.4070234 0.7460905
v 0.4436702 -0.4070781 0.7460905
v -0.4436154 0.4070234 0.7460905
v -0.585445 -0.5488131 0.06426871
v 0.5854051 -0.5488131 0.4525979
v 0.5854051 -0.5488131 0.06426871
v -0.585445 -0.5488131 0.4525979
v 0.5854051 -0.5488131 0.06426871
v 0.5854051 0.548853 0.4525979
v 0.5854051 0.548853 0.06426871
v 0.5854051 -0.5488131 0.4525979
v 0.5310372 -0.4944451 0.5813791
v 0.5310372 0.494485 0.5813791
v 0.5854051 0.548853 0.06426871
v -0.585445 0.548853 0.4525979
v -0.585445 0.548853 0.06426871
v 0.5854051 0.548853 0.4525979
v -0.585445 0.548853 0.06426871
v -0.585445 -0.5488131 0.4525979
v -0.585445 -0.5488131 0.06426871
v -0.585445 0.548853 0.4525979
v -0.531077 0.494485 0.5813791
v -0.531077 -0.4944451 0.5813791
v -0.531077 -0.4944451 0.5813791
v 0.4436702 -0.4070781 0.6478499
v 0.5310372 -0.4944451 0.5813791
v -0.4436154 -0.4070781 0.6478499
v 0.5310372 -0.4944451 0.5813791
v 0.4436702 0.4070234 0.6478499
v 0.5310372 0.494485 0.5813791
v 0.4436702 -0.4070781 0.6478499
v 0.5310372 0.494485 0.5813791
v -0.4436154 0.4070234 0.6478499
v -0.531077 0.494485 0.5813791
v 0.4436702 0.4070234 0.6478499
v -0.531077 0.494485 0.5813791
v -0.4436154 -0.4070781 0.6478499
v -0.531077 -0.4944451 0.5813791
v -0.4436154 0.4070234 0.6478499
v -0.531077 -0.4944451 0.5813791
v 0.5854051 -0.5488131 0.4525979
v -0.585445 -0.5488131 0.4525979
v 0.5310372 -0.4944451 0.5813791
v 0.5310372 0.494485 0.5813791
v -0.585445 0.548853 0.4525979
v 0.5854051 0.548853 0.4525979
v -0.531077 0.494485 0.5813791
v -0.4436154 -0.4070781 0.6478499
v 0.4436702 -0.4070781 0.7460905
v 0.4436702 -0.4070781 0.6478499
v -0.4436154 -0.4070781 0.7460905
v 0.4436702 -0.4070781 0.6478499
v 0.4436702 0.4070234 0.7460905
v 0.4436702 0.4070234 0.6478499
v 0.4436702 -0.4070781 0.7460905
v 0.4436702 0.4070234 0.6478499
v -0.4436154 0.4070234 0.7460905
v -0.4436154 0.4070234 0.6478499
v 0.4436702 0.4070234 0.7460905
v -0.4436154 0.4070234 0.6478499
v -0.4436154 -0.4070781 0.7460905
v -0.4436154 -0.4070781 0.6478499
v -0.4436154 0.4070234 0.7460905
vn 0.5999954 0.003921628 0.7999939
vn 0.5999954 0.003921628 0.7999939
vn 0.5999954 0.003921628 0.7999939
vn 0.5999954 0.003921628 0.7999939
vn -0.5999955 0.003921628 0.7999938
vn -0.5999955 0.003921628 0.7999938
vn -0.5999955 0.003921628 0.7999938
vn -0.5999955 0.003921628 0.7999938
vn -0.003921628 -0.5999954 0.7999939
vn -0.003921628 -0.5999954 0.7999939
vn -0.003921628 -0.5999954 0.7999939
vn -0.003921628 -0.5999954 0.7999939
vn -0.003921628 0.5999955 0.7999938
vn -0.003921628 0.5999955 0.7999938
vn -0.003921628 0.5999955 0.7999938
vn -0.003921628 0.5999955 0.7999938
vn -0.003921628 0.003921628 0.9999846
vn -0.003921628 0.003921628 0.9999846
vn -0.003921628 0.003921628 0.9999846
vn -0.003921628 0.003921628 0.9999846
vn -0.003921628 0.003921628 0.9999846
vn -0.003921628 0.003921628 0.9999846
vn -0.003921628 0.003921628 0.9999846
vn -0.003921628 0.003921628 0.9999846
vn -0.003921628 0.003921628 0.9999846
vn -0.003921628 0.003921628 0.9999846
vn -0.003921628 0.003921628 0.9999846
vn -0.003921628 0.003921628 0.9999846
vn -0.003921628 0.003921628 0.9999846
vn -0.003921628 0.003921628 0.9999846
vn -0.003921628 0.003921628 0.9999846
vn -0.003921628 0.003921628 0.9999846
vn 0.9999924 0.003921628 0
vn 0.9999924 0.003921628 0
vn 0.9999924 0.003921628 0
vn 0.9999924 0.003921628 0
vn -0.9999924 0.003921628 0
vn -0.9999924 0.003921628 0
vn -0.9999924 0.003921628 0
vn -0.9999924 0.003921628 0
vn -0.003921628 -0.9999924 0
vn -0.003921628 -0.9999924 0
vn -0.003921628 -0.9999924 0
vn -0.003921628 -0.9999924 0
vn -0.003921628 0.9999924 0
vn -0.003921628 0.9999924 0
vn -0.003921628 0.9999924 0
vn -0.003921628 0.9999924 0
vn -0.003921628 0.003921628 0.9999846
vn -0.003921628 0.003921628 0.9999846
vn -0.003921628 0.003921628 0.9999846
vn -0.003921628 0.003921628 0.9999846
vn 0.15294 0.07450926 0.9854226
vn 0.1215677 0.03529394 0.9919555
vn 0.05882305 0.0274508 0.9978909
vn 0.02745074 -0.05882305 0.9978909
vn -0.0274508 0.05882311 0.9978909
vn -0.05882311 -0.02745074 0.9978909
vn -0.1215677 -0.03529382 0.9919555
vn -0.15294 -0.0745092 0.9854226
vn 0.03529382 -0.1215677 0.9919555
vn 0.0745092 -0.15294 0.9854226
vn -0.03529394 0.1215677 0.9919555
vn -0.07450926 0.15294 0.9854226
vn -0.01960778 -0.9450908 -0.326219
vn -0.05098009 -0.9529339 -0.2988612
vn -0.01176465 -0.9450908 -0.3265959
vn 0.01176459 -0.9529339 -0.3029498
vn 0.01176459 -0.9529339 -0.3029498
vn 0.01960766 -0.9529339 -0.3025434
vn 0.9450908 -0.01960766 -0.326219
vn 0.9529339 -0.05097997 -0.2988612
vn 0.9450908 -0.01176459 -0.3265959
vn 0.9529339 0.01176465 -0.3029498
vn 0.9529339 0.01176465 -0.3029498
vn 0.9529339 0.01960778 -0.3025434
vn 0.01960766 0.9450909 -0.3262189
vn 0.05097997 0.9529339 -0.2988612
vn 0.01176459 0.9450909 -0.3265958
vn -0.01176465 0.9529339 -0.3029498
vn -0.01176465 0.9529339 -0.3029498
vn -0.01960778 0.9529339 -0.3025434
vn -0.9450909 0.01960778 -0.3262189
vn -0.9529339 0.05098009 -0.2988612
vn -0.9450909 0.01176465 -0.3265958
vn -0.9529339 -0.01176459 -0.3029498
vn -0.9529339 -0.01176459 -0.3029498
vn -0.9529339 -0.01960766 -0.3025434
vn -0.003921628 0.003921628 0.9999846
vn -0.7882293 0.4588201 0.4100958
vn -0.003921628 0.9137186 0.4063286
vn -0.003921628 0.9921494 -0.1249971
vn -0.858817 0.4980354 -0.1199755
vn -0.7882293 -0.45882 0.410096
vn -0.003921628 0.003921628 0.9999846
vn -0.858817 -0.4980354 -0.1199757
vn -0.003921628 -0.9137185 0.4063288
vn -0.003921628 0.003921628 0.9999846
vn -0.003921628 -0.9921493 -0.1249976
vn 0.7882293 -0.45882 0.4100961
vn -0.003921628 0.003921628 0.9999846
vn 0.858817 -0.4980354 -0.1199757
vn 0.7882293 0.4588201 0.410096
vn -0.003921628 0.003921628 0.9999846
vn 0.858817 0.4980354 -0.1199755
vn -0.003921628 0.9137186 0.4063286
vn -0.003921628 0.003921628 0.9999846
vn -0.003921628 0.9921494 -0.1249971
vn -0.7490139 0.4352908 -0.4994999
vn -0.003921628 0.8666601 -0.4988836
vn -0.003921628 0.003921628 -0.9999846
vn -0.003921628 -0.8666601 -0.4988837
vn -0.7490139 -0.4352908 -0.4994999
vn -0.003921628 0.003921628 -0.9999846
vn -0.003921628 0.003921628 -0.9999846
vn 0.7490139 0.4352908 -0.4994999
vn 0.7490139 -0.4352908 -0.4994999
vn -0.003921628 0.003921628 -0.9999846
vn -0.003921628 0.003921628 -0.9999846
vn -0.003921628 0.003921628 -0.9999846
vn -0.003921628 0.8666601 -0.4988836
vn -0.003921628 -0.9999924 0
vn -0.003921628 -0.9999924 0
vn -0.003921628 -0.9999924 0
vn -0.003921628 -0.9999924 0
vn -0.003921628 -0.9999924 0
vn -0.003921628 -0.9999924 0
vn -0.003921628 -0.9999924 0
vn -0.003921628 -0.9999924 0
vn -0.003921628 0.9999924 0
vn -0.003921628 0.9999924 0
vn -0.003921628 0.9999924 0
vn -0.003921628 0.9999924 0
vn -0.003921628 0.9999924 0
vn -0.003921628 0.9999924 0
vn -0.003921628 0.9999924 0
vn -0.003921628 0.9999924 0
vn 0.9999924 0.003921628 0
vn 0.9999924 0.003921628 0
vn 0.9999924 0.003921628 0
vn 0.9999924 0.003921628 0
vn 0.9999924 0.003921628 0
vn 0.9999924 0.003921628 0
vn 0.9999924 0.003921628 0
vn 0.9999924 0.003921628 0
vn -0.9999924 0.003921628 0
vn -0.9999924 0.003921628 0
vn -0.9999924 0.003921628 0
vn -0.9999924 0.003921628 0
vn -0.9999924 0.003921628 0
vn -0.9999924 0.003921628 0
vn -0.9999924 0.003921628 0
vn -0.9999924 0.003921628 0
vn -0.003921628 0.003921628 0.9999846
vn -0.003921628 0.003921628 0.9999846
vn -0.003921628 0.003921628 0.9999846
vn -0.003921628 0.003921628 0.9999846
vn 0.9999924 0.003921628 0
vn 0.9999924 0.003921628 0
vn 0.9999924 0.003921628 0
vn 0.9999924 0.003921628 0
vn -0.003921628 0.003921628 -0.9999846
vn -0.003921628 0.003921628 -0.9999846
vn -0.003921628 0.003921628 -0.9999846
vn -0.003921628 0.003921628 -0.9999846
vn -0.9999924 0.003921628 0
vn -0.9999924 0.003921628 0
vn -0.9999924 0.003921628 0
vn -0.9999924 0.003921628 0
vn -0.003921628 0.003921628 0.9999846
vn -0.003921628 0.003921628 0.9999846
vn -0.003921628 0.003921628 0.9999846
vn -0.003921628 0.003921628 0.9999846
vn -0.003921628 -0.9999924 0
vn -0.003921628 -0.9999924 0
vn -0.003921628 -0.9999924 0
vn -0.003921628 -0.9999924 0
vn -0.003921628 0.003921628 -0.9999846
vn -0.003921628 0.003921628 -0.9999846
vn -0.003921628 0.003921628 -0.9999846
vn -0.003921628 0.003921628 -0.9999846
vn -0.003921628 0.9999924 0
vn -0.003921628 0.9999924 0
vn -0.003921628 0.9999924 0
vn -0.003921628 0.9999924 0
vn -0.003921628 0.003921628 0.9999846
vn -0.003921628 0.003921628 0.9999846
vn -0.003921628 0.003921628 0.9999846
vn -0.003921628 0.003921628 0.9999846
vn -0.9999924 0.003921628 0
vn -0.9999924 0.003921628 0
vn -0.9999924 0.003921628 0
vn -0.9999924 0.003921628 0
vn -0.003921628 0.003921628 -0.9999846
vn -0.003921628 0.003921628 -0.9999846
vn -0.003921628 0.003921628 -0.9999846
vn -0.003921628 0.003921628 -0.9999846
vn 0.9999924 0.003921628 0
vn 0.9999924 0.003921628 0
vn 0.9999924 0.003921628 0
vn 0.9999924 0.003921628 0
vn -0.003921628 0.003921628 0.9999846
vn -0.003921628 0.003921628 0.9999846
vn -0.003921628 0.003921628 0.9999846
vn -0.003921628 0.003921628 0.9999846
vn -0.003921628 0.9999924 0
vn -0.003921628 0.9999924 0
vn -0.003921628 0.9999924 0
vn -0.003921628 0.9999924 0
vn -0.003921628 0.003921628 -0.9999846
vn -0.003921628 0.003921628 -0.9999846
vn -0.003921628 0.003921628 -0.9999846
vn -0.003921628 0.003921628 -0.9999846
vn -0.003921628 -0.9999924 0
vn -0.003921628 -0.9999924 0
vn -0.003921628 -0.9999924 0
vn -0.003921628 -0.9999924 0
vn 0.9999924 0.003921628 0
vn 0.4980354 0.8666601 -0.02934262
vn 0.4980354 0.8666601 -0.02934262
vn 0.9999924 0.003921628 0
vn -0.4980354 0.8666601 -0.0293416
vn -0.4980354 0.8666601 -0.0293416
vn 0.4980354 -0.8666601 -0.02934465
vn 0.4980354 -0.8666601 -0.02934465
vn -0.4980354 -0.8666601 -0.02934363
vn -0.4980354 -0.8666601 -0.02934363
vn -0.9999924 0.003921628 0
vn -0.9999924 0.003921628 0
vn -0.4980354 0.8666601 -0.0293416
vn -0.4980354 0.8666601 -0.0293416
vn -0.003921628 0.003921628 0.9999846
vn -0.003921628 0.003921628 0.9999846
vn -0.003921628 0.003921628 0.9999846
vn -0.003921628 0.003921628 0.9999846
vn -0.003921628 0.003921628 0.9999846
vn -0.003921628 0.003921628 0.9999846
vn 0.4352908 0.2549001 -0.8634511
vn 0.4352908 0.2549001 -0.8634511
vn 0.4352908 0.2549001 -0.8634511
vn 0.4352908 0.2549001 -0.8634511
vn -0.003921628 0.5058786 -0.8625958
vn -0.003921628 0.5058786 -0.8625958
vn -0.003921628 0.5058786 -0.8625958
vn -0.003921628 0.5058786 -0.8625958
vn -0.4352908 0.2549001 -0.8634511
vn -0.4352908 0.2549001 -0.8634511
vn -0.4352908 0.2549001 -0.8634511
vn -0.4352908 0.2549001 -0.8634511
vn -0.4352908 -0.2549 -0.8634511
vn -0.4352908 -0.2549 -0.8634511
vn -0.4352908 -0.2549 -0.8634511
vn -0.4352908 -0.2549 -0.8634511
vn -0.003921628 -0.5058784 -0.8625959
vn -0.003921628 -0.5058784 -0.8625959
vn -0.003921628 -0.5058784 -0.8625959
vn -0.003921628 -0.5058784 -0.8625959
vn 0.4352908 -0.2549 -0.8634512
vn 0.4352908 -0.2549 -0.8634512
vn 0.4352908 -0.2549 -0.8634512
vn 0.4352908 -0.2549 -0.8634512
vn 0.6941123 0.4039185 -0.5958674
vn 0.6941123 0.4039185 -0.5958674
vn 0.6941123 0.4039185 -0.5958674
vn 0.6941123 0.4039185 -0.5958674
vn -0.003921628 0.8039155 -0.5947306
vn -0.003921628 0.8039155 -0.5947306
vn -0.003921628 0.8039155 -0.5947306
vn -0.003921628 0.8039155 -0.5947306
vn -0.6941124 0.4039185 -0.5958672
vn -0.6941124 0.4039185 -0.5958672
vn -0.6941124 0.4039185 -0.5958672
vn -0.6941124 0.4039185 -0.5958672
vn -0.6941124 -0.4039184 -0.5958673
vn -0.6941124 -0.4039184 -0.5958673
vn -0.6941124 -0.4039184 -0.5958673
vn -0.6941124 -0.4039184 -0.5958673
vn -0.003921628 -0.8039154 -0.5947307
vn -0.003921628 -0.8039154 -0.5947307
vn -0.003921628 -0.8039154 -0.5947307
vn -0.003921628 -0.8039154 -0.5947307
vn 0.6941123 -0.4039184 -0.5958675
vn 0.6941123 -0.4039184 -0.5958675
vn 0.6941123 -0.4039184 -0.5958675
vn 0.6941123 -0.4039184 -0.5958675
vn 0.9999924 0.003921628 0
vn 0.4980354 0.8666601 -0.02934262
vn 0.4980354 0.8666601 -0.02934262
vn 0.9999924 0.003921628 0
vn -0.4980354 0.8666601 -0.0293416
vn -0.4980354 0.8666601 -0.0293416
vn 0.4980354 -0.8666601 -0.02934465
vn 0.4980354 -0.8666601 -0.02934465
vn -0.4980354 -0.8666601 -0.02934363
vn -0.4980354 -0.8666601 -0.02934363
vn -0.9999924 0.003921628 0
vn -0.9999924 0.003921628 0
vn -0.4980354 0.8666601 -0.0293416
vn -0.4980354 0.8666601 -0.0293416
vn -0.003921628 0.003921628 0.9999846
vn -0.003921628 0.003921628 0.9999846
vn -0.003921628 0.003921628 0.9999846
vn -0.003921628 0.003921628 0.9999846
vn -0.003921628 -0.9999924 0
vn -0.003921628 -0.9843062 0.1764254
vn -0.003921628 -0.9999924 0
vn -0.003921628 -0.9843062 0.1764254
vn 0.9999924 0.003921628 0
vn 0.9843062 0.003921628 0.1764253
vn 0.9999924 0.003921628 0
vn 0.9843062 0.003921628 0.1764253
vn 0.8431308 0.003921628 0.5376942
vn 0.8431308 0.003921628 0.5376942
vn -0.003921628 0.9999924 0
vn -0.003921628 0.9843062 0.1764254
vn -0.003921628 0.9999924 0
vn -0.003921628 0.9843062 0.1764254
vn -0.9999924 0.003921628 0
vn -0.9843062 0.003921628 0.1764253
vn -0.9999924 0.003921628 0
vn -0.9843062 0.003921628 0.1764253
vn -0.8431308 0.003921628 0.5376942
vn -0.8431308 0.003921628 0.5376942
vn -0.003921628 -0.8431308 0.5376942
vn -0.003921628 -0.6078385 0.794051
vn -0.003921628 -0.8431308 0.5376942
vn -0.003921628 -0.6078385 0.794051
vn 0.8431308 0.003921628 0.5376942
vn 0.6078385 0.003921628 0.794051
vn 0.8431308 0.003921628 0.5376942
vn 0.6078385 0.003921628 0.794051
vn -0.003921628 0.8431308 0.5376942
vn -0.003921628 0.6078385 0.794051
vn -0.003921628 0.8431308 0.5376942
vn -0.003921628 0.6078385 0.794051
vn -0.8431308 0.003921628 0.5376942
vn -0.6078385 0.003921628 0.794051
vn -0.8431308 0.003921628 0.5376942
vn -0.6078385 0.003921628 0.794051
vn -0.003921628 -0.8431308 0.5376942
vn -0.003921628 -0.9843062 0.1764254
vn -0.003921628 -0.9843062 0.1764254
vn -0.003921628 -0.8431308 0.5376942
vn -0.003921628 0.8431308 0.5376942
vn -0.003921628 0.9843062 0.1764254
vn -0.003921628 0.9843062 0.1764254
vn -0.003921628 0.8431308 0.5376942
vn -0.003921628 -0.9999924 0
vn -0.003921628 -0.9999924 0
vn -0.003921628 -0.9999924 0
vn -0.003921628 -0.9999924 0
vn 0.9999924 0.003921628 0
vn 0.9999924 0.003921628 0
vn 0.9999924 0.003921628 0
vn 0.9999924 0.003921628 0
vn -0.003921628 0.9999924 0
vn -0.003921628 0.9999924 0
vn -0.003921628 0.9999924 0
vn -0.003921628 0.9999924 0
vn -0.9999924 0.003921628 0
vn -0.9999924 0.003921628 0
vn -0.9999924 0.003921628 0
vn -0.9999924 0.003921628 0
g Box157_0
f 3/3/3 2/2/2 1/1/1
f 4/4/4 1/1/1 2/2/2
f 7/7/7 6/6/6 5/5/5
f 8/8/8 5/5/5 6/6/6
f 11/11/11 10/10/10 9/9/9
f 12/12/12 9/9/9 10/10/10
f 15/15/15 14/14/14 13/13/13
f 16/16/16 13/13/13 14/14/14
f 19/19/19 18/18/18 17/17/17
f 20/20/20 17/17/17 18/18/18
f 23/23/23 22/22/22 21/21/21
f 24/24/24 21/21/21 22/22/22
f 27/27/27 26/26/26 25/25/25
f 28/28/28 25/25/25 26/26/26
f 31/31/31 30/30/30 29/29/29
f 32/32/32 29/29/29 30/30/30
f 35/35/35 34/34/34 33/33/33
f 36/36/36 33/33/33 34/34/34
f 39/39/39 38/38/38 37/37/37
f 40/40/40 37/37/37 38/38/38
f 43/43/43 42/42/42 41/41/41
f 44/44/44 41/41/41 42/42/42
f 47/47/47 46/46/46 45/45/45
f 48/48/48 45/45/45 46/46/46
f 51/51/51 50/50/50 49/49/49
f 52/52/52 49/49/49 50/50/50
f 55/55/55 54/54/54 53/53/53
f 54/54/54 55/55/55 56/56/56
f 55/55/55 57/57/57 56/56/56
f 56/56/56 57/57/57 58/58/58
f 59/59/59 58/58/58 57/57/57
f 60/60/60 58/58/58 59/59/59
f 61/61/61 56/56/56 58/58/58
f 62/62/62 56/56/56 61/61/61
f 63/63/63 57/57/57 55/55/55
f 64/64/64 57/57/57 63/63/63
f 67/67/67 66/66/66 65/65/65
f 67/67/67 65/65/65 68/68/68
f 69/69/69 68/68/68 65/65/65
f 70/70/70 68/68/68 69/69/69
f 73/73/73 72/72/72 71/71/71
f 73/73/73 71/71/71 74/74/74
f 75/75/75 74/74/74 71/71/71
f 76/76/76 74/74/74 75/75/75
f 79/79/79 78/78/78 77/77/77
f 79/79/79 77/77/77 80/80/80
f 81/81/81 80/80/80 77/77/77
f 82/82/82 80/80/80 81/81/81
f 85/85/85 84/84/84 83/83/83
f 85/85/85 83/83/83 86/86/86
f 87/87/87 86/86/86 83/83/83
f 88/88/88 86/86/86 87/87/87
f 91/91/91 90/90/90 89/89/89
f 91/91/91 92/92/92 90/90/90
f 93/93/93 90/90/90 92/92/92
f 90/90/90 93/93/93 94/94/94
f 90/90/90 94/94/94 95/95/95
f 96/96/96 94/94/94 93/93/93
f 94/94/94 96/96/96 97/97/97
f 94/94/94 97/97/97 98/98/98
f 99/99/99 97/97/97 96/96/96
f 97/97/97 99/99/99 100/100/100
f 97/97/97 100/100/100 101/101/101
f 102/102/102 100/100/100 99/99/99
f 100/100/100 102/102/102 103/103/103
f 100/100/100 103/103/103 104/104/104
f 105/105/105 103/103/103 102/102/102
f 103/103/103 105/105/105 106/106/106
f 103/103/103 106/106/106 107/107/107
f 108/108/108 106/106/106 105/105/105
f 93/93/93 109/109/109 96/96/96
f 109/109/109 93/93/93 110/110/110
f 109/109/109 110/110/110 111/111/111
f 92/92/92 110/110/110 93/93/93
f 99/99/99 112/112/112 102/102/102
f 112/112/112 99/99/99 113/113/113
f 113/113/113 109/109/109 114/114/114
f 112/112/112 113/113/113 115/115/115
f 113/113/113 96/96/96 109/109/109
f 96/96/96 113/113/113 99/99/99
f 105/105/105 116/116/116 108/108/108
f 116/116/116 105/105/105 117/117/117
f 117/117/117 112/112/112 118/118/118
f 116/116/116 117/117/117 119/119/119
f 117/117/117 102/102/102 112/112/112
f 102/102/102 117/117/117 105/105/105
f 121/121/121 116/116/116 120/120/120
f 121/121/121 108/108/108 116/116/116
f 124/124/124 123/123/123 122/122/122
f 125/125/125 122/122/122 123/123/123
f 123/123/123 124/124/124 126/126/126
f 127/127/127 126/126/126 124/124/124
f 126/126/126 127/127/127 128/128/128
f 129/129/129 128/128/128 127/127/127
f 122/122/122 125/125/125 129/129/129
f 128/128/128 129/129/129 125/125/125
f 132/132/132 131/131/131 130/130/130
f 133/133/133 130/130/130 131/131/131
f 131/131/131 132/132/132 134/134/134
f 135/135/135 134/134/134 132/132/132
f 134/134/134 135/135/135 136/136/136
f 137/137/137 136/136/136 135/135/135
f 130/130/130 133/133/133 137/137/137
f 136/136/136 137/137/137 133/133/133
f 140/140/140 139/139/139 138/138/138
f 141/141/141 138/138/138 139/139/139
f 139/139/139 140/140/140 142/142/142
f 143/143/143 142/142/142 140/140/140
f 142/142/142 143/143/143 144/144/144
f 145/145/145 144/144/144 143/143/143
f 138/138/138 141/141/141 145/145/145
f 144/144/144 145/145/145 141/141/141
f 148/148/148 147/147/147 146/146/146
f 149/149/149 146/146/146 147/147/147
f 147/147/147 148/148/148 150/150/150
f 151/151/151 150/150/150 148/148/148
f 150/150/150 151/151/151 152/152/152
f 153/153/153 152/152/152 151/151/151
f 146/146/146 149/149/149 153/153/153
f 152/152/152 153/153/153 149/149/149
f 156/156/156 155/155/155 154/154/154
f 157/157/157 154/154/154 155/155/155
f 160/160/160 159/159/159 158/158/158
f 161/161/161 158/158/158 159/159/159
f 164/164/164 163/163/163 162/162/162
f 165/165/165 162/162/162 163/163/163
f 168/168/168 167/167/167 166/166/166
f 169/169/169 166/166/166 167/167/167
f 172/172/172 171/171/171 170/170/170
f 173/173/173 170/170/170 171/171/171
f 176/176/176 175/175/175 174/174/174
f 177/177/177 174/174/174 175/175/175
f 180/180/180 179/179/179 178/178/178
f 181/181/181 178/178/178 179/179/179
f 184/184/184 183/183/183 182/182/182
f 185/185/185 182/182/182 183/183/183
f 188/188/188 187/187/187 186/186/186
f 189/189/189 186/186/186 187/187/187
f 192/192/192 191/191/191 190/190/190
f 193/193/193 190/190/190 191/191/191
f 196/196/196 195/195/195 194/194/194
f 197/197/197 194/194/194 195/195/195
f 200/200/200 199/199/199 198/198/198
f 201/201/201 198/198/198 199/199/199
f 204/204/204 203/203/203 202/202/202
f 205/205/205 202/202/202 203/203/203
f 208/208/208 207/207/207 206/206/206
f 209/209/209 206/206/206 207/207/207
f 212/212/212 211/211/211 210/210/210
f 213/213/213 210/210/210 211/211/211
f 216/216/216 215/215/215 214/214/214
f 217/217/217 214/214/214 215/215/215
f 220/220/220 219/219/219 218/218/218
f 221/221/221 218/218/218 219/219/219
f 219/219/219 220/220/220 222/222/222
f 223/223/223 222/222/222 220/220/220
f 218/218/218 221/221/221 224/224/224
f 225/225/225 224/224/224 221/221/221
f 224/224/224 225/225/225 226/226/226
f 227/227/227 226/226/226 225/225/225
f 226/226/226 227/227/227 228/228/228
f 229/229/229 228/228/228 227/227/227
f 228/228/228 229/229/229 230/230/230
f 231/231/231 230/230/230 229/229/229
f 234/234/234 233/233/233 232/232/232
f 233/233/233 235/235/235 232/232/232
f 236/236/236 235/235/235 233/233/233
f 232/232/232 235/235/235 237/237/237
f 240/240/240 239/239/239 238/238/238
f 241/241/241 238/238/238 239/239/239
f 244/244/244 243/243/243 242/242/242
f 245/245/245 242/242/242 243/243/243
f 248/248/248 247/247/247 246/246/246
f 249/249/249 246/246/246 247/247/247
f 252/252/252 251/251/251 250/250/250
f 253/253/253 250/250/250 251/251/251
f 256/256/256 255/255/255 254/254/254
f 257/257/257 254/254/254 255/255/255
f 260/260/260 259/259/259 258/258/258
f 261/261/261 258/258/258 259/259/259
f 264/264/264 263/263/263 262/262/262
f 265/265/265 262/262/262 263/263/263
f 268/268/268 267/267/267 266/266/266
f 269/269/269 266/266/266 267/267/267
f 272/272/272 271/271/271 270/270/270
f 273/273/273 270/270/270 271/271/271
f 276/276/276 275/275/275 274/274/274
f 277/277/277 274/274/274 275/275/275
f 280/280/280 279/279/279 278/278/278
f 281/281/281 278/278/278 279/279/279
f 284/284/284 283/283/283 282/282/282
f 285/285/285 282/282/282 283/283/283
f 288/288/288 287/287/287 286/286/286
f 289/289/289 286/286/286 287/287/287
f 287/287/287 288/288/288 290/290/290
f 291/291/291 290/290/290 288/288/288
f 286/286/286 289/289/289 292/292/292
f 293/293/293 292/292/292 289/289/289
f 292/292/292 293/293/293 294/294/294
f 295/295/295 294/294/294 293/293/293
f 294/294/294 295/295/295 296/296/296
f 297/297/297 296/296/296 295/295/295
f 296/296/296 297/297/297 298/298/298
f 299/299/299 298/298/298 297/297/297
f 302/302/302 301/301/301 300/300/300
f 303/303/303 300/300/300 301/301/301
f 306/306/306 305/305/305 304/304/304
f 307/307/307 304/304/304 305/305/305
f 310/310/310 309/309/309 308/308/308
f 311/311/311 308/308/308 309/309/309
f 311/311/311 309/309/309 312/312/312
f 313/313/313 312/312/312 309/309/309
f 316/316/316 315/315/315 314/314/314
f 317/317/317 314/314/314 315/315/315
f 320/320/320 319/319/319 318/318/318
f 321/321/321 318/318/318 319/319/319
f 321/321/321 319/319/319 322/322/322
f 323/323/323 322/322/322 319/319/319
f 326/326/326 325/325/325 324/324/324
f 327/327/327 324/324/324 325/325/325
f 330/330/330 329/329/329 328/328/328
f 331/331/331 328/328/328 329/329/329
f 334/334/334 333/333/333 332/332/332
f 335/335/335 332/332/332 333/333/333
f 338/338/338 337/337/337 336/336/336
f 339/339/339 336/336/336 337/337/337
f 342/342/342 341/341/341 340/340/340
f 343/343/343 340/340/340 341/341/341
f 346/346/346 345/345/345 344/344/344
f 347/347/347 344/344/344 345/345/345
f 350/350/350 349/349/349 348/348/348
f 351/351/351 348/348/348 349/349/349
f 354/354/354 353/353/353 352/352/352
f 355/355/355 352/352/352 353/353/353
f 358/358/358 357/357/357 356/356/356
f 359/359/359 356/356/356 357/357/357
f 362/362/362 361/361/361 360/360/360
f 363/363/363 360/360/360 361/361/361
