g Box154
v -1.711567 3.257853 1.549771
v 1.711616 3.257853 -1.981028
v 1.711616 3.257853 1.549771
v -1.711567 3.257853 -1.981028
v -1.861048 0.6192658 1.699253
v 1.860974 3.108371 1.699253
v 1.860974 0.6192658 1.699253
v -1.861048 3.108371 1.699253
v 1.860974 0.6192658 1.699253
v 1.860974 3.108371 -2.130386
v 1.860974 0.6192658 -2.130386
v 1.860974 3.108371 1.699253
v 1.860974 0.6192658 -2.130386
v -1.861048 3.108371 -2.130386
v -1.861048 0.6192658 -2.130386
v 1.860974 3.108371 -2.130386
v -1.861048 0.6192658 -2.130386
v -1.861048 3.108371 1.699253
v -1.861048 0.6192658 1.699253
v -1.861048 3.108371 -2.130386
v -1.711567 3.257853 1.549771
v 1.860974 3.108371 1.699253
v -1.861048 3.108371 1.699253
v 1.711616 3.257853 1.549771
v 1.711616 3.257853 1.549771
v 1.860974 3.108371 -2.130386
v 1.860974 3.108371 1.699253
v 1.711616 3.257853 -1.981028
v 1.711616 3.257853 -1.981028
v -1.861048 3.108371 -2.130386
v 1.860974 3.108371 -2.130386
v -1.711567 3.257853 -1.981028
v -1.711567 3.257853 -1.981028
v -1.861048 3.108371 1.699253
v -1.861048 3.108371 -2.130386
v -1.711567 3.257853 1.549771
v -1.861048 0.6192658 1.699253
v -2.064338 0.6192658 -2.339587
v -1.861048 0.6192658 -2.130386
v -2.064338 0.6192658 1.908331
v -1.861048 0.6192658 -2.130386
v 2.064265 0.6192658 -2.339587
v 1.860974 0.6192658 -2.130386
v -2.064338 0.6192658 -2.339587
v 1.860974 0.6192658 -2.130386
v 2.064265 0.6192658 1.908331
v 1.860974 0.6192658 1.699253
v 2.064265 0.6192658 -2.339587
v 1.860974 0.6192658 1.699253
v -2.064338 0.6192658 1.908331
v -1.861048 0.6192658 1.699253
v 2.064265 0.6192658 1.908331
v -2.064338 0.6192658 1.908331
v -2.064338 0.03168154 -2.339587
v -2.064338 0.6192658 -2.339587
v -2.064338 0.03168154 1.908331
v -2.064338 0.6192658 -2.339587
v 2.064265 0.03168154 -2.339587
v 2.064265 0.6192658 -2.339587
v -2.064338 0.03168154 -2.339587
v 2.064265 0.6192658 -2.339587
v 2.064265 0.03168154 1.908331
v 2.064265 0.6192658 1.908331
v 2.064265 0.03168154 -2.339587
v 2.064265 0.6192658 1.908331
v -2.064338 0.03168154 1.908331
v -2.064338 0.6192658 1.908331
v 2.064265 0.03168154 1.908331
v -0.02109241 3.200474 0.8067954
v -0.6893275 3.473703 0.8848608
v -0.02109241 3.339489 0.9879217
v -0.6893275 3.33481 0.7038572
v 0.6471429 3.33481 0.7038572
v 0.6471429 3.473703 0.8848608
v 0.9759043 3.33481 0.7038572
v 0.9759043 3.473703 0.8848608
v -1.017966 3.473703 0.8848608
v -1.017966 3.33481 0.7038572
v 0.9759043 3.33481 0.7038572
v 1.272898 3.747917 0.8492756
v 1.307621 3.512859 0.4034159
v 0.9759043 3.473703 0.8848608
v -0.02109241 3.715287 0.522238
v 0.6471429 3.944312 0.5654571
v -0.02109241 3.821057 0.6600223
v 0.6471429 3.838542 0.4275498
v -0.6893275 3.838542 0.4275498
v -0.6893275 3.944312 0.5654571
v -1.29846 4.088868 0.587744
v -1.106621 4.291666 0.2988772
v -1.158828 4.28317 0.4385085
v -1.29846 3.9187 0.3661072
v -1.106621 4.186019 0.161093
v -1.315083 3.747917 0.8492756
v -1.349806 3.512859 0.4034159
v 0.7663343 3.614319 0.9517212
v 1.256275 4.088868 0.587744
v 1.272898 3.747917 0.8492756
v 0.6471429 3.924857 0.7135847
v 1.116644 4.28317 0.4385085
v 0.6471429 3.668128 0.9104719
v -0.02109241 3.801603 0.8081496
v -0.02109241 3.533914 1.013533
v -0.6893275 3.668128 0.9104719
v -0.6893275 3.924857 0.7135847
v -1.29846 4.088868 0.587744
v -1.158828 4.28317 0.4385085
v -0.8085191 3.614319 0.9517212
v -1.315083 3.747917 0.8492756
v -1.106621 4.186019 0.161093
v -0.6893275 3.944312 0.5654571
v -1.106621 4.291666 0.2988772
v -0.6893275 3.838542 0.4275498
v 1.064436 4.291666 0.2988772
v 0.6471429 3.838542 0.4275498
v 1.064436 4.186019 0.161093
v 0.6471429 3.944312 0.5654571
v 1.064436 4.186019 0.161093
v 1.116644 4.28317 0.4385085
v 1.064436 4.291666 0.2988772
v 1.256275 4.088868 0.587744
v 1.256275 3.9187 0.3661072
v 1.272898 3.747917 0.8492756
v 1.307621 3.512859 0.4034159
v 0.7663343 3.614319 0.9517212
v 0.6471429 3.473703 0.8848608
v 0.6471429 3.668128 0.9104719
v -0.6893275 3.473703 0.8848608
v -0.8085191 3.614319 0.9517212
v -0.6893275 3.668128 0.9104719
v -1.315083 3.747917 0.8492756
v -0.6893275 3.473703 0.8848608
v -1.017966 3.473703 0.8848608
v -0.8085191 3.614319 0.9517212
v 0.7663343 3.614319 0.9517212
v 0.9759043 3.473703 0.8848608
v 0.6471429 3.473703 0.8848608
v 1.272898 3.747917 0.8492756
v -0.02109241 3.339489 0.9879217
v -0.6893275 3.668128 0.9104719
v -0.02109241 3.533914 1.013533
v -0.6893275 3.473703 0.8848608
v 0.6471429 3.473703 0.8848608
v -0.02109241 3.533914 1.013533
v 0.6471429 3.668128 0.9104719
v -0.02109241 3.339489 0.9879217
v -1.017966 3.33481 0.7038572
v -1.315083 3.747917 0.8492756
v -1.017966 3.473703 0.8848608
v -1.349806 3.512859 0.4034159
v 1.116644 4.28317 0.4385085
v 0.6471429 3.944312 0.5654571
v 1.064436 4.291666 0.2988772
v 0.6471429 3.924857 0.7135847
v 0.6471429 3.924857 0.7135847
v -0.02109241 3.821057 0.6600223
v 0.6471429 3.944312 0.5654571
v -0.02109241 3.801603 0.8081496
v -0.02109241 3.801603 0.8081496
v -0.6893275 3.944312 0.5654571
v -0.02109241 3.821057 0.6600223
v -0.6893275 3.924857 0.7135847
v -0.6893275 3.924857 0.7135847
v -1.106621 4.291666 0.2988772
v -0.6893275 3.944312 0.5654571
v -1.158828 4.28317 0.4385085
v 1.007057 4.461342 -0.5025865
v 1.054093 4.895627 -0.5869316
v 0.9442595 4.743683 -0.719298
v 1.123909 4.581518 -0.345963
v 0.853142 5.171811 -0.798841
v 0.7636254 4.992039 -0.9097828
v 0.54519 5.376825 -0.9562032
v 0.4867024 5.176244 -1.051138
v 0.1674221 5.485796 -1.03981
v 0.1471055 5.27438 -1.126371
v -0.2344794 5.485796 -1.03981
v -0.2141626 5.27438 -1.126371
v 0.9442595 4.179001 -0.2859979
v 1.054093 4.267532 -0.1049943
v 0.7636254 3.930767 -0.09539032
v 0.853142 3.991348 0.106915
v 0.4867024 3.746439 0.04596496
v 0.54519 3.786334 0.2642772
v 0.1471055 3.648427 0.1211984
v 0.1674221 3.67724 0.3478837
v -0.2141626 3.648427 0.1211984
v -0.2344794 3.67724 0.3478837
v -0.5537598 3.746439 0.04596496
v -0.6122472 3.786334 0.2642772
v -0.8306828 3.930767 -0.09539032
v -0.9201994 3.991348 0.106915
v -1.011317 4.179001 -0.2859979
v -1.12115 4.267532 -0.1049943
v -1.074114 4.461342 -0.5025865
v -1.190966 4.581518 -0.345963
v -1.011317 4.743683 -0.719298
v -1.12115 4.895627 -0.5869316
v -0.8306828 4.992039 -0.9097828
v -0.9201994 5.171811 -0.798841
v -0.5537598 5.176244 -1.051138
v -0.6122472 5.376825 -0.9562032
v -0.2141626 5.27438 -1.126371
v -0.2344794 5.485796 -1.03981
v 1.123909 4.796629 -0.06559229
v 0.9442595 5.199269 -0.1255574
v 1.054093 5.110738 -0.306561
v 1.007057 4.916928 0.09103107
v 0.7636254 5.447502 -0.3161652
v 0.853142 5.386922 -0.5184704
v 0.4867024 5.63183 -0.4575202
v 0.54519 5.591936 -0.6758326
v 0.1471055 5.729843 -0.5327537
v 0.1674221 5.700907 -0.7594389
v -0.2141626 5.729843 -0.5327537
v -0.2344794 5.700907 -0.7594389
v 1.054093 4.482643 0.1753764
v 0.9442595 4.634464 0.3077428
v 0.853142 4.206459 0.3872857
v 0.7636254 4.386231 0.4982274
v 0.54519 4.001445 0.5446479
v 0.4867024 4.201903 0.6395824
v 0.1674221 3.89235 0.6282542
v 0.1471055 4.10389 0.7148159
v -0.2344794 3.89235 0.6282542
v -0.2141626 4.10389 0.7148159
v -0.6122472 4.001445 0.5446479
v -0.5537598 4.201903 0.6395824
v -0.9201994 4.206459 0.3872857
v -0.8306828 4.386231 0.4982274
v -1.12115 4.482643 0.1753764
v -1.011317 4.634464 0.3077428
v -1.190966 4.796629 -0.06559229
v -1.074114 4.916928 0.09103107
v -1.12115 5.110738 -0.306561
v -1.011317 5.199269 -0.1255574
v -0.9201994 5.386922 -0.5184704
v -0.8306828 5.447502 -0.3161652
v -0.6122472 5.591936 -0.6758326
v -0.5537598 5.63183 -0.4575202
v -0.2344794 5.700907 -0.7594389
v -0.2141626 5.729843 -0.5327537
v 0.7636254 3.930767 -0.09539032
v 0.1471055 3.648427 0.1211984
v 0.4867024 3.746439 0.04596496
v 1.007057 4.461342 -0.5025865
v 0.7636254 4.992039 -0.9097828
v -1.011317 4.179001 -0.2859979
v -0.5537598 3.746439 0.04596496
v -0.2141626 3.648427 0.1211984
v -0.8306828 3.930767 -0.09539032
v -0.5537598 5.176244 -1.051138
v -1.011317 4.743683 -0.719298
v -1.074114 4.461342 -0.5025865
v -0.8306828 4.992039 -0.9097828
v 0.1471055 5.27438 -1.126371
v -0.2141626 5.27438 -1.126371
v 0.4867024 5.176244 -1.051138
v 0.9442595 4.743683 -0.719298
v 0.9442595 4.179001 -0.2859979
v 0.5225337 5.077492 -0.0322237
v 0.2623565 5.323509 -0.2209845
v 0.4198419 5.218601 -0.1405795
v 0.5225337 4.756242 0.2142859
v 0.2623565 4.510224 0.4030466
v -0.4868991 5.218601 -0.1405795
v -0.1362205 5.379165 -0.263711
v 0.06928635 5.379165 -0.263711
v -0.3294139 5.323509 -0.2209845
v -0.4868991 4.615133 0.3226416
v -0.6252992 4.916928 0.09103107
v -0.589591 5.077492 -0.0322237
v -0.589591 4.756242 0.2142859
v -0.1363435 4.45457 0.4457734
v -0.3294139 4.510224 0.4030466
v 0.06928635 4.45457 0.4457734
v 0.4198419 4.615133 0.3226416
v 0.558242 4.916928 0.09103107
v 1.054093 4.895627 -0.5869316
v 1.123909 4.796629 -0.06559229
v 1.054093 5.110738 -0.306561
v 1.123909 4.581518 -0.345963
v 0.853142 5.171811 -0.798841
v 0.853142 5.386922 -0.5184704
v 0.54519 5.376825 -0.9562032
v 0.54519 5.591936 -0.6758326
v 0.1674221 5.485796 -1.03981
v 0.1674221 5.700907 -0.7594389
v -0.2344794 5.485796 -1.03981
v -0.2344794 5.700907 -0.7594389
v 1.054093 4.482643 0.1753764
v 1.054093 4.267532 -0.1049943
v 0.853142 4.206459 0.3872857
v 0.853142 3.991348 0.106915
v 0.54519 4.001445 0.5446479
v 0.54519 3.786334 0.2642772
v 0.1674221 3.89235 0.6282542
v 0.1674221 3.67724 0.3478837
v -0.2344794 3.89235 0.6282542
v -0.2344794 3.67724 0.3478837
v -0.6122472 4.001445 0.5446479
v -0.6122472 3.786334 0.2642772
v -0.9201994 4.206459 0.3872857
v -0.9201994 3.991348 0.106915
v -1.12115 4.482643 0.1753764
v -1.12115 4.267532 -0.1049943
v -1.190966 4.796629 -0.06559229
v -1.190966 4.581518 -0.345963
v -1.12115 5.110738 -0.306561
v -1.12115 4.895627 -0.5869316
v -0.9201994 5.386922 -0.5184704
v -0.9201994 5.171811 -0.798841
v -0.6122472 5.591936 -0.6758326
v -0.6122472 5.376825 -0.9562032
v -0.2344794 5.700907 -0.7594389
v -0.2344794 5.485796 -1.03981
v 0.9442595 5.199269 -0.1255574
v 0.7984717 4.916928 0.09103107
v 0.748234 5.142629 -0.08221507
v 1.007057 4.916928 0.09103107
v 0.7636254 5.447502 -0.3161652
v 0.6038007 5.341117 -0.2345288
v 0.4867024 5.63183 -0.4575202
v 0.38241 5.488505 -0.3475637
v 0.1471055 5.729843 -0.5327537
v 0.1109049 5.566817 -0.407775
v -0.2141626 5.729843 -0.5327537
v -0.1779621 5.566817 -0.407775
v -0.5537598 5.63183 -0.4575202
v -0.4494672 5.488505 -0.3475637
v -0.8306828 5.447502 -0.3161652
v -0.6708579 5.341117 -0.2345288
v -1.011317 5.199269 -0.1255574
v -0.8152912 5.142629 -0.08221507
v -1.074114 4.916928 0.09103107
v -0.8655288 4.916928 0.09103107
v -1.011317 4.634464 0.3077428
v -0.8152912 4.691105 0.2642772
v -0.8306828 4.386231 0.4982274
v -0.6708579 4.492617 0.4165912
v -0.5537598 4.201903 0.6395824
v -0.4494672 4.345228 0.5296259
v -0.2141626 4.10389 0.7148159
v -0.1779621 4.266917 0.5898373
v 0.1471055 4.10389 0.7148159
v 0.1109049 4.266917 0.5898373
v 0.4867024 4.201903 0.6395824
v 0.38241 4.345228 0.5296259
v 0.7636254 4.386231 0.4982274
v 0.6038007 4.492617 0.4165912
v 0.9442595 4.634464 0.3077428
v 0.748234 4.691105 0.2642772
v 0.558242 4.916928 0.09103107
v 0.6354455 5.066656 -0.1137369
v 0.6782953 4.873463 0.03439069
v 0.5225337 5.077492 -0.0322237
v 0.4198419 5.218601 -0.1405795
v 0.6354455 5.066656 -0.1137369
v 0.5225337 5.077492 -0.0322237
v 0.5118213 5.236455 -0.2441332
v 0.2623565 5.323509 -0.2209845
v 0.5118213 5.236455 -0.2441332
v 0.4198419 5.218601 -0.1405795
v 0.5118213 5.236455 -0.2441332
v 0.2623565 5.323509 -0.2209845
v 0.3224449 5.362541 -0.3407915
v 0.06928635 5.379165 -0.263711
v 0.3224449 5.362541 -0.3407915
v 0.2623565 5.323509 -0.2209845
v 0.3224449 5.362541 -0.3407915
v 0.06928635 5.379165 -0.263711
v 0.09009552 5.429648 -0.3922606
v -0.1362205 5.379165 -0.263711
v 0.09009552 5.429648 -0.3922606
v 0.06928635 5.379165 -0.263711
v -0.1571527 5.429648 -0.3922606
v -0.3294139 5.323509 -0.2209845
v -0.1571527 5.429648 -0.3922606
v -0.1362205 5.379165 -0.263711
v -0.389502 5.362541 -0.3407915
v -0.4868991 5.218601 -0.1405795
v -0.389502 5.362541 -0.3407915
v -0.3294139 5.323509 -0.2209845
v -0.5788784 5.236455 -0.2441332
v -0.589591 5.077492 -0.0322237
v -0.5788784 5.236455 -0.2441332
v -0.4868991 5.218601 -0.1405795
v -0.7025027 5.066656 -0.1137369
v -0.6252992 4.916928 0.09103107
v -0.7025027 5.066656 -0.1137369
v -0.589591 5.077492 -0.0322237
v -0.7453525 4.873463 0.03439069
v -0.589591 4.756242 0.2142859
v -0.7453525 4.873463 0.03439069
v -0.6252992 4.916928 0.09103107
v -0.7025027 4.680269 0.182641
v -0.4868991 4.615133 0.3226416
v -0.7025027 4.680269 0.182641
v -0.589591 4.756242 0.2142859
v -0.5788784 4.51047 0.3130374
v -0.3294139 4.510224 0.4030466
v -0.5788784 4.51047 0.3130374
v -0.4868991 4.615133 0.3226416
v -0.389502 4.384384 0.4096956
v -0.1363435 4.45457 0.4457734
v -0.389502 4.384384 0.4096956
v -0.3294139 4.510224 0.4030466
v -0.1571527 4.317277 0.4611647
v 0.06928635 4.45457 0.4457734
v -0.1571527 4.317277 0.4611647
v -0.1363435 4.45457 0.4457734
v 0.09009552 4.317277 0.4611647
v 0.2623565 4.510224 0.4030466
v 0.09009552 4.317277 0.4611647
v 0.06928635 4.45457 0.4457734
v 0.09009552 4.317277 0.4611647
v 0.2623565 4.510224 0.4030466
v 0.3224449 4.384384 0.4096956
v 0.4198419 4.615133 0.3226416
v 0.3224449 4.384384 0.4096956
v 0.2623565 4.510224 0.4030466
v 0.3224449 4.384384 0.4096956
v 0.4198419 4.615133 0.3226416
v 0.5118213 4.51047 0.3130374
v 0.5225337 4.756242 0.2142859
v 0.5118213 4.51047 0.3130374
v 0.4198419 4.615133 0.3226416
v 0.6354455 4.680269 0.182641
v 0.558242 4.916928 0.09103107
v 0.6354455 4.680269 0.182641
v 0.5225337 4.756242 0.2142859
v 0.6782953 4.873463 0.03439069
v 0.6782953 4.873463 0.03439069
v 0.748234 5.142629 -0.08221507
v 0.7984717 4.916928 0.09103107
v 0.6354455 5.066656 -0.1137369
v 0.6354455 5.066656 -0.1137369
v 0.6038007 5.341117 -0.2345288
v 0.748234 5.142629 -0.08221507
v 0.5118213 5.236455 -0.2441332
v 0.5118213 5.236455 -0.2441332
v 0.38241 5.488505 -0.3475637
v 0.6038007 5.341117 -0.2345288
v 0.3224449 5.362541 -0.3407915
v 0.3224449 5.362541 -0.3407915
v 0.1109049 5.566817 -0.407775
v 0.38241 5.488505 -0.3475637
v 0.09009552 5.429648 -0.3922606
v 0.09009552 5.429648 -0.3922606
v -0.1779621 5.566817 -0.407775
v 0.1109049 5.566817 -0.407775
v -0.1571527 5.429648 -0.3922606
v -0.1571527 5.429648 -0.3922606
v -0.4494672 5.488505 -0.3475637
v -0.1779621 5.566817 -0.407775
v -0.389502 5.362541 -0.3407915
v -0.389502 5.362541 -0.3407915
v -0.6708579 5.341117 -0.2345288
v -0.4494672 5.488505 -0.3475637
v -0.5788784 5.236455 -0.2441332
v -0.5788784 5.236455 -0.2441332
v -0.8152912 5.142629 -0.08221507
v -0.6708579 5.341117 -0.2345288
v -0.7025027 5.066656 -0.1137369
v -0.7025027 5.066656 -0.1137369
v -0.8655288 4.916928 0.09103107
v -0.8152912 5.142629 -0.08221507
v -0.7453525 4.873463 0.03439069
v -0.7453525 4.873463 0.03439069
v -0.8152912 4.691105 0.2642772
v -0.8655288 4.916928 0.09103107
v -0.7025027 4.680269 0.182641
v -0.7025027 4.680269 0.182641
v -0.6708579 4.492617 0.4165912
v -0.8152912 4.691105 0.2642772
v -0.5788784 4.51047 0.3130374
v -0.5788784 4.51047 0.3130374
v -0.4494672 4.345228 0.5296259
v -0.6708579 4.492617 0.4165912
v -0.389502 4.384384 0.4096956
v -0.389502 4.384384 0.4096956
v -0.1779621 4.266917 0.5898373
v -0.4494672 4.345228 0.5296259
v -0.1571527 4.317277 0.4611647
v -0.1571527 4.317277 0.4611647
v 0.1109049 4.266917 0.5898373
v -0.1779621 4.266917 0.5898373
v 0.09009552 4.317277 0.4611647
v 0.09009552 4.317277 0.4611647
v 0.38241 4.345228 0.5296259
v 0.1109049 4.266917 0.5898373
v 0.3224449 4.384384 0.4096956
v 0.3224449 4.384384 0.4096956
v 0.6038007 4.492617 0.4165912
v 0.38241 4.345228 0.5296259
v 0.5118213 4.51047 0.3130374
v 0.5118213 4.51047 0.3130374
v 0.748234 4.691105 0.2642772
v 0.6038007 4.492617 0.4165912
v 0.6354455 4.680269 0.182641
v 0.6354455 4.680269 0.182641
v 0.7984717 4.916928 0.09103107
v 0.748234 4.691105 0.2642772
v 0.6782953 4.873463 0.03439069
v -0.04153228 5.615208 0.9518442
v -0.08635211 3.863292 -1.351579
v -0.05286026 3.962412 -1.427674
v -0.05544615 5.573958 0.983489
v -0.003484488 5.58504 0.974993
v -0.05286026 3.962412 -1.427674
v 0.03862643 3.889888 -1.372019
v -0.04153228 5.615208 0.9518442
v -0.05544615 5.573958 0.983489
v 0.03862643 3.889888 -1.372019
v -0.08635211 3.863292 -1.351579
v -0.003484488 5.58504 0.974993
v -0.003484488 5.58504 0.974993
v -0.05544615 5.573958 0.983489
v -0.04153228 5.615208 0.9518442
v -1.29846 3.9187 0.3661072
v -0.6893275 3.838542 0.4275498
v -1.106621 4.186019 0.161093
v -0.02109241 3.715287 0.522238
v 1.256275 3.9187 0.3661072
v 0.6471429 3.838542 0.4275498
v 1.064436 4.186019 0.161093
v 1.256275 3.9187 0.3661072
v 0.9759043 3.33481 0.7038572
v 1.307621 3.512859 0.4034159
v 1.256275 3.9187 0.3661072
v 0.6471429 3.33481 0.7038572
v 0.9759043 3.33481 0.7038572
v -0.02109241 3.715287 0.522238
v 0.6471429 3.33481 0.7038572
v 1.256275 3.9187 0.3661072
v -1.29846 3.9187 0.3661072
v 0.6471429 3.33481 0.7038572
v -0.02109241 3.715287 0.522238
v 0.6471429 3.33481 0.7038572
v -0.6893275 3.33481 0.7038572
v -0.02109241 3.200474 0.8067954
v -1.29846 3.9187 0.3661072
v -0.6893275 3.33481 0.7038572
v 0.6471429 3.33481 0.7038572
v -1.017966 3.33481 0.7038572
v -1.29846 3.9187 0.3661072
v -1.349806 3.512859 0.4034159
v -1.017966 3.33481 0.7038572
vt 0.04034179 0.03877139
vt 0.9600791 0.961126
vt 0.9600791 0.03877139
vt 0.04034179 0.961126
vt 3.457069E-05 3.457069E-05
vt 0.9998628 0.8124605
vt 0.9998628 3.457069E-05
vt 3.457069E-05 0.8124605
vt 3.457069E-05 3.457069E-05
vt 0.9998628 0.8124605
vt 0.9998628 3.457069E-05
vt 3.457069E-05 0.8124605
vt 3.457069E-05 3.457069E-05
vt 0.9998628 0.8124605
vt 0.9998628 3.457069E-05
vt 3.457069E-05 0.8124605
vt 3.457069E-05 3.457069E-05
vt 0.9998628 0.8124605
vt 0.9998628 3.457069E-05
vt 3.457069E-05 0.8124605
vt 0.04034179 0.9852057
vt 0.9998628 0.8124605
vt 3.457069E-05 0.8124605
vt 0.9600791 0.9852057
vt 0.03877139 0.9841588
vt 0.9998628 0.8124605
vt 3.457069E-05 0.8124605
vt 0.961126 0.9841588
vt 0.04034179 0.9852057
vt 0.9998628 0.8124605
vt 3.457069E-05 0.8124605
vt 0.9600791 0.9852057
vt 0.03877139 0.9841588
vt 0.9998628 0.8124605
vt 3.457069E-05 0.8124605
vt 0.961126 0.9841588
vt 0.9998628 3.457069E-05
vt 3.457069E-05 3.457069E-05
vt 3.457069E-05 3.457069E-05
vt 0.9998628 3.457069E-05
vt 0.9998628 3.457069E-05
vt 3.457069E-05 3.457069E-05
vt 3.457069E-05 3.457069E-05
vt 0.9998628 3.457069E-05
vt 0.9998628 3.457069E-05
vt 3.457069E-05 3.457069E-05
vt 3.457069E-05 3.457069E-05
vt 0.9998628 3.457069E-05
vt 0.9998628 3.457069E-05
vt 3.457069E-05 3.457069E-05
vt 3.457069E-05 3.457069E-05
vt 0.9998628 3.457069E-05
vt 0.9998628 3.457069E-05
vt 3.457069E-05 3.457069E-05
vt 3.457069E-05 3.457069E-05
vt 0.9998628 3.457069E-05
vt 0.9998628 3.457069E-05
vt 3.457069E-05 3.457069E-05
vt 3.457069E-05 3.457069E-05
vt 0.9998628 3.457069E-05
vt 0.9998628 3.457069E-05
vt 3.457069E-05 3.457069E-05
vt 3.457069E-05 3.457069E-05
vt 0.9998628 3.457069E-05
vt 0.9998628 3.457069E-05
vt 3.457069E-05 3.457069E-05
vt 3.457069E-05 3.457069E-05
vt 0.9998628 3.457069E-05
vt 0.4999487 0.4250924
vt 0.2502534 0.7826228
vt 0.4999487 0.7826228
vt 0.2502534 0.4250924
vt 0.7501675 0.4250924
vt 0.7501675 0.7826228
vt 0.9998628 0.4250924
vt 0.9998628 0.7826228
vt 3.457069E-05 0.7826228
vt 3.457069E-05 0.4250924
vt 3.457069E-05 0.4250924
vt 0.1178154 0.9998628
vt 0.1968594 3.457069E-05
vt 3.457069E-05 0.7826228
vt 0.4999487 3.457069E-05
vt 0.2502534 0.6219173
vt 0.4999487 0.6219173
vt 0.2502534 3.457069E-05
vt 0.7501675 3.457069E-05
vt 0.7501675 0.6219173
vt 0.4999487 0.9998628
vt 3.457069E-05 0.6219173
vt 0.1361368 0.9998628
vt 0.4999487 3.457069E-05
vt 3.457069E-05 3.457069E-05
vt 0.882082 0.9998628
vt 0.8030379 3.457069E-05
vt 0.7831462 0.06599182
vt 0.9998628 0.4999487
vt 0.9998628 0.1178154
vt 0.7501675 0.8140309
vt 0.9998628 0.8637607
vt 0.7501675 0.2439718
vt 0.4999487 0.8417749
vt 0.4999487 0.3361025
vt 0.2502534 0.6219173
vt 0.2502534 0.9072086
vt 3.457069E-05 0.4999487
vt 3.457069E-05 0.8637607
vt 0.2172748 0.4999487
vt 3.457069E-05 0.1178154
vt 0.9998628 3.457069E-05
vt 0.7501675 0.6219173
vt 0.9998628 0.6219173
vt 0.7501675 3.457069E-05
vt 3.457069E-05 0.6219173
vt 0.2502534 3.457069E-05
vt 3.457069E-05 3.457069E-05
vt 0.2502534 0.6219173
vt 0.9998628 3.457069E-05
vt 0.8637607 0.9998628
vt 0.9998628 0.6219173
vt 0.4999487 0.9998628
vt 0.4999487 3.457069E-05
vt 0.1178154 0.9998628
vt 0.1968594 3.457069E-05
vt 0.7831462 0.06599182
vt 0.6486143 0.1638808
vt 0.7501675 0.2439718
vt 0.3512833 0.5549131
vt 0.2172748 0.4999487
vt 0.2502534 0.6219173
vt -0.02090424 0.8375871
vt 0.2502534 0.7826228
vt 3.457069E-05 0.7826228
vt 0.2052349 0.9093025
vt 0.7946624 0.9093025
vt 0.9998628 0.7826228
vt 0.7501675 0.7826228
vt 1.020802 0.8375871
vt 0.5078008 0.1575992
vt 0.2502534 0.6219173
vt 0.4999487 0.3361025
vt 0.2596759 0.5418263
vt 0.7402216 0.1502705
vt 0.4999487 0.3361025
vt 0.7501675 0.2439718
vt 0.4920966 0.1575992
vt 0.9998628 0.4250924
vt 0.882082 0.9998628
vt 0.9998628 0.7826228
vt 0.8030379 3.457069E-05
vt 0.01259786 0.7800054
vt 0.2502534 0.6219173
vt 3.457069E-05 0.6219173
vt 0.2816616 0.795186
vt 0.2586289 0.7988502
vt 0.4999487 0.6219173
vt 0.2502534 0.6219173
vt 0.5088477 0.8061789
vt 0.4910497 0.8061789
vt 0.7501675 0.6219173
vt 0.4999487 0.6219173
vt 0.7412686 0.7988502
vt 0.7182358 0.795186
vt 0.9998628 0.6219173
vt 0.7501675 0.6219173
vt 0.9872995 0.7800054
vt 0.7501675 3.457069E-05
vt 0.8056554 0.2638636
vt 0.8056554 3.457069E-05
vt 0.7501675 0.2638636
vt 0.8611432 0.2638636
vt 0.8611432 3.457069E-05
vt 0.9166312 0.2638636
vt 0.9166312 3.457069E-05
vt 0.9721189 0.2638636
vt 0.9721189 3.457069E-05
vt 1.027607 0.2638636
vt 1.027607 3.457069E-05
vt 0.6946797 3.457069E-05
vt 0.6946797 0.2638636
vt 0.6386684 3.457069E-05
vt 0.6386684 0.2638636
vt 0.5831805 3.457069E-05
vt 0.5831805 0.2638636
vt 0.5276927 3.457069E-05
vt 0.5276927 0.2638636
vt 0.4722047 3.457069E-05
vt 0.4722047 0.2638636
vt 0.4167169 3.457069E-05
vt 0.4167169 0.2638636
vt 0.3612291 3.457069E-05
vt 0.3612291 0.2638636
vt 0.3057413 3.457069E-05
vt 0.3057413 0.2638636
vt 0.2502534 3.457069E-05
vt 0.2502534 0.2638636
vt 0.1942421 3.457069E-05
vt 0.1942421 0.2638636
vt 0.1387542 3.457069E-05
vt 0.1387542 0.2638636
vt 0.08326638 3.457069E-05
vt 0.08326638 0.2638636
vt 0.02777851 3.457069E-05
vt 0.02777851 0.2638636
vt 0.7501675 0.7360337
vt 0.8056554 0.9998628
vt 0.8056554 0.7360337
vt 0.7501675 0.9998628
vt 0.8611432 0.9998628
vt 0.8611432 0.7360337
vt 0.9166312 0.9998628
vt 0.9166312 0.7360337
vt 0.9721189 0.9998628
vt 0.9721189 0.7360337
vt 1.027607 0.9998628
vt 1.027607 0.7360337
vt 0.6946797 0.7360337
vt 0.6946797 0.9998628
vt 0.6386684 0.7360337
vt 0.6386684 0.9998628
vt 0.5831805 0.7360337
vt 0.5831805 0.9998628
vt 0.5276927 0.7360337
vt 0.5276927 0.9998628
vt 0.4722047 0.7360337
vt 0.4722047 0.9998628
vt 0.4167169 0.7360337
vt 0.4167169 0.9998628
vt 0.3612291 0.7360337
vt 0.3612291 0.9998628
vt 0.3057413 0.7360337
vt 0.3057413 0.9998628
vt 0.2502534 0.7360337
vt 0.2502534 0.9998628
vt 0.1942421 0.7360337
vt 0.1942421 0.9998628
vt 0.1387542 0.7360337
vt 0.1387542 0.9998628
vt 0.08326638 0.7360337
vt 0.08326638 0.9998628
vt 0.02777851 0.7360337
vt 0.02777851 0.9998628
vt 0.8213596 0.8831291
vt 0.9925343 0.5868449
vt 0.9328586 0.7501675
vt 0.4999487 0.9998628
vt 0.178538 0.8831291
vt 0.6711236 0.03039587
vt 0.9328586 0.2502534
vt 0.9925343 0.4130526
vt 0.8213596 0.1167684
vt 0.06703877 0.2502534
vt 0.3287739 0.03039587
vt 0.4999487 3.457069E-05
vt 0.178538 0.1167684
vt 0.007363141 0.5868449
vt 0.007363141 0.4130526
vt 0.06703877 0.7501675
vt 0.3287739 0.970025
vt 0.6711236 0.970025
vt 0.3580882 0.8904576
vt 0.132996 0.7020082
vt 0.2329789 0.8182186
vt 0.5763753 0.8904576
vt 0.8553851 0.7334165
vt 0.1900542 0.1816787
vt 0.09059495 0.4277099
vt 0.09059495 0.5721876
vt 0.1398011 0.292131
vt 0.7669186 0.1816787
vt 0.4999487 0.08431333
vt 0.3580882 0.1094399
vt 0.6423326 0.1094399
vt 0.9093025 0.4277099
vt 0.8600963 0.292131
vt 0.9093025 0.5721876
vt 0.7669186 0.8182186
vt 0.4999487 0.9155841
vt 0.8056554 0.2638636
vt 0.7501675 0.7360337
vt 0.8056554 0.7360337
vt 0.7501675 0.2638636
vt 0.8611432 0.2638636
vt 0.8611432 0.7360337
vt 0.9166312 0.2638636
vt 0.9166312 0.7360337
vt 0.9721189 0.2638636
vt 0.9721189 0.7360337
vt 1.027607 0.2638636
vt 1.027607 0.7360337
vt 0.6946797 0.7360337
vt 0.6946797 0.2638636
vt 0.6386684 0.7360337
vt 0.6386684 0.2638636
vt 0.5831805 0.7360337
vt 0.5831805 0.2638636
vt 0.5276927 0.7360337
vt 0.5276927 0.2638636
vt 0.4722047 0.7360337
vt 0.4722047 0.2638636
vt 0.4167169 0.7360337
vt 0.4167169 0.2638636
vt 0.3612291 0.7360337
vt 0.3612291 0.2638636
vt 0.3057413 0.7360337
vt 0.3057413 0.2638636
vt 0.2502534 0.7360337
vt 0.2502534 0.2638636
vt 0.1942421 0.7360337
vt 0.1942421 0.2638636
vt 0.1387542 0.7360337
vt 0.1387542 0.2638636
vt 0.08326638 0.7360337
vt 0.08326638 0.2638636
vt 0.02777851 0.7360337
vt 0.02777851 0.2638636
vt 0.3287739 0.970025
vt 0.4999487 0.9998628
vt 0.3287739 0.970025
vt 0.4999487 0.9998628
vt 0.178538 0.8831291
vt 0.178538 0.8831291
vt 0.06703877 0.7501675
vt 0.06703877 0.7501675
vt 0.007363141 0.5868449
vt 0.007363141 0.5868449
vt 0.007363141 0.4130526
vt 0.007363141 0.4130526
vt 0.06703877 0.2502534
vt 0.06703877 0.2502534
vt 0.178538 0.1167684
vt 0.178538 0.1167684
vt 0.3287739 0.03039587
vt 0.3287739 0.03039587
vt 0.4999487 3.457069E-05
vt 0.4999487 3.457069E-05
vt 0.6711236 0.03039587
vt 0.6711236 0.03039587
vt 0.8213596 0.1167684
vt 0.8213596 0.1167684
vt 0.9328586 0.2502534
vt 0.9328586 0.2502534
vt 0.9925343 0.4130526
vt 0.9925343 0.4130526
vt 0.9925343 0.5868449
vt 0.9925343 0.5868449
vt 0.9328586 0.7501675
vt 0.9328586 0.7501675
vt 0.8213596 0.8831291
vt 0.8213596 0.8831291
vt 0.6711236 0.970025
vt 0.6711236 0.970025
vt 0.4999487 0.9155841
vt 0.3287739 0.970025
vt 0.4999487 0.9998628
vt 0.3580882 0.8904576
vt 0.2329789 0.8182186
vt 0.3287739 0.970025
vt 0.3580882 0.8904576
vt 0.178538 0.8831291
vt 0.132996 0.7020082
vt 0.178538 0.8831291
vt 0.2329789 0.8182186
vt 0.178538 0.8831291
vt 0.132996 0.7020082
vt 0.06703877 0.7501675
vt 0.09059495 0.5721876
vt 0.06703877 0.7501675
vt 0.132996 0.7020082
vt 0.06703877 0.7501675
vt 0.09059495 0.5721876
vt 0.007363141 0.5868449
vt 0.09059495 0.4277099
vt 0.007363141 0.5868449
vt 0.09059495 0.5721876
vt 0.007363141 0.4130526
vt 0.1398011 0.292131
vt 0.007363141 0.4130526
vt 0.09059495 0.4277099
vt 0.06703877 0.2502534
vt 0.1900542 0.1816787
vt 0.06703877 0.2502534
vt 0.1398011 0.292131
vt 0.178538 0.1167684
vt 0.3580882 0.1094399
vt 0.178538 0.1167684
vt 0.1900542 0.1816787
vt 0.3287739 0.03039587
vt 0.4999487 0.08431333
vt 0.3287739 0.03039587
vt 0.3580882 0.1094399
vt 0.4999487 3.457069E-05
vt 0.6423326 0.1094399
vt 0.4999487 3.457069E-05
vt 0.4999487 0.08431333
vt 0.6711236 0.03039587
vt 0.7669186 0.1816787
vt 0.6711236 0.03039587
vt 0.6423326 0.1094399
vt 0.8213596 0.1167684
vt 0.8600963 0.292131
vt 0.8213596 0.1167684
vt 0.7669186 0.1816787
vt 0.9328586 0.2502534
vt 0.9093025 0.4277099
vt 0.9328586 0.2502534
vt 0.8600963 0.292131
vt 0.9925343 0.4130526
vt 0.9093025 0.5721876
vt 0.9925343 0.4130526
vt 0.9093025 0.4277099
vt 0.9925343 0.5868449
vt 0.8553851 0.7334165
vt 0.9925343 0.5868449
vt 0.9093025 0.5721876
vt 0.9925343 0.5868449
vt 0.8553851 0.7334165
vt 0.9328586 0.7501675
vt 0.7669186 0.8182186
vt 0.9328586 0.7501675
vt 0.8553851 0.7334165
vt 0.9328586 0.7501675
vt 0.7669186 0.8182186
vt 0.8213596 0.8831291
vt 0.5763753 0.8904576
vt 0.8213596 0.8831291
vt 0.7669186 0.8182186
vt 0.6711236 0.970025
vt 0.4999487 0.9155841
vt 0.6711236 0.970025
vt 0.5763753 0.8904576
vt 0.4999487 0.9998628
vt 0.4999487 0.9998628
vt 0.3287739 0.970025
vt 0.4999487 0.9998628
vt 0.3287739 0.970025
vt 0.3287739 0.970025
vt 0.178538 0.8831291
vt 0.3287739 0.970025
vt 0.178538 0.8831291
vt 0.178538 0.8831291
vt 0.06703877 0.7501675
vt 0.178538 0.8831291
vt 0.06703877 0.7501675
vt 0.06703877 0.7501675
vt 0.007363141 0.5868449
vt 0.06703877 0.7501675
vt 0.007363141 0.5868449
vt 0.007363141 0.5868449
vt 0.007363141 0.4130526
vt 0.007363141 0.5868449
vt 0.007363141 0.4130526
vt 0.007363141 0.4130526
vt 0.06703877 0.2502534
vt 0.007363141 0.4130526
vt 0.06703877 0.2502534
vt 0.06703877 0.2502534
vt 0.178538 0.1167684
vt 0.06703877 0.2502534
vt 0.178538 0.1167684
vt 0.178538 0.1167684
vt 0.3287739 0.03039587
vt 0.178538 0.1167684
vt 0.3287739 0.03039587
vt 0.3287739 0.03039587
vt 0.4999487 3.457069E-05
vt 0.3287739 0.03039587
vt 0.4999487 3.457069E-05
vt 0.4999487 3.457069E-05
vt 0.6711236 0.03039587
vt 0.4999487 3.457069E-05
vt 0.6711236 0.03039587
vt 0.6711236 0.03039587
vt 0.8213596 0.1167684
vt 0.6711236 0.03039587
vt 0.8213596 0.1167684
vt 0.8213596 0.1167684
vt 0.9328586 0.2502534
vt 0.8213596 0.1167684
vt 0.9328586 0.2502534
vt 0.9328586 0.2502534
vt 0.9925343 0.4130526
vt 0.9328586 0.2502534
vt 0.9925343 0.4130526
vt 0.9925343 0.4130526
vt 0.9925343 0.5868449
vt 0.9925343 0.4130526
vt 0.9925343 0.5868449
vt 0.9925343 0.5868449
vt 0.9328586 0.7501675
vt 0.9925343 0.5868449
vt 0.9328586 0.7501675
vt 0.9328586 0.7501675
vt 0.8213596 0.8831291
vt 0.9328586 0.7501675
vt 0.8213596 0.8831291
vt 0.8213596 0.8831291
vt 0.6711236 0.970025
vt 0.8213596 0.8831291
vt 0.6711236 0.970025
vt 0.6711236 0.970025
vt 0.4999487 0.9998628
vt 0.6711236 0.970025
vt 0.4999487 0.9998628
vt -0.2742639 15.71514
vt -0.8736374 14.6059
vt -0.4255468 16.27891
vt -0.4606193 15.01892
vt 0.2355962 15.20528
vt -0.4255468 16.27891
vt 0.7993738 15.05399
vt -0.2742639 15.71514
vt -0.4606193 15.01892
vt 0.7993738 15.05399
vt -0.8736374 14.6059
vt 0.2355962 15.20528
vt 0.2355962 15.20528
vt -0.4606193 15.01892
vt -0.2742639 15.71514
vt 0.4999487 3.457069E-05
vt 0.7501675 3.457069E-05
vt 3.457069E-05 3.457069E-05
vt 0.4999487 3.457069E-05
vt 0.4999487 3.457069E-05
vt 0.2502534 3.457069E-05
vt 3.457069E-05 3.457069E-05
vt 0.4999487 3.457069E-05
vt 3.457069E-05 0.4250924
vt 0.1968594 3.457069E-05
vt 0.4999487 3.457069E-05
vt 0.7501675 0.4250924
vt 3.457069E-05 0.4250924
vt 0.4999487 3.457069E-05
vt 0.7501675 0.4250924
vt 0.4999487 3.457069E-05
vt 0.4999487 3.457069E-05
vt 0.7501675 0.4250924
vt 0.4999487 3.457069E-05
vt 0.7501675 0.4250924
vt 0.2502534 0.4250924
vt 0.4999487 0.4250924
vt 0.4999487 3.457069E-05
vt 0.2502534 0.4250924
vt 0.7501675 0.4250924
vt 3.457069E-05 0.4250924
vt 0.4999487 3.457069E-05
vt 0.8030379 3.457069E-05
vt 3.457069E-05 0.4250924
vn -0.003921628 0.9999924 0
vn -0.003921628 0.9999924 0
vn -0.003921628 0.9999924 0
vn -0.003921628 0.9999924 0
vn -0.003921628 0.003921628 0.9999846
vn -0.003921628 0.003921628 0.9999846
vn -0.003921628 0.003921628 0.9999846
vn -0.003921628 0.003921628 0.9999846
vn 0.9999924 0.003921628 0
vn 0.9999924 0.003921628 0
vn 0.9999924 0.003921628 0
vn 0.9999924 0.003921628 0
vn -0.003921628 0.003921628 -0.9999846
vn -0.003921628 0.003921628 -0.9999846
vn -0.003921628 0.003921628 -0.9999846
vn -0.003921628 0.003921628 -0.9999846
vn -0.9999924 0.003921628 0
vn -0.9999924 0.003921628 0
vn -0.9999924 0.003921628 0
vn -0.9999924 0.003921628 0
vn -0.003921628 0.7097986 0.7043937
vn -0.003921628 0.7097986 0.7043937
vn -0.003921628 0.7097986 0.7043937
vn -0.003921628 0.7097986 0.7043937
vn 0.7097985 0.7097986 0
vn 0.7097985 0.7097986 0
vn 0.7097985 0.7097986 0
vn 0.7097985 0.7097986 0
vn -0.003921628 0.7097986 -0.7043937
vn -0.003921628 0.7097986 -0.7043937
vn -0.003921628 0.7097986 -0.7043937
vn -0.003921628 0.7097986 -0.7043937
vn -0.7097986 0.7097986 0
vn -0.7097986 0.7097986 0
vn -0.7097986 0.7097986 0
vn -0.7097986 0.7097986 0
vn 0.003921509 0.9999924 0
vn 0.003921509 0.9999924 0
vn 0.003921509 0.9999924 0
vn 0.003921509 0.9999924 0
vn -0.003921628 0.9999924 0
vn -0.003921628 0.9999924 0
vn -0.003921628 0.9999924 0
vn -0.003921628 0.9999924 0
vn -0.003921628 0.9999924 0
vn -0.003921628 0.9999924 0
vn -0.003921628 0.9999924 0
vn -0.003921628 0.9999924 0
vn -0.003921628 0.9999924 0
vn -0.003921628 0.9999924 0
vn -0.003921628 0.9999924 0
vn -0.003921628 0.9999924 0
vn -0.9999924 0.003921628 0
vn -0.9999924 0.003921628 0
vn -0.9999924 0.003921628 0
vn -0.9999924 0.003921628 0
vn -0.003921628 0.003921628 -0.9999846
vn -0.003921628 0.003921628 -0.9999846
vn -0.003921628 0.003921628 -0.9999846
vn -0.003921628 0.003921628 -0.9999846
vn 0.9999924 0.003921628 0
vn 0.9999924 0.003921628 0
vn 0.9999924 0.003921628 0
vn 0.9999924 0.003921628 0
vn -0.003921628 0.003921628 0.9999846
vn -0.003921628 0.003921628 0.9999846
vn -0.003921628 0.003921628 0.9999846
vn -0.003921628 0.003921628 0.9999846
vn -0.003921628 -0.7960724 0.6051888
vn -0.1215677 -0.7882293 0.6032544
vn -0.003921628 -0.7960724 0.6051888
vn -0.1215677 -0.7882293 0.6032544
vn 0.1215677 -0.7882293 0.6032544
vn 0.1215677 -0.7882293 0.6032544
vn -0.003921628 -0.7960724 0.6051888
vn -0.003921628 -0.7960724 0.6051888
vn -0.003921628 -0.7960724 0.6051888
vn -0.003921628 -0.7960724 0.6051888
vn 0.654897 -0.6235247 0.4269976
vn 0.66274 -0.6235247 0.41472
vn 0.6784261 -0.6235247 0.3885292
vn 0.6235247 -0.6156815 0.4818228
vn -0.003921628 0.7960724 -0.6051888
vn -0.2235278 0.7725432 -0.5943167
vn -0.003921628 0.7960724 -0.6051888
vn -0.2235278 0.7725432 -0.5943167
vn 0.2235277 0.7725432 -0.5943168
vn 0.2235277 0.7725432 -0.5943168
vn -0.960777 0.2156847 -0.1743204
vn -0.8666601 0.3960755 -0.3033553
vn -0.8666601 0.3960755 -0.3033553
vn -0.9686201 0.2156847 -0.1235123
vn -0.8666601 0.3960755 -0.3033553
vn -0.9921494 0.09019542 -0.08662822
vn -0.9921494 0.1294109 0
vn -0.003921628 0.6078385 0.794051
vn -0.003921628 0.6078385 0.794051
vn -0.003921628 0.6078385 0.794051
vn -0.003921628 0.6078385 0.794051
vn -0.003921628 0.6078385 0.794051
vn -0.003921628 0.6078385 0.794051
vn -0.003921628 0.6078385 0.794051
vn -0.003921628 0.6078385 0.794051
vn -0.003921628 0.6078385 0.794051
vn -0.003921628 0.6078385 0.794051
vn -0.003921628 0.6078385 0.794051
vn -0.003921628 0.6078385 0.794051
vn -0.003921628 0.6078385 0.794051
vn -0.003921628 0.6078385 0.794051
vn 0.7254846 0.5450939 -0.4201722
vn 0.7254846 0.5450939 -0.4201722
vn 0.7254846 0.5450939 -0.4201722
vn 0.7254846 0.5450939 -0.4201722
vn -0.7254847 0.5450939 -0.420172
vn -0.7254847 0.5450939 -0.420172
vn -0.7254847 0.5450939 -0.420172
vn -0.7254847 0.5450939 -0.420172
vn 0.8666601 0.3960755 -0.3033555
vn 0.8666601 0.3960755 -0.3033555
vn 0.8666601 0.3960755 -0.3033555
vn 0.960777 0.2156847 -0.1743207
vn 0.9686201 0.2156847 -0.1235123
vn 0.9921493 0.09019542 -0.08662891
vn 0.9921493 0.1294109 0
vn -0.3725462 -0.1215677 0.9200166
vn -0.3725462 -0.1215677 0.9200166
vn -0.3725462 -0.1215677 0.9200166
vn 0.3725461 -0.1215677 0.9200167
vn 0.3725461 -0.1215677 0.9200167
vn 0.3725461 -0.1215677 0.9200167
vn -0.1294109 -0.1686261 0.9771479
vn -0.1999985 -0.3333308 0.9213529
vn -0.003921628 0.1294109 0.9915833
vn -0.3098016 -0.6078385 0.7311329
vn 0.08235228 -0.3254877 0.9419532
vn 0.1686261 -0.2078415 0.9635181
vn -0.003921628 -0.4274477 0.9040316
vn 0.2235277 -0.1215677 0.9670867
vn -0.003921628 -0.1294107 0.9915833
vn -0.1764693 -0.1294107 0.975762
vn -0.003921628 -0.1294107 0.9915833
vn -0.1764693 -0.1294107 0.975762
vn 0.1764692 -0.1294107 0.975762
vn -0.003921628 -0.1294107 0.9915833
vn 0.1764692 -0.1294107 0.975762
vn -0.003921628 -0.1294107 0.9915833
vn -0.654897 -0.6235247 0.4269976
vn -0.6627401 -0.6235247 0.4147198
vn -0.6235247 -0.6156815 0.4818228
vn -0.6784263 -0.6235247 0.388529
vn -0.5294077 0.8196017 0.2190448
vn -0.4117616 0.9058754 0.09920675
vn -0.5215647 0.8196017 0.2371147
vn -0.3176447 0.9372478 0.1437655
vn -0.3176447 0.9372478 0.1437655
vn -0.003921628 0.9921494 0.1249971
vn -0.4117616 0.9058754 0.09920675
vn -0.003921628 0.9921494 0.1249971
vn -0.003921628 0.9921494 0.1249971
vn 0.4352908 0.8901893 0.1344805
vn -0.003921628 0.9921494 0.1249971
vn 0.3254877 0.9372478 0.1249976
vn 0.3254877 0.9372478 0.1249976
vn 0.5137216 0.8274447 0.2267718
vn 0.4352908 0.8901893 0.1344805
vn 0.4980354 0.8352878 0.232927
vn 0.858817 -0.3098015 -0.4079907
vn 0.8117585 -0.0745092 -0.5792206
vn 0.8117585 -0.0745092 -0.5792206
vn 0.858817 -0.3098015 -0.4079907
vn 0.66274 0.1294109 -0.7375829
vn 0.66274 0.1294109 -0.7375829
vn 0.4274477 0.2784293 -0.8600963
vn 0.4274477 0.2784293 -0.8600963
vn 0.15294 0.3647032 -0.9184775
vn 0.15294 0.3647032 -0.9184775
vn -0.15294 0.3647032 -0.9184775
vn -0.15294 0.3647032 -0.9184775
vn 0.8117585 -0.5450939 -0.2095728
vn 0.8117585 -0.5450939 -0.2095728
vn 0.66274 -0.7490139 0
vn 0.66274 -0.7490139 0
vn 0.4274477 -0.8980324 0.10405
vn 0.4274477 -0.8980324 0.10405
vn 0.15294 -0.9843062 0.08803766
vn 0.15294 -0.9843062 0.08803766
vn -0.15294 -0.9843062 0.08803766
vn -0.15294 -0.9843062 0.08803766
vn -0.4274478 -0.8980324 0.1040495
vn -0.4274478 -0.8980324 0.1040495
vn -0.6627401 -0.7490139 0
vn -0.6627401 -0.7490139 0
vn -0.8117585 -0.5450939 -0.2095728
vn -0.8117585 -0.5450939 -0.2095728
vn -0.858817 -0.3098015 -0.4079907
vn -0.858817 -0.3098015 -0.4079907
vn -0.8117585 -0.0745092 -0.5792206
vn -0.8117585 -0.0745092 -0.5792206
vn -0.6627401 0.1294109 -0.7375827
vn -0.6627401 0.1294109 -0.7375827
vn -0.4274478 0.2784293 -0.8600962
vn -0.4274478 0.2784293 -0.8600962
vn -0.15294 0.3647032 -0.9184775
vn -0.15294 0.3647032 -0.9184775
vn 0.858817 0.3098016 0.4079907
vn 0.8117585 0.5450939 0.2095728
vn 0.8117585 0.5450939 0.2095728
vn 0.858817 0.3098016 0.4079907
vn 0.66274 0.7490139 0
vn 0.66274 0.7490139 0
vn 0.4274477 0.8980324 -0.1040495
vn 0.4274477 0.8980324 -0.1040495
vn 0.15294 0.9843062 -0.08803766
vn 0.15294 0.9843062 -0.08803766
vn -0.15294 0.9843062 -0.08803766
vn -0.15294 0.9843062 -0.08803766
vn 0.8117585 0.07450926 0.5792206
vn 0.8117585 0.07450926 0.5792206
vn 0.66274 -0.1294107 0.7375829
vn 0.66274 -0.1294107 0.7375829
vn 0.4274477 -0.2784292 0.8600963
vn 0.4274477 -0.2784292 0.8600963
vn 0.15294 -0.3647031 0.9184776
vn 0.15294 -0.3647031 0.9184776
vn -0.15294 -0.3647031 0.9184776
vn -0.15294 -0.3647031 0.9184776
vn -0.4274478 -0.2784292 0.8600963
vn -0.4274478 -0.2784292 0.8600963
vn -0.6627401 -0.1294107 0.7375828
vn -0.6627401 -0.1294107 0.7375828
vn -0.8117585 0.07450926 0.5792206
vn -0.8117585 0.07450926 0.5792206
vn -0.858817 0.3098016 0.4079907
vn -0.858817 0.3098016 0.4079907
vn -0.8117585 0.5450939 0.2095728
vn -0.8117585 0.5450939 0.2095728
vn -0.6627401 0.7490139 0
vn -0.6627401 0.7490139 0
vn -0.4274478 0.8980324 -0.1040489
vn -0.4274478 0.8980324 -0.1040489
vn -0.15294 0.9843062 -0.08803766
vn -0.15294 0.9843062 -0.08803766
vn -0.003921628 -0.6078385 -0.794051
vn -0.003921628 -0.6078385 -0.794051
vn -0.003921628 -0.6078385 -0.794051
vn -0.003921628 -0.6078385 -0.794051
vn -0.003921628 -0.6078385 -0.794051
vn -0.003921628 -0.6078385 -0.794051
vn -0.003921628 -0.6078385 -0.794051
vn -0.003921628 -0.6078385 -0.794051
vn -0.003921628 -0.6078385 -0.794051
vn -0.003921628 -0.6078385 -0.794051
vn -0.003921628 -0.6078385 -0.794051
vn -0.003921628 -0.6078385 -0.794051
vn -0.003921628 -0.6078385 -0.794051
vn -0.003921628 -0.6078385 -0.794051
vn -0.003921628 -0.6078385 -0.794051
vn -0.003921628 -0.6078385 -0.794051
vn -0.003921628 -0.6078385 -0.794051
vn -0.003921628 -0.6078385 -0.794051
vn -0.003921628 0.6078385 0.794051
vn -0.003921628 0.6078385 0.794051
vn -0.003921628 0.6078385 0.794051
vn -0.003921628 0.6078385 0.794051
vn -0.003921628 0.6078385 0.794051
vn -0.003921628 0.6078385 0.794051
vn -0.003921628 0.6078385 0.794051
vn -0.003921628 0.6078385 0.794051
vn -0.003921628 0.6078385 0.794051
vn -0.003921628 0.6078385 0.794051
vn -0.003921628 0.6078385 0.794051
vn -0.003921628 0.6078385 0.794051
vn -0.003921628 0.6078385 0.794051
vn -0.003921628 0.6078385 0.794051
vn -0.003921628 0.6078385 0.794051
vn -0.003921628 0.6078385 0.794051
vn -0.003921628 0.6078385 0.794051
vn -0.003921628 0.6078385 0.794051
vn 0.9372478 0.2705863 -0.2198857
vn 0.9999924 0.003921628 0
vn 0.9372478 0.2705863 -0.2198857
vn 0.9999924 0.003921628 0
vn 0.7647001 0.5137216 -0.3890038
vn 0.7647001 0.5137216 -0.3890038
vn 0.4980354 0.6862693 -0.5300898
vn 0.4980354 0.6862693 -0.5300898
vn 0.1764692 0.7803862 -0.5998799
vn 0.1764692 0.7803862 -0.5998799
vn -0.1764693 0.7803862 -0.5998799
vn -0.1764693 0.7803862 -0.5998799
vn 0.9372478 -0.2705861 0.2198859
vn 0.9372478 -0.2705861 0.2198859
vn 0.7647001 -0.5137216 0.3890038
vn 0.7647001 -0.5137216 0.3890038
vn 0.4980354 -0.6862693 0.5300898
vn 0.4980354 -0.6862693 0.5300898
vn 0.1764692 -0.7803862 0.5998799
vn 0.1764692 -0.7803862 0.5998799
vn -0.1764693 -0.7803862 0.5998799
vn -0.1764693 -0.7803862 0.5998799
vn -0.4980354 -0.6862693 0.5300898
vn -0.4980354 -0.6862693 0.5300898
vn -0.7647001 -0.5137216 0.3890038
vn -0.7647001 -0.5137216 0.3890038
vn -0.9372478 -0.2705861 0.2198859
vn -0.9372478 -0.2705861 0.2198859
vn -0.9999924 0.003921628 0
vn -0.9999924 0.003921628 0
vn -0.9372478 0.2705863 -0.2198857
vn -0.9372478 0.2705863 -0.2198857
vn -0.7647001 0.5137216 -0.3890038
vn -0.7647001 0.5137216 -0.3890038
vn -0.4980354 0.6862693 -0.5300898
vn -0.4980354 0.6862693 -0.5300898
vn -0.1764693 0.7803862 -0.5998799
vn -0.1764693 0.7803862 -0.5998799
vn -0.003921628 0.6078385 0.794051
vn -0.003921628 0.6078385 0.794051
vn -0.003921628 0.6078385 0.794051
vn -0.003921628 0.6078385 0.794051
vn -0.003921628 0.6078385 0.794051
vn -0.003921628 0.6078385 0.794051
vn -0.003921628 0.6078385 0.794051
vn -0.003921628 0.6078385 0.794051
vn -0.003921628 0.6078385 0.794051
vn -0.003921628 0.6078385 0.794051
vn -0.003921628 0.6078385 0.794051
vn -0.003921628 0.6078385 0.794051
vn -0.003921628 0.6078385 0.794051
vn -0.003921628 0.6078385 0.794051
vn -0.003921628 0.6078385 0.794051
vn -0.003921628 0.6078385 0.794051
vn -0.003921628 0.6078385 0.794051
vn -0.003921628 0.6078385 0.794051
vn -0.003921628 0.6078385 0.794051
vn -0.003921628 0.6078385 0.794051
vn -0.003921628 0.6078385 0.794051
vn -0.003921628 0.6078385 0.794051
vn -0.003921628 0.6078385 0.794051
vn -0.003921628 0.6078385 0.794051
vn -0.003921628 0.6078385 0.794051
vn -0.003921628 0.6078385 0.794051
vn -0.003921628 0.6078385 0.794051
vn -0.003921628 0.6078385 0.794051
vn -0.003921628 0.6078385 0.794051
vn -0.003921628 0.6078385 0.794051
vn -0.003921628 0.6078385 0.794051
vn -0.003921628 0.6078385 0.794051
vn -0.003921628 0.6078385 0.794051
vn -0.003921628 0.6078385 0.794051
vn -0.003921628 0.6078385 0.794051
vn -0.003921628 0.6078385 0.794051
vn 0.5058784 0.5921524 0.62725
vn 0.5058784 0.5921524 0.62725
vn 0.5058784 0.5921524 0.62725
vn 0.5058784 0.5921524 0.62725
vn 0.4509769 0.7254847 0.5198959
vn 0.4509769 0.7254847 0.5198959
vn 0.4509769 0.7254847 0.5198959
vn 0.4509769 0.7254847 0.5198959
vn 0.3333308 0.8352878 0.4372469
vn 0.3333308 0.8352878 0.4372469
vn 0.3333308 0.8352878 0.4372469
vn 0.3333308 0.8352878 0.4372469
vn 0.3333308 0.8352878 0.4372469
vn 0.3333308 0.8352878 0.4372469
vn 0.1764692 0.9058754 0.3850302
vn 0.1764692 0.9058754 0.3850302
vn 0.1764692 0.9058754 0.3850302
vn 0.1764692 0.9058754 0.3850302
vn 0.1764692 0.9058754 0.3850302
vn 0.1764692 0.9058754 0.3850302
vn -0.003921628 0.9294047 0.3690413
vn -0.003921628 0.9294047 0.3690413
vn -0.003921628 0.9294047 0.3690413
vn -0.003921628 0.9294047 0.3690413
vn -0.1764693 0.9058754 0.3850302
vn -0.1764693 0.9058754 0.3850302
vn -0.1764693 0.9058754 0.3850302
vn -0.1764693 0.9058754 0.3850302
vn -0.3333309 0.8352878 0.4372468
vn -0.3333309 0.8352878 0.4372468
vn -0.3333309 0.8352878 0.4372468
vn -0.3333309 0.8352878 0.4372468
vn -0.450977 0.7254847 0.5198959
vn -0.450977 0.7254847 0.5198959
vn -0.450977 0.7254847 0.5198959
vn -0.450977 0.7254847 0.5198959
vn -0.5058786 0.5921524 0.6272499
vn -0.5058786 0.5921524 0.6272499
vn -0.5058786 0.5921524 0.6272499
vn -0.5058786 0.5921524 0.6272499
vn -0.5058786 0.450977 0.7353275
vn -0.5058786 0.450977 0.7353275
vn -0.5058786 0.450977 0.7353275
vn -0.5058786 0.450977 0.7353275
vn -0.450977 0.3176447 0.8340993
vn -0.450977 0.3176447 0.8340993
vn -0.450977 0.3176447 0.8340993
vn -0.450977 0.3176447 0.8340993
vn -0.3333309 0.2078416 0.9196153
vn -0.3333309 0.2078416 0.9196153
vn -0.3333309 0.2078416 0.9196153
vn -0.3333309 0.2078416 0.9196153
vn -0.1764693 0.1372539 0.9746897
vn -0.1764693 0.1372539 0.9746897
vn -0.1764693 0.1372539 0.9746897
vn -0.1764693 0.1372539 0.9746897
vn -0.003921628 0.1137247 0.9935046
vn -0.003921628 0.1137247 0.9935046
vn -0.003921628 0.1137247 0.9935046
vn -0.003921628 0.1137247 0.9935046
vn 0.1764692 0.1372539 0.9746897
vn 0.1764692 0.1372539 0.9746897
vn 0.1764692 0.1372539 0.9746897
vn 0.1764692 0.1372539 0.9746897
vn 0.1764692 0.1372539 0.9746897
vn 0.1764692 0.1372539 0.9746897
vn 0.3333308 0.2078416 0.9196154
vn 0.3333308 0.2078416 0.9196154
vn 0.3333308 0.2078416 0.9196154
vn 0.3333308 0.2078416 0.9196154
vn 0.3333308 0.2078416 0.9196154
vn 0.3333308 0.2078416 0.9196154
vn 0.4509769 0.3176447 0.8340994
vn 0.4509769 0.3176447 0.8340994
vn 0.4509769 0.3176447 0.8340994
vn 0.4509769 0.3176447 0.8340994
vn 0.5058784 0.450977 0.7353277
vn 0.5058784 0.450977 0.7353277
vn 0.5058784 0.450977 0.7353277
vn 0.5058784 0.450977 0.7353277
vn -0.5058786 0.450977 0.7353275
vn -0.5058786 0.450977 0.7353275
vn -0.5058786 0.450977 0.7353275
vn -0.5058786 0.450977 0.7353275
vn -0.450977 0.3176447 0.8340993
vn -0.450977 0.3176447 0.8340993
vn -0.450977 0.3176447 0.8340993
vn -0.450977 0.3176447 0.8340993
vn -0.3333309 0.2078416 0.9196153
vn -0.3333309 0.2078416 0.9196153
vn -0.3333309 0.2078416 0.9196153
vn -0.3333309 0.2078416 0.9196153
vn -0.1764693 0.1372539 0.9746897
vn -0.1764693 0.1372539 0.9746897
vn -0.1764693 0.1372539 0.9746897
vn -0.1764693 0.1372539 0.9746897
vn -0.003921628 0.1137247 0.9935046
vn -0.003921628 0.1137247 0.9935046
vn -0.003921628 0.1137247 0.9935046
vn -0.003921628 0.1137247 0.9935046
vn 0.1764692 0.1372539 0.9746897
vn 0.1764692 0.1372539 0.9746897
vn 0.1764692 0.1372539 0.9746897
vn 0.1764692 0.1372539 0.9746897
vn 0.3333308 0.2078416 0.9196154
vn 0.3333308 0.2078416 0.9196154
vn 0.3333308 0.2078416 0.9196154
vn 0.3333308 0.2078416 0.9196154
vn 0.4509769 0.3176447 0.8340994
vn 0.4509769 0.3176447 0.8340994
vn 0.4509769 0.3176447 0.8340994
vn 0.4509769 0.3176447 0.8340994
vn 0.5058784 0.450977 0.7353277
vn 0.5058784 0.450977 0.7353277
vn 0.5058784 0.450977 0.7353277
vn 0.5058784 0.450977 0.7353277
vn 0.5058784 0.5921524 0.62725
vn 0.5058784 0.5921524 0.62725
vn 0.5058784 0.5921524 0.62725
vn 0.5058784 0.5921524 0.62725
vn 0.4509769 0.7254847 0.5198959
vn 0.4509769 0.7254847 0.5198959
vn 0.4509769 0.7254847 0.5198959
vn 0.4509769 0.7254847 0.5198959
vn 0.3333308 0.8352878 0.4372469
vn 0.3333308 0.8352878 0.4372469
vn 0.3333308 0.8352878 0.4372469
vn 0.3333308 0.8352878 0.4372469
vn 0.1764692 0.9058754 0.3850302
vn 0.1764692 0.9058754 0.3850302
vn 0.1764692 0.9058754 0.3850302
vn 0.1764692 0.9058754 0.3850302
vn -0.003921628 0.9294047 0.3690413
vn -0.003921628 0.9294047 0.3690413
vn -0.003921628 0.9294047 0.3690413
vn -0.003921628 0.9294047 0.3690413
vn -0.1764693 0.9058754 0.3850302
vn -0.1764693 0.9058754 0.3850302
vn -0.1764693 0.9058754 0.3850302
vn -0.1764693 0.9058754 0.3850302
vn -0.3333309 0.8352878 0.4372468
vn -0.3333309 0.8352878 0.4372468
vn -0.3333309 0.8352878 0.4372468
vn -0.3333309 0.8352878 0.4372468
vn -0.450977 0.7254847 0.5198959
vn -0.450977 0.7254847 0.5198959
vn -0.450977 0.7254847 0.5198959
vn -0.450977 0.7254847 0.5198959
vn -0.5058786 0.5921524 0.6272499
vn -0.5058786 0.5921524 0.6272499
vn -0.5058786 0.5921524 0.6272499
vn -0.5058786 0.5921524 0.6272499
vn -0.9686201 0.2156847 -0.1235123
vn -0.9686201 0.2156847 -0.1235123
vn -0.9686201 0.2156847 -0.1235123
vn -0.9686201 0.2156847 -0.1235123
vn 0.7097985 0.5764662 -0.4048121
vn 0.7097985 0.5764662 -0.4048121
vn 0.7097985 0.5764662 -0.4048121
vn 0.7097985 0.5764662 -0.4048121
vn 0.2549 -0.7803862 0.5709845
vn 0.2549 -0.7803862 0.5709845
vn 0.2549 -0.7803862 0.5709845
vn 0.2549 -0.7803862 0.5709845
vn -0.003921628 0.6078385 0.794051
vn -0.003921628 0.6078385 0.794051
vn -0.003921628 0.6078385 0.794051
vn -0.003921628 -0.6078385 -0.794051
vn -0.003921628 -0.6078385 -0.794051
vn -0.003921628 -0.6078385 -0.794051
vn -0.003921628 -0.6078385 -0.794051
vn -0.003921628 -0.6078385 -0.794051
vn -0.003921628 -0.6078385 -0.794051
vn -0.003921628 -0.6078385 -0.794051
vn -0.6156816 -0.15294 -0.7730106
vn -0.6156816 -0.15294 -0.7730106
vn -0.6156816 -0.15294 -0.7730106
vn -0.003921628 -0.4980354 -0.8671479
vn -0.003921628 -0.4980354 -0.8671479
vn -0.003921628 -0.4980354 -0.8671479
vn -0.03529394 -0.4745061 -0.8795443
vn -0.03529394 -0.4745061 -0.8795443
vn -0.03529394 -0.4745061 -0.8795443
vn 0.05882305 -0.3411738 -0.9381579
vn 0.05882305 -0.3411738 -0.9381579
vn 0.05882305 -0.3411738 -0.9381579
vn -0.003921628 -0.6078385 -0.794051
vn -0.003921628 -0.6078385 -0.794051
vn -0.003921628 -0.6078385 -0.794051
vn -0.003921628 -0.4980354 -0.8671479
vn -0.003921628 -0.4980354 -0.8671479
vn -0.003921628 -0.4980354 -0.8671479
vn -0.003921628 -0.4980354 -0.8671479
vn 0.6156815 -0.15294 -0.7730107
vn 0.6156815 -0.15294 -0.7730107
vn 0.6156815 -0.15294 -0.7730107
g Box154_0
f 3/3/3 2/2/2 1/1/1
f 4/4/4 1/1/1 2/2/2
f 7/7/7 6/6/6 5/5/5
f 8/8/8 5/5/5 6/6/6
f 11/11/11 10/10/10 9/9/9
f 12/12/12 9/9/9 10/10/10
f 15/15/15 14/14/14 13/13/13
f 16/16/16 13/13/13 14/14/14
f 19/19/19 18/18/18 17/17/17
f 20/20/20 17/17/17 18/18/18
f 23/23/23 22/22/22 21/21/21
f 24/24/24 21/21/21 22/22/22
f 27/27/27 26/26/26 25/25/25
f 28/28/28 25/25/25 26/26/26
f 31/31/31 30/30/30 29/29/29
f 32/32/32 29/29/29 30/30/30
f 35/35/35 34/34/34 33/33/33
f 36/36/36 33/33/33 34/34/34
f 39/39/39 38/38/38 37/37/37
f 40/40/40 37/37/37 38/38/38
f 43/43/43 42/42/42 41/41/41
f 44/44/44 41/41/41 42/42/42
f 47/47/47 46/46/46 45/45/45
f 48/48/48 45/45/45 46/46/46
f 51/51/51 50/50/50 49/49/49
f 52/52/52 49/49/49 50/50/50
f 55/55/55 54/54/54 53/53/53
f 56/56/56 53/53/53 54/54/54
f 59/59/59 58/58/58 57/57/57
f 60/60/60 57/57/57 58/58/58
f 63/63/63 62/62/62 61/61/61
f 64/64/64 61/61/61 62/62/62
f 67/67/67 66/66/66 65/65/65
f 68/68/68 65/65/65 66/66/66
f 71/71/71 70/70/70 69/69/69
f 72/72/72 69/69/69 70/70/70
f 69/69/69 73/73/73 71/71/71
f 74/74/74 71/71/71 73/73/73
f 73/73/73 75/75/75 74/74/74
f 76/76/76 74/74/74 75/75/75
f 70/70/70 77/77/77 72/72/72
f 78/78/78 72/72/72 77/77/77
f 81/81/81 80/80/80 79/79/79
f 82/82/82 79/79/79 80/80/80
f 85/85/85 84/84/84 83/83/83
f 86/86/86 83/83/83 84/84/84
f 83/83/83 87/87/87 85/85/85
f 88/88/88 85/85/85 87/87/87
f 91/91/91 90/90/90 89/89/89
f 89/89/89 90/90/90 92/92/92
f 92/92/92 90/90/90 93/93/93
f 89/89/89 92/92/92 94/94/94
f 95/95/95 94/94/94 92/92/92
f 98/98/98 97/97/97 96/96/96
f 99/99/99 96/96/96 97/97/97
f 100/100/100 99/99/99 97/97/97
f 101/101/101 96/96/96 99/99/99
f 99/99/99 102/102/102 101/101/101
f 103/103/103 101/101/101 102/102/102
f 103/103/103 102/102/102 104/104/104
f 105/105/105 104/104/104 102/102/102
f 106/106/106 104/104/104 105/105/105
f 107/107/107 106/106/106 105/105/105
f 108/108/108 104/104/104 106/106/106
f 109/109/109 108/108/108 106/106/106
f 112/112/112 111/111/111 110/110/110
f 113/113/113 110/110/110 111/111/111
f 116/116/116 115/115/115 114/114/114
f 117/117/117 114/114/114 115/115/115
f 120/120/120 119/119/119 118/118/118
f 119/119/119 121/121/121 118/118/118
f 118/118/118 121/121/121 122/122/122
f 121/121/121 123/123/123 122/122/122
f 124/124/124 122/122/122 123/123/123
f 127/127/127 126/126/126 125/125/125
f 130/130/130 129/129/129 128/128/128
f 133/133/133 132/132/132 131/131/131
f 134/134/134 131/131/131 132/132/132
f 137/137/137 136/136/136 135/135/135
f 138/138/138 135/135/135 136/136/136
f 141/141/141 140/140/140 139/139/139
f 142/142/142 139/139/139 140/140/140
f 145/145/145 144/144/144 143/143/143
f 146/146/146 143/143/143 144/144/144
f 149/149/149 148/148/148 147/147/147
f 150/150/150 147/147/147 148/148/148
f 153/153/153 152/152/152 151/151/151
f 154/154/154 151/151/151 152/152/152
f 157/157/157 156/156/156 155/155/155
f 158/158/158 155/155/155 156/156/156
f 161/161/161 160/160/160 159/159/159
f 162/162/162 159/159/159 160/160/160
f 165/165/165 164/164/164 163/163/163
f 166/166/166 163/163/163 164/164/164
f 169/169/169 168/168/168 167/167/167
f 170/170/170 167/167/167 168/168/168
f 168/168/168 169/169/169 171/171/171
f 172/172/172 171/171/171 169/169/169
f 171/171/171 172/172/172 173/173/173
f 174/174/174 173/173/173 172/172/172
f 173/173/173 174/174/174 175/175/175
f 176/176/176 175/175/175 174/174/174
f 175/175/175 176/176/176 177/177/177
f 178/178/178 177/177/177 176/176/176
f 167/167/167 170/170/170 179/179/179
f 180/180/180 179/179/179 170/170/170
f 179/179/179 180/180/180 181/181/181
f 182/182/182 181/181/181 180/180/180
f 181/181/181 182/182/182 183/183/183
f 184/184/184 183/183/183 182/182/182
f 183/183/183 184/184/184 185/185/185
f 186/186/186 185/185/185 184/184/184
f 185/185/185 186/186/186 187/187/187
f 188/188/188 187/187/187 186/186/186
f 187/187/187 188/188/188 189/189/189
f 190/190/190 189/189/189 188/188/188
f 189/189/189 190/190/190 191/191/191
f 192/192/192 191/191/191 190/190/190
f 191/191/191 192/192/192 193/193/193
f 194/194/194 193/193/193 192/192/192
f 193/193/193 194/194/194 195/195/195
f 196/196/196 195/195/195 194/194/194
f 195/195/195 196/196/196 197/197/197
f 198/198/198 197/197/197 196/196/196
f 197/197/197 198/198/198 199/199/199
f 200/200/200 199/199/199 198/198/198
f 199/199/199 200/200/200 201/201/201
f 202/202/202 201/201/201 200/200/200
f 201/201/201 202/202/202 203/203/203
f 204/204/204 203/203/203 202/202/202
f 207/207/207 206/206/206 205/205/205
f 208/208/208 205/205/205 206/206/206
f 206/206/206 207/207/207 209/209/209
f 210/210/210 209/209/209 207/207/207
f 209/209/209 210/210/210 211/211/211
f 212/212/212 211/211/211 210/210/210
f 211/211/211 212/212/212 213/213/213
f 214/214/214 213/213/213 212/212/212
f 213/213/213 214/214/214 215/215/215
f 216/216/216 215/215/215 214/214/214
f 205/205/205 208/208/208 217/217/217
f 218/218/218 217/217/217 208/208/208
f 217/217/217 218/218/218 219/219/219
f 220/220/220 219/219/219 218/218/218
f 219/219/219 220/220/220 221/221/221
f 222/222/222 221/221/221 220/220/220
f 221/221/221 222/222/222 223/223/223
f 224/224/224 223/223/223 222/222/222
f 223/223/223 224/224/224 225/225/225
f 226/226/226 225/225/225 224/224/224
f 225/225/225 226/226/226 227/227/227
f 228/228/228 227/227/227 226/226/226
f 227/227/227 228/228/228 229/229/229
f 230/230/230 229/229/229 228/228/228
f 229/229/229 230/230/230 231/231/231
f 232/232/232 231/231/231 230/230/230
f 231/231/231 232/232/232 233/233/233
f 234/234/234 233/233/233 232/232/232
f 233/233/233 234/234/234 235/235/235
f 236/236/236 235/235/235 234/234/234
f 235/235/235 236/236/236 237/237/237
f 238/238/238 237/237/237 236/236/236
f 237/237/237 238/238/238 239/239/239
f 240/240/240 239/239/239 238/238/238
f 239/239/239 240/240/240 241/241/241
f 242/242/242 241/241/241 240/240/240
f 245/245/245 244/244/244 243/243/243
f 244/244/244 246/246/246 243/243/243
f 247/247/247 246/246/246 244/244/244
f 248/248/248 247/247/247 244/244/244
f 249/249/249 248/248/248 244/244/244
f 250/250/250 249/249/249 244/244/244
f 251/251/251 248/248/248 249/249/249
f 252/252/252 247/247/247 248/248/248
f 253/253/253 252/252/252 248/248/248
f 254/254/254 253/253/253 248/248/248
f 255/255/255 252/252/252 253/253/253
f 256/256/256 247/247/247 252/252/252
f 257/257/257 256/256/256 252/252/252
f 258/258/258 247/247/247 256/256/256
f 259/259/259 246/246/246 247/247/247
f 243/243/243 246/246/246 260/260/260
f 263/263/263 262/262/262 261/261/261
f 262/262/262 264/264/264 261/261/261
f 265/265/265 264/264/264 262/262/262
f 266/266/266 265/265/265 262/262/262
f 267/267/267 266/266/266 262/262/262
f 268/268/268 267/267/267 262/262/262
f 269/269/269 266/266/266 267/267/267
f 270/270/270 265/265/265 266/266/266
f 271/271/271 270/270/270 266/266/266
f 272/272/272 271/271/271 266/266/266
f 273/273/273 270/270/270 271/271/271
f 274/274/274 265/265/265 270/270/270
f 275/275/275 274/274/274 270/270/270
f 276/276/276 265/265/265 274/274/274
f 277/277/277 264/264/264 265/265/265
f 261/261/261 264/264/264 278/278/278
f 281/281/281 280/280/280 279/279/279
f 282/282/282 279/279/279 280/280/280
f 279/279/279 283/283/283 281/281/281
f 284/284/284 281/281/281 283/283/283
f 283/283/283 285/285/285 284/284/284
f 286/286/286 284/284/284 285/285/285
f 285/285/285 287/287/287 286/286/286
f 288/288/288 286/286/286 287/287/287
f 287/287/287 289/289/289 288/288/288
f 290/290/290 288/288/288 289/289/289
f 280/280/280 291/291/291 282/282/282
f 292/292/292 282/282/282 291/291/291
f 291/291/291 293/293/293 292/292/292
f 294/294/294 292/292/292 293/293/293
f 293/293/293 295/295/295 294/294/294
f 296/296/296 294/294/294 295/295/295
f 295/295/295 297/297/297 296/296/296
f 298/298/298 296/296/296 297/297/297
f 297/297/297 299/299/299 298/298/298
f 300/300/300 298/298/298 299/299/299
f 299/299/299 301/301/301 300/300/300
f 302/302/302 300/300/300 301/301/301
f 301/301/301 303/303/303 302/302/302
f 304/304/304 302/302/302 303/303/303
f 303/303/303 305/305/305 304/304/304
f 306/306/306 304/304/304 305/305/305
f 305/305/305 307/307/307 306/306/306
f 308/308/308 306/306/306 307/307/307
f 307/307/307 309/309/309 308/308/308
f 310/310/310 308/308/308 309/309/309
f 309/309/309 311/311/311 310/310/310
f 312/312/312 310/310/310 311/311/311
f 311/311/311 313/313/313 312/312/312
f 314/314/314 312/312/312 313/313/313
f 313/313/313 315/315/315 314/314/314
f 316/316/316 314/314/314 315/315/315
f 319/319/319 318/318/318 317/317/317
f 320/320/320 317/317/317 318/318/318
f 317/317/317 321/321/321 319/319/319
f 322/322/322 319/319/319 321/321/321
f 321/321/321 323/323/323 322/322/322
f 324/324/324 322/322/322 323/323/323
f 323/323/323 325/325/325 324/324/324
f 326/326/326 324/324/324 325/325/325
f 325/325/325 327/327/327 326/326/326
f 328/328/328 326/326/326 327/327/327
f 327/327/327 329/329/329 328/328/328
f 330/330/330 328/328/328 329/329/329
f 329/329/329 331/331/331 330/330/330
f 332/332/332 330/330/330 331/331/331
f 331/331/331 333/333/333 332/332/332
f 334/334/334 332/332/332 333/333/333
f 333/333/333 335/335/335 334/334/334
f 336/336/336 334/334/334 335/335/335
f 335/335/335 337/337/337 336/336/336
f 338/338/338 336/336/336 337/337/337
f 337/337/337 339/339/339 338/338/338
f 340/340/340 338/338/338 339/339/339
f 339/339/339 341/341/341 340/340/340
f 342/342/342 340/340/340 341/341/341
f 341/341/341 343/343/343 342/342/342
f 344/344/344 342/342/342 343/343/343
f 343/343/343 345/345/345 344/344/344
f 346/346/346 344/344/344 345/345/345
f 345/345/345 347/347/347 346/346/346
f 348/348/348 346/346/346 347/347/347
f 347/347/347 349/349/349 348/348/348
f 350/350/350 348/348/348 349/349/349
f 349/349/349 351/351/351 350/350/350
f 352/352/352 350/350/350 351/351/351
f 351/351/351 320/320/320 352/352/352
f 318/318/318 352/352/352 320/320/320
f 355/355/355 354/354/354 353/353/353
f 356/356/356 353/353/353 354/354/354
f 359/359/359 358/358/358 357/357/357
f 360/360/360 357/357/357 358/358/358
f 363/363/363 362/362/362 361/361/361
f 366/366/366 365/365/365 364/364/364
f 369/369/369 368/368/368 367/367/367
f 372/372/372 371/371/371 370/370/370
f 375/375/375 374/374/374 373/373/373
f 376/376/376 373/373/373 374/374/374
f 379/379/379 378/378/378 377/377/377
f 380/380/380 377/377/377 378/378/378
f 383/383/383 382/382/382 381/381/381
f 384/384/384 381/381/381 382/382/382
f 387/387/387 386/386/386 385/385/385
f 388/388/388 385/385/385 386/386/386
f 391/391/391 390/390/390 389/389/389
f 392/392/392 389/389/389 390/390/390
f 395/395/395 394/394/394 393/393/393
f 396/396/396 393/393/393 394/394/394
f 399/399/399 398/398/398 397/397/397
f 400/400/400 397/397/397 398/398/398
f 403/403/403 402/402/402 401/401/401
f 404/404/404 401/401/401 402/402/402
f 407/407/407 406/406/406 405/405/405
f 408/408/408 405/405/405 406/406/406
f 411/411/411 410/410/410 409/409/409
f 412/412/412 409/409/409 410/410/410
f 415/415/415 414/414/414 413/413/413
f 418/418/418 417/417/417 416/416/416
f 421/421/421 420/420/420 419/419/419
f 424/424/424 423/423/423 422/422/422
f 427/427/427 426/426/426 425/425/425
f 428/428/428 425/425/425 426/426/426
f 431/431/431 430/430/430 429/429/429
f 432/432/432 429/429/429 430/430/430
f 435/435/435 434/434/434 433/433/433
f 436/436/436 433/433/433 434/434/434
f 439/439/439 438/438/438 437/437/437
f 440/440/440 437/437/437 438/438/438
f 443/443/443 442/442/442 441/441/441
f 444/444/444 441/441/441 442/442/442
f 447/447/447 446/446/446 445/445/445
f 448/448/448 445/445/445 446/446/446
f 451/451/451 450/450/450 449/449/449
f 452/452/452 449/449/449 450/450/450
f 455/455/455 454/454/454 453/453/453
f 456/456/456 453/453/453 454/454/454
f 459/459/459 458/458/458 457/457/457
f 460/460/460 457/457/457 458/458/458
f 463/463/463 462/462/462 461/461/461
f 464/464/464 461/461/461 462/462/462
f 467/467/467 466/466/466 465/465/465
f 468/468/468 465/465/465 466/466/466
f 471/471/471 470/470/470 469/469/469
f 472/472/472 469/469/469 470/470/470
f 475/475/475 474/474/474 473/473/473
f 476/476/476 473/473/473 474/474/474
f 479/479/479 478/478/478 477/477/477
f 480/480/480 477/477/477 478/478/478
f 483/483/483 482/482/482 481/481/481
f 484/484/484 481/481/481 482/482/482
f 487/487/487 486/486/486 485/485/485
f 488/488/488 485/485/485 486/486/486
f 491/491/491 490/490/490 489/489/489
f 492/492/492 489/489/489 490/490/490
f 495/495/495 494/494/494 493/493/493
f 496/496/496 493/493/493 494/494/494
f 499/499/499 498/498/498 497/497/497
f 500/500/500 497/497/497 498/498/498
f 503/503/503 502/502/502 501/501/501
f 504/504/504 501/501/501 502/502/502
f 507/507/507 506/506/506 505/505/505
f 508/508/508 505/505/505 506/506/506
f 511/511/511 510/510/510 509/509/509
f 512/512/512 509/509/509 510/510/510
f 515/515/515 514/514/514 513/513/513
f 516/516/516 513/513/513 514/514/514
f 519/519/519 518/518/518 517/517/517
f 522/522/522 521/521/521 520/520/520
f 521/521/521 523/523/523 520/520/520
f 525/525/525 524/524/524 523/523/523
f 526/526/526 524/524/524 525/525/525
f 529/529/529 528/528/528 527/527/527
f 532/532/532 531/531/531 530/530/530
f 535/535/535 534/534/534 533/533/533
f 538/538/538 537/537/537 536/536/536
f 541/541/541 540/540/540 539/539/539
f 544/544/544 543/543/543 542/542/542
f 543/543/543 545/545/545 542/542/542
f 548/548/548 547/547/547 546/546/546
