g Box128
v 6.083143 -2.29549 12.09027
v 2.985487 0.01941299 13.59964
v 6.296326 0.01941299 14.34171
v 2.985487 -2.22226 11.49466
v 0.2206211 0.01941299 13.35472
v 0.2206211 -2.150658 11.30019
v 6.083143 2.333502 12.09027
v 2.985487 2.260273 11.2587
v 0.2206211 2.188671 11.2945
v 6.074194 -2.735687 11.05935
v 2.985487 -2.22226 11.49466
v 6.083143 -2.29549 12.09027
v 2.980604 -2.735687 10.42712
v 0.2206211 -2.150658 11.30019
v 0.2206211 -2.735687 10.29612
v 6.251575 0.01941299 12.0203
v 6.296326 0.01941299 14.34171
v 6.083143 2.333502 12.09027
v 6.083143 -2.29549 12.09027
v 6.074194 0.01941299 11.05935
v 6.074194 2.774513 11.05935
v 6.074194 -2.735687 11.05935
v 6.074194 2.774513 11.05935
v 2.985487 2.260273 11.2587
v 2.980604 2.774513 10.42712
v 6.083143 2.333502 12.09027
v 0.2206211 2.774513 10.29612
v 0.2206211 2.188671 11.2945
v 26.51369 -2.586786 11.04551
v 22.10846 0.01941299 12.65578
v 26.8831 0.01941299 14.13178
v 22.10846 -2.503792 10.28554
v 16.94326 0.01941299 12.3718
v 22.10846 2.541803 10.02028
v 16.94326 2.459623 10.06097
v 16.94326 -2.42161 10.06097
v 26.51369 2.6248 11.04551
v 26.07187 -3.082312 9.993435
v 22.10846 -2.503792 10.28554
v 26.51369 -2.586786 11.04551
v 22.10358 -3.082312 9.083748
v 16.94326 -2.42161 10.06097
v 16.94326 -3.082312 9.001564
v 26.51369 -2.586786 11.04551
v 26.8831 0.01941299 14.13178
v 26.51369 2.6248 11.04551
v 26.07187 -3.082312 9.993435
v 26.07187 3.120327 9.993435
v 22.10358 3.120327 9.083748
v 16.94326 2.459623 10.06097
v 16.94326 3.120327 9.001564
v 22.10846 2.541803 10.02028
v 26.07187 3.120327 9.993435
v 26.51369 2.6248 11.04551
v 16.94326 2.459623 10.06097
v 4.56971 2.774513 8.654125
v 16.94326 3.120327 9.001564
v 4.56971 2.774513 8.654125
v 16.94326 2.459623 10.06097
v 4.56971 2.187044 10.10247
v 16.94326 0.01941299 12.3718
v 4.56971 2.187044 10.10247
v 16.94326 2.459623 10.06097
v 4.56971 0.01941299 12.15536
v 16.94326 -2.42161 10.06097
v 4.56971 0.01941299 12.15536
v 16.94326 0.01941299 12.3718
v 4.56971 -2.149029 10.10247
v 16.94326 -3.082312 9.001564
v 4.56971 -2.149029 10.10247
v 16.94326 -2.42161 10.06097
v 4.56971 -2.149029 10.10247
v 16.94326 -3.082312 9.001564
v 4.56971 -2.735687 8.654125
v -5.64109 -2.29549 12.09027
v -2.54343 0.01941299 13.59964
v -2.54343 -2.22226 11.49466
v -5.854271 0.01941299 14.34171
v 0.2206211 0.01941299 13.35472
v 0.2206211 -2.150658 11.30019
v -5.64109 2.333502 12.09027
v -2.54343 2.260273 11.2587
v 0.2206211 2.188671 11.2945
v -5.632137 -2.735687 11.05935
v -2.54343 -2.22226 11.49466
v -2.538549 -2.735687 10.42712
v -5.64109 -2.29549 12.09027
v 0.2206211 -2.150658 11.30019
v 0.2206211 -2.735687 10.29612
v -5.809521 0.01941299 12.0203
v -5.64109 2.333502 12.09027
v -5.854271 0.01941299 14.34171
v -5.64109 -2.29549 12.09027
v -5.632137 0.01941299 11.05935
v -5.632137 2.774513 11.05935
v -5.632137 -2.735687 11.05935
v -5.632137 2.774513 11.05935
v -2.54343 2.260273 11.2587
v -5.64109 2.333502 12.09027
v -2.538549 2.774513 10.42712
v 0.2206211 2.774513 10.29612
v 0.2206211 2.188671 11.2945
v -26.07164 -2.586786 11.04551
v -21.6664 0.01941299 12.65578
v -21.6664 -2.503792 10.28554
v -26.44105 0.01941299 14.13178
v -16.5012 0.01941299 12.3718
v -21.6664 2.541803 10.02028
v -16.5012 2.459623 10.06097
v -16.5012 -2.42161 10.06097
v -26.07164 2.6248 11.04551
v -25.62981 -3.082312 9.993435
v -21.6664 -2.503792 10.28554
v -21.66153 -3.082312 9.083748
v -26.07164 -2.586786 11.04551
v -16.5012 -2.42161 10.06097
v -16.5012 -3.082312 9.001564
v -26.07164 -2.586786 11.04551
v -26.07164 2.6248 11.04551
v -26.44105 0.01941299 14.13178
v -25.62981 -3.082312 9.993435
v -25.62981 3.120327 9.993435
v -21.66153 3.120327 9.083748
v -16.5012 2.459623 10.06097
v -21.6664 2.541803 10.02028
v -16.5012 3.120327 9.001564
v -25.62981 3.120327 9.993435
v -26.07164 2.6248 11.04551
v -4.127655 2.774513 8.654125
v -16.5012 2.459623 10.06097
v -4.127655 2.774513 8.654125
v -4.127655 2.187044 10.10247
v -16.5012 0.01941299 12.3718
v -4.127655 2.187044 10.10247
v -4.127655 0.01941299 12.15536
v -16.5012 2.459623 10.06097
v -16.5012 -2.42161 10.06097
v -4.127655 0.01941299 12.15536
v -4.127655 -2.149029 10.10247
v -16.5012 0.01941299 12.3718
v -16.5012 -3.082312 9.001564
v -4.127655 -2.149029 10.10247
v -4.127655 -2.735687 8.654125
v -4.127655 -2.149029 10.10247
v -16.5012 -3.082312 9.001564
v -16.5012 -2.42161 10.06097
v 16.27848 -0.549345 9.544285
v 16.27848 -1.317455 1.680937
v 16.27848 -0.549345 1.680937
v 16.27848 -1.317455 9.544285
v 16.27848 -1.317455 9.544285
v 17.04659 -1.317455 1.680937
v 16.27848 -1.317455 1.680937
v 17.04659 -1.317455 9.544285
v 17.04659 -1.317455 9.544285
v 17.04659 -0.549345 1.680937
v 17.04659 -1.317455 1.680937
v 17.04659 -0.549345 9.544285
v 16.27848 0.6264133 1.680937
v 16.27848 1.394524 9.544285
v 16.27848 0.6264133 9.544285
v 16.27848 1.394524 1.680937
v 16.27848 1.394524 1.680937
v 17.04659 1.394524 9.544285
v 16.27848 1.394524 9.544285
v 17.04659 1.394524 1.680937
v 17.04659 1.394524 1.680937
v 17.04659 0.6264133 9.544285
v 17.04659 1.394524 9.544285
v 17.04659 0.6264133 1.680937
v 21.99699 -0.549345 9.544285
v 21.99699 -1.317455 1.680937
v 21.99699 -0.549345 1.680937
v 21.99699 -1.317455 9.544285
v 21.99699 -1.317455 9.544285
v 22.7651 -1.317455 1.680937
v 21.99699 -1.317455 1.680937
v 22.7651 -1.317455 9.544285
v 22.7651 -1.317455 9.544285
v 22.7651 -0.549345 1.680937
v 22.7651 -1.317455 1.680937
v 22.7651 -0.549345 9.544285
v 21.99699 0.6264133 1.680937
v 21.99699 1.394524 9.544285
v 21.99699 0.6264133 9.544285
v 21.99699 1.394524 1.680937
v 21.99699 1.394524 1.680937
v 22.7651 1.394524 9.544285
v 21.99699 1.394524 9.544285
v 22.7651 1.394524 1.680937
v 22.7651 1.394524 1.680937
v 22.7651 0.6264133 9.544285
v 22.7651 1.394524 9.544285
v 22.7651 0.6264133 1.680937
v 10.56568 -0.549345 9.544285
v 10.56568 -1.317455 1.680937
v 10.56568 -0.549345 1.680937
v 10.56568 -1.317455 9.544285
v 10.56568 -1.317455 9.544285
v 11.33379 -1.317455 1.680937
v 10.56568 -1.317455 1.680937
v 11.33379 -1.317455 9.544285
v 11.33379 -1.317455 9.544285
v 11.33379 -0.549345 1.680937
v 11.33379 -1.317455 1.680937
v 11.33379 -0.549345 9.544285
v 10.56568 0.6264133 1.680937
v 10.56568 1.394524 9.544285
v 10.56568 0.6264133 9.544285
v 10.56568 1.394524 1.680937
v 10.56568 1.394524 1.680937
v 11.33379 1.394524 9.544285
v 10.56568 1.394524 9.544285
v 11.33379 1.394524 1.680937
v 11.33379 1.394524 1.680937
v 11.33379 0.6264133 9.544285
v 11.33379 1.394524 9.544285
v 11.33379 0.6264133 1.680937
v 5.061983 -0.549345 9.544285
v 5.061983 -1.317455 1.680937
v 5.061983 -0.549345 1.680937
v 5.061983 -1.317455 9.544285
v 5.061983 -1.317455 9.544285
v 5.830091 -1.317455 1.680937
v 5.061983 -1.317455 1.680937
v 5.830091 -1.317455 9.544285
v 5.830091 -1.317455 9.544285
v 5.830091 -0.549345 1.680937
v 5.830091 -1.317455 1.680937
v 5.830091 -0.549345 9.544285
v 5.061983 0.6264133 1.680937
v 5.061983 1.394524 9.544285
v 5.061983 0.6264133 9.544285
v 5.061983 1.394524 1.680937
v 5.061983 1.394524 1.680937
v 5.830091 1.394524 9.544285
v 5.061983 1.394524 9.544285
v 5.830091 1.394524 1.680937
v 5.830091 1.394524 1.680937
v 5.830091 0.6264133 9.544285
v 5.830091 1.394524 9.544285
v 5.830091 0.6264133 1.680937
v -15.83643 -0.549345 9.544285
v -15.83643 -1.317455 1.680937
v -15.83643 -1.317455 9.544285
v -15.83643 -0.549345 1.680937
v -15.83643 -1.317455 9.544285
v -16.60454 -1.317455 1.680937
v -16.60454 -1.317455 9.544285
v -15.83643 -1.317455 1.680937
v -16.60454 -1.317455 9.544285
v -16.60454 -0.549345 1.680937
v -16.60454 -0.549345 9.544285
v -16.60454 -1.317455 1.680937
v -15.83643 0.6264133 1.680937
v -15.83643 1.394524 9.544285
v -15.83643 1.394524 1.680937
v -15.83643 0.6264133 9.544285
v -15.83643 1.394524 1.680937
v -16.60454 1.394524 9.544285
v -16.60454 1.394524 1.680937
v -15.83643 1.394524 9.544285
v -16.60454 1.394524 1.680937
v -16.60454 0.6264133 9.544285
v -16.60454 0.6264133 1.680937
v -16.60454 1.394524 9.544285
v -21.55494 -0.549345 9.544285
v -21.55494 -1.317455 1.680937
v -21.55494 -1.317455 9.544285
v -21.55494 -0.549345 1.680937
v -21.55494 -1.317455 9.544285
v -22.32304 -1.317455 1.680937
v -22.32304 -1.317455 9.544285
v -21.55494 -1.317455 1.680937
v -22.32304 -1.317455 9.544285
v -22.32304 -0.549345 1.680937
v -22.32304 -0.549345 9.544285
v -22.32304 -1.317455 1.680937
v -21.55494 0.6264133 1.680937
v -21.55494 1.394524 9.544285
v -21.55494 1.394524 1.680937
v -21.55494 0.6264133 9.544285
v -21.55494 1.394524 1.680937
v -22.32304 1.394524 9.544285
v -22.32304 1.394524 1.680937
v -21.55494 1.394524 9.544285
v -22.32304 1.394524 1.680937
v -22.32304 0.6264133 9.544285
v -22.32304 0.6264133 1.680937
v -22.32304 1.394524 9.544285
v -10.12362 -0.549345 9.544285
v -10.12362 -1.317455 1.680937
v -10.12362 -1.317455 9.544285
v -10.12362 -0.549345 1.680937
v -10.12362 -1.317455 9.544285
v -10.89173 -1.317455 1.680937
v -10.89173 -1.317455 9.544285
v -10.12362 -1.317455 1.680937
v -10.89173 -1.317455 9.544285
v -10.89173 -0.549345 1.680937
v -10.89173 -0.549345 9.544285
v -10.89173 -1.317455 1.680937
v -10.12362 0.6264133 1.680937
v -10.12362 1.394524 9.544285
v -10.12362 1.394524 1.680937
v -10.12362 0.6264133 9.544285
v -10.12362 1.394524 1.680937
v -10.89173 1.394524 9.544285
v -10.89173 1.394524 1.680937
v -10.12362 1.394524 9.544285
v -10.89173 1.394524 1.680937
v -10.89173 0.6264133 9.544285
v -10.89173 0.6264133 1.680937
v -10.89173 1.394524 9.544285
v -4.619928 -0.549345 9.544285
v -4.619928 -1.317455 1.680937
v -4.619928 -1.317455 9.544285
v -4.619928 -0.549345 1.680937
v -4.619928 -1.317455 9.544285
v -5.388039 -1.317455 1.680937
v -5.388039 -1.317455 9.544285
v -4.619928 -1.317455 1.680937
v -5.388039 -1.317455 9.544285
v -5.388039 -0.549345 1.680937
v -5.388039 -0.549345 9.544285
v -5.388039 -1.317455 1.680937
v -4.619928 0.6264133 1.680937
v -4.619928 1.394524 9.544285
v -4.619928 1.394524 1.680937
v -4.619928 0.6264133 9.544285
v -4.619928 1.394524 1.680937
v -5.388039 1.394524 9.544285
v -5.388039 1.394524 1.680937
v -4.619928 1.394524 9.544285
v -5.388039 1.394524 1.680937
v -5.388039 0.6264133 9.544285
v -5.388039 0.6264133 1.680937
v -5.388039 1.394524 9.544285
v 4.446032 -0.6518669 1.680937
v 22.7537 -0.6518669 9.544285
v 22.7537 -0.6518669 1.680937
v 4.446032 -0.6518669 9.544285
v 22.7537 -0.6518669 1.680937
v 22.7537 0.7281246 9.544285
v 22.7537 0.7281246 1.680937
v 22.7537 -0.6518669 9.544285
v 22.7537 0.7281246 1.680937
v 4.446032 0.7281246 9.544285
v 4.446032 0.7281246 1.680937
v 22.7537 0.7281246 9.544285
v -4.003977 -0.6518669 1.680937
v -22.31165 -0.6518669 9.544285
v -4.003977 -0.6518669 9.544285
v -22.31165 -0.6518669 1.680937
v -22.31165 -0.6518669 1.680937
v -22.31165 0.7281246 9.544285
v -22.31165 -0.6518669 9.544285
v -22.31165 0.7281246 1.680937
v -22.31165 0.7281246 1.680937
v -4.003977 0.7281246 9.544285
v -22.31165 0.7281246 9.544285
v -4.003977 0.7281246 1.680937
v 4.790216 2.257832 0.4962254
v 4.790216 -2.180763 9.117107
v 4.790216 2.257832 9.117107
v 4.790216 -2.180763 0.4962254
v 4.790216 2.257832 10.69726
v 4.790216 -2.180763 10.69726
v 0.2206211 -2.180763 10.69726
v 1.786131 -2.180763 9.653316
v 0.2206211 -2.180763 9.653316
v 2.903305 -2.180763 10.69726
v 2.903305 -2.180763 9.117107
v 4.790216 -2.180763 9.117107
v 4.790216 -2.180763 0.4962254
v 2.903305 -2.180763 0.4962254
v 4.790216 -2.180763 10.69726
v 4.790216 2.257832 9.117107
v 2.903305 2.257832 0.4962254
v 4.790216 2.257832 0.4962254
v 2.903305 2.257832 9.117107
v 4.790216 2.257832 10.69726
v 2.903305 2.257832 10.69726
v 1.786131 2.257832 9.653316
v 0.2206211 2.257832 10.69726
v 0.2206211 2.257832 9.653316
v 2.585972 -2.836584 2.958405
v 6.535547 2.746849 2.958405
v 6.535547 -2.836584 2.958405
v 2.585972 2.746849 2.958405
v 2.585972 -2.836584 0.1715717
v 6.535547 -2.836584 2.958405
v 6.535547 -2.836584 0.1715717
v 2.585972 -2.836584 2.958405
v 6.535547 -2.836584 0.1715717
v 6.535547 2.746849 2.958405
v 6.535547 2.746849 0.1715717
v 6.535547 -2.836584 2.958405
v 6.535547 2.746849 0.1715717
v 2.585972 2.746849 2.958405
v 2.585972 2.746849 0.1715717
v 6.535547 2.746849 2.958405
v 2.585972 2.746849 0.1715717
v 2.585972 -2.836584 2.958405
v 2.585972 -2.836584 0.1715717
v 2.585972 2.746849 2.958405
v 4.869957 -2.39069 1.901442
v 22.7537 2.46776 1.901442
v 22.7537 -2.39069 1.901442
v 4.869957 2.46776 1.901442
v 4.869957 -2.39069 0.4474049
v 22.7537 -2.39069 1.901442
v 22.7537 -2.39069 0.4474049
v 4.869957 -2.39069 1.901442
v 22.7537 -2.39069 0.4474049
v 22.7537 2.46776 1.901442
v 22.7537 2.46776 0.4474049
v 22.7537 -2.39069 1.901442
v 22.7537 2.46776 0.4474049
v 4.869957 2.46776 1.901442
v 4.869957 2.46776 0.4474049
v 22.7537 2.46776 1.901442
v 4.869957 2.46776 0.4474049
v 4.869957 -2.39069 1.901442
v 4.869957 -2.39069 0.4474049
v 4.869957 2.46776 1.901442
v -4.348162 2.257832 0.4962254
v -4.348162 -2.180763 9.117107
v -4.348162 -2.180763 0.4962254
v -4.348162 2.257832 9.117107
v -4.348162 2.257832 10.69726
v -4.348162 -2.180763 10.69726
v 0.2206211 -2.180763 10.69726
v -1.344076 -2.180763 9.653316
v -2.46125 -2.180763 10.69726
v 0.2206211 -2.180763 9.653316
v -2.46125 -2.180763 9.117107
v -4.348162 -2.180763 9.117107
v -4.348162 -2.180763 0.4962254
v -2.46125 -2.180763 0.4962254
v -4.348162 -2.180763 10.69726
v -4.348162 2.257832 9.117107
v -2.46125 2.257832 0.4962254
v -2.46125 2.257832 9.117107
v -4.348162 2.257832 0.4962254
v -4.348162 2.257832 10.69726
v -2.46125 2.257832 10.69726
v -1.344076 2.257832 9.653316
v 0.2206211 2.257832 10.69726
v 0.2206211 2.257832 9.653316
v -2.143915 -2.836584 2.958405
v -6.093491 2.746849 2.958405
v -2.143915 2.746849 2.958405
v -6.093491 -2.836584 2.958405
v -2.143915 -2.836584 0.1715717
v -6.093491 -2.836584 2.958405
v -2.143915 -2.836584 2.958405
v -6.093491 -2.836584 0.1715717
v -6.093491 -2.836584 0.1715717
v -6.093491 2.746849 2.958405
v -6.093491 -2.836584 2.958405
v -6.093491 2.746849 0.1715717
v -6.093491 2.746849 0.1715717
v -2.143915 2.746849 2.958405
v -6.093491 2.746849 2.958405
v -2.143915 2.746849 0.1715717
v -2.143915 2.746849 0.1715717
v -2.143915 -2.836584 2.958405
v -2.143915 2.746849 2.958405
v -2.143915 -2.836584 0.1715717
v -4.4279 -2.39069 1.901442
v -22.31165 2.46776 1.901442
v -4.4279 2.46776 1.901442
v -22.31165 -2.39069 1.901442
v -4.4279 -2.39069 0.4474049
v -22.31165 -2.39069 1.901442
v -4.4279 -2.39069 1.901442
v -22.31165 -2.39069 0.4474049
v -22.31165 -2.39069 0.4474049
v -22.31165 2.46776 1.901442
v -22.31165 -2.39069 1.901442
v -22.31165 2.46776 0.4474049
v -22.31165 2.46776 0.4474049
v -4.4279 2.46776 1.901442
v -22.31165 2.46776 1.901442
v -4.4279 2.46776 0.4474049
v -4.4279 2.46776 0.4474049
v -4.4279 -2.39069 1.901442
v -4.4279 2.46776 1.901442
v -4.4279 -2.39069 0.4474049
vn -0.1607832 -0.6784261 0.7168589
vn -0.1686262 0.01960778 0.985485
vn -0.2156847 0.003921628 0.9764552
vn -0.1058816 -0.6784261 0.7269986
vn -0.003921628 0.01960778 0.9998001
vn -0.003921628 -0.6862693 0.727337
vn -0.1764693 0.6941124 0.6979015
vn -0.1137247 0.7097986 0.6951637
vn -0.003921628 0.6862693 0.727337
vn -0.09803855 -0.9137185 0.3943436
vn -0.07450926 -0.8980324 0.4335738
vn -0.09803855 -0.9137185 0.3943436
vn -0.06666625 -0.8980324 0.4348488
vn -0.003921628 -0.8745031 0.485004
vn -0.003921628 -0.8666601 0.4988837
vn 0.9921493 0.01176465 -0.1245045
vn 0.9999924 0.003921628 0
vn 0.9999924 0.03529394 0
vn 0.9999924 -0.0745092 0
vn 0.9843062 0.0274508 -0.1743208
vn 0.9999924 0.003921628 0
vn 0.9999924 -0.05097997 0
vn -0.1215677 0.8980324 0.4227991
vn -0.06666625 0.858817 0.5079262
vn -0.06666625 0.850974 0.5209597
vn -0.1294109 0.9137186 0.3851898
vn -0.003921628 0.858817 0.5122675
vn -0.003921628 0.858817 0.5122675
vn -0.1764693 -0.7176416 0.6736833
vn -0.1607832 0.01960778 0.9867949
vn -0.2941154 0.003921628 0.9557618
vn -0.09019542 -0.6862693 0.7217335
vn -0.04313695 0.01176465 0.9989999
vn -0.09803855 0.7097986 0.6975489
vn -0.003921628 0.6862693 0.727337
vn -0.04313695 -0.6862693 0.7260672
vn -0.1921555 0.7254847 0.6608693
vn -0.09803855 -0.8823462 0.4602756
vn -0.06666625 -0.8980324 0.4348488
vn -0.09803855 -0.8823462 0.4602756
vn -0.05882311 -0.8980324 0.435979
vn -0.01176465 -0.858817 0.5121474
vn -0.01176465 -0.8509739 0.5250762
vn 0.9529339 0.003921628 -0.3031528
vn 0.9921493 0.003921628 -0.1249976
vn 0.9529339 0.003921628 -0.3031528
vn 0.9215616 0.003921628 -0.3882124
vn 0.9215616 0.003921628 -0.3882124
vn -0.05882311 0.850974 0.5219034
vn -0.01176465 0.850974 0.5250761
vn -0.01176465 0.850974 0.5250761
vn -0.06666625 0.850974 0.5209597
vn -0.1215677 0.8745031 0.4695376
vn -0.1215677 0.8745031 0.4695376
vn -0.03529394 0.850974 0.5240207
vn -0.03529394 0.850974 0.5240207
vn -0.03529394 0.850974 0.5240207
vn -0.01960778 0.9294047 0.3685409
vn -0.01960778 0.9294047 0.3685409
vn -0.01960778 0.9294047 0.3685409
vn -0.01176465 0.6862693 0.7272524
vn -0.01176465 0.6862693 0.7272524
vn -0.01176465 0.6862693 0.7272524
vn -0.01176465 0.6862693 0.7272524
vn -0.01176465 -0.6862693 0.7272524
vn -0.01176465 -0.6862693 0.7272524
vn -0.01176465 -0.6862693 0.7272524
vn -0.01176465 -0.6862693 0.7272524
vn -0.01960778 -0.8509739 0.5248418
vn -0.01960778 -0.8509739 0.5248418
vn -0.01960778 -0.8509739 0.5248418
vn -0.03529394 -0.9294047 0.3673707
vn -0.03529394 -0.9294047 0.3673707
vn -0.03529394 -0.9294047 0.3673707
vn 0.1607831 -0.6784261 0.716859
vn 0.1686261 0.01960778 0.9854851
vn 0.1058815 -0.6784261 0.7269986
vn 0.2156846 0.003921628 0.9764552
vn -0.003921628 0.01960778 0.9998001
vn -0.003921628 -0.6862693 0.727337
vn 0.1764692 0.6941124 0.6979015
vn 0.1137246 0.7097986 0.6951638
vn -0.003921628 0.6862693 0.727337
vn 0.09803843 -0.9137185 0.3943436
vn 0.0745092 -0.8980324 0.4335738
vn 0.06666613 -0.8980324 0.4348488
vn 0.09803843 -0.9137185 0.3943436
vn -0.003921628 -0.8745031 0.485004
vn -0.003921628 -0.8666601 0.4988837
vn -0.9921494 0.01176465 -0.124504
vn -0.9999924 0.03529394 0
vn -0.9999924 0.003921628 0
vn -0.9999924 -0.0745092 0
vn -0.9843062 0.0274508 -0.1743208
vn -0.9999924 0.003921628 0
vn -0.9999924 -0.05097997 0
vn 0.1215677 0.8980324 0.4227991
vn 0.06666613 0.858817 0.5079262
vn 0.1294107 0.9137186 0.3851899
vn 0.06666613 0.850974 0.5209597
vn -0.003921628 0.858817 0.5122675
vn -0.003921628 0.858817 0.5122675
vn 0.1764692 -0.7176416 0.6736833
vn 0.1607831 0.01960778 0.986795
vn 0.09019536 -0.6862693 0.7217335
vn 0.2941154 0.003921628 0.9557618
vn 0.04313689 0.01176465 0.9989999
vn 0.09803843 0.7097986 0.6975489
vn 0.003921509 0.6862693 0.727337
vn 0.04313689 -0.6862693 0.7260672
vn 0.1921554 0.7254847 0.6608693
vn 0.09803843 -0.8823462 0.4602756
vn 0.06666613 -0.8980324 0.4348488
vn 0.05882305 -0.8980324 0.435979
vn 0.09803843 -0.8823462 0.4602756
vn 0.01176459 -0.858817 0.5121474
vn 0.01176459 -0.8509739 0.5250762
vn -0.9529339 0.003921628 -0.3031528
vn -0.9529339 0.003921628 -0.3031528
vn -0.9921494 0.003921628 -0.1249971
vn -0.9215616 0.003921628 -0.3882124
vn -0.9215616 0.003921628 -0.3882124
vn 0.05882305 0.850974 0.5219034
vn 0.01176459 0.850974 0.5250761
vn 0.06666613 0.850974 0.5209597
vn 0.01176459 0.850974 0.5250761
vn 0.1215677 0.8745031 0.4695376
vn 0.1215677 0.8745031 0.4695376
vn 0.03529382 0.850974 0.5240207
vn 0.01960766 0.9294047 0.3685409
vn 0.01960766 0.9294047 0.3685409
vn 0.01960766 0.9294047 0.3685409
vn 0.01176459 0.6862693 0.7272524
vn 0.01176459 0.6862693 0.7272524
vn 0.01176459 0.6862693 0.7272524
vn 0.01176459 0.6862693 0.7272524
vn 0.01176459 -0.6862693 0.7272524
vn 0.01176459 -0.6862693 0.7272524
vn 0.01176459 -0.6862693 0.7272524
vn 0.01176459 -0.6862693 0.7272524
vn 0.03529382 -0.9294047 0.3673707
vn 0.03529382 -0.9294047 0.3673707
vn 0.03529382 -0.9294047 0.3673707
vn 0.01960766 -0.8509739 0.5248418
vn 0.01960766 -0.8509739 0.5248418
vn 0.01960766 -0.8509739 0.5248418
vn -0.9999924 0.003921628 0
vn -0.9999924 0.003921628 0
vn -0.9999924 0.003921628 0
vn -0.9999924 0.003921628 0
vn -0.003921628 -0.9999924 0
vn -0.003921628 -0.9999924 0
vn -0.003921628 -0.9999924 0
vn -0.003921628 -0.9999924 0
vn 0.9999924 0.003921628 0
vn 0.9999924 0.003921628 0
vn 0.9999924 0.003921628 0
vn 0.9999924 0.003921628 0
vn -0.9999924 0.003921628 0
vn -0.9999924 0.003921628 0
vn -0.9999924 0.003921628 0
vn -0.9999924 0.003921628 0
vn -0.003921628 0.9999924 0
vn -0.003921628 0.9999924 0
vn -0.003921628 0.9999924 0
vn -0.003921628 0.9999924 0
vn 0.9999924 0.003921628 0
vn 0.9999924 0.003921628 0
vn 0.9999924 0.003921628 0
vn 0.9999924 0.003921628 0
vn -0.9999924 0.003921628 0
vn -0.9999924 0.003921628 0
vn -0.9999924 0.003921628 0
vn -0.9999924 0.003921628 0
vn -0.003921628 -0.9999924 0
vn -0.003921628 -0.9999924 0
vn -0.003921628 -0.9999924 0
vn -0.003921628 -0.9999924 0
vn 0.9999924 0.003921628 0
vn 0.9999924 0.003921628 0
vn 0.9999924 0.003921628 0
vn 0.9999924 0.003921628 0
vn -0.9999924 0.003921628 0
vn -0.9999924 0.003921628 0
vn -0.9999924 0.003921628 0
vn -0.9999924 0.003921628 0
vn -0.003921628 0.9999924 0
vn -0.003921628 0.9999924 0
vn -0.003921628 0.9999924 0
vn -0.003921628 0.9999924 0
vn 0.9999924 0.003921628 0
vn 0.9999924 0.003921628 0
vn 0.9999924 0.003921628 0
vn 0.9999924 0.003921628 0
vn -0.9999924 0.003921628 0
vn -0.9999924 0.003921628 0
vn -0.9999924 0.003921628 0
vn -0.9999924 0.003921628 0
vn -0.003921628 -0.9999924 0
vn -0.003921628 -0.9999924 0
vn -0.003921628 -0.9999924 0
vn -0.003921628 -0.9999924 0
vn 0.9999924 0.003921628 0
vn 0.9999924 0.003921628 0
vn 0.9999924 0.003921628 0
vn 0.9999924 0.003921628 0
vn -0.9999924 0.003921628 0
vn -0.9999924 0.003921628 0
vn -0.9999924 0.003921628 0
vn -0.9999924 0.003921628 0
vn -0.003921628 0.9999924 0
vn -0.003921628 0.9999924 0
vn -0.003921628 0.9999924 0
vn -0.003921628 0.9999924 0
vn 0.9999924 0.003921628 0
vn 0.9999924 0.003921628 0
vn 0.9999924 0.003921628 0
vn 0.9999924 0.003921628 0
vn -0.9999924 0.003921628 0
vn -0.9999924 0.003921628 0
vn -0.9999924 0.003921628 0
vn -0.9999924 0.003921628 0
vn -0.003921628 -0.9999924 0
vn -0.003921628 -0.9999924 0
vn -0.003921628 -0.9999924 0
vn -0.003921628 -0.9999924 0
vn 0.9999924 0.003921628 0
vn 0.9999924 0.003921628 0
vn 0.9999924 0.003921628 0
vn 0.9999924 0.003921628 0
vn -0.9999924 0.003921628 0
vn -0.9999924 0.003921628 0
vn -0.9999924 0.003921628 0
vn -0.9999924 0.003921628 0
vn -0.003921628 0.9999924 0
vn -0.003921628 0.9999924 0
vn -0.003921628 0.9999924 0
vn -0.003921628 0.9999924 0
vn 0.9999924 0.003921628 0
vn 0.9999924 0.003921628 0
vn 0.9999924 0.003921628 0
vn 0.9999924 0.003921628 0
vn 0.9999924 0.003921628 0
vn 0.9999924 0.003921628 0
vn 0.9999924 0.003921628 0
vn 0.9999924 0.003921628 0
vn -0.003921628 -0.9999924 0
vn -0.003921628 -0.9999924 0
vn -0.003921628 -0.9999924 0
vn -0.003921628 -0.9999924 0
vn -0.9999924 0.003921628 0
vn -0.9999924 0.003921628 0
vn -0.9999924 0.003921628 0
vn -0.9999924 0.003921628 0
vn 0.9999924 0.003921628 0
vn 0.9999924 0.003921628 0
vn 0.9999924 0.003921628 0
vn 0.9999924 0.003921628 0
vn -0.003921628 0.9999924 0
vn -0.003921628 0.9999924 0
vn -0.003921628 0.9999924 0
vn -0.003921628 0.9999924 0
vn -0.9999924 0.003921628 0
vn -0.9999924 0.003921628 0
vn -0.9999924 0.003921628 0
vn -0.9999924 0.003921628 0
vn 0.9999924 0.003921628 0
vn 0.9999924 0.003921628 0
vn 0.9999924 0.003921628 0
vn 0.9999924 0.003921628 0
vn -0.003921628 -0.9999924 0
vn -0.003921628 -0.9999924 0
vn -0.003921628 -0.9999924 0
vn -0.003921628 -0.9999924 0
vn -0.9999924 0.003921628 0
vn -0.9999924 0.003921628 0
vn -0.9999924 0.003921628 0
vn -0.9999924 0.003921628 0
vn 0.9999924 0.003921628 0
vn 0.9999924 0.003921628 0
vn 0.9999924 0.003921628 0
vn 0.9999924 0.003921628 0
vn -0.003921628 0.9999924 0
vn -0.003921628 0.9999924 0
vn -0.003921628 0.9999924 0
vn -0.003921628 0.9999924 0
vn -0.9999924 0.003921628 0
vn -0.9999924 0.003921628 0
vn -0.9999924 0.003921628 0
vn -0.9999924 0.003921628 0
vn 0.9999924 0.003921628 0
vn 0.9999924 0.003921628 0
vn 0.9999924 0.003921628 0
vn 0.9999924 0.003921628 0
vn -0.003921628 -0.9999924 0
vn -0.003921628 -0.9999924 0
vn -0.003921628 -0.9999924 0
vn -0.003921628 -0.9999924 0
vn -0.9999924 0.003921628 0
vn -0.9999924 0.003921628 0
vn -0.9999924 0.003921628 0
vn -0.9999924 0.003921628 0
vn 0.9999924 0.003921628 0
vn 0.9999924 0.003921628 0
vn 0.9999924 0.003921628 0
vn 0.9999924 0.003921628 0
vn -0.003921628 0.9999924 0
vn -0.003921628 0.9999924 0
vn -0.003921628 0.9999924 0
vn -0.003921628 0.9999924 0
vn -0.9999924 0.003921628 0
vn -0.9999924 0.003921628 0
vn -0.9999924 0.003921628 0
vn -0.9999924 0.003921628 0
vn 0.9999924 0.003921628 0
vn 0.9999924 0.003921628 0
vn 0.9999924 0.003921628 0
vn 0.9999924 0.003921628 0
vn -0.003921628 -0.9999924 0
vn -0.003921628 -0.9999924 0
vn -0.003921628 -0.9999924 0
vn -0.003921628 -0.9999924 0
vn -0.9999924 0.003921628 0
vn -0.9999924 0.003921628 0
vn -0.9999924 0.003921628 0
vn -0.9999924 0.003921628 0
vn 0.9999924 0.003921628 0
vn 0.9999924 0.003921628 0
vn 0.9999924 0.003921628 0
vn 0.9999924 0.003921628 0
vn -0.003921628 0.9999924 0
vn -0.003921628 0.9999924 0
vn -0.003921628 0.9999924 0
vn -0.003921628 0.9999924 0
vn -0.9999924 0.003921628 0
vn -0.9999924 0.003921628 0
vn -0.9999924 0.003921628 0
vn -0.9999924 0.003921628 0
vn -0.003921628 -0.9999924 0
vn -0.003921628 -0.9999924 0
vn -0.003921628 -0.9999924 0
vn -0.003921628 -0.9999924 0
vn 0.9999924 0.003921628 0
vn 0.9999924 0.003921628 0
vn 0.9999924 0.003921628 0
vn 0.9999924 0.003921628 0
vn -0.003921628 0.9999924 0
vn -0.003921628 0.9999924 0
vn -0.003921628 0.9999924 0
vn -0.003921628 0.9999924 0
vn -0.003921628 -0.9999924 0
vn -0.003921628 -0.9999924 0
vn -0.003921628 -0.9999924 0
vn -0.003921628 -0.9999924 0
vn -0.9999924 0.003921628 0
vn -0.9999924 0.003921628 0
vn -0.9999924 0.003921628 0
vn -0.9999924 0.003921628 0
vn -0.003921628 0.9999924 0
vn -0.003921628 0.9999924 0
vn -0.003921628 0.9999924 0
vn -0.003921628 0.9999924 0
vn 0.9999924 0.003921628 0
vn 0.9999924 0.003921628 0
vn 0.9999924 0.003921628 0
vn 0.9999924 0.003921628 0
vn 0.9999924 0.003921628 0
vn 0.9999924 0.003921628 0
vn -0.003921628 -0.9999924 0
vn -0.003921628 -0.9999924 0
vn -0.003921628 -0.9999924 0
vn -0.003921628 -0.9999924 0
vn -0.003921628 -0.9999924 0
vn -0.003921628 -0.9999924 0
vn -0.003921628 -0.9999924 0
vn -0.003921628 -0.9999924 0
vn -0.003921628 -0.9999924 0
vn -0.003921628 0.9999924 0
vn -0.003921628 0.9999924 0
vn -0.003921628 0.9999924 0
vn -0.003921628 0.9999924 0
vn -0.003921628 0.9999924 0
vn -0.003921628 0.9999924 0
vn -0.003921628 0.9999924 0
vn -0.003921628 0.9999924 0
vn -0.003921628 0.9999924 0
vn -0.003921628 0.003921628 0.9999846
vn -0.003921628 0.003921628 0.9999846
vn -0.003921628 0.003921628 0.9999846
vn -0.003921628 0.003921628 0.9999846
vn -0.003921628 -0.9999924 0
vn -0.003921628 -0.9999924 0
vn -0.003921628 -0.9999924 0
vn -0.003921628 -0.9999924 0
vn 0.9999924 0.003921628 0
vn 0.9999924 0.003921628 0
vn 0.9999924 0.003921628 0
vn 0.9999924 0.003921628 0
vn -0.003921628 0.9999924 0
vn -0.003921628 0.9999924 0
vn -0.003921628 0.9999924 0
vn -0.003921628 0.9999924 0
vn -0.9999924 0.003921628 0
vn -0.9999924 0.003921628 0
vn -0.9999924 0.003921628 0
vn -0.9999924 0.003921628 0
vn -0.003921628 0.003921628 0.9999846
vn -0.003921628 0.003921628 0.9999846
vn -0.003921628 0.003921628 0.9999846
vn -0.003921628 0.003921628 0.9999846
vn -0.003921628 -0.9999924 0
vn -0.003921628 -0.9999924 0
vn -0.003921628 -0.9999924 0
vn -0.003921628 -0.9999924 0
vn 0.9999924 0.003921628 0
vn 0.9999924 0.003921628 0
vn 0.9999924 0.003921628 0
vn 0.9999924 0.003921628 0
vn -0.003921628 0.9999924 0
vn -0.003921628 0.9999924 0
vn -0.003921628 0.9999924 0
vn -0.003921628 0.9999924 0
vn -0.9999924 0.003921628 0
vn -0.9999924 0.003921628 0
vn -0.9999924 0.003921628 0
vn -0.9999924 0.003921628 0
vn -0.9999924 0.003921628 0
vn -0.9999924 0.003921628 0
vn -0.9999924 0.003921628 0
vn -0.9999924 0.003921628 0
vn -0.9999924 0.003921628 0
vn -0.9999924 0.003921628 0
vn -0.003921628 -0.9999924 0
vn -0.003921628 -0.9999924 0
vn -0.003921628 -0.9999924 0
vn -0.003921628 -0.9999924 0
vn -0.003921628 -0.9999924 0
vn -0.003921628 -0.9999924 0
vn -0.003921628 -0.9999924 0
vn -0.003921628 -0.9999924 0
vn -0.003921628 -0.9999924 0
vn -0.003921628 0.9999924 0
vn -0.003921628 0.9999924 0
vn -0.003921628 0.9999924 0
vn -0.003921628 0.9999924 0
vn -0.003921628 0.9999924 0
vn -0.003921628 0.9999924 0
vn -0.003921628 0.9999924 0
vn -0.003921628 0.9999924 0
vn -0.003921628 0.9999924 0
vn -0.003921628 0.003921628 0.9999846
vn -0.003921628 0.003921628 0.9999846
vn -0.003921628 0.003921628 0.9999846
vn -0.003921628 0.003921628 0.9999846
vn -0.003921628 -0.9999924 0
vn -0.003921628 -0.9999924 0
vn -0.003921628 -0.9999924 0
vn -0.003921628 -0.9999924 0
vn -0.9999924 0.003921628 0
vn -0.9999924 0.003921628 0
vn -0.9999924 0.003921628 0
vn -0.9999924 0.003921628 0
vn -0.003921628 0.9999924 0
vn -0.003921628 0.9999924 0
vn -0.003921628 0.9999924 0
vn -0.003921628 0.9999924 0
vn 0.9999924 0.003921628 0
vn 0.9999924 0.003921628 0
vn 0.9999924 0.003921628 0
vn 0.9999924 0.003921628 0
vn -0.003921628 0.003921628 0.9999846
vn -0.003921628 0.003921628 0.9999846
vn -0.003921628 0.003921628 0.9999846
vn -0.003921628 0.003921628 0.9999846
vn -0.003921628 -0.9999924 0
vn -0.003921628 -0.9999924 0
vn -0.003921628 -0.9999924 0
vn -0.003921628 -0.9999924 0
vn -0.9999924 0.003921628 0
vn -0.9999924 0.003921628 0
vn -0.9999924 0.003921628 0
vn -0.9999924 0.003921628 0
vn -0.003921628 0.9999924 0
vn -0.003921628 0.9999924 0
vn -0.003921628 0.9999924 0
vn -0.003921628 0.9999924 0
vn 0.9999924 0.003921628 0
vn 0.9999924 0.003921628 0
vn 0.9999924 0.003921628 0
vn 0.9999924 0.003921628 0
g Box128_0
f 3/3/3 2/2/2 1/1/1
f 4/4/4 1/1/1 2/2/2
f 2/2/2 5/5/5 4/4/4
f 6/6/6 4/4/4 5/5/5
f 3/3/3 7/7/7 2/2/2
f 8/8/8 2/2/2 7/7/7
f 2/2/2 8/8/8 5/5/5
f 9/9/9 5/5/5 8/8/8
f 12/12/12 11/11/11 10/10/10
f 13/13/13 10/10/10 11/11/11
f 11/11/11 14/14/14 13/13/13
f 15/15/15 13/13/13 14/14/14
f 18/18/18 17/17/17 16/16/16
f 16/16/16 17/17/17 19/19/19
f 16/16/16 20/20/20 18/18/18
f 21/21/21 18/18/18 20/20/20
f 19/19/19 22/22/22 16/16/16
f 20/20/20 16/16/16 22/22/22
f 25/25/25 24/24/24 23/23/23
f 26/26/26 23/23/23 24/24/24
f 25/25/25 27/27/27 24/24/24
f 28/28/28 24/24/24 27/27/27
f 31/31/31 30/30/30 29/29/29
f 32/32/32 29/29/29 30/30/30
f 30/30/30 33/33/33 32/32/32
f 30/30/30 34/34/34 33/33/33
f 35/35/35 33/33/33 34/34/34
f 36/36/36 32/32/32 33/33/33
f 34/34/34 30/30/30 37/37/37
f 31/31/31 37/37/37 30/30/30
f 40/40/40 39/39/39 38/38/38
f 41/41/41 38/38/38 39/39/39
f 39/39/39 42/42/42 41/41/41
f 43/43/43 41/41/41 42/42/42
f 46/46/46 45/45/45 44/44/44
f 44/44/44 47/47/47 46/46/46
f 48/48/48 46/46/46 47/47/47
f 51/51/51 50/50/50 49/49/49
f 52/52/52 49/49/49 50/50/50
f 49/49/49 52/52/52 53/53/53
f 54/54/54 53/53/53 52/52/52
f 57/57/57 56/56/56 55/55/55
f 60/60/60 59/59/59 58/58/58
f 63/63/63 62/62/62 61/61/61
f 64/64/64 61/61/61 62/62/62
f 67/67/67 66/66/66 65/65/65
f 68/68/68 65/65/65 66/66/66
f 71/71/71 70/70/70 69/69/69
f 74/74/74 73/73/73 72/72/72
f 77/77/77 76/76/76 75/75/75
f 78/78/78 75/75/75 76/76/76
f 76/76/76 77/77/77 79/79/79
f 80/80/80 79/79/79 77/77/77
f 78/78/78 76/76/76 81/81/81
f 82/82/82 81/81/81 76/76/76
f 76/76/76 79/79/79 82/82/82
f 83/83/83 82/82/82 79/79/79
f 86/86/86 85/85/85 84/84/84
f 87/87/87 84/84/84 85/85/85
f 85/85/85 86/86/86 88/88/88
f 89/89/89 88/88/88 86/86/86
f 92/92/92 91/91/91 90/90/90
f 92/92/92 90/90/90 93/93/93
f 90/90/90 91/91/91 94/94/94
f 95/95/95 94/94/94 91/91/91
f 94/94/94 96/96/96 90/90/90
f 93/93/93 90/90/90 96/96/96
f 99/99/99 98/98/98 97/97/97
f 100/100/100 97/97/97 98/98/98
f 100/100/100 98/98/98 101/101/101
f 102/102/102 101/101/101 98/98/98
f 105/105/105 104/104/104 103/103/103
f 106/106/106 103/103/103 104/104/104
f 104/104/104 105/105/105 107/107/107
f 104/104/104 107/107/107 108/108/108
f 109/109/109 108/108/108 107/107/107
f 110/110/110 107/107/107 105/105/105
f 106/106/106 104/104/104 111/111/111
f 108/108/108 111/111/111 104/104/104
f 114/114/114 113/113/113 112/112/112
f 115/115/115 112/112/112 113/113/113
f 113/113/113 114/114/114 116/116/116
f 117/117/117 116/116/116 114/114/114
f 120/120/120 119/119/119 118/118/118
f 118/118/118 119/119/119 121/121/121
f 122/122/122 121/121/121 119/119/119
f 125/125/125 124/124/124 123/123/123
f 126/126/126 123/123/123 124/124/124
f 123/123/123 127/127/127 125/125/125
f 128/128/128 125/125/125 127/127/127
f 126/126/126 124/124/124 129/129/129
f 132/132/132 131/131/131 130/130/130
f 135/135/135 134/134/134 133/133/133
f 136/136/136 133/133/133 134/134/134
f 139/139/139 138/138/138 137/137/137
f 140/140/140 137/137/137 138/138/138
f 143/143/143 142/142/142 141/141/141
f 146/146/146 145/145/145 144/144/144
g Box128_1
f 149/149/149 148/148/148 147/147/147
f 150/150/150 147/147/147 148/148/148
f 153/153/153 152/152/152 151/151/151
f 154/154/154 151/151/151 152/152/152
f 157/157/157 156/156/156 155/155/155
f 158/158/158 155/155/155 156/156/156
f 161/161/161 160/160/160 159/159/159
f 162/162/162 159/159/159 160/160/160
f 165/165/165 164/164/164 163/163/163
f 166/166/166 163/163/163 164/164/164
f 169/169/169 168/168/168 167/167/167
f 170/170/170 167/167/167 168/168/168
f 173/173/173 172/172/172 171/171/171
f 174/174/174 171/171/171 172/172/172
f 177/177/177 176/176/176 175/175/175
f 178/178/178 175/175/175 176/176/176
f 181/181/181 180/180/180 179/179/179
f 182/182/182 179/179/179 180/180/180
f 185/185/185 184/184/184 183/183/183
f 186/186/186 183/183/183 184/184/184
f 189/189/189 188/188/188 187/187/187
f 190/190/190 187/187/187 188/188/188
f 193/193/193 192/192/192 191/191/191
f 194/194/194 191/191/191 192/192/192
f 197/197/197 196/196/196 195/195/195
f 198/198/198 195/195/195 196/196/196
f 201/201/201 200/200/200 199/199/199
f 202/202/202 199/199/199 200/200/200
f 205/205/205 204/204/204 203/203/203
f 206/206/206 203/203/203 204/204/204
f 209/209/209 208/208/208 207/207/207
f 210/210/210 207/207/207 208/208/208
f 213/213/213 212/212/212 211/211/211
f 214/214/214 211/211/211 212/212/212
f 217/217/217 216/216/216 215/215/215
f 218/218/218 215/215/215 216/216/216
f 221/221/221 220/220/220 219/219/219
f 222/222/222 219/219/219 220/220/220
f 225/225/225 224/224/224 223/223/223
f 226/226/226 223/223/223 224/224/224
f 229/229/229 228/228/228 227/227/227
f 230/230/230 227/227/227 228/228/228
f 233/233/233 232/232/232 231/231/231
f 234/234/234 231/231/231 232/232/232
f 237/237/237 236/236/236 235/235/235
f 238/238/238 235/235/235 236/236/236
f 241/241/241 240/240/240 239/239/239
f 242/242/242 239/239/239 240/240/240
f 245/245/245 244/244/244 243/243/243
f 246/246/246 243/243/243 244/244/244
f 249/249/249 248/248/248 247/247/247
f 250/250/250 247/247/247 248/248/248
f 253/253/253 252/252/252 251/251/251
f 254/254/254 251/251/251 252/252/252
f 257/257/257 256/256/256 255/255/255
f 258/258/258 255/255/255 256/256/256
f 261/261/261 260/260/260 259/259/259
f 262/262/262 259/259/259 260/260/260
f 265/265/265 264/264/264 263/263/263
f 266/266/266 263/263/263 264/264/264
f 269/269/269 268/268/268 267/267/267
f 270/270/270 267/267/267 268/268/268
f 273/273/273 272/272/272 271/271/271
f 274/274/274 271/271/271 272/272/272
f 277/277/277 276/276/276 275/275/275
f 278/278/278 275/275/275 276/276/276
f 281/281/281 280/280/280 279/279/279
f 282/282/282 279/279/279 280/280/280
f 285/285/285 284/284/284 283/283/283
f 286/286/286 283/283/283 284/284/284
f 289/289/289 288/288/288 287/287/287
f 290/290/290 287/287/287 288/288/288
f 293/293/293 292/292/292 291/291/291
f 294/294/294 291/291/291 292/292/292
f 297/297/297 296/296/296 295/295/295
f 298/298/298 295/295/295 296/296/296
f 301/301/301 300/300/300 299/299/299
f 302/302/302 299/299/299 300/300/300
f 305/305/305 304/304/304 303/303/303
f 306/306/306 303/303/303 304/304/304
f 309/309/309 308/308/308 307/307/307
f 310/310/310 307/307/307 308/308/308
f 313/313/313 312/312/312 311/311/311
f 314/314/314 311/311/311 312/312/312
f 317/317/317 316/316/316 315/315/315
f 318/318/318 315/315/315 316/316/316
f 321/321/321 320/320/320 319/319/319
f 322/322/322 319/319/319 320/320/320
f 325/325/325 324/324/324 323/323/323
f 326/326/326 323/323/323 324/324/324
f 329/329/329 328/328/328 327/327/327
f 330/330/330 327/327/327 328/328/328
f 333/333/333 332/332/332 331/331/331
f 334/334/334 331/331/331 332/332/332
f 337/337/337 336/336/336 335/335/335
f 338/338/338 335/335/335 336/336/336
g Box128_2
f 341/341/341 340/340/340 339/339/339
f 342/342/342 339/339/339 340/340/340
f 345/345/345 344/344/344 343/343/343
f 346/346/346 343/343/343 344/344/344
f 349/349/349 348/348/348 347/347/347
f 350/350/350 347/347/347 348/348/348
f 353/353/353 352/352/352 351/351/351
f 354/354/354 351/351/351 352/352/352
f 357/357/357 356/356/356 355/355/355
f 358/358/358 355/355/355 356/356/356
f 361/361/361 360/360/360 359/359/359
f 362/362/362 359/359/359 360/360/360
g Box128_3
f 365/365/365 364/364/364 363/363/363
f 366/366/366 363/363/363 364/364/364
f 365/365/365 367/367/367 364/364/364
f 368/368/368 364/364/364 367/367/367
f 371/371/371 370/370/370 369/369/369
f 372/372/372 369/369/369 370/370/370
f 373/373/373 372/372/372 370/370/370
f 373/373/373 374/374/374 372/372/372
f 374/374/374 373/373/373 375/375/375
f 376/376/376 375/375/375 373/373/373
f 377/377/377 372/372/372 374/374/374
f 380/380/380 379/379/379 378/378/378
f 381/381/381 378/378/378 379/379/379
f 378/378/378 381/381/381 382/382/382
f 383/383/383 382/382/382 381/381/381
f 381/381/381 384/384/384 383/383/383
f 383/383/383 384/384/384 385/385/385
f 386/386/386 385/385/385 384/384/384
f 389/389/389 388/388/388 387/387/387
f 390/390/390 387/387/387 388/388/388
f 393/393/393 392/392/392 391/391/391
f 394/394/394 391/391/391 392/392/392
f 397/397/397 396/396/396 395/395/395
f 398/398/398 395/395/395 396/396/396
f 401/401/401 400/400/400 399/399/399
f 402/402/402 399/399/399 400/400/400
f 405/405/405 404/404/404 403/403/403
f 406/406/406 403/403/403 404/404/404
f 409/409/409 408/408/408 407/407/407
f 410/410/410 407/407/407 408/408/408
f 413/413/413 412/412/412 411/411/411
f 414/414/414 411/411/411 412/412/412
f 417/417/417 416/416/416 415/415/415
f 418/418/418 415/415/415 416/416/416
f 421/421/421 420/420/420 419/419/419
f 422/422/422 419/419/419 420/420/420
f 425/425/425 424/424/424 423/423/423
f 426/426/426 423/423/423 424/424/424
f 429/429/429 428/428/428 427/427/427
f 430/430/430 427/427/427 428/428/428
f 430/430/430 428/428/428 431/431/431
f 432/432/432 431/431/431 428/428/428
f 435/435/435 434/434/434 433/433/433
f 436/436/436 433/433/433 434/434/434
f 435/435/435 437/437/437 434/434/434
f 437/437/437 435/435/435 438/438/438
f 438/438/438 439/439/439 437/437/437
f 440/440/440 437/437/437 439/439/439
f 441/441/441 438/438/438 435/435/435
f 444/444/444 443/443/443 442/442/442
f 445/445/445 442/442/442 443/443/443
f 442/442/442 446/446/446 444/444/444
f 447/447/447 444/444/444 446/446/446
f 448/448/448 444/444/444 447/447/447
f 447/447/447 449/449/449 448/448/448
f 450/450/450 448/448/448 449/449/449
f 453/453/453 452/452/452 451/451/451
f 454/454/454 451/451/451 452/452/452
f 457/457/457 456/456/456 455/455/455
f 458/458/458 455/455/455 456/456/456
f 461/461/461 460/460/460 459/459/459
f 462/462/462 459/459/459 460/460/460
f 465/465/465 464/464/464 463/463/463
f 466/466/466 463/463/463 464/464/464
f 469/469/469 468/468/468 467/467/467
f 470/470/470 467/467/467 468/468/468
f 473/473/473 472/472/472 471/471/471
f 474/474/474 471/471/471 472/472/472
f 477/477/477 476/476/476 475/475/475
f 478/478/478 475/475/475 476/476/476
f 481/481/481 480/480/480 479/479/479
f 482/482/482 479/479/479 480/480/480
f 485/485/485 484/484/484 483/483/483
f 486/486/486 483/483/483 484/484/484
f 489/489/489 488/488/488 487/487/487
f 490/490/490 487/487/487 488/488/488
