g Box109
v 8.498905 -13.90434 2.875702
v -8.491873 -13.90434 2.875702
v -8.100061 -13.26147 5.88007
v 8.107098 -13.26147 5.88007
v 8.498905 -13.90434 12.17563
v -8.491873 -13.90434 12.17563
v 8.498905 13.96425 2.875702
v 8.498905 -13.90434 2.875702
v 8.107098 -13.26147 5.88007
v 8.107098 13.32138 5.88007
v 8.498905 13.96425 11.61721
v 8.498905 -13.90434 12.17563
v -8.491873 13.96425 2.875702
v 8.498905 13.96425 2.875702
v 8.107098 13.32138 5.88007
v -8.100061 13.32138 5.88007
v -8.491873 13.96425 11.61721
v 8.498905 13.96425 11.61721
v -8.491873 -13.90434 2.875702
v -8.491873 13.96425 2.875702
v -8.100061 13.32138 5.88007
v -8.100061 -13.26147 5.88007
v -8.491873 -13.90434 12.17563
v -8.491873 13.96425 11.61721
v -12.40691 -20.32618 11.19649
v -9.006926 -14.74958 13.98479
v 9.013963 -14.74958 13.98479
v 12.41394 -20.32618 11.19649
v 12.41394 -20.32618 11.19649
v 9.013963 -14.74958 13.98479
v 9.013963 14.80949 13.42637
v 12.41394 20.3861 10.8587
v 12.41394 20.3861 10.8587
v 9.013963 14.80949 13.42637
v -9.006926 14.80949 13.42637
v -12.40691 20.3861 10.8587
v -12.40691 20.3861 10.8587
v -9.006926 14.80949 13.42637
v -9.006926 -14.74958 13.98479
v -12.40691 -20.32618 11.19649
v -9.006926 -14.74958 13.98479
v -5.088846 -8.322403 16.01687
v 5.095882 -8.322403 16.01687
v 9.013963 -14.74958 13.98479
v 9.013963 -14.74958 13.98479
v 5.095882 -8.322403 16.01687
v 5.095882 8.382318 16.01687
v 9.013963 14.80949 13.42637
v 9.013963 14.80949 13.42637
v 5.095882 8.382318 16.01687
v -5.088846 8.382318 16.01687
v -9.006926 14.80949 13.42637
v -9.006926 14.80949 13.42637
v -5.088846 8.382318 16.01687
v -5.088846 -8.322403 16.01687
v -9.006926 -14.74958 13.98479
v 9.471958 13.02087 14.55082
v 5.278471 11.83023 16.36075
v -5.272198 11.83023 16.36075
v -9.464926 13.02087 14.55082
v -9.464926 -12.96095 14.55082
v -9.464926 13.02087 14.55082
v -5.272198 11.83023 16.36075
v -5.272198 -11.77107 16.36075
v 5.278471 11.83023 16.36075
v 2.796766 11.19573 17.8306
v -2.78973 11.19573 17.8306
v -5.272198 11.83023 16.36075
v -5.272198 -11.77107 16.36075
v -5.272198 11.83023 16.36075
v -2.78973 11.19573 17.8306
v -2.78973 -11.13581 17.8306
v 2.796766 11.19573 17.8306
v 0.003137589 11.14704 19.85583
v -2.78973 11.19573 17.8306
v 9.471958 13.02087 14.55082
v 9.471958 -12.96095 14.55082
v 5.278471 -11.77107 16.36075
v 5.278471 11.83023 16.36075
v 2.796766 11.19573 17.8306
v 5.278471 11.83023 16.36075
v 5.278471 -11.77107 16.36075
v 2.796766 -11.13581 17.8306
v 0.003137589 11.14704 19.85583
v 2.796766 11.19573 17.8306
v 2.796766 -11.13581 17.8306
v 0.003137589 -11.08788 19.85583
v 9.471958 -12.96095 14.55082
v -9.464926 -12.96095 14.55082
v -5.272198 -11.77107 16.36075
v 5.278471 -11.77107 16.36075
v 5.278471 -11.77107 16.36075
v -5.272198 -11.77107 16.36075
v -2.78973 -11.13581 17.8306
v 2.796766 -11.13581 17.8306
v 2.796766 -11.13581 17.8306
v -2.78973 -11.13581 17.8306
v 0.003137589 -11.08788 19.85583
v -2.78973 -11.13581 17.8306
v -2.78973 11.19573 17.8306
v 0.003137589 11.14704 19.85583
v 0.003137589 -11.08788 19.85583
v -10.39385 12.7021 14.5105
v -10.22191 13.40887 14.5105
v -5.342951 12.22204 16.68713
v -5.517933 11.51602 16.68561
v -2.924393 11.60275 18.12122
v -3.043839 10.88228 18.15013
v 0.003137589 11.54112 20.36708
v 0.003137589 10.81609 20.45381
v -10.22191 13.40887 14.5105
v -9.94042 13.3404 13.84328
v -5.025702 12.14443 16.03589
v -5.342951 12.22204 16.68713
v -2.536388 11.50917 17.51106
v -2.924393 11.60275 18.12122
v -9.94042 13.3404 13.84328
v -10.11236 12.63362 13.84328
v -5.200684 11.43842 16.03436
v -5.025702 12.14443 16.03589
v -2.655834 10.7887 17.54074
v -2.536388 11.50917 17.51106
v 0.003137589 10.75371 19.55911
v 0.003137589 11.47874 19.47315
v -10.11236 12.63362 13.84328
v -10.39385 12.7021 14.5105
v -5.517933 11.51602 16.68561
v -5.200684 11.43842 16.03436
v -5.200684 11.43842 16.03436
v -5.517933 11.51602 16.68561
v -3.043839 10.88228 18.15013
v -2.655834 10.7887 17.54074
v -2.924393 11.60275 18.12122
v -2.536388 11.50917 17.51106
v 0.003137589 11.47874 19.47315
v 0.003137589 11.54112 20.36708
v 2.543423 11.50917 17.51106
v 2.931427 11.60275 18.12122
v -2.655834 10.7887 17.54074
v -3.043839 10.88228 18.15013
v 0.003137589 10.81609 20.45381
v 0.003137589 10.75371 19.55911
v 3.050873 10.88228 18.15013
v 2.662868 10.7887 17.54074
v 0.003137589 10.81609 20.45381
v 0.003137589 11.54112 20.36708
v 2.931427 11.60275 18.12122
v 3.050873 10.88228 18.15013
v 5.348465 12.22204 16.68713
v 5.522686 11.51526 16.68637
v 10.28905 13.40811 14.55462
v 10.45871 12.70057 14.55615
v 0.003137589 11.47874 19.47315
v 0.003137589 10.75371 19.55911
v 2.662868 10.7887 17.54074
v 2.543423 11.50917 17.51106
v 5.20924 11.43918 16.03361
v 5.034258 12.14519 16.03436
v 10.18558 12.63362 13.88513
v 10.01516 13.34116 13.88437
v 2.931427 11.60275 18.12122
v 2.543423 11.50917 17.51106
v 5.034258 12.14519 16.03436
v 5.348465 12.22204 16.68713
v 2.662868 10.7887 17.54074
v 3.050873 10.88228 18.15013
v 5.522686 11.51526 16.68637
v 5.20924 11.43918 16.03361
v 5.348465 12.22204 16.68713
v 5.034258 12.14519 16.03436
v 10.01516 13.34116 13.88437
v 10.28905 13.40811 14.55462
v 5.20924 11.43918 16.03361
v 5.522686 11.51526 16.68637
v 10.45871 12.70057 14.55615
v 10.18558 12.63362 13.88513
v -9.94042 13.3404 13.84328
v -10.22191 13.40887 14.5105
v -10.39385 12.7021 14.5105
v -10.11236 12.63362 13.84328
v 10.01516 13.34116 13.88437
v 10.45871 12.70057 14.55615
v 10.28905 13.40811 14.55462
v 10.18558 12.63362 13.88513
v -10.22191 -13.34896 14.5105
v -10.39385 -12.64218 14.5105
v -5.517933 -11.45611 16.68561
v -5.342951 -12.16212 16.68713
v -3.043839 -10.82236 18.15013
v -2.924393 -11.54284 18.12122
v 0.003137589 -10.75618 20.45381
v 0.003137589 -11.48121 20.36708
v -10.39385 -12.64218 14.5105
v -10.11236 -12.57371 13.84328
v -5.200684 -11.37927 16.03436
v -5.517933 -11.45611 16.68561
v -10.11236 -12.57371 13.84328
v -9.94042 -13.28049 13.84328
v -5.025702 -12.08528 16.03589
v -5.200684 -11.37927 16.03436
v -2.536388 -11.44926 17.51106
v -2.655834 -10.72955 17.54074
v 0.003137589 -11.41883 19.47315
v 0.003137589 -10.69379 19.55911
v -9.94042 -13.28049 13.84328
v -10.22191 -13.34896 14.5105
v -5.342951 -12.16212 16.68713
v -5.025702 -12.08528 16.03589
v -2.924393 -11.54284 18.12122
v -2.536388 -11.44926 17.51106
v -5.517933 -11.45611 16.68561
v -5.200684 -11.37927 16.03436
v -2.655834 -10.72955 17.54074
v -3.043839 -10.82236 18.15013
v -3.043839 -10.82236 18.15013
v -2.655834 -10.72955 17.54074
v 0.003137589 -10.69379 19.55911
v 0.003137589 -10.75618 20.45381
v 2.662868 -10.72955 17.54074
v 3.050873 -10.82236 18.15013
v -2.536388 -11.44926 17.51106
v -2.924393 -11.54284 18.12122
v 0.003137589 -11.48121 20.36708
v 0.003137589 -11.41883 19.47315
v 2.931427 -11.54284 18.12122
v 2.543423 -11.44926 17.51106
v 0.003137589 -11.48121 20.36708
v 0.003137589 -10.75618 20.45381
v 3.050873 -10.82236 18.15013
v 2.931427 -11.54284 18.12122
v 5.522686 -11.45611 16.68637
v 5.348465 -12.16212 16.68713
v 10.45871 -12.64142 14.55615
v 10.28905 -13.3482 14.55462
v 0.003137589 -10.69379 19.55911
v 0.003137589 -11.41883 19.47315
v 2.543423 -11.44926 17.51106
v 2.662868 -10.72955 17.54074
v 5.034258 -12.08528 16.03436
v 5.20924 -11.37927 16.03361
v 10.01516 -13.28125 13.88437
v 10.18558 -12.57447 13.88513
v 3.050873 -10.82236 18.15013
v 2.662868 -10.72955 17.54074
v 5.20924 -11.37927 16.03361
v 5.522686 -11.45611 16.68637
v 2.543423 -11.44926 17.51106
v 2.931427 -11.54284 18.12122
v 5.348465 -12.16212 16.68713
v 5.034258 -12.08528 16.03436
v 5.522686 -11.45611 16.68637
v 5.20924 -11.37927 16.03361
v 10.18558 -12.57447 13.88513
v 10.45871 -12.64142 14.55615
v 5.034258 -12.08528 16.03436
v 5.348465 -12.16212 16.68713
v 10.28905 -13.3482 14.55462
v 10.01516 -13.28125 13.88437
v -10.11236 -12.57371 13.84328
v -10.39385 -12.64218 14.5105
v -10.22191 -13.34896 14.5105
v -9.94042 -13.28049 13.84328
v 10.18558 -12.57447 13.88513
v 10.28905 -13.3482 14.55462
v 10.45871 -12.64142 14.55615
v 10.01516 -13.28125 13.88437
v 0.184967 -11.08788 20.03766
v -0.1786919 -11.08788 20.03766
v -0.1786919 11.14704 20.03766
v 0.184967 11.14704 20.03766
v -0.1786919 -11.08788 20.03766
v -0.1786919 -11.08788 19.674
v -0.1786919 11.14704 19.674
v -0.1786919 11.14704 20.03766
v -0.1786919 -11.08788 19.674
v 0.184967 -11.08788 19.674
v 0.184967 11.14704 19.674
v -0.1786919 11.14704 19.674
v 0.184967 -11.08788 19.674
v 0.184967 -11.08788 20.03766
v 0.184967 11.14704 20.03766
v 0.184967 11.14704 19.674
v -11.60808 -18.02327 2.958628
v -11.60808 18.58378 2.958628
v 11.61359 18.58378 2.958628
v 11.61359 -18.02327 2.958628
v -11.60808 -18.02327 0.02272987
v -11.60808 -18.02327 2.958628
v 11.61359 -18.02327 2.958628
v 11.61359 -18.02327 0.02272987
v 11.61359 -18.02327 0.02272987
v 11.61359 -18.02327 2.958628
v 11.61359 18.58378 2.958628
v 11.61359 18.58378 0.02272987
v 11.61359 18.58378 0.02272987
v 11.61359 18.58378 2.958628
v -11.60808 18.58378 2.958628
v -11.60808 18.58378 0.02272987
v -11.60808 18.58378 0.02272987
v -11.60808 18.58378 2.958628
v -11.60808 -18.02327 2.958628
v -11.60808 -18.02327 0.02272987
v -10.15496 -17.7159 2.221418
v -11.45135 -17.7159 2.221418
v -11.23453 -17.12705 5.772039
v -9.961721 -17.12705 5.772039
v -10.15496 -17.7159 11.3981
v -11.45135 -17.7159 11.3981
v -10.15496 -16.40658 2.221418
v -10.15496 -17.7159 2.221418
v -9.961721 -17.12705 5.772039
v -9.961721 -15.84283 5.772039
v -10.15496 -16.40658 11.3981
v -10.15496 -17.7159 11.3981
v -11.45135 -16.40658 2.221418
v -10.15496 -16.40658 2.221418
v -9.961721 -15.84283 5.772039
v -11.23453 -15.84283 5.772039
v -11.45135 -16.40658 11.3981
v -10.15496 -16.40658 11.3981
v -11.45135 -17.7159 2.221418
v -11.45135 -16.40658 2.221418
v -11.23453 -15.84283 5.772039
v -11.23453 -17.12705 5.772039
v -11.45135 -17.7159 11.3981
v -11.45135 -16.40658 11.3981
v -10.15496 -5.187937 2.221418
v -11.45135 -5.187937 2.221418
v -11.23453 -4.837212 5.772039
v -9.961721 -4.837212 5.772039
v -10.15496 -5.187937 11.3981
v -11.45135 -5.187937 11.3981
v -10.15496 -3.878613 2.221418
v -10.15496 -5.187937 2.221418
v -9.961721 -4.837212 5.772039
v -9.961721 -3.552996 5.772039
v -10.15496 -3.878613 11.3981
v -10.15496 -5.187937 11.3981
v -11.45135 -3.878613 2.221418
v -10.15496 -3.878613 2.221418
v -9.961721 -3.552996 5.772039
v -11.23453 -3.552996 5.772039
v -11.45135 -3.878613 11.3981
v -10.15496 -3.878613 11.3981
v -11.45135 -5.187937 2.221418
v -11.45135 -3.878613 2.221418
v -11.23453 -3.552996 5.772039
v -11.23453 -4.837212 5.772039
v -11.45135 -5.187937 11.3981
v -11.45135 -3.878613 11.3981
v -10.15496 3.463795 2.221418
v -11.45135 3.463795 2.221418
v -11.23453 3.650188 5.772039
v -9.961721 3.650188 5.772039
v -10.15496 3.463795 11.3981
v -11.45135 3.463795 11.3981
v -10.15496 4.772356 2.221418
v -10.15496 3.463795 2.221418
v -9.961721 3.650188 5.772039
v -9.961721 4.934404 5.772039
v -10.15496 4.772356 11.3981
v -10.15496 3.463795 11.3981
v -11.45135 4.772356 2.221418
v -10.15496 4.772356 2.221418
v -9.961721 4.934404 5.772039
v -11.23453 4.934404 5.772039
v -11.45135 4.772356 11.3981
v -10.15496 4.772356 11.3981
v -11.45135 3.463795 2.221418
v -11.45135 4.772356 2.221418
v -11.23453 4.934404 5.772039
v -11.23453 3.650188 5.772039
v -11.45135 3.463795 11.3981
v -11.45135 4.772356 11.3981
v -10.15496 16.88493 2.221418
v -11.45135 16.88493 2.221418
v -11.23453 16.81646 5.772039
v -9.961721 16.81646 5.772039
v -10.15496 16.88493 11.3981
v -11.45135 16.88493 11.3981
v -10.15496 18.19349 2.221418
v -10.15496 16.88493 2.221418
v -9.961721 16.81646 5.772039
v -9.961721 18.10068 5.772039
v -10.15496 18.19349 11.3981
v -10.15496 16.88493 11.3981
v -11.45135 18.19349 2.221418
v -10.15496 18.19349 2.221418
v -9.961721 18.10068 5.772039
v -11.23453 18.10068 5.772039
v -11.45135 18.19349 11.3981
v -10.15496 18.19349 11.3981
v -11.45135 16.88493 2.221418
v -11.45135 18.19349 2.221418
v -11.23453 18.10068 5.772039
v -11.23453 16.81646 5.772039
v -11.45135 16.88493 11.3981
v -11.45135 18.19349 11.3981
v 11.24004 -17.12705 5.772039
v 11.45763 -17.7159 2.221418
v 10.16048 -17.7159 2.221418
v 9.967997 -17.12705 5.772039
v 11.45763 -17.7159 11.3981
v 10.16048 -17.7159 11.3981
v 9.967997 -17.12705 5.772039
v 10.16048 -17.7159 2.221418
v 10.16048 -16.40658 2.221418
v 9.967997 -15.84283 5.772039
v 10.16048 -17.7159 11.3981
v 10.16048 -16.40658 11.3981
v 9.967997 -15.84283 5.772039
v 10.16048 -16.40658 2.221418
v 11.45763 -16.40658 2.221418
v 11.24004 -15.84283 5.772039
v 10.16048 -16.40658 11.3981
v 11.45763 -16.40658 11.3981
v 11.24004 -15.84283 5.772039
v 11.45763 -16.40658 2.221418
v 11.45763 -17.7159 2.221418
v 11.24004 -17.12705 5.772039
v 11.45763 -16.40658 11.3981
v 11.45763 -17.7159 11.3981
v 11.24004 -4.837212 5.772039
v 11.45763 -5.187937 2.221418
v 10.16048 -5.187937 2.221418
v 9.967997 -4.837212 5.772039
v 11.45763 -5.187937 11.3981
v 10.16048 -5.187937 11.3981
v 9.967997 -4.837212 5.772039
v 10.16048 -5.187937 2.221418
v 10.16048 -3.878613 2.221418
v 9.967997 -3.552996 5.772039
v 10.16048 -5.187937 11.3981
v 10.16048 -3.878613 11.3981
v 9.967997 -3.552996 5.772039
v 10.16048 -3.878613 2.221418
v 11.45763 -3.878613 2.221418
v 11.24004 -3.552996 5.772039
v 10.16048 -3.878613 11.3981
v 11.45763 -3.878613 11.3981
v 11.24004 -3.552996 5.772039
v 11.45763 -3.878613 2.221418
v 11.45763 -5.187937 2.221418
v 11.24004 -4.837212 5.772039
v 11.45763 -3.878613 11.3981
v 11.45763 -5.187937 11.3981
v 11.24004 3.650188 5.772039
v 11.45763 3.463795 2.221418
v 10.16048 3.463795 2.221418
v 9.967997 3.650188 5.772039
v 11.45763 3.463795 11.3981
v 10.16048 3.463795 11.3981
v 9.967997 3.650188 5.772039
v 10.16048 3.463795 2.221418
v 10.16048 4.772356 2.221418
v 9.967997 4.934404 5.772039
v 10.16048 3.463795 11.3981
v 10.16048 4.772356 11.3981
v 9.967997 4.934404 5.772039
v 10.16048 4.772356 2.221418
v 11.45763 4.772356 2.221418
v 11.24004 4.934404 5.772039
v 10.16048 4.772356 11.3981
v 11.45763 4.772356 11.3981
v 11.24004 4.934404 5.772039
v 11.45763 4.772356 2.221418
v 11.45763 3.463795 2.221418
v 11.24004 3.650188 5.772039
v 11.45763 4.772356 11.3981
v 11.45763 3.463795 11.3981
v 11.24004 16.81646 5.772039
v 11.45763 16.88493 2.221418
v 10.16048 16.88493 2.221418
v 9.967997 16.81646 5.772039
v 11.45763 16.88493 11.3981
v 10.16048 16.88493 11.3981
v 9.967997 16.81646 5.772039
v 10.16048 16.88493 2.221418
v 10.16048 18.19349 2.221418
v 9.967997 18.10068 5.772039
v 10.16048 16.88493 11.3981
v 10.16048 18.19349 11.3981
v 9.967997 18.10068 5.772039
v 10.16048 18.19349 2.221418
v 11.45763 18.19349 2.221418
v 11.24004 18.10068 5.772039
v 10.16048 18.19349 11.3981
v 11.45763 18.19349 11.3981
v 11.24004 18.10068 5.772039
v 11.45763 18.19349 2.221418
v 11.45763 16.88493 2.221418
v 11.24004 16.81646 5.772039
v 11.45763 18.19349 11.3981
v 11.45763 16.88493 11.3981
v 11.54588 -3.073696 2.919067
v 11.54588 3.13361 2.919067
v 18.27737 3.13361 0.005231857
v 18.27737 -3.073696 0.005231857
v 11.54588 -3.073696 0.005231857
v 11.54588 -3.073696 2.919067
v 18.27737 -3.073696 0.005231857
v 18.27737 3.13361 0.005231857
v 11.54588 3.13361 2.919067
v 11.54588 3.13361 0.005231857
v -11.63394 -3.073696 2.919067
v -18.36619 -3.073696 0.005231857
v -18.36619 3.13361 0.005231857
v -11.63394 3.13361 2.919067
v -11.63394 -3.073696 0.005231857
v -18.36619 -3.073696 0.005231857
v -11.63394 -3.073696 2.919067
v -18.36619 3.13361 0.005231857
v -11.63394 3.13361 0.005231857
v -11.63394 3.13361 2.919067
v -3.007317 -17.98446 2.919067
v 3.199987 -17.98446 2.919067
v 3.199987 -24.71596 0.005231857
v -3.007317 -24.71596 0.005231857
v -3.007317 -17.98446 0.005231857
v -3.007317 -17.98446 2.919067
v -3.007317 -24.71596 0.005231857
v 3.199987 -24.71596 0.005231857
v 3.199987 -17.98446 2.919067
v 3.199987 -17.98446 0.005231857
v -3.007317 18.41108 2.919067
v -3.007317 25.14257 0.005231857
v 3.199987 25.14257 0.005231857
v 3.199987 18.41108 2.919067
v -3.007317 18.41108 0.005231857
v -3.007317 25.14257 0.005231857
v -3.007317 18.41108 2.919067
v 3.199987 25.14257 0.005231857
v 3.199987 18.41108 0.005231857
v 3.199987 18.41108 2.919067
vn -0.003921628 -0.9764631 0.2156487
vn -0.003921628 -0.9764631 0.2156487
vn -0.003921628 -0.9999924 0
vn -0.003921628 -0.9999924 0
vn -0.003921628 -0.9921493 -0.1249976
vn -0.003921628 -0.9921493 -0.1249976
vn 0.9921493 0.003921628 0.1249976
vn 0.9921493 0.003921628 0.1249976
vn 0.9999924 -0.003921509 0
vn 0.9999924 -0.003921509 0
vn 0.9999924 -0.003921509 0
vn 0.9999924 -0.003921509 0
vn -0.003921628 0.9764632 0.2156485
vn -0.003921628 0.9764632 0.2156485
vn -0.003921628 0.9999924 0
vn -0.003921628 0.9999924 0
vn -0.003921628 0.9921494 -0.1249971
vn -0.003921628 0.9921494 -0.1249971
vn -0.9921494 0.003921628 0.1249971
vn -0.9921494 0.003921628 0.1249971
vn -0.9999924 -0.003921509 0
vn -0.9999924 -0.003921509 0
vn -0.9999924 -0.003921509 0
vn -0.9999924 -0.003921509 0
vn -0.003921628 -0.4509769 0.892527
vn -0.003921628 -0.4509769 0.892527
vn -0.003921628 -0.4509769 0.892527
vn -0.003921628 -0.4509769 0.892527
vn 0.6156815 0.01176465 0.7879073
vn 0.6156815 0.01176465 0.7879073
vn 0.6156815 0.01176465 0.7879073
vn 0.6156815 0.01176465 0.7879073
vn -0.003921628 0.4196047 0.9076985
vn -0.003921628 0.4196047 0.9076985
vn -0.003921628 0.4196047 0.9076985
vn -0.003921628 0.4196047 0.9076985
vn -0.6156816 0.01176465 0.7879072
vn -0.6156816 0.01176465 0.7879072
vn -0.6156816 0.01176465 0.7879072
vn -0.6156816 0.01176465 0.7879072
vn -0.003921628 -0.3019584 0.9533131
vn -0.003921628 -0.3019584 0.9533131
vn -0.003921628 -0.3019584 0.9533131
vn -0.003921628 -0.3019584 0.9533131
vn 0.5058784 0.01176465 0.8625245
vn 0.5058784 0.01176465 0.8625245
vn 0.5058784 0.01176465 0.8625245
vn 0.5058784 0.01176465 0.8625245
vn -0.003921628 0.3725462 0.9280053
vn -0.003921628 0.3725462 0.9280053
vn -0.003921628 0.3725462 0.9280053
vn -0.003921628 0.3725462 0.9280053
vn -0.5058786 0.01176465 0.8625244
vn -0.5058786 0.01176465 0.8625244
vn -0.5058786 0.01176465 0.8625244
vn -0.5058786 0.01176465 0.8625244
vn -0.003921628 0.8352878 0.549799
vn -0.003921628 0.8352878 0.549799
vn -0.003921628 0.8352878 0.549799
vn -0.003921628 0.8352878 0.549799
vn -0.3960755 0.003921628 0.9182096
vn -0.3960755 0.003921628 0.9182096
vn -0.3960755 0.003921628 0.9182096
vn -0.3960755 0.003921628 0.9182096
vn -0.003921628 0.9215616 0.3882124
vn -0.003921628 0.9215616 0.3882124
vn -0.003921628 0.9215616 0.3882124
vn -0.003921628 0.9215616 0.3882124
vn -0.5058786 0.003921628 0.8625958
vn -0.5058786 0.003921628 0.8625958
vn -0.5058786 0.003921628 0.8625958
vn -0.5058786 0.003921628 0.8625958
vn -0.003921628 0.9999924 0
vn -0.003921628 0.9999924 0
vn -0.003921628 0.9999924 0
vn 0.3960754 0.003921628 0.9182096
vn 0.3960754 0.003921628 0.9182096
vn 0.3960754 0.003921628 0.9182096
vn 0.3960754 0.003921628 0.9182096
vn 0.5058784 0.003921628 0.8625959
vn 0.5058784 0.003921628 0.8625959
vn 0.5058784 0.003921628 0.8625959
vn 0.5058784 0.003921628 0.8625959
vn 0.5843092 0.003921628 0.8115216
vn 0.5843092 0.003921628 0.8115216
vn 0.5843092 0.003921628 0.8115216
vn 0.5843092 0.003921628 0.8115216
vn -0.003921628 -0.8352877 0.549799
vn -0.003921628 -0.8352877 0.549799
vn -0.003921628 -0.8352877 0.549799
vn -0.003921628 -0.8352877 0.549799
vn -0.003921628 -0.9215616 0.3882124
vn -0.003921628 -0.9215616 0.3882124
vn -0.003921628 -0.9215616 0.3882124
vn -0.003921628 -0.9215616 0.3882124
vn -0.003921628 -0.9999924 0
vn -0.003921628 -0.9999924 0
vn -0.003921628 -0.9999924 0
vn -0.5843093 0.003921628 0.8115215
vn -0.5843093 0.003921628 0.8115215
vn -0.5843093 0.003921628 0.8115215
vn -0.5843093 0.003921628 0.8115215
vn -0.3882324 0.09019542 0.9171371
vn -0.3882324 0.09019542 0.9171371
vn -0.4352908 0.1058816 0.894042
vn -0.4352908 0.1058816 0.894042
vn -0.5450939 0.1137247 0.8306258
vn -0.5450939 0.1137247 0.8306258
vn -0.5999955 0.1137247 0.7918788
vn -0.5999955 0.1137247 0.7918788
vn 0.2392138 0.9686201 -0.06746767
vn 0.2392138 0.9686201 -0.06746767
vn 0.2392138 0.9686201 0.06746767
vn 0.2392138 0.9686201 0.06746767
vn 0.1607831 0.9843062 -0.07273301
vn 0.1607831 0.9843062 -0.07273301
vn 0.3882323 -0.09019536 -0.9171371
vn 0.3882323 -0.09019536 -0.9171371
vn 0.4352908 -0.1058815 -0.894042
vn 0.4352908 -0.1058815 -0.894042
vn 0.5450939 -0.1137246 -0.8306259
vn 0.5450939 -0.1137246 -0.8306259
vn 0.5999954 -0.1137246 -0.791879
vn 0.5999954 -0.1137246 -0.791879
vn -0.2392139 -0.9686201 -0.06746724
vn -0.2392139 -0.9686201 -0.06746724
vn -0.2392139 -0.9686201 -0.06746724
vn -0.2392139 -0.9686201 -0.06746724
vn -0.2392139 -0.9686201 -0.06746724
vn -0.2392139 -0.9686201 -0.06746724
vn -0.1607832 -0.9843062 0.07273261
vn -0.1607832 -0.9843062 0.07273261
vn 0.1607831 0.9843062 -0.07273301
vn 0.1607831 0.9843062 -0.07273301
vn -0.003921628 0.9999924 0
vn -0.003921628 0.9999924 0
vn -0.1607832 0.9843062 -0.07273261
vn -0.1607832 0.9843062 -0.07273261
vn -0.1607832 -0.9843062 0.07273261
vn -0.1607832 -0.9843062 0.07273261
vn -0.003921628 -0.9999924 0
vn -0.003921628 -0.9999924 0
vn 0.1607831 -0.9843062 0.07273301
vn 0.1607831 -0.9843062 0.07273301
vn 0.5999954 0.1137247 0.7918789
vn 0.5999954 0.1137247 0.7918789
vn 0.5450939 0.1137247 0.8306258
vn 0.5450939 0.1137247 0.8306258
vn 0.4274477 0.1058816 0.8978183
vn 0.4274477 0.1058816 0.8978183
vn 0.3725461 0.09019542 0.9236202
vn 0.3725461 0.09019542 0.9236202
vn -0.5999955 -0.1137246 -0.7918789
vn -0.5999955 -0.1137246 -0.7918789
vn -0.5450939 -0.1137246 -0.8306259
vn -0.5450939 -0.1137246 -0.8306259
vn -0.4274478 -0.1058815 -0.8978181
vn -0.4274478 -0.1058815 -0.8978181
vn -0.3725462 -0.09019536 -0.9236201
vn -0.3725462 -0.09019536 -0.9236201
vn -0.1607832 0.9843062 -0.07273261
vn -0.1607832 0.9843062 -0.07273261
vn -0.2392139 0.9686201 0.06746724
vn -0.2392139 0.9686201 0.06746724
vn 0.1607831 -0.9843062 0.07273301
vn 0.1607831 -0.9843062 0.07273301
vn 0.2392138 -0.9686201 -0.06746767
vn 0.2392138 -0.9686201 -0.06746767
vn -0.2392139 0.9686201 0.06746724
vn -0.2392139 0.9686201 0.06746724
vn -0.2313708 0.9686201 -0.09078913
vn -0.2313708 0.9686201 -0.09078913
vn 0.2392138 -0.9686201 -0.06746767
vn 0.2392138 -0.9686201 -0.06746767
vn 0.2313707 -0.9686201 0.09078946
vn 0.2313707 -0.9686201 0.09078946
vn -0.8901893 0.2156847 -0.4013018
vn -0.8901893 0.2156847 -0.4013018
vn -0.8901893 0.2156847 -0.4013018
vn -0.8901893 0.2156847 -0.4013018
vn 0.8980324 0.2156847 -0.3834293
vn 0.8980324 0.2156847 -0.3834293
vn 0.8980324 0.2156847 -0.3834293
vn 0.8980324 0.2156847 -0.3834293
vn -0.3882324 -0.09019536 0.9171371
vn -0.3882324 -0.09019536 0.9171371
vn -0.4352908 -0.1058815 0.894042
vn -0.4352908 -0.1058815 0.894042
vn -0.5450939 -0.1137246 0.8306259
vn -0.5450939 -0.1137246 0.8306259
vn -0.5999955 -0.1137246 0.7918789
vn -0.5999955 -0.1137246 0.7918789
vn -0.2392139 0.9686201 -0.06746724
vn -0.2392139 0.9686201 -0.06746724
vn -0.2392139 0.9686201 -0.06746724
vn -0.2392139 0.9686201 -0.06746724
vn 0.3882323 0.09019542 -0.9171371
vn 0.3882323 0.09019542 -0.9171371
vn 0.4352908 0.1058816 -0.894042
vn 0.4352908 0.1058816 -0.894042
vn 0.5450939 0.1137247 -0.8306258
vn 0.5450939 0.1137247 -0.8306258
vn 0.5999954 0.1137247 -0.7918789
vn 0.5999954 0.1137247 -0.7918789
vn 0.2392138 -0.9686201 -0.06746767
vn 0.2392138 -0.9686201 -0.06746767
vn 0.2392138 -0.9686201 0.06746767
vn 0.2392138 -0.9686201 0.06746767
vn 0.1607831 -0.9843062 -0.07273301
vn 0.1607831 -0.9843062 -0.07273301
vn -0.2392139 0.9686201 -0.06746724
vn -0.2392139 0.9686201 -0.06746724
vn -0.1607832 0.9843062 0.07273261
vn -0.1607832 0.9843062 0.07273261
vn -0.1607832 0.9843062 0.07273261
vn -0.1607832 0.9843062 0.07273261
vn -0.003921628 0.9999924 0
vn -0.003921628 0.9999924 0
vn 0.1607831 0.9843062 0.07273301
vn 0.1607831 0.9843062 0.07273301
vn 0.1607831 -0.9843062 -0.07273301
vn 0.1607831 -0.9843062 -0.07273301
vn -0.003921628 -0.9999924 0
vn -0.003921628 -0.9999924 0
vn -0.1607832 -0.9843062 -0.07273261
vn -0.1607832 -0.9843062 -0.07273261
vn 0.5999954 -0.1137246 0.791879
vn 0.5999954 -0.1137246 0.791879
vn 0.5450939 -0.1137246 0.8306259
vn 0.5450939 -0.1137246 0.8306259
vn 0.4274477 -0.1058815 0.8978183
vn 0.4274477 -0.1058815 0.8978183
vn 0.3725461 -0.09019536 0.9236202
vn 0.3725461 -0.09019536 0.9236202
vn -0.5999955 0.1137247 -0.7918788
vn -0.5999955 0.1137247 -0.7918788
vn -0.5450939 0.1137247 -0.8306258
vn -0.5450939 0.1137247 -0.8306258
vn -0.4274478 0.1058816 -0.8978181
vn -0.4274478 0.1058816 -0.8978181
vn -0.3725462 0.09019542 -0.9236201
vn -0.3725462 0.09019542 -0.9236201
vn 0.1607831 0.9843062 0.07273301
vn 0.1607831 0.9843062 0.07273301
vn 0.2392138 0.9686201 -0.06746767
vn 0.2392138 0.9686201 -0.06746767
vn -0.1607832 -0.9843062 -0.07273261
vn -0.1607832 -0.9843062 -0.07273261
vn -0.2392139 -0.9686201 0.06746724
vn -0.2392139 -0.9686201 0.06746724
vn 0.2392138 0.9686201 -0.06746767
vn 0.2392138 0.9686201 -0.06746767
vn 0.2313707 0.9686201 0.09078946
vn 0.2313707 0.9686201 0.09078946
vn -0.2392139 -0.9686201 0.06746724
vn -0.2392139 -0.9686201 0.06746724
vn -0.2313708 -0.9686201 -0.09078913
vn -0.2313708 -0.9686201 -0.09078913
vn -0.8901893 -0.2156846 -0.4013019
vn -0.8901893 -0.2156846 -0.4013019
vn -0.8901893 -0.2156846 -0.4013019
vn -0.8901893 -0.2156846 -0.4013019
vn 0.8980324 -0.2156846 -0.3834293
vn 0.8980324 -0.2156846 -0.3834293
vn 0.8980324 -0.2156846 -0.3834293
vn 0.8980324 -0.2156846 -0.3834293
vn -0.003921628 0.003921628 0.9999846
vn -0.003921628 0.003921628 0.9999846
vn -0.003921628 0.003921628 0.9999846
vn -0.003921628 0.003921628 0.9999846
vn -0.9999924 0.003921628 0
vn -0.9999924 0.003921628 0
vn -0.9999924 0.003921628 0
vn -0.9999924 0.003921628 0
vn -0.003921628 0.003921628 -0.9999846
vn -0.003921628 0.003921628 -0.9999846
vn -0.003921628 0.003921628 -0.9999846
vn -0.003921628 0.003921628 -0.9999846
vn 0.9999924 0.003921628 0
vn 0.9999924 0.003921628 0
vn 0.9999924 0.003921628 0
vn 0.9999924 0.003921628 0
vn -0.003921628 0.003921628 0.9999846
vn -0.003921628 0.003921628 0.9999846
vn -0.003921628 0.003921628 0.9999846
vn -0.003921628 0.003921628 0.9999846
vn -0.003921628 -0.9999924 0
vn -0.003921628 -0.9999924 0
vn -0.003921628 -0.9999924 0
vn -0.003921628 -0.9999924 0
vn 0.9999924 0.003921628 0
vn 0.9999924 0.003921628 0
vn 0.9999924 0.003921628 0
vn 0.9999924 0.003921628 0
vn -0.003921628 0.9999924 0
vn -0.003921628 0.9999924 0
vn -0.003921628 0.9999924 0
vn -0.003921628 0.9999924 0
vn -0.9999924 0.003921628 0
vn -0.9999924 0.003921628 0
vn -0.9999924 0.003921628 0
vn -0.9999924 0.003921628 0
vn -0.003921628 -0.9843062 0.1764254
vn -0.003921628 -0.9843062 0.1764254
vn -0.003921628 -0.9999924 0
vn -0.003921628 -0.9999924 0
vn -0.003921628 -0.9921493 -0.1249976
vn -0.003921628 -0.9921493 -0.1249976
vn 0.9999924 0.003921628 0
vn 0.9999924 0.003921628 0
vn 0.9999924 0.003921628 0
vn 0.9999924 0.003921628 0
vn 0.9999924 0.003921628 0
vn 0.9999924 0.003921628 0
vn -0.003921628 0.9843062 -0.1764254
vn -0.003921628 0.9843062 -0.1764254
vn -0.003921628 0.9999924 0
vn -0.003921628 0.9999924 0
vn -0.003921628 0.9921494 0.1249971
vn -0.003921628 0.9921494 0.1249971
vn -0.9999924 0.003921628 0
vn -0.9999924 0.003921628 0
vn -0.9999924 0.003921628 0
vn -0.9999924 0.003921628 0
vn -0.9999924 0.003921628 0
vn -0.9999924 0.003921628 0
vn -0.003921628 -0.9921493 0.1249976
vn -0.003921628 -0.9921493 0.1249976
vn -0.003921628 -0.9999924 0
vn -0.003921628 -0.9999924 0
vn -0.003921628 -0.9999924 0
vn -0.003921628 -0.9999924 0
vn 0.9999924 0.003921628 0
vn 0.9999924 0.003921628 0
vn 0.9999924 0.003921628 0
vn 0.9999924 0.003921628 0
vn 0.9999924 0.003921628 0
vn 0.9999924 0.003921628 0
vn -0.003921628 0.9921494 -0.1249971
vn -0.003921628 0.9921494 -0.1249971
vn -0.003921628 0.9999924 0
vn -0.003921628 0.9999924 0
vn -0.003921628 0.9999924 0
vn -0.003921628 0.9999924 0
vn -0.9999924 0.003921628 0
vn -0.9999924 0.003921628 0
vn -0.9999924 0.003921628 0
vn -0.9999924 0.003921628 0
vn -0.9999924 0.003921628 0
vn -0.9999924 0.003921628 0
vn -0.003921628 -0.9999924 0
vn -0.003921628 -0.9999924 0
vn -0.003921628 -0.9999924 0
vn -0.003921628 -0.9999924 0
vn -0.003921628 -0.9999924 0
vn -0.003921628 -0.9999924 0
vn 0.9999924 0.003921628 0
vn 0.9999924 0.003921628 0
vn 0.9999924 0.003921628 0
vn 0.9999924 0.003921628 0
vn 0.9999924 0.003921628 0
vn 0.9999924 0.003921628 0
vn -0.003921628 0.9999924 0
vn -0.003921628 0.9999924 0
vn -0.003921628 0.9999924 0
vn -0.003921628 0.9999924 0
vn -0.003921628 0.9999924 0
vn -0.003921628 0.9999924 0
vn -0.9999924 0.003921628 0
vn -0.9999924 0.003921628 0
vn -0.9999924 0.003921628 0
vn -0.9999924 0.003921628 0
vn -0.9999924 0.003921628 0
vn -0.9999924 0.003921628 0
vn -0.003921628 -0.9999924 0
vn -0.003921628 -0.9999924 0
vn -0.003921628 -0.9999924 0
vn -0.003921628 -0.9999924 0
vn -0.003921628 -0.9999924 0
vn -0.003921628 -0.9999924 0
vn 0.9999924 0.003921628 0
vn 0.9999924 0.003921628 0
vn 0.9999924 0.003921628 0
vn 0.9999924 0.003921628 0
vn 0.9999924 0.003921628 0
vn 0.9999924 0.003921628 0
vn -0.003921628 0.9999924 0
vn -0.003921628 0.9999924 0
vn -0.003921628 0.9999924 0
vn -0.003921628 0.9999924 0
vn -0.003921628 0.9999924 0
vn -0.003921628 0.9999924 0
vn -0.9999924 0.003921628 0
vn -0.9999924 0.003921628 0
vn -0.9999924 0.003921628 0
vn -0.9999924 0.003921628 0
vn -0.9999924 0.003921628 0
vn -0.9999924 0.003921628 0
vn -0.003921628 -0.9999924 0
vn -0.003921628 -0.9843062 0.1764254
vn -0.003921628 -0.9843062 0.1764254
vn -0.003921628 -0.9999924 0
vn -0.003921628 -0.9921493 -0.1249976
vn -0.003921628 -0.9921493 -0.1249976
vn -0.9999924 0.003921628 0
vn -0.9999924 0.003921628 0
vn -0.9999924 0.003921628 0
vn -0.9999924 0.003921628 0
vn -0.9999924 0.003921628 0
vn -0.9999924 0.003921628 0
vn -0.003921628 0.9999924 0
vn -0.003921628 0.9843062 -0.1764254
vn -0.003921628 0.9843062 -0.1764254
vn -0.003921628 0.9999924 0
vn -0.003921628 0.9921494 0.1249971
vn -0.003921628 0.9921494 0.1249971
vn 0.9999924 0.003921628 0
vn 0.9999924 0.003921628 0
vn 0.9999924 0.003921628 0
vn 0.9999924 0.003921628 0
vn 0.9999924 0.003921628 0
vn 0.9999924 0.003921628 0
vn -0.003921628 -0.9999924 0
vn -0.003921628 -0.9921493 0.1249976
vn -0.003921628 -0.9921493 0.1249976
vn -0.003921628 -0.9999924 0
vn -0.003921628 -0.9999924 0
vn -0.003921628 -0.9999924 0
vn -0.9999924 0.003921628 0
vn -0.9999924 0.003921628 0
vn -0.9999924 0.003921628 0
vn -0.9999924 0.003921628 0
vn -0.9999924 0.003921628 0
vn -0.9999924 0.003921628 0
vn -0.003921628 0.9999924 0
vn -0.003921628 0.9921494 -0.1249971
vn -0.003921628 0.9921494 -0.1249971
vn -0.003921628 0.9999924 0
vn -0.003921628 0.9999924 0
vn -0.003921628 0.9999924 0
vn 0.9999924 0.003921628 0
vn 0.9999924 0.003921628 0
vn 0.9999924 0.003921628 0
vn 0.9999924 0.003921628 0
vn 0.9999924 0.003921628 0
vn 0.9999924 0.003921628 0
vn -0.003921628 -0.9999924 0
vn -0.003921628 -0.9999924 0
vn -0.003921628 -0.9999924 0
vn -0.003921628 -0.9999924 0
vn -0.003921628 -0.9999924 0
vn -0.003921628 -0.9999924 0
vn -0.9999924 0.003921628 0
vn -0.9999924 0.003921628 0
vn -0.9999924 0.003921628 0
vn -0.9999924 0.003921628 0
vn -0.9999924 0.003921628 0
vn -0.9999924 0.003921628 0
vn -0.003921628 0.9999924 0
vn -0.003921628 0.9999924 0
vn -0.003921628 0.9999924 0
vn -0.003921628 0.9999924 0
vn -0.003921628 0.9999924 0
vn -0.003921628 0.9999924 0
vn 0.9999924 0.003921628 0
vn 0.9999924 0.003921628 0
vn 0.9999924 0.003921628 0
vn 0.9999924 0.003921628 0
vn 0.9999924 0.003921628 0
vn 0.9999924 0.003921628 0
vn -0.003921628 -0.9999924 0
vn -0.003921628 -0.9999924 0
vn -0.003921628 -0.9999924 0
vn -0.003921628 -0.9999924 0
vn -0.003921628 -0.9999924 0
vn -0.003921628 -0.9999924 0
vn -0.9999924 0.003921628 0
vn -0.9999924 0.003921628 0
vn -0.9999924 0.003921628 0
vn -0.9999924 0.003921628 0
vn -0.9999924 0.003921628 0
vn -0.9999924 0.003921628 0
vn -0.003921628 0.9999924 0
vn -0.003921628 0.9999924 0
vn -0.003921628 0.9999924 0
vn -0.003921628 0.9999924 0
vn -0.003921628 0.9999924 0
vn -0.003921628 0.9999924 0
vn 0.9999924 0.003921628 0
vn 0.9999924 0.003921628 0
vn 0.9999924 0.003921628 0
vn 0.9999924 0.003921628 0
vn 0.9999924 0.003921628 0
vn 0.9999924 0.003921628 0
vn 0.3960754 0.003921628 0.9182096
vn 0.3960754 0.003921628 0.9182096
vn 0.3960754 0.003921628 0.9182096
vn 0.3960754 0.003921628 0.9182096
vn -0.003921628 -0.9999924 0
vn -0.003921628 -0.9999924 0
vn -0.003921628 -0.9999924 0
vn -0.003921628 0.9999924 0
vn -0.003921628 0.9999924 0
vn -0.003921628 0.9999924 0
vn -0.3960755 0.003921628 0.9182096
vn -0.3960755 0.003921628 0.9182096
vn -0.3960755 0.003921628 0.9182096
vn -0.3960755 0.003921628 0.9182096
vn -0.003921628 -0.9999924 0
vn -0.003921628 -0.9999924 0
vn -0.003921628 -0.9999924 0
vn -0.003921628 0.9999924 0
vn -0.003921628 0.9999924 0
vn -0.003921628 0.9999924 0
vn -0.003921628 -0.3960754 0.9182096
vn -0.003921628 -0.3960754 0.9182096
vn -0.003921628 -0.3960754 0.9182096
vn -0.003921628 -0.3960754 0.9182096
vn -0.9999924 0.003921628 0
vn -0.9999924 0.003921628 0
vn -0.9999924 0.003921628 0
vn 0.9999924 0.003921628 0
vn 0.9999924 0.003921628 0
vn 0.9999924 0.003921628 0
vn -0.003921628 0.3960755 0.9182096
vn -0.003921628 0.3960755 0.9182096
vn -0.003921628 0.3960755 0.9182096
vn -0.003921628 0.3960755 0.9182096
vn -0.9999924 0.003921628 0
vn -0.9999924 0.003921628 0
vn -0.9999924 0.003921628 0
vn 0.9999924 0.003921628 0
vn 0.9999924 0.003921628 0
vn 0.9999924 0.003921628 0
g Box109_0
f 3/3/3 2/2/2 1/1/1
f 4/4/4 3/3/3 1/1/1
f 3/3/3 4/4/4 5/5/5
f 6/6/6 3/3/3 5/5/5
f 9/9/9 8/8/8 7/7/7
f 10/10/10 9/9/9 7/7/7
f 9/9/9 10/10/10 11/11/11
f 12/12/12 9/9/9 11/11/11
f 15/15/15 14/14/14 13/13/13
f 16/16/16 15/15/15 13/13/13
f 15/15/15 16/16/16 17/17/17
f 18/18/18 15/15/15 17/17/17
f 21/21/21 20/20/20 19/19/19
f 22/22/22 21/21/21 19/19/19
f 21/21/21 22/22/22 23/23/23
f 24/24/24 21/21/21 23/23/23
g Box109_1
f 27/27/27 26/26/26 25/25/25
f 28/28/28 27/27/27 25/25/25
f 31/31/31 30/30/30 29/29/29
f 32/32/32 31/31/31 29/29/29
f 35/35/35 34/34/34 33/33/33
f 36/36/36 35/35/35 33/33/33
f 39/39/39 38/38/38 37/37/37
f 40/40/40 39/39/39 37/37/37
f 43/43/43 42/42/42 41/41/41
f 44/44/44 43/43/43 41/41/41
f 47/47/47 46/46/46 45/45/45
f 48/48/48 47/47/47 45/45/45
f 51/51/51 50/50/50 49/49/49
f 52/52/52 51/51/51 49/49/49
f 55/55/55 54/54/54 53/53/53
f 56/56/56 55/55/55 53/53/53
f 59/59/59 58/58/58 57/57/57
f 60/60/60 59/59/59 57/57/57
f 63/63/63 62/62/62 61/61/61
f 64/64/64 63/63/63 61/61/61
f 67/67/67 66/66/66 65/65/65
f 68/68/68 67/67/67 65/65/65
f 71/71/71 70/70/70 69/69/69
f 72/72/72 71/71/71 69/69/69
f 75/75/75 74/74/74 73/73/73
f 78/78/78 77/77/77 76/76/76
f 79/79/79 78/78/78 76/76/76
f 82/82/82 81/81/81 80/80/80
f 83/83/83 82/82/82 80/80/80
f 86/86/86 85/85/85 84/84/84
f 87/87/87 86/86/86 84/84/84
f 90/90/90 89/89/89 88/88/88
f 91/91/91 90/90/90 88/88/88
f 94/94/94 93/93/93 92/92/92
f 95/95/95 94/94/94 92/92/92
f 98/98/98 97/97/97 96/96/96
f 101/101/101 100/100/100 99/99/99
f 102/102/102 101/101/101 99/99/99
g Box109_2
f 105/105/105 104/104/104 103/103/103
f 106/106/106 105/105/105 103/103/103
f 107/107/107 105/105/105 106/106/106
f 108/108/108 107/107/107 106/106/106
f 109/109/109 107/107/107 108/108/108
f 110/110/110 109/109/109 108/108/108
f 113/113/113 112/112/112 111/111/111
f 114/114/114 113/113/113 111/111/111
f 115/115/115 113/113/113 114/114/114
f 116/116/116 115/115/115 114/114/114
f 119/119/119 118/118/118 117/117/117
f 120/120/120 119/119/119 117/117/117
f 121/121/121 119/119/119 120/120/120
f 122/122/122 121/121/121 120/120/120
f 123/123/123 121/121/121 122/122/122
f 124/124/124 123/123/123 122/122/122
f 127/127/127 126/126/126 125/125/125
f 128/128/128 127/127/127 125/125/125
f 131/131/131 130/130/130 129/129/129
f 132/132/132 131/131/131 129/129/129
f 135/135/135 134/134/134 133/133/133
f 136/136/136 135/135/135 133/133/133
f 137/137/137 135/135/135 136/136/136
f 138/138/138 137/137/137 136/136/136
f 141/141/141 140/140/140 139/139/139
f 142/142/142 141/141/141 139/139/139
f 143/143/143 141/141/141 142/142/142
f 144/144/144 143/143/143 142/142/142
f 147/147/147 146/146/146 145/145/145
f 148/148/148 147/147/147 145/145/145
f 149/149/149 147/147/147 148/148/148
f 150/150/150 149/149/149 148/148/148
f 151/151/151 149/149/149 150/150/150
f 152/152/152 151/151/151 150/150/150
f 155/155/155 154/154/154 153/153/153
f 156/156/156 155/155/155 153/153/153
f 157/157/157 155/155/155 156/156/156
f 158/158/158 157/157/157 156/156/156
f 159/159/159 157/157/157 158/158/158
f 160/160/160 159/159/159 158/158/158
f 163/163/163 162/162/162 161/161/161
f 164/164/164 163/163/163 161/161/161
f 167/167/167 166/166/166 165/165/165
f 168/168/168 167/167/167 165/165/165
f 171/171/171 170/170/170 169/169/169
f 172/172/172 171/171/171 169/169/169
f 175/175/175 174/174/174 173/173/173
f 176/176/176 175/175/175 173/173/173
f 179/179/179 178/178/178 177/177/177
f 180/180/180 179/179/179 177/177/177
f 183/183/183 182/182/182 181/181/181
f 181/181/181 182/182/182 184/184/184
f 187/187/187 186/186/186 185/185/185
f 188/188/188 187/187/187 185/185/185
f 189/189/189 187/187/187 188/188/188
f 190/190/190 189/189/189 188/188/188
f 191/191/191 189/189/189 190/190/190
f 192/192/192 191/191/191 190/190/190
f 195/195/195 194/194/194 193/193/193
f 196/196/196 195/195/195 193/193/193
f 199/199/199 198/198/198 197/197/197
f 200/200/200 199/199/199 197/197/197
f 201/201/201 199/199/199 200/200/200
f 202/202/202 201/201/201 200/200/200
f 203/203/203 201/201/201 202/202/202
f 204/204/204 203/203/203 202/202/202
f 207/207/207 206/206/206 205/205/205
f 208/208/208 207/207/207 205/205/205
f 209/209/209 207/207/207 208/208/208
f 210/210/210 209/209/209 208/208/208
f 213/213/213 212/212/212 211/211/211
f 214/214/214 213/213/213 211/211/211
f 217/217/217 216/216/216 215/215/215
f 218/218/218 217/217/217 215/215/215
f 219/219/219 217/217/217 218/218/218
f 220/220/220 219/219/219 218/218/218
f 223/223/223 222/222/222 221/221/221
f 224/224/224 223/223/223 221/221/221
f 225/225/225 223/223/223 224/224/224
f 226/226/226 225/225/225 224/224/224
f 229/229/229 228/228/228 227/227/227
f 230/230/230 229/229/229 227/227/227
f 231/231/231 229/229/229 230/230/230
f 232/232/232 231/231/231 230/230/230
f 233/233/233 231/231/231 232/232/232
f 234/234/234 233/233/233 232/232/232
f 237/237/237 236/236/236 235/235/235
f 238/238/238 237/237/237 235/235/235
f 239/239/239 237/237/237 238/238/238
f 240/240/240 239/239/239 238/238/238
f 241/241/241 239/239/239 240/240/240
f 242/242/242 241/241/241 240/240/240
f 245/245/245 244/244/244 243/243/243
f 246/246/246 245/245/245 243/243/243
f 249/249/249 248/248/248 247/247/247
f 250/250/250 249/249/249 247/247/247
f 253/253/253 252/252/252 251/251/251
f 254/254/254 253/253/253 251/251/251
f 257/257/257 256/256/256 255/255/255
f 258/258/258 257/257/257 255/255/255
f 261/261/261 260/260/260 259/259/259
f 262/262/262 261/261/261 259/259/259
f 265/265/265 264/264/264 263/263/263
f 263/263/263 264/264/264 266/266/266
f 269/269/269 268/268/268 267/267/267
f 270/270/270 269/269/269 267/267/267
f 273/273/273 272/272/272 271/271/271
f 274/274/274 273/273/273 271/271/271
f 277/277/277 276/276/276 275/275/275
f 278/278/278 277/277/277 275/275/275
f 281/281/281 280/280/280 279/279/279
f 282/282/282 281/281/281 279/279/279
f 285/285/285 284/284/284 283/283/283
f 286/286/286 285/285/285 283/283/283
f 289/289/289 288/288/288 287/287/287
f 290/290/290 289/289/289 287/287/287
f 293/293/293 292/292/292 291/291/291
f 294/294/294 293/293/293 291/291/291
f 297/297/297 296/296/296 295/295/295
f 298/298/298 297/297/297 295/295/295
f 301/301/301 300/300/300 299/299/299
f 302/302/302 301/301/301 299/299/299
g Box109_3
f 305/305/305 304/304/304 303/303/303
f 306/306/306 305/305/305 303/303/303
f 305/305/305 306/306/306 307/307/307
f 308/308/308 305/305/305 307/307/307
f 311/311/311 310/310/310 309/309/309
f 312/312/312 311/311/311 309/309/309
f 311/311/311 312/312/312 313/313/313
f 314/314/314 311/311/311 313/313/313
f 317/317/317 316/316/316 315/315/315
f 318/318/318 317/317/317 315/315/315
f 317/317/317 318/318/318 319/319/319
f 320/320/320 317/317/317 319/319/319
f 323/323/323 322/322/322 321/321/321
f 324/324/324 323/323/323 321/321/321
f 323/323/323 324/324/324 325/325/325
f 326/326/326 323/323/323 325/325/325
f 329/329/329 328/328/328 327/327/327
f 330/330/330 329/329/329 327/327/327
f 329/329/329 330/330/330 331/331/331
f 332/332/332 329/329/329 331/331/331
f 335/335/335 334/334/334 333/333/333
f 336/336/336 335/335/335 333/333/333
f 335/335/335 336/336/336 337/337/337
f 338/338/338 335/335/335 337/337/337
f 341/341/341 340/340/340 339/339/339
f 342/342/342 341/341/341 339/339/339
f 341/341/341 342/342/342 343/343/343
f 344/344/344 341/341/341 343/343/343
f 347/347/347 346/346/346 345/345/345
f 348/348/348 347/347/347 345/345/345
f 347/347/347 348/348/348 349/349/349
f 350/350/350 347/347/347 349/349/349
f 353/353/353 352/352/352 351/351/351
f 354/354/354 353/353/353 351/351/351
f 353/353/353 354/354/354 355/355/355
f 356/356/356 353/353/353 355/355/355
f 359/359/359 358/358/358 357/357/357
f 360/360/360 359/359/359 357/357/357
f 359/359/359 360/360/360 361/361/361
f 362/362/362 359/359/359 361/361/361
f 365/365/365 364/364/364 363/363/363
f 366/366/366 365/365/365 363/363/363
f 365/365/365 366/366/366 367/367/367
f 368/368/368 365/365/365 367/367/367
f 371/371/371 370/370/370 369/369/369
f 372/372/372 371/371/371 369/369/369
f 371/371/371 372/372/372 373/373/373
f 374/374/374 371/371/371 373/373/373
f 377/377/377 376/376/376 375/375/375
f 378/378/378 377/377/377 375/375/375
f 377/377/377 378/378/378 379/379/379
f 380/380/380 377/377/377 379/379/379
f 383/383/383 382/382/382 381/381/381
f 384/384/384 383/383/383 381/381/381
f 383/383/383 384/384/384 385/385/385
f 386/386/386 383/383/383 385/385/385
f 389/389/389 388/388/388 387/387/387
f 390/390/390 389/389/389 387/387/387
f 389/389/389 390/390/390 391/391/391
f 392/392/392 389/389/389 391/391/391
f 395/395/395 394/394/394 393/393/393
f 396/396/396 395/395/395 393/393/393
f 395/395/395 396/396/396 397/397/397
f 398/398/398 395/395/395 397/397/397
f 401/401/401 400/400/400 399/399/399
f 402/402/402 401/401/401 399/399/399
f 402/402/402 399/399/399 403/403/403
f 404/404/404 402/402/402 403/403/403
f 407/407/407 406/406/406 405/405/405
f 408/408/408 407/407/407 405/405/405
f 408/408/408 405/405/405 409/409/409
f 410/410/410 408/408/408 409/409/409
f 413/413/413 412/412/412 411/411/411
f 414/414/414 413/413/413 411/411/411
f 414/414/414 411/411/411 415/415/415
f 416/416/416 414/414/414 415/415/415
f 419/419/419 418/418/418 417/417/417
f 420/420/420 419/419/419 417/417/417
f 420/420/420 417/417/417 421/421/421
f 422/422/422 420/420/420 421/421/421
f 425/425/425 424/424/424 423/423/423
f 426/426/426 425/425/425 423/423/423
f 426/426/426 423/423/423 427/427/427
f 428/428/428 426/426/426 427/427/427
f 431/431/431 430/430/430 429/429/429
f 432/432/432 431/431/431 429/429/429
f 432/432/432 429/429/429 433/433/433
f 434/434/434 432/432/432 433/433/433
f 437/437/437 436/436/436 435/435/435
f 438/438/438 437/437/437 435/435/435
f 438/438/438 435/435/435 439/439/439
f 440/440/440 438/438/438 439/439/439
f 443/443/443 442/442/442 441/441/441
f 444/444/444 443/443/443 441/441/441
f 444/444/444 441/441/441 445/445/445
f 446/446/446 444/444/444 445/445/445
f 449/449/449 448/448/448 447/447/447
f 450/450/450 449/449/449 447/447/447
f 450/450/450 447/447/447 451/451/451
f 452/452/452 450/450/450 451/451/451
f 455/455/455 454/454/454 453/453/453
f 456/456/456 455/455/455 453/453/453
f 456/456/456 453/453/453 457/457/457
f 458/458/458 456/456/456 457/457/457
f 461/461/461 460/460/460 459/459/459
f 462/462/462 461/461/461 459/459/459
f 462/462/462 459/459/459 463/463/463
f 464/464/464 462/462/462 463/463/463
f 467/467/467 466/466/466 465/465/465
f 468/468/468 467/467/467 465/465/465
f 468/468/468 465/465/465 469/469/469
f 470/470/470 468/468/468 469/469/469
f 473/473/473 472/472/472 471/471/471
f 474/474/474 473/473/473 471/471/471
f 474/474/474 471/471/471 475/475/475
f 476/476/476 474/474/474 475/475/475
f 479/479/479 478/478/478 477/477/477
f 480/480/480 479/479/479 477/477/477
f 480/480/480 477/477/477 481/481/481
f 482/482/482 480/480/480 481/481/481
f 485/485/485 484/484/484 483/483/483
f 486/486/486 485/485/485 483/483/483
f 486/486/486 483/483/483 487/487/487
f 488/488/488 486/486/486 487/487/487
f 491/491/491 490/490/490 489/489/489
f 492/492/492 491/491/491 489/489/489
f 492/492/492 489/489/489 493/493/493
f 494/494/494 492/492/492 493/493/493
g Box109_4
f 497/497/497 496/496/496 495/495/495
f 498/498/498 497/497/497 495/495/495
f 501/501/501 500/500/500 499/499/499
f 504/504/504 503/503/503 502/502/502
f 507/507/507 506/506/506 505/505/505
f 508/508/508 507/507/507 505/505/505
f 511/511/511 510/510/510 509/509/509
f 514/514/514 513/513/513 512/512/512
f 517/517/517 516/516/516 515/515/515
f 518/518/518 517/517/517 515/515/515
f 521/521/521 520/520/520 519/519/519
f 524/524/524 523/523/523 522/522/522
f 527/527/527 526/526/526 525/525/525
f 528/528/528 527/527/527 525/525/525
f 531/531/531 530/530/530 529/529/529
f 534/534/534 533/533/533 532/532/532
