g Box110
v 15.44578 -41.22334 14.59533
v 15.44578 41.22334 14.59533
v 15.47471 41.22334 -0.1113396
v 15.47471 -41.22334 -0.1113396
v 18.12796 41.22334 19.64769
v 18.12796 -41.22334 19.64769
v 18.15689 41.22334 24.7881
v 18.12796 41.22334 19.64769
v 18.12796 -41.22334 19.64769
v 18.15689 -41.22334 24.7881
v 13.27563 -41.22334 18.52299
v 13.27563 41.22334 18.52299
v 13.15738 41.22334 24.7881
v 13.15738 -41.22334 24.7881
v 13.15738 41.22334 24.7881
v 18.15689 41.22334 24.7881
v 18.15689 -41.22334 24.7881
v 13.15738 -41.22334 24.7881
v -15.44578 -41.22334 14.59533
v -15.47472 -41.22334 -0.1113396
v -15.47472 41.22334 -0.1113396
v -15.44578 41.22334 14.59533
v -18.12795 41.22334 19.64769
v -18.12795 -41.22334 19.64769
v -18.15689 41.22334 24.7881
v -18.15689 -41.22334 24.7881
v -18.12795 -41.22334 19.64769
v -18.12795 41.22334 19.64769
v -13.27563 -41.22334 18.52299
v -13.15738 -41.22334 24.7881
v -13.15738 41.22334 24.7881
v -13.27563 41.22334 18.52299
v -13.15738 41.22334 24.7881
v -13.15738 -41.22334 24.7881
v -18.15689 -41.22334 24.7881
v -18.15689 41.22334 24.7881
v 13.12844 -41.22334 19.88923
v -13.12844 -41.22334 19.88923
v -13.12844 41.22334 19.88923
v 13.12844 41.22334 19.88923
vn 0.9686201 0.003921628 -0.2485151
vn 0.9686201 0.003921628 -0.2485151
vn 0.9999924 0.003921628 0
vn 0.9999924 0.003921628 0
vn 0.8823462 0.003921628 -0.4705845
vn 0.8823462 0.003921628 -0.4705845
vn 0.9999924 0.003921628 0
vn 0.9999924 0.003921628 0
vn 0.9999924 0.003921628 0
vn 0.9999924 0.003921628 0
vn -0.9999924 0.003921628 0
vn -0.9999924 0.003921628 0
vn -0.9999924 0.003921628 0
vn -0.9999924 0.003921628 0
vn -0.003921628 0.003921628 0.9999846
vn -0.003921628 0.003921628 0.9999846
vn -0.003921628 0.003921628 0.9999846
vn -0.003921628 0.003921628 0.9999846
vn -0.9686201 0.003921628 -0.2485151
vn -0.9999924 0.003921628 0
vn -0.9999924 0.003921628 0
vn -0.9686201 0.003921628 -0.2485151
vn -0.8823463 0.003921628 -0.4705844
vn -0.8823463 0.003921628 -0.4705844
vn -0.9999924 0.003921628 0
vn -0.9999924 0.003921628 0
vn -0.9999924 0.003921628 0
vn -0.9999924 0.003921628 0
vn 0.9999924 0.003921628 0
vn 0.9999924 0.003921628 0
vn 0.9999924 0.003921628 0
vn 0.9999924 0.003921628 0
vn -0.003921628 0.003921628 0.9999846
vn -0.003921628 0.003921628 0.9999846
vn -0.003921628 0.003921628 0.9999846
vn -0.003921628 0.003921628 0.9999846
vn -0.003921628 0.003921628 0.9999846
vn -0.003921628 0.003921628 0.9999846
vn -0.003921628 0.003921628 0.9999846
vn -0.003921628 0.003921628 0.9999846
g Box110_0
f 3/3/3 2/2/2 1/1/1
f 4/4/4 3/3/3 1/1/1
f 2/2/2 5/5/5 1/1/1
f 5/5/5 6/6/6 1/1/1
f 9/9/9 8/8/8 7/7/7
f 10/10/10 9/9/9 7/7/7
f 13/13/13 12/12/12 11/11/11
f 14/14/14 13/13/13 11/11/11
f 17/17/17 16/16/16 15/15/15
f 18/18/18 17/17/17 15/15/15
f 21/21/21 20/20/20 19/19/19
f 22/22/22 21/21/21 19/19/19
f 23/23/23 22/22/22 19/19/19
f 24/24/24 23/23/23 19/19/19
f 27/27/27 26/26/26 25/25/25
f 28/28/28 27/27/27 25/25/25
f 31/31/31 30/30/30 29/29/29
f 32/32/32 31/31/31 29/29/29
f 35/35/35 34/34/34 33/33/33
f 36/36/36 35/35/35 33/33/33
g Box110_1
f 39/39/39 38/38/38 37/37/37
f 40/40/40 39/39/39 37/37/37
