g Box102
v 8.602425 -7.90584 1.223189
v -8.522742 -7.90584 1.223189
v -8.12477 -7.519749 4.408576
v 8.204453 -7.519749 4.408576
v 8.602425 -7.90584 10.03363
v -8.522742 -7.90584 10.03363
v 8.602425 7.885556 1.223189
v 8.602425 -7.90584 1.223189
v 8.204453 -7.519749 4.408576
v 8.204453 7.537803 4.408576
v 8.602425 7.885556 10.03363
v 8.602425 -7.90584 10.03363
v -8.522742 7.885556 1.223189
v 8.602425 7.885556 1.223189
v 8.204453 7.537803 4.408576
v -8.12477 7.537803 4.408576
v -8.522742 7.885556 10.03363
v 8.602425 7.885556 10.03363
v -8.522742 -7.90584 1.223189
v -8.522742 7.885556 1.223189
v -8.12477 7.537803 4.408576
v -8.12477 -7.519749 4.408576
v -8.522742 -7.90584 10.03363
v -8.522742 7.885556 10.03363
v -12.46897 -11.53726 8.528682
v -9.042209 -8.38427 11.01425
v 9.121892 -8.38427 11.01425
v 12.54865 -11.53726 8.748996
v 12.54865 -11.53726 8.748996
v 9.121892 -8.38427 11.01425
v 9.121892 8.364524 11.01425
v 12.54865 11.51751 9.339202
v 12.54865 11.51751 9.339202
v 9.121892 8.364524 11.01425
v -9.042209 8.364524 11.01425
v -12.46897 11.51751 9.339202
v -5.09274 4.722848 12.8691
v 5.172423 4.722848 12.8691
v -12.46897 11.51751 9.339202
v -9.042209 8.364524 11.01425
v -9.042209 -8.38427 11.01425
v -12.46897 -11.53726 8.528682
v -9.042209 -8.38427 11.01425
v -5.09274 -4.742594 12.8691
v 5.172423 -4.742594 12.8691
v 9.121892 -8.38427 11.01425
v 9.121892 -8.38427 11.01425
v 5.172423 -4.742594 12.8691
v 5.172423 4.722848 12.8691
v 9.121892 8.364524 11.01425
v -9.042209 8.364524 11.01425
v -5.09274 4.722848 12.8691
v -5.09274 -4.742594 12.8691
v -9.042209 -8.38427 11.01425
v -9.50336 -8.809779 12.50731
v -5.276875 -4.912689 15.03391
v 5.3571 -4.912689 15.03391
v 9.583042 -8.809779 12.50731
v 9.583042 -8.809779 12.50731
v 5.3571 -4.912689 15.03391
v 5.3571 4.892943 15.03391
v 9.583042 8.790036 12.50731
v 9.583042 8.790036 12.50731
v 5.3571 4.892943 15.03391
v -5.276875 4.892943 15.03391
v -9.50336 8.790036 12.50731
v -9.50336 8.790036 12.50731
v -5.276875 4.892943 15.03391
v -5.276875 -4.912689 15.03391
v -9.50336 -8.809779 12.50731
v -5.276875 -4.912689 15.03391
v -2.775653 -2.606402 17.08748
v 2.855336 -2.606402 17.08748
v 5.3571 -4.912689 15.03391
v 5.3571 -4.912689 15.03391
v 2.855336 -2.606402 17.08748
v 2.855336 2.586659 17.08748
v 5.3571 4.892943 15.03391
v 5.3571 4.892943 15.03391
v 2.855336 2.586659 17.08748
v -2.775653 2.586659 17.08748
v -5.276875 4.892943 15.03391
v -5.276875 4.892943 15.03391
v -2.775653 2.586659 17.08748
v -2.775653 -2.606402 17.08748
v -5.276875 -4.912689 15.03391
v -2.775653 -2.606402 17.08748
v -0.171833 -0.2050772 19.9154
v 0.2515173 -0.2050772 19.9154
v 2.855336 -2.606402 17.08748
v 2.855336 -2.606402 17.08748
v 0.2515173 -0.2050772 19.9154
v 0.2515173 0.1853342 19.9154
v 2.855336 2.586659 17.08748
v 2.855336 2.586659 17.08748
v 0.2515173 0.1853342 19.9154
v -0.171833 0.1853342 19.9154
v -2.775653 2.586659 17.08748
v -2.775653 2.586659 17.08748
v -0.171833 0.1853342 19.9154
v -0.171833 -0.2050772 19.9154
v -2.775653 -2.606402 17.08748
v 10.5885 -9.701299 0.6254225
v 9.110012 -10.00531 0.6254225
v 9.563602 -9.682399 1.247489
v 10.40166 -9.504744 1.247489
v 9.988572 -10.28827 6.86444
v 11.08583 -10.16245 6.86444
v 9.615981 -11.53024 8.267327
v 12.47467 -11.50918 8.267327
v 10.36062 -9.503663 -0.3265753
v 9.104612 -9.818476 -0.3265753
v 9.63164 -11.51944 8.713897
v 12.49087 -11.51944 8.713897
v 10.65438 -8.690983 1.247489
v 11.01023 -8.278432 0.6254225
v 10.5885 -9.701299 0.6254225
v 10.40166 -9.504744 1.247489
v 11.24944 -9.141872 6.86444
v 11.08583 -10.16245 6.86444
v 12.51247 -8.896717 8.267327
v 12.47467 -11.50918 8.267327
v 10.36062 -9.503663 -0.3265753
v 10.85957 -8.222813 -0.3265753
v 12.49087 -8.920477 8.810016
v 12.49087 -11.51944 8.713897
v 9.563602 -8.690983 1.247489
v 9.064114 -8.236313 0.6254225
v 11.01023 -8.278432 0.6254225
v 10.65438 -8.690983 1.247489
v 9.988572 -9.141872 6.86444
v 11.24944 -9.141872 6.86444
v 9.615981 -8.896717 8.267327
v 12.51247 -8.896717 8.267327
v 10.85957 -8.222813 -0.3265753
v 9.104612 -8.222813 -0.3265753
v 9.63164 -8.920477 8.810016
v 12.49087 -8.920477 8.810016
v 9.110012 -10.00531 0.6254225
v 9.064114 -8.236313 0.6254225
v 9.563602 -8.690983 1.247489
v 9.563602 -9.682399 1.247489
v 9.988572 -9.141872 6.86444
v 9.988572 -10.28827 6.86444
v 9.615981 -8.896717 8.267327
v 9.615981 -11.53024 8.267327
v 9.104612 -9.818476 -0.3265753
v 9.104612 -8.222813 -0.3265753
v 9.63164 -8.920477 8.810016
v 9.63164 -11.51944 8.713897
v -10.47534 -9.701299 0.6254225
v -10.28904 -9.504744 1.247489
v -9.450978 -9.682399 1.247489
v -8.99739 -10.00531 0.6254225
v -9.875409 -10.28827 6.86444
v -10.97266 -10.16245 6.86444
v -9.50282 -11.53024 8.16203
v -12.36205 -11.50918 8.16203
v -10.248 -9.503663 -0.3265753
v -8.99145 -9.818476 -0.3265753
v -9.519019 -11.46706 8.56
v -12.37771 -11.46706 8.56
v -10.47534 -9.701299 0.6254225
v -10.89707 -8.278432 0.6254225
v -10.54175 -8.690983 1.247489
v -10.28904 -9.504744 1.247489
v -11.13628 -9.141872 6.86444
v -10.97266 -10.16245 6.86444
v -12.39985 -8.896717 8.16203
v -12.36205 -11.50918 8.16203
v -10.248 -9.503663 -0.3265753
v -10.74695 -8.222813 -0.3265753
v -12.37771 -8.920477 8.618318
v -12.37771 -11.46706 8.56
v -10.89707 -8.278432 0.6254225
v -8.951491 -8.236313 0.6254225
v -9.450978 -8.690983 1.247489
v -10.54175 -8.690983 1.247489
v -9.875409 -9.141872 6.86444
v -11.13628 -9.141872 6.86444
v -9.50282 -8.896717 8.16203
v -12.39985 -8.896717 8.16203
v -10.74695 -8.222813 -0.3265753
v -8.99145 -8.222813 -0.3265753
v -9.519019 -8.920477 8.56
v -12.37771 -8.920477 8.618318
v -8.99739 -10.00531 0.6254225
v -9.450978 -9.682399 1.247489
v -9.450978 -8.690983 1.247489
v -8.951491 -8.236313 0.6254225
v -9.875409 -9.141872 6.86444
v -9.875409 -10.28827 6.86444
v -9.50282 -8.896717 8.16203
v -9.50282 -11.53024 8.16203
v -8.99145 -9.818476 -0.3265753
v -8.99145 -8.222813 -0.3265753
v -9.519019 -8.920477 8.56
v -9.519019 -11.46706 8.56
v 10.76831 9.600015 0.6254225
v 11.07233 8.122071 0.6254225
v 10.74941 8.57566 1.247489
v 10.57122 9.41372 1.247489
v 11.35528 9.00063 6.86444
v 11.22892 10.09734 6.86444
v 12.59671 8.628037 8.930432
v 12.57619 11.48673 8.930432
v 10.57068 9.372682 -0.3265753
v 10.88495 8.116672 -0.3265753
v 12.58645 8.696078 9.377002
v 12.58645 11.50293 9.377002
v 9.757458 9.666434 1.247489
v 9.344908 10.02175 0.6254225
v 10.76831 9.600015 0.6254225
v 10.57122 9.41372 1.247489
v 10.20889 10.2615 6.86444
v 11.22892 10.09734 6.86444
v 9.963734 11.52453 8.930432
v 12.57619 11.48673 8.930432
v 10.57068 9.372682 -0.3265753
v 9.289289 9.871629 -0.3265753
v 9.986952 11.50293 9.377002
v 12.58645 11.50293 9.377002
v 9.757458 8.57566 1.247489
v 9.303328 8.076171 0.6254225
v 9.344908 10.02175 0.6254225
v 9.757458 9.666434 1.247489
v 10.20889 9.00063 6.86444
v 10.20889 10.2615 6.86444
v 9.963734 8.628037 8.930432
v 9.963734 11.52453 8.930432
v 9.289289 9.871629 -0.3265753
v 9.289289 8.116672 -0.3265753
v 9.986952 8.643697 9.377002
v 9.986952 11.50293 9.377002
v 11.07233 8.122071 0.6254225
v 9.303328 8.076171 0.6254225
v 9.757458 8.57566 1.247489
v 10.74941 8.57566 1.247489
v 10.20889 9.00063 6.86444
v 11.35528 9.00063 6.86444
v 9.963734 8.628037 8.930432
v 12.59671 8.628037 8.930432
v 10.88495 8.116672 -0.3265753
v 9.289289 8.116672 -0.3265753
v 9.986952 8.643697 9.377002
v 12.58645 8.696078 9.377002
v -10.65515 9.600015 0.6254225
v -10.4586 9.41372 1.247489
v -10.63625 8.57566 1.247489
v -10.95916 8.122071 0.6254225
v -11.24212 9.00063 6.86444
v -11.1163 10.09734 6.86444
v -12.48409 8.628037 8.861314
v -12.46357 11.48673 8.861314
v -10.45752 9.372682 -0.3265753
v -10.77233 8.116672 -0.3265753
v -12.47329 8.643697 9.308423
v -12.47329 11.50293 9.308423
v -10.65515 9.600015 0.6254225
v -9.232285 10.02175 0.6254225
v -9.644835 9.666434 1.247489
v -10.4586 9.41372 1.247489
v -10.09573 10.2615 6.86444
v -11.1163 10.09734 6.86444
v -9.85057 11.52453 8.861314
v -12.46357 11.48673 8.861314
v -10.45752 9.372682 -0.3265753
v -9.176665 9.871629 -0.3265753
v -9.87433 11.50293 9.308423
v -12.47329 11.50293 9.308423
v -9.232285 10.02175 0.6254225
v -9.190166 8.076171 0.6254225
v -9.644835 8.57566 1.247489
v -9.644835 9.666434 1.247489
v -10.09573 9.00063 6.86444
v -10.09573 10.2615 6.86444
v -9.85057 8.628037 8.861314
v -9.85057 11.52453 8.861314
v -9.176665 9.871629 -0.3265753
v -9.176665 8.116672 -0.3265753
v -9.87433 8.643697 9.308423
v -9.87433 11.50293 9.308423
v -10.95916 8.122071 0.6254225
v -10.63625 8.57566 1.247489
v -9.644835 8.57566 1.247489
v -9.190166 8.076171 0.6254225
v -10.09573 9.00063 6.86444
v -11.24212 9.00063 6.86444
v -9.85057 8.628037 8.861314
v -12.48409 8.628037 8.861314
v -10.77233 8.116672 -0.3265753
v -9.176665 8.116672 -0.3265753
v -9.87433 8.643697 9.308423
v -12.47329 8.643697 9.308423
v -9.765254 -9.051694 2.111468
v -9.765254 9.031409 2.111468
v 9.844935 9.031409 2.111468
v 9.844935 -9.051694 2.111468
v -9.765254 -9.051694 -0.3670731
v -9.765254 -9.051694 2.111468
v 9.844935 -9.051694 2.111468
v 9.844935 -9.051694 -0.3670731
v 9.844935 -9.051694 -0.3670731
v 9.844935 -9.051694 2.111468
v 9.844935 9.031409 2.111468
v 9.844935 9.031409 -0.3670731
v 9.844935 9.031409 -0.3670731
v 9.844935 9.031409 2.111468
v -9.765254 9.031409 2.111468
v -9.765254 9.031409 -0.3670731
v -9.765254 9.031409 -0.3670731
v -9.765254 9.031409 2.111468
v -9.765254 -9.051694 2.111468
v -9.765254 -9.051694 -0.3670731
v 9.787697 -2.630702 2.07907
v 9.787697 2.610957 2.07907
v 15.47269 2.610957 -0.3821936
v 15.47269 -2.630702 -0.3821936
v 9.787697 -2.630702 -0.3821936
v 9.787697 -2.630702 2.07907
v 15.47269 -2.630702 -0.3821936
v 15.47269 2.610957 -0.3821936
v 9.787697 2.610957 2.07907
v 9.787697 2.610957 -0.3821936
v -9.787932 -2.630702 2.07907
v -15.47292 -2.630702 -0.3821936
v -15.47292 2.610957 -0.3821936
v -9.787932 2.610957 2.07907
v -9.787932 -2.630702 -0.3821936
v -15.47292 -2.630702 -0.3821936
v -9.787932 -2.630702 2.07907
v -15.47292 2.610957 -0.3821936
v -9.787932 2.610957 -0.3821936
v -9.787932 2.610957 2.07907
v -2.502419 -8.994455 2.07907
v 2.739779 -8.994455 2.07907
v 2.739779 -14.67944 -0.3821936
v -2.502419 -14.67944 -0.3821936
v -2.502419 -8.994455 -0.3821936
v -2.502419 -8.994455 2.07907
v -2.502419 -14.67944 -0.3821936
v 2.739779 -14.67944 -0.3821936
v 2.739779 -8.994455 2.07907
v 2.739779 -8.994455 -0.3821936
v -2.502419 8.994151 2.07907
v -2.502419 14.67914 -0.3821936
v 2.739779 14.67914 -0.3821936
v 2.739779 8.994151 2.07907
v -2.502419 8.994151 -0.3821936
v -2.502419 14.67914 -0.3821936
v -2.502419 8.994151 2.07907
v 2.739779 14.67914 -0.3821936
v 2.739779 8.994151 -0.3821936
v 2.739779 8.994151 2.07907
vn -0.003921628 -0.9921493 0.1249976
vn -0.003921628 -0.9921493 0.1249976
vn -0.003921628 -0.9999924 0
vn -0.003921628 -0.9999924 0
vn -0.003921628 -0.9999924 0
vn -0.003921628 -0.9999924 0
vn 0.9921493 0.003921628 0.1249976
vn 0.9921493 0.003921628 0.1249976
vn 0.9999924 0.003921628 0
vn 0.9999924 0.003921628 0
vn 0.9999924 0.003921628 0
vn 0.9999924 0.003921628 0
vn -0.003921628 0.9921494 0.1249971
vn -0.003921628 0.9921494 0.1249971
vn -0.003921628 0.9999924 0
vn -0.003921628 0.9999924 0
vn -0.003921628 0.9999924 0
vn -0.003921628 0.9999924 0
vn -0.9921494 0.003921628 0.1249971
vn -0.9921494 0.003921628 0.1249971
vn -0.9999924 0.003921628 0
vn -0.9999924 0.003921628 0
vn -0.9999924 0.003921628 0
vn -0.9999924 0.003921628 0
vn -0.003921628 -0.5999954 0.7999939
vn -0.003921628 -0.5999954 0.7999939
vn -0.003921628 -0.5999954 0.7999939
vn -0.003921628 -0.5999954 0.7999939
vn 0.4980354 -0.01176459 0.8670769
vn 0.4980354 -0.01176459 0.8670769
vn 0.4980354 -0.01176459 0.8670769
vn 0.4980354 -0.01176459 0.8670769
vn -0.003921628 0.4666631 0.8844265
vn -0.003921628 0.4666631 0.8844265
vn -0.003921628 0.4666631 0.8844265
vn -0.003921628 0.4666631 0.8844265
vn -0.003921628 0.450977 0.892527
vn -0.003921628 0.450977 0.892527
vn -0.5215647 -0.01960766 0.8529864
vn -0.5215647 -0.01960766 0.8529864
vn -0.5215647 -0.01960766 0.8529864
vn -0.5215647 -0.01960766 0.8529864
vn -0.003921628 -0.4509769 0.892527
vn -0.003921628 -0.4509769 0.892527
vn -0.003921628 -0.4509769 0.892527
vn -0.003921628 -0.4509769 0.892527
vn 0.4274477 0.003921628 0.9040316
vn 0.4274477 0.003921628 0.9040316
vn 0.4274477 0.003921628 0.9040316
vn 0.4274477 0.003921628 0.9040316
vn -0.4274478 0.003921628 0.9040315
vn -0.4274478 0.003921628 0.9040315
vn -0.4274478 0.003921628 0.9040315
vn -0.4274478 0.003921628 0.9040315
vn -0.003921628 -0.5450939 0.8383659
vn -0.003921628 -0.5450939 0.8383659
vn -0.003921628 -0.5450939 0.8383659
vn -0.003921628 -0.5450939 0.8383659
vn 0.5137216 0.003921628 0.857948
vn 0.5137216 0.003921628 0.857948
vn 0.5137216 0.003921628 0.857948
vn 0.5137216 0.003921628 0.857948
vn -0.003921628 0.5450939 0.8383659
vn -0.003921628 0.5450939 0.8383659
vn -0.003921628 0.5450939 0.8383659
vn -0.003921628 0.5450939 0.8383659
vn -0.5137216 0.003921628 0.857948
vn -0.5137216 0.003921628 0.857948
vn -0.5137216 0.003921628 0.857948
vn -0.5137216 0.003921628 0.857948
vn -0.003921628 -0.66274 0.7488393
vn -0.003921628 -0.66274 0.7488393
vn -0.003921628 -0.66274 0.7488393
vn -0.003921628 -0.66274 0.7488393
vn 0.6313677 0.003921628 0.7754737
vn 0.6313677 0.003921628 0.7754737
vn 0.6313677 0.003921628 0.7754737
vn 0.6313677 0.003921628 0.7754737
vn -0.003921628 0.6627401 0.7488392
vn -0.003921628 0.6627401 0.7488392
vn -0.003921628 0.6627401 0.7488392
vn -0.003921628 0.6627401 0.7488392
vn -0.6313678 0.003921628 0.7754736
vn -0.6313678 0.003921628 0.7754736
vn -0.6313678 0.003921628 0.7754736
vn -0.6313678 0.003921628 0.7754736
vn -0.003921628 -0.7647001 0.6443745
vn -0.003921628 -0.7647001 0.6443745
vn -0.003921628 -0.7647001 0.6443745
vn -0.003921628 -0.7647001 0.6443745
vn 0.7333277 0.003921628 0.679864
vn 0.7333277 0.003921628 0.679864
vn 0.7333277 0.003921628 0.679864
vn 0.7333277 0.003921628 0.679864
vn -0.003921628 0.7647001 0.6443745
vn -0.003921628 0.7647001 0.6443745
vn -0.003921628 0.7647001 0.6443745
vn -0.003921628 0.7647001 0.6443745
vn -0.7333277 0.003921628 0.679864
vn -0.7333277 0.003921628 0.679864
vn -0.7333277 0.003921628 0.679864
vn -0.7333277 0.003921628 0.679864
vn 0.2156846 -0.9764631 0
vn 0.2156846 -0.9764631 0
vn 0.1843123 -0.9686201 0.1667457
vn 0.1764692 -0.9764631 0.1240095
vn 0.09019536 -0.8901893 -0.4465734
vn 0.08235228 -0.8745031 -0.4779774
vn 0.01960766 -0.9372478 -0.3481123
vn 0.01176459 -0.960777 -0.2770725
vn 0.2156846 -0.9529339 -0.2130661
vn 0.2156846 -0.9529339 -0.2130661
vn 0.003921509 -0.9999924 0
vn 0.003921509 -0.9999924 0
vn 0.9529339 -0.2549 0.1641432
vn 0.9529339 -0.3098015 0
vn 0.9529339 -0.3019584 0.02716757
vn 0.960777 -0.2549 0.1092409
vn 0.8823462 -0.1294107 -0.4524578
vn 0.8666601 -0.1215677 -0.4838612
vn 0.9294047 -0.02745074 -0.3680399
vn 0.960777 -0.01960766 -0.2766281
vn 0.9215616 -0.3176446 -0.2232177
vn 0.9215616 -0.3176446 -0.2232177
vn 0.9999924 -0.003921509 0
vn 0.9999924 -0.003921509 0
vn 0.003921509 0.9215616 0.3882124
vn 0.01176459 0.9686201 0.2482675
vn 0.01176459 0.960777 0.2770723
vn 0.003921509 0.9294047 0.3690413
vn -0.003921628 0.9999924 0
vn -0.003921628 0.9999924 0
vn -0.003921628 0.9999924 0
vn -0.003921628 0.9999924 0
vn 0.01176459 0.9999924 0
vn 0.01176459 0.9999924 0
vn -0.003921628 0.9999924 0
vn -0.003921628 0.9999924 0
vn -0.960777 -0.01176459 0.2770723
vn -0.9686201 -0.01176459 0.2482675
vn -0.9137186 -0.01176459 0.4061772
vn -0.9294047 -0.003921509 0.3690413
vn -0.9921494 0.003921628 -0.1249971
vn -0.9921494 0.003921628 -0.1249971
vn -0.9921494 -0.003921509 -0.1249971
vn -0.9999924 -0.003921509 0
vn -0.9999924 -0.01176459 0
vn -0.9999924 -0.01176459 0
vn -0.9999924 -0.003921509 0
vn -0.9999924 -0.003921509 0
vn -0.2156847 -0.9764631 0
vn -0.1764693 -0.9764631 0.1240095
vn -0.1843123 -0.9686201 0.1667455
vn -0.2156847 -0.9764631 0
vn -0.09019542 -0.8823462 -0.4618766
vn -0.0823524 -0.858817 -0.5056199
vn -0.01960778 -0.9529339 -0.3025434
vn -0.01176465 -0.9764631 -0.2153633
vn -0.2156847 -0.9529339 -0.213066
vn -0.2156847 -0.9529339 -0.213066
vn -0.003921628 -0.9921493 0.1249976
vn -0.003921628 -0.9921493 0.1249976
vn -0.9529339 -0.3019584 0.02716757
vn -0.9529339 -0.3098015 0
vn -0.9529339 -0.2549 0.1641432
vn -0.960777 -0.2549 0.1092403
vn -0.8745031 -0.1294107 -0.4674368
vn -0.850974 -0.1215677 -0.5109448
vn -0.9294047 -0.02745074 -0.3680398
vn -0.9529339 -0.01960766 -0.3025434
vn -0.9215616 -0.3176446 -0.2232177
vn -0.9215616 -0.3176446 -0.2232177
vn -0.9999924 -0.003921509 0
vn -0.9999924 -0.003921509 0
vn -0.01176465 0.960777 0.2770723
vn -0.01176465 0.9686201 0.2482675
vn -0.003921628 0.9215616 0.3882124
vn -0.003921628 0.9294047 0.3690413
vn -0.003921628 0.9999924 0
vn -0.003921628 0.9999924 0
vn 0.003921509 0.9999924 0
vn 0.003921509 0.9999924 0
vn -0.01176465 0.9999924 0
vn -0.01176465 0.9999924 0
vn 0.003921509 0.9999924 0
vn 0.003921509 0.9999924 0
vn 0.960777 -0.01176459 0.2770725
vn 0.9294047 -0.003921509 0.3690414
vn 0.9137185 -0.01176459 0.4061774
vn 0.9686201 -0.01176459 0.2482675
vn 0.9921493 0.003921628 -0.1249976
vn 0.9921493 0.003921628 -0.1249976
vn 0.9921493 0.003921628 -0.1249976
vn 0.9999924 0.003921628 0
vn 0.9999924 -0.01176459 0
vn 0.9999924 -0.01176459 0
vn 0.9999924 0.003921628 0
vn 0.9999924 0.003921628 0
vn 0.9764631 0.2156847 0
vn 0.9764631 0.2156847 0
vn 0.9686201 0.1843123 0.1667456
vn 0.9764631 0.1764693 0.1240094
vn 0.9294047 0.09019542 -0.3578711
vn 0.9215616 0.0823524 -0.3793973
vn 0.960777 0.01960778 -0.2766281
vn 0.9764631 0.01176465 -0.2153633
vn 0.9529339 0.2156847 -0.213066
vn 0.9529339 0.2156847 -0.213066
vn 0.9999924 0.003921628 0
vn 0.9999924 0.003921628 0
vn 0.2549 0.9529339 0.1641431
vn 0.3098015 0.9529339 0
vn 0.3019584 0.9529339 0.02716771
vn 0.2549 0.960777 0.1092403
vn 0.1372538 0.9215616 -0.3631606
vn 0.1215677 0.9137186 -0.3877366
vn 0.02745074 0.960777 -0.27596
vn 0.02745074 0.9764632 -0.2139302
vn 0.3176446 0.9215616 -0.2232177
vn 0.3176446 0.9215616 -0.2232177
vn 0.003921509 0.9999924 0
vn 0.003921509 0.9999924 0
vn -0.9215616 0.003921628 0.3882124
vn -0.9686201 0.01176465 0.2482675
vn -0.960777 0.01176465 0.2770723
vn -0.9294047 0.003921628 0.3690413
vn -0.9999924 0.003921628 0
vn -0.9999924 0.003921628 0
vn -0.9999924 0.003921628 0
vn -0.9999924 0.003921628 0
vn -0.9999924 0.01176465 0
vn -0.9999924 0.01176465 0
vn -0.9999924 0.003921628 0
vn -0.9999924 0.003921628 0
vn 0.01176459 -0.960777 0.2770725
vn 0.01176459 -0.9686201 0.2482675
vn 0.01176459 -0.9137185 0.4061774
vn 0.003921509 -0.9294047 0.3690414
vn -0.003921628 -0.9999924 0
vn -0.003921628 -0.9999924 0
vn 0.003921509 -0.9999924 0
vn 0.003921509 -0.9999924 0
vn 0.01176459 -0.9999924 0
vn 0.01176459 -0.9999924 0
vn 0.01176459 -0.9921493 0.1245045
vn 0.01176459 -0.9921493 0.1245045
vn -0.9764632 0.2156847 0
vn -0.9764632 0.1764693 0.1240089
vn -0.9686201 0.1843123 0.1667456
vn -0.9764632 0.2156847 0
vn -0.9294047 0.09019542 -0.357871
vn -0.9215616 0.0823524 -0.3793973
vn -0.960777 0.01960778 -0.2766279
vn -0.9764632 0.01176465 -0.215363
vn -0.9529339 0.2156847 -0.213066
vn -0.9529339 0.2156847 -0.213066
vn -0.9999924 0.003921628 0
vn -0.9999924 0.003921628 0
vn -0.3019586 0.9529339 0.02716661
vn -0.3098016 0.9529339 0
vn -0.2549001 0.9529339 0.164143
vn -0.2549001 0.960777 0.10924
vn -0.1372539 0.9215616 -0.3631606
vn -0.1215677 0.9137186 -0.3877365
vn -0.0274508 0.960777 -0.27596
vn -0.0274508 0.9686201 -0.2470256
vn -0.3176447 0.9215616 -0.2232176
vn -0.3176447 0.9215616 -0.2232176
vn -0.003921628 0.9999924 0
vn -0.003921628 0.9999924 0
vn 0.960777 0.01176465 0.2770725
vn 0.9686201 0.01176465 0.2482675
vn 0.9215616 0.003921628 0.3882124
vn 0.9294047 0.003921628 0.3690414
vn 0.9999924 0.003921628 0
vn 0.9999924 0.003921628 0
vn 0.9999924 0.003921628 0
vn 0.9999924 0.003921628 0
vn 0.9999924 0.01176465 0
vn 0.9999924 0.01176465 0
vn 0.9999924 0.003921628 0
vn 0.9999924 0.003921628 0
vn -0.01176465 -0.960777 0.2770725
vn -0.003921628 -0.9294047 0.3690414
vn -0.01176465 -0.9137185 0.4061774
vn -0.01176465 -0.9686201 0.2482675
vn -0.003921628 -0.9999924 0
vn -0.003921628 -0.9999924 0
vn -0.003921628 -0.9999924 0
vn -0.003921628 -0.9999924 0
vn -0.01176465 -0.9999924 0
vn -0.01176465 -0.9999924 0
vn -0.003921628 -0.9999924 0
vn -0.003921628 -0.9999924 0
vn -0.003921628 0.003921628 0.9999846
vn -0.003921628 0.003921628 0.9999846
vn -0.003921628 0.003921628 0.9999846
vn -0.003921628 0.003921628 0.9999846
vn -0.003921628 -0.9999924 0
vn -0.003921628 -0.9999924 0
vn -0.003921628 -0.9999924 0
vn -0.003921628 -0.9999924 0
vn 0.9999924 0.003921628 0
vn 0.9999924 0.003921628 0
vn 0.9999924 0.003921628 0
vn 0.9999924 0.003921628 0
vn -0.003921628 0.9999924 0
vn -0.003921628 0.9999924 0
vn -0.003921628 0.9999924 0
vn -0.003921628 0.9999924 0
vn -0.9999924 0.003921628 0
vn -0.9999924 0.003921628 0
vn -0.9999924 0.003921628 0
vn -0.9999924 0.003921628 0
vn 0.3960754 0.003921628 0.9182096
vn 0.3960754 0.003921628 0.9182096
vn 0.3960754 0.003921628 0.9182096
vn 0.3960754 0.003921628 0.9182096
vn -0.003921628 -0.9999924 0
vn -0.003921628 -0.9999924 0
vn -0.003921628 -0.9999924 0
vn -0.003921628 0.9999924 0
vn -0.003921628 0.9999924 0
vn -0.003921628 0.9999924 0
vn -0.3960755 0.003921628 0.9182096
vn -0.3960755 0.003921628 0.9182096
vn -0.3960755 0.003921628 0.9182096
vn -0.3960755 0.003921628 0.9182096
vn -0.003921628 -0.9999924 0
vn -0.003921628 -0.9999924 0
vn -0.003921628 -0.9999924 0
vn -0.003921628 0.9999924 0
vn -0.003921628 0.9999924 0
vn -0.003921628 0.9999924 0
vn -0.003921628 -0.3960754 0.9182096
vn -0.003921628 -0.3960754 0.9182096
vn -0.003921628 -0.3960754 0.9182096
vn -0.003921628 -0.3960754 0.9182096
vn -0.9999924 0.003921628 0
vn -0.9999924 0.003921628 0
vn -0.9999924 0.003921628 0
vn 0.9999924 0.003921628 0
vn 0.9999924 0.003921628 0
vn 0.9999924 0.003921628 0
vn -0.003921628 0.3960755 0.9182096
vn -0.003921628 0.3960755 0.9182096
vn -0.003921628 0.3960755 0.9182096
vn -0.003921628 0.3960755 0.9182096
vn -0.9999924 0.003921628 0
vn -0.9999924 0.003921628 0
vn -0.9999924 0.003921628 0
vn 0.9999924 0.003921628 0
vn 0.9999924 0.003921628 0
vn 0.9999924 0.003921628 0
g Box102_0
f 3/3/3 2/2/2 1/1/1
f 4/4/4 3/3/3 1/1/1
f 3/3/3 4/4/4 5/5/5
f 6/6/6 3/3/3 5/5/5
f 9/9/9 8/8/8 7/7/7
f 10/10/10 9/9/9 7/7/7
f 9/9/9 10/10/10 11/11/11
f 12/12/12 9/9/9 11/11/11
f 15/15/15 14/14/14 13/13/13
f 16/16/16 15/15/15 13/13/13
f 15/15/15 16/16/16 17/17/17
f 18/18/18 15/15/15 17/17/17
f 21/21/21 20/20/20 19/19/19
f 22/22/22 21/21/21 19/19/19
f 21/21/21 22/22/22 23/23/23
f 24/24/24 21/21/21 23/23/23
g Box102_1
f 27/27/27 26/26/26 25/25/25
f 28/28/28 27/27/27 25/25/25
f 31/31/31 30/30/30 29/29/29
f 32/32/32 31/31/31 29/29/29
f 35/35/35 34/34/34 33/33/33
f 36/36/36 35/35/35 33/33/33
f 35/35/35 37/37/37 34/34/34
f 37/37/37 38/38/38 34/34/34
f 41/41/41 40/40/40 39/39/39
f 42/42/42 41/41/41 39/39/39
f 45/45/45 44/44/44 43/43/43
f 46/46/46 45/45/45 43/43/43
f 49/49/49 48/48/48 47/47/47
f 50/50/50 49/49/49 47/47/47
f 53/53/53 52/52/52 51/51/51
f 54/54/54 53/53/53 51/51/51
f 57/57/57 56/56/56 55/55/55
f 58/58/58 57/57/57 55/55/55
f 61/61/61 60/60/60 59/59/59
f 62/62/62 61/61/61 59/59/59
f 65/65/65 64/64/64 63/63/63
f 66/66/66 65/65/65 63/63/63
f 69/69/69 68/68/68 67/67/67
f 70/70/70 69/69/69 67/67/67
f 73/73/73 72/72/72 71/71/71
f 74/74/74 73/73/73 71/71/71
f 77/77/77 76/76/76 75/75/75
f 78/78/78 77/77/77 75/75/75
f 81/81/81 80/80/80 79/79/79
f 82/82/82 81/81/81 79/79/79
f 85/85/85 84/84/84 83/83/83
f 86/86/86 85/85/85 83/83/83
f 89/89/89 88/88/88 87/87/87
f 90/90/90 89/89/89 87/87/87
f 93/93/93 92/92/92 91/91/91
f 94/94/94 93/93/93 91/91/91
f 97/97/97 96/96/96 95/95/95
f 98/98/98 97/97/97 95/95/95
f 101/101/101 100/100/100 99/99/99
f 102/102/102 101/101/101 99/99/99
f 105/105/105 104/104/104 103/103/103
f 106/106/106 105/105/105 103/103/103
f 107/107/107 105/105/105 106/106/106
f 108/108/108 107/107/107 106/106/106
f 109/109/109 107/107/107 108/108/108
f 110/110/110 109/109/109 108/108/108
f 111/111/111 103/103/103 104/104/104
f 112/112/112 111/111/111 104/104/104
f 113/113/113 109/109/109 110/110/110
f 114/114/114 113/113/113 110/110/110
f 117/117/117 116/116/116 115/115/115
f 118/118/118 117/117/117 115/115/115
f 118/118/118 115/115/115 119/119/119
f 120/120/120 118/118/118 119/119/119
f 120/120/120 119/119/119 121/121/121
f 122/122/122 120/120/120 121/121/121
f 116/116/116 117/117/117 123/123/123
f 124/124/124 116/116/116 123/123/123
f 122/122/122 121/121/121 125/125/125
f 126/126/126 122/122/122 125/125/125
f 129/129/129 128/128/128 127/127/127
f 130/130/130 129/129/129 127/127/127
f 130/130/130 127/127/127 131/131/131
f 132/132/132 130/130/130 131/131/131
f 132/132/132 131/131/131 133/133/133
f 134/134/134 132/132/132 133/133/133
f 128/128/128 129/129/129 135/135/135
f 136/136/136 128/128/128 135/135/135
f 134/134/134 133/133/133 137/137/137
f 138/138/138 134/134/134 137/137/137
f 141/141/141 140/140/140 139/139/139
f 142/142/142 141/141/141 139/139/139
f 143/143/143 141/141/141 142/142/142
f 144/144/144 143/143/143 142/142/142
f 145/145/145 143/143/143 144/144/144
f 146/146/146 145/145/145 144/144/144
f 147/147/147 139/139/139 140/140/140
f 148/148/148 147/147/147 140/140/140
f 149/149/149 145/145/145 146/146/146
f 150/150/150 149/149/149 146/146/146
f 153/153/153 152/152/152 151/151/151
f 154/154/154 153/153/153 151/151/151
f 153/153/153 155/155/155 152/152/152
f 155/155/155 156/156/156 152/152/152
f 155/155/155 157/157/157 156/156/156
f 157/157/157 158/158/158 156/156/156
f 151/151/151 159/159/159 154/154/154
f 159/159/159 160/160/160 154/154/154
f 157/157/157 161/161/161 158/158/158
f 161/161/161 162/162/162 158/158/158
f 165/165/165 164/164/164 163/163/163
f 166/166/166 165/165/165 163/163/163
f 167/167/167 165/165/165 166/166/166
f 168/168/168 167/167/167 166/166/166
f 169/169/169 167/167/167 168/168/168
f 170/170/170 169/169/169 168/168/168
f 171/171/171 163/163/163 164/164/164
f 172/172/172 171/171/171 164/164/164
f 173/173/173 169/169/169 170/170/170
f 174/174/174 173/173/173 170/170/170
f 177/177/177 176/176/176 175/175/175
f 178/178/178 177/177/177 175/175/175
f 179/179/179 177/177/177 178/178/178
f 180/180/180 179/179/179 178/178/178
f 181/181/181 179/179/179 180/180/180
f 182/182/182 181/181/181 180/180/180
f 183/183/183 175/175/175 176/176/176
f 184/184/184 183/183/183 176/176/176
f 185/185/185 181/181/181 182/182/182
f 186/186/186 185/185/185 182/182/182
f 189/189/189 188/188/188 187/187/187
f 190/190/190 189/189/189 187/187/187
f 189/189/189 191/191/191 188/188/188
f 191/191/191 192/192/192 188/188/188
f 191/191/191 193/193/193 192/192/192
f 193/193/193 194/194/194 192/192/192
f 187/187/187 195/195/195 190/190/190
f 195/195/195 196/196/196 190/190/190
f 193/193/193 197/197/197 194/194/194
f 197/197/197 198/198/198 194/194/194
f 201/201/201 200/200/200 199/199/199
f 202/202/202 201/201/201 199/199/199
f 203/203/203 201/201/201 202/202/202
f 204/204/204 203/203/203 202/202/202
f 205/205/205 203/203/203 204/204/204
f 206/206/206 205/205/205 204/204/204
f 207/207/207 199/199/199 200/200/200
f 208/208/208 207/207/207 200/200/200
f 209/209/209 205/205/205 206/206/206
f 210/210/210 209/209/209 206/206/206
f 213/213/213 212/212/212 211/211/211
f 214/214/214 213/213/213 211/211/211
f 214/214/214 211/211/211 215/215/215
f 216/216/216 214/214/214 215/215/215
f 216/216/216 215/215/215 217/217/217
f 218/218/218 216/216/216 217/217/217
f 212/212/212 213/213/213 219/219/219
f 220/220/220 212/212/212 219/219/219
f 218/218/218 217/217/217 221/221/221
f 222/222/222 218/218/218 221/221/221
f 225/225/225 224/224/224 223/223/223
f 226/226/226 225/225/225 223/223/223
f 226/226/226 223/223/223 227/227/227
f 228/228/228 226/226/226 227/227/227
f 228/228/228 227/227/227 229/229/229
f 230/230/230 228/228/228 229/229/229
f 224/224/224 225/225/225 231/231/231
f 232/232/232 224/224/224 231/231/231
f 230/230/230 229/229/229 233/233/233
f 234/234/234 230/230/230 233/233/233
f 237/237/237 236/236/236 235/235/235
f 238/238/238 237/237/237 235/235/235
f 239/239/239 237/237/237 238/238/238
f 240/240/240 239/239/239 238/238/238
f 241/241/241 239/239/239 240/240/240
f 242/242/242 241/241/241 240/240/240
f 243/243/243 235/235/235 236/236/236
f 244/244/244 243/243/243 236/236/236
f 245/245/245 241/241/241 242/242/242
f 246/246/246 245/245/245 242/242/242
f 249/249/249 248/248/248 247/247/247
f 250/250/250 249/249/249 247/247/247
f 249/249/249 251/251/251 248/248/248
f 251/251/251 252/252/252 248/248/248
f 251/251/251 253/253/253 252/252/252
f 253/253/253 254/254/254 252/252/252
f 247/247/247 255/255/255 250/250/250
f 255/255/255 256/256/256 250/250/250
f 253/253/253 257/257/257 254/254/254
f 257/257/257 258/258/258 254/254/254
f 261/261/261 260/260/260 259/259/259
f 262/262/262 261/261/261 259/259/259
f 263/263/263 261/261/261 262/262/262
f 264/264/264 263/263/263 262/262/262
f 265/265/265 263/263/263 264/264/264
f 266/266/266 265/265/265 264/264/264
f 267/267/267 259/259/259 260/260/260
f 268/268/268 267/267/267 260/260/260
f 269/269/269 265/265/265 266/266/266
f 270/270/270 269/269/269 266/266/266
f 273/273/273 272/272/272 271/271/271
f 274/274/274 273/273/273 271/271/271
f 275/275/275 273/273/273 274/274/274
f 276/276/276 275/275/275 274/274/274
f 277/277/277 275/275/275 276/276/276
f 278/278/278 277/277/277 276/276/276
f 279/279/279 271/271/271 272/272/272
f 280/280/280 279/279/279 272/272/272
f 281/281/281 277/277/277 278/278/278
f 282/282/282 281/281/281 278/278/278
f 285/285/285 284/284/284 283/283/283
f 286/286/286 285/285/285 283/283/283
f 285/285/285 287/287/287 284/284/284
f 287/287/287 288/288/288 284/284/284
f 287/287/287 289/289/289 288/288/288
f 289/289/289 290/290/290 288/288/288
f 283/283/283 291/291/291 286/286/286
f 291/291/291 292/292/292 286/286/286
f 289/289/289 293/293/293 290/290/290
f 293/293/293 294/294/294 290/290/290
g Box102_2
f 297/297/297 296/296/296 295/295/295
f 298/298/298 297/297/297 295/295/295
f 301/301/301 300/300/300 299/299/299
f 302/302/302 301/301/301 299/299/299
f 305/305/305 304/304/304 303/303/303
f 306/306/306 305/305/305 303/303/303
f 309/309/309 308/308/308 307/307/307
f 310/310/310 309/309/309 307/307/307
f 313/313/313 312/312/312 311/311/311
f 314/314/314 313/313/313 311/311/311
g Box102_3
f 317/317/317 316/316/316 315/315/315
f 318/318/318 317/317/317 315/315/315
f 321/321/321 320/320/320 319/319/319
f 324/324/324 323/323/323 322/322/322
f 327/327/327 326/326/326 325/325/325
f 328/328/328 327/327/327 325/325/325
f 331/331/331 330/330/330 329/329/329
f 334/334/334 333/333/333 332/332/332
f 337/337/337 336/336/336 335/335/335
f 338/338/338 337/337/337 335/335/335
f 341/341/341 340/340/340 339/339/339
f 344/344/344 343/343/343 342/342/342
f 347/347/347 346/346/346 345/345/345
f 348/348/348 347/347/347 345/345/345
f 351/351/351 350/350/350 349/349/349
f 354/354/354 353/353/353 352/352/352
