g Branch.004
v -0.1452395 -0.03474265 -0.01244322
v -0.05897472 -0.1198035 -0.01589883
v -0.08081754 -0.1192737 -1.010323
v -0.1670828 -0.03421256 -1.006868
v -0.06114195 0.171849 -0.01569555
v -0.1461376 0.08645228 -0.01235916
v -0.1679803 0.08698189 -1.006783
v -0.08298497 0.171849 -1.010119
v 0.1471205 -0.0325688 -0.02403776
v 0.1462224 0.08862618 -0.02395391
v 0.1243797 0.08915583 -1.018378
v 0.1252777 -0.03203909 -1.018462
v -0.05897472 -0.1198035 -0.01589883
v 0.06212511 -0.1189031 -0.02070159
v 0.04028205 -0.1183734 -1.015125
v -0.08081754 -0.1192737 -1.010323
v -0.1461376 0.08645228 -0.01235916
v -0.1452395 -0.03474265 -0.01244322
v -0.1670828 -0.03421256 -1.006868
v -0.1679803 0.08698189 -1.006783
v 0.05995763 0.171849 -0.02049841
v -0.06114195 0.171849 -0.01569555
v -0.08298497 0.171849 -1.010119
v 0.03811477 0.171849 -1.014922
v 0.6175429 0.171849 -1.704289
v 0.6886623 0.171849 -1.676845
v 0.8035903 0.171849 -2.570358
v 0.1462224 0.08862618 -0.02395391
v 0.05995763 0.171849 -0.02049841
v 0.03811477 0.171849 -1.014922
v 0.1243797 0.08915583 -1.018378
v 0.06212511 -0.1189031 -0.02070159
v 0.1471205 -0.0325688 -0.02403776
v 0.1252777 -0.03203909 -1.018462
v 0.04028205 -0.1183734 -1.015125
v 0.1252777 -0.03203909 -1.018462
v 0.1243797 0.08915583 -1.018378
v 0.7362171 0.1134377 -1.656394
v 0.7323502 0.03725714 -1.654915
v -0.08081754 -0.1192737 -1.010323
v 0.04028205 -0.1183734 -1.015125
v 0.679327 -0.01443476 -1.673275
v 0.6082076 -0.01135756 -1.700719
v -0.1679803 0.08698189 -1.006783
v -0.1670828 -0.03421256 -1.006868
v 0.5606528 0.04468614 -1.721171
v 0.5645196 0.1208667 -1.72265
v 0.1243797 0.08915583 -1.018378
v 0.03811477 0.171849 -1.014922
v 0.6886623 0.171849 -1.676845
v 0.7362171 0.1134377 -1.656394
v 0.04028205 -0.1183734 -1.015125
v 0.1252777 -0.03203909 -1.018462
v 0.7323502 0.03725714 -1.654915
v 0.679327 -0.01443476 -1.673275
v -0.1670828 -0.03421256 -1.006868
v -0.08081754 -0.1192737 -1.010323
v 0.6082076 -0.01135756 -1.700719
v 0.5606528 0.04468614 -1.721171
v -0.08298497 0.171849 -1.010119
v -0.1679803 0.08698189 -1.006783
v 0.5645196 0.1208667 -1.72265
v 0.6175429 0.171849 -1.704289
v 0.6175429 0.171849 -1.704289
v 0.5645196 0.1208667 -1.72265
v 0.8035903 0.171849 -2.570358
v 0.7323502 0.03725714 -1.654915
v 0.7362171 0.1134377 -1.656394
v 0.8035903 0.171849 -2.570358
v 0.6082076 -0.01135756 -1.700719
v 0.679327 -0.01443476 -1.673275
v 0.8035903 0.171849 -2.570358
v 0.5645196 0.1208667 -1.72265
v 0.5606528 0.04468614 -1.721171
v 0.8035903 0.171849 -2.570358
v 0.7362171 0.1134377 -1.656394
v 0.6886623 0.171849 -1.676845
v 0.8035903 0.171849 -2.570358
v 0.679327 -0.01443476 -1.673275
v 0.7323502 0.03725714 -1.654915
v 0.8035903 0.171849 -2.570358
v 0.5606528 0.04468614 -1.721171
v 0.6082076 -0.01135756 -1.700719
v 0.8035903 0.171849 -2.570358
vt 0.8599161 0.3491219
vt 0.8700775 0.3493893
vt 0.8599161 0.3491219
vt 0.8700775 0.3493893
vt 0.8700775 0.3493893
vt 0.8700775 0.3493893
vt 0.8700775 0.3493893
vt 0.8599161 0.3491219
vt 0.8599161 0.3491219
vt 0.8599161 0.3491219
vt 0.8599161 0.3491219
vt 0.8599161 0.3491219
vt 0.8700775 0.3493893
vt 0.8700775 0.3493893
vt 0.8599161 0.3491219
vt 0.8599161 0.3491219
vt 0.8700775 0.3493893
vt 0.8599161 0.3491219
vt 0.8700775 0.3493893
vt 0.8700775 0.3493893
vt 0.8700775 0.3493893
vt 0.8700775 0.3493893
vt 0.8599161 0.3491219
vt 0.8599161 0.3491219
vt 0.8599161 0.3491219
vt 0.8599161 0.3491219
vt 0.8700775 0.3493893
vt 0.8599161 0.3491219
vt 0.8700775 0.3493893
vt 0.8599161 0.3491219
vt 0.8599161 0.3491219
vt 0.8700775 0.3493893
vt 0.8599161 0.3491219
vt 0.8599161 0.3491219
vt 0.8599161 0.3491219
vt 0.8599161 0.3491219
vt 0.8599161 0.3491219
vt 0.8700775 0.3493893
vt 0.8700775 0.3493893
vt 0.8599161 0.3491219
vt 0.8599161 0.3491219
vt 0.8700775 0.3493893
vt 0.8599161 0.3491219
vt 0.8700775 0.3493893
vt 0.8700775 0.3493893
vt 0.8599161 0.3491219
vt 0.8700775 0.3493893
vt 0.8599161 0.3491219
vt 0.8599161 0.3491219
vt 0.8599161 0.3491219
vt 0.8700775 0.3493893
vt 0.8599161 0.3491219
vt 0.8599161 0.3491219
vt 0.8700775 0.3493893
vt 0.8700775 0.3493893
vt 0.8700775 0.3493893
vt 0.8599161 0.3491219
vt 0.8599161 0.3491219
vt 0.8599161 0.3491219
vt 0.8599161 0.3491219
vt 0.8700775 0.3493893
vt 0.8700775 0.3493893
vt 0.8599161 0.3491219
vt 0.8599161 0.3491219
vt 0.8700775 0.3493893
vt 0.8700775 0.3493893
vt 0.8700775 0.3493893
vt 0.8700775 0.3493893
vt 0.8700775 0.3493893
vt 0.8599161 0.3491219
vt 0.8700775 0.3493893
vt 0.8700775 0.3493893
vt 0.8700775 0.3493893
vt 0.8599161 0.3491219
vt 0.8700775 0.3493893
vt 0.8700775 0.3493893
vt 0.8599161 0.3491219
vt 0.8700775 0.3493893
vt 0.8700775 0.3493893
vt 0.8700775 0.3493893
vt 0.8700775 0.3493893
vt 0.8599161 0.3491219
vt 0.8599161 0.3491219
vt 0.8700775 0.3493893
vn -0.7017354 -0.712279 0.01503443
vn -0.7017354 -0.712279 0.01503443
vn -0.7017354 -0.712279 0.01503443
vn -0.7017354 -0.712279 0.01503443
vn -0.7072781 0.7067606 0.01572381
vn -0.7072781 0.7067606 0.01572381
vn -0.7072781 0.7067606 0.01572381
vn -0.7072781 0.7067606 0.01572381
vn 0.9997314 0.007422857 -0.02195534
vn 0.9997314 0.007422857 -0.02195534
vn 0.9997314 0.007422857 -0.02195534
vn 0.9997314 0.007422857 -0.02195534
vn 0.007407394 -0.9999723 -0.0006954219
vn 0.007407394 -0.9999723 -0.0006954219
vn 0.007407394 -0.9999723 -0.0006954219
vn 0.007407394 -0.9999723 -0.0006954219
vn -0.9997314 -0.007420871 0.02195565
vn -0.9997314 -0.007420871 0.02195565
vn -0.9997314 -0.007420871 0.02195565
vn -0.9997314 -0.007420871 0.02195565
vn 0 1 0
vn 0 1 0
vn 0 1 0
vn 0 1 0
vn 0 1 0
vn 0 1 0
vn 0 1 0
vn 0.6927657 0.7210062 -0.01502474
vn 0.6927657 0.7210062 -0.01502474
vn 0.6927657 0.7210062 -0.01502474
vn 0.6927657 0.7210062 -0.01502474
vn 0.7122095 -0.7017843 -0.01601779
vn 0.7122095 -0.7017843 -0.01601779
vn 0.7122095 -0.7017843 -0.01601779
vn 0.7122095 -0.7017843 -0.01601779
vn 0.7228905 -0.005994121 0.6909367
vn 0.7228905 -0.005994121 0.6909367
vn 0.7228905 -0.005994121 0.6909367
vn 0.7228905 -0.005994121 0.6909367
vn 0.006361149 -0.9888054 -0.1490753
vn 0.006361149 -0.9888054 -0.1490753
vn 0.006361149 -0.9888054 -0.1490753
vn 0.006361149 -0.9888054 -0.1490753
vn -0.6999195 0.005485515 -0.7142007
vn -0.6999195 0.005485515 -0.7142007
vn -0.6999195 0.005485515 -0.7142007
vn -0.6999195 0.005485515 -0.7142007
vn 0.5659325 0.6042722 0.5608703
vn 0.5659325 0.6042722 0.5608703
vn 0.5659325 0.6042722 0.5608703
vn 0.5659325 0.6042722 0.5608703
vn 0.5920534 -0.6446616 0.4836156
vn 0.5920534 -0.6446616 0.4836156
vn 0.5920534 -0.6446616 0.4836156
vn 0.5920534 -0.6446616 0.4836156
vn -0.5336077 -0.5801796 -0.6153491
vn -0.5336077 -0.5801796 -0.6153491
vn -0.5336077 -0.5801796 -0.6153491
vn -0.5336077 -0.5801796 -0.6153491
vn -0.55512 0.6247131 -0.5491587
vn -0.55512 0.6247131 -0.5491587
vn -0.55512 0.6247131 -0.5491587
vn -0.55512 0.6247131 -0.5491587
vn -0.6601385 0.7376361 -0.1418101
vn -0.6601385 0.7376361 -0.1418101
vn -0.6601385 0.7376361 -0.1418101
vn 0.9963115 -0.04920729 0.07029878
vn 0.9963115 -0.04920729 0.07029878
vn 0.9963115 -0.04920729 0.07029878
vn 0.03427454 -0.9794722 -0.1986443
vn 0.03427454 -0.9794722 -0.1986443
vn 0.03427454 -0.9794722 -0.1986443
vn -0.9622236 0.04362505 -0.2687425
vn -0.9622236 0.04362505 -0.2687425
vn -0.9622236 0.04362505 -0.2687425
vn 0.7549115 0.6485986 0.09710054
vn 0.7549115 0.6485986 0.09710054
vn 0.7549115 0.6485986 0.09710054
vn 0.7058638 -0.7066532 -0.04896443
vn 0.7058638 -0.7066532 -0.04896443
vn 0.7058638 -0.7066532 -0.04896443
vn -0.6731167 -0.6785108 -0.2941716
vn -0.6731167 -0.6785108 -0.2941716
vn -0.6731167 -0.6785108 -0.2941716
g Branch.004_0
f 3/3/3 2/2/2 1/1/1
f 4/4/4 3/3/3 1/1/1
f 7/7/7 6/6/6 5/5/5
f 8/8/8 7/7/7 5/5/5
f 11/11/11 10/10/10 9/9/9
f 12/12/12 11/11/11 9/9/9
f 15/15/15 14/14/14 13/13/13
f 16/16/16 15/15/15 13/13/13
f 19/19/19 18/18/18 17/17/17
f 20/20/20 19/19/19 17/17/17
f 23/23/23 22/22/22 21/21/21
f 24/24/24 23/23/23 21/21/21
f 25/25/25 23/23/23 24/24/24
f 26/26/26 25/25/25 24/24/24
f 27/27/27 25/25/25 26/26/26
f 30/30/30 29/29/29 28/28/28
f 31/31/31 30/30/30 28/28/28
f 34/34/34 33/33/33 32/32/32
f 35/35/35 34/34/34 32/32/32
f 38/38/38 37/37/37 36/36/36
f 39/39/39 38/38/38 36/36/36
f 42/42/42 41/41/41 40/40/40
f 43/43/43 42/42/42 40/40/40
f 46/46/46 45/45/45 44/44/44
f 47/47/47 46/46/46 44/44/44
f 50/50/50 49/49/49 48/48/48
f 51/51/51 50/50/50 48/48/48
f 54/54/54 53/53/53 52/52/52
f 55/55/55 54/54/54 52/52/52
f 58/58/58 57/57/57 56/56/56
f 59/59/59 58/58/58 56/56/56
f 62/62/62 61/61/61 60/60/60
f 63/63/63 62/62/62 60/60/60
f 66/66/66 65/65/65 64/64/64
f 69/69/69 68/68/68 67/67/67
f 72/72/72 71/71/71 70/70/70
f 75/75/75 74/74/74 73/73/73
f 78/78/78 77/77/77 76/76/76
f 81/81/81 80/80/80 79/79/79
f 84/84/84 83/83/83 82/82/82
