# Blender v3.0.0 OBJ File: ''
# www.blender.org
o Brighe_span.001
v -1.500000 0.500023 -0.449966
v -1.500000 0.399977 -0.449966
v -1.500000 0.399977 0.000000
v -1.500000 0.500023 0.000000
v -1.500000 0.399977 -3.000000
v -1.500000 0.000000 0.000000
v -1.500000 0.000000 -3.000000
v 1.500000 0.500023 -0.449966
v 1.500000 0.399977 -0.449966
v -1.500000 0.399977 -0.449966
v -1.500000 0.500023 -0.449966
v 1.500000 0.500023 0.000000
v 1.500000 0.399977 0.000000
v 1.500000 0.399977 -0.449966
v 1.500000 0.500023 -0.449966
v 1.500000 0.000000 0.000000
v 1.500000 0.000000 -3.000000
v 1.500000 0.399977 -3.000000
v -1.500000 0.500023 0.000000
v -1.500000 0.399977 0.000000
v 1.500000 0.399977 0.000000
v 1.500000 0.500023 0.000000
v -1.500000 0.000000 0.000000
v -1.100022 0.000000 0.000000
v -1.100022 0.399977 0.000000
v 1.100023 0.399977 0.000000
v 1.500000 0.000000 0.000000
v 1.100023 0.000000 0.000000
v -1.500000 0.500023 -0.999977
v 1.500000 0.500023 -0.999977
v 1.500000 0.500023 -1.450011
v -1.500000 0.500023 -1.450011
v -1.500000 0.500023 0.000000
v 1.500000 0.500023 0.000000
v 1.500000 0.500023 -0.449966
v -1.500000 0.500023 -0.449966
v 1.500000 0.399977 -3.000000
v 1.500000 0.000000 -3.000000
v 1.100023 0.000000 -3.000000
v 1.100023 0.399977 -3.000000
v 1.500000 0.000000 0.000000
v 1.100023 0.000000 0.000000
v 1.100023 0.000000 -3.000000
v 1.500000 0.000000 -3.000000
v -1.500000 0.399977 0.000000
v -1.100022 0.399977 0.000000
v -1.100022 0.399977 -3.000000
v -1.500000 0.399977 -3.000000
v -1.500000 0.500023 -0.999977
v -1.500000 0.399977 -0.999977
v 1.500000 0.399977 -0.999977
v 1.500000 0.500023 -0.999977
v 1.500000 0.500023 -0.999977
v 1.500000 0.399977 -0.999977
v 1.500000 0.399977 -1.450011
v 1.500000 0.500023 -1.450011
v 1.500000 0.500023 -1.450011
v 1.500000 0.399977 -1.450011
v -1.500000 0.399977 -1.450011
v -1.500000 0.500023 -1.450011
v -1.500000 0.500023 -1.450011
v -1.500000 0.399977 -1.450011
v -1.500000 0.399977 -0.999977
v -1.500000 0.500023 -0.999977
v -1.500000 0.500023 -1.949965
v -1.500000 0.399977 -1.949965
v -1.500000 0.399977 -1.500000
v -1.500000 0.500023 -1.500000
v 1.500000 0.500023 -1.949965
v 1.500000 0.399977 -1.949965
v -1.500000 0.399977 -1.949965
v -1.500000 0.500023 -1.949965
v 1.500000 0.500023 -1.500000
v 1.500000 0.399977 -1.500000
v 1.500000 0.399977 -1.949965
v 1.500000 0.500023 -1.949965
v -1.500000 0.500023 -1.500000
v -1.500000 0.399977 -1.500000
v 1.500000 0.399977 -1.500000
v 1.500000 0.500023 -1.500000
v -1.500000 0.500023 -1.500000
v 1.500000 0.500023 -1.500000
v 1.500000 0.500023 -1.949965
v -1.500000 0.500023 -1.949965
v -1.500000 0.500023 -2.000023
v 1.500000 0.500023 -2.000023
v 1.500000 0.500023 -2.449988
v -1.500000 0.500023 -2.449988
v -1.500000 0.500023 -2.000023
v -1.500000 0.399977 -2.000023
v 1.500000 0.399977 -2.000023
v 1.500000 0.500023 -2.000023
v 1.500000 0.500023 -2.000023
v 1.500000 0.399977 -2.000023
v 1.500000 0.399977 -2.449988
v 1.500000 0.500023 -2.449988
v 1.500000 0.500023 -2.449988
v 1.500000 0.399977 -2.449988
v -1.500000 0.399977 -2.449988
v -1.500000 0.500023 -2.449988
v -1.500000 0.500023 -2.449988
v -1.500000 0.399977 -2.449988
v -1.500000 0.399977 -2.000023
v -1.500000 0.500023 -2.000023
v -1.500000 0.500023 -2.950011
v -1.500000 0.399977 -2.950011
v -1.500000 0.399977 -2.499977
v -1.500000 0.500023 -2.499977
v 1.500000 0.500023 -2.950011
v 1.500000 0.399977 -2.950011
v -1.500000 0.399977 -2.950011
v -1.500000 0.500023 -2.950011
v 1.500000 0.500023 -2.499977
v 1.500000 0.399977 -2.499977
v 1.500000 0.399977 -2.950011
v 1.500000 0.500023 -2.950011
v -1.500000 0.500023 -2.499977
v -1.500000 0.399977 -2.499977
v 1.500000 0.399977 -2.499977
v 1.500000 0.500023 -2.499977
v -1.500000 0.500023 -2.499977
v 1.500000 0.500023 -2.499977
v 1.500000 0.500023 -2.950011
v -1.500000 0.500023 -2.950011
v -1.500000 0.500023 -0.949989
v -1.500000 0.399977 -0.949989
v -1.500000 0.399977 -0.500023
v -1.500000 0.500023 -0.500023
v 1.500000 0.500023 -0.949989
v 1.500000 0.399977 -0.949989
v -1.500000 0.399977 -0.949989
v -1.500000 0.500023 -0.949989
v 1.500000 0.500023 -0.500023
v 1.500000 0.399977 -0.500023
v 1.500000 0.399977 -0.949989
v 1.500000 0.500023 -0.949989
v -1.500000 0.500023 -0.500023
v -1.500000 0.399977 -0.500023
v 1.500000 0.399977 -0.500023
v 1.500000 0.500023 -0.500023
v -1.500000 0.500023 -0.500023
v 1.500000 0.500023 -0.500023
v 1.500000 0.500023 -0.949989
v -1.500000 0.500023 -0.949989
v 1.100023 0.399977 0.000000
v 1.500000 0.399977 0.000000
v 1.500000 0.399977 -3.000000
v 1.100023 0.399977 -3.000000
v -1.100022 0.000000 0.000000
v -1.500000 0.000000 0.000000
v -1.500000 0.000000 -3.000000
v -1.100022 0.000000 -3.000000
v -1.100022 0.399977 -3.000000
v -1.100022 0.000000 -3.000000
v -1.500000 0.000000 -3.000000
v -1.500000 0.399977 -3.000000
v 1.100023 0.000000 -3.000000
v 1.100023 0.000000 0.000000
v 1.100023 0.399977 0.000000
v 1.100023 0.399977 -3.000000
v -1.100022 0.000000 -3.000000
v -1.100022 0.399977 -3.000000
v -1.100022 0.399977 0.000000
v -1.100022 0.000000 0.000000
vn -1.0000 -0.0000 0.0000
vn 0.0000 0.0000 -1.0000
vn 1.0000 -0.0000 0.0000
vn 0.0000 -0.0000 1.0000
vn 0.0000 1.0000 0.0000
vn 0.0000 -1.0000 -0.0000
s 1
f 1//1 2//1 3//1
f 4//1 1//1 3//1
f 3//1 5//1 6//1
f 5//1 7//1 6//1
f 8//2 9//2 10//2
f 11//2 8//2 10//2
f 12//3 13//3 14//3
f 15//3 12//3 14//3
f 13//3 16//3 17//3
f 18//3 13//3 17//3
f 19//4 20//4 21//4
f 22//4 19//4 21//4
f 20//4 23//4 24//4
f 25//4 20//4 24//4
f 21//4 26//4 27//4
f 26//4 28//4 27//4
f 29//5 30//5 31//5
f 32//5 29//5 31//5
f 33//5 34//5 35//5
f 36//5 33//5 35//5
f 37//2 38//2 39//2
f 40//2 37//2 39//2
f 41//6 42//6 43//6
f 44//6 41//6 43//6
f 45//5 46//5 47//5
f 48//5 45//5 47//5
f 49//4 50//4 51//4
f 52//4 49//4 51//4
f 53//3 54//3 55//3
f 56//3 53//3 55//3
f 57//2 58//2 59//2
f 60//2 57//2 59//2
f 61//1 62//1 63//1
f 64//1 61//1 63//1
f 65//1 66//1 67//1
f 68//1 65//1 67//1
f 69//2 70//2 71//2
f 72//2 69//2 71//2
f 73//3 74//3 75//3
f 76//3 73//3 75//3
f 77//4 78//4 79//4
f 80//4 77//4 79//4
f 81//5 82//5 83//5
f 84//5 81//5 83//5
f 85//5 86//5 87//5
f 88//5 85//5 87//5
f 89//4 90//4 91//4
f 92//4 89//4 91//4
f 93//3 94//3 95//3
f 96//3 93//3 95//3
f 97//2 98//2 99//2
f 100//2 97//2 99//2
f 101//1 102//1 103//1
f 104//1 101//1 103//1
f 105//1 106//1 107//1
f 108//1 105//1 107//1
f 109//2 110//2 111//2
f 112//2 109//2 111//2
f 113//3 114//3 115//3
f 116//3 113//3 115//3
f 117//4 118//4 119//4
f 120//4 117//4 119//4
f 121//5 122//5 123//5
f 124//5 121//5 123//5
f 125//1 126//1 127//1
f 128//1 125//1 127//1
f 129//2 130//2 131//2
f 132//2 129//2 131//2
f 133//3 134//3 135//3
f 136//3 133//3 135//3
f 137//4 138//4 139//4
f 140//4 137//4 139//4
f 141//5 142//5 143//5
f 144//5 141//5 143//5
f 145//5 146//5 147//5
f 148//5 145//5 147//5
f 149//6 150//6 151//6
f 152//6 149//6 151//6
f 153//2 154//2 155//2
f 156//2 153//2 155//2
f 157//1 158//1 159//1
f 160//1 157//1 159//1
f 161//3 162//3 163//3
f 164//3 161//3 163//3
