g CaveFlower
v -0.3588269 0.9547373 -0.1135997
v -0.2307273 0.9552764 -0.1666608
v -0.2308938 0.9948534 0.01450115
v -0.2307273 0.9552764 -0.1666608
v -0.1026276 0.9558154 -0.1135997
v -0.2308938 0.9948534 0.01450115
v -0.04956697 0.9560387 0.01450112
v -0.1026275 0.9558154 0.1426019
v -0.2308938 0.9948534 0.01450115
v -0.2307272 0.9552764 0.195663
v -0.3588269 0.9547374 0.1426019
v -0.2308938 0.9948534 0.01450115
v -0.4118875 0.9545141 0.01450116
v -0.3588269 0.9547373 -0.1135997
v -0.2308938 0.9948534 0.01450115
v -0.1026276 0.9558154 -0.1135997
v -0.04956697 0.9560387 0.01450112
v -0.2308938 0.9948534 0.01450115
v -0.1026275 0.9558154 0.1426019
v -0.2307272 0.9552764 0.195663
v -0.2308938 0.9948534 0.01450115
v -0.3588269 0.9547374 0.1426019
v -0.4118875 0.9545141 0.01450116
v -0.2308938 0.9948534 0.01450115
v 0.002077132 0.9122647 0.2471223
v 0.04078148 0.8541134 0.4499803
v -0.07715532 0.8536172 0.4988318
v -0.2305421 0.9112859 0.3434773
v 0.0984311 0.9126701 0.01450111
v 0.2602775 0.8550369 0.1572307
v 0.2114265 0.8548315 0.2751685
v 0.002077132 0.9122647 0.2471223
v 0.002077088 0.9122646 -0.2181201
v 0.2343352 0.8549278 -0.2336705
v 0.2831861 0.8551334 -0.1157327
v 0.0984311 0.9126701 0.01450111
v -0.2305422 0.9112859 -0.314475
v -0.07715547 0.8536171 -0.4573336
v 0.04078139 0.8541134 -0.4084823
v 0.002077088 0.9122646 -0.2181201
v -0.4631614 0.910307 -0.2181201
v -0.4826314 0.8519109 -0.4022343
v -0.3646947 0.8524073 -0.4510858
v -0.2305422 0.9112859 -0.314475
v -0.5595154 0.9099017 0.0145012
v -0.6833839 0.8510662 -0.08449309
v -0.6345329 0.8512718 -0.202431
v -0.4631614 0.910307 -0.2181201
v -0.4631613 0.910307 0.2471224
v -0.6366155 0.8512631 0.2834991
v -0.6854665 0.8510575 0.1655613
v -0.5595154 0.9099017 0.0145012
v -0.2305421 0.9112859 0.3434773
v -0.3542815 0.8524511 0.4842535
v -0.4722184 0.8519549 0.435402
v -0.4631613 0.910307 0.2471224
v -0.3588269 0.9547373 -0.1135997
v -0.4631614 0.910307 -0.2181201
v -0.2305422 0.9112859 -0.314475
v -0.2307273 0.9552764 -0.1666608
v -0.2307273 0.9552764 -0.1666608
v -0.2305422 0.9112859 -0.314475
v 0.002077088 0.9122646 -0.2181201
v -0.1026276 0.9558154 -0.1135997
v -0.04956697 0.9560387 0.01450112
v 0.0984311 0.9126701 0.01450111
v 0.002077132 0.9122647 0.2471223
v -0.1026275 0.9558154 0.1426019
v -0.2307272 0.9552764 0.195663
v -0.2305421 0.9112859 0.3434773
v -0.4631613 0.910307 0.2471224
v -0.3588269 0.9547374 0.1426019
v -0.4118875 0.9545141 0.01450116
v -0.5595154 0.9099017 0.0145012
v -0.4631614 0.910307 -0.2181201
v -0.3588269 0.9547373 -0.1135997
v -0.1026276 0.9558154 -0.1135997
v 0.002077088 0.9122646 -0.2181201
v 0.0984311 0.9126701 0.01450111
v -0.04956697 0.9560387 0.01450112
v -0.1026275 0.9558154 0.1426019
v 0.002077132 0.9122647 0.2471223
v -0.2305421 0.9112859 0.3434773
v -0.2307272 0.9552764 0.195663
v -0.3588269 0.9547374 0.1426019
v -0.4631613 0.910307 0.2471224
v -0.5595154 0.9099017 0.0145012
v -0.4118875 0.9545141 0.01450116
v -0.2305421 0.9092637 0.3434773
v -0.4631613 0.9082848 0.2471224
v -0.4722184 0.8499327 0.435402
v -0.3542815 0.8504289 0.4842535
v -0.4631613 0.9082848 0.2471224
v -0.5595154 0.9078795 0.0145012
v -0.6854665 0.8490353 0.1655613
v -0.6366155 0.8492409 0.2834991
v -0.5595154 0.9078795 0.0145012
v -0.4631614 0.9082848 -0.2181201
v -0.6345329 0.8492496 -0.202431
v -0.6833839 0.849044 -0.08449309
v -0.4631614 0.9082848 -0.2181201
v -0.2305422 0.9092637 -0.314475
v -0.3646947 0.8503851 -0.4510858
v -0.4826314 0.8498887 -0.4022343
v -0.2305422 0.9092637 -0.314475
v 0.002077088 0.9102424 -0.2181201
v 0.04078139 0.8520912 -0.4084823
v -0.07715547 0.8515949 -0.4573336
v 0.002077088 0.9102424 -0.2181201
v 0.0984311 0.9106479 0.01450111
v 0.2831861 0.8531111 -0.1157327
v 0.2343352 0.8529056 -0.2336705
v 0.0984311 0.9106479 0.01450111
v 0.002077132 0.9102425 0.2471223
v 0.2114265 0.8528093 0.2751685
v 0.2602775 0.8530147 0.1572307
v 0.002077132 0.9102425 0.2471223
v -0.2305421 0.9092637 0.3434773
v -0.07715532 0.851595 0.4988318
v 0.04078148 0.8520912 0.4499803
v -0.1947952 0.5026066 0.03172053
v -0.231423 0.5026066 -0.03172072
v 1.490116E-08 0 -0.03172063
v 0.02179082 0.02944076 0.03172061
v -0.2680508 0.5026066 0.03172056
v -0.1947952 0.5026066 0.03172053
v 0.02179082 0.02944076 0.03172061
v -0.02179079 -0.02944076 0.03172064
v -0.2680508 0.9498167 0.03172049
v -0.1947952 0.9498167 0.03172046
v -0.231423 0.5026066 -0.03172072
v -0.2680508 0.5026066 0.03172056
v -0.02179079 -0.02944076 0.03172064
v 1.490116E-08 0 -0.03172063
v -0.231423 0.9498167 -0.03172079
v -0.2680508 0.9498167 0.03172049
v -0.2680508 0.5026066 0.03172056
v -0.231423 0.5026066 -0.03172072
v -0.1947952 0.9498167 0.03172046
v -0.231423 0.9498167 -0.03172079
v -0.231423 0.5026066 -0.03172072
v -0.1947952 0.5026066 0.03172053
vt 0.7652023 0.5742186
vt 0.7652024 0.5742187
vt 0.7652024 0.5742187
vt 0.7652024 0.5742187
vt 0.7652024 0.5742187
vt 0.7652024 0.5742187
vt 0.7652023 0.5742186
vt 0.7652024 0.5742187
vt 0.7652024 0.5742187
vt 0.7652024 0.5742187
vt 0.7652023 0.5742188
vt 0.7652024 0.5742187
vt 0.7652024 0.5742187
vt 0.7652023 0.5742186
vt 0.7652024 0.5742187
vt 0.7652024 0.5742187
vt 0.7652023 0.5742186
vt 0.7652024 0.5742187
vt 0.7652024 0.5742187
vt 0.7652024 0.5742187
vt 0.7652024 0.5742187
vt 0.7652023 0.5742188
vt 0.7652024 0.5742187
vt 0.7652024 0.5742187
vt 0.1655931 0.5859374
vt 0.1655931 0.5859374
vt 0.1655931 0.5859374
vt 0.1655931 0.5859374
vt 0.1655931 0.5859374
vt 0.1655931 0.5859374
vt 0.1655931 0.5859374
vt 0.1655931 0.5859374
vt 0.1655931 0.5859374
vt 0.1655931 0.5859374
vt 0.1655931 0.5859374
vt 0.1655931 0.5859374
vt 0.1655931 0.5859374
vt 0.1655931 0.5859374
vt 0.1655931 0.5859374
vt 0.1655931 0.5859374
vt 0.1655931 0.5859374
vt 0.1655931 0.5859374
vt 0.1655931 0.5859374
vt 0.1655931 0.5859374
vt 0.1655931 0.5859374
vt 0.1655931 0.5859374
vt 0.1655931 0.5859374
vt 0.1655931 0.5859374
vt 0.1655931 0.5859374
vt 0.1655931 0.5859374
vt 0.1655931 0.5859374
vt 0.1655931 0.5859374
vt 0.1655931 0.5859374
vt 0.1655931 0.5859374
vt 0.1655931 0.5859374
vt 0.1655931 0.5859374
vt 0.7652023 0.5742186
vt 0.7652024 0.5742187
vt 0.7652024 0.5742187
vt 0.7652024 0.5742187
vt 0.7652024 0.5742187
vt 0.7652024 0.5742187
vt 0.7652024 0.5742187
vt 0.7652024 0.5742187
vt 0.7652023 0.5742186
vt 0.7652024 0.5742187
vt 0.7652024 0.5742187
vt 0.7652024 0.5742187
vt 0.7652024 0.5742187
vt 0.7652024 0.5742187
vt 0.7652024 0.5742187
vt 0.7652023 0.5742188
vt 0.7652024 0.5742187
vt 0.7652024 0.5742187
vt 0.7652024 0.5742187
vt 0.7652023 0.5742186
vt 0.7652024 0.5742187
vt 0.7652024 0.5742187
vt 0.7652024 0.5742187
vt 0.7652023 0.5742186
vt 0.7652024 0.5742187
vt 0.7652024 0.5742187
vt 0.7652024 0.5742187
vt 0.7652024 0.5742187
vt 0.7652023 0.5742188
vt 0.7652024 0.5742187
vt 0.7652024 0.5742187
vt 0.7652024 0.5742187
vt 0.1655931 0.5859374
vt 0.1655931 0.5859374
vt 0.1655931 0.5859374
vt 0.1655931 0.5859374
vt 0.1655931 0.5859374
vt 0.1655931 0.5859374
vt 0.1655931 0.5859374
vt 0.1655931 0.5859374
vt 0.1655931 0.5859374
vt 0.1655931 0.5859374
vt 0.1655931 0.5859374
vt 0.1655931 0.5859374
vt 0.1655931 0.5859374
vt 0.1655931 0.5859374
vt 0.1655931 0.5859374
vt 0.1655931 0.5859374
vt 0.1655931 0.5859374
vt 0.1655931 0.5859374
vt 0.1655931 0.5859374
vt 0.1655931 0.5859374
vt 0.1655931 0.5859374
vt 0.1655931 0.5859374
vt 0.1655931 0.5859374
vt 0.1655931 0.5859374
vt 0.1655931 0.5859374
vt 0.1655931 0.5859374
vt 0.1655931 0.5859374
vt 0.1655931 0.5859374
vt 0.1655931 0.5859374
vt 0.1655931 0.5859374
vt 0.1655931 0.5859374
vt 0.1655931 0.5859374
vt 0.7112967 0.5634376
vt 0.7112967 0.5634376
vt 0.7112967 0.5634376
vt 0.7112967 0.5634376
vt 0.7112967 0.5634376
vt 0.7112967 0.5634376
vt 0.7112967 0.5634376
vt 0.7112967 0.5634376
vt 0.7112967 0.5634376
vt 0.7112967 0.5634376
vt 0.7112967 0.5634376
vt 0.7112967 0.5634376
vt 0.7112967 0.5634376
vt 0.7112967 0.5634376
vt 0.7112967 0.5634376
vt 0.7112967 0.5634376
vt 0.7112967 0.5634376
vt 0.7112967 0.5634376
vt 0.7112967 0.5634376
vt 0.7112967 0.5634376
vt 0.7112967 0.5634376
vt 0.7112967 0.5634376
vn -0.09215524 0.9727836 -0.2126013
vn -0.09215524 0.9727836 -0.2126013
vn -0.09215524 0.9727836 -0.2126013
vn 0.08396509 0.9735248 -0.2126014
vn 0.08396509 0.9735248 -0.2126014
vn 0.08396509 0.9735248 -0.2126014
vn 0.2085048 0.9740487 0.08806203
vn 0.2085048 0.9740487 0.08806203
vn 0.2085048 0.9740487 0.08806203
vn -0.0921559 0.9727837 0.212601
vn -0.0921559 0.9727837 0.212601
vn -0.0921559 0.9727837 0.212601
vn -0.2166935 0.9722597 -0.08806258
vn -0.2166935 0.9722597 -0.08806258
vn -0.2166935 0.9722597 -0.08806258
vn 0.2085047 0.9740487 -0.08806242
vn 0.2085047 0.9740487 -0.08806242
vn 0.2085047 0.9740487 -0.08806242
vn 0.08396699 0.9735247 0.2126011
vn 0.08396699 0.9735247 0.2126011
vn 0.08396699 0.9735247 0.2126011
vn -0.2166952 0.9722593 0.08806237
vn -0.2166952 0.9722593 0.08806237
vn -0.2166952 0.9722593 0.08806237
vn 0.1020306 0.9612542 0.2560863
vn 0.1020306 0.9612542 0.2560863
vn 0.1020306 0.9612542 0.2560863
vn 0.1020306 0.9612542 0.2560863
vn 0.2499644 0.9625215 0.1052151
vn 0.2499644 0.9625215 0.1052151
vn 0.2499644 0.9625215 0.1052151
vn 0.2499644 0.9625215 0.1052151
vn 0.2323357 0.9676938 -0.09792246
vn 0.2323357 0.9676938 -0.09792246
vn 0.2323357 0.9676938 -0.09792246
vn 0.2323357 0.9676938 -0.09792246
vn 0.1079394 0.9567048 -0.2703053
vn 0.1079394 0.9567048 -0.2703053
vn 0.1079394 0.9567048 -0.2703053
vn 0.1079394 0.9567048 -0.2703053
vn -0.123351 0.9496086 -0.2881458
vn -0.123351 0.9496086 -0.2881458
vn -0.123351 0.9496086 -0.2881458
vn -0.123351 0.9496086 -0.2881458
vn -0.3338079 0.9326851 -0.1366408
vn -0.3338079 0.9326851 -0.1366408
vn -0.3338079 0.9326851 -0.1366408
vn -0.3338079 0.9326851 -0.1366408
vn -0.2969607 0.9471471 0.1213531
vn -0.2969607 0.9471471 0.1213531
vn -0.2969607 0.9471471 0.1213531
vn -0.2969607 0.9471471 0.1213531
vn -0.1234336 0.9495371 0.288346
vn -0.1234336 0.9495371 0.288346
vn -0.1234336 0.9495371 0.288346
vn -0.1234336 0.9495371 0.288346
vn -0.1213402 0.9513318 -0.2832744
vn -0.1213402 0.9513318 -0.2832744
vn -0.1213402 0.9513318 -0.2832744
vn -0.1213402 0.9513318 -0.2832744
vn 0.1133299 0.9523192 -0.2832746
vn 0.1133299 0.9523192 -0.2832746
vn 0.1133299 0.9523192 -0.2832746
vn 0.1133299 0.9523192 -0.2832746
vn 0.279267 0.9530174 0.117336
vn 0.279267 0.9530174 0.117336
vn 0.279267 0.9530174 0.117336
vn 0.279267 0.9530174 0.117336
vn -0.121341 0.9513317 0.2832745
vn -0.121341 0.9513317 0.2832745
vn -0.121341 0.9513317 0.2832745
vn -0.121341 0.9513317 0.2832745
vn -0.2872764 0.9506337 -0.1173362
vn -0.2872764 0.9506337 -0.1173362
vn -0.2872764 0.9506337 -0.1173362
vn -0.2872764 0.9506337 -0.1173362
vn 0.2792669 0.9530174 -0.1173363
vn 0.2792669 0.9530174 -0.1173363
vn 0.2792669 0.9530174 -0.1173363
vn 0.2792669 0.9530174 -0.1173363
vn 0.1133302 0.9523192 0.2832744
vn 0.1133302 0.9523192 0.2832744
vn 0.1133302 0.9523192 0.2832744
vn 0.1133302 0.9523192 0.2832744
vn -0.287276 0.9506338 0.1173363
vn -0.287276 0.9506338 0.1173363
vn -0.287276 0.9506338 0.1173363
vn -0.287276 0.9506338 0.1173363
vn 0.1234336 -0.9495371 -0.288346
vn 0.1234336 -0.9495371 -0.288346
vn 0.1234336 -0.9495371 -0.288346
vn 0.1234336 -0.9495371 -0.288346
vn 0.2969596 -0.9471475 -0.1213532
vn 0.2969596 -0.9471475 -0.1213532
vn 0.2969596 -0.9471475 -0.1213532
vn 0.2969596 -0.9471475 -0.1213532
vn 0.3338071 -0.9326854 0.1366408
vn 0.3338071 -0.9326854 0.1366408
vn 0.3338071 -0.9326854 0.1366408
vn 0.3338071 -0.9326854 0.1366408
vn 0.1233509 -0.9496087 0.2881458
vn 0.1233509 -0.9496087 0.2881458
vn 0.1233509 -0.9496087 0.2881458
vn 0.1233509 -0.9496087 0.2881458
vn -0.1079393 -0.9567048 0.2703053
vn -0.1079393 -0.9567048 0.2703053
vn -0.1079393 -0.9567048 0.2703053
vn -0.1079393 -0.9567048 0.2703053
vn -0.2323354 -0.9676939 0.09792247
vn -0.2323354 -0.9676939 0.09792247
vn -0.2323354 -0.9676939 0.09792247
vn -0.2323354 -0.9676939 0.09792247
vn -0.2499646 -0.9625214 -0.1052151
vn -0.2499646 -0.9625214 -0.1052151
vn -0.2499646 -0.9625214 -0.1052151
vn -0.2499646 -0.9625214 -0.1052151
vn -0.1020313 -0.9612541 -0.2560862
vn -0.1020313 -0.9612541 -0.2560862
vn -0.1020313 -0.9612541 -0.2560862
vn -0.1020313 -0.9612541 -0.2560862
vn 0.8078626 0.370916 -0.4580166
vn 0.8078626 0.370916 -0.4580166
vn 0.8078626 0.370916 -0.4580166
vn 0.8078626 0.370916 -0.4580166
vn 0 0 1
vn 0 0 1
vn 0 0 1
vn 0 0 1
vn 0 0 1
vn 0 0 1
vn -0.8070677 -0.3726102 -0.458043
vn -0.8070677 -0.3726102 -0.458043
vn -0.8070677 -0.3726102 -0.458043
vn -0.8070677 -0.3726102 -0.458043
vn -0.8660254 0 -0.5000001
vn -0.8660254 0 -0.5000001
vn -0.8660254 0 -0.5000001
vn -0.8660254 0 -0.5000001
vn 0.8660253 0 -0.5000001
vn 0.8660253 0 -0.5000001
vn 0.8660253 0 -0.5000001
vn 0.8660253 0 -0.5000001
g CaveFlower_0
f 3/3/3 2/2/2 1/1/1
f 6/6/6 5/5/5 4/4/4
f 9/9/9 8/8/8 7/7/7
f 12/12/12 11/11/11 10/10/10
f 15/15/15 14/14/14 13/13/13
f 18/18/18 17/17/17 16/16/16
f 21/21/21 20/20/20 19/19/19
f 24/24/24 23/23/23 22/22/22
f 27/27/27 26/26/26 25/25/25
f 28/28/28 27/27/27 25/25/25
f 31/31/31 30/30/30 29/29/29
f 32/32/32 31/31/31 29/29/29
f 35/35/35 34/34/34 33/33/33
f 36/36/36 35/35/35 33/33/33
f 39/39/39 38/38/38 37/37/37
f 40/40/40 39/39/39 37/37/37
f 43/43/43 42/42/42 41/41/41
f 44/44/44 43/43/43 41/41/41
f 47/47/47 46/46/46 45/45/45
f 48/48/48 47/47/47 45/45/45
f 51/51/51 50/50/50 49/49/49
f 52/52/52 51/51/51 49/49/49
f 55/55/55 54/54/54 53/53/53
f 56/56/56 55/55/55 53/53/53
f 59/59/59 58/58/58 57/57/57
f 60/60/60 59/59/59 57/57/57
f 63/63/63 62/62/62 61/61/61
f 64/64/64 63/63/63 61/61/61
f 67/67/67 66/66/66 65/65/65
f 68/68/68 67/67/67 65/65/65
f 71/71/71 70/70/70 69/69/69
f 72/72/72 71/71/71 69/69/69
f 75/75/75 74/74/74 73/73/73
f 76/76/76 75/75/75 73/73/73
f 79/79/79 78/78/78 77/77/77
f 80/80/80 79/79/79 77/77/77
f 83/83/83 82/82/82 81/81/81
f 84/84/84 83/83/83 81/81/81
f 87/87/87 86/86/86 85/85/85
f 88/88/88 87/87/87 85/85/85
f 91/91/91 90/90/90 89/89/89
f 92/92/92 91/91/91 89/89/89
f 95/95/95 94/94/94 93/93/93
f 96/96/96 95/95/95 93/93/93
f 99/99/99 98/98/98 97/97/97
f 100/100/100 99/99/99 97/97/97
f 103/103/103 102/102/102 101/101/101
f 104/104/104 103/103/103 101/101/101
f 107/107/107 106/106/106 105/105/105
f 108/108/108 107/107/107 105/105/105
f 111/111/111 110/110/110 109/109/109
f 112/112/112 111/111/111 109/109/109
f 115/115/115 114/114/114 113/113/113
f 116/116/116 115/115/115 113/113/113
f 119/119/119 118/118/118 117/117/117
f 120/120/120 119/119/119 117/117/117
f 123/123/123 122/122/122 121/121/121
f 124/124/124 123/123/123 121/121/121
f 127/127/127 126/126/126 125/125/125
f 128/128/128 127/127/127 125/125/125
f 125/125/125 126/126/126 129/129/129
f 126/126/126 130/130/130 129/129/129
f 133/133/133 132/132/132 131/131/131
f 134/134/134 133/133/133 131/131/131
f 137/137/137 136/136/136 135/135/135
f 138/138/138 137/137/137 135/135/135
f 141/141/141 140/140/140 139/139/139
f 142/142/142 141/141/141 139/139/139
