g Coast3
v -3.000024 -0.1000433 4.148483E-05
v -3.278992 -0.1000433 -0.9999871
v -2.849795 0.04793477 -0.5534947
v -1.649392 0.6848748 -0.9521961
v -2.509016 0.2711296 -0.9789057
v 3.000044 -0.1000433 4.148483E-05
v -3.000024 -0.1000433 4.148483E-05
v -1.800031 0.9999673 4.148483E-05
v -0.6000383 0.9999673 4.148483E-05
v 0.5999551 0.9999673 4.148483E-05
v 1.799948 0.9999673 4.148483E-05
v -1.800031 0.9999673 4.148483E-05
v -3.000024 -0.1000433 4.148483E-05
v -1.649392 0.6848748 -0.9521961
v -3.000024 -0.1000433 4.148483E-05
v 3.000044 -0.1000433 4.148483E-05
v -3.278992 -0.1000433 -0.9999871
v -2.845189 -0.1000433 -1.836789
v 3.404169 -0.1000433 -0.9604852
v -0.6000383 -0.1000433 -2.543932
v -1.567831 -0.1000433 -3.265504
v -2.7449 -0.1000433 -2.855648
v 0.5999551 -0.1000433 -2.685974
v 1.479841 -0.1000433 -3.427604
v 3.164293 -0.1000433 -2.211339
v 2.588857 -0.1000433 -3.006184
v -0.7239668 0.7229435 -0.9553683
v -1.649392 0.6848748 -0.9521961
v -1.515844 0.4658754 -1.664865
v -1.800031 0.9999673 4.148483E-05
v -0.5999358 0.460042 -1.749292
v -1.567831 -0.1000433 -3.265504
v -0.6000383 0.9999673 4.148483E-05
v -1.800031 0.9999673 4.148483E-05
v -2.7449 -0.1000433 -2.855648
v -1.515844 0.4658754 -1.664865
v -2.845189 -0.1000433 -1.836789
v -1.567831 -0.1000433 -3.265504
v -0.6000383 -0.1000433 -2.543932
v -0.5999358 0.460042 -1.749292
v -1.515844 0.4658754 -1.664865
v -2.7449 -0.1000433 -2.855648
v -1.567831 -0.1000433 -3.265504
v 1.799948 0.9999673 4.148483E-05
v 0.5999551 0.9999673 4.148483E-05
v 1.799948 0.7039092 -0.9553683
v 1.799948 0.7039092 -0.9553683
v 0.5999551 0.9999673 4.148483E-05
v 0.5994434 0.5532703 -0.9542427
v 1.800051 0.2109561 -1.84252
v 0.5999551 -0.1000433 -2.685974
v 1.479841 -0.1000433 -3.427604
v 0.5999551 -0.1000433 -2.685974
v 1.800051 0.2109561 -1.84252
v 0.5999551 0.531882 -1.84252
v 3.164293 -0.1000433 -2.211339
v 1.800051 0.2109561 -1.84252
v 2.588857 -0.1000433 -3.006184
v 1.800051 0.2109561 -1.84252
v 1.479841 -0.1000433 -3.427604
v 2.588857 -0.1000433 -3.006184
v 0.5994434 0.5532703 -0.9542427
v -0.6000383 0.9999673 4.148483E-05
v -0.7239668 0.7229435 -0.9553683
v -0.5999358 0.460042 -1.749292
v 0.5999551 -0.1000433 -2.685974
v 0.5999551 0.531882 -1.84252
v -0.6000383 -0.1000433 -2.543932
v -0.5999358 0.460042 -1.749292
v 3.164293 -0.1000433 -2.211339
v 3.404169 -0.1000433 -0.9604852
v 1.800051 0.2109561 -1.84252
v 1.800051 0.2109561 -1.84252
v 1.799948 0.7039092 -0.9553683
v 0.5999551 0.531882 -1.84252
v -2.845189 -0.1000433 -1.836789
v -2.451093 0.1589694 -1.546052
v -2.509016 0.2711296 -0.9789057
v -3.278992 -0.1000433 -0.9999871
v -2.037758 0.3435838 -1.463058
v -1.649392 0.6848748 -0.9521961
v -2.451093 0.1589694 -1.546052
v -2.845189 -0.1000433 -1.836789
v -1.515844 0.4658754 -1.664865
v -2.037758 0.3435838 -1.463058
v -1.649392 0.6848748 -0.9521961
v 3.404169 -0.1000433 -0.9604852
v 1.799948 0.7039092 -0.9553683
v 1.800051 0.2109561 -1.84252
v 3.404169 -0.1000433 -0.9604852
v 3.000044 -0.1000433 4.148483E-05
v 1.799948 0.9999673 4.148483E-05
v 1.799948 0.9999673 4.148483E-05
v 1.799948 0.7039092 -0.9553683
v 3.404169 -0.1000433 -0.9604852
v 1.799948 0.7039092 -0.9553683
v 0.5994434 0.5532703 -0.9542427
v 0.5999551 0.531882 -1.84252
v 0.5999551 0.9999673 4.148483E-05
v -0.6000383 0.9999673 4.148483E-05
v 0.5994434 0.5532703 -0.9542427
v 0.5994434 0.5532703 -0.9542427
v -0.5999358 0.460042 -1.749292
v 0.5999551 0.531882 -1.84252
vn -0.4337212 0.8959579 0.09563117
vn -0.4337212 0.8959579 0.09563117
vn -0.4337212 0.8959579 0.09563117
vn -0.4337212 0.8959579 0.09563117
vn -0.4337212 0.8959579 0.09563117
vn -0.002822638 0.002822638 0.999992
vn -0.002822638 0.002822638 0.999992
vn -0.002822638 0.002822638 0.999992
vn -0.002822638 0.002822638 0.999992
vn -0.002822638 0.002822638 0.999992
vn -0.002822638 0.002822638 0.999992
vn -0.6374187 0.6922604 -0.3383384
vn -0.6374187 0.6922604 -0.3383384
vn -0.6374187 0.6922604 -0.3383384
vn -0.002822638 -0.9999961 0
vn -0.002822638 -0.9999961 0
vn -0.002822638 -0.9999961 0
vn -0.002822638 -0.9999961 0
vn -0.002822638 -0.9999961 0
vn -0.002822638 -0.9999961 0
vn -0.002822638 -0.9999961 0
vn -0.002822638 -0.9999961 0
vn -0.002822638 -0.9999961 0
vn -0.002822638 -0.9999961 0
vn -0.002822638 -0.9999961 0
vn -0.002822638 -0.9999961 0
vn -0.04199517 0.9507996 -0.3069472
vn -0.04199517 0.9507996 -0.3069472
vn -0.04199517 0.9507996 -0.3069472
vn -0.04199517 0.942965 -0.3302323
vn -0.02632618 0.9507996 -0.308686
vn -0.02632618 0.942965 -0.3318492
vn -0.002822638 0.958634 -0.2846276
vn -0.002822638 0.958634 -0.2846276
vn -0.3867141 0.9194615 -0.07101219
vn -0.3867141 0.9194615 -0.07101219
vn -0.3867141 0.9194615 -0.07101219
vn 0.3967379 0.7549366 -0.5221779
vn 0.3967379 0.7549366 -0.5221779
vn 0.3967379 0.7549366 -0.5221779
vn -0.1125059 0.9351305 -0.3359664
vn -0.1125059 0.9351305 -0.3359664
vn -0.1125059 0.9351305 -0.3359664
vn -0.002822638 0.958634 -0.2846276
vn -0.002822638 0.958634 -0.2846276
vn -0.002822638 0.958634 -0.2846276
vn -0.1125059 0.8959579 -0.4296531
vn -0.1125059 0.8959579 -0.4296531
vn -0.1125059 0.8959579 -0.4296531
vn -0.1360095 0.9743031 -0.1795407
vn -0.1360095 0.9743031 -0.1795407
vn -0.1360095 0.9743031 -0.1795407
vn 0.2087095 0.7862747 -0.5815604
vn 0.2087095 0.7862747 -0.5815604
vn 0.2087095 0.7862747 -0.5815604
vn 0.1852059 0.9743031 -0.1281882
vn 0.1852059 0.9743031 -0.1281882
vn 0.1852059 0.9743031 -0.1281882
vn 0.07552266 0.9743031 -0.2122022
vn 0.07552266 0.9743031 -0.2122022
vn 0.07552266 0.9743031 -0.2122022
vn 0.1225297 0.9507996 -0.2845464
vn 0.1225297 0.9507996 -0.2845464
vn 0.1225297 0.9507996 -0.2845464
vn 0.1225297 0.9507996 -0.2845464
vn -0.07333326 0.8019437 -0.5928816
vn -0.07333326 0.8019437 -0.5928816
vn -0.07333326 0.8019437 -0.5928816
vn -0.09683681 0.8176126 -0.5675669
vn 0.2087095 0.9743031 -0.08469815
vn 0.2087095 0.9743031 -0.08469815
vn 0.2087095 0.9743031 -0.08469815
vn 0.2243785 0.8489507 -0.4784735
vn 0.2243785 0.8489507 -0.4784735
vn 0.2243785 0.8489507 -0.4784735
vn -0.4180522 0.8802888 -0.22433
vn -0.4180522 0.8802888 -0.22433
vn -0.4180522 0.8802888 -0.22433
vn -0.4180522 0.8802888 -0.22433
vn -0.3945487 0.8802888 -0.2634824
vn -0.3945487 0.8802888 -0.2634824
vn -0.3318725 0.8802888 -0.3390461
vn -0.3318725 0.8802888 -0.3390461
vn -0.3318725 0.8802888 -0.3390461
vn -0.3318725 0.8802888 -0.3390461
vn -0.3318725 0.8802888 -0.3390461
vn 0.3967379 0.8019437 -0.4466379
vn 0.3967379 0.8019437 -0.4466379
vn 0.3967379 0.8019437 -0.4466379
vn 0.6474426 0.7079294 0.2822305
vn 0.6474426 0.7079294 0.2822305
vn 0.6474426 0.7079294 0.2822305
vn 0.428076 0.8646199 -0.2630274
vn 0.428076 0.8646199 -0.2630274
vn 0.428076 0.8646199 -0.2630274
vn -0.1281749 0.9899721 -0.05938341
vn -0.1281749 0.9899721 -0.05938341
vn -0.1281749 0.9899721 -0.05938341
vn -0.002822638 0.9037924 -0.4279619
vn -0.002822638 0.9037924 -0.4279619
vn -0.002822638 0.9037924 -0.4279619
vn -0.06549883 0.9978067 -0.009577659
vn -0.06549883 0.9978067 -0.009577659
vn -0.06549883 0.9978067 -0.009577659
g Coast3_0
f 3/3/3 2/2/2 1/1/1
f 4/4/4 3/3/3 1/1/1
f 5/5/5 2/2/2 3/3/3
f 4/4/4 5/5/5 3/3/3
f 8/8/8 7/7/7 6/6/6
f 9/9/9 8/8/8 6/6/6
f 10/10/10 9/9/9 6/6/6
f 11/11/11 10/10/10 6/6/6
f 14/14/14 13/13/13 12/12/12
f 17/17/17 16/16/16 15/15/15
f 16/16/16 17/17/17 18/18/18
f 19/19/19 16/16/16 18/18/18
f 19/19/19 18/18/18 20/20/20
f 21/21/21 20/20/20 18/18/18
f 21/21/21 18/18/18 22/22/22
f 23/23/23 19/19/19 20/20/20
f 24/24/24 19/19/19 23/23/23
f 25/25/25 19/19/19 24/24/24
f 26/26/26 25/25/25 24/24/24
f 29/29/29 28/28/28 27/27/27
f 28/28/28 30/30/30 27/27/27
f 31/31/31 29/29/29 27/27/27
f 32/32/32 29/29/29 31/31/31
f 27/27/27 34/34/34 33/33/33
f 37/37/37 36/36/36 35/35/35
f 40/40/40 39/39/39 38/38/38
f 43/43/43 42/42/42 41/41/41
f 46/46/46 45/45/45 44/44/44
f 49/49/49 48/48/48 47/47/47
f 52/52/52 51/51/51 50/50/50
f 55/55/55 54/54/54 53/53/53
f 58/58/58 57/57/57 56/56/56
f 61/61/61 60/60/60 59/59/59
f 64/64/64 63/63/63 62/62/62
f 65/65/65 64/64/64 62/62/62
f 68/68/68 67/67/67 66/66/66
f 67/67/67 68/68/68 69/69/69
f 72/72/72 71/71/71 70/70/70
f 75/75/75 74/74/74 73/73/73
f 78/78/78 77/77/77 76/76/76
f 79/79/79 78/78/78 76/76/76
f 80/80/80 77/77/77 78/78/78
f 81/81/81 80/80/80 78/78/78
f 84/84/84 83/83/83 82/82/82
f 85/85/85 84/84/84 82/82/82
f 84/84/84 85/85/85 86/86/86
f 89/89/89 88/88/88 87/87/87
f 92/92/92 91/91/91 90/90/90
f 95/95/95 94/94/94 93/93/93
f 98/98/98 97/97/97 96/96/96
f 101/101/101 100/100/100 99/99/99
f 104/104/104 103/103/103 102/102/102
