# Made in Blockbench 4.7.4
mtllib materials.mtl

o cuboid
v 0.5 0.5 0.5
v 0.5 0.5 -0.5
v 0.5 -0.5 0.5
v 0.5 -0.5 -0.5
v -0.5 0.5 0.5
v -0.5 0.5 -0.5
v -0.5 -0.5 0.5
v -0.5 -0.5 -0.5
v -0.4375 0.5 0.5
v -0.4375 0.5 -0.5
v -0.4375 -0.5 -0.5
v -0.4375 -0.5 0.5
v 0.4375 0.5 -0.5
v 0.4375 0.5 0.5
v 0.4375 -0.5 0.5
v 0.4375 -0.5 -0.5
v 0.4375 -0.5 -0.4375
v -0.4375 -0.5 -0.4375
v -0.5 -0.5 -0.4375
v -0.5 0.5 -0.4375
v -0.4375 0.5 -0.4375
v 0.4375 0.5 -0.4375
v 0.5 0.5 -0.4375
v 0.5 -0.5 -0.4375
v -0.4375 -0.5 0.4375
v 0.4375 -0.5 0.4375
v 0.5 -0.5 0.4375
v 0.5 0.5 0.4375
v 0.4375 0.5 0.4375
v -0.4375 0.5 0.4375
v -0.5 0.5 0.4375
v -0.5 -0.5 0.4375
v -0.5 -0.4375 0.4375
v -0.5 -0.4375 -0.4375
v -0.5 -0.4375 -0.5
v -0.4375 -0.4375 -0.5
v 0.4375 -0.4375 -0.5
v 0.5 -0.4375 -0.5
v 0.5 -0.4375 -0.4375
v 0.5 -0.4375 0.4375
v 0.5 -0.4375 0.5
v 0.4375 -0.4375 0.5
v -0.4375 -0.4375 0.5
v -0.5 -0.4375 0.5
v -0.5 0.4375 -0.4375
v -0.5 0.4375 0.4375
v -0.5 0.4375 0.5
v -0.4375 0.4375 0.5
v 0.4375 0.4375 0.5
v 0.5 0.4375 0.5
v 0.5 0.4375 0.4375
v 0.5 0.4375 -0.4375
v 0.5 0.4375 -0.5
v 0.4375 0.4375 -0.5
v -0.4375 0.4375 -0.5
v -0.5 0.4375 -0.5
v -0.4375 -0.4375 -0.4375
v 0.4375 0.4375 -0.4375
v -0.4375 0.4375 -0.4375
v 0.4375 -0.4375 -0.4375
v -0.4375 -0.4375 0.4375
v -0.4375 0.4375 -0.4375
v -0.4375 0.4375 0.4375
v -0.4375 -0.4375 -0.4375
v 0.4375 -0.4375 0.4375
v -0.4375 0.4375 0.4375
v 0.4375 0.4375 0.4375
v -0.4375 -0.4375 0.4375
v 0.4375 -0.4375 -0.4375
v 0.4375 0.4375 0.4375
v 0.4375 0.4375 -0.4375
v 0.4375 -0.4375 0.4375
v -0.4375 0.4375 -0.4375
v 0.4375 0.4375 0.4375
v -0.4375 0.4375 0.4375
v 0.4375 0.4375 -0.4375
v 0.4375 -0.4375 -0.4375
v -0.4375 -0.4375 0.4375
v 0.4375 -0.4375 0.4375
v -0.4375 -0.4375 -0.4375
vt 0.9375 0.0625
vt 0.9375 0.9375
vt 0.0625 0.9375
vt 0.0625 0.0625
vt 0.9375 0.0625
vt 0.9375 0.9375
vt 0.0625 0.9375
vt 0.0625 0.0625
vt 0.0625 0.9375
vt 0.0625 0.0625
vt 0.9375 0.0625
vt 0.9375 0.9375
vt 0.9375 0.0625
vt 0.9375 0.9375
vt 0.0625 0.9375
vt 0.0625 0.0625
vt 0.9375 0.0625
vt 0.9375 0.9375
vt 0.0625 0.9375
vt 0.0625 0.0625
vt 0.9375 0.0625
vt 0.9375 0.9375
vt 0.0625 0.9375
vt 0.0625 0.0625
vt 0 0.9375
vt 0 0.0625
vt 0.0625 0.0625
vt 0.0625 0.9375
vt 1 0.0625
vt 1 0.9375
vt 0.9375 0.9375
vt 0.9375 0.0625
vt 0.0625 0.0625
vt 0.0625 0.9375
vt 0 0.9375
vt 0 0.0625
vt 0.0625 0.0625
vt 0.0625 0.9375
vt 0 0.9375
vt 0 0.0625
vt 0.9375 0.9375
vt 0.9375 0.0625
vt 1 0.0625
vt 1 0.9375
vt 1 0.0625
vt 1 0.9375
vt 0.9375 0.9375
vt 0.9375 0.0625
vt 1 0.0625
vt 1 0.9375
vt 0.9375 0.9375
vt 0.9375 0.0625
vt 0.0625 0.0625
vt 0.0625 0.9375
vt 0 0.9375
vt 0 0.0625
vt 0.9375 0
vt 0.9375 0.0625
vt 0.0625 0.0625
vt 0.0625 0
vt 0.0625 0
vt 0.0625 0.0625
vt 0 0.0625
vt 0 0
vt 0.0625 0.0625
vt 0.0625 0.9375
vt 0 0.9375
vt 0 0.0625
vt 0 1
vt 0 0.9375
vt 0.0625 0.9375
vt 0.0625 1
vt 0.0625 1
vt 0.0625 0.9375
vt 0.9375 0.9375
vt 0.9375 1
vt 0.9375 1
vt 0.9375 0.9375
vt 1 0.9375
vt 1 1
vt 1 0.0625
vt 1 0.9375
vt 0.9375 0.9375
vt 0.9375 0.0625
vt 1 0
vt 1 0.0625
vt 0.9375 0.0625
vt 0.9375 0
vt 0.0625 1
vt 0.0625 0.9375
vt 0.9375 0.9375
vt 0.9375 1
vt 0.9375 1
vt 0.9375 0.9375
vt 1 0.9375
vt 1 1
vt 0.0625 0.0625
vt 0.0625 0.9375
vt 0 0.9375
vt 0 0.0625
vt 1 0
vt 1 0.0625
vt 0.9375 0.0625
vt 0.9375 0
vt 0.9375 0
vt 0.9375 0.0625
vt 0.0625 0.0625
vt 0.0625 0
vt 0.0625 0
vt 0.0625 0.0625
vt 0 0.0625
vt 0 0
vt 1 0.0625
vt 1 0.9375
vt 0.9375 0.9375
vt 0.9375 0.0625
vt 0 1
vt 0 0.9375
vt 0.0625 0.9375
vt 0.0625 1
vt 0.9375 0
vt 0.9375 0.0625
vt 0.0625 0.0625
vt 0.0625 0
vt 0.0625 0
vt 0.0625 0.0625
vt 0 0.0625
vt 0 0
vt 1 0
vt 1 0.0625
vt 0.9375 0.0625
vt 0.9375 0
vt 0.9375 0
vt 0.9375 0.0625
vt 0.0625 0.0625
vt 0.0625 0
vt 0.0625 0
vt 0.0625 0.0625
vt 0 0.0625
vt 0 0
vt 1 0
vt 1 0.0625
vt 0.9375 0.0625
vt 0.9375 0
vt 0.9375 0
vt 0.9375 0.0625
vt 0.0625 0.0625
vt 0.0625 0
vt 0.0625 0
vt 0.0625 0.0625
vt 0 0.0625
vt 0 0
vt 1 0
vt 1 0.0625
vt 0.9375 0.0625
vt 0.9375 0
vt 0.9375 0
vt 0.9375 0.0625
vt 0.0625 0.0625
vt 0.0625 0
vt 0.0625 0
vt 0.0625 0.0625
vt 0 0.0625
vt 0 0
vt 1 0
vt 1 0.0625
vt 0.9375 0.0625
vt 0.9375 0
vt 0.0625 1
vt 0.0625 0.9375
vt 0.9375 0.9375
vt 0.9375 1
vt 0.9375 1
vt 0.9375 0.9375
vt 1 0.9375
vt 1 1
vt 0 1
vt 0 0.9375
vt 0.0625 0.9375
vt 0.0625 1
vt 0.0625 1
vt 0.0625 0.9375
vt 0.9375 0.9375
vt 0.9375 1
vt 0.9375 1
vt 0.9375 0.9375
vt 1 0.9375
vt 1 1
vt 0 1
vt 0 0.9375
vt 0.0625 0.9375
vt 0.0625 1
vt 0.0625 1
vt 0.0625 0.9375
vt 0.9375 0.9375
vt 0.9375 1
vt 0.9375 1
vt 0.9375 0.9375
vt 1 0.9375
vt 1 1
vt 0 1
vt 0 0.9375
vt 0.0625 0.9375
vt 0.0625 1
vt 0.0625 1
vt 0.0625 0.9375
vt 0.9375 0.9375
vt 0.9375 1
vt 0.9375 1
vt 0.9375 0.9375
vt 1 0.9375
vt 1 1
vt 0 1
vt 0 0.9375
vt 0.0625 0.9375
vt 0.0625 1
vt 0.4375 1
vt 0.4375 0.125
vt 0.5 0.125
vt 0.5 1
vt 0.875 1
vt 0 1
vt 0 0.9375
vt 0.875 0.9375
vt 0.0625 0.125
vt 0.0625 1
vt 0 1
vt 0 0.125
vt 0 0.5
vt 0.875 0.5
vt 0.875 0.5625
vt 0 0.5625
vt 0.4375 1
vt 0.4375 0.125
vt 0.5 0.125
vt 0.5 1
vt 0.25 1
vt 0.25 0.125
vt 0.3125 0.125
vt 0.3125 1
vt 0.0625 0.125
vt 0.0625 1
vt 0 1
vt 0 0.125
vt 0.25 0.9375
vt 0.25 0.0625
vt 0.3125 0.0625
vt 0.3125 0.9375
vt 0.4375 1
vt 0.4375 0.125
vt 0.5 0.125
vt 0.5 1
vt 0 0.9375
vt 0.875 0.9375
vt 0.875 1
vt 0 1
vt 0.0625 0.125
vt 0.0625 1
vt 0 1
vt 0 0.125
vt 0.875 0.5625
vt 0 0.5625
vt 0 0.5
vt 0.875 0.5
vt 0.4375 1
vt 0.4375 0.125
vt 0.5 0.125
vt 0.5 1
vt 0.3125 0.125
vt 0.3125 1
vt 0.25 1
vt 0.25 0.125
vt 0.0625 0.125
vt 0.0625 1
vt 0 1
vt 0 0.125
vt 0.3125 0.0625
vt 0.3125 0.9375
vt 0.25 0.9375
vt 0.25 0.0625
vt 0.875 0.75
vt 0 0.75
vt 0 0.6875
vt 0.875 0.6875
vt 0.875 0.5625
vt 0 0.5625
vt 0 0.5
vt 0.875 0.5
vt 0.9375 0.75
vt 0.0625 0.75
vt 0.0625 0.6875
vt 0.9375 0.6875
vt 0.875 1
vt 0 1
vt 0 0.9375
vt 0.875 0.9375
vt 0.0625 0.6875
vt 0.9375 0.6875
vt 0.9375 0.75
vt 0.0625 0.75
vt 0 0.9375
vt 0.875 0.9375
vt 0.875 1
vt 0 1
vt 0 0.6875
vt 0.875 0.6875
vt 0.875 0.75
vt 0 0.75
vt 0 0.5
vt 0.875 0.5
vt 0.875 0.5625
vt 0 0.5625
vn 1 0 0
vn -1 0 0
vn 0 1 0
vn 0 -1 0
vn 0 0 1
vn 0 0 -1
vn 0 1 0
vn 0 0 -1
vn 0 -1 0
vn 0 0 1
vn 0 1 0
vn 0 0 1
vn 0 -1 0
vn 0 0 -1
vn 0 -1 0
vn 0 -1 0
vn -1 0 0
vn 0 1 0
vn 0 1 0
vn 0 1 0
vn 1 0 0
vn 0 -1 0
vn 0 -1 0
vn 0 -1 0
vn 1 0 0
vn 0 1 0
vn 0 1 0
vn 0 1 0
vn -1 0 0
vn 0 -1 0
vn -1 0 0
vn -1 0 0
vn 0 0 -1
vn 0 0 -1
vn 0 0 -1
vn 1 0 0
vn 1 0 0
vn 1 0 0
vn 0 0 1
vn 0 0 1
vn 0 0 1
vn -1 0 0
vn -1 0 0
vn -1 0 0
vn 0 0 1
vn 0 0 1
vn 0 0 1
vn 1 0 0
vn 1 0 0
vn 1 0 0
vn 0 0 -1
vn 0 0 -1
vn 0 0 -1
vn -1 0 0
vn 1 0 0
vn 0 -1 0
vn -1 0 0
vn 0 1 0
vn 0 0 -1
vn 0 -1 0
vn 0 0 1
vn 0 1 0
vn -1 0 0
vn 0 -1 0
vn 1 0 0
vn 0 1 0
vn 0 0 1
vn 0 -1 0
vn 0 0 -1
vn 0 1 0
vn 1 0 0
vn 0 0 -1
vn -1 0 0
vn 0 0 1
vn -1 0 0
vn 0 0 -1
vn 1 0 0
vn 0 0 1
usemtl none
f 69/1/1 71/2/1 70/3/1 72/4/1
f 61/5/2 63/6/2 62/7/2 64/8/2
f 73/9/3 75/10/3 74/11/3 76/12/3
f 77/13/4 79/14/4 78/15/4 80/16/4
f 65/17/5 67/18/5 66/19/5 68/20/5
f 57/21/6 59/22/6 58/23/6 60/24/6
f 20/25/7 31/26/7 30/27/7 21/28/7
f 35/29/8 56/30/8 55/31/8 36/32/8
f 18/33/9 25/34/9 32/35/9 19/36/9
f 43/37/10 48/38/10 47/39/10 44/40/10
f 22/41/11 29/42/11 28/43/11 23/44/11
f 41/45/12 50/46/12 49/47/12 42/48/12
f 24/49/13 27/50/13 26/51/13 17/52/13
f 37/53/14 54/54/14 53/55/14 38/56/14
f 16/57/15 17/58/15 18/59/15 11/60/15
f 11/61/16 18/62/16 19/63/16 8/64/16
f 34/65/17 45/66/17 56/67/17 35/68/17
f 6/69/18 20/70/18 21/71/18 10/72/18
f 10/73/19 21/74/19 22/75/19 13/76/19
f 13/77/20 22/78/20 23/79/20 2/80/20
f 38/81/21 53/82/21 52/83/21 39/84/21
f 4/85/22 24/86/22 17/87/22 16/88/22
f 12/89/23 25/90/23 26/91/23 15/92/23
f 15/93/24 26/94/24 27/95/24 3/96/24
f 40/97/25 51/98/25 50/99/25 41/100/25
f 1/101/26 28/102/26 29/103/26 14/104/26
f 14/105/27 29/106/27 30/107/27 9/108/27
f 9/109/28 30/110/28 31/111/28 5/112/28
f 44/113/29 47/114/29 46/115/29 33/116/29
f 7/117/30 32/118/30 25/119/30 12/120/30
f 32/121/31 33/122/31 34/123/31 19/124/31
f 19/125/32 34/126/32 35/127/32 8/128/32
f 8/129/33 35/130/33 36/131/33 11/132/33
f 11/133/34 36/134/34 37/135/34 16/136/34
f 16/137/35 37/138/35 38/139/35 4/140/35
f 4/141/36 38/142/36 39/143/36 24/144/36
f 24/145/37 39/146/37 40/147/37 27/148/37
f 27/149/38 40/150/38 41/151/38 3/152/38
f 3/153/39 41/154/39 42/155/39 15/156/39
f 15/157/40 42/158/40 43/159/40 12/160/40
f 12/161/41 43/162/41 44/163/41 7/164/41
f 7/165/42 44/166/42 33/167/42 32/168/42
f 20/169/43 45/170/43 46/171/43 31/172/43
f 31/173/44 46/174/44 47/175/44 5/176/44
f 5/177/45 47/178/45 48/179/45 9/180/45
f 9/181/46 48/182/46 49/183/46 14/184/46
f 14/185/47 49/186/47 50/187/47 1/188/47
f 1/189/48 50/190/48 51/191/48 28/192/48
f 28/193/49 51/194/49 52/195/49 23/196/49
f 23/197/50 52/198/50 53/199/50 2/200/50
f 2/201/51 53/202/51 54/203/51 13/204/51
f 13/205/52 54/206/52 55/207/52 10/208/52
f 10/209/53 55/210/53 56/211/53 6/212/53
f 6/213/54 56/214/54 45/215/54 20/216/54
f 59/217/55 57/218/55 36/219/55 55/220/55
f 58/221/56 59/222/56 55/223/56 54/224/56
f 60/225/57 58/226/57 54/227/57 37/228/57
f 57/229/58 60/230/58 37/231/58 36/232/58
f 63/233/59 61/234/59 33/235/59 46/236/59
f 62/237/60 63/238/60 46/239/60 45/240/60
f 64/241/61 62/242/61 45/243/61 34/244/61
f 61/245/62 64/246/62 34/247/62 33/248/62
f 67/249/63 65/250/63 42/251/63 49/252/63
f 66/253/64 67/254/64 49/255/64 48/256/64
f 68/257/65 66/258/65 48/259/65 43/260/65
f 65/261/66 68/262/66 43/263/66 42/264/66
f 71/265/67 69/266/67 39/267/67 52/268/67
f 70/269/68 71/270/68 52/271/68 51/272/68
f 72/273/69 70/274/69 51/275/69 40/276/69
f 69/277/70 72/278/70 40/279/70 39/280/70
f 75/281/71 73/282/71 21/283/71 30/284/71
f 74/285/72 75/286/72 30/287/72 29/288/72
f 76/289/73 74/290/73 29/291/73 22/292/73
f 73/293/74 76/294/74 22/295/74 21/296/74
f 79/297/75 77/298/75 17/299/75 26/300/75
f 78/301/76 79/302/76 26/303/76 25/304/76
f 80/305/77 78/306/77 25/307/77 18/308/77
f 77/309/78 80/310/78 18/311/78 17/312/78
o cube
v 0.4419417382415922 0.48613591206575146 -0.4375
v 0.4419417382415922 0.48613591206575146 -0.5
v 0.48613591206575135 0.4419417382415922 -0.4375
v 0.48613591206575135 0.4419417382415922 -0.5
v -0.4861359120657514 -0.4419417382415922 -0.5
v -0.4861359120657514 -0.4419417382415922 -0.4375
v -0.44194173824159216 -0.48613591206575146 -0.5
v -0.44194173824159216 -0.48613591206575146 -0.4375
vt 0 1
vt 1 1
vt 1 0.9375
vt 0 0.9375
vt 0 1
vt 0.0625 1
vt 0.0625 0.9375
vt 0 0.9375
vt 0 1
vt 1 1
vt 1 0.9375
vt 0 0.9375
vt 0 1
vt 0.0625 1
vt 0.0625 0.9375
vt 0 0.9375
vt 0 1
vt 1 1
vt 1 0.9375
vt 0 0.9375
vt 0 1
vt 1 1
vt 1 0.9375
vt 0 0.9375
vn 0 0 -1
vn 0.7071067811865475 0.7071067811865476 0
vn 0 0 1
vn -0.7071067811865475 -0.7071067811865476 0
vn -0.7071067811865476 0.7071067811865475 0
vn 0.7071067811865476 -0.7071067811865475 0
usemtl none
f 84/316/79 87/315/79 85/314/79 82/313/79
f 83/320/80 84/319/80 82/318/80 81/317/80
f 88/324/81 83/323/81 81/322/81 86/321/81
f 87/328/82 88/327/82 86/326/82 85/325/82
f 86/332/83 81/331/83 82/330/83 85/329/83
f 87/336/84 84/335/84 83/334/84 88/333/84
o cube
v -0.4375 -0.4419417382415922 0.48613591206575135
v -0.4375 0.48613591206575146 -0.44194173824159216
v -0.4375 -0.48613591206575146 0.4419417382415922
v -0.4375 0.4419417382415922 -0.4861359120657514
v -0.5 0.48613591206575146 -0.44194173824159216
v -0.5 -0.4419417382415922 0.48613591206575135
v -0.5 0.4419417382415922 -0.4861359120657514
v -0.5 -0.48613591206575146 0.4419417382415922
vt 0 1
vt 0.0625 1
vt 0.0625 0.9375
vt 0 0.9375
vt 0 1
vt 1 1
vt 1 0.9375
vt 0 0.9375
vt 0 1
vt 0.0625 1
vt 0.0625 0.9375
vt 0 0.9375
vt 0 1
vt 1 1
vt 1 0.9375
vt 0 0.9375
vt 0 1
vt 0.0625 1
vt 0.0625 0
vt 0 0
vt 0 1
vt 0.0625 1
vt 0.0625 0
vt 0 0
vn 0 0.7071067811865476 -0.7071067811865475
vn 1 0 0
vn 0 -0.7071067811865476 0.7071067811865475
vn -1 0 0
vn 0 0.7071067811865475 0.7071067811865476
vn 0 -0.7071067811865475 -0.7071067811865476
usemtl none
f 92/340/85 95/339/85 93/338/85 90/337/85
f 91/344/86 92/343/86 90/342/86 89/341/86
f 96/348/87 91/347/87 89/346/87 94/345/87
f 95/352/88 96/351/88 94/350/88 93/349/88
f 94/356/89 89/355/89 90/354/89 93/353/89
f 95/360/90 92/359/90 91/358/90 96/357/90
o cube
v 0.48613591206575135 -0.4419417382415922 0.5
v 0.48613591206575135 -0.4419417382415922 0.4375
v 0.4419417382415922 -0.48613591206575146 0.5
v 0.4419417382415922 -0.48613591206575146 0.4375
v -0.44194173824159216 0.48613591206575146 0.4375
v -0.44194173824159216 0.48613591206575146 0.5
v -0.4861359120657514 0.4419417382415922 0.4375
v -0.4861359120657514 0.4419417382415922 0.5
vt 0 1
vt 1 1
vt 1 0.9375
vt 0 0.9375
vt 0 1
vt 0.0625 1
vt 0.0625 0.9375
vt 0 0.9375
vt 0 1
vt 1 1
vt 1 0.9375
vt 0 0.9375
vt 0 1
vt 0.0625 1
vt 0.0625 0.9375
vt 0 0.9375
vt 0 1
vt 1 1
vt 1 0.9375
vt 0 0.9375
vt 0 1
vt 1 1
vt 1 0.9375
vt 0 0.9375
vn 0 0 -1
vn 0.7071067811865475 -0.7071067811865476 0
vn 0 0 1
vn -0.7071067811865475 0.7071067811865476 0
vn 0.7071067811865476 0.7071067811865475 0
vn -0.7071067811865476 -0.7071067811865475 0
usemtl none
f 100/364/91 103/363/91 101/362/91 98/361/91
f 99/368/92 100/367/92 98/366/92 97/365/92
f 104/372/93 99/371/93 97/370/93 102/369/93
f 103/376/94 104/375/94 102/374/94 101/373/94
f 102/380/95 97/379/95 98/378/95 101/377/95
f 103/384/96 100/383/96 99/382/96 104/381/96
o cube
v 0.5 0.48613591206575146 0.4419417382415922
v 0.5 -0.4419417382415922 -0.4861359120657514
v 0.5 0.4419417382415922 0.48613591206575135
v 0.5 -0.48613591206575146 -0.44194173824159216
v 0.4375 -0.4419417382415922 -0.4861359120657514
v 0.4375 0.48613591206575146 0.4419417382415922
v 0.4375 -0.48613591206575146 -0.44194173824159216
v 0.4375 0.4419417382415922 0.48613591206575135
vt 0 1
vt 0.0625 1
vt 0.0625 0.9375
vt 0 0.9375
vt 0 1
vt 1 1
vt 1 0.9375
vt 0 0.9375
vt 0 1
vt 0.0625 1
vt 0.0625 0.9375
vt 0 0.9375
vt 0 1
vt 1 1
vt 1 0.9375
vt 0 0.9375
vt 0 1
vt 0.0625 1
vt 0.0625 0
vt 0 0
vt 0 1
vt 0.0625 1
vt 0.0625 0
vt 0 0
vn 0 -0.7071067811865476 -0.7071067811865475
vn 1 0 0
vn 0 0.7071067811865476 0.7071067811865475
vn -1 0 0
vn 0 0.7071067811865475 -0.7071067811865476
vn 0 -0.7071067811865475 0.7071067811865476
usemtl none
f 108/388/97 111/387/97 109/386/97 106/385/97
f 107/392/98 108/391/98 106/390/98 105/389/98
f 112/396/99 107/395/99 105/394/99 110/393/99
f 111/400/100 112/399/100 110/398/100 109/397/100
f 110/404/101 105/403/101 106/402/101 109/401/101
f 111/408/102 108/407/102 107/406/102 112/405/102
o cube
v 0.48613591206575135 0.5 -0.4419417382415922
v 0.4419417382415922 0.5 -0.48613591206575146
v 0.48613591206575135 0.4375 -0.4419417382415922
v 0.4419417382415922 0.4375 -0.48613591206575146
v -0.4861359120657514 0.5 0.4419417382415922
v -0.44194173824159216 0.5 0.48613591206575146
v -0.4861359120657514 0.4375 0.4419417382415922
v -0.44194173824159216 0.4375 0.48613591206575146
vt 0 1
vt 1 1
vt 1 0.9375
vt 0 0.9375
vt 0 1
vt 0.0625 1
vt 0.0625 0.9375
vt 0 0.9375
vt 0 1
vt 1 1
vt 1 0.9375
vt 0 0.9375
vt 0 1
vt 0.0625 1
vt 0.0625 0.9375
vt 0 0.9375
vt 0 1
vt 1 1
vt 1 0.9375
vt 0 0.9375
vt 0 1
vt 1 1
vt 1 0.9375
vt 0 0.9375
vn -0.7071067811865476 0 -0.7071067811865475
vn 0.7071067811865475 0 -0.7071067811865476
vn 0.7071067811865476 0 0.7071067811865475
vn -0.7071067811865475 0 0.7071067811865476
vn 0 1 0
vn 0 -1 0
usemtl none
f 116/412/103 119/411/103 117/410/103 114/409/103
f 115/416/104 116/415/104 114/414/104 113/413/104
f 120/420/105 115/419/105 113/418/105 118/417/105
f 119/424/106 120/423/106 118/422/106 117/421/106
f 118/428/107 113/427/107 114/426/107 117/425/107
f 119/432/108 116/431/108 115/430/108 120/429/108
o cube
v 0.4419417382415922 -0.4375 0.48613591206575146
v 0.48613591206575135 -0.4375 0.4419417382415922
v 0.4419417382415922 -0.5 0.48613591206575146
v 0.48613591206575135 -0.5 0.4419417382415922
v -0.44194173824159216 -0.4375 -0.48613591206575146
v -0.4861359120657514 -0.4375 -0.4419417382415922
v -0.44194173824159216 -0.5 -0.48613591206575146
v -0.4861359120657514 -0.5 -0.4419417382415922
vt 0 1
vt 1 1
vt 1 0.9375
vt 0 0.9375
vt 0 1
vt 0.0625 1
vt 0.0625 0.9375
vt 0 0.9375
vt 0 1
vt 1 1
vt 1 0.9375
vt 0 0.9375
vt 0 1
vt 0.0625 1
vt 0.0625 0.9375
vt 0 0.9375
vt 0 1
vt 1 1
vt 1 0.9375
vt 0 0.9375
vt 0 1
vt 1 1
vt 1 0.9375
vt 0 0.9375
vn 0.7071067811865476 0 -0.7071067811865475
vn 0.7071067811865475 0 0.7071067811865476
vn -0.7071067811865476 0 0.7071067811865475
vn -0.7071067811865475 0 -0.7071067811865476
vn 0 1 0
vn 0 -1 0
usemtl none
f 124/436/109 127/435/109 125/434/109 122/433/109
f 123/440/110 124/439/110 122/438/110 121/437/110
f 128/444/111 123/443/111 121/442/111 126/441/111
f 127/448/112 128/447/112 126/446/112 125/445/112
f 126/452/113 121/451/113 122/450/113 125/449/113
f 127/456/114 124/455/114 123/454/114 128/453/114