g Cylinder017
v 1.821142 3.0756E-05 3.0756E-05
v 1.745014 1.007468 0.5015051
v 1.577138 0.9105558 3.0756E-05
v 2.014968 3.0756E-05 0.5015051
v 1.007468 1.745014 0.5015051
v 0.9105557 1.577138 3.0756E-05
v -3.0756E-05 2.014968 0.5015051
v -3.0756E-05 1.821142 3.0756E-05
v 1.577138 -0.9105557 3.0756E-05
v 1.745014 -1.007468 0.5015051
v 0.9105557 -1.577138 3.0756E-05
v 1.007468 -1.745014 0.5015051
v -3.0756E-05 -1.821142 3.0756E-05
v -3.0756E-05 -2.014968 0.5015051
v -0.9105558 -1.577138 3.0756E-05
v -1.007468 -1.745014 0.5015051
v -1.577138 -0.9105557 3.0756E-05
v -1.745014 -1.007468 0.5015051
v -1.821142 3.0756E-05 3.0756E-05
v -2.014968 3.0756E-05 0.5015051
v -1.577138 0.9105558 3.0756E-05
v -1.745014 1.007468 0.5015051
v -0.9105558 1.577138 3.0756E-05
v -1.007468 1.745014 0.5015051
v -3.0756E-05 1.821142 3.0756E-05
v -3.0756E-05 2.014968 0.5015051
v -0.9105558 1.577138 1.003041
v -3.0756E-05 1.821142 1.003041
v -1.577138 0.9105558 1.003041
v -1.821142 3.0756E-05 1.003041
v -1.577138 -0.9105557 1.003041
v -0.9105558 -1.577138 1.003041
v -3.0756E-05 -1.821142 1.003041
v 0.9105557 -1.577138 1.003041
v 1.577138 -0.9105557 1.003041
v 1.821142 3.0756E-05 1.003041
v 1.577138 0.9105558 1.003041
v 0.9105557 1.577138 1.003041
v -3.0756E-05 1.821142 1.003041
v 0.9105557 -1.577138 3.0756E-05
v -0.9105558 -1.577138 3.0756E-05
v -3.0756E-05 -1.821142 3.0756E-05
v 1.821142 3.0756E-05 3.0756E-05
v -0.9105558 1.577138 3.0756E-05
v -1.821142 3.0756E-05 3.0756E-05
v -1.577138 -0.9105557 3.0756E-05
v -1.577138 0.9105558 3.0756E-05
v 0.9105557 1.577138 3.0756E-05
v -3.0756E-05 1.821142 3.0756E-05
v 1.577138 0.9105558 3.0756E-05
v 1.577138 -0.9105557 3.0756E-05
v 1.577138 0.9105558 1.003041
v -3.0756E-05 1.821142 1.003041
v 0.9105557 1.577138 1.003041
v 1.577138 -0.9105557 1.003041
v -1.577138 -0.9105557 1.003041
v -1.577138 0.9105558 1.003041
v -0.9105558 1.577138 1.003041
v -1.821142 3.0756E-05 1.003041
v -3.0756E-05 -1.821142 1.003041
v -0.9105558 -1.577138 1.003041
v 0.9105557 -1.577138 1.003041
v 1.821142 3.0756E-05 1.003041
v 0.5470713 3.0756E-05 -1.732592
v 0.2735511 0.4738333 0.5534666
v 0.2735511 0.4738333 -1.732592
v 0.5470713 3.0756E-05 0.5534666
v -0.273551 0.4737718 0.5534666
v -0.273551 0.4737718 -1.732592
v 0.2735511 -0.4737718 -1.732592
v 0.2735511 -0.4737718 0.5534666
v -0.273551 -0.4737718 -1.732592
v -0.273551 -0.4737718 0.5534666
v -0.5470715 3.0756E-05 -1.732592
v -0.5470715 3.0756E-05 0.5534666
v -0.273551 0.4737718 -1.732592
v -0.273551 0.4737718 0.5534666
vn 0.9294047 0.003921628 -0.3690414
vn 0.8666601 0.4980354 -0.02934388
vn 0.8039154 0.4666631 -0.3687079
vn 0.9999924 0.003921628 0
vn 0.4980354 0.8666601 -0.02934262
vn 0.4666631 0.8039155 -0.3687079
vn -0.003921628 0.9999924 0
vn -0.003921628 0.9294047 -0.3690413
vn 0.8039154 -0.4666631 -0.3687079
vn 0.8666601 -0.4980354 -0.0293449
vn 0.4666631 -0.8039154 -0.368708
vn 0.4980354 -0.8666601 -0.02934465
vn -0.003921628 -0.9294047 -0.3690414
vn -0.003921628 -0.9999924 0
vn -0.4666631 -0.8039154 -0.3687079
vn -0.4980354 -0.8666601 -0.02934363
vn -0.8039155 -0.4666631 -0.3687078
vn -0.8666601 -0.4980354 -0.02934287
vn -0.9294047 0.003921628 -0.3690413
vn -0.9999924 0.003921628 0
vn -0.8039155 0.4666631 -0.3687078
vn -0.8666601 0.4980354 -0.02934185
vn -0.4666631 0.8039155 -0.3687078
vn -0.4980354 0.8666601 -0.0293416
vn -0.003921628 0.9294047 -0.3690413
vn -0.003921628 0.9999924 0
vn -0.4666631 0.8039155 0.3687078
vn -0.003921628 0.9294047 0.3690413
vn -0.8039155 0.4666631 0.3687078
vn -0.9294047 0.003921628 0.3690413
vn -0.8039155 -0.4666631 0.3687078
vn -0.4666631 -0.8039154 0.3687079
vn -0.003921628 -0.9294047 0.3690414
vn 0.4666631 -0.8039154 0.368708
vn 0.8039154 -0.4666631 0.3687079
vn 0.9294047 0.003921628 0.3690414
vn 0.8039154 0.4666631 0.3687079
vn 0.4666631 0.8039155 0.3687079
vn -0.003921628 0.9294047 0.3690413
vn -0.003921628 0.003921628 -0.9999846
vn -0.003921628 0.003921628 -0.9999846
vn -0.003921628 0.003921628 -0.9999846
vn -0.003921628 0.003921628 -0.9999846
vn -0.003921628 0.003921628 -0.9999846
vn -0.003921628 0.003921628 -0.9999846
vn -0.003921628 0.003921628 -0.9999846
vn -0.003921628 0.003921628 -0.9999846
vn -0.003921628 0.003921628 -0.9999846
vn -0.003921628 0.003921628 -0.9999846
vn -0.003921628 0.003921628 -0.9999846
vn -0.003921628 0.003921628 -0.9999846
vn -0.003921628 0.003921628 0.9999846
vn -0.003921628 0.003921628 0.9999846
vn -0.003921628 0.003921628 0.9999846
vn -0.003921628 0.003921628 0.9999846
vn -0.003921628 0.003921628 0.9999846
vn -0.003921628 0.003921628 0.9999846
vn -0.003921628 0.003921628 0.9999846
vn -0.003921628 0.003921628 0.9999846
vn -0.003921628 0.003921628 0.9999846
vn -0.003921628 0.003921628 0.9999846
vn -0.003921628 0.003921628 0.9999846
vn -0.003921628 0.003921628 0.9999846
vn 0.9999924 0.003921628 0
vn 0.4980354 0.8666601 -0.02934262
vn 0.4980354 0.8666601 -0.02934262
vn 0.9999924 0.003921628 0
vn -0.4980354 0.8666601 -0.0293416
vn -0.4980354 0.8666601 -0.0293416
vn 0.4980354 -0.8666601 -0.02934465
vn 0.4980354 -0.8666601 -0.02934465
vn -0.4980354 -0.8666601 -0.02934363
vn -0.4980354 -0.8666601 -0.02934363
vn -0.9999924 0.003921628 0
vn -0.9999924 0.003921628 0
vn -0.4980354 0.8666601 -0.0293416
vn -0.4980354 0.8666601 -0.0293416
g Cylinder017_0
f 3/3/3 2/2/2 1/1/1
f 4/4/4 1/1/1 2/2/2
f 2/2/2 3/3/3 5/5/5
f 6/6/6 5/5/5 3/3/3
f 5/5/5 6/6/6 7/7/7
f 8/8/8 7/7/7 6/6/6
f 1/1/1 4/4/4 9/9/9
f 10/10/10 9/9/9 4/4/4
f 9/9/9 10/10/10 11/11/11
f 12/12/12 11/11/11 10/10/10
f 11/11/11 12/12/12 13/13/13
f 14/14/14 13/13/13 12/12/12
f 13/13/13 14/14/14 15/15/15
f 16/16/16 15/15/15 14/14/14
f 15/15/15 16/16/16 17/17/17
f 18/18/18 17/17/17 16/16/16
f 17/17/17 18/18/18 19/19/19
f 20/20/20 19/19/19 18/18/18
f 19/19/19 20/20/20 21/21/21
f 22/22/22 21/21/21 20/20/20
f 21/21/21 22/22/22 23/23/23
f 24/24/24 23/23/23 22/22/22
f 23/23/23 24/24/24 25/25/25
f 26/26/26 25/25/25 24/24/24
f 24/24/24 27/27/27 26/26/26
f 28/28/28 26/26/26 27/27/27
f 22/22/22 29/29/29 24/24/24
f 27/27/27 24/24/24 29/29/29
f 20/20/20 30/30/30 22/22/22
f 29/29/29 22/22/22 30/30/30
f 18/18/18 31/31/31 20/20/20
f 30/30/30 20/20/20 31/31/31
f 16/16/16 32/32/32 18/18/18
f 31/31/31 18/18/18 32/32/32
f 32/32/32 16/16/16 33/33/33
f 14/14/14 33/33/33 16/16/16
f 33/33/33 14/14/14 34/34/34
f 12/12/12 34/34/34 14/14/14
f 34/34/34 12/12/12 35/35/35
f 10/10/10 35/35/35 12/12/12
f 35/35/35 10/10/10 36/36/36
f 4/4/4 36/36/36 10/10/10
f 36/36/36 4/4/4 37/37/37
f 2/2/2 37/37/37 4/4/4
f 37/37/37 2/2/2 38/38/38
f 5/5/5 38/38/38 2/2/2
f 38/38/38 5/5/5 39/39/39
f 7/7/7 39/39/39 5/5/5
f 42/42/42 41/41/41 40/40/40
f 41/41/41 43/43/43 40/40/40
f 44/44/44 43/43/43 41/41/41
f 45/45/45 44/44/44 41/41/41
f 46/46/46 45/45/45 41/41/41
f 47/47/47 44/44/44 45/45/45
f 48/48/48 43/43/43 44/44/44
f 49/49/49 48/48/48 44/44/44
f 50/50/50 43/43/43 48/48/48
f 40/40/40 43/43/43 51/51/51
f 54/54/54 53/53/53 52/52/52
f 53/53/53 55/55/55 52/52/52
f 56/56/56 55/55/55 53/53/53
f 57/57/57 56/56/56 53/53/53
f 58/58/58 57/57/57 53/53/53
f 59/59/59 56/56/56 57/57/57
f 60/60/60 55/55/55 56/56/56
f 61/61/61 60/60/60 56/56/56
f 62/62/62 55/55/55 60/60/60
f 52/52/52 55/55/55 63/63/63
f 66/66/66 65/65/65 64/64/64
f 67/67/67 64/64/64 65/65/65
f 65/65/65 66/66/66 68/68/68
f 69/69/69 68/68/68 66/66/66
f 64/64/64 67/67/67 70/70/70
f 71/71/71 70/70/70 67/67/67
f 70/70/70 71/71/71 72/72/72
f 73/73/73 72/72/72 71/71/71
f 72/72/72 73/73/73 74/74/74
f 75/75/75 74/74/74 73/73/73
f 74/74/74 75/75/75 76/76/76
f 77/77/77 76/76/76 75/75/75
