g Cylinder012
v -6.58883 2.274079 8.559594
v -5.078627 4.55092 9.536736
v -6.480489 2.122482 9.536736
v -5.263592 4.569046 8.559594
v -8.562066 0.000123024 9.377313
v -8.405526 0.000123024 10.40183
v -4.202825 7.279258 10.40183
v -4.281094 7.414788 9.377313
v -4.202825 7.279258 10.40183
v -0.000123024 0.000123024 17.16644
v -5.078627 4.55092 9.536736
v -6.480489 2.122482 9.536736
v -0.000123024 0.000123024 17.16644
v -8.405526 0.000123024 10.40183
v -0.000123024 0.000123024 17.16644
v -6.480489 2.122482 9.536736
v -5.078627 4.55092 9.536736
v -5.263592 -4.569213 8.559594
v -6.480489 -2.12265 9.536736
v -5.078627 -4.551087 9.536736
v -6.58883 -2.273835 8.559594
v -4.281094 -7.414956 9.377313
v -4.202825 -7.279424 10.40183
v -8.405526 0.000123024 10.40183
v -8.562066 0.000123024 9.377313
v -8.405526 0.000123024 10.40183
v -0.000123024 0.000123024 17.16644
v -6.480489 -2.12265 9.536736
v -5.078627 -4.551087 9.536736
v -0.000123024 0.000123024 17.16644
v -4.202825 -7.279424 10.40183
v -0.000123024 0.000123024 17.16644
v -5.078627 -4.551087 9.536736
v -6.480489 -2.12265 9.536736
v 6.588586 -2.273835 8.559594
v 5.078382 -4.551087 9.536736
v 6.480244 -2.12265 9.536736
v 5.263759 -4.569213 8.559594
v 8.562233 0.000123024 9.377313
v 8.40528 0.000123024 10.40183
v 4.202579 -7.279424 10.40183
v 4.280849 -7.414956 9.377313
v 4.202579 -7.279424 10.40183
v -0.000123024 0.000123024 17.16644
v 5.078382 -4.551087 9.536736
v 6.480244 -2.12265 9.536736
v -0.000123024 0.000123024 17.16644
v 8.40528 0.000123024 10.40183
v -0.000123024 0.000123024 17.16644
v 6.480244 -2.12265 9.536736
v 5.078382 -4.551087 9.536736
v 1.325116 -6.843171 8.559594
v -1.401984 -6.673448 9.536736
v 1.402151 -6.673448 9.536736
v -1.32495 -6.843171 8.559594
v 4.280849 -7.414956 9.377313
v 4.202579 -7.279424 10.40183
v -4.202825 -7.279424 10.40183
v -4.281094 -7.414956 9.377313
v -4.202825 -7.279424 10.40183
v -0.000123024 0.000123024 17.16644
v -1.401984 -6.673448 9.536736
v 1.402151 -6.673448 9.536736
v -0.000123024 0.000123024 17.16644
v 4.202579 -7.279424 10.40183
v -0.000123024 0.000123024 17.16644
v 1.402151 -6.673448 9.536736
v -1.401984 -6.673448 9.536736
v 5.263759 4.569046 8.559594
v 6.480244 2.122482 9.536736
v 5.078382 4.55092 9.536736
v 6.588586 2.274079 8.559594
v 4.280849 7.414788 9.377313
v 4.202579 7.279258 10.40183
v 8.40528 0.000123024 10.40183
v 8.562233 0.000123024 9.377313
v 8.40528 0.000123024 10.40183
v -0.000123024 0.000123024 17.16644
v 6.480244 2.122482 9.536736
v 5.078382 4.55092 9.536736
v -0.000123024 0.000123024 17.16644
v 4.202579 7.279258 10.40183
v -0.000123024 0.000123024 17.16644
v 5.078382 4.55092 9.536736
v 6.480244 2.122482 9.536736
v -1.32495 6.843003 8.559594
v 1.402151 6.673692 9.536736
v -1.401984 6.673692 9.536736
v 1.325116 6.843003 8.559594
v -4.281094 7.414788 9.377313
v -4.202825 7.279258 10.40183
v 4.202579 7.279258 10.40183
v 4.280849 7.414788 9.377313
v 4.202579 7.279258 10.40183
v -0.000123024 0.000123024 17.16644
v 1.402151 6.673692 9.536736
v -1.401984 6.673692 9.536736
v -0.000123024 0.000123024 17.16644
v -4.202825 7.279258 10.40183
v -0.000123024 0.000123024 17.16644
v -1.401984 6.673692 9.536736
v 1.402151 6.673692 9.536736
v 1.633666 -3.604429 13.6208
v 1.023982 -1.99371 15.55695
v 1.967345 -3.708652 13.94006
v 0.75704 -1.910084 15.30114
v 3.163644 -6.566753 11.19854
v 3.578476 -6.696517 11.59566
v 4.012671 -8.605488 9.814389
v 4.471993 -8.639267 10.39688
v -0.000123024 -0.4460182 17.2031
v -0.000123024 -0.4633198 16.95182
v -0.8858128 -2.073628 15.55695
v -0.6188688 -1.990002 15.30114
v -1.818464 -3.794749 13.94006
v -1.484786 -3.690526 13.6208
v -3.500451 -6.741419 11.59566
v -3.085618 -6.611655 11.19854
v -4.645257 -8.62732 10.35404
v -4.245667 -8.647095 9.728292
v 1.967345 -3.708652 13.94006
v 1.352717 -1.804213 15.55695
v 2.377234 -3.472194 13.94006
v 1.023982 -1.99371 15.55695
v 3.578476 -6.696517 11.59566
v 4.088058 -6.401973 11.59566
v 4.471993 -8.639267 10.39688
v 5.148825 -8.336485 10.35404
v 0.3862858 -0.2231531 17.2031
v -0.000123024 -0.4460182 17.2031
v 2.377234 -3.472194 13.94006
v 1.414098 -1.530679 15.30114
v 2.453856 -3.1311 13.6208
v 1.352717 -1.804213 15.55695
v 4.088058 -6.401973 11.59566
v 4.183218 -5.978078 11.19854
v 5.148825 -8.336485 10.35404
v 5.365922 -8.000335 9.728292
v 0.4011154 -0.2313929 16.95182
v 0.3862858 -0.2231531 17.2031
v 2.032845 -0.2993641 15.30114
v 2.23882 -0.109868 15.55695
v 3.93852 -0.3875217 13.6208
v 4.195576 -0.150651 13.94006
v 7.268713 -0.5436506 11.19854
v 7.588386 -0.2491064 11.59566
v 9.459045 -0.8278942 9.814389
v 9.717749 -0.4468422 10.39688
v 2.453856 -3.1311 13.6208
v 1.146743 -1.447466 15.0449
v 2.120178 -3.026877 13.30112
v 1.414098 -1.530679 15.30114
v 4.183218 -5.978078 11.19854
v 3.768385 -5.848314 10.80142
v 5.365922 -8.000335 9.728292
v 4.910719 -7.71815 9.18452
v 0.1687765 -0.09750938 16.70094
v 0.4011154 -0.2313929 16.95182
v 1.82687 -0.109868 15.0449
v 2.032845 -0.2993641 15.30114
v 3.681464 -0.150651 13.30112
v 3.93852 -0.3875217 13.6208
v 6.949041 -0.2491064 10.80142
v 7.268713 -0.5436506 11.19854
v 9.063163 -0.3434429 9.227363
v 9.459045 -0.8278942 9.814389
v 1.710289 -3.263336 13.30112
v 0.75704 -1.910084 15.30114
v 1.633666 -3.604429 13.6208
v 0.8180084 -1.636962 15.0449
v 3.258804 -6.142858 10.80142
v 3.163644 -6.566753 11.19854
v 4.234299 -8.02052 9.227363
v 4.012671 -8.605488 9.814389
v -0.000123024 -0.4633198 16.95182
v -0.000123024 -0.1951418 16.70094
v -0.6188688 -1.990002 15.30114
v -0.6798382 -1.71688 15.0449
v -1.484786 -3.690526 13.6208
v -1.561408 -3.349433 13.30112
v -3.085618 -6.611655 11.19854
v -3.180779 -6.18776 10.80142
v -4.245667 -8.647095 9.728292
v -4.228777 -8.111973 9.18452
v 5.148825 -8.336485 10.35404
v 4.012671 -8.605488 9.814389
v 4.471993 -8.639267 10.39688
v 5.365922 -8.000335 9.728292
v 4.910719 -7.71815 9.18452
v 4.234299 -8.02052 9.227363
v -2.304564 -3.217198 13.6208
v -1.214547 -1.883719 15.55695
v -2.228354 -3.557879 13.94006
v -1.275928 -1.610598 15.30114
v -4.105192 -6.022981 11.19854
v -4.010032 -6.447288 11.59566
v -5.446498 -7.777883 9.814389
v -5.245878 -8.192303 10.39688
v -0.3861179 -0.2231531 17.2031
v -0.4009485 -0.2313929 16.95182
v -2.238652 -0.2692919 15.55695
v -2.032678 -0.4592009 15.30114
v -4.195409 -0.3228455 13.94006
v -3.938353 -0.5593042 13.6208
v -7.58822 -0.339324 11.59566
v -7.268958 -0.6334543 11.19854
v -9.793794 -0.2907133 10.35404
v -9.611711 -0.6470499 9.728292
v -2.228354 -3.557879 13.94006
v -0.8858128 -2.073628 15.55695
v -1.818464 -3.794749 13.94006
v -1.214547 -1.883719 15.55695
v -4.010032 -6.447288 11.59566
v -3.500451 -6.741419 11.59566
v -5.245878 -8.192303 10.39688
v -4.645257 -8.62732 10.35404
v -0.000123024 -0.4460182 17.2031
v -0.3861179 -0.2231531 17.2031
v -1.971297 -3.112563 13.30112
v -1.275928 -1.610598 15.30114
v -2.304564 -3.217198 13.6208
v -1.008574 -1.526972 15.0449
v -3.69036 -5.893629 10.80142
v -4.105192 -6.022981 11.19854
v -4.828986 -7.676955 9.227363
v -5.446498 -7.777883 9.814389
v -0.4009485 -0.2313929 16.95182
v -0.1690216 -0.09750938 16.70094
v -2.032678 -0.4592009 15.30114
v -1.826703 -0.2692919 15.0449
v -3.938353 -0.5593042 13.6208
v -3.681297 -0.3228455 13.30112
v -7.268958 -0.6334543 11.19854
v -6.949286 -0.339324 10.80142
v -9.611711 -0.6470499 9.728292
v -9.139619 -0.3941126 9.18452
v -4.645257 -8.62732 10.35404
v -5.446498 -7.777883 9.814389
v -5.245878 -8.192303 10.39688
v -4.245667 -8.647095 9.728292
v -4.228777 -8.111973 9.18452
v -4.828986 -7.676955 9.227363
v -3.938353 0.3873539 13.6208
v -2.238652 0.1097012 15.55695
v -4.195409 0.1508961 13.94006
v -2.032678 0.2996092 15.30114
v -7.268958 0.5434828 11.19854
v -7.58822 0.2493515 11.59566
v -9.458879 0.8277273 9.814389
v -9.717582 0.4466743 10.39688
v -0.3861179 0.2229872 17.2031
v -0.4009485 0.231638 16.95182
v -1.35255 1.804046 15.55695
v -1.413931 1.530924 15.30114
v -2.377067 3.472027 13.94006
v -2.453689 3.130933 13.6208
v -4.087891 6.402219 11.59566
v -4.183051 5.978324 11.19854
v -5.148659 8.336318 10.35404
v -5.366167 8.000581 9.728292
v -4.195409 0.1508961 13.94006
v -2.238652 -0.2692919 15.55695
v -4.195409 -0.3228455 13.94006
v -2.238652 0.1097012 15.55695
v -7.58822 0.2493515 11.59566
v -7.58822 -0.339324 11.59566
v -9.717582 0.4466743 10.39688
v -9.793794 -0.2907133 10.35404
v -0.3861179 -0.2231531 17.2031
v -0.3861179 0.2229872 17.2031
v -3.681297 0.1508961 13.30112
v -2.032678 0.2996092 15.30114
v -3.938353 0.3873539 13.6208
v -1.826703 0.1097012 15.0449
v -6.949286 0.2493515 10.80142
v -7.268958 0.5434828 11.19854
v -9.062995 0.3432751 9.227363
v -9.458879 0.8277273 9.814389
v -0.4009485 0.231638 16.95182
v -0.1690216 0.09734249 16.70094
v -1.413931 1.530924 15.30114
v -1.146575 1.447298 15.0449
v -2.453689 3.130933 13.6208
v -2.12001 3.02671 13.30112
v -4.183051 5.978324 11.19854
v -3.76863 5.848558 10.80142
v -5.366167 8.000581 9.728292
v -4.910963 7.717982 9.18452
v -9.793794 -0.2907133 10.35404
v -9.458879 0.8277273 9.814389
v -9.717582 0.4466743 10.39688
v -9.611711 -0.6470499 9.728292
v -9.139619 -0.3941126 9.18452
v -9.062995 0.3432751 9.227363
v -1.633499 3.604262 13.6208
v -1.024227 1.993543 15.55695
v -1.967177 3.708898 13.94006
v -0.7568722 1.910329 15.30114
v -3.163477 6.566586 11.19854
v -3.57831 6.696349 11.59566
v -4.012504 8.605731 9.814389
v -4.471826 8.6391 10.39688
v -0.000123024 0.4458504 17.2031
v -0.000123024 0.4631529 16.95182
v 0.8859797 2.073461 15.55695
v 0.6186247 1.989835 15.30114
v 1.81822 3.794582 13.94006
v 1.484541 3.69036 13.6208
v 3.500206 6.741252 11.59566
v 3.085786 6.611901 11.19854
v 4.645424 8.627154 10.35404
v 4.245422 8.64734 9.728292
v -1.967177 3.708898 13.94006
v -1.35255 1.804046 15.55695
v -2.377067 3.472027 13.94006
v -1.024227 1.993543 15.55695
v -3.57831 6.696349 11.59566
v -4.087891 6.402219 11.59566
v -4.471826 8.6391 10.39688
v -5.148659 8.336318 10.35404
v -0.3861179 0.2229872 17.2031
v -0.000123024 0.4458504 17.2031
v -1.710121 3.263581 13.30112
v -0.7568722 1.910329 15.30114
v -1.633499 3.604262 13.6208
v -0.8182526 1.636795 15.0449
v -3.258637 6.142691 10.80142
v -3.163477 6.566586 11.19854
v -4.234132 8.020764 9.227363
v -4.012504 8.605731 9.814389
v -0.000123024 0.4631529 16.95182
v -0.000123024 0.1949739 16.70094
v 0.6186247 1.989835 15.30114
v 0.6800051 1.716713 15.0449
v 1.484541 3.69036 13.6208
v 1.561164 3.349266 13.30112
v 3.085786 6.611901 11.19854
v 3.180534 6.188005 10.80142
v 4.245422 8.64734 9.728292
v 4.228532 8.111806 9.18452
v -5.148659 8.336318 10.35404
v -4.012504 8.605731 9.814389
v -4.471826 8.6391 10.39688
v -5.366167 8.000581 9.728292
v -4.910963 7.717982 9.18452
v -4.234132 8.020764 9.227363
v 2.304731 3.217031 13.6208
v 1.214302 1.883964 15.55695
v 2.228109 3.558124 13.94006
v 1.275682 1.61043 15.30114
v 4.105359 6.023226 11.19854
v 4.010199 6.44712 11.59566
v 5.446252 7.777717 9.814389
v 5.245633 8.192136 10.39688
v 0.3862858 0.2229872 17.2031
v 0.4011154 0.231638 16.95182
v 2.23882 0.269537 15.55695
v 2.032845 0.459033 15.30114
v 4.195576 0.3226786 13.94006
v 3.93852 0.5595484 13.6208
v 7.588386 0.3391562 11.59566
v 7.268713 0.6336994 11.19854
v 9.79396 0.2905464 10.35404
v 9.611466 0.6468821 9.728292
v 2.228109 3.558124 13.94006
v 0.8859797 2.073461 15.55695
v 1.81822 3.794582 13.94006
v 1.214302 1.883964 15.55695
v 4.010199 6.44712 11.59566
v 3.500206 6.741252 11.59566
v 5.245633 8.192136 10.39688
v 4.645424 8.627154 10.35404
v -0.000123024 0.4458504 17.2031
v 0.3862858 0.2229872 17.2031
v 1.971053 3.112807 13.30112
v 1.275682 1.61043 15.30114
v 2.304731 3.217031 13.6208
v 1.008327 1.527217 15.0449
v 3.690526 5.893462 10.80142
v 4.105359 6.023226 11.19854
v 4.829153 7.677199 9.227363
v 5.446252 7.777717 9.814389
v 0.4011154 0.231638 16.95182
v 0.1687765 0.09734249 16.70094
v 2.032845 0.459033 15.30114
v 1.82687 0.269537 15.0449
v 3.93852 0.5595484 13.6208
v 3.681464 0.3226786 13.30112
v 7.268713 0.6336994 11.19854
v 6.949041 0.3391562 10.80142
v 9.611466 0.6468821 9.728292
v 9.139373 0.3939457 9.18452
v 4.645424 8.627154 10.35404
v 5.446252 7.777717 9.814389
v 5.245633 8.192136 10.39688
v 4.245422 8.64734 9.728292
v 4.228532 8.111806 9.18452
v 4.829153 7.677199 9.227363
v 4.195576 -0.150651 13.94006
v 2.23882 0.269537 15.55695
v 4.195576 0.3226786 13.94006
v 2.23882 -0.109868 15.55695
v 7.588386 -0.2491064 11.59566
v 7.588386 0.3391562 11.59566
v 9.717749 -0.4468422 10.39688
v 9.79396 0.2905464 10.35404
v 0.3862858 0.2229872 17.2031
v 0.3862858 -0.2231531 17.2031
v 9.79396 0.2905464 10.35404
v 9.459045 -0.8278942 9.814389
v 9.717749 -0.4468422 10.39688
v 9.611466 0.6468821 9.728292
v 9.139373 0.3939457 9.18452
v 9.063163 -0.3434429 9.227363
v 0.3862858 -0.2231531 17.2031
v -0.000123024 -0.4460182 17.2031
v -0.000123024 0.4458504 17.2031
v 0.3862858 0.2229872 17.2031
v -0.3861179 0.2229872 17.2031
v -0.3861179 -0.2231531 17.2031
v -2.356469 -3.823998 -0.07073307
v -1.647918 -4.129664 2.596636
v -2.39478 -3.606901 2.596636
v -1.865014 -4.167975 -0.07073307
v -2.356469 -3.823998 9.834575
v -1.865014 -4.167975 9.834575
v -2.700858 -4.315453 -0.07073307
v -2.39478 -3.606901 2.596636
v -2.917543 -4.353764 2.596636
v -2.356469 -3.823998 -0.07073307
v -2.700858 -4.315453 9.834575
v -2.356469 -3.823998 9.834575
v -2.208992 -4.65943 -0.07073307
v -2.917543 -4.353764 2.596636
v -2.171092 -4.876527 2.596636
v -2.700858 -4.315453 -0.07073307
v -2.208992 -4.65943 9.834575
v -2.700858 -4.315453 9.834575
v -1.865014 -4.167975 -0.07073307
v -2.171092 -4.876527 2.596636
v -1.647918 -4.129664 2.596636
v -2.208992 -4.65943 -0.07073307
v -1.865014 -4.167975 9.834575
v -2.208992 -4.65943 9.834575
v -4.489951 0.1286507 -0.07073307
v -4.400559 -0.6375742 2.596636
v -4.321054 0.2703609 2.596636
v -4.54227 -0.4686756 -0.07073307
v -4.489951 0.1286507 9.834575
v -4.54227 -0.4686756 9.834575
v -5.087689 0.1809673 -0.07073307
v -4.321054 0.2703609 2.596636
v -5.2294 0.3498669 2.596636
v -4.489951 0.1286507 -0.07073307
v -5.087689 0.1809673 9.834575
v -4.489951 0.1286507 9.834575
v -5.140008 -0.41677 -0.07073307
v -5.2294 0.3498669 2.596636
v -5.308906 -0.5580683 2.596636
v -5.087689 0.1809673 -0.07073307
v -5.140008 -0.41677 9.834575
v -5.087689 0.1809673 9.834575
v -4.54227 -0.4686756 -0.07073307
v -5.308906 -0.5580683 2.596636
v -4.400559 -0.6375742 2.596636
v -5.140008 -0.41677 -0.07073307
v -4.54227 -0.4686756 9.834575
v -5.140008 -0.41677 9.834575
v 4.489707 -0.1288176 -0.07073307
v 4.400314 0.6378193 2.596636
v 4.32122 -0.2705278 2.596636
v 4.542025 0.4689207 -0.07073307
v 4.489707 -0.1288176 9.834575
v 4.542025 0.4689207 9.834575
v 5.087445 -0.1811352 -0.07073307
v 4.32122 -0.2705278 2.596636
v 5.229156 -0.3500338 2.596636
v 4.489707 -0.1288176 -0.07073307
v 5.087445 -0.1811352 9.834575
v 4.489707 -0.1288176 9.834575
v 5.139762 0.4166031 -0.07073307
v 5.229156 -0.3500338 2.596636
v 5.308661 0.5583124 2.596636
v 5.087445 -0.1811352 -0.07073307
v 5.139762 0.4166031 9.834575
v 5.087445 -0.1811352 9.834575
v 4.542025 0.4689207 -0.07073307
v 5.308661 0.5583124 2.596636
v 4.400314 0.6378193 2.596636
v 5.139762 0.4166031 -0.07073307
v 4.542025 0.4689207 9.834575
v 5.139762 0.4166031 9.834575
v -2.133193 3.95277 -0.07073307
v -2.752352 3.492212 2.596636
v -1.926394 3.877385 2.596636
v -2.676966 3.699011 -0.07073307
v -2.133193 3.95277 9.834575
v -2.676966 3.699011 9.834575
v -2.386953 4.496544 -0.07073307
v -1.926394 3.877385 2.596636
v -2.311567 4.703753 2.596636
v -2.133193 3.95277 -0.07073307
v -2.386953 4.496544 9.834575
v -2.133193 3.95277 9.834575
v -2.930726 4.242783 -0.07073307
v -2.311567 4.703753 2.596636
v -3.137936 4.31817 2.596636
v -2.386953 4.496544 -0.07073307
v -2.930726 4.242783 9.834575
v -2.386953 4.496544 9.834575
v -2.676966 3.699011 -0.07073307
v -3.137936 4.31817 2.596636
v -2.752352 3.492212 2.596636
v -2.930726 4.242783 -0.07073307
v -2.676966 3.699011 9.834575
v -2.930726 4.242783 9.834575
v 2.356637 3.823831 -0.07073307
v 1.648085 4.129909 2.596636
v 2.394948 3.606733 2.596636
v 1.865182 4.16822 -0.07073307
v 2.356637 3.823831 9.834575
v 1.865182 4.16822 9.834575
v 2.700613 4.315286 -0.07073307
v 2.394948 3.606733 2.596636
v 2.917711 4.353597 2.596636
v 2.356637 3.823831 -0.07073307
v 2.700613 4.315286 9.834575
v 2.356637 3.823831 9.834575
v 2.209159 4.659675 -0.07073307
v 2.917711 4.353597 2.596636
v 2.170847 4.876772 2.596636
v 2.700613 4.315286 -0.07073307
v 2.209159 4.659675 9.834575
v 2.700613 4.315286 9.834575
v 1.865182 4.16822 -0.07073307
v 2.170847 4.876772 2.596636
v 1.648085 4.129909 2.596636
v 2.209159 4.659675 -0.07073307
v 1.865182 4.16822 9.834575
v 2.209159 4.659675 9.834575
v 2.13336 -3.952938 -0.07073307
v 2.752519 -3.491967 2.596636
v 1.92615 -3.877552 2.596636
v 2.677133 -3.699178 -0.07073307
v 2.13336 -3.952938 9.834575
v 2.677133 -3.699178 9.834575
v 2.387121 -4.49671 -0.07073307
v 1.92615 -3.877552 2.596636
v 2.311734 -4.703509 2.596636
v 2.13336 -3.952938 -0.07073307
v 2.387121 -4.49671 9.834575
v 2.13336 -3.952938 9.834575
v 2.930893 -4.24295 -0.07073307
v 2.311734 -4.703509 2.596636
v 3.137691 -4.318336 2.596636
v 2.387121 -4.49671 -0.07073307
v 2.930893 -4.24295 9.834575
v 2.387121 -4.49671 9.834575
v 2.677133 -3.699178 -0.07073307
v 3.137691 -4.318336 2.596636
v 2.752519 -3.491967 2.596636
v 2.930893 -4.24295 -0.07073307
v 2.677133 -3.699178 9.834575
v 2.930893 -4.24295 9.834575
vn -0.7929215 0.5819967 0.1804308
vn -0.9179142 0.3554476 0.1763253
vn -0.7772975 0.6054327 0.1710549
vn -0.9022901 0.3945078 0.1738856
vn -0.9882225 0.01171815 0.1525747
vn -0.9882225 0.01171815 0.1525747
vn -0.4882523 0.8554178 0.1728293
vn -0.4804403 0.8632299 0.1549558
vn -0.8085457 0.07421434 0.5837346
vn -0.8085457 0.07421434 0.5837346
vn -0.8085457 0.07421434 0.5837346
vn -0.4726281 0.660117 0.5838391
vn -0.4726281 0.660117 0.5838391
vn -0.4726281 0.660117 0.5838391
vn -0.652305 0.3788837 0.6564642
vn -0.652305 0.3788837 0.6564642
vn -0.652305 0.3788837 0.6564642
vn -0.9022901 -0.4023198 0.1549559
vn -0.7694855 -0.6132448 0.1783899
vn -0.9101021 -0.3710716 0.184445
vn -0.7929215 -0.5819966 0.1804311
vn -0.5038763 -0.8476058 0.166352
vn -0.5038763 -0.8476058 0.166352
vn -0.9882225 0.01171815 0.1525747
vn -0.9882225 0.01171815 0.1525747
vn -0.4726281 -0.660117 0.5838392
vn -0.4726281 -0.660117 0.5838392
vn -0.4726281 -0.660117 0.5838392
vn -0.8085457 -0.07421434 0.5837346
vn -0.8085457 -0.07421434 0.5837346
vn -0.8085457 -0.07421434 0.5837346
vn -0.652305 -0.3788837 0.6564642
vn -0.652305 -0.3788837 0.6564642
vn -0.652305 -0.3788837 0.6564642
vn 0.7929216 -0.5819966 0.1804307
vn 0.9179142 -0.3554476 0.1763254
vn 0.7772975 -0.6054327 0.1710549
vn 0.9022901 -0.3945078 0.1738856
vn 0.9882225 -0.01171803 0.1525747
vn 0.9882225 -0.01171803 0.1525747
vn 0.4882522 -0.8554178 0.1728297
vn 0.4804401 -0.8632299 0.1549562
vn 0.8085456 -0.07421434 0.5837347
vn 0.8085456 -0.07421434 0.5837347
vn 0.8085456 -0.07421434 0.5837347
vn 0.4726281 -0.660117 0.5838392
vn 0.4726281 -0.660117 0.5838392
vn 0.4726281 -0.660117 0.5838392
vn 0.6523049 -0.3788837 0.6564643
vn 0.6523049 -0.3788837 0.6564643
vn 0.6523049 -0.3788837 0.6564643
vn -0.1054626 -0.9804105 0.166352
vn 0.1445227 -0.9725984 0.1821143
vn -0.1367106 -0.9725984 0.1880495
vn 0.1132745 -0.9804105 0.1611343
vn 0.4804401 -0.8632299 0.1549562
vn 0.4882522 -0.8554178 0.1728297
vn -0.5038763 -0.8476058 0.166352
vn -0.5038763 -0.8476058 0.166352
vn 0.3398235 -0.7382373 0.5826882
vn 0.3398235 -0.7382373 0.5826882
vn 0.3398235 -0.7382373 0.5826882
vn -0.3398236 -0.7382373 0.5826882
vn -0.3398236 -0.7382373 0.5826882
vn -0.3398236 -0.7382373 0.5826882
vn 0.003906012 -0.7538614 0.6570218
vn 0.003906012 -0.7538614 0.6570218
vn 0.003906012 -0.7538614 0.6570218
vn 0.9022901 0.4023199 0.1549556
vn 0.7694855 0.6132448 0.1783899
vn 0.9101021 0.3710717 0.1844449
vn 0.7929216 0.5819967 0.1804305
vn 0.5038763 0.8476058 0.1663522
vn 0.5038763 0.8476058 0.1663522
vn 0.9882225 -0.01171803 0.1525747
vn 0.9882225 -0.01171803 0.1525747
vn 0.4726281 0.660117 0.5838391
vn 0.4726281 0.660117 0.5838391
vn 0.4726281 0.660117 0.5838391
vn 0.8085456 0.07421434 0.5837347
vn 0.8085456 0.07421434 0.5837347
vn 0.8085456 0.07421434 0.5837347
vn 0.6523049 0.3788837 0.6564643
vn 0.6523049 0.3788837 0.6564643
vn 0.6523049 0.3788837 0.6564643
vn 0.1054625 0.9804105 0.166352
vn -0.1445227 0.9725984 0.182114
vn 0.1367106 0.9725984 0.1880492
vn -0.1132746 0.9804105 0.1611341
vn -0.4804403 0.8632299 0.1549558
vn -0.4882523 0.8554178 0.1728293
vn 0.5038763 0.8476058 0.1663522
vn 0.5038763 0.8476058 0.1663522
vn -0.3398236 0.7382374 0.5826882
vn -0.3398236 0.7382374 0.5826882
vn -0.3398236 0.7382374 0.5826882
vn 0.3398235 0.7382374 0.5826882
vn 0.3398235 0.7382374 0.5826882
vn 0.3398235 0.7382374 0.5826882
vn 0.003906012 0.7538614 0.6570218
vn 0.003906012 0.7538614 0.6570218
vn 0.003906012 0.7538614 0.6570218
vn -0.6054327 -0.6835531 0.4076842
vn -0.5819967 -0.7226132 0.3729745
vn -0.6054327 -0.6835531 0.4076842
vn -0.5898087 -0.7148012 0.3757459
vn -0.6288688 -0.6288688 0.4572177
vn -0.6288688 -0.6288688 0.4572177
vn -0.644493 -0.5898087 0.4865743
vn -0.652305 -0.5898087 0.4760503
vn 0.02734214 -0.9960345 0.0846619
vn -0.01953018 -0.9960345 0.08679774
vn 0.6054327 -0.6913651 0.3942911
vn 0.5976207 -0.6913651 0.4060341
vn 0.6054327 -0.6835531 0.4076842
vn 0.6054327 -0.6835531 0.4076842
vn 0.6132448 -0.6679291 0.4216653
vn 0.6132448 -0.6679291 0.4216653
vn 0.6210568 -0.660117 0.4225329
vn 0.6210568 -0.660117 0.4225329
vn 0.3007634 -0.5195004 0.7997879
vn 0.3241994 -0.5663725 0.757705
vn 0.3007634 -0.5195004 0.7997879
vn 0.3241994 -0.5663725 0.757705
vn 0.2617032 -0.457004 0.8500934
vn 0.2617032 -0.457004 0.8500934
vn 0.2460791 -0.4257559 0.8707336
vn 0.2460791 -0.4257559 0.8707336
vn 0.5273124 -0.3085754 0.7916583
vn -0.003906071 -0.6132448 0.7898833
vn 0.894478 0.1757709 0.4111128
vn 0.9022901 0.1757709 0.3936714
vn 0.894478 0.1757709 0.4111128
vn 0.9022901 0.1835829 0.3900896
vn 0.886666 0.1992069 0.4173008
vn 0.886666 0.1992069 0.4173008
vn 0.878854 0.207019 0.4298359
vn 0.878854 0.207019 0.4298359
vn 0.8554178 -0.5116884 0.08022054
vn 0.871042 -0.4726281 0.133823
vn 0.3241994 -0.871042 0.3690266
vn 0.3320115 -0.8632299 0.3802664
vn 0.2851393 -0.8632299 0.416569
vn 0.2851393 -0.8632299 0.416569
vn 0.230455 -0.8632299 0.4491377
vn 0.230455 -0.8632299 0.4491377
vn 0.1913949 -0.8554178 0.4812778
vn 0.1913949 -0.8554178 0.4812778
vn 0.5819966 0.7226133 -0.3729744
vn 0.5585605 0.7616735 -0.3284262
vn 0.5819966 0.7226133 -0.3729744
vn 0.5585605 0.7616735 -0.3284262
vn 0.6054327 0.6835531 -0.4076842
vn 0.6132448 0.6835531 -0.3958358
vn 0.6991771 0.660117 -0.2745848
vn 0.7148012 0.652305 -0.252106
vn 0.5819966 -0.3163874 -0.7491187
vn 0.6054327 -0.2695152 -0.7488743
vn -0.3554476 -0.871042 -0.3390323
vn -0.3632597 -0.8632299 -0.3505376
vn -0.3398236 -0.8632299 -0.3733016
vn -0.3398236 -0.8632299 -0.3733016
vn -0.3241996 -0.8632299 -0.3869481
vn -0.3241996 -0.8632299 -0.3869481
vn -0.3710717 -0.8319818 -0.4124464
vn -0.3788837 -0.8241698 -0.420941
vn -0.9179142 -0.1445227 -0.3695224
vn -0.9335382 -0.1132745 -0.3401107
vn -0.9179142 -0.1445227 -0.3695224
vn -0.9335382 -0.1210865 -0.3374085
vn -0.9101021 -0.1523347 -0.3853677
vn -0.9101021 -0.1445227 -0.3883649
vn -0.9022901 -0.09765041 -0.4199249
vn -0.9022901 -0.08983839 -0.4216653
vn 0.06640232 -0.660117 -0.7482221
vn 0.01953006 -0.6679291 -0.7439686
vn 0.9413503 -0.1054625 -0.3205266
vn 0.9335382 -0.1054625 -0.3426136
vn 0.9179142 -0.1445227 -0.3695224
vn 0.9179142 -0.1445227 -0.3695224
vn 0.894478 -0.1835828 -0.4076842
vn 0.9022901 -0.1913949 -0.3863167
vn 0.9179142 -0.2773272 -0.2837662
vn 0.9257262 -0.2851393 -0.2484485
vn 0.3632596 -0.8632299 -0.3505377
vn 0.3320115 -0.8085456 -0.4858212
vn 0.3632596 -0.8632299 -0.3505377
vn 0.3241994 -0.8007336 -0.5037066
vn 0.2851393 -0.7304253 -0.6206242
vn 0.2851393 -0.7304253 -0.6206242
vn -0.8944781 0.1835829 0.4076841
vn -0.9179142 0.1445227 0.3695224
vn -0.8944781 0.1835829 0.4076841
vn -0.9179142 0.1523347 0.3663711
vn -0.8632299 0.230455 0.4491377
vn -0.8632299 0.230455 0.4491377
vn -0.8397938 0.2617033 0.4756656
vn -0.8397938 0.2617033 0.4756656
vn -0.8476058 -0.5195004 0.1080912
vn -0.8710419 -0.4804401 0.1022903
vn -0.2929513 -0.871042 0.394291
vn -0.3007634 -0.8632299 0.4054326
vn -0.2929513 -0.8632299 0.4111127
vn -0.2929513 -0.8632299 0.4111127
vn -0.2695153 -0.8632299 0.4268439
vn -0.2695153 -0.8632299 0.4268439
vn -0.2617033 -0.871042 0.415689
vn -0.2617033 -0.871042 0.415689
vn -0.3007634 -0.5195004 0.7997879
vn -0.3241996 -0.5663725 0.757705
vn -0.3007634 -0.5195004 0.7997879
vn -0.3241996 -0.5663725 0.757705
vn -0.2617033 -0.457004 0.8500934
vn -0.2617033 -0.457004 0.8500934
vn -0.2460792 -0.4257559 0.8707336
vn -0.2460792 -0.4257559 0.8707336
vn -0.003906071 -0.6132448 0.7898833
vn -0.5351244 -0.3007634 0.7894196
vn -0.5819967 0.7226133 -0.3729743
vn -0.5663726 0.7460494 -0.350189
vn -0.5819967 0.7226133 -0.3729743
vn -0.5741847 0.7460494 -0.3372273
vn -0.5898087 0.7148012 -0.3757459
vn -0.5819967 0.7148012 -0.3877359
vn -0.5351244 0.7304254 -0.4244063
vn -0.5273124 0.7382374 -0.4206509
vn -0.5429364 -0.3866957 -0.7454437
vn -0.5663726 -0.3476356 -0.7472426
vn 0.3788837 -0.8632299 -0.3335885
vn 0.3788837 -0.8632299 -0.3335885
vn 0.3320115 -0.8632299 -0.3802664
vn 0.3320115 -0.8632299 -0.3802664
vn 0.2851393 -0.8632299 -0.416569
vn 0.2851393 -0.871042 -0.3999768
vn 0.222643 -0.9335382 -0.2809564
vn 0.2148309 -0.9413503 -0.2602063
vn -0.5663726 -0.7538614 -0.333039
vn -0.5351244 -0.6913651 -0.4854443
vn -0.5663726 -0.7538614 -0.333039
vn -0.5351244 -0.6835531 -0.496384
vn -0.4882523 -0.6132448 -0.6209191
vn -0.4882523 -0.6132448 -0.6209191
vn -0.2851393 0.8632299 0.416569
vn -0.3320116 0.8632299 0.3802663
vn -0.2851393 0.8632299 0.416569
vn -0.3241996 0.8710419 0.3690267
vn -0.230455 0.8632299 0.4491377
vn -0.230455 0.8632299 0.4491377
vn -0.1913949 0.8554178 0.4812778
vn -0.1913949 0.8554178 0.4812778
vn -0.8710419 0.4726281 0.1338234
vn -0.8554178 0.5116884 0.08022054
vn -0.9022901 -0.1835828 0.3900896
vn -0.9022901 -0.1757708 0.3936715
vn -0.8944781 -0.1757708 0.4111127
vn -0.8944781 -0.1757708 0.4111127
vn -0.8866661 -0.1992069 0.4173008
vn -0.8866661 -0.1992069 0.4173008
vn -0.878854 -0.2070189 0.4298357
vn -0.878854 -0.2070189 0.4298357
vn -0.6054327 -0.003906012 0.7958869
vn -0.652305 -0.003906012 0.7579465
vn -0.6054327 -0.003906012 0.7958869
vn -0.652305 -0.003906012 0.7579465
vn -0.5273124 -0.003906012 0.8496625
vn -0.5273124 -0.003906012 0.8496625
vn -0.4882523 -0.003906012 0.8726938
vn -0.4882523 -0.003906012 0.8726938
vn -0.5351244 -0.3007634 0.7894196
vn -0.5273124 0.3085754 0.7916583
vn 0.3398235 0.8632299 -0.3733016
vn 0.3632596 0.8632299 -0.3505377
vn 0.3398235 0.8632299 -0.3733016
vn 0.3554476 0.8710419 -0.3390325
vn 0.3241994 0.8632299 -0.3869482
vn 0.3241994 0.8632299 -0.3869482
vn 0.3710716 0.8319818 -0.4124465
vn 0.3788837 0.8241698 -0.420941
vn -0.6054327 0.2695153 -0.7488743
vn -0.5819967 0.3163874 -0.7491187
vn -0.5585606 -0.7616735 -0.3284259
vn -0.5585606 -0.7616735 -0.3284259
vn -0.5819967 -0.7226132 -0.3729745
vn -0.5819967 -0.7226132 -0.3729745
vn -0.6054327 -0.6835531 -0.4076842
vn -0.6132448 -0.6835531 -0.3958358
vn -0.6991771 -0.660117 -0.2745849
vn -0.7148012 -0.6523049 -0.2521062
vn -0.9335382 0.1132746 -0.3401107
vn -0.8710419 0.1210866 -0.4760505
vn -0.9335382 0.1132746 -0.3401107
vn -0.8632299 0.1210866 -0.4900737
vn -0.7772975 0.1132746 -0.6188517
vn -0.7772975 0.1132746 -0.6188517
vn 0.6054327 0.6835531 0.4076842
vn 0.5819966 0.7226133 0.3729744
vn 0.6054327 0.6835531 0.4076842
vn 0.5898087 0.7148012 0.3757459
vn 0.6288688 0.6288688 0.4572177
vn 0.6288688 0.6288688 0.4572177
vn 0.6444929 0.5898087 0.4865744
vn 0.6523049 0.5898087 0.4760504
vn -0.0273422 0.9960345 0.0846619
vn 0.01953006 0.9960345 0.08679774
vn -0.6054327 0.6913651 0.3942911
vn -0.5976207 0.6913651 0.4060341
vn -0.6054327 0.6835531 0.4076842
vn -0.6054327 0.6835531 0.4076842
vn -0.6132448 0.6679291 0.4216653
vn -0.6132448 0.6679291 0.4216653
vn -0.6210568 0.660117 0.4225328
vn -0.6210568 0.660117 0.4225328
vn -0.3007634 0.5195004 0.7997879
vn -0.3241996 0.5663726 0.7577049
vn -0.3007634 0.5195004 0.7997879
vn -0.3241996 0.5663726 0.7577049
vn -0.2617033 0.4570041 0.8500934
vn -0.2617033 0.4570041 0.8500934
vn -0.2460792 0.425756 0.8707335
vn -0.2460792 0.425756 0.8707335
vn -0.5273124 0.3085754 0.7916583
vn 0.003906012 0.6132448 0.7898833
vn 0.9179142 0.1445227 -0.3695224
vn 0.9335382 0.1132746 -0.3401107
vn 0.9179142 0.1445227 -0.3695224
vn 0.9335382 0.1210866 -0.3374085
vn 0.9101021 0.1523347 -0.3853677
vn 0.9101021 0.1445227 -0.3883649
vn 0.9022901 0.09765053 -0.4199249
vn 0.9022901 0.0898385 -0.4216653
vn -0.06640232 0.660117 -0.7482221
vn -0.01953018 0.6679291 -0.7439686
vn -0.9413502 0.1054626 -0.3205268
vn -0.9335382 0.1054626 -0.3426136
vn -0.9179142 0.1445227 -0.3695224
vn -0.9179142 0.1445227 -0.3695224
vn -0.8944781 0.1835829 -0.4076841
vn -0.9022901 0.1913949 -0.3863166
vn -0.9179142 0.2773273 -0.2837661
vn -0.9257262 0.2851393 -0.2484484
vn -0.3632597 0.8632299 -0.3505376
vn -0.3320116 0.8085457 -0.4858211
vn -0.3632597 0.8632299 -0.3505376
vn -0.3241996 0.8007337 -0.5037065
vn -0.2851393 0.7304254 -0.6206242
vn -0.2851393 0.7304254 -0.6206242
vn 0.894478 -0.1835828 0.4076842
vn 0.9179142 -0.1445227 0.3695224
vn 0.894478 -0.1835828 0.4076842
vn 0.9179142 -0.1523347 0.3663711
vn 0.8632299 -0.230455 0.4491377
vn 0.8632299 -0.230455 0.4491377
vn 0.8397938 -0.2617032 0.4756657
vn 0.8397938 -0.2617032 0.4756657
vn 0.8476058 0.5195004 0.1080912
vn 0.871042 0.4804403 0.1022892
vn 0.2929513 0.8710419 0.3942913
vn 0.3007634 0.8632299 0.4054326
vn 0.2929513 0.8632299 0.4111128
vn 0.2929513 0.8632299 0.4111128
vn 0.2695152 0.8632299 0.4268439
vn 0.2695152 0.8632299 0.4268439
vn 0.2617032 0.8710419 0.4156892
vn 0.2617032 0.8710419 0.4156892
vn 0.3007634 0.5195004 0.7997879
vn 0.3241994 0.5663726 0.7577049
vn 0.3007634 0.5195004 0.7997879
vn 0.3241994 0.5663726 0.7577049
vn 0.2617032 0.4570041 0.8500934
vn 0.2617032 0.4570041 0.8500934
vn 0.2460791 0.425756 0.8707336
vn 0.2460791 0.425756 0.8707336
vn 0.003906012 0.6132448 0.7898833
vn 0.5351244 0.3007634 0.7894196
vn 0.5819966 -0.7226132 -0.3729746
vn 0.5663725 -0.7460493 -0.3501893
vn 0.5819966 -0.7226132 -0.3729746
vn 0.5741846 -0.7460493 -0.3372276
vn 0.5898087 -0.7148012 -0.3757459
vn 0.5819966 -0.7148012 -0.387736
vn 0.5351244 -0.7304253 -0.4244064
vn 0.5273124 -0.7382373 -0.420651
vn 0.5429364 0.3866957 -0.7454437
vn 0.5663725 0.3476356 -0.7472427
vn -0.3788837 0.8632299 -0.3335885
vn -0.3788837 0.8632299 -0.3335885
vn -0.3320116 0.8632299 -0.3802663
vn -0.3320116 0.8632299 -0.3802663
vn -0.2851393 0.8632299 -0.416569
vn -0.2851393 0.8710419 -0.399977
vn -0.222643 0.9335382 -0.2809564
vn -0.214831 0.9413502 -0.2602065
vn 0.5663725 0.7538614 -0.3330392
vn 0.5351244 0.6913651 -0.4854443
vn 0.5663725 0.7538614 -0.3330392
vn 0.5351244 0.6835531 -0.496384
vn 0.4882522 0.6132448 -0.6209192
vn 0.4882522 0.6132448 -0.6209192
vn 0.6054327 -0.003906012 0.7958869
vn 0.6523049 -0.003906012 0.7579466
vn 0.6054327 -0.003906012 0.7958869
vn 0.6523049 -0.003906012 0.7579466
vn 0.5273124 -0.003906012 0.8496625
vn 0.5273124 -0.003906012 0.8496625
vn 0.4882522 0.003906071 0.8726938
vn 0.4882522 0.003906071 0.8726938
vn 0.5351244 0.3007634 0.7894196
vn 0.5273124 -0.3085754 0.7916583
vn 0.9335382 -0.1132745 -0.3401107
vn 0.871042 -0.1210865 -0.4760504
vn 0.9335382 -0.1132745 -0.3401107
vn 0.8632299 -0.1210865 -0.4900737
vn 0.7772975 -0.1132745 -0.6188517
vn 0.7772975 -0.1132745 -0.6188517
vn 0.003906012 -0.003906012 0.9999847
vn 0.003906012 -0.003906012 0.9999847
vn 0.003906012 -0.003906012 0.9999847
vn 0.003906012 -0.003906012 0.9999847
vn 0.003906012 -0.003906012 0.9999847
vn 0.003906012 -0.003906012 0.9999847
vn 0.5741846 0.8163577 -0.06222617
vn 0.5741846 0.8163577 -0.06222617
vn 0.5741846 0.8163577 -0.06222617
vn 0.5741846 0.8163577 -0.06222617
vn 0.5741846 0.8163577 0.06222617
vn 0.5741846 0.8163577 0.06222617
vn -0.8163577 0.5741847 -0.06222569
vn -0.8163577 0.5741847 -0.06222569
vn -0.8163577 0.5741847 -0.06222569
vn -0.8163577 0.5741847 -0.06222569
vn -0.8163577 0.5741847 0.06222569
vn -0.8163577 0.5741847 0.06222569
vn -0.5741847 -0.8163577 -0.06222665
vn -0.5741847 -0.8163577 -0.06222665
vn -0.5741847 -0.8163577 -0.06222665
vn -0.5741847 -0.8163577 -0.06222665
vn -0.5741847 -0.8163577 0.06222665
vn -0.5741847 -0.8163577 0.06222665
vn 0.8163577 -0.5741846 -0.06222713
vn 0.8163577 -0.5741846 -0.06222713
vn 0.8163577 -0.5741846 -0.06222713
vn 0.8163577 -0.5741846 -0.06222713
vn 0.8163577 -0.5741846 0.06222713
vn 0.8163577 -0.5741846 0.06222713
vn 0.9960345 -0.08983839 0
vn 0.9960345 -0.08983839 0
vn 0.9960345 -0.08983839 0
vn 0.9960345 -0.08983839 0
vn 0.9960345 -0.08983839 0
vn 0.9960345 -0.08983839 0
vn 0.08983839 0.9960345 0
vn 0.08983839 0.9960345 0
vn 0.08983839 0.9960345 0
vn 0.08983839 0.9960345 0
vn 0.08983839 0.9960345 0
vn 0.08983839 0.9960345 0
vn -0.9960345 0.0898385 0
vn -0.9960345 0.0898385 0
vn -0.9960345 0.0898385 0
vn -0.9960345 0.0898385 0
vn -0.9960345 0.0898385 0
vn -0.9960345 0.0898385 0
vn -0.0898385 -0.9960345 0
vn -0.0898385 -0.9960345 0
vn -0.0898385 -0.9960345 0
vn -0.0898385 -0.9960345 0
vn -0.0898385 -0.9960345 0
vn -0.0898385 -0.9960345 0
vn -0.9960345 0.0898385 0
vn -0.9960345 0.0898385 0
vn -0.9960345 0.0898385 0
vn -0.9960345 0.0898385 0
vn -0.9960345 0.0898385 0
vn -0.9960345 0.0898385 0
vn -0.0898385 -0.9960345 0
vn -0.0898385 -0.9960345 0
vn -0.0898385 -0.9960345 0
vn -0.0898385 -0.9960345 0
vn -0.0898385 -0.9960345 0
vn -0.0898385 -0.9960345 0
vn 0.9960345 -0.08983839 0
vn 0.9960345 -0.08983839 0
vn 0.9960345 -0.08983839 0
vn 0.9960345 -0.08983839 0
vn 0.9960345 -0.08983839 0
vn 0.9960345 -0.08983839 0
vn 0.08983839 0.9960345 0
vn 0.08983839 0.9960345 0
vn 0.08983839 0.9960345 0
vn 0.08983839 0.9960345 0
vn 0.08983839 0.9960345 0
vn 0.08983839 0.9960345 0
vn 0.4257559 -0.9022901 -0.06785616
vn 0.4257559 -0.9022901 -0.06785616
vn 0.4257559 -0.9022901 -0.06785616
vn 0.4257559 -0.9022901 -0.06785616
vn 0.4257559 -0.9022901 0.06785616
vn 0.4257559 -0.9022901 0.06785616
vn 0.9022901 0.425756 -0.06785572
vn 0.9022901 0.425756 -0.06785572
vn 0.9022901 0.425756 -0.06785572
vn 0.9022901 0.425756 -0.06785572
vn 0.9022901 0.425756 0.06785572
vn 0.9022901 0.425756 0.06785572
vn -0.425756 0.9022901 -0.06785572
vn -0.425756 0.9022901 -0.06785572
vn -0.425756 0.9022901 -0.06785572
vn -0.425756 0.9022901 -0.06785572
vn -0.425756 0.9022901 0.06785572
vn -0.425756 0.9022901 0.06785572
vn -0.9022901 -0.4257559 -0.06785616
vn -0.9022901 -0.4257559 -0.06785616
vn -0.9022901 -0.4257559 -0.06785616
vn -0.9022901 -0.4257559 -0.06785616
vn -0.9022901 -0.4257559 0.06785616
vn -0.9022901 -0.4257559 0.06785616
vn -0.5741847 -0.8163577 -0.06222665
vn -0.5741847 -0.8163577 -0.06222665
vn -0.5741847 -0.8163577 -0.06222665
vn -0.5741847 -0.8163577 -0.06222665
vn -0.5741847 -0.8163577 0.06222665
vn -0.5741847 -0.8163577 0.06222665
vn 0.8163577 -0.5741846 -0.06222713
vn 0.8163577 -0.5741846 -0.06222713
vn 0.8163577 -0.5741846 -0.06222713
vn 0.8163577 -0.5741846 -0.06222713
vn 0.8163577 -0.5741846 0.06222713
vn 0.8163577 -0.5741846 0.06222713
vn 0.5741846 0.8163577 -0.06222617
vn 0.5741846 0.8163577 -0.06222617
vn 0.5741846 0.8163577 -0.06222617
vn 0.5741846 0.8163577 -0.06222617
vn 0.5741846 0.8163577 0.06222617
vn 0.5741846 0.8163577 0.06222617
vn -0.8163577 0.5741847 -0.06222569
vn -0.8163577 0.5741847 -0.06222569
vn -0.8163577 0.5741847 -0.06222569
vn -0.8163577 0.5741847 -0.06222569
vn -0.8163577 0.5741847 0.06222569
vn -0.8163577 0.5741847 0.06222569
vn -0.425756 0.9022901 -0.06785572
vn -0.425756 0.9022901 -0.06785572
vn -0.425756 0.9022901 -0.06785572
vn -0.425756 0.9022901 -0.06785572
vn -0.425756 0.9022901 0.06785572
vn -0.425756 0.9022901 0.06785572
vn -0.9022901 -0.4257559 -0.06785616
vn -0.9022901 -0.4257559 -0.06785616
vn -0.9022901 -0.4257559 -0.06785616
vn -0.9022901 -0.4257559 -0.06785616
vn -0.9022901 -0.4257559 0.06785616
vn -0.9022901 -0.4257559 0.06785616
vn 0.4257559 -0.9022901 -0.06785616
vn 0.4257559 -0.9022901 -0.06785616
vn 0.4257559 -0.9022901 -0.06785616
vn 0.4257559 -0.9022901 -0.06785616
vn 0.4257559 -0.9022901 0.06785616
vn 0.4257559 -0.9022901 0.06785616
vn 0.9022901 0.425756 -0.06785572
vn 0.9022901 0.425756 -0.06785572
vn 0.9022901 0.425756 -0.06785572
vn 0.9022901 0.425756 -0.06785572
vn 0.9022901 0.425756 0.06785572
vn 0.9022901 0.425756 0.06785572
g Cylinder012_0
f 3/3/3 2/2/2 1/1/1
f 4/4/4 1/1/1 2/2/2
f 1/1/1 5/5/5 3/3/3
f 6/6/6 3/3/3 5/5/5
f 2/2/2 7/7/7 4/4/4
f 8/8/8 4/4/4 7/7/7
f 11/11/11 10/10/10 9/9/9
f 14/14/14 13/13/13 12/12/12
f 17/17/17 16/16/16 15/15/15
f 20/20/20 19/19/19 18/18/18
f 21/21/21 18/18/18 19/19/19
f 18/18/18 22/22/22 20/20/20
f 23/23/23 20/20/20 22/22/22
f 19/19/19 24/24/24 21/21/21
f 25/25/25 21/21/21 24/24/24
f 28/28/28 27/27/27 26/26/26
f 31/31/31 30/30/30 29/29/29
f 34/34/34 33/33/33 32/32/32
f 37/37/37 36/36/36 35/35/35
f 38/38/38 35/35/35 36/36/36
f 35/35/35 39/39/39 37/37/37
f 40/40/40 37/37/37 39/39/39
f 36/36/36 41/41/41 38/38/38
f 42/42/42 38/38/38 41/41/41
f 45/45/45 44/44/44 43/43/43
f 48/48/48 47/47/47 46/46/46
f 51/51/51 50/50/50 49/49/49
f 54/54/54 53/53/53 52/52/52
f 55/55/55 52/52/52 53/53/53
f 52/52/52 56/56/56 54/54/54
f 57/57/57 54/54/54 56/56/56
f 53/53/53 58/58/58 55/55/55
f 59/59/59 55/55/55 58/58/58
f 62/62/62 61/61/61 60/60/60
f 65/65/65 64/64/64 63/63/63
f 68/68/68 67/67/67 66/66/66
f 71/71/71 70/70/70 69/69/69
f 72/72/72 69/69/69 70/70/70
f 69/69/69 73/73/73 71/71/71
f 74/74/74 71/71/71 73/73/73
f 70/70/70 75/75/75 72/72/72
f 76/76/76 72/72/72 75/75/75
f 79/79/79 78/78/78 77/77/77
f 82/82/82 81/81/81 80/80/80
f 85/85/85 84/84/84 83/83/83
f 88/88/88 87/87/87 86/86/86
f 89/89/89 86/86/86 87/87/87
f 86/86/86 90/90/90 88/88/88
f 91/91/91 88/88/88 90/90/90
f 87/87/87 92/92/92 89/89/89
f 93/93/93 89/89/89 92/92/92
f 96/96/96 95/95/95 94/94/94
f 99/99/99 98/98/98 97/97/97
f 102/102/102 101/101/101 100/100/100
g Cylinder012_1
f 105/105/105 104/104/104 103/103/103
f 106/106/106 103/103/103 104/104/104
f 103/103/103 107/107/107 105/105/105
f 108/108/108 105/105/105 107/107/107
f 107/107/107 109/109/109 108/108/108
f 110/110/110 108/108/108 109/109/109
f 104/104/104 111/111/111 106/106/106
f 112/112/112 106/106/106 111/111/111
f 111/111/111 113/113/113 112/112/112
f 114/114/114 112/112/112 113/113/113
f 113/113/113 115/115/115 114/114/114
f 116/116/116 114/114/114 115/115/115
f 115/115/115 117/117/117 116/116/116
f 118/118/118 116/116/116 117/117/117
f 117/117/117 119/119/119 118/118/118
f 120/120/120 118/118/118 119/119/119
f 123/123/123 122/122/122 121/121/121
f 124/124/124 121/121/121 122/122/122
f 121/121/121 125/125/125 123/123/123
f 126/126/126 123/123/123 125/125/125
f 125/125/125 127/127/127 126/126/126
f 128/128/128 126/126/126 127/127/127
f 122/122/122 129/129/129 124/124/124
f 130/130/130 124/124/124 129/129/129
f 133/133/133 132/132/132 131/131/131
f 134/134/134 131/131/131 132/132/132
f 131/131/131 135/135/135 133/133/133
f 136/136/136 133/133/133 135/135/135
f 135/135/135 137/137/137 136/136/136
f 138/138/138 136/136/136 137/137/137
f 132/132/132 139/139/139 134/134/134
f 140/140/140 134/134/134 139/139/139
f 139/139/139 141/141/141 140/140/140
f 142/142/142 140/140/140 141/141/141
f 141/141/141 143/143/143 142/142/142
f 144/144/144 142/142/142 143/143/143
f 143/143/143 145/145/145 144/144/144
f 146/146/146 144/144/144 145/145/145
f 145/145/145 147/147/147 146/146/146
f 148/148/148 146/146/146 147/147/147
f 151/151/151 150/150/150 149/149/149
f 152/152/152 149/149/149 150/150/150
f 149/149/149 153/153/153 151/151/151
f 154/154/154 151/151/151 153/153/153
f 153/153/153 155/155/155 154/154/154
f 156/156/156 154/154/154 155/155/155
f 150/150/150 157/157/157 152/152/152
f 158/158/158 152/152/152 157/157/157
f 157/157/157 159/159/159 158/158/158
f 160/160/160 158/158/158 159/159/159
f 159/159/159 161/161/161 160/160/160
f 162/162/162 160/160/160 161/161/161
f 161/161/161 163/163/163 162/162/162
f 164/164/164 162/162/162 163/163/163
f 163/163/163 165/165/165 164/164/164
f 166/166/166 164/164/164 165/165/165
f 169/169/169 168/168/168 167/167/167
f 170/170/170 167/167/167 168/168/168
f 167/167/167 171/171/171 169/169/169
f 172/172/172 169/169/169 171/171/171
f 171/171/171 173/173/173 172/172/172
f 174/174/174 172/172/172 173/173/173
f 168/168/168 175/175/175 170/170/170
f 176/176/176 170/170/170 175/175/175
f 175/175/175 177/177/177 176/176/176
f 178/178/178 176/176/176 177/177/177
f 177/177/177 179/179/179 178/178/178
f 180/180/180 178/178/178 179/179/179
f 179/179/179 181/181/181 180/180/180
f 182/182/182 180/180/180 181/181/181
f 181/181/181 183/183/183 182/182/182
f 184/184/184 182/182/182 183/183/183
f 187/187/187 186/186/186 185/185/185
f 186/186/186 188/188/188 185/185/185
f 189/189/189 188/188/188 186/186/186
f 190/190/190 189/189/189 186/186/186
f 193/193/193 192/192/192 191/191/191
f 194/194/194 191/191/191 192/192/192
f 191/191/191 195/195/195 193/193/193
f 196/196/196 193/193/193 195/195/195
f 195/195/195 197/197/197 196/196/196
f 198/198/198 196/196/196 197/197/197
f 192/192/192 199/199/199 194/194/194
f 200/200/200 194/194/194 199/199/199
f 199/199/199 201/201/201 200/200/200
f 202/202/202 200/200/200 201/201/201
f 201/201/201 203/203/203 202/202/202
f 204/204/204 202/202/202 203/203/203
f 203/203/203 205/205/205 204/204/204
f 206/206/206 204/204/204 205/205/205
f 205/205/205 207/207/207 206/206/206
f 208/208/208 206/206/206 207/207/207
f 211/211/211 210/210/210 209/209/209
f 212/212/212 209/209/209 210/210/210
f 209/209/209 213/213/213 211/211/211
f 214/214/214 211/211/211 213/213/213
f 213/213/213 215/215/215 214/214/214
f 216/216/216 214/214/214 215/215/215
f 210/210/210 217/217/217 212/212/212
f 218/218/218 212/212/212 217/217/217
f 221/221/221 220/220/220 219/219/219
f 222/222/222 219/219/219 220/220/220
f 219/219/219 223/223/223 221/221/221
f 224/224/224 221/221/221 223/223/223
f 223/223/223 225/225/225 224/224/224
f 226/226/226 224/224/224 225/225/225
f 220/220/220 227/227/227 222/222/222
f 228/228/228 222/222/222 227/227/227
f 227/227/227 229/229/229 228/228/228
f 230/230/230 228/228/228 229/229/229
f 229/229/229 231/231/231 230/230/230
f 232/232/232 230/230/230 231/231/231
f 231/231/231 233/233/233 232/232/232
f 234/234/234 232/232/232 233/233/233
f 233/233/233 235/235/235 234/234/234
f 236/236/236 234/234/234 235/235/235
f 239/239/239 238/238/238 237/237/237
f 238/238/238 240/240/240 237/237/237
f 241/241/241 240/240/240 238/238/238
f 242/242/242 241/241/241 238/238/238
f 245/245/245 244/244/244 243/243/243
f 246/246/246 243/243/243 244/244/244
f 243/243/243 247/247/247 245/245/245
f 248/248/248 245/245/245 247/247/247
f 247/247/247 249/249/249 248/248/248
f 250/250/250 248/248/248 249/249/249
f 244/244/244 251/251/251 246/246/246
f 252/252/252 246/246/246 251/251/251
f 251/251/251 253/253/253 252/252/252
f 254/254/254 252/252/252 253/253/253
f 253/253/253 255/255/255 254/254/254
f 256/256/256 254/254/254 255/255/255
f 255/255/255 257/257/257 256/256/256
f 258/258/258 256/256/256 257/257/257
f 257/257/257 259/259/259 258/258/258
f 260/260/260 258/258/258 259/259/259
f 263/263/263 262/262/262 261/261/261
f 264/264/264 261/261/261 262/262/262
f 261/261/261 265/265/265 263/263/263
f 266/266/266 263/263/263 265/265/265
f 265/265/265 267/267/267 266/266/266
f 268/268/268 266/266/266 267/267/267
f 262/262/262 269/269/269 264/264/264
f 270/270/270 264/264/264 269/269/269
f 273/273/273 272/272/272 271/271/271
f 274/274/274 271/271/271 272/272/272
f 271/271/271 275/275/275 273/273/273
f 276/276/276 273/273/273 275/275/275
f 275/275/275 277/277/277 276/276/276
f 278/278/278 276/276/276 277/277/277
f 272/272/272 279/279/279 274/274/274
f 280/280/280 274/274/274 279/279/279
f 279/279/279 281/281/281 280/280/280
f 282/282/282 280/280/280 281/281/281
f 281/281/281 283/283/283 282/282/282
f 284/284/284 282/282/282 283/283/283
f 283/283/283 285/285/285 284/284/284
f 286/286/286 284/284/284 285/285/285
f 285/285/285 287/287/287 286/286/286
f 288/288/288 286/286/286 287/287/287
f 291/291/291 290/290/290 289/289/289
f 290/290/290 292/292/292 289/289/289
f 293/293/293 292/292/292 290/290/290
f 294/294/294 293/293/293 290/290/290
f 297/297/297 296/296/296 295/295/295
f 298/298/298 295/295/295 296/296/296
f 295/295/295 299/299/299 297/297/297
f 300/300/300 297/297/297 299/299/299
f 299/299/299 301/301/301 300/300/300
f 302/302/302 300/300/300 301/301/301
f 296/296/296 303/303/303 298/298/298
f 304/304/304 298/298/298 303/303/303
f 303/303/303 305/305/305 304/304/304
f 306/306/306 304/304/304 305/305/305
f 305/305/305 307/307/307 306/306/306
f 308/308/308 306/306/306 307/307/307
f 307/307/307 309/309/309 308/308/308
f 310/310/310 308/308/308 309/309/309
f 309/309/309 311/311/311 310/310/310
f 312/312/312 310/310/310 311/311/311
f 315/315/315 314/314/314 313/313/313
f 316/316/316 313/313/313 314/314/314
f 313/313/313 317/317/317 315/315/315
f 318/318/318 315/315/315 317/317/317
f 317/317/317 319/319/319 318/318/318
f 320/320/320 318/318/318 319/319/319
f 314/314/314 321/321/321 316/316/316
f 322/322/322 316/316/316 321/321/321
f 325/325/325 324/324/324 323/323/323
f 326/326/326 323/323/323 324/324/324
f 323/323/323 327/327/327 325/325/325
f 328/328/328 325/325/325 327/327/327
f 327/327/327 329/329/329 328/328/328
f 330/330/330 328/328/328 329/329/329
f 324/324/324 331/331/331 326/326/326
f 332/332/332 326/326/326 331/331/331
f 331/331/331 333/333/333 332/332/332
f 334/334/334 332/332/332 333/333/333
f 333/333/333 335/335/335 334/334/334
f 336/336/336 334/334/334 335/335/335
f 335/335/335 337/337/337 336/336/336
f 338/338/338 336/336/336 337/337/337
f 337/337/337 339/339/339 338/338/338
f 340/340/340 338/338/338 339/339/339
f 343/343/343 342/342/342 341/341/341
f 342/342/342 344/344/344 341/341/341
f 345/345/345 344/344/344 342/342/342
f 346/346/346 345/345/345 342/342/342
f 349/349/349 348/348/348 347/347/347
f 350/350/350 347/347/347 348/348/348
f 347/347/347 351/351/351 349/349/349
f 352/352/352 349/349/349 351/351/351
f 351/351/351 353/353/353 352/352/352
f 354/354/354 352/352/352 353/353/353
f 348/348/348 355/355/355 350/350/350
f 356/356/356 350/350/350 355/355/355
f 355/355/355 357/357/357 356/356/356
f 358/358/358 356/356/356 357/357/357
f 357/357/357 359/359/359 358/358/358
f 360/360/360 358/358/358 359/359/359
f 359/359/359 361/361/361 360/360/360
f 362/362/362 360/360/360 361/361/361
f 361/361/361 363/363/363 362/362/362
f 364/364/364 362/362/362 363/363/363
f 367/367/367 366/366/366 365/365/365
f 368/368/368 365/365/365 366/366/366
f 365/365/365 369/369/369 367/367/367
f 370/370/370 367/367/367 369/369/369
f 369/369/369 371/371/371 370/370/370
f 372/372/372 370/370/370 371/371/371
f 366/366/366 373/373/373 368/368/368
f 374/374/374 368/368/368 373/373/373
f 377/377/377 376/376/376 375/375/375
f 378/378/378 375/375/375 376/376/376
f 375/375/375 379/379/379 377/377/377
f 380/380/380 377/377/377 379/379/379
f 379/379/379 381/381/381 380/380/380
f 382/382/382 380/380/380 381/381/381
f 376/376/376 383/383/383 378/378/378
f 384/384/384 378/378/378 383/383/383
f 383/383/383 385/385/385 384/384/384
f 386/386/386 384/384/384 385/385/385
f 385/385/385 387/387/387 386/386/386
f 388/388/388 386/386/386 387/387/387
f 387/387/387 389/389/389 388/388/388
f 390/390/390 388/388/388 389/389/389
f 389/389/389 391/391/391 390/390/390
f 392/392/392 390/390/390 391/391/391
f 395/395/395 394/394/394 393/393/393
f 394/394/394 396/396/396 393/393/393
f 397/397/397 396/396/396 394/394/394
f 398/398/398 397/397/397 394/394/394
f 401/401/401 400/400/400 399/399/399
f 402/402/402 399/399/399 400/400/400
f 399/399/399 403/403/403 401/401/401
f 404/404/404 401/401/401 403/403/403
f 403/403/403 405/405/405 404/404/404
f 406/406/406 404/404/404 405/405/405
f 400/400/400 407/407/407 402/402/402
f 408/408/408 402/402/402 407/407/407
f 411/411/411 410/410/410 409/409/409
f 410/410/410 412/412/412 409/409/409
f 413/413/413 412/412/412 410/410/410
f 414/414/414 413/413/413 410/410/410
f 417/417/417 416/416/416 415/415/415
f 418/418/418 417/417/417 415/415/415
f 419/419/419 416/416/416 417/417/417
f 420/420/420 416/416/416 419/419/419
g Cylinder012_2
f 423/423/423 422/422/422 421/421/421
f 424/424/424 421/421/421 422/422/422
f 423/423/423 425/425/425 422/422/422
f 426/426/426 422/422/422 425/425/425
f 429/429/429 428/428/428 427/427/427
f 430/430/430 427/427/427 428/428/428
f 429/429/429 431/431/431 428/428/428
f 432/432/432 428/428/428 431/431/431
f 435/435/435 434/434/434 433/433/433
f 436/436/436 433/433/433 434/434/434
f 435/435/435 437/437/437 434/434/434
f 438/438/438 434/434/434 437/437/437
f 441/441/441 440/440/440 439/439/439
f 442/442/442 439/439/439 440/440/440
f 441/441/441 443/443/443 440/440/440
f 444/444/444 440/440/440 443/443/443
f 447/447/447 446/446/446 445/445/445
f 448/448/448 445/445/445 446/446/446
f 447/447/447 449/449/449 446/446/446
f 450/450/450 446/446/446 449/449/449
f 453/453/453 452/452/452 451/451/451
f 454/454/454 451/451/451 452/452/452
f 453/453/453 455/455/455 452/452/452
f 456/456/456 452/452/452 455/455/455
f 459/459/459 458/458/458 457/457/457
f 460/460/460 457/457/457 458/458/458
f 459/459/459 461/461/461 458/458/458
f 462/462/462 458/458/458 461/461/461
f 465/465/465 464/464/464 463/463/463
f 466/466/466 463/463/463 464/464/464
f 465/465/465 467/467/467 464/464/464
f 468/468/468 464/464/464 467/467/467
f 471/471/471 470/470/470 469/469/469
f 472/472/472 469/469/469 470/470/470
f 471/471/471 473/473/473 470/470/470
f 474/474/474 470/470/470 473/473/473
f 477/477/477 476/476/476 475/475/475
f 478/478/478 475/475/475 476/476/476
f 477/477/477 479/479/479 476/476/476
f 480/480/480 476/476/476 479/479/479
f 483/483/483 482/482/482 481/481/481
f 484/484/484 481/481/481 482/482/482
f 483/483/483 485/485/485 482/482/482
f 486/486/486 482/482/482 485/485/485
f 489/489/489 488/488/488 487/487/487
f 490/490/490 487/487/487 488/488/488
f 489/489/489 491/491/491 488/488/488
f 492/492/492 488/488/488 491/491/491
f 495/495/495 494/494/494 493/493/493
f 496/496/496 493/493/493 494/494/494
f 495/495/495 497/497/497 494/494/494
f 498/498/498 494/494/494 497/497/497
f 501/501/501 500/500/500 499/499/499
f 502/502/502 499/499/499 500/500/500
f 501/501/501 503/503/503 500/500/500
f 504/504/504 500/500/500 503/503/503
f 507/507/507 506/506/506 505/505/505
f 508/508/508 505/505/505 506/506/506
f 507/507/507 509/509/509 506/506/506
f 510/510/510 506/506/506 509/509/509
f 513/513/513 512/512/512 511/511/511
f 514/514/514 511/511/511 512/512/512
f 513/513/513 515/515/515 512/512/512
f 516/516/516 512/512/512 515/515/515
f 519/519/519 518/518/518 517/517/517
f 520/520/520 517/517/517 518/518/518
f 519/519/519 521/521/521 518/518/518
f 522/522/522 518/518/518 521/521/521
f 525/525/525 524/524/524 523/523/523
f 526/526/526 523/523/523 524/524/524
f 525/525/525 527/527/527 524/524/524
f 528/528/528 524/524/524 527/527/527
f 531/531/531 530/530/530 529/529/529
f 532/532/532 529/529/529 530/530/530
f 531/531/531 533/533/533 530/530/530
f 534/534/534 530/530/530 533/533/533
f 537/537/537 536/536/536 535/535/535
f 538/538/538 535/535/535 536/536/536
f 537/537/537 539/539/539 536/536/536
f 540/540/540 536/536/536 539/539/539
f 543/543/543 542/542/542 541/541/541
f 544/544/544 541/541/541 542/542/542
f 543/543/543 545/545/545 542/542/542
f 546/546/546 542/542/542 545/545/545
f 549/549/549 548/548/548 547/547/547
f 550/550/550 547/547/547 548/548/548
f 549/549/549 551/551/551 548/548/548
f 552/552/552 548/548/548 551/551/551
f 555/555/555 554/554/554 553/553/553
f 556/556/556 553/553/553 554/554/554
f 555/555/555 557/557/557 554/554/554
f 558/558/558 554/554/554 557/557/557
f 561/561/561 560/560/560 559/559/559
f 562/562/562 559/559/559 560/560/560
f 561/561/561 563/563/563 560/560/560
f 564/564/564 560/560/560 563/563/563
