g Cylinder019
v 0.5315843 -3.695488E-06 -0.1134103
v 0.5093712 0.2940732 0.5015085
v 0.460367 0.2657996 -0.1134103
v 0.5881576 -3.695488E-06 0.5015085
v 0.2940806 0.5093638 0.5015085
v 0.265781 0.4603596 -0.1134103
v 3.695488E-06 0.5881502 0.5015085
v 3.695488E-06 0.5315769 -0.1134103
v 0.460367 -0.265781 -0.1134103
v 0.5093712 -0.2940806 0.5015085
v 0.265781 -0.460367 -0.1134103
v 0.2940806 -0.5093712 0.5015085
v 3.695488E-06 -0.5315843 -0.1134103
v 3.695488E-06 -0.5881576 0.5015085
v -0.2657996 -0.460367 -0.1134103
v -0.2940732 -0.5093712 0.5015085
v -0.4603596 -0.265781 -0.1134103
v -0.5093638 -0.2940806 0.5015085
v -0.5315769 -3.695488E-06 -0.1134103
v -0.5881502 -3.695488E-06 0.5015085
v -0.4603596 0.2657996 -0.1134103
v -0.5093638 0.2940732 0.5015085
v -0.2657996 0.4603596 -0.1134103
v -0.2940732 0.5093638 0.5015085
v 3.695488E-06 0.5315769 -0.1134103
v 3.695488E-06 0.5881502 0.5015085
v -0.2657996 0.4603596 1.116453
v 3.695488E-06 0.5315769 1.116453
v -0.4603596 0.2657996 1.116453
v -0.5315769 -3.695488E-06 1.116453
v -0.4603596 -0.265781 1.116453
v -0.2657996 -0.460367 1.116453
v 3.695488E-06 -0.5315843 1.116453
v 0.265781 -0.460367 1.116453
v 0.460367 -0.265781 1.116453
v 0.5315843 -3.695488E-06 1.116453
v 0.460367 0.2657996 1.116453
v 0.265781 0.4603596 1.116453
v 3.695488E-06 0.5315769 1.116453
v 0.265781 -0.460367 -0.1134103
v -0.2657996 -0.460367 -0.1134103
v 3.695488E-06 -0.5315843 -0.1134103
v 0.5315843 -3.695488E-06 -0.1134103
v -0.2657996 0.4603596 -0.1134103
v -0.5315769 -3.695488E-06 -0.1134103
v -0.4603596 -0.265781 -0.1134103
v -0.4603596 0.2657996 -0.1134103
v 0.265781 0.4603596 -0.1134103
v 3.695488E-06 0.5315769 -0.1134103
v 0.460367 0.2657996 -0.1134103
v 0.460367 -0.265781 -0.1134103
v 0.460367 0.2657996 1.116453
v 3.695488E-06 0.5315769 1.116453
v 0.265781 0.4603596 1.116453
v 0.460367 -0.265781 1.116453
v -0.4603596 -0.265781 1.116453
v -0.4603596 0.2657996 1.116453
v -0.2657996 0.4603596 1.116453
v -0.5315769 -3.695488E-06 1.116453
v 3.695488E-06 -0.5315843 1.116453
v -0.2657996 -0.460367 1.116453
v 0.265781 -0.460367 1.116453
v 0.5315843 -3.695488E-06 1.116453
vn 0.9921493 0.003921628 -0.1249976
vn 0.8666601 0.4980354 -0.02934388
vn 0.858817 0.4980354 -0.1199755
vn 0.9999924 0.003921628 0
vn 0.4980354 0.8666601 -0.02934262
vn 0.4980354 0.858817 -0.1199757
vn -0.003921628 0.9999924 0
vn -0.003921628 0.9921494 -0.1249971
vn 0.858817 -0.4980354 -0.1199757
vn 0.8666601 -0.4980354 -0.0293449
vn 0.4980354 -0.858817 -0.1199757
vn 0.4980354 -0.8666601 -0.02934465
vn -0.003921628 -0.9921493 -0.1249976
vn -0.003921628 -0.9999924 0
vn -0.4980354 -0.858817 -0.1199754
vn -0.4980354 -0.8666601 -0.02934363
vn -0.858817 -0.4980354 -0.1199757
vn -0.8666601 -0.4980354 -0.02934287
vn -0.9921494 0.003921628 -0.1249971
vn -0.9999924 0.003921628 0
vn -0.858817 0.4980354 -0.1199755
vn -0.8666601 0.4980354 -0.02934185
vn -0.4980354 0.858817 -0.1199754
vn -0.4980354 0.8666601 -0.0293416
vn -0.003921628 0.9921494 -0.1249971
vn -0.003921628 0.9999924 0
vn -0.4980354 0.858817 0.1199754
vn -0.003921628 0.9921494 0.1249971
vn -0.858817 0.4980354 0.1199755
vn -0.9921494 0.003921628 0.1249971
vn -0.858817 -0.4980354 0.1199757
vn -0.4980354 -0.858817 0.1199754
vn -0.003921628 -0.9921493 0.1249976
vn 0.4980354 -0.858817 0.1199757
vn 0.858817 -0.4980354 0.1199757
vn 0.9921493 0.003921628 0.1249976
vn 0.858817 0.4980354 0.1199755
vn 0.4980354 0.858817 0.1199757
vn -0.003921628 0.9921494 0.1249971
vn -0.003921628 0.003921628 -0.9999846
vn -0.003921628 0.003921628 -0.9999846
vn -0.003921628 0.003921628 -0.9999846
vn -0.003921628 0.003921628 -0.9999846
vn -0.003921628 0.003921628 -0.9999846
vn -0.003921628 0.003921628 -0.9999846
vn -0.003921628 0.003921628 -0.9999846
vn -0.003921628 0.003921628 -0.9999846
vn -0.003921628 0.003921628 -0.9999846
vn -0.003921628 0.003921628 -0.9999846
vn -0.003921628 0.003921628 -0.9999846
vn -0.003921628 0.003921628 -0.9999846
vn -0.003921628 0.003921628 0.9999846
vn -0.003921628 0.003921628 0.9999846
vn -0.003921628 0.003921628 0.9999846
vn -0.003921628 0.003921628 0.9999846
vn -0.003921628 0.003921628 0.9999846
vn -0.003921628 0.003921628 0.9999846
vn -0.003921628 0.003921628 0.9999846
vn -0.003921628 0.003921628 0.9999846
vn -0.003921628 0.003921628 0.9999846
vn -0.003921628 0.003921628 0.9999846
vn -0.003921628 0.003921628 0.9999846
vn -0.003921628 0.003921628 0.9999846
g Cylinder019_0
f 3/3/3 2/2/2 1/1/1
f 4/4/4 1/1/1 2/2/2
f 2/2/2 3/3/3 5/5/5
f 6/6/6 5/5/5 3/3/3
f 5/5/5 6/6/6 7/7/7
f 8/8/8 7/7/7 6/6/6
f 1/1/1 4/4/4 9/9/9
f 10/10/10 9/9/9 4/4/4
f 9/9/9 10/10/10 11/11/11
f 12/12/12 11/11/11 10/10/10
f 11/11/11 12/12/12 13/13/13
f 14/14/14 13/13/13 12/12/12
f 13/13/13 14/14/14 15/15/15
f 16/16/16 15/15/15 14/14/14
f 15/15/15 16/16/16 17/17/17
f 18/18/18 17/17/17 16/16/16
f 17/17/17 18/18/18 19/19/19
f 20/20/20 19/19/19 18/18/18
f 19/19/19 20/20/20 21/21/21
f 22/22/22 21/21/21 20/20/20
f 21/21/21 22/22/22 23/23/23
f 24/24/24 23/23/23 22/22/22
f 23/23/23 24/24/24 25/25/25
f 26/26/26 25/25/25 24/24/24
f 24/24/24 27/27/27 26/26/26
f 28/28/28 26/26/26 27/27/27
f 22/22/22 29/29/29 24/24/24
f 27/27/27 24/24/24 29/29/29
f 20/20/20 30/30/30 22/22/22
f 29/29/29 22/22/22 30/30/30
f 18/18/18 31/31/31 20/20/20
f 30/30/30 20/20/20 31/31/31
f 16/16/16 32/32/32 18/18/18
f 31/31/31 18/18/18 32/32/32
f 32/32/32 16/16/16 33/33/33
f 14/14/14 33/33/33 16/16/16
f 33/33/33 14/14/14 34/34/34
f 12/12/12 34/34/34 14/14/14
f 34/34/34 12/12/12 35/35/35
f 10/10/10 35/35/35 12/12/12
f 35/35/35 10/10/10 36/36/36
f 4/4/4 36/36/36 10/10/10
f 36/36/36 4/4/4 37/37/37
f 2/2/2 37/37/37 4/4/4
f 37/37/37 2/2/2 38/38/38
f 5/5/5 38/38/38 2/2/2
f 38/38/38 5/5/5 39/39/39
f 7/7/7 39/39/39 5/5/5
f 42/42/42 41/41/41 40/40/40
f 41/41/41 43/43/43 40/40/40
f 44/44/44 43/43/43 41/41/41
f 45/45/45 44/44/44 41/41/41
f 46/46/46 45/45/45 41/41/41
f 47/47/47 44/44/44 45/45/45
f 48/48/48 43/43/43 44/44/44
f 49/49/49 48/48/48 44/44/44
f 50/50/50 43/43/43 48/48/48
f 40/40/40 43/43/43 51/51/51
f 54/54/54 53/53/53 52/52/52
f 53/53/53 55/55/55 52/52/52
f 56/56/56 55/55/55 53/53/53
f 57/57/57 56/56/56 53/53/53
f 58/58/58 57/57/57 53/53/53
f 59/59/59 56/56/56 57/57/57
f 60/60/60 55/55/55 56/56/56
f 61/61/61 60/60/60 56/56/56
f 62/62/62 55/55/55 60/60/60
f 52/52/52 55/55/55 63/63/63
