g Cylinder001
v 0.454394 -2.682209E-07 -2.682209E-07
v 0.454394 -2.682209E-07 0.7626525
v 0.3646035 0.08899167 0.739866
v 0.3212961 0.3213141 -2.682209E-07
v 0.3212961 0.3213141 0.7626525
v 0.1948837 0.3207384 0.739866
v 2.682209E-07 0.4543935 -2.682209E-07
v 2.682209E-07 0.4543935 0.7626525
v -0.08899167 0.364603 0.739866
v -0.3213141 0.3213141 -2.682209E-07
v -0.3213141 0.3213141 0.7626525
v -0.3207384 0.1948832 0.739866
v -0.4543935 -2.682209E-07 -2.682209E-07
v -0.4543935 -2.682209E-07 0.7626525
v -0.364603 -0.08899221 0.739866
v -0.3213141 -0.3212961 -2.682209E-07
v -0.3213141 -0.3212961 0.7626525
v -0.1948832 -0.320739 0.739866
v 2.682209E-07 -0.454394 -2.682209E-07
v 2.682209E-07 -0.454394 0.7626525
v 0.08899221 -0.3646035 0.739866
v 0.3212961 -0.3212961 -2.682209E-07
v 0.3212961 -0.3212961 0.7626525
v 0.320739 -0.1948837 0.739866
v 0.2971539 -2.682209E-07 0.6890002
v 0.2101304 -0.2101304 0.6890002
v 0.2101304 0.2101299 0.6890002
v -0.2101299 0.2101299 0.6890002
v 2.682209E-07 0.2971533 0.6890002
v -0.2101299 -0.2101304 0.6890002
v -0.2971533 -2.682209E-07 0.6890002
v 2.682209E-07 -0.2971539 0.6890002
v 0.454394 -2.682209E-07 0.7626525
v 0.363285 -2.682209E-07 0.7626525
v 0.3646035 0.08899167 0.739866
v 0.3212961 0.3213141 0.7626525
v 0.2568921 0.2568916 0.7626525
v 0.1948837 0.3207384 0.739866
v 2.682209E-07 0.4543935 0.7626525
v 2.682209E-07 0.3632844 0.7626525
v -0.08899167 0.364603 0.739866
v -0.3213141 0.3213141 0.7626525
v -0.2568916 0.2568916 0.7626525
v -0.3207384 0.1948832 0.739866
v -0.4543935 -2.682209E-07 0.7626525
v -0.3632844 -2.682209E-07 0.7626525
v -0.364603 -0.08899221 0.739866
v -0.3213141 -0.3212961 0.7626525
v -0.2568916 -0.2568921 0.7626525
v -0.1948832 -0.320739 0.739866
v 2.682209E-07 -0.454394 0.7626525
v 2.682209E-07 -0.363285 0.7626525
v 0.08899221 -0.3646035 0.739866
v 0.3212961 -0.3212961 0.7626525
v 0.2568921 -0.2568921 0.7626525
v 0.320739 -0.1948837 0.739866
v 0.363285 -2.682209E-07 0.7626525
v 0.2971539 -2.682209E-07 0.6890002
v 0.3138492 0.06887934 0.7426145
v 0.2568921 0.2568916 0.7626525
v 0.2101304 0.2101299 0.6890002
v 0.17323 0.2706341 0.7426145
v 2.682209E-07 0.3632844 0.7626525
v 2.682209E-07 0.2971533 0.6890002
v -0.06887934 0.3138672 0.7426145
v -0.2568916 0.2568916 0.7626525
v -0.2101299 0.2101299 0.6890002
v -0.2706341 0.1732294 0.7426145
v -0.3632844 -2.682209E-07 0.7626525
v -0.2971533 -2.682209E-07 0.6890002
v -0.3138672 -0.0688799 0.7426145
v -0.2568916 -0.2568921 0.7626525
v -0.2101299 -0.2101304 0.6890002
v -0.1732294 -0.2706346 0.7426145
v 2.682209E-07 -0.363285 0.7626525
v 2.682209E-07 -0.2971539 0.6890002
v 0.0688799 -0.3138492 0.7426145
v 0.2568921 -0.2568921 0.7626525
v 0.2101304 -0.2101304 0.6890002
v 0.2706346 -0.17323 0.7426145
v 0.320739 0.1948832 0.739866
v 0.2706346 0.1732294 0.7426145
v 0.2568921 0.2568916 0.7626525
v 0.08899221 0.364603 0.739866
v 0.0688799 0.3138672 0.7426145
v 2.682209E-07 0.3632844 0.7626525
v -0.1948832 0.3207384 0.739866
v -0.1732294 0.2706341 0.7426145
v -0.2568916 0.2568916 0.7626525
v -0.364603 0.08899167 0.739866
v -0.3138672 0.06887934 0.7426145
v -0.3632844 -2.682209E-07 0.7626525
v -0.3207384 -0.1948837 0.739866
v -0.2706341 -0.17323 0.7426145
v -0.2568916 -0.2568921 0.7626525
v -0.08899167 -0.3646035 0.739866
v -0.06887934 -0.3138492 0.7426145
v 2.682209E-07 -0.363285 0.7626525
v 0.1948837 -0.320739 0.739866
v 0.17323 -0.2706346 0.7426145
v 0.2568921 -0.2568921 0.7626525
v 0.3646035 -0.08899221 0.739866
v 0.3138492 -0.0688799 0.7426145
v 0.363285 -2.682209E-07 0.7626525
v 0.3646035 0.08899167 0.739866
v 0.3138492 0.06887934 0.7426145
v 0.2706346 0.1732294 0.7426145
v 0.1948837 0.3207384 0.739866
v 0.17323 0.2706341 0.7426145
v 0.0688799 0.3138672 0.7426145
v -0.08899167 0.364603 0.739866
v -0.06887934 0.3138672 0.7426145
v -0.1732294 0.2706341 0.7426145
v -0.3207384 0.1948832 0.739866
v -0.2706341 0.1732294 0.7426145
v -0.3138672 0.06887934 0.7426145
v -0.364603 -0.08899221 0.739866
v -0.3138672 -0.0688799 0.7426145
v -0.2706341 -0.17323 0.7426145
v -0.1948832 -0.320739 0.739866
v -0.1732294 -0.2706346 0.7426145
v -0.06887934 -0.3138492 0.7426145
v 0.08899221 -0.3646035 0.739866
v 0.0688799 -0.3138492 0.7426145
v 0.17323 -0.2706346 0.7426145
v 0.320739 -0.1948837 0.739866
v 0.2706346 -0.17323 0.7426145
v 0.3138492 -0.0688799 0.7426145
v 0.3212961 -0.3212961 -2.682209E-07
v 0.320739 -0.1948837 0.739866
v 0.454394 -2.682209E-07 -2.682209E-07
v 0.3646035 -0.08899221 0.739866
v 0.454394 -2.682209E-07 -2.682209E-07
v 0.3646035 -0.08899221 0.739866
v 0.454394 -2.682209E-07 0.7626525
v 0.454394 -2.682209E-07 -2.682209E-07
v 0.3646035 0.08899167 0.739866
v 0.3212961 0.3213141 -2.682209E-07
v 0.320739 0.1948832 0.739866
v 0.3212961 0.3213141 -2.682209E-07
v 0.320739 0.1948832 0.739866
v 0.3212961 0.3213141 0.7626525
v 0.3212961 0.3213141 -2.682209E-07
v 0.1948837 0.3207384 0.739866
v 2.682209E-07 0.4543935 -2.682209E-07
v 0.08899221 0.364603 0.739866
v 2.682209E-07 0.4543935 -2.682209E-07
v -0.08899167 0.364603 0.739866
v -0.3213141 0.3213141 -2.682209E-07
v -0.1948832 0.3207384 0.739866
v 2.682209E-07 0.4543935 -2.682209E-07
v 0.08899221 0.364603 0.739866
v 2.682209E-07 0.4543935 0.7626525
v -0.3213141 0.3213141 -2.682209E-07
v -0.3207384 0.1948832 0.739866
v -0.4543935 -2.682209E-07 -2.682209E-07
v -0.364603 0.08899167 0.739866
v -0.3207384 0.1948832 0.739866
v -0.2568916 0.2568916 0.7626525
v -0.2706341 0.1732294 0.7426145
v -0.1948832 0.3207384 0.739866
v -0.2568916 0.2568916 0.7626525
v -0.3213141 0.3213141 0.7626525
v -0.3213141 0.3213141 -2.682209E-07
v -0.1948832 0.3207384 0.739866
v -0.3213141 0.3213141 0.7626525
v -0.4543935 -2.682209E-07 -2.682209E-07
v -0.364603 -0.08899221 0.739866
v -0.3213141 -0.3212961 -2.682209E-07
v -0.3207384 -0.1948837 0.739866
v -0.364603 -0.08899221 0.739866
v -0.3632844 -2.682209E-07 0.7626525
v -0.3138672 -0.0688799 0.7426145
v -0.364603 0.08899167 0.739866
v -0.3632844 -2.682209E-07 0.7626525
v -0.4543935 -2.682209E-07 0.7626525
v -0.4543935 -2.682209E-07 -2.682209E-07
v -0.364603 0.08899167 0.739866
v -0.4543935 -2.682209E-07 0.7626525
v -0.3213141 -0.3212961 -2.682209E-07
v -0.1948832 -0.320739 0.739866
v 2.682209E-07 -0.454394 -2.682209E-07
v -0.08899167 -0.3646035 0.739866
v -0.1948832 -0.320739 0.739866
v -0.2568916 -0.2568921 0.7626525
v -0.1732294 -0.2706346 0.7426145
v -0.3207384 -0.1948837 0.739866
v -0.2568916 -0.2568921 0.7626525
v -0.3213141 -0.3212961 0.7626525
v -0.3213141 -0.3212961 -2.682209E-07
v -0.3207384 -0.1948837 0.739866
v -0.3213141 -0.3212961 0.7626525
v 2.682209E-07 -0.454394 -2.682209E-07
v 0.08899221 -0.3646035 0.739866
v 0.3212961 -0.3212961 -2.682209E-07
v 0.1948837 -0.320739 0.739866
v 0.08899221 -0.3646035 0.739866
v 2.682209E-07 -0.363285 0.7626525
v 0.0688799 -0.3138492 0.7426145
v -0.08899167 -0.3646035 0.739866
v 2.682209E-07 -0.363285 0.7626525
v 2.682209E-07 -0.454394 0.7626525
v 2.682209E-07 -0.454394 -2.682209E-07
v -0.08899167 -0.3646035 0.739866
v 2.682209E-07 -0.454394 0.7626525
v 0.320739 -0.1948837 0.739866
v 0.2568921 -0.2568921 0.7626525
v 0.2706346 -0.17323 0.7426145
v 0.1948837 -0.320739 0.739866
v 0.2568921 -0.2568921 0.7626525
v 0.3212961 -0.3212961 0.7626525
v 0.3212961 -0.3212961 -2.682209E-07
v 0.1948837 -0.320739 0.739866
v 0.3212961 -0.3212961 0.7626525
v 0.3646035 0.08899167 0.739866
v 0.363285 -2.682209E-07 0.7626525
v 0.3138492 0.06887934 0.7426145
v 0.3646035 -0.08899221 0.739866
v 0.363285 -2.682209E-07 0.7626525
v 0.454394 -2.682209E-07 0.7626525
v 0.1948837 0.3207384 0.739866
v 0.2568921 0.2568916 0.7626525
v 0.17323 0.2706341 0.7426145
v 0.320739 0.1948832 0.739866
v 0.2568921 0.2568916 0.7626525
v 0.3212961 0.3213141 0.7626525
v 0.08899221 0.364603 0.739866
v 2.682209E-07 0.3632844 0.7626525
v 2.682209E-07 0.4543935 0.7626525
v -0.08899167 0.364603 0.739866
v 2.682209E-07 0.3632844 0.7626525
v -0.06887934 0.3138672 0.7426145
v -0.3138672 0.06887934 0.7426145
v -0.2971533 -2.682209E-07 0.6890002
v -0.3632844 -2.682209E-07 0.7626525
v -0.2706341 0.1732294 0.7426145
v -0.2101299 0.2101299 0.6890002
v -0.3138672 0.06887934 0.7426145
v -0.1732294 0.2706341 0.7426145
v -0.2101299 0.2101299 0.6890002
v -0.2568916 0.2568916 0.7626525
v 0.0688799 0.3138672 0.7426145
v 2.682209E-07 0.2971533 0.6890002
v 2.682209E-07 0.3632844 0.7626525
v -0.06887934 0.3138672 0.7426145
v 2.682209E-07 0.2971533 0.6890002
v -0.2101299 0.2101299 0.6890002
v 0.2706346 0.1732294 0.7426145
v 0.2101304 0.2101299 0.6890002
v 0.2568921 0.2568916 0.7626525
v 0.17323 0.2706341 0.7426145
v 0.2101304 0.2101299 0.6890002
v 0.0688799 0.3138672 0.7426145
v 0.3138492 0.06887934 0.7426145
v 0.2971539 -2.682209E-07 0.6890002
v 0.2706346 0.1732294 0.7426145
v 0.3138492 -0.0688799 0.7426145
v 0.2971539 -2.682209E-07 0.6890002
v 0.363285 -2.682209E-07 0.7626525
v 0.17323 -0.2706346 0.7426145
v 0.2101304 -0.2101304 0.6890002
v 0.2568921 -0.2568921 0.7626525
v 0.2706346 -0.17323 0.7426145
v 0.2101304 -0.2101304 0.6890002
v 0.3138492 -0.0688799 0.7426145
v -0.06887934 -0.3138492 0.7426145
v 2.682209E-07 -0.2971539 0.6890002
v 2.682209E-07 -0.363285 0.7626525
v 0.0688799 -0.3138492 0.7426145
v 2.682209E-07 -0.2971539 0.6890002
v 0.17323 -0.2706346 0.7426145
v -0.2706341 -0.17323 0.7426145
v -0.2101299 -0.2101304 0.6890002
v -0.2568916 -0.2568921 0.7626525
v -0.1732294 -0.2706346 0.7426145
v -0.2101299 -0.2101304 0.6890002
v -0.06887934 -0.3138492 0.7426145
v -0.3138672 -0.0688799 0.7426145
v -0.2971533 -2.682209E-07 0.6890002
v -0.2706341 -0.17323 0.7426145
v 0.3646035 0.08899167 0.739866
v 0.2706346 0.1732294 0.7426145
v 0.320739 0.1948832 0.739866
v 0.1948837 0.3207384 0.739866
v 0.0688799 0.3138672 0.7426145
v 0.08899221 0.364603 0.739866
v -0.08899167 0.364603 0.739866
v -0.1732294 0.2706341 0.7426145
v -0.1948832 0.3207384 0.739866
v -0.3207384 0.1948832 0.739866
v -0.3138672 0.06887934 0.7426145
v -0.364603 0.08899167 0.739866
v -0.364603 -0.08899221 0.739866
v -0.2706341 -0.17323 0.7426145
v -0.3207384 -0.1948837 0.739866
v -0.1948832 -0.320739 0.739866
v -0.06887934 -0.3138492 0.7426145
v -0.08899167 -0.3646035 0.739866
v 0.08899221 -0.3646035 0.739866
v 0.17323 -0.2706346 0.7426145
v 0.1948837 -0.320739 0.739866
v 0.320739 -0.1948837 0.739866
v 0.3138492 -0.0688799 0.7426145
v 0.3646035 -0.08899221 0.739866
v -0.3138672 0.06887934 0.7426145
v -0.2101299 0.2101299 0.6890002
v -0.2971533 -2.682209E-07 0.6890002
v -0.06887934 0.3138672 0.7426145
v -0.2101299 0.2101299 0.6890002
v -0.1732294 0.2706341 0.7426145
v 0.0688799 0.3138672 0.7426145
v 0.2101304 0.2101299 0.6890002
v 2.682209E-07 0.2971533 0.6890002
v 0.2706346 0.1732294 0.7426145
v 0.2971539 -2.682209E-07 0.6890002
v 0.2101304 0.2101299 0.6890002
v 0.3138492 -0.0688799 0.7426145
v 0.2101304 -0.2101304 0.6890002
v 0.2971539 -2.682209E-07 0.6890002
v 0.17323 -0.2706346 0.7426145
v 2.682209E-07 -0.2971539 0.6890002
v 0.2101304 -0.2101304 0.6890002
v -0.06887934 -0.3138492 0.7426145
v -0.2101299 -0.2101304 0.6890002
v 2.682209E-07 -0.2971539 0.6890002
v -0.2706341 -0.17323 0.7426145
v -0.2971533 -2.682209E-07 0.6890002
v -0.2101299 -0.2101304 0.6890002
vn 0.7019539 0.709797 -0.05872838
vn 0.7019539 0.709797 -0.05872838
vn 0.7019539 0.709797 -0.05872838
vn -0.003921568 0.9999902 -0.002071602
vn -0.003921568 0.9999902 -0.002071602
vn -0.003921568 0.9999902 -0.002071602
vn -0.709797 0.7019539 -0.05872762
vn -0.709797 0.7019539 -0.05872762
vn -0.709797 0.7019539 -0.05872762
vn -0.9999902 -0.003921509 -0.002071546
vn -0.9999902 -0.003921509 -0.002071546
vn -0.9999902 -0.003921509 -0.002071546
vn -0.7019539 -0.7097969 -0.05872838
vn -0.7019539 -0.7097969 -0.05872838
vn -0.7019539 -0.7097969 -0.05872838
vn 0.003921509 -0.9999902 -0.002071602
vn 0.003921509 -0.9999902 -0.002071602
vn 0.003921509 -0.9999902 -0.002071602
vn 0.7097969 -0.7019539 -0.05872889
vn 0.7097969 -0.7019539 -0.05872889
vn 0.7097969 -0.7019539 -0.05872889
vn 0.9999902 0.003921568 -0.002071433
vn 0.9999902 0.003921568 -0.002071433
vn 0.9999902 0.003921568 -0.002071433
vn -0.003921568 0.003921568 0.9999846
vn -0.003921568 0.003921568 0.9999846
vn -0.003921568 0.003921568 0.9999846
vn -0.003921568 0.003921568 0.9999846
vn -0.003921568 0.003921568 0.9999846
vn -0.003921568 0.003921568 0.9999846
vn -0.003921568 0.003921568 0.9999846
vn -0.003921568 0.003921568 0.9999846
vn -0.003921568 0.2470564 0.9689931
vn -0.003921568 0.2470564 0.9689931
vn -0.003921568 0.2470564 0.9689931
vn -0.1764689 0.1764689 0.9683581
vn -0.1764689 0.1764689 0.9683581
vn -0.1764689 0.1764689 0.9683581
vn -0.2470564 0.003921568 0.9689931
vn -0.2470564 0.003921568 0.9689931
vn -0.2470564 0.003921568 0.9689931
vn -0.1764689 -0.1764688 0.9683581
vn -0.1764689 -0.1764688 0.9683581
vn -0.1764689 -0.1764688 0.9683581
vn -0.003921568 -0.2470564 0.9689932
vn -0.003921568 -0.2470564 0.9689932
vn -0.003921568 -0.2470564 0.9689932
vn 0.1764688 -0.1764688 0.9683581
vn 0.1764688 -0.1764688 0.9683581
vn 0.1764688 -0.1764688 0.9683581
vn 0.2470564 0.003921568 0.9689932
vn 0.2470564 0.003921568 0.9689932
vn 0.2470564 0.003921568 0.9689932
vn 0.1764688 0.1764689 0.9683581
vn 0.1764688 0.1764689 0.9683581
vn 0.1764688 0.1764689 0.9683581
vn -0.7019539 -0.325487 0.6334974
vn -0.7019539 -0.325487 0.6334974
vn -0.7019539 -0.325487 0.6334974
vn -0.2705856 -0.7254831 0.6328173
vn -0.2705856 -0.7254831 0.6328173
vn -0.2705856 -0.7254831 0.6328173
vn 0.325487 -0.7019539 0.6334974
vn 0.325487 -0.7019539 0.6334974
vn 0.325487 -0.7019539 0.6334974
vn 0.7254831 -0.2705855 0.6328174
vn 0.7254831 -0.2705855 0.6328174
vn 0.7254831 -0.2705855 0.6328174
vn 0.7019539 0.3254871 0.6334974
vn 0.7019539 0.3254871 0.6334974
vn 0.7019539 0.3254871 0.6334974
vn 0.2705855 0.7254831 0.6328173
vn 0.2705855 0.7254831 0.6328173
vn 0.2705855 0.7254831 0.6328173
vn -0.3254871 0.7019539 0.6334973
vn -0.3254871 0.7019539 0.6334973
vn -0.3254871 0.7019539 0.6334973
vn -0.7254831 0.2705856 0.6328173
vn -0.7254831 0.2705856 0.6328173
vn -0.7254831 0.2705856 0.6328173
vn 0.1450966 -0.2078411 0.9673412
vn 0.1450966 -0.2078411 0.9673412
vn 0.1450966 -0.2078411 0.9673412
vn 0.2470564 -0.04313684 0.9680405
vn 0.2470564 -0.04313684 0.9680405
vn 0.2470564 -0.04313684 0.9680405
vn 0.2078411 0.1450967 0.9673412
vn 0.2078411 0.1450967 0.9673412
vn 0.2078411 0.1450967 0.9673412
vn 0.04313684 0.2470564 0.9680405
vn 0.04313684 0.2470564 0.9680405
vn 0.04313684 0.2470564 0.9680405
vn -0.1450967 0.2078411 0.9673412
vn -0.1450967 0.2078411 0.9673412
vn -0.1450967 0.2078411 0.9673412
vn -0.2470564 0.04313689 0.9680405
vn -0.2470564 0.04313689 0.9680405
vn -0.2470564 0.04313689 0.9680405
vn -0.2078411 -0.1450966 0.9673412
vn -0.2078411 -0.1450966 0.9673412
vn -0.2078411 -0.1450966 0.9673412
vn -0.04313689 -0.2470564 0.9680405
vn -0.04313689 -0.2470564 0.9680405
vn -0.04313689 -0.2470564 0.9680405
vn 0.04313684 0.01960772 0.9988768
vn 0.04313684 0.01960772 0.9988768
vn 0.04313684 0.01960772 0.9988768
vn 0.01960766 0.04313689 0.9988768
vn 0.01960766 0.04313689 0.9988768
vn 0.01960766 0.04313689 0.9988768
vn -0.01960772 0.04313689 0.9988768
vn -0.01960772 0.04313689 0.9988768
vn -0.01960772 0.04313689 0.9988768
vn -0.04313689 0.01960772 0.9988768
vn -0.04313689 0.01960772 0.9988768
vn -0.04313689 0.01960772 0.9988768
vn -0.04313689 -0.01960766 0.9988768
vn -0.04313689 -0.01960766 0.9988768
vn -0.04313689 -0.01960766 0.9988768
vn -0.01960772 -0.04313684 0.9988768
vn -0.01960772 -0.04313684 0.9988768
vn -0.01960772 -0.04313684 0.9988768
vn 0.01960766 -0.04313684 0.9988768
vn 0.01960766 -0.04313684 0.9988768
vn 0.01960766 -0.04313684 0.9988768
vn 0.04313684 -0.01960766 0.9988768
vn 0.04313684 -0.01960766 0.9988768
vn 0.04313684 -0.01960766 0.9988768
vn 0.9215596 -0.3803884 0.07766992
vn 0.9215596 -0.3803884 0.07766992
vn 0.9215596 -0.3803884 0.07766992
vn 0.9215596 -0.3803884 0.07766992
vn 0.7019539 -0.7097969 -0.05872889
vn 0.7019539 -0.7097969 -0.05872889
vn 0.7019539 -0.7097969 -0.05872889
vn 0.9215596 0.3803884 0.07766953
vn 0.9215596 0.3803884 0.07766953
vn 0.9215596 0.3803884 0.07766953
vn 0.9215596 0.3803884 0.07766953
vn 0.9999902 -0.003921509 -0.002071546
vn 0.9999902 -0.003921509 -0.002071546
vn 0.9999902 -0.003921509 -0.002071546
vn 0.3803884 0.9215595 0.07767087
vn 0.3803884 0.9215595 0.07767087
vn 0.3803884 0.9215595 0.07767087
vn 0.3803884 0.9215595 0.07767087
vn -0.3803884 0.9215595 0.0776701
vn -0.3803884 0.9215595 0.0776701
vn -0.3803884 0.9215595 0.0776701
vn -0.3803884 0.9215595 0.0776701
vn 0.7097969 0.7019539 -0.05872813
vn 0.7097969 0.7019539 -0.05872813
vn 0.7097969 0.7019539 -0.05872813
vn -0.9215595 0.3803884 0.0776703
vn -0.9215595 0.3803884 0.0776703
vn -0.9215595 0.3803884 0.0776703
vn -0.9215595 0.3803884 0.0776703
vn -0.1450967 -0.2078411 0.9673412
vn -0.1450967 -0.2078411 0.9673412
vn -0.1450967 -0.2078411 0.9673412
vn 0.1764688 0.1764689 0.9683581
vn 0.1764688 0.1764689 0.9683581
vn 0.1764688 0.1764689 0.9683581
vn 0.003921509 0.9999902 -0.002071602
vn 0.003921509 0.9999902 -0.002071602
vn 0.003921509 0.9999902 -0.002071602
vn -0.9215595 -0.3803884 0.07767069
vn -0.9215595 -0.3803884 0.07767069
vn -0.9215595 -0.3803884 0.07767069
vn -0.9215595 -0.3803884 0.07767069
vn 0.04313684 -0.2470564 0.9680405
vn 0.04313684 -0.2470564 0.9680405
vn 0.04313684 -0.2470564 0.9680405
vn -0.003921568 0.2470564 0.9689931
vn -0.003921568 0.2470564 0.9689931
vn -0.003921568 0.2470564 0.9689931
vn -0.7019539 0.709797 -0.05872788
vn -0.7019539 0.709797 -0.05872788
vn -0.7019539 0.709797 -0.05872788
vn -0.3803884 -0.9215596 0.07766934
vn -0.3803884 -0.9215596 0.07766934
vn -0.3803884 -0.9215596 0.07766934
vn -0.3803884 -0.9215596 0.07766934
vn 0.2078411 -0.1450966 0.9673412
vn 0.2078411 -0.1450966 0.9673412
vn 0.2078411 -0.1450966 0.9673412
vn -0.1764689 0.1764689 0.9683581
vn -0.1764689 0.1764689 0.9683581
vn -0.1764689 0.1764689 0.9683581
vn -0.9999902 0.003921568 -0.002071433
vn -0.9999902 0.003921568 -0.002071433
vn -0.9999902 0.003921568 -0.002071433
vn 0.3803884 -0.9215596 0.0776701
vn 0.3803884 -0.9215596 0.0776701
vn 0.3803884 -0.9215596 0.0776701
vn 0.3803884 -0.9215596 0.0776701
vn 0.2470564 0.04313689 0.9680405
vn 0.2470564 0.04313689 0.9680405
vn 0.2470564 0.04313689 0.9680405
vn -0.2470564 0.003921568 0.9689931
vn -0.2470564 0.003921568 0.9689931
vn -0.2470564 0.003921568 0.9689931
vn -0.709797 -0.7019539 -0.05872838
vn -0.709797 -0.7019539 -0.05872838
vn -0.709797 -0.7019539 -0.05872838
vn 0.1450966 0.2078411 0.9673412
vn 0.1450966 0.2078411 0.9673412
vn 0.1450966 0.2078411 0.9673412
vn -0.1764689 -0.1764688 0.9683581
vn -0.1764689 -0.1764688 0.9683581
vn -0.1764689 -0.1764688 0.9683581
vn -0.003921568 -0.9999902 -0.002071602
vn -0.003921568 -0.9999902 -0.002071602
vn -0.003921568 -0.9999902 -0.002071602
vn -0.04313689 0.2470564 0.9680405
vn -0.04313689 0.2470564 0.9680405
vn -0.04313689 0.2470564 0.9680405
vn -0.003921568 -0.2470564 0.9689932
vn -0.003921568 -0.2470564 0.9689932
vn -0.003921568 -0.2470564 0.9689932
vn -0.2078411 0.1450967 0.9673412
vn -0.2078411 0.1450967 0.9673412
vn -0.2078411 0.1450967 0.9673412
vn 0.1764688 -0.1764688 0.9683581
vn 0.1764688 -0.1764688 0.9683581
vn 0.1764688 -0.1764688 0.9683581
vn 0.2470564 0.003921568 0.9689932
vn 0.2470564 0.003921568 0.9689932
vn 0.2470564 0.003921568 0.9689932
vn -0.2470564 -0.04313684 0.9680405
vn -0.2470564 -0.04313684 0.9680405
vn -0.2470564 -0.04313684 0.9680405
vn 0.7019539 -0.325487 0.6334974
vn 0.7019539 -0.325487 0.6334974
vn 0.7019539 -0.325487 0.6334974
vn 0.7254831 -0.3019578 0.6184625
vn 0.7254831 -0.3019578 0.6184625
vn 0.7254831 -0.3019578 0.6184625
vn 0.2705855 -0.7254831 0.6328173
vn 0.2705855 -0.7254831 0.6328173
vn 0.2705855 -0.7254831 0.6328173
vn -0.3254871 -0.7019539 0.6334974
vn -0.3254871 -0.7019539 0.6334974
vn -0.3254871 -0.7019539 0.6334974
vn 0.3019578 -0.7254831 0.6184624
vn 0.3019578 -0.7254831 0.6184624
vn 0.3019578 -0.7254831 0.6184624
vn -0.7254831 -0.2705855 0.6328173
vn -0.7254831 -0.2705855 0.6328173
vn -0.7254831 -0.2705855 0.6328173
vn -0.3019579 -0.7254831 0.6184624
vn -0.3019579 -0.7254831 0.6184624
vn -0.3019579 -0.7254831 0.6184624
vn -0.7254831 -0.3019578 0.6184624
vn -0.7254831 -0.3019578 0.6184624
vn -0.7254831 -0.3019578 0.6184624
vn -0.7019539 0.3254871 0.6334973
vn -0.7019539 0.3254871 0.6334973
vn -0.7019539 0.3254871 0.6334973
vn -0.2705856 0.7254831 0.6328173
vn -0.2705856 0.7254831 0.6328173
vn -0.2705856 0.7254831 0.6328173
vn -0.7254831 0.3019579 0.6184623
vn -0.7254831 0.3019579 0.6184623
vn -0.7254831 0.3019579 0.6184623
vn 0.325487 0.7019539 0.6334974
vn 0.325487 0.7019539 0.6334974
vn 0.325487 0.7019539 0.6334974
vn -0.3019579 0.7254831 0.6184623
vn -0.3019579 0.7254831 0.6184623
vn -0.3019579 0.7254831 0.6184623
vn 0.7254831 0.2705856 0.6328173
vn 0.7254831 0.2705856 0.6328173
vn 0.7254831 0.2705856 0.6328173
vn 0.3019578 0.7254831 0.6184624
vn 0.3019578 0.7254831 0.6184624
vn 0.3019578 0.7254831 0.6184624
vn 0.7254831 0.3019579 0.6184624
vn 0.7254831 0.3019579 0.6184624
vn 0.7254831 0.3019579 0.6184624
vn 0.04313684 0.01960772 0.9988768
vn 0.04313684 0.01960772 0.9988768
vn 0.04313684 0.01960772 0.9988768
vn 0.01960766 0.04313689 0.9988768
vn 0.01960766 0.04313689 0.9988768
vn 0.01960766 0.04313689 0.9988768
vn -0.01960772 0.04313689 0.9988768
vn -0.01960772 0.04313689 0.9988768
vn -0.01960772 0.04313689 0.9988768
vn -0.04313689 0.01960772 0.9988768
vn -0.04313689 0.01960772 0.9988768
vn -0.04313689 0.01960772 0.9988768
vn -0.04313689 -0.01960766 0.9988768
vn -0.04313689 -0.01960766 0.9988768
vn -0.04313689 -0.01960766 0.9988768
vn -0.01960772 -0.04313684 0.9988768
vn -0.01960772 -0.04313684 0.9988768
vn -0.01960772 -0.04313684 0.9988768
vn 0.01960766 -0.04313684 0.9988768
vn 0.01960766 -0.04313684 0.9988768
vn 0.01960766 -0.04313684 0.9988768
vn 0.04313684 -0.01960766 0.9988768
vn 0.04313684 -0.01960766 0.9988768
vn 0.04313684 -0.01960766 0.9988768
vn 0.7254831 -0.3019578 0.6184625
vn 0.7254831 -0.3019578 0.6184625
vn 0.7254831 -0.3019578 0.6184625
vn 0.3019578 -0.7254831 0.6184624
vn 0.3019578 -0.7254831 0.6184624
vn 0.3019578 -0.7254831 0.6184624
vn -0.3019579 -0.7254831 0.6184624
vn -0.3019579 -0.7254831 0.6184624
vn -0.3019579 -0.7254831 0.6184624
vn -0.7254831 -0.3019578 0.6184624
vn -0.7254831 -0.3019578 0.6184624
vn -0.7254831 -0.3019578 0.6184624
vn -0.7254831 0.3019579 0.6184623
vn -0.7254831 0.3019579 0.6184623
vn -0.7254831 0.3019579 0.6184623
vn -0.3019579 0.7254831 0.6184623
vn -0.3019579 0.7254831 0.6184623
vn -0.3019579 0.7254831 0.6184623
vn 0.3019578 0.7254831 0.6184624
vn 0.3019578 0.7254831 0.6184624
vn 0.3019578 0.7254831 0.6184624
vn 0.7254831 0.3019579 0.6184624
vn 0.7254831 0.3019579 0.6184624
vn 0.7254831 0.3019579 0.6184624
g Cylinder001_0
f 3/3/3 2/2/2 1/1/1
f 6/6/6 5/5/5 4/4/4
f 9/9/9 8/8/8 7/7/7
f 12/12/12 11/11/11 10/10/10
f 15/15/15 14/14/14 13/13/13
f 18/18/18 17/17/17 16/16/16
f 21/21/21 20/20/20 19/19/19
f 24/24/24 23/23/23 22/22/22
f 27/27/27 26/26/26 25/25/25
f 28/28/28 26/26/26 27/27/27
f 29/29/29 28/28/28 27/27/27
f 30/30/30 26/26/26 28/28/28
f 31/31/31 30/30/30 28/28/28
f 32/32/32 26/26/26 30/30/30
f 35/35/35 34/34/34 33/33/33
f 38/38/38 37/37/37 36/36/36
f 41/41/41 40/40/40 39/39/39
f 44/44/44 43/43/43 42/42/42
f 47/47/47 46/46/46 45/45/45
f 50/50/50 49/49/49 48/48/48
f 53/53/53 52/52/52 51/51/51
f 56/56/56 55/55/55 54/54/54
f 59/59/59 58/58/58 57/57/57
f 62/62/62 61/61/61 60/60/60
f 65/65/65 64/64/64 63/63/63
f 68/68/68 67/67/67 66/66/66
f 71/71/71 70/70/70 69/69/69
f 74/74/74 73/73/73 72/72/72
f 77/77/77 76/76/76 75/75/75
f 80/80/80 79/79/79 78/78/78
f 83/83/83 82/82/82 81/81/81
f 86/86/86 85/85/85 84/84/84
f 89/89/89 88/88/88 87/87/87
f 92/92/92 91/91/91 90/90/90
f 95/95/95 94/94/94 93/93/93
f 98/98/98 97/97/97 96/96/96
f 101/101/101 100/100/100 99/99/99
f 104/104/104 103/103/103 102/102/102
f 107/107/107 106/106/106 105/105/105
f 110/110/110 109/109/109 108/108/108
f 113/113/113 112/112/112 111/111/111
f 116/116/116 115/115/115 114/114/114
f 119/119/119 118/118/118 117/117/117
f 122/122/122 121/121/121 120/120/120
f 125/125/125 124/124/124 123/123/123
f 128/128/128 127/127/127 126/126/126
f 131/131/131 130/130/130 129/129/129
f 132/132/132 130/130/130 131/131/131
f 135/135/135 134/134/134 133/133/133
f 138/138/138 137/137/137 136/136/136
f 139/139/139 137/137/137 138/138/138
f 142/142/142 141/141/141 140/140/140
f 145/145/145 144/144/144 143/143/143
f 146/146/146 144/144/144 145/145/145
f 149/149/149 148/148/148 147/147/147
f 150/150/150 148/148/148 149/149/149
f 153/153/153 152/152/152 151/151/151
f 156/156/156 155/155/155 154/154/154
f 157/157/157 155/155/155 156/156/156
f 160/160/160 159/159/159 158/158/158
f 163/163/163 162/162/162 161/161/161
f 166/166/166 165/165/165 164/164/164
f 169/169/169 168/168/168 167/167/167
f 170/170/170 168/168/168 169/169/169
f 173/173/173 172/172/172 171/171/171
f 176/176/176 175/175/175 174/174/174
f 179/179/179 178/178/178 177/177/177
f 182/182/182 181/181/181 180/180/180
f 183/183/183 181/181/181 182/182/182
f 186/186/186 185/185/185 184/184/184
f 189/189/189 188/188/188 187/187/187
f 192/192/192 191/191/191 190/190/190
f 195/195/195 194/194/194 193/193/193
f 196/196/196 194/194/194 195/195/195
f 199/199/199 198/198/198 197/197/197
f 202/202/202 201/201/201 200/200/200
f 205/205/205 204/204/204 203/203/203
f 208/208/208 207/207/207 206/206/206
f 211/211/211 210/210/210 209/209/209
f 214/214/214 213/213/213 212/212/212
f 217/217/217 216/216/216 215/215/215
f 220/220/220 219/219/219 218/218/218
f 223/223/223 222/222/222 221/221/221
f 226/226/226 225/225/225 224/224/224
f 229/229/229 228/228/228 227/227/227
f 232/232/232 231/231/231 230/230/230
f 235/235/235 234/234/234 233/233/233
f 238/238/238 237/237/237 236/236/236
f 241/241/241 240/240/240 239/239/239
f 244/244/244 243/243/243 242/242/242
f 247/247/247 246/246/246 245/245/245
f 250/250/250 249/249/249 248/248/248
f 253/253/253 252/252/252 251/251/251
f 256/256/256 255/255/255 254/254/254
f 259/259/259 258/258/258 257/257/257
f 262/262/262 261/261/261 260/260/260
f 265/265/265 264/264/264 263/263/263
f 268/268/268 267/267/267 266/266/266
f 271/271/271 270/270/270 269/269/269
f 274/274/274 273/273/273 272/272/272
f 277/277/277 276/276/276 275/275/275
f 280/280/280 279/279/279 278/278/278
f 283/283/283 282/282/282 281/281/281
f 286/286/286 285/285/285 284/284/284
f 289/289/289 288/288/288 287/287/287
f 292/292/292 291/291/291 290/290/290
f 295/295/295 294/294/294 293/293/293
f 298/298/298 297/297/297 296/296/296
f 301/301/301 300/300/300 299/299/299
f 304/304/304 303/303/303 302/302/302
f 307/307/307 306/306/306 305/305/305
f 310/310/310 309/309/309 308/308/308
f 313/313/313 312/312/312 311/311/311
f 316/316/316 315/315/315 314/314/314
f 319/319/319 318/318/318 317/317/317
f 322/322/322 321/321/321 320/320/320
f 325/325/325 324/324/324 323/323/323
f 328/328/328 327/327/327 326/326/326
