g Cylinder077
v 1.315638 0.04370391 -0.1015613
v 1.315638 0.04370391 0.1015611
v 1.254408 0.3910875 0.1015611
v 1.254408 0.3910875 -0.1015613
v 1.036309 0.4091153 -0.08979714
v 1.036309 0.4091153 0.0897969
v 0.8804042 0.6791285 0.0897969
v 0.8804042 0.6791285 -0.08979714
v 0.9738349 0.8770313 -0.1015613
v 0.9738349 0.8770313 0.1015611
v 0.7036207 1.103722 0.1015611
v 0.7036207 1.103722 -0.1015613
v 0.5249903 0.9773679 -0.08979714
v 0.5249903 0.9773679 0.0897969
v 0.2319707 1.084008 0.0897969
v 0.2319707 1.084008 -0.08979714
v 0.1763619 1.295642 -0.1015613
v 0.1763619 1.295642 0.1015611
v -0.1763617 1.295642 0.1015611
v -0.1763617 1.295642 -0.1015613
v -0.2319705 1.084008 -0.08979714
v -0.2319705 1.084008 0.0897969
v -0.5249901 0.9773679 0.0897969
v -0.5249901 0.9773679 -0.08979714
v -0.7036204 1.103722 -0.1015613
v -0.7036204 1.103722 0.1015611
v -0.9738348 0.8770313 0.1015611
v -0.9738348 0.8770313 -0.1015613
v -0.880404 0.6791285 -0.08979714
v -0.880404 0.6791285 0.0897969
v -1.036309 0.4091153 0.0897969
v -1.036309 0.4091153 -0.08979714
v -1.254408 0.3910875 -0.1015613
v -1.254408 0.3910875 0.1015611
v -1.315637 0.04370391 0.1015611
v -1.315637 0.04370391 -0.1015613
v -1.116851 -0.04779947 -0.08979714
v -1.116851 -0.04779947 0.0897969
v -1.062728 -0.3548719 0.0897969
v -1.062728 -0.3548719 -0.08979714
v -1.218192 -0.5088899 -0.1015613
v -1.218192 -0.5088899 0.1015611
v -1.04185 -0.8143162 0.1015611
v -1.04185 -0.8143162 -0.1015613
v -0.8298142 -0.7574628 -0.08907437
v -0.8298142 -0.7574628 0.08907425
v -0.5928047 -0.9563291 0.08907425
v -0.5928047 -0.9563291 -0.08907437
v -0.6119968 -1.17503 -0.1015613
v -0.6119968 -1.17503 0.1015611
v -0.2805527 -1.295642 0.1015611
v -0.2805527 -1.295642 -0.1015613
v -0.155925 -1.115808 -0.08979714
v -0.155925 -1.115808 0.0897969
v 0.1559253 -1.115808 0.0897969
v 0.1559253 -1.115808 -0.08979714
v 0.280553 -1.295642 -0.1015613
v 0.280553 -1.295642 0.1015611
v 0.6119969 -1.17503 0.1015611
v 0.6119969 -1.17503 -0.1015613
v 0.5918814 -0.957092 -0.08979714
v 0.5918814 -0.957092 0.0897969
v 0.8307378 -0.7566598 0.0897969
v 0.8307378 -0.7566598 -0.08979714
v 1.04185 -0.8143162 -0.1015613
v 1.04185 -0.8143162 0.1015611
v 1.218192 -0.5088899 0.1015611
v 1.218192 -0.5088899 -0.1015613
v 1.062488 -0.3560764 -0.09047973
v 1.062488 -0.3560764 0.09047949
v 1.117092 -0.04659498 0.09047949
v 1.117092 -0.04659498 -0.09047973
v 1.117092 -0.04659498 -0.09047973
v 1.315638 0.04370391 -0.1015613
v 1.254408 0.3910875 -0.1015613
v 1.036309 0.4091153 -0.08979714
v 0.3552734 -0.02109933 -0.08999789
v 0.329577 0.1238446 -0.08979714
v 0.8804042 0.6791285 -0.08979714
v 0.2799909 0.2097269 -0.08979714
v 0.5249903 0.9773679 -0.08979714
v 0.7036207 1.103722 -0.1015613
v 0.9738349 0.8770313 -0.1015613
v 0.1669667 0.3045629 -0.08979714
v 0.2319707 1.084008 -0.08979714
v 0.07377696 0.3384902 -0.08979714
v -0.2319705 1.084008 -0.08979714
v -0.1763617 1.295642 -0.1015613
v 0.1763619 1.295642 -0.1015613
v -0.07377672 0.3384902 -0.08979714
v 0.3379284 -0.1195086 -0.08999789
v 1.062488 -0.3560764 -0.09047973
v 0.2642117 -0.2469068 -0.08979714
v 0.8307378 -0.7566598 -0.08979714
v 1.218192 -0.5088899 -0.1015613
v 1.04185 -0.8143162 -0.1015613
v 0.1882466 -0.310666 -0.08979714
v 0.5918814 -0.957092 -0.08979714
v 0.04956615 -0.3611354 -0.08979714
v 0.1559253 -1.115808 -0.08979714
v 0.6119969 -1.17503 -0.1015613
v 0.280553 -1.295642 -0.1015613
v -0.04956591 -0.3611354 -0.08979714
v -0.155925 -1.115808 -0.08979714
v -0.1885273 -0.310425 -0.08955622
v -0.5928047 -0.9563291 -0.08907437
v -0.2805527 -1.295642 -0.1015613
v -0.6119968 -1.17503 -0.1015613
v -0.2639304 -0.2471877 -0.08955622
v -0.8298142 -0.7574628 -0.08907437
v -0.3379682 -0.1191473 -0.08979714
v -1.062728 -0.3548719 -0.08979714
v -1.04185 -0.8143162 -0.1015613
v -1.218192 -0.5088899 -0.1015613
v -0.3551929 -0.02146065 -0.08979714
v -1.116851 -0.04779947 -0.08979714
v -0.3295767 0.1238446 -0.08979714
v -1.036309 0.4091153 -0.08979714
v -1.315637 0.04370391 -0.1015613
v -1.254408 0.3910875 -0.1015613
v -0.2799907 0.2097269 -0.08979714
v -0.880404 0.6791285 -0.08979714
v -0.1669664 0.3045629 -0.08979714
v -0.5249901 0.9773679 -0.08979714
v -0.9738348 0.8770313 -0.1015613
v -0.7036204 1.103722 -0.1015613
v -0.07377672 0.3384902 -0.08979714
v -0.2319705 1.084008 -0.08979714
v 1.036309 0.4091153 -0.08979714
v 1.254408 0.3910875 -0.1015613
v 1.254408 0.3910875 0.1015611
v 1.036309 0.4091153 0.0897969
v 1.036309 0.4091153 0.0897969
v 1.254408 0.3910875 0.1015611
v 1.315638 0.04370391 0.1015611
v 1.117092 -0.04659498 0.09047949
v 0.329577 0.1238446 0.0897969
v 0.3552734 -0.02109933 0.08999765
v 0.2799909 0.2097269 0.0897969
v 0.8804042 0.6791285 0.0897969
v 0.1669667 0.3045629 0.0897969
v 0.5249903 0.9773679 0.0897969
v 0.9738349 0.8770313 0.1015611
v 0.7036207 1.103722 0.1015611
v 0.07377696 0.3384902 0.0897969
v 0.2319707 1.084008 0.0897969
v -0.07377672 0.3384902 0.0897969
v -0.2319705 1.084008 0.0897969
v 0.1763619 1.295642 0.1015611
v -0.1763617 1.295642 0.1015611
v 1.062488 -0.3560764 0.09047949
v 0.3379284 -0.1195086 0.08999765
v 0.8307378 -0.7566598 0.0897969
v 1.04185 -0.8143162 0.1015611
v 1.218192 -0.5088899 0.1015611
v 0.2642117 -0.2469068 0.0897969
v 0.5918814 -0.957092 0.0897969
v 0.1882466 -0.310666 0.0897969
v 0.1559253 -1.115808 0.0897969
v 0.280553 -1.295642 0.1015611
v 0.6119969 -1.17503 0.1015611
v 0.04956615 -0.3611354 0.0897969
v -0.155925 -1.115808 0.0897969
v -0.04956591 -0.3611354 0.0897969
v -0.5928047 -0.9563291 0.08907425
v -0.6119968 -1.17503 0.1015611
v -0.2805527 -1.295642 0.1015611
v -0.1885273 -0.310425 0.08955598
v -0.8298142 -0.7574628 0.08907425
v -0.2639304 -0.2471877 0.08955598
v -1.062728 -0.3548719 0.0897969
v -1.218192 -0.5088899 0.1015611
v -1.04185 -0.8143162 0.1015611
v -0.3379682 -0.1191473 0.0897969
v -1.116851 -0.04779947 0.0897969
v -0.3551929 -0.02146065 0.0897969
v -1.036309 0.4091153 0.0897969
v -1.254408 0.3910875 0.1015611
v -1.315637 0.04370391 0.1015611
v -0.3295767 0.1238446 0.0897969
v -0.880404 0.6791285 0.0897969
v -0.2799907 0.2097269 0.0897969
v -0.5249901 0.9773679 0.0897969
v -0.7036204 1.103722 0.1015611
v -0.9738348 0.8770313 0.1015611
v -0.1669664 0.3045629 0.0897969
v -0.2319705 1.084008 0.0897969
v -0.07377672 0.3384902 0.0897969
v 1.117092 -0.04659498 0.09047949
v 1.315638 0.04370391 0.1015611
v 1.315638 0.04370391 -0.1015613
v 1.117092 -0.04659498 -0.09047973
v 0.8804042 0.6791285 0.0897969
v 0.9738349 0.8770313 0.1015611
v 0.9738349 0.8770313 -0.1015613
v 0.8804042 0.6791285 -0.08979714
v 0.5249903 0.9773679 -0.08979714
v 0.7036207 1.103722 -0.1015613
v 0.7036207 1.103722 0.1015611
v 0.5249903 0.9773679 0.0897969
v 0.2319707 1.084008 0.0897969
v 0.1763619 1.295642 0.1015611
v 0.1763619 1.295642 -0.1015613
v 0.2319707 1.084008 -0.08979714
v -0.2319705 1.084008 -0.08979714
v -0.1763617 1.295642 -0.1015613
v -0.1763617 1.295642 0.1015611
v -0.2319705 1.084008 0.0897969
v -0.5249901 0.9773679 0.0897969
v -0.7036204 1.103722 0.1015611
v -0.7036204 1.103722 -0.1015613
v -0.5249901 0.9773679 -0.08979714
v -0.880404 0.6791285 -0.08979714
v -0.9738348 0.8770313 -0.1015613
v -0.9738348 0.8770313 0.1015611
v -0.880404 0.6791285 0.0897969
v -1.036309 0.4091153 0.0897969
v -1.254408 0.3910875 0.1015611
v -1.254408 0.3910875 -0.1015613
v -1.036309 0.4091153 -0.08979714
v -1.116851 -0.04779947 -0.08979714
v -1.315637 0.04370391 -0.1015613
v -1.315637 0.04370391 0.1015611
v -1.116851 -0.04779947 0.0897969
v -1.062728 -0.3548719 0.0897969
v -1.218192 -0.5088899 0.1015611
v -1.218192 -0.5088899 -0.1015613
v -1.062728 -0.3548719 -0.08979714
v -0.8298142 -0.7574628 -0.08907437
v -1.04185 -0.8143162 -0.1015613
v -1.04185 -0.8143162 0.1015611
v -0.8298142 -0.7574628 0.08907425
v -0.5928047 -0.9563291 0.08907425
v -0.6119968 -1.17503 0.1015611
v -0.6119968 -1.17503 -0.1015613
v -0.5928047 -0.9563291 -0.08907437
v -0.155925 -1.115808 -0.08979714
v -0.2805527 -1.295642 -0.1015613
v -0.2805527 -1.295642 0.1015611
v -0.155925 -1.115808 0.0897969
v 0.1559253 -1.115808 0.0897969
v 0.280553 -1.295642 0.1015611
v 0.280553 -1.295642 -0.1015613
v 0.1559253 -1.115808 -0.08979714
v 0.5918814 -0.957092 -0.08979714
v 0.6119969 -1.17503 -0.1015613
v 0.6119969 -1.17503 0.1015611
v 0.5918814 -0.957092 0.0897969
v 0.8307378 -0.7566598 0.0897969
v 1.04185 -0.8143162 0.1015611
v 1.04185 -0.8143162 -0.1015613
v 0.8307378 -0.7566598 -0.08979714
v 1.062488 -0.3560764 -0.09047973
v 1.218192 -0.5088899 -0.1015613
v 1.218192 -0.5088899 0.1015611
v 1.062488 -0.3560764 0.09047949
v -0.2801512 0.1038897 0.03643668
v -0.237993 0.1768837 0.03643668
v -0.237993 0.1768837 -0.03643692
v -0.2801512 0.1038897 -0.03643692
v -0.237993 0.1768837 0.03643668
v -0.1419125 0.2575063 0.03643668
v -0.1419125 0.2575063 -0.03643692
v -0.237993 0.1768837 -0.03643692
v -0.1419125 0.2575063 0.03643668
v -0.06269515 0.2863345 0.03643668
v -0.06269515 0.2863345 -0.03643692
v -0.1419125 0.2575063 -0.03643692
v -0.06269515 0.2863345 0.03643668
v 0.06269538 0.2863345 0.03643668
v 0.06269538 0.2863345 -0.03643692
v -0.06269515 0.2863345 -0.03643692
v 0.06269538 0.2863345 0.03643668
v 0.1419127 0.2575063 0.03643668
v 0.1419127 0.2575063 -0.03643692
v 0.06269538 0.2863345 -0.03643692
v 0.1419127 0.2575063 0.03643668
v 0.2379932 0.1768837 0.03643668
v 0.2379932 0.1768837 -0.03643692
v 0.1419127 0.2575063 -0.03643692
v 0.2379932 0.1768837 0.03643668
v 0.2801515 0.1038897 0.03643668
v 0.2801515 0.1038897 -0.03643692
v 0.2379932 0.1768837 -0.03643692
v 0.2801515 0.1038897 0.03643668
v 0.3019533 -0.01929259 0.03663743
v 0.3019533 -0.01929259 -0.03663766
v 0.2801515 0.1038897 -0.03643692
v 0.3019533 -0.01929259 0.03663743
v 0.287218 -0.1029665 0.03663743
v 0.287218 -0.1029665 -0.03663766
v 0.3019533 -0.01929259 -0.03663766
v 0.287218 -0.1029665 0.03663743
v 0.224583 -0.2112529 -0.03643692
v 0.224583 -0.2112529 0.03643668
v 0.224583 -0.2112529 0.03643668
v 0.1599805 -0.2654163 0.03643668
v 0.1599805 -0.2654163 -0.03643692
v 0.224583 -0.2112529 -0.03643692
v 0.1599805 -0.2654163 0.03643668
v 0.04213822 -0.3083373 0.03643668
v 0.04213822 -0.3083373 -0.03643692
v 0.1599805 -0.2654163 -0.03643692
v -0.04213798 -0.3083373 -0.03643692
v -0.04213798 -0.3083373 0.03643668
v -0.04213798 -0.3083373 0.03643668
v -0.1602614 -0.2652155 0.0362761
v -0.1602614 -0.2652155 -0.03627622
v -0.04213798 -0.3083373 -0.03643692
v -0.1602614 -0.2652155 0.0362761
v -0.2243017 -0.2114537 0.0362761
v -0.2243017 -0.2114537 -0.03627622
v -0.1602614 -0.2652155 -0.03627622
v -0.2243017 -0.2114537 0.0362761
v -0.2872579 -0.1026454 0.03643668
v -0.2872579 -0.1026454 -0.03643692
v -0.2243017 -0.2114537 -0.03627622
v -0.2872579 -0.1026454 0.03643668
v -0.3019129 -0.01961374 0.03643668
v -0.3019129 -0.01961374 -0.03643692
v -0.2872579 -0.1026454 -0.03643692
v -0.3019129 -0.01961374 0.03643668
v -0.2801512 0.1038897 0.03643668
v -0.2801512 0.1038897 -0.03643692
v -0.3019129 -0.01961374 -0.03643692
v 0.3552734 -0.02109933 -0.08999789
v 0.329577 0.1238446 -0.08979714
v 0.2801515 0.1038897 -0.03643692
v 0.3019533 -0.01929259 -0.03663766
v 0.329577 0.1238446 0.0897969
v 0.3552734 -0.02109933 0.08999765
v 0.3019533 -0.01929259 0.03663743
v 0.2801515 0.1038897 0.03643668
v 0.329577 0.1238446 -0.08979714
v 0.2799909 0.2097269 -0.08979714
v 0.2379932 0.1768837 -0.03643692
v 0.2801515 0.1038897 -0.03643692
v 0.2799909 0.2097269 0.0897969
v 0.329577 0.1238446 0.0897969
v 0.2801515 0.1038897 0.03643668
v 0.2379932 0.1768837 0.03643668
v 0.2799909 0.2097269 -0.08979714
v 0.1669667 0.3045629 -0.08979714
v 0.1419127 0.2575063 -0.03643692
v 0.2379932 0.1768837 -0.03643692
v 0.1669667 0.3045629 0.0897969
v 0.2799909 0.2097269 0.0897969
v 0.2379932 0.1768837 0.03643668
v 0.1419127 0.2575063 0.03643668
v 0.1669667 0.3045629 -0.08979714
v 0.07377696 0.3384902 -0.08979714
v 0.06269538 0.2863345 -0.03643692
v 0.1419127 0.2575063 -0.03643692
v 0.07377696 0.3384902 0.0897969
v 0.1669667 0.3045629 0.0897969
v 0.1419127 0.2575063 0.03643668
v 0.06269538 0.2863345 0.03643668
v 0.07377696 0.3384902 -0.08979714
v -0.07377672 0.3384902 -0.08979714
v -0.06269515 0.2863345 -0.03643692
v 0.06269538 0.2863345 -0.03643692
v -0.07377672 0.3384902 0.0897969
v 0.07377696 0.3384902 0.0897969
v 0.06269538 0.2863345 0.03643668
v -0.06269515 0.2863345 0.03643668
v -0.07377672 0.3384902 -0.08979714
v -0.1669664 0.3045629 -0.08979714
v -0.1419125 0.2575063 -0.03643692
v -0.06269515 0.2863345 -0.03643692
v -0.1669664 0.3045629 0.0897969
v -0.07377672 0.3384902 0.0897969
v -0.06269515 0.2863345 0.03643668
v -0.1419125 0.2575063 0.03643668
v -0.1669664 0.3045629 -0.08979714
v -0.2799907 0.2097269 -0.08979714
v -0.237993 0.1768837 -0.03643692
v -0.1419125 0.2575063 -0.03643692
v -0.2799907 0.2097269 0.0897969
v -0.1669664 0.3045629 0.0897969
v -0.1419125 0.2575063 0.03643668
v -0.237993 0.1768837 0.03643668
v -0.2799907 0.2097269 -0.08979714
v -0.3295767 0.1238446 -0.08979714
v -0.2801512 0.1038897 -0.03643692
v -0.237993 0.1768837 -0.03643692
v -0.3295767 0.1238446 0.0897969
v -0.2799907 0.2097269 0.0897969
v -0.237993 0.1768837 0.03643668
v -0.2801512 0.1038897 0.03643668
v -0.3295767 0.1238446 -0.08979714
v -0.3551929 -0.02146065 -0.08979714
v -0.3019129 -0.01961374 -0.03643692
v -0.2801512 0.1038897 -0.03643692
v -0.3551929 -0.02146065 0.0897969
v -0.3295767 0.1238446 0.0897969
v -0.2801512 0.1038897 0.03643668
v -0.3019129 -0.01961374 0.03643668
v -0.3551929 -0.02146065 -0.08979714
v -0.3379682 -0.1191473 -0.08979714
v -0.2872579 -0.1026454 -0.03643692
v -0.3019129 -0.01961374 -0.03643692
v -0.3379682 -0.1191473 0.0897969
v -0.3551929 -0.02146065 0.0897969
v -0.3019129 -0.01961374 0.03643668
v -0.2872579 -0.1026454 0.03643668
v -0.3379682 -0.1191473 -0.08979714
v -0.2639304 -0.2471877 -0.08955622
v -0.2243017 -0.2114537 -0.03627622
v -0.2872579 -0.1026454 -0.03643692
v -0.2639304 -0.2471877 0.08955598
v -0.3379682 -0.1191473 0.0897969
v -0.2872579 -0.1026454 0.03643668
v -0.2243017 -0.2114537 0.0362761
v -0.2639304 -0.2471877 -0.08955622
v -0.1885273 -0.310425 -0.08955622
v -0.1602614 -0.2652155 -0.03627622
v -0.2243017 -0.2114537 -0.03627622
v -0.1885273 -0.310425 0.08955598
v -0.2639304 -0.2471877 0.08955598
v -0.2243017 -0.2114537 0.0362761
v -0.1602614 -0.2652155 0.0362761
v -0.1885273 -0.310425 -0.08955622
v -0.04956591 -0.3611354 -0.08979714
v -0.04213798 -0.3083373 -0.03643692
v -0.1602614 -0.2652155 -0.03627622
v -0.04956591 -0.3611354 0.0897969
v -0.1885273 -0.310425 0.08955598
v -0.1602614 -0.2652155 0.0362761
v -0.04213798 -0.3083373 0.03643668
v -0.04956591 -0.3611354 -0.08979714
v 0.04956615 -0.3611354 -0.08979714
v 0.04213822 -0.3083373 -0.03643692
v -0.04213798 -0.3083373 -0.03643692
v 0.04956615 -0.3611354 0.0897969
v -0.04956591 -0.3611354 0.0897969
v -0.04213798 -0.3083373 0.03643668
v 0.04213822 -0.3083373 0.03643668
v 0.04956615 -0.3611354 -0.08979714
v 0.1882466 -0.310666 -0.08979714
v 0.1599805 -0.2654163 -0.03643692
v 0.04213822 -0.3083373 -0.03643692
v 0.1882466 -0.310666 0.0897969
v 0.04956615 -0.3611354 0.0897969
v 0.04213822 -0.3083373 0.03643668
v 0.1599805 -0.2654163 0.03643668
v 0.1882466 -0.310666 -0.08979714
v 0.2642117 -0.2469068 -0.08979714
v 0.224583 -0.2112529 -0.03643692
v 0.1599805 -0.2654163 -0.03643692
v 0.2642117 -0.2469068 0.0897969
v 0.1882466 -0.310666 0.0897969
v 0.1599805 -0.2654163 0.03643668
v 0.224583 -0.2112529 0.03643668
v 0.2642117 -0.2469068 -0.08979714
v 0.3379284 -0.1195086 -0.08999789
v 0.287218 -0.1029665 -0.03663766
v 0.224583 -0.2112529 -0.03643692
v 0.3379284 -0.1195086 0.08999765
v 0.2642117 -0.2469068 0.0897969
v 0.224583 -0.2112529 0.03643668
v 0.287218 -0.1029665 0.03663743
v 0.3379284 -0.1195086 -0.08999789
v 0.3552734 -0.02109933 -0.08999789
v 0.3019533 -0.01929259 -0.03663766
v 0.287218 -0.1029665 -0.03663766
v 0.3552734 -0.02109933 0.08999765
v 0.3379284 -0.1195086 0.08999765
v 0.287218 -0.1029665 0.03663743
v 0.3019533 -0.01929259 0.03663743
vn 0.9843062 0.1764693 0
vn 0.9843062 0.1764693 0
vn 0.9843062 0.1764693 0
vn 0.9843062 0.1764693 0
vn 0.8666601 0.4980354 -0.02934388
vn 0.8666601 0.4980354 -0.02934388
vn 0.8666601 0.4980354 -0.02934388
vn 0.8666601 0.4980354 -0.02934388
vn 0.6392108 0.7647001 -0.08150715
vn 0.6392108 0.7647001 -0.08150715
vn 0.6392108 0.7647001 -0.08150715
vn 0.6392108 0.7647001 -0.08150715
vn 0.3411738 0.9372478 -0.07188231
vn 0.3411738 0.9372478 -0.07188231
vn 0.3411738 0.9372478 -0.07188231
vn 0.3411738 0.9372478 -0.07188231
vn -0.003921628 0.9999924 0
vn -0.003921628 0.9999924 0
vn -0.003921628 0.9999924 0
vn -0.003921628 0.9999924 0
vn -0.3411739 0.9372478 -0.0718819
vn -0.3411739 0.9372478 -0.0718819
vn -0.3411739 0.9372478 -0.0718819
vn -0.3411739 0.9372478 -0.0718819
vn -0.6392108 0.7647001 -0.08150715
vn -0.6392108 0.7647001 -0.08150715
vn -0.6392108 0.7647001 -0.08150715
vn -0.6392108 0.7647001 -0.08150715
vn -0.8666601 0.4980354 -0.02934185
vn -0.8666601 0.4980354 -0.02934185
vn -0.8666601 0.4980354 -0.02934185
vn -0.8666601 0.4980354 -0.02934185
vn -0.9843062 0.1764693 0
vn -0.9843062 0.1764693 0
vn -0.9843062 0.1764693 0
vn -0.9843062 0.1764693 0
vn -0.9843062 -0.1764692 0
vn -0.9843062 -0.1764692 0
vn -0.9843062 -0.1764692 0
vn -0.9843062 -0.1764692 0
vn -0.8666601 -0.4980354 -0.02934287
vn -0.8666601 -0.4980354 -0.02934287
vn -0.8666601 -0.4980354 -0.02934287
vn -0.8666601 -0.4980354 -0.02934287
vn -0.6392108 -0.7647001 -0.08150715
vn -0.6392108 -0.7647001 -0.08150715
vn -0.6392108 -0.7647001 -0.08150715
vn -0.6392108 -0.7647001 -0.08150715
vn -0.3411739 -0.9372478 -0.0718819
vn -0.3411739 -0.9372478 -0.0718819
vn -0.3411739 -0.9372478 -0.0718819
vn -0.3411739 -0.9372478 -0.0718819
vn -0.003921628 -0.9999924 0
vn -0.003921628 -0.9999924 0
vn -0.003921628 -0.9999924 0
vn -0.003921628 -0.9999924 0
vn 0.3411738 -0.9372478 -0.07188231
vn 0.3411738 -0.9372478 -0.07188231
vn 0.3411738 -0.9372478 -0.07188231
vn 0.3411738 -0.9372478 -0.07188231
vn 0.6392108 -0.7647001 -0.08150715
vn 0.6392108 -0.7647001 -0.08150715
vn 0.6392108 -0.7647001 -0.08150715
vn 0.6392108 -0.7647001 -0.08150715
vn 0.8666601 -0.4980354 -0.0293449
vn 0.8666601 -0.4980354 -0.0293449
vn 0.8666601 -0.4980354 -0.0293449
vn 0.8666601 -0.4980354 -0.0293449
vn 0.9843062 -0.1764692 0
vn 0.9843062 -0.1764692 0
vn 0.9843062 -0.1764692 0
vn 0.9843062 -0.1764692 0
vn -0.01960778 -0.003921509 -0.9998001
vn -0.05098009 -0.01176459 -0.9986304
vn -0.05098009 -0.01176459 -0.9986304
vn -0.01960778 -0.003921509 -0.9998001
vn -0.003921628 0.003921628 -0.9999846
vn -0.003921628 0.003921628 -0.9999846
vn -0.01176465 -0.01176459 -0.9998616
vn -0.003921628 0.003921628 -0.9999846
vn -0.01176465 -0.01176459 -0.9998616
vn -0.03529394 -0.04313689 -0.9984456
vn -0.03529394 -0.04313689 -0.9984456
vn -0.003921628 0.003921628 -0.9999846
vn -0.003921628 -0.01960766 -0.9998001
vn -0.003921628 0.003921628 -0.9999846
vn -0.003921628 -0.01960766 -0.9998001
vn -0.003921628 -0.05882305 -0.9982607
vn -0.003921628 -0.05882305 -0.9982607
vn -0.003921628 0.003921628 -0.9999846
vn -0.003921628 -0.003921509 -0.9999846
vn -0.01960778 0.01176465 -0.9997385
vn -0.003921628 -0.003921509 -0.9999846
vn -0.01176465 0.01176465 -0.9998616
vn -0.05098009 0.0274508 -0.9983224
vn -0.05098009 0.0274508 -0.9983224
vn -0.003921628 0.003921628 -0.9999846
vn -0.003921628 0.01960778 -0.9998001
vn -0.003921628 0.003921628 -0.9999846
vn -0.003921628 0.01960778 -0.9998001
vn -0.01960778 0.05098009 -0.9985072
vn -0.01960778 0.05098009 -0.9985072
vn -0.003921628 0.003921628 -0.9999846
vn 0.003921509 0.01960778 -0.9998001
vn -0.003921628 -0.003921509 -0.9999846
vn 0.003921509 0.01960778 -0.9998001
vn 0.01960766 0.05098009 -0.9985072
vn 0.01960766 0.05098009 -0.9985072
vn 0.003921509 -0.003921509 -0.9999846
vn 0.01960766 0.01176465 -0.9997385
vn 0.003921509 -0.003921509 -0.9999846
vn 0.01960766 0.01176465 -0.9997385
vn 0.05097997 0.0274508 -0.9983224
vn 0.05097997 0.0274508 -0.9983224
vn -0.003921628 0.003921628 -0.9999846
vn 0.01960766 -0.003921509 -0.9998001
vn -0.003921628 0.003921628 -0.9999846
vn 0.01960766 -0.003921509 -0.9998001
vn 0.05097997 -0.01176459 -0.9986304
vn 0.05097997 -0.01176459 -0.9986304
vn -0.003921628 0.003921628 -0.9999846
vn 0.01176459 -0.01176459 -0.9998616
vn -0.003921628 0.003921628 -0.9999846
vn 0.01176459 -0.01176459 -0.9998616
vn 0.03529382 -0.04313689 -0.9984456
vn 0.03529382 -0.04313689 -0.9984456
vn -0.003921628 0.003921628 -0.9999846
vn -0.003921628 -0.01960766 -0.9998001
vn 0.08235228 0.9999924 0
vn 0.08235228 0.9999924 0
vn 0.08235228 0.9999924 0
vn 0.08235228 0.9999924 0
vn -0.01960778 -0.003921509 0.9998001
vn -0.05098009 -0.01176459 0.9986304
vn -0.05098009 -0.01176459 0.9986304
vn -0.01960778 -0.003921509 0.9998001
vn -0.003921628 0.003921628 0.9999846
vn -0.003921628 0.003921628 0.9999846
vn -0.003921628 0.003921628 0.9999846
vn -0.01176465 -0.01176459 0.9998616
vn -0.003921628 0.003921628 0.9999846
vn -0.01176465 -0.01176459 0.9998616
vn -0.03529394 -0.04313689 0.9984456
vn -0.03529394 -0.04313689 0.9984456
vn -0.003921628 0.003921628 0.9999846
vn -0.003921628 -0.01960766 0.9998001
vn -0.003921628 0.003921628 0.9999846
vn -0.003921628 -0.01960766 0.9998001
vn -0.003921628 -0.05882305 0.9982607
vn -0.003921628 -0.05882305 0.9982607
vn -0.01960778 0.01176465 0.9997385
vn -0.003921628 -0.003921509 0.9999846
vn -0.01176465 0.01176465 0.9998616
vn -0.05098009 0.0274508 0.9983224
vn -0.05098009 0.0274508 0.9983224
vn -0.003921628 -0.003921509 0.9999846
vn -0.003921628 0.01960778 0.9998001
vn -0.003921628 0.003921628 0.9999846
vn -0.003921628 0.01960778 0.9998001
vn -0.01960778 0.05098009 0.9985072
vn -0.01960778 0.05098009 0.9985072
vn -0.003921628 0.003921628 0.9999846
vn 0.003921509 0.01960778 0.9998001
vn -0.003921628 0.003921628 0.9999846
vn 0.003921509 0.01960778 0.9998001
vn 0.01960766 0.05098009 0.9985072
vn 0.01960766 0.05098009 0.9985072
vn -0.003921628 -0.003921509 0.9999846
vn 0.01960766 0.01176465 0.9997385
vn 0.003921509 -0.003921509 0.9999846
vn 0.01960766 0.01176465 0.9997385
vn 0.05097997 0.0274508 0.9983224
vn 0.05097997 0.0274508 0.9983224
vn 0.003921509 -0.003921509 0.9999846
vn 0.01960766 -0.003921509 0.9998001
vn -0.003921628 0.003921628 0.9999846
vn 0.01960766 -0.003921509 0.9998001
vn 0.05097997 -0.01176459 0.9986304
vn 0.05097997 -0.01176459 0.9986304
vn -0.003921628 0.003921628 0.9999846
vn 0.01176459 -0.01176459 0.9998616
vn -0.003921628 0.003921628 0.9999846
vn 0.01176459 -0.01176459 0.9998616
vn 0.03529382 -0.04313689 0.9984456
vn 0.03529382 -0.04313689 0.9984456
vn -0.003921628 0.003921628 0.9999846
vn -0.003921628 -0.01960766 0.9998001
vn -0.003921628 0.003921628 0.9999846
vn 0.4117615 -0.9137185 0
vn 0.4117615 -0.9137185 0
vn 0.4117615 -0.9137185 0
vn 0.4117615 -0.9137185 0
vn 0.9058754 -0.4274477 0
vn 0.9058754 -0.4274477 0
vn 0.9058754 -0.4274477 0
vn 0.9058754 -0.4274477 0
vn -0.5764662 0.8196017 0
vn -0.5764662 0.8196017 0
vn -0.5764662 0.8196017 0
vn -0.5764662 0.8196017 0
vn 0.9686201 0.2549001 0
vn 0.9686201 0.2549001 0
vn 0.9686201 0.2549001 0
vn 0.9686201 0.2549001 0
vn -0.9686201 0.2549001 0
vn -0.9686201 0.2549001 0
vn -0.9686201 0.2549001 0
vn -0.9686201 0.2549001 0
vn 0.5764662 0.8196017 0
vn 0.5764662 0.8196017 0
vn 0.5764662 0.8196017 0
vn 0.5764662 0.8196017 0
vn -0.9058754 -0.4274477 0
vn -0.9058754 -0.4274477 0
vn -0.9058754 -0.4274477 0
vn -0.9058754 -0.4274477 0
vn -0.0823524 0.9999924 0
vn -0.0823524 0.9999924 0
vn -0.0823524 0.9999924 0
vn -0.0823524 0.9999924 0
vn -0.4196047 -0.9058754 -0.05763322
vn -0.4196047 -0.9058754 -0.05763322
vn -0.4196047 -0.9058754 -0.05763322
vn -0.4196047 -0.9058754 -0.05763322
vn -0.7019554 0.7097986 -0.0586898
vn -0.7019554 0.7097986 -0.0586898
vn -0.7019554 0.7097986 -0.0586898
vn -0.7019554 0.7097986 -0.0586898
vn 0.2627431 -0.9686201 0
vn 0.2627431 -0.9686201 0
vn 0.2627431 -0.9686201 0
vn 0.2627431 -0.9686201 0
vn -0.9921494 0.09019542 -0.08662822
vn -0.9921494 0.09019542 -0.08662822
vn -0.9921494 0.09019542 -0.08662822
vn -0.9921494 0.09019542 -0.08662822
vn 0.8196016 -0.5686231 -0.07014997
vn 0.8196016 -0.5686231 -0.07014997
vn 0.8196016 -0.5686231 -0.07014997
vn 0.8196016 -0.5686231 -0.07014997
vn -0.8196017 -0.5686231 -0.07014955
vn -0.8196017 -0.5686231 -0.07014955
vn -0.8196017 -0.5686231 -0.07014955
vn -0.8196017 -0.5686231 -0.07014955
vn 0.9921493 0.09019542 -0.08662891
vn 0.9921493 0.09019542 -0.08662891
vn 0.9921493 0.09019542 -0.08662891
vn 0.9921493 0.09019542 -0.08662891
vn -0.2627431 -0.960777 -0.08873361
vn -0.2627431 -0.960777 -0.08873361
vn -0.2627431 -0.960777 -0.08873361
vn -0.2627431 -0.960777 -0.08873361
vn 0.7019554 0.7097986 -0.0586898
vn 0.7019554 0.7097986 -0.0586898
vn 0.7019554 0.7097986 -0.0586898
vn 0.7019554 0.7097986 -0.0586898
vn 0.9372478 -0.3411738 -0.07188237
vn 0.7647001 -0.6392108 -0.08150696
vn 0.7647001 -0.6392108 -0.08150696
vn 0.9372478 -0.3411738 -0.07188237
vn 0.7647001 -0.6392108 -0.08150696
vn 0.4980354 -0.8666601 -0.02934465
vn 0.4980354 -0.8666601 -0.02934465
vn 0.7647001 -0.6392108 -0.08150696
vn 0.4980354 -0.8666601 -0.02934465
vn 0.1764692 -0.9843062 0
vn 0.1764692 -0.9843062 0
vn 0.4980354 -0.8666601 -0.02934465
vn 0.1764692 -0.9843062 0
vn -0.1764693 -0.9843062 0
vn -0.1764693 -0.9843062 0
vn 0.1764692 -0.9843062 0
vn -0.1764693 -0.9843062 0
vn -0.4980354 -0.8666601 -0.02934363
vn -0.4980354 -0.8666601 -0.02934363
vn -0.1764693 -0.9843062 0
vn -0.4980354 -0.8666601 -0.02934363
vn -0.7647001 -0.6392108 -0.08150696
vn -0.7647001 -0.6392108 -0.08150696
vn -0.4980354 -0.8666601 -0.02934363
vn -0.7647001 -0.6392108 -0.08150696
vn -0.9372478 -0.3411738 -0.07188237
vn -0.9372478 -0.3411738 -0.07188237
vn -0.7647001 -0.6392108 -0.08150696
vn -0.9372478 -0.3411738 -0.07188237
vn -0.9999924 -0.003921509 0
vn -0.9999924 -0.003921509 0
vn -0.9372478 -0.3411738 -0.07188237
vn -0.9999924 -0.003921509 0
vn -0.9372478 0.3411739 -0.07188205
vn -0.9372478 0.3411739 -0.07188205
vn -0.9999924 -0.003921509 0
vn -0.9372478 0.3411739 -0.07188205
vn -0.7647001 0.6392108 -0.08150696
vn -0.7647001 0.6392108 -0.08150696
vn -0.7647001 0.6392108 -0.08150696
vn -0.4980354 0.8666601 -0.0293416
vn -0.4980354 0.8666601 -0.0293416
vn -0.7647001 0.6392108 -0.08150696
vn -0.4980354 0.8666601 -0.0293416
vn -0.1764693 0.9843062 0
vn -0.1764693 0.9843062 0
vn -0.4980354 0.8666601 -0.0293416
vn 0.1764692 0.9843062 0
vn 0.1764692 0.9843062 0
vn 0.1764692 0.9843062 0
vn 0.4980354 0.8666601 -0.02934262
vn 0.4980354 0.8666601 -0.02934262
vn 0.1764692 0.9843062 0
vn 0.4980354 0.8666601 -0.02934262
vn 0.7647001 0.6392108 -0.08150696
vn 0.7647001 0.6392108 -0.08150696
vn 0.4980354 0.8666601 -0.02934262
vn 0.7647001 0.6392108 -0.08150696
vn 0.9372478 0.3411739 -0.07188205
vn 0.9372478 0.3411739 -0.07188205
vn 0.7647001 0.6392108 -0.08150696
vn 0.9372478 0.3411739 -0.07188205
vn 0.9999924 0.003921628 0
vn 0.9999924 0.003921628 0
vn 0.9372478 0.3411739 -0.07188205
vn 0.9999924 0.003921628 0
vn 0.9372478 -0.3411738 -0.07188237
vn 0.9372478 -0.3411738 -0.07188237
vn 0.9999924 0.003921628 0
vn -0.7097986 0.003921628 -0.7043937
vn -0.6627401 -0.2470569 -0.7069218
vn -0.6627401 -0.2392138 -0.7096142
vn -0.7097986 -0.003921509 -0.7043937
vn -0.6627401 -0.2470569 0.7069218
vn -0.7097986 0.003921628 0.7043937
vn -0.7097986 -0.003921509 0.7043937
vn -0.6627401 -0.2392138 0.7096142
vn -0.6627401 -0.2470569 -0.7069218
vn -0.5450939 -0.4509769 -0.7067478
vn -0.5372509 -0.45882 -0.7077045
vn -0.6627401 -0.2392138 -0.7096142
vn -0.5450939 -0.4509769 0.7067478
vn -0.6627401 -0.2470569 0.7069218
vn -0.6627401 -0.2392138 0.7096142
vn -0.5372509 -0.45882 0.7077045
vn -0.5450939 -0.4509769 -0.7067478
vn -0.349017 -0.6156815 -0.7064866
vn -0.35686 -0.6078385 -0.7093541
vn -0.5372509 -0.45882 -0.7077045
vn -0.349017 -0.6156815 0.7064866
vn -0.5450939 -0.4509769 0.7067478
vn -0.5372509 -0.45882 0.7077045
vn -0.35686 -0.6078385 0.7093541
vn -0.349017 -0.6156815 -0.7064866
vn -0.1215677 -0.6941123 -0.7095276
vn -0.1215677 -0.6941123 -0.7095276
vn -0.35686 -0.6078385 -0.7093541
vn -0.1215677 -0.6941123 0.7095276
vn -0.349017 -0.6156815 0.7064866
vn -0.35686 -0.6078385 0.7093541
vn -0.1215677 -0.6941123 0.7095276
vn -0.1215677 -0.6941123 -0.7095276
vn 0.1215677 -0.6941123 -0.7095276
vn 0.1215677 -0.6941123 -0.7095276
vn -0.1215677 -0.6941123 -0.7095276
vn 0.1215677 -0.6941123 0.7095276
vn -0.1215677 -0.6941123 0.7095276
vn -0.1215677 -0.6941123 0.7095276
vn 0.1215677 -0.6941123 0.7095276
vn 0.1215677 -0.6941123 -0.7095276
vn 0.3490169 -0.6156815 -0.7064867
vn 0.35686 -0.6078385 -0.7093542
vn 0.1215677 -0.6941123 -0.7095276
vn 0.3490169 -0.6156815 0.7064867
vn 0.1215677 -0.6941123 0.7095276
vn 0.1215677 -0.6941123 0.7095276
vn 0.35686 -0.6078385 0.7093542
vn 0.3490169 -0.6156815 -0.7064867
vn 0.5450939 -0.4509769 -0.7067478
vn 0.5372508 -0.45882 -0.7077047
vn 0.35686 -0.6078385 -0.7093542
vn 0.5450939 -0.4509769 0.7067478
vn 0.3490169 -0.6156815 0.7064867
vn 0.35686 -0.6078385 0.7093542
vn 0.5372508 -0.45882 0.7077047
vn 0.5450939 -0.4509769 -0.7067478
vn 0.66274 -0.2470569 -0.7069219
vn 0.66274 -0.2392138 -0.7096143
vn 0.5372508 -0.45882 -0.7077047
vn 0.66274 -0.2470569 0.7069219
vn 0.5450939 -0.4509769 0.7067478
vn 0.5372508 -0.45882 0.7077047
vn 0.66274 -0.2392138 0.7096143
vn 0.66274 -0.2470569 -0.7069219
vn 0.7097985 0.003921628 -0.7043939
vn 0.7097985 -0.003921509 -0.7043939
vn 0.66274 -0.2392138 -0.7096143
vn 0.7097985 0.003921628 0.7043939
vn 0.66274 -0.2470569 0.7069219
vn 0.66274 -0.2392138 0.7096143
vn 0.7097985 -0.003921509 0.7043939
vn 0.7097985 0.003921628 -0.7043939
vn 0.66274 0.2392139 -0.7096142
vn 0.66274 0.247057 -0.7069219
vn 0.7097985 -0.003921509 -0.7043939
vn 0.66274 0.2392139 0.7096142
vn 0.7097985 0.003921628 0.7043939
vn 0.7097985 -0.003921509 0.7043939
vn 0.66274 0.247057 0.7069219
vn 0.66274 0.2392139 -0.7096142
vn 0.5372508 0.4588201 -0.7077046
vn 0.5450939 0.450977 -0.7067478
vn 0.66274 0.247057 -0.7069219
vn 0.5372508 0.4588201 0.7077046
vn 0.66274 0.2392139 0.7096142
vn 0.66274 0.247057 0.7069219
vn 0.5450939 0.450977 0.7067478
vn 0.5372508 0.4588201 -0.7077046
vn 0.35686 0.6078385 -0.7093542
vn 0.3490169 0.6156816 -0.7064866
vn 0.5450939 0.450977 -0.7067478
vn 0.35686 0.6078385 0.7093542
vn 0.5372508 0.4588201 0.7077046
vn 0.5450939 0.450977 0.7067478
vn 0.3490169 0.6156816 0.7064866
vn 0.35686 0.6078385 -0.7093542
vn 0.1215677 0.6941124 -0.7095275
vn 0.1215677 0.6941124 -0.7095275
vn 0.3490169 0.6156816 -0.7064866
vn 0.1215677 0.6941124 0.7095275
vn 0.35686 0.6078385 0.7093542
vn 0.3490169 0.6156816 0.7064866
vn 0.1215677 0.6941124 0.7095275
vn 0.1215677 0.6941124 -0.7095275
vn -0.1215677 0.6941124 -0.7095274
vn -0.1215677 0.6941124 -0.7095274
vn 0.1215677 0.6941124 -0.7095275
vn -0.1215677 0.6941124 0.7095274
vn 0.1215677 0.6941124 0.7095275
vn 0.1215677 0.6941124 0.7095275
vn -0.1215677 0.6941124 0.7095274
vn -0.1215677 0.6941124 -0.7095274
vn -0.35686 0.6078385 -0.7093541
vn -0.349017 0.6156816 -0.7064865
vn -0.1215677 0.6941124 -0.7095274
vn -0.35686 0.6078385 0.7093541
vn -0.1215677 0.6941124 0.7095274
vn -0.1215677 0.6941124 0.7095274
vn -0.349017 0.6156816 0.7064865
vn -0.35686 0.6078385 -0.7093541
vn -0.5372509 0.4588201 -0.7077045
vn -0.5450939 0.450977 -0.7067478
vn -0.349017 0.6156816 -0.7064865
vn -0.5372509 0.4588201 0.7077045
vn -0.35686 0.6078385 0.7093541
vn -0.349017 0.6156816 0.7064865
vn -0.5450939 0.450977 0.7067478
vn -0.5372509 0.4588201 -0.7077045
vn -0.6627401 0.2392139 -0.7096141
vn -0.6627401 0.247057 -0.7069218
vn -0.5450939 0.450977 -0.7067478
vn -0.6627401 0.2392139 0.7096141
vn -0.5372509 0.4588201 0.7077045
vn -0.5450939 0.450977 0.7067478
vn -0.6627401 0.247057 0.7069218
vn -0.6627401 0.2392139 -0.7096141
vn -0.7097986 0.003921628 -0.7043937
vn -0.7097986 -0.003921509 -0.7043937
vn -0.6627401 0.247057 -0.7069218
vn -0.7097986 0.003921628 0.7043937
vn -0.6627401 0.2392139 0.7096141
vn -0.6627401 0.247057 0.7069218
vn -0.7097986 -0.003921509 0.7043937
g Cylinder077_0
f 3/3/3 2/2/2 1/1/1
f 4/4/4 3/3/3 1/1/1
f 7/7/7 6/6/6 5/5/5
f 8/8/8 7/7/7 5/5/5
f 11/11/11 10/10/10 9/9/9
f 12/12/12 11/11/11 9/9/9
f 15/15/15 14/14/14 13/13/13
f 16/16/16 15/15/15 13/13/13
f 19/19/19 18/18/18 17/17/17
f 20/20/20 19/19/19 17/17/17
f 23/23/23 22/22/22 21/21/21
f 24/24/24 23/23/23 21/21/21
f 27/27/27 26/26/26 25/25/25
f 28/28/28 27/27/27 25/25/25
f 31/31/31 30/30/30 29/29/29
f 32/32/32 31/31/31 29/29/29
f 35/35/35 34/34/34 33/33/33
f 36/36/36 35/35/35 33/33/33
f 39/39/39 38/38/38 37/37/37
f 40/40/40 39/39/39 37/37/37
f 43/43/43 42/42/42 41/41/41
f 44/44/44 43/43/43 41/41/41
f 47/47/47 46/46/46 45/45/45
f 48/48/48 47/47/47 45/45/45
f 51/51/51 50/50/50 49/49/49
f 52/52/52 51/51/51 49/49/49
f 55/55/55 54/54/54 53/53/53
f 56/56/56 55/55/55 53/53/53
f 59/59/59 58/58/58 57/57/57
f 60/60/60 59/59/59 57/57/57
f 63/63/63 62/62/62 61/61/61
f 64/64/64 63/63/63 61/61/61
f 67/67/67 66/66/66 65/65/65
f 68/68/68 67/67/67 65/65/65
f 71/71/71 70/70/70 69/69/69
f 72/72/72 71/71/71 69/69/69
f 75/75/75 74/74/74 73/73/73
f 76/76/76 75/75/75 73/73/73
f 73/73/73 77/77/77 76/76/76
f 77/77/77 78/78/78 76/76/76
f 76/76/76 78/78/78 79/79/79
f 78/78/78 80/80/80 79/79/79
f 79/79/79 80/80/80 81/81/81
f 81/81/81 82/82/82 79/79/79
f 82/82/82 83/83/83 79/79/79
f 80/80/80 84/84/84 81/81/81
f 81/81/81 84/84/84 85/85/85
f 84/84/84 86/86/86 85/85/85
f 85/85/85 86/86/86 87/87/87
f 87/87/87 88/88/88 85/85/85
f 88/88/88 89/89/89 85/85/85
f 86/86/86 90/90/90 87/87/87
f 91/91/91 77/77/77 73/73/73
f 92/92/92 91/91/91 73/73/73
f 93/93/93 91/91/91 92/92/92
f 94/94/94 93/93/93 92/92/92
f 92/92/92 95/95/95 94/94/94
f 95/95/95 96/96/96 94/94/94
f 97/97/97 93/93/93 94/94/94
f 98/98/98 97/97/97 94/94/94
f 99/99/99 97/97/97 98/98/98
f 100/100/100 99/99/99 98/98/98
f 98/98/98 101/101/101 100/100/100
f 101/101/101 102/102/102 100/100/100
f 103/103/103 99/99/99 100/100/100
f 104/104/104 103/103/103 100/100/100
f 105/105/105 103/103/103 104/104/104
f 106/106/106 105/105/105 104/104/104
f 104/104/104 107/107/107 106/106/106
f 107/107/107 108/108/108 106/106/106
f 109/109/109 105/105/105 106/106/106
f 110/110/110 109/109/109 106/106/106
f 111/111/111 109/109/109 110/110/110
f 112/112/112 111/111/111 110/110/110
f 110/110/110 113/113/113 112/112/112
f 113/113/113 114/114/114 112/112/112
f 115/115/115 111/111/111 112/112/112
f 116/116/116 115/115/115 112/112/112
f 117/117/117 115/115/115 116/116/116
f 118/118/118 117/117/117 116/116/116
f 116/116/116 119/119/119 118/118/118
f 119/119/119 120/120/120 118/118/118
f 121/121/121 117/117/117 118/118/118
f 122/122/122 121/121/121 118/118/118
f 123/123/123 121/121/121 122/122/122
f 124/124/124 123/123/123 122/122/122
f 122/122/122 125/125/125 124/124/124
f 125/125/125 126/126/126 124/124/124
f 127/127/127 123/123/123 124/124/124
f 128/128/128 127/127/127 124/124/124
f 131/131/131 130/130/130 129/129/129
f 132/132/132 131/131/131 129/129/129
f 135/135/135 134/134/134 133/133/133
f 136/136/136 135/135/135 133/133/133
f 133/133/133 137/137/137 136/136/136
f 137/137/137 138/138/138 136/136/136
f 139/139/139 137/137/137 133/133/133
f 140/140/140 139/139/139 133/133/133
f 141/141/141 139/139/139 140/140/140
f 142/142/142 141/141/141 140/140/140
f 140/140/140 143/143/143 142/142/142
f 143/143/143 144/144/144 142/142/142
f 145/145/145 141/141/141 142/142/142
f 146/146/146 145/145/145 142/142/142
f 147/147/147 145/145/145 146/146/146
f 148/148/148 147/147/147 146/146/146
f 146/146/146 149/149/149 148/148/148
f 149/149/149 150/150/150 148/148/148
f 136/136/136 138/138/138 151/151/151
f 138/138/138 152/152/152 151/151/151
f 151/151/151 152/152/152 153/153/153
f 153/153/153 154/154/154 151/151/151
f 154/154/154 155/155/155 151/151/151
f 152/152/152 156/156/156 153/153/153
f 153/153/153 156/156/156 157/157/157
f 156/156/156 158/158/158 157/157/157
f 157/157/157 158/158/158 159/159/159
f 159/159/159 160/160/160 157/157/157
f 160/160/160 161/161/161 157/157/157
f 158/158/158 162/162/162 159/159/159
f 159/159/159 162/162/162 163/163/163
f 162/162/162 164/164/164 163/163/163
f 163/163/163 164/164/164 165/165/165
f 165/165/165 166/166/166 163/163/163
f 166/166/166 167/167/167 163/163/163
f 164/164/164 168/168/168 165/165/165
f 165/165/165 168/168/168 169/169/169
f 168/168/168 170/170/170 169/169/169
f 169/169/169 170/170/170 171/171/171
f 171/171/171 172/172/172 169/169/169
f 172/172/172 173/173/173 169/169/169
f 170/170/170 174/174/174 171/171/171
f 171/171/171 174/174/174 175/175/175
f 174/174/174 176/176/176 175/175/175
f 175/175/175 176/176/176 177/177/177
f 177/177/177 178/178/178 175/175/175
f 178/178/178 179/179/179 175/175/175
f 176/176/176 180/180/180 177/177/177
f 177/177/177 180/180/180 181/181/181
f 180/180/180 182/182/182 181/181/181
f 181/181/181 182/182/182 183/183/183
f 183/183/183 184/184/184 181/181/181
f 184/184/184 185/185/185 181/181/181
f 182/182/182 186/186/186 183/183/183
f 183/183/183 186/186/186 187/187/187
f 186/186/186 188/188/188 187/187/187
f 191/191/191 190/190/190 189/189/189
f 192/192/192 191/191/191 189/189/189
f 195/195/195 194/194/194 193/193/193
f 196/196/196 195/195/195 193/193/193
f 199/199/199 198/198/198 197/197/197
f 200/200/200 199/199/199 197/197/197
f 203/203/203 202/202/202 201/201/201
f 204/204/204 203/203/203 201/201/201
f 207/207/207 206/206/206 205/205/205
f 208/208/208 207/207/207 205/205/205
f 211/211/211 210/210/210 209/209/209
f 212/212/212 211/211/211 209/209/209
f 215/215/215 214/214/214 213/213/213
f 216/216/216 215/215/215 213/213/213
f 219/219/219 218/218/218 217/217/217
f 220/220/220 219/219/219 217/217/217
f 223/223/223 222/222/222 221/221/221
f 224/224/224 223/223/223 221/221/221
f 227/227/227 226/226/226 225/225/225
f 228/228/228 227/227/227 225/225/225
f 231/231/231 230/230/230 229/229/229
f 232/232/232 231/231/231 229/229/229
f 235/235/235 234/234/234 233/233/233
f 236/236/236 235/235/235 233/233/233
f 239/239/239 238/238/238 237/237/237
f 240/240/240 239/239/239 237/237/237
f 243/243/243 242/242/242 241/241/241
f 244/244/244 243/243/243 241/241/241
f 247/247/247 246/246/246 245/245/245
f 248/248/248 247/247/247 245/245/245
f 251/251/251 250/250/250 249/249/249
f 252/252/252 251/251/251 249/249/249
f 255/255/255 254/254/254 253/253/253
f 256/256/256 255/255/255 253/253/253
f 259/259/259 258/258/258 257/257/257
f 260/260/260 259/259/259 257/257/257
f 263/263/263 262/262/262 261/261/261
f 264/264/264 263/263/263 261/261/261
f 267/267/267 266/266/266 265/265/265
f 268/268/268 267/267/267 265/265/265
f 271/271/271 270/270/270 269/269/269
f 272/272/272 271/271/271 269/269/269
f 275/275/275 274/274/274 273/273/273
f 276/276/276 275/275/275 273/273/273
f 279/279/279 278/278/278 277/277/277
f 280/280/280 279/279/279 277/277/277
f 283/283/283 282/282/282 281/281/281
f 284/284/284 283/283/283 281/281/281
f 287/287/287 286/286/286 285/285/285
f 288/288/288 287/287/287 285/285/285
f 291/291/291 290/290/290 289/289/289
f 292/292/292 291/291/291 289/289/289
f 291/291/291 294/294/294 293/293/293
f 294/294/294 295/295/295 293/293/293
f 298/298/298 297/297/297 296/296/296
f 299/299/299 298/298/298 296/296/296
f 302/302/302 301/301/301 300/300/300
f 303/303/303 302/302/302 300/300/300
f 302/302/302 304/304/304 301/301/301
f 304/304/304 305/305/305 301/301/301
f 308/308/308 307/307/307 306/306/306
f 309/309/309 308/308/308 306/306/306
f 312/312/312 311/311/311 310/310/310
f 313/313/313 312/312/312 310/310/310
f 316/316/316 315/315/315 314/314/314
f 317/317/317 316/316/316 314/314/314
f 320/320/320 319/319/319 318/318/318
f 321/321/321 320/320/320 318/318/318
f 324/324/324 323/323/323 322/322/322
f 325/325/325 324/324/324 322/322/322
f 328/328/328 327/327/327 326/326/326
f 329/329/329 328/328/328 326/326/326
f 332/332/332 331/331/331 330/330/330
f 333/333/333 332/332/332 330/330/330
f 336/336/336 335/335/335 334/334/334
f 337/337/337 336/336/336 334/334/334
f 340/340/340 339/339/339 338/338/338
f 341/341/341 340/340/340 338/338/338
f 344/344/344 343/343/343 342/342/342
f 345/345/345 344/344/344 342/342/342
f 348/348/348 347/347/347 346/346/346
f 349/349/349 348/348/348 346/346/346
f 352/352/352 351/351/351 350/350/350
f 353/353/353 352/352/352 350/350/350
f 356/356/356 355/355/355 354/354/354
f 357/357/357 356/356/356 354/354/354
f 360/360/360 359/359/359 358/358/358
f 361/361/361 360/360/360 358/358/358
f 364/364/364 363/363/363 362/362/362
f 365/365/365 364/364/364 362/362/362
f 368/368/368 367/367/367 366/366/366
f 369/369/369 368/368/368 366/366/366
f 372/372/372 371/371/371 370/370/370
f 373/373/373 372/372/372 370/370/370
f 376/376/376 375/375/375 374/374/374
f 377/377/377 376/376/376 374/374/374
f 380/380/380 379/379/379 378/378/378
f 381/381/381 380/380/380 378/378/378
f 384/384/384 383/383/383 382/382/382
f 385/385/385 384/384/384 382/382/382
f 388/388/388 387/387/387 386/386/386
f 389/389/389 388/388/388 386/386/386
f 392/392/392 391/391/391 390/390/390
f 393/393/393 392/392/392 390/390/390
f 396/396/396 395/395/395 394/394/394
f 397/397/397 396/396/396 394/394/394
f 400/400/400 399/399/399 398/398/398
f 401/401/401 400/400/400 398/398/398
f 404/404/404 403/403/403 402/402/402
f 405/405/405 404/404/404 402/402/402
f 408/408/408 407/407/407 406/406/406
f 409/409/409 408/408/408 406/406/406
f 412/412/412 411/411/411 410/410/410
f 413/413/413 412/412/412 410/410/410
f 416/416/416 415/415/415 414/414/414
f 417/417/417 416/416/416 414/414/414
f 420/420/420 419/419/419 418/418/418
f 421/421/421 420/420/420 418/418/418
f 424/424/424 423/423/423 422/422/422
f 425/425/425 424/424/424 422/422/422
f 428/428/428 427/427/427 426/426/426
f 429/429/429 428/428/428 426/426/426
f 432/432/432 431/431/431 430/430/430
f 433/433/433 432/432/432 430/430/430
f 436/436/436 435/435/435 434/434/434
f 437/437/437 436/436/436 434/434/434
f 440/440/440 439/439/439 438/438/438
f 441/441/441 440/440/440 438/438/438
f 444/444/444 443/443/443 442/442/442
f 445/445/445 444/444/444 442/442/442
f 448/448/448 447/447/447 446/446/446
f 449/449/449 448/448/448 446/446/446
f 452/452/452 451/451/451 450/450/450
f 453/453/453 452/452/452 450/450/450
f 456/456/456 455/455/455 454/454/454
f 457/457/457 456/456/456 454/454/454
f 460/460/460 459/459/459 458/458/458
f 461/461/461 460/460/460 458/458/458
f 464/464/464 463/463/463 462/462/462
f 465/465/465 464/464/464 462/462/462
f 468/468/468 467/467/467 466/466/466
f 469/469/469 468/468/468 466/466/466
