g Cylinder013
v -6.912487 -2.515857 1.067492
v -6.912487 -2.515857 -0.8155231
v -6.937729 1.911673 -0.8155231
v -6.937729 1.911673 1.067492
v -4.728128 -5.634697 1.067492
v -4.728128 -5.634697 -0.8155231
v -3.433228E-05 -7.355589 1.067492
v -3.433228E-05 -7.355589 -0.8155231
v -4.728128 5.634765 1.067492
v -6.937729 1.911673 1.067492
v -6.937729 1.911673 -0.8155231
v -4.728128 5.634765 -0.8155231
v -3.433228E-05 7.355658 1.067492
v -3.433228E-05 7.355658 -0.8155231
v 6.91242 -2.515857 1.067492
v 6.937662 1.911673 1.067492
v 6.937662 1.911673 -0.8155231
v 6.91242 -2.515857 -0.8155231
v 4.728061 -5.634697 1.067492
v 4.728061 -5.634697 -0.8155231
v -3.433228E-05 -7.355589 1.067492
v -3.433228E-05 -7.355589 -0.8155231
v 4.728061 5.634765 1.067492
v 4.728061 5.634765 -0.8155231
v 6.937662 1.911673 -0.8155231
v 6.937662 1.911673 1.067492
v -3.433228E-05 7.355658 1.067492
v -3.433228E-05 7.355658 -0.8155231
v -7.471458 -2.719356 2.866452
v -7.471458 -2.719356 1.410473
v -7.498783 2.06625 1.410473
v -7.498783 2.06625 2.866452
v -5.110404 -6.090358 2.866452
v -5.110404 -6.090358 1.410473
v -3.433228E-05 -7.950212 2.866452
v -3.433228E-05 -7.950212 1.410473
v -3.433228E-05 -7.950212 1.410473
v -3.433228E-05 -7.355589 1.067492
v -4.728128 -5.634697 1.067492
v -5.110404 -6.090358 1.410473
v -5.110404 -6.090358 1.410473
v -4.728128 -5.634697 1.067492
v -6.912487 -2.515857 1.067492
v -7.471458 -2.719356 1.410473
v -7.498783 2.06625 1.410473
v -7.471458 -2.719356 1.410473
v -6.912487 -2.515857 1.067492
v -6.937729 1.911673 1.067492
v -7.471458 -2.719356 2.866452
v -5.923879 -2.156221 2.866452
v -4.051793 -4.828769 2.866452
v -5.110404 -6.090358 2.866452
v -3.433228E-05 -6.303745 2.866452
v -3.433228E-05 -7.950212 2.866452
v -7.498783 2.06625 2.866452
v -5.945477 1.638173 2.866452
v -4.051793 4.828836 2.866452
v -5.110404 6.090165 2.866452
v -3.433228E-05 6.303552 2.866452
v -3.433228E-05 7.950279 2.866452
v 5.110336 -6.090358 2.866452
v 4.051987 -4.828769 2.866452
v 7.471391 -2.719356 2.866452
v 5.924071 -2.156221 2.866452
v 7.498715 2.06625 2.866452
v 5.94541 1.638173 2.866452
v 4.051987 4.828836 2.866452
v 5.110336 6.090165 2.866452
v -5.923879 -2.156221 2.866452
v -5.923879 -2.156221 0.8306837
v -4.051793 -4.828769 0.8306837
v -4.051793 -4.828769 2.866452
v -4.051793 -4.828769 2.866452
v -4.051793 -4.828769 0.8306837
v -3.433228E-05 -6.303745 0.8306837
v -3.433228E-05 -6.303745 2.866452
v -5.923879 -2.156221 2.866452
v -5.945477 1.638173 2.866452
v -5.945477 1.638173 0.8306837
v -5.923879 -2.156221 0.8306837
v -5.110404 6.090165 2.866452
v -7.498783 2.06625 2.866452
v -7.498783 2.06625 1.410473
v -5.110404 6.090165 1.410473
v -3.433228E-05 7.950279 2.866452
v -3.433228E-05 7.950279 1.410473
v -3.433228E-05 7.950279 1.410473
v -5.110404 6.090165 1.410473
v -4.728128 5.634765 1.067492
v -3.433228E-05 7.355658 1.067492
v -5.110404 6.090165 1.410473
v -7.498783 2.06625 1.410473
v -6.937729 1.911673 1.067492
v -4.728128 5.634765 1.067492
v -5.945477 1.638173 2.866452
v -4.051793 4.828836 2.866452
v -4.051793 4.828836 0.8306837
v -5.945477 1.638173 0.8306837
v -4.051793 4.828836 2.866452
v -3.433228E-05 6.303552 2.866452
v -3.433228E-05 6.303552 0.8306837
v -4.051793 4.828836 0.8306837
v 7.471391 -2.719356 2.866452
v 7.498715 2.06625 2.866452
v 7.498715 2.06625 1.410473
v 7.471391 -2.719356 1.410473
v 5.110336 -6.090358 2.866452
v 5.110336 -6.090358 1.410473
v -3.433228E-05 -7.950212 2.866452
v -3.433228E-05 -7.950212 1.410473
v -3.433228E-05 -7.950212 1.410473
v 5.110336 -6.090358 1.410473
v 4.728061 -5.634697 1.067492
v -3.433228E-05 -7.355589 1.067492
v 5.110336 -6.090358 1.410473
v 7.471391 -2.719356 1.410473
v 6.91242 -2.515857 1.067492
v 4.728061 -5.634697 1.067492
v 7.498715 2.06625 1.410473
v 6.937662 1.911673 1.067492
v 6.91242 -2.515857 1.067492
v 7.471391 -2.719356 1.410473
v 5.924071 -2.156221 2.866452
v 4.051987 -4.828769 2.866452
v 4.051987 -4.828769 0.8306837
v 5.924071 -2.156221 0.8306837
v 4.051987 -4.828769 2.866452
v -3.433228E-05 -6.303745 2.866452
v -3.433228E-05 -6.303745 0.8306837
v 4.051987 -4.828769 0.8306837
v 5.924071 -2.156221 2.866452
v 5.924071 -2.156221 0.8306837
v 5.94541 1.638173 0.8306837
v 5.94541 1.638173 2.866452
v 5.110336 6.090165 2.866452
v 5.110336 6.090165 1.410473
v 7.498715 2.06625 1.410473
v 7.498715 2.06625 2.866452
v -3.433228E-05 7.950279 2.866452
v -3.433228E-05 7.950279 1.410473
v -3.433228E-05 7.950279 1.410473
v -3.433228E-05 7.355658 1.067492
v 4.728061 5.634765 1.067492
v 5.110336 6.090165 1.410473
v 5.110336 6.090165 1.410473
v 4.728061 5.634765 1.067492
v 6.937662 1.911673 1.067492
v 7.498715 2.06625 1.410473
v 5.94541 1.638173 2.866452
v 5.94541 1.638173 0.8306837
v 4.051987 4.828836 0.8306837
v 4.051987 4.828836 2.866452
v 4.051987 4.828836 2.866452
v 4.051987 4.828836 0.8306837
v -3.433228E-05 6.303552 0.8306837
v -3.433228E-05 6.303552 2.866452
v -7.471458 -2.719356 -2.614483
v -7.471458 -2.719356 -1.158504
v -5.110404 -6.090358 -1.158504
v -5.110404 -6.090358 -2.614483
v -3.433228E-05 -7.950212 -1.158504
v -3.433228E-05 -7.950212 -2.614483
v -7.498783 2.06625 -1.158504
v -7.498783 2.06625 -2.614483
v -7.471458 -2.719356 -1.158504
v -6.912487 -2.515857 -0.8155231
v -4.728128 -5.634697 -0.8155231
v -5.110404 -6.090358 -1.158504
v -5.110404 -6.090358 -1.158504
v -4.728128 -5.634697 -0.8155231
v -3.433228E-05 -7.355589 -0.8155231
v -3.433228E-05 -7.950212 -1.158504
v -3.433228E-05 -7.510946 -2.614483
v -3.433228E-05 -7.510946 -5.426515
v -4.828055 -5.753622 -5.426515
v -4.828055 -5.753622 -2.614483
v -4.828055 -5.753622 -2.614483
v -4.828055 -5.753622 -5.426515
v -7.058475 -2.569204 -5.426515
v -7.058475 -2.569204 -2.614483
v -7.084238 1.952009 -2.614483
v -7.058475 -2.569204 -2.614483
v -7.058475 -2.569204 -5.426515
v -7.084238 1.952009 -5.426515
v -3.433228E-05 -7.510946 -5.426515
v -3.433228E-05 -6.632414 -6.940785
v -4.2631 -5.08067 -6.940785
v -4.828055 -5.753622 -5.426515
v -4.828055 -5.753622 -5.426515
v -4.2631 -5.08067 -6.940785
v -6.23277 -2.26864 -6.940785
v -7.058475 -2.569204 -5.426515
v -7.084238 1.952009 -5.426515
v -7.058475 -2.569204 -5.426515
v -6.23277 -2.26864 -6.940785
v -6.25541 1.723529 -6.940785
v -3.433228E-05 -6.632414 -6.940785
v -3.433228E-05 -4.655717 -8.455055
v -2.992663 -3.5664 -8.455055
v -4.2631 -5.08067 -6.940785
v -4.2631 -5.08067 -6.940785
v -2.992663 -3.5664 -8.455055
v -4.375257 -1.592566 -8.455055
v -6.23277 -2.26864 -6.940785
v -6.912487 -2.515857 -0.8155231
v -7.471458 -2.719356 -1.158504
v -7.498783 2.06625 -1.158504
v -6.937729 1.911673 -0.8155231
v -7.498783 2.06625 -2.614483
v -5.110404 6.090165 -2.614483
v -5.110404 6.090165 -1.158504
v -7.498783 2.06625 -1.158504
v -3.433228E-05 7.950279 -1.158504
v -3.433228E-05 7.950279 -2.614483
v -7.498783 2.06625 -1.158504
v -5.110404 6.090165 -1.158504
v -4.728128 5.634765 -0.8155231
v -6.937729 1.911673 -0.8155231
v -5.110404 6.090165 -1.158504
v -3.433228E-05 7.950279 -1.158504
v -3.433228E-05 7.355658 -0.8155231
v -4.728128 5.634765 -0.8155231
v -3.433228E-05 7.511013 -2.614483
v -4.828055 5.753689 -2.614483
v -4.828055 5.753689 -5.426515
v -3.433228E-05 7.511013 -5.426515
v -4.828055 5.753689 -2.614483
v -7.084238 1.952009 -2.614483
v -7.084238 1.952009 -5.426515
v -4.828055 5.753689 -5.426515
v -3.433228E-05 7.511013 -5.426515
v -4.828055 5.753689 -5.426515
v -4.2631 5.080738 -6.940785
v -3.433228E-05 6.632221 -6.940785
v -4.828055 5.753689 -5.426515
v -7.084238 1.952009 -5.426515
v -6.25541 1.723529 -6.940785
v -4.2631 5.080738 -6.940785
v -3.433228E-05 6.632221 -6.940785
v -4.2631 5.080738 -6.940785
v -2.992663 3.566467 -8.455055
v -3.433228E-05 4.655524 -8.455055
v -4.2631 5.080738 -6.940785
v -6.25541 1.723529 -6.940785
v -4.391132 1.209837 -8.455055
v -2.992663 3.566467 -8.455055
v -4.391132 1.209837 -8.455055
v -6.25541 1.723529 -6.940785
v -6.23277 -2.26864 -6.940785
v -4.375257 -1.592566 -8.455055
v -3.433228E-05 -4.655717 -8.455055
v -3.433228E-05 3.433228E-05 -9.103806
v -2.992663 -3.5664 -8.455055
v -2.992663 -3.5664 -8.455055
v -3.433228E-05 3.433228E-05 -9.103806
v -4.375257 -1.592566 -8.455055
v -4.375257 -1.592566 -8.455055
v -3.433228E-05 3.433228E-05 -9.103806
v -4.391132 1.209837 -8.455055
v -3.433228E-05 4.655524 -8.455055
v -2.992663 3.566467 -8.455055
v -3.433228E-05 3.433228E-05 -9.103806
v 2.992596 3.566467 -8.455055
v -2.992663 3.566467 -8.455055
v -4.391132 1.209837 -8.455055
v -3.433228E-05 3.433228E-05 -9.103806
v 7.471391 -2.719356 -2.614483
v 5.110336 -6.090358 -2.614483
v 5.110336 -6.090358 -1.158504
v 7.471391 -2.719356 -1.158504
v -3.433228E-05 -7.950212 -1.158504
v -3.433228E-05 -7.950212 -2.614483
v 7.498715 2.06625 -1.158504
v 7.498715 2.06625 -2.614483
v 7.471391 -2.719356 -1.158504
v 5.110336 -6.090358 -1.158504
v 4.728061 -5.634697 -0.8155231
v 6.91242 -2.515857 -0.8155231
v 5.110336 -6.090358 -1.158504
v -3.433228E-05 -7.950212 -1.158504
v -3.433228E-05 -7.355589 -0.8155231
v 4.728061 -5.634697 -0.8155231
v -3.433228E-05 -7.510946 -2.614483
v 4.827989 -5.753622 -2.614483
v 4.827989 -5.753622 -5.426515
v -3.433228E-05 -7.510946 -5.426515
v 4.827989 -5.753622 -2.614483
v 7.058669 -2.569204 -2.614483
v 7.058669 -2.569204 -5.426515
v 4.827989 -5.753622 -5.426515
v 7.084171 1.952009 -2.614483
v 7.084171 1.952009 -5.426515
v 7.058669 -2.569204 -5.426515
v 7.058669 -2.569204 -2.614483
v -3.433228E-05 -7.510946 -5.426515
v 4.827989 -5.753622 -5.426515
v 4.263032 -5.08067 -6.940785
v -3.433228E-05 -6.632414 -6.940785
v 4.827989 -5.753622 -5.426515
v 7.058669 -2.569204 -5.426515
v 6.232963 -2.26864 -6.940785
v 4.263032 -5.08067 -6.940785
v 7.084171 1.952009 -5.426515
v 6.255603 1.723529 -6.940785
v 6.232963 -2.26864 -6.940785
v 7.058669 -2.569204 -5.426515
v -3.433228E-05 -6.632414 -6.940785
v 4.263032 -5.08067 -6.940785
v 2.992596 -3.5664 -8.455055
v -3.433228E-05 -4.655717 -8.455055
v 4.263032 -5.08067 -6.940785
v 6.232963 -2.26864 -6.940785
v 4.375191 -1.592566 -8.455055
v 2.992596 -3.5664 -8.455055
v 6.91242 -2.515857 -0.8155231
v 6.937662 1.911673 -0.8155231
v 7.498715 2.06625 -1.158504
v 7.471391 -2.719356 -1.158504
v 7.498715 2.06625 -2.614483
v 7.498715 2.06625 -1.158504
v 5.110336 6.090165 -1.158504
v 5.110336 6.090165 -2.614483
v -3.433228E-05 7.950279 -1.158504
v -3.433228E-05 7.950279 -2.614483
v 7.498715 2.06625 -1.158504
v 6.937662 1.911673 -0.8155231
v 4.728061 5.634765 -0.8155231
v 5.110336 6.090165 -1.158504
v 5.110336 6.090165 -1.158504
v 4.728061 5.634765 -0.8155231
v -3.433228E-05 7.355658 -0.8155231
v -3.433228E-05 7.950279 -1.158504
v -3.433228E-05 7.511013 -2.614483
v -3.433228E-05 7.511013 -5.426515
v 4.827989 5.753689 -5.426515
v 4.827989 5.753689 -2.614483
v 4.827989 5.753689 -2.614483
v 4.827989 5.753689 -5.426515
v 7.084171 1.952009 -5.426515
v 7.084171 1.952009 -2.614483
v -3.433228E-05 7.511013 -5.426515
v -3.433228E-05 6.632221 -6.940785
v 4.263032 5.080738 -6.940785
v 4.827989 5.753689 -5.426515
v 4.827989 5.753689 -5.426515
v 4.263032 5.080738 -6.940785
v 6.255603 1.723529 -6.940785
v 7.084171 1.952009 -5.426515
v -3.433228E-05 6.632221 -6.940785
v -3.433228E-05 4.655524 -8.455055
v 2.992596 3.566467 -8.455055
v 4.263032 5.080738 -6.940785
v 4.263032 5.080738 -6.940785
v 2.992596 3.566467 -8.455055
v 4.391065 1.209837 -8.455055
v 6.255603 1.723529 -6.940785
v 4.391065 1.209837 -8.455055
v 4.375191 -1.592566 -8.455055
v 6.232963 -2.26864 -6.940785
v 6.255603 1.723529 -6.940785
v 2.992596 -3.5664 -8.455055
v -3.433228E-05 3.433228E-05 -9.103806
v -3.433228E-05 -4.655717 -8.455055
v 4.375191 -1.592566 -8.455055
v -3.433228E-05 3.433228E-05 -9.103806
v 2.992596 -3.5664 -8.455055
v 4.391065 1.209837 -8.455055
v -3.433228E-05 3.433228E-05 -9.103806
v 4.375191 -1.592566 -8.455055
v -3.433228E-05 3.433228E-05 -9.103806
v 4.391065 1.209837 -8.455055
v 2.992596 3.566467 -8.455055
v -3.433228E-05 -7.950212 -2.614483
v -3.433228E-05 -7.510946 -2.614483
v -4.828055 -5.753622 -2.614483
v -5.110404 -6.090358 -2.614483
v -7.058475 -2.569204 -2.614483
v -7.471458 -2.719356 -2.614483
v -7.498783 2.06625 -2.614483
v -7.084238 1.952009 -2.614483
v -5.110404 6.090165 -2.614483
v -4.828055 5.753689 -2.614483
v -3.433228E-05 7.950279 -2.614483
v -3.433228E-05 7.511013 -2.614483
v 4.827989 -5.753622 -2.614483
v 5.110336 -6.090358 -2.614483
v 7.058669 -2.569204 -2.614483
v 7.471391 -2.719356 -2.614483
v 7.498715 2.06625 -2.614483
v 7.084171 1.952009 -2.614483
v 4.827989 5.753689 -2.614483
v 5.110336 6.090165 -2.614483
v -5.923879 -2.156221 0.8306837
v -3.433228E-05 3.433228E-05 0.8306837
v -4.051793 -4.828769 0.8306837
v -5.945477 1.638173 0.8306837
v -4.051793 4.828836 0.8306837
v 4.051987 -4.828769 0.8306837
v 5.924071 -2.156221 0.8306837
v 4.051987 4.828836 0.8306837
v 5.94541 1.638173 0.8306837
v -4.051793 -4.828769 0.8306837
v -3.433228E-05 3.433228E-05 0.8306837
v -3.433228E-05 -6.303745 0.8306837
v 4.051987 -4.828769 0.8306837
v -4.051793 4.828836 0.8306837
v -3.433228E-05 6.303552 0.8306837
v 4.051987 4.828836 0.8306837
v -5.923879 -2.156221 0.8306837
v -5.945477 1.638173 0.8306837
v -3.433228E-05 3.433228E-05 0.8306837
v 5.94541 1.638173 0.8306837
v 5.924071 -2.156221 0.8306837
vt 0.2502444 0.7341154
vt 0.2502444 0.2658847
vt 0.2502444 0.2658847
vt 0.2502444 0.7341154
vt 0.3607038 0.7341154
vt 0.3607038 0.2658847
vt 0.4721408 0.7341154
vt 0.4721408 0.2658847
vt 0.3607038 0.7341154
vt 0.2502444 0.7341154
vt 0.2502444 0.2658847
vt 0.3607038 0.2658847
vt 0.4721408 0.7341154
vt 0.4721408 0.2658847
vt 0.2502444 0.7341154
vt 0.2502444 0.7341154
vt 0.2502444 0.2658847
vt 0.2502444 0.2658847
vt 0.3607038 0.7341154
vt 0.3607038 0.2658847
vt 0.4721408 0.7341154
vt 0.4721408 0.2658847
vt 0.3607038 0.7341154
vt 0.3607038 0.2658847
vt 0.2502444 0.2658847
vt 0.2502444 0.7341154
vt 0.4721408 0.7341154
vt 0.4721408 0.2658847
vt 0.2502444 1
vt 0.2502444 0.7341154
vt 0.2502444 0.7341154
vt 0.2502444 1
vt 0.3607038 1
vt 0.3607038 0.7341154
vt 0.4721408 1
vt 0.4721408 0.7341154
vt 0.4721408 0.7341154
vt 0.4721408 0.7341154
vt 0.3607038 0.7341154
vt 0.3607038 0.7341154
vt 0.3607038 0.7341154
vt 0.3607038 0.7341154
vt 0.2502444 0.7341154
vt 0.2502444 0.7341154
vt 0.2502444 0.7341154
vt 0.2502444 0.7341154
vt 0.2502444 0.7341154
vt 0.2502444 0.7341154
vt 0.2502444 1
vt 0.2502444 1
vt 0.3607038 1
vt 0.3607038 1
vt 0.4721408 1
vt 0.4721408 1
vt 0.2502444 1
vt 0.2502444 1
vt 0.3607038 1
vt 0.3607038 1
vt 0.4721408 1
vt 0.4721408 1
vt 0.3607038 1
vt 0.3607038 1
vt 0.2502444 1
vt 0.2502444 1
vt 0.2502444 1
vt 0.2502444 1
vt 0.3607038 1
vt 0.3607038 1
vt 0.2502444 1
vt 0.2502444 1
vt 0.3607038 1
vt 0.3607038 1
vt 0.3607038 1
vt 0.3607038 1
vt 0.4721408 1
vt 0.4721408 1
vt 0.2502444 1
vt 0.2502444 1
vt 0.2502444 1
vt 0.2502444 1
vt 0.3607038 1
vt 0.2502444 1
vt 0.2502444 0.7341154
vt 0.3607038 0.7341154
vt 0.4721408 1
vt 0.4721408 0.7341154
vt 0.4721408 0.7341154
vt 0.3607038 0.7341154
vt 0.3607038 0.7341154
vt 0.4721408 0.7341154
vt 0.3607038 0.7341154
vt 0.2502444 0.7341154
vt 0.2502444 0.7341154
vt 0.3607038 0.7341154
vt 0.2502444 1
vt 0.3607038 1
vt 0.3607038 1
vt 0.2502444 1
vt 0.3607038 1
vt 0.4721408 1
vt 0.4721408 1
vt 0.3607038 1
vt 0.2502444 1
vt 0.2502444 1
vt 0.2502444 0.7341154
vt 0.2502444 0.7341154
vt 0.3607038 1
vt 0.3607038 0.7341154
vt 0.4721408 1
vt 0.4721408 0.7341154
vt 0.4721408 0.7341154
vt 0.3607038 0.7341154
vt 0.3607038 0.7341154
vt 0.4721408 0.7341154
vt 0.3607038 0.7341154
vt 0.2502444 0.7341154
vt 0.2502444 0.7341154
vt 0.3607038 0.7341154
vt 0.2502444 0.7341154
vt 0.2502444 0.7341154
vt 0.2502444 0.7341154
vt 0.2502444 0.7341154
vt 0.2502444 1
vt 0.3607038 1
vt 0.3607038 1
vt 0.2502444 1
vt 0.3607038 1
vt 0.4721408 1
vt 0.4721408 1
vt 0.3607038 1
vt 0.2502444 1
vt 0.2502444 1
vt 0.2502444 1
vt 0.2502444 1
vt 0.3607038 1
vt 0.3607038 0.7341154
vt 0.2502444 0.7341154
vt 0.2502444 1
vt 0.4721408 1
vt 0.4721408 0.7341154
vt 0.4721408 0.7341154
vt 0.4721408 0.7341154
vt 0.3607038 0.7341154
vt 0.3607038 0.7341154
vt 0.3607038 0.7341154
vt 0.3607038 0.7341154
vt 0.2502444 0.7341154
vt 0.2502444 0.7341154
vt 0.2502444 1
vt 0.2502444 1
vt 0.3607038 1
vt 0.3607038 1
vt 0.3607038 1
vt 0.3607038 1
vt 0.4721408 1
vt 0.4721408 1
vt 0.2502444 0
vt 0.2502444 0.2658847
vt 0.3607038 0.2658847
vt 0.3607038 0
vt 0.4721408 0.2658847
vt 0.4721408 0
vt 0.2502444 0.2658847
vt 0.2502444 0
vt 0.2502444 0.2658847
vt 0.2502444 0.2658847
vt 0.3607038 0.2658847
vt 0.3607038 0.2658847
vt 0.3607038 0.2658847
vt 0.3607038 0.2658847
vt 0.4721408 0.2658847
vt 0.4721408 0.2658847
vt 0.9921799 0.4134897
vt 0.9921799 0.4134897
vt 0.8211144 0.1173021
vt 0.8211144 0.1173021
vt 0.8211144 0.1173021
vt 0.8211144 0.1173021
vt 0.4995112 0
vt 0.4995112 0
vt 0.4995112 0
vt 0.4995112 0
vt 0.4995112 0
vt 0.4995112 0
vt 0.9921799 0.4134897
vt 0.9921799 0.4134897
vt 0.8211144 0.1173021
vt 0.8211144 0.1173021
vt 0.8211144 0.1173021
vt 0.8211144 0.1173021
vt 0.4995112 0
vt 0.4995112 0
vt 0.4995112 0
vt 0.4995112 0
vt 0.4995112 0
vt 0.4995112 0
vt 0.9921799 0.4134897
vt 0.9921799 0.4134897
vt 0.8211144 0.1173021
vt 0.8211144 0.1173021
vt 0.8211144 0.1173021
vt 0.8211144 0.1173021
vt 0.4995112 0
vt 0.4995112 0
vt 0.2502444 0.2658847
vt 0.2502444 0.2658847
vt 0.2502444 0.2658847
vt 0.2502444 0.2658847
vt 0.2502444 0
vt 0.3607038 0
vt 0.3607038 0.2658847
vt 0.2502444 0.2658847
vt 0.4721408 0.2658847
vt 0.4721408 0
vt 0.2502444 0.2658847
vt 0.3607038 0.2658847
vt 0.3607038 0.2658847
vt 0.2502444 0.2658847
vt 0.3607038 0.2658847
vt 0.4721408 0.2658847
vt 0.4721408 0.2658847
vt 0.3607038 0.2658847
vt 0.9921799 0.4134897
vt 0.8211144 0.1173021
vt 0.8211144 0.1173021
vt 0.9921799 0.4134897
vt 0.8211144 0.1173021
vt 0.4995112 0
vt 0.4995112 0
vt 0.8211144 0.1173021
vt 0.9921799 0.4134897
vt 0.8211144 0.1173021
vt 0.8211144 0.1173021
vt 0.9921799 0.4134897
vt 0.8211144 0.1173021
vt 0.4995112 0
vt 0.4995112 0
vt 0.8211144 0.1173021
vt 0.9921799 0.4134897
vt 0.8211144 0.1173021
vt 0.8211144 0.1173021
vt 0.9921799 0.4134897
vt 0.8211144 0.1173021
vt 0.4995112 0
vt 0.4995112 0
vt 0.8211144 0.1173021
vt 0.4995112 0
vt 0.4995112 0
vt 0.4995112 0
vt 0.4995112 0
vt 0.9921799 0.4134897
vt 0.5004888 0.4995112
vt 0.8211144 0.1173021
vt 0.8211144 0.1173021
vt 0.4995112 0.4995112
vt 0.4995112 0
vt 0.4995112 0
vt 0.4995112 0.4995112
vt 0.4995112 0
vt 0.9921799 0.4134897
vt 0.8211144 0.1173021
vt 0.4995112 0.4995112
vt 0.8211144 0.1173021
vt 0.8211144 0.1173021
vt 0.4995112 0
vt 0.4995112 0.4995112
vt 0.2502444 0
vt 0.3607038 0
vt 0.3607038 0.2658847
vt 0.2502444 0.2658847
vt 0.4721408 0.2658847
vt 0.4721408 0
vt 0.2502444 0.2658847
vt 0.2502444 0
vt 0.2502444 0.2658847
vt 0.3607038 0.2658847
vt 0.3607038 0.2658847
vt 0.2502444 0.2658847
vt 0.3607038 0.2658847
vt 0.4721408 0.2658847
vt 0.4721408 0.2658847
vt 0.3607038 0.2658847
vt 0.9921799 0.4134897
vt 0.8211144 0.1173021
vt 0.8211144 0.1173021
vt 0.9921799 0.4134897
vt 0.8211144 0.1173021
vt 0.4995112 0
vt 0.4995112 0
vt 0.8211144 0.1173021
vt 0.4995112 0
vt 0.4995112 0
vt 0.4995112 0
vt 0.4995112 0
vt 0.9921799 0.4134897
vt 0.8211144 0.1173021
vt 0.8211144 0.1173021
vt 0.9921799 0.4134897
vt 0.8211144 0.1173021
vt 0.4995112 0
vt 0.4995112 0
vt 0.8211144 0.1173021
vt 0.4995112 0
vt 0.4995112 0
vt 0.4995112 0
vt 0.4995112 0
vt 0.9921799 0.4134897
vt 0.8211144 0.1173021
vt 0.8211144 0.1173021
vt 0.9921799 0.4134897
vt 0.8211144 0.1173021
vt 0.4995112 0
vt 0.4995112 0
vt 0.8211144 0.1173021
vt 0.2502444 0.2658847
vt 0.2502444 0.2658847
vt 0.2502444 0.2658847
vt 0.2502444 0.2658847
vt 0.2502444 0
vt 0.2502444 0.2658847
vt 0.3607038 0.2658847
vt 0.3607038 0
vt 0.4721408 0.2658847
vt 0.4721408 0
vt 0.2502444 0.2658847
vt 0.2502444 0.2658847
vt 0.3607038 0.2658847
vt 0.3607038 0.2658847
vt 0.3607038 0.2658847
vt 0.3607038 0.2658847
vt 0.4721408 0.2658847
vt 0.4721408 0.2658847
vt 0.9921799 0.4134897
vt 0.9921799 0.4134897
vt 0.8211144 0.1173021
vt 0.8211144 0.1173021
vt 0.8211144 0.1173021
vt 0.8211144 0.1173021
vt 0.4995112 0
vt 0.4995112 0
vt 0.9921799 0.4134897
vt 0.9921799 0.4134897
vt 0.8211144 0.1173021
vt 0.8211144 0.1173021
vt 0.8211144 0.1173021
vt 0.8211144 0.1173021
vt 0.4995112 0
vt 0.4995112 0
vt 0.9921799 0.4134897
vt 0.9921799 0.4134897
vt 0.8211144 0.1173021
vt 0.8211144 0.1173021
vt 0.8211144 0.1173021
vt 0.8211144 0.1173021
vt 0.4995112 0
vt 0.4995112 0
vt 0.4995112 0
vt 0.4995112 0
vt 0.4995112 0
vt 0.4995112 0
vt 0.8211144 0.1173021
vt 0.5004888 0.4995112
vt 0.9921799 0.4134897
vt 0.4995112 0
vt 0.4995112 0.4995112
vt 0.8211144 0.1173021
vt 0.4995112 0
vt 0.4995112 0.4995112
vt 0.4995112 0
vt 0.4995112 0.4995112
vt 0.4995112 0
vt 0.8211144 0.1173021
vt 0.9921799 0.4134897
vt 0.9921799 0.4134897
vt 0.8211144 0.1173021
vt 0.8211144 0.1173021
vt 0.4995112 0
vt 0.4995112 0
vt 0.4995112 0
vt 0.4995112 0
vt 0.8211144 0.1173021
vt 0.8211144 0.1173021
vt 0.9921799 0.4134897
vt 0.9921799 0.4134897
vt 0.8211144 0.1173021
vt 0.8211144 0.1173021
vt 0.4995112 0
vt 0.4995112 0
vt 0.4995112 0
vt 0.4995112 0
vt 0.8211144 0.1173021
vt 0.8211144 0.1173021
vt 0.2502444 1
vt 0.2218964 1
vt 0.3509286 1
vt 0.2502444 1
vt 0.3509286 1
vt 0.3509286 1
vt 0.2502444 1
vt 0.3509286 1
vt 0.2502444 1
vt 0.3607038 1
vt 0.6109482 1
vt 0.4721408 1
vt 0.3607038 1
vt 0.3607038 1
vt 0.4721408 1
vt 0.3607038 1
vt 0.2394917 1
vt 0.2394917 1
vt 0.1114369 1
vt 0.2394917 1
vt 0.2394917 1
vn -0.9529339 -0.3019584 -0.02716757
vn -0.9529339 -0.3019584 -0.02716757
vn -0.9686201 0.2627431 0
vn -0.9686201 0.2627431 0
vn -0.6078385 -0.7960724 0
vn -0.6078385 -0.7960724 0
vn -0.003921628 -0.9999924 0
vn -0.003921628 -0.9999924 0
vn -0.6392108 0.7725432 0
vn -0.9686201 0.2627431 0
vn -0.9686201 0.2627431 0
vn -0.6392108 0.7725432 0
vn -0.003921628 0.9999924 0
vn -0.003921628 0.9999924 0
vn 0.9529339 -0.3019584 -0.02716757
vn 0.9686201 0.2627431 0
vn 0.9686201 0.2627431 0
vn 0.9529339 -0.3019584 -0.02716757
vn 0.6078385 -0.7960724 0
vn 0.6078385 -0.7960724 0
vn -0.003921628 -0.9999924 0
vn -0.003921628 -0.9999924 0
vn 0.6392108 0.7725432 0
vn 0.6392108 0.7725432 0
vn 0.9686201 0.2627431 0
vn 0.9686201 0.2627431 0
vn -0.003921628 0.9999924 0
vn -0.003921628 0.9999924 0
vn -0.9529339 -0.3019584 -0.02716757
vn -0.9529339 -0.3019584 -0.02716757
vn -0.9686201 0.2627431 0
vn -0.9686201 0.2627431 0
vn -0.6078385 -0.7960724 0
vn -0.6078385 -0.7960724 0
vn -0.003921628 -0.9999924 0
vn -0.003921628 -0.9999924 0
vn -0.1764693 -0.4901923 -0.8535632
vn -0.1764693 -0.4901923 -0.8535632
vn -0.1764693 -0.4901923 -0.8535632
vn -0.1764693 -0.4901923 -0.8535632
vn -0.4196047 -0.2941154 -0.8587363
vn -0.4196047 -0.2941154 -0.8587363
vn -0.4196047 -0.2941154 -0.8587363
vn -0.4196047 -0.2941154 -0.8587363
vn -0.5215647 -0.003921509 -0.8532027
vn -0.5215647 -0.003921509 -0.8532027
vn -0.5215647 -0.003921509 -0.8532027
vn -0.5215647 -0.003921509 -0.8532027
vn -0.003921628 0.003921628 0.9999846
vn -0.003921628 0.003921628 0.9999846
vn -0.003921628 0.003921628 0.9999846
vn -0.003921628 0.003921628 0.9999846
vn -0.003921628 0.003921628 0.9999846
vn -0.003921628 0.003921628 0.9999846
vn -0.003921628 0.003921628 0.9999846
vn -0.003921628 0.003921628 0.9999846
vn -0.003921628 0.003921628 0.9999846
vn -0.003921628 0.003921628 0.9999846
vn -0.003921628 0.003921628 0.9999846
vn -0.003921628 0.003921628 0.9999846
vn -0.003921628 0.003921628 0.9999846
vn -0.003921628 0.003921628 0.9999846
vn -0.003921628 0.003921628 0.9999846
vn -0.003921628 0.003921628 0.9999846
vn -0.003921628 0.003921628 0.9999846
vn -0.003921628 0.003921628 0.9999846
vn -0.003921628 0.003921628 0.9999846
vn -0.003921628 0.003921628 0.9999846
vn 0.8196016 0.5764662 0
vn 0.8196016 0.5764662 0
vn 0.8196016 0.5764662 0
vn 0.8196016 0.5764662 0
vn 0.3411738 0.9372478 -0.07188231
vn 0.3411738 0.9372478 -0.07188231
vn 0.3411738 0.9372478 -0.07188231
vn 0.3411738 0.9372478 -0.07188231
vn 0.9999924 0.003921628 0
vn 0.9999924 0.003921628 0
vn 0.9999924 0.003921628 0
vn 0.9999924 0.003921628 0
vn -0.6392108 0.7725432 0
vn -0.9686201 0.2627431 0
vn -0.9686201 0.2627431 0
vn -0.6392108 0.7725432 0
vn -0.003921628 0.9999924 0
vn -0.003921628 0.9999924 0
vn -0.1764693 0.4901924 -0.8535631
vn -0.1764693 0.4901924 -0.8535631
vn -0.1764693 0.4901924 -0.8535631
vn -0.1764693 0.4901924 -0.8535631
vn -0.450977 0.2627431 -0.8529865
vn -0.450977 0.2627431 -0.8529865
vn -0.450977 0.2627431 -0.8529865
vn -0.450977 0.2627431 -0.8529865
vn 0.858817 -0.5137216 0
vn 0.858817 -0.5137216 0
vn 0.858817 -0.5137216 0
vn 0.858817 -0.5137216 0
vn 0.3411738 -0.9372478 -0.07188231
vn 0.3411738 -0.9372478 -0.07188231
vn 0.3411738 -0.9372478 -0.07188231
vn 0.3411738 -0.9372478 -0.07188231
vn 0.9529339 -0.3019584 -0.02716757
vn 0.9686201 0.2627431 0
vn 0.9686201 0.2627431 0
vn 0.9529339 -0.3019584 -0.02716757
vn 0.6078385 -0.7960724 0
vn 0.6078385 -0.7960724 0
vn -0.003921628 -0.9999924 0
vn -0.003921628 -0.9999924 0
vn 0.1764692 -0.4901923 -0.8535632
vn 0.1764692 -0.4901923 -0.8535632
vn 0.1764692 -0.4901923 -0.8535632
vn 0.1764692 -0.4901923 -0.8535632
vn 0.4196046 -0.2941154 -0.8587363
vn 0.4196046 -0.2941154 -0.8587363
vn 0.4196046 -0.2941154 -0.8587363
vn 0.4196046 -0.2941154 -0.8587363
vn 0.5215646 -0.003921509 -0.8532028
vn 0.5215646 -0.003921509 -0.8532028
vn 0.5215646 -0.003921509 -0.8532028
vn 0.5215646 -0.003921509 -0.8532028
vn -0.8196017 0.5764662 0
vn -0.8196017 0.5764662 0
vn -0.8196017 0.5764662 0
vn -0.8196017 0.5764662 0
vn -0.3411739 0.9372478 -0.0718819
vn -0.3411739 0.9372478 -0.0718819
vn -0.3411739 0.9372478 -0.0718819
vn -0.3411739 0.9372478 -0.0718819
vn -0.9999924 0.003921628 0
vn -0.9999924 0.003921628 0
vn -0.9999924 0.003921628 0
vn -0.9999924 0.003921628 0
vn 0.6392108 0.7725432 0
vn 0.6392108 0.7725432 0
vn 0.9686201 0.2627431 0
vn 0.9686201 0.2627431 0
vn -0.003921628 0.9999924 0
vn -0.003921628 0.9999924 0
vn 0.1764692 0.4901924 -0.8535631
vn 0.1764692 0.4901924 -0.8535631
vn 0.1764692 0.4901924 -0.8535631
vn 0.1764692 0.4901924 -0.8535631
vn 0.4509769 0.2627431 -0.8529865
vn 0.4509769 0.2627431 -0.8529865
vn 0.4509769 0.2627431 -0.8529865
vn 0.4509769 0.2627431 -0.8529865
vn -0.858817 -0.5137216 0
vn -0.858817 -0.5137216 0
vn -0.858817 -0.5137216 0
vn -0.858817 -0.5137216 0
vn -0.3411739 -0.9372478 -0.0718819
vn -0.3411739 -0.9372478 -0.0718819
vn -0.3411739 -0.9372478 -0.0718819
vn -0.3411739 -0.9372478 -0.0718819
vn -0.9529339 -0.3019584 -0.02716757
vn -0.9529339 -0.3019584 -0.02716757
vn -0.6078385 -0.7960724 0
vn -0.6078385 -0.7960724 0
vn -0.003921628 -0.9999924 0
vn -0.003921628 -0.9999924 0
vn -0.9686201 0.2627431 0
vn -0.9686201 0.2627431 0
vn -0.4196047 -0.2941154 0.8587363
vn -0.4196047 -0.2941154 0.8587363
vn -0.4196047 -0.2941154 0.8587363
vn -0.4196047 -0.2941154 0.8587363
vn -0.1764693 -0.4901923 0.8535632
vn -0.1764693 -0.4901923 0.8535632
vn -0.1764693 -0.4901923 0.8535632
vn -0.1764693 -0.4901923 0.8535632
vn -0.3411739 -0.9372478 -0.0718819
vn -0.3411739 -0.9372478 -0.0718819
vn -0.3411739 -0.9372478 -0.0718819
vn -0.3411739 -0.9372478 -0.0718819
vn -0.8196017 -0.5764662 0
vn -0.8196017 -0.5764662 0
vn -0.8196017 -0.5764662 0
vn -0.8196017 -0.5764662 0
vn -0.9999924 -0.003921509 0
vn -0.9999924 -0.003921509 0
vn -0.9999924 -0.003921509 0
vn -0.9999924 -0.003921509 0
vn -0.3019586 -0.8274447 -0.4734516
vn -0.3019586 -0.8274447 -0.4734516
vn -0.3019586 -0.8274447 -0.4734516
vn -0.3019586 -0.8274447 -0.4734516
vn -0.7176416 -0.4980354 -0.4867764
vn -0.7176416 -0.4980354 -0.4867764
vn -0.7176416 -0.4980354 -0.4867764
vn -0.7176416 -0.4980354 -0.4867764
vn -0.8745031 -0.003921509 -0.485004
vn -0.8745031 -0.003921509 -0.485004
vn -0.8745031 -0.003921509 -0.485004
vn -0.8745031 -0.003921509 -0.485004
vn -0.2156847 -0.5921524 -0.7764249
vn -0.2156847 -0.5921524 -0.7764249
vn -0.2156847 -0.5921524 -0.7764249
vn -0.2156847 -0.5921524 -0.7764249
vn -0.5058786 -0.35686 -0.7853266
vn -0.5058786 -0.35686 -0.7853266
vn -0.5058786 -0.35686 -0.7853266
vn -0.5058786 -0.35686 -0.7853266
vn -0.5215647 -0.003921509 0.8532027
vn -0.5215647 -0.003921509 0.8532027
vn -0.5215647 -0.003921509 0.8532027
vn -0.5215647 -0.003921509 0.8532027
vn -0.9686201 0.2627431 0
vn -0.6392108 0.7725432 0
vn -0.6392108 0.7725432 0
vn -0.9686201 0.2627431 0
vn -0.003921628 0.9999924 0
vn -0.003921628 0.9999924 0
vn -0.450977 0.2627431 0.8529865
vn -0.450977 0.2627431 0.8529865
vn -0.450977 0.2627431 0.8529865
vn -0.450977 0.2627431 0.8529865
vn -0.1764693 0.4901924 0.8535631
vn -0.1764693 0.4901924 0.8535631
vn -0.1764693 0.4901924 0.8535631
vn -0.1764693 0.4901924 0.8535631
vn -0.3411739 0.9372478 -0.0718819
vn -0.3411739 0.9372478 -0.0718819
vn -0.3411739 0.9372478 -0.0718819
vn -0.3411739 0.9372478 -0.0718819
vn -0.858817 0.5137216 0
vn -0.858817 0.5137216 0
vn -0.858817 0.5137216 0
vn -0.858817 0.5137216 0
vn -0.3019586 0.8274447 -0.4734516
vn -0.3019586 0.8274447 -0.4734516
vn -0.3019586 0.8274447 -0.4734516
vn -0.3019586 0.8274447 -0.4734516
vn -0.756857 0.450977 -0.4730615
vn -0.756857 0.450977 -0.4730615
vn -0.756857 0.450977 -0.4730615
vn -0.756857 0.450977 -0.4730615
vn -0.2156847 0.5921524 -0.7764249
vn -0.2156847 0.5921524 -0.7764249
vn -0.2156847 0.5921524 -0.7764249
vn -0.2156847 0.5921524 -0.7764249
vn -0.5450939 0.3254877 -0.7726127
vn -0.5450939 0.3254877 -0.7726127
vn -0.5450939 0.3254877 -0.7726127
vn -0.5450939 0.3254877 -0.7726127
vn -0.6313678 -0.003921509 -0.7754736
vn -0.6313678 -0.003921509 -0.7754736
vn -0.6313678 -0.003921509 -0.7754736
vn -0.6313678 -0.003921509 -0.7754736
vn -0.05098009 -0.1372538 -0.9892232
vn -0.05098009 -0.1372538 -0.9892232
vn -0.05098009 -0.1372538 -0.9892232
vn -0.1137247 -0.08235228 -0.9900934
vn -0.1137247 -0.08235228 -0.9900934
vn -0.1137247 -0.08235228 -0.9900934
vn -0.145097 -0.003921509 -0.9894097
vn -0.145097 -0.003921509 -0.9894097
vn -0.145097 -0.003921509 -0.9894097
vn -0.003921628 0.1372539 -0.9905281
vn -0.003921628 0.1372539 -0.9905281
vn -0.003921628 0.1372539 -0.9905281
vn -0.003921628 0.1372539 -0.9905281
vn -0.1294109 0.07450926 -0.9887877
vn -0.1294109 0.07450926 -0.9887877
vn -0.1294109 0.07450926 -0.9887877
vn 0.9529339 -0.3019584 -0.02716757
vn 0.6078385 -0.7960724 0
vn 0.6078385 -0.7960724 0
vn 0.9529339 -0.3019584 -0.02716757
vn -0.003921628 -0.9999924 0
vn -0.003921628 -0.9999924 0
vn 0.9686201 0.2627431 0
vn 0.9686201 0.2627431 0
vn 0.4196046 -0.2941154 0.8587363
vn 0.4196046 -0.2941154 0.8587363
vn 0.4196046 -0.2941154 0.8587363
vn 0.4196046 -0.2941154 0.8587363
vn 0.1764692 -0.4901923 0.8535632
vn 0.1764692 -0.4901923 0.8535632
vn 0.1764692 -0.4901923 0.8535632
vn 0.1764692 -0.4901923 0.8535632
vn 0.3411738 -0.9372478 -0.07188231
vn 0.3411738 -0.9372478 -0.07188231
vn 0.3411738 -0.9372478 -0.07188231
vn 0.3411738 -0.9372478 -0.07188231
vn 0.8196016 -0.5764662 0
vn 0.8196016 -0.5764662 0
vn 0.8196016 -0.5764662 0
vn 0.8196016 -0.5764662 0
vn 0.9999924 -0.003921509 0
vn 0.9999924 -0.003921509 0
vn 0.9999924 -0.003921509 0
vn 0.9999924 -0.003921509 0
vn 0.3019584 -0.8274447 -0.4734516
vn 0.3019584 -0.8274447 -0.4734516
vn 0.3019584 -0.8274447 -0.4734516
vn 0.3019584 -0.8274447 -0.4734516
vn 0.7176416 -0.4980354 -0.4867764
vn 0.7176416 -0.4980354 -0.4867764
vn 0.7176416 -0.4980354 -0.4867764
vn 0.7176416 -0.4980354 -0.4867764
vn 0.8745031 -0.003921509 -0.485004
vn 0.8745031 -0.003921509 -0.485004
vn 0.8745031 -0.003921509 -0.485004
vn 0.8745031 -0.003921509 -0.485004
vn 0.2156846 -0.5921524 -0.776425
vn 0.2156846 -0.5921524 -0.776425
vn 0.2156846 -0.5921524 -0.776425
vn 0.2156846 -0.5921524 -0.776425
vn 0.5058784 -0.35686 -0.7853267
vn 0.5058784 -0.35686 -0.7853267
vn 0.5058784 -0.35686 -0.7853267
vn 0.5058784 -0.35686 -0.7853267
vn 0.5215646 -0.003921509 0.8532028
vn 0.5215646 -0.003921509 0.8532028
vn 0.5215646 -0.003921509 0.8532028
vn 0.5215646 -0.003921509 0.8532028
vn 0.9686201 0.2627431 0
vn 0.9686201 0.2627431 0
vn 0.6392108 0.7725432 0
vn 0.6392108 0.7725432 0
vn -0.003921628 0.9999924 0
vn -0.003921628 0.9999924 0
vn 0.4509769 0.2627431 0.8529865
vn 0.4509769 0.2627431 0.8529865
vn 0.4509769 0.2627431 0.8529865
vn 0.4509769 0.2627431 0.8529865
vn 0.1764692 0.4901924 0.8535631
vn 0.1764692 0.4901924 0.8535631
vn 0.1764692 0.4901924 0.8535631
vn 0.1764692 0.4901924 0.8535631
vn 0.3411738 0.9372478 -0.07188231
vn 0.3411738 0.9372478 -0.07188231
vn 0.3411738 0.9372478 -0.07188231
vn 0.3411738 0.9372478 -0.07188231
vn 0.858817 0.5137216 0
vn 0.858817 0.5137216 0
vn 0.858817 0.5137216 0
vn 0.858817 0.5137216 0
vn 0.3019584 0.8274447 -0.4734516
vn 0.3019584 0.8274447 -0.4734516
vn 0.3019584 0.8274447 -0.4734516
vn 0.3019584 0.8274447 -0.4734516
vn 0.756857 0.450977 -0.4730616
vn 0.756857 0.450977 -0.4730616
vn 0.756857 0.450977 -0.4730616
vn 0.756857 0.450977 -0.4730616
vn 0.2156846 0.5921524 -0.776425
vn 0.2156846 0.5921524 -0.776425
vn 0.2156846 0.5921524 -0.776425
vn 0.2156846 0.5921524 -0.776425
vn 0.5450939 0.3254877 -0.7726127
vn 0.5450939 0.3254877 -0.7726127
vn 0.5450939 0.3254877 -0.7726127
vn 0.5450939 0.3254877 -0.7726127
vn 0.6313677 -0.003921509 -0.7754737
vn 0.6313677 -0.003921509 -0.7754737
vn 0.6313677 -0.003921509 -0.7754737
vn 0.6313677 -0.003921509 -0.7754737
vn 0.05097997 -0.1372538 -0.9892232
vn 0.05097997 -0.1372538 -0.9892232
vn 0.05097997 -0.1372538 -0.9892232
vn 0.1137246 -0.08235228 -0.9900934
vn 0.1137246 -0.08235228 -0.9900934
vn 0.1137246 -0.08235228 -0.9900934
vn 0.1450969 -0.003921509 -0.9894097
vn 0.1450969 -0.003921509 -0.9894097
vn 0.1450969 -0.003921509 -0.9894097
vn 0.1294107 0.07450926 -0.9887878
vn 0.1294107 0.07450926 -0.9887878
vn 0.1294107 0.07450926 -0.9887878
vn -0.003921628 0.003921628 -0.9999846
vn -0.003921628 0.003921628 -0.9999846
vn -0.003921628 0.003921628 -0.9999846
vn -0.003921628 0.003921628 -0.9999846
vn -0.003921628 0.003921628 -0.9999846
vn -0.003921628 0.003921628 -0.9999846
vn -0.003921628 0.003921628 -0.9999846
vn -0.003921628 0.003921628 -0.9999846
vn -0.003921628 0.003921628 -0.9999846
vn -0.003921628 0.003921628 -0.9999846
vn -0.003921628 0.003921628 -0.9999846
vn -0.003921628 0.003921628 -0.9999846
vn -0.003921628 0.003921628 -0.9999846
vn -0.003921628 0.003921628 -0.9999846
vn -0.003921628 0.003921628 -0.9999846
vn -0.003921628 0.003921628 -0.9999846
vn -0.003921628 0.003921628 -0.9999846
vn -0.003921628 0.003921628 -0.9999846
vn -0.003921628 0.003921628 -0.9999846
vn -0.003921628 0.003921628 -0.9999846
vn -0.003921628 0.003921628 0.9999846
vn -0.003921628 0.003921628 0.9999846
vn -0.003921628 0.003921628 0.9999846
vn -0.003921628 0.003921628 0.9999846
vn -0.003921628 0.003921628 0.9999846
vn -0.003921628 0.003921628 0.9999846
vn -0.003921628 0.003921628 0.9999846
vn -0.003921628 0.003921628 0.9999846
vn -0.003921628 0.003921628 0.9999846
vn -0.003921628 0.003921628 0.9999846
vn -0.003921628 0.003921628 0.9999846
vn -0.003921628 0.003921628 0.9999846
vn -0.003921628 0.003921628 0.9999846
vn -0.003921628 0.003921628 0.9999846
vn -0.003921628 0.003921628 0.9999846
vn -0.003921628 0.003921628 0.9999846
vn -0.003921628 0.003921628 0.9999846
vn -0.003921628 0.003921628 0.9999846
vn -0.003921628 0.003921628 0.9999846
vn -0.003921628 0.003921628 0.9999846
vn -0.003921628 0.003921628 0.9999846
g Cylinder013_0
f 3/3/3 2/2/2 1/1/1
f 4/4/4 3/3/3 1/1/1
f 1/1/1 2/2/2 5/5/5
f 2/2/2 6/6/6 5/5/5
f 5/5/5 6/6/6 7/7/7
f 6/6/6 8/8/8 7/7/7
f 11/11/11 10/10/10 9/9/9
f 12/12/12 11/11/11 9/9/9
f 12/12/12 9/9/9 13/13/13
f 14/14/14 12/12/12 13/13/13
f 17/17/17 16/16/16 15/15/15
f 18/18/18 17/17/17 15/15/15
f 18/18/18 15/15/15 19/19/19
f 20/20/20 18/18/18 19/19/19
f 20/20/20 19/19/19 21/21/21
f 22/22/22 20/20/20 21/21/21
f 25/25/25 24/24/24 23/23/23
f 26/26/26 25/25/25 23/23/23
f 23/23/23 24/24/24 27/27/27
f 24/24/24 28/28/28 27/27/27
g Cylinder013_1
f 31/31/31 30/30/30 29/29/29
f 32/32/32 31/31/31 29/29/29
f 29/29/29 30/30/30 33/33/33
f 30/30/30 34/34/34 33/33/33
f 33/33/33 34/34/34 35/35/35
f 34/34/34 36/36/36 35/35/35
f 39/39/39 38/38/38 37/37/37
f 40/40/40 39/39/39 37/37/37
f 43/43/43 42/42/42 41/41/41
f 44/44/44 43/43/43 41/41/41
f 47/47/47 46/46/46 45/45/45
f 48/48/48 47/47/47 45/45/45
f 51/51/51 50/50/50 49/49/49
f 52/52/52 51/51/51 49/49/49
f 53/53/53 51/51/51 52/52/52
f 54/54/54 53/53/53 52/52/52
f 55/55/55 49/49/49 50/50/50
f 56/56/56 55/55/55 50/50/50
f 56/56/56 57/57/57 55/55/55
f 57/57/57 58/58/58 55/55/55
f 57/57/57 59/59/59 58/58/58
f 59/59/59 60/60/60 58/58/58
f 53/53/53 54/54/54 61/61/61
f 62/62/62 53/53/53 61/61/61
f 62/62/62 61/61/61 63/63/63
f 64/64/64 62/62/62 63/63/63
f 63/63/63 65/65/65 64/64/64
f 65/65/65 66/66/66 64/64/64
f 67/67/67 66/66/66 65/65/65
f 68/68/68 67/67/67 65/65/65
f 59/59/59 67/67/67 68/68/68
f 60/60/60 59/59/59 68/68/68
f 71/71/71 70/70/70 69/69/69
f 72/72/72 71/71/71 69/69/69
f 75/75/75 74/74/74 73/73/73
f 76/76/76 75/75/75 73/73/73
f 79/79/79 78/78/78 77/77/77
f 80/80/80 79/79/79 77/77/77
f 83/83/83 82/82/82 81/81/81
f 84/84/84 83/83/83 81/81/81
f 84/84/84 81/81/81 85/85/85
f 86/86/86 84/84/84 85/85/85
f 89/89/89 88/88/88 87/87/87
f 90/90/90 89/89/89 87/87/87
f 93/93/93 92/92/92 91/91/91
f 94/94/94 93/93/93 91/91/91
f 97/97/97 96/96/96 95/95/95
f 98/98/98 97/97/97 95/95/95
f 101/101/101 100/100/100 99/99/99
f 102/102/102 101/101/101 99/99/99
f 105/105/105 104/104/104 103/103/103
f 106/106/106 105/105/105 103/103/103
f 106/106/106 103/103/103 107/107/107
f 108/108/108 106/106/106 107/107/107
f 108/108/108 107/107/107 109/109/109
f 110/110/110 108/108/108 109/109/109
f 113/113/113 112/112/112 111/111/111
f 114/114/114 113/113/113 111/111/111
f 117/117/117 116/116/116 115/115/115
f 118/118/118 117/117/117 115/115/115
f 121/121/121 120/120/120 119/119/119
f 122/122/122 121/121/121 119/119/119
f 125/125/125 124/124/124 123/123/123
f 126/126/126 125/125/125 123/123/123
f 129/129/129 128/128/128 127/127/127
f 130/130/130 129/129/129 127/127/127
f 133/133/133 132/132/132 131/131/131
f 134/134/134 133/133/133 131/131/131
f 137/137/137 136/136/136 135/135/135
f 138/138/138 137/137/137 135/135/135
f 135/135/135 136/136/136 139/139/139
f 136/136/136 140/140/140 139/139/139
f 143/143/143 142/142/142 141/141/141
f 144/144/144 143/143/143 141/141/141
f 147/147/147 146/146/146 145/145/145
f 148/148/148 147/147/147 145/145/145
f 151/151/151 150/150/150 149/149/149
f 152/152/152 151/151/151 149/149/149
f 155/155/155 154/154/154 153/153/153
f 156/156/156 155/155/155 153/153/153
g Cylinder013_2
f 159/159/159 158/158/158 157/157/157
f 160/160/160 159/159/159 157/157/157
f 161/161/161 159/159/159 160/160/160
f 162/162/162 161/161/161 160/160/160
f 158/158/158 163/163/163 157/157/157
f 163/163/163 164/164/164 157/157/157
f 167/167/167 166/166/166 165/165/165
f 168/168/168 167/167/167 165/165/165
f 171/171/171 170/170/170 169/169/169
f 172/172/172 171/171/171 169/169/169
f 175/175/175 174/174/174 173/173/173
f 176/176/176 175/175/175 173/173/173
f 179/179/179 178/178/178 177/177/177
f 180/180/180 179/179/179 177/177/177
f 183/183/183 182/182/182 181/181/181
f 184/184/184 183/183/183 181/181/181
f 187/187/187 186/186/186 185/185/185
f 188/188/188 187/187/187 185/185/185
f 191/191/191 190/190/190 189/189/189
f 192/192/192 191/191/191 189/189/189
f 195/195/195 194/194/194 193/193/193
f 196/196/196 195/195/195 193/193/193
f 199/199/199 198/198/198 197/197/197
f 200/200/200 199/199/199 197/197/197
f 203/203/203 202/202/202 201/201/201
f 204/204/204 203/203/203 201/201/201
f 207/207/207 206/206/206 205/205/205
f 208/208/208 207/207/207 205/205/205
f 211/211/211 210/210/210 209/209/209
f 212/212/212 211/211/211 209/209/209
f 211/211/211 213/213/213 210/210/210
f 213/213/213 214/214/214 210/210/210
f 217/217/217 216/216/216 215/215/215
f 218/218/218 217/217/217 215/215/215
f 221/221/221 220/220/220 219/219/219
f 222/222/222 221/221/221 219/219/219
f 225/225/225 224/224/224 223/223/223
f 226/226/226 225/225/225 223/223/223
f 229/229/229 228/228/228 227/227/227
f 230/230/230 229/229/229 227/227/227
f 233/233/233 232/232/232 231/231/231
f 234/234/234 233/233/233 231/231/231
f 237/237/237 236/236/236 235/235/235
f 238/238/238 237/237/237 235/235/235
f 241/241/241 240/240/240 239/239/239
f 242/242/242 241/241/241 239/239/239
f 245/245/245 244/244/244 243/243/243
f 246/246/246 245/245/245 243/243/243
f 249/249/249 248/248/248 247/247/247
f 250/250/250 249/249/249 247/247/247
f 253/253/253 252/252/252 251/251/251
f 256/256/256 255/255/255 254/254/254
f 259/259/259 258/258/258 257/257/257
f 262/262/262 261/261/261 260/260/260
f 263/263/263 262/262/262 260/260/260
f 266/266/266 265/265/265 264/264/264
f 269/269/269 268/268/268 267/267/267
f 270/270/270 269/269/269 267/267/267
f 269/269/269 271/271/271 268/268/268
f 271/271/271 272/272/272 268/268/268
f 273/273/273 270/270/270 267/267/267
f 274/274/274 273/273/273 267/267/267
f 277/277/277 276/276/276 275/275/275
f 278/278/278 277/277/277 275/275/275
f 281/281/281 280/280/280 279/279/279
f 282/282/282 281/281/281 279/279/279
f 285/285/285 284/284/284 283/283/283
f 286/286/286 285/285/285 283/283/283
f 289/289/289 288/288/288 287/287/287
f 290/290/290 289/289/289 287/287/287
f 293/293/293 292/292/292 291/291/291
f 294/294/294 293/293/293 291/291/291
f 297/297/297 296/296/296 295/295/295
f 298/298/298 297/297/297 295/295/295
f 301/301/301 300/300/300 299/299/299
f 302/302/302 301/301/301 299/299/299
f 305/305/305 304/304/304 303/303/303
f 306/306/306 305/305/305 303/303/303
f 309/309/309 308/308/308 307/307/307
f 310/310/310 309/309/309 307/307/307
f 313/313/313 312/312/312 311/311/311
f 314/314/314 313/313/313 311/311/311
f 317/317/317 316/316/316 315/315/315
f 318/318/318 317/317/317 315/315/315
f 321/321/321 320/320/320 319/319/319
f 322/322/322 321/321/321 319/319/319
f 323/323/323 321/321/321 322/322/322
f 324/324/324 323/323/323 322/322/322
f 327/327/327 326/326/326 325/325/325
f 328/328/328 327/327/327 325/325/325
f 331/331/331 330/330/330 329/329/329
f 332/332/332 331/331/331 329/329/329
f 335/335/335 334/334/334 333/333/333
f 336/336/336 335/335/335 333/333/333
f 339/339/339 338/338/338 337/337/337
f 340/340/340 339/339/339 337/337/337
f 343/343/343 342/342/342 341/341/341
f 344/344/344 343/343/343 341/341/341
f 347/347/347 346/346/346 345/345/345
f 348/348/348 347/347/347 345/345/345
f 351/351/351 350/350/350 349/349/349
f 352/352/352 351/351/351 349/349/349
f 355/355/355 354/354/354 353/353/353
f 356/356/356 355/355/355 353/353/353
f 359/359/359 358/358/358 357/357/357
f 360/360/360 359/359/359 357/357/357
f 363/363/363 362/362/362 361/361/361
f 366/366/366 365/365/365 364/364/364
f 369/369/369 368/368/368 367/367/367
f 372/372/372 371/371/371 370/370/370
g Cylinder013_3
f 375/375/375 374/374/374 373/373/373
f 376/376/376 375/375/375 373/373/373
f 377/377/377 375/375/375 376/376/376
f 378/378/378 377/377/377 376/376/376
f 377/377/377 378/378/378 379/379/379
f 380/380/380 377/377/377 379/379/379
f 380/380/380 379/379/379 381/381/381
f 382/382/382 380/380/380 381/381/381
f 382/382/382 381/381/381 383/383/383
f 384/384/384 382/382/382 383/383/383
f 374/374/374 385/385/385 373/373/373
f 385/385/385 386/386/386 373/373/373
f 385/385/385 387/387/387 386/386/386
f 387/387/387 388/388/388 386/386/386
f 388/388/388 387/387/387 389/389/389
f 387/387/387 390/390/390 389/389/389
f 391/391/391 384/384/384 383/383/383
f 392/392/392 391/391/391 383/383/383
f 390/390/390 391/391/391 392/392/392
f 389/389/389 390/390/390 392/392/392
g Cylinder013_4
f 395/395/395 394/394/394 393/393/393
f 394/394/394 397/397/397 396/396/396
f 399/399/399 394/394/394 398/398/398
f 401/401/401 400/400/400 394/394/394
f 404/404/404 403/403/403 402/402/402
f 405/405/405 403/403/403 404/404/404
f 403/403/403 407/407/407 406/406/406
f 408/408/408 407/407/407 403/403/403
f 411/411/411 410/410/410 409/409/409
f 413/413/413 412/412/412 411/411/411
