g default
v -0.6682055 1.47058 -0.3447403
v -0.6543027 1.456638 0.4756762
v -0.8292584 1.156675 0.3543009
v -0.8326559 1.159877 -0.322207
v -0.6725013 1.141523 0.6725013
v -0.5877963 1.152184 -0.7557297
v -0.4756762 1.456638 -0.6542711
v 0.3447403 1.47058 -0.6682129
v 0.322207 1.159877 -0.8326633
v 0.7557297 1.152184 -0.5878036
v 0.6542711 1.456638 -0.4756837
v 0.6682129 1.47058 0.344733
v 0.8326633 1.159877 0.3221996
v 0.5878036 1.152184 0.7557223
v 0.4756837 1.456638 0.6543027
v -0.344733 1.47058 0.6682055
v -0.3221996 1.159877 0.8326559
v -0.6725013 1.141523 0.6725013
v -0.6543027 1.456638 0.4756762
v -0.8292584 1.156675 0.3543009
v -0.6725013 1.141523 0.6725013
v -0.6682055 0.4576341 0.6682055
v -0.8362098 0.4650148 0.337352
v -0.6682055 0.1341615 0.344733
v -0.8326559 0.4801674 -0.3575106
v -0.6543027 0.1480641 -0.4756837
v -0.4756762 0.1480641 0.6543027
v -0.6682055 0.4576341 -0.6682129
v -0.8326559 1.159877 -0.322207
v -0.5877963 1.152184 -0.7557297
v -0.8784647 0.8023511 1.585484E-05
v -0.8784647 0.8023511 1.585484E-05
v -1.585484E-05 0.8023511 -0.878472
v 0.322207 1.159877 -0.8326633
v -0.5877963 1.152184 -0.7557297
v -0.3575032 0.4801674 -0.8326633
v -0.6682055 0.4576341 -0.6682129
v -0.344733 0.1341615 -0.6682129
v -0.6543027 0.1480641 -0.4756837
v 0.6682129 0.4576341 -0.6682129
v 0.7557297 1.152184 -0.5878036
v 0.322207 1.159877 -0.8326633
v 0.3373594 0.4650148 -0.8362171
v 0.4756837 0.1480641 -0.6542711
v -1.585484E-05 0.8023511 -0.878472
v -0.344733 0.1341615 -0.6682129
v -0.3575032 0.4801674 -0.8326633
v -1.585484E-05 0.8023511 -0.878472
v 0.878472 0.8023511 1.585484E-05
v 0.8326633 1.159877 0.3221996
v 0.7557297 1.152184 -0.5878036
v 0.8362171 0.4650148 -0.3373594
v 0.6682129 0.4576341 -0.6682129
v 0.6682129 0.1341615 -0.3447403
v 0.8326633 0.4801674 0.3575032
v 0.6542711 0.1480641 0.4756762
v 0.4756837 0.1480641 -0.6542711
v 0.6682129 0.4576341 0.6682055
v 0.8326633 1.159877 0.3221996
v 0.5878036 1.152184 0.7557223
v 0.878472 0.8023511 1.585484E-05
v 0.878472 0.8023511 1.585484E-05
v -1.585484E-05 0.8023511 0.8784647
v -0.3221996 1.159877 0.8326559
v 0.5878036 1.152184 0.7557223
v 0.3575106 0.4801674 0.8326559
v 0.6682129 0.4576341 0.6682055
v 0.3447403 0.1341615 0.6682055
v 0.6542711 0.1480641 0.4756762
v -0.6682055 0.4576341 0.6682055
v -0.6725013 1.141523 0.6725013
v -0.3221996 1.159877 0.8326559
v -0.337352 0.4650148 0.8362098
v -0.4756762 0.1480641 0.6543027
v -1.585484E-05 0.8023511 0.8784647
v 0.3447403 0.1341615 0.6682055
v 0.3575106 0.4801674 0.8326559
v -1.585484E-05 0.8023511 0.8784647
v -0.3575032 -0.03028893 0.3221996
v -0.4756762 0.1480641 0.6543027
v 0.3447403 0.1341615 0.6682055
v 0.3373594 -0.03384274 0.337352
v -1.585484E-05 -0.07609761 1.585484E-05
v -0.6682055 0.1341615 0.344733
v -0.3221996 -0.03028893 -0.3575106
v -0.6543027 0.1480641 -0.4756837
v -1.585484E-05 -0.07609761 1.585484E-05
v -0.344733 0.1341615 -0.6682129
v 0.3543082 -0.02689141 -0.3543082
v 0.4756837 0.1480641 -0.6542711
v 0.6682129 0.1341615 -0.3447403
v 0.6542711 0.1480641 0.4756762
v 0.6682129 0.1341615 -0.3447403
v 0.3543082 -0.02689141 -0.3543082
v -1.585484E-05 -0.07609761 1.585484E-05
v 0.3373594 -0.03384274 0.337352
v 0.3543082 -0.02689141 -0.3543082
v -0.3221996 -0.03028893 -0.3575106
v 0.3575106 1.63503 0.3221996
v 0.4756837 1.456638 0.6543027
v -0.344733 1.47058 0.6682055
v -0.3221996 1.63503 0.3575032
v -1.585484E-05 1.680839 1.585484E-05
v 0.6682129 1.47058 0.344733
v 0.322207 1.63503 -0.3575106
v 0.6542711 1.456638 -0.4756837
v -1.585484E-05 1.680839 1.585484E-05
v 0.3447403 1.47058 -0.6682129
v -0.3575032 1.63503 -0.322207
v -0.4756762 1.456638 -0.6542711
v -0.6682055 1.47058 -0.3447403
v -0.6543027 1.456638 0.4756762
v -1.585484E-05 1.680839 1.585484E-05
v -1.585484E-05 1.680839 1.585484E-05
v -0.8784647 0.8023511 1.585484E-05
v -0.8326559 1.159877 -0.322207
v -0.8292584 1.156675 0.3543009
v -0.8362098 0.4650148 0.337352
vn -0.8469008 0.4566239 -0.2724952
vn -0.8859285 0.4175962 0.2018516
vn -0.8859285 0.4332074 0.1657167
vn -0.8625119 0.4644295 -0.2009441
vn -0.8469008 0.3161243 0.4275797
vn -0.4878461 0.4488184 -0.748711
vn -0.4332074 0.4488184 -0.7815967
vn 0.2458744 0.4254018 -0.8709645
vn 0.1912357 0.4254018 -0.8845689
vn 0.7454288 0.4488184 -0.4928467
vn 0.776651 0.4488184 -0.4420128
vn 0.8703174 0.4254018 0.2481551
vn 0.8859285 0.4254018 0.1848354
vn 0.4878461 0.4488184 0.748711
vn 0.4332073 0.4488184 0.7815967
vn -0.2224579 0.4410129 0.8694942
vn -0.1756246 0.4410129 0.8801498
vn -0.4410129 0.4488184 0.7772192
vn -0.4410129 0.4488184 0.7772192
vn -0.893734 -0.003902793 0.4485804
vn -0.893734 -0.003902793 0.4485804
vn -0.8547063 -0.2458744 0.4571903
vn -0.9249562 -0.2849021 0.2515687
vn -0.8547063 -0.4644294 0.2319105
vn -0.9483727 -0.2068467 -0.2404238
vn -0.893734 -0.4019852 -0.1991168
vn -0.776651 -0.4410128 0.449801
vn -0.8781229 -0.1053748 -0.4666865
vn -0.9327617 0.02731943 -0.359457
vn -0.8781229 0.03512502 -0.477144
vn -0.9874004 0.003902853 -0.1581936
vn -0.9874004 -0.1287913 -0.09194151
vn -0.1287915 0.1287915 -0.9832729
vn -0.1287915 0.1287915 -0.9832729
vn -0.2302634 0.07415271 -0.970299
vn -0.3707631 -0.1444024 -0.9174327
vn -0.4644295 -0.2849021 -0.8385321
vn -0.4410129 -0.4410128 -0.7816747
vn -0.4410129 -0.4410128 -0.7816747
vn 0.4644294 -0.1053748 -0.8793188
vn 0.472235 0.02731943 -0.8810492
vn 0.370763 0.01951385 -0.9285225
vn 0.2224578 -0.2224578 -0.9492234
vn 0.2146522 -0.4175962 -0.8829144
vn 0.1287913 0.01170838 -0.9916026
vn -0.003902853 -0.4488184 -0.8936145
vn -0.01170838 -0.3317353 -0.9432998
vn -0.01170838 -0.1287913 -0.9916026
vn 0.9795949 0.1287915 -0.1542937
vn 0.9795949 0.1287915 -0.1542937
vn 0.9717894 0.07415271 -0.2238902
vn 0.9483728 -0.2380689 -0.2095526
vn 0.8469008 -0.2849021 -0.4489875
vn 0.8547063 -0.4644294 -0.2319105
vn 0.9483728 -0.2068467 0.2404236
vn 0.893734 -0.4019852 0.1991165
vn 0.776651 -0.4410128 -0.4498011
vn 0.8781229 -0.1053748 0.4666865
vn 0.9327617 0.02731943 0.359457
vn 0.8781229 0.03512502 0.477144
vn 0.9874005 0.003902853 0.1581932
vn 0.9874005 -0.1287913 0.09194086
vn 0.1287913 0.1287915 0.9832729
vn 0.1287913 0.1287915 0.9832729
vn 0.2302634 0.07415271 0.970299
vn 0.370763 -0.1444024 0.9174327
vn 0.4644294 -0.2849021 0.8385321
vn 0.4410128 -0.4410128 0.7816747
vn 0.4410128 -0.4410128 0.7816747
vn -0.4332074 -0.1287913 0.8920449
vn -0.4332074 0.003902853 0.9012858
vn -0.339541 0.003902853 0.9405832
vn -0.2146523 -0.2224578 0.9510189
vn -0.2146523 -0.4175962 0.8829144
vn -0.1287915 0.01170838 0.9916025
vn 0.003902793 -0.4488184 0.8936145
vn 0.01170832 -0.3317353 0.9432998
vn 0.01170832 -0.1287913 0.9916026
vn -0.2380689 -0.9483728 0.2095526
vn -0.1990412 -0.893734 0.4020225
vn 0.1209858 -0.8859285 0.4477647
vn 0.2380689 -0.9405673 0.2421909
vn -0.01170838 -0.9874005 0.1578076
vn -0.4566239 -0.8781229 0.1428102
vn -0.2458745 -0.9327617 -0.2636311
vn -0.4097908 -0.893734 -0.182513
vn -0.1365969 -0.9874005 -0.07988511
vn -0.1287915 -0.8781229 -0.4607742
vn 0.1756245 -0.8859285 -0.4292864
vn 0.2146522 -0.8859285 -0.4111633
vn 0.4410128 -0.8390952 -0.3184759
vn 0.4175962 -0.8859285 0.2018519
vn 0.4644294 -0.8859285 0
vn 0.4566239 -0.8859285 0.08139665
vn 0.06634706 -0.995206 -0.07185453
vn 0.06634706 -0.995206 -0.07185453
vn 0.06634706 -0.995206 -0.07185453
vn 0.06634706 -0.995206 -0.07185453
vn 0.2380689 0.9483727 0.2095527
vn 0.1990412 0.893734 0.4020226
vn -0.1209859 0.8781229 0.462885
vn -0.2068468 0.9483727 0.2404237
vn 0.003902793 0.9874004 0.1581935
vn 0.4566239 0.8781229 0.1428102
vn 0.2068467 0.9483727 -0.2404237
vn 0.4097907 0.893734 -0.1825135
vn 0.1365969 0.9874004 -0.07988586
vn 0.1209858 0.8781229 -0.462885
vn -0.2380689 0.9483727 -0.2095527
vn -0.1990412 0.893734 -0.4020226
vn -0.4566239 0.8781229 -0.1428102
vn -0.4097908 0.893734 0.1825134
vn -0.003902853 0.9874004 -0.1581935
vn -0.1365969 0.9874004 0.07988586
vn -0.995206 0.06634712 0.0718544
vn -0.995206 0.06634712 0.0718544
vn -0.995206 0.06634712 0.0718544
vn -0.995206 0.06634712 0.0718544
g default_0
f 3/3/3 2/2/2 1/1/1
f 4/4/4 3/3/3 1/1/1
f 5/5/5 2/2/2 3/3/3
f 4/4/4 1/1/1 6/6/6
f 1/1/1 7/7/7 6/6/6
f 6/6/6 7/7/7 8/8/8
f 9/9/9 6/6/6 8/8/8
f 9/9/9 8/8/8 10/10/10
f 8/8/8 11/11/11 10/10/10
f 10/10/10 11/11/11 12/12/12
f 13/13/13 10/10/10 12/12/12
f 13/13/13 12/12/12 14/14/14
f 12/12/12 15/15/15 14/14/14
f 14/14/14 15/15/15 16/16/16
f 17/17/17 14/14/14 16/16/16
f 17/17/17 16/16/16 18/18/18
f 16/16/16 19/19/19 18/18/18
f 22/22/22 21/21/21 20/20/20
f 23/23/23 22/22/22 20/20/20
f 23/23/23 24/24/24 22/22/22
f 23/23/23 25/25/25 24/24/24
f 25/25/25 26/26/26 24/24/24
f 24/24/24 27/27/27 22/22/22
f 28/28/28 26/26/26 25/25/25
f 25/25/25 29/29/29 28/28/28
f 29/29/29 30/30/30 28/28/28
f 29/29/29 25/25/25 31/31/31
f 25/25/25 23/23/23 32/32/32
f 35/35/35 34/34/34 33/33/33
f 36/36/36 35/35/35 33/33/33
f 37/37/37 35/35/35 36/36/36
f 36/36/36 38/38/38 37/37/37
f 38/38/38 39/39/39 37/37/37
f 42/42/42 41/41/41 40/40/40
f 43/43/43 42/42/42 40/40/40
f 40/40/40 44/44/44 43/43/43
f 42/42/42 43/43/43 45/45/45
f 43/43/43 44/44/44 46/46/46
f 43/43/43 46/46/46 47/47/47
f 43/43/43 47/47/47 48/48/48
f 51/51/51 50/50/50 49/49/49
f 52/52/52 51/51/51 49/49/49
f 53/53/53 51/51/51 52/52/52
f 52/52/52 54/54/54 53/53/53
f 52/52/52 55/55/55 54/54/54
f 55/55/55 56/56/56 54/54/54
f 54/54/54 57/57/57 53/53/53
f 58/58/58 56/56/56 55/55/55
f 55/55/55 59/59/59 58/58/58
f 59/59/59 60/60/60 58/58/58
f 59/59/59 55/55/55 61/61/61
f 55/55/55 52/52/52 62/62/62
f 65/65/65 64/64/64 63/63/63
f 66/66/66 65/65/65 63/63/63
f 67/67/67 65/65/65 66/66/66
f 66/66/66 68/68/68 67/67/67
f 68/68/68 69/69/69 67/67/67
f 72/72/72 71/71/71 70/70/70
f 73/73/73 72/72/72 70/70/70
f 70/70/70 74/74/74 73/73/73
f 72/72/72 73/73/73 75/75/75
f 73/73/73 74/74/74 76/76/76
f 73/73/73 76/76/76 77/77/77
f 73/73/73 77/77/77 78/78/78
f 81/81/81 80/80/80 79/79/79
f 82/82/82 81/81/81 79/79/79
f 82/82/82 79/79/79 83/83/83
f 79/79/79 80/80/80 84/84/84
f 79/79/79 84/84/84 85/85/85
f 84/84/84 86/86/86 85/85/85
f 79/79/79 85/85/85 87/87/87
f 85/85/85 86/86/86 88/88/88
f 85/85/85 88/88/88 89/89/89
f 88/88/88 90/90/90 89/89/89
f 89/89/89 90/90/90 91/91/91
f 82/82/82 92/92/92 81/81/81
f 93/93/93 92/92/92 82/82/82
f 94/94/94 93/93/93 82/82/82
f 97/97/97 96/96/96 95/95/95
f 98/98/98 97/97/97 95/95/95
f 101/101/101 100/100/100 99/99/99
f 102/102/102 101/101/101 99/99/99
f 102/102/102 99/99/99 103/103/103
f 99/99/99 100/100/100 104/104/104
f 99/99/99 104/104/104 105/105/105
f 104/104/104 106/106/106 105/105/105
f 99/99/99 105/105/105 107/107/107
f 105/105/105 106/106/106 108/108/108
f 105/105/105 108/108/108 109/109/109
f 108/108/108 110/110/110 109/109/109
f 109/109/109 111/111/111 102/102/102
f 109/109/109 110/110/110 111/111/111
f 111/111/111 112/112/112 102/102/102
f 102/102/102 112/112/112 101/101/101
f 105/105/105 109/109/109 113/113/113
f 109/109/109 102/102/102 114/114/114
f 117/117/117 116/116/116 115/115/115
f 118/118/118 117/117/117 115/115/115
