g default
v -1.009158 3.909334 0.179985
v -1.45237 5.096486 0.2607155
v -0.8879013 3.975591 0.2706861
v -1.576521 5.077509 0.1783772
v -0.8879013 3.975591 0.2706861
v -1.389009 5.106135 0.1610088
v -0.826149 4.009362 0.1610088
v -1.45237 5.096486 0.2607155
v -1.576521 5.077509 0.1783772
v -2.666539 6.269165 0.03621483
v -2.709317 6.232498 0.1339922
v -1.509299 5.087801 0.0593729
v -1.509299 5.087801 0.0593729
v -2.590633 6.334457 0.1195183
v -2.666539 6.269165 0.03621483
v -1.389009 5.106135 0.1610088
v -0.943223 3.945357 0.04940224
v -1.389009 5.106135 0.1610088
v -1.509299 5.087801 0.0593729
v -0.826149 4.009362 0.1610088
v -1.009158 3.909334 0.179985
v -1.509299 5.087801 0.0593729
v -1.576521 5.077509 0.1783772
v -0.943223 3.945357 0.04940224
v -2.610896 6.2801 0.2028208
v -2.397654 7.084507 1.281582
v -2.590633 6.334457 0.1195183
v -2.666539 6.269165 0.03621483
v -4.215852 7.063278 0.2324114
v -2.709317 6.232498 0.1339922
v -1.389009 5.106135 0.1610088
v -2.610896 6.2801 0.2028208
v -2.590633 6.334457 0.1195183
v -1.45237 5.096486 0.2607155
v -1.576521 5.077509 0.1783772
v -2.610896 6.2801 0.2028208
v -1.45237 5.096486 0.2607155
v -2.709317 6.232498 0.1339922
v -4.215852 7.063278 0.2324114
v -4.961078 8.029789 0.2282305
v -4.16439 7.096407 0.3301878
v -5.007072 8.023035 0.1481438
v -4.121613 7.135324 0.239809
v -4.961078 8.029789 0.2282305
v -4.915405 8.043299 0.1539326
v -4.16439 7.096407 0.3301878
v -2.744697 6.359222 0.2102194
v -4.215852 7.063278 0.2324114
v -4.16439 7.096407 0.3301878
v -2.709317 6.232498 0.1339922
v -2.666539 6.269165 0.03621483
v -4.121613 7.135324 0.239809
v -4.215852 7.063278 0.2324114
v -2.590633 6.334457 0.1195183
v -5.007072 8.023035 0.1481438
v -5.318735 9.132675 0.1603651
v -5.357654 9.124311 0.1610088
v -4.915405 8.043299 0.1539326
v -4.215852 7.063278 0.2324114
v -4.915405 8.043299 0.1539326
v -5.007072 8.023035 0.1481438
v -4.121613 7.135324 0.239809
v -5.357654 9.124311 0.1610088
v -5.318735 9.132675 0.1603651
v -5.338677 9.126884 0.1925287
v -4.915405 8.043299 0.1539326
v -5.338677 9.126884 0.1925287
v -5.318735 9.132675 0.1603651
v -4.961078 8.029789 0.2282305
v -5.007072 8.023035 0.1481438
v -5.338677 9.126884 0.1925287
v -4.961078 8.029789 0.2282305
v -5.357654 9.124311 0.1610088
v 0.2680511 3.862054 0.2854815
v 0.7170525 5.015757 0.5260639
v 0.2037249 3.948895 0.1600437
v 0.7550058 4.978125 0.66887
v 0.07571411 3.999713 0.3051014
v 0.7170525 5.015757 0.5260639
v 0.5533409 5.037949 0.6074371
v 0.2037249 3.948895 0.1600437
v 0.7550058 4.978125 0.66887
v 1.119739 5.96715 1.217898
v 1.253538 5.953962 1.150678
v 0.5967617 4.988095 0.7759733
v 0.5967617 4.988095 0.7759733
v 1.101084 6.007033 1.07831
v 1.119739 5.96715 1.217898
v 0.5533409 5.037949 0.6074371
v 0.07571411 3.999713 0.3051014
v 0.5967617 4.988095 0.7759733
v 0.1464729 3.890358 0.4514446
v 0.5533409 5.037949 0.6074371
v 0.1464729 3.890358 0.4514446
v 0.7550058 4.978125 0.66887
v 0.2680511 3.862054 0.2854815
v 0.5967617 4.988095 0.7759733
v 1.253538 5.953962 1.150678
v 2.028677 6.898281 2.271251
v 1.244533 6.003495 1.041643
v 2.123559 6.841673 2.323356
v 1.244533 6.003495 1.041643
v 2.028677 6.898281 2.271251
v 1.17699 6.107061 1.178659
v 0.7170525 5.015757 0.5260639
v 1.101084 6.007033 1.07831
v 0.5533409 5.037949 0.6074371
v 1.244533 6.003495 1.041643
v 0.7550058 4.978125 0.66887
v 1.244533 6.003495 1.041643
v 0.7170525 5.015757 0.5260639
v 1.253538 5.953962 1.150678
v 2.726623 8.173882 3.285043
v 2.123559 6.841673 2.323356
v 2.79288 8.140112 3.313346
v 2.028677 6.898281 2.271251
v 1.119739 5.96715 1.217898
v 0.3757992 7.000561 0.8515577
v 1.17699 6.107061 1.178659
v 1.253538 5.953962 1.150678
v 2.023209 6.851645 2.374174
v 2.123559 6.841673 2.323356
v 1.119739 5.96715 1.217898
v 2.726623 8.173882 3.285043
v 2.023209 6.851645 2.374174
v 2.028677 6.898281 2.271251
v 2.728553 8.145901 3.349047
v 2.726623 8.173882 3.285043
v 2.837265 9.173199 3.626296
v 2.728553 8.145901 3.349047
v 2.835013 9.187351 3.596705
v 1.38573 3.228435 -0.1493683
v 1.271549 3.844686 -0.9949446
v 1.134212 3.860446 -0.902957
v 1.630172 3.112003 -0.1467953
v 1.657833 3.077267 0.04715061
v 2.961416 3.666179 -0.1824961
v 1.630172 3.112003 -0.1467953
v 2.988755 3.631442 0.01144886
v 1.562629 3.197236 0.1610088
v 2.798669 3.853692 0.04329014
v 2.893873 3.751411 0.1253071
v 1.467747 3.299516 0.07899189
v 1.681955 3.374456 -0.1461515
v 2.961416 3.666179 -0.1824961
v 2.808318 3.850474 -0.1818533
v 1.630172 3.112003 -0.1467953
v 1.657833 3.077267 0.04715061
v 2.893873 3.751411 0.1253071
v 2.988755 3.631442 0.01144886
v 1.562629 3.197236 0.1610088
v 4.191345 5.029908 0.07255936
v 2.808318 3.850474 -0.1818533
v 4.197457 5.027335 -0.07314014
v 2.798669 3.853692 0.04329014
v 4.248596 4.959791 0.1253071
v 2.798669 3.853692 0.04329014
v 4.191345 5.029908 0.07255936
v 2.893873 3.751411 0.1253071
v 4.288801 4.902219 -0.07378387
v 2.988755 3.631442 0.01144886
v 4.304882 4.878739 0.05165386
v 2.961416 3.666179 -0.1824961
v 2.808318 3.850474 -0.1818533
v 4.288801 4.902219 -0.07378387
v 4.197457 5.027335 -0.07314014
v 2.961416 3.666179 -0.1824961
v 4.197457 5.027335 -0.07314014
v 5.902118 5.853292 -0.1490459
v 5.862557 6.003173 -0.1484032
v 4.288801 4.902219 -0.07378387
v 4.304882 4.878739 0.05165386
v 5.814312 5.879665 0.05326176
v 5.90855 5.82563 -0.02360916
v 4.248596 4.959791 0.1253071
v 4.197457 5.027335 -0.07314014
v 5.857732 6.007676 -0.003025055
v 4.191345 5.029908 0.07255936
v 5.862557 6.003173 -0.1484032
v 4.288801 4.902219 -0.07378387
v 5.90855 5.82563 -0.02360916
v 5.902118 5.853292 -0.1490459
v 4.304882 4.878739 0.05165386
v 4.191345 5.029908 0.07255936
v 5.814312 5.879665 0.05326176
v 4.248596 4.959791 0.1253071
v 5.857732 6.007676 -0.003025055
v 5.90855 5.82563 -0.02360916
v 7.768883 6.3708 -0.02264404
v 5.902118 5.853292 -0.1490459
v 6.021122 5.951712 0.05165386
v 7.737041 6.486588 0.04586411
v 7.758269 6.421297 0.08606815
v 5.857732 6.007676 -0.003025055
v 5.862557 6.003173 -0.1484032
v 7.768883 6.3708 -0.02264404
v 7.740579 6.483372 -0.06509972
v 5.902118 5.853292 -0.1490459
v 5.857732 6.007676 -0.003025055
v 5.857089 6.366941 0.918458
v 5.814312 5.879665 0.05326176
v 5.964515 6.466326 0.9030199
v 5.857732 6.007676 -0.003025055
v 7.740579 6.483372 -0.06509972
v 7.737041 6.486588 0.04586411
v 5.862557 6.003173 -0.1484032
v 7.740579 6.483372 -0.06509972
v 9.482872 7.365936 -0.02553844
v 9.445884 7.396814 -0.06928062
v 7.768883 6.3708 -0.02264404
v 9.424977 7.409679 0.004694939
v 7.740579 6.483372 -0.06509972
v 9.445884 7.396814 -0.06928062
v 7.737041 6.486588 0.04586411
v 7.758269 6.421297 0.08606815
v 9.424977 7.409679 0.004694939
v 9.482872 7.365936 -0.02553844
v 7.737041 6.486588 0.04586411
v 9.424977 7.409679 0.004694939
v 9.912896 8.357857 -0.02489567
v 9.90968 8.355927 0.00308609
v 9.445884 7.396814 -0.06928062
v 9.482872 7.365936 -0.02553844
v 9.90968 8.355927 0.00308609
v 9.938627 8.352068 -0.004954338
v 9.424977 7.409679 0.004694939
v 9.445884 7.396814 -0.06928062
v 9.938627 8.352068 -0.004954338
v 9.912896 8.357857 -0.02489567
v 9.482872 7.365936 -0.02553844
v -0.4041643 6.640329 -0.2883148
v -0.5633736 8.434406 -0.2120867
v -0.5215607 8.432798 -0.3198338
v -0.3961239 6.642582 -0.1612692
v -0.5000114 6.662846 -0.0879364
v -0.6675835 8.435692 -0.2513266
v -0.5633736 8.434406 -0.2120867
v -0.6293077 6.654804 -0.1841049
v -0.5704489 6.642902 -0.3127584
v -0.5215607 8.432798 -0.3198338
v -0.6293077 8.435371 -0.3349514
v -0.4041643 6.640329 -0.2883148
v -0.5000114 6.662846 -0.0879364
v -0.5633736 8.434406 -0.2120867
v -0.3961239 6.642582 -0.1612692
v -0.6293077 6.654804 -0.1841049
v -0.6293077 8.435371 -0.3349514
v -0.6675835 8.435692 -0.2513266
v -0.5704489 6.642902 -0.3127584
v -0.6675835 8.435692 -0.2513266
v -0.7965574 9.588751 -0.3082552
v -0.8242188 9.615124 -0.2555075
v -0.6293077 8.435371 -0.3349514
v -0.5215607 8.432798 -0.3198338
v -0.7299805 9.609657 -0.2468233
v -0.7331963 9.613195 -0.2979631
v -0.5633736 8.434406 -0.2120867
v -0.6675835 8.435692 -0.2513266
v -0.7299805 9.609657 -0.2468233
v -0.5633736 8.434406 -0.2120867
v -0.8242188 9.615124 -0.2555075
v -0.6293077 8.435371 -0.3349514
v -0.7331963 9.613195 -0.2979631
v -0.7965574 9.588751 -0.3082552
v -0.5215607 8.432798 -0.3198338
v -0.7299805 9.609657 -0.2468233
v -0.6753025 10.41696 -0.2651567
v -0.7331963 9.613195 -0.2979631
v -0.8242188 9.615124 -0.2555075
v -0.6753025 10.41696 -0.2651567
v -0.7299805 9.609657 -0.2468233
v -0.7373781 10.43497 -0.2548647
v -0.7660027 9.661762 -0.3066473
v -0.6753025 10.41696 -0.2651567
v -0.7219381 10.42757 -0.2966766
v -0.7331963 9.613195 -0.2979631
v -0.7331963 9.613195 -0.2979631
v -0.9602699 9.784948 -0.7743034
v -0.7965574 9.588751 -0.3082552
v -0.7219381 10.42757 -0.2966766
v -0.5862093 11.13163 -0.26194
v -0.5971451 11.13742 -0.2757702
v -0.6753025 10.41696 -0.2651567
v -0.7373781 10.43497 -0.2548647
v -0.5971451 11.13742 -0.2757702
v -0.6032562 11.13967 -0.2609749
v -0.7219381 10.42757 -0.2966766
v -0.7373781 10.43497 -0.2548647
v -0.5862093 11.13163 -0.26194
v -0.6753025 10.41696 -0.2651567
v -0.6032562 11.13967 -0.2609749
v -0.5971451 11.13742 -0.2757702
v -0.5862093 11.13163 -0.26194
v -0.6032562 11.13967 -0.2609749
v -0.7660027 9.661762 -0.3066473
v -1.011731 9.801674 -0.7424622
v -0.9371119 9.834158 -0.7353849
v -0.8242188 9.615124 -0.2555075
v -0.7660027 9.661762 -0.3066473
v -0.7373781 10.43497 -0.2548647
v -0.8242188 9.615124 -0.2555075
v -0.7219381 10.42757 -0.2966766
v -0.9371119 9.834158 -0.7353849
v -1.187986 10.55172 -1.206902
v -1.15904 10.56395 -1.20465
v -1.011731 9.801674 -0.7424622
v -0.7660027 9.661762 -0.3066473
v -0.9602699 9.784948 -0.7743034
v -0.7331963 9.613195 -0.2979631
v -0.9371119 9.834158 -0.7353849
v -0.7965574 9.588751 -0.3082552
v -1.011731 9.801674 -0.7424622
v -0.8242188 9.615124 -0.2555075
v -0.9602699 9.784948 -0.7743034
v -1.159683 10.55269 -1.223305
v -1.15904 10.56395 -1.20465
v -1.187986 10.55172 -1.206902
v -0.9371119 9.834158 -0.7353849
v -1.159683 10.55269 -1.223305
v -0.9602699 9.784948 -0.7743034
v -1.15904 10.56395 -1.20465
v -1.011731 9.801674 -0.7424622
v -1.159683 10.55269 -1.223305
v -1.187986 10.55172 -1.206902
v -0.9602699 9.784948 -0.7743034
v -0.9982233 6.500742 -1.543331
v -1.509943 6.53966 -1.640786
v -1.446902 6.62071 -1.660084
v -1.028778 6.407467 -1.356783
v -0.8557386 6.433519 -1.327192
v -1.108865 7.873796 -1.964993
v -0.9737787 7.894382 -1.941836
v -1.028778 6.407467 -1.356783
v -0.7418804 5.398178 -0.4751835
v -0.8557386 6.433519 -1.327192
v -0.5778465 5.465722 -0.47647
v -1.028778 6.407467 -1.356783
v -0.7418804 5.398178 -0.4751835
v -0.9789248 6.325451 -1.454882
v -1.028778 6.407467 -1.356783
v -0.6955652 5.30587 -0.5784283
v -0.9737787 7.894382 -1.941836
v -0.9026976 9.194427 -2.073384
v -1.01141 7.848066 -2.071133
v -0.8727846 9.194748 -1.984292
v -0.8316164 6.379807 -1.481899
v -0.9737787 7.894382 -1.941836
v -1.01141 7.848066 -2.071133
v -0.8557386 6.433519 -1.327192
v -0.8316164 6.379807 -1.481899
v -1.01141 7.848066 -2.071133
v -0.9982233 6.500742 -1.543331
v -0.8727846 9.194748 -1.984292
v -0.9310007 10.34427 -2.410457
v -0.8891897 10.35231 -2.406275
v -0.9634857 9.200859 -2.002946
v -0.9737787 7.894382 -1.941836
v -0.9634857 9.200859 -2.002946
v -0.8727846 9.194748 -1.984292
v -1.108865 7.873796 -1.964993
v -1.108865 7.873796 -1.964993
v -0.9026976 9.194427 -2.073384
v -0.9634857 9.200859 -2.002946
v -1.01141 7.848066 -2.071133
v -0.9039841 10.32851 -2.437474
v -0.8891897 10.35231 -2.406275
v -0.9310007 10.34427 -2.410457
v -0.9026976 9.194427 -2.073384
v -0.9310007 10.34427 -2.410457
v -0.9634857 9.200859 -2.002946
v -0.9039841 10.32851 -2.437474
v -0.9026976 9.194427 -2.073384
v -0.8891897 10.35231 -2.406275
v -0.9039841 10.32851 -2.437474
v -0.8727846 9.194748 -1.984292
v -1.028778 6.407467 -1.356783
v -1.485499 6.539337 -1.728271
v -1.509943 6.53966 -1.640786
v -0.9789248 6.325451 -1.454882
v -0.9982233 6.500742 -1.543331
v -1.108865 7.873796 -1.964993
v -1.028778 6.407467 -1.356783
v -1.01141 7.848066 -2.071133
v -1.446902 6.62071 -1.660084
v -2.205958 7.291639 -1.961133
v -2.151281 7.338276 -1.967888
v -1.509943 6.53966 -1.640786
v -0.8316164 6.379807 -1.481899
v -1.485499 6.539337 -1.728271
v -0.9789248 6.325451 -1.454882
v -0.9982233 6.500742 -1.543331
v -1.485499 6.539337 -1.728271
v -0.8316164 6.379807 -1.481899
v -1.446902 6.62071 -1.660084
v -2.151281 7.338276 -1.967888
v -2.460372 8.463675 -1.976251
v -2.18248 7.298071 -2.017098
v -2.435284 8.462067 -1.945695
v -1.446902 6.62071 -1.660084
v -2.18248 7.298071 -2.017098
v -1.485499 6.539337 -1.728271
v -2.151281 7.338276 -1.967888
v -1.485499 6.539337 -1.728271
v -2.205958 7.291639 -1.961133
v -1.509943 6.53966 -1.640786
v -2.18248 7.298071 -2.017098
v -2.460372 8.463675 -1.976251
v -2.435284 8.462067 -1.945695
v -2.469056 8.459171 -1.948268
v -2.205958 7.291639 -1.961133
v -2.460372 8.463675 -1.976251
v -2.469056 8.459171 -1.948268
v -2.18248 7.298071 -2.017098
v -2.151281 7.338276 -1.967888
v -2.469056 8.459171 -1.948268
v -2.435284 8.462067 -1.945695
v -2.205958 7.291639 -1.961133
v 2.868464 9.170305 3.610858
v 2.726623 8.173882 3.285043
v 2.79288 8.140112 3.313346
v 2.835013 9.187351 3.596705
v 2.835013 9.187351 3.596705
v 2.868464 9.170305 3.610858
v 2.837265 9.173199 3.626296
v 2.728553 8.145901 3.349047
v 2.868464 9.170305 3.610858
v 2.79288 8.140112 3.313346
v 2.837265 9.173199 3.626296
v 0.4086056 7.015999 0.736413
v 0.0908308 8.682707 0.7965574
v 0.3040743 6.956175 0.7618217
v 0.1165609 8.683672 0.788517
v 1.17699 6.107061 1.178659
v 2.023209 6.851645 2.374174
v 1.119739 5.96715 1.217898
v 2.028677 6.898281 2.271251
v 1.101084 6.007033 1.07831
v 0.4086056 7.015999 0.736413
v 0.3040743 6.956175 0.7618217
v 1.244533 6.003495 1.041643
v 0.4086056 7.015999 0.736413
v 0.1152744 8.687853 0.8126402
v 0.1165609 8.683672 0.788517
v 0.3757992 7.000561 0.8515577
v 1.101084 6.007033 1.07831
v 0.3757992 7.000561 0.8515577
v 1.119739 5.96715 1.217898
v 0.3040743 6.956175 0.7618217
v 1.17699 6.107061 1.178659
v 0.4086056 7.015999 0.736413
v 1.244533 6.003495 1.041643
v 0.3757992 7.000561 0.8515577
v 0.1152744 8.687853 0.8126402
v 0.0908308 8.682707 0.7965574
v 0.1165609 8.683672 0.788517
v 0.0908308 8.682707 0.7965574
v 0.3757992 7.000561 0.8515577
v 0.3040743 6.956175 0.7618217
v 0.1152744 8.687853 0.8126402
v 1.179884 3.952112 -0.8006773
v 0.6591587 5.200052 -1.629529
v 0.7164097 5.265666 -1.514062
v 1.134212 3.860446 -0.902957
v 1.681955 3.374456 -0.1461515
v 1.271549 3.844686 -0.9949446
v 1.630172 3.112003 -0.1467953
v 1.352923 3.95758 -0.9077816
v 1.681955 3.374456 -0.1461515
v 2.798669 3.853692 0.04329014
v 1.467747 3.299516 0.07899189
v 2.808318 3.850474 -0.1818533
v 1.352923 3.95758 -0.9077816
v 0.7164097 5.265666 -1.514062
v 0.8875189 5.271456 -1.624704
v 1.179884 3.952112 -0.8006773
v 1.38573 3.228435 -0.1493683
v 1.179884 3.952112 -0.8006773
v 1.467747 3.299516 0.07899189
v 1.134212 3.860446 -0.902957
v 1.681955 3.374456 -0.1461515
v 1.179884 3.952112 -0.8006773
v 1.352923 3.95758 -0.9077816
v 1.467747 3.299516 0.07899189
v 0.8875189 5.271456 -1.624704
v 0.6308546 7.061993 -2.127097
v 0.7328119 7.043982 -2.1985
v 0.7164097 5.265666 -1.514062
v 0.8875189 5.271456 -1.624704
v 0.6614103 7.038191 -2.270225
v 0.7923155 5.185901 -1.727628
v 0.7328119 7.043982 -2.1985
v 1.134212 3.860446 -0.902957
v 0.7923155 5.185901 -1.727628
v 0.6591587 5.200052 -1.629529
v 1.271549 3.844686 -0.9949446
v 1.352923 3.95758 -0.9077816
v 0.7923155 5.185901 -1.727628
v 1.271549 3.844686 -0.9949446
v 0.8875189 5.271456 -1.624704
v 0.5932236 6.999275 -2.184669
v 0.1866779 7.369474 -2.316861
v 0.6308546 7.061993 -2.127097
v 0.09276104 7.288101 -2.313323
v 0.7328119 7.043982 -2.1985
v 1.322369 8.278414 -2.234523
v 1.375759 8.247858 -2.31075
v 0.6308546 7.061993 -2.127097
v 0.7164097 5.265666 -1.514062
v 0.5932236 6.999275 -2.184669
v 0.6308546 7.061993 -2.127097
v 0.6591587 5.200052 -1.629529
v 0.7923155 5.185901 -1.727628
v 0.5932236 6.999275 -2.184669
v 0.6591587 5.200052 -1.629529
v 0.6614103 7.038191 -2.270225
v 1.270263 8.284523 -2.300136
v 1.608945 10.03711 -2.427504
v 1.572599 10.0384 -2.422035
v 1.375759 8.247858 -2.31075
v 1.322369 8.278414 -2.234523
v 1.572599 10.0384 -2.422035
v 1.587073 10.04258 -2.396305
v 1.270263 8.284523 -2.300136
v 0.6231356 7.155268 -2.21233
v 1.375759 8.247858 -2.31075
v 1.270263 8.284523 -2.300136
v 0.6614103 7.038191 -2.270225
v 0.7328119 7.043982 -2.1985
v 1.375759 8.247858 -2.31075
v 0.6614103 7.038191 -2.270225
v 1.572599 10.0384 -2.422035
v 1.608945 10.03711 -2.427504
v 1.587073 10.04258 -2.396305
v 1.322369 8.278414 -2.234523
v 1.608945 10.03711 -2.427504
v 1.375759 8.247858 -2.31075
v 1.587073 10.04258 -2.396305
v 0.09276104 7.288101 -2.313323
v -0.1185532 7.945843 -2.475749
v -0.1642246 7.949703 -2.402416
v 0.159339 7.312868 -2.39341
v 0.6308546 7.061993 -2.127097
v 0.1866779 7.369474 -2.316861
v 0.6231356 7.155268 -2.21233
v 0.6231356 7.155268 -2.21233
v 1.322369 8.278414 -2.234523
v 0.6308546 7.061993 -2.127097
v 1.270263 8.284523 -2.300136
v 0.5932236 6.999275 -2.184669
v 0.159339 7.312868 -2.39341
v 0.09276104 7.288101 -2.313323
v 0.6614103 7.038191 -2.270225
v 0.6231356 7.155268 -2.21233
v 0.159339 7.312868 -2.39341
v 0.6614103 7.038191 -2.270225
v 0.1866779 7.369474 -2.316861
v 4.304882 4.878739 0.05165386
v 2.893873 3.751411 0.1253071
v 4.248596 4.959791 0.1253071
v 2.988755 3.631442 0.01144886
v 6.021122 5.951712 0.05165386
v 5.964515 6.466326 0.9030199
v 5.857732 6.007676 -0.003025055
v 6.021122 5.951712 0.05165386
v 7.768883 6.3708 -0.02264404
v 5.90855 5.82563 -0.02360916
v 7.758269 6.421297 0.08606815
v 5.857089 6.366941 0.918458
v 5.55411 7.525789 1.679122
v 5.964193 6.325451 0.9634857
v 5.484958 7.520643 1.634737
v 6.021122 5.951712 0.05165386
v 5.964193 6.325451 0.9634857
v 5.964515 6.466326 0.9030199
v 5.90855 5.82563 -0.02360916
v 5.814312 5.879665 0.05326176
v 5.964193 6.325451 0.9634857
v 5.90855 5.82563 -0.02360916
v 5.857089 6.366941 0.918458
v 5.560864 7.550554 1.580059
v 5.449578 8.67724 1.986283
v 5.484958 7.520643 1.634737
v 5.472093 8.686888 1.967307
v 5.964515 6.466326 0.9030199
v 5.484958 7.520643 1.634737
v 5.857089 6.366941 0.918458
v 5.560864 7.550554 1.580059
v 5.964515 6.466326 0.9030199
v 5.55411 7.525789 1.679122
v 5.560864 7.550554 1.580059
v 5.964193 6.325451 0.9634857
v 5.449578 8.67724 1.986283
v 5.472093 8.686888 1.967307
v 5.476274 8.674667 2.001721
v 5.560864 7.550554 1.580059
v 5.476274 8.674667 2.001721
v 5.472093 8.686888 1.967307
v 5.55411 7.525789 1.679122
v 5.55411 7.525789 1.679122
v 5.449578 8.67724 1.986283
v 5.476274 8.674667 2.001721
v 5.484958 7.520643 1.634737
v -0.1185532 7.945843 -2.475749
v -0.1317406 9.350742 -2.795453
v -0.1642246 7.949703 -2.402416
v -0.1060095 9.345274 -2.836943
v -0.1317406 9.350742 -2.795453
v -0.07255936 7.985083 -2.423322
v -0.1642246 7.949703 -2.402416
v -0.07995701 9.358782 -2.801564
v 0.1866779 7.369474 -2.316861
v -0.1185532 7.945843 -2.475749
v 0.159339 7.312868 -2.39341
v -0.07255936 7.985083 -2.423322
v 0.1866779 7.369474 -2.316861
v -0.1642246 7.949703 -2.402416
v -0.07255936 7.985083 -2.423322
v 0.09276104 7.288101 -2.313323
v -0.07995701 9.358782 -2.801564
v -0.1317406 9.350742 -2.795453
v -0.1060095 9.345274 -2.836943
v -0.07255936 7.985083 -2.423322
v -0.1060095 9.345274 -2.836943
v -0.1185532 7.945843 -2.475749
v -0.07995701 9.358782 -2.801564
v 7.768883 6.3708 -0.02264404
v 7.758269 6.421297 0.08606815
v 9.482872 7.365936 -0.02553844
v 2.123559 6.841673 2.323356
v 2.728553 8.145901 3.349047
v 2.79288 8.140112 3.313346
v 2.023209 6.851645 2.374174
v 9.938627 8.352068 -0.004954338
v 9.90968 8.355927 0.00308609
v 9.912896 8.357857 -0.02489567
v -2.532739 7.119564 1.282547
v -2.4266 8.245607 1.919383
v -2.484173 8.260723 1.920027
v -2.397654 7.084507 1.281582
v -2.744697 6.359222 0.2102194
v -2.397654 7.084507 1.281582
v -2.532739 7.119564 1.282547
v -2.590633 6.334457 0.1195183
v -2.744697 6.359222 0.2102194
v -4.121613 7.135324 0.239809
v -2.590633 6.334457 0.1195183
v -4.16439 7.096407 0.3301878
v -2.610896 6.2801 0.2028208
v -2.466483 7.039799 1.364564
v -2.397654 7.084507 1.281582
v -2.709317 6.232498 0.1339922
v -2.744697 6.359222 0.2102194
v -2.466483 7.039799 1.364564
v -2.709317 6.232498 0.1339922
v -2.532739 7.119564 1.282547
v -2.484173 8.260723 1.920027
v -2.4266 8.245607 1.919383
v -2.45587 8.226631 1.955084
v -2.397654 7.084507 1.281582
v -2.45587 8.226631 1.955084
v -2.4266 8.245607 1.919383
v -2.466483 7.039799 1.364564
v -2.532739 7.119564 1.282547
v -2.45587 8.226631 1.955084
v -2.466483 7.039799 1.364564
v -2.484173 8.260723 1.920027
vn -0.5014435 -0.2401999 0.831179
vn -0.5014435 -0.2401999 0.831179
vn -0.5014435 -0.2401999 0.831179
vn -0.5014435 -0.2401999 0.831179
vn 0.7554469 0.384342 0.5306424
vn 0.7554469 0.384342 0.5306424
vn 0.7554469 0.384342 0.5306424
vn 0.7554469 0.384342 0.5306424
vn -0.6263518 -0.6305385 -0.4583718
vn -0.6263518 -0.6305385 -0.4583718
vn -0.6263518 -0.6305385 -0.4583718
vn -0.6263518 -0.6305385 -0.4583718
vn 0.4978233 0.4624096 -0.7337229
vn 0.4978233 0.4624096 -0.7337229
vn 0.4978233 0.4624096 -0.7337229
vn 0.4978233 0.4624096 -0.7337229
vn 0.5758911 0.2984675 -0.7610957
vn 0.5758911 0.2984675 -0.7610957
vn 0.5758911 0.2984675 -0.7610957
vn 0.5758911 0.2984675 -0.7610957
vn -0.7824873 -0.3807217 -0.4927115
vn -0.7824873 -0.3807217 -0.4927115
vn -0.7824873 -0.3807217 -0.4927115
vn -0.7824873 -0.3807217 -0.4927115
vn 0.9506162 -0.302654 0.06877062
vn 0.9506162 -0.302654 0.06877062
vn 0.9506162 -0.302654 0.06877062
vn -0.4467962 -0.7554469 -0.4792424
vn -0.4467962 -0.7554469 -0.4792424
vn -0.4467962 -0.7554469 -0.4792424
vn 0.6071181 0.6185451 0.4988082
vn 0.6071181 0.6185451 0.4988082
vn 0.6071181 0.6185451 0.4988082
vn 0.6071181 0.6185451 0.4988082
vn -0.4311826 -0.3885285 0.8143262
vn -0.4311826 -0.3885285 0.8143262
vn -0.4311826 -0.3885285 0.8143262
vn -0.4311826 -0.3885285 0.8143262
vn -0.6888061 -0.5290505 0.4956327
vn -0.6888061 -0.5290505 0.4956327
vn -0.6888061 -0.5290505 0.4956327
vn -0.6888061 -0.5290505 0.4956327
vn 0.6227317 0.5873181 0.5169746
vn 0.6227317 0.5873181 0.5169746
vn 0.6227317 0.5873181 0.5169746
vn 0.6227317 0.5873181 0.5169746
vn -0.314081 -0.6851859 0.6571708
vn -0.314081 -0.6851859 0.6571708
vn -0.314081 -0.6851859 0.6571708
vn -0.314081 -0.6851859 0.6571708
vn 0.130905 0.4311826 -0.892718
vn 0.130905 0.4311826 -0.892718
vn 0.130905 0.4311826 -0.892718
vn 0.130905 0.4311826 -0.892718
vn 0.03722382 0.01742363 -0.999155
vn 0.03722382 0.01742363 -0.999155
vn 0.03722382 0.01742363 -0.999155
vn 0.03722382 0.01742363 -0.999155
vn 0.08406442 -0.02161026 -0.996226
vn 0.08406442 -0.02161026 -0.996226
vn 0.08406442 -0.02161026 -0.996226
vn 0.08406442 -0.02161026 -0.996226
vn -0.2047862 0.9776566 0.04743621
vn -0.2047862 0.9776566 0.04743621
vn -0.2047862 0.9776566 0.04743621
vn 0.7944807 0.2906607 0.5332136
vn 0.7944807 0.2906607 0.5332136
vn 0.7944807 0.2906607 0.5332136
vn 0.7944807 0.2906607 0.5332136
vn -0.8215212 -0.2636202 0.5055763
vn -0.8215212 -0.2636202 0.5055763
vn -0.8215212 -0.2636202 0.5055763
vn -0.8215212 -0.2636202 0.5055763
vn 0.8647417 -0.2401999 -0.4410509
vn 0.8647417 -0.2401999 -0.4410509
vn 0.8647417 -0.2401999 -0.4410509
vn 0.8647417 -0.2401999 -0.4410509
vn -0.4702164 0.4624096 -0.751714
vn -0.4702164 0.4624096 -0.751714
vn -0.4702164 0.4624096 -0.751714
vn -0.4702164 0.4624096 -0.751714
vn 0.3963353 -0.5524708 0.7332764
vn 0.3963353 -0.5524708 0.7332764
vn 0.3963353 -0.5524708 0.7332764
vn 0.3963353 -0.5524708 0.7332764
vn -0.8917822 0.3531148 0.2829036
vn -0.8917822 0.3531148 0.2829036
vn -0.8917822 0.3531148 0.2829036
vn -0.8917822 0.3531148 0.2829036
vn -0.8605551 0.2438201 0.44721
vn -0.8605551 0.2438201 0.44721
vn -0.8605551 0.2438201 0.44721
vn -0.8605551 0.2438201 0.44721
vn 0.5836979 -0.4587895 0.6699321
vn 0.5836979 -0.4587895 0.6699321
vn 0.5836979 -0.4587895 0.6699321
vn 0.5836979 -0.4587895 0.6699321
vn 0.8335146 -0.02941704 -0.5517138
vn 0.8335146 -0.02941704 -0.5517138
vn 0.8335146 -0.02941704 -0.5517138
vn 0.8335146 -0.02941704 -0.5517138
vn 0.02161026 0.8059076 -0.5916468
vn 0.02161026 0.8059076 -0.5916468
vn 0.02161026 0.8059076 -0.5916468
vn -0.2594336 0.5482842 -0.7950338
vn -0.2594336 0.5482842 -0.7950338
vn -0.2594336 0.5482842 -0.7950338
vn -0.2594336 0.5482842 -0.7950338
vn 0.9037755 -0.3260744 -0.277246
vn 0.9037755 -0.3260744 -0.277246
vn 0.9037755 -0.3260744 -0.277246
vn 0.9037755 -0.3260744 -0.277246
vn 0.5524708 0.3062742 -0.7752239
vn 0.5524708 0.3062742 -0.7752239
vn 0.5524708 0.3062742 -0.7752239
vn 0.5524708 0.3062742 -0.7752239
vn -0.0642643 0.2906607 0.9546656
vn -0.0642643 0.2906607 0.9546656
vn -0.0642643 0.2906607 0.9546656
vn 0.1777457 -0.8413213 0.5104751
vn 0.1777457 -0.8413213 0.5104751
vn 0.1777457 -0.8413213 0.5104751
vn 0.1777457 -0.8413213 0.5104751
vn -0.9152025 0.3765352 0.1436162
vn -0.9152025 0.3765352 0.1436162
vn -0.9152025 0.3765352 0.1436162
vn -0.9152025 0.3765352 0.1436162
vn -0.9932702 0.07987785 0.08386842
vn -0.9932702 0.07987785 0.08386842
vn -0.9932702 0.07987785 0.08386842
vn -0.9932702 0.07987785 0.08386842
vn -0.384342 -0.7710604 -0.507688
vn -0.384342 -0.7710604 -0.507688
vn -0.384342 -0.7710604 -0.507688
vn -0.384342 -0.7710604 -0.507688
vn 0.372915 -0.9037755 -0.2100577
vn 0.372915 -0.9037755 -0.2100577
vn 0.372915 -0.9037755 -0.2100577
vn 0.372915 -0.9037755 -0.2100577
vn -0.1891726 0.5014435 0.844256
vn -0.1891726 0.5014435 0.844256
vn -0.1891726 0.5014435 0.844256
vn -0.1891726 0.5014435 0.844256
vn -0.02523041 -0.005996704 -0.9996637
vn -0.02523041 -0.005996704 -0.9996637
vn -0.02523041 -0.005996704 -0.9996637
vn -0.02523041 -0.005996704 -0.9996637
vn 0.2558134 -0.5524708 0.7933066
vn 0.2558134 -0.5524708 0.7933066
vn 0.2558134 -0.5524708 0.7933066
vn 0.2558134 -0.5524708 0.7933066
vn -0.6419654 0.7668737 0
vn -0.6419654 0.7668737 0
vn -0.6419654 0.7668737 0
vn -0.6419654 0.7668737 0
vn -0.3375013 0.3765352 0.8627365
vn -0.3375013 0.3765352 0.8627365
vn -0.3375013 0.3765352 0.8627365
vn -0.3375013 0.3765352 0.8627365
vn 0.6773791 -0.7007995 -0.2236908
vn 0.6773791 -0.7007995 -0.2236908
vn 0.6773791 -0.7007995 -0.2236908
vn 0.6773791 -0.7007995 -0.2236908
vn 0.04503053 0.04084396 -0.9981503
vn 0.04503053 0.04084396 -0.9981503
vn 0.04503053 0.04084396 -0.9981503
vn 0.04503053 0.04084396 -0.9981503
vn -0.04084396 -0.01380348 -0.9990702
vn -0.04084396 -0.01380348 -0.9990702
vn -0.04084396 -0.01380348 -0.9990702
vn -0.04084396 -0.01380348 -0.9990702
vn 0.3338811 -0.5056301 0.795526
vn 0.3338811 -0.5056301 0.795526
vn 0.3338811 -0.5056301 0.795526
vn 0.3338811 -0.5056301 0.795526
vn -0.5092503 0.8605551 -0.01044682
vn -0.5092503 0.8605551 -0.01044682
vn -0.5092503 0.8605551 -0.01044682
vn -0.5092503 0.8605551 -0.01044682
vn 0.4900166 -0.8413213 -0.2281713
vn 0.4900166 -0.8413213 -0.2281713
vn 0.4900166 -0.8413213 -0.2281713
vn 0.4900166 -0.8413213 -0.2281713
vn -0.2282065 0.454603 0.8609634
vn -0.2282065 0.454603 0.8609634
vn -0.2282065 0.454603 0.8609634
vn -0.2282065 0.454603 0.8609634
vn 0.2714269 -0.9350026 -0.2282488
vn 0.2714269 -0.9350026 -0.2282488
vn 0.2714269 -0.9350026 -0.2282488
vn -0.1423321 0.4624096 0.8751679
vn -0.1423321 0.4624096 0.8751679
vn -0.1423321 0.4624096 0.8751679
vn -0.1423321 0.4624096 0.8751679
vn 0.0918712 -0.130905 -0.9871289
vn 0.0918712 -0.130905 -0.9871289
vn 0.0918712 -0.130905 -0.9871289
vn 0.0918712 -0.130905 -0.9871289
vn -0.8449415 0.5014435 -0.1860867
vn -0.8449415 0.5014435 -0.1860867
vn -0.8449415 0.5014435 -0.1860867
vn -0.8449415 0.5014435 -0.1860867
vn -0.2438201 0.9698498 0
vn -0.2438201 0.9698498 0
vn -0.2438201 0.9698498 0
vn -0.2438201 0.9698498 0
vn 0.2323931 -0.4197556 -0.8773817
vn 0.2323931 -0.4197556 -0.8773817
vn 0.2323931 -0.4197556 -0.8773817
vn 0.2323931 -0.4197556 -0.8773817
vn -0.4702164 0.8683618 -0.1576207
vn -0.4702164 0.8683618 -0.1576207
vn -0.4702164 0.8683618 -0.1576207
vn -0.4702164 0.8683618 -0.1576207
vn -0.001810133 0.08768463 0.9961466
vn -0.001810133 0.08768463 0.9961466
vn -0.001810133 0.08768463 0.9961466
vn -0.001810133 0.08768463 0.9961466
vn -0.8605551 0.4389894 -0.2583279
vn -0.8605551 0.4389894 -0.2583279
vn -0.8605551 0.4389894 -0.2583279
vn -0.8605551 0.4389894 -0.2583279
vn 0.3182676 -0.1621321 0.9340336
vn 0.3182676 -0.1621321 0.9340336
vn 0.3182676 -0.1621321 0.9340336
vn 0.3182676 -0.1621321 0.9340336
vn 0.6071181 -0.2636202 -0.7496079
vn 0.6071181 -0.2636202 -0.7496079
vn 0.6071181 -0.2636202 -0.7496079
vn 0.6071181 -0.2636202 -0.7496079
vn 0.98965 0.07987785 0.1192158
vn 0.98965 0.07987785 0.1192158
vn 0.98965 0.07987785 0.1192158
vn 0.98965 0.07987785 0.1192158
vn -0.5014435 0.03303719 0.8645594
vn -0.5014435 0.03303719 0.8645594
vn -0.5014435 0.03303719 0.8645594
vn -0.5014435 0.03303719 0.8645594
vn 0.1465186 -0.005996704 -0.9891897
vn 0.1465186 -0.005996704 -0.9891897
vn 0.1465186 -0.005996704 -0.9891897
vn 0.1465186 -0.005996704 -0.9891897
vn 0.5836979 0.07987785 0.8080324
vn 0.5836979 0.07987785 0.8080324
vn 0.5836979 0.07987785 0.8080324
vn -0.9073957 -0.03722382 -0.4186256
vn -0.9073957 -0.03722382 -0.4186256
vn -0.9073957 -0.03722382 -0.4186256
vn -0.9073957 -0.03722382 -0.4186256
vn -0.9073957 -0.1230983 -0.4018455
vn -0.9073957 -0.1230983 -0.4018455
vn -0.9073957 -0.1230983 -0.4018455
vn -0.9073957 -0.1230983 -0.4018455
vn 0.9584229 0.1579455 0.2376526
vn 0.9584229 0.1579455 0.2376526
vn 0.9584229 0.1579455 0.2376526
vn 0.9584229 0.1579455 0.2376526
vn -0.2360133 -0.01380348 0.9716518
vn -0.2360133 -0.01380348 0.9716518
vn -0.2360133 -0.01380348 0.9716518
vn -0.2360133 -0.01380348 0.9716518
vn 0.1387118 0.04084396 -0.9894902
vn 0.1387118 0.04084396 -0.9894902
vn 0.1387118 0.04084396 -0.9894902
vn 0.1387118 0.04084396 -0.9894902
vn 0.9974568 -0.06845087 -0.01985961
vn 0.9974568 -0.06845087 -0.01985961
vn 0.9974568 -0.06845087 -0.01985961
vn 0.01380348 0.009616852 0.9998584
vn 0.01380348 0.009616852 0.9998584
vn 0.01380348 0.009616852 0.9998584
vn 0.01380348 0.009616852 0.9998584
vn 0.4509827 -0.005996704 -0.8925126
vn 0.4509827 -0.005996704 -0.8925126
vn 0.4509827 -0.005996704 -0.8925126
vn 0.4509827 -0.005996704 -0.8925126
vn 0.3807217 -0.7944807 -0.4731294
vn 0.3807217 -0.7944807 -0.4731294
vn 0.3807217 -0.7944807 -0.4731294
vn 0.6071181 -0.07625765 -0.790944
vn 0.6071181 -0.07625765 -0.790944
vn 0.6071181 -0.07625765 -0.790944
vn 0.6071181 -0.07625765 -0.790944
vn -0.9073957 0.1735591 -0.3827666
vn -0.9073957 0.1735591 -0.3827666
vn -0.9073957 0.1735591 -0.3827666
vn -0.9073957 0.1735591 -0.3827666
vn 0.1387118 -0.02161026 0.990097
vn 0.1387118 -0.02161026 0.990097
vn 0.1387118 -0.02161026 0.990097
vn 0.1387118 -0.02161026 0.990097
vn 0.4275624 0.8995889 0.08905144
vn 0.4275624 0.8995889 0.08905144
vn 0.4275624 0.8995889 0.08905144
vn -0.3375013 0.8215212 0.4595605
vn -0.3375013 0.8215212 0.4595605
vn -0.3375013 0.8215212 0.4595605
vn -0.3375013 0.8215212 0.4595605
vn -0.7981008 0.07207108 -0.598198
vn -0.7981008 0.07207108 -0.598198
vn -0.7981008 0.07207108 -0.598198
vn -0.7981008 0.07207108 -0.598198
vn -0.2750472 0.4624096 0.8429273
vn -0.2750472 0.4624096 0.8429273
vn -0.2750472 0.4624096 0.8429273
vn -0.2750472 0.4624096 0.8429273
vn 0.9193891 0.1969794 -0.3404745
vn 0.9193891 0.1969794 -0.3404745
vn 0.9193891 0.1969794 -0.3404745
vn 0.9193891 0.1969794 -0.3404745
vn -0.5717045 -0.817901 -0.06474516
vn -0.5717045 -0.817901 -0.06474516
vn -0.5717045 -0.817901 -0.06474516
vn -0.5717045 -0.817901 -0.06474516
vn -0.3062742 0.8215212 -0.4809357
vn -0.3062742 0.8215212 -0.4809357
vn -0.3062742 0.8215212 -0.4809357
vn 0.9193891 0.01742363 -0.3929633
vn 0.9193891 0.01742363 -0.3929633
vn 0.9193891 0.01742363 -0.3929633
vn 0.9193891 0.01742363 -0.3929633
vn -0.5170571 -0.5290505 -0.6728727
vn -0.5170571 -0.5290505 -0.6728727
vn -0.5170571 -0.5290505 -0.6728727
vn -0.5170571 -0.5290505 -0.6728727
vn -0.0642643 0.7746805 0.6290789
vn -0.0642643 0.7746805 0.6290789
vn -0.0642643 0.7746805 0.6290789
vn -0.0642643 0.7746805 0.6290789
vn -0.212593 0.3609216 0.9080418
vn -0.212593 0.3609216 0.9080418
vn -0.212593 0.3609216 0.9080418
vn -0.212593 0.3609216 0.9080418
vn -0.2282065 0.6029316 0.7644575
vn -0.2282065 0.6029316 0.7644575
vn -0.2282065 0.6029316 0.7644575
vn -0.2282065 0.6029316 0.7644575
vn -0.9230092 -0.3651082 -0.1214501
vn -0.9230092 -0.3651082 -0.1214501
vn -0.9230092 -0.3651082 -0.1214501
vn -0.9230092 -0.3651082 -0.1214501
vn 0.9584229 -0.08406442 -0.2726879
vn 0.9584229 -0.08406442 -0.2726879
vn 0.9584229 -0.08406442 -0.2726879
vn 0.9584229 -0.08406442 -0.2726879
vn 0.9974568 0.07207108 0
vn 0.9974568 0.07207108 0
vn 0.9974568 0.07207108 0
vn 0.9974568 0.07207108 0
vn 0.07625765 -0.3651082 -0.9278366
vn 0.07625765 -0.3651082 -0.9278366
vn 0.07625765 -0.3651082 -0.9278366
vn -0.1657523 0.3375013 0.926617
vn -0.1657523 0.3375013 0.926617
vn -0.1657523 0.3375013 0.926617
vn -0.1657523 0.3375013 0.926617
vn -0.1813658 0.04865074 0.9822115
vn -0.1813658 0.04865074 0.9822115
vn -0.1813658 0.04865074 0.9822115
vn -0.1813658 0.04865074 0.9822115
vn -0.7356467 0.05645752 -0.6750085
vn -0.7356467 0.05645752 -0.6750085
vn -0.7356467 0.05645752 -0.6750085
vn -0.7356467 0.05645752 -0.6750085
vn -0.09549141 0.8137144 -0.5733675
vn -0.09549141 0.8137144 -0.5733675
vn -0.09549141 0.8137144 -0.5733675
vn -0.7512603 -0.201166 -0.6286018
vn -0.7512603 -0.201166 -0.6286018
vn -0.7512603 -0.201166 -0.6286018
vn -0.7512603 -0.201166 -0.6286018
vn 0.9350026 -0.1074848 -0.3379602
vn 0.9350026 -0.1074848 -0.3379602
vn 0.9350026 -0.1074848 -0.3379602
vn 0.9350026 -0.1074848 -0.3379602
vn -0.4311826 -0.8803552 0.1976267
vn -0.4311826 -0.8803552 0.1976267
vn -0.4311826 -0.8803552 0.1976267
vn -0.4311826 -0.8803552 0.1976267
vn -0.8761686 -0.201166 -0.4380192
vn -0.8761686 -0.201166 -0.4380192
vn -0.8761686 -0.201166 -0.4380192
vn -0.8761686 -0.201166 -0.4380192
vn -0.111105 0.2984675 0.9479308
vn -0.111105 0.2984675 0.9479308
vn -0.111105 0.2984675 0.9479308
vn -0.111105 0.2984675 0.9479308
vn 0.1152915 -0.6695724 -0.7337443
vn 0.1152915 -0.6695724 -0.7337443
vn 0.1152915 -0.6695724 -0.7337443
vn 0.3573014 0.2594336 -0.8972346
vn 0.3573014 0.2594336 -0.8972346
vn 0.3573014 0.2594336 -0.8972346
vn 0.3573014 0.2594336 -0.8972346
vn 0.7554469 0.2047862 -0.6223847
vn 0.7554469 0.2047862 -0.6223847
vn 0.7554469 0.2047862 -0.6223847
vn 0.7554469 0.2047862 -0.6223847
vn 0.6383452 0.314081 -0.7027578
vn 0.6383452 0.314081 -0.7027578
vn 0.6383452 0.314081 -0.7027578
vn 0.6383452 0.314081 -0.7027578
vn -0.6575789 -0.7086062 -0.2558654
vn -0.6575789 -0.7086062 -0.2558654
vn -0.6575789 -0.7086062 -0.2558654
vn -0.6575789 -0.7086062 -0.2558654
vn -0.08768463 0.9854634 0.1455107
vn -0.08768463 0.9854634 0.1455107
vn -0.08768463 0.9854634 0.1455107
vn -0.9073957 -0.201166 -0.3690057
vn -0.9073957 -0.201166 -0.3690057
vn -0.9073957 -0.201166 -0.3690057
vn -0.9073957 -0.201166 -0.3690057
vn 0.05283731 -0.005996704 0.9985852
vn 0.05283731 -0.005996704 0.9985852
vn 0.05283731 -0.005996704 0.9985852
vn 0.05283731 -0.005996704 0.9985852
vn 0.474403 0.212593 -0.8542517
vn 0.474403 0.212593 -0.8542517
vn 0.474403 0.212593 -0.8542517
vn 0.474403 0.212593 -0.8542517
vn 0.2792337 0.8761686 0.3928831
vn 0.2792337 0.8761686 0.3928831
vn 0.2792337 0.8761686 0.3928831
vn 0.4353691 -0.2792337 0.8558518
vn 0.4353691 -0.2792337 0.8558518
vn 0.4353691 -0.2792337 0.8558518
vn 0.4353691 -0.2792337 0.8558518
vn -0.2438201 -0.01380348 -0.9697222
vn -0.2438201 -0.01380348 -0.9697222
vn -0.2438201 -0.01380348 -0.9697222
vn -0.2438201 -0.01380348 -0.9697222
vn -0.8293279 0.4858299 0.2760152
vn -0.8293279 0.4858299 0.2760152
vn -0.8293279 0.4858299 0.2760152
vn -0.8293279 0.4858299 0.2760152
vn -0.1345253 -0.3963353 -0.9081967
vn -0.1345253 -0.3963353 -0.9081967
vn -0.1345253 -0.3963353 -0.9081967
vn -0.1345253 -0.3963353 -0.9081967
vn 0.9584229 0.1579455 0.2376526
vn 0.9584229 0.1579455 0.2376526
vn 0.9584229 0.1579455 0.2376526
vn 0.9584229 0.1579455 0.2376526
vn -0.7981008 -0.5056301 0.3276786
vn -0.7981008 -0.5056301 0.3276786
vn -0.7981008 -0.5056301 0.3276786
vn -0.7981008 -0.5056301 0.3276786
vn 0.7476401 0.6653857 0
vn 0.7476401 0.6653857 0
vn 0.7476401 0.6653857 0
vn 0.7476401 0.6653857 0
vn -0.08768463 0.9776566 -0.191047
vn -0.08768463 0.9776566 -0.191047
vn -0.08768463 0.9776566 -0.191047
vn -0.7122264 -0.09967798 0.6948366
vn -0.7122264 -0.09967798 0.6948366
vn -0.7122264 -0.09967798 0.6948366
vn -0.7122264 -0.09967798 0.6948366
vn -0.8839754 -0.06064409 0.4635836
vn -0.8839754 -0.06064409 0.4635836
vn -0.8839754 -0.06064409 0.4635836
vn -0.8839754 -0.06064409 0.4635836
vn 0.8413213 -0.1777457 -0.5104752
vn 0.8413213 -0.1777457 -0.5104752
vn 0.8413213 -0.1777457 -0.5104752
vn 0.8413213 -0.1777457 -0.5104752
vn -0.384342 0.9230092 -0.0183138
vn -0.384342 0.9230092 -0.0183138
vn -0.384342 0.9230092 -0.0183138
vn -0.384342 0.9230092 -0.0183138
vn 0.4353691 0.5404774 0.7199569
vn 0.4353691 0.5404774 0.7199569
vn 0.4353691 0.5404774 0.7199569
vn 0.4353691 0.5404774 0.7199569
vn -0.9386227 0.04084396 0.3425188
vn -0.9386227 0.04084396 0.3425188
vn -0.9386227 0.04084396 0.3425188
vn -0.9386227 0.04084396 0.3425188
vn 0.2714269 0.8137144 0.5140004
vn 0.2714269 0.8137144 0.5140004
vn 0.2714269 0.8137144 0.5140004
vn 0.2714269 0.8137144 0.5140004
vn 0.5368572 0.2984675 0.7891144
vn 0.5368572 0.2984675 0.7891144
vn 0.5368572 0.2984675 0.7891144
vn 0.5368572 0.2984675 0.7891144
vn 0.7554469 -0.1387118 -0.6403586
vn 0.7554469 -0.1387118 -0.6403586
vn 0.7554469 -0.1387118 -0.6403586
vn 0.7554469 -0.1387118 -0.6403586
vn -0.5248638 -0.544664 -0.6541094
vn -0.5248638 -0.544664 -0.6541094
vn -0.5248638 -0.544664 -0.6541094
vn -0.5248638 -0.544664 -0.6541094
vn 0.7710604 -0.07625765 -0.6321793
vn 0.7710604 -0.07625765 -0.6321793
vn 0.7710604 -0.07625765 -0.6321793
vn 0.7710604 -0.07625765 -0.6321793
vn -0.3375013 -0.03722382 0.9405888
vn -0.3375013 -0.03722382 0.9405888
vn -0.3375013 -0.03722382 0.9405888
vn -0.3375013 -0.03722382 0.9405888
vn 0.6149249 -0.2714269 0.7404017
vn 0.6149249 -0.2714269 0.7404017
vn 0.6149249 -0.2714269 0.7404017
vn 0.6149249 -0.2714269 0.7404017
vn -0.8995889 0.09549141 0.4261703
vn -0.8995889 0.09549141 0.4261703
vn -0.8995889 0.09549141 0.4261703
vn -0.8995889 0.09549141 0.4261703
vn -0.6341586 -0.2558134 -0.729659
vn -0.6341586 -0.2558134 -0.729659
vn -0.6341586 -0.2558134 -0.729659
vn -0.6341586 -0.2558134 -0.729659
vn -0.1267185 -0.04503053 -0.9909161
vn -0.1267185 -0.04503053 -0.9909161
vn -0.1267185 -0.04503053 -0.9909161
vn -0.1267185 -0.04503053 -0.9909161
vn -0.7981008 0.1735591 0.5769855
vn -0.7981008 0.1735591 0.5769855
vn -0.7981008 0.1735591 0.5769855
vn -0.7981008 0.1735591 0.5769855
vn -0.314081 0.1267185 -0.9409015
vn -0.314081 0.1267185 -0.9409015
vn -0.314081 0.1267185 -0.9409015
vn -0.314081 0.1267185 -0.9409015
vn 0.6617656 -0.4119489 -0.62639
vn 0.6617656 -0.4119489 -0.62639
vn 0.6617656 -0.4119489 -0.62639
vn 0.005996704 0.9854634 -0.1697822
vn 0.005996704 0.9854634 -0.1697822
vn 0.005996704 0.9854634 -0.1697822
vn 0.8100942 -0.06845087 0.5822901
vn 0.8100942 -0.06845087 0.5822901
vn 0.8100942 -0.06845087 0.5822901
vn 0.8100942 -0.06845087 0.5822901
vn -0.7200332 -0.372915 -0.5852236
vn -0.7200332 -0.372915 -0.5852236
vn -0.7200332 -0.372915 -0.5852236
vn -0.7200332 -0.372915 -0.5852236
vn 0.1621321 0.6731925 0.7214742
vn 0.1621321 0.6731925 0.7214742
vn 0.1621321 0.6731925 0.7214742
vn -0.6966128 0.4467962 0.561341
vn -0.6966128 0.4467962 0.561341
vn -0.6966128 0.4467962 0.561341
vn -0.6966128 0.4467962 0.561341
vn -0.2984675 -0.7788671 -0.5516186
vn -0.2984675 -0.7788671 -0.5516186
vn -0.2984675 -0.7788671 -0.5516186
vn -0.2984675 -0.7788671 -0.5516186
vn 0.4587895 0.5638977 -0.6866816
vn 0.4587895 0.5638977 -0.6866816
vn 0.4587895 0.5638977 -0.6866816
vn 0.4587895 0.5638977 -0.6866816
vn 0.3963353 -0.4509827 0.799708
vn 0.3963353 -0.4509827 0.799708
vn 0.3963353 -0.4509827 0.799708
vn 0.3963353 -0.4509827 0.799708
vn 0.4197556 0.7902941 -0.4463637
vn 0.4197556 0.7902941 -0.4463637
vn 0.4197556 0.7902941 -0.4463637
vn 0.2089728 -0.7632536 0.6113708
vn 0.2089728 -0.7632536 0.6113708
vn 0.2089728 -0.7632536 0.6113708
vn 0.2089728 -0.7632536 0.6113708
vn -0.4624096 -0.5680843 0.6807772
vn -0.4624096 -0.5680843 0.6807772
vn -0.4624096 -0.5680843 0.6807772
vn -0.4624096 -0.5680843 0.6807772
vn 0.8959687 -0.3885285 0.215141
vn 0.8959687 -0.3885285 0.215141
vn 0.8959687 -0.3885285 0.215141
vn 0.8959687 -0.3885285 0.215141
vn -0.3218877 -0.8257078 0.463244
vn -0.3218877 -0.8257078 0.463244
vn -0.3218877 -0.8257078 0.463244
vn -0.3218877 -0.8257078 0.463244
vn -0.6341586 0.2047862 -0.7455907
vn -0.6341586 0.2047862 -0.7455907
vn -0.6341586 0.2047862 -0.7455907
vn -0.6341586 0.2047862 -0.7455907
vn -0.5248638 0.314081 -0.7911202
vn -0.5248638 0.314081 -0.7911202
vn -0.5248638 0.314081 -0.7911202
vn -0.5248638 0.314081 -0.7911202
vn 0.9506162 0.1891726 0.246054
vn 0.9506162 0.1891726 0.246054
vn 0.9506162 0.1891726 0.246054
vn 0.9506162 0.1891726 0.246054
vn -0.1032982 0.9308159 0.3505869
vn -0.1032982 0.9308159 0.3505869
vn -0.1032982 0.9308159 0.3505869
vn 0.9974568 0.0642643 0.03082247
vn 0.9974568 0.0642643 0.03082247
vn 0.9974568 0.0642643 0.03082247
vn 0.9974568 0.0642643 0.03082247
vn -0.5014435 -0.2636202 0.8240502
vn -0.5014435 -0.2636202 0.8240502
vn -0.5014435 -0.2636202 0.8240502
vn -0.5014435 -0.2636202 0.8240502
vn -0.8449415 -0.1230983 -0.5205004
vn -0.8449415 -0.1230983 -0.5205004
vn -0.8449415 -0.1230983 -0.5205004
vn -0.8449415 -0.1230983 -0.5205004
vn 0.09967798 0.2672404 0.9584607
vn 0.09967798 0.2672404 0.9584607
vn 0.09967798 0.2672404 0.9584607
vn 0.09967798 0.2672404 0.9584607
vn 0.7554469 0.2360133 -0.6112265
vn 0.7554469 0.2360133 -0.6112265
vn 0.7554469 0.2360133 -0.6112265
vn 0.7554469 0.2360133 -0.6112265
vn 0.02941704 0.1657523 0.9857286
vn 0.02941704 0.1657523 0.9857286
vn 0.02941704 0.1657523 0.9857286
vn 0.02941704 0.1657523 0.9857286
vn -0.1813658 0.9542363 -0.2377804
vn -0.1813658 0.9542363 -0.2377804
vn -0.1813658 0.9542363 -0.2377804
vn 0.8100942 -0.1543254 -0.5656244
vn 0.8100942 -0.1543254 -0.5656244
vn 0.8100942 -0.1543254 -0.5656244
vn 0.8100942 -0.1543254 -0.5656244
vn 0.4587895 -0.7866739 0.4131058
vn 0.4587895 -0.7866739 0.4131058
vn 0.4587895 -0.7866739 0.4131058
vn 0.2948472 -0.6695724 0.6817169
vn 0.2948472 -0.6695724 0.6817169
vn 0.2948472 -0.6695724 0.6817169
vn 0.2948472 -0.6695724 0.6817169
vn 0.1543254 0.9854634 0.07103234
vn 0.1543254 0.9854634 0.07103234
vn 0.1543254 0.9854634 0.07103234
vn 0.1152915 0.4780232 -0.8707478
vn 0.1152915 0.4780232 -0.8707478
vn 0.1152915 0.4780232 -0.8707478
vn 0.1152915 0.4780232 -0.8707478
vn -0.009616852 0.8293279 -0.5586794
vn -0.009616852 0.8293279 -0.5586794
vn -0.009616852 0.8293279 -0.5586794
vn -0.009616852 0.8293279 -0.5586794
vn 0.4275624 0.7356467 0.5253707
vn 0.4275624 0.7356467 0.5253707
vn 0.4275624 0.7356467 0.5253707
vn 0.4275624 0.7356467 0.5253707
vn 0.4587895 -0.7710604 0.4415632
vn 0.4587895 -0.7710604 0.4415632
vn 0.4587895 -0.7710604 0.4415632
vn 0.4587895 -0.7710604 0.4415632
vn -0.8137144 -0.3885285 0.4323361
vn -0.8137144 -0.3885285 0.4323361
vn -0.8137144 -0.3885285 0.4323361
vn -0.8137144 -0.3885285 0.4323361
vn 0.2089728 0.7824873 0.5865527
vn 0.2089728 0.7824873 0.5865527
vn 0.2089728 0.7824873 0.5865527
vn 0.8100942 -0.2714269 0.5196872
vn 0.8100942 -0.2714269 0.5196872
vn 0.8100942 -0.2714269 0.5196872
vn 0.8100942 -0.2714269 0.5196872
vn -0.8527483 -0.2245863 0.4715733
vn -0.8527483 -0.2245863 0.4715733
vn -0.8527483 -0.2245863 0.4715733
vn -0.8527483 -0.2245863 0.4715733
g default_0
f 3/3/3 2/2/2 1/1/1
f 4/4/4 1/1/1 2/2/2
f 7/7/7 6/6/6 5/5/5
f 8/8/8 5/5/5 6/6/6
f 11/11/11 10/10/10 9/9/9
f 12/12/12 9/9/9 10/10/10
f 15/15/15 14/14/14 13/13/13
f 16/16/16 13/13/13 14/14/14
f 19/19/19 18/18/18 17/17/17
f 20/20/20 17/17/17 18/18/18
f 23/23/23 22/22/22 21/21/21
f 24/24/24 21/21/21 22/22/22
f 27/27/27 26/26/26 25/25/25
f 30/30/30 29/29/29 28/28/28
f 33/33/33 32/32/32 31/31/31
f 34/34/34 31/31/31 32/32/32
f 37/37/37 36/36/36 35/35/35
f 38/38/38 35/35/35 36/36/36
f 41/41/41 40/40/40 39/39/39
f 42/42/42 39/39/39 40/40/40
f 45/45/45 44/44/44 43/43/43
f 46/46/46 43/43/43 44/44/44
f 49/49/49 48/48/48 47/47/47
f 50/50/50 47/47/47 48/48/48
f 53/53/53 52/52/52 51/51/51
f 54/54/54 51/51/51 52/52/52
f 57/57/57 56/56/56 55/55/55
f 58/58/58 55/55/55 56/56/56
f 61/61/61 60/60/60 59/59/59
f 62/62/62 59/59/59 60/60/60
f 65/65/65 64/64/64 63/63/63
f 68/68/68 67/67/67 66/66/66
f 69/69/69 66/66/66 67/67/67
f 72/72/72 71/71/71 70/70/70
f 73/73/73 70/70/70 71/71/71
f 76/76/76 75/75/75 74/74/74
f 77/77/77 74/74/74 75/75/75
f 80/80/80 79/79/79 78/78/78
f 81/81/81 78/78/78 79/79/79
f 84/84/84 83/83/83 82/82/82
f 85/85/85 82/82/82 83/83/83
f 88/88/88 87/87/87 86/86/86
f 89/89/89 86/86/86 87/87/87
f 92/92/92 91/91/91 90/90/90
f 93/93/93 90/90/90 91/91/91
f 96/96/96 95/95/95 94/94/94
f 97/97/97 94/94/94 95/95/95
f 100/100/100 99/99/99 98/98/98
f 101/101/101 98/98/98 99/99/99
f 104/104/104 103/103/103 102/102/102
f 107/107/107 106/106/106 105/105/105
f 108/108/108 105/105/105 106/106/106
f 111/111/111 110/110/110 109/109/109
f 112/112/112 109/109/109 110/110/110
f 115/115/115 114/114/114 113/113/113
f 116/116/116 113/113/113 114/114/114
f 119/119/119 118/118/118 117/117/117
f 122/122/122 121/121/121 120/120/120
f 123/123/123 120/120/120 121/121/121
f 126/126/126 125/125/125 124/124/124
f 127/127/127 124/124/124 125/125/125
f 130/130/130 129/129/129 128/128/128
f 131/131/131 128/128/128 129/129/129
f 134/134/134 133/133/133 132/132/132
f 135/135/135 132/132/132 133/133/133
f 138/138/138 137/137/137 136/136/136
f 139/139/139 136/136/136 137/137/137
f 142/142/142 141/141/141 140/140/140
f 143/143/143 140/140/140 141/141/141
f 146/146/146 145/145/145 144/144/144
f 147/147/147 144/144/144 145/145/145
f 150/150/150 149/149/149 148/148/148
f 151/151/151 148/148/148 149/149/149
f 154/154/154 153/153/153 152/152/152
f 155/155/155 152/152/152 153/153/153
f 158/158/158 157/157/157 156/156/156
f 159/159/159 156/156/156 157/157/157
f 162/162/162 161/161/161 160/160/160
f 163/163/163 160/160/160 161/161/161
f 166/166/166 165/165/165 164/164/164
f 167/167/167 164/164/164 165/165/165
f 170/170/170 169/169/169 168/168/168
f 171/171/171 168/168/168 169/169/169
f 174/174/174 173/173/173 172/172/172
f 175/175/175 172/172/172 173/173/173
f 178/178/178 177/177/177 176/176/176
f 179/179/179 176/176/176 177/177/177
f 182/182/182 181/181/181 180/180/180
f 183/183/183 180/180/180 181/181/181
f 186/186/186 185/185/185 184/184/184
f 187/187/187 184/184/184 185/185/185
f 190/190/190 189/189/189 188/188/188
f 193/193/193 192/192/192 191/191/191
f 194/194/194 191/191/191 192/192/192
f 197/197/197 196/196/196 195/195/195
f 198/198/198 195/195/195 196/196/196
f 201/201/201 200/200/200 199/199/199
f 202/202/202 199/199/199 200/200/200
f 205/205/205 204/204/204 203/203/203
f 206/206/206 203/203/203 204/204/204
f 209/209/209 208/208/208 207/207/207
f 210/210/210 207/207/207 208/208/208
f 213/213/213 212/212/212 211/211/211
f 214/214/214 211/211/211 212/212/212
f 217/217/217 216/216/216 215/215/215
f 218/218/218 215/215/215 216/216/216
f 221/221/221 220/220/220 219/219/219
f 222/222/222 219/219/219 220/220/220
f 225/225/225 224/224/224 223/223/223
f 226/226/226 223/223/223 224/224/224
f 229/229/229 228/228/228 227/227/227
f 230/230/230 227/227/227 228/228/228
f 233/233/233 232/232/232 231/231/231
f 234/234/234 231/231/231 232/232/232
f 237/237/237 236/236/236 235/235/235
f 238/238/238 235/235/235 236/236/236
f 241/241/241 240/240/240 239/239/239
f 242/242/242 239/239/239 240/240/240
f 245/245/245 244/244/244 243/243/243
f 248/248/248 247/247/247 246/246/246
f 249/249/249 246/246/246 247/247/247
f 252/252/252 251/251/251 250/250/250
f 253/253/253 250/250/250 251/251/251
f 256/256/256 255/255/255 254/254/254
f 257/257/257 254/254/254 255/255/255
f 260/260/260 259/259/259 258/258/258
f 261/261/261 258/258/258 259/259/259
f 264/264/264 263/263/263 262/262/262
f 265/265/265 262/262/262 263/263/263
f 268/268/268 267/267/267 266/266/266
f 271/271/271 270/270/270 269/269/269
f 272/272/272 269/269/269 270/270/270
f 275/275/275 274/274/274 273/273/273
f 276/276/276 273/273/273 274/274/274
f 279/279/279 278/278/278 277/277/277
f 282/282/282 281/281/281 280/280/280
f 283/283/283 280/280/280 281/281/281
f 286/286/286 285/285/285 284/284/284
f 287/287/287 284/284/284 285/285/285
f 290/290/290 289/289/289 288/288/288
f 291/291/291 288/288/288 289/289/289
f 294/294/294 293/293/293 292/292/292
f 297/297/297 296/296/296 295/295/295
f 298/298/298 295/295/295 296/296/296
f 301/301/301 300/300/300 299/299/299
f 302/302/302 299/299/299 300/300/300
f 305/305/305 304/304/304 303/303/303
f 306/306/306 303/303/303 304/304/304
f 309/309/309 308/308/308 307/307/307
f 310/310/310 307/307/307 308/308/308
f 313/313/313 312/312/312 311/311/311
f 314/314/314 311/311/311 312/312/312
f 317/317/317 316/316/316 315/315/315
f 320/320/320 319/319/319 318/318/318
f 321/321/321 318/318/318 319/319/319
f 324/324/324 323/323/323 322/322/322
f 325/325/325 322/322/322 323/323/323
f 328/328/328 327/327/327 326/326/326
f 329/329/329 326/326/326 327/327/327
f 332/332/332 331/331/331 330/330/330
f 333/333/333 330/330/330 331/331/331
f 336/336/336 335/335/335 334/334/334
f 337/337/337 334/334/334 335/335/335
f 340/340/340 339/339/339 338/338/338
f 341/341/341 338/338/338 339/339/339
f 344/344/344 343/343/343 342/342/342
f 345/345/345 342/342/342 343/343/343
f 348/348/348 347/347/347 346/346/346
f 349/349/349 346/346/346 347/347/347
f 352/352/352 351/351/351 350/350/350
f 355/355/355 354/354/354 353/353/353
f 356/356/356 353/353/353 354/354/354
f 359/359/359 358/358/358 357/357/357
f 360/360/360 357/357/357 358/358/358
f 363/363/363 362/362/362 361/361/361
f 364/364/364 361/361/361 362/362/362
f 367/367/367 366/366/366 365/365/365
f 370/370/370 369/369/369 368/368/368
f 371/371/371 368/368/368 369/369/369
f 374/374/374 373/373/373 372/372/372
f 375/375/375 372/372/372 373/373/373
f 378/378/378 377/377/377 376/376/376
f 379/379/379 376/376/376 377/377/377
f 382/382/382 381/381/381 380/380/380
f 383/383/383 380/380/380 381/381/381
f 386/386/386 385/385/385 384/384/384
f 387/387/387 384/384/384 385/385/385
f 390/390/390 389/389/389 388/388/388
f 393/393/393 392/392/392 391/391/391
f 394/394/394 391/391/391 392/392/392
f 397/397/397 396/396/396 395/395/395
f 398/398/398 395/395/395 396/396/396
f 401/401/401 400/400/400 399/399/399
f 402/402/402 399/399/399 400/400/400
f 405/405/405 404/404/404 403/403/403
f 406/406/406 403/403/403 404/404/404
f 409/409/409 408/408/408 407/407/407
f 412/412/412 411/411/411 410/410/410
f 413/413/413 410/410/410 411/411/411
f 416/416/416 415/415/415 414/414/414
f 417/417/417 414/414/414 415/415/415
f 420/420/420 419/419/419 418/418/418
f 421/421/421 418/418/418 419/419/419
f 424/424/424 423/423/423 422/422/422
f 427/427/427 426/426/426 425/425/425
f 428/428/428 425/425/425 426/426/426
f 431/431/431 430/430/430 429/429/429
f 432/432/432 429/429/429 430/430/430
f 435/435/435 434/434/434 433/433/433
f 436/436/436 433/433/433 434/434/434
f 439/439/439 438/438/438 437/437/437
f 440/440/440 437/437/437 438/438/438
f 443/443/443 442/442/442 441/441/441
f 444/444/444 441/441/441 442/442/442
f 447/447/447 446/446/446 445/445/445
f 448/448/448 445/445/445 446/446/446
f 451/451/451 450/450/450 449/449/449
f 452/452/452 449/449/449 450/450/450
f 455/455/455 454/454/454 453/453/453
f 458/458/458 457/457/457 456/456/456
f 459/459/459 456/456/456 457/457/457
f 462/462/462 461/461/461 460/460/460
f 463/463/463 460/460/460 461/461/461
f 466/466/466 465/465/465 464/464/464
f 467/467/467 464/464/464 465/465/465
f 470/470/470 469/469/469 468/468/468
f 471/471/471 468/468/468 469/469/469
f 474/474/474 473/473/473 472/472/472
f 475/475/475 472/472/472 473/473/473
f 478/478/478 477/477/477 476/476/476
f 479/479/479 476/476/476 477/477/477
f 482/482/482 481/481/481 480/480/480
f 483/483/483 480/480/480 481/481/481
f 486/486/486 485/485/485 484/484/484
f 487/487/487 484/484/484 485/485/485
f 490/490/490 489/489/489 488/488/488
f 491/491/491 488/488/488 489/489/489
f 494/494/494 493/493/493 492/492/492
f 495/495/495 492/492/492 493/493/493
f 498/498/498 497/497/497 496/496/496
f 499/499/499 496/496/496 497/497/497
f 502/502/502 501/501/501 500/500/500
f 503/503/503 500/500/500 501/501/501
f 506/506/506 505/505/505 504/504/504
f 507/507/507 504/504/504 505/505/505
f 510/510/510 509/509/509 508/508/508
f 511/511/511 508/508/508 509/509/509
f 514/514/514 513/513/513 512/512/512
f 515/515/515 512/512/512 513/513/513
f 518/518/518 517/517/517 516/516/516
f 519/519/519 516/516/516 517/517/517
f 522/522/522 521/521/521 520/520/520
f 523/523/523 520/520/520 521/521/521
f 526/526/526 525/525/525 524/524/524
f 527/527/527 524/524/524 525/525/525
f 530/530/530 529/529/529 528/528/528
f 533/533/533 532/532/532 531/531/531
f 536/536/536 535/535/535 534/534/534
f 537/537/537 534/534/534 535/535/535
f 540/540/540 539/539/539 538/538/538
f 541/541/541 538/538/538 539/539/539
f 544/544/544 543/543/543 542/542/542
f 547/547/547 546/546/546 545/545/545
f 548/548/548 545/545/545 546/546/546
f 551/551/551 550/550/550 549/549/549
f 552/552/552 549/549/549 550/550/550
f 555/555/555 554/554/554 553/553/553
f 556/556/556 553/553/553 554/554/554
f 559/559/559 558/558/558 557/557/557
f 560/560/560 557/557/557 558/558/558
f 563/563/563 562/562/562 561/561/561
f 566/566/566 565/565/565 564/564/564
f 567/567/567 564/564/564 565/565/565
f 570/570/570 569/569/569 568/568/568
f 571/571/571 568/568/568 569/569/569
f 574/574/574 573/573/573 572/572/572
f 575/575/575 572/572/572 573/573/573
f 578/578/578 577/577/577 576/576/576
f 579/579/579 576/576/576 577/577/577
f 582/582/582 581/581/581 580/580/580
f 583/583/583 580/580/580 581/581/581
f 586/586/586 585/585/585 584/584/584
f 587/587/587 584/584/584 585/585/585
f 590/590/590 589/589/589 588/588/588
f 591/591/591 588/588/588 589/589/589
f 594/594/594 593/593/593 592/592/592
f 597/597/597 596/596/596 595/595/595
f 598/598/598 595/595/595 596/596/596
f 601/601/601 600/600/600 599/599/599
f 602/602/602 599/599/599 600/600/600
f 605/605/605 604/604/604 603/603/603
f 606/606/606 603/603/603 604/604/604
f 609/609/609 608/608/608 607/607/607
f 610/610/610 607/607/607 608/608/608
f 613/613/613 612/612/612 611/611/611
f 614/614/614 611/611/611 612/612/612
f 617/617/617 616/616/616 615/615/615
f 618/618/618 615/615/615 616/616/616
f 621/621/621 620/620/620 619/619/619
f 624/624/624 623/623/623 622/622/622
f 625/625/625 622/622/622 623/623/623
f 628/628/628 627/627/627 626/626/626
f 631/631/631 630/630/630 629/629/629
f 632/632/632 629/629/629 630/630/630
f 635/635/635 634/634/634 633/633/633
f 638/638/638 637/637/637 636/636/636
f 639/639/639 636/636/636 637/637/637
f 642/642/642 641/641/641 640/640/640
f 643/643/643 640/640/640 641/641/641
f 646/646/646 645/645/645 644/644/644
f 647/647/647 644/644/644 645/645/645
f 650/650/650 649/649/649 648/648/648
f 651/651/651 648/648/648 649/649/649
f 654/654/654 653/653/653 652/652/652
f 655/655/655 652/652/652 653/653/653
f 658/658/658 657/657/657 656/656/656
f 661/661/661 660/660/660 659/659/659
f 662/662/662 659/659/659 660/660/660
f 665/665/665 664/664/664 663/663/663
f 666/666/666 663/663/663 664/664/664
