g denglong (1)_0
v -0.3786417 0.1365745 1.789737
v -0.3741583 2.936577E-10 1.789737
v -0.3741583 0.1365745 1.789737
v -0.3786417 2.936577E-10 1.789737
v -0.3786417 0.1365745 1.794663
v -0.3786417 2.936577E-10 1.789737
v -0.3786417 0.1365745 1.789737
v -0.3786417 -2.936577E-10 1.794663
v -0.3741583 0.1365745 1.794663
v -0.3786417 -2.936577E-10 1.794663
v -0.3786417 0.1365745 1.794663
v -0.3741583 -2.936577E-10 1.794663
v -0.3741583 0.1365745 1.789737
v -0.3741583 -2.936577E-10 1.794663
v -0.3741583 0.1365745 1.794663
v -0.3741583 2.936577E-10 1.789737
v -0.3418227 0.141058 1.794663
v -0.3418227 0.1365746 1.789737
v -0.3418227 0.1365746 1.794663
v -0.3418227 0.141058 1.789737
v -0.3418227 0.141058 1.789737
v -0.3885932 0.1365746 1.789737
v -0.3418227 0.1365746 1.789737
v -0.3885932 0.141058 1.789737
v -0.3418227 0.141058 1.794663
v -0.3885932 0.141058 1.789737
v -0.3418227 0.141058 1.789737
v -0.3885932 0.141058 1.794663
v -0.3418227 0.1365746 1.794663
v -0.3885932 0.141058 1.794663
v -0.3418227 0.141058 1.794663
v -0.3885932 0.1365746 1.794663
v -0.3418227 0.1365746 1.789737
v -0.3885932 0.1365746 1.794663
v -0.3418227 0.1365746 1.794663
v -0.3885932 0.1365746 1.789737
v -0.3583519 0.1374002 1.792794
v -0.3581657 0.05765195 1.793489
v -0.3581657 0.1374002 1.793489
v -0.3583519 0.05765195 1.792794
v -0.3588606 0.1374002 1.793303
v -0.3583519 0.05765195 1.792794
v -0.3583519 0.1374002 1.792794
v -0.3588606 0.05765195 1.793303
v -0.3581657 0.1374002 1.793489
v -0.3588606 0.05765195 1.793303
v -0.3588606 0.1374002 1.793303
v -0.3581657 0.05765195 1.793489
v -0.3513539 0.1310518 1.789575
v -0.3528204 0.1175305 1.798834
v -0.3528204 0.1310518 1.798834
v -0.3513539 0.1175305 1.789575
v -0.3597068 0.1310518 1.785319
v -0.3513539 0.1175305 1.789575
v -0.3513539 0.1310518 1.789575
v -0.3597068 0.1175305 1.785319
v -0.3663358 0.1310518 1.791948
v -0.3597068 0.1175305 1.785319
v -0.3597068 0.1310518 1.785319
v -0.3663358 0.1175305 1.791948
v -0.3620798 0.1310518 1.800301
v -0.3663358 0.1175305 1.791948
v -0.3663358 0.1310518 1.791948
v -0.3620798 0.1175305 1.800301
v -0.3528204 0.1310518 1.798834
v -0.3620798 0.1175305 1.800301
v -0.3620798 0.1310518 1.800301
v -0.3528204 0.1175305 1.798834
v -0.3591653 0.1336416 1.788738
v -0.3605082 0.1336416 1.797216
v -0.3629167 0.1336416 1.792489
v -0.3552682 0.1336416 1.796386
v -0.3544384 0.1336416 1.791147
v -0.3552682 0.1149407 1.796386
v -0.3513539 0.1175305 1.789575
v -0.3544384 0.1149407 1.791147
v -0.3528204 0.1175305 1.798834
v -0.3605082 0.1149407 1.797216
v -0.3528204 0.1175305 1.798834
v -0.3552682 0.1149407 1.796386
v -0.3620798 0.1175305 1.800301
v -0.3629167 0.1149407 1.792489
v -0.3620798 0.1175305 1.800301
v -0.3605082 0.1149407 1.797216
v -0.3663358 0.1175305 1.791948
v -0.3591653 0.1149407 1.788738
v -0.3663358 0.1175305 1.791948
v -0.3629167 0.1149407 1.792489
v -0.3597068 0.1175305 1.785319
v -0.3544384 0.1149407 1.791147
v -0.3597068 0.1175305 1.785319
v -0.3591653 0.1149407 1.788738
v -0.3513539 0.1175305 1.789575
v -0.3544384 0.1336416 1.791147
v -0.3528204 0.1310518 1.798834
v -0.3552682 0.1336416 1.796386
v -0.3513539 0.1310518 1.789575
v -0.3591653 0.1336416 1.788738
v -0.3513539 0.1310518 1.789575
v -0.3544384 0.1336416 1.791147
v -0.3597068 0.1310518 1.785319
v -0.3629167 0.1336416 1.792489
v -0.3597068 0.1310518 1.785319
v -0.3591653 0.1336416 1.788738
v -0.3663358 0.1310518 1.791948
v -0.3605082 0.1336416 1.797216
v -0.3663358 0.1310518 1.791948
v -0.3629167 0.1336416 1.792489
v -0.3620798 0.1310518 1.800301
v -0.3552682 0.1336416 1.796386
v -0.3620798 0.1310518 1.800301
v -0.3605082 0.1336416 1.797216
v -0.3528204 0.1310518 1.798834
v -0.3552682 0.1121324 1.796386
v -0.3544384 0.1149407 1.791147
v -0.3544384 0.1121324 1.791147
v -0.3552682 0.1149407 1.796386
v -0.3605082 0.1121324 1.797216
v -0.3552682 0.1149407 1.796386
v -0.3552682 0.1121324 1.796386
v -0.3605082 0.1149407 1.797216
v -0.3629167 0.1121324 1.792489
v -0.3605082 0.1149407 1.797216
v -0.3605082 0.1121324 1.797216
v -0.3629167 0.1149407 1.792489
v -0.3591653 0.1121324 1.788738
v -0.3629167 0.1149407 1.792489
v -0.3629167 0.1121324 1.792489
v -0.3591653 0.1149407 1.788738
v -0.3544384 0.1121324 1.791147
v -0.3591653 0.1149407 1.788738
v -0.3591653 0.1121324 1.788738
v -0.3544384 0.1149407 1.791147
v -0.3504896 0.1058906 1.792917
v -0.3557319 0.09236936 1.800689
v -0.3557319 0.1058906 1.800689
v -0.3504896 0.09236936 1.792917
v -0.3562613 0.1058906 1.785529
v -0.3504896 0.09236936 1.792917
v -0.3504896 0.1058906 1.792917
v -0.3562613 0.09236936 1.785529
v -0.3650706 0.1058906 1.788736
v -0.3562613 0.09236936 1.785529
v -0.3562613 0.1058906 1.785529
v -0.3650706 0.09236936 1.788736
v -0.3647434 0.1058906 1.798105
v -0.3650706 0.09236936 1.788736
v -0.3650706 0.1058906 1.788736
v -0.3647434 0.09236936 1.798105
v -0.3557319 0.1058906 1.800689
v -0.3647434 0.09236936 1.798105
v -0.3647434 0.1058906 1.798105
v -0.3557319 0.09236936 1.800689
v -0.3572155 0.1084804 1.788857
v -0.3620156 0.1084804 1.795974
v -0.3622008 0.1084804 1.790672
v -0.3569159 0.1084804 1.797436
v -0.3539493 0.1084804 1.793038
v -0.3569159 0.08977955 1.797436
v -0.3504896 0.09236936 1.792917
v -0.3539493 0.08977955 1.793038
v -0.3557319 0.09236936 1.800689
v -0.3620156 0.08977955 1.795974
v -0.3557319 0.09236936 1.800689
v -0.3569159 0.08977955 1.797436
v -0.3647434 0.09236936 1.798105
v -0.3622008 0.08977955 1.790672
v -0.3647434 0.09236936 1.798105
v -0.3620156 0.08977955 1.795974
v -0.3650706 0.09236936 1.788736
v -0.3572155 0.08977955 1.788857
v -0.3650706 0.09236936 1.788736
v -0.3622008 0.08977955 1.790672
v -0.3562613 0.09236936 1.785529
v -0.3539493 0.08977955 1.793038
v -0.3562613 0.09236936 1.785529
v -0.3572155 0.08977955 1.788857
v -0.3504896 0.09236936 1.792917
v -0.3539493 0.1084804 1.793038
v -0.3557319 0.1058906 1.800689
v -0.3569159 0.1084804 1.797436
v -0.3504896 0.1058906 1.792917
v -0.3572155 0.1084804 1.788857
v -0.3504896 0.1058906 1.792917
v -0.3539493 0.1084804 1.793038
v -0.3562613 0.1058906 1.785529
v -0.3622008 0.1084804 1.790672
v -0.3562613 0.1058906 1.785529
v -0.3572155 0.1084804 1.788857
v -0.3650706 0.1058906 1.788736
v -0.3620156 0.1084804 1.795974
v -0.3650706 0.1058906 1.788736
v -0.3622008 0.1084804 1.790672
v -0.3647434 0.1058906 1.798105
v -0.3569159 0.1084804 1.797436
v -0.3647434 0.1058906 1.798105
v -0.3620156 0.1084804 1.795974
v -0.3557319 0.1058906 1.800689
v -0.3569159 0.08697118 1.797436
v -0.3539493 0.08977955 1.793038
v -0.3539493 0.08697118 1.793038
v -0.3569159 0.08977955 1.797436
v -0.3620156 0.08697118 1.795974
v -0.3569159 0.08977955 1.797436
v -0.3569159 0.08697118 1.797436
v -0.3620156 0.08977955 1.795974
v -0.3622008 0.08697118 1.790672
v -0.3620156 0.08977955 1.795974
v -0.3620156 0.08697118 1.795974
v -0.3622008 0.08977955 1.790672
v -0.3572155 0.08697118 1.788857
v -0.3622008 0.08977955 1.790672
v -0.3622008 0.08697118 1.790672
v -0.3572155 0.08977955 1.788857
v -0.3539493 0.08697118 1.793038
v -0.3572155 0.08977955 1.788857
v -0.3572155 0.08697118 1.788857
v -0.3539493 0.08977955 1.793038
v -0.3587377 0.08073457 1.785225
v -0.3509656 0.0672133 1.790468
v -0.3509656 0.08073457 1.790468
v -0.3587377 0.0672133 1.785226
v -0.366125 0.08073457 1.790997
v -0.3587377 0.0672133 1.785226
v -0.3587377 0.08073457 1.785225
v -0.366125 0.0672133 1.790997
v -0.3629186 0.08073457 1.799806
v -0.366125 0.0672133 1.790997
v -0.366125 0.08073457 1.790997
v -0.3629186 0.0672133 1.799806
v -0.3535497 0.08073457 1.799479
v -0.3629186 0.0672133 1.799806
v -0.3629186 0.08073457 1.799806
v -0.3535497 0.0672133 1.799479
v -0.3509656 0.08073457 1.790468
v -0.3535497 0.0672133 1.799479
v -0.3535497 0.08073457 1.799479
v -0.3509656 0.0672133 1.790468
v -0.3586168 0.08332437 1.788685
v -0.3609829 0.08332437 1.796937
v -0.3627974 0.08332437 1.791951
v -0.3556809 0.08332437 1.796751
v -0.3542186 0.08332437 1.791652
v -0.3542186 0.06462348 1.791652
v -0.3587377 0.0672133 1.785226
v -0.3586168 0.06462348 1.788685
v -0.3509656 0.0672133 1.790468
v -0.3556809 0.06462348 1.796751
v -0.3509656 0.0672133 1.790468
v -0.3542186 0.06462348 1.791652
v -0.3535497 0.0672133 1.799479
v -0.3609829 0.06462348 1.796937
v -0.3535497 0.0672133 1.799479
v -0.3556809 0.06462348 1.796751
v -0.3629186 0.0672133 1.799806
v -0.3627974 0.06462348 1.791951
v -0.3629186 0.0672133 1.799806
v -0.3609829 0.06462348 1.796937
v -0.366125 0.0672133 1.790997
v -0.3586168 0.06462348 1.788685
v -0.366125 0.0672133 1.790997
v -0.3627974 0.06462348 1.791951
v -0.3587377 0.0672133 1.785226
v -0.3586168 0.08332437 1.788685
v -0.3509656 0.08073457 1.790468
v -0.3542186 0.08332437 1.791652
v -0.3587377 0.08073457 1.785225
v -0.3627974 0.08332437 1.791951
v -0.3587377 0.08073457 1.785225
v -0.3586168 0.08332437 1.788685
v -0.366125 0.08073457 1.790997
v -0.3609829 0.08332437 1.796937
v -0.366125 0.08073457 1.790997
v -0.3627974 0.08332437 1.791951
v -0.3629186 0.08073457 1.799806
v -0.3556809 0.08332437 1.796751
v -0.3629186 0.08073457 1.799806
v -0.3609829 0.08332437 1.796937
v -0.3535497 0.08073457 1.799479
v -0.3542186 0.08332437 1.791652
v -0.3535497 0.08073457 1.799479
v -0.3556809 0.08332437 1.796751
v -0.3509656 0.08073457 1.790468
v -0.3542186 0.06181512 1.791652
v -0.3586168 0.06462348 1.788685
v -0.3586168 0.06181512 1.788685
v -0.3542186 0.06462348 1.791652
v -0.3556809 0.06181512 1.796751
v -0.3542186 0.06462348 1.791652
v -0.3542186 0.06181512 1.791652
v -0.3556809 0.06462348 1.796751
v -0.3609829 0.06181512 1.796937
v -0.3556809 0.06462348 1.796751
v -0.3556809 0.06181512 1.796751
v -0.3609829 0.06462348 1.796937
v -0.3627974 0.06181512 1.791951
v -0.3609829 0.06462348 1.796937
v -0.3609829 0.06181512 1.796937
v -0.3627974 0.06462348 1.791951
v -0.3586168 0.06181512 1.788685
v -0.3627974 0.06462348 1.791951
v -0.3627974 0.06181512 1.791951
v -0.3586168 0.06462348 1.788685
v -0.3530207 0.0570472 1.787363
v -0.3512319 0.04352593 1.796565
v -0.3512319 0.0570472 1.796565
v -0.3530207 0.04352593 1.787363
v -0.3623255 0.0570472 1.78622
v -0.3530207 0.04352593 1.787363
v -0.3530207 0.0570472 1.787363
v -0.3623255 0.04352593 1.78622
v -0.3662874 0.0570472 1.794717
v -0.3623255 0.04352593 1.78622
v -0.3623255 0.0570472 1.78622
v -0.3662874 0.04352593 1.794717
v -0.3594312 0.0570472 1.80111
v -0.3662874 0.04352593 1.794717
v -0.3662874 0.0570472 1.794717
v -0.3594312 0.04352593 1.80111
v -0.3512319 0.0570472 1.796565
v -0.3594312 0.04352593 1.80111
v -0.3594312 0.0570472 1.80111
v -0.3512319 0.04352593 1.796565
v -0.3606473 0.05963701 1.789248
v -0.3590094 0.05963701 1.797675
v -0.3628894 0.05963701 1.794056
v -0.3553816 0.05963701 1.789895
v -0.3543693 0.05963701 1.795102
v -0.3543693 0.0409361 1.795102
v -0.3530207 0.04352593 1.787363
v -0.3553816 0.0409361 1.789895
v -0.3512319 0.04352593 1.796565
v -0.3590094 0.0409361 1.797675
v -0.3512319 0.04352593 1.796565
v -0.3543693 0.0409361 1.795102
v -0.3594312 0.04352593 1.80111
v -0.3628894 0.0409361 1.794056
v -0.3594312 0.04352593 1.80111
v -0.3590094 0.0409361 1.797675
v -0.3662874 0.04352593 1.794717
v -0.3606473 0.0409361 1.789248
v -0.3662874 0.04352593 1.794717
v -0.3628894 0.0409361 1.794056
v -0.3623255 0.04352593 1.78622
v -0.3553816 0.0409361 1.789895
v -0.3623255 0.04352593 1.78622
v -0.3606473 0.0409361 1.789248
v -0.3530207 0.04352593 1.787363
v -0.3553816 0.05963701 1.789895
v -0.3512319 0.0570472 1.796565
v -0.3543693 0.05963701 1.795102
v -0.3530207 0.0570472 1.787363
v -0.3606473 0.05963701 1.789248
v -0.3530207 0.0570472 1.787363
v -0.3553816 0.05963701 1.789895
v -0.3623255 0.0570472 1.78622
v -0.3628894 0.05963701 1.794056
v -0.3623255 0.0570472 1.78622
v -0.3606473 0.05963701 1.789248
v -0.3662874 0.0570472 1.794717
v -0.3590094 0.05963701 1.797675
v -0.3662874 0.0570472 1.794717
v -0.3628894 0.05963701 1.794056
v -0.3594312 0.0570472 1.80111
v -0.3543693 0.05963701 1.795102
v -0.3594312 0.0570472 1.80111
v -0.3590094 0.05963701 1.797675
v -0.3512319 0.0570472 1.796565
v -0.3543693 0.03812775 1.795102
v -0.3553816 0.0409361 1.789895
v -0.3553816 0.03812775 1.789895
v -0.3543693 0.0409361 1.795102
v -0.3590094 0.03812775 1.797675
v -0.3543693 0.0409361 1.795102
v -0.3543693 0.03812775 1.795102
v -0.3590094 0.0409361 1.797675
v -0.3628894 0.03812775 1.794056
v -0.3590094 0.0409361 1.797675
v -0.3590094 0.03812775 1.797675
v -0.3628894 0.0409361 1.794056
v -0.3606473 0.03812775 1.789248
v -0.3628894 0.0409361 1.794056
v -0.3628894 0.03812775 1.794056
v -0.3606473 0.0409361 1.789248
v -0.3553816 0.03812775 1.789895
v -0.3606473 0.0409361 1.789248
v -0.3606473 0.03812775 1.789248
v -0.3553816 0.0409361 1.789895
vt 0.1574707 0.9663086
vt 0.1574707 0.9663086
vt 0.1574707 0.9663086
vt 0.1574707 0.9663086
vt 0.1574707 0.9663086
vt 0.1574707 0.9663086
vt 0.1574707 0.9663086
vt 0.1574707 0.9663086
vt 0.1574707 0.9663086
vt 0.1574707 0.9663086
vt 0.1574707 0.9663086
vt 0.1574707 0.9663086
vt 0.1574707 0.9663086
vt 0.1574707 0.9663086
vt 0.1574707 0.9663086
vt 0.1574707 0.9663086
vt 0.1574707 0.9663086
vt 0.1574707 0.9663086
vt 0.1574707 0.9663086
vt 0.1574707 0.9663086
vt 0.1574707 0.9663086
vt 0.1574707 0.9663086
vt 0.1574707 0.9663086
vt 0.1574707 0.9663086
vt 0.1574707 0.9663086
vt 0.1574707 0.9663086
vt 0.1574707 0.9663086
vt 0.1574707 0.9663086
vt 0.1574707 0.9663086
vt 0.1574707 0.9663086
vt 0.1574707 0.9663086
vt 0.1574707 0.9663086
vt 0.1574707 0.9663086
vt 0.1574707 0.9663086
vt 0.1574707 0.9663086
vt 0.1574707 0.9663086
vt 0.04830933 0.8925781
vt 0.04830933 0.8925781
vt 0.04830933 0.8925781
vt 0.04830933 0.8925781
vt 0.04830933 0.8925781
vt 0.04830933 0.8925781
vt 0.04830933 0.8925781
vt 0.04830933 0.8925781
vt 0.04830933 0.8925781
vt 0.04830933 0.8925781
vt 0.04830933 0.8925781
vt 0.04830933 0.8925781
vt 0.0916748 0.8989258
vt 0.0916748 0.7246094
vt 0.0916748 0.8989258
vt 0.0916748 0.7246094
vt 0.0916748 0.8989258
vt 0.0916748 0.7246094
vt 0.0916748 0.8989258
vt 0.0916748 0.7246094
vt 0.0916748 0.8989258
vt 0.0916748 0.7246094
vt 0.0916748 0.8989258
vt 0.0916748 0.7246094
vt 0.0916748 0.8989258
vt 0.0916748 0.7246094
vt 0.0916748 0.8989258
vt 0.0916748 0.7246094
vt 0.0916748 0.8989258
vt 0.0916748 0.7246094
vt 0.0916748 0.8989258
vt 0.0916748 0.7246094
vt 0.0916748 0.9326172
vt 0.0916748 0.9326172
vt 0.0916748 0.9326172
vt 0.0916748 0.9326172
vt 0.0916748 0.9326172
vt 0.0916748 0.6914063
vt 0.0916748 0.7246094
vt 0.0916748 0.6914063
vt 0.0916748 0.7246094
vt 0.0916748 0.6914063
vt 0.0916748 0.7246094
vt 0.0916748 0.6914063
vt 0.0916748 0.7246094
vt 0.0916748 0.6914063
vt 0.0916748 0.7246094
vt 0.0916748 0.6914063
vt 0.0916748 0.7246094
vt 0.0916748 0.6914063
vt 0.0916748 0.7246094
vt 0.0916748 0.6914063
vt 0.0916748 0.7246094
vt 0.0916748 0.6914063
vt 0.0916748 0.7246094
vt 0.0916748 0.6914063
vt 0.0916748 0.7246094
vt 0.0916748 0.9326172
vt 0.0916748 0.8989258
vt 0.0916748 0.9326172
vt 0.0916748 0.8989258
vt 0.0916748 0.9326172
vt 0.0916748 0.8989258
vt 0.0916748 0.9326172
vt 0.0916748 0.8989258
vt 0.0916748 0.9326172
vt 0.0916748 0.8989258
vt 0.0916748 0.9326172
vt 0.0916748 0.8989258
vt 0.0916748 0.9326172
vt 0.0916748 0.8989258
vt 0.0916748 0.9326172
vt 0.0916748 0.8989258
vt 0.0916748 0.9326172
vt 0.0916748 0.8989258
vt 0.0916748 0.9326172
vt 0.0916748 0.8989258
vt 0.2983398 0.9838867
vt 0.2983398 0.9838867
vt 0.2983398 0.9838867
vt 0.2983398 0.9838867
vt 0.2983398 0.9838867
vt 0.2983398 0.9838867
vt 0.2983398 0.9838867
vt 0.2983398 0.9838867
vt 0.2983398 0.9838867
vt 0.2983398 0.9838867
vt 0.2983398 0.9838867
vt 0.2983398 0.9838867
vt 0.2983398 0.9838867
vt 0.2983398 0.9838867
vt 0.2983398 0.9838867
vt 0.2983398 0.9838867
vt 0.2983398 0.9838867
vt 0.2983398 0.9838867
vt 0.2983398 0.9838867
vt 0.2983398 0.9838867
vt 0.0916748 0.8989258
vt 0.0916748 0.7246094
vt 0.0916748 0.8989258
vt 0.0916748 0.7246094
vt 0.0916748 0.8989258
vt 0.0916748 0.7246094
vt 0.0916748 0.8989258
vt 0.0916748 0.7246094
vt 0.0916748 0.8989258
vt 0.0916748 0.7246094
vt 0.0916748 0.8989258
vt 0.0916748 0.7246094
vt 0.0916748 0.8989258
vt 0.0916748 0.7246094
vt 0.0916748 0.8989258
vt 0.0916748 0.7246094
vt 0.0916748 0.8989258
vt 0.0916748 0.7246094
vt 0.0916748 0.8989258
vt 0.0916748 0.7246094
vt 0.0916748 0.9326172
vt 0.0916748 0.9326172
vt 0.0916748 0.9326172
vt 0.0916748 0.9326172
vt 0.0916748 0.9326172
vt 0.0916748 0.6914063
vt 0.0916748 0.7246094
vt 0.0916748 0.6914063
vt 0.0916748 0.7246094
vt 0.0916748 0.6914063
vt 0.0916748 0.7246094
vt 0.0916748 0.6914063
vt 0.0916748 0.7246094
vt 0.0916748 0.6914063
vt 0.0916748 0.7246094
vt 0.0916748 0.6914063
vt 0.0916748 0.7246094
vt 0.0916748 0.6914063
vt 0.0916748 0.7246094
vt 0.0916748 0.6914063
vt 0.0916748 0.7246094
vt 0.0916748 0.6914063
vt 0.0916748 0.7246094
vt 0.0916748 0.6914063
vt 0.0916748 0.7246094
vt 0.0916748 0.9326172
vt 0.0916748 0.8989258
vt 0.0916748 0.9326172
vt 0.0916748 0.8989258
vt 0.0916748 0.9326172
vt 0.0916748 0.8989258
vt 0.0916748 0.9326172
vt 0.0916748 0.8989258
vt 0.0916748 0.9326172
vt 0.0916748 0.8989258
vt 0.0916748 0.9326172
vt 0.0916748 0.8989258
vt 0.0916748 0.9326172
vt 0.0916748 0.8989258
vt 0.0916748 0.9326172
vt 0.0916748 0.8989258
vt 0.0916748 0.9326172
vt 0.0916748 0.8989258
vt 0.0916748 0.9326172
vt 0.0916748 0.8989258
vt 0.2983398 0.9838867
vt 0.2983398 0.9838867
vt 0.2983398 0.9838867
vt 0.2983398 0.9838867
vt 0.2983398 0.9838867
vt 0.2983398 0.9838867
vt 0.2983398 0.9838867
vt 0.2983398 0.9838867
vt 0.2983398 0.9838867
vt 0.2983398 0.9838867
vt 0.2983398 0.9838867
vt 0.2983398 0.9838867
vt 0.2983398 0.9838867
vt 0.2983398 0.9838867
vt 0.2983398 0.9838867
vt 0.2983398 0.9838867
vt 0.2983398 0.9838867
vt 0.2983398 0.9838867
vt 0.2983398 0.9838867
vt 0.2983398 0.9838867
vt 0.0916748 0.8989258
vt 0.0916748 0.7246094
vt 0.0916748 0.8989258
vt 0.0916748 0.7246094
vt 0.0916748 0.8989258
vt 0.0916748 0.7246094
vt 0.0916748 0.8989258
vt 0.0916748 0.7246094
vt 0.0916748 0.8989258
vt 0.0916748 0.7246094
vt 0.0916748 0.8989258
vt 0.0916748 0.7246094
vt 0.0916748 0.8989258
vt 0.0916748 0.7246094
vt 0.0916748 0.8989258
vt 0.0916748 0.7246094
vt 0.0916748 0.8989258
vt 0.0916748 0.7246094
vt 0.0916748 0.8989258
vt 0.0916748 0.7246094
vt 0.0916748 0.9326172
vt 0.0916748 0.9326172
vt 0.0916748 0.9326172
vt 0.0916748 0.9326172
vt 0.0916748 0.9326172
vt 0.0916748 0.6914063
vt 0.0916748 0.7246094
vt 0.0916748 0.6914063
vt 0.0916748 0.7246094
vt 0.0916748 0.6914063
vt 0.0916748 0.7246094
vt 0.0916748 0.6914063
vt 0.0916748 0.7246094
vt 0.0916748 0.6914063
vt 0.0916748 0.7246094
vt 0.0916748 0.6914063
vt 0.0916748 0.7246094
vt 0.0916748 0.6914063
vt 0.0916748 0.7246094
vt 0.0916748 0.6914063
vt 0.0916748 0.7246094
vt 0.0916748 0.6914063
vt 0.0916748 0.7246094
vt 0.0916748 0.6914063
vt 0.0916748 0.7246094
vt 0.0916748 0.9326172
vt 0.0916748 0.8989258
vt 0.0916748 0.9326172
vt 0.0916748 0.8989258
vt 0.0916748 0.9326172
vt 0.0916748 0.8989258
vt 0.0916748 0.9326172
vt 0.0916748 0.8989258
vt 0.0916748 0.9326172
vt 0.0916748 0.8989258
vt 0.0916748 0.9326172
vt 0.0916748 0.8989258
vt 0.0916748 0.9326172
vt 0.0916748 0.8989258
vt 0.0916748 0.9326172
vt 0.0916748 0.8989258
vt 0.0916748 0.9326172
vt 0.0916748 0.8989258
vt 0.0916748 0.9326172
vt 0.0916748 0.8989258
vt 0.2983398 0.9838867
vt 0.2983398 0.9838867
vt 0.2983398 0.9838867
vt 0.2983398 0.9838867
vt 0.2983398 0.9838867
vt 0.2983398 0.9838867
vt 0.2983398 0.9838867
vt 0.2983398 0.9838867
vt 0.2983398 0.9838867
vt 0.2983398 0.9838867
vt 0.2983398 0.9838867
vt 0.2983398 0.9838867
vt 0.2983398 0.9838867
vt 0.2983398 0.9838867
vt 0.2983398 0.9838867
vt 0.2983398 0.9838867
vt 0.2983398 0.9838867
vt 0.2983398 0.9838867
vt 0.2983398 0.9838867
vt 0.2983398 0.9838867
vt 0.0916748 0.8989258
vt 0.0916748 0.7246094
vt 0.0916748 0.8989258
vt 0.0916748 0.7246094
vt 0.0916748 0.8989258
vt 0.0916748 0.7246094
vt 0.0916748 0.8989258
vt 0.0916748 0.7246094
vt 0.0916748 0.8989258
vt 0.0916748 0.7246094
vt 0.0916748 0.8989258
vt 0.0916748 0.7246094
vt 0.0916748 0.8989258
vt 0.0916748 0.7246094
vt 0.0916748 0.8989258
vt 0.0916748 0.7246094
vt 0.0916748 0.8989258
vt 0.0916748 0.7246094
vt 0.0916748 0.8989258
vt 0.0916748 0.7246094
vt 0.0916748 0.9326172
vt 0.0916748 0.9326172
vt 0.0916748 0.9326172
vt 0.0916748 0.9326172
vt 0.0916748 0.9326172
vt 0.0916748 0.6914063
vt 0.0916748 0.7246094
vt 0.0916748 0.6914063
vt 0.0916748 0.7246094
vt 0.0916748 0.6914063
vt 0.0916748 0.7246094
vt 0.0916748 0.6914063
vt 0.0916748 0.7246094
vt 0.0916748 0.6914063
vt 0.0916748 0.7246094
vt 0.0916748 0.6914063
vt 0.0916748 0.7246094
vt 0.0916748 0.6914063
vt 0.0916748 0.7246094
vt 0.0916748 0.6914063
vt 0.0916748 0.7246094
vt 0.0916748 0.6914063
vt 0.0916748 0.7246094
vt 0.0916748 0.6914063
vt 0.0916748 0.7246094
vt 0.0916748 0.9326172
vt 0.0916748 0.8989258
vt 0.0916748 0.9326172
vt 0.0916748 0.8989258
vt 0.0916748 0.9326172
vt 0.0916748 0.8989258
vt 0.0916748 0.9326172
vt 0.0916748 0.8989258
vt 0.0916748 0.9326172
vt 0.0916748 0.8989258
vt 0.0916748 0.9326172
vt 0.0916748 0.8989258
vt 0.0916748 0.9326172
vt 0.0916748 0.8989258
vt 0.0916748 0.9326172
vt 0.0916748 0.8989258
vt 0.0916748 0.9326172
vt 0.0916748 0.8989258
vt 0.0916748 0.9326172
vt 0.0916748 0.8989258
vt 0.2983398 0.9838867
vt 0.2983398 0.9838867
vt 0.2983398 0.9838867
vt 0.2983398 0.9838867
vt 0.2983398 0.9838867
vt 0.2983398 0.9838867
vt 0.2983398 0.9838867
vt 0.2983398 0.9838867
vt 0.2983398 0.9838867
vt 0.2983398 0.9838867
vt 0.2983398 0.9838867
vt 0.2983398 0.9838867
vt 0.2983398 0.9838867
vt 0.2983398 0.9838867
vt 0.2983398 0.9838867
vt 0.2983398 0.9838867
vt 0.2983398 0.9838867
vt 0.2983398 0.9838867
vt 0.2983398 0.9838867
vt 0.2983398 0.9838867
vn 0 1.192093E-07 -1
vn 0 1.192093E-07 -1
vn 0 1.192093E-07 -1
vn 0 1.192093E-07 -1
vn -1 0 0
vn -1 0 0
vn -1 0 0
vn -1 0 0
vn 0 -1.192093E-07 1
vn 0 -1.192093E-07 1
vn 0 -1.192093E-07 1
vn 0 -1.192093E-07 1
vn 1 0 0
vn 1 0 0
vn 1 0 0
vn 1 0 0
vn 1 0 0
vn 1 0 0
vn 1 0 0
vn 1 0 0
vn 0 1.192093E-07 -1
vn 0 1.192093E-07 -1
vn 0 1.192093E-07 -1
vn 0 1.192093E-07 -1
vn 0 1 -1.192093E-07
vn 0 1 -1.192093E-07
vn 0 1 -1.192093E-07
vn 0 1 -1.192093E-07
vn 0 -1.192093E-07 1
vn 0 -1.192093E-07 1
vn 0 -1.192093E-07 1
vn 0 -1.192093E-07 1
vn 0 -1 1.192093E-07
vn 0 -1 1.192093E-07
vn 0 -1 1.192093E-07
vn 0 -1 1.192093E-07
vn 0.9659263 0 -0.2588175
vn 0.9659263 0 -0.2588175
vn 0.9659263 0 -0.2588175
vn 0.9659263 0 -0.2588175
vn -0.7071068 0 -0.7071068
vn -0.7071068 0 -0.7071068
vn -0.7071068 0 -0.7071068
vn -0.7071068 0 -0.7071068
vn -0.2585896 0 0.9659872
vn -0.2585896 0 0.9659872
vn -0.2585896 0 0.9659872
vn -0.2585896 0 0.9659872
vn 0.9876886 0 0.1564329
vn 0.9876886 0 0.1564329
vn 0.9876886 0 0.1564329
vn 0.9876886 0 0.1564329
vn 0.4540392 0 -0.8909817
vn 0.4540392 0 -0.8909817
vn 0.4540392 0 -0.8909817
vn 0.4540392 0 -0.8909817
vn -0.7071068 0 -0.7071068
vn -0.7071068 0 -0.7071068
vn -0.7071068 0 -0.7071068
vn -0.7071068 0 -0.7071068
vn -0.8909817 0 0.4540392
vn -0.8909817 0 0.4540392
vn -0.8909817 0 0.4540392
vn -0.8909817 0 0.4540392
vn 0.1564329 0 0.9876886
vn 0.1564329 0 0.9876886
vn 0.1564329 0 0.9876886
vn 0.1564329 0 0.9876886
vn 0 1 -1.192093E-07
vn 0 1 -1.192093E-07
vn 0 1 -1.192093E-07
vn 0 1 -1.192093E-07
vn 0 1 -1.192093E-07
vn 0.6706389 -0.7341371 0.1062374
vn 0.6706389 -0.7341371 0.1062374
vn 0.6706389 -0.7341371 0.1062374
vn 0.6706389 -0.7341371 0.1062374
vn 0.1062374 -0.7341371 0.6706389
vn 0.1062374 -0.7341371 0.6706389
vn 0.1062374 -0.7341371 0.6706389
vn 0.1062374 -0.7341371 0.6706389
vn -0.604816 -0.7342799 0.3082705
vn -0.604816 -0.7342799 0.3082705
vn -0.604816 -0.7342799 0.3082705
vn -0.604816 -0.7342799 0.3082705
vn -0.480136 -0.7341245 -0.480136
vn -0.480136 -0.7341245 -0.480136
vn -0.480136 -0.7341245 -0.480136
vn -0.480136 -0.7341245 -0.480136
vn 0.3082705 -0.7342799 -0.604816
vn 0.3082705 -0.7342799 -0.604816
vn 0.3082705 -0.7342799 -0.604816
vn 0.3082705 -0.7342799 -0.604816
vn 0.6706389 0.7341371 0.1062374
vn 0.6706389 0.7341371 0.1062374
vn 0.6706389 0.7341371 0.1062374
vn 0.6706389 0.7341371 0.1062374
vn 0.3082705 0.7342799 -0.604816
vn 0.3082705 0.7342799 -0.604816
vn 0.3082705 0.7342799 -0.604816
vn 0.3082705 0.7342799 -0.604816
vn -0.480136 0.7341245 -0.480136
vn -0.480136 0.7341245 -0.480136
vn -0.480136 0.7341245 -0.480136
vn -0.480136 0.7341245 -0.480136
vn -0.604816 0.7342799 0.3082705
vn -0.604816 0.7342799 0.3082705
vn -0.604816 0.7342799 0.3082705
vn -0.604816 0.7342799 0.3082705
vn 0.1062374 0.7341371 0.6706389
vn 0.1062374 0.7341371 0.6706389
vn 0.1062374 0.7341371 0.6706389
vn 0.1062374 0.7341371 0.6706389
vn 0.9876886 0 0.1564329
vn 0.9876886 0 0.1564329
vn 0.9876886 0 0.1564329
vn 0.9876886 0 0.1564329
vn 0.1564329 0 0.9876886
vn 0.1564329 0 0.9876886
vn 0.1564329 0 0.9876886
vn 0.1564329 0 0.9876886
vn -0.8909817 0 0.4540392
vn -0.8909817 0 0.4540392
vn -0.8909817 0 0.4540392
vn -0.8909817 0 0.4540392
vn -0.7071068 0 -0.7071068
vn -0.7071068 0 -0.7071068
vn -0.7071068 0 -0.7071068
vn -0.7071068 0 -0.7071068
vn 0.4540392 0 -0.8909817
vn 0.4540392 0 -0.8909817
vn 0.4540392 0 -0.8909817
vn 0.4540392 0 -0.8909817
vn 0.8289562 0 0.5593135
vn 0.8289562 0 0.5593135
vn 0.8289562 0 0.5593135
vn 0.8289562 0 0.5593135
vn 0.7880614 0 -0.6155967
vn 0.7880614 0 -0.6155967
vn 0.7880614 0 -0.6155967
vn 0.7880614 0 -0.6155967
vn -0.3418999 0 -0.9397363
vn -0.3418999 0 -0.9397363
vn -0.3418999 0 -0.9397363
vn -0.3418999 0 -0.9397363
vn -0.999391 0 0.03489443
vn -0.999391 0 0.03489443
vn -0.999391 0 0.03489443
vn -0.999391 0 0.03489443
vn -0.2757209 0 0.9612377
vn -0.2757209 0 0.9612377
vn -0.2757209 0 0.9612377
vn -0.2757209 0 0.9612377
vn 0 1 -1.192093E-07
vn 0 1 -1.192093E-07
vn 0 1 -1.192093E-07
vn 0 1 -1.192093E-07
vn 0 1 -1.192093E-07
vn 0.5627472 -0.7342093 0.3798056
vn 0.5627472 -0.7342093 0.3798056
vn 0.5627472 -0.7342093 0.3798056
vn 0.5627472 -0.7342093 0.3798056
vn -0.1872123 -0.7341948 0.6526176
vn -0.1872123 -0.7341948 0.6526176
vn -0.1872123 -0.7341948 0.6526176
vn -0.1872123 -0.7341948 0.6526176
vn -0.6785154 -0.7342035 0.02370713
vn -0.6785154 -0.7342035 0.02370713
vn -0.6785154 -0.7342035 0.02370713
vn -0.6785154 -0.7342035 0.02370713
vn -0.2322763 -0.7341983 -0.637966
vn -0.2322763 -0.7341983 -0.637966
vn -0.2322763 -0.7341983 -0.637966
vn -0.2322763 -0.7341983 -0.637966
vn 0.5348933 -0.7341961 -0.4181449
vn 0.5348933 -0.7341961 -0.4181449
vn 0.5348933 -0.7341961 -0.4181449
vn 0.5348933 -0.7341961 -0.4181449
vn 0.5627472 0.7342093 0.3798056
vn 0.5627472 0.7342093 0.3798056
vn 0.5627472 0.7342093 0.3798056
vn 0.5627472 0.7342093 0.3798056
vn 0.5348933 0.7341961 -0.4181449
vn 0.5348933 0.7341961 -0.4181449
vn 0.5348933 0.7341961 -0.4181449
vn 0.5348933 0.7341961 -0.4181449
vn -0.2322763 0.7341983 -0.637966
vn -0.2322763 0.7341983 -0.637966
vn -0.2322763 0.7341983 -0.637966
vn -0.2322763 0.7341983 -0.637966
vn -0.6785154 0.7342035 0.02370713
vn -0.6785154 0.7342035 0.02370713
vn -0.6785154 0.7342035 0.02370713
vn -0.6785154 0.7342035 0.02370713
vn -0.1872123 0.7341948 0.6526176
vn -0.1872123 0.7341948 0.6526176
vn -0.1872123 0.7341948 0.6526176
vn -0.1872123 0.7341948 0.6526176
vn 0.8289562 0 0.5593135
vn 0.8289562 0 0.5593135
vn 0.8289562 0 0.5593135
vn 0.8289562 0 0.5593135
vn -0.2754952 0 0.9613025
vn -0.2754952 0 0.9613025
vn -0.2754952 0 0.9613025
vn -0.2754952 0 0.9613025
vn -0.999391 0 0.03489443
vn -0.999391 0 0.03489443
vn -0.999391 0 0.03489443
vn -0.999391 0 0.03489443
vn -0.3418999 0 -0.9397363
vn -0.3418999 0 -0.9397363
vn -0.3418999 0 -0.9397363
vn -0.3418999 0 -0.9397363
vn 0.7880614 0 -0.6155967
vn 0.7880614 0 -0.6155967
vn 0.7880614 0 -0.6155967
vn 0.7880614 0 -0.6155967
vn 0.5593135 0 -0.8289562
vn 0.5593135 0 -0.8289562
vn 0.5593135 0 -0.8289562
vn 0.5593135 0 -0.8289562
vn -0.6155967 0 -0.7880614
vn -0.6155967 0 -0.7880614
vn -0.6155967 0 -0.7880614
vn -0.6155967 0 -0.7880614
vn -0.9397363 0 0.3418999
vn -0.9397363 0 0.3418999
vn -0.9397363 0 0.3418999
vn -0.9397363 0 0.3418999
vn 0.03489443 0 0.999391
vn 0.03489443 0 0.999391
vn 0.03489443 0 0.999391
vn 0.03489443 0 0.999391
vn 0.9612377 0 0.2757209
vn 0.9612377 0 0.2757209
vn 0.9612377 0 0.2757209
vn 0.9612377 0 0.2757209
vn 0 1 -1.192093E-07
vn 0 1 -1.192093E-07
vn 0 1 -1.192093E-07
vn 0 1 -1.192093E-07
vn 0 1 -1.192093E-07
vn 0.3798056 -0.7342093 -0.5627472
vn 0.3798056 -0.7342093 -0.5627472
vn 0.3798056 -0.7342093 -0.5627472
vn 0.3798056 -0.7342093 -0.5627472
vn 0.6526176 -0.7341948 0.1872123
vn 0.6526176 -0.7341948 0.1872123
vn 0.6526176 -0.7341948 0.1872123
vn 0.6526176 -0.7341948 0.1872123
vn 0.02370713 -0.7342035 0.6785154
vn 0.02370713 -0.7342035 0.6785154
vn 0.02370713 -0.7342035 0.6785154
vn 0.02370713 -0.7342035 0.6785154
vn -0.637966 -0.7341983 0.2322763
vn -0.637966 -0.7341983 0.2322763
vn -0.637966 -0.7341983 0.2322763
vn -0.637966 -0.7341983 0.2322763
vn -0.4181449 -0.7341961 -0.5348933
vn -0.4181449 -0.7341961 -0.5348933
vn -0.4181449 -0.7341961 -0.5348933
vn -0.4181449 -0.7341961 -0.5348933
vn 0.3798056 0.7342093 -0.5627472
vn 0.3798056 0.7342093 -0.5627472
vn 0.3798056 0.7342093 -0.5627472
vn 0.3798056 0.7342093 -0.5627472
vn -0.4181449 0.7341961 -0.5348933
vn -0.4181449 0.7341961 -0.5348933
vn -0.4181449 0.7341961 -0.5348933
vn -0.4181449 0.7341961 -0.5348933
vn -0.637966 0.7341983 0.2322763
vn -0.637966 0.7341983 0.2322763
vn -0.637966 0.7341983 0.2322763
vn -0.637966 0.7341983 0.2322763
vn 0.02370713 0.7342035 0.6785154
vn 0.02370713 0.7342035 0.6785154
vn 0.02370713 0.7342035 0.6785154
vn 0.02370713 0.7342035 0.6785154
vn 0.6526176 0.7341948 0.1872123
vn 0.6526176 0.7341948 0.1872123
vn 0.6526176 0.7341948 0.1872123
vn 0.6526176 0.7341948 0.1872123
vn 0.5593135 0 -0.8289562
vn 0.5593135 0 -0.8289562
vn 0.5593135 0 -0.8289562
vn 0.5593135 0 -0.8289562
vn 0.9613025 0 0.2754952
vn 0.9613025 0 0.2754952
vn 0.9613025 0 0.2754952
vn 0.9613025 0 0.2754952
vn 0.03489443 0 0.999391
vn 0.03489443 0 0.999391
vn 0.03489443 0 0.999391
vn 0.03489443 0 0.999391
vn -0.9397363 0 0.3418999
vn -0.9397363 0 0.3418999
vn -0.9397363 0 0.3418999
vn -0.9397363 0 0.3418999
vn -0.6155967 0 -0.7880614
vn -0.6155967 0 -0.7880614
vn -0.6155967 0 -0.7880614
vn -0.6155967 0 -0.7880614
vn 0.9816231 0 -0.1908304
vn 0.9816231 0 -0.1908304
vn 0.9816231 0 -0.1908304
vn 0.9816231 0 -0.1908304
vn 0.1218702 0 -0.992546
vn 0.1218702 0 -0.992546
vn 0.1218702 0 -0.992546
vn 0.1218702 0 -0.992546
vn -0.9063016 0 -0.4226315
vn -0.9063016 0 -0.4226315
vn -0.9063016 0 -0.4226315
vn -0.9063016 0 -0.4226315
vn -0.6820049 0 0.7313476
vn -0.6820049 0 0.7313476
vn -0.6820049 0 0.7313476
vn -0.6820049 0 0.7313476
vn 0.4847097 0 0.8746752
vn 0.4847097 0 0.8746752
vn 0.4847097 0 0.8746752
vn 0.4847097 0 0.8746752
vn 0 1 -1.192093E-07
vn 0 1 -1.192093E-07
vn 0 1 -1.192093E-07
vn 0 1 -1.192093E-07
vn 0 1 -1.192093E-07
vn 0.6663685 -0.7342756 -0.1295852
vn 0.6663685 -0.7342756 -0.1295852
vn 0.6663685 -0.7342756 -0.1295852
vn 0.6663685 -0.7342756 -0.1295852
vn 0.3291943 -0.7340935 0.5939174
vn 0.3291943 -0.7340935 0.5939174
vn 0.3291943 -0.7340935 0.5939174
vn 0.3291943 -0.7340935 0.5939174
vn -0.4630738 -0.7341772 0.4965344
vn -0.4630738 -0.7341772 0.4965344
vn -0.4630738 -0.7341772 0.4965344
vn -0.4630738 -0.7341772 0.4965344
vn -0.6154207 -0.734109 -0.2869521
vn -0.6154207 -0.734109 -0.2869521
vn -0.6154207 -0.734109 -0.2869521
vn -0.6154207 -0.734109 -0.2869521
vn 0.0827244 -0.7340798 -0.6740054
vn 0.0827244 -0.7340798 -0.6740054
vn 0.0827244 -0.7340798 -0.6740054
vn 0.0827244 -0.7340798 -0.6740054
vn 0.6663685 0.7342756 -0.1295852
vn 0.6663685 0.7342756 -0.1295852
vn 0.6663685 0.7342756 -0.1295852
vn 0.6663685 0.7342756 -0.1295852
vn 0.0827244 0.7340798 -0.6740054
vn 0.0827244 0.7340798 -0.6740054
vn 0.0827244 0.7340798 -0.6740054
vn 0.0827244 0.7340798 -0.6740054
vn -0.6154207 0.734109 -0.2869521
vn -0.6154207 0.734109 -0.2869521
vn -0.6154207 0.734109 -0.2869521
vn -0.6154207 0.734109 -0.2869521
vn -0.4630738 0.7341772 0.4965344
vn -0.4630738 0.7341772 0.4965344
vn -0.4630738 0.7341772 0.4965344
vn -0.4630738 0.7341772 0.4965344
vn 0.3291943 0.7340935 0.5939174
vn 0.3291943 0.7340935 0.5939174
vn 0.3291943 0.7340935 0.5939174
vn 0.3291943 0.7340935 0.5939174
vn 0.9816231 0 -0.1908304
vn 0.9816231 0 -0.1908304
vn 0.9816231 0 -0.1908304
vn 0.9816231 0 -0.1908304
vn 0.4847097 0 0.8746752
vn 0.4847097 0 0.8746752
vn 0.4847097 0 0.8746752
vn 0.4847097 0 0.8746752
vn -0.6820049 0 0.7313476
vn -0.6820049 0 0.7313476
vn -0.6820049 0 0.7313476
vn -0.6820049 0 0.7313476
vn -0.9063016 0 -0.4226315
vn -0.9063016 0 -0.4226315
vn -0.9063016 0 -0.4226315
vn -0.9063016 0 -0.4226315
vn 0.1218702 0 -0.992546
vn 0.1218702 0 -0.992546
vn 0.1218702 0 -0.992546
vn 0.1218702 0 -0.992546
g denglong (1)_0_0
f 3/3/3 2/2/2 1/1/1
f 1/1/1 2/2/2 4/4/4
f 7/7/7 6/6/6 5/5/5
f 5/5/5 6/6/6 8/8/8
f 11/11/11 10/10/10 9/9/9
f 9/9/9 10/10/10 12/12/12
f 15/15/15 14/14/14 13/13/13
f 13/13/13 14/14/14 16/16/16
f 19/19/19 18/18/18 17/17/17
f 17/17/17 18/18/18 20/20/20
f 23/23/23 22/22/22 21/21/21
f 21/21/21 22/22/22 24/24/24
f 27/27/27 26/26/26 25/25/25
f 25/25/25 26/26/26 28/28/28
f 31/31/31 30/30/30 29/29/29
f 29/29/29 30/30/30 32/32/32
f 35/35/35 34/34/34 33/33/33
f 33/33/33 34/34/34 36/36/36
f 39/39/39 38/38/38 37/37/37
f 37/37/37 38/38/38 40/40/40
f 43/43/43 42/42/42 41/41/41
f 41/41/41 42/42/42 44/44/44
f 47/47/47 46/46/46 45/45/45
f 45/45/45 46/46/46 48/48/48
f 51/51/51 50/50/50 49/49/49
f 49/49/49 50/50/50 52/52/52
f 55/55/55 54/54/54 53/53/53
f 53/53/53 54/54/54 56/56/56
f 59/59/59 58/58/58 57/57/57
f 57/57/57 58/58/58 60/60/60
f 63/63/63 62/62/62 61/61/61
f 61/61/61 62/62/62 64/64/64
f 67/67/67 66/66/66 65/65/65
f 65/65/65 66/66/66 68/68/68
f 71/71/71 70/70/70 69/69/69
f 72/72/72 69/69/69 70/70/70
f 73/73/73 69/69/69 72/72/72
f 76/76/76 75/75/75 74/74/74
f 74/74/74 75/75/75 77/77/77
f 80/80/80 79/79/79 78/78/78
f 78/78/78 79/79/79 81/81/81
f 84/84/84 83/83/83 82/82/82
f 82/82/82 83/83/83 85/85/85
f 88/88/88 87/87/87 86/86/86
f 86/86/86 87/87/87 89/89/89
f 92/92/92 91/91/91 90/90/90
f 90/90/90 91/91/91 93/93/93
f 96/96/96 95/95/95 94/94/94
f 94/94/94 95/95/95 97/97/97
f 100/100/100 99/99/99 98/98/98
f 98/98/98 99/99/99 101/101/101
f 104/104/104 103/103/103 102/102/102
f 102/102/102 103/103/103 105/105/105
f 108/108/108 107/107/107 106/106/106
f 106/106/106 107/107/107 109/109/109
f 112/112/112 111/111/111 110/110/110
f 110/110/110 111/111/111 113/113/113
f 116/116/116 115/115/115 114/114/114
f 114/114/114 115/115/115 117/117/117
f 120/120/120 119/119/119 118/118/118
f 118/118/118 119/119/119 121/121/121
f 124/124/124 123/123/123 122/122/122
f 122/122/122 123/123/123 125/125/125
f 128/128/128 127/127/127 126/126/126
f 126/126/126 127/127/127 129/129/129
f 132/132/132 131/131/131 130/130/130
f 130/130/130 131/131/131 133/133/133
f 136/136/136 135/135/135 134/134/134
f 134/134/134 135/135/135 137/137/137
f 140/140/140 139/139/139 138/138/138
f 138/138/138 139/139/139 141/141/141
f 144/144/144 143/143/143 142/142/142
f 142/142/142 143/143/143 145/145/145
f 148/148/148 147/147/147 146/146/146
f 146/146/146 147/147/147 149/149/149
f 152/152/152 151/151/151 150/150/150
f 150/150/150 151/151/151 153/153/153
f 156/156/156 155/155/155 154/154/154
f 157/157/157 154/154/154 155/155/155
f 158/158/158 154/154/154 157/157/157
f 161/161/161 160/160/160 159/159/159
f 159/159/159 160/160/160 162/162/162
f 165/165/165 164/164/164 163/163/163
f 163/163/163 164/164/164 166/166/166
f 169/169/169 168/168/168 167/167/167
f 167/167/167 168/168/168 170/170/170
f 173/173/173 172/172/172 171/171/171
f 171/171/171 172/172/172 174/174/174
f 177/177/177 176/176/176 175/175/175
f 175/175/175 176/176/176 178/178/178
f 181/181/181 180/180/180 179/179/179
f 179/179/179 180/180/180 182/182/182
f 185/185/185 184/184/184 183/183/183
f 183/183/183 184/184/184 186/186/186
f 189/189/189 188/188/188 187/187/187
f 187/187/187 188/188/188 190/190/190
f 193/193/193 192/192/192 191/191/191
f 191/191/191 192/192/192 194/194/194
f 197/197/197 196/196/196 195/195/195
f 195/195/195 196/196/196 198/198/198
f 201/201/201 200/200/200 199/199/199
f 199/199/199 200/200/200 202/202/202
f 205/205/205 204/204/204 203/203/203
f 203/203/203 204/204/204 206/206/206
f 209/209/209 208/208/208 207/207/207
f 207/207/207 208/208/208 210/210/210
f 213/213/213 212/212/212 211/211/211
f 211/211/211 212/212/212 214/214/214
f 217/217/217 216/216/216 215/215/215
f 215/215/215 216/216/216 218/218/218
f 221/221/221 220/220/220 219/219/219
f 219/219/219 220/220/220 222/222/222
f 225/225/225 224/224/224 223/223/223
f 223/223/223 224/224/224 226/226/226
f 229/229/229 228/228/228 227/227/227
f 227/227/227 228/228/228 230/230/230
f 233/233/233 232/232/232 231/231/231
f 231/231/231 232/232/232 234/234/234
f 237/237/237 236/236/236 235/235/235
f 235/235/235 236/236/236 238/238/238
f 241/241/241 240/240/240 239/239/239
f 242/242/242 239/239/239 240/240/240
f 243/243/243 239/239/239 242/242/242
f 246/246/246 245/245/245 244/244/244
f 244/244/244 245/245/245 247/247/247
f 250/250/250 249/249/249 248/248/248
f 248/248/248 249/249/249 251/251/251
f 254/254/254 253/253/253 252/252/252
f 252/252/252 253/253/253 255/255/255
f 258/258/258 257/257/257 256/256/256
f 256/256/256 257/257/257 259/259/259
f 262/262/262 261/261/261 260/260/260
f 260/260/260 261/261/261 263/263/263
f 266/266/266 265/265/265 264/264/264
f 264/264/264 265/265/265 267/267/267
f 270/270/270 269/269/269 268/268/268
f 268/268/268 269/269/269 271/271/271
f 274/274/274 273/273/273 272/272/272
f 272/272/272 273/273/273 275/275/275
f 278/278/278 277/277/277 276/276/276
f 276/276/276 277/277/277 279/279/279
f 282/282/282 281/281/281 280/280/280
f 280/280/280 281/281/281 283/283/283
f 286/286/286 285/285/285 284/284/284
f 284/284/284 285/285/285 287/287/287
f 290/290/290 289/289/289 288/288/288
f 288/288/288 289/289/289 291/291/291
f 294/294/294 293/293/293 292/292/292
f 292/292/292 293/293/293 295/295/295
f 298/298/298 297/297/297 296/296/296
f 296/296/296 297/297/297 299/299/299
f 302/302/302 301/301/301 300/300/300
f 300/300/300 301/301/301 303/303/303
f 306/306/306 305/305/305 304/304/304
f 304/304/304 305/305/305 307/307/307
f 310/310/310 309/309/309 308/308/308
f 308/308/308 309/309/309 311/311/311
f 314/314/314 313/313/313 312/312/312
f 312/312/312 313/313/313 315/315/315
f 318/318/318 317/317/317 316/316/316
f 316/316/316 317/317/317 319/319/319
f 322/322/322 321/321/321 320/320/320
f 320/320/320 321/321/321 323/323/323
f 326/326/326 325/325/325 324/324/324
f 327/327/327 324/324/324 325/325/325
f 328/328/328 327/327/327 325/325/325
f 331/331/331 330/330/330 329/329/329
f 329/329/329 330/330/330 332/332/332
f 335/335/335 334/334/334 333/333/333
f 333/333/333 334/334/334 336/336/336
f 339/339/339 338/338/338 337/337/337
f 337/337/337 338/338/338 340/340/340
f 343/343/343 342/342/342 341/341/341
f 341/341/341 342/342/342 344/344/344
f 347/347/347 346/346/346 345/345/345
f 345/345/345 346/346/346 348/348/348
f 351/351/351 350/350/350 349/349/349
f 349/349/349 350/350/350 352/352/352
f 355/355/355 354/354/354 353/353/353
f 353/353/353 354/354/354 356/356/356
f 359/359/359 358/358/358 357/357/357
f 357/357/357 358/358/358 360/360/360
f 363/363/363 362/362/362 361/361/361
f 361/361/361 362/362/362 364/364/364
f 367/367/367 366/366/366 365/365/365
f 365/365/365 366/366/366 368/368/368
f 371/371/371 370/370/370 369/369/369
f 369/369/369 370/370/370 372/372/372
f 375/375/375 374/374/374 373/373/373
f 373/373/373 374/374/374 376/376/376
f 379/379/379 378/378/378 377/377/377
f 377/377/377 378/378/378 380/380/380
f 383/383/383 382/382/382 381/381/381
f 381/381/381 382/382/382 384/384/384
f 387/387/387 386/386/386 385/385/385
f 385/385/385 386/386/386 388/388/388
