g down_4
v -11.40785 37.09665 93.75278
v -9.24832 37.19545 93.72472
v -9.261541 37.40818 93.72978
v -11.46426 37.4157 93.76087
v -11.34772 36.71674 93.75199
v -9.218995 36.70884 93.72434
v -11.46426 37.4157 93.76087
v -9.261541 37.40818 93.72978
v -9.416065 37.4093 95.59961
v -12.48509 37.41959 95.04411
v -9.446048 37.39342 95.97415
v -12.93847 37.39348 95.61951
v -9.479918 37.3755 96.39725
v -13.51002 37.36056 96.34489
v -13.48566 37.2035 96.34521
v -9.455551 36.97026 96.39755
v -9.437537 36.67683 96.39333
v -13.39553 36.66349 96.33822
v -13.51002 37.36056 96.34489
v -9.479918 37.3755 96.39725
v -13.48566 37.2035 96.34521
v -12.37018 36.66735 95.04778
v -9.27917 36.67796 94.47532
v -9.218995 36.70884 93.72434
v -11.34772 36.71674 93.75199
v -13.39553 36.66349 96.33822
v -9.437537 36.67683 96.39333
v -13.48566 37.2035 96.34521
v -13.39553 36.66349 96.33822
v -12.37018 36.66735 95.04778
v -11.34772 36.71674 93.75199
v -11.40785 37.09665 93.75278
v -11.46426 37.4157 93.76087
v -13.51002 37.36056 96.34489
v -12.93847 37.39348 95.61951
v -12.48509 37.41959 95.04411
v -9.27917 36.67796 94.47532
v -9.437537 36.67683 96.39333
v -9.455551 36.97026 96.39755
v -9.218995 36.70884 93.72434
v -9.24832 37.19545 93.72472
v -9.479918 37.3755 96.39725
v -9.261541 37.40818 93.72978
v -9.446048 37.39342 95.97415
v -9.416065 37.4093 95.59961
vt 0.6516818 0.1105217
vt 0.6516818 0.1105217
vt 0.6516818 0.1105217
vt 0.6516818 0.1105217
vt 0.6516818 0.1105217
vt 0.6516818 0.1105217
vt 0.6516818 0.1105217
vt 0.6516818 0.1105217
vt 0.6516818 0.1105217
vt 0.6516818 0.1105217
vt 0.6516818 0.1105217
vt 0.6516818 0.1105217
vt 0.6516818 0.1105217
vt 0.6516818 0.1105217
vt 0.6516818 0.1105217
vt 0.6516818 0.1105217
vt 0.6516818 0.1105217
vt 0.6516818 0.1105217
vt 0.6516818 0.1105217
vt 0.6516818 0.1105217
vt 0.6516818 0.1105217
vt 0.6516818 0.1105217
vt 0.6516818 0.1105217
vt 0.6516818 0.1105217
vt 0.6516818 0.1105217
vt 0.6516818 0.1105217
vt 0.6516818 0.1105217
vt 0.6516818 0.1105217
vt 0.6516818 0.1105217
vt 0.6516818 0.1105217
vt 0.6516818 0.1105217
vt 0.6516818 0.1105217
vt 0.6516818 0.1105217
vt 0.6516818 0.1105217
vt 0.6516818 0.1105217
vt 0.6516818 0.1105217
vt 0.6516818 0.1105217
vt 0.6516818 0.1105217
vt 0.6516818 0.1105217
vt 0.6516818 0.1105217
vt 0.6516818 0.1105217
vt 0.6516818 0.1105217
vt 0.6516818 0.1105217
vt 0.6516818 0.1105217
vt 0.6516818 0.1105217
vn -0.01403106 0.02288741 -0.9996396
vn -0.01403106 0.02288741 -0.9996396
vn -0.01403106 0.0228874 -0.9996396
vn -0.01403106 0.02288741 -0.9996396
vn -0.01298892 0 -0.9999157
vn -0.01298892 0 -0.9999157
vn 0.003412293 0.9999941 -0.0003151132
vn 0.003412293 0.9999941 -0.0003151132
vn 0.003412292 0.9999941 -0.0003151132
vn 0.003412293 0.9999941 -0.0003151132
vn -0.004249041 0.9991086 0.04200004
vn -0.004248819 0.9991086 0.04199979
vn -0.00424846 0.9991086 0.04199939
vn -0.00424846 0.9991086 0.04199939
vn -0.01386805 -0.01525327 0.9997874
vn -0.01386805 -0.01525327 0.9997874
vn -0.01386805 -0.01525327 0.9997874
vn -0.01386805 -0.01525327 0.9997874
vn -0.01298782 -2.657376E-05 0.9999157
vn -0.01298782 -2.657376E-05 0.9999157
vn -0.01298782 -2.657376E-05 0.9999157
vn -0.004242197 -0.9991325 -0.04142827
vn -0.004242197 -0.9991325 -0.04142827
vn -0.004242197 -0.9991325 -0.04142828
vn -0.004242197 -0.9991325 -0.04142827
vn 0.003374964 -0.9999943 -0.0003106664
vn 0.003374964 -0.9999943 -0.0003106664
vn -0.7769428 -0.1216968 -0.6176971
vn -0.7769428 -0.1216968 -0.6176972
vn -0.7769428 -0.1216968 -0.6176971
vn -0.7769428 -0.1216968 -0.6176971
vn -0.7769428 -0.1216968 -0.6176971
vn -0.7769428 -0.1216968 -0.6176971
vn -0.7769428 -0.1216968 -0.6176971
vn -0.7769428 -0.1216968 -0.6176971
vn -0.7769428 -0.1216968 -0.6176972
vn 0.9948171 0.05988413 0.08217621
vn 0.9948171 0.05988413 0.08217622
vn 0.9948171 0.05988412 0.08217621
vn 0.9948171 0.05988413 0.0821762
vn 0.9948171 0.05988413 0.0821762
vn 0.9948171 0.05988412 0.0821762
vn 0.9948171 0.05988413 0.08217621
vn 0.9948171 0.05988412 0.08217621
vn 0.9948171 0.05988413 0.08217622
g down_4_0
f 3/3/3 2/2/2 1/1/1
f 4/4/4 3/3/3 1/1/1
f 1/1/1 2/2/2 5/5/5
f 2/2/2 6/6/6 5/5/5
f 9/9/9 8/8/8 7/7/7
f 10/10/10 9/9/9 7/7/7
f 9/9/9 10/10/10 11/11/11
f 10/10/10 12/12/12 11/11/11
f 11/11/11 12/12/12 13/13/13
f 12/12/12 14/14/14 13/13/13
f 17/17/17 16/16/16 15/15/15
f 18/18/18 17/17/17 15/15/15
f 16/16/16 20/20/20 19/19/19
f 21/21/21 16/16/16 19/19/19
f 24/24/24 23/23/23 22/22/22
f 25/25/25 24/24/24 22/22/22
f 22/22/22 23/23/23 26/26/26
f 23/23/23 27/27/27 26/26/26
f 30/30/30 29/29/29 28/28/28
f 28/28/28 31/31/31 30/30/30
f 28/28/28 32/32/32 31/31/31
f 28/28/28 33/33/33 32/32/32
f 28/28/28 34/34/34 33/33/33
f 34/34/34 35/35/35 33/33/33
f 35/35/35 36/36/36 33/33/33
f 39/39/39 38/38/38 37/37/37
f 37/37/37 40/40/40 39/39/39
f 40/40/40 41/41/41 39/39/39
f 41/41/41 42/42/42 39/39/39
f 41/41/41 43/43/43 42/42/42
f 43/43/43 44/44/44 42/42/42
f 43/43/43 45/45/45 44/44/44
