g down_3
v -15.8429 36.75707 93.37738
v -19.20003 36.7783 93.3391
v -19.27204 37.47555 93.31173
v -15.85313 37.2784 93.3574
v -15.85246 37.45484 93.35741
v -15.85246 37.45484 93.35741
v -19.27204 37.47555 93.31173
v -19.64346 37.30797 91.23476
v -16.87461 37.32492 91.6832
v -16.87461 37.32492 91.6832
v -19.64346 37.30797 91.23476
v -17.16445 37.32268 91.20824
v -17.16445 37.32268 91.20824
v -19.64346 37.30797 91.23476
v -19.57145 36.61072 91.26214
v -17.15243 36.74294 91.23151
v -17.15287 36.62461 91.23151
v -17.15287 36.62461 91.23151
v -19.57145 36.61072 91.26214
v -19.20003 36.7783 93.3391
v -16.16603 36.75973 92.84785
v -16.16603 36.75973 92.84785
v -19.20003 36.7783 93.3391
v -15.8429 36.75707 93.37738
v -17.15243 36.74294 91.23151
v -17.15287 36.62461 91.23151
v -16.16603 36.75973 92.84785
v -17.16445 37.32268 91.20824
v -15.85313 37.2784 93.3574
v -16.87461 37.32492 91.6832
v -15.85246 37.45484 93.35741
v -15.8429 36.75707 93.37738
vt 0.6516818 0.1105217
vt 0.6516818 0.1105217
vt 0.6516818 0.1105217
vt 0.6516818 0.1105217
vt 0.6516818 0.1105217
vt 0.6516818 0.1105217
vt 0.6516818 0.1105217
vt 0.6516818 0.1105217
vt 0.6516818 0.1105217
vt 0.6516818 0.1105217
vt 0.6516818 0.1105217
vt 0.6516818 0.1105217
vt 0.6516818 0.1105217
vt 0.6516818 0.1105217
vt 0.6516818 0.1105217
vt 0.6516818 0.1105217
vt 0.6516818 0.1105217
vt 0.6516818 0.1105217
vt 0.6516818 0.1105217
vt 0.6516818 0.1105217
vt 0.6516818 0.1105217
vt 0.6516818 0.1105217
vt 0.6516818 0.1105217
vt 0.6516818 0.1105217
vt 0.6516818 0.1105217
vt 0.6516818 0.1105217
vt 0.6516818 0.1105217
vt 0.6516818 0.1105217
vt 0.6516818 0.1105217
vt 0.6516818 0.1105217
vt 0.6516818 0.1105217
vt 0.6516818 0.1105217
vn -0.01114752 0.03807817 0.9992126
vn -0.01114752 0.03807817 0.9992126
vn -0.01114752 0.03807817 0.9992126
vn -0.01114751 0.03807817 0.9992126
vn -0.01335802 0 0.9999108
vn 0.007127182 0.9966323 -0.08169004
vn 0.007127183 0.9966323 -0.08169004
vn 0.007127182 0.9966323 -0.08169004
vn 0.007127182 0.9966323 -0.08169004
vn -0.005945375 0.9999818 -0.001081526
vn -0.005945375 0.9999818 -0.001081526
vn -0.005945375 0.9999818 -0.001081526
vn -0.01044364 -0.04031224 -0.9991326
vn -0.01044364 -0.04031225 -0.9991326
vn -0.01044364 -0.04031224 -0.9991326
vn -0.01044364 -0.04031224 -0.9991326
vn -0.01266759 -1.707559E-05 -0.9999198
vn 0.006725949 -0.9968341 0.07922458
vn 0.006725949 -0.9968341 0.07922459
vn 0.006725949 -0.9968341 0.07922459
vn 0.006725949 -0.9968341 0.07922459
vn -0.006311263 -0.9999794 -0.001158208
vn -0.006311263 -0.9999794 -0.001158208
vn -0.006311263 -0.9999794 -0.001158208
vn 0.8536094 -0.003208939 -0.5209036
vn 0.8536094 -0.003208939 -0.5209036
vn 0.8536094 -0.00320894 -0.5209036
vn 0.8536094 -0.00320894 -0.5209036
vn 0.8536094 -0.003208939 -0.5209036
vn 0.8536094 -0.00320894 -0.5209036
vn 0.8536094 -0.003208939 -0.5209036
vn 0.8536094 -0.00320894 -0.5209036
g down_3_0
f 3/3/3 2/2/2 1/1/1
f 4/4/4 3/3/3 1/1/1
f 5/5/5 3/3/3 4/4/4
f 8/8/8 7/7/7 6/6/6
f 9/9/9 8/8/8 6/6/6
f 12/12/12 11/11/11 10/10/10
f 15/15/15 14/14/14 13/13/13
f 16/16/16 15/15/15 13/13/13
f 17/17/17 15/15/15 16/16/16
f 20/20/20 19/19/19 18/18/18
f 21/21/21 20/20/20 18/18/18
f 24/24/24 23/23/23 22/22/22
f 27/27/27 26/26/26 25/25/25
f 25/25/25 28/28/28 27/27/27
f 28/28/28 29/29/29 27/27/27
f 28/28/28 30/30/30 29/29/29
f 30/30/30 31/31/31 29/29/29
f 32/32/32 27/27/27 29/29/29
