# Exported from Unity
# 10/1/2025 1:14:21 PM
mtllib fence_full.mtl
v 6.578317 -0.07549794 227.9185
v 6.653316 -0.07549794 227.8435
v 6.653316 0.9228241 227.8435
v 6.578317 0.8167581 227.9185
v 5.890237 0.9228241 228.6065
v 5.965237 0.8167581 228.5315
v 5.890237 0.1077913 228.6065
v 5.965237 0.2138573 228.5315
v 6.423957 0.1077913 228.0728
v 6.348957 0.2138573 228.1478
v 6.423957 0.6865019 228.0728
v 6.348957 0.5804358 228.1478
v 6.157097 0.6865019 228.3397
v 6.157097 0.5804358 228.3397
v 6.653316 -0.07549794 227.8435
v 6.503316 -0.07549794 227.6935
v 6.503316 0.9228241 227.6935
v 6.653316 0.9228241 227.8435
v 6.503316 -0.07549794 227.6935
v 6.428317 -0.07549794 227.7684
v 6.428317 0.8167581 227.7684
v 6.503316 0.9228241 227.6935
v 5.815237 0.8167581 228.3815
v 5.740237 0.9228241 228.4565
v 5.815237 0.2138573 228.3815
v 5.740237 0.1077913 228.4565
v 6.198956 0.2138573 227.9978
v 6.273957 0.1077913 227.9228
v 6.198957 0.5804358 227.9978
v 6.273957 0.6865019 227.9228
v 6.007097 0.5804358 228.1897
v 6.007097 0.6865018 228.1897
v 6.428317 -0.07549794 227.7684
v 6.578317 -0.07549794 227.9185
v 6.578317 0.8167581 227.9185
v 6.428317 0.8167581 227.7684
v 6.653316 0.9228241 227.8435
v 6.503316 0.9228241 227.6935
v 5.740237 0.9228241 228.4565
v 5.890237 0.9228241 228.6065
v 5.890237 0.9228241 228.6065
v 5.740237 0.9228241 228.4565
v 5.740237 0.1077913 228.4565
v 5.890237 0.1077913 228.6065
v 5.815237 0.8167581 228.3815
v 5.965237 0.8167581 228.5315
v 5.965237 0.2138573 228.5315
v 5.815237 0.2138573 228.3815
v 5.815237 0.2138573 228.3815
v 5.965237 0.2138573 228.5315
v 6.348957 0.2138573 228.1478
v 6.198956 0.2138573 227.9978
v 6.423957 0.1077913 228.0728
v 6.273957 0.1077913 227.9228
v 6.273957 0.6865019 227.9228
v 6.423957 0.6865019 228.0728
v 6.198956 0.2138573 227.9978
v 6.348957 0.2138573 228.1478
v 6.348957 0.5804358 228.1478
v 6.198957 0.5804358 227.9978
v 6.423957 0.6865019 228.0728
v 6.273957 0.6865019 227.9228
v 6.007097 0.6865018 228.1897
v 6.157097 0.6865019 228.3397
v 6.503316 -0.07549794 227.6935
v 6.653316 -0.07549794 227.8435
v 6.578317 -0.07549794 227.9185
v 6.428317 -0.07549794 227.7684
v 6.007097 0.6865018 228.1897
v 6.157097 0.5804358 228.3397
v 6.157097 0.6865019 228.3397
v 6.007097 0.5804358 228.1897
v 6.957676 1.106113 227.6391
v 6.832676 1.106113 227.7641
v 6.832676 -0.07549794 227.7641
v 6.957676 -0.07549794 227.6391
v 6.832676 1.106113 227.7641
v 6.582676 1.106113 227.5141
v 6.582676 -0.07549794 227.5141
v 6.832676 -0.07549794 227.7641
v 6.582676 1.106113 227.5141
v 6.707676 1.106113 227.3891
v 6.707676 -0.07549794 227.3891
v 6.582676 -0.07549794 227.5141
v 6.707676 1.106113 227.3891
v 6.957676 1.106113 227.6391
v 6.957676 -0.07549794 227.6391
v 6.707676 -0.07549794 227.3891
v 5.685877 -0.07549794 228.9109
v 5.810877 -0.07549794 228.7859
v 5.810877 1.106113 228.7859
v 5.685877 1.106113 228.9109
v 5.810877 -0.07549794 228.7859
v 5.560877 -0.07549794 228.5359
v 5.560877 1.106113 228.5359
v 5.810877 1.106113 228.7859
v 5.560877 -0.07549794 228.5359
v 5.435877 -0.07549794 228.6609
v 5.435877 1.106113 228.6609
v 5.560877 1.106113 228.5359
v 5.435877 -0.07549794 228.6609
v 5.685877 -0.07549794 228.9109
v 5.685877 1.106113 228.9109
v 5.435877 1.106113 228.6609
v 5.696206 1.214831 228.9581
v 5.696206 0.9973957 228.9581
v 7.012574 0.9973957 227.6417
v 7.012574 1.214831 227.6417
v 5.388706 0.9973957 228.6506
v 5.388706 1.214831 228.6506
v 6.705074 1.214831 227.3342
v 6.705074 0.9973957 227.3342
v 5.388706 0.9973957 228.6506
v 5.696206 0.9973957 228.9581
v 5.696206 1.214831 228.9581
v 5.388706 1.214831 228.6506
v 6.705074 0.9973957 227.3342
v 7.012574 1.214831 227.6417
v 7.012574 0.9973957 227.6417
v 6.705074 1.214831 227.3342
v 5.388706 1.214831 228.6506
v 5.696206 1.214831 228.9581
v 7.012574 1.214831 227.6417
v 6.705074 1.214831 227.3342
vn 0.7071068 0 0.7071068
vn 0.7071068 0 0.7071068
vn 0.7071068 0 0.7071068
vn 0.7071068 0 0.7071068
vn 0.7071068 0 0.7071068
vn 0.7071068 0 0.7071068
vn 0.7071068 0 0.7071068
vn 0.7071068 0 0.7071068
vn 0.7071068 0 0.7071068
vn 0.7071068 0 0.7071068
vn 0.7071068 0 0.7071068
vn 0.7071068 0 0.7071068
vn 0.7071068 0 0.7071068
vn 0.7071068 0 0.7071068
vn 0.7071068 0 -0.7071068
vn 0.7071068 0 -0.7071068
vn 0.7071068 0 -0.7071068
vn 0.7071068 0 -0.7071068
vn -0.7071068 0 -0.7071068
vn -0.7071068 0 -0.7071068
vn -0.7071068 0 -0.7071068
vn -0.7071068 0 -0.7071068
vn -0.7071068 0 -0.7071068
vn -0.7071068 0 -0.7071068
vn -0.7071068 0 -0.7071068
vn -0.7071068 0 -0.7071068
vn -0.7071068 0 -0.7071068
vn -0.7071068 0 -0.7071068
vn -0.7071068 0 -0.7071068
vn -0.7071068 0 -0.7071068
vn -0.7071068 0 -0.7071068
vn -0.7071068 0 -0.7071068
vn -0.7071068 0 0.7071068
vn -0.7071068 0 0.7071068
vn -0.7071068 0 0.7071068
vn -0.7071068 0 0.7071068
vn 0 1 0
vn 0 1 0
vn 0 1 0
vn 0 1 0
vn -0.7071068 0 0.7071068
vn -0.7071068 0 0.7071068
vn -0.7071068 0 0.7071068
vn -0.7071068 0 0.7071068
vn 0.7071068 0 -0.7071068
vn 0.7071068 0 -0.7071068
vn 0.7071068 0 -0.7071068
vn 0.7071068 0 -0.7071068
vn 0 1 0
vn 0 1 0
vn 0 1 0
vn 0 1 0
vn 0.7071068 0 -0.7071068
vn 0.7071068 0 -0.7071068
vn 0.7071068 0 -0.7071068
vn 0.7071068 0 -0.7071068
vn -0.7071068 0 0.7071068
vn -0.7071068 0 0.7071068
vn -0.7071068 0 0.7071068
vn -0.7071068 0 0.7071068
vn 0 1 0
vn 0 1 0
vn 0 1 0
vn 0 1 0
vn 0 -1 0
vn 0 -1 0
vn 0 -1 0
vn 0 -1 0
vn -0.7071068 0 0.7071068
vn -0.7071068 0 0.7071068
vn -0.7071068 0 0.7071068
vn -0.7071068 0 0.7071068
vn 0.7071068 0 0.7071068
vn 0.7071068 0 0.7071068
vn 0.7071068 0 0.7071068
vn 0.7071068 0 0.7071068
vn -0.7071068 0 0.7071068
vn -0.7071068 0 0.7071068
vn -0.7071068 0 0.7071068
vn -0.7071068 0 0.7071068
vn -0.7071068 0 -0.7071068
vn -0.7071068 0 -0.7071068
vn -0.7071068 0 -0.7071068
vn -0.7071068 0 -0.7071068
vn 0.7071068 0 -0.7071068
vn 0.7071068 0 -0.7071068
vn 0.7071068 0 -0.7071068
vn 0.7071068 0 -0.7071068
vn 0.7071068 0 0.7071068
vn 0.7071068 0 0.7071068
vn 0.7071068 0 0.7071068
vn 0.7071068 0 0.7071068
vn 0.7071068 0 -0.7071068
vn 0.7071068 0 -0.7071068
vn 0.7071068 0 -0.7071068
vn 0.7071068 0 -0.7071068
vn -0.7071068 0 -0.7071068
vn -0.7071068 0 -0.7071068
vn -0.7071068 0 -0.7071068
vn -0.7071068 0 -0.7071068
vn -0.7071068 0 0.7071068
vn -0.7071068 0 0.7071068
vn -0.7071068 0 0.7071068
vn -0.7071068 0 0.7071068
vn 0.7071068 0 0.7071068
vn 0.7071068 0 0.7071068
vn 0.7071068 0 0.7071068
vn 0.7071068 0 0.7071068
vn -0.7071068 0 -0.7071068
vn -0.7071068 0 -0.7071068
vn -0.7071068 0 -0.7071068
vn -0.7071068 0 -0.7071068
vn -0.7071068 0 0.7071068
vn -0.7071068 0 0.7071068
vn -0.7071068 0 0.7071068
vn -0.7071068 0 0.7071068
vn 0.7071068 0 -0.7071068
vn 0.7071068 0 -0.7071068
vn 0.7071068 0 -0.7071068
vn 0.7071068 0 -0.7071068
vn 0 1 0
vn 0 1 0
vn 0 1 0
vn 0 1 0
f 1/1/1 2/2/2 3/3/3
f 1/1/1 3/3/3 4/4/4
f 4/4/4 3/3/3 5/5/5
f 4/4/4 5/5/5 6/6/6
f 6/6/6 5/5/5 7/7/7
f 6/6/6 7/7/7 8/8/8
f 8/8/8 7/7/7 9/9/9
f 8/8/8 9/9/9 10/10/10
f 10/10/10 9/9/9 11/11/11
f 10/10/10 11/11/11 12/12/12
f 12/12/12 11/11/11 13/13/13
f 12/12/12 13/13/13 14/14/14
f 15/15/15 16/16/16 17/17/17
f 15/15/15 17/17/17 18/18/18
f 19/19/19 20/20/20 21/21/21
f 19/19/19 21/21/21 22/22/22
f 22/22/22 21/21/21 23/23/23
f 22/22/22 23/23/23 24/24/24
f 24/24/24 23/23/23 25/25/25
f 24/24/24 25/25/25 26/26/26
f 26/26/26 25/25/25 27/27/27
f 26/26/26 27/27/27 28/28/28
f 28/28/28 27/27/27 29/29/29
f 28/28/28 29/29/29 30/30/30
f 30/30/30 29/29/29 31/31/31
f 30/30/30 31/31/31 32/32/32
f 33/33/33 34/34/34 35/35/35
f 33/33/33 35/35/35 36/36/36
f 37/37/37 38/38/38 39/39/39
f 37/37/37 39/39/39 40/40/40
f 41/41/41 42/42/42 43/43/43
f 41/41/41 43/43/43 44/44/44
f 45/45/45 46/46/46 47/47/47
f 45/45/45 47/47/47 48/48/48
f 49/49/49 50/50/50 51/51/51
f 49/49/49 51/51/51 52/52/52
f 53/53/53 54/54/54 55/55/55
f 53/53/53 55/55/55 56/56/56
f 57/57/57 58/58/58 59/59/59
f 57/57/57 59/59/59 60/60/60
f 61/61/61 62/62/62 63/63/63
f 61/61/61 63/63/63 64/64/64
f 65/65/65 66/66/66 67/67/67
f 65/65/65 67/67/67 68/68/68
f 69/69/69 70/70/70 71/71/71
f 72/72/72 70/70/70 69/69/69
f 73/73/73 74/74/74 75/75/75
f 73/73/73 75/75/75 76/76/76
f 77/77/77 78/78/78 79/79/79
f 77/77/77 79/79/79 80/80/80
f 81/81/81 82/82/82 83/83/83
f 81/81/81 83/83/83 84/84/84
f 85/85/85 86/86/86 87/87/87
f 85/85/85 87/87/87 88/88/88
f 89/89/89 90/90/90 91/91/91
f 89/89/89 91/91/91 92/92/92
f 93/93/93 94/94/94 95/95/95
f 93/93/93 95/95/95 96/96/96
f 97/97/97 98/98/98 99/99/99
f 97/97/97 99/99/99 100/100/100
f 101/101/101 102/102/102 103/103/103
f 101/101/101 103/103/103 104/104/104
f 105/105/105 106/106/106 107/107/107
f 105/105/105 107/107/107 108/108/108
f 109/109/109 110/110/110 111/111/111
f 109/109/109 111/111/111 112/112/112
f 113/113/113 114/114/114 115/115/115
f 113/113/113 115/115/115 116/116/116
f 117/117/117 118/118/118 119/119/119
f 120/120/120 118/118/118 117/117/117
f 121/121/121 122/122/122 123/123/123
f 121/121/121 123/123/123 124/124/124
