g fengche
v -1.401383E-06 0.8287988 -0.04764015
v 0.685772 0.498548 -0.04764115
v 0.7631881 0.560286 3.793216E-06
v -1.459335E-06 0.9278193 3.935462E-06
v 0.685772 0.498548 -0.04764115
v 0.8551447 -0.2435188 -0.04764077
v 0.9516807 -0.265553 3.498188E-06
v 0.7631881 0.560286 3.793216E-06
v 0.8551447 -0.2435188 -0.04764077
v 0.3805735 -0.8386106 -0.04764113
v 0.4235367 -0.9278245 3.392821E-06
v 0.9516807 -0.265553 3.498188E-06
v 0.3805735 -0.8386106 -0.04764113
v -0.3805751 -0.8386106 -0.04764328
v -0.4235385 -0.9278245 1.580507E-06
v 0.4235367 -0.9278245 3.392821E-06
v -0.3805751 -0.8386106 -0.04764328
v -0.8551456 -0.2435188 -0.04764166
v -0.951683 -0.265553 2.27593E-06
v -0.4235385 -0.9278245 1.580507E-06
v -0.8551456 -0.2435188 -0.04764166
v -0.6857747 0.4985476 -0.04764044
v -0.7631924 0.5602856 4.130391E-06
v -0.951683 -0.265553 2.27593E-06
v -0.6857747 0.4985476 -0.04764044
v -1.401383E-06 0.8287988 -0.04764015
v -1.459335E-06 0.9278193 3.935462E-06
v -0.7631924 0.5602856 4.130391E-06
v 0.6727343 0.5112305 -0.01328688
v 0.5433758 0.6405873 -0.01328629
v -0.6788293 -0.5816178 -0.01328669
v -0.5494713 -0.7109752 -0.01328785
v 0.1135628 0.8222098 -0.008988132
v -0.06937765 0.8222098 -0.008988292
v -0.06937588 -0.9062486 -0.008989222
v 0.113564 -0.9062486 -0.008989617
v 0.8863229 -0.1334891 -0.008988068
v 0.8863229 0.0494504 -0.008988068
v -0.8421354 0.0494504 -0.008989965
v -0.8421354 -0.1334891 -0.008989965
v 0.5433776 -0.7109752 -0.004147039
v 0.6727343 -0.5816178 -0.004146828
v -0.5494732 0.6405873 -0.004145585
v -0.6788298 0.5112305 -0.004145775
vt 0.9021595 0.9005743
vt 0.9021595 0.9005743
vt 0.9021595 0.9005743
vt 0.9021595 0.9005743
vt 0.9021595 0.9005743
vt 0.9021595 0.9005743
vt 0.9021595 0.9005743
vt 0.9021595 0.9005743
vt 0.9021595 0.9005743
vt 0.9021595 0.9005743
vt 0.9021595 0.9005743
vt 0.9021595 0.9005743
vt 0.9021595 0.9005743
vt 0.9021595 0.9005743
vt 0.9021595 0.9005743
vt 0.9021595 0.9005743
vt 0.9021595 0.9005743
vt 0.9021595 0.9005743
vt 0.9021595 0.9005743
vt 0.9021595 0.9005743
vt 0.9021595 0.9005743
vt 0.9021595 0.9005743
vt 0.9021595 0.9005743
vt 0.9021595 0.9005743
vt 0.9021595 0.9005743
vt 0.9021595 0.9005743
vt 0.9021595 0.9005743
vt 0.9021595 0.9005743
vt 0.9021595 0.9005743
vt 0.9021595 0.9005743
vt 0.9021595 0.9005743
vt 0.9021595 0.9005743
vt 0.9021595 0.9005743
vt 0.9021595 0.9005743
vt 0.9021595 0.9005743
vt 0.9021595 0.9005743
vt 0.9021595 0.9005743
vt 0.9021595 0.9005743
vt 0.9021595 0.9005743
vt 0.9021595 0.9005743
vt 0.9021595 0.9005743
vt 0.9021595 0.9005743
vt 0.9021595 0.9005743
vt 0.9021595 0.9005743
vn 0.2043928 0.4244275 -0.8820912
vn 0.2043928 0.4244275 -0.8820912
vn 0.2043928 0.4244275 -0.8820912
vn 0.2043929 0.4244275 -0.8820912
vn 0.459273 0.1048263 -0.8820883
vn 0.459273 0.1048263 -0.8820883
vn 0.459273 0.1048263 -0.8820882
vn 0.459273 0.1048263 -0.8820883
vn 0.3683052 -0.2937137 -0.8820904
vn 0.3683052 -0.2937137 -0.8820904
vn 0.3683052 -0.2937137 -0.8820904
vn 0.3683053 -0.2937137 -0.8820904
vn 0 -0.4710806 -0.8820902
vn 0 -0.4710806 -0.8820902
vn 0 -0.4710806 -0.8820902
vn 0 -0.4710806 -0.8820902
vn -0.3683037 -0.2937112 -0.8820919
vn -0.3683037 -0.2937112 -0.8820919
vn -0.3683037 -0.2937112 -0.8820919
vn -0.3683037 -0.2937112 -0.8820919
vn -0.4592644 0.1048251 -0.8820929
vn -0.4592644 0.1048251 -0.8820929
vn -0.4592644 0.1048251 -0.882093
vn -0.4592644 0.1048251 -0.8820929
vn -0.2043923 0.4244246 -0.8820927
vn -0.2043922 0.4244246 -0.8820927
vn -0.2043922 0.4244246 -0.8820927
vn -0.2043922 0.4244246 -0.8820927
vn 0 0 -1
vn 0 0 -1
vn 0 0 -1
vn 0 0 -1
vn 0 0 -1
vn 0 0 -1
vn 0 0 -1
vn 0 0 -1
vn 0 0 -1
vn 0 0 -1
vn 0 0 -1
vn 0 0 -1
vn 0 0 -1
vn 0 0 -1
vn 0 0 -1
vn 0 0 -1
g fengche_0
f 3/3/3 2/2/2 1/1/1
f 4/4/4 3/3/3 1/1/1
f 7/7/7 6/6/6 5/5/5
f 8/8/8 7/7/7 5/5/5
f 11/11/11 10/10/10 9/9/9
f 12/12/12 11/11/11 9/9/9
f 15/15/15 14/14/14 13/13/13
f 16/16/16 15/15/15 13/13/13
f 19/19/19 18/18/18 17/17/17
f 20/20/20 19/19/19 17/17/17
f 23/23/23 22/22/22 21/21/21
f 24/24/24 23/23/23 21/21/21
f 27/27/27 26/26/26 25/25/25
f 28/28/28 27/27/27 25/25/25
f 31/31/31 30/30/30 29/29/29
f 32/32/32 31/31/31 29/29/29
f 35/35/35 34/34/34 33/33/33
f 36/36/36 35/35/35 33/33/33
f 39/39/39 38/38/38 37/37/37
f 40/40/40 39/39/39 37/37/37
f 43/43/43 42/42/42 41/41/41
f 44/44/44 43/43/43 41/41/41
