g Flower_a_TwoS_03
v 0.1595181 -0.4971941 0.9505721
v 0.01255405 -0.5085394 1.146388
v -0.1367724 -0.492061 0.9505721
v -0.1367724 -0.492061 0.9505721
v 0.01885378 -0.06385586 0.8999121
v 0.1595181 -0.4971941 0.9505721
v 0.3929573 -0.1147785 1.17637
v 0.2795625 -0.3093112 1.286615
v 0.3412763 -0.3833327 1.062304
v 0.3412763 -0.3833327 1.062304
v 0.02182865 -0.09290451 0.908195
v 0.3929573 -0.1147785 1.17637
v -0.126302 0.1104361 1.298252
v 0.02025369 -0.06417668 1.40281
v 0.1699885 0.105303 1.298252
v 0.1699885 0.105303 1.298252
v 0.01885378 -0.06385586 0.8999121
v -0.126302 0.1104361 1.298252
v -0.333405 -0.31564 1.050376
v -0.2401051 -0.2818958 1.274599
v -0.3289718 -0.05901441 1.198478
v -0.3289718 -0.05901441 1.198478
v 0.01885378 -0.06385586 0.8999121
v -0.333405 -0.31564 1.050376
v 0.1595181 -0.4971941 0.950193
v -0.1367724 -0.4920319 0.950193
v 0.01255405 -0.5084811 1.146242
v 0.1595181 -0.4971941 0.950193
v 0.01885378 -0.06365171 0.8995621
v -0.1367724 -0.4920319 0.950193
v 0.3931614 -0.1146035 1.176078
v 0.3414805 -0.3831577 1.061984
v 0.2795917 -0.3091945 1.286469
v 0.3931614 -0.1146035 1.176078
v 0.02182865 -0.09270033 0.9078742
v 0.3414805 -0.3831577 1.061984
v -0.126302 0.1107861 1.298048
v 0.1699885 0.105653 1.298048
v 0.02025369 -0.06406 1.402664
v -0.126302 0.1107861 1.298048
v 0.01885378 -0.06365171 0.8995621
v 0.1699885 0.105653 1.298048
v -0.3336091 -0.315465 1.050055
v -0.3291468 -0.05883941 1.198157
v -0.2401343 -0.2818083 1.274453
v -0.3336091 -0.315465 1.050055
v 0.01885378 -0.06365171 0.8995621
v -0.3291468 -0.05883941 1.198157
v -0.2803532 -0.1251905 1.183136
v -0.144997 -0.05428964 1.318464
v -0.1828827 0.09527016 1.193169
v -0.1828827 0.09527016 1.193169
v -0.002378583 -0.1048039 0.9349979
v -0.2803532 -0.1251905 1.183136
v -0.280499 -0.1249864 1.182961
v -0.1830285 0.0954743 1.192965
v -0.1450261 -0.05417296 1.318405
v -0.280499 -0.1249864 1.182961
v -0.002407789 -0.1046581 0.9347354
v -0.1830285 0.0954743 1.192965
v 0.05790612 -0.403836 1.151929
v -0.1264479 -0.3626837 1.229247
v -0.156109 -0.4234934 1.042356
v -0.156109 -0.4234934 1.042356
v 0.004737735 -0.1038998 0.9363687
v 0.05790612 -0.403836 1.151929
v 0.0579353 -0.404011 1.151638
v -0.1560798 -0.4236684 1.042093
v -0.126477 -0.362742 1.229101
v 0.0579353 -0.404011 1.151638
v 0.004766941 -0.1038998 0.936077
v -0.1560798 -0.4236684 1.042093
v 0.2110824 -0.1097329 1.149013
v 0.1298569 -0.2273566 1.219506
v 0.1864668 -0.2860664 1.087474
v 0.1864668 -0.2860664 1.087474
v -0.001328647 -0.1111037 0.9494931
v 0.2110824 -0.1097329 1.149013
v 0.2112282 -0.109762 1.148809
v 0.1866127 -0.2860956 1.087241
v 0.1298861 -0.2273858 1.219418
v 0.2112282 -0.109762 1.148809
v -0.0012995 -0.1110745 0.9492598
v 0.1866127 -0.2860956 1.087241
v 0.2299523 0.1097945 1.269699
v 0.2108782 -0.1153035 1.378398
v 0.3601755 -0.1433022 1.187278
v 0.3601755 -0.1433022 1.187278
v -0.008532524 -0.0737429 0.9238859
v 0.2299523 0.1097945 1.269699
v 0.230244 0.1098819 1.269437
v 0.3604671 -0.1432438 1.187015
v 0.211024 -0.1153618 1.378282
v 0.230244 0.1098819 1.269437
v -0.008415759 -0.0737429 0.9235651
v 0.3604671 -0.1432438 1.187015
v 0.08750892 0.01491964 1.28154
v 0.1230614 -0.1820337 1.321526
v 0.2663506 -0.1231781 1.19699
v 0.2663506 -0.1231781 1.19699
v -0.0003661513 -0.09873757 0.937127
v 0.08750892 0.01491964 1.28154
v 0.08774227 0.01512384 1.281394
v 0.2665548 -0.1229739 1.196844
v 0.1232073 -0.1820045 1.321468
v 0.08774227 0.01512384 1.281394
v -0.000249505 -0.09862089 0.9368646
v 0.2665548 -0.1229739 1.196844
v -0.03953522 -0.2974117 1.187074
v -0.08497477 -0.1734008 1.27629
v -0.2001778 -0.1997079 1.175641
v -0.2001778 -0.1997079 1.175641
v -0.01774871 -0.1055039 0.9688588
v -0.03953522 -0.2974117 1.187074
v -0.03971022 -0.2975284 1.186928
v -0.2003528 -0.1998246 1.175495
v -0.08509141 -0.1734008 1.276232
v -0.03971022 -0.2975284 1.186928
v -0.01783621 -0.1055331 0.9686548
v -0.2003528 -0.1998246 1.175495
v -0.06275082 -0.02080783 1.171441
v 0.0329406 -0.03072405 1.215977
v 0.04507339 0.03101897 1.134109
v 0.04507339 0.03101897 1.134109
v 0.009841651 -0.1255697 1.025323
v -0.06275082 -0.02080783 1.171441
v -0.06277996 -0.02066201 1.171324
v 0.04504421 0.03116477 1.133993
v 0.03296977 -0.03063655 1.215947
v -0.06277996 -0.02066201 1.171324
v 0.009812504 -0.1254822 1.025206
v 0.04504421 0.03116477 1.133993
vt 0.7390159 0.8635737
vt 0.7287958 0.844411
vt 0.7192144 0.8635737
vt 0.6898316 0.7422097
vt 0.6598099 0.7422097
vt 0.683444 0.7696763
vt 0.7141044 0.7754251
vt 0.7128268 0.7971429
vt 0.7287958 0.7939491
vt 0.6840827 0.8795426
vt 0.6598099 0.9012604
vt 0.6840827 0.9057317
vt 0.7569011 0.7428485
vt 0.7415709 0.7422097
vt 0.7434872 0.7639275
vt 0.7185757 0.8092793
vt 0.6923866 0.8239707
vt 0.7185757 0.8380234
vt 0.723047 0.7422097
vt 0.7224082 0.7639275
vt 0.7377384 0.7607337
vt 0.6598099 0.8380234
vt 0.688554 0.8239707
vt 0.6598099 0.8092793
vt 0.6923866 0.891679
vt 0.7121881 0.891679
vt 0.701968 0.8725163
vt 0.688554 0.844411
vt 0.6598099 0.8578249
vt 0.6879153 0.8731551
vt 0.7569011 0.844411
vt 0.7422097 0.8616574
vt 0.7575399 0.8661287
vt 0.6847215 0.7754251
vt 0.6598099 0.7760639
vt 0.6821665 0.8022529
vt 0.6406472 0.9300045
vt 0.627872 0.9517223
vt 0.6425635 0.9523611
vt 0.6540611 0.8424947
vt 0.627872 0.8565474
vt 0.6540611 0.8712388
vt 0.6432022 0.9031767
vt 0.627872 0.9217007
vt 0.6432022 0.9255332
vt 0.6566162 0.7422097
vt 0.627872 0.7549849
vt 0.6559774 0.7709538
vt 0.7313508 0.8961504
vt 0.7313508 0.9108418
vt 0.744126 0.907648
vt 0.7179369 0.7422097
vt 0.6930254 0.7422097
vt 0.7128268 0.7645662
vt 0.76265 0.8725163
vt 0.7524298 0.886569
vt 0.765205 0.8872077
vt 0.6930254 0.8674062
vt 0.7160206 0.8552698
vt 0.6923866 0.844411
vt 0.7358221 0.8859302
vt 0.7485973 0.8910403
vt 0.749236 0.8725163
vt 0.6789727 0.9121193
vt 0.6598099 0.9325596
vt 0.6796114 0.9331983
vt 0.7645662 0.7901165
vt 0.7524298 0.7754251
vt 0.7517911 0.7939491
vt 0.688554 0.7965041
vt 0.7089943 0.7945879
vt 0.6891928 0.7754251
vt 0.646396 0.9031767
vt 0.646396 0.9165906
vt 0.6559774 0.9153131
vt 0.7153819 0.9133968
vt 0.728157 0.8961504
vt 0.7141044 0.8961504
vt 0.7620112 0.7556236
vt 0.7709538 0.7422097
vt 0.7613724 0.7422097
vt 0.6923866 0.9363921
vt 0.7064393 0.9363921
vt 0.6943029 0.9191456
vt 0.7326283 0.7875615
vt 0.7485973 0.7945879
vt 0.7485973 0.7754251
vt 0.6285108 0.8041692
vt 0.6566162 0.788839
vt 0.627872 0.7754251
vt 0.7153819 0.889124
vt 0.7326283 0.889124
vt 0.7275183 0.8725163
vt 0.6566162 0.8092793
vt 0.627872 0.8239707
vt 0.6566162 0.8380234
vt 0.6598099 0.9542773
vt 0.6732239 0.9542773
vt 0.6706688 0.9395859
vt 0.744126 0.8092793
vt 0.723047 0.8271645
vt 0.746681 0.8278033
vt 0.7268795 0.9293658
vt 0.7141044 0.9185069
vt 0.7141044 0.9331983
vt 0.627872 0.8967891
vt 0.6508673 0.8897628
vt 0.627872 0.8776264
vt 0.7632887 0.844411
vt 0.7607337 0.8591024
vt 0.7709538 0.8591024
vt 0.7549849 0.8265257
vt 0.7703151 0.809918
vt 0.7511523 0.8092793
vt 0.7262408 0.9383084
vt 0.7141044 0.9383084
vt 0.7198532 0.9504448
vt 0.7109106 0.8961504
vt 0.6923866 0.905093
vt 0.7109106 0.9146743
vt 0.6470348 0.9351146
vt 0.6540611 0.9383084
vt 0.6534224 0.9300045
vt 0.6923866 0.9529998
vt 0.7051618 0.9523611
vt 0.6949416 0.9415022
vt 0.7581787 0.8386621
vt 0.7524298 0.8316358
vt 0.7511523 0.8393009
vt 0.6891928 0.9395859
vt 0.6764176 0.9395859
vt 0.685999 0.9510835
vn 0.01956916 0.9973421 0.07018438
vn 0.01956916 0.9973421 0.07018438
vn 0.01956916 0.9973421 0.07018438
vn 0.00392437 0.1134116 0.9935403
vn 0.00392437 0.1134116 0.9935403
vn 0.00392437 0.1134116 0.9935403
vn -0.8800061 0.3167939 -0.3538797
vn -0.8800061 0.3167939 -0.3538797
vn -0.8800061 0.3167939 -0.3538797
vn -0.5827551 -0.2229514 0.781466
vn -0.5827551 -0.2229514 0.781466
vn -0.5827551 -0.2229514 0.781466
vn -0.01172048 -0.5202024 -0.8539626
vn -0.01172048 -0.5202024 -0.8539626
vn -0.01172048 -0.5202024 -0.8539626
vn -0.01954287 -0.9191445 0.3934355
vn -0.01954287 -0.9191445 0.3934355
vn -0.01954287 -0.9191445 0.3934355
vn 0.8878549 0.2151027 -0.4067488
vn 0.8878549 0.2151027 -0.4067488
vn 0.8878549 0.2151027 -0.4067488
vn 0.5906039 -0.4106888 0.6946378
vn 0.5906039 -0.4106888 0.6946378
vn 0.5906039 -0.4106888 0.6946378
vn -0.01954287 -0.9973684 -0.06981654
vn -0.01954287 -0.9973684 -0.06981654
vn -0.01954287 -0.9973684 -0.06981654
vn -0.003898084 -0.1134379 -0.9935374
vn -0.003898084 -0.1134379 -0.9935374
vn -0.003898084 -0.1134379 -0.9935374
vn 0.8800325 -0.3168201 0.3537907
vn 0.8800325 -0.3168201 0.3537907
vn 0.8800325 -0.3168201 0.3537907
vn 0.5827816 0.2229251 -0.7814538
vn 0.5827816 0.2229251 -0.7814538
vn 0.5827816 0.2229251 -0.7814538
vn 0.01174676 0.520176 0.8539783
vn 0.01174676 0.520176 0.8539783
vn 0.01174676 0.520176 0.8539783
vn 0.01956916 0.9191181 -0.3934958
vn 0.01956916 0.9191181 -0.3934958
vn 0.01956916 0.9191181 -0.3934958
vn -0.8878285 -0.215129 0.4067923
vn -0.8878285 -0.215129 0.4067923
vn -0.8878285 -0.215129 0.4067923
vn -0.5905775 0.4106626 -0.6946757
vn -0.5905775 0.4106626 -0.6946757
vn -0.5905775 0.4106626 -0.6946757
vn 0.7470518 -0.3011753 -0.5926273
vn 0.7470518 -0.3011753 -0.5926273
vn 0.7470518 -0.3011753 -0.5926273
vn 0.6453606 -0.3168201 0.6950789
vn 0.6453606 -0.3168201 0.6950789
vn 0.6453606 -0.3168201 0.6950789
vn -0.7470254 0.3011491 0.5926738
vn -0.7470254 0.3011491 0.5926738
vn -0.7470254 0.3011491 0.5926738
vn -0.6453343 0.3167939 -0.6951153
vn -0.6453343 0.3167939 -0.6951153
vn -0.6453343 0.3167939 -0.6951153
vn 0.07432592 0.9425853 -0.3255897
vn 0.07432592 0.9425853 -0.3255897
vn 0.07432592 0.9425853 -0.3255897
vn -0.4341298 0.4732417 0.7665334
vn -0.4341298 0.4732417 0.7665334
vn -0.4341298 0.4732417 0.7665334
vn -0.07429963 -0.9426116 0.3255194
vn -0.07429963 -0.9426116 0.3255194
vn -0.07429963 -0.9426116 0.3255194
vn 0.434156 -0.473268 -0.7665024
vn 0.434156 -0.473268 -0.7665024
vn 0.434156 -0.473268 -0.7665024
vn -0.8252494 0.2855043 -0.4872892
vn -0.8252494 0.2855043 -0.4872892
vn -0.8252494 0.2855043 -0.4872892
vn -0.6766239 -0.1603723 0.7186521
vn -0.6766239 -0.1603723 0.7186521
vn -0.6766239 -0.1603723 0.7186521
vn 0.8252757 -0.2855305 0.4872293
vn 0.8252757 -0.2855305 0.4872293
vn 0.8252757 -0.2855305 0.4872293
vn 0.6766502 0.160346 -0.7186332
vn 0.6766502 0.160346 -0.7186332
vn 0.6766502 0.160346 -0.7186332
vn -0.7861374 -0.215129 -0.5794027
vn -0.7861374 -0.215129 -0.5794027
vn -0.7861374 -0.215129 -0.5794027
vn -0.559288 -0.5045576 0.6577375
vn -0.559288 -0.5045576 0.6577375
vn -0.559288 -0.5045576 0.6577375
vn 0.7861637 0.2151027 0.5793767
vn 0.7861637 0.2151027 0.5793767
vn 0.7861637 0.2151027 0.5793767
vn 0.5593144 0.5045312 -0.6577352
vn 0.5593144 0.5045312 -0.6577352
vn 0.5593144 0.5045312 -0.6577352
vn -0.5671104 -0.2620633 -0.7808384
vn -0.5671104 -0.2620633 -0.7808384
vn -0.5671104 -0.2620633 -0.7808384
vn -0.4419522 -0.8096309 0.3862331
vn -0.4419522 -0.8096309 0.3862331
vn -0.4419522 -0.8096309 0.3862331
vn 0.5671368 0.2620371 0.7808281
vn 0.5671368 0.2620371 0.7808281
vn 0.5671368 0.2620371 0.7808281
vn 0.4419784 0.8096046 -0.3862583
vn 0.4419784 0.8096046 -0.3862583
vn 0.4419784 0.8096046 -0.3862583
vn 0.4263336 0.6296895 -0.649408
vn 0.4263336 0.6296895 -0.649408
vn 0.4263336 0.6296895 -0.649408
vn 0.3715768 0.6766239 0.6356971
vn 0.3715768 0.6766239 0.6356971
vn 0.3715768 0.6766239 0.6356971
vn -0.4263074 -0.6218935 0.6568945
vn -0.4263074 -0.6218935 0.6568945
vn -0.4263074 -0.6218935 0.6568945
vn -0.3715506 -0.6766502 -0.6356844
vn -0.3715506 -0.6766502 -0.6356844
vn -0.3715506 -0.6766502 -0.6356844
vn 0.1838394 -0.7939861 -0.5794731
vn 0.1838394 -0.7939861 -0.5794731
vn 0.1838394 -0.7939861 -0.5794731
vn 0.4967352 -0.5671368 0.6569704
vn 0.4967352 -0.5671368 0.6569704
vn 0.4967352 -0.5671368 0.6569704
vn -0.1838132 0.7939598 0.5795175
vn -0.1838132 0.7939598 0.5795175
vn -0.1838132 0.7939598 0.5795175
vn -0.4967089 0.5671104 -0.657013
vn -0.4967089 0.5671104 -0.657013
vn -0.4967089 0.5671104 -0.657013
g Flower_a_TwoS_03_0
f 3/3/3 2/2/2 1/1/1
f 6/6/6 5/5/5 4/4/4
f 9/9/9 8/8/8 7/7/7
f 12/12/12 11/11/11 10/10/10
f 15/15/15 14/14/14 13/13/13
f 18/18/18 17/17/17 16/16/16
f 21/21/21 20/20/20 19/19/19
f 24/24/24 23/23/23 22/22/22
f 27/27/27 26/26/26 25/25/25
f 30/30/30 29/29/29 28/28/28
f 33/33/33 32/32/32 31/31/31
f 36/36/36 35/35/35 34/34/34
f 39/39/39 38/38/38 37/37/37
f 42/42/42 41/41/41 40/40/40
f 45/45/45 44/44/44 43/43/43
f 48/48/48 47/47/47 46/46/46
f 51/51/51 50/50/50 49/49/49
f 54/54/54 53/53/53 52/52/52
f 57/57/57 56/56/56 55/55/55
f 60/60/60 59/59/59 58/58/58
f 63/63/63 62/62/62 61/61/61
f 66/66/66 65/65/65 64/64/64
f 69/69/69 68/68/68 67/67/67
f 72/72/72 71/71/71 70/70/70
f 75/75/75 74/74/74 73/73/73
f 78/78/78 77/77/77 76/76/76
f 81/81/81 80/80/80 79/79/79
f 84/84/84 83/83/83 82/82/82
f 87/87/87 86/86/86 85/85/85
f 90/90/90 89/89/89 88/88/88
f 93/93/93 92/92/92 91/91/91
f 96/96/96 95/95/95 94/94/94
f 99/99/99 98/98/98 97/97/97
f 102/102/102 101/101/101 100/100/100
f 105/105/105 104/104/104 103/103/103
f 108/108/108 107/107/107 106/106/106
f 111/111/111 110/110/110 109/109/109
f 114/114/114 113/113/113 112/112/112
f 117/117/117 116/116/116 115/115/115
f 120/120/120 119/119/119 118/118/118
f 123/123/123 122/122/122 121/121/121
f 126/126/126 125/125/125 124/124/124
f 129/129/129 128/128/128 127/127/127
f 132/132/132 131/131/131 130/130/130
