g FlowersYellow
v -0.1064862 0.6339275 -0.05914662
v -0.1184886 0.5712155 -0.0409162
v -0.1916268 0.5303931 -0.08447105
v -0.2230161 0.5688861 -0.1285417
v -0.2343861 0.4974695 0.02434417
v -0.2931722 0.5535639 0.003627157
v -0.1766423 0.6186053 0.07302225
v -0.1317104 0.5504451 0.05386751
v -0.242515 0.5300435 -0.1354687
v -0.2014325 0.4974695 -0.09026116
v -0.2343861 0.4974695 0.02434417
v -0.2932066 0.5300435 0.04082573
v -0.1352633 0.6115347 0.08624064
v -0.1317104 0.5504451 0.05386751
v -0.09875682 0.5504451 -0.06073782
v -0.08457167 0.6115347 -0.0900538
v -0.2932066 0.5300435 0.04082573
v -0.2343861 0.4974695 0.02434417
v -0.1317104 0.5504451 0.05386751
v -0.1352633 0.6115347 0.08624064
v -0.08457167 0.6115347 -0.0900538
v -0.09875682 0.5504451 -0.06073782
v -0.2014325 0.4974695 -0.09026116
v -0.242515 0.5300435 -0.1354687
v -0.09875682 0.5504451 -0.06073782
v -0.1064862 0.6339275 -0.05914662
v -0.2230161 0.5688861 -0.1285417
v -0.2014325 0.4974695 -0.09026116
v -0.2014325 0.4974695 -0.09026116
v -0.2230161 0.5688861 -0.1285417
v -0.2931722 0.5535639 0.003627157
v -0.2343861 0.4974695 0.02434417
v -0.1317104 0.5504451 0.05386751
v -0.1766423 0.6186053 0.07302225
v -0.1064862 0.6339275 -0.05914662
v -0.09875682 0.5504451 -0.06073782
v -0.1916268 0.5303931 -0.08447105
v -0.2034112 0.5909336 -0.104164
v -0.2722073 0.5690812 -0.02437992
v -0.2356593 0.5207763 -0.001517182
v -0.2230161 0.5688861 -0.1285417
v -0.1916268 0.5303931 -0.08447105
v -0.2356593 0.5207763 -0.001517182
v -0.2931722 0.5535639 0.003627157
v -0.1766423 0.6186053 0.07302225
v -0.1625211 0.5615986 0.04203764
v -0.1184886 0.5712155 -0.0409162
v -0.1064862 0.6339275 -0.05914662
v -0.2931722 0.5535639 0.003627157
v -0.2356593 0.5207763 -0.001517182
v -0.1625211 0.5615986 0.04203764
v -0.1766423 0.6186053 0.07302225
v -0.2722073 0.5690812 -0.02437992
v -0.2141161 0.5468649 -0.02133574
v -0.1841646 0.5653718 0.00955972
v -0.2034109 0.6115903 0.04658469
v -0.1625211 0.5615986 0.04203764
v -0.2034109 0.6115903 0.04658469
v -0.1346148 0.6334426 -0.03319938
v -0.1184886 0.5712155 -0.0409162
v -0.2356593 0.5207763 -0.001517182
v -0.2722073 0.5690812 -0.02437992
v -0.2034109 0.6115903 0.04658469
v -0.1625211 0.5615986 0.04203764
v -0.1184886 0.5712155 -0.0409162
v -0.1346148 0.6334426 -0.03319938
v -0.2034112 0.5909336 -0.104164
v -0.1916268 0.5303931 -0.08447105
v -0.1542133 0.5748855 -0.0251754
v -0.1841646 0.5653718 0.00955972
v -0.2141161 0.5468649 -0.02133574
v -0.1841648 0.5563786 -0.05607083
v -0.1346148 0.6334426 -0.03319938
v -0.1542133 0.5748855 -0.0251754
v -0.1841648 0.5563786 -0.05607083
v -0.2034112 0.5909336 -0.104164
v -0.2034112 0.5909336 -0.104164
v -0.1841648 0.5563786 -0.05607083
v -0.2141161 0.5468649 -0.02133574
v -0.2722073 0.5690812 -0.02437992
v -0.2034109 0.6115903 0.04658469
v -0.1841646 0.5653718 0.00955972
v -0.1542133 0.5748855 -0.0251754
v -0.1346148 0.6334426 -0.03319938
v -0.1317104 0.5504451 0.05386751
v -0.09875682 0.5504451 -0.06073782
v -0.2014325 0.4974695 -0.09026116
v -0.2343861 0.4974695 0.02434417
v -0.04927954 0.3108053 0.007949848
v -0.1710022 0.5385076 -0.01542819
v -0.1847717 0.5385076 -0.03927759
v -0.06304902 0.3108053 -0.01589955
v -0.07681847 0.3108053 0.007949858
v -0.1985411 0.5385076 -0.01542818
v -0.1710022 0.5385076 -0.01542819
v -0.04927954 0.3108053 0.007949848
v -0.06304902 0.3108053 -0.01589955
v -0.1847717 0.5385076 -0.03927759
v -0.1985411 0.5385076 -0.01542818
v -0.07681847 0.3108053 0.007949858
v 0.001549746 0 -0.01589959
v -0.06304902 0.3108053 -0.01589955
v -0.07681847 0.3108053 0.007949858
v -0.01221972 0 0.007949816
v -0.01221972 0 0.007949816
v -0.07681847 0.3108053 0.007949858
v -0.04927954 0.3108053 0.007949848
v 0.01531921 0 0.007949806
v 0.01531921 0 0.007949806
v -0.04927954 0.3108053 0.007949848
v -0.06304902 0.3108053 -0.01589955
v 0.001549746 0 -0.01589959
v 0.03722874 0.2967722 -0.3503756
v 0.1078533 0.495611 -0.5441943
v 0.06854792 0.3312812 -0.3213013
v -0.02106487 -0.003454074 0.02183573
v -0.004323547 0.1605917 -0.136265
v 0.06071828 0.1323269 -0.1132392
v 0.08383565 -0.01410328 0.01034901
v -0.004323547 0.1605917 -0.136265
v 0.03722874 0.2967722 -0.3503756
v 0.06854792 0.3312812 -0.3213013
v 0.06071828 0.1323269 -0.1132392
v 0.2273931 0.3493632 -0.04470814
v 0.4934445 0.4888664 -0.07257141
v 0.2326275 0.3499708 -0.01646129
v -0.03802828 0.002540186 -0.02092503
v 0.07147171 0.1554356 0.02058255
v 0.1001218 0.1414413 0.04716142
v -0.01912237 -0.01361024 0.05541058
v 0.07147171 0.1554356 0.02058255
v 0.2273931 0.3493632 -0.04470814
v 0.2326275 0.3499708 -0.01646129
v 0.1001218 0.1414413 0.04716142
v 0.1260658 0.3212318 0.2646878
v 0.2271768 0.4848966 0.4495527
v 0.1014979 0.3140195 0.3089063
v 0.02523828 -0.01731088 -0.0160304
v 0.09372654 0.1446153 0.07537052
v 0.0396631 0.1382774 0.08895838
v -0.0524231 -0.01762746 0.04136917
v 0.09372654 0.1446153 0.07537052
v 0.1260658 0.3212318 0.2646878
v 0.1014979 0.3140195 0.3089063
v 0.0396631 0.1382774 0.08895838
v -0.2079378 0.2864536 0.2148605
v -0.3802497 0.4651999 0.3478098
v -0.2425772 0.2887126 0.1933977
v 0.05118391 0.0007208213 -0.005763479
v -0.0320964 0.1562525 0.08484521
v -0.1297455 0.155751 0.02799718
v -0.009721035 -0.01574593 -0.05453482
v -0.0320964 0.1562525 0.08484521
v -0.2079378 0.2864536 0.2148605
v -0.2425772 0.2887126 0.1933977
v -0.1297455 0.155751 0.02799718
v -0.2779291 0.2844977 -0.1379903
v -0.4836996 0.5032279 -0.2305003
v -0.2614704 0.3220433 -0.1828866
v 0.00538498 -0.008186996 0.0492444
v -0.1074638 0.160428 -0.009152121
v -0.07465353 0.1468437 -0.08112118
v 0.01902557 -0.01015162 -0.04639894
v -0.1074638 0.160428 -0.009152121
v -0.2779291 0.2844977 -0.1379903
v -0.2614704 0.3220433 -0.1828866
v -0.07465353 0.1468437 -0.08112118
v -0.03396931 0.2027645 0.3388167
v -0.1166088 0.340168 0.5278254
v -0.06340364 0.2266113 0.3078357
v 0.04755023 -0.004700884 -0.02900658
v 0.02092767 0.1086597 0.1277332
v -0.04254226 0.08912781 0.100674
v -0.05786416 -0.01205982 -0.02412057
v 0.02092767 0.1086597 0.1277332
v -0.03396931 0.2027645 0.3388167
v -0.06340364 0.2266113 0.3078357
v -0.04254226 0.08912781 0.100674
v -0.2045916 0.2391064 0.02182603
v -0.4718666 0.3355073 0.0329509
v -0.2080444 0.2395263 -0.006693482
v 0.06179881 -0.0005586743 0.01473377
v -0.04488282 0.1050967 -0.03355864
v -0.07180984 0.09542611 -0.06188181
v 0.04771696 -0.01171911 -0.06263715
v -0.04488282 0.1050967 -0.03355864
v -0.2045916 0.2391064 0.02182603
v -0.2080444 0.2395263 -0.006693482
v -0.07180984 0.09542611 -0.06188181
v -0.08406204 0.2196667 -0.280607
v -0.1733816 0.3327641 -0.4714485
v -0.05676967 0.2146829 -0.3231977
v -0.001036311 -0.01427637 0.005881444
v -0.0636582 0.0976195 -0.08963436
v -0.008849081 0.09323977 -0.09980528
v 0.08007164 -0.01449513 -0.04653516
v -0.0636582 0.0976195 -0.08963436
v -0.08406204 0.2196667 -0.280607
v -0.05676967 0.2146829 -0.3231977
v -0.008849081 0.09323977 -0.09980528
v 0.2461596 0.195634 -0.209933
v 0.4264696 0.3191531 -0.3318154
v 0.2793849 0.197195 -0.1863403
v -0.02628705 -0.001815915 -0.00599226
v 0.06251124 0.1056612 -0.09120028
v 0.1564033 0.1053146 -0.02834073
v 0.03143967 -0.01319493 0.04650232
v 0.06251124 0.1056612 -0.09120028
v 0.2461596 0.195634 -0.209933
v 0.2793849 0.197195 -0.1863403
v 0.1564033 0.1053146 -0.02834073
v 0.2938866 0.1942824 0.1466124
v 0.493451 0.3454316 0.2518438
v 0.2746449 0.2202275 0.1903882
v 0.02287118 -0.00797148 -0.05801991
v 0.1318359 0.1085465 0.0073382
v 0.0945772 0.0991594 0.07710815
v 0.00325983 -0.009329095 0.03657981
v 0.1318359 0.1085465 0.0073382
v 0.2938866 0.1942824 0.1466124
v 0.2746449 0.2202275 0.1903882
v 0.0945772 0.0991594 0.07710815
v 0.1476975 0.558413 -0.1051001
v 0.1230464 0.5164661 -0.1101038
v 0.1614165 0.4621421 -0.1304093
v 0.208832 0.4718598 -0.1374525
v 0.1011313 0.4462212 -0.1945703
v 0.1485148 0.4638664 -0.2300457
v 0.08738032 0.5504197 -0.1976932
v 0.06492077 0.5144645 -0.1527728
v 0.2083794 0.4395898 -0.1405104
v 0.1587895 0.4366551 -0.1290005
v 0.1011313 0.4462212 -0.1945703
v 0.1196853 0.454305 -0.2413747
v 0.06398361 0.5592819 -0.1770787
v 0.06492077 0.5144645 -0.1527728
v 0.1225789 0.5048985 -0.08720304
v 0.1526777 0.5445667 -0.07621442
v 0.1196853 0.454305 -0.2413747
v 0.1011313 0.4462212 -0.1945703
v 0.06492077 0.5144645 -0.1527728
v 0.06398361 0.5592819 -0.1770787
v 0.1526777 0.5445667 -0.07621442
v 0.1225789 0.5048985 -0.08720304
v 0.1587895 0.4366551 -0.1290005
v 0.2083794 0.4395898 -0.1405104
v 0.1225789 0.5048985 -0.08720304
v 0.1476975 0.558413 -0.1051001
v 0.208832 0.4718598 -0.1374525
v 0.1587895 0.4366551 -0.1290005
v 0.1587895 0.4366551 -0.1290005
v 0.208832 0.4718598 -0.1374525
v 0.1485148 0.4638664 -0.2300457
v 0.1011313 0.4462212 -0.1945703
v 0.06492077 0.5144645 -0.1527728
v 0.08738032 0.5504197 -0.1976932
v 0.1476975 0.558413 -0.1051001
v 0.1225789 0.5048985 -0.08720304
v 0.1614165 0.4621421 -0.1304093
v 0.1940953 0.4958556 -0.1387649
v 0.1627656 0.4753815 -0.2086212
v 0.1235593 0.4571252 -0.1885241
v 0.208832 0.4718598 -0.1374525
v 0.1614165 0.4621421 -0.1304093
v 0.1235593 0.4571252 -0.1885241
v 0.1485148 0.4638664 -0.2300457
v 0.08738032 0.5504197 -0.1976932
v 0.08518919 0.5114491 -0.1682186
v 0.1230464 0.5164661 -0.1101038
v 0.1476975 0.558413 -0.1051001
v 0.1485148 0.4638664 -0.2300457
v 0.1235593 0.4571252 -0.1885241
v 0.08518919 0.5114491 -0.1682186
v 0.08738032 0.5504197 -0.1976932
v 0.1627656 0.4753815 -0.2086212
v 0.1357142 0.4771453 -0.1716232
v 0.1127096 0.502704 -0.1687968
v 0.1099255 0.5340877 -0.2021291
v 0.08518919 0.5114491 -0.1682186
v 0.1099255 0.5340877 -0.2021291
v 0.1412552 0.5545617 -0.1322729
v 0.1230464 0.5164661 -0.1101038
v 0.1235593 0.4571252 -0.1885241
v 0.1627656 0.4753815 -0.2086212
v 0.1099255 0.5340877 -0.2021291
v 0.08518919 0.5114491 -0.1682186
v 0.1230464 0.5164661 -0.1101038
v 0.1412552 0.5545617 -0.1322729
v 0.1940953 0.4958556 -0.1387649
v 0.1614165 0.4621421 -0.1304093
v 0.1263494 0.5116177 -0.138384
v 0.1127096 0.502704 -0.1687968
v 0.1357142 0.4771453 -0.1716232
v 0.1493541 0.486059 -0.1412104
v 0.1412552 0.5545617 -0.1322729
v 0.1263494 0.5116177 -0.138384
v 0.1493541 0.486059 -0.1412104
v 0.1940953 0.4958556 -0.1387649
v 0.1940953 0.4958556 -0.1387649
v 0.1493541 0.486059 -0.1412104
v 0.1357142 0.4771453 -0.1716232
v 0.1627656 0.4753815 -0.2086212
v 0.1099255 0.5340877 -0.2021291
v 0.1127096 0.502704 -0.1687968
v 0.1263494 0.5116177 -0.138384
v 0.1412552 0.5545617 -0.1322729
v 0.06492077 0.5144645 -0.1527728
v 0.1225789 0.5048985 -0.08720304
v 0.1587895 0.4366551 -0.1290005
v 0.1011313 0.4462212 -0.1945703
v 0.01766085 0.3108053 -0.04668799
v 0.1157526 0.4844426 -0.1468517
v 0.1344866 0.4767678 -0.145583
v 0.04519971 0.3108053 -0.04674356
v 0.03138216 0.3108053 -0.07056513
v 0.1247448 0.4768539 -0.1633752
v 0.1157526 0.4844426 -0.1468517
v 0.01766085 0.3108053 -0.04668799
v 0.04519971 0.3108053 -0.04674356
v 0.1344866 0.4767678 -0.145583
v 0.1247448 0.4768539 -0.1633752
v 0.03138216 0.3108053 -0.07056513
v 0.0130133 0 0.00926568
v 0.04519971 0.3108053 -0.04674356
v 0.03138216 0.3108053 -0.07056513
v -0.000804252 0 -0.0145559
v -0.000804252 0 -0.0145559
v 0.03138216 0.3108053 -0.07056513
v 0.01766085 0.3108053 -0.04668799
v -0.01452556 0 0.009321248
v -0.01452556 0 0.009321248
v 0.01766085 0.3108053 -0.04668799
v 0.04519971 0.3108053 -0.04674356
v 0.0130133 0 0.00926568
v 0.005577524 0.5256306 0.1182841
v 0.0224572 0.4770599 0.1192067
v 0.02183215 0.4454428 0.1851332
v 0.004581668 0.4752558 0.2233236
v 0.1113224 0.4199433 0.1713135
v 0.1203831 0.4633887 0.2187302
v 0.1213789 0.5137635 0.1136907
v 0.09103969 0.4609732 0.09109305
v 0.007550002 0.4451721 0.2390729
v 0.02178135 0.4199433 0.1939528
v 0.1113224 0.4199433 0.1713135
v 0.1452888 0.4451721 0.2042474
v 0.1140884 0.5082873 0.08084649
v 0.09103969 0.4609732 0.09109305
v 0.001498636 0.4609732 0.1137324
v -0.02365036 0.5082873 0.115672
v 0.1452888 0.4451721 0.2042474
v 0.1113224 0.4199433 0.1713135
v 0.09103969 0.4609732 0.09109305
v 0.1140884 0.5082873 0.08084649
v -0.02365036 0.5082873 0.115672
v 0.001498636 0.4609732 0.1137324
v 0.02178135 0.4199433 0.1939528
v 0.007550002 0.4451721 0.2390729
v 0.001498636 0.4609732 0.1137324
v 0.005577524 0.5256306 0.1182841
v 0.004581668 0.4752558 0.2233236
v 0.02178135 0.4199433 0.1939528
v 0.02178135 0.4199433 0.1939528
v 0.004581668 0.4752558 0.2233236
v 0.1203831 0.4633887 0.2187302
v 0.1113224 0.4199433 0.1713135
v 0.09103969 0.4609732 0.09109305
v 0.1213789 0.5137635 0.1136907
v 0.005577524 0.5256306 0.1182841
v 0.001498636 0.4609732 0.1137324
v 0.02183215 0.4454428 0.1851332
v 0.01324954 0.4923316 0.2006983
v 0.09346624 0.4754069 0.2156226
v 0.09451324 0.4379946 0.1822503
v 0.004581668 0.4752558 0.2233236
v 0.02183215 0.4454428 0.1851332
v 0.09451324 0.4379946 0.1822503
v 0.1203831 0.4633887 0.2187302
v 0.1213789 0.5137635 0.1136907
v 0.09513827 0.4696116 0.1163238
v 0.0224572 0.4770599 0.1192067
v 0.005577524 0.5256306 0.1182841
v 0.1203831 0.4633887 0.2187302
v 0.09451324 0.4379946 0.1822503
v 0.09513827 0.4696116 0.1163238
v 0.1213789 0.5137635 0.1136907
v 0.09346624 0.4754069 0.2156226
v 0.07285033 0.4582002 0.1755625
v 0.08184499 0.4725339 0.143472
v 0.1141262 0.5083303 0.141913
v 0.09513827 0.4696116 0.1163238
v 0.1141262 0.5083303 0.141913
v 0.03390958 0.525255 0.1269887
v 0.0224572 0.4770599 0.1192067
v 0.09451324 0.4379946 0.1822503
v 0.09346624 0.4754069 0.2156226
v 0.1141262 0.5083303 0.141913
v 0.09513827 0.4696116 0.1163238
v 0.0224572 0.4770599 0.1192067
v 0.03390958 0.525255 0.1269887
v 0.01324954 0.4923316 0.2006983
v 0.02183215 0.4454428 0.1851332
v 0.04692152 0.4799023 0.1369745
v 0.08184499 0.4725339 0.143472
v 0.07285033 0.4582002 0.1755625
v 0.03792689 0.4655687 0.169065
v 0.03390958 0.525255 0.1269887
v 0.04692152 0.4799023 0.1369745
v 0.03792689 0.4655687 0.169065
v 0.01324954 0.4923316 0.2006983
v 0.01324954 0.4923316 0.2006983
v 0.03792689 0.4655687 0.169065
v 0.07285033 0.4582002 0.1755625
v 0.09346624 0.4754069 0.2156226
v 0.1141262 0.5083303 0.141913
v 0.08184499 0.4725339 0.143472
v 0.04692152 0.4799023 0.1369745
v 0.03390958 0.525255 0.1269887
v 0.09103969 0.4609732 0.09109305
v 0.001498636 0.4609732 0.1137324
v 0.02178135 0.4199433 0.1939528
v 0.1113224 0.4199433 0.1713135
v 0.03168044 0.3108053 0.03857491
v 0.05999102 0.4517275 0.1444082
v 0.04940114 0.4517275 0.1629226
v 0.01800734 0.3108053 0.06247967
v 0.04554603 0.3108053 0.06236855
v 0.07072995 0.4517275 0.1628365
v 0.05999102 0.4517275 0.1444082
v 0.03168044 0.3108053 0.03857491
v 0.01800734 0.3108053 0.06247967
v 0.04940114 0.4517275 0.1629226
v 0.07072995 0.4517275 0.1628365
v 0.04554603 0.3108053 0.06236855
v -0.01451754 0 0.006666307
v 0.01800734 0.3108053 0.06247967
v 0.04554603 0.3108053 0.06236855
v 0.01302116 0 0.00655519
v 0.01302116 0 0.00655519
v 0.04554603 0.3108053 0.06236855
v 0.03168044 0.3108053 0.03857491
v -0.0008444348 0 -0.01723846
v -0.0008444348 0 -0.01723846
v 0.03168044 0.3108053 0.03857491
v 0.01800734 0.3108053 0.06247967
v -0.01451754 0 0.006666307
vt 0.3261757 0.5780281
vt 0.3261757 0.5780281
vt 0.3261757 0.5780281
vt 0.3261757 0.5780281
vt 0.3261757 0.5780281
vt 0.3261757 0.5780281
vt 0.3261757 0.5780281
vt 0.3261757 0.5780281
vt 0.3261757 0.5780281
vt 0.3261757 0.5780281
vt 0.3261757 0.5780281
vt 0.3261757 0.5780281
vt 0.3261757 0.5780281
vt 0.3261757 0.5780281
vt 0.3261757 0.5780281
vt 0.3261757 0.5780281
vt 0.3261757 0.5780281
vt 0.3261757 0.5780281
vt 0.3261757 0.5780281
vt 0.3261757 0.5780281
vt 0.3261757 0.5780281
vt 0.3261757 0.5780281
vt 0.3261757 0.5780281
vt 0.3261757 0.5780281
vt 0.3261757 0.5780281
vt 0.3261757 0.5780281
vt 0.3261757 0.5780281
vt 0.3261757 0.5780281
vt 0.3261757 0.5780281
vt 0.3261757 0.5780281
vt 0.3261757 0.5780281
vt 0.3261757 0.5780281
vt 0.3261757 0.5780281
vt 0.3261757 0.5780281
vt 0.3261757 0.5780281
vt 0.3261757 0.5780281
vt 0.3261757 0.5780281
vt 0.3261757 0.5780281
vt 0.3261757 0.5780281
vt 0.3261757 0.5780281
vt 0.3261757 0.5780281
vt 0.3261757 0.5780281
vt 0.3261757 0.5780281
vt 0.3261757 0.5780281
vt 0.3261757 0.5780281
vt 0.3261757 0.5780281
vt 0.3261757 0.5780281
vt 0.3261757 0.5780281
vt 0.3261757 0.5780281
vt 0.3261757 0.5780281
vt 0.3261757 0.5780281
vt 0.3261757 0.5780281
vt 0.3261757 0.5780281
vt 0.3261757 0.5780281
vt 0.3261757 0.5780281
vt 0.3261757 0.5780281
vt 0.3261757 0.5780281
vt 0.3261757 0.5780281
vt 0.3261757 0.5780281
vt 0.3261757 0.5780281
vt 0.3261757 0.5780281
vt 0.3261757 0.5780281
vt 0.3261757 0.5780281
vt 0.3261757 0.5780281
vt 0.3261757 0.5780281
vt 0.3261757 0.5780281
vt 0.3261757 0.5780281
vt 0.3261757 0.5780281
vt 0.3261757 0.5780281
vt 0.3261757 0.5780281
vt 0.3261757 0.5780281
vt 0.3261757 0.5780281
vt 0.3261757 0.5780281
vt 0.3261757 0.5780281
vt 0.3261757 0.5780281
vt 0.3261757 0.5780281
vt 0.3261757 0.5780281
vt 0.3261757 0.5780281
vt 0.3261757 0.5780281
vt 0.3261757 0.5780281
vt 0.3261757 0.5780281
vt 0.3261757 0.5780281
vt 0.3261757 0.5780281
vt 0.3261757 0.5780281
vt 0.3261757 0.5780281
vt 0.3261757 0.5780281
vt 0.3261757 0.5780281
vt 0.3261757 0.5780281
vt 0.3764998 0.1501078
vt 0.3764998 0.1501078
vt 0.3764998 0.1501078
vt 0.3764998 0.1501078
vt 0.3764998 0.1501078
vt 0.3764998 0.1501078
vt 0.3764998 0.1501078
vt 0.3764998 0.1501078
vt 0.3764998 0.1501078
vt 0.3764998 0.1501078
vt 0.3764998 0.1501078
vt 0.3764998 0.1501078
vt 0.3764998 0.1501078
vt 0.3764998 0.1501078
vt 0.3764998 0.1501078
vt 0.3764998 0.1501078
vt 0.3764998 0.1501078
vt 0.3764998 0.1501078
vt 0.3764998 0.1501078
vt 0.3764998 0.1501078
vt 0.3764998 0.1501078
vt 0.3764998 0.1501078
vt 0.3764998 0.1501078
vt 0.3764998 0.1501078
vt 0.6389529 0.4841346
vt 0.6389529 0.4841346
vt 0.6389529 0.4841346
vt 0.6389529 0.4841346
vt 0.6389529 0.4841346
vt 0.6389529 0.4841346
vt 0.6389529 0.4841346
vt 0.6389529 0.4841346
vt 0.6389529 0.4841346
vt 0.6389529 0.4841346
vt 0.6389529 0.4841346
vt 0.6389529 0.4841346
vt 0.6389529 0.4841346
vt 0.6389529 0.4841346
vt 0.6389529 0.4841346
vt 0.6389529 0.4841346
vt 0.6389529 0.4841346
vt 0.6389529 0.4841346
vt 0.6389529 0.4841346
vt 0.6389529 0.4841346
vt 0.6389529 0.4841346
vt 0.6389529 0.4841346
vt 0.6149248 0.4833595
vt 0.6149248 0.4833595
vt 0.6149248 0.4833595
vt 0.6149248 0.4833595
vt 0.6149248 0.4833595
vt 0.6149248 0.4833595
vt 0.6149248 0.4833595
vt 0.6149248 0.4833595
vt 0.6149248 0.4833595
vt 0.6149248 0.4833595
vt 0.6149248 0.4833595
vt 0.6389529 0.4841346
vt 0.6149248 0.4833595
vt 0.6389529 0.4841346
vt 0.6149248 0.4833595
vt 0.6389529 0.4841346
vt 0.6389529 0.4841346
vt 0.6149248 0.4833595
vt 0.6389529 0.4841346
vt 0.6389529 0.4841346
vt 0.6389529 0.4841346
vt 0.6389529 0.4841346
vt 0.6389529 0.4841346
vt 0.6389529 0.4841346
vt 0.6389529 0.4841346
vt 0.6149248 0.4833595
vt 0.6149248 0.4833595
vt 0.6149248 0.4833595
vt 0.6149248 0.4833595
vt 0.6149248 0.4833595
vt 0.6389529 0.4841346
vt 0.6389529 0.4841346
vt 0.6149248 0.4833595
vt 0.6389529 0.4841346
vt 0.6389529 0.4841346
vt 0.6389529 0.4841346
vt 0.6149248 0.4833595
vt 0.6389529 0.4841346
vt 0.6389529 0.4841346
vt 0.6149248 0.4833595
vt 0.6389529 0.4841346
vt 0.6389529 0.4841346
vt 0.6389529 0.4841346
vt 0.6389529 0.4841346
vt 0.6149248 0.4833595
vt 0.6149248 0.4833595
vt 0.6149248 0.4833595
vt 0.6149248 0.4833595
vt 0.6149248 0.4833595
vt 0.6149248 0.4833595
vt 0.6149248 0.4833595
vt 0.6149248 0.4833595
vt 0.6149248 0.4833595
vt 0.6149248 0.4833595
vt 0.6149248 0.4833595
vt 0.6389529 0.4841346
vt 0.6389529 0.4841346
vt 0.6389529 0.4841346
vt 0.6389529 0.4841346
vt 0.6389529 0.4841346
vt 0.6389529 0.4841346
vt 0.6389529 0.4841346
vt 0.6389529 0.4841346
vt 0.6389529 0.4841346
vt 0.6389529 0.4841346
vt 0.6389529 0.4841346
vt 0.6389529 0.4841346
vt 0.6389529 0.4841346
vt 0.6389529 0.4841346
vt 0.6149248 0.4833595
vt 0.6149248 0.4833595
vt 0.6149248 0.4833595
vt 0.6149248 0.4833595
vt 0.6149248 0.4833595
vt 0.6389529 0.4841346
vt 0.6389529 0.4841346
vt 0.6149248 0.4833595
vt 0.6389529 0.4841346
vt 0.6149248 0.4833595
vt 0.6389529 0.4841346
vt 0.6149248 0.4833595
vt 0.6389529 0.4841346
vt 0.6389529 0.4841346
vt 0.6149248 0.4833595
vt 0.6389529 0.4841346
vt 0.6389529 0.4841346
vt 0.6389529 0.4841346
vt 0.6389529 0.4841346
vt 0.3261757 0.5780281
vt 0.3261757 0.5780281
vt 0.3261757 0.5780281
vt 0.3261757 0.5780281
vt 0.3261757 0.5780281
vt 0.3261757 0.5780281
vt 0.3261757 0.5780281
vt 0.3261757 0.5780281
vt 0.3261757 0.5780281
vt 0.3261757 0.5780281
vt 0.3261757 0.5780281
vt 0.3261757 0.5780281
vt 0.3261757 0.5780281
vt 0.3261757 0.5780281
vt 0.3261757 0.5780281
vt 0.3261757 0.5780281
vt 0.3261757 0.5780281
vt 0.3261757 0.5780281
vt 0.3261757 0.5780281
vt 0.3261757 0.5780281
vt 0.3261757 0.5780281
vt 0.3261757 0.5780281
vt 0.3261757 0.5780281
vt 0.3261757 0.5780281
vt 0.3261757 0.5780281
vt 0.3261757 0.5780281
vt 0.3261757 0.5780281
vt 0.3261757 0.5780281
vt 0.3261757 0.5780281
vt 0.3261757 0.5780281
vt 0.3261757 0.5780281
vt 0.3261757 0.5780281
vt 0.3261757 0.5780281
vt 0.3261757 0.5780281
vt 0.3261757 0.5780281
vt 0.3261757 0.5780281
vt 0.3261757 0.5780281
vt 0.3261757 0.5780281
vt 0.3261757 0.5780281
vt 0.3261757 0.5780281
vt 0.3261757 0.5780281
vt 0.3261757 0.5780281
vt 0.3261757 0.5780281
vt 0.3261757 0.5780281
vt 0.3261757 0.5780281
vt 0.3261757 0.5780281
vt 0.3261757 0.5780281
vt 0.3261757 0.5780281
vt 0.3261757 0.5780281
vt 0.3261757 0.5780281
vt 0.3261757 0.5780281
vt 0.3261757 0.5780281
vt 0.3261757 0.5780281
vt 0.3261757 0.5780281
vt 0.3261757 0.5780281
vt 0.3261757 0.5780281
vt 0.3261757 0.5780281
vt 0.3261757 0.5780281
vt 0.3261757 0.5780281
vt 0.3261757 0.5780281
vt 0.3261757 0.5780281
vt 0.3261757 0.5780281
vt 0.3261757 0.5780281
vt 0.3261757 0.5780281
vt 0.3261757 0.5780281
vt 0.3261757 0.5780281
vt 0.3261757 0.5780281
vt 0.3261757 0.5780281
vt 0.3261757 0.5780281
vt 0.3261757 0.5780281
vt 0.3261757 0.5780281
vt 0.3261757 0.5780281
vt 0.3261757 0.5780281
vt 0.3261757 0.5780281
vt 0.3261757 0.5780281
vt 0.3261757 0.5780281
vt 0.3261757 0.5780281
vt 0.3261757 0.5780281
vt 0.3261757 0.5780281
vt 0.3261757 0.5780281
vt 0.3261757 0.5780281
vt 0.3261757 0.5780281
vt 0.3261757 0.5780281
vt 0.3261757 0.5780281
vt 0.3261757 0.5780281
vt 0.3261757 0.5780281
vt 0.3261757 0.5780281
vt 0.3261757 0.5780281
vt 0.3764998 0.1501078
vt 0.3764998 0.1501078
vt 0.3764998 0.1501078
vt 0.3764998 0.1501078
vt 0.3764998 0.1501078
vt 0.3764998 0.1501078
vt 0.3764998 0.1501078
vt 0.3764998 0.1501078
vt 0.3764998 0.1501078
vt 0.3764998 0.1501078
vt 0.3764998 0.1501078
vt 0.3764998 0.1501078
vt 0.3764998 0.1501078
vt 0.3764998 0.1501078
vt 0.3764998 0.1501078
vt 0.3764998 0.1501078
vt 0.3764998 0.1501078
vt 0.3764998 0.1501078
vt 0.3764998 0.1501078
vt 0.3764998 0.1501078
vt 0.3764998 0.1501078
vt 0.3764998 0.1501078
vt 0.3764998 0.1501078
vt 0.3764998 0.1501078
vt 0.3261757 0.5780281
vt 0.3261757 0.5780281
vt 0.3261757 0.5780281
vt 0.3261757 0.5780281
vt 0.3261757 0.5780281
vt 0.3261757 0.5780281
vt 0.3261757 0.5780281
vt 0.3261757 0.5780281
vt 0.3261757 0.5780281
vt 0.3261757 0.5780281
vt 0.3261757 0.5780281
vt 0.3261757 0.5780281
vt 0.3261757 0.5780281
vt 0.3261757 0.5780281
vt 0.3261757 0.5780281
vt 0.3261757 0.5780281
vt 0.3261757 0.5780281
vt 0.3261757 0.5780281
vt 0.3261757 0.5780281
vt 0.3261757 0.5780281
vt 0.3261757 0.5780281
vt 0.3261757 0.5780281
vt 0.3261757 0.5780281
vt 0.3261757 0.5780281
vt 0.3261757 0.5780281
vt 0.3261757 0.5780281
vt 0.3261757 0.5780281
vt 0.3261757 0.5780281
vt 0.3261757 0.5780281
vt 0.3261757 0.5780281
vt 0.3261757 0.5780281
vt 0.3261757 0.5780281
vt 0.3261757 0.5780281
vt 0.3261757 0.5780281
vt 0.3261757 0.5780281
vt 0.3261757 0.5780281
vt 0.3261757 0.5780281
vt 0.3261757 0.5780281
vt 0.3261757 0.5780281
vt 0.3261757 0.5780281
vt 0.3261757 0.5780281
vt 0.3261757 0.5780281
vt 0.3261757 0.5780281
vt 0.3261757 0.5780281
vt 0.3261757 0.5780281
vt 0.3261757 0.5780281
vt 0.3261757 0.5780281
vt 0.3261757 0.5780281
vt 0.3261757 0.5780281
vt 0.3261757 0.5780281
vt 0.3261757 0.5780281
vt 0.3261757 0.5780281
vt 0.3261757 0.5780281
vt 0.3261757 0.5780281
vt 0.3261757 0.5780281
vt 0.3261757 0.5780281
vt 0.3261757 0.5780281
vt 0.3261757 0.5780281
vt 0.3261757 0.5780281
vt 0.3261757 0.5780281
vt 0.3261757 0.5780281
vt 0.3261757 0.5780281
vt 0.3261757 0.5780281
vt 0.3261757 0.5780281
vt 0.3261757 0.5780281
vt 0.3261757 0.5780281
vt 0.3261757 0.5780281
vt 0.3261757 0.5780281
vt 0.3261757 0.5780281
vt 0.3261757 0.5780281
vt 0.3261757 0.5780281
vt 0.3261757 0.5780281
vt 0.3261757 0.5780281
vt 0.3261757 0.5780281
vt 0.3261757 0.5780281
vt 0.3261757 0.5780281
vt 0.3261757 0.5780281
vt 0.3261757 0.5780281
vt 0.3261757 0.5780281
vt 0.3261757 0.5780281
vt 0.3261757 0.5780281
vt 0.3261757 0.5780281
vt 0.3261757 0.5780281
vt 0.3261757 0.5780281
vt 0.3261757 0.5780281
vt 0.3261757 0.5780281
vt 0.3261757 0.5780281
vt 0.3261757 0.5780281
vt 0.3764998 0.1501078
vt 0.3764998 0.1501078
vt 0.3764998 0.1501078
vt 0.3764998 0.1501078
vt 0.3764998 0.1501078
vt 0.3764998 0.1501078
vt 0.3764998 0.1501078
vt 0.3764998 0.1501078
vt 0.3764998 0.1501078
vt 0.3764998 0.1501078
vt 0.3764998 0.1501078
vt 0.3764998 0.1501078
vt 0.3764998 0.1501078
vt 0.3764998 0.1501078
vt 0.3764998 0.1501078
vt 0.3764998 0.1501078
vt 0.3764998 0.1501078
vt 0.3764998 0.1501078
vt 0.3764998 0.1501078
vt 0.3764998 0.1501078
vt 0.3764998 0.1501078
vt 0.3764998 0.1501078
vt 0.3764998 0.1501078
vt 0.3764998 0.1501078
vn -0.6114741 0.3265484 0.7207396
vn -0.6114741 0.3265484 0.7207396
vn -0.6114741 0.3265484 0.7207396
vn -0.6114741 0.3265484 0.7207396
vn -0.2930346 -0.2329434 0.9272907
vn -0.2930346 -0.2329434 0.9272907
vn -0.2930346 -0.2329434 0.9272907
vn -0.2930346 -0.2329434 0.9272907
vn 0.510368 0.8473421 0.1467508
vn 0.510368 0.8473421 0.1467508
vn 0.510368 0.8473421 0.1467508
vn 0.510368 0.8473421 0.1467508
vn -0.9571434 0.09017876 -0.2752168
vn -0.9571434 0.09017876 -0.2752168
vn -0.9571434 0.09017876 -0.2752168
vn -0.9571434 0.09017876 -0.2752168
vn 0.01210909 0.4687606 -0.8832422
vn 0.01210909 0.4687606 -0.8832422
vn 0.01210909 0.4687606 -0.8832422
vn 0.01210909 0.4687606 -0.8832422
vn -0.4588858 0.4687607 0.7547764
vn -0.4588858 0.4687607 0.7547764
vn -0.4588858 0.4687607 0.7547764
vn -0.4588858 0.4687607 0.7547764
vn 0.4616121 -0.1208019 -0.878818
vn 0.4616121 -0.1208019 -0.878818
vn 0.4616121 -0.1208019 -0.878818
vn 0.4616121 -0.1208019 -0.878818
vn -0.7178796 -0.6087482 -0.3377491
vn -0.7178796 -0.6087482 -0.3377491
vn -0.7178796 -0.6087482 -0.3377491
vn -0.7178796 -0.6087482 -0.3377491
vn 0.8864569 0.2550038 0.3862218
vn 0.8864569 0.2550038 0.3862218
vn 0.8864569 0.2550038 0.3862218
vn 0.8864569 0.2550038 0.3862218
vn -0.6581014 -0.5091071 -0.5547184
vn -0.6581014 -0.5091071 -0.5547184
vn -0.6581014 -0.5091071 -0.5547184
vn -0.6581014 -0.5091071 -0.5547184
vn 0.4872133 0.799506 0.3513025
vn 0.4872133 0.799506 0.3513025
vn 0.4872133 0.799506 0.3513025
vn 0.4872133 0.799506 0.3513025
vn -0.8843928 0.03394021 -0.4655077
vn -0.8843928 0.03394021 -0.4655077
vn -0.8843928 0.03394021 -0.4655077
vn -0.8843928 0.03394021 -0.4655077
vn 0.214295 0.5068974 -0.8349447
vn 0.214295 0.5068974 -0.8349447
vn 0.214295 0.5068974 -0.8349447
vn 0.214295 0.5068974 -0.8349447
vn 0.2916976 0.6690648 -0.6835676
vn 0.2916976 0.6690648 -0.6835676
vn 0.2916976 0.6690648 -0.6835676
vn 0.2916976 0.6690648 -0.6835676
vn 0.7495014 0.3173113 0.5810002
vn 0.7495014 0.3173113 0.5810002
vn 0.7495014 0.3173113 0.5810002
vn 0.7495014 0.3173113 0.5810002
vn -0.513775 -0.2519414 0.820098
vn -0.513775 -0.2519414 0.820098
vn -0.513775 -0.2519414 0.820098
vn -0.513775 -0.2519414 0.820098
vn 0.6051763 0.06014559 -0.7938162
vn 0.6051763 0.06014559 -0.7938162
vn 0.6051763 0.06014559 -0.7938162
vn 0.6051763 0.06014559 -0.7938162
vn -0.4269445 0.895906 -0.1227632
vn -0.4269445 0.895906 -0.1227632
vn -0.4269445 0.895906 -0.1227632
vn -0.4269445 0.895906 -0.1227632
vn -0.7688497 0.3321944 0.5463672
vn -0.7688497 0.3321944 0.5463672
vn -0.7688497 0.3321944 0.5463672
vn -0.7688497 0.3321944 0.5463672
vn 0.2917002 0.8282848 0.4783881
vn 0.2917002 0.8282848 0.4783881
vn 0.2917002 0.8282848 0.4783881
vn 0.2917002 0.8282848 0.4783881
vn -0.7688509 0.1729742 -0.6155877
vn -0.7688509 0.1729742 -0.6155877
vn -0.7688509 0.1729742 -0.6155877
vn -0.7688509 0.1729742 -0.6155877
vn 0.4269445 -0.895906 0.1227636
vn 0.4269445 -0.895906 0.1227636
vn 0.4269445 -0.895906 0.1227636
vn 0.4269445 -0.895906 0.1227636
vn 0.8008366 0.3806321 -0.4623635
vn 0.8008366 0.3806321 -0.4623635
vn 0.8008366 0.3806321 -0.4623635
vn 0.8008366 0.3806321 -0.4623635
vn 0 0.1021327 0.9947708
vn 0 0.1021327 0.9947708
vn 0 0.1021327 0.9947708
vn 0 0.1021327 0.9947708
vn -0.7701461 -0.4573478 -0.4446437
vn -0.7701461 -0.4573478 -0.4446437
vn -0.7701461 -0.4573478 -0.4446437
vn -0.7701461 -0.4573478 -0.4446437
vn -0.8523282 -0.1771505 -0.4920917
vn -0.8523282 -0.1771505 -0.4920917
vn -0.8523282 -0.1771505 -0.4920917
vn -0.8523282 -0.1771505 -0.4920917
vn 0 0 1
vn 0 0 1
vn 0 0 1
vn 0 0 1
vn 0.8523279 0.1771506 -0.4920923
vn 0.8523279 0.1771506 -0.4920923
vn 0.8523279 0.1771506 -0.4920923
vn 0.8523279 0.1771506 -0.4920923
vn -0.8119595 0.5289698 0.2468047
vn -0.8119595 0.5289698 0.2468047
vn -0.8119595 0.5289698 0.2468047
vn 0.1033592 0.6695031 0.7355831
vn 0.1033592 0.6695031 0.7355831
vn 0.1033592 0.6695031 0.7355831
vn 0.1033592 0.6695031 0.7355831
vn -0.3499531 0.7531978 0.5569794
vn -0.3499531 0.7531978 0.5569794
vn -0.3499531 0.7531978 0.5569794
vn -0.3499531 0.7531978 0.5569794
vn -0.4579603 0.8865344 0.06579616
vn -0.4579603 0.8865344 0.06579616
vn -0.4579603 0.8865344 0.06579616
vn -0.7283248 0.4891796 0.4798398
vn -0.7283248 0.4891796 0.4798398
vn -0.7283248 0.4891796 0.4798398
vn -0.7283248 0.4891796 0.4798398
vn -0.6058182 0.6011158 0.5211949
vn -0.6058182 0.6011158 0.5211949
vn -0.6058182 0.6011158 0.5211949
vn -0.6058182 0.6011158 0.5211949
vn -0.6661609 0.7005476 -0.2558569
vn -0.6661609 0.7005476 -0.2558569
vn -0.6661609 0.7005476 -0.2558569
vn -0.4219325 0.5336774 -0.7329129
vn -0.4219325 0.5336774 -0.7329129
vn -0.4219325 0.5336774 -0.7329129
vn -0.4219325 0.5336774 -0.7329129
vn -0.4909838 0.7128612 -0.5007631
vn -0.4909838 0.7128612 -0.5007631
vn -0.4909838 0.7128612 -0.5007631
vn -0.4909838 0.7128612 -0.5007631
vn 0.3780535 0.7588641 -0.5302837
vn 0.3780535 0.7588641 -0.5302837
vn 0.3780535 0.7588641 -0.5302837
vn 0.3934796 0.6091581 -0.6885493
vn 0.3934796 0.6091581 -0.6885493
vn 0.3934796 0.6091581 -0.6885493
vn 0.3934796 0.6091581 -0.6885493
vn 0.2867553 0.8372392 -0.46562
vn 0.2867553 0.8372392 -0.46562
vn 0.2867553 0.8372392 -0.46562
vn 0.2867553 0.8372392 -0.46562
vn 0.3763814 0.6381469 0.6716439
vn 0.3763814 0.6381469 0.6716439
vn 0.3763814 0.6381469 0.6716439
vn 0.8088816 0.5622484 0.1720095
vn 0.8088816 0.5622484 0.1720095
vn 0.8088816 0.5622484 0.1720095
vn 0.8088816 0.5622484 0.1720095
vn 0.4527009 0.8165208 0.3582675
vn 0.4527009 0.8165208 0.3582675
vn 0.4527009 0.8165208 0.3582675
vn 0.4527009 0.8165208 0.3582675
vn 0.7226009 0.6697876 -0.1709754
vn 0.7226009 0.6697876 -0.1709754
vn 0.7226009 0.6697876 -0.1709754
vn -0.04671305 0.7935962 -0.6066489
vn -0.04671305 0.7935962 -0.6066489
vn -0.04671305 0.7935962 -0.6066489
vn -0.04671305 0.7935962 -0.6066489
vn 0.3017829 0.8561677 -0.419409
vn 0.3017829 0.8561677 -0.419409
vn 0.3017829 0.8561677 -0.419409
vn 0.3017829 0.8561677 -0.419409
vn 0.3381634 0.9406973 -0.02709369
vn 0.3381634 0.9406973 -0.02709369
vn 0.3381634 0.9406973 -0.02709369
vn 0.6738847 0.6301906 -0.3856672
vn 0.6738847 0.6301906 -0.3856672
vn 0.6738847 0.6301906 -0.3856672
vn 0.6738847 0.6301906 -0.3856672
vn 0.5395194 0.736408 -0.4081937
vn 0.5395194 0.736408 -0.4081937
vn 0.5395194 0.736408 -0.4081937
vn 0.5395194 0.736408 -0.4081937
vn 0.5233364 0.8177275 0.2396678
vn 0.5233364 0.8177275 0.2396678
vn 0.5233364 0.8177275 0.2396678
vn 0.3275606 0.6743374 0.6617954
vn 0.3275606 0.6743374 0.6617954
vn 0.3275606 0.6743374 0.6617954
vn 0.3275606 0.6743374 0.6617954
vn 0.3676561 0.8269929 0.4253372
vn 0.3676561 0.8269929 0.4253372
vn 0.3676561 0.8269929 0.4253372
vn 0.3676561 0.8269929 0.4253372
vn -0.3215692 0.8601248 0.3959527
vn -0.3215692 0.8601248 0.3959527
vn -0.3215692 0.8601248 0.3959527
vn -0.3676005 0.7434287 0.5587339
vn -0.3676005 0.7434287 0.5587339
vn -0.3676005 0.7434287 0.5587339
vn -0.3676005 0.7434287 0.5587339
vn -0.2372651 0.9114634 0.3360651
vn -0.2372651 0.9114634 0.3360651
vn -0.2372651 0.9114634 0.3360651
vn -0.2372651 0.9114634 0.3360651
vn -0.2773992 0.7680762 -0.5771557
vn -0.2773992 0.7680762 -0.5771557
vn -0.2773992 0.7680762 -0.5771557
vn -0.6865682 0.7013385 -0.1916991
vn -0.6865682 0.7013385 -0.1916991
vn -0.6865682 0.7013385 -0.1916991
vn -0.6865682 0.7013385 -0.1916991
vn -0.3264736 0.898491 -0.2934775
vn -0.3264736 0.898491 -0.2934775
vn -0.3264736 0.898491 -0.2934775
vn -0.3264736 0.898491 -0.2934775
vn -0.1880515 0.2245676 -0.9561412
vn -0.1880515 0.2245676 -0.9561412
vn -0.1880515 0.2245676 -0.9561412
vn -0.1880515 0.2245676 -0.9561412
vn -0.7108448 -0.1146079 -0.6939486
vn -0.7108448 -0.1146079 -0.6939486
vn -0.7108448 -0.1146079 -0.6939486
vn -0.7108448 -0.1146079 -0.6939486
vn -0.0207431 0.986545 0.1621687
vn -0.0207431 0.986545 0.1621687
vn -0.0207431 0.986545 0.1621687
vn -0.0207431 0.986545 0.1621687
vn 0.681885 -0.3376431 -0.6488682
vn 0.681885 -0.3376431 -0.6488682
vn 0.681885 -0.3376431 -0.6488682
vn 0.681885 -0.3376431 -0.6488682
vn 0.8899696 0.2316408 0.3928059
vn 0.8899696 0.2316408 0.3928059
vn 0.8899696 0.2316408 0.3928059
vn 0.8899696 0.2316408 0.3928059
vn -0.2288271 0.4172602 -0.8795068
vn -0.2288271 0.4172602 -0.8795068
vn -0.2288271 0.4172602 -0.8795068
vn -0.2288271 0.4172602 -0.8795068
vn 0.4613829 -0.1302351 0.8775902
vn 0.4613829 -0.1302351 0.8775902
vn 0.4613829 -0.1302351 0.8775902
vn 0.4613829 -0.1302351 0.8775902
vn 0.3588889 -0.8914658 -0.2765637
vn 0.3588889 -0.8914658 -0.2765637
vn 0.3588889 -0.8914658 -0.2765637
vn 0.3588889 -0.8914658 -0.2765637
vn -0.6083507 0.6466227 0.4602049
vn -0.6083507 0.6466227 0.4602049
vn -0.6083507 0.6466227 0.4602049
vn -0.6083507 0.6466227 0.4602049
vn 0.5463907 -0.8272828 -0.1306147
vn 0.5463907 -0.8272828 -0.1306147
vn 0.5463907 -0.8272828 -0.1306147
vn 0.5463907 -0.8272828 -0.1306147
vn -0.1945808 0.9799802 0.04215557
vn -0.1945808 0.9799802 0.04215557
vn -0.1945808 0.9799802 0.04215557
vn -0.1945808 0.9799802 0.04215557
vn 0.7823286 -0.4031142 -0.4748272
vn 0.7823286 -0.4031142 -0.4748272
vn 0.7823286 -0.4031142 -0.4748272
vn 0.7823286 -0.4031142 -0.4748272
vn 0.7757995 0.3522981 0.5234703
vn 0.7757995 0.3522981 0.5234703
vn 0.7757995 0.3522981 0.5234703
vn 0.7757995 0.3522981 0.5234703
vn 0.680891 0.560756 0.4711054
vn 0.680891 0.560756 0.4711054
vn 0.680891 0.560756 0.4711054
vn 0.680891 0.560756 0.4711054
vn -0.6816463 0.6945317 0.2301825
vn -0.6816463 0.6945317 0.2301825
vn -0.6816463 0.6945317 0.2301825
vn -0.6816463 0.6945317 0.2301825
vn -0.5333871 -0.237978 -0.8117048
vn -0.5333871 -0.237978 -0.8117048
vn -0.5333871 -0.237978 -0.8117048
vn -0.5333871 -0.237978 -0.8117048
vn 0.3981324 0.1052276 0.9112726
vn 0.3981324 0.1052276 0.9112726
vn 0.3981324 0.1052276 0.9112726
vn 0.3981324 0.1052276 0.9112726
vn 0.6317943 0.6200967 -0.465098
vn 0.6317943 0.6200967 -0.465098
vn 0.6317943 0.6200967 -0.465098
vn 0.6317943 0.6200967 -0.465098
vn 0.02520046 0.1322609 -0.9908946
vn 0.02520046 0.1322609 -0.9908946
vn 0.02520046 0.1322609 -0.9908946
vn 0.02520046 0.1322609 -0.9908946
vn -0.1998921 0.9608302 -0.1919594
vn -0.1998921 0.9608302 -0.1919594
vn -0.1998921 0.9608302 -0.1919594
vn -0.1998921 0.9608302 -0.1919594
vn 0.9059826 -0.2678126 -0.3278292
vn 0.9059826 -0.2678126 -0.3278292
vn 0.9059826 -0.2678126 -0.3278292
vn 0.9059826 -0.2678126 -0.3278292
vn -0.6317949 -0.6200974 0.4650963
vn -0.6317949 -0.6200974 0.4650963
vn -0.6317949 -0.6200974 0.4650963
vn -0.6317949 -0.6200974 0.4650963
vn 0.05687926 0.481216 0.8747547
vn 0.05687926 0.481216 0.8747547
vn 0.05687926 0.481216 0.8747547
vn 0.05687926 0.481216 0.8747547
vn -0.8412253 0.1856472 -0.507814
vn -0.8412253 0.1856472 -0.507814
vn -0.8412253 0.1856472 -0.507814
vn -0.8412253 0.1856472 -0.507814
vn 0.6911485 -0.6068138 -0.392544
vn 0.6911485 -0.6068138 -0.392544
vn 0.6911485 -0.6068138 -0.392544
vn 0.6911485 -0.6068138 -0.392544
vn 0.8513336 -0.1771505 -0.4938105
vn 0.8513336 -0.1771505 -0.4938105
vn 0.8513336 -0.1771505 -0.4938105
vn 0.8513336 -0.1771505 -0.4938105
vn -0.8670326 0 -0.4982514
vn -0.8670326 0 -0.4982514
vn -0.8670326 0 -0.4982514
vn -0.8670326 0 -0.4982514
vn 0.001985988 0.1771506 0.9841817
vn 0.001985988 0.1771506 0.9841817
vn 0.001985988 0.1771506 0.9841817
vn 0.001985988 0.1771506 0.9841817
vn 0.9305909 0.3265486 0.165429
vn 0.9305909 0.3265486 0.165429
vn 0.9305909 0.3265486 0.165429
vn 0.9305909 0.3265486 0.165429
vn 0.9487201 -0.2329433 -0.2136997
vn 0.9487201 -0.2329433 -0.2136997
vn 0.9487201 -0.2329433 -0.2136997
vn 0.9487201 -0.2329433 -0.2136997
vn -0.1301723 0.8473424 -0.5148457
vn -0.1301723 0.8473424 -0.5148457
vn -0.1301723 0.8473424 -0.5148457
vn -0.1301723 0.8473424 -0.5148457
vn 0.2441249 0.09017868 0.9655417
vn 0.2441249 0.09017868 0.9655417
vn 0.2441249 0.09017868 0.9655417
vn 0.2441249 0.09017868 0.9655417
vn -0.769219 0.4687605 0.4342415
vn -0.769219 0.4687605 0.4342415
vn -0.769219 0.4687605 0.4342415
vn -0.769219 0.4687605 0.4342415
vn 0.883172 0.4687605 0.01645547
vn 0.883172 0.4687605 0.01645547
vn 0.883172 0.4687605 0.01645547
vn 0.883172 0.4687605 0.01645547
vn -0.9917168 -0.120802 0.04364272
vn -0.9917168 -0.120802 0.04364272
vn -0.9917168 -0.120802 0.04364272
vn -0.9917168 -0.120802 0.04364272
vn 0.06963016 -0.6087482 0.790302
vn 0.06963016 -0.6087482 0.790302
vn 0.06963016 -0.6087482 0.790302
vn 0.06963016 -0.6087482 0.790302
vn -0.1126268 0.2550036 -0.9603585
vn -0.1126268 0.2550036 -0.9603585
vn -0.1126268 0.2550036 -0.9603585
vn -0.1126268 0.2550036 -0.9603585
vn -0.1479301 -0.5091072 0.8478953
vn -0.1479301 -0.5091072 0.8478953
vn -0.1479301 -0.5091072 0.8478953
vn -0.1479301 -0.5091072 0.8478953
vn 0.05821867 0.799506 -0.59783
vn 0.05821867 0.799506 -0.59783
vn 0.05821867 0.799506 -0.59783
vn 0.05821867 0.799506 -0.59783
vn 0.04308439 0.03393983 0.9984947
vn 0.04308439 0.03393983 0.9984947
vn 0.04308439 0.03393983 0.9984947
vn 0.04308439 0.03393983 0.9984947
vn -0.8292885 0.5068971 0.2352357
vn -0.8292885 0.5068971 0.2352357
vn -0.8292885 0.5068971 0.2352357
vn -0.8292885 0.5068971 0.2352357
vn -0.7374699 0.669065 0.0921424
vn -0.7374699 0.669065 0.0921424
vn -0.7374699 0.669065 0.0921424
vn -0.7374699 0.669065 0.0921424
vn 0.1246181 0.317312 -0.9400976
vn 0.1246181 0.317312 -0.9400976
vn 0.1246181 0.317312 -0.9400976
vn 0.1246181 0.317312 -0.9400976
vn 0.9672461 -0.2519417 0.03099082
vn 0.9672461 -0.2519417 0.03099082
vn 0.9672461 -0.2519417 0.03099082
vn 0.9672461 -0.2519417 0.03099082
vn -0.9905583 0.06014564 -0.1231936
vn -0.9905583 0.06014564 -0.1231936
vn -0.9905583 0.06014564 -0.1231936
vn -0.9905583 0.06014564 -0.1231936
vn 0.1088957 0.8959057 0.4306909
vn 0.1088957 0.8959057 0.4306909
vn 0.1088957 0.8959057 0.4306909
vn 0.1088957 0.8959057 0.4306909
vn 0.8591706 0.3321941 0.3891952
vn 0.8591706 0.3321941 0.3891952
vn 0.8591706 0.3321941 0.3891952
vn 0.8591706 0.3321941 0.3891952
vn 0.26646 0.828285 -0.4928925
vn 0.26646 0.828285 -0.4928925
vn 0.26646 0.828285 -0.4928925
vn 0.26646 0.828285 -0.4928925
vn -0.1447595 0.1729741 0.9742303
vn -0.1447595 0.1729741 0.9742303
vn -0.1447595 0.1729741 0.9742303
vn -0.1447595 0.1729741 0.9742303
vn -0.1088945 -0.895906 -0.4306906
vn -0.1088945 -0.895906 -0.4306906
vn -0.1088945 -0.895906 -0.4306906
vn -0.1088945 -0.895906 -0.4306906
vn -0.761467 0.4800714 -0.4355451
vn -0.761467 0.4800714 -0.4355451
vn -0.761467 0.4800714 -0.4355451
vn -0.761467 0.4800714 -0.4355451
vn 0.8464741 0.2004008 -0.4932761
vn 0.8464741 0.2004008 -0.4932761
vn 0.8464741 0.2004008 -0.4932761
vn 0.8464741 0.2004008 -0.4932761
vn 0.003284547 -0.5808941 0.8139726
vn 0.003284547 -0.5808941 0.8139726
vn 0.003284547 -0.5808941 0.8139726
vn 0.003284547 -0.5808941 0.8139726
vn 0.003971044 -0.1771505 0.9841757
vn 0.003971044 -0.1771505 0.9841757
vn 0.003971044 -0.1771505 0.9841757
vn 0.003971044 -0.1771505 0.9841757
vn 0.8640007 0 -0.5034906
vn 0.8640007 0 -0.5034906
vn 0.8640007 0 -0.5034906
vn 0.8640007 0 -0.5034906
vn -0.8543069 0.1771506 -0.4886485
vn -0.8543069 0.1771506 -0.4886485
vn -0.8543069 0.1771506 -0.4886485
vn -0.8543069 0.1771506 -0.4886485
g FlowersYellow_0
f 3/3/3 2/2/2 1/1/1
f 4/4/4 3/3/3 1/1/1
f 7/7/7 6/6/6 5/5/5
f 8/8/8 7/7/7 5/5/5
f 11/11/11 10/10/10 9/9/9
f 12/12/12 11/11/11 9/9/9
f 15/15/15 14/14/14 13/13/13
f 16/16/16 15/15/15 13/13/13
f 19/19/19 18/18/18 17/17/17
f 20/20/20 19/19/19 17/17/17
f 23/23/23 22/22/22 21/21/21
f 24/24/24 23/23/23 21/21/21
f 27/27/27 26/26/26 25/25/25
f 28/28/28 27/27/27 25/25/25
f 31/31/31 30/30/30 29/29/29
f 32/32/32 31/31/31 29/29/29
f 35/35/35 34/34/34 33/33/33
f 36/36/36 35/35/35 33/33/33
f 39/39/39 38/38/38 37/37/37
f 40/40/40 39/39/39 37/37/37
f 43/43/43 42/42/42 41/41/41
f 44/44/44 43/43/43 41/41/41
f 47/47/47 46/46/46 45/45/45
f 48/48/48 47/47/47 45/45/45
f 51/51/51 50/50/50 49/49/49
f 52/52/52 51/51/51 49/49/49
f 55/55/55 54/54/54 53/53/53
f 56/56/56 55/55/55 53/53/53
f 59/59/59 58/58/58 57/57/57
f 60/60/60 59/59/59 57/57/57
f 63/63/63 62/62/62 61/61/61
f 64/64/64 63/63/63 61/61/61
f 67/67/67 66/66/66 65/65/65
f 68/68/68 67/67/67 65/65/65
f 71/71/71 70/70/70 69/69/69
f 72/72/72 71/71/71 69/69/69
f 75/75/75 74/74/74 73/73/73
f 76/76/76 75/75/75 73/73/73
f 79/79/79 78/78/78 77/77/77
f 80/80/80 79/79/79 77/77/77
f 83/83/83 82/82/82 81/81/81
f 84/84/84 83/83/83 81/81/81
f 87/87/87 86/86/86 85/85/85
f 88/88/88 87/87/87 85/85/85
f 91/91/91 90/90/90 89/89/89
f 92/92/92 91/91/91 89/89/89
f 95/95/95 94/94/94 93/93/93
f 96/96/96 95/95/95 93/93/93
f 99/99/99 98/98/98 97/97/97
f 100/100/100 99/99/99 97/97/97
f 103/103/103 102/102/102 101/101/101
f 104/104/104 103/103/103 101/101/101
f 107/107/107 106/106/106 105/105/105
f 108/108/108 107/107/107 105/105/105
f 111/111/111 110/110/110 109/109/109
f 112/112/112 111/111/111 109/109/109
f 115/115/115 114/114/114 113/113/113
f 118/118/118 117/117/117 116/116/116
f 119/119/119 118/118/118 116/116/116
f 122/122/122 121/121/121 120/120/120
f 123/123/123 122/122/122 120/120/120
f 126/126/126 125/125/125 124/124/124
f 129/129/129 128/128/128 127/127/127
f 130/130/130 129/129/129 127/127/127
f 133/133/133 132/132/132 131/131/131
f 134/134/134 133/133/133 131/131/131
f 137/137/137 136/136/136 135/135/135
f 140/140/140 139/139/139 138/138/138
f 141/141/141 140/140/140 138/138/138
f 144/144/144 143/143/143 142/142/142
f 145/145/145 144/144/144 142/142/142
f 148/148/148 147/147/147 146/146/146
f 151/151/151 150/150/150 149/149/149
f 152/152/152 151/151/151 149/149/149
f 155/155/155 154/154/154 153/153/153
f 156/156/156 155/155/155 153/153/153
f 159/159/159 158/158/158 157/157/157
f 162/162/162 161/161/161 160/160/160
f 163/163/163 162/162/162 160/160/160
f 166/166/166 165/165/165 164/164/164
f 167/167/167 166/166/166 164/164/164
f 170/170/170 169/169/169 168/168/168
f 173/173/173 172/172/172 171/171/171
f 174/174/174 173/173/173 171/171/171
f 177/177/177 176/176/176 175/175/175
f 178/178/178 177/177/177 175/175/175
f 181/181/181 180/180/180 179/179/179
f 184/184/184 183/183/183 182/182/182
f 185/185/185 184/184/184 182/182/182
f 188/188/188 187/187/187 186/186/186
f 189/189/189 188/188/188 186/186/186
f 192/192/192 191/191/191 190/190/190
f 195/195/195 194/194/194 193/193/193
f 196/196/196 195/195/195 193/193/193
f 199/199/199 198/198/198 197/197/197
f 200/200/200 199/199/199 197/197/197
f 203/203/203 202/202/202 201/201/201
f 206/206/206 205/205/205 204/204/204
f 207/207/207 206/206/206 204/204/204
f 210/210/210 209/209/209 208/208/208
f 211/211/211 210/210/210 208/208/208
f 214/214/214 213/213/213 212/212/212
f 217/217/217 216/216/216 215/215/215
f 218/218/218 217/217/217 215/215/215
f 221/221/221 220/220/220 219/219/219
f 222/222/222 221/221/221 219/219/219
f 225/225/225 224/224/224 223/223/223
f 226/226/226 225/225/225 223/223/223
f 229/229/229 228/228/228 227/227/227
f 230/230/230 229/229/229 227/227/227
f 233/233/233 232/232/232 231/231/231
f 234/234/234 233/233/233 231/231/231
f 237/237/237 236/236/236 235/235/235
f 238/238/238 237/237/237 235/235/235
f 241/241/241 240/240/240 239/239/239
f 242/242/242 241/241/241 239/239/239
f 245/245/245 244/244/244 243/243/243
f 246/246/246 245/245/245 243/243/243
f 249/249/249 248/248/248 247/247/247
f 250/250/250 249/249/249 247/247/247
f 253/253/253 252/252/252 251/251/251
f 254/254/254 253/253/253 251/251/251
f 257/257/257 256/256/256 255/255/255
f 258/258/258 257/257/257 255/255/255
f 261/261/261 260/260/260 259/259/259
f 262/262/262 261/261/261 259/259/259
f 265/265/265 264/264/264 263/263/263
f 266/266/266 265/265/265 263/263/263
f 269/269/269 268/268/268 267/267/267
f 270/270/270 269/269/269 267/267/267
f 273/273/273 272/272/272 271/271/271
f 274/274/274 273/273/273 271/271/271
f 277/277/277 276/276/276 275/275/275
f 278/278/278 277/277/277 275/275/275
f 281/281/281 280/280/280 279/279/279
f 282/282/282 281/281/281 279/279/279
f 285/285/285 284/284/284 283/283/283
f 286/286/286 285/285/285 283/283/283
f 289/289/289 288/288/288 287/287/287
f 290/290/290 289/289/289 287/287/287
f 293/293/293 292/292/292 291/291/291
f 294/294/294 293/293/293 291/291/291
f 297/297/297 296/296/296 295/295/295
f 298/298/298 297/297/297 295/295/295
f 301/301/301 300/300/300 299/299/299
f 302/302/302 301/301/301 299/299/299
f 305/305/305 304/304/304 303/303/303
f 306/306/306 305/305/305 303/303/303
f 309/309/309 308/308/308 307/307/307
f 310/310/310 309/309/309 307/307/307
f 313/313/313 312/312/312 311/311/311
f 314/314/314 313/313/313 311/311/311
f 317/317/317 316/316/316 315/315/315
f 318/318/318 317/317/317 315/315/315
f 321/321/321 320/320/320 319/319/319
f 322/322/322 321/321/321 319/319/319
f 325/325/325 324/324/324 323/323/323
f 326/326/326 325/325/325 323/323/323
f 329/329/329 328/328/328 327/327/327
f 330/330/330 329/329/329 327/327/327
f 333/333/333 332/332/332 331/331/331
f 334/334/334 333/333/333 331/331/331
f 337/337/337 336/336/336 335/335/335
f 338/338/338 337/337/337 335/335/335
f 341/341/341 340/340/340 339/339/339
f 342/342/342 341/341/341 339/339/339
f 345/345/345 344/344/344 343/343/343
f 346/346/346 345/345/345 343/343/343
f 349/349/349 348/348/348 347/347/347
f 350/350/350 349/349/349 347/347/347
f 353/353/353 352/352/352 351/351/351
f 354/354/354 353/353/353 351/351/351
f 357/357/357 356/356/356 355/355/355
f 358/358/358 357/357/357 355/355/355
f 361/361/361 360/360/360 359/359/359
f 362/362/362 361/361/361 359/359/359
f 365/365/365 364/364/364 363/363/363
f 366/366/366 365/365/365 363/363/363
f 369/369/369 368/368/368 367/367/367
f 370/370/370 369/369/369 367/367/367
f 373/373/373 372/372/372 371/371/371
f 374/374/374 373/373/373 371/371/371
f 377/377/377 376/376/376 375/375/375
f 378/378/378 377/377/377 375/375/375
f 381/381/381 380/380/380 379/379/379
f 382/382/382 381/381/381 379/379/379
f 385/385/385 384/384/384 383/383/383
f 386/386/386 385/385/385 383/383/383
f 389/389/389 388/388/388 387/387/387
f 390/390/390 389/389/389 387/387/387
f 393/393/393 392/392/392 391/391/391
f 394/394/394 393/393/393 391/391/391
f 397/397/397 396/396/396 395/395/395
f 398/398/398 397/397/397 395/395/395
f 401/401/401 400/400/400 399/399/399
f 402/402/402 401/401/401 399/399/399
f 405/405/405 404/404/404 403/403/403
f 406/406/406 405/405/405 403/403/403
f 409/409/409 408/408/408 407/407/407
f 410/410/410 409/409/409 407/407/407
f 413/413/413 412/412/412 411/411/411
f 414/414/414 413/413/413 411/411/411
f 417/417/417 416/416/416 415/415/415
f 418/418/418 417/417/417 415/415/415
f 421/421/421 420/420/420 419/419/419
f 422/422/422 421/421/421 419/419/419
f 425/425/425 424/424/424 423/423/423
f 426/426/426 425/425/425 423/423/423
f 429/429/429 428/428/428 427/427/427
f 430/430/430 429/429/429 427/427/427
f 433/433/433 432/432/432 431/431/431
f 434/434/434 433/433/433 431/431/431
f 437/437/437 436/436/436 435/435/435
f 438/438/438 437/437/437 435/435/435
f 441/441/441 440/440/440 439/439/439
f 442/442/442 441/441/441 439/439/439
f 445/445/445 444/444/444 443/443/443
f 446/446/446 445/445/445 443/443/443
