g Goldfish
v 0.2348812 -0.0362823 0.5459683
v 0.320438 0.2235347 0.136798
v 0.3508506 -0.3465246 0.129457
v 0.04082668 0.990576 0.1608309
v 0.04082668 0.8625467 -0.2985899
v 0.07180727 0.6375551 -0.6656373
v 0.07180727 0.5428658 0.1194506
v 0.04082668 0.8625467 -0.2985899
v 0.04082668 0.990576 0.1608309
v 1.466274E-05 1.113624 0.3309834
v 1.466274E-05 0.9366987 -0.3533849
v 0.3685912 -0.06577706 -1.011754
v 0.1894808 0.330765 -1.22853
v 0.1894808 -0.00451529 -1.610391
v 0.3729608 0.3411646 -0.4829001
v 0.07180727 0.6375551 -0.6656373
v 0.1894808 0.330765 -1.22853
v 0.3685912 -0.06577706 -1.011754
v 0.320438 0.2235347 0.136798
v 0.07180727 0.5428658 0.1194506
v 0.07180727 0.6375551 -0.6656373
v 0.3729608 0.3411646 -0.4829001
v 1.466274E-05 -0.1836692 0.7259088
v 1.466274E-05 0.3461459 0.6461196
v 0.2348812 -0.0362823 0.5459683
v 0.3508506 -0.3465246 0.129457
v 0.1894808 -0.7215682 0.1194506
v 0.1894808 -0.3499329 0.6346276
v 0.4033732 -0.4745106 -0.4837304
v 0.1894808 -0.7772371 -0.6656373
v 0.1894808 -0.7215682 0.1194506
v 0.3508506 -0.3465246 0.129457
v 0.3685912 -0.06577706 -1.011754
v 0.1894808 -0.5160217 -1.22853
v 0.1894808 -0.7772371 -0.6656373
v 0.4033732 -0.4745106 -0.4837304
v 0.3685912 -0.06577706 -1.011754
v 0.1894808 -0.00451529 -1.610391
v 0.1894808 -0.5160217 -1.22853
v 0.320438 0.2235347 0.136798
v 1.466274E-05 0.3461459 0.6461196
v 0.07180727 0.5428658 0.1194506
v 0.3508506 -0.3465246 0.129457
v 0.1894808 -0.3499329 0.6346276
v 0.2348812 -0.0362823 0.5459683
v 0.1894808 -0.7772371 -0.6656373
v 0.3977802 -0.9857986 0.1366669
v 0.1894808 -0.7215682 0.1194506
v 0.3054066 -0.9857986 0.1366669
v 0.6060357 -1.249985 0.5091763
v 0.4796667 -1.053309 -0.3659694
v 0.1217518 -0.8011826 -0.6842954
v 0.1894808 0.330765 -1.22853
v 1.466274E-05 0.3662899 -1.332789
v 1.466274E-05 -1.466274E-05 -1.75
v 0.1894808 -0.00451529 -1.610391
v 0.1894808 -0.5160217 -1.22853
v 1.466274E-05 -0.5588877 -1.332789
v 1.466274E-05 -0.844267 -0.7177666
v 0.1217518 -0.8011826 -0.6842954
v 0.1894808 -0.7772371 -0.6656373
v 0.07180727 0.6375551 -0.6656373
v 1.466274E-05 0.7015264 -0.7177666
v 1.466274E-05 0.3662899 -1.332789
v 0.1894808 0.330765 -1.22853
v 0.07180727 0.6375551 -0.6656373
v 0.04082668 0.8625467 -0.2985899
v 1.466274E-05 0.9366987 -0.3533849
v 1.466274E-05 0.7015264 -0.7177666
v 0.1894808 -0.00451529 -1.610391
v 1.466274E-05 -1.466274E-05 -1.75
v 1.466274E-05 -0.5588877 -1.332789
v 0.1894808 -0.5160217 -1.22853
v 0.4796667 -1.053309 -0.3659694
v 0.1894808 -0.7772371 -0.6656373
v 0.1217518 -0.8011826 -0.6842954
v 1.466274E-05 0.3461459 0.6461196
v 1.466274E-05 0.5980103 0.1399878
v 0.07180727 0.5428658 0.1194506
v 1.466274E-05 -0.3499329 0.6751339
v 1.466274E-05 -0.1836692 0.7259088
v 0.2348812 -0.0362823 0.5459683
v 0.1894808 -0.3499329 0.6346276
v 0.1894808 -0.7215682 0.1194506
v 0.1397984 -0.7377795 0.1248252
v 0.1894808 -0.3499329 0.6346276
v 0.4796667 -1.053309 -0.3659694
v 0.6060357 -1.249985 0.5091763
v 0.3977802 -0.9857986 0.1366669
v 0.1894808 -0.7772371 -0.6656373
v 0.320438 0.2235347 0.136798
v 0.3729608 0.3411646 -0.4829001
v 0.4033732 -0.4745106 -0.4837304
v 0.3508506 -0.3465246 0.129457
v 0.3729608 0.3411646 -0.4829001
v 0.3685912 -0.06577706 -1.011754
v 0.4033732 -0.4745106 -0.4837304
v 0.1397984 -0.7377795 0.1248252
v 1.466274E-05 -0.783442 0.1399878
v 1.466274E-05 -0.3499329 0.6751339
v 0.1894808 -0.3499329 0.6346276
v 0.1217518 -0.8011826 -0.6842954
v 1.466274E-05 -0.844267 -0.7177666
v 1.466274E-05 -0.783442 0.1399878
v 0.1397984 -0.7377795 0.1248252
v 0.3054066 -0.9857986 0.1366669
v 0.1217518 -0.8011826 -0.6842954
v 0.1397984 -0.7377795 0.1248252
v 0.3977802 -0.9857986 0.1366669
v 0.3054066 -0.9857986 0.1366669
v 0.1397984 -0.7377795 0.1248252
v 0.1894808 -0.7215682 0.1194506
v 0.3054066 -0.9857986 0.1366669
v 0.3977802 -0.9857986 0.1366669
v 0.6060357 -1.249985 0.5091763
v 0.04082668 0.990576 0.1608309
v 0.07180727 0.5428658 0.1194506
v 1.466274E-05 0.5980103 0.1399878
v 1.466274E-05 1.113624 0.3309834
v 1.466274E-05 0.3461459 0.6461196
v 0.320438 0.2235347 0.136798
v 0.2348812 -0.0362823 0.5459683
v -0.2348956 -0.0362823 0.5459683
v -0.3508651 -0.3465246 0.129457
v -0.3204527 0.2235347 0.136798
v -0.04084134 0.990576 0.1608309
v -0.07182193 0.5428658 0.1194506
v -0.07182193 0.6375551 -0.6656373
v -0.04084134 0.8625467 -0.2985899
v -0.04084134 0.8625467 -0.2985899
v 1.466274E-05 0.9366987 -0.3533849
v 1.466274E-05 1.113624 0.3309834
v -0.04084134 0.990576 0.1608309
v -0.3686056 -0.06577706 -1.011754
v -0.1894954 -0.00451529 -1.610391
v -0.1894954 0.330765 -1.22853
v -0.3729753 0.3411646 -0.4829001
v -0.3686056 -0.06577706 -1.011754
v -0.1894954 0.330765 -1.22853
v -0.07182193 0.6375551 -0.6656373
v -0.3204527 0.2235347 0.136798
v -0.3729753 0.3411646 -0.4829001
v -0.07182193 0.6375551 -0.6656373
v -0.07182193 0.5428658 0.1194506
v 1.466274E-05 -0.1836692 0.7259088
v -0.2348956 -0.0362823 0.5459683
v 1.466274E-05 0.3461459 0.6461196
v -0.3508651 -0.3465246 0.129457
v -0.1894954 -0.3499329 0.6346276
v -0.1894954 -0.7215682 0.1194506
v -0.403388 -0.4745106 -0.4837304
v -0.3508651 -0.3465246 0.129457
v -0.1894954 -0.7215682 0.1194506
v -0.1894954 -0.7772371 -0.6656373
v -0.3686056 -0.06577706 -1.011754
v -0.403388 -0.4745106 -0.4837304
v -0.1894954 -0.7772371 -0.6656373
v -0.1894954 -0.5160217 -1.22853
v -0.3686056 -0.06577706 -1.011754
v -0.1894954 -0.5160217 -1.22853
v -0.1894954 -0.00451529 -1.610391
v -0.3204527 0.2235347 0.136798
v -0.07182193 0.5428658 0.1194506
v 1.466274E-05 0.3461459 0.6461196
v -0.3508651 -0.3465246 0.129457
v -0.2348956 -0.0362823 0.5459683
v -0.1894954 -0.3499329 0.6346276
v -0.1894954 -0.7772371 -0.6656373
v -0.1894954 -0.7215682 0.1194506
v -0.3977511 -0.9857986 0.1366669
v -0.3054214 -0.9857986 0.1366669
v -0.1217664 -0.8011826 -0.6842954
v -0.4796813 -1.053309 -0.3659694
v -0.6060505 -1.249985 0.5091763
v -0.1894954 0.330765 -1.22853
v -0.1894954 -0.00451529 -1.610391
v 1.466274E-05 -1.466274E-05 -1.75
v 1.466274E-05 0.3662899 -1.332789
v -0.1894954 -0.5160217 -1.22853
v -0.1217664 -0.8011826 -0.6842954
v 1.466274E-05 -0.844267 -0.7177666
v 1.466274E-05 -0.5588877 -1.332789
v -0.1894954 -0.7772371 -0.6656373
v -0.07182193 0.6375551 -0.6656373
v -0.1894954 0.330765 -1.22853
v 1.466274E-05 0.3662899 -1.332789
v 1.466274E-05 0.7015264 -0.7177666
v -0.07182193 0.6375551 -0.6656373
v 1.466274E-05 0.7015264 -0.7177666
v 1.466274E-05 0.9366987 -0.3533849
v -0.04084134 0.8625467 -0.2985899
v -0.1894954 -0.00451529 -1.610391
v -0.1894954 -0.5160217 -1.22853
v 1.466274E-05 -0.5588877 -1.332789
v 1.466274E-05 -1.466274E-05 -1.75
v -0.4796813 -1.053309 -0.3659694
v -0.1217664 -0.8011826 -0.6842954
v -0.1894954 -0.7772371 -0.6656373
v 1.466274E-05 0.3461459 0.6461196
v -0.07182193 0.5428658 0.1194506
v 1.466274E-05 0.5980103 0.1399878
v 1.466274E-05 -0.3499329 0.6751339
v -0.1894954 -0.3499329 0.6346276
v -0.2348956 -0.0362823 0.5459683
v 1.466274E-05 -0.1836692 0.7259088
v -0.1894954 -0.7215682 0.1194506
v -0.1894954 -0.3499329 0.6346276
v -0.1398129 -0.7377795 0.1248252
v -0.4796813 -1.053309 -0.3659694
v -0.1894954 -0.7772371 -0.6656373
v -0.3977511 -0.9857986 0.1366669
v -0.6060505 -1.249985 0.5091763
v -0.3204527 0.2235347 0.136798
v -0.3508651 -0.3465246 0.129457
v -0.403388 -0.4745106 -0.4837304
v -0.3729753 0.3411646 -0.4829001
v -0.3729753 0.3411646 -0.4829001
v -0.403388 -0.4745106 -0.4837304
v -0.3686056 -0.06577706 -1.011754
v -0.1398129 -0.7377795 0.1248252
v -0.1894954 -0.3499329 0.6346276
v 1.466274E-05 -0.3499329 0.6751339
v 1.466274E-05 -0.783442 0.1399878
v -0.1217664 -0.8011826 -0.6842954
v -0.1398129 -0.7377795 0.1248252
v 1.466274E-05 -0.783442 0.1399878
v 1.466274E-05 -0.844267 -0.7177666
v -0.3054214 -0.9857986 0.1366669
v -0.1398129 -0.7377795 0.1248252
v -0.1217664 -0.8011826 -0.6842954
v -0.3977511 -0.9857986 0.1366669
v -0.1894954 -0.7215682 0.1194506
v -0.1398129 -0.7377795 0.1248252
v -0.3054214 -0.9857986 0.1366669
v -0.3054214 -0.9857986 0.1366669
v -0.6060505 -1.249985 0.5091763
v -0.3977511 -0.9857986 0.1366669
v -0.04084134 0.990576 0.1608309
v 1.466274E-05 1.113624 0.3309834
v 1.466274E-05 0.5980103 0.1399878
v -0.07182193 0.5428658 0.1194506
v 1.466274E-05 0.3461459 0.6461196
v -0.2348956 -0.0362823 0.5459683
v -0.3204527 0.2235347 0.136798
vn 0.9672941 0.05091029 0.248496
vn 0.9672941 0.05091029 0.248496
vn 0.9672941 0.05091029 0.248496
vn 0.9986234 0.09007198 0
vn 0.9986234 0.09007198 0
vn 0.9986234 0.09007198 0
vn 0.9986234 0.09007198 0
vn 0.8889707 0.4346949 -0.1441231
vn 0.8889707 0.4346949 -0.1441231
vn 0.8889707 0.4346949 -0.1441231
vn 0.8889707 0.4346949 -0.1441231
vn 0.9281324 0.2858805 -0.238417
vn 0.9281324 0.2858805 -0.238417
vn 0.9281324 0.2858805 -0.238417
vn 0.8576413 0.4660243 -0.217423
vn 0.8576413 0.4660243 -0.217423
vn 0.8576413 0.4660243 -0.217423
vn 0.8576413 0.4660243 -0.217423
vn 0.7166592 0.6853299 0.1293159
vn 0.7166592 0.6853299 0.1293159
vn 0.7166592 0.6853299 0.1293159
vn 0.7166592 0.6853299 0.1293159
vn 0.5521801 0.1214014 0.8248387
vn 0.5521801 0.1214014 0.8248387
vn 0.5521801 0.1214014 0.8248387
vn 0.8811383 -0.3877009 0.2707089
vn 0.8811383 -0.3877009 0.2707089
vn 0.8811383 -0.3877009 0.2707089
vn 0.8576413 -0.505186 0.09611764
vn 0.8576413 -0.505186 0.09611764
vn 0.8576413 -0.505186 0.09611764
vn 0.8576413 -0.505186 0.09611764
vn 0.9046353 -0.3485391 -0.2452661
vn 0.9046353 -0.3485391 -0.2452661
vn 0.9046353 -0.3485391 -0.2452661
vn 0.9046353 -0.3485391 -0.2452661
vn 0.9281324 -0.2232217 -0.2978966
vn 0.9281324 -0.2232217 -0.2978966
vn 0.9281324 -0.2232217 -0.2978966
vn 0.7401562 0.5913418 0.3201308
vn 0.7401562 0.5913418 0.3201308
vn 0.7401562 0.5913418 0.3201308
vn 0.9516294 -0.05091023 0.303001
vn 0.9516294 -0.05091023 0.303001
vn 0.9516294 -0.05091023 0.303001
vn 0.7871503 0.6148388 -0.04865938
vn 0.7871503 0.6148388 -0.04865938
vn 0.7871503 0.6148388 -0.04865938
vn -0.5600124 -0.8263119 -0.05995579
vn -0.5600124 -0.8263119 -0.05995579
vn -0.5600124 -0.8263119 -0.05995579
vn -0.5600124 -0.8263119 -0.05995579
vn 0.4503596 0.6696652 -0.5905293
vn 0.4503596 0.6696652 -0.5905293
vn 0.4503596 0.6696652 -0.5905293
vn 0.4503596 0.6696652 -0.5905293
vn 0.4033655 -0.8341443 -0.3761642
vn 0.4033655 -0.8341443 -0.3761642
vn 0.4033655 -0.8341443 -0.3761642
vn 0.4033655 -0.8341443 -0.3761642
vn 0.4033655 -0.8341443 -0.3761642
vn 0.5130183 0.7714855 -0.3763275
vn 0.5130183 0.7714855 -0.3763275
vn 0.5130183 0.7714855 -0.3763275
vn 0.5130183 0.7714855 -0.3763275
vn 0.8341443 0.481689 -0.2686614
vn 0.8341443 0.481689 -0.2686614
vn 0.8341443 0.481689 -0.2686614
vn 0.8341443 0.481689 -0.2686614
vn 0.4973536 -0.5208507 -0.6937968
vn 0.4973536 -0.5208507 -0.6937968
vn 0.4973536 -0.5208507 -0.6937968
vn 0.4973536 -0.5208507 -0.6937968
vn 0.3798685 -0.4660242 -0.7990753
vn 0.3798685 -0.4660242 -0.7990753
vn 0.3798685 -0.4660242 -0.7990753
vn 0.6305034 0.6931621 0.3492731
vn 0.6305034 0.6931621 0.3492731
vn 0.6305034 0.6931621 0.3492731
vn 0.4503596 0.02741331 0.8924263
vn 0.4503596 0.02741331 0.8924263
vn 0.4503596 0.02741331 0.8924263
vn 0.4503596 0.02741331 0.8924263
vn 0.3093774 -0.7714856 0.5559637
vn 0.3093774 -0.7714856 0.5559637
vn 0.3093774 -0.7714856 0.5559637
vn 0.7166592 0.6931621 0.07697944
vn 0.7166592 0.6931621 0.07697944
vn 0.7166592 0.6931621 0.07697944
vn 0.7166592 0.6931621 0.07697944
vn 0.9986234 0.04307789 0.02992536
vn 0.9986234 0.04307789 0.02992536
vn 0.9986234 0.04307789 0.02992536
vn 0.9986234 0.04307789 0.02992536
vn 0.9986234 0.0352456 -0.03884558
vn 0.9986234 0.0352456 -0.03884558
vn 0.9986234 0.0352456 -0.03884558
vn 0.207557 -0.7714856 0.60144
vn 0.207557 -0.7714856 0.60144
vn 0.207557 -0.7714856 0.60144
vn 0.207557 -0.7714856 0.60144
vn 0.3172098 -0.9437971 0.09287136
vn 0.3172098 -0.9437971 0.09287136
vn 0.3172098 -0.9437971 0.09287136
vn 0.3172098 -0.9437971 0.09287136
vn -0.8341443 -0.5521801 0
vn -0.8341443 -0.5521801 0
vn -0.8341443 -0.5521801 0
vn 0.02741319 0.07440728 0.9968511
vn 0.02741319 0.07440728 0.9968511
vn 0.02741319 0.07440728 0.9968511
vn 0.02741319 0.07440728 0.9968511
vn 0.003916144 0.8184796 0.5745223
vn 0.003916144 0.8184796 0.5745223
vn 0.003916144 0.8184796 0.5745223
vn 0.8028149 -0.113569 0.5853122
vn 0.8028149 -0.113569 0.5853122
vn 0.8028149 -0.113569 0.5853122
vn 0.8028149 -0.113569 0.5853122
vn 0.8184796 0.3955333 0.4167068
vn 0.8184796 0.3955333 0.4167068
vn 0.8184796 0.3955333 0.4167068
vn -0.967294 0.05091029 0.2484963
vn -0.967294 0.05091029 0.2484963
vn -0.967294 0.05091029 0.2484963
vn -0.9986234 0.09007198 0
vn -0.9986234 0.09007198 0
vn -0.9986234 0.09007198 0
vn -0.9986234 0.09007198 0
vn -0.8889707 0.4346949 -0.1441231
vn -0.8889707 0.4346949 -0.1441231
vn -0.8889707 0.4346949 -0.1441231
vn -0.8889707 0.4346949 -0.1441231
vn -0.9281324 0.2858805 -0.238417
vn -0.9281324 0.2858805 -0.238417
vn -0.9281324 0.2858805 -0.238417
vn -0.8576413 0.4660243 -0.217423
vn -0.8576413 0.4660243 -0.217423
vn -0.8576413 0.4660243 -0.217423
vn -0.8576413 0.4660243 -0.217423
vn -0.7166591 0.6853299 0.1293163
vn -0.7166591 0.6853299 0.1293163
vn -0.7166591 0.6853299 0.1293163
vn -0.7166591 0.6853299 0.1293163
vn -0.55218 0.1214014 0.8248388
vn -0.55218 0.1214014 0.8248388
vn -0.55218 0.1214014 0.8248388
vn -0.8811384 -0.3877009 0.2707087
vn -0.8811384 -0.3877009 0.2707087
vn -0.8811384 -0.3877009 0.2707087
vn -0.8576413 -0.505186 0.09611764
vn -0.8576413 -0.505186 0.09611764
vn -0.8576413 -0.505186 0.09611764
vn -0.8576413 -0.505186 0.09611764
vn -0.9046354 -0.3485391 -0.2452658
vn -0.9046354 -0.3485391 -0.2452658
vn -0.9046354 -0.3485391 -0.2452658
vn -0.9046354 -0.3485391 -0.2452658
vn -0.9281324 -0.2232217 -0.2978966
vn -0.9281324 -0.2232217 -0.2978966
vn -0.9281324 -0.2232217 -0.2978966
vn -0.7401562 0.5913418 0.3201307
vn -0.7401562 0.5913418 0.3201307
vn -0.7401562 0.5913418 0.3201307
vn -0.9516293 -0.05091023 0.3030012
vn -0.9516293 -0.05091023 0.3030012
vn -0.9516293 -0.05091023 0.3030012
vn -0.7871502 0.6148388 -0.0486606
vn -0.7871502 0.6148388 -0.0486606
vn -0.7871502 0.6148388 -0.0486606
vn 0.5600123 -0.8263119 -0.05995629
vn 0.5600123 -0.8263119 -0.05995629
vn 0.5600123 -0.8263119 -0.05995629
vn 0.5600123 -0.8263119 -0.05995629
vn -0.4503596 0.6696652 -0.5905292
vn -0.4503596 0.6696652 -0.5905292
vn -0.4503596 0.6696652 -0.5905292
vn -0.4503596 0.6696652 -0.5905292
vn -0.4033656 -0.8341443 -0.3761642
vn -0.4033656 -0.8341443 -0.3761642
vn -0.4033656 -0.8341443 -0.3761642
vn -0.4033656 -0.8341443 -0.3761642
vn -0.4033656 -0.8341443 -0.3761642
vn -0.5130183 0.7714855 -0.3763275
vn -0.5130183 0.7714855 -0.3763275
vn -0.5130183 0.7714855 -0.3763275
vn -0.5130183 0.7714855 -0.3763275
vn -0.8341443 0.481689 -0.2686614
vn -0.8341443 0.481689 -0.2686614
vn -0.8341443 0.481689 -0.2686614
vn -0.8341443 0.481689 -0.2686614
vn -0.4973536 -0.5208507 -0.6937968
vn -0.4973536 -0.5208507 -0.6937968
vn -0.4973536 -0.5208507 -0.6937968
vn -0.4973536 -0.5208507 -0.6937968
vn -0.3798686 -0.4660242 -0.7990753
vn -0.3798686 -0.4660242 -0.7990753
vn -0.3798686 -0.4660242 -0.7990753
vn -0.6305035 0.6931621 0.349273
vn -0.6305035 0.6931621 0.349273
vn -0.6305035 0.6931621 0.349273
vn -0.4503596 0.02741331 0.8924263
vn -0.4503596 0.02741331 0.8924263
vn -0.4503596 0.02741331 0.8924263
vn -0.4503596 0.02741331 0.8924263
vn -0.3093775 -0.7714856 0.5559636
vn -0.3093775 -0.7714856 0.5559636
vn -0.3093775 -0.7714856 0.5559636
vn -0.7166591 0.6931621 0.07698021
vn -0.7166591 0.6931621 0.07698021
vn -0.7166591 0.6931621 0.07698021
vn -0.7166591 0.6931621 0.07698021
vn -0.9986234 0.04307789 0.02992536
vn -0.9986234 0.04307789 0.02992536
vn -0.9986234 0.04307789 0.02992536
vn -0.9986234 0.04307789 0.02992536
vn -0.9986234 0.0352456 -0.03884558
vn -0.9986234 0.0352456 -0.03884558
vn -0.9986234 0.0352456 -0.03884558
vn -0.207557 -0.7714856 0.60144
vn -0.207557 -0.7714856 0.60144
vn -0.207557 -0.7714856 0.60144
vn -0.207557 -0.7714856 0.60144
vn -0.3172098 -0.9437971 0.09287136
vn -0.3172098 -0.9437971 0.09287136
vn -0.3172098 -0.9437971 0.09287136
vn -0.3172098 -0.9437971 0.09287136
vn 0.8341443 -0.5521801 0
vn 0.8341443 -0.5521801 0
vn 0.8341443 -0.5521801 0
vn -0.02741331 0.07440728 0.9968511
vn -0.02741331 0.07440728 0.9968511
vn -0.02741331 0.07440728 0.9968511
vn -0.02741331 0.07440728 0.9968511
vn 0.003916144 0.8184796 0.5745223
vn 0.003916144 0.8184796 0.5745223
vn 0.003916144 0.8184796 0.5745223
vn -0.8028149 -0.113569 0.5853122
vn -0.8028149 -0.113569 0.5853122
vn -0.8028149 -0.113569 0.5853122
vn -0.8028149 -0.113569 0.5853122
vn -0.8184796 0.3955333 0.4167068
vn -0.8184796 0.3955333 0.4167068
vn -0.8184796 0.3955333 0.4167068
g Goldfish_0
f 3/3/3 2/2/2 1/1/1
f 6/6/6 5/5/5 4/4/4
f 7/7/7 6/6/6 4/4/4
f 10/10/10 9/9/9 8/8/8
f 11/11/11 10/10/10 8/8/8
f 14/14/14 13/13/13 12/12/12
f 17/17/17 16/16/16 15/15/15
f 18/18/18 17/17/17 15/15/15
f 21/21/21 20/20/20 19/19/19
f 22/22/22 21/21/21 19/19/19
f 25/25/25 24/24/24 23/23/23
f 28/28/28 27/27/27 26/26/26
f 31/31/31 30/30/30 29/29/29
f 32/32/32 31/31/31 29/29/29
f 35/35/35 34/34/34 33/33/33
f 36/36/36 35/35/35 33/33/33
f 39/39/39 38/38/38 37/37/37
f 42/42/42 41/41/41 40/40/40
f 45/45/45 44/44/44 43/43/43
f 48/48/48 47/47/47 46/46/46
f 51/51/51 50/50/50 49/49/49
f 52/52/52 51/51/51 49/49/49
f 55/55/55 54/54/54 53/53/53
f 56/56/56 55/55/55 53/53/53
f 59/59/59 58/58/58 57/57/57
f 60/60/60 59/59/59 57/57/57
f 57/57/57 61/61/61 60/60/60
f 64/64/64 63/63/63 62/62/62
f 65/65/65 64/64/64 62/62/62
f 68/68/68 67/67/67 66/66/66
f 69/69/69 68/68/68 66/66/66
f 72/72/72 71/71/71 70/70/70
f 73/73/73 72/72/72 70/70/70
f 76/76/76 75/75/75 74/74/74
f 79/79/79 78/78/78 77/77/77
f 82/82/82 81/81/81 80/80/80
f 83/83/83 82/82/82 80/80/80
f 86/86/86 85/85/85 84/84/84
f 89/89/89 88/88/88 87/87/87
f 90/90/90 89/89/89 87/87/87
f 93/93/93 92/92/92 91/91/91
f 94/94/94 93/93/93 91/91/91
f 97/97/97 96/96/96 95/95/95
f 100/100/100 99/99/99 98/98/98
f 101/101/101 100/100/100 98/98/98
f 104/104/104 103/103/103 102/102/102
f 105/105/105 104/104/104 102/102/102
f 108/108/108 107/107/107 106/106/106
f 111/111/111 110/110/110 109/109/109
f 112/112/112 111/111/111 109/109/109
f 115/115/115 114/114/114 113/113/113
f 118/118/118 117/117/117 116/116/116
f 119/119/119 118/118/118 116/116/116
f 122/122/122 121/121/121 120/120/120
f 125/125/125 124/124/124 123/123/123
f 128/128/128 127/127/127 126/126/126
f 129/129/129 128/128/128 126/126/126
f 132/132/132 131/131/131 130/130/130
f 133/133/133 132/132/132 130/130/130
f 136/136/136 135/135/135 134/134/134
f 139/139/139 138/138/138 137/137/137
f 140/140/140 139/139/139 137/137/137
f 143/143/143 142/142/142 141/141/141
f 144/144/144 143/143/143 141/141/141
f 147/147/147 146/146/146 145/145/145
f 150/150/150 149/149/149 148/148/148
f 153/153/153 152/152/152 151/151/151
f 154/154/154 153/153/153 151/151/151
f 157/157/157 156/156/156 155/155/155
f 158/158/158 157/157/157 155/155/155
f 161/161/161 160/160/160 159/159/159
f 164/164/164 163/163/163 162/162/162
f 167/167/167 166/166/166 165/165/165
f 170/170/170 169/169/169 168/168/168
f 173/173/173 172/172/172 171/171/171
f 174/174/174 173/173/173 171/171/171
f 177/177/177 176/176/176 175/175/175
f 178/178/178 177/177/177 175/175/175
f 181/181/181 180/180/180 179/179/179
f 182/182/182 181/181/181 179/179/179
f 183/183/183 179/179/179 180/180/180
f 186/186/186 185/185/185 184/184/184
f 187/187/187 186/186/186 184/184/184
f 190/190/190 189/189/189 188/188/188
f 191/191/191 190/190/190 188/188/188
f 194/194/194 193/193/193 192/192/192
f 195/195/195 194/194/194 192/192/192
f 198/198/198 197/197/197 196/196/196
f 201/201/201 200/200/200 199/199/199
f 204/204/204 203/203/203 202/202/202
f 205/205/205 204/204/204 202/202/202
f 208/208/208 207/207/207 206/206/206
f 211/211/211 210/210/210 209/209/209
f 212/212/212 211/211/211 209/209/209
f 215/215/215 214/214/214 213/213/213
f 216/216/216 215/215/215 213/213/213
f 219/219/219 218/218/218 217/217/217
f 222/222/222 221/221/221 220/220/220
f 223/223/223 222/222/222 220/220/220
f 226/226/226 225/225/225 224/224/224
f 227/227/227 226/226/226 224/224/224
f 230/230/230 229/229/229 228/228/228
f 233/233/233 232/232/232 231/231/231
f 234/234/234 233/233/233 231/231/231
f 237/237/237 236/236/236 235/235/235
f 240/240/240 239/239/239 238/238/238
f 241/241/241 240/240/240 238/238/238
f 244/244/244 243/243/243 242/242/242
