g Goldfish_tile
v 0.2348936 -0.03629732 0.03709853
v 0.0406462 0.2890631 0.1056497
v -1.907349E-05 0.3918326 0.02855349
v -1.907349E-05 -0.1550508 -0.06010139
v 0.1894979 -0.3499466 0.1257915
v 0.2348936 -0.03629732 0.03709853
v -1.907349E-05 -0.1550508 -0.06010139
v -1.907349E-05 -0.4686999 0.02855349
v 0.03831923 -0.8753909 0.9564162
v -1.907349E-05 -1.25 1.24115
v -1.907349E-05 1.907349E-05 0.9073204
v 0.0406462 -0.004520535 0.7318417
v 0.1718738 -0.1658083 0.3293087
v 0.1894979 -0.3499466 0.1257915
v -1.907349E-05 1.907349E-05 0.9073204
v -1.907349E-05 1.25 1.24115
v 0.04781795 0.9192225 0.9223505
v 0.0406462 -0.004520535 0.7318417
v 0.0406462 -0.004520535 0.7318417
v 0.04781795 0.9192225 0.9223505
v 0.0406462 0.2890631 0.1056497
v 0.05827034 0.1081674 0.3293087
v 0.04781795 0.9192225 0.9223505
v -1.907349E-05 1.25 1.24115
v -1.907349E-05 1.09329 0.7933737
v -1.907349E-05 -1.043126 0.6795033
v -1.907349E-05 -1.25 1.24115
v 0.03831923 -0.8753909 0.9564162
v 0.2348936 -0.03629732 0.03709853
v 0.05827034 0.1081674 0.3293087
v 0.0406462 0.2890631 0.1056497
v 0.2348936 -0.03629732 0.03709853
v 0.0406462 -0.004520535 0.7318417
v 0.05827034 0.1081674 0.3293087
v 0.2348936 -0.03629732 0.03709853
v 0.1718738 -0.1658083 0.3293087
v 0.0406462 -0.004520535 0.7318417
v 0.0406462 0.2890631 0.1056497
v 0.04781795 0.9192225 0.9223505
v -1.907349E-05 1.09329 0.7933737
v -1.907349E-05 0.3918326 0.02855349
v 0.1894979 -0.3499466 0.1257915
v -1.907349E-05 -0.4686999 0.02855349
v -1.907349E-05 -1.043126 0.6795033
v 0.03831923 -0.8753909 0.9564162
v 0.1894979 -0.3499466 0.1257915
v 0.1718738 -0.1658083 0.3293087
v 0.2348936 -0.03629732 0.03709853
v -0.2348936 -0.03629732 0.03709853
v -1.907349E-05 -0.1550508 -0.06010139
v -1.907349E-05 0.3918326 0.02855349
v -0.0406462 0.2890631 0.1056497
v -0.1894979 -0.3499466 0.1257915
v -1.907349E-05 -0.4686999 0.02855349
v -1.907349E-05 -0.1550508 -0.06010139
v -0.2348936 -0.03629732 0.03709853
v -0.03831923 -0.8753909 0.9564162
v -0.0406462 -0.004520535 0.7318417
v -1.907349E-05 1.907349E-05 0.9073204
v -1.907349E-05 -1.25 1.24115
v -0.1718738 -0.1658083 0.3293087
v -0.1894979 -0.3499466 0.1257915
v -1.907349E-05 1.907349E-05 0.9073204
v -0.0406462 -0.004520535 0.7318417
v -0.04781795 0.9192225 0.9223505
v -1.907349E-05 1.25 1.24115
v -0.0406462 -0.004520535 0.7318417
v -0.05827034 0.1081674 0.3293087
v -0.0406462 0.2890631 0.1056497
v -0.04781795 0.9192225 0.9223505
v -0.04781795 0.9192225 0.9223505
v -1.907349E-05 1.09329 0.7933737
v -1.907349E-05 1.25 1.24115
v -1.907349E-05 -1.043126 0.6795033
v -0.03831923 -0.8753909 0.9564162
v -1.907349E-05 -1.25 1.24115
v -0.2348936 -0.03629732 0.03709853
v -0.0406462 0.2890631 0.1056497
v -0.05827034 0.1081674 0.3293087
v -0.2348936 -0.03629732 0.03709853
v -0.05827034 0.1081674 0.3293087
v -0.0406462 -0.004520535 0.7318417
v -0.2348936 -0.03629732 0.03709853
v -0.0406462 -0.004520535 0.7318417
v -0.1718738 -0.1658083 0.3293087
v -0.0406462 0.2890631 0.1056497
v -1.907349E-05 0.3918326 0.02855349
v -1.907349E-05 1.09329 0.7933737
v -0.04781795 0.9192225 0.9223505
v -0.1894979 -0.3499466 0.1257915
v -0.03831923 -0.8753909 0.9564162
v -1.907349E-05 -1.043126 0.6795033
v -1.907349E-05 -0.4686999 0.02855349
v -0.1894979 -0.3499466 0.1257915
v -0.2348936 -0.03629732 0.03709853
v -0.1718738 -0.1658083 0.3293087
vn 0.5058473 0.262727 -0.8216404
vn 0.5058473 0.262727 -0.8216404
vn 0.5058473 0.262727 -0.8216404
vn 0.5058473 0.262727 -0.8216404
vn 0.5215325 -0.2705695 -0.8091946
vn 0.5215325 -0.2705695 -0.8091946
vn 0.5215325 -0.2705695 -0.8091946
vn 0.5215325 -0.2705695 -0.8091946
vn 0.976403 0.05097693 0.2098536
vn 0.976403 0.05097693 0.2098536
vn 0.976403 0.05097693 0.2098536
vn 0.976403 0.05097693 0.2098536
vn 0.976403 0.01960653 0.2150646
vn 0.976403 0.01960653 0.2150646
vn 0.976403 -0.05097687 0.2098536
vn 0.976403 -0.05097687 0.2098536
vn 0.976403 -0.05097687 0.2098536
vn 0.976403 -0.05097687 0.2098536
vn 0.9999308 0.01176399 -0.0001025721
vn 0.9999308 0.01176399 -0.0001025721
vn 0.9999308 0.01176399 -0.0001025721
vn 0.9999308 0.01176399 -0.0001025721
vn 0.976403 0.2156714 -0.01109246
vn 0.976403 0.2156714 -0.01109246
vn 0.976403 0.2156714 -0.01109246
vn 0.9920882 -0.1372454 0
vn 0.9920882 -0.1372454 0
vn 0.9920882 -0.1372454 0
vn 0.8430789 0.4431066 0.3047532
vn 0.8430789 0.4431066 0.3047532
vn 0.8430789 0.4431066 0.3047532
vn 0.7960234 0.5764307 0.1845924
vn 0.7960234 0.5764307 0.1845924
vn 0.7960234 0.5764307 0.1845924
vn 0.9607178 0.1215603 0.2494883
vn 0.9607178 0.1215603 0.2494883
vn 0.9607178 0.1215603 0.2494883
vn 0.9685604 0.1921436 -0.1580241
vn 0.9685604 0.1921436 -0.1580241
vn 0.9685604 0.1921436 -0.1580241
vn 0.9685604 0.1921436 -0.1580241
vn 0.8822919 -0.4195788 -0.2133415
vn 0.8822919 -0.4195788 -0.2133415
vn 0.8822919 -0.4195788 -0.2133415
vn 0.8822919 -0.4195788 -0.2133415
vn 0.9842456 -0.09018981 0.1520737
vn 0.9842456 -0.09018981 0.1520737
vn 0.9842456 -0.09018981 0.1520737
vn -0.5058474 0.262727 -0.8216404
vn -0.5058474 0.262727 -0.8216404
vn -0.5058474 0.262727 -0.8216404
vn -0.5058474 0.262727 -0.8216404
vn -0.5215326 -0.2705695 -0.8091946
vn -0.5215326 -0.2705695 -0.8091946
vn -0.5215326 -0.2705695 -0.8091946
vn -0.5215326 -0.2705695 -0.8091946
vn -0.9764031 0.05097693 0.2098533
vn -0.9764031 0.05097693 0.2098533
vn -0.9764031 0.05097693 0.2098533
vn -0.9764031 0.05097693 0.2098533
vn -0.9764031 0.01960653 0.2150643
vn -0.9764031 0.01960653 0.2150643
vn -0.9764031 -0.05097687 0.2098533
vn -0.9764031 -0.05097687 0.2098533
vn -0.9764031 -0.05097687 0.2098533
vn -0.9764031 -0.05097687 0.2098533
vn -0.9999308 0.01176399 -0.0001025721
vn -0.9999308 0.01176399 -0.0001025721
vn -0.9999308 0.01176399 -0.0001025721
vn -0.9999308 0.01176399 -0.0001025721
vn -0.9764031 0.2156714 -0.01108708
vn -0.9764031 0.2156714 -0.01108708
vn -0.9764031 0.2156714 -0.01108708
vn -0.9920883 -0.1372454 0
vn -0.9920883 -0.1372454 0
vn -0.9920883 -0.1372454 0
vn -0.8430789 0.4431066 0.3047532
vn -0.8430789 0.4431066 0.3047532
vn -0.8430789 0.4431066 0.3047532
vn -0.7960233 0.5764307 0.1845928
vn -0.7960233 0.5764307 0.1845928
vn -0.7960233 0.5764307 0.1845928
vn -0.9607179 0.1215603 0.249488
vn -0.9607179 0.1215603 0.249488
vn -0.9607179 0.1215603 0.249488
vn -0.9685604 0.1921436 -0.1580241
vn -0.9685604 0.1921436 -0.1580241
vn -0.9685604 0.1921436 -0.1580241
vn -0.9685604 0.1921436 -0.1580241
vn -0.8822919 -0.4195788 -0.2133418
vn -0.8822919 -0.4195788 -0.2133418
vn -0.8822919 -0.4195788 -0.2133418
vn -0.8822919 -0.4195788 -0.2133418
vn -0.9842456 -0.09018981 0.1520737
vn -0.9842456 -0.09018981 0.1520737
vn -0.9842456 -0.09018981 0.1520737
g Goldfish_tile_0
f 3/3/3 2/2/2 1/1/1
f 4/4/4 3/3/3 1/1/1
f 7/7/7 6/6/6 5/5/5
f 8/8/8 7/7/7 5/5/5
f 11/11/11 10/10/10 9/9/9
f 12/12/12 11/11/11 9/9/9
f 13/13/13 12/12/12 9/9/9
f 14/14/14 13/13/13 9/9/9
f 17/17/17 16/16/16 15/15/15
f 18/18/18 17/17/17 15/15/15
f 21/21/21 20/20/20 19/19/19
f 22/22/22 21/21/21 19/19/19
f 25/25/25 24/24/24 23/23/23
f 28/28/28 27/27/27 26/26/26
f 31/31/31 30/30/30 29/29/29
f 34/34/34 33/33/33 32/32/32
f 37/37/37 36/36/36 35/35/35
f 40/40/40 39/39/39 38/38/38
f 41/41/41 40/40/40 38/38/38
f 44/44/44 43/43/43 42/42/42
f 45/45/45 44/44/44 42/42/42
f 48/48/48 47/47/47 46/46/46
f 51/51/51 50/50/50 49/49/49
f 52/52/52 51/51/51 49/49/49
f 55/55/55 54/54/54 53/53/53
f 56/56/56 55/55/55 53/53/53
f 59/59/59 58/58/58 57/57/57
f 60/60/60 59/59/59 57/57/57
f 58/58/58 61/61/61 57/57/57
f 61/61/61 62/62/62 57/57/57
f 65/65/65 64/64/64 63/63/63
f 66/66/66 65/65/65 63/63/63
f 69/69/69 68/68/68 67/67/67
f 70/70/70 69/69/69 67/67/67
f 73/73/73 72/72/72 71/71/71
f 76/76/76 75/75/75 74/74/74
f 79/79/79 78/78/78 77/77/77
f 82/82/82 81/81/81 80/80/80
f 85/85/85 84/84/84 83/83/83
f 88/88/88 87/87/87 86/86/86
f 89/89/89 88/88/88 86/86/86
f 92/92/92 91/91/91 90/90/90
f 93/93/93 92/92/92 90/90/90
f 96/96/96 95/95/95 94/94/94
