g Hill_Mound_Snow_01
v 2435.231 560.7043 -266.1682
v 2256.764 970.0095 -146.4275
v 2258.543 970.0095 -640.8984
v 2427.477 560.7043 -688.439
v -1350.841 970.0095 -179.8584
v -1017.168 970.0095 -374.7231
v -1075.64 1407.406 -277.2273
v -785.5676 970.0095 1479.607
v -824.9734 560.7043 1646.507
v -1411.093 560.7043 1529.562
v -1411.093 560.7043 1529.562
v -1726.588 970.0095 1478.844
v -785.5676 970.0095 1479.607
v -3239.873 970.0095 562.6111
v -3453.931 560.7043 667.0979
v -3301.396 560.7043 380.8389
v 2406.249 560.7043 43.73413
v 2298.457 560.7043 327.5784
v 2137.15 970.0095 314.9941
v 2137.15 970.0095 314.9941
v 2256.764 970.0095 -146.4275
v 2406.249 560.7043 43.73413
v 144.3936 1407.406 -658.1858
v -145.8062 970.0095 -641.1526
v 372.3079 970.0095 -740.6824
v -586.5081 1407.406 627.5657
v -502.9946 970.0095 673.9622
v -808.1941 1407.406 893.9958
v -742.8577 970.0095 962.8909
v -79.83423 560.7043 1207.966
v -268.8521 560.7043 1565.408
v -460.666 970.0095 1431.685
v -460.666 970.0095 1431.685
v -89.49512 970.0095 1044.752
v -79.83423 560.7043 1207.966
v 586.1128 970.0095 -1202.612
v 650.0508 560.7043 -1285.363
v 1010.926 560.7043 -1382.859
v 925.7595 970.0095 -1294.388
v -1017.168 970.0095 -374.7231
v -996.322 560.7043 -310.658
v -996.322 560.7043 -555.6055
v 332.1401 970.0095 1216.228
v 380.189 560.7043 1285.505
v 187.6121 560.7043 1064.2
v 187.6121 560.7043 1064.2
v 125.3267 970.0095 929.3333
v 332.1401 970.0095 1216.228
v -762.4333 970.0095 -745.5127
v -704.4695 970.0095 -410.1877
v -783.2795 560.7043 -555.6055
v -783.2795 560.7043 -555.6055
v -783.2795 560.7043 -799.5361
v -762.4333 970.0095 -745.5127
v 144.3936 1407.406 -658.1858
v -184.9573 1407.406 -402.0522
v -145.8062 970.0095 -641.1526
v 1252.314 970.0095 212.4136
v 1084.016 1407.406 40.81055
v 965.6731 1407.406 -421.3735
v 965.6731 1407.406 -421.3735
v 1176.809 970.0095 -463.7024
v 1252.314 970.0095 212.4136
v 2256.764 970.0095 -146.4275
v 2435.231 560.7043 -266.1682
v 2406.249 560.7043 43.73413
v -1709.936 1407.406 68.26709
v -2314.36 1407.406 82.12231
v -1899.081 970.0095 108.689
v -1709.936 1407.406 68.26709
v -1899.081 970.0095 108.689
v -1684.26 970.0095 18.18457
v 795.4683 970.0095 1044.752
v 872.626 560.7043 1103.224
v 610.7725 560.7043 1285.505
v 549.2498 970.0095 1216.228
v -762.4333 970.0095 -745.5127
v -783.2795 560.7043 -799.5361
v -575.7036 560.7043 -975.7151
v -567.187 970.0095 -911.2688
v -49.32715 970.0095 -1091.134
v -145.8062 970.0095 -641.1526
v -134.1118 560.7043 -799.5361
v -134.1118 560.7043 -799.5361
v -25.30273 560.7043 -1166.894
v -49.32715 970.0095 -1091.134
v 273.2864 970.0095 -1236.043
v 317.522 560.7043 -1320.955
v 650.0508 560.7043 -1285.363
v 586.1128 970.0095 -1202.612
v -1017.168 970.0095 -374.7231
v -996.322 560.7043 -555.6055
v -783.2795 560.7043 -555.6055
v -783.2795 560.7043 -555.6055
v -704.4695 970.0095 -410.1877
v -1017.168 970.0095 -374.7231
v -2043.99 970.0095 -124.564
v -1899.081 970.0095 108.689
v -2254.109 970.0095 -49.31299
v -1684.26 970.0095 18.18457
v 635.814 1407.406 -665.177
v 819.7471 970.0095 -728.2253
v 1176.809 970.0095 -463.7024
v 965.6731 1407.406 -421.3735
v 1084.016 1407.406 40.81055
v 1252.314 970.0095 212.4136
v 988.8076 1407.406 272.7925
v -2633.796 1407.406 900.7327
v -2718.454 970.0095 970.2634
v -2950.69 970.0095 873.7844
v -559.4331 560.7043 1488.886
v -824.9734 560.7043 1646.507
v -785.5676 970.0095 1479.607
v -785.5676 970.0095 1479.607
v -460.666 970.0095 1431.685
v -559.4331 560.7043 1488.886
v -1075.64 1407.406 -277.2273
v -557.5266 970.0095 -545.1821
v -145.8062 970.0095 -641.1526
v -586.5081 1407.406 627.5657
v -182.0337 1407.406 720.6125
v -502.9946 970.0095 673.9622
v -1684.26 970.0095 18.18457
v -1678.158 560.7043 13.4812
v -1423.041 560.7043 -127.6145
v -1350.841 970.0095 -179.8584
v -67.75879 0.007080078 1370.162
v -348.552 0.007080078 2016.025
v -361.2634 560.7043 1933.02
v -361.2634 560.7043 1933.02
v -79.83423 560.7043 1207.966
v -67.75879 0.007080078 1370.162
v -502.9946 970.0095 673.9622
v -182.0337 1407.406 720.6125
v -160.9326 970.0095 808.448
v -3343.089 560.7043 1888.912
v -3453.296 0.007080078 1970.137
v -3975.732 0.007080078 2034.584
v -3844.805 560.7043 1950.689
v -2454.694 970.0095 946.7473
v -2718.454 970.0095 970.2634
v -1688.708 1407.406 881.7927
v -2718.454 970.0095 970.2634
v -2633.796 1407.406 900.7327
v -1688.708 1407.406 881.7927
v -395.7112 1407.406 -574.9268
v -1075.64 1407.406 -277.2273
v -145.8062 970.0095 -641.1526
v -2902.641 1407.406 264.1489
v -2968.104 970.0095 103.2234
v -2597.823 970.0095 102.842
v -2597.823 970.0095 102.842
v -2314.36 1407.406 82.12231
v -2902.641 1407.406 264.1489
v 635.814 1407.406 -665.177
v 372.3079 970.0095 -740.6824
v 819.7471 970.0095 -728.2253
v 988.8076 1407.406 272.7925
v 1252.314 970.0095 212.4136
v 810.9761 970.0095 599.6008
v -1075.64 1407.406 -277.2273
v -1017.168 970.0095 -374.7231
v -704.4695 970.0095 -410.1877
v -1075.64 1407.406 -277.2273
v -1709.936 1407.406 68.26709
v -1684.26 970.0095 18.18457
v -557.5266 970.0095 -545.1821
v -1075.64 1407.406 -277.2273
v -704.4695 970.0095 -410.1877
v -1688.708 1407.406 881.7927
v -1769.044 970.0095 951.7048
v -2454.694 970.0095 946.7473
v -182.0337 1407.406 720.6125
v 126.2163 970.0095 707.9016
v -160.9326 970.0095 808.448
v -2950.436 1407.406 705.2322
v -2950.69 970.0095 873.7844
v -3239.873 970.0095 562.6111
v -2831.712 560.7043 93.18115
v -2283.599 560.7043 -139.0549
v -2597.823 970.0095 102.842
v -2254.109 970.0095 -49.31299
v -2314.36 1407.406 82.12231
v -2254.109 970.0095 -49.31299
v -1899.081 970.0095 108.689
v -808.1941 1407.406 893.9958
v -742.8577 970.0095 962.8909
v -1067.251 970.0095 934.7991
v -1067.251 970.0095 934.7991
v -1688.708 1407.406 881.7927
v -808.1941 1407.406 893.9958
v 3227.91 0.007080078 -1719.328
v 3073.467 560.7043 -1654.5
v 2802.08 560.7043 -1938.599
v 2945.21 0.007080078 -2015.121
v 627.6787 1407.406 559.0518
v 988.8076 1407.406 272.7925
v 810.9761 970.0095 599.6008
v -2902.641 1407.406 264.1489
v -3239.873 970.0095 562.6111
v -2968.104 970.0095 103.2234
v -2950.436 1407.406 705.2322
v -2633.796 1407.406 900.7327
v -2950.69 970.0095 873.7844
v 3489.001 0.007080078 -664.033
v 3324.262 560.7043 -641.0256
v 3236.553 560.7043 -1123.675
v 3397.606 0.007080078 -1166.512
v 627.6787 1407.406 559.0518
v 810.9761 970.0095 599.6008
v 276.5916 1407.406 754.2976
v 431.0342 970.0095 811.3718
v -3844.805 560.7043 1950.689
v -3975.732 0.007080078 2034.584
v -4406.773 0.007080078 1863.87
v -4259.195 560.7043 1786.713
v 276.5916 1407.406 754.2976
v 431.0342 970.0095 811.3718
v 126.2163 970.0095 707.9016
v -318.1719 970.0095 -911.2688
v -311.0537 560.7043 -975.7151
v -134.1118 560.7043 -799.5361
v -134.1118 560.7043 -799.5361
v -145.8062 970.0095 -641.1526
v -318.1719 970.0095 -911.2688
v -3239.873 970.0095 562.6111
v -2902.641 1407.406 264.1489
v -2950.436 1407.406 705.2322
v 1308.244 970.0095 -1492.939
v 1417.561 560.7043 -1593.995
v 1859.534 560.7043 -1453.28
v 1724.159 970.0095 -1360.614
v 2427.477 560.7043 -688.439
v 2258.543 970.0095 -640.8984
v 2099.779 970.0095 -960.0803
v 2258.797 560.7043 -1027.577
v -4646.001 560.7043 606.2109
v -4841.374 0.007080078 886.2415
v -4809.469 0.007080078 634.5569
v -1688.708 1407.406 881.7927
v -1067.251 970.0095 934.7991
v -1769.044 970.0095 951.7048
v 1948.387 560.7043 760.1453
v 1809.452 560.7043 980.5593
v 1677 970.0095 929.3333
v 1807.799 970.0095 722.011
v 1172.36 970.0095 1221.185
v 1266.677 560.7043 1294.911
v 872.626 560.7043 1103.224
v 795.4683 970.0095 1044.752
v -567.187 970.0095 -911.2688
v -575.7036 560.7043 -975.7151
v -311.0537 560.7043 -975.7151
v -318.1719 970.0095 -911.2688
v -2719.979 970.0095 1492.064
v -2863.744 560.7043 1578.501
v -3303.302 560.7043 1224.49
v -3303.302 560.7043 1224.49
v -3013.738 970.0095 1302.792
v -2719.979 970.0095 1492.064
v 372.3079 970.0095 -740.6824
v 635.814 1407.406 -665.177
v 144.3936 1407.406 -658.1858
v 125.3267 970.0095 929.3333
v 187.6121 560.7043 1064.2
v -79.83423 560.7043 1207.966
v -89.49512 970.0095 1044.752
v -2043.99 970.0095 -124.564
v -2047.677 560.7043 -127.6145
v -1678.158 560.7043 13.4812
v -1684.26 970.0095 18.18457
v -3395.714 560.7043 -4.441895
v -3404.358 0.007080078 -26.94092
v -3207.205 0.007080078 -350.3174
v -3207.205 0.007080078 -350.3174
v -3106.658 560.7043 -339.7668
v -3395.714 560.7043 -4.441895
v 819.6199 560.7043 1557.146
v 881.0156 0.007080078 1624.77
v 558.6563 0.007080078 1624.77
v 509.9717 560.7043 1557.146
v -1961.239 0.007080078 1802.221
v -1961.239 0.007080078 2016.025
v -2020.601 560.7043 1784.298
v -2020.601 560.7043 1784.298
v -1909.25 560.7043 1742.732
v -1961.239 0.007080078 1802.221
v -34.45508 560.7043 -1734.963
v -8.269531 0.007080078 -1803.096
v 471.0752 0.007080078 -2018.426
v 425.9497 560.7043 -1941.777
v -2020.601 560.7043 1784.298
v -1961.239 0.007080078 2016.025
v -2216.61 0.007080078 1953.74
v -3395.714 560.7043 -4.441895
v -3611.934 0.007080078 24.54004
v -3404.358 0.007080078 -26.94092
v -34.45508 560.7043 -1734.963
v -180.3811 560.7043 -1241.891
v -160.1699 0.007080078 -1289.685
v -8.269531 0.007080078 -1803.096
v -4259.195 560.7043 1786.713
v -4406.773 0.007080078 1863.87
v -4466.644 0.007080078 1643.075
v -4466.644 0.007080078 1643.075
v -4520.794 560.7043 1352.493
v -4259.195 560.7043 1786.713
v 2205.41 0.007080078 1198.559
v 1913.557 0.007080078 1624.77
v 1708.778 560.7043 1564.264
v 1708.778 560.7043 1564.264
v 2091.516 560.7043 1147.841
v 2205.41 0.007080078 1198.559
v -1464.989 560.7043 1933.02
v -1497.657 0.007080078 2016.025
v -1690.996 0.007080078 1802.221
v -1690.996 0.007080078 1802.221
v -1411.093 560.7043 1529.562
v -1464.989 560.7043 1933.02
v 3373.582 0.007080078 -424.0432
v 3213.546 560.7043 -410.4419
v 3324.262 560.7043 -641.0256
v 3489.001 0.007080078 -664.033
v -1232.117 970.0095 -480.8628
v -1246.1 560.7043 -509.209
v -996.322 560.7043 -310.658
v -996.322 560.7043 -310.658
v -1017.168 970.0095 -374.7231
v -1232.117 970.0095 -480.8628
v 2684.119 0.007080078 -2125.328
v 2551.285 560.7043 -2044.357
v 2315.236 560.7043 -2247.484
v 2438.409 0.007080078 -2336.845
v -3301.396 560.7043 380.8389
v -2831.712 560.7043 93.18115
v -3239.873 970.0095 562.6111
v -1659.472 560.7043 -817.9675
v -1700.276 0.007080078 -848.2205
v -1365.332 0.007080078 -606.3237
v -1246.1 560.7043 -509.209
v -2692.396 560.7043 2095.598
v -2775.782 0.007080078 2185.467
v -3087.591 0.007080078 1891.454
v -2991.875 560.7043 1813.28
v 3141.473 0.007080078 -1497.388
v 2990.589 560.7043 -1441.331
v 3073.467 560.7043 -1654.5
v 3227.91 0.007080078 -1719.328
v -1051.87 560.7043 -1241.891
v -1067.633 0.007080078 -1289.685
v -777.5598 0.007080078 -1535.904
v -773.365 560.7043 -1478.321
v 3390.615 0.007080078 -110.8357
v 3229.817 560.7043 -109.8186
v 3213.546 560.7043 -410.4419
v 3373.582 0.007080078 -424.0432
v -2831.712 560.7043 93.18115
v -2968.104 970.0095 103.2234
v -3239.873 970.0095 562.6111
v -418.083 560.7043 -1478.321
v -407.6597 0.007080078 -1535.904
v -160.1699 0.007080078 -1289.685
v -180.3811 560.7043 -1241.891
v -1726.588 970.0095 1478.844
v -2424.568 560.7043 1518.504
v -2863.744 560.7043 1578.501
v -2863.744 560.7043 1578.501
v -2719.979 970.0095 1492.064
v -1726.588 970.0095 1478.844
v -2831.712 560.7043 93.18115
v -2597.823 970.0095 102.842
v -2968.104 970.0095 103.2234
v 958.1733 560.7043 -1973.555
v 1025.289 0.007080078 -2051.603
v 1440.442 0.007080078 -2104.99
v 1356.801 560.7043 -2024.909
v -2749.343 560.7043 -339.7668
v -2835.016 0.007080078 -350.3174
v -2318.555 0.007080078 -153.1646
v -2318.555 0.007080078 -153.1646
v -2283.599 560.7043 -139.0549
v -2749.343 560.7043 -339.7668
v 1902.499 560.7043 -2308.372
v 2008.638 0.007080078 -2400.147
v 2438.409 0.007080078 -2336.845
v 2315.236 560.7043 -2247.484
v 2750.854 0.007080078 890.5637
v 2556.624 0.007080078 1198.559
v 2428.875 560.7043 1147.841
v 2615.351 560.7043 852.0481
v 3240.113 0.007080078 286.0122
v 2750.854 0.007080078 890.5637
v 2615.351 560.7043 852.0481
v 3085.289 560.7043 271.3943
v -773.365 560.7043 -1478.321
v -777.5598 0.007080078 -1535.904
v -407.6597 0.007080078 -1535.904
v -418.083 560.7043 -1478.321
v -1337.875 560.7043 -914.3193
v -1365.332 0.007080078 -948.6399
v -1067.633 0.007080078 -948.6399
v -1051.87 560.7043 -914.3193
v -1423.041 560.7043 -127.6145
v -1246.1 560.7043 -509.209
v -1350.841 970.0095 -179.8584
v -1246.1 560.7043 -509.209
v -1232.117 970.0095 -480.8628
v -1350.841 970.0095 -179.8584
v -4646.001 560.7043 606.2109
v -4809.469 0.007080078 634.5569
v -4612.062 0.007080078 360.3738
v -4456.475 560.7043 342.832
v -2314.36 1407.406 82.12231
v -2597.823 970.0095 102.842
v -2254.109 970.0095 -49.31299
v -1337.875 560.7043 -914.3193
v -1246.1 560.7043 -509.209
v -1365.332 0.007080078 -606.3237
v -1365.332 0.007080078 -606.3237
v -1365.332 0.007080078 -948.6399
v -1337.875 560.7043 -914.3193
v -4520.794 560.7043 1352.493
v -4732.184 0.007080078 1353.765
v -4841.374 0.007080078 886.2415
v -4841.374 0.007080078 886.2415
v -4646.001 560.7043 606.2109
v -4520.794 560.7043 1352.493
v -1726.588 970.0095 1478.844
v -1909.25 560.7043 1742.732
v -2020.601 560.7043 1784.298
v -2254.109 970.0095 -49.31299
v -2283.599 560.7043 -139.0549
v -2047.677 560.7043 -127.6145
v -2047.677 560.7043 -127.6145
v -2043.99 970.0095 -124.564
v -2254.109 970.0095 -49.31299
v -849.1243 0.007080078 1802.221
v -1101.953 0.007080078 2016.025
v -1084.793 560.7043 1933.02
v -1084.793 560.7043 1933.02
v -824.9734 560.7043 1646.507
v -849.1243 0.007080078 1802.221
v 1708.778 560.7043 1564.264
v 1913.557 0.007080078 1624.77
v 1700.134 0.007080078 1639.516
v 2258.797 560.7043 -1027.577
v 2099.779 970.0095 -960.0803
v 1724.159 970.0095 -1360.614
v 1859.534 560.7043 -1453.28
v -3213.56 970.0095 1063.056
v -3303.302 560.7043 1224.49
v -3453.931 560.7043 667.0979
v -3453.931 560.7043 667.0979
v -3239.873 970.0095 562.6111
v -3213.56 970.0095 1063.056
v 1555.86 560.7043 -2297.948
v 1647.636 0.007080078 -2389.216
v 2008.638 0.007080078 -2400.147
v 1902.499 560.7043 -2308.372
v 3390.615 0.007080078 -110.8357
v 3240.113 0.007080078 286.0122
v 3085.289 560.7043 271.3943
v 3229.817 560.7043 -109.8186
v 2428.875 560.7043 1147.841
v 2556.624 0.007080078 1198.559
v 2205.41 0.007080078 1198.559
v 2091.516 560.7043 1147.841
v 1065.203 970.0095 -1485.694
v 925.7595 970.0095 -1294.388
v 1010.926 560.7043 -1382.859
v 1159.267 560.7043 -1586.241
v -4456.475 560.7043 342.832
v -4612.062 0.007080078 360.3738
v -4492.702 0.007080078 68.64844
v -4341.691 560.7043 62.67407
v -2337.495 560.7043 2080.726
v -2406.263 0.007080078 2169.833
v -2775.782 0.007080078 2185.467
v -2692.396 560.7043 2095.598
v -49.32715 970.0095 -1091.134
v -25.30273 560.7043 -1166.894
v 317.522 560.7043 -1320.955
v 273.2864 970.0095 -1236.043
v -361.2634 560.7043 1933.02
v -348.552 0.007080078 2016.025
v -660.2341 0.007080078 2016.025
v -660.6155 560.7043 1933.02
v -3689.219 560.7043 -150.3679
v -3813.662 0.007080078 -153.1646
v -3611.934 0.007080078 24.54004
v -3611.934 0.007080078 24.54004
v -3395.714 560.7043 -4.441895
v -3689.219 560.7043 -150.3679
v -460.666 970.0095 1431.685
v -268.8521 560.7043 1565.408
v -559.4331 560.7043 1488.886
v -4520.794 560.7043 1352.493
v -4466.644 0.007080078 1643.075
v -4732.184 0.007080078 1353.765
v -2216.61 0.007080078 1953.74
v -2406.263 0.007080078 2169.833
v -2337.495 560.7043 2080.726
v -2337.495 560.7043 2080.726
v -2020.601 560.7043 1784.298
v -2216.61 0.007080078 1953.74
v 509.9717 560.7043 1557.146
v 558.6563 0.007080078 1624.77
v 251.2959 0.007080078 1198.559
v 251.2959 0.007080078 1198.559
v 187.6121 560.7043 1064.2
v 509.9717 560.7043 1557.146
v 1266.677 560.7043 1294.911
v 1246.975 0.007080078 1370.162
v 881.0156 0.007080078 1624.77
v 881.0156 0.007080078 1624.77
v 819.6199 560.7043 1557.146
v 1266.677 560.7043 1294.911
v -1726.588 970.0095 1478.844
v -1411.093 560.7043 1529.562
v -1909.25 560.7043 1742.732
v -762.4333 970.0095 -745.5127
v -567.187 970.0095 -911.2688
v -704.4695 970.0095 -410.1877
v -557.5266 970.0095 -545.1821
v -318.1719 970.0095 -911.2688
v -145.8062 970.0095 -641.1526
v -49.32715 970.0095 -1091.134
v 273.2864 970.0095 -1236.043
v 372.3079 970.0095 -740.6824
v 586.1128 970.0095 -1202.612
v 819.7471 970.0095 -728.2253
v 925.7595 970.0095 -1294.388
v 1176.809 970.0095 -463.7024
v 1065.203 970.0095 -1485.694
v 1308.244 970.0095 -1492.939
v 1440.696 970.0095 929.3333
v 1252.314 970.0095 212.4136
v 1172.36 970.0095 1221.185
v 810.9761 970.0095 599.6008
v 795.4683 970.0095 1044.752
v 549.2498 970.0095 1216.228
v 431.0342 970.0095 811.3718
v 332.1401 970.0095 1216.228
v 126.2163 970.0095 707.9016
v 125.3267 970.0095 929.3333
v -160.9326 970.0095 808.448
v -89.49512 970.0095 1044.752
v -460.666 970.0095 1431.685
v -502.9946 970.0095 673.9622
v -742.8577 970.0095 962.8909
v -785.5676 970.0095 1479.607
v -1067.251 970.0095 934.7991
v -1726.588 970.0095 1478.844
v -1769.044 970.0095 951.7048
v -2454.694 970.0095 946.7473
v -2718.454 970.0095 970.2634
v -2719.979 970.0095 1492.064
v -2950.69 970.0095 873.7844
v -3013.738 970.0095 1302.792
v -3213.56 970.0095 1063.056
v -3239.873 970.0095 562.6111
v -3013.738 970.0095 1302.792
v -3239.873 970.0095 562.6111
v -2950.69 970.0095 873.7844
v -3013.738 970.0095 1302.792
v 1724.159 970.0095 -1360.614
v 1677 970.0095 929.3333
v 1807.799 970.0095 722.011
v 2137.15 970.0095 314.9941
v 2099.779 970.0095 -960.0803
v 2258.543 970.0095 -640.8984
v 2256.764 970.0095 -146.4275
v -1350.841 970.0095 -179.8584
v -1075.64 1407.406 -277.2273
v -1684.26 970.0095 18.18457
v 2551.285 560.7043 -2044.357
v 2684.119 0.007080078 -2125.328
v 2945.21 0.007080078 -2015.121
v 2802.08 560.7043 -1938.599
v -2283.599 560.7043 -139.0549
v -2318.555 0.007080078 -153.1646
v -1961.875 0.007080078 -350.3174
v -1910.648 560.7043 -339.7668
v 1558.276 560.7043 980.5593
v 1266.677 560.7043 1294.911
v 1172.36 970.0095 1221.185
v 1440.696 970.0095 929.3333
v -4006.366 560.7043 -81.59961
v -4144.03 0.007080078 -81.59961
v -3813.662 0.007080078 -153.1646
v -3689.219 560.7043 -150.3679
v 3397.606 0.007080078 -1166.512
v 3236.553 560.7043 -1123.675
v 2990.589 560.7043 -1441.331
v 3141.473 0.007080078 -1497.388
v 549.2498 970.0095 1216.228
v 610.7725 560.7043 1285.505
v 380.189 560.7043 1285.505
v 332.1401 970.0095 1216.228
v -1051.87 560.7043 -1241.891
v -1051.87 560.7043 -914.3193
v -1067.633 0.007080078 -948.6399
v -1067.633 0.007080078 -1289.685
v 187.6121 560.7043 1064.2
v 251.2959 0.007080078 1198.559
v -67.75879 0.007080078 1370.162
v -79.83423 560.7043 1207.966
v -1084.793 560.7043 1933.02
v -1101.953 0.007080078 2016.025
v -1497.657 0.007080078 2016.025
v -1464.989 560.7043 1933.02
v -1659.472 560.7043 -817.9675
v -1910.648 560.7043 -339.7668
v -1961.875 0.007080078 -350.3174
v -1700.276 0.007080078 -848.2205
v -1726.588 970.0095 1478.844
v -2020.601 560.7043 1784.298
v -2424.568 560.7043 1518.504
v -1411.093 560.7043 1529.562
v -1690.996 0.007080078 1802.221
v -1961.239 0.007080078 1802.221
v -1961.239 0.007080078 1802.221
v -1909.25 560.7043 1742.732
v -1411.093 560.7043 1529.562
v 958.1733 560.7043 -1973.555
v 700.5146 560.7043 -1734.963
v 757.0801 0.007080078 -1803.096
v 1025.289 0.007080078 -2051.603
v 1708.778 560.7043 1564.264
v 1700.134 0.007080078 1639.516
v 1246.975 0.007080078 1370.162
v 1266.677 560.7043 1294.911
v -3106.658 560.7043 -339.7668
v -3207.205 0.007080078 -350.3174
v -2835.016 0.007080078 -350.3174
v -2749.343 560.7043 -339.7668
v -2991.875 560.7043 1813.28
v -3087.591 0.007080078 1891.454
v -3453.296 0.007080078 1970.137
v -3343.089 560.7043 1888.912
v 1555.86 560.7043 -2297.948
v 1356.801 560.7043 -2024.909
v 1440.442 0.007080078 -2104.99
v 1647.636 0.007080078 -2389.216
v -3303.302 560.7043 1224.49
v -3213.56 970.0095 1063.056
v -3013.738 970.0095 1302.792
v 425.9497 560.7043 -1941.777
v 471.0752 0.007080078 -2018.426
v 757.0801 0.007080078 -1803.096
v 700.5146 560.7043 -1734.963
v 2298.457 560.7043 327.5784
v 1948.387 560.7043 760.1453
v 1807.799 970.0095 722.011
v 2137.15 970.0095 314.9941
v -4341.691 560.7043 62.67407
v -4492.702 0.007080078 68.64844
v -4144.03 0.007080078 -81.59961
v -4006.366 560.7043 -81.59961
v -182.0337 1407.406 720.6125
v 276.5916 1407.406 754.2976
v 126.2163 970.0095 707.9016
v -4646.001 560.7043 606.2109
v -4456.475 560.7043 342.832
v -4520.794 560.7043 1352.493
v -3453.931 560.7043 667.0979
v -3303.302 560.7043 1224.49
v -3395.714 560.7043 -4.441895
v -3395.714 560.7043 -4.441895
v -3301.396 560.7043 380.8389
v -3453.931 560.7043 667.0979
v -2831.712 560.7043 93.18115
v -3106.658 560.7043 -339.7668
v -2749.343 560.7043 -339.7668
v -2283.599 560.7043 -139.0549
v -3689.219 560.7043 -150.3679
v -3343.089 560.7043 1888.912
v -3844.805 560.7043 1950.689
v -4006.366 560.7043 -81.59961
v -4259.195 560.7043 1786.713
v -4341.691 560.7043 62.67407
v -4520.794 560.7043 1352.493
v -4456.475 560.7043 342.832
v -3303.302 560.7043 1224.49
v -2991.875 560.7043 1813.28
v -2863.744 560.7043 1578.501
v -2692.396 560.7043 2095.598
v -2424.568 560.7043 1518.504
v -2337.495 560.7043 2080.726
v -2020.601 560.7043 1784.298
v -1910.648 560.7043 -339.7668
v -2047.677 560.7043 -127.6145
v -1678.158 560.7043 13.4812
v -1659.472 560.7043 -817.9675
v -1423.041 560.7043 -127.6145
v -1246.1 560.7043 -509.209
v -1337.875 560.7043 -914.3193
v -1051.87 560.7043 -914.3193
v -996.322 560.7043 -310.658
v -1051.87 560.7043 -1241.891
v -996.322 560.7043 -555.6055
v -773.365 560.7043 -1478.321
v -783.2795 560.7043 -799.5361
v -783.2795 560.7043 -555.6055
v -575.7036 560.7043 -975.7151
v -418.083 560.7043 -1478.321
v -311.0537 560.7043 -975.7151
v -180.3811 560.7043 -1241.891
v -134.1118 560.7043 -799.5361
v -34.45508 560.7043 -1734.963
v -25.30273 560.7043 -1166.894
v 425.9497 560.7043 -1941.777
v 317.522 560.7043 -1320.955
v 650.0508 560.7043 -1285.363
v 700.5146 560.7043 -1734.963
v 958.1733 560.7043 -1973.555
v 1010.926 560.7043 -1382.859
v 1159.267 560.7043 -1586.241
v 1356.801 560.7043 -2024.909
v 1417.561 560.7043 -1593.995
v 1555.86 560.7043 -2297.948
v 1859.534 560.7043 -1453.28
v 1902.499 560.7043 -2308.372
v 2315.236 560.7043 -2247.484
v 2258.797 560.7043 -1027.577
v 2427.477 560.7043 -688.439
v 2551.285 560.7043 -2044.357
v 2615.351 560.7043 852.0481
v 2435.231 560.7043 -266.1682
v 2428.875 560.7043 1147.841
v 2406.249 560.7043 43.73413
v 2802.08 560.7043 -1938.599
v 3085.289 560.7043 271.3943
v 2990.589 560.7043 -1441.331
v 3236.553 560.7043 -1123.675
v 3213.546 560.7043 -410.4419
v 3229.817 560.7043 -109.8186
v 3324.262 560.7043 -641.0256
v 3073.467 560.7043 -1654.5
v 2298.457 560.7043 327.5784
v 2091.516 560.7043 1147.841
v 1948.387 560.7043 760.1453
v 1708.778 560.7043 1564.264
v 1809.452 560.7043 980.5593
v 1558.276 560.7043 980.5593
v 1266.677 560.7043 1294.911
v 872.626 560.7043 1103.224
v 819.6199 560.7043 1557.146
v 610.7725 560.7043 1285.505
v 509.9717 560.7043 1557.146
v 380.189 560.7043 1285.505
v 187.6121 560.7043 1064.2
v -1411.093 560.7043 1529.562
v -1084.793 560.7043 1933.02
v -1464.989 560.7043 1933.02
v -824.9734 560.7043 1646.507
v -559.4331 560.7043 1488.886
v -660.6155 560.7043 1933.02
v -361.2634 560.7043 1933.02
v -268.8521 560.7043 1565.408
v -79.83423 560.7043 1207.966
v -660.6155 560.7043 1933.02
v -660.2341 0.007080078 2016.025
v -849.1243 0.007080078 1802.221
v -849.1243 0.007080078 1802.221
v -824.9734 560.7043 1646.507
v -660.6155 560.7043 1933.02
v -184.9573 1407.406 -402.0522
v -182.0337 1407.406 720.6125
v -586.5081 1407.406 627.5657
v -1075.64 1407.406 -277.2273
v -395.7112 1407.406 -574.9268
v -184.9573 1407.406 -402.0522
v 276.5916 1407.406 754.2976
v -182.0337 1407.406 720.6125
v 635.814 1407.406 -665.177
v 144.3936 1407.406 -658.1858
v 635.814 1407.406 -665.177
v 627.6787 1407.406 559.0518
v 276.5916 1407.406 754.2976
v 965.6731 1407.406 -421.3735
v 635.814 1407.406 -665.177
v 988.8076 1407.406 272.7925
v 965.6731 1407.406 -421.3735
v 1084.016 1407.406 40.81055
v -2902.641 1407.406 264.1489
v -2633.796 1407.406 900.7327
v -2950.436 1407.406 705.2322
v -2314.36 1407.406 82.12231
v -1688.708 1407.406 881.7927
v -1709.936 1407.406 68.26709
v -1075.64 1407.406 -277.2273
v -808.1941 1407.406 893.9958
v -586.5081 1407.406 627.5657
v 1677 970.0095 929.3333
v 1809.452 560.7043 980.5593
v 1558.276 560.7043 980.5593
v 1440.696 970.0095 929.3333
v 1065.203 970.0095 -1485.694
v 1159.267 560.7043 -1586.241
v 1417.561 560.7043 -1593.995
v 1308.244 970.0095 -1492.939
v -184.9573 1407.406 -402.0522
v -395.7112 1407.406 -574.9268
v -145.8062 970.0095 -641.1526
v -1232.117 970.0095 -480.8628
v -1017.168 970.0095 -374.7231
v -1350.841 970.0095 -179.8584
vt 0.5032216 0.1929702
vt 0.5041477 0.2050098
vt 0.5004432 0.2050098
vt 0.4995171 0.1929702
vt 0.5115567 0.2300151
vt 0.513409 0.2300151
vt 0.5124828 0.2420547
vt 0.5198918 0.22168
vt 0.5198918 0.2105665
vt 0.5235963 0.2105665
vt 0.5235963 0.2105665
vt 0.5235963 0.22168
vt 0.5198918 0.22168
vt 0.4874775 0.2003792
vt 0.4846991 0.1892657
vt 0.4874775 0.1892657
vt 0.4976649 0.1966747
vt 0.5004432 0.1966747
vt 0.5013694 0.2087143
vt 0.5013694 0.2087143
vt 0.498591 0.2087143
vt 0.4976649 0.1966747
vt 0.5078522 0.2402025
vt 0.5097045 0.2281629
vt 0.5115567 0.2281629
vt 0.5208179 0.2429808
vt 0.5217441 0.2309412
vt 0.5254486 0.2429808
vt 0.5254486 0.2309412
vt 0.5226702 0.2189016
vt 0.5300792 0.2189016
vt 0.529153 0.229089
vt 0.529153 0.229089
vt 0.5226702 0.229089
vt 0.5226702 0.2189016
vt 0.5180395 0.2226062
vt 0.5189657 0.2114927
vt 0.5226702 0.2114927
vt 0.5217441 0.2226062
vt 0.5152612 0.2281629
vt 0.5124828 0.2170494
vt 0.5161873 0.2170494
vt 0.4921081 0.2309412
vt 0.491182 0.2198278
vt 0.4958126 0.2198278
vt 0.4958126 0.2198278
vt 0.4967387 0.2309412
vt 0.4921081 0.2309412
vt 0.5189657 0.229089
vt 0.5161873 0.229089
vt 0.5161873 0.2189016
vt 0.5161873 0.2189016
vt 0.5198918 0.2189016
vt 0.5189657 0.229089
vt 0.5115567 0.2429808
vt 0.5097045 0.2429808
vt 0.513409 0.2318674
vt 0.5069261 0.2114927
vt 0.5078522 0.2244584
vt 0.5050738 0.2244584
vt 0.5050738 0.2244584
vt 0.5050738 0.2114927
vt 0.5069261 0.2114927
vt 0.5078522 0.2059359
vt 0.506 0.1938963
vt 0.5087783 0.1938963
vt 0.4846991 0.2411286
vt 0.4809946 0.2411286
vt 0.483773 0.229089
vt 0.4846991 0.2411286
vt 0.483773 0.229089
vt 0.4865514 0.229089
vt 0.5078522 0.2226062
vt 0.5069261 0.2105665
vt 0.5115567 0.2105665
vt 0.5115567 0.2226062
vt 0.5069261 0.2263106
vt 0.5078522 0.2151971
vt 0.5115567 0.2151971
vt 0.5106305 0.2263106
vt 0.5226702 0.2309412
vt 0.5180395 0.2309412
vt 0.5189657 0.2198278
vt 0.5189657 0.2198278
vt 0.5245224 0.2198278
vt 0.5226702 0.2309412
vt 0.5013694 0.2226062
vt 0.5013694 0.2114927
vt 0.5041477 0.2114927
vt 0.5041477 0.2226062
vt 0.4948865 0.229089
vt 0.4948865 0.2179755
vt 0.4976649 0.2179755
vt 0.4976649 0.2179755
vt 0.4976649 0.229089
vt 0.4948865 0.229089
vt 0.2818781 0.161482
vt 0.2828042 0.168891
vt 0.2790997 0.1633342
vt 0.2855825 0.1661126
vt 0.5152612 0.2355719
vt 0.5180395 0.2235323
vt 0.5198918 0.2235323
vt 0.5180395 0.2355719
vt 0.5032216 0.2281629
vt 0.5013694 0.2151971
vt 0.5050738 0.2281629
vt 0.5402665 0.2327935
vt 0.5411927 0.2207539
vt 0.5448971 0.2207539
vt 0.529153 0.2179755
vt 0.5319314 0.2179755
vt 0.5310053 0.229089
vt 0.5310053 0.229089
vt 0.5282269 0.229089
vt 0.529153 0.2179755
vt 0.5022954 0.2411286
vt 0.5032216 0.2300151
vt 0.5069261 0.2300151
vt 0.5078522 0.243907
vt 0.5041477 0.243907
vt 0.506 0.2318674
vt 0.4884036 0.2300151
vt 0.4884036 0.2189016
vt 0.4921081 0.2189016
vt 0.4921081 0.2300151
vt 0.5263746 0.2031575
vt 0.536562 0.2031575
vt 0.5356359 0.2189016
vt 0.5356359 0.2189016
vt 0.5254486 0.2189016
vt 0.5263746 0.2031575
vt 0.506 0.2318674
vt 0.5041477 0.243907
vt 0.5032216 0.2318674
vt 0.5597152 0.2151971
vt 0.5615674 0.1994531
vt 0.5671241 0.1994531
vt 0.5652719 0.2151971
vt 0.5448971 0.2272367
vt 0.5476755 0.2272367
vt 0.5430449 0.2392763
vt 0.5476755 0.2272367
vt 0.5467494 0.2392763
vt 0.5430449 0.2392763
vt 0.506 0.2411286
vt 0.5022954 0.2411286
vt 0.5069261 0.2300151
vt 0.4708073 0.2420547
vt 0.4680289 0.2309412
vt 0.4698811 0.2309412
vt 0.4698811 0.2309412
vt 0.4726595 0.2420547
vt 0.4708073 0.2420547
vt 0.5143351 0.2392763
vt 0.5161873 0.2272367
vt 0.5189657 0.2272367
vt 0.5004432 0.2337196
vt 0.4976649 0.2207539
vt 0.5022954 0.2207539
vt 0.4958126 0.2411286
vt 0.4948865 0.229089
vt 0.4976649 0.229089
vt 0.5013694 0.2355719
vt 0.498591 0.2355719
vt 0.4976649 0.2244584
vt 0.5124828 0.2327935
vt 0.5115567 0.2448331
vt 0.5097045 0.2327935
vt 0.5411927 0.2420547
vt 0.5421188 0.2300151
vt 0.543971 0.2300151
vt 0.5124828 0.2374241
vt 0.5115567 0.2253845
vt 0.5143351 0.2253845
vt 0.5458233 0.2355719
vt 0.5467494 0.2235323
vt 0.5486016 0.2235323
vt 0.4893297 0.2189016
vt 0.4930342 0.2189016
vt 0.4902559 0.2300151
vt 0.4930342 0.2300151
vt 0.4809946 0.2411286
vt 0.4791424 0.229089
vt 0.483773 0.229089
vt 0.5198918 0.2383502
vt 0.5189657 0.2263106
vt 0.5217441 0.2263106
vt 0.5217441 0.2263106
vt 0.5217441 0.2383502
vt 0.5198918 0.2383502
vt 0.5226702 0.1790783
vt 0.5217441 0.1948224
vt 0.5161873 0.1948224
vt 0.5161873 0.1790783
vt 0.5041477 0.2337196
vt 0.5004432 0.2337196
vt 0.5022954 0.2207539
vt 0.468955 0.2420547
vt 0.4652505 0.2300151
vt 0.4671028 0.2300151
vt 0.5430449 0.2327935
vt 0.5411927 0.2327935
vt 0.5448971 0.2207539
vt 0.4995171 0.1781522
vt 0.4995171 0.1938963
vt 0.4948865 0.1938963
vt 0.4939604 0.1781522
vt 0.5097045 0.2337196
vt 0.5087783 0.2207539
vt 0.513409 0.2337196
vt 0.5124828 0.2207539
vt 0.5504539 0.2013053
vt 0.55138 0.1855612
vt 0.5569367 0.1855612
vt 0.5560106 0.2013053
vt 0.5013694 0.2429808
vt 0.4995171 0.2309412
vt 0.5032216 0.2309412
vt 0.4967387 0.229089
vt 0.4958126 0.2179755
vt 0.4995171 0.2179755
vt 0.4995171 0.2179755
vt 0.4995171 0.229089
vt 0.4967387 0.229089
vt 0.5004432 0.206862
vt 0.5013694 0.2198278
vt 0.5004432 0.2198278
vt 0.5273008 0.2207539
vt 0.529153 0.2087143
vt 0.5319314 0.2087143
vt 0.5300792 0.2207539
vt 0.5152612 0.1938963
vt 0.5143351 0.2059359
vt 0.5115567 0.2059359
vt 0.5124828 0.1938963
vt 0.4884036 0.1855612
vt 0.4874775 0.1698171
vt 0.491182 0.1698171
vt 0.5263746 0.2383502
vt 0.5245224 0.2263106
vt 0.5273008 0.2263106
vt 0.5032216 0.2013053
vt 0.5069261 0.2013053
vt 0.5069261 0.2124188
vt 0.5032216 0.2124188
vt 0.4865514 0.2300151
vt 0.4846991 0.2189016
vt 0.4902559 0.2189016
vt 0.491182 0.2300151
vt 0.5004432 0.2263106
vt 0.5004432 0.2151971
vt 0.5041477 0.2151971
vt 0.5041477 0.2263106
vt 0.536562 0.2096404
vt 0.5384143 0.1985269
vt 0.5421188 0.1985269
vt 0.5421188 0.1985269
vt 0.5402665 0.2096404
vt 0.536562 0.2096404
vt 0.5152612 0.2281629
vt 0.5143351 0.2402025
vt 0.5124828 0.2402025
vt 0.513409 0.2272367
vt 0.513409 0.2151971
vt 0.5171134 0.2151971
vt 0.5161873 0.2272367
vt 0.4809946 0.2309412
vt 0.4809946 0.2198278
vt 0.4865514 0.2198278
vt 0.4865514 0.2309412
vt 0.4846991 0.206862
vt 0.483773 0.192044
vt 0.4893297 0.192044
vt 0.4893297 0.192044
vt 0.4902559 0.206862
vt 0.4846991 0.206862
vt 0.4967387 0.214271
vt 0.4958126 0.1994531
vt 0.5004432 0.1994531
vt 0.5013694 0.214271
vt 0.5337837 0.1994531
vt 0.536562 0.1994531
vt 0.5347098 0.2151971
vt 0.5347098 0.2151971
vt 0.5328575 0.2151971
vt 0.5337837 0.1994531
vt 0.5180395 0.2151971
vt 0.5189657 0.2003792
vt 0.5263746 0.2003792
vt 0.5254486 0.2151971
vt 0.536562 0.2114927
vt 0.5356359 0.1966747
vt 0.5393404 0.1966747
vt 0.4624722 0.2189016
vt 0.4596938 0.2031575
vt 0.4624722 0.2031575
vt 0.5319314 0.2198278
vt 0.5245224 0.2198278
vt 0.5254486 0.2050098
vt 0.5328575 0.2050098
vt 0.4948865 0.1855612
vt 0.4939604 0.1698171
vt 0.4967387 0.1698171
vt 0.4967387 0.1698171
vt 0.4976649 0.1855612
vt 0.4948865 0.1855612
vt 0.5050738 0.1901918
vt 0.5124828 0.1901918
vt 0.5124828 0.2059359
vt 0.5124828 0.2059359
vt 0.5050738 0.2059359
vt 0.5050738 0.1901918
vt 0.5022954 0.2105665
vt 0.5013694 0.1948224
vt 0.506 0.1948224
vt 0.506 0.1948224
vt 0.506 0.2105665
vt 0.5022954 0.2105665
vt 0.4828469 0.1864873
vt 0.483773 0.2013053
vt 0.4800685 0.2013053
vt 0.4791424 0.1864873
vt 0.4921081 0.2309412
vt 0.4921081 0.2198278
vt 0.4958126 0.2198278
vt 0.4958126 0.2198278
vt 0.4948865 0.2309412
vt 0.4921081 0.2309412
vt 0.5097045 0.1800044
vt 0.5097045 0.1957486
vt 0.5069261 0.1957486
vt 0.5069261 0.1800044
vt 0.5097045 0.2189016
vt 0.5115567 0.2189016
vt 0.5106305 0.2300151
vt 0.4846991 0.2198278
vt 0.483773 0.2040837
vt 0.4893297 0.2040837
vt 0.4893297 0.2198278
vt 0.5013694 0.1994531
vt 0.5004432 0.183709
vt 0.5050738 0.183709
vt 0.506 0.1994531
vt 0.4735856 0.1911179
vt 0.4745117 0.206862
vt 0.4717334 0.206862
vt 0.4698811 0.1911179
vt 0.5087783 0.2161233
vt 0.5087783 0.2003792
vt 0.5143351 0.2003792
vt 0.513409 0.2161233
vt 0.5069261 0.1800044
vt 0.5069261 0.1948224
vt 0.5032216 0.1948224
vt 0.5022954 0.1800044
vt 0.4652505 0.2198278
vt 0.4671028 0.2309412
vt 0.4643244 0.2309412
vt 0.4902559 0.2179755
vt 0.4893297 0.2022314
vt 0.4939604 0.2022314
vt 0.4948865 0.2179755
vt 0.5448971 0.2253845
vt 0.5467494 0.214271
vt 0.55138 0.214271
vt 0.55138 0.214271
vt 0.5486016 0.2253845
vt 0.5448971 0.2253845
vt 0.468955 0.2198278
vt 0.4698811 0.2309412
vt 0.4680289 0.2309412
vt 0.5226702 0.2114927
vt 0.5235963 0.1966747
vt 0.5282269 0.1966747
vt 0.5273008 0.2114927
vt 0.4708073 0.2189016
vt 0.4698811 0.2040837
vt 0.4772902 0.2040837
vt 0.4772902 0.2040837
vt 0.4782163 0.2189016
vt 0.4708073 0.2189016
vt 0.5356359 0.2096404
vt 0.5374882 0.1938963
vt 0.5411927 0.1938963
vt 0.5393404 0.2096404
vt 0.498591 0.1864873
vt 0.5041477 0.1864873
vt 0.5041477 0.2022314
vt 0.4995171 0.2022314
vt 0.4809946 0.1892657
vt 0.491182 0.1892657
vt 0.4921081 0.2050098
vt 0.4828469 0.2050098
vt 0.4976649 0.2151971
vt 0.4976649 0.2003792
vt 0.5032216 0.2003792
vt 0.5022954 0.2151971
vt 0.4902559 0.2179755
vt 0.4893297 0.2031575
vt 0.4939604 0.2031575
vt 0.4939604 0.2179755
vt 0.5032216 0.2189016
vt 0.5087783 0.2189016
vt 0.5032216 0.2300151
vt 0.5087783 0.2189016
vt 0.5087783 0.2300151
vt 0.5032216 0.2300151
vt 0.4791424 0.1911179
vt 0.4782163 0.1753738
vt 0.4809946 0.1753738
vt 0.4828469 0.1911179
vt 0.4782163 0.2420547
vt 0.4754379 0.2309412
vt 0.4782163 0.2309412
vt 0.5217441 0.2179755
vt 0.5171134 0.2179755
vt 0.5171134 0.2031575
vt 0.5171134 0.2031575
vt 0.5217441 0.2031575
vt 0.5217441 0.2179755
vt 0.4930342 0.183709
vt 0.4921081 0.1679648
vt 0.4958126 0.1679648
vt 0.4958126 0.1679648
vt 0.4967387 0.183709
vt 0.4930342 0.183709
vt 0.4976649 0.2124188
vt 0.4958126 0.2013053
vt 0.4976649 0.2013053
vt 0.476364 0.2309412
vt 0.476364 0.2198278
vt 0.4800685 0.2198278
vt 0.4800685 0.2198278
vt 0.4800685 0.2309412
vt 0.476364 0.2309412
vt 0.5356359 0.2031575
vt 0.5393404 0.2031575
vt 0.5384143 0.2179755
vt 0.5384143 0.2179755
vt 0.5347098 0.2179755
vt 0.5356359 0.2031575
vt 0.4865514 0.2133449
vt 0.483773 0.1985269
vt 0.4865514 0.1985269
vt 0.5198918 0.1938963
vt 0.5189657 0.2059359
vt 0.5152612 0.2059359
vt 0.5152612 0.1938963
vt 0.4958126 0.1929702
vt 0.4948865 0.1809306
vt 0.4976649 0.1809306
vt 0.4976649 0.1809306
vt 0.498591 0.1929702
vt 0.4958126 0.1929702
vt 0.5337837 0.2114927
vt 0.5356359 0.1966747
vt 0.5393404 0.1966747
vt 0.5384143 0.2114927
vt 0.4902559 0.1827828
vt 0.4948865 0.1827828
vt 0.4958126 0.1985269
vt 0.491182 0.1985269
vt 0.4745117 0.2170494
vt 0.4726595 0.2013053
vt 0.4782163 0.2013053
vt 0.4791424 0.2170494
vt 0.5337837 0.2309412
vt 0.5310053 0.2309412
vt 0.5328575 0.2198278
vt 0.5356359 0.2198278
vt 0.5124828 0.1883396
vt 0.5124828 0.1725955
vt 0.5152612 0.1725955
vt 0.5152612 0.1883396
vt 0.5495278 0.2161233
vt 0.5504539 0.2013053
vt 0.5541584 0.2013053
vt 0.5532323 0.2161233
vt 0.5143351 0.2263106
vt 0.5152612 0.2151971
vt 0.5198918 0.2151971
vt 0.5189657 0.2263106
vt 0.513409 0.2114927
vt 0.513409 0.1966747
vt 0.5180395 0.1966747
vt 0.5180395 0.2114927
vt 0.468955 0.2105665
vt 0.4671028 0.1957486
vt 0.4708073 0.1957486
vt 0.4708073 0.1957486
vt 0.4717334 0.2105665
vt 0.468955 0.2105665
vt 0.5143351 0.22168
vt 0.5124828 0.2105665
vt 0.5152612 0.2105665
vt 0.5615674 0.2050098
vt 0.5615674 0.1901918
vt 0.5643458 0.1901918
vt 0.5467494 0.2031575
vt 0.55138 0.2031575
vt 0.5495278 0.2189016
vt 0.5495278 0.2189016
vt 0.5458233 0.2189016
vt 0.5467494 0.2031575
vt 0.4865514 0.2198278
vt 0.4856252 0.2040837
vt 0.4930342 0.2040837
vt 0.4930342 0.2040837
vt 0.4939604 0.2198278
vt 0.4865514 0.2198278
vt 0.506 0.2114927
vt 0.5050738 0.1966747
vt 0.5115567 0.1966747
vt 0.5115567 0.1966747
vt 0.5115567 0.2114927
vt 0.506 0.2114927
vt 0.5393404 0.2272367
vt 0.5393404 0.2161233
vt 0.5421188 0.2161233
vt 0.2957699 0.1420334
vt 0.2976221 0.1374028
vt 0.296696 0.1522207
vt 0.2976221 0.1485162
vt 0.3004005 0.1374028
vt 0.3022528 0.1457379
vt 0.3031789 0.131846
vt 0.3068834 0.1272154
vt 0.3078095 0.1420334
vt 0.3105879 0.1281415
vt 0.3133662 0.1429595
vt 0.3142924 0.1253632
vt 0.3170708 0.1512946
vt 0.3161446 0.1188803
vt 0.3179969 0.1188803
vt 0.3198491 0.1938963
vt 0.3179969 0.1716693
vt 0.3170708 0.2031575
vt 0.3133662 0.183709
vt 0.3124401 0.1976008
vt 0.3096617 0.2031575
vt 0.3087356 0.1901918
vt 0.3078095 0.2031575
vt 0.3050312 0.1874134
vt 0.3050312 0.1938963
vt 0.3022528 0.1901918
vt 0.3031789 0.1976008
vt 0.2985483 0.2096404
vt 0.2985483 0.1864873
vt 0.2957699 0.1948224
vt 0.2957699 0.2105665
vt 0.2920654 0.1938963
vt 0.2846564 0.2105665
vt 0.2846564 0.1948224
vt 0.2772474 0.1948224
vt 0.274469 0.1948224
vt 0.274469 0.2114927
vt 0.2716907 0.192044
vt 0.2707646 0.2059359
vt 0.2689123 0.1985269
vt 0.2679862 0.183709
vt 0.2707646 0.2059359
vt 0.2679862 0.183709
vt 0.2716907 0.192044
vt 0.2707646 0.2059359
vt 0.3226275 0.1235109
vt 0.3226275 0.1938963
vt 0.3235536 0.1874134
vt 0.3272581 0.1753738
vt 0.3272581 0.1355505
vt 0.3291104 0.1457379
vt 0.3291104 0.1605559
vt 0.5013694 0.2244584
vt 0.5013694 0.2355719
vt 0.4976649 0.2244584
vt 0.5300792 0.2022314
vt 0.5319314 0.1864873
vt 0.5356359 0.1864873
vt 0.5337837 0.2022314
vt 0.4819207 0.2179755
vt 0.4809946 0.2022314
vt 0.4865514 0.2022314
vt 0.4874775 0.2179755
vt 0.5078522 0.2040837
vt 0.5124828 0.2040837
vt 0.5124828 0.2161233
vt 0.5078522 0.2161233
vt 0.4532109 0.2198278
vt 0.4513587 0.2040837
vt 0.4550632 0.2040837
vt 0.4569154 0.2198278
vt 0.5161873 0.1790783
vt 0.5152612 0.1948224
vt 0.5115567 0.1948224
vt 0.5115567 0.1790783
vt 0.5004432 0.2244584
vt 0.5004432 0.2133449
vt 0.5032216 0.2133449
vt 0.5041477 0.2244584
vt 0.5254486 0.2189016
vt 0.5217441 0.2189016
vt 0.5217441 0.2040837
vt 0.5263746 0.2040837
vt 0.513409 0.2161233
vt 0.513409 0.2013053
vt 0.5180395 0.2013053
vt 0.5180395 0.2161233
vt 0.5235963 0.2114927
vt 0.5235963 0.1966747
vt 0.529153 0.1966747
vt 0.529153 0.2114927
vt 0.5115567 0.2151971
vt 0.5041477 0.2151971
vt 0.5041477 0.1994531
vt 0.5115567 0.1994531
vt 0.5032216 0.2087143
vt 0.5013694 0.1966747
vt 0.5050738 0.1966747
vt 0.5319314 0.2133449
vt 0.5319314 0.1985269
vt 0.5356359 0.1985269
vt 0.5356359 0.1985269
vt 0.5347098 0.2133449
vt 0.5319314 0.2133449
vt 0.536562 0.2189016
vt 0.5328575 0.2189016
vt 0.5337837 0.2040837
vt 0.5374882 0.2040837
vt 0.4782163 0.2189016
vt 0.476364 0.2040837
vt 0.483773 0.2040837
vt 0.4846991 0.2189016
vt 0.4652505 0.2198278
vt 0.4633983 0.2040837
vt 0.468955 0.2040837
vt 0.4698811 0.2198278
vt 0.5569367 0.2198278
vt 0.558789 0.2040837
vt 0.5634196 0.2040837
vt 0.5615674 0.2198278
vt 0.5476755 0.2198278
vt 0.5421188 0.2198278
vt 0.543971 0.2050098
vt 0.5495278 0.2050098
vt 0.5467494 0.2031575
vt 0.5458233 0.2151971
vt 0.543971 0.2151971
vt 0.4967387 0.2114927
vt 0.4967387 0.1966747
vt 0.5022954 0.1966747
vt 0.5013694 0.2114927
vt 0.4902559 0.2031575
vt 0.4976649 0.2031575
vt 0.498591 0.2151971
vt 0.4921081 0.2151971
vt 0.4495064 0.2189016
vt 0.4467281 0.2040837
vt 0.4504325 0.2040837
vt 0.4522848 0.2189016
vt 0.5050738 0.2429808
vt 0.5013694 0.2429808
vt 0.5032216 0.2309412
vt 0.2522421 0.1911179
vt 0.2550205 0.1763
vt 0.2540943 0.206862
vt 0.266134 0.1855612
vt 0.2679862 0.2031575
vt 0.2670601 0.1651865
vt 0.2670601 0.1651865
vt 0.2679862 0.1772261
vt 0.266134 0.1855612
vt 0.2726168 0.1679648
vt 0.2698385 0.1549991
vt 0.2735429 0.1549991
vt 0.2790997 0.1605559
vt 0.2633556 0.1605559
vt 0.2670601 0.2235323
vt 0.2615033 0.2253845
vt 0.2596511 0.1624081
vt 0.2568727 0.2207539
vt 0.2559466 0.1670387
vt 0.2540943 0.206862
vt 0.2550205 0.1763
vt 0.2679862 0.2031575
vt 0.2707646 0.22168
vt 0.2726168 0.214271
vt 0.274469 0.2300151
vt 0.2772474 0.2124188
vt 0.2781736 0.2300151
vt 0.2818781 0.2207539
vt 0.2828042 0.1549991
vt 0.2818781 0.161482
vt 0.2855825 0.1661126
vt 0.2855825 0.1401811
vt 0.2883609 0.161482
vt 0.2902132 0.1494424
vt 0.289287 0.1374028
vt 0.2920654 0.1374028
vt 0.2929915 0.1559252
vt 0.2920654 0.1272154
vt 0.2929915 0.1485162
vt 0.2957699 0.1198064
vt 0.2957699 0.1401811
vt 0.2957699 0.1485162
vt 0.2976221 0.1346244
vt 0.2994744 0.1198064
vt 0.3004005 0.1346244
vt 0.3022528 0.1272154
vt 0.3022528 0.1401811
vt 0.3031789 0.1114713
vt 0.304105 0.1290677
vt 0.3087356 0.1049884
vt 0.3078095 0.124437
vt 0.311514 0.1253632
vt 0.311514 0.1114713
vt 0.3142924 0.1040623
vt 0.3152185 0.1225848
vt 0.3170708 0.1161019
vt 0.318923 0.1022101
vt 0.3198491 0.1161019
vt 0.3207752 0.09387495
vt 0.3244797 0.1207325
vt 0.3254059 0.09387495
vt 0.3291104 0.0957272
vt 0.3291104 0.1336983
vt 0.3309626 0.1438856
vt 0.3318887 0.1022101
vt 0.3328148 0.192044
vt 0.3309626 0.1568514
vt 0.3309626 0.2003792
vt 0.3300365 0.1670387
vt 0.3346671 0.1049884
vt 0.3383716 0.1735216
vt 0.3365194 0.1207325
vt 0.3392977 0.1309199
vt 0.3392977 0.1522207
vt 0.3392977 0.161482
vt 0.3402238 0.1457379
vt 0.3374455 0.1142497
vt 0.3291104 0.1753738
vt 0.3272581 0.2003792
vt 0.3254059 0.1883396
vt 0.3226275 0.2133449
vt 0.3235536 0.1957486
vt 0.3207752 0.1957486
vt 0.3179969 0.2050098
vt 0.3133662 0.1994531
vt 0.3133662 0.2133449
vt 0.3105879 0.2050098
vt 0.3096617 0.2133449
vt 0.3078095 0.2050098
vt 0.3059573 0.1985269
vt 0.2883609 0.2124188
vt 0.2920654 0.2253845
vt 0.2874348 0.2253845
vt 0.2948438 0.2161233
vt 0.2976221 0.2114927
vt 0.296696 0.2253845
vt 0.3004005 0.2253845
vt 0.3013266 0.2133449
vt 0.3031789 0.2022314
vt 0.491182 0.2161233
vt 0.4902559 0.2013053
vt 0.4939604 0.2013053
vt 0.4939604 0.2013053
vt 0.4939604 0.2161233
vt 0.491182 0.2161233
vt 0.3013266 0.1818567
vt 0.3022528 0.1874134
vt 0.2976221 0.1846351
vt 0.2920654 0.1568514
vt 0.2994744 0.1475901
vt 0.3013266 0.1818567
vt 0.3068834 0.1883396
vt 0.3022528 0.1874134
vt 0.3078095 0.1429595
vt 0.304105 0.1448117
vt 0.3078095 0.1429595
vt 0.3105879 0.1827828
vt 0.3068834 0.1883396
vt 0.3142924 0.1522207
vt 0.3078095 0.1429595
vt 0.3152185 0.1735216
vt 0.3142924 0.1522207
vt 0.3161446 0.1661126
vt 0.2716907 0.1735216
vt 0.2753952 0.1929702
vt 0.2716907 0.1874134
vt 0.2781736 0.1679648
vt 0.2855825 0.1929702
vt 0.2855825 0.1670387
vt 0.2920654 0.1568514
vt 0.2948438 0.1929702
vt 0.2976221 0.1846351
vt 0.4846991 0.2272367
vt 0.4828469 0.2161233
vt 0.4865514 0.2161233
vt 0.4884036 0.2272367
vt 0.5254486 0.2226062
vt 0.5273008 0.2114927
vt 0.5300792 0.2114927
vt 0.5282269 0.2226062
vt 0.5022954 0.2392763
vt 0.4995171 0.2392763
vt 0.5032216 0.2272367
vt 0.2902132 0.1503685
vt 0.2911393 0.1531469
vt 0.289287 0.1596297
vn 0.9137185 0.3960755 0.09078913
vn 0.9137185 0.3960755 0.09078913
vn 0.9137185 0.3960755 0.09078913
vn 0.9215616 0.3803893 -0.07764142
vn -0.4980354 0.1215677 -0.858593
vn -0.4980354 0.1215677 -0.858593
vn -0.4980354 0.1215677 -0.858593
vn -0.1764693 0.3882324 0.9045078
vn -0.1764693 0.3882324 0.9045078
vn -0.1764693 0.3882324 0.9045078
vn -0.003921628 0.1215677 0.9925754
vn -0.003921628 0.1215677 0.9925754
vn -0.003921628 0.1215677 0.9925754
vn -0.8352878 0.3254877 -0.4431162
vn -0.8352878 0.3254877 -0.4431162
vn -0.8352878 0.3254877 -0.4431162
vn 0.8745031 0.35686 0.328474
vn 0.8745031 0.35686 0.328474
vn 0.8745031 0.35686 0.328474
vn 0.8745031 0.4274478 0.2292
vn 0.8745031 0.4274478 0.2292
vn 0.8745031 0.4274478 0.2292
vn -0.1843123 0.09019542 -0.9787204
vn -0.1843123 0.09019542 -0.9787204
vn -0.1843123 0.09019542 -0.9787204
vn 0.7490139 0.2078416 0.6291105
vn 0.7490139 0.2078416 0.6291105
vn 0.7490139 0.2078416 0.6291105
vn 0.7490139 0.2078416 0.6291105
vn 0.7725431 0.4901924 0.4035945
vn 0.7725431 0.4901924 0.4035945
vn 0.7725431 0.4901924 0.4035945
vn 0.6941123 0.2784293 0.6638413
vn 0.6941123 0.2784293 0.6638413
vn 0.6941123 0.2784293 0.6638413
vn -0.2549001 0.15294 -0.954796
vn -0.2549001 0.15294 -0.954796
vn -0.2549001 0.15294 -0.954796
vn -0.2549001 0.15294 -0.954796
vn -0.9999924 -0.05097997 0
vn -0.9999924 -0.05097997 0
vn -0.9999924 -0.05097997 0
vn -0.756857 0.01960778 0.6532863
vn -0.756857 0.01960778 0.6532863
vn -0.756857 0.01960778 0.6532863
vn -0.8117585 0.06666625 0.5801756
vn -0.8117585 0.06666625 0.5801756
vn -0.8117585 0.06666625 0.5801756
vn -0.9764632 0.1294109 0.172547
vn -0.9764632 0.1294109 0.172547
vn -0.9764632 0.1294109 0.172547
vn -0.9999924 0.05098009 0
vn -0.9999924 0.05098009 0
vn -0.9999924 0.05098009 0
vn -0.5764662 0.349017 -0.7388328
vn -0.5764662 0.349017 -0.7388328
vn -0.5764662 0.349017 -0.7388328
vn 0.9372478 0.2627431 -0.2292002
vn 0.9372478 0.2627431 -0.2292002
vn 0.9372478 0.2627431 -0.2292002
vn 0.8901893 0.443134 -0.1058081
vn 0.8901893 0.443134 -0.1058081
vn 0.8901893 0.443134 -0.1058081
vn 0.9215616 0.3803893 0.07764142
vn 0.9215616 0.3803893 0.07764142
vn 0.9215616 0.3803893 0.07764142
vn -0.01960778 -0.08235228 -0.9964104
vn -0.01960778 -0.08235228 -0.9964104
vn -0.01960778 -0.08235228 -0.9964104
vn -0.3882324 0.0823524 -0.9178746
vn -0.3882324 0.0823524 -0.9178746
vn -0.3882324 0.0823524 -0.9178746
vn 0.56078 0.2156847 0.7993785
vn 0.56078 0.2156847 0.7993785
vn 0.56078 0.2156847 0.7993785
vn 0.56078 0.2156847 0.7993785
vn -0.6392108 0.1294109 -0.7580649
vn -0.6392108 0.1294109 -0.7580649
vn -0.6392108 0.1294109 -0.7580649
vn -0.6392108 0.1294109 -0.7580649
vn -0.9764632 0.05098009 -0.2095726
vn -0.9764632 0.05098009 -0.2095726
vn -0.9764632 0.05098009 -0.2095726
vn -0.960777 -0.003921509 -0.2772942
vn -0.960777 -0.003921509 -0.2772942
vn -0.960777 -0.003921509 -0.2772942
vn 0.1058815 0.2156847 -0.9707055
vn 0.1058815 0.2156847 -0.9707055
vn 0.1058815 0.2156847 -0.9707055
vn 0.1058815 0.2156847 -0.9707055
vn -0.003921628 0.4039185 -0.9147866
vn -0.003921628 0.4039185 -0.9147866
vn -0.003921628 0.4039185 -0.9147866
vn -0.1058816 0.349017 -0.9311156
vn -0.1058816 0.349017 -0.9311156
vn -0.1058816 0.349017 -0.9311156
vn -0.003921628 0.9999924 0
vn -0.003921628 0.9999924 0
vn -0.003921628 0.9999924 0
vn -0.003921628 0.9999924 0
vn 0.56078 0.3411739 -0.7544045
vn 0.56078 0.3411739 -0.7544045
vn 0.56078 0.3411739 -0.7544045
vn 0.56078 0.3411739 -0.7544045
vn 0.8274447 0.450977 0.3345969
vn 0.8274447 0.450977 0.3345969
vn 0.8274447 0.450977 0.3345969
vn -0.3725462 0.2156847 0.9026015
vn -0.3725462 0.2156847 0.9026015
vn -0.3725462 0.2156847 0.9026015
vn 0.4901923 0.2862724 0.8232616
vn 0.4901923 0.2862724 0.8232616
vn 0.4901923 0.2862724 0.8232616
vn 0.1450969 0.1058816 0.9837357
vn 0.1450969 0.1058816 0.9837357
vn 0.1450969 0.1058816 0.9837357
vn -0.2156847 0.3098016 -0.9260147
vn -0.2156847 0.3098016 -0.9260147
vn -0.2156847 0.3098016 -0.9260147
vn -0.2235278 0.05882311 0.972921
vn -0.2235278 0.05882311 0.972921
vn -0.2235278 0.05882311 0.972921
vn -0.4823493 0.003921628 -0.8759702
vn -0.4823493 0.003921628 -0.8759702
vn -0.4823493 0.003921628 -0.8759702
vn -0.5137216 -0.01960766 -0.8577329
vn 0.9137185 0.0823524 0.3979152
vn 0.9137185 0.0823524 0.3979152
vn 0.9137185 0.0823524 0.3979152
vn 0.9215616 0.1215677 0.3687079
vn 0.9215616 0.1215677 0.3687079
vn 0.9215616 0.1215677 0.3687079
vn -0.35686 0.1686262 0.9188123
vn -0.35686 0.1686262 0.9188123
vn -0.35686 0.1686262 0.9188123
vn 0.1215677 0.1215677 0.9851105
vn 0.1215677 0.1215677 0.9851105
vn 0.1215677 0.1215677 0.9851105
vn 0.1215677 0.1215677 0.9851105
vn 0.09019536 -0.003921509 0.9959164
vn 0.09019536 -0.003921509 0.9959164
vn 0.09019536 -0.003921509 0.9959164
vn 0.01960766 0.15294 0.9880409
vn 0.01960766 0.15294 0.9880409
vn 0.01960766 0.15294 0.9880409
vn -0.3960755 -0.09019536 -0.9137774
vn -0.3960755 -0.09019536 -0.9137774
vn -0.3960755 -0.09019536 -0.9137774
vn -0.003921628 0.349017 -0.9371082
vn -0.003921628 0.349017 -0.9371082
vn -0.003921628 0.349017 -0.9371082
vn -0.2941154 0.145097 -0.944692
vn -0.2941154 0.145097 -0.944692
vn -0.2941154 0.145097 -0.944692
vn 0.02745074 0.15294 -0.9878541
vn 0.02745074 0.15294 -0.9878541
vn 0.02745074 0.15294 -0.9878541
vn 0.6313677 0.2784293 0.7237762
vn 0.6313677 0.2784293 0.7237762
vn 0.6313677 0.2784293 0.7237762
vn -0.1137247 0.1999985 -0.9731738
vn -0.1137247 0.1999985 -0.9731738
vn -0.1137247 0.1999985 -0.9731738
vn -0.4745063 0.07450926 -0.877093
vn -0.4745063 0.07450926 -0.877093
vn -0.4745063 0.07450926 -0.877093
vn -0.6392108 -0.3333308 -0.6930369
vn -0.6392108 -0.3333308 -0.6930369
vn -0.6392108 -0.3333308 -0.6930369
vn -0.003921628 0.1607832 0.9869819
vn -0.003921628 0.1607832 0.9869819
vn -0.003921628 0.1607832 0.9869819
vn 0.3254877 0.1999985 0.9241527
vn 0.3254877 0.1999985 0.9241527
vn 0.3254877 0.1999985 0.9241527
vn -0.7097986 0.2549001 0.6566672
vn -0.7097986 0.2549001 0.6566672
vn -0.7097986 0.2549001 0.6566672
vn -0.3803893 0.2392139 -0.8933536
vn -0.3803893 0.2392139 -0.8933536
vn -0.3803893 0.2392139 -0.8933536
vn -0.3960755 0.2235278 -0.8905951
vn 0.3882323 0.3176447 -0.8650882
vn 0.3882323 0.3176447 -0.8650882
vn 0.3882323 0.3176447 -0.8650882
vn -0.0823524 0.145097 0.9859843
vn -0.0823524 0.145097 0.9859843
vn -0.0823524 0.145097 0.9859843
vn -0.01176465 0.09803855 0.9951131
vn -0.01176465 0.09803855 0.9951131
vn -0.01176465 0.09803855 0.9951131
vn 0.6941123 0.2705863 -0.6670766
vn 0.6941123 0.2705863 -0.6670766
vn 0.6941123 0.2705863 -0.6670766
vn 0.6941123 0.2705863 -0.6670766
vn 0.5921524 0.3176447 0.7405791
vn 0.5921524 0.3176447 0.7405791
vn 0.5921524 0.3176447 0.7405791
vn -0.8196017 0.3019586 -0.4869026
vn -0.8196017 0.3019586 -0.4869026
vn -0.8196017 0.3019586 -0.4869026
vn -0.4980354 0.3098016 0.8099282
vn -0.4980354 0.3098016 0.8099282
vn -0.4980354 0.3098016 0.8099282
vn 0.9450908 0.2862724 -0.1576433
vn 0.9450908 0.2862724 -0.1576433
vn 0.9450908 0.2862724 -0.1576433
vn 0.9450908 0.2862724 -0.1576433
vn 0.4666631 0.2705863 0.8420265
vn 0.4666631 0.2705863 0.8420265
vn 0.4666631 0.2705863 0.8420265
vn 0.4666631 0.2784293 0.8394657
vn -0.35686 0.2156847 0.9089175
vn -0.35686 0.2156847 0.9089175
vn -0.35686 0.2156847 0.9089175
vn -0.35686 0.2156847 0.9089175
vn -0.3176447 0.01176465 0.9481368
vn -0.3176447 0.01176465 0.9481368
vn -0.3176447 0.01176465 0.9481368
vn 0.7019554 0.1215677 -0.7017691
vn 0.7019554 0.1215677 -0.7017691
vn 0.7019554 0.1215677 -0.7017691
vn 0.8196016 0.2235278 -0.5275306
vn 0.8196016 0.2235278 -0.5275306
vn 0.8196016 0.2235278 -0.5275306
vn -0.8196017 0.5686232 -0.07014849
vn -0.8196017 0.5686232 -0.07014849
vn -0.8196017 0.5686232 -0.07014849
vn 0.2862723 0.3019586 -0.9093235
vn 0.2862723 0.3019586 -0.9093235
vn 0.2862723 0.3019586 -0.9093235
vn 0.2862723 0.3019586 -0.9093235
vn 0.8274447 0.3882324 -0.4057228
vn 0.8274447 0.3882324 -0.4057228
vn 0.8274447 0.3882324 -0.4057228
vn 0.8274447 0.3882324 -0.4057228
vn -0.9529339 0.2705863 -0.1367481
vn -0.9529339 0.2705863 -0.1367481
vn -0.9529339 0.2705863 -0.1367481
vn 0.02745074 0.15294 0.9878541
vn 0.02745074 0.15294 0.9878541
vn 0.02745074 0.15294 0.9878541
vn 0.8039154 0.3254877 0.4977727
vn 0.8039154 0.3254877 0.4977727
vn 0.8039154 0.3254877 0.4977727
vn 0.8039154 0.3254877 0.4977727
vn -0.4352908 0.05882311 0.8983662
vn -0.4352908 0.05882311 0.8983662
vn -0.4352908 0.05882311 0.8983662
vn -0.4196047 0.05098009 0.9062743
vn -0.003921628 0.15294 -0.9882277
vn -0.003921628 0.15294 -0.9882277
vn -0.003921628 0.15294 -0.9882277
vn -0.003921628 0.15294 -0.9882277
vn -0.5843093 0.35686 0.7288576
vn -0.5843093 0.35686 0.7288576
vn -0.5843093 0.35686 0.7288576
vn -0.5294077 0.2156847 0.8204923
vn -0.5294077 0.2156847 0.8204923
vn -0.5294077 0.2156847 0.8204923
vn -0.01176465 0.1764693 -0.9842358
vn -0.01176465 0.1764693 -0.9842358
vn -0.01176465 0.1764693 -0.9842358
vn 0.4431338 0.3411739 0.828995
vn 0.4431338 0.3411739 0.828995
vn 0.4431338 0.3411739 0.828995
vn 0.4431338 0.3411739 0.828995
vn 0.35686 0.003921628 -0.9341497
vn 0.35686 0.003921628 -0.9341497
vn 0.35686 0.003921628 -0.9341497
vn 0.3725461 0.01960778 -0.9278065
vn -0.850974 0.03529394 -0.5240207
vn -0.850974 0.03529394 -0.5240207
vn -0.850974 0.03529394 -0.5240207
vn -0.7490139 0.145097 -0.6464713
vn -0.7490139 0.145097 -0.6464713
vn -0.7490139 0.145097 -0.6464713
vn -0.003921628 0.1215677 0.9925754
vn -0.003921628 0.1215677 0.9925754
vn -0.003921628 0.1215677 0.9925754
vn -0.003921628 0.1215677 0.9925754
vn 0.9921493 0.1058816 -0.06654979
vn 0.9921493 0.1058816 -0.06654979
vn 0.9921493 0.1058816 -0.06654979
vn 0.3490169 0.06666625 0.9347421
vn 0.3490169 0.06666625 0.9347421
vn 0.3490169 0.06666625 0.9347421
vn -0.4117616 0.09019542 -0.906817
vn -0.4117616 0.09019542 -0.906817
vn -0.4117616 0.09019542 -0.906817
vn -0.4117616 0.09019542 -0.906817
vn -0.2235278 0.349017 0.9100673
vn -0.2235278 0.349017 0.9100673
vn -0.2235278 0.349017 0.9100673
vn -0.2392139 0.04313695 -0.9700082
vn -0.2392139 0.04313695 -0.9700082
vn -0.2392139 0.04313695 -0.9700082
vn -0.960777 -0.01176459 -0.2770723
vn -0.960777 -0.01176459 -0.2770723
vn -0.960777 -0.01176459 -0.2770723
vn -0.960777 -0.01176459 -0.2770723
vn -0.9294047 0.2784293 0.2422478
vn -0.9294047 0.2784293 0.2422478
vn -0.9294047 0.2784293 0.2422478
vn -0.8431308 0.1843123 0.505133
vn -0.8431308 0.1843123 0.505133
vn -0.8431308 0.1843123 0.505133
vn 0.7725431 0.3411739 0.5355161
vn 0.7725431 0.3411739 0.5355161
vn 0.7725431 0.3411739 0.5355161
vn 0.7176416 0.2078416 0.6646746
vn 0.7176416 0.2078416 0.6646746
vn 0.7176416 0.2078416 0.6646746
vn -0.7333277 0.145097 0.6642118
vn -0.7333277 0.145097 0.6642118
vn -0.7333277 0.145097 0.6642118
vn -0.9137186 0.3960755 -0.09078848
vn -0.9137186 0.3960755 -0.09078848
vn -0.9137186 0.3960755 -0.09078848
vn 0.8745031 0.2392139 0.4219253
vn 0.8745031 0.2392139 0.4219253
vn 0.8745031 0.2392139 0.4219253
vn 0.8745031 0.2392139 0.4219253
vn 0.6235247 0.03529394 -0.7810066
vn 0.6235247 0.03529394 -0.7810066
vn 0.6235247 0.03529394 -0.7810066
vn 0.4431338 -0.1137246 -0.8892127
vn 0.4431338 -0.1137246 -0.8892127
vn 0.4431338 -0.1137246 -0.8892127
vn 0.6313677 0.2549001 -0.7323939
vn 0.6313677 0.2549001 -0.7323939
vn 0.6313677 0.2549001 -0.7323939
vn 0.6313677 0.2549001 -0.7323939
vn -0.4745063 0.4196047 -0.773806
vn -0.4745063 0.4196047 -0.773806
vn -0.4745063 0.4196047 -0.773806
vn 0.5843092 0.003921628 -0.8115216
vn 0.5843092 0.003921628 -0.8115216
vn 0.5843092 0.003921628 -0.8115216
vn 0.5999954 0.01176465 -0.799917
vn -0.6705831 0.2156847 0.7097875
vn -0.6705831 0.2156847 0.7097875
vn -0.6705831 0.2156847 0.7097875
vn -0.6705831 0.2156847 0.7097875
vn 0.9137185 0.2078416 0.3491709
vn 0.9137185 0.2078416 0.3491709
vn 0.9137185 0.2078416 0.3491709
vn 0.9137185 0.2078416 0.3491709
vn -0.647054 0.0823524 -0.7579837
vn -0.647054 0.0823524 -0.7579837
vn -0.647054 0.0823524 -0.7579837
vn -0.647054 0.0823524 -0.7579837
vn 0.960777 0.2784293 0
vn 0.960777 0.2784293 0
vn 0.960777 0.2784293 0
vn 0.960777 0.2784293 0
vn -0.8274447 -0.2627431 -0.4962876
vn -0.8274447 -0.2627431 -0.4962876
vn -0.8274447 -0.2627431 -0.4962876
vn 0.7019554 0.0823524 -0.7074437
vn 0.7019554 0.0823524 -0.7074437
vn 0.7019554 0.0823524 -0.7074437
vn 0.7019554 0.0823524 -0.7074437
vn 0.1372538 -0.1372538 0.9809806
vn 0.1372538 -0.1372538 0.9809806
vn 0.1372538 -0.1372538 0.9809806
vn 0.01176459 0.1999985 0.9797255
vn 0.01176459 0.1999985 0.9797255
vn 0.01176459 0.1999985 0.9797255
vn -0.003921628 0.0274508 -0.9996155
vn -0.003921628 0.0274508 -0.9996155
vn -0.003921628 0.0274508 -0.9996155
vn -0.1294109 0.1215677 -0.9841108
vn -0.1294109 0.1215677 -0.9841108
vn -0.1294109 0.1215677 -0.9841108
vn -0.1294109 0.1215677 -0.9841108
vn 0.35686 -0.03529382 -0.9334909
vn 0.35686 -0.03529382 -0.9334909
vn 0.35686 -0.03529382 -0.9334909
vn 0.3960754 -0.003921509 -0.9182096
vn 0.3960754 -0.003921509 -0.9182096
vn 0.3960754 -0.003921509 -0.9182096
vn 0.1450969 0.1843123 -0.9720987
vn 0.1450969 0.1843123 -0.9720987
vn 0.1450969 0.1843123 -0.9720987
vn 0.1450969 0.1843123 -0.9720987
vn 0.8196016 0.2313708 0.5241381
vn 0.8196016 0.2313708 0.5241381
vn 0.8196016 0.2313708 0.5241381
vn 0.8196016 0.2313708 0.5241381
vn 0.756857 0.2235278 0.6141685
vn 0.756857 0.2235278 0.6141685
vn 0.756857 0.2235278 0.6141685
vn 0.756857 0.2235278 0.6141685
vn -0.003921628 0.1058816 -0.994371
vn -0.003921628 0.1058816 -0.994371
vn -0.003921628 0.1058816 -0.994371
vn -0.003921628 0.1058816 -0.994371
vn -0.003921628 0.05882311 -0.9982607
vn -0.003921628 0.05882311 -0.9982607
vn -0.003921628 0.05882311 -0.9982607
vn -0.003921628 0.05882311 -0.9982607
vn -0.9058754 0.1058816 -0.410096
vn -0.9058754 0.1058816 -0.410096
vn -0.9058754 0.1058816 -0.410096
vn -0.9294047 0.05882311 -0.3643442
vn -0.9294047 0.05882311 -0.3643442
vn -0.9294047 0.05882311 -0.3643442
vn -0.7960724 0.1999985 -0.5712
vn -0.7960724 0.1999985 -0.5712
vn -0.7960724 0.1999985 -0.5712
vn -0.7960724 0.1999985 -0.5712
vn -0.3960755 0.2156847 -0.8925269
vn -0.3960755 0.2156847 -0.8925269
vn -0.3960755 0.2156847 -0.8925269
vn -0.960777 0.1686262 0.2201651
vn -0.960777 0.1686262 0.2201651
vn -0.960777 0.1686262 0.2201651
vn -0.9999924 0.05098009 0
vn -0.9999924 0.05098009 0
vn -0.9999924 0.05098009 0
vn -0.9137186 0.3411739 0.2207232
vn -0.9137186 0.3411739 0.2207232
vn -0.9137186 0.3411739 0.2207232
vn -0.9058754 0.3882324 0.1693083
vn -0.9058754 0.3882324 0.1693083
vn -0.9058754 0.3882324 0.1693083
vn 0.3176446 0.4117616 0.8541395
vn 0.3176446 0.4117616 0.8541395
vn 0.3176446 0.4117616 0.8541395
vn 0.05097997 0.2078416 -0.9768331
vn 0.05097997 0.2078416 -0.9768331
vn 0.05097997 0.2078416 -0.9768331
vn -0.3411739 0.01176465 -0.9399266
vn -0.3411739 0.01176465 -0.9399266
vn -0.3411739 0.01176465 -0.9399266
vn 0.6392108 0.09019542 0.763724
vn 0.6392108 0.09019542 0.763724
vn 0.6392108 0.09019542 0.763724
vn 0.7333277 0.15294 0.6624498
vn 0.7333277 0.15294 0.6624498
vn 0.7333277 0.15294 0.6624498
vn 0.06666613 0.1294109 0.9893475
vn 0.06666613 0.1294109 0.9893475
vn 0.06666613 0.1294109 0.9893475
vn 0.6784261 0.3647032 -0.6377535
vn 0.6784261 0.3647032 -0.6377535
vn 0.6784261 0.3647032 -0.6377535
vn 0.6784261 0.3647032 -0.6377535
vn -0.9215616 0.3019586 0.244019
vn -0.9215616 0.3019586 0.244019
vn -0.9215616 0.3019586 0.244019
vn -0.8823463 0.4745063 0
vn -0.8823463 0.4745063 0
vn -0.8823463 0.4745063 0
vn -0.0274508 0.15294 -0.9878541
vn -0.0274508 0.15294 -0.9878541
vn -0.0274508 0.15294 -0.9878541
vn -0.0274508 0.15294 -0.9878541
vn 0.9058754 0.2549001 0.3382537
vn 0.9058754 0.2549001 0.3382537
vn 0.9058754 0.2549001 0.3382537
vn 0.9058754 0.2549001 0.3382537
vn -0.003921628 0.09019542 0.9959164
vn -0.003921628 0.09019542 0.9959164
vn -0.003921628 0.09019542 0.9959164
vn -0.003921628 0.09019542 0.9959164
vn -0.8039155 -0.04313689 -0.5931771
vn -0.8039155 -0.04313689 -0.5931771
vn -0.8039155 -0.04313689 -0.5931771
vn -0.8039155 -0.04313689 -0.5931771
vn -0.8980324 0.2392139 -0.3692079
vn -0.8980324 0.2392139 -0.3692079
vn -0.8980324 0.2392139 -0.3692079
vn -0.8980324 0.2392139 -0.3692079
vn 0.04313689 0.15294 0.9872935
vn 0.04313689 0.15294 0.9872935
vn 0.04313689 0.15294 0.9872935
vn 0.04313689 0.15294 0.9872935
vn -0.4039185 0.145097 -0.9032146
vn -0.4039185 0.145097 -0.9032146
vn -0.4039185 0.145097 -0.9032146
vn -0.4039185 0.145097 -0.9032146
vn -0.003921628 0.145097 0.9894097
vn -0.003921628 0.145097 0.9894097
vn -0.003921628 0.145097 0.9894097
vn -0.003921628 0.145097 0.9894097
vn 0.654897 -0.1450969 -0.7416582
vn 0.654897 -0.1450969 -0.7416582
vn 0.654897 -0.1450969 -0.7416582
vn 0.4352908 -0.2156846 -0.8740721
vn 0.4352908 -0.2156846 -0.8740721
vn 0.4352908 -0.2156846 -0.8740721
vn -0.247057 0.1921555 0.9497575
vn -0.247057 0.1921555 0.9497575
vn -0.247057 0.1921555 0.9497575
vn -0.7097986 0.2705863 0.6503607
vn -0.7097986 0.2705863 0.6503607
vn -0.7097986 0.2705863 0.6503607
vn 0.7490139 0.01176465 0.6624498
vn 0.7490139 0.01176465 0.6624498
vn 0.7490139 0.01176465 0.6624498
vn 0.6862693 -0.01960766 0.7270833
vn 0.6862693 -0.01960766 0.7270833
vn 0.6862693 -0.01960766 0.7270833
vn -0.8117585 0.003921628 0.5839801
vn -0.8117585 0.003921628 0.5839801
vn -0.8117585 0.003921628 0.5839801
vn -0.8352878 0.03529394 0.548679
vn -0.8352878 0.03529394 0.548679
vn -0.8352878 0.03529394 0.548679
vn 0.5686231 0.09019542 0.8176385
vn 0.5686231 0.09019542 0.8176385
vn 0.5686231 0.09019542 0.8176385
vn 0.4980354 0.1607832 0.8521206
vn 0.4980354 0.1607832 0.8521206
vn 0.4980354 0.1607832 0.8521206
vn 0.3647031 0.3882324 0.8463258
vn 0.3647031 0.3882324 0.8463258
vn 0.3647031 0.3882324 0.8463258
vn -0.003921628 0.9999924 0
vn -0.003921628 0.9999924 0
vn -0.003921628 0.9999924 0
vn -0.003921628 0.9999924 0
vn -0.003921628 0.9999924 0
vn -0.003921628 0.9999924 0
vn -0.003921628 0.9999924 0
vn -0.003921628 0.9999924 0
vn -0.003921628 0.9999924 0
vn -0.003921628 0.9999924 0
vn -0.003921628 0.9999924 0
vn -0.003921628 0.9999924 0
vn -0.003921628 0.9999924 0
vn -0.003921628 0.9999924 0
vn -0.003921628 0.9999924 0
vn -0.003921628 0.9999924 0
vn -0.003921628 0.9999924 0
vn -0.003921628 0.9999924 0
vn -0.003921628 0.9999924 0
vn -0.003921628 0.9999924 0
vn -0.003921628 0.9999924 0
vn -0.003921628 0.9999924 0
vn -0.003921628 0.9999924 0
vn -0.003921628 0.9999924 0
vn -0.003921628 0.9999924 0
vn -0.003921628 0.9999924 0
vn -0.003921628 0.9999924 0
vn -0.003921628 0.9999924 0
vn -0.003921628 0.9999924 0
vn -0.003921628 0.9999924 0
vn -0.003921628 0.9999924 0
vn -0.003921628 0.9999924 0
vn -0.003921628 0.9999924 0
vn -0.003921628 0.9999924 0
vn -0.003921628 0.9999924 0
vn -0.003921628 0.9999924 0
vn -0.003921628 0.9999924 0
vn -0.003921628 0.9999924 0
vn -0.003921628 0.9999924 0
vn -0.003921628 0.9999924 0
vn -0.003921628 0.9999924 0
vn -0.003921628 0.9999924 0
vn -0.003921628 0.9999924 0
vn -0.003921628 0.9999924 0
vn -0.003921628 0.9999924 0
vn -0.003921628 0.9999924 0
vn -0.003921628 0.9999924 0
vn -0.003921628 0.9999924 0
vn -0.003921628 0.9999924 0
vn -0.003921628 0.9999924 0
vn -0.003921628 0.9999924 0
vn -0.003921628 0.9999924 0
vn -0.5058786 0.1294109 -0.8528421
vn -0.5058786 0.1294109 -0.8528421
vn -0.5058786 0.1294109 -0.8528421
vn 0.3803892 0.2156847 -0.8993243
vn 0.3803892 0.2156847 -0.8993243
vn 0.3803892 0.2156847 -0.8993243
vn 0.3803892 0.2156847 -0.8993243
vn -0.4823493 0.05098009 -0.8744943
vn -0.4823493 0.05098009 -0.8744943
vn -0.4823493 0.05098009 -0.8744943
vn -0.4745063 0.05882311 -0.8782845
vn 0.7019554 0.2784293 0.6555423
vn 0.7019554 0.2784293 0.6555423
vn 0.7019554 0.2784293 0.6555423
vn 0.7097985 0.2862724 0.6436103
vn -0.2078416 0.05098009 -0.9768331
vn -0.2078416 0.05098009 -0.9768331
vn -0.2078416 0.05098009 -0.9768331
vn -0.2078416 0.05098009 -0.9768331
vn 0.7647001 0.2627431 -0.5883875
vn 0.7647001 0.2627431 -0.5883875
vn 0.7647001 0.2627431 -0.5883875
vn 0.7647001 0.2627431 -0.5883875
vn -0.003921628 0.1686262 0.9856722
vn -0.003921628 0.1686262 0.9856722
vn -0.003921628 0.1686262 0.9856722
vn -0.003921628 0.1686262 0.9856722
vn -0.9999924 0.0274508 0
vn -0.9999924 0.0274508 0
vn -0.9999924 0.0274508 0
vn -0.9999924 0.0274508 0
vn 0.45882 0.2549001 0.8511816
vn 0.45882 0.2549001 0.8511816
vn 0.45882 0.2549001 0.8511816
vn 0.45882 0.2549001 0.8511816
vn -0.003921628 0.145097 0.9894097
vn -0.003921628 0.145097 0.9894097
vn -0.003921628 0.145097 0.9894097
vn -0.003921628 0.145097 0.9894097
vn -0.8823463 0.09019542 -0.4618764
vn -0.8823463 0.09019542 -0.4618764
vn -0.8823463 0.09019542 -0.4618764
vn -0.8823463 0.09019542 -0.4618764
vn -0.3882324 0.7097986 0.5877598
vn -0.3882324 0.7097986 0.5877598
vn -0.3882324 0.7097986 0.5877598
vn -0.003921628 0.4352908 0.9002814
vn -0.003921628 0.4352908 0.9002814
vn -0.003921628 0.4352908 0.9002814
vn 0.3960754 0.05882311 0.9163319
vn 0.3960754 0.05882311 0.9163319
vn 0.3960754 0.05882311 0.9163319
vn -0.6784263 0.01960778 -0.7344068
vn -0.6784263 0.01960778 -0.7344068
vn -0.6784263 0.01960778 -0.7344068
vn -0.6784263 0.01960778 -0.7344068
vn -0.5058786 0.1215677 0.8539954
vn -0.5058786 0.1215677 0.8539954
vn -0.5058786 0.1215677 0.8539954
vn -0.5137216 0.1294109 0.8481409
vn -0.003921628 0.01960778 -0.9998001
vn -0.003921628 0.01960778 -0.9998001
vn -0.003921628 0.01960778 -0.9998001
vn -0.003921628 0.01960778 -0.9998001
vn 0.2078415 0.09803855 0.973237
vn 0.2078415 0.09803855 0.973237
vn 0.2078415 0.09803855 0.973237
vn 0.2078415 0.09803855 0.973237
vn -0.8039155 -0.03529382 -0.5936954
vn -0.8039155 -0.03529382 -0.5936954
vn -0.8039155 -0.03529382 -0.5936954
vn -0.8039155 -0.03529382 -0.5936954
vn -0.7097986 0.3882324 0.5877598
vn -0.7097986 0.3882324 0.5877598
vn -0.7097986 0.3882324 0.5877598
vn 0.5921524 0.15294 -0.7911795
vn 0.5921524 0.15294 -0.7911795
vn 0.5921524 0.15294 -0.7911795
vn 0.5921524 0.15294 -0.7911795
vn 0.7411708 0.3098016 0.5955576
vn 0.7411708 0.3098016 0.5955576
vn 0.7411708 0.3098016 0.5955576
vn 0.7411708 0.3098016 0.5955576
vn -0.3960755 0.09803855 -0.9129692
vn -0.3960755 0.09803855 -0.9129692
vn -0.3960755 0.09803855 -0.9129692
vn -0.3960755 0.09803855 -0.9129692
vn -0.07450926 -0.08235228 0.9938141
vn -0.07450926 -0.08235228 0.9938141
vn -0.07450926 -0.08235228 0.9938141
vn -0.003921628 0.9999924 0
vn -0.003921628 0.9999924 0
vn -0.003921628 0.9999924 0
vn -0.003921628 -0.9999924 0
vn -0.003921628 -0.9999924 0
vn -0.003921628 -0.9999924 0
vn -0.003921628 0.9999924 0
vn -0.003921628 0.9999924 0
vn -0.003921628 0.9999924 0
vn -0.003921628 0.9999924 0
vn -0.003921628 0.9999924 0
vn -0.003921628 0.9999924 0
vn -0.003921628 0.9999924 0
vn -0.003921628 0.9999924 0
vn -0.003921628 0.9999924 0
vn -0.003921628 0.9999924 0
vn -0.003921628 0.9999924 0
vn -0.003921628 0.9999924 0
vn -0.003921628 0.9999924 0
vn -0.003921628 0.9999924 0
vn -0.003921628 0.9999924 0
vn -0.003921628 0.9999924 0
vn -0.003921628 0.9999924 0
vn -0.003921628 0.9999924 0
vn -0.003921628 0.9999924 0
vn -0.003921628 0.9999924 0
vn -0.003921628 0.9999924 0
vn -0.003921628 0.9999924 0
vn -0.003921628 0.9999924 0
vn -0.003921628 0.9999924 0
vn -0.003921628 0.9999924 0
vn -0.003921628 0.9999924 0
vn -0.003921628 0.9999924 0
vn -0.003921628 0.9999924 0
vn -0.003921628 0.9999924 0
vn -0.003921628 0.9999924 0
vn -0.003921628 0.9999924 0
vn -0.003921628 0.9999924 0
vn -0.003921628 0.9999924 0
vn -0.003921628 0.9999924 0
vn -0.003921628 0.9999924 0
vn -0.003921628 0.9999924 0
vn -0.003921628 0.9999924 0
vn -0.003921628 0.9999924 0
vn -0.003921628 0.9999924 0
vn -0.003921628 0.9999924 0
vn -0.003921628 0.9999924 0
vn -0.003921628 0.9999924 0
vn -0.003921628 0.9999924 0
vn -0.003921628 0.9999924 0
vn -0.003921628 0.9999924 0
vn -0.003921628 0.9999924 0
vn -0.003921628 0.9999924 0
vn -0.003921628 0.9999924 0
vn -0.003921628 0.9999924 0
vn -0.003921628 0.9999924 0
vn -0.003921628 0.9999924 0
vn -0.003921628 0.9999924 0
vn -0.003921628 0.9999924 0
vn -0.003921628 0.9999924 0
vn -0.003921628 0.9999924 0
vn -0.003921628 0.9999924 0
vn -0.003921628 0.9999924 0
vn -0.003921628 0.9999924 0
vn -0.003921628 0.9999924 0
vn -0.003921628 0.9999924 0
vn -0.003921628 0.9999924 0
vn -0.003921628 0.9999924 0
vn -0.003921628 0.9999924 0
vn -0.003921628 0.9999924 0
vn -0.003921628 0.9999924 0
vn -0.003921628 0.9999924 0
vn -0.003921628 0.9999924 0
vn -0.003921628 0.9999924 0
vn -0.003921628 0.9999924 0
vn -0.003921628 0.9999924 0
vn -0.003921628 0.9999924 0
vn -0.003921628 0.9999924 0
vn -0.003921628 0.9999924 0
vn -0.003921628 0.9999924 0
vn -0.003921628 0.9999924 0
vn -0.003921628 0.9999924 0
vn -0.003921628 0.9999924 0
vn -0.003921628 0.9999924 0
vn -0.003921628 0.9999924 0
vn -0.003921628 0.9999924 0
vn -0.003921628 0.9999924 0
vn -0.003921628 0.9999924 0
vn -0.003921628 0.9999924 0
vn -0.003921628 0.9999924 0
vn -0.003921628 0.9999924 0
vn -0.003921628 0.9999924 0
vn -0.003921628 0.9999924 0
vn -0.003921628 0.9999924 0
vn -0.003921628 0.9999924 0
vn -0.003921628 0.9999924 0
vn -0.003921628 0.9999924 0
vn -0.003921628 0.9999924 0
vn -0.003921628 0.9999924 0
vn -0.7490139 0.09803855 0.6552607
vn -0.7490139 0.09803855 0.6552607
vn -0.7490139 0.09803855 0.6552607
vn -0.850974 0.1764693 0.4946735
vn -0.850974 0.1764693 0.4946735
vn -0.850974 0.1764693 0.4946735
vn -0.003921628 0.9999924 0
vn -0.003921628 0.9999924 0
vn -0.003921628 0.9999924 0
vn -0.003921628 0.9999924 0
vn -0.003921628 0.9999924 0
vn -0.003921628 0.9999924 0
vn -0.003921628 0.9999924 0
vn -0.003921628 0.9999924 0
vn -0.003921628 0.9999924 0
vn -0.003921628 0.9999924 0
vn -0.003921628 0.9999924 0
vn -0.003921628 0.9999924 0
vn -0.003921628 0.9999924 0
vn -0.003921628 0.9999924 0
vn -0.003921628 0.9999924 0
vn -0.003921628 0.9999924 0
vn -0.003921628 0.9999924 0
vn -0.003921628 0.9999924 0
vn -0.003921628 0.9999924 0
vn -0.003921628 0.9999924 0
vn -0.003921628 0.9999924 0
vn -0.003921628 0.9999924 0
vn -0.003921628 0.9999924 0
vn -0.003921628 0.9999924 0
vn -0.003921628 0.9999924 0
vn -0.003921628 0.9999924 0
vn -0.003921628 0.9999924 0
vn -0.003921628 0.1215677 0.9925754
vn -0.003921628 0.1215677 0.9925754
vn -0.003921628 0.1215677 0.9925754
vn -0.003921628 0.1215677 0.9925754
vn -0.0274508 0.2313708 -0.9724783
vn -0.0274508 0.2313708 -0.9724783
vn -0.0274508 0.2313708 -0.9724783
vn -0.0274508 0.2313708 -0.9724783
vn 0.5686231 0.4352908 -0.6979898
vn 0.5686231 0.4352908 -0.6979898
vn 0.5686231 0.4352908 -0.6979898
vn -0.003921628 0.9999924 0
vn -0.003921628 0.9999924 0
vn -0.003921628 0.9999924 0
g Hill_Mound_Snow_01_0
f 3/3/3 2/2/2 1/1/1
f 1/1/1 4/4/4 3/3/3
f 7/7/7 6/6/6 5/5/5
f 10/10/10 9/9/9 8/8/8
f 13/13/13 12/12/12 11/11/11
f 16/16/16 15/15/15 14/14/14
f 19/19/19 18/18/18 17/17/17
f 22/22/22 21/21/21 20/20/20
f 25/25/25 24/24/24 23/23/23
f 28/28/28 27/27/27 26/26/26
f 28/28/28 29/29/29 27/27/27
f 32/32/32 31/31/31 30/30/30
f 35/35/35 34/34/34 33/33/33
f 38/38/38 37/37/37 36/36/36
f 36/36/36 39/39/39 38/38/38
f 42/42/42 41/41/41 40/40/40
f 45/45/45 44/44/44 43/43/43
f 48/48/48 47/47/47 46/46/46
f 51/51/51 50/50/50 49/49/49
f 54/54/54 53/53/53 52/52/52
f 57/57/57 56/56/56 55/55/55
f 60/60/60 59/59/59 58/58/58
f 63/63/63 62/62/62 61/61/61
f 66/66/66 65/65/65 64/64/64
f 69/69/69 68/68/68 67/67/67
f 72/72/72 71/71/71 70/70/70
f 75/75/75 74/74/74 73/73/73
f 73/73/73 76/76/76 75/75/75
f 79/79/79 78/78/78 77/77/77
f 77/77/77 80/80/80 79/79/79
f 83/83/83 82/82/82 81/81/81
f 86/86/86 85/85/85 84/84/84
f 89/89/89 88/88/88 87/87/87
f 87/87/87 90/90/90 89/89/89
f 93/93/93 92/92/92 91/91/91
f 96/96/96 95/95/95 94/94/94
f 99/99/99 98/98/98 97/97/97
f 98/98/98 100/100/100 97/97/97
f 103/103/103 102/102/102 101/101/101
f 103/103/103 101/101/101 104/104/104
f 107/107/107 106/106/106 105/105/105
f 110/110/110 109/109/109 108/108/108
f 113/113/113 112/112/112 111/111/111
f 116/116/116 115/115/115 114/114/114
f 119/119/119 118/118/118 117/117/117
f 122/122/122 121/121/121 120/120/120
f 125/125/125 124/124/124 123/123/123
f 123/123/123 126/126/126 125/125/125
f 129/129/129 128/128/128 127/127/127
f 132/132/132 131/131/131 130/130/130
f 135/135/135 134/134/134 133/133/133
f 138/138/138 137/137/137 136/136/136
f 136/136/136 139/139/139 138/138/138
f 142/142/142 141/141/141 140/140/140
f 145/145/145 144/144/144 143/143/143
f 148/148/148 147/147/147 146/146/146
f 151/151/151 150/150/150 149/149/149
f 154/154/154 153/153/153 152/152/152
f 157/157/157 156/156/156 155/155/155
f 160/160/160 159/159/159 158/158/158
f 163/163/163 162/162/162 161/161/161
f 166/166/166 165/165/165 164/164/164
f 169/169/169 168/168/168 167/167/167
f 172/172/172 171/171/171 170/170/170
f 175/175/175 174/174/174 173/173/173
f 178/178/178 177/177/177 176/176/176
f 181/181/181 180/180/180 179/179/179
f 181/181/181 182/182/182 180/180/180
f 185/185/185 184/184/184 183/183/183
f 188/188/188 187/187/187 186/186/186
f 191/191/191 190/190/190 189/189/189
f 194/194/194 193/193/193 192/192/192
f 192/192/192 195/195/195 194/194/194
f 198/198/198 197/197/197 196/196/196
f 201/201/201 200/200/200 199/199/199
f 204/204/204 203/203/203 202/202/202
f 207/207/207 206/206/206 205/205/205
f 205/205/205 208/208/208 207/207/207
f 211/211/211 210/210/210 209/209/209
f 211/211/211 212/212/212 210/210/210
f 215/215/215 214/214/214 213/213/213
f 215/215/215 213/213/213 216/216/216
f 219/219/219 218/218/218 217/217/217
f 222/222/222 221/221/221 220/220/220
f 225/225/225 224/224/224 223/223/223
f 228/228/228 227/227/227 226/226/226
f 231/231/231 230/230/230 229/229/229
f 229/229/229 232/232/232 231/231/231
f 235/235/235 234/234/234 233/233/233
f 233/233/233 236/236/236 235/235/235
f 239/239/239 238/238/238 237/237/237
f 242/242/242 241/241/241 240/240/240
f 245/245/245 244/244/244 243/243/243
f 243/243/243 246/246/246 245/245/245
f 249/249/249 248/248/248 247/247/247
f 247/247/247 250/250/250 249/249/249
f 253/253/253 252/252/252 251/251/251
f 251/251/251 254/254/254 253/253/253
f 257/257/257 256/256/256 255/255/255
f 260/260/260 259/259/259 258/258/258
f 263/263/263 262/262/262 261/261/261
f 266/266/266 265/265/265 264/264/264
f 264/264/264 267/267/267 266/266/266
f 270/270/270 269/269/269 268/268/268
f 268/268/268 271/271/271 270/270/270
f 274/274/274 273/273/273 272/272/272
f 277/277/277 276/276/276 275/275/275
f 280/280/280 279/279/279 278/278/278
f 278/278/278 281/281/281 280/280/280
f 284/284/284 283/283/283 282/282/282
f 287/287/287 286/286/286 285/285/285
f 290/290/290 289/289/289 288/288/288
f 288/288/288 291/291/291 290/290/290
f 294/294/294 293/293/293 292/292/292
f 297/297/297 296/296/296 295/295/295
f 300/300/300 299/299/299 298/298/298
f 298/298/298 301/301/301 300/300/300
f 304/304/304 303/303/303 302/302/302
f 307/307/307 306/306/306 305/305/305
f 310/310/310 309/309/309 308/308/308
f 313/313/313 312/312/312 311/311/311
f 316/316/316 315/315/315 314/314/314
f 319/319/319 318/318/318 317/317/317
f 322/322/322 321/321/321 320/320/320
f 320/320/320 323/323/323 322/322/322
f 326/326/326 325/325/325 324/324/324
f 329/329/329 328/328/328 327/327/327
f 332/332/332 331/331/331 330/330/330
f 330/330/330 333/333/333 332/332/332
f 336/336/336 335/335/335 334/334/334
f 339/339/339 338/338/338 337/337/337
f 337/337/337 340/340/340 339/339/339
f 343/343/343 342/342/342 341/341/341
f 341/341/341 344/344/344 343/343/343
f 347/347/347 346/346/346 345/345/345
f 345/345/345 348/348/348 347/347/347
f 351/351/351 350/350/350 349/349/349
f 349/349/349 352/352/352 351/351/351
f 355/355/355 354/354/354 353/353/353
f 353/353/353 356/356/356 355/355/355
f 359/359/359 358/358/358 357/357/357
f 362/362/362 361/361/361 360/360/360
f 360/360/360 363/363/363 362/362/362
f 366/366/366 365/365/365 364/364/364
f 369/369/369 368/368/368 367/367/367
f 372/372/372 371/371/371 370/370/370
f 375/375/375 374/374/374 373/373/373
f 373/373/373 376/376/376 375/375/375
f 379/379/379 378/378/378 377/377/377
f 382/382/382 381/381/381 380/380/380
f 385/385/385 384/384/384 383/383/383
f 383/383/383 386/386/386 385/385/385
f 389/389/389 388/388/388 387/387/387
f 387/387/387 390/390/390 389/389/389
f 393/393/393 392/392/392 391/391/391
f 391/391/391 394/394/394 393/393/393
f 397/397/397 396/396/396 395/395/395
f 395/395/395 398/398/398 397/397/397
f 401/401/401 400/400/400 399/399/399
f 399/399/399 402/402/402 401/401/401
f 405/405/405 404/404/404 403/403/403
f 408/408/408 407/407/407 406/406/406
f 411/411/411 410/410/410 409/409/409
f 409/409/409 412/412/412 411/411/411
f 415/415/415 414/414/414 413/413/413
f 418/418/418 417/417/417 416/416/416
f 421/421/421 420/420/420 419/419/419
f 424/424/424 423/423/423 422/422/422
f 427/427/427 426/426/426 425/425/425
f 430/430/430 429/429/429 428/428/428
f 433/433/433 432/432/432 431/431/431
f 436/436/436 435/435/435 434/434/434
f 439/439/439 438/438/438 437/437/437
f 442/442/442 441/441/441 440/440/440
f 445/445/445 444/444/444 443/443/443
f 448/448/448 447/447/447 446/446/446
f 446/446/446 449/449/449 448/448/448
f 452/452/452 451/451/451 450/450/450
f 455/455/455 454/454/454 453/453/453
f 458/458/458 457/457/457 456/456/456
f 456/456/456 459/459/459 458/458/458
f 462/462/462 461/461/461 460/460/460
f 460/460/460 463/463/463 462/462/462
f 466/466/466 465/465/465 464/464/464
f 464/464/464 467/467/467 466/466/466
f 470/470/470 469/469/469 468/468/468
f 468/468/468 471/471/471 470/470/470
f 474/474/474 473/473/473 472/472/472
f 472/472/472 475/475/475 474/474/474
f 478/478/478 477/477/477 476/476/476
f 476/476/476 479/479/479 478/478/478
f 482/482/482 481/481/481 480/480/480
f 480/480/480 483/483/483 482/482/482
f 486/486/486 485/485/485 484/484/484
f 484/484/484 487/487/487 486/486/486
f 490/490/490 489/489/489 488/488/488
f 493/493/493 492/492/492 491/491/491
f 496/496/496 495/495/495 494/494/494
f 499/499/499 498/498/498 497/497/497
f 502/502/502 501/501/501 500/500/500
f 505/505/505 504/504/504 503/503/503
f 508/508/508 507/507/507 506/506/506
f 511/511/511 510/510/510 509/509/509
f 514/514/514 513/513/513 512/512/512
f 517/517/517 516/516/516 515/515/515
f 520/520/520 519/519/519 518/518/518
f 523/523/523 522/522/522 521/521/521
f 523/523/523 524/524/524 522/522/522
f 524/524/524 525/525/525 522/522/522
f 524/524/524 526/526/526 525/525/525
f 526/526/526 528/528/528 527/527/527
f 526/526/526 529/529/529 528/528/528
f 529/529/529 530/530/530 528/528/528
f 529/529/529 531/531/531 530/530/530
f 531/531/531 532/532/532 530/530/530
f 531/531/531 533/533/533 532/532/532
f 533/533/533 534/534/534 532/532/532
f 533/533/533 535/535/535 534/534/534
f 536/536/536 535/535/535 533/533/533
f 536/536/536 533/533/533 537/537/537
f 538/538/538 536/536/536 537/537/537
f 538/538/538 537/537/537 539/539/539
f 540/540/540 538/538/538 539/539/539
f 541/541/541 540/540/540 539/539/539
f 541/541/541 539/539/539 542/542/542
f 543/543/543 541/541/541 542/542/542
f 543/543/543 542/542/542 544/544/544
f 545/545/545 543/543/543 544/544/544
f 545/545/545 544/544/544 546/546/546
f 547/547/547 545/545/545 546/546/546
f 548/548/548 547/547/547 546/546/546
f 548/548/548 546/546/546 549/549/549
f 548/548/548 549/549/549 550/550/550
f 551/551/551 548/548/548 550/550/550
f 551/551/551 550/550/550 552/552/552
f 553/553/553 551/551/551 552/552/552
f 553/553/553 552/552/552 554/554/554
f 553/553/553 554/554/554 555/555/555
f 553/553/553 555/555/555 556/556/556
f 557/557/557 553/553/553 556/556/556
f 557/557/557 556/556/556 558/558/558
f 559/559/559 557/557/557 558/558/558
f 562/562/562 561/561/561 560/560/560
f 565/565/565 564/564/564 563/563/563
f 536/536/536 566/566/566 535/535/535
f 536/536/536 567/567/567 566/566/566
f 567/567/567 568/568/568 566/566/566
f 568/568/568 569/569/569 566/566/566
f 566/566/566 569/569/569 570/570/570
f 569/569/569 571/571/571 570/570/570
f 569/569/569 572/572/572 571/571/571
f 575/575/575 574/574/574 573/573/573
f 578/578/578 577/577/577 576/576/576
f 576/576/576 579/579/579 578/578/578
f 582/582/582 581/581/581 580/580/580
f 580/580/580 583/583/583 582/582/582
f 586/586/586 585/585/585 584/584/584
f 584/584/584 587/587/587 586/586/586
f 590/590/590 589/589/589 588/588/588
f 588/588/588 591/591/591 590/590/590
f 594/594/594 593/593/593 592/592/592
f 592/592/592 595/595/595 594/594/594
f 598/598/598 597/597/597 596/596/596
f 596/596/596 599/599/599 598/598/598
f 602/602/602 601/601/601 600/600/600
f 600/600/600 603/603/603 602/602/602
f 606/606/606 605/605/605 604/604/604
f 604/604/604 607/607/607 606/606/606
f 610/610/610 609/609/609 608/608/608
f 608/608/608 611/611/611 610/610/610
f 614/614/614 613/613/613 612/612/612
f 612/612/612 615/615/615 614/614/614
f 618/618/618 617/617/617 616/616/616
f 621/621/621 620/620/620 619/619/619
f 624/624/624 623/623/623 622/622/622
f 627/627/627 626/626/626 625/625/625
f 625/625/625 628/628/628 627/627/627
f 631/631/631 630/630/630 629/629/629
f 629/629/629 632/632/632 631/631/631
f 635/635/635 634/634/634 633/633/633
f 633/633/633 636/636/636 635/635/635
f 639/639/639 638/638/638 637/637/637
f 637/637/637 640/640/640 639/639/639
f 643/643/643 642/642/642 641/641/641
f 641/641/641 644/644/644 643/643/643
f 647/647/647 646/646/646 645/645/645
f 650/650/650 649/649/649 648/648/648
f 648/648/648 651/651/651 650/650/650
f 654/654/654 653/653/653 652/652/652
f 652/652/652 655/655/655 654/654/654
f 658/658/658 657/657/657 656/656/656
f 658/658/658 656/656/656 659/659/659
f 662/662/662 661/661/661 660/660/660
f 665/665/665 664/664/664 663/663/663
f 668/668/668 667/667/667 666/666/666
f 671/671/671 670/670/670 669/669/669
f 670/670/670 672/672/672 669/669/669
f 673/673/673 669/669/669 672/672/672
f 672/672/672 674/674/674 673/673/673
f 672/672/672 675/675/675 674/674/674
f 677/677/677 669/669/669 676/676/676
f 678/678/678 677/677/677 676/676/676
f 678/678/678 676/676/676 679/679/679
f 680/680/680 678/678/678 679/679/679
f 680/680/680 679/679/679 681/681/681
f 682/682/682 680/680/680 681/681/681
f 683/683/683 682/682/682 681/681/681
f 677/677/677 684/684/684 669/669/669
f 677/677/677 685/685/685 684/684/684
f 685/685/685 686/686/686 684/684/684
f 685/685/685 687/687/687 686/686/686
f 687/687/687 688/688/688 686/686/686
f 687/687/687 689/689/689 688/688/688
f 689/689/689 690/690/690 688/688/688
f 692/692/692 691/691/691 675/675/675
f 692/692/692 693/693/693 691/691/691
f 693/693/693 694/694/694 691/691/691
f 693/693/693 695/695/695 694/694/694
f 695/695/695 696/696/696 694/694/694
f 696/696/696 698/698/698 697/697/697
f 696/696/696 699/699/699 698/698/698
f 699/699/699 700/700/700 698/698/698
f 699/699/699 701/701/701 700/700/700
f 701/701/701 702/702/702 700/700/700
f 701/701/701 703/703/703 702/702/702
f 701/701/701 704/704/704 703/703/703
f 703/703/703 705/705/705 702/702/702
f 705/705/705 706/706/706 702/702/702
f 705/705/705 707/707/707 706/706/706
f 707/707/707 708/708/708 706/706/706
f 707/707/707 709/709/709 708/708/708
f 709/709/709 710/710/710 708/708/708
f 709/709/709 711/711/711 710/710/710
f 711/711/711 712/712/712 710/710/710
f 711/711/711 713/713/713 712/712/712
f 713/713/713 714/714/714 712/712/712
f 714/714/714 715/715/715 712/712/712
f 714/714/714 716/716/716 715/715/715
f 714/714/714 717/717/717 716/716/716
f 717/717/717 718/718/718 716/716/716
f 718/718/718 719/719/719 716/716/716
f 718/718/718 720/720/720 719/719/719
f 720/720/720 721/721/721 719/719/719
f 720/720/720 722/722/722 721/721/721
f 722/722/722 723/723/723 721/721/721
f 722/722/722 724/724/724 723/723/723
f 722/722/722 725/725/725 724/724/724
f 725/725/725 726/726/726 724/724/724
f 726/726/726 727/727/727 724/724/724
f 728/728/728 727/727/727 726/726/726
f 728/728/728 726/726/726 729/729/729
f 730/730/730 728/728/728 729/729/729
f 731/731/731 730/730/730 729/729/729
f 728/728/728 732/732/732 727/727/727
f 728/728/728 733/733/733 732/732/732
f 732/732/732 733/733/733 734/734/734
f 733/733/733 735/735/735 734/734/734
f 733/733/733 736/736/736 735/735/735
f 733/733/733 737/737/737 736/736/736
f 736/736/736 738/738/738 735/735/735
f 734/734/734 739/739/739 732/732/732
f 730/730/730 731/731/731 740/740/740
f 741/741/741 730/730/730 740/740/740
f 741/741/741 740/740/740 742/742/742
f 743/743/743 741/741/741 742/742/742
f 743/743/743 742/742/742 744/744/744
f 743/743/743 744/744/744 745/745/745
f 743/743/743 745/745/745 746/746/746
f 748/748/748 746/746/746 747/747/747
f 748/748/748 747/747/747 749/749/749
f 750/750/750 748/748/748 749/749/749
f 750/750/750 749/749/749 751/751/751
f 752/752/752 750/750/750 751/751/751
f 755/755/755 754/754/754 753/753/753
f 754/754/754 756/756/756 753/753/753
f 756/756/756 758/758/758 757/757/757
f 758/758/758 759/759/759 757/757/757
f 759/759/759 760/760/760 757/757/757
f 759/759/759 761/761/761 760/760/760
f 764/764/764 763/763/763 762/762/762
f 767/767/767 766/766/766 765/765/765
f 770/770/770 769/769/769 768/768/768
f 770/770/770 768/768/768 771/771/771
f 768/768/768 772/772/772 771/771/771
f 775/775/775 774/774/774 773/773/773
f 774/774/774 776/776/776 773/773/773
f 773/773/773 776/776/776 777/777/777
f 780/780/780 779/779/779 778/778/778
f 782/782/782 779/779/779 781/781/781
f 779/779/779 783/783/783 781/781/781
f 783/783/783 785/785/785 784/784/784
f 788/788/788 787/787/787 786/786/786
f 787/787/787 789/789/789 786/786/786
f 787/787/787 790/790/790 789/789/789
f 790/790/790 791/791/791 789/789/789
f 790/790/790 792/792/792 791/791/791
f 790/790/790 793/793/793 792/792/792
f 793/793/793 794/794/794 792/792/792
f 797/797/797 796/796/796 795/795/795
f 795/795/795 798/798/798 797/797/797
f 801/801/801 800/800/800 799/799/799
f 799/799/799 802/802/802 801/801/801
f 805/805/805 804/804/804 803/803/803
f 808/808/808 807/807/807 806/806/806
