g Hill_Rock_02
v -5.460413 0.1073077 58.67915
v -5.776528 0.04446534 58.67915
v -5.776528 0.1073077 58.483
v -5.776528 2.506779 50.93609
v 1.964618 1.558416 58.67915
v 40.67417 17.23115 -18.74187
v 48.41722 9.34527 -10.99882
v 40.67417 21.3807 -10.99882
v 40.67417 15.04115 -3.257665
v 32.93303 18.62132 -3.257665
v 32.93303 24.25436 -10.99882
v 32.93303 9.670908 4.48539
v 40.67417 7.602794 12.22654
v 32.93303 1.70124 12.22654
v 9.707673 0.04446534 58.67915
v 9.389645 0.1073077 58.67915
v 9.572463 0.1073077 58.54394
v 1.964618 3.597965 50.93609
v 1.964618 1.558416 58.67915
v 48.41722 1.15279 35.45189
v 40.67417 4.715811 35.45189
v 40.67417 7.126709 27.71074
v 1.964618 3.597965 50.93609
v 1.964618 1.558416 58.67915
v -5.776528 2.506779 50.93609
v 40.67417 21.3807 -10.99882
v 48.41722 9.34527 -10.99882
v 48.41722 4.405408 -3.257665
v -5.776528 17.98337 35.45189
v 1.964618 3.352309 43.19494
v -5.776528 5.968872 43.19494
v 1.964618 3.352309 43.19494
v 1.964618 3.597965 50.93609
v -5.776528 5.968872 43.19494
v 40.67417 15.04115 -3.257665
v 48.41722 4.405408 -3.257665
v 48.41722 7.02578 4.48539
v 25.18997 14.39749 12.22654
v 32.93303 4.026443 19.96769
v 25.18997 14.54983 19.96769
v 38.65557 0.1073077 43.19494
v 37.46155 0.1073077 47.72347
v 32.93303 3.493228 43.19494
v 37.46155 0.1073077 47.72347
v 32.93303 0.1073077 48.04149
v 32.93303 3.493228 43.19494
v 48.41722 4.645352 27.71074
v 48.41722 1.15279 35.45189
v 40.67417 7.126709 27.71074
v -36.74494 0.8899876 50.93609
v -36.74494 0.1073077 52.96612
v -39.53671 0.1073077 50.93609
v -52.22915 0.1073077 -9.494386
v -52.22915 3.274225 -3.257665
v -56.70815 0.1073077 -7.736676
v 38.65557 0.1073077 43.19494
v 32.93303 3.493228 43.19494
v 32.93303 10.29744 35.45189
v 39.86292 0.1073077 42.38179
v 9.707673 1.558416 50.93609
v 1.964618 3.597965 50.93609
v 1.964618 3.352309 43.19494
v 56.15837 2.96763 4.48539
v 48.41722 4.405408 -3.257665
v 53.88269 0.1073077 -3.257665
v 56.15837 0.1073077 -0.2754667
v 61.6962 0.1073077 10.02131
v 56.15837 2.96763 4.48539
v 60.67548 0.1073077 4.48539
v 17.44882 0.1073077 -31.15437
v 17.44882 3.761736 -26.48302
v 12.41755 0.1073077 -31.51429
v -13.51958 0.2463225 50.93609
v -21.26073 0.8176237 50.93609
v -21.26073 3.129497 43.19494
v 45.94158 0.1073077 40.7193
v 40.67417 0.1073077 41.60101
v 40.67417 4.715811 35.45189
v -13.51958 12.92353 -26.48302
v -20.59612 0.1073077 -33.55955
v -13.51958 0.1073077 -33.93471
v -42.53985 0.1073077 -32.27983
v -36.74494 7.265731 -26.48302
v -42.96643 0.1073077 -26.48302
v -21.26073 16.98739 -26.48302
v -21.26073 0.1073077 -33.71
v -20.59612 0.1073077 -33.55955
v -13.51958 12.92353 -26.48302
v -19.28593 0.1073077 52.9109
v -21.26073 0.8176237 50.93609
v -13.51958 0.2463225 50.93609
v -13.51958 0.1073077 51.42741
v 40.67417 9.731853 4.48539
v 40.67417 7.602794 12.22654
v 32.93303 9.670908 4.48539
v 1.964618 27.09564 27.71074
v -5.776528 24.32292 27.71074
v -5.776528 16.6389 19.96769
v -24.91707 0.1073077 55.02281
v -29.00188 2.565813 50.93609
v -21.26073 0.8176237 50.93609
v -21.26073 0.1073077 52.8252
v -36.74494 7.265731 -26.48302
v -36.74494 0.1073077 -32.70641
v -35.90702 0.1073077 -33.38626
v -29.00188 14.50222 -26.48302
v 9.707673 0.1073077 58.36112
v 9.707673 0.04446534 58.67915
v 9.572463 0.1073077 58.54394
v 9.707673 1.558416 50.93609
v 1.964618 3.597965 50.93609
v -52.22915 0.1073077 14.72694
v -52.22915 1.036627 12.22654
v -44.48609 0.992828 19.96769
v -46.9046 0.1073077 19.96769
v 40.67417 7.602794 12.22654
v 40.67417 8.646373 19.96769
v 32.93303 1.70124 12.22654
v 48.41722 9.34527 -10.99882
v 55.2919 0.1073077 -10.99882
v 54.90151 0.1073077 -4.51453
v 5.007754 0.1073077 61.72038
v 1.964618 0.1073077 62.09173
v 1.964618 1.558416 58.67915
v -44.48609 3.767449 27.71074
v -49.5383 0.1073077 22.65852
v -46.9046 0.1073077 19.96769
v -44.48609 0.992828 19.96769
v 48.41722 3.152348 -26.48302
v 48.41722 9.929902 -18.74187
v 40.67417 7.141943 -26.48302
v 40.67417 8.646373 19.96769
v 32.93303 4.026443 19.96769
v 32.93303 1.70124 12.22654
v -5.776528 17.98337 35.45189
v 1.964618 13.01112 35.45189
v 1.964618 3.352309 43.19494
v -24.91707 0.1073077 55.02281
v -29.00188 0.1073077 55.52175
v -29.00188 2.565813 50.93609
v -8.14934 0.1073077 56.30634
v -13.51958 0.2463225 50.93609
v -5.776528 2.506779 50.93609
v -5.776528 0.1073077 58.483
v 12.74891 0.1073077 53.97923
v 9.707673 0.1073077 58.36112
v 9.707673 1.558416 50.93609
v 50.76338 0.1073077 37.79994
v 48.41722 0.1073077 37.97134
v 48.41722 1.15279 35.45189
v 40.67417 7.126709 27.71074
v 32.93303 9.545223 27.71074
v 32.93303 4.026443 19.96769
v 13.56587 0.1073077 50.93609
v 12.74891 0.1073077 53.97923
v 9.707673 1.558416 50.93609
v 40.67417 21.3807 -10.99882
v 40.67417 15.04115 -3.257665
v 32.93303 24.25436 -10.99882
v 55.29762 0.1073077 26.84998
v 48.41722 9.819451 19.96769
v 56.15837 3.203765 19.96769
v 56.15837 0.1073077 25.53027
v 48.41722 11.19058 12.22654
v 48.41722 9.819451 19.96769
v 40.67417 7.602794 12.22654
v 24.35587 0.1073077 -26.48302
v 17.44882 3.761736 -26.48302
v 17.44882 0.1073077 -31.15437
v -5.776528 16.6389 19.96769
v 1.964618 26.47102 19.96769
v 1.964618 27.09564 27.71074
v 48.41722 7.02578 4.48539
v 40.67417 9.731853 4.48539
v 40.67417 15.04115 -3.257665
v -5.776528 13.93473 -26.48302
v -13.24917 0.1073077 -33.95565
v -5.776528 0.1073077 -33.50242
v 40.67417 17.23115 -18.74187
v 40.67417 7.141943 -26.48302
v 48.41722 9.929902 -18.74187
v 48.41722 9.929902 -18.74187
v 48.41722 9.34527 -10.99882
v 40.67417 17.23115 -18.74187
v 40.67417 7.141943 -26.48302
v 34.6774 0.1073077 -32.47979
v 40.67417 0.1073077 -33.13298
v -49.0108 0.1073077 46.41138
v -52.22915 1.091852 43.19494
v -44.48609 3.99407 43.19494
v -44.48609 0.1073077 48.90035
v 40.67417 17.23115 -18.74187
v 32.93303 12.94638 -18.74187
v 32.93303 3.152348 -26.48302
v 48.41722 11.19058 12.22654
v 40.67417 7.602794 12.22654
v 40.67417 9.731853 4.48539
v 54.38734 0.1073077 -20.51291
v 55.50709 0.1073077 -18.74187
v 48.41722 9.929902 -18.74187
v 48.41722 3.152348 -26.48302
v 40.67417 4.715811 35.45189
v 32.93303 10.29744 35.45189
v 32.93303 9.545223 27.71074
v 1.964618 13.01112 35.45189
v 9.707673 1.023297 43.19494
v 1.964618 3.352309 43.19494
v -44.48609 6.601111 -3.257665
v -51.41408 0.1073077 -10.18376
v -49.4488 0.1073077 -10.99882
v -44.48609 1.470818 -10.99882
v 40.67417 21.3807 -10.99882
v 48.41722 4.405408 -3.257665
v 40.67417 15.04115 -3.257665
v 60.51741 0.1073077 24.32863
v 56.15837 0.1073077 25.53027
v 56.15837 3.203765 19.96769
v 9.707673 0.1073077 -32.19604
v 9.707673 5.650844 -26.48302
v 3.025335 0.1073077 -33.16345
v 48.41722 7.02578 4.48539
v 48.41722 11.19058 12.22654
v 40.67417 9.731853 4.48539
v -13.51958 9.272906 19.96769
v -21.26073 5.271878 12.22654
v -13.51958 0.992828 12.22654
v 53.04668 0.1073077 -26.48302
v 48.41722 3.152348 -26.48302
v 48.41722 0.1073077 -31.11247
v 9.707673 1.023297 43.19494
v 9.707673 1.558416 50.93609
v 1.964618 3.352309 43.19494
v 25.18997 6.848679 43.19494
v 25.18997 0.1073077 49.87728
v 23.37132 0.1073077 49.11744
v 17.44882 3.588444 43.19494
v -13.51958 9.272906 19.96769
v -13.51958 14.60316 27.71074
v -21.26073 10.0175 19.96769
v 32.93303 3.493228 43.19494
v 25.18997 6.848679 43.19494
v 25.18997 12.70072 35.45189
v 1.964618 3.597965 50.93609
v -5.776528 2.506779 50.93609
v -5.776528 5.968872 43.19494
v 48.41722 9.819451 19.96769
v 48.41722 4.645352 27.71074
v 40.67417 8.646373 19.96769
v 40.67417 7.141943 -26.48302
v 32.93303 3.152348 -26.48302
v 32.93303 0.1073077 -31.11247
v 34.6774 0.1073077 -32.47979
v 53.88269 0.1073077 -3.257665
v 48.41722 4.405408 -3.257665
v 48.41722 9.34527 -10.99882
v 54.90151 0.1073077 -4.51453
v 40.67417 7.126709 27.71074
v 40.67417 4.715811 35.45189
v 32.93303 9.545223 27.71074
v -34.29786 0.1073077 53.38317
v -36.74494 0.8899876 50.93609
v -29.00188 2.565813 50.93609
v -29.00188 0.1073077 55.52175
v 9.707673 6.267848 35.45189
v 9.707673 1.023297 43.19494
v 1.964618 13.01112 35.45189
v 48.41722 0.1073077 -31.11247
v 48.41722 3.152348 -26.48302
v 42.80513 0.1073077 -32.09512
v -44.48609 0.3396338 -18.74187
v -45.19831 0.1073077 -18.74187
v -45.17355 0.1073077 -19.42743
v 1.964618 1.558416 58.67915
v 1.964618 0.1073077 62.09173
v -5.460413 0.1073077 58.67915
v 39.86292 0.1073077 42.38179
v 32.93303 10.29744 35.45189
v 40.67417 4.715811 35.45189
v 40.67417 0.1073077 41.60101
v 54.52445 0.1073077 27.71074
v 53.65797 0.1073077 32.95149
v 48.41722 4.645352 27.71074
v 60.82401 0.1073077 19.96769
v 56.15837 3.203765 19.96769
v 56.15837 6.370689 12.22654
v 61.99709 0.1073077 18.06525
v 45.94158 0.1073077 40.7193
v 40.67417 4.715811 35.45189
v 48.41722 1.15279 35.45189
v 48.41722 0.1073077 37.97134
v 17.44882 3.588444 43.19494
v 9.707673 1.023297 43.19494
v 9.707673 6.267848 35.45189
v -29.00188 14.50222 -26.48302
v -35.90702 0.1073077 -33.38626
v -29.00188 0.1073077 -34.16704
v 12.68987 0.1073077 46.17714
v 9.707673 1.023297 43.19494
v 17.44882 3.588444 43.19494
v 17.44882 0.1073077 48.64898
v 60.67548 0.1073077 4.48539
v 56.15837 2.96763 4.48539
v 56.15837 0.1073077 -0.2754667
v 32.93303 3.152348 -26.48302
v 26.17261 0.1073077 -26.48302
v 28.60636 0.1073077 -30.80968
v -43.62342 0.1073077 -25.62035
v -36.74494 14.05661 -18.74187
v -44.48609 0.3396338 -18.74187
v -44.48609 0.1073077 -19.65405
v 17.44882 3.761736 -26.48302
v 9.707673 5.650844 -26.48302
v 9.707673 0.1073077 -32.19604
v 12.41755 0.1073077 -31.51429
v -36.74494 7.265731 -26.48302
v -36.74494 14.05661 -18.74187
v -43.62342 0.1073077 -25.62035
v -42.96643 0.1073077 -26.48302
v -19.28593 0.1073077 52.9109
v -21.26073 0.1073077 52.8252
v -21.26073 0.8176237 50.93609
v -52.22915 1.091852 27.71074
v -54.64575 0.1073077 27.71074
v -54.48007 0.1073077 25.45791
v 9.389645 0.1073077 58.67915
v 5.007754 0.1073077 61.72038
v 1.964618 1.558416 58.67915
v 48.41722 9.929902 -18.74187
v 55.50709 0.1073077 -18.74187
v 55.3376 0.1073077 -11.81959
v -8.14934 0.1073077 56.30634
v -13.51958 0.1073077 51.42741
v -13.51958 0.2463225 50.93609
v 23.37132 0.1073077 49.11744
v 17.44882 0.1073077 48.64898
v 17.44882 3.588444 43.19494
v 40.67417 15.04115 -3.257665
v 40.67417 9.731853 4.48539
v 32.93303 18.62132 -3.257665
v -13.51958 14.60316 27.71074
v -13.51958 10.11843 35.45189
v -21.26073 7.345712 27.71074
v -13.51958 9.272906 19.96769
v -21.26073 10.0175 19.96769
v -21.26073 5.271878 12.22654
v 40.67417 7.141943 -26.48302
v 40.67417 0.1073077 -33.13298
v 42.80513 0.1073077 -32.09512
v 48.41722 3.152348 -26.48302
v 32.93303 9.545223 27.71074
v 25.18997 17.15878 27.71074
v 25.18997 14.54983 19.96769
v -21.26073 10.0175 19.96769
v -21.26073 7.345712 27.71074
v -29.00188 15.49819 19.96769
v -36.74494 7.265731 -26.48302
v -42.53985 0.1073077 -32.27983
v -36.74494 0.1073077 -32.70641
v 50.93667 0.1073077 35.45189
v 48.41722 1.15279 35.45189
v 48.41722 4.645352 27.71074
v 53.65797 0.1073077 32.95149
v -52.22915 3.274225 -3.257665
v -57.1233 0.1073077 -3.257665
v -56.70815 0.1073077 -7.736676
v -29.00188 5.37091 43.19494
v -36.74494 5.955542 43.19494
v -36.74494 6.721083 35.45189
v -44.48609 1.470818 -10.99882
v -47.36355 0.1073077 -13.87628
v -45.19831 0.1073077 -18.74187
v -44.48609 0.3396338 -18.74187
v -5.776528 0.1073077 -33.50242
v -4.73295 0.1073077 -33.18059
v 1.964618 9.24815 -26.48302
v -5.776528 13.93473 -26.48302
v 62.70931 0.1073077 12.22654
v 61.99709 0.1073077 18.06525
v 56.15837 6.370689 12.22654
v -52.22915 1.091852 43.19494
v -52.22915 0.1073077 45.61155
v -54.64575 0.1073077 43.19494
v 50.93667 0.1073077 35.45189
v 50.76338 0.1073077 37.79994
v 48.41722 1.15279 35.45189
v 54.38734 0.1073077 -20.51291
v 48.41722 3.152348 -26.48302
v 53.04668 0.1073077 -26.48302
v 32.93303 0.1073077 -31.11247
v 32.93303 3.152348 -26.48302
v 28.60636 0.1073077 -30.80968
v -52.22915 3.283746 35.45189
v -56.82813 0.1073077 30.85291
v -54.64575 0.1073077 27.71074
v -52.22915 1.091852 27.71074
v -44.48609 6.601111 -3.257665
v -52.22915 3.274225 -3.257665
v -52.22915 0.1073077 -9.494386
v -51.41408 0.1073077 -10.18376
v 55.3376 0.1073077 -11.81959
v 55.2919 0.1073077 -10.99882
v 48.41722 9.34527 -10.99882
v 48.41722 9.929902 -18.74187
v 48.41722 4.645352 27.71074
v 40.67417 7.126709 27.71074
v 40.67417 8.646373 19.96769
v 32.93303 9.545223 27.71074
v 32.93303 10.29744 35.45189
v 25.18997 17.15878 27.71074
v -34.29786 0.1073077 53.38317
v -36.74494 0.1073077 52.96612
v -36.74494 0.8899876 50.93609
v -55.15612 0.1073077 9.299566
v -57.9536 0.1073077 4.48539
v -52.22915 4.449208 4.48539
v -52.22915 1.036627 12.22654
v -44.48609 0.1073077 -19.65405
v -44.48609 0.3396338 -18.74187
v -45.17355 0.1073077 -19.42743
v 1.964618 27.09564 27.71074
v 1.964618 13.01112 35.45189
v -5.776528 24.32292 27.71074
v -21.26073 7.345712 27.71074
v -29.00188 10.28411 27.71074
v -29.00188 15.49819 19.96769
v -21.26073 7.273348 4.48539
v -21.26073 5.271878 12.22654
v -29.00188 1.286092 4.48539
v -13.51958 0.992828 12.22654
v -21.26073 5.271878 12.22654
v -21.26073 7.273348 4.48539
v 48.41722 9.819451 19.96769
v 40.67417 8.646373 19.96769
v 40.67417 7.602794 12.22654
v -44.48609 3.767449 27.71074
v -52.22915 1.091852 27.71074
v -52.22915 0.1073077 25.10941
v -49.5383 0.1073077 22.65852
v 1.964618 9.24815 -26.48302
v 1.964618 0.1073077 -33.54432
v 3.025335 0.1073077 -33.16345
v 9.707673 5.650844 -26.48302
v 40.67417 17.23115 -18.74187
v 32.93303 3.152348 -26.48302
v 40.67417 7.141943 -26.48302
v 54.52445 0.1073077 27.71074
v 48.41722 4.645352 27.71074
v 48.41722 9.819451 19.96769
v 55.29762 0.1073077 26.84998
v 32.93303 18.62132 -3.257665
v 40.67417 9.731853 4.48539
v 32.93303 9.670908 4.48539
v 60.82401 0.1073077 19.96769
v 60.51741 0.1073077 24.32863
v 56.15837 3.203765 19.96769
v 1.964618 13.01112 35.45189
v -5.776528 17.98337 35.45189
v -5.776528 24.32292 27.71074
v -21.26073 23.74399 -3.257665
v -21.26073 7.273348 4.48539
v -29.00188 9.76613 -3.257665
v 13.56587 0.1073077 50.93609
v 9.707673 1.558416 50.93609
v 9.707673 1.023297 43.19494
v 12.68987 0.1073077 46.17714
v 25.18997 6.848679 43.19494
v 31.14675 0.1073077 49.14982
v 25.18997 0.1073077 49.87728
v 25.18997 19.48589 4.48539
v 32.93303 9.670908 4.48539
v 32.93303 1.70124 12.22654
v -21.26073 0.8176237 50.93609
v -29.00188 2.565813 50.93609
v -29.00188 5.37091 43.19494
v 1.964618 9.24815 -26.48302
v -4.73295 0.1073077 -33.18059
v 1.964618 0.1073077 -33.54432
v -21.26073 10.0175 19.96769
v -29.00188 15.49819 19.96769
v -29.00188 9.564266 12.22654
v 40.67417 17.23115 -18.74187
v 40.67417 21.3807 -10.99882
v 32.93303 12.94638 -18.74187
v 32.93303 12.94638 -18.74187
v 25.44896 0.1073077 -26.22593
v 26.17261 0.1073077 -26.48302
v 32.93303 3.152348 -26.48302
v 62.70931 0.1073077 12.22654
v 56.15837 6.370689 12.22654
v 56.15837 2.96763 4.48539
v 61.6962 0.1073077 10.02131
v -39.53671 0.1073077 50.93609
v -44.48609 0.1073077 48.90035
v -44.48609 3.99407 43.19494
v -36.74494 0.8899876 50.93609
v -49.0108 0.1073077 46.41138
v -52.22915 0.1073077 45.61155
v -52.22915 1.091852 43.19494
v -44.48609 1.470818 -10.99882
v -36.74494 10.69545 -10.99882
v -36.74494 4.439686 -3.257665
v -44.48609 1.470818 -10.99882
v -49.4488 0.1073077 -10.99882
v -47.36355 0.1073077 -13.87628
v -13.51958 14.60316 27.71074
v -21.26073 7.345712 27.71074
v -21.26073 10.0175 19.96769
v -44.48609 0.3396338 -18.74187
v -36.74494 14.05661 -18.74187
v -36.74494 10.69545 -10.99882
v 17.44882 3.761736 -26.48302
v 24.35587 0.1073077 -26.48302
v 25.18997 0.1073077 -26.33638
v 25.18997 23.02225 -18.74187
v -44.48609 3.856959 12.22654
v -36.74494 9.796599 19.96769
v -44.48609 0.992828 19.96769
v -29.00188 9.564266 12.22654
v -29.00188 1.286092 4.48539
v -21.26073 5.271878 12.22654
v -5.776528 16.6389 19.96769
v -5.776528 24.32292 27.71074
v -13.51958 9.272906 19.96769
v -52.22915 0.1073077 25.10941
v -52.22915 1.091852 27.71074
v -54.48007 0.1073077 25.45791
v -36.74494 4.93291 4.48539
v -44.48609 8.183617 4.48539
v -44.48609 6.601111 -3.257665
v -44.48609 0.3396338 -18.74187
v -36.74494 10.69545 -10.99882
v -44.48609 1.470818 -10.99882
v -21.26073 7.345712 27.71074
v -21.26073 1.977373 35.45189
v -29.00188 10.28411 27.71074
v -44.48609 6.43734 35.45189
v -52.22915 3.283746 35.45189
v -52.22915 1.091852 27.71074
v -29.00188 9.76613 -3.257665
v -29.00188 1.286092 4.48539
v -36.74494 4.439686 -3.257665
v -13.51958 12.92353 -26.48302
v -13.51958 0.1073077 -33.93471
v -13.24917 0.1073077 -33.95565
v -5.776528 13.93473 -26.48302
v -21.26073 1.977373 35.45189
v -29.00188 5.077638 35.45189
v -29.00188 10.28411 27.71074
v 56.15837 6.370689 12.22654
v 48.41722 11.19058 12.22654
v 48.41722 7.02578 4.48539
v 32.93303 10.29744 35.45189
v 32.93303 3.493228 43.19494
v 25.18997 12.70072 35.45189
v -44.48609 3.856959 12.22654
v -44.48609 0.992828 19.96769
v -52.22915 1.036627 12.22654
v -52.22915 1.036627 12.22654
v -54.54102 0.1073077 12.22654
v -55.15612 0.1073077 9.299566
v -29.00188 15.49819 19.96769
v -36.74494 9.796599 19.96769
v -36.74494 8.103636 12.22654
v 32.93303 10.29744 35.45189
v 25.18997 12.70072 35.45189
v 25.18997 17.15878 27.71074
v -13.51958 23.03177 0.6138623
v -5.776528 18.22902 4.48539
v -13.51958 12.10656 4.48539
v -21.26073 3.129497 43.19494
v -29.00188 5.37091 43.19494
v -29.00188 5.077638 35.45189
v -36.74494 8.36263 27.71074
v -44.48609 3.767449 27.71074
v -44.48609 0.992828 19.96769
v -36.74494 14.05661 -18.74187
v -29.00188 26.8595 -10.99882
v -36.74494 10.69545 -10.99882
v -36.74494 6.721083 35.45189
v -44.48609 6.43734 35.45189
v -44.48609 3.767449 27.71074
v 25.18997 14.39749 12.22654
v 32.93303 1.70124 12.22654
v 32.93303 4.026443 19.96769
v -52.22915 4.449208 4.48539
v -57.9536 0.1073077 4.48539
v -57.66413 0.1073077 -0.9515088
v 40.67417 8.646373 19.96769
v 40.67417 7.126709 27.71074
v 32.93303 4.026443 19.96769
v -52.22915 0.1073077 14.72694
v -54.54102 0.1073077 12.22654
v -52.22915 1.036627 12.22654
v -29.00188 1.286092 4.48539
v -36.74494 4.93291 4.48539
v -36.74494 4.439686 -3.257665
v -36.74494 8.36263 27.71074
v -36.74494 6.721083 35.45189
v -44.48609 3.767449 27.71074
v -36.74494 4.439686 -3.257665
v -44.48609 6.601111 -3.257665
v -44.48609 1.470818 -10.99882
v -21.26073 23.74399 -3.257665
v -13.51958 23.03177 0.6138623
v -13.51958 12.10656 4.48539
v 17.44882 25.06561 19.96769
v 25.18997 14.54983 19.96769
v 25.18997 17.15878 27.71074
v -21.26073 16.98739 -26.48302
v -28.95428 0.1073077 -34.17656
v -21.26073 0.1073077 -33.71
v -29.00188 9.76613 -3.257665
v -36.74494 4.439686 -3.257665
v -36.74494 10.69545 -10.99882
v 25.18997 19.48589 4.48539
v 17.44882 25.06561 19.96769
v 9.707673 27.30893 19.96769
v -29.00188 2.565813 50.93609
v -36.74494 0.8899876 50.93609
v -36.74494 5.955542 43.19494
v 25.18997 19.48589 4.48539
v 32.93303 1.70124 12.22654
v 25.18997 14.39749 12.22654
v -29.00188 14.50222 -26.48302
v -29.00188 0.1073077 -34.16704
v -28.95428 0.1073077 -34.17656
v -21.26073 16.98739 -26.48302
v 25.18997 19.48589 4.48539
v 9.707673 27.30893 19.96769
v 9.707673 27.825 8.240754
v -36.74494 14.05661 -18.74187
v -29.00188 31.13284 -18.74187
v -29.00188 26.8595 -10.99882
v -29.00188 10.28411 27.71074
v -29.00188 5.077638 35.45189
v -36.74494 8.36263 27.71074
v -29.00188 26.8595 -10.99882
v -21.26073 23.74399 -3.257665
v -29.00188 9.76613 -3.257665
v -29.00188 31.13284 -18.74187
v -36.74494 7.265731 -26.48302
v -29.00188 14.50222 -26.48302
v -29.00188 9.564266 12.22654
v -36.74494 8.103636 12.22654
v -36.74494 4.93291 4.48539
v -52.22915 3.283746 35.45189
v -57.388 0.1073077 35.45189
v -56.82813 0.1073077 30.85291
v 31.14675 0.1073077 49.14982
v 25.18997 6.848679 43.19494
v 32.93303 3.493228 43.19494
v 32.93303 0.1073077 48.04149
v -13.51958 14.60316 27.71074
v -5.776528 17.98337 35.45189
v -13.51958 10.11843 35.45189
v -36.74494 5.955542 43.19494
v -36.74494 0.8899876 50.93609
v -44.48609 3.99407 43.19494
v -29.00188 5.077638 35.45189
v -29.00188 5.37091 43.19494
v -36.74494 6.721083 35.45189
v -13.51958 14.60316 27.71074
v -5.776528 24.32292 27.71074
v -5.776528 17.98337 35.45189
v -13.51958 2.944778 43.19494
v -21.26073 3.129497 43.19494
v -21.26073 1.977373 35.45189
v -21.26073 1.977373 35.45189
v -21.26073 3.129497 43.19494
v -29.00188 5.077638 35.45189
v 32.93303 24.25436 -10.99882
v 32.93303 12.94638 -18.74187
v 40.67417 21.3807 -10.99882
v -36.74494 4.439686 -3.257665
v -36.74494 4.93291 4.48539
v -44.48609 6.601111 -3.257665
v -29.00188 9.564266 12.22654
v -29.00188 15.49819 19.96769
v -36.74494 8.103636 12.22654
v -29.00188 15.49819 19.96769
v -29.00188 10.28411 27.71074
v -36.74494 9.796599 19.96769
v -29.00188 26.8595 -10.99882
v -29.00188 9.76613 -3.257665
v -36.74494 10.69545 -10.99882
v -52.22915 4.449208 4.48539
v -57.66413 0.1073077 -0.9515088
v -57.1233 0.1073077 -3.257665
v -52.22915 3.274225 -3.257665
v -44.48609 6.601111 -3.257665
v -44.48609 8.183617 4.48539
v -52.22915 3.274225 -3.257665
v 25.18997 14.54983 19.96769
v 32.93303 4.026443 19.96769
v 32.93303 9.545223 27.71074
v -5.776528 8.663511 12.22654
v 1.964618 26.47102 19.96769
v -5.776528 16.6389 19.96769
v -29.00188 5.077638 35.45189
v -36.74494 6.721083 35.45189
v -36.74494 8.36263 27.71074
v -21.26073 3.129497 43.19494
v -21.26073 0.8176237 50.93609
v -29.00188 5.37091 43.19494
v 9.707673 24.53811 27.71074
v 17.44882 21.97867 27.71074
v 17.44882 11.46861 35.45189
v 9.707673 27.825 8.240754
v -5.776528 18.22902 4.48539
v -1.634589 22.45476 -2.320728
v -1.905009 27.0785 -18.74187
v 1.964618 9.24815 -26.48302
v 9.707673 5.650844 -26.48302
v -44.48609 8.183617 4.48539
v -44.48609 3.856959 12.22654
v -52.22915 4.449208 4.48539
v 25.18997 23.02225 -18.74187
v 25.18997 0.1073077 -26.33638
v 25.44896 0.1073077 -26.22593
v 32.93303 12.94638 -18.74187
v -13.51958 12.10656 4.48539
v -13.51958 0.992828 12.22654
v -21.26073 7.273348 4.48539
v 9.707673 24.53811 27.71074
v 1.964618 27.09564 27.71074
v 9.707673 27.30893 19.96769
v 17.44882 21.97867 27.71074
v 25.18997 23.02225 -18.74187
v 9.707673 5.650844 -26.48302
v 17.44882 3.761736 -26.48302
v 25.18997 23.02225 -18.74187
v 9.707673 27.825 8.240754
v -1.905009 27.0785 -18.74187
v -13.51958 2.944778 43.19494
v -13.51958 0.2463225 50.93609
v -21.26073 3.129497 43.19494
v -36.74494 5.955542 43.19494
v -44.48609 3.99407 43.19494
v -44.48609 6.43734 35.45189
v -29.00188 9.564266 12.22654
v -36.74494 4.93291 4.48539
v -29.00188 1.286092 4.48539
v -52.22915 1.091852 43.19494
v -54.64575 0.1073077 43.19494
v -55.1923 0.1073077 40.22988
v 25.18997 19.48589 4.48539
v 25.18997 14.39749 12.22654
v 17.44882 25.06561 19.96769
v -44.48609 3.856959 12.22654
v -52.22915 1.036627 12.22654
v -52.22915 4.449208 4.48539
v 25.18997 12.70072 35.45189
v 25.18997 6.848679 43.19494
v 17.44882 11.46861 35.45189
v 56.15837 6.370689 12.22654
v 56.15837 3.203765 19.96769
v 48.41722 11.19058 12.22654
v -55.1923 0.1073077 40.22988
v -57.388 0.1073077 35.45189
v -52.22915 3.283746 35.45189
v -52.22915 1.091852 43.19494
v -21.26073 5.271878 12.22654
v -21.26073 10.0175 19.96769
v -29.00188 9.564266 12.22654
v -12.97494 26.05015 -9.124942
v -13.51958 23.03177 0.6138623
v -21.26073 23.74399 -3.257665
v -36.74494 8.103636 12.22654
v -36.74494 9.796599 19.96769
v -44.48609 3.856959 12.22654
v -21.26073 23.74399 -3.257665
v -13.51958 12.10656 4.48539
v -21.26073 7.273348 4.48539
v 56.15837 2.96763 4.48539
v 56.15837 6.370689 12.22654
v 48.41722 7.02578 4.48539
v 32.93303 24.25436 -10.99882
v 9.707673 27.825 8.240754
v 25.18997 23.02225 -18.74187
v -44.48609 6.43734 35.45189
v -44.48609 3.99407 43.19494
v -52.22915 3.283746 35.45189
v -44.48609 8.183617 4.48539
v -52.22915 4.449208 4.48539
v -52.22915 3.274225 -3.257665
v -36.74494 6.721083 35.45189
v -36.74494 5.955542 43.19494
v -44.48609 6.43734 35.45189
v -29.00188 10.28411 27.71074
v -36.74494 8.36263 27.71074
v -36.74494 9.796599 19.96769
v 9.707673 24.53811 27.71074
v 9.707673 6.267848 35.45189
v 1.964618 13.01112 35.45189
v -1.905009 27.0785 -18.74187
v 9.707673 5.650844 -26.48302
v 25.18997 23.02225 -18.74187
v -29.00188 31.13284 -18.74187
v -13.51958 12.92353 -26.48302
v -5.776528 13.93473 -26.48302
v 9.707673 27.825 8.240754
v -1.634589 22.45476 -2.320728
v -1.905009 27.0785 -18.74187
v -12.97494 26.05015 -9.124942
v -29.00188 26.8595 -10.99882
v -29.00188 31.13284 -18.74187
v 25.18997 17.15878 27.71074
v 25.18997 12.70072 35.45189
v 17.44882 21.97867 27.71074
v -29.00188 5.37091 43.19494
v -29.00188 2.565813 50.93609
v -36.74494 5.955542 43.19494
v 56.15837 2.96763 4.48539
v 48.41722 7.02578 4.48539
v 48.41722 4.405408 -3.257665
v 17.44882 11.46861 35.45189
v 17.44882 3.588444 43.19494
v 9.707673 6.267848 35.45189
v -12.97494 26.05015 -9.124942
v -21.26073 23.74399 -3.257665
v -29.00188 26.8595 -10.99882
v -1.634589 22.45476 -2.320728
v -12.97494 26.05015 -9.124942
v -1.905009 27.0785 -18.74187
v -29.00188 31.13284 -18.74187
v -21.26073 7.345712 27.71074
v -13.51958 10.11843 35.45189
v -21.26073 1.977373 35.45189
v -29.00188 31.13284 -18.74187
v -21.26073 16.98739 -26.48302
v -13.51958 12.92353 -26.48302
v 25.18997 14.39749 12.22654
v 25.18997 14.54983 19.96769
v 17.44882 25.06561 19.96769
v 9.707673 27.30893 19.96769
v 1.964618 27.09564 27.71074
v 1.964618 26.47102 19.96769
v -5.776528 16.6389 19.96769
v -13.51958 9.272906 19.96769
v -13.51958 0.992828 12.22654
v 9.707673 24.53811 27.71074
v 17.44882 11.46861 35.45189
v 9.707673 6.267848 35.45189
v 32.93303 24.25436 -10.99882
v 32.93303 18.62132 -3.257665
v 9.707673 27.825 8.240754
v -36.74494 7.265731 -26.48302
v -29.00188 31.13284 -18.74187
v -36.74494 14.05661 -18.74187
v -29.00188 9.76613 -3.257665
v -21.26073 7.273348 4.48539
v -29.00188 1.286092 4.48539
v -5.776528 18.22902 4.48539
v 1.964618 26.47102 19.96769
v -5.776528 8.663511 12.22654
v -44.48609 3.767449 27.71074
v -44.48609 6.43734 35.45189
v -52.22915 1.091852 27.71074
v 9.707673 27.825 8.240754
v 1.964618 26.47102 19.96769
v -5.776528 18.22902 4.48539
v 25.18997 17.15878 27.71074
v 17.44882 21.97867 27.71074
v 17.44882 25.06561 19.96769
v 32.93303 24.25436 -10.99882
v 25.18997 23.02225 -18.74187
v 32.93303 12.94638 -18.74187
v -36.74494 4.93291 4.48539
v -36.74494 8.103636 12.22654
v -44.48609 8.183617 4.48539
v -5.776528 5.968872 43.19494
v -5.776528 2.506779 50.93609
v -13.51958 2.944778 43.19494
v -44.48609 3.99407 43.19494
v -52.22915 1.091852 43.19494
v -52.22915 3.283746 35.45189
v -1.634589 22.45476 -2.320728
v -13.51958 23.03177 0.6138623
v -12.97494 26.05015 -9.124942
v -5.776528 5.968872 43.19494
v -13.51958 2.944778 43.19494
v -13.51958 10.11843 35.45189
v -1.634589 22.45476 -2.320728
v -5.776528 18.22902 4.48539
v -13.51958 23.03177 0.6138623
v 17.44882 21.97867 27.71074
v 25.18997 12.70072 35.45189
v 17.44882 11.46861 35.45189
v 17.44882 25.06561 19.96769
v 17.44882 21.97867 27.71074
v 9.707673 27.30893 19.96769
v 1.964618 27.09564 27.71074
v 9.707673 24.53811 27.71074
v 1.964618 13.01112 35.45189
v -29.00188 31.13284 -18.74187
v -29.00188 14.50222 -26.48302
v -21.26073 16.98739 -26.48302
v 32.93303 18.62132 -3.257665
v 32.93303 9.670908 4.48539
v 25.18997 19.48589 4.48539
v -21.26073 1.977373 35.45189
v -13.51958 10.11843 35.45189
v -13.51958 2.944778 43.19494
v -5.776528 16.6389 19.96769
v -13.51958 0.992828 12.22654
v -5.776528 8.663511 12.22654
v -5.776528 17.98337 35.45189
v -5.776528 5.968872 43.19494
v -13.51958 10.11843 35.45189
v 56.15837 3.203765 19.96769
v 48.41722 9.819451 19.96769
v 48.41722 11.19058 12.22654
v -5.776528 18.22902 4.48539
v -5.776528 8.663511 12.22654
v -13.51958 12.10656 4.48539
v -1.905009 27.0785 -18.74187
v -5.776528 13.93473 -26.48302
v 1.964618 9.24815 -26.48302
v -36.74494 8.103636 12.22654
v -44.48609 3.856959 12.22654
v -44.48609 8.183617 4.48539
v -44.48609 0.992828 19.96769
v -36.74494 9.796599 19.96769
v -36.74494 8.36263 27.71074
v -13.51958 12.10656 4.48539
v -5.776528 8.663511 12.22654
v -13.51958 0.992828 12.22654
v 9.707673 27.825 8.240754
v 9.707673 27.30893 19.96769
v 1.964618 26.47102 19.96769
v -13.51958 9.272906 19.96769
v -5.776528 24.32292 27.71074
v -13.51958 14.60316 27.71074
v -29.00188 31.13284 -18.74187
v -5.776528 13.93473 -26.48302
v -1.905009 27.0785 -18.74187
v 17.44882 11.46861 35.45189
v 25.18997 6.848679 43.19494
v 17.44882 3.588444 43.19494
v -5.776528 2.506779 50.93609
v -13.51958 0.2463225 50.93609
v -13.51958 2.944778 43.19494
v 32.93303 18.62132 -3.257665
v 25.18997 19.48589 4.48539
v 9.707673 27.825 8.240754
vt 40.43945 -76.67622
vt 40.02102 -76.95093
vt 39.86243 -76.67622
vt 33.73467 -66.04061
vt 50.24246 -70.24048
vt 6.910573 -13.06714
vt -8.34618 -27.37304
vt -4.434463 -5.538241
vt 55.9164 -7.16523
vt 45.78912 1.332219
vt 52.22558 14.70285
vt 45.16254 27.06953
vt 61.94716 23.00064
vt 52.30275 11.39789
vt -42.1356 -77.88833
vt -42.53067 -77.58035
vt -42.1795 -77.58035
vt -44.61787 -60.22012
vt -51.77081 -70.36013
vt -3.463082 -80.37766
vt -10.18699 -69.00643
vt -0.2480483 -61.31398
vt 39.94527 -63.72049
vt 45.60858 -74.76179
vt 29.36559 -69.63089
vt 39.70667 1.963047
vt 44.26196 -19.74644
vt 33.16048 -28.65453
vt -20.43745 -4.006123
vt -11.26457 -30.80331
vt -22.9898 -26.01297
vt -66.94402 4.70231
vt -78.89227 5.882557
vt -65.82679 17.31891
vt -10.17353 -16.99089
vt -13.04307 -37.17817
vt -24.69538 -32.20658
vt -19.50855 -4.999447
vt -31.67982 -24.95663
vt -31.50778 -4.709875
vt -49.44857 -63.89748
vt -56.70842 -63.89748
vt -51.71205 -53.84031
vt 52.73038 -63.67942
vt 45.69354 -63.67942
vt 46.221 -54.52848
vt 36.32737 -65.16481
vt 29.38046 -76.34842
vt 26.54207 -57.22456
vt 0.3693388 -87.29131
vt 2.220759 -90.11128
vt -3.13103 -90.11128
vt 69.98512 -37.90812
vt 73.51592 -27.65695
vt 77.44392 -37.90812
vt 12.30343 -60.9706
vt 4.944446 -53.7511
vt 11.64711 -39.2505
vt 14.55701 -60.9706
vt -80.18155 -4.730407
vt -78.75209 7.596625
vt -66.83782 6.117613
vt -58.35807 -42.92999
vt -41.53806 -39.75955
vt -46.67957 -49.23262
vt -52.49368 -49.23262
vt -32.60589 -76.6125
vt -22.61031 -68.42374
vt -23.87905 -76.6125
vt -23.52151 -39.31422
vt -24.03977 -30.13567
vt -15.70233 -39.31422
vt -39.25474 -68.35719
vt -50.90564 -65.34959
vt -48.03114 -53.16062
vt 59.79837 -58.82535
vt 51.52182 -58.82535
vt 53.09713 -47.01941
vt 18.7505 -3.815671
vt 29.12416 -26.78823
vt 18.13879 -26.78823
vt -45.05966 -45.35418
vt -36.75903 -30.66879
vt -36.05103 -45.35418
vt 41.151 11.64499
vt 43.60706 -16.71053
vt 42.55072 -16.71053
vt 29.44347 4.819129
vt -49.38555 -68.97669
vt -51.58673 -65.09118
vt -39.96487 -68.20922
vt -40.15462 -68.97669
vt 63.21731 -0.9758723
vt 63.55715 -13.41689
vt 51.22233 -1.328456
vt 11.71154 58.98629
vt 22.99922 53.06598
vt 18.92679 36.65589
vt -77.0274 -48.66481
vt -79.19459 -39.17474
vt -68.90802 -45.92342
vt -70.41677 -48.66481
vt 18.31579 -28.56603
vt 12.23334 -41.95082
vt 10.55962 -41.95082
vt 9.002724 -15.03468
vt -63.66172 -62.66414
vt -64.05679 -62.97283
vt -64.0136 -62.66414
vt -54.42158 -55.44464
vt -61.57524 -45.30463
vt -41.66833 -64.69823
vt -44.38706 -61.58373
vt -27.41694 -61.7317
vt -30.08753 -64.69823
vt 7.682292 58.91833
vt 19.49886 61.56059
vt 9.771611 43.97593
vt 21.5195 -32.4296
vt 22.15812 -50.26702
vt 12.08891 -50.26702
vt -3.884347 -88.0864
vt -8.635044 -88.0864
vt -7.994298 -82.37281
vt 78.93427 -14.42863
vt 78.81887 -26.8732
vt 72.98351 -26.8732
vt 70.36107 -23.86418
vt -43.84968 -48.04035
vt -49.93709 -33.29832
vt -33.50859 -39.36236
vt -0.7061243 65.84471
vt 4.690274 52.95553
vt -6.027469 46.46669
vt -33.11494 -3.278294
vt -22.44534 -12.74217
vt -27.93873 -31.12475
vt -48.66693 -70.27942
vt -55.04745 -70.27942
vt -54.18652 -62.26129
vt 49.7065 -66.81304
vt 37.94658 -66.26434
vt 46.78741 -57.42705
vt 54.69721 -66.81304
vt -57.46103 -60.43323
vt -65.73051 -60.43323
vt -56.27655 -53.49551
vt 74.17224 -59.21547
vt 70.52532 -59.21547
vt 70.81136 -54.99718
vt -74.9841 17.86054
vt -63.99306 23.96353
vt -59.17653 10.03711
vt -70.7906 -37.95343
vt -75.67299 -37.95343
vt -72.34254 -31.75275
vt 64.4627 14.35521
vt 59.51022 -0.3422123
vt 53.53184 21.0147
vt 11.92677 -66.06255
vt 15.03986 -44.97965
vt 21.59101 -59.34078
vt 14.36867 -66.06255
vt 44.49914 64.44075
vt 55.70753 59.65748
vt 40.21431 51.92679
vt -8.273255 -39.9762
vt 0.5937747 -31.72655
vt 4.649918 -39.9762
vt 31.45702 15.97017
vt 30.69592 35.35246
vt 42.67178 36.58438
vt 63.70583 -25.26815
vt 53.01429 -18.39132
vt 58.46379 -4.898911
vt 11.42692 0.9959188
vt 23.69095 -23.03157
vt 12.08678 -23.03157
vt -34.04526 -9.253836
vt -27.00984 -27.66828
vt -43.76614 -22.57916
vt 34.94182 -42.07896
vt 22.97939 -43.39656
vt 33.98459 -25.61153
vt -67.11961 -15.20531
vt -58.88553 -30.16753
vt -68.23542 -30.16753
vt -31.89152 -78.5673
vt -38.66356 -76.07796
vt -28.14901 -68.75226
vt -23.88684 -78.5673
vt -69.40292 20.8384
vt -58.40834 12.64044
vt -63.21638 -6.106057
vt 54.59313 56.53023
vt 48.46962 44.80571
vt 38.14978 51.76254
vt -18.15272 -45.82359
vt -21.40175 -45.82359
vt -15.5317 -27.98759
vt -5.387437 -40.2948
vt -62.88221 -40.28913
vt -61.27858 -25.58251
vt -49.38626 -27.56491
vt -9.929981 -17.36613
vt -1.079948 -40.92421
vt -12.745 -36.34414
vt 61.76096 -19.28836
vt 67.56587 -36.55584
vt 64.26871 -36.55584
vt 57.16389 -32.93016
vt 46.92405 4.016258
vt 42.76028 -27.0148
vt 36.61624 -7.57233
vt 80.40125 -52.98929
vt 73.39203 -52.98929
vt 75.68383 -43.39302
vt -7.734462 -36.69106
vt -9.003912 -24.41784
vt 2.729811 -36.69106
vt -66.71887 -23.62133
vt -73.25657 -11.66459
vt -56.65603 -15.85384
vt 4.405658 34.77332
vt 20.57574 26.71128
vt 9.914628 18.08994
vt -29.11402 -63.71199
vt -24.03977 -56.78276
vt -18.96622 -63.71199
vt -68.62057 0.8005107
vt -80.31465 3.616238
vt -65.93016 13.03975
vt 61.82185 -23.7155
vt 65.81144 -37.87768
vt 62.7564 -37.87768
vt 50.74797 -30.56472
vt 16.46152 35.75673
vt 14.79773 50.23113
vt 28.34535 37.78304
vt 10.99079 -59.37405
vt 0.5796148 -51.45858
vt 6.547369 -37.6497
vt 26.64332 -64.97861
vt 15.19845 -68.96395
vt 11.59048 -56.32327
vt 80.0338 -2.60003
vt 82.6888 -16.78628
vt 68.33122 -5.818609
vt -74.94374 12.14271
vt -65.49828 2.498295
vt -69.924 -4.862095
vt -73.35994 -4.862095
vt 56.52598 -43.2231
vt 51.18977 -33.85835
vt 60.51062 -23.10025
vt 59.03444 -43.2231
vt 14.10033 -64.13821
vt 5.602886 -73.39888
vt 5.627666 -54.85133
vt -18.31132 -83.55447
vt -23.2468 -81.1331
vt -12.11983 -75.94131
vt -9.459161 -83.55447
vt -34.13376 -23.43371
vt -43.60542 -34.40634
vt -41.50195 -9.328884
vt -65.60023 -50.18064
vt -66.83852 -41.68178
vt -56.7686 -50.18064
vt -26.39175 -66.35638
vt -26.34927 -67.5175
vt -27.41411 -67.5175
vt 40.75948 -72.66539
vt 42.96914 -77.97328
vt 30.30298 -77.97328
vt -1.002776 -62.38307
vt -1.299428 -40.47038
vt 7.350241 -52.47244
vt 0.7438707 -62.38307
vt -28.56957 -72.10111
vt -36.80293 -72.10111
vt -30.11585 -60.40703
vt 23.11179 -75.99654
vt 19.31832 -68.1901
vt 29.53409 -60.20667
vt 26.57818 -75.99654
vt 0.7955548 -80.79043
vt 1.393815 -67.22864
vt 9.428231 -77.71487
vt 6.527544 -80.79043
vt 53.71379 -35.17735
vt 42.93445 -41.78231
vt 37.66195 -28.27999
vt 40.05288 -1.623692
vt 49.48278 -26.8824
vt 38.71405 -26.8824
vt 50.43999 -44.11518
vt 44.20532 -41.68461
vt 54.85509 -34.87291
vt 58.75053 -44.11518
vt -69.77178 -47.68564
vt -64.95312 -40.94333
vt -59.5992 -47.68564
vt -60.79997 23.89556
vt -55.66412 13.61535
vt -63.35799 13.61535
vt -29.63511 -35.26373
vt -20.60595 -10.49709
vt -18.88975 -34.84884
vt -20.29089 -35.26373
vt -16.22412 -28.68002
vt -4.585975 -24.54245
vt -2.427278 -36.69106
vt -6.758838 -36.69106
vt 1.887999 -30.64118
vt 11.43116 -17.84545
vt 9.416196 -44.13005
vt 7.736101 -44.13005
vt -26.35706 -77.82248
vt -29.42058 -77.82248
vt -29.5459 -74.69594
vt 48.77547 -71.17292
vt 49.05089 -75.21066
vt 45.55052 -75.21066
vt -39.90894 -78.47172
vt -48.17841 -78.47172
vt -49.3629 -71.534
vt 30.87292 -31.00226
vt 31.14125 -49.77708
vt 20.41148 -49.77708
vt 49.34542 -68.10302
vt 38.0988 -68.10302
vt 37.58762 -67.4998
vt 42.11742 -61.41948
vt 32.90843 -61.41948
vt 32.2422 -51.41186
vt 55.09936 -9.068339
vt 48.39174 -21.9816
vt 45.14909 -0.3634523
vt 25.52608 -10.38947
vt 35.73478 -19.77547
vt 19.2192 -25.58109
vt 15.89442 36.32242
vt 27.7485 38.51511
vt 29.61197 24.5632
vt -38.69967 -33.34292
vt -34.18545 -47.65236
vt -37.85715 -47.65236
vt -49.48751 -41.45876
vt -57.18066 -13.1613
vt -53.29019 3.213386
vt -41.93878 -2.39825
vt -42.268 22.21192
vt -53.0523 15.51351
vt -47.52988 35.93868
vt 53.78814 -21.04279
vt 62.08876 -35.72818
vt 53.08084 -35.72818
vt 20.93044 -79.9564
vt 18.05524 -76.85606
vt 26.17745 -66.49444
vt 26.6596 -79.9564
vt 2.459355 -65.22428
vt 3.160994 -74.23432
vt -3.812839 -74.23432
vt -76.35267 -24.72794
vt -85.8923 -17.39233
vt -78.61261 -7.778358
vt 12.44715 -65.04728
vt 10.18508 -71.30107
vt 1.931895 -71.30107
vt 1.483023 -70.22916
vt 23.81131 -20.37019
vt 22.11847 -20.37019
vt 9.145032 -4.621375
vt 20.61609 3.453398
vt -7.037082 -71.02495
vt -16.15403 -71.02495
vt -8.267591 -57.03057
vt -9.901661 -89.75445
vt -7.251606 -92.81373
vt -12.55101 -92.81373
vt -49.01031 -76.35692
vt -52.65723 -76.35692
vt -49.29634 -72.13863
vt 12.55335 -73.8867
vt 23.60882 -65.44376
vt 22.03705 -73.8867
vt -54.28635 -37.09888
vt -53.78579 -28.52497
vt -47.56316 -37.09888
vt 91.3052 -29.23509
vt 89.51395 -40.31179
vt 83.58443 -40.31179
vt 81.44698 -36.87514
vt 49.3702 -34.63573
vt 58.52963 -43.94667
vt 52.28364 -52.80946
vt 50.62903 -52.80946
vt 23.10188 -50.32578
vt 21.82677 -50.32578
vt 21.22922 -32.48694
vt 33.21004 -31.3591
vt 2.555643 -78.37543
vt -3.710179 -67.44245
vt 6.524004 -60.749
vt -47.76352 -22.72855
vt -59.7054 -21.0697
vt -46.58328 -5.939677
vt -38.55028 -84.21079
vt -42.39615 -84.21079
vt -42.92361 -80.87893
vt -30.49958 -60.90122
vt -39.13226 -60.90122
vt -34.67184 -50.69536
vt -24.29748 -58.71703
vt 55.90224 -48.78658
vt 56.34686 -47.39465
vt 57.023 -48.78658
vt 11.2839 17.24033
vt 13.6019 -7.563834
vt -0.4894763 12.35724
vt -49.79691 -9.839357
vt -60.25127 -2.391878
vt -54.35927 10.82158
vt -3.856735 -18.80409
vt 7.524409 -23.71408
vt -7.661538 -33.48948
vt -26.04554 10.14756
vt -31.13112 22.87957
vt -20.26257 28.83741
vt -26.73371 78.14555
vt -18.7609 68.99532
vt -27.72846 60.85896
vt 79.89361 -10.42558
vt 88.76134 -19.51209
vt 86.04615 -22.86024
vt 80.40479 -22.86024
vt 11.00424 -11.73114
vt 14.70285 -29.24996
vt 12.9555 -29.24996
vt -0.2898203 -18.62638
vt -69.31087 19.51656
vt -62.56432 -7.29267
vt -73.72314 0.3049107
vt 24.56603 -64.64726
vt 18.23578 -54.69345
vt 27.15945 -43.35054
vt 26.35941 -64.64726
vt 51.01064 25.35758
vt 63.09129 7.139256
vt 51.09135 7.015357
vt -24.27412 -80.00667
vt -31.04757 -80.00667
vt -24.78034 -71.34213
vt -31.51486 -16.71902
vt -40.95749 -6.031009
vt -33.55178 7.597332
vt -28.39186 28.75103
vt -20.62719 1.630995
vt -37.54138 5.735281
vt -81.45383 -5.904277
vt -80.37058 0.3955348
vt -68.56889 -1.930964
vt -73.95467 -5.904277
vt 30.64849 -42.35792
vt 38.69281 -57.01782
vt 29.3932 -57.01782
vt 19.21636 7.641229
vt 26.78067 -10.19761
vt 17.46477 -24.68263
vt -69.74417 -45.07169
vt -79.92596 -38.16654
vt -73.57517 -27.09551
vt -5.269909 -13.58398
vt 4.533098 -31.47875
vt -5.863921 -31.47875
vt 3.214094 42.41549
vt 12.03014 54.18037
vt 20.17146 41.43916
vt -64.73151 36.15887
vt -56.113 46.69891
vt -56.38204 25.27899
vt -57.83132 9.976932
vt -50.79306 -14.83715
vt -51.98463 -14.83715
vt -61.85631 -8.953644
vt -57.8207 -55.25843
vt -53.57905 -41.86515
vt -42.67652 -49.14271
vt -54.05908 -55.25843
vt -26.63813 -77.46352
vt -34.93309 -77.46352
vt -38.29823 -67.3051
vt -22.63509 -75.41811
vt -56.38699 -81.18478
vt -61.52426 -81.18478
vt -62.42767 -77.23979
vt -52.81016 -25.22779
vt -46.07564 -7.819422
vt -36.14378 -19.62466
vt 26.66951 -61.60851
vt 31.18444 -68.18444
vt 25.67689 -68.18444
vt 33.06065 -8.41698
vt 28.91246 -24.33359
vt 17.65239 -18.46991
vt -44.62778 -28.40814
vt -41.77169 -4.163299
vt -30.11655 -10.10557
vt -19.54678 -8.454504
vt -30.09036 -14.41447
vt -31.40512 -14.41447
vt -33.43992 22.94966
vt -3.309446 -41.23998
vt 11.8142 -29.23863
vt 8.102137 -47.02719
vt 31.18515 35.37086
vt 36.70828 18.69457
vt 20.53184 26.72403
vt 27.88161 30.35466
vt 36.18507 45.08324
vt 36.54473 16.23709
vt 85.95199 24.41665
vt 86.56866 28.68307
vt 89.48421 24.41665
vt 18.69244 52.3863
vt 23.94795 64.29278
vt 34.73578 58.49282
vt -20.4509 -45.66217
vt -9.998657 -24.77396
vt -8.539464 -43.38311
vt -49.53352 -10.08008
vt -55.29737 -23.49531
vt -60.05869 -2.733842
vt 84.47227 -18.20583
vt 91.31936 -29.20677
vt 81.46468 -36.84966
vt -40.75217 -0.0342323
vt -34.36953 -16.64821
vt -50.91413 -10.47019
vt 17.7855 -3.994795
vt 16.91111 -26.95886
vt 16.49268 -26.95886
vt 5.820253 -2.18372
vt -56.43018 -22.01346
vt -66.74011 -14.21765
vt -60.60032 -1.12526
vt -71.25505 -35.01027
vt -63.40825 -23.25176
vt -54.32954 -33.41372
vt 29.82154 -39.46077
vt 25.82344 -54.9278
vt 18.50695 -33.99499
vt -35.83934 -52.168
vt -27.41977 -61.80251
vt -44.38989 -61.65382
vt 1.930479 -76.28187
vt 1.194159 -80.07464
vt -3.441134 -80.07464
vt 42.45868 -12.56163
vt 45.87196 -27.0686
vt 34.36762 -31.37255
vt 18.839 -52.01862
vt 8.277013 -45.21117
vt 13.97431 -32.59102
vt -19.9199 31.66376
vt -6.746094 23.8014
vt -18.3007 13.77182
vt -62.11686 41.0533
vt -60.56137 53.44901
vt -48.66268 51.82909
vt 66.21571 -14.41801
vt 72.42205 -26.91567
vt 62.15107 -34.46794
vt -40.03638 -1.436072
vt -25.84447 20.48157
vt -28.28778 -7.191426
vt 62.44347 49.35321
vt 74.37614 48.01083
vt 73.10812 35.38078
vt -25.67525 1.138935
vt -27.83749 -21.80885
vt -39.6406 -17.60544
vt 11.23788 -59.91497
vt 11.70871 -71.04336
vt 3.270026 -71.04336
vt 49.09761 49.65694
vt 60.49717 45.23051
vt 45.34945 36.1964
vt -38.22814 -65.63776
vt -43.50701 -65.63776
vt -41.07219 -62.63724
vt -0.8562203 41.93051
vt 0.7537827 55.09724
vt 12.64539 53.31448
vt 21.2894 -50.68757
vt 32.58983 -55.45951
vt 17.25236 -64.04546
vt 54.44728 18.18976
vt 65.50629 23.92671
vt 70.16495 10.30615
vt -31.99205 32.17636
vt -18.58036 31.01452
vt -16.04004 13.2302
vt -36.55301 20.68477
vt -39.44307 0.6504148
vt -51.08971 5.620585
vt 35.38007 8.897232
vt 48.00517 -19.55598
vt 36.05833 -19.55598
vt -37.4989 -6.334741
vt -46.63567 -17.67978
vt -54.4152 -4.357291
vt -28.88321 -15.30655
vt -40.9766 10.1596
vt -33.81374 20.3959
vt -17.86102 -71.08371
vt -29.25279 -75.66449
vt -33.02432 -61.82799
vt 8.073109 7.159081
vt 1.398063 -24.51696
vt -3.065894 -1.903352
vt 37.37663 -2.480378
vt 35.3652 -27.69448
vt 35.28874 -27.69448
vt 25.54945 1.871715
vt -3.802927 -19.99778
vt -29.64714 5.122862
vt -11.52794 6.784549
vt -42.00746 0.5406747
vt -39.09403 29.45621
vt -27.45305 22.219
vt -27.30932 -36.11617
vt -23.15547 -49.96682
vt -38.56728 -41.22582
vt -45.59207 34.23735
vt -28.70621 29.12133
vt -37.9952 6.162217
vt 29.62897 26.88262
vt 35.8431 -13.34184
vt 24.84003 -1.144376
vt 48.7599 4.655581
vt 59.66102 -0.8477243
vt 54.64482 -12.80518
vt 64.35296 -59.94896
vt 65.3222 -69.29247
vt 58.14024 -69.29247
vt 0.8762667 -69.55726
vt -2.103008 -53.10328
vt 8.095057 -61.29132
vt 4.135201 -69.55726
vt 26.93431 -8.455212
vt 43.30261 -1.56068
vt 37.35893 -17.60048
vt -28.92711 -62.63795
vt -24.59272 -76.30877
vt -40.11709 -67.9331
vt -46.20875 54.34887
vt -58.02248 56.50333
vt -44.10244 66.43377
vt 24.52851 -3.932491
vt 31.0839 14.17892
vt 41.13543 2.366607
vt 10.08667 69.33092
vt 21.93509 71.25244
vt 23.83538 59.27091
vt -40.04913 47.20159
vt -51.29929 51.74271
vt -35.87333 59.43517
vt -45.27701 15.23527
vt -42.32252 -5.797369
vt -56.90737 9.892679
vt 17.61204 54.19028
vt 5.913709 56.97131
vt 20.28546 66.35872
vt 48.17934 15.20341
vt 51.04462 30.04881
vt 59.83165 11.55223
vt -7.496574 -21.29626
vt 1.359123 -32.73758
vt -15.59471 -33.80737
vt -44.37573 33.76228
vt -36.13103 5.870521
vt -53.09478 7.385641
vt 25.26695 -60.50473
vt 18.9891 -72.6668
vt 15.31881 -72.6668
vt 13.58491 -63.79695
vt 25.07296 -53.78366
vt 35.90824 -48.07291
vt 30.22935 -65.78361
vt -45.54464 7.862833
vt -51.11803 -11.6037
vt -61.74516 -1.395716
vt 20.35909 14.05644
vt 22.11988 46.40863
vt 29.67923 28.54501
vt -70.64899 -4.459951
vt -79.12804 4.405658
vt -70.63625 13.25852
vt -70.26951 -21.32387
vt -78.62465 -30.65251
vt -78.88307 -12.27488
vt 4.463006 4.570621
vt 16.1231 -0.3046883
vt 13.28543 -20.33974
vt 16.71428 33.40969
vt 3.929174 7.570429
vt -4.192327 18.94591
vt 9.244152 26.16046
vt 6.017785 -4.390567
vt -5.691169 -10.55515
vt -47.66015 -32.94219
vt -39.81973 -44.23483
vt -56.74524 -42.68785
vt -24.34775 21.86996
vt -19.68484 -15.2577
vt -20.12026 -15.2577
vt -35.36639 5.546246
vt -16.4436 7.881948
vt -11.65821 -12.55809
vt -27.44809 -1.006316
vt -18.0798 -20.89269
vt -26.89656 -11.83805
vt -9.939893 -11.08473
vt -9.262332 -29.94663
vt -36.30804 22.42503
vt -11.33607 -6.236329
vt -23.28857 -9.35154
vt 4.265474 -41.57062
vt -18.76515 1.442667
vt 26.28507 -5.257165
vt -25.4756 -60.20596
vt -26.29475 -72.88699
vt -37.44721 -59.33795
vt -2.503742 -77.97541
vt -11.86212 -86.07921
vt -19.37403 -75.98309
vt 33.49607 34.32514
vt 49.3164 24.87826
vt 38.33456 17.43716
vt 51.17277 -84.10175
vt 50.4938 -88.09135
vt 45.8224 -88.09135
vt 5.384821 10.7175
vt -6.034549 2.011191
vt -21.14191 20.2642
vt -41.08351 -47.84423
vt -50.33427 -56.64966
vt -57.97787 -45.99352
vt 49.53659 -24.14455
vt 52.01034 -38.98287
vt 37.79436 -27.27109
vt 31.95759 -60.78369
vt 21.92872 -69.00006
vt 25.36891 -48.27682
vt 20.92195 -85.81583
vt 12.77071 -85.81583
vt 16.11177 -77.0366
vt 27.01502 -83.09215
vt 11.73278 33.07623
vt 3.684914 44.62375
vt 20.63379 43.51786
vt -22.48924 21.53508
vt -20.36311 5.852821
vt -33.30469 9.558504
vt 38.67582 -33.13548
vt 49.82474 -27.9798
vt 43.11499 -46.08343
vt -33.04273 31.72677
vt -18.14918 11.9374
vt -29.66414 3.720314
vt -61.26159 -48.7618
vt -70.45642 -39.419
vt -53.55074 -37.62209
vt -49.71832 -13.95073
vt -15.90835 18.80431
vt -36.90205 -25.23841
vt 1.189203 -73.79395
vt 10.6736 -82.06483
vt -6.161989 -84.46426
vt 27.33291 -51.10741
vt 30.93522 -63.9343
vt 19.48895 -67.97134
vt -34.31926 -69.8263
vt -30.15054 -81.1416
vt -45.57154 -74.01768
vt 7.542817 -54.24387
vt 0.3672147 -64.31238
vt -9.251003 -56.80046
vt -0.7563923 18.53244
vt -4.910947 -11.94141
vt -16.1689 -0.6940883
vt 4.655581 28.53651
vt -12.60836 -7.143282
vt -37.27234 21.78429
vt 43.44775 33.91733
vt 18.87865 3.701906
vt 6.89358 5.379866
vt 17.39397 34.2777
vt -4.273039 20.98071
vt -28.11432 32.42558
vt -20.46718 31.44569
vt -45.37542 34.03769
vt -45.6827 47.74109
vt -5.035555 -26.90152
vt -13.84736 -37.58173
vt -13.18113 -15.34762
vt -57.6699 -49.97744
vt -60.11887 -62.50343
vt -69.41779 -47.36633
vt -53.0438 -56.41744
vt -46.53655 -44.53361
vt -36.45388 -52.20411
vt 52.84083 -5.890117
vt 59.45074 -21.68566
vt 42.82542 -16.31404
vt -19.97441 28.26464
vt -32.90396 18.60819
vt -44.78778 31.6496
vt -0.5326643 14.66958
vt -11.03942 33.13358
vt 11.12531 38.40678
vt -25.88765 59.22772
vt 17.72178 -22.89422
vt 34.34496 -17.40507
vt 27.74001 -33.51567
vt 52.55409 33.42527
vt 45.90948 6.507013
vt 34.77969 -1.225796
vt -19.50925 -5.009359
vt -31.50778 -4.719787
vt -31.33574 15.5213
vt 15.81158 35.95709
vt 32.60541 33.49253
vt 22.98718 26.25179
vt 27.26282 30.97558
vt 36.22826 17.04846
vt 28.25189 1.393815
vt 26.22985 21.1832
vt 41.05684 -0.6919643
vt 29.51498 -9.396144
vt 47.6717 9.987552
vt 39.02274 -2.07044
vt 1.222479 17.63611
vt -17.0978 -16.05704
vt -10.38169 24.08672
vt -5.947465 -4.635535
vt -39.63494 -0.9008242
vt -22.9105 -5.720905
vt -32.71351 -17.29816
vt 3.60845 24.5278
vt 30.22368 37.74834
vt 14.93649 9.18114
vt 79.10773 -14.04135
vt 87.60306 -4.610047
vt 87.58323 -23.4946
vt 5.424469 38.71972
vt 26.93501 34.69967
vt 10.0272 10.26084
vt -15.12389 -29.24925
vt -21.59362 -16.68007
vt -11.48688 -8.633628
vt -26.7677 12.22059
vt -9.825197 10.07747
vt -18.78426 -7.461882
vt 34.7981 43.21907
vt 26.2086 52.93429
vt 43.17801 53.17713
vt 37.29875 -43.70029
vt 45.19228 -54.2113
vt 28.26039 -52.88026
vt 11.85597 -83.70103
vt 4.622306 -94.27859
vt -4.952011 -86.28736
vt -1.016936 15.2997
vt -19.81016 18.06374
vt -13.42468 32.54452
vt 17.75434 -39.39493
vt 6.696757 -46.00555
vt 2.035263 -30.32329
vt -1.353944 25.03048
vt -10.61178 14.55913
vt -20.29514 26.45924
vt 31.86625 4.171309
vt 45.18236 -13.64699
vt 33.26456 -16.01526
vt 3.684914 -19.54749
vt -3.368918 -30.37002
vt -6.022513 -11.6837
vt -4.678015 16.57976
vt 7.128637 12.07191
vt -6.822558 -8.23998
vt 40.16829 29.03991
vt 38.39474 0.6617427
vt 26.5265 4.901966
vt 38.125 7.656096
vt 29.25797 -8.400696
vt 21.17258 9.208044
vt 19.43726 -32.96697
vt 27.37114 -17.46667
vt 36.3741 -31.12687
vt 27.91064 30.36033
vt 28.23986 0.7636948
vt 19.5916 15.27492
vt 22.60415 0.3891627
vt 29.17655 -20.76808
vt 12.56397 -13.46008
vt -12.6303 -65.68661
vt -15.06725 -50.09143
vt -3.317234 -46.85657
vt -3.793015 17.33166
vt 2.676711 -0.6119603
vt -13.89975 5.845033
vt 11.24213 26.22843
vt 20.46104 3.645266
vt 8.97582 -4.408267
vt -27.36596 -34.31076
vt -35.92926 -44.98956
vt -44.33537 -34.11181
vt 19.47337 -46.7093
vt 21.40055 -28.64037
vt 33.24473 -31.5807
vt -13.29582 7.512372
vt 3.396758 1.362663
vt -6.479173 -12.34285
vt 17.50796 14.05785
vt 34.34071 7.149877
vt 29.81163 -4.037983
vt 37.21379 9.784355
vt 41.96591 38.23828
vt 47.73613 19.86135
vt 47.23841 29.73304
vt 12.37635 -0.8477243
vt 5.387654 22.52203
vt 46.00081 -14.0187
vt 61.6767 -23.6893
vt 50.58867 -30.51516
vt 43.82796 -58.73119
vt 34.62816 -67.19466
vt 26.92298 -57.08933
vt 36.58296 -7.93695
vt 19.68081 -5.906401
vt -0.1666283 13.66562
vn -0.180896 0.9393843 0.2912622
vn -0.180896 0.9393843 0.2912622
vn -0.180896 0.9393843 0.2912622
vn -0.1590165 0.9466775 0.2802061
vn -0.1590165 0.9466775 0.2802061
vn 0.7599214 0.6330717 -0.1474439
vn 0.7599214 0.6330717 -0.1474439
vn 0.8109735 0.5163813 -0.2750862
vn 0.3150387 0.7497622 0.5818996
vn 0.3515045 0.7570554 0.5507374
vn 0.3150387 0.7497622 0.5818996
vn -0.2538276 0.8372802 0.4842866
vn -0.2538276 0.8372802 0.4842866
vn -0.4726223 0.6184855 0.627777
vn 0.2202277 0.9539707 0.2035675
vn 0.1837619 0.9466775 0.264638
vn 0.2202277 0.9539707 0.2035675
vn 0.2202277 0.9539707 0.2035675
vn 0.1837619 0.9466775 0.264638
vn 0.3442113 0.8810391 0.3244822
vn 0.4025566 0.8737459 0.2729766
vn 0.3442113 0.8810391 0.3244822
vn -0.1371371 0.9612638 0.2390926
vn -0.1590165 0.9466775 0.2802061
vn -0.1590165 0.9466775 0.2802061
vn 0.7599214 0.5236744 0.3850775
vn 0.7963871 0.5090881 0.3264917
vn 0.7599214 0.5236744 0.3850775
vn 0.2785729 0.5601402 0.7801539
vn 0.2785729 0.5601402 0.7801539
vn 0.1764687 0.5309675 0.8288138
vn 0.3223319 0.9466775 0
vn 0.1035372 0.9758501 0.1923451
vn 0.1035372 0.9758501 0.1923451
vn 0.606765 0.7716417 0.1908016
vn 0.7963871 0.5747265 -0.1883004
vn 0.606765 0.7716417 0.1908016
vn 0.8255598 0.552847 -0.1131865
vn 0.8255598 0.552847 -0.1131865
vn 0.8036803 0.5893128 -0.08251308
vn 0.5046608 0.8518665 0.1401461
vn 0.2858661 0.8810391 0.3768961
vn 0.2858661 0.8810391 0.3768961
vn 0.2858661 0.8810391 0.3768961
vn 0.03789876 0.8226938 0.56722
vn 0.2858661 0.8810391 0.3768961
vn 0.2785729 0.8737459 0.3987044
vn 0.3442113 0.8810391 0.3244822
vn 0.3442113 0.8810391 0.3244822
vn -0.2538276 0.9029186 0.3468567
vn -0.2538276 0.9029186 0.3468567
vn -0.2538276 0.9029186 0.3468567
vn -0.1736028 0.8810391 -0.4400366
vn -0.3705181 0.8883322 -0.2712603
vn -0.3705181 0.8883322 -0.2712603
vn 0.4025566 0.6841239 0.6082127
vn 0.4025566 0.6841239 0.6082127
vn 0.4536088 0.691417 0.5623003
vn 0.4536088 0.691417 0.5623003
vn 0.2712798 0.9612638 -0.04877621
vn 0.2566935 0.968557 0
vn 0.2712798 0.9612638 -0.04877621
vn 0.5046608 0.7862281 -0.356599
vn 0.5046608 0.7862281 -0.356599
vn 0.5557129 0.7132965 -0.4270729
vn 0.5557129 0.7132965 -0.4270729
vn 0.5994719 0.7716417 -0.2126088
vn 0.5994719 0.7716417 -0.2126088
vn 0.5338334 0.8372802 -0.1182531
vn 0.04519191 0.7862281 -0.6162817
vn 0.1108303 0.7497622 -0.6523597
vn 0.1108303 0.7497622 -0.6523597
vn 0.04519191 0.9539707 0.2964754
vn 0.06707139 0.9539707 0.2923036
vn 0.04519191 0.9539707 0.2964754
vn 0.2494003 0.8372802 0.4865814
vn 0.1035372 0.7935212 0.59967
vn 0.2494003 0.8372802 0.4865814
vn 0.0816577 0.4507428 -0.8889111
vn 0.0816577 0.4507428 -0.8889111
vn -0.04232597 0.5017949 -0.8639504
vn -0.4653291 0.7497622 -0.4704523
vn -0.4653291 0.7497622 -0.4704523
vn -0.7570554 0.6549512 0
vn 0.2056414 0.3851044 -0.8996701
vn 0.2056414 0.3851044 -0.8996701
vn 0.0816577 0.4507428 -0.8889111
vn 0.0816577 0.4507428 -0.8889111
vn 0.0306056 0.9466775 0.3207257
vn 0.0306056 0.9466775 0.3207257
vn 0.06707139 0.9612638 0.2673449
vn 0.06707139 0.9612638 0.2673449
vn -0.005860185 0.9612638 0.2755676
vn -0.2538276 0.8372802 0.4842866
vn -0.2538276 0.8372802 0.4842866
vn -0.5674334 0.7205896 -0.3984595
vn -0.2465344 0.691417 -0.6790901
vn -0.5674334 0.7205896 -0.3984595
vn 0.1327098 0.9029186 0.4088106
vn 0.1327098 0.9029186 0.4088106
vn 0.2056414 0.9175048 0.3404357
vn 0.2056414 0.9175048 0.3404357
vn -0.5236744 0.5601402 -0.6418786
vn -0.5236744 0.5601402 -0.6418786
vn -0.319466 0.5309675 -0.7848662
vn -0.319466 0.5309675 -0.7848662
vn 0.2494003 0.9466775 0.2039637
vn 0.2202277 0.9539707 0.2035675
vn 0.2202277 0.9539707 0.2035675
vn 0.2494003 0.9466775 0.2039637
vn 0.2202277 0.9539707 0.2035675
vn -0.3267592 0.8883322 0.3226364
vn -0.3267592 0.8883322 0.3226364
vn -0.3267592 0.8883322 0.3226364
vn -0.3267592 0.8883322 0.3226364
vn -0.6038991 0.7935212 -0.07503276
vn -0.552847 0.8154007 -0.171703
vn -0.552847 0.8154007 -0.171703
vn 0.6942829 0.6695375 0.2639899
vn 0.8036803 0.596606 0
vn 0.6942829 0.6695375 0.2639899
vn 0.1181235 0.9393843 0.3218756
vn 0.04519191 0.9175048 0.3951488
vn 0.1181235 0.9393843 0.3218756
vn -0.319466 0.8883322 -0.3298595
vn -0.319466 0.8883322 -0.3298595
vn -0.3267592 0.8883322 -0.3226364
vn -0.3267592 0.8883322 -0.3226364
vn 0.3587977 0.6987101 -0.6189252
vn 0.4317293 0.6184855 -0.6565711
vn 0.4317293 0.6184855 -0.6565711
vn -0.552847 0.8154007 -0.171703
vn -0.4945018 0.829987 -0.2580496
vn -0.552847 0.8154007 -0.171703
vn 0.2785729 0.5601402 0.7801539
vn 0.373384 0.5820196 0.7223833
vn 0.2785729 0.5601402 0.7801539
vn 0.1327098 0.9029186 0.4088106
vn 0.05977823 0.8810391 0.4692512
vn 0.1327098 0.9029186 0.4088106
vn -0.2538276 0.924798 0.2834082
vn -0.2538276 0.924798 0.2834082
vn -0.2684139 0.9175048 0.2934942
vn -0.2684139 0.9175048 0.2934942
vn 0.3077456 0.9393843 0.1511612
vn 0.2639866 0.9466775 0.1846964
vn 0.3077456 0.9393843 0.1511612
vn 0.2129345 0.9539707 0.2111844
vn 0.0306056 0.924798 0.3792254
vn 0.2129345 0.9539707 0.2111844
vn -0.1517234 0.9612638 -0.2301127
vn 0.2494003 0.7862281 -0.5653715
vn -0.1517234 0.9612638 -0.2301127
vn 0.3515045 0.9320912 0.08746783
vn 0.3077456 0.9393843 0.1511612
vn 0.3077456 0.9393843 0.1511612
vn 0.2785729 0.7424691 0.6092099
vn 0.3150387 0.7497622 0.5818996
vn 0.3150387 0.7497622 0.5818996
vn 0.5630061 0.7060033 0.4296318
vn 0.5630061 0.7060033 0.4296318
vn 0.5994719 0.6987101 0.3904326
vn 0.5994719 0.6987101 0.3904326
vn -0.414277 0.8956254 0.1619557
vn -0.2902934 0.9539707 0.07529755
vn -0.2902934 0.9539707 0.07529755
vn 0.3879703 0.7278828 -0.5653899
vn 0.3879703 0.7278828 -0.5653899
vn 0.3879703 0.7278828 -0.5653899
vn -0.5674334 0.7205896 -0.3984595
vn -0.7862281 0.6184855 0
vn -0.5674334 0.7205896 -0.3984595
vn 0.606765 0.7716417 0.1908016
vn 0.2785729 0.7935212 0.5410371
vn 0.606765 0.7716417 0.1908016
vn -0.005860185 0.4799154 -0.8772952
vn -0.005860185 0.4799154 -0.8772952
vn 0.05248507 0.4507428 -0.8911095
vn 0.4973677 0.5309675 -0.686075
vn 0.4317293 0.6184855 -0.6565711
vn 0.4317293 0.6184855 -0.6565711
vn 0.6869898 0.7278828 0
vn 0.7599214 0.6330717 -0.1474439
vn 0.7599214 0.6330717 -0.1474439
vn -0.2392413 0.7424691 -0.6257021
vn -0.2392413 0.7424691 -0.6257021
vn -0.07879181 0.6841239 -0.7250975
vn -0.1954823 0.8664528 0.4593977
vn -0.1954823 0.8664528 0.4593977
vn -0.2975865 0.7862281 0.5415604
vn -0.2975865 0.7862281 0.5415604
vn -0.3121728 0.5820196 -0.750867
vn -0.3267592 0.5893128 -0.7388768
vn -0.3121728 0.5820196 -0.750867
vn -0.06420545 0.9904364 -0.1221201
vn -0.4069839 0.8810391 0.2411105
vn -0.06420545 0.9904364 -0.1221201
vn 0.650524 0.6987101 -0.2976955
vn 0.7234555 0.5236744 -0.4498636
vn 0.7234555 0.5236744 -0.4498636
vn 0.650524 0.6987101 -0.2976955
vn 0.4463156 0.8883322 0.1080195
vn 0.5848855 0.8081075 -0.06979387
vn 0.4463156 0.8883322 0.1080195
vn 0.3952635 0.6622444 0.6365526
vn 0.3952635 0.6622444 0.6365526
vn 0.1837619 0.6111923 0.7698542
vn -0.2902934 0.8226938 -0.4887787
vn -0.2902934 0.8226938 -0.4887787
vn -0.224655 0.8154007 -0.5335278
vn -0.224655 0.8154007 -0.5335278
vn 0.7599214 0.5236744 0.3850775
vn 0.7599214 0.5236744 0.3850775
vn 0.7307487 0.5309675 0.4290452
vn 0.3587977 0.8883322 0.2865834
vn 0.1327098 0.8664528 0.481298
vn 0.3587977 0.8883322 0.2865834
vn 0.1035372 0.7132965 -0.6931726
vn 0.1910551 0.6549512 -0.7311203
vn 0.1910551 0.6549512 -0.7311203
vn 0.2931592 0.8445733 -0.4480553
vn -0.06420545 0.9904364 -0.1221201
vn -0.06420545 0.9904364 -0.1221201
vn 0.2202277 0.7570554 -0.6151153
vn 0.2202277 0.7570554 -0.6151153
vn 0.3515045 0.6403649 -0.6829183
vn 0.4827814 0.735176 -0.4758555
vn 0.4827814 0.735176 -0.4758555
vn 0.4827814 0.735176 -0.4758555
vn 0.2858661 0.9539707 -0.09066711
vn 0.2712798 0.9612638 -0.04877621
vn 0.2712798 0.9612638 -0.04877621
vn -0.2830002 0.6768307 0.6795669
vn -0.2830002 0.6768307 0.6795669
vn -0.1663097 0.7716417 0.61393
vn -0.1663097 0.7716417 0.61393
vn 0.0816577 0.8226938 -0.5625895
vn -0.3486386 0.9175048 -0.1914052
vn -0.3486386 0.9175048 -0.1914052
vn 0.2785729 0.7424691 0.6092099
vn 0.329625 0.7570554 0.564105
vn 0.2785729 0.7424691 0.6092099
vn 0.1035372 0.9758501 0.1923451
vn -0.1298439 0.9029186 0.4097299
vn 0.1035372 0.9758501 0.1923451
vn -0.1225508 0.8226938 0.5551181
vn 0.08895086 0.9175048 0.3876501
vn 0.08895086 0.9175048 0.3876501
vn -0.2392413 0.7424691 -0.6257021
vn -0.3923976 0.7643486 -0.5116595
vn -0.3923976 0.7643486 -0.5116595
vn -0.2392413 0.7424691 -0.6257021
vn 0.5557129 0.7060033 0.4390244
vn 0.5557129 0.7060033 0.4390244
vn 0.6942829 0.6695375 0.2639899
vn 0.6942829 0.6695375 0.2639899
vn 0.2858661 0.9175048 0.2765238
vn 0.4463156 0.8883322 0.1080195
vn 0.4463156 0.8883322 0.1080195
vn -0.1225508 0.9029186 0.4119701
vn -0.1225508 0.9029186 0.4119701
vn -0.1881892 0.8664528 0.4624332
vn -0.1881892 0.8664528 0.4624332
vn 0.5848855 0.6695375 0.4578519
vn 0.3952635 0.6622444 0.6365526
vn 0.3952635 0.6622444 0.6365526
vn 0.09624401 0.829987 -0.5494167
vn 0.2202277 0.7497622 -0.6239843
vn 0.2202277 0.7497622 -0.6239843
vn -0.2027755 0.968557 -0.1441508
vn -0.3121728 0.9466775 -0.07968578
vn -0.2027755 0.968557 -0.1441508
vn -0.1736028 0.9029186 0.3931922
vn -0.1736028 0.9029186 0.3931922
vn -0.1736028 0.9029186 0.3931922
vn 0.4536088 0.691417 0.5623003
vn 0.4536088 0.691417 0.5623003
vn 0.4973677 0.691417 0.5239923
vn 0.4973677 0.691417 0.5239923
vn 0.5921787 0.8008143 0.08955888
vn 0.4827814 0.8372802 0.256679
vn 0.4827814 0.8372802 0.256679
vn 0.5265403 0.7862281 0.3234204
vn 0.5265403 0.7862281 0.3234204
vn 0.6140582 0.7643486 0.1967328
vn 0.6140582 0.7643486 0.1967328
vn 0.2494003 0.8372802 0.4865814
vn 0.2494003 0.8372802 0.4865814
vn 0.3879703 0.8518665 0.3518558
vn 0.3879703 0.8518665 0.3518558
vn -0.3486386 0.7205896 0.5993344
vn -0.2611207 0.8008143 0.538992
vn -0.3486386 0.7205896 0.5993344
vn -0.319466 0.5309675 -0.7848662
vn -0.319466 0.5309675 -0.7848662
vn -0.1006713 0.4653291 -0.8793942
vn 0.04519191 0.968557 0.2446529
vn 0.04519191 0.968557 0.2446529
vn -0.2684139 0.8154007 0.5129091
vn -0.2684139 0.8154007 0.5129091
vn 0.4754882 0.7497622 -0.4601821
vn 0.4754882 0.7497622 -0.4601821
vn 0.4754882 0.7497622 -0.4601821
vn -0.224655 0.8883322 -0.4004947
vn -0.3996907 0.8883322 -0.2260822
vn -0.224655 0.8883322 -0.4004947
vn -0.7789349 0.5382607 -0.3217699
vn -0.7789349 0.5382607 -0.3217699
vn -0.8664528 0.4872086 -0.1090294
vn -0.8664528 0.4872086 -0.1090294
vn 0.1108303 0.7497622 -0.6523597
vn 0.1691756 0.7060033 -0.6877056
vn 0.1691756 0.7060033 -0.6877056
vn 0.1108303 0.7497622 -0.6523597
vn -0.6549512 0.5674334 -0.4990574
vn -0.7789349 0.5382607 -0.3217699
vn -0.7789349 0.5382607 -0.3217699
vn -0.6549512 0.5674334 -0.4990574
vn 0.0306056 0.9466775 0.3207257
vn -0.01315334 0.9393843 0.3426135
vn 0.0306056 0.9466775 0.3207257
vn -0.224655 0.9539707 -0.1986709
vn -0.3778113 0.924798 -0.04480284
vn -0.224655 0.9539707 -0.1986709
vn 0.1837619 0.9466775 0.264638
vn 0.1181235 0.9393843 0.3218756
vn 0.1181235 0.9393843 0.3218756
vn 0.8036803 0.5893128 0.08251308
vn 0.8109735 0.5820196 0.05979291
vn 0.8036803 0.5893128 0.08251308
vn -0.2538276 0.924798 0.2834082
vn -0.2392413 0.9320912 0.2719736
vn -0.2538276 0.924798 0.2834082
vn -0.1663097 0.7716417 0.61393
vn -0.04232597 0.8445733 0.5337644
vn -0.1663097 0.7716417 0.61393
vn 0.3587977 0.7716417 0.5251983
vn 0.1764687 0.7278828 0.662605
vn 0.1764687 0.7278828 0.662605
vn -0.6330717 0.6695375 0.3885095
vn -0.6403649 0.6476581 0.4128824
vn -0.6403649 0.6476581 0.4128824
vn 0.2202277 0.7570554 -0.6151153
vn 0.0816577 0.8518665 -0.5173544
vn 0.2202277 0.7570554 -0.6151153
vn 0.3369182 0.6476581 -0.6833924
vn 0.3369182 0.6476581 -0.6833924
vn 0.2202277 0.7497622 -0.6239843
vn 0.2202277 0.7497622 -0.6239843
vn 0.7161624 0.6257786 -0.3090511
vn 0.6796966 0.691417 -0.2448572
vn 0.7161624 0.6257786 -0.3090511
vn 0.5557129 0.7862281 0.270238
vn 0.4390224 0.8008143 0.4073766
vn 0.4390224 0.8008143 0.4073766
vn -0.4653291 0.7497622 -0.4704523
vn -0.4653291 0.7497622 -0.4704523
vn -0.05691228 0.6549512 -0.753525
vn 0.3515045 0.8518665 0.3882886
vn 0.3515045 0.8518665 0.3882886
vn 0.4827814 0.8372802 0.256679
vn 0.4827814 0.8372802 0.256679
vn -0.3705181 0.8883322 -0.2712603
vn -0.5455539 0.8372802 -0.03650926
vn -0.3705181 0.8883322 -0.2712603
vn 0.140003 0.9904364 0
vn 0.07436454 0.9904364 0.1162135
vn 0.140003 0.9904364 0
vn -0.2830002 0.9466775 -0.1539889
vn -0.2830002 0.9466775 -0.1539889
vn -0.3121728 0.9393843 -0.1417927
vn -0.3121728 0.9393843 -0.1417927
vn 0.2639866 0.4361565 -0.8602782
vn 0.1108303 0.5309675 -0.8401132
vn 0.1108303 0.5309675 -0.8401132
vn 0.2639866 0.4361565 -0.8602782
vn 0.6869898 0.7205896 0.09378491
vn 0.6140582 0.7643486 0.1967328
vn 0.6140582 0.7643486 0.1967328
vn -0.3559318 0.8664528 0.3501031
vn -0.3559318 0.8664528 0.3501031
vn -0.3559318 0.8664528 0.3501031
vn 0.3806771 0.924798 0
vn 0.2129345 0.9539707 0.2111844
vn 0.2129345 0.9539707 0.2111844
vn 0.650524 0.6987101 -0.2976955
vn 0.650524 0.6987101 -0.2976955
vn 0.5484198 0.829987 -0.1017711
vn -0.03503281 0.8372802 -0.5456507
vn -0.224655 0.8883322 -0.4004947
vn -0.224655 0.8883322 -0.4004947
vn -0.4507428 0.8810391 -0.1435307
vn -0.4507428 0.8810391 -0.1435307
vn -0.3632249 0.8956254 -0.2567543
vn -0.3632249 0.8956254 -0.2567543
vn -0.2902934 0.8226938 -0.4887787
vn -0.3559318 0.829987 -0.429458
vn -0.3559318 0.829987 -0.429458
vn -0.2902934 0.8226938 -0.4887787
vn 0.8036803 0.5893128 0.08251308
vn 0.8036803 0.596606 0
vn 0.8036803 0.596606 0
vn 0.8036803 0.5893128 0.08251308
vn 0.08895086 0.9175048 0.3876501
vn 0.3004524 0.9393843 0.1651829
vn 0.08895086 0.9175048 0.3876501
vn 0.7015761 0.7132965 0
vn 0.511954 0.829987 0.2214152
vn 0.511954 0.829987 0.2214152
vn -0.1225508 0.9029186 0.4119701
vn -0.06420545 0.9320912 0.356488
vn -0.1225508 0.9029186 0.4119701
vn -0.4799154 0.8518665 0.2097729
vn -0.5674334 0.7497622 0.3404056
vn -0.5674334 0.7497622 0.3404056
vn -0.4799154 0.8518665 0.2097729
vn -0.07879181 0.968557 -0.2359856
vn -0.2027755 0.968557 -0.1441508
vn -0.2027755 0.968557 -0.1441508
vn -0.1736028 0.4726223 0.8639966
vn 0.1472961 0.6257786 0.7659667
vn 0.1472961 0.6257786 0.7659667
vn 0.4390224 0.8008143 0.4073766
vn 0.3004524 0.7935212 0.5291998
vn 0.4390224 0.8008143 0.4073766
vn -0.596606 0.7716417 0.220523
vn -0.1590165 0.9320912 -0.3254532
vn -0.1590165 0.9320912 -0.3254532
vn 0.0816577 0.8081075 0.5833475
vn 0.4681951 0.8518665 0.2347699
vn 0.0816577 0.8081075 0.5833475
vn -0.2902934 0.9539707 0.07529755
vn -0.1517234 0.9831433 -0.1020261
vn -0.2902934 0.9539707 0.07529755
vn -0.319466 0.8883322 -0.3298595
vn -0.3048797 0.8883322 -0.3433864
vn -0.3048797 0.8883322 -0.3433864
vn -0.319466 0.8883322 -0.3298595
vn 0.2712798 0.5893128 -0.7609978
vn 0.2712798 0.5893128 -0.7609978
vn 0.1910551 0.6549512 -0.7311203
vn 0.1910551 0.6549512 -0.7311203
vn -0.3121728 0.5820196 -0.750867
vn -0.3121728 0.5820196 -0.750867
vn -0.2975865 0.5820196 -0.7567664
vn 0.5265403 0.7060033 0.4736187
vn 0.5265403 0.7060033 0.4736187
vn 0.5630061 0.7060033 0.4296318
vn 0.5630061 0.7060033 0.4296318
vn 0.1764687 0.7278828 0.662605
vn 0.1764687 0.7278828 0.662605
vn -0.005860185 0.6549512 0.7556484
vn 0.5557129 0.829987 0.04800758
vn 0.3587977 0.8883322 0.2865834
vn 0.3587977 0.8883322 0.2865834
vn 0.1472961 0.6257786 0.7659667
vn 0.4463156 0.691417 0.5681065
vn 0.1472961 0.6257786 0.7659667
vn -0.6111923 0.3340523 0.7175326
vn -0.5455539 0.4726223 0.6920977
vn -0.5455539 0.4726223 0.6920977
vn 0.3515045 0.9320912 -0.08746783
vn 0.3515045 0.9320912 -0.08746783
vn 0.04519191 0.968557 0.2446529
vn 0.04519191 0.968557 0.2446529
vn 0.2129345 0.7424691 0.6351366
vn 0.2129345 0.7424691 0.6351366
vn 0.08895086 0.6987101 0.7098534
vn 0.7380419 0.5090881 0.4428583
vn 0.6651103 0.5236744 0.5323471
vn 0.7380419 0.5090881 0.4428583
vn 0.234814 0.924798 0.299351
vn 0.2056414 0.9175048 0.3404357
vn 0.234814 0.924798 0.299351
vn 0.1108303 0.5309675 -0.8401132
vn 0.1108303 0.5309675 -0.8401132
vn -0.04232597 0.6111923 -0.7903496
vn 0.4609019 0.735176 -0.4970772
vn 0.4900745 0.691417 -0.5308197
vn 0.4609019 0.735176 -0.4970772
vn -0.4361565 0.7935212 -0.424372
vn -0.1298439 0.7278828 -0.6732957
vn -0.1298439 0.7278828 -0.6732957
vn 0.05977823 0.4799154 -0.8752758
vn 0.05977823 0.4799154 -0.8752758
vn -0.2684139 0.596606 -0.756317
vn -0.2684139 0.596606 -0.756317
vn 0.6578171 0.691417 -0.2986958
vn 0.6578171 0.691417 -0.2986958
vn 0.5994719 0.7716417 -0.2126088
vn 0.5994719 0.7716417 -0.2126088
vn -0.224655 0.8081075 0.5445112
vn -0.224655 0.8081075 0.5445112
vn -0.2173618 0.8154007 0.5365404
vn -0.2173618 0.8154007 0.5365404
vn -0.1954823 0.8664528 0.4593977
vn -0.09337813 0.924798 0.3688213
vn -0.1954823 0.8664528 0.4593977
vn -0.3121728 0.9466775 -0.07968578
vn -0.6768307 0.5674334 0.4689558
vn -0.3121728 0.9466775 -0.07968578
vn -0.2830002 0.9466775 -0.1539889
vn -0.2611207 0.9466775 -0.1887264
vn -0.2830002 0.9466775 -0.1539889
vn -0.3486386 0.9175048 -0.1914052
vn -0.6622444 0.7060033 0.2509815
vn -0.3486386 0.9175048 -0.1914052
vn -0.8226938 0.5674334 0.03455801
vn -0.8518665 0.4799154 0.2097729
vn -0.8226938 0.5674334 0.03455801
vn 0.1618824 0.3121728 -0.9361315
vn 0.1618824 0.3121728 -0.9361315
vn 0.1618824 0.3121728 -0.9361315
vn 0.1618824 0.3121728 -0.9361315
vn -0.6257786 0.7789349 0.04076214
vn -0.6257786 0.7789349 0.04076214
vn -0.7278828 0.6403649 0.2451927
vn 0.3515045 0.6403649 -0.6829183
vn -0.1590165 0.9320912 -0.3254532
vn -0.1590165 0.9320912 -0.3254532
vn -0.5601402 0.5893128 -0.5821971
vn -0.6476581 0.5820196 -0.4917237
vn -0.6476581 0.5820196 -0.4917237
vn -0.05691228 0.9320912 -0.3577248
vn -0.224655 0.9539707 -0.1986709
vn -0.224655 0.9539707 -0.1986709
vn 0.3223319 0.9393843 -0.1168727
vn 0.3806771 0.9029186 -0.1995569
vn 0.3223319 0.9393843 -0.1168727
vn -0.8226938 0.5674334 0.03455801
vn -0.8226938 0.5674334 0.03455801
vn -0.7643486 0.6403649 -0.07552537
vn 0.3004524 0.7862281 0.5399757
vn 0.3077456 0.7862281 0.5358527
vn 0.3077456 0.7862281 0.5358527
vn -0.3413455 0.8956254 -0.2851989
vn -0.3632249 0.8956254 -0.2567543
vn -0.3413455 0.8956254 -0.2851989
vn -0.4215702 0.6111923 0.6698676
vn 0.001432972 0.924798 0.3804558
vn 0.001432972 0.924798 0.3804558
vn -0.06420545 0.5017949 -0.8626004
vn -0.06420545 0.5017949 -0.8626004
vn -0.005860185 0.4799154 -0.8772952
vn -0.005860185 0.4799154 -0.8772952
vn 0.3077456 0.7862281 0.5358527
vn 0.3150387 0.7862281 0.5315976
vn 0.3077456 0.7862281 0.5358527
vn 0.4536088 0.8008143 -0.3910697
vn 0.4827814 0.7716417 -0.414115
vn 0.4536088 0.8008143 -0.3910697
vn 0.2275208 0.7278828 0.6468546
vn 0.2785729 0.7424691 0.6092099
vn 0.2785729 0.7424691 0.6092099
vn -0.3267592 0.8883322 0.3226364
vn -0.3267592 0.8883322 0.3226364
vn -0.3267592 0.8883322 0.3226364
vn -0.4799154 0.8518665 0.2097729
vn -0.3705181 0.924798 0.08640014
vn -0.4799154 0.8518665 0.2097729
vn -0.3851044 0.829987 -0.4035049
vn -0.5820196 0.7935212 -0.1776998
vn -0.3851044 0.829987 -0.4035049
vn 0.511954 0.829987 0.2214152
vn 0.2566935 0.8372802 0.4827737
vn 0.511954 0.829987 0.2214152
vn -0.2538276 0.319466 0.9129694
vn -0.2538276 0.319466 0.9129694
vn -0.2538276 0.319466 0.9129694
vn 0.3223319 0.9393843 -0.1168727
vn 0.2785729 0.9612638 0
vn 0.3223319 0.9393843 -0.1168727
vn -0.6403649 0.7643486 -0.07552537
vn -0.4872086 0.8226938 -0.2929209
vn -0.6403649 0.7643486 -0.07552537
vn -0.8883322 0.414277 0.1980918
vn -0.8883322 0.414277 0.1980918
vn -0.8883322 0.4215702 0.182056
vn -0.2830002 0.9539707 -0.09925143
vn -0.03503281 0.9466775 -0.3202724
vn -0.2830002 0.9539707 -0.09925143
vn 0.8255598 0.552847 -0.1131865
vn 0.8401461 0.5163813 -0.1658463
vn 0.8255598 0.552847 -0.1131865
vn -0.5747265 0.8154007 -0.06936323
vn -0.6038991 0.7935212 -0.07503276
vn -0.5747265 0.8154007 -0.06936323
vn -0.5017949 0.8445733 0.1868094
vn -0.1517234 0.9612638 -0.2301127
vn -0.1517234 0.9612638 -0.2301127
vn -0.3559318 0.8737459 0.3314825
vn -0.3559318 0.8737459 0.3314825
vn -0.3559318 0.8737459 0.3314825
vn 0.001432972 0.924798 0.3804558
vn 0.4244361 0.9029186 -0.06776445
vn 0.001432972 0.924798 0.3804558
vn -0.5017949 0.8445733 0.1868094
vn -0.2830002 0.9539707 -0.09925143
vn -0.2830002 0.9539707 -0.09925143
vn -0.3121728 0.9466775 -0.07968578
vn 0.2275208 0.8154007 -0.532312
vn -0.3121728 0.9466775 -0.07968578
vn -0.3340523 0.3632249 0.8697567
vn -0.3996907 0.3048797 0.8644627
vn -0.3340523 0.3632249 0.8697567
vn 0.6796966 0.7278828 0.09054905
vn 0.789094 0.5820196 -0.1964277
vn 0.6796966 0.7278828 0.09054905
vn -0.04961913 0.4288633 -0.9020056
vn -0.04961913 0.4288633 -0.9020056
vn 0.05248507 0.3923976 -0.9182971
vn -0.5747265 0.5090881 0.6407174
vn -0.4726223 0.6841239 0.5555202
vn -0.5747265 0.5090881 0.6407174
vn 0.2712798 0.9393843 -0.2096767
vn 0.2712798 0.9393843 -0.2096767
vn 0.2712798 0.9393843 -0.2096767
vn -0.05691228 0.8956254 0.4411532
vn -0.180896 0.8226938 0.5389355
vn -0.05691228 0.8956254 0.4411532
vn 0.7380419 0.5090881 0.4428583
vn 0.7380419 0.5090881 0.4428583
vn 0.8109735 0.4945018 0.312714
vn -0.1517234 0.4653291 -0.8720372
vn -0.1517234 0.4653291 -0.8720372
vn -0.04961913 0.4288633 -0.9020056
vn -0.04961913 0.4288633 -0.9020056
vn 0.4827814 0.8737459 0.05907824
vn 0.4827814 0.8737459 0.05907824
vn 0.4827814 0.8737459 0.05907824
vn -0.8883322 0.414277 0.1980918
vn -0.8883322 0.3996907 0.2260822
vn -0.8883322 0.414277 0.1980918
vn -0.2027755 0.8154007 0.5422212
vn 0.001432972 0.9175048 0.397722
vn 0.001432972 0.9175048 0.397722
vn -0.596606 0.3340523 0.7297057
vn -0.596606 0.3340523 0.7297057
vn -0.596606 0.3340523 0.7297057
vn -0.6549512 0.414277 -0.6319916
vn -0.6549512 0.414277 -0.6319916
vn -0.3705181 0.3923976 -0.8418673
vn 0.07436454 0.8226938 -0.5635998
vn -0.1736028 0.9102117 -0.3760009
vn 0.07436454 0.8226938 -0.5635998
vn -0.4507428 0.8810391 -0.1435307
vn -0.5236744 0.8518665 -0.00941538
vn -0.4507428 0.8810391 -0.1435307
vn 0.2129345 0.7424691 0.6351366
vn 0.2129345 0.7424691 0.6351366
vn 0.3369182 0.7716417 0.5394953
vn 0.3369182 0.7716417 0.5394953
vn -0.6768307 0.6038991 0.4209585
vn -0.6768307 0.6038991 0.4209585
vn -0.6622444 0.6476581 0.376791
vn -0.2100686 0.8154007 0.5394376
vn -0.2173618 0.8154007 0.5365404
vn -0.2173618 0.8154007 0.5365404
vn 0.2056414 0.9758501 -0.0736763
vn 0.140003 0.9904364 0
vn 0.140003 0.9904364 0
vn -0.6768307 0.6038991 0.4209585
vn -0.6987101 0.552847 0.4540532
vn -0.6768307 0.6038991 0.4209585
vn -0.3413455 0.9102117 0.2345162
vn 0.02331244 0.9904364 -0.135986
vn -0.3413455 0.9102117 0.2345162
vn 0.3660908 0.9175048 -0.1554425
vn 0.3223319 0.9393843 -0.1168727
vn 0.3223319 0.9393843 -0.1168727
vn 0.2056414 0.552847 -0.8075096
vn -0.1298439 0.7278828 -0.6732957
vn -0.1298439 0.7278828 -0.6732957
vn 0.2712798 0.9612638 -0.04877621
vn 0.3223319 0.9393843 -0.1168727
vn 0.3223319 0.9393843 -0.1168727
vn -0.1444302 0.7862281 -0.6008205
vn -0.3851044 0.829987 -0.4035049
vn -0.3851044 0.829987 -0.4035049
vn -0.5236744 0.7060033 0.4767856
vn -0.3923976 0.8591596 0.3284341
vn -0.3923976 0.8591596 0.3284341
vn -0.6549512 0.3121728 0.6881766
vn -0.5747265 0.5090881 0.6407174
vn -0.5747265 0.5090881 0.6407174
vn -0.5747265 0.8154007 -0.06936323
vn -0.5747265 0.8154007 -0.06936323
vn -0.5382607 0.829987 -0.1462772
vn -0.5382607 0.829987 -0.1462772
vn -0.3851044 0.9029186 -0.1908733
vn -0.4069839 0.8956254 -0.1794972
vn -0.4069839 0.8956254 -0.1794972
vn 0.7161624 0.6257786 -0.3090511
vn 0.745335 0.5455539 -0.3832058
vn 0.7161624 0.6257786 -0.3090511
vn -0.6622444 0.5236744 -0.5359082
vn -0.6622444 0.5236744 -0.5359082
vn -0.6622444 0.5236744 -0.5359082
vn 0.001432972 0.9175048 0.397722
vn 0.2056414 0.9612638 0.1835306
vn 0.001432972 0.9175048 0.397722
vn 0.2639866 0.924798 0.2739702
vn 0.234814 0.924798 0.299351
vn 0.234814 0.924798 0.299351
vn 0.1910551 0.5820196 0.790412
vn 0.1910551 0.5820196 0.790412
vn 0.1910551 0.5820196 0.790412
vn -0.5455539 0.8154007 0.1936304
vn -0.5455539 0.8154007 0.1936304
vn -0.5455539 0.8154007 0.1936304
vn 0.1983482 0.4288633 -0.8813252
vn 0.1983482 0.4288633 -0.8813252
vn 0.1983482 0.4288633 -0.8813252
vn -0.3851044 0.8081075 0.4457094
vn -0.3559318 0.8372802 0.4150596
vn -0.3559318 0.8372802 0.4150596
vn 0.3806771 0.2902934 -0.8779605
vn 0.3806771 0.2902934 -0.8779605
vn 0.05977823 0.4799154 -0.8752758
vn 0.05977823 0.4799154 -0.8752758
vn -0.3340523 0.5382607 0.773747
vn 0.0816577 0.8081075 0.5833475
vn 0.0816577 0.8081075 0.5833475
vn 0.3004524 0.8956254 0.3279992
vn 0.3004524 0.8956254 0.3279992
vn 0.3004524 0.8956254 0.3279992
vn 0.3004524 0.8956254 0.3279992
vn 0.0816577 0.3413455 -0.9363841
vn 0.0816577 0.3413455 -0.9363841
vn 0.0816577 0.3413455 -0.9363841
vn 0.1472961 0.9831433 -0.1083197
vn 0.1472961 0.9831433 -0.1083197
vn 0.1472961 0.9831433 -0.1083197
vn 0.02331244 0.9466775 0.3213382
vn 0.04519191 0.9539707 0.2964754
vn 0.04519191 0.9539707 0.2964754
vn -0.1371371 0.968557 0.2075831
vn -0.2319481 0.924798 0.301577
vn -0.1371371 0.968557 0.2075831
vn 0.07436454 0.8226938 -0.5635998
vn 0.07436454 0.8226938 -0.5635998
vn 0.3077456 0.6476581 -0.6970163
vn -0.4434497 0.8810391 0.1646892
vn -0.3778113 0.924798 0.04480284
vn -0.4434497 0.8810391 0.1646892
vn 0.8620256 0.4215702 0.2814081
vn 0.8620256 0.4215702 0.2814081
vn 0.8620256 0.4215702 0.2814081
vn -0.3559318 0.8372802 0.4150596
vn -0.319466 0.8664528 0.3836679
vn -0.3559318 0.8372802 0.4150596
vn -0.1225508 0.7935212 0.596075
vn -0.2027755 0.735176 0.6468372
vn -0.2027755 0.735176 0.6468372
vn 0.4973677 0.8008143 0.3336492
vn 0.5775924 0.7862281 0.2196188
vn 0.5775924 0.7862281 0.2196188
vn -0.4434497 0.8810391 0.1646892
vn -0.5090881 0.829987 0.2279274
vn -0.5090881 0.829987 0.2279274
vn -0.4434497 0.8810391 0.1646892
vn 0.4244361 0.7716417 -0.4737331
vn 0.4609019 0.735176 -0.4970772
vn 0.4609019 0.735176 -0.4970772
vn -0.05691228 0.9539707 0.2944503
vn -0.05691228 0.9539707 0.2944503
vn -0.05691228 0.9539707 0.2944503
vn -0.4726223 0.8591596 -0.1961453
vn -0.6257786 0.7789349 0.04076214
vn -0.6257786 0.7789349 0.04076214
vn -0.3340523 0.3632249 0.8697567
vn -0.3340523 0.3632249 0.8697567
vn -0.2538276 0.414277 0.8740401
vn 0.4317293 0.8226938 -0.3698442
vn 0.4536088 0.8008143 -0.3910697
vn 0.4536088 0.8008143 -0.3910697
vn 0.008726128 0.9831433 -0.1826285
vn 0.008726128 0.9831433 -0.1826285
vn 0.008726128 0.9831433 -0.1826285
vn -0.3632249 0.8883322 0.280951
vn -0.3486386 0.8956254 0.2762358
vn -0.3486386 0.8956254 0.2762358
vn -0.4069839 0.8956254 -0.1794972
vn -0.4288633 0.8956254 -0.1180311
vn -0.4069839 0.8956254 -0.1794972
vn -0.03503281 0.9977296 0.05751824
vn -0.1371371 0.968557 0.2075831
vn -0.1371371 0.968557 0.2075831
vn -0.3923976 0.8591596 0.3284341
vn -0.2392413 0.9539707 0.1808413
vn -0.3923976 0.8591596 0.3284341
vn 0.3223319 0.3705181 0.8711019
vn 0.3223319 0.3705181 0.8711019
vn 0.3223319 0.3705181 0.8711019
vn 0.05248507 0.3632249 -0.930222
vn 0.05248507 0.3632249 -0.930222
vn 0.05248507 0.3632249 -0.930222
vn -0.04961913 0.3559318 -0.9331937
vn -0.04961913 0.3559318 -0.9331937
vn -0.04961913 0.3559318 -0.9331937
vn -0.5820196 0.7789349 0.2334814
vn -0.5820196 0.7789349 0.2334814
vn -0.5820196 0.7789349 0.2334814
vn -0.01315334 0.8737459 0.4862047
vn -0.01315334 0.8737459 0.4862047
vn -0.01315334 0.8737459 0.4862047
vn 0.4754882 0.7643486 0.4355252
vn 0.2056414 0.7205896 0.6621648
vn 0.2056414 0.7205896 0.6621648
vn 0.07436454 0.9393843 0.3347043
vn -0.05691228 0.8956254 0.4411532
vn -0.05691228 0.8956254 0.4411532
vn 0.5046608 0.7862281 -0.356599
vn 0.4463156 0.8518665 -0.274091
vn 0.5046608 0.7862281 -0.356599
vn -0.4288633 0.6330717 0.644435
vn -0.3486386 0.7205896 0.5993344
vn -0.3486386 0.7205896 0.5993344
vn 0.001432972 0.9320912 0.3622209
vn 0.001432972 0.9320912 0.3622209
vn 0.001432972 0.9320912 0.3622209
vn 0.140003 0.9539707 0.2652152
vn 0.140003 0.9539707 0.2652152
vn 0.140003 0.9539707 0.2652152
vn 0.140003 0.9539707 0.2652152
vn -0.6403649 0.6476581 0.4128824
vn -0.6403649 0.6476581 0.4128824
vn -0.6549512 0.6184855 0.4341827
vn 0.3077456 0.5820196 -0.7526924
vn 0.3077456 0.5820196 -0.7526924
vn 0.3077456 0.5820196 -0.7526924
vn 0.8036803 0.5893128 -0.08251308
vn 0.8036803 0.5893128 -0.08251308
vn 0.8036803 0.5893128 -0.08251308
vn -0.1079644 0.9904364 -0.08590313
vn -0.1079644 0.9904364 -0.08590313
vn -0.1079644 0.9904364 -0.08590313
vn -0.5601402 0.5747265 -0.5966008
vn -0.5455539 0.5747265 -0.6099676
vn -0.5601402 0.5747265 -0.5966008
vn -0.2538276 0.3778113 0.8904101
vn -0.2538276 0.3778113 0.8904101
vn -0.2538276 0.3778113 0.8904101
vn 0.5192472 0.691417 0.5023196
vn 0.5192472 0.691417 0.5023196
vn 0.5192472 0.691417 0.5023196
vn -0.6549512 0.414277 -0.6319916
vn -0.6549512 0.414277 -0.6319916
vn -0.8591596 0.3851044 -0.3369561
vn -0.5455539 0.4726223 0.6920977
vn -0.5455539 0.4726223 0.6920977
vn -0.4653291 0.596606 0.6538579
vn -0.9102117 0.2611207 0.3214507
vn -0.9102117 0.2611207 0.3214507
vn -0.9102117 0.2611207 0.3214507
vn -0.3121728 0.8956254 -0.3168647
vn -0.3413455 0.8956254 -0.2851989
vn -0.3413455 0.8956254 -0.2851989
vn -0.4726223 0.8518665 -0.2257247
vn -0.4726223 0.8518665 -0.2257247
vn -0.4726223 0.8518665 -0.2257247
vn 0.6796966 0.7278828 0.09054905
vn 0.4973677 0.8008143 0.3336492
vn 0.6796966 0.7278828 0.09054905
vn 0.5921787 0.458036 -0.6629686
vn 0.5921787 0.458036 -0.6629686
vn 0.5921787 0.458036 -0.6629686
vn 0.3587977 0.8591596 -0.3648411
vn -0.04232597 0.9977296 0.05238472
vn -0.04232597 0.9977296 0.05238472
vn -0.3340523 0.8591596 0.3876259
vn -0.2975865 0.8883322 0.3497257
vn -0.2975865 0.8883322 0.3497257
vn -0.3486386 0.8956254 0.2762358
vn -0.3413455 0.9029186 0.2611921
vn -0.3486386 0.8956254 0.2762358
vn 0.1181235 0.9466775 0.2997475
vn 0.1181235 0.9466775 0.2997475
vn 0.1181235 0.9466775 0.2997475
vn -0.3851044 0.596606 0.7040994
vn -0.2757071 0.7060033 0.6523381
vn -0.3851044 0.596606 0.7040994
vn 0.1837619 0.7789349 0.5995765
vn 0.1837619 0.7789349 0.5995765
vn 0.1837619 0.7789349 0.5995765
vn 0.2056414 0.7205896 0.6621648
vn 0.2056414 0.7205896 0.6621648
vn -0.09337813 0.5893128 0.8024905
vn 0.2566935 0.8956254 0.3632679
vn 0.2566935 0.8956254 0.3632679
vn 0.2566935 0.8956254 0.3632679
vn 0.1545893 0.4726223 0.8676003
vn 0.1545893 0.4726223 0.8676003
vn 0.1545893 0.4726223 0.8676003
vn -0.1371371 0.4215702 -0.896366
vn -0.1371371 0.4215702 -0.896366
vn -0.1371371 0.4215702 -0.896366
vn 0.6359377 0.5017949 0.5863319
vn 0.6359377 0.5017949 0.5863319
vn 0.6359377 0.5017949 0.5863319
vn -0.3413455 0.9102117 0.2345162
vn -0.6111923 0.5820196 0.5363741
vn -0.3413455 0.9102117 0.2345162
vn -0.5601402 0.5747265 -0.5966008
vn -0.5601402 0.5747265 -0.5966008
vn -0.5674334 0.5747265 -0.5896685
vn -0.4799154 0.4726223 0.7391274
vn -0.3851044 0.596606 0.7040994
vn -0.3851044 0.596606 0.7040994
vn 0.5775924 0.7862281 0.2196188
vn 0.6432309 0.7570554 0.1145477
vn 0.5775924 0.7862281 0.2196188
vn -0.4434497 0.5601402 0.6997109
vn -0.4726223 0.5309675 0.7033503
vn -0.4726223 0.5309675 0.7033503
vn 0.2639866 0.4288633 -0.8639371
vn 0.2639866 0.4288633 -0.8639371
vn 0.2639866 0.4288633 -0.8639371
vn -0.04232597 0.9977296 0.05238472
vn -0.4288633 0.7862281 0.4448839
vn -0.04232597 0.9977296 0.05238472
vn -0.6403649 0.7643486 -0.07552537
vn -0.7424691 0.6549512 0.140636
vn -0.6403649 0.7643486 -0.07552537
vn -0.4726223 0.5309675 0.7033503
vn -0.4726223 0.5309675 0.7033503
vn -0.4945018 0.4945018 0.7147979
vn -0.1079644 0.9904364 0.08590313
vn -0.1079644 0.9904364 0.08590313
vn -0.1079644 0.9904364 0.08590313
vn -0.6476581 0.5820196 -0.4917237
vn -0.6476581 0.5820196 -0.4917237
vn -0.7205896 0.5747265 -0.3878661
vn 0.07436454 0.4872086 -0.8701136
vn 0.07436454 0.4872086 -0.8701136
vn 0.07436454 0.4872086 -0.8701136
vn -0.2027755 0.735176 0.6468372
vn -0.2027755 0.735176 0.6468372
vn -0.2830002 0.6695375 0.6867535
vn -0.2975865 0.8883322 0.3497257
vn -0.2684139 0.9102117 0.3153864
vn -0.2975865 0.8883322 0.3497257
vn 0.5046608 0.7497622 0.4279884
vn 0.5046608 0.7497622 0.4279884
vn 0.5046608 0.7497622 0.4279884
g Hill_Rock_02_0
f 3/3/3 2/2/2 1/1/1
f 4/4/4 3/3/3 1/1/1
f 1/1/1 5/5/5 4/4/4
f 8/8/8 7/7/7 6/6/6
f 11/11/11 10/10/10 9/9/9
f 14/14/14 13/13/13 12/12/12
f 17/17/17 16/16/16 15/15/15
f 16/16/16 17/17/17 18/18/18
f 18/18/18 19/19/19 16/16/16
f 22/22/22 21/21/21 20/20/20
f 25/25/25 24/24/24 23/23/23
f 28/28/28 27/27/27 26/26/26
f 31/31/31 30/30/30 29/29/29
f 34/34/34 33/33/33 32/32/32
f 37/37/37 36/36/36 35/35/35
f 40/40/40 39/39/39 38/38/38
f 43/43/43 42/42/42 41/41/41
f 46/46/46 45/45/45 44/44/44
f 49/49/49 48/48/48 47/47/47
f 52/52/52 51/51/51 50/50/50
f 55/55/55 54/54/54 53/53/53
f 58/58/58 57/57/57 56/56/56
f 56/56/56 59/59/59 58/58/58
f 62/62/62 61/61/61 60/60/60
f 65/65/65 64/64/64 63/63/63
f 63/63/63 66/66/66 65/65/65
f 69/69/69 68/68/68 67/67/67
f 72/72/72 71/71/71 70/70/70
f 75/75/75 74/74/74 73/73/73
f 78/78/78 77/77/77 76/76/76
f 81/81/81 80/80/80 79/79/79
f 84/84/84 83/83/83 82/82/82
f 87/87/87 86/86/86 85/85/85
f 85/85/85 88/88/88 87/87/87
f 91/91/91 90/90/90 89/89/89
f 89/89/89 92/92/92 91/91/91
f 95/95/95 94/94/94 93/93/93
f 98/98/98 97/97/97 96/96/96
f 101/101/101 100/100/100 99/99/99
f 99/99/99 102/102/102 101/101/101
f 105/105/105 104/104/104 103/103/103
f 103/103/103 106/106/106 105/105/105
f 109/109/109 108/108/108 107/107/107
f 109/109/109 107/107/107 110/110/110
f 110/110/110 111/111/111 109/109/109
f 114/114/114 113/113/113 112/112/112
f 112/112/112 115/115/115 114/114/114
f 118/118/118 117/117/117 116/116/116
f 121/121/121 120/120/120 119/119/119
f 124/124/124 123/123/123 122/122/122
f 127/127/127 126/126/126 125/125/125
f 125/125/125 128/128/128 127/127/127
f 131/131/131 130/130/130 129/129/129
f 134/134/134 133/133/133 132/132/132
f 137/137/137 136/136/136 135/135/135
f 140/140/140 139/139/139 138/138/138
f 143/143/143 142/142/142 141/141/141
f 141/141/141 144/144/144 143/143/143
f 147/147/147 146/146/146 145/145/145
f 150/150/150 149/149/149 148/148/148
f 153/153/153 152/152/152 151/151/151
f 156/156/156 155/155/155 154/154/154
f 159/159/159 158/158/158 157/157/157
f 162/162/162 161/161/161 160/160/160
f 160/160/160 163/163/163 162/162/162
f 166/166/166 165/165/165 164/164/164
f 169/169/169 168/168/168 167/167/167
f 172/172/172 171/171/171 170/170/170
f 175/175/175 174/174/174 173/173/173
f 178/178/178 177/177/177 176/176/176
f 181/181/181 180/180/180 179/179/179
f 184/184/184 183/183/183 182/182/182
f 187/187/187 186/186/186 185/185/185
f 190/190/190 189/189/189 188/188/188
f 188/188/188 191/191/191 190/190/190
f 194/194/194 193/193/193 192/192/192
f 197/197/197 196/196/196 195/195/195
f 200/200/200 199/199/199 198/198/198
f 198/198/198 201/201/201 200/200/200
f 204/204/204 203/203/203 202/202/202
f 207/207/207 206/206/206 205/205/205
f 210/210/210 209/209/209 208/208/208
f 208/208/208 211/211/211 210/210/210
f 214/214/214 213/213/213 212/212/212
f 217/217/217 216/216/216 215/215/215
f 220/220/220 219/219/219 218/218/218
f 223/223/223 222/222/222 221/221/221
f 226/226/226 225/225/225 224/224/224
f 229/229/229 228/228/228 227/227/227
f 232/232/232 231/231/231 230/230/230
f 235/235/235 234/234/234 233/233/233
f 233/233/233 236/236/236 235/235/235
f 239/239/239 238/238/238 237/237/237
f 242/242/242 241/241/241 240/240/240
f 245/245/245 244/244/244 243/243/243
f 248/248/248 247/247/247 246/246/246
f 251/251/251 250/250/250 249/249/249
f 249/249/249 252/252/252 251/251/251
f 255/255/255 254/254/254 253/253/253
f 253/253/253 256/256/256 255/255/255
f 259/259/259 258/258/258 257/257/257
f 262/262/262 261/261/261 260/260/260
f 260/260/260 263/263/263 262/262/262
f 266/266/266 265/265/265 264/264/264
f 269/269/269 268/268/268 267/267/267
f 272/272/272 271/271/271 270/270/270
f 275/275/275 274/274/274 273/273/273
f 278/278/278 277/277/277 276/276/276
f 276/276/276 279/279/279 278/278/278
f 282/282/282 281/281/281 280/280/280
f 285/285/285 284/284/284 283/283/283
f 283/283/283 286/286/286 285/285/285
f 289/289/289 288/288/288 287/287/287
f 287/287/287 290/290/290 289/289/289
f 293/293/293 292/292/292 291/291/291
f 296/296/296 295/295/295 294/294/294
f 299/299/299 298/298/298 297/297/297
f 297/297/297 300/300/300 299/299/299
f 303/303/303 302/302/302 301/301/301
f 306/306/306 305/305/305 304/304/304
f 309/309/309 308/308/308 307/307/307
f 307/307/307 310/310/310 309/309/309
f 313/313/313 312/312/312 311/311/311
f 311/311/311 314/314/314 313/313/313
f 317/317/317 316/316/316 315/315/315
f 315/315/315 318/318/318 317/317/317
f 321/321/321 320/320/320 319/319/319
f 324/324/324 323/323/323 322/322/322
f 327/327/327 326/326/326 325/325/325
f 330/330/330 329/329/329 328/328/328
f 333/333/333 332/332/332 331/331/331
f 336/336/336 335/335/335 334/334/334
f 339/339/339 338/338/338 337/337/337
f 342/342/342 341/341/341 340/340/340
f 345/345/345 344/344/344 343/343/343
f 348/348/348 347/347/347 346/346/346
f 346/346/346 349/349/349 348/348/348
f 352/352/352 351/351/351 350/350/350
f 355/355/355 354/354/354 353/353/353
f 358/358/358 357/357/357 356/356/356
f 361/361/361 360/360/360 359/359/359
f 359/359/359 362/362/362 361/361/361
f 365/365/365 364/364/364 363/363/363
f 368/368/368 367/367/367 366/366/366
f 371/371/371 370/370/370 369/369/369
f 369/369/369 372/372/372 371/371/371
f 375/375/375 374/374/374 373/373/373
f 373/373/373 376/376/376 375/375/375
f 379/379/379 378/378/378 377/377/377
f 382/382/382 381/381/381 380/380/380
f 385/385/385 384/384/384 383/383/383
f 388/388/388 387/387/387 386/386/386
f 391/391/391 390/390/390 389/389/389
f 394/394/394 393/393/393 392/392/392
f 392/392/392 395/395/395 394/394/394
f 398/398/398 397/397/397 396/396/396
f 396/396/396 399/399/399 398/398/398
f 402/402/402 401/401/401 400/400/400
f 400/400/400 403/403/403 402/402/402
f 406/406/406 405/405/405 404/404/404
f 409/409/409 408/408/408 407/407/407
f 412/412/412 411/411/411 410/410/410
f 415/415/415 414/414/414 413/413/413
f 413/413/413 416/416/416 415/415/415
f 419/419/419 418/418/418 417/417/417
f 422/422/422 421/421/421 420/420/420
f 425/425/425 424/424/424 423/423/423
f 428/428/428 427/427/427 426/426/426
f 431/431/431 430/430/430 429/429/429
f 434/434/434 433/433/433 432/432/432
f 437/437/437 436/436/436 435/435/435
f 435/435/435 438/438/438 437/437/437
f 441/441/441 440/440/440 439/439/439
f 439/439/439 442/442/442 441/441/441
f 445/445/445 444/444/444 443/443/443
f 448/448/448 447/447/447 446/446/446
f 446/446/446 449/449/449 448/448/448
f 452/452/452 451/451/451 450/450/450
f 455/455/455 454/454/454 453/453/453
f 458/458/458 457/457/457 456/456/456
f 461/461/461 460/460/460 459/459/459
f 464/464/464 463/463/463 462/462/462
f 462/462/462 465/465/465 464/464/464
f 468/468/468 467/467/467 466/466/466
f 471/471/471 470/470/470 469/469/469
f 474/474/474 473/473/473 472/472/472
f 477/477/477 476/476/476 475/475/475
f 480/480/480 479/479/479 478/478/478
f 483/483/483 482/482/482 481/481/481
f 486/486/486 485/485/485 484/484/484
f 484/484/484 487/487/487 486/486/486
f 490/490/490 489/489/489 488/488/488
f 488/488/488 491/491/491 490/490/490
f 494/494/494 493/493/493 492/492/492
f 492/492/492 495/495/495 494/494/494
f 498/498/498 497/497/497 496/496/496
f 501/501/501 500/500/500 499/499/499
f 504/504/504 503/503/503 502/502/502
f 507/507/507 506/506/506 505/505/505
f 510/510/510 509/509/509 508/508/508
f 513/513/513 512/512/512 511/511/511
f 511/511/511 514/514/514 513/513/513
f 517/517/517 516/516/516 515/515/515
f 520/520/520 519/519/519 518/518/518
f 523/523/523 522/522/522 521/521/521
f 526/526/526 525/525/525 524/524/524
f 529/529/529 528/528/528 527/527/527
f 532/532/532 531/531/531 530/530/530
f 535/535/535 534/534/534 533/533/533
f 538/538/538 537/537/537 536/536/536
f 541/541/541 540/540/540 539/539/539
f 544/544/544 543/543/543 542/542/542
f 542/542/542 545/545/545 544/544/544
f 548/548/548 547/547/547 546/546/546
f 551/551/551 550/550/550 549/549/549
f 554/554/554 553/553/553 552/552/552
f 557/557/557 556/556/556 555/555/555
f 560/560/560 559/559/559 558/558/558
f 563/563/563 562/562/562 561/561/561
f 566/566/566 565/565/565 564/564/564
f 569/569/569 568/568/568 567/567/567
f 572/572/572 571/571/571 570/570/570
f 575/575/575 574/574/574 573/573/573
f 578/578/578 577/577/577 576/576/576
f 581/581/581 580/580/580 579/579/579
f 584/584/584 583/583/583 582/582/582
f 587/587/587 586/586/586 585/585/585
f 590/590/590 589/589/589 588/588/588
f 593/593/593 592/592/592 591/591/591
f 596/596/596 595/595/595 594/594/594
f 599/599/599 598/598/598 597/597/597
f 602/602/602 601/601/601 600/600/600
f 605/605/605 604/604/604 603/603/603
f 608/608/608 607/607/607 606/606/606
f 611/611/611 610/610/610 609/609/609
f 614/614/614 613/613/613 612/612/612
f 617/617/617 616/616/616 615/615/615
f 620/620/620 619/619/619 618/618/618
f 623/623/623 622/622/622 621/621/621
f 626/626/626 625/625/625 624/624/624
f 624/624/624 627/627/627 626/626/626
f 630/630/630 629/629/629 628/628/628
f 633/633/633 632/632/632 631/631/631
f 636/636/636 635/635/635 634/634/634
f 639/639/639 638/638/638 637/637/637
f 642/642/642 641/641/641 640/640/640
f 645/645/645 644/644/644 643/643/643
f 648/648/648 647/647/647 646/646/646
f 651/651/651 650/650/650 649/649/649
f 649/649/649 652/652/652 651/651/651
f 655/655/655 654/654/654 653/653/653
f 658/658/658 657/657/657 656/656/656
f 661/661/661 660/660/660 659/659/659
f 664/664/664 663/663/663 662/662/662
f 667/667/667 666/666/666 665/665/665
f 670/670/670 669/669/669 668/668/668
f 673/673/673 672/672/672 671/671/671
f 676/676/676 675/675/675 674/674/674
f 679/679/679 678/678/678 677/677/677
f 682/682/682 681/681/681 680/680/680
f 685/685/685 684/684/684 683/683/683
f 688/688/688 687/687/687 686/686/686
f 686/686/686 689/689/689 688/688/688
f 692/692/692 691/691/691 690/690/690
f 695/695/695 694/694/694 693/693/693
f 698/698/698 697/697/697 696/696/696
f 701/701/701 700/700/700 699/699/699
f 704/704/704 703/703/703 702/702/702
f 707/707/707 706/706/706 705/705/705
f 710/710/710 709/709/709 708/708/708
f 713/713/713 712/712/712 711/711/711
f 716/716/716 715/715/715 714/714/714
f 719/719/719 718/718/718 717/717/717
f 717/717/717 720/720/720 719/719/719
f 723/723/723 722/722/722 721/721/721
f 726/726/726 725/725/725 724/724/724
f 724/724/724 727/727/727 726/726/726
f 730/730/730 729/729/729 728/728/728
f 733/733/733 732/732/732 731/731/731
f 736/736/736 735/735/735 734/734/734
f 739/739/739 738/738/738 737/737/737
f 742/742/742 741/741/741 740/740/740
f 745/745/745 744/744/744 743/743/743
f 748/748/748 747/747/747 746/746/746
f 751/751/751 750/750/750 749/749/749
f 754/754/754 753/753/753 752/752/752
f 757/757/757 756/756/756 755/755/755
f 760/760/760 759/759/759 758/758/758
f 758/758/758 761/761/761 760/760/760
f 764/764/764 763/763/763 762/762/762
f 767/767/767 766/766/766 765/765/765
f 770/770/770 769/769/769 768/768/768
f 773/773/773 772/772/772 771/771/771
f 776/776/776 775/775/775 774/774/774
f 779/779/779 778/778/778 777/777/777
f 782/782/782 781/781/781 780/780/780
f 785/785/785 784/784/784 783/783/783
f 788/788/788 787/787/787 786/786/786
f 791/791/791 790/790/790 789/789/789
f 794/794/794 793/793/793 792/792/792
f 797/797/797 796/796/796 795/795/795
f 800/800/800 799/799/799 798/798/798
f 803/803/803 802/802/802 801/801/801
f 806/806/806 805/805/805 804/804/804
f 809/809/809 808/808/808 807/807/807
f 812/812/812 811/811/811 810/810/810
f 815/815/815 814/814/814 813/813/813
f 818/818/818 817/817/817 816/816/816
f 821/821/821 820/820/820 819/819/819
f 824/824/824 823/823/823 822/822/822
f 825/825/825 823/823/823 824/824/824
f 828/828/828 827/827/827 826/826/826
f 831/831/831 830/830/830 829/829/829
f 834/834/834 833/833/833 832/832/832
f 837/837/837 836/836/836 835/835/835
f 840/840/840 839/839/839 838/838/838
f 843/843/843 842/842/842 841/841/841
f 846/846/846 845/845/845 844/844/844
f 849/849/849 848/848/848 847/847/847
f 852/852/852 851/851/851 850/850/850
f 855/855/855 854/854/854 853/853/853
f 858/858/858 857/857/857 856/856/856
f 861/861/861 860/860/860 859/859/859
f 864/864/864 863/863/863 862/862/862
f 867/867/867 866/866/866 865/865/865
f 870/870/870 869/869/869 868/868/868
f 873/873/873 872/872/872 871/871/871
f 876/876/876 875/875/875 874/874/874
f 879/879/879 878/878/878 877/877/877
f 882/882/882 881/881/881 880/880/880
f 885/885/885 884/884/884 883/883/883
f 888/888/888 887/887/887 886/886/886
f 891/891/891 890/890/890 889/889/889
f 894/894/894 893/893/893 892/892/892
f 897/897/897 896/896/896 895/895/895
f 900/900/900 899/899/899 898/898/898
f 903/903/903 902/902/902 901/901/901
f 906/906/906 905/905/905 904/904/904
f 909/909/909 908/908/908 907/907/907
f 912/912/912 911/911/911 910/910/910
f 915/915/915 914/914/914 913/913/913
f 918/918/918 917/917/917 916/916/916
f 921/921/921 920/920/920 919/919/919
f 924/924/924 923/923/923 922/922/922
f 927/927/927 926/926/926 925/925/925
f 930/930/930 929/929/929 928/928/928
f 933/933/933 932/932/932 931/931/931
f 936/936/936 935/935/935 934/934/934
f 939/939/939 938/938/938 937/937/937
f 942/942/942 941/941/941 940/940/940
f 945/945/945 944/944/944 943/943/943
