g Item_WarriorSholderArmor
v -15.06987 -141.2535 11.87718
v -19.96709 -151.875 -5.548381
v -12.15658 -143.998 -14.41116
v -26.03855 -147.7278 -9.524523
v -17.06231 -140.8338 -16.06591
v -29.60262 -142.3957 0.05637724
v -4.546926 -142.9507 -10.14107
v -11.63152 -151.8461 0.04874117
v -24.64329 -141.7801 5.802257
v -34.92713 -144.3392 -12.80657
v -29.51667 -138.4513 -18.93172
v -37.26455 -139.011 -6.217028
v -21.15081 -139.38 -16.61411
v -28.49624 -145.9939 -10.18177
v -30.95266 -140.4134 -1.283498
v -12.49347 -140.2629 -11.83309
v -16.67927 -137.7571 -12.54615
v -5.9569 -139.3033 -8.187181
v -11.16404 -147.8673 -0.07674424
v -26.92039 -138.8309 -1.154711
v -22.7361 -138.1153 3.456855
v -13.60053 -137.9122 9.41829
v -21.18523 -136.1254 -13.26112
v -34.34163 -140.377 -12.6195
v -29.90956 -134.998 -16.02381
v -35.17158 -135.4772 -8.139403
v -28.0881 -137.0485 -2.663654
v -9.851937 -146.4114 -8.884233
v -14.61869 -146.7806 -11.6568
v -20.26936 -143.6593 -13.84153
v -23.75584 -142.2042 -14.3649
v -28.6544 -141.9658 -15.40069
v -32.20988 -145.2177 -11.65095
v -33.63531 -142.1799 -7.318848
v -30.18707 -142.8165 -4.416154
v -28.53924 -144.3442 -2.848965
v -23.13684 -145.3071 2.402566
v -17.21224 -145.3386 5.914708
v -14.67632 -152.0068 -1.94857
v -19.96709 -151.875 -5.548381
v -14.61869 -146.7806 -11.6568
v -14.61869 -146.7806 -11.6568
v -26.03855 -147.7278 -9.524523
v -19.96709 -151.875 -5.548381
v -19.96709 -151.875 -5.548381
v -26.03855 -147.7278 -9.524523
v -28.53924 -144.3442 -2.848965
v -19.96709 -151.875 -5.548381
v -23.13684 -145.3071 2.402566
v -14.67632 -152.0068 -1.94857
v -23.13684 -145.3071 2.402566
v -14.67632 -152.0068 -1.94857
v -20.26936 -143.6593 -13.84153
v -26.03855 -147.7278 -9.524523
v -23.75584 -142.2042 -14.3649
v -26.03855 -147.7278 -9.524523
v -28.49624 -145.9939 -10.18177
v -28.49624 -145.9939 -10.18177
v -28.53924 -144.3442 -2.848965
v -28.49624 -145.9939 -10.18177
v -23.75584 -142.2042 -14.3649
v -30.18707 -142.8165 -4.416154
v -28.49624 -145.9939 -10.18177
v -28.49624 -145.9939 -10.18177
v -32.20988 -145.2177 -11.65095
v -33.63531 -142.1799 -7.318848
v -17.06231 -140.8338 -16.06591
v -12.49347 -140.2629 -11.83309
v -12.15658 -143.998 -14.41116
v -12.49347 -140.2629 -11.83309
v -5.9569 -139.3033 -8.187181
v -4.546926 -142.9507 -10.14107
v -4.546926 -142.9507 -10.14107
v -11.16404 -147.8673 -0.07674424
v -22.7361 -138.1153 3.456855
v -24.64329 -141.7801 5.802257
v -11.63152 -151.8461 0.04874117
v -15.06987 -141.2535 11.87718
v -11.16404 -147.8673 -0.07674424
v -13.60053 -137.9122 9.41829
v -16.67927 -137.7571 -12.54615
v -17.06231 -140.8338 -16.06591
v -29.51667 -138.4513 -18.93172
v -34.34163 -140.377 -12.6195
v -34.34163 -140.377 -12.6195
v -37.26455 -139.011 -6.217028
v -34.92713 -144.3392 -12.80657
v -34.34163 -140.377 -12.6195
v -29.60262 -142.3957 0.05637724
v -26.92039 -138.8309 -1.154711
v -30.95266 -140.4134 -1.283498
v -26.92039 -138.8309 -1.154711
v -29.51667 -138.4513 -18.93172
v -21.15081 -139.38 -16.61411
v -29.90956 -134.998 -16.02381
v -21.18523 -136.1254 -13.26112
v -29.90956 -134.998 -16.02381
v -28.0881 -137.0485 -2.663654
v -30.95266 -140.4134 -1.283498
v -35.17158 -135.4772 -8.139403
v -37.26455 -139.011 -6.217028
v -4.546926 -142.9507 -10.14107
v -12.15658 -143.998 -14.41116
v -9.851937 -146.4114 -8.884233
v -14.61869 -146.7806 -11.6568
v -12.15658 -143.998 -14.41116
v -17.06231 -140.8338 -16.06591
v -14.61869 -146.7806 -11.6568
v -17.06231 -140.8338 -16.06591
v -20.26936 -143.6593 -13.84153
v -14.61869 -146.7806 -11.6568
v -17.06231 -140.8338 -16.06591
v -21.15081 -139.38 -16.61411
v -20.26936 -143.6593 -13.84153
v -23.75584 -142.2042 -14.3649
v -29.51667 -138.4513 -18.93172
v -28.6544 -141.9658 -15.40069
v -21.15081 -139.38 -16.61411
v -23.75584 -142.2042 -14.3649
v -32.20988 -145.2177 -11.65095
v -28.6544 -141.9658 -15.40069
v -34.92713 -144.3392 -12.80657
v -28.6544 -141.9658 -15.40069
v -29.51667 -138.4513 -18.93172
v -34.92713 -144.3392 -12.80657
v -32.20988 -145.2177 -11.65095
v -34.92713 -144.3392 -12.80657
v -33.63531 -142.1799 -7.318848
v -34.92713 -144.3392 -12.80657
v -37.26455 -139.011 -6.217028
v -33.63531 -142.1799 -7.318848
v -30.18707 -142.8165 -4.416154
v -30.95266 -140.4134 -1.283498
v -28.53924 -144.3442 -2.848965
v -30.18707 -142.8165 -4.416154
v -29.60262 -142.3957 0.05637724
v -30.18707 -142.8165 -4.416154
v -30.95266 -140.4134 -1.283498
v -29.60262 -142.3957 0.05637724
v -24.64329 -141.7801 5.802257
v -23.13684 -145.3071 2.402566
v -29.60262 -142.3957 0.05637724
v -23.13684 -145.3071 2.402566
v -28.53924 -144.3442 -2.848965
v -29.60262 -142.3957 0.05637724
v -15.06987 -141.2535 11.87718
v -17.21224 -145.3386 5.914708
v -24.64329 -141.7801 5.802257
v -23.13684 -145.3071 2.402566
v -15.06987 -141.2535 11.87718
v -11.63152 -151.8461 0.04874117
v -17.21224 -145.3386 5.914708
v -11.63152 -151.8461 0.04874117
v -14.67632 -152.0068 -1.94857
v -17.21224 -145.3386 5.914708
v -4.546926 -142.9507 -10.14107
v -9.851937 -146.4114 -8.884233
v -11.63152 -151.8461 0.04874117
v -9.851937 -146.4114 -8.884233
v -14.67632 -152.0068 -1.94857
v -11.63152 -151.8461 0.04874117
v -11.16404 -147.8673 -0.07674424
v -34.34163 -140.377 -12.6195
v -5.9569 -139.3033 -8.187181
v -5.9569 -139.3033 -8.187181
v -34.34163 -140.377 -12.6195
v -12.49347 -140.2629 -11.83309
v -12.49347 -140.2629 -11.83309
v -34.34163 -140.377 -12.6195
v -16.67927 -137.7571 -12.54615
v -16.67927 -137.7571 -12.54615
v -34.34163 -140.377 -12.6195
v -21.18523 -136.1254 -13.26112
v -29.90956 -134.998 -16.02381
v -21.18523 -136.1254 -13.26112
v -34.34163 -140.377 -12.6195
v -13.60053 -137.9122 9.41829
v -22.7361 -138.1153 3.456855
v -11.16404 -147.8673 -0.07674424
v -34.34163 -140.377 -12.6195
v -11.16404 -147.8673 -0.07674424
v -35.17158 -135.4772 -8.139403
v -35.17158 -135.4772 -8.139403
v -11.16404 -147.8673 -0.07674424
v -28.0881 -137.0485 -2.663654
v -28.0881 -137.0485 -2.663654
v -11.16404 -147.8673 -0.07674424
v -26.92039 -138.8309 -1.154711
v -11.16404 -147.8673 -0.07674424
v -22.7361 -138.1153 3.456855
v -26.92039 -138.8309 -1.154711
vt 0.9597324 0.2031931
vt 0.9057083 0.200842
vt 0.9631107 0.203735
vt 0.9044562 0.2021542
vt 0.96495 0.2026776
vt 0.9661899 0.203396
vt 0.9601846 0.2034529
vt 0.9615344 0.2063415
vt 0.9635878 0.2033114
vt 0.9700574 0.2037714
vt 0.9693869 0.2017729
vt 0.9696941 0.2021681
vt 0.966381 0.2021438
vt 0.9038847 0.2026531
vt 0.9669384 0.2027367
vt 0.9628821 0.20292
vt 0.9644102 0.2020016
vt 0.9602843 0.2025169
vt 0.9615691 0.205423
vt 0.9657037 0.202605
vt 0.9634545 0.2024196
vt 0.9596886 0.2022952
vt 0.9659844 0.201402
vt 0.9698289 0.2029084
vt 0.9691315 0.2009439
vt 0.9694566 0.2012594
vt 0.9664274 0.201928
vt 0.9080116 0.2021215
vt 0.9070174 0.2023749
vt 0.9058217 0.2032851
vt 0.9049984 0.2037157
vt 0.9038455 0.2039798
vt 0.9030091 0.2030682
vt 0.9026578 0.2032825
vt 0.9034365 0.2027515
vt 0.9037903 0.2022284
vt 0.9048662 0.2014282
vt 0.906145 0.2009667
vt 0.9068084 0.2003821
vt 0.9057083 0.200842
vt 0.9070174 0.2023749
vt 0.9070174 0.2023749
vt 0.9044562 0.2021542
vt 0.9057083 0.200842
vt 0.9057083 0.200842
vt 0.9044562 0.2021542
vt 0.9037903 0.2022284
vt 0.9057083 0.200842
vt 0.9048662 0.2014282
vt 0.9068084 0.2003821
vt 0.9048662 0.2014282
vt 0.9068084 0.2003821
vt 0.9058217 0.2032851
vt 0.9044562 0.2021542
vt 0.9049984 0.2037157
vt 0.9044562 0.2021542
vt 0.9038847 0.2026531
vt 0.9038847 0.2026531
vt 0.9037903 0.2022284
vt 0.9038847 0.2026531
vt 0.9049984 0.2037157
vt 0.9034365 0.2027515
vt 0.9038847 0.2026531
vt 0.9038847 0.2026531
vt 0.9030091 0.2030682
vt 0.9026578 0.2032825
vt 0.96495 0.2026776
vt 0.9628821 0.20292
vt 0.9631107 0.203735
vt 0.9628821 0.20292
vt 0.9602843 0.2025169
vt 0.9601846 0.2034529
vt 0.9601846 0.2034529
vt 0.9615691 0.205423
vt 0.9634545 0.2024196
vt 0.9635878 0.2033114
vt 0.9615344 0.2063415
vt 0.9597324 0.2031931
vt 0.9615691 0.205423
vt 0.9596886 0.2022952
vt 0.9644102 0.2020016
vt 0.96495 0.2026776
vt 0.9693869 0.2017729
vt 0.9698289 0.2029084
vt 0.9698289 0.2029084
vt 0.9696941 0.2021681
vt 0.9700574 0.2037714
vt 0.9698289 0.2029084
vt 0.9661899 0.203396
vt 0.9657037 0.202605
vt 0.9669384 0.2027367
vt 0.9657037 0.202605
vt 0.9693869 0.2017729
vt 0.966381 0.2021438
vt 0.9691315 0.2009439
vt 0.9659844 0.201402
vt 0.9691315 0.2009439
vt 0.9664274 0.201928
vt 0.9669384 0.2027367
vt 0.9694566 0.2012594
vt 0.9696941 0.2021681
vt 0.9601846 0.2034529
vt 0.9631107 0.203735
vt 0.9614521 0.2044436
vt 0.9634097 0.20458
vt 0.9631107 0.203735
vt 0.96495 0.2026776
vt 0.9634097 0.20458
vt 0.96495 0.2026776
vt 0.9655282 0.2034594
vt 0.9634097 0.20458
vt 0.96495 0.2026776
vt 0.966381 0.2021438
vt 0.9655282 0.2034594
vt 0.9668141 0.2028935
vt 0.9693869 0.2017729
vt 0.9686878 0.2027704
vt 0.966381 0.2021438
vt 0.9668141 0.2028935
vt 0.9692093 0.2039525
vt 0.9686878 0.2027704
vt 0.9700574 0.2037714
vt 0.9686878 0.2027704
vt 0.9693869 0.2017729
vt 0.9700574 0.2037714
vt 0.9692093 0.2039525
vt 0.9700574 0.2037714
vt 0.9689266 0.2029544
vt 0.9700574 0.2037714
vt 0.9696941 0.2021681
vt 0.9689266 0.2029544
vt 0.967164 0.2032499
vt 0.9669384 0.2027367
vt 0.9663239 0.2038569
vt 0.967164 0.2032499
vt 0.9661899 0.203396
vt 0.967164 0.2032499
vt 0.9669384 0.2027367
vt 0.9661899 0.203396
vt 0.9635878 0.2033114
vt 0.9637367 0.2042567
vt 0.9661899 0.203396
vt 0.9637367 0.2042567
vt 0.9663239 0.2038569
vt 0.9661899 0.203396
vt 0.9597324 0.2031931
vt 0.9612015 0.2043099
vt 0.9635878 0.2033114
vt 0.9637367 0.2042567
vt 0.9597324 0.2031931
vt 0.9615344 0.2063415
vt 0.9612015 0.2043099
vt 0.9615344 0.2063415
vt 0.9623664 0.2063952
vt 0.9612015 0.2043099
vt 0.9601846 0.2034529
vt 0.9614521 0.2044436
vt 0.9615344 0.2063415
vt 0.9614521 0.2044436
vt 0.9623664 0.2063952
vt 0.9615344 0.2063415
vt 0.9615691 0.205423
vt 0.9698289 0.2029084
vt 0.9602843 0.2025169
vt 0.9602843 0.2025169
vt 0.9698289 0.2029084
vt 0.9628821 0.20292
vt 0.9628821 0.20292
vt 0.9698289 0.2029084
vt 0.9644102 0.2020016
vt 0.9644102 0.2020016
vt 0.9698289 0.2029084
vt 0.9659844 0.201402
vt 0.9691315 0.2009439
vt 0.9659844 0.201402
vt 0.9698289 0.2029084
vt 0.9596886 0.2022952
vt 0.9634545 0.2024196
vt 0.9615691 0.205423
vt 0.9698289 0.2029084
vt 0.9615691 0.205423
vt 0.9694566 0.2012594
vt 0.9694566 0.2012594
vt 0.9615691 0.205423
vt 0.9664274 0.201928
vt 0.9664274 0.201928
vt 0.9615691 0.205423
vt 0.9657037 0.202605
vt 0.9615691 0.205423
vt 0.9634545 0.2024196
vt 0.9657037 0.202605
vn -0.4318759 0.6427397 0.6327471
vn 0.2870176 -0.8441831 -0.4527424
vn 0.5507458 0.5072122 -0.6628837
vn -0.06420843 -0.7380143 -0.6717232
vn 0.4821034 0.6329601 -0.6057539
vn -0.6216108 0.6271584 0.4693318
vn 0.3474678 0.5485491 -0.7604999
vn 0.8509124 -0.08362004 0.5186094
vn -0.6227802 0.6260595 0.4692487
vn -0.8069614 0.1462656 -0.5722061
vn -0.8069614 0.1462656 -0.5722061
vn -0.8550661 0.2634897 -0.4465817
vn 0.3398386 0.6833475 -0.6461778
vn -0.210974 -0.5934582 -0.7767223
vn -0.2040212 0.4490448 0.8699047
vn 0.4821034 0.6329601 -0.6057539
vn 0.4821034 0.6329601 -0.6057539
vn 0.3466162 0.5435205 -0.7644886
vn 0.8302556 0.02261104 0.556924
vn -0.6227802 0.6260595 0.4692487
vn -0.623948 0.6249589 0.4691643
vn -0.4252521 0.6502758 0.6295252
vn 0.3476106 0.6745892 -0.6512268
vn -0.8069614 0.1462656 -0.5722061
vn -0.7950703 0.3351928 -0.505479
vn -0.8550661 0.2634897 -0.4465817
vn -0.2353487 0.5335485 0.812365
vn 0.3287973 -0.8336191 -0.4438148
vn 0.3058087 -0.839094 -0.4498913
vn -0.08276011 -0.6676781 -0.7398356
vn -0.1421313 -0.6184953 -0.7728274
vn 0.08378594 -0.7876187 -0.6104398
vn 0.07684069 -0.7881637 -0.61065
vn -0.435048 -0.8364244 0.3333578
vn -0.745339 -0.6494441 0.1506392
vn -0.5276565 -0.7461489 0.4060055
vn -0.5276565 -0.7461489 0.4060055
vn -0.3244002 -0.7704733 0.5487581
vn 0.3058087 -0.839094 -0.4498913
vn -0.06420843 -0.7380143 -0.6717232
vn -0.06420843 -0.7380143 -0.6717232
vn -0.08276011 -0.6676781 -0.7398356
vn -0.08276011 -0.6676781 -0.7398356
vn -0.5276565 -0.7461489 0.4060055
vn -0.6242142 -0.7658535 0.1543532
vn -0.6113171 -0.7743174 0.1634746
vn -0.6113171 -0.7743174 0.1634746
vn -0.3621607 -0.7843847 0.5035676
vn -0.3621607 -0.7843847 0.5035676
vn -0.3621607 -0.7843847 0.5035676
vn -0.3283938 -0.7699892 0.5470596
vn -0.3244002 -0.7704733 0.5487581
vn -0.1421313 -0.6184953 -0.7728274
vn -0.1421313 -0.6184953 -0.7728274
vn -0.210974 -0.5934582 -0.7767223
vn -0.210974 -0.5934582 -0.7767223
vn -0.5982237 -0.7825326 0.1725434
vn -0.7425359 -0.6543921 0.1428688
vn -0.745339 -0.6494441 0.1506392
vn 0.08378594 -0.7876187 -0.6104398
vn 0.09072709 -0.7870354 -0.6101999
vn -0.435048 -0.8364244 0.3333578
vn -0.435048 -0.8364244 0.3333578
vn -0.3516146 -0.816931 0.4571551
vn -0.3516146 -0.816931 0.4571551
vn -0.3516146 -0.816931 0.4571551
vn 0.5507458 0.5072122 -0.6628837
vn 0.5507458 0.5072122 -0.6628837
vn 0.3483047 0.5535548 -0.7564793
vn 0.3474678 0.5485491 -0.7604999
vn 0.8302556 0.02261104 0.556924
vn 0.8302556 0.02261104 0.556924
vn 0.8509124 -0.08362004 0.5186094
vn 0.8509124 -0.08362004 0.5186094
vn -0.4318759 0.6427397 0.6327471
vn -0.4384518 0.6351321 0.6358987
vn 0.9287391 -0.09784239 0.3575899
vn 0.9240029 -0.1140172 0.3649914
vn 0.9240029 -0.1140172 0.3649914
vn 0.9189536 -0.1301534 0.3722693
vn 0.3398386 0.6833475 -0.6461778
vn 0.3320113 0.6919948 -0.6410239
vn -0.7950703 0.3351928 -0.505479
vn -0.7950703 0.3351928 -0.505479
vn -0.8550661 0.2634897 -0.4465817
vn -0.8865421 0.1516461 -0.4370886
vn -0.8865421 0.1516461 -0.4370886
vn -0.8865421 0.1516461 -0.4370886
vn -0.2040212 0.4490448 0.8699047
vn -0.2040212 0.4490448 0.8699047
vn -0.2353487 0.5335485 0.812365
vn -0.2353487 0.5335485 0.812365
vn 0.2705591 0.6379225 -0.7210081
vn 0.2705591 0.6379225 -0.7210081
vn 0.2705591 0.6379225 -0.7210081
vn 0.2986794 0.6863325 -0.6631277
vn 0.2986794 0.6863325 -0.6631277
vn -0.3924973 0.6147355 0.684139
vn -0.3961717 0.6120266 0.6844497
vn -0.3961717 0.6120266 0.6844497
vn -0.3998379 0.6093049 0.684746
vn 0.3870831 -0.7748569 -0.4997635
vn 0.3679723 -0.7860642 -0.4966885
vn 0.3679723 -0.7860642 -0.4966885
vn 0.3486775 -0.7968783 -0.493365
vn -0.1466349 -0.6273223 -0.7648301
vn -0.1466349 -0.6273223 -0.7648301
vn -0.1466349 -0.6273223 -0.7648301
vn -0.02366223 -0.6016741 -0.7983911
vn -0.02366223 -0.6016741 -0.7983911
vn -0.02366223 -0.6016741 -0.7983911
vn -0.08603258 -0.5541559 -0.8279551
vn -0.09724661 -0.5552049 -0.8260089
vn -0.09724661 -0.5552049 -0.8260089
vn -0.1084479 -0.5561813 -0.8239548
vn 0.1216386 -0.6884918 -0.7149706
vn 0.1203396 -0.6859637 -0.7176157
vn 0.1203396 -0.6859637 -0.7176157
vn 0.1190389 -0.6834251 -0.7202499
vn 0.02487261 -0.7668025 -0.6414009
vn 0.02487261 -0.7668025 -0.6414009
vn 0.02487261 -0.7668025 -0.6414009
vn -0.02148432 -0.7112195 -0.7026417
vn -0.02148432 -0.7112195 -0.7026417
vn -0.02148432 -0.7112195 -0.7026417
vn -0.4351994 -0.798196 0.4165151
vn -0.4351994 -0.798196 0.4165151
vn -0.4351994 -0.798196 0.4165151
vn -0.5232326 -0.7438388 0.4158501
vn -0.51658 -0.7408758 0.4292413
vn -0.5139681 -0.7401495 0.4336076
vn -0.508704 -0.7386383 0.442305
vn -0.5092558 -0.7381897 0.4424189
vn -0.745339 -0.6494441 0.1506392
vn -0.745339 -0.6494441 0.1506392
vn -0.748073 -0.6444359 0.1583956
vn -0.8625512 -0.4806855 0.1579459
vn -0.8625512 -0.4806855 0.1579459
vn -0.8625512 -0.4806855 0.1579459
vn -0.5000809 -0.7021574 0.5068473
vn -0.5000809 -0.7021574 0.5068473
vn -0.5000809 -0.7021574 0.5068473
vn -0.4880056 -0.7969881 0.3558939
vn -0.4880056 -0.7969881 0.3558939
vn -0.4880056 -0.7969881 0.3558939
vn -0.3491589 -0.7098119 0.6117638
vn -0.3521841 -0.7164304 0.6022407
vn -0.3521841 -0.7164304 0.6022407
vn -0.3551587 -0.7229459 0.592631
vn -0.2448926 -0.7565646 0.6063313
vn -0.2448926 -0.7565646 0.6063313
vn -0.2448926 -0.7565646 0.6063313
vn -0.3204003 -0.7709427 0.5504462
vn -0.3244002 -0.7704733 0.5487581
vn -0.3244002 -0.7704733 0.5487581
vn 0.4302935 -0.8067029 -0.4050653
vn 0.4302935 -0.8067029 -0.4050653
vn 0.4302935 -0.8067029 -0.4050653
vn 0.3287973 -0.8336191 -0.4438148
vn 0.3287973 -0.8336191 -0.4438148
vn 0.3331039 -0.8335348 -0.4407511
vn -0.1332056 0.7229859 0.6778995
vn -0.1332056 0.7229859 0.6778995
vn -0.1332056 0.7229859 0.6778995
vn 0.004383016 0.9650916 -0.2618759
vn 0.004383016 0.9650916 -0.2618759
vn 0.004383016 0.9650916 -0.2618759
vn -0.0362462 0.2170437 0.9754887
vn -0.0362462 0.2170437 0.9754887
vn -0.0362462 0.2170437 0.9754887
vn -0.0468994 0.2894066 0.9560566
vn -0.0468994 0.2894066 0.9560566
vn -0.0468994 0.2894066 0.9560566
vn -0.1629261 0.6199906 0.7675068
vn -0.1629261 0.6199906 0.7675068
vn -0.1629261 0.6199906 0.7675068
vn 0.38788 0.6840958 -0.6177071
vn 0.38788 0.6840958 -0.6177071
vn 0.38788 0.6840958 -0.6177071
vn 0.5183139 0.6232303 -0.5856062
vn 0.5183139 0.6232303 -0.5856062
vn 0.5183139 0.6232303 -0.5856062
vn 0.5242729 0.7064326 -0.4754903
vn 0.5242729 0.7064326 -0.4754903
vn 0.5242729 0.7064326 -0.4754903
vn 0.3797368 0.7299246 0.5683397
vn 0.3797368 0.7299246 0.5683397
vn 0.3797368 0.7299246 0.5683397
vn 0.4510314 0.7242151 -0.5216159
vn 0.4510314 0.7242151 -0.5216159
vn 0.4510314 0.7242151 -0.5216159
g Item_WarriorSholderArmor_0
f 29/29/29 39/39/39 2/2/2
f 29/29/29 28/28/28 39/39/39
f 4/4/4 41/41/41 40/40/40
f 43/43/43 30/30/30 42/42/42
f 36/36/36 44/44/44 37/37/37
f 47/47/47 46/46/46 45/45/45
f 47/47/47 57/57/57 46/46/46
f 50/50/50 49/49/49 48/48/48
f 52/52/52 38/38/38 51/51/51
f 54/54/54 31/31/31 53/53/53
f 56/56/56 14/14/14 55/55/55
f 59/59/59 35/35/35 58/58/58
f 32/32/32 60/60/60 33/33/33
f 32/32/32 61/61/61 60/60/60
f 34/34/34 63/63/63 62/62/62
f 66/66/66 65/65/65 64/64/64
f 16/16/16 5/5/5 17/17/17
f 68/68/68 3/3/3 67/67/67
f 70/70/70 7/7/7 69/69/69
f 70/70/70 18/18/18 7/7/7
f 19/19/19 72/72/72 71/71/71
f 74/74/74 8/8/8 73/73/73
f 20/20/20 9/9/9 21/21/21
f 20/20/20 6/6/6 9/9/9
f 75/75/75 1/1/1 22/22/22
f 75/75/75 76/76/76 1/1/1
f 79/79/79 78/78/78 77/77/77
f 79/79/79 80/80/80 78/78/78
f 81/81/81 13/13/13 23/23/23
f 81/81/81 82/82/82 13/13/13
f 97/97/97 96/96/96 13/13/13
f 24/24/24 11/11/11 10/10/10
f 84/84/84 25/25/25 83/83/83
f 85/85/85 12/12/12 26/26/26
f 88/88/88 87/87/87 86/86/86
f 90/90/90 15/15/15 89/89/89
f 92/92/92 27/27/27 91/91/91
f 95/95/95 94/94/94 93/93/93
f 100/100/100 99/99/99 98/98/98
f 100/100/100 101/101/101 99/99/99
f 104/104/104 103/103/103 102/102/102
f 104/104/104 105/105/105 103/103/103
f 108/108/108 107/107/107 106/106/106
f 111/111/111 110/110/110 109/109/109
f 114/114/114 113/113/113 112/112/112
f 114/114/114 115/115/115 113/113/113
f 118/118/118 117/117/117 116/116/116
f 118/118/118 119/119/119 117/117/117
f 122/122/122 121/121/121 120/120/120
f 125/125/125 124/124/124 123/123/123
f 128/128/128 127/127/127 126/126/126
f 131/131/131 130/130/130 129/129/129
f 133/133/133 130/130/130 131/131/131
f 133/133/133 131/131/131 132/132/132
f 136/136/136 135/135/135 134/134/134
f 139/139/139 138/138/138 137/137/137
f 142/142/142 141/141/141 140/140/140
f 145/145/145 144/144/144 143/143/143
f 148/148/148 147/147/147 146/146/146
f 148/148/148 149/149/149 147/147/147
f 152/152/152 151/151/151 150/150/150
f 155/155/155 154/154/154 153/153/153
f 158/158/158 157/157/157 156/156/156
f 161/161/161 160/160/160 159/159/159
f 164/164/164 163/163/163 162/162/162
f 167/167/167 166/166/166 165/165/165
f 170/170/170 169/169/169 168/168/168
f 173/173/173 172/172/172 171/171/171
f 176/176/176 175/175/175 174/174/174
f 179/179/179 178/178/178 177/177/177
f 182/182/182 181/181/181 180/180/180
f 185/185/185 184/184/184 183/183/183
f 188/188/188 187/187/187 186/186/186
f 191/191/191 190/190/190 189/189/189
