g Item_Samurai_HouseFlag
v 0.6197757 -2.747734 -1.524
v -1.622593 -2.602333 -0.8100681
v -1.622593 -2.131767 1.500265
v 0.6197754 -1.986366 2.214198
v 2.005635 -2.36705 0.3450985
v 0.6197757 90.0734 -20.23159
v -1.622593 90.2188 -19.51766
v -1.622593 90.68937 -17.20733
v 0.6197754 90.83477 -16.4934
v 2.005635 90.45409 -18.3625
v -6.123223E-18 -2.36705 0.3450985
v 1.762507E-16 90.45409 -18.3625
v -0.9014652 8.772064 -5.167522
v 0.9014652 8.772064 -5.167522
v -0.9014652 81.76017 -20.03304
v 0.9014652 81.76017 -20.03304
v -0.9014652 75.52488 -50.64763
v 0.9014652 75.52488 -50.64763
v -0.9014652 2.536774 -35.7821
v 0.9014652 2.536774 -35.7821
v -0.9014652 77.0837 -42.99398
v 0.9014652 77.0837 -42.99398
v -0.9014652 80.20135 -27.68669
v 0.9014652 80.20135 -27.68669
v -0.9014652 79.60874 -43.50825
v 0.9014652 79.60874 -43.50825
v 0.9014652 78.04992 -51.16189
v -0.9014652 78.04992 -51.16189
v -0.9014652 84.28521 -20.54731
v 0.9014652 84.28521 -20.54731
v 0.9014652 82.72639 -28.20095
v -0.9014652 82.72639 -28.20095
v -0.9014652 45.26612 -12.60028
v 0.9014652 45.26612 -12.60028
v -0.9014652 63.51315 -16.31666
v 0.9014652 63.51315 -16.31666
v -0.9014652 72.63667 -18.17485
v 0.9014652 72.63667 -18.17485
v -0.9014652 54.38963 -14.45847
v 0.9014652 54.38963 -14.45847
v -0.9014652 27.0191 -8.8839
v 0.9014652 27.0191 -8.8839
v -0.9014652 36.14262 -10.74209
v 0.9014652 36.14262 -10.74209
v -0.9014652 17.89558 -7.025707
v 0.9014652 17.89558 -7.025707
v -0.9014652 63.95902 -14.12745
v 0.9014652 63.95902 -14.12745
v 0.9014652 73.08254 -15.98564
v -0.9014652 73.08254 -15.98564
v -0.9014652 45.712 -10.41107
v 0.9014652 45.712 -10.41107
v 0.9014652 54.8355 -12.26926
v -0.9014652 54.8355 -12.26926
v -0.9014652 27.46497 -6.694691
v 0.9014652 27.46497 -6.694691
v 0.9014652 36.58849 -8.552883
v -0.9014652 36.58849 -8.552883
v -0.9014652 9.217941 -2.978313
v 0.9014652 9.217941 -2.978313
v 0.9014652 18.34146 -4.836498
v -0.9014652 18.34146 -4.836498
v 0.6197758 79.79128 -54.42694
v -1.622597 79.07737 -54.28154
v -1.622597 76.76707 -53.811
v 0.6197758 76.05309 -53.66557
v 2.005638 77.92219 -54.04625
v 0.6197758 88.31202 -12.59112
v -1.622597 87.59808 -12.44571
v -1.622597 85.28776 -11.97516
v 0.6197758 84.57383 -11.82977
v 2.005638 86.44292 -12.21045
v 1.427665E-14 77.92219 -54.04625
v 1.471851E-14 86.44292 -12.21045
v -1.622593 -2.602333 -0.8100681
v -1.622593 90.2188 -19.51766
v -1.622593 -2.131767 1.500265
v -1.622593 90.68937 -17.20733
v 0.6197754 -1.986366 2.214198
v 0.6197754 90.83477 -16.4934
v 2.005635 -2.36705 0.3450985
v 2.005635 90.45409 -18.3625
v 0.6197757 -2.747734 -1.524
v 0.6197757 90.0734 -20.23159
v -1.622593 -2.602333 -0.8100681
v 0.6197757 -2.747734 -1.524
v -1.622593 -2.131767 1.500265
v -1.622593 -2.602333 -0.8100681
v 0.6197754 -1.986366 2.214198
v -1.622593 -2.131767 1.500265
v 2.005635 -2.36705 0.3450985
v 0.6197757 90.0734 -20.23159
v -1.622593 90.2188 -19.51766
v -1.622593 90.68937 -17.20733
v 0.6197754 90.83477 -16.4934
v 2.005635 90.45409 -18.3625
v -0.9014652 2.536774 -35.7821
v 0.9014652 2.536774 -35.7821
v 0.9014652 75.52488 -50.64763
v 0.9014652 2.536774 -35.7821
v 0.9014652 8.772064 -5.167522
v 0.9014652 72.63667 -18.17485
v 0.9014652 81.76017 -20.03304
v -0.9014652 81.76017 -20.03304
v -0.9014652 72.63667 -18.17485
v -0.9014652 75.52488 -50.64763
v -0.9014652 2.536774 -35.7821
v -0.9014652 8.772064 -5.167522
v 0.9014652 77.0837 -42.99398
v 0.9014652 80.20135 -27.68669
v -0.9014652 77.0837 -42.99398
v -0.9014652 80.20135 -27.68669
v -0.9014652 77.0837 -42.99398
v -0.9014652 79.60874 -43.50825
v 0.9014652 77.0837 -42.99398
v 0.9014652 79.60874 -43.50825
v 0.9014652 79.60874 -43.50825
v 0.9014652 78.04992 -51.16189
v 0.9014652 75.52488 -50.64763
v 0.9014652 78.04992 -51.16189
v -0.9014652 75.52488 -50.64763
v -0.9014652 78.04992 -51.16189
v -0.9014652 78.04992 -51.16189
v -0.9014652 79.60874 -43.50825
v -0.9014652 84.28521 -20.54731
v 0.9014652 84.28521 -20.54731
v 0.9014652 84.28521 -20.54731
v 0.9014652 82.72639 -28.20095
v 0.9014652 80.20135 -27.68669
v 0.9014652 82.72639 -28.20095
v -0.9014652 80.20135 -27.68669
v -0.9014652 82.72639 -28.20095
v -0.9014652 82.72639 -28.20095
v -0.9014652 84.28521 -20.54731
v -0.9014652 36.14262 -10.74209
v -0.9014652 45.26612 -12.60028
v 0.9014652 36.14262 -10.74209
v 0.9014652 45.26612 -12.60028
v -0.9014652 54.38963 -14.45847
v -0.9014652 63.51315 -16.31666
v 0.9014652 54.38963 -14.45847
v 0.9014652 63.51315 -16.31666
v -0.9014652 17.89558 -7.025707
v -0.9014652 27.0191 -8.8839
v 0.9014652 17.89558 -7.025707
v 0.9014652 27.0191 -8.8839
v -0.9014652 63.51315 -16.31666
v -0.9014652 63.95902 -14.12745
v 0.9014652 63.51315 -16.31666
v 0.9014652 63.95902 -14.12745
v 0.9014652 63.95902 -14.12745
v 0.9014652 73.08254 -15.98564
v 0.9014652 72.63667 -18.17485
v 0.9014652 73.08254 -15.98564
v -0.9014652 72.63667 -18.17485
v -0.9014652 73.08254 -15.98564
v -0.9014652 73.08254 -15.98564
v -0.9014652 63.95902 -14.12745
v -0.9014652 45.26612 -12.60028
v -0.9014652 45.712 -10.41107
v 0.9014652 45.26612 -12.60028
v 0.9014652 45.712 -10.41107
v 0.9014652 45.712 -10.41107
v 0.9014652 54.8355 -12.26926
v 0.9014652 54.38963 -14.45847
v 0.9014652 54.8355 -12.26926
v -0.9014652 54.38963 -14.45847
v -0.9014652 54.8355 -12.26926
v -0.9014652 54.8355 -12.26926
v -0.9014652 45.712 -10.41107
v -0.9014652 27.0191 -8.8839
v -0.9014652 27.46497 -6.694691
v 0.9014652 27.0191 -8.8839
v 0.9014652 27.46497 -6.694691
v 0.9014652 27.46497 -6.694691
v 0.9014652 36.58849 -8.552883
v 0.9014652 36.14262 -10.74209
v 0.9014652 36.58849 -8.552883
v -0.9014652 36.14262 -10.74209
v -0.9014652 36.58849 -8.552883
v -0.9014652 36.58849 -8.552883
v -0.9014652 27.46497 -6.694691
v -0.9014652 9.217941 -2.978313
v 0.9014652 9.217941 -2.978313
v 0.9014652 9.217941 -2.978313
v 0.9014652 18.34146 -4.836498
v 0.9014652 17.89558 -7.025707
v 0.9014652 18.34146 -4.836498
v -0.9014652 17.89558 -7.025707
v -0.9014652 18.34146 -4.836498
v -0.9014652 18.34146 -4.836498
v -0.9014652 9.217941 -2.978313
v -1.622597 79.07737 -54.28154
v -1.622597 87.59808 -12.44571
v -1.622597 76.76707 -53.811
v -1.622597 85.28776 -11.97516
v 0.6197758 76.05309 -53.66557
v 0.6197758 84.57383 -11.82977
v 2.005638 77.92219 -54.04625
v 2.005638 86.44292 -12.21045
v 0.6197758 79.79128 -54.42694
v 0.6197758 88.31202 -12.59112
v -1.622597 79.07737 -54.28154
v 0.6197758 79.79128 -54.42694
v -1.622597 76.76707 -53.811
v -1.622597 79.07737 -54.28154
v 0.6197758 76.05309 -53.66557
v -1.622597 76.76707 -53.811
v 2.005638 77.92219 -54.04625
v 0.6197758 88.31202 -12.59112
v -1.622597 87.59808 -12.44571
v -1.622597 85.28776 -11.97516
v 0.6197758 84.57383 -11.82977
v 2.005638 86.44292 -12.21045
vt 0.493154 0.1970514
vt 0.4935626 0.1970514
vt 0.4939711 0.1970514
vt 0.4943797 0.1970514
vt 0.4947882 0.1970514
vt 0.493154 0.2001234
vt 0.4935626 0.2001234
vt 0.4939711 0.2001234
vt 0.4943797 0.2001234
vt 0.4947882 0.2001234
vt 0.4941754 0.1957236
vt 0.4941754 0.2013413
vt 0.4868768 0.3032016
vt 0.4868784 0.3031151
vt 0.4868768 0.2850431
vt 0.4868784 0.2849566
vt 0.4946396 0.2850484
vt 0.4946411 0.2849618
vt 0.4946396 0.3032069
vt 0.4946411 0.3031204
vt 0.4926988 0.2850471
vt 0.4927004 0.2849605
vt 0.4888175 0.2850444
vt 0.4888191 0.2849579
vt 0.4926988 0.2844188
vt 0.4927004 0.2843323
vt 0.4946411 0.2843336
vt 0.4946396 0.2844202
vt 0.4868768 0.2844149
vt 0.4868784 0.2843283
vt 0.4888191 0.2843297
vt 0.4888175 0.2844162
vt 0.4868768 0.2941223
vt 0.4868784 0.2940358
vt 0.4868768 0.2895827
vt 0.4868784 0.2894962
vt 0.4868768 0.2873129
vt 0.4868784 0.2872263
vt 0.4868768 0.2918525
vt 0.4868784 0.291766
vt 0.4868768 0.298662
vt 0.4868784 0.2985755
vt 0.4868768 0.2963921
vt 0.4868784 0.2963057
vt 0.4868768 0.3009318
vt 0.4868784 0.3008453
vt 0.4863217 0.2895823
vt 0.4863233 0.2894958
vt 0.4863233 0.287226
vt 0.4863217 0.2873125
vt 0.4863217 0.294122
vt 0.4863233 0.2940354
vt 0.4863233 0.2917656
vt 0.4863217 0.2918521
vt 0.4863217 0.2986616
vt 0.4863233 0.298575
vt 0.4863233 0.2963052
vt 0.4863217 0.2963918
vt 0.4863217 0.3032013
vt 0.4863233 0.3031147
vt 0.4863233 0.3008449
vt 0.4863217 0.3009314
vt 0.493154 0.1970514
vt 0.4935626 0.1970514
vt 0.4939711 0.1970514
vt 0.4943797 0.1970514
vt 0.4947882 0.1970514
vt 0.493154 0.2001234
vt 0.4935626 0.2001234
vt 0.4939711 0.2001234
vt 0.4943797 0.2001234
vt 0.4947882 0.2001234
vt 0.4941754 0.1957236
vt 0.4941754 0.2013413
vt 0.4935626 0.1970514
vt 0.4935626 0.2001234
vt 0.4939711 0.1970514
vt 0.4939711 0.2001234
vt 0.4943797 0.1970514
vt 0.4943797 0.2001234
vt 0.4947882 0.1970514
vt 0.4947882 0.2001234
vt 0.4951968 0.1970514
vt 0.4951968 0.2001234
vt 0.4931425 0.1950242
vt 0.49457 0.1945604
vt 0.4931425 0.1965251
vt 0.4931425 0.1950242
vt 0.49457 0.1969889
vt 0.4931425 0.1965251
vt 0.4954521 0.1957747
vt 0.49457 0.2026067
vt 0.4931425 0.2021429
vt 0.4931425 0.200642
vt 0.49457 0.2001781
vt 0.4954521 0.2013924
vt 0.4946396 0.3032069
vt 0.4946411 0.3031204
vt 0.4946411 0.2849618
vt 0.4946411 0.3031204
vt 0.4868784 0.3031151
vt 0.4868784 0.2872263
vt 0.4868784 0.2849566
vt 0.4868768 0.2850431
vt 0.4868768 0.2873129
vt 0.4946396 0.2850484
vt 0.4946396 0.3032069
vt 0.4868768 0.3032016
vt 0.4927004 0.2849605
vt 0.4888191 0.2849579
vt 0.4926988 0.2850471
vt 0.4888175 0.2850444
vt 0.4926988 0.2850471
vt 0.4926988 0.2844188
vt 0.4927004 0.2849605
vt 0.4927004 0.2843323
vt 0.4927004 0.2843323
vt 0.4946411 0.2843336
vt 0.4946411 0.2849618
vt 0.4946411 0.2843336
vt 0.4946396 0.2850484
vt 0.4946396 0.2844202
vt 0.4946396 0.2844202
vt 0.4926988 0.2844188
vt 0.4868768 0.2844149
vt 0.4868784 0.2843283
vt 0.4868784 0.2843283
vt 0.4888191 0.2843297
vt 0.4888191 0.2849579
vt 0.4888191 0.2843297
vt 0.4888175 0.2850444
vt 0.4888175 0.2844162
vt 0.4888175 0.2844162
vt 0.4868768 0.2844149
vt 0.4868768 0.2963921
vt 0.4868768 0.2941223
vt 0.4868784 0.2963057
vt 0.4868784 0.2940358
vt 0.4868768 0.2918525
vt 0.4868768 0.2895827
vt 0.4868784 0.291766
vt 0.4868784 0.2894962
vt 0.4868768 0.3009318
vt 0.4868768 0.298662
vt 0.4868784 0.3008453
vt 0.4868784 0.2985755
vt 0.4868768 0.2895827
vt 0.4863217 0.2895823
vt 0.4868784 0.2894962
vt 0.4863233 0.2894958
vt 0.4863233 0.2894958
vt 0.4863233 0.287226
vt 0.4868784 0.2872263
vt 0.4863233 0.287226
vt 0.4868768 0.2873129
vt 0.4863217 0.2873125
vt 0.4863217 0.2873125
vt 0.4863217 0.2895823
vt 0.4868768 0.2941223
vt 0.4863217 0.294122
vt 0.4868784 0.2940358
vt 0.4863233 0.2940354
vt 0.4863233 0.2940354
vt 0.4863233 0.2917656
vt 0.4868784 0.291766
vt 0.4863233 0.2917656
vt 0.4868768 0.2918525
vt 0.4863217 0.2918521
vt 0.4863217 0.2918521
vt 0.4863217 0.294122
vt 0.4868768 0.298662
vt 0.4863217 0.2986616
vt 0.4868784 0.2985755
vt 0.4863233 0.298575
vt 0.4863233 0.298575
vt 0.4863233 0.2963052
vt 0.4868784 0.2963057
vt 0.4863233 0.2963052
vt 0.4868768 0.2963921
vt 0.4863217 0.2963918
vt 0.4863217 0.2963918
vt 0.4863217 0.2986616
vt 0.4863217 0.3032013
vt 0.4863233 0.3031147
vt 0.4863233 0.3031147
vt 0.4863233 0.3008449
vt 0.4868784 0.3008453
vt 0.4863233 0.3008449
vt 0.4868768 0.3009318
vt 0.4863217 0.3009314
vt 0.4863217 0.3009314
vt 0.4863217 0.3032013
vt 0.4935626 0.1970514
vt 0.4935626 0.2001234
vt 0.4939711 0.1970514
vt 0.4939711 0.2001234
vt 0.4943797 0.1970514
vt 0.4943797 0.2001234
vt 0.4947882 0.1970514
vt 0.4947882 0.2001234
vt 0.4951968 0.1970514
vt 0.4951968 0.2001234
vt 0.4931425 0.1950242
vt 0.49457 0.1945604
vt 0.4931425 0.1965251
vt 0.4931425 0.1950242
vt 0.49457 0.1969889
vt 0.4931425 0.1965251
vt 0.4954521 0.1957747
vt 0.49457 0.2026067
vt 0.4931425 0.2021429
vt 0.4931425 0.200642
vt 0.49457 0.2001781
vt 0.4954521 0.2013924
vn -0.3090157 -0.187902 -0.9323101
vn -0.3090157 -0.187902 -0.9323101
vn -1 0 0
vn -0.3090162 0.187902 0.93231
vn 0.8090162 0.11613 0.5762001
vn -0.3090157 -0.187902 -0.9323101
vn -0.3090157 -0.187902 -0.9323101
vn -1 0 0
vn -0.3090164 0.187902 0.9323099
vn 0.8090161 0.11613 0.5762003
vn 0 -0.9798822 0.1995767
vn 0 0.9798822 -0.1995768
vn 0 -0.9798829 0.1995733
vn 0 -0.979883 0.1995732
vn 0 0.1995733 0.9798829
vn 0 0.199573 0.979883
vn 0 -0.19957 -0.9798836
vn 0 -0.1995717 -0.9798832
vn 0 -0.1995733 -0.9798829
vn 0 -0.1995733 -0.9798829
vn -1 0 0
vn 1 0 0
vn -1 0 0
vn 1 0 0
vn 0 0.9798829 -0.1995734
vn 0 0.9798829 -0.1995734
vn 0 0.9798829 -0.1995734
vn 0 0.9798829 -0.1995734
vn 0 0.9798829 -0.1995735
vn 0 0.9798829 -0.1995735
vn 0 0.9798829 -0.1995735
vn 0 0.9798829 -0.1995735
vn -1 0 0
vn 1 0 0
vn -1 0 0
vn 1 0 0
vn 0 0.1995736 0.9798828
vn 0 0.1995736 0.9798828
vn -1 0 0
vn 1 0 0
vn -1 0 0
vn 1 0 0
vn -1 0 0
vn 1 0 0
vn -1 0 0
vn 1 0 0
vn 0 0.1995723 0.9798831
vn 0 0.1995723 0.9798831
vn 0 0.1995723 0.9798831
vn 0 0.1995723 0.9798831
vn 0 0.1995736 0.9798828
vn 0 0.1995736 0.9798828
vn 0 0.1995736 0.9798828
vn 0 0.1995736 0.9798828
vn 0 0.1995733 0.9798829
vn 0 0.1995733 0.9798829
vn 0 0.1995733 0.9798829
vn 0 0.1995733 0.9798829
vn 0 0.1995725 0.9798831
vn 0 0.1995725 0.9798831
vn 0 0.1995725 0.9798831
vn 0 0.1995725 0.9798831
vn -0.3090087 0.9319266 -0.1898063
vn -0.3090147 0.9319248 -0.1898056
vn -1 0 0
vn -0.3090239 -0.9319218 0.1898048
vn 0.8090157 -0.5759625 0.1173068
vn -0.3090147 0.9319248 -0.1898056
vn -0.3090207 0.9319229 -0.1898048
vn -1 0 0
vn -0.3090138 -0.9319249 0.189806
vn 0.8090157 -0.5759625 0.1173068
vn 0 -0.1995743 -0.9798827
vn 0 0.1995728 0.979883
vn -1 0 0
vn -1 0 0
vn -0.3090159 0.187902 0.93231
vn -0.3090162 0.187902 0.93231
vn 0.8090164 0.1161299 0.5761999
vn 0.8090162 0.11613 0.5762001
vn 0.8090164 -0.1161299 -0.5761999
vn 0.8090165 -0.1161299 -0.5761998
vn 0.8090165 -0.1161299 -0.5761998
vn 0.8090166 -0.1161299 -0.5761996
vn 0 -0.9798818 0.1995786
vn 0 -0.9798824 0.1995756
vn 0 -0.9798818 0.1995786
vn 0 -0.9798818 0.1995786
vn 0 -0.9798824 0.1995756
vn 0 -0.9798818 0.1995786
vn 0 -0.9798825 0.199575
vn 0 0.9798816 -0.1995797
vn 0 0.9798813 -0.1995808
vn 0 0.9798822 -0.1995766
vn 0 0.9798832 -0.1995716
vn 0 0.9798825 -0.1995751
vn 0 -0.9798829 0.1995734
vn 0 -0.9798829 0.1995734
vn 1 0 0
vn 1 0 0
vn 1 0 0
vn 1 0 0
vn 1 0 0
vn -1 0 0
vn -1 0 0
vn -1 0 0
vn -1 0 0
vn -1 0 0
vn 0 0.9798829 -0.1995733
vn 0 0.9798829 -0.1995733
vn 0 0.9798829 -0.1995733
vn 0 0.9798829 -0.1995733
vn 0 0.1995684 0.9798839
vn 0 0.1995684 0.9798839
vn 0 0.1995684 0.9798839
vn 0 0.1995684 0.9798839
vn 1 0 0
vn 1 0 0
vn 0 -0.1995717 -0.9798832
vn 0 -0.1995684 -0.9798839
vn 0 -0.19957 -0.9798836
vn 0 -0.1995684 -0.9798839
vn -1 0 0
vn -1 0 0
vn 0 0.1995727 0.9798831
vn 0 0.1995727 0.9798831
vn 1 0 0
vn 1 0 0
vn 0 -0.1995698 -0.9798836
vn 0 -0.1995698 -0.9798836
vn 0 -0.1995698 -0.9798836
vn 0 -0.1995698 -0.9798836
vn -1 0 0
vn -1 0 0
vn 0 0.1995728 0.979883
vn 0 0.1995728 0.979883
vn 0 0.1995728 0.979883
vn 0 0.1995728 0.979883
vn 0 0.1995731 0.979883
vn 0 0.1995731 0.979883
vn 0 0.1995731 0.979883
vn 0 0.1995731 0.979883
vn 0 0.1995735 0.9798829
vn 0 0.1995735 0.9798829
vn 0 0.1995735 0.9798829
vn 0 0.1995735 0.9798829
vn 0 -0.9798829 0.1995733
vn 0 -0.9798829 0.1995733
vn 0 -0.9798829 0.1995733
vn 0 -0.9798829 0.1995733
vn 1 0 0
vn 1 0 0
vn 0 0.979883 -0.1995731
vn 0 0.979883 -0.1995731
vn 0 0.979883 -0.1995731
vn 0 0.979883 -0.1995731
vn -1 0 0
vn -1 0 0
vn 0 -0.979883 0.1995731
vn 0 -0.979883 0.1995731
vn 0 -0.979883 0.1995731
vn 0 -0.979883 0.1995731
vn 1 0 0
vn 1 0 0
vn 0 0.979883 -0.199573
vn 0 0.979883 -0.199573
vn 0 0.979883 -0.199573
vn 0 0.979883 -0.199573
vn -1 0 0
vn -1 0 0
vn 0 -0.979883 0.1995731
vn 0 -0.979883 0.1995731
vn 0 -0.979883 0.1995731
vn 0 -0.979883 0.1995731
vn 1 0 0
vn 1 0 0
vn 0 0.979883 -0.1995731
vn 0 0.979883 -0.1995731
vn 0 0.979883 -0.1995731
vn 0 0.979883 -0.1995731
vn -1 0 0
vn -1 0 0
vn 0 -0.979883 0.1995731
vn 0 -0.979883 0.1995731
vn 1 0 0
vn 1 0 0
vn 0 0.979883 -0.1995731
vn 0 0.979883 -0.1995731
vn 0 0.979883 -0.1995731
vn 0 0.979883 -0.1995731
vn -1 0 0
vn -1 0 0
vn -1 0 0
vn -1 0 0
vn -0.309034 -0.9319187 0.1898036
vn -0.3090239 -0.9319218 0.1898048
vn 0.8090157 -0.5759625 0.1173068
vn 0.8090157 -0.5759625 0.1173068
vn 0.8090161 0.5759618 -0.1173067
vn 0.8090159 0.5759622 -0.1173067
vn 0.8090159 0.5759622 -0.1173067
vn 0.8090157 0.5759625 -0.1173068
vn 0 -0.1995757 -0.9798824
vn 0 -0.1995798 -0.9798816
vn 0 -0.19957 -0.9798836
vn 0 -0.1995757 -0.9798824
vn 0 -0.1995703 -0.9798835
vn 0 -0.19957 -0.9798836
vn 0 -0.1995755 -0.9798824
vn 0 0.1995716 0.9798832
vn 0 0.1995738 0.9798828
vn 0 0.1995747 0.9798826
vn 0 0.1995725 0.9798831
vn 0 0.1995716 0.9798832
g Item_Samurai_HouseFlag_0
f 2/2/2 6/6/6 1/1/1
f 2/2/2 7/7/7 6/6/6
f 3/3/3 76/76/76 75/75/75
f 3/3/3 8/8/8 76/76/76
f 4/4/4 78/78/78 77/77/77
f 4/4/4 9/9/9 78/78/78
f 5/5/5 80/80/80 79/79/79
f 5/5/5 10/10/10 80/80/80
f 83/83/83 82/82/82 81/81/81
f 83/83/83 84/84/84 82/82/82
f 86/86/86 11/11/11 85/85/85
f 91/91/91 11/11/11 86/86/86
f 89/89/89 11/11/11 91/91/91
f 90/90/90 11/11/11 89/89/89
f 88/88/88 11/11/11 87/87/87
f 93/93/93 12/12/12 92/92/92
f 94/94/94 12/12/12 93/93/93
f 95/95/95 12/12/12 94/94/94
f 96/96/96 12/12/12 95/95/95
f 92/92/92 12/12/12 96/96/96
f 38/38/38 15/15/15 37/37/37
f 38/38/38 16/16/16 15/15/15
f 16/16/16 125/125/125 15/15/15
f 16/16/16 126/126/126 125/125/125
f 26/26/26 28/28/28 25/25/25
f 26/26/26 27/27/27 28/28/28
f 18/18/18 19/19/19 17/17/17
f 18/18/18 20/20/20 19/19/19
f 98/98/98 13/13/13 97/97/97
f 98/98/98 14/14/14 13/13/13
f 14/14/14 183/183/183 13/13/13
f 14/14/14 184/184/184 183/183/183
f 22/22/22 100/100/100 99/99/99
f 22/22/22 101/101/101 100/100/100
f 22/22/22 46/46/46 101/101/101
f 22/22/22 42/42/42 46/46/46
f 22/22/22 44/44/44 42/42/42
f 22/22/22 34/34/34 44/44/44
f 22/22/22 40/40/40 34/34/34
f 22/22/22 36/36/36 40/40/40
f 24/24/24 36/36/36 22/22/22
f 24/24/24 102/102/102 36/36/36
f 103/103/103 102/102/102 24/24/24
f 99/99/99 117/117/117 22/22/22
f 99/99/99 118/118/118 117/117/117
f 24/24/24 127/127/127 103/103/103
f 24/24/24 128/128/128 127/127/127
f 102/102/102 151/151/151 36/36/36
f 102/102/102 152/152/152 151/151/151
f 40/40/40 163/163/163 34/34/34
f 40/40/40 164/164/164 163/163/163
f 44/44/44 175/175/175 42/42/42
f 44/44/44 176/176/176 175/175/175
f 23/23/23 105/105/105 104/104/104
f 23/23/23 21/21/21 105/105/105
f 105/105/105 21/21/21 35/35/35
f 35/35/35 21/21/21 39/39/39
f 39/39/39 21/21/21 33/33/33
f 33/33/33 21/21/21 43/43/43
f 43/43/43 21/21/21 41/41/41
f 41/41/41 21/21/21 45/45/45
f 45/45/45 21/21/21 108/108/108
f 108/108/108 21/21/21 107/107/107
f 107/107/107 21/21/21 106/106/106
f 21/21/21 123/123/123 106/106/106
f 21/21/21 124/124/124 123/123/123
f 104/104/104 133/133/133 23/23/23
f 104/104/104 134/134/134 133/133/133
f 33/33/33 169/169/169 39/39/39
f 33/33/33 170/170/170 169/169/169
f 41/41/41 181/181/181 43/43/43
f 41/41/41 182/182/182 181/181/181
f 108/108/108 191/191/191 45/45/45
f 108/108/108 192/192/192 191/191/191
f 111/111/111 110/110/110 109/109/109
f 111/111/111 112/112/112 110/110/110
f 30/30/30 32/32/32 29/29/29
f 30/30/30 31/31/31 32/32/32
f 115/115/115 114/114/114 113/113/113
f 115/115/115 116/116/116 114/114/114
f 121/121/121 120/120/120 119/119/119
f 121/121/121 122/122/122 120/120/120
f 131/131/131 130/130/130 129/129/129
f 131/131/131 132/132/132 130/130/130
f 137/137/137 136/136/136 135/135/135
f 137/137/137 138/138/138 136/136/136
f 141/141/141 140/140/140 139/139/139
f 141/141/141 142/142/142 140/140/140
f 48/48/48 50/50/50 47/47/47
f 48/48/48 49/49/49 50/50/50
f 52/52/52 54/54/54 51/51/51
f 52/52/52 53/53/53 54/54/54
f 145/145/145 144/144/144 143/143/143
f 145/145/145 146/146/146 144/144/144
f 56/56/56 58/58/58 55/55/55
f 56/56/56 57/57/57 58/58/58
f 60/60/60 62/62/62 59/59/59
f 60/60/60 61/61/61 62/62/62
f 149/149/149 148/148/148 147/147/147
f 149/149/149 150/150/150 148/148/148
f 155/155/155 154/154/154 153/153/153
f 155/155/155 156/156/156 154/154/154
f 35/35/35 157/157/157 105/105/105
f 35/35/35 158/158/158 157/157/157
f 161/161/161 160/160/160 159/159/159
f 161/161/161 162/162/162 160/160/160
f 167/167/167 166/166/166 165/165/165
f 167/167/167 168/168/168 166/166/166
f 173/173/173 172/172/172 171/171/171
f 173/173/173 174/174/174 172/172/172
f 179/179/179 178/178/178 177/177/177
f 179/179/179 180/180/180 178/178/178
f 46/46/46 185/185/185 101/101/101
f 46/46/46 186/186/186 185/185/185
f 189/189/189 188/188/188 187/187/187
f 189/189/189 190/190/190 188/188/188
f 64/64/64 68/68/68 63/63/63
f 64/64/64 69/69/69 68/68/68
f 65/65/65 194/194/194 193/193/193
f 65/65/65 70/70/70 194/194/194
f 66/66/66 196/196/196 195/195/195
f 66/66/66 71/71/71 196/196/196
f 67/67/67 198/198/198 197/197/197
f 67/67/67 72/72/72 198/198/198
f 201/201/201 200/200/200 199/199/199
f 201/201/201 202/202/202 200/200/200
f 204/204/204 73/73/73 203/203/203
f 209/209/209 73/73/73 204/204/204
f 207/207/207 73/73/73 209/209/209
f 208/208/208 73/73/73 207/207/207
f 206/206/206 73/73/73 205/205/205
f 211/211/211 74/74/74 210/210/210
f 212/212/212 74/74/74 211/211/211
f 213/213/213 74/74/74 212/212/212
f 214/214/214 74/74/74 213/213/213
f 210/210/210 74/74/74 214/214/214
