g Item_WaterCanteen
v 4.038129 1.388554 8.96869
v 4.250836 6.714825 3.474658
v 3.724229 6.628216 -4.161694
v 2.768329 1.193607 -9.467366
v 1.942691 -6.415371 -9.324125
v 1.72998 -11.74164 -3.83009
v 2.256593 -11.65503 3.806261
v 3.212491 -6.220425 9.11193
v -2.411311 2.096592 9.405415
v -2.198611 7.422871 3.911383
v -2.725215 7.336254 -3.724968
v -3.681113 1.901646 -9.030641
v -4.506755 -5.707333 -8.887399
v -4.71946 -11.0336 -3.393364
v -4.192857 -10.94699 4.242987
v -3.236949 -5.512386 9.548655
v 2.990411 -2.513409 -0.1777143
v -3.459037 -1.805363 0.2590116
v -2.255168 -5.895489 10.17782
v -1.367806 2.282345 10.02387
v -1.139203 8.006824 4.119086
v -1.705176 7.913738 -4.088176
v -2.732543 2.072834 -9.790505
v -3.619906 -6.105007 -9.636557
v -3.848517 -11.82949 -3.731782
v -3.282542 -11.73639 4.47548
v 2.288062 -6.394253 9.870171
v 3.175429 1.783581 9.716221
v 3.404035 7.50806 3.81144
v 2.838059 7.414967 -4.395822
v 1.810691 1.574055 -10.09815
v 0.9233294 -6.603779 -9.944202
v 0.6947184 -12.32826 -4.039428
v 1.260694 -12.23516 4.167834
v 3.244584 7.481831 1.499194
v 2.99751 7.441196 -2.083575
v -1.545718 7.93996 -1.775929
v -1.298652 7.980602 1.806839
v 3.020051 8.357861 1.159667
v 2.820344 8.325016 -1.736303
v -1.137206 8.759487 -1.468317
v -0.937499 8.792332 1.427653
v 3.09636 9.061169 1.146427
v 2.896653 9.028316 -1.749543
v -1.060897 9.46278 -1.481557
v -0.8611898 9.495632 1.414413
v 2.601121 9.109005 0.8333562
v 2.448995 9.083981 -1.372627
v -0.5656462 9.414936 -1.16849
v -0.4135198 9.43996 1.037493
v 2.908906 10.92641 0.8681279
v 2.746264 10.89966 -1.490324
v -0.4767351 11.25349 -1.272078
v -0.3140936 11.28024 1.086374
v 2.235076 10.9915 0.4421648
v 2.137168 10.97541 -0.9774956
v 0.1970969 11.18838 -0.8461231
v 0.2950049 11.20449 0.5735374
v 2.473926 11.91801 0.5110081
v 2.362876 11.89975 -1.099368
v 0.1621771 12.14133 -0.9503471
v 0.2732268 12.1596 0.6600288
v 0.5664454 7.664349 -4.241999
v 1.132421 7.757442 3.965263
v 1.05486 7.744686 2.840611
v 1.107471 8.585987 2.253596
v 1.183787 9.289288 2.24036
v 1.144227 9.282772 1.666654
v 1.351315 11.11219 1.759014
v 1.29749 11.10334 0.9784346
v 1.410392 12.04486 1.119315
v 1.225717 12.01448 -1.558654
v 1.134688 11.07656 -1.382388
v 1.080855 11.06771 -2.162968
v 0.8912477 9.241177 -2.001788
v 0.8516817 9.234661 -2.57549
v 0.7753725 8.531361 -2.56225
v 0.6439962 7.677105 -3.117347
v 0.9960604 -4.440708 9.937109
v 1.495603 0.1630058 9.850443
v -0.07508371 0.3354454 9.956801
v -0.5746279 -4.268276 10.04347
v 0.130147 -0.05316544 -9.963805
v -0.3693952 -4.656872 -9.877139
v -1.940085 -4.48444 -9.770779
v -1.440543 0.1192741 -9.857446
v 1.043157 -4.432964 10.62
v 1.542697 0.1707573 10.53334
v -0.02799699 0.3431892 10.6397
v -0.5275393 -4.260525 10.72637
v 0.08305266 -0.06090165 -10.6467
v -0.4164896 -4.664616 -10.56004
v -1.98718 -4.492184 -10.45368
v -1.487639 0.1115227 -10.54034
v 0.760232 -3.767246 11.10779
v 1.125833 -0.397892 11.04436
v 0.3204909 -0.3094826 11.09889
v -0.04511354 -3.678837 11.16232
v -0.3993673 -0.6425972 -11.08265
v -0.7649679 -4.011944 -11.01923
v -1.570312 -3.923534 -10.96469
v -1.204707 -0.5541878 -11.02812
v -1.139203 8.006824 4.119086
v -2.198611 7.422871 3.911383
v -1.705176 7.913738 -4.088176
v -2.725215 7.336254 -3.724968
v -2.732543 2.072834 -9.790505
v -3.681113 1.901646 -9.030641
v -3.619906 -6.105007 -9.636557
v -4.506755 -5.707333 -8.887399
v -3.848517 -11.82949 -3.731782
v -4.71946 -11.0336 -3.393364
v -3.282542 -11.73639 4.47548
v -4.192857 -10.94699 4.242987
v -2.255168 -5.895489 10.17782
v -3.236949 -5.512386 9.548655
v -1.367806 2.282345 10.02387
v -2.411311 2.096592 9.405415
v -2.411311 2.096592 9.405415
v -2.198611 7.422871 3.911383
v -2.725215 7.336254 -3.724968
v -3.681113 1.901646 -9.030641
v -4.506755 -5.707333 -8.887399
v -4.71946 -11.0336 -3.393364
v -4.192857 -10.94699 4.242987
v -3.236949 -5.512386 9.548655
v -1.367806 2.282345 10.02387
v -1.139203 8.006824 4.119086
v -2.732543 2.072834 -9.790505
v -1.705176 7.913738 -4.088176
v -3.619906 -6.105007 -9.636557
v -3.848517 -11.82949 -3.731782
v 0.6947184 -12.32826 -4.039428
v -3.848517 -11.82949 -3.731782
v -3.282542 -11.73639 4.47548
v 1.260694 -12.23516 4.167834
v -3.282542 -11.73639 4.47548
v -2.255168 -5.895489 10.17782
v 3.212491 -6.220425 9.11193
v 2.288062 -6.394253 9.870171
v 4.038129 1.388554 8.96869
v 3.175429 1.783581 9.716221
v 4.038129 1.388554 8.96869
v 3.175429 1.783581 9.716221
v 4.250836 6.714825 3.474658
v 3.404035 7.50806 3.81144
v 4.250836 6.714825 3.474658
v 3.404035 7.50806 3.81144
v 3.724229 6.628216 -4.161694
v 2.838059 7.414967 -4.395822
v 3.724229 6.628216 -4.161694
v 2.838059 7.414967 -4.395822
v 2.768329 1.193607 -9.467366
v 1.810691 1.574055 -10.09815
v 2.768329 1.193607 -9.467366
v 1.810691 1.574055 -10.09815
v 1.942691 -6.415371 -9.324125
v 0.9233294 -6.603779 -9.944202
v 1.942691 -6.415371 -9.324125
v 0.9233294 -6.603779 -9.944202
v 1.72998 -11.74164 -3.83009
v 0.6947184 -12.32826 -4.039428
v 1.72998 -11.74164 -3.83009
v 0.6947184 -12.32826 -4.039428
v 2.256593 -11.65503 3.806261
v 1.260694 -12.23516 4.167834
v 2.256593 -11.65503 3.806261
v 1.260694 -12.23516 4.167834
v 3.212491 -6.220425 9.11193
v 2.288062 -6.394253 9.870171
v 3.404035 7.50806 3.81144
v 2.838059 7.414967 -4.395822
v 2.838059 7.414967 -4.395822
v 3.244584 7.481831 1.499194
v 0.5664454 7.664349 -4.241999
v -1.705176 7.913738 -4.088176
v -1.705176 7.913738 -4.088176
v -1.545718 7.93996 -1.775929
v -1.139203 8.006824 4.119086
v -1.139203 8.006824 4.119086
v -1.545718 7.93996 -1.775929
v 1.132421 7.757442 3.965263
v 3.404035 7.50806 3.81144
v 3.244584 7.481831 1.499194
v 3.244584 7.481831 1.499194
v 2.99751 7.441196 -2.083575
v 0.6439962 7.677105 -3.117347
v -1.545718 7.93996 -1.775929
v 0.7753725 8.531361 -2.56225
v -1.545718 7.93996 -1.775929
v -1.545718 7.93996 -1.775929
v -1.137206 8.759487 -1.468317
v -1.298652 7.980602 1.806839
v 1.05486 7.744686 2.840611
v -1.298652 7.980602 1.806839
v -1.298652 7.980602 1.806839
v -0.937499 8.792332 1.427653
v 1.107471 8.585987 2.253596
v 3.020051 8.357861 1.159667
v 2.820344 8.325016 -1.736303
v 0.7753725 8.531361 -2.56225
v -1.137206 8.759487 -1.468317
v -1.137206 8.759487 -1.468317
v -1.060897 9.46278 -1.481557
v -0.937499 8.792332 1.427653
v -0.937499 8.792332 1.427653
v -0.8611898 9.495632 1.414413
v 1.107471 8.585987 2.253596
v 3.09636 9.061169 1.146427
v 2.896653 9.028316 -1.749543
v 0.8516817 9.234661 -2.57549
v -1.060897 9.46278 -1.481557
v -0.8611898 9.495632 1.414413
v 1.183787 9.289288 2.24036
v 2.601121 9.109005 0.8333562
v 2.448995 9.083981 -1.372627
v 0.8912477 9.241177 -2.001788
v -0.5656462 9.414936 -1.16849
v -0.5656462 9.414936 -1.16849
v -0.4767351 11.25349 -1.272078
v -0.4135198 9.43996 1.037493
v 1.144227 9.282772 1.666654
v -0.4135198 9.43996 1.037493
v -0.3140936 11.28024 1.086374
v 2.908906 10.92641 0.8681279
v 2.746264 10.89966 -1.490324
v 1.080855 11.06771 -2.162968
v -0.4767351 11.25349 -1.272078
v -0.3140936 11.28024 1.086374
v 1.351315 11.11219 1.759014
v 2.235076 10.9915 0.4421648
v 2.137168 10.97541 -0.9774956
v 1.134688 11.07656 -1.382388
v 1.225717 12.01448 -1.558654
v 0.1970969 11.18838 -0.8461231
v 0.1621771 12.14133 -0.9503471
v 0.1970969 11.18838 -0.8461231
v 0.1621771 12.14133 -0.9503471
v 0.2950049 11.20449 0.5735374
v 0.2732268 12.1596 0.6600288
v 1.29749 11.10334 0.9784346
v 0.2950049 11.20449 0.5735374
v 1.410392 12.04486 1.119315
v 0.2732268 12.1596 0.6600288
v 1.05486 7.744686 2.840611
v 1.107471 8.585987 2.253596
v 3.244584 7.481831 1.499194
v 1.107471 8.585987 2.253596
v 3.020051 8.357861 1.159667
v 3.244584 7.481831 1.499194
v 1.183787 9.289288 2.24036
v 3.09636 9.061169 1.146427
v 1.107471 8.585987 2.253596
v 3.020051 8.357861 1.159667
v 1.144227 9.282772 1.666654
v 1.351315 11.11219 1.759014
v 2.601121 9.109005 0.8333562
v 2.908906 10.92641 0.8681279
v 1.29749 11.10334 0.9784346
v 1.410392 12.04486 1.119315
v 2.235076 10.9915 0.4421648
v 2.473926 11.91801 0.5110081
v 2.473926 11.91801 0.5110081
v 2.362876 11.89975 -1.099368
v 1.134688 11.07656 -1.382388
v 2.137168 10.97541 -0.9774956
v 1.225717 12.01448 -1.558654
v 2.362876 11.89975 -1.099368
v 0.8912477 9.241177 -2.001788
v 2.448995 9.083981 -1.372627
v 1.080855 11.06771 -2.162968
v 2.746264 10.89966 -1.490324
v 2.820344 8.325016 -1.736303
v 2.896653 9.028316 -1.749543
v 0.7753725 8.531361 -2.56225
v 0.8516817 9.234661 -2.57549
v 0.6439962 7.677105 -3.117347
v 2.99751 7.441196 -2.083575
v 0.7753725 8.531361 -2.56225
v 2.99751 7.441196 -2.083575
v 2.820344 8.325016 -1.736303
v 0.7753725 8.531361 -2.56225
v -1.139203 8.006824 4.119086
v -1.298652 7.980602 1.806839
v 2.838059 7.414967 -4.395822
v 2.99751 7.441196 -2.083575
v 2.288062 -6.394253 9.870171
v 3.175429 1.783581 9.716221
v -1.367806 2.282345 10.02387
v -2.255168 -5.895489 10.17782
v 1.810691 1.574055 -10.09815
v 0.9233294 -6.603779 -9.944202
v -3.619906 -6.105007 -9.636557
v -2.732543 2.072834 -9.790505
v 0.9960604 -4.440708 9.937109
v 1.495603 0.1630058 9.850443
v 1.495603 0.1630058 9.850443
v 1.542697 0.1707573 10.53334
v -0.07508371 0.3354454 9.956801
v -0.07508371 0.3354454 9.956801
v -0.02799699 0.3431892 10.6397
v -0.5746279 -4.268276 10.04347
v -0.5746279 -4.268276 10.04347
v -0.5275393 -4.260525 10.72637
v 0.9960604 -4.440708 9.937109
v 1.043157 -4.432964 10.62
v 0.130147 -0.05316544 -9.963805
v -0.3693952 -4.656872 -9.877139
v -0.3693952 -4.656872 -9.877139
v -0.4164896 -4.664616 -10.56004
v -1.940085 -4.48444 -9.770779
v -1.940085 -4.48444 -9.770779
v -1.98718 -4.492184 -10.45368
v -1.440543 0.1192741 -9.857446
v -1.440543 0.1192741 -9.857446
v -1.487639 0.1115227 -10.54034
v 0.130147 -0.05316544 -9.963805
v 0.08305266 -0.06090165 -10.6467
v 1.043157 -4.432964 10.62
v 0.760232 -3.767246 11.10779
v 1.542697 0.1707573 10.53334
v 1.125833 -0.397892 11.04436
v 1.542697 0.1707573 10.53334
v 1.125833 -0.397892 11.04436
v -0.02799699 0.3431892 10.6397
v 0.3204909 -0.3094826 11.09889
v -0.5275393 -4.260525 10.72637
v -0.02799699 0.3431892 10.6397
v -0.04511354 -3.678837 11.16232
v 0.3204909 -0.3094826 11.09889
v -0.5275393 -4.260525 10.72637
v -0.04511354 -3.678837 11.16232
v 1.043157 -4.432964 10.62
v 0.760232 -3.767246 11.10779
v 0.08305266 -0.06090165 -10.6467
v -0.3993673 -0.6425972 -11.08265
v -0.4164896 -4.664616 -10.56004
v -0.7649679 -4.011944 -11.01923
v -0.4164896 -4.664616 -10.56004
v -0.7649679 -4.011944 -11.01923
v -1.98718 -4.492184 -10.45368
v -1.570312 -3.923534 -10.96469
v -1.487639 0.1115227 -10.54034
v -1.98718 -4.492184 -10.45368
v -1.204707 -0.5541878 -11.02812
v -1.570312 -3.923534 -10.96469
v -1.487639 0.1115227 -10.54034
v -1.204707 -0.5541878 -11.02812
v 0.08305266 -0.06090165 -10.6467
v -0.3993673 -0.6425972 -11.08265
vt 0.6137695 0.3032227
vt 0.6137695 0.3032227
vt 0.6137695 0.3032227
vt 0.6137695 0.3032227
vt 0.6137695 0.3032227
vt 0.6137695 0.3032227
vt 0.6137695 0.3032227
vt 0.6137695 0.3032227
vt 0.6137695 0.3032227
vt 0.6137695 0.3032227
vt 0.6137695 0.3032227
vt 0.6137695 0.3032227
vt 0.6137695 0.3032227
vt 0.6137695 0.3032227
vt 0.6137695 0.3032227
vt 0.6137695 0.3032227
vt 0.6137695 0.3032227
vt 0.6137695 0.3032227
vt 0.6137695 0.3032227
vt 0.6137695 0.3032227
vt 0.6137695 0.3032227
vt 0.6137695 0.3032227
vt 0.6137695 0.3032227
vt 0.6137695 0.3032227
vt 0.6137695 0.3032227
vt 0.6137695 0.3032227
vt 0.6137695 0.3032227
vt 0.6137695 0.3032227
vt 0.6137695 0.3032227
vt 0.6137695 0.3032227
vt 0.6137695 0.3032227
vt 0.6137695 0.3032227
vt 0.6137695 0.3032227
vt 0.6137695 0.3032227
vt 0.6137695 0.3032227
vt 0.6137695 0.3032227
vt 0.6137695 0.3032227
vt 0.6137695 0.3032227
vt 0.6137695 0.3032227
vt 0.6137695 0.3032227
vt 0.6137695 0.3032227
vt 0.6137695 0.3032227
vt 0.6137695 0.3032227
vt 0.6137695 0.3032227
vt 0.6137695 0.3032227
vt 0.6137695 0.3032227
vt 0.6137695 0.3032227
vt 0.6137695 0.3032227
vt 0.6137695 0.3032227
vt 0.6137695 0.3032227
vt 0.9179688 0.2047119
vt 0.9179688 0.2047119
vt 0.9179688 0.2047119
vt 0.9179688 0.2047119
vt 0.9179688 0.2047119
vt 0.9179688 0.2047119
vt 0.9179688 0.2047119
vt 0.9179688 0.2047119
vt 0.4921875 0.2512207
vt 0.4921875 0.2512207
vt 0.4921875 0.2512207
vt 0.4921875 0.2512207
vt 0.6137695 0.3032227
vt 0.6137695 0.3032227
vt 0.6137695 0.3032227
vt 0.6137695 0.3032227
vt 0.6137695 0.3032227
vt 0.6137695 0.3032227
vt 0.9179688 0.2047119
vt 0.9179688 0.2047119
vt 0.4921875 0.2512207
vt 0.4921875 0.2512207
vt 0.9179688 0.2047119
vt 0.9179688 0.2047119
vt 0.6137695 0.3032227
vt 0.6137695 0.3032227
vt 0.6137695 0.3032227
vt 0.6137695 0.3032227
vt 0.6137695 0.3032227
vt 0.6137695 0.3032227
vt 0.6137695 0.3032227
vt 0.6137695 0.3032227
vt 0.6137695 0.3032227
vt 0.6137695 0.3032227
vt 0.6137695 0.3032227
vt 0.6137695 0.3032227
vt 0.9023438 0.2023926
vt 0.9023438 0.2023926
vt 0.9023438 0.2023926
vt 0.9023438 0.2023926
vt 0.9023438 0.2023926
vt 0.9023438 0.2023926
vt 0.9023438 0.2023926
vt 0.9023438 0.2023926
vt 0.9023438 0.2023926
vt 0.9023438 0.2023926
vt 0.9023438 0.2023926
vt 0.9023438 0.2023926
vt 0.9023438 0.2023926
vt 0.9023438 0.2023926
vt 0.9023438 0.2023926
vt 0.9023438 0.2023926
vt 0.6137695 0.3032227
vt 0.6137695 0.3032227
vt 0.6137695 0.3032227
vt 0.6137695 0.3032227
vt 0.6137695 0.3032227
vt 0.6137695 0.3032227
vt 0.6137695 0.3032227
vt 0.6137695 0.3032227
vt 0.6137695 0.3032227
vt 0.6137695 0.3032227
vt 0.6137695 0.3032227
vt 0.6137695 0.3032227
vt 0.6137695 0.3032227
vt 0.6137695 0.3032227
vt 0.6137695 0.3032227
vt 0.6137695 0.3032227
vt 0.6137695 0.3032227
vt 0.6137695 0.3032227
vt 0.6137695 0.3032227
vt 0.6137695 0.3032227
vt 0.6137695 0.3032227
vt 0.6137695 0.3032227
vt 0.6137695 0.3032227
vt 0.6137695 0.3032227
vt 0.6137695 0.3032227
vt 0.6137695 0.3032227
vt 0.6137695 0.3032227
vt 0.6137695 0.3032227
vt 0.6137695 0.3032227
vt 0.6137695 0.3032227
vt 0.6137695 0.3032227
vt 0.6137695 0.3032227
vt 0.6137695 0.3032227
vt 0.6137695 0.3032227
vt 0.6137695 0.3032227
vt 0.6137695 0.3032227
vt 0.6137695 0.3032227
vt 0.6137695 0.3032227
vt 0.6137695 0.3032227
vt 0.6137695 0.3032227
vt 0.6137695 0.3032227
vt 0.6137695 0.3032227
vt 0.6137695 0.3032227
vt 0.6137695 0.3032227
vt 0.6137695 0.3032227
vt 0.6137695 0.3032227
vt 0.6137695 0.3032227
vt 0.6137695 0.3032227
vt 0.6137695 0.3032227
vt 0.6137695 0.3032227
vt 0.6137695 0.3032227
vt 0.6137695 0.3032227
vt 0.6137695 0.3032227
vt 0.6137695 0.3032227
vt 0.6137695 0.3032227
vt 0.6137695 0.3032227
vt 0.6137695 0.3032227
vt 0.6137695 0.3032227
vt 0.6137695 0.3032227
vt 0.6137695 0.3032227
vt 0.6137695 0.3032227
vt 0.6137695 0.3032227
vt 0.6137695 0.3032227
vt 0.6137695 0.3032227
vt 0.6137695 0.3032227
vt 0.6137695 0.3032227
vt 0.6137695 0.3032227
vt 0.6137695 0.3032227
vt 0.6137695 0.3032227
vt 0.6137695 0.3032227
vt 0.6137695 0.3032227
vt 0.6137695 0.3032227
vt 0.6137695 0.3032227
vt 0.6137695 0.3032227
vt 0.6137695 0.3032227
vt 0.6137695 0.3032227
vt 0.6137695 0.3032227
vt 0.6137695 0.3032227
vt 0.6137695 0.3032227
vt 0.6137695 0.3032227
vt 0.6137695 0.3032227
vt 0.6137695 0.3032227
vt 0.6137695 0.3032227
vt 0.6137695 0.3032227
vt 0.6137695 0.3032227
vt 0.6137695 0.3032227
vt 0.6137695 0.3032227
vt 0.6137695 0.3032227
vt 0.6137695 0.3032227
vt 0.6137695 0.3032227
vt 0.6137695 0.3032227
vt 0.6137695 0.3032227
vt 0.6137695 0.3032227
vt 0.6137695 0.3032227
vt 0.6137695 0.3032227
vt 0.6137695 0.3032227
vt 0.6137695 0.3032227
vt 0.6137695 0.3032227
vt 0.6137695 0.3032227
vt 0.6137695 0.3032227
vt 0.6137695 0.3032227
vt 0.6137695 0.3032227
vt 0.6137695 0.3032227
vt 0.6137695 0.3032227
vt 0.6137695 0.3032227
vt 0.6137695 0.3032227
vt 0.6137695 0.3032227
vt 0.6137695 0.3032227
vt 0.6137695 0.3032227
vt 0.6137695 0.3032227
vt 0.6137695 0.3032227
vt 0.6137695 0.3032227
vt 0.9179688 0.2047119
vt 0.9179688 0.2047119
vt 0.9179688 0.2047119
vt 0.9179688 0.2047119
vt 0.9179688 0.2047119
vt 0.9179688 0.2047119
vt 0.9179688 0.2047119
vt 0.9179688 0.2047119
vt 0.9179688 0.2047119
vt 0.9179688 0.2047119
vt 0.9179688 0.2047119
vt 0.9179688 0.2047119
vt 0.9179688 0.2047119
vt 0.9179688 0.2047119
vt 0.9179688 0.2047119
vt 0.9179688 0.2047119
vt 0.4921875 0.2512207
vt 0.4921875 0.2512207
vt 0.4921875 0.2512207
vt 0.4921875 0.2512207
vt 0.4921875 0.2512207
vt 0.4921875 0.2512207
vt 0.4921875 0.2512207
vt 0.4921875 0.2512207
vt 0.4921875 0.2512207
vt 0.4921875 0.2512207
vt 0.4921875 0.2512207
vt 0.4921875 0.2512207
vt 0.4921875 0.2512207
vt 0.4921875 0.2512207
vt 0.6137695 0.3032227
vt 0.6137695 0.3032227
vt 0.6137695 0.3032227
vt 0.6137695 0.3032227
vt 0.6137695 0.3032227
vt 0.6137695 0.3032227
vt 0.6137695 0.3032227
vt 0.6137695 0.3032227
vt 0.6137695 0.3032227
vt 0.6137695 0.3032227
vt 0.9179688 0.2047119
vt 0.9179688 0.2047119
vt 0.9179688 0.2047119
vt 0.9179688 0.2047119
vt 0.4921875 0.2512207
vt 0.4921875 0.2512207
vt 0.4921875 0.2512207
vt 0.4921875 0.2512207
vt 0.4921875 0.2512207
vt 0.4921875 0.2512207
vt 0.4921875 0.2512207
vt 0.4921875 0.2512207
vt 0.4921875 0.2512207
vt 0.4921875 0.2512207
vt 0.9179688 0.2047119
vt 0.9179688 0.2047119
vt 0.9179688 0.2047119
vt 0.9179688 0.2047119
vt 0.6137695 0.3032227
vt 0.6137695 0.3032227
vt 0.6137695 0.3032227
vt 0.6137695 0.3032227
vt 0.6137695 0.3032227
vt 0.6137695 0.3032227
vt 0.6137695 0.3032227
vt 0.6137695 0.3032227
vt 0.6137695 0.3032227
vt 0.6137695 0.3032227
vt 0.6137695 0.3032227
vt 0.6137695 0.3032227
vt 0.6137695 0.3032227
vt 0.6137695 0.3032227
vt 0.6137695 0.3032227
vt 0.6137695 0.3032227
vt 0.6137695 0.3032227
vt 0.6137695 0.3032227
vt 0.6137695 0.3032227
vt 0.6137695 0.3032227
vt 0.6137695 0.3032227
vt 0.6137695 0.3032227
vt 0.9023438 0.2023926
vt 0.9023438 0.2023926
vt 0.9023438 0.2023926
vt 0.9023438 0.2023926
vt 0.9023438 0.2023926
vt 0.9023438 0.2023926
vt 0.9023438 0.2023926
vt 0.9023438 0.2023926
vt 0.9023438 0.2023926
vt 0.9023438 0.2023926
vt 0.9023438 0.2023926
vt 0.9023438 0.2023926
vt 0.9023438 0.2023926
vt 0.9023438 0.2023926
vt 0.9023438 0.2023926
vt 0.9023438 0.2023926
vt 0.9023438 0.2023926
vt 0.9023438 0.2023926
vt 0.9023438 0.2023926
vt 0.9023438 0.2023926
vt 0.9023438 0.2023926
vt 0.9023438 0.2023926
vt 0.9023438 0.2023926
vt 0.9023438 0.2023926
vt 0.9023438 0.2023926
vt 0.9023438 0.2023926
vt 0.9023438 0.2023926
vt 0.9023438 0.2023926
vt 0.9023438 0.2023926
vt 0.9023438 0.2023926
vt 0.9023438 0.2023926
vt 0.9023438 0.2023926
vt 0.9023438 0.2023926
vt 0.9023438 0.2023926
vt 0.9023438 0.2023926
vt 0.9023438 0.2023926
vt 0.9023438 0.2023926
vt 0.9023438 0.2023926
vt 0.9023438 0.2023926
vt 0.9023438 0.2023926
vt 0.9023438 0.2023926
vt 0.9023438 0.2023926
vt 0.9023438 0.2023926
vt 0.9023438 0.2023926
vt 0.9023438 0.2023926
vt 0.9023438 0.2023926
vt 0.9023438 0.2023926
vt 0.9023438 0.2023926
vt 0.9023438 0.2023926
vt 0.9023438 0.2023926
vt 0.9023438 0.2023926
vt 0.9023438 0.2023926
vt 0.9023438 0.2023926
vt 0.9023438 0.2023926
vt 0.9023438 0.2023926
vt 0.9023438 0.2023926
vn 0.9916992 -0.1088867 -0.06713867
vn 0.9916992 -0.1088867 -0.06713867
vn 0.9916992 -0.1088867 -0.06713867
vn 0.9916992 -0.1088867 -0.06713867
vn 0.9916992 -0.1088867 -0.06713867
vn 0.9916992 -0.1088867 -0.06713867
vn 0.9916992 -0.1088867 -0.06713867
vn 0.9916992 -0.1088867 -0.06713867
vn -0.472168 0.6420898 0.6040039
vn -0.472168 0.6420898 0.6040039
vn -0.486084 0.8735352 0.02362061
vn -0.5512695 0.6303711 -0.5463867
vn -0.6303711 0.05380249 -0.7744141
vn -0.6757813 -0.5161133 -0.5263672
vn -0.6621094 -0.7475586 0.05413818
vn -0.5966797 -0.5043945 0.6240234
vn 0.9916992 -0.1088867 -0.06713867
vn -0.9916992 0.1088867 0.06713867
vn -0.5966797 -0.5043945 0.6240234
vn -0.472168 0.6420898 0.6040039
vn -0.472168 0.6420898 0.6040039
vn -0.486084 0.8735352 0.02362061
vn -0.5512695 0.6303711 -0.5463867
vn -0.6303711 0.05380249 -0.7744141
vn -0.6757813 -0.5161133 -0.5263672
vn -0.6621094 -0.7475586 0.05413818
vn -0.02778625 -0.6958008 0.7177734
vn 0.1248779 0.7099609 0.6928711
vn 0.1248779 0.7099609 0.6928711
vn 0.02778625 0.6958008 -0.7177734
vn 0.02778625 0.6958008 -0.7177734
vn -0.1248779 -0.7099609 -0.6928711
vn -0.1248779 -0.7099609 -0.6928711
vn -0.1078491 -0.9941406 0.01870728
vn -0.6611328 -0.7504883 0
vn 0.6611328 0.7504883 0
vn 0.1078491 0.9941406 -0.01870728
vn -0.9155273 0.4018555 0
vn 0.9726563 0.22229 -0.06958008
vn 0.9726563 0.22229 -0.06958008
vn -0.388916 0.4873047 -0.7817383
vn -0.9018555 0.4279785 0.05734253
vn 0.9916992 -0.1088867 -0.06713867
vn 0.9916992 -0.1088867 -0.06713867
vn -0.4929199 0.03710938 -0.8691406
vn -0.9916992 0.1088867 0.06713867
vn 0.1078491 0.9941406 -0.01872253
vn 0.1078491 0.9941406 -0.01870728
vn 0.1078491 0.9941406 -0.01872253
vn 0.1078491 0.9941406 -0.01872253
vn 0.9838867 -0.1654053 -0.065979
vn 0.9838867 -0.1654053 -0.065979
vn -0.4985352 -0.02470398 -0.8666992
vn -0.9960938 0.05203247 0.06811523
vn 0.1078491 0.9941406 -0.01870728
vn 0.1078491 0.9941406 -0.01870728
vn 0.1078491 0.9941406 -0.01870728
vn 0.1078491 0.9941406 -0.01872253
vn 0.9672852 -0.2446289 -0.06396484
vn 0.9672852 -0.2446289 -0.06396484
vn 0.1078491 0.9941406 -0.01872253
vn 0.1078491 0.9941406 -0.01872253
vn 0.02778625 0.6958008 -0.7177734
vn 0.1248779 0.7099609 0.6928711
vn 0.1078491 0.9941406 -0.01870728
vn -0.2854004 0.5605469 0.7773438
vn -0.3688965 0.05749512 0.9277344
vn 0.1078491 0.9941406 -0.01872253
vn -0.3747559 -0.004367828 0.9272461
vn 0.1078491 0.9941406 -0.01872253
vn 0.1078491 0.9941406 -0.01870728
vn 0.1078491 0.9941406 -0.01870728
vn 0.1078491 0.9941406 -0.01870728
vn -0.4985352 -0.02470398 -0.8666992
vn 0.1078491 0.9941406 -0.01872253
vn -0.4929199 0.03710938 -0.8691406
vn -0.3901367 0.5429688 -0.7436523
vn 0.1078491 0.9941406 -0.01870728
vn 0.06878662 0.01131439 0.9975586
vn 0.06878662 0.01131439 0.9975586
vn 0.06878662 0.01131439 0.9975586
vn 0.06878662 0.01131439 0.9975586
vn -0.06878662 -0.01131439 -0.9975586
vn -0.06878662 -0.01131439 -0.9975586
vn -0.06878662 -0.01131439 -0.9975586
vn -0.06878662 -0.01131439 -0.9975586
vn 0.9916992 -0.1088867 -0.06713867
vn 0.9916992 -0.1088867 -0.06713867
vn 0.1078491 0.9941406 -0.01870728
vn -0.9916992 0.1088867 0.06713867
vn 0.9916992 -0.1088867 -0.06713867
vn 0.9916992 -0.1088867 -0.06713867
vn -0.1078491 -0.9941406 0.01870728
vn -0.9916992 0.1088867 0.06713867
vn 0.06878662 0.01131439 0.9975586
vn 0.06878662 0.01131439 0.9975586
vn 0.06878662 0.01131439 0.9975586
vn 0.06878662 0.01131439 0.9975586
vn -0.06878662 -0.01131439 -0.9975586
vn -0.06878662 -0.01131439 -0.9975586
vn -0.06878662 -0.01131439 -0.9975586
vn -0.06878662 -0.01131439 -0.9975586
vn -0.486084 0.8735352 0.02362061
vn -0.486084 0.8735352 0.02362061
vn -0.5512695 0.6303711 -0.5463867
vn -0.5512695 0.6303711 -0.5463867
vn -0.6303711 0.05380249 -0.7744141
vn -0.6303711 0.05380249 -0.7744141
vn -0.6757813 -0.5161133 -0.5263672
vn -0.6757813 -0.5161133 -0.5263672
vn -0.6621094 -0.7475586 0.05413818
vn -0.6621094 -0.7475586 0.05413818
vn -0.5966797 -0.5043945 0.6240234
vn -0.5966797 -0.5043945 0.6240234
vn -0.5180664 0.07226563 0.8525391
vn -0.5180664 0.07226563 0.8525391
vn -0.5180664 0.07226563 0.8525391
vn -0.5180664 0.07226563 0.8525391
vn -0.9916992 0.1088867 0.06713867
vn -0.9916992 0.1088867 0.06713867
vn -0.9916992 0.1088867 0.06713867
vn -0.9916992 0.1088867 0.06713867
vn -0.9916992 0.1088867 0.06713867
vn -0.9916992 0.1088867 0.06713867
vn -0.9916992 0.1088867 0.06713867
vn -0.9916992 0.1088867 0.06713867
vn 0.1248779 0.7099609 0.6928711
vn 0.1248779 0.7099609 0.6928711
vn 0.02778625 0.6958008 -0.7177734
vn 0.02778625 0.6958008 -0.7177734
vn -0.1248779 -0.7099609 -0.6928711
vn -0.1248779 -0.7099609 -0.6928711
vn -0.1078491 -0.9941406 0.01870728
vn -0.1078491 -0.9941406 0.01870728
vn -0.1078491 -0.9941406 0.01870728
vn -0.02778625 -0.6958008 0.7177734
vn -0.02778625 -0.6958008 0.7177734
vn -0.02778625 -0.6958008 0.7177734
vn 0.6391602 -0.05493164 0.7670898
vn 0.6391602 -0.05493164 0.7670898
vn 0.6391602 -0.05493164 0.7670898
vn 0.6391602 -0.05493164 0.7670898
vn 0.6845703 0.5097656 0.5209961
vn 0.6845703 0.5097656 0.5209961
vn 0.6845703 0.5097656 0.5209961
vn 0.6845703 0.5097656 0.5209961
vn 0.6708984 0.7392578 -0.05465698
vn 0.6708984 0.7392578 -0.05465698
vn 0.6708984 0.7392578 -0.05465698
vn 0.6708984 0.7392578 -0.05465698
vn 0.6064453 0.498291 -0.6196289
vn 0.6064453 0.498291 -0.6196289
vn 0.6064453 0.498291 -0.6196289
vn 0.6064453 0.498291 -0.6196289
vn 0.5283203 -0.07324219 -0.8461914
vn 0.5283203 -0.07324219 -0.8461914
vn 0.5283203 -0.07324219 -0.8461914
vn 0.5283203 -0.07324219 -0.8461914
vn 0.4829102 -0.6381836 -0.5996094
vn 0.4829102 -0.6381836 -0.5996094
vn 0.4829102 -0.6381836 -0.5996094
vn 0.4829102 -0.6381836 -0.5996094
vn 0.496582 -0.8676758 -0.0243988
vn 0.496582 -0.8676758 -0.0243988
vn 0.496582 -0.8676758 -0.0243988
vn 0.496582 -0.8676758 -0.0243988
vn 0.5615234 -0.6264648 0.5405273
vn 0.5615234 -0.6264648 0.5405273
vn 0.5615234 -0.6264648 0.5405273
vn 0.5615234 -0.6264648 0.5405273
vn -0.6611328 -0.7504883 0
vn -0.6611328 -0.7504883 0
vn 0.6611328 0.7504883 0
vn 0.6611328 0.7504883 0
vn 0.1078491 0.9941406 -0.01870728
vn 0.1078491 0.9941406 -0.01870728
vn 0.5 0.8662109 0
vn 0.5 0.8662109 0
vn 0.5 0.8662109 0
vn -0.9155273 0.4018555 0
vn -0.9155273 0.4018555 0
vn 0.1078491 0.9941406 -0.01870728
vn 0.1078491 0.9941406 -0.01870728
vn 0.1078491 0.9941406 -0.01870728
vn 0.9726563 0.22229 -0.06958008
vn 0.9726563 0.22229 -0.06958008
vn -0.3901367 0.5429688 -0.7436523
vn -0.3901367 0.5429688 -0.7436523
vn -0.388916 0.4873047 -0.7817383
vn -0.388916 0.4873047 -0.7817383
vn -0.9018555 0.4279785 0.05734253
vn -0.9018555 0.4279785 0.05734253
vn -0.9018555 0.4279785 0.05734253
vn -0.2854004 0.5605469 0.7773438
vn -0.2854004 0.5605469 0.7773438
vn -0.2788086 0.5053711 0.8164063
vn -0.2788086 0.5053711 0.8164063
vn -0.2788086 0.5053711 0.8164063
vn 0.9916992 -0.1088867 -0.06713867
vn 0.9916992 -0.1088867 -0.06713867
vn -0.4929199 0.03710938 -0.8691406
vn -0.4929199 0.03710938 -0.8691406
vn -0.9916992 0.1088867 0.06713867
vn -0.9916992 0.1088867 0.06713867
vn -0.9916992 0.1088867 0.06713867
vn -0.3688965 0.05749512 0.9277344
vn -0.3688965 0.05749512 0.9277344
vn -0.3688965 0.05749512 0.9277344
vn 0.1078491 0.9941406 -0.01872253
vn 0.1078491 0.9941406 -0.01870728
vn 0.1078491 0.9941406 -0.01872253
vn 0.1078491 0.9941406 -0.01870728
vn 0.1078491 0.9941406 -0.01870728
vn 0.1078491 0.9941406 -0.01872253
vn 0.9838867 -0.1654053 -0.065979
vn 0.9838867 -0.1654053 -0.065979
vn -0.4985352 -0.02470398 -0.8666992
vn -0.4985352 -0.02470398 -0.8666992
vn -0.9960938 0.05203247 0.06811523
vn -0.9960938 0.05203247 0.06811523
vn -0.9960938 0.05203247 0.06811523
vn -0.3747559 -0.004367828 0.9272461
vn -0.3747559 -0.004367828 0.9272461
vn -0.3747559 -0.004371643 0.9272461
vn 0.1078491 0.9941406 -0.01870728
vn 0.1078491 0.9941406 -0.01870728
vn 0.1078491 0.9941406 -0.01870728
vn 0.1078491 0.9941406 -0.01870728
vn 0.1078491 0.9941406 -0.01870728
vn 0.1078491 0.9941406 -0.01872253
vn 0.9672852 -0.2446289 -0.06396484
vn 0.9672852 -0.2446289 -0.06396484
vn -0.503418 -0.1121826 -0.8569336
vn -0.503418 -0.1121216 -0.8569336
vn -0.503418 -0.1121216 -0.8569336
vn -0.503418 -0.1121216 -0.8569336
vn -0.9970703 -0.02897644 0.0690918
vn -0.9970703 -0.0289917 0.0690918
vn -0.9970703 -0.0289917 0.0690918
vn -0.9970703 -0.0289917 0.0690918
vn -0.3808594 -0.09197998 0.9199219
vn -0.3808594 -0.09197998 0.9199219
vn -0.3808594 -0.09197998 0.9199219
vn -0.3808594 -0.09197998 0.9199219
vn 0.5004883 0.4741211 0.7241211
vn 0.5004883 0.4741211 0.7241211
vn 0.5004883 0.4741211 0.7241211
vn 0.4875488 0.4213867 0.7646484
vn 0.4875488 0.4213867 0.7646484
vn 0.4875488 0.4213867 0.7646484
vn 0.4929199 -0.03710938 0.8691406
vn 0.4929199 -0.03710938 0.8691406
vn 0.4929199 -0.03710938 0.8691406
vn 0.4929199 -0.03710938 0.8691406
vn 0.4851074 -0.09875488 0.8686523
vn 0.4851074 -0.09875488 0.8686523
vn 0.4851074 -0.09875488 0.8686523
vn 0.4851074 -0.09881592 0.8686523
vn 0.4711914 -0.1855469 0.8623047
vn 0.4711914 -0.1855469 0.8623047
vn 0.4711914 -0.1855469 0.8623047
vn 0.4711914 -0.1855469 0.8623047
vn 0.1078491 0.9941406 -0.01870728
vn 0.1078491 0.9941406 -0.01870728
vn 0.3486328 -0.2056885 -0.9145508
vn 0.3486328 -0.2056885 -0.9145508
vn 0.3486328 -0.2056885 -0.9145508
vn 0.3486328 -0.2056885 -0.9145508
vn 0.3615723 -0.1191406 -0.9248047
vn 0.3615723 -0.1191406 -0.9248047
vn 0.3615723 -0.1191406 -0.9248047
vn 0.3615723 -0.1191406 -0.9248047
vn 0.3688965 -0.05749512 -0.9277344
vn 0.3688965 -0.05749512 -0.9277344
vn 0.3688965 -0.05749512 -0.9277344
vn 0.3688965 -0.05749512 -0.9277344
vn 0.395752 0.4567871 -0.796875
vn 0.395752 0.4567871 -0.796875
vn 0.395752 0.4567871 -0.796875
vn 0.3774414 0.4033203 -0.8334961
vn 0.3774414 0.4033203 -0.8334961
vn 0.3774414 0.4033203 -0.8334961
vn 0.1078491 0.9941406 -0.01870728
vn 0.1078491 0.9941406 -0.01870728
vn 0.1078491 0.9941406 -0.01870728
vn 0.1078491 0.9941406 -0.01870728
vn 0.06878662 0.01131439 0.9975586
vn 0.06878662 0.01131439 0.9975586
vn 0.06878662 0.01131439 0.9975586
vn 0.06878662 0.01131439 0.9975586
vn -0.06878662 -0.01131439 -0.9975586
vn -0.06878662 -0.01131439 -0.9975586
vn -0.06878662 -0.01131439 -0.9975586
vn -0.06878662 -0.01131439 -0.9975586
vn 0.9916992 -0.1088867 -0.06713867
vn 0.9916992 -0.1088867 -0.06713867
vn 0.1078491 0.9941406 -0.01872253
vn 0.1078491 0.9941406 -0.01870728
vn 0.1078491 0.9941406 -0.01870728
vn -0.9916992 0.1088867 0.06713867
vn -0.9916992 0.1088867 0.06713867
vn -0.9916992 0.1088867 0.06713867
vn -0.1078491 -0.9941406 0.01872253
vn -0.1078491 -0.9941406 0.01870728
vn -0.1078491 -0.9941406 0.01870728
vn -0.1078491 -0.9941406 0.01870728
vn 0.9916992 -0.1088867 -0.06713867
vn 0.9916992 -0.1088867 -0.06713867
vn -0.1078491 -0.9941406 0.01870728
vn -0.1078491 -0.9941406 0.01870728
vn -0.1078491 -0.9941406 0.01870728
vn -0.9916992 0.1088867 0.06713867
vn -0.9916992 0.1088867 0.06713867
vn -0.9916992 0.1088867 0.06713867
vn 0.1078491 0.9941406 -0.01872253
vn 0.1078491 0.9941406 -0.01870728
vn 0.1078491 0.9941406 -0.01870728
vn 0.1078491 0.9941406 -0.01869202
vn 0.8129883 -0.07733154 0.5771484
vn 0.8129883 -0.07733154 0.5771484
vn 0.8129883 -0.07733154 0.5771484
vn 0.8129883 -0.07733154 0.5771484
vn 0.1201782 0.6132813 0.7807617
vn 0.1201782 0.6132813 0.7807617
vn 0.1201782 0.6132813 0.7807617
vn 0.1201782 0.6132813 0.7807617
vn -0.7260742 0.09161377 0.6811523
vn -0.7260742 0.09161377 0.6811523
vn -0.7260742 0.09161377 0.6811523
vn -0.7260742 0.09161377 0.6811523
vn -0.01074219 -0.59375 0.8041992
vn -0.01073456 -0.59375 0.8041992
vn -0.01073456 -0.59375 0.8041992
vn -0.01073456 -0.59375 0.8041992
vn 0.7260742 -0.09161377 -0.6811523
vn 0.7260742 -0.09161377 -0.6811523
vn 0.7260742 -0.09161377 -0.6811523
vn 0.7260742 -0.09161377 -0.6811523
vn -0.1201782 -0.6132813 -0.7807617
vn -0.1201782 -0.6132813 -0.7807617
vn -0.1201782 -0.6132813 -0.7807617
vn -0.1201782 -0.6132813 -0.7807617
vn -0.8129883 0.07733154 -0.5771484
vn -0.8129883 0.07733154 -0.5771484
vn -0.8129883 0.07733154 -0.5771484
vn -0.8129883 0.07733154 -0.5771484
vn 0.01073456 0.59375 -0.8041992
vn 0.01073456 0.59375 -0.8041992
vn 0.01073456 0.59375 -0.8041992
vn 0.01073456 0.59375 -0.8041992
g Item_WaterCanteen_0
f 21/21/21 9/9/9 20/20/20
f 21/21/21 10/10/10 9/9/9
f 22/22/22 104/104/104 103/103/103
f 22/22/22 11/11/11 104/104/104
f 23/23/23 106/106/106 105/105/105
f 23/23/23 12/12/12 106/106/106
f 24/24/24 108/108/108 107/107/107
f 24/24/24 13/13/13 108/108/108
f 25/25/25 110/110/110 109/109/109
f 25/25/25 14/14/14 110/110/110
f 26/26/26 112/112/112 111/111/111
f 26/26/26 15/15/15 112/112/112
f 19/19/19 114/114/114 113/113/113
f 19/19/19 16/16/16 114/114/114
f 117/117/117 116/116/116 115/115/115
f 117/117/117 118/118/118 116/116/116
f 1/1/1 17/17/17 2/2/2
f 2/2/2 17/17/17 3/3/3
f 3/3/3 17/17/17 4/4/4
f 4/4/4 17/17/17 5/5/5
f 5/5/5 17/17/17 6/6/6
f 6/6/6 17/17/17 7/7/7
f 7/7/7 17/17/17 8/8/8
f 8/8/8 17/17/17 1/1/1
f 120/120/120 18/18/18 119/119/119
f 121/121/121 18/18/18 120/120/120
f 122/122/122 18/18/18 121/121/121
f 123/123/123 18/18/18 122/122/122
f 124/124/124 18/18/18 123/123/123
f 125/125/125 18/18/18 124/124/124
f 126/126/126 18/18/18 125/125/125
f 119/119/119 18/18/18 126/126/126
f 96/96/96 98/98/98 95/95/95
f 96/96/96 97/97/97 98/98/98
f 29/29/29 127/127/127 28/28/28
f 64/64/64 127/127/127 29/29/29
f 128/128/128 127/127/127 64/64/64
f 72/72/72 62/62/62 71/71/71
f 72/72/72 61/61/61 62/62/62
f 264/264/264 72/72/72 71/71/71
f 264/264/264 71/71/71 263/263/263
f 31/31/31 63/63/63 30/30/30
f 129/129/129 63/63/63 31/31/31
f 130/130/130 63/63/63 129/129/129
f 100/100/100 102/102/102 99/99/99
f 100/100/100 101/101/101 102/102/102
f 33/33/33 131/131/131 32/32/32
f 33/33/33 132/132/132 131/131/131
f 34/34/34 134/134/134 133/133/133
f 34/34/34 135/135/135 134/134/134
f 27/27/27 137/137/137 136/136/136
f 27/27/27 138/138/138 137/137/137
f 141/141/141 140/140/140 139/139/139
f 141/141/141 142/142/142 140/140/140
f 145/145/145 144/144/144 143/143/143
f 145/145/145 146/146/146 144/144/144
f 149/149/149 148/148/148 147/147/147
f 149/149/149 150/150/150 148/148/148
f 153/153/153 152/152/152 151/151/151
f 153/153/153 154/154/154 152/152/152
f 157/157/157 156/156/156 155/155/155
f 157/157/157 158/158/158 156/156/156
f 161/161/161 160/160/160 159/159/159
f 161/161/161 162/162/162 160/160/160
f 165/165/165 164/164/164 163/163/163
f 165/165/165 166/166/166 164/164/164
f 169/169/169 168/168/168 167/167/167
f 169/169/169 170/170/170 168/168/168
f 172/172/172 35/35/35 171/171/171
f 36/36/36 174/174/174 173/173/173
f 176/176/176 78/78/78 175/175/175
f 176/176/176 37/37/37 78/78/78
f 78/78/78 285/285/285 175/175/175
f 78/78/78 286/286/286 285/285/285
f 179/179/179 178/178/178 177/177/177
f 38/38/38 181/181/181 180/180/180
f 183/183/183 65/65/65 182/182/182
f 183/183/183 184/184/184 65/65/65
f 65/65/65 283/283/283 182/182/182
f 65/65/65 284/284/284 283/283/283
f 186/186/186 39/39/39 185/185/185
f 186/186/186 40/40/40 39/39/39
f 188/188/188 77/77/77 187/187/187
f 190/190/190 41/41/41 189/189/189
f 193/193/193 192/192/192 191/191/191
f 193/193/193 42/42/42 192/192/192
f 66/66/66 195/195/195 194/194/194
f 198/198/198 197/197/197 196/196/196
f 200/200/200 43/43/43 199/199/199
f 200/200/200 44/44/44 43/43/43
f 201/201/201 45/45/45 76/76/76
f 201/201/201 202/202/202 45/45/45
f 205/205/205 204/204/204 203/203/203
f 205/205/205 46/46/46 204/204/204
f 208/208/208 207/207/207 206/206/206
f 208/208/208 67/67/67 207/207/207
f 210/210/210 47/47/47 209/209/209
f 210/210/210 48/48/48 47/47/47
f 214/214/214 209/209/209 47/47/47
f 214/214/214 47/47/47 68/68/68
f 214/214/214 68/68/68 50/50/50
f 214/214/214 50/50/50 213/213/213
f 213/213/213 50/50/50 49/49/49
f 213/213/213 49/49/49 212/212/212
f 211/211/211 212/212/212 49/49/49
f 211/211/211 48/48/48 210/210/210
f 211/211/211 49/49/49 75/75/75
f 211/211/211 75/75/75 48/48/48
f 216/216/216 51/51/51 215/215/215
f 216/216/216 52/52/52 51/51/51
f 218/218/218 74/74/74 217/217/217
f 218/218/218 53/53/53 74/74/74
f 221/221/221 220/220/220 219/219/219
f 221/221/221 54/54/54 220/220/220
f 69/69/69 223/223/223 222/222/222
f 69/69/69 224/224/224 223/223/223
f 226/226/226 55/55/55 225/225/225
f 226/226/226 56/56/56 55/55/55
f 230/230/230 225/225/225 55/55/55
f 230/230/230 55/55/55 70/70/70
f 230/230/230 70/70/70 58/58/58
f 230/230/230 58/58/58 229/229/229
f 229/229/229 58/58/58 57/57/57
f 229/229/229 57/57/57 228/228/228
f 227/227/227 228/228/228 57/57/57
f 227/227/227 56/56/56 226/226/226
f 227/227/227 57/57/57 73/73/73
f 227/227/227 73/73/73 56/56/56
f 232/232/232 59/59/59 231/231/231
f 232/232/232 60/60/60 59/59/59
f 235/235/235 234/234/234 233/233/233
f 235/235/235 236/236/236 234/234/234
f 239/239/239 238/238/238 237/237/237
f 239/239/239 240/240/240 238/238/238
f 243/243/243 242/242/242 241/241/241
f 243/243/243 244/244/244 242/242/242
f 247/247/247 246/246/246 245/245/245
f 250/250/250 249/249/249 248/248/248
f 253/253/253 252/252/252 251/251/251
f 253/253/253 254/254/254 252/252/252
f 257/257/257 256/256/256 255/255/255
f 257/257/257 258/258/258 256/256/256
f 261/261/261 260/260/260 259/259/259
f 261/261/261 262/262/262 260/260/260
f 267/267/267 266/266/266 265/265/265
f 267/267/267 268/268/268 266/266/266
f 271/271/271 270/270/270 269/269/269
f 271/271/271 272/272/272 270/270/270
f 275/275/275 274/274/274 273/273/273
f 275/275/275 276/276/276 274/274/274
f 279/279/279 278/278/278 277/277/277
f 282/282/282 281/281/281 280/280/280
f 288/288/288 79/79/79 287/287/287
f 288/288/288 80/80/80 79/79/79
f 289/289/289 80/80/80 288/288/288
f 289/289/289 81/81/81 80/80/80
f 82/82/82 81/81/81 289/289/289
f 287/287/287 79/79/79 82/82/82
f 82/82/82 289/289/289 290/290/290
f 287/287/287 82/82/82 290/290/290
f 292/292/292 83/83/83 291/291/291
f 292/292/292 84/84/84 83/83/83
f 293/293/293 84/84/84 292/292/292
f 293/293/293 85/85/85 84/84/84
f 86/86/86 85/85/85 293/293/293
f 291/291/291 83/83/83 86/86/86
f 86/86/86 293/293/293 294/294/294
f 291/291/291 86/86/86 294/294/294
f 296/296/296 87/87/87 295/295/295
f 296/296/296 88/88/88 87/87/87
f 299/299/299 298/298/298 297/297/297
f 299/299/299 89/89/89 298/298/298
f 302/302/302 301/301/301 300/300/300
f 302/302/302 90/90/90 301/301/301
f 305/305/305 304/304/304 303/303/303
f 305/305/305 306/306/306 304/304/304
f 308/308/308 91/91/91 307/307/307
f 308/308/308 92/92/92 91/91/91
f 311/311/311 310/310/310 309/309/309
f 311/311/311 93/93/93 310/310/310
f 314/314/314 313/313/313 312/312/312
f 314/314/314 94/94/94 313/313/313
f 317/317/317 316/316/316 315/315/315
f 317/317/317 318/318/318 316/316/316
f 321/321/321 320/320/320 319/319/319
f 321/321/321 322/322/322 320/320/320
f 325/325/325 324/324/324 323/323/323
f 325/325/325 326/326/326 324/324/324
f 329/329/329 328/328/328 327/327/327
f 329/329/329 330/330/330 328/328/328
f 333/333/333 332/332/332 331/331/331
f 333/333/333 334/334/334 332/332/332
f 337/337/337 336/336/336 335/335/335
f 337/337/337 338/338/338 336/336/336
f 341/341/341 340/340/340 339/339/339
f 341/341/341 342/342/342 340/340/340
f 345/345/345 344/344/344 343/343/343
f 345/345/345 346/346/346 344/344/344
f 349/349/349 348/348/348 347/347/347
f 349/349/349 350/350/350 348/348/348
