g Item_WaterBladder_01
v -0.3630362 -10.06868 -9.900024
v -0.05245495 -14.21307 -7.718517
v -3.512309 2.824009 7.299527
v -3.822703 3.489765 9.320292
v -1.257785 3.123341 7.547204
v -1.568179 3.789097 9.56797
v 2.769395 -9.652798 -9.555899
v 3.079976 -13.79718 -7.374394
v 3.719399 -7.528957 -8.709267
v -1.986587 -8.286541 -9.336119
v -1.653625 -14.36998 -5.014911
v 4.052367 -13.61241 -4.388059
v -3.169394 -11.66808 2.471361
v -3.456779 -4.026394 -4.148003
v 2.899148 -3.182529 -3.449749
v 3.186524 -10.82421 3.169613
v -2.808724 -9.594685 5.42736
v -2.868411 -4.724796 0.08521724
v 1.621541 -4.128681 0.5784764
v 1.681222 -8.998554 5.920619
v -2.631961 -7.641506 6.967358
v -2.960582 -3.256481 4.659176
v 0.3537416 -2.816448 5.023283
v 0.6823626 -7.201481 7.331464
v 3.844586 -4.626232 -6.729877
v -3.27546 -5.571552 -7.512074
v -2.909509 -13.82676 -0.8665104
v 4.21054 -12.88144 -0.08431244
v -3.202708 -4.096409 8.850014
v -3.332685 -1.055637 6.358223
v -0.2257147 -0.6431313 6.699551
v -0.0957365 -3.683895 9.191341
v 1.360585 -10.0884 -10.8856
v 1.022624 -7.634518 -10.77488
v 0.3843164 -4.568233 -8.670361
v -0.7462988 -3.443867 0.2623509
v -1.393233 -1.946194 4.341138
v -1.878469 0.05968857 6.333898
v -2.321401 2.83717 7.009049
v -2.803891 3.872066 10.15022
v -1.790828 -3.823856 10.22959
v -1.051761 -7.687778 8.171743
v -0.6005182 -9.731213 6.533854
v 0.08357143 -12.37493 3.501881
v 0.7906408 -14.64389 -0.1921539
v 1.398496 -15.27402 -4.963644
v 1.693757 -14.69847 -8.34693
v -2.30339 2.997654 6.651096
v -2.869403 4.211712 10.33611
v -1.419742 4.114384 9.65304
v -1.055617 3.333363 7.282423
v -3.700469 2.982212 6.991863
v -4.064609 3.763241 9.362488
v -2.389632 3.905758 6.338663
v -2.955646 5.119823 10.02368
v -1.505992 5.022488 9.340614
v -1.14186 4.241467 6.969989
v -3.786719 3.890316 6.67943
v -4.150851 4.671337 9.050055
v -2.486548 4.439373 6.57597
v -2.936433 5.404339 9.504896
v -1.784217 5.326977 8.96198
v -1.4948 4.706211 7.077769
v -3.596988 4.427105 6.846827
v -3.886397 5.047878 8.731037
v -2.479117 4.703213 6.189437
v -3.010613 5.84322 9.64967
v -1.649371 5.751827 9.008255
v -1.307456 5.018459 6.78225
v -3.790977 4.688717 6.509414
v -4.132892 5.4221 8.735419
v -2.556769 5.520824 5.908138
v -3.088254 6.660824 9.36837
v -1.727027 6.569439 8.726972
v -1.385104 5.836056 6.500951
v -3.868627 5.506329 6.228115
v -4.21054 6.239697 8.454136
v -2.665845 6.094936 6.20724
v -3.060306 6.941013 8.775348
v -2.050036 6.873188 8.299316
v -1.796273 6.328892 6.647219
v -3.639482 6.084171 6.444726
v -3.893252 6.628468 8.096823
v -2.733361 6.239735 6.646773
v -2.992797 6.796215 8.335823
v -2.328338 6.751598 8.022736
v -2.161439 6.393612 6.936147
v -3.373727 6.232662 6.802967
v -3.540626 6.590649 7.889554
v -2.824035 7.100506 6.431913
v -3.061053 7.608868 7.974953
v -2.454022 7.568119 7.688924
v -2.301547 7.24107 6.696263
v -3.409038 7.094036 6.574596
v -3.561513 7.421078 7.567257
v -0.8471556 1.308544 7.652143
v -2.130534 1.349415 7.069609
v -3.453631 0.9624901 7.365799
v -3.694692 0.6852989 9.89501
v -2.536416 1.248959 10.8856
v -1.088206 1.031345 10.18135
v -1.615445 -2.853992 -4.888379
v -0.4303045 -2.43082 -3.838363
v 1.019673 -2.504131 -4.598888
v -0.02296352 -3.07864 -6.76332
v 0.6847792 -1.147434 -4.767676
v -0.3283606 -1.139355 -6.327041
v -0.5230932 -1.369205 -4.276727
v -1.613721 -1.452595 -5.020187
v 0.1161642 -1.198467 -5.078454
v -0.3814268 -1.201992 -5.768288
v -0.4952593 -1.336353 -4.569783
v -0.998435 -1.346455 -5.200903
v -2.758985 14.85218 1.695058
v -3.346185 15.27402 1.306759
v -3.273479 14.14279 2.01214
v -3.883105 14.71888 1.641568
v -2.61737 7.336506 7.278294
v -2.994536 7.439098 7.574657
v -2.888286 7.162121 6.942282
v -3.260243 7.251156 7.207669
v -3.46219 15.02951 2.658246
v -3.936082 14.54654 2.53074
v -2.863877 14.6889 2.64853
v 4.21054 -12.88144 -0.08431244
v 0.08357143 -12.37493 3.501881
v 3.186524 -10.82421 3.169613
v 4.21054 -12.88144 -0.08431244
v 1.360585 -10.0884 -10.8856
v 2.769395 -9.652798 -9.555899
v 2.769395 -9.652798 -9.555899
v 1.022624 -7.634518 -10.77488
v -1.986587 -8.286541 -9.336119
v -0.05245495 -14.21307 -7.718517
v 1.693757 -14.69847 -8.34693
v 3.079976 -13.79718 -7.374394
v 1.398496 -15.27402 -4.963644
v 3.079976 -13.79718 -7.374394
v 4.052367 -13.61241 -4.388059
v 3.719399 -7.528957 -8.709267
v 3.079976 -13.79718 -7.374394
v 3.719399 -7.528957 -8.709267
v 2.769395 -9.652798 -9.555899
v 3.079976 -13.79718 -7.374394
v -3.456779 -4.026394 -4.148003
v -3.169394 -11.66808 2.471361
v -2.868411 -4.724796 0.08521724
v -3.169394 -11.66808 2.471361
v 3.186524 -10.82421 3.169613
v 1.621541 -4.128681 0.5784764
v 2.899148 -3.182529 -3.449749
v 3.186524 -10.82421 3.169613
v 1.681222 -8.998554 5.920619
v 0.08357143 -12.37493 3.501881
v 3.186524 -10.82421 3.169613
v -2.868411 -4.724796 0.08521724
v -2.808724 -9.594685 5.42736
v -2.960582 -3.256481 4.659176
v -2.808724 -9.594685 5.42736
v 1.621541 -4.128681 0.5784764
v 0.3537416 -2.816448 5.023283
v -0.7462988 -3.443867 0.2623509
v 0.3537416 -2.816448 5.023283
v 1.681222 -8.998554 5.920619
v 0.3537416 -2.816448 5.023283
v 1.621541 -4.128681 0.5784764
v 1.681222 -8.998554 5.920619
v 0.6823626 -7.201481 7.331464
v -0.6005182 -9.731213 6.533854
v 0.6823626 -7.201481 7.331464
v 1.681222 -8.998554 5.920619
v -0.6005182 -9.731213 6.533854
v -2.631961 -7.641506 6.967358
v -2.960582 -3.256481 4.659176
v 0.3537416 -2.816448 5.023283
v -1.393233 -1.946194 4.341138
v -0.2257147 -0.6431313 6.699551
v -1.393233 -1.946194 4.341138
v -0.2257147 -0.6431313 6.699551
v 0.3537416 -2.816448 5.023283
v 0.6823626 -7.201481 7.331464
v -0.0957365 -3.683895 9.191341
v -1.051761 -7.687778 8.171743
v 0.6823626 -7.201481 7.331464
v 1.022624 -7.634518 -10.77488
v 3.719399 -7.528957 -8.709267
v 3.719399 -7.528957 -8.709267
v 3.844586 -4.626232 -6.729877
v 0.3843164 -4.568233 -8.670361
v -1.986587 -8.286541 -9.336119
v -3.27546 -5.571552 -7.512074
v -1.653625 -14.36998 -5.014911
v -2.909509 -13.82676 -0.8665104
v 1.398496 -15.27402 -4.963644
v 0.7906408 -14.64389 -0.1921539
v 4.052367 -13.61241 -4.388059
v 0.7906408 -14.64389 -0.1921539
v 4.21054 -12.88144 -0.08431244
v 4.052367 -13.61241 -4.388059
v 4.21054 -12.88144 -0.08431244
v 3.844586 -4.626232 -6.729877
v 4.052367 -13.61241 -4.388059
v 3.719399 -7.528957 -8.709267
v -3.453631 0.9624901 7.365799
v -3.822703 3.489765 9.320292
v -1.257785 3.123341 7.547204
v -0.8471556 1.308544 7.652143
v -0.8471556 1.308544 7.652143
v -1.568179 3.789097 9.56797
v -1.568179 3.789097 9.56797
v -1.088206 1.031345 10.18135
v 1.360585 -10.0884 -10.8856
v 1.022624 -7.634518 -10.77488
v -0.3630362 -10.06868 -9.900024
v 1.022624 -7.634518 -10.77488
v -1.986587 -8.286541 -9.336119
v -0.3630362 -10.06868 -9.900024
v 1.022624 -7.634518 -10.77488
v 0.3843164 -4.568233 -8.670361
v -1.986587 -8.286541 -9.336119
v 0.3843164 -4.568233 -8.670361
v -3.27546 -5.571552 -7.512074
v -1.986587 -8.286541 -9.336119
v -1.393233 -1.946194 4.341138
v -2.960582 -3.256481 4.659176
v -0.7462988 -3.443867 0.2623509
v -2.960582 -3.256481 4.659176
v -2.868411 -4.724796 0.08521724
v -0.7462988 -3.443867 0.2623509
v -1.878469 0.05968857 6.333898
v -3.332685 -1.055637 6.358223
v -1.393233 -1.946194 4.341138
v -3.332685 -1.055637 6.358223
v -2.960582 -3.256481 4.659176
v -1.393233 -1.946194 4.341138
v -2.321401 2.83717 7.009049
v -3.512309 2.824009 7.299527
v -2.130534 1.349415 7.069609
v -3.453631 0.9624901 7.365799
v -3.694692 0.6852989 9.89501
v -3.822703 3.489765 9.320292
v -2.536416 1.248959 10.8856
v -2.803891 3.872066 10.15022
v -2.631961 -7.641506 6.967358
v -3.202708 -4.096409 8.850014
v -1.051761 -7.687778 8.171743
v -1.790828 -3.823856 10.22959
v -2.808724 -9.594685 5.42736
v -2.631961 -7.641506 6.967358
v -0.6005182 -9.731213 6.533854
v -2.631961 -7.641506 6.967358
v -1.051761 -7.687778 8.171743
v -0.6005182 -9.731213 6.533854
v -3.169394 -11.66808 2.471361
v -2.808724 -9.594685 5.42736
v 0.08357143 -12.37493 3.501881
v -0.6005182 -9.731213 6.533854
v 0.7906408 -14.64389 -0.1921539
v -2.909509 -13.82676 -0.8665104
v 0.08357143 -12.37493 3.501881
v -2.909509 -13.82676 -0.8665104
v -3.169394 -11.66808 2.471361
v 0.08357143 -12.37493 3.501881
v 1.398496 -15.27402 -4.963644
v -1.653625 -14.36998 -5.014911
v 0.7906408 -14.64389 -0.1921539
v -1.653625 -14.36998 -5.014911
v -2.909509 -13.82676 -0.8665104
v 0.7906408 -14.64389 -0.1921539
v 1.693757 -14.69847 -8.34693
v -0.05245495 -14.21307 -7.718517
v 1.398496 -15.27402 -4.963644
v -0.05245495 -14.21307 -7.718517
v -1.653625 -14.36998 -5.014911
v 1.398496 -15.27402 -4.963644
v 1.360585 -10.0884 -10.8856
v -0.3630362 -10.06868 -9.900024
v 1.693757 -14.69847 -8.34693
v -0.05245495 -14.21307 -7.718517
v -1.568179 3.789097 9.56797
v -2.803891 3.872066 10.15022
v -1.568179 3.789097 9.56797
v -1.419742 4.114384 9.65304
v -1.257785 3.123341 7.547204
v -2.321401 2.83717 7.009049
v -1.257785 3.123341 7.547204
v -1.055617 3.333363 7.282423
v -3.822703 3.489765 9.320292
v -3.512309 2.824009 7.299527
v -3.822703 3.489765 9.320292
v -4.064609 3.763241 9.362488
v -2.803891 3.872066 10.15022
v -2.869403 4.211712 10.33611
v -2.321401 2.83717 7.009049
v -2.30339 2.997654 6.651096
v -3.512309 2.824009 7.299527
v -3.700469 2.982212 6.991863
v -2.869403 4.211712 10.33611
v -1.419742 4.114384 9.65304
v -1.419742 4.114384 9.65304
v -1.505992 5.022488 9.340614
v -1.055617 3.333363 7.282423
v -1.055617 3.333363 7.282423
v -1.14186 4.241467 6.969989
v -2.30339 2.997654 6.651096
v -3.700469 2.982212 6.991863
v -4.064609 3.763241 9.362488
v -4.064609 3.763241 9.362488
v -4.150851 4.671337 9.050055
v -2.869403 4.211712 10.33611
v -2.955646 5.119823 10.02368
v -2.30339 2.997654 6.651096
v -2.389632 3.905758 6.338663
v -3.700469 2.982212 6.991863
v -3.786719 3.890316 6.67943
v -2.955646 5.119823 10.02368
v -1.505992 5.022488 9.340614
v -1.14186 4.241467 6.969989
v -1.505992 5.022488 9.340614
v -1.784217 5.326977 8.96198
v -1.14186 4.241467 6.969989
v -1.4948 4.706211 7.077769
v -2.389632 3.905758 6.338663
v -3.786719 3.890316 6.67943
v -4.150851 4.671337 9.050055
v -2.955646 5.119823 10.02368
v -4.150851 4.671337 9.050055
v -2.936433 5.404339 9.504896
v -3.886397 5.047878 8.731037
v -3.786719 3.890316 6.67943
v -2.389632 3.905758 6.338663
v -3.596988 4.427105 6.846827
v -2.486548 4.439373 6.57597
v -1.784217 5.326977 8.96198
v -2.936433 5.404339 9.504896
v -1.784217 5.326977 8.96198
v -1.649371 5.751827 9.008255
v -1.4948 4.706211 7.077769
v -2.486548 4.439373 6.57597
v -1.4948 4.706211 7.077769
v -1.307456 5.018459 6.78225
v -3.886397 5.047878 8.731037
v -3.596988 4.427105 6.846827
v -3.886397 5.047878 8.731037
v -4.132892 5.4221 8.735419
v -2.936433 5.404339 9.504896
v -3.010613 5.84322 9.64967
v -2.486548 4.439373 6.57597
v -2.479117 4.703213 6.189437
v -3.596988 4.427105 6.846827
v -3.790977 4.688717 6.509414
v -3.010613 5.84322 9.64967
v -1.649371 5.751827 9.008255
v -1.649371 5.751827 9.008255
v -1.727027 6.569439 8.726972
v -1.307456 5.018459 6.78225
v -1.307456 5.018459 6.78225
v -1.385104 5.836056 6.500951
v -2.479117 4.703213 6.189437
v -3.790977 4.688717 6.509414
v -4.132892 5.4221 8.735419
v -4.132892 5.4221 8.735419
v -4.21054 6.239697 8.454136
v -3.010613 5.84322 9.64967
v -3.088254 6.660824 9.36837
v -2.479117 4.703213 6.189437
v -2.556769 5.520824 5.908138
v -3.790977 4.688717 6.509414
v -3.868627 5.506329 6.228115
v -3.088254 6.660824 9.36837
v -1.727027 6.569439 8.726972
v -1.385104 5.836056 6.500951
v -1.727027 6.569439 8.726972
v -2.050036 6.873188 8.299316
v -1.385104 5.836056 6.500951
v -1.796273 6.328892 6.647219
v -2.556769 5.520824 5.908138
v -3.868627 5.506329 6.228115
v -4.21054 6.239697 8.454136
v -3.088254 6.660824 9.36837
v -4.21054 6.239697 8.454136
v -3.060306 6.941013 8.775348
v -3.893252 6.628468 8.096823
v -3.868627 5.506329 6.228115
v -2.556769 5.520824 5.908138
v -3.639482 6.084171 6.444726
v -2.665845 6.094936 6.20724
v -3.060306 6.941013 8.775348
v -2.050036 6.873188 8.299316
v -1.796273 6.328892 6.647219
v -2.665845 6.094936 6.20724
v -3.639482 6.084171 6.444726
v -3.893252 6.628468 8.096823
v -2.992797 6.796215 8.335823
v -3.061053 7.608868 7.974953
v -2.328338 6.751598 8.022736
v -2.454022 7.568119 7.688924
v -2.161439 6.393612 6.936147
v -2.328338 6.751598 8.022736
v -2.301547 7.24107 6.696263
v -2.454022 7.568119 7.688924
v -2.161439 6.393612 6.936147
v -2.301547 7.24107 6.696263
v -2.733361 6.239735 6.646773
v -2.824035 7.100506 6.431913
v -3.373727 6.232662 6.802967
v -3.409038 7.094036 6.574596
v -3.540626 6.590649 7.889554
v -3.561513 7.421078 7.567257
v -2.992797 6.796215 8.335823
v -3.540626 6.590649 7.889554
v -3.061053 7.608868 7.974953
v -3.561513 7.421078 7.567257
v -3.373727 6.232662 6.802967
v -2.733361 6.239735 6.646773
v -3.409038 7.094036 6.574596
v -2.824035 7.100506 6.431913
v -0.2257147 -0.6431313 6.699551
v -0.8471556 1.308544 7.652143
v -1.878469 0.05968857 6.333898
v -2.130534 1.349415 7.069609
v -2.130534 1.349415 7.069609
v -3.453631 0.9624901 7.365799
v -1.878469 0.05968857 6.333898
v -3.332685 -1.055637 6.358223
v -3.694692 0.6852989 9.89501
v -3.332685 -1.055637 6.358223
v -3.453631 0.9624901 7.365799
v -3.694692 0.6852989 9.89501
v -3.202708 -4.096409 8.850014
v -3.694692 0.6852989 9.89501
v -1.790828 -3.823856 10.22959
v -3.694692 0.6852989 9.89501
v -2.536416 1.248959 10.8856
v -1.790828 -3.823856 10.22959
v -2.536416 1.248959 10.8856
v -1.088206 1.031345 10.18135
v -1.790828 -3.823856 10.22959
v -1.088206 1.031345 10.18135
v -0.0957365 -3.683895 9.191341
v -1.790828 -3.823856 10.22959
v -0.8471556 1.308544 7.652143
v -0.2257147 -0.6431313 6.699551
v -1.088206 1.031345 10.18135
v -1.088206 1.031345 10.18135
v -0.7462988 -3.443867 0.2623509
v -2.868411 -4.724796 0.08521724
v -0.4303045 -2.43082 -3.838363
v -2.868411 -4.724796 0.08521724
v -3.456779 -4.026394 -4.148003
v -0.7462988 -3.443867 0.2623509
v -0.4303045 -2.43082 -3.838363
v 1.621541 -4.128681 0.5784764
v -0.4303045 -2.43082 -3.838363
v 1.621541 -4.128681 0.5784764
v 2.899148 -3.182529 -3.449749
v 0.3843164 -4.568233 -8.670361
v 3.844586 -4.626232 -6.729877
v -0.02296352 -3.07864 -6.76332
v 3.844586 -4.626232 -6.729877
v 1.019673 -2.504131 -4.598888
v 3.844586 -4.626232 -6.729877
v 2.899148 -3.182529 -3.449749
v 1.019673 -2.504131 -4.598888
v 0.3843164 -4.568233 -8.670361
v -0.02296352 -3.07864 -6.76332
v -3.27546 -5.571552 -7.512074
v -0.02296352 -3.07864 -6.76332
v -1.615445 -2.853992 -4.888379
v -3.27546 -5.571552 -7.512074
v -1.615445 -2.853992 -4.888379
v -3.456779 -4.026394 -4.148003
v -3.27546 -5.571552 -7.512074
v -0.02296352 -3.07864 -6.76332
v 1.019673 -2.504131 -4.598888
v 1.019673 -2.504131 -4.598888
v -0.3283606 -1.139355 -6.327041
v 1.019673 -2.504131 -4.598888
v -0.4303045 -2.43082 -3.838363
v 0.6847792 -1.147434 -4.767676
v -0.4303045 -2.43082 -3.838363
v 0.6847792 -1.147434 -4.767676
v -0.02296352 -3.07864 -6.76332
v -0.3283606 -1.139355 -6.327041
v -1.615445 -2.853992 -4.888379
v -0.3283606 -1.139355 -6.327041
v -1.615445 -2.853992 -4.888379
v -1.615445 -2.853992 -4.888379
v -1.613721 -1.452595 -5.020187
v -0.4303045 -2.43082 -3.838363
v -1.613721 -1.452595 -5.020187
v -0.5230932 -1.369205 -4.276727
v -0.4303045 -2.43082 -3.838363
v 0.6847792 -1.147434 -4.767676
v -0.3283606 -1.139355 -6.327041
v -0.5230932 -1.369205 -4.276727
v -1.613721 -1.452595 -5.020187
v 0.1161642 -1.198467 -5.078454
v -0.3814268 -1.201992 -5.768288
v -2.758985 14.85218 1.695058
v -0.3814268 -1.201992 -5.768288
v -0.4952593 -1.336353 -4.569783
v 0.1161642 -1.198467 -5.078454
v -2.758985 14.85218 1.695058
v -0.998435 -1.346455 -5.200903
v -0.3814268 -1.201992 -5.768288
v -3.346185 15.27402 1.306759
v -0.4952593 -1.336353 -4.569783
v -0.998435 -1.346455 -5.200903
v -3.273479 14.14279 2.01214
v -3.883105 14.71888 1.641568
v -2.994536 7.439098 7.574657
v -2.863877 14.6889 2.64853
v -2.61737 7.336506 7.278294
v -2.994536 7.439098 7.574657
v -2.863877 14.6889 2.64853
v -3.273479 14.14279 2.01214
v -2.61737 7.336506 7.278294
v -3.273479 14.14279 2.01214
v -2.888286 7.162121 6.942282
v -2.61737 7.336506 7.278294
v -3.46219 15.02951 2.658246
v -2.994536 7.439098 7.574657
v -2.994536 7.439098 7.574657
v -3.260243 7.251156 7.207669
v -3.936082 14.54654 2.53074
v -3.936082 14.54654 2.53074
v -3.260243 7.251156 7.207669
v -3.273479 14.14279 2.01214
v -3.260243 7.251156 7.207669
v -2.888286 7.162121 6.942282
v -3.273479 14.14279 2.01214
v -3.346185 15.27402 1.306759
v -3.46219 15.02951 2.658246
v -3.883105 14.71888 1.641568
v -3.936082 14.54654 2.53074
v -3.883105 14.71888 1.641568
v -3.936082 14.54654 2.53074
v -3.273479 14.14279 2.01214
v -3.273479 14.14279 2.01214
v -2.863877 14.6889 2.64853
v -2.758985 14.85218 1.695058
v -3.346185 15.27402 1.306759
v -2.758985 14.85218 1.695058
v -3.46219 15.02951 2.658246
v -2.863877 14.6889 2.64853
vt 0.6152344 0.3496094
vt 0.6152344 0.3496094
vt 0.6152344 0.3496094
vt 0.6152344 0.3496094
vt 0.6152344 0.3496094
vt 0.6152344 0.3496094
vt 0.6152344 0.3496094
vt 0.6152344 0.3496094
vt 0.6152344 0.3496094
vt 0.6152344 0.3496094
vt 0.6152344 0.3496094
vt 0.6152344 0.3496094
vt 0.6152344 0.3496094
vt 0.6152344 0.3496094
vt 0.6152344 0.3496094
vt 0.6152344 0.3496094
vt 0.6152344 0.3496094
vt 0.6152344 0.3496094
vt 0.6152344 0.3496094
vt 0.6152344 0.3496094
vt 0.6152344 0.3496094
vt 0.6152344 0.3496094
vt 0.6152344 0.3496094
vt 0.6152344 0.3496094
vt 0.6152344 0.3496094
vt 0.6152344 0.3496094
vt 0.6152344 0.3496094
vt 0.6152344 0.3496094
vt 0.6152344 0.3496094
vt 0.6152344 0.3496094
vt 0.6152344 0.3496094
vt 0.6152344 0.3496094
vt 0.6152344 0.3496094
vt 0.6152344 0.3496094
vt 0.6152344 0.3496094
vt 0.6152344 0.3496094
vt 0.6152344 0.3496094
vt 0.6152344 0.3496094
vt 0.6152344 0.3496094
vt 0.6152344 0.3496094
vt 0.6152344 0.3496094
vt 0.6152344 0.3496094
vt 0.6152344 0.3496094
vt 0.6152344 0.3496094
vt 0.6152344 0.3496094
vt 0.6152344 0.3496094
vt 0.6152344 0.3496094
vt 0.4980469 0.1986084
vt 0.4980469 0.1986084
vt 0.4980469 0.1986084
vt 0.4980469 0.1986084
vt 0.4980469 0.1986084
vt 0.4980469 0.1986084
vt 0.4980469 0.1986084
vt 0.4980469 0.1986084
vt 0.4980469 0.1986084
vt 0.4980469 0.1986084
vt 0.4980469 0.1986084
vt 0.4980469 0.1986084
vt 0.4980469 0.1986084
vt 0.4980469 0.1986084
vt 0.4980469 0.1986084
vt 0.4980469 0.1986084
vt 0.4980469 0.1986084
vt 0.4980469 0.1986084
vt 0.4980469 0.1986084
vt 0.4980469 0.1986084
vt 0.4980469 0.1986084
vt 0.4980469 0.1986084
vt 0.4980469 0.1986084
vt 0.4980469 0.1986084
vt 0.4980469 0.1986084
vt 0.4980469 0.1986084
vt 0.4980469 0.1986084
vt 0.4980469 0.1986084
vt 0.4980469 0.1986084
vt 0.4980469 0.1986084
vt 0.4980469 0.1986084
vt 0.4980469 0.1986084
vt 0.4980469 0.1986084
vt 0.4980469 0.1986084
vt 0.4980469 0.1986084
vt 0.4980469 0.1986084
vt 0.4980469 0.1986084
vt 0.4980469 0.1986084
vt 0.4980469 0.1986084
vt 0.4980469 0.1986084
vt 0.4980469 0.1986084
vt 0.4980469 0.1986084
vt 0.4304199 0.1490479
vt 0.4304199 0.1490479
vt 0.4304199 0.1490479
vt 0.4304199 0.1490479
vt 0.4304199 0.1490479
vt 0.4304199 0.1490479
vt 0.6152344 0.3496094
vt 0.6152344 0.3496094
vt 0.6152344 0.3496094
vt 0.6152344 0.3496094
vt 0.6152344 0.3496094
vt 0.6152344 0.3496094
vt 0.6152344 0.3496094
vt 0.6152344 0.3496094
vt 0.6152344 0.3496094
vt 0.6152344 0.3496094
vt 0.4912109 0.157959
vt 0.4912109 0.157959
vt 0.4912109 0.157959
vt 0.4912109 0.157959
vt 0.4912109 0.157959
vt 0.4912109 0.157959
vt 0.4912109 0.157959
vt 0.4912109 0.157959
vt 0.4890137 0.1962891
vt 0.4890137 0.1962891
vt 0.4890137 0.1962891
vt 0.4890137 0.1962891
vt 0.4912109 0.157959
vt 0.4912109 0.157959
vt 0.4912109 0.157959
vt 0.4912109 0.157959
vt 0.4890137 0.1962891
vt 0.4890137 0.1962891
vt 0.4890137 0.1962891
vt 0.6152344 0.3496094
vt 0.6152344 0.3496094
vt 0.6152344 0.3496094
vt 0.6152344 0.3496094
vt 0.6152344 0.3496094
vt 0.6152344 0.3496094
vt 0.6152344 0.3496094
vt 0.6152344 0.3496094
vt 0.6152344 0.3496094
vt 0.6152344 0.3496094
vt 0.6152344 0.3496094
vt 0.6152344 0.3496094
vt 0.6152344 0.3496094
vt 0.6152344 0.3496094
vt 0.6152344 0.3496094
vt 0.6152344 0.3496094
vt 0.6152344 0.3496094
vt 0.6152344 0.3496094
vt 0.6152344 0.3496094
vt 0.6152344 0.3496094
vt 0.6152344 0.3496094
vt 0.6152344 0.3496094
vt 0.6152344 0.3496094
vt 0.6152344 0.3496094
vt 0.6152344 0.3496094
vt 0.6152344 0.3496094
vt 0.6152344 0.3496094
vt 0.6152344 0.3496094
vt 0.6152344 0.3496094
vt 0.6152344 0.3496094
vt 0.6152344 0.3496094
vt 0.6152344 0.3496094
vt 0.6152344 0.3496094
vt 0.6152344 0.3496094
vt 0.6152344 0.3496094
vt 0.6152344 0.3496094
vt 0.6152344 0.3496094
vt 0.6152344 0.3496094
vt 0.6152344 0.3496094
vt 0.6152344 0.3496094
vt 0.6152344 0.3496094
vt 0.6152344 0.3496094
vt 0.6152344 0.3496094
vt 0.6152344 0.3496094
vt 0.6152344 0.3496094
vt 0.6152344 0.3496094
vt 0.6152344 0.3496094
vt 0.6152344 0.3496094
vt 0.6152344 0.3496094
vt 0.6152344 0.3496094
vt 0.6152344 0.3496094
vt 0.6152344 0.3496094
vt 0.6152344 0.3496094
vt 0.6152344 0.3496094
vt 0.6152344 0.3496094
vt 0.6152344 0.3496094
vt 0.6152344 0.3496094
vt 0.6152344 0.3496094
vt 0.6152344 0.3496094
vt 0.6152344 0.3496094
vt 0.6152344 0.3496094
vt 0.6152344 0.3496094
vt 0.6152344 0.3496094
vt 0.6152344 0.3496094
vt 0.6152344 0.3496094
vt 0.6152344 0.3496094
vt 0.6152344 0.3496094
vt 0.6152344 0.3496094
vt 0.6152344 0.3496094
vt 0.6152344 0.3496094
vt 0.6152344 0.3496094
vt 0.6152344 0.3496094
vt 0.6152344 0.3496094
vt 0.6152344 0.3496094
vt 0.6152344 0.3496094
vt 0.6152344 0.3496094
vt 0.6152344 0.3496094
vt 0.6152344 0.3496094
vt 0.6152344 0.3496094
vt 0.6152344 0.3496094
vt 0.6152344 0.3496094
vt 0.6152344 0.3496094
vt 0.6152344 0.3496094
vt 0.6152344 0.3496094
vt 0.6152344 0.3496094
vt 0.6152344 0.3496094
vt 0.6152344 0.3496094
vt 0.6152344 0.3496094
vt 0.6152344 0.3496094
vt 0.6152344 0.3496094
vt 0.6152344 0.3496094
vt 0.6152344 0.3496094
vt 0.6152344 0.3496094
vt 0.6152344 0.3496094
vt 0.6152344 0.3496094
vt 0.6152344 0.3496094
vt 0.6152344 0.3496094
vt 0.6152344 0.3496094
vt 0.6152344 0.3496094
vt 0.6152344 0.3496094
vt 0.6152344 0.3496094
vt 0.6152344 0.3496094
vt 0.6152344 0.3496094
vt 0.6152344 0.3496094
vt 0.6152344 0.3496094
vt 0.6152344 0.3496094
vt 0.6152344 0.3496094
vt 0.6152344 0.3496094
vt 0.6152344 0.3496094
vt 0.6152344 0.3496094
vt 0.6152344 0.3496094
vt 0.6152344 0.3496094
vt 0.6152344 0.3496094
vt 0.6152344 0.3496094
vt 0.6152344 0.3496094
vt 0.6152344 0.3496094
vt 0.6152344 0.3496094
vt 0.6152344 0.3496094
vt 0.6152344 0.3496094
vt 0.6152344 0.3496094
vt 0.6152344 0.3496094
vt 0.6152344 0.3496094
vt 0.6152344 0.3496094
vt 0.6152344 0.3496094
vt 0.6152344 0.3496094
vt 0.6152344 0.3496094
vt 0.6152344 0.3496094
vt 0.6152344 0.3496094
vt 0.6152344 0.3496094
vt 0.6152344 0.3496094
vt 0.6152344 0.3496094
vt 0.6152344 0.3496094
vt 0.6152344 0.3496094
vt 0.6152344 0.3496094
vt 0.6152344 0.3496094
vt 0.6152344 0.3496094
vt 0.6152344 0.3496094
vt 0.6152344 0.3496094
vt 0.6152344 0.3496094
vt 0.6152344 0.3496094
vt 0.6152344 0.3496094
vt 0.6152344 0.3496094
vt 0.6152344 0.3496094
vt 0.6152344 0.3496094
vt 0.6152344 0.3496094
vt 0.6152344 0.3496094
vt 0.6152344 0.3496094
vt 0.6152344 0.3496094
vt 0.6152344 0.3496094
vt 0.6152344 0.3496094
vt 0.6152344 0.3496094
vt 0.6152344 0.3496094
vt 0.6152344 0.3496094
vt 0.6152344 0.3496094
vt 0.6152344 0.3496094
vt 0.4980469 0.1986084
vt 0.4980469 0.1986084
vt 0.4980469 0.1986084
vt 0.4980469 0.1986084
vt 0.4980469 0.1986084
vt 0.4980469 0.1986084
vt 0.4980469 0.1986084
vt 0.4980469 0.1986084
vt 0.4980469 0.1986084
vt 0.4980469 0.1986084
vt 0.4980469 0.1986084
vt 0.4980469 0.1986084
vt 0.4980469 0.1986084
vt 0.4980469 0.1986084
vt 0.4980469 0.1986084
vt 0.4980469 0.1986084
vt 0.4980469 0.1986084
vt 0.4980469 0.1986084
vt 0.4980469 0.1986084
vt 0.4980469 0.1986084
vt 0.4980469 0.1986084
vt 0.4980469 0.1986084
vt 0.4980469 0.1986084
vt 0.4980469 0.1986084
vt 0.4980469 0.1986084
vt 0.4980469 0.1986084
vt 0.4980469 0.1986084
vt 0.4980469 0.1986084
vt 0.4980469 0.1986084
vt 0.4980469 0.1986084
vt 0.4980469 0.1986084
vt 0.4980469 0.1986084
vt 0.4980469 0.1986084
vt 0.4980469 0.1986084
vt 0.4980469 0.1986084
vt 0.4980469 0.1986084
vt 0.4980469 0.1986084
vt 0.4980469 0.1986084
vt 0.4980469 0.1986084
vt 0.4980469 0.1986084
vt 0.4980469 0.1986084
vt 0.4980469 0.1986084
vt 0.4980469 0.1986084
vt 0.4980469 0.1986084
vt 0.4980469 0.1986084
vt 0.4980469 0.1986084
vt 0.4980469 0.1986084
vt 0.4980469 0.1986084
vt 0.4980469 0.1986084
vt 0.4980469 0.1986084
vt 0.4980469 0.1986084
vt 0.4980469 0.1986084
vt 0.4980469 0.1986084
vt 0.4980469 0.1986084
vt 0.4980469 0.1986084
vt 0.4980469 0.1986084
vt 0.4980469 0.1986084
vt 0.4980469 0.1986084
vt 0.4980469 0.1986084
vt 0.4980469 0.1986084
vt 0.4980469 0.1986084
vt 0.4980469 0.1986084
vt 0.4980469 0.1986084
vt 0.4980469 0.1986084
vt 0.4980469 0.1986084
vt 0.4980469 0.1986084
vt 0.4980469 0.1986084
vt 0.4980469 0.1986084
vt 0.4980469 0.1986084
vt 0.4980469 0.1986084
vt 0.4980469 0.1986084
vt 0.4980469 0.1986084
vt 0.4980469 0.1986084
vt 0.4980469 0.1986084
vt 0.4980469 0.1986084
vt 0.4980469 0.1986084
vt 0.4980469 0.1986084
vt 0.4980469 0.1986084
vt 0.4980469 0.1986084
vt 0.4980469 0.1986084
vt 0.4980469 0.1986084
vt 0.4980469 0.1986084
vt 0.4980469 0.1986084
vt 0.4980469 0.1986084
vt 0.4980469 0.1986084
vt 0.4980469 0.1986084
vt 0.4980469 0.1986084
vt 0.4980469 0.1986084
vt 0.4980469 0.1986084
vt 0.4980469 0.1986084
vt 0.4980469 0.1986084
vt 0.4980469 0.1986084
vt 0.4980469 0.1986084
vt 0.4980469 0.1986084
vt 0.4980469 0.1986084
vt 0.4980469 0.1986084
vt 0.4980469 0.1986084
vt 0.4980469 0.1986084
vt 0.4980469 0.1986084
vt 0.4980469 0.1986084
vt 0.4980469 0.1986084
vt 0.4980469 0.1986084
vt 0.4980469 0.1986084
vt 0.4980469 0.1986084
vt 0.4980469 0.1986084
vt 0.4980469 0.1986084
vt 0.4980469 0.1986084
vt 0.4980469 0.1986084
vt 0.4980469 0.1986084
vt 0.4980469 0.1986084
vt 0.4980469 0.1986084
vt 0.4980469 0.1986084
vt 0.4980469 0.1986084
vt 0.4980469 0.1986084
vt 0.4304199 0.1490479
vt 0.4304199 0.1490479
vt 0.4304199 0.1490479
vt 0.4304199 0.1490479
vt 0.4304199 0.1490479
vt 0.4304199 0.1490479
vt 0.4304199 0.1490479
vt 0.4304199 0.1490479
vt 0.4304199 0.1490479
vt 0.4304199 0.1490479
vt 0.4304199 0.1490479
vt 0.4304199 0.1490479
vt 0.4304199 0.1490479
vt 0.4304199 0.1490479
vt 0.4304199 0.1490479
vt 0.4304199 0.1490479
vt 0.4304199 0.1490479
vt 0.4304199 0.1490479
vt 0.4304199 0.1490479
vt 0.4304199 0.1490479
vt 0.4304199 0.1490479
vt 0.4304199 0.1490479
vt 0.4304199 0.1490479
vt 0.4304199 0.1490479
vt 0.6152344 0.3496094
vt 0.6152344 0.3496094
vt 0.6152344 0.3496094
vt 0.6152344 0.3496094
vt 0.6152344 0.3496094
vt 0.6152344 0.3496094
vt 0.6152344 0.3496094
vt 0.6152344 0.3496094
vt 0.6152344 0.3496094
vt 0.6152344 0.3496094
vt 0.6152344 0.3496094
vt 0.6152344 0.3496094
vt 0.6152344 0.3496094
vt 0.6152344 0.3496094
vt 0.6152344 0.3496094
vt 0.6152344 0.3496094
vt 0.6152344 0.3496094
vt 0.6152344 0.3496094
vt 0.6152344 0.3496094
vt 0.6152344 0.3496094
vt 0.6152344 0.3496094
vt 0.6152344 0.3496094
vt 0.6152344 0.3496094
vt 0.6152344 0.3496094
vt 0.6152344 0.3496094
vt 0.6152344 0.3496094
vt 0.6152344 0.3496094
vt 0.6152344 0.3496094
vt 0.6152344 0.3496094
vt 0.6152344 0.3496094
vt 0.6152344 0.3496094
vt 0.6152344 0.3496094
vt 0.6152344 0.3496094
vt 0.6152344 0.3496094
vt 0.6152344 0.3496094
vt 0.6152344 0.3496094
vt 0.6152344 0.3496094
vt 0.6152344 0.3496094
vt 0.6152344 0.3496094
vt 0.6152344 0.3496094
vt 0.6152344 0.3496094
vt 0.6152344 0.3496094
vt 0.6152344 0.3496094
vt 0.6152344 0.3496094
vt 0.6152344 0.3496094
vt 0.6152344 0.3496094
vt 0.6152344 0.3496094
vt 0.6152344 0.3496094
vt 0.6152344 0.3496094
vt 0.6152344 0.3496094
vt 0.6152344 0.3496094
vt 0.6152344 0.3496094
vt 0.6152344 0.3496094
vt 0.6152344 0.3496094
vt 0.6152344 0.3496094
vt 0.6152344 0.3496094
vt 0.4912109 0.157959
vt 0.4912109 0.157959
vt 0.4912109 0.157959
vt 0.4912109 0.157959
vt 0.4912109 0.157959
vt 0.4912109 0.157959
vt 0.4912109 0.157959
vt 0.4912109 0.157959
vt 0.4912109 0.157959
vt 0.4912109 0.157959
vt 0.4912109 0.157959
vt 0.4912109 0.157959
vt 0.4912109 0.157959
vt 0.4912109 0.157959
vt 0.4912109 0.157959
vt 0.4912109 0.157959
vt 0.4912109 0.157959
vt 0.4912109 0.157959
vt 0.4912109 0.157959
vt 0.4912109 0.157959
vt 0.4912109 0.157959
vt 0.4912109 0.157959
vt 0.4912109 0.157959
vt 0.4912109 0.157959
vt 0.4890137 0.1962891
vt 0.4890137 0.1962891
vt 0.4890137 0.1962891
vt 0.4890137 0.1962891
vt 0.4890137 0.1962891
vt 0.4890137 0.1962891
vt 0.4890137 0.1962891
vt 0.4890137 0.1962891
vt 0.4890137 0.1962891
vt 0.4890137 0.1962891
vt 0.4890137 0.1962891
vt 0.4890137 0.1962891
vt 0.4890137 0.1962891
vt 0.4890137 0.1962891
vt 0.4890137 0.1962891
vt 0.4890137 0.1962891
vt 0.4890137 0.1962891
vt 0.4890137 0.1962891
vt 0.4890137 0.1962891
vt 0.4890137 0.1962891
vt 0.4890137 0.1962891
vt 0.4890137 0.1962891
vt 0.4890137 0.1962891
vt 0.4890137 0.1962891
vt 0.4890137 0.1962891
vt 0.4890137 0.1962891
vt 0.4890137 0.1962891
vt 0.4890137 0.1962891
vt 0.4890137 0.1962891
vt 0.4890137 0.1962891
vt 0.4890137 0.1962891
vt 0.4890137 0.1962891
vt 0.4890137 0.1962891
vt 0.4890137 0.1962891
vt 0.4890137 0.1962891
vt 0.4890137 0.1962891
vt 0.4890137 0.1962891
vt 0.4890137 0.1962891
vt 0.4890137 0.1962891
vt 0.4890137 0.1962891
vt 0.4890137 0.1962891
vt 0.4890137 0.1962891
vt 0.4890137 0.1962891
vt 0.4890137 0.1962891
vt 0.4890137 0.1962891
vt 0.4890137 0.1962891
vt 0.4890137 0.1962891
vt 0.4890137 0.1962891
vt 0.4890137 0.1962891
vn -0.6538086 -0.3903809 -0.6484375
vn -0.6538086 -0.3903809 -0.6484375
vn -0.9892578 -0.03616333 -0.1400146
vn -0.9926758 -0.06616211 -0.1018677
vn 0.4306641 0.03102112 -0.9018555
vn 0.9716797 0.2242432 0.07537842
vn 0.6870117 -0.3044434 -0.659668
vn 0.671875 -0.3049316 -0.6748047
vn 0.6064453 0.04525757 -0.7939453
vn -0.6538086 -0.3903809 -0.6484375
vn -0.7827148 -0.3881836 -0.486084
vn 0.5458984 -0.828125 -0.1265869
vn -0.9970703 -0.06713867 -0.03421021
vn -0.9975586 -0.06549072 -0.02932739
vn 0.9628906 0.1948242 0.1860352
vn 0.9643555 0.1932373 0.1812744
vn -0.9951172 0.06835938 0.07342529
vn -0.9838867 0.09503174 0.1523438
vn 0.9042969 0.3205566 0.2819824
vn 0.9042969 0.3205566 0.2819824
vn -0.9921875 -0.008644104 0.1248169
vn -0.9995117 -0.02540588 -0.01198578
vn 0.2961426 0.9355469 -0.1917725
vn 0.9106445 0.2440186 0.3339844
vn 0.9619141 0.1962891 0.1907959
vn -0.9975586 -0.06390381 -0.02442932
vn -0.9975586 -0.06549072 -0.02932739
vn 0.9628906 0.1948242 0.1860352
vn -0.9916992 -0.1043701 -0.07226563
vn -0.9926758 -0.0982666 -0.06817627
vn 0.5322266 0.6015625 -0.5957031
vn 0.9770508 0.1569824 0.144043
vn 0.7021484 -0.3039551 -0.644043
vn 0.6606445 0.1243896 -0.7407227
vn 0.4897461 0.5605469 -0.6679688
vn 0.2961426 0.9355469 -0.1917725
vn 0.5039063 0.8339844 -0.2261963
vn 0.4230957 0.6879883 -0.5893555
vn 0.4467773 0.0209198 -0.8945313
vn 0.4243164 0.2841797 0.8598633
vn 0.5131836 -0.3249512 0.7944336
vn 0.4880371 -0.4777832 0.7304688
vn 0.3847656 -0.6508789 0.6542969
vn 0.373291 -0.7568359 0.5366211
vn 0.373291 -0.7568359 0.5366211
vn 0.5849609 -0.8066406 -0.08618164
vn 0.6870117 -0.3044434 -0.659668
vn 0.4067383 -0.8413086 -0.3566895
vn 0.3710938 -0.3896484 0.8427734
vn 0.3710938 -0.3896484 0.8427734
vn 0.8432617 -0.458252 0.2805176
vn -0.7363281 -0.6679688 0.1069336
vn -0.7363281 -0.6679688 0.1069336
vn 0.4890137 -0.2418213 -0.8378906
vn 0.4204102 0.3305664 0.8452148
vn 0.4204102 0.3305664 0.8452148
vn 0.9853516 0.1308594 0.1082764
vn -0.9853516 -0.1308594 -0.1082764
vn -0.9853516 -0.1308594 -0.1082764
vn 0.3115234 0.4328613 -0.8457031
vn 0.2775879 0.8378906 0.4697266
vn 0.2775879 0.8378906 0.4697266
vn 0.784668 0.6147461 -0.08203125
vn -0.8803711 0.3937988 -0.2648926
vn -0.8803711 0.3937988 -0.2648926
vn 0.4509277 -0.7412109 -0.4973145
vn 0.4030762 -0.2246094 0.887207
vn 0.4030762 -0.2246094 0.887207
vn 0.9160156 -0.3173828 0.2452393
vn -0.8334961 -0.5498047 0.05307007
vn -0.8334961 -0.5498047 0.05307007
vn 0.4890137 -0.2418213 -0.8378906
vn 0.4204102 0.3305664 0.8452148
vn 0.4204102 0.3305664 0.8452148
vn 0.9853516 0.1308594 0.1082764
vn -0.9853516 -0.1308594 -0.1082764
vn -0.9853516 -0.1308594 -0.1082764
vn 0.2873535 0.4848633 -0.8261719
vn 0.2575684 0.8691406 0.4226074
vn 0.2575684 0.8691406 0.4226074
vn 0.7490234 0.6547852 -0.100647
vn -0.8530273 0.4421387 -0.2766113
vn -0.8530273 0.4421387 -0.2766113
vn -0.0894165 0.9418945 -0.3239746
vn -0.0894165 0.9418945 -0.3239746
vn -0.08947754 0.9418945 -0.3239746
vn -0.08947754 0.9418945 -0.3239746
vn -0.0894165 0.9418945 -0.3239746
vn -0.08947754 0.9418945 -0.3239746
vn -0.0894165 0.9418945 -0.3239746
vn -0.08947754 0.9418945 -0.3239746
vn -0.0894165 0.9418945 -0.3239746
vn -0.0894165 0.9418945 -0.3239746
vn -0.0894165 0.9418945 -0.3239746
vn -0.0894165 0.9418945 -0.3239746
vn 0.4140625 0.04110718 -0.9091797
vn 0.4306641 0.03102112 -0.9018555
vn -0.9926758 -0.06616211 -0.1018677
vn -0.9926758 -0.06616211 -0.1018677
vn 0.4389648 0.276123 0.8549805
vn 0.9741211 0.1949463 0.1141968
vn -0.4733887 0.8569336 0.203125
vn -0.5195313 0.8378906 0.1669922
vn 0.1816406 0.9443359 0.2751465
vn 0.3164063 0.7792969 -0.5410156
vn 0.8310547 0.1380615 -0.5390625
vn 0.8481445 0.2398682 -0.472168
vn 0.2854004 0.3869629 0.8769531
vn -0.7036133 -0.06567383 -0.7075195
vn -0.1414795 0.9853516 0.09698486
vn -0.1414795 0.9853516 0.09698486
vn -0.1414795 0.9853516 0.09698486
vn -0.1414795 0.9853516 0.09698486
vn 0.7539063 0.3654785 -0.5458984
vn 0.6860352 0.3879395 -0.6157227
vn 0.6674805 -0.185791 0.7211914
vn -0.6723633 0.1855469 -0.7163086
vn 0.07556152 -0.9086914 0.4106445
vn 0.07550049 -0.9086914 0.4106445
vn 0.07550049 -0.9086914 0.4106445
vn 0.07550049 -0.9086914 0.4106445
vn 0.314209 0.5297852 0.7875977
vn -0.6010742 0.4082031 0.6875
vn 0.314209 0.5297852 0.7875977
vn 0.373291 -0.7568359 0.5366211
vn 0.4140625 -0.7050781 0.5761719
vn 0.4140625 -0.7050781 0.5761719
vn 0.4140625 -0.7050781 0.5761719
vn 0.6606445 0.1243896 -0.7407227
vn 0.6606445 0.1243896 -0.7407227
vn 0.6064453 0.04525757 -0.7939453
vn 0.6064453 0.04525757 -0.7939453
vn -0.7827148 -0.3881836 -0.486084
vn -0.7827148 -0.3881836 -0.486084
vn 0.5849609 -0.8066406 -0.08618164
vn 0.5849609 -0.8066406 -0.08618164
vn 0.5458984 -0.828125 -0.1265869
vn 0.5458984 -0.828125 -0.1265869
vn 0.9414063 -0.1593018 -0.2966309
vn 0.9414063 -0.1593018 -0.2966309
vn 0.9414063 -0.1593018 -0.2966309
vn 0.8549805 -0.1900635 -0.482666
vn 0.8549805 -0.1900635 -0.482666
vn 0.8549805 -0.1900635 -0.482666
vn -0.9838867 0.09503174 0.1523438
vn -0.9838867 0.09503174 0.1523438
vn -0.9951172 0.06835938 0.07342529
vn -0.9951172 0.06835938 0.07342529
vn 0.9042969 0.3205566 0.2819824
vn 0.8701172 0.3410645 0.355957
vn 0.8701172 0.3410645 0.355957
vn 0.8701172 0.3410645 0.355957
vn 0.3898926 -0.6508789 0.6513672
vn 0.3898926 -0.6508789 0.6513672
vn 0.3947754 -0.6513672 0.6479492
vn -0.9995117 -0.02540588 -0.01198578
vn -0.9995117 -0.02540588 -0.01198578
vn -0.9921875 -0.008644104 0.1248169
vn -0.9921875 -0.008644104 0.1248169
vn 0.2961426 0.9355469 -0.1917725
vn 0.5039063 0.8339844 -0.2261963
vn 0.5039063 0.8339844 -0.2261963
vn 0.9106445 0.2440186 0.3339844
vn 0.9106445 0.2440186 0.3339844
vn 0.9511719 0.2336426 0.2022705
vn 0.9511719 0.2336426 0.2022705
vn 0.9511719 0.2336426 0.2022705
vn 0.4880371 -0.4777832 0.7304688
vn 0.4880371 -0.4777832 0.7304688
vn 0.3625488 -0.4423828 0.8203125
vn 0.3625488 -0.4423828 0.8203125
vn 0.3625488 -0.4423828 0.8203125
vn -0.9897461 -0.1165771 -0.08056641
vn -0.9907227 -0.1116943 -0.07958984
vn 0.5322266 0.6015625 -0.5957031
vn 0.5322266 0.6015625 -0.5957031
vn 0.4230957 0.6879883 -0.5893555
vn 0.4230957 0.6879883 -0.5893555
vn 0.9755859 0.1630859 0.1480713
vn 0.9790039 0.1497803 0.1367188
vn 0.9799805 0.1450195 0.1358643
vn 0.4990234 -0.3237305 0.8037109
vn 0.4990234 -0.3237305 0.8037109
vn 0.484375 -0.3227539 0.8129883
vn 0.4897461 0.5605469 -0.6679688
vn 0.4897461 0.5605469 -0.6679688
vn 0.4311523 0.4956055 -0.7539063
vn 0.4311523 0.4956055 -0.7539063
vn 0.4311523 0.4956055 -0.7539063
vn -0.9262695 -0.2507324 -0.2814941
vn -0.9316406 -0.2473145 -0.2666016
vn -0.9316406 -0.2473145 -0.2666016
vn -0.9365234 -0.2440186 -0.2514648
vn 0.494873 -0.8510742 0.175415
vn 0.494873 -0.8510742 0.175415
vn 0.494873 -0.8510742 0.175415
vn 0.4506836 -0.8828125 0.1333008
vn 0.4506836 -0.8828125 0.1333008
vn 0.4506836 -0.8828125 0.1333008
vn 0.9990234 0.01296234 -0.03890991
vn 0.9985352 0.008880615 -0.05453491
vn 0.9985352 0.008880615 -0.05453491
vn 0.9975586 0.00479126 -0.07012939
vn -0.9892578 -0.03616333 -0.1400146
vn -0.9892578 -0.03616333 -0.1400146
vn 0.9716797 0.2242432 0.07537842
vn 0.9716797 0.2242432 0.07537842
vn 0.9741211 0.1949463 0.1141968
vn 0.9741211 0.1949463 0.1141968
vn 0.4389648 0.276123 0.8549805
vn 0.4536133 0.2680664 0.8500977
vn -0.4963379 -0.02922058 -0.8676758
vn -0.4963379 -0.02922058 -0.8676758
vn -0.4963379 -0.02922058 -0.8676758
vn -0.4135742 -0.09014893 -0.9057617
vn -0.4135742 -0.09014893 -0.9057617
vn -0.4135742 -0.09014893 -0.9057617
vn -0.4633789 0.4338379 -0.7724609
vn -0.4633789 0.4338379 -0.7724609
vn -0.4633789 0.4338379 -0.7724609
vn -0.373291 0.3886719 -0.8422852
vn -0.373291 0.3886719 -0.8422852
vn -0.373291 0.3886719 -0.8422852
vn -0.6411133 0.6816406 -0.3520508
vn -0.6411133 0.6816406 -0.3520508
vn -0.6411133 0.6816406 -0.3520508
vn -0.4794922 0.8325195 -0.2768555
vn -0.4794922 0.8325195 -0.2768555
vn -0.4794922 0.8325195 -0.2768555
vn -0.4501953 0.5722656 -0.6855469
vn -0.4501953 0.5722656 -0.6855469
vn -0.4501953 0.5722656 -0.6855469
vn -0.5292969 0.4604492 -0.7124023
vn -0.5292969 0.4604492 -0.7124023
vn -0.5292969 0.4604492 -0.7124023
vn -0.2357178 -0.06970215 -0.9692383
vn -0.2211914 -0.05551147 -0.9736328
vn -0.2211914 -0.05551147 -0.9736328
vn -0.2067871 -0.0413208 -0.9775391
vn -0.6777344 0.1177368 0.7255859
vn -0.6674805 0.1292725 0.7333984
vn -0.6674805 0.1292725 0.7333984
vn -0.6567383 0.1408691 0.7412109
vn -0.546875 -0.4597168 0.699707
vn -0.5581055 -0.4641113 0.6875
vn -0.5581055 -0.4641113 0.6875
vn -0.5693359 -0.4685059 0.675293
vn -0.4025879 -0.5439453 0.7363281
vn -0.4025879 -0.5439453 0.7363281
vn -0.4025879 -0.5439453 0.7363281
vn -0.4924316 -0.6079102 0.6225586
vn -0.4924316 -0.6079102 0.6225586
vn -0.4924316 -0.6079102 0.6225586
vn -0.3425293 -0.7490234 0.5673828
vn -0.3383789 -0.7475586 0.5712891
vn -0.3383789 -0.7475586 0.5712891
vn -0.3344727 -0.746582 0.5751953
vn -0.2709961 -0.8422852 0.4655762
vn -0.2709961 -0.8422852 0.4655762
vn -0.2709961 -0.8422852 0.4655762
vn -0.3312988 -0.8037109 0.4941406
vn -0.3312988 -0.8037109 0.4941406
vn -0.3312988 -0.8037109 0.4941406
vn -0.2841797 -0.9545898 0.08984375
vn -0.2841797 -0.9545898 0.08984375
vn -0.2841797 -0.9545898 0.08984375
vn -0.2254639 -0.9726563 0.05905151
vn -0.2254639 -0.9726563 0.05905151
vn -0.2254639 -0.9726563 0.05905151
vn -0.324707 -0.9272461 -0.1860352
vn -0.324707 -0.9272461 -0.1860352
vn -0.324707 -0.9272461 -0.1860352
vn -0.2739258 -0.9370117 -0.2165527
vn -0.2739258 -0.9370117 -0.2165527
vn -0.2739258 -0.9370117 -0.2165527
vn -0.4455566 -0.4562988 -0.7700195
vn -0.4282227 -0.4526367 -0.7822266
vn -0.4282227 -0.4526367 -0.7822266
vn -0.4104004 -0.4487305 -0.7939453
vn 0.3710938 -0.3896484 0.8427734
vn 0.3710938 -0.3896484 0.8427734
vn 0.8432617 -0.458252 0.2805176
vn 0.8432617 -0.458252 0.2805176
vn 0.8432617 -0.458252 0.2805176
vn 0.4067383 -0.8413086 -0.3566895
vn 0.4067383 -0.8413086 -0.3566895
vn 0.4067383 -0.8413086 -0.3566895
vn -0.7363281 -0.6679688 0.1069336
vn -0.7363281 -0.6679688 0.1069336
vn -0.4289551 -0.4958496 0.7548828
vn -0.4289551 -0.4958496 0.7548828
vn -0.4289551 -0.4958496 0.7548828
vn -0.4289551 -0.4958496 0.7548828
vn -0.090271 -0.9072266 -0.4111328
vn -0.090271 -0.9072266 -0.4111328
vn -0.090271 -0.9072266 -0.4111328
vn -0.090271 -0.9072266 -0.4111328
vn 0.4204102 0.3305664 0.8452148
vn 0.4204102 0.3305664 0.8452148
vn 0.9853516 0.1308594 0.1082764
vn 0.9853516 0.1308594 0.1082764
vn 0.9853516 0.1308594 0.1082764
vn 0.4890137 -0.2418213 -0.8378906
vn 0.4890137 -0.2418213 -0.8378906
vn 0.4890137 -0.2418213 -0.8378906
vn -0.9853516 -0.1308594 -0.1082764
vn -0.9853516 -0.1308594 -0.1082764
vn -0.6616211 0.1870117 0.7260742
vn -0.6616211 0.1870117 0.7260742
vn -0.6616211 0.1870117 0.7260742
vn -0.6616211 0.1870117 0.7260742
vn -0.2197266 -0.3359375 -0.9160156
vn -0.2197266 -0.3359375 -0.9160156
vn -0.2197266 -0.3359375 -0.9160156
vn -0.2197266 -0.3359375 -0.9160156
vn 0.2775879 0.8378906 0.4697266
vn 0.2775879 0.8378906 0.4697266
vn 0.784668 0.6147461 -0.08203125
vn 0.784668 0.6147461 -0.08203125
vn 0.784668 0.6147461 -0.08203125
vn 0.3115234 0.4328613 -0.8457031
vn 0.3115234 0.4328613 -0.8457031
vn 0.3115234 0.4328613 -0.8457031
vn -0.8803711 0.3937988 -0.2648926
vn -0.8803711 0.3937988 -0.2648926
vn -0.578125 0.7241211 0.3757324
vn -0.578125 0.7241211 0.3757324
vn -0.578125 0.7241211 0.3757324
vn -0.578125 0.7241211 0.3757324
vn -0.2247314 0.3615723 -0.9047852
vn -0.2247314 0.3615723 -0.9047852
vn -0.2247314 0.3615723 -0.9047852
vn -0.2247314 0.3615723 -0.9047852
vn 0.4030762 -0.2244873 0.887207
vn 0.4030762 -0.2246094 0.887207
vn 0.9160156 -0.3173828 0.2452393
vn 0.9160156 -0.3173828 0.2452393
vn 0.9160156 -0.3173828 0.2452393
vn 0.4509277 -0.7412109 -0.4973145
vn 0.4509277 -0.7412109 -0.4973145
vn 0.4509277 -0.7412109 -0.4973145
vn -0.8334961 -0.5498047 0.05307007
vn -0.8334961 -0.5498047 0.05307007
vn -0.5112305 -0.3459473 0.7866211
vn -0.5112305 -0.3459473 0.7866211
vn -0.5112305 -0.3459473 0.7866211
vn -0.5112305 -0.3459473 0.7866211
vn -0.1278076 -0.8178711 -0.5610352
vn -0.1278076 -0.8178711 -0.5610352
vn -0.1278076 -0.8178711 -0.5610352
vn -0.1278076 -0.8178711 -0.5610352
vn 0.4204102 0.3305664 0.8452148
vn 0.4204102 0.3305664 0.8452148
vn 0.9853516 0.1308594 0.1082764
vn 0.9853516 0.1308594 0.1082764
vn 0.9853516 0.1308594 0.1082764
vn 0.4890137 -0.2418213 -0.8378906
vn 0.4890137 -0.2418213 -0.8378906
vn 0.4890137 -0.2418213 -0.8378906
vn -0.9853516 -0.1308594 -0.1082764
vn -0.9853516 -0.1308594 -0.1082764
vn -0.6616211 0.1870117 0.7260742
vn -0.6616211 0.1870117 0.7260742
vn -0.6616211 0.1870117 0.7260742
vn -0.6616211 0.1870117 0.7260742
vn -0.2197266 -0.3359375 -0.9160156
vn -0.2197266 -0.3359375 -0.9160156
vn -0.2197266 -0.3359375 -0.9160156
vn -0.2197266 -0.3359375 -0.9160156
vn 0.2575684 0.8691406 0.4226074
vn 0.2575684 0.8691406 0.4226074
vn 0.7490234 0.6547852 -0.100647
vn 0.7490234 0.6547852 -0.100647
vn 0.7490234 0.6547852 -0.100647
vn 0.2873535 0.4848633 -0.8261719
vn 0.2873535 0.4848633 -0.8261719
vn 0.2873535 0.4848633 -0.8261719
vn -0.8530273 0.4421387 -0.2766113
vn -0.8530273 0.4421387 -0.2766113
vn -0.5571289 0.7607422 0.333252
vn -0.5571289 0.7607422 0.333252
vn -0.5571289 0.7607422 0.333252
vn -0.5571289 0.7607422 0.333252
vn -0.2196045 0.4177246 -0.8818359
vn -0.2197266 0.4177246 -0.8818359
vn -0.2197266 0.4177246 -0.8818359
vn -0.2197266 0.4174805 -0.8818359
vn -0.08947754 0.9418945 -0.3239746
vn -0.08947754 0.9418945 -0.3239746
vn -0.08947754 0.9418945 -0.3239746
vn -0.0894165 0.9418945 -0.3239746
vn -0.08947754 0.9418945 -0.3239746
vn -0.08947754 0.9418945 -0.3239746
vn 0.4125977 0.3984375 0.8193359
vn 0.4125977 0.3984375 0.8193359
vn 0.4125977 0.3984375 0.8193359
vn 0.4125977 0.3984375 0.8193359
vn 0.9785156 0.1868896 0.08868408
vn 0.9785156 0.1868896 0.08868408
vn 0.9785156 0.1868896 0.08868408
vn 0.9785156 0.1868896 0.08868408
vn 0.4802246 -0.1645508 -0.8618164
vn 0.4802246 -0.1645508 -0.8618164
vn 0.4802246 -0.1645508 -0.8618164
vn 0.4802246 -0.1644287 -0.8618164
vn -0.9892578 -0.07434082 -0.1274414
vn -0.9892578 -0.07434082 -0.1274414
vn -0.9892578 -0.07434082 -0.1274414
vn -0.9892578 -0.07434082 -0.1274414
vn -0.6665039 0.255127 0.7006836
vn -0.6665039 0.255127 0.7006836
vn -0.6665039 0.255127 0.7006836
vn -0.6665039 0.255127 0.7006836
vn -0.2261963 -0.2583008 -0.9389648
vn -0.2261963 -0.2583008 -0.9394531
vn -0.2261963 -0.2583008 -0.9394531
vn -0.2261963 -0.2583008 -0.9394531
vn 0.3845215 0.5009766 -0.7753906
vn 0.3762207 0.5073242 -0.7753906
vn 0.3762207 0.5073242 -0.7753906
vn 0.3681641 0.5141602 -0.7749023
vn -0.3139648 0.4233398 -0.8496094
vn -0.3200684 0.4150391 -0.8515625
vn -0.3200684 0.4150391 -0.8515625
vn -0.3261719 0.4064941 -0.8535156
vn -0.9941406 -0.08972168 -0.05761719
vn -0.9951172 -0.01165009 -0.09613037
vn -0.9951172 -0.01165009 -0.09613037
vn -0.9951172 -0.01165009 -0.09613037
vn -0.6586914 -0.2247314 0.7182617
vn -0.6586914 -0.2247314 0.7182617
vn -0.6586914 -0.2247314 0.7182617
vn -0.5839844 -0.1879883 0.7895508
vn -0.5839844 -0.1879883 0.7895508
vn -0.5839844 -0.1879883 0.7895508
vn 0.4301758 -0.05331421 0.9013672
vn 0.4301758 -0.05331421 0.9013672
vn 0.4301758 -0.05331421 0.9013672
vn 0.5253906 -0.06756592 0.8481445
vn 0.5253906 -0.06756592 0.8481445
vn 0.5253906 -0.06756592 0.8481445
vn 0.9614258 0.2481689 0.1188354
vn 0.9614258 0.2481689 0.1188354
vn 0.9614258 0.2481689 0.1188354
vn 0.972168 0.1713867 0.1584473
vn -0.5195313 0.8378906 0.1669922
vn -0.5195313 0.8378906 0.1669922
vn -0.4816895 0.8535156 0.199707
vn -0.4733887 0.8569336 0.203125
vn -0.4650879 0.8608398 0.206665
vn 0.2380371 0.9384766 0.2502441
vn 0.2380371 0.9384766 0.2502441
vn 0.2380371 0.9384766 0.2502441
vn 0.1911621 0.9428711 0.2736816
vn 0.1816406 0.9443359 0.2751465
vn 0.1721191 0.9453125 0.2766113
vn 0.3164063 0.7792969 -0.5410156
vn 0.3164063 0.7792969 -0.5410156
vn 0.3447266 0.8530273 -0.392334
vn 0.3447266 0.8530273 -0.392334
vn 0.3447266 0.8530273 -0.392334
vn 0.4577637 0.8549805 -0.2442627
vn 0.4577637 0.8549805 -0.2442627
vn 0.4577637 0.8549805 -0.2442627
vn -0.3837891 0.6860352 -0.6181641
vn -0.3837891 0.6860352 -0.6181641
vn -0.3837891 0.6860352 -0.6181641
vn -0.4609375 0.7456055 -0.480957
vn -0.4609375 0.7456055 -0.480957
vn -0.4609375 0.7456055 -0.480957
vn -0.5996094 0.7143555 -0.3603516
vn -0.5996094 0.7143555 -0.3603516
vn -0.5996094 0.7143555 -0.3603516
vn 0.8481445 0.2398682 -0.472168
vn 0.8481445 0.2398682 -0.472168
vn 0.8310547 0.1380615 -0.5390625
vn 0.8310547 0.1380615 -0.5390625
vn 0.4616699 0.2208252 0.8588867
vn 0.4616699 0.2208252 0.8588867
vn 0.4616699 0.2208252 0.8588867
vn 0.2854004 0.3869629 0.8769531
vn 0.2854004 0.3869629 0.8769531
vn -0.7602539 0.02626038 -0.6489258
vn -0.7602539 0.02626038 -0.6489258
vn -0.7602539 0.02626038 -0.6489258
vn -0.7036133 -0.06567383 -0.7075195
vn -0.7036133 -0.06567383 -0.7075195
vn -0.675293 0.06988525 0.734375
vn -0.675293 0.06988525 0.734375
vn -0.675293 0.06988525 0.734375
vn -0.5556641 0.2753906 0.7841797
vn -0.5556641 0.2753906 0.7841797
vn -0.5556641 0.2753906 0.7841797
vn -0.1414795 0.9853516 0.09698486
vn -0.1414795 0.9853516 0.09698486
vn -0.1414795 0.9853516 0.09698486
vn -0.1414795 0.9853516 0.09698486
vn 0.7539063 0.3654785 -0.5458984
vn 0.7539063 0.3654785 -0.5458984
vn 0.6860352 0.3879395 -0.6157227
vn 0.6860352 0.3879395 -0.6157227
vn 0.652832 -0.1940918 0.7319336
vn 0.6674805 -0.185791 0.7211914
vn 0.6816406 -0.1773682 0.7094727
vn -0.6884766 0.1761475 -0.7036133
vn -0.6723633 0.1855469 -0.7163086
vn -0.65625 0.1949463 -0.7290039
vn -0.7211914 -0.376709 0.5810547
vn -0.7182617 -0.3776855 0.5844727
vn -0.7182617 -0.3776855 0.5844727
vn -0.7148438 -0.3786621 0.5874023
vn 0.314209 0.5297852 0.7875977
vn 0.6274414 0.4299316 0.6494141
vn 0.6274414 0.4299316 0.6494141
vn 0.6274414 0.4299316 0.6494141
vn 0.8950195 -0.2159424 -0.390625
vn 0.8950195 -0.2159424 -0.390625
vn 0.8950195 -0.2159424 -0.390625
vn 0.8125 -0.3056641 -0.4963379
vn 0.8125 -0.3056641 -0.4963379
vn 0.8125 -0.3056641 -0.4963379
vn -0.6010742 0.4082031 0.6875
vn -0.6010742 0.4082031 0.6875
vn -0.840332 0.2351074 0.4880371
vn -0.840332 0.2351074 0.4880371
vn -0.840332 0.2351074 0.4880371
vn -0.7041016 -0.4282227 -0.5664063
vn -0.7041016 -0.4282227 -0.5664063
vn -0.7041016 -0.4282227 -0.5664063
vn -0.5810547 -0.4907227 -0.6494141
vn -0.5810547 -0.4907227 -0.6494141
vn -0.5810547 -0.4907227 -0.6494141
vn -0.6958008 0.7148438 0.06964111
vn -0.7094727 0.7001953 0.07971191
vn -0.7094727 0.7001953 0.07971191
vn -0.7226563 0.6855469 0.08978271
vn -0.6132813 -0.7680664 -0.1854248
vn -0.6132813 -0.7680664 -0.1854248
vn -0.6132813 -0.7680664 -0.1854248
vn 0.8066406 -0.5908203 -0.01239777
vn 0.8066406 -0.5908203 -0.01239777
vn 0.8066406 -0.5908203 -0.01239777
vn 0.4833984 0.8530273 0.1958008
vn 0.4853516 0.8515625 0.1975098
vn 0.4853516 0.8515625 0.1975098
vn 0.4873047 0.8500977 0.1992188
g Item_WaterBladder_01_0
f 27/27/27 14/14/14 26/26/26
f 27/27/27 13/13/13 14/14/14
f 92/92/92 90/90/90 91/91/91
f 92/92/92 93/93/93 90/90/90
f 95/95/95 91/91/91 90/90/90
f 95/95/95 90/90/90 94/94/94
f 28/28/28 15/15/15 16/16/16
f 28/28/28 25/25/25 15/15/15
f 47/47/47 7/7/7 8/8/8
f 47/47/47 33/33/33 7/7/7
f 125/125/125 44/44/44 45/45/45
f 128/128/128 127/127/127 126/126/126
f 119/119/119 120/120/120 118/118/118
f 121/121/121 120/120/120 119/119/119
f 34/34/34 130/130/130 129/129/129
f 132/132/132 9/9/9 131/131/131
f 2/2/2 10/10/10 1/1/1
f 134/134/134 11/11/11 133/133/133
f 136/136/136 46/46/46 135/135/135
f 138/138/138 12/12/12 137/137/137
f 141/141/141 140/140/140 139/139/139
f 144/144/144 143/143/143 142/142/142
f 146/146/146 18/18/18 145/145/145
f 148/148/148 17/17/17 147/147/147
f 149/149/149 19/19/19 20/20/20
f 152/152/152 151/151/151 150/150/150
f 154/154/154 153/153/153 43/43/43
f 154/154/154 155/155/155 153/153/153
f 157/157/157 22/22/22 156/156/156
f 159/159/159 21/21/21 158/158/158
f 36/36/36 23/23/23 160/160/160
f 162/162/162 37/37/37 161/161/161
f 164/164/164 163/163/163 24/24/24
f 167/167/167 166/166/166 165/165/165
f 169/169/169 168/168/168 42/42/42
f 172/172/172 171/171/171 170/170/170
f 29/29/29 174/174/174 173/173/173
f 29/29/29 30/30/30 174/174/174
f 426/426/426 30/30/30 29/29/29
f 176/176/176 31/31/31 175/175/175
f 178/178/178 38/38/38 177/177/177
f 32/32/32 180/180/180 179/179/179
f 32/32/32 181/181/181 180/180/180
f 445/445/445 32/32/32 179/179/179
f 183/183/183 182/182/182 41/41/41
f 183/183/183 184/184/184 182/182/182
f 35/35/35 186/186/186 185/185/185
f 189/189/189 188/188/188 187/187/187
f 192/192/192 191/191/191 190/190/190
f 192/192/192 193/193/193 191/191/191
f 196/196/196 195/195/195 194/194/194
f 199/199/199 198/198/198 197/197/197
f 202/202/202 201/201/201 200/200/200
f 202/202/202 203/203/203 201/201/201
f 4/4/4 98/98/98 99/99/99
f 205/205/205 3/3/3 204/204/204
f 97/97/97 5/5/5 96/96/96
f 97/97/97 39/39/39 5/5/5
f 6/6/6 207/207/207 206/206/206
f 209/209/209 101/101/101 208/208/208
f 100/100/100 210/210/210 40/40/40
f 100/100/100 211/211/211 210/210/210
f 214/214/214 213/213/213 212/212/212
f 217/217/217 216/216/216 215/215/215
f 220/220/220 219/219/219 218/218/218
f 223/223/223 222/222/222 221/221/221
f 226/226/226 225/225/225 224/224/224
f 229/229/229 228/228/228 227/227/227
f 232/232/232 231/231/231 230/230/230
f 235/235/235 234/234/234 233/233/233
f 238/238/238 237/237/237 236/236/236
f 238/238/238 239/239/239 237/237/237
f 242/242/242 241/241/241 240/240/240
f 242/242/242 243/243/243 241/241/241
f 246/246/246 245/245/245 244/244/244
f 246/246/246 247/247/247 245/245/245
f 250/250/250 249/249/249 248/248/248
f 253/253/253 252/252/252 251/251/251
f 256/256/256 255/255/255 254/254/254
f 256/256/256 257/257/257 255/255/255
f 260/260/260 259/259/259 258/258/258
f 263/263/263 262/262/262 261/261/261
f 266/266/266 265/265/265 264/264/264
f 269/269/269 268/268/268 267/267/267
f 272/272/272 271/271/271 270/270/270
f 275/275/275 274/274/274 273/273/273
f 278/278/278 277/277/277 276/276/276
f 278/278/278 279/279/279 277/277/277
f 50/50/50 281/281/281 280/280/280
f 50/50/50 49/49/49 281/281/281
f 284/284/284 283/283/283 282/282/282
f 284/284/284 51/51/51 283/283/283
f 48/48/48 286/286/286 285/285/285
f 48/48/48 287/287/287 286/286/286
f 53/53/53 289/289/289 288/288/288
f 53/53/53 52/52/52 289/289/289
f 292/292/292 291/291/291 290/290/290
f 292/292/292 293/293/293 291/291/291
f 296/296/296 295/295/295 294/294/294
f 296/296/296 297/297/297 295/295/295
f 299/299/299 55/55/55 298/298/298
f 299/299/299 56/56/56 55/55/55
f 302/302/302 301/301/301 300/300/300
f 302/302/302 57/57/57 301/301/301
f 305/305/305 304/304/304 303/303/303
f 305/305/305 54/54/54 304/304/304
f 307/307/307 58/58/58 306/306/306
f 307/307/307 59/59/59 58/58/58
f 310/310/310 309/309/309 308/308/308
f 310/310/310 311/311/311 309/309/309
f 314/314/314 313/313/313 312/312/312
f 314/314/314 315/315/315 313/313/313
f 317/317/317 61/61/61 316/316/316
f 317/317/317 62/62/62 61/61/61
f 63/63/63 319/319/319 318/318/318
f 63/63/63 320/320/320 319/319/319
f 323/323/323 322/322/322 321/321/321
f 323/323/323 60/60/60 322/322/322
f 325/325/325 64/64/64 324/324/324
f 325/325/325 65/65/65 64/64/64
f 328/328/328 327/327/327 326/326/326
f 328/328/328 329/329/329 327/327/327
f 332/332/332 331/331/331 330/330/330
f 332/332/332 333/333/333 331/331/331
f 68/68/68 335/335/335 334/334/334
f 68/68/68 67/67/67 335/335/335
f 338/338/338 337/337/337 336/336/336
f 338/338/338 69/69/69 337/337/337
f 66/66/66 340/340/340 339/339/339
f 66/66/66 341/341/341 340/340/340
f 71/71/71 343/343/343 342/342/342
f 71/71/71 70/70/70 343/343/343
f 346/346/346 345/345/345 344/344/344
f 346/346/346 347/347/347 345/345/345
f 350/350/350 349/349/349 348/348/348
f 350/350/350 351/351/351 349/349/349
f 353/353/353 73/73/73 352/352/352
f 353/353/353 74/74/74 73/73/73
f 356/356/356 355/355/355 354/354/354
f 356/356/356 75/75/75 355/355/355
f 359/359/359 358/358/358 357/357/357
f 359/359/359 72/72/72 358/358/358
f 361/361/361 76/76/76 360/360/360
f 361/361/361 77/77/77 76/76/76
f 364/364/364 363/363/363 362/362/362
f 364/364/364 365/365/365 363/363/363
f 368/368/368 367/367/367 366/366/366
f 368/368/368 369/369/369 367/367/367
f 371/371/371 79/79/79 370/370/370
f 371/371/371 80/80/80 79/79/79
f 81/81/81 373/373/373 372/372/372
f 81/81/81 374/374/374 373/373/373
f 377/377/377 376/376/376 375/375/375
f 377/377/377 78/78/78 376/376/376
f 379/379/379 82/82/82 378/378/378
f 379/379/379 83/83/83 82/82/82
f 382/382/382 381/381/381 380/380/380
f 382/382/382 383/383/383 381/381/381
f 386/386/386 385/385/385 384/384/384
f 386/386/386 387/387/387 385/385/385
f 389/389/389 85/85/85 388/388/388
f 389/389/389 86/86/86 85/85/85
f 87/87/87 86/86/86 389/389/389
f 87/87/87 389/389/389 390/390/390
f 391/391/391 87/87/87 390/390/390
f 391/391/391 84/84/84 87/87/87
f 85/85/85 393/393/393 388/388/388
f 85/85/85 89/89/89 393/393/393
f 393/393/393 89/89/89 88/88/88
f 88/88/88 84/84/84 391/391/391
f 393/393/393 88/88/88 392/392/392
f 88/88/88 391/391/391 392/392/392
f 396/396/396 395/395/395 394/394/394
f 396/396/396 397/397/397 395/395/395
f 400/400/400 399/399/399 398/398/398
f 400/400/400 401/401/401 399/399/399
f 404/404/404 403/403/403 402/402/402
f 404/404/404 405/405/405 403/403/403
f 408/408/408 407/407/407 406/406/406
f 408/408/408 409/409/409 407/407/407
f 412/412/412 411/411/411 410/410/410
f 412/412/412 413/413/413 411/411/411
f 416/416/416 415/415/415 414/414/414
f 416/416/416 417/417/417 415/415/415
f 420/420/420 419/419/419 418/418/418
f 420/420/420 421/421/421 419/419/419
f 424/424/424 423/423/423 422/422/422
f 424/424/424 425/425/425 423/423/423
f 429/429/429 428/428/428 427/427/427
f 432/432/432 431/431/431 430/430/430
f 435/435/435 434/434/434 433/433/433
f 438/438/438 437/437/437 436/436/436
f 441/441/441 440/440/440 439/439/439
f 444/444/444 443/443/443 442/442/442
f 103/103/103 447/447/447 446/446/446
f 102/102/102 449/449/449 448/448/448
f 450/450/450 449/449/449 102/102/102
f 453/453/453 452/452/452 451/451/451
f 455/455/455 104/104/104 454/454/454
f 104/104/104 455/455/455 456/456/456
f 105/105/105 458/458/458 457/457/457
f 461/461/461 460/460/460 459/459/459
f 464/464/464 463/463/463 462/462/462
f 467/467/467 466/466/466 465/465/465
f 470/470/470 469/469/469 468/468/468
f 473/473/473 472/472/472 471/471/471
f 107/107/107 475/475/475 474/474/474
f 477/477/477 106/106/106 476/476/476
f 480/480/480 479/479/479 478/478/478
f 482/482/482 108/108/108 481/481/481
f 485/485/485 484/484/484 483/483/483
f 487/487/487 109/109/109 486/486/486
f 490/490/490 489/489/489 488/488/488
f 493/493/493 492/492/492 491/491/491
f 495/495/495 110/110/110 494/494/494
f 495/495/495 111/111/111 110/110/110
f 110/110/110 496/496/496 494/494/494
f 110/110/110 112/112/112 496/496/496
f 113/113/113 111/111/111 495/495/495
f 496/496/496 112/112/112 113/113/113
f 113/113/113 495/495/495 497/497/497
f 496/496/496 113/113/113 497/497/497
f 499/499/499 114/114/114 498/498/498
f 501/501/501 115/115/115 500/500/500
f 503/503/503 116/116/116 502/502/502
f 503/503/503 504/504/504 116/116/116
f 117/117/117 506/506/506 505/505/505
f 117/117/117 507/507/507 506/506/506
f 510/510/510 509/509/509 508/508/508
f 510/510/510 511/511/511 509/509/509
f 512/512/512 124/124/124 122/122/122
f 515/515/515 514/514/514 513/513/513
f 518/518/518 517/517/517 516/516/516
f 521/521/521 520/520/520 519/519/519
f 123/123/123 523/523/523 522/522/522
f 526/526/526 525/525/525 524/524/524
f 529/529/529 528/528/528 527/527/527
f 532/532/532 531/531/531 530/530/530
f 535/535/535 534/534/534 533/533/533
f 535/535/535 536/536/536 534/534/534
f 539/539/539 538/538/538 537/537/537
f 542/542/542 541/541/541 540/540/540
f 545/545/545 544/544/544 543/543/543
f 545/545/545 546/546/546 544/544/544
