g Item_SwordHolder
v -9.86781 127.0125 -14.94821
v -1.985484 120.0033 -14.94821
v -9.86781 127.0125 -17.63526
v -1.985484 120.0033 -17.63526
v 5.382821 142.996 -15.2176
v 12.10633 137.0173 -15.2176
v 12.10633 137.0173 -17.36586
v 5.382821 142.996 -17.36586
v 8.744575 140.0067 -17.83495
v 8.744575 140.0067 -14.74852
v -5.883179 123.5568 -18.22198
v -5.973046 123.4557 -14.36148
v 0.04496398 139.38 -18.36692
v -8.009086 130.3227 -18.36692
v -0.960726 136.1914 -18.82005
v -3.219185 135.7093 -17.75726
v 0.1594348 130.3521 -19.27317
v -7.993927 130.3398 -14.21654
v -3.477283 126.2624 -13.31029
v 1.011217 122.3321 -14.21654
v 1.099996 122.2532 -18.36692
v -10.83609 127.8706 -18.73123
v -10.83609 127.8706 -13.85223
v -8.354941 130.6608 -13.85223
v -8.3701 130.6437 -18.73123
v -5.987985 123.4359 -12.58197
v -3.476515 126.2602 -12.58197
v 1.368353 122.0042 -13.83842
v -1.201578 119.293 -13.83842
v -1.024787 119.1372 -18.71712
v 1.456365 121.9275 -18.71712
v 0.1594348 130.3521 -20.0018
v -5.928695 123.5056 -20.0018
v 3.637944 134.2639 -19.27317
v 11.21521 133.6284 -18.36692
v 11.17082 133.6679 -14.21654
v 3.637944 134.2639 -13.31029
v 2.121284 141.715 -14.21654
v 2.121284 141.715 -18.36692
v 3.637944 134.2639 -19.97904
v 11.56239 133.3146 -18.71758
v 8.744575 140.0067 -19.97904
v 13.63872 135.6495 -18.71758
v 11.5181 133.3535 -13.8614
v 13.63881 135.649 -13.8614
v 3.638038 134.2634 -12.60449
v 8.744668 140.0061 -12.60449
v 1.771544 142.026 -13.86361
v 3.847874 144.361 -13.86361
v 1.771544 142.026 -18.71985
v 3.847874 144.361 -18.71985
v -7.993927 130.3398 -14.21654
v 0.04496398 139.38 -18.36692
v 3.637944 134.2639 -19.27317
v -7.993927 130.3398 -14.21654
v 2.121284 141.715 -14.21654
v 0.04496398 139.38 -18.36692
v 0.04496398 139.38 -18.36692
v 2.121284 141.715 -18.36692
v 8.744575 140.0067 -14.74852
v 5.382821 142.996 -15.2176
v 1.099996 122.2532 -18.36692
v 11.21521 133.6284 -18.36692
v 11.21521 133.6284 -18.36692
v 3.637944 134.2639 -19.27317
v 0.1594348 130.3521 -19.27317
v 11.17082 133.6679 -14.21654
v 1.011217 122.3321 -14.21654
v 3.637944 134.2639 -13.31029
v -3.477283 126.2624 -13.31029
v 12.10633 137.0173 -17.36586
v 12.10633 137.0173 -15.2176
v 0.04496398 139.38 -18.36692
v -3.219185 135.7093 -17.75726
v -0.960726 136.1914 -18.82005
v -3.219185 135.7093 -17.75726
v -8.009086 130.3227 -18.36692
v -0.960726 136.1914 -18.82005
v -10.83609 127.8706 -13.85223
v -8.354941 130.6608 -13.85223
v -3.476515 126.2602 -12.58197
v -5.987985 123.4359 -12.58197
v -1.201578 119.293 -13.83842
v 1.368353 122.0042 -13.83842
v -10.83609 127.8706 -18.73123
v -8.3701 130.6437 -18.73123
v 0.1594348 130.3521 -20.0018
v -5.928695 123.5056 -20.0018
v 1.456365 121.9275 -18.71712
v -1.024787 119.1372 -18.71712
v -9.86781 127.0125 -14.94821
v -9.86781 127.0125 -17.63526
v -10.83609 127.8706 -13.85223
v -10.83609 127.8706 -18.73123
v -7.993927 130.3398 -14.21654
v -8.354941 130.6608 -13.85223
v -8.009086 130.3227 -18.36692
v -8.3701 130.6437 -18.73123
v -5.973046 123.4557 -14.36148
v -5.987985 123.4359 -12.58197
v -3.477283 126.2624 -13.31029
v -3.476515 126.2602 -12.58197
v 1.011217 122.3321 -14.21654
v 1.368353 122.0042 -13.83842
v -1.201578 119.293 -13.83842
v -1.985484 120.0033 -14.94821
v -1.024787 119.1372 -18.71712
v -1.985484 120.0033 -17.63526
v 1.099996 122.2532 -18.36692
v 1.456365 121.9275 -18.71712
v 0.1594348 130.3521 -19.27317
v -8.009086 130.3227 -18.36692
v 0.1594348 130.3521 -20.0018
v -8.009086 130.3227 -18.36692
v -8.3701 130.6437 -18.73123
v 0.1594348 130.3521 -20.0018
v -5.928695 123.5056 -20.0018
v -5.883179 123.5568 -18.22198
v 0.1594348 130.3521 -19.27317
v 0.1594348 130.3521 -20.0018
v 1.099996 122.2532 -18.36692
v 0.1594348 130.3521 -20.0018
v 1.456365 121.9275 -18.71712
v 1.099996 122.2532 -18.36692
v 13.63872 135.6495 -18.71758
v 13.63881 135.649 -13.8614
v 11.56239 133.3146 -18.71758
v 13.63872 135.6495 -18.71758
v 8.744668 140.0061 -12.60449
v 11.5181 133.3535 -13.8614
v 13.63881 135.649 -13.8614
v 3.638038 134.2634 -12.60449
v 8.744668 140.0061 -12.60449
v 3.847874 144.361 -13.86361
v 1.771544 142.026 -13.86361
v 3.847874 144.361 -13.86361
v 3.637944 134.2639 -19.97904
v 8.744575 140.0067 -19.97904
v 1.771544 142.026 -18.71985
v 3.847874 144.361 -18.71985
v 3.637944 134.2639 -19.27317
v -0.960726 136.1914 -18.82005
v 0.1594348 130.3521 -19.27317
v -8.009086 130.3227 -18.36692
v 0.1594348 130.3521 -19.27317
v 3.637944 134.2639 -19.27317
v 11.21521 133.6284 -18.36692
v 3.637944 134.2639 -19.97904
v 11.21521 133.6284 -18.36692
v 11.56239 133.3146 -18.71758
v 3.637944 134.2639 -19.97904
v 8.744575 140.0067 -19.97904
v 8.744575 140.0067 -17.83495
v 11.17082 133.6679 -14.21654
v 11.5181 133.3535 -13.8614
v 11.21521 133.6284 -18.36692
v 11.56239 133.3146 -18.71758
v 3.637944 134.2639 -13.31029
v 3.638038 134.2634 -12.60449
v 11.17082 133.6679 -14.21654
v 3.638038 134.2634 -12.60449
v 11.5181 133.3535 -13.8614
v 11.17082 133.6679 -14.21654
v 3.637944 134.2639 -13.31029
v 2.121284 141.715 -14.21654
v 3.638038 134.2634 -12.60449
v 2.121284 141.715 -14.21654
v 1.771544 142.026 -13.86361
v 3.638038 134.2634 -12.60449
v 2.121284 141.715 -18.36692
v 1.771544 142.026 -18.71985
v 2.121284 141.715 -14.21654
v 1.771544 142.026 -13.86361
v 5.382821 142.996 -17.36586
v 3.847874 144.361 -18.71985
v 3.637944 134.2639 -19.27317
v 3.637944 134.2639 -19.97904
v 2.121284 141.715 -18.36692
v 3.637944 134.2639 -19.97904
v 1.771544 142.026 -18.71985
v 2.121284 141.715 -18.36692
vt 0.02760839 0.05450499
vt 0.02760839 0.05450499
vt 0.02760839 0.05450499
vt 0.02760839 0.05450499
vt 0.03036928 0.06692564
vt 0.7330008 0.1894855
vt 0.7330008 0.1894855
vt 0.03036928 0.06692564
vt 0.03036928 0.06692564
vt 0.03036928 0.06692564
vt 0.02760834 0.05450499
vt 0.02760834 0.05450499
vt 0.2182053 0.0554179
vt 0.2182053 0.05382603
vt 0.217354 0.05496532
vt 0.2182053 0.05462199
vt 0.2165027 0.05530858
vt 0.2172524 0.05555844
vt 0.2155499 0.05544358
vt 0.2138805 0.0553422
vt 0.2148002 0.05519944
vt 0.7330008 0.1894855
vt 0.7330008 0.1894855
vt 0.7330008 0.1894855
vt 0.7330008 0.1894855
vt 0.733001 0.1894855
vt 0.733001 0.1894855
vt 0.7330008 0.1894855
vt 0.7330008 0.1894855
vt 0.7330008 0.1894855
vt 0.7330008 0.1894855
vt 0.733001 0.1894855
vt 0.733001 0.1894855
vt 0.2165027 0.0569005
vt 0.2148002 0.05679131
vt 0.2138639 0.05693293
vt 0.2155499 0.05703825
vt 0.2172524 0.0571503
vt 0.2182053 0.05700976
vt 0.733001 0.1894855
vt 0.7330008 0.1894855
vt 0.733001 0.1894855
vt 0.7330008 0.1894855
vt 0.7330008 0.1894855
vt 0.7330008 0.1894855
vt 0.733001 0.1894855
vt 0.733001 0.1894855
vt 0.7330008 0.1894855
vt 0.7330008 0.1894855
vt 0.7330008 0.1894855
vt 0.7330008 0.1894855
vt 0.2172524 0.05555844
vt 0.2182053 0.0554179
vt 0.2165027 0.0569005
vt 0.2172524 0.05555844
vt 0.2172524 0.0571503
vt 0.2182053 0.0554179
vt 0.2182053 0.0554179
vt 0.2182053 0.05700976
vt 0.733001 0.1894855
vt 0.7330008 0.1894855
vt 0.2148002 0.05519944
vt 0.2148002 0.05679131
vt 0.2148002 0.05679131
vt 0.2165027 0.0569005
vt 0.2165027 0.05530858
vt 0.2138639 0.05693293
vt 0.2138805 0.0553422
vt 0.2155499 0.05703825
vt 0.2155499 0.05544358
vt 0.03036928 0.06692564
vt 0.03036928 0.06692564
vt 0.274703 0.06554914
vt 0.274703 0.06554914
vt 0.274703 0.06554914
vt 0.274703 0.06554914
vt 0.274703 0.06554914
vt 0.274703 0.06554914
vt 0.7330008 0.1894855
vt 0.7330008 0.1894855
vt 0.733001 0.1894855
vt 0.733001 0.1894855
vt 0.7330008 0.1894855
vt 0.7330008 0.1894855
vt 0.7330008 0.1894855
vt 0.7330008 0.1894855
vt 0.733001 0.1894855
vt 0.733001 0.1894855
vt 0.7330008 0.1894855
vt 0.7330008 0.1894855
vt 0.7330008 0.1894855
vt 0.7330008 0.1894855
vt 0.7330008 0.1894855
vt 0.7330008 0.1894855
vt 0.7330008 0.1894855
vt 0.7330008 0.1894855
vt 0.7330008 0.1894855
vt 0.7330008 0.1894855
vt 0.733001 0.1894855
vt 0.733001 0.1894855
vt 0.733001 0.1894855
vt 0.733001 0.1894855
vt 0.7330008 0.1894855
vt 0.7330008 0.1894855
vt 0.7330008 0.1894855
vt 0.7330008 0.1894855
vt 0.7330008 0.1894855
vt 0.7330008 0.1894855
vt 0.7330008 0.1894855
vt 0.7330008 0.1894855
vt 0.733001 0.1894855
vt 0.7330008 0.1894855
vt 0.733001 0.1894855
vt 0.7330008 0.1894855
vt 0.7330008 0.1894855
vt 0.733001 0.1894855
vt 0.733001 0.1894855
vt 0.733001 0.1894855
vt 0.733001 0.1894855
vt 0.733001 0.1894855
vt 0.7330008 0.1894855
vt 0.733001 0.1894855
vt 0.7330008 0.1894855
vt 0.7330008 0.1894855
vt 0.7330008 0.1894855
vt 0.7330008 0.1894855
vt 0.7330008 0.1894855
vt 0.7330008 0.1894855
vt 0.733001 0.1894855
vt 0.7330008 0.1894855
vt 0.7330008 0.1894855
vt 0.733001 0.1894855
vt 0.733001 0.1894855
vt 0.7330008 0.1894855
vt 0.7330008 0.1894855
vt 0.7330008 0.1894855
vt 0.733001 0.1894855
vt 0.733001 0.1894855
vt 0.7330008 0.1894855
vt 0.7330008 0.1894855
vt 0.2165027 0.0569005
vt 0.217354 0.05496532
vt 0.2165027 0.05530858
vt 0.2182053 0.05382603
vt 0.2165027 0.05530858
vt 0.733001 0.1894855
vt 0.7330008 0.1894855
vt 0.733001 0.1894855
vt 0.7330008 0.1894855
vt 0.7330008 0.1894855
vt 0.733001 0.1894855
vt 0.733001 0.1894855
vt 0.733001 0.1894855
vt 0.7330008 0.1894855
vt 0.7330008 0.1894855
vt 0.7330008 0.1894855
vt 0.7330008 0.1894855
vt 0.733001 0.1894855
vt 0.733001 0.1894855
vt 0.7330008 0.1894855
vt 0.733001 0.1894855
vt 0.7330008 0.1894855
vt 0.7330008 0.1894855
vt 0.733001 0.1894855
vt 0.7330008 0.1894855
vt 0.733001 0.1894855
vt 0.7330008 0.1894855
vt 0.7330008 0.1894855
vt 0.733001 0.1894855
vt 0.7330008 0.1894855
vt 0.7330008 0.1894855
vt 0.7330008 0.1894855
vt 0.7330008 0.1894855
vt 0.7330008 0.1894855
vt 0.7330008 0.1894855
vt 0.733001 0.1894855
vt 0.733001 0.1894855
vt 0.7330008 0.1894855
vt 0.733001 0.1894855
vt 0.7330008 0.1894855
vt 0.7330008 0.1894855
vn -0.6708817 -0.7415289 -0.007261182
vn -0.6630992 -0.7484111 -0.01343114
vn -0.6646584 -0.7471178 -0.006648303
vn -0.6715835 -0.7408775 0.008724405
vn 0.6645097 0.7472797 4.854176E-05
vn 0.6652194 0.7466478 0.0003913583
vn 0.6649143 0.7469196 -0.000299563
vn 0.6645064 0.7472826 0
vn 0.664507 0.747282 0
vn 0.664507 0.747282 5.770993E-05
vn -0.6629717 -0.7482804 -0.02334206
vn -0.6636929 -0.7477492 -0.0195681
vn -0.1100863 0.09789218 -0.9890895
vn -0.7472825 0.6645065 0
vn -0.03400566 0.1511173 -0.9879308
vn -0.7472827 0.6645063 0
vn 0.1100863 -0.09789224 -0.9890895
vn -0.1100863 0.09789215 0.9890895
vn -0.1100864 0.09789223 0.9890895
vn 0.744378 -0.6671451 0.02861447
vn 0.7458122 -0.6658103 0.02146339
vn -0.747281 0.6645082 0
vn -0.7472807 0.6645084 0
vn -0.7472806 0.6645086 0
vn -0.7472807 0.6645084 0
vn -0.1418588 0.1261455 0.9818164
vn -0.1418587 0.1261456 0.9818164
vn 0.1388931 -0.1316524 0.9815174
vn 0.1421949 -0.1305165 0.9811963
vn 0.7361453 -0.6758615 0.03607401
vn 0.7470684 -0.6643163 0.02393132
vn -0.1419339 0.1262121 -0.981797
vn -0.1419337 0.1262122 -0.981797
vn -0.1100863 0.09789218 -0.9890895
vn 0.7472055 -0.664439 0.01431115
vn 0.7458122 -0.6658103 0.02146339
vn -0.1100863 0.09789215 0.9890895
vn -0.1100863 0.09789208 0.9890895
vn -0.1100863 0.09789218 -0.9890895
vn 0.1412672 -0.1256191 -0.9819692
vn 0.1412672 -0.1256191 -0.9819692
vn 0.1412672 -0.1256191 -0.9819692
vn 0.6656797 0.7462374 -0.0004738109
vn 0.7344609 -0.6785426 0.01213627
vn 0.6655877 0.7463191 0.0008918327
vn 0.1420162 -0.1262854 0.9817756
vn 0.6646847 0.7471238 0.0005307795
vn -0.1410039 0.125385 0.9820369
vn 0.6645215 0.7472692 3.478759E-05
vn -0.7472829 0.664506 0
vn -0.7472829 0.664506 0
vn -0.1100863 0.09789215 0.9890895
vn -0.03400566 0.1511173 -0.9879308
vn -0.03400566 0.1511173 -0.9879308
vn -0.7472825 0.6645064 0
vn -0.7472826 0.6645063 0
vn -0.7472826 0.6645063 0
vn -0.7472826 0.6645063 0
vn -0.7472824 0.6645066 0
vn 0.664507 0.747282 5.770993E-05
vn 0.6645097 0.7472797 4.854176E-05
vn 0.1100864 -0.09789234 -0.9890895
vn 0.1100863 -0.09789224 -0.9890895
vn 0.1100863 -0.09789224 -0.9890895
vn 0.1100863 -0.09789214 -0.9890895
vn 0.1100863 -0.09789224 -0.9890895
vn 0.1110827 -0.09955734 0.9888119
vn 0.1116562 -0.09967777 0.9887351
vn 0.1116562 -0.09967777 0.9887351
vn 0.1122297 -0.09979816 0.9886581
vn 0.6649143 0.7469196 -0.000299563
vn 0.6652194 0.7466478 0.0003913583
vn -0.4562863 0.2646419 -0.849569
vn -0.4562863 0.2646419 -0.849569
vn -0.4562863 0.2646419 -0.849569
vn -0.4547197 0.4886292 -0.7446285
vn -0.4547197 0.4886292 -0.7446285
vn -0.4547197 0.4886292 -0.7446285
vn -0.1418587 0.1261456 0.9818164
vn -0.1418587 0.1261458 0.9818164
vn 0.1421949 -0.1305165 0.9811963
vn 0.1454949 -0.1293788 0.980863
vn 0.7249278 -0.6871363 0.04820227
vn 0.7361453 -0.6758615 0.03607401
vn -0.1419336 0.1262123 -0.981797
vn -0.1419337 0.1262122 -0.981797
vn 0.1434603 -0.1275695 -0.9813996
vn 0.1434604 -0.1275695 -0.9813996
vn 0.1434604 -0.1275695 -0.9813996
vn 0.1434604 -0.1275694 -0.9813996
vn -0.6708817 -0.7415289 -0.007261182
vn -0.6625662 -0.7490028 0.0008691944
vn -0.6664169 -0.7455623 -0.005050369
vn -0.66379 -0.7479185 0.0008846772
vn 0.6666952 0.7453296 0.001168671
vn 0.6657655 0.7461606 -0.0008906512
vn 0.6642722 0.7474734 -0.005085354
vn 0.6671349 0.7449222 -0.004675011
vn -0.6636929 -0.7477492 -0.0195681
vn -0.6646861 -0.7469661 -0.0152968
vn 0.664453 0.7473285 0.001523133
vn 0.6652044 0.7466155 0.008267344
vn 0.6682785 0.7438848 0.006265738
vn 0.6695949 0.7426366 0.01156123
vn -0.6662087 -0.745739 -0.006266971
vn -0.6630992 -0.7484111 -0.01343114
vn -0.6679643 -0.7441888 0.002582732
vn -0.6715835 -0.7408775 0.008724405
vn 0.6748595 0.7379462 0.0003970157
vn 0.6754128 0.7374396 0.0004972951
vn -0.003597743 0.9999935 0
vn -0.003597743 0.9999935 0
vn -0.003597743 0.9999935 0
vn 0.1152133 0.7991277 0.5900176
vn 0.1152133 0.7991277 0.5900176
vn 0.1152133 0.7991277 0.5900176
vn -0.6646926 -0.7468187 0.02110871
vn -0.6640159 -0.7467288 0.03845647
vn 0.9933239 0.1153587 0
vn 0.9933239 0.1153587 0
vn 0.9933239 0.1153587 0
vn 0.7762023 0.2101381 0.5944341
vn 0.7762023 0.2101381 0.5944341
vn 0.7762023 0.2101381 0.5944341
vn 0.1412673 -0.1256191 -0.9819692
vn 0.7409192 -0.6715672 0.006021732
vn 0.7409192 -0.6715672 0.006021732
vn 0.7472828 -0.6645061 -9.357804E-05
vn 0.1402044 -0.1270708 0.9819347
vn 0.1402044 -0.1270708 0.9819347
vn 0.1383922 -0.1278556 0.9820899
vn -0.1410038 0.1253852 0.9820369
vn -0.1410039 0.125385 0.9820369
vn -0.1410039 0.1253848 0.9820369
vn -0.7472829 0.664506 0
vn -0.7472829 0.664506 0
vn -0.1410206 0.1253999 -0.9820326
vn -0.1410207 0.1253998 -0.9820326
vn -0.1410207 0.1253998 -0.9820326
vn -0.1410207 0.1253997 -0.9820326
vn -0.07145186 0.06353718 -0.9954184
vn -0.09089111 0.05970347 -0.9940696
vn -0.09089111 0.05970347 -0.9940696
vn -0.1102945 0.0558462 -0.9923287
vn -0.09089111 0.05970347 -0.9940696
vn -0.08357965 -0.9965011 0
vn -0.08357965 -0.9965011 0
vn -0.08357965 -0.9965011 0
vn -0.1849176 -0.8161942 0.5473869
vn -0.1849176 -0.8161942 0.5473869
vn -0.1849176 -0.8161942 0.5473869
vn 0.6646692 0.7471377 -0.0003751923
vn 0.664507 0.747282 0
vn -0.6710638 -0.7413995 -0.0001257655
vn -0.6708658 -0.7415788 -0.0001500224
vn -0.6708658 -0.7415788 -0.0001500224
vn -0.6706676 -0.741758 -0.0001742792
vn -0.07897456 -0.9968764 -0.0007869509
vn -0.07897456 -0.9968764 -0.0007869509
vn -0.07897456 -0.9968764 -0.0007869509
vn -0.1815523 -0.8176708 -0.5463088
vn -0.1815523 -0.8176708 -0.5463088
vn -0.1815523 -0.8176708 -0.5463088
vn -0.9799054 -0.1994625 -2.97953E-05
vn -0.9799054 -0.1994625 -2.97953E-05
vn -0.9799054 -0.1994625 -2.97953E-05
vn -0.793586 -0.278558 -0.5409499
vn -0.793586 -0.278558 -0.5409499
vn -0.793586 -0.278558 -0.5409499
vn -0.6644952 -0.7472925 0
vn -0.6644952 -0.7472925 0
vn -0.6644952 -0.7472925 0
vn -0.6644952 -0.7472925 0
vn 0.6645064 0.7472826 0
vn 0.6645049 0.747284 0
vn -0.9799061 -0.199459 0
vn -0.9799061 -0.199459 0
vn -0.9799061 -0.199459 0
vn -0.793588 -0.2785722 0.5409395
vn -0.793588 -0.2785722 0.5409395
vn -0.793588 -0.2785722 0.5409395
g Item_SwordHolder_0
f 37/37/37 18/18/18 19/19/19
f 37/37/37 38/38/38 52/52/52
f 10/10/10 8/8/8 5/5/5
f 10/10/10 9/9/9 8/8/8
f 10/10/10 71/71/71 9/9/9
f 10/10/10 72/72/72 71/71/71
f 34/34/34 13/13/13 39/39/39
f 54/54/54 15/15/15 53/53/53
f 21/21/21 36/36/36 20/20/20
f 21/21/21 35/35/35 36/36/36
f 55/55/55 16/16/16 14/14/14
f 56/56/56 16/16/16 55/55/55
f 56/56/56 57/57/57 16/16/16
f 59/59/59 58/58/58 56/56/56
f 61/61/61 47/47/47 60/60/60
f 61/61/61 49/49/49 47/47/47
f 47/47/47 6/6/6 60/60/60
f 47/47/47 45/45/45 6/6/6
f 6/6/6 45/45/45 43/43/43
f 6/6/6 43/43/43 7/7/7
f 152/152/152 7/7/7 43/43/43
f 152/152/152 153/153/153 7/7/7
f 175/175/175 49/49/49 61/61/61
f 175/175/175 61/61/61 174/174/174
f 152/152/152 174/174/174 153/153/153
f 152/152/152 175/175/175 174/174/174
f 17/17/17 63/63/63 62/62/62
f 66/66/66 65/65/65 64/64/64
f 69/69/69 68/68/68 67/67/67
f 69/69/69 70/70/70 68/68/68
f 75/75/75 74/74/74 73/73/73
f 78/78/78 77/77/77 76/76/76
f 3/3/3 12/12/12 1/1/1
f 3/3/3 11/11/11 12/12/12
f 11/11/11 2/2/2 12/12/12
f 11/11/11 4/4/4 2/2/2
f 23/23/23 25/25/25 22/22/22
f 23/23/23 24/24/24 25/25/25
f 27/27/27 79/79/79 26/26/26
f 27/27/27 80/80/80 79/79/79
f 81/81/81 29/29/29 28/28/28
f 81/81/81 82/82/82 29/29/29
f 30/30/30 84/84/84 83/83/83
f 30/30/30 31/31/31 84/84/84
f 86/86/86 33/33/33 85/85/85
f 86/86/86 32/32/32 33/33/33
f 89/89/89 88/88/88 87/87/87
f 89/89/89 90/90/90 88/88/88
f 93/93/93 92/92/92 91/91/91
f 93/93/93 94/94/94 92/92/92
f 100/100/100 93/93/93 91/91/91
f 100/100/100 91/91/91 99/99/99
f 100/100/100 99/99/99 106/106/106
f 100/100/100 106/106/106 105/105/105
f 105/105/105 106/106/106 108/108/108
f 105/105/105 108/108/108 107/107/107
f 117/117/117 92/92/92 94/94/94
f 117/117/117 107/107/107 108/108/108
f 117/117/117 118/118/118 92/92/92
f 117/117/117 108/108/108 118/118/118
f 97/97/97 96/96/96 95/95/95
f 97/97/97 98/98/98 96/96/96
f 95/95/95 96/96/96 102/102/102
f 95/95/95 102/102/102 101/101/101
f 102/102/102 103/103/103 101/101/101
f 102/102/102 104/104/104 103/103/103
f 103/103/103 104/104/104 110/110/110
f 103/103/103 110/110/110 109/109/109
f 113/113/113 112/112/112 111/111/111
f 116/116/116 115/115/115 114/114/114
f 121/121/121 120/120/120 119/119/119
f 124/124/124 123/123/123 122/122/122
f 42/42/42 41/41/41 40/40/40
f 42/42/42 125/125/125 41/41/41
f 127/127/127 126/126/126 44/44/44
f 127/127/127 128/128/128 126/126/126
f 130/130/130 129/129/129 46/46/46
f 130/130/130 131/131/131 129/129/129
f 133/133/133 48/48/48 132/132/132
f 133/133/133 134/134/134 48/48/48
f 135/135/135 51/51/51 50/50/50
f 135/135/135 136/136/136 51/51/51
f 139/139/139 138/138/138 137/137/137
f 139/139/139 140/140/140 138/138/138
f 143/143/143 142/142/142 141/141/141
f 145/145/145 144/144/144 142/142/142
f 148/148/148 147/147/147 146/146/146
f 151/151/151 150/150/150 149/149/149
f 156/156/156 155/155/155 154/154/154
f 156/156/156 157/157/157 155/155/155
f 160/160/160 159/159/159 158/158/158
f 163/163/163 162/162/162 161/161/161
f 166/166/166 165/165/165 164/164/164
f 169/169/169 168/168/168 167/167/167
f 172/172/172 171/171/171 170/170/170
f 172/172/172 173/173/173 171/171/171
f 178/178/178 177/177/177 176/176/176
f 181/181/181 180/180/180 179/179/179
