g Item_CoinBag
v 3.186663 -5.976898 -5.053931
v -4.200704 -5.326523 -4.656613
v 3.505934 2.954865 -2.043612
v -2.636732 3.495674 -1.713235
v 3.687289 1.370277 3.922126
v -2.455379 1.911079 4.252501
v 3.404767 -7.882568 2.120671
v -3.98261 -7.232193 2.517989
v -4.914434 -0.9549026 -4.607646
v 0.4594159 3.975471 -2.645335
v 4.576516 2.591812 1.02344
v -3.421541 3.295944 1.453603
v 0.6955514 1.912277 5.122375
v 4.934645 -4.264999 4.168927
v -4.631994 -3.422745 4.683461
v -0.3835044 -9.190369 3.233756
v 4.455744 -8.343048 -1.87729
v -5.51719 -7.465034 -1.340909
v -0.6779342 -6.617714 -6.451957
v 4.652199 -1.79715 -5.122172
v -0.1933265 -1.019737 -6.604741
v 0.1933198 -4.398026 6.114087
v -0.755651 -10.10583 -2.187087
v -6.548002 -2.132401 0.1068468
v 6.548002 -3.285355 -0.5975027
v 2.215054 4.863434 0.1243448
v 0.704329 5.272812 -0.217885
v 2.752844 4.584351 1.607554
v -0.8094745 5.1297 0.287015
v -1.226686 4.934692 1.821584
v -0.7201819 4.349487 3.224439
v 0.8218198 4.246231 3.647027
v 2.304354 4.083214 3.061768
v 3.516989 9.81694 -0.1185027
v 0.4240098 10.10583 -0.9098043
v 4.594857 9.585594 2.89285
v -2.048463 7.824654 -0.2088919
v -3.123579 7.91465 2.814012
v -1.840086 6.604431 5.278148
v 0.8923821 7.495323 6.604741
v 3.852892 7.883377 5.506173
v -0.9289985 6.297722 0.2728033
v -1.230487 6.082619 2.120988
v -0.7935824 5.426132 3.78382
v 0.9491811 5.387436 3.939128
v 2.427042 5.290916 3.374303
v 2.772851 5.657997 1.892123
v 2.306704 6.028435 0.460885
v 0.8209176 6.291245 0.09720135
v -1.111803 5.211517 0.002736092
v -1.615915 4.96109 1.835746
v -1.584749 6.245682 2.173415
v -1.201536 6.540619 0.08250535
v -1.005319 4.276077 3.519727
v -1.048225 5.535789 4.080512
v 0.8397012 4.13636 4.023877
v 0.9661355 5.366692 4.337796
v 2.616404 3.958557 3.324964
v 2.768076 5.220695 3.678155
v 3.153721 4.543823 1.579925
v 3.209662 5.651733 1.872621
v 2.509203 4.894547 -0.1910105
v 2.639052 6.106323 0.120204
v 0.6991105 5.368774 -0.6073942
v 0.8134751 6.447044 -0.2721148
v 2.28575 9.28801 1.136182
v 0.5156159 9.462349 0.6813745
v 0.8644223 4.680656 1.904788
v 2.908951 9.168381 2.862387
v -0.9299521 8.002968 0.9609632
v -1.586076 8.264984 2.83631
v -0.8508048 7.517761 4.326907
v 0.7842889 7.996422 5.030557
v 2.489062 8.200958 4.370452
v 3.186663 -5.976898 -5.053931
v -0.1933265 -1.019737 -6.604741
v -0.6779342 -6.617714 -6.451957
v -0.1933265 -1.019737 -6.604741
v -0.1933265 -1.019737 -6.604741
v -4.200704 -5.326523 -4.656613
v -4.914434 -0.9549026 -4.607646
v -0.1933265 -1.019737 -6.604741
v 4.652199 -1.79715 -5.122172
v -0.1933265 -1.019737 -6.604741
v 0.4594159 3.975471 -2.645335
v 0.8644223 4.680656 1.904788
v 0.8644223 4.680656 1.904788
v 2.908951 9.168381 2.862387
v 0.8644223 4.680656 1.904788
v 0.6955514 1.912277 5.122375
v 0.1933198 -4.398026 6.114087
v -4.631994 -3.422745 4.683461
v 0.1933198 -4.398026 6.114087
v 0.1933198 -4.398026 6.114087
v -3.98261 -7.232193 2.517989
v 4.934645 -4.264999 4.168927
v 0.1933198 -4.398026 6.114087
v 3.404767 -7.882568 2.120671
v -0.3835044 -9.190369 3.233756
v 0.1933198 -4.398026 6.114087
v -0.3835044 -9.190369 3.233756
v 3.404767 -7.882568 2.120671
v 3.404767 -7.882568 2.120671
v -0.755651 -10.10583 -2.187087
v -0.3835044 -9.190369 3.233756
v -0.755651 -10.10583 -2.187087
v -3.98261 -7.232193 2.517989
v -0.755651 -10.10583 -2.187087
v -3.98261 -7.232193 2.517989
v -5.51719 -7.465034 -1.340909
v -0.755651 -10.10583 -2.187087
v -4.200704 -5.326523 -4.656613
v -0.755651 -10.10583 -2.187087
v -0.6779342 -6.617714 -6.451957
v -4.200704 -5.326523 -4.656613
v 4.455744 -8.343048 -1.87729
v 3.186663 -5.976898 -5.053931
v -0.755651 -10.10583 -2.187087
v 3.186663 -5.976898 -5.053931
v -0.6779342 -6.617714 -6.451957
v -0.755651 -10.10583 -2.187087
v -5.51719 -7.465034 -1.340909
v -4.200704 -5.326523 -4.656613
v -4.200704 -5.326523 -4.656613
v -4.914434 -0.9549026 -4.607646
v -6.548002 -2.132401 0.1068468
v -5.51719 -7.465034 -1.340909
v -6.548002 -2.132401 0.1068468
v -3.98261 -7.232193 2.517989
v -6.548002 -2.132401 0.1068468
v -4.631994 -3.422745 4.683461
v -3.98261 -7.232193 2.517989
v -4.631994 -3.422745 4.683461
v -6.548002 -2.132401 0.1068468
v -2.455379 1.911079 4.252501
v -4.914434 -0.9549026 -4.607646
v -2.636732 3.495674 -1.713235
v -6.548002 -2.132401 0.1068468
v -3.421541 3.295944 1.453603
v 4.455744 -8.343048 -1.87729
v 3.404767 -7.882568 2.120671
v 3.404767 -7.882568 2.120671
v 4.934645 -4.264999 4.168927
v 6.548002 -3.285355 -0.5975027
v 4.455744 -8.343048 -1.87729
v 6.548002 -3.285355 -0.5975027
v 3.186663 -5.976898 -5.053931
v 6.548002 -3.285355 -0.5975027
v 4.652199 -1.79715 -5.122172
v 3.186663 -5.976898 -5.053931
v 4.652199 -1.79715 -5.122172
v 6.548002 -3.285355 -0.5975027
v 3.505934 2.954865 -2.043612
v 4.934645 -4.264999 4.168927
v 3.687289 1.370277 3.922126
v 6.548002 -3.285355 -0.5975027
v 4.576516 2.591812 1.02344
v 3.505934 2.954865 -2.043612
v 0.4594159 3.975471 -2.645335
v 3.505934 2.954865 -2.043612
v 4.576516 2.591812 1.02344
v 2.215054 4.863434 0.1243448
v 2.215054 4.863434 0.1243448
v -2.636732 3.495674 -1.713235
v 0.4594159 3.975471 -2.645335
v 0.704329 5.272812 -0.217885
v -2.636732 3.495674 -1.713235
v -0.8094745 5.1297 0.287015
v -3.421541 3.295944 1.453603
v -2.455379 1.911079 4.252501
v -3.421541 3.295944 1.453603
v -1.226686 4.934692 1.821584
v -2.455379 1.911079 4.252501
v -0.7201819 4.349487 3.224439
v 0.6955514 1.912277 5.122375
v 3.687289 1.370277 3.922126
v 0.6955514 1.912277 5.122375
v 0.8218198 4.246231 3.647027
v 3.687289 1.370277 3.922126
v 2.304354 4.083214 3.061768
v 4.576516 2.591812 1.02344
v 2.752844 4.584351 1.607554
v 2.306704 6.028435 0.460885
v 3.516989 9.81694 -0.1185027
v 0.8209176 6.291245 0.09720135
v 0.8209176 6.291245 0.09720135
v 0.4240098 10.10583 -0.9098043
v -2.048463 7.824654 -0.2088919
v -0.9289985 6.297722 0.2728033
v -2.048463 7.824654 -0.2088919
v -2.048463 7.824654 -0.2088919
v -1.230487 6.082619 2.120988
v -1.230487 6.082619 2.120988
v -1.230487 6.082619 2.120988
v -3.123579 7.91465 2.814012
v -1.840086 6.604431 5.278148
v -0.7935824 5.426132 3.78382
v -1.840086 6.604431 5.278148
v 0.9491811 5.387436 3.939128
v 0.9491811 5.387436 3.939128
v 0.8923821 7.495323 6.604741
v 3.852892 7.883377 5.506173
v 2.427042 5.290916 3.374303
v 3.852892 7.883377 5.506173
v 2.772851 5.657997 1.892123
v 3.852892 7.883377 5.506173
v 4.594857 9.585594 2.89285
v 2.772851 5.657997 1.892123
v -1.201536 6.540619 0.08250535
v -1.615915 4.96109 1.835746
v -1.615915 4.96109 1.835746
v -1.615915 4.96109 1.835746
v -1.584749 6.245682 2.173415
v -1.048225 5.535789 4.080512
v -1.005319 4.276077 3.519727
v -1.048225 5.535789 4.080512
v -1.048225 5.535789 4.080512
v 0.8397012 4.13636 4.023877
v 0.8397012 4.13636 4.023877
v 0.9661355 5.366692 4.337796
v 2.616404 3.958557 3.324964
v 2.768076 5.220695 3.678155
v 2.768076 5.220695 3.678155
v 3.153721 4.543823 1.579925
v 3.153721 4.543823 1.579925
v 3.153721 4.543823 1.579925
v 3.209662 5.651733 1.872621
v 2.639052 6.106323 0.120204
v 2.509203 4.894547 -0.1910105
v 2.639052 6.106323 0.120204
v 2.639052 6.106323 0.120204
v 0.6991105 5.368774 -0.6073942
v 0.6991105 5.368774 -0.6073942
v 0.8134751 6.447044 -0.2721148
v -1.111803 5.211517 0.002736092
v 0.8134751 6.447044 -0.2721148
v -1.201536 6.540619 0.08250535
v -1.111803 5.211517 0.002736092
v -1.226686 4.934692 1.821584
v -0.8094745 5.1297 0.287015
v -1.615915 4.96109 1.835746
v -1.111803 5.211517 0.002736092
v -1.230487 6.082619 2.120988
v -1.584749 6.245682 2.173415
v -0.9289985 6.297722 0.2728033
v -1.584749 6.245682 2.173415
v -1.201536 6.540619 0.08250535
v -0.9289985 6.297722 0.2728033
v -1.226686 4.934692 1.821584
v -1.615915 4.96109 1.835746
v -0.7201819 4.349487 3.224439
v -1.005319 4.276077 3.519727
v -1.230487 6.082619 2.120988
v -0.7935824 5.426132 3.78382
v -1.584749 6.245682 2.173415
v -0.7935824 5.426132 3.78382
v -1.048225 5.535789 4.080512
v -1.584749 6.245682 2.173415
v 0.8218198 4.246231 3.647027
v -0.7201819 4.349487 3.224439
v 0.8397012 4.13636 4.023877
v -1.005319 4.276077 3.519727
v 0.8397012 4.13636 4.023877
v 0.9491811 5.387436 3.939128
v 0.9661355 5.366692 4.337796
v -0.7935824 5.426132 3.78382
v 0.9661355 5.366692 4.337796
v -1.048225 5.535789 4.080512
v -0.7935824 5.426132 3.78382
v 0.8218198 4.246231 3.647027
v 0.8397012 4.13636 4.023877
v 2.304354 4.083214 3.061768
v 2.616404 3.958557 3.324964
v 0.9491811 5.387436 3.939128
v 2.427042 5.290916 3.374303
v 0.9661355 5.366692 4.337796
v 2.427042 5.290916 3.374303
v 2.768076 5.220695 3.678155
v 0.9661355 5.366692 4.337796
v 2.752844 4.584351 1.607554
v 2.304354 4.083214 3.061768
v 3.153721 4.543823 1.579925
v 2.304354 4.083214 3.061768
v 2.616404 3.958557 3.324964
v 2.772851 5.657997 1.892123
v 3.209662 5.651733 1.872621
v 2.427042 5.290916 3.374303
v 2.768076 5.220695 3.678155
v 2.752844 4.584351 1.607554
v 3.153721 4.543823 1.579925
v 2.215054 4.863434 0.1243448
v 2.509203 4.894547 -0.1910105
v 2.215054 4.863434 0.1243448
v 2.306704 6.028435 0.460885
v 2.639052 6.106323 0.120204
v 0.704329 5.272812 -0.217885
v 2.215054 4.863434 0.1243448
v 0.6991105 5.368774 -0.6073942
v 2.509203 4.894547 -0.1910105
v 0.8209176 6.291245 0.09720135
v 0.8134751 6.447044 -0.2721148
v 2.306704 6.028435 0.460885
v 0.8134751 6.447044 -0.2721148
v 2.639052 6.106323 0.120204
v 2.306704 6.028435 0.460885
v 0.704329 5.272812 -0.217885
v 0.6991105 5.368774 -0.6073942
v -0.8094745 5.1297 0.287015
v 0.6991105 5.368774 -0.6073942
v -1.111803 5.211517 0.002736092
v -0.9289985 6.297722 0.2728033
v -0.9289985 6.297722 0.2728033
v -1.201536 6.540619 0.08250535
v 0.8134751 6.447044 -0.2721148
v 3.516989 9.81694 -0.1185027
v 2.28575 9.28801 1.136182
v 0.4240098 10.10583 -0.9098043
v 2.28575 9.28801 1.136182
v 0.5156159 9.462349 0.6813745
v 0.4240098 10.10583 -0.9098043
v 3.516989 9.81694 -0.1185027
v 4.594857 9.585594 2.89285
v 2.28575 9.28801 1.136182
v 2.908951 9.168381 2.862387
v -2.048463 7.824654 -0.2088919
v 0.4240098 10.10583 -0.9098043
v -0.9299521 8.002968 0.9609632
v 0.4240098 10.10583 -0.9098043
v 0.5156159 9.462349 0.6813745
v -0.9299521 8.002968 0.9609632
v -2.048463 7.824654 -0.2088919
v -0.9299521 8.002968 0.9609632
v -3.123579 7.91465 2.814012
v -0.9299521 8.002968 0.9609632
v -1.586076 8.264984 2.83631
v -3.123579 7.91465 2.814012
v -1.840086 6.604431 5.278148
v -3.123579 7.91465 2.814012
v -0.8508048 7.517761 4.326907
v -1.586076 8.264984 2.83631
v -1.840086 6.604431 5.278148
v -0.8508048 7.517761 4.326907
v 0.8923821 7.495323 6.604741
v -0.8508048 7.517761 4.326907
v 0.8923821 7.495323 6.604741
v 3.852892 7.883377 5.506173
v 0.8923821 7.495323 6.604741
v 2.489062 8.200958 4.370452
v 0.7842889 7.996422 5.030557
v 3.852892 7.883377 5.506173
v 2.489062 8.200958 4.370452
v 4.594857 9.585594 2.89285
v 2.908951 9.168381 2.862387
v 2.28575 9.28801 1.136182
v 0.8644223 4.680656 1.904788
v 0.5156159 9.462349 0.6813745
v 2.489062 8.200958 4.370452
v 0.7842889 7.996422 5.030557
v 0.8644223 4.680656 1.904788
v 0.8644223 4.680656 1.904788
v 0.7842889 7.996422 5.030557
v -0.8508048 7.517761 4.326907
v 0.8644223 4.680656 1.904788
v -1.586076 8.264984 2.83631
v -0.9299521 8.002968 0.9609632
vt 0.6123047 0.2956543
vt 0.6157227 0.2954102
vt 0.612793 0.3005371
vt 0.6157227 0.3005371
vt 0.6147461 0.3007813
vt 0.6171875 0.3005371
vt 0.6147461 0.2956543
vt 0.6176758 0.2956543
vt 0.6157227 0.2976074
vt 0.6137695 0.3007813
vt 0.6132813 0.3010254
vt 0.6166992 0.3007813
vt 0.6162109 0.3010254
vt 0.6142578 0.2978516
vt 0.6186523 0.2978516
vt 0.6166992 0.2949219
vt 0.612793 0.2949219
vt 0.6171875 0.2946777
vt 0.6137695 0.2946777
vt 0.6113281 0.2978516
vt 0.6132813 0.2976074
vt 0.6171875 0.2978516
vt 0.6152344 0.2937012
vt 0.6181641 0.2976074
vt 0.6123047 0.2978516
vt 0.6137695 0.3017578
vt 0.6142578 0.302002
vt 0.6142578 0.302002
vt 0.6152344 0.3017578
vt 0.6157227 0.302002
vt 0.6162109 0.3017578
vt 0.6157227 0.302002
vt 0.6147461 0.302002
vt 0.6132813 0.3044434
vt 0.6142578 0.3041992
vt 0.6137695 0.3049316
vt 0.6157227 0.3029785
vt 0.6171875 0.3034668
vt 0.6171875 0.3032227
vt 0.6166992 0.3041992
vt 0.6147461 0.3041992
vt 0.6152344 0.3024902
vt 0.6162109 0.3024902
vt 0.6162109 0.3024902
vt 0.6157227 0.3024902
vt 0.6147461 0.3024902
vt 0.6142578 0.3024902
vt 0.6137695 0.3024902
vt 0.6142578 0.3024902
vt 0.03890991 0.06292725
vt 0.03213501 0.06210327
vt 0.03201294 0.05737305
vt 0.03942871 0.05844116
vt 0.02729797 0.06210327
vt 0.02633667 0.05728149
vt 0.02857971 0.06072998
vt 0.02865601 0.05612183
vt 0.03353882 0.06085205
vt 0.03353882 0.05609131
vt 0.04034424 0.0604248
vt 0.0402832 0.05633545
vt 0.0451355 0.06164551
vt 0.04522705 0.05712891
vt 0.04388428 0.0617981
vt 0.04376221 0.05770874
vt 0.6142578 0.3041992
vt 0.6147461 0.3041992
vt 0.6147461 0.3027344
vt 0.6142578 0.3044434
vt 0.6152344 0.3034668
vt 0.6162109 0.3037109
vt 0.6166992 0.3037109
vt 0.6162109 0.3041992
vt 0.6152344 0.3041992
vt 0.6123047 0.2956543
vt 0.6132813 0.2976074
vt 0.6137695 0.2946777
vt 0.6132813 0.2976074
vt 0.6132813 0.2976074
vt 0.6157227 0.2954102
vt 0.6157227 0.2976074
vt 0.6132813 0.2976074
vt 0.6113281 0.2978516
vt 0.6132813 0.2976074
vt 0.6137695 0.3007813
vt 0.6147461 0.3027344
vt 0.6147461 0.3027344
vt 0.6142578 0.3044434
vt 0.6147461 0.3027344
vt 0.6162109 0.3010254
vt 0.6171875 0.2978516
vt 0.6186523 0.2978516
vt 0.6171875 0.2978516
vt 0.6171875 0.2978516
vt 0.6176758 0.2956543
vt 0.6142578 0.2978516
vt 0.6171875 0.2978516
vt 0.6147461 0.2956543
vt 0.6166992 0.2949219
vt 0.6171875 0.2978516
vt 0.6166992 0.2949219
vt 0.6147461 0.2956543
vt 0.6147461 0.2956543
vt 0.6152344 0.2937012
vt 0.6166992 0.2949219
vt 0.6152344 0.2937012
vt 0.6176758 0.2956543
vt 0.6152344 0.2937012
vt 0.6176758 0.2956543
vt 0.6171875 0.2946777
vt 0.6152344 0.2937012
vt 0.6157227 0.2954102
vt 0.6152344 0.2937012
vt 0.6137695 0.2946777
vt 0.6157227 0.2954102
vt 0.612793 0.2949219
vt 0.6123047 0.2956543
vt 0.6152344 0.2937012
vt 0.6123047 0.2956543
vt 0.6137695 0.2946777
vt 0.6152344 0.2937012
vt 0.6171875 0.2946777
vt 0.6157227 0.2954102
vt 0.6157227 0.2954102
vt 0.6157227 0.2976074
vt 0.6181641 0.2976074
vt 0.6171875 0.2946777
vt 0.6181641 0.2976074
vt 0.6176758 0.2956543
vt 0.6181641 0.2976074
vt 0.6186523 0.2978516
vt 0.6176758 0.2956543
vt 0.6186523 0.2978516
vt 0.6181641 0.2976074
vt 0.6171875 0.3005371
vt 0.6157227 0.2976074
vt 0.6157227 0.3005371
vt 0.6181641 0.2976074
vt 0.6166992 0.3007813
vt 0.612793 0.2949219
vt 0.6147461 0.2956543
vt 0.6147461 0.2956543
vt 0.6142578 0.2978516
vt 0.6123047 0.2978516
vt 0.612793 0.2949219
vt 0.6123047 0.2978516
vt 0.6123047 0.2956543
vt 0.6123047 0.2978516
vt 0.6113281 0.2978516
vt 0.6123047 0.2956543
vt 0.6113281 0.2978516
vt 0.6123047 0.2978516
vt 0.612793 0.3005371
vt 0.6142578 0.2978516
vt 0.6147461 0.3007813
vt 0.6123047 0.2978516
vt 0.6132813 0.3010254
vt 0.612793 0.3005371
vt 0.6137695 0.3007813
vt 0.612793 0.3005371
vt 0.6132813 0.3010254
vt 0.6137695 0.3017578
vt 0.6137695 0.3017578
vt 0.6157227 0.3005371
vt 0.6137695 0.3007813
vt 0.6142578 0.302002
vt 0.6157227 0.3005371
vt 0.6152344 0.3017578
vt 0.6166992 0.3007813
vt 0.6171875 0.3005371
vt 0.6166992 0.3007813
vt 0.6157227 0.302002
vt 0.6171875 0.3005371
vt 0.6162109 0.3017578
vt 0.6162109 0.3010254
vt 0.6147461 0.3007813
vt 0.6162109 0.3010254
vt 0.6157227 0.302002
vt 0.6147461 0.3007813
vt 0.6147461 0.302002
vt 0.6132813 0.3010254
vt 0.6142578 0.302002
vt 0.6137695 0.3024902
vt 0.6132813 0.3044434
vt 0.6142578 0.3024902
vt 0.6142578 0.3024902
vt 0.6142578 0.3041992
vt 0.6157227 0.3029785
vt 0.6152344 0.3024902
vt 0.6157227 0.3029785
vt 0.6157227 0.3029785
vt 0.6162109 0.3024902
vt 0.6162109 0.3024902
vt 0.6162109 0.3024902
vt 0.6171875 0.3034668
vt 0.6171875 0.3032227
vt 0.6162109 0.3024902
vt 0.6171875 0.3032227
vt 0.6157227 0.3024902
vt 0.6157227 0.3024902
vt 0.6166992 0.3041992
vt 0.6147461 0.3041992
vt 0.6147461 0.3024902
vt 0.6147461 0.3041992
vt 0.6142578 0.3024902
vt 0.6147461 0.3041992
vt 0.6137695 0.3049316
vt 0.6142578 0.3024902
vt 0.03942871 0.05844116
vt 0.03213501 0.06210327
vt 0.03213501 0.06210327
vt 0.03213501 0.06210327
vt 0.03201294 0.05737305
vt 0.02633667 0.05728149
vt 0.02729797 0.06210327
vt 0.02633667 0.05728149
vt 0.02633667 0.05728149
vt 0.02857971 0.06072998
vt 0.02857971 0.06072998
vt 0.02865601 0.05612183
vt 0.03353882 0.06085205
vt 0.03353882 0.05609131
vt 0.03353882 0.05609131
vt 0.04034424 0.0604248
vt 0.04034424 0.0604248
vt 0.04034424 0.0604248
vt 0.0402832 0.05633545
vt 0.04522705 0.05712891
vt 0.0451355 0.06164551
vt 0.04522705 0.05712891
vt 0.04522705 0.05712891
vt 0.04388428 0.0617981
vt 0.04388428 0.0617981
vt 0.04376221 0.05770874
vt 0.03890991 0.06292725
vt 0.04376221 0.05770874
vt 0.03942871 0.05844116
vt 0.03890991 0.06292725
vt 0.03277588 0.06192017
vt 0.03845215 0.06268311
vt 0.03213501 0.06210327
vt 0.03890991 0.06292725
vt 0.03262329 0.05773926
vt 0.03201294 0.05737305
vt 0.03912354 0.05883789
vt 0.03201294 0.05737305
vt 0.03942871 0.05844116
vt 0.03912354 0.05883789
vt 0.03277588 0.06192017
vt 0.03213501 0.06210327
vt 0.02874756 0.0619812
vt 0.02729797 0.06210327
vt 0.03262329 0.05773926
vt 0.02761841 0.05780029
vt 0.03201294 0.05737305
vt 0.02761841 0.05780029
vt 0.02633667 0.05728149
vt 0.03201294 0.05737305
vt 0.02983093 0.06079102
vt 0.02874756 0.0619812
vt 0.02857971 0.06072998
vt 0.02729797 0.06210327
vt 0.02857971 0.06072998
vt 0.02990723 0.05651855
vt 0.02865601 0.05612183
vt 0.02761841 0.05780029
vt 0.02865601 0.05612183
vt 0.02633667 0.05728149
vt 0.02761841 0.05780029
vt 0.02983093 0.06079102
vt 0.02857971 0.06072998
vt 0.03396606 0.0609436
vt 0.03353882 0.06085205
vt 0.02990723 0.05651855
vt 0.0340271 0.056427
vt 0.02865601 0.05612183
vt 0.0340271 0.056427
vt 0.03353882 0.05609131
vt 0.02865601 0.05612183
vt 0.03964233 0.06054688
vt 0.03396606 0.0609436
vt 0.04034424 0.0604248
vt 0.03396606 0.0609436
vt 0.03353882 0.06085205
vt 0.03952026 0.05657959
vt 0.0402832 0.05633545
vt 0.0340271 0.056427
vt 0.03353882 0.05609131
vt 0.03964233 0.06054688
vt 0.04034424 0.0604248
vt 0.04364014 0.06161499
vt 0.0451355 0.06164551
vt 0.04364014 0.06161499
vt 0.04354858 0.05725098
vt 0.04522705 0.05712891
vt 0.04257202 0.06167603
vt 0.04364014 0.06161499
vt 0.04388428 0.0617981
vt 0.0451355 0.06164551
vt 0.04248047 0.05783081
vt 0.04376221 0.05770874
vt 0.04354858 0.05725098
vt 0.04376221 0.05770874
vt 0.04522705 0.05712891
vt 0.04354858 0.05725098
vt 0.04257202 0.06167603
vt 0.04388428 0.0617981
vt 0.03845215 0.06268311
vt 0.04388428 0.0617981
vt 0.03890991 0.06292725
vt 0.03912354 0.05883789
vt 0.03912354 0.05883789
vt 0.03942871 0.05844116
vt 0.04376221 0.05770874
vt 0.6132813 0.3044434
vt 0.6142578 0.3041992
vt 0.6142578 0.3041992
vt 0.6142578 0.3041992
vt 0.6147461 0.3041992
vt 0.6142578 0.3041992
vt 0.6132813 0.3044434
vt 0.6137695 0.3049316
vt 0.6142578 0.3041992
vt 0.6142578 0.3044434
vt 0.6157227 0.3029785
vt 0.6142578 0.3041992
vt 0.6152344 0.3034668
vt 0.6142578 0.3041992
vt 0.6147461 0.3041992
vt 0.6152344 0.3034668
vt 0.6157227 0.3029785
vt 0.6152344 0.3034668
vt 0.6171875 0.3034668
vt 0.6152344 0.3034668
vt 0.6162109 0.3037109
vt 0.6171875 0.3034668
vt 0.6171875 0.3032227
vt 0.6171875 0.3034668
vt 0.6166992 0.3037109
vt 0.6162109 0.3037109
vt 0.6171875 0.3032227
vt 0.6166992 0.3037109
vt 0.6166992 0.3041992
vt 0.6166992 0.3037109
vt 0.6166992 0.3041992
vt 0.6147461 0.3041992
vt 0.6166992 0.3041992
vt 0.6152344 0.3041992
vt 0.6162109 0.3041992
vt 0.6147461 0.3041992
vt 0.6152344 0.3041992
vt 0.6137695 0.3049316
vt 0.6142578 0.3044434
vt 0.6142578 0.3041992
vt 0.6147461 0.3027344
vt 0.6147461 0.3041992
vt 0.6152344 0.3041992
vt 0.6162109 0.3041992
vt 0.6147461 0.3027344
vt 0.6147461 0.3027344
vt 0.6162109 0.3041992
vt 0.6166992 0.3037109
vt 0.6147461 0.3027344
vt 0.6162109 0.3037109
vt 0.6152344 0.3034668
vn 0.3479004 -0.05566406 -0.9360352
vn -0.449707 0.01456451 -0.8930664
vn 0.329834 0.5629883 -0.7578125
vn -0.3054199 0.6186523 -0.7236328
vn 0.3806152 0.117981 0.9169922
vn -0.2543945 0.1738281 0.9511719
vn 0.326416 -0.5664063 0.7568359
vn -0.3376465 -0.5078125 0.7924805
vn -0.3896484 -0.05331421 -0.9194336
vn -0.3132324 0.6147461 -0.7241211
vn 0.8891602 0.3718262 -0.2663574
vn -0.8149414 0.355957 0.4575195
vn 0.3874512 0.112915 0.9150391
vn 0.3737793 0.1229858 0.9194336
vn -0.246582 0.1776123 0.9526367
vn -0.3981934 -0.4367676 0.8066406
vn 0.3046875 -0.9335938 0.1876221
vn -0.440918 -0.8681641 0.2277832
vn 0.3479004 -0.05566406 -0.9360352
vn 0.2744141 -0.1117554 -0.9550781
vn 0.3479004 -0.05566406 -0.9360352
vn 0.3806152 0.117981 0.9169922
vn 0.3579102 -0.9243164 0.1315918
vn -0.9121094 -0.06634521 -0.4047852
vn 0.8618164 -0.4262695 0.2756348
vn 0.345459 0.8076172 -0.4780273
vn 0.3286133 0.8188477 -0.4707031
vn 0.7124023 0.6899414 -0.12854
vn -0.2484131 0.8598633 -0.4460449
vn -0.5908203 0.8046875 -0.05841064
vn -0.5786133 0.6459961 0.498291
vn -0.1905518 0.5317383 0.8251953
vn 0.3842773 0.4697266 0.7949219
vn 0.2093506 -0.2183838 -0.953125
vn 0.2214355 -0.2272949 -0.9482422
vn 0.8828125 -0.3227539 -0.3408203
vn -0.09442139 -0.3618164 -0.9272461
vn -0.7192383 -0.6538086 -0.2362061
vn -0.7749023 -0.6303711 -0.04537964
vn -0.04492188 -0.7841797 0.6191406
vn 0.2191162 -0.6889648 0.690918
vn -0.09442139 -0.3618164 -0.9272461
vn -0.7602539 -0.6191406 -0.1960449
vn -0.7749023 -0.6303711 -0.04537964
vn -0.05758667 -0.7954102 0.6030273
vn 0.2191162 -0.6889648 0.690918
vn 0.8754883 -0.328125 -0.3549805
vn 0.1973877 -0.2094727 -0.9575195
vn 0.2093506 -0.2183838 -0.953125
vn -0.9614258 -0.04864502 -0.2709961
vn -0.9614258 -0.04864502 -0.2709961
vn -0.9829102 0.06866455 -0.1704102
vn -0.9614258 -0.04864502 -0.2709961
vn -0.9472656 -0.1567383 0.2797852
vn -0.9472656 -0.1567383 0.2797852
vn -0.2697754 -0.3991699 0.8764648
vn -0.142334 -0.230957 0.9624023
vn 0.3249512 -0.2907715 0.8999023
vn 0.3188477 -0.277832 0.90625
vn 0.9555664 -0.1801758 0.2337646
vn 0.9716797 -0.1051636 0.2125244
vn 0.9389648 -0.01222992 -0.3439941
vn 0.9389648 -0.01222992 -0.3439941
vn 0.2714844 0.2120361 -0.9389648
vn 0.2493896 0.2634277 -0.9321289
vn -0.8808594 0.3286133 0.3408203
vn -0.0585022 0.2434082 0.9682617
vn -0.8808594 0.3286133 0.3408203
vn -0.8808594 0.3286133 0.3408203
vn -0.0585022 0.2434082 0.9682617
vn 0.8076172 0.5800781 -0.1075439
vn 0.8076172 0.5800781 -0.1075439
vn -0.3857422 0.8710938 0.3037109
vn -0.9106445 0.4125977 0.01107788
vn 0.2744141 -0.1117554 -0.9550781
vn 0.2744141 -0.1117554 -0.9550781
vn -0.449707 0.01456451 -0.8930664
vn -0.449707 0.01456451 -0.8930664
vn -0.3896484 -0.05331421 -0.9194336
vn -0.3896484 -0.05331421 -0.9194336
vn -0.2976074 0.6230469 -0.7236328
vn -0.3054199 0.6186523 -0.7236328
vn 0.3227539 0.5683594 -0.7568359
vn 0.329834 0.5629883 -0.7578125
vn 0.3366699 0.5576172 -0.7587891
vn -0.0585022 0.2434082 0.9682617
vn 0.8076172 0.5800781 -0.1075439
vn -0.9106445 0.4125977 0.01107788
vn -0.9106445 0.4125977 0.01107788
vn -0.262207 0.170166 0.949707
vn -0.2543945 0.1738281 0.9511719
vn -0.3376465 -0.5078125 0.7924805
vn -0.3376465 -0.5078125 0.7924805
vn -0.3981934 -0.4367676 0.8066406
vn -0.3981934 -0.4367676 0.8066406
vn 0.326416 -0.5664063 0.7568359
vn 0.326416 -0.5664063 0.7568359
vn 0.3994141 -0.5073242 0.7636719
vn 0.3994141 -0.5073242 0.7636719
vn 0.3994141 -0.5073242 0.7636719
vn 0.3579102 -0.9243164 0.1315918
vn 0.3579102 -0.9243164 0.1315918
vn 0.3046875 -0.9335938 0.1876221
vn 0.3046875 -0.9335938 0.1876221
vn -0.4973145 -0.8491211 0.1776123
vn -0.4973145 -0.8491211 0.1776123
vn -0.4973145 -0.8491211 0.1776123
vn -0.440918 -0.8681641 0.2277832
vn -0.440918 -0.8681641 0.2277832
vn -0.4663086 -0.6474609 -0.6025391
vn -0.4663086 -0.6474609 -0.6025391
vn -0.4663086 -0.6474609 -0.6025391
vn -0.5195313 -0.6567383 -0.546875
vn -0.5195313 -0.6567383 -0.546875
vn -0.5195313 -0.6567383 -0.546875
vn 0.279541 -0.7133789 -0.6430664
vn 0.279541 -0.7133789 -0.6430664
vn 0.279541 -0.7133789 -0.6430664
vn 0.3356934 -0.7319336 -0.5927734
vn 0.3356934 -0.7319336 -0.5927734
vn 0.3356934 -0.7319336 -0.5927734
vn -0.9121094 -0.06634521 -0.4047852
vn -0.9121094 -0.06634521 -0.4047852
vn -0.9228516 -0.1466064 -0.3564453
vn -0.9228516 -0.1466064 -0.3564453
vn -0.9228516 -0.1466064 -0.3564453
vn -0.8881836 -0.2722168 0.3696289
vn -0.8881836 -0.2722168 0.3696289
vn -0.8881836 -0.2722168 0.3696289
vn -0.9033203 -0.3178711 0.2885742
vn -0.9033203 -0.3178711 0.2885742
vn -0.9033203 -0.3178711 0.2885742
vn -0.815918 0.3688965 0.4455566
vn -0.8154297 0.3623047 0.451416
vn -0.8154297 0.3623047 0.451416
vn -0.8339844 0.5288086 -0.1568604
vn -0.8339844 0.5263672 -0.1652832
vn -0.8339844 0.5263672 -0.1652832
vn -0.8339844 0.5234375 -0.1737061
vn 0.8618164 -0.4262695 0.2756348
vn 0.8618164 -0.4262695 0.2756348
vn 0.859375 -0.4731445 0.1937256
vn 0.859375 -0.4731445 0.1937256
vn 0.859375 -0.4731445 0.1937256
vn 0.8378906 -0.220459 -0.4990234
vn 0.8378906 -0.220459 -0.4990234
vn 0.8378906 -0.220459 -0.4990234
vn 0.8398438 -0.3017578 -0.4511719
vn 0.8398438 -0.3017578 -0.4511719
vn 0.8398438 -0.3017578 -0.4511719
vn 0.8920898 0.3769531 -0.2497559
vn 0.890625 0.3742676 -0.2580566
vn 0.890625 0.3742676 -0.2580566
vn 0.9101563 0.2169189 0.3527832
vn 0.9091797 0.2105713 0.3586426
vn 0.9091797 0.2105713 0.3586426
vn 0.9086914 0.2041016 0.3647461
vn 0.3623047 0.7958984 -0.4848633
vn 0.345459 0.8076172 -0.4780273
vn 0.7158203 0.6772461 -0.1697998
vn 0.7143555 0.6835938 -0.1491699
vn 0.7143555 0.6835938 -0.1491699
vn 0.7143555 0.6835938 -0.1491699
vn -0.2678223 0.8515625 -0.4509277
vn -0.2484131 0.8598633 -0.4460449
vn -0.2290039 0.8676758 -0.4406738
vn -0.6010742 0.7929688 -0.09893799
vn -0.5961914 0.7988281 -0.07867432
vn -0.5961914 0.7988281 -0.07867432
vn -0.5825195 0.6308594 0.5131836
vn -0.5786133 0.6459961 0.498291
vn -0.5742188 0.6606445 0.4831543
vn -0.2287598 0.5117188 0.828125
vn -0.2097168 0.5219727 0.8266602
vn -0.2097168 0.5219727 0.8266602
vn 0.4013672 0.4562988 0.7939453
vn 0.3842773 0.4697266 0.7949219
vn 0.3669434 0.482666 0.7949219
vn 0.734375 0.5146484 0.4421387
vn 0.7319336 0.5302734 0.4277344
vn 0.7319336 0.5302734 0.4277344
vn 0.7290039 0.5458984 0.4130859
vn 0.8676758 -0.3334961 -0.3688965
vn 0.8754883 -0.328125 -0.3549805
vn -0.09442139 -0.3618164 -0.9272461
vn -0.03515625 -0.2585449 -0.965332
vn -0.03515625 -0.2585449 -0.965332
vn -0.03515625 -0.2585449 -0.965332
vn -0.7602539 -0.6191406 -0.1960449
vn -0.7602539 -0.6191406 -0.1960449
vn -0.7192383 -0.6538086 -0.2362061
vn -0.7192383 -0.6538086 -0.2362061
vn -0.7749023 -0.6303711 -0.04537964
vn -0.6982422 -0.715332 -0.01661682
vn -0.6982422 -0.715332 -0.01661682
vn -0.6982422 -0.715332 -0.01661682
vn -0.07019043 -0.8066406 0.5869141
vn -0.05758667 -0.7954102 0.6030273
vn 0.2191162 -0.6889648 0.690918
vn 0.3168945 -0.7407227 0.5922852
vn 0.3168945 -0.7407227 0.5922852
vn 0.3168945 -0.7407227 0.5922852
vn 0.8491211 -0.5234375 0.06848145
vn 0.8491211 -0.5234375 0.06848145
vn 0.8491211 -0.5234375 0.06848145
vn 0.9082031 -0.4177246 -0.01422119
vn 0.9082031 -0.4177246 -0.01422119
vn 0.9082031 -0.4177246 -0.01422119
vn -0.9829102 0.06866455 -0.1704102
vn -0.9829102 0.06866455 -0.1704102
vn -0.9472656 -0.1567383 0.2797852
vn -0.9658203 -0.04370117 0.2553711
vn -0.9658203 -0.04370117 0.2553711
vn -0.9658203 -0.04370117 0.2553711
vn -0.2697754 -0.3991699 0.8764648
vn -0.2697754 -0.3991699 0.8764648
vn -0.142334 -0.230957 0.9624023
vn -0.142334 -0.230957 0.9624023
vn 0.3188477 -0.277832 0.90625
vn 0.3125 -0.2648926 0.9121094
vn 0.9555664 -0.1801758 0.2337646
vn 0.9555664 -0.1801758 0.2337646
vn 0.9716797 -0.1051636 0.2125244
vn 0.9716797 -0.1051636 0.2125244
vn 0.9389648 -0.01222992 -0.3439941
vn 0.9526367 0.03167725 -0.302002
vn 0.9526367 0.03167725 -0.302002
vn 0.9526367 0.03167725 -0.302002
vn 0.2714844 0.2120361 -0.9389648
vn 0.2714844 0.2120361 -0.9389648
vn 0.2493896 0.2634277 -0.9321289
vn 0.2493896 0.2634277 -0.9321289
vn -0.3276367 0.3120117 -0.8916016
vn -0.3276367 0.3120117 -0.8916016
vn -0.3276367 0.3120117 -0.8916016
vn -0.1710205 0.04751587 -0.9838867
vn -0.1710205 0.04751587 -0.9838867
vn -0.1710205 0.04751587 -0.9838867
vn -0.07220459 -0.9868164 -0.1450195
vn -0.0914917 -0.9838867 -0.1547852
vn -0.0914917 -0.9838867 -0.1547852
vn -0.1107178 -0.9799805 -0.1643066
vn 0.4328613 0.8847656 0.173584
vn 0.4328613 0.8847656 0.173584
vn 0.4328613 0.8847656 0.173584
vn 0.5615234 0.7988281 0.2155762
vn 0.5615234 0.7988281 0.2155762
vn 0.5615234 0.7988281 0.2155762
vn -0.07617188 -0.9296875 -0.3603516
vn -0.09368896 -0.9321289 -0.3500977
vn -0.09368896 -0.9321289 -0.3500977
vn -0.1112061 -0.934082 -0.3395996
vn 0.4348145 0.8706055 0.2294922
vn 0.4348145 0.8706055 0.2294922
vn 0.4348145 0.8706055 0.2294922
vn 0.5390625 0.8276367 0.1564941
vn 0.5390625 0.8276367 0.1564941
vn 0.5390625 0.8276367 0.1564941
vn 0.01258087 -0.9599609 -0.2805176
vn 0.00330162 -0.9648438 -0.2636719
vn 0.00330162 -0.9648438 -0.2636719
vn -0.005977631 -0.9692383 -0.2467041
vn 0.00330162 -0.9648438 -0.2636719
vn 0.01760864 0.9985352 0.0512085
vn 0.01760864 0.9985352 0.0512085
vn 0.01760864 0.9985352 0.0512085
vn 0.1134033 0.9594727 -0.2573242
vn 0.1134033 0.9594727 -0.2573242
vn 0.1134033 0.9594727 -0.2573242
vn -0.2080078 -0.9414063 -0.2646484
vn -0.1972656 -0.9482422 -0.2479248
vn -0.1972656 -0.9482422 -0.2479248
vn -0.1865234 -0.9550781 -0.2312012
vn 0.08343506 0.9951172 0.04824829
vn 0.08343506 0.9951172 0.04824829
vn 0.08343506 0.9951172 0.04824829
vn 0.1160278 0.9882813 0.09820557
vn 0.1160278 0.9882813 0.09820557
vn 0.1160278 0.9882813 0.09820557
vn -0.1182251 -0.9272461 -0.355957
vn -0.102478 -0.9316406 -0.3483887
vn -0.102478 -0.9316406 -0.3483887
vn -0.102478 -0.9316406 -0.3483887
vn -0.08666992 -0.9360352 -0.3405762
vn 0.02481079 0.9692383 0.2443848
vn 0.01678467 0.9702148 0.2409668
vn 0.009719849 0.9711914 0.2384033
vn -0.005428314 0.9731445 0.230957
vn -0.109436 -0.9833984 -0.1453857
vn -0.09240723 -0.9833984 -0.1563721
vn -0.09240723 -0.9833984 -0.1563721
vn -0.07531738 -0.9829102 -0.1672363
vn -0.09240723 -0.9833984 -0.1563721
vn 0.02384949 0.9697266 0.2435303
vn 0.02293396 0.9697266 0.2440186
vn -0.2052002 -0.9511719 -0.2315674
vn -0.1958008 -0.9482422 -0.2493896
vn -0.1958008 -0.9482422 -0.2493896
vn -0.1862793 -0.9453125 -0.2670898
vn 0.05517578 0.9204102 0.387207
vn 0.05517578 0.9204102 0.387207
vn 0.0680542 0.9199219 0.3867188
vn 0.1069946 0.9414063 0.3195801
vn 0.1069946 0.9414063 0.3195801
vn 0.1069946 0.9414063 0.3195801
vn 0.01195526 -0.9707031 -0.2393799
vn 0.002386093 -0.9672852 -0.2543945
vn 0.002386093 -0.9672852 -0.2543945
vn 0.002386093 -0.9672852 -0.2543945
vn -0.00717926 -0.9628906 -0.2695313
vn 0.04229736 0.9208984 0.3876953
vn 0.1538086 0.7104492 0.6865234
vn 0.1538086 0.7104492 0.6865234
vn 0.1538086 0.7104492 0.6865234
vn -0.01068878 0.925293 0.3793945
vn -0.007888794 0.9262695 0.3774414
vn -0.007888794 0.9262695 0.3774414
vn -0.007888794 0.9262695 0.3774414
vn -0.005096436 0.9267578 0.3752441
vn -0.007888794 0.9262695 0.3774414
vn -0.2459717 0.9555664 0.161499
vn -0.243042 0.9570313 0.1572266
vn -0.243042 0.9570313 0.1572266
vn -0.2399902 0.9584961 0.1530762
vn -0.550293 0.7241211 0.4157715
vn -0.550293 0.7241211 0.4157715
vn -0.550293 0.7241211 0.4157715
vn -0.6420898 0.6972656 0.3188477
vn -0.6420898 0.6972656 0.3188477
vn -0.6420898 0.6972656 0.3188477
vn -0.09289551 0.9936523 -0.06262207
vn -0.09289551 0.9936523 -0.06262207
vn -0.09289551 0.9936523 -0.06262207
vn -0.2143555 0.9541016 -0.208374
vn -0.2143555 0.9541016 -0.208374
vn -0.2143555 0.9541016 -0.208374
vn -0.2219238 0.8081055 0.5454102
vn -0.2097168 0.8212891 0.5307617
vn -0.2097168 0.8212891 0.5307617
vn -0.1975098 0.8339844 0.515625
vn -0.4375 0.8310547 0.3430176
vn -0.4375 0.8310547 0.3430176
vn -0.4375 0.8310547 0.3430176
vn -0.3857422 0.8710938 0.3037109
vn -0.3857422 0.8710938 0.3037109
vn -0.01808167 0.9570313 0.2893066
vn -0.007518768 0.9550781 0.2961426
vn -0.007518768 0.9550781 0.2961426
vn 0.003044128 0.953125 0.3032227
vn -0.2116699 0.8452148 0.4904785
vn -0.2150879 0.8466797 0.4868164
vn -0.2150879 0.8466797 0.4868164
vn -0.2185059 0.8476563 0.4831543
vn -0.2214355 0.2265625 0.9487305
vn -0.2214355 0.2265625 0.9487305
vn -0.2214355 0.2265625 0.9487305
vn -0.3430176 0.6401367 -0.6875
vn -0.3430176 0.6401367 -0.6875
vn -0.3430176 0.6401367 -0.6875
vn 0.1106567 0.6831055 -0.7216797
vn 0.1106567 0.6831055 -0.7216797
vn 0.1106567 0.6831055 -0.7216797
vn 0.8310547 0.5112305 0.2193604
vn 0.8310547 0.5112305 0.2193604
vn 0.8310547 0.5112305 0.2193604
g Item_CoinBag_0
f 21/21/21 1/1/1 19/19/19
f 76/76/76 20/20/20 75/75/75
f 2/2/2 78/78/78 77/77/77
f 80/80/80 9/9/9 79/79/79
f 4/4/4 82/82/82 81/81/81
f 4/4/4 10/10/10 82/82/82
f 84/84/84 3/3/3 83/83/83
f 84/84/84 85/85/85 3/3/3
f 68/68/68 69/69/69 66/66/66
f 70/70/70 86/86/86 67/67/67
f 71/71/71 72/72/72 87/87/87
f 89/89/89 74/74/74 88/88/88
f 22/22/22 5/5/5 13/13/13
f 22/22/22 14/14/14 5/5/5
f 6/6/6 91/91/91 90/90/90
f 6/6/6 15/15/15 91/91/91
f 8/8/8 93/93/93 92/92/92
f 95/95/95 16/16/16 94/94/94
f 97/97/97 7/7/7 96/96/96
f 100/100/100 99/99/99 98/98/98
f 23/23/23 102/102/102 101/101/101
f 104/104/104 17/17/17 103/103/103
f 107/107/107 106/106/106 105/105/105
f 109/109/109 18/18/18 108/108/108
f 112/112/112 111/111/111 110/110/110
f 115/115/115 114/114/114 113/113/113
f 118/118/118 117/117/117 116/116/116
f 121/121/121 120/120/120 119/119/119
f 24/24/24 123/123/123 122/122/122
f 126/126/126 125/125/125 124/124/124
f 129/129/129 128/128/128 127/127/127
f 132/132/132 131/131/131 130/130/130
f 135/135/135 134/134/134 133/133/133
f 135/135/135 12/12/12 134/134/134
f 138/138/138 137/137/137 136/136/136
f 138/138/138 139/139/139 137/137/137
f 25/25/25 141/141/141 140/140/140
f 144/144/144 143/143/143 142/142/142
f 147/147/147 146/146/146 145/145/145
f 150/150/150 149/149/149 148/148/148
f 153/153/153 152/152/152 151/151/151
f 153/153/153 11/11/11 152/152/152
f 156/156/156 155/155/155 154/154/154
f 156/156/156 157/157/157 155/155/155
f 159/159/159 26/26/26 158/158/158
f 159/159/159 27/27/27 26/26/26
f 162/162/162 161/161/161 160/160/160
f 163/163/163 28/28/28 161/161/161
f 29/29/29 165/165/165 164/164/164
f 29/29/29 166/166/166 165/165/165
f 169/169/169 168/168/168 167/167/167
f 169/169/169 30/30/30 168/168/168
f 31/31/31 171/171/171 170/170/170
f 31/31/31 172/172/172 171/171/171
f 175/175/175 174/174/174 173/173/173
f 175/175/175 32/32/32 174/174/174
f 33/33/33 177/177/177 176/176/176
f 33/33/33 178/178/178 177/177/177
f 181/181/181 180/180/180 179/179/179
f 181/181/181 182/182/182 180/180/180
f 49/49/49 34/34/34 48/48/48
f 49/49/49 35/35/35 34/34/34
f 184/184/184 47/47/47 183/183/183
f 184/184/184 36/36/36 47/47/47
f 37/37/37 185/185/185 42/42/42
f 188/188/188 187/187/187 186/186/186
f 43/43/43 190/190/190 189/189/189
f 192/192/192 38/38/38 191/191/191
f 39/39/39 193/193/193 44/44/44
f 196/196/196 195/195/195 194/194/194
f 45/45/45 198/198/198 197/197/197
f 45/45/45 40/40/40 198/198/198
f 41/41/41 199/199/199 46/46/46
f 202/202/202 201/201/201 200/200/200
f 205/205/205 204/204/204 203/203/203
f 208/208/208 207/207/207 206/206/206
f 51/51/51 53/53/53 50/50/50
f 210/210/210 52/52/52 209/209/209
f 55/55/55 211/211/211 54/54/54
f 214/214/214 213/213/213 212/212/212
f 56/56/56 216/216/216 215/215/215
f 218/218/218 57/57/57 217/217/217
f 59/59/59 219/219/219 58/58/58
f 59/59/59 220/220/220 219/219/219
f 60/60/60 222/222/222 221/221/221
f 224/224/224 61/61/61 223/223/223
f 63/63/63 225/225/225 62/62/62
f 228/228/228 227/227/227 226/226/226
f 64/64/64 230/230/230 229/229/229
f 232/232/232 65/65/65 231/231/231
f 235/235/235 234/234/234 233/233/233
f 238/238/238 237/237/237 236/236/236
f 241/241/241 240/240/240 239/239/239
f 241/241/241 242/242/242 240/240/240
f 245/245/245 244/244/244 243/243/243
f 248/248/248 247/247/247 246/246/246
f 251/251/251 250/250/250 249/249/249
f 251/251/251 252/252/252 250/250/250
f 255/255/255 254/254/254 253/253/253
f 258/258/258 257/257/257 256/256/256
f 261/261/261 260/260/260 259/259/259
f 263/263/263 262/262/262 260/260/260
f 266/266/266 265/265/265 264/264/264
f 269/269/269 268/268/268 267/267/267
f 272/272/272 271/271/271 270/270/270
f 272/272/272 273/273/273 271/271/271
f 276/276/276 275/275/275 274/274/274
f 279/279/279 278/278/278 277/277/277
f 282/282/282 281/281/281 280/280/280
f 282/282/282 284/284/284 283/283/283
f 287/287/287 286/286/286 285/285/285
f 287/287/287 288/288/288 286/286/286
f 286/286/286 294/294/294 285/285/285
f 286/286/286 295/295/295 294/294/294
f 291/291/291 290/290/290 289/289/289
f 293/293/293 292/292/292 290/290/290
f 298/298/298 297/297/297 296/296/296
f 298/298/298 299/299/299 297/297/297
f 302/302/302 301/301/301 300/300/300
f 301/301/301 311/311/311 300/300/300
f 305/305/305 304/304/304 303/303/303
f 308/308/308 307/307/307 306/306/306
f 308/308/308 310/310/310 309/309/309
f 314/314/314 313/313/313 312/312/312
f 317/317/317 316/316/316 315/315/315
f 320/320/320 319/319/319 318/318/318
f 323/323/323 322/322/322 321/321/321
f 323/323/323 324/324/324 322/322/322
f 327/327/327 326/326/326 325/325/325
f 330/330/330 329/329/329 328/328/328
f 333/333/333 332/332/332 331/331/331
f 336/336/336 335/335/335 334/334/334
f 339/339/339 338/338/338 337/337/337
f 339/339/339 340/340/340 338/338/338
f 343/343/343 342/342/342 341/341/341
f 345/345/345 73/73/73 344/344/344
f 348/348/348 347/347/347 346/346/346
f 348/348/348 349/349/349 347/347/347
f 352/352/352 351/351/351 350/350/350
f 352/352/352 353/353/353 351/351/351
f 356/356/356 355/355/355 354/354/354
f 359/359/359 358/358/358 357/357/357
f 362/362/362 361/361/361 360/360/360
f 365/365/365 364/364/364 363/363/363
