g Item_Sword
v 33.41862 34.60844 1.246405
v 29.95173 37.78452 1.246405
v 33.41862 34.60844 -1.384051
v 29.95173 37.78452 -1.384051
v 22.19612 22.3585 1.246405
v 18.72924 25.53461 1.246405
v 18.72924 25.53461 -1.384051
v 22.19612 22.3585 -1.384051
v 23.28503 21.36092 1.781062
v 17.64037 26.53214 1.781062
v 16.09455 24.8448 1.781062
v 21.73921 19.67358 1.781062
v 21.73921 19.67358 -1.918494
v 16.09455 24.8448 -1.918494
v 17.64037 26.53214 -1.918494
v 23.28503 21.36092 -1.918494
v 33.785 34.27277 -1.894867
v 29.58485 38.12066 -1.894867
v 29.58485 38.12066 1.757249
v 33.785 34.27277 1.757249
v 35.09692 35.70478 -1.894867
v 30.89677 39.55268 -1.894867
v 30.89677 39.55268 1.757249
v 35.09692 35.70478 1.757249
v 34.93871 37.93124 -1.3077
v 33.12886 39.58933 -1.3077
v 33.12886 39.58933 1.170051
v 34.93871 37.93124 1.170051
v 15.5222 25.36913 2.156209
v 22.31154 19.14925 2.156209
v 22.31154 19.14925 -2.293826
v 15.5222 25.36913 -2.293826
v 15.00068 23.56335 2.156209
v 20.55816 18.47195 2.156209
v 20.55816 18.47195 -2.293826
v 15.00068 23.56335 -2.293826
v 11.41725 27.22613 -0.9404359
v 11.41725 27.22613 0.8028216
v 10.9936 25.65318 -0.9404359
v 10.9936 25.65318 0.8028216
v 24.52015 15.22221 0.8028216
v 24.52015 15.22221 -0.9404359
v 22.99013 14.66282 0.8028216
v 22.99013 14.66282 -0.9404359
v -24.46675 -31.76226 0.5132012
v -31.10729 -25.67867 0.5132012
v -24.46675 -31.76226 -0.6508527
v -31.10729 -25.67867 -0.6508527
v 15.32363 23.26748 -0.4993138
v 15.32363 23.26748 0.3616719
v 20.23527 18.76778 0.3616719
v 20.23527 18.76778 -0.4993138
v -34.24044 -35.76473 -0.6508527
v -34.24044 -35.76473 0.5132012
v 17.77945 21.0176 1.580784
v 17.77945 21.0176 -1.718403
v -27.78697 -28.72042 2.161443
v -27.78697 -28.72042 -2.299063
v 23.62346 23.91653 -1.384051
v 23.62346 23.91653 1.246405
v 20.15659 27.09263 1.246405
v 20.15659 27.09263 -1.384051
v 32.26522 33.34943 -1.384051
v 32.26522 33.34943 1.246405
v 28.7984 36.52551 1.246405
v 28.79835 36.52555 -1.384051
v 27.24114 34.82569 1.246405
v 31.11125 32.08981 1.246405
v 31.11125 32.08981 -1.384051
v 27.24109 34.82572 -1.384051
v 26.95041 34.50834 1.246405
v 29.8837 30.74989 1.246405
v 29.8837 30.74989 -1.384051
v 26.95037 34.50838 -1.384051
v 25.3195 32.7282 1.246405
v 28.25283 28.9697 1.246405
v 28.25283 28.9697 -1.384051
v 25.3195 32.7282 -1.384051
v 24.0162 31.3056 1.246405
v 27.93353 28.62118 1.246405
v 27.93353 28.62118 -1.384051
v 24.0162 31.3056 -1.384051
v 22.37621 29.51546 1.246405
v 26.19703 26.7257 1.246405
v 26.19703 26.7257 -1.384051
v 22.37621 29.51546 -1.384051
v 21.9256 29.02358 1.246405
v 25.02408 25.44537 1.246405
v 25.02408 25.44537 -1.384051
v 21.9256 29.02358 -1.384051
v 20.91791 18.14237 -0.06882143
v -23.54379 -32.60777 -0.06882715
v -36.11316 -37.80891 -0.06882715
v -32.03024 -24.83313 -0.06882715
v 14.64098 23.89288 -0.06882143
v 32.62632 33.01861 -1.943285
v 32.62632 33.01861 1.805633
v 31.47234 31.759 1.805633
v 31.47234 31.759 -1.943285
v 28.43729 36.85632 1.805633
v 26.88004 35.15649 1.805633
v 28.43723 36.85635 -1.943285
v 26.88 35.15655 -1.943285
v 26.58931 34.83916 1.805633
v 30.2448 30.41906 1.805633
v 24.9584 33.05901 1.805633
v 28.61394 28.63888 1.805633
v 30.2448 30.41906 -1.943285
v 28.61394 28.63888 -1.943285
v 24.9584 33.05901 -1.943285
v 26.58928 34.83921 -1.943285
v 23.65511 31.63641 1.805633
v 28.29463 28.29037 1.805633
v 22.01511 29.84628 1.805633
v 26.55812 26.39487 1.805633
v 28.29463 28.29037 -1.943285
v 26.55812 26.39487 -1.943285
v 22.01511 29.84628 -1.943285
v 23.65511 31.63641 -1.943285
v 21.5645 29.35441 1.805633
v 25.38518 25.11454 1.805633
v 19.7955 27.42344 1.805633
v 23.98457 23.5857 1.805633
v 25.38518 25.11454 -1.943285
v 23.98457 23.5857 -1.943285
v 19.7955 27.42344 -1.943285
v 21.5645 29.35441 -1.943285
v -21.64272 -15.70137 0.4823127
v -23.73136 -16.16887 -0.06882715
v -21.30955 -13.63049 -0.06882715
v -21.60585 -15.66252 -0.6198411
v 12.06929 8.028877 -0.06882143
v 10.21573 5.950935 -0.06882334
v 10.77286 8.071739 0.3937469
v 11.02643 8.358345 -0.5305314
v 12.30989 9.790733 -0.5277925
v 12.64336 8.673836 -0.06882143
v 12.13705 9.59536 0.3907294
v 13.57626 9.711189 -0.06882143
v -2.55507 4.42025 0.4200187
v -4.105318 4.326424 -0.06882334
v -2.298237 4.691017 -0.556828
v -2.664006 5.847603 -0.06882334
v -28.29731 -22.71646 0.5040307
v -20.05721 -14.02999 0.477138
v -22.29064 -18.22128 0.9502702
v -12.30494 -5.857765 0.451838
v -8.470454 -1.815575 0.4393239
v -9.221906 -4.004036 0.7958894
v -4.060057 2.833748 0.424931
v -0.2367314 6.864174 0.4124522
v -1.680144 3.791756 0.8104625
v 13.20371 21.03271 0.3685889
v 13.84046 11.52471 0.3846173
v 10.84097 9.868034 0.8077216
v -9.80841 -15.19284 0.463511
v -15.08895 -21.16181 0.4814124
v -14.6123 -18.93807 0.8857274
v -23.24945 -30.38627 0.5090766
v -25.24907 -31.04553 0.9015651
v -29.67731 -33.89605 0.5132012
v -4.313751 2.566307 -0.5634065
v 2.92551 10.19773 -0.5397782
v -0.8871482 4.610664 -0.9498353
v 8.540228 5.548012 -0.53896
v 18.07413 16.31988 -0.5070786
v 9.92484 9.19558 -1.035944
v 13.38049 11.8773 -0.7292428
v 15.94063 15.26029 -0.8383889
v 19.18431 17.57738 -0.5030885
v -18.56105 -12.45277 -0.6099057
v -26.09988 -20.39999 -0.6345105
v -21.61054 -17.34987 -1.046519
v -9.091839 -14.38282 -0.5987306
v 2.525497 -1.250877 -0.5593495
v -6.722615 -9.90921 -1.023257
v -30.15096 -24.67052 -0.6477304
v -30.20736 -26.5031 -1.097579
v -32.09812 -28.86832 -0.6508527
v -30.96612 -34.42385 -0.6508527
v -27.8421 -32.02735 -1.06919
v 6.830704 3.615623 0.4071107
v 17.64037 26.53214 1.781062
v 16.09455 24.8448 1.781062
v 17.64037 26.53214 -1.918494
v 16.09455 24.8448 -1.918494
v 23.28503 21.36092 -1.918494
v 21.73921 19.67358 -1.918494
v 23.28503 21.36092 1.781062
v 21.73921 19.67358 1.781062
v 20.15659 27.09263 1.246405
v 18.72924 25.53461 1.246405
v 18.72924 25.53461 -1.384051
v 20.15659 27.09263 -1.384051
v 23.62346 23.91653 -1.384051
v 22.19612 22.3585 -1.384051
v 23.62346 23.91653 1.246405
v 22.19612 22.3585 1.246405
v 22.19612 22.3585 1.246405
v 23.28503 21.36092 1.781062
v 18.72924 25.53461 1.246405
v 17.64037 26.53214 1.781062
v 18.72924 25.53461 -1.384051
v 17.64037 26.53214 -1.918494
v 22.19612 22.3585 -1.384051
v 23.28503 21.36092 -1.918494
v 33.785 34.27277 -1.894867
v 29.58485 38.12066 -1.894867
v 29.58485 38.12066 -1.894867
v 30.89677 39.55268 -1.894867
v 29.58485 38.12066 1.757249
v 29.58485 38.12066 1.757249
v 30.89677 39.55268 1.757249
v 33.785 34.27277 1.757249
v 33.785 34.27277 1.757249
v 35.09692 35.70478 1.757249
v 33.785 34.27277 -1.894867
v 35.09692 35.70478 -1.894867
v 35.09692 35.70478 -1.894867
v 34.93871 37.93124 -1.3077
v 30.89677 39.55268 -1.894867
v 33.12886 39.58933 -1.3077
v 30.89677 39.55268 -1.894867
v 33.12886 39.58933 -1.3077
v 30.89677 39.55268 1.757249
v 33.12886 39.58933 1.170051
v 30.89677 39.55268 1.757249
v 33.12886 39.58933 1.170051
v 35.09692 35.70478 1.757249
v 34.93871 37.93124 1.170051
v 35.09692 35.70478 1.757249
v 34.93871 37.93124 1.170051
v 35.09692 35.70478 -1.894867
v 34.93871 37.93124 -1.3077
v 21.73921 19.67358 1.781062
v 16.09455 24.8448 1.781062
v 16.09455 24.8448 -1.918494
v 21.73921 19.67358 -1.918494
v 22.31154 19.14925 2.156209
v 15.5222 25.36913 2.156209
v 15.5222 25.36913 -2.293826
v 22.31154 19.14925 -2.293826
v 15.5222 25.36913 2.156209
v 11.41725 27.22613 0.8028216
v 15.5222 25.36913 -2.293826
v 11.41725 27.22613 -0.9404359
v 15.00068 23.56335 -2.293826
v 15.5222 25.36913 -2.293826
v 10.9936 25.65318 -0.9404359
v 11.41725 27.22613 -0.9404359
v 15.00068 23.56335 -2.293826
v 10.9936 25.65318 -0.9404359
v 15.00068 23.56335 2.156209
v 10.9936 25.65318 0.8028216
v 15.00068 23.56335 2.156209
v 10.9936 25.65318 0.8028216
v 15.5222 25.36913 2.156209
v 11.41725 27.22613 0.8028216
v 22.31154 19.14925 -2.293826
v 24.52015 15.22221 -0.9404359
v 22.31154 19.14925 2.156209
v 24.52015 15.22221 0.8028216
v 20.55816 18.47195 2.156209
v 22.31154 19.14925 2.156209
v 22.99013 14.66282 0.8028216
v 24.52015 15.22221 0.8028216
v 20.55816 18.47195 2.156209
v 22.99013 14.66282 0.8028216
v 20.55816 18.47195 -2.293826
v 22.99013 14.66282 -0.9404359
v 20.55816 18.47195 -2.293826
v 22.99013 14.66282 -0.9404359
v 22.31154 19.14925 -2.293826
v 24.52015 15.22221 -0.9404359
v 20.55816 18.47195 2.156209
v 20.55816 18.47195 -2.293826
v 15.00068 23.56335 2.156209
v 15.00068 23.56335 -2.293826
v -32.03024 -24.83313 -0.06882715
v -31.10729 -25.67867 -0.6508527
v -21.60585 -15.66252 -0.6198411
v -26.09988 -20.39999 -0.6345105
v -36.11316 -37.80891 -0.06882715
v -34.24044 -35.76473 -0.6508527
v 11.02643 8.358345 -0.5305314
v 12.30989 9.790733 -0.5277925
v -34.24044 -35.76473 -0.6508527
v -30.96612 -34.42385 -0.6508527
v -24.46675 -31.76226 -0.6508527
v -31.10729 -25.67867 -0.6508527
v -32.09812 -28.86832 -0.6508527
v 32.62632 33.01861 1.805633
v 31.47234 31.759 1.805633
v 28.43729 36.85632 1.805633
v 26.88004 35.15649 1.805633
v 26.88 35.15655 -1.943285
v 31.47234 31.759 -1.943285
v 28.43723 36.85635 -1.943285
v 32.62632 33.01861 -1.943285
v 33.41862 34.60844 -1.384051
v 33.41862 34.60844 1.246405
v 33.41862 34.60844 1.246405
v 32.26522 33.34943 1.246405
v 29.95173 37.78452 1.246405
v 29.95173 37.78452 1.246405
v 28.7984 36.52551 1.246405
v 29.95173 37.78452 -1.384051
v 32.26522 33.34943 -1.384051
v 33.41862 34.60844 -1.384051
v 28.79835 36.52555 -1.384051
v 29.95173 37.78452 -1.384051
v 31.11125 32.08981 1.246405
v 29.8837 30.74989 1.246405
v 29.8837 30.74989 -1.384051
v 31.11125 32.08981 -1.384051
v 27.24114 34.82569 1.246405
v 26.95041 34.50834 1.246405
v 27.24109 34.82572 -1.384051
v 26.95037 34.50838 -1.384051
v 30.2448 30.41906 1.805633
v 28.61394 28.63888 1.805633
v 28.61394 28.63888 -1.943285
v 30.2448 30.41906 -1.943285
v 26.58931 34.83916 1.805633
v 24.9584 33.05901 1.805633
v 26.58928 34.83921 -1.943285
v 24.9584 33.05901 -1.943285
v 28.25283 28.9697 1.246405
v 27.93353 28.62118 1.246405
v 27.93353 28.62118 -1.384051
v 28.25283 28.9697 -1.384051
v 25.3195 32.7282 1.246405
v 24.0162 31.3056 1.246405
v 25.3195 32.7282 -1.384051
v 24.0162 31.3056 -1.384051
v 28.29463 28.29037 1.805633
v 26.55812 26.39487 1.805633
v 26.55812 26.39487 -1.943285
v 28.29463 28.29037 -1.943285
v 23.65511 31.63641 1.805633
v 22.01511 29.84628 1.805633
v 23.65511 31.63641 -1.943285
v 22.01511 29.84628 -1.943285
v 26.19703 26.7257 1.246405
v 25.02408 25.44537 1.246405
v 25.02408 25.44537 -1.384051
v 26.19703 26.7257 -1.384051
v 22.37621 29.51546 1.246405
v 21.9256 29.02358 1.246405
v 22.37621 29.51546 -1.384051
v 21.9256 29.02358 -1.384051
v 25.38518 25.11454 1.805633
v 23.98457 23.5857 1.805633
v 23.98457 23.5857 -1.943285
v 25.38518 25.11454 -1.943285
v 21.5645 29.35441 1.805633
v 19.7955 27.42344 1.805633
v 21.5645 29.35441 -1.943285
v 19.7955 27.42344 -1.943285
v 10.77286 8.071739 0.3937469
v 6.830704 3.615623 0.4071107
v -23.54379 -32.60777 -0.06882715
v -24.46675 -31.76226 0.5132012
v -36.11316 -37.80891 -0.06882715
v -34.24044 -35.76473 0.5132012
v -23.54379 -32.60777 -0.06882715
v -29.67731 -33.89605 0.5132012
v -24.46675 -31.76226 0.5132012
v -36.11316 -37.80891 -0.06882715
v -32.03024 -24.83313 -0.06882715
v -34.24044 -35.76473 0.5132012
v -31.10729 -25.67867 0.5132012
v -21.64272 -15.70137 0.4823127
v -28.29731 -22.71646 0.5040307
v -23.73136 -16.16887 -0.06882715
v -32.03024 -24.83313 -0.06882715
v -31.10729 -25.67867 0.5132012
v 32.26522 33.34943 -1.384051
v 32.62632 33.01861 -1.943285
v 32.26522 33.34943 1.246405
v 32.62632 33.01861 1.805633
v 31.11125 32.08981 1.246405
v 31.47234 31.759 1.805633
v 31.11125 32.08981 -1.384051
v 31.47234 31.759 -1.943285
v 28.7984 36.52551 1.246405
v 28.43729 36.85632 1.805633
v 27.24114 34.82569 1.246405
v 26.88004 35.15649 1.805633
v 31.11125 32.08981 1.246405
v 26.88004 35.15649 1.805633
v 31.47234 31.759 1.805633
v 31.11125 32.08981 1.246405
v 28.79835 36.52555 -1.384051
v 28.43723 36.85635 -1.943285
v 27.24109 34.82572 -1.384051
v 26.88 35.15655 -1.943285
v 27.24114 34.82569 1.246405
v 26.88004 35.15649 1.805633
v 31.11125 32.08981 -1.384051
v 31.47234 31.759 -1.943285
v 27.24109 34.82572 -1.384051
v 31.47234 31.759 -1.943285
v 26.88 35.15655 -1.943285
v 27.24109 34.82572 -1.384051
v 29.8837 30.74989 1.246405
v 30.2448 30.41906 1.805633
v 26.95041 34.50834 1.246405
v 30.2448 30.41906 1.805633
v 26.58931 34.83916 1.805633
v 26.95041 34.50834 1.246405
v 25.3195 32.7282 1.246405
v 24.9584 33.05901 1.805633
v 28.25283 28.9697 1.246405
v 24.9584 33.05901 1.805633
v 28.61394 28.63888 1.805633
v 28.25283 28.9697 1.246405
v 29.8837 30.74989 -1.384051
v 30.2448 30.41906 -1.943285
v 29.8837 30.74989 1.246405
v 30.2448 30.41906 1.805633
v 28.25283 28.9697 1.246405
v 28.61394 28.63888 1.805633
v 28.25283 28.9697 -1.384051
v 28.61394 28.63888 -1.943285
v 28.25283 28.9697 -1.384051
v 28.61394 28.63888 -1.943285
v 25.3195 32.7282 -1.384051
v 28.61394 28.63888 -1.943285
v 24.9584 33.05901 -1.943285
v 25.3195 32.7282 -1.384051
v 26.95037 34.50838 -1.384051
v 26.58928 34.83921 -1.943285
v 29.8837 30.74989 -1.384051
v 26.58928 34.83921 -1.943285
v 30.2448 30.41906 -1.943285
v 29.8837 30.74989 -1.384051
v 26.95041 34.50834 1.246405
v 26.58931 34.83916 1.805633
v 26.95037 34.50838 -1.384051
v 26.58928 34.83921 -1.943285
v 25.3195 32.7282 -1.384051
v 24.9584 33.05901 -1.943285
v 25.3195 32.7282 1.246405
v 24.9584 33.05901 1.805633
v 27.93353 28.62118 1.246405
v 28.29463 28.29037 1.805633
v 24.0162 31.3056 1.246405
v 28.29463 28.29037 1.805633
v 23.65511 31.63641 1.805633
v 24.0162 31.3056 1.246405
v 22.37621 29.51546 1.246405
v 22.01511 29.84628 1.805633
v 26.19703 26.7257 1.246405
v 22.01511 29.84628 1.805633
v 26.55812 26.39487 1.805633
v 26.19703 26.7257 1.246405
v 27.93353 28.62118 -1.384051
v 28.29463 28.29037 -1.943285
v 27.93353 28.62118 1.246405
v 28.29463 28.29037 1.805633
v 26.19703 26.7257 1.246405
v 26.55812 26.39487 1.805633
v 26.19703 26.7257 -1.384051
v 26.55812 26.39487 -1.943285
v 26.19703 26.7257 -1.384051
v 26.55812 26.39487 -1.943285
v 22.37621 29.51546 -1.384051
v 26.55812 26.39487 -1.943285
v 22.01511 29.84628 -1.943285
v 22.37621 29.51546 -1.384051
v 24.0162 31.3056 -1.384051
v 23.65511 31.63641 -1.943285
v 27.93353 28.62118 -1.384051
v 23.65511 31.63641 -1.943285
v 28.29463 28.29037 -1.943285
v 27.93353 28.62118 -1.384051
v 24.0162 31.3056 1.246405
v 23.65511 31.63641 1.805633
v 24.0162 31.3056 -1.384051
v 23.65511 31.63641 -1.943285
v 22.37621 29.51546 -1.384051
v 22.01511 29.84628 -1.943285
v 22.37621 29.51546 1.246405
v 22.01511 29.84628 1.805633
v 25.02408 25.44537 1.246405
v 25.38518 25.11454 1.805633
v 21.9256 29.02358 1.246405
v 25.38518 25.11454 1.805633
v 21.5645 29.35441 1.805633
v 21.9256 29.02358 1.246405
v 20.15659 27.09263 1.246405
v 19.7955 27.42344 1.805633
v 23.62346 23.91653 1.246405
v 23.98457 23.5857 1.805633
v 25.02408 25.44537 -1.384051
v 25.38518 25.11454 -1.943285
v 25.02408 25.44537 1.246405
v 25.38518 25.11454 1.805633
v 23.62346 23.91653 -1.384051
v 23.98457 23.5857 -1.943285
v 20.15659 27.09263 -1.384051
v 19.7955 27.42344 -1.943285
v 21.9256 29.02358 -1.384051
v 21.5645 29.35441 -1.943285
v 25.02408 25.44537 -1.384051
v 21.5645 29.35441 -1.943285
v 25.38518 25.11454 -1.943285
v 25.02408 25.44537 -1.384051
v 21.9256 29.02358 1.246405
v 21.5645 29.35441 1.805633
v 21.9256 29.02358 -1.384051
v 21.5645 29.35441 -1.943285
v -20.05721 -14.02999 0.477138
v -18.56105 -12.45277 -0.6099057
v -21.30955 -13.63049 -0.06882715
v -4.105318 4.326424 -0.06882334
v -21.60585 -15.66252 -0.6198411
v -21.64272 -15.70137 0.4823127
v -23.73136 -16.16887 -0.06882715
v -21.60585 -15.66252 -0.6198411
v -21.30955 -13.63049 -0.06882715
v -21.64272 -15.70137 0.4823127
v 12.13705 9.59536 0.3907294
v 12.06929 8.028877 -0.06882143
v 12.64336 8.673836 -0.06882143
v 10.77286 8.071739 0.3937469
v 12.06929 8.028877 -0.06882143
v 11.02643 8.358345 -0.5305314
v 8.540228 5.548012 -0.53896
v 10.21573 5.950935 -0.06882334
v -23.54379 -32.60777 -0.06882715
v -24.46675 -31.76226 -0.6508527
v 18.07413 16.31988 -0.5070786
v 13.84046 11.52471 0.3846173
v 13.57626 9.711189 -0.06882143
v 20.91791 18.14237 -0.06882143
v 12.13705 9.59536 0.3907294
v 12.30989 9.790733 -0.5277925
v 12.64336 8.673836 -0.06882143
v 12.13705 9.59536 0.3907294
v 13.57626 9.711189 -0.06882143
v 12.30989 9.790733 -0.5277925
v 10.77286 8.071739 0.3937469
v 11.02643 8.358345 -0.5305314
v 10.21573 5.950935 -0.06882334
v -2.298237 4.691017 -0.556828
v -2.55507 4.42025 0.4200187
v -2.664006 5.847603 -0.06882334
v -2.664006 5.847603 -0.06882334
v 14.64098 23.89288 -0.06882143
v -2.298237 4.691017 -0.556828
v -2.55507 4.42025 0.4200187
v -4.105318 4.326424 -0.06882334
v -4.060057 2.833748 0.424931
v -2.55507 4.42025 0.4200187
v -0.2367314 6.864174 0.4124522
v -12.30494 -5.857765 0.451838
v -8.470454 -1.815575 0.4393239
v -31.10729 -25.67867 0.5132012
v -28.29731 -22.71646 0.5040307
v -27.78697 -28.72042 2.161443
v 13.20371 21.03271 0.3685889
v -22.29064 -18.22128 0.9502702
v -4.060057 2.833748 0.424931
v -1.680144 3.791756 0.8104625
v -8.470454 -1.815575 0.4393239
v -9.221906 -4.004036 0.7958894
v -0.2367314 6.864174 0.4124522
v -12.30494 -5.857765 0.451838
v -20.05721 -14.02999 0.477138
v 15.32363 23.26748 0.3616719
v 13.20371 21.03271 0.3685889
v 14.64098 23.89288 -0.06882143
v -24.46675 -31.76226 0.5132012
v -25.24907 -31.04553 0.9015651
v -23.24945 -30.38627 0.5090766
v -9.80841 -15.19284 0.463511
v -15.08895 -21.16181 0.4814124
v -34.24044 -35.76473 0.5132012
v -27.78697 -28.72042 2.161443
v -29.67731 -33.89605 0.5132012
v -25.24907 -31.04553 0.9015651
v 2.92551 10.19773 -0.5397782
v -2.298237 4.691017 -0.556828
v -4.313751 2.566307 -0.5634065
v -24.46675 -31.76226 -0.6508527
v -9.091839 -14.38282 -0.5987306
v -27.78697 -28.72042 -2.299063
v 19.18431 17.57738 -0.5030885
v 18.07413 16.31988 -0.5070786
v 15.94063 15.26029 -0.8383889
v 8.540228 5.548012 -0.53896
v 9.92484 9.19558 -1.035944
v 2.525497 -1.250877 -0.5593495
v 13.38049 11.8773 -0.7292428
v 20.23527 18.76778 -0.4993138
v 19.18431 17.57738 -0.5030885
v 20.91791 18.14237 -0.06882143
v -30.15096 -24.67052 -0.6477304
v -31.10729 -25.67867 -0.6508527
v -30.20736 -26.5031 -1.097579
v -9.091839 -14.38282 -0.5987306
v 2.525497 -1.250877 -0.5593495
v -6.722615 -9.90921 -1.023257
v -27.78697 -28.72042 -2.299063
v 17.77945 21.0176 -1.718403
v -30.20736 -26.5031 -1.097579
v 15.32363 23.26748 -0.4993138
v 2.92551 10.19773 -0.5397782
v -30.15096 -24.67052 -0.6477304
v -26.09988 -20.39999 -0.6345105
v -0.8871482 4.610664 -0.9498353
v -4.313751 2.566307 -0.5634065
v -18.56105 -12.45277 -0.6099057
v -21.61054 -17.34987 -1.046519
v -34.24044 -35.76473 -0.6508527
v -27.78697 -28.72042 -2.299063
v -32.09812 -28.86832 -0.6508527
v -30.20736 -26.5031 -1.097579
v -30.96612 -34.42385 -0.6508527
v -24.46675 -31.76226 -0.6508527
v -27.8421 -32.02735 -1.06919
v -27.78697 -28.72042 2.161443
v 17.77945 21.0176 1.580784
v -25.24907 -31.04553 0.9015651
v 20.23527 18.76778 0.3616719
v 13.84046 11.52471 0.3846173
v 10.84097 9.868034 0.8077216
v -23.24945 -30.38627 0.5090766
v -15.08895 -21.16181 0.4814124
v -9.80841 -15.19284 0.463511
v -14.6123 -18.93807 0.8857274
v 6.830704 3.615623 0.4071107
v -14.6123 -18.93807 0.8857274
v 6.830704 3.615623 0.4071107
vt 0.9106445 0.2180176
vt 0.9106445 0.2180176
vt 0.9106445 0.2180176
vt 0.9106445 0.2180176
vt 0.6157227 0.409668
vt 0.6157227 0.409668
vt 0.6157227 0.409668
vt 0.6157227 0.409668
vt 0.9106445 0.2180176
vt 0.9106445 0.2180176
vt 0.9106445 0.2180176
vt 0.9106445 0.2180176
vt 0.9106445 0.2180176
vt 0.9106445 0.2180176
vt 0.9106445 0.2180176
vt 0.9106445 0.2180176
vt 0.9106445 0.2180176
vt 0.9106445 0.2180176
vt 0.9106445 0.2180176
vt 0.9106445 0.2180176
vt 0.9106445 0.2180176
vt 0.9106445 0.2180176
vt 0.9106445 0.2180176
vt 0.9106445 0.2180176
vt 0.9106445 0.2180176
vt 0.9106445 0.2180176
vt 0.9106445 0.2180176
vt 0.9106445 0.2180176
vt 0.9106445 0.2180176
vt 0.9106445 0.2180176
vt 0.9106445 0.2180176
vt 0.9106445 0.2180176
vt 0.9106445 0.2180176
vt 0.9106445 0.2180176
vt 0.9106445 0.2180176
vt 0.9106445 0.2180176
vt 0.9106445 0.2180176
vt 0.9106445 0.2180176
vt 0.9106445 0.2180176
vt 0.9106445 0.2180176
vt 0.9106445 0.2180176
vt 0.9106445 0.2180176
vt 0.9106445 0.2180176
vt 0.9106445 0.2180176
vt 0.9135742 0.3671875
vt 0.9150391 0.2634277
vt 0.9106445 0.3164063
vt 0.9106445 0.3164063
vt 0.9106445 0.3164063
vt 0.9150391 0.2634277
vt 0.9106445 0.3164063
vt 0.9150391 0.2634277
vt 0.9106445 0.3164063
vt 0.9150391 0.2634277
vt 0.9160156 0.2646484
vt 0.9160156 0.2646484
vt 0.9160156 0.2646484
vt 0.9160156 0.2646484
vt 0.6157227 0.409668
vt 0.6157227 0.409668
vt 0.6157227 0.409668
vt 0.6157227 0.409668
vt 0.6157227 0.409668
vt 0.6157227 0.409668
vt 0.6157227 0.409668
vt 0.6157227 0.409668
vt 0.6176758 0.2653809
vt 0.6176758 0.2653809
vt 0.6176758 0.2653809
vt 0.6176758 0.2653809
vt 0.6176758 0.2653809
vt 0.6176758 0.2653809
vt 0.6176758 0.2653809
vt 0.6176758 0.2653809
vt 0.6176758 0.2653809
vt 0.6176758 0.2653809
vt 0.6176758 0.2653809
vt 0.6176758 0.2653809
vt 0.6176758 0.2653809
vt 0.6176758 0.2653809
vt 0.6176758 0.2653809
vt 0.6176758 0.2653809
vt 0.6176758 0.2653809
vt 0.6176758 0.2653809
vt 0.6176758 0.2653809
vt 0.6176758 0.2653809
vt 0.6176758 0.2653809
vt 0.6176758 0.2653809
vt 0.6176758 0.2653809
vt 0.6176758 0.2653809
vt 0.9106445 0.3164063
vt 0.9106445 0.3164063
vt 0.9106445 0.3164063
vt 0.9106445 0.3164063
vt 0.9106445 0.3164063
vt 0.621582 0.3271484
vt 0.621582 0.3271484
vt 0.621582 0.3271484
vt 0.621582 0.3271484
vt 0.621582 0.3271484
vt 0.621582 0.3271484
vt 0.621582 0.3271484
vt 0.621582 0.3271484
vt 0.621582 0.3271484
vt 0.621582 0.3271484
vt 0.621582 0.3271484
vt 0.621582 0.3271484
vt 0.621582 0.3271484
vt 0.621582 0.3271484
vt 0.621582 0.3271484
vt 0.621582 0.3271484
vt 0.621582 0.3271484
vt 0.621582 0.3271484
vt 0.621582 0.3271484
vt 0.621582 0.3271484
vt 0.621582 0.3271484
vt 0.621582 0.3271484
vt 0.621582 0.3271484
vt 0.621582 0.3271484
vt 0.621582 0.3271484
vt 0.621582 0.3271484
vt 0.621582 0.3271484
vt 0.621582 0.3271484
vt 0.621582 0.3271484
vt 0.621582 0.3271484
vt 0.621582 0.3271484
vt 0.621582 0.3271484
vt 0.9135742 0.3671875
vt 0.9106445 0.3164063
vt 0.9106445 0.3164063
vt 0.9106445 0.3164063
vt 0.9106445 0.3164063
vt 0.9106445 0.3164063
vt 0.9135742 0.3671875
vt 0.9106445 0.3164063
vt 0.9106445 0.3164063
vt 0.9106445 0.3164063
vt 0.9135742 0.3671875
vt 0.9106445 0.3164063
vt 0.9106445 0.3164063
vt 0.9106445 0.3164063
vt 0.9106445 0.3164063
vt 0.9106445 0.3164063
vt 0.9135742 0.3671875
vt 0.9135742 0.3671875
vt 0.9135742 0.3671875
vt 0.9106445 0.3164063
vt 0.9106445 0.3164063
vt 0.9135742 0.3671875
vt 0.9106445 0.3164063
vt 0.9106445 0.3164063
vt 0.9135742 0.3671875
vt 0.9106445 0.3164063
vt 0.9135742 0.3671875
vt 0.9135742 0.3671875
vt 0.9106445 0.3164063
vt 0.9106445 0.3164063
vt 0.9135742 0.3671875
vt 0.9106445 0.3164063
vt 0.9135742 0.3671875
vt 0.9135742 0.3671875
vt 0.9106445 0.3164063
vt 0.9106445 0.3164063
vt 0.9135742 0.3671875
vt 0.9135742 0.3671875
vt 0.9135742 0.3671875
vt 0.9135742 0.3671875
vt 0.9135742 0.3671875
vt 0.9135742 0.3671875
vt 0.9106445 0.3164063
vt 0.9135742 0.3671875
vt 0.9106445 0.3164063
vt 0.9135742 0.3671875
vt 0.9106445 0.3164063
vt 0.9106445 0.3164063
vt 0.9155273 0.263916
vt 0.9106445 0.3164063
vt 0.9135742 0.3671875
vt 0.9106445 0.3164063
vt 0.9106445 0.3164063
vt 0.9155273 0.263916
vt 0.9135742 0.3671875
vt 0.9106445 0.2180176
vt 0.9106445 0.2180176
vt 0.9106445 0.2180176
vt 0.9106445 0.2180176
vt 0.9106445 0.2180176
vt 0.9106445 0.2180176
vt 0.9106445 0.2180176
vt 0.9106445 0.2180176
vt 0.6157227 0.409668
vt 0.6157227 0.409668
vt 0.6157227 0.409668
vt 0.6157227 0.409668
vt 0.6157227 0.409668
vt 0.6157227 0.409668
vt 0.6157227 0.409668
vt 0.6157227 0.409668
vt 0.9106445 0.2180176
vt 0.9106445 0.2180176
vt 0.9106445 0.2180176
vt 0.9106445 0.2180176
vt 0.9106445 0.2180176
vt 0.9106445 0.2180176
vt 0.9106445 0.2180176
vt 0.9106445 0.2180176
vt 0.9106445 0.2180176
vt 0.9106445 0.2180176
vt 0.9106445 0.2180176
vt 0.9106445 0.2180176
vt 0.9106445 0.2180176
vt 0.9106445 0.2180176
vt 0.9106445 0.2180176
vt 0.9106445 0.2180176
vt 0.9106445 0.2180176
vt 0.9106445 0.2180176
vt 0.9106445 0.2180176
vt 0.9106445 0.2180176
vt 0.9106445 0.2180176
vt 0.9106445 0.2180176
vt 0.9106445 0.2180176
vt 0.9106445 0.2180176
vt 0.9106445 0.2180176
vt 0.9106445 0.2180176
vt 0.9106445 0.2180176
vt 0.9106445 0.2180176
vt 0.9106445 0.2180176
vt 0.9106445 0.2180176
vt 0.9106445 0.2180176
vt 0.9106445 0.2180176
vt 0.9106445 0.2180176
vt 0.9106445 0.2180176
vt 0.9106445 0.2180176
vt 0.9106445 0.2180176
vt 0.9106445 0.2180176
vt 0.9106445 0.2180176
vt 0.9106445 0.2180176
vt 0.9106445 0.2180176
vt 0.9106445 0.2180176
vt 0.9106445 0.2180176
vt 0.9106445 0.2180176
vt 0.9106445 0.2180176
vt 0.9106445 0.2180176
vt 0.9106445 0.2180176
vt 0.9106445 0.2180176
vt 0.9106445 0.2180176
vt 0.9106445 0.2180176
vt 0.9106445 0.2180176
vt 0.9106445 0.2180176
vt 0.9106445 0.2180176
vt 0.9106445 0.2180176
vt 0.9106445 0.2180176
vt 0.9106445 0.2180176
vt 0.9106445 0.2180176
vt 0.9106445 0.2180176
vt 0.9106445 0.2180176
vt 0.9106445 0.2180176
vt 0.9106445 0.2180176
vt 0.9106445 0.2180176
vt 0.9106445 0.2180176
vt 0.9106445 0.2180176
vt 0.9106445 0.2180176
vt 0.9106445 0.2180176
vt 0.9106445 0.2180176
vt 0.9106445 0.2180176
vt 0.9106445 0.2180176
vt 0.9106445 0.2180176
vt 0.9106445 0.2180176
vt 0.9106445 0.2180176
vt 0.9106445 0.2180176
vt 0.9106445 0.2180176
vt 0.9106445 0.2180176
vt 0.9106445 0.2180176
vt 0.9106445 0.2180176
vt 0.9106445 0.2180176
vt 0.9106445 0.2180176
vt 0.9106445 0.2180176
vt 0.9106445 0.2180176
vt 0.9106445 0.3164063
vt 0.9106445 0.3164063
vt 0.9135742 0.3671875
vt 0.9135742 0.3671875
vt 0.9106445 0.3164063
vt 0.9106445 0.3164063
vt 0.9135742 0.3671875
vt 0.9135742 0.3671875
vt 0.9150391 0.2634277
vt 0.9150391 0.2634277
vt 0.9150391 0.2634277
vt 0.9135742 0.3671875
vt 0.9135742 0.3671875
vt 0.621582 0.3271484
vt 0.621582 0.3271484
vt 0.621582 0.3271484
vt 0.621582 0.3271484
vt 0.621582 0.3271484
vt 0.621582 0.3271484
vt 0.621582 0.3271484
vt 0.621582 0.3271484
vt 0.6157227 0.409668
vt 0.6157227 0.409668
vt 0.6157227 0.409668
vt 0.6157227 0.409668
vt 0.6157227 0.409668
vt 0.6157227 0.409668
vt 0.6157227 0.409668
vt 0.6157227 0.409668
vt 0.6157227 0.409668
vt 0.6157227 0.409668
vt 0.6157227 0.409668
vt 0.6157227 0.409668
vt 0.6176758 0.2653809
vt 0.6176758 0.2653809
vt 0.6176758 0.2653809
vt 0.6176758 0.2653809
vt 0.6176758 0.2653809
vt 0.6176758 0.2653809
vt 0.6176758 0.2653809
vt 0.6176758 0.2653809
vt 0.621582 0.3271484
vt 0.621582 0.3271484
vt 0.621582 0.3271484
vt 0.621582 0.3271484
vt 0.621582 0.3271484
vt 0.621582 0.3271484
vt 0.621582 0.3271484
vt 0.621582 0.3271484
vt 0.6176758 0.2653809
vt 0.6176758 0.2653809
vt 0.6176758 0.2653809
vt 0.6176758 0.2653809
vt 0.6176758 0.2653809
vt 0.6176758 0.2653809
vt 0.6176758 0.2653809
vt 0.6176758 0.2653809
vt 0.621582 0.3271484
vt 0.621582 0.3271484
vt 0.621582 0.3271484
vt 0.621582 0.3271484
vt 0.621582 0.3271484
vt 0.621582 0.3271484
vt 0.621582 0.3271484
vt 0.621582 0.3271484
vt 0.6176758 0.2653809
vt 0.6176758 0.2653809
vt 0.6176758 0.2653809
vt 0.6176758 0.2653809
vt 0.6176758 0.2653809
vt 0.6176758 0.2653809
vt 0.6176758 0.2653809
vt 0.6176758 0.2653809
vt 0.621582 0.3271484
vt 0.621582 0.3271484
vt 0.621582 0.3271484
vt 0.621582 0.3271484
vt 0.621582 0.3271484
vt 0.621582 0.3271484
vt 0.621582 0.3271484
vt 0.621582 0.3271484
vt 0.9106445 0.3164063
vt 0.9106445 0.3164063
vt 0.9106445 0.3164063
vt 0.9106445 0.3164063
vt 0.9106445 0.3164063
vt 0.9106445 0.3164063
vt 0.9106445 0.3164063
vt 0.9106445 0.3164063
vt 0.9106445 0.3164063
vt 0.9106445 0.3164063
vt 0.9106445 0.3164063
vt 0.9106445 0.3164063
vt 0.9106445 0.3164063
vt 0.9106445 0.3164063
vt 0.9106445 0.3164063
vt 0.9106445 0.3164063
vt 0.9106445 0.3164063
vt 0.9106445 0.3164063
vt 0.621582 0.3271484
vt 0.621582 0.3271484
vt 0.621582 0.3271484
vt 0.621582 0.3271484
vt 0.621582 0.3271484
vt 0.621582 0.3271484
vt 0.621582 0.3271484
vt 0.621582 0.3271484
vt 0.621582 0.3271484
vt 0.621582 0.3271484
vt 0.621582 0.3271484
vt 0.621582 0.3271484
vt 0.621582 0.3271484
vt 0.621582 0.3271484
vt 0.621582 0.3271484
vt 0.621582 0.3271484
vt 0.621582 0.3271484
vt 0.621582 0.3271484
vt 0.621582 0.3271484
vt 0.621582 0.3271484
vt 0.621582 0.3271484
vt 0.621582 0.3271484
vt 0.621582 0.3271484
vt 0.621582 0.3271484
vt 0.621582 0.3271484
vt 0.621582 0.3271484
vt 0.621582 0.3271484
vt 0.621582 0.3271484
vt 0.621582 0.3271484
vt 0.621582 0.3271484
vt 0.621582 0.3271484
vt 0.621582 0.3271484
vt 0.621582 0.3271484
vt 0.621582 0.3271484
vt 0.621582 0.3271484
vt 0.621582 0.3271484
vt 0.621582 0.3271484
vt 0.621582 0.3271484
vt 0.621582 0.3271484
vt 0.621582 0.3271484
vt 0.621582 0.3271484
vt 0.621582 0.3271484
vt 0.621582 0.3271484
vt 0.621582 0.3271484
vt 0.621582 0.3271484
vt 0.621582 0.3271484
vt 0.621582 0.3271484
vt 0.621582 0.3271484
vt 0.621582 0.3271484
vt 0.621582 0.3271484
vt 0.621582 0.3271484
vt 0.621582 0.3271484
vt 0.621582 0.3271484
vt 0.621582 0.3271484
vt 0.621582 0.3271484
vt 0.621582 0.3271484
vt 0.621582 0.3271484
vt 0.621582 0.3271484
vt 0.621582 0.3271484
vt 0.621582 0.3271484
vt 0.621582 0.3271484
vt 0.621582 0.3271484
vt 0.621582 0.3271484
vt 0.621582 0.3271484
vt 0.621582 0.3271484
vt 0.621582 0.3271484
vt 0.621582 0.3271484
vt 0.621582 0.3271484
vt 0.621582 0.3271484
vt 0.621582 0.3271484
vt 0.621582 0.3271484
vt 0.621582 0.3271484
vt 0.621582 0.3271484
vt 0.621582 0.3271484
vt 0.621582 0.3271484
vt 0.621582 0.3271484
vt 0.621582 0.3271484
vt 0.621582 0.3271484
vt 0.621582 0.3271484
vt 0.621582 0.3271484
vt 0.621582 0.3271484
vt 0.621582 0.3271484
vt 0.621582 0.3271484
vt 0.621582 0.3271484
vt 0.621582 0.3271484
vt 0.621582 0.3271484
vt 0.621582 0.3271484
vt 0.621582 0.3271484
vt 0.621582 0.3271484
vt 0.621582 0.3271484
vt 0.621582 0.3271484
vt 0.621582 0.3271484
vt 0.621582 0.3271484
vt 0.621582 0.3271484
vt 0.621582 0.3271484
vt 0.621582 0.3271484
vt 0.621582 0.3271484
vt 0.621582 0.3271484
vt 0.621582 0.3271484
vt 0.621582 0.3271484
vt 0.621582 0.3271484
vt 0.621582 0.3271484
vt 0.621582 0.3271484
vt 0.621582 0.3271484
vt 0.621582 0.3271484
vt 0.621582 0.3271484
vt 0.621582 0.3271484
vt 0.621582 0.3271484
vt 0.621582 0.3271484
vt 0.621582 0.3271484
vt 0.621582 0.3271484
vt 0.621582 0.3271484
vt 0.621582 0.3271484
vt 0.621582 0.3271484
vt 0.621582 0.3271484
vt 0.621582 0.3271484
vt 0.621582 0.3271484
vt 0.621582 0.3271484
vt 0.621582 0.3271484
vt 0.621582 0.3271484
vt 0.621582 0.3271484
vt 0.621582 0.3271484
vt 0.621582 0.3271484
vt 0.621582 0.3271484
vt 0.621582 0.3271484
vt 0.621582 0.3271484
vt 0.621582 0.3271484
vt 0.621582 0.3271484
vt 0.621582 0.3271484
vt 0.621582 0.3271484
vt 0.621582 0.3271484
vt 0.621582 0.3271484
vt 0.621582 0.3271484
vt 0.621582 0.3271484
vt 0.621582 0.3271484
vt 0.621582 0.3271484
vt 0.9106445 0.3164063
vt 0.9106445 0.3164063
vt 0.9106445 0.3164063
vt 0.9106445 0.3164063
vt 0.9106445 0.3164063
vt 0.9106445 0.3164063
vt 0.9106445 0.3164063
vt 0.9106445 0.3164063
vt 0.9106445 0.3164063
vt 0.9106445 0.3164063
vt 0.9106445 0.3164063
vt 0.9106445 0.3164063
vt 0.9106445 0.3164063
vt 0.9106445 0.3164063
vt 0.9106445 0.3164063
vt 0.9106445 0.3164063
vt 0.9106445 0.3164063
vt 0.9106445 0.3164063
vt 0.9106445 0.3164063
vt 0.9106445 0.3164063
vt 0.9106445 0.3164063
vt 0.9106445 0.3164063
vt 0.9106445 0.3164063
vt 0.9106445 0.3164063
vt 0.9106445 0.3164063
vt 0.9106445 0.3164063
vt 0.9106445 0.3164063
vt 0.9106445 0.3164063
vt 0.9106445 0.3164063
vt 0.9106445 0.3164063
vt 0.9106445 0.3164063
vt 0.9106445 0.3164063
vt 0.9106445 0.3164063
vt 0.9106445 0.3164063
vt 0.9106445 0.3164063
vt 0.9106445 0.3164063
vt 0.9106445 0.3164063
vt 0.9106445 0.3164063
vt 0.9106445 0.3164063
vt 0.9106445 0.3164063
vt 0.9106445 0.3164063
vt 0.9135742 0.3671875
vt 0.9135742 0.3671875
vt 0.9135742 0.3671875
vt 0.9135742 0.3671875
vt 0.9135742 0.3671875
vt 0.9150391 0.2634277
vt 0.9150391 0.2634277
vt 0.9160156 0.2646484
vt 0.9150391 0.2634277
vt 0.9155273 0.263916
vt 0.9150391 0.2634277
vt 0.9155273 0.263916
vt 0.9150391 0.2634277
vt 0.9155273 0.2636719
vt 0.9150391 0.2634277
vt 0.9150391 0.2634277
vt 0.9150391 0.2634277
vt 0.9174805 0.2651367
vt 0.9174805 0.2651367
vt 0.9174805 0.2651367
vt 0.9135742 0.3671875
vt 0.9135742 0.3671875
vt 0.9135742 0.3671875
vt 0.9135742 0.3671875
vt 0.9135742 0.3671875
vt 0.9150391 0.2634277
vt 0.9160156 0.2646484
vt 0.9150391 0.2634277
vt 0.9155273 0.263916
vt 0.9135742 0.3671875
vt 0.9135742 0.3671875
vt 0.9135742 0.3671875
vt 0.9150391 0.2634277
vt 0.9150391 0.2634277
vt 0.9160156 0.2646484
vt 0.9150391 0.2634277
vt 0.9150391 0.2634277
vt 0.9155273 0.263916
vt 0.9150391 0.2634277
vt 0.9155273 0.263916
vt 0.9150391 0.2634277
vt 0.9155273 0.2636719
vt 0.9174805 0.2651367
vt 0.9174805 0.2651367
vt 0.9174805 0.2651367
vt 0.9135742 0.3671875
vt 0.9135742 0.3671875
vt 0.9135742 0.3671875
vt 0.9135742 0.3671875
vt 0.9135742 0.3671875
vt 0.9135742 0.3671875
vt 0.9160156 0.2646484
vt 0.9160156 0.2646484
vt 0.9155273 0.263916
vt 0.9150391 0.2634277
vt 0.9150391 0.2634277
vt 0.9150391 0.2634277
vt 0.9150391 0.2634277
vt 0.9155273 0.263916
vt 0.9150391 0.2634277
vt 0.9150391 0.2634277
vt 0.9155273 0.263916
vt 0.9150391 0.2634277
vt 0.9160156 0.2646484
vt 0.9150391 0.2634277
vt 0.9155273 0.263916
vt 0.9135742 0.3671875
vt 0.9135742 0.3671875
vt 0.9135742 0.3671875
vt 0.9160156 0.2646484
vt 0.9160156 0.2646484
vt 0.9155273 0.263916
vt 0.9150391 0.2634277
vt 0.9150391 0.2634277
vt 0.9155273 0.263916
vt 0.9150391 0.2634277
vt 0.9150391 0.2634277
vt 0.9150391 0.2634277
vt 0.9155273 0.263916
vt 0.9165039 0.2651367
vt 0.9155273 0.263916
vt 0.9165039 0.2651367
vn -0.675293 -0.7373047 0
vn -0.675293 -0.7373047 1.519918E-05
vn -0.675293 -0.7373047 0
vn -0.675293 -0.7373047 0
vn 0 0 1
vn 0 0 1
vn -0.7373047 0.675293 0
vn 0 0 -1
vn 0 0 1
vn 0 0 1
vn 0 0 1
vn 0 0 1
vn 0 0 -1
vn 0 0 -1
vn 0 0 -1
vn 0 0 -1
vn -0.675293 -0.7373047 0
vn -0.675293 -0.7373047 -1.323223E-05
vn -0.675293 -0.7373047 0
vn -0.675293 -0.7373047 0
vn 0 0 -1
vn 0 0 -1
vn -0.7373047 0.675293 0
vn 0 0 1
vn 0.675293 0.7373047 0
vn 0.675293 0.7373047 0
vn 0.675293 0.7373047 0
vn 0.675293 0.7373047 0
vn 0.675293 0.7373047 0
vn 0.675293 0.7373047 0
vn 0.675293 0.7373047 0
vn 0.675293 0.7373047 0
vn 0 0 1
vn 0 0 1
vn 0 0 -1
vn 0 0 -1
vn -0.9658203 0.2600098 0
vn -0.9658203 0.2600098 0
vn -0.9658203 0.2600098 0
vn -0.9658203 0.2600098 0
vn 0.3432617 -0.9389648 0
vn 0.3432617 -0.9389648 0
vn 0.3432617 -0.9389648 0
vn 0.3432617 -0.9389648 0
vn 0.1422119 -0.347168 0.9267578
vn -0.3581543 0.1112671 0.9267578
vn 0.1732178 -0.4230957 -0.8891602
vn -0.4365234 0.1356201 -0.8891602
vn -0.3044434 0.291748 -0.9067383
vn -0.2480469 0.2381592 0.9389648
vn 0.317627 -0.2775879 0.9067383
vn 0.2592773 -0.2258301 -0.9389648
vn -0.4304199 0.1345215 -0.8925781
vn -0.3581543 0.1112671 0.9267578
vn -0.2479248 0.2381592 0.9389648
vn 0.2587891 -0.2259521 -0.9389648
vn -0.3581543 0.1112671 0.9267578
vn 0.1422119 -0.347168 -0.9267578
vn 0 0 -1
vn 0 0 1
vn 0 0 1
vn -0.7373047 0.675293 0
vn 0.7373047 -0.675293 0
vn 0.7373047 -0.675293 0
vn 0 0 1
vn -0.7373047 0.675293 2.461672E-05
vn 0 0 1
vn 0 0 1
vn 0.7373047 -0.675293 0
vn 0 0 -1
vn 0 0 1
vn 0 0 1
vn 0.7373047 -0.675293 0
vn 0 0 -1
vn 0 0 1
vn 0 0 1
vn 0.7373047 -0.675293 0
vn 0 0 -1
vn 0 0 1
vn 0 0 1
vn 0.7373047 -0.675293 0
vn 0 0 -1
vn 0 0 1
vn 0 0 1
vn 0.7373047 -0.675293 0
vn 0 0 -1
vn 0 0 1
vn 0 0 1
vn 0.7373047 -0.675293 0
vn 0 0 -1
vn 0.3173828 -0.2768555 -0.9067383
vn 0.1721191 -0.4189453 -0.8916016
vn -0.4240723 0.1334229 -0.8959961
vn -0.432373 0.1348877 -0.8916016
vn -0.3041992 0.2915039 0.9067383
vn 0.7373047 -0.675293 0
vn 0.7373047 -0.675293 0
vn 0.7373047 -0.675293 0
vn 0.7373047 -0.675293 0
vn 0 0 1
vn 0 0 1
vn -0.7373047 0.675293 1.782179E-05
vn -0.7373047 0.675293 1.889467E-05
vn 0 0 1
vn 0 0 1
vn 0 0 1
vn 0 0 1
vn 0.7373047 -0.675293 0
vn 0.7373047 -0.675293 0
vn 0 0 -1
vn 0 0 -1
vn 0 0 1
vn 0 0 1
vn 0 0 1
vn 0 0 1
vn 0.7373047 -0.675293 0
vn 0.7373047 -0.675293 0
vn 0 0 -1
vn 0 0 -1
vn 0 0 1
vn 0 0 1
vn 0 0 1
vn 0 0 1
vn 0.7373047 -0.675293 0
vn 0.7373047 -0.675293 0
vn 0 0 -1
vn 0 0 -1
vn -0.2479248 0.2381592 0.9389648
vn -0.3044434 0.291748 -0.9067383
vn -0.3032227 0.2905273 0.9077148
vn -0.3037109 0.2910156 -0.9072266
vn 0.3137207 -0.2790527 -0.9077148
vn 0.3212891 -0.2814941 0.9042969
vn 0.2568359 -0.2263184 0.9394531
vn 0.3161621 -0.2800293 -0.90625
vn 0.3132324 -0.276123 -0.9086914
vn 0.3137207 -0.2792969 -0.9077148
vn 0.2553711 -0.2246094 0.9404297
vn 0.314209 -0.2741699 -0.9086914
vn -0.3022461 0.2895508 0.9082031
vn -0.3037109 0.2910156 0.9072266
vn -0.3022461 0.2895508 -0.9082031
vn -0.9399414 -0.1727295 -0.2949219
vn -0.2479248 0.2381592 0.9389648
vn -0.2479248 0.2381592 0.9389648
vn -0.2479248 0.2381592 0.9389648
vn -0.3029785 0.2902832 0.9077148
vn -0.3029785 0.2902832 0.9077148
vn -0.2479248 0.2381592 0.9389648
vn -0.3034668 0.2907715 0.9072266
vn -0.3010254 0.2883301 0.9091797
vn -0.2479248 0.2381592 0.9389648
vn -0.3032227 0.2905273 0.9077148
vn 0.2573242 -0.2246094 0.9399414
vn 0.2573242 -0.2254639 0.9394531
vn 0.3171387 -0.277832 0.9067383
vn 0.3171387 -0.277832 0.9067383
vn 0.2587891 -0.2261963 0.9389648
vn 0.3171387 -0.277832 0.9067383
vn 0.1422119 -0.347168 0.9267578
vn 0.1422119 -0.347168 0.9267578
vn -0.3037109 0.2910156 -0.9072266
vn -0.3024902 0.2897949 -0.9082031
vn -0.2479248 0.2381592 -0.9389648
vn 0.2587891 -0.2261963 -0.9389648
vn 0.2583008 -0.2253418 -0.9394531
vn 0.2583008 -0.2259521 -0.9394531
vn 0.2546387 -0.2224121 -0.940918
vn 0.2568359 -0.2246094 -0.9399414
vn 0.315918 -0.2756348 -0.9077148
vn -0.2479248 0.2381592 -0.9389648
vn -0.3044434 0.291748 -0.9067383
vn -0.2479248 0.2381592 -0.9389648
vn 0.3171387 -0.277832 -0.9067383
vn 0.3171387 -0.277832 -0.9067383
vn 0.2587891 -0.2261963 -0.9389648
vn -0.3044434 0.291748 -0.9067383
vn -0.3581543 0.1112671 -0.9267578
vn -0.4365234 0.1356201 -0.8891602
vn 0.1732178 -0.4230957 -0.8891602
vn 0.1422119 -0.347168 -0.9267578
vn 0.2587891 -0.2261963 0.9389648
vn -0.7373047 0.675293 0
vn -0.7373047 0.675293 0
vn -0.7373047 0.675293 0
vn -0.7373047 0.675293 0
vn 0.7373047 -0.675293 0
vn 0.7373047 -0.675293 0
vn 0.7373047 -0.675293 0
vn 0.7373047 -0.675293 0
vn -0.7373047 0.675293 0
vn -0.7373047 0.675293 0
vn 0 0 -1
vn 0 0 -1
vn 0.7373047 -0.675293 0
vn 0.7373047 -0.675293 0
vn 0.7373047 -0.675293 0
vn 0.7373047 -0.675293 0
vn 0.675293 0.7373047 0
vn 0.675293 0.7373047 0
vn 0.675293 0.7373047 0
vn 0.675293 0.7373047 0
vn 0.675293 0.7373047 0
vn 0.675293 0.7373047 0
vn 0.675293 0.7373047 0
vn 0.675293 0.7373047 0
vn 0 0 -1
vn 0 0 -1
vn -0.7373047 0.675293 0
vn -0.7373047 0.675293 0
vn -0.7373047 0.675293 0
vn 0 0 1
vn 0 0 1
vn 0 0 1
vn 0.7373047 -0.675293 0
vn 0.7373047 -0.675293 0
vn 0.7373047 -0.675293 0
vn 0.7373047 -0.675293 0
vn 0.241333 0.2634277 -0.934082
vn 0.241333 0.2634277 -0.934082
vn 0.241333 0.2634277 -0.934082
vn 0.241333 0.2634277 -0.934082
vn -0.01641846 1 0
vn -0.01641846 1 0
vn -0.01641846 1 0
vn -0.01641846 1 0
vn 0.241333 0.2634277 0.934082
vn 0.241333 0.2634277 0.934082
vn 0.241333 0.2634277 0.934082
vn 0.241333 0.2634277 0.934082
vn 0.9975586 0.07086182 0
vn 0.9975586 0.07086182 0
vn 0.9975586 0.07086182 0
vn 0.9975586 0.07086182 0
vn 0.675293 0.7373047 0
vn 0.675293 0.7373047 0
vn 0.675293 0.7373047 0
vn 0.675293 0.7373047 0
vn 0 0 1
vn 0 0 1
vn 0 0 -1
vn 0 0 -1
vn 0.4121094 0.9111328 0
vn 0.4121094 0.9111328 0
vn 0.4121094 0.9111328 0
vn 0.4121094 0.9111328 0
vn -0.2807617 0.08105469 -0.956543
vn -0.2810059 0.07843018 -0.956543
vn -0.2810059 0.07843018 -0.956543
vn -0.28125 0.07574463 -0.956543
vn -0.4624023 -0.8867188 0
vn -0.4624023 -0.8867188 0
vn -0.4624023 -0.8867188 0
vn -0.4624023 -0.8867188 0
vn -0.2807617 0.08105469 0.956543
vn -0.2810059 0.07843018 0.956543
vn -0.2810059 0.07843018 0.956543
vn -0.28125 0.07574463 0.956543
vn 0.871582 0.4902344 0
vn 0.871582 0.4902344 0
vn 0.871582 0.4902344 0
vn 0.871582 0.4902344 0
vn 0.1052856 -0.2724609 0.956543
vn 0.1026611 -0.2729492 0.956543
vn 0.1026611 -0.2729492 0.956543
vn 0.09997559 -0.2734375 0.956543
vn -0.8427734 -0.5380859 0
vn -0.8427734 -0.5380859 0
vn -0.8427734 -0.5380859 0
vn -0.8427734 -0.5380859 0
vn 0.1052856 -0.2724609 -0.956543
vn 0.1026611 -0.2729492 -0.956543
vn 0.1026611 -0.2729492 -0.956543
vn 0.09997559 -0.2734375 -0.956543
vn -0.675293 -0.7373047 0
vn -0.675293 -0.7373047 0
vn -0.675293 -0.7373047 0
vn -0.675293 -0.7373047 0
vn -0.3044434 0.291748 -0.9067383
vn -0.3044434 0.291748 -0.9067383
vn -0.2479248 0.2381592 -0.9389648
vn -0.2479248 0.2381592 -0.9389648
vn 0.1699219 -0.4106445 -0.8959961
vn 0.1716309 -0.4169922 -0.8925781
vn 0.2580566 -0.227417 -0.9389648
vn 0.2548828 -0.2233887 -0.940918
vn 0.1422119 -0.347168 -0.9267578
vn 0.1422119 -0.347168 -0.9267578
vn 0.1422119 -0.347168 -0.9267578
vn -0.3581543 0.1112671 -0.9267578
vn -0.3581543 0.1112671 -0.9267578
vn 0 0 1
vn 0 0 1
vn -0.7373047 0.675293 1.674891E-05
vn -0.7373047 0.675293 1.782179E-05
vn 0 0 -1
vn 0 0 -1
vn 0 0 -1
vn 0 0 -1
vn 0.7373047 -0.675293 0
vn 0.7373047 -0.675293 0
vn 0 0 1
vn 0 0 1
vn 0 0 1
vn -0.7373047 0.675293 0
vn -0.7373047 0.675293 1.227856E-05
vn -0.7373047 0.675293 1.227856E-05
vn 0 0 -1
vn 0 0 -1
vn 0 0 -1
vn 0 0 -1
vn 0.7373047 -0.675293 0
vn 0.7373047 -0.675293 0
vn 0 0 -1
vn 0 0 -1
vn -0.7373047 0.675293 2.17557E-05
vn -0.7373047 0.675293 2.157688E-05
vn -0.7373047 0.675293 2.157688E-05
vn -0.7373047 0.675293 2.139807E-05
vn 0.7373047 -0.675293 0
vn 0.7373047 -0.675293 0
vn 0 0 -1
vn 0 0 -1
vn -0.7373047 0.675293 1.502037E-05
vn -0.7373047 0.675293 0
vn -0.7373047 0.675293 0
vn -0.7373047 0.675293 0
vn 0.7373047 -0.675293 0
vn 0.7373047 -0.675293 0
vn 0 0 -1
vn 0 0 -1
vn -0.7373047 0.675293 0
vn -0.7373047 0.675293 0
vn -0.7373047 0.675293 0
vn -0.7373047 0.675293 0
vn 0.7373047 -0.675293 0
vn 0.7373047 -0.675293 0
vn 0 0 -1
vn 0 0 -1
vn -0.7373047 0.675293 0
vn -0.7373047 0.675293 0
vn -0.7373047 0.675293 0
vn -0.7373047 0.675293 0
vn 0.7373047 -0.675293 0
vn 0.7373047 -0.675293 0
vn 0 0 -1
vn 0 0 -1
vn -0.7373047 0.675293 0
vn -0.7373047 0.675293 0
vn -0.7373047 0.675293 0
vn -0.7373047 0.675293 0
vn 0.7373047 -0.675293 0
vn 0.7373047 -0.675293 0
vn 0 0 -1
vn 0 0 -1
vn -0.7373047 0.675293 0
vn -0.7373047 0.675293 0
vn -0.7373047 0.675293 0
vn -0.7373047 0.675293 0
vn 0.3178711 -0.2807617 0.9057617
vn 0.3198242 -0.2802734 0.9052734
vn 0.3178711 -0.2785645 0.90625
vn 0.3171387 -0.277832 0.9067383
vn 0.1699219 -0.4106445 0.8959961
vn 0.1716309 -0.4169922 0.8925781
vn 0.1721191 -0.4189453 0.8916016
vn 0.1732178 -0.4230957 0.8891602
vn 0.1732178 -0.4230957 0.8891602
vn -0.4240723 0.1334229 0.8959961
vn -0.4304199 0.1345215 0.8925781
vn -0.4304199 0.1345215 0.8925781
vn -0.4365234 0.1356201 0.8891602
vn -0.3037109 0.2910156 0.9072266
vn -0.3044434 0.291748 0.9067383
vn -0.3044434 0.291748 0.9067383
vn -0.3044434 0.291748 0.9067383
vn -0.3044434 0.291748 0.9067383
vn 0.675293 0.7373047 -2.080202E-05
vn 0.675293 0.7373047 0
vn 0.675293 0.7373047 0
vn 0.675293 0.7373047 0
vn -0.675293 -0.7373047 0
vn -0.675293 -0.7373047 0
vn -0.675293 -0.7373047 0
vn -0.675293 -0.7373047 0
vn 0.675293 0.7373047 0
vn 0.675293 0.7373047 0
vn -0.5737305 -0.8115234 0.1096191
vn -0.5737305 -0.8115234 0.1096191
vn -0.5737305 -0.8115234 0.1096191
vn -0.5922852 -0.8007813 -0.09112549
vn -0.5922852 -0.8007813 -0.09112549
vn -0.5922852 -0.8007813 -0.09112549
vn 0.675293 0.7373047 -1.674891E-05
vn 0.675293 0.7373047 -2.080202E-05
vn -0.675293 -0.7373047 0
vn -0.675293 -0.7373047 0
vn -0.675293 -0.7373047 0
vn -0.675293 -0.7373047 0
vn -0.5737305 -0.8115234 0.1096191
vn -0.5737305 -0.8115234 0.1096191
vn -0.5737305 -0.8115234 0.1096191
vn -0.5922852 -0.8007813 -0.09112549
vn -0.5922852 -0.8007813 -0.09112549
vn -0.5922852 -0.8007813 -0.09112549
vn 0.7802734 0.6088867 -0.1435547
vn 0.7802734 0.6088867 -0.1435547
vn 0.7802734 0.6088867 -0.1435547
vn 0.7651367 0.6328125 0.1196899
vn 0.7651367 0.6328125 0.1196899
vn 0.7651367 0.6328125 0.1196899
vn -0.7802734 -0.6088867 -0.1435547
vn -0.7802734 -0.6088867 -0.1435547
vn -0.7802734 -0.6088867 -0.1435547
vn -0.7651367 -0.6328125 0.1196899
vn -0.7651367 -0.6328125 0.1196899
vn -0.7651367 -0.6328125 0.1196899
vn 0.675293 0.7373047 0
vn 0.675293 0.7373047 0
vn 0.675293 0.7373047 0
vn 0.675293 0.7373047 0
vn -0.675293 -0.7373047 0
vn -0.675293 -0.7373047 0
vn -0.675293 -0.7373047 0
vn -0.675293 -0.7373047 0
vn -0.7802734 -0.6088867 -0.1435547
vn -0.7802734 -0.6088867 -0.1435547
vn -0.7802734 -0.6088867 -0.1435547
vn -0.7651367 -0.6328125 0.1196899
vn -0.7651367 -0.6328125 0.1196899
vn -0.7651367 -0.6328125 0.1196899
vn 0.7802734 0.6088867 -0.1435547
vn 0.7802734 0.6088867 -0.1435547
vn 0.7802734 0.6088867 -0.1435547
vn 0.7651367 0.6328125 0.1196899
vn 0.7651367 0.6328125 0.1196899
vn 0.7651367 0.6328125 0.1196899
vn 0.675293 0.7373047 0
vn 0.675293 0.7373047 0
vn 0.675293 0.7373047 0
vn 0.675293 0.7373047 0
vn -0.675293 -0.7373047 0
vn -0.675293 -0.7373047 0
vn -0.675293 -0.7373047 0
vn -0.675293 -0.7373047 0
vn 0.5610352 0.8188477 0.1220703
vn 0.5610352 0.8188477 0.1220703
vn 0.5610352 0.8188477 0.1220703
vn 0.5820313 0.8066406 -0.1015625
vn 0.5820313 0.8066406 -0.1015625
vn 0.5820313 0.8066406 -0.1015625
vn -0.5869141 -0.8037109 0.09655762
vn -0.5869141 -0.8037109 0.09655762
vn -0.5869141 -0.8037109 0.09655762
vn -0.6030273 -0.7939453 -0.0802002
vn -0.6030273 -0.7939453 -0.0802002
vn -0.6030273 -0.7939453 -0.0802002
vn 0.675293 0.7373047 0
vn 0.675293 0.7373047 0
vn 0.675293 0.7373047 0
vn 0.675293 0.7373047 0
vn -0.675293 -0.7373047 0
vn -0.675293 -0.7373047 0
vn -0.675293 -0.7373047 0
vn -0.675293 -0.7373047 0
vn -0.5869141 -0.8037109 0.09655762
vn -0.5869141 -0.8037109 0.09655762
vn -0.5869141 -0.8037109 0.09655762
vn -0.6030273 -0.7939453 -0.08013916
vn -0.6030273 -0.7939453 -0.08013916
vn -0.6030273 -0.7939453 -0.08013916
vn 0.5610352 0.8188477 0.1220703
vn 0.5610352 0.8188477 0.1220703
vn 0.5610352 0.8188477 0.1220703
vn 0.5820313 0.8066406 -0.1015625
vn 0.5820313 0.8066406 -0.1015625
vn 0.5820313 0.8066406 -0.1015625
vn 0.675293 0.7373047 0
vn 0.675293 0.7373047 0
vn 0.675293 0.7373047 0
vn 0.675293 0.7373047 0
vn -0.675293 -0.7373047 0
vn -0.675293 -0.7373047 0
vn -0.675293 -0.7373047 0
vn -0.675293 -0.7373047 0
vn 0.7519531 0.6513672 -0.1003418
vn 0.7519531 0.6513672 -0.1003418
vn 0.7519531 0.6513672 -0.1003418
vn 0.7402344 0.6669922 0.08337402
vn 0.7402344 0.6669922 0.08337402
vn 0.7402344 0.6669922 0.08337402
vn -0.675293 -0.7373047 0
vn -0.675293 -0.7373047 0
vn -0.675293 -0.7373047 0
vn -0.675293 -0.7373047 0
vn 0.675293 0.7373047 0
vn 0.675293 0.7373047 0
vn 0.675293 0.7373047 0
vn 0.675293 0.7373047 0
vn -0.675293 -0.7373047 0
vn -0.675293 -0.7373047 0
vn -0.675293 -0.7373047 0
vn -0.675293 -0.7373047 0
vn 0.7519531 0.6513672 -0.1003418
vn 0.7519531 0.6513672 -0.1003418
vn 0.7519531 0.6513672 -0.1003418
vn 0.7402344 0.6669922 0.08337402
vn 0.7402344 0.6669922 0.08337402
vn 0.7402344 0.6669922 0.08337402
vn 0.675293 0.7373047 0
vn 0.675293 0.7373047 0
vn 0.675293 0.7373047 0
vn 0.675293 0.7373047 0
vn -0.3029785 0.2902832 0.9077148
vn -0.3032227 0.2905273 -0.9077148
vn -0.3032227 0.2902832 -0.9077148
vn -0.3034668 0.2907715 -0.9072266
vn -0.2250977 0.9741211 0.02679443
vn -0.2250977 0.9741211 0.02679443
vn -0.2250977 0.9741211 0.02679443
vn -0.9882813 0.1516113 -0.02770996
vn -0.9882813 0.1516113 -0.02770996
vn -0.9882813 0.1516113 -0.02770996
vn 0.3137207 -0.2775879 0.9082031
vn 0.3144531 -0.2797852 0.9072266
vn 0.314209 -0.2797852 0.9072266
vn -0.1485596 -0.9321289 -0.329834
vn -0.1485596 -0.9321289 -0.329834
vn -0.1485596 -0.9321289 -0.329834
vn 0.3200684 -0.2802734 -0.9047852
vn 0.3212891 -0.2814941 -0.9042969
vn 0.3183594 -0.2788086 -0.90625
vn 0.3171387 -0.277832 -0.9067383
vn 0.3125 -0.2731934 -0.909668
vn 0.3144531 -0.2744141 0.9086914
vn 0.3129883 -0.2729492 0.909668
vn 0.3156738 -0.2753906 0.9082031
vn 0.8959961 0.3691406 0.2470703
vn 0.8959961 0.3691406 0.2470703
vn 0.8959961 0.3691406 0.2470703
vn 0.01307678 -0.9785156 -0.2056885
vn 0.01307678 -0.9785156 -0.2056885
vn 0.01307678 -0.9785156 -0.2056885
vn 0.9433594 -0.2849121 0.1704102
vn 0.9433594 -0.2849121 0.1704102
vn 0.9433594 -0.2849121 0.1704102
vn -0.9399414 -0.1727295 -0.2949219
vn -0.9399414 -0.1727295 -0.2949219
vn -0.302002 0.2893066 0.9082031
vn -0.3012695 0.2888184 -0.9086914
vn -0.3032227 0.2905273 -0.9077148
vn -0.1315918 0.9638672 0.2325439
vn -0.1315918 0.9638672 0.2325439
vn -0.1315918 0.9638672 0.2325439
vn -0.2479248 0.2381592 0.9389648
vn -0.2479248 0.2381592 0.9389648
vn -0.2479248 0.2381592 0.9389648
vn -0.2479248 0.2381592 0.9389648
vn -0.2479248 0.2381592 0.9389648
vn -0.2479248 0.2381592 0.9389648
vn -0.2479248 0.2381592 0.9389648
vn -0.2479248 0.2381592 0.9389648
vn -0.2480469 0.2381592 0.9389648
vn -0.2479248 0.2381592 0.9389648
vn -0.2479248 0.2381592 0.9389648
vn -0.2479248 0.2381592 0.9389648
vn -0.2479248 0.2381592 0.9389648
vn -0.2479248 0.2381592 0.9389648
vn -0.2479248 0.2381592 0.9389648
vn -0.2479248 0.2381592 0.9389648
vn -0.2479248 0.2381592 0.9389648
vn -0.3044434 0.291748 0.9067383
vn -0.3032227 0.2905273 0.9077148
vn -0.3041992 0.2915039 0.9067383
vn 0.2587891 -0.2261963 0.9389648
vn 0.2587891 -0.2261963 0.9389648
vn 0.2587891 -0.2261963 0.9389648
vn 0.2587891 -0.2261963 0.9389648
vn 0.2587891 -0.2261963 0.9389648
vn 0.1422119 -0.347168 0.9267578
vn 0.1422119 -0.347168 0.9267578
vn 0.1422119 -0.347168 0.9267578
vn 0.1422119 -0.347168 0.9267578
vn -0.2479248 0.2381592 -0.9389648
vn -0.2479248 0.2381592 -0.9389648
vn -0.2479248 0.2381592 -0.9389648
vn 0.2587891 -0.2261963 -0.9389648
vn 0.2587891 -0.2261963 -0.9389648
vn 0.2587891 -0.2261963 -0.9389648
vn 0.2592773 -0.2258301 -0.9389648
vn 0.2583008 -0.2253418 -0.9394531
vn 0.2568359 -0.2246094 -0.9399414
vn 0.2587891 -0.2261963 -0.9389648
vn 0.2583008 -0.2259521 -0.9394531
vn 0.2587891 -0.2261963 -0.9389648
vn 0.2546387 -0.2224121 -0.940918
vn 0.317627 -0.2775879 -0.9067383
vn 0.315918 -0.2756348 -0.9077148
vn 0.3173828 -0.2768555 -0.9067383
vn -0.2479248 0.2381592 -0.9389648
vn -0.2479248 0.2381592 -0.9389648
vn -0.2479248 0.2381592 -0.9389648
vn 0.2587891 -0.2261963 -0.9389648
vn 0.2587891 -0.2261963 -0.9389648
vn 0.2587891 -0.2261963 -0.9389648
vn -0.2479248 0.2381592 -0.9389648
vn -0.2479248 0.2381592 -0.9389648
vn -0.2479248 0.2381592 -0.9389648
vn -0.2479248 0.2381592 -0.9389648
vn -0.2479248 0.2381592 -0.9389648
vn -0.2479248 0.2381592 -0.9389648
vn -0.2479248 0.2381592 -0.9389648
vn -0.2479248 0.2381592 -0.9389648
vn -0.2479248 0.2381592 -0.9389648
vn -0.2479248 0.2381592 -0.9389648
vn -0.2479248 0.2381592 -0.9389648
vn -0.3581543 0.1112671 -0.9267578
vn -0.3581543 0.1112671 -0.9267578
vn -0.3581543 0.1112671 -0.9267578
vn -0.3581543 0.1112671 -0.9267578
vn 0.1422119 -0.347168 -0.9267578
vn 0.1422119 -0.347168 -0.9267578
vn 0.1422119 -0.347168 -0.9267578
vn 0.2587891 -0.2261963 0.9389648
vn 0.2585449 -0.2259521 0.9389648
vn 0.2587891 -0.2261963 0.9389648
vn 0.2592773 -0.2258301 0.9389648
vn 0.2573242 -0.2246094 0.9399414
vn 0.2573242 -0.2254639 0.9394531
vn 0.2587891 -0.2261963 0.9389648
vn 0.2587891 -0.2261963 0.9389648
vn 0.2587891 -0.2261963 0.9389648
vn 0.2587891 -0.2261963 0.9389648
vn 0.2587891 -0.2261963 0.9389648
vn 0.2587891 -0.2261963 0.9389648
vn 0.2587891 -0.2261963 0.9389648
g Item_Sword_0
f 10/10/10 12/12/12 9/9/9
f 10/10/10 11/11/11 12/12/12
f 14/14/14 16/16/16 13/13/13
f 14/14/14 15/15/15 16/16/16
f 26/26/26 28/28/28 25/25/25
f 26/26/26 27/27/27 28/28/28
f 185/185/185 184/184/184 183/183/183
f 185/185/185 186/186/186 184/184/184
f 189/189/189 188/188/188 187/187/187
f 189/189/189 190/190/190 188/188/188
f 61/61/61 5/5/5 60/60/60
f 61/61/61 6/6/6 5/5/5
f 62/62/62 192/192/192 191/191/191
f 62/62/62 7/7/7 192/192/192
f 193/193/193 59/59/59 8/8/8
f 193/193/193 194/194/194 59/59/59
f 197/197/197 196/196/196 195/195/195
f 197/197/197 198/198/198 196/196/196
f 201/201/201 200/200/200 199/199/199
f 201/201/201 202/202/202 200/200/200
f 203/203/203 202/202/202 201/201/201
f 203/203/203 204/204/204 202/202/202
f 205/205/205 204/204/204 203/203/203
f 205/205/205 206/206/206 204/204/204
f 199/199/199 206/206/206 205/205/205
f 199/199/199 200/200/200 206/206/206
f 4/4/4 17/17/17 3/3/3
f 4/4/4 18/18/18 17/17/17
f 2/2/2 18/18/18 4/4/4
f 2/2/2 19/19/19 18/18/18
f 1/1/1 19/19/19 2/2/2
f 1/1/1 20/20/20 19/19/19
f 3/3/3 20/20/20 1/1/1
f 3/3/3 17/17/17 20/20/20
f 208/208/208 21/21/21 207/207/207
f 208/208/208 22/22/22 21/21/21
f 211/211/211 210/210/210 209/209/209
f 211/211/211 23/23/23 210/210/210
f 214/214/214 213/213/213 212/212/212
f 214/214/214 24/24/24 213/213/213
f 217/217/217 216/216/216 215/215/215
f 217/217/217 218/218/218 216/216/216
f 221/221/221 220/220/220 219/219/219
f 221/221/221 222/222/222 220/220/220
f 225/225/225 224/224/224 223/223/223
f 225/225/225 226/226/226 224/224/224
f 229/229/229 228/228/228 227/227/227
f 229/229/229 230/230/230 228/228/228
f 233/233/233 232/232/232 231/231/231
f 233/233/233 234/234/234 232/232/232
f 236/236/236 30/30/30 235/235/235
f 236/236/236 29/29/29 30/30/30
f 237/237/237 29/29/29 236/236/236
f 237/237/237 32/32/32 29/29/29
f 238/238/238 32/32/32 237/237/237
f 238/238/238 31/31/31 32/32/32
f 235/235/235 31/31/31 238/238/238
f 235/235/235 30/30/30 31/31/31
f 240/240/240 34/34/34 239/239/239
f 240/240/240 33/33/33 34/34/34
f 242/242/242 36/36/36 241/241/241
f 242/242/242 35/35/35 36/36/36
f 37/37/37 40/40/40 38/38/38
f 37/37/37 39/39/39 40/40/40
f 41/41/41 44/44/44 42/42/42
f 41/41/41 43/43/43 44/44/44
f 245/245/245 244/244/244 243/243/243
f 245/245/245 246/246/246 244/244/244
f 249/249/249 248/248/248 247/247/247
f 249/249/249 250/250/250 248/248/248
f 253/253/253 252/252/252 251/251/251
f 253/253/253 254/254/254 252/252/252
f 257/257/257 256/256/256 255/255/255
f 257/257/257 258/258/258 256/256/256
f 261/261/261 260/260/260 259/259/259
f 261/261/261 262/262/262 260/260/260
f 265/265/265 264/264/264 263/263/263
f 265/265/265 266/266/266 264/264/264
f 269/269/269 268/268/268 267/267/267
f 269/269/269 270/270/270 268/268/268
f 273/273/273 272/272/272 271/271/271
f 273/273/273 274/274/274 272/272/272
f 277/277/277 276/276/276 275/275/275
f 277/277/277 278/278/278 276/276/276
f 94/94/94 53/53/53 93/93/93
f 94/94/94 179/179/179 53/53/53
f 48/48/48 179/179/179 94/94/94
f 172/172/172 129/129/129 131/131/131
f 172/172/172 279/279/279 129/129/129
f 172/172/172 177/177/177 279/279/279
f 279/279/279 177/177/177 280/280/280
f 516/516/516 515/515/515 131/131/131
f 517/517/517 515/515/515 516/516/516
f 162/162/162 515/515/515 517/517/517
f 162/162/162 517/517/517 142/142/142
f 550/550/550 163/163/163 142/142/142
f 551/551/551 163/163/163 550/550/550
f 49/49/49 163/163/163 551/551/551
f 46/46/46 54/54/54 57/57/57
f 137/137/137 135/135/135 136/136/136
f 137/137/137 132/132/132 135/135/135
f 531/531/531 530/530/530 135/135/135
f 532/532/532 530/530/530 531/531/531
f 532/532/532 175/175/175 530/530/530
f 532/532/532 174/174/174 175/175/175
f 533/533/533 174/174/174 532/532/532
f 136/136/136 534/534/534 139/139/139
f 139/139/139 534/534/534 170/170/170
f 139/139/139 170/170/170 91/91/91
f 173/173/173 281/281/281 171/171/171
f 173/173/173 282/282/282 281/281/281
f 284/284/284 92/92/92 283/283/283
f 180/180/180 92/92/92 284/284/284
f 180/180/180 47/47/47 92/92/92
f 161/161/161 45/45/45 160/160/160
f 167/167/167 285/285/285 165/165/165
f 286/286/286 285/285/285 167/167/167
f 286/286/286 167/167/167 168/168/168
f 286/286/286 168/168/168 169/169/169
f 286/286/286 169/169/169 166/166/166
f 134/134/134 155/155/155 182/182/182
f 134/134/134 138/138/138 155/155/155
f 155/155/155 138/138/138 154/154/154
f 146/146/146 128/128/128 144/144/144
f 146/146/146 145/145/145 128/128/128
f 58/58/58 288/288/288 287/287/287
f 58/58/58 181/181/181 288/288/288
f 289/289/289 181/181/181 58/58/58
f 291/291/291 290/290/290 178/178/178
f 97/97/97 99/99/99 96/96/96
f 97/97/97 98/98/98 99/99/99
f 100/100/100 293/293/293 292/292/292
f 100/100/100 101/101/101 293/293/293
f 102/102/102 295/295/295 294/294/294
f 102/102/102 103/103/103 295/295/295
f 298/298/298 297/297/297 296/296/296
f 298/298/298 299/299/299 297/297/297
f 301/301/301 63/63/63 300/300/300
f 301/301/301 64/64/64 63/63/63
f 304/304/304 303/303/303 302/302/302
f 304/304/304 65/65/65 303/303/303
f 307/307/307 306/306/306 305/305/305
f 307/307/307 66/66/66 306/306/306
f 310/310/310 309/309/309 308/308/308
f 310/310/310 311/311/311 309/309/309
f 71/71/71 68/68/68 67/67/67
f 71/71/71 72/72/72 68/68/68
f 312/312/312 73/73/73 69/69/69
f 312/312/312 313/313/313 73/73/73
f 74/74/74 315/315/315 314/314/314
f 74/74/74 70/70/70 315/315/315
f 318/318/318 317/317/317 316/316/316
f 318/318/318 319/319/319 317/317/317
f 106/106/106 105/105/105 104/104/104
f 106/106/106 107/107/107 105/105/105
f 320/320/320 109/109/109 108/108/108
f 320/320/320 321/321/321 109/109/109
f 110/110/110 323/323/323 322/322/322
f 110/110/110 111/111/111 323/323/323
f 326/326/326 325/325/325 324/324/324
f 326/326/326 327/327/327 325/325/325
f 79/79/79 76/76/76 75/75/75
f 79/79/79 80/80/80 76/76/76
f 328/328/328 81/81/81 77/77/77
f 328/328/328 329/329/329 81/81/81
f 82/82/82 331/331/331 330/330/330
f 82/82/82 78/78/78 331/331/331
f 334/334/334 333/333/333 332/332/332
f 334/334/334 335/335/335 333/333/333
f 112/112/112 115/115/115 113/113/113
f 112/112/112 114/114/114 115/115/115
f 336/336/336 117/117/117 116/116/116
f 336/336/336 337/337/337 117/117/117
f 119/119/119 338/338/338 118/118/118
f 119/119/119 339/339/339 338/338/338
f 342/342/342 341/341/341 340/340/340
f 342/342/342 343/343/343 341/341/341
f 87/87/87 84/84/84 83/83/83
f 87/87/87 88/88/88 84/84/84
f 344/344/344 89/89/89 85/85/85
f 344/344/344 345/345/345 89/89/89
f 90/90/90 347/347/347 346/346/346
f 90/90/90 86/86/86 347/347/347
f 350/350/350 349/349/349 348/348/348
f 350/350/350 351/351/351 349/349/349
f 122/122/122 121/121/121 120/120/120
f 122/122/122 123/123/123 121/121/121
f 352/352/352 125/125/125 124/124/124
f 352/352/352 353/353/353 125/125/125
f 126/126/126 355/355/355 354/354/354
f 126/126/126 127/127/127 355/355/355
f 358/358/358 357/357/357 356/356/356
f 358/358/358 359/359/359 357/357/357
f 361/361/361 133/133/133 360/360/360
f 361/361/361 362/362/362 133/133/133
f 156/156/156 362/362/362 361/361/361
f 157/157/157 362/362/362 156/156/156
f 157/157/157 159/159/159 362/362/362
f 362/362/362 159/159/159 363/363/363
f 525/525/525 524/524/524 360/360/360
f 525/525/525 526/526/526 524/524/524
f 536/536/536 535/535/535 524/524/524
f 537/537/537 535/535/535 536/536/536
f 51/51/51 535/535/535 537/537/537
f 366/366/366 365/365/365 364/364/364
f 366/366/366 367/367/367 365/365/365
f 367/367/367 366/366/366 368/368/368
f 371/371/371 370/370/370 369/369/369
f 371/371/371 372/372/372 370/370/370
f 375/375/375 374/374/374 373/373/373
f 376/376/376 374/374/374 375/375/375
f 377/377/377 374/374/374 376/376/376
f 514/514/514 130/130/130 373/373/373
f 514/514/514 147/147/147 130/130/130
f 130/130/130 147/147/147 148/148/148
f 130/130/130 148/148/148 150/150/150
f 130/130/130 150/150/150 141/141/141
f 141/141/141 150/150/150 140/140/140
f 151/151/151 549/549/549 140/140/140
f 549/549/549 151/151/151 153/153/153
f 549/549/549 153/153/153 95/95/95
f 380/380/380 379/379/379 378/378/378
f 380/380/380 381/381/381 379/379/379
f 386/386/386 381/381/381 380/380/380
f 386/386/386 387/387/387 381/381/381
f 394/394/394 387/387/387 386/386/386
f 394/394/394 395/395/395 387/387/387
f 378/378/378 395/395/395 394/394/394
f 378/378/378 379/379/379 395/395/395
f 384/384/384 383/383/383 382/382/382
f 384/384/384 385/385/385 383/383/383
f 390/390/390 389/389/389 388/388/388
f 393/393/393 392/392/392 391/391/391
f 398/398/398 397/397/397 396/396/396
f 398/398/398 399/399/399 397/397/397
f 402/402/402 401/401/401 400/400/400
f 405/405/405 404/404/404 403/403/403
f 408/408/408 407/407/407 406/406/406
f 411/411/411 410/410/410 409/409/409
f 414/414/414 413/413/413 412/412/412
f 417/417/417 416/416/416 415/415/415
f 420/420/420 419/419/419 418/418/418
f 420/420/420 421/421/421 419/419/419
f 424/424/424 423/423/423 422/422/422
f 424/424/424 425/425/425 423/423/423
f 428/428/428 427/427/427 426/426/426
f 431/431/431 430/430/430 429/429/429
f 434/434/434 433/433/433 432/432/432
f 437/437/437 436/436/436 435/435/435
f 440/440/440 439/439/439 438/438/438
f 440/440/440 441/441/441 439/439/439
f 444/444/444 443/443/443 442/442/442
f 444/444/444 445/445/445 443/443/443
f 448/448/448 447/447/447 446/446/446
f 451/451/451 450/450/450 449/449/449
f 454/454/454 453/453/453 452/452/452
f 457/457/457 456/456/456 455/455/455
f 460/460/460 459/459/459 458/458/458
f 460/460/460 461/461/461 459/459/459
f 464/464/464 463/463/463 462/462/462
f 464/464/464 465/465/465 463/463/463
f 468/468/468 467/467/467 466/466/466
f 471/471/471 470/470/470 469/469/469
f 474/474/474 473/473/473 472/472/472
f 477/477/477 476/476/476 475/475/475
f 480/480/480 479/479/479 478/478/478
f 480/480/480 481/481/481 479/479/479
f 484/484/484 483/483/483 482/482/482
f 484/484/484 485/485/485 483/483/483
f 488/488/488 487/487/487 486/486/486
f 491/491/491 490/490/490 489/489/489
f 494/494/494 493/493/493 492/492/492
f 494/494/494 495/495/495 493/493/493
f 500/500/500 495/495/495 494/494/494
f 500/500/500 501/501/501 495/495/495
f 502/502/502 501/501/501 500/500/500
f 502/502/502 503/503/503 501/501/501
f 492/492/492 503/503/503 502/502/502
f 492/492/492 493/493/493 503/503/503
f 498/498/498 497/497/497 496/496/496
f 498/498/498 499/499/499 497/497/497
f 506/506/506 505/505/505 504/504/504
f 509/509/509 508/508/508 507/507/507
f 512/512/512 511/511/511 510/510/510
f 512/512/512 513/513/513 511/511/511
f 520/520/520 519/519/519 518/518/518
f 523/523/523 522/522/522 521/521/521
f 529/529/529 528/528/528 527/527/527
f 540/540/540 539/539/539 538/538/538
f 543/543/543 542/542/542 541/541/541
f 546/546/546 545/545/545 544/544/544
f 548/548/548 143/143/143 547/547/547
f 554/554/554 553/553/553 552/552/552
f 152/152/152 556/556/556 555/555/555
f 152/152/152 557/557/557 556/556/556
f 149/149/149 559/559/559 558/558/558
f 562/562/562 561/561/561 560/560/560
f 562/562/562 564/564/564 561/561/561
f 568/568/568 564/564/564 562/562/562
f 568/568/568 562/562/562 566/566/566
f 568/568/568 566/566/566 567/567/567
f 567/567/567 566/566/566 565/565/565
f 566/566/566 562/562/562 563/563/563
f 563/563/563 562/562/562 50/50/50
f 50/50/50 562/562/562 55/55/55
f 566/566/566 563/563/563 569/569/569
f 570/570/570 564/564/564 568/568/568
f 571/571/571 564/564/564 570/570/570
f 574/574/574 573/573/573 572/572/572
f 577/577/577 576/576/576 575/575/575
f 158/158/158 579/579/579 578/578/578
f 582/582/582 581/581/581 580/580/580
f 582/582/582 583/583/583 581/581/581
f 164/164/164 585/585/585 584/584/584
f 164/164/164 586/586/586 585/585/585
f 589/589/589 588/588/588 587/587/587
f 589/589/589 176/176/176 588/588/588
f 594/594/594 176/176/176 589/589/589
f 594/594/594 589/589/589 592/592/592
f 592/592/592 589/589/589 56/56/56
f 592/592/592 56/56/56 591/591/591
f 591/591/591 56/56/56 590/590/590
f 590/590/590 56/56/56 52/52/52
f 594/594/594 592/592/592 596/596/596
f 595/595/595 176/176/176 594/594/594
f 595/595/595 594/594/594 593/593/593
f 599/599/599 598/598/598 597/597/597
f 602/602/602 601/601/601 600/600/600
f 605/605/605 604/604/604 603/603/603
f 608/608/608 607/607/607 606/606/606
f 608/608/608 613/613/613 607/607/607
f 607/607/607 613/613/613 610/610/610
f 607/607/607 610/610/610 609/609/609
f 616/616/616 613/613/613 608/608/608
f 616/616/616 608/608/608 612/612/612
f 612/612/612 608/608/608 611/611/611
f 615/615/615 613/613/613 616/616/616
f 613/613/613 615/615/615 614/614/614
f 619/619/619 618/618/618 617/617/617
f 619/619/619 620/620/620 618/618/618
f 623/623/623 622/622/622 621/621/621
f 626/626/626 625/625/625 624/624/624
f 635/635/635 625/625/625 626/626/626
f 635/635/635 626/626/626 631/631/631
f 631/631/631 626/626/626 630/630/630
f 635/635/635 629/629/629 625/625/625
f 625/625/625 629/629/629 628/628/628
f 625/625/625 628/628/628 627/627/627
f 629/629/629 635/635/635 636/636/636
f 634/634/634 633/633/633 632/632/632
