g Item_SwordSheath
v -1.897369 -50.6849 -0.4690533
v 1.961304 -50.64267 -0.4522524
v -1.901611 -50.68399 0.5047646
v 1.957062 -50.64176 0.5215778
v -4.227196 19.94374 -1.016939
v 3.877533 20.03242 -0.981636
v 3.869171 20.03421 0.9354877
v -4.235565 19.94554 0.9001837
v -0.1850281 19.99027 1.336446
v -0.1729889 19.98769 -1.417904
v 0.02656555 -50.63611 0.7257824
v 0.03315735 -50.69234 -0.6732559
v -5.603111 -24.38171 1.829025
v -5.493912 -40.70422 1.844779
v -4.345955 -27.4188 2.241741
v -5.556442 -31.18537 1.291527
v -0.06503296 -35.19377 2.672084
v -5.477966 -40.68489 -1.859061
v 0.005706787 -35.1982 -2.649019
v 5.377136 -40.56608 -1.811788
v 5.467987 -40.56145 1.892494
v -5.897423 -44.41951 2.171612
v -5.87841 -44.42358 -2.182429
v -5.91172 -40.68994 -2.186065
v -5.930527 -40.70869 2.167994
v 0.04541016 -44.45223 -3.290155
v 0.01036072 -35.19987 -3.298964
v 5.815353 -40.56933 -2.147315
v 5.741653 -44.30414 -2.144139
v 5.934845 -44.29664 2.210556
v 5.90155 -40.563 2.206921
v -0.06787109 -35.19316 3.322313
v 0.0138855 -44.35458 3.331242
v -0.1220398 12.30698 2.627406
v 5.321838 16.92622 1.838104
v 5.284515 16.92216 -1.865952
v -0.09881592 12.302 -2.693892
v -5.6241 16.80279 -1.913465
v -5.640282 16.80625 1.790346
v -0.1247864 12.30757 3.257333
v 5.742081 16.92729 2.152871
v -0.1933746 19.99205 3.249839
v 5.714203 20.05176 2.149826
v 5.707901 16.9223 -2.181037
v 5.733521 20.04734 -2.183858
v -0.09567261 12.30107 -3.323749
v -0.1642151 19.98554 -3.331243
v -6.044312 16.79787 -2.230259
v -6.072197 19.92234 -2.233306
v -6.063232 16.80192 2.103477
v -6.091118 19.92639 2.100432
v 5.394318 -9.362097 1.863003
v 5.357483 6.237566 1.84825
v 2.635544 3.92795 2.24291
v 4.821884 -0.4022655 1.719295
v -2.844513 46.48541 -1.544497
v 2.84433 46.48541 -1.544497
v -2.844513 46.48541 1.638244
v 2.84433 46.48541 1.638244
v -2.844513 26.38394 -1.544497
v 2.84433 26.38394 -1.544497
v 2.84433 26.38394 1.638244
v -2.844513 26.38394 1.638244
v -4.631256 26.38394 -2.191403
v 4.631256 26.38394 -2.191403
v 4.631256 23.61511 -2.191403
v -4.631256 23.61511 -2.191403
v -4.631256 23.61511 2.284888
v 4.631256 23.61511 2.284888
v 4.631256 26.38394 2.284888
v -4.631256 26.38394 2.284888
v -3.445587 46.48541 2.256301
v 3.44632 46.48541 2.256301
v 3.44632 46.48541 -2.162594
v -3.445587 46.48541 -2.162594
v -3.445587 48.8353 2.256301
v 3.44632 48.8353 2.256301
v 3.44632 48.8353 -2.162594
v -3.445587 48.8353 -2.162594
v -1.484772 50.69234 1.545855
v 1.485199 50.69234 1.545855
v 1.485199 50.69234 -1.452111
v -1.484772 50.69234 -1.452111
v 5.570404 23.61511 -2.645314
v -5.570473 23.61511 -2.645314
v -5.570473 23.61511 2.739028
v 5.570404 23.61511 2.739028
v 4.559784 21.57778 -2.645314
v -4.559967 21.57778 -2.645314
v -4.559967 21.57778 2.739028
v 4.559784 21.57778 2.739028
v 10.75064 21.91673 1.101486
v 10.75064 21.91673 -1.00778
v 9.842804 20.16712 1.101486
v 9.842804 20.16712 -1.00778
v -10.75064 21.91673 -1.00778
v -10.75064 21.91673 1.101486
v -9.842857 20.16712 -1.00778
v -9.842857 20.16712 1.101486
v 4.029694 21.57778 0.5677452
v 4.029694 21.57778 -0.4740047
v -4.029884 21.57778 -0.4740047
v -4.029884 21.57778 0.5677452
v 3.051758E-05 21.57778 -1.949078
v 3.051758E-05 21.57778 2.042786
v -2.844513 28.94059 1.638244
v -2.844513 28.94059 -1.544497
v 2.84433 28.94059 -1.544497
v 2.84433 28.94059 1.638244
v -2.844513 44.41946 1.638244
v -2.844513 44.41946 -1.544497
v 2.844391 44.41946 -1.544497
v 2.84433 44.41946 1.638244
v 2.844391 41.63017 -1.544497
v -2.844513 42.35249 -1.544497
v -2.844513 42.35249 1.638244
v 2.84433 41.63017 1.638244
v 2.844391 41.10943 -1.544497
v -2.844513 40.15376 -1.544497
v -2.844513 40.15376 1.638244
v 2.84433 41.10943 1.638244
v 2.84433 38.18826 -1.544497
v -2.844513 37.2326 -1.544497
v -2.844513 37.2326 1.638244
v 2.84433 38.18826 1.638244
v 2.84433 35.85383 -1.544497
v -2.844513 36.66067 -1.544497
v -2.844513 36.66067 1.638244
v 2.84433 35.85383 1.638244
v 2.84433 32.91631 -1.544497
v -2.844513 33.55026 -1.544497
v -2.844513 33.55026 1.638244
v 2.84433 32.91631 1.638244
v 2.84433 32.10918 -1.544497
v -2.844513 31.44934 -1.544497
v -2.844513 31.44934 1.638244
v 2.84433 32.10918 1.638244
v -5.149933 21.57778 0.04687309
v 5.150055 21.57778 0.04687309
v -3.437042 44.0283 2.314885
v -3.437042 44.0283 -2.221136
v -3.437042 42.77724 -2.221136
v -3.437042 42.77724 2.314885
v 3.437103 44.0283 -2.221136
v 3.437103 42.05492 -2.221136
v 3.437042 44.0283 2.314885
v 3.437042 42.05492 2.314885
v 3.437103 40.65128 -2.221136
v -3.437042 39.69561 -2.221136
v 3.437042 38.63952 -2.221136
v -3.437042 37.68385 -2.221136
v -3.437042 39.69561 2.314885
v -3.437042 37.68385 2.314885
v 3.437042 38.63952 2.314885
v 3.437042 40.65128 2.314885
v 3.437042 35.37059 -2.221136
v -3.437042 36.17744 -2.221136
v 3.437042 33.28171 -2.221136
v -3.437042 33.91565 -2.221136
v -3.437042 36.17744 2.314885
v -3.437042 33.91565 2.314885
v 3.437042 33.28171 2.314885
v 3.437042 35.37059 2.314885
v 3.437042 31.71092 -2.221136
v -3.437042 31.05107 -2.221136
v 3.437042 29.3692 -2.221136
v -3.437042 29.3692 -2.221136
v -3.437042 31.05107 2.314885
v -3.437042 29.3692 2.314885
v 3.437042 29.3692 2.314885
v 3.437042 31.71092 2.314885
v 4.091522 18.02075 0.575736
v -4.095673 17.99825 -0.4825087
v 3.051758E-05 18.09999 2.072722
v 3.051758E-05 17.91895 -1.980572
v -5.239532 18.02535 0.04687309
v 5.231781 17.99368 0.04687405
v 4.092377 17.9735 -0.4821024
v -4.095009 18.04553 0.5761499
v -5.6241 16.80279 -1.913465
v -0.1220398 12.30698 2.627406
v -5.603111 -24.38171 1.829025
v -5.477966 -40.68489 -1.859061
v -5.6241 16.80279 -1.913465
v -5.556442 -31.18537 1.291527
v -5.6241 16.80279 -1.913465
v -5.603111 -24.38171 1.829025
v -5.603111 -24.38171 1.829025
v -5.640282 16.80625 1.790346
v -0.1729889 19.98769 -1.417904
v -4.227196 19.94374 -1.016939
v -0.1220398 12.30698 2.627406
v -0.06503296 -35.19377 2.672084
v 5.394318 -9.362097 1.863003
v 5.284515 16.92216 -1.865952
v 0.005706787 -35.1982 -2.649019
v 5.284515 16.92216 -1.865952
v -0.09881592 12.302 -2.693892
v 3.869171 20.03421 0.9354877
v 3.877533 20.03242 -0.981636
v -5.603111 -24.38171 1.829025
v -4.345955 -27.4188 2.241741
v -5.556442 -31.18537 1.291527
v -5.556442 -31.18537 1.291527
v -4.345955 -27.4188 2.241741
v -5.493912 -40.70422 1.844779
v -5.87841 -44.42358 -2.182429
v -5.91172 -40.68994 -2.186065
v 0.04541016 -44.45223 -3.290155
v 0.01036072 -35.19987 -3.298964
v 5.741653 -44.30414 -2.144139
v 5.815353 -40.56933 -2.147315
v -5.897423 -44.41951 2.171612
v -5.930527 -40.70869 2.167994
v -0.06787109 -35.19316 3.322313
v 5.90155 -40.563 2.206921
v 0.0138855 -44.35458 3.331242
v 5.934845 -44.29664 2.210556
v -1.897369 -50.6849 -0.4690533
v -5.87841 -44.42358 -2.182429
v -1.901611 -50.68399 0.5047646
v -5.897423 -44.41951 2.171612
v -5.477966 -40.68489 -1.859061
v -5.493912 -40.70422 1.844779
v -5.91172 -40.68994 -2.186065
v -5.930527 -40.70869 2.167994
v 0.03315735 -50.69234 -0.6732559
v 0.04541016 -44.45223 -3.290155
v -1.897369 -50.6849 -0.4690533
v 0.04541016 -44.45223 -3.290155
v -5.87841 -44.42358 -2.182429
v -1.897369 -50.6849 -0.4690533
v 0.005706787 -35.1982 -2.649019
v -5.477966 -40.68489 -1.859061
v 0.01036072 -35.19987 -3.298964
v -5.477966 -40.68489 -1.859061
v -5.91172 -40.68994 -2.186065
v 0.01036072 -35.19987 -3.298964
v 5.815353 -40.56933 -2.147315
v 5.377136 -40.56608 -1.811788
v 0.01036072 -35.19987 -3.298964
v 5.377136 -40.56608 -1.811788
v 0.005706787 -35.1982 -2.649019
v 0.01036072 -35.19987 -3.298964
v 0.03315735 -50.69234 -0.6732559
v 1.961304 -50.64267 -0.4522524
v 0.04541016 -44.45223 -3.290155
v 1.961304 -50.64267 -0.4522524
v 5.741653 -44.30414 -2.144139
v 0.04541016 -44.45223 -3.290155
v 1.961304 -50.64267 -0.4522524
v 1.957062 -50.64176 0.5215778
v 5.741653 -44.30414 -2.144139
v 1.957062 -50.64176 0.5215778
v 5.934845 -44.29664 2.210556
v 5.467987 -40.56145 1.892494
v 5.377136 -40.56608 -1.811788
v 5.90155 -40.563 2.206921
v 5.815353 -40.56933 -2.147315
v -5.930527 -40.70869 2.167994
v -5.493912 -40.70422 1.844779
v -0.06787109 -35.19316 3.322313
v -5.493912 -40.70422 1.844779
v -0.06503296 -35.19377 2.672084
v -0.06787109 -35.19316 3.322313
v 0.02656555 -50.63611 0.7257824
v -1.901611 -50.68399 0.5047646
v 0.0138855 -44.35458 3.331242
v -1.901611 -50.68399 0.5047646
v -5.897423 -44.41951 2.171612
v 0.0138855 -44.35458 3.331242
v -0.06503296 -35.19377 2.672084
v 5.467987 -40.56145 1.892494
v -0.06787109 -35.19316 3.322313
v 5.467987 -40.56145 1.892494
v 5.90155 -40.563 2.206921
v -0.06787109 -35.19316 3.322313
v 0.02656555 -50.63611 0.7257824
v 0.0138855 -44.35458 3.331242
v 1.957062 -50.64176 0.5215778
v 0.0138855 -44.35458 3.331242
v 5.934845 -44.29664 2.210556
v 1.957062 -50.64176 0.5215778
v 5.714203 20.05176 2.149826
v 5.742081 16.92729 2.152871
v 5.733521 20.04734 -2.183858
v 5.714203 20.05176 2.149826
v 5.733521 20.04734 -2.183858
v -0.1642151 19.98554 -3.331243
v 5.707901 16.9223 -2.181037
v -6.072197 19.92234 -2.233306
v -0.1642151 19.98554 -3.331243
v -0.09567261 12.30107 -3.323749
v -6.044312 16.79787 -2.230259
v -6.072197 19.92234 -2.233306
v -6.091118 19.92639 2.100432
v -0.1933746 19.99205 3.249839
v -6.063232 16.80192 2.103477
v -0.1247864 12.30757 3.257333
v -5.493912 -40.70422 1.844779
v -4.345955 -27.4188 2.241741
v -0.06503296 -35.19377 2.672084
v -0.1220398 12.30698 2.627406
v 5.742081 16.92729 2.152871
v 5.321838 16.92622 1.838104
v -0.1247864 12.30757 3.257333
v 5.321838 16.92622 1.838104
v -0.1220398 12.30698 2.627406
v -0.1247864 12.30757 3.257333
v -0.1850281 19.99027 1.336446
v -0.1933746 19.99205 3.249839
v 5.284515 16.92216 -1.865952
v 5.321838 16.92622 1.838104
v 5.707901 16.9223 -2.181037
v 5.742081 16.92729 2.152871
v -0.09881592 12.302 -2.693892
v 5.284515 16.92216 -1.865952
v -0.09567261 12.30107 -3.323749
v 5.284515 16.92216 -1.865952
v 5.707901 16.9223 -2.181037
v -0.09567261 12.30107 -3.323749
v -6.044312 16.79787 -2.230259
v -5.6241 16.80279 -1.913465
v -0.09567261 12.30107 -3.323749
v -5.6241 16.80279 -1.913465
v -0.09881592 12.302 -2.693892
v -0.09567261 12.30107 -3.323749
v -5.640282 16.80625 1.790346
v -5.6241 16.80279 -1.913465
v -6.063232 16.80192 2.103477
v -6.044312 16.79787 -2.230259
v -4.235565 19.94554 0.9001837
v -6.091118 19.92639 2.100432
v -0.1220398 12.30698 2.627406
v -5.640282 16.80625 1.790346
v -0.1247864 12.30757 3.257333
v -5.640282 16.80625 1.790346
v -6.063232 16.80192 2.103477
v -0.1247864 12.30757 3.257333
v 5.394318 -9.362097 1.863003
v 2.635544 3.92795 2.24291
v 5.357483 6.237566 1.84825
v 5.321838 16.92622 1.838104
v 4.821884 -0.4022655 1.719295
v 5.377136 -40.56608 -1.811788
v 5.394318 -9.362097 1.863003
v 5.467987 -40.56145 1.892494
v 4.821884 -0.4022655 1.719295
v 5.357483 6.237566 1.84825
v 5.284515 16.92216 -1.865952
v 5.394318 -9.362097 1.863003
v 4.821884 -0.4022655 1.719295
v 5.284515 16.92216 -1.865952
v 4.631256 26.38394 -2.191403
v 4.631256 23.61511 -2.191403
v 4.631256 26.38394 2.284888
v 4.631256 23.61511 2.284888
v -4.631256 26.38394 2.284888
v -4.631256 23.61511 2.284888
v -4.631256 26.38394 -2.191403
v -4.631256 23.61511 -2.191403
v 2.84433 28.94059 -1.544497
v 2.84433 26.38394 -1.544497
v 2.84433 26.38394 1.638244
v 2.84433 28.94059 1.638244
v -2.844513 28.94059 1.638244
v -2.844513 26.38394 1.638244
v -2.844513 28.94059 -1.544497
v -2.844513 26.38394 -1.544497
v -2.844513 26.38394 -1.544497
v -4.631256 26.38394 -2.191403
v 2.84433 26.38394 -1.544497
v 4.631256 26.38394 -2.191403
v 2.84433 26.38394 1.638244
v 4.631256 26.38394 2.284888
v -2.844513 26.38394 1.638244
v -4.631256 26.38394 2.284888
v -3.445587 46.48541 2.256301
v 3.44632 46.48541 2.256301
v 3.44632 46.48541 2.256301
v 3.44632 48.8353 2.256301
v 3.44632 46.48541 -2.162594
v 3.44632 46.48541 -2.162594
v 3.44632 48.8353 -2.162594
v -3.445587 46.48541 -2.162594
v -3.445587 46.48541 -2.162594
v -3.445587 48.8353 -2.162594
v -3.445587 46.48541 2.256301
v -3.445587 48.8353 2.256301
v -3.445587 48.8353 2.256301
v -1.484772 50.69234 1.545855
v 3.44632 48.8353 2.256301
v 1.485199 50.69234 1.545855
v 3.44632 48.8353 2.256301
v 1.485199 50.69234 1.545855
v 3.44632 48.8353 -2.162594
v 1.485199 50.69234 -1.452111
v 3.44632 48.8353 -2.162594
v 1.485199 50.69234 -1.452111
v -3.445587 48.8353 -2.162594
v -1.484772 50.69234 -1.452111
v -3.445587 48.8353 -2.162594
v -1.484772 50.69234 -1.452111
v -3.445587 48.8353 2.256301
v -1.484772 50.69234 1.545855
v -4.631256 23.61511 -2.191403
v 4.631256 23.61511 -2.191403
v 4.631256 23.61511 2.284888
v -4.631256 23.61511 2.284888
v -5.570473 23.61511 -2.645314
v 5.570404 23.61511 -2.645314
v 5.570404 23.61511 2.739028
v -5.570473 23.61511 2.739028
v 5.570404 23.61511 -2.645314
v 10.75064 21.91673 -1.00778
v 5.570404 23.61511 2.739028
v 10.75064 21.91673 1.101486
v 4.559784 21.57778 2.739028
v 5.570404 23.61511 2.739028
v 9.842804 20.16712 1.101486
v 10.75064 21.91673 1.101486
v 4.559784 21.57778 2.739028
v 9.842804 20.16712 1.101486
v 4.559784 21.57778 -2.645314
v 9.842804 20.16712 -1.00778
v 4.559784 21.57778 -2.645314
v 9.842804 20.16712 -1.00778
v 5.570404 23.61511 -2.645314
v 10.75064 21.91673 -1.00778
v -5.570473 23.61511 2.739028
v -10.75064 21.91673 1.101486
v -5.570473 23.61511 -2.645314
v -10.75064 21.91673 -1.00778
v -4.559967 21.57778 -2.645314
v -5.570473 23.61511 -2.645314
v -9.842857 20.16712 -1.00778
v -10.75064 21.91673 -1.00778
v -4.559967 21.57778 -2.645314
v -9.842857 20.16712 -1.00778
v -4.559967 21.57778 2.739028
v -9.842857 20.16712 1.101486
v -4.559967 21.57778 2.739028
v -9.842857 20.16712 1.101486
v -5.570473 23.61511 2.739028
v -10.75064 21.91673 1.101486
v -4.559967 21.57778 -2.645314
v -4.559967 21.57778 2.739028
v 4.559784 21.57778 -2.645314
v 4.559784 21.57778 2.739028
v -3.437042 44.0283 -2.221136
v -3.437042 42.77724 -2.221136
v 3.437103 44.0283 -2.221136
v 3.437103 42.05492 -2.221136
v 3.437042 42.05492 2.314885
v -3.437042 42.77724 2.314885
v 3.437042 44.0283 2.314885
v -3.437042 44.0283 2.314885
v -2.844513 46.48541 1.638244
v -2.844513 46.48541 -1.544497
v -2.844513 46.48541 -1.544497
v -2.844513 44.41946 -1.544497
v 2.84433 46.48541 -1.544497
v 2.84433 46.48541 -1.544497
v 2.844391 44.41946 -1.544497
v 2.84433 46.48541 1.638244
v -2.844513 44.41946 1.638244
v -2.844513 46.48541 1.638244
v 2.84433 44.41946 1.638244
v 2.84433 46.48541 1.638244
v -2.844513 42.35249 -1.544497
v -2.844513 40.15376 -1.544497
v -2.844513 40.15376 1.638244
v -2.844513 42.35249 1.638244
v 2.844391 41.63017 -1.544497
v 2.844391 41.10943 -1.544497
v 2.84433 41.63017 1.638244
v 2.84433 41.10943 1.638244
v -3.437042 39.69561 -2.221136
v -3.437042 37.68385 -2.221136
v -3.437042 37.68385 2.314885
v -3.437042 39.69561 2.314885
v 3.437103 40.65128 -2.221136
v 3.437042 38.63952 -2.221136
v 3.437042 40.65128 2.314885
v 3.437042 38.63952 2.314885
v -2.844513 37.2326 -1.544497
v -2.844513 36.66067 -1.544497
v -2.844513 36.66067 1.638244
v -2.844513 37.2326 1.638244
v 2.84433 38.18826 -1.544497
v 2.84433 35.85383 -1.544497
v 2.84433 38.18826 1.638244
v 2.84433 35.85383 1.638244
v -3.437042 36.17744 -2.221136
v -3.437042 33.91565 -2.221136
v -3.437042 33.91565 2.314885
v -3.437042 36.17744 2.314885
v 3.437042 35.37059 -2.221136
v 3.437042 33.28171 -2.221136
v 3.437042 35.37059 2.314885
v 3.437042 33.28171 2.314885
v -2.844513 33.55026 -1.544497
v -2.844513 31.44934 -1.544497
v -2.844513 31.44934 1.638244
v -2.844513 33.55026 1.638244
v 2.84433 32.91631 -1.544497
v 2.84433 32.10918 -1.544497
v 2.84433 32.91631 1.638244
v 2.84433 32.10918 1.638244
v -3.437042 31.05107 -2.221136
v -3.437042 29.3692 -2.221136
v -3.437042 29.3692 2.314885
v -3.437042 31.05107 2.314885
v 3.437042 31.71092 -2.221136
v 3.437042 29.3692 -2.221136
v 3.437042 31.71092 2.314885
v 3.437042 29.3692 2.314885
v -2.844513 44.41946 1.638244
v -3.437042 44.0283 2.314885
v -2.844513 44.41946 -1.544497
v -3.437042 44.0283 -2.221136
v -2.844513 42.35249 -1.544497
v -3.437042 42.77724 -2.221136
v -2.844513 42.35249 1.638244
v -3.437042 42.77724 2.314885
v -2.844513 44.41946 -1.544497
v -3.437042 44.0283 -2.221136
v 2.844391 44.41946 -1.544497
v 3.437103 44.0283 -2.221136
v 2.844391 41.63017 -1.544497
v 3.437103 42.05492 -2.221136
v -2.844513 42.35249 -1.544497
v 3.437103 42.05492 -2.221136
v -3.437042 42.77724 -2.221136
v -2.844513 42.35249 -1.544497
v 2.844391 44.41946 -1.544497
v 3.437103 44.0283 -2.221136
v 2.84433 44.41946 1.638244
v 3.437042 44.0283 2.314885
v 2.84433 41.63017 1.638244
v 3.437042 42.05492 2.314885
v 2.844391 41.63017 -1.544497
v 3.437103 42.05492 -2.221136
v 2.84433 41.63017 1.638244
v -2.844513 42.35249 1.638244
v 3.437042 42.05492 2.314885
v -2.844513 42.35249 1.638244
v -3.437042 42.77724 2.314885
v 3.437042 42.05492 2.314885
v 2.84433 44.41946 1.638244
v 3.437042 44.0283 2.314885
v -2.844513 44.41946 1.638244
v -3.437042 44.0283 2.314885
v 2.844391 41.10943 -1.544497
v -2.844513 40.15376 -1.544497
v 3.437103 40.65128 -2.221136
v -2.844513 40.15376 -1.544497
v -3.437042 39.69561 -2.221136
v 3.437103 40.65128 -2.221136
v -2.844513 37.2326 -1.544497
v 2.84433 38.18826 -1.544497
v -3.437042 37.68385 -2.221136
v 2.84433 38.18826 -1.544497
v 3.437042 38.63952 -2.221136
v -3.437042 37.68385 -2.221136
v -2.844513 40.15376 1.638244
v -3.437042 39.69561 2.314885
v -2.844513 40.15376 -1.544497
v -3.437042 39.69561 -2.221136
v -2.844513 37.2326 -1.544497
v -3.437042 37.68385 -2.221136
v -2.844513 37.2326 1.638244
v -3.437042 37.68385 2.314885
v -2.844513 37.2326 1.638244
v -3.437042 37.68385 2.314885
v 2.84433 38.18826 1.638244
v -3.437042 37.68385 2.314885
v 3.437042 38.63952 2.314885
v 2.84433 38.18826 1.638244
v 2.84433 41.10943 1.638244
v 3.437042 40.65128 2.314885
v -2.844513 40.15376 1.638244
v 3.437042 40.65128 2.314885
v -3.437042 39.69561 2.314885
v -2.844513 40.15376 1.638244
v 2.844391 41.10943 -1.544497
v 3.437103 40.65128 -2.221136
v 2.84433 41.10943 1.638244
v 3.437042 40.65128 2.314885
v 2.84433 38.18826 1.638244
v 3.437042 38.63952 2.314885
v 2.84433 38.18826 -1.544497
v 3.437042 38.63952 -2.221136
v -2.844513 36.66067 -1.544497
v -3.437042 36.17744 -2.221136
v 2.84433 35.85383 -1.544497
v -3.437042 36.17744 -2.221136
v 3.437042 35.37059 -2.221136
v 2.84433 35.85383 -1.544497
v 2.84433 32.91631 -1.544497
v 3.437042 33.28171 -2.221136
v -2.844513 33.55026 -1.544497
v 3.437042 33.28171 -2.221136
v -3.437042 33.91565 -2.221136
v -2.844513 33.55026 -1.544497
v -2.844513 36.66067 1.638244
v -3.437042 36.17744 2.314885
v -2.844513 36.66067 -1.544497
v -3.437042 36.17744 -2.221136
v -2.844513 33.55026 -1.544497
v -3.437042 33.91565 -2.221136
v -2.844513 33.55026 1.638244
v -3.437042 33.91565 2.314885
v 2.84433 32.91631 1.638244
v -2.844513 33.55026 1.638244
v 3.437042 33.28171 2.314885
v -2.844513 33.55026 1.638244
v -3.437042 33.91565 2.314885
v 3.437042 33.28171 2.314885
v -2.844513 36.66067 1.638244
v 2.84433 35.85383 1.638244
v -3.437042 36.17744 2.314885
v 2.84433 35.85383 1.638244
v 3.437042 35.37059 2.314885
v -3.437042 36.17744 2.314885
v 2.84433 35.85383 -1.544497
v 3.437042 35.37059 -2.221136
v 2.84433 35.85383 1.638244
v 3.437042 35.37059 2.314885
v 2.84433 32.91631 1.638244
v 3.437042 33.28171 2.314885
v 2.84433 32.91631 -1.544497
v 3.437042 33.28171 -2.221136
v 2.84433 32.10918 -1.544497
v -2.844513 31.44934 -1.544497
v 3.437042 31.71092 -2.221136
v -2.844513 31.44934 -1.544497
v -3.437042 31.05107 -2.221136
v 3.437042 31.71092 -2.221136
v 2.84433 28.94059 -1.544497
v 3.437042 29.3692 -2.221136
v -2.844513 28.94059 -1.544497
v -3.437042 29.3692 -2.221136
v -2.844513 31.44934 1.638244
v -3.437042 31.05107 2.314885
v -2.844513 31.44934 -1.544497
v -3.437042 31.05107 -2.221136
v -2.844513 28.94059 -1.544497
v -3.437042 29.3692 -2.221136
v -2.844513 28.94059 1.638244
v -3.437042 29.3692 2.314885
v -2.844513 28.94059 1.638244
v -3.437042 29.3692 2.314885
v 2.84433 28.94059 1.638244
v 3.437042 29.3692 2.314885
v 2.84433 32.10918 1.638244
v 3.437042 31.71092 2.314885
v -2.844513 31.44934 1.638244
v 3.437042 31.71092 2.314885
v -3.437042 31.05107 2.314885
v -2.844513 31.44934 1.638244
v 2.84433 32.10918 -1.544497
v 3.437042 31.71092 -2.221136
v 2.84433 32.10918 1.638244
v 3.437042 31.71092 2.314885
v 2.84433 28.94059 1.638244
v 3.437042 29.3692 2.314885
v 2.84433 28.94059 -1.544497
v 3.437042 29.3692 -2.221136
v -5.149933 21.57778 0.04687309
v -4.095009 18.04553 0.5761499
v 5.150055 21.57778 0.04687309
v 4.092377 17.9735 -0.4821024
v 4.029694 21.57778 -0.4740047
v 4.092377 17.9735 -0.4821024
v -5.239532 18.02535 0.04687309
v -5.149933 21.57778 0.04687309
v 5.231781 17.99368 0.04687405
v 4.091522 18.02075 0.575736
v 5.150055 21.57778 0.04687309
v 4.029694 21.57778 0.5677452
v -4.095009 18.04553 0.5761499
v -4.029884 21.57778 0.5677452
v 3.051758E-05 18.09999 2.072722
v 3.051758E-05 21.57778 2.042786
v 3.051758E-05 17.91895 -1.980572
v 3.051758E-05 21.57778 -1.949078
v -4.095673 17.99825 -0.4825087
v -4.029884 21.57778 -0.4740047
vt 0.7329102 0.1971436
vt 0.7275391 0.1972656
vt 0.7329102 0.1964111
vt 0.7275391 0.1965332
vt 0.03036499 0.06964111
vt 0.7299805 0.2030029
vt 0.7299805 0.2030029
vt 0.03036499 0.06964111
vt 0.03036499 0.06964111
vt 0.03036499 0.06964111
vt 0.7304688 0.1964111
vt 0.7304688 0.1972656
vt 0.7246094 0.2788086
vt 0.7246094 0.2770996
vt 0.7241211 0.2783203
vt 0.7246094 0.2780762
vt 0.7236328 0.2788086
vt 0.7241211 0.2790527
vt 0.7236328 0.2788086
vt 0.7231445 0.2788086
vt 0.7231445 0.2785645
vt 0.7299805 0.2030029
vt 0.7299805 0.2030029
vt 0.7299805 0.2030029
vt 0.7299805 0.2030029
vt 0.7299805 0.2030029
vt 0.7299805 0.2030029
vt 0.7299805 0.2030029
vt 0.7299805 0.2030029
vt 0.7299805 0.2030029
vt 0.7299805 0.2030029
vt 0.7299805 0.2030029
vt 0.7299805 0.2030029
vt 0.7236328 0.2802734
vt 0.7231445 0.2802734
vt 0.7231445 0.2802734
vt 0.7236328 0.2805176
vt 0.7241211 0.2805176
vt 0.7246094 0.2802734
vt 0.7299805 0.2030029
vt 0.7299805 0.2030029
vt 0.7299805 0.2030029
vt 0.7299805 0.2030029
vt 0.7299805 0.2030029
vt 0.7299805 0.2030029
vt 0.7299805 0.2030029
vt 0.7299805 0.2030029
vt 0.7299805 0.2030029
vt 0.7299805 0.2030029
vt 0.7299805 0.2030029
vt 0.7299805 0.2030029
vt 0.7231445 0.2792969
vt 0.7231445 0.2797852
vt 0.7236328 0.2797852
vt 0.7231445 0.279541
vt 0.9106445 0.1503906
vt 0.9106445 0.1503906
vt 0.9106445 0.1503906
vt 0.9106445 0.1503906
vt 0.6137695 0.2015381
vt 0.6137695 0.2015381
vt 0.6137695 0.2015381
vt 0.6137695 0.2015381
vt 0.9106445 0.1503906
vt 0.9106445 0.1503906
vt 0.9106445 0.1503906
vt 0.9106445 0.1503906
vt 0.9106445 0.1503906
vt 0.9106445 0.1503906
vt 0.9106445 0.1503906
vt 0.9106445 0.1503906
vt 0.9106445 0.1503906
vt 0.9106445 0.1503906
vt 0.9106445 0.1503906
vt 0.9106445 0.1503906
vt 0.9106445 0.1503906
vt 0.9106445 0.1503906
vt 0.9106445 0.1503906
vt 0.9106445 0.1503906
vt 0.9106445 0.1503906
vt 0.9106445 0.1503906
vt 0.9106445 0.1503906
vt 0.9106445 0.1503906
vt 0.9106445 0.1503906
vt 0.9106445 0.1503906
vt 0.9106445 0.1503906
vt 0.9106445 0.1503906
vt 0.9106445 0.1503906
vt 0.9106445 0.1503906
vt 0.9106445 0.1503906
vt 0.9106445 0.1503906
vt 0.9106445 0.1503906
vt 0.9106445 0.1503906
vt 0.9106445 0.1503906
vt 0.9106445 0.1503906
vt 0.9106445 0.1503906
vt 0.9106445 0.1503906
vt 0.9106445 0.1503906
vt 0.9106445 0.1503906
vt 0.9018555 0.1940918
vt 0.9135742 0.2022705
vt 0.9106445 0.2059326
vt 0.9135742 0.2022705
vt 0.9067383 0.2006836
vt 0.9067383 0.2006836
vt 0.6137695 0.2015381
vt 0.6137695 0.2015381
vt 0.6137695 0.2015381
vt 0.6137695 0.2015381
vt 0.6137695 0.2015381
vt 0.6137695 0.2015381
vt 0.6137695 0.2015381
vt 0.6137695 0.2015381
vt 0.612793 0.2458496
vt 0.612793 0.2458496
vt 0.612793 0.2458496
vt 0.612793 0.2458496
vt 0.612793 0.2458496
vt 0.612793 0.2458496
vt 0.612793 0.2458496
vt 0.612793 0.2458496
vt 0.612793 0.2458496
vt 0.612793 0.2458496
vt 0.612793 0.2458496
vt 0.612793 0.2458496
vt 0.612793 0.2458496
vt 0.612793 0.2458496
vt 0.612793 0.2458496
vt 0.612793 0.2458496
vt 0.612793 0.2458496
vt 0.612793 0.2458496
vt 0.612793 0.2458496
vt 0.612793 0.2458496
vt 0.612793 0.2458496
vt 0.612793 0.2458496
vt 0.612793 0.2458496
vt 0.612793 0.2458496
vt 0.9106445 0.2059326
vt 0.9106445 0.2059326
vt 0.6166992 0.3076172
vt 0.6166992 0.3076172
vt 0.6166992 0.3076172
vt 0.6166992 0.3076172
vt 0.6166992 0.3076172
vt 0.6166992 0.3076172
vt 0.6166992 0.3076172
vt 0.6166992 0.3076172
vt 0.6166992 0.3076172
vt 0.6166992 0.3076172
vt 0.6166992 0.3076172
vt 0.6166992 0.3076172
vt 0.6166992 0.3076172
vt 0.6166992 0.3076172
vt 0.6166992 0.3076172
vt 0.6166992 0.3076172
vt 0.6166992 0.3076172
vt 0.6166992 0.3076172
vt 0.6166992 0.3076172
vt 0.6166992 0.3076172
vt 0.6166992 0.3076172
vt 0.6166992 0.3076172
vt 0.6166992 0.3076172
vt 0.6166992 0.3076172
vt 0.6166992 0.3076172
vt 0.6166992 0.3076172
vt 0.6166992 0.3076172
vt 0.6166992 0.3076172
vt 0.6166992 0.3076172
vt 0.6166992 0.3076172
vt 0.6166992 0.3076172
vt 0.6166992 0.3076172
vt 0.9018555 0.1940918
vt 0.9106445 0.2059326
vt 0.9067383 0.2006836
vt 0.9067383 0.2006836
vt 0.9106445 0.2059326
vt 0.9106445 0.2059326
vt 0.9121094 0.2086182
vt 0.9121094 0.2009277
vt 0.7241211 0.2805176
vt 0.7236328 0.2802734
vt 0.7246094 0.2788086
vt 0.7241211 0.2790527
vt 0.7241211 0.2805176
vt 0.7246094 0.2780762
vt 0.7241211 0.2805176
vt 0.7246094 0.2788086
vt 0.7246094 0.2788086
vt 0.7246094 0.2802734
vt 0.7299805 0.2030029
vt 0.7299805 0.2030029
vt 0.7236328 0.2802734
vt 0.7236328 0.2788086
vt 0.7231445 0.2792969
vt 0.7231445 0.2802734
vt 0.7236328 0.2788086
vt 0.7231445 0.2802734
vt 0.7236328 0.2805176
vt 0.03036499 0.06964111
vt 0.03036499 0.06964111
vt 0.7426758 0.2888184
vt 0.7426758 0.2888184
vt 0.7426758 0.2888184
vt 0.7426758 0.2888184
vt 0.7426758 0.2888184
vt 0.7426758 0.2888184
vt 0.7299805 0.2030029
vt 0.7299805 0.2030029
vt 0.7299805 0.2030029
vt 0.7299805 0.2030029
vt 0.7299805 0.2030029
vt 0.7299805 0.2030029
vt 0.7299805 0.2030029
vt 0.7299805 0.2030029
vt 0.7299805 0.2030029
vt 0.7299805 0.2030029
vt 0.7299805 0.2030029
vt 0.7299805 0.2030029
vt 0.7329102 0.1971436
vt 0.7387695 0.2054443
vt 0.7329102 0.1964111
vt 0.7387695 0.2025146
vt 0.7299805 0.2030029
vt 0.7299805 0.2030029
vt 0.7299805 0.2030029
vt 0.7299805 0.2030029
vt 0.7304688 0.1972656
vt 0.7304688 0.2061768
vt 0.7329102 0.1971436
vt 0.7304688 0.2061768
vt 0.7387695 0.2054443
vt 0.7329102 0.1971436
vt 0.7299805 0.2030029
vt 0.7299805 0.2030029
vt 0.7299805 0.2030029
vt 0.7299805 0.2030029
vt 0.7299805 0.2030029
vt 0.7299805 0.2030029
vt 0.7299805 0.2030029
vt 0.7299805 0.2030029
vt 0.7299805 0.2030029
vt 0.7299805 0.2030029
vt 0.7299805 0.2030029
vt 0.7299805 0.2030029
vt 0.7304688 0.1972656
vt 0.7275391 0.1972656
vt 0.7304688 0.2061768
vt 0.7275391 0.1972656
vt 0.722168 0.2056885
vt 0.7304688 0.2061768
vt 0.7275391 0.1972656
vt 0.7275391 0.1965332
vt 0.722168 0.2056885
vt 0.7275391 0.1965332
vt 0.7216797 0.2028809
vt 0.7299805 0.2030029
vt 0.7299805 0.2030029
vt 0.7299805 0.2030029
vt 0.7299805 0.2030029
vt 0.7299805 0.2030029
vt 0.7299805 0.2030029
vt 0.7299805 0.2030029
vt 0.7299805 0.2030029
vt 0.7299805 0.2030029
vt 0.7299805 0.2030029
vt 0.7304688 0.1964111
vt 0.7329102 0.1964111
vt 0.7299805 0.2020264
vt 0.7329102 0.1964111
vt 0.7387695 0.2025146
vt 0.7299805 0.2020264
vt 0.7299805 0.2030029
vt 0.7299805 0.2030029
vt 0.7299805 0.2030029
vt 0.7299805 0.2030029
vt 0.7299805 0.2030029
vt 0.7299805 0.2030029
vt 0.7304688 0.1964111
vt 0.7299805 0.2020264
vt 0.7275391 0.1965332
vt 0.7299805 0.2020264
vt 0.7216797 0.2028809
vt 0.7275391 0.1965332
vt 0.7299805 0.2030029
vt 0.7299805 0.2030029
vt 0.7299805 0.2030029
vt 0.7299805 0.2030029
vt 0.7299805 0.2030029
vt 0.7299805 0.2030029
vt 0.7299805 0.2030029
vt 0.7299805 0.2030029
vt 0.7299805 0.2030029
vt 0.7299805 0.2030029
vt 0.7299805 0.2030029
vt 0.7299805 0.2030029
vt 0.7299805 0.2030029
vt 0.7299805 0.2030029
vt 0.7299805 0.2030029
vt 0.7299805 0.2030029
vt 0.7246094 0.2770996
vt 0.7241211 0.2783203
vt 0.7236328 0.2788086
vt 0.7236328 0.2802734
vt 0.7299805 0.2030029
vt 0.7299805 0.2030029
vt 0.7299805 0.2030029
vt 0.7299805 0.2030029
vt 0.7299805 0.2030029
vt 0.7299805 0.2030029
vt 0.7299805 0.2030029
vt 0.7299805 0.2030029
vt 0.7299805 0.2030029
vt 0.7299805 0.2030029
vt 0.7299805 0.2030029
vt 0.7299805 0.2030029
vt 0.7299805 0.2030029
vt 0.7299805 0.2030029
vt 0.7299805 0.2030029
vt 0.7299805 0.2030029
vt 0.7299805 0.2030029
vt 0.7299805 0.2030029
vt 0.7299805 0.2030029
vt 0.7299805 0.2030029
vt 0.7299805 0.2030029
vt 0.7299805 0.2030029
vt 0.7299805 0.2030029
vt 0.7299805 0.2030029
vt 0.7299805 0.2030029
vt 0.7299805 0.2030029
vt 0.7299805 0.2030029
vt 0.7299805 0.2030029
vt 0.7299805 0.2030029
vt 0.7299805 0.2030029
vt 0.7299805 0.2030029
vt 0.7299805 0.2030029
vt 0.7299805 0.2030029
vt 0.7299805 0.2030029
vt 0.7299805 0.2030029
vt 0.7299805 0.2030029
vt 0.7231445 0.2792969
vt 0.7236328 0.2797852
vt 0.7231445 0.2797852
vt 0.7231445 0.2802734
vt 0.7231445 0.279541
vt 0.7231445 0.2788086
vt 0.7231445 0.2792969
vt 0.7231445 0.2785645
vt 0.7231445 0.279541
vt 0.7231445 0.2797852
vt 0.7231445 0.2802734
vt 0.7231445 0.2792969
vt 0.7231445 0.279541
vt 0.7231445 0.2802734
vt 0.9106445 0.1503906
vt 0.9106445 0.1503906
vt 0.9106445 0.1503906
vt 0.9106445 0.1503906
vt 0.9106445 0.1503906
vt 0.9106445 0.1503906
vt 0.9106445 0.1503906
vt 0.9106445 0.1503906
vt 0.6137695 0.2015381
vt 0.6137695 0.2015381
vt 0.6137695 0.2015381
vt 0.6137695 0.2015381
vt 0.6137695 0.2015381
vt 0.6137695 0.2015381
vt 0.6137695 0.2015381
vt 0.6137695 0.2015381
vt 0.9106445 0.1503906
vt 0.9106445 0.1503906
vt 0.9106445 0.1503906
vt 0.9106445 0.1503906
vt 0.9106445 0.1503906
vt 0.9106445 0.1503906
vt 0.9106445 0.1503906
vt 0.9106445 0.1503906
vt 0.9106445 0.1503906
vt 0.9106445 0.1503906
vt 0.9106445 0.1503906
vt 0.9106445 0.1503906
vt 0.9106445 0.1503906
vt 0.9106445 0.1503906
vt 0.9106445 0.1503906
vt 0.9106445 0.1503906
vt 0.9106445 0.1503906
vt 0.9106445 0.1503906
vt 0.9106445 0.1503906
vt 0.9106445 0.1503906
vt 0.9106445 0.1503906
vt 0.9106445 0.1503906
vt 0.9106445 0.1503906
vt 0.9106445 0.1503906
vt 0.9106445 0.1503906
vt 0.9106445 0.1503906
vt 0.9106445 0.1503906
vt 0.9106445 0.1503906
vt 0.9106445 0.1503906
vt 0.9106445 0.1503906
vt 0.9106445 0.1503906
vt 0.9106445 0.1503906
vt 0.9106445 0.1503906
vt 0.9106445 0.1503906
vt 0.9106445 0.1503906
vt 0.9106445 0.1503906
vt 0.9106445 0.1503906
vt 0.9106445 0.1503906
vt 0.9106445 0.1503906
vt 0.9106445 0.1503906
vt 0.9106445 0.1503906
vt 0.9106445 0.1503906
vt 0.9106445 0.1503906
vt 0.9106445 0.1503906
vt 0.9106445 0.1503906
vt 0.9106445 0.1503906
vt 0.9106445 0.1503906
vt 0.9106445 0.1503906
vt 0.9106445 0.1503906
vt 0.9106445 0.1503906
vt 0.9106445 0.1503906
vt 0.9106445 0.1503906
vt 0.9106445 0.1503906
vt 0.9106445 0.1503906
vt 0.9106445 0.1503906
vt 0.9106445 0.1503906
vt 0.9106445 0.1503906
vt 0.9106445 0.1503906
vt 0.9106445 0.1503906
vt 0.9106445 0.1503906
vt 0.9106445 0.1503906
vt 0.9106445 0.1503906
vt 0.9106445 0.1503906
vt 0.9106445 0.1503906
vt 0.9106445 0.1503906
vt 0.9106445 0.1503906
vt 0.9106445 0.1503906
vt 0.9106445 0.1503906
vt 0.9106445 0.1503906
vt 0.9106445 0.1503906
vt 0.9106445 0.1503906
vt 0.9106445 0.1503906
vt 0.9106445 0.1503906
vt 0.9106445 0.1503906
vt 0.9106445 0.1503906
vt 0.9106445 0.1503906
vt 0.9106445 0.1503906
vt 0.9106445 0.1503906
vt 0.9106445 0.1503906
vt 0.9106445 0.1503906
vt 0.6166992 0.3076172
vt 0.6166992 0.3076172
vt 0.6166992 0.3076172
vt 0.6166992 0.3076172
vt 0.6166992 0.3076172
vt 0.6166992 0.3076172
vt 0.6166992 0.3076172
vt 0.6166992 0.3076172
vt 0.6137695 0.2015381
vt 0.6137695 0.2015381
vt 0.6137695 0.2015381
vt 0.6137695 0.2015381
vt 0.6137695 0.2015381
vt 0.6137695 0.2015381
vt 0.6137695 0.2015381
vt 0.6137695 0.2015381
vt 0.6137695 0.2015381
vt 0.6137695 0.2015381
vt 0.6137695 0.2015381
vt 0.6137695 0.2015381
vt 0.612793 0.2458496
vt 0.612793 0.2458496
vt 0.612793 0.2458496
vt 0.612793 0.2458496
vt 0.612793 0.2458496
vt 0.612793 0.2458496
vt 0.612793 0.2458496
vt 0.612793 0.2458496
vt 0.6166992 0.3076172
vt 0.6166992 0.3076172
vt 0.6166992 0.3076172
vt 0.6166992 0.3076172
vt 0.6166992 0.3076172
vt 0.6166992 0.3076172
vt 0.6166992 0.3076172
vt 0.6166992 0.3076172
vt 0.612793 0.2458496
vt 0.612793 0.2458496
vt 0.612793 0.2458496
vt 0.612793 0.2458496
vt 0.612793 0.2458496
vt 0.612793 0.2458496
vt 0.612793 0.2458496
vt 0.612793 0.2458496
vt 0.6166992 0.3076172
vt 0.6166992 0.3076172
vt 0.6166992 0.3076172
vt 0.6166992 0.3076172
vt 0.6166992 0.3076172
vt 0.6166992 0.3076172
vt 0.6166992 0.3076172
vt 0.6166992 0.3076172
vt 0.612793 0.2458496
vt 0.612793 0.2458496
vt 0.612793 0.2458496
vt 0.612793 0.2458496
vt 0.612793 0.2458496
vt 0.612793 0.2458496
vt 0.612793 0.2458496
vt 0.612793 0.2458496
vt 0.6166992 0.3076172
vt 0.6166992 0.3076172
vt 0.6166992 0.3076172
vt 0.6166992 0.3076172
vt 0.6166992 0.3076172
vt 0.6166992 0.3076172
vt 0.6166992 0.3076172
vt 0.6166992 0.3076172
vt 0.6166992 0.3076172
vt 0.6166992 0.3076172
vt 0.6166992 0.3076172
vt 0.6166992 0.3076172
vt 0.6166992 0.3076172
vt 0.6166992 0.3076172
vt 0.6166992 0.3076172
vt 0.6166992 0.3076172
vt 0.6166992 0.3076172
vt 0.6166992 0.3076172
vt 0.6166992 0.3076172
vt 0.6166992 0.3076172
vt 0.6166992 0.3076172
vt 0.6166992 0.3076172
vt 0.6166992 0.3076172
vt 0.6166992 0.3076172
vt 0.6166992 0.3076172
vt 0.6166992 0.3076172
vt 0.6166992 0.3076172
vt 0.6166992 0.3076172
vt 0.6166992 0.3076172
vt 0.6166992 0.3076172
vt 0.6166992 0.3076172
vt 0.6166992 0.3076172
vt 0.6166992 0.3076172
vt 0.6166992 0.3076172
vt 0.6166992 0.3076172
vt 0.6166992 0.3076172
vt 0.6166992 0.3076172
vt 0.6166992 0.3076172
vt 0.6166992 0.3076172
vt 0.6166992 0.3076172
vt 0.6166992 0.3076172
vt 0.6166992 0.3076172
vt 0.6166992 0.3076172
vt 0.6166992 0.3076172
vt 0.6166992 0.3076172
vt 0.6166992 0.3076172
vt 0.6166992 0.3076172
vt 0.6166992 0.3076172
vt 0.6166992 0.3076172
vt 0.6166992 0.3076172
vt 0.6166992 0.3076172
vt 0.6166992 0.3076172
vt 0.6166992 0.3076172
vt 0.6166992 0.3076172
vt 0.6166992 0.3076172
vt 0.6166992 0.3076172
vt 0.6166992 0.3076172
vt 0.6166992 0.3076172
vt 0.6166992 0.3076172
vt 0.6166992 0.3076172
vt 0.6166992 0.3076172
vt 0.6166992 0.3076172
vt 0.6166992 0.3076172
vt 0.6166992 0.3076172
vt 0.6166992 0.3076172
vt 0.6166992 0.3076172
vt 0.6166992 0.3076172
vt 0.6166992 0.3076172
vt 0.6166992 0.3076172
vt 0.6166992 0.3076172
vt 0.6166992 0.3076172
vt 0.6166992 0.3076172
vt 0.6166992 0.3076172
vt 0.6166992 0.3076172
vt 0.6166992 0.3076172
vt 0.6166992 0.3076172
vt 0.6166992 0.3076172
vt 0.6166992 0.3076172
vt 0.6166992 0.3076172
vt 0.6166992 0.3076172
vt 0.6166992 0.3076172
vt 0.6166992 0.3076172
vt 0.6166992 0.3076172
vt 0.6166992 0.3076172
vt 0.6166992 0.3076172
vt 0.6166992 0.3076172
vt 0.6166992 0.3076172
vt 0.6166992 0.3076172
vt 0.6166992 0.3076172
vt 0.6166992 0.3076172
vt 0.6166992 0.3076172
vt 0.6166992 0.3076172
vt 0.6166992 0.3076172
vt 0.6166992 0.3076172
vt 0.6166992 0.3076172
vt 0.6166992 0.3076172
vt 0.6166992 0.3076172
vt 0.6166992 0.3076172
vt 0.6166992 0.3076172
vt 0.6166992 0.3076172
vt 0.6166992 0.3076172
vt 0.6166992 0.3076172
vt 0.6166992 0.3076172
vt 0.6166992 0.3076172
vt 0.6166992 0.3076172
vt 0.6166992 0.3076172
vt 0.6166992 0.3076172
vt 0.6166992 0.3076172
vt 0.6166992 0.3076172
vt 0.6166992 0.3076172
vt 0.6166992 0.3076172
vt 0.6166992 0.3076172
vt 0.6166992 0.3076172
vt 0.6166992 0.3076172
vt 0.6166992 0.3076172
vt 0.6166992 0.3076172
vt 0.6166992 0.3076172
vt 0.6166992 0.3076172
vt 0.6166992 0.3076172
vt 0.6166992 0.3076172
vt 0.6166992 0.3076172
vt 0.6166992 0.3076172
vt 0.6166992 0.3076172
vt 0.6166992 0.3076172
vt 0.6166992 0.3076172
vt 0.6166992 0.3076172
vt 0.6166992 0.3076172
vt 0.6166992 0.3076172
vt 0.6166992 0.3076172
vt 0.6166992 0.3076172
vt 0.6166992 0.3076172
vt 0.6166992 0.3076172
vt 0.6166992 0.3076172
vt 0.6166992 0.3076172
vt 0.6166992 0.3076172
vt 0.6166992 0.3076172
vt 0.6166992 0.3076172
vt 0.6166992 0.3076172
vt 0.6166992 0.3076172
vt 0.6166992 0.3076172
vt 0.6166992 0.3076172
vt 0.6166992 0.3076172
vt 0.6166992 0.3076172
vt 0.6166992 0.3076172
vt 0.6166992 0.3076172
vt 0.6166992 0.3076172
vt 0.6166992 0.3076172
vt 0.6166992 0.3076172
vt 0.6166992 0.3076172
vt 0.6166992 0.3076172
vt 0.6166992 0.3076172
vt 0.6166992 0.3076172
vt 0.6166992 0.3076172
vt 0.6166992 0.3076172
vt 0.6166992 0.3076172
vt 0.6166992 0.3076172
vt 0.6166992 0.3076172
vt 0.6166992 0.3076172
vt 0.6166992 0.3076172
vt 0.6166992 0.3076172
vt 0.9106445 0.2059326
vt 0.9121094 0.2009277
vt 0.9106445 0.2059326
vt 0.9121094 0.2086182
vt 0.9018555 0.1940918
vt 0.9018555 0.1940918
vt 0.9106445 0.2059326
vt 0.9106445 0.2059326
vt 0.9106445 0.2059326
vt 0.9106445 0.2059326
vt 0.9106445 0.2059326
vt 0.9106445 0.2059326
vt 0.9018555 0.1940918
vt 0.9018555 0.1940918
vt 0.9067383 0.2006836
vt 0.9067383 0.2006836
vt 0.9067383 0.2006836
vt 0.9067383 0.2006836
vt 0.9018555 0.1940918
vt 0.9018555 0.1940918
vn -0.003755569 -1 0.0009160042
vn 0.009147644 -0.9995117 0.02058411
vn 0.008216858 -0.9995117 0.02058411
vn -0.002828598 -1 0.0009241104
vn -0.01094055 1 -0.001038551
vn -0.009872437 1 -0.00141716
vn -0.0103302 1 -0.0006432533
vn -0.01094055 1 -0.0009813309
vn -0.01093292 1 -0.0009822845
vn -0.01094055 1 -0.001048088
vn 0.01283264 -0.9995117 0.02714539
vn 0.01251984 -0.9995117 0.02714539
vn -0.149292 0.0007939339 0.9887695
vn -1 -0.006820679 -0.004341125
vn -0.2695313 0.01930237 0.9628906
vn -1 -0.004428864 -0.01963806
vn 0.1412354 0.001152039 0.9897461
vn -0.1413574 -0.001296043 -0.9897461
vn -0.1411133 -0.001270294 -0.9902344
vn 0.1533203 -0.0006837845 -0.9882813
vn 0.1407471 0.001268387 0.9902344
vn -1 -0.008926392 -0.004356384
vn -1 -0.008926392 -0.004356384
vn -1 -0.008926392 -0.004356384
vn -1 -0.008926392 -0.004356384
vn -0.1834717 -0.002113342 -0.9829102
vn -0.1832275 -0.001629829 -0.9829102
vn 0.1959229 -0.002462387 -0.9804688
vn 0.1973877 -0.00472641 -0.9804688
vn 0.9995117 -0.005428314 -0.03204346
vn 1 0.008895874 -0.01980591
vn -0.1925049 -0.0007615089 0.9814453
vn -0.1925049 -0.0007610321 0.9814453
vn -0.149292 0.0007939339 0.9887695
vn 1 0.003324509 -0.01007843
vn 1 0.002458572 -0.0141449
vn -0.1408691 -0.001245499 -0.9902344
vn -0.1411133 -0.001270294 -0.9902344
vn -0.149292 0.0007939339 0.9887695
vn 0.1829834 0.002592087 0.9829102
vn 0.1829834 0.002592087 0.9829102
vn 0.1829834 0.002592087 0.9829102
vn -0.00919342 1 -0.000442028
vn 1 -0.008201599 -0.007873535
vn -0.00932312 1 -0.001976013
vn 0.192627 0.0007610321 -0.9814453
vn -0.01067352 1 -0.001577377
vn -0.1827393 -0.002588272 -0.9833984
vn -0.01091766 1 -0.001023293
vn -1 -0.008926392 -0.004356384
vn -1 -0.008926392 -0.004356384
vn 0.1411133 0.001177788 0.9897461
vn 1 0.003324509 -0.01007843
vn 0.1490479 -0.007324219 0.9887695
vn 0.2963867 0.03424072 0.9545898
vn 0 -1 0
vn 0 -1 0
vn 0 -1 0
vn 0 -1 0
vn 0 0 -1
vn 0 0 -1
vn 1 0 0
vn 0 0 1
vn 0 0 -1
vn 0 0 -1
vn 0 0 -1
vn 0 0 -1
vn 0 0 1
vn 0 0 1
vn 0 0 1
vn 0 0 1
vn 0 -1 0
vn 0 -1 0
vn 0 -1 0
vn 0 -1 0
vn 0 0 1
vn 0 0 1
vn 1 0 0
vn 0 0 -1
vn 0 1 0
vn 0 1 0
vn 0 1 0
vn 0 1 0
vn 0 1 0
vn 0 1 0
vn 0 1 0
vn 0 1 0
vn 0 0 -1
vn 0 0 -1
vn 0 0 1
vn 0 0 1
vn 0.8876953 -0.4604492 0
vn 0.8876953 -0.4604492 0
vn 0.8876953 -0.4604492 0
vn 0.8876953 -0.4604492 0
vn -0.8876953 -0.4604492 0
vn -0.8876953 -0.4604492 0
vn -0.8876953 -0.4604492 0
vn -0.8876953 -0.4604492 0
vn 0.34375 0.008087158 0.9389648
vn 0.4216309 0.009368896 -0.9067383
vn -0.4216309 0.009902954 -0.9067383
vn -0.4216309 0.009933472 0.9067383
vn 0.34375 0.008079529 -0.9389648
vn 0.34375 0.008079529 0.9389648
vn 0 0 1
vn 0 0 -1
vn 0 0 -1
vn 1 0 0
vn -1 0 0
vn -1 0 0
vn 0 0 -1
vn 1 0 1.91927E-05
vn 0 0 -1
vn 0 0 -1
vn -1 0 0
vn 0 0 1
vn 0 0 -1
vn 0 0 -1
vn -1 0 0
vn 0 0 1
vn 0 0 -1
vn 0 0 -1
vn -1 0 0
vn 0 0 1
vn 0 0 -1
vn 0 0 -1
vn -1 0 0
vn 0 0 1
vn 0 0 -1
vn 0 0 -1
vn -1 0 0
vn 0 0 1
vn 0 0 -1
vn 0 0 -1
vn -1 0 0
vn 0 0 1
vn -0.4206543 0.01026154 0.9072266
vn 0.4211426 0.009483337 -0.9067383
vn -1 0 0
vn -1 0 0
vn -1 0 0
vn -1 0 0
vn 0 0 -1
vn 0 0 -1
vn 1 0 1.347065E-05
vn 1 0 1.347065E-05
vn 0 0 -1
vn 0 0 -1
vn 0 0 -1
vn 0 0 -1
vn -1 0 0
vn -1 0 0
vn 0 0 1
vn 0 0 1
vn 0 0 -1
vn 0 0 -1
vn 0 0 -1
vn 0 0 -1
vn -1 0 0
vn -1 0 0
vn 0 0 1
vn 0 0 1
vn 0 0 -1
vn 0 0 -1
vn 0 0 -1
vn 0 0 -1
vn -1 0 0
vn -1 0 0
vn 0 0 1
vn 0 0 1
vn 0.34375 0.008087158 0.9389648
vn -0.4206543 0.01024628 -0.9072266
vn 0.34375 0.008087158 0.9389648
vn 0.34375 0.008087158 -0.9389648
vn -0.4199219 0.0105896 0.9077148
vn 0.4208984 0.009597778 -0.9072266
vn 0.4211426 0.009483337 -0.9067383
vn -0.4206543 0.01026154 0.9072266
vn -0.1411133 -0.001270294 -0.9902344
vn -0.2695313 0.01930237 0.9628906
vn -0.2695313 0.01930237 0.9628906
vn -1 -0.004688263 -0.01076508
vn -1 -0.002456665 -0.01963806
vn -1 -0.004428864 -0.01963806
vn -1 -0.002456665 -0.01963806
vn -1 -0.002405167 -0.02085876
vn -1 -0.002405167 -0.02085876
vn -1 -0.0009064674 -0.004367828
vn -0.01094055 1 -0.001048088
vn -0.01094055 1 -0.001038551
vn 0.1419678 0.001310349 0.9897461
vn 0.1412354 0.001152039 0.9897461
vn 0.1411133 0.001177788 0.9897461
vn 0.1529541 -0.0006408691 -0.9882813
vn 0.1529541 -0.0006408691 -0.9882813
vn 0.1529541 -0.0006408691 -0.9882813
vn 0.1524658 -0.0005979538 -0.9882813
vn -0.0103302 1 -0.0006432533
vn -0.009872437 1 -0.00141716
vn -0.4655762 -0.07287598 0.8818359
vn -0.4655762 -0.07287598 0.8818359
vn -0.4655762 -0.07287598 0.8818359
vn -0.6870117 0.03765869 0.7255859
vn -0.6870117 0.03765869 0.7255859
vn -0.6870117 0.03765869 0.7255859
vn -0.1838379 -0.002597809 -0.9829102
vn -0.1834717 -0.002113342 -0.9829102
vn 0.1959229 -0.002462387 -0.9804688
vn 0.194458 -0.0001972914 -0.980957
vn 0.9990234 -0.01974487 -0.04428101
vn 0.9995117 -0.005428314 -0.03204346
vn -0.1925049 -0.0007605553 0.9814453
vn -0.1925049 -0.0007610321 0.9814453
vn 0.1859131 0.002616882 0.9824219
vn 0.1859131 0.002614975 0.9824219
vn 0.1859131 0.002614975 0.9824219
vn 0.1859131 0.002614975 0.9824219
vn -0.8432617 -0.5371094 -0.003173828
vn -0.8432617 -0.5371094 -0.003177643
vn -0.8432617 -0.5371094 -0.003177643
vn -0.8432617 -0.5371094 -0.00317955
vn -0.01552582 1 0.005153656
vn -0.0112915 1 0.004714966
vn -0.0112915 1 0.004714966
vn -0.00705719 1 0.004276276
vn -0.09857178 -0.3847656 -0.9179688
vn -0.09857178 -0.3847656 -0.9179688
vn -0.09857178 -0.3847656 -0.9179688
vn -0.1730957 -0.3608398 -0.9165039
vn -0.1730957 -0.3608398 -0.9165039
vn -0.1730957 -0.3608398 -0.9165039
vn -0.7080078 0.706543 -0.006893158
vn -0.7080078 0.706543 -0.006893158
vn -0.7080078 0.706543 -0.006893158
vn -0.4709473 0.6328125 0.6147461
vn -0.4709473 0.6328125 0.6147461
vn -0.4709473 0.6328125 0.6147461
vn 0.470459 0.6391602 0.6083984
vn 0.470459 0.6391602 0.6083984
vn 0.470459 0.6391602 0.6083984
vn 0.706543 0.7075195 0.003232956
vn 0.706543 0.7075195 0.003232956
vn 0.706543 0.7075195 0.003232956
vn 0.1148682 -0.3842773 -0.9160156
vn 0.1148682 -0.3842773 -0.9160156
vn 0.1148682 -0.3842773 -0.9160156
vn 0.1931152 -0.3588867 -0.9130859
vn 0.1931152 -0.3588867 -0.9130859
vn 0.1931152 -0.3588867 -0.9130859
vn 0.859375 -0.5112305 0.00422287
vn 0.8554688 -0.5175781 -0.0163269
vn 0.8554688 -0.5175781 -0.0163269
vn 0.8554688 -0.5175781 -0.0163269
vn 0.8510742 -0.5239258 -0.03686523
vn 0.004558563 1 -0.00135994
vn 0.005382538 1 -0.001467705
vn 0.005382538 1 -0.001467705
vn 0.006210327 1 -0.00157547
vn -0.4675293 0.6274414 -0.6230469
vn -0.4675293 0.6274414 -0.6230469
vn -0.4675293 0.6274414 -0.6230469
vn -0.7119141 0.7021484 -0.003767014
vn -0.7119141 0.7021484 -0.003767014
vn -0.7119141 0.7021484 -0.003767014
vn -0.09588623 -0.3815918 0.9194336
vn -0.09588623 -0.3815918 0.9194336
vn -0.09588623 -0.3815918 0.9194336
vn -0.1760254 -0.3564453 0.9174805
vn -0.1760254 -0.3564453 0.9174805
vn -0.1760254 -0.3564453 0.9174805
vn 0.6962891 0.7177734 0.00236702
vn 0.6962891 0.7177734 0.00236702
vn 0.6962891 0.7177734 0.00236702
vn 0.454834 0.6352539 -0.6240234
vn 0.454834 0.6352539 -0.6240234
vn 0.454834 0.6352539 -0.6240234
vn 0.09613037 -0.3811035 0.9194336
vn 0.09613037 -0.3811035 0.9194336
vn 0.09613037 -0.3811035 0.9194336
vn 0.1772461 -0.3554688 0.9179688
vn 0.1772461 -0.3554688 0.9179688
vn 0.1772461 -0.3554688 0.9179688
vn 0.1829834 0.002592087 0.9829102
vn 1 0.0003607273 -0.001714706
vn 1 0.0003607273 -0.001714706
vn 1 0.008926392 0.004447937
vn 0.19104 -0.002450943 -0.9814453
vn 0.1917725 -0.0008454323 -0.9814453
vn 0.1917725 -0.0008454323 -0.9814453
vn -0.1827393 -0.002588272 -0.9833984
vn -0.1827393 -0.002588272 -0.9833984
vn -0.1827393 -0.002588272 -0.9833984
vn -1 -0.008926392 -0.004356384
vn -1 -0.008926392 -0.004356384
vn -0.1912842 -0.0007510185 0.9814453
vn -0.1912842 -0.0007505417 0.9814453
vn -0.1912842 -0.0007505417 0.9814453
vn -0.1912842 -0.0007500648 0.9814453
vn -0.1325684 -0.01815796 0.9912109
vn -0.1156006 -0.008666992 0.9931641
vn -0.1156006 -0.008666992 0.9931641
vn -0.09857178 0.0008177757 0.9951172
vn 0.4348145 -0.6904297 -0.578125
vn 0.4348145 -0.6904297 -0.578125
vn 0.4348145 -0.6904297 -0.578125
vn 0.6474609 -0.762207 0.00353241
vn 0.6474609 -0.762207 0.00353241
vn 0.6474609 -0.762207 0.00353241
vn -0.01093292 1 -0.0009822845
vn -0.01069641 1 -0.000556469
vn 0.001149178 -1 0.001084328
vn 0.001428604 -1 0.001111031
vn 0.001428604 -1 0.001111031
vn 0.001708031 -1 0.001137733
vn 0.6508789 -0.7592773 0.004371643
vn 0.6508789 -0.7592773 0.004371643
vn 0.6508789 -0.7592773 0.004371643
vn 0.4333496 -0.6879883 0.5820313
vn 0.4333496 -0.6879883 0.5820313
vn 0.4333496 -0.6879883 0.5820313
vn -0.4243164 -0.7006836 0.5737305
vn -0.4243164 -0.7006836 0.5737305
vn -0.4243164 -0.7006836 0.5737305
vn -0.6318359 -0.7753906 -0.002006531
vn -0.6318359 -0.7753906 -0.002006531
vn -0.6318359 -0.7753906 -0.002006531
vn 0.01097107 -1 0.0009832382
vn 0.01097107 -1 0.0009832382
vn 0.01097107 -1 0.0009832382
vn 0.01097107 -1 0.0009822845
vn -0.01094055 1 -0.0009813309
vn -0.01094818 1 -0.0009794235
vn -0.6318359 -0.7753906 -0.002031326
vn -0.6318359 -0.7753906 -0.002031326
vn -0.6318359 -0.7753906 -0.002031326
vn -0.4191895 -0.7016602 -0.5761719
vn -0.4191895 -0.7016602 -0.5761719
vn -0.4191895 -0.7016602 -0.5761719
vn 0.2963867 0.03424072 0.9545898
vn 0.2963867 0.03424072 0.9545898
vn 0.1518555 -0.01002502 0.9882813
vn 0.142334 0.001414299 0.9897461
vn 0.1706543 -0.03289795 0.9848633
vn 1 0.001966476 -0.0213623
vn 1 0.001966476 -0.0213623
vn 0.9995117 0.002336502 -0.02452087
vn 0.9702148 -0.0737915 -0.2312012
vn 0.9702148 -0.0737915 -0.2312012
vn 0.9702148 -0.0737915 -0.2312012
vn 0.9013672 0.06445313 0.4277344
vn 0.9013672 0.06445313 0.4277344
vn 0.9013672 0.06445313 0.4277344
vn 1 0 0
vn 1 0 0
vn 1 0 0
vn 1 0 0
vn -1 0 0
vn -1 0 0
vn -1 0 0
vn -1 0 0
vn 1 0 0
vn 1 0 0
vn 0 0 1
vn 0 0 1
vn -1 0 0
vn -1 0 0
vn -1 0 0
vn -1 0 0
vn 0 1 0
vn 0 1 0
vn 0 1 0
vn 0 1 0
vn 0 1 0
vn 0 1 0
vn 0 1 0
vn 0 1 0
vn 0 0 1
vn 0 0 1
vn 1 0 0
vn 1 0 0
vn 1 0 0
vn 0 0 -1
vn 0 0 -1
vn 0 0 -1
vn -1 0 0
vn -1 0 0
vn -1 0 0
vn -1 0 0
vn 0 0.3574219 0.934082
vn 0 0.3574219 0.934082
vn 0 0.3574219 0.934082
vn 0 0.3574219 0.934082
vn 0.6875 0.7260742 0
vn 0.6875 0.7260742 0
vn 0.6875 0.7260742 0
vn 0.6875 0.7260742 0
vn 0 0.3574219 -0.934082
vn 0 0.3574219 -0.934082
vn 0 0.3574219 -0.934082
vn 0 0.3574219 -0.934082
vn -0.6875 0.7260742 0
vn -0.6875 0.7260742 0
vn -0.6875 0.7260742 0
vn -0.6875 0.7260742 0
vn 0 1 0
vn 0 1 0
vn 0 1 0
vn 0 1 0
vn 0 0 -1
vn 0 0 -1
vn 0 0 1
vn 0 0 1
vn 0.3115234 0.9501953 0
vn 0.3115234 0.9501953 0
vn 0.3115234 0.9501953 0
vn 0.3115234 0.9501953 0
vn 0.2617188 -0.1298828 0.956543
vn 0.2600098 -0.131958 0.956543
vn 0.2600098 -0.131958 0.956543
vn 0.2585449 -0.1341553 0.956543
vn -0.2580566 -0.9663086 0
vn -0.2580566 -0.9663086 0
vn -0.2580566 -0.9663086 0
vn -0.2580566 -0.9663086 0
vn 0.2617188 -0.1298828 -0.956543
vn 0.2600098 -0.131958 -0.956543
vn 0.2600098 -0.131958 -0.956543
vn 0.2585449 -0.1341553 -0.956543
vn -0.3115234 0.9501953 0
vn -0.3115234 0.9501953 0
vn -0.3115234 0.9501953 0
vn -0.3115234 0.9501953 0
vn -0.2617188 -0.1298828 -0.956543
vn -0.2600098 -0.131958 -0.956543
vn -0.2600098 -0.131958 -0.956543
vn -0.2585449 -0.1341553 -0.956543
vn 0.2580566 -0.9663086 0
vn 0.2580566 -0.9663086 0
vn 0.2580566 -0.9663086 0
vn 0.2580566 -0.9663086 0
vn -0.2617188 -0.1298828 0.956543
vn -0.2600098 -0.131958 0.956543
vn -0.2600098 -0.131958 0.956543
vn -0.2585449 -0.1341553 0.956543
vn 0 -1 0
vn 0 -1 0
vn 0 -1 0
vn 0 -1 0
vn 0 0 -1
vn 0 0 -1
vn 1 0 1.347065E-05
vn 1 0 1.347065E-05
vn 0 0 1
vn 0 0 1
vn 0 0 1
vn 0 0 1
vn -1 0 0
vn -1 0 0
vn 0 0 -1
vn 0 0 -1
vn 0 0 -1
vn 1 2.95639E-05 0
vn 1 1.478195E-05 0
vn 1 1.478195E-05 0
vn 0 0 1
vn 0 0 1
vn 0 0 1
vn 0 0 1
vn -1 0 0
vn -1 0 0
vn 0 0 1
vn 0 0 1
vn 1 0 1.91927E-05
vn 1 0 1.91927E-05
vn 1 0 1.91927E-05
vn 1 0 1.91927E-05
vn -1 0 0
vn -1 0 0
vn 0 0 1
vn 0 0 1
vn 1 -3.033876E-05 1.347065E-05
vn 1 -1.519918E-05 0
vn 1 -1.519918E-05 0
vn 1 0 0
vn -1 0 0
vn -1 0 0
vn 0 0 1
vn 0 0 1
vn 1 0 0
vn 1 0 0
vn 1 0 0
vn 1 0 0
vn -1 0 0
vn -1 0 0
vn 0 0 1
vn 0 0 1
vn 1 0 0
vn 1 0 0
vn 1 0 0
vn 1 0 0
vn -1 0 0
vn -1 0 0
vn 0 0 1
vn 0 0 1
vn 1 0 0
vn 1 0 0
vn 1 0 0
vn 1 0 0
vn -1 0 0
vn -1 0 0
vn 0 0 1
vn 0 0 1
vn 1 0 0
vn 1 0 0
vn 1 0 0
vn 1 0 0
vn -0.5507813 0.8344727 0
vn -0.5507813 0.8344727 0
vn -0.5507813 0.8344727 0
vn -0.5507813 0.8344727 0
vn -0.5825195 -0.8129883 0
vn -0.5825195 -0.8129883 0
vn -0.5825195 -0.8129883 0
vn -0.5825195 -0.8129883 0
vn 0 0.8657227 -0.5004883
vn 0 0.8657227 -0.5004883
vn 0 0.8657227 -0.5004883
vn 0 0.8657227 -0.5004883
vn -0.1015625 -0.800293 -0.5913086
vn -0.1015625 -0.800293 -0.5913086
vn -0.1015625 -0.800293 -0.5913086
vn -0.09222412 -0.8779297 -0.4702148
vn -0.09222412 -0.8779297 -0.4702148
vn -0.09222412 -0.8779297 -0.4702148
vn 0.5507813 0.8344727 1.055002E-05
vn 0.5507813 0.8344727 0
vn 0.5507813 0.8344727 0
vn 0.5507813 0.8344727 0
vn 0.5825195 -0.8129883 1.114607E-05
vn 0.5825195 -0.8129883 0
vn 0.5825195 -0.8129883 0
vn 0.5825195 -0.8129883 0
vn -0.1015625 -0.800293 0.5913086
vn -0.1015625 -0.800293 0.5913086
vn -0.1015625 -0.800293 0.5913086
vn -0.09222412 -0.8779297 0.4702148
vn -0.09222412 -0.8779297 0.4702148
vn -0.09222412 -0.8779297 0.4702148
vn 0 0.8657227 0.5004883
vn 0 0.8657227 0.5004883
vn 0 0.8657227 0.5004883
vn 0 0.8657227 0.5004883
vn -0.12854 0.7651367 -0.6308594
vn -0.12854 0.7651367 -0.6308594
vn -0.12854 0.7651367 -0.6308594
vn -0.1206665 0.8676758 -0.4819336
vn -0.1206665 0.8676758 -0.4819336
vn -0.1206665 0.8676758 -0.4819336
vn 0.1291504 -0.769043 -0.6259766
vn 0.1291504 -0.769043 -0.6259766
vn 0.1291504 -0.769043 -0.6259766
vn 0.1211548 -0.871582 -0.4750977
vn 0.1211548 -0.871582 -0.4750977
vn 0.1211548 -0.871582 -0.4750977
vn -0.6118164 0.7910156 0
vn -0.6118164 0.7910156 0
vn -0.6118164 0.7910156 0
vn -0.6118164 0.7910156 0
vn -0.605957 -0.7954102 0
vn -0.605957 -0.7954102 0
vn -0.605957 -0.7954102 0
vn -0.605957 -0.7954102 0
vn 0.1291504 -0.769043 0.6259766
vn 0.1291504 -0.769043 0.6259766
vn 0.1291504 -0.769043 0.6259766
vn 0.1211548 -0.871582 0.4750977
vn 0.1211548 -0.871582 0.4750977
vn 0.1211548 -0.871582 0.4750977
vn -0.12854 0.7651367 0.6308594
vn -0.12854 0.7651367 0.6308594
vn -0.12854 0.7651367 0.6308594
vn -0.1206665 0.8676758 0.4819336
vn -0.1206665 0.8676758 0.4819336
vn -0.1206665 0.8676758 0.4819336
vn 0.6118164 0.7910156 1.174212E-05
vn 0.6118164 0.7910156 0
vn 0.6118164 0.7910156 0
vn 0.6113281 0.7910156 0
vn 0.605957 -0.7954102 0
vn 0.605957 -0.7954102 0
vn 0.605957 -0.7954102 0
vn 0.605957 -0.7954102 0
vn 0.1080322 0.7617188 -0.6386719
vn 0.1080322 0.7617188 -0.6386719
vn 0.1080322 0.7617188 -0.6386719
vn 0.09967041 0.8491211 -0.519043
vn 0.09967041 0.8491211 -0.519043
vn 0.09967041 0.8491211 -0.519043
vn -0.09356689 -0.8393555 -0.5351563
vn -0.09356689 -0.8393555 -0.5351563
vn -0.09356689 -0.8393555 -0.5351563
vn -0.08349609 -0.9057617 -0.4157715
vn -0.08349609 -0.9057617 -0.4157715
vn -0.08349609 -0.9057617 -0.4157715
vn -0.6318359 0.7749023 0
vn -0.6318359 0.7749023 0
vn -0.6318359 0.7749023 0
vn -0.6318359 0.7749023 0
vn -0.5249023 -0.8510742 0
vn -0.5249023 -0.8510742 0
vn -0.5249023 -0.8510742 0
vn -0.5249023 -0.8510742 0
vn -0.09356689 -0.8393555 0.5351563
vn -0.09356689 -0.8393555 0.5351563
vn -0.09356689 -0.8393555 0.5351563
vn -0.08349609 -0.9057617 0.4157715
vn -0.08349609 -0.9057617 0.4157715
vn -0.08349609 -0.9057617 0.4157715
vn 0.1080322 0.7617188 0.6386719
vn 0.1080322 0.7617188 0.6386719
vn 0.1080322 0.7617188 0.6386719
vn 0.09967041 0.8491211 0.519043
vn 0.09967041 0.8491211 0.519043
vn 0.09967041 0.8491211 0.519043
vn 0.6318359 0.7749023 0
vn 0.6318359 0.7749023 0
vn 0.6318359 0.7749023 0
vn 0.6318359 0.7749023 0
vn 0.5249023 -0.8510742 0
vn 0.5249023 -0.8510742 0
vn 0.5249023 -0.8510742 0
vn 0.5249023 -0.8510742 0
vn -0.09503174 0.8193359 -0.5654297
vn -0.09503174 0.8193359 -0.5654297
vn -0.09503174 0.8193359 -0.5654297
vn -0.08538818 0.8896484 -0.4487305
vn -0.08538818 0.8896484 -0.4487305
vn -0.08538818 0.8896484 -0.4487305
vn 0 -0.8447266 -0.5351563
vn 0 -0.8447266 -0.5351563
vn 0 -0.8447266 -0.5351563
vn 0 -0.8447266 -0.5351563
vn -0.5576172 0.8300781 0
vn -0.5576172 0.8300781 0
vn -0.5576172 0.8300781 0
vn -0.5576172 0.8300781 0
vn -0.5859375 -0.8100586 0
vn -0.5859375 -0.8100586 0
vn -0.5859375 -0.8100586 0
vn -0.5859375 -0.8100586 0
vn 0 -0.8447266 0.5351563
vn 0 -0.8447266 0.5351563
vn 0 -0.8447266 0.5351563
vn 0 -0.8447266 0.5351563
vn -0.09503174 0.8193359 0.5654297
vn -0.09503174 0.8193359 0.5654297
vn -0.09503174 0.8193359 0.5654297
vn -0.08538818 0.8896484 0.4487305
vn -0.08538818 0.8896484 0.4487305
vn -0.08538818 0.8896484 0.4487305
vn 0.5576172 0.8300781 0
vn 0.5576172 0.8300781 0
vn 0.5576172 0.8300781 0
vn 0.5576172 0.8300781 0
vn 0.5859375 -0.8105469 0
vn 0.5859375 -0.8105469 0
vn 0.5859375 -0.8105469 0
vn 0.5859375 -0.8105469 0
vn -0.4206543 0.01026154 0.9072266
vn -0.4206543 0.01026154 0.9072266
vn 0.4211426 0.009483337 -0.9067383
vn 0.4211426 0.009483337 -0.9067383
vn 0.34375 0.008087158 -0.9389648
vn 0.34375 0.008087158 -0.9389648
vn -0.4196777 0.0105896 -0.9077148
vn -0.4206543 0.01024628 -0.9072266
vn 0.4208984 0.009597778 0.9072266
vn 0.4211426 0.009483337 0.9067383
vn 0.4211426 0.009483337 0.9067383
vn 0.4216309 0.009361267 0.9067383
vn -0.3432617 0.00856781 0.9389648
vn -0.3435059 0.008323669 0.9389648
vn -0.3435059 0.008323669 0.9389648
vn -0.34375 0.008079529 0.9389648
vn -0.3432617 0.008087158 -0.9389648
vn -0.3435059 0.00831604 -0.9389648
vn -0.3435059 0.00831604 -0.9389648
vn -0.34375 0.008544922 -0.9389648
g Item_SwordSheath_0
f 38/38/38 19/19/19 18/18/18
f 180/180/180 37/37/37 19/19/19
f 8/8/8 10/10/10 5/5/5
f 8/8/8 9/9/9 10/10/10
f 199/199/199 10/10/10 9/9/9
f 199/199/199 200/200/200 10/10/10
f 13/13/13 34/34/34 39/39/39
f 182/182/182 15/15/15 181/181/181
f 36/36/36 35/35/35 53/53/53
f 346/346/346 345/345/345 36/36/36
f 346/346/346 347/347/347 345/345/345
f 16/16/16 183/183/183 14/14/14
f 16/16/16 184/184/184 183/183/183
f 189/189/189 184/184/184 188/188/188
f 187/187/187 186/186/186 185/185/185
f 47/47/47 191/191/191 190/190/190
f 47/47/47 49/49/49 191/191/191
f 47/47/47 190/190/190 6/6/6
f 47/47/47 6/6/6 45/45/45
f 43/43/43 45/45/45 6/6/6
f 43/43/43 6/6/6 7/7/7
f 311/311/311 43/43/43 7/7/7
f 311/311/311 7/7/7 310/310/310
f 191/191/191 49/49/49 333/333/333
f 191/191/191 333/333/333 332/332/332
f 332/332/332 311/311/311 310/310/310
f 332/332/332 333/333/333 311/311/311
f 17/17/17 54/54/54 192/192/192
f 17/17/17 52/52/52 54/54/54
f 342/342/342 192/192/192 54/54/54
f 342/342/342 343/343/343 192/192/192
f 54/54/54 344/344/344 342/342/342
f 194/194/194 193/193/193 21/21/21
f 196/196/196 195/195/195 20/20/20
f 196/196/196 198/198/198 197/197/197
f 203/203/203 202/202/202 201/201/201
f 206/206/206 205/205/205 204/204/204
f 12/12/12 3/3/3 1/1/1
f 12/12/12 11/11/11 3/3/3
f 2/2/2 11/11/11 12/12/12
f 2/2/2 4/4/4 11/11/11
f 25/25/25 23/23/23 22/22/22
f 25/25/25 24/24/24 23/23/23
f 208/208/208 26/26/26 207/207/207
f 208/208/208 27/27/27 26/26/26
f 209/209/209 28/28/28 29/29/29
f 209/209/209 210/210/210 28/28/28
f 212/212/212 30/30/30 211/211/211
f 212/212/212 31/31/31 30/30/30
f 33/33/33 214/214/214 213/213/213
f 33/33/33 32/32/32 214/214/214
f 217/217/217 216/216/216 215/215/215
f 217/217/217 218/218/218 216/216/216
f 221/221/221 220/220/220 219/219/219
f 221/221/221 222/222/222 220/220/220
f 225/225/225 224/224/224 223/223/223
f 225/225/225 226/226/226 224/224/224
f 229/229/229 228/228/228 227/227/227
f 232/232/232 231/231/231 230/230/230
f 235/235/235 234/234/234 233/233/233
f 238/238/238 237/237/237 236/236/236
f 241/241/241 240/240/240 239/239/239
f 244/244/244 243/243/243 242/242/242
f 247/247/247 246/246/246 245/245/245
f 250/250/250 249/249/249 248/248/248
f 253/253/253 252/252/252 251/251/251
f 253/253/253 255/255/255 254/254/254
f 258/258/258 257/257/257 256/256/256
f 258/258/258 259/259/259 257/257/257
f 262/262/262 261/261/261 260/260/260
f 265/265/265 264/264/264 263/263/263
f 268/268/268 267/267/267 266/266/266
f 271/271/271 270/270/270 269/269/269
f 274/274/274 273/273/273 272/272/272
f 277/277/277 276/276/276 275/275/275
f 280/280/280 279/279/279 278/278/278
f 283/283/283 282/282/282 281/281/281
f 42/42/42 41/41/41 284/284/284
f 42/42/42 40/40/40 41/41/41
f 286/286/286 285/285/285 44/44/44
f 286/286/286 287/287/287 285/285/285
f 290/290/290 289/289/289 288/288/288
f 290/290/290 46/46/46 289/289/289
f 292/292/292 48/48/48 291/291/291
f 292/292/292 293/293/293 48/48/48
f 51/51/51 294/294/294 50/50/50
f 51/51/51 295/295/295 294/294/294
f 298/298/298 297/297/297 296/296/296
f 298/298/298 299/299/299 297/297/297
f 302/302/302 301/301/301 300/300/300
f 302/302/302 303/303/303 301/301/301
f 306/306/306 305/305/305 304/304/304
f 309/309/309 308/308/308 307/307/307
f 314/314/314 313/313/313 312/312/312
f 314/314/314 315/315/315 313/313/313
f 318/318/318 317/317/317 316/316/316
f 321/321/321 320/320/320 319/319/319
f 324/324/324 323/323/323 322/322/322
f 327/327/327 326/326/326 325/325/325
f 330/330/330 329/329/329 328/328/328
f 330/330/330 331/331/331 329/329/329
f 336/336/336 335/335/335 334/334/334
f 339/339/339 338/338/338 337/337/337
f 341/341/341 340/340/340 55/55/55
f 350/350/350 349/349/349 348/348/348
f 353/353/353 352/352/352 351/351/351
f 65/65/65 67/67/67 64/64/64
f 65/65/65 66/66/66 67/67/67
f 69/69/69 71/71/71 68/68/68
f 69/69/69 70/70/70 71/71/71
f 81/81/81 83/83/83 80/80/80
f 81/81/81 82/82/82 83/83/83
f 356/356/356 355/355/355 354/354/354
f 356/356/356 357/357/357 355/355/355
f 360/360/360 359/359/359 358/358/358
f 360/360/360 361/361/361 359/359/359
f 108/108/108 60/60/60 107/107/107
f 108/108/108 61/61/61 60/60/60
f 109/109/109 363/363/363 362/362/362
f 109/109/109 62/62/62 363/363/363
f 364/364/364 106/106/106 63/63/63
f 364/364/364 365/365/365 106/106/106
f 368/368/368 367/367/367 366/366/366
f 368/368/368 369/369/369 367/367/367
f 372/372/372 371/371/371 370/370/370
f 372/372/372 373/373/373 371/371/371
f 374/374/374 373/373/373 372/372/372
f 374/374/374 375/375/375 373/373/373
f 376/376/376 375/375/375 374/374/374
f 376/376/376 377/377/377 375/375/375
f 370/370/370 377/377/377 376/376/376
f 370/370/370 371/371/371 377/377/377
f 59/59/59 72/72/72 58/58/58
f 59/59/59 73/73/73 72/72/72
f 57/57/57 73/73/73 59/59/59
f 57/57/57 74/74/74 73/73/73
f 56/56/56 74/74/74 57/57/57
f 56/56/56 75/75/75 74/74/74
f 58/58/58 75/75/75 56/56/56
f 58/58/58 72/72/72 75/75/75
f 379/379/379 76/76/76 378/378/378
f 379/379/379 77/77/77 76/76/76
f 382/382/382 381/381/381 380/380/380
f 382/382/382 78/78/78 381/381/381
f 385/385/385 384/384/384 383/383/383
f 385/385/385 79/79/79 384/384/384
f 388/388/388 387/387/387 386/386/386
f 388/388/388 389/389/389 387/387/387
f 392/392/392 391/391/391 390/390/390
f 392/392/392 393/393/393 391/391/391
f 396/396/396 395/395/395 394/394/394
f 396/396/396 397/397/397 395/395/395
f 400/400/400 399/399/399 398/398/398
f 400/400/400 401/401/401 399/399/399
f 404/404/404 403/403/403 402/402/402
f 404/404/404 405/405/405 403/403/403
f 407/407/407 85/85/85 406/406/406
f 407/407/407 84/84/84 85/85/85
f 408/408/408 84/84/84 407/407/407
f 408/408/408 87/87/87 84/84/84
f 409/409/409 87/87/87 408/408/408
f 409/409/409 86/86/86 87/87/87
f 406/406/406 86/86/86 409/409/409
f 406/406/406 85/85/85 86/86/86
f 411/411/411 89/89/89 410/410/410
f 411/411/411 88/88/88 89/89/89
f 413/413/413 91/91/91 412/412/412
f 413/413/413 90/90/90 91/91/91
f 92/92/92 95/95/95 93/93/93
f 92/92/92 94/94/94 95/95/95
f 96/96/96 99/99/99 97/97/97
f 96/96/96 98/98/98 99/99/99
f 416/416/416 415/415/415 414/414/414
f 416/416/416 417/417/417 415/415/415
f 420/420/420 419/419/419 418/418/418
f 420/420/420 421/421/421 419/419/419
f 424/424/424 423/423/423 422/422/422
f 424/424/424 425/425/425 423/423/423
f 428/428/428 427/427/427 426/426/426
f 428/428/428 429/429/429 427/427/427
f 432/432/432 431/431/431 430/430/430
f 432/432/432 433/433/433 431/431/431
f 436/436/436 435/435/435 434/434/434
f 436/436/436 437/437/437 435/435/435
f 440/440/440 439/439/439 438/438/438
f 440/440/440 441/441/441 439/439/439
f 444/444/444 443/443/443 442/442/442
f 444/444/444 445/445/445 443/443/443
f 448/448/448 447/447/447 446/446/446
f 448/448/448 449/449/449 447/447/447
f 141/141/141 143/143/143 140/140/140
f 141/141/141 142/142/142 143/143/143
f 144/144/144 451/451/451 450/450/450
f 144/144/144 145/145/145 451/451/451
f 146/146/146 453/453/453 452/452/452
f 146/146/146 147/147/147 453/453/453
f 456/456/456 455/455/455 454/454/454
f 456/456/456 457/457/457 455/455/455
f 459/459/459 110/110/110 458/458/458
f 459/459/459 111/111/111 110/110/110
f 462/462/462 461/461/461 460/460/460
f 462/462/462 112/112/112 461/461/461
f 465/465/465 464/464/464 463/463/463
f 465/465/465 113/113/113 464/464/464
f 468/468/468 467/467/467 466/466/466
f 468/468/468 469/469/469 467/467/467
f 118/118/118 115/115/115 114/114/114
f 118/118/118 119/119/119 115/115/115
f 470/470/470 120/120/120 116/116/116
f 470/470/470 471/471/471 120/120/120
f 121/121/121 473/473/473 472/472/472
f 121/121/121 117/117/117 473/473/473
f 476/476/476 475/475/475 474/474/474
f 476/476/476 477/477/477 475/475/475
f 150/150/150 149/149/149 148/148/148
f 150/150/150 151/151/151 149/149/149
f 478/478/478 153/153/153 152/152/152
f 478/478/478 479/479/479 153/153/153
f 154/154/154 481/481/481 480/480/480
f 154/154/154 155/155/155 481/481/481
f 484/484/484 483/483/483 482/482/482
f 484/484/484 485/485/485 483/483/483
f 126/126/126 123/123/123 122/122/122
f 126/126/126 127/127/127 123/123/123
f 486/486/486 128/128/128 124/124/124
f 486/486/486 487/487/487 128/128/128
f 129/129/129 489/489/489 488/488/488
f 129/129/129 125/125/125 489/489/489
f 492/492/492 491/491/491 490/490/490
f 492/492/492 493/493/493 491/491/491
f 156/156/156 159/159/159 157/157/157
f 156/156/156 158/158/158 159/159/159
f 494/494/494 161/161/161 160/160/160
f 494/494/494 495/495/495 161/161/161
f 163/163/163 496/496/496 162/162/162
f 163/163/163 497/497/497 496/496/496
f 500/500/500 499/499/499 498/498/498
f 500/500/500 501/501/501 499/499/499
f 134/134/134 131/131/131 130/130/130
f 134/134/134 135/135/135 131/131/131
f 502/502/502 136/136/136 132/132/132
f 502/502/502 503/503/503 136/136/136
f 137/137/137 505/505/505 504/504/504
f 137/137/137 133/133/133 505/505/505
f 508/508/508 507/507/507 506/506/506
f 508/508/508 509/509/509 507/507/507
f 166/166/166 165/165/165 164/164/164
f 166/166/166 167/167/167 165/165/165
f 510/510/510 169/169/169 168/168/168
f 510/510/510 511/511/511 169/169/169
f 170/170/170 513/513/513 512/512/512
f 170/170/170 171/171/171 513/513/513
f 516/516/516 515/515/515 514/514/514
f 516/516/516 517/517/517 515/515/515
f 520/520/520 519/519/519 518/518/518
f 520/520/520 521/521/521 519/519/519
f 524/524/524 523/523/523 522/522/522
f 524/524/524 525/525/525 523/523/523
f 528/528/528 527/527/527 526/526/526
f 528/528/528 529/529/529 527/527/527
f 532/532/532 531/531/531 530/530/530
f 535/535/535 534/534/534 533/533/533
f 538/538/538 537/537/537 536/536/536
f 538/538/538 539/539/539 537/537/537
f 542/542/542 541/541/541 540/540/540
f 542/542/542 543/543/543 541/541/541
f 546/546/546 545/545/545 544/544/544
f 549/549/549 548/548/548 547/547/547
f 552/552/552 551/551/551 550/550/550
f 552/552/552 553/553/553 551/551/551
f 556/556/556 555/555/555 554/554/554
f 559/559/559 558/558/558 557/557/557
f 562/562/562 561/561/561 560/560/560
f 565/565/565 564/564/564 563/563/563
f 568/568/568 567/567/567 566/566/566
f 568/568/568 569/569/569 567/567/567
f 572/572/572 571/571/571 570/570/570
f 572/572/572 573/573/573 571/571/571
f 576/576/576 575/575/575 574/574/574
f 579/579/579 578/578/578 577/577/577
f 582/582/582 581/581/581 580/580/580
f 585/585/585 584/584/584 583/583/583
f 588/588/588 587/587/587 586/586/586
f 588/588/588 589/589/589 587/587/587
f 592/592/592 591/591/591 590/590/590
f 592/592/592 593/593/593 591/591/591
f 596/596/596 595/595/595 594/594/594
f 599/599/599 598/598/598 597/597/597
f 602/602/602 601/601/601 600/600/600
f 605/605/605 604/604/604 603/603/603
f 608/608/608 607/607/607 606/606/606
f 608/608/608 609/609/609 607/607/607
f 612/612/612 611/611/611 610/610/610
f 612/612/612 613/613/613 611/611/611
f 616/616/616 615/615/615 614/614/614
f 619/619/619 618/618/618 617/617/617
f 622/622/622 621/621/621 620/620/620
f 625/625/625 624/624/624 623/623/623
f 628/628/628 627/627/627 626/626/626
f 628/628/628 629/629/629 627/627/627
f 632/632/632 631/631/631 630/630/630
f 632/632/632 633/633/633 631/631/631
f 636/636/636 635/635/635 634/634/634
f 639/639/639 638/638/638 637/637/637
f 642/642/642 641/641/641 640/640/640
f 642/642/642 643/643/643 641/641/641
f 646/646/646 645/645/645 644/644/644
f 646/646/646 647/647/647 645/645/645
f 650/650/650 649/649/649 648/648/648
f 650/650/650 651/651/651 649/649/649
f 654/654/654 653/653/653 652/652/652
f 654/654/654 655/655/655 653/653/653
f 658/658/658 657/657/657 656/656/656
f 661/661/661 660/660/660 659/659/659
f 664/664/664 663/663/663 662/662/662
f 664/664/664 665/665/665 663/663/663
f 668/668/668 667/667/667 666/666/666
f 668/668/668 669/669/669 667/667/667
f 179/179/179 138/138/138 176/176/176
f 671/671/671 103/103/103 670/670/670
f 178/178/178 139/139/139 177/177/177
f 673/673/673 101/101/101 672/672/672
f 674/674/674 175/175/175 104/104/104
f 674/674/674 675/675/675 175/175/175
f 174/174/174 100/100/100 105/105/105
f 174/174/174 172/172/172 100/100/100
f 677/677/677 173/173/173 676/676/676
f 677/677/677 102/102/102 173/173/173
f 680/680/680 679/679/679 678/678/678
f 680/680/680 681/681/681 679/679/679
f 684/684/684 683/683/683 682/682/682
f 684/684/684 685/685/685 683/683/683
f 688/688/688 687/687/687 686/686/686
f 688/688/688 689/689/689 687/687/687
