g Jaw
v -1.242601 -0.5942862 -0.8842785
v -1.242601 -1.152012 -0.4465523
v -0.9400439 -2.024413 -0.7834859
v -0.8268652 -3.096514 -1.460583
v -0.9097075 -1.812326 -1.630845
v -0.9400439 -2.024413 -0.7834859
v -0.8268652 -2.673328 -1.893642
v -0.2260575 -3.976005 -1.635423
v -0.8268652 -3.096514 -1.460583
v -0.6254592 -3.543305 -1.36374
v -0.1349583 -4.438683 -1.357996
v -0.8268652 -2.673328 -1.893642
v -0.9166183 -1.383665 -0.2392225
v 0.9165897 -1.383665 -0.2392225
v -0.6130733 -2.253014 -0.5495892
v 0.6130443 -2.253014 -0.5495892
v -0.6130733 -2.253014 -0.5495892
v 0.6130443 -2.253014 -0.5495892
v -0.4998045 -3.325115 -1.226776
v 0.499866 -3.325115 -1.226776
v -0.2260575 -3.976005 -1.635423
v -0.1349583 -4.438683 -1.357996
v 0.1349297 -4.438683 -1.357996
v 0.226119 -3.976005 -1.635423
v -0.4998045 -3.325115 -1.226776
v 0.499866 -3.325115 -1.226776
v 0.2420945 -4.389408 -1.09089
v -0.2421236 -4.389408 -1.09089
v -0.8268652 -3.096514 -1.460583
v -0.4998045 -3.325115 -1.226776
v -0.6254592 -3.543305 -1.36374
v -0.9400439 -2.024413 -0.7834859
v -0.9166183 -1.383665 -0.2392225
v -0.6130733 -2.253014 -0.5495892
v -1.242601 -1.152012 -0.4465523
v -0.8268652 -3.096514 -1.460583
v -0.4998045 -3.325115 -1.226776
v -1.44329 -0.4317431 -1.051579
v -0.9097075 -1.812326 -1.630845
v -0.6091242 -1.497113 -1.53463
v -0.6846962 0.2307248 -1.72347
v -0.6091242 -1.497113 -1.53463
v -0.4577103 -0.137712 -1.846163
v -0.6846962 0.2307248 -1.72347
v -1.227523 0.3665214 -1.468033
v -1.44329 -0.4317431 -1.051579
v -0.2260575 -3.976005 -1.635423
v 0.226119 -3.976005 -1.635423
v 0.226119 -3.598862 -2.075482
v -0.2260575 -3.598862 -2.075482
v -0.2260575 -3.598862 -2.075482
v 0.226119 -3.598862 -2.075482
v -0.8268652 -2.673328 -1.893642
v 0.8268366 -2.673328 -1.893642
v 0.9097683 -1.812326 -1.630845
v 1.242573 -0.5942862 -0.8842785
v 1.156141 -0.8913691 -1.308003
v 0.8268366 -3.096514 -1.460583
v 0.9097683 -1.812326 -1.630845
v 0.8268366 -2.673328 -1.893642
v 0.9401052 -2.024413 -0.7834859
v 0.226119 -3.976005 -1.635423
v 0.8268366 -2.673328 -1.893642
v 0.226119 -3.598862 -2.075482
v 1.156141 -0.8913691 -1.308003
v 1.443261 -0.4242039 -1.041975
v 1.227494 0.3665214 -1.468033
v 0.6254303 -3.543305 -1.36374
v 0.1349297 -4.438683 -1.357996
v 0.2420945 -4.389408 -1.09089
v 0.8268366 -3.096514 -1.460583
v 0.6254303 -3.543305 -1.36374
v 0.499866 -3.325115 -1.226776
v 0.9401052 -2.024413 -0.7834859
v 0.9165897 -1.383665 -0.2392225
v 1.242573 -1.152012 -0.4465523
v 0.6130443 -2.253014 -0.5495892
v 0.8268366 -3.096514 -1.460583
v 0.499866 -3.325115 -1.226776
v 0.2420945 -4.389408 -1.09089
v 0.499866 -3.325115 -1.226776
v 0.6254303 -3.543305 -1.36374
v 1.156141 -0.8913691 -1.308003
v 0.6090953 -1.497113 -1.53463
v 0.9097683 -1.812326 -1.630845
v 0.6847575 0.2307248 -1.72347
v 0.6090953 -1.497113 -1.53463
v 1.156141 -0.8913691 -1.308003
v 0.6847575 0.2307248 -1.72347
v 1.156141 -0.8913691 -1.308003
v 1.227494 0.3665214 -1.468033
v 0.6090953 -1.497113 -1.53463
v -0.6091242 -1.497113 -1.53463
v -0.9097075 -1.812326 -1.630845
v -0.8268652 -2.673328 -1.893642
v 0.8268366 -2.673328 -1.893642
v 0.9097683 -1.812326 -1.630845
v 0.4576819 -0.137712 -1.846163
v -0.4577103 -0.137712 -1.846163
v 0.6090953 -1.497113 -1.53463
v -0.2421236 -4.389408 -1.09089
v 0.2420945 -4.389408 -1.09089
v -0.1349583 -4.438683 -1.357996
v 0.1349297 -4.438683 -1.357996
v -1.242601 -0.5942862 -0.8842785
v -0.9097075 -1.812326 -1.630845
v -1.44329 -0.4317431 -1.051579
v -0.1349583 -4.438683 -1.357996
v -0.6254592 -3.543305 -1.36374
v -0.2421236 -4.389408 -1.09089
v -0.4998045 -3.325115 -1.226776
v -0.2421236 -4.389408 -1.09089
v -0.6254592 -3.543305 -1.36374
v -0.6091242 -1.497113 -1.53463
v -0.6846962 0.2307248 -1.72347
v -1.44329 -0.4317431 -1.051579
v 1.242573 -0.5942862 -0.8842785
v 0.9097683 -1.812326 -1.630845
v 0.9401052 -2.024413 -0.7834859
v 0.8268366 -2.673328 -1.893642
v 0.226119 -3.976005 -1.635423
v 0.8268366 -3.096514 -1.460583
v 0.6254303 -3.543305 -1.36374
v 0.1349297 -4.438683 -1.357996
v 0.6090953 -1.497113 -1.53463
v 0.6847575 0.2307248 -1.72347
v 0.4576819 -0.137712 -1.846163
v 1.443261 -0.4242039 -1.041975
v 1.156141 -0.8913691 -1.308003
v 1.242573 -0.5942862 -0.8842785
v 1.242573 -0.5942862 -0.8842785
v 0.9401052 -2.024413 -0.7834859
v 1.242573 -1.152012 -0.4465523
v -1.242601 -0.5942862 -0.8842785
v -0.9400439 -2.024413 -0.7834859
v -0.9097075 -1.812326 -1.630845
v -0.2260575 -3.598862 -2.075482
v -0.8268652 -2.673328 -1.893642
v -0.2260575 -3.976005 -1.635423
v -0.4577103 -0.137712 -1.846163
v -0.6091242 -1.497113 -1.53463
v 0.6090953 -1.497113 -1.53463
v 0.4576819 -0.137712 -1.846163
v -0.6846962 0.2307248 -1.72347
v -0.4577103 -0.137712 -1.846163
v 0.6847575 0.2307248 -1.72347
v -0.6846962 0.2307248 -1.72347
v 0.4576819 -0.137712 -1.846163
v -0.6846962 0.2307248 -1.72347
v -1.227523 1.125833 -1.185939
v -1.227523 0.3665214 -1.468033
v -0.6846962 0.9900365 -1.441466
v -1.227523 0.3665214 -1.468033
v -1.44329 0.3275681 -0.7695739
v -1.44329 -0.4317431 -1.051579
v -1.227523 1.125833 -1.185939
v 1.443261 -0.4242039 -1.041975
v 1.227494 1.125833 -1.185939
v 1.227494 0.3665214 -1.468033
v 1.443261 0.3351078 -0.7599704
v 1.227494 0.3665214 -1.468033
v 0.6847575 0.9900365 -1.441466
v 0.6847575 0.2307248 -1.72347
v 1.227494 1.125833 -1.185939
v 0.6847575 0.2307248 -1.72347
v -0.6846962 0.9900365 -1.441466
v 0.6847575 0.9900365 -1.441466
vt 0 1.000005
vt 0 1.000005
vt 0 1.000005
vt 0 1.000005
vt 0 1.000005
vt 0 1.000005
vt 0 1.000005
vt 0 1.000005
vt 0 1.000005
vt 0 1.000005
vt 0 1.000005
vt 0 1.000005
vt 0 0.7468213
vt 0 0.7468213
vt 0 0.6704419
vt 0 0.6704419
vt 0 0.6704419
vt 0 0.6704419
vt 0 0.6280088
vt 0 0.6280088
vt 0 1.000005
vt 0 1.000005
vt 0 1.000005
vt 0 1.000005
vt 0 0.6280088
vt 0 0.6280088
vt 0 1.000005
vt 0 0.306225
vt 0 1.000005
vt 0 0.6280088
vt 0 1.000005
vt 0 1.000005
vt 0 0.7468213
vt 0 0.6704419
vt 0 1.000005
vt 0 1.000005
vt 0 0.6280088
vt 0 1.000005
vt 0 1.000005
vt 0 1.000005
vt 0.280058 1.447674
vt 1.000005 0.5388995
vt 0.08062276 0.7765244
vt 0 1.000005
vt 0 1.000005
vt 0 1.000005
vt 0 0
vt 0 0
vt 0.4943448 1.000005
vt 0.4943448 1.000005
vt 0.4943448 0
vt 0.4943448 0
vt 1.000005 0.7468213
vt 1.000005 0.7468213
vt 0 1.000005
vt 0 1.000005
vt 0 1.000005
vt 0 1.000005
vt 0 1.000005
vt 0 1.000005
vt 0 1.000005
vt 0 1.000005
vt 0 1.000005
vt 0 1.000005
vt 0 1.000005
vt 0 1.000005
vt 0 1.000005
vt 0 1.000005
vt 0 1.000005
vt 0 1.000005
vt 0 1.000005
vt 0 1.000005
vt 0 0.6280088
vt 0 1.000005
vt 0 0.7468213
vt 0 1.000005
vt 0 0.6704419
vt 0 1.000005
vt 0 0.6280088
vt 0 1.000005
vt 0 0.6280088
vt 0 1.000005
vt 0 1.000005
vt 0 1.000005
vt 0 1.000005
vt 0.280058 1.447674
vt 1.000005 0.6258872
vt 0.9886897 0.9271618
vt 0 1.000005
vt 0 1.000005
vt 0 1.000005
vt 1.000005 0.6258872
vt 1.000005 0.5388995
vt 1.000005 0.5622377
vt 1.000005 0.7468213
vt 1.000005 0.7468213
vt 1.000005 0.5622377
vt 1.000005 0.9123102
vt 0.4094787 0.6923656
vt 1.000005 0.6159862
vt 0 0.306225
vt 0 1.000005
vt 0 1.000005
vt 0 1.000005
vt 0 1.000005
vt 0 1.000005
vt 0 1.000005
vt 0 1.000005
vt 0 1.000005
vt 0 0.306225
vt 0 0.6280088
vt 0 0.306225
vt 0 1.000005
vt 1.000005 0.5388995
vt 0.280058 1.447674
vt 0.9886897 0.9271618
vt 0 1.000005
vt 0 1.000005
vt 0 1.000005
vt 0 1.000005
vt 0 1.000005
vt 0 1.000005
vt 0 1.000005
vt 0 1.000005
vt 1.000005 0.6258872
vt 0.280058 1.447674
vt 0.08062276 0.7765244
vt 0 1.000005
vt 0 1.000005
vt 0 1.000005
vt 0 1.000005
vt 0 1.000005
vt 0 1.000005
vt 0 1.000005
vt 0 1.000005
vt 0 1.000005
vt 0.4943448 0
vt 0 1.000005
vt 0 0
vt 0.4094787 0.6923656
vt 1.000005 0.5388995
vt 1.000005 0.6159862
vt 0.08062276 0.7765244
vt 0.280058 1.447674
vt 0.08062276 0.7765244
vt 0.5000026 0
vt 0.280058 1.447674
vt 0.08062276 0.7765244
vt 0 1.000005
vt 0 1.000005
vt 0 1.000005
vt 0 1.000005
vt 0 1.000005
vt 0 1.000005
vt 0 1.000005
vt 0 1.000005
vt 0 1.000005
vt 0 1.000005
vt 0 1.000005
vt 0 1.000005
vt 0 1.000005
vt 0 1.000005
vt 0 1.000005
vt 0 1.000005
vt 0.5000026 0
vt 0.280058 1.447674
vt 0.5000026 0
vn -0.9335186 -0.2148265 -0.287041
vn -0.9335186 -0.2148265 -0.287041
vn -0.9335186 -0.2148265 -0.287041
vn -0.9960136 -0.07421279 -0.04949005
vn -0.9960136 -0.07421279 -0.04949005
vn -0.9960136 -0.07421279 -0.04949005
vn -0.9960136 -0.07421279 -0.04949005
vn -0.7772813 -0.4491826 -0.4405324
vn -0.7772813 -0.4491826 -0.4405324
vn -0.7772813 -0.4491826 -0.4405324
vn -0.7772813 -0.425747 -0.4632206
vn -0.7772813 -0.4491826 -0.4405324
vn -0.003906012 -0.3398164 0.9404837
vn -0.003906012 -0.3398164 0.9404837
vn -0.003906012 -0.3398164 0.9404837
vn -0.003906012 -0.3398164 0.9404837
vn -0.003906012 -0.5351132 0.8447713
vn -0.003906012 -0.5351132 0.8447713
vn -0.003906012 -0.5351132 0.8447713
vn -0.003906012 -0.5351132 0.8447713
vn -0.003906012 -0.5116776 -0.8591686
vn -0.003906012 -0.5116776 -0.8591686
vn -0.003906012 -0.5116776 -0.8591686
vn -0.003906012 -0.5116776 -0.8591686
vn -0.003906012 0.1288959 0.9916505
vn -0.003906012 0.1288959 0.9916505
vn -0.003906012 0.1288959 0.9916505
vn -0.003906012 0.1288959 0.9916505
vn -0.6288557 -0.121084 0.7680359
vn -0.6288557 -0.121084 0.7680359
vn -0.6288557 -0.121084 0.7680359
vn -0.7069744 -0.4413707 0.5526112
vn -0.7069744 -0.4413707 0.5526112
vn -0.7069744 -0.4413707 0.5526112
vn -0.6835388 -0.4569945 0.5691491
vn -0.7069744 -0.4335589 0.5587611
vn -0.7069744 -0.4335589 0.5587611
vn -0.08202469 0.363252 -0.9280732
vn -0.08202469 0.363252 -0.9280732
vn -0.08202469 0.363252 -0.9280732
vn -0.6054201 -0.1132721 -0.7878045
vn -0.6054201 -0.1132721 -0.7878045
vn -0.6054201 -0.1132721 -0.7878045
vn -0.4648064 -0.3085689 -0.8299037
vn -0.4648064 -0.3085689 -0.8299037
vn -0.4648064 -0.3085689 -0.8299037
vn -0.003906012 -0.7616575 -0.6479681
vn -0.003906012 -0.7616575 -0.6479681
vn -0.003906012 -0.7616575 -0.6479681
vn -0.003906012 -0.7616575 -0.6479681
vn -0.003906012 0.1913909 -0.9815061
vn -0.003906012 0.1913909 -0.9815061
vn -0.003906012 0.1913909 -0.9815061
vn -0.003906012 0.1913909 -0.9815061
vn 0.9647661 -0.2538858 -0.06905258
vn 0.9647661 -0.2538858 -0.06905258
vn 0.9647661 -0.2538858 -0.06905258
vn 0.9960136 -0.07421279 -0.04949005
vn 0.9960136 -0.07421279 -0.04949005
vn 0.9960136 -0.07421279 -0.04949005
vn 0.9960136 -0.07421279 -0.04949005
vn 0.8085287 -0.4491826 -0.380153
vn 0.8085287 -0.4491826 -0.380153
vn 0.8085287 -0.4491826 -0.380153
vn 0.7772812 -0.121084 -0.6173918
vn 0.7772812 -0.121084 -0.6173918
vn 0.7772812 -0.121084 -0.6173918
vn 0.8475881 -0.4648063 -0.2560264
vn 0.8475881 -0.4648063 -0.2560264
vn 0.8475881 -0.4648063 -0.2560264
vn 0.6288557 -0.121084 0.7680359
vn 0.6288557 -0.121084 0.7680359
vn 0.6288557 -0.121084 0.7680359
vn 0.6835388 -0.4569945 0.5691491
vn 0.6835388 -0.4569945 0.5691491
vn 0.6835388 -0.4569945 0.5691491
vn 0.7069744 -0.4335589 0.5587611
vn 0.7069744 -0.4335589 0.5587611
vn 0.7069744 -0.4335589 0.5587611
vn 0.6757269 -0.07421279 0.7334068
vn 0.6757269 -0.07421279 0.7334068
vn 0.6757269 -0.07421279 0.7334068
vn 0.03515345 0.3241928 -0.9453377
vn 0.03515345 0.3241928 -0.9453377
vn 0.03515345 0.3241928 -0.9453377
vn 0.488242 -0.1132721 -0.8653261
vn 0.488242 -0.1132721 -0.8653261
vn 0.488242 -0.1132721 -0.8653261
vn 0.4491826 -0.1367077 -0.882919
vn 0.4491826 -0.1367077 -0.882919
vn 0.4491826 -0.1367077 -0.882919
vn -0.003906012 0.2929453 -0.9561213
vn -0.003906012 0.2929453 -0.9561213
vn -0.003906012 0.2929453 -0.9561213
vn -0.003906012 0.2929453 -0.9561213
vn -0.003906012 0.2929453 -0.9561213
vn -0.003906012 0.2929453 -0.9561213
vn -0.003906012 -0.2226383 -0.9748933
vn -0.003906012 -0.2226383 -0.9748933
vn -0.003906012 -0.2226383 -0.9748933
vn -0.003906012 -0.9803899 0.1970289
vn -0.003906012 -0.9803899 0.1970289
vn -0.003906012 -0.9803899 0.1970289
vn -0.003906012 -0.9803899 0.1970289
vn -0.7538457 -0.4804301 0.4482227
vn -0.7538457 -0.4804301 0.4482227
vn -0.7538457 -0.4804301 0.4482227
vn -0.8475881 -0.4648063 -0.2560264
vn -0.8475881 -0.4648063 -0.2560264
vn -0.8475881 -0.4648063 -0.2560264
vn -0.6757269 -0.07421279 0.7334068
vn -0.6757269 -0.07421279 0.7334068
vn -0.6757269 -0.07421279 0.7334068
vn -0.6054201 -0.1132721 -0.7878045
vn -0.6054201 -0.1132721 -0.7878045
vn -0.6054201 -0.1132721 -0.7878045
vn 0.972578 -0.2148265 -0.08911522
vn 0.972578 -0.2148265 -0.08911522
vn 0.972578 -0.2148265 -0.08911522
vn 0.7772812 -0.4491826 -0.4405325
vn 0.7772812 -0.4491826 -0.4405325
vn 0.7772812 -0.4491826 -0.4405325
vn 0.7772812 -0.425747 -0.4632207
vn 0.7772812 -0.425747 -0.4632207
vn 0.6054201 -0.1132721 -0.7878045
vn 0.6054201 -0.1132721 -0.7878045
vn 0.6054201 -0.1132721 -0.7878045
vn 0.7382219 -0.6132319 0.2810251
vn 0.7382219 -0.6132319 0.2810251
vn 0.7382219 -0.6132319 0.2810251
vn 0.9335186 -0.2148265 -0.287041
vn 0.9335186 -0.2148265 -0.287041
vn 0.9335186 -0.2148265 -0.287041
vn -0.972578 -0.2148265 -0.08911522
vn -0.972578 -0.2148265 -0.08911522
vn -0.972578 -0.2148265 -0.08911522
vn -0.8085288 -0.4491826 -0.3801529
vn -0.8085288 -0.4491826 -0.3801529
vn -0.8085288 -0.4491826 -0.3801529
vn -0.003906012 -0.2226383 -0.9748933
vn -0.003906012 -0.2226383 -0.9748933
vn -0.003906012 -0.2226383 -0.9748933
vn -0.003906012 0.3163809 -0.9486243
vn -0.003906012 0.3163809 -0.9486243
vn -0.003906012 0.3163809 -0.9486243
vn -0.003906012 0.3163809 -0.9486243
vn -0.003906012 0.3163809 -0.9486243
vn -0.003906012 0.3163809 -0.9486243
vn -0.3320045 0.3320045 -0.882919
vn -0.3320045 0.3320045 -0.882919
vn -0.3320045 0.3320045 -0.882919
vn -0.3320045 0.3320045 -0.882919
vn -0.9491425 0.1054603 -0.2966593
vn -0.9491425 0.1054603 -0.2966593
vn -0.9491425 0.1054603 -0.2966593
vn -0.9491425 0.1054603 -0.2966593
vn 0.9491424 0.1054603 -0.2966595
vn 0.9491424 0.1054603 -0.2966595
vn 0.9491424 0.1054603 -0.2966595
vn 0.9491424 0.1054603 -0.2966595
vn 0.3320045 0.3320045 -0.882919
vn 0.3320045 0.3320045 -0.882919
vn 0.3320045 0.3320045 -0.882919
vn 0.3320045 0.3320045 -0.882919
vn -0.003906012 0.3476284 -0.9376243
vn -0.003906012 0.3476284 -0.9376243
vn -0.003906012 0.3476284 -0.9376243
g Jaw_0
f 3/3/3 2/2/2 1/1/1
f 6/6/6 5/5/5 4/4/4
f 7/7/7 4/4/4 5/5/5
f 10/10/10 9/9/9 8/8/8
f 8/8/8 11/11/11 10/10/10
f 12/12/12 8/8/8 9/9/9
f 15/15/15 14/14/14 13/13/13
f 16/16/16 14/14/14 15/15/15
f 19/19/19 18/18/18 17/17/17
f 20/20/20 18/18/18 19/19/19
f 23/23/23 22/22/22 21/21/21
f 24/24/24 23/23/23 21/21/21
f 27/27/27 26/26/26 25/25/25
f 28/28/28 27/27/27 25/25/25
f 31/31/31 30/30/30 29/29/29
f 34/34/34 33/33/33 32/32/32
f 35/35/35 32/32/32 33/33/33
f 32/32/32 36/36/36 34/34/34
f 37/37/37 34/34/34 36/36/36
f 40/40/40 39/39/39 38/38/38
f 43/43/43 42/42/42 41/41/41
f 46/46/46 45/45/45 44/44/44
f 49/49/49 48/48/48 47/47/47
f 50/50/50 49/49/49 47/47/47
f 53/53/53 52/52/52 51/51/51
f 54/54/54 52/52/52 53/53/53
f 57/57/57 56/56/56 55/55/55
f 60/60/60 59/59/59 58/58/58
f 61/61/61 58/58/58 59/59/59
f 64/64/64 63/63/63 62/62/62
f 67/67/67 66/66/66 65/65/65
f 70/70/70 69/69/69 68/68/68
f 73/73/73 72/72/72 71/71/71
f 76/76/76 75/75/75 74/74/74
f 77/77/77 74/74/74 75/75/75
f 74/74/74 77/77/77 78/78/78
f 79/79/79 78/78/78 77/77/77
f 82/82/82 81/81/81 80/80/80
f 85/85/85 84/84/84 83/83/83
f 88/88/88 87/87/87 86/86/86
f 91/91/91 90/90/90 89/89/89
f 94/94/94 93/93/93 92/92/92
f 95/95/95 94/94/94 92/92/92
f 96/96/96 95/95/95 92/92/92
f 97/97/97 96/96/96 92/92/92
f 100/100/100 99/99/99 98/98/98
f 103/103/103 102/102/102 101/101/101
f 102/102/102 103/103/103 104/104/104
f 107/107/107 106/106/106 105/105/105
f 110/110/110 109/109/109 108/108/108
f 113/113/113 112/112/112 111/111/111
f 116/116/116 115/115/115 114/114/114
f 119/119/119 118/118/118 117/117/117
f 122/122/122 121/121/121 120/120/120
f 123/123/123 121/121/121 122/122/122
f 121/121/121 123/123/123 124/124/124
f 127/127/127 126/126/126 125/125/125
f 130/130/130 129/129/129 128/128/128
f 133/133/133 132/132/132 131/131/131
f 136/136/136 135/135/135 134/134/134
f 139/139/139 138/138/138 137/137/137
f 142/142/142 141/141/141 140/140/140
f 145/145/145 144/144/144 143/143/143
f 148/148/148 147/147/147 146/146/146
g Jaw_1
f 151/151/151 150/150/150 149/149/149
f 152/152/152 149/149/149 150/150/150
f 155/155/155 154/154/154 153/153/153
f 156/156/156 153/153/153 154/154/154
f 159/159/159 158/158/158 157/157/157
f 160/160/160 157/157/157 158/158/158
f 163/163/163 162/162/162 161/161/161
f 164/164/164 161/161/161 162/162/162
f 144/144/144 166/166/166 165/165/165
f 167/167/167 165/165/165 166/166/166
