g Lantern_01
v -0.07085068 -1.154304E-08 0.07085068
v -0.04038617 1.578692 0.04038643
v -0.07085068 1.154304E-08 -0.07085068
v -0.04038617 1.578692 -0.04038592
v 0.07085068 -1.154304E-08 0.07085068
v 0.04038617 1.578692 0.04038643
v 0.07085068 1.154304E-08 -0.07085068
v 0.04038617 1.578692 -0.04038592
v -0.07085068 0.2623587 0.07085072
v -0.07085068 0.2623587 -0.07085063
v 0.07085068 0.2623587 -0.07085063
v 0.07085068 0.2623587 0.07085072
v -0.1103955 1.798571E-08 -0.1103955
v -0.1103955 -1.798571E-08 0.1103955
v -0.1103955 0.2623588 -0.1103955
v 0.1103955 1.798571E-08 -0.1103955
v 0.1103955 0.2623588 -0.1103955
v 0.1103955 -1.798571E-08 0.1103955
v 0.1103955 0.2623587 0.1103955
v -0.1103955 0.2623587 0.1103955
v -0.1103955 0.03964196 -0.1103955
v 0.1103955 0.03964196 -0.1103955
v 0.1103955 0.03964192 0.1103955
v -0.1103955 0.03964192 0.1103955
v -0.1467154 2.390297E-08 -0.1467154
v -0.1467154 -2.390297E-08 0.1467154
v -0.1467154 0.03964196 -0.1467154
v 0.1467154 2.390297E-08 -0.1467154
v 0.1467154 0.03964196 -0.1467154
v 0.1467154 -2.390297E-08 0.1467154
v 0.1467154 0.03964192 0.1467154
v -0.1467154 0.03964192 0.1467154
v -0.08739677 1.240291 0.08739697
v -0.08739677 1.273465 0.08739698
v 0.08739677 1.273465 0.08739698
v 0.08739677 1.240291 0.08739697
v -0.07085068 1.273465 0.07085089
v -0.07085068 1.240291 0.07085088
v -0.07085068 1.240291 -0.07085048
v -0.07085068 1.273465 -0.07085047
v 0.07085068 1.240291 -0.07085048
v 0.07085068 1.273465 -0.07085047
v 0.07085068 1.240291 0.07085088
v 0.07085068 1.273465 0.07085089
v 0.08739677 1.240291 -0.08739657
v 0.08739677 1.273465 -0.08739656
v -0.08739677 1.240291 -0.08739657
v -0.08739677 1.273465 -0.08739656
v -0.07085068 1.578692 0.07085094
v -0.07085068 1.578692 -0.07085042
v 0.07085068 1.578692 -0.07085042
v 0.07085068 1.578692 0.07085094
v -0.04038617 2.290566 0.04038655
v -0.04038617 2.290566 -0.0403858
v 0.04038617 2.290566 -0.0403858
v 0.04038617 2.290566 0.04038655
v -0.07261811 2.236902 0.07261848
v -0.07261811 2.236902 -0.07261775
v 0.07261811 2.236902 0.07261848
v 0.07261811 2.236902 -0.07261775
v 0.1382915 2.538885 -0.1230924
v 0.1382915 2.528201 -0.1230924
v 0.1382915 2.528201 0.1230932
v 0.1382915 2.538885 0.1230932
v -0.1230928 2.538885 -0.1382911
v -0.1230928 2.528201 -0.1382911
v 0.1230928 2.528201 -0.1382911
v 0.1230928 2.538885 -0.1382911
v 0.09544614 2.551777 -0.1072308
v 0.1072312 2.551777 -0.09544572
v 0.1072312 2.551777 0.09544656
v 0.09544614 2.551777 0.1072316
v -0.1089425 2.515898 0.08307584
v -0.08307543 2.515898 0.1089429
v -0.1072312 2.551777 -0.09544572
v -0.08307543 2.515898 -0.1089421
v -0.1089425 2.515898 -0.08307502
v -0.09544614 2.551777 -0.1072308
v 0.08307543 2.515898 0.1089429
v 0.1089425 2.515898 0.08307584
v -0.09544614 2.551777 0.1072316
v 0.1089425 2.515898 -0.08307502
v 0.08307543 2.515898 -0.1089421
v -0.1072312 2.551777 0.09544656
v -0.1089425 2.268996 -0.08307506
v -0.08307543 2.268996 -0.1089421
v -0.1008021 2.252258 -0.1008017
v -0.08307543 2.268996 0.1089429
v -0.1089425 2.268996 0.08307581
v -0.1008021 2.252258 0.1008025
v 0.08307543 2.268996 -0.1089421
v 0.1089425 2.268996 -0.08307506
v 0.1008021 2.252258 -0.1008017
v 0.1089425 2.268996 0.08307581
v 0.08307543 2.268996 0.1089429
v 0.1008021 2.252258 0.1008025
v -0.09696934 2.256693 0.1089429
v -0.09696934 2.528201 0.1089429
v -0.1089425 2.528201 0.09696975
v -0.1089425 2.256693 0.09696971
v -0.09696934 2.528201 -0.1089421
v -0.09696934 2.256693 -0.1089421
v -0.1089425 2.256693 -0.09696898
v -0.1089425 2.528201 -0.09696893
v 0.1089425 2.528201 -0.09696893
v 0.1089425 2.256693 -0.09696898
v 0.09696934 2.256693 -0.1089421
v 0.09696934 2.528201 -0.1089421
v 0.09696934 2.528201 0.1089429
v 0.09696934 2.256693 0.1089429
v 0.1089425 2.256693 0.09696971
v 0.1089425 2.528201 0.09696975
v -0.09708587 2.515898 0.08307584
v -0.09708587 2.268996 0.08307581
v -0.09708587 2.268996 -0.08307506
v -0.09708587 2.515898 -0.08307502
v 0.09708587 2.515898 -0.08307502
v 0.09708587 2.268996 -0.08307506
v 0.09708587 2.268996 0.08307581
v 0.09708587 2.515898 0.08307584
v -0.08307543 2.268996 0.09577551
v -0.08307543 2.515898 0.09577555
v -0.08307543 2.515898 -0.09577473
v -0.08307543 2.268996 -0.09577477
v 0.08307543 2.268996 -0.09577477
v 0.08307543 2.515898 -0.09577473
v 0.08307543 2.515898 0.09577555
v 0.08307543 2.268996 0.09577551
v -0.1230928 2.538885 0.1382919
v -0.1230928 2.528201 0.1382919
v -0.1382915 2.528201 0.1230932
v 0.1230928 2.528201 0.1382919
v 0.1230928 2.538885 0.1382919
v -0.1382915 2.538885 -0.1230924
v -0.1382915 2.528201 -0.1230924
v -0.1382915 2.538885 0.1230932
v 0.0335685 2.560144 0.02987962
v 0.0335685 2.560144 -0.02987879
v -0.02987921 2.560144 -0.03356808
v 0.02987921 2.560144 -0.03356808
v -0.0335685 2.560144 0.02987962
v -0.0335685 2.560144 -0.02987879
v 0.02987921 2.560144 0.03356892
v -0.02987921 2.560144 0.03356892
v 0.01523527 2.576515 0.01356128
v 0.01523527 2.576515 -0.01356044
v -0.01356086 2.576515 -0.01523485
v 0.01356086 2.576515 -0.01523485
v -0.01523527 2.576515 0.01356128
v -0.01523527 2.576515 -0.01356044
v 0.01356086 2.576515 0.01523569
v -0.01356086 2.576515 0.01523569
v 0.07085068 0.2623587 0.07085072
v -0.07085068 0.2623587 0.07085072
v -0.07085068 0.2623587 0.07085072
v 0.07085068 0.2623587 0.07085072
v 0.07085068 0.2623587 -0.07085063
v -0.07085068 0.2623587 -0.07085063
v 0.1103955 0.2623587 0.1103955
v 0.1103955 0.03964192 0.1103955
v -0.1103955 0.2623588 -0.1103955
v 0.1103955 0.03964196 -0.1103955
v -0.1103955 0.03964192 0.1103955
v -0.1103955 0.03964196 -0.1103955
v -0.1103955 0.2623587 0.1103955
v 0.1103955 0.2623588 -0.1103955
v -0.1103955 0.03964196 -0.1103955
v -0.1103955 0.03964192 0.1103955
v 0.1103955 0.03964192 0.1103955
v 0.1103955 0.03964196 -0.1103955
v -0.1467154 0.03964192 0.1467154
v -0.1467154 2.390297E-08 -0.1467154
v -0.1467154 2.390297E-08 -0.1467154
v 0.1467154 2.390297E-08 -0.1467154
v 0.1467154 0.03964196 -0.1467154
v 0.1467154 2.390297E-08 -0.1467154
v 0.1467154 -2.390297E-08 0.1467154
v -0.1467154 -2.390297E-08 0.1467154
v 0.1467154 0.03964192 0.1467154
v -0.1467154 0.03964196 -0.1467154
v -0.1467154 -2.390297E-08 0.1467154
v 0.1467154 -2.390297E-08 0.1467154
v -0.07085068 0.2623587 -0.07085063
v 0.07085068 0.2623587 -0.07085063
v 0.07085068 1.273465 -0.07085047
v -0.07085068 1.273465 -0.07085047
v -0.07085068 1.273465 0.07085089
v 0.07085068 1.273465 0.07085089
v 0.08739677 1.273465 0.08739698
v 0.07085068 1.240291 0.07085088
v -0.07085068 1.240291 0.07085088
v 0.07085068 1.273465 -0.07085047
v -0.07085068 1.240291 -0.07085048
v 0.07085068 1.240291 -0.07085048
v 0.07085068 1.273465 0.07085089
v -0.07085068 1.273465 0.07085089
v 0.08739677 1.273465 0.08739698
v 0.08739677 1.273465 -0.08739656
v 0.08739677 1.240291 -0.08739657
v 0.08739677 1.273465 -0.08739656
v -0.08739677 1.273465 -0.08739656
v -0.08739677 1.273465 0.08739698
v -0.08739677 1.240291 0.08739697
v -0.07085068 1.273465 -0.07085047
v -0.08739677 1.273465 0.08739698
v -0.08739677 1.273465 -0.08739656
v 0.08739677 1.240291 0.08739697
v -0.08739677 1.240291 -0.08739657
v -0.04038617 1.578692 0.04038643
v -0.07085068 1.578692 0.07085094
v -0.07085068 1.578692 -0.07085042
v 0.04038617 1.578692 0.04038643
v 0.07085068 1.578692 -0.07085042
v 0.07085068 1.578692 0.07085094
v -0.04038617 1.578692 -0.04038592
v 0.04038617 1.578692 -0.04038592
v 0.04038617 2.290566 -0.0403858
v 0.04038617 1.578692 -0.04038592
v 0.04038617 1.578692 0.04038643
v 0.04038617 2.290566 0.04038655
v -0.04038617 1.578692 0.04038643
v -0.04038617 1.578692 -0.04038592
v -0.04038617 2.290566 -0.0403858
v -0.07261811 2.236902 0.07261848
v -0.07261811 2.236902 -0.07261775
v 0.07261811 2.236902 -0.07261775
v 0.1382915 2.528201 0.1230932
v 0.1230928 2.528201 0.1382919
v 0.1089425 2.515898 0.08307584
v -0.1230928 2.528201 0.1382919
v -0.1382915 2.528201 0.1230932
v 0.1230928 2.528201 -0.1382911
v 0.1382915 2.528201 -0.1230924
v -0.1382915 2.528201 -0.1230924
v -0.1230928 2.528201 -0.1382911
v -0.1230928 2.528201 0.1382919
v 0.1230928 2.528201 -0.1382911
v 0.1382915 2.528201 -0.1230924
v -0.1382915 2.538885 0.1230932
v -0.1072312 2.551777 -0.09544572
v -0.1382915 2.538885 -0.1230924
v -0.1382915 2.528201 0.1230932
v -0.09544614 2.551777 -0.1072308
v -0.1230928 2.538885 -0.1382911
v 0.09544614 2.551777 0.1072316
v 0.1382915 2.538885 0.1230932
v -0.1089425 2.256693 -0.09696898
v -0.09696934 2.256693 -0.1089421
v -0.09696934 2.256693 0.1089429
v -0.1089425 2.256693 0.09696971
v 0.09696934 2.256693 -0.1089421
v 0.1089425 2.256693 -0.09696898
v 0.1089425 2.256693 0.09696971
v 0.09696934 2.256693 0.1089429
v -0.09696934 2.528201 0.1089429
v -0.09696934 2.256693 0.1089429
v -0.1089425 2.256693 0.09696971
v -0.09696934 2.256693 -0.1089421
v -0.09696934 2.528201 -0.1089421
v 0.1089425 2.256693 -0.09696898
v 0.1089425 2.528201 -0.09696893
v 0.09696934 2.528201 -0.1089421
v 0.09696934 2.256693 0.1089429
v 0.09696934 2.528201 0.1089429
v -0.08307543 2.515898 0.1089429
v -0.09696934 2.256693 0.1089429
v -0.1089425 2.528201 0.09696975
v -0.09696934 2.528201 -0.1089421
v -0.1089425 2.256693 -0.09696898
v 0.1089425 2.515898 -0.08307502
v 0.1089425 2.528201 -0.09696893
v 0.08307543 2.515898 -0.1089421
v 0.08307543 2.268996 -0.1089421
v 0.09696934 2.256693 -0.1089421
v 0.08307543 2.515898 0.1089429
v 0.09696934 2.528201 0.1089429
v 0.1089425 2.515898 0.08307584
v 0.1089425 2.268996 0.08307581
v 0.1089425 2.256693 0.09696971
v 0.09696934 2.256693 0.1089429
v -0.09696934 2.528201 0.1089429
v -0.1089425 2.256693 0.09696971
v -0.1089425 2.528201 -0.09696893
v -0.09696934 2.256693 -0.1089421
v 0.09696934 2.528201 -0.1089421
v 0.1089425 2.528201 0.09696975
v 0.1089425 2.256693 -0.09696898
v 0.09708587 2.515898 -0.08307502
v -0.1089425 2.268996 -0.08307506
v -0.1089425 2.515898 -0.08307502
v -0.1089425 2.515898 0.08307584
v -0.1089425 2.268996 0.08307581
v -0.09708587 2.268996 0.08307581
v -0.1089425 2.268996 0.08307581
v -0.1089425 2.268996 -0.08307506
v -0.09708587 2.268996 -0.08307506
v 0.1089425 2.268996 -0.08307506
v 0.1089425 2.268996 0.08307581
v 0.09708587 2.268996 0.08307581
v 0.1089425 2.515898 -0.08307502
v 0.1089425 2.268996 -0.08307506
v 0.09708587 2.268996 -0.08307506
v -0.1089425 2.515898 -0.08307502
v -0.1089425 2.515898 0.08307584
v -0.09708587 2.515898 0.08307584
v 0.08307543 2.515898 0.09577555
v -0.08307543 2.268996 -0.1089421
v 0.08307543 2.268996 -0.1089421
v 0.08307543 2.268996 -0.09577477
v 0.08307543 2.268996 0.1089429
v -0.08307543 2.268996 0.1089429
v -0.08307543 2.268996 0.09577551
v 0.08307543 2.515898 0.1089429
v 0.08307543 2.268996 0.1089429
v 0.08307543 2.268996 0.09577551
v 0.08307543 2.515898 -0.1089421
v -0.08307543 2.515898 -0.1089421
v -0.08307543 2.515898 -0.09577473
v -0.08307543 2.515898 -0.1089421
v -0.08307543 2.268996 -0.1089421
v -0.08307543 2.268996 -0.09577477
v -0.08307543 2.268996 0.1089429
v -0.08307543 2.515898 0.1089429
v -0.09544614 2.551777 0.1072316
v 0.09544614 2.551777 0.1072316
v 0.1230928 2.538885 0.1382919
v -0.1072312 2.551777 0.09544656
v -0.09544614 2.551777 0.1072316
v -0.1230928 2.538885 0.1382919
v -0.1089425 2.528201 -0.09696893
v -0.1230928 2.528201 -0.1382911
v 0.1089425 2.528201 0.09696975
v 0.1382915 2.528201 0.1230932
v -0.1382915 2.528201 -0.1230924
v 0.1072312 2.551777 0.09544656
v 0.1382915 2.538885 -0.1230924
v 0.1072312 2.551777 -0.09544572
v 0.09544614 2.551777 -0.1072308
v 0.1230928 2.538885 -0.1382911
v 0.1230928 2.528201 0.1382919
v -0.1072312 2.551777 0.09544656
v -0.1072312 2.551777 -0.09544572
v -0.0335685 2.560144 -0.02987879
v -0.1072312 2.551777 -0.09544572
v -0.09544614 2.551777 -0.1072308
v -0.02987921 2.560144 -0.03356808
v 0.09544614 2.551777 -0.1072308
v 0.1072312 2.551777 -0.09544572
v -0.09544614 2.551777 0.1072316
v -0.1072312 2.551777 0.09544656
v -0.09544614 2.551777 -0.1072308
v 0.09544614 2.551777 -0.1072308
v 0.1072312 2.551777 -0.09544572
v 0.1072312 2.551777 0.09544656
v 0.1072312 2.551777 0.09544656
v 0.09544614 2.551777 0.1072316
v -0.01356086 2.576515 -0.01523485
v 0.02987921 2.560144 -0.03356808
v 0.0335685 2.560144 -0.02987879
v -0.0335685 2.560144 0.02987962
v -0.0335685 2.560144 -0.02987879
v -0.01523527 2.576515 -0.01356044
v 0.0335685 2.560144 -0.02987879
v 0.0335685 2.560144 0.02987962
v -0.02987921 2.560144 0.03356892
v -0.0335685 2.560144 0.02987962
v 0.0335685 2.560144 0.02987962
v 0.02987921 2.560144 0.03356892
v 0.02987921 2.560144 0.03356892
v -0.02987921 2.560144 0.03356892
v -0.02987921 2.560144 -0.03356808
v 0.02987921 2.560144 -0.03356808
v 0.01356086 2.576515 -0.01523485
v -0.07085068 1.240291 0.07085088
v 0.07085068 1.240291 0.07085088
v -0.08739677 1.240291 0.08739697
v -0.07085068 1.240291 -0.07085048
v 0.04038617 2.290566 0.04038655
v -0.1103955 0.2623587 0.1103955
v 0.1103955 0.2623587 0.1103955
v 0.1103955 0.2623588 -0.1103955
v -0.1103955 0.2623588 -0.1103955
v -0.1467154 0.03964196 -0.1467154
v 0.1467154 0.03964196 -0.1467154
v 0.1467154 0.03964192 0.1467154
v -0.1467154 0.03964192 0.1467154
v 0.07085068 1.240291 -0.07085048
v 0.07085068 1.578692 0.07085094
v 0.07085068 1.578692 -0.07085042
v -0.07085068 1.578692 -0.07085042
v -0.07085068 1.578692 0.07085094
v 0.08739677 1.240291 0.08739697
v 0.08739677 1.240291 -0.08739657
v -0.08739677 1.240291 -0.08739657
v -0.04038617 2.290566 0.04038655
v -0.04038617 2.290566 -0.0403858
v 0.04038617 2.290566 -0.0403858
v -0.04038617 2.290566 0.04038655
v -0.1382915 2.538885 0.1230932
v 0.1230928 2.538885 0.1382919
v -0.1008021 2.252258 -0.1008017
v -0.07261811 2.236902 -0.07261775
v -0.07261811 2.236902 0.07261848
v -0.1089425 2.256693 0.09696971
v -0.1008021 2.252258 0.1008025
v 0.09708587 2.515898 0.08307584
v 0.07261811 2.236902 0.07261848
v 0.1382915 2.538885 -0.1230924
v 0.1008021 2.252258 -0.1008017
v 0.07261811 2.236902 -0.07261775
v -0.1008021 2.252258 -0.1008017
v -0.1008021 2.252258 0.1008025
v -0.07261811 2.236902 0.07261848
v 0.1008021 2.252258 0.1008025
v 0.1008021 2.252258 0.1008025
v 0.07261811 2.236902 0.07261848
v 0.07261811 2.236902 -0.07261775
v 0.1089425 2.256693 -0.09696898
v 0.1008021 2.252258 -0.1008017
v -0.1230928 2.538885 -0.1382911
v 0.1382915 2.538885 0.1230932
v 0.09708587 2.268996 0.08307581
v 0.08307543 2.268996 -0.09577477
v -0.1230928 2.538885 0.1382919
v 0.1230928 2.538885 -0.1382911
v -0.1382915 2.538885 -0.1230924
v -0.1382915 2.538885 -0.1230924
v -0.1230928 2.538885 -0.1382911
v 0.1230928 2.538885 -0.1382911
v 0.02987921 2.560144 0.03356892
v 0.1230928 2.538885 0.1382919
v -0.1089425 2.528201 0.09696975
v -0.1089425 2.256693 -0.09696898
v 0.09696934 2.256693 -0.1089421
v 0.1089425 2.256693 0.09696971
v -0.08307543 2.515898 0.09577555
v -0.09708587 2.515898 -0.08307502
v 0.09708587 2.515898 0.08307584
v -0.09708587 2.268996 -0.08307506
v -0.09708587 2.515898 0.08307584
v -0.09708587 2.268996 0.08307581
v 0.09708587 2.268996 -0.08307506
v 0.09708587 2.515898 -0.08307502
v -0.09708587 2.515898 -0.08307502
v 0.08307543 2.515898 -0.09577473
v -0.08307543 2.515898 0.09577555
v -0.08307543 2.268996 -0.09577477
v 0.08307543 2.268996 0.09577551
v 0.08307543 2.515898 0.09577555
v 0.08307543 2.515898 -0.09577473
v -0.08307543 2.515898 -0.09577473
v -0.08307543 2.268996 0.09577551
v -0.1230928 2.538885 0.1382919
v -0.1382915 2.538885 0.1230932
v 0.1382915 2.538885 0.1230932
v 0.1382915 2.538885 -0.1230924
v -0.01523527 2.576515 -0.01356044
v -0.0335685 2.560144 0.02987962
v -0.0335685 2.560144 -0.02987879
v 0.02987921 2.560144 -0.03356808
v -0.02987921 2.560144 0.03356892
v -0.02987921 2.560144 -0.03356808
v 0.0335685 2.560144 -0.02987879
v 0.0335685 2.560144 0.02987962
v 0.01523527 2.576515 0.01356128
v -0.01523527 2.576515 0.01356128
v -0.01356086 2.576515 0.01523569
v 0.01356086 2.576515 0.01523569
v 0.01523527 2.576515 -0.01356044
v 0.01356086 2.576515 -0.01523485
v -0.01523527 2.576515 0.01356128
v 0.01523527 2.576515 -0.01356044
v -0.01356086 2.576515 0.01523569
v 0.01523527 2.576515 0.01356128
v 0.01356086 2.576515 0.01523569
v -0.01356086 2.576515 -0.01523485
vt 0.2125244 0.02642822
vt 0.2668457 0.04098511
vt 0.2125244 0.02642822
vt 0.2668457 0.04098511
vt 0.2137451 0.02642822
vt 0.2675781 0.04098511
vt 0.2137451 0.02642822
vt 0.2675781 0.04098511
vt 0.2666016 0.02883911
vt 0.2666016 0.02883911
vt 0.2678223 0.02883911
vt 0.2678223 0.02883911
vt 0.2121582 0.02642822
vt 0.2121582 0.02642822
vt 0.2121582 0.02883911
vt 0.2141113 0.02642822
vt 0.2141113 0.02883911
vt 0.2141113 0.02642822
vt 0.2141113 0.02883911
vt 0.2121582 0.02883911
vt 0.2121582 0.02679443
vt 0.2141113 0.02679443
vt 0.2141113 0.02679443
vt 0.2121582 0.02679443
vt 0.211792 0.02642822
vt 0.211792 0.02642822
vt 0.211792 0.02679443
vt 0.2144775 0.02642822
vt 0.2144775 0.02679443
vt 0.2144775 0.02642822
vt 0.2144775 0.02679443
vt 0.211792 0.02679443
vt 0.2122803 0.03787231
vt 0.2122803 0.03817749
vt 0.2138672 0.03817749
vt 0.2138672 0.03787231
vt 0.2666016 0.03817749
vt 0.2666016 0.03787231
vt 0.2666016 0.03787231
vt 0.2666016 0.03817749
vt 0.2678223 0.03787231
vt 0.2678223 0.03817749
vt 0.2678223 0.03787231
vt 0.2678223 0.03817749
vt 0.2138672 0.03787231
vt 0.2138672 0.03817749
vt 0.2122803 0.03787231
vt 0.2122803 0.03817749
vt 0.2666016 0.04098511
vt 0.2666016 0.04098511
vt 0.2678223 0.04098511
vt 0.2678223 0.04098511
vt 0.2668457 0.04754639
vt 0.2668457 0.04754639
vt 0.2675781 0.04754639
vt 0.2675781 0.04754639
vt 0.2734375 0.01820374
vt 0.2734375 0.01820374
vt 0.2880859 0.01820374
vt 0.2880859 0.01820374
vt 0.2332764 0.04885864
vt 0.2332764 0.04779053
vt 0.2332764 0.04779053
vt 0.2332764 0.04885864
vt 0.2067871 0.04885864
vt 0.2067871 0.04779053
vt 0.2318115 0.04779053
vt 0.2318115 0.04885864
vt 0.2290039 0.0501709
vt 0.2301025 0.0501709
vt 0.2301025 0.0501709
vt 0.2290039 0.0501709
vt 0.2697754 0.04653931
vt 0.2724609 0.04653931
vt 0.208374 0.0501709
vt 0.2724609 0.04653931
vt 0.2697754 0.04653931
vt 0.2095947 0.0501709
vt 0.2893066 0.04653931
vt 0.291748 0.04653931
vt 0.2095947 0.0501709
vt 0.291748 0.04653931
vt 0.2893066 0.04653931
vt 0.208374 0.0501709
vt 0.2697754 0.02145386
vt 0.2724609 0.02145386
vt 0.2705078 0.01976013
vt 0.2724609 0.02145386
vt 0.2697754 0.02145386
vt 0.2705078 0.01976013
vt 0.2893066 0.02145386
vt 0.291748 0.02145386
vt 0.2910156 0.01976013
vt 0.291748 0.02145386
vt 0.2893066 0.02145386
vt 0.2910156 0.01976013
vt 0.2709961 0.0202179
vt 0.2094727 0.04779053
vt 0.208252 0.04779053
vt 0.2697754 0.0202179
vt 0.2094727 0.04779053
vt 0.2709961 0.0202179
vt 0.2697754 0.0202179
vt 0.2697754 0.04779053
vt 0.2303467 0.04779053
vt 0.291748 0.0202179
vt 0.2905273 0.0202179
vt 0.229126 0.04779053
vt 0.229126 0.04779053
vt 0.2905273 0.0202179
vt 0.291748 0.0202179
vt 0.291748 0.04779053
vt 0.8442383 0.2409668
vt 0.8442383 0.2158203
vt 0.8442383 0.2158203
vt 0.2709961 0.04653931
vt 0.2905273 0.04653931
vt 0.8637695 0.2158203
vt 0.8637695 0.2158203
vt 0.2905273 0.04653931
vt 0.8457031 0.2158203
vt 0.2724609 0.04653931
vt 0.8457031 0.2409668
vt 0.8457031 0.2158203
vt 0.862793 0.2158203
vt 0.2893066 0.04653931
vt 0.2893066 0.04653931
vt 0.862793 0.2158203
vt 0.2067871 0.04885864
vt 0.2067871 0.04779053
vt 0.2052002 0.04779053
vt 0.2318115 0.04779053
vt 0.2318115 0.04885864
vt 0.2052002 0.04885864
vt 0.2052002 0.04779053
vt 0.2052002 0.04885864
vt 0.2226563 0.05102539
vt 0.2226563 0.05102539
vt 0.2161865 0.05102539
vt 0.22229 0.05102539
vt 0.2158203 0.05102539
vt 0.2158203 0.05102539
vt 0.22229 0.05102539
vt 0.2161865 0.05102539
vt 0.2208252 0.05270386
vt 0.2208252 0.05270386
vt 0.2178955 0.05270386
vt 0.2207031 0.05270386
vt 0.2177734 0.05270386
vt 0.2177734 0.05270386
vt 0.2207031 0.05270386
vt 0.2178955 0.05270386
vt 0.2678223 0.02883911
vt 0.2666016 0.02883911
vt 0.2125244 0.02883911
vt 0.2137451 0.02883911
vt 0.2137451 0.02883911
vt 0.2125244 0.02883911
vt 0.2141113 0.02883911
vt 0.2141113 0.02679443
vt 0.2121582 0.02883911
vt 0.2141113 0.02679443
vt 0.2121582 0.02679443
vt 0.2121582 0.02679443
vt 0.2121582 0.02883911
vt 0.2141113 0.02883911
vt 0.2121582 0.02679443
vt 0.2121582 0.02679443
vt 0.2141113 0.02679443
vt 0.2141113 0.02679443
vt 0.211792 0.02679443
vt 0.211792 0.02642822
vt 0.211792 0.02642822
vt 0.2144775 0.02642822
vt 0.2144775 0.02679443
vt 0.2144775 0.02642822
vt 0.2144775 0.02642822
vt 0.211792 0.02642822
vt 0.2144775 0.02679443
vt 0.211792 0.02679443
vt 0.211792 0.02642822
vt 0.2144775 0.02642822
vt 0.2666016 0.02883911
vt 0.2678223 0.02883911
vt 0.2678223 0.03817749
vt 0.2666016 0.03817749
vt 0.2125244 0.03817749
vt 0.2137451 0.03817749
vt 0.2138672 0.03817749
vt 0.2137451 0.03787231
vt 0.2125244 0.03787231
vt 0.2137451 0.03817749
vt 0.2125244 0.03787231
vt 0.2137451 0.03787231
vt 0.2678223 0.03817749
vt 0.2666016 0.03817749
vt 0.2138672 0.03817749
vt 0.2138672 0.03817749
vt 0.2138672 0.03787231
vt 0.2138672 0.03817749
vt 0.2122803 0.03817749
vt 0.2122803 0.03817749
vt 0.2122803 0.03787231
vt 0.2125244 0.03817749
vt 0.2122803 0.03817749
vt 0.2122803 0.03817749
vt 0.2138672 0.03787231
vt 0.2122803 0.03787231
vt 0.2668457 0.04098511
vt 0.2666016 0.04098511
vt 0.2666016 0.04098511
vt 0.2675781 0.04098511
vt 0.2678223 0.04098511
vt 0.2678223 0.04098511
vt 0.2668457 0.04098511
vt 0.2675781 0.04098511
vt 0.2675781 0.04754639
vt 0.2675781 0.04098511
vt 0.2675781 0.04098511
vt 0.2675781 0.04754639
vt 0.2668457 0.04098511
vt 0.2668457 0.04098511
vt 0.2668457 0.04754639
vt 0.2734375 0.01820374
vt 0.2734375 0.01820374
vt 0.2880859 0.01820374
vt 0.2332764 0.04779053
vt 0.2318115 0.04779053
vt 0.291748 0.04653931
vt 0.2067871 0.04779053
vt 0.2052002 0.04779053
vt 0.2318115 0.04779053
vt 0.2332764 0.04779053
vt 0.2052002 0.04779053
vt 0.2067871 0.04779053
vt 0.2067871 0.04779053
vt 0.2318115 0.04779053
vt 0.2332764 0.04779053
vt 0.2052002 0.04885864
vt 0.208374 0.0501709
vt 0.2052002 0.04885864
vt 0.2052002 0.04779053
vt 0.2095947 0.0501709
vt 0.2067871 0.04885864
vt 0.2290039 0.0501709
vt 0.2332764 0.04885864
vt 0.2697754 0.0202179
vt 0.2709961 0.0202179
vt 0.2709961 0.0202179
vt 0.2697754 0.0202179
vt 0.2905273 0.0202179
vt 0.291748 0.0202179
vt 0.291748 0.0202179
vt 0.2905273 0.0202179
vt 0.2709961 0.04779053
vt 0.2709961 0.0202179
vt 0.2697754 0.0202179
vt 0.2709961 0.0202179
vt 0.2709961 0.04779053
vt 0.291748 0.0202179
vt 0.291748 0.04779053
vt 0.2905273 0.04779053
vt 0.2905273 0.0202179
vt 0.2905273 0.04779053
vt 0.2724609 0.04653931
vt 0.2709961 0.0202179
vt 0.2697754 0.04779053
vt 0.2709961 0.04779053
vt 0.2697754 0.0202179
vt 0.291748 0.04653931
vt 0.291748 0.04779053
vt 0.2893066 0.04653931
vt 0.2893066 0.02145386
vt 0.2905273 0.0202179
vt 0.2893066 0.04653931
vt 0.2905273 0.04779053
vt 0.291748 0.04653931
vt 0.291748 0.02145386
vt 0.291748 0.0202179
vt 0.2905273 0.0202179
vt 0.2709961 0.04779053
vt 0.2697754 0.0202179
vt 0.2697754 0.04779053
vt 0.2709961 0.0202179
vt 0.2905273 0.04779053
vt 0.291748 0.04779053
vt 0.291748 0.0202179
vt 0.8637695 0.2409668
vt 0.2697754 0.02145386
vt 0.2697754 0.04653931
vt 0.2697754 0.04653931
vt 0.2697754 0.02145386
vt 0.2709961 0.02145386
vt 0.2697754 0.02145386
vt 0.2697754 0.02145386
vt 0.2709961 0.02145386
vt 0.291748 0.02145386
vt 0.291748 0.02145386
vt 0.2905273 0.02145386
vt 0.291748 0.04653931
vt 0.291748 0.02145386
vt 0.2905273 0.02145386
vt 0.2697754 0.04653931
vt 0.2697754 0.04653931
vt 0.2709961 0.04653931
vt 0.862793 0.2409668
vt 0.2724609 0.02145386
vt 0.2893066 0.02145386
vt 0.2893066 0.02145386
vt 0.2893066 0.02145386
vt 0.2724609 0.02145386
vt 0.2724609 0.02145386
vt 0.2893066 0.04653931
vt 0.2893066 0.02145386
vt 0.2893066 0.02145386
vt 0.2893066 0.04653931
vt 0.2724609 0.04653931
vt 0.2724609 0.04653931
vt 0.2724609 0.04653931
vt 0.2724609 0.02145386
vt 0.2724609 0.02145386
vt 0.2724609 0.02145386
vt 0.2724609 0.04653931
vt 0.2095947 0.0501709
vt 0.2290039 0.0501709
vt 0.2318115 0.04885864
vt 0.208374 0.0501709
vt 0.2095947 0.0501709
vt 0.2067871 0.04885864
vt 0.208252 0.04779053
vt 0.2067871 0.04779053
vt 0.2303467 0.04779053
vt 0.2332764 0.04779053
vt 0.2052002 0.04779053
vt 0.2301025 0.0501709
vt 0.2332764 0.04885864
vt 0.2301025 0.0501709
vt 0.2290039 0.0501709
vt 0.2318115 0.04885864
vt 0.2318115 0.04779053
vt 0.208374 0.0501709
vt 0.208374 0.0501709
vt 0.2158203 0.05102539
vt 0.208374 0.0501709
vt 0.2095947 0.0501709
vt 0.2161865 0.05102539
vt 0.2290039 0.0501709
vt 0.2301025 0.0501709
vt 0.2095947 0.0501709
vt 0.208374 0.0501709
vt 0.2095947 0.0501709
vt 0.2290039 0.0501709
vt 0.2301025 0.0501709
vt 0.2301025 0.0501709
vt 0.2301025 0.0501709
vt 0.2290039 0.0501709
vt 0.2178955 0.05270386
vt 0.22229 0.05102539
vt 0.2226563 0.05102539
vt 0.2158203 0.05102539
vt 0.2158203 0.05102539
vt 0.2177734 0.05270386
vt 0.2226563 0.05102539
vt 0.2226563 0.05102539
vt 0.2161865 0.05102539
vt 0.2158203 0.05102539
vt 0.2226563 0.05102539
vt 0.22229 0.05102539
vt 0.22229 0.05102539
vt 0.2161865 0.05102539
vt 0.2161865 0.05102539
vt 0.22229 0.05102539
vt 0.2207031 0.05270386
vt 0.2666016 0.03787231
vt 0.2678223 0.03787231
vt 0.2122803 0.03787231
vt 0.2666016 0.03787231
vt 0.2675781 0.04754639
vt 0.2121582 0.02883911
vt 0.2141113 0.02883911
vt 0.2141113 0.02883911
vt 0.2121582 0.02883911
vt 0.211792 0.02679443
vt 0.2144775 0.02679443
vt 0.2144775 0.02679443
vt 0.211792 0.02679443
vt 0.2678223 0.03787231
vt 0.2678223 0.04098511
vt 0.2678223 0.04098511
vt 0.2666016 0.04098511
vt 0.2666016 0.04098511
vt 0.2138672 0.03787231
vt 0.2138672 0.03787231
vt 0.2122803 0.03787231
vt 0.2668457 0.04754639
vt 0.2668457 0.04754639
vt 0.2675781 0.04754639
vt 0.2668457 0.04754639
vt 0.2052002 0.04885864
vt 0.2318115 0.04885864
vt 0.2705078 0.01976013
vt 0.2734375 0.01820374
vt 0.2734375 0.01820374
vt 0.2697754 0.0202179
vt 0.2705078 0.01976013
vt 0.2905273 0.04653931
vt 0.2880859 0.01820374
vt 0.2332764 0.04885864
vt 0.2910156 0.01976013
vt 0.2880859 0.01820374
vt 0.2705078 0.01976013
vt 0.2705078 0.01976013
vt 0.2734375 0.01820374
vt 0.2910156 0.01976013
vt 0.2910156 0.01976013
vt 0.2880859 0.01820374
vt 0.2880859 0.01820374
vt 0.291748 0.0202179
vt 0.2910156 0.01976013
vt 0.2067871 0.04885864
vt 0.2332764 0.04885864
vt 0.2905273 0.02145386
vt 0.2893066 0.02145386
vt 0.2067871 0.04885864
vt 0.2318115 0.04885864
vt 0.2052002 0.04885864
vt 0.2052002 0.04885864
vt 0.2067871 0.04885864
vt 0.2318115 0.04885864
vt 0.22229 0.05102539
vt 0.2318115 0.04885864
vt 0.2697754 0.04779053
vt 0.2697754 0.0202179
vt 0.2905273 0.0202179
vt 0.291748 0.0202179
vt 0.2724609 0.04653931
vt 0.8442383 0.2409668
vt 0.8637695 0.2409668
vt 0.2709961 0.02145386
vt 0.2709961 0.04653931
vt 0.2709961 0.02145386
vt 0.2905273 0.02145386
vt 0.2905273 0.04653931
vt 0.2709961 0.04653931
vt 0.862793 0.2409668
vt 0.8457031 0.2409668
vt 0.2724609 0.02145386
vt 0.2893066 0.02145386
vt 0.2893066 0.04653931
vt 0.2893066 0.04653931
vt 0.2724609 0.04653931
vt 0.2724609 0.02145386
vt 0.2067871 0.04885864
vt 0.2052002 0.04885864
vt 0.2332764 0.04885864
vt 0.2332764 0.04885864
vt 0.2177734 0.05270386
vt 0.2158203 0.05102539
vt 0.2158203 0.05102539
vt 0.22229 0.05102539
vt 0.2161865 0.05102539
vt 0.2161865 0.05102539
vt 0.2226563 0.05102539
vt 0.2226563 0.05102539
vt 0.2208252 0.05270386
vt 0.2177734 0.05270386
vt 0.2178955 0.05270386
vt 0.2207031 0.05270386
vt 0.2208252 0.05270386
vt 0.2207031 0.05270386
vt 0.2177734 0.05270386
vt 0.2208252 0.05270386
vt 0.2178955 0.05270386
vt 0.2208252 0.05270386
vt 0.2207031 0.05270386
vt 0.2178955 0.05270386
vn 0 -1 0
vn 0 0 1
vn 0 -1 0
vn 0 1 0
vn 0 -1 0
vn 0 0 1
vn 0 -1 0
vn 0 1 0
vn 0 0 1
vn -1 0 0
vn 1 0 0
vn 0 0 1
vn 0 -1 0
vn 0 -1 0
vn 0 1 0
vn 0 -1 0
vn 1 0 0
vn 0 -1 0
vn 0 1 0
vn -1 0 0
vn 0 0 -1
vn 1 0 0
vn 0 0 1
vn 0 0 1
vn 0 -1 0
vn -1 0 0
vn 0 0 -1
vn 0 -1 0
vn 0 1 0
vn 1 0 0
vn 0 0 1
vn 0 1 0
vn 0 -1 0
vn 0 0 1
vn 0 0 1
vn 0 0 1
vn -1 0 0
vn -1 0 0
vn 0 0 -1
vn 0 0 -1
vn 1 0 0
vn 1 0 0
vn 0 0 1
vn 1 0 0
vn 0 -1 0
vn 0 1 0
vn 0 0 -1
vn 0 0 -1
vn -1 0 0
vn 0 0 -1
vn 1 0 0
vn 0 0 1
vn 0 0 1
vn 0 1 0
vn 0 1 0
vn 0 1 0
vn -0.4785156 -0.8779297 0
vn 0 -1 0
vn 0 -0.8779297 0.4785156
vn 0 -1 0
vn 0.7070313 0 -0.7070313
vn 1 0 0
vn 1 0 0
vn 1 0 0
vn -0.7070313 0 -0.7070313
vn 0 0 -1
vn 0 0 -1
vn 0 0 -1
vn 0 0.9238281 -0.3833008
vn 0.3833008 0.9238281 0
vn 0.2097168 0.9550781 0.2097168
vn 0 0.9936523 0.112854
vn -1 0 0
vn 0 -1 0
vn -0.3833008 0.9238281 0
vn 0 0 -1
vn -1 0 0
vn -0.2097168 0.9550781 -0.2097168
vn 0 -1 0
vn 0 -1 0
vn 0 0.9936523 0.112854
vn 0 -1 0
vn -1 0 0
vn -0.3833008 0.9238281 0
vn -1 0 0
vn 0 0 -1
vn -0.5830078 -0.565918 -0.5830078
vn 0 0 1
vn -1 0 0
vn -0.5830078 -0.565918 0.5830078
vn -1 0 0
vn 1 0 0
vn 0.5830078 -0.565918 -0.5830078
vn 0 0 -1
vn 0 0 1
vn 0.5830078 -0.565918 0.5830078
vn 0 -0.8779297 0.4785156
vn 0 -1 0
vn 0 -1 0
vn -0.4785156 -0.8779297 -1.049042E-05
vn 0 -1 0
vn 0 -0.8779297 -0.4785156
vn -0.4785156 -0.8779297 1.055002E-05
vn -0.7070313 0 -0.7070313
vn 0 -1 0
vn 0.4785156 -0.8779297 1.049042E-05
vn 0 -0.8779297 -0.4785156
vn 0 -1 0
vn 0 -1 0
vn 0 -0.8779297 0.4785156
vn 0.4785156 -0.8779297 -1.055002E-05
vn 0.7070313 0 0.7070313
vn -1 0 0
vn -1 0 0
vn -1 0 0
vn 0 0 1
vn 0 -1 0
vn 1 0 0
vn 1 0 0
vn 0 0 -1
vn 0 0 1
vn 1 0 0
vn 0 0 -1
vn 0 0 -1
vn 0 0 -1
vn -1 0 0
vn 0 -1 0
vn 0 0 1
vn 0 0 1
vn 0 0 1
vn -1 0 0
vn 0 0 1
vn 0.7070313 0 0.7070313
vn -1 0 0
vn -1 0 0
vn -0.7070313 0 0.7070313
vn 0.112854 0.9936523 0
vn 0.05981445 0.996582 -0.05987549
vn -0.3928223 0.831543 -0.3928223
vn 0 0.9936523 -0.112854
vn -0.05981445 0.996582 0.05987549
vn -0.3928223 0.831543 -0.3928223
vn 0.05987549 0.996582 0.05987549
vn 0 0.9936523 0.112854
vn 0.6660156 0.7460938 0
vn 0.3928223 0.831543 -0.3928223
vn -0.3928223 0.831543 -0.3928223
vn 0 1 0
vn -0.3928223 0.831543 0.3928223
vn 0 1 0
vn 0.3928223 0.831543 0.3928223
vn 0 0.7460938 0.6660156
vn 1 0 0
vn -1 0 0
vn 0 1 0
vn 0 1 0
vn 0 1 0
vn 0 1 0
vn 0 0 1
vn 1 0 0
vn 0 0 -1
vn 0 0 -1
vn -1 0 0
vn -1 0 0
vn 0 1 0
vn 0 1 0
vn 0 1 0
vn 0 1 0
vn 0 1 0
vn 0 1 0
vn -1 0 0
vn -1 0 0
vn 0 0 -1
vn 0 0 -1
vn 1 0 0
vn 1 0 0
vn 0 0 1
vn 0 0 1
vn 0 1 0
vn 0 1 0
vn 0 -1 0
vn 0 -1 0
vn 0 0 -1
vn 0 0 -1
vn 0 0 -1
vn -1 0 0
vn 0 1 0
vn 0 1 0
vn 0 1 0
vn 0 -1 0
vn 0 -1 0
vn 0 1 0
vn 0 -1 0
vn 0 -1 0
vn 0 0 1
vn 0 0 1
vn 1 0 0
vn 1 0 0
vn 1 0 0
vn 0 0 -1
vn -1 0 0
vn -1 0 0
vn -1 0 0
vn 0 1 0
vn 0 1 0
vn 0 1 0
vn 0 -1 0
vn 0 -1 0
vn 0 1 0
vn 0 1 0
vn 0 1 0
vn 0 1 0
vn 0 1 0
vn 0 1 0
vn 0 0 -1
vn 0 0 -1
vn 0 0 -1
vn 1 0 0
vn 1 0 0
vn 1 0 0
vn -1 0 0
vn -1 0 0
vn -1 0 0
vn 0 -1 0
vn 0 -0.8779297 -0.4785156
vn 0.4785156 -0.8779297 0
vn 0.7070313 0 0.7070313
vn 0.7070313 0 0.7070313
vn 0 0 -1
vn -0.7070313 0 0.7070313
vn -0.7070313 0 0.7070313
vn 0.7070313 0 -0.7070313
vn 0.7070313 0 -0.7070313
vn -0.7070313 0 -0.7070313
vn -0.7070313 0 -0.7070313
vn 0 -1 0
vn 0 -1 0
vn 0 -1 0
vn -0.3833008 0.9238281 0
vn -0.2097168 0.9550781 -0.2097168
vn -0.2097168 0.9550781 -0.2097168
vn 0 -1 0
vn 0 0.9238281 -0.3833008
vn 0 0.9238281 -0.3833008
vn 0.2097168 0.9550781 0.2097168
vn 0.2097168 0.9550781 0.2097168
vn -0.5830078 -0.565918 -0.5830078
vn -0.5830078 -0.565918 -0.5830078
vn -0.5830078 -0.565918 0.5830078
vn -0.5830078 -0.565918 0.5830078
vn 0.5830078 -0.565918 -0.5830078
vn 0.5830078 -0.565918 -0.5830078
vn 0.5830078 -0.565918 0.5830078
vn 0.5830078 -0.565918 0.5830078
vn -0.7070313 0 0.7070313
vn -0.7070313 0 0.7070313
vn -0.7070313 0 0.7070313
vn -0.7070313 0 -0.7070313
vn -0.7070313 0 -0.7070313
vn 0.7070313 0 -0.7070313
vn 0.7070313 0 -0.7070313
vn 0.7070313 0 -0.7070313
vn 0.7070313 0 0.7070313
vn 0.7070313 0 0.7070313
vn 0 0 1
vn 0 0 1
vn -1 0 0
vn 0 0 -1
vn -1 0 0
vn 1 0 0
vn 1 0 0
vn 0 0 -1
vn 0 0 -1
vn 0 0 -1
vn 0 0 1
vn 0 0 1
vn 1 0 0
vn 1 0 0
vn 1 0 0
vn 0 0 1
vn 0 0 1
vn -1 0 0
vn -1 0 0
vn 0 0 -1
vn 0 0 -1
vn 1 0 0
vn 1 0 0
vn 1 0 0
vn 0 0 1
vn 0 0 1
vn 0 0 -1
vn 0 0 -1
vn 0 0 -1
vn 0 1 0
vn 0 1 0
vn 0 1 0
vn 0 1 0
vn 0 1 0
vn 0 1 0
vn 0 0 1
vn 0 0 1
vn 0 0 1
vn 0 -1 0
vn 0 -1 0
vn 0 -1 0
vn 0 0 1
vn 0 1 0
vn 0 1 0
vn 0 1 0
vn 0 1 0
vn 0 1 0
vn 0 1 0
vn -1 0 0
vn -1 0 0
vn -1 0 0
vn 0 -1 0
vn 0 -1 0
vn 0 -1 0
vn 1 0 0
vn 1 0 0
vn 1 0 0
vn 1 0 0
vn 1 0 0
vn 0 0.9238281 0.3833008
vn 0 0.9238281 0.3833008
vn 0 0.9238281 0.3833008
vn -0.2097168 0.9550781 0.2097168
vn -0.2097168 0.9550781 0.2097168
vn -0.2097168 0.9550781 0.2097168
vn 0 -1 0
vn 0 -1 0
vn 1.251698E-05 -1 0
vn 0 -1 0
vn 0 -1 0
vn 0.3833008 0.9238281 0
vn 0.3833008 0.9238281 0
vn 0.2097168 0.9550781 -0.2097168
vn 0.2097168 0.9550781 -0.2097168
vn 0.2097168 0.9550781 -0.2097168
vn 0 -1 0
vn -0.112854 0.9936523 0
vn -0.112854 0.9936523 0
vn -0.112854 0.9936523 0
vn -0.05987549 0.996582 -0.05987549
vn -0.05987549 0.996582 -0.05987549
vn -0.05987549 0.996582 -0.05987549
vn 0.05987549 0.996582 -0.05987549
vn 0.05987549 0.996582 -0.05987549
vn -0.05987549 0.996582 0.05987549
vn -0.05987549 0.996582 0.05987549
vn 0 0.9936523 -0.112854
vn 0 0.9936523 -0.112854
vn 0.112854 0.9936523 0
vn 0.112854 0.9936523 0
vn 0.05987549 0.996582 0.05987549
vn 0.05987549 0.996582 0.05987549
vn 0 1 0
vn 0.3928223 0.831543 -0.3928223
vn 0.3928223 0.831543 -0.3928223
vn -0.6660156 0.7460938 0
vn -0.6660156 0.7460938 0
vn -0.6660156 0.7460938 0
vn 0.6660156 0.7460938 0
vn 0.6660156 0.7460938 0
vn -0.3928223 0.831543 0.3928223
vn -0.3928223 0.831543 0.3928223
vn 0.3928223 0.831543 0.3928223
vn 0.3928223 0.831543 0.3928223
vn 0 0.7460938 0.6660156
vn 0 0.7460938 0.6660156
vn 0 0.7460938 -0.6660156
vn 0 0.7460938 -0.6660156
vn 0 0.7460938 -0.6660156
vn 0 0 1
vn 1 0 0
vn 0 0 1
vn -1 0 0
vn 0 0 1
vn 0 0 1
vn 1 0 0
vn 0 0 -1
vn -1 0 0
vn -1 0 0
vn 0 0 -1
vn 1 0 0
vn 0 0 1
vn 0 0 -1
vn 1 0 0
vn 0 0 -1
vn -1 0 0
vn 0 0 1
vn 1 0 0
vn 0 0 -1
vn -1 0 0
vn 0 1 0
vn 0 0 -1
vn 1 0 0
vn -1 0 0
vn -1 0 0
vn 0 0 1
vn -0.4785156 -0.8779297 2.241135E-05
vn -0.4785156 -0.8779297 0
vn -0.4785156 -0.8779297 0
vn -0.4785156 -0.8779297 -1.049042E-05
vn -0.4785156 -0.8779297 -2.229214E-05
vn 0 -1 0
vn 0 -1 0
vn 1 0 0
vn 0 -0.8779297 -0.4785156
vn 0 -0.8779297 -0.4785156
vn 0 -0.8779297 -0.4785156
vn 0 -0.8779297 0.4785156
vn 0 -0.8779297 0.4785156
vn 0 -0.8779297 0.4785156
vn 0.4785156 -0.8779297 -2.241135E-05
vn 0.4785156 -0.8779297 0
vn 0.4785156 -0.8779297 0
vn 0.4785156 -0.8779297 1.049042E-05
vn 0.4785156 -0.8779297 2.229214E-05
vn 0 0 -1
vn 0.7070313 0 0.7070313
vn 0 0 -1
vn -1 0 0
vn -0.7070313 0 0.7070313
vn 0.7070313 0 -0.7070313
vn -0.7070313 0 -0.7070313
vn -0.3833008 0.9238281 0
vn -0.2097168 0.9550781 -0.2097168
vn 0 0.9238281 -0.3833008
vn 0 0.9936523 0.112854
vn 0.2097168 0.9550781 0.2097168
vn -0.7070313 0 0.7070313
vn -0.7070313 0 -0.7070313
vn 0.7070313 0 -0.7070313
vn 0.7070313 0 0.7070313
vn 0 -1 0
vn -1 0 0
vn 1 0 0
vn 0 0 1
vn 0 0 -1
vn 0 1 0
vn 0 1 0
vn 0 0 1
vn 0 -1 0
vn 0 0 -1
vn 0 0 1
vn 0 1 0
vn 0 1 0
vn -1 0 0
vn 0 -1 0
vn 1 0 0
vn 1 0 0
vn 0 0.9238281 0.3833008
vn -0.2097168 0.9550781 0.2097168
vn 0.3833008 0.9238281 0
vn 0.2097168 0.9550781 -0.2097168
vn -0.3928223 0.831543 -0.3928223
vn -0.112854 0.9936523 0
vn -0.05987549 0.996582 -0.05987549
vn 0.05981445 0.996582 -0.05987549
vn -0.05981445 0.996582 0.05987549
vn 0 0.9936523 -0.112854
vn 0.112854 0.9936523 0
vn 0.05987549 0.996582 0.05987549
vn 0 1 0
vn 0 1 0
vn 0 1 0
vn 0 1 0
vn 0 1 0
vn 0.3928223 0.831543 -0.3928223
vn -0.6660156 0.7460938 0
vn 0.6660156 0.7460938 0
vn -0.3928223 0.831543 0.3928223
vn 0.3928223 0.831543 0.3928223
vn 0 0.7460938 0.6660156
vn 0 0.7460938 -0.6660156
g Lantern_01_0
f 248/248/248 87/87/87 247/247/247
f 250/250/250 90/90/90 249/249/249
f 252/252/252 93/93/93 251/251/251
f 254/254/254 96/96/96 253/253/253
f 405/405/405 404/404/404 403/403/403
f 419/419/419 418/418/418 417/417/417
f 9/9/9 12/12/12 43/43/43
f 374/374/374 9/9/9 43/43/43
f 153/153/153 11/11/11 41/41/41
f 375/375/375 153/153/153 41/41/41
f 36/36/36 35/35/35 34/34/34
f 376/376/376 36/36/36 34/34/34
f 10/10/10 154/154/154 38/38/38
f 377/377/377 10/10/10 38/38/38
f 53/53/53 2/2/2 6/6/6
f 378/378/378 53/53/53 6/6/6
f 24/24/24 23/23/23 159/159/159
f 379/379/379 24/24/24 159/159/159
f 160/160/160 22/22/22 17/17/17
f 380/380/380 160/160/160 17/17/17
f 162/162/162 21/21/21 161/161/161
f 381/381/381 162/162/162 161/161/161
f 164/164/164 163/163/163 20/20/20
f 382/382/382 164/164/164 20/20/20
f 172/172/172 26/26/26 171/171/171
f 383/383/383 172/172/172 171/171/171
f 174/174/174 173/173/173 27/27/27
f 384/384/384 174/174/174 27/27/27
f 30/30/30 176/176/176 175/175/175
f 385/385/385 30/30/30 175/175/175
f 178/178/178 177/177/177 31/31/31
f 386/386/386 178/178/178 31/31/31
f 184/184/184 183/183/183 39/39/39
f 387/387/387 184/184/184 39/39/39
f 44/44/44 42/42/42 51/51/51
f 388/388/388 44/44/44 51/51/51
f 185/185/185 40/40/40 50/50/50
f 389/389/389 185/185/185 50/50/50
f 186/186/186 37/37/37 49/49/49
f 390/390/390 186/186/186 49/49/49
f 196/196/196 195/195/195 52/52/52
f 391/391/391 196/196/196 52/52/52
f 199/199/199 198/198/198 197/197/197
f 392/392/392 199/199/199 197/197/197
f 47/47/47 48/48/48 200/200/200
f 393/393/393 47/47/47 200/200/200
f 203/203/203 202/202/202 201/201/201
f 394/394/394 203/203/203 201/201/201
f 56/56/56 55/55/55 54/54/54
f 395/395/395 56/56/56 54/54/54
f 217/217/217 216/216/216 215/215/215
f 396/396/396 217/217/217 215/215/215
f 220/220/220 219/219/219 218/218/218
f 397/397/397 220/220/220 218/218/218
f 223/223/223 222/222/222 221/221/221
f 398/398/398 223/223/223 221/221/221
f 134/134/134 135/135/135 131/131/131
f 399/399/399 134/134/134 131/131/131
f 129/129/129 130/130/130 132/132/132
f 400/400/400 129/129/129 132/132/132
f 103/103/103 57/57/57 100/100/100
f 57/57/57 103/103/103 402/402/402
f 402/402/402 103/103/103 401/401/401
f 117/117/117 82/82/82 80/80/80
f 406/406/406 117/117/117 80/80/80
f 224/224/224 58/58/58 60/60/60
f 407/407/407 224/224/224 60/60/60
f 64/64/64 63/63/63 62/62/62
f 408/408/408 64/64/64 62/62/62
f 111/111/111 226/226/226 106/106/106
f 226/226/226 111/111/111 416/416/416
f 416/416/416 111/111/111 415/415/415
f 68/68/68 67/67/67 66/66/66
f 420/420/420 68/68/68 66/66/66
f 133/133/133 228/228/228 227/227/227
f 421/421/421 133/133/133 227/227/227
f 120/120/120 229/229/229 94/94/94
f 422/422/422 120/120/120 94/94/94
f 126/126/126 83/83/83 91/91/91
f 423/423/423 126/126/126 91/91/91
f 136/136/136 231/231/231 230/230/230
f 424/424/424 136/136/136 230/230/230
f 61/61/61 233/233/233 232/232/232
f 425/425/425 61/61/61 232/232/232
f 65/65/65 235/235/235 234/234/234
f 426/426/426 65/65/65 234/234/234
f 239/239/239 84/84/84 75/75/75
f 427/427/427 239/239/239 75/75/75
f 241/241/241 240/240/240 78/78/78
f 428/428/428 241/241/241 78/78/78
f 244/244/244 243/243/243 69/69/69
f 429/429/429 244/244/244 69/69/69
f 144/144/144 81/81/81 72/72/72
f 430/430/430 144/144/144 72/72/72
f 246/246/246 71/71/71 245/245/245
f 431/431/431 246/246/246 245/245/245
f 257/257/257 256/256/256 255/255/255
f 432/432/432 257/257/257 255/255/255
f 104/104/104 259/259/259 258/258/258
f 433/433/433 104/104/104 258/258/258
f 262/262/262 261/261/261 260/260/260
f 434/434/434 262/262/262 260/260/260
f 112/112/112 264/264/264 263/263/263
f 435/435/435 112/112/112 263/263/263
f 127/127/127 79/79/79 74/74/74
f 436/436/436 127/127/127 74/74/74
f 116/116/116 290/290/290 289/289/289
f 439/439/439 116/116/116 289/289/289
f 293/293/293 292/292/292 291/291/291
f 440/440/440 293/293/293 291/291/291
f 296/296/296 295/295/295 294/294/294
f 441/441/441 296/296/296 294/294/294
f 299/299/299 298/298/298 297/297/297
f 442/442/442 299/299/299 297/297/297
f 302/302/302 301/301/301 300/300/300
f 443/443/443 302/302/302 300/300/300
f 305/305/305 304/304/304 303/303/303
f 444/444/444 305/305/305 303/303/303
f 309/309/309 308/308/308 307/307/307
f 447/447/447 309/309/309 307/307/307
f 312/312/312 311/311/311 310/310/310
f 448/448/448 312/312/312 310/310/310
f 315/315/315 314/314/314 313/313/313
f 449/449/449 315/315/315 313/313/313
f 318/318/318 317/317/317 316/316/316
f 450/450/450 318/318/318 316/316/316
f 321/321/321 320/320/320 319/319/319
f 451/451/451 321/321/321 319/319/319
f 122/122/122 323/323/323 322/322/322
f 452/452/452 122/122/122 322/322/322
f 326/326/326 325/325/325 324/324/324
f 453/453/453 326/326/326 324/324/324
f 329/329/329 328/328/328 327/327/327
f 454/454/454 329/329/329 327/327/327
f 336/336/336 70/70/70 335/335/335
f 455/455/455 336/336/336 335/335/335
f 339/339/339 338/338/338 337/337/337
f 456/456/456 339/339/339 337/337/337
f 147/147/147 139/139/139 142/142/142
f 457/457/457 147/147/147 142/142/142
f 343/343/343 342/342/342 341/341/341
f 458/458/458 343/343/343 341/341/341
f 346/346/346 345/345/345 344/344/344
f 459/459/459 346/346/346 344/344/344
f 138/138/138 348/348/348 347/347/347
f 460/460/460 138/138/138 347/347/347
f 141/141/141 350/350/350 349/349/349
f 461/461/461 141/141/141 349/349/349
f 140/140/140 352/352/352 351/351/351
f 462/462/462 140/140/140 351/351/351
f 137/137/137 354/354/354 353/353/353
f 463/463/463 137/137/137 353/353/353
f 143/143/143 356/356/356 355/355/355
f 464/464/464 143/143/143 355/355/355
f 357/357/357 150/150/150 148/148/148
f 148/148/148 150/150/150 469/469/469
f 469/469/469 150/150/150 465/465/465
f 466/466/466 465/465/465 150/150/150
f 467/467/467 465/465/465 466/466/466
f 468/468/468 465/465/465 467/467/467
f 146/146/146 359/359/359 358/358/358
f 470/470/470 146/146/146 358/358/358
f 362/362/362 361/361/361 360/360/360
f 471/471/471 362/362/362 360/360/360
f 145/145/145 364/364/364 363/363/363
f 472/472/472 145/145/145 363/363/363
f 149/149/149 366/366/366 365/365/365
f 473/473/473 149/149/149 365/365/365
f 151/151/151 368/368/368 367/367/367
f 474/474/474 151/151/151 367/367/367
f 152/152/152 370/370/370 369/369/369
f 475/475/475 152/152/152 369/369/369
f 373/373/373 372/372/372 371/371/371
f 476/476/476 373/373/373 371/371/371
f 410/410/410 107/107/107 409/409/409
f 225/225/225 107/107/107 410/410/410
f 107/107/107 225/225/225 102/102/102
f 411/411/411 102/102/102 225/225/225
f 413/413/413 97/97/97 412/412/412
f 59/59/59 97/97/97 413/413/413
f 97/97/97 59/59/59 110/110/110
f 414/414/414 110/110/110 59/59/59
f 340/340/340 109/109/109 332/332/332
f 333/333/333 340/340/340 332/332/332
f 340/340/340 236/236/236 109/109/109
f 333/333/333 332/332/332 105/105/105
f 236/236/236 98/98/98 109/109/109
f 238/238/238 333/333/333 105/105/105
f 236/236/236 242/242/242 98/98/98
f 238/238/238 105/105/105 108/108/108
f 242/242/242 99/99/99 98/98/98
f 237/237/237 238/238/238 108/108/108
f 242/242/242 334/334/334 99/99/99
f 237/237/237 108/108/108 101/101/101
f 334/334/334 330/330/330 99/99/99
f 331/331/331 237/237/237 101/101/101
f 331/331/331 101/101/101 330/330/330
f 334/334/334 331/331/331 330/330/330
f 287/287/287 92/92/92 278/278/278
f 279/279/279 287/287/287 278/278/278
f 287/287/287 271/271/271 92/92/92
f 279/279/279 278/278/278 277/277/277
f 271/271/271 270/270/270 92/92/92
f 286/286/286 279/279/279 277/277/277
f 286/286/286 277/277/277 270/270/270
f 271/271/271 286/286/286 270/270/270
f 285/285/285 272/272/272 76/76/76
f 268/268/268 285/285/285 76/76/76
f 285/285/285 274/274/274 272/272/272
f 268/268/268 76/76/76 86/86/86
f 274/274/274 273/273/273 272/272/272
f 284/284/284 268/268/268 86/86/86
f 284/284/284 86/86/86 273/273/273
f 274/274/274 284/284/284 273/273/273
f 283/283/283 77/77/77 73/73/73
f 267/267/267 283/283/283 73/73/73
f 283/283/283 269/269/269 77/77/77
f 267/267/267 73/73/73 89/89/89
f 269/269/269 85/85/85 77/77/77
f 282/282/282 267/267/267 89/89/89
f 282/282/282 89/89/89 85/85/85
f 269/269/269 282/282/282 85/85/85
f 281/281/281 265/265/265 275/275/275
f 276/276/276 281/281/281 275/275/275
f 281/281/281 266/266/266 265/265/265
f 276/276/276 275/275/275 95/95/95
f 266/266/266 88/88/88 265/265/265
f 280/280/280 276/276/276 95/95/95
f 280/280/280 95/95/95 88/88/88
f 266/266/266 280/280/280 88/88/88
f 214/214/214 212/212/212 209/209/209
f 210/210/210 214/214/214 209/209/209
f 214/214/214 213/213/213 212/212/212
f 210/210/210 209/209/209 4/4/4
f 213/213/213 8/8/8 212/212/212
f 211/211/211 210/210/210 4/4/4
f 211/211/211 4/4/4 8/8/8
f 213/213/213 211/211/211 8/8/8
f 208/208/208 193/193/193 191/191/191
f 33/33/33 208/208/208 191/191/191
f 208/208/208 45/45/45 193/193/193
f 33/33/33 191/191/191 190/190/190
f 45/45/45 194/194/194 193/193/193
f 207/207/207 33/33/33 190/190/190
f 207/207/207 190/190/190 194/194/194
f 45/45/45 207/207/207 194/194/194
f 206/206/206 204/204/204 192/192/192
f 46/46/46 206/206/206 192/192/192
f 206/206/206 205/205/205 204/204/204
f 46/46/46 192/192/192 188/188/188
f 205/205/205 187/187/187 204/204/204
f 189/189/189 46/46/46 188/188/188
f 189/189/189 188/188/188 187/187/187
f 205/205/205 189/189/189 187/187/187
f 182/182/182 18/18/18 16/16/16
f 28/28/28 182/182/182 16/16/16
f 182/182/182 181/181/181 18/18/18
f 28/28/28 16/16/16 13/13/13
f 25/25/25 28/28/28 13/13/13
f 181/181/181 25/25/25 14/14/14
f 181/181/181 14/14/14 18/18/18
f 25/25/25 13/13/13 14/14/14
f 16/16/16 18/18/18 7/7/7
f 18/18/18 14/14/14 5/5/5
f 18/18/18 5/5/5 7/7/7
f 14/14/14 1/1/1 5/5/5
f 14/14/14 13/13/13 1/1/1
f 5/5/5 1/1/1 7/7/7
f 16/16/16 7/7/7 3/3/3
f 13/13/13 16/16/16 3/3/3
f 1/1/1 3/3/3 7/7/7
f 13/13/13 3/3/3 1/1/1
f 180/180/180 167/167/167 170/170/170
f 29/29/29 180/180/180 170/170/170
f 180/180/180 32/32/32 167/167/167
f 29/29/29 170/170/170 169/169/169
f 32/32/32 168/168/168 167/167/167
f 179/179/179 29/29/29 169/169/169
f 179/179/179 169/169/169 168/168/168
f 32/32/32 179/179/179 168/168/168
f 166/166/166 157/157/157 156/156/156
f 19/19/19 166/166/166 156/156/156
f 166/166/166 15/15/15 157/157/157
f 19/19/19 156/156/156 155/155/155
f 15/15/15 158/158/158 157/157/157
f 165/165/165 19/19/19 155/155/155
f 165/165/165 155/155/155 158/158/158
f 15/15/15 165/165/165 158/158/158
g Lantern_01_1
f 115/115/115 114/114/114 113/113/113
f 437/437/437 115/115/115 113/113/113
f 119/119/119 118/118/118 288/288/288
f 438/438/438 119/119/119 288/288/288
f 125/125/125 124/124/124 123/123/123
f 445/445/445 125/125/125 123/123/123
f 121/121/121 128/128/128 306/306/306
f 446/446/446 121/121/121 306/306/306
