# Blender 3.5.0
# www.blender.org
mtllib lantern.mtl
o Lantern.002
v 0.000000 2.369762 0.150542
v 0.107276 2.341018 0.150542
v 0.185807 2.262487 0.150542
v 0.214551 2.155211 0.150542
v 0.185807 2.047935 0.150542
v 0.107276 1.969404 0.150542
v -0.107276 1.969404 0.150542
v -0.185807 2.047935 0.150542
v -0.214551 2.155211 0.150542
v -0.185807 2.262486 0.150542
v -0.107276 2.341018 0.150542
v 0.180272 2.467452 0.180272
v 0.000000 2.515755 0.180272
v 0.312241 2.335483 0.180272
v 0.360544 2.155211 0.180272
v 0.312241 1.974939 0.180272
v 0.170966 1.849631 0.170966
v -0.170966 1.849631 0.170966
v -0.312241 1.974939 0.180272
v -0.360544 2.155211 0.180272
v -0.312241 2.335483 0.180272
v -0.180272 2.467452 0.180272
v 0.000000 2.369762 -0.150542
v 0.107276 2.341018 -0.150542
v 0.185807 2.262487 -0.150542
v 0.214551 2.155211 -0.150542
v 0.185807 2.047935 -0.150542
v 0.107276 1.969404 -0.150542
v -0.107276 1.969404 -0.150542
v -0.185807 2.047935 -0.150542
v -0.214551 2.155211 -0.150542
v -0.185807 2.262486 -0.150542
v -0.107276 2.341018 -0.150542
v 0.000000 2.515755 -0.180272
v 0.180272 2.467452 -0.180272
v 0.312241 2.335483 -0.180272
v 0.360544 2.155211 -0.180272
v 0.312241 1.974939 -0.180272
v 0.170966 1.849630 -0.170966
v -0.170966 1.849630 -0.170966
v -0.312241 1.974939 -0.180272
v -0.360544 2.155211 -0.180272
v -0.312241 2.335483 -0.180272
v -0.180272 2.467451 -0.180272
v -0.853462 -0.983598 0.853462
v 0.853462 -0.983598 0.853462
v -1.000000 1.039103 1.000000
v 1.000000 1.039103 1.000000
v -0.812595 0.851698 1.000000
v -0.693518 -0.823654 0.853462
v 0.693518 -0.823654 0.853462
v 0.812595 0.851698 1.000000
v -0.812595 0.851698 0.846228
v -0.693518 -0.823655 0.722224
v 0.693518 -0.823655 0.722224
v 0.812595 0.851698 0.846228
v 0.853462 -0.983598 -0.853461
v 1.000000 1.039103 -1.000000
v 1.000000 0.851698 0.812595
v 0.853462 -0.823655 0.693519
v 0.853462 -0.823655 -0.693518
v 1.000000 0.851697 -0.812594
v 0.846228 0.851698 0.812595
v 0.722223 -0.823655 0.693519
v 0.722223 -0.823655 -0.693518
v 0.846228 0.851697 -0.812594
v -0.853462 -0.983598 -0.853461
v -1.000000 1.039103 -1.000000
v -1.000000 0.851697 -0.812594
v -0.853462 -0.823655 -0.693518
v -0.853462 -0.823655 0.693519
v -1.000000 0.851698 0.812595
v -0.846228 0.851697 -0.812594
v -0.722223 -0.823655 -0.693518
v -0.722223 -0.823655 0.693519
v -0.846228 0.851698 0.812595
v -0.986239 -1.152333 0.986240
v 0.986239 -1.152333 0.986240
v 0.986239 -1.152333 -0.986239
v -0.986239 -1.152333 -0.986239
v 0.812595 0.851697 -1.000000
v 0.693518 -0.823655 -0.853461
v -0.693518 -0.823655 -0.853461
v -0.812595 0.851697 -1.000000
v 0.812595 0.851697 -0.846228
v 0.693518 -0.823655 -0.722223
v -0.693518 -0.823655 -0.722223
v -0.812595 0.851697 -0.846228
v -0.986239 -0.983598 -0.986239
v 0.986239 -0.983598 -0.986239
v 0.986239 -0.983598 0.986240
v -0.986239 -0.983598 0.986240
v -0.124633 -1.553744 0.124634
v 0.124633 -1.553744 0.124634
v 0.124633 -1.553744 -0.124633
v -0.124633 -1.553744 -0.124633
v -0.023327 -1.853717 0.023328
v 0.023327 -1.853717 0.023328
v 0.023327 -1.853717 -0.023327
v -0.023327 -1.853717 -0.023327
v -1.155428 1.039103 1.155429
v 1.155428 1.039103 1.155429
v 1.155428 1.039103 -1.155428
v -1.155428 1.039103 -1.155428
v -1.155428 1.234174 1.155429
v 1.155428 1.234174 1.155429
v 1.155428 1.234173 -1.155428
v -1.155428 1.234173 -1.155428
v -0.161660 1.729758 0.161660
v 0.161660 1.729758 0.161660
v 0.161660 1.729758 -0.161660
v -0.161660 1.729758 -0.161660
v 0.734914 -0.759773 0.597188
v 0.734914 -0.759773 -0.597187
v -0.734914 -0.759773 -0.597187
v -0.734914 -0.759773 0.597188
v -0.597187 -0.759772 0.734914
v 0.597187 -0.759772 0.734914
v 0.597187 -0.759773 -0.734913
v -0.597187 -0.759773 -0.734913
vn 0.2588 0.9659 -0.0000
vn 0.7071 0.7071 -0.0000
vn 0.9659 0.2588 -0.0000
vn 0.9659 -0.2588 -0.0000
vn 0.6636 -0.7481 -0.0000
vn -0.0000 0.1681 0.9858
vn -0.0000 -0.0774 0.9970
vn -0.6636 -0.7481 -0.0000
vn -0.9659 -0.2588 -0.0000
vn -0.9659 0.2588 -0.0000
vn -0.7071 0.7071 -0.0000
vn -0.2588 0.9659 -0.0000
vn -0.0534 -0.1993 0.9785
vn -0.1459 -0.1459 0.9785
vn -0.1993 -0.0534 0.9785
vn -0.1993 0.0534 0.9785
vn -0.1456 0.1121 0.9830
vn 0.1456 0.1121 0.9830
vn 0.1993 0.0534 0.9785
vn 0.1993 -0.0534 0.9785
vn 0.1459 -0.1459 0.9785
vn 0.0534 -0.1993 0.9785
vn 0.7071 -0.7071 -0.0000
vn -0.2588 -0.9659 -0.0000
vn 0.2588 -0.9659 -0.0000
vn -0.7071 -0.7071 -0.0000
vn -0.1993 -0.0534 -0.9785
vn -0.0534 -0.1993 -0.9785
vn 0.0534 -0.1993 -0.9785
vn 0.1459 -0.1459 -0.9785
vn 0.1993 -0.0534 -0.9785
vn 0.1993 0.0534 -0.9785
vn 0.1456 0.1121 -0.9830
vn -0.0000 1.0000 -0.0000
vn -0.1456 0.1121 -0.9830
vn -0.1993 0.0534 -0.9785
vn -0.1459 -0.1459 -0.9785
vn -0.0000 -1.0000 -0.0000
vn -0.0063 -0.0795 0.9968
vn -0.0000 -0.0000 1.0000
vn 0.0063 -0.0795 0.9968
vn -0.9975 0.0709 -0.0000
vn 0.9975 0.0709 -0.0000
vn 1.0000 -0.0000 -0.0000
vn -1.0000 -0.0000 -0.0000
vn 0.9968 -0.0795 0.0063
vn 0.9968 -0.0795 -0.0063
vn -0.0000 0.0709 0.9975
vn -0.0000 0.0709 -0.9975
vn -0.0000 -0.0000 -1.0000
vn -0.9968 -0.0795 -0.0063
vn -0.9968 -0.0795 0.0063
vn 0.0063 -0.0795 -0.9968
vn -0.0063 -0.0795 -0.9968
vn -0.0000 -0.9065 -0.4223
vn -0.0000 -0.9065 0.4223
vn 0.4223 -0.9065 -0.0000
vn -0.4223 -0.9065 -0.0000
vn -0.0000 -0.3200 -0.9474
vn -0.9474 -0.3200 -0.0000
vn 0.9474 -0.3200 -0.0000
vn -0.0000 -0.3200 0.9474
vn 0.4463 0.8949 -0.0000
vn -0.4463 0.8949 -0.0000
vn -0.0000 0.8949 -0.4463
vn 0.9970 -0.0774 -0.0000
vn -0.9970 -0.0774 -0.0000
vn -0.0000 -0.0774 -0.9970
vn -0.0000 0.1681 -0.9858
vn -0.0000 0.8949 0.4463
vn -0.2741 -0.9218 0.2741
vn 0.4744 -0.8803 -0.0000
vn 0.2741 -0.9218 0.2741
vn -0.2741 -0.9218 -0.2741
vn -0.4744 -0.8803 -0.0000
vn -0.0000 -0.8803 -0.4744
vn 0.2741 -0.9218 -0.2741
vn -0.0000 -0.8803 0.4744
vt 0.250000 0.421023
vt 0.335511 0.398110
vt 0.398110 0.335511
vt 0.421023 0.250000
vt 0.398110 0.164489
vt 0.335511 0.101890
vt 0.164489 0.101890
vt 0.101890 0.164489
vt 0.078977 0.250000
vt 0.101890 0.335511
vt 0.164489 0.398110
vt 0.916667 1.000000
vt 0.370000 0.457846
vt 1.000000 1.000000
vt 0.000000 1.000000
vt 0.250000 0.490000
vt 0.833333 1.000000
vt 0.457846 0.370000
vt 0.750000 1.000000
vt 0.490000 0.250000
vt 0.666667 1.000000
vt 0.457846 0.130000
vt 0.583333 1.000000
vt 0.370000 0.042154
vt 0.000000 1.000000
vt 0.416667 1.000000
vt 0.130000 0.042154
vt 1.000000 1.000000
vt 0.333333 1.000000
vt 0.042154 0.130000
vt 0.250000 1.000000
vt 0.010000 0.250000
vt 0.166667 1.000000
vt 0.042154 0.370000
vt 0.083333 1.000000
vt 0.130000 0.457846
vt 0.250000 0.421023
vt 0.335511 0.398110
vt 0.398110 0.335511
vt 0.421023 0.250000
vt 0.398110 0.164489
vt 0.335511 0.101890
vt 0.164489 0.101890
vt 0.101890 0.164489
vt 0.078977 0.250000
vt 0.101890 0.335511
vt 0.164489 0.398110
vt 1.000000 0.863148
vt 0.000000 0.863148
vt 0.916667 0.863148
vt 0.833333 0.863148
vt 0.750000 0.863148
vt 0.666667 0.863148
vt 0.583333 0.863148
vt 1.000000 1.000000
vt 0.416667 0.863148
vt 0.000000 1.000000
vt 0.333333 0.863148
vt 0.250000 0.863148
vt 0.166667 0.863148
vt 0.083333 0.863148
vt 0.000000 0.000000
vt 1.000000 0.000000
vt 1.000000 0.000000
vt 0.000000 0.000000
vt 1.000000 1.000000
vt 0.000000 1.000000
vt 0.000000 1.000000
vt 1.000000 1.000000
vt 0.093703 0.906297
vt 0.093703 0.093703
vt 0.000000 0.000000
vt 0.000000 0.000000
vt 0.906297 0.093703
vt 0.906297 0.906297
vt 0.093703 0.906297
vt 0.093703 0.093703
vt 0.906297 0.093703
vt 0.906297 0.906297
vt 0.000000 0.000000
vt 1.000000 0.000000
vt 0.000000 1.000000
vt 1.000000 1.000000
vt 0.093703 0.906297
vt 0.000000 0.000000
vt 0.093703 0.093703
vt 0.000000 0.000000
vt 0.906297 0.093703
vt 0.906297 0.906297
vt 0.093703 0.906297
vt 0.093703 0.093703
vt 0.906297 0.093703
vt 0.906297 0.906297
vt 0.000000 0.000000
vt 1.000000 0.000000
vt 1.000000 1.000000
vt 0.000000 1.000000
vt 0.093703 0.906297
vt 0.093703 0.093703
vt 0.000000 0.000000
vt 0.906297 0.093703
vt 0.000000 0.000000
vt 0.906297 0.906297
vt 0.093703 0.906297
vt 0.093703 0.093703
vt 0.906297 0.093703
vt 0.906297 0.906297
vt 0.000000 0.000000
vt 1.000000 0.000000
vt 1.000000 0.000000
vt 0.000000 0.000000
vt 0.000000 0.000000
vt 1.000000 0.000000
vt 1.000000 0.000000
vt 0.000000 0.000000
vt 0.093703 0.906297
vt 0.000000 0.000000
vt 0.093703 0.093703
vt 0.000000 0.000000
vt 0.906297 0.093703
vt 0.906297 0.906297
vt 0.093703 0.906297
vt 0.093703 0.093703
vt 0.906297 0.093703
vt 0.906297 0.906297
vt 0.000000 0.000000
vt 1.000000 0.000000
vt 0.000000 0.000000
vt 1.000000 0.000000
vt 1.000000 0.000000
vt 0.000000 0.000000
vt 0.000000 0.000000
vt 1.000000 0.000000
vt 1.000000 0.000000
vt 0.000000 0.000000
vt 0.000000 0.000000
vt 1.000000 0.000000
vt 0.000000 0.000000
vt 1.000000 0.000000
vt 1.000000 0.000000
vt 0.000000 0.000000
vt 1.000000 0.000000
vt 0.000000 0.000000
vt 1.000000 0.000000
vt 0.000000 0.000000
vt 1.000000 0.000000
vt 0.000000 0.000000
vt 0.000000 0.000000
vt 1.000000 0.000000
vt 0.000000 1.000000
vt 1.000000 1.000000
vt 1.000000 1.000000
vt 0.000000 1.000000
vt 0.000000 1.000000
vt 1.000000 1.000000
vt 1.000000 1.000000
vt 0.000000 1.000000
vt 0.000000 1.000000
vt 1.000000 1.000000
vt 1.000000 1.000000
vt 0.000000 1.000000
vt 0.000000 1.000000
vt 1.000000 1.000000
vt 1.000000 1.000000
vt 0.000000 1.000000
vt 1.000000 1.000000
vt 0.000000 1.000000
vt 1.000000 1.000000
vt 0.000000 1.000000
vt 0.000000 0.000000
vt 0.093703 0.093703
vt 0.000000 0.000000
vt 0.906297 0.093703
vt 0.093703 0.093703
vt 0.000000 0.000000
vt 0.906297 0.093703
vt 0.000000 0.000000
vt 0.093703 0.093703
vt 0.000000 0.000000
vt 0.000000 0.000000
vt 0.906297 0.093703
vt 0.000000 0.000000
vt 0.093703 0.093703
vt 0.000000 0.000000
vt 0.906297 0.093703
s 1
usemtl Metal
f 34/48/1 13/14/1 12/12/1 35/50/1
f 35/50/2 12/12/2 14/17/2 36/51/2
f 36/51/3 14/17/3 15/19/3 37/52/3
f 37/52/4 15/19/4 16/21/4 38/53/4
f 38/53/5 16/21/5 17/23/5 39/54/5
f 18/27/6 17/24/6 6/6/6 7/7/6
f 18/28/7 109/166/7 110/167/7 17/25/7
f 40/56/8 18/26/8 19/29/8 41/58/8
f 41/58/9 19/29/9 20/31/9 42/59/9
f 42/59/10 20/31/10 21/33/10 43/60/10
f 5/5/10 4/4/10 26/40/10 27/41/10
f 43/60/11 21/33/11 22/35/11 44/61/11
f 44/61/12 22/35/12 13/15/12 34/49/12
f 1/1/13 2/2/13 12/13/13 13/16/13
f 2/2/14 3/3/14 14/18/14 12/13/14
f 3/3/15 4/4/15 15/20/15 14/18/15
f 4/4/16 5/5/16 16/22/16 15/20/16
f 5/5/17 6/6/17 17/24/17 16/22/17
f 7/7/18 8/8/18 19/30/18 18/27/18
f 8/8/19 9/9/19 20/32/19 19/30/19
f 9/9/20 10/10/20 21/34/20 20/32/20
f 10/10/21 11/11/21 22/36/21 21/34/21
f 11/11/22 1/1/22 13/16/22 22/36/22
f 11/11/23 10/10/23 32/46/23 33/47/23
f 2/2/24 1/1/24 23/37/24 24/38/24
f 8/8/2 7/7/2 29/43/2 30/44/2
f 6/6/11 5/5/11 27/41/11 28/42/11
f 1/1/25 11/11/25 33/47/25 23/37/25
f 3/3/26 2/2/26 24/38/26 25/39/26
f 9/9/3 8/8/3 30/44/3 31/45/3
f 4/4/9 3/3/9 25/39/9 26/40/9
f 10/10/4 9/9/4 31/45/4 32/46/4
f 36/51/27 37/52/27 26/40/27 25/39/27
f 34/48/28 35/50/28 24/38/28 23/37/28
f 44/61/29 34/49/29 23/37/29 33/47/29
f 43/60/30 44/61/30 33/47/30 32/46/30
f 42/59/31 43/60/31 32/46/31 31/45/31
f 41/58/32 42/59/32 31/45/32 30/44/32
f 40/56/33 41/58/33 30/44/33 29/43/33
f 7/7/34 6/6/34 28/42/34 29/43/34
f 38/53/35 39/54/35 28/42/35 27/41/35
f 37/52/36 38/53/36 27/41/36 26/40/36
f 36/51/37 25/39/37 24/38/37 35/50/37
f 52/75/38 49/70/38 53/76/38 56/79/38
f 50/71/39 49/70/39 47/67/39 45/62/39
f 51/74/40 50/71/40 45/62/40 46/64/40
f 52/75/41 51/74/41 46/64/41 48/69/41
f 49/70/40 52/75/40 48/69/40 47/67/40
f 50/71/34 51/74/34 55/78/34 54/77/34
f 51/74/42 52/75/42 56/79/42 55/78/42
f 49/70/43 50/71/43 54/77/43 53/76/43
f 90/129/44 91/131/44 78/111/44 79/113/44
f 92/133/45 89/126/45 80/115/45 77/109/45
f 62/89/38 59/84/38 63/90/38 66/93/38
f 60/86/46 59/84/46 48/68/46 46/65/46
f 61/88/44 60/86/44 46/65/44 57/81/44
f 62/89/47 61/88/47 57/81/47 58/83/47
f 59/84/44 62/89/44 58/83/44 48/68/44
f 60/86/34 61/88/34 65/92/34 64/91/34
f 61/88/48 62/89/48 66/93/48 65/92/48
f 59/84/49 60/86/49 64/91/49 63/90/49
f 91/130/40 92/132/40 77/108/40 78/110/40
f 89/127/50 90/128/50 79/112/50 80/114/50
f 72/103/38 69/98/38 73/104/38 76/107/38
f 70/99/51 69/98/51 68/97/51 67/94/51
f 71/101/45 70/99/45 67/94/45 45/63/45
f 72/103/52 71/101/52 45/63/52 47/66/52
f 69/98/45 72/103/45 47/66/45 68/97/45
f 70/99/34 71/101/34 75/106/34 74/105/34
f 71/101/49 72/103/49 76/107/49 75/106/49
f 69/98/48 70/99/48 74/105/48 73/104/48
f 46/64/34 45/62/34 92/132/34 91/130/34
f 45/63/34 67/94/34 89/126/34 92/133/34
f 84/121/38 81/116/38 85/122/38 88/125/38
f 82/118/53 81/116/53 58/82/53 57/80/53
f 83/120/50 82/118/50 57/80/50 67/95/50
f 84/121/54 83/120/54 67/95/54 68/96/54
f 81/116/50 84/121/50 68/96/50 58/82/50
f 82/118/34 83/120/34 87/124/34 86/123/34
f 83/120/43 84/121/43 88/125/43 87/124/43
f 81/116/42 82/118/42 86/123/42 85/122/42
f 67/95/34 57/80/34 90/128/34 89/127/34
f 57/81/34 46/65/34 91/131/34 90/129/34
f 80/114/55 79/112/55 95/138/55 96/140/55
f 78/110/56 77/108/56 93/135/56 94/137/56
f 79/113/57 78/111/57 94/136/57 95/139/57
f 77/109/58 80/115/58 96/141/58 93/134/58
f 96/140/59 95/138/59 99/147/59 100/149/59
f 93/134/60 96/141/60 100/148/60 97/142/60
f 95/139/61 94/136/61 98/145/61 99/146/61
f 94/137/62 93/135/62 97/143/62 98/144/62
f 100/149/38 99/147/38 98/145/38 97/143/38
f 58/82/38 68/96/38 104/156/38 103/154/38
f 68/97/38 47/66/38 101/151/38 104/157/38
f 48/68/38 58/83/38 103/155/38 102/153/38
f 47/67/38 48/69/38 102/152/38 101/150/38
f 103/154/50 104/156/50 108/164/50 107/162/50
f 101/150/40 102/152/40 106/160/40 105/158/40
f 102/153/44 103/155/44 107/163/44 106/161/44
f 104/157/45 101/151/45 105/159/45 108/165/45
f 106/161/63 107/163/63 111/168/63 110/167/63
f 108/165/64 105/159/64 109/166/64 112/169/64
f 108/165/65 112/169/65 111/168/65 107/163/65
f 110/167/66 111/168/66 39/55/66 17/25/66
f 112/169/67 109/166/67 18/28/67 40/57/67
f 40/57/68 39/55/68 111/168/68 112/169/68
f 39/55/69 40/57/69 29/43/69 28/42/69
f 105/159/70 106/161/70 110/167/70 109/166/70
s 0
f 82/117/71 61/87/71 114/172/71 119/182/71
s 1
f 119/183/38 114/173/38 113/171/38 118/181/38 117/178/38 116/176/38 115/174/38 120/185/38
f 71/101/72 70/99/72 115/174/72 116/176/72
s 0
f 70/100/73 83/119/73 120/184/73 115/175/73
f 60/85/74 51/73/74 118/180/74 113/170/74
s 1
f 61/88/75 60/86/75 113/171/75 114/173/75
f 51/74/76 50/71/76 117/178/76 118/181/76
s 0
f 50/72/77 71/102/77 116/177/77 117/179/77
s 1
f 83/120/78 82/118/78 119/183/78 120/185/78
l 60 71
l 61 70
