g Leaf4Tris
v -0.2936531 0.01914328 -0.4965773
v 0.2936594 -0.01914966 -0.4965773
v 0.2310334 0.01638603 0.3732275
v -0.2337456 -0.0194003 0.3732275
v 0.2310334 0.01638603 0.3732275
v 0.0003888011 -0.01689374 0.5637667
v -0.2337456 -0.0194003 0.3732275
v -0.2936531 0.01914328 -0.4965773
v 3.159046E-06 -3.159046E-06 -0.6998422
v 0.2936594 -0.01914966 -0.4965773
vt 0 1
vt 1 1
vt 1 0
vt 0 0
vt 0 0
vt 0.5004888 1
vt 1 0
vt 0 0
vt 0.5004888 1
vt 1 0
vn 0.002431564 0.9999957 0.001637745
vn 0.002431564 0.9999957 0.001637745
vn 0.002431564 0.9999957 0.001637745
vn 0.002431564 0.9999957 0.001637745
vn -0.07692727 0.995819 0.04926259
vn -0.07692727 0.995819 0.04926259
vn -0.07692727 0.995819 0.04926259
vn 0.06508327 0.995819 -0.06409982
vn 0.06508327 0.995819 -0.06409982
vn 0.06508327 0.995819 -0.06409982
g Leaf4Tris_0
f 3/3/3 2/2/2 1/1/1
f 4/4/4 3/3/3 1/1/1
f 7/7/7 6/6/6 5/5/5
f 10/10/10 9/9/9 8/8/8
