# Blender 4.3.0
# www.blender.org
mtllib leaf.mtl
o Cube
v 0.079640 -0.022486 -1.789019
v 0.079640 0.022486 -1.789019
v 0.079640 -0.022486 1.789019
v 0.079640 0.022486 1.789019
v -0.079640 -0.022486 -1.789019
v -0.079640 0.022486 -1.789019
v -0.079640 -0.022486 1.789019
v -0.079640 0.022486 1.789019
v 0.000000 0.022486 -2.043119
v 0.000000 -0.022486 1.807239
v 0.000000 0.022486 1.807239
v 0.000000 -0.022486 -2.043119
v -0.765562 0.022486 -0.894509
v -1.000000 0.065360 0.000000
v -0.765562 0.022486 0.894509
v 0.765562 -0.022486 -0.894509
v 1.000000 0.020388 0.000000
v 0.765562 -0.022486 0.894509
v -0.765562 -0.022486 0.894509
v -1.000000 0.020388 0.000000
v -0.765562 -0.022486 -0.894509
v 0.765562 0.022486 0.894509
v 1.000000 0.065360 0.000000
v 0.765562 0.022486 -0.894509
v 0.000000 0.022486 -0.894509
v 0.000000 0.065360 0.000000
v 0.000000 0.022486 0.894509
v 0.000000 -0.022486 -0.894509
v 0.000000 0.020388 0.000000
v 0.000000 -0.022486 0.894509
vn -0.0000 -1.0000 -0.0000
vn -0.2230 -0.0000 0.9748
vn -0.7935 -0.0000 -0.6085
vn -0.0000 1.0000 -0.0000
vn 0.7935 -0.0000 0.6085
vn 0.9542 -0.0000 -0.2991
vn -0.9542 -0.0000 -0.2991
vn 0.2230 -0.0000 0.9748
vn -0.0000 -0.9989 0.0479
vn -0.0000 -0.9989 -0.0479
vn -0.0000 0.9989 -0.0479
vn -0.0000 0.9989 0.0479
vn 0.7935 -0.0000 -0.6085
vn 0.9673 -0.0000 -0.2535
vn 0.9673 -0.0000 0.2535
vn -0.7935 -0.0000 0.6085
vn -0.9673 -0.0000 0.2535
vn -0.9673 -0.0000 -0.2535
vt 0.750000 0.687500
vt 0.875000 0.687500
vt 0.875000 0.750000
vt 0.750000 0.750000
vt 0.375000 0.875000
vt 0.625000 0.875000
vt 0.625000 1.000000
vt 0.375000 1.000000
vt 0.375000 0.187500
vt 0.625000 0.187500
vt 0.625000 0.250000
vt 0.375000 0.250000
vt 0.250000 0.687500
vt 0.375000 0.687500
vt 0.375000 0.750000
vt 0.250000 0.750000
vt 0.625000 0.687500
vt 0.625000 0.750000
vt 0.375000 0.375000
vt 0.625000 0.375000
vt 0.625000 0.500000
vt 0.375000 0.500000
vt 0.125000 0.687500
vt 0.125000 0.750000
vt 0.750000 0.500000
vt 0.750000 0.562500
vt 0.625000 0.562500
vt 0.750000 0.625000
vt 0.625000 0.625000
vt 0.125000 0.500000
vt 0.250000 0.500000
vt 0.250000 0.562500
vt 0.125000 0.562500
vt 0.250000 0.625000
vt 0.125000 0.625000
vt 0.375000 0.562500
vt 0.375000 0.625000
vt 0.375000 0.000000
vt 0.625000 0.000000
vt 0.625000 0.062500
vt 0.375000 0.062500
vt 0.625000 0.125000
vt 0.375000 0.125000
vt 0.875000 0.500000
vt 0.875000 0.562500
vt 0.875000 0.625000
s 0
usemtl Material
f 30/1/1 10/4/1 7/3/1 19/2/1
f 11/5/2 8/8/2 7/7/2 10/6/2
f 13/9/3 6/12/3 5/11/3 21/10/3
f 27/13/4 11/16/4 4/15/4 22/14/4
f 22/14/5 4/15/5 3/18/5 18/17/5
f 9/19/6 2/22/6 1/21/6 12/20/6
f 6/12/7 9/19/7 12/20/7 5/11/7
f 15/23/4 8/24/4 11/16/4 27/13/4
f 4/15/8 11/5/8 10/6/8 3/18/8
f 18/17/1 3/18/1 10/4/1 30/1/1
f 1/21/1 16/27/1 28/26/1 12/25/1
f 16/27/9 17/29/9 29/28/9 28/26/9
f 17/29/10 18/17/10 30/1/10 29/28/10
f 6/30/4 13/33/4 25/32/4 9/31/4
f 13/33/11 14/35/11 26/34/11 25/32/11
f 14/35/12 15/23/12 27/13/12 26/34/12
f 2/22/13 24/36/13 16/27/13 1/21/13
f 24/36/14 23/37/14 17/29/14 16/27/14
f 23/37/15 22/14/15 18/17/15 17/29/15
f 9/31/4 25/32/4 24/36/4 2/22/4
f 25/32/11 26/34/11 23/37/11 24/36/11
f 26/34/12 27/13/12 22/14/12 23/37/12
f 8/38/16 15/41/16 19/40/16 7/39/16
f 15/41/17 14/43/17 20/42/17 19/40/17
f 14/43/18 13/9/18 21/10/18 20/42/18
f 12/25/1 28/26/1 21/45/1 5/44/1
f 28/26/9 29/28/9 20/46/9 21/45/9
f 29/28/10 30/1/10 19/2/10 20/46/10
