# exported by gszh.xyz
mtllib gszh_xyz.mtl
g SM_Env_Lillypads_01
v 5.033740997314453 2.2688705921173096 32.794010162353516
v 5.083205223083496 0 32.794010162353516
v 13.456338882446289 0 29.725587844848633
v 5.033740997314453 2.2688705921173096 32.794010162353516
v 13.456338882446289 0 29.725587844848633
v 13.456338882446289 2.2688705921173096 29.725587844848633
v 2.996565580368042 2.2688705921173096 4.063050270080566
v 3.9559359550476074 2.2688705921173096 24.043241500854492
v 17.268434524536133 2.2688705921173096 19.26581573486328
v 2.996565580368042 2.2688705921173096 4.063050270080566
v 17.268434524536133 2.2688705921173096 19.26581573486328
v 13.456338882446289 2.2688705921173096 8.806041717529297
v 2.996565580368042 0 4.063050270080566
v 2.996565580368042 2.2688705921173096 4.063050270080566
v 13.456338882446289 2.2688705921173096 8.806041717529297
v 2.996565580368042 0 4.063050270080566
v 13.456338882446289 2.2688705921173096 8.806041717529297
v 13.456338882446289 0 8.806041717529297
v 17.268434524536133 0 19.26581573486328
v 3.9559359550476074 0 24.043241500854492
v 2.996565580368042 0 4.063050270080566
v 17.268434524536133 0 19.26581573486328
v 2.996565580368042 0 4.063050270080566
v 13.456338882446289 0 8.806041717529297
v 17.268434524536133 2.2688705921173096 19.26581573486328
v 17.268434524536133 0 19.26581573486328
v 13.456338882446289 0 8.806041717529297
v 17.268434524536133 2.2688705921173096 19.26581573486328
v 13.456338882446289 0 8.806041717529297
v 13.456338882446289 2.2688705921173096 8.806041717529297
v -7.463207721710205 0 8.806041717529297
v -11.275303840637207 0 19.26581573486328
v -11.275303840637207 2.2688705921173096 19.26581573486328
v -7.463207721710205 0 8.806041717529297
v -11.275303840637207 2.2688705921173096 19.26581573486328
v -7.463207721710205 2.2688705921173096 8.806041717529297
v -7.463207721710205 0 29.725587844848633
v 0.5937992334365845 0 33.65591049194336
v 0.5937992334365845 2.2688705921173096 33.65591049194336
v -7.463207721710205 0 29.725587844848633
v 0.5937992334365845 2.2688705921173096 33.65591049194336
v -7.463207721710205 2.2688705921173096 29.725587844848633
v -7.463207721710205 0 8.806041717529297
v 2.996565580368042 0 4.063050270080566
v 3.9559359550476074 0 24.043241500854492
v -7.463207721710205 0 8.806041717529297
v 3.9559359550476074 0 24.043241500854492
v -11.275303840637207 0 19.26581573486328
v -7.463207721710205 2.2688705921173096 8.806041717529297
v 2.996565580368042 2.2688705921173096 4.063050270080566
v 2.996565580368042 0 4.063050270080566
v -7.463207721710205 2.2688705921173096 8.806041717529297
v 2.996565580368042 0 4.063050270080566
v -7.463207721710205 0 8.806041717529297
v -11.275303840637207 2.2688705921173096 19.26581573486328
v 3.9559359550476074 2.2688705921173096 24.043241500854492
v 2.996565580368042 2.2688705921173096 4.063050270080566
v -11.275303840637207 2.2688705921173096 19.26581573486328
v 2.996565580368042 2.2688705921173096 4.063050270080566
v -7.463207721710205 2.2688705921173096 8.806041717529297
v -7.463207721710205 2.2688705921173096 29.725587844848633
v 0.5937992334365845 2.2688705921173096 33.65591049194336
v 3.9559359550476074 2.2688705921173096 24.043241500854492
v -7.463207721710205 2.2688705921173096 29.725587844848633
v 3.9559359550476074 2.2688705921173096 24.043241500854492
v -11.275303840637207 2.2688705921173096 19.26581573486328
v 17.268434524536133 2.2688705921173096 19.26581573486328
v 3.9559359550476074 2.2688705921173096 24.043241500854492
v 5.033740997314453 2.2688705921173096 32.794010162353516
v 17.268434524536133 2.2688705921173096 19.26581573486328
v 5.033740997314453 2.2688705921173096 32.794010162353516
v 13.456338882446289 2.2688705921173096 29.725587844848633
v 13.456338882446289 0 29.725587844848633
v 17.268434524536133 0 19.26581573486328
v 17.268434524536133 2.2688705921173096 19.26581573486328
v 13.456338882446289 0 29.725587844848633
v 17.268434524536133 2.2688705921173096 19.26581573486328
v 13.456338882446289 2.2688705921173096 29.725587844848633
v 5.083205223083496 0 32.794010162353516
v 3.9559359550476074 0 24.043241500854492
v 17.268434524536133 0 19.26581573486328
v 5.083205223083496 0 32.794010162353516
v 17.268434524536133 0 19.26581573486328
v 13.456338882446289 0 29.725587844848633
v -11.275303840637207 0 19.26581573486328
v 3.9559359550476074 0 24.043241500854492
v 0.5937992334365845 0 33.65591049194336
v -11.275303840637207 0 19.26581573486328
v 0.5937992334365845 0 33.65591049194336
v -7.463207721710205 0 29.725587844848633
v -11.275303840637207 2.2688705921173096 19.26581573486328
v -11.275303840637207 0 19.26581573486328
v -7.463207721710205 0 29.725587844848633
v -11.275303840637207 2.2688705921173096 19.26581573486328
v -7.463207721710205 0 29.725587844848633
v -7.463207721710205 2.2688705921173096 29.725587844848633
v 0.5937992334365845 0 33.65591049194336
v 3.9559359550476074 0 24.043241500854492
v 3.9559359550476074 2.2688705921173096 24.043241500854492
v 0.5937992334365845 0 33.65591049194336
v 3.9559359550476074 2.2688705921173096 24.043241500854492
v 0.5937992334365845 2.2688705921173096 33.65591049194336
v 3.9559359550476074 2.2688705921173096 24.043241500854492
v 3.9559359550476074 0 24.043241500854492
v 5.083205223083496 0 32.794010162353516
v 3.9559359550476074 2.2688705921173096 24.043241500854492
v 5.083205223083496 0 32.794010162353516
v 5.033740997314453 2.2688705921173096 32.794010162353516
v 42.00112533569336 1.9138671159744263 0.7706279754638672
v 41.9966926574707 0 0.7291393280029297
v 38.672733306884766 0 -6.01895809173584
v 42.00112533569336 1.9138671159744263 0.7706279754638672
v 38.672733306884766 0 -6.01895809173584
v 38.672733306884766 1.9138671159744263 -6.01895809173584
v 18.085289001464844 1.9138671159744263 5.053827285766602
v 34.757911682128906 1.9138671159744263 2.4587783813476562
v 29.55790138244629 1.9138671159744263 -8.27912425994873
v 18.085289001464844 1.9138671159744263 5.053827285766602
v 29.55790138244629 1.9138671159744263 -8.27912425994873
v 21.126251220703125 1.9138671159744263 -4.144418716430664
v 18.085289001464844 0 5.053827285766602
v 18.085289001464844 1.9138671159744263 5.053827285766602
v 21.126251220703125 1.9138671159744263 -4.144418716430664
v 18.085289001464844 0 5.053827285766602
v 21.126251220703125 1.9138671159744263 -4.144418716430664
v 21.126251220703125 0 -4.144418716430664
v 29.55790138244629 0 -8.27912425994873
v 34.757911682128906 0 2.4587783813476562
v 18.085289001464844 0 5.053827285766602
v 29.55790138244629 0 -8.27912425994873
v 18.085289001464844 0 5.053827285766602
v 21.126251220703125 0 -4.144418716430664
v 29.55790138244629 1.9138671159744263 -8.27912425994873
v 29.55790138244629 0 -8.27912425994873
v 21.126251220703125 0 -4.144418716430664
v 29.55790138244629 1.9138671159744263 -8.27912425994873
v 21.126251220703125 0 -4.144418716430664
v 21.126251220703125 1.9138671159744263 -4.144418716430664
v 23.000791549682617 0 13.40206241607666
v 32.115623474121094 0 15.662225723266602
v 32.115623474121094 1.9138671159744263 15.662225723266602
v 23.000791549682617 0 13.40206241607666
v 32.115623474121094 1.9138671159744263 15.662225723266602
v 23.000791549682617 1.9138671159744263 13.40206241607666
v 40.547271728515625 0 11.527521133422852
v 43.12190246582031 0 4.417440414428711
v 43.12190246582031 1.9138671159744263 4.417440414428711
v 40.547271728515625 0 11.527521133422852
v 43.12190246582031 1.9138671159744263 4.417440414428711
v 40.547271728515625 1.9138671159744263 11.527521133422852
v 23.000791549682617 0 13.40206241607666
v 18.085289001464844 0 5.053827285766602
v 34.757911682128906 0 2.4587783813476562
v 23.000791549682617 0 13.40206241607666
v 34.757911682128906 0 2.4587783813476562
v 32.115623474121094 0 15.662225723266602
v 23.000791549682617 1.9138671159744263 13.40206241607666
v 18.085289001464844 1.9138671159744263 5.053827285766602
v 18.085289001464844 0 5.053827285766602
v 23.000791549682617 1.9138671159744263 13.40206241607666
v 18.085289001464844 0 5.053827285766602
v 23.000791549682617 0 13.40206241607666
v 32.115623474121094 1.9138671159744263 15.662225723266602
v 34.757911682128906 1.9138671159744263 2.4587783813476562
v 18.085289001464844 1.9138671159744263 5.053827285766602
v 32.115623474121094 1.9138671159744263 15.662225723266602
v 18.085289001464844 1.9138671159744263 5.053827285766602
v 23.000791549682617 1.9138671159744263 13.40206241607666
v 40.547271728515625 1.9138671159744263 11.527521133422852
v 43.12190246582031 1.9138671159744263 4.417440414428711
v 34.757911682128906 1.9138671159744263 2.4587783813476562
v 40.547271728515625 1.9138671159744263 11.527521133422852
v 34.757911682128906 1.9138671159744263 2.4587783813476562
v 32.115623474121094 1.9138671159744263 15.662225723266602
v 29.55790138244629 1.9138671159744263 -8.27912425994873
v 34.757911682128906 1.9138671159744263 2.4587783813476562
v 42.00112533569336 1.9138671159744263 0.7706279754638672
v 29.55790138244629 1.9138671159744263 -8.27912425994873
v 42.00112533569336 1.9138671159744263 0.7706279754638672
v 38.672733306884766 1.9138671159744263 -6.01895809173584
v 38.672733306884766 0 -6.01895809173584
v 29.55790138244629 0 -8.27912425994873
v 29.55790138244629 1.9138671159744263 -8.27912425994873
v 38.672733306884766 0 -6.01895809173584
v 29.55790138244629 1.9138671159744263 -8.27912425994873
v 38.672733306884766 1.9138671159744263 -6.01895809173584
v 41.9966926574707 0 0.7291393280029297
v 34.757911682128906 0 2.4587783813476562
v 29.55790138244629 0 -8.27912425994873
v 41.9966926574707 0 0.7291393280029297
v 29.55790138244629 0 -8.27912425994873
v 38.672733306884766 0 -6.01895809173584
v 32.115623474121094 0 15.662225723266602
v 34.757911682128906 0 2.4587783813476562
v 43.12190246582031 0 4.417440414428711
v 32.115623474121094 0 15.662225723266602
v 43.12190246582031 0 4.417440414428711
v 40.547271728515625 0 11.527521133422852
v 32.115623474121094 1.9138671159744263 15.662225723266602
v 32.115623474121094 0 15.662225723266602
v 40.547271728515625 0 11.527521133422852
v 32.115623474121094 1.9138671159744263 15.662225723266602
v 40.547271728515625 0 11.527521133422852
v 40.547271728515625 1.9138671159744263 11.527521133422852
v 43.12190246582031 0 4.417440414428711
v 34.757911682128906 0 2.4587783813476562
v 34.757911682128906 1.9138671159744263 2.4587783813476562
v 43.12190246582031 0 4.417440414428711
v 34.757911682128906 1.9138671159744263 2.4587783813476562
v 43.12190246582031 1.9138671159744263 4.417440414428711
v 34.757911682128906 1.9138671159744263 2.4587783813476562
v 34.757911682128906 0 2.4587783813476562
v 41.9966926574707 0 0.7291393280029297
v 34.757911682128906 1.9138671159744263 2.4587783813476562
v 41.9966926574707 0 0.7291393280029297
v 42.00112533569336 1.9138671159744263 0.7706279754638672
v -37.58613204956055 1.9138671159744263 -31.527681350708008
v -37.62456130981445 0 -31.511432647705078
v -43.12190246582031 0 -26.376771926879883
v -37.58613204956055 1.9138671159744263 -31.527681350708008
v -43.12190246582031 0 -26.376771926879883
v -43.12190246582031 1.9138671159744263 -26.376771926879883
v -26.564828872680664 1.9138671159744263 -9.874876022338867
v -33.87398910522461 1.9138671159744263 -25.082990646362305
v -42.647457122802734 1.9138671159744263 -16.997894287109375
v -26.564828872680664 1.9138671159744263 -9.874876022338867
v -42.647457122802734 1.9138671159744263 -16.997894287109375
v -36.2495231628418 1.9138671159744263 -10.123674392700195
v -26.564828872680664 0 -9.874876022338867
v -26.564828872680664 1.9138671159744263 -9.874876022338867
v -36.2495231628418 1.9138671159744263 -10.123674392700195
v -26.564828872680664 0 -9.874876022338867
v -36.2495231628418 1.9138671159744263 -10.123674392700195
v -36.2495231628418 0 -10.123674392700195
v -42.647457122802734 0 -16.997894287109375
v -33.87398910522461 0 -25.082990646362305
v -26.564828872680664 0 -9.874876022338867
v -42.647457122802734 0 -16.997894287109375
v -26.564828872680664 0 -9.874876022338867
v -36.2495231628418 0 -10.123674392700195
v -42.647457122802734 1.9138671159744263 -16.997894287109375
v -42.647457122802734 0 -16.997894287109375
v -36.2495231628418 0 -10.123674392700195
v -42.647457122802734 1.9138671159744263 -16.997894287109375
v -36.2495231628418 0 -10.123674392700195
v -36.2495231628418 1.9138671159744263 -10.123674392700195
v -19.99642562866211 0 -16.99605941772461
v -20.470870971679688 0 -26.37493896484375
v -20.470870971679688 1.9138671159744263 -26.37493896484375
v -19.99642562866211 0 -16.99605941772461
v -20.470870971679688 1.9138671159744263 -26.37493896484375
v -19.99642562866211 1.9138671159744263 -16.99605941772461
v -26.86880874633789 0 -33.24915313720703
v -34.41973876953125 0 -33.65591049194336
v -34.41973876953125 1.9138671159744263 -33.65591049194336
v -26.86880874633789 0 -33.24915313720703
v -34.41973876953125 1.9138671159744263 -33.65591049194336
v -26.86880874633789 1.9138671159744263 -33.24915313720703
v -19.99642562866211 0 -16.99605941772461
v -26.564828872680664 0 -9.874876022338867
v -33.87398910522461 0 -25.082990646362305
v -19.99642562866211 0 -16.99605941772461
v -33.87398910522461 0 -25.082990646362305
v -20.470870971679688 0 -26.37493896484375
v -19.99642562866211 1.9138671159744263 -16.99605941772461
v -26.564828872680664 1.9138671159744263 -9.874876022338867
v -26.564828872680664 0 -9.874876022338867
v -19.99642562866211 1.9138671159744263 -16.99605941772461
v -26.564828872680664 0 -9.874876022338867
v -19.99642562866211 0 -16.99605941772461
v -20.470870971679688 1.9138671159744263 -26.37493896484375
v -33.87398910522461 1.9138671159744263 -25.082990646362305
v -26.564828872680664 1.9138671159744263 -9.874876022338867
v -20.470870971679688 1.9138671159744263 -26.37493896484375
v -26.564828872680664 1.9138671159744263 -9.874876022338867
v -19.99642562866211 1.9138671159744263 -16.99605941772461
v -26.86880874633789 1.9138671159744263 -33.24915313720703
v -34.41973876953125 1.9138671159744263 -33.65591049194336
v -33.87398910522461 1.9138671159744263 -25.082990646362305
v -26.86880874633789 1.9138671159744263 -33.24915313720703
v -33.87398910522461 1.9138671159744263 -25.082990646362305
v -20.470870971679688 1.9138671159744263 -26.37493896484375
v -42.647457122802734 1.9138671159744263 -16.997894287109375
v -33.87398910522461 1.9138671159744263 -25.082990646362305
v -37.58613204956055 1.9138671159744263 -31.527681350708008
v -42.647457122802734 1.9138671159744263 -16.997894287109375
v -37.58613204956055 1.9138671159744263 -31.527681350708008
v -43.12190246582031 1.9138671159744263 -26.376771926879883
v -43.12190246582031 0 -26.376771926879883
v -42.647457122802734 0 -16.997894287109375
v -42.647457122802734 1.9138671159744263 -16.997894287109375
v -43.12190246582031 0 -26.376771926879883
v -42.647457122802734 1.9138671159744263 -16.997894287109375
v -43.12190246582031 1.9138671159744263 -26.376771926879883
v -37.62456130981445 0 -31.511432647705078
v -33.87398910522461 0 -25.082990646362305
v -42.647457122802734 0 -16.997894287109375
v -37.62456130981445 0 -31.511432647705078
v -42.647457122802734 0 -16.997894287109375
v -43.12190246582031 0 -26.376771926879883
v -20.470870971679688 0 -26.37493896484375
v -33.87398910522461 0 -25.082990646362305
v -34.41973876953125 0 -33.65591049194336
v -20.470870971679688 0 -26.37493896484375
v -34.41973876953125 0 -33.65591049194336
v -26.86880874633789 0 -33.24915313720703
v -20.470870971679688 1.9138671159744263 -26.37493896484375
v -20.470870971679688 0 -26.37493896484375
v -26.86880874633789 0 -33.24915313720703
v -20.470870971679688 1.9138671159744263 -26.37493896484375
v -26.86880874633789 0 -33.24915313720703
v -26.86880874633789 1.9138671159744263 -33.24915313720703
v -34.41973876953125 0 -33.65591049194336
v -33.87398910522461 0 -25.082990646362305
v -33.87398910522461 1.9138671159744263 -25.082990646362305
v -34.41973876953125 0 -33.65591049194336
v -33.87398910522461 1.9138671159744263 -25.082990646362305
v -34.41973876953125 1.9138671159744263 -33.65591049194336
v -33.87398910522461 1.9138671159744263 -25.082990646362305
v -33.87398910522461 0 -25.082990646362305
v -37.62456130981445 0 -31.511432647705078
v -33.87398910522461 1.9138671159744263 -25.082990646362305
v -37.62456130981445 0 -31.511432647705078
v -37.58613204956055 1.9138671159744263 -31.527681350708008
vn 0.34318774938583374 0.003740917891263962 0.9392593502998352
vn 0.34318771958351135 0.0037409181240946054 0.93925940990448
vn 0.34318771958351135 0.0037409181240946054 0.93925940990448
vn 0.34318774938583374 0.003740917891263962 0.9392593502998352
vn 0.34318771958351135 0.0037409181240946054 0.93925940990448
vn 0.34318771958351135 0.0037409181240946054 0.93925940990448
vn 0 1 -1.5386074636580815e-8
vn 0 1 -1.06583257775128e-8
vn 0 1 -1.0327440236324037e-8
vn 0 1 -1.5386074636580815e-8
vn 0 1 -1.0327440236324037e-8
vn 0 1 -1.0540873951470076e-8
vn 0 0 -1
vn 0 0 -1
vn 0.4129764437675476 0 -0.9107416868209839
vn 0 0 -1
vn 0.4129764437675476 0 -0.9107416868209839
vn 0.4129764437675476 0 -0.9107416868209839
vn 0 -1 0
vn 0 -1 0
vn 0 -1 0
vn 0 -1 0
vn 0 -1 0
vn 0 -1 0
vn 1 0 1.2791403491974052e-8
vn 1 0 1.2791403491974052e-8
vn 0.9395467638969421 0 -0.3424205780029297
vn 1 0 1.2791403491974052e-8
vn 0.9395467638969421 0 -0.3424205780029297
vn 0.9395467638969421 0 -0.3424205780029297
vn -0.9395467638969421 0 -0.34242063760757446
vn -1 0 0
vn -1 0 0
vn -0.9395467638969421 0 -0.34242063760757446
vn -1 0 0
vn -0.9395467638969421 0 -0.34242063760757446
vn -0.4384305477142334 0 0.8987650871276855
vn -0.4384305477142334 0 0.8987650871276855
vn -0.4384305477142334 0 0.8987650871276855
vn -0.4384305477142334 0 0.8987650871276855
vn -0.4384305477142334 0 0.8987650871276855
vn -0.4384305477142334 0 0.8987650871276855
vn 0 -1 0
vn 0 -1 0
vn 0 -1 0
vn 0 -1 0
vn 0 -1 0
vn 0 -1 0
vn -0.4129764437675476 0 -0.9107416868209839
vn 0 0 -1
vn 0 0 -1
vn -0.4129764437675476 0 -0.9107416868209839
vn 0 0 -1
vn -0.4129764437675476 0 -0.9107416868209839
vn 0 1 -1.4382528057410582e-8
vn 0 1 -1.06583257775128e-8
vn 0 1 -1.5386074636580815e-8
vn 0 1 -1.4382528057410582e-8
vn 0 1 -1.5386074636580815e-8
vn 0 1 -1.9509233339931598e-8
vn 0 1 0
vn 0 1 0
vn 0 1 -1.06583257775128e-8
vn 0 1 0
vn 0 1 -1.06583257775128e-8
vn 0 1 -1.4382528057410582e-8
vn 0 1 -1.0327440236324037e-8
vn 0 1 -1.06583257775128e-8
vn 0 1 -9.630882757960535e-9
vn 0 1 -1.0327440236324037e-8
vn 0 1 -9.630882757960535e-9
vn 0 1 -9.630883646138955e-9
vn 0.9395467638969421 0 0.34242066740989685
vn 1 0 1.2791403491974052e-8
vn 1 0 1.2791403491974052e-8
vn 0.9395467638969421 0 0.34242066740989685
vn 1 0 1.2791403491974052e-8
vn 0.9395467638969421 0 0.34242066740989685
vn 0 -1 0
vn 0 -1 0
vn 0 -1 0
vn 0 -1 0
vn 0 -1 0
vn 0 -1 0
vn 0 -1 0
vn 0 -1 0
vn 0 -1 0
vn 0 -1 0
vn 0 -1 0
vn 0 -1 0
vn -1 0 0
vn -1 0 0
vn -0.9395467042922974 0 0.34242069721221924
vn -1 0 0
vn -0.9395467042922974 0 0.34242069721221924
vn -0.9395467042922974 0 0.34242069721221924
vn 0.9439286589622498 0 0.33014941215515137
vn 0.18950796127319336 -0.02097274735569954 0.9816551804542542
vn 0.18950796127319336 -0.02097274735569954 0.9816551804542542
vn 0.9439286589622498 0 0.33014941215515137
vn 0.18950796127319336 -0.02097274735569954 0.9816551804542542
vn 0.9439286589622498 0 0.33014941215515137
vn 0.18950796127319336 -0.02097274735569954 0.9816551804542542
vn 0.18950796127319336 -0.02097274735569954 0.9816551804542542
vn -0.9920980930328369 -0.010814202949404716 0.1249975934624672
vn 0.18950796127319336 -0.02097274735569954 0.9816551804542542
vn -0.9920980930328369 -0.010814202949404716 0.1249975934624672
vn -0.9920980930328369 -0.010814202018082142 0.1249975860118866
vn 0.8974887132644653 0.0037421928718686104 -0.44102150201797485
vn 0.8974887132644653 0.0037421928718686104 -0.44102153182029724
vn 0.8974887132644653 0.0037421928718686104 -0.44102150201797485
vn 0.8974887132644653 0.0037421928718686104 -0.44102150201797485
vn 0.8974887132644653 0.0037421928718686104 -0.44102150201797485
vn 0.8974887132644653 0.0037421928718686104 -0.44102150201797485
vn 0 1 6.810662256384603e-9
vn 0 1 -1.6855830065054533e-9
vn 0 1 4.990297064466631e-9
vn 0 1 6.810662256384603e-9
vn 0 1 4.990297064466631e-9
vn 0 1 1.4814001580987224e-8
vn -0.9943417906761169 0 0.10622834414243698
vn -0.9943417906761169 0 0.10622834414243698
vn -0.9494583010673523 0 -0.3138931393623352
vn -0.9943417906761169 0 0.10622834414243698
vn -0.9494583010673523 0 -0.3138931393623352
vn -0.9494583010673523 0 -0.3138931393623352
vn 0 -1 0
vn 0 -1 0
vn 0 -1 0
vn 0 -1 0
vn 0 -1 0
vn 0 -1 0
vn -0.106228306889534 0 -0.9943417906761169
vn -0.106228306889534 0 -0.9943417906761169
vn -0.4402897357940674 0 -0.8978557586669922
vn -0.106228306889534 0 -0.9943417906761169
vn -0.4402897357940674 0 -0.8978557586669922
vn -0.4402897357940674 0 -0.8978557586669922
vn -0.24067653715610504 0 0.9706053733825684
vn 0.10622842609882355 0 0.9943417310714722
vn 0.10622842609882355 0 0.9943417310714722
vn -0.24067653715610504 0 0.9706053733825684
vn 0.10622842609882355 0 0.9943417310714722
vn -0.24067653715610504 0 0.9706053733825684
vn 0.9402535557746887 0 0.3404751121997833
vn 0.9402535557746887 0 0.3404751121997833
vn 0.9402535557746887 0 0.3404751121997833
vn 0.9402535557746887 0 0.3404751121997833
vn 0.9402535557746887 0 0.3404751121997833
vn 0.9402535557746887 0 0.3404751121997833
vn 0 -1 0
vn 0 -1 0
vn 0 -1 0
vn 0 -1 0
vn 0 -1 0
vn 0 -1 0
vn -0.8617187142372131 0 0.5073862671852112
vn -0.9943417906761169 0 0.10622834414243698
vn -0.9943417906761169 0 0.10622834414243698
vn -0.8617187142372131 0 0.5073862671852112
vn -0.9943417906761169 0 0.10622834414243698
vn -0.8617187142372131 0 0.5073862671852112
vn 0 1 0
vn 0 1 -1.6855830065054533e-9
vn 0 1 6.810662256384603e-9
vn 0 1 0
vn 0 1 6.810662256384603e-9
vn 0 1 0
vn 0 1 0
vn 0 1 0
vn 0 1 -1.6855830065054533e-9
vn 0 1 0
vn 0 1 -1.6855830065054533e-9
vn 0 1 0
vn 0 1 4.990297064466631e-9
vn 0 1 -1.6855830065054533e-9
vn 0 1 -2.7070225172565188e-8
vn 0 1 4.990297064466631e-9
vn 0 1 -2.7070225172565188e-8
vn 0 1 -2.7070225172565188e-8
vn 0.2406768500804901 0 -0.9706053137779236
vn -0.106228306889534 0 -0.9943417906761169
vn -0.106228306889534 0 -0.9943417906761169
vn 0.2406768500804901 0 -0.9706053137779236
vn -0.106228306889534 0 -0.9943417906761169
vn 0.2406768500804901 0 -0.9706053137779236
vn 0 -1 0
vn 0 -1 0
vn 0 -1 0
vn 0 -1 0
vn 0 -1 0
vn 0 -1 0
vn 0 -1 0
vn 0 -1 0
vn 0 -1 0
vn 0 -1 0
vn 0 -1 0
vn 0 -1 0
vn 0.10622842609882355 0 0.9943417310714722
vn 0.10622842609882355 0 0.9943417310714722
vn 0.4402897357940674 0 0.8978557586669922
vn 0.10622842609882355 0 0.9943417310714722
vn 0.4402897357940674 0 0.8978557586669922
vn 0.4402897357940674 0 0.8978557586669922
vn 0.2280094474554062 0 -0.9736589193344116
vn 0.9559698700904846 -0.02097262814640999 -0.2927144467830658
vn 0.9559698700904846 -0.02097262814640999 -0.2927144467830658
vn 0.2280094474554062 0 -0.9736589193344116
vn 0.9559698700904846 -0.02097262814640999 -0.2927144467830658
vn 0.2280094474554062 0 -0.9736589193344116
vn 0.9559698700904846 -0.02097262814640999 -0.2927144467830658
vn 0.9559698700904846 -0.02097262814640999 -0.2927144467830658
vn 0.22967928647994995 -0.010814142413437366 0.9732062816619873
vn 0.9559698700904846 -0.02097262814640999 -0.2927144467830658
vn 0.22967928647994995 -0.010814142413437366 0.9732062816619873
vn 0.22967927157878876 -0.010814140550792217 0.9732062816619873
vn -0.681888222694397 0.0037400792352855206 -0.7314468622207642
vn -0.6818882822990417 0.0037400799337774515 -0.7314468026161194
vn -0.6818882822990417 0.0037400792352855206 -0.7314468026161194
vn -0.681888222694397 0.0037400792352855206 -0.7314468622207642
vn -0.6818882822990417 0.0037400792352855206 -0.7314468026161194
vn -0.6818882822990417 0.0037400792352855206 -0.7314468026161194
vn 0 1 2.0830392966075806e-9
vn 0 1 2.3889930034215467e-9
vn 0 1 1.3888807881556886e-9
vn 0 1 2.0830392966075806e-9
vn 0 1 1.3888807881556886e-9
vn 0 1 0
vn 0.3894512951374054 0 0.9210470914840698
vn 0.3894512951374054 0 0.9210470914840698
vn -0.025681419298052788 0 0.9996702075004578
vn 0.3894512951374054 0 0.9210470914840698
vn -0.025681419298052788 0 0.9996702075004578
vn -0.025681419298052788 0 0.9996702075004578
vn 0 -1 0
vn 0 -1 0
vn 0 -1 0
vn 0 -1 0
vn 0 -1 0
vn 0 -1 0
vn -0.9210471510887146 0 0.3894510269165039
vn -0.9210471510887146 0 0.3894510269165039
vn -0.7320109009742737 0 0.6812929511070251
vn -0.9210471510887146 0 0.3894510269165039
vn -0.7320109009742737 0 0.6812929511070251
vn -0.7320109009742737 0 0.6812929511070251
vn 0.9987229704856873 0 -0.05052197352051735
vn 0.9210470914840698 0 -0.389451265335083
vn 0.9210470914840698 0 -0.389451265335083
vn 0.9987229704856873 0 -0.05052197352051735
vn 0.9210470914840698 0 -0.389451265335083
vn 0.9987229704856873 0 -0.05052197352051735
vn 0.05379059910774231 0 -0.9985522627830505
vn 0.05379059910774231 0 -0.9985522627830505
vn 0.05379059910774231 0 -0.9985522627830505
vn 0.05379059910774231 0 -0.9985522627830505
vn 0.05379059910774231 0 -0.9985522627830505
vn 0.05379059910774231 0 -0.9985522627830505
vn 0 -1 0
vn 0 -1 0
vn 0 -1 0
vn 0 -1 0
vn 0 -1 0
vn 0 -1 0
vn 0.735060453414917 0 0.6780015826225281
vn 0.3894512951374054 0 0.9210470914840698
vn 0.3894512951374054 0 0.9210470914840698
vn 0.735060453414917 0 0.6780015826225281
vn 0.3894512951374054 0 0.9210470914840698
vn 0.735060453414917 0 0.6780015826225281
vn 0 1 2.842454716045495e-9
vn 0 1 2.3889930034215467e-9
vn 0 1 2.0830392966075806e-9
vn 0 1 2.842454716045495e-9
vn 0 1 2.0830392966075806e-9
vn 0 1 3.855658015083918e-9
vn 0 1 0
vn 0 1 0
vn 0 1 2.3889930034215467e-9
vn 0 1 0
vn 0 1 2.3889930034215467e-9
vn 0 1 2.842454716045495e-9
vn 0 1 1.3888807881556886e-9
vn 0 1 2.3889930034215467e-9
vn 0 1 5.9216169745468505e-9
vn 0 1 1.3888807881556886e-9
vn 0 1 5.9216169745468505e-9
vn 0 1 5.921616086368431e-9
vn -0.9987229704856873 0 0.050521984696388245
vn -0.9210471510887146 0 0.3894510269165039
vn -0.9210471510887146 0 0.3894510269165039
vn -0.9987229704856873 0 0.050521984696388245
vn -0.9210471510887146 0 0.3894510269165039
vn -0.9987229704856873 0 0.050521984696388245
vn 0 -1 0
vn 0 -1 0
vn 0 -1 0
vn 0 -1 0
vn 0 -1 0
vn 0 -1 0
vn 0 -1 0
vn 0 -1 0
vn 0 -1 0
vn 0 -1 0
vn 0 -1 0
vn 0 -1 0
vn 0.9210470914840698 0 -0.389451265335083
vn 0.9210470914840698 0 -0.389451265335083
vn 0.7320104241371155 0 -0.6812934279441833
vn 0.9210470914840698 0 -0.389451265335083
vn 0.7320104241371155 0 -0.6812934279441833
vn 0.7320104241371155 0 -0.6812934279441833
vn -0.9979798793792725 0 0.06353112310171127
vn -0.5568525791168213 -0.020972616970539093 -0.8303465247154236
vn -0.5568525791168213 -0.020972616970539093 -0.8303465247154236
vn -0.9979798793792725 0 0.06353112310171127
vn -0.5568525791168213 -0.020972616970539093 -0.8303465247154236
vn -0.9979798793792725 0 0.06353112310171127
vn -0.5568525791168213 -0.020972616970539093 -0.8303465247154236
vn -0.5568525791168213 -0.020972616970539093 -0.8303465247154236
vn 0.8650885224342346 -0.010814136825501919 -0.5015026330947876
vn -0.5568525791168213 -0.020972616970539093 -0.8303465247154236
vn 0.8650885224342346 -0.010814136825501919 -0.5015026330947876
vn 0.8650885820388794 -0.010814136825501919 -0.5015025734901428
vt 0.9689955711364746 0.5519804954528809
vt 0.9689955711364746 0.5519804954528809
vt 0.9689955711364746 0.5519804954528809
vt 0.9689955711364746 0.5519804954528809
vt 0.9689955711364746 0.5519804954528809
vt 0.9689955711364746 0.5519804954528809
vt 0.9689956903457642 0.5519804954528809
vt 0.9689956903457642 0.5519804954528809
vt 0.9689955711364746 0.5519804954528809
vt 0.9689956903457642 0.5519804954528809
vt 0.9689955711364746 0.5519804954528809
vt 0.9689955711364746 0.5519804954528809
vt 0.9689956903457642 0.5519804358482361
vt 0.9689956903457642 0.5519804954528809
vt 0.9689955711364746 0.5519804954528809
vt 0.9689956903457642 0.5519804358482361
vt 0.9689955711364746 0.5519804954528809
vt 0.9689955711364746 0.5519804358482361
vt 0.9689955711364746 0.5519804954528809
vt 0.9689956903457642 0.5519804954528809
vt 0.9689956903457642 0.5519804358482361
vt 0.9689955711364746 0.5519804954528809
vt 0.9689956903457642 0.5519804358482361
vt 0.9689955711364746 0.5519804358482361
vt 0.9689955711364746 0.5519804954528809
vt 0.9689955711364746 0.5519804954528809
vt 0.9689955711364746 0.5519804954528809
vt 0.9689955711364746 0.5519804954528809
vt 0.9689955711364746 0.5519804954528809
vt 0.9689955711364746 0.5519804954528809
vt 0.9689955711364746 0.5519804954528809
vt 0.9689955711364746 0.5519804954528809
vt 0.9689955711364746 0.5519804954528809
vt 0.9689955711364746 0.5519804954528809
vt 0.9689955711364746 0.5519804954528809
vt 0.9689955711364746 0.5519804954528809
vt 0.9689956903457642 0.5519804954528809
vt 0.9689956903457642 0.5519804954528809
vt 0.9689956903457642 0.5519804954528809
vt 0.9689956903457642 0.5519804954528809
vt 0.9689956903457642 0.5519804954528809
vt 0.9689956903457642 0.5519804954528809
vt 0.9689956903457642 0.5519804358482361
vt 0.9689956903457642 0.5519804358482361
vt 0.9689956903457642 0.5519804954528809
vt 0.9689956903457642 0.5519804358482361
vt 0.9689956903457642 0.5519804954528809
vt 0.9689956903457642 0.5519804954528809
vt 0.9689956903457642 0.5519804954528809
vt 0.9689956903457642 0.5519804954528809
vt 0.9689956903457642 0.5519804358482361
vt 0.9689956903457642 0.5519804954528809
vt 0.9689956903457642 0.5519804358482361
vt 0.9689956903457642 0.5519804358482361
vt 0.9689956903457642 0.5519804954528809
vt 0.9689956903457642 0.5519804954528809
vt 0.9689956903457642 0.5519804954528809
vt 0.9689956903457642 0.5519804954528809
vt 0.9689956903457642 0.5519804954528809
vt 0.9689956903457642 0.5519804954528809
vt 0.9689956903457642 0.5519804954528809
vt 0.9689956903457642 0.5519804954528809
vt 0.9689956903457642 0.5519804954528809
vt 0.9689956903457642 0.5519804954528809
vt 0.9689956903457642 0.5519804954528809
vt 0.9689956903457642 0.5519804954528809
vt 0.9689955711364746 0.5519804954528809
vt 0.9689956903457642 0.5519804954528809
vt 0.9689955711364746 0.5519804954528809
vt 0.9689955711364746 0.5519804954528809
vt 0.9689955711364746 0.5519804954528809
vt 0.9689955711364746 0.5519804954528809
vt 0.9689955711364746 0.5519804954528809
vt 0.9689955711364746 0.5519804954528809
vt 0.9689955711364746 0.5519804954528809
vt 0.9689955711364746 0.5519804954528809
vt 0.9689955711364746 0.5519804954528809
vt 0.9689955711364746 0.5519804954528809
vt 0.9689955711364746 0.5519804954528809
vt 0.9689956903457642 0.5519804954528809
vt 0.9689955711364746 0.5519804954528809
vt 0.9689955711364746 0.5519804954528809
vt 0.9689955711364746 0.5519804954528809
vt 0.9689955711364746 0.5519804954528809
vt 0.9689956903457642 0.5519804954528809
vt 0.9689956903457642 0.5519804954528809
vt 0.9689956903457642 0.5519804954528809
vt 0.9689956903457642 0.5519804954528809
vt 0.9689956903457642 0.5519804954528809
vt 0.9689956903457642 0.5519804954528809
vt 0.9689955711364746 0.5519804954528809
vt 0.9689955711364746 0.5519804954528809
vt 0.9689956903457642 0.5519804954528809
vt 0.9689955711364746 0.5519804954528809
vt 0.9689956903457642 0.5519804954528809
vt 0.9689956903457642 0.5519804954528809
vt 0.9689956903457642 0.5519804954528809
vt 0.9689956903457642 0.5519804954528809
vt 0.9689956903457642 0.5519804954528809
vt 0.9689956903457642 0.5519804954528809
vt 0.9689956903457642 0.5519804954528809
vt 0.9689956903457642 0.5519804954528809
vt 0.9689956903457642 0.5519804954528809
vt 0.9689956903457642 0.5519804954528809
vt 0.9689955711364746 0.5519804954528809
vt 0.9689956903457642 0.5519804954528809
vt 0.9689955711364746 0.5519804954528809
vt 0.9689955711364746 0.5519804954528809
vt 0.9689955711364746 0.5519804954528809
vt 0.9689955711364746 0.5519804954528809
vt 0.9689955711364746 0.5519804954528809
vt 0.9689955711364746 0.5519804954528809
vt 0.9689955711364746 0.5519804954528809
vt 0.9689955711364746 0.5519804954528809
vt 0.9689956903457642 0.5519804954528809
vt 0.9689956903457642 0.5519804954528809
vt 0.9689955711364746 0.5519804954528809
vt 0.9689956903457642 0.5519804954528809
vt 0.9689955711364746 0.5519804954528809
vt 0.9689955711364746 0.5519804954528809
vt 0.9689956903457642 0.5519804358482361
vt 0.9689956903457642 0.5519804954528809
vt 0.9689955711364746 0.5519804954528809
vt 0.9689956903457642 0.5519804358482361
vt 0.9689955711364746 0.5519804954528809
vt 0.9689955711364746 0.5519804358482361
vt 0.9689955711364746 0.5519804954528809
vt 0.9689956903457642 0.5519804954528809
vt 0.9689956903457642 0.5519804358482361
vt 0.9689955711364746 0.5519804954528809
vt 0.9689956903457642 0.5519804358482361
vt 0.9689955711364746 0.5519804358482361
vt 0.9689955711364746 0.5519804954528809
vt 0.9689955711364746 0.5519804954528809
vt 0.9689955711364746 0.5519804954528809
vt 0.9689955711364746 0.5519804954528809
vt 0.9689955711364746 0.5519804954528809
vt 0.9689955711364746 0.5519804954528809
vt 0.9689955711364746 0.5519804954528809
vt 0.9689955711364746 0.5519804954528809
vt 0.9689955711364746 0.5519804954528809
vt 0.9689955711364746 0.5519804954528809
vt 0.9689955711364746 0.5519804954528809
vt 0.9689955711364746 0.5519804954528809
vt 0.9689956903457642 0.5519804954528809
vt 0.9689956903457642 0.5519804954528809
vt 0.9689956903457642 0.5519804954528809
vt 0.9689956903457642 0.5519804954528809
vt 0.9689956903457642 0.5519804954528809
vt 0.9689956903457642 0.5519804954528809
vt 0.9689956903457642 0.5519804358482361
vt 0.9689956903457642 0.5519804358482361
vt 0.9689956903457642 0.5519804954528809
vt 0.9689956903457642 0.5519804358482361
vt 0.9689956903457642 0.5519804954528809
vt 0.9689956903457642 0.5519804954528809
vt 0.9689956903457642 0.5519804954528809
vt 0.9689956903457642 0.5519804954528809
vt 0.9689956903457642 0.5519804358482361
vt 0.9689956903457642 0.5519804954528809
vt 0.9689956903457642 0.5519804358482361
vt 0.9689956903457642 0.5519804358482361
vt 0.9689956903457642 0.5519804954528809
vt 0.9689956903457642 0.5519804954528809
vt 0.9689956903457642 0.5519804954528809
vt 0.9689956903457642 0.5519804954528809
vt 0.9689956903457642 0.5519804954528809
vt 0.9689956903457642 0.5519804954528809
vt 0.9689956903457642 0.5519804954528809
vt 0.9689956903457642 0.5519804954528809
vt 0.9689956903457642 0.5519804954528809
vt 0.9689956903457642 0.5519804954528809
vt 0.9689956903457642 0.5519804954528809
vt 0.9689956903457642 0.5519804954528809
vt 0.9689955711364746 0.5519804954528809
vt 0.9689956903457642 0.5519804954528809
vt 0.9689955711364746 0.5519804954528809
vt 0.9689955711364746 0.5519804954528809
vt 0.9689955711364746 0.5519804954528809
vt 0.9689955711364746 0.5519804954528809
vt 0.9689955711364746 0.5519804954528809
vt 0.9689955711364746 0.5519804954528809
vt 0.9689955711364746 0.5519804954528809
vt 0.9689955711364746 0.5519804954528809
vt 0.9689955711364746 0.5519804954528809
vt 0.9689955711364746 0.5519804954528809
vt 0.9689955711364746 0.5519804954528809
vt 0.9689956903457642 0.5519804954528809
vt 0.9689955711364746 0.5519804954528809
vt 0.9689955711364746 0.5519804954528809
vt 0.9689955711364746 0.5519804954528809
vt 0.9689955711364746 0.5519804954528809
vt 0.9689956903457642 0.5519804954528809
vt 0.9689956903457642 0.5519804954528809
vt 0.9689956903457642 0.5519804954528809
vt 0.9689956903457642 0.5519804954528809
vt 0.9689956903457642 0.5519804954528809
vt 0.9689956903457642 0.5519804954528809
vt 0.9689955711364746 0.5519804954528809
vt 0.9689955711364746 0.5519804954528809
vt 0.9689956903457642 0.5519804954528809
vt 0.9689955711364746 0.5519804954528809
vt 0.9689956903457642 0.5519804954528809
vt 0.9689956903457642 0.5519804954528809
vt 0.9689956903457642 0.5519804954528809
vt 0.9689956903457642 0.5519804954528809
vt 0.9689956903457642 0.5519804954528809
vt 0.9689956903457642 0.5519804954528809
vt 0.9689956903457642 0.5519804954528809
vt 0.9689956903457642 0.5519804954528809
vt 0.9689956903457642 0.5519804954528809
vt 0.9689956903457642 0.5519804954528809
vt 0.9689955711364746 0.5519804954528809
vt 0.9689956903457642 0.5519804954528809
vt 0.9689955711364746 0.5519804954528809
vt 0.9689955711364746 0.5519804954528809
vt 0.9689955711364746 0.5519804954528809
vt 0.9689955711364746 0.5519804954528809
vt 0.9689955711364746 0.5519804954528809
vt 0.9689955711364746 0.5519804954528809
vt 0.9689955711364746 0.5519804954528809
vt 0.9689955711364746 0.5519804954528809
vt 0.9689956903457642 0.5519804954528809
vt 0.9689956903457642 0.5519804954528809
vt 0.9689955711364746 0.5519804954528809
vt 0.9689956903457642 0.5519804954528809
vt 0.9689955711364746 0.5519804954528809
vt 0.9689955711364746 0.5519804954528809
vt 0.9689956903457642 0.5519804358482361
vt 0.9689956903457642 0.5519804954528809
vt 0.9689955711364746 0.5519804954528809
vt 0.9689956903457642 0.5519804358482361
vt 0.9689955711364746 0.5519804954528809
vt 0.9689955711364746 0.5519804358482361
vt 0.9689955711364746 0.5519804954528809
vt 0.9689956903457642 0.5519804954528809
vt 0.9689956903457642 0.5519804358482361
vt 0.9689955711364746 0.5519804954528809
vt 0.9689956903457642 0.5519804358482361
vt 0.9689955711364746 0.5519804358482361
vt 0.9689955711364746 0.5519804954528809
vt 0.9689955711364746 0.5519804954528809
vt 0.9689955711364746 0.5519804954528809
vt 0.9689955711364746 0.5519804954528809
vt 0.9689955711364746 0.5519804954528809
vt 0.9689955711364746 0.5519804954528809
vt 0.9689955711364746 0.5519804954528809
vt 0.9689955711364746 0.5519804954528809
vt 0.9689955711364746 0.5519804954528809
vt 0.9689955711364746 0.5519804954528809
vt 0.9689955711364746 0.5519804954528809
vt 0.9689955711364746 0.5519804954528809
vt 0.9689956903457642 0.5519804954528809
vt 0.9689956903457642 0.5519804954528809
vt 0.9689956903457642 0.5519804954528809
vt 0.9689956903457642 0.5519804954528809
vt 0.9689956903457642 0.5519804954528809
vt 0.9689956903457642 0.5519804954528809
vt 0.9689956903457642 0.5519804358482361
vt 0.9689956903457642 0.5519804358482361
vt 0.9689956903457642 0.5519804954528809
vt 0.9689956903457642 0.5519804358482361
vt 0.9689956903457642 0.5519804954528809
vt 0.9689956903457642 0.5519804954528809
vt 0.9689956903457642 0.5519804954528809
vt 0.9689956903457642 0.5519804954528809
vt 0.9689956903457642 0.5519804358482361
vt 0.9689956903457642 0.5519804954528809
vt 0.9689956903457642 0.5519804358482361
vt 0.9689956903457642 0.5519804358482361
vt 0.9689956903457642 0.5519804954528809
vt 0.9689956903457642 0.5519804954528809
vt 0.9689956903457642 0.5519804954528809
vt 0.9689956903457642 0.5519804954528809
vt 0.9689956903457642 0.5519804954528809
vt 0.9689956903457642 0.5519804954528809
vt 0.9689956903457642 0.5519804954528809
vt 0.9689956903457642 0.5519804954528809
vt 0.9689956903457642 0.5519804954528809
vt 0.9689956903457642 0.5519804954528809
vt 0.9689956903457642 0.5519804954528809
vt 0.9689956903457642 0.5519804954528809
vt 0.9689955711364746 0.5519804954528809
vt 0.9689956903457642 0.5519804954528809
vt 0.9689955711364746 0.5519804954528809
vt 0.9689955711364746 0.5519804954528809
vt 0.9689955711364746 0.5519804954528809
vt 0.9689955711364746 0.5519804954528809
vt 0.9689955711364746 0.5519804954528809
vt 0.9689955711364746 0.5519804954528809
vt 0.9689955711364746 0.5519804954528809
vt 0.9689955711364746 0.5519804954528809
vt 0.9689955711364746 0.5519804954528809
vt 0.9689955711364746 0.5519804954528809
vt 0.9689955711364746 0.5519804954528809
vt 0.9689956903457642 0.5519804954528809
vt 0.9689955711364746 0.5519804954528809
vt 0.9689955711364746 0.5519804954528809
vt 0.9689955711364746 0.5519804954528809
vt 0.9689955711364746 0.5519804954528809
vt 0.9689956903457642 0.5519804954528809
vt 0.9689956903457642 0.5519804954528809
vt 0.9689956903457642 0.5519804954528809
vt 0.9689956903457642 0.5519804954528809
vt 0.9689956903457642 0.5519804954528809
vt 0.9689956903457642 0.5519804954528809
vt 0.9689955711364746 0.5519804954528809
vt 0.9689955711364746 0.5519804954528809
vt 0.9689956903457642 0.5519804954528809
vt 0.9689955711364746 0.5519804954528809
vt 0.9689956903457642 0.5519804954528809
vt 0.9689956903457642 0.5519804954528809
vt 0.9689956903457642 0.5519804954528809
vt 0.9689956903457642 0.5519804954528809
vt 0.9689956903457642 0.5519804954528809
vt 0.9689956903457642 0.5519804954528809
vt 0.9689956903457642 0.5519804954528809
vt 0.9689956903457642 0.5519804954528809
vt 0.9689956903457642 0.5519804954528809
vt 0.9689956903457642 0.5519804954528809
vt 0.9689955711364746 0.5519804954528809
vt 0.9689956903457642 0.5519804954528809
vt 0.9689955711364746 0.5519804954528809
vt 0.9689955711364746 0.5519804954528809
usemtl blinn1
f 1/1/1 2/2/2 3/3/3
f 4/4/4 5/5/5 6/6/6
f 7/7/7 8/8/8 9/9/9
f 10/10/10 11/11/11 12/12/12
f 13/13/13 14/14/14 15/15/15
f 16/16/16 17/17/17 18/18/18
f 19/19/19 20/20/20 21/21/21
f 22/22/22 23/23/23 24/24/24
f 25/25/25 26/26/26 27/27/27
f 28/28/28 29/29/29 30/30/30
f 31/31/31 32/32/32 33/33/33
f 34/34/34 35/35/35 36/36/36
f 37/37/37 38/38/38 39/39/39
f 40/40/40 41/41/41 42/42/42
f 43/43/43 44/44/44 45/45/45
f 46/46/46 47/47/47 48/48/48
f 49/49/49 50/50/50 51/51/51
f 52/52/52 53/53/53 54/54/54
f 55/55/55 56/56/56 57/57/57
f 58/58/58 59/59/59 60/60/60
f 61/61/61 62/62/62 63/63/63
f 64/64/64 65/65/65 66/66/66
f 67/67/67 68/68/68 69/69/69
f 70/70/70 71/71/71 72/72/72
f 73/73/73 74/74/74 75/75/75
f 76/76/76 77/77/77 78/78/78
f 79/79/79 80/80/80 81/81/81
f 82/82/82 83/83/83 84/84/84
f 85/85/85 86/86/86 87/87/87
f 88/88/88 89/89/89 90/90/90
f 91/91/91 92/92/92 93/93/93
f 94/94/94 95/95/95 96/96/96
f 97/97/97 98/98/98 99/99/99
f 100/100/100 101/101/101 102/102/102
f 103/103/103 104/104/104 105/105/105
f 106/106/106 107/107/107 108/108/108
f 109/109/109 110/110/110 111/111/111
f 112/112/112 113/113/113 114/114/114
f 115/115/115 116/116/116 117/117/117
f 118/118/118 119/119/119 120/120/120
f 121/121/121 122/122/122 123/123/123
f 124/124/124 125/125/125 126/126/126
f 127/127/127 128/128/128 129/129/129
f 130/130/130 131/131/131 132/132/132
f 133/133/133 134/134/134 135/135/135
f 136/136/136 137/137/137 138/138/138
f 139/139/139 140/140/140 141/141/141
f 142/142/142 143/143/143 144/144/144
f 145/145/145 146/146/146 147/147/147
f 148/148/148 149/149/149 150/150/150
f 151/151/151 152/152/152 153/153/153
f 154/154/154 155/155/155 156/156/156
f 157/157/157 158/158/158 159/159/159
f 160/160/160 161/161/161 162/162/162
f 163/163/163 164/164/164 165/165/165
f 166/166/166 167/167/167 168/168/168
f 169/169/169 170/170/170 171/171/171
f 172/172/172 173/173/173 174/174/174
f 175/175/175 176/176/176 177/177/177
f 178/178/178 179/179/179 180/180/180
f 181/181/181 182/182/182 183/183/183
f 184/184/184 185/185/185 186/186/186
f 187/187/187 188/188/188 189/189/189
f 190/190/190 191/191/191 192/192/192
f 193/193/193 194/194/194 195/195/195
f 196/196/196 197/197/197 198/198/198
f 199/199/199 200/200/200 201/201/201
f 202/202/202 203/203/203 204/204/204
f 205/205/205 206/206/206 207/207/207
f 208/208/208 209/209/209 210/210/210
f 211/211/211 212/212/212 213/213/213
f 214/214/214 215/215/215 216/216/216
f 217/217/217 218/218/218 219/219/219
f 220/220/220 221/221/221 222/222/222
f 223/223/223 224/224/224 225/225/225
f 226/226/226 227/227/227 228/228/228
f 229/229/229 230/230/230 231/231/231
f 232/232/232 233/233/233 234/234/234
f 235/235/235 236/236/236 237/237/237
f 238/238/238 239/239/239 240/240/240
f 241/241/241 242/242/242 243/243/243
f 244/244/244 245/245/245 246/246/246
f 247/247/247 248/248/248 249/249/249
f 250/250/250 251/251/251 252/252/252
f 253/253/253 254/254/254 255/255/255
f 256/256/256 257/257/257 258/258/258
f 259/259/259 260/260/260 261/261/261
f 262/262/262 263/263/263 264/264/264
f 265/265/265 266/266/266 267/267/267
f 268/268/268 269/269/269 270/270/270
f 271/271/271 272/272/272 273/273/273
f 274/274/274 275/275/275 276/276/276
f 277/277/277 278/278/278 279/279/279
f 280/280/280 281/281/281 282/282/282
f 283/283/283 284/284/284 285/285/285
f 286/286/286 287/287/287 288/288/288
f 289/289/289 290/290/290 291/291/291
f 292/292/292 293/293/293 294/294/294
f 295/295/295 296/296/296 297/297/297
f 298/298/298 299/299/299 300/300/300
f 301/301/301 302/302/302 303/303/303
f 304/304/304 305/305/305 306/306/306
f 307/307/307 308/308/308 309/309/309
f 310/310/310 311/311/311 312/312/312
f 313/313/313 314/314/314 315/315/315
f 316/316/316 317/317/317 318/318/318
f 319/319/319 320/320/320 321/321/321
f 322/322/322 323/323/323 324/324/324
