g Line007
v 0.674301 0.4516356 -0.674301
v 0.922334 0.1261662 5.602837E-06
v 0.9535944 0.4516356 5.602837E-06
v 0.6521763 0.1261662 -0.6521763
v 0.5597621 0.6408144 -0.5597621
v 0.9535944 0.4516356 5.602837E-06
v 0.7916365 0.6408144 5.602837E-06
v 0.674301 0.4516356 -0.674301
v -5.602837E-06 0.4516356 -0.9535944
v 0.6521763 0.1261662 -0.6521763
v 0.674301 0.4516356 -0.674301
v -5.602837E-06 0.1261662 -0.9222718
v -5.602837E-06 0.6408144 -0.7916365
v 0.674301 0.4516356 -0.674301
v 0.5597621 0.6408144 -0.5597621
v -5.602837E-06 0.4516356 -0.9535944
v -0.67425 0.4516356 -0.674301
v -5.602837E-06 0.1261662 -0.9222718
v -5.602837E-06 0.4516356 -0.9535944
v -0.6521254 0.1261662 -0.6521763
v -0.5597733 0.6408144 -0.5597621
v -5.602837E-06 0.4516356 -0.9535944
v -5.602837E-06 0.6408144 -0.7916365
v -0.67425 0.4516356 -0.674301
v -0.9535435 0.4516356 5.602837E-06
v -0.6521254 0.1261662 -0.6521763
v -0.67425 0.4516356 -0.674301
v -0.9222831 0.1261662 5.602837E-06
v -0.7916478 0.6408144 5.602837E-06
v -0.67425 0.4516356 -0.674301
v -0.5597733 0.6408144 -0.5597621
v -0.9535435 0.4516356 5.602837E-06
v -0.67425 0.4516356 0.67425
v -0.9222831 0.1261662 5.602837E-06
v -0.9535435 0.4516356 5.602837E-06
v -0.6521254 0.1261662 0.6521875
v -0.5597733 0.6408144 0.5597733
v -0.9535435 0.4516356 5.602837E-06
v -0.7916478 0.6408144 5.602837E-06
v -0.67425 0.4516356 0.67425
v -5.602837E-06 0.4516356 0.9536055
v -0.6521254 0.1261662 0.6521875
v -0.67425 0.4516356 0.67425
v -5.602837E-06 0.1261662 0.9222831
v -5.602837E-06 0.6408144 0.7916478
v -0.67425 0.4516356 0.67425
v -0.5597733 0.6408144 0.5597733
v -5.602837E-06 0.4516356 0.9536055
v 0.674301 0.4516356 0.67425
v -5.602837E-06 0.1261662 0.9222831
v -5.602837E-06 0.4516356 0.9536055
v 0.6521763 0.1261662 0.6521875
v 0.5597621 0.6408144 0.5597733
v -5.602837E-06 0.4516356 0.9536055
v -5.602837E-06 0.6408144 0.7916478
v 0.674301 0.4516356 0.67425
v 0.9535944 0.4516356 5.602837E-06
v 0.6521763 0.1261662 0.6521875
v 0.674301 0.4516356 0.67425
v 0.922334 0.1261662 5.602837E-06
v 0.7916365 0.6408144 5.602837E-06
v 0.674301 0.4516356 0.67425
v 0.5597621 0.6408144 0.5597733
v 0.9535944 0.4516356 5.602837E-06
v 0.4371439 0.6408144 -0.4371439
v 0.7916365 0.6408144 5.602837E-06
v 0.6181813 0.6408144 5.602837E-06
v 0.5597621 0.6408144 -0.5597621
v 0.2806551 0.6408144 -0.5019644
v -5.602837E-06 0.6408144 -0.6181813
v -5.602837E-06 0.6408144 -0.7916365
v -0.437093 0.6408144 -0.4371439
v -0.5597733 0.6408144 -0.5597621
v -0.6181926 0.6408144 5.602837E-06
v -0.7916478 0.6408144 5.602837E-06
v -0.437093 0.6408144 0.4371551
v -0.5597733 0.6408144 0.5597733
v -5.602837E-06 0.6408144 0.6181926
v -5.602837E-06 0.6408144 0.7916478
v 0.4371439 0.6408144 0.4371551
v 0.5597621 0.6408144 0.5597733
v 0.4371439 0.5459143 -0.4371439
v 0.4371439 0.6408144 -0.4371439
v 0.6181813 0.6408144 5.602837E-06
v -5.602837E-06 0.5459143 -0.6181813
v -5.602837E-06 0.6408144 -0.6181813
v 0.2806551 0.6408144 -0.5019644
v 0.4371439 0.5459143 -0.4371439
v 0.4371439 0.6408144 -0.4371439
v -5.602837E-06 0.5459143 -0.6181813
v -0.437093 0.6408144 -0.4371439
v -5.602837E-06 0.6408144 -0.6181813
v -0.6181926 0.5459143 5.602837E-06
v -0.6181926 0.6408144 5.602837E-06
v -0.437093 0.6408144 -0.4371439
v -0.437093 0.5459143 0.4371551
v -0.6181926 0.6408144 5.602837E-06
v -0.6181926 0.5459143 5.602837E-06
v -0.437093 0.6408144 0.4371551
v -5.602837E-06 0.5459143 0.6181926
v -0.437093 0.6408144 0.4371551
v -0.437093 0.5459143 0.4371551
v -5.602837E-06 0.6408144 0.6181926
v -5.602837E-06 0.5459143 0.6181926
v 0.4371439 0.6408144 0.4371551
v -5.602837E-06 0.6408144 0.6181926
v -5.602837E-06 0.5459143 -0.6181813
v 0.4371439 0.5459143 -0.4371439
v 0.6181813 0.6408144 5.602837E-06
v -0.8273829 2.03001 0.1253582
v -0.8394397 2.4226 -0.04107428
v -0.6121019 2.254676 0.1375394
v -0.8394397 2.4226 -0.04107428
v -1.090642 2.055553 -0.06630635
v -1.032472 2.470454 -0.2907852
v -1.090642 2.055553 -0.06630635
v -1.051427 2.025474 -0.6069946
v -1.032472 2.470454 -0.2907852
v -0.7996026 1.828215 0.02368402
v -0.5543042 1.581053 0.04748666
v -0.7459067 1.620392 -0.1640652
v -1.090642 2.055553 -0.06630635
v -0.7996026 1.828215 0.02368402
v -0.9288086 1.795588 -0.2777964
v -0.7996026 1.828215 0.02368402
v -0.7459067 1.620392 -0.1640652
v -0.9288086 1.795588 -0.2777964
v -0.8273829 2.03001 0.1253582
v -0.6121019 2.254676 0.1375394
v -0.4408219 1.934302 0.1442512
v -0.7996026 1.828215 0.02368402
v -0.4408219 1.934302 0.1442512
v -0.5543042 1.581053 0.04748666
v -1.051427 2.025474 -0.6069946
v -0.688917 2.111114 -1.126242
v -0.9773463 2.424713 -0.6554701
v -1.051427 2.025474 -0.6069946
v -0.9773463 2.424713 -0.6554701
v -1.032472 2.470454 -0.2907852
v -0.688917 2.111114 -1.126242
v -0.3088194 2.06413 -1.307031
v -0.6717641 2.603326 -0.9968495
v -0.7527429 1.632076 -0.9043732
v -0.7290026 1.561849 -0.6021471
v -0.5483381 1.470864 -0.9257521
v -0.688917 2.111114 -1.126242
v -0.7527429 1.632076 -0.9043732
v -0.3549333 1.745124 -1.185593
v -0.7527429 1.632076 -0.9043732
v -0.5483381 1.470864 -0.9257521
v -0.3549333 1.745124 -1.185593
v -0.7527429 1.632076 -0.9043732
v -0.9288086 1.795588 -0.2777964
v -0.7290026 1.561849 -0.6021471
v -0.3088194 2.06413 -1.307031
v 0.02373505 2.264184 -1.014748
v -0.6717641 2.603326 -0.9968495
v -0.01038432 1.739282 -1.048495
v -0.1681161 1.556815 -0.9695665
v -0.03126609 1.521328 -0.7584495
v 0.02373505 2.264184 -1.014748
v -0.01038432 1.739282 -1.048495
v 0.2819602 1.7294 -0.7399915
v -0.01038432 1.739282 -1.048495
v -0.03126609 1.521328 -0.7584495
v 0.2819602 1.7294 -0.7399915
v -0.01038432 1.739282 -1.048495
v -0.3549333 1.745124 -1.185593
v -0.1681161 1.556815 -0.9695665
v -0.1573024 2.230562 0.01423752
v -0.6121019 2.254676 0.1375394
v -0.5556716 2.619298 -0.1480311
v 0.03119278 1.80752 -0.1458559
v 0.03597808 1.547741 -0.3795327
v -0.2164674 1.734434 -0.05263376
v -0.1573024 2.230562 0.01423752
v 0.03119278 1.80752 -0.1458559
v -0.4408219 1.934302 0.1442512
v 0.03119278 1.80752 -0.1458559
v -0.2164674 1.734434 -0.05263376
v -0.4408219 1.934302 0.1442512
v 0.03119278 1.80752 -0.1458559
v 0.2819602 1.7294 -0.7399915
v 0.03597808 1.547741 -0.3795327
v -0.202484 1.495599 -0.2255298
v -0.5543042 1.581053 0.04748666
v -0.4408219 1.934302 0.1442512
v -0.308633 1.444948 -0.7496245
v -0.1681161 1.556815 -0.9695665
v -0.3549333 1.745124 -1.185593
v -0.03126609 1.521328 -0.7584495
v 0.03597808 1.547741 -0.3795327
v 0.2819602 1.7294 -0.7399915
v -0.8007213 2.666842 -0.3935781
v -0.8394397 2.4226 -0.04107428
v -1.032472 2.470454 -0.2907852
v -0.6717641 2.603326 -0.9968495
v -0.8007213 2.666842 -0.3935781
v -0.9773463 2.424713 -0.6554701
v -0.8394397 2.4226 -0.04107428
v -0.5556716 2.619298 -0.1480311
v -0.6121019 2.254676 0.1375394
v -0.8273829 2.03001 0.1253582
v -1.090642 2.055553 -0.06630635
v -0.8394397 2.4226 -0.04107428
v -0.8273829 2.03001 0.1253582
v -0.7996026 1.828215 0.02368402
v -1.090642 2.055553 -0.06630635
v -1.090642 2.055553 -0.06630635
v -0.9288086 1.795588 -0.2777964
v -1.051427 2.025474 -0.6069946
v -0.8273829 2.03001 0.1253582
v -0.4408219 1.934302 0.1442512
v -0.7996026 1.828215 0.02368402
v -1.051427 2.025474 -0.6069946
v -0.7527429 1.632076 -0.9043732
v -0.688917 2.111114 -1.126242
v -0.688917 2.111114 -1.126242
v -0.3549333 1.745124 -1.185593
v -0.3088194 2.06413 -1.307031
v -1.051427 2.025474 -0.6069946
v -0.9288086 1.795588 -0.2777964
v -0.7527429 1.632076 -0.9043732
v -0.3088194 2.06413 -1.307031
v -0.01038432 1.739282 -1.048495
v 0.02373505 2.264184 -1.014748
v -0.3088194 2.06413 -1.307031
v -0.3549333 1.745124 -1.185593
v -0.01038432 1.739282 -1.048495
v 0.1117367 2.265738 -0.2834517
v 0.02373505 2.264184 -1.014748
v 0.2819602 1.7294 -0.7399915
v -0.1573024 2.230562 0.01423752
v -0.5556716 2.619298 -0.1480311
v 0.1117367 2.265738 -0.2834517
v 0.1117367 2.265738 -0.2834517
v 0.03119278 1.80752 -0.1458559
v -0.1573024 2.230562 0.01423752
v -0.1573024 2.230562 0.01423752
v -0.4408219 1.934302 0.1442512
v -0.6121019 2.254676 0.1375394
v 0.1117367 2.265738 -0.2834517
v 0.2819602 1.7294 -0.7399915
v 0.03119278 1.80752 -0.1458559
v -0.202484 1.495599 -0.2255298
v -0.2164674 1.734434 -0.05263376
v 0.03597808 1.547741 -0.3795327
v -0.202484 1.495599 -0.2255298
v -0.4408219 1.934302 0.1442512
v -0.2164674 1.734434 -0.05263376
v -0.7290026 1.561849 -0.6021471
v -0.9288086 1.795588 -0.2777964
v -0.7459067 1.620392 -0.1640652
v -0.308633 1.444948 -0.7496245
v -0.3549333 1.745124 -1.185593
v -0.5483381 1.470864 -0.9257521
v -0.308633 1.444948 -0.7496245
v -0.03126609 1.521328 -0.7584495
v -0.1681161 1.556815 -0.9695665
v -0.2468578 2.765843 -0.6509955
v 0.02373505 2.264184 -1.014748
v 0.1117367 2.265738 -0.2834517
v -0.2468578 2.765843 -0.6509955
v -0.6717641 2.603326 -0.9968495
v 0.02373505 2.264184 -1.014748
v -0.2468578 2.765843 -0.6509955
v -0.8007213 2.666842 -0.3935781
v -0.6717641 2.603326 -0.9968495
v -0.6717641 2.603326 -0.9968495
v -0.9773463 2.424713 -0.6554701
v -0.688917 2.111114 -1.126242
v -0.8007213 2.666842 -0.3935781
v -1.032472 2.470454 -0.2907852
v -0.9773463 2.424713 -0.6554701
v -0.2468578 2.765843 -0.6509955
v -0.5556716 2.619298 -0.1480311
v -0.8007213 2.666842 -0.3935781
v -0.2468578 2.765843 -0.6509955
v 0.1117367 2.265738 -0.2834517
v -0.5556716 2.619298 -0.1480311
v -0.8007213 2.666842 -0.3935781
v -0.5556716 2.619298 -0.1480311
v -0.8394397 2.4226 -0.04107428
v -0.06457734 1.739592 0.05301785
v -0.006779671 2.048406 -0.1400139
v 0.09663463 1.875324 0.1329403
v -0.006779671 2.048406 -0.1400139
v -0.1457429 1.779056 -0.1882409
v -0.08875299 2.055739 -0.3621312
v -0.06457734 1.739592 0.05301785
v -0.1457429 1.779056 -0.1882409
v -0.1958964 1.716038 -0.3422439
v -0.08875299 2.055739 -0.3621312
v -0.2387164 1.693168 -0.558457
v -0.1457429 1.779056 -0.1882409
v -0.01690984 1.533199 -0.06201816
v -0.1034821 1.461666 -0.307876
v -0.1958964 1.716038 -0.3422439
v -0.06457734 1.739592 0.05301785
v 0.09663463 1.875324 0.1329403
v 0.2172019 1.60498 0.2037891
v 0.09663463 1.875324 0.1329403
v 0.4096745 1.923116 0.07812572
v 0.2172019 1.60498 0.2037891
v -0.04338503 1.718835 -0.7352682
v 0.05083156 2.046666 -0.8114618
v -0.07526696 2.023485 -0.5714459
v -0.2387164 1.693168 -0.558457
v -0.07526696 2.023485 -0.5714459
v -0.08875299 2.055739 -0.3621312
v -0.04338503 1.718835 -0.7352682
v 0.108132 1.674647 -0.9007686
v 0.05083156 2.046666 -0.8114618
v 0.108132 1.674647 -0.9007686
v 0.391838 1.301324 -0.9576962
v 0.2947005 2.025225 -0.9181079
v 0.05145299 1.350794 -0.7348332
v 0.05543053 1.238927 -0.5409934
v 0.20297 1.233396 -0.7018948
v 0.108132 1.674647 -0.9007686
v 0.05145299 1.350794 -0.7348332
v 0.391838 1.301324 -0.9576962
v 0.05145299 1.350794 -0.7348332
v 0.20297 1.233396 -0.7018948
v 0.391838 1.301324 -0.9576962
v -0.04338503 1.718835 -0.7352682
v -0.2387164 1.693168 -0.558457
v -0.08831799 1.424191 -0.526575
v -0.2387164 1.693168 -0.558457
v -0.1958964 1.716038 -0.3422439
v -0.1034821 1.461666 -0.307876
v 0.05145299 1.350794 -0.7348332
v -0.08831799 1.424191 -0.526575
v 0.05543053 1.238927 -0.5409934
v 0.6020849 1.71175 -0.8347673
v 0.537886 2.14312 -0.8062414
v 0.2947005 2.025225 -0.9181079
v 0.6020849 1.71175 -0.8347673
v 0.7715627 1.737231 -0.7061208
v 0.537886 2.14312 -0.8062414
v 0.7715627 1.737231 -0.7061208
v 0.7987836 1.483169 -0.3116049
v 0.6542894 2.162323 -0.4298726
v 0.7715627 1.737231 -0.7061208
v 0.7715006 1.403682 -0.79897
v 0.7987836 1.483169 -0.3116049
v 0.7715006 1.403682 -0.79897
v 0.5431686 1.145457 -0.7258218
v 0.7987836 1.483169 -0.3116049
v 0.7715006 1.403682 -0.79897
v 0.391838 1.301324 -0.9576962
v 0.5431686 1.145457 -0.7258218
v 0.567282 1.945675 -0.05219877
v 0.4354038 2.280964 -0.1568561
v 0.6542894 2.162323 -0.4298726
v 0.567282 1.945675 -0.05219877
v 0.4096745 1.923116 0.07812572
v 0.4354038 2.280964 -0.1568561
v 0.5360837 1.60442 0.02666712
v 0.7987836 1.483169 -0.3116049
v 0.4319235 1.240543 -0.08240271
v 0.4096745 1.923116 0.07812572
v 0.5360837 1.60442 0.02666712
v 0.2172019 1.60498 0.2037891
v 0.5360837 1.60442 0.02666712
v 0.4319235 1.240543 -0.08240271
v 0.2172019 1.60498 0.2037891
v 0.1367823 1.132654 -0.3921487
v 0.05543053 1.238927 -0.5409934
v -0.1034821 1.461666 -0.307876
v -0.08831799 1.424191 -0.526575
v 0.1367823 1.132654 -0.3921487
v 0.4211097 1.112208 -0.5814518
v 0.20297 1.233396 -0.7018948
v 0.4211097 1.112208 -0.5814518
v 0.5431686 1.145457 -0.7258218
v 0.391838 1.301324 -0.9576962
v 0.2714572 2.342491 -0.5936328
v 0.537886 2.14312 -0.8062414
v 0.6542894 2.162323 -0.4298726
v 0.2714572 2.342491 -0.5936328
v 0.1449859 2.256043 -0.6981659
v 0.2947005 2.025225 -0.9181079
v 0.1449859 2.256043 -0.6981659
v 0.05083156 2.046666 -0.8114618
v 0.2947005 2.025225 -0.9181079
v 0.06524992 2.220246 -0.4290647
v -0.006779671 2.048406 -0.1400139
v -0.08875299 2.055739 -0.3621312
v 0.1449859 2.256043 -0.6981659
v 0.06524992 2.220246 -0.4290647
v -0.07526696 2.023485 -0.5714459
v -0.006779671 2.048406 -0.1400139
v 0.1607094 2.266359 -0.0874989
v 0.09663463 1.875324 0.1329403
v 0.09663463 1.875324 0.1329403
v 0.1607094 2.266359 -0.0874989
v 0.4096745 1.923116 0.07812572
v -0.06457734 1.739592 0.05301785
v -0.01690984 1.533199 -0.06201816
v -0.1457429 1.779056 -0.1882409
v -0.06457734 1.739592 0.05301785
v 0.2172019 1.60498 0.2037891
v -0.01690984 1.533199 -0.06201816
v -0.04338503 1.718835 -0.7352682
v -0.07526696 2.023485 -0.5714459
v -0.2387164 1.693168 -0.558457
v 0.108132 1.674647 -0.9007686
v 0.2947005 2.025225 -0.9181079
v 0.05083156 2.046666 -0.8114618
v -0.04338503 1.718835 -0.7352682
v 0.05145299 1.350794 -0.7348332
v 0.108132 1.674647 -0.9007686
v -0.04338503 1.718835 -0.7352682
v -0.08831799 1.424191 -0.526575
v 0.05145299 1.350794 -0.7348332
v -0.2387164 1.693168 -0.558457
v -0.1034821 1.461666 -0.307876
v -0.08831799 1.424191 -0.526575
v 0.6020849 1.71175 -0.8347673
v 0.2947005 2.025225 -0.9181079
v 0.391838 1.301324 -0.9576962
v 0.7715006 1.403682 -0.79897
v 0.7715627 1.737231 -0.7061208
v 0.6542894 2.162323 -0.4298726
v 0.537886 2.14312 -0.8062414
v 0.6020849 1.71175 -0.8347673
v 0.7715006 1.403682 -0.79897
v 0.7715627 1.737231 -0.7061208
v 0.567282 1.945675 -0.05219877
v 0.6542894 2.162323 -0.4298726
v 0.7987836 1.483169 -0.3116049
v 0.4096745 1.923116 0.07812572
v 0.1607094 2.266359 -0.0874989
v 0.4354038 2.280964 -0.1568561
v 0.567282 1.945675 -0.05219877
v 0.5360837 1.60442 0.02666712
v 0.4096745 1.923116 0.07812572
v 0.567282 1.945675 -0.05219877
v 0.7987836 1.483169 -0.3116049
v 0.5360837 1.60442 0.02666712
v 0.1367823 1.132654 -0.3921487
v -0.1034821 1.461666 -0.307876
v -0.01690984 1.533199 -0.06201816
v 0.1367823 1.132654 -0.3921487
v 0.20297 1.233396 -0.7018948
v 0.05543053 1.238927 -0.5409934
v 0.4211097 1.112208 -0.5814518
v 0.391838 1.301324 -0.9576962
v 0.20297 1.233396 -0.7018948
v 0.4319235 1.240543 -0.08240271
v 0.7987836 1.483169 -0.3116049
v 0.5431686 1.145457 -0.7258218
v 0.2714572 2.342491 -0.5936328
v 0.6542894 2.162323 -0.4298726
v 0.4354038 2.280964 -0.1568561
v 0.2714572 2.342491 -0.5936328
v 0.2947005 2.025225 -0.9181079
v 0.537886 2.14312 -0.8062414
v 0.2714572 2.342491 -0.5936328
v 0.06524992 2.220246 -0.4290647
v 0.1449859 2.256043 -0.6981659
v 0.1449859 2.256043 -0.6981659
v -0.07526696 2.023485 -0.5714459
v 0.05083156 2.046666 -0.8114618
v 0.06524992 2.220246 -0.4290647
v -0.08875299 2.055739 -0.3621312
v -0.07526696 2.023485 -0.5714459
v 0.2714572 2.342491 -0.5936328
v 0.1607094 2.266359 -0.0874989
v 0.06524992 2.220246 -0.4290647
v 0.2714572 2.342491 -0.5936328
v 0.4354038 2.280964 -0.1568561
v 0.1607094 2.266359 -0.0874989
v 0.06524992 2.220246 -0.4290647
v 0.1607094 2.266359 -0.0874989
v -0.006779671 2.048406 -0.1400139
v -0.814829 1.769858 0.6655493
v -0.7935122 2.444973 0.6313679
v -0.3749449 1.942444 0.9143282
v -0.814829 1.769858 0.6655493
v -0.5414395 1.643387 0.7363981
v -0.7636191 1.595222 0.5342926
v -0.9463965 2.102475 0.4636303
v -0.814829 1.769858 0.6655493
v -0.9086725 1.706529 0.11268
v -0.814829 1.769858 0.6655493
v -0.7636191 1.595222 0.5342926
v -0.9086725 1.706529 0.11268
v -0.814829 1.769858 0.6655493
v -0.3749449 1.942444 0.9143282
v -0.5414395 1.643387 0.7363981
v -0.8821355 2.019445 -0.1704044
v -0.7754272 2.385497 -0.1440537
v -0.8998476 2.338016 0.05457163
v -0.9767247 2.007202 0.04692733
v -0.8998476 2.338016 0.05457163
v -0.9463965 2.102475 0.4636303
v -0.8821355 2.019445 -0.1704044
v -0.6805271 2.00484 -0.2995481
v -0.7754272 2.385497 -0.1440537
v -0.6805271 2.00484 -0.2995481
v -0.4796023 2.014411 -0.3309329
v -0.4117366 2.395441 -0.2254055
v -0.6805271 2.00484 -0.2995481
v -0.7234091 1.676512 -0.1196295
v -0.3284582 1.747423 -0.2179477
v -0.4796023 2.014411 -0.3309329
v -0.8821355 2.019445 -0.1704044
v -0.9767247 2.007202 0.04692733
v -0.9086725 1.706529 0.11268
v -0.9767247 2.007202 0.04692733
v -0.9463965 2.102475 0.4636303
v -0.9086725 1.706529 0.11268
v -0.7234091 1.676512 -0.1196295
v -0.9086725 1.706529 0.11268
v -0.7123469 1.531148 0.1165333
v -0.04947555 2.1819 -0.1234205
v -0.158421 2.564546 -0.005898356
v -0.4117366 2.395441 -0.2254055
v -0.04947555 2.1819 -0.1234205
v 0.08631814 2.238393 0.1283413
v -0.158421 2.564546 -0.005898356
v 0.08631814 2.238393 0.1283413
v 0.1869358 2.037157 0.4915968
v -0.02890444 2.47555 0.3939002
v 0.070719 1.813797 0.03766727
v -0.1123693 1.613494 0.03859949
v 0.04182005 1.594849 0.3562384
v 0.08631814 2.238393 0.1283413
v 0.070719 1.813797 0.03766727
v 0.1869358 2.037157 0.4915968
v 0.070719 1.813797 0.03766727
v 0.04182005 1.594849 0.3562384
v 0.1869358 2.037157 0.4915968
v -0.04947555 2.1819 -0.1234205
v -0.2751973 2.094769 -0.2769884
v -0.3284582 1.747423 -0.2179477
v -0.2751973 2.094769 -0.2769884
v -0.4796023 2.014411 -0.3309329
v -0.3284582 1.747423 -0.2179477
v 0.070719 1.813797 0.03766727
v -0.3284582 1.747423 -0.2179477
v -0.1123693 1.613494 0.03859949
v -0.007090449 2.011552 0.790094
v 0.04182005 1.594849 0.3562384
v -0.1556244 1.612997 0.6718885
v -0.1860148 2.37344 0.6539277
v -0.007090449 2.011552 0.790094
v -0.3749449 1.942444 0.9143282
v -0.007090449 2.011552 0.790094
v -0.1556244 1.612997 0.6718885
v -0.3749449 1.942444 0.9143282
v -0.007090449 2.011552 0.790094
v 0.1869358 2.037157 0.4915968
v 0.04182005 1.594849 0.3562384
v -0.1556244 1.612997 0.6718885
v -0.5414395 1.643387 0.7363981
v -0.3749449 1.942444 0.9143282
v -0.3613346 1.473474 0.513473
v -0.1556244 1.612997 0.6718885
v 0.04182005 1.594849 0.3562384
v -0.4383359 2.727995 0.1356126
v -0.6421816 2.549071 -0.05095577
v -0.4117366 2.395441 -0.2254055
v -0.6421816 2.549071 -0.05095577
v -0.7754272 2.385497 -0.1440537
v -0.4117366 2.395441 -0.2254055
v -0.6421816 2.549071 -0.05095577
v -0.7935122 2.444973 0.6313679
v -0.8998476 2.338016 0.05457163
v -0.4383359 2.727995 0.1356126
v -0.02890444 2.47555 0.3939002
v -0.1860148 2.37344 0.6539277
v -0.7935122 2.444973 0.6313679
v -0.1860148 2.37344 0.6539277
v -0.3749449 1.942444 0.9143282
v -0.814829 1.769858 0.6655493
v -0.9463965 2.102475 0.4636303
v -0.7935122 2.444973 0.6313679
v -0.8821355 2.019445 -0.1704044
v -0.8998476 2.338016 0.05457163
v -0.9767247 2.007202 0.04692733
v -0.6805271 2.00484 -0.2995481
v -0.4117366 2.395441 -0.2254055
v -0.7754272 2.385497 -0.1440537
v -0.8821355 2.019445 -0.1704044
v -0.7234091 1.676512 -0.1196295
v -0.6805271 2.00484 -0.2995481
v -0.8821355 2.019445 -0.1704044
v -0.9086725 1.706529 0.11268
v -0.7234091 1.676512 -0.1196295
v -0.04947555 2.1819 -0.1234205
v -0.4117366 2.395441 -0.2254055
v -0.2751973 2.094769 -0.2769884
v -0.2751973 2.094769 -0.2769884
v -0.4117366 2.395441 -0.2254055
v -0.4796023 2.014411 -0.3309329
v 0.08631814 2.238393 0.1283413
v -0.02890444 2.47555 0.3939002
v -0.158421 2.564546 -0.005898356
v -0.04947555 2.1819 -0.1234205
v 0.070719 1.813797 0.03766727
v 0.08631814 2.238393 0.1283413
v -0.04947555 2.1819 -0.1234205
v -0.3284582 1.747423 -0.2179477
v 0.070719 1.813797 0.03766727
v -0.1860148 2.37344 0.6539277
v -0.02890444 2.47555 0.3939002
v 0.1869358 2.037157 0.4915968
v -0.1860148 2.37344 0.6539277
v 0.1869358 2.037157 0.4915968
v -0.007090449 2.011552 0.790094
v -0.3613346 1.473474 0.513473
v -0.5414395 1.643387 0.7363981
v -0.1556244 1.612997 0.6718885
v -0.3613346 1.473474 0.513473
v -0.7636191 1.595222 0.5342926
v -0.5414395 1.643387 0.7363981
v -0.7636191 1.595222 0.5342926
v -0.7636191 1.595222 0.5342926
v -0.7123469 1.531148 0.1165333
v -0.4383359 2.727995 0.1356126
v -0.158421 2.564546 -0.005898356
v -0.02890444 2.47555 0.3939002
v -0.4383359 2.727995 0.1356126
v -0.4117366 2.395441 -0.2254055
v -0.158421 2.564546 -0.005898356
v -0.4383359 2.727995 0.1356126
v -0.7935122 2.444973 0.6313679
v -0.6421816 2.549071 -0.05095577
v -0.6421816 2.549071 -0.05095577
v -0.8998476 2.338016 0.05457163
v -0.7754272 2.385497 -0.1440537
v -0.7935122 2.444973 0.6313679
v -0.9463965 2.102475 0.4636303
v -0.8998476 2.338016 0.05457163
v -0.4383359 2.727995 0.1356126
v -0.1860148 2.37344 0.6539277
v -0.7935122 2.444973 0.6313679
v -0.04437935 0.4444886 0.08247614
v -0.03480852 0.4070754 0.09565139
v -0.08092237 0.6677245 0.009514332
v -0.04437935 0.4444886 0.08247614
v -0.01790428 0.6777304 0.04357147
v -0.01398885 0.6579672 -0.06021583
v -0.04437935 0.4444886 0.08247614
v -0.08092237 0.6677245 0.009514332
v -0.01790428 0.6777304 0.04357147
v -0.01790428 0.6777304 0.04357147
v -0.04270136 0.8563439 0.07936871
v -0.01398885 0.6579672 -0.06021583
v -0.01790428 0.6777304 0.04357147
v -0.05407441 0.8322924 0.1265391
v -0.04270136 0.8563439 0.07936871
v -0.05407441 0.8322924 0.1265391
v -0.08092237 0.6677245 0.009514332
v -0.1009963 0.8460273 0.09266841
v -0.08092237 0.6677245 0.009514332
v -0.04270136 0.8563439 0.07936871
v -0.1009963 0.8460273 0.09266841
v -0.05407441 0.8322924 0.1265391
v -0.05177498 1.024206 0.2470442
v -0.04270136 0.8563439 0.07936871
v -0.04270136 0.8563439 0.07936871
v -0.06333447 1.022528 0.1940941
v -0.1009963 0.8460273 0.09266841
v -0.05407441 0.8322924 0.1265391
v -0.1009963 0.8460273 0.09266841
v -0.05177498 1.024206 0.2470442
v -0.1009963 0.8460273 0.09266841
v -0.09832394 1.024268 0.2300156
v -0.05177498 1.024206 0.2470442
v -0.1009963 0.8460273 0.09266841
v -0.06333447 1.022528 0.1940941
v -0.09832394 1.024268 0.2300156
v -0.04270136 0.8563439 0.07936871
v -0.05177498 1.024206 0.2470442
v -0.06333447 1.022528 0.1940941
v -0.05177498 1.024206 0.2470442
v -0.1653194 1.40797 0.3068306
v -0.06333447 1.022528 0.1940941
v -0.05177498 1.024206 0.2470442
v -0.1871334 1.413812 0.3374697
v -0.1653194 1.40797 0.3068306
v -0.07756639 1.062178 0.2074559
v -0.06333447 1.022528 0.1940941
v -0.1653194 1.40797 0.3068306
v -0.1996874 1.401755 0.3187009
v -0.05177498 1.024206 0.2470442
v -0.09832394 1.024268 0.2300156
v -0.07756639 1.062178 0.2074559
v -0.02405691 1.121095 0.06824422
v -0.06333447 1.022528 0.1940941
v -0.05885983 1.137067 0.05724406
v -0.07756639 1.062178 0.2074559
v -0.09832394 1.024268 0.2300156
v -0.1996874 1.401755 0.3187009
v -0.07756639 1.062178 0.2074559
v -0.1653194 1.40797 0.3068306
v -0.06333447 1.022528 0.1940941
v -0.02405691 1.121095 0.06824422
v -0.05600095 1.104626 0.04257703
v -0.05885983 1.137067 0.05724406
v -0.06333447 1.022528 0.1940941
v -0.05600095 1.104626 0.04257703
v -0.02405691 1.121095 0.06824422
v -0.05885983 1.137067 0.05724406
v 0.1071377 1.40623 -0.09160066
v -0.05885983 1.137067 0.05724406
v -0.05600095 1.104626 0.04257703
v 0.1071377 1.40623 -0.09160066
v -0.05600095 1.104626 0.04257703
v -0.02405691 1.121095 0.06824422
v 0.1071377 1.40623 -0.09160066
v -0.1996874 1.401755 0.3187009
v -0.4403869 1.544758 0.2297049
v -0.1871334 1.413812 0.3374697
v -0.1996874 1.401755 0.3187009
v -0.1653194 1.40797 0.3068306
v -0.4403869 1.544758 0.2297049
v -0.1922295 1.441344 0.320379
v -0.08931243 1.561352 0.42659
v -0.1871334 1.413812 0.3374697
v -0.1922295 1.441344 0.320379
v -0.1871334 1.413812 0.3374697
v -0.4403869 1.544758 0.2297049
v -0.1653194 1.40797 0.3068306
v -0.0578655 1.548798 0.4316241
v -0.06234014 1.561414 0.4129174
v -0.08931243 1.561352 0.42659
v -0.1653194 1.40797 0.3068306
v -0.06234014 1.561414 0.4129174
v -0.1653194 1.40797 0.3068306
v -0.08931243 1.561352 0.42659
v -0.1922295 1.441344 0.320379
v -0.1922295 1.441344 0.320379
v -0.4403869 1.544758 0.2297049
v -0.1653194 1.40797 0.3068306
v -0.08931243 1.561352 0.42659
v -0.1653194 1.40797 0.3068306
v -0.1871334 1.413812 0.3374697
v -0.1653194 1.40797 0.3068306
v -0.08931243 1.561352 0.42659
v -0.0578655 1.548798 0.4316241
v -0.08931243 1.561352 0.42659
v -0.06234014 1.561414 0.4129174
v -0.08253825 1.734185 0.4205616
v -0.06234014 1.561414 0.4129174
v -0.0578655 1.548798 0.4316241
v -0.08253825 1.734185 0.4205616
v -0.08931243 1.561352 0.42659
v -0.08253825 1.734185 0.4205616
v -0.0578655 1.548798 0.4316241
v -0.03145254 0.730059 -0.2171397
v -0.04437935 0.4444886 0.08247614
v 0.05480909 0.7371439 -0.2157725
v 0.02665591 0.7873596 -0.1599014
v -0.03145254 0.730059 -0.2171397
v -0.0006891489 1.099591 -0.3547356
v 0.05748141 1.048319 -0.3735664
v 0.02665591 0.7873596 -0.1599014
v -0.0006891489 1.099591 -0.3547356
v -0.03145254 0.730059 -0.2171397
v -0.01125443 1.050308 -0.4019681
v -0.0006891489 1.099591 -0.3547356
v 0.05748141 1.048319 -0.3735664
v -0.03145254 0.730059 -0.2171397
v 0.05480909 0.7371439 -0.2157725
v -0.03145254 0.730059 -0.2171397
v -0.01398885 0.6579672 -0.06021583
v -0.08092237 0.6677245 0.009514332
v 0.02466726 1.119727 -0.4155164
v -0.0006891489 1.099591 -0.3547356
v -0.2237387 1.433016 -0.5825083
v 0.02466726 1.119727 -0.4155164
v 0.2695307 1.124264 -0.4521838
v -0.0006891489 1.099591 -0.3547356
v -0.01125443 1.050308 -0.4019681
v -0.2331231 1.421083 -0.611345
v -0.2522025 1.418162 -0.595373
v -0.2237387 1.433016 -0.5825083
v -0.01125443 1.050308 -0.4019681
v -0.2522025 1.418162 -0.595373
v 0.268474 1.097976 -0.4642405
v 0.05748141 1.048319 -0.3735664
v 0.2761183 1.097913 -0.4465283
v 0.2695307 1.124264 -0.4521838
v 0.05748141 1.048319 -0.3735664
v -0.0006891489 1.099591 -0.3547356
v -0.2331231 1.421083 -0.611345
v 0.02466726 1.119727 -0.4155164
v -0.2237387 1.433016 -0.5825083
v 0.268474 1.097976 -0.4642405
v 0.02466726 1.119727 -0.4155164
v -0.01125443 1.050308 -0.4019681
v 0.2695307 1.124264 -0.4521838
v 0.268474 1.097976 -0.4642405
v 0.4071264 1.244521 -0.5965537
v 0.268474 1.097976 -0.4642405
v 0.2761183 1.097913 -0.4465283
v 0.4071264 1.244521 -0.5965537
v 0.2695307 1.124264 -0.4521838
v 0.4071264 1.244521 -0.5965537
v 0.2761183 1.097913 -0.4465283
v -0.2237387 1.433016 -0.5825083
v -0.1686134 1.724491 -0.5992261
v -0.2331231 1.421083 -0.611345
v -0.2331231 1.421083 -0.611345
v -0.1686134 1.724491 -0.5992261
v -0.2522025 1.418162 -0.595373
v -0.2440611 1.445445 -0.5744291
v -0.2522025 1.418162 -0.595373
v -0.1686134 1.724491 -0.5992261
v -0.2440611 1.445445 -0.5744291
v -0.4024765 1.509893 -0.3216728
v -0.2522025 1.418162 -0.595373
v -0.2237387 1.433016 -0.5825083
v -0.2440611 1.445445 -0.5744291
v -0.1686134 1.724491 -0.5992261
v -0.2237387 1.433016 -0.5825083
v -0.2522025 1.418162 -0.595373
v -0.4024765 1.509893 -0.3216728
v -0.2440611 1.445445 -0.5744291
v -0.2237387 1.433016 -0.5825083
v -0.4024765 1.509893 -0.3216728
v -0.03480852 0.4070754 0.09565139
v -0.03145254 0.730059 -0.2171397
v -0.08092237 0.6677245 0.009514332
v 0.05480909 0.7371439 -0.2157725
v -0.01398885 0.6579672 -0.06021583
v 0.02665591 0.7873596 -0.1599014
v -0.08869088 0.4180136 0.1111263
v -0.04437935 0.4444886 0.08247614
v -0.03480852 0.4070754 0.09565139
v -5.602837E-06 0.5459143 -0.6181813
v -0.6181926 0.5459143 5.602837E-06
v -0.437093 0.6408144 -0.4371439
v -0.6181926 0.5459143 5.602837E-06
v -5.602837E-06 0.5459143 0.6181926
v -0.437093 0.5459143 0.4371551
v -5.602837E-06 0.5459143 0.6181926
v 0.6181813 0.6408144 5.602837E-06
v 0.4371439 0.6408144 0.4371551
v -0.6181926 0.5459143 5.602837E-06
v 0.6181813 0.6408144 5.602837E-06
v -5.602837E-06 0.5459143 0.6181926
v -5.602837E-06 0.5459143 -0.6181813
v 0.6181813 0.6408144 5.602837E-06
v -0.6181926 0.5459143 5.602837E-06
v -0.7636191 1.595222 0.5342926
v -0.7123469 1.531148 0.1165333
v -0.9086725 1.706529 0.11268
v -0.08092237 0.6677245 0.009514332
v -0.05407441 0.8322924 0.1265391
v -0.01790428 0.6777304 0.04357147
v -0.04270136 0.8563439 0.07936871
v -0.08092237 0.6677245 0.009514332
v -0.01398885 0.6579672 -0.06021583
v -0.05177498 1.024206 0.2470442
v -0.1996874 1.401755 0.3187009
v -0.1871334 1.413812 0.3374697
v -0.07756639 1.062178 0.2074559
v -0.05885983 1.137067 0.05724406
v -0.02405691 1.121095 0.06824422
v -0.07756639 1.062178 0.2074559
v -0.1996874 1.401755 0.3187009
v -0.09832394 1.024268 0.2300156
v -0.06333447 1.022528 0.1940941
v -0.05885983 1.137067 0.05724406
v -0.09832394 1.024268 0.2300156
v -0.04437935 0.4444886 0.08247614
v -0.03145254 0.730059 -0.2171397
v -0.03480852 0.4070754 0.09565139
v 0.02665591 0.7873596 -0.1599014
v 0.05748141 1.048319 -0.3735664
v 0.05480909 0.7371439 -0.2157725
v -0.03145254 0.730059 -0.2171397
v 0.05748141 1.048319 -0.3735664
v -0.01125443 1.050308 -0.4019681
v -0.01398885 0.6579672 -0.06021583
v -0.03145254 0.730059 -0.2171397
v 0.02665591 0.7873596 -0.1599014
v -0.01125443 1.050308 -0.4019681
v -0.2237387 1.433016 -0.5825083
v -0.0006891489 1.099591 -0.3547356
v 0.05748141 1.048319 -0.3735664
v 0.268474 1.097976 -0.4642405
v -0.01125443 1.050308 -0.4019681
v 0.05748141 1.048319 -0.3735664
v 0.2695307 1.124264 -0.4521838
v 0.2761183 1.097913 -0.4465283
v 0.02466726 1.119727 -0.4155164
v -0.2331231 1.421083 -0.611345
v -0.01125443 1.050308 -0.4019681
v 0.02466726 1.119727 -0.4155164
v 0.268474 1.097976 -0.4642405
v 0.2695307 1.124264 -0.4521838
v -0.01398885 0.6579672 -0.06021583
v 0.05480909 0.7371439 -0.2157725
v -0.04437935 0.4444886 0.08247614
vt 0.7461259 0.5038189
vt 0.7618387 0.4417949
vt 0.7461259 0.4417949
vt 0.7618387 0.5021649
vt 0.7370291 0.4930681
vt 0.7461259 0.4417949
vt 0.7370291 0.4417949
vt 0.7461259 0.5038189
vt 0.7527418 0.5716317
vt 0.7370291 0.6320018
vt 0.7527418 0.6336557
vt 0.7370291 0.5716317
vt 0.7618387 0.5716317
vt 0.7527418 0.6336557
vt 0.7618387 0.6237319
vt 0.7527418 0.5716317
vt 0.7527418 0.5104347
vt 0.7370291 0.5716317
vt 0.7527418 0.5716317
vt 0.7370291 0.5120888
vt 0.7618387 0.5203586
vt 0.7527418 0.5716317
vt 0.7618387 0.5716317
vt 0.7527418 0.5104347
vt 0.7246243 0.4417949
vt 0.7089115 0.5021649
vt 0.7246243 0.5038189
vt 0.7089115 0.4417949
vt 0.7337211 0.4417949
vt 0.7246243 0.5038189
vt 0.7337211 0.4930681
vt 0.7246243 0.4417949
vt 0.7246243 0.3797709
vt 0.7089115 0.4417949
vt 0.7246243 0.4417949
vt 0.7089115 0.3822519
vt 0.7337211 0.3905217
vt 0.7246243 0.4417949
vt 0.7337211 0.4417949
vt 0.7246243 0.3797709
vt 0.7180084 0.5716317
vt 0.7337211 0.5120888
vt 0.7180084 0.5104347
vt 0.7337211 0.5716317
vt 0.7089115 0.5716317
vt 0.7180084 0.5104347
vt 0.7089115 0.5203586
vt 0.7180084 0.5716317
vt 0.7180084 0.6336557
vt 0.7337211 0.5716317
vt 0.7180084 0.5716317
vt 0.7337211 0.6320018
vt 0.7089115 0.6237319
vt 0.7180084 0.5716317
vt 0.7089115 0.5716317
vt 0.7180084 0.6336557
vt 0.7461259 0.4417949
vt 0.7618387 0.3822519
vt 0.7461259 0.3797709
vt 0.7618387 0.4417949
vt 0.7370291 0.4417949
vt 0.7461259 0.3797709
vt 0.7370291 0.3905217
vt 0.7461259 0.4417949
vt 0.6832749 0.3954836
vt 0.6576384 0.3797709
vt 0.6609463 0.3946567
vt 0.6865829 0.3805979
vt 0.6890638 0.4062345
vt 0.6998147 0.4260822
vt 0.7072576 0.4202932
vt 0.6998147 0.4699124
vt 0.7072576 0.4757013
vt 0.6832749 0.4996839
vt 0.6865829 0.5145697
vt 0.6601194 0.4996839
vt 0.6568114 0.5145697
vt 0.6435796 0.4682584
vt 0.6361367 0.4748743
vt 0.6444066 0.4252552
vt 0.6361367 0.4186393
vt 0.6444066 0.556746
vt 0.6485415 0.556746
vt 0.6485415 0.5170506
vt 0.7692816 0.5501301
vt 0.7643196 0.5501301
vt 0.7643196 0.5757667
vt 0.7692816 0.5906525
vt 0.7643196 0.5906525
vt 0.7692816 0.5501301
vt 0.7643196 0.5104347
vt 0.7643196 0.5501301
vt 0.6410987 0.556746
vt 0.6361367 0.556746
vt 0.6361367 0.5972683
vt 0.6410987 0.5170506
vt 0.6361367 0.556746
vt 0.6410987 0.556746
vt 0.6361367 0.5170506
vt 0.7651466 0.4202932
vt 0.7701085 0.3797709
vt 0.7651466 0.3797709
vt 0.7701085 0.4202932
vt 0.7651466 0.4202932
vt 0.7701085 0.4599886
vt 0.7701085 0.4202932
vt 0.1763322 0.5302824
vt 0.1540036 0.496376
vt 0.1126543 0.4889331
vt 0.3094771 0.8230357
vt 0.311958 0.8304785
vt 0.313612 0.8114579
vt 0.311958 0.8304785
vt 0.3086501 0.8313055
vt 0.311131 0.8395754
vt 0.3086501 0.8313055
vt 0.3078231 0.8379214
vt 0.311131 0.8395754
vt 0.3069961 0.8205547
vt 0.3061691 0.8106309
vt 0.3045151 0.8205547
vt 0.3086501 0.8313055
vt 0.3069961 0.8205547
vt 0.3028612 0.8379214
vt 0.3069961 0.8205547
vt 0.3045151 0.8205547
vt 0.3028612 0.8379214
vt 0.3094771 0.8230357
vt 0.313612 0.8114579
vt 0.3094771 0.8073229
vt 0.3069961 0.8205547
vt 0.3094771 0.8073229
vt 0.3061691 0.8106309
vt 0.3078231 0.8379214
vt 0.311131 0.864385
vt 0.310304 0.8494992
vt 0.3078231 0.8379214
vt 0.310304 0.8494992
vt 0.311131 0.8395754
vt 0.2954183 0.7949181
vt 0.2896294 0.8098039
vt 0.2929373 0.8131118
vt 0.2830135 0.7973991
vt 0.2788785 0.804842
vt 0.2830135 0.8106309
vt 0.2954183 0.7949181
vt 0.2830135 0.7973991
vt 0.2863214 0.8155928
vt 0.2830135 0.7973991
vt 0.2830135 0.8106309
vt 0.2863214 0.8155928
vt 0.2995532 0.8486723
vt 0.3028612 0.8379214
vt 0.2995532 0.8313055
vt 0.2896294 0.8098039
vt 0.2904564 0.8404024
vt 0.2929373 0.8131118
vt 0.2871484 0.8296515
vt 0.2846675 0.8263436
vt 0.2846675 0.8362674
vt 0.2904564 0.8404024
vt 0.2871484 0.8296515
vt 0.2871484 0.8445373
vt 0.2871484 0.8296515
vt 0.2846675 0.8362674
vt 0.2871484 0.8445373
vt 0.2871484 0.8296515
vt 0.2863214 0.8155928
vt 0.2846675 0.8263436
vt 0.316093 0.803188
vt 0.313612 0.8114579
vt 0.315266 0.8279976
vt 0.2854944 0.866039
vt 0.2838405 0.8511533
vt 0.2813595 0.864385
vt 0.316093 0.803188
vt 0.311131 0.7858213
vt 0.3094771 0.8073229
vt 0.311131 0.7858213
vt 0.3078231 0.7916102
vt 0.3094771 0.8073229
vt 0.2854944 0.866039
vt 0.2871484 0.8445373
vt 0.2838405 0.8511533
vt 0.3045151 0.7899562
vt 0.3061691 0.8106309
vt 0.3094771 0.8073229
vt 0.2821865 0.8263436
vt 0.2846675 0.8263436
vt 0.2863214 0.8155928
vt 0.2846675 0.8362674
vt 0.2838405 0.8511533
vt 0.2871484 0.8445373
vt 0.313612 0.8420563
vt 0.311958 0.8304785
vt 0.311131 0.8395754
vt 0.315266 0.861904
vt 0.313612 0.8420563
vt 0.310304 0.8494992
vt 0.311958 0.8304785
vt 0.315266 0.8279976
vt 0.313612 0.8114579
vt 0.3094771 0.8230357
vt 0.3086501 0.8313055
vt 0.311958 0.8304785
vt 0.3094771 0.8230357
vt 0.3069961 0.8205547
vt 0.3086501 0.8313055
vt 0.3086501 0.8313055
vt 0.3028612 0.8379214
vt 0.3078231 0.8379214
vt 0.3094771 0.8230357
vt 0.3094771 0.8073229
vt 0.3069961 0.8205547
vt 0.2896294 0.7858213
vt 0.2830135 0.7973991
vt 0.2954183 0.7949181
vt 0.2954183 0.7949181
vt 0.2863214 0.8155928
vt 0.2896294 0.8098039
vt 0.3078231 0.8379214
vt 0.3028612 0.8379214
vt 0.2995532 0.8486723
vt 0.2896294 0.8098039
vt 0.2871484 0.8296515
vt 0.2904564 0.8404024
vt 0.2896294 0.8098039
vt 0.2863214 0.8155928
vt 0.2871484 0.8296515
vt 0.2978992 0.8561152
vt 0.2904564 0.8404024
vt 0.2871484 0.8445373
vt 0.316093 0.803188
vt 0.315266 0.8279976
vt 0.3202279 0.8222087
vt 0.2978992 0.8561152
vt 0.2854944 0.866039
vt 0.2921104 0.8743088
vt 0.316093 0.803188
vt 0.3094771 0.8073229
vt 0.313612 0.8114579
vt 0.2978992 0.8561152
vt 0.2871484 0.8445373
vt 0.2854944 0.866039
vt 0.2797056 0.8494992
vt 0.2813595 0.864385
vt 0.2838405 0.8511533
vt 0.3045151 0.7899562
vt 0.3094771 0.8073229
vt 0.3078231 0.7916102
vt 0.2995532 0.8313055
vt 0.3028612 0.8379214
vt 0.3045151 0.8205547
vt 0.2821865 0.8263436
vt 0.2863214 0.8155928
vt 0.2830135 0.8106309
vt 0.2821865 0.8263436
vt 0.2846675 0.8362674
vt 0.2846675 0.8263436
vt 0.2987262 0.8379214
vt 0.2904564 0.8404024
vt 0.2978992 0.8561152
vt 0.2987262 0.8379214
vt 0.2929373 0.8131118
vt 0.2904564 0.8404024
vt 0.3210549 0.8379214
vt 0.313612 0.8420563
vt 0.315266 0.861904
vt 0.315266 0.861904
vt 0.310304 0.8494992
vt 0.311131 0.864385
vt 0.313612 0.8420563
vt 0.311131 0.8395754
vt 0.310304 0.8494992
vt 0.3210549 0.8379214
vt 0.315266 0.8279976
vt 0.313612 0.8420563
vt 0.3210549 0.8379214
vt 0.3202279 0.8222087
vt 0.315266 0.8279976
vt 0.313612 0.8420563
vt 0.315266 0.8279976
vt 0.311958 0.8304785
vt 0.2573769 0.8230357
vt 0.2598579 0.8304785
vt 0.2598579 0.8180737
vt 0.2598579 0.8304785
vt 0.25655 0.8313055
vt 0.2590309 0.8395754
vt 0.2573769 0.8230357
vt 0.25655 0.8313055
vt 0.2557229 0.8379214
vt 0.2590309 0.8395754
vt 0.254896 0.8453643
vt 0.25655 0.8313055
vt 0.254896 0.8205547
vt 0.252415 0.8304785
vt 0.2557229 0.8379214
vt 0.2573769 0.8230357
vt 0.2598579 0.8180737
vt 0.254069 0.8106309
vt 0.2598579 0.8180737
vt 0.2615119 0.8114579
vt 0.254069 0.8106309
vt 0.253242 0.8594231
vt 0.2590309 0.864385
vt 0.2582039 0.8494992
vt 0.254896 0.8453643
vt 0.2582039 0.8494992
vt 0.2590309 0.8395754
vt 0.2375292 0.7858213
vt 0.2367022 0.7998801
vt 0.2433181 0.7949181
vt 0.2367022 0.7998801
vt 0.2342213 0.8155928
vt 0.2408372 0.8131118
vt 0.2309133 0.7973991
vt 0.2267784 0.804842
vt 0.2309133 0.8106309
vt 0.2367022 0.7998801
vt 0.2309133 0.7973991
vt 0.2342213 0.8155928
vt 0.2309133 0.7973991
vt 0.2309133 0.8106309
vt 0.2342213 0.8155928
vt 0.253242 0.8594231
vt 0.254896 0.8453643
vt 0.251588 0.8379214
vt 0.254896 0.8453643
vt 0.2557229 0.8379214
vt 0.252415 0.8304785
vt 0.2474531 0.8486723
vt 0.251588 0.8379214
vt 0.2474531 0.8313055
vt 0.2383562 0.8246896
vt 0.2416642 0.8263436
vt 0.2408372 0.8131118
vt 0.2383562 0.8246896
vt 0.2383562 0.8329595
vt 0.2416642 0.8263436
vt 0.2383562 0.8329595
vt 0.2317403 0.8511533
vt 0.2424912 0.8420563
vt 0.2383562 0.8329595
vt 0.2350483 0.8296515
vt 0.2317403 0.8511533
vt 0.2350483 0.8296515
vt 0.2325673 0.8362674
vt 0.2317403 0.8511533
vt 0.2350483 0.8296515
vt 0.2342213 0.8155928
vt 0.2325673 0.8263436
vt 0.2400102 0.8594231
vt 0.2457991 0.8561152
vt 0.2424912 0.8420563
vt 0.2400102 0.8594231
vt 0.2400102 0.8743088
vt 0.2457991 0.8561152
vt 0.2342213 0.866039
vt 0.2317403 0.8511533
vt 0.2292594 0.864385
vt 0.2615119 0.8114579
vt 0.2598579 0.7858213
vt 0.254069 0.8106309
vt 0.2598579 0.7858213
vt 0.2557229 0.7916102
vt 0.254069 0.8106309
vt 0.2474531 0.8189007
vt 0.2474531 0.8313055
vt 0.252415 0.8304785
vt 0.251588 0.8379214
vt 0.2251244 0.8180737
vt 0.2309133 0.8263436
vt 0.2309133 0.8106309
vt 0.2309133 0.8263436
vt 0.2325673 0.8263436
vt 0.2342213 0.8155928
vt 0.2466261 0.8379214
vt 0.2416642 0.8263436
vt 0.2424912 0.8420563
vt 0.2466261 0.8379214
vt 0.2457991 0.805669
vt 0.2408372 0.8131118
vt 0.2457991 0.805669
vt 0.2433181 0.7949181
vt 0.2408372 0.8131118
vt 0.2623388 0.8420563
vt 0.2598579 0.8304785
vt 0.2590309 0.8395754
vt 0.2631658 0.861904
vt 0.2623388 0.8420563
vt 0.2582039 0.8494992
vt 0.2598579 0.8304785
vt 0.2639928 0.8279976
vt 0.2598579 0.8180737
vt 0.2598579 0.8180737
vt 0.2639928 0.8279976
vt 0.2615119 0.8114579
vt 0.2573769 0.8230357
vt 0.254896 0.8205547
vt 0.25655 0.8313055
vt 0.2573769 0.8230357
vt 0.254069 0.8106309
vt 0.254896 0.8205547
vt 0.253242 0.8594231
vt 0.2582039 0.8494992
vt 0.254896 0.8453643
vt 0.2367022 0.7998801
vt 0.2408372 0.8131118
vt 0.2433181 0.7949181
vt 0.2375292 0.7858213
vt 0.2309133 0.7973991
vt 0.2367022 0.7998801
vt 0.253242 0.8594231
vt 0.251588 0.8379214
vt 0.2474531 0.8486723
vt 0.254896 0.8453643
vt 0.252415 0.8304785
vt 0.251588 0.8379214
vt 0.2383562 0.8246896
vt 0.2408372 0.8131118
vt 0.2342213 0.8155928
vt 0.2350483 0.8296515
vt 0.2383562 0.8329595
vt 0.2424912 0.8420563
vt 0.2416642 0.8263436
vt 0.2383562 0.8246896
vt 0.2350483 0.8296515
vt 0.2383562 0.8329595
vt 0.2400102 0.8594231
vt 0.2424912 0.8420563
vt 0.2317403 0.8511533
vt 0.2615119 0.8114579
vt 0.2639928 0.8279976
vt 0.2681277 0.8222087
vt 0.2400102 0.8594231
vt 0.2342213 0.866039
vt 0.2400102 0.8743088
vt 0.2400102 0.8594231
vt 0.2317403 0.8511533
vt 0.2342213 0.866039
vt 0.2474531 0.8189007
vt 0.252415 0.8304785
vt 0.254896 0.8205547
vt 0.2251244 0.8180737
vt 0.2309133 0.8106309
vt 0.2267784 0.804842
vt 0.2309133 0.8263436
vt 0.2342213 0.8155928
vt 0.2309133 0.8106309
vt 0.2292594 0.864385
vt 0.2317403 0.8511533
vt 0.2325673 0.8362674
vt 0.2466261 0.8379214
vt 0.2424912 0.8420563
vt 0.2457991 0.8561152
vt 0.2466261 0.8379214
vt 0.2408372 0.8131118
vt 0.2416642 0.8263436
vt 0.2689547 0.8379214
vt 0.2623388 0.8420563
vt 0.2631658 0.861904
vt 0.2631658 0.861904
vt 0.2582039 0.8494992
vt 0.2590309 0.864385
vt 0.2623388 0.8420563
vt 0.2590309 0.8395754
vt 0.2582039 0.8494992
vt 0.2689547 0.8379214
vt 0.2639928 0.8279976
vt 0.2623388 0.8420563
vt 0.2689547 0.8379214
vt 0.2681277 0.8222087
vt 0.2639928 0.8279976
vt 0.2623388 0.8420563
vt 0.2639928 0.8279976
vt 0.2598579 0.8304785
vt 0.3061691 0.8205547
vt 0.311131 0.8304785
vt 0.3086501 0.8073229
vt 0.3061691 0.8205547
vt 0.3053421 0.8106309
vt 0.3036881 0.8205547
vt 0.310304 0.8395754
vt 0.3061691 0.8205547
vt 0.3020342 0.8379214
vt 0.3061691 0.8205547
vt 0.3036881 0.8205547
vt 0.3020342 0.8379214
vt 0.3061691 0.8205547
vt 0.3086501 0.8073229
vt 0.3053421 0.8106309
vt 0.3045151 0.8594231
vt 0.310304 0.864385
vt 0.3094771 0.8494992
vt 0.3061691 0.8453643
vt 0.3094771 0.8494992
vt 0.310304 0.8395754
vt 0.2888024 0.7858213
vt 0.2879754 0.7998801
vt 0.2945913 0.7949181
vt 0.2879754 0.7998801
vt 0.2879754 0.8098039
vt 0.2921104 0.8131118
vt 0.2879754 0.7998801
vt 0.2821865 0.7973991
vt 0.2854944 0.8155928
vt 0.2879754 0.8098039
vt 0.3045151 0.8594231
vt 0.3061691 0.8453643
vt 0.3020342 0.8379214
vt 0.3061691 0.8453643
vt 0.310304 0.8395754
vt 0.3020342 0.8379214
vt 0.2987262 0.8486723
vt 0.3020342 0.8379214
vt 0.2987262 0.8313055
vt 0.2896294 0.8246896
vt 0.2929373 0.8263436
vt 0.2921104 0.8131118
vt 0.2896294 0.8246896
vt 0.2896294 0.8329595
vt 0.2929373 0.8263436
vt 0.2896294 0.8329595
vt 0.2863214 0.8445373
vt 0.2978992 0.8379214
vt 0.2863214 0.8296515
vt 0.2838405 0.8263436
vt 0.2830135 0.8511533
vt 0.2896294 0.8329595
vt 0.2863214 0.8296515
vt 0.2863214 0.8445373
vt 0.2863214 0.8296515
vt 0.2830135 0.8511533
vt 0.2863214 0.8445373
vt 0.2896294 0.8246896
vt 0.2888024 0.8164198
vt 0.2854944 0.8155928
vt 0.2888024 0.8164198
vt 0.2879754 0.8098039
vt 0.2854944 0.8155928
vt 0.2863214 0.8296515
vt 0.2854944 0.8155928
vt 0.2838405 0.8263436
vt 0.2846675 0.866039
vt 0.2830135 0.8511533
vt 0.2805325 0.864385
vt 0.3194009 0.8222087
vt 0.310304 0.7858213
vt 0.3086501 0.8073229
vt 0.310304 0.7858213
vt 0.3069961 0.7916102
vt 0.3086501 0.8073229
vt 0.2846675 0.866039
vt 0.2863214 0.8445373
vt 0.2830135 0.8511533
vt 0.3069961 0.7916102
vt 0.3053421 0.8106309
vt 0.3086501 0.8073229
vt 0.2763976 0.8362674
vt 0.2805325 0.864385
vt 0.2830135 0.8511533
vt 0.2978992 0.8213817
vt 0.2962453 0.805669
vt 0.2921104 0.8131118
vt 0.2962453 0.805669
vt 0.2945913 0.7949181
vt 0.2921104 0.8131118
vt 0.314439 0.861904
vt 0.311131 0.8304785
vt 0.3094771 0.8494992
vt 0.3185739 0.8519802
vt 0.3202279 0.8379214
vt 0.3194009 0.8222087
vt 0.311131 0.8304785
vt 0.3194009 0.8222087
vt 0.3086501 0.8073229
vt 0.3061691 0.8205547
vt 0.310304 0.8395754
vt 0.311131 0.8304785
vt 0.3045151 0.8594231
vt 0.3094771 0.8494992
vt 0.3061691 0.8453643
vt 0.2879754 0.7998801
vt 0.2921104 0.8131118
vt 0.2945913 0.7949181
vt 0.2888024 0.7858213
vt 0.2821865 0.7973991
vt 0.2879754 0.7998801
vt 0.3045151 0.8594231
vt 0.3020342 0.8379214
vt 0.2987262 0.8486723
vt 0.2896294 0.8246896
vt 0.2921104 0.8131118
vt 0.2888024 0.8164198
vt 0.2888024 0.8164198
vt 0.2921104 0.8131118
vt 0.2879754 0.8098039
vt 0.2896294 0.8329595
vt 0.2978992 0.8379214
vt 0.2929373 0.8263436
vt 0.2896294 0.8246896
vt 0.2863214 0.8296515
vt 0.2896294 0.8329595
vt 0.2896294 0.8246896
vt 0.2854944 0.8155928
vt 0.2863214 0.8296515
vt 0.2970723 0.8561152
vt 0.2978992 0.8379214
vt 0.2863214 0.8445373
vt 0.2970723 0.8561152
vt 0.2863214 0.8445373
vt 0.2846675 0.866039
vt 0.3003802 0.803188
vt 0.3053421 0.8106309
vt 0.3069961 0.7916102
vt 0.3003802 0.803188
vt 0.3036881 0.8205547
vt 0.3053421 0.8106309
vt 0.3036881 0.8205547
vt 0.3036881 0.8205547
vt 0.2987262 0.8313055
vt 0.2978992 0.8213817
vt 0.2929373 0.8263436
vt 0.2978992 0.8379214
vt 0.2978992 0.8213817
vt 0.2921104 0.8131118
vt 0.2929373 0.8263436
vt 0.3185739 0.8519802
vt 0.311131 0.8304785
vt 0.314439 0.861904
vt 0.314439 0.861904
vt 0.3094771 0.8494992
vt 0.310304 0.864385
vt 0.311131 0.8304785
vt 0.310304 0.8395754
vt 0.3094771 0.8494992
vt 0.3185739 0.8519802
vt 0.3194009 0.8222087
vt 0.311131 0.8304785
vt 0.08867167 0.6741781
vt 0.09115263 0.6708701
vt 0.08453674 0.6708701
vt 0.09032564 0.6592923
vt 0.08370975 0.6592923
vt 0.08784468 0.6642542
vt 0.09032564 0.6592923
vt 0.08288276 0.6568114
vt 0.08370975 0.6592923
vt 0.08370975 0.6592923
vt 0.07378592 0.6634273
vt 0.08784468 0.6642542
vt 0.08370975 0.6592923
vt 0.07378592 0.6601194
vt 0.07378592 0.6634273
vt 0.07378592 0.6601194
vt 0.08288276 0.6568114
vt 0.07295893 0.6576384
vt 0.08453674 0.6708701
vt 0.07378592 0.6634273
vt 0.07378592 0.6692162
vt 0.07378592 0.6601194
vt 0.06055413 0.6609463
vt 0.07378592 0.6634273
vt 0.07378592 0.6634273
vt 0.06303509 0.6659082
vt 0.07378592 0.6692162
vt 0.07378592 0.6601194
vt 0.07295893 0.6576384
vt 0.06055413 0.6609463
vt 0.07378592 0.6692162
vt 0.06138112 0.6683892
vt 0.06055413 0.6700432
vt 0.07378592 0.6692162
vt 0.06303509 0.6659082
vt 0.06138112 0.6683892
vt 0.07378592 0.6634273
vt 0.06055413 0.6609463
vt 0.06303509 0.6659082
vt 0.1002495 0.6741781
vt 0.1019035 0.6973338
vt 0.1035574 0.6741781
vt 0.1002495 0.6741781
vt 0.09859551 0.6973338
vt 0.1019035 0.6973338
vt 0.1043844 0.676659
vt 0.1035574 0.6741781
vt 0.1019035 0.6973338
vt 0.1052114 0.6981607
vt 0.1085193 0.6750051
vt 0.1068654 0.6750051
vt 0.05559221 0.6576384
vt 0.0564192 0.6667352
vt 0.05972714 0.6576384
vt 0.05311125 0.6667352
vt 0.05559221 0.6576384
vt 0.05476522 0.6559844
vt 0.1052114 0.6981607
vt 0.1043844 0.676659
vt 0.1019035 0.6973338
vt 0.05972714 0.6576384
vt 0.0564192 0.6667352
vt 0.05972714 0.6667352
vt 0.05311125 0.6667352
vt 0.05311125 0.6568114
vt 0.05145728 0.6659082
vt 0.0564192 0.6667352
vt 0.05311125 0.6667352
vt 0.05063029 0.6874099
vt 0.05311125 0.6667352
vt 0.05145728 0.6659082
vt 0.05063029 0.6874099
vt 0.05972714 0.6667352
vt 0.0564192 0.6667352
vt 0.05476522 0.6874099
vt 0.1052114 0.6981607
vt 0.1043844 0.7147005
vt 0.1068654 0.6981607
vt 0.1052114 0.6981607
vt 0.1019035 0.6973338
vt 0.1043844 0.7147005
vt 0.07792085 0.6898909
vt 0.07874783 0.7006417
vt 0.07957482 0.6898909
vt 0.1002495 0.6989877
vt 0.09859551 0.6981607
vt 0.1019035 0.7147005
vt 0.07543989 0.6898909
vt 0.0746129 0.7006417
vt 0.07626687 0.7006417
vt 0.07874783 0.7006417
vt 0.07543989 0.6898909
vt 0.07626687 0.7006417
vt 0.07543989 0.6898909
vt 0.07874783 0.7006417
vt 0.07792085 0.6898909
vt 0.1002495 0.6989877
vt 0.1019035 0.7147005
vt 0.1019035 0.6973338
vt 0.07874783 0.7006417
vt 0.08205578 0.6898909
vt 0.07957482 0.6898909
vt 0.08205578 0.6898909
vt 0.07874783 0.7006417
vt 0.08040181 0.7006417
vt 0.07874783 0.7006417
vt 0.07626687 0.7006417
vt 0.07543989 0.7105655
vt 0.07626687 0.7006417
vt 0.0746129 0.7006417
vt 0.07543989 0.7105655
vt 0.07874783 0.7006417
vt 0.07792085 0.7113925
vt 0.08040181 0.7006417
vt 0.04732235 0.6675622
vt 0.0440144 0.6568114
vt 0.04236042 0.6675622
vt 0.03822549 0.6683892
vt 0.0316096 0.6667352
vt 0.03657152 0.6874099
vt 0.04070646 0.6857559
vt 0.03822549 0.6683892
vt 0.03657152 0.6874099
vt 0.0316096 0.6667352
vt 0.02995563 0.6865829
vt 0.03657152 0.6874099
vt 0.04070646 0.6857559
vt 0.04732235 0.6675622
vt 0.04236042 0.6675622
vt 0.0316096 0.6667352
vt 0.03739851 0.6592923
vt 0.03491755 0.6584654
vt 0.03987947 0.6898909
vt 0.03657152 0.6874099
vt 0.03574453 0.7155274
vt 0.06468906 0.6907179
vt 0.06717002 0.7039496
vt 0.06799701 0.6898909
vt 0.02995563 0.6865829
vt 0.03078262 0.7155274
vt 0.03243659 0.7147005
vt 0.03574453 0.7155274
vt 0.02995563 0.6865829
vt 0.03243659 0.7147005
vt 0.07047796 0.7039496
vt 0.07130495 0.6915448
vt 0.06965098 0.7039496
vt 0.06717002 0.7039496
vt 0.07130495 0.6915448
vt 0.06799701 0.6898909
vt 0.03905248 0.7163544
vt 0.03987947 0.6898909
vt 0.03574453 0.7155274
vt 0.06551605 0.7039496
vt 0.06468906 0.6907179
vt 0.06055413 0.6907179
vt 0.06717002 0.7039496
vt 0.06551605 0.7039496
vt 0.06717002 0.7171814
vt 0.07047796 0.7039496
vt 0.06965098 0.7039496
vt 0.06882399 0.7171814
vt 0.06717002 0.7039496
vt 0.06882399 0.7171814
vt 0.06965098 0.7039496
vt 0.03574453 0.7155274
vt 0.03243659 0.7353751
vt 0.03905248 0.7163544
vt 0.03078262 0.7155274
vt 0.02995563 0.7345481
vt 0.03243659 0.7147005
vt 0.03326358 0.7163544
vt 0.03243659 0.7147005
vt 0.02995563 0.7345481
vt 0.1242321 0.6592923
vt 0.1076924 0.6584654
vt 0.1258861 0.6609463
vt 0.03574453 0.7155274
vt 0.03326358 0.7163544
vt 0.03243659 0.7353751
vt 0.1250591 0.6576384
vt 0.1258861 0.6559844
vt 0.1076924 0.6584654
vt 0.1242321 0.6592923
vt 0.1250591 0.6576384
vt 0.1076924 0.6584654
vt 0.02830166 0.6568114
vt 0.0316096 0.6667352
vt 0.03491755 0.6584654
vt 0.04236042 0.6675622
vt 0.03739851 0.6592923
vt 0.03822549 0.6683892
vt 0.06799701 0.7825133
vt 0.07130495 0.7891292
vt 0.06551605 0.7783784
vt 0.1763322 0.5302824
vt 0.1349829 0.5939604
vt 0.1705433 0.5716317
vt 0.1349829 0.5939604
vt 0.07130495 0.5526111
vt 0.09446058 0.5865176
vt 0.07130495 0.5526111
vt 0.1126543 0.4889331
vt 0.07874783 0.5112618
vt 0.1349829 0.5939604
vt 0.1126543 0.4889331
vt 0.07130495 0.5526111
vt 0.1763322 0.5302824
vt 0.1126543 0.4889331
vt 0.1349829 0.5939604
vt 0.3036881 0.8205547
vt 0.2987262 0.8313055
vt 0.3020342 0.8379214
vt 0.08288276 0.6568114
vt 0.07378592 0.6601194
vt 0.08370975 0.6592923
vt 0.07378592 0.6634273
vt 0.08453674 0.6708701
vt 0.08784468 0.6642542
vt 0.1085193 0.6750051
vt 0.1052114 0.6981607
vt 0.1068654 0.6981607
vt 0.05559221 0.6576384
vt 0.05311125 0.6667352
vt 0.0564192 0.6667352
vt 0.1043844 0.676659
vt 0.1052114 0.6981607
vt 0.1068654 0.6750051
vt 0.05311125 0.6568114
vt 0.05311125 0.6667352
vt 0.05476522 0.6559844
vt 0.0440144 0.6568114
vt 0.04732235 0.6675622
vt 0.04897632 0.6576384
vt 0.03822549 0.6683892
vt 0.04070646 0.6857559
vt 0.04236042 0.6675622
vt 0.04732235 0.6675622
vt 0.04070646 0.6857559
vt 0.0440144 0.6865829
vt 0.03739851 0.6592923
vt 0.0316096 0.6667352
vt 0.03822549 0.6683892
vt 0.02995563 0.6865829
vt 0.03574453 0.7155274
vt 0.03657152 0.6874099
vt 0.07130495 0.6915448
vt 0.07047796 0.7039496
vt 0.0746129 0.6898909
vt 0.07130495 0.6915448
vt 0.06717002 0.7039496
vt 0.06965098 0.7039496
vt 0.03987947 0.6898909
vt 0.03905248 0.7163544
vt 0.0440144 0.6874099
vt 0.06468906 0.6907179
vt 0.06551605 0.7039496
vt 0.06717002 0.7039496
vt 0.03739851 0.6592923
vt 0.04236042 0.6675622
vt 0.0440144 0.6568114
vn 0.919797 -0.08919287 -0.3821231
vn 0.919797 -0.08919287 -0.3821231
vn 0.919797 -0.08919287 -0.3821231
vn 0.919797 -0.08919287 -0.3821231
vn 0.7238998 0.6238729 -0.2945362
vn 0.7238998 0.6238729 -0.2945362
vn 0.7238998 0.6238729 -0.2945362
vn 0.7238998 0.6238729 -0.2945362
vn 0.3791207 -0.08919287 -0.9210386
vn 0.3791207 -0.08919287 -0.9210386
vn 0.3791207 -0.08919287 -0.9210386
vn 0.3791207 -0.08919287 -0.9210386
vn 0.3007618 0.6238729 -0.7213355
vn 0.3007618 0.6238729 -0.7213355
vn 0.3007618 0.6238729 -0.7213355
vn 0.3007618 0.6238729 -0.7213355
vn -0.3809604 -0.08919287 -0.9202792
vn -0.3809604 -0.08919287 -0.9202792
vn -0.3809604 -0.08919287 -0.9202792
vn -0.3809604 -0.08919287 -0.9202792
vn -0.3026015 0.6238729 -0.7205657
vn -0.3026015 0.6238729 -0.7205657
vn -0.3026015 0.6238729 -0.7205657
vn -0.3026015 0.6238729 -0.7205657
vn -0.9216366 -0.08919287 -0.3776646
vn -0.9216366 -0.08919287 -0.3776646
vn -0.9216366 -0.08919287 -0.3776646
vn -0.9216366 -0.08919287 -0.3776646
vn -0.7257394 0.6238729 -0.2899739
vn -0.7257394 0.6238729 -0.2899739
vn -0.7257394 0.6238729 -0.2899739
vn -0.7257394 0.6238729 -0.2899739
vn -0.9216366 -0.08919287 0.3776646
vn -0.9216366 -0.08919287 0.3776646
vn -0.9216366 -0.08919287 0.3776646
vn -0.9216366 -0.08919287 0.3776646
vn -0.7257394 0.6238729 0.2899739
vn -0.7257394 0.6238729 0.2899739
vn -0.7257394 0.6238729 0.2899739
vn -0.7257394 0.6238729 0.2899739
vn -0.3809604 -0.08919287 0.9202792
vn -0.3809604 -0.08919287 0.9202792
vn -0.3809604 -0.08919287 0.9202792
vn -0.3809604 -0.08919287 0.9202792
vn -0.3026015 0.6238729 0.7205657
vn -0.3026015 0.6238729 0.7205657
vn -0.3026015 0.6238729 0.7205657
vn -0.3026015 0.6238729 0.7205657
vn 0.3791207 -0.08919287 0.9210386
vn 0.3791207 -0.08919287 0.9210386
vn 0.3791207 -0.08919287 0.9210386
vn 0.3791207 -0.08919287 0.9210386
vn 0.3007618 0.6238729 0.7213355
vn 0.3007618 0.6238729 0.7213355
vn 0.3007618 0.6238729 0.7213355
vn 0.3007618 0.6238729 0.7213355
vn 0.919797 -0.08919287 0.3821231
vn 0.919797 -0.08919287 0.3821231
vn 0.919797 -0.08919287 0.3821231
vn 0.919797 -0.08919287 0.3821231
vn 0.7238998 0.6238729 0.2945362
vn 0.7238998 0.6238729 0.2945362
vn 0.7238998 0.6238729 0.2945362
vn 0.7238998 0.6238729 0.2945362
vn 0.002998114 0.9999955 0
vn 0.002998114 0.9999955 0
vn 0.002998114 0.9999955 0
vn 0.002998114 0.9999955 0
vn 0.002998114 0.9999955 0
vn 0.002998114 0.9999955 0
vn 0.002998114 0.9999955 0
vn 0.002998114 0.9999955 0
vn 0.002998114 0.9999955 0
vn 0.002998114 0.9999955 0
vn 0.002998114 0.9999955 0
vn 0.002998114 0.9999955 0
vn 0.002998114 0.9999955 0
vn 0.002998114 0.9999955 0
vn 0.002998114 0.9999955 0
vn 0.002998114 0.9999955 0
vn 0.002998114 0.9999955 0
vn -0.9216366 -0.002998114 0.3880424
vn -0.9216366 -0.002998114 0.3880424
vn -0.9216366 -0.002998114 0.3880424
vn -0.3809604 -0.002998114 0.9245865
vn -0.3809604 -0.002998114 0.9245865
vn -0.3809604 -0.002998114 0.9245865
vn -0.3809604 -0.002998114 0.9245865
vn -0.3809604 -0.002998114 0.9245865
vn 0.3791207 -0.002998114 0.9253423
vn 0.3791207 -0.002998114 0.9253423
vn 0.3791207 -0.002998114 0.9253423
vn 0.9276329 -0.002998114 0.3734812
vn 0.9276329 -0.002998114 0.3734812
vn 0.9276329 -0.002998114 0.3734812
vn 0.9276329 -0.002998114 -0.3734812
vn 0.9276329 -0.002998114 -0.3734812
vn 0.9276329 -0.002998114 -0.3734812
vn 0.9276329 -0.002998114 -0.3734812
vn 0.3791207 -0.002998114 -0.9253423
vn 0.3791207 -0.002998114 -0.9253423
vn 0.3791207 -0.002998114 -0.9253423
vn 0.3791207 -0.002998114 -0.9253423
vn -0.3809604 -0.002998114 -0.9245865
vn -0.3809604 -0.002998114 -0.9245865
vn -0.3809604 -0.002998114 -0.9245865
vn 0.1048647 0.9608161 -0.2565851
vn 0.1048647 0.9608161 -0.2565851
vn 0.1048647 0.9608161 -0.2565851
vn -0.412304 0.341781 0.8445064
vn -0.412304 0.341781 0.8445064
vn -0.412304 0.341781 0.8445064
vn -0.6787241 0.4201398 0.6023422
vn -0.6787241 0.4201398 0.6023422
vn -0.6787241 0.4201398 0.6023422
vn -0.9921597 0.09886843 -0.07644771
vn -0.9921597 0.09886843 -0.07644771
vn -0.9921597 0.09886843 -0.07644771
vn -0.6473807 -0.5985256 0.4718743
vn -0.6473807 -0.5985256 0.4718743
vn -0.6473807 -0.5985256 0.4718743
vn -0.6395447 -0.6847204 0.3494862
vn -0.6395447 -0.6847204 0.3494862
vn -0.6395447 -0.6847204 0.3494862
vn -0.7492471 -0.5358385 0.3892375
vn -0.7492471 -0.5358385 0.3892375
vn -0.7492471 -0.5358385 0.3892375
vn -0.05185312 -0.002998114 0.9986502
vn -0.05185312 -0.002998114 0.9986502
vn -0.05185312 -0.002998114 0.9986502
vn -0.2634221 -0.1753876 0.9486032
vn -0.2634221 -0.1753876 0.9486032
vn -0.2634221 -0.1753876 0.9486032
vn -0.8197702 0.0831967 -0.5666173
vn -0.8197702 0.0831967 -0.5666173
vn -0.8197702 0.0831967 -0.5666173
vn -0.9764878 0.1615556 -0.1427282
vn -0.9764878 0.1615556 -0.1427282
vn -0.9764878 0.1615556 -0.1427282
vn -0.3887963 0.2477503 -0.8873879
vn -0.3887963 0.2477503 -0.8873879
vn -0.3887963 0.2477503 -0.8873879
vn -0.6238729 -0.7709152 -0.1283448
vn -0.6238729 -0.7709152 -0.1283448
vn -0.6238729 -0.7709152 -0.1283448
vn -0.4906629 -0.3164336 -0.8118619
vn -0.4906629 -0.3164336 -0.8118619
vn -0.4906629 -0.3164336 -0.8118619
vn -0.4279757 -0.4418078 -0.7884432
vn -0.4279757 -0.4418078 -0.7884432
vn -0.4279757 -0.4418078 -0.7884432
vn -0.8040983 -0.5906897 -0.06716818
vn -0.8040983 -0.5906897 -0.06716818
vn -0.8040983 -0.5906897 -0.06716818
vn 0.2772542 0.6160371 -0.7373117
vn 0.2772542 0.6160371 -0.7373117
vn 0.2772542 0.6160371 -0.7373117
vn 0.5515103 -0.6847204 -0.4764393
vn 0.5515103 -0.6847204 -0.4764393
vn 0.5515103 -0.6847204 -0.4764393
vn 0.7238998 -0.002998114 -0.6898986
vn 0.7238998 -0.002998114 -0.6898986
vn 0.7238998 -0.002998114 -0.6898986
vn 0.496659 -0.708228 -0.5017399
vn 0.496659 -0.708228 -0.5017399
vn 0.496659 -0.708228 -0.5017399
vn 0.292926 -0.5828538 -0.7579419
vn 0.292926 -0.5828538 -0.7579419
vn 0.292926 -0.5828538 -0.7579419
vn 0.2459106 0.5768576 0.7789501
vn 0.2459106 0.5768576 0.7789501
vn 0.2459106 0.5768576 0.7789501
vn 0.4339719 -0.5985256 0.6733761
vn 0.4339719 -0.5985256 0.6733761
vn 0.4339719 -0.5985256 0.6733761
vn 0.504495 -0.1048647 0.8570229
vn 0.504495 -0.1048647 0.8570229
vn 0.504495 -0.1048647 0.8570229
vn 0.4183002 -0.3556131 0.8358016
vn 0.4183002 -0.3556131 0.8358016
vn 0.4183002 -0.3556131 0.8358016
vn 0.849274 -0.3477772 0.3972211
vn 0.849274 -0.3477772 0.3972211
vn 0.849274 -0.3477772 0.3972211
vn 0.5123308 -0.3791207 0.7705742
vn 0.5123308 -0.3791207 0.7705742
vn 0.5123308 -0.3791207 0.7705742
vn -0.200735 -0.8179305 -0.5391616
vn -0.200735 -0.8179305 -0.5391616
vn -0.200735 -0.8179305 -0.5391616
vn 0.5515103 -0.8336022 -0.03072003
vn 0.5515103 -0.8336022 -0.03072003
vn 0.5515103 -0.8336022 -0.03072003
vn -0.4358116 0.7649189 0.4743072
vn -0.4358116 0.7649189 0.4743072
vn -0.4358116 0.7649189 0.4743072
vn -0.6630524 0.7179036 -0.2120754
vn -0.6630524 0.7179036 -0.2120754
vn -0.6630524 0.7179036 -0.2120754
vn -0.1458837 0.6238729 0.7677894
vn -0.1458837 0.6238729 0.7677894
vn -0.1458837 0.6238729 0.7677894
vn -0.5376782 0.3182734 0.7807716
vn -0.5376782 0.3182734 0.7807716
vn -0.5376782 0.3182734 0.7807716
vn -0.5611858 -0.4339719 0.704797
vn -0.5611858 -0.4339719 0.704797
vn -0.5611858 -0.4339719 0.704797
vn -0.8589496 -0.504495 -0.08769509
vn -0.8589496 -0.504495 -0.08769509
vn -0.8589496 -0.504495 -0.08769509
vn -0.1537197 -0.4653155 0.8716948
vn -0.1537197 -0.4653155 0.8716948
vn -0.1537197 -0.4653155 0.8716948
vn -0.7962624 -0.1675518 -0.5812852
vn -0.7962624 -0.1675518 -0.5812852
vn -0.7962624 -0.1675518 -0.5812852
vn -0.4436476 -0.2615824 -0.8571764
vn -0.4436476 -0.2615824 -0.8571764
vn -0.4436476 -0.2615824 -0.8571764
vn -0.8197702 -0.5593462 -0.1229175
vn -0.8197702 -0.5593462 -0.1229175
vn -0.8197702 -0.5593462 -0.1229175
vn 0.6612127 0.004837811 -0.7501829
vn 0.6612127 0.004837811 -0.7501829
vn 0.6612127 0.004837811 -0.7501829
vn 0.3399413 -0.3791207 -0.8606436
vn 0.3399413 -0.3791207 -0.8606436
vn 0.3399413 -0.3791207 -0.8606436
vn 0.919797 0.3887963 -0.05301816
vn 0.919797 0.3887963 -0.05301816
vn 0.919797 0.3887963 -0.05301816
vn 0.4809873 0.7100677 0.514252
vn 0.4809873 0.7100677 0.514252
vn 0.4809873 0.7100677 0.514252
vn 0.7395716 0.07536083 0.6688457
vn 0.7395716 0.07536083 0.6688457
vn 0.7395716 0.07536083 0.6688457
vn 0.2694183 0.1615556 0.9493753
vn 0.2694183 0.1615556 0.9493753
vn 0.2694183 0.1615556 0.9493753
vn 0.919797 -0.04217756 0.3901212
vn 0.919797 -0.04217756 0.3901212
vn 0.919797 -0.04217756 0.3901212
vn 0.5515103 -0.4653155 0.6923279
vn 0.5515103 -0.4653155 0.6923279
vn 0.5515103 -0.4653155 0.6923279
vn 0.1988953 -0.5671821 0.7992153
vn 0.1988953 -0.5671821 0.7992153
vn 0.1988953 -0.5671821 0.7992153
vn -0.7100677 -0.7003921 0.07248983
vn -0.7100677 -0.7003921 0.07248983
vn -0.7100677 -0.7003921 0.07248983
vn 0.3321054 -0.7630793 -0.5544511
vn 0.3321054 -0.7630793 -0.5544511
vn 0.3321054 -0.7630793 -0.5544511
vn 0.2459106 -0.919797 -0.30578
vn 0.2459106 -0.919797 -0.30578
vn 0.2459106 -0.919797 -0.30578
vn 0.8414381 0.5298423 -0.1060613
vn 0.8414381 0.5298423 -0.1060613
vn 0.8414381 0.5298423 -0.1060613
vn 0.3085977 0.6630524 -0.6820037
vn 0.3085977 0.6630524 -0.6820037
vn 0.3085977 0.6630524 -0.6820037
vn -0.2399145 0.9608161 -0.1388291
vn -0.2399145 0.9608161 -0.1388291
vn -0.2399145 0.9608161 -0.1388291
vn -0.7805907 0.1850632 -0.5970174
vn -0.7805907 0.1850632 -0.5970174
vn -0.7805907 0.1850632 -0.5970174
vn -0.6787241 0.7022318 -0.2149513
vn -0.6787241 0.7022318 -0.2149513
vn -0.6787241 0.7022318 -0.2149513
vn -0.05968899 0.968652 0.2411445
vn -0.05968899 0.968652 0.2411445
vn -0.05968899 0.968652 0.2411445
vn 0.4809873 0.7179036 0.5032551
vn 0.4809873 0.7179036 0.5032551
vn 0.4809873 0.7179036 0.5032551
vn -0.3574528 0.7884266 0.5006106
vn -0.3574528 0.7884266 0.5006106
vn -0.3574528 0.7884266 0.5006106
vn -0.6787241 0.474991 0.5601045
vn -0.6787241 0.474991 0.5601045
vn -0.6787241 0.474991 0.5601045
vn -0.8589496 0.3887963 0.3332312
vn -0.8589496 0.3887963 0.3332312
vn -0.8589496 0.3887963 0.3332312
vn -0.8589496 0.3809604 0.3421619
vn -0.9373084 0.3026015 0.1728738
vn -0.9373084 0.3026015 0.1728738
vn -0.9373084 0.3026015 0.1728738
vn -0.9373084 0.3026015 0.1728738
vn -0.8824572 -0.2615824 0.3909526
vn -0.8824572 -0.2615824 0.3909526
vn -0.8824572 -0.2615824 0.3909526
vn -0.8824572 -0.2694183 0.3855945
vn -0.4593193 0.02834553 0.8878189
vn -0.4593193 0.02834553 0.8878189
vn -0.4593193 0.02834553 0.8878189
vn 0.1205364 0.3026015 0.9454646
vn 0.1205364 0.3026015 0.9454646
vn 0.1205364 0.3026015 0.9454646
vn -0.8824572 0.1458837 -0.4471993
vn -0.8824572 0.1458837 -0.4471993
vn -0.8824572 0.1458837 -0.4471993
vn -0.8902931 0.4358116 -0.1320853
vn -0.8902931 0.4358116 -0.1320853
vn -0.8902931 0.4358116 -0.1320853
vn -0.7335754 0.05185312 -0.677627
vn -0.7335754 0.05185312 -0.677627
vn -0.7335754 0.05185312 -0.677627
vn -0.1537197 0.03618139 -0.9874519
vn -0.1537197 0.03618139 -0.9874519
vn -0.1537197 0.03618139 -0.9874519
vn -0.4906629 -0.7552434 -0.4345772
vn -0.4906629 -0.7552434 -0.4345772
vn -0.4906629 -0.7552434 -0.4345772
vn -0.5533499 -0.3007618 -0.7767537
vn -0.5533499 -0.3007618 -0.7767537
vn -0.5533499 -0.3007618 -0.7767537
vn -0.4514834 -0.7238998 -0.5216625
vn -0.4514834 -0.7238998 -0.5216625
vn -0.4514834 -0.7238998 -0.5216625
vn -0.5846935 -0.4104643 -0.6997518
vn -0.5846935 -0.4104643 -0.6997518
vn -0.5846935 -0.4104643 -0.6997518
vn -0.9294725 -0.3085977 0.2021096
vn -0.9294725 -0.3085977 0.2021096
vn -0.9294725 -0.3085977 0.2021096
vn -0.7649189 -0.5671821 -0.3052927
vn -0.7649189 -0.5671821 -0.3052927
vn -0.7649189 -0.5671821 -0.3052927
vn 0.3712848 0.1145403 -0.9214272
vn 0.3712848 0.1145403 -0.9214272
vn 0.3712848 0.1145403 -0.9214272
vn 0.5828538 0.1380479 -0.8007647
vn 0.5828538 0.1380479 -0.8007647
vn 0.5828538 0.1380479 -0.8007647
vn 0.9746482 0.2164068 0.0568236
vn 0.9746482 0.2164068 0.0568236
vn 0.9746482 0.2164068 0.0568236
vn 0.9981559 0.01267368 -0.05936494
vn 0.9981559 0.01267368 -0.05936494
vn 0.9981559 0.01267368 -0.05936494
vn 0.7552434 -0.6533768 0.05202115
vn 0.7552434 -0.6533768 0.05202115
vn 0.7552434 -0.6533768 0.05202115
vn 0.4418078 -0.5828538 -0.6819731
vn 0.4418078 -0.5828538 -0.6819731
vn 0.4418078 -0.5828538 -0.6819731
vn 0.7865869 0.4436476 0.4294856
vn 0.7865869 0.4436476 0.4294856
vn 0.7865869 0.4436476 0.4294856
vn 0.5358385 0.4358116 0.7231497
vn 0.5358385 0.4358116 0.7231497
vn 0.5358385 0.4358116 0.7231497
vn 0.6612127 -0.3791207 0.6473525
vn 0.6612127 -0.3791207 0.6473525
vn 0.6612127 -0.3791207 0.6473525
vn 0.4888232 0.05185312 0.8708405
vn 0.4888232 0.05185312 0.8708405
vn 0.4888232 0.05185312 0.8708405
vn 0.4496437 -0.3712848 0.8123842
vn 0.4496437 -0.3712848 0.8123842
vn 0.4496437 -0.3712848 0.8123842
vn -0.8040983 -0.5906897 0.06716818
vn -0.8040983 -0.5906897 0.06716818
vn -0.8040983 -0.5906897 0.06716818
vn -0.7884266 -0.6141974 0.03383925
vn -0.2947657 -0.8884535 -0.3518005
vn -0.2947657 -0.8884535 -0.3518005
vn -0.2947657 -0.8884535 -0.3518005
vn -0.2555862 -0.8727817 -0.4158459
vn -0.2555862 -0.8727817 -0.4158459
vn -0.2555862 -0.8727817 -0.4158459
vn 0.4809873 0.8511136 -0.2103732
vn 0.4809873 0.8511136 -0.2103732
vn 0.4809873 0.8511136 -0.2103732
vn 0.081357 0.7179036 -0.6913722
vn 0.081357 0.7179036 -0.6913722
vn 0.081357 0.7179036 -0.6913722
vn -0.2947657 0.5533499 -0.7790489
vn -0.2947657 0.5533499 -0.7790489
vn -0.2947657 0.5533499 -0.7790489
vn -0.6473807 0.7179036 0.2559546
vn -0.6473807 0.7179036 0.2559546
vn -0.6473807 0.7179036 0.2559546
vn -0.757083 0.6395447 -0.1334465
vn -0.757083 0.6395447 -0.1334465
vn -0.757083 0.6395447 -0.1334465
vn -0.7257394 0.4279757 0.5386456
vn -0.7257394 0.4279757 0.5386456
vn -0.7257394 0.4279757 0.5386456
vn 0.081357 0.482827 0.8719284
vn 0.081357 0.482827 0.8719284
vn 0.081357 0.482827 0.8719284
vn -0.9059649 -0.3477772 0.2414097
vn -0.9059649 -0.3477772 0.2414097
vn -0.9059649 -0.3477772 0.2414097
vn -0.5846935 -0.496659 0.641454
vn -0.5846935 -0.496659 0.641454
vn -0.5846935 -0.496659 0.641454
vn -0.6630524 0.3026015 -0.6846852
vn -0.6630524 0.3026015 -0.6846852
vn -0.6630524 0.3026015 -0.6846852
vn -0.3809604 0.1615556 -0.9103675
vn -0.3809604 0.1615556 -0.9103675
vn -0.3809604 0.1615556 -0.9103675
vn -0.7492471 -0.1910594 -0.6341333
vn -0.7492471 -0.1910594 -0.6341333
vn -0.7492471 -0.1910594 -0.6341333
vn -0.8432778 -0.2145671 -0.4927916
vn -0.8432778 -0.2145671 -0.4927916
vn -0.8432778 -0.2145671 -0.4927916
vn -0.8746213 -0.4888232 0
vn -0.8746213 -0.4888232 0
vn -0.8746213 -0.4888232 0
vn 0.3556131 0.09886843 -0.9293892
vn 0.3556131 0.09886843 -0.9293892
vn 0.3556131 0.09886843 -0.9293892
vn 0.363449 0.09103256 -0.9271558
vn 0.8571099 0.4201398 -0.298069
vn 0.8571099 0.4201398 -0.298069
vn 0.8571099 0.4201398 -0.298069
vn 0.5671821 0.2242426 -0.792477
vn 0.5671821 0.2242426 -0.792477
vn 0.5671821 0.2242426 -0.792477
vn 0.9041252 0.2555862 0.3423935
vn 0.9041252 0.2555862 0.3423935
vn 0.9041252 0.2555862 0.3423935
vn 0.1832235 0.5298423 0.8280678
vn 0.1832235 0.5298423 0.8280678
vn 0.1832235 0.5298423 0.8280678
vn 0.6220332 0.1223761 0.7733684
vn 0.6220332 0.1223761 0.7733684
vn 0.6220332 0.1223761 0.7733684
vn 0.8022587 0.06752497 0.5931453
vn 0.8022587 0.06752497 0.5931453
vn 0.8022587 0.06752497 0.5931453
vn -0.6787241 -0.6063615 0.4143179
vn -0.6787241 -0.6063615 0.4143179
vn -0.6787241 -0.6063615 0.4143179
vn -0.4279757 -0.8336022 -0.3492049
vn -0.4279757 -0.8336022 -0.3492049
vn -0.4279757 -0.8336022 -0.3492049
vn -0.2555862 -0.8727817 -0.4158459
vn -0.2555862 -0.8727817 -0.4158459
vn -0.2555862 -0.8727817 -0.4158459
vn 0.6298692 -0.7474074 0.2112982
vn 0.6298692 -0.7474074 0.2112982
vn 0.6298692 -0.7474074 0.2112982
vn 0.4418078 0.898129 0
vn 0.4418078 0.898129 0
vn 0.4418078 0.898129 0
vn -0.02050954 0.7100677 -0.7038347
vn -0.02050954 0.7100677 -0.7038347
vn -0.02050954 0.7100677 -0.7038347
vn -0.5376782 0.8432778 0
vn -0.5376782 0.8432778 0
vn -0.5376782 0.8432778 0
vn -0.7649189 0.5376782 -0.3546848
vn -0.7649189 0.5376782 -0.3546848
vn -0.7649189 0.5376782 -0.3546848
vn -0.7492471 0.6395447 -0.1720795
vn -0.7492471 0.6395447 -0.1720795
vn -0.7492471 0.6395447 -0.1720795
vn -0.4984987 0.8667855 0.01348974
vn -0.4984987 0.8667855 0.01348974
vn -0.4984987 0.8667855 0.01348974
vn -0.01267368 0.9921597 0.1243326
vn -0.01267368 0.9921597 0.1243326
vn -0.01267368 0.9921597 0.1243326
vn -0.8040983 0.5768576 0.1437401
vn -0.8040983 0.5768576 0.1437401
vn -0.8040983 0.5768576 0.1437401
vn -0.5063346 0.05968899 0.8602689
vn -0.5063346 0.05968899 0.8602689
vn -0.5063346 0.05968899 0.8602689
vn -0.4514834 -0.6141974 0.6472436
vn -0.4514834 -0.6141974 0.6472436
vn -0.4514834 -0.6141974 0.6472436
vn -0.9451444 -0.2615824 0.1956445
vn -0.9451444 -0.2615824 0.1956445
vn -0.9451444 -0.2615824 0.1956445
vn -0.8902931 -0.4104643 0.1972241
vn -0.8902931 -0.4104643 0.1972241
vn -0.8902931 -0.4104643 0.1972241
vn -0.3731245 -0.3164336 0.8721513
vn -0.3731245 -0.3164336 0.8721513
vn -0.3731245 -0.3164336 0.8721513
vn -0.8432778 0.2790939 -0.4593356
vn -0.8432778 0.2790939 -0.4593356
vn -0.8432778 0.2790939 -0.4593356
vn -0.9764878 0.2242426 0
vn -0.9764878 0.2242426 0
vn -0.9764878 0.2242426 0
vn -0.5141705 0.2085709 -0.8319417
vn -0.5141705 0.2085709 -0.8319417
vn -0.5141705 0.2085709 -0.8319417
vn -0.1615556 0.2869298 -0.9442304
vn -0.1615556 0.2869298 -0.9442304
vn -0.1615556 0.2869298 -0.9442304
vn -0.1380479 -0.4653155 -0.8743137
vn -0.1380479 -0.4653155 -0.8743137
vn -0.1380479 -0.4653155 -0.8743137
vn -0.1145403 -0.4418078 -0.8897676
vn -0.8746213 -0.2850901 -0.3921239
vn -0.8746213 -0.2850901 -0.3921239
vn -0.8746213 -0.2850901 -0.3921239
vn -0.9764878 -0.1988953 0.08313954
vn -0.9764878 -0.1988953 0.08313954
vn -0.9764878 -0.1988953 0.08313954
vn -0.6082012 -0.6925563 -0.387888
vn -0.6082012 -0.6925563 -0.387888
vn -0.6082012 -0.6925563 -0.387888
vn 0.4496437 0.3731245 -0.8115409
vn 0.4496437 0.3731245 -0.8115409
vn 0.4496437 0.3731245 -0.8115409
vn 0.778751 0.3731245 -0.5043064
vn 0.778751 0.3731245 -0.5043064
vn 0.778751 0.3731245 -0.5043064
vn 0.8962893 0.4436476 0
vn 0.8962893 0.4436476 0
vn 0.8962893 0.4436476 0
vn 0.6847204 -0.6298692 -0.3666372
vn 0.6847204 -0.6298692 -0.3666372
vn 0.6847204 -0.6298692 -0.3666372
vn 0.9668123 0.02050954 -0.2546631
vn 0.9668123 0.02050954 -0.2546631
vn 0.9668123 0.02050954 -0.2546631
vn 0.9511406 -0.2772542 -0.135874
vn 0.9511406 -0.2772542 -0.135874
vn 0.9511406 -0.2772542 -0.135874
vn 0.6063615 -0.222403 -0.7634544
vn 0.6063615 -0.222403 -0.7634544
vn 0.6063615 -0.222403 -0.7634544
vn 0.3242695 -0.2067312 -0.9230989
vn 0.3242695 -0.2067312 -0.9230989
vn 0.3242695 -0.2067312 -0.9230989
vn 0.5280026 -0.4888232 -0.6944531
vn 0.5280026 -0.4888232 -0.6944531
vn 0.5280026 -0.4888232 -0.6944531
vn 0.7552434 -0.4261361 0.4980115
vn 0.7552434 -0.4261361 0.4980115
vn 0.7552434 -0.4261361 0.4980115
vn 0.2145671 0.4358116 0.8740876
vn 0.2145671 0.4358116 0.8740876
vn 0.2145671 0.4358116 0.8740876
vn 0.3556131 -0.3869566 0.8507667
vn 0.3556131 -0.3869566 0.8507667
vn 0.3556131 -0.3869566 0.8507667
vn 0.7865869 -0.4026284 0.4681575
vn 0.7865869 -0.4026284 0.4681575
vn 0.7865869 -0.4026284 0.4681575
vn 0.09702879 -0.5515103 0.8285058
vn 0.09702879 -0.5515103 0.8285058
vn 0.09702879 -0.5515103 0.8285058
vn 0.3791207 -0.8806176 0.2842185
vn 0.3791207 -0.8806176 0.2842185
vn 0.3791207 -0.8806176 0.2842185
vn -0.02050954 0.7335754 -0.6792986
vn -0.02050954 0.7335754 -0.6792986
vn -0.02050954 0.7335754 -0.6792986
vn -0.1928992 0.6003652 -0.776113
vn -0.1928992 0.6003652 -0.776113
vn -0.1928992 0.6003652 -0.776113
vn -0.6395447 0.7649189 -0.07669242
vn -0.6395447 0.7649189 -0.07669242
vn -0.6395447 0.7649189 -0.07669242
vn 0.2302389 0.8511136 0.4718005
vn 0.2302389 0.8511136 0.4718005
vn 0.2302389 0.8511136 0.4718005
vn 0.02650577 0.5063346 0.8619297
vn 0.02650577 0.5063346 0.8619297
vn 0.02650577 0.5063346 0.8619297
vn -0.7884266 0.05968899 0.6122261
vn -0.7884266 0.05968899 0.6122261
vn -0.7884266 0.05968899 0.6122261
vn -0.898129 0.2164068 -0.3827954
vn -0.898129 0.2164068 -0.3827954
vn -0.898129 0.2164068 -0.3827954
vn -0.2164068 0.3261092 -0.9202287
vn -0.2164068 0.3261092 -0.9202287
vn -0.2164068 0.3261092 -0.9202287
vn -0.5220065 -0.3556131 -0.7752733
vn -0.5220065 -0.3556131 -0.7752733
vn -0.5220065 -0.3556131 -0.7752733
vn -0.7335754 -0.4183002 -0.5356231
vn -0.7335754 -0.4183002 -0.5356231
vn -0.7335754 -0.4183002 -0.5356231
vn 0.4339719 0.341781 -0.8335791
vn 0.4339719 0.341781 -0.8335791
vn 0.4339719 0.341781 -0.8335791
vn 0.1597159 0.2399145 -0.9575656
vn 0.1597159 0.2399145 -0.9575656
vn 0.1597159 0.2399145 -0.9575656
vn 0.8179305 0.5533499 -0.15746
vn 0.8179305 0.5533499 -0.15746
vn 0.8179305 0.5533499 -0.15746
vn 0.8727817 0.07536083 -0.4822581
vn 0.8727817 0.07536083 -0.4822581
vn 0.8727817 0.07536083 -0.4822581
vn 0.5515103 -0.1753876 -0.8155217
vn 0.5515103 -0.1753876 -0.8155217
vn 0.5515103 -0.1753876 -0.8155217
vn 0.6690485 0.4593193 0.5842943
vn 0.6690485 0.4593193 0.5842943
vn 0.6690485 0.4593193 0.5842943
vn 0.6925563 0.5298423 0.4895232
vn 0.6925563 0.5298423 0.4895232
vn 0.6925563 0.5298423 0.4895232
vn 0.04217756 -0.778751 0.6259137
vn 0.04217756 -0.778751 0.6259137
vn 0.04217756 -0.778751 0.6259137
vn -0.2320786 -0.8571099 0.4598936
vn -0.2320786 -0.8571099 0.4598936
vn -0.2320786 -0.8571099 0.4598936
vn -0.341781 -0.9354688 0.0899104
vn -0.341781 -0.9354688 0.0899104
vn -0.341781 -0.9354688 0.0899104
vn 0.5123308 0.8589496 0
vn 0.5123308 0.8589496 0
vn 0.5123308 0.8589496 0
vn 0.08919287 0.7335754 -0.6737298
vn 0.08919287 0.7335754 -0.6737298
vn 0.08919287 0.7335754 -0.6737298
vn -0.6473807 0.7649189 0
vn -0.6473807 0.7649189 0
vn -0.6473807 0.7649189 0
vn -0.6708882 0.694396 -0.2602369
vn -0.6708882 0.694396 -0.2602369
vn -0.6708882 0.694396 -0.2602369
vn -0.9294725 0.3652887 0.05143001
vn -0.9294725 0.3652887 0.05143001
vn -0.9294725 0.3652887 0.05143001
vn 0.081357 0.8432778 0.5312849
vn 0.081357 0.8432778 0.5312849
vn 0.081357 0.8432778 0.5312849
vn 0.2537465 -0.2615824 -0.9312289
vn 0.2537465 -0.2615824 -0.9312289
vn 0.2537465 -0.2615824 -0.9312289
vn 0.99032 -0.1048647 0.09093763
vn 0.99032 -0.1048647 0.09093763
vn 0.99032 -0.1048647 0.09093763
vn -0.4906629 0.200735 0.8479124
vn -0.4906629 0.200735 0.8479124
vn -0.4906629 0.200735 0.8479124
vn 0.99032 0.1380479 0.01445793
vn 0.99032 0.1380479 0.01445793
vn 0.99032 0.1380479 0.01445793
vn 0.9589764 0.07536083 0.2732854
vn 0.9589764 0.07536083 0.2732854
vn 0.9589764 0.07536083 0.2732854
vn -0.6082012 -0.3869566 0.6930771
vn -0.6082012 -0.3869566 0.6930771
vn -0.6082012 -0.3869566 0.6930771
vn -0.2712579 0.3809604 -0.8839052
vn -0.2712579 0.3809604 -0.8839052
vn -0.2712579 0.3809604 -0.8839052
vn 0.9746482 -0.1205364 0.1884987
vn 0.9746482 -0.1205364 0.1884987
vn 0.9746482 -0.1205364 0.1884987
vn -0.2790939 0.5220065 -0.8059875
vn -0.2790939 0.5220065 -0.8059875
vn -0.2790939 0.5220065 -0.8059875
vn -0.6082012 -0.4183002 0.6746231
vn -0.6082012 -0.4183002 0.6746231
vn -0.6082012 -0.4183002 0.6746231
vn -0.2790939 -0.5828538 0.7631435
vn -0.2790939 -0.5828538 0.7631435
vn -0.2790939 -0.5828538 0.7631435
vn -0.6160371 0.4906629 -0.6162372
vn -0.6160371 0.4906629 -0.6162372
vn -0.6160371 0.4906629 -0.6162372
vn 0.9433047 0.2634221 -0.2019533
vn 0.9433047 0.2634221 -0.2019533
vn 0.9433047 0.2634221 -0.2019533
vn 0.9276329 0.3104374 -0.2076675
vn 0.9276329 0.3104374 -0.2076675
vn 0.9276329 0.3104374 -0.2076675
vn 0.8179305 0.1537197 0.5544006
vn 0.8179305 0.1537197 0.5544006
vn 0.8179305 0.1537197 0.5544006
vn -0.4201398 0.1458837 -0.8956564
vn -0.4201398 0.1458837 -0.8956564
vn -0.4201398 0.1458837 -0.8956564
vn -0.3261092 -0.3007618 0.8962116
vn -0.3261092 -0.3007618 0.8962116
vn -0.3261092 -0.3007618 0.8962116
vn 0.8884535 0.1772273 0.4233685
vn 0.8884535 0.1772273 0.4233685
vn 0.8884535 0.1772273 0.4233685
vn -0.8197702 0.5533499 0.1475831
vn -0.8197702 0.5533499 0.1475831
vn -0.8197702 0.5533499 0.1475831
vn -0.3496168 0.1772273 -0.9199775
vn -0.3496168 0.1772273 -0.9199775
vn -0.3496168 0.1772273 -0.9199775
vn 0.6298692 -0.6925563 -0.3516115
vn 0.6298692 -0.6925563 -0.3516115
vn 0.6298692 -0.6925563 -0.3516115
vn -0.9921597 -0.05001342 -0.1145333
vn -0.9921597 -0.05001342 -0.1145333
vn -0.9921597 -0.05001342 -0.1145333
vn -0.04401726 0.5063346 0.861213
vn -0.04401726 0.5063346 0.861213
vn -0.04401726 0.5063346 0.861213
vn -0.8040983 0.1850632 -0.564958
vn -0.8040983 0.1850632 -0.564958
vn -0.8040983 0.1850632 -0.564958
vn 0.6690485 -0.5750179 -0.4708804
vn 0.6690485 -0.5750179 -0.4708804
vn 0.6690485 -0.5750179 -0.4708804
vn -0.545514 -0.4888232 0.6807836
vn -0.545514 -0.4888232 0.6807836
vn -0.545514 -0.4888232 0.6807836
vn -0.130212 -0.6690485 -0.7317232
vn -0.130212 -0.6690485 -0.7317232
vn -0.130212 -0.6690485 -0.7317232
vn -0.8040983 0.200735 0.5595814
vn -0.8040983 0.200735 0.5595814
vn -0.8040983 0.200735 0.5595814
vn -0.09886843 0.5141705 0.8519705
vn -0.09886843 0.5141705 0.8519705
vn -0.09886843 0.5141705 0.8519705
vn 0.8649458 -0.3007618 -0.4017601
vn 0.8649458 -0.3007618 -0.4017601
vn 0.8649458 -0.3007618 -0.4017601
vn -0.3339451 0.6787241 -0.6540751
vn -0.3339451 0.6787241 -0.6540751
vn -0.3339451 0.6787241 -0.6540751
vn 0.2380747 0.5220065 -0.819042
vn 0.2380747 0.5220065 -0.819042
vn 0.2380747 0.5220065 -0.819042
vn 0.4809873 0.6317088 -0.6079434
vn 0.4809873 0.6317088 -0.6079434
vn 0.4809873 0.6317088 -0.6079434
vn 0.5436743 -0.6690485 0.5067467
vn 0.5436743 -0.6690485 0.5067467
vn 0.5436743 -0.6690485 0.5067467
vn -0.3182734 -0.4809873 0.8169169
vn -0.3182734 -0.4809873 0.8169169
vn -0.3182734 -0.4809873 0.8169169
vn -0.4514834 -0.01083404 -0.8922138
vn -0.4514834 -0.01083404 -0.8922138
vn -0.4514834 -0.01083404 -0.8922138
vn 0.9824841 0.1223761 -0.1405315
vn 0.9824841 0.1223761 -0.1405315
vn 0.9824841 0.1223761 -0.1405315
vn -0.1458837 0.04401726 0.988322
vn -0.1458837 0.04401726 0.988322
vn -0.1458837 0.04401726 0.988322
vn 0.07352114 -0.7238998 -0.6859764
vn 0.07352114 -0.7238998 -0.6859764
vn 0.07352114 -0.7238998 -0.6859764
vn -0.7962624 0.2712579 0.5407266
vn -0.7962624 0.2712579 0.5407266
vn -0.7962624 0.2712579 0.5407266
vn 0.6141974 0.4593193 0.6417066
vn 0.6141974 0.4593193 0.6417066
vn 0.6141974 0.4593193 0.6417066
vn -0.9843238 0.1145403 0.1341163
vn -0.9843238 0.1145403 0.1341163
vn -0.9843238 0.1145403 0.1341163
vn 0.05001342 -0.4496437 -0.8918067
vn 0.05001342 -0.4496437 -0.8918067
vn 0.05001342 -0.4496437 -0.8918067
vn 0.4653155 0.827606 0.3139264
vn 0.4653155 0.827606 0.3139264
vn 0.4653155 0.827606 0.3139264
vn 0.5593462 0.68656 0.4645075
vn 0.5593462 0.68656 0.4645075
vn 0.5593462 0.68656 0.4645075
vn 0.03434169 0.9451444 0.3248428
vn 0.03434169 0.9451444 0.3248428
vn 0.03434169 0.9451444 0.3248428
vn -0.4436476 -0.6298692 -0.6375278
vn -0.4436476 -0.6298692 -0.6375278
vn -0.4436476 -0.6298692 -0.6375278
vn -0.4671552 0.1458837 0.8720573
vn -0.4671552 0.1458837 0.8720573
vn -0.4671552 0.1458837 0.8720573
vn 0.1910594 -0.9746482 -0.1164351
vn 0.1910594 -0.9746482 -0.1164351
vn 0.1910594 -0.9746482 -0.1164351
vn 0.3399413 0.03618139 0.9397504
vn 0.3399413 0.03618139 0.9397504
vn 0.3399413 0.03618139 0.9397504
vn 0.8022587 0.412304 -0.4317249
vn 0.8022587 0.412304 -0.4317249
vn 0.8022587 0.412304 -0.4317249
vn -0.200735 -0.08919287 -0.9755768
vn -0.200735 -0.08919287 -0.9755768
vn -0.200735 -0.08919287 -0.9755768
vn -0.7962624 0.2790939 -0.5367241
vn -0.7962624 0.2790939 -0.5367241
vn -0.7962624 0.2790939 -0.5367241
vn 0.5750179 -0.778751 -0.2508012
vn 0.5750179 -0.778751 -0.2508012
vn 0.5750179 -0.778751 -0.2508012
vn 0.5515103 0.3026015 0.7773473
vn 0.5515103 0.3026015 0.7773473
vn 0.5515103 0.3026015 0.7773473
vn 0.9511406 -0.1910594 -0.2425447
vn 0.9511406 -0.1910594 -0.2425447
vn 0.9511406 -0.1910594 -0.2425447
vn -0.6473807 0.1693915 -0.7431049
vn -0.6473807 0.1693915 -0.7431049
vn -0.6473807 0.1693915 -0.7431049
vn -0.9608161 0.2634221 0.08626287
vn -0.9608161 0.2634221 0.08626287
vn -0.9608161 0.2634221 0.08626287
vn -0.6082012 0.5925294 -0.5282048
vn -0.6082012 0.5925294 -0.5282048
vn -0.6082012 0.5925294 -0.5282048
vn 0.363449 -0.01083404 0.9315511
vn 0.363449 -0.01083404 0.9315511
vn 0.363449 -0.01083404 0.9315511
vn 0.2537465 -0.8649458 0.4329914
vn 0.2537465 -0.8649458 0.4329914
vn 0.2537465 -0.8649458 0.4329914
vn 0.5593462 0.8197702 0.1229175
vn 0.5593462 0.8197702 0.1229175
vn 0.5593462 0.8197702 0.1229175
vn -0.9294725 -0.2537465 -0.2677566
vn -0.9294725 -0.2537465 -0.2677566
vn -0.9294725 -0.2537465 -0.2677566
vn 0.9041252 0.03618139 0.4257329
vn 0.9041252 0.03618139 0.4257329
vn 0.9041252 0.03618139 0.4257329
vn 0.3242695 0.3887963 0.8623728
vn 0.3242695 0.3887963 0.8623728
vn 0.3242695 0.3887963 0.8623728
vn 0.3321054 0.8824572 0.3331296
vn 0.3321054 0.8824572 0.3331296
vn 0.3321054 0.8824572 0.3331296
vn 0.002998114 0.9999955 0
vn 0.002998114 0.9999955 0
vn 0.002998114 0.9999955 0
vn -0.2555862 0.9608161 -0.1072761
vn -0.2555862 0.9608161 -0.1072761
vn -0.2555862 0.9608161 -0.1072761
vn -0.07536083 0.9921597 0.09969939
vn -0.07536083 0.9921597 0.09969939
vn -0.07536083 0.9921597 0.09969939
vn -0.07536083 0.9921597 -0.09969939
vn -0.07536083 0.9921597 -0.09969939
vn -0.07536083 0.9921597 -0.09969939
vn -0.6630524 -0.7474074 0.04175661
vn -0.6630524 -0.7474074 0.04175661
vn -0.6630524 -0.7474074 0.04175661
vn -0.3496168 -0.504495 0.7894637
vn -0.3496168 -0.504495 0.7894637
vn -0.3496168 -0.504495 0.7894637
vn -0.6395447 0.3809604 -0.6677213
vn -0.6395447 0.3809604 -0.6677213
vn -0.6395447 0.3809604 -0.6677213
vn -0.6395447 -0.3791207 0.6687676
vn -0.6395447 -0.3791207 0.6687676
vn -0.6395447 -0.3791207 0.6687676
vn 0.2459106 0.8511136 0.4638249
vn 0.2459106 0.8511136 0.4638249
vn 0.2459106 0.8511136 0.4638249
vn -0.7100677 -0.02650577 -0.7036344
vn -0.7100677 -0.02650577 -0.7036344
vn -0.7100677 -0.02650577 -0.7036344
vn -0.5768576 -0.6141974 -0.5385135
vn -0.5768576 -0.6141974 -0.5385135
vn -0.5768576 -0.6141974 -0.5385135
vn 0.8571099 0.3496168 0.3783262
vn 0.8571099 0.3496168 0.3783262
vn 0.8571099 0.3496168 0.3783262
vn 0.9354688 0.1615556 0.3143214
vn 0.9354688 0.1615556 0.3143214
vn 0.9354688 0.1615556 0.3143214
vn 0.3242695 -0.4888232 -0.8098773
vn 0.3242695 -0.4888232 -0.8098773
vn 0.3242695 -0.4888232 -0.8098773
vn -0.8040983 0.4984987 0.3239212
vn -0.8040983 0.4984987 0.3239212
vn -0.8040983 0.4984987 0.3239212
vn -0.8511136 -0.2537465 0.459585
vn -0.8511136 -0.2537465 0.459585
vn -0.8511136 -0.2537465 0.459585
vn 0.09702879 -0.9511406 -0.293116
vn 0.09702879 -0.9511406 -0.293116
vn 0.09702879 -0.9511406 -0.293116
vn 0.2537465 0.2634221 0.9307102
vn 0.2537465 0.2634221 0.9307102
vn 0.2537465 0.2634221 0.9307102
vn 0.3007618 -0.3321054 -0.8940069
vn 0.3007618 -0.3321054 -0.8940069
vn 0.3007618 -0.3321054 -0.8940069
vn -0.1458837 0.4201398 -0.8956564
vn -0.1458837 0.4201398 -0.8956564
vn -0.1458837 0.4201398 -0.8956564
vn 0.8571099 0.200735 0.4744134
vn 0.8571099 0.200735 0.4744134
vn 0.8571099 0.200735 0.4744134
g Line007_0
f 3/3/3 2/2/2 1/1/1
f 4/4/4 1/1/1 2/2/2
f 7/7/7 6/6/6 5/5/5
f 8/8/8 5/5/5 6/6/6
f 11/11/11 10/10/10 9/9/9
f 12/12/12 9/9/9 10/10/10
f 15/15/15 14/14/14 13/13/13
f 16/16/16 13/13/13 14/14/14
f 19/19/19 18/18/18 17/17/17
f 20/20/20 17/17/17 18/18/18
f 23/23/23 22/22/22 21/21/21
f 24/24/24 21/21/21 22/22/22
f 27/27/27 26/26/26 25/25/25
f 28/28/28 25/25/25 26/26/26
f 31/31/31 30/30/30 29/29/29
f 32/32/32 29/29/29 30/30/30
f 35/35/35 34/34/34 33/33/33
f 36/36/36 33/33/33 34/34/34
f 39/39/39 38/38/38 37/37/37
f 40/40/40 37/37/37 38/38/38
f 43/43/43 42/42/42 41/41/41
f 44/44/44 41/41/41 42/42/42
f 47/47/47 46/46/46 45/45/45
f 48/48/48 45/45/45 46/46/46
f 51/51/51 50/50/50 49/49/49
f 52/52/52 49/49/49 50/50/50
f 55/55/55 54/54/54 53/53/53
f 56/56/56 53/53/53 54/54/54
f 59/59/59 58/58/58 57/57/57
f 60/60/60 57/57/57 58/58/58
f 63/63/63 62/62/62 61/61/61
f 64/64/64 61/61/61 62/62/62
f 67/67/67 66/66/66 65/65/65
f 68/68/68 65/65/65 66/66/66
f 65/65/65 68/68/68 69/69/69
f 69/69/69 68/68/68 70/70/70
f 68/68/68 71/71/71 70/70/70
f 70/70/70 71/71/71 72/72/72
f 73/73/73 72/72/72 71/71/71
f 72/72/72 73/73/73 74/74/74
f 75/75/75 74/74/74 73/73/73
f 74/74/74 75/75/75 76/76/76
f 77/77/77 76/76/76 75/75/75
f 76/76/76 77/77/77 78/78/78
f 79/79/79 78/78/78 77/77/77
f 78/78/78 79/79/79 80/80/80
f 80/80/80 81/81/81 67/67/67
f 81/81/81 80/80/80 79/79/79
f 66/66/66 67/67/67 81/81/81
f 84/84/84 83/83/83 82/82/82
f 87/87/87 86/86/86 85/85/85
f 88/88/88 87/87/87 85/85/85
f 89/89/89 87/87/87 88/88/88
f 92/92/92 91/91/91 90/90/90
f 95/95/95 94/94/94 93/93/93
f 98/98/98 97/97/97 96/96/96
f 99/99/99 96/96/96 97/97/97
f 102/102/102 101/101/101 100/100/100
f 103/103/103 100/100/100 101/101/101
f 106/106/106 105/105/105 104/104/104
f 109/109/109 108/108/108 107/107/107
f 112/112/112 111/111/111 110/110/110
f 115/115/115 114/114/114 113/113/113
f 118/118/118 117/117/117 116/116/116
f 121/121/121 120/120/120 119/119/119
f 124/124/124 123/123/123 122/122/122
f 127/127/127 126/126/126 125/125/125
f 130/130/130 129/129/129 128/128/128
f 133/133/133 132/132/132 131/131/131
f 136/136/136 135/135/135 134/134/134
f 139/139/139 138/138/138 137/137/137
f 142/142/142 141/141/141 140/140/140
f 145/145/145 144/144/144 143/143/143
f 148/148/148 147/147/147 146/146/146
f 151/151/151 150/150/150 149/149/149
f 154/154/154 153/153/153 152/152/152
f 157/157/157 156/156/156 155/155/155
f 160/160/160 159/159/159 158/158/158
f 163/163/163 162/162/162 161/161/161
f 166/166/166 165/165/165 164/164/164
f 169/169/169 168/168/168 167/167/167
f 172/172/172 171/171/171 170/170/170
f 175/175/175 174/174/174 173/173/173
f 178/178/178 177/177/177 176/176/176
f 181/181/181 180/180/180 179/179/179
f 184/184/184 183/183/183 182/182/182
f 187/187/187 186/186/186 185/185/185
f 190/190/190 189/189/189 188/188/188
f 193/193/193 192/192/192 191/191/191
f 196/196/196 195/195/195 194/194/194
f 199/199/199 198/198/198 197/197/197
f 202/202/202 201/201/201 200/200/200
f 205/205/205 204/204/204 203/203/203
f 208/208/208 207/207/207 206/206/206
f 211/211/211 210/210/210 209/209/209
f 214/214/214 213/213/213 212/212/212
f 217/217/217 216/216/216 215/215/215
f 220/220/220 219/219/219 218/218/218
f 223/223/223 222/222/222 221/221/221
f 226/226/226 225/225/225 224/224/224
f 229/229/229 228/228/228 227/227/227
f 232/232/232 231/231/231 230/230/230
f 235/235/235 234/234/234 233/233/233
f 238/238/238 237/237/237 236/236/236
f 241/241/241 240/240/240 239/239/239
f 244/244/244 243/243/243 242/242/242
f 247/247/247 246/246/246 245/245/245
f 250/250/250 249/249/249 248/248/248
f 253/253/253 252/252/252 251/251/251
f 256/256/256 255/255/255 254/254/254
f 259/259/259 258/258/258 257/257/257
f 262/262/262 261/261/261 260/260/260
f 265/265/265 264/264/264 263/263/263
f 268/268/268 267/267/267 266/266/266
f 271/271/271 270/270/270 269/269/269
f 274/274/274 273/273/273 272/272/272
f 277/277/277 276/276/276 275/275/275
f 280/280/280 279/279/279 278/278/278
f 283/283/283 282/282/282 281/281/281
f 286/286/286 285/285/285 284/284/284
f 289/289/289 288/288/288 287/287/287
f 287/287/287 288/288/288 290/290/290
f 293/293/293 292/292/292 291/291/291
f 292/292/292 293/293/293 294/294/294
f 297/297/297 296/296/296 295/295/295
f 298/298/298 297/297/297 295/295/295
f 301/301/301 300/300/300 299/299/299
f 304/304/304 303/303/303 302/302/302
f 307/307/307 306/306/306 305/305/305
f 310/310/310 309/309/309 308/308/308
f 313/313/313 312/312/312 311/311/311
f 316/316/316 315/315/315 314/314/314
f 319/319/319 318/318/318 317/317/317
f 322/322/322 321/321/321 320/320/320
f 325/325/325 324/324/324 323/323/323
f 328/328/328 327/327/327 326/326/326
f 331/331/331 330/330/330 329/329/329
f 334/334/334 333/333/333 332/332/332
f 337/337/337 336/336/336 335/335/335
f 340/340/340 339/339/339 338/338/338
f 343/343/343 342/342/342 341/341/341
f 346/346/346 345/345/345 344/344/344
f 349/349/349 348/348/348 347/347/347
f 352/352/352 351/351/351 350/350/350
f 355/355/355 354/354/354 353/353/353
f 358/358/358 357/357/357 356/356/356
f 361/361/361 360/360/360 359/359/359
f 364/364/364 363/363/363 362/362/362
f 367/367/367 366/366/366 365/365/365
f 370/370/370 369/369/369 368/368/368
f 369/369/369 370/370/370 371/371/371
f 374/374/374 373/373/373 372/372/372
f 377/377/377 376/376/376 375/375/375
f 380/380/380 379/379/379 378/378/378
f 383/383/383 382/382/382 381/381/381
f 386/386/386 385/385/385 384/384/384
f 389/389/389 388/388/388 387/387/387
f 392/392/392 391/391/391 390/390/390
f 395/395/395 394/394/394 393/393/393
f 398/398/398 397/397/397 396/396/396
f 401/401/401 400/400/400 399/399/399
f 404/404/404 403/403/403 402/402/402
f 407/407/407 406/406/406 405/405/405
f 410/410/410 409/409/409 408/408/408
f 413/413/413 412/412/412 411/411/411
f 416/416/416 415/415/415 414/414/414
f 419/419/419 418/418/418 417/417/417
f 422/422/422 421/421/421 420/420/420
f 423/423/423 422/422/422 420/420/420
f 426/426/426 425/425/425 424/424/424
f 429/429/429 428/428/428 427/427/427
f 432/432/432 431/431/431 430/430/430
f 435/435/435 434/434/434 433/433/433
f 438/438/438 437/437/437 436/436/436
f 441/441/441 440/440/440 439/439/439
f 444/444/444 443/443/443 442/442/442
f 447/447/447 446/446/446 445/445/445
f 450/450/450 449/449/449 448/448/448
f 453/453/453 452/452/452 451/451/451
f 456/456/456 455/455/455 454/454/454
f 459/459/459 458/458/458 457/457/457
f 462/462/462 461/461/461 460/460/460
f 465/465/465 464/464/464 463/463/463
f 468/468/468 467/467/467 466/466/466
f 471/471/471 470/470/470 469/469/469
f 474/474/474 473/473/473 472/472/472
f 477/477/477 476/476/476 475/475/475
f 480/480/480 479/479/479 478/478/478
f 483/483/483 482/482/482 481/481/481
f 486/486/486 485/485/485 484/484/484
f 489/489/489 488/488/488 487/487/487
f 492/492/492 491/491/491 490/490/490
f 495/495/495 494/494/494 493/493/493
f 498/498/498 497/497/497 496/496/496
f 501/501/501 500/500/500 499/499/499
f 504/504/504 503/503/503 502/502/502
f 507/507/507 506/506/506 505/505/505
f 508/508/508 507/507/507 505/505/505
f 511/511/511 510/510/510 509/509/509
f 514/514/514 513/513/513 512/512/512
f 517/517/517 516/516/516 515/515/515
f 520/520/520 519/519/519 518/518/518
f 523/523/523 522/522/522 521/521/521
f 526/526/526 525/525/525 524/524/524
f 529/529/529 528/528/528 527/527/527
f 532/532/532 531/531/531 530/530/530
f 535/535/535 534/534/534 533/533/533
f 538/538/538 537/537/537 536/536/536
f 541/541/541 540/540/540 539/539/539
f 544/544/544 543/543/543 542/542/542
f 547/547/547 546/546/546 545/545/545
f 550/550/550 549/549/549 548/548/548
f 553/553/553 552/552/552 551/551/551
f 556/556/556 555/555/555 554/554/554
f 559/559/559 558/558/558 557/557/557
f 562/562/562 561/561/561 560/560/560
f 565/565/565 564/564/564 563/563/563
f 568/568/568 567/567/567 566/566/566
f 571/571/571 570/570/570 569/569/569
f 574/574/574 573/573/573 572/572/572
f 577/577/577 576/576/576 575/575/575
f 580/580/580 579/579/579 578/578/578
f 583/583/583 582/582/582 581/581/581
f 586/586/586 585/585/585 584/584/584
f 589/589/589 588/588/588 587/587/587
f 592/592/592 591/591/591 590/590/590
f 595/595/595 594/594/594 593/593/593
f 598/598/598 597/597/597 596/596/596
f 601/601/601 600/600/600 599/599/599
f 604/604/604 603/603/603 602/602/602
f 607/607/607 606/606/606 605/605/605
f 610/610/610 609/609/609 608/608/608
f 613/613/613 612/612/612 611/611/611
f 616/616/616 615/615/615 614/614/614
f 619/619/619 618/618/618 617/617/617
f 622/622/622 621/621/621 620/620/620
f 625/625/625 624/624/624 623/623/623
f 628/628/628 627/627/627 626/626/626
f 631/631/631 630/630/630 629/629/629
f 634/634/634 633/633/633 632/632/632
f 637/637/637 636/636/636 635/635/635
f 640/640/640 639/639/639 638/638/638
f 643/643/643 642/642/642 641/641/641
f 646/646/646 645/645/645 644/644/644
f 649/649/649 648/648/648 647/647/647
f 652/652/652 651/651/651 650/650/650
f 655/655/655 654/654/654 653/653/653
f 658/658/658 657/657/657 656/656/656
f 661/661/661 660/660/660 659/659/659
f 664/664/664 663/663/663 662/662/662
f 667/667/667 666/666/666 665/665/665
f 670/670/670 669/669/669 668/668/668
f 673/673/673 672/672/672 671/671/671
f 676/676/676 675/675/675 674/674/674
f 679/679/679 678/678/678 677/677/677
f 682/682/682 681/681/681 680/680/680
f 685/685/685 684/684/684 683/683/683
f 688/688/688 687/687/687 686/686/686
f 691/691/691 690/690/690 689/689/689
f 694/694/694 693/693/693 692/692/692
f 697/697/697 696/696/696 695/695/695
f 700/700/700 699/699/699 698/698/698
f 703/703/703 702/702/702 701/701/701
f 706/706/706 705/705/705 704/704/704
f 709/709/709 708/708/708 707/707/707
f 712/712/712 711/711/711 710/710/710
f 715/715/715 714/714/714 713/713/713
f 718/718/718 717/717/717 716/716/716
f 721/721/721 720/720/720 719/719/719
f 724/724/724 723/723/723 722/722/722
f 727/727/727 726/726/726 725/725/725
f 730/730/730 729/729/729 728/728/728
f 733/733/733 732/732/732 731/731/731
f 736/736/736 735/735/735 734/734/734
f 739/739/739 738/738/738 737/737/737
f 742/742/742 741/741/741 740/740/740
f 745/745/745 744/744/744 743/743/743
f 748/748/748 747/747/747 746/746/746
f 751/751/751 750/750/750 749/749/749
f 754/754/754 753/753/753 752/752/752
f 757/757/757 756/756/756 755/755/755
f 760/760/760 759/759/759 758/758/758
f 763/763/763 762/762/762 761/761/761
f 766/766/766 765/765/765 764/764/764
f 769/769/769 768/768/768 767/767/767
f 772/772/772 771/771/771 770/770/770
f 775/775/775 774/774/774 773/773/773
f 778/778/778 777/777/777 776/776/776
f 781/781/781 780/780/780 779/779/779
f 784/784/784 783/783/783 782/782/782
f 787/787/787 786/786/786 785/785/785
f 790/790/790 789/789/789 788/788/788
f 793/793/793 792/792/792 791/791/791
f 796/796/796 795/795/795 794/794/794
f 799/799/799 798/798/798 797/797/797
f 802/802/802 801/801/801 800/800/800
f 805/805/805 804/804/804 803/803/803
f 808/808/808 807/807/807 806/806/806
f 811/811/811 810/810/810 809/809/809
f 814/814/814 813/813/813 812/812/812
f 817/817/817 816/816/816 815/815/815
f 820/820/820 819/819/819 818/818/818
f 823/823/823 822/822/822 821/821/821
f 826/826/826 825/825/825 824/824/824
f 829/829/829 828/828/828 827/827/827
f 832/832/832 831/831/831 830/830/830
f 835/835/835 834/834/834 833/833/833
f 838/838/838 837/837/837 836/836/836
f 841/841/841 840/840/840 839/839/839
f 844/844/844 843/843/843 842/842/842
f 847/847/847 846/846/846 845/845/845
f 850/850/850 849/849/849 848/848/848
f 853/853/853 852/852/852 851/851/851
f 856/856/856 855/855/855 854/854/854
f 859/859/859 858/858/858 857/857/857
f 862/862/862 861/861/861 860/860/860
f 865/865/865 864/864/864 863/863/863
f 868/868/868 867/867/867 866/866/866
f 871/871/871 870/870/870 869/869/869
f 874/874/874 873/873/873 872/872/872
f 877/877/877 876/876/876 875/875/875
f 880/880/880 879/879/879 878/878/878
f 883/883/883 882/882/882 881/881/881
f 886/886/886 885/885/885 884/884/884
f 889/889/889 888/888/888 887/887/887
f 892/892/892 891/891/891 890/890/890
f 895/895/895 894/894/894 893/893/893
f 898/898/898 897/897/897 896/896/896
f 901/901/901 900/900/900 899/899/899
