g Line001
v -4.963146 42.49429 -2.849324E-13
v -2.134644 42.49411 2.849324E-13
v -0.7205069 41.07985 -3.620857E-08
v -3.548887 41.08006 3.620857E-08
v -2.134739 39.66553 1.456928E-12
v -4.963177 39.66577 -1.456928E-12
v 0.6936413 36.83728 -3.621067E-08
v -2.134796 36.83752 3.621067E-08
v -0.7206622 35.42299 8.719063E-13
v -3.549012 35.4232 -8.719063E-13
v 0.693566 34.00869 -3.621039E-08
v -2.134842 34.00888 3.621039E-08
v -2.134863 31.18038 7.748815E-13
v -4.963312 31.18058 -7.748815E-13
v 0.6935179 28.35195 -3.621191E-08
v -2.134932 28.35215 3.621191E-08
v -0.7207285 26.93776 8.720298E-13
v -3.549196 26.93797 -8.720298E-13
v 0.6934518 25.52357 -3.621117E-08
v -2.134988 25.52379 3.621117E-08
v -0.7207466 24.10939 1.066262E-12
v -3.549189 24.10961 -1.066262E-12
v 0.6935118 22.69514 -3.621109E-08
v -2.134926 22.69536 3.621109E-08
v -0.7206796 21.28096 1.066253E-12
v -3.549115 21.28118 -1.066253E-12
v 2.107771 18.45253 -3.621099E-08
v -0.7206637 18.45275 3.621099E-08
v 0.6935736 17.03835 9.691067E-13
v -2.134846 17.03856 -9.691067E-13
v 3.522056 14.20986 -3.621351E-08
v 0.6935738 14.21006 3.621351E-08
v 2.10784 12.79581 2.849095E-13
v -0.7205948 12.79599 -2.849095E-13
v 3.522003 11.38149 -3.620876E-08
v 0.693627 11.38169 3.620876E-08
v 0.6935886 8.553052 1.165566E-12
v -2.134865 8.553271 -1.165566E-12
v 3.522041 5.724682 -3.62116E-08
v 0.6935889 5.724903 3.62116E-08
v 2.107825 4.310504 8.719636E-13
v -0.7205795 4.310711 -8.719636E-13
v 3.522034 2.896264 -3.621155E-08
v 0.6935955 2.896461 3.621155E-08
v 2.107788 1.482075 8.353357E-13
v -0.7206796 1.48228 -8.353357E-13
v 3.521958 0.06788546 -3.621084E-08
v 0.6935264 0.06810087 3.621084E-08
v 2.107756 -1.346296 9.08659E-13
v -0.7206519 -1.346087 -9.08659E-13
v 3.522035 -2.760598 -3.621154E-08
v 0.6935951 -2.760398 3.621154E-08
v 2.10784 -4.17472 6.755808E-13
v -0.7205948 -4.174523 -6.755808E-13
v 3.522026 -5.588968 -3.621068E-08
v 0.6936041 -5.588766 3.621068E-08
v 0.6935877 -8.417342 9.691439E-13
v -2.134864 -8.41713 -9.691439E-13
v 2.107789 -9.831524 -3.621269E-08
v -0.7206806 -9.831318 3.621269E-08
v 0.6935209 -11.24571 7.748871E-13
v -2.134935 -11.2455 -7.748871E-13
v 3.521904 -14.07414 -3.621133E-08
v 0.6934658 -14.07393 3.621133E-08
v 0.6934427 -16.90251 7.74855E-13
v -2.134979 -16.9023 -7.74855E-13
v 2.107628 -18.31675 -3.620998E-08
v -0.7207797 -18.31655 3.620998E-08
v 0.6933693 -19.731 8.719715E-13
v -2.135043 -19.73079 -8.719715E-13
v 2.1076 -21.14524 -3.621321E-08
v -0.7208732 -21.14505 3.621321E-08
v 0.6933998 -22.5593 4.813466E-13
v -2.135073 -22.55911 -4.813466E-13
v 2.107628 -23.97361 -3.620998E-08
v -0.7207797 -23.97341 3.620998E-08
v 0.6934189 -25.38779 6.75531E-13
v -2.134955 -25.3876 -6.75531E-13
v 2.107644 -26.80209 -3.621191E-08
v -0.720795 -26.80191 3.621191E-08
v 0.6934141 -28.21622 6.756353E-13
v -2.135087 -28.21603 -6.756353E-13
v 3.521776 -31.0446 -3.621126E-08
v 0.6933347 -31.04439 3.621126E-08
v 2.107512 -32.45885 1.066257E-12
v -0.7209266 -32.45863 -1.066257E-12
v 3.521699 -33.87303 -3.621087E-08
v 0.6932665 -33.87282 3.621087E-08
v 2.107527 -35.28722 1.26272E-12
v -0.7209419 -35.287 -1.26272E-12
v 3.521775 -36.70141 -3.621078E-08
v 0.6933357 -36.70118 3.621078E-08
v 2.10755 -38.11565 1.066174E-12
v -0.7208236 -38.11543 -1.066174E-12
v 0.2692544 -39.10558 2.535192E-08
v 3.097469 -39.10558 -2.534673E-08
v -3.976085 43.4812 2.527546E-08
v -4.963146 42.49429 -2.849324E-13
v -4.963146 42.49429 -0.7509347
v -3.976085 43.4812 -0.7509385
v -3.548887 41.08006 3.620857E-08
v -3.548887 41.08006 -0.7509347
v -4.963146 42.49429 -0.7509347
v -4.963146 42.49429 -2.849324E-13
v -2.134644 42.49411 2.849324E-13
v -2.134644 42.49411 -0.7509347
v -0.7205069 41.07985 -0.7509347
v -0.7205069 41.07985 -3.620857E-08
v -4.963177 39.66577 -1.456928E-12
v -4.963177 39.66577 -0.7509347
v -3.548887 41.08006 -0.7509347
v -3.548887 41.08006 3.620857E-08
v -0.7205069 41.07985 -3.620857E-08
v -0.7205069 41.07985 -0.7509347
v -2.134739 39.66553 -0.7509347
v -2.134739 39.66553 1.456928E-12
v -2.134796 36.83752 3.621067E-08
v -2.134796 36.83752 -0.7509347
v -4.963177 39.66577 -0.7509347
v -4.963177 39.66577 -1.456928E-12
v -2.134739 39.66553 1.456928E-12
v -2.134739 39.66553 -0.7509347
v 0.6936413 36.83728 -0.7509347
v 0.6936413 36.83728 -3.621067E-08
v -3.549012 35.4232 -8.719063E-13
v -3.549012 35.4232 -0.7509347
v -2.134796 36.83752 -0.7509347
v -2.134796 36.83752 3.621067E-08
v 0.6936413 36.83728 -3.621067E-08
v 0.6936413 36.83728 -0.7509347
v -0.7206622 35.42299 -0.7509347
v -0.7206622 35.42299 8.719063E-13
v -2.134842 34.00888 3.621039E-08
v -2.134842 34.00888 -0.7509347
v -3.549012 35.4232 -0.7509347
v -3.549012 35.4232 -8.719063E-13
v -0.7206622 35.42299 8.719063E-13
v -0.7206622 35.42299 -0.7509347
v 0.693566 34.00869 -0.7509347
v 0.693566 34.00869 -3.621039E-08
v -4.963312 31.18058 -7.748815E-13
v -4.963312 31.18058 -0.7509347
v -2.134842 34.00888 -0.7509347
v -2.134842 34.00888 3.621039E-08
v 0.693566 34.00869 -3.621039E-08
v 0.693566 34.00869 -0.7509347
v -2.134863 31.18038 -0.7509347
v -2.134863 31.18038 7.748815E-13
v -2.134932 28.35215 3.621191E-08
v -2.134932 28.35215 -0.7509347
v -4.963312 31.18058 -0.7509347
v -4.963312 31.18058 -7.748815E-13
v -2.134863 31.18038 7.748815E-13
v -2.134863 31.18038 -0.7509347
v 0.6935179 28.35195 -0.7509347
v 0.6935179 28.35195 -3.621191E-08
v -3.549196 26.93797 -8.720298E-13
v -3.549196 26.93797 -0.7509347
v -2.134932 28.35215 -0.7509347
v -2.134932 28.35215 3.621191E-08
v 0.6935179 28.35195 -3.621191E-08
v 0.6935179 28.35195 -0.7509347
v -0.7207285 26.93776 -0.7509347
v -0.7207285 26.93776 8.720298E-13
v -2.134988 25.52379 3.621117E-08
v -2.134988 25.52379 -0.7509347
v -3.549196 26.93797 -0.7509347
v -3.549196 26.93797 -8.720298E-13
v -0.7207285 26.93776 8.720298E-13
v -0.7207285 26.93776 -0.7509347
v 0.6934518 25.52357 -0.7509347
v 0.6934518 25.52357 -3.621117E-08
v -3.549189 24.10961 -1.066262E-12
v -3.549189 24.10961 -0.7509347
v -2.134988 25.52379 -0.7509347
v -2.134988 25.52379 3.621117E-08
v 0.6934518 25.52357 -3.621117E-08
v 0.6934518 25.52357 -0.7509347
v -0.7207466 24.10939 -0.7509347
v -0.7207466 24.10939 1.066262E-12
v -2.134926 22.69536 3.621109E-08
v -2.134926 22.69536 -0.7509347
v -3.549189 24.10961 -0.7509347
v -3.549189 24.10961 -1.066262E-12
v -0.7207466 24.10939 1.066262E-12
v -0.7207466 24.10939 -0.7509347
v 0.6935118 22.69514 -0.7509347
v 0.6935118 22.69514 -3.621109E-08
v -3.549115 21.28118 -1.066253E-12
v -3.549115 21.28118 -0.7509347
v -2.134926 22.69536 -0.7509347
v -2.134926 22.69536 3.621109E-08
v 0.6935118 22.69514 -3.621109E-08
v 0.6935118 22.69514 -0.7509347
v -0.7206796 21.28096 -0.7509347
v -0.7206796 21.28096 1.066253E-12
v -0.7206637 18.45275 3.621099E-08
v -0.7206637 18.45275 -0.7509347
v -3.549115 21.28118 -0.7509347
v -3.549115 21.28118 -1.066253E-12
v -0.7206796 21.28096 1.066253E-12
v -0.7206796 21.28096 -0.7509347
v 2.107771 18.45253 -0.7509347
v 2.107771 18.45253 -3.621099E-08
v -2.134846 17.03856 -9.691067E-13
v -2.134846 17.03856 -0.7509347
v -0.7206637 18.45275 -0.7509347
v -0.7206637 18.45275 3.621099E-08
v 2.107771 18.45253 -3.621099E-08
v 2.107771 18.45253 -0.7509347
v 0.6935736 17.03835 -0.7509347
v 0.6935736 17.03835 9.691067E-13
v 0.6935738 14.21006 3.621351E-08
v 0.6935738 14.21006 -0.7509347
v -2.134846 17.03856 -0.7509347
v -2.134846 17.03856 -9.691067E-13
v 0.6935736 17.03835 9.691067E-13
v 0.6935736 17.03835 -0.7509347
v 3.522056 14.20986 -0.7509347
v 3.522056 14.20986 -3.621351E-08
v -0.7205948 12.79599 -2.849095E-13
v -0.7205948 12.79599 -0.7509347
v 0.6935738 14.21006 -0.7509347
v 0.6935738 14.21006 3.621351E-08
v 3.522056 14.20986 -3.621351E-08
v 3.522056 14.20986 -0.7509347
v 2.10784 12.79581 -0.7509347
v 2.10784 12.79581 2.849095E-13
v 0.693627 11.38169 3.620876E-08
v 0.693627 11.38169 -0.7509347
v -0.7205948 12.79599 -0.7509347
v -0.7205948 12.79599 -2.849095E-13
v 2.10784 12.79581 2.849095E-13
v 2.10784 12.79581 -0.7509347
v 3.522003 11.38149 -0.7509347
v 3.522003 11.38149 -3.620876E-08
v -2.134865 8.553271 -1.165566E-12
v -2.134865 8.553271 -0.7509347
v 0.693627 11.38169 -0.7509347
v 0.693627 11.38169 3.620876E-08
v 3.522003 11.38149 -3.620876E-08
v 3.522003 11.38149 -0.7509347
v 0.6935886 8.553052 -0.7509347
v 0.6935886 8.553052 1.165566E-12
v 0.6935889 5.724903 3.62116E-08
v 0.6935889 5.724903 -0.7509347
v -2.134865 8.553271 -0.7509347
v -2.134865 8.553271 -1.165566E-12
v 0.6935886 8.553052 1.165566E-12
v 0.6935886 8.553052 -0.7509347
v 3.522041 5.724682 -0.7509347
v 3.522041 5.724682 -3.62116E-08
v -0.7205795 4.310711 -8.719636E-13
v -0.7205795 4.310711 -0.7509347
v 0.6935889 5.724903 -0.7509347
v 0.6935889 5.724903 3.62116E-08
v 3.522041 5.724682 -3.62116E-08
v 3.522041 5.724682 -0.7509347
v 2.107825 4.310504 -0.7509347
v 2.107825 4.310504 8.719636E-13
v 0.6935955 2.896461 3.621155E-08
v 0.6935955 2.896461 -0.7509347
v -0.7205795 4.310711 -0.7509347
v -0.7205795 4.310711 -8.719636E-13
v 2.107825 4.310504 8.719636E-13
v 2.107825 4.310504 -0.7509347
v 3.522034 2.896264 -0.7509347
v 3.522034 2.896264 -3.621155E-08
v -0.7206796 1.48228 -8.353357E-13
v -0.7206796 1.48228 -0.7509347
v 0.6935955 2.896461 -0.7509347
v 0.6935955 2.896461 3.621155E-08
v 3.522034 2.896264 -3.621155E-08
v 3.522034 2.896264 -0.7509347
v 2.107788 1.482075 -0.7509347
v 2.107788 1.482075 8.353357E-13
v 0.6935264 0.06810087 3.621084E-08
v 0.6935264 0.06810087 -0.7509347
v -0.7206796 1.48228 -0.7509347
v -0.7206796 1.48228 -8.353357E-13
v 2.107788 1.482075 8.353357E-13
v 2.107788 1.482075 -0.7509347
v 3.521958 0.06788546 -0.7509347
v 3.521958 0.06788546 -3.621084E-08
v -0.7206519 -1.346087 -9.08659E-13
v -0.7206519 -1.346087 -0.7509347
v 0.6935264 0.06810087 -0.7509347
v 0.6935264 0.06810087 3.621084E-08
v 3.521958 0.06788546 -3.621084E-08
v 3.521958 0.06788546 -0.7509347
v 2.107756 -1.346296 -0.7509347
v 2.107756 -1.346296 9.08659E-13
v 0.6935951 -2.760398 3.621154E-08
v 0.6935951 -2.760398 -0.7509347
v -0.7206519 -1.346087 -0.7509347
v -0.7206519 -1.346087 -9.08659E-13
v 2.107756 -1.346296 9.08659E-13
v 2.107756 -1.346296 -0.7509347
v 3.522035 -2.760598 -0.7509347
v 3.522035 -2.760598 -3.621154E-08
v -0.7205948 -4.174523 -6.755808E-13
v -0.7205948 -4.174523 -0.7509347
v 0.6935951 -2.760398 -0.7509347
v 0.6935951 -2.760398 3.621154E-08
v 3.522035 -2.760598 -3.621154E-08
v 3.522035 -2.760598 -0.7509347
v 2.10784 -4.17472 -0.7509347
v 2.10784 -4.17472 6.755808E-13
v 0.6936041 -5.588766 3.621068E-08
v 0.6936041 -5.588766 -0.7509347
v -0.7205948 -4.174523 -0.7509347
v -0.7205948 -4.174523 -6.755808E-13
v 2.10784 -4.17472 6.755808E-13
v 2.10784 -4.17472 -0.7509347
v 3.522026 -5.588968 -0.7509347
v 3.522026 -5.588968 -3.621068E-08
v -2.134864 -8.41713 -9.691439E-13
v -2.134864 -8.41713 -0.7509347
v 0.6936041 -5.588766 -0.7509347
v 0.6936041 -5.588766 3.621068E-08
v 3.522026 -5.588968 -3.621068E-08
v 3.522026 -5.588968 -0.7509347
v 0.6935877 -8.417342 -0.7509347
v 0.6935877 -8.417342 9.691439E-13
v -0.7206806 -9.831318 3.621269E-08
v -0.7206806 -9.831318 -0.7509347
v -2.134864 -8.41713 -0.7509347
v -2.134864 -8.41713 -9.691439E-13
v 0.6935877 -8.417342 9.691439E-13
v 0.6935877 -8.417342 -0.7509347
v 2.107789 -9.831524 -0.7509347
v 2.107789 -9.831524 -3.621269E-08
v -2.134935 -11.2455 -7.748871E-13
v -2.134935 -11.2455 -0.7509347
v -0.7206806 -9.831318 -0.7509347
v -0.7206806 -9.831318 3.621269E-08
v 2.107789 -9.831524 -3.621269E-08
v 2.107789 -9.831524 -0.7509347
v 0.6935209 -11.24571 -0.7509347
v 0.6935209 -11.24571 7.748871E-13
v 0.6934658 -14.07393 3.621133E-08
v 0.6934658 -14.07393 -0.7509347
v -2.134935 -11.2455 -0.7509347
v -2.134935 -11.2455 -7.748871E-13
v 0.6935209 -11.24571 7.748871E-13
v 0.6935209 -11.24571 -0.7509347
v 3.521904 -14.07414 -0.7509347
v 3.521904 -14.07414 -3.621133E-08
v -2.134979 -16.9023 -7.74855E-13
v -2.134979 -16.9023 -0.7509347
v 0.6934658 -14.07393 -0.7509347
v 0.6934658 -14.07393 3.621133E-08
v 3.521904 -14.07414 -3.621133E-08
v 3.521904 -14.07414 -0.7509347
v 0.6934427 -16.90251 -0.7509347
v 0.6934427 -16.90251 7.74855E-13
v -0.7207797 -18.31655 3.620998E-08
v -0.7207797 -18.31655 -0.7509347
v -2.134979 -16.9023 -0.7509347
v -2.134979 -16.9023 -7.74855E-13
v 0.6934427 -16.90251 7.74855E-13
v 0.6934427 -16.90251 -0.7509347
v 2.107628 -18.31675 -0.7509347
v 2.107628 -18.31675 -3.620998E-08
v -2.135043 -19.73079 -8.719715E-13
v -2.135043 -19.73079 -0.7509347
v -0.7207797 -18.31655 -0.7509347
v -0.7207797 -18.31655 3.620998E-08
v 2.107628 -18.31675 -3.620998E-08
v 2.107628 -18.31675 -0.7509347
v 0.6933693 -19.731 -0.7509347
v 0.6933693 -19.731 8.719715E-13
v -0.7208732 -21.14505 3.621321E-08
v -0.7208732 -21.14505 -0.7509347
v -2.135043 -19.73079 -0.7509347
v -2.135043 -19.73079 -8.719715E-13
v 0.6933693 -19.731 8.719715E-13
v 0.6933693 -19.731 -0.7509347
v 2.1076 -21.14524 -0.7509347
v 2.1076 -21.14524 -3.621321E-08
v -2.135073 -22.55911 -4.813466E-13
v -2.135073 -22.55911 -0.7509347
v -0.7208732 -21.14505 -0.7509347
v -0.7208732 -21.14505 3.621321E-08
v 2.1076 -21.14524 -3.621321E-08
v 2.1076 -21.14524 -0.7509347
v 0.6933998 -22.5593 -0.7509347
v 0.6933998 -22.5593 4.813466E-13
v -0.7207797 -23.97341 3.620998E-08
v -0.7207797 -23.97341 -0.7509347
v -2.135073 -22.55911 -0.7509347
v -2.135073 -22.55911 -4.813466E-13
v 0.6933998 -22.5593 4.813466E-13
v 0.6933998 -22.5593 -0.7509347
v 2.107628 -23.97361 -0.7509347
v 2.107628 -23.97361 -3.620998E-08
v -2.134955 -25.3876 -6.75531E-13
v -2.134955 -25.3876 -0.7509347
v -0.7207797 -23.97341 -0.7509347
v -0.7207797 -23.97341 3.620998E-08
v 2.107628 -23.97361 -3.620998E-08
v 2.107628 -23.97361 -0.7509347
v 0.6934189 -25.38779 -0.7509347
v 0.6934189 -25.38779 6.75531E-13
v -0.720795 -26.80191 3.621191E-08
v -0.720795 -26.80191 -0.7509347
v -2.134955 -25.3876 -0.7509347
v -2.134955 -25.3876 -6.75531E-13
v 0.6934189 -25.38779 6.75531E-13
v 0.6934189 -25.38779 -0.7509347
v 2.107644 -26.80209 -0.7509347
v 2.107644 -26.80209 -3.621191E-08
v -2.135087 -28.21603 -6.756353E-13
v -2.135087 -28.21603 -0.7509347
v -0.720795 -26.80191 -0.7509347
v -0.720795 -26.80191 3.621191E-08
v 2.107644 -26.80209 -3.621191E-08
v 2.107644 -26.80209 -0.7509347
v 0.6934141 -28.21622 -0.7509347
v 0.6934141 -28.21622 6.756353E-13
v 0.6933347 -31.04439 3.621126E-08
v 0.6933347 -31.04439 -0.7509347
v -2.135087 -28.21603 -0.7509347
v -2.135087 -28.21603 -6.756353E-13
v 0.6934141 -28.21622 6.756353E-13
v 0.6934141 -28.21622 -0.7509347
v 3.521776 -31.0446 -0.7509347
v 3.521776 -31.0446 -3.621126E-08
v -0.7209266 -32.45863 -1.066257E-12
v -0.7209266 -32.45863 -0.7509347
v 0.6933347 -31.04439 -0.7509347
v 0.6933347 -31.04439 3.621126E-08
v 3.521776 -31.0446 -3.621126E-08
v 3.521776 -31.0446 -0.7509347
v 2.107512 -32.45885 -0.7509347
v 2.107512 -32.45885 1.066257E-12
v 0.6932665 -33.87282 3.621087E-08
v 0.6932665 -33.87282 -0.7509347
v -0.7209266 -32.45863 -0.7509347
v -0.7209266 -32.45863 -1.066257E-12
v 2.107512 -32.45885 1.066257E-12
v 2.107512 -32.45885 -0.7509347
v 3.521699 -33.87303 -0.7509347
v 3.521699 -33.87303 -3.621087E-08
v -0.7209419 -35.287 -1.26272E-12
v -0.7209419 -35.287 -0.7509347
v 0.6932665 -33.87282 -0.7509347
v 0.6932665 -33.87282 3.621087E-08
v 3.521699 -33.87303 -3.621087E-08
v 3.521699 -33.87303 -0.7509347
v 2.107527 -35.28722 -0.7509347
v 2.107527 -35.28722 1.26272E-12
v 0.6933357 -36.70118 3.621078E-08
v 0.6933357 -36.70118 -0.7509347
v -0.7209419 -35.287 -0.7509347
v -0.7209419 -35.287 -1.26272E-12
v 2.107527 -35.28722 1.26272E-12
v 2.107527 -35.28722 -0.7509347
v 3.521775 -36.70141 -0.7509347
v 3.521775 -36.70141 -3.621078E-08
v -0.7208236 -38.11543 -1.066174E-12
v -0.7208236 -38.11543 -0.7509347
v 0.6933357 -36.70118 -0.7509347
v 0.6933357 -36.70118 3.621078E-08
v 3.521775 -36.70141 -3.621078E-08
v 3.521775 -36.70141 -0.7509347
v 2.10755 -38.11565 -0.7509347
v 2.10755 -38.11565 1.066174E-12
v 3.097469 -39.10558 -2.534673E-08
v 2.10755 -38.11565 1.066174E-12
v 2.10755 -38.11565 -0.7509347
v 3.097469 -39.10558 -0.7509385
v -3.976085 43.4812 2.527546E-08
v -1.147432 43.4812 -2.527987E-08
v -2.134644 42.49411 2.849324E-13
v -1.147432 43.4812 -2.527987E-08
v -1.147432 43.4812 -0.7509385
v -2.134644 42.49411 -0.7509347
v -0.7208236 -38.11543 -1.066174E-12
v 0.2692544 -39.10558 2.535192E-08
v 0.2692544 -39.10558 -0.7509385
v -0.7208236 -38.11543 -0.7509347
v -3.976085 43.4812 2.527546E-08
v -3.976085 43.4812 -0.7509385
v -1.147432 43.4812 -0.7509385
v -1.147432 43.4812 -2.527987E-08
v 3.097469 -39.10558 -2.534673E-08
v 3.097469 -39.10558 -0.7509385
v 0.2692544 -39.10558 -0.7509385
v 0.2692544 -39.10558 2.535192E-08
vt 0.1141357 0.9873047
vt 0.1141357 0.9873047
vt 0.1141357 0.9873047
vt 0.1141357 0.9873047
vt 0.1141357 0.9873047
vt 0.1141357 0.9873047
vt 0.1141357 0.9873047
vt 0.1141357 0.9873047
vt 0.1141357 0.9873047
vt 0.1141357 0.9873047
vt 0.1141357 0.9873047
vt 0.1141357 0.9873047
vt 0.1141357 0.9873047
vt 0.1141357 0.9873047
vt 0.1141357 0.9873047
vt 0.1141357 0.9873047
vt 0.1141357 0.9873047
vt 0.1141357 0.9873047
vt 0.1141357 0.9873047
vt 0.1141357 0.9873047
vt 0.1141357 0.9873047
vt 0.1141357 0.9873047
vt 0.1141357 0.9873047
vt 0.1141357 0.9873047
vt 0.1141357 0.9873047
vt 0.1141357 0.9873047
vt 0.1141357 0.9873047
vt 0.1141357 0.9873047
vt 0.1141357 0.9873047
vt 0.1141357 0.9873047
vt 0.1141357 0.9873047
vt 0.1141357 0.9873047
vt 0.1141357 0.9873047
vt 0.1141357 0.9873047
vt 0.1141357 0.9873047
vt 0.1141357 0.9873047
vt 0.1141357 0.9873047
vt 0.1141357 0.9873047
vt 0.1141357 0.9873047
vt 0.1141357 0.9873047
vt 0.1141357 0.9873047
vt 0.1141357 0.9873047
vt 0.1141357 0.9873047
vt 0.1141357 0.9873047
vt 0.1141357 0.9873047
vt 0.1141357 0.9873047
vt 0.1141357 0.9873047
vt 0.1141357 0.9873047
vt 0.1141357 0.9873047
vt 0.1141357 0.9873047
vt 0.1141357 0.9873047
vt 0.1141357 0.9873047
vt 0.1141357 0.9873047
vt 0.1141357 0.9873047
vt 0.1141357 0.9873047
vt 0.1141357 0.9873047
vt 0.1141357 0.9873047
vt 0.1141357 0.9873047
vt 0.1141357 0.9873047
vt 0.1141357 0.9873047
vt 0.1141357 0.9873047
vt 0.1141357 0.9873047
vt 0.1141357 0.9873047
vt 0.1141357 0.9873047
vt 0.1141357 0.9873047
vt 0.1141357 0.9873047
vt 0.1141357 0.9873047
vt 0.1141357 0.9873047
vt 0.1141357 0.9873047
vt 0.1141357 0.9873047
vt 0.1141357 0.9873047
vt 0.1141357 0.9873047
vt 0.1141357 0.9873047
vt 0.1141357 0.9873047
vt 0.1141357 0.9873047
vt 0.1141357 0.9873047
vt 0.1141357 0.9873047
vt 0.1141357 0.9873047
vt 0.1141357 0.9873047
vt 0.1141357 0.9873047
vt 0.1141357 0.9873047
vt 0.1141357 0.9873047
vt 0.1141357 0.9873047
vt 0.1141357 0.9873047
vt 0.1141357 0.9873047
vt 0.1141357 0.9873047
vt 0.1141357 0.9873047
vt 0.1141357 0.9873047
vt 0.1141357 0.9873047
vt 0.1141357 0.9873047
vt 0.1141357 0.9873047
vt 0.1141357 0.9873047
vt 0.1141357 0.9873047
vt 0.1141357 0.9873047
vt 0.1141357 0.9873047
vt 0.1141357 0.9873047
vt 0.1141357 0.9873047
vt 0.1141357 0.9873047
vt 0.1141357 0.9873047
vt 0.1141357 0.9873047
vt 0.1141357 0.9873047
vt 0.1141357 0.9873047
vt 0.1141357 0.9873047
vt 0.1141357 0.9873047
vt 0.1141357 0.9873047
vt 0.1141357 0.9873047
vt 0.1141357 0.9873047
vt 0.1141357 0.9873047
vt 0.1141357 0.9873047
vt 0.1141357 0.9873047
vt 0.1141357 0.9873047
vt 0.1141357 0.9873047
vt 0.1141357 0.9873047
vt 0.1141357 0.9873047
vt 0.1141357 0.9873047
vt 0.1141357 0.9873047
vt 0.1141357 0.9873047
vt 0.1141357 0.9873047
vt 0.1141357 0.9873047
vt 0.1141357 0.9873047
vt 0.1141357 0.9873047
vt 0.1141357 0.9873047
vt 0.1141357 0.9873047
vt 0.1141357 0.9873047
vt 0.1141357 0.9873047
vt 0.1141357 0.9873047
vt 0.1141357 0.9873047
vt 0.1141357 0.9873047
vt 0.1141357 0.9873047
vt 0.1141357 0.9873047
vt 0.1141357 0.9873047
vt 0.1141357 0.9873047
vt 0.1141357 0.9873047
vt 0.1141357 0.9873047
vt 0.1141357 0.9873047
vt 0.1141357 0.9873047
vt 0.1141357 0.9873047
vt 0.1141357 0.9873047
vt 0.1141357 0.9873047
vt 0.1141357 0.9873047
vt 0.1141357 0.9873047
vt 0.1141357 0.9873047
vt 0.1141357 0.9873047
vt 0.1141357 0.9873047
vt 0.1141357 0.9873047
vt 0.1141357 0.9873047
vt 0.1141357 0.9873047
vt 0.1141357 0.9873047
vt 0.1141357 0.9873047
vt 0.1141357 0.9873047
vt 0.1141357 0.9873047
vt 0.1141357 0.9873047
vt 0.1141357 0.9873047
vt 0.1141357 0.9873047
vt 0.1141357 0.9873047
vt 0.1141357 0.9873047
vt 0.1141357 0.9873047
vt 0.1141357 0.9873047
vt 0.1141357 0.9873047
vt 0.1141357 0.9873047
vt 0.1141357 0.9873047
vt 0.1141357 0.9873047
vt 0.1141357 0.9873047
vt 0.1141357 0.9873047
vt 0.1141357 0.9873047
vt 0.1141357 0.9873047
vt 0.1141357 0.9873047
vt 0.1141357 0.9873047
vt 0.1141357 0.9873047
vt 0.1141357 0.9873047
vt 0.1141357 0.9873047
vt 0.1141357 0.9873047
vt 0.1141357 0.9873047
vt 0.1141357 0.9873047
vt 0.1141357 0.9873047
vt 0.1141357 0.9873047
vt 0.1141357 0.9873047
vt 0.1141357 0.9873047
vt 0.1141357 0.9873047
vt 0.1141357 0.9873047
vt 0.1141357 0.9873047
vt 0.1141357 0.9873047
vt 0.1141357 0.9873047
vt 0.1141357 0.9873047
vt 0.1141357 0.9873047
vt 0.1141357 0.9873047
vt 0.1141357 0.9873047
vt 0.1141357 0.9873047
vt 0.1141357 0.9873047
vt 0.1141357 0.9873047
vt 0.1141357 0.9873047
vt 0.1141357 0.9873047
vt 0.1141357 0.9873047
vt 0.1141357 0.9873047
vt 0.1141357 0.9873047
vt 0.1141357 0.9873047
vt 0.1141357 0.9873047
vt 0.1141357 0.9873047
vt 0.1141357 0.9873047
vt 0.1141357 0.9873047
vt 0.1141357 0.9873047
vt 0.1141357 0.9873047
vt 0.1141357 0.9873047
vt 0.1141357 0.9873047
vt 0.1141357 0.9873047
vt 0.1141357 0.9873047
vt 0.1141357 0.9873047
vt 0.1141357 0.9873047
vt 0.1141357 0.9873047
vt 0.1141357 0.9873047
vt 0.1141357 0.9873047
vt 0.1141357 0.9873047
vt 0.1141357 0.9873047
vt 0.1141357 0.9873047
vt 0.1141357 0.9873047
vt 0.1141357 0.9873047
vt 0.1141357 0.9873047
vt 0.1141357 0.9873047
vt 0.1141357 0.9873047
vt 0.1141357 0.9873047
vt 0.1141357 0.9873047
vt 0.1141357 0.9873047
vt 0.1141357 0.9873047
vt 0.1141357 0.9873047
vt 0.1141357 0.9873047
vt 0.1141357 0.9873047
vt 0.1141357 0.9873047
vt 0.1141357 0.9873047
vt 0.1141357 0.9873047
vt 0.1141357 0.9873047
vt 0.1141357 0.9873047
vt 0.1141357 0.9873047
vt 0.1141357 0.9873047
vt 0.1141357 0.9873047
vt 0.1141357 0.9873047
vt 0.1141357 0.9873047
vt 0.1141357 0.9873047
vt 0.1141357 0.9873047
vt 0.1141357 0.9873047
vt 0.1141357 0.9873047
vt 0.1141357 0.9873047
vt 0.1141357 0.9873047
vt 0.1141357 0.9873047
vt 0.1141357 0.9873047
vt 0.1141357 0.9873047
vt 0.1141357 0.9873047
vt 0.1141357 0.9873047
vt 0.1141357 0.9873047
vt 0.1141357 0.9873047
vt 0.1141357 0.9873047
vt 0.1141357 0.9873047
vt 0.1141357 0.9873047
vt 0.1141357 0.9873047
vt 0.1141357 0.9873047
vt 0.1141357 0.9873047
vt 0.1141357 0.9873047
vt 0.1141357 0.9873047
vt 0.1141357 0.9873047
vt 0.1141357 0.9873047
vt 0.1141357 0.9873047
vt 0.1141357 0.9873047
vt 0.1141357 0.9873047
vt 0.1141357 0.9873047
vt 0.1141357 0.9873047
vt 0.1141357 0.9873047
vt 0.1141357 0.9873047
vt 0.1141357 0.9873047
vt 0.1141357 0.9873047
vt 0.1141357 0.9873047
vt 0.1141357 0.9873047
vt 0.1141357 0.9873047
vt 0.1141357 0.9873047
vt 0.1141357 0.9873047
vt 0.1141357 0.9873047
vt 0.1141357 0.9873047
vt 0.1141357 0.9873047
vt 0.1141357 0.9873047
vt 0.1141357 0.9873047
vt 0.1141357 0.9873047
vt 0.1141357 0.9873047
vt 0.1141357 0.9873047
vt 0.1141357 0.9873047
vt 0.1141357 0.9873047
vt 0.1141357 0.9873047
vt 0.1141357 0.9873047
vt 0.1141357 0.9873047
vt 0.1141357 0.9873047
vt 0.1141357 0.9873047
vt 0.1141357 0.9873047
vt 0.1141357 0.9873047
vt 0.1141357 0.9873047
vt 0.1141357 0.9873047
vt 0.1141357 0.9873047
vt 0.1141357 0.9873047
vt 0.1141357 0.9873047
vt 0.1141357 0.9873047
vt 0.1141357 0.9873047
vt 0.1141357 0.9873047
vt 0.1141357 0.9873047
vt 0.1141357 0.9873047
vt 0.1141357 0.9873047
vt 0.1141357 0.9873047
vt 0.1141357 0.9873047
vt 0.1141357 0.9873047
vt 0.1141357 0.9873047
vt 0.1141357 0.9873047
vt 0.1141357 0.9873047
vt 0.1141357 0.9873047
vt 0.1141357 0.9873047
vt 0.1141357 0.9873047
vt 0.1141357 0.9873047
vt 0.1141357 0.9873047
vt 0.1141357 0.9873047
vt 0.1141357 0.9873047
vt 0.1141357 0.9873047
vt 0.1141357 0.9873047
vt 0.1141357 0.9873047
vt 0.1141357 0.9873047
vt 0.1141357 0.9873047
vt 0.1141357 0.9873047
vt 0.1141357 0.9873047
vt 0.1141357 0.9873047
vt 0.1141357 0.9873047
vt 0.1141357 0.9873047
vt 0.1141357 0.9873047
vt 0.1141357 0.9873047
vt 0.1141357 0.9873047
vt 0.1141357 0.9873047
vt 0.1141357 0.9873047
vt 0.1141357 0.9873047
vt 0.1141357 0.9873047
vt 0.1141357 0.9873047
vt 0.1141357 0.9873047
vt 0.1141357 0.9873047
vt 0.1141357 0.9873047
vt 0.1141357 0.9873047
vt 0.1141357 0.9873047
vt 0.1141357 0.9873047
vt 0.1141357 0.9873047
vt 0.1141357 0.9873047
vt 0.1141357 0.9873047
vt 0.1141357 0.9873047
vt 0.1141357 0.9873047
vt 0.1141357 0.9873047
vt 0.1141357 0.9873047
vt 0.1141357 0.9873047
vt 0.1141357 0.9873047
vt 0.1141357 0.9873047
vt 0.1141357 0.9873047
vt 0.1141357 0.9873047
vt 0.1141357 0.9873047
vt 0.1141357 0.9873047
vt 0.1141357 0.9873047
vt 0.1141357 0.9873047
vt 0.1141357 0.9873047
vt 0.1141357 0.9873047
vt 0.1141357 0.9873047
vt 0.1141357 0.9873047
vt 0.1141357 0.9873047
vt 0.1141357 0.9873047
vt 0.1141357 0.9873047
vt 0.1141357 0.9873047
vt 0.1141357 0.9873047
vt 0.1141357 0.9873047
vt 0.1141357 0.9873047
vt 0.1141357 0.9873047
vt 0.1141357 0.9873047
vt 0.1141357 0.9873047
vt 0.1141357 0.9873047
vt 0.1141357 0.9873047
vt 0.1141357 0.9873047
vt 0.1141357 0.9873047
vt 0.1141357 0.9873047
vt 0.1141357 0.9873047
vt 0.1141357 0.9873047
vt 0.1141357 0.9873047
vt 0.1141357 0.9873047
vt 0.1141357 0.9873047
vt 0.1141357 0.9873047
vt 0.1141357 0.9873047
vt 0.1141357 0.9873047
vt 0.1141357 0.9873047
vt 0.1141357 0.9873047
vt 0.1141357 0.9873047
vt 0.1141357 0.9873047
vt 0.1141357 0.9873047
vt 0.1141357 0.9873047
vt 0.1141357 0.9873047
vt 0.1141357 0.9873047
vt 0.1141357 0.9873047
vt 0.1141357 0.9873047
vt 0.1141357 0.9873047
vt 0.1141357 0.9873047
vt 0.1141357 0.9873047
vt 0.1141357 0.9873047
vt 0.1141357 0.9873047
vt 0.1141357 0.9873047
vt 0.1141357 0.9873047
vt 0.1141357 0.9873047
vt 0.1141357 0.9873047
vt 0.1141357 0.9873047
vt 0.1141357 0.9873047
vt 0.1141357 0.9873047
vt 0.1141357 0.9873047
vt 0.1141357 0.9873047
vt 0.1141357 0.9873047
vt 0.1141357 0.9873047
vt 0.1141357 0.9873047
vt 0.1141357 0.9873047
vt 0.1141357 0.9873047
vt 0.1141357 0.9873047
vt 0.1141357 0.9873047
vt 0.1141357 0.9873047
vt 0.1141357 0.9873047
vt 0.1141357 0.9873047
vt 0.1141357 0.9873047
vt 0.1141357 0.9873047
vt 0.1141357 0.9873047
vt 0.1141357 0.9873047
vt 0.1141357 0.9873047
vt 0.1141357 0.9873047
vt 0.1141357 0.9873047
vt 0.1141357 0.9873047
vt 0.1141357 0.9873047
vt 0.1141357 0.9873047
vt 0.1141357 0.9873047
vt 0.1141357 0.9873047
vt 0.1141357 0.9873047
vt 0.1141357 0.9873047
vt 0.1141357 0.9873047
vt 0.1141357 0.9873047
vt 0.1141357 0.9873047
vt 0.1141357 0.9873047
vt 0.1141357 0.9873047
vt 0.1141357 0.9873047
vt 0.1141357 0.9873047
vt 0.1141357 0.9873047
vt 0.1141357 0.9873047
vt 0.1141357 0.9873047
vt 0.1141357 0.9873047
vt 0.1141357 0.9873047
vt 0.1141357 0.9873047
vt 0.1141357 0.9873047
vt 0.1141357 0.9873047
vt 0.1141357 0.9873047
vt 0.1141357 0.9873047
vt 0.1141357 0.9873047
vt 0.1141357 0.9873047
vt 0.1141357 0.9873047
vt 0.1141357 0.9873047
vt 0.1141357 0.9873047
vt 0.1141357 0.9873047
vt 0.1141357 0.9873047
vt 0.1141357 0.9873047
vt 0.1141357 0.9873047
vt 0.1141357 0.9873047
vt 0.1141357 0.9873047
vt 0.1141357 0.9873047
vt 0.1141357 0.9873047
vt 0.1141357 0.9873047
vt 0.1141357 0.9873047
vt 0.1141357 0.9873047
vt 0.1141357 0.9873047
vt 0.1141357 0.9873047
vt 0.1141357 0.9873047
vt 0.1141357 0.9873047
vt 0.1141357 0.9873047
vt 0.1141357 0.9873047
vt 0.1141357 0.9873047
vt 0.1141357 0.9873047
vt 0.1141357 0.9873047
vt 0.1141357 0.9873047
vt 0.1141357 0.9873047
vt 0.1141357 0.9873047
vt 0.1141357 0.9873047
vt 0.1141357 0.9873047
vt 0.1141357 0.9873047
vt 0.1141357 0.9873047
vt 0.1141357 0.9873047
vt 0.1141357 0.9873047
vt 0.1141357 0.9873047
vt 0.1141357 0.9873047
vt 0.1141357 0.9873047
vt 0.1141357 0.9873047
vt 0.1141357 0.9873047
vt 0.1141357 0.9873047
vt 0.1141357 0.9873047
vt 0.1141357 0.9873047
vt 0.1141357 0.9873047
vt 0.1141357 0.9873047
vn 0 0 1
vn 0 0 1
vn 0 0 1
vn 0 0 1
vn 0 0 1
vn 0 0 1
vn 0 0 1
vn 0 0 1
vn 0 0 1
vn 0 0 1
vn 0 0 1
vn 0 0 1
vn 0 0 1
vn 0 0 1
vn 0 0 1
vn 0 0 1
vn 0 0 1
vn 0 0 1
vn 0 0 1
vn 0 0 1
vn 0 0 1
vn 0 0 1
vn 0 0 1
vn 0 0 1
vn 0 0 1
vn 0 0 1
vn 0 0 1
vn 0 0 1
vn 0 0 1
vn 0 0 1
vn 0 0 1
vn 0 0 1
vn 0 0 1
vn 0 0 1
vn 0 0 1
vn 0 0 1
vn 0 0 1
vn 0 0 1
vn 0 0 1
vn 0 0 1
vn 0 0 1
vn 0 0 1
vn 0 0 1
vn 0 0 1
vn 0 0 1
vn 0 0 1
vn 0 0 1
vn 0 0 1
vn 0 0 1
vn 0 0 1
vn 0 0 1
vn 0 0 1
vn 0 0 1
vn 0 0 1
vn 0 0 1
vn 0 0 1
vn 0 0 1
vn 0 0 1
vn 0 0 1
vn 0 0 1
vn 0 0 1
vn 0 0 1
vn 0 0 1
vn 0 0 1
vn 0 0 1
vn 0 0 1
vn 0 0 1
vn 0 0 1
vn 0 0 1
vn 0 0 1
vn 0 0 1
vn 0 0 1
vn 0 0 1
vn 0 0 1
vn 0 0 1
vn 0 0 1
vn 0 0 1
vn 0 0 1
vn 0 0 1
vn 0 0 1
vn 0 0 1
vn 0 0 1
vn 0 0 1
vn 0 0 1
vn 0 0 1
vn 0 0 1
vn 0 0 1
vn 0 0 1
vn 0 0 1
vn 0 0 1
vn 0 0 1
vn 0 0 1
vn 0 0 1
vn 0 0 1
vn 0 0 1
vn 0 0 1
vn -0.7070313 0.7070313 0
vn -0.7070313 0.7070313 0
vn -0.7070313 0.7070313 0
vn -0.7070313 0.7070313 0
vn -0.7070313 -0.7070313 0
vn -0.7070313 -0.7070313 0
vn -0.7070313 -0.7070313 0
vn -0.7070313 -0.7070313 0
vn 0.7070313 0.7070313 0
vn 0.7070313 0.7070313 0
vn 0.7070313 0.7070313 0
vn 0.7070313 0.7070313 0
vn -0.7070313 0.7070313 0
vn -0.7070313 0.7070313 0
vn -0.7070313 0.7070313 0
vn -0.7070313 0.7070313 0
vn 0.7070313 -0.7070313 0
vn 0.7070313 -0.7070313 0
vn 0.7070313 -0.7070313 0
vn 0.7070313 -0.7070313 0
vn -0.7070313 -0.7070313 0
vn -0.7070313 -0.7070313 0
vn -0.7070313 -0.7070313 0
vn -0.7070313 -0.7070313 0
vn 0.7070313 0.7070313 0
vn 0.7070313 0.7070313 0
vn 0.7070313 0.7070313 0
vn 0.7070313 0.7070313 0
vn -0.7070313 0.7070313 0
vn -0.7070313 0.7070313 0
vn -0.7070313 0.7070313 0
vn -0.7070313 0.7070313 0
vn 0.7070313 -0.7070313 0
vn 0.7070313 -0.7070313 0
vn 0.7070313 -0.7070313 0
vn 0.7070313 -0.7070313 0
vn -0.7070313 -0.7070313 0
vn -0.7070313 -0.7070313 0
vn -0.7070313 -0.7070313 0
vn -0.7070313 -0.7070313 0
vn 0.7070313 0.7070313 0
vn 0.7070313 0.7070313 0
vn 0.7070313 0.7070313 0
vn 0.7070313 0.7070313 0
vn -0.7070313 0.7070313 0
vn -0.7070313 0.7070313 0
vn -0.7070313 0.7070313 0
vn -0.7070313 0.7070313 0
vn 0.7070313 -0.7070313 0
vn 0.7070313 -0.7070313 0
vn 0.7070313 -0.7070313 0
vn 0.7070313 -0.7070313 0
vn -0.7070313 -0.7070313 0
vn -0.7070313 -0.7070313 0
vn -0.7070313 -0.7070313 0
vn -0.7070313 -0.7070313 0
vn 0.7070313 0.7070313 0
vn 0.7070313 0.7070313 0
vn 0.7070313 0.7070313 0
vn 0.7070313 0.7070313 0
vn -0.7070313 0.7070313 0
vn -0.7070313 0.7070313 0
vn -0.7070313 0.7070313 0
vn -0.7070313 0.7070313 0
vn 0.7070313 -0.7070313 0
vn 0.7070313 -0.7070313 0
vn 0.7070313 -0.7070313 0
vn 0.7070313 -0.7070313 0
vn -0.7070313 -0.7070313 0
vn -0.7070313 -0.7070313 0
vn -0.7070313 -0.7070313 0
vn -0.7070313 -0.7070313 0
vn 0.7070313 0.7070313 0
vn 0.7070313 0.7070313 0
vn 0.7070313 0.7070313 0
vn 0.7070313 0.7070313 0
vn -0.7070313 0.7070313 0
vn -0.7070313 0.7070313 0
vn -0.7070313 0.7070313 0
vn -0.7070313 0.7070313 0
vn 0.7070313 -0.7070313 0
vn 0.7070313 -0.7070313 0
vn 0.7070313 -0.7070313 0
vn 0.7070313 -0.7070313 0
vn -0.7070313 -0.7070313 0
vn -0.7070313 -0.7070313 0
vn -0.7070313 -0.7070313 0
vn -0.7070313 -0.7070313 0
vn 0.7070313 0.7070313 0
vn 0.7070313 0.7070313 0
vn 0.7070313 0.7070313 0
vn 0.7070313 0.7070313 0
vn -0.7070313 0.7070313 0
vn -0.7070313 0.7070313 0
vn -0.7070313 0.7070313 0
vn -0.7070313 0.7070313 0
vn 0.7070313 -0.7070313 0
vn 0.7070313 -0.7070313 0
vn 0.7070313 -0.7070313 0
vn 0.7070313 -0.7070313 0
vn -0.7070313 -0.7070313 0
vn -0.7070313 -0.7070313 0
vn -0.7070313 -0.7070313 0
vn -0.7070313 -0.7070313 0
vn 0.7070313 0.7070313 0
vn 0.7070313 0.7070313 0
vn 0.7070313 0.7070313 0
vn 0.7070313 0.7070313 0
vn -0.7070313 0.7070313 0
vn -0.7070313 0.7070313 0
vn -0.7070313 0.7070313 0
vn -0.7070313 0.7070313 0
vn 0.7070313 -0.7070313 0
vn 0.7070313 -0.7070313 0
vn 0.7070313 -0.7070313 0
vn 0.7070313 -0.7070313 0
vn -0.7070313 -0.7070313 0
vn -0.7070313 -0.7070313 0
vn -0.7070313 -0.7070313 0
vn -0.7070313 -0.7070313 0
vn 0.7070313 0.7070313 0
vn 0.7070313 0.7070313 0
vn 0.7070313 0.7070313 0
vn 0.7070313 0.7070313 0
vn -0.7070313 0.7070313 0
vn -0.7070313 0.7070313 0
vn -0.7070313 0.7070313 0
vn -0.7070313 0.7070313 0
vn 0.7070313 -0.7070313 0
vn 0.7070313 -0.7070313 0
vn 0.7070313 -0.7070313 0
vn 0.7070313 -0.7070313 0
vn -0.7070313 -0.7070313 0
vn -0.7070313 -0.7070313 0
vn -0.7070313 -0.7070313 0
vn -0.7070313 -0.7070313 0
vn 0.7070313 0.7070313 0
vn 0.7070313 0.7070313 0
vn 0.7070313 0.7070313 0
vn 0.7070313 0.7070313 0
vn -0.7070313 0.7070313 0
vn -0.7070313 0.7070313 0
vn -0.7070313 0.7070313 0
vn -0.7070313 0.7070313 0
vn 0.7070313 -0.7070313 0
vn 0.7070313 -0.7070313 0
vn 0.7070313 -0.7070313 0
vn 0.7070313 -0.7070313 0
vn -0.7070313 -0.7070313 0
vn -0.7070313 -0.7070313 0
vn -0.7070313 -0.7070313 0
vn -0.7070313 -0.7070313 0
vn 0.7070313 0.7070313 0
vn 0.7070313 0.7070313 0
vn 0.7070313 0.7070313 0
vn 0.7070313 0.7070313 0
vn -0.7070313 0.7070313 0
vn -0.7070313 0.7070313 0
vn -0.7070313 0.7070313 0
vn -0.7070313 0.7070313 0
vn 0.7070313 -0.7070313 0
vn 0.7070313 -0.7070313 0
vn 0.7070313 -0.7070313 0
vn 0.7070313 -0.7070313 0
vn -0.7070313 -0.7070313 0
vn -0.7070313 -0.7070313 0
vn -0.7070313 -0.7070313 0
vn -0.7070313 -0.7070313 0
vn 0.7070313 0.7070313 0
vn 0.7070313 0.7070313 0
vn 0.7070313 0.7070313 0
vn 0.7070313 0.7070313 0
vn -0.7070313 0.7070313 0
vn -0.7070313 0.7070313 0
vn -0.7070313 0.7070313 0
vn -0.7070313 0.7070313 0
vn 0.7070313 -0.7070313 0
vn 0.7070313 -0.7070313 0
vn 0.7070313 -0.7070313 0
vn 0.7070313 -0.7070313 0
vn -0.7070313 -0.7070313 0
vn -0.7070313 -0.7070313 0
vn -0.7070313 -0.7070313 0
vn -0.7070313 -0.7070313 0
vn 0.7070313 0.7070313 0
vn 0.7070313 0.7070313 0
vn 0.7070313 0.7070313 0
vn 0.7070313 0.7070313 0
vn -0.7070313 0.7070313 0
vn -0.7070313 0.7070313 0
vn -0.7070313 0.7070313 0
vn -0.7070313 0.7070313 0
vn 0.7070313 -0.7070313 0
vn 0.7070313 -0.7070313 0
vn 0.7070313 -0.7070313 0
vn 0.7070313 -0.7070313 0
vn -0.7070313 -0.7070313 0
vn -0.7070313 -0.7070313 0
vn -0.7070313 -0.7070313 0
vn -0.7070313 -0.7070313 0
vn 0.7070313 0.7070313 0
vn 0.7070313 0.7070313 0
vn 0.7070313 0.7070313 0
vn 0.7070313 0.7070313 0
vn -0.7070313 0.7070313 0
vn -0.7070313 0.7070313 0
vn -0.7070313 0.7070313 0
vn -0.7070313 0.7070313 0
vn 0.7070313 -0.7070313 0
vn 0.7070313 -0.7070313 0
vn 0.7070313 -0.7070313 0
vn 0.7070313 -0.7070313 0
vn -0.7070313 -0.7070313 0
vn -0.7070313 -0.7070313 0
vn -0.7070313 -0.7070313 0
vn -0.7070313 -0.7070313 0
vn 0.7070313 0.7070313 0
vn 0.7070313 0.7070313 0
vn 0.7070313 0.7070313 0
vn 0.7070313 0.7070313 0
vn -0.7070313 0.7070313 0
vn -0.7070313 0.7070313 0
vn -0.7070313 0.7070313 0
vn -0.7070313 0.7070313 0
vn 0.7070313 -0.7070313 0
vn 0.7070313 -0.7070313 0
vn 0.7070313 -0.7070313 0
vn 0.7070313 -0.7070313 0
vn -0.7070313 -0.7070313 0
vn -0.7070313 -0.7070313 0
vn -0.7070313 -0.7070313 0
vn -0.7070313 -0.7070313 0
vn 0.7070313 0.7070313 0
vn 0.7070313 0.7070313 0
vn 0.7070313 0.7070313 0
vn 0.7070313 0.7070313 0
vn -0.7070313 0.7070313 0
vn -0.7070313 0.7070313 0
vn -0.7070313 0.7070313 0
vn -0.7070313 0.7070313 0
vn 0.7070313 -0.7070313 0
vn 0.7070313 -0.7070313 0
vn 0.7070313 -0.7070313 0
vn 0.7070313 -0.7070313 0
vn -0.7070313 -0.7070313 0
vn -0.7070313 -0.7070313 0
vn -0.7070313 -0.7070313 0
vn -0.7070313 -0.7070313 0
vn 0.7070313 0.7070313 0
vn 0.7070313 0.7070313 0
vn 0.7070313 0.7070313 0
vn 0.7070313 0.7070313 0
vn -0.7070313 0.7070313 0
vn -0.7070313 0.7070313 0
vn -0.7070313 0.7070313 0
vn -0.7070313 0.7070313 0
vn 0.7070313 -0.7070313 0
vn 0.7070313 -0.7070313 0
vn 0.7070313 -0.7070313 0
vn 0.7070313 -0.7070313 0
vn -0.7070313 -0.7070313 0
vn -0.7070313 -0.7070313 0
vn -0.7070313 -0.7070313 0
vn -0.7070313 -0.7070313 0
vn 0.7070313 0.7070313 0
vn 0.7070313 0.7070313 0
vn 0.7070313 0.7070313 0
vn 0.7070313 0.7070313 0
vn -0.7070313 0.7070313 0
vn -0.7070313 0.7070313 0
vn -0.7070313 0.7070313 0
vn -0.7070313 0.7070313 0
vn 0.7070313 -0.7070313 0
vn 0.7070313 -0.7070313 0
vn 0.7070313 -0.7070313 0
vn 0.7070313 -0.7070313 0
vn -0.7070313 -0.7070313 0
vn -0.7070313 -0.7070313 0
vn -0.7070313 -0.7070313 0
vn -0.7070313 -0.7070313 0
vn 0.7070313 0.7070313 0
vn 0.7070313 0.7070313 0
vn 0.7070313 0.7070313 0
vn 0.7070313 0.7070313 0
vn -0.7070313 0.7070313 0
vn -0.7070313 0.7070313 0
vn -0.7070313 0.7070313 0
vn -0.7070313 0.7070313 0
vn 0.7070313 -0.7070313 0
vn 0.7070313 -0.7070313 0
vn 0.7070313 -0.7070313 0
vn 0.7070313 -0.7070313 0
vn -0.7070313 -0.7070313 0
vn -0.7070313 -0.7070313 0
vn -0.7070313 -0.7070313 0
vn -0.7070313 -0.7070313 0
vn 0.7070313 0.7070313 0
vn 0.7070313 0.7070313 0
vn 0.7070313 0.7070313 0
vn 0.7070313 0.7070313 0
vn -0.7070313 0.7070313 0
vn -0.7070313 0.7070313 0
vn -0.7070313 0.7070313 0
vn -0.7070313 0.7070313 0
vn 0.7070313 -0.7070313 0
vn 0.7070313 -0.7070313 0
vn 0.7070313 -0.7070313 0
vn 0.7070313 -0.7070313 0
vn -0.7070313 -0.7070313 0
vn -0.7070313 -0.7070313 0
vn -0.7070313 -0.7070313 0
vn -0.7070313 -0.7070313 0
vn 0.7070313 0.7070313 0
vn 0.7070313 0.7070313 0
vn 0.7070313 0.7070313 0
vn 0.7070313 0.7070313 0
vn -0.7070313 0.7070313 0
vn -0.7070313 0.7070313 0
vn -0.7070313 0.7070313 0
vn -0.7070313 0.7070313 0
vn 0.7070313 -0.7070313 0
vn 0.7070313 -0.7070313 0
vn 0.7070313 -0.7070313 0
vn 0.7070313 -0.7070313 0
vn -0.7070313 -0.7070313 0
vn -0.7070313 -0.7070313 0
vn -0.7070313 -0.7070313 0
vn -0.7070313 -0.7070313 0
vn 0.7070313 0.7070313 0
vn 0.7070313 0.7070313 0
vn 0.7070313 0.7070313 0
vn 0.7070313 0.7070313 0
vn -0.7070313 0.7070313 0
vn -0.7070313 0.7070313 0
vn -0.7070313 0.7070313 0
vn -0.7070313 0.7070313 0
vn 0.7070313 -0.7070313 0
vn 0.7070313 -0.7070313 0
vn 0.7070313 -0.7070313 0
vn 0.7070313 -0.7070313 0
vn -0.7070313 -0.7070313 0
vn -0.7070313 -0.7070313 0
vn -0.7070313 -0.7070313 0
vn -0.7070313 -0.7070313 0
vn 0.7070313 0.7070313 0
vn 0.7070313 0.7070313 0
vn 0.7070313 0.7070313 0
vn 0.7070313 0.7070313 0
vn -0.7070313 0.7070313 0
vn -0.7070313 0.7070313 0
vn -0.7070313 0.7070313 0
vn -0.7070313 0.7070313 0
vn 0.7070313 -0.7070313 0
vn 0.7070313 -0.7070313 0
vn 0.7070313 -0.7070313 0
vn 0.7070313 -0.7070313 0
vn -0.7070313 -0.7070313 0
vn -0.7070313 -0.7070313 0
vn -0.7070313 -0.7070313 0
vn -0.7070313 -0.7070313 0
vn 0.7070313 0.7070313 0
vn 0.7070313 0.7070313 0
vn 0.7070313 0.7070313 0
vn 0.7070313 0.7070313 0
vn -0.7070313 0.7070313 0
vn -0.7070313 0.7070313 0
vn -0.7070313 0.7070313 0
vn -0.7070313 0.7070313 0
vn 0.7070313 -0.7070313 0
vn 0.7070313 -0.7070313 0
vn 0.7070313 -0.7070313 0
vn 0.7070313 -0.7070313 0
vn 0.7070313 0.7070313 0
vn 0.7070313 0.7070313 0
vn 0.7070313 0.7070313 0
vn 0.7070313 0.7070313 0
vn 0 0 1
vn 0 0 1
vn 0.7070313 -0.7070313 0
vn 0.7070313 -0.7070313 0
vn 0.7070313 -0.7070313 0
vn 0.7070313 -0.7070313 0
vn -0.7070313 -0.7070313 0
vn -0.7070313 -0.7070313 0
vn -0.7070313 -0.7070313 0
vn -0.7070313 -0.7070313 0
vn 0 1 0
vn 0 1 0
vn 0 1 0
vn 0 1 0
vn 0 -1 0
vn 0 -1 0
vn 0 -1 0
vn 0 -1 0
g Line001_0
f 3/3/3 2/2/2 1/1/1
f 4/4/4 3/3/3 1/1/1
f 5/5/5 3/3/3 4/4/4
f 6/6/6 5/5/5 4/4/4
f 7/7/7 5/5/5 6/6/6
f 8/8/8 7/7/7 6/6/6
f 9/9/9 7/7/7 8/8/8
f 10/10/10 9/9/9 8/8/8
f 11/11/11 9/9/9 10/10/10
f 12/12/12 11/11/11 10/10/10
f 13/13/13 11/11/11 12/12/12
f 14/14/14 13/13/13 12/12/12
f 15/15/15 13/13/13 14/14/14
f 16/16/16 15/15/15 14/14/14
f 17/17/17 15/15/15 16/16/16
f 18/18/18 17/17/17 16/16/16
f 19/19/19 17/17/17 18/18/18
f 20/20/20 19/19/19 18/18/18
f 21/21/21 19/19/19 20/20/20
f 22/22/22 21/21/21 20/20/20
f 23/23/23 21/21/21 22/22/22
f 24/24/24 23/23/23 22/22/22
f 25/25/25 23/23/23 24/24/24
f 26/26/26 25/25/25 24/24/24
f 27/27/27 25/25/25 26/26/26
f 28/28/28 27/27/27 26/26/26
f 29/29/29 27/27/27 28/28/28
f 30/30/30 29/29/29 28/28/28
f 31/31/31 29/29/29 30/30/30
f 32/32/32 31/31/31 30/30/30
f 33/33/33 31/31/31 32/32/32
f 34/34/34 33/33/33 32/32/32
f 35/35/35 33/33/33 34/34/34
f 36/36/36 35/35/35 34/34/34
f 37/37/37 35/35/35 36/36/36
f 38/38/38 37/37/37 36/36/36
f 39/39/39 37/37/37 38/38/38
f 40/40/40 39/39/39 38/38/38
f 41/41/41 39/39/39 40/40/40
f 42/42/42 41/41/41 40/40/40
f 43/43/43 41/41/41 42/42/42
f 44/44/44 43/43/43 42/42/42
f 45/45/45 43/43/43 44/44/44
f 46/46/46 45/45/45 44/44/44
f 47/47/47 45/45/45 46/46/46
f 48/48/48 47/47/47 46/46/46
f 49/49/49 47/47/47 48/48/48
f 50/50/50 49/49/49 48/48/48
f 51/51/51 49/49/49 50/50/50
f 52/52/52 51/51/51 50/50/50
f 53/53/53 51/51/51 52/52/52
f 54/54/54 53/53/53 52/52/52
f 55/55/55 53/53/53 54/54/54
f 56/56/56 55/55/55 54/54/54
f 57/57/57 55/55/55 56/56/56
f 58/58/58 57/57/57 56/56/56
f 59/59/59 57/57/57 58/58/58
f 60/60/60 59/59/59 58/58/58
f 61/61/61 59/59/59 60/60/60
f 62/62/62 61/61/61 60/60/60
f 63/63/63 61/61/61 62/62/62
f 64/64/64 63/63/63 62/62/62
f 65/65/65 63/63/63 64/64/64
f 66/66/66 65/65/65 64/64/64
f 67/67/67 65/65/65 66/66/66
f 68/68/68 67/67/67 66/66/66
f 69/69/69 67/67/67 68/68/68
f 70/70/70 69/69/69 68/68/68
f 71/71/71 69/69/69 70/70/70
f 72/72/72 71/71/71 70/70/70
f 73/73/73 71/71/71 72/72/72
f 74/74/74 73/73/73 72/72/72
f 75/75/75 73/73/73 74/74/74
f 76/76/76 75/75/75 74/74/74
f 77/77/77 75/75/75 76/76/76
f 78/78/78 77/77/77 76/76/76
f 79/79/79 77/77/77 78/78/78
f 80/80/80 79/79/79 78/78/78
f 81/81/81 79/79/79 80/80/80
f 82/82/82 81/81/81 80/80/80
f 83/83/83 81/81/81 82/82/82
f 84/84/84 83/83/83 82/82/82
f 85/85/85 83/83/83 84/84/84
f 86/86/86 85/85/85 84/84/84
f 87/87/87 85/85/85 86/86/86
f 88/88/88 87/87/87 86/86/86
f 89/89/89 87/87/87 88/88/88
f 90/90/90 89/89/89 88/88/88
f 91/91/91 89/89/89 90/90/90
f 92/92/92 91/91/91 90/90/90
f 93/93/93 91/91/91 92/92/92
f 94/94/94 93/93/93 92/92/92
f 93/93/93 94/94/94 95/95/95
f 96/96/96 93/93/93 95/95/95
f 99/99/99 98/98/98 97/97/97
f 100/100/100 99/99/99 97/97/97
f 103/103/103 102/102/102 101/101/101
f 104/104/104 103/103/103 101/101/101
f 107/107/107 106/106/106 105/105/105
f 108/108/108 107/107/107 105/105/105
f 111/111/111 110/110/110 109/109/109
f 112/112/112 111/111/111 109/109/109
f 115/115/115 114/114/114 113/113/113
f 116/116/116 115/115/115 113/113/113
f 119/119/119 118/118/118 117/117/117
f 120/120/120 119/119/119 117/117/117
f 123/123/123 122/122/122 121/121/121
f 124/124/124 123/123/123 121/121/121
f 127/127/127 126/126/126 125/125/125
f 128/128/128 127/127/127 125/125/125
f 131/131/131 130/130/130 129/129/129
f 132/132/132 131/131/131 129/129/129
f 135/135/135 134/134/134 133/133/133
f 136/136/136 135/135/135 133/133/133
f 139/139/139 138/138/138 137/137/137
f 140/140/140 139/139/139 137/137/137
f 143/143/143 142/142/142 141/141/141
f 144/144/144 143/143/143 141/141/141
f 147/147/147 146/146/146 145/145/145
f 148/148/148 147/147/147 145/145/145
f 151/151/151 150/150/150 149/149/149
f 152/152/152 151/151/151 149/149/149
f 155/155/155 154/154/154 153/153/153
f 156/156/156 155/155/155 153/153/153
f 159/159/159 158/158/158 157/157/157
f 160/160/160 159/159/159 157/157/157
f 163/163/163 162/162/162 161/161/161
f 164/164/164 163/163/163 161/161/161
f 167/167/167 166/166/166 165/165/165
f 168/168/168 167/167/167 165/165/165
f 171/171/171 170/170/170 169/169/169
f 172/172/172 171/171/171 169/169/169
f 175/175/175 174/174/174 173/173/173
f 176/176/176 175/175/175 173/173/173
f 179/179/179 178/178/178 177/177/177
f 180/180/180 179/179/179 177/177/177
f 183/183/183 182/182/182 181/181/181
f 184/184/184 183/183/183 181/181/181
f 187/187/187 186/186/186 185/185/185
f 188/188/188 187/187/187 185/185/185
f 191/191/191 190/190/190 189/189/189
f 192/192/192 191/191/191 189/189/189
f 195/195/195 194/194/194 193/193/193
f 196/196/196 195/195/195 193/193/193
f 199/199/199 198/198/198 197/197/197
f 200/200/200 199/199/199 197/197/197
f 203/203/203 202/202/202 201/201/201
f 204/204/204 203/203/203 201/201/201
f 207/207/207 206/206/206 205/205/205
f 208/208/208 207/207/207 205/205/205
f 211/211/211 210/210/210 209/209/209
f 212/212/212 211/211/211 209/209/209
f 215/215/215 214/214/214 213/213/213
f 216/216/216 215/215/215 213/213/213
f 219/219/219 218/218/218 217/217/217
f 220/220/220 219/219/219 217/217/217
f 223/223/223 222/222/222 221/221/221
f 224/224/224 223/223/223 221/221/221
f 227/227/227 226/226/226 225/225/225
f 228/228/228 227/227/227 225/225/225
f 231/231/231 230/230/230 229/229/229
f 232/232/232 231/231/231 229/229/229
f 235/235/235 234/234/234 233/233/233
f 236/236/236 235/235/235 233/233/233
f 239/239/239 238/238/238 237/237/237
f 240/240/240 239/239/239 237/237/237
f 243/243/243 242/242/242 241/241/241
f 244/244/244 243/243/243 241/241/241
f 247/247/247 246/246/246 245/245/245
f 248/248/248 247/247/247 245/245/245
f 251/251/251 250/250/250 249/249/249
f 252/252/252 251/251/251 249/249/249
f 255/255/255 254/254/254 253/253/253
f 256/256/256 255/255/255 253/253/253
f 259/259/259 258/258/258 257/257/257
f 260/260/260 259/259/259 257/257/257
f 263/263/263 262/262/262 261/261/261
f 264/264/264 263/263/263 261/261/261
f 267/267/267 266/266/266 265/265/265
f 268/268/268 267/267/267 265/265/265
f 271/271/271 270/270/270 269/269/269
f 272/272/272 271/271/271 269/269/269
f 275/275/275 274/274/274 273/273/273
f 276/276/276 275/275/275 273/273/273
f 279/279/279 278/278/278 277/277/277
f 280/280/280 279/279/279 277/277/277
f 283/283/283 282/282/282 281/281/281
f 284/284/284 283/283/283 281/281/281
f 287/287/287 286/286/286 285/285/285
f 288/288/288 287/287/287 285/285/285
f 291/291/291 290/290/290 289/289/289
f 292/292/292 291/291/291 289/289/289
f 295/295/295 294/294/294 293/293/293
f 296/296/296 295/295/295 293/293/293
f 299/299/299 298/298/298 297/297/297
f 300/300/300 299/299/299 297/297/297
f 303/303/303 302/302/302 301/301/301
f 304/304/304 303/303/303 301/301/301
f 307/307/307 306/306/306 305/305/305
f 308/308/308 307/307/307 305/305/305
f 311/311/311 310/310/310 309/309/309
f 312/312/312 311/311/311 309/309/309
f 315/315/315 314/314/314 313/313/313
f 316/316/316 315/315/315 313/313/313
f 319/319/319 318/318/318 317/317/317
f 320/320/320 319/319/319 317/317/317
f 323/323/323 322/322/322 321/321/321
f 324/324/324 323/323/323 321/321/321
f 327/327/327 326/326/326 325/325/325
f 328/328/328 327/327/327 325/325/325
f 331/331/331 330/330/330 329/329/329
f 332/332/332 331/331/331 329/329/329
f 335/335/335 334/334/334 333/333/333
f 336/336/336 335/335/335 333/333/333
f 339/339/339 338/338/338 337/337/337
f 340/340/340 339/339/339 337/337/337
f 343/343/343 342/342/342 341/341/341
f 344/344/344 343/343/343 341/341/341
f 347/347/347 346/346/346 345/345/345
f 348/348/348 347/347/347 345/345/345
f 351/351/351 350/350/350 349/349/349
f 352/352/352 351/351/351 349/349/349
f 355/355/355 354/354/354 353/353/353
f 356/356/356 355/355/355 353/353/353
f 359/359/359 358/358/358 357/357/357
f 360/360/360 359/359/359 357/357/357
f 363/363/363 362/362/362 361/361/361
f 364/364/364 363/363/363 361/361/361
f 367/367/367 366/366/366 365/365/365
f 368/368/368 367/367/367 365/365/365
f 371/371/371 370/370/370 369/369/369
f 372/372/372 371/371/371 369/369/369
f 375/375/375 374/374/374 373/373/373
f 376/376/376 375/375/375 373/373/373
f 379/379/379 378/378/378 377/377/377
f 380/380/380 379/379/379 377/377/377
f 383/383/383 382/382/382 381/381/381
f 384/384/384 383/383/383 381/381/381
f 387/387/387 386/386/386 385/385/385
f 388/388/388 387/387/387 385/385/385
f 391/391/391 390/390/390 389/389/389
f 392/392/392 391/391/391 389/389/389
f 395/395/395 394/394/394 393/393/393
f 396/396/396 395/395/395 393/393/393
f 399/399/399 398/398/398 397/397/397
f 400/400/400 399/399/399 397/397/397
f 403/403/403 402/402/402 401/401/401
f 404/404/404 403/403/403 401/401/401
f 407/407/407 406/406/406 405/405/405
f 408/408/408 407/407/407 405/405/405
f 411/411/411 410/410/410 409/409/409
f 412/412/412 411/411/411 409/409/409
f 415/415/415 414/414/414 413/413/413
f 416/416/416 415/415/415 413/413/413
f 419/419/419 418/418/418 417/417/417
f 420/420/420 419/419/419 417/417/417
f 423/423/423 422/422/422 421/421/421
f 424/424/424 423/423/423 421/421/421
f 427/427/427 426/426/426 425/425/425
f 428/428/428 427/427/427 425/425/425
f 431/431/431 430/430/430 429/429/429
f 432/432/432 431/431/431 429/429/429
f 435/435/435 434/434/434 433/433/433
f 436/436/436 435/435/435 433/433/433
f 439/439/439 438/438/438 437/437/437
f 440/440/440 439/439/439 437/437/437
f 443/443/443 442/442/442 441/441/441
f 444/444/444 443/443/443 441/441/441
f 447/447/447 446/446/446 445/445/445
f 448/448/448 447/447/447 445/445/445
f 451/451/451 450/450/450 449/449/449
f 452/452/452 451/451/451 449/449/449
f 455/455/455 454/454/454 453/453/453
f 456/456/456 455/455/455 453/453/453
f 459/459/459 458/458/458 457/457/457
f 460/460/460 459/459/459 457/457/457
f 463/463/463 462/462/462 461/461/461
f 464/464/464 463/463/463 461/461/461
f 467/467/467 466/466/466 465/465/465
f 468/468/468 467/467/467 465/465/465
f 471/471/471 470/470/470 469/469/469
f 472/472/472 471/471/471 469/469/469
f 2/2/2 474/474/474 473/473/473
f 1/1/1 2/2/2 473/473/473
f 477/477/477 476/476/476 475/475/475
f 478/478/478 477/477/477 475/475/475
f 481/481/481 480/480/480 479/479/479
f 482/482/482 481/481/481 479/479/479
f 485/485/485 484/484/484 483/483/483
f 486/486/486 485/485/485 483/483/483
f 489/489/489 488/488/488 487/487/487
f 490/490/490 489/489/489 487/487/487
