# Blender 4.3.0
# www.blender.org
mtllib lotus.mtl
o Cube
v 0.747570 0.536923 -0.011695
v 0.747570 0.546278 -0.011695
v 0.747570 0.536923 0.011695
v 0.747570 0.546278 0.011695
v -0.747570 0.536923 -0.011695
v -0.747570 0.546278 -0.011695
v -0.747570 0.536923 0.011695
v -0.747570 0.546278 0.011695
v -0.747570 0.546278 0.000000
v 0.747570 0.536923 0.000000
v -0.747570 0.536923 0.000000
v 0.747570 0.546278 0.000000
v 0.600000 0.203040 -0.187345
v 0.200000 0.004678 -0.263843
v -0.200000 0.004678 -0.263843
v -0.600000 0.203040 -0.187345
v 0.600000 0.193684 0.187345
v 0.200000 -0.004678 0.263843
v -0.200000 -0.004678 0.263843
v -0.600000 0.193684 0.187345
v -0.600000 0.203040 0.187345
v -0.200000 0.004678 0.263843
v 0.200000 0.004678 0.263843
v 0.600000 0.203040 0.187345
v -0.600000 0.193684 -0.187345
v -0.200000 -0.004678 -0.263843
v 0.200000 -0.004678 -0.263843
v 0.600000 0.193684 -0.187345
v 0.600000 0.203040 0.000000
v 0.200000 0.004678 0.000000
v -0.200000 0.004678 0.000000
v -0.600000 0.203040 0.000000
v -0.600000 0.193684 0.000000
v -0.200000 -0.004678 0.000000
v 0.200000 -0.004678 0.000000
v 0.600000 0.193684 0.000000
v 0.363657 0.536923 -0.653263
v 0.363657 0.546278 -0.653263
v 0.383914 0.536923 -0.641567
v 0.383914 0.546278 -0.641567
v -0.383914 0.536923 0.641567
v -0.383914 0.546278 0.641567
v -0.363657 0.536923 0.653263
v -0.363657 0.546278 0.653263
v -0.373785 0.546278 0.647415
v 0.373785 0.536923 -0.647415
v -0.373785 0.536923 0.647415
v 0.373785 0.546278 -0.647415
v 0.137755 0.203040 -0.613288
v -0.128495 0.004678 -0.305127
v -0.328495 0.004678 0.041283
v -0.462245 0.203040 0.425943
v 0.462245 0.193684 -0.425943
v 0.328495 -0.004678 -0.041283
v 0.128495 -0.004678 0.305127
v -0.137755 0.193684 0.613288
v -0.137755 0.203040 0.613288
v 0.128495 0.004678 0.305127
v 0.328495 0.004678 -0.041283
v 0.462245 0.203040 -0.425943
v -0.462245 0.193684 0.425943
v -0.328495 -0.004678 0.041283
v -0.128495 -0.004678 -0.305127
v 0.137755 0.193684 -0.613288
v 0.300000 0.203040 -0.519615
v 0.100000 0.004678 -0.173205
v -0.100000 0.004678 0.173205
v -0.300000 0.203040 0.519615
v -0.300000 0.193684 0.519615
v -0.100000 -0.004678 0.173205
v 0.100000 -0.004678 -0.173205
v 0.300000 0.193684 -0.519615
v -0.383914 0.536923 -0.641567
v -0.383914 0.546278 -0.641567
v -0.363657 0.536923 -0.653263
v -0.363657 0.546278 -0.653263
v 0.363657 0.536923 0.653263
v 0.363657 0.546278 0.653263
v 0.383914 0.536923 0.641567
v 0.383914 0.546278 0.641567
v 0.373785 0.546278 0.647415
v -0.373785 0.536923 -0.647415
v 0.373785 0.536923 0.647415
v -0.373785 0.546278 -0.647415
v -0.462245 0.203040 -0.425943
v -0.328495 0.004678 -0.041283
v -0.128495 0.004678 0.305127
v 0.137755 0.203040 0.613288
v -0.137755 0.193684 -0.613288
v 0.128495 -0.004678 -0.305127
v 0.328495 -0.004678 0.041283
v 0.462245 0.193684 0.425943
v 0.462245 0.203040 0.425943
v 0.328495 0.004678 0.041283
v 0.128495 0.004678 -0.305127
v -0.137755 0.203040 -0.613288
v 0.137755 0.193684 0.613288
v -0.128495 -0.004678 0.305127
v -0.328495 -0.004678 -0.041283
v -0.462245 0.193684 -0.425943
v -0.300000 0.203040 -0.519615
v -0.100000 0.004678 -0.173205
v 0.100000 0.004678 0.173205
v 0.300000 0.203040 0.519615
v 0.300000 0.193684 0.519615
v 0.100000 -0.004678 0.173205
v -0.100000 -0.004678 -0.173205
v -0.300000 0.193684 -0.519615
vn -0.9187 -0.3950 -0.0000
vn -0.7657 -0.0000 0.6433
vn -1.0000 -0.0000 -0.0000
vn -0.9187 0.3950 -0.0000
vn 1.0000 -0.0000 -0.0000
vn 0.7657 -0.0000 -0.6433
vn 0.9187 -0.3950 -0.0000
vn 0.4443 -0.8959 -0.0000
vn -0.0000 -1.0000 -0.0000
vn -0.4443 -0.8959 -0.0000
vn 0.9187 0.3950 -0.0000
vn 0.4443 0.8959 -0.0000
vn -0.0000 1.0000 -0.0000
vn -0.4443 0.8959 -0.0000
vn -0.7657 -0.0000 -0.6433
vn -0.1878 -0.0000 -0.9822
vn -0.0000 -0.0000 -1.0000
vn 0.1878 -0.0000 -0.9822
vn 0.7657 -0.0000 0.6433
vn 0.1878 -0.0000 0.9822
vn -0.0000 -0.0000 1.0000
vn -0.1878 -0.0000 0.9822
vn -0.4593 -0.3950 0.7956
vn 0.1742 -0.0000 0.9847
vn -0.5000 -0.0000 0.8660
vn -0.4593 0.3950 0.7956
vn 0.5000 -0.0000 -0.8660
vn -0.1742 -0.0000 -0.9847
vn 0.4593 -0.3950 -0.7956
vn 0.2221 -0.8959 -0.3848
vn -0.2221 -0.8959 0.3848
vn 0.4593 0.3950 -0.7956
vn 0.2221 0.8959 -0.3848
vn -0.2221 0.8959 0.3848
vn -0.9399 -0.0000 0.3414
vn -0.9445 -0.0000 -0.3284
vn -0.8660 -0.0000 -0.5000
vn -0.7567 -0.0000 -0.6538
vn 0.9399 -0.0000 -0.3414
vn 0.9445 -0.0000 0.3284
vn 0.8660 -0.0000 0.5000
vn 0.7567 -0.0000 0.6538
vn 0.4593 -0.3950 0.7956
vn 0.9399 -0.0000 0.3414
vn 0.5000 -0.0000 0.8660
vn 0.4593 0.3950 0.7956
vn -0.5000 -0.0000 -0.8660
vn -0.9399 -0.0000 -0.3414
vn -0.4593 -0.3950 -0.7956
vn -0.2221 -0.8959 -0.3848
vn 0.2221 -0.8959 0.3848
vn -0.4593 0.3950 -0.7956
vn -0.2221 0.8959 -0.3848
vn 0.2221 0.8959 0.3848
vn -0.1742 -0.0000 0.9847
vn -0.7567 -0.0000 0.6538
vn -0.8660 -0.0000 0.5000
vn -0.9445 -0.0000 0.3284
vn 0.1742 -0.0000 -0.9847
vn 0.7567 -0.0000 -0.6538
vn 0.8660 -0.0000 -0.5000
vn 0.9445 -0.0000 -0.3284
vt 0.984375 0.804688
s 0
usemtl Material
f 33/1/1 20/1/1 7/1/1 11/1/1
f 21/1/2 8/1/2 7/1/2 20/1/2
f 9/1/3 6/1/3 5/1/3 11/1/3
f 29/1/4 24/1/4 4/1/4 12/1/4
f 12/1/5 4/1/5 3/1/5 10/1/5
f 13/1/6 2/1/6 1/1/6 28/1/6
f 2/1/5 12/1/5 10/1/5 1/1/5
f 13/1/4 29/1/4 12/1/4 2/1/4
f 8/1/3 9/1/3 11/1/3 7/1/3
f 25/1/1 33/1/1 11/1/1 5/1/1
f 1/1/7 10/1/7 36/1/7 28/1/7
f 28/1/8 36/1/8 35/1/8 27/1/8
f 27/1/9 35/1/9 34/1/9 26/1/9
f 26/1/10 34/1/10 33/1/10 25/1/10
f 6/1/11 9/1/11 32/1/11 16/1/11
f 16/1/12 32/1/12 31/1/12 15/1/12
f 15/1/13 31/1/13 30/1/13 14/1/13
f 14/1/14 30/1/14 29/1/14 13/1/14
f 6/1/15 16/1/15 25/1/15 5/1/15
f 16/1/16 15/1/16 26/1/16 25/1/16
f 15/1/17 14/1/17 27/1/17 26/1/17
f 14/1/18 13/1/18 28/1/18 27/1/18
f 9/1/11 8/1/11 21/1/11 32/1/11
f 32/1/12 21/1/12 22/1/12 31/1/12
f 31/1/13 22/1/13 23/1/13 30/1/13
f 30/1/14 23/1/14 24/1/14 29/1/14
f 4/1/19 24/1/19 17/1/19 3/1/19
f 24/1/20 23/1/20 18/1/20 17/1/20
f 23/1/21 22/1/21 19/1/21 18/1/21
f 22/1/22 21/1/22 20/1/22 19/1/22
f 10/1/7 3/1/7 17/1/7 36/1/7
f 36/1/8 17/1/8 18/1/8 35/1/8
f 35/1/9 18/1/9 19/1/9 34/1/9
f 34/1/10 19/1/10 20/1/10 33/1/10
f 69/1/23 56/1/23 43/1/23 47/1/23
f 57/1/24 44/1/24 43/1/24 56/1/24
f 45/1/25 42/1/25 41/1/25 47/1/25
f 65/1/26 60/1/26 40/1/26 48/1/26
f 48/1/27 40/1/27 39/1/27 46/1/27
f 49/1/28 38/1/28 37/1/28 64/1/28
f 38/1/27 48/1/27 46/1/27 37/1/27
f 49/1/26 65/1/26 48/1/26 38/1/26
f 44/1/25 45/1/25 47/1/25 43/1/25
f 61/1/23 69/1/23 47/1/23 41/1/23
f 37/1/29 46/1/29 72/1/29 64/1/29
f 64/1/30 72/1/30 71/1/30 63/1/30
f 63/1/9 71/1/9 70/1/9 62/1/9
f 62/1/31 70/1/31 69/1/31 61/1/31
f 42/1/32 45/1/32 68/1/32 52/1/32
f 52/1/33 68/1/33 67/1/33 51/1/33
f 51/1/13 67/1/13 66/1/13 50/1/13
f 50/1/34 66/1/34 65/1/34 49/1/34
f 42/1/35 52/1/35 61/1/35 41/1/35
f 52/1/36 51/1/36 62/1/36 61/1/36
f 51/1/37 50/1/37 63/1/37 62/1/37
f 50/1/38 49/1/38 64/1/38 63/1/38
f 45/1/32 44/1/32 57/1/32 68/1/32
f 68/1/33 57/1/33 58/1/33 67/1/33
f 67/1/13 58/1/13 59/1/13 66/1/13
f 66/1/34 59/1/34 60/1/34 65/1/34
f 40/1/39 60/1/39 53/1/39 39/1/39
f 60/1/40 59/1/40 54/1/40 53/1/40
f 59/1/41 58/1/41 55/1/41 54/1/41
f 58/1/42 57/1/42 56/1/42 55/1/42
f 46/1/29 39/1/29 53/1/29 72/1/29
f 72/1/30 53/1/30 54/1/30 71/1/30
f 71/1/9 54/1/9 55/1/9 70/1/9
f 70/1/31 55/1/31 56/1/31 69/1/31
f 105/1/43 92/1/43 79/1/43 83/1/43
f 93/1/44 80/1/44 79/1/44 92/1/44
f 81/1/45 78/1/45 77/1/45 83/1/45
f 101/1/46 96/1/46 76/1/46 84/1/46
f 84/1/47 76/1/47 75/1/47 82/1/47
f 85/1/48 74/1/48 73/1/48 100/1/48
f 74/1/47 84/1/47 82/1/47 73/1/47
f 85/1/46 101/1/46 84/1/46 74/1/46
f 80/1/45 81/1/45 83/1/45 79/1/45
f 97/1/43 105/1/43 83/1/43 77/1/43
f 73/1/49 82/1/49 108/1/49 100/1/49
f 100/1/50 108/1/50 107/1/50 99/1/50
f 99/1/9 107/1/9 106/1/9 98/1/9
f 98/1/51 106/1/51 105/1/51 97/1/51
f 78/1/52 81/1/52 104/1/52 88/1/52
f 88/1/53 104/1/53 103/1/53 87/1/53
f 87/1/13 103/1/13 102/1/13 86/1/13
f 86/1/54 102/1/54 101/1/54 85/1/54
f 78/1/55 88/1/55 97/1/55 77/1/55
f 88/1/56 87/1/56 98/1/56 97/1/56
f 87/1/57 86/1/57 99/1/57 98/1/57
f 86/1/58 85/1/58 100/1/58 99/1/58
f 81/1/52 80/1/52 93/1/52 104/1/52
f 104/1/53 93/1/53 94/1/53 103/1/53
f 103/1/13 94/1/13 95/1/13 102/1/13
f 102/1/54 95/1/54 96/1/54 101/1/54
f 76/1/59 96/1/59 89/1/59 75/1/59
f 96/1/60 95/1/60 90/1/60 89/1/60
f 95/1/61 94/1/61 91/1/61 90/1/61
f 94/1/62 93/1/62 92/1/62 91/1/62
f 82/1/49 75/1/49 89/1/49 108/1/49
f 108/1/50 89/1/50 90/1/50 107/1/50
f 107/1/9 90/1/9 91/1/9 106/1/9
f 106/1/51 91/1/51 92/1/51 105/1/51
o Cube.001
v -0.361602 0.256498 0.005657
v -0.361602 0.260967 0.005657
v -0.361602 0.256498 -0.005657
v -0.361602 0.260967 -0.005657
v 0.361602 0.256498 0.005657
v 0.361602 0.260967 0.005657
v 0.361602 0.256498 -0.005657
v 0.361602 0.260967 -0.005657
v 0.361602 0.260967 -0.000000
v -0.361602 0.256498 0.000000
v 0.361602 0.256498 -0.000000
v -0.361602 0.260967 0.000000
v -0.290221 0.096996 0.090619
v -0.096740 0.002235 0.127622
v 0.096741 0.002235 0.127622
v 0.290221 0.096996 0.090619
v -0.290221 0.092526 -0.090619
v -0.096741 -0.002235 -0.127622
v 0.096740 -0.002235 -0.127622
v 0.290221 0.092526 -0.090619
v 0.290221 0.096996 -0.090619
v 0.096740 0.002235 -0.127622
v -0.096741 0.002235 -0.127622
v -0.290221 0.096996 -0.090619
v 0.290221 0.092526 0.090619
v 0.096741 -0.002235 0.127622
v -0.096740 -0.002235 0.127622
v -0.290221 0.092526 0.090619
v -0.290221 0.096996 0.000000
v -0.096740 0.002235 0.000000
v 0.096740 0.002235 -0.000000
v 0.290221 0.096996 -0.000000
v 0.290221 0.092526 -0.000000
v 0.096740 -0.002235 -0.000000
v -0.096740 -0.002235 0.000000
v -0.290221 0.092526 0.000000
v -0.175901 0.256498 0.315985
v -0.175901 0.260967 0.315985
v -0.185700 0.256498 0.310328
v -0.185700 0.260967 0.310328
v 0.185700 0.256498 -0.310328
v 0.185700 0.260967 -0.310328
v 0.175901 0.256498 -0.315985
v 0.175901 0.260967 -0.315985
v 0.180801 0.260967 -0.313156
v -0.180801 0.256498 0.313156
v 0.180801 0.256498 -0.313156
v -0.180801 0.260967 0.313156
v -0.066632 0.096996 0.296649
v 0.062153 0.002235 0.147591
v 0.158894 0.002235 -0.019969
v 0.223589 0.096996 -0.206030
v -0.223589 0.092526 0.206030
v -0.158894 -0.002235 0.019969
v -0.062153 -0.002235 -0.147591
v 0.066632 0.092526 -0.296649
v 0.066632 0.096996 -0.296649
v -0.062153 0.002235 -0.147591
v -0.158894 0.002235 0.019969
v -0.223589 0.096996 0.206030
v 0.223589 0.092526 -0.206030
v 0.158894 -0.002235 -0.019969
v 0.062153 -0.002235 0.147591
v -0.066632 0.092526 0.296649
v -0.145111 0.096996 0.251339
v -0.048370 0.002235 0.083780
v 0.048370 0.002235 -0.083780
v 0.145111 0.096996 -0.251339
v 0.145111 0.092526 -0.251339
v 0.048370 -0.002235 -0.083780
v -0.048370 -0.002235 0.083780
v -0.145111 0.092526 0.251339
v 0.185700 0.256498 0.310327
v 0.185700 0.260967 0.310327
v 0.175902 0.256498 0.315985
v 0.175902 0.260967 0.315985
v -0.175902 0.256498 -0.315985
v -0.175902 0.260967 -0.315985
v -0.185700 0.256498 -0.310327
v -0.185700 0.260967 -0.310327
v -0.180801 0.260967 -0.313156
v 0.180801 0.256498 0.313156
v -0.180801 0.256498 -0.313156
v 0.180801 0.260967 0.313156
v 0.223589 0.096996 0.206029
v 0.158894 0.002235 0.019969
v 0.062153 0.002235 -0.147591
v -0.066632 0.096996 -0.296649
v 0.066632 0.092526 0.296649
v -0.062153 -0.002235 0.147591
v -0.158894 -0.002235 -0.019969
v -0.223589 0.092526 -0.206029
v -0.223589 0.096996 -0.206029
v -0.158894 0.002235 -0.019969
v -0.062153 0.002235 0.147591
v 0.066632 0.096996 0.296649
v -0.066632 0.092526 -0.296649
v 0.062153 -0.002235 -0.147591
v 0.158894 -0.002235 0.019969
v 0.223589 0.092526 0.206029
v 0.145111 0.096996 0.251339
v 0.048370 0.002235 0.083780
v -0.048370 0.002235 -0.083780
v -0.145111 0.096996 -0.251339
v -0.145111 0.092526 -0.251339
v -0.048370 -0.002235 -0.083780
v 0.048370 -0.002235 0.083780
v 0.145111 0.092526 0.251339
vn 0.9169 -0.3991 -0.0000
vn 0.7657 -0.0000 -0.6433
vn 1.0000 -0.0000 -0.0000
vn 0.9169 0.3991 -0.0000
vn -1.0000 -0.0000 -0.0000
vn -0.7657 -0.0000 0.6433
vn -0.9169 -0.3991 -0.0000
vn -0.4398 -0.8981 -0.0000
vn -0.0000 -1.0000 -0.0000
vn 0.4398 -0.8981 -0.0000
vn -0.9169 0.3991 -0.0000
vn -0.4398 0.8981 -0.0000
vn -0.0000 1.0000 -0.0000
vn 0.4398 0.8981 -0.0000
vn 0.7657 -0.0000 0.6433
vn 0.1878 -0.0000 0.9822
vn -0.0000 -0.0000 1.0000
vn -0.1878 -0.0000 0.9822
vn -0.7657 -0.0000 -0.6433
vn -0.1878 -0.0000 -0.9822
vn -0.0000 -0.0000 -1.0000
vn 0.1878 -0.0000 -0.9822
vn 0.4584 -0.3991 -0.7940
vn -0.1743 -0.0000 -0.9847
vn 0.5000 -0.0000 -0.8660
vn 0.4584 0.3991 -0.7940
vn -0.5000 -0.0000 0.8660
vn 0.1743 -0.0000 0.9847
vn -0.4584 -0.3991 0.7940
vn -0.2199 -0.8981 0.3809
vn 0.2199 -0.8981 -0.3809
vn -0.4584 0.3991 0.7940
vn -0.2199 0.8981 0.3809
vn 0.2199 0.8981 -0.3809
vn 0.9399 -0.0000 -0.3414
vn 0.9445 -0.0000 0.3284
vn 0.8660 -0.0000 0.5000
vn 0.7567 -0.0000 0.6538
vn -0.9399 -0.0000 0.3414
vn -0.9445 -0.0000 -0.3284
vn -0.8660 -0.0000 -0.5000
vn -0.7567 -0.0000 -0.6538
vn -0.4584 -0.3991 -0.7940
vn -0.9399 -0.0000 -0.3414
vn -0.5000 -0.0000 -0.8660
vn -0.4584 0.3991 -0.7940
vn 0.5000 -0.0000 0.8660
vn 0.9399 -0.0000 0.3414
vn 0.4584 -0.3991 0.7940
vn 0.2199 -0.8981 0.3809
vn -0.2199 -0.8981 -0.3809
vn 0.4584 0.3991 0.7940
vn 0.2199 0.8981 0.3809
vn -0.2199 0.8981 -0.3809
vn 0.1742 -0.0000 -0.9847
vn 0.7567 -0.0000 -0.6538
vn 0.8660 -0.0000 -0.5000
vn 0.9445 -0.0000 -0.3284
vn -0.1742 -0.0000 0.9847
vn -0.7567 -0.0000 0.6538
vn -0.8660 -0.0000 0.5000
vn -0.9445 -0.0000 0.3284
vt 0.984375 0.958984
s 0
usemtl Material
f 141/2/63 128/2/63 115/2/63 119/2/63
f 129/2/64 116/2/64 115/2/64 128/2/64
f 117/2/65 114/2/65 113/2/65 119/2/65
f 137/2/66 132/2/66 112/2/66 120/2/66
f 120/2/67 112/2/67 111/2/67 118/2/67
f 121/2/68 110/2/68 109/2/68 136/2/68
f 110/2/67 120/2/67 118/2/67 109/2/67
f 121/2/66 137/2/66 120/2/66 110/2/66
f 116/2/65 117/2/65 119/2/65 115/2/65
f 133/2/63 141/2/63 119/2/63 113/2/63
f 109/2/69 118/2/69 144/2/69 136/2/69
f 136/2/70 144/2/70 143/2/70 135/2/70
f 135/2/71 143/2/71 142/2/71 134/2/71
f 134/2/72 142/2/72 141/2/72 133/2/72
f 114/2/73 117/2/73 140/2/73 124/2/73
f 124/2/74 140/2/74 139/2/74 123/2/74
f 123/2/75 139/2/75 138/2/75 122/2/75
f 122/2/76 138/2/76 137/2/76 121/2/76
f 114/2/77 124/2/77 133/2/77 113/2/77
f 124/2/78 123/2/78 134/2/78 133/2/78
f 123/2/79 122/2/79 135/2/79 134/2/79
f 122/2/80 121/2/80 136/2/80 135/2/80
f 117/2/73 116/2/73 129/2/73 140/2/73
f 140/2/74 129/2/74 130/2/74 139/2/74
f 139/2/75 130/2/75 131/2/75 138/2/75
f 138/2/76 131/2/76 132/2/76 137/2/76
f 112/2/81 132/2/81 125/2/81 111/2/81
f 132/2/82 131/2/82 126/2/82 125/2/82
f 131/2/83 130/2/83 127/2/83 126/2/83
f 130/2/84 129/2/84 128/2/84 127/2/84
f 118/2/69 111/2/69 125/2/69 144/2/69
f 144/2/70 125/2/70 126/2/70 143/2/70
f 143/2/71 126/2/71 127/2/71 142/2/71
f 142/2/72 127/2/72 128/2/72 141/2/72
f 177/2/85 164/2/85 151/2/85 155/2/85
f 165/2/86 152/2/86 151/2/86 164/2/86
f 153/2/87 150/2/87 149/2/87 155/2/87
f 173/2/88 168/2/88 148/2/88 156/2/88
f 156/2/89 148/2/89 147/2/89 154/2/89
f 157/2/90 146/2/90 145/2/90 172/2/90
f 146/2/89 156/2/89 154/2/89 145/2/89
f 157/2/88 173/2/88 156/2/88 146/2/88
f 152/2/87 153/2/87 155/2/87 151/2/87
f 169/2/85 177/2/85 155/2/85 149/2/85
f 145/2/91 154/2/91 180/2/91 172/2/91
f 172/2/92 180/2/92 179/2/92 171/2/92
f 171/2/71 179/2/71 178/2/71 170/2/71
f 170/2/93 178/2/93 177/2/93 169/2/93
f 150/2/94 153/2/94 176/2/94 160/2/94
f 160/2/95 176/2/95 175/2/95 159/2/95
f 159/2/75 175/2/75 174/2/75 158/2/75
f 158/2/96 174/2/96 173/2/96 157/2/96
f 150/2/97 160/2/97 169/2/97 149/2/97
f 160/2/98 159/2/98 170/2/98 169/2/98
f 159/2/99 158/2/99 171/2/99 170/2/99
f 158/2/100 157/2/100 172/2/100 171/2/100
f 153/2/94 152/2/94 165/2/94 176/2/94
f 176/2/95 165/2/95 166/2/95 175/2/95
f 175/2/75 166/2/75 167/2/75 174/2/75
f 174/2/96 167/2/96 168/2/96 173/2/96
f 148/2/101 168/2/101 161/2/101 147/2/101
f 168/2/102 167/2/102 162/2/102 161/2/102
f 167/2/103 166/2/103 163/2/103 162/2/103
f 166/2/104 165/2/104 164/2/104 163/2/104
f 154/2/91 147/2/91 161/2/91 180/2/91
f 180/2/92 161/2/92 162/2/92 179/2/92
f 179/2/71 162/2/71 163/2/71 178/2/71
f 178/2/93 163/2/93 164/2/93 177/2/93
f 213/2/105 200/2/105 187/2/105 191/2/105
f 201/2/106 188/2/106 187/2/106 200/2/106
f 189/2/107 186/2/107 185/2/107 191/2/107
f 209/2/108 204/2/108 184/2/108 192/2/108
f 192/2/109 184/2/109 183/2/109 190/2/109
f 193/2/110 182/2/110 181/2/110 208/2/110
f 182/2/109 192/2/109 190/2/109 181/2/109
f 193/2/108 209/2/108 192/2/108 182/2/108
f 188/2/107 189/2/107 191/2/107 187/2/107
f 205/2/105 213/2/105 191/2/105 185/2/105
f 181/2/111 190/2/111 216/2/111 208/2/111
f 208/2/112 216/2/112 215/2/112 207/2/112
f 207/2/71 215/2/71 214/2/71 206/2/71
f 206/2/113 214/2/113 213/2/113 205/2/113
f 186/2/114 189/2/114 212/2/114 196/2/114
f 196/2/115 212/2/115 211/2/115 195/2/115
f 195/2/75 211/2/75 210/2/75 194/2/75
f 194/2/116 210/2/116 209/2/116 193/2/116
f 186/2/117 196/2/117 205/2/117 185/2/117
f 196/2/118 195/2/118 206/2/118 205/2/118
f 195/2/119 194/2/119 207/2/119 206/2/119
f 194/2/120 193/2/120 208/2/120 207/2/120
f 189/2/114 188/2/114 201/2/114 212/2/114
f 212/2/115 201/2/115 202/2/115 211/2/115
f 211/2/75 202/2/75 203/2/75 210/2/75
f 210/2/116 203/2/116 204/2/116 209/2/116
f 184/2/121 204/2/121 197/2/121 183/2/121
f 204/2/122 203/2/122 198/2/122 197/2/122
f 203/2/123 202/2/123 199/2/123 198/2/123
f 202/2/124 201/2/124 200/2/124 199/2/124
f 190/2/111 183/2/111 197/2/111 216/2/111
f 216/2/112 197/2/112 198/2/112 215/2/112
f 215/2/71 198/2/71 199/2/71 214/2/71
f 214/2/113 199/2/113 200/2/113 213/2/113
o Cube.002
v -0.008444 0.397086 -0.539745
v -0.008444 0.404006 -0.539745
v 0.008444 0.397086 -0.539745
v 0.008444 0.404006 -0.539745
v -0.008444 0.397086 0.539745
v -0.008444 0.404006 0.539745
v 0.008444 0.397086 0.539745
v 0.008444 0.404006 0.539745
v 0.000000 0.404006 0.539745
v -0.000000 0.397086 -0.539745
v 0.000000 0.397086 0.539745
v -0.000000 0.404006 -0.539745
v -0.135263 0.150160 -0.433199
v -0.190495 0.003460 -0.144400
v -0.190495 0.003460 0.144400
v -0.135263 0.150160 0.433199
v 0.135263 0.143241 -0.433199
v 0.190495 -0.003460 -0.144400
v 0.190495 -0.003460 0.144400
v 0.135263 0.143241 0.433199
v 0.135263 0.150160 0.433199
v 0.190495 0.003460 0.144400
v 0.190495 0.003460 -0.144400
v 0.135263 0.150160 -0.433199
v -0.135263 0.143241 0.433199
v -0.190495 -0.003460 0.144400
v -0.190495 -0.003460 -0.144400
v -0.135263 0.143241 -0.433199
v -0.000000 0.150160 -0.433199
v -0.000000 0.003460 -0.144400
v 0.000000 0.003460 0.144400
v 0.000000 0.150160 0.433199
v 0.000000 0.143241 0.433199
v 0.000000 -0.003460 0.144400
v -0.000000 -0.003460 -0.144400
v -0.000000 0.143241 -0.433199
v -0.471655 0.397086 -0.262560
v -0.471655 0.404006 -0.262560
v -0.463211 0.397086 -0.277185
v -0.463211 0.404006 -0.277185
v 0.463211 0.397086 0.277185
v 0.463211 0.404006 0.277185
v 0.471655 0.397086 0.262560
v 0.471655 0.404006 0.262560
v 0.467433 0.404006 0.269872
v -0.467433 0.397086 -0.269872
v 0.467433 0.397086 0.269872
v -0.467433 0.404006 -0.269872
v -0.442793 0.150160 -0.099459
v -0.220301 0.003460 0.092773
v 0.029807 0.003460 0.237173
v 0.307530 0.150160 0.333741
v -0.307530 0.143241 -0.333741
v -0.029807 -0.003460 -0.237173
v 0.220301 -0.003460 -0.092773
v 0.442793 0.143241 0.099459
v 0.442793 0.150160 0.099459
v 0.220301 0.003460 -0.092773
v -0.029807 0.003460 -0.237173
v -0.307530 0.150160 -0.333741
v 0.307530 0.143241 0.333741
v 0.029807 -0.003460 0.237173
v -0.220301 -0.003460 0.092773
v -0.442793 0.143241 -0.099459
v -0.375162 0.150160 -0.216600
v -0.125054 0.003460 -0.072200
v 0.125054 0.003460 0.072200
v 0.375162 0.150160 0.216600
v 0.375162 0.143241 0.216600
v 0.125054 -0.003460 0.072200
v -0.125054 -0.003460 -0.072200
v -0.375162 0.143241 -0.216600
v -0.463211 0.397086 0.277185
v -0.463211 0.404006 0.277185
v -0.471655 0.397086 0.262560
v -0.471655 0.404006 0.262560
v 0.471655 0.397086 -0.262560
v 0.471655 0.404006 -0.262560
v 0.463211 0.397086 -0.277185
v 0.463211 0.404006 -0.277185
v 0.467433 0.404006 -0.269872
v -0.467433 0.397086 0.269872
v 0.467433 0.397086 -0.269872
v -0.467433 0.404006 0.269872
v -0.307530 0.150160 0.333741
v -0.029807 0.003460 0.237173
v 0.220301 0.003460 0.092773
v 0.442793 0.150160 -0.099459
v -0.442793 0.143241 0.099459
v -0.220301 -0.003460 -0.092773
v 0.029807 -0.003460 -0.237173
v 0.307530 0.143241 -0.333741
v 0.307530 0.150160 -0.333741
v 0.029807 0.003460 -0.237173
v -0.220301 0.003460 -0.092773
v -0.442793 0.150160 0.099459
v 0.442793 0.143241 -0.099459
v 0.220301 -0.003460 0.092773
v -0.029807 -0.003460 0.237173
v -0.307530 0.143241 0.333741
v -0.375162 0.150160 0.216600
v -0.125054 0.003460 0.072200
v 0.125054 0.003460 -0.072200
v 0.375162 0.150160 -0.216600
v 0.375162 0.143241 -0.216600
v 0.125054 -0.003460 -0.072200
v -0.125054 -0.003460 0.072200
v -0.375162 0.143241 0.216600
vn -0.0000 -0.3870 0.9221
vn 0.6433 -0.0000 0.7657
vn -0.0000 -0.0000 1.0000
vn -0.0000 0.3870 0.9221
vn -0.0000 -0.0000 -1.0000
vn -0.6433 -0.0000 -0.7657
vn -0.0000 -0.3870 -0.9221
vn -0.0000 -0.8916 -0.4529
vn -0.0000 -1.0000 -0.0000
vn -0.0000 -0.8916 0.4529
vn -0.0000 0.3870 -0.9221
vn -0.0000 0.8916 -0.4529
vn -0.0000 1.0000 -0.0000
vn -0.0000 0.8916 0.4529
vn -0.6433 -0.0000 0.7657
vn -0.9822 -0.0000 0.1878
vn -1.0000 -0.0000 -0.0000
vn -0.9822 -0.0000 -0.1878
vn 0.6433 -0.0000 -0.7657
vn 0.9822 -0.0000 -0.1878
vn 1.0000 -0.0000 -0.0000
vn 0.9822 -0.0000 0.1878
vn 0.7985 -0.3870 0.4610
vn 0.9847 -0.0000 -0.1742
vn 0.8660 -0.0000 0.5000
vn 0.7985 0.3870 0.4610
vn -0.8660 -0.0000 -0.5000
vn -0.9847 -0.0000 0.1742
vn -0.7985 -0.3870 -0.4610
vn -0.3922 -0.8916 -0.2264
vn 0.3922 -0.8916 0.2264
vn -0.7985 0.3870 -0.4610
vn -0.3922 0.8916 -0.2264
vn 0.3922 0.8916 0.2264
vn 0.3414 -0.0000 0.9399
vn -0.3284 -0.0000 0.9445
vn -0.5000 -0.0000 0.8660
vn -0.6538 -0.0000 0.7567
vn -0.3414 -0.0000 -0.9399
vn 0.3284 -0.0000 -0.9445
vn 0.5000 -0.0000 -0.8660
vn 0.6538 -0.0000 -0.7567
vn 0.7985 -0.3870 -0.4610
vn 0.3414 -0.0000 -0.9399
vn 0.8660 -0.0000 -0.5000
vn 0.7985 0.3870 -0.4610
vn -0.8660 -0.0000 0.5000
vn -0.3414 -0.0000 0.9399
vn -0.7985 -0.3870 0.4610
vn -0.3922 -0.8916 0.2264
vn 0.3922 -0.8916 -0.2264
vn -0.7985 0.3870 0.4610
vn -0.3922 0.8916 0.2264
vn 0.3922 0.8916 -0.2264
vn 0.9847 -0.0000 0.1742
vn 0.6538 -0.0000 0.7567
vn 0.5000 -0.0000 0.8660
vn 0.3284 -0.0000 0.9445
vn -0.9847 -0.0000 -0.1742
vn -0.6538 -0.0000 -0.7567
vn -0.5000 -0.0000 -0.8660
vn -0.3284 -0.0000 -0.9445
vt 0.980469 0.796875
s 0
usemtl Material
f 249/3/125 236/3/125 223/3/125 227/3/125
f 237/3/126 224/3/126 223/3/126 236/3/126
f 225/3/127 222/3/127 221/3/127 227/3/127
f 245/3/128 240/3/128 220/3/128 228/3/128
f 228/3/129 220/3/129 219/3/129 226/3/129
f 229/3/130 218/3/130 217/3/130 244/3/130
f 218/3/129 228/3/129 226/3/129 217/3/129
f 229/3/128 245/3/128 228/3/128 218/3/128
f 224/3/127 225/3/127 227/3/127 223/3/127
f 241/3/125 249/3/125 227/3/125 221/3/125
f 217/3/131 226/3/131 252/3/131 244/3/131
f 244/3/132 252/3/132 251/3/132 243/3/132
f 243/3/133 251/3/133 250/3/133 242/3/133
f 242/3/134 250/3/134 249/3/134 241/3/134
f 222/3/135 225/3/135 248/3/135 232/3/135
f 232/3/136 248/3/136 247/3/136 231/3/136
f 231/3/137 247/3/137 246/3/137 230/3/137
f 230/3/138 246/3/138 245/3/138 229/3/138
f 222/3/139 232/3/139 241/3/139 221/3/139
f 232/3/140 231/3/140 242/3/140 241/3/140
f 231/3/141 230/3/141 243/3/141 242/3/141
f 230/3/142 229/3/142 244/3/142 243/3/142
f 225/3/135 224/3/135 237/3/135 248/3/135
f 248/3/136 237/3/136 238/3/136 247/3/136
f 247/3/137 238/3/137 239/3/137 246/3/137
f 246/3/138 239/3/138 240/3/138 245/3/138
f 220/3/143 240/3/143 233/3/143 219/3/143
f 240/3/144 239/3/144 234/3/144 233/3/144
f 239/3/145 238/3/145 235/3/145 234/3/145
f 238/3/146 237/3/146 236/3/146 235/3/146
f 226/3/131 219/3/131 233/3/131 252/3/131
f 252/3/132 233/3/132 234/3/132 251/3/132
f 251/3/133 234/3/133 235/3/133 250/3/133
f 250/3/134 235/3/134 236/3/134 249/3/134
f 285/3/147 272/3/147 259/3/147 263/3/147
f 273/3/148 260/3/148 259/3/148 272/3/148
f 261/3/149 258/3/149 257/3/149 263/3/149
f 281/3/150 276/3/150 256/3/150 264/3/150
f 264/3/151 256/3/151 255/3/151 262/3/151
f 265/3/152 254/3/152 253/3/152 280/3/152
f 254/3/151 264/3/151 262/3/151 253/3/151
f 265/3/150 281/3/150 264/3/150 254/3/150
f 260/3/149 261/3/149 263/3/149 259/3/149
f 277/3/147 285/3/147 263/3/147 257/3/147
f 253/3/153 262/3/153 288/3/153 280/3/153
f 280/3/154 288/3/154 287/3/154 279/3/154
f 279/3/133 287/3/133 286/3/133 278/3/133
f 278/3/155 286/3/155 285/3/155 277/3/155
f 258/3/156 261/3/156 284/3/156 268/3/156
f 268/3/157 284/3/157 283/3/157 267/3/157
f 267/3/137 283/3/137 282/3/137 266/3/137
f 266/3/158 282/3/158 281/3/158 265/3/158
f 258/3/159 268/3/159 277/3/159 257/3/159
f 268/3/160 267/3/160 278/3/160 277/3/160
f 267/3/161 266/3/161 279/3/161 278/3/161
f 266/3/162 265/3/162 280/3/162 279/3/162
f 261/3/156 260/3/156 273/3/156 284/3/156
f 284/3/157 273/3/157 274/3/157 283/3/157
f 283/3/137 274/3/137 275/3/137 282/3/137
f 282/3/158 275/3/158 276/3/158 281/3/158
f 256/3/163 276/3/163 269/3/163 255/3/163
f 276/3/164 275/3/164 270/3/164 269/3/164
f 275/3/165 274/3/165 271/3/165 270/3/165
f 274/3/166 273/3/166 272/3/166 271/3/166
f 262/3/153 255/3/153 269/3/153 288/3/153
f 288/3/154 269/3/154 270/3/154 287/3/154
f 287/3/133 270/3/133 271/3/133 286/3/133
f 286/3/155 271/3/155 272/3/155 285/3/155
f 321/3/167 308/3/167 295/3/167 299/3/167
f 309/3/168 296/3/168 295/3/168 308/3/168
f 297/3/169 294/3/169 293/3/169 299/3/169
f 317/3/170 312/3/170 292/3/170 300/3/170
f 300/3/171 292/3/171 291/3/171 298/3/171
f 301/3/172 290/3/172 289/3/172 316/3/172
f 290/3/171 300/3/171 298/3/171 289/3/171
f 301/3/170 317/3/170 300/3/170 290/3/170
f 296/3/169 297/3/169 299/3/169 295/3/169
f 313/3/167 321/3/167 299/3/167 293/3/167
f 289/3/173 298/3/173 324/3/173 316/3/173
f 316/3/174 324/3/174 323/3/174 315/3/174
f 315/3/133 323/3/133 322/3/133 314/3/133
f 314/3/175 322/3/175 321/3/175 313/3/175
f 294/3/176 297/3/176 320/3/176 304/3/176
f 304/3/177 320/3/177 319/3/177 303/3/177
f 303/3/137 319/3/137 318/3/137 302/3/137
f 302/3/178 318/3/178 317/3/178 301/3/178
f 294/3/179 304/3/179 313/3/179 293/3/179
f 304/3/180 303/3/180 314/3/180 313/3/180
f 303/3/181 302/3/181 315/3/181 314/3/181
f 302/3/182 301/3/182 316/3/182 315/3/182
f 297/3/176 296/3/176 309/3/176 320/3/176
f 320/3/177 309/3/177 310/3/177 319/3/177
f 319/3/137 310/3/137 311/3/137 318/3/137
f 318/3/178 311/3/178 312/3/178 317/3/178
f 292/3/183 312/3/183 305/3/183 291/3/183
f 312/3/184 311/3/184 306/3/184 305/3/184
f 311/3/185 310/3/185 307/3/185 306/3/185
f 310/3/186 309/3/186 308/3/186 307/3/186
f 298/3/173 291/3/173 305/3/173 324/3/173
f 324/3/174 305/3/174 306/3/174 323/3/174
f 323/3/133 306/3/133 307/3/133 322/3/133
f 322/3/175 307/3/175 308/3/175 321/3/175
o Cylinder
v 0.000000 0.004158 -0.122652
v 0.000000 0.018525 -0.122652
v 0.106220 0.004158 -0.061326
v 0.106220 0.018525 -0.061326
v 0.106220 0.004158 0.061326
v 0.106220 0.018525 0.061326
v 0.000000 0.004158 0.122652
v 0.000000 0.018525 0.122652
v -0.106220 0.004158 0.061326
v -0.106220 0.018525 0.061326
v -0.106220 0.004158 -0.061326
v -0.106220 0.018525 -0.061326
vn 0.5000 -0.0000 -0.8660
vn 1.0000 -0.0000 -0.0000
vn 0.5000 -0.0000 0.8660
vn -0.5000 -0.0000 0.8660
vn -0.0000 1.0000 -0.0000
vn -1.0000 -0.0000 -0.0000
vn -0.5000 -0.0000 -0.8660
vn -0.0000 -1.0000 -0.0000
vt 0.142578 0.797969
s 0
f 325/4/187 326/4/187 328/4/187 327/4/187
f 327/4/188 328/4/188 330/4/188 329/4/188
f 329/4/189 330/4/189 332/4/189 331/4/189
f 331/4/190 332/4/190 334/4/190 333/4/190
f 328/4/191 326/4/191 336/4/191 334/4/191 332/4/191 330/4/191
f 333/4/192 334/4/192 336/4/192 335/4/192
f 335/4/193 336/4/193 326/4/193 325/4/193
f 325/4/194 327/4/194 329/4/194 331/4/194 333/4/194 335/4/194
o Cylinder.001
v -0.000505 0.018274 0.065510
v -0.000505 0.239257 0.074914
v 0.002741 0.018194 0.067381
v 0.002741 0.239177 0.076785
v 0.002741 0.018035 0.071124
v 0.002741 0.239018 0.080528
v -0.000505 0.017955 0.072995
v -0.000505 0.238938 0.082399
v -0.003752 0.018035 0.071124
v -0.003752 0.239018 0.080528
v -0.003752 0.018194 0.067381
v -0.003752 0.239177 0.076785
v -0.000505 0.233784 0.068113
v -0.000505 0.240948 0.068418
v 0.008429 0.233565 0.073263
v 0.008429 0.240729 0.073567
v 0.008429 0.233127 0.083561
v 0.008429 0.240290 0.083866
v -0.000505 0.232908 0.088711
v -0.000505 0.240071 0.089016
v -0.009439 0.233127 0.083561
v -0.009439 0.240290 0.083866
v -0.009439 0.233565 0.073263
v -0.009439 0.240729 0.073567
v -0.011010 0.007142 0.026982
v -0.011010 0.146748 0.003421
v -0.007763 0.007450 0.028809
v -0.007763 0.147056 0.005248
v -0.007763 0.008066 0.032462
v -0.007763 0.147672 0.008901
v -0.011010 0.008375 0.034289
v -0.011010 0.147981 0.010728
v -0.014257 0.008066 0.032462
v -0.014257 0.147672 0.008901
v -0.014257 0.007450 0.028809
v -0.014257 0.147056 0.005248
v -0.011010 0.142034 -0.002366
v -0.011010 0.146559 -0.003129
v -0.002076 0.142882 0.002661
v -0.002076 0.147408 0.001897
v -0.002076 0.144579 0.012714
v -0.002076 0.149104 0.011951
v -0.011010 0.145427 0.017741
v -0.011010 0.149953 0.016977
v -0.019944 0.144579 0.012714
v -0.019944 0.149104 0.011951
v -0.019944 0.142882 0.002661
v -0.019944 0.147408 0.001897
v 0.033276 0.009680 0.031537
v 0.054306 0.188742 0.031537
v 0.037496 0.009184 0.034004
v 0.058526 0.188247 0.034004
v 0.037496 0.009184 0.038940
v 0.058526 0.188247 0.038940
v 0.033276 0.009680 0.041407
v 0.054306 0.188742 0.041407
v 0.029055 0.010175 0.038940
v 0.050085 0.189238 0.038940
v 0.029055 0.010175 0.034004
v 0.050085 0.189238 0.034004
v 0.053758 0.184082 0.022891
v 0.054440 0.189886 0.022891
v 0.065372 0.182718 0.029682
v 0.066054 0.188522 0.029682
v 0.065372 0.182718 0.043262
v 0.066054 0.188522 0.043262
v 0.053758 0.184082 0.050052
v 0.054440 0.189886 0.050052
v 0.042144 0.185446 0.043262
v 0.042826 0.191250 0.043262
v 0.042144 0.185446 0.029682
v 0.042826 0.191250 0.029682
v 0.058888 0.018274 0.006222
v 0.064408 0.239257 0.013836
v 0.062615 0.018194 0.005831
v 0.068135 0.239177 0.013445
v 0.064812 0.018035 0.008861
v 0.070332 0.239018 0.016476
v 0.063282 0.017955 0.012282
v 0.068801 0.238939 0.019896
v 0.059555 0.018035 0.012673
v 0.065075 0.239018 0.020287
v 0.057358 0.018194 0.009642
v 0.062878 0.239177 0.017256
v 0.060416 0.233784 0.008330
v 0.060595 0.240948 0.008576
v 0.070672 0.233565 0.007255
v 0.070851 0.240729 0.007502
v 0.076717 0.233127 0.015593
v 0.076896 0.240290 0.015840
v 0.072506 0.232908 0.025006
v 0.072685 0.240071 0.025253
v 0.062250 0.233127 0.026081
v 0.062429 0.240290 0.026327
v 0.056206 0.233565 0.017742
v 0.056384 0.240729 0.017989
v 0.027770 0.007142 -0.018806
v 0.013941 0.146748 -0.037882
v 0.031471 0.007450 -0.019233
v 0.017642 0.147056 -0.038308
v 0.033615 0.008066 -0.016275
v 0.019786 0.147672 -0.035350
v 0.032059 0.008375 -0.012890
v 0.018230 0.147981 -0.031966
v 0.028358 0.008066 -0.012464
v 0.014529 0.147672 -0.031539
v 0.026214 0.007450 -0.015422
v 0.012385 0.147056 -0.034497
v 0.010545 0.142034 -0.042567
v 0.010097 0.146559 -0.043185
v 0.020728 0.142882 -0.043741
v 0.020280 0.147408 -0.044359
v 0.026629 0.144579 -0.035601
v 0.026181 0.149104 -0.036220
v 0.022346 0.145427 -0.026288
v 0.021898 0.149953 -0.026906
v 0.012163 0.144579 -0.025114
v 0.011714 0.149104 -0.025732
v 0.006262 0.142882 -0.033253
v 0.005814 0.147408 -0.033872
v 0.066299 0.009680 -0.041111
v 0.083325 0.188742 -0.053454
v 0.071164 0.009184 -0.041591
v 0.088190 0.188247 -0.053934
v 0.074061 0.009184 -0.037595
v 0.091087 0.188247 -0.049938
v 0.072092 0.009679 -0.033120
v 0.089118 0.188742 -0.045463
v 0.067227 0.010175 -0.032641
v 0.084253 0.189238 -0.044984
v 0.064330 0.010175 -0.036636
v 0.081356 0.189238 -0.048979
v 0.077808 0.184082 -0.060133
v 0.078360 0.189886 -0.060533
v 0.091196 0.182718 -0.061452
v 0.091748 0.188522 -0.061852
v 0.099167 0.182718 -0.050457
v 0.099719 0.188522 -0.050857
v 0.093749 0.184082 -0.038142
v 0.094301 0.189886 -0.038542
v 0.080361 0.185446 -0.036823
v 0.080913 0.191250 -0.037223
v 0.072390 0.185446 -0.047818
v 0.072942 0.191250 -0.048219
v -0.010445 0.018274 -0.067087
v -0.004336 0.239257 -0.074236
v -0.011698 0.018194 -0.070618
v -0.005589 0.239177 -0.077768
v -0.009267 0.018035 -0.073464
v -0.003158 0.239018 -0.080614
v -0.005583 0.017955 -0.072777
v 0.000526 0.238939 -0.079927
v -0.004330 0.018035 -0.069246
v 0.001779 0.239018 -0.076396
v -0.006761 0.018194 -0.066400
v -0.000652 0.239177 -0.073550
v -0.008754 0.233784 -0.069066
v -0.008556 0.240948 -0.069298
v -0.012201 0.233565 -0.078784
v -0.012003 0.240729 -0.079016
v -0.005511 0.233127 -0.086614
v -0.005313 0.240290 -0.086846
v 0.004626 0.232908 -0.084726
v 0.004824 0.240071 -0.084958
v 0.008073 0.233127 -0.075007
v 0.008271 0.240290 -0.075239
v 0.001383 0.233565 -0.067177
v 0.001581 0.240729 -0.067409
v -0.027486 0.007142 -0.030971
v -0.042791 0.146748 -0.013058
v -0.028768 0.007450 -0.034468
v -0.044073 0.147056 -0.016556
v -0.026395 0.008066 -0.037246
v -0.041700 0.147672 -0.019333
v -0.022740 0.008375 -0.036526
v -0.038045 0.147981 -0.018613
v -0.021458 0.008066 -0.033028
v -0.036763 0.147672 -0.015115
v -0.023831 0.007450 -0.030250
v -0.039136 0.147056 -0.012338
v -0.046550 0.142034 -0.008658
v -0.047046 0.146559 -0.008078
v -0.050077 0.142882 -0.018283
v -0.050573 0.147408 -0.017703
v -0.043547 0.144579 -0.025927
v -0.044043 0.149104 -0.025346
v -0.033489 0.145427 -0.023945
v -0.033985 0.149953 -0.023364
v -0.029962 0.144579 -0.014320
v -0.030458 0.149104 -0.013739
v -0.036492 0.142882 -0.006677
v -0.036989 0.147408 -0.006096
v -0.058197 0.009680 -0.063201
v -0.074186 0.188742 -0.076862
v -0.059803 0.009184 -0.067819
v -0.075792 0.188247 -0.081480
v -0.056597 0.009184 -0.071571
v -0.072586 0.188247 -0.085232
v -0.051785 0.009680 -0.070706
v -0.067774 0.188742 -0.084366
v -0.050180 0.010175 -0.066088
v -0.066168 0.189238 -0.079749
v -0.053385 0.010175 -0.062336
v -0.069374 0.189238 -0.075997
v -0.079386 0.184082 -0.069934
v -0.079904 0.189886 -0.070376
v -0.083805 0.182718 -0.082640
v -0.084323 0.188522 -0.083083
v -0.074983 0.182718 -0.092966
v -0.075501 0.188522 -0.093408
v -0.061742 0.184082 -0.090584
v -0.062260 0.189886 -0.091027
v -0.057323 0.185446 -0.077877
v -0.057841 0.191250 -0.078320
v -0.066145 0.185446 -0.067552
v -0.066663 0.191250 -0.067995
v -0.066557 0.009680 0.033142
v -0.045527 0.188742 0.033142
v -0.062336 0.009184 0.035609
v -0.041307 0.188247 0.035609
v -0.062336 0.009184 0.040545
v -0.041307 0.188247 0.040545
v -0.066557 0.009680 0.043012
v -0.045527 0.188742 0.043012
v -0.070777 0.010175 0.040545
v -0.049748 0.189238 0.040545
v -0.070777 0.010175 0.035609
v -0.049748 0.189238 0.035609
v -0.046075 0.184082 0.024496
v -0.045393 0.189886 0.024496
v -0.034461 0.182718 0.031287
v -0.033779 0.188522 0.031287
v -0.034461 0.182718 0.044867
v -0.033779 0.188522 0.044867
v -0.046075 0.184082 0.051657
v -0.045393 0.189886 0.051657
v -0.057688 0.185446 0.044867
v -0.057007 0.191250 0.044867
v -0.057688 0.185446 0.031287
v -0.057007 0.191250 0.031287
vn 0.4997 0.0368 -0.8654
vn 1.0000 -0.0000 -0.0000
vn 0.4997 -0.0368 0.8654
vn -0.4997 -0.0368 0.8654
vn -0.0000 0.9991 0.0425
vn -1.0000 -0.0000 -0.0000
vn -0.4997 0.0368 -0.8654
vn -0.0000 -0.9991 -0.0425
vn 0.4956 -0.1445 -0.8564
vn 0.4956 0.1445 0.8564
vn -0.4956 0.1445 0.8564
vn -0.0000 0.9861 -0.1664
vn -0.4956 -0.1445 -0.8564
vn -0.0000 -0.9861 0.1664
vn 0.4987 -0.0586 -0.8648
vn 0.9932 -0.1166 -0.0000
vn 0.4987 -0.0586 0.8648
vn -0.4987 0.0586 0.8648
vn 0.1166 0.9932 -0.0000
vn -0.9932 0.1166 -0.0000
vn -0.4987 0.0586 -0.8648
vn -0.1166 -0.9932 -0.0000
vn -0.1034 0.0368 -0.9940
vn 0.8096 -0.0000 -0.5869
vn 0.9125 -0.0368 0.4074
vn 0.1034 -0.0368 0.9940
vn 0.0250 0.9991 0.0344
vn -0.8096 -0.0000 0.5869
vn -0.9125 0.0368 -0.4074
vn -0.0250 -0.9991 -0.0344
vn -0.1014 -0.1445 -0.9843
vn 0.9039 0.1445 0.4025
vn 0.1014 0.1445 0.9843
vn -0.0977 0.9861 -0.1347
vn -0.9039 -0.1445 -0.4025
vn 0.0977 -0.9861 0.1347
vn -0.1038 -0.0586 -0.9929
vn 0.8041 -0.1166 -0.5829
vn 0.9114 -0.0586 0.4074
vn 0.1038 0.0586 0.9929
vn 0.0944 0.9932 -0.0685
vn -0.8041 0.1166 0.5829
vn -0.9114 0.0586 -0.4074
vn -0.0944 -0.9932 0.0685
vn -0.9421 0.0368 0.3333
vn -0.7603 -0.0000 -0.6496
vn 0.1822 -0.0368 -0.9826
vn 0.9421 -0.0368 -0.3333
vn 0.0276 0.9991 -0.0323
vn 0.7603 -0.0000 0.6496
vn -0.1822 0.0368 0.9826
vn -0.0276 -0.9991 0.0323
vn -0.9331 -0.1445 0.3292
vn 0.1795 0.1445 -0.9731
vn 0.9331 0.1445 -0.3292
vn -0.1081 0.9861 0.1265
vn -0.1795 -0.1445 0.9731
vn 0.1081 -0.9861 -0.1265
vn -0.9409 -0.0586 0.3335
vn -0.7551 -0.1166 -0.6452
vn 0.1826 -0.0586 -0.9814
vn 0.9409 0.0586 -0.3335
vn -0.0887 0.9932 -0.0758
vn 0.7551 0.1166 0.6452
vn -0.1826 0.0586 0.9814
vn 0.0887 -0.9932 0.0758
vt 0.143186 0.799216
vt 0.204706 0.801215
s 0
f 337/5/195 338/5/195 340/5/195 339/5/195
f 339/5/196 340/5/196 342/5/196 341/5/196
f 341/5/197 342/5/197 344/5/197 343/5/197
f 343/5/198 344/5/198 346/5/198 345/5/198
f 340/6/199 338/6/199 348/6/199 346/6/199 344/6/199 342/6/199
f 345/5/200 346/5/200 348/5/200 347/5/200
f 347/5/201 348/5/201 338/5/201 337/5/201
f 337/6/202 339/6/202 341/6/202 343/6/202 345/6/202 347/6/202
f 349/5/195 350/5/195 352/5/195 351/5/195
f 351/5/196 352/5/196 354/5/196 353/5/196
f 353/5/197 354/5/197 356/5/197 355/5/197
f 355/5/198 356/5/198 358/5/198 357/5/198
f 352/6/199 350/6/199 360/6/199 358/6/199 356/6/199 354/6/199
f 357/5/200 358/5/200 360/5/200 359/5/200
f 359/5/201 360/5/201 350/5/201 349/5/201
f 349/6/202 351/6/202 353/6/202 355/6/202 357/6/202 359/6/202
f 361/5/203 362/5/203 364/5/203 363/5/203
f 363/5/196 364/5/196 366/5/196 365/5/196
f 365/5/204 366/5/204 368/5/204 367/5/204
f 367/5/205 368/5/205 370/5/205 369/5/205
f 364/6/206 362/6/206 372/6/206 370/6/206 368/6/206 366/6/206
f 369/5/200 370/5/200 372/5/200 371/5/200
f 371/5/207 372/5/207 362/5/207 361/5/207
f 361/6/208 363/6/208 365/6/208 367/6/208 369/6/208 371/6/208
f 373/5/203 374/5/203 376/5/203 375/5/203
f 375/5/196 376/5/196 378/5/196 377/5/196
f 377/5/204 378/5/204 380/5/204 379/5/204
f 379/5/205 380/5/205 382/5/205 381/5/205
f 376/6/206 374/6/206 384/6/206 382/6/206 380/6/206 378/6/206
f 381/5/200 382/5/200 384/5/200 383/5/200
f 383/5/207 384/5/207 374/5/207 373/5/207
f 373/6/208 375/6/208 377/6/208 379/6/208 381/6/208 383/6/208
f 385/5/209 386/5/209 388/5/209 387/5/209
f 387/5/210 388/5/210 390/5/210 389/5/210
f 389/5/211 390/5/211 392/5/211 391/5/211
f 391/5/212 392/5/212 394/5/212 393/5/212
f 388/6/213 386/6/213 396/6/213 394/6/213 392/6/213 390/6/213
f 393/5/214 394/5/214 396/5/214 395/5/214
f 395/5/215 396/5/215 386/5/215 385/5/215
f 385/6/216 387/6/216 389/6/216 391/6/216 393/6/216 395/6/216
f 397/5/209 398/5/209 400/5/209 399/5/209
f 399/5/210 400/5/210 402/5/210 401/5/210
f 401/5/211 402/5/211 404/5/211 403/5/211
f 403/5/212 404/5/212 406/5/212 405/5/212
f 400/6/213 398/6/213 408/6/213 406/6/213 404/6/213 402/6/213
f 405/5/214 406/5/214 408/5/214 407/5/214
f 407/5/215 408/5/215 398/5/215 397/5/215
f 397/6/216 399/6/216 401/6/216 403/6/216 405/6/216 407/6/216
f 409/5/217 410/5/217 412/5/217 411/5/217
f 411/5/218 412/5/218 414/5/218 413/5/218
f 413/5/219 414/5/219 416/5/219 415/5/219
f 415/5/220 416/5/220 418/5/220 417/5/220
f 412/6/221 410/6/221 420/6/221 418/6/221 416/6/221 414/6/221
f 417/5/222 418/5/222 420/5/222 419/5/222
f 419/5/223 420/5/223 410/5/223 409/5/223
f 409/6/224 411/6/224 413/6/224 415/6/224 417/6/224 419/6/224
f 421/5/217 422/5/217 424/5/217 423/5/217
f 423/5/218 424/5/218 426/5/218 425/5/218
f 425/5/219 426/5/219 428/5/219 427/5/219
f 427/5/220 428/5/220 430/5/220 429/5/220
f 424/6/221 422/6/221 432/6/221 430/6/221 428/6/221 426/6/221
f 429/5/222 430/5/222 432/5/222 431/5/222
f 431/5/223 432/5/223 422/5/223 421/5/223
f 421/6/224 423/6/224 425/6/224 427/6/224 429/6/224 431/6/224
f 433/5/225 434/5/225 436/5/225 435/5/225
f 435/5/218 436/5/218 438/5/218 437/5/218
f 437/5/226 438/5/226 440/5/226 439/5/226
f 439/5/227 440/5/227 442/5/227 441/5/227
f 436/6/228 434/6/228 444/6/228 442/6/228 440/6/228 438/6/228
f 441/5/222 442/5/222 444/5/222 443/5/222
f 443/5/229 444/5/229 434/5/229 433/5/229
f 433/6/230 435/6/230 437/6/230 439/6/230 441/6/230 443/6/230
f 445/5/225 446/5/225 448/5/225 447/5/225
f 447/5/218 448/5/218 450/5/218 449/5/218
f 449/5/226 450/5/226 452/5/226 451/5/226
f 451/5/227 452/5/227 454/5/227 453/5/227
f 448/6/228 446/6/228 456/6/228 454/6/228 452/6/228 450/6/228
f 453/5/222 454/5/222 456/5/222 455/5/222
f 455/5/229 456/5/229 446/5/229 445/5/229
f 445/6/230 447/6/230 449/6/230 451/6/230 453/6/230 455/6/230
f 457/5/231 458/5/231 460/5/231 459/5/231
f 459/5/232 460/5/232 462/5/232 461/5/232
f 461/5/233 462/5/233 464/5/233 463/5/233
f 463/5/234 464/5/234 466/5/234 465/5/234
f 460/6/235 458/6/235 468/6/235 466/6/235 464/6/235 462/6/235
f 465/5/236 466/5/236 468/5/236 467/5/236
f 467/5/237 468/5/237 458/5/237 457/5/237
f 457/6/238 459/6/238 461/6/238 463/6/238 465/6/238 467/6/238
f 469/5/231 470/5/231 472/5/231 471/5/231
f 471/5/232 472/5/232 474/5/232 473/5/232
f 473/5/233 474/5/233 476/5/233 475/5/233
f 475/5/234 476/5/234 478/5/234 477/5/234
f 472/6/235 470/6/235 480/6/235 478/6/235 476/6/235 474/6/235
f 477/5/236 478/5/236 480/5/236 479/5/236
f 479/5/237 480/5/237 470/5/237 469/5/237
f 469/6/238 471/6/238 473/6/238 475/6/238 477/6/238 479/6/238
f 481/5/239 482/5/239 484/5/239 483/5/239
f 483/5/240 484/5/240 486/5/240 485/5/240
f 485/5/241 486/5/241 488/5/241 487/5/241
f 487/5/242 488/5/242 490/5/242 489/5/242
f 484/6/243 482/6/243 492/6/243 490/6/243 488/6/243 486/6/243
f 489/5/244 490/5/244 492/5/244 491/5/244
f 491/5/245 492/5/245 482/5/245 481/5/245
f 481/6/246 483/6/246 485/6/246 487/6/246 489/6/246 491/6/246
f 493/5/239 494/5/239 496/5/239 495/5/239
f 495/5/240 496/5/240 498/5/240 497/5/240
f 497/5/241 498/5/241 500/5/241 499/5/241
f 499/5/242 500/5/242 502/5/242 501/5/242
f 496/6/243 494/6/243 504/6/243 502/6/243 500/6/243 498/6/243
f 501/5/244 502/5/244 504/5/244 503/5/244
f 503/5/245 504/5/245 494/5/245 493/5/245
f 493/6/246 495/6/246 497/6/246 499/6/246 501/6/246 503/6/246
f 505/5/247 506/5/247 508/5/247 507/5/247
f 507/5/240 508/5/240 510/5/240 509/5/240
f 509/5/248 510/5/248 512/5/248 511/5/248
f 511/5/249 512/5/249 514/5/249 513/5/249
f 508/6/250 506/6/250 516/6/250 514/6/250 512/6/250 510/6/250
f 513/5/244 514/5/244 516/5/244 515/5/244
f 515/5/251 516/5/251 506/5/251 505/5/251
f 505/6/252 507/6/252 509/6/252 511/6/252 513/6/252 515/6/252
f 517/5/247 518/5/247 520/5/247 519/5/247
f 519/5/240 520/5/240 522/5/240 521/5/240
f 521/5/248 522/5/248 524/5/248 523/5/248
f 523/5/249 524/5/249 526/5/249 525/5/249
f 520/6/250 518/6/250 528/6/250 526/6/250 524/6/250 522/6/250
f 525/5/244 526/5/244 528/5/244 527/5/244
f 527/5/251 528/5/251 518/5/251 517/5/251
f 517/6/252 519/6/252 521/6/252 523/6/252 525/6/252 527/6/252
f 529/5/253 530/5/253 532/5/253 531/5/253
f 531/5/254 532/5/254 534/5/254 533/5/254
f 533/5/255 534/5/255 536/5/255 535/5/255
f 535/5/256 536/5/256 538/5/256 537/5/256
f 532/6/257 530/6/257 540/6/257 538/6/257 536/6/257 534/6/257
f 537/5/258 538/5/258 540/5/258 539/5/258
f 539/5/259 540/5/259 530/5/259 529/5/259
f 529/6/260 531/6/260 533/6/260 535/6/260 537/6/260 539/6/260
f 541/5/253 542/5/253 544/5/253 543/5/253
f 543/5/254 544/5/254 546/5/254 545/5/254
f 545/5/255 546/5/255 548/5/255 547/5/255
f 547/5/256 548/5/256 550/5/256 549/5/256
f 544/6/257 542/6/257 552/6/257 550/6/257 548/6/257 546/6/257
f 549/5/258 550/5/258 552/5/258 551/5/258
f 551/5/259 552/5/259 542/5/259 541/5/259
f 541/6/260 543/6/260 545/6/260 547/6/260 549/6/260 551/6/260
f 553/5/209 554/5/209 556/5/209 555/5/209
f 555/5/210 556/5/210 558/5/210 557/5/210
f 557/5/211 558/5/211 560/5/211 559/5/211
f 559/5/212 560/5/212 562/5/212 561/5/212
f 556/6/213 554/6/213 564/6/213 562/6/213 560/6/213 558/6/213
f 561/5/214 562/5/214 564/5/214 563/5/214
f 563/5/215 564/5/215 554/5/215 553/5/215
f 553/6/216 555/6/216 557/6/216 559/6/216 561/6/216 563/6/216
f 565/5/209 566/5/209 568/5/209 567/5/209
f 567/5/210 568/5/210 570/5/210 569/5/210
f 569/5/211 570/5/211 572/5/211 571/5/211
f 571/5/212 572/5/212 574/5/212 573/5/212
f 568/6/213 566/6/213 576/6/213 574/6/213 572/6/213 570/6/213
f 573/5/214 574/5/214 576/5/214 575/5/214
f 575/5/215 576/5/215 566/5/215 565/5/215
f 565/6/216 567/6/216 569/6/216 571/6/216 573/6/216 575/6/216
