g Object045
v 2.57069 -2.478119 -1.231847
v -2.674387 2.780655 -1.231847
v -2.897025 2.558014 -1.003091
v 2.348053 -2.700752 -1.003091
v -2.811985 2.643051 -0.632956
v 2.433092 -2.615707 -0.632956
v -2.536791 2.918243 -0.632956
v 2.708284 -2.340515 -0.632956
v -2.45175 3.003288 -1.003091
v 2.793325 -2.255478 -1.003091
v 2.830936 -2.728004 -0.1487569
v -2.674387 2.780663 -0.1487566
v -2.897025 2.558022 0.07999885
v 2.608299 -2.950638 0.07999885
v -2.811985 2.643059 0.4501336
v 2.693338 -2.865593 0.4501336
v -2.536791 2.918251 0.4501336
v 2.968531 -2.590401 0.4501336
v -2.45175 3.003296 0.07999909
v 3.053572 -2.505363 0.07999909
v 3.065804 -2.436949 -1.520977
v 3.065804 -2.436949 0.8656986
v 2.596419 -2.362601 0.8656986
v 2.596419 -2.362601 -1.520977
v 2.380666 -2.786046 0.8656986
v 2.380666 -2.786046 -1.520977
v 3.140146 -2.906337 -1.520977
v 3.140146 -2.906337 0.8656986
v 2.716708 -3.122089 -1.520977
v 2.716708 -3.122089 0.8656986
v 2.380666 -2.786046 -1.520977
v 2.380666 -2.786046 0.8656986
v 3.065804 -2.436949 0.8656986
v 3.140146 -2.906337 0.8656986
v 2.716708 -3.122089 0.8656986
v 2.596419 -2.362601 0.8656986
v 2.380666 -2.786046 0.8656986
v -2.450212 3.052553 -1.520977
v -2.450212 3.052553 0.8656986
v -2.919597 3.126894 0.8656986
v -2.919597 3.126894 -1.520977
v -3.135348 2.703456 0.8656986
v -3.135348 2.703456 -1.520977
v -2.799306 2.367413 0.8656986
v -2.799306 2.367413 -1.520977
v -2.375869 2.583165 0.8656986
v -2.375869 2.583165 -1.520977
v -2.450212 3.052553 0.8656986
v -2.375869 2.583165 0.8656986
v -2.799306 2.367413 0.8656986
v -2.919597 3.126894 0.8656986
v -3.135348 2.703456 0.8656986
vt 3.473993 0.03510486
vt 0.01085556 0.03510486
vt 0.01085732 0.03510486
vt 3.473989 0.03510486
vt 0.01086063 0.03510486
vt 3.473986 0.03510486
vt 0.01085909 0.03510486
vt 3.473989 0.03510486
vt 0.01085909 0.03510486
vt 3.473989 0.03510486
vt 3.642182 0.03510486
vt 0.01085556 0.03510486
vt 0.01085556 0.03510486
vt 3.642182 0.03510486
vt 0.01085732 0.03510486
vt 3.642179 0.03510486
vt 0.01085556 0.03510486
vt 3.642179 0.03510486
vt 0.01085909 0.03510486
vt 3.642182 0.03510486
vt 1.542544 0.04400124
vt 0.02882484 0.04400124
vt -0.01408487 0.04400124
vt 1.615207 0.04400124
vt 0.008106223 0.04400124
vt 1.54268 0.04400124
vt 1.567742 0.04400124
vt 0.01664599 0.04400124
vt 1.569732 0.04400124
vt 0.01138562 0.04400124
vt 1.569822 0.04400124
vt 0.01145603 0.04400124
vt 0.004724203 0.04400124
vt 0.01157877 0.04400124
vt 0.0117213 0.04400124
vt -0.01408487 0.04400124
vt 0.008507194 0.04400124
vt 1.56696 0.04400124
vt 0.005675042 0.04400124
vt 0.0103866 0.04400124
vt 1.576519 0.04400124
vt 0.01166236 0.04400124
vt 1.570576 0.04400124
vt 0.01145514 0.04400124
vt 1.569821 0.04400124
vt 0.01143023 0.04400124
vt 1.569809 0.04400124
vt 0.01379245 0.04400124
vt 0.01125016 0.04400124
vt 0.01145804 0.04400124
vt 0.0103866 0.04400124
vt 0.0114582 0.04400124
vn -0.0003457956 -0.0003449279 -0.9999999
vn 0.0003455608 0.0003445993 -0.9999999
vn -0.6733409 -0.6715883 -0.3091622
vn -0.6734064 -0.6716537 -0.3088771
vn -0.4159428 -0.4148604 0.8092481
vn -0.4163948 -0.4153113 0.8087842
vn 0.4163931 0.4153093 0.8087862
vn 0.4159418 0.4148593 0.8092492
vn 0.6734071 0.6716541 -0.3088747
vn 0.673341 0.6715882 -0.309162
vn -8.02283E-05 -8.020485E-05 -1
vn 8.088483E-05 8.079103E-05 -1
vn -0.6726939 -0.6722867 -0.3090527
vn -0.6727088 -0.6723016 -0.3089878
vn -0.4157008 -0.4154494 0.8090703
vn -0.4158058 -0.4155543 0.8089623
vn 0.4158039 0.4155522 0.8089645
vn 0.4156998 0.4154481 0.8090715
vn 0.6727097 0.6723022 -0.3089844
vn 0.6726943 0.6722867 -0.3090518
vn 0.7071108 0.7071027 0
vn 0.7071108 0.7071027 0
vn -0.4539897 0.8910069 0
vn -0.4539897 0.8910069 0
vn -0.9876879 -0.1564367 0
vn -0.9876879 -0.1564367 0
vn 0.8910058 -0.4539919 0
vn 0.8910058 -0.4539919 0
vn -0.1564361 -0.9876881 0
vn -0.1564361 -0.9876881 0
vn -0.9876879 -0.1564367 0
vn -0.9876879 -0.1564367 0
vn 0 0 1
vn 0 0 1
vn 0 0 1
vn 0 0 1
vn 0 0 1
vn 0.7071056 0.707108 0
vn 0.7071056 0.707108 0
vn -0.4539936 0.891005 0
vn -0.4539936 0.891005 0
vn -0.9876882 -0.1564351 0
vn -0.9876882 -0.1564351 0
vn -0.1564351 -0.9876882 0
vn -0.1564351 -0.9876882 0
vn 0.8910064 -0.4539908 0
vn 0.8910064 -0.4539908 0
vn 0 0 1
vn 0 0 1
vn 0 0 1
vn 0 0 1
vn 0 0 1
g Object045_0
f 3/3/3 2/2/2 1/1/1
f 4/4/4 3/3/3 1/1/1
f 5/5/5 3/3/3 4/4/4
f 6/6/6 5/5/5 4/4/4
f 7/7/7 5/5/5 6/6/6
f 8/8/8 7/7/7 6/6/6
f 9/9/9 7/7/7 8/8/8
f 10/10/10 9/9/9 8/8/8
f 2/2/2 9/9/9 10/10/10
f 1/1/1 2/2/2 10/10/10
f 13/13/13 12/12/12 11/11/11
f 14/14/14 13/13/13 11/11/11
f 15/15/15 13/13/13 14/14/14
f 16/16/16 15/15/15 14/14/14
f 17/17/17 15/15/15 16/16/16
f 18/18/18 17/17/17 16/16/16
f 19/19/19 17/17/17 18/18/18
f 20/20/20 19/19/19 18/18/18
f 12/12/12 19/19/19 20/20/20
f 11/11/11 12/12/12 20/20/20
f 23/23/23 22/22/22 21/21/21
f 24/24/24 23/23/23 21/21/21
f 25/25/25 23/23/23 24/24/24
f 26/26/26 25/25/25 24/24/24
f 21/21/21 22/22/22 27/27/27
f 22/22/22 28/28/28 27/27/27
f 27/27/27 28/28/28 29/29/29
f 28/28/28 30/30/30 29/29/29
f 29/29/29 30/30/30 31/31/31
f 30/30/30 32/32/32 31/31/31
f 35/35/35 34/34/34 33/33/33
f 33/33/33 36/36/36 35/35/35
f 36/36/36 37/37/37 35/35/35
f 40/40/40 39/39/39 38/38/38
f 41/41/41 40/40/40 38/38/38
f 42/42/42 40/40/40 41/41/41
f 43/43/43 42/42/42 41/41/41
f 44/44/44 42/42/42 43/43/43
f 45/45/45 44/44/44 43/43/43
f 46/46/46 44/44/44 45/45/45
f 47/47/47 46/46/46 45/45/45
f 39/39/39 46/46/46 47/47/47
f 38/38/38 39/39/39 47/47/47
f 50/50/50 49/49/49 48/48/48
f 48/48/48 51/51/51 50/50/50
f 51/51/51 52/52/52 50/50/50
