g Object047
v -2.286798 2.402717 0.2952042
v 2.402716 -2.286798 0.2952051
v 2.286795 -2.402719 0.2952051
v -2.402719 2.286796 0.2952042
v -2.286798 2.402718 -0.369195
v 2.402716 -2.286798 -0.369195
v 2.402716 -2.286798 0.2952051
v -2.286798 2.402717 0.2952042
v 2.286795 -2.402719 -0.3691959
v -2.402719 2.286797 -0.369194
v -2.402719 2.286796 0.2952042
v 2.286795 -2.402719 0.2952051
v -3.315989 0.08196855 0.3692083
v 3.315989 0.08196759 0.3692074
v 3.315989 -0.08196902 0.3692074
v -3.315989 -0.08196855 0.3692083
v -3.315989 0.08196855 -0.3691931
v 3.315985 0.08196807 -0.3691969
v 3.315989 0.08196759 0.3692074
v -3.315989 0.08196855 0.3692083
v 3.315985 -0.08196902 -0.3691969
v -3.315989 -0.08196807 -0.3691931
v -3.315989 -0.08196855 0.3692083
v 3.315989 -0.08196902 0.3692074
v 0.08196831 3.315987 0.3692045
v 0.08196449 -3.315988 0.3692102
v -0.08196831 -3.315987 0.3692083
v -0.08197212 3.315987 0.3692036
v 0.08196831 3.315987 -0.3691969
v 0.0819664 -3.315988 -0.369195
v 0.08196449 -3.315988 0.3692102
v 0.08196831 3.315987 0.3692045
v -0.08196831 -3.315988 -0.3691921
v -0.08197021 3.315987 -0.3691988
v -0.08197212 3.315987 0.3692036
v -0.08196831 -3.315987 0.3692083
v -2.402719 -2.286798 0.3270378
v 2.286795 2.402717 0.3270321
v 2.402714 2.286796 0.3270302
v -2.286798 -2.402718 0.3270378
v -2.402719 -2.286797 -0.3691921
v 2.286797 2.402717 -0.3691978
v 2.286795 2.402717 0.3270321
v -2.402719 -2.286798 0.3270378
v 2.402714 2.286796 -0.3691988
v -2.286797 -2.402718 -0.3691921
v -2.286798 -2.402718 0.3270378
v 2.402714 2.286796 0.3270302
v -3.814697E-06 -3.385132 -0.5775347
v 1.692566 -2.93161 -0.5775328
v 1.692564 -2.931611 0.5775461
v -1.907349E-06 -3.385132 0.5775452
v -1.907349E-06 -3.385132 0.5775452
v 1.692564 -2.931611 0.5775461
v 2.029339 -3.514921 0.5775452
v -1.907349E-06 -4.05868 0.5775452
v 3.514917 -2.029342 0.5775461
v 2.931612 -1.692567 0.5775471
v 4.058676 -7.152557E-07 0.577548
v 3.38513 -7.152557E-07 0.5775461
v 3.514917 2.029339 0.577548
v 2.931608 1.692564 0.577549
v 2.029337 3.514919 0.5775461
v 1.692562 2.931608 0.577548
v -1.907349E-06 4.058679 0.5775471
v -1.907349E-06 3.38513 0.5775471
v -2.029343 3.514918 0.5775461
v -1.692566 2.931608 0.577548
v -3.514921 2.029339 0.5775461
v -2.931612 1.692564 0.5775452
v -4.058681 -2.384186E-07 0.5775461
v -3.385132 -7.152557E-07 0.5775452
v -3.514923 -2.02934 0.5775433
v -2.931612 -1.692566 0.5775452
v -2.029343 -3.51492 0.5775461
v -1.692568 -2.93161 0.5775452
v 0.1367245 -3.548891 0.397913
v 1.656036 -3.141792 0.397913
v 1.65604 -3.141792 -0.3978996
v 0.1367245 -3.548891 -0.3979025
v 1.692566 -2.93161 -0.5775328
v 2.931608 -1.692567 -0.5775337
v 2.931612 -1.692567 0.5775471
v 1.692564 -2.931611 0.5775461
v 1.892851 -3.005069 0.397913
v 3.005068 -1.892853 0.3979149
v 3.005068 -1.892853 -0.3979015
v 1.892849 -3.005069 -0.3979015
v 2.931608 -1.692567 -0.5775337
v 3.38513 -7.152557E-07 -0.5775328
v 3.38513 -7.152557E-07 0.5775461
v 2.931612 -1.692567 0.5775471
v 3.14179 -1.65604 0.397913
v 3.548891 -0.1367247 0.397913
v 3.548887 -0.1367242 -0.3978996
v 3.141794 -1.65604 -0.3978987
v 3.38513 -7.152557E-07 -0.5775328
v 2.931608 1.692565 -0.5775337
v 2.931608 1.692564 0.577549
v 3.38513 -7.152557E-07 0.5775461
v 3.548891 0.1367228 0.397913
v 3.14179 1.656039 0.3979149
v 3.141794 1.656039 -0.3978987
v 3.548887 0.1367233 -0.3978996
v 2.931608 1.692565 -0.5775337
v 1.692564 2.931609 -0.5775309
v 1.692562 2.931608 0.577548
v 2.931608 1.692564 0.577549
v 3.005068 1.892851 0.3979149
v 1.892849 3.005067 0.3979149
v 1.892849 3.005067 -0.3978996
v 3.005064 1.892851 -0.3978996
v 1.692564 2.931609 -0.5775309
v -3.814697E-06 3.38513 -0.5775347
v -1.907349E-06 3.38513 0.5775471
v 1.692562 2.931608 0.577548
v 1.656038 3.141791 0.3979168
v 0.1367226 3.54889 0.3979149
v 0.1367226 3.548891 -0.3978996
v 1.65604 3.141791 -0.3978996
v -3.814697E-06 3.38513 -0.5775347
v -1.692568 2.931609 -0.5775347
v -1.692566 2.931608 0.577548
v -1.907349E-06 3.38513 0.5775471
v -0.1367264 3.548891 0.3979149
v -1.65604 3.141791 0.3979149
v -1.656038 3.141791 -0.3979006
v -0.1367264 3.548891 -0.3978996
v -1.692568 2.931609 -0.5775347
v -2.931612 1.692565 -0.5775337
v -2.931612 1.692564 0.5775452
v -1.692566 2.931608 0.577548
v -1.892855 3.005067 0.397913
v -3.005068 1.892851 0.3979139
v -3.005068 1.892851 -0.3979025
v -1.892855 3.005067 -0.3979006
v -2.931612 1.692565 -0.5775337
v -3.385132 -2.384186E-07 -0.5775347
v -3.385132 -7.152557E-07 0.5775452
v -2.931612 1.692564 0.5775452
v -3.141792 1.656039 0.397913
v -3.548895 0.1367238 0.397913
v -3.548895 0.1367233 -0.3979025
v -3.141796 1.656039 -0.3979025
v -3.385132 -2.384186E-07 -0.5775347
v -2.931612 -1.692565 -0.5775337
v -2.931612 -1.692566 0.5775452
v -3.385132 -7.152557E-07 0.5775452
v -3.548893 -0.1367242 0.3979111
v -3.141792 -1.65604 0.397913
v -3.141796 -1.656039 -0.3979025
v -3.548895 -0.1367233 -0.3979025
v -2.931612 -1.692565 -0.5775337
v -1.692568 -2.931609 -0.5775347
v -1.692568 -2.93161 0.5775452
v -2.931612 -1.692566 0.5775452
v -3.005068 -1.892852 0.3979139
v -1.892855 -3.005068 0.397913
v -1.892855 -3.005068 -0.3979006
v -3.005068 -1.892852 -0.3979025
v -1.692568 -2.931609 -0.5775347
v -3.814697E-06 -3.385132 -0.5775347
v -1.907349E-06 -3.385132 0.5775452
v -1.692568 -2.93161 0.5775452
v -1.656042 -3.141792 0.3979111
v -0.1367245 -3.548893 0.397913
v -0.1367245 -3.548893 -0.3979034
v -1.65604 -3.141792 -0.3979015
v -1.907349E-06 -4.05868 0.5775452
v 0.1760883 -4.011498 0.4518108
v 0.1760864 -4.011498 -0.4517975
v -3.814697E-06 -4.05868 -0.5775347
v 1.853251 -3.562103 -0.4517965
v 2.029337 -3.51492 -0.5775347
v 1.853251 -3.562103 0.4518099
v 2.029339 -3.514921 0.5775452
v 2.029339 -3.514921 0.5775452
v 2.158243 -3.386016 0.4518099
v 2.158243 -3.386016 -0.4517984
v 2.029337 -3.51492 -0.5775347
v 3.386015 -2.158245 -0.4517965
v 3.514917 -2.029341 -0.5775318
v 3.386015 -2.158245 0.4518089
v 3.514917 -2.029342 0.5775461
v 3.514917 -2.029342 0.5775461
v 3.562101 -1.853254 0.4518099
v 3.562101 -1.853254 -0.4517975
v 3.514917 -2.029341 -0.5775318
v 4.011492 -0.1760871 -0.4517984
v 4.05868 -7.152557E-07 -0.5775328
v 4.011492 -0.1760876 0.4518099
v 4.058676 -7.152557E-07 0.577548
v 4.058676 -7.152557E-07 0.577548
v 4.011492 0.1760862 0.4518099
v 4.011492 0.1760862 -0.4517984
v 4.05868 -7.152557E-07 -0.5775328
v 3.562101 1.853252 -0.4517965
v 3.514917 2.029339 -0.5775318
v 3.562101 1.853252 0.4518118
v 3.514917 2.029339 0.577548
v 3.514917 2.029339 0.577548
v 3.386011 2.158244 0.4518108
v 3.386015 2.158244 -0.4517965
v 3.514917 2.029339 -0.5775318
v 2.158243 3.386015 -0.4517984
v 2.029339 3.514919 -0.5775309
v 2.158243 3.386014 0.4518118
v 2.029337 3.514919 0.5775461
v 2.029337 3.514919 0.5775461
v 1.853251 3.562101 0.4518118
v 1.853251 3.562101 -0.4517965
v 2.029339 3.514919 -0.5775309
v 0.1760845 4.011497 -0.4517956
v 0 4.058679 -0.5775318
v 0.1760864 4.011497 0.4518127
v -1.907349E-06 4.058679 0.5775471
v -1.907349E-06 4.058679 0.5775471
v -0.1760902 4.011497 0.4518118
v -0.1760902 4.011497 -0.4517956
v 0 4.058679 -0.5775318
v -1.853254 3.562101 -0.4517965
v -2.029343 3.514918 -0.5775328
v -1.853254 3.5621 0.4518108
v -2.029343 3.514918 0.5775461
v -2.029343 3.514918 0.5775461
v -2.158247 3.386014 0.4518089
v -2.158247 3.386015 -0.4517965
v -2.029343 3.514918 -0.5775328
v -3.386017 2.158244 -0.4517975
v -3.514921 2.029339 -0.5775347
v -3.386019 2.158244 0.4518099
v -3.514921 2.029339 0.5775461
v -3.514921 2.029339 0.5775461
v -3.562103 1.853253 0.4518099
v -3.562105 1.853253 -0.4517984
v -3.514921 2.029339 -0.5775347
v -4.011501 0.1760867 -0.4517994
v -4.05868 2.384186E-07 -0.5775337
v -4.011501 0.1760867 0.4518089
v -4.058681 -2.384186E-07 0.5775461
v -4.058681 -2.384186E-07 0.5775461
v -4.011501 -0.1760876 0.4518089
v -4.011501 -0.1760871 -0.4517994
v -4.05868 2.384186E-07 -0.5775337
v -3.562105 -1.853253 -0.4518003
v -3.514921 -2.02934 -0.5775347
v -3.562103 -1.853253 0.4518099
v -3.514923 -2.02934 0.5775433
v -3.514923 -2.02934 0.5775433
v -3.386019 -2.158244 0.4518099
v -3.386019 -2.158244 -0.4518003
v -3.514921 -2.02934 -0.5775347
v -2.158247 -3.386014 -0.4517975
v -2.029341 -3.51492 -0.5775347
v -2.158247 -3.386016 0.4518089
v -2.029343 -3.51492 0.5775461
v -2.029343 -3.51492 0.5775461
v -1.853256 -3.562102 0.451808
v -1.853258 -3.562102 -0.4517984
v -2.029341 -3.51492 -0.5775347
v -0.1760883 -4.011498 -0.4517994
v -3.814697E-06 -4.05868 -0.5775347
v -0.1760883 -4.011498 0.4518089
v -1.907349E-06 -4.05868 0.5775452
v 0.1760883 -4.011498 0.4518108
v 0.1367245 -3.548891 0.397913
v 0.1367245 -3.548891 -0.3979025
v 0.1760864 -4.011498 -0.4517975
v 0.1760864 -4.011498 -0.4517975
v 0.1367245 -3.548891 -0.3979025
v 1.65604 -3.141792 -0.3978996
v 1.853251 -3.562103 -0.4517965
v 1.853251 -3.562103 -0.4517965
v 1.65604 -3.141792 -0.3978996
v 1.656036 -3.141792 0.397913
v 1.853251 -3.562103 0.4518099
v 1.853251 -3.562103 0.4518099
v 1.656036 -3.141792 0.397913
v 0.1367245 -3.548891 0.397913
v 0.1760883 -4.011498 0.4518108
v 2.158243 -3.386016 0.4518099
v 1.892851 -3.005069 0.397913
v 1.892849 -3.005069 -0.3979015
v 2.158243 -3.386016 -0.4517984
v 2.158243 -3.386016 -0.4517984
v 1.892849 -3.005069 -0.3979015
v 3.005068 -1.892853 -0.3979015
v 3.386015 -2.158245 -0.4517965
v 3.386015 -2.158245 -0.4517965
v 3.005068 -1.892853 -0.3979015
v 3.005068 -1.892853 0.3979149
v 3.386015 -2.158245 0.4518089
v 3.386015 -2.158245 0.4518089
v 3.005068 -1.892853 0.3979149
v 1.892851 -3.005069 0.397913
v 2.158243 -3.386016 0.4518099
v 3.562101 -1.853254 0.4518099
v 3.14179 -1.65604 0.397913
v 3.141794 -1.65604 -0.3978987
v 3.562101 -1.853254 -0.4517975
v 3.562101 -1.853254 -0.4517975
v 3.141794 -1.65604 -0.3978987
v 3.548887 -0.1367242 -0.3978996
v 4.011492 -0.1760871 -0.4517984
v 4.011492 -0.1760871 -0.4517984
v 3.548887 -0.1367242 -0.3978996
v 3.548891 -0.1367247 0.397913
v 4.011492 -0.1760876 0.4518099
v 4.011492 -0.1760876 0.4518099
v 3.548891 -0.1367247 0.397913
v 3.14179 -1.65604 0.397913
v 3.562101 -1.853254 0.4518099
v 4.011492 0.1760862 0.4518099
v 3.548891 0.1367228 0.397913
v 3.548887 0.1367233 -0.3978996
v 4.011492 0.1760862 -0.4517984
v 4.011492 0.1760862 -0.4517984
v 3.548887 0.1367233 -0.3978996
v 3.141794 1.656039 -0.3978987
v 3.562101 1.853252 -0.4517965
v 3.562101 1.853252 -0.4517965
v 3.141794 1.656039 -0.3978987
v 3.14179 1.656039 0.3979149
v 3.562101 1.853252 0.4518118
v 3.562101 1.853252 0.4518118
v 3.14179 1.656039 0.3979149
v 3.548891 0.1367228 0.397913
v 4.011492 0.1760862 0.4518099
v 3.386011 2.158244 0.4518108
v 3.005068 1.892851 0.3979149
v 3.005064 1.892851 -0.3978996
v 3.386015 2.158244 -0.4517965
v 3.386015 2.158244 -0.4517965
v 3.005064 1.892851 -0.3978996
v 1.892849 3.005067 -0.3978996
v 2.158243 3.386015 -0.4517984
v 2.158243 3.386015 -0.4517984
v 1.892849 3.005067 -0.3978996
v 1.892849 3.005067 0.3979149
v 2.158243 3.386014 0.4518118
v 2.158243 3.386014 0.4518118
v 1.892849 3.005067 0.3979149
v 3.005068 1.892851 0.3979149
v 3.386011 2.158244 0.4518108
v 1.853251 3.562101 0.4518118
v 1.656038 3.141791 0.3979168
v 1.65604 3.141791 -0.3978996
v 1.853251 3.562101 -0.4517965
v 1.853251 3.562101 -0.4517965
v 1.65604 3.141791 -0.3978996
v 0.1367226 3.548891 -0.3978996
v 0.1760845 4.011497 -0.4517956
v 0.1760845 4.011497 -0.4517956
v 0.1367226 3.548891 -0.3978996
v 0.1367226 3.54889 0.3979149
v 0.1760864 4.011497 0.4518127
v 0.1760864 4.011497 0.4518127
v 0.1367226 3.54889 0.3979149
v 1.656038 3.141791 0.3979168
v 1.853251 3.562101 0.4518118
v -0.1760902 4.011497 0.4518118
v -0.1367264 3.548891 0.3979149
v -0.1367264 3.548891 -0.3978996
v -0.1760902 4.011497 -0.4517956
v -0.1760902 4.011497 -0.4517956
v -0.1367264 3.548891 -0.3978996
v -1.656038 3.141791 -0.3979006
v -1.853254 3.562101 -0.4517965
v -1.853254 3.562101 -0.4517965
v -1.656038 3.141791 -0.3979006
v -1.65604 3.141791 0.3979149
v -1.853254 3.5621 0.4518108
v -1.853254 3.5621 0.4518108
v -1.65604 3.141791 0.3979149
v -0.1367264 3.548891 0.3979149
v -0.1760902 4.011497 0.4518118
v -2.158247 3.386014 0.4518089
v -1.892855 3.005067 0.397913
v -1.892855 3.005067 -0.3979006
v -2.158247 3.386015 -0.4517965
v -2.158247 3.386015 -0.4517965
v -1.892855 3.005067 -0.3979006
v -3.005068 1.892851 -0.3979025
v -3.386017 2.158244 -0.4517975
v -3.386017 2.158244 -0.4517975
v -3.005068 1.892851 -0.3979025
v -3.005068 1.892851 0.3979139
v -3.386019 2.158244 0.4518099
v -3.386019 2.158244 0.4518099
v -3.005068 1.892851 0.3979139
v -1.892855 3.005067 0.397913
v -2.158247 3.386014 0.4518089
v -3.562103 1.853253 0.4518099
v -3.141792 1.656039 0.397913
v -3.141796 1.656039 -0.3979025
v -3.562105 1.853253 -0.4517984
v -3.562105 1.853253 -0.4517984
v -3.141796 1.656039 -0.3979025
v -3.548895 0.1367233 -0.3979025
v -4.011501 0.1760867 -0.4517994
v -4.011501 0.1760867 -0.4517994
v -3.548895 0.1367233 -0.3979025
v -3.548895 0.1367238 0.397913
v -4.011501 0.1760867 0.4518089
v -4.011501 0.1760867 0.4518089
v -3.548895 0.1367238 0.397913
v -3.141792 1.656039 0.397913
v -3.562103 1.853253 0.4518099
v -4.011501 -0.1760876 0.4518089
v -3.548893 -0.1367242 0.3979111
v -3.548895 -0.1367233 -0.3979025
v -4.011501 -0.1760871 -0.4517994
v -4.011501 -0.1760871 -0.4517994
v -3.548895 -0.1367233 -0.3979025
v -3.141796 -1.656039 -0.3979025
v -3.562105 -1.853253 -0.4518003
v -3.562105 -1.853253 -0.4518003
v -3.141796 -1.656039 -0.3979025
v -3.141792 -1.65604 0.397913
v -3.562103 -1.853253 0.4518099
v -3.562103 -1.853253 0.4518099
v -3.141792 -1.65604 0.397913
v -3.548893 -0.1367242 0.3979111
v -4.011501 -0.1760876 0.4518089
v -3.386019 -2.158244 0.4518099
v -3.005068 -1.892852 0.3979139
v -3.005068 -1.892852 -0.3979025
v -3.386019 -2.158244 -0.4518003
v -3.386019 -2.158244 -0.4518003
v -3.005068 -1.892852 -0.3979025
v -1.892855 -3.005068 -0.3979006
v -2.158247 -3.386014 -0.4517975
v -2.158247 -3.386014 -0.4517975
v -1.892855 -3.005068 -0.3979006
v -1.892855 -3.005068 0.397913
v -2.158247 -3.386016 0.4518089
v -2.158247 -3.386016 0.4518089
v -1.892855 -3.005068 0.397913
v -3.005068 -1.892852 0.3979139
v -3.386019 -2.158244 0.4518099
v -1.853256 -3.562102 0.451808
v -1.656042 -3.141792 0.3979111
v -1.65604 -3.141792 -0.3979015
v -1.853258 -3.562102 -0.4517984
v -1.853258 -3.562102 -0.4517984
v -1.65604 -3.141792 -0.3979015
v -0.1367245 -3.548893 -0.3979034
v -0.1760883 -4.011498 -0.4517994
v -0.1760883 -4.011498 -0.4517994
v -0.1367245 -3.548893 -0.3979034
v -0.1367245 -3.548893 0.397913
v -0.1760883 -4.011498 0.4518089
v -0.1760883 -4.011498 0.4518089
v -0.1367245 -3.548893 0.397913
v -1.656042 -3.141792 0.3979111
v -1.853256 -3.562102 0.451808
vt 0.1599121 0.965332
vt 0.1599121 0.965332
vt 0.1599121 0.965332
vt 0.1599121 0.965332
vt 0.1599121 0.965332
vt 0.1599121 0.965332
vt 0.1599121 0.965332
vt 0.1599121 0.965332
vt 0.1599121 0.965332
vt 0.1599121 0.965332
vt 0.1599121 0.965332
vt 0.1599121 0.965332
vt 0.1599121 0.965332
vt 0.1599121 0.965332
vt 0.1599121 0.965332
vt 0.1599121 0.965332
vt 0.1599121 0.965332
vt 0.1599121 0.965332
vt 0.1599121 0.965332
vt 0.1599121 0.965332
vt 0.1599121 0.965332
vt 0.1599121 0.965332
vt 0.1599121 0.965332
vt 0.1599121 0.965332
vt 0.1599121 0.965332
vt 0.1599121 0.965332
vt 0.1599121 0.965332
vt 0.1599121 0.965332
vt 0.1599121 0.965332
vt 0.1599121 0.965332
vt 0.1599121 0.965332
vt 0.1599121 0.965332
vt 0.1599121 0.965332
vt 0.1599121 0.965332
vt 0.1599121 0.965332
vt 0.1599121 0.965332
vt 0.1599121 0.965332
vt 0.1599121 0.965332
vt 0.1599121 0.965332
vt 0.1599121 0.965332
vt 0.1599121 0.965332
vt 0.1599121 0.965332
vt 0.1599121 0.965332
vt 0.1599121 0.965332
vt 0.1599121 0.965332
vt 0.1599121 0.965332
vt 0.1599121 0.965332
vt 0.1599121 0.965332
vt 0.1599121 0.965332
vt 0.1599121 0.965332
vt 0.1599121 0.965332
vt 0.1599121 0.965332
vt 0.1599121 0.965332
vt 0.1599121 0.965332
vt 0.1599121 0.965332
vt 0.1599121 0.965332
vt 0.1599121 0.965332
vt 0.1599121 0.965332
vt 0.1599121 0.965332
vt 0.1599121 0.965332
vt 0.1599121 0.965332
vt 0.1599121 0.965332
vt 0.1599121 0.965332
vt 0.1599121 0.965332
vt 0.1599121 0.965332
vt 0.1599121 0.965332
vt 0.1599121 0.965332
vt 0.1599121 0.965332
vt 0.1599121 0.965332
vt 0.1599121 0.965332
vt 0.1599121 0.965332
vt 0.1599121 0.965332
vt 0.1599121 0.965332
vt 0.1599121 0.965332
vt 0.1599121 0.965332
vt 0.1599121 0.965332
vt 0.03219604 0.6523438
vt 0.03219604 0.6523438
vt 0.03219604 0.6523438
vt 0.03219604 0.6523438
vt 0.1599121 0.965332
vt 0.1599121 0.965332
vt 0.1599121 0.965332
vt 0.1599121 0.965332
vt 0.03219604 0.6523438
vt 0.03219604 0.6523438
vt 0.03219604 0.6523438
vt 0.03219604 0.6523438
vt 0.1599121 0.965332
vt 0.1599121 0.965332
vt 0.1599121 0.965332
vt 0.1599121 0.965332
vt 0.03219604 0.6523438
vt 0.03219604 0.6523438
vt 0.03219604 0.6523438
vt 0.03219604 0.6523438
vt 0.1599121 0.965332
vt 0.1599121 0.965332
vt 0.1599121 0.965332
vt 0.1599121 0.965332
vt 0.03219604 0.6523438
vt 0.03219604 0.6523438
vt 0.03219604 0.6523438
vt 0.03219604 0.6523438
vt 0.1599121 0.965332
vt 0.1599121 0.965332
vt 0.1599121 0.965332
vt 0.1599121 0.965332
vt 0.03219604 0.6523438
vt 0.03219604 0.6523438
vt 0.03219604 0.6523438
vt 0.03219604 0.6523438
vt 0.1599121 0.965332
vt 0.1599121 0.965332
vt 0.1599121 0.965332
vt 0.1599121 0.965332
vt 0.03219604 0.6523438
vt 0.03219604 0.6523438
vt 0.03219604 0.6523438
vt 0.03219604 0.6523438
vt 0.1599121 0.965332
vt 0.1599121 0.965332
vt 0.1599121 0.965332
vt 0.1599121 0.965332
vt 0.03219604 0.6523438
vt 0.03219604 0.6523438
vt 0.03219604 0.6523438
vt 0.03219604 0.6523438
vt 0.1599121 0.965332
vt 0.1599121 0.965332
vt 0.1599121 0.965332
vt 0.1599121 0.965332
vt 0.03219604 0.6523438
vt 0.03219604 0.6523438
vt 0.03219604 0.6523438
vt 0.03219604 0.6523438
vt 0.1599121 0.965332
vt 0.1599121 0.965332
vt 0.1599121 0.965332
vt 0.1599121 0.965332
vt 0.03219604 0.6523438
vt 0.03219604 0.6523438
vt 0.03219604 0.6523438
vt 0.03219604 0.6523438
vt 0.1599121 0.965332
vt 0.1599121 0.965332
vt 0.1599121 0.965332
vt 0.1599121 0.965332
vt 0.03219604 0.6523438
vt 0.03219604 0.6523438
vt 0.03219604 0.6523438
vt 0.03219604 0.6523438
vt 0.1599121 0.965332
vt 0.1599121 0.965332
vt 0.1599121 0.965332
vt 0.1599121 0.965332
vt 0.03219604 0.6523438
vt 0.03219604 0.6523438
vt 0.03219604 0.6523438
vt 0.03219604 0.6523438
vt 0.1599121 0.965332
vt 0.1599121 0.965332
vt 0.1599121 0.965332
vt 0.1599121 0.965332
vt 0.03219604 0.6523438
vt 0.03219604 0.6523438
vt 0.03219604 0.6523438
vt 0.03219604 0.6523438
vt 0.1599121 0.965332
vt 0.1599121 0.965332
vt 0.1599121 0.965332
vt 0.1599121 0.965332
vt 0.1599121 0.965332
vt 0.1599121 0.965332
vt 0.1599121 0.965332
vt 0.1599121 0.965332
vt 0.1599121 0.965332
vt 0.1599121 0.965332
vt 0.1599121 0.965332
vt 0.1599121 0.965332
vt 0.1599121 0.965332
vt 0.1599121 0.965332
vt 0.1599121 0.965332
vt 0.1599121 0.965332
vt 0.1599121 0.965332
vt 0.1599121 0.965332
vt 0.1599121 0.965332
vt 0.1599121 0.965332
vt 0.1599121 0.965332
vt 0.1599121 0.965332
vt 0.1599121 0.965332
vt 0.1599121 0.965332
vt 0.1599121 0.965332
vt 0.1599121 0.965332
vt 0.1599121 0.965332
vt 0.1599121 0.965332
vt 0.1599121 0.965332
vt 0.1599121 0.965332
vt 0.1599121 0.965332
vt 0.1599121 0.965332
vt 0.1599121 0.965332
vt 0.1599121 0.965332
vt 0.1599121 0.965332
vt 0.1599121 0.965332
vt 0.1599121 0.965332
vt 0.1599121 0.965332
vt 0.1599121 0.965332
vt 0.1599121 0.965332
vt 0.1599121 0.965332
vt 0.1599121 0.965332
vt 0.1599121 0.965332
vt 0.1599121 0.965332
vt 0.1599121 0.965332
vt 0.1599121 0.965332
vt 0.1599121 0.965332
vt 0.1599121 0.965332
vt 0.1599121 0.965332
vt 0.1599121 0.965332
vt 0.1599121 0.965332
vt 0.1599121 0.965332
vt 0.1599121 0.965332
vt 0.1599121 0.965332
vt 0.1599121 0.965332
vt 0.1599121 0.965332
vt 0.1599121 0.965332
vt 0.1599121 0.965332
vt 0.1599121 0.965332
vt 0.1599121 0.965332
vt 0.1599121 0.965332
vt 0.1599121 0.965332
vt 0.1599121 0.965332
vt 0.1599121 0.965332
vt 0.1599121 0.965332
vt 0.1599121 0.965332
vt 0.1599121 0.965332
vt 0.1599121 0.965332
vt 0.1599121 0.965332
vt 0.1599121 0.965332
vt 0.1599121 0.965332
vt 0.1599121 0.965332
vt 0.1599121 0.965332
vt 0.1599121 0.965332
vt 0.1599121 0.965332
vt 0.1599121 0.965332
vt 0.1599121 0.965332
vt 0.1599121 0.965332
vt 0.1599121 0.965332
vt 0.1599121 0.965332
vt 0.1599121 0.965332
vt 0.1599121 0.965332
vt 0.1599121 0.965332
vt 0.1599121 0.965332
vt 0.1599121 0.965332
vt 0.1599121 0.965332
vt 0.1599121 0.965332
vt 0.1599121 0.965332
vt 0.1599121 0.965332
vt 0.1599121 0.965332
vt 0.1599121 0.965332
vt 0.1599121 0.965332
vt 0.1599121 0.965332
vt 0.1599121 0.965332
vt 0.1599121 0.965332
vt 0.1599121 0.965332
vt 0.1599121 0.965332
vt 0.1599121 0.965332
vt 0.1599121 0.965332
vt 0.1599121 0.965332
vt 0.1599121 0.965332
vt 0.1599121 0.965332
vt 0.1599121 0.965332
vt 0.1599121 0.965332
vt 0.1599121 0.965332
vt 0.1599121 0.965332
vt 0.1599121 0.965332
vt 0.1599121 0.965332
vt 0.1599121 0.965332
vt 0.1599121 0.965332
vt 0.1599121 0.965332
vt 0.1599121 0.965332
vt 0.1599121 0.965332
vt 0.1599121 0.965332
vt 0.1599121 0.965332
vt 0.1599121 0.965332
vt 0.1599121 0.965332
vt 0.1599121 0.965332
vt 0.1599121 0.965332
vt 0.1599121 0.965332
vt 0.1599121 0.965332
vt 0.1599121 0.965332
vt 0.1599121 0.965332
vt 0.1599121 0.965332
vt 0.1599121 0.965332
vt 0.1599121 0.965332
vt 0.1599121 0.965332
vt 0.1599121 0.965332
vt 0.1599121 0.965332
vt 0.1599121 0.965332
vt 0.1599121 0.965332
vt 0.1599121 0.965332
vt 0.1599121 0.965332
vt 0.1599121 0.965332
vt 0.1599121 0.965332
vt 0.1599121 0.965332
vt 0.1599121 0.965332
vt 0.1599121 0.965332
vt 0.1599121 0.965332
vt 0.1599121 0.965332
vt 0.1599121 0.965332
vt 0.1599121 0.965332
vt 0.1599121 0.965332
vt 0.1599121 0.965332
vt 0.1599121 0.965332
vt 0.1599121 0.965332
vt 0.1599121 0.965332
vt 0.1599121 0.965332
vt 0.1599121 0.965332
vt 0.1599121 0.965332
vt 0.1599121 0.965332
vt 0.1599121 0.965332
vt 0.1599121 0.965332
vt 0.1599121 0.965332
vt 0.1599121 0.965332
vt 0.1599121 0.965332
vt 0.1599121 0.965332
vt 0.1599121 0.965332
vt 0.1599121 0.965332
vt 0.1599121 0.965332
vt 0.1599121 0.965332
vt 0.1599121 0.965332
vt 0.1599121 0.965332
vt 0.1599121 0.965332
vt 0.1599121 0.965332
vt 0.1599121 0.965332
vt 0.1599121 0.965332
vt 0.1599121 0.965332
vt 0.1599121 0.965332
vt 0.1599121 0.965332
vt 0.1599121 0.965332
vt 0.1599121 0.965332
vt 0.1599121 0.965332
vt 0.1599121 0.965332
vt 0.1599121 0.965332
vt 0.1599121 0.965332
vt 0.1599121 0.965332
vt 0.1599121 0.965332
vt 0.1599121 0.965332
vt 0.1599121 0.965332
vt 0.1599121 0.965332
vt 0.1599121 0.965332
vt 0.1599121 0.965332
vt 0.1599121 0.965332
vt 0.1599121 0.965332
vt 0.1599121 0.965332
vt 0.1599121 0.965332
vt 0.1599121 0.965332
vt 0.1599121 0.965332
vt 0.1599121 0.965332
vt 0.1599121 0.965332
vt 0.1599121 0.965332
vt 0.1599121 0.965332
vt 0.1599121 0.965332
vt 0.1599121 0.965332
vt 0.1599121 0.965332
vt 0.1599121 0.965332
vt 0.1599121 0.965332
vt 0.1599121 0.965332
vt 0.1599121 0.965332
vt 0.1599121 0.965332
vt 0.1599121 0.965332
vt 0.1599121 0.965332
vt 0.1599121 0.965332
vt 0.1599121 0.965332
vt 0.1599121 0.965332
vt 0.1599121 0.965332
vt 0.1599121 0.965332
vt 0.1599121 0.965332
vt 0.1599121 0.965332
vt 0.1599121 0.965332
vt 0.1599121 0.965332
vt 0.1599121 0.965332
vt 0.1599121 0.965332
vt 0.1599121 0.965332
vt 0.1599121 0.965332
vt 0.1599121 0.965332
vt 0.1599121 0.965332
vt 0.1599121 0.965332
vt 0.1599121 0.965332
vt 0.1599121 0.965332
vt 0.1599121 0.965332
vt 0.1599121 0.965332
vt 0.1599121 0.965332
vt 0.1599121 0.965332
vt 0.1599121 0.965332
vt 0.1599121 0.965332
vt 0.1599121 0.965332
vt 0.1599121 0.965332
vt 0.1599121 0.965332
vt 0.1599121 0.965332
vt 0.1599121 0.965332
vt 0.1599121 0.965332
vt 0.1599121 0.965332
vt 0.1599121 0.965332
vt 0.1599121 0.965332
vt 0.1599121 0.965332
vt 0.1599121 0.965332
vt 0.1599121 0.965332
vt 0.1599121 0.965332
vt 0.1599121 0.965332
vt 0.1599121 0.965332
vt 0.1599121 0.965332
vt 0.1599121 0.965332
vt 0.1599121 0.965332
vt 0.1599121 0.965332
vt 0.1599121 0.965332
vt 0.1599121 0.965332
vt 0.1599121 0.965332
vt 0.1599121 0.965332
vt 0.1599121 0.965332
vt 0.1599121 0.965332
vt 0.1599121 0.965332
vt 0.1599121 0.965332
vt 0.1599121 0.965332
vt 0.1599121 0.965332
vt 0.1599121 0.965332
vt 0.1599121 0.965332
vt 0.1599121 0.965332
vt 0.1599121 0.965332
vt 0.1599121 0.965332
vt 0.1599121 0.965332
vt 0.1599121 0.965332
vt 0.1599121 0.965332
vt 0.1599121 0.965332
vt 0.1599121 0.965332
vt 0.1599121 0.965332
vt 0.1599121 0.965332
vt 0.1599121 0.965332
vt 0.1599121 0.965332
vt 0.1599121 0.965332
vt 0.1599121 0.965332
vt 0.1599121 0.965332
vt 0.1599121 0.965332
vt 0.1599121 0.965332
vt 0.1599121 0.965332
vt 0.1599121 0.965332
vt 0.1599121 0.965332
vt 0.1599121 0.965332
vt 0.1599121 0.965332
vt 0.1599121 0.965332
vt 0.1599121 0.965332
vt 0.1599121 0.965332
vt 0.1599121 0.965332
vt 0.1599121 0.965332
vt 0.1599121 0.965332
vt 0.1599121 0.965332
vt 0.1599121 0.965332
vn 0 0 1
vn 0 0 1
vn 0 0 1
vn 0 0 1
vn 0.7070313 0.7070313 0
vn 0.7070313 0.7070313 0
vn 0.7070313 0.7070313 0
vn 0.7070313 0.7070313 0
vn -0.7070313 -0.7070313 0
vn -0.7070313 -0.7070313 0
vn -0.7070313 -0.7070313 0
vn -0.7070313 -0.7070313 0
vn 0 0 1
vn 0 0 1
vn 0 0 1
vn 0 0 1
vn 0 1 0
vn 0 1 0
vn 0 1 0
vn 0 1 0
vn 0 -1 0
vn 0 -1 0
vn 0 -1 0
vn 0 -1 0
vn 0 0 1
vn 0 0 1
vn 0 0 1
vn 0 0 1
vn 1 0 0
vn 1 0 0
vn 1 0 0
vn 1 0 0
vn -1 0 0
vn -1 0 0
vn -1 0 0
vn -1 0 0
vn 0 0 1
vn 0 0 1
vn 0 0 1
vn 0 0 1
vn -0.7070313 0.7070313 0
vn -0.7070313 0.7070313 0
vn -0.7070313 0.7070313 0
vn -0.7070313 0.7070313 0
vn 0.7070313 -0.7070313 0
vn 0.7070313 -0.7070313 0
vn 0.7070313 -0.7070313 0
vn 0.7070313 -0.7070313 0
vn -0.2587891 0.9658203 0
vn -0.2587891 0.9658203 0
vn -0.2587891 0.9658203 0
vn -0.2587891 0.9658203 0
vn 0 0 1
vn 0 0 1
vn 0 0 1
vn 0 0 1
vn 0 0 1
vn 0 0 1
vn 0 0 1
vn 0 0 1
vn 0 0 1
vn 0 0 1
vn 0 0 1
vn 0 0 1
vn 0 0 1
vn 0 0 1
vn 0 0 1
vn 0 0 1
vn 0 0 1
vn 0 0 1
vn 0 0 1
vn 0 0 1
vn 0 0 1
vn 0 0 1
vn 0 0 1
vn 0 0 1
vn 0.2587891 -0.9658203 0
vn 0.2587891 -0.9658203 0
vn 0.2587891 -0.9658203 0
vn 0.2587891 -0.9658203 0
vn -0.7070313 0.7070313 0
vn -0.7070313 0.7070313 0
vn -0.7070313 0.7070313 0
vn -0.7070313 0.7070313 0
vn 0.7070313 -0.7070313 0
vn 0.7070313 -0.7070313 0
vn 0.7070313 -0.7070313 0
vn 0.7070313 -0.7070313 0
vn -0.9658203 0.2587891 0
vn -0.9658203 0.2587891 0
vn -0.9658203 0.2587891 0
vn -0.9658203 0.2587891 0
vn 0.9658203 -0.2587891 0
vn 0.9658203 -0.2587891 0
vn 0.9658203 -0.2587891 0
vn 0.9658203 -0.2587891 0
vn -0.9658203 -0.2587891 0
vn -0.9658203 -0.2587891 0
vn -0.9658203 -0.2587891 0
vn -0.9658203 -0.2587891 0
vn 0.9658203 0.2587891 0
vn 0.9658203 0.2587891 0
vn 0.9658203 0.2587891 0
vn 0.9658203 0.2587891 0
vn -0.7070313 -0.7070313 0
vn -0.7070313 -0.7070313 0
vn -0.7070313 -0.7070313 0
vn -0.7070313 -0.7070313 0
vn 0.7070313 0.7070313 0
vn 0.7070313 0.7070313 0
vn 0.7070313 0.7070313 0
vn 0.7070313 0.7070313 0
vn -0.2587891 -0.9658203 0
vn -0.2587891 -0.9658203 0
vn -0.2587891 -0.9658203 0
vn -0.2587891 -0.9658203 0
vn 0.2587891 0.9658203 0
vn 0.2587891 0.9658203 0
vn 0.2587891 0.9658203 0
vn 0.2587891 0.9658203 0
vn 0.2587891 -0.9658203 0
vn 0.2587891 -0.9658203 0
vn 0.2587891 -0.9658203 0
vn 0.2587891 -0.9658203 0
vn -0.2587891 0.9658203 0
vn -0.2587891 0.9658203 0
vn -0.2587891 0.9658203 0
vn -0.2587891 0.9658203 0
vn 0.7070313 -0.7070313 0
vn 0.7070313 -0.7070313 0
vn 0.7070313 -0.7070313 0
vn 0.7070313 -0.7070313 0
vn -0.7070313 0.7070313 0
vn -0.7070313 0.7070313 0
vn -0.7070313 0.7070313 0
vn -0.7070313 0.7070313 0
vn 0.9658203 -0.2587891 0
vn 0.9658203 -0.2587891 0
vn 0.9658203 -0.2587891 0
vn 0.9658203 -0.2587891 0
vn -0.9658203 0.2587891 0
vn -0.9658203 0.2587891 0
vn -0.9658203 0.2587891 0
vn -0.9658203 0.2587891 0
vn 0.9658203 0.2587891 0
vn 0.9658203 0.2587891 0
vn 0.9658203 0.2587891 0
vn 0.9658203 0.2587891 0
vn -0.9658203 -0.2587891 0
vn -0.9658203 -0.2587891 0
vn -0.9658203 -0.2587891 0
vn -0.9658203 -0.2587891 0
vn 0.7070313 0.7070313 0
vn 0.7070313 0.7070313 0
vn 0.7070313 0.7070313 0
vn 0.7070313 0.7070313 0
vn -0.7070313 -0.7070313 0
vn -0.7070313 -0.7070313 0
vn -0.7070313 -0.7070313 0
vn -0.7070313 -0.7070313 0
vn 0.2587891 0.9658203 0
vn 0.2587891 0.9658203 0
vn 0.2587891 0.9658203 0
vn 0.2587891 0.9658203 0
vn -0.2587891 -0.9658203 0
vn -0.2587891 -0.9658203 0
vn -0.2587891 -0.9658203 0
vn -0.2587891 -0.9658203 0
vn 0.2587891 -0.9658203 0
vn 0.2587891 -0.9658203 0
vn 0.2587891 -0.9658203 0
vn 0.2587891 -0.9658203 0
vn 0.2587891 -0.9658203 -1.120567E-05
vn 0.2587891 -0.9658203 -1.120567E-05
vn 0.2587891 -0.9658203 0
vn 0.2587891 -0.9658203 0
vn 0.7070313 -0.7070313 0
vn 0.7070313 -0.7070313 0
vn 0.7070313 -0.7070313 0
vn 0.7070313 -0.7070313 0
vn 0.7070313 -0.7070313 -1.084805E-05
vn 0.7070313 -0.7070313 -1.084805E-05
vn 0.7070313 -0.7070313 0
vn 0.7070313 -0.7070313 0
vn 0.9658203 -0.2587891 0
vn 0.9658203 -0.2587891 0
vn 0.9658203 -0.2587891 0
vn 0.9658203 -0.2587891 0
vn 0.9658203 -0.2587891 1.561642E-05
vn 0.9658203 -0.2587891 1.561642E-05
vn 0.9658203 -0.2587891 0
vn 0.9658203 -0.2587891 0
vn 0.9658203 0.2587891 0
vn 0.9658203 0.2587891 0
vn 0.9658203 0.2587891 0
vn 0.9658203 0.2587891 0
vn 0.9658203 0.2587891 1.484156E-05
vn 0.9658203 0.2587891 1.484156E-05
vn 0.9658203 0.2587891 0
vn 0.9658203 0.2587891 0
vn 0.7070313 0.7070313 0
vn 0.7070313 0.7070313 0
vn 0.7070313 0.7070313 0
vn 0.7070313 0.7070313 0
vn 0.7070313 0.7070313 0
vn 0.7070313 0.7070313 0
vn 0.7070313 0.7070313 0
vn 0.7070313 0.7070313 0
vn 0.2587891 0.9658203 0
vn 0.2587891 0.9658203 0
vn 0.2587891 0.9658203 0
vn 0.2587891 0.9658203 0
vn 0.2587891 0.9658203 0
vn 0.2587891 0.9658203 0
vn 0.2587891 0.9658203 0
vn 0.2587891 0.9658203 0
vn -0.2587891 0.9658203 0
vn -0.2587891 0.9658203 0
vn -0.2587891 0.9658203 0
vn -0.2587891 0.9658203 0
vn -0.2587891 0.9658203 0
vn -0.2587891 0.9658203 0
vn -0.2587891 0.9658203 0
vn -0.2587891 0.9658203 0
vn -0.7070313 0.7070313 0
vn -0.7070313 0.7070313 0
vn -0.7070313 0.7070313 0
vn -0.7070313 0.7070313 0
vn -0.7070313 0.7070313 0
vn -0.7070313 0.7070313 0
vn -0.7070313 0.7070313 0
vn -0.7070313 0.7070313 0
vn -0.9658203 0.2587891 0
vn -0.9658203 0.2587891 0
vn -0.9658203 0.2587891 0
vn -0.9658203 0.2587891 0
vn -0.9658203 0.2587891 -2.169609E-05
vn -0.9658203 0.2587891 -2.169609E-05
vn -0.9658203 0.2587891 0
vn -0.9658203 0.2587891 0
vn -0.9658203 -0.2587891 0
vn -0.9658203 -0.2587891 0
vn -0.9658203 -0.2587891 0
vn -0.9658203 -0.2587891 0
vn -0.9658203 -0.2587891 -2.300739E-05
vn -0.9658203 -0.2587891 -2.300739E-05
vn -0.9658203 -0.2587891 0
vn -0.9658203 -0.2587891 0
vn -0.7070313 -0.7070313 0
vn -0.7070313 -0.7070313 0
vn -0.7070313 -0.7070313 0
vn -0.7070313 -0.7070313 0
vn -0.7070313 -0.7070313 0
vn -0.7070313 -0.7070313 0
vn -0.7070313 -0.7070313 0
vn -0.7070313 -0.7070313 0
vn -0.2587891 -0.9658203 0
vn -0.2587891 -0.9658203 0
vn -0.2587891 -0.9658203 0
vn -0.2587891 -0.9658203 0
vn -0.2587891 -0.9658203 0
vn -0.2587891 -0.9658203 0
vn -0.2587891 -0.9658203 0
vn -0.2587891 -0.9658203 0
vn 0.9960938 0.08477783 0
vn 0.9960938 0.08477783 0
vn 0.9960938 0.08477783 0
vn 0.9960938 0.08477783 0
vn 0.03030396 -0.1130981 0.9926758
vn 0.03030396 -0.1130981 0.9926758
vn 0.03030396 -0.1130981 0.9926758
vn 0.03030396 -0.1130981 0.9926758
vn -0.9052734 -0.4245605 0
vn -0.9052734 -0.4245605 0
vn -0.9052734 -0.4245605 0
vn -0.9052734 -0.4245605 0
vn 0.03030396 -0.1130981 -0.9926758
vn 0.03030396 -0.1130981 -0.9926758
vn 0.03030396 -0.1130981 -0.9926758
vn 0.03030396 -0.1130981 -0.9926758
vn 0.8203125 0.5712891 0
vn 0.8203125 0.5712891 0
vn 0.8203125 0.5712891 0
vn 0.8203125 0.5712891 0
vn 0.08276367 -0.08276367 0.9926758
vn 0.08276367 -0.08276367 0.9926758
vn 0.08276367 -0.08276367 0.9926758
vn 0.08276367 -0.08276367 0.9926758
vn -0.5712891 -0.8203125 0
vn -0.5712891 -0.8203125 0
vn -0.5712891 -0.8203125 0
vn -0.5712891 -0.8203125 0
vn 0.08276367 -0.08276367 -0.9926758
vn 0.08276367 -0.08276367 -0.9926758
vn 0.08276367 -0.08276367 -0.9926758
vn 0.08276367 -0.08276367 -0.9926758
vn 0.4245605 0.9052734 0
vn 0.4245605 0.9052734 0
vn 0.4245605 0.9052734 0
vn 0.4245605 0.9052734 0
vn 0.1130981 -0.03030396 0.9926758
vn 0.1130981 -0.03030396 0.9926758
vn 0.1130981 -0.03030396 0.9926758
vn 0.1130981 -0.03030396 0.9926758
vn -0.08477783 -0.9960938 0
vn -0.08477783 -0.9960938 0
vn -0.08477783 -0.9960938 0
vn -0.08477783 -0.9960938 0
vn 0.1130981 -0.03030396 -0.9926758
vn 0.1130981 -0.03030396 -0.9926758
vn 0.1130981 -0.03030396 -0.9926758
vn 0.1130981 -0.03030396 -0.9926758
vn -0.08477783 0.9960938 0
vn -0.08477783 0.9960938 0
vn -0.08477783 0.9960938 0
vn -0.08477783 0.9960938 0
vn 0.1130981 0.03030396 0.9926758
vn 0.1130981 0.03030396 0.9926758
vn 0.1130981 0.03030396 0.9926758
vn 0.1130981 0.03030396 0.9926758
vn 0.4245605 -0.9052734 0
vn 0.4245605 -0.9052734 0
vn 0.4245605 -0.9052734 0
vn 0.4245605 -0.9052734 0
vn 0.1130981 0.03030396 -0.9926758
vn 0.1130981 0.03030396 -0.9926758
vn 0.1130981 0.03030396 -0.9926758
vn 0.1130981 0.03030396 -0.9926758
vn -0.5712891 0.8203125 0
vn -0.5712891 0.8203125 0
vn -0.5712891 0.8203125 0
vn -0.5712891 0.8203125 0
vn 0.08276367 0.08276367 0.9926758
vn 0.08276367 0.08276367 0.9926758
vn 0.08276367 0.08276367 0.9926758
vn 0.08276367 0.08276367 0.9926758
vn 0.8203125 -0.5712891 0
vn 0.8203125 -0.5712891 0
vn 0.8203125 -0.5712891 0
vn 0.8203125 -0.5712891 0
vn 0.08276367 0.08276367 -0.9926758
vn 0.08276367 0.08276367 -0.9926758
vn 0.08276367 0.08276367 -0.9926758
vn 0.08276367 0.08276367 -0.9926758
vn -0.9052734 0.4245605 0
vn -0.9052734 0.4245605 0
vn -0.9052734 0.4245605 0
vn -0.9052734 0.4245605 0
vn 0.03030396 0.1130981 0.9926758
vn 0.03030396 0.1130981 0.9926758
vn 0.03030396 0.1130981 0.9926758
vn 0.03030396 0.1130981 0.9926758
vn 0.9960938 -0.08477783 0
vn 0.9960938 -0.08477783 0
vn 0.9960938 -0.08477783 0
vn 0.9960938 -0.08477783 0
vn 0.03030396 0.1130981 -0.9926758
vn 0.03030396 0.1130981 -0.9926758
vn 0.03030396 0.1130981 -0.9926758
vn 0.03030396 0.1130981 -0.9926758
vn -0.9960938 -0.08477783 0
vn -0.9960938 -0.08477783 0
vn -0.9960938 -0.08477783 0
vn -0.9960938 -0.08477783 0
vn -0.03030396 0.1130981 0.9926758
vn -0.03030396 0.1130981 0.9926758
vn -0.03030396 0.1130981 0.9926758
vn -0.03030396 0.1130981 0.9926758
vn 0.9052734 0.4245605 0
vn 0.9052734 0.4245605 0
vn 0.9052734 0.4245605 0
vn 0.9052734 0.4245605 0
vn -0.03030396 0.1130981 -0.9926758
vn -0.03030396 0.1130981 -0.9926758
vn -0.03030396 0.1130981 -0.9926758
vn -0.03030396 0.1130981 -0.9926758
vn -0.8203125 -0.5712891 0
vn -0.8203125 -0.5712891 0
vn -0.8203125 -0.5712891 0
vn -0.8203125 -0.5712891 0
vn -0.08276367 0.08276367 0.9926758
vn -0.08276367 0.08276367 0.9926758
vn -0.08276367 0.08276367 0.9926758
vn -0.08276367 0.08276367 0.9926758
vn 0.5712891 0.8203125 0
vn 0.5712891 0.8203125 0
vn 0.5712891 0.8203125 0
vn 0.5712891 0.8203125 0
vn -0.08276367 0.08276367 -0.9926758
vn -0.08276367 0.08276367 -0.9926758
vn -0.08276367 0.08276367 -0.9926758
vn -0.08276367 0.08276367 -0.9926758
vn -0.4245605 -0.9052734 0
vn -0.4245605 -0.9052734 0
vn -0.4245605 -0.9052734 0
vn -0.4245605 -0.9052734 0
vn -0.1130981 0.03030396 0.9926758
vn -0.1130981 0.03030396 0.9926758
vn -0.1130981 0.03030396 0.9926758
vn -0.1130981 0.03030396 0.9926758
vn 0.08477783 0.9960938 0
vn 0.08477783 0.9960938 0
vn 0.08477783 0.9960938 0
vn 0.08477783 0.9960938 0
vn -0.1130981 0.03030396 -0.9926758
vn -0.1130981 0.03030396 -0.9926758
vn -0.1130981 0.03030396 -0.9926758
vn -0.1130981 0.03030396 -0.9926758
vn 0.08477783 -0.9960938 0
vn 0.08477783 -0.9960938 0
vn 0.08477783 -0.9960938 0
vn 0.08477783 -0.9960938 0
vn -0.1130981 -0.03030396 0.9926758
vn -0.1130981 -0.03030396 0.9926758
vn -0.1130981 -0.03030396 0.9926758
vn -0.1130981 -0.03030396 0.9926758
vn -0.4245605 0.9052734 0
vn -0.4245605 0.9052734 0
vn -0.4245605 0.9052734 0
vn -0.4245605 0.9052734 0
vn -0.1130981 -0.03030396 -0.9926758
vn -0.1130981 -0.03030396 -0.9926758
vn -0.1130981 -0.03030396 -0.9926758
vn -0.1130981 -0.03030396 -0.9926758
vn 0.5712891 -0.8203125 0
vn 0.5712891 -0.8203125 0
vn 0.5712891 -0.8203125 0
vn 0.5712891 -0.8203125 0
vn -0.08276367 -0.08276367 0.9926758
vn -0.08276367 -0.08276367 0.9926758
vn -0.08276367 -0.08276367 0.9926758
vn -0.08276367 -0.08276367 0.9926758
vn -0.8203125 0.5712891 0
vn -0.8203125 0.5712891 0
vn -0.8203125 0.5712891 0
vn -0.8203125 0.5712891 0
vn -0.08276367 -0.08276367 -0.9926758
vn -0.08276367 -0.08276367 -0.9926758
vn -0.08276367 -0.08276367 -0.9926758
vn -0.08276367 -0.08276367 -0.9926758
vn 0.9052734 -0.4245605 0
vn 0.9052734 -0.4245605 0
vn 0.9052734 -0.4245605 0
vn 0.9052734 -0.4245605 0
vn -0.03030396 -0.1130981 0.9926758
vn -0.03030396 -0.1130981 0.9926758
vn -0.03030396 -0.1130981 0.9926758
vn -0.03030396 -0.1130981 0.9926758
vn -0.9960938 0.08477783 0
vn -0.9960938 0.08477783 0
vn -0.9960938 0.08477783 0
vn -0.9960938 0.08477783 0
vn -0.03030396 -0.1130981 -0.9926758
vn -0.03030396 -0.1130981 -0.9926758
vn -0.03030396 -0.1130981 -0.9926758
vn -0.03030396 -0.1130981 -0.9926758
g Object047_0
f 3/3/3 2/2/2 1/1/1
f 4/4/4 3/3/3 1/1/1
f 7/7/7 6/6/6 5/5/5
f 8/8/8 7/7/7 5/5/5
f 11/11/11 10/10/10 9/9/9
f 12/12/12 11/11/11 9/9/9
f 15/15/15 14/14/14 13/13/13
f 16/16/16 15/15/15 13/13/13
f 19/19/19 18/18/18 17/17/17
f 20/20/20 19/19/19 17/17/17
f 23/23/23 22/22/22 21/21/21
f 24/24/24 23/23/23 21/21/21
f 27/27/27 26/26/26 25/25/25
f 28/28/28 27/27/27 25/25/25
f 31/31/31 30/30/30 29/29/29
f 32/32/32 31/31/31 29/29/29
f 35/35/35 34/34/34 33/33/33
f 36/36/36 35/35/35 33/33/33
f 39/39/39 38/38/38 37/37/37
f 40/40/40 39/39/39 37/37/37
f 43/43/43 42/42/42 41/41/41
f 44/44/44 43/43/43 41/41/41
f 47/47/47 46/46/46 45/45/45
f 48/48/48 47/47/47 45/45/45
f 51/51/51 50/50/50 49/49/49
f 52/52/52 51/51/51 49/49/49
f 55/55/55 54/54/54 53/53/53
f 56/56/56 55/55/55 53/53/53
f 55/55/55 57/57/57 54/54/54
f 57/57/57 58/58/58 54/54/54
f 57/57/57 59/59/59 58/58/58
f 59/59/59 60/60/60 58/58/58
f 59/59/59 61/61/61 60/60/60
f 61/61/61 62/62/62 60/60/60
f 61/61/61 63/63/63 62/62/62
f 63/63/63 64/64/64 62/62/62
f 63/63/63 65/65/65 64/64/64
f 65/65/65 66/66/66 64/64/64
f 65/65/65 67/67/67 66/66/66
f 67/67/67 68/68/68 66/66/66
f 67/67/67 69/69/69 68/68/68
f 69/69/69 70/70/70 68/68/68
f 69/69/69 71/71/71 70/70/70
f 71/71/71 72/72/72 70/70/70
f 71/71/71 73/73/73 72/72/72
f 73/73/73 74/74/74 72/72/72
f 73/73/73 75/75/75 74/74/74
f 75/75/75 76/76/76 74/74/74
f 75/75/75 56/56/56 76/76/76
f 56/56/56 53/53/53 76/76/76
f 79/79/79 78/78/78 77/77/77
f 80/80/80 79/79/79 77/77/77
f 83/83/83 82/82/82 81/81/81
f 84/84/84 83/83/83 81/81/81
f 87/87/87 86/86/86 85/85/85
f 88/88/88 87/87/87 85/85/85
f 91/91/91 90/90/90 89/89/89
f 92/92/92 91/91/91 89/89/89
f 95/95/95 94/94/94 93/93/93
f 96/96/96 95/95/95 93/93/93
f 99/99/99 98/98/98 97/97/97
f 100/100/100 99/99/99 97/97/97
f 103/103/103 102/102/102 101/101/101
f 104/104/104 103/103/103 101/101/101
f 107/107/107 106/106/106 105/105/105
f 108/108/108 107/107/107 105/105/105
f 111/111/111 110/110/110 109/109/109
f 112/112/112 111/111/111 109/109/109
f 115/115/115 114/114/114 113/113/113
f 116/116/116 115/115/115 113/113/113
f 119/119/119 118/118/118 117/117/117
f 120/120/120 119/119/119 117/117/117
f 123/123/123 122/122/122 121/121/121
f 124/124/124 123/123/123 121/121/121
f 127/127/127 126/126/126 125/125/125
f 128/128/128 127/127/127 125/125/125
f 131/131/131 130/130/130 129/129/129
f 132/132/132 131/131/131 129/129/129
f 135/135/135 134/134/134 133/133/133
f 136/136/136 135/135/135 133/133/133
f 139/139/139 138/138/138 137/137/137
f 140/140/140 139/139/139 137/137/137
f 143/143/143 142/142/142 141/141/141
f 144/144/144 143/143/143 141/141/141
f 147/147/147 146/146/146 145/145/145
f 148/148/148 147/147/147 145/145/145
f 151/151/151 150/150/150 149/149/149
f 152/152/152 151/151/151 149/149/149
f 155/155/155 154/154/154 153/153/153
f 156/156/156 155/155/155 153/153/153
f 159/159/159 158/158/158 157/157/157
f 160/160/160 159/159/159 157/157/157
f 163/163/163 162/162/162 161/161/161
f 164/164/164 163/163/163 161/161/161
f 167/167/167 166/166/166 165/165/165
f 168/168/168 167/167/167 165/165/165
f 171/171/171 170/170/170 169/169/169
f 172/172/172 171/171/171 169/169/169
f 173/173/173 171/171/171 172/172/172
f 174/174/174 173/173/173 172/172/172
f 175/175/175 173/173/173 174/174/174
f 176/176/176 175/175/175 174/174/174
f 170/170/170 175/175/175 176/176/176
f 169/169/169 170/170/170 176/176/176
f 179/179/179 178/178/178 177/177/177
f 180/180/180 179/179/179 177/177/177
f 181/181/181 179/179/179 180/180/180
f 182/182/182 181/181/181 180/180/180
f 183/183/183 181/181/181 182/182/182
f 184/184/184 183/183/183 182/182/182
f 178/178/178 183/183/183 184/184/184
f 177/177/177 178/178/178 184/184/184
f 187/187/187 186/186/186 185/185/185
f 188/188/188 187/187/187 185/185/185
f 189/189/189 187/187/187 188/188/188
f 190/190/190 189/189/189 188/188/188
f 191/191/191 189/189/189 190/190/190
f 192/192/192 191/191/191 190/190/190
f 186/186/186 191/191/191 192/192/192
f 185/185/185 186/186/186 192/192/192
f 195/195/195 194/194/194 193/193/193
f 196/196/196 195/195/195 193/193/193
f 197/197/197 195/195/195 196/196/196
f 198/198/198 197/197/197 196/196/196
f 199/199/199 197/197/197 198/198/198
f 200/200/200 199/199/199 198/198/198
f 194/194/194 199/199/199 200/200/200
f 193/193/193 194/194/194 200/200/200
f 203/203/203 202/202/202 201/201/201
f 204/204/204 203/203/203 201/201/201
f 205/205/205 203/203/203 204/204/204
f 206/206/206 205/205/205 204/204/204
f 207/207/207 205/205/205 206/206/206
f 208/208/208 207/207/207 206/206/206
f 202/202/202 207/207/207 208/208/208
f 201/201/201 202/202/202 208/208/208
f 211/211/211 210/210/210 209/209/209
f 212/212/212 211/211/211 209/209/209
f 213/213/213 211/211/211 212/212/212
f 214/214/214 213/213/213 212/212/212
f 215/215/215 213/213/213 214/214/214
f 216/216/216 215/215/215 214/214/214
f 210/210/210 215/215/215 216/216/216
f 209/209/209 210/210/210 216/216/216
f 219/219/219 218/218/218 217/217/217
f 220/220/220 219/219/219 217/217/217
f 221/221/221 219/219/219 220/220/220
f 222/222/222 221/221/221 220/220/220
f 223/223/223 221/221/221 222/222/222
f 224/224/224 223/223/223 222/222/222
f 218/218/218 223/223/223 224/224/224
f 217/217/217 218/218/218 224/224/224
f 227/227/227 226/226/226 225/225/225
f 228/228/228 227/227/227 225/225/225
f 229/229/229 227/227/227 228/228/228
f 230/230/230 229/229/229 228/228/228
f 231/231/231 229/229/229 230/230/230
f 232/232/232 231/231/231 230/230/230
f 226/226/226 231/231/231 232/232/232
f 225/225/225 226/226/226 232/232/232
f 235/235/235 234/234/234 233/233/233
f 236/236/236 235/235/235 233/233/233
f 237/237/237 235/235/235 236/236/236
f 238/238/238 237/237/237 236/236/236
f 239/239/239 237/237/237 238/238/238
f 240/240/240 239/239/239 238/238/238
f 234/234/234 239/239/239 240/240/240
f 233/233/233 234/234/234 240/240/240
f 243/243/243 242/242/242 241/241/241
f 244/244/244 243/243/243 241/241/241
f 245/245/245 243/243/243 244/244/244
f 246/246/246 245/245/245 244/244/244
f 247/247/247 245/245/245 246/246/246
f 248/248/248 247/247/247 246/246/246
f 242/242/242 247/247/247 248/248/248
f 241/241/241 242/242/242 248/248/248
f 251/251/251 250/250/250 249/249/249
f 252/252/252 251/251/251 249/249/249
f 253/253/253 251/251/251 252/252/252
f 254/254/254 253/253/253 252/252/252
f 255/255/255 253/253/253 254/254/254
f 256/256/256 255/255/255 254/254/254
f 250/250/250 255/255/255 256/256/256
f 249/249/249 250/250/250 256/256/256
f 259/259/259 258/258/258 257/257/257
f 260/260/260 259/259/259 257/257/257
f 261/261/261 259/259/259 260/260/260
f 262/262/262 261/261/261 260/260/260
f 263/263/263 261/261/261 262/262/262
f 264/264/264 263/263/263 262/262/262
f 258/258/258 263/263/263 264/264/264
f 257/257/257 258/258/258 264/264/264
f 267/267/267 266/266/266 265/265/265
f 268/268/268 267/267/267 265/265/265
f 271/271/271 270/270/270 269/269/269
f 272/272/272 271/271/271 269/269/269
f 275/275/275 274/274/274 273/273/273
f 276/276/276 275/275/275 273/273/273
f 279/279/279 278/278/278 277/277/277
f 280/280/280 279/279/279 277/277/277
f 283/283/283 282/282/282 281/281/281
f 284/284/284 283/283/283 281/281/281
f 287/287/287 286/286/286 285/285/285
f 288/288/288 287/287/287 285/285/285
f 291/291/291 290/290/290 289/289/289
f 292/292/292 291/291/291 289/289/289
f 295/295/295 294/294/294 293/293/293
f 296/296/296 295/295/295 293/293/293
f 299/299/299 298/298/298 297/297/297
f 300/300/300 299/299/299 297/297/297
f 303/303/303 302/302/302 301/301/301
f 304/304/304 303/303/303 301/301/301
f 307/307/307 306/306/306 305/305/305
f 308/308/308 307/307/307 305/305/305
f 311/311/311 310/310/310 309/309/309
f 312/312/312 311/311/311 309/309/309
f 315/315/315 314/314/314 313/313/313
f 316/316/316 315/315/315 313/313/313
f 319/319/319 318/318/318 317/317/317
f 320/320/320 319/319/319 317/317/317
f 323/323/323 322/322/322 321/321/321
f 324/324/324 323/323/323 321/321/321
f 327/327/327 326/326/326 325/325/325
f 328/328/328 327/327/327 325/325/325
f 331/331/331 330/330/330 329/329/329
f 332/332/332 331/331/331 329/329/329
f 335/335/335 334/334/334 333/333/333
f 336/336/336 335/335/335 333/333/333
f 339/339/339 338/338/338 337/337/337
f 340/340/340 339/339/339 337/337/337
f 343/343/343 342/342/342 341/341/341
f 344/344/344 343/343/343 341/341/341
f 347/347/347 346/346/346 345/345/345
f 348/348/348 347/347/347 345/345/345
f 351/351/351 350/350/350 349/349/349
f 352/352/352 351/351/351 349/349/349
f 355/355/355 354/354/354 353/353/353
f 356/356/356 355/355/355 353/353/353
f 359/359/359 358/358/358 357/357/357
f 360/360/360 359/359/359 357/357/357
f 363/363/363 362/362/362 361/361/361
f 364/364/364 363/363/363 361/361/361
f 367/367/367 366/366/366 365/365/365
f 368/368/368 367/367/367 365/365/365
f 371/371/371 370/370/370 369/369/369
f 372/372/372 371/371/371 369/369/369
f 375/375/375 374/374/374 373/373/373
f 376/376/376 375/375/375 373/373/373
f 379/379/379 378/378/378 377/377/377
f 380/380/380 379/379/379 377/377/377
f 383/383/383 382/382/382 381/381/381
f 384/384/384 383/383/383 381/381/381
f 387/387/387 386/386/386 385/385/385
f 388/388/388 387/387/387 385/385/385
f 391/391/391 390/390/390 389/389/389
f 392/392/392 391/391/391 389/389/389
f 395/395/395 394/394/394 393/393/393
f 396/396/396 395/395/395 393/393/393
f 399/399/399 398/398/398 397/397/397
f 400/400/400 399/399/399 397/397/397
f 403/403/403 402/402/402 401/401/401
f 404/404/404 403/403/403 401/401/401
f 407/407/407 406/406/406 405/405/405
f 408/408/408 407/407/407 405/405/405
f 411/411/411 410/410/410 409/409/409
f 412/412/412 411/411/411 409/409/409
f 415/415/415 414/414/414 413/413/413
f 416/416/416 415/415/415 413/413/413
f 419/419/419 418/418/418 417/417/417
f 420/420/420 419/419/419 417/417/417
f 423/423/423 422/422/422 421/421/421
f 424/424/424 423/423/423 421/421/421
f 427/427/427 426/426/426 425/425/425
f 428/428/428 427/427/427 425/425/425
f 431/431/431 430/430/430 429/429/429
f 432/432/432 431/431/431 429/429/429
f 435/435/435 434/434/434 433/433/433
f 436/436/436 435/435/435 433/433/433
f 439/439/439 438/438/438 437/437/437
f 440/440/440 439/439/439 437/437/437
f 443/443/443 442/442/442 441/441/441
f 444/444/444 443/443/443 441/441/441
f 447/447/447 446/446/446 445/445/445
f 448/448/448 447/447/447 445/445/445
f 451/451/451 450/450/450 449/449/449
f 452/452/452 451/451/451 449/449/449
f 455/455/455 454/454/454 453/453/453
f 456/456/456 455/455/455 453/453/453
