g Object025_0
v -0.1739289 0.1309168 1.430055
v -0.106289 0.1721119 1.430055
v -0.03864907 0.1309168 1.430055
v -0.1739289 0.03660311 1.430055
v -0.03864906 0.03660313 1.430055
v -0.1739289 0.03660311 1.430055
v -0.1739289 -9.536743E-09 1.430055
v -0.1739289 0.03660311 1.401665
v -0.1739289 0.03660311 1.348773
v -0.1739289 -9.536743E-09 1.333862
v -0.1739289 0.03660311 1.333862
v -0.1739289 0.03660311 1.333862
v -0.1739289 0.09957024 1.333862
v -0.1739289 0.03660311 1.348773
v -0.1739289 0.09957024 1.348773
v -0.1739289 0.1309168 1.430055
v -0.1739289 0.09957024 1.401665
v -0.1739289 0.03660311 1.401665
v -0.1739289 0.03660311 1.430055
v -0.1739288 0.1309168 1.131884
v -0.1739289 0.09957024 1.228078
v -0.1739289 0.09957024 1.213166
v -0.1739288 0.03660311 1.213166
v -0.1739289 0.03660311 1.228078
v -0.1739288 0.09957024 1.160275
v -0.1739288 0.03660311 1.160275
v -0.1739288 0.03660311 1.131884
v -0.1689289 0.03660311 1.401665
v -0.1689289 0.03660311 1.375219
v -0.1689289 0.09957024 1.401665
v -0.1689289 0.09957024 1.375219
v -0.1689289 0.03660311 1.375219
v -0.1689289 0.03660311 1.348773
v -0.1689289 0.09957024 1.375219
v -0.1689289 0.09957024 1.348773
v -0.1689289 -9.536743E-09 1.307416
v -0.1689289 0.03660311 1.307416
v -0.1689289 -9.536743E-09 1.333862
v -0.1689289 0.03660311 1.333862
v -0.1689289 0.09957024 1.333862
v -0.1689289 0.09957024 1.307416
v -0.1689289 -9.536743E-09 1.28097
v -0.1689289 0.03660311 1.28097
v -0.1689289 -9.536743E-09 1.307416
v -0.1689289 0.03660311 1.307416
v -0.1689289 0.09957024 1.307416
v -0.1689289 0.09957024 1.28097
v -0.1739288 0.1309168 1.131884
v -0.03864899 0.1309168 1.131884
v -0.1062889 0.1721119 1.131884
v -0.1739288 0.03660311 1.131884
v -0.03864898 0.03660313 1.131884
v -0.1739288 0.03660311 1.131884
v -0.1739288 0.03660311 1.160275
v -0.1739288 -9.536743E-09 1.131884
v -0.1739288 0.03660311 1.213166
v -0.1739288 -9.536743E-09 1.228078
v -0.1739289 0.03660311 1.228078
v -0.1689289 0.09957024 1.18672
v -0.1689288 0.03660311 1.18672
v -0.1689288 0.09957024 1.160275
v -0.1689288 0.03660311 1.160275
v -0.1689289 0.09957024 1.213166
v -0.1689288 0.03660311 1.213166
v -0.1689289 0.09957024 1.18672
v -0.1689288 0.03660311 1.18672
v -0.1689288 -9.536743E-09 1.254524
v -0.1689288 -9.536743E-09 1.228078
v -0.1689289 0.03660311 1.254524
v -0.1689289 0.03660311 1.228078
v -0.1689289 0.09957024 1.254524
v -0.1689289 0.09957024 1.228078
v -0.1689289 -9.536743E-09 1.28097
v -0.1689288 -9.536743E-09 1.254524
v -0.1689289 0.03660311 1.28097
v -0.1689289 0.03660311 1.254524
v -0.1689289 0.09957024 1.28097
v -0.1689289 0.09957024 1.254524
v -0.03864898 0.03660313 1.131884
v -0.03864906 0.03660313 1.430055
v -0.03864899 0.1309168 1.131884
v -0.03864907 0.1309168 1.430055
v -0.1739289 0.03660311 1.401665
v -0.1739289 0.03660311 1.375219
v -0.1689289 0.03660311 1.401665
v -0.1689289 0.03660311 1.375219
v -0.1739289 0.03660311 1.348773
v -0.1689289 0.03660311 1.348773
v -0.1739289 0.09957024 1.401665
v -0.1739289 0.03660311 1.401665
v -0.1689289 0.09957024 1.401665
v -0.1689289 0.03660311 1.401665
v -0.1689289 0.09957024 1.401665
v -0.1689289 0.09957024 1.375219
v -0.1739289 0.09957024 1.401665
v -0.1739289 0.09957024 1.375219
v -0.1689289 0.09957024 1.348773
v -0.1739289 0.09957024 1.348773
v -0.1739289 0.03660311 1.348773
v -0.1739289 0.09957024 1.348773
v -0.1689289 0.03660311 1.348773
v -0.1689289 0.09957024 1.348773
v -0.1689289 0.03660311 1.333862
v -0.1739289 0.03660311 1.333862
v -0.1689289 -9.536743E-09 1.333862
v -0.1739289 -9.536743E-09 1.333862
v -0.1689289 0.09957024 1.333862
v -0.1689289 0.09957024 1.307416
v -0.1739289 0.09957024 1.333862
v -0.1739289 0.09957024 1.307416
v -0.1689289 0.09957024 1.28097
v -0.1739289 0.09957024 1.28097
v -0.1689289 0.09957024 1.254524
v -0.1739289 0.09957024 1.254524
v -0.1689289 0.09957024 1.228078
v -0.1739289 0.09957024 1.228078
v -0.1689289 0.03660311 1.228078
v -0.1739289 0.03660311 1.228078
v -0.1689289 0.09957024 1.228078
v -0.1739289 0.09957024 1.228078
v -0.1689288 0.03660311 1.160275
v -0.1689288 0.03660311 1.18672
v -0.1739288 0.03660311 1.160275
v -0.1739288 0.03660311 1.18672
v -0.1689288 0.03660311 1.213166
v -0.1739288 0.03660311 1.213166
v -0.1739289 0.09957024 1.213166
v -0.1739288 0.03660311 1.213166
v -0.1689289 0.09957024 1.213166
v -0.1689288 0.03660311 1.213166
v -0.1689289 0.09957024 1.213166
v -0.1689289 0.09957024 1.18672
v -0.1739289 0.09957024 1.213166
v -0.1739289 0.09957024 1.18672
v -0.1689288 0.09957024 1.160275
v -0.1739288 0.09957024 1.160275
v -0.1739288 0.03660311 1.160275
v -0.1739288 0.09957024 1.160275
v -0.1689288 0.03660311 1.160275
v -0.1689288 0.09957024 1.160275
v -0.03864905 9.536743E-09 1.430055
v -0.1739289 -9.536743E-09 1.430055
v -0.03864906 0.03660313 1.430055
v -0.1739289 0.03660311 1.430055
v -0.1739288 -9.536743E-09 1.131884
v -0.03864898 9.536743E-09 1.131884
v -0.1739288 0.03660311 1.131884
v -0.03864898 0.03660313 1.131884
v -0.03864898 9.536743E-09 1.131884
v -0.03864905 9.536743E-09 1.430055
v -0.03864898 0.03660313 1.131884
v -0.03864906 0.03660313 1.430055
v -0.1689289 0.09957024 1.333862
v -0.1739289 0.09957024 1.333862
v -0.1689289 0.03660311 1.333862
v -0.1739289 0.03660311 1.333862
v -0.1689288 -9.536743E-09 1.228078
v -0.1739288 -9.536743E-09 1.228078
v -0.1689289 0.03660311 1.228078
v -0.1739289 0.03660311 1.228078
vt 0.03164673 0.9648438
vt 0.03164673 0.9648438
vt 0.03164673 0.9648438
vt 0.03164673 0.9648438
vt 0.03164673 0.9648438
vt 0.1016846 0.9692383
vt 0.1016846 0.9692383
vt 0.1016846 0.9692383
vt 0.1016846 0.9692383
vt 0.1016846 0.9692383
vt 0.1016846 0.9692383
vt 0.03164673 0.9648438
vt 0.03164673 0.9648438
vt 0.03164673 0.9648438
vt 0.03164673 0.9648438
vt 0.03164673 0.9648438
vt 0.03164673 0.9648438
vt 0.03164673 0.9648438
vt 0.03164673 0.9648438
vt 0.03164673 0.9648438
vt 0.03164673 0.9648438
vt 0.03164673 0.9648438
vt 0.03164673 0.9648438
vt 0.03164673 0.9648438
vt 0.03164673 0.9648438
vt 0.03164673 0.9648438
vt 0.03164673 0.9648438
vt 0.06240845 0.7792969
vt 0 0.7792969
vt 0.06240845 0.9360352
vt 0 0.9360352
vt 0.06240845 0.7792969
vt 0 0.7792969
vt 0.06240845 0.9360352
vt 0 0.9360352
vt 0 0.6879883
vt 0 0.7792969
vt 0.06240845 0.6879883
vt 0.06240845 0.7792969
vt 0.06240845 0.9360352
vt 0 0.9360352
vt 0 0.6879883
vt 0 0.7792969
vt 0.06240845 0.6879883
vt 0.06240845 0.7792969
vt 0.06240845 0.9360352
vt 0 0.9360352
vt 0.03164673 0.9648438
vt 0.03164673 0.9648438
vt 0.03164673 0.9648438
vt 0.03164673 0.9648438
vt 0.03164673 0.9648438
vt 0.1016846 0.9692383
vt 0.1016846 0.9692383
vt 0.1016846 0.9692383
vt 0.1016846 0.9692383
vt 0.1016846 0.9692383
vt 0.1016846 0.9692383
vt 0 0.9360352
vt 0 0.7792969
vt 0.06240845 0.9360352
vt 0.06240845 0.7792969
vt 0 0.9360352
vt 0 0.7792969
vt 0.06240845 0.9360352
vt 0.06240845 0.7792969
vt 0 0.6879883
vt 0.06240845 0.6879883
vt 0 0.7792969
vt 0.06240845 0.7792969
vt 0 0.9360352
vt 0.06240845 0.9360352
vt 0 0.6879883
vt 0.06240845 0.6879883
vt 0 0.7792969
vt 0.06240845 0.7792969
vt 0 0.9360352
vt 0.06240845 0.9360352
vt 0.03164673 0.9648438
vt 0.03164673 0.9648438
vt 0.03164673 0.9648438
vt 0.03164673 0.9648438
vt 0.02914429 0.9667969
vt 0.02914429 0.9667969
vt 0.02914429 0.9667969
vt 0.02914429 0.9667969
vt 0.02914429 0.9667969
vt 0.02914429 0.9667969
vt 0.02914429 0.9667969
vt 0.02914429 0.9667969
vt 0.02914429 0.9667969
vt 0.02914429 0.9667969
vt 0.02914429 0.9667969
vt 0.02914429 0.9667969
vt 0.02914429 0.9667969
vt 0.02914429 0.9667969
vt 0.02914429 0.9667969
vt 0.02914429 0.9667969
vt 0.02914429 0.9667969
vt 0.02914429 0.9667969
vt 0.02914429 0.9667969
vt 0.02914429 0.9667969
vt 0.09918213 0.9707031
vt 0.09918213 0.9707031
vt 0.09918213 0.9707031
vt 0.09918213 0.9707031
vt 0.02914429 0.9667969
vt 0.02914429 0.9667969
vt 0.02914429 0.9667969
vt 0.02914429 0.9667969
vt 0.02914429 0.9667969
vt 0.02914429 0.9667969
vt 0.02914429 0.9667969
vt 0.02914429 0.9667969
vt 0.02914429 0.9667969
vt 0.02914429 0.9667969
vt 0.02914429 0.9667969
vt 0.02914429 0.9667969
vt 0.02914429 0.9667969
vt 0.02914429 0.9667969
vt 0.02914429 0.9667969
vt 0.02914429 0.9667969
vt 0.02914429 0.9667969
vt 0.02914429 0.9667969
vt 0.02914429 0.9667969
vt 0.02914429 0.9667969
vt 0.02914429 0.9667969
vt 0.02914429 0.9667969
vt 0.02914429 0.9667969
vt 0.02914429 0.9667969
vt 0.02914429 0.9667969
vt 0.02914429 0.9667969
vt 0.02914429 0.9667969
vt 0.02914429 0.9667969
vt 0.02914429 0.9667969
vt 0.02914429 0.9667969
vt 0.02914429 0.9667969
vt 0.02914429 0.9667969
vt 0.02914429 0.9667969
vt 0.02914429 0.9667969
vt 0.1016846 0.9692383
vt 0.1016846 0.9692383
vt 0.1016846 0.9692383
vt 0.1016846 0.9692383
vt 0.1016846 0.9692383
vt 0.1016846 0.9692383
vt 0.1016846 0.9692383
vt 0.1016846 0.9692383
vt 0.1016846 0.9692383
vt 0.1016846 0.9692383
vt 0.1016846 0.9692383
vt 0.1016846 0.9692383
vt 0.02914429 0.9667969
vt 0.02914429 0.9667969
vt 0.02914429 0.9667969
vt 0.02914429 0.9667969
vt 0.09918213 0.9707031
vt 0.09918213 0.9707031
vt 0.09918213 0.9707031
vt 0.09918213 0.9707031
vn -1.192093E-07 0 1
vn -1.192093E-07 0 1
vn -1.192093E-07 0 1
vn -1.192093E-07 0 1
vn -1.192093E-07 0 1
vn -1 -1.192093E-07 -1.192093E-07
vn -1 -1.192093E-07 -1.192093E-07
vn -1 -1.192093E-07 -1.192093E-07
vn -1 -1.192093E-07 -1.192093E-07
vn -1 -1.192093E-07 -1.192093E-07
vn -1 -1.192093E-07 -1.192093E-07
vn -1 -1.192093E-07 -1.192093E-07
vn -1 -1.192093E-07 -1.192093E-07
vn -1 -1.192093E-07 -1.192093E-07
vn -1 -1.192093E-07 -1.192093E-07
vn -1 -1.192093E-07 -1.192093E-07
vn -1 -1.192093E-07 -1.192093E-07
vn -1 -1.192093E-07 -1.192093E-07
vn -1 -1.192093E-07 -1.192093E-07
vn -1 -1.192093E-07 -1.192093E-07
vn -1 -1.192093E-07 -1.192093E-07
vn -1 -1.192093E-07 -1.192093E-07
vn -1 -1.192093E-07 -1.192093E-07
vn -1 -1.192093E-07 -1.192093E-07
vn -1 -1.192093E-07 -1.192093E-07
vn -1 -1.192093E-07 -1.192093E-07
vn -1 -1.192093E-07 -1.192093E-07
vn -1 -1.192093E-07 -1.192093E-07
vn -1 -1.192093E-07 -1.192093E-07
vn -1 -1.192093E-07 -1.192093E-07
vn -1 -1.192093E-07 -1.192093E-07
vn -1 -1.192093E-07 -1.192093E-07
vn -1 -1.192093E-07 -1.192093E-07
vn -1 -1.192093E-07 -1.192093E-07
vn -1 -1.192093E-07 -1.192093E-07
vn -1 -1.192093E-07 -1.192093E-07
vn -1 -1.192093E-07 -1.192093E-07
vn -1 -1.192093E-07 -1.192093E-07
vn -1 -1.192093E-07 -1.192093E-07
vn -1 -1.192093E-07 -1.192093E-07
vn -1 -1.192093E-07 -1.192093E-07
vn -1 -1.192093E-07 -1.192093E-07
vn -1 -1.192093E-07 -1.192093E-07
vn -1 -1.192093E-07 -1.192093E-07
vn -1 -1.192093E-07 -1.192093E-07
vn -1 -1.192093E-07 -1.192093E-07
vn -1 -1.192093E-07 -1.192093E-07
vn 1.192093E-07 0 -1
vn 1.192093E-07 0 -1
vn 1.192093E-07 0 -1
vn 1.192093E-07 0 -1
vn 1.192093E-07 0 -1
vn -1 -1.192093E-07 -1.192093E-07
vn -1 -1.192093E-07 -1.192093E-07
vn -1 -1.192093E-07 -1.192093E-07
vn -1 -1.192093E-07 -1.192093E-07
vn -1 -1.192093E-07 -1.192093E-07
vn -1 -1.192093E-07 -1.192093E-07
vn -1 -1.192093E-07 -1.192093E-07
vn -1 -1.192093E-07 -1.192093E-07
vn -1 -1.192093E-07 -1.192093E-07
vn -1 -1.192093E-07 -1.192093E-07
vn -1 -1.192093E-07 -1.192093E-07
vn -1 -1.192093E-07 -1.192093E-07
vn -1 -1.192093E-07 -1.192093E-07
vn -1 -1.192093E-07 -1.192093E-07
vn -1 -1.192093E-07 -1.192093E-07
vn -1 -1.192093E-07 -1.192093E-07
vn -1 -1.192093E-07 -1.192093E-07
vn -1 -1.192093E-07 -1.192093E-07
vn -1 -1.192093E-07 -1.192093E-07
vn -1 -1.192093E-07 -1.192093E-07
vn -1 -1.192093E-07 -1.192093E-07
vn -1 -1.192093E-07 -1.192093E-07
vn -1 -1.192093E-07 -1.192093E-07
vn -1 -1.192093E-07 -1.192093E-07
vn -1 -1.192093E-07 -1.192093E-07
vn -1 -1.192093E-07 -1.192093E-07
vn 1 1.192093E-07 1.192093E-07
vn 1 1.192093E-07 1.192093E-07
vn 1 1.192093E-07 1.192093E-07
vn 1 1.192093E-07 1.192093E-07
vn -1.192093E-07 1 0
vn -1.192093E-07 1 0
vn -1.192093E-07 1 0
vn -1.192093E-07 1 0
vn -1.192093E-07 1 0
vn -1.192093E-07 1 0
vn 1.192093E-07 0 -1
vn 1.192093E-07 0 -1
vn 1.192093E-07 0 -1
vn 1.192093E-07 0 -1
vn 1.192093E-07 -1 0
vn 1.192093E-07 -1 0
vn 1.192093E-07 -1 0
vn 1.192093E-07 -1 0
vn 1.192093E-07 -1 0
vn 1.192093E-07 -1 0
vn -1.192093E-07 0 1
vn -1.192093E-07 0 1
vn -1.192093E-07 0 1
vn -1.192093E-07 0 1
vn 1.192093E-07 0 -1
vn 1.192093E-07 0 -1
vn 1.192093E-07 0 -1
vn 1.192093E-07 0 -1
vn 1.192093E-07 -1 0
vn 1.192093E-07 -1 0
vn 1.192093E-07 -1 0
vn 1.192093E-07 -1 0
vn 1.192093E-07 -1 0
vn 1.192093E-07 -1 0
vn 1.192093E-07 -1 0
vn 1.192093E-07 -1 0
vn 1.192093E-07 -1 0
vn 1.192093E-07 -1 0
vn -1.192093E-07 0 1
vn -1.192093E-07 0 1
vn -1.192093E-07 0 1
vn -1.192093E-07 0 1
vn -1.192093E-07 1 0
vn -1.192093E-07 1 0
vn -1.192093E-07 1 0
vn -1.192093E-07 1 0
vn -1.192093E-07 1 0
vn -1.192093E-07 1 0
vn 1.5378E-05 0 -1
vn 1.5378E-05 0 -1
vn 1.5378E-05 0 -1
vn 1.5378E-05 0 -1
vn 1.192093E-07 -1 0
vn 1.192093E-07 -1 0
vn 1.192093E-07 -1 0
vn 1.192093E-07 -1 0
vn 1.192093E-07 -1 0
vn 1.192093E-07 -1 0
vn -1.192093E-07 0 1
vn -1.192093E-07 0 1
vn -1.192093E-07 0 1
vn -1.192093E-07 0 1
vn -1.192093E-07 0 1
vn -1.192093E-07 0 1
vn -1.192093E-07 0 1
vn -1.192093E-07 0 1
vn 1.192093E-07 0 -1
vn 1.192093E-07 0 -1
vn 1.192093E-07 0 -1
vn 1.192093E-07 0 -1
vn 1 1.192093E-07 1.192093E-07
vn 1 1.192093E-07 1.192093E-07
vn 1 1.192093E-07 1.192093E-07
vn 1 1.192093E-07 1.192093E-07
vn 1.192093E-07 0 -1
vn 1.192093E-07 0 -1
vn 1.192093E-07 0 -1
vn 1.192093E-07 0 -1
vn -1.192093E-07 0 1
vn -1.192093E-07 0 1
vn -1.192093E-07 0 1
vn -1.192093E-07 0 1
g Object025_0_0
f 3/3/3 2/2/2 1/1/1
f 4/4/4 3/3/3 1/1/1
f 3/3/3 4/4/4 5/5/5
f 8/8/8 7/7/7 6/6/6
f 9/9/9 7/7/7 8/8/8
f 10/10/10 7/7/7 9/9/9
f 9/9/9 11/11/11 10/10/10
f 14/14/14 13/13/13 12/12/12
f 13/13/13 14/14/14 15/15/15
f 16/16/16 13/13/13 15/15/15
f 16/16/16 15/15/15 17/17/17
f 18/18/18 16/16/16 17/17/17
f 16/16/16 18/18/18 19/19/19
f 16/16/16 20/20/20 13/13/13
f 13/13/13 20/20/20 21/21/21
f 21/21/21 20/20/20 22/22/22
f 23/23/23 21/21/21 22/22/22
f 21/21/21 23/23/23 24/24/24
f 22/22/22 20/20/20 25/25/25
f 20/20/20 26/26/26 25/25/25
f 26/26/26 20/20/20 27/27/27
f 30/30/30 29/29/29 28/28/28
f 29/29/29 30/30/30 31/31/31
f 34/34/34 33/33/33 32/32/32
f 33/33/33 34/34/34 35/35/35
f 38/38/38 37/37/37 36/36/36
f 37/37/37 38/38/38 39/39/39
f 40/40/40 37/37/37 39/39/39
f 37/37/37 40/40/40 41/41/41
f 44/44/44 43/43/43 42/42/42
f 43/43/43 44/44/44 45/45/45
f 46/46/46 43/43/43 45/45/45
f 43/43/43 46/46/46 47/47/47
f 50/50/50 49/49/49 48/48/48
f 49/49/49 51/51/51 48/48/48
f 51/51/51 49/49/49 52/52/52
f 55/55/55 54/54/54 53/53/53
f 55/55/55 56/56/56 54/54/54
f 55/55/55 57/57/57 56/56/56
f 58/58/58 56/56/56 57/57/57
f 61/61/61 60/60/60 59/59/59
f 60/60/60 61/61/61 62/62/62
f 65/65/65 64/64/64 63/63/63
f 64/64/64 65/65/65 66/66/66
f 69/69/69 68/68/68 67/67/67
f 68/68/68 69/69/69 70/70/70
f 71/71/71 70/70/70 69/69/69
f 70/70/70 71/71/71 72/72/72
f 75/75/75 74/74/74 73/73/73
f 74/74/74 75/75/75 76/76/76
f 77/77/77 76/76/76 75/75/75
f 76/76/76 77/77/77 78/78/78
f 81/81/81 80/80/80 79/79/79
f 80/80/80 81/81/81 82/82/82
f 85/85/85 84/84/84 83/83/83
f 84/84/84 85/85/85 86/86/86
f 86/86/86 87/87/87 84/84/84
f 87/87/87 86/86/86 88/88/88
f 91/91/91 90/90/90 89/89/89
f 90/90/90 91/91/91 92/92/92
f 95/95/95 94/94/94 93/93/93
f 94/94/94 95/95/95 96/96/96
f 96/96/96 97/97/97 94/94/94
f 97/97/97 96/96/96 98/98/98
f 101/101/101 100/100/100 99/99/99
f 100/100/100 101/101/101 102/102/102
f 105/105/105 104/104/104 103/103/103
f 104/104/104 105/105/105 106/106/106
f 109/109/109 108/108/108 107/107/107
f 108/108/108 109/109/109 110/110/110
f 110/110/110 111/111/111 108/108/108
f 111/111/111 110/110/110 112/112/112
f 112/112/112 113/113/113 111/111/111
f 113/113/113 112/112/112 114/114/114
f 114/114/114 115/115/115 113/113/113
f 115/115/115 114/114/114 116/116/116
f 119/119/119 118/118/118 117/117/117
f 118/118/118 119/119/119 120/120/120
f 123/123/123 122/122/122 121/121/121
f 122/122/122 123/123/123 124/124/124
f 124/124/124 125/125/125 122/122/122
f 125/125/125 124/124/124 126/126/126
f 129/129/129 128/128/128 127/127/127
f 128/128/128 129/129/129 130/130/130
f 133/133/133 132/132/132 131/131/131
f 132/132/132 133/133/133 134/134/134
f 134/134/134 135/135/135 132/132/132
f 135/135/135 134/134/134 136/136/136
f 139/139/139 138/138/138 137/137/137
f 138/138/138 139/139/139 140/140/140
f 143/143/143 142/142/142 141/141/141
f 142/142/142 143/143/143 144/144/144
f 147/147/147 146/146/146 145/145/145
f 146/146/146 147/147/147 148/148/148
f 151/151/151 150/150/150 149/149/149
f 150/150/150 151/151/151 152/152/152
f 155/155/155 154/154/154 153/153/153
f 154/154/154 155/155/155 156/156/156
f 159/159/159 158/158/158 157/157/157
f 158/158/158 159/159/159 160/160/160
