g Object004
v -0.7123904 -0.8947134 1.994507
v 0.8665394 -1.108383 1.889889
v 0.4878641 -1.280284 1.994507
v -0.578613 0.5523107 1.994507
v -0.7123904 -0.8947134 1.994507
v -1.009794 -1.141778 1.994507
v 0.4878641 -1.280284 1.994507
v -0.8256776 0.8497143 1.994507
v 0.8683126 0.4185331 1.994507
v 1.165815 0.6655979 1.994507
v 0.6474515 0.7087455 2.64783
v 0.6474515 -0.2331154 2.64783
v 0.4060018 -0.4973211 2.64783
v 0.4060018 0.9728529 2.64783
v 1.508534 0.7087455 2.64783
v 1.749984 0.9728529 2.64783
v 1.508534 -0.2331154 2.64783
v 1.749984 -0.4973211 2.64783
v 1.412289 0.6340744 4.705916
v 0.6474515 -0.2331154 4.625335
v 0.6474515 0.7087455 4.453138
v 1.434552 -0.2331154 4.574898
v 1.412289 0.6340744 4.705916
v 1.508534 0.7087455 2.64783
v 1.508534 -0.2331154 2.64783
v 0.4060018 0.9728529 2.64783
v 0.4060018 0.9728529 -0.005555749
v 1.749984 0.9728529 -0.005555749
v 1.749984 0.9728529 2.64783
v 1.434552 -0.2331154 4.574898
v 1.508534 -0.2331154 2.64783
v 0.6474515 -0.2331154 2.64783
v 0.6474515 -0.2331154 4.625335
v -0.4664092 0.5418684 3.773611
v 0.7809336 0.280618 4.019888
v 0.1979471 -0.5297312 4.235626
v -1.321975 0.9728529 3.311202
v -1.321975 0.9728529 -0.005555749
v -0.5219693 0.9728529 -0.005555749
v -0.5219693 0.9728529 3.311202
v -0.5219693 0.9728529 3.311202
v -0.5219693 0.9728529 -0.005555749
v -0.5219693 -0.4973211 -0.005555749
v -0.5219693 -0.4973211 3.311202
v -0.5219693 -0.4973211 3.311202
v -0.5219693 -0.4973211 -0.005555749
v -1.321975 -0.4973211 -0.005555749
v -1.321975 -0.4973211 3.311202
v 0.8665394 -1.108383 1.889889
v 1.165815 0.6655979 1.994507
v 1.165815 0.6655979 -0.005555749
v -1.321975 -0.4973211 3.311202
v -1.321975 -0.4973211 -0.005555749
v -1.321975 0.9728529 -0.005555749
v -1.321975 0.9728529 3.311202
v -1.009794 -1.141778 1.994507
v -0.9659569 -1.038047 -0.004767656
v -0.8738496 0.8057787 -0.004767656
v 0.5988858 -1.290529 -0.005555749
v 0.4878641 -1.280284 1.994507
v 0.8665394 -1.108383 1.889889
v -0.7123904 -0.8947134 3.854686
v 0.1979471 -0.5297312 4.235626
v 0.7346336 -1.028491 3.396118
v 0.7346336 -1.028491 3.396118
v 0.8665394 -1.108383 1.889889
v -0.7123904 -0.8947134 1.994507
v 0.1979471 -0.5297312 4.235626
v 0.7809336 0.280618 4.019888
v 0.7346336 -1.028491 3.396118
v -0.4664092 0.5418684 3.773611
v -0.578613 0.5523107 1.994507
v 0.8683126 0.4185331 1.994507
v 0.6474515 0.7087455 4.453138
v 0.6474515 0.7087455 2.64783
v 1.508534 0.7087455 2.64783
v -0.9659569 -1.038047 -0.004767656
v -1.009794 -1.141778 1.994507
v 0.4878641 -1.280284 1.994507
v 1.165815 0.6655979 1.994507
v 0.8665394 -1.108383 1.889889
v 0.8683126 0.4185331 1.994507
v 1.749984 -0.4973211 2.64783
v 1.749984 -0.4973211 -0.005555749
v 0.4060018 -0.4973211 -0.005555749
v 0.4060018 -0.4973211 2.64783
v -0.5219693 -0.4973211 3.311202
v -1.321975 -0.4973211 3.311202
v -1.321975 0.9728529 3.311202
v -0.5219693 0.9728529 3.311202
v -0.7123904 -0.8947134 1.994507
v -0.578613 0.5523107 1.994507
v -0.4664092 0.5418684 3.773611
v 0.8683126 0.4185331 1.994507
v 0.8665394 -1.108383 1.889889
v 0.7346336 -1.028491 3.396118
v 0.6474515 -0.2331154 2.64783
v 0.6474515 0.7087455 2.64783
v 0.6474515 0.7087455 4.453138
v 0.6474515 -0.2331154 4.625335
v 0.6474515 -0.2331154 4.625335
v 1.412289 0.6340744 4.705916
v 1.434552 -0.2331154 4.574898
v 1.749984 0.9728529 2.64783
v 1.749984 0.9728529 -0.005555749
v 1.749984 -0.4973211 -0.005555749
v 1.749984 -0.4973211 2.64783
v 0.4060018 -0.4973211 2.64783
v 0.4060018 -0.4973211 -0.005555749
v 0.4060018 0.9728529 -0.005555749
v 0.4060018 0.9728529 2.64783
v -0.8256776 0.8497143 1.994507
v -0.8738496 0.8057787 -0.004767656
v 1.165815 0.6655979 -0.005555749
v 1.165815 0.6655979 1.994507
v -0.4664092 0.5418684 3.773611
v 0.1979471 -0.5297312 4.235626
v -0.7123904 -0.8947134 3.854686
v 0.8665394 -1.108383 1.889889
v 1.165815 0.6655979 -0.005555749
v 1.013517 -0.9811074 -0.005555749
v -1.009794 -1.141778 1.994507
v -0.8738496 0.8057787 -0.004767656
v -0.8256776 0.8497143 1.994507
v 0.7346336 -1.028491 3.396118
v -0.7123904 -0.8947134 1.994507
v -0.7123904 -0.8947134 3.854686
v -0.4664092 0.5418684 3.773611
v 0.8683126 0.4185331 1.994507
v 0.7809336 0.280618 4.019888
v 0.6474515 0.7087455 4.453138
v 1.508534 0.7087455 2.64783
v 1.412289 0.6340744 4.705916
v -0.9659569 -1.038047 -0.004767656
v 0.4878641 -1.280284 1.994507
v 0.5988858 -1.290529 -0.005555749
v -0.7123904 -0.8947134 1.994507
v -0.4664092 0.5418684 3.773611
v -0.7123904 -0.8947134 3.854686
v 0.8683126 0.4185331 1.994507
v 0.7346336 -1.028491 3.396118
v 0.7809336 0.280618 4.019888
v 0.5988858 -1.290529 -0.005555749
v 0.8665394 -1.108383 1.889889
v 1.013517 -0.9811074 -0.005555749
vn 0.1058815 0.3333309 0.9368455
vn 0.1058815 0.3333309 0.9368455
vn 0.1058815 0.3333309 0.9368455
vn -0.003921628 0.003921628 0.9999846
vn -0.003921628 0.003921628 0.9999846
vn -0.003921628 0.003921628 0.9999846
vn -0.003921628 0.003921628 0.9999846
vn -0.003921628 0.003921628 0.9999846
vn -0.003921628 0.003921628 0.9999846
vn -0.003921628 0.003921628 0.9999846
vn -0.003921628 0.003921628 0.9999846
vn -0.003921628 0.003921628 0.9999846
vn -0.003921628 0.003921628 0.9999846
vn -0.003921628 0.003921628 0.9999846
vn -0.003921628 0.003921628 0.9999846
vn -0.003921628 0.003921628 0.9999846
vn -0.003921628 0.003921628 0.9999846
vn -0.003921628 0.003921628 0.9999846
vn -0.2941154 0.1686262 0.940777
vn -0.2941154 0.1686262 0.940777
vn -0.2941154 0.1686262 0.940777
vn 0.9999924 0.01960778 0
vn 0.9999924 0.01960778 0
vn 0.9999924 0.01960778 0
vn 0.9999924 0.003921628 0
vn -0.003921628 0.9999924 0
vn -0.003921628 0.9999924 0
vn -0.003921628 0.9999924 0
vn -0.003921628 0.9999924 0
vn -0.003921628 -0.9999924 0
vn -0.003921628 -0.9999924 0
vn -0.003921628 -0.9999924 0
vn -0.003921628 -0.9999924 0
vn -0.1137247 0.3333309 0.9359259
vn -0.1137247 0.3333309 0.9359259
vn -0.1137247 0.3333309 0.9359259
vn -0.003921628 0.9999924 0
vn -0.003921628 0.9999924 0
vn -0.003921628 0.9999924 0
vn -0.003921628 0.9999924 0
vn 0.9999924 0.003921628 0
vn 0.9999924 0.003921628 0
vn 0.9999924 0.003921628 0
vn 0.9999924 0.003921628 0
vn -0.003921628 -0.9999924 0
vn -0.003921628 -0.9999924 0
vn -0.003921628 -0.9999924 0
vn -0.003921628 -0.9999924 0
vn 0.9843062 -0.1686261 -0.05202412
vn 0.9843062 -0.1686261 -0.05202412
vn 0.9843062 -0.1686261 -0.05202412
vn -0.9999924 0.003921628 0
vn -0.9999924 0.003921628 0
vn -0.9999924 0.003921628 0
vn -0.9999924 0.003921628 0
vn -0.9999924 0.05098009 0
vn -0.9999924 0.05098009 0
vn -0.9999924 0.05098009 0
vn 0.4196046 -0.9058754 0.05763374
vn 0.4196046 -0.9058754 0.05763374
vn 0.4196046 -0.9058754 0.05763374
vn 0.09803843 -0.8274447 0.552923
vn 0.09803843 -0.8274447 0.552923
vn 0.09803843 -0.8274447 0.552923
vn -0.1294109 -0.9921493 0
vn -0.1294109 -0.9921493 0
vn -0.1294109 -0.9921493 0
vn 0.6941123 -0.3333308 0.6380429
vn 0.6941123 -0.3333308 0.6380429
vn 0.6941123 -0.3333308 0.6380429
vn 0.09019536 0.9921494 -0.0866283
vn 0.09019536 0.9921494 -0.0866283
vn 0.09019536 0.9921494 -0.0866283
vn -0.003921628 0.9999924 0
vn -0.003921628 0.9999924 0
vn -0.003921628 0.9999924 0
vn -0.09019542 -0.9921493 -0.086629
vn -0.09019542 -0.9921493 -0.086629
vn -0.09019542 -0.9921493 -0.086629
vn 0.05882305 -0.06666613 0.9960399
vn 0.05882305 -0.06666613 0.9960399
vn 0.05882305 -0.06666613 0.9960399
vn -0.003921628 -0.9999924 0
vn -0.003921628 -0.9999924 0
vn -0.003921628 -0.9999924 0
vn -0.003921628 -0.9999924 0
vn -0.003921628 0.003921628 0.9999846
vn -0.003921628 0.003921628 0.9999846
vn -0.003921628 0.003921628 0.9999846
vn -0.003921628 0.003921628 0.9999846
vn -0.9921494 0.09019542 0.08662822
vn -0.9921494 0.09019542 0.08662822
vn -0.9921494 0.09019542 0.08662822
vn 0.9999924 -0.003921509 0
vn 0.9999924 -0.003921509 0
vn 0.9999924 -0.003921509 0
vn -0.9999924 0.003921628 0
vn -0.9999924 0.003921628 0
vn -0.9999924 0.003921628 0
vn -0.9999924 0.003921628 0
vn 0.06666613 -0.1450969 0.9871689
vn 0.06666613 -0.1450969 0.9871689
vn 0.06666613 -0.1450969 0.9871689
vn 0.9999924 0.003921628 0
vn 0.9999924 0.003921628 0
vn 0.9999924 0.003921628 0
vn 0.9999924 0.003921628 0
vn -0.9999924 0.003921628 0
vn -0.9999924 0.003921628 0
vn -0.9999924 0.003921628 0
vn -0.9999924 0.003921628 0
vn 0.06666613 0.9999924 0
vn 0.06666613 0.9999924 0
vn 0.06666613 0.9999924 0
vn 0.09019536 0.9921494 -0.0866283
vn -0.4274478 0.1215677 0.895829
vn -0.4274478 0.1215677 0.895829
vn -0.4274478 0.1215677 0.895829
vn 0.9921493 -0.09019536 0.08662897
vn 0.9921493 -0.09019536 0.08662897
vn 0.9921493 -0.09019536 0.08662897
vn -0.9921494 0.09019542 0.08662822
vn -0.9921494 0.09019542 0.08662822
vn -0.9921494 0.09019542 0.08662822
vn -0.09019542 -0.9921493 -0.086629
vn -0.09019542 -0.9921493 -0.086629
vn -0.09019542 -0.9921493 -0.086629
vn 0.1921554 0.9764632 0.09795882
vn 0.1921554 0.9764632 0.09795882
vn 0.1921554 0.9764632 0.09795882
vn 0.08235228 0.9921494 0.09411582
vn 0.08235228 0.9921494 0.09411582
vn 0.08235228 0.9921494 0.09411582
vn -0.1607832 -0.9843062 -0.07273261
vn -0.1607832 -0.9843062 -0.07273261
vn -0.1607832 -0.9843062 -0.07273261
vn -0.9843062 0.1686262 -0.05202392
vn -0.9843062 0.1686262 -0.05202392
vn -0.9843062 0.1686262 -0.05202392
vn 0.9999924 -0.05097997 0
vn 0.9999924 -0.05097997 0
vn 0.9999924 -0.05097997 0
vn 0.5999954 -0.8039154 0
vn 0.5999954 -0.8039154 0
vn 0.5999954 -0.8039154 0
g Object004_0
f 3/3/3 2/2/2 1/1/1
f 6/6/6 5/5/5 4/4/4
f 6/6/6 7/7/7 5/5/5
f 8/8/8 6/6/6 4/4/4
f 8/8/8 4/4/4 9/9/9
f 10/10/10 8/8/8 9/9/9
f 13/13/13 12/12/12 11/11/11
f 14/14/14 13/13/13 11/11/11
f 14/14/14 11/11/11 15/15/15
f 16/16/16 14/14/14 15/15/15
f 16/16/16 15/15/15 17/17/17
f 12/12/12 13/13/13 17/17/17
f 13/13/13 18/18/18 17/17/17
f 18/18/18 16/16/16 17/17/17
f 21/21/21 20/20/20 19/19/19
f 24/24/24 23/23/23 22/22/22
f 25/25/25 24/24/24 22/22/22
f 28/28/28 27/27/27 26/26/26
f 29/29/29 28/28/28 26/26/26
f 32/32/32 31/31/31 30/30/30
f 33/33/33 32/32/32 30/30/30
f 36/36/36 35/35/35 34/34/34
f 39/39/39 38/38/38 37/37/37
f 40/40/40 39/39/39 37/37/37
f 43/43/43 42/42/42 41/41/41
f 44/44/44 43/43/43 41/41/41
f 47/47/47 46/46/46 45/45/45
f 48/48/48 47/47/47 45/45/45
f 51/51/51 50/50/50 49/49/49
f 54/54/54 53/53/53 52/52/52
f 55/55/55 54/54/54 52/52/52
f 58/58/58 57/57/57 56/56/56
f 61/61/61 60/60/60 59/59/59
f 64/64/64 63/63/63 62/62/62
f 67/67/67 66/66/66 65/65/65
f 70/70/70 69/69/69 68/68/68
f 73/73/73 72/72/72 71/71/71
f 76/76/76 75/75/75 74/74/74
f 79/79/79 78/78/78 77/77/77
f 82/82/82 81/81/81 80/80/80
f 85/85/85 84/84/84 83/83/83
f 86/86/86 85/85/85 83/83/83
f 89/89/89 88/88/88 87/87/87
f 90/90/90 89/89/89 87/87/87
f 93/93/93 92/92/92 91/91/91
f 96/96/96 95/95/95 94/94/94
f 99/99/99 98/98/98 97/97/97
f 100/100/100 99/99/99 97/97/97
f 103/103/103 102/102/102 101/101/101
f 106/106/106 105/105/105 104/104/104
f 107/107/107 106/106/106 104/104/104
f 110/110/110 109/109/109 108/108/108
f 111/111/111 110/110/110 108/108/108
f 114/114/114 113/113/113 112/112/112
f 115/115/115 114/114/114 112/112/112
f 118/118/118 117/117/117 116/116/116
f 121/121/121 120/120/120 119/119/119
f 124/124/124 123/123/123 122/122/122
f 127/127/127 126/126/126 125/125/125
f 130/130/130 129/129/129 128/128/128
f 133/133/133 132/132/132 131/131/131
f 136/136/136 135/135/135 134/134/134
f 139/139/139 138/138/138 137/137/137
f 142/142/142 141/141/141 140/140/140
f 145/145/145 144/144/144 143/143/143
