g Object019
v -0.4999932 -1.351367 0.14555
v 0.5000094 -1.351367 2.246572
v 0.5000094 -1.351367 0.14555
v -0.2908435 -1.351367 2.455781
v 0.2908008 -1.351367 2.455781
v -0.4999932 -1.351367 0.14555
v -0.4999932 -1.351367 2.246572
v -0.2908435 -1.351367 2.455781
v 0.2908008 1.351351 2.502056
v -0.2908435 -1.351367 2.455781
v -0.2908435 1.351351 2.502056
v 0.2908008 -1.351367 2.455781
v -0.2908435 1.351351 2.502056
v -0.4999932 -1.351367 2.246572
v -0.4999932 1.351351 2.292906
v -0.2908435 -1.351367 2.455781
v -0.4999932 -1.351367 2.246572
v -0.4999932 1.351351 0.1687169
v -0.4999932 1.351351 2.292906
v -0.4999932 -1.351367 0.14555
v -0.4999932 1.351351 -0.0109154
v 0.5000094 -1.351367 -0.0109154
v 0.5000094 1.351351 -0.0109154
v -0.4999932 -1.351367 -0.0109154
v 0.5000094 -1.351367 -0.0109154
v 0.5000094 1.351351 0.1687169
v 0.5000094 1.351351 -0.0109154
v 0.5000094 1.351351 0.1687169
v 0.5000094 -1.351367 -0.0109154
v 0.5000094 -1.351367 0.14555
v 0.5000094 1.351351 2.292906
v 0.2908008 -1.351367 2.455781
v 0.2908008 1.351351 2.502056
v 0.5000094 -1.351367 2.246572
v -0.4999932 1.351351 2.292906
v 0.2908008 1.351351 2.502056
v -0.2908435 1.351351 2.502056
v 0.5000094 1.351351 0.1687169
v 0.5000094 1.351351 2.292906
v -0.4999932 1.351351 0.1687169
v 0.5000094 -1.351367 0.14555
v -0.4999932 -1.351367 -0.0109154
v -0.4999932 -1.351367 0.14555
v 0.5000094 -1.351367 -0.0109154
v -0.4999932 -1.351367 0.14555
v -0.4999932 1.351351 -0.0109154
v -0.4999932 1.351351 0.1687169
v -0.4999932 1.351351 -0.0109154
v -0.4999932 -1.351367 0.14555
v -0.4999932 -1.351367 -0.0109154
v 0.5000094 -1.351367 2.246572
v 0.5000094 1.351351 0.1687169
v 0.5000094 -1.351367 0.14555
v 0.5000094 1.351351 2.292906
v -0.4999932 1.351351 0.1687169
v 0.5000094 1.351351 -0.0109154
v 0.5000094 1.351351 0.1687169
v -0.4999932 1.351351 -0.0109154
vt 0.9212437 0.6160611
vt 0.9327911 0.6243092
vt 0.9327911 0.6160611
vt 0.9237181 0.6259588
vt 0.9303167 0.6259588
vt 0.9212437 0.6160611
vt 0.9212437 0.6243092
vt 0.9237181 0.6259588
vt 0.5088347 0.244893
vt 0.475842 0.08900246
vt 0.475842 0.244893
vt 0.5088347 0.08900246
vt 0.475842 0.244893
vt 0.4585208 0.08900246
vt 0.4585208 0.244893
vt 0.475842 0.08900246
vt 0.9212437 0.6243092
vt 0.9212437 0.6160611
vt 0.9212437 0.6243092
vt 0.9212437 0.6160611
vt 0.8651561 0.503061
vt 0.9327911 0.503061
vt 0.9327911 0.503061
vt 0.8651561 0.503061
vt 0.4956376 0.1426156
vt 0.5187325 0.1285937
vt 0.5170829 0.1343674
vt 0.5187325 0.1285937
vt 0.4956376 0.1426156
vt 0.4964624 0.1450901
vt 0.5261559 0.244893
vt 0.5088347 0.08900246
vt 0.5088347 0.244893
vt 0.5261559 0.08900246
vt 0.8486596 0.5550245
vt 0.8527837 0.5541997
vt 0.8494844 0.5541997
vt 0.8544334 0.5649223
vt 0.8544334 0.5550245
vt 0.8486596 0.5649223
vt 0.4964624 0.1450901
vt 0.4733676 0.1417908
vt 0.4725428 0.1442652
vt 0.4956376 0.1426156
vt 0.4725428 0.1442652
vt 0.4519223 0.1343674
vt 0.4510975 0.1285937
vt 0.4519223 0.1343674
vt 0.4725428 0.1442652
vt 0.4733676 0.1417908
vt 0.8701049 0.5550245
vt 0.8544334 0.5649223
vt 0.8701049 0.5649223
vt 0.8544334 0.5550245
vt 0.4510975 0.1285937
vt 0.5170829 0.1343674
vt 0.5187325 0.1285937
vt 0.4519223 0.1343674
vn -0.003921628 -0.9999924 0
vn -0.003921628 -0.9999924 0
vn -0.003921628 -0.9999924 0
vn -0.003921628 -0.9999924 0
vn -0.003921628 -0.9999924 0
vn -0.003921628 -0.9999924 0
vn -0.003921628 -0.9999924 0
vn -0.003921628 -0.9999924 0
vn -0.003921628 -0.01960766 0.9998001
vn -0.003921628 -0.01960766 0.9998001
vn -0.003921628 -0.01960766 0.9998001
vn -0.003921628 -0.01960766 0.9998001
vn -0.7097986 -0.01176459 0.7043064
vn -0.7097986 -0.01176459 0.7043064
vn -0.7097986 -0.01176459 0.7043064
vn -0.7097986 -0.01176459 0.7043064
vn -0.9999924 0.003921628 0
vn -0.9999924 0.003921628 0
vn -0.9999924 0.003921628 0
vn -0.9999924 0.003921628 0
vn -0.003921628 0.003921628 -0.9999846
vn -0.003921628 0.003921628 -0.9999846
vn -0.003921628 0.003921628 -0.9999846
vn -0.003921628 0.003921628 -0.9999846
vn 0.9999924 0.003921628 0
vn 0.9999924 0.003921628 0
vn 0.9999924 0.003921628 0
vn 0.9999924 0.003921628 0
vn 0.9999924 0.003921628 0
vn 0.9999924 0.003921628 0
vn 0.7097985 -0.01176459 0.7043065
vn 0.7097985 -0.01176459 0.7043065
vn 0.7097985 -0.01176459 0.7043065
vn 0.7097985 -0.01176459 0.7043065
vn -0.003921628 0.9999924 0
vn -0.003921628 0.9999924 0
vn -0.003921628 0.9999924 0
vn -0.003921628 0.9999924 0
vn -0.003921628 0.9999924 0
vn -0.003921628 0.9999924 0
vn -0.003921628 -0.9999924 0
vn -0.003921628 -0.9999924 0
vn -0.003921628 -0.9999924 0
vn -0.003921628 -0.9999924 0
vn -0.9999924 0.003921628 0
vn -0.9999924 0.003921628 0
vn -0.9999924 0.003921628 0
vn -0.9999924 0.003921628 0
vn -0.9999924 0.003921628 0
vn -0.9999924 0.003921628 0
vn 0.9999924 0.003921628 0
vn 0.9999924 0.003921628 0
vn 0.9999924 0.003921628 0
vn 0.9999924 0.003921628 0
vn -0.003921628 0.9999924 0
vn -0.003921628 0.9999924 0
vn -0.003921628 0.9999924 0
vn -0.003921628 0.9999924 0
g Object019_0
f 3/3/3 2/2/2 1/1/1
f 2/2/2 4/4/4 1/1/1
f 5/5/5 4/4/4 2/2/2
f 8/8/8 7/7/7 6/6/6
f 11/11/11 10/10/10 9/9/9
f 12/12/12 9/9/9 10/10/10
f 15/15/15 14/14/14 13/13/13
f 16/16/16 13/13/13 14/14/14
f 19/19/19 18/18/18 17/17/17
f 20/20/20 17/17/17 18/18/18
f 23/23/23 22/22/22 21/21/21
f 24/24/24 21/21/21 22/22/22
f 27/27/27 26/26/26 25/25/25
f 30/30/30 29/29/29 28/28/28
f 33/33/33 32/32/32 31/31/31
f 34/34/34 31/31/31 32/32/32
f 37/37/37 36/36/36 35/35/35
f 36/36/36 38/38/38 35/35/35
f 39/39/39 38/38/38 36/36/36
f 38/38/38 40/40/40 35/35/35
f 43/43/43 42/42/42 41/41/41
f 44/44/44 41/41/41 42/42/42
f 47/47/47 46/46/46 45/45/45
f 50/50/50 49/49/49 48/48/48
f 53/53/53 52/52/52 51/51/51
f 54/54/54 51/51/51 52/52/52
f 57/57/57 56/56/56 55/55/55
f 58/58/58 55/55/55 56/56/56
