g Object044
v -12.6958 -11.62289 1.576425
v -12.6958 -12.51831 1.576425
v -12.6958 -12.51831 2.404406
v -12.6958 -11.62289 2.404406
v -13.82545 -12.45749 2.485581
v -13.48774 -12.47437 2.731855
v -13.39631 -12.62418 2.370543
v -13.48774 -12.47437 2.731855
v -13.82545 -12.45749 2.485581
v -13.76707 -11.67474 2.474575
v -13.49294 -11.66776 2.730525
v -12.7589 -11.67667 2.729937
v -12.63303 -11.55276 2.464242
v -12.63303 -12.58844 2.464242
v -12.7589 -12.46454 2.729938
v -13.76707 -11.67474 2.474575
v -13.39803 -11.51709 2.370112
v -13.49294 -11.66776 2.730525
v -12.6958 -11.62289 2.404406
v -13.38494 -11.62289 2.337347
v -13.45731 -11.62289 1.683926
v -12.6958 -11.62289 1.576425
v -12.7589 -12.46454 2.729938
v -13.48774 -12.47437 2.731855
v -13.49294 -11.66776 2.730525
v -12.7589 -11.67667 2.729937
v -12.63303 -12.58844 2.464242
v -13.39631 -12.62418 2.370543
v -13.48774 -12.47437 2.731855
v -12.7589 -12.46454 2.729938
v -12.7589 -11.67667 2.729937
v -13.49294 -11.66776 2.730525
v -13.39803 -11.51709 2.370112
v -12.63303 -11.55276 2.464242
v -12.6958 -12.51831 1.576425
v -13.45731 -12.51831 1.683926
v -13.38494 -12.51831 2.337347
v -12.6958 -12.51831 2.404406
v -13.45731 -11.62289 1.683926
v -13.76707 -11.67474 2.474575
v -13.82545 -12.45749 2.485581
v -13.45731 -12.51831 1.683926
v -13.45731 -12.51831 1.683926
v -13.82545 -12.45749 2.485581
v -13.39631 -12.62418 2.370543
v -13.38494 -12.51831 2.337347
v -13.39631 -12.62418 2.370543
v -12.63303 -12.58844 2.464242
v -12.6958 -12.51831 2.404406
v -12.6958 -12.51831 2.404406
v -12.63303 -12.58844 2.464242
v -12.63303 -11.55276 2.464242
v -12.6958 -11.62289 2.404406
v -12.6958 -11.62289 2.404406
v -12.63303 -11.55276 2.464242
v -13.39803 -11.51709 2.370112
v -13.38494 -11.62289 2.337347
v -13.38494 -11.62289 2.337347
v -13.39803 -11.51709 2.370112
v -13.45731 -11.62289 1.683926
v -13.45731 -11.62289 1.683926
v -13.39803 -11.51709 2.370112
v -13.76707 -11.67474 2.474575
v -13.45731 -12.51831 1.683926
v -13.39631 -12.62418 2.370543
v -13.38494 -12.51831 2.337347
v -12.6958 -11.62289 1.576425
v -12.82973 -11.75342 1.497449
v -12.82973 -12.38779 1.497449
v -12.6958 -12.51831 1.576425
v -12.6958 -12.51831 1.576425
v -12.82973 -12.38779 1.497449
v -13.41582 -12.38779 1.561184
v -13.45731 -12.51831 1.683926
v -13.45731 -12.51831 1.683926
v -13.41582 -12.38779 1.561184
v -13.41582 -11.75342 1.561184
v -13.45731 -11.62289 1.683926
v -13.45731 -11.62289 1.683926
v -13.41582 -11.75342 1.561184
v -12.82973 -11.75342 1.497449
v -12.6958 -11.62289 1.576425
v -12.82973 -11.75342 1.497449
v -12.89863 -11.74438 1.289239
v -12.89863 -12.39685 1.289239
v -12.82973 -12.38779 1.497449
v -12.82973 -12.38779 1.497449
v -12.89863 -12.39685 1.289239
v -13.43646 -12.39685 1.412226
v -13.41582 -12.38779 1.561184
v -13.41582 -12.38779 1.561184
v -13.43646 -12.39685 1.412226
v -13.43646 -11.74438 1.412226
v -13.41582 -11.75342 1.561184
v -13.41582 -11.75342 1.561184
v -13.43646 -11.74438 1.412226
v -12.89863 -11.74438 1.289239
v -12.82973 -11.75342 1.497449
v -12.83237 -12.07062 -1.83521
v -12.7858 -12.86514 -1.696216
v -12.84479 -12.85654 -1.364899
v -12.82942 -12.07062 -1.414899
v -13.93507 -12.86316 -1.800732
v -13.94626 -12.85654 -1.303107
v -12.84479 -12.85654 -1.364899
v -12.7858 -12.86514 -1.696216
v -13.55784 -12.54517 1.39589
v -13.77751 -12.8396 1.147476
v -13.82959 -12.07062 1.103104
v -13.55784 -12.07062 1.395889
v -13.55784 -11.59604 1.395889
v -13.77751 -11.30164 1.147476
v -13.55784 -12.54517 1.39589
v -12.78448 -12.54517 1.183717
v -12.9045 -12.965 1.158011
v -13.63968 -13.03268 1.16235
v -13.67809 -12.98563 -0.1417241
v -13.85774 -12.07062 -0.3280647
v -13.82959 -12.07062 1.103104
v -13.77751 -12.8396 1.147476
v -12.67108 -12.88028 -0.2714343
v -12.56647 -12.83057 0.749155
v -12.63756 -12.67072 0.5526242
v -13.98109 -12.07062 -1.721184
v -13.92908 -12.07062 -1.353945
v -13.94626 -12.85654 -1.303107
v -13.93507 -12.86316 -1.800732
v -12.78448 -12.07062 1.183717
v -12.63756 -12.07062 0.5526242
v -12.78448 -12.54517 1.183717
v -12.78448 -11.59604 1.183717
v -12.63756 -12.07062 0.5526242
v -12.72853 -12.07062 -0.4268575
v -12.67108 -12.88028 -0.2714343
v -12.63756 -12.67072 0.5526242
v -12.75001 -11.31976 -0.3672585
v -12.63756 -11.47049 0.5526237
v -12.7858 -12.86514 -1.696216
v -12.74798 -12.84271 -2.828624
v -13.54944 -12.83878 -2.917743
v -13.93507 -12.86316 -1.800732
v -12.81578 -12.83478 -3.201643
v -13.71211 -12.83478 -4.375994
v -13.19834 -12.83478 -4.375994
v -13.93507 -12.86316 -1.800732
v -13.54944 -12.83878 -2.917743
v -13.54988 -12.20749 -2.917853
v -13.98109 -12.07062 -1.721184
v -13.98109 -12.07062 -1.721184
v -13.54988 -12.20749 -2.917853
v -12.72405 -12.20227 -2.909695
v -12.83237 -12.07062 -1.83521
v -12.83237 -12.07062 -1.83521
v -12.72405 -12.20227 -2.909695
v -12.74798 -12.84271 -2.828624
v -12.7858 -12.86514 -1.696216
v -13.54944 -12.83878 -2.917743
v -13.71211 -12.83478 -4.375994
v -13.71211 -12.28223 -4.375994
v -13.54988 -12.20749 -2.917853
v -13.54988 -12.20749 -2.917853
v -13.71211 -12.28223 -4.375994
v -13.19184 -12.28223 -4.375316
v -12.81578 -12.21277 -3.201643
v -12.72405 -12.20227 -2.909695
v -12.81578 -12.21277 -3.201643
v -13.19184 -12.28223 -4.375316
v -13.19834 -12.83478 -4.375994
v -12.81578 -12.83478 -3.201643
v -12.81578 -12.21277 -3.201643
v -12.81578 -12.83478 -3.201643
v -12.74798 -12.84271 -2.828624
v -12.72405 -12.20227 -2.909695
v -13.19834 -12.83478 -4.375994
v -13.19834 -12.83478 -4.683776
v -13.71211 -12.83478 -4.683776
v -13.71211 -12.83478 -4.375994
v -13.71211 -12.83478 -4.375994
v -13.71211 -12.83478 -4.683776
v -13.71211 -12.28223 -4.683776
v -13.71211 -12.28223 -4.375994
v -13.71211 -12.28223 -4.375994
v -13.71211 -12.28223 -4.683776
v -13.19184 -12.28223 -4.683098
v -13.19184 -12.28223 -4.375316
v -13.19184 -12.28223 -4.375316
v -12.76037 -12.37271 -4.47402
v -12.76037 -12.74432 -4.47402
v -13.19834 -12.83478 -4.375994
v -13.19834 -12.83478 -4.375994
v -12.76037 -12.74432 -4.47402
v -12.71019 -12.74432 -4.683776
v -13.19834 -12.83478 -4.683776
v -13.19184 -12.28223 -4.683098
v -12.71019 -12.37271 -4.683776
v -12.76037 -12.37271 -4.47402
v -13.19184 -12.28223 -4.375316
v -13.55784 -12.54517 1.39589
v -13.63968 -13.03268 1.16235
v -13.77751 -12.8396 1.147476
v -13.63968 -13.03268 1.16235
v -13.13371 -13.26987 0.7084446
v -13.67809 -12.98563 -0.1417241
v -13.77751 -12.8396 1.147476
v -12.67108 -12.88028 -0.2714343
v -13.67809 -12.98563 -0.1417241
v -13.13371 -13.26987 0.7084446
v -12.56647 -12.83057 0.749155
v -12.9045 -12.965 1.158011
v -12.78448 -12.54517 1.183717
v -12.63756 -12.67072 0.5526242
v -11.2303 -12.57211 2.575286
v -11.1242 -12.62061 2.470581
v -11.0871 -12.83331 2.585857
v -11.18777 -12.78577 2.689995
v -12.9045 -12.965 1.158011
v -12.56201 -13.11313 1.916905
v -12.51019 -13.54926 2.121332
v -13.63968 -13.03268 1.16235
v -13.63968 -13.03268 1.16235
v -12.51019 -13.54926 2.121332
v -12.15596 -13.64188 1.848376
v -13.13371 -13.26987 0.7084446
v -13.13371 -13.26987 0.7084446
v -12.15596 -13.64188 1.848376
v -12.19172 -13.20761 1.644184
v -12.56647 -12.83057 0.749155
v -12.56647 -12.83057 0.749155
v -12.19172 -13.20761 1.644184
v -12.56201 -13.11313 1.916905
v -12.9045 -12.965 1.158011
v -12.9045 -12.965 1.158011
v -12.63756 -12.67072 0.5526242
v -12.56647 -12.83057 0.749155
v -12.56201 -13.11313 1.916905
v -11.8461 -12.74841 2.368845
v -11.75531 -13.05023 2.571417
v -12.51019 -13.54926 2.121332
v -12.51019 -13.54926 2.121332
v -11.75531 -13.05023 2.571417
v -11.41205 -13.13873 2.310664
v -12.15596 -13.64188 1.848376
v -12.15596 -13.64188 1.848376
v -11.41205 -13.13873 2.310664
v -11.48721 -12.83713 2.108031
v -12.19172 -13.20761 1.644184
v -12.19172 -13.20761 1.644184
v -11.48721 -12.83713 2.108031
v -11.8461 -12.74841 2.368845
v -12.56201 -13.11313 1.916905
v -11.8461 -12.74841 2.368845
v -11.76669 -12.81857 2.358384
v -11.70853 -13.01193 2.488142
v -11.75531 -13.05023 2.571417
v -11.48865 -13.0686 2.321116
v -11.41205 -13.13873 2.310664
v -11.53679 -12.87543 2.191319
v -11.48721 -12.83713 2.108031
v -11.70853 -13.01193 2.488142
v -11.76669 -12.81857 2.358384
v -11.51857 -12.58212 2.431463
v -11.44987 -12.99985 2.635803
v -11.48865 -13.0686 2.321116
v -11.70853 -13.01193 2.488142
v -11.44987 -12.99985 2.635803
v -11.2782 -13.05603 2.510954
v -11.48865 -13.0686 2.321116
v -11.2782 -13.05603 2.510954
v -11.33904 -12.63956 2.307013
v -11.53679 -12.87543 2.191319
v -11.53679 -12.87543 2.191319
v -11.33904 -12.63956 2.307013
v -11.51857 -12.58212 2.431463
v -11.76669 -12.81857 2.358384
v -11.18777 -12.78577 2.689995
v -11.44987 -12.99985 2.635803
v -11.51857 -12.58212 2.431463
v -11.2303 -12.57211 2.575286
v -11.2782 -13.05603 2.510954
v -11.44987 -12.99985 2.635803
v -11.18777 -12.78577 2.689995
v -11.0871 -12.83331 2.585857
v -11.33904 -12.63956 2.307013
v -11.2782 -13.05603 2.510954
v -11.0871 -12.83331 2.585857
v -11.1242 -12.62061 2.470581
v -11.2303 -12.57211 2.575286
v -11.51857 -12.58212 2.431463
v -11.33904 -12.63956 2.307013
v -11.1242 -12.62061 2.470581
v -12.89146 -11.2847 -1.277774
v -12.76 -11.27609 -1.553845
v -12.83237 -12.07062 -1.83521
v -12.82942 -12.07062 -1.414899
v -13.84643 -11.27805 -1.942951
v -12.76 -11.27609 -1.553845
v -12.89146 -11.2847 -1.277774
v -13.96661 -11.2847 -1.32767
v -12.89505 -11.17621 1.166894
v -12.78448 -11.59604 1.183717
v -13.55784 -11.59604 1.395889
v -13.63968 -11.10852 1.16235
v -13.76533 -11.2634 -0.3766961
v -13.77751 -11.30164 1.147476
v -13.82959 -12.07062 1.103104
v -13.85774 -12.07062 -0.3280647
v -12.75001 -11.31976 -0.3672585
v -12.63756 -11.47049 0.5526237
v -12.70891 -11.46759 0.2493734
v -13.98109 -12.07062 -1.721184
v -13.84643 -11.27805 -1.942951
v -13.96661 -11.2847 -1.32767
v -13.92908 -12.07062 -1.353945
v -12.76 -11.27609 -1.553845
v -13.84643 -11.27805 -1.942951
v -13.19272 -11.30246 -2.930292
v -12.43969 -11.29849 -2.640664
v -12.4109 -11.30643 -3.017654
v -12.99572 -11.30643 -4.30132
v -12.48195 -11.30643 -4.30132
v -13.84643 -11.27805 -1.942951
v -13.98109 -12.07062 -1.721184
v -13.19311 -11.93372 -2.930509
v -13.19272 -11.30246 -2.930292
v -13.98109 -12.07062 -1.721184
v -12.83237 -12.07062 -1.83521
v -12.39668 -11.93893 -2.711965
v -13.19311 -11.93372 -2.930509
v -12.83237 -12.07062 -1.83521
v -12.76 -11.27609 -1.553845
v -12.43969 -11.29849 -2.640664
v -12.39668 -11.93893 -2.711965
v -13.19272 -11.30246 -2.930292
v -13.19311 -11.93372 -2.930509
v -12.99572 -11.85898 -4.30132
v -12.99572 -11.30643 -4.30132
v -13.19311 -11.93372 -2.930509
v -12.4109 -11.92844 -3.017654
v -12.48807 -11.85898 -4.301958
v -12.99572 -11.85898 -4.30132
v -12.39668 -11.93893 -2.711965
v -12.4109 -11.92844 -3.017654
v -12.4109 -11.30643 -3.017654
v -12.48195 -11.30643 -4.30132
v -12.48807 -11.85898 -4.301958
v -12.4109 -11.92844 -3.017654
v -12.39668 -11.93893 -2.711965
v -12.43969 -11.29849 -2.640664
v -12.4109 -11.30643 -3.017654
v -12.48195 -11.30643 -4.30132
v -12.99572 -11.30643 -4.30132
v -12.99572 -11.30643 -4.609102
v -12.48195 -11.30643 -4.609102
v -12.99572 -11.30643 -4.30132
v -12.99572 -11.85898 -4.30132
v -12.99572 -11.85898 -4.609102
v -12.99572 -11.30643 -4.609102
v -12.99572 -11.85898 -4.30132
v -12.48807 -11.85898 -4.301958
v -12.48807 -11.85898 -4.60974
v -12.99572 -11.85898 -4.609102
v -12.04398 -11.76852 -4.399347
v -12.04398 -11.39691 -4.399347
v -11.9938 -11.39691 -4.609102
v -11.9938 -11.76852 -4.609102
v -12.48807 -11.85898 -4.301958
v -12.48195 -11.30643 -4.30132
v -12.04398 -11.39691 -4.399347
v -12.04398 -11.76852 -4.399347
v -12.48195 -11.30643 -4.30132
v -12.48195 -11.30643 -4.609102
v -11.9938 -11.39691 -4.609102
v -12.04398 -11.39691 -4.399347
v -12.48807 -11.85898 -4.60974
v -12.48807 -11.85898 -4.301958
v -12.04398 -11.76852 -4.399347
v -11.9938 -11.76852 -4.609102
v -13.55784 -11.59604 1.395889
v -13.77751 -11.30164 1.147476
v -13.63968 -11.10852 1.16235
v -13.76533 -11.2634 -0.3766961
v -13.41962 -11.1806 0.02747059
v -13.63968 -11.10852 1.16235
v -13.77751 -11.30164 1.147476
v -13.41962 -11.1806 0.02747059
v -13.76533 -11.2634 -0.3766961
v -12.75001 -11.31976 -0.3672585
v -12.70891 -11.46759 0.2493734
v -12.89505 -11.17621 1.166894
v -12.63756 -11.47049 0.5526237
v -12.78448 -11.59604 1.183717
v -11.18914 -11.69299 -0.09129095
v -11.15006 -11.57721 -0.3050122
v -11.20296 -11.69287 -0.3890281
v -11.24024 -11.81259 -0.1787987
v -12.89505 -11.17621 1.166894
v -13.63968 -11.10852 1.16235
v -12.5029 -10.69653 -0.2085319
v -12.44743 -10.94083 0.2696581
v -13.63968 -11.10852 1.16235
v -13.41962 -11.1806 0.02747059
v -12.58756 -11.0769 -0.4466658
v -12.5029 -10.69653 -0.2085319
v -13.41962 -11.1806 0.02747059
v -12.70891 -11.46759 0.2493734
v -12.52493 -11.33197 0.02180576
v -12.58756 -11.0769 -0.4466658
v -12.70891 -11.46759 0.2493734
v -12.89505 -11.17621 1.166894
v -12.44743 -10.94083 0.2696581
v -12.52493 -11.33197 0.02180576
v -12.89505 -11.17621 1.166894
v -12.70891 -11.46759 0.2493734
v -12.63756 -11.47049 0.5526237
v -12.44743 -10.94083 0.2696581
v -12.5029 -10.69653 -0.2085319
v -11.60753 -11.16498 -0.1915588
v -11.71011 -11.33002 0.1287861
v -12.5029 -10.69653 -0.2085319
v -12.58756 -11.0769 -0.4466658
v -11.6861 -11.53183 -0.4215071
v -11.60753 -11.16498 -0.1915588
v -12.58756 -11.0769 -0.4466658
v -12.52493 -11.33197 0.02180576
v -11.78139 -11.70813 -0.1092434
v -11.6861 -11.53183 -0.4215071
v -12.52493 -11.33197 0.02180576
v -12.44743 -10.94083 0.2696581
v -11.71011 -11.33002 0.1287861
v -11.78139 -11.70813 -0.1092434
v -11.71011 -11.33002 0.1287861
v -11.60753 -11.16498 -0.1915588
v -11.63943 -11.26157 -0.1760387
v -11.70514 -11.36731 0.02915955
v -11.68976 -11.49658 -0.3233333
v -11.6861 -11.53183 -0.4215071
v -11.7508 -11.6095 -0.1233115
v -11.78139 -11.70813 -0.1092434
v -11.44635 -11.59192 0.1025505
v -11.70514 -11.36731 0.02915955
v -11.63943 -11.26157 -0.1760387
v -11.39292 -11.3667 -0.3065705
v -11.39292 -11.3667 -0.3065705
v -11.63943 -11.26157 -0.1760387
v -11.68976 -11.49658 -0.3233333
v -11.4314 -11.51563 -0.4791749
v -11.68976 -11.49658 -0.3233333
v -11.7508 -11.6095 -0.1233115
v -11.48119 -11.74579 -0.07510424
v -11.4314 -11.51563 -0.4791749
v -11.7508 -11.6095 -0.1233115
v -11.70514 -11.36731 0.02915955
v -11.44635 -11.59192 0.1025505
v -11.48119 -11.74579 -0.07510424
v -11.44635 -11.59192 0.1025505
v -11.39292 -11.3667 -0.3065705
v -11.15006 -11.57721 -0.3050122
v -11.18914 -11.69299 -0.09129095
v -11.4314 -11.51563 -0.4791749
v -11.20296 -11.69287 -0.3890281
v -11.15006 -11.57721 -0.3050122
v -11.39292 -11.3667 -0.3065705
v -11.48119 -11.74579 -0.07510424
v -11.24024 -11.81259 -0.1787987
v -11.20296 -11.69287 -0.3890281
v -11.4314 -11.51563 -0.4791749
v -11.48119 -11.74579 -0.07510424
v -11.44635 -11.59192 0.1025505
v -11.18914 -11.69299 -0.09129095
v -11.24024 -11.81259 -0.1787987
v -12.78448 -12.54517 1.183717
v -12.89863 -12.39685 1.289239
v -12.78448 -12.07062 1.183717
v -12.89863 -11.74438 1.289239
v -12.78448 -11.59604 1.183717
v -12.78448 -11.59604 1.183717
v -12.89863 -11.74438 1.289239
v -13.43646 -11.74438 1.412226
v -13.55784 -11.59604 1.395889
v -13.55784 -11.59604 1.395889
v -13.43646 -11.74438 1.412226
v -13.55784 -12.07062 1.395889
v -13.43646 -12.39685 1.412226
v -13.55784 -12.54517 1.39589
v -13.55784 -12.54517 1.39589
v -13.43646 -12.39685 1.412226
v -12.89863 -12.39685 1.289239
v -12.78448 -12.54517 1.183717
v -12.82942 -12.07062 -1.414899
v -12.84479 -12.85654 -1.364899
v -12.73036 -13.0181 -1.270268
v -12.71591 -12.07062 -1.372722
v -12.73036 -13.0181 -1.270268
v -12.84479 -12.85654 -1.364899
v -13.94626 -12.85654 -1.303107
v -14.06184 -13.0181 -1.277974
v -14.06184 -13.0181 -1.277974
v -13.94626 -12.85654 -1.303107
v -13.92908 -12.07062 -1.353945
v -14.03838 -12.07062 -1.297965
v -12.79867 -11.12314 -1.164981
v -12.89146 -11.2847 -1.277774
v -12.82942 -12.07062 -1.414899
v -12.71591 -12.07062 -1.372722
v -13.96661 -11.2847 -1.32767
v -12.89146 -11.2847 -1.277774
v -12.79867 -11.12314 -1.164981
v -14.08293 -11.12314 -1.325034
v -13.92908 -12.07062 -1.353945
v -13.96661 -11.2847 -1.32767
v -14.08293 -11.12314 -1.325034
v -14.03838 -12.07062 -1.297965
v -12.78448 -12.54517 1.183717
v -12.63756 -12.07062 0.5526242
v -12.63756 -12.67072 0.5526242
v -12.78448 -11.59604 1.183717
v -12.63756 -11.47049 0.5526237
v -12.71591 -12.07062 -1.372722
v -12.73036 -13.0181 -1.270268
v -12.67108 -12.88028 -0.2714343
v -12.72853 -12.07062 -0.4268575
v -12.75001 -11.31976 -0.3672585
v -12.79867 -11.12314 -1.164981
v -12.67108 -12.88028 -0.2714343
v -12.73036 -13.0181 -1.270268
v -14.06184 -13.0181 -1.277974
v -13.67809 -12.98563 -0.1417241
v -13.67809 -12.98563 -0.1417241
v -14.06184 -13.0181 -1.277974
v -14.03838 -12.07062 -1.297965
v -13.85774 -12.07062 -0.3280647
v -14.08293 -11.12314 -1.325034
v -12.79867 -11.12314 -1.164981
v -12.75001 -11.31976 -0.3672585
v -13.76533 -11.2634 -0.3766961
v -14.03838 -12.07062 -1.297965
v -14.08293 -11.12314 -1.325034
v -13.76533 -11.2634 -0.3766961
v -13.85774 -12.07062 -0.3280647
vt 0.2686792 0.9027433
vt 0.2686792 0.9027433
vt 0.2686792 0.9027433
vt 0.2686792 0.9027433
vt 0.6005768 0.9029525
vt 0.6005768 0.9029525
vt 0.6005768 0.9029525
vt 0.6005768 0.9029525
vt 0.6005768 0.9029525
vt 0.6005768 0.9029525
vt 0.6005768 0.9029525
vt 0.6005768 0.9029525
vt 0.6005768 0.9029525
vt 0.6005768 0.9029525
vt 0.6005768 0.9029525
vt 0.6005768 0.9029525
vt 0.6005768 0.9029525
vt 0.6005768 0.9029525
vt 0.2686792 0.9027433
vt 0.2686792 0.9027433
vt 0.2686792 0.9027433
vt 0.2686792 0.9027433
vt 0.6005768 0.9029525
vt 0.6005768 0.9029525
vt 0.6005768 0.9029525
vt 0.6005768 0.9029525
vt 0.6005768 0.9029525
vt 0.6005768 0.9029525
vt 0.6005768 0.9029525
vt 0.6005768 0.9029525
vt 0.6005768 0.9029525
vt 0.6005768 0.9029525
vt 0.6005768 0.9029525
vt 0.6005768 0.9029525
vt 0.2686792 0.9027433
vt 0.2686792 0.9027433
vt 0.2686792 0.9027433
vt 0.2686792 0.9027433
vt 0.6005768 0.9029525
vt 0.6005768 0.9029525
vt 0.6005768 0.9029525
vt 0.6005768 0.9029525
vt 0.6005768 0.9029525
vt 0.6005768 0.9029525
vt 0.6005768 0.9029525
vt 0.6005768 0.9029525
vt 0.6005768 0.9029525
vt 0.6005768 0.9029525
vt 0.6005768 0.9029525
vt 0.6005768 0.9029525
vt 0.6005768 0.9029525
vt 0.6005768 0.9029525
vt 0.6005768 0.9029525
vt 0.6005768 0.9029525
vt 0.6005768 0.9029525
vt 0.6005768 0.9029525
vt 0.6005768 0.9029525
vt 0.6005768 0.9029525
vt 0.6005768 0.9029525
vt 0.6005768 0.9029525
vt 0.6005768 0.9029525
vt 0.6005768 0.9029525
vt 0.6005768 0.9029525
vt 0.6005768 0.9029525
vt 0.6005768 0.9029525
vt 0.6005768 0.9029525
vt 0.2686792 0.9027433
vt 0.2686792 0.9027433
vt 0.2686792 0.9027433
vt 0.2686792 0.9027433
vt 0.2686792 0.9027433
vt 0.2686792 0.9027433
vt 0.2686792 0.9027433
vt 0.2686792 0.9027433
vt 0.6005768 0.9029525
vt 0.6005768 0.9029525
vt 0.6005768 0.9029525
vt 0.6005768 0.9029525
vt 0.2686792 0.9027433
vt 0.2686792 0.9027433
vt 0.2686792 0.9027433
vt 0.2686792 0.9027433
vt 0.2686792 0.9027433
vt 0.2686792 0.9027433
vt 0.2686792 0.9027433
vt 0.2686792 0.9027433
vt 0.2686792 0.9027433
vt 0.2686792 0.9027433
vt 0.2686792 0.9027433
vt 0.2686792 0.9027433
vt 0.2686792 0.9027433
vt 0.2686792 0.9027433
vt 0.2686792 0.9027433
vt 0.2686792 0.9027433
vt 0.2686792 0.9027433
vt 0.2686792 0.9027433
vt 0.2686792 0.9027433
vt 0.2686792 0.9027433
vt 0.2222696 0.9114017
vt 0.2222696 0.9114017
vt 0.2222696 0.9114017
vt 0.2222696 0.9114017
vt 0.2222696 0.9114017
vt 0.2222696 0.9114017
vt 0.2222696 0.9114017
vt 0.2222696 0.9114017
vt 0.7838776 0.9686887
vt 0.7838776 0.9686887
vt 0.7838776 0.9686887
vt 0.7838776 0.9686887
vt 0.7838776 0.9686887
vt 0.7838776 0.9686887
vt 0.7838776 0.9686887
vt 0.7838776 0.9686887
vt 0.7838776 0.9686887
vt 0.7838776 0.9686887
vt 0.7838776 0.9686887
vt 0.7838776 0.9686887
vt 0.7838776 0.9686887
vt 0.7838776 0.9686887
vt 0.7838776 0.9686887
vt 0.7838776 0.9686887
vt 0.7838776 0.9686887
vt 0.2222696 0.9114017
vt 0.2222696 0.9114017
vt 0.2222696 0.9114017
vt 0.2222696 0.9114017
vt 0.03580955 0.9645671
vt 0.03580955 0.9645671
vt 0.03580955 0.9645671
vt 0.03580955 0.9645671
vt 0.7838776 0.9686887
vt 0.7838776 0.9686887
vt 0.7838776 0.9686887
vt 0.7838776 0.9686887
vt 0.7838776 0.9686887
vt 0.7838776 0.9686887
vt 0.2299997 0.9078161
vt 0.2299997 0.9078161
vt 0.2299997 0.9078161
vt 0.2299997 0.9078161
vt 0.2299997 0.9078161
vt 0.2299997 0.9078161
vt 0.2299997 0.9078161
vt 0.2299997 0.9078161
vt 0.2299997 0.9078161
vt 0.2299997 0.9078161
vt 0.2299997 0.9078161
vt 0.2299997 0.9078161
vt 0.2299997 0.9078161
vt 0.2299997 0.9078161
vt 0.2299997 0.9078161
vt 0.2299997 0.9078161
vt 0.2299997 0.9078161
vt 0.2299997 0.9078161
vt 0.2299997 0.9078161
vt 0.2299997 0.9078161
vt 0.2299997 0.9078161
vt 0.2299997 0.9078161
vt 0.2299997 0.9078161
vt 0.2299997 0.9078161
vt 0.2299997 0.9078161
vt 0.2299997 0.9078161
vt 0.2299997 0.9078161
vt 0.2299997 0.9078161
vt 0.2299997 0.9078161
vt 0.2299997 0.9078161
vt 0.2299997 0.9078161
vt 0.2299997 0.9078161
vt 0.2299997 0.9078161
vt 0.2299997 0.9078161
vt 0.2299997 0.9078161
vt 0.2299997 0.9078161
vt 0.1599327 0.9655184
vt 0.1599327 0.9655184
vt 0.1599327 0.9655184
vt 0.1599327 0.9655184
vt 0.1599327 0.9655184
vt 0.1599327 0.9655184
vt 0.1599327 0.9655184
vt 0.1599327 0.9655184
vt 0.1599327 0.9655184
vt 0.1599327 0.9655184
vt 0.1599327 0.9655184
vt 0.1599327 0.9655184
vt 0.1599327 0.9655184
vt 0.1599327 0.9655184
vt 0.1599327 0.9655184
vt 0.1599327 0.9655184
vt 0.1599327 0.9655184
vt 0.1599327 0.9655184
vt 0.1599327 0.9655184
vt 0.1599327 0.9655184
vt 0.1599327 0.9655184
vt 0.1599327 0.9655184
vt 0.1599327 0.9655184
vt 0.1599327 0.9655184
vt 0.7838776 0.9686887
vt 0.7838776 0.9686887
vt 0.7838776 0.9686887
vt 0.7838776 0.9686887
vt 0.7838776 0.9686887
vt 0.7838776 0.9686887
vt 0.7838776 0.9686887
vt 0.7838776 0.9686887
vt 0.7838776 0.9686887
vt 0.7838776 0.9686887
vt 0.7838776 0.9686887
vt 0.7838776 0.9686887
vt 0.7838776 0.9686887
vt 0.7838776 0.9686887
vt 0.2815195 0.9016337
vt 0.2815195 0.9016337
vt 0.2815195 0.9016337
vt 0.2815195 0.9016337
vt 0.7838776 0.9686887
vt 0.7838776 0.9686887
vt 0.7838776 0.9686887
vt 0.7838776 0.9686887
vt 0.7838776 0.9686887
vt 0.7838776 0.9686887
vt 0.7838776 0.9686887
vt 0.7838776 0.9686887
vt 0.7838776 0.9686887
vt 0.7838776 0.9686887
vt 0.7838776 0.9686887
vt 0.7838776 0.9686887
vt 0.7838776 0.9686887
vt 0.7838776 0.9686887
vt 0.7838776 0.9686887
vt 0.7838776 0.9686887
vt 0.7838776 0.9686887
vt 0.7838776 0.9686887
vt 0.7838776 0.9686887
vt 0.7838776 0.9686887
vt 0.7838776 0.9686887
vt 0.7838776 0.9686887
vt 0.7838776 0.9686887
vt 0.7838776 0.9686887
vt 0.7838776 0.9686887
vt 0.7838776 0.9686887
vt 0.7838776 0.9686887
vt 0.7838776 0.9686887
vt 0.7838776 0.9686887
vt 0.7838776 0.9686887
vt 0.7838776 0.9686887
vt 0.7838776 0.9686887
vt 0.7838776 0.9686887
vt 0.7838776 0.9686887
vt 0.7838776 0.9686887
vt 0.7838776 0.9686887
vt 0.7838776 0.9686887
vt 0.7838776 0.9686887
vt 0.7838776 0.9686887
vt 0.7838776 0.9686887
vt 0.7838776 0.9686887
vt 0.7838776 0.9686887
vt 0.7838776 0.9686887
vt 0.2815195 0.9016337
vt 0.2815195 0.9016337
vt 0.2815195 0.9016337
vt 0.2815195 0.9016337
vt 0.2815195 0.9016337
vt 0.2815195 0.9016337
vt 0.2815195 0.9016337
vt 0.2815195 0.9016337
vt 0.2815195 0.9016337
vt 0.2815195 0.9016337
vt 0.2815195 0.9016337
vt 0.2815195 0.9016337
vt 0.2815195 0.9016337
vt 0.2815195 0.9016337
vt 0.2815195 0.9016337
vt 0.2815195 0.9016337
vt 0.2815195 0.9016337
vt 0.2815195 0.9016337
vt 0.2815195 0.9016337
vt 0.2815195 0.9016337
vt 0.2815195 0.9016337
vt 0.2815195 0.9016337
vt 0.2815195 0.9016337
vt 0.2815195 0.9016337
vt 0.2815195 0.9016337
vt 0.2815195 0.9016337
vt 0.2815195 0.9016337
vt 0.2815195 0.9016337
vt 0.2815195 0.9016337
vt 0.2815195 0.9016337
vt 0.2815195 0.9016337
vt 0.2815195 0.9016337
vt 0.2222696 0.9114017
vt 0.2222696 0.9114017
vt 0.2222696 0.9114017
vt 0.2222696 0.9114017
vt 0.2222696 0.9114017
vt 0.2222696 0.9114017
vt 0.2222696 0.9114017
vt 0.2222696 0.9114017
vt 0.7838776 0.9686887
vt 0.7838776 0.9686887
vt 0.7838776 0.9686887
vt 0.7838776 0.9686887
vt 0.7838776 0.9686887
vt 0.7838776 0.9686887
vt 0.7838776 0.9686887
vt 0.7838776 0.9686887
vt 0.7838776 0.9686887
vt 0.7838776 0.9686887
vt 0.7838776 0.9686887
vt 0.2222696 0.9114017
vt 0.2222696 0.9114017
vt 0.2222696 0.9114017
vt 0.2222696 0.9114017
vt 0.2299997 0.9078161
vt 0.2299997 0.9078161
vt 0.2299997 0.9078161
vt 0.2299997 0.9078161
vt 0.2299997 0.9078161
vt 0.2299997 0.9078161
vt 0.2299997 0.9078161
vt 0.2299997 0.9078161
vt 0.2299997 0.9078161
vt 0.2299997 0.9078161
vt 0.2299997 0.9078161
vt 0.2299997 0.9078161
vt 0.2299997 0.9078161
vt 0.2299997 0.9078161
vt 0.2299997 0.9078161
vt 0.2299997 0.9078161
vt 0.2299997 0.9078161
vt 0.2299997 0.9078161
vt 0.2299997 0.9078161
vt 0.2299997 0.9078161
vt 0.2299997 0.9078161
vt 0.2299997 0.9078161
vt 0.2299997 0.9078161
vt 0.2299997 0.9078161
vt 0.2299997 0.9078161
vt 0.2299997 0.9078161
vt 0.2299997 0.9078161
vt 0.2299997 0.9078161
vt 0.2299997 0.9078161
vt 0.2299997 0.9078161
vt 0.2299997 0.9078161
vt 0.2299997 0.9078161
vt 0.2299997 0.9078161
vt 0.2299997 0.9078161
vt 0.2299997 0.9078161
vt 0.2299997 0.9078161
vt 0.1599327 0.9655184
vt 0.1599327 0.9655184
vt 0.1599327 0.9655184
vt 0.1599327 0.9655184
vt 0.1599327 0.9655184
vt 0.1599327 0.9655184
vt 0.1599327 0.9655184
vt 0.1599327 0.9655184
vt 0.1599327 0.9655184
vt 0.1599327 0.9655184
vt 0.1599327 0.9655184
vt 0.1599327 0.9655184
vt 0.1599327 0.9655184
vt 0.1599327 0.9655184
vt 0.1599327 0.9655184
vt 0.1599327 0.9655184
vt 0.1599327 0.9655184
vt 0.1599327 0.9655184
vt 0.1599327 0.9655184
vt 0.1599327 0.9655184
vt 0.1599327 0.9655184
vt 0.1599327 0.9655184
vt 0.1599327 0.9655184
vt 0.1599327 0.9655184
vt 0.1599327 0.9655184
vt 0.1599327 0.9655184
vt 0.1599327 0.9655184
vt 0.1599327 0.9655184
vt 0.7838776 0.9686887
vt 0.7838776 0.9686887
vt 0.7838776 0.9686887
vt 0.7838776 0.9686887
vt 0.7838776 0.9686887
vt 0.7838776 0.9686887
vt 0.7838776 0.9686887
vt 0.7838776 0.9686887
vt 0.7838776 0.9686887
vt 0.7838776 0.9686887
vt 0.7838776 0.9686887
vt 0.7838776 0.9686887
vt 0.7838776 0.9686887
vt 0.7838776 0.9686887
vt 0.2815195 0.9016337
vt 0.2815195 0.9016337
vt 0.2815195 0.9016337
vt 0.2815195 0.9016337
vt 0.7838776 0.9686887
vt 0.7838776 0.9686887
vt 0.7838776 0.9686887
vt 0.7838776 0.9686887
vt 0.7838776 0.9686887
vt 0.7838776 0.9686887
vt 0.7838776 0.9686887
vt 0.7838776 0.9686887
vt 0.7838776 0.9686887
vt 0.7838776 0.9686887
vt 0.7838776 0.9686887
vt 0.7838776 0.9686887
vt 0.7838776 0.9686887
vt 0.7838776 0.9686887
vt 0.7838776 0.9686887
vt 0.7838776 0.9686887
vt 0.7838776 0.9686887
vt 0.7838776 0.9686887
vt 0.7838776 0.9686887
vt 0.7838776 0.9686887
vt 0.7838776 0.9686887
vt 0.7838776 0.9686887
vt 0.7838776 0.9686887
vt 0.7838776 0.9686887
vt 0.7838776 0.9686887
vt 0.7838776 0.9686887
vt 0.7838776 0.9686887
vt 0.7838776 0.9686887
vt 0.7838776 0.9686887
vt 0.7838776 0.9686887
vt 0.7838776 0.9686887
vt 0.7838776 0.9686887
vt 0.7838776 0.9686887
vt 0.7838776 0.9686887
vt 0.7838776 0.9686887
vt 0.7838776 0.9686887
vt 0.7838776 0.9686887
vt 0.7838776 0.9686887
vt 0.7838776 0.9686887
vt 0.7838776 0.9686887
vt 0.7838776 0.9686887
vt 0.7838776 0.9686887
vt 0.7838776 0.9686887
vt 0.2815195 0.9016337
vt 0.2815195 0.9016337
vt 0.2815195 0.9016337
vt 0.2815195 0.9016337
vt 0.2815195 0.9016337
vt 0.2815195 0.9016337
vt 0.2815195 0.9016337
vt 0.2815195 0.9016337
vt 0.2815195 0.9016337
vt 0.2815195 0.9016337
vt 0.2815195 0.9016337
vt 0.2815195 0.9016337
vt 0.2815195 0.9016337
vt 0.2815195 0.9016337
vt 0.2815195 0.9016337
vt 0.2815195 0.9016337
vt 0.2815195 0.9016337
vt 0.2815195 0.9016337
vt 0.2815195 0.9016337
vt 0.2815195 0.9016337
vt 0.2815195 0.9016337
vt 0.2815195 0.9016337
vt 0.2815195 0.9016337
vt 0.2815195 0.9016337
vt 0.2815195 0.9016337
vt 0.2815195 0.9016337
vt 0.2815195 0.9016337
vt 0.2815195 0.9016337
vt 0.2815195 0.9016337
vt 0.2815195 0.9016337
vt 0.2815195 0.9016337
vt 0.2815195 0.9016337
vt 0.03580955 0.9645671
vt 0.03580955 0.9645671
vt 0.03580955 0.9645671
vt 0.03580955 0.9645671
vt 0.03580955 0.9645671
vt 0.03580955 0.9645671
vt 0.03580955 0.9645671
vt 0.03580955 0.9645671
vt 0.03580955 0.9645671
vt 0.03580955 0.9645671
vt 0.03580955 0.9645671
vt 0.03580955 0.9645671
vt 0.03580955 0.9645671
vt 0.03580955 0.9645671
vt 0.03580955 0.9645671
vt 0.03580955 0.9645671
vt 0.03580955 0.9645671
vt 0.03580955 0.9645671
vt 0.7838776 0.9686887
vt 0.7838776 0.9686887
vt 0.7838776 0.9686887
vt 0.7838776 0.9686887
vt 0.7838776 0.9686887
vt 0.7838776 0.9686887
vt 0.7838776 0.9686887
vt 0.7838776 0.9686887
vt 0.7838776 0.9686887
vt 0.7838776 0.9686887
vt 0.7838776 0.9686887
vt 0.7838776 0.9686887
vt 0.7838776 0.9686887
vt 0.7838776 0.9686887
vt 0.7838776 0.9686887
vt 0.7838776 0.9686887
vt 0.7838776 0.9686887
vt 0.7838776 0.9686887
vt 0.7838776 0.9686887
vt 0.7838776 0.9686887
vt 0.7838776 0.9686887
vt 0.7838776 0.9686887
vt 0.7838776 0.9686887
vt 0.7838776 0.9686887
vt 0.7838776 0.9686887
vt 0.7838776 0.9686887
vt 0.7838776 0.9686887
vt 0.7838776 0.9686887
vt 0.7838776 0.9686887
vt 0.7838776 0.9686887
vt 0.7838776 0.9686887
vt 0.7838776 0.9686887
vt 0.7838776 0.9686887
vt 0.7838776 0.9686887
vt 0.7838776 0.9686887
vt 0.7838776 0.9686887
vt 0.7838776 0.9686887
vt 0.7838776 0.9686887
vt 0.7838776 0.9686887
vt 0.7838776 0.9686887
vt 0.7838776 0.9686887
vt 0.7838776 0.9686887
vt 0.7838776 0.9686887
vt 0.7838776 0.9686887
vt 0.7838776 0.9686887
vt 0.7838776 0.9686887
vt 0.7838776 0.9686887
vt 0.7838776 0.9686887
vt 0.7838776 0.9686887
vt 0.7838776 0.9686887
vt 0.7838776 0.9686887
vn 1 0 0
vn 1 0 0
vn 1 0 0
vn 1 0 0
vn -0.2711221 -0.9114907 0.3093178
vn -0.2711221 -0.9114907 0.3093178
vn -0.2711221 -0.9114907 0.3093178
vn -0.633975 0.02721151 0.7728747
vn -0.6339749 0.02721151 0.7728747
vn -0.6339749 0.02721151 0.7728747
vn -0.6339749 0.02721151 0.7728747
vn 0.9037269 0 0.4281095
vn 0.9037269 0 0.4281095
vn 0.9037269 0 0.4281095
vn 0.9037269 0 0.4281095
vn -0.302112 0.9052159 0.2988522
vn -0.302112 0.9052159 0.2988522
vn -0.302112 0.9052159 0.2988522
vn 0 1 0
vn 0 1 0
vn 0 1 0
vn 0 1 0
vn 0.001712692 0.0008405435 0.9999982
vn 0.001712692 0.0008405435 0.9999982
vn 0.001712692 0.0008405435 0.9999982
vn 0.001712693 0.0008405436 0.9999982
vn 0.003304368 -0.9160556 0.4010376
vn 0.003304368 -0.9160556 0.4010376
vn 0.003304368 -0.9160556 0.4010376
vn 0.003304368 -0.9160556 0.4010376
vn 0.002130936 0.9155321 0.4022392
vn 0.002130936 0.9155321 0.4022392
vn 0.002130936 0.9155321 0.4022392
vn 0.002130936 0.9155321 0.4022392
vn 0 -1 0
vn 0 -1 0
vn 0 -1 0
vn 0 -1 0
vn -0.9196299 0.02942218 -0.3916826
vn -0.9196299 0.02942218 -0.3916826
vn -0.9196299 0.02942218 -0.3916825
vn -0.9196299 0.02942218 -0.3916825
vn -0.3848089 -0.9167547 -0.1071584
vn -0.3848089 -0.9167547 -0.1071584
vn -0.3848089 -0.9167547 -0.1071584
vn 0.1094975 -0.4393413 -0.8916218
vn 0.1094975 -0.4393413 -0.8916219
vn 0.1094975 -0.4393413 -0.8916219
vn 0.1094975 -0.4393413 -0.8916218
vn 0.6900141 0 -0.723796
vn 0.6900141 0 -0.7237959
vn 0.6900141 0 -0.723796
vn 0.6900141 0 -0.723796
vn 0.1096354 0.4385397 -0.8919994
vn 0.1096354 0.4385397 -0.8919995
vn 0.1096355 0.4385397 -0.8919995
vn 0.1096355 0.4385396 -0.8919995
vn 0.9818885 0.1551398 -0.1087504
vn 0.9818885 0.1551398 -0.1087504
vn 0.9818885 0.1551398 -0.1087504
vn -0.4153679 0.9037502 -0.1034657
vn -0.4153678 0.9037502 -0.1034657
vn -0.4153679 0.9037502 -0.1034657
vn 0.9841585 -0.1398236 -0.1090019
vn 0.9841585 -0.1398236 -0.1090019
vn 0.9841585 -0.1398236 -0.1090019
vn 0.5079291 0 -0.8613989
vn 0.5079291 0 -0.8613989
vn 0.5079291 0 -0.8613989
vn 0.5079291 0 -0.8613989
vn -0.0978945 -0.6299853 -0.7704124
vn -0.0978945 -0.6299852 -0.7704124
vn -0.0978945 -0.6299853 -0.7704123
vn -0.0978945 -0.6299853 -0.7704124
vn -0.9473439 0 -0.3202179
vn -0.9473439 0 -0.3202179
vn -0.9473439 0 -0.3202179
vn -0.9473439 0 -0.3202179
vn -0.09789433 0.6299844 -0.7704131
vn -0.09789433 0.6299844 -0.7704131
vn -0.09789432 0.6299844 -0.770413
vn -0.09789433 0.6299844 -0.7704131
vn 0.9493809 0 -0.3141274
vn 0.9493809 0 -0.3141273
vn 0.9493809 0 -0.3141273
vn 0.9493809 0 -0.3141273
vn 0.008084911 -0.9987824 0.04866489
vn 0.008084911 -0.9987824 0.04866489
vn 0.00808491 -0.9987824 0.04866489
vn 0.008084911 -0.9987824 0.04866489
vn -0.9905403 0 0.1372219
vn -0.9905403 0 0.1372219
vn -0.9905403 0 0.1372219
vn -0.9905403 0 0.1372219
vn 0.008057755 0.9987906 0.04850143
vn 0.008057755 0.9987906 0.04850143
vn 0.008057755 0.9987906 0.04850143
vn 0.008057754 0.9987906 0.04850143
vn 0.9968516 0.02852266 0.07398137
vn 0.9968516 0.02852266 0.07398137
vn 0.9968516 0.02852266 0.07398139
vn 0.9968516 0.02852266 0.07398137
vn -0.001227867 -0.9998325 0.0182637
vn -0.001227867 -0.9998325 0.0182637
vn -0.001227867 -0.9998325 0.0182637
vn -0.001227867 -0.9998325 0.0182637
vn -0.7384542 -0.006862581 0.6742687
vn -0.7384542 -0.006862581 0.6742687
vn -0.7384542 -0.006862581 0.6742687
vn -0.7384542 -0.006862581 0.6742687
vn -0.738454 0.006862659 0.6742689
vn -0.738454 0.006862659 0.6742689
vn 0.1486974 -0.3021149 0.9416027
vn 0.1486974 -0.3021149 0.9416027
vn 0.1486974 -0.3021149 0.9416026
vn 0.1486974 -0.3021149 0.9416026
vn -0.9901501 -0.1387833 -0.01849293
vn -0.9901501 -0.1387833 -0.01849294
vn -0.9901501 -0.1387833 -0.01849293
vn -0.9901501 -0.1387833 -0.01849293
vn 0.9516723 0.286166 -0.1114848
vn 0.9516723 0.286166 -0.1114848
vn 0.9516723 0.286166 -0.1114848
vn -0.9986984 -0.01910916 0.04729087
vn -0.9986984 -0.01910916 0.04729086
vn -0.9986984 -0.01910916 0.04729087
vn -0.9986984 -0.01910916 0.04729087
vn 0.9739577 0 0.2267299
vn 0.9739577 0 0.2267299
vn 0.9739577 0 0.2267299
vn 0.9739577 0 0.2267299
vn 0.9968277 0.03262017 -0.07259765
vn 0.9968277 0.03262017 -0.07259765
vn 0.9968277 0.03262017 -0.07259766
vn 0.9968277 0.03262017 -0.07259766
vn 0.9942769 0.02042865 -0.1048628
vn 0.9942769 0.02042865 -0.1048628
vn -0.0009511746 -0.9997793 -0.02098604
vn -0.0009511746 -0.9997793 -0.02098604
vn -0.0009511746 -0.9997793 -0.02098604
vn -0.0009511746 -0.9997793 -0.02098604
vn 0.002730492 -0.9999941 -0.002084074
vn 0.002730492 -0.9999941 -0.002084074
vn 0.002730491 -0.9999941 -0.002084074
vn -0.9430748 -0.01222964 -0.3323558
vn -0.9430748 -0.01222964 -0.3323558
vn -0.9430748 -0.01222964 -0.3323557
vn -0.9430748 -0.01222964 -0.3323558
vn -0.009032341 0.99279 -0.1195258
vn -0.009032342 0.99279 -0.1195258
vn -0.009032341 0.99279 -0.1195258
vn -0.009032341 0.99279 -0.1195258
vn 0.9975687 0.02567005 0.06479053
vn 0.9975687 0.02567005 0.06479053
vn 0.9975687 0.02567005 0.06479054
vn 0.9975687 0.02567005 0.06479053
vn -0.9938506 -0.0003540258 0.1107285
vn -0.9938506 -0.0003540258 0.1107285
vn -0.9938506 -0.0003540258 0.1107285
vn -0.9938506 -0.0003540258 0.1107285
vn -0.007785892 0.9985579 -0.05311793
vn -0.007785891 0.9985579 -0.05311792
vn -0.007785892 0.9985579 -0.05311792
vn -0.007785892 0.9985579 -0.05311792
vn -0.005978898 0.9994019 -0.03405857
vn 0.9515979 -0.005093558 -0.3073035
vn 0.9515979 -0.005093559 -0.3073035
vn 0.9515979 -0.005093558 -0.3073036
vn 0.9515979 -0.005093558 -0.3073035
vn 0.9718985 -0.03339049 -0.2330202
vn 0.9718985 -0.03339049 -0.2330202
vn 0.9718985 -0.03339049 -0.2330202
vn 0.9718985 -0.03339049 -0.2330202
vn 0 -1 0
vn 0 -1 0
vn 0 -1 0
vn 0 -1 0
vn -1 0 0
vn -1 0 0
vn -1 0 0
vn -1 0 0
vn 0 1 0
vn 0 1 0
vn 0 1 0
vn 0 1 0
vn 0.2206911 -0.002269244 0.9753411
vn 0.2206911 -0.002269244 0.9753411
vn 0.2206911 -0.002269244 0.9753411
vn 0.2206911 -0.002269244 0.9753411
vn 0.1935947 -0.9809021 0.01876771
vn 0.1935946 -0.9809021 0.0187677
vn 0.1935946 -0.9809021 0.01876771
vn 0.1935946 -0.9809021 0.01876771
vn 0.1963658 0.9803458 0.01903636
vn 0.1963658 0.9803459 0.01903636
vn 0.1963658 0.9803458 0.01903636
vn 0.1963658 0.9803458 0.01903636
vn -0.5087053 -0.3009954 0.8066106
vn -0.5087053 -0.3009954 0.8066106
vn -0.5087053 -0.3009954 0.8066106
vn -0.5618601 -0.8271253 -0.01330186
vn -0.5618601 -0.8271253 -0.01330186
vn -0.5618601 -0.8271253 -0.01330187
vn -0.5618601 -0.8271253 -0.01330186
vn 0.3074856 -0.9251379 -0.222649
vn 0.3074856 -0.9251379 -0.222649
vn 0.3074856 -0.9251378 -0.222649
vn 0.3074856 -0.9251379 -0.222649
vn 0.9212354 -0.2799087 0.2701415
vn 0.9212354 -0.2799087 0.2701415
vn 0.9212354 -0.2799087 0.2701415
vn 0.7335487 0.4236628 0.5314283
vn 0.7335487 0.4236628 0.5314284
vn 0.7335487 0.4236628 0.5314283
vn 0.7335487 0.4236628 0.5314283
vn -0.3566386 0.7269148 0.5868593
vn -0.3566386 0.7269148 0.5868593
vn -0.3566386 0.7269148 0.5868592
vn -0.3566386 0.7269148 0.5868593
vn -0.3720973 -0.9279932 -0.01929215
vn -0.3720973 -0.9279932 -0.01929215
vn -0.3720974 -0.9279932 -0.01929215
vn -0.3720973 -0.9279932 -0.01929215
vn 0.6286834 -0.4947697 -0.5999668
vn 0.6286834 -0.4947697 -0.5999668
vn 0.6286834 -0.4947697 -0.5999668
vn 0.6286834 -0.4947697 -0.5999668
vn 0.1684476 0.9582093 0.231215
vn 0.1684476 0.9582093 0.2312149
vn 0.1684476 0.9582093 0.231215
vn 0.1684476 0.9582093 0.2312149
vn 0.3213647 0.7881999 0.5248483
vn 0.3213647 0.7881999 0.5248483
vn 0.3213646 0.7881999 0.5248483
vn -0.617203 0.2851662 0.733308
vn -0.617203 0.2851662 0.7333081
vn -0.617203 0.2851662 0.733308
vn -0.617203 0.2851662 0.7333081
vn 0.2085408 -0.8103709 0.5475488
vn 0.2085408 -0.810371 0.5475488
vn 0.2085407 -0.8103709 0.5475488
vn 0.2085408 -0.810371 0.5475488
vn 0.635312 -0.2980871 -0.7124063
vn 0.635312 -0.2980871 -0.7124063
vn 0.6353121 -0.2980872 -0.7124063
vn 0.635312 -0.2980871 -0.7124063
vn -0.1361923 0.864903 -0.4831092
vn -0.1361923 0.864903 -0.4831092
vn -0.1361923 0.864903 -0.4831092
vn -0.1361923 0.864903 -0.4831092
vn 0.5785311 0.5673281 0.5860382
vn 0.578531 0.5673281 0.5860382
vn 0.578531 0.567328 0.5860382
vn 0.578531 0.5673281 0.5860382
vn 0.5889185 0.5559458 0.5865997
vn 0.5889185 0.5559458 0.5865997
vn 0.5834469 0.5480736 0.5993372
vn 0.5834469 0.5480736 0.5993372
vn -0.5081989 0.3295356 0.795701
vn -0.5081989 0.3295356 0.795701
vn -0.5081989 0.3295356 0.795701
vn -0.5081989 0.3295356 0.7957011
vn -0.1111291 -0.9679574 0.2251862
vn -0.1111291 -0.9679574 0.2251862
vn -0.1111291 -0.9679574 0.2251862
vn -0.1111291 -0.9679574 0.2251862
vn 0.6746488 -0.2579962 -0.691583
vn 0.6746488 -0.2579962 -0.691583
vn 0.6746487 -0.2579962 -0.691583
vn 0.6746488 -0.2579962 -0.691583
vn -0.3407128 0.6081847 -0.7169561
vn -0.3407128 0.6081847 -0.7169562
vn -0.3407128 0.6081847 -0.7169562
vn -0.3407128 0.6081848 -0.7169561
vn -0.4384485 0.342621 0.8308873
vn -0.4384485 0.342621 0.8308873
vn -0.4384485 0.342621 0.8308873
vn -0.4384485 0.342621 0.8308873
vn 0.3715924 -0.595938 0.7118827
vn 0.3715924 -0.595938 0.7118828
vn 0.3715924 -0.595938 0.7118828
vn 0.3715924 -0.595938 0.7118828
vn 0.6054999 -0.2831183 -0.7437835
vn 0.6054998 -0.2831184 -0.7437835
vn 0.6054998 -0.2831183 -0.7437835
vn 0.6054998 -0.2831183 -0.7437835
vn 0.1212585 0.9499344 -0.2879602
vn 0.1212585 0.9499344 -0.2879602
vn 0.1212585 0.9499344 -0.2879602
vn 0.1212585 0.9499344 -0.2879602
vn 0.9820718 -0.05422417 0.18054
vn 0.9820718 -0.05422418 0.18054
vn 0.9820718 -0.05422418 0.18054
vn 0.9820718 -0.05422418 0.1805401
vn -0.004142164 0.9998642 0.01594701
vn -0.004142165 0.9998642 0.01594701
vn -0.004142164 0.9998642 0.01594701
vn -0.004142165 0.9998642 0.01594701
vn 0.1423779 0.2912218 0.9460013
vn 0.1423779 0.2912217 0.9460013
vn 0.1423779 0.2912217 0.9460013
vn 0.1423779 0.2912217 0.9460013
vn -0.9958019 0.09129853 0.006561175
vn -0.9958019 0.09129854 0.006561175
vn -0.9958019 0.09129854 0.006561175
vn -0.9958019 0.09129854 0.006561175
vn -0.7916634 0.580065 0.1918167
vn -0.7916634 0.580065 0.1918167
vn -0.7916634 0.580065 0.1918167
vn -0.996236 0.05278179 -0.06875992
vn -0.996236 0.05278179 -0.06875993
vn -0.996236 0.05278178 -0.06875992
vn -0.996236 0.05278179 -0.06875991
vn 0.004353926 0.9997799 -0.0205205
vn 0.004353926 0.9997799 -0.0205205
vn 0.004353926 0.9997799 -0.0205205
vn 0.004353926 0.9997799 -0.0205205
vn 0.002970885 0.9999947 -0.001353486
vn 0.002970885 0.9999947 -0.001353486
vn 0.002970885 0.9999947 -0.001353486
vn -0.8358649 -0.00612668 -0.548901
vn -0.8358649 -0.00612668 -0.548901
vn -0.8358649 -0.00612668 -0.548901
vn -0.8358649 -0.00612668 -0.548901
vn 0.004073492 -0.9921048 -0.1253452
vn 0.004073492 -0.9921048 -0.1253452
vn 0.004073492 -0.9921048 -0.1253452
vn 0.004073492 -0.9921048 -0.1253452
vn 0.9299604 -0.1055807 0.3521737
vn 0.9299604 -0.1055807 0.3521737
vn 0.9299604 -0.1055807 0.3521737
vn 0.9299604 -0.1055807 0.3521737
vn -0.9898139 0.0003529682 -0.1423665
vn -0.9898139 0.0003529682 -0.1423665
vn -0.9898139 0.0003529682 -0.1423665
vn -0.9898139 0.0003529682 -0.1423665
vn 0.0003977025 -0.9985295 -0.05421073
vn 0.0003977025 -0.9985295 -0.05421073
vn 0.0003977025 -0.9985295 -0.05421073
vn 0.0003977026 -0.9985295 -0.05421073
vn 0.002906678 -0.9994019 -0.03445697
vn 0.9983171 -0.005166841 -0.05776028
vn 0.9983171 -0.005166842 -0.05776029
vn 0.9983171 -0.005166841 -0.05776028
vn 0.9983171 -0.005166841 -0.05776029
vn 0.9992311 0.03282852 0.02143705
vn 0.9992311 0.03282852 0.02143705
vn 0.9992311 0.03282851 0.02143705
vn 0.9992311 0.03282852 0.02143705
vn 0 1 0
vn 0 1 0
vn 0 1 0
vn 0 1 0
vn -1 0 0
vn -1 0 0
vn -1 0 0
vn -1 0 0
vn 0 -1 0
vn 0 -1 0
vn 0 -1 0
vn 0 -1 0
vn 0.9725662 0 0.2326263
vn 0.9725662 0 0.2326263
vn 0.9725662 0 0.2326263
vn 0.9725662 0 0.2326263
vn 0.2162974 -0.002105204 0.9763253
vn 0.2162974 -0.002105204 0.9763253
vn 0.2162974 -0.002105204 0.9763253
vn 0.2162974 -0.002105204 0.9763253
vn 0.1936569 0.9808897 0.01877342
vn 0.1936569 0.9808897 0.01877342
vn 0.1936569 0.9808897 0.01877342
vn 0.1936569 0.9808897 0.01877342
vn 0.1911152 -0.9813927 0.01852702
vn 0.1911152 -0.9813927 0.01852702
vn 0.1911152 -0.9813927 0.01852702
vn 0.1911152 -0.9813927 0.01852702
vn -0.5087446 0.3009799 0.8065916
vn -0.5087446 0.3009799 0.8065916
vn -0.5087446 0.3009799 0.8065916
vn -0.4608757 0.8859673 -0.05153134
vn -0.4608758 0.8859673 -0.05153135
vn -0.4608758 0.8859673 -0.05153135
vn -0.4608758 0.8859673 -0.05153135
vn 0.1966441 0.9804009 -0.01205358
vn 0.1966441 0.9804009 -0.01205358
vn 0.1966441 0.9804009 -0.01205358
vn 0.1966441 0.9804009 -0.01205358
vn 0.9291909 0.2554379 0.267125
vn 0.9291909 0.2554379 0.267125
vn 0.9291909 0.2554379 0.267125
vn 0.9250032 -0.3775093 -0.04308061
vn 0.9250032 -0.3775093 -0.04308061
vn 0.9250032 -0.3775093 -0.04308061
vn 0.9250032 -0.3775093 -0.04308061
vn 0.141153 0.9215708 0.3616394
vn 0.141153 0.9215708 0.3616393
vn 0.141153 0.9215708 0.3616394
vn 0.141153 0.9215708 0.3616394
vn -0.5053064 0.8035393 -0.3146267
vn -0.5053064 0.8035393 -0.3146267
vn -0.5053064 0.8035393 -0.3146267
vn -0.5053064 0.8035394 -0.3146267
vn -0.1472221 -0.8513441 -0.5035264
vn -0.1472221 -0.8513441 -0.5035264
vn -0.1472221 -0.8513441 -0.5035264
vn -0.1472221 -0.8513441 -0.5035264
vn 0.8403779 -0.4298761 0.3301082
vn 0.8403779 -0.4298762 0.3301082
vn 0.8403779 -0.4298761 0.3301082
vn 0.8403779 -0.4298762 0.3301082
vn 0.5930296 0.7942969 -0.1319407
vn 0.5930296 0.7942969 -0.1319407
vn 0.5930296 0.7942969 -0.1319407
vn 0.4453543 0.7858357 0.4290942
vn 0.4453543 0.7858357 0.4290942
vn 0.4453543 0.7858357 0.4290942
vn 0.4453543 0.7858357 0.4290942
vn 0.261637 0.4706856 -0.8426157
vn 0.261637 0.4706857 -0.8426157
vn 0.261637 0.4706856 -0.8426157
vn 0.261637 0.4706856 -0.8426157
vn -0.4253879 -0.7844938 -0.4512368
vn -0.4253879 -0.7844938 -0.4512368
vn -0.4253879 -0.7844938 -0.4512368
vn -0.4253879 -0.7844937 -0.4512368
vn -0.1103386 -0.5154182 0.8498055
vn -0.1103386 -0.5154182 0.8498055
vn -0.1103386 -0.5154182 0.8498055
vn -0.1103386 -0.5154183 0.8498055
vn 0.9452714 -0.2873009 0.1546611
vn 0.9452714 -0.287301 0.1546611
vn 0.9452714 -0.2873009 0.1546611
vn 0.9452714 -0.2873009 0.1546611
vn 0.9467363 -0.2902078 0.139534
vn 0.9467363 -0.2902078 0.139534
vn 0.9516834 -0.2760119 0.1345963
vn 0.9516833 -0.2760119 0.1345963
vn 0.516495 0.7080175 0.4816058
vn 0.516495 0.7080175 0.4816058
vn 0.516495 0.7080174 0.4816058
vn 0.516495 0.7080174 0.4816058
vn -0.2454722 0.6534191 -0.7160913
vn -0.2454722 0.6534191 -0.7160913
vn -0.2454722 0.6534191 -0.7160913
vn -0.2454722 0.6534191 -0.7160913
vn -0.3368483 -0.7908617 -0.5109511
vn -0.3368483 -0.7908617 -0.5109511
vn -0.3368483 -0.7908617 -0.5109512
vn -0.3368483 -0.7908617 -0.5109512
vn -0.5001379 -0.4922026 0.7124596
vn -0.5001379 -0.4922026 0.7124596
vn -0.5001379 -0.4922027 0.7124596
vn -0.5001379 -0.4922026 0.7124596
vn 0.5903915 0.6677957 0.4533064
vn 0.5903915 0.6677957 0.4533064
vn 0.5903915 0.6677957 0.4533064
vn 0.5903915 0.6677957 0.4533064
vn 0.5344428 0.4860639 -0.691457
vn 0.5344428 0.486064 -0.691457
vn 0.5344428 0.486064 -0.691457
vn 0.5344428 0.486064 -0.691457
vn -0.4121896 -0.7653322 -0.4943341
vn -0.4121896 -0.7653322 -0.4943341
vn -0.4121897 -0.7653322 -0.4943341
vn -0.4121896 -0.7653322 -0.4943341
vn 0.1666277 -0.7128797 0.6812032
vn 0.1666277 -0.7128796 0.6812032
vn 0.1666277 -0.7128796 0.6812032
vn 0.1666277 -0.7128796 0.6812032
vn 0.6788095 0 0.7343144
vn 0.6788095 0 0.7343144
vn 0.6788095 0 0.7343144
vn 0.6788096 0 0.7343144
vn 0.6788095 0 0.7343144
vn 0.2296226 0.3745583 0.8983204
vn 0.2296226 0.3745583 0.8983204
vn 0.2296225 0.3745583 0.8983204
vn 0.2296225 0.3745583 0.8983204
vn -0.1333867 0 0.9910641
vn -0.1333867 0 0.9910641
vn -0.1333867 0 0.9910641
vn -0.1333841 0 0.9910644
vn -0.1333841 0 0.9910644
vn 0.2296164 -0.3746233 0.8982949
vn 0.2296164 -0.3746233 0.8982949
vn 0.2296164 -0.3746233 0.8982949
vn 0.2296164 -0.3746233 0.8982949
vn 0.4675302 -0.08542556 -0.8798398
vn 0.4675302 -0.08542556 -0.8798398
vn 0.4675302 -0.08542556 -0.8798398
vn 0.4675302 -0.08542555 -0.8798398
vn -0.02084112 -0.3474013 -0.9374849
vn -0.02084112 -0.3474013 -0.9374849
vn -0.02084112 -0.3474013 -0.9374849
vn -0.02084113 -0.3474013 -0.9374849
vn -0.3191926 -0.03121951 -0.9471755
vn -0.3191926 -0.0312195 -0.9471755
vn -0.3191926 -0.0312195 -0.9471755
vn -0.3191926 -0.0312195 -0.9471755
vn 0.4769917 0.209659 -0.8535351
vn 0.4769917 0.209659 -0.8535351
vn 0.4769917 0.209659 -0.8535351
vn 0.4769917 0.209659 -0.8535351
vn 0.0833332 0.3406156 -0.9365023
vn 0.0833332 0.3406156 -0.9365023
vn 0.0833332 0.3406156 -0.9365023
vn 0.08333319 0.3406156 -0.9365023
vn -0.2599767 -0.01275253 -0.9655307
vn -0.2599767 -0.01275253 -0.9655307
vn -0.2599767 -0.01275253 -0.9655307
vn -0.2599767 -0.01275253 -0.9655307
vn 0.9739577 0 0.2267299
vn 0.9739577 0 0.2267299
vn 0.9739577 0 0.2267299
vn 0.9739577 0 0.2267298
vn 0.9739577 0 0.2267298
vn 0.9994612 0.02072722 -0.02544669
vn 0.9994612 0.02072722 -0.02544669
vn 0.9994612 0.02072722 -0.02544669
vn 0.9994612 0.02072722 -0.02544669
vn 0.9978993 0.06336521 -0.01348216
vn 0.9978993 0.06336522 -0.01348216
vn 0.0485083 -0.9964085 0.06940511
vn 0.0485083 -0.9964085 0.0694051
vn 0.0485083 -0.9964085 0.06940511
vn 0.0485083 -0.9964085 0.06940511
vn -0.9644028 -0.05215852 0.2592427
vn -0.9644027 -0.05215852 0.2592427
vn -0.9644027 -0.05215852 0.2592427
vn -0.9644028 -0.05215852 0.2592427
vn 0.01026682 0.9822379 0.1873586
vn 0.01026682 0.9822379 0.1873586
vn 0.01026682 0.9822379 0.1873586
vn 0.01026682 0.9822379 0.1873586
vn -0.9665423 0.03731589 0.2537783
vn -0.9665423 0.03731589 0.2537783
vn -0.9665423 0.03731589 0.2537783
vn -0.9665423 0.03731589 0.2537783
g Object044_0
f 3/3/3 2/2/2 1/1/1
f 4/4/4 3/3/3 1/1/1
f 7/7/7 6/6/6 5/5/5
f 10/10/10 9/9/9 8/8/8
f 11/11/11 10/10/10 8/8/8
f 14/14/14 13/13/13 12/12/12
f 15/15/15 14/14/14 12/12/12
f 18/18/18 17/17/17 16/16/16
f 21/21/21 20/20/20 19/19/19
f 22/22/22 21/21/21 19/19/19
f 25/25/25 24/24/24 23/23/23
f 26/26/26 25/25/25 23/23/23
f 29/29/29 28/28/28 27/27/27
f 30/30/30 29/29/29 27/27/27
f 33/33/33 32/32/32 31/31/31
f 34/34/34 33/33/33 31/31/31
f 37/37/37 36/36/36 35/35/35
f 38/38/38 37/37/37 35/35/35
f 41/41/41 40/40/40 39/39/39
f 42/42/42 41/41/41 39/39/39
f 45/45/45 44/44/44 43/43/43
f 48/48/48 47/47/47 46/46/46
f 49/49/49 48/48/48 46/46/46
f 52/52/52 51/51/51 50/50/50
f 53/53/53 52/52/52 50/50/50
f 56/56/56 55/55/55 54/54/54
f 57/57/57 56/56/56 54/54/54
f 60/60/60 59/59/59 58/58/58
f 63/63/63 62/62/62 61/61/61
f 66/66/66 65/65/65 64/64/64
f 69/69/69 68/68/68 67/67/67
f 70/70/70 69/69/69 67/67/67
f 73/73/73 72/72/72 71/71/71
f 74/74/74 73/73/73 71/71/71
f 77/77/77 76/76/76 75/75/75
f 78/78/78 77/77/77 75/75/75
f 81/81/81 80/80/80 79/79/79
f 82/82/82 81/81/81 79/79/79
f 85/85/85 84/84/84 83/83/83
f 86/86/86 85/85/85 83/83/83
f 89/89/89 88/88/88 87/87/87
f 90/90/90 89/89/89 87/87/87
f 93/93/93 92/92/92 91/91/91
f 94/94/94 93/93/93 91/91/91
f 97/97/97 96/96/96 95/95/95
f 98/98/98 97/97/97 95/95/95
f 101/101/101 100/100/100 99/99/99
f 102/102/102 101/101/101 99/99/99
f 105/105/105 104/104/104 103/103/103
f 106/106/106 105/105/105 103/103/103
f 109/109/109 108/108/108 107/107/107
f 110/110/110 109/109/109 107/107/107
f 110/110/110 111/111/111 109/109/109
f 111/111/111 112/112/112 109/109/109
f 115/115/115 114/114/114 113/113/113
f 116/116/116 115/115/115 113/113/113
f 119/119/119 118/118/118 117/117/117
f 120/120/120 119/119/119 117/117/117
f 123/123/123 122/122/122 121/121/121
f 126/126/126 125/125/125 124/124/124
f 127/127/127 126/126/126 124/124/124
f 130/130/130 129/129/129 128/128/128
f 129/129/129 131/131/131 128/128/128
f 134/134/134 133/133/133 132/132/132
f 135/135/135 134/134/134 132/132/132
f 133/133/133 136/136/136 132/132/132
f 136/136/136 137/137/137 132/132/132
f 140/140/140 139/139/139 138/138/138
f 141/141/141 140/140/140 138/138/138
f 139/139/139 140/140/140 142/142/142
f 140/140/140 143/143/143 142/142/142
f 143/143/143 144/144/144 142/142/142
f 147/147/147 146/146/146 145/145/145
f 148/148/148 147/147/147 145/145/145
f 151/151/151 150/150/150 149/149/149
f 152/152/152 151/151/151 149/149/149
f 155/155/155 154/154/154 153/153/153
f 156/156/156 155/155/155 153/153/153
f 159/159/159 158/158/158 157/157/157
f 160/160/160 159/159/159 157/157/157
f 163/163/163 162/162/162 161/161/161
f 164/164/164 163/163/163 161/161/161
f 165/165/165 164/164/164 161/161/161
f 168/168/168 167/167/167 166/166/166
f 169/169/169 168/168/168 166/166/166
f 172/172/172 171/171/171 170/170/170
f 173/173/173 172/172/172 170/170/170
f 176/176/176 175/175/175 174/174/174
f 177/177/177 176/176/176 174/174/174
f 180/180/180 179/179/179 178/178/178
f 181/181/181 180/180/180 178/178/178
f 184/184/184 183/183/183 182/182/182
f 185/185/185 184/184/184 182/182/182
f 188/188/188 187/187/187 186/186/186
f 189/189/189 188/188/188 186/186/186
f 192/192/192 191/191/191 190/190/190
f 193/193/193 192/192/192 190/190/190
f 196/196/196 195/195/195 194/194/194
f 197/197/197 196/196/196 194/194/194
f 200/200/200 199/199/199 198/198/198
f 203/203/203 202/202/202 201/201/201
f 204/204/204 203/203/203 201/201/201
f 207/207/207 206/206/206 205/205/205
f 208/208/208 207/207/207 205/205/205
f 211/211/211 210/210/210 209/209/209
f 214/214/214 213/213/213 212/212/212
f 215/215/215 214/214/214 212/212/212
f 218/218/218 217/217/217 216/216/216
f 219/219/219 218/218/218 216/216/216
f 222/222/222 221/221/221 220/220/220
f 223/223/223 222/222/222 220/220/220
f 226/226/226 225/225/225 224/224/224
f 227/227/227 226/226/226 224/224/224
f 230/230/230 229/229/229 228/228/228
f 231/231/231 230/230/230 228/228/228
f 234/234/234 233/233/233 232/232/232
f 237/237/237 236/236/236 235/235/235
f 238/238/238 237/237/237 235/235/235
f 241/241/241 240/240/240 239/239/239
f 242/242/242 241/241/241 239/239/239
f 245/245/245 244/244/244 243/243/243
f 246/246/246 245/245/245 243/243/243
f 249/249/249 248/248/248 247/247/247
f 250/250/250 249/249/249 247/247/247
f 253/253/253 252/252/252 251/251/251
f 254/254/254 253/253/253 251/251/251
f 255/255/255 253/253/253 254/254/254
f 256/256/256 255/255/255 254/254/254
f 257/257/257 255/255/255 256/256/256
f 258/258/258 257/257/257 256/256/256
f 252/252/252 257/257/257 258/258/258
f 251/251/251 252/252/252 258/258/258
f 261/261/261 260/260/260 259/259/259
f 262/262/262 261/261/261 259/259/259
f 265/265/265 264/264/264 263/263/263
f 266/266/266 265/265/265 263/263/263
f 269/269/269 268/268/268 267/267/267
f 270/270/270 269/269/269 267/267/267
f 273/273/273 272/272/272 271/271/271
f 274/274/274 273/273/273 271/271/271
f 277/277/277 276/276/276 275/275/275
f 278/278/278 277/277/277 275/275/275
f 281/281/281 280/280/280 279/279/279
f 282/282/282 281/281/281 279/279/279
f 285/285/285 284/284/284 283/283/283
f 286/286/286 285/285/285 283/283/283
f 289/289/289 288/288/288 287/287/287
f 290/290/290 289/289/289 287/287/287
f 293/293/293 292/292/292 291/291/291
f 294/294/294 293/293/293 291/291/291
f 297/297/297 296/296/296 295/295/295
f 298/298/298 297/297/297 295/295/295
f 301/301/301 300/300/300 299/299/299
f 302/302/302 301/301/301 299/299/299
f 305/305/305 304/304/304 303/303/303
f 306/306/306 305/305/305 303/303/303
f 309/309/309 308/308/308 307/307/307
f 312/312/312 311/311/311 310/310/310
f 313/313/313 312/312/312 310/310/310
f 316/316/316 315/315/315 314/314/314
f 317/317/317 316/316/316 314/314/314
f 316/316/316 317/317/317 318/318/318
f 319/319/319 316/316/316 318/318/318
f 320/320/320 319/319/319 318/318/318
f 323/323/323 322/322/322 321/321/321
f 324/324/324 323/323/323 321/321/321
f 327/327/327 326/326/326 325/325/325
f 328/328/328 327/327/327 325/325/325
f 331/331/331 330/330/330 329/329/329
f 332/332/332 331/331/331 329/329/329
f 335/335/335 334/334/334 333/333/333
f 336/336/336 335/335/335 333/333/333
f 339/339/339 338/338/338 337/337/337
f 340/340/340 339/339/339 337/337/337
f 341/341/341 337/337/337 338/338/338
f 344/344/344 343/343/343 342/342/342
f 345/345/345 344/344/344 342/342/342
f 348/348/348 347/347/347 346/346/346
f 349/349/349 348/348/348 346/346/346
f 352/352/352 351/351/351 350/350/350
f 353/353/353 352/352/352 350/350/350
f 356/356/356 355/355/355 354/354/354
f 357/357/357 356/356/356 354/354/354
f 360/360/360 359/359/359 358/358/358
f 361/361/361 360/360/360 358/358/358
f 364/364/364 363/363/363 362/362/362
f 365/365/365 364/364/364 362/362/362
f 368/368/368 367/367/367 366/366/366
f 369/369/369 368/368/368 366/366/366
f 372/372/372 371/371/371 370/370/370
f 373/373/373 372/372/372 370/370/370
f 376/376/376 375/375/375 374/374/374
f 377/377/377 376/376/376 374/374/374
f 380/380/380 379/379/379 378/378/378
f 383/383/383 382/382/382 381/381/381
f 384/384/384 383/383/383 381/381/381
f 387/387/387 386/386/386 385/385/385
f 388/388/388 387/387/387 385/385/385
f 391/391/391 390/390/390 389/389/389
f 394/394/394 393/393/393 392/392/392
f 395/395/395 394/394/394 392/392/392
f 398/398/398 397/397/397 396/396/396
f 399/399/399 398/398/398 396/396/396
f 402/402/402 401/401/401 400/400/400
f 403/403/403 402/402/402 400/400/400
f 406/406/406 405/405/405 404/404/404
f 407/407/407 406/406/406 404/404/404
f 410/410/410 409/409/409 408/408/408
f 411/411/411 410/410/410 408/408/408
f 414/414/414 413/413/413 412/412/412
f 417/417/417 416/416/416 415/415/415
f 418/418/418 417/417/417 415/415/415
f 421/421/421 420/420/420 419/419/419
f 422/422/422 421/421/421 419/419/419
f 425/425/425 424/424/424 423/423/423
f 426/426/426 425/425/425 423/423/423
f 429/429/429 428/428/428 427/427/427
f 430/430/430 429/429/429 427/427/427
f 433/433/433 432/432/432 431/431/431
f 434/434/434 433/433/433 431/431/431
f 433/433/433 435/435/435 432/432/432
f 435/435/435 436/436/436 432/432/432
f 435/435/435 437/437/437 436/436/436
f 437/437/437 438/438/438 436/436/436
f 434/434/434 431/431/431 438/438/438
f 437/437/437 434/434/434 438/438/438
f 441/441/441 440/440/440 439/439/439
f 442/442/442 441/441/441 439/439/439
f 445/445/445 444/444/444 443/443/443
f 446/446/446 445/445/445 443/443/443
f 449/449/449 448/448/448 447/447/447
f 450/450/450 449/449/449 447/447/447
f 453/453/453 452/452/452 451/451/451
f 454/454/454 453/453/453 451/451/451
f 457/457/457 456/456/456 455/455/455
f 458/458/458 457/457/457 455/455/455
f 461/461/461 460/460/460 459/459/459
f 462/462/462 461/461/461 459/459/459
f 465/465/465 464/464/464 463/463/463
f 466/466/466 465/465/465 463/463/463
f 469/469/469 468/468/468 467/467/467
f 470/470/470 469/469/469 467/467/467
f 473/473/473 472/472/472 471/471/471
f 474/474/474 472/472/472 473/473/473
f 475/475/475 474/474/474 473/473/473
f 478/478/478 477/477/477 476/476/476
f 479/479/479 478/478/478 476/476/476
f 482/482/482 481/481/481 480/480/480
f 483/483/483 481/481/481 482/482/482
f 484/484/484 483/483/483 482/482/482
f 487/487/487 486/486/486 485/485/485
f 488/488/488 487/487/487 485/485/485
f 491/491/491 490/490/490 489/489/489
f 492/492/492 491/491/491 489/489/489
f 495/495/495 494/494/494 493/493/493
f 496/496/496 495/495/495 493/493/493
f 499/499/499 498/498/498 497/497/497
f 500/500/500 499/499/499 497/497/497
f 503/503/503 502/502/502 501/501/501
f 504/504/504 503/503/503 501/501/501
f 507/507/507 506/506/506 505/505/505
f 508/508/508 507/507/507 505/505/505
f 511/511/511 510/510/510 509/509/509
f 512/512/512 511/511/511 509/509/509
f 515/515/515 514/514/514 513/513/513
f 517/517/517 516/516/516 514/514/514
f 520/520/520 519/519/519 518/518/518
f 521/521/521 520/520/520 518/518/518
f 521/521/521 518/518/518 522/522/522
f 518/518/518 523/523/523 522/522/522
f 526/526/526 525/525/525 524/524/524
f 527/527/527 526/526/526 524/524/524
f 530/530/530 529/529/529 528/528/528
f 531/531/531 530/530/530 528/528/528
f 534/534/534 533/533/533 532/532/532
f 535/535/535 534/534/534 532/532/532
f 538/538/538 537/537/537 536/536/536
f 539/539/539 538/538/538 536/536/536
