g Object064
v -5.947436 16.12972 8.997545
v 1.074921 16.12973 4.72108
v 1.074915 -16.28712 4.72108
v -5.947443 -16.28712 8.997545
v 1.074921 16.12973 4.12108
v 1.074921 16.12973 4.72108
v -5.947436 16.12972 8.997545
v -6.289073 16.12972 8.605597
v -6.63071 16.12972 8.997546
v -13.65306 16.12973 4.72108
v -13.65306 16.12973 4.121079
v -13.65308 -16.28711 4.121079
v -13.65308 -16.28711 4.72108
v -6.630716 -16.28712 8.997546
v -6.28908 -16.28712 8.605597
v -5.947443 -16.28712 8.997545
v 1.074915 -16.28712 4.72108
v 1.074915 -16.28712 4.12108
v 1.074915 -16.28712 4.12108
v 1.074915 -16.28712 4.72108
v 1.074921 16.12973 4.72108
v 1.074921 16.12973 4.12108
v -6.073832 16.12972 9.597548
v -6.073838 -16.28712 9.597548
v -6.504319 -16.28712 9.597548
v -6.504313 16.12972 9.597548
v -5.947443 -16.28712 8.997545
v -6.073838 -16.28712 9.597548
v -6.073832 16.12972 9.597548
v -5.947436 16.12972 8.997545
v -6.178133 17.23836 9.965708
v -6.219179 17.23836 10.16054
v -6.219188 -17.39576 10.16054
v -6.178142 -17.39576 9.965708
v -6.178133 17.23836 9.965708
v -6.219179 17.23836 10.16054
v -6.358965 17.23836 10.16054
v -6.400011 17.23836 9.965709
v -6.63071 16.12972 8.997546
v -6.504313 16.12972 9.597548
v -6.504319 -16.28712 9.597548
v -6.630716 -16.28712 8.997546
v -6.358965 17.23836 10.16054
v -6.400011 17.23836 9.965709
v -6.40002 -17.39576 9.965709
v -6.358974 -17.39576 10.16054
v -6.40002 -17.39576 9.965709
v -6.358974 -17.39576 10.16054
v -6.219188 -17.39576 10.16054
v -6.178142 -17.39576 9.965708
v -5.947436 16.12972 8.997545
v -6.178133 17.23836 9.965708
v -6.400011 17.23836 9.965709
v -6.63071 16.12972 8.997546
v -6.504313 16.12972 9.597548
v -6.358965 17.23836 10.16054
v -6.219179 17.23836 10.16054
v -6.073832 16.12972 9.597548
v -6.630716 -16.28712 8.997546
v -6.40002 -17.39576 9.965709
v -6.178142 -17.39576 9.965708
v -5.947443 -16.28712 8.997545
v -6.073838 -16.28712 9.597548
v -6.219188 -17.39576 10.16054
v -6.358974 -17.39576 10.16054
v -6.504319 -16.28712 9.597548
v -13.65306 16.12973 4.121079
v -13.05307 14.85582 4.486087
v -6.289073 14.85582 8.605597
v -6.289073 16.12972 8.605597
v -6.289073 16.12972 8.605597
v -6.289073 14.85582 8.605597
v 0.4749184 14.85581 4.486087
v 1.074921 16.12973 4.12108
v 1.074915 -16.28712 4.12108
v 0.4749136 -14.89951 4.486087
v -6.289081 -14.89951 8.605597
v -6.28908 -16.28712 8.605597
v -6.28908 -16.28712 8.605597
v -6.289081 -14.89951 8.605597
v -13.05307 -14.89951 4.486087
v -13.65308 -16.28711 4.121079
v -6.630716 -16.28712 8.997546
v -13.65308 -16.28711 4.72108
v -13.65306 16.12973 4.72108
v -6.63071 16.12972 8.997546
v -13.65306 16.12973 4.121079
v -13.65306 16.12973 4.72108
v -13.65308 -16.28711 4.72108
v -13.65308 -16.28711 4.121079
v 7.112618 71.17307 3.483306
v 14.13498 71.17308 -0.7931604
v 14.13496 40.81774 -0.7931604
v 7.112602 40.81776 3.483306
v 14.13498 71.17308 -1.393161
v 14.13498 71.17308 -0.7931604
v 7.112618 71.17307 3.483306
v 6.770982 71.17307 3.091357
v 6.429347 71.17308 3.483306
v -0.593008 71.17308 -0.7931604
v -0.593008 71.17308 -1.393161
v -0.593029 40.81776 -1.393161
v -0.593029 40.81776 -0.7931604
v 6.429329 40.81776 3.483306
v 6.770966 40.81776 3.091357
v 7.112602 40.81776 3.483306
v 14.13496 40.81774 -0.7931604
v 14.13496 40.81774 -1.393161
v 14.13496 40.81774 -1.393161
v 14.13496 40.81774 -0.7931604
v 14.13498 71.17308 -0.7931604
v 14.13498 71.17308 -1.393161
v 6.986224 71.17307 4.083309
v 6.986206 40.81776 4.083309
v 6.555725 40.81776 4.083308
v 6.555743 71.17308 4.083308
v 7.112602 40.81776 3.483306
v 6.986206 40.81776 4.083309
v 6.986224 71.17307 4.083309
v 7.112618 71.17307 3.483306
v 6.881923 72.28171 4.451469
v 6.840877 72.28171 4.646301
v 6.840859 39.70911 4.646301
v 6.881906 39.70911 4.451469
v 6.881923 72.28171 4.451469
v 6.840877 72.28171 4.646301
v 6.701091 72.28172 4.6463
v 6.660045 72.28172 4.451469
v 6.429347 71.17308 3.483306
v 6.555743 71.17308 4.083308
v 6.555725 40.81776 4.083308
v 6.429329 40.81776 3.483306
v 6.701091 72.28172 4.6463
v 6.660045 72.28172 4.451469
v 6.660028 39.70911 4.451469
v 6.701074 39.70911 4.6463
v 6.660028 39.70911 4.451469
v 6.701074 39.70911 4.6463
v 6.840859 39.70911 4.646301
v 6.881906 39.70911 4.451469
v 7.112618 71.17307 3.483306
v 6.881923 72.28171 4.451469
v 6.660045 72.28172 4.451469
v 6.429347 71.17308 3.483306
v 6.555743 71.17308 4.083308
v 6.701091 72.28172 4.6463
v 6.840877 72.28171 4.646301
v 6.986224 71.17307 4.083309
v 6.429329 40.81776 3.483306
v 6.660028 39.70911 4.451469
v 6.881906 39.70911 4.451469
v 7.112602 40.81776 3.483306
v 6.986206 40.81776 4.083309
v 6.840859 39.70911 4.646301
v 6.701074 39.70911 4.6463
v 6.555725 40.81776 4.083308
v -0.593008 71.17308 -1.393161
v 0.006990433 70.87308 -1.028153
v 6.770982 70.87308 3.091357
v 6.770982 71.17307 3.091357
v 6.770982 71.17307 3.091357
v 6.770982 70.87308 3.091357
v 13.53497 70.87308 -1.028153
v 14.13498 71.17308 -1.393161
v 14.13496 40.81774 -1.393161
v 13.53496 41.11774 -1.028153
v 6.770967 41.11775 3.091357
v 6.770966 40.81776 3.091357
v 6.770966 40.81776 3.091357
v 6.770967 41.11775 3.091357
v 0.006977081 41.11775 -1.028153
v -0.593029 40.81776 -1.393161
v 6.429329 40.81776 3.483306
v -0.593029 40.81776 -0.7931604
v -0.593008 71.17308 -0.7931604
v 6.429347 71.17308 3.483306
v -0.593008 71.17308 -1.393161
v -0.593008 71.17308 -0.7931604
v -0.593029 40.81776 -0.7931604
v -0.593029 40.81776 -1.393161
v -7.397448 49.63967 8.997545
v -0.3750916 49.63967 4.72108
v -0.3750973 17.22283 4.72108
v -7.397456 17.22283 8.997545
v -0.3750916 49.63967 4.121079
v -0.3750916 49.63967 4.72108
v -7.397448 49.63967 8.997545
v -7.739085 49.63967 8.605597
v -8.080721 49.63967 8.997545
v -15.10308 49.63968 4.72108
v -15.10308 49.63968 4.12108
v -15.10309 17.22284 4.12108
v -15.10309 17.22284 4.72108
v -8.080729 17.22284 8.997545
v -7.739092 17.22284 8.605597
v -7.397456 17.22283 8.997545
v -0.3750973 17.22283 4.72108
v -0.3750973 17.22283 4.121079
v -0.3750973 17.22283 4.121079
v -0.3750973 17.22283 4.72108
v -0.3750916 49.63967 4.72108
v -0.3750916 49.63967 4.121079
v -7.523842 49.63967 9.597548
v -7.52385 17.22283 9.597548
v -7.954331 17.22284 9.597548
v -7.954323 49.63967 9.597548
v -7.397456 17.22283 8.997545
v -7.52385 17.22283 9.597548
v -7.523842 49.63967 9.597548
v -7.397448 49.63967 8.997545
v -7.628145 50.74831 9.965708
v -7.669191 50.74831 10.16054
v -7.6692 16.11419 10.16054
v -7.628154 16.11419 9.965708
v -7.628145 50.74831 9.965708
v -7.669191 50.74831 10.16054
v -7.808977 50.74831 10.16054
v -7.850023 50.74831 9.965708
v -8.080721 49.63967 8.997545
v -7.954323 49.63967 9.597548
v -7.954331 17.22284 9.597548
v -8.080729 17.22284 8.997545
v -7.808977 50.74831 10.16054
v -7.850023 50.74831 9.965708
v -7.850032 16.11419 9.965708
v -7.808986 16.11419 10.16054
v -7.850032 16.11419 9.965708
v -7.808986 16.11419 10.16054
v -7.6692 16.11419 10.16054
v -7.628154 16.11419 9.965708
v -7.397448 49.63967 8.997545
v -7.628145 50.74831 9.965708
v -7.850023 50.74831 9.965708
v -8.080721 49.63967 8.997545
v -7.954323 49.63967 9.597548
v -7.808977 50.74831 10.16054
v -7.669191 50.74831 10.16054
v -7.523842 49.63967 9.597548
v -8.080729 17.22284 8.997545
v -7.850032 16.11419 9.965708
v -7.628154 16.11419 9.965708
v -7.397456 17.22283 8.997545
v -7.52385 17.22283 9.597548
v -7.6692 16.11419 10.16054
v -7.808986 16.11419 10.16054
v -7.954331 17.22284 9.597548
v -15.10308 49.63968 4.12108
v -14.50308 48.36576 4.486087
v -7.739086 48.36576 8.605597
v -7.739085 49.63967 8.605597
v -7.739085 49.63967 8.605597
v -7.739086 48.36576 8.605597
v -0.9750953 48.36576 4.486087
v -0.3750916 49.63967 4.121079
v -0.3750973 17.22283 4.121079
v -0.9751 18.61044 4.486087
v -7.739093 18.61044 8.605597
v -7.739092 17.22284 8.605597
v -7.739092 17.22284 8.605597
v -7.739093 18.61044 8.605597
v -14.50308 18.61044 4.486087
v -15.10309 17.22284 4.12108
v -8.080729 17.22284 8.997545
v -15.10309 17.22284 4.72108
v -15.10308 49.63968 4.72108
v -8.080721 49.63967 8.997545
v -15.10308 49.63968 4.12108
v -15.10308 49.63968 4.72108
v -15.10309 17.22284 4.72108
v -15.10309 17.22284 4.12108
vt 15.33587 0.4419894
vt 15.33587 0.03557346
vt -14.13399 0.0355774
vt -14.13399 0.4419864
vt 0.1315593 0.4926579
vt 0.1315593 0.4926579
vt 0.1315593 0.4926579
vt 0.1315593 0.4926579
vt 0.1315593 0.4926579
vt 0.1315593 0.4926579
vt 0.1315593 0.4926579
vt 0.1315593 0.4926579
vt 0.1315593 0.4926579
vt 0.1315593 0.4926579
vt 0.1315593 0.4926579
vt 0.1315593 0.4926579
vt 0.1315593 0.4926579
vt 0.1315593 0.4926579
vt -14.13399 0.001035908
vt -14.13399 0.0355774
vt 15.33587 0.03557346
vt 15.33587 0.001038623
vt 0.1315593 0.4926579
vt 0.1315593 0.4926579
vt 0.1315593 0.4926579
vt 0.1315593 0.4926579
vt 0.1315593 0.4926579
vt 0.1315593 0.4926579
vt 0.1315593 0.4926579
vt 0.1315593 0.4926579
vt 0.1315593 0.4926579
vt 0.1315593 0.4926579
vt 0.1315593 0.4926579
vt 0.1315593 0.4926579
vt 0.1315593 0.4926579
vt 0.1315593 0.4926579
vt 0.1315593 0.4926579
vt 0.1315593 0.4926579
vt 0.1315593 0.4926579
vt 0.1315593 0.4926579
vt 0.1315593 0.4926579
vt 0.1315593 0.4926579
vt 0.1315593 0.4926579
vt 0.1315593 0.4926579
vt 0.1315593 0.4926579
vt 0.1315593 0.4926579
vt 0.1315593 0.4926579
vt 0.1315593 0.4926579
vt 0.1315593 0.4926579
vt 0.1315593 0.4926579
vt 0.1315593 0.4926579
vt 0.1315593 0.4926579
vt 0.1315593 0.4926579
vt 0.1315593 0.4926579
vt 0.1315593 0.4926579
vt 0.1315593 0.4926579
vt 0.1315593 0.4926579
vt 0.1315593 0.4926579
vt 0.1315593 0.4926579
vt 0.1315593 0.4926579
vt 0.1315593 0.4926579
vt 0.1315593 0.4926579
vt 0.1315593 0.4926579
vt 0.1315593 0.4926579
vt 0.1315593 0.4926579
vt 0.1315593 0.4926579
vt 0.1315593 0.4926579
vt 0.1315593 0.4926579
vt 0.1315593 0.4926579
vt 0.1315593 0.4926579
vt 0.1315593 0.4926579
vt 0.1315593 0.4926579
vt 0.1315593 0.4926579
vt 0.1315593 0.4926579
vt 0.1315593 0.4926579
vt 0.1315593 0.4926579
vt 0.1315593 0.4926579
vt 0.1315593 0.4926579
vt 0.1315593 0.4926579
vt 0.1315593 0.4926579
vt 0.1315593 0.4926579
vt 0.1315593 0.4926579
vt 15.4954 0.4419894
vt 15.4954 0.03557281
vt -13.97445 0.03557592
vt -13.97445 0.441988
vt -13.97445 0.001035637
vt -13.97445 0.03557592
vt 15.4954 0.03557281
vt 15.4954 0.00104167
vt 14.45049 0.4419894
vt 14.45049 0.03557351
vt -13.14525 0.03557576
vt -13.14525 0.4419881
vt 0.1315593 0.4926579
vt 0.1315593 0.4926579
vt 0.1315593 0.4926579
vt 0.1315593 0.4926579
vt 0.1315593 0.4926579
vt 0.1315593 0.4926579
vt 0.1315593 0.4926579
vt 0.1315593 0.4926579
vt 0.1315593 0.4926579
vt 0.1315593 0.4926579
vt 0.1315593 0.4926579
vt 0.1315593 0.4926579
vt 0.1315593 0.4926579
vt 0.1315593 0.4926579
vt -13.14525 0.001035986
vt -13.14525 0.03557576
vt 14.45049 0.03557351
vt 14.45049 0.001038639
vt 0.1315593 0.4926579
vt 0.1315593 0.4926579
vt 0.1315593 0.4926579
vt 0.1315593 0.4926579
vt 0.1315593 0.4926579
vt 0.1315593 0.4926579
vt 0.1315593 0.4926579
vt 0.1315593 0.4926579
vt 0.1315593 0.4926579
vt 0.1315593 0.4926579
vt 0.1315593 0.4926579
vt 0.1315593 0.4926579
vt 0.1315593 0.4926579
vt 0.1315593 0.4926579
vt 0.1315593 0.4926579
vt 0.1315593 0.4926579
vt 0.1315593 0.4926579
vt 0.1315593 0.4926579
vt 0.1315593 0.4926579
vt 0.1315593 0.4926579
vt 0.1315593 0.4926579
vt 0.1315593 0.4926579
vt 0.1315593 0.4926579
vt 0.1315593 0.4926579
vt 0.1315593 0.4926579
vt 0.1315593 0.4926579
vt 0.1315593 0.4926579
vt 0.1315593 0.4926579
vt 0.1315593 0.4926579
vt 0.1315593 0.4926579
vt 0.1315593 0.4926579
vt 0.1315593 0.4926579
vt 0.1315593 0.4926579
vt 0.1315593 0.4926579
vt 0.1315593 0.4926579
vt 0.1315593 0.4926579
vt 0.1315593 0.4926579
vt 0.1315593 0.4926579
vt 0.1315593 0.4926579
vt 0.1315593 0.4926579
vt 0.1315593 0.4926579
vt 0.1315593 0.4926579
vt 0.1315593 0.4926579
vt 0.1315593 0.4926579
vt 0.1315593 0.4926579
vt 0.1315593 0.4926579
vt 0.1315593 0.4926579
vt 0.1315593 0.4926579
vt 0.1315593 0.4926579
vt 0.1315593 0.4926579
vt 0.1315593 0.4926579
vt 0.1315593 0.4926579
vt 0.1315593 0.4926579
vt 0.1315593 0.4926579
vt 0.1315593 0.4926579
vt 0.1315593 0.4926579
vt 0.1315593 0.4926579
vt 0.1315593 0.4926579
vt 0.1315593 0.4926579
vt 0.1315593 0.4926579
vt 14.50667 0.4419894
vt 14.50667 0.03557369
vt -13.08908 0.0355759
vt -13.08908 0.441988
vt -13.08908 0.001035714
vt -13.08908 0.0355759
vt 14.50667 0.03557369
vt 14.50667 0.001038456
vt 15.33587 0.4419894
vt 15.33587 0.03557346
vt -14.13399 0.0355774
vt -14.13399 0.4419864
vt 0.1315593 0.4926579
vt 0.1315593 0.4926579
vt 0.1315593 0.4926579
vt 0.1315593 0.4926579
vt 0.1315593 0.4926579
vt 0.1315593 0.4926579
vt 0.1315593 0.4926579
vt 0.1315593 0.4926579
vt 0.1315593 0.4926579
vt 0.1315593 0.4926579
vt 0.1315593 0.4926579
vt 0.1315593 0.4926579
vt 0.1315593 0.4926579
vt 0.1315593 0.4926579
vt -14.13399 0.001035908
vt -14.13399 0.0355774
vt 15.33587 0.03557346
vt 15.33587 0.001038623
vt 0.1315593 0.4926579
vt 0.1315593 0.4926579
vt 0.1315593 0.4926579
vt 0.1315593 0.4926579
vt 0.1315593 0.4926579
vt 0.1315593 0.4926579
vt 0.1315593 0.4926579
vt 0.1315593 0.4926579
vt 0.1315593 0.4926579
vt 0.1315593 0.4926579
vt 0.1315593 0.4926579
vt 0.1315593 0.4926579
vt 0.1315593 0.4926579
vt 0.1315593 0.4926579
vt 0.1315593 0.4926579
vt 0.1315593 0.4926579
vt 0.1315593 0.4926579
vt 0.1315593 0.4926579
vt 0.1315593 0.4926579
vt 0.1315593 0.4926579
vt 0.1315593 0.4926579
vt 0.1315593 0.4926579
vt 0.1315593 0.4926579
vt 0.1315593 0.4926579
vt 0.1315593 0.4926579
vt 0.1315593 0.4926579
vt 0.1315593 0.4926579
vt 0.1315593 0.4926579
vt 0.1315593 0.4926579
vt 0.1315593 0.4926579
vt 0.1315593 0.4926579
vt 0.1315593 0.4926579
vt 0.1315593 0.4926579
vt 0.1315593 0.4926579
vt 0.1315593 0.4926579
vt 0.1315593 0.4926579
vt 0.1315593 0.4926579
vt 0.1315593 0.4926579
vt 0.1315593 0.4926579
vt 0.1315593 0.4926579
vt 0.1315593 0.4926579
vt 0.1315593 0.4926579
vt 0.1315593 0.4926579
vt 0.1315593 0.4926579
vt 0.1315593 0.4926579
vt 0.1315593 0.4926579
vt 0.1315593 0.4926579
vt 0.1315593 0.4926579
vt 0.1315593 0.4926579
vt 0.1315593 0.4926579
vt 0.1315593 0.4926579
vt 0.1315593 0.4926579
vt 0.1315593 0.4926579
vt 0.1315593 0.4926579
vt 0.1315593 0.4926579
vt 0.1315593 0.4926579
vt 0.1315593 0.4926579
vt 0.1315593 0.4926579
vt 0.1315593 0.4926579
vt 0.1315593 0.4926579
vt 15.4954 0.4419894
vt 15.4954 0.03557281
vt -13.97445 0.03557592
vt -13.97445 0.441988
vt -13.97445 0.001035637
vt -13.97445 0.03557592
vt 15.4954 0.03557281
vt 15.4954 0.00104167
vn 0.5201232 0 0.8540912
vn 0.5201232 0 0.8540912
vn 0.5201232 0 0.8540912
vn 0.5201232 0 0.8540912
vn 0 1 0
vn 0 1 0
vn 0 1 0
vn 0 1 0
vn 0 1 0
vn 0 1 0
vn 0 1 0
vn 0 -1 0
vn 0 -1 0
vn 0 -1 0
vn 0 -1 0
vn 0 -1 0
vn 0 -1 0
vn 0 -1 0
vn 1 0 0
vn 1 0 0
vn 1 0 0
vn 1 0 0
vn 0 0 1
vn 0 0 1
vn 0 0 1
vn 0 0 1
vn 0.9785239 0 0.2061338
vn 0.9785239 0 0.2061338
vn 0.9785239 0 0.2061338
vn 0.9785239 0 0.2061338
vn 0.9782504 0.02359863 0.2060803
vn 0.9782504 0.02359863 0.2060803
vn 0.9782504 -0.02360027 0.2060802
vn 0.9782504 -0.02360027 0.2060802
vn 1.054769E-05 1 0
vn 1.054769E-05 1 0
vn 1.054769E-05 1 0
vn 1.054769E-05 1 0
vn -0.9785232 0 0.2061368
vn -0.9785232 0 0.2061368
vn -0.9785232 0 0.2061368
vn -0.9785232 0 0.2061368
vn -0.97825 0.02359788 0.2060825
vn -0.97825 0.02359788 0.2060825
vn -0.9782501 -0.02359612 0.2060825
vn -0.9782501 -0.02359612 0.2060825
vn 0 -1 0
vn 0 -1 0
vn 0 -1 0
vn 0 -1 0
vn 0 0.6577745 -0.7532148
vn 0 0.6577745 -0.7532148
vn 0 0.6577745 -0.7532149
vn 0 0.6577746 -0.7532148
vn 0 -0.4527855 0.8916194
vn 0 -0.4527855 0.8916194
vn 0 -0.4527855 0.8916195
vn 0 -0.4527855 0.8916195
vn 0 -0.6577733 -0.753216
vn 0 -0.6577733 -0.753216
vn 0 -0.6577733 -0.753216
vn 0 -0.6577733 -0.753216
vn 0 0.4527836 0.8916204
vn 0 0.4527837 0.8916204
vn 0 0.4527837 0.8916204
vn 0 0.4527837 0.8916204
vn 0.5201403 0.0001325105 -0.8540808
vn 0.5201404 0.0001325105 -0.8540807
vn 0.5201403 0.0001325105 -0.8540808
vn 0.5201403 0.0001325105 -0.8540808
vn -0.5201404 0.0001332575 -0.8540807
vn -0.5201404 0.0001332575 -0.8540807
vn -0.5201404 0.0001332575 -0.8540807
vn -0.5201403 0.0001332575 -0.8540808
vn -0.5201402 -0.0001222969 -0.8540809
vn -0.5201402 -0.0001222969 -0.8540809
vn -0.5201402 -0.0001222969 -0.8540809
vn -0.5201402 -0.0001222969 -0.8540809
vn 0.5201402 -0.0001225467 -0.8540809
vn 0.5201402 -0.0001225467 -0.8540809
vn 0.5201402 -0.0001225467 -0.8540809
vn 0.5201402 -0.0001225467 -0.8540809
vn -0.5201232 0 0.8540912
vn -0.5201232 0 0.8540912
vn -0.5201232 0 0.8540912
vn -0.5201232 0 0.8540912
vn -1 0 0
vn -1 0 0
vn -1 0 0
vn -1 0 0
vn 0.5201233 0 0.8540912
vn 0.5201234 0 0.8540912
vn 0.5201234 0 0.8540912
vn 0.5201233 0 0.8540912
vn 0 1 0
vn 0 1 0
vn 0 1 0
vn 0 1 0
vn 0 1 0
vn 0 1 0
vn 0 1 0
vn 0 -1 0
vn 0 -1 0
vn 0 -1 0
vn 0 -1 0
vn 0 -1 0
vn 0 -1 0
vn 0 -1 0
vn 1 0 0
vn 1 0 0
vn 1 0 0
vn 1 0 0
vn 0 0 1
vn 0 0 1
vn 0 0 1
vn 0 0 1
vn 0.9785239 0 0.2061337
vn 0.9785239 0 0.2061337
vn 0.9785239 0 0.2061337
vn 0.9785239 0 0.2061337
vn 0.9782507 0.02359916 0.206079
vn 0.9782507 0.02359916 0.206079
vn 0.9782503 -0.02359737 0.2060813
vn 0.9782503 -0.02359737 0.2060813
vn 4.219054E-05 1 0
vn 4.219054E-05 1 0
vn 4.219054E-05 1 0
vn 4.219054E-05 1 0
vn -0.9785235 0 0.2061352
vn -0.9785235 0 0.2061352
vn -0.9785235 0 0.2061352
vn -0.9785235 0 0.2061352
vn -0.9782503 0.02359825 0.2060814
vn -0.9782503 0.02359825 0.2060814
vn -0.9782503 -0.02359892 0.2060814
vn -0.9782503 -0.02359892 0.2060814
vn 0 -1 0
vn 0 -1 0
vn 0 -1 0
vn 0 -1 0
vn 1.1498E-05 0.6577761 -0.7532135
vn 1.1498E-05 0.6577761 -0.7532136
vn 1.1498E-05 0.6577761 -0.7532136
vn 1.1498E-05 0.6577761 -0.7532136
vn -1.361783E-05 -0.4527861 0.8916191
vn -1.361783E-05 -0.4527861 0.8916191
vn -1.361783E-05 -0.4527861 0.8916191
vn -1.361783E-05 -0.4527861 0.8916191
vn 0 -0.6577734 -0.7532158
vn 0 -0.6577734 -0.7532158
vn 0 -0.6577734 -0.7532158
vn 0 -0.6577734 -0.7532158
vn 0 0.4527836 0.8916204
vn 0 0.4527836 0.8916204
vn 0 0.4527836 0.8916204
vn 0 0.4527837 0.8916204
vn 0.5201403 0.000562595 -0.8540806
vn 0.5201403 0.000562595 -0.8540806
vn 0.5201403 0.000562595 -0.8540806
vn 0.5201403 0.000562595 -0.8540806
vn -0.5201402 0.0005654775 -0.8540807
vn -0.5201403 0.0005654774 -0.8540806
vn -0.5201402 0.0005654774 -0.8540807
vn -0.5201402 0.0005654774 -0.8540807
vn -0.5201403 -0.0005649016 -0.8540806
vn -0.5201403 -0.0005649015 -0.8540806
vn -0.5201403 -0.0005649016 -0.8540806
vn -0.5201403 -0.0005649016 -0.8540806
vn 0.5201403 -0.0005698083 -0.8540806
vn 0.5201403 -0.0005698083 -0.8540806
vn 0.5201403 -0.0005698083 -0.8540806
vn 0.5201402 -0.0005698084 -0.8540807
vn -0.5201234 0 0.8540911
vn -0.5201234 0 0.8540911
vn -0.5201234 0 0.8540911
vn -0.5201234 0 0.8540911
vn -1 0 0
vn -1 0 0
vn -1 0 0
vn -1 0 0
vn 0.5201232 0 0.8540912
vn 0.5201232 0 0.8540912
vn 0.5201232 0 0.8540912
vn 0.5201232 0 0.8540912
vn 0 1 0
vn 0 1 0
vn 0 1 0
vn 0 1 0
vn 0 1 0
vn 0 1 0
vn 0 1 0
vn 0 -1 0
vn 0 -1 0
vn 0 -1 0
vn 0 -1 0
vn 0 -1 0
vn 0 -1 0
vn 0 -1 0
vn 1 0 0
vn 1 0 0
vn 1 0 0
vn 1 0 0
vn 0 0 1
vn 0 0 1
vn 0 0 1
vn 0 0 1
vn 0.9785241 0 0.2061323
vn 0.9785241 0 0.2061323
vn 0.9785241 0 0.2061323
vn 0.9785241 0 0.2061323
vn 0.9782507 0.02359975 0.2060793
vn 0.9782507 0.02359975 0.2060793
vn 0.9782507 -0.02360151 0.2060791
vn 0.9782507 -0.02360151 0.2060791
vn 2.109527E-05 1 1.957943E-05
vn 2.109527E-05 1 1.957943E-05
vn 2.109527E-05 1 1.957943E-05
vn 2.109527E-05 1 1.957943E-05
vn -0.9785231 0 0.2061375
vn -0.9785231 0 0.2061375
vn -0.9785231 0 0.2061375
vn -0.9785231 0 0.2061375
vn -0.97825 0.02359676 0.2060831
vn -0.97825 0.02359676 0.206083
vn -0.97825 -0.02359507 0.2060831
vn -0.97825 -0.02359508 0.2060831
vn -1.054763E-05 -1 0
vn -1.054763E-05 -1 0
vn -1.054763E-05 -1 0
vn -1.054763E-05 -1 0
vn 0 0.6577733 -0.7532159
vn 0 0.6577733 -0.7532159
vn 0 0.6577733 -0.753216
vn 0 0.6577734 -0.7532159
vn 0 -0.4527849 0.8916198
vn 0 -0.4527849 0.8916198
vn 0 -0.4527849 0.8916198
vn 0 -0.4527849 0.8916198
vn 0 -0.6577733 -0.7532159
vn 0 -0.6577734 -0.7532159
vn 0 -0.6577733 -0.753216
vn 0 -0.6577733 -0.753216
vn 0 0.4527837 0.8916204
vn 0 0.4527837 0.8916204
vn 0 0.4527836 0.8916204
vn 0 0.4527837 0.8916204
vn 0.5201402 0.0001322388 -0.8540809
vn 0.5201402 0.0001322388 -0.8540809
vn 0.5201402 0.0001322388 -0.8540809
vn 0.5201402 0.0001322388 -0.8540809
vn -0.5201403 0.0001338232 -0.8540809
vn -0.5201403 0.0001338231 -0.8540808
vn -0.5201403 0.0001338232 -0.8540809
vn -0.5201403 0.0001338232 -0.8540809
vn -0.5201401 -0.0001225672 -0.8540809
vn -0.5201401 -0.0001225671 -0.8540809
vn -0.5201401 -0.0001225672 -0.8540809
vn -0.5201401 -0.0001225672 -0.8540809
vn 0.5201402 -0.0001230868 -0.8540809
vn 0.5201402 -0.0001230869 -0.8540809
vn 0.5201402 -0.0001230868 -0.8540809
vn 0.5201402 -0.0001230868 -0.8540809
vn -0.5201231 0 0.8540913
vn -0.5201231 0 0.8540913
vn -0.5201231 0 0.8540913
vn -0.5201231 0 0.8540913
vn -1 0 0
vn -1 0 0
vn -1 0 0
vn -1 0 0
g Object064_0
f 3/3/3 2/2/2 1/1/1
f 4/4/4 3/3/3 1/1/1
f 7/7/7 6/6/6 5/5/5
f 8/8/8 7/7/7 5/5/5
f 9/9/9 7/7/7 8/8/8
f 10/10/10 9/9/9 8/8/8
f 11/11/11 10/10/10 8/8/8
f 14/14/14 13/13/13 12/12/12
f 15/15/15 14/14/14 12/12/12
f 16/16/16 14/14/14 15/15/15
f 17/17/17 16/16/16 15/15/15
f 18/18/18 17/17/17 15/15/15
f 21/21/21 20/20/20 19/19/19
f 22/22/22 21/21/21 19/19/19
f 25/25/25 24/24/24 23/23/23
f 26/26/26 25/25/25 23/23/23
f 29/29/29 28/28/28 27/27/27
f 30/30/30 29/29/29 27/27/27
f 30/30/30 31/31/31 29/29/29
f 31/31/31 32/32/32 29/29/29
f 28/28/28 33/33/33 27/27/27
f 33/33/33 34/34/34 27/27/27
f 37/37/37 36/36/36 35/35/35
f 38/38/38 37/37/37 35/35/35
f 41/41/41 40/40/40 39/39/39
f 42/42/42 41/41/41 39/39/39
f 40/40/40 43/43/43 39/39/39
f 43/43/43 44/44/44 39/39/39
f 42/42/42 45/45/45 41/41/41
f 45/45/45 46/46/46 41/41/41
f 49/49/49 48/48/48 47/47/47
f 50/50/50 49/49/49 47/47/47
f 53/53/53 52/52/52 51/51/51
f 54/54/54 53/53/53 51/51/51
f 57/57/57 56/56/56 55/55/55
f 58/58/58 57/57/57 55/55/55
f 61/61/61 60/60/60 59/59/59
f 62/62/62 61/61/61 59/59/59
f 65/65/65 64/64/64 63/63/63
f 66/66/66 65/65/65 63/63/63
f 69/69/69 68/68/68 67/67/67
f 70/70/70 69/69/69 67/67/67
f 73/73/73 72/72/72 71/71/71
f 74/74/74 73/73/73 71/71/71
f 77/77/77 76/76/76 75/75/75
f 78/78/78 77/77/77 75/75/75
f 81/81/81 80/80/80 79/79/79
f 82/82/82 81/81/81 79/79/79
f 85/85/85 84/84/84 83/83/83
f 86/86/86 85/85/85 83/83/83
f 89/89/89 88/88/88 87/87/87
f 90/90/90 89/89/89 87/87/87
f 93/93/93 92/92/92 91/91/91
f 94/94/94 93/93/93 91/91/91
f 97/97/97 96/96/96 95/95/95
f 98/98/98 97/97/97 95/95/95
f 99/99/99 97/97/97 98/98/98
f 100/100/100 99/99/99 98/98/98
f 101/101/101 100/100/100 98/98/98
f 104/104/104 103/103/103 102/102/102
f 105/105/105 104/104/104 102/102/102
f 106/106/106 104/104/104 105/105/105
f 107/107/107 106/106/106 105/105/105
f 108/108/108 107/107/107 105/105/105
f 111/111/111 110/110/110 109/109/109
f 112/112/112 111/111/111 109/109/109
f 115/115/115 114/114/114 113/113/113
f 116/116/116 115/115/115 113/113/113
f 119/119/119 118/118/118 117/117/117
f 120/120/120 119/119/119 117/117/117
f 120/120/120 121/121/121 119/119/119
f 121/121/121 122/122/122 119/119/119
f 118/118/118 123/123/123 117/117/117
f 123/123/123 124/124/124 117/117/117
f 127/127/127 126/126/126 125/125/125
f 128/128/128 127/127/127 125/125/125
f 131/131/131 130/130/130 129/129/129
f 132/132/132 131/131/131 129/129/129
f 130/130/130 133/133/133 129/129/129
f 133/133/133 134/134/134 129/129/129
f 132/132/132 135/135/135 131/131/131
f 135/135/135 136/136/136 131/131/131
f 139/139/139 138/138/138 137/137/137
f 140/140/140 139/139/139 137/137/137
f 143/143/143 142/142/142 141/141/141
f 144/144/144 143/143/143 141/141/141
f 147/147/147 146/146/146 145/145/145
f 148/148/148 147/147/147 145/145/145
f 151/151/151 150/150/150 149/149/149
f 152/152/152 151/151/151 149/149/149
f 155/155/155 154/154/154 153/153/153
f 156/156/156 155/155/155 153/153/153
f 159/159/159 158/158/158 157/157/157
f 160/160/160 159/159/159 157/157/157
f 163/163/163 162/162/162 161/161/161
f 164/164/164 163/163/163 161/161/161
f 167/167/167 166/166/166 165/165/165
f 168/168/168 167/167/167 165/165/165
f 171/171/171 170/170/170 169/169/169
f 172/172/172 171/171/171 169/169/169
f 175/175/175 174/174/174 173/173/173
f 176/176/176 175/175/175 173/173/173
f 179/179/179 178/178/178 177/177/177
f 180/180/180 179/179/179 177/177/177
f 183/183/183 182/182/182 181/181/181
f 184/184/184 183/183/183 181/181/181
f 187/187/187 186/186/186 185/185/185
f 188/188/188 187/187/187 185/185/185
f 189/189/189 187/187/187 188/188/188
f 190/190/190 189/189/189 188/188/188
f 191/191/191 190/190/190 188/188/188
f 194/194/194 193/193/193 192/192/192
f 195/195/195 194/194/194 192/192/192
f 196/196/196 194/194/194 195/195/195
f 197/197/197 196/196/196 195/195/195
f 198/198/198 197/197/197 195/195/195
f 201/201/201 200/200/200 199/199/199
f 202/202/202 201/201/201 199/199/199
f 205/205/205 204/204/204 203/203/203
f 206/206/206 205/205/205 203/203/203
f 209/209/209 208/208/208 207/207/207
f 210/210/210 209/209/209 207/207/207
f 210/210/210 211/211/211 209/209/209
f 211/211/211 212/212/212 209/209/209
f 208/208/208 213/213/213 207/207/207
f 213/213/213 214/214/214 207/207/207
f 217/217/217 216/216/216 215/215/215
f 218/218/218 217/217/217 215/215/215
f 221/221/221 220/220/220 219/219/219
f 222/222/222 221/221/221 219/219/219
f 220/220/220 223/223/223 219/219/219
f 223/223/223 224/224/224 219/219/219
f 222/222/222 225/225/225 221/221/221
f 225/225/225 226/226/226 221/221/221
f 229/229/229 228/228/228 227/227/227
f 230/230/230 229/229/229 227/227/227
f 233/233/233 232/232/232 231/231/231
f 234/234/234 233/233/233 231/231/231
f 237/237/237 236/236/236 235/235/235
f 238/238/238 237/237/237 235/235/235
f 241/241/241 240/240/240 239/239/239
f 242/242/242 241/241/241 239/239/239
f 245/245/245 244/244/244 243/243/243
f 246/246/246 245/245/245 243/243/243
f 249/249/249 248/248/248 247/247/247
f 250/250/250 249/249/249 247/247/247
f 253/253/253 252/252/252 251/251/251
f 254/254/254 253/253/253 251/251/251
f 257/257/257 256/256/256 255/255/255
f 258/258/258 257/257/257 255/255/255
f 261/261/261 260/260/260 259/259/259
f 262/262/262 261/261/261 259/259/259
f 265/265/265 264/264/264 263/263/263
f 266/266/266 265/265/265 263/263/263
f 269/269/269 268/268/268 267/267/267
f 270/270/270 269/269/269 267/267/267
