g Object057
v -25.42513 11.49422 -8.982188
v -38.1023 16.06564 -5.342668
v -25.42513 11.49422 -5.342668
v -38.1023 16.06564 -8.982187
v -21.98833 7.865524 -8.982187
v -25.42513 11.49422 -5.342668
v -20.86191 7.675725 -6.82508
v -25.42513 11.49422 -5.342668
v -21.98833 7.865524 -8.982187
v -25.42513 11.49422 -8.982188
v -21.84451 5.253937 -8.982187
v -20.86191 7.675725 -6.82508
v -22.28719 5.027824 -6.690583
v -20.86191 7.675725 -6.82508
v -21.84451 5.253937 -8.982187
v -21.98833 7.865524 -8.982187
v -21.36449 3.707214 -8.982187
v -22.28719 5.027824 -6.690583
v -21.36449 3.707214 -5.342668
v -22.28719 5.027824 -6.690583
v -21.36449 3.707214 -8.982187
v -21.84451 5.253937 -8.982187
v -18.64935 -1.306335 -8.982187
v -21.36449 3.707214 -5.342668
v -17.89545 -2.072991 -6.66271
v -21.36449 3.707214 -5.342668
v -18.64935 -1.306335 -8.982187
v -21.36449 3.707214 -8.982187
v -21.09142 -1.904109 -9.003666
v -21.96062 -3.900845 -6.908274
v -22.3722 -3.459229 -8.960711
v -21.96062 -3.900845 -6.908274
v -21.09142 -1.904109 -9.003666
v -20.44554 -2.529032 -6.641234
v -22.27217 -7.759949 -8.982187
v -21.07622 -6.715319 -6.886795
v -22.03886 -8.135391 -6.873426
v -21.30952 -6.339876 -8.982187
v -17.15811 -12.13347 -8.982187
v -22.03886 -8.135391 -6.873426
v -17.54491 -12.24263 -6.133924
v -22.03886 -8.135391 -6.873426
v -17.15811 -12.13347 -8.982187
v -22.27217 -7.759949 -8.982187
v -20.75368 -17.22795 -8.982187
v -17.54491 -12.24263 -6.133924
v -20.75368 -17.22795 -5.342668
v -17.54491 -12.24263 -6.133924
v -20.75368 -17.22795 -8.982187
v -17.15811 -12.13347 -8.982187
v 38.1023 -75.6245 -8.982187
v -15.95228 -21.98631 -5.342621
v 38.1023 -75.6245 -5.097668
v -16.00269 -21.93608 -8.982187
v -20.75368 -17.22795 -5.342668
v -20.75368 -17.22795 -8.982187
v -16.07027 -21.52446 -5.097668
v 38.1023 -75.6245 -5.097668
v -15.95228 -21.98631 -5.342621
v -20.75368 -17.22795 -5.342668
v -20.43398 -17.19986 -5.097668
v -31.66011 16.06564 -5.248621
v -25.30777 11.71234 -5.097668
v -38.1023 16.06564 -5.342668
v -25.42513 11.49422 -5.342668
v -38.1023 16.06564 -5.342668
v -25.30777 11.71234 -5.097668
v -20.86191 7.675725 -6.82508
v -25.30777 11.71234 -5.097668
v -20.02594 7.770404 -5.097668
v -25.30777 11.71234 -5.097668
v -20.86191 7.675725 -6.82508
v -25.42513 11.49422 -5.342668
v -21.57776 5.220978 -5.097668
v -20.86191 7.675725 -6.82508
v -20.02594 7.770404 -5.097668
v -20.86191 7.675725 -6.82508
v -21.57776 5.220978 -5.097668
v -22.28719 5.027824 -6.690583
v -21.36449 3.707214 -5.342668
v -21.57776 5.220978 -5.097668
v -21.14652 3.83145 -5.097668
v -21.57776 5.220978 -5.097668
v -21.36449 3.707214 -5.342668
v -22.28719 5.027824 -6.690583
v -16.48269 -1.326197 -5.097668
v -21.36449 3.707214 -5.342668
v -21.14652 3.83145 -5.097668
v -17.89545 -2.072991 -6.66271
v -21.3206 -5.583958 -5.097668
v -17.89545 -2.072991 -6.66271
v -16.48269 -1.326197 -5.097668
v -17.89545 -2.072991 -6.66271
v -21.3206 -5.583958 -5.097668
v -21.07622 -6.715319 -6.886795
v -22.03886 -8.135391 -6.873426
v -22.03886 -8.135391 -6.873426
v -21.3206 -5.583958 -5.097668
v -21.46562 -7.662549 -5.097668
v -17.54491 -12.24263 -6.133924
v -21.46562 -7.662549 -5.097668
v -16.83641 -12.10254 -5.097668
v -21.46562 -7.662549 -5.097668
v -17.54491 -12.24263 -6.133924
v -22.03886 -8.135391 -6.873426
v -20.43398 -17.19986 -5.097668
v -17.54491 -12.24263 -6.133924
v -16.83641 -12.10254 -5.097668
v -17.54491 -12.24263 -6.133924
v -20.43398 -17.19986 -5.097668
v -20.75368 -17.22795 -5.342668
v -18.64935 -1.306335 -8.982187
v -20.44554 -2.529032 -6.641234
v -21.09142 -1.904109 -9.003666
v -20.44554 -2.529032 -6.641234
v -18.64935 -1.306335 -8.982187
v -17.89545 -2.072991 -6.66271
v -21.30952 -6.339876 -8.982187
v -21.96062 -3.900845 -6.908274
v -21.07622 -6.715319 -6.886795
v -21.96062 -3.900845 -6.908274
v -21.30952 -6.339876 -8.982187
v -22.3722 -3.459229 -8.960711
v -21.07622 -6.715319 -6.886795
v -20.44554 -2.529032 -6.641234
v -17.89545 -2.072991 -6.66271
v -20.44554 -2.529032 -6.641234
v -21.07622 -6.715319 -6.886795
v -21.96062 -3.900845 -6.908274
v -11.85703 -0.3130398 -5.097668
v -13.14949 -11.12027 -5.097668
v -14.71922 -4.144658 -5.097668
v 38.1023 -75.6245 -5.097668
v -14.52915 -19.85895 -5.097668
v -14.80699 9.281324 -5.097668
v 38.1023 75.6245 -5.097668
v -21.31977 16.06565 -5.097668
v -14.71922 -4.144658 -5.097668
v -16.83641 -12.10254 -5.097668
v -21.46562 -7.662549 -5.097668
v -16.48269 -1.326197 -5.097668
v -11.85703 -0.3130398 -5.097668
v -14.80699 9.281324 -5.097668
v -21.57776 5.220978 -5.097668
v -21.14652 3.83145 -5.097668
v -21.3206 -5.583958 -5.097668
v -31.66011 16.06564 -5.248621
v -21.31977 16.06565 -5.097668
v -16.83641 -12.10254 -5.097668
v -14.71922 -4.144658 -5.097668
v -13.14949 -11.12027 -5.097668
v -20.43398 -17.19986 -5.097668
v -16.07027 -21.52446 -5.097668
v -14.52915 -19.85895 -5.097668
v 38.1023 -75.6245 -5.097668
v -20.43398 -17.19986 -5.097668
v -14.52915 -19.85895 -5.097668
v -16.07027 -21.52446 -5.097668
v -20.43398 -17.19986 -5.097668
v -13.14949 -11.12027 -5.097668
v -14.52915 -19.85895 -5.097668
v -14.80699 9.281324 -5.097668
v -21.57776 5.220978 -5.097668
v -20.02594 7.770404 -5.097668
v -25.30777 11.71234 -5.097668
v -14.80699 9.281324 -5.097668
v -25.30777 11.71234 -5.097668
v -31.66011 16.06564 -5.248621
v -22.77432 -70.07658 -8.982187
v -20.46615 -71.89084 -6.611718
v -22.6997 -69.22665 -6.611718
v -20.46615 -71.89084 -6.611718
v -22.77432 -70.07658 -8.982187
v -20.81319 -72.18855 -8.982187
v -18.70922 -63.32057 -8.982187
v -22.6997 -69.22665 -6.611718
v -18.70922 -63.32057 -5.342668
v -22.6997 -69.22665 -6.611718
v -18.70922 -63.32057 -8.982187
v -22.77432 -70.07658 -8.982187
v -18.70922 -63.32057 -8.982187
v -21.30981 -60.41978 -7.202127
v -21.30981 -60.41978 -8.982187
v -18.70922 -63.32057 -5.342668
v -19.08614 -57.59267 -8.982187
v -21.30981 -60.41978 -7.202127
v -19.08689 -57.59282 -6.176853
v -21.30981 -60.41978 -8.982187
v -19.1846 -54.14347 -8.982187
v -18.12104 -55.62833 -6.794625
v -18.76925 -54.72501 -6.580326
v -17.7057 -56.20985 -8.982187
v -19.04843 -51.71635 -8.982187
v -21.08367 -54.80043 -5.517595
v -19.04843 -51.71635 -5.342668
v -21.08442 -54.80058 -8.982187
v -22.58709 -47.05206 -8.982187
v -19.04843 -51.71635 -5.342668
v -23.03583 -46.6258 -6.020906
v -19.04843 -51.71635 -8.982187
v -21.73182 -43.20451 -8.982187
v -23.03583 -46.6258 -6.020906
v -21.73182 -43.20451 -5.935826
v -23.03583 -46.6258 -6.020906
v -21.73182 -43.20451 -8.982187
v -22.58709 -47.05206 -8.982187
v -23.39133 -40.76384 -8.982187
v -21.73182 -43.20451 -5.935826
v -23.39133 -40.76384 -5.935826
v -21.73182 -43.20451 -8.982187
v -22.68169 -38.22813 -8.982187
v -23.39133 -40.76384 -5.935826
v -21.35943 -37.86257 -5.342668
v -23.39133 -40.76384 -5.935826
v -22.68169 -38.22813 -8.982187
v -23.39133 -40.76384 -8.982187
v -67.41083 12.38074 -8.982187
v -43.01126 -11.79641 -5.097672
v -67.41083 12.38074 -5.097671
v -42.54022 -12.26756 -8.982188
v -43.01126 -11.79641 -5.097672
v -24.18387 -32.33068 -8.982187
v -23.05546 -33.26817 -5.647712
v -24.18387 -32.33068 -8.982187
v -43.01126 -11.79641 -5.097672
v -42.54022 -12.26756 -8.982188
v -22.68169 -38.22813 -8.982187
v -22.28468 -36.68513 -5.606238
v -23.88812 -35.10163 -8.982187
v -22.28468 -36.68513 -5.606238
v -22.68169 -38.22813 -8.982187
v -21.35943 -37.86257 -5.342668
v -23.88812 -35.10163 -8.982187
v -23.05546 -33.26817 -5.647712
v -24.18387 -32.33068 -8.982187
v -23.05546 -33.26817 -5.647712
v -23.88812 -35.10163 -8.982187
v -22.28468 -36.68513 -5.606238
v -22.6997 -69.22665 -6.611718
v -21.31845 -71.74435 -5.097671
v -23.70321 -69.27121 -5.097671
v -21.31845 -71.74435 -5.097671
v -22.6997 -69.22665 -6.611718
v -20.46615 -71.89084 -6.611718
v -19.02906 -63.33084 -5.097671
v -22.6997 -69.22665 -6.611718
v -23.70321 -69.27121 -5.097671
v -22.6997 -69.22665 -6.611718
v -19.02906 -63.33084 -5.097671
v -18.70922 -63.32057 -5.342668
v -21.62962 -60.43008 -5.097671
v -18.70922 -63.32057 -5.342668
v -19.02906 -63.33084 -5.097671
v -18.70922 -63.32057 -5.342668
v -21.62962 -60.43008 -5.097671
v -21.30981 -60.41978 -7.202127
v -19.39239 -57.58573 -5.097671
v -21.30981 -60.41978 -7.202127
v -21.62962 -60.43008 -5.097671
v -21.30981 -60.41978 -7.202127
v -19.39239 -57.58573 -5.097671
v -19.08689 -57.59282 -6.176853
v -21.08367 -54.80043 -5.517595
v -19.39239 -57.58573 -5.097671
v -21.38169 -54.80619 -5.097671
v -19.39239 -57.58573 -5.097671
v -21.08367 -54.80043 -5.517595
v -19.08689 -57.59282 -6.176853
v -19.34606 -51.72251 -5.097671
v -21.08367 -54.80043 -5.517595
v -21.38169 -54.80619 -5.097671
v -21.08367 -54.80043 -5.517595
v -19.34606 -51.72251 -5.097671
v -19.04843 -51.71635 -5.342668
v -23.03583 -46.6258 -6.020906
v -19.34606 -51.72251 -5.097671
v -24.02662 -45.23238 -5.097671
v -19.34606 -51.72251 -5.097671
v -23.03583 -46.6258 -6.020906
v -19.04843 -51.71635 -5.342668
v -21.73182 -43.20451 -5.935826
v -24.02662 -45.23238 -5.097671
v -22.04629 -43.17774 -5.097671
v -24.02662 -45.23238 -5.097671
v -21.73182 -43.20451 -5.935826
v -23.03583 -46.6258 -6.020906
v -23.39133 -40.76384 -5.935826
v -22.04629 -43.17774 -5.097671
v -23.689 -40.76178 -5.097671
v -21.73182 -43.20451 -5.935826
v -23.05546 -33.26817 -5.647712
v -23.90291 -35.10397 -5.097671
v -23.35764 -33.31391 -5.097671
v -23.90291 -35.10397 -5.097671
v -23.05546 -33.26817 -5.647712
v -22.28468 -36.68513 -5.606238
v -43.01126 -11.79641 -5.097672
v -23.05546 -33.26817 -5.647712
v -23.35764 -33.31391 -5.097671
v -21.67289 -37.88306 -5.097671
v -23.39133 -40.76384 -5.935826
v -23.689 -40.76178 -5.097671
v -23.39133 -40.76384 -5.935826
v -21.67289 -37.88306 -5.097671
v -21.35943 -37.86257 -5.342668
v -22.28468 -36.68513 -5.606238
v -21.67289 -37.88306 -5.097671
v -23.90291 -35.10397 -5.097671
v -21.67289 -37.88306 -5.097671
v -22.28468 -36.68513 -5.606238
v -21.35943 -37.86257 -5.342668
v -19.08614 -57.59267 -8.982187
v -18.12104 -55.62833 -6.794625
v -17.7057 -56.20985 -8.982187
v -18.12104 -55.62833 -6.794625
v -19.08614 -57.59267 -8.982187
v -19.08689 -57.59282 -6.176853
v -19.08614 -57.59267 -8.982187
v -19.1846 -54.14347 -8.982187
v -21.08442 -54.80058 -8.982187
v -17.7057 -56.20985 -8.982187
v -21.08442 -54.80058 -8.982187
v -18.76925 -54.72501 -6.580326
v -21.08367 -54.80043 -5.517595
v -18.76925 -54.72501 -6.580326
v -21.08442 -54.80058 -8.982187
v -19.1846 -54.14347 -8.982187
v -19.08689 -57.59282 -6.176853
v -18.76925 -54.72501 -6.580326
v -18.12104 -55.62833 -6.794625
v -21.08367 -54.80043 -5.517595
v -26.06921 -63.8496 -5.097671
v -21.62962 -60.43008 -5.097671
v -19.02906 -63.33084 -5.097671
v -19.39239 -57.58573 -5.097671
v -25.49196 -56.90432 -5.097671
v -23.70321 -69.27121 -5.097671
v -28.49716 -70.88127 -5.097671
v -21.31845 -71.74435 -5.097671
v -28.36091 -74.4446 -5.097671
v -25.02609 -51.29911 -5.097671
v -21.38169 -54.80619 -5.097671
v -53.04833 -103.8092 -5.097671
v -24.02662 -45.23238 -5.097671
v -27.58976 -47.17142 -5.097671
v -19.34606 -51.72251 -5.097671
v -27.67669 -40.23888 -5.097671
v -22.04629 -43.17774 -5.097671
v -23.689 -40.76178 -5.097671
v -21.67289 -37.88306 -5.097671
v -27.70265 -38.16863 -5.097671
v -23.90291 -35.10397 -5.097671
v -23.35764 -33.31391 -5.097671
v -29.00579 -33.63058 -5.097671
v -32.49843 -28.79982 -5.097671
v -21.38169 -54.80619 -5.097671
v -23.35764 -33.31391 -5.097671
v -32.49843 -28.79982 -5.097671
v -43.01126 -11.79641 -5.097672
v -28.49716 -70.88127 -5.097671
v -25.49196 -56.90432 -5.097671
v -26.06921 -63.8496 -5.097671
v -27.58976 -47.17142 -5.097671
v -25.02609 -51.29911 -5.097671
v -29.00579 -33.63058 -5.097671
v -27.67669 -40.23888 -5.097671
v -27.70265 -38.16863 -5.097671
v -67.41083 12.38074 -5.097671
v -32.49843 -28.79982 -5.097671
v -43.01126 -11.79641 -5.097672
v -66.96856 -117.5926 -5.097671
v -67.41083 -117.2113 -5.097671
v -28.36091 -74.4446 -5.097671
v -53.04833 -103.8092 -5.097671
vt 0.05285645 0.9311523
vt 0.05285645 0.9311523
vt 0.05285645 0.9311523
vt 0.05285645 0.9311523
vt 0.05285645 0.9311523
vt 0.05285645 0.9311523
vt 0.05285645 0.9311523
vt 0.05285645 0.9311523
vt 0.05285645 0.9311523
vt 0.05285645 0.9311523
vt 0.05285645 0.9311523
vt 0.05285645 0.9311523
vt 0.05285645 0.9311523
vt 0.05285645 0.9311523
vt 0.05285645 0.9311523
vt 0.05285645 0.9311523
vt 0.05285645 0.9311523
vt 0.05285645 0.9311523
vt 0.05285645 0.9311523
vt 0.05285645 0.9311523
vt 0.05285645 0.9311523
vt 0.05285645 0.9311523
vt 0.05285645 0.9311523
vt 0.05285645 0.9311523
vt 0.05285645 0.9311523
vt 0.05285645 0.9311523
vt 0.05285645 0.9311523
vt 0.05285645 0.9311523
vt 0.05285645 0.9311523
vt 0.05285645 0.9311523
vt 0.05285645 0.9311523
vt 0.05285645 0.9311523
vt 0.05285645 0.9311523
vt 0.05285645 0.9311523
vt 0.05285645 0.9311523
vt 0.05285645 0.9311523
vt 0.05285645 0.9311523
vt 0.05285645 0.9311523
vt 0.05285645 0.9311523
vt 0.05285645 0.9311523
vt 0.05285645 0.9311523
vt 0.05285645 0.9311523
vt 0.05285645 0.9311523
vt 0.05285645 0.9311523
vt 0.05285645 0.9311523
vt 0.05285645 0.9311523
vt 0.05285645 0.9311523
vt 0.05285645 0.9311523
vt 0.05285645 0.9311523
vt 0.05285645 0.9311523
vt 0.05285645 0.9311523
vt 0.05285645 0.9311523
vt 0.05285645 0.9311523
vt 0.05285645 0.9311523
vt 0.05285645 0.9311523
vt 0.05285645 0.9311523
vt 0.05285645 0.9311523
vt 0.05285645 0.9311523
vt 0.05285645 0.9311523
vt 0.05285645 0.9311523
vt 0.05285645 0.9311523
vt 0.05285645 0.9311523
vt 0.05285645 0.9311523
vt 0.05285645 0.9311523
vt 0.05285645 0.9311523
vt 0.05285645 0.9311523
vt 0.05285645 0.9311523
vt 0.05285645 0.9311523
vt 0.05285645 0.9311523
vt 0.05285645 0.9311523
vt 0.05285645 0.9311523
vt 0.05285645 0.9311523
vt 0.05285645 0.9311523
vt 0.05285645 0.9311523
vt 0.05285645 0.9311523
vt 0.05285645 0.9311523
vt 0.05285645 0.9311523
vt 0.05285645 0.9311523
vt 0.05285645 0.9311523
vt 0.05285645 0.9311523
vt 0.05285645 0.9311523
vt 0.05285645 0.9311523
vt 0.05285645 0.9311523
vt 0.05285645 0.9311523
vt 0.05285645 0.9311523
vt 0.05285645 0.9311523
vt 0.05285645 0.9311523
vt 0.05285645 0.9311523
vt 0.05285645 0.9311523
vt 0.05285645 0.9311523
vt 0.05285645 0.9311523
vt 0.05285645 0.9311523
vt 0.05285645 0.9311523
vt 0.05285645 0.9311523
vt 0.05285645 0.9311523
vt 0.05285645 0.9311523
vt 0.05285645 0.9311523
vt 0.05285645 0.9311523
vt 0.05285645 0.9311523
vt 0.05285645 0.9311523
vt 0.05285645 0.9311523
vt 0.05285645 0.9311523
vt 0.05285645 0.9311523
vt 0.05285645 0.9311523
vt 0.05285645 0.9311523
vt 0.05285645 0.9311523
vt 0.05285645 0.9311523
vt 0.05285645 0.9311523
vt 0.05285645 0.9311523
vt 0.05285645 0.9311523
vt 0.05285645 0.9311523
vt 0.05285645 0.9311523
vt 0.05285645 0.9311523
vt 0.05285645 0.9311523
vt 0.05285645 0.9311523
vt 0.05285645 0.9311523
vt 0.05285645 0.9311523
vt 0.05285645 0.9311523
vt 0.05285645 0.9311523
vt 0.05285645 0.9311523
vt 0.05285645 0.9311523
vt 0.05285645 0.9311523
vt 0.05285645 0.9311523
vt 0.05285645 0.9311523
vt 0.05285645 0.9311523
vt 0.05285645 0.9311523
vt 0.05285645 0.9311523
vt 0.05285645 0.9311523
vt 0.05285645 0.9311523
vt 0.05285645 0.9311523
vt 0.05285645 0.9311523
vt 0.05285645 0.9311523
vt 0.05285645 0.9311523
vt 0.05285645 0.9311523
vt 0.05285645 0.9311523
vt 0.05285645 0.9311523
vt 0.05285645 0.9311523
vt 0.8076172 0.7866211
vt 0.3103027 0.6855469
vt 0.3103027 0.7338867
vt 0.3103027 0.8183594
vt 0.8076172 0.8295898
vt 0.8076172 0.9335938
vt 0.3103027 0.875
vt 0.3103027 0.8598633
vt 0.3103027 0.7568359
vt 0.3103027 0.9936523
vt 0.8076172 1.007813
vt 0.3103027 0.6855469
vt 0.8076172 0.7866211
vt 0.8076172 0.722168
vt 0.3381348 0.6181641
vt 0.7988281 0.6123047
vt 0.8076172 0.581543
vt 0.8076172 0.005088806
vt 0.3381348 0.6181641
vt 0.8076172 0.581543
vt 0.7988281 0.6123047
vt 0.3381348 0.6181641
vt 0.8076172 0.722168
vt 0.8076172 0.581543
vt 0.8076172 0.9335938
vt 0.3103027 0.875
vt 0.3103027 0.902832
vt 0.3103027 0.9458008
vt 0.8076172 0.9335938
vt 0.3103027 0.9458008
vt 0.3103027 0.9936523
vt 0.08111572 0.7998047
vt 0.08111572 0.7998047
vt 0.08111572 0.7998047
vt 0.08111572 0.7998047
vt 0.08111572 0.7998047
vt 0.08111572 0.7998047
vt 0.08111572 0.7998047
vt 0.08111572 0.7998047
vt 0.08111572 0.7998047
vt 0.08111572 0.7998047
vt 0.08111572 0.7998047
vt 0.08111572 0.7998047
vt 0.08111572 0.7998047
vt 0.08111572 0.7998047
vt 0.08111572 0.7998047
vt 0.08111572 0.7998047
vt 0.08111572 0.7998047
vt 0.08111572 0.7998047
vt 0.08111572 0.7998047
vt 0.08111572 0.7998047
vt 0.08111572 0.7998047
vt 0.08111572 0.7998047
vt 0.08111572 0.7998047
vt 0.08111572 0.7998047
vt 0.08111572 0.7998047
vt 0.08111572 0.7998047
vt 0.08111572 0.7998047
vt 0.08111572 0.7998047
vt 0.08111572 0.7998047
vt 0.08111572 0.7998047
vt 0.08111572 0.7998047
vt 0.08111572 0.7998047
vt 0.08111572 0.7998047
vt 0.08111572 0.7998047
vt 0.08111572 0.7998047
vt 0.08111572 0.7998047
vt 0.08111572 0.7998047
vt 0.08111572 0.7998047
vt 0.08111572 0.7998047
vt 0.08111572 0.7998047
vt 0.08111572 0.7998047
vt 0.08111572 0.7998047
vt 0.08111572 0.7998047
vt 0.08111572 0.7998047
vt 0.08111572 0.7998047
vt 0.08111572 0.7998047
vt 0.08111572 0.7998047
vt 0.08111572 0.7998047
vt 0.08111572 0.7998047
vt 0.08111572 0.7998047
vt 0.08111572 0.7998047
vt 0.08111572 0.7998047
vt 0.08111572 0.7998047
vt 0.08111572 0.7998047
vt 0.08111572 0.7998047
vt 0.08111572 0.7998047
vt 0.08111572 0.7998047
vt 0.08111572 0.7998047
vt 0.08111572 0.7998047
vt 0.08111572 0.7998047
vt 0.08111572 0.7998047
vt 0.08111572 0.7998047
vt 0.08111572 0.7998047
vt 0.08111572 0.7998047
vt 0.08111572 0.7998047
vt 0.08111572 0.7998047
vt 0.08111572 0.7998047
vt 0.08111572 0.7998047
vt 0.08111572 0.7998047
vt 0.08111572 0.7998047
vt 0.08111572 0.7998047
vt 0.08111572 0.7998047
vt 0.08111572 0.7998047
vt 0.08111572 0.7998047
vt 0.08111572 0.7998047
vt 0.08111572 0.7998047
vt 0.08111572 0.7998047
vt 0.08111572 0.7998047
vt 0.08111572 0.7998047
vt 0.08111572 0.7998047
vt 0.08111572 0.7998047
vt 0.08111572 0.7998047
vt 0.08111572 0.7998047
vt 0.08111572 0.7998047
vt 0.08111572 0.7998047
vt 0.08111572 0.7998047
vt 0.08111572 0.7998047
vt 0.08111572 0.7998047
vt 0.08111572 0.7998047
vt 0.08111572 0.7998047
vt 0.08111572 0.7998047
vt 0.08111572 0.7998047
vt 0.08111572 0.7998047
vt 0.08111572 0.7998047
vt 0.08111572 0.7998047
vt 0.08111572 0.7998047
vt 0.08111572 0.7998047
vt 0.08111572 0.7998047
vt 0.08111572 0.7998047
vt 0.08111572 0.7998047
vt 0.08111572 0.7998047
vt 0.08111572 0.7998047
vt 0.08111572 0.7998047
vt 0.08111572 0.7998047
vt 0.08111572 0.7998047
vt 0.08111572 0.7998047
vt 0.08111572 0.7998047
vt 0.08111572 0.7998047
vt 0.08111572 0.7998047
vt 0.08111572 0.7998047
vt 0.08111572 0.7998047
vt 0.08111572 0.7998047
vt 0.08111572 0.7998047
vt 0.08111572 0.7998047
vt 0.08111572 0.7998047
vt 0.08111572 0.7998047
vt 0.08111572 0.7998047
vt 0.08111572 0.7998047
vt 0.08111572 0.7998047
vt 0.08111572 0.7998047
vt 0.08111572 0.7998047
vt 0.08111572 0.7998047
vt 0.08111572 0.7998047
vt 0.08111572 0.7998047
vt 0.08111572 0.7998047
vt 0.08111572 0.7998047
vt 0.08111572 0.7998047
vt 0.08111572 0.7998047
vt 0.08111572 0.7998047
vt 0.08111572 0.7998047
vt 0.08111572 0.7998047
vt 0.08111572 0.7998047
vt 0.08111572 0.7998047
vt 0.08111572 0.7998047
vt 0.08111572 0.7998047
vt 0.08111572 0.7998047
vt 0.08111572 0.7998047
vt 0.08111572 0.7998047
vt 0.08111572 0.7998047
vt 0.08111572 0.7998047
vt 0.08111572 0.7998047
vt 0.08111572 0.7998047
vt 0.08111572 0.7998047
vt 0.08111572 0.7998047
vt 0.08111572 0.7998047
vt 0.08111572 0.7998047
vt 0.08111572 0.7998047
vt 0.08111572 0.7998047
vt 0.08111572 0.7998047
vt 0.08111572 0.7998047
vt 0.08111572 0.7998047
vt 0.08111572 0.7998047
vt 0.08111572 0.7998047
vt 0.08111572 0.7998047
vt 0.08111572 0.7998047
vt 0.08111572 0.7998047
vt 0.08111572 0.7998047
vt 0.08111572 0.7998047
vt 0.08111572 0.7998047
vt 0.08111572 0.7998047
vt 0.08111572 0.7998047
vt 0.08111572 0.7998047
vt 0.08111572 0.7998047
vt 0.2568359 0.2836914
vt 0.7050781 0.3474121
vt 0.7050781 0.2915039
vt 0.7050781 0.4020996
vt 0.2568359 0.4174805
vt 0.7050781 0.1772461
vt 0.2568359 0.1485596
vt 0.7050781 0.1296387
vt 0.2480469 0.06652832
vt 0.2568359 0.5253906
vt 0.7050781 0.4555664
vt 0.7050781 -0.003347397
vt 0.7050781 0.6396484
vt 0.2568359 0.6044922
vt 0.7050781 0.5146484
vt 0.2568359 0.7382813
vt 0.7050781 0.6791992
vt 0.7050781 0.7255859
vt 0.7050781 0.78125
vt 0.2568359 0.777832
vt 0.7050781 0.8344727
vt 0.7050781 0.8691406
vt 0.2568359 0.8652344
vt 0.2568359 0.9384766
vt 0.7050781 0.4555664
vt 0.7050781 0.8691406
vt 0.2568359 0.9384766
vt 0.7050781 0.996582
vt 0.08111572 0.7998047
vt 0.08111572 0.7998047
vt 0.08111572 0.7998047
vt 0.08111572 0.7998047
vt 0.08111572 0.7998047
vt 0.08111572 0.7998047
vt 0.08111572 0.7998047
vt 0.08111572 0.7998047
vt 0.08111572 0.7998047
vt 0.08111572 0.7998047
vt 0.08111572 0.7998047
vt 0.08111572 0.7998047
vt 0.08111572 0.7998047
vt 0.08111572 0.7998047
vt 0.08111572 0.7998047
vn -0.3391113 -0.9404297 0
vn -0.3391113 -0.9404297 0
vn -0.3391113 -0.9404297 0
vn -0.3391113 -0.9404297 0
vn -0.578125 -0.78125 0.2331543
vn -0.578125 -0.78125 0.2331543
vn -0.578125 -0.78125 0.2331543
vn -0.7255859 -0.6875 0
vn -0.7255859 -0.6875 0
vn -0.7255859 -0.6875 0
vn -0.8759766 0.465332 -0.1233521
vn -0.8759766 0.465332 -0.1233521
vn -0.8759766 0.465332 -0.1233521
vn -0.8867188 -0.04882813 0.4587402
vn -0.8867188 -0.04882813 0.4587402
vn -0.8867188 -0.04882813 0.4587402
vn -0.8193359 -0.5722656 0
vn -0.8193359 -0.5722656 0
vn -0.8193359 -0.5722656 0
vn -0.9335938 -0.2897949 -0.2089844
vn -0.9335938 -0.2897949 -0.2089844
vn -0.9335938 -0.2897949 -0.2089844
vn -0.8427734 -0.5283203 0.09924316
vn -0.8427734 -0.5283203 0.09924316
vn -0.8427734 -0.5283203 0.09924316
vn -0.8789063 -0.4760742 0
vn -0.8789063 -0.4760742 0
vn -0.8789063 -0.4760742 0
vn -0.7368164 0.6147461 0.2800293
vn -0.7368164 0.6147461 0.2800293
vn -0.7368164 0.6147461 0.2800293
vn -0.6606445 0.6606445 0.3554688
vn -0.6606445 0.6606445 0.3554688
vn -0.6606445 0.6606445 0.3554688
vn -0.8120117 0.5522461 0.1881104
vn -0.8120117 0.5522461 0.1881104
vn -0.8120117 0.5522461 0.1881104
vn -0.8125 0.5507813 0.189209
vn -0.6591797 -0.7421875 -0.117981
vn -0.6591797 -0.7421875 -0.117981
vn -0.6591797 -0.7421875 -0.117981
vn -0.6484375 -0.7583008 -0.06323242
vn -0.6484375 -0.7583008 -0.06323242
vn -0.6484375 -0.7583008 -0.06323242
vn -0.8408203 0.5410156 0
vn -0.8408203 0.5410156 0
vn -0.8408203 0.5410156 0
vn -0.8134766 0.5742188 -0.08850098
vn -0.8134766 0.5742188 -0.08850098
vn -0.8134766 0.5742188 -0.08850098
vn -0.7041016 -0.7094727 0
vn -0.7041016 -0.7094727 0
vn -0.7041016 -0.7094727 0
vn -0.7041016 -0.7094727 -4.053116E-05
vn -0.7036133 -0.7099609 0
vn -0.7036133 -0.7099609 0
vn -0.5009766 -0.5014648 0.7045898
vn -0.5009766 -0.5014648 0.7045898
vn -0.5009766 -0.5014648 0.7045898
vn -0.4975586 -0.5019531 0.7070313
vn -0.4975586 -0.5019531 0.7070313
vn -0.01459503 0.0133667 0.9995117
vn -0.01459503 0.0133667 0.9995117
vn -0.01459503 0.0133667 0.9995117
vn -0.2397461 -0.6650391 0.7070313
vn -0.2397461 -0.6650391 0.7070313
vn -0.2397461 -0.6650391 0.7070313
vn -0.5673828 -0.7602539 0.3161621
vn -0.5673828 -0.7602539 0.3161621
vn -0.5673828 -0.7602539 0.3161621
vn -0.3012695 -0.6357422 0.7104492
vn -0.3012695 -0.6357422 0.7104492
vn -0.3012695 -0.6357422 0.7104492
vn -0.796875 0.4851074 0.3591309
vn -0.796875 0.4851074 0.3591309
vn -0.796875 0.4851074 0.3591309
vn -0.8291016 0.4621582 0.3132324
vn -0.8291016 0.4621582 0.3132324
vn -0.8291016 0.4621582 0.3132324
vn -0.675293 -0.2094727 0.7070313
vn -0.675293 -0.2094727 0.7070313
vn -0.675293 -0.2094727 0.7070313
vn -0.887207 -0.192749 0.418457
vn -0.887207 -0.192749 0.418457
vn -0.887207 -0.192749 0.418457
vn -0.5244141 -0.4741211 0.7070313
vn -0.5244141 -0.4741211 0.7070313
vn -0.5244141 -0.4741211 0.7070313
vn -0.5268555 -0.4768066 0.703125
vn -0.6425781 0.7299805 0.2316895
vn -0.6425781 0.7299805 0.2316895
vn -0.6425781 0.7299805 0.2316895
vn -0.7338867 0.5239258 -0.4313965
vn -0.7338867 0.5239258 -0.4313965
vn -0.7338867 0.5239258 -0.4313965
vn -0.7519531 0.5053711 -0.4223633
vn -0.9541016 0.06658936 0.2902832
vn -0.9541016 0.06658936 0.2902832
vn -0.9541016 0.06658936 0.2902832
vn -0.6010742 -0.6264648 0.4956055
vn -0.6010742 -0.6264648 0.4956055
vn -0.6010742 -0.6264648 0.4956055
vn -0.65625 -0.6489258 0.3845215
vn -0.65625 -0.6489258 0.3845215
vn -0.65625 -0.6489258 0.3845215
vn -0.7363281 0.5195313 0.4331055
vn -0.7363281 0.5195313 0.4331055
vn -0.7363281 0.5195313 0.4331055
vn -0.5625 0.4699707 0.6796875
vn -0.5625 0.4699707 0.6796875
vn -0.5625 0.4699707 0.6796875
vn -0.2287598 0.9233398 0.3068848
vn -0.2287598 0.9233398 0.3068848
vn -0.2287598 0.9233398 0.3068848
vn -0.161499 0.9199219 0.3564453
vn -0.161499 0.9199219 0.3564453
vn -0.161499 0.9199219 0.3564453
vn -0.9526367 -0.2988281 0.05249023
vn -0.9526367 -0.2988281 0.05249023
vn -0.9526367 -0.2988281 0.05249023
vn -0.9316406 -0.3444824 0.1126709
vn -0.9316406 -0.3444824 0.1126709
vn -0.9316406 -0.3444824 0.1126709
vn 0.01939392 -0.06143188 0.9975586
vn 0.01939392 -0.06143188 0.9975586
vn 0.01939392 -0.06143188 0.9975586
vn -0.1409912 -0.03677368 0.9892578
vn -0.1409912 -0.03677368 0.9892578
vn -0.1409912 -0.03677368 0.9892578
vn 0 0 1
vn 0 0 1
vn 0 0 1
vn 0 0 1
vn 0 0 1
vn 0 0 1
vn 0 0 1
vn 0 0 1
vn 0 0 1
vn 0 0 1
vn 0 0 1
vn 0 0 1
vn 0 0 1
vn 0 0 1
vn 0 0 1
vn 0 0 1
vn 0 0 1
vn -0.01459503 -0.01400757 0.9995117
vn -0.01459503 -0.01400757 0.9995117
vn 0 0 1
vn 0 0 1
vn 0 0 1
vn 0 0 1
vn 0 0 1
vn 0 0 1
vn 0 0 1
vn 0 0 1
vn 0 0 1
vn 0 0 1
vn 0 0 1
vn 0 0 1
vn 0 0 1
vn 0 0 1
vn 0 0 1
vn 0 0 1
vn 0 0 1
vn 0.01210022 0.05227661 0.9985352
vn 0.01210022 0.05227661 0.9985352
vn 0.01210022 0.05227661 0.9985352
vn 0.7421875 0.6225586 -0.246582
vn 0.7421875 0.6225586 -0.246582
vn 0.7421875 0.6225586 -0.246582
vn 0.7192383 0.6679688 -0.189209
vn 0.7192383 0.6679688 -0.189209
vn 0.7192383 0.6679688 -0.189209
vn 0.828125 -0.5595703 0
vn 0.828125 -0.5595703 0
vn 0.828125 -0.5595703 0
vn 0.8461914 -0.5087891 0.1558838
vn 0.8461914 -0.5087891 0.1558838
vn 0.8461914 -0.5087891 0.1558838
vn 0.7441406 0.6674805 0
vn 0.7441406 0.6674805 0
vn 0.7441406 0.6674805 0
vn 0.7441406 0.6674805 0
vn 0.7856445 -0.6176758 0.0001760721
vn 0.7856445 -0.6176758 0.0001760721
vn 0.7856445 -0.6176758 0.0001760721
vn 0.7856445 -0.6181641 0
vn 0.8125 0.5825195 0.0006275177
vn 0.8125 0.5825195 0.0006275177
vn 0.8125 0.5825195 0.0006275177
vn 0.8129883 0.581543 -0.0003154278
vn 0.8344727 -0.5507813 0
vn 0.8344727 -0.5507813 0
vn 0.8344727 -0.5507813 0
vn 0.8344727 -0.5507813 -0.0001564026
vn 0.784668 0.6186523 0.02986145
vn 0.784668 0.6186523 0.02986145
vn 0.784668 0.6186523 0.02986145
vn 0.7963867 0.6040039 0
vn 0.934082 -0.355957 0
vn 0.934082 -0.355957 0
vn 0.934082 -0.355957 0
vn 0.9604492 -0.213501 0.1762695
vn 0.9604492 -0.213501 0.1762695
vn 0.9604492 -0.213501 0.1762695
vn 0.8266602 0.5620117 0
vn 0.8266602 0.5620117 0
vn 0.8266602 0.5620117 0
vn 0.8266602 0.5620117 0
vn 0.8168945 -0.5219727 -0.2442627
vn 0.8168945 -0.5219727 -0.2442627
vn 0.8168945 -0.5219727 -0.2442627
vn 0.9628906 -0.2692871 0
vn 0.9628906 -0.2692871 0
vn 0.9628906 -0.2692871 0
vn 0.7036133 0.7099609 0
vn 0.7036133 0.7099609 0
vn 0.7036133 0.7099609 0
vn 0.7036133 0.7099609 -0.0007891655
vn 0.7304688 0.6801758 -0.0559082
vn 0.7304688 0.6801758 -0.0559082
vn 0.7304688 0.6801758 -0.0559082
vn 0.7373047 0.6748047 0.007591248
vn 0.7373047 0.6748047 0.007591248
vn 0.7373047 0.6748047 0.007591248
vn 0.8994141 0.347168 -0.2644043
vn 0.8994141 0.347168 -0.2644043
vn 0.8994141 0.347168 -0.2644043
vn 0.7753906 0.5341797 -0.3354492
vn 0.7753906 0.5341797 -0.3354492
vn 0.7753906 0.5341797 -0.3354492
vn 0.9501953 0.1014404 -0.2929688
vn 0.9501953 0.1014404 -0.2929688
vn 0.9501953 0.1014404 -0.2929688
vn 0.9174805 0.2028809 -0.3405762
vn 0.9174805 0.2028809 -0.3405762
vn 0.9174805 0.2028809 -0.3405762
vn 0.644043 0.6210938 0.4453125
vn 0.644043 0.6210938 0.4453125
vn 0.644043 0.6210938 0.4453125
vn 0.71875 0.6025391 0.3461914
vn 0.71875 0.6025391 0.3461914
vn 0.71875 0.6025391 0.3461914
vn 0.7021484 -0.5522461 0.4489746
vn 0.7021484 -0.5522461 0.4489746
vn 0.7021484 -0.5522461 0.4489746
vn 0.5341797 -0.5063477 0.6762695
vn 0.5341797 -0.5063477 0.6762695
vn 0.5341797 -0.5063477 0.6762695
vn 0.5263672 0.4719238 0.7070313
vn 0.5263672 0.4719238 0.7070313
vn 0.5263672 0.4719238 0.7070313
vn 0.7036133 0.7016602 0.1103516
vn 0.7036133 0.7016602 0.1103516
vn 0.7036133 0.7016602 0.1103516
vn 0.7802734 -0.6137695 0.1156006
vn 0.7802734 -0.6137695 0.1156006
vn 0.7802734 -0.6137695 0.1156006
vn 0.7294922 -0.6499023 0.2108154
vn 0.7294922 -0.6499023 0.2108154
vn 0.7294922 -0.6499023 0.2108154
vn 0.7016602 0.5019531 0.5048828
vn 0.7016602 0.5019531 0.5048828
vn 0.7016602 0.5019531 0.5048828
vn 0.8164063 0.5297852 0.2276611
vn 0.8164063 0.5297852 0.2276611
vn 0.8164063 0.5297852 0.2276611
vn 0.7202148 -0.4753418 0.5043945
vn 0.7202148 -0.4753418 0.5043945
vn 0.7202148 -0.4753418 0.5043945
vn 0.5810547 -0.4228516 0.6953125
vn 0.5810547 -0.4228516 0.6953125
vn 0.5810547 -0.4228516 0.6953125
vn 0.8105469 0.5844727 -0.0124054
vn 0.8105469 0.5844727 -0.0124054
vn 0.8105469 0.5844727 -0.0124054
vn 0.5395508 0.5117188 0.668457
vn 0.5395508 0.5117188 0.668457
vn 0.5395508 0.5117188 0.668457
vn 0.690918 -0.6660156 0.2805176
vn 0.690918 -0.6660156 0.2805176
vn 0.690918 -0.6660156 0.2805176
vn 0.4929199 -0.2088623 0.8442383
vn 0.4929199 -0.2088623 0.8442383
vn 0.4929199 -0.2088623 0.8442383
vn 0.793457 0.5395508 0.2805176
vn 0.793457 0.5395508 0.2805176
vn 0.793457 0.5395508 0.2805176
vn 0.793457 0.5395508 0.2805176
vn 0.8549805 -0.2602539 0.447998
vn 0.8549805 -0.2602539 0.447998
vn 0.8549805 -0.2602539 0.447998
vn 0.3840332 0.09777832 0.9179688
vn 0.3840332 0.09777832 0.9179688
vn 0.3840332 0.09777832 0.9179688
vn 0.6699219 0.6118164 0.4191895
vn 0.6699219 0.6118164 0.4191895
vn 0.6699219 0.6118164 0.4191895
vn 0.7861328 -0.550293 0.2805176
vn 0.7861328 -0.550293 0.2805176
vn 0.7861328 -0.550293 0.2805176
vn 0.5473633 -0.5175781 0.6572266
vn 0.5473633 -0.5175781 0.6572266
vn 0.5473633 -0.5175781 0.6572266
vn 0.6870117 0.5512695 0.472168
vn 0.6870117 0.5512695 0.472168
vn 0.6870117 0.5512695 0.472168
vn 0.4953613 0.5410156 0.6791992
vn 0.4953613 0.5410156 0.6791992
vn 0.4953613 0.5410156 0.6791992
vn 0.6733398 -0.6723633 0.3066406
vn 0.6733398 -0.6723633 0.3066406
vn 0.6733398 -0.6723633 0.3066406
vn 0.8969727 -0.440918 0.0002151728
vn 0.8969727 -0.440918 0.0002151728
vn 0.8969727 -0.440918 0.0002151728
vn 0 0 -1
vn 0 0 -1
vn 0 0 -1
vn 0 0 -1
vn -0.03256226 0.9990234 -3.5882E-05
vn -0.03256226 0.9990234 -3.5882E-05
vn -0.03256226 0.9990234 -3.5882E-05
vn -0.314209 0.9086914 0.2741699
vn -0.314209 0.9086914 0.2741699
vn -0.314209 0.9086914 0.2741699
vn 0.4135742 0.08172607 0.9067383
vn 0.4135742 0.08172607 0.9067383
vn 0.4135742 0.08172607 0.9067383
vn 0.4135742 0.08172607 0.9067383
vn 0 0 1
vn 0 0 1
vn 0 0 1
vn 0 0 1
vn 0 0 1
vn 0 0 1
vn 0 0 1
vn 0 0 1
vn 0 0 1
vn 0 0 1
vn 0 0 1
vn 0 0 1
vn 0 0 1
vn 0 0 1
vn 0 0 1
vn 0 0 1
vn 0 0 1
vn 0 0 1
vn 0 0 1
vn 0 0 1
vn 0 0 1
vn 0 0 1
vn 0 0 1
vn 0 0 1
vn 0 0 1
vn 0 0 1
vn 0 0 1
vn 0 0 1
vn 0 0 1
vn 0 0 1
vn 0 0 1
vn 0 0 1
vn 0 0 1
vn 0 0 1
vn 0 0 1
vn 0 0 1
vn 0 0 1
vn 0 0 1
vn 0 0 1
vn 0 0 1
vn 0 0 1
vn 0 0 1
vn 0 0 1
g Object057_0
f 3/3/3 2/2/2 1/1/1
f 4/4/4 1/1/1 2/2/2
f 7/7/7 6/6/6 5/5/5
f 10/10/10 9/9/9 8/8/8
f 13/13/13 12/12/12 11/11/11
f 16/16/16 15/15/15 14/14/14
f 19/19/19 18/18/18 17/17/17
f 22/22/22 21/21/21 20/20/20
f 25/25/25 24/24/24 23/23/23
f 28/28/28 27/27/27 26/26/26
f 31/31/31 30/30/30 29/29/29
f 34/34/34 33/33/33 32/32/32
f 37/37/37 36/36/36 35/35/35
f 38/38/38 35/35/35 36/36/36
f 41/41/41 40/40/40 39/39/39
f 44/44/44 43/43/43 42/42/42
f 47/47/47 46/46/46 45/45/45
f 50/50/50 49/49/49 48/48/48
f 53/53/53 52/52/52 51/51/51
f 54/54/54 51/51/51 52/52/52
f 52/52/52 55/55/55 54/54/54
f 56/56/56 54/54/54 55/55/55
f 59/59/59 58/58/58 57/57/57
f 59/59/59 57/57/57 60/60/60
f 61/61/61 60/60/60 57/57/57
f 64/64/64 63/63/63 62/62/62
f 67/67/67 66/66/66 65/65/65
f 70/70/70 69/69/69 68/68/68
f 73/73/73 72/72/72 71/71/71
f 76/76/76 75/75/75 74/74/74
f 79/79/79 78/78/78 77/77/77
f 82/82/82 81/81/81 80/80/80
f 85/85/85 84/84/84 83/83/83
f 88/88/88 87/87/87 86/86/86
f 89/89/89 86/86/86 87/87/87
f 92/92/92 91/91/91 90/90/90
f 95/95/95 94/94/94 93/93/93
f 95/95/95 96/96/96 94/94/94
f 99/99/99 98/98/98 97/97/97
f 102/102/102 101/101/101 100/100/100
f 105/105/105 104/104/104 103/103/103
f 108/108/108 107/107/107 106/106/106
f 111/111/111 110/110/110 109/109/109
f 114/114/114 113/113/113 112/112/112
f 117/117/117 116/116/116 115/115/115
f 120/120/120 119/119/119 118/118/118
f 123/123/123 122/122/122 121/121/121
f 126/126/126 125/125/125 124/124/124
f 129/129/129 128/128/128 127/127/127
f 132/132/132 131/131/131 130/130/130
f 131/131/131 133/133/133 130/130/130
f 134/134/134 133/133/133 131/131/131
f 133/133/133 135/135/135 130/130/130
f 136/136/136 135/135/135 133/133/133
f 137/137/137 135/135/135 136/136/136
f 140/140/140 139/139/139 138/138/138
f 141/141/141 140/140/140 138/138/138
f 142/142/142 141/141/141 138/138/138
f 143/143/143 141/141/141 142/142/142
f 144/144/144 141/141/141 143/143/143
f 145/145/145 141/141/141 144/144/144
f 146/146/146 140/140/140 141/141/141
f 148/148/148 147/147/147 143/143/143
f 151/151/151 150/150/150 149/149/149
f 152/152/152 151/151/151 149/149/149
f 155/155/155 154/154/154 153/153/153
f 158/158/158 157/157/157 156/156/156
f 161/161/161 160/160/160 159/159/159
f 164/164/164 163/163/163 162/162/162
f 165/165/165 164/164/164 162/162/162
f 168/168/168 167/167/167 166/166/166
f 171/171/171 170/170/170 169/169/169
f 174/174/174 173/173/173 172/172/172
f 177/177/177 176/176/176 175/175/175
f 180/180/180 179/179/179 178/178/178
f 183/183/183 182/182/182 181/181/181
f 184/184/184 181/181/181 182/182/182
f 187/187/187 186/186/186 185/185/185
f 188/188/188 185/185/185 186/186/186
f 191/191/191 190/190/190 189/189/189
f 192/192/192 189/189/189 190/190/190
f 195/195/195 194/194/194 193/193/193
f 196/196/196 193/193/193 194/194/194
f 199/199/199 198/198/198 197/197/197
f 200/200/200 197/197/197 198/198/198
f 203/203/203 202/202/202 201/201/201
f 206/206/206 205/205/205 204/204/204
f 209/209/209 208/208/208 207/207/207
f 210/210/210 207/207/207 208/208/208
f 213/213/213 212/212/212 211/211/211
f 216/216/216 215/215/215 214/214/214
f 219/219/219 218/218/218 217/217/217
f 220/220/220 217/217/217 218/218/218
f 223/223/223 222/222/222 221/221/221
f 226/226/226 225/225/225 224/224/224
f 229/229/229 228/228/228 227/227/227
f 232/232/232 231/231/231 230/230/230
f 235/235/235 234/234/234 233/233/233
f 238/238/238 237/237/237 236/236/236
f 241/241/241 240/240/240 239/239/239
f 244/244/244 243/243/243 242/242/242
f 247/247/247 246/246/246 245/245/245
f 250/250/250 249/249/249 248/248/248
f 253/253/253 252/252/252 251/251/251
f 256/256/256 255/255/255 254/254/254
f 259/259/259 258/258/258 257/257/257
f 262/262/262 261/261/261 260/260/260
f 265/265/265 264/264/264 263/263/263
f 268/268/268 267/267/267 266/266/266
f 271/271/271 270/270/270 269/269/269
f 274/274/274 273/273/273 272/272/272
f 277/277/277 276/276/276 275/275/275
f 280/280/280 279/279/279 278/278/278
f 283/283/283 282/282/282 281/281/281
f 286/286/286 285/285/285 284/284/284
f 289/289/289 288/288/288 287/287/287
f 290/290/290 287/287/287 288/288/288
f 293/293/293 292/292/292 291/291/291
f 296/296/296 295/295/295 294/294/294
f 299/299/299 298/298/298 297/297/297
f 302/302/302 301/301/301 300/300/300
f 305/305/305 304/304/304 303/303/303
f 308/308/308 307/307/307 306/306/306
f 311/311/311 310/310/310 309/309/309
f 314/314/314 313/313/313 312/312/312
f 317/317/317 316/316/316 315/315/315
f 320/320/320 319/319/319 318/318/318
f 321/321/321 318/318/318 319/319/319
f 324/324/324 323/323/323 322/322/322
f 327/327/327 326/326/326 325/325/325
f 330/330/330 329/329/329 328/328/328
f 331/331/331 328/328/328 329/329/329
f 334/334/334 333/333/333 332/332/332
f 333/333/333 335/335/335 332/332/332
f 335/335/335 336/336/336 332/332/332
f 334/334/334 332/332/332 337/337/337
f 338/338/338 337/337/337 332/332/332
f 337/337/337 338/338/338 339/339/339
f 340/340/340 339/339/339 338/338/338
f 341/341/341 336/336/336 335/335/335
f 342/342/342 341/341/341 335/335/335
f 343/343/343 339/339/339 340/340/340
f 345/345/345 341/341/341 344/344/344
f 346/346/346 344/344/344 341/341/341
f 345/345/345 344/344/344 347/347/347
f 348/348/348 347/347/347 344/344/344
f 348/348/348 349/349/349 347/347/347
f 350/350/350 347/347/347 349/349/349
f 347/347/347 350/350/350 351/351/351
f 352/352/352 351/351/351 350/350/350
f 352/352/352 353/353/353 351/351/351
f 354/354/354 351/351/351 353/353/353
f 355/355/355 354/354/354 353/353/353
f 346/346/346 341/341/341 356/356/356
f 359/359/359 358/358/358 357/357/357
f 362/362/362 361/361/361 360/360/360
f 361/361/361 363/363/363 360/360/360
f 364/364/364 363/363/363 361/361/361
f 363/363/363 365/365/365 360/360/360
f 366/366/366 365/365/365 363/363/363
f 367/367/367 365/365/365 366/366/366
f 365/365/365 368/368/368 360/360/360
f 369/369/369 368/368/368 365/365/365
f 370/370/370 368/368/368 369/369/369
f 368/368/368 371/371/371 360/360/360
f 372/372/372 371/371/371 368/368/368
f 360/360/360 371/371/371 373/373/373
f 371/371/371 374/374/374 373/373/373
