g Object054
v 0.007568359 0.02644157 3.814697E-06
v -0.2937851 2.043552 3.814697E-06
v -1.114058 2.043552 -1.129002
v -1.020931 0.02644157 -1.415609
v -1.020931 0.02644157 -1.415609
v -1.114058 2.043552 -1.129002
v -2.441282 2.043552 -0.6977596
v -2.685083 0.02644157 -0.8748932
v -2.685083 0.02644157 -0.8748932
v -2.441282 2.043552 -0.6977596
v -2.441282 2.043552 0.6977673
v -2.685083 0.02644157 0.8749008
v -2.685083 0.02644157 0.8749008
v -2.441282 2.043552 0.6977673
v -1.114058 2.043552 1.129011
v -1.020931 0.02644157 1.415617
v -1.020931 0.02644157 1.415617
v -1.114058 2.043552 1.129011
v -0.2937851 2.043552 3.814697E-06
v 0.007568359 0.02644157 3.814697E-06
v 0.007568359 0.02644157 3.814697E-06
v -1.020931 0.02644157 -1.415609
v -2.685083 0.02644157 -0.8748932
v -2.685083 0.02644157 0.8749008
v -1.020931 0.02644157 1.415617
v -2.441282 2.043552 -0.6977596
v -1.114058 2.043552 -1.129002
v -0.2937851 2.043552 3.814697E-06
v -2.441282 2.043552 0.6977673
v -1.114058 2.043552 1.129011
v -0.6120567 0.3939601 -0.04114914
v 8.005627 2.075315 -0.04114723
v 7.998669 2.114784 -0.09630775
v -0.6381378 0.5418748 -0.247879
v -0.6381378 0.5418748 -0.247879
v 7.998669 2.114784 -0.09630775
v 7.987408 2.178645 -0.07523918
v -0.6803398 0.7812066 -0.1689129
v -0.6803398 0.7812066 -0.1689129
v 7.987408 2.178645 -0.07523918
v 7.987408 2.178644 -0.007055283
v -0.6803398 0.7812066 0.08661652
v -0.6803398 0.7812066 0.08661652
v 7.987408 2.178644 -0.007055283
v 7.998669 2.114783 0.0140152
v -0.6381378 0.5418748 0.1655788
v -0.6381378 0.5418748 0.1655788
v 7.998669 2.114783 0.0140152
v 8.005627 2.075315 -0.04114723
v -0.6120567 0.3939601 -0.04114914
v 7.998669 2.114784 -0.09630775
v 8.005627 2.075315 -0.04114723
v 7.998669 2.114783 0.0140152
v 7.987408 2.178644 -0.007055283
v 7.987408 2.178645 -0.07523918
v -1.480892 4.001003 3.814697E-06
v -0.3038025 3.434146 3.814697E-06
v -0.3038025 3.434146 0.2559471
v -1.480892 4.001003 0.2559471
v -1.480892 4.001003 0.2559471
v -0.3038025 3.434146 0.2559471
v -0.4078903 3.35114 0.2559471
v -1.480892 3.867872 0.2559471
v -0.1428795 2.190053 0.2559471
v -0.01308441 2.160428 0.2559471
v -0.8854218 1.258936 0.2559471
v -0.8276558 1.138988 0.2559471
v -2.657982 3.434145 0.2559471
v -2.553896 3.351139 0.2559471
v -2.9487 2.160428 0.2559471
v -2.818907 2.190053 0.2559471
v -2.134129 1.138988 0.2559471
v -2.076365 1.258935 0.2559471
v -1.480892 3.867872 0.2559471
v -0.4078903 3.35114 0.2559471
v -0.4078903 3.35114 3.814697E-06
v -1.480892 3.867872 3.814697E-06
v -1.480892 3.867872 3.814697E-06
v -0.4078903 3.35114 3.814697E-06
v -0.3038025 3.434146 3.814697E-06
v -1.480892 4.001003 3.814697E-06
v -0.01308441 2.160428 3.814697E-06
v -0.1428795 2.190053 3.814697E-06
v -0.8276558 1.138988 3.814697E-06
v -0.8854218 1.258936 3.814697E-06
v -2.553896 3.351139 3.814697E-06
v -2.657982 3.434145 3.814697E-06
v -2.818907 2.190053 3.814697E-06
v -2.9487 2.160428 3.814697E-06
v -2.076365 1.258935 3.814697E-06
v -2.134129 1.138988 3.814697E-06
v -0.3038025 3.434146 3.814697E-06
v -0.01308441 2.160428 3.814697E-06
v -0.01308441 2.160428 0.2559471
v -0.3038025 3.434146 0.2559471
v -0.4078903 3.35114 0.2559471
v -0.1428795 2.190053 0.2559471
v -0.1428795 2.190053 3.814697E-06
v -0.4078903 3.35114 3.814697E-06
v -0.01308441 2.160428 3.814697E-06
v -0.8276558 1.138988 3.814697E-06
v -0.8276558 1.138988 0.2559471
v -0.01308441 2.160428 0.2559471
v -0.1428795 2.190053 0.2559471
v -0.8854218 1.258936 0.2559471
v -0.8854218 1.258936 3.814697E-06
v -0.1428795 2.190053 3.814697E-06
v -2.134129 1.138988 3.814697E-06
v -2.9487 2.160428 3.814697E-06
v -2.9487 2.160428 0.2559471
v -2.134129 1.138988 0.2559471
v -2.076365 1.258935 0.2559471
v -2.818907 2.190053 0.2559471
v -2.818907 2.190053 3.814697E-06
v -2.076365 1.258935 3.814697E-06
v -2.9487 2.160428 3.814697E-06
v -2.657982 3.434145 3.814697E-06
v -2.657982 3.434145 0.2559471
v -2.9487 2.160428 0.2559471
v -2.818907 2.190053 0.2559471
v -2.553896 3.351139 0.2559471
v -2.553896 3.351139 3.814697E-06
v -2.818907 2.190053 3.814697E-06
v -2.657982 3.434145 3.814697E-06
v -1.480892 4.001003 3.814697E-06
v -1.480892 4.001003 0.2559471
v -2.657982 3.434145 0.2559471
v -2.553896 3.351139 0.2559471
v -1.480892 3.867872 0.2559471
v -1.480892 3.867872 3.814697E-06
v -2.553896 3.351139 3.814697E-06
vt 0.1589583 0.91734
vt 0.1589583 0.91734
vt 0.1589583 0.91734
vt 0.1589583 0.91734
vt 0.1589583 0.91734
vt 0.1589583 0.91734
vt 0.1589583 0.91734
vt 0.1589583 0.91734
vt 0.1589583 0.91734
vt 0.1589583 0.91734
vt 0.1589583 0.91734
vt 0.1589583 0.91734
vt 0.1589583 0.91734
vt 0.1589583 0.91734
vt 0.1589583 0.91734
vt 0.1589583 0.91734
vt 0.1589583 0.91734
vt 0.1589583 0.91734
vt 0.1589583 0.91734
vt 0.1589583 0.91734
vt 0.1589583 0.91734
vt 0.1589583 0.91734
vt 0.1589583 0.91734
vt 0.1589583 0.91734
vt 0.1589583 0.91734
vt 0.1589583 0.91734
vt 0.1589583 0.91734
vt 0.1589583 0.91734
vt 0.1589583 0.91734
vt 0.1589583 0.91734
vt 0.1589583 0.91734
vt 0.1589583 0.91734
vt 0.1589583 0.91734
vt 0.1589583 0.91734
vt 0.1589583 0.91734
vt 0.1589583 0.91734
vt 0.1589583 0.91734
vt 0.1589583 0.91734
vt 0.1589583 0.91734
vt 0.1589583 0.91734
vt 0.1589583 0.91734
vt 0.1589583 0.91734
vt 0.1589583 0.91734
vt 0.1589583 0.91734
vt 0.1589583 0.91734
vt 0.1589583 0.91734
vt 0.1589583 0.91734
vt 0.1589583 0.91734
vt 0.1589583 0.91734
vt 0.1589583 0.91734
vt 0.8781752 0.4124456
vt 0.8781752 0.4124456
vt 0.8781752 0.4124456
vt 0.8781752 0.4124456
vt 0.8781752 0.4124456
vt 0.1589583 0.91734
vt 0.1589583 0.91734
vt 0.1589583 0.91734
vt 0.1589583 0.91734
vt 0.1589583 0.91734
vt 0.1589583 0.91734
vt 0.1589583 0.91734
vt 0.1589583 0.91734
vt 0.1589583 0.91734
vt 0.1589583 0.91734
vt 0.1589583 0.91734
vt 0.1589583 0.91734
vt 0.1589583 0.91734
vt 0.1589583 0.91734
vt 0.1589583 0.91734
vt 0.1589583 0.91734
vt 0.1589583 0.91734
vt 0.1589583 0.91734
vt 0.1589583 0.91734
vt 0.1589583 0.91734
vt 0.1589583 0.91734
vt 0.1589583 0.91734
vt 0.1589583 0.91734
vt 0.1589583 0.91734
vt 0.1589583 0.91734
vt 0.1589583 0.91734
vt 0.1589583 0.91734
vt 0.1589583 0.91734
vt 0.1589583 0.91734
vt 0.1589583 0.91734
vt 0.1589583 0.91734
vt 0.1589583 0.91734
vt 0.1589583 0.91734
vt 0.1589583 0.91734
vt 0.1589583 0.91734
vt 0.1589583 0.91734
vt 0.1589583 0.91734
vt 0.1589583 0.91734
vt 0.1589583 0.91734
vt 0.1589583 0.91734
vt 0.1589583 0.91734
vt 0.1589583 0.91734
vt 0.1589583 0.91734
vt 0.1589583 0.91734
vt 0.1589583 0.91734
vt 0.1589583 0.91734
vt 0.1589583 0.91734
vt 0.1589583 0.91734
vt 0.1589583 0.91734
vt 0.1589583 0.91734
vt 0.1589583 0.91734
vt 0.1589583 0.91734
vt 0.1589583 0.91734
vt 0.1589583 0.91734
vt 0.1589583 0.91734
vt 0.1589583 0.91734
vt 0.1589583 0.91734
vt 0.1589583 0.91734
vt 0.1589583 0.91734
vt 0.1589583 0.91734
vt 0.1589583 0.91734
vt 0.1589583 0.91734
vt 0.1589583 0.91734
vt 0.1589583 0.91734
vt 0.1589583 0.91734
vt 0.1589583 0.91734
vt 0.1589583 0.91734
vt 0.1589583 0.91734
vt 0.1589583 0.91734
vt 0.1589583 0.91734
vt 0.1589583 0.91734
vt 0.1589583 0.91734
vt 0.1589583 0.91734
vt 0.1589583 0.91734
vt 0.1589583 0.91734
vt 0.1589583 0.91734
vn 0.8031718 0.1199938 -0.5835379
vn 0.8031718 0.1199938 -0.5835379
vn 0.8031718 0.1199938 -0.5835379
vn 0.8031718 0.1199938 -0.5835379
vn -0.3067845 0.119994 -0.9441847
vn -0.3067845 0.1199939 -0.9441847
vn -0.3067845 0.1199939 -0.9441847
vn -0.3067845 0.1199939 -0.9441847
vn -0.9927747 0.1199932 0
vn -0.9927747 0.1199932 0
vn -0.9927747 0.1199932 0
vn -0.9927747 0.1199932 0
vn -0.3067851 0.1199935 0.9441846
vn -0.3067851 0.1199935 0.9441846
vn -0.3067851 0.1199935 0.9441846
vn -0.3067851 0.1199935 0.9441846
vn 0.8031721 0.1199935 0.5835378
vn 0.8031721 0.1199935 0.5835377
vn 0.8031721 0.1199935 0.5835377
vn 0.8031721 0.1199935 0.5835378
vn 0 -1 0
vn 0 -1 0
vn 0 -1 0
vn 0 -1 0
vn 0 -1 0
vn 0 1 0
vn 0 1 0
vn 0 1 0
vn 0 1 0
vn 0 1 0
vn 0.1549316 -0.7940916 -0.5877199
vn 0.1549316 -0.7940916 -0.5877199
vn 0.1549316 -0.7940916 -0.5877199
vn 0.1549316 -0.7940917 -0.5877199
vn -0.03919294 0.3068438 -0.9509525
vn -0.03919294 0.3068438 -0.9509525
vn -0.03919294 0.3068438 -0.9509525
vn -0.03919294 0.3068438 -0.9509525
vn -0.1591674 0.9872516 0
vn -0.1591674 0.9872516 0
vn -0.1591674 0.9872516 0
vn -0.1591674 0.9872516 0
vn -0.03919252 0.3068385 0.9509543
vn -0.03919252 0.3068385 0.9509543
vn -0.03919252 0.3068385 0.9509543
vn -0.03919251 0.3068385 0.9509543
vn 0.1549313 -0.7940921 0.5877195
vn 0.1549313 -0.7940921 0.5877195
vn 0.1549313 -0.7940921 0.5877195
vn 0.1549313 -0.7940921 0.5877195
vn 0.9848083 0.1736451 0
vn 0.9848083 0.1736452 0
vn 0.9848083 0.1736452 0
vn 0.9848083 0.1736452 0
vn 0.9848083 0.1736452 0
vn 0.4338842 0.9009686 0
vn 0.4338842 0.9009686 0
vn 0.4338842 0.9009686 0
vn 0.4338842 0.9009686 0
vn 0 0 1
vn 0 0 1
vn 0 0 1
vn 0 0 1
vn 0 0 1
vn 0 0 1
vn 0 0 1
vn 0 0 1
vn 0 0 1
vn 0 0 1
vn 0 0 1
vn 0 0 1
vn 0 0 1
vn 0 0 1
vn -0.4338849 -0.9009683 0
vn -0.4338849 -0.9009683 0
vn -0.4338849 -0.9009683 0
vn -0.4338849 -0.9009683 0
vn 0 0 -1
vn 0 0 -1
vn 0 0 -1
vn 0 0 -1
vn 0 0 -1
vn 0 0 -1
vn 0 0 -1
vn 0 0 -1
vn 0 0 -1
vn 0 0 -1
vn 0 0 -1
vn 0 0 -1
vn 0 0 -1
vn 0 0 -1
vn 0.9749278 0.2225212 0
vn 0.9749278 0.2225212 0
vn 0.9749278 0.2225212 0
vn 0.9749278 0.2225212 0
vn -0.9749278 -0.2225212 0
vn -0.9749278 -0.2225212 0
vn -0.9749278 -0.2225212 0
vn -0.9749278 -0.2225212 0
vn 0.7818314 -0.6234899 0
vn 0.7818314 -0.6234899 0
vn 0.7818314 -0.6234899 0
vn 0.7818314 -0.6234899 0
vn -0.781831 0.6234904 0
vn -0.781831 0.6234904 0
vn -0.781831 0.6234904 0
vn -0.781831 0.6234904 0
vn -0.7818314 -0.6234899 0
vn -0.7818314 -0.6234899 0
vn -0.7818314 -0.6234899 0
vn -0.7818314 -0.6234899 0
vn 0.781831 0.6234905 0
vn 0.781831 0.6234905 0
vn 0.781831 0.6234905 0
vn 0.781831 0.6234905 0
vn -0.9749278 0.2225213 0
vn -0.9749278 0.2225213 0
vn -0.9749278 0.2225213 0
vn -0.9749278 0.2225213 0
vn 0.9749278 -0.2225212 0
vn 0.9749278 -0.2225212 0
vn 0.9749278 -0.2225212 0
vn 0.9749278 -0.2225212 0
vn -0.4338847 0.9009684 0
vn -0.4338847 0.9009684 0
vn -0.4338847 0.9009684 0
vn -0.4338847 0.9009684 0
vn 0.4338847 -0.9009684 0
vn 0.4338847 -0.9009684 0
vn 0.4338847 -0.9009684 0
vn 0.4338847 -0.9009684 0
g Object054_0
f 3/3/3 2/2/2 1/1/1
f 4/4/4 3/3/3 1/1/1
f 7/7/7 6/6/6 5/5/5
f 8/8/8 7/7/7 5/5/5
f 11/11/11 10/10/10 9/9/9
f 12/12/12 11/11/11 9/9/9
f 15/15/15 14/14/14 13/13/13
f 16/16/16 15/15/15 13/13/13
f 19/19/19 18/18/18 17/17/17
f 20/20/20 19/19/19 17/17/17
f 23/23/23 22/22/22 21/21/21
f 21/21/21 24/24/24 23/23/23
f 21/21/21 25/25/25 24/24/24
f 28/28/28 27/27/27 26/26/26
f 26/26/26 29/29/29 28/28/28
f 29/29/29 30/30/30 28/28/28
f 33/33/33 32/32/32 31/31/31
f 34/34/34 33/33/33 31/31/31
f 37/37/37 36/36/36 35/35/35
f 38/38/38 37/37/37 35/35/35
f 41/41/41 40/40/40 39/39/39
f 42/42/42 41/41/41 39/39/39
f 45/45/45 44/44/44 43/43/43
f 46/46/46 45/45/45 43/43/43
f 49/49/49 48/48/48 47/47/47
f 50/50/50 49/49/49 47/47/47
f 53/53/53 52/52/52 51/51/51
f 51/51/51 54/54/54 53/53/53
f 51/51/51 55/55/55 54/54/54
f 58/58/58 57/57/57 56/56/56
f 59/59/59 58/58/58 56/56/56
f 62/62/62 61/61/61 60/60/60
f 63/63/63 62/62/62 60/60/60
f 62/62/62 64/64/64 61/61/61
f 64/64/64 65/65/65 61/61/61
f 64/64/64 66/66/66 65/65/65
f 66/66/66 67/67/67 65/65/65
f 63/63/63 60/60/60 68/68/68
f 69/69/69 63/63/63 68/68/68
f 69/69/69 68/68/68 70/70/70
f 71/71/71 69/69/69 70/70/70
f 71/71/71 70/70/70 72/72/72
f 73/73/73 71/71/71 72/72/72
f 76/76/76 75/75/75 74/74/74
f 77/77/77 76/76/76 74/74/74
f 80/80/80 79/79/79 78/78/78
f 81/81/81 80/80/80 78/78/78
f 80/80/80 82/82/82 79/79/79
f 82/82/82 83/83/83 79/79/79
f 82/82/82 84/84/84 83/83/83
f 84/84/84 85/85/85 83/83/83
f 81/81/81 78/78/78 86/86/86
f 87/87/87 81/81/81 86/86/86
f 87/87/87 86/86/86 88/88/88
f 89/89/89 87/87/87 88/88/88
f 89/89/89 88/88/88 90/90/90
f 91/91/91 89/89/89 90/90/90
f 94/94/94 93/93/93 92/92/92
f 95/95/95 94/94/94 92/92/92
f 98/98/98 97/97/97 96/96/96
f 99/99/99 98/98/98 96/96/96
f 102/102/102 101/101/101 100/100/100
f 103/103/103 102/102/102 100/100/100
f 106/106/106 105/105/105 104/104/104
f 107/107/107 106/106/106 104/104/104
f 110/110/110 109/109/109 108/108/108
f 111/111/111 110/110/110 108/108/108
f 114/114/114 113/113/113 112/112/112
f 115/115/115 114/114/114 112/112/112
f 118/118/118 117/117/117 116/116/116
f 119/119/119 118/118/118 116/116/116
f 122/122/122 121/121/121 120/120/120
f 123/123/123 122/122/122 120/120/120
f 126/126/126 125/125/125 124/124/124
f 127/127/127 126/126/126 124/124/124
f 130/130/130 129/129/129 128/128/128
f 131/131/131 130/130/130 128/128/128
