g Object046
v 1.195557 -1.136086 -1.231847
v -1.29397 1.355469 -1.231847
v -1.516607 1.132828 -1.003091
v 0.9729195 -1.358719 -1.00309
v -1.431568 1.217865 -0.6329558
v 1.057959 -1.273674 -0.6329558
v 1.418192 -0.9134445 -1.003091
v -1.071333 1.578102 -1.003091
v 1.333151 -0.9984818 -0.632956
v -1.156374 1.493057 -0.632956
v 1.057959 -1.273674 -0.6329558
v -1.431568 1.217865 -0.6329558
v 1.455803 -1.385971 -0.1487559
v -1.29397 1.355476 -0.1487561
v -1.516607 1.132835 0.07999933
v 1.233166 -1.608604 0.0799998
v -1.431568 1.217873 0.4501339
v 1.318205 -1.52356 0.4501344
v 1.678438 -1.16333 0.0799998
v -1.071333 1.57811 0.07999933
v 1.593397 -1.248367 0.4501344
v -1.156374 1.493065 0.4501339
v 1.318205 -1.52356 0.4501344
v -1.431568 1.217873 0.4501339
v 1.68339 -1.102196 -1.520978
v 1.68339 -1.102196 0.8656992
v 1.22596 -1.029742 0.8656992
v 1.22596 -1.029742 -1.520978
v 1.015703 -1.442402 0.8656992
v 1.015703 -1.442402 -1.520977
v 1.343185 -1.769886 0.8656992
v 1.343185 -1.769886 -1.520977
v 1.755839 -1.559629 0.8656992
v 1.755839 -1.559629 -1.520978
v 1.68339 -1.102196 0.8656992
v 1.755839 -1.559629 0.8656992
v 1.343185 -1.769886 0.8656992
v 1.22596 -1.029742 0.8656992
v 1.015703 -1.442402 0.8656992
v -1.082357 1.703224 -1.520977
v -1.082357 1.703224 0.8656992
v -1.539787 1.775678 0.8656992
v -1.539787 1.775678 -1.520977
v -1.750044 1.363018 0.8656992
v -1.750044 1.363018 -1.520977
v -1.422562 1.035534 0.8656992
v -1.422562 1.035534 -1.520977
v -1.009908 1.245791 0.8656992
v -1.009908 1.245791 -1.520977
v -1.082357 1.703224 0.8656992
v -1.009908 1.245791 0.8656992
v -1.422562 1.035534 0.8656992
v -1.539787 1.775678 0.8656992
v -1.750044 1.363018 0.8656992
vt 1.065876 0.04400124
vt -1.167897 0.04400124
vt -9.724771 0.04400124
vt 1.371328 0.04400124
vt -20.55638 0.04400124
vt -4.151835 0.04400124
vt 0.6155678 0.04400124
vt -0.2563334 0.04400124
vt 0.6151445 0.04400124
vt -0.2608387 0.04400124
vt 0.620467 0.04400124
vt -0.2594893 0.04400124
vt 1.141893 0.04400124
vt -1.209836 0.04400124
vt -9.987112 0.04400124
vt 1.390082 0.04400124
vt -20.51091 0.04400124
vt -3.068782 0.04400124
vt 0.7183887 0.04400124
vt -0.2283727 0.04400124
vt 0.720046 0.04400124
vt -0.2348174 0.04400124
vt 0.7176825 0.04400124
vt -0.2307411 0.04400124
vt 1.569822 0.04400124
vt 0.01145586 0.04400124
vt 0.01145604 0.04400124
vt 1.569822 0.04400124
vt 0.01145558 0.04400124
vt 1.569822 0.04400124
vt 0.01145586 0.04400124
vt 1.569822 0.04400124
vt 0.01145586 0.04400124
vt 1.569822 0.04400124
vt 0.01145622 0.04400124
vt 0.01145576 0.04400124
vt 0.01145576 0.04400124
vt 0.01145604 0.04400124
vt 0.01145629 0.04400124
vt 1.569822 0.04400124
vt 0.01145586 0.04400124
vt 0.01145604 0.04400124
vt 1.569822 0.04400124
vt 0.01145558 0.04400124
vt 1.569822 0.04400124
vt 0.01145586 0.04400124
vt 1.569822 0.04400124
vt 0.01145586 0.04400124
vt 1.569822 0.04400124
vt 0.01145622 0.04400124
vt 0.01145576 0.04400124
vt 0.01145576 0.04400124
vt 0.01145604 0.04400124
vt 0.01145629 0.04400124
vn -0.0001080421 -0.000108089 -1
vn 0.0001080185 0.0001078074 -1
vn -0.6727604 -0.6722152 -0.3090634
vn -0.6727805 -0.6722353 -0.3089758
vn -0.4157255 -0.415389 0.8090886
vn -0.4158659 -0.4155293 0.8089443
vn 0.6727606 0.672215 -0.3090633
vn 0.6727813 0.6722357 -0.3089733
vn 0.4157248 0.4153881 0.8090894
vn 0.4158645 0.4155277 0.808946
vn -0.4158659 -0.4155293 0.8089443
vn -0.4157255 -0.415389 0.8090886
vn 0.0004004379 0.0004014464 -0.9999998
vn -0.0004001327 -0.0004015163 -0.9999998
vn -0.6715149 -0.6735563 -0.3088523
vn -0.671438 -0.6734792 -0.3091876
vn -0.4152586 -0.4165213 0.8087461
vn -0.4147337 -0.4159948 0.8092862
vn 0.6715152 0.6735562 -0.3088517
vn 0.6714388 0.6734796 -0.3091847
vn 0.4152576 0.4165203 0.8087472
vn 0.414732 0.415993 0.809288
vn -0.4147337 -0.4159948 0.8092862
vn -0.4152586 -0.4165213 0.8087461
vn 0.7071109 0.7071026 0
vn 0.7071109 0.7071026 0
vn -0.4539895 0.8910071 0
vn -0.4539894 0.8910071 0
vn -0.9876879 -0.1564368 0
vn -0.9876879 -0.1564367 0
vn -0.1564361 -0.9876881 0
vn -0.156436 -0.9876881 0
vn 0.8910058 -0.4539919 0
vn 0.8910059 -0.4539918 0
vn 0 0 1
vn 0 0 1
vn 0 0 1
vn 0 0 1
vn 0 0 1
vn 0.7071109 0.7071027 0
vn 0.7071109 0.7071027 0
vn -0.4539895 0.891007 0
vn -0.4539895 0.891007 0
vn -0.9876879 -0.1564368 0
vn -0.9876879 -0.1564366 0
vn -0.1564362 -0.9876881 0
vn -0.1564362 -0.9876881 0
vn 0.8910059 -0.4539917 0
vn 0.8910059 -0.4539916 0
vn 0 0 1
vn 0 0 1
vn 0 0 1
vn 0 0 1
vn 0 0 1
g Object046_0
f 3/3/3 2/2/2 1/1/1
f 4/4/4 3/3/3 1/1/1
f 5/5/5 3/3/3 4/4/4
f 6/6/6 5/5/5 4/4/4
f 1/1/1 2/2/2 7/7/7
f 2/2/2 8/8/8 7/7/7
f 7/7/7 8/8/8 9/9/9
f 8/8/8 10/10/10 9/9/9
f 9/9/9 10/10/10 11/11/11
f 10/10/10 12/12/12 11/11/11
f 15/15/15 14/14/14 13/13/13
f 16/16/16 15/15/15 13/13/13
f 17/17/17 15/15/15 16/16/16
f 18/18/18 17/17/17 16/16/16
f 13/13/13 14/14/14 19/19/19
f 14/14/14 20/20/20 19/19/19
f 19/19/19 20/20/20 21/21/21
f 20/20/20 22/22/22 21/21/21
f 21/21/21 22/22/22 23/23/23
f 22/22/22 24/24/24 23/23/23
f 27/27/27 26/26/26 25/25/25
f 28/28/28 27/27/27 25/25/25
f 29/29/29 27/27/27 28/28/28
f 30/30/30 29/29/29 28/28/28
f 31/31/31 29/29/29 30/30/30
f 32/32/32 31/31/31 30/30/30
f 33/33/33 31/31/31 32/32/32
f 34/34/34 33/33/33 32/32/32
f 26/26/26 33/33/33 34/34/34
f 25/25/25 26/26/26 34/34/34
f 37/37/37 36/36/36 35/35/35
f 35/35/35 38/38/38 37/37/37
f 38/38/38 39/39/39 37/37/37
f 42/42/42 41/41/41 40/40/40
f 43/43/43 42/42/42 40/40/40
f 44/44/44 42/42/42 43/43/43
f 45/45/45 44/44/44 43/43/43
f 46/46/46 44/44/44 45/45/45
f 47/47/47 46/46/46 45/45/45
f 48/48/48 46/46/46 47/47/47
f 49/49/49 48/48/48 47/47/47
f 41/41/41 48/48/48 49/49/49
f 40/40/40 41/41/41 49/49/49
f 52/52/52 51/51/51 50/50/50
f 50/50/50 53/53/53 52/52/52
f 53/53/53 54/54/54 52/52/52
