g Part2Land
v 6.056534 0.407259 6.103516E-05
v 122.0356 0.407259 6.103516E-05
v 9.397419 0.4072876 3.503204
v 122.0356 0.407259 72.53329
v 9.435402 0.4072876 4.909058
v 8.368103 0.4072876 5.92981
v -3.814697E-06 0.407258 0
v -0.5427399 0.4072876 0.618042
v -87.16721 0.407259 3.051758E-05
v -87.16721 0.407259 72.53329
v -0.5356369 0.4072876 1.379425
v 2.668098 0.4072876 4.829803
v 2.667377 0.4072876 5.148804
v 0.9082146 0.4072876 66.0907
v 5.260933 0.4072876 66.66953
v 122.0356 0.407259 72.53329
v 14.00218 0.4072876 58.03497
v 18.76043 0.4072876 53.01862
v 18.74478 0.4072876 50.97464
v -87.16721 0.407259 115.4567
v 122.0356 0.407259 115.4567
v 3.343285 0.4072876 32.62579
v 1.601215 0.4072876 33.70215
v 0.05411148 0.4072876 29.20633
v -87.16721 0.407259 72.53329
v -0.6657562 0.4072876 28.26859
v -2.985535 0.4072876 18.52469
v -4.985783 0.4072876 20.38889
v -4.883049 0.4072876 16.66638
v -87.16721 0.407259 72.53329
v -4.837444 0.4072876 21.0835
v -0.04039001 0.4072876 26.86261
v 0.3800201 0.4072876 26.4147
v 0.815567 0.4072876 6.917236
v 0.8059959 0.4072876 7.524292
v 2.067024 0.4072876 8.677643
v 1.941227 0.4072876 9.271912
v 5.793037 0.4072876 28.27512
v 7.66811 0.4072876 26.18842
v 8.998928 0.4072876 31.14572
v 122.0356 0.407259 72.53329
v 7.364223 0.4072876 24.80133
v 0.1703339 0.4072876 37.5899
v -0.5355377 0.4072876 38.50668
v -0.6286964 0.4072876 36.98752
v -87.16721 0.407259 72.53329
v -0.5858727 0.4072876 36.29349
v -0.4801521 0.4072876 39.50735
v 12.51133 0.4072876 52.10361
v 12.41868 0.4072876 53.11115
v 2.176403 0.4072876 20.95102
v 3.474384 0.4072876 19.12756
v 7.364223 0.4072876 24.80133
v 2.667377 0.4072876 5.148804
v 0.815567 0.4072876 6.917236
v -87.16721 0.407259 72.53329
v 7.826225 0.4072876 6.862274
v 8.368103 0.4072876 5.92981
v 9.031872 0.4072876 7.865662
v 1.941227 0.4072876 9.271912
v -4.186241 0.4072876 15.51944
v -87.16721 0.407259 72.53329
v -4.883049 0.4072876 16.66638
v -0.04039001 0.4072876 26.86261
v -0.6657562 0.4072876 28.26859
v -87.16721 0.407259 72.53329
v 1.601215 0.4072876 33.70215
v -0.5858727 0.4072876 36.29349
v -87.16721 0.407259 72.53329
v 8.368103 0.4072876 5.92981
v 122.0356 0.407259 72.53329
v 9.031872 0.4072876 7.865662
v 9.031872 0.4072876 7.865662
v 122.0356 0.407259 72.53329
v 8.972679 0.4072876 9.2052
v 7.582664 0.4072876 10.71011
v 1.603123 0.4072876 16.04221
v 5.82711 0.4072876 38.50232
v 6.206757 0.4072876 37.54938
v 10.06427 0.4072876 41.83011
v 8.660049 0.4072876 33.49219
v 5.820724 0.4072876 36.29865
v 122.0356 0.407259 72.53329
v 9.350269 0.4072876 31.97687
v 12.41868 0.4072876 53.11115
v 1.601627 0.4072876 64.07758
v -87.16721 0.407259 72.53329
v 0.9082146 0.4072876 66.0907
v 2.2813 0.4072876 17.74918
v 1.603123 0.4072876 16.04221
v 3.635387 0.4072876 18.35077
v 1.603123 0.4072876 16.04221
v 122.0356 0.407259 72.53329
v 3.635387 0.4072876 18.35077
v 10.06427 0.4072876 41.83011
v 11.25746 0.4072876 43.67978
v 13.28499 0.4072876 45.41818
v 18.74478 0.4072876 50.97464
v 3.635387 0.4072876 18.35077
v 122.0356 0.407259 72.53329
v 3.474384 0.4072876 19.12756
v 3.474384 0.4072876 19.12756
v 122.0356 0.407259 72.53329
v 7.364223 0.4072876 24.80133
v 8.998928 0.4072876 31.14572
v 122.0356 0.407259 72.53329
v 9.350269 0.4072876 31.97687
v 0.5419273 2.95639E-05 0.6180725
v 1.119102 1.421085E-14 6.103516E-05
v 5.125042 1.421085E-14 6.103516E-05
v 8.465927 2.95639E-05 3.503204
v 0.5490303 2.95639E-05 1.379425
v 3.752766 2.95639E-05 4.829803
v 8.50391 2.95639E-05 4.909058
v 3.752045 2.95639E-05 5.148804
v 7.436611 2.95639E-05 5.92981
v 1.900234 2.95639E-05 6.917236
v 6.894733 2.95639E-05 6.862274
v 8.10038 2.95639E-05 7.865662
v 1.890663 2.95639E-05 7.524292
v 3.151691 2.95639E-05 8.677643
v 8.041187 2.95639E-05 9.2052
v 3.025894 2.95639E-05 9.271912
v 6.651173 2.95639E-05 10.71011
v -3.101574 2.95639E-05 15.51944
v 0.6716309 2.95639E-05 16.04221
v -3.798382 2.95639E-05 16.66638
v 1.349808 2.95639E-05 17.74918
v -1.900867 2.95639E-05 18.52469
v 2.703896 2.95639E-05 18.35077
v 2.542892 2.95639E-05 19.12756
v -3.901115 2.95639E-05 20.38889
v 1.244911 2.95639E-05 20.95102
v -3.752777 2.95639E-05 21.0835
v 6.432732 2.95639E-05 24.80133
v 1.464687 2.95639E-05 26.4147
v 6.736618 2.95639E-05 26.18842
v 4.861546 2.95639E-05 28.27512
v 1.044277 2.95639E-05 26.86261
v 0.418911 2.95639E-05 28.26859
v 1.138779 2.95639E-05 29.20633
v 8.067436 2.95639E-05 31.14572
v 4.427952 2.95639E-05 32.62579
v 8.418777 2.95639E-05 31.97687
v 7.728558 2.95639E-05 33.49219
v 2.685883 2.95639E-05 33.70215
v 4.889233 2.95639E-05 36.29865
v 0.4987946 2.95639E-05 36.29349
v 0.4559708 2.95639E-05 36.98752
v 5.275265 2.95639E-05 37.54938
v 1.255001 2.95639E-05 37.5899
v 4.895615 2.95639E-05 38.50232
v 0.5491295 2.95639E-05 38.50668
v 9.132778 2.95639E-05 41.83011
v 0.6045151 2.95639E-05 39.50735
v 13.596 2.95639E-05 52.10361
v 10.32597 2.95639E-05 43.67978
v 12.3535 2.95639E-05 45.41818
v 17.81329 2.95639E-05 50.97464
v 17.82894 2.95639E-05 53.01862
v 13.50335 2.95639E-05 53.11115
v 13.07069 2.95639E-05 58.03497
v 2.686295 2.95639E-05 64.07758
v 4.329441 2.95639E-05 66.66953
v 1.992882 2.95639E-05 66.0907
v 5.125042 1.421085E-14 6.103516E-05
v 6.056534 0.407259 6.103516E-05
v 9.397419 0.4072876 3.503204
v 8.465927 2.95639E-05 3.503204
v 122.0356 1.421085E-14 6.103516E-05
v 122.0356 0.407259 6.103516E-05
v 6.056534 0.407259 6.103516E-05
v 5.125042 1.421085E-14 6.103516E-05
v 1.119102 1.421085E-14 6.103516E-05
v -3.814697E-06 0.407258 0
v -87.16721 0.407259 3.051758E-05
v -87.16721 1.421085E-14 6.103516E-05
v 0.5419273 2.95639E-05 0.6180725
v -0.5427399 0.4072876 0.618042
v -3.814697E-06 0.407258 0
v 1.119102 1.421085E-14 6.103516E-05
v 4.427952 2.95639E-05 32.62579
v 3.343285 0.4072876 32.62579
v 0.05411148 0.4072876 29.20633
v 1.138779 2.95639E-05 29.20633
v -0.6657562 0.4072876 28.26859
v 0.418911 2.95639E-05 28.26859
v 2.685883 2.95639E-05 33.70215
v 1.601215 0.4072876 33.70215
v 3.343285 0.4072876 32.62579
v 4.427952 2.95639E-05 32.62579
v 0.4987946 2.95639E-05 36.29349
v -0.5858727 0.4072876 36.29349
v -1.900867 2.95639E-05 18.52469
v -2.985535 0.4072876 18.52469
v -4.883049 0.4072876 16.66638
v -3.798382 2.95639E-05 16.66638
v -3.901115 2.95639E-05 20.38889
v -4.985783 0.4072876 20.38889
v -2.985535 0.4072876 18.52469
v -1.900867 2.95639E-05 18.52469
v 122.0356 1.421085E-14 72.53329
v 122.0356 0.407259 72.53329
v 122.0356 0.407259 6.103516E-05
v 122.0356 1.421085E-14 6.103516E-05
v 122.0356 0.407259 115.4567
v 122.0356 1.41831E-14 115.4567
v 8.465927 2.95639E-05 3.503204
v 9.397419 0.4072876 3.503204
v 9.435402 0.4072876 4.909058
v 8.50391 2.95639E-05 4.909058
v 4.861546 2.95639E-05 28.27512
v 5.793037 0.4072876 28.27512
v 8.998928 0.4072876 31.14572
v 8.067436 2.95639E-05 31.14572
v 9.350269 0.4072876 31.97687
v 8.418777 2.95639E-05 31.97687
v 6.736618 2.95639E-05 26.18842
v 7.66811 0.4072876 26.18842
v 5.793037 0.4072876 28.27512
v 4.861546 2.95639E-05 28.27512
v 1.255001 2.95639E-05 37.5899
v 0.1703339 0.4072876 37.5899
v -0.6286964 0.4072876 36.98752
v 0.4559708 2.95639E-05 36.98752
v 0.5491295 2.95639E-05 38.50668
v -0.5355377 0.4072876 38.50668
v 0.1703339 0.4072876 37.5899
v 1.255001 2.95639E-05 37.5899
v -87.16721 1.421085E-14 6.103516E-05
v -87.16721 0.407259 3.051758E-05
v -87.16721 0.407259 72.53329
v -87.16721 1.421085E-14 72.53329
v -87.16721 1.41831E-14 115.4567
v -87.16721 0.407259 115.4567
v 0.5490303 2.95639E-05 1.379425
v -0.5356369 0.4072876 1.379425
v -0.5427399 0.4072876 0.618042
v 0.5419273 2.95639E-05 0.6180725
v 1.244911 2.95639E-05 20.95102
v 2.176403 0.4072876 20.95102
v 7.364223 0.4072876 24.80133
v 6.432732 2.95639E-05 24.80133
v 2.542892 2.95639E-05 19.12756
v 3.474384 0.4072876 19.12756
v 2.176403 0.4072876 20.95102
v 1.244911 2.95639E-05 20.95102
v 2.703896 2.95639E-05 18.35077
v 3.635387 0.4072876 18.35077
v 1.464687 2.95639E-05 26.4147
v 0.3800201 0.4072876 26.4147
v -4.837444 0.4072876 21.0835
v -3.752777 2.95639E-05 21.0835
v 1.044277 2.95639E-05 26.86261
v -0.04039001 0.4072876 26.86261
v 0.3800201 0.4072876 26.4147
v 1.464687 2.95639E-05 26.4147
v 0.418911 2.95639E-05 28.26859
v -0.6657562 0.4072876 28.26859
v 3.752766 2.95639E-05 4.829803
v 2.668098 0.4072876 4.829803
v -0.5356369 0.4072876 1.379425
v 0.5490303 2.95639E-05 1.379425
v 3.752045 2.95639E-05 5.148804
v 2.667377 0.4072876 5.148804
v 2.668098 0.4072876 4.829803
v 3.752766 2.95639E-05 4.829803
v 1.900234 2.95639E-05 6.917236
v 0.815567 0.4072876 6.917236
v 2.667377 0.4072876 5.148804
v 3.752045 2.95639E-05 5.148804
v 1.890663 2.95639E-05 7.524292
v 0.8059959 0.4072876 7.524292
v 0.815567 0.4072876 6.917236
v 1.900234 2.95639E-05 6.917236
v 6.894733 2.95639E-05 6.862274
v 7.826225 0.4072876 6.862274
v 9.031872 0.4072876 7.865662
v 8.10038 2.95639E-05 7.865662
v 7.436611 2.95639E-05 5.92981
v 8.368103 0.4072876 5.92981
v 7.826225 0.4072876 6.862274
v 6.894733 2.95639E-05 6.862274
v 8.50391 2.95639E-05 4.909058
v 9.435402 0.4072876 4.909058
v 3.151691 2.95639E-05 8.677643
v 2.067024 0.4072876 8.677643
v 0.8059959 0.4072876 7.524292
v 1.890663 2.95639E-05 7.524292
v 3.025894 2.95639E-05 9.271912
v 1.941227 0.4072876 9.271912
v 2.067024 0.4072876 8.677643
v 3.151691 2.95639E-05 8.677643
v -3.101574 2.95639E-05 15.51944
v -4.186241 0.4072876 15.51944
v 1.941227 0.4072876 9.271912
v 3.025894 2.95639E-05 9.271912
v -3.798382 2.95639E-05 16.66638
v -4.883049 0.4072876 16.66638
v -3.752777 2.95639E-05 21.0835
v -4.837444 0.4072876 21.0835
v -4.985783 0.4072876 20.38889
v -3.901115 2.95639E-05 20.38889
v 0.4559708 2.95639E-05 36.98752
v -0.6286964 0.4072876 36.98752
v -0.5858727 0.4072876 36.29349
v 0.4987946 2.95639E-05 36.29349
v 0.6045151 2.95639E-05 39.50735
v -0.4801521 0.4072876 39.50735
v -0.5355377 0.4072876 38.50668
v 0.5491295 2.95639E-05 38.50668
v 8.10038 2.95639E-05 7.865662
v 9.031872 0.4072876 7.865662
v 8.972679 0.4072876 9.2052
v 8.041187 2.95639E-05 9.2052
v 8.041187 2.95639E-05 9.2052
v 8.972679 0.4072876 9.2052
v 7.582664 0.4072876 10.71011
v 6.651173 2.95639E-05 10.71011
v 1.603123 0.4072876 16.04221
v 0.6716309 2.95639E-05 16.04221
v 4.895615 2.95639E-05 38.50232
v 5.82711 0.4072876 38.50232
v 10.06427 0.4072876 41.83011
v 9.132778 2.95639E-05 41.83011
v 11.25746 0.4072876 43.67978
v 10.32597 2.95639E-05 43.67978
v 13.28499 0.4072876 45.41818
v 12.3535 2.95639E-05 45.41818
v 18.74478 0.4072876 50.97464
v 17.81329 2.95639E-05 50.97464
v 5.275265 2.95639E-05 37.54938
v 6.206757 0.4072876 37.54938
v 5.82711 0.4072876 38.50232
v 4.895615 2.95639E-05 38.50232
v 13.596 2.95639E-05 52.10361
v 12.51133 0.4072876 52.10361
v -0.4801521 0.4072876 39.50735
v 0.6045151 2.95639E-05 39.50735
v 13.50335 2.95639E-05 53.11115
v 12.41868 0.4072876 53.11115
v 12.51133 0.4072876 52.10361
v 13.596 2.95639E-05 52.10361
v 2.686295 2.95639E-05 64.07758
v 1.601627 0.4072876 64.07758
v 12.41868 0.4072876 53.11115
v 13.50335 2.95639E-05 53.11115
v 1.992882 2.95639E-05 66.0907
v 0.9082146 0.4072876 66.0907
v 4.889233 2.95639E-05 36.29865
v 5.820724 0.4072876 36.29865
v 6.206757 0.4072876 37.54938
v 5.275265 2.95639E-05 37.54938
v 7.728558 2.95639E-05 33.49219
v 8.660049 0.4072876 33.49219
v 5.820724 0.4072876 36.29865
v 4.889233 2.95639E-05 36.29865
v 8.418777 2.95639E-05 31.97687
v 9.350269 0.4072876 31.97687
v 1.349808 2.95639E-05 17.74918
v 2.2813 0.4072876 17.74918
v 3.635387 0.4072876 18.35077
v 2.703896 2.95639E-05 18.35077
v 0.6716309 2.95639E-05 16.04221
v 1.603123 0.4072876 16.04221
v 2.2813 0.4072876 17.74918
v 1.349808 2.95639E-05 17.74918
v 6.432732 2.95639E-05 24.80133
v 7.364223 0.4072876 24.80133
v 7.66811 0.4072876 26.18842
v 6.736618 2.95639E-05 26.18842
v 17.81329 2.95639E-05 50.97464
v 18.74478 0.4072876 50.97464
v 18.76043 0.4072876 53.01862
v 17.82894 2.95639E-05 53.01862
v 17.82894 2.95639E-05 53.01862
v 18.76043 0.4072876 53.01862
v 14.00218 0.4072876 58.03497
v 13.07069 2.95639E-05 58.03497
v 5.260933 0.4072876 66.66953
v 4.329441 2.95639E-05 66.66953
v 4.329441 2.95639E-05 66.66953
v 5.260933 0.4072876 66.66953
v 0.9082146 0.4072876 66.0907
v 1.992882 2.95639E-05 66.0907
v -87.16721 1.41831E-14 115.4567
v -87.16721 0.407259 115.4567
v 122.0356 0.407259 115.4567
v 122.0356 1.41831E-14 115.4567
v -87.16721 1.421085E-14 72.53329
v -87.16721 1.41831E-14 115.4567
v 122.0356 1.41831E-14 115.4567
v 122.0356 1.421085E-14 72.53329
vt 0.973071 0.8711989
vt 0.9711199 0.8711989
vt 0.9730152 0.871228
vt 0.9711199 0.8746903
vt 0.9730146 0.8712397
vt 0.9730324 0.8712481
vt 0.9731379 0.8711989
vt 0.9731475 0.871204
vt 0.9746113 0.8711989
vt 0.9746113 0.8746903
vt 0.9731474 0.8712103
vt 0.9730939 0.8712389
vt 0.9730939 0.8712416
vt 0.9731233 0.8717475
vt 0.9730843 0.8717522
vt 0.9711199 0.8746903
vt 0.9729384 0.8716806
vt 0.972859 0.871639
vt 0.9728592 0.871622
vt 0.9746113 0.8746903
vt 0.9711199 0.8746903
vt 0.9730827 0.8714697
vt 0.9731117 0.8714787
vt 0.9731375 0.8714413
vt 0.9746113 0.8746903
vt 0.9731495 0.8714336
vt 0.9731882 0.8713526
vt 0.9732217 0.8713682
vt 0.9732199 0.8713373
vt 0.9746113 0.8746903
vt 0.9732192 0.8713739
vt 0.9731391 0.8714219
vt 0.9731321 0.8714182
vt 0.9731249 0.8712563
vt 0.973125 0.8712614
vt 0.973104 0.871271
vt 0.973106 0.8712758
vt 0.9730754 0.8714336
vt 0.9730441 0.8714163
vt 0.9730219 0.8714574
vt 0.9711199 0.8746903
vt 0.9730492 0.8714048
vt 0.9731356 0.8715109
vt 0.9731474 0.8715185
vt 0.9731489 0.8715059
vt 0.9746113 0.8746903
vt 0.9731482 0.8715001
vt 0.9731464 0.8715268
vt 0.9729297 0.8716314
vt 0.9729311 0.8716397
vt 0.9731357 0.8713728
vt 0.9731141 0.8713577
vt 0.9730492 0.8714048
vt 0.9730939 0.8712416
vt 0.9731249 0.8712563
vt 0.9746113 0.8746903
vt 0.9730415 0.8712558
vt 0.9730324 0.8712481
vt 0.9730213 0.8712642
vt 0.973106 0.8712758
vt 0.9732083 0.8713277
vt 0.9746113 0.8746903
vt 0.9732199 0.8713373
vt 0.9731391 0.8714219
vt 0.9731495 0.8714336
vt 0.9746113 0.8746903
vt 0.9731117 0.8714787
vt 0.9731482 0.8715001
vt 0.9746113 0.8746903
vt 0.9730324 0.8712481
vt 0.9711199 0.8746903
vt 0.9730213 0.8712642
vt 0.9730213 0.8712642
vt 0.9711199 0.8746903
vt 0.9730223 0.8712753
vt 0.9730455 0.8712878
vt 0.9731453 0.871332
vt 0.9730748 0.8715185
vt 0.9730685 0.8715105
vt 0.9730041 0.8715461
vt 0.9730276 0.8714769
vt 0.9730749 0.8715001
vt 0.9711199 0.8746903
vt 0.973016 0.8714643
vt 0.9729311 0.8716397
vt 0.9731116 0.8717307
vt 0.9746113 0.8746903
vt 0.9731233 0.8717475
vt 0.973134 0.8713462
vt 0.9731453 0.871332
vt 0.9731114 0.8713512
vt 0.9731453 0.871332
vt 0.9711199 0.8746903
vt 0.9731114 0.8713512
vt 0.9730041 0.8715461
vt 0.9729842 0.8715614
vt 0.9729503 0.8715758
vt 0.9728592 0.871622
vt 0.9731114 0.8713512
vt 0.9711199 0.8746903
vt 0.9731141 0.8713577
vt 0.9731141 0.8713577
vt 0.9711199 0.8746903
vt 0.9730492 0.8714048
vt 0.9730219 0.8714574
vt 0.9711199 0.8746903
vt 0.973016 0.8714643
vt 0.1473855 0.5189832
vt 0.1473759 0.5189781
vt 0.1473091 0.5189781
vt 0.1472533 0.5190072
vt 0.1473855 0.5189896
vt 0.147332 0.5190182
vt 0.1472527 0.5190189
vt 0.147332 0.5190209
vt 0.1472705 0.5190274
vt 0.1473629 0.5190356
vt 0.1472796 0.5190351
vt 0.1472594 0.5190434
vt 0.1473631 0.5190406
vt 0.1473421 0.5190502
vt 0.1472604 0.5190545
vt 0.1473441 0.5190551
vt 0.1472836 0.519067
vt 0.1474464 0.519107
vt 0.1473834 0.5191113
vt 0.147458 0.5191165
vt 0.1473721 0.5191255
vt 0.1474263 0.5191319
vt 0.1473495 0.5191305
vt 0.1473522 0.5191369
vt 0.1474597 0.5191474
vt 0.1473738 0.519152
vt 0.1474572 0.5191531
vt 0.1472873 0.519184
vt 0.1473702 0.5191975
vt 0.1472822 0.5191956
vt 0.1473135 0.5192128
vt 0.1473772 0.5192012
vt 0.1473876 0.5192128
vt 0.1473756 0.5192206
vt 0.14726 0.5192367
vt 0.1473207 0.519249
vt 0.1472541 0.5192435
vt 0.1472657 0.5192561
vt 0.1473498 0.5192579
vt 0.147313 0.5192794
vt 0.1473863 0.5192794
vt 0.147387 0.5192851
vt 0.1473066 0.5192897
vt 0.1473737 0.5192901
vt 0.1473129 0.5192977
vt 0.1473855 0.5192977
vt 0.1472422 0.5193254
vt 0.1473845 0.5193061
vt 0.1471678 0.5194106
vt 0.1472223 0.5193406
vt 0.1471884 0.5193551
vt 0.1470973 0.5194012
vt 0.1470971 0.5194182
vt 0.1471692 0.519419
vt 0.1471765 0.5194598
vt 0.1473497 0.51951
vt 0.1473224 0.5195315
vt 0.1473613 0.5195267
vt 0.973071 0.8711989
vt 0.973071 0.8711989
vt 0.9730152 0.871228
vt 0.9730152 0.871228
vt 0.9711199 0.8711989
vt 0.9711199 0.8711989
vt 0.973071 0.8711989
vt 0.973071 0.8711989
vt 0.9731379 0.8711989
vt 0.9731379 0.8711989
vt 0.9746113 0.8711989
vt 0.9746113 0.8711989
vt 0.9731475 0.871204
vt 0.9731475 0.871204
vt 0.9731379 0.8711989
vt 0.9731379 0.8711989
vt 0.9730827 0.8714697
vt 0.9730827 0.8714697
vt 0.9731375 0.8714413
vt 0.9731375 0.8714413
vt 0.9731495 0.8714336
vt 0.9731495 0.8714336
vt 0.9731117 0.8714787
vt 0.9731117 0.8714787
vt 0.9730827 0.8714697
vt 0.9730827 0.8714697
vt 0.9731482 0.8715001
vt 0.9731482 0.8715001
vt 0.9731882 0.8713526
vt 0.9731882 0.8713526
vt 0.9732199 0.8713373
vt 0.9732199 0.8713373
vt 0.9732217 0.8713682
vt 0.9732217 0.8713682
vt 0.9731882 0.8713526
vt 0.9731882 0.8713526
vt 0.9711199 0.8746903
vt 0.9711199 0.8746903
vt 0.9711199 0.8711989
vt 0.9711199 0.8711989
vt 0.9711199 0.8746903
vt 0.9711199 0.8746903
vt 0.9730152 0.871228
vt 0.9730152 0.871228
vt 0.9730146 0.8712397
vt 0.9730146 0.8712397
vt 0.9730754 0.8714336
vt 0.9730754 0.8714336
vt 0.9730219 0.8714574
vt 0.9730219 0.8714574
vt 0.973016 0.8714643
vt 0.973016 0.8714643
vt 0.9730441 0.8714163
vt 0.9730441 0.8714163
vt 0.9730754 0.8714336
vt 0.9730754 0.8714336
vt 0.9731356 0.8715109
vt 0.9731356 0.8715109
vt 0.9731489 0.8715059
vt 0.9731489 0.8715059
vt 0.9731474 0.8715185
vt 0.9731474 0.8715185
vt 0.9731356 0.8715109
vt 0.9731356 0.8715109
vt 0.9746113 0.8711989
vt 0.9746113 0.8711989
vt 0.9746113 0.8746903
vt 0.9746113 0.8746903
vt 0.9746113 0.8746903
vt 0.9746113 0.8746903
vt 0.9731474 0.8712103
vt 0.9731474 0.8712103
vt 0.9731475 0.871204
vt 0.9731475 0.871204
vt 0.9731357 0.8713728
vt 0.9731357 0.8713728
vt 0.9730492 0.8714048
vt 0.9730492 0.8714048
vt 0.9731141 0.8713577
vt 0.9731141 0.8713577
vt 0.9731357 0.8713728
vt 0.9731357 0.8713728
vt 0.9731114 0.8713512
vt 0.9731114 0.8713512
vt 0.9731321 0.8714182
vt 0.9731321 0.8714182
vt 0.9732192 0.8713739
vt 0.9732192 0.8713739
vt 0.9731391 0.8714219
vt 0.9731391 0.8714219
vt 0.9731321 0.8714182
vt 0.9731321 0.8714182
vt 0.9731495 0.8714336
vt 0.9731495 0.8714336
vt 0.9730939 0.8712389
vt 0.9730939 0.8712389
vt 0.9731474 0.8712103
vt 0.9731474 0.8712103
vt 0.9730939 0.8712416
vt 0.9730939 0.8712416
vt 0.9730939 0.8712389
vt 0.9730939 0.8712389
vt 0.9731249 0.8712563
vt 0.9731249 0.8712563
vt 0.9730939 0.8712416
vt 0.9730939 0.8712416
vt 0.973125 0.8712614
vt 0.973125 0.8712614
vt 0.9731249 0.8712563
vt 0.9731249 0.8712563
vt 0.9730415 0.8712558
vt 0.9730415 0.8712558
vt 0.9730213 0.8712642
vt 0.9730213 0.8712642
vt 0.9730324 0.8712481
vt 0.9730324 0.8712481
vt 0.9730415 0.8712558
vt 0.9730415 0.8712558
vt 0.9730146 0.8712397
vt 0.9730146 0.8712397
vt 0.973104 0.871271
vt 0.973104 0.871271
vt 0.973125 0.8712614
vt 0.973125 0.8712614
vt 0.973106 0.8712758
vt 0.973106 0.8712758
vt 0.973104 0.871271
vt 0.973104 0.871271
vt 0.9732083 0.8713277
vt 0.9732083 0.8713277
vt 0.973106 0.8712758
vt 0.973106 0.8712758
vt 0.9732199 0.8713373
vt 0.9732199 0.8713373
vt 0.9732192 0.8713739
vt 0.9732192 0.8713739
vt 0.9732217 0.8713682
vt 0.9732217 0.8713682
vt 0.9731489 0.8715059
vt 0.9731489 0.8715059
vt 0.9731482 0.8715001
vt 0.9731482 0.8715001
vt 0.9731464 0.8715268
vt 0.9731464 0.8715268
vt 0.9731474 0.8715185
vt 0.9731474 0.8715185
vt 0.9730213 0.8712642
vt 0.9730213 0.8712642
vt 0.9730223 0.8712753
vt 0.9730223 0.8712753
vt 0.9730223 0.8712753
vt 0.9730223 0.8712753
vt 0.9730455 0.8712878
vt 0.9730455 0.8712878
vt 0.9731453 0.871332
vt 0.9731453 0.871332
vt 0.9730748 0.8715185
vt 0.9730748 0.8715185
vt 0.9730041 0.8715461
vt 0.9730041 0.8715461
vt 0.9729842 0.8715614
vt 0.9729842 0.8715614
vt 0.9729503 0.8715758
vt 0.9729503 0.8715758
vt 0.9728592 0.871622
vt 0.9728592 0.871622
vt 0.9730685 0.8715105
vt 0.9730685 0.8715105
vt 0.9730748 0.8715185
vt 0.9730748 0.8715185
vt 0.9729297 0.8716314
vt 0.9729297 0.8716314
vt 0.9731464 0.8715268
vt 0.9731464 0.8715268
vt 0.9729311 0.8716397
vt 0.9729311 0.8716397
vt 0.9729297 0.8716314
vt 0.9729297 0.8716314
vt 0.9731116 0.8717307
vt 0.9731116 0.8717307
vt 0.9729311 0.8716397
vt 0.9729311 0.8716397
vt 0.9731233 0.8717475
vt 0.9731233 0.8717475
vt 0.9730749 0.8715001
vt 0.9730749 0.8715001
vt 0.9730685 0.8715105
vt 0.9730685 0.8715105
vt 0.9730276 0.8714769
vt 0.9730276 0.8714769
vt 0.9730749 0.8715001
vt 0.9730749 0.8715001
vt 0.973016 0.8714643
vt 0.973016 0.8714643
vt 0.973134 0.8713462
vt 0.973134 0.8713462
vt 0.9731114 0.8713512
vt 0.9731114 0.8713512
vt 0.9731453 0.871332
vt 0.9731453 0.871332
vt 0.973134 0.8713462
vt 0.973134 0.8713462
vt 0.9730492 0.8714048
vt 0.9730492 0.8714048
vt 0.9730441 0.8714163
vt 0.9730441 0.8714163
vt 0.9728592 0.871622
vt 0.9728592 0.871622
vt 0.972859 0.871639
vt 0.972859 0.871639
vt 0.972859 0.871639
vt 0.972859 0.871639
vt 0.9729384 0.8716806
vt 0.9729384 0.8716806
vt 0.9730843 0.8717522
vt 0.9730843 0.8717522
vt 0.9730843 0.8717522
vt 0.9730843 0.8717522
vt 0.9731233 0.8717475
vt 0.9731233 0.8717475
vt 0.9746113 0.8746903
vt 0.9746113 0.8746903
vt 0.9711199 0.8746903
vt 0.9711199 0.8746903
vt 0.9746113 0.8746903
vt 0.9746113 0.8746903
vt 0.9711199 0.8746903
vt 0.9711199 0.8746903
vn 0 1 0
vn 0 1 0
vn 0 1 0
vn 0 1 0
vn 0 1 0
vn 0 1 0
vn 0 1 -4.782989E-05
vn 0 1 0
vn 0 1 0
vn 0 1 0
vn 0 1 0
vn 0 1 0
vn 0 1 0
vn 0 1 0
vn 0 1 0
vn 0 1 0
vn 0 1 0
vn 0 1 0
vn 0 1 0
vn 0 1 0
vn 0 1 0
vn 0 1 0
vn 0 1 0
vn 0 1 0
vn 0 1 0
vn 0 1 0
vn 0 1 0
vn 0 1 0
vn 0 1 0
vn 0 1 0
vn 0 1 0
vn 0 1 0
vn 0 1 0
vn 0 1 0
vn 0 1 0
vn 0 1 0
vn 0 1 0
vn 0 1 0
vn 0 1 0
vn 0 1 0
vn 0 1 0
vn 0 1 0
vn 0 1 0
vn 0 1 0
vn 0 1 0
vn 0 1 0
vn 0 1 0
vn 0 1 0
vn 0 1 0
vn 0 1 0
vn 0 1 0
vn 0 1 0
vn 0 1 0
vn 0 1 0
vn 0 1 0
vn 0 1 0
vn 0 1 0
vn 0 1 0
vn 0 1 0
vn 0 1 0
vn 0 1 0
vn 0 1 0
vn 0 1 0
vn 0 1 0
vn 0 1 0
vn 0 1 0
vn 0 1 0
vn 0 1 0
vn 0 1 0
vn 0 1 0
vn 0 1 0
vn 0 1 0
vn 0 1 0
vn 0 1 0
vn 0 1 0
vn 0 1 0
vn 0 1 0
vn 0 1 0
vn 0 1 0
vn 0 1 0
vn 0 1 0
vn 0 1 0
vn 0 1 0
vn 0 1 0
vn 0 1 0
vn 0 1 0
vn 0 1 0
vn 0 1 0
vn 0 1 0
vn 0 1 0
vn 0 1 0
vn 0 1 0
vn 0 1 0
vn 0 1 0
vn 0 1 0
vn 0 1 0
vn 0 1 0
vn 0 1 0
vn 0 1 0
vn 0 1 0
vn 0 1 0
vn 0 1 0
vn 0 1 0
vn 0 1 0
vn 0 1 0
vn 0 1 0
vn 0 1 0
vn 0 1 0
vn 0 1 0
vn 0 1 0
vn 0 1 0
vn 0 1 0
vn 0 1 0
vn 0 1 0
vn 0 1 0
vn 0 1 0
vn 0 1 0
vn 0 1 0
vn 0 1 0
vn 0 1 0
vn 0 1 0
vn 0 1 0
vn 0 1 0
vn 0 1 0
vn 0 1 0
vn 0 1 0
vn 0 1 0
vn 0 1 0
vn 0 1 0
vn 0 1 0
vn 0 1 0
vn 0 1 0
vn 0 1 0
vn 0 1 0
vn 0 1 0
vn 0 1 0
vn 0 1 0
vn 0 1 0
vn 0 1 0
vn 0 1 0
vn 0 1 0
vn 0 1 0
vn 0 1 0
vn 0 1 0
vn 0 1 0
vn 0 1 0
vn 0 1 0
vn 0 1 0
vn 0 1 0
vn 0 1 0
vn 0 1 0
vn 0 1 0
vn 0 1 0
vn 0 1 0
vn 0 1 0
vn 0 1 0
vn 0 1 0
vn 0 1 0
vn 0 1 0
vn 0 1 0
vn 0 1 0
vn 0 1 0
vn 0 1 0
vn 0 1 0
vn 0 1 0
vn -0.3742179 0.8559197 0.3568788
vn -0.374218 0.8559197 0.3568787
vn -0.374218 0.8559197 0.3568787
vn -0.374218 0.8559197 0.3568787
vn 0 0 -1
vn 0 0 -1
vn 0 0 -1
vn 0 0 -1
vn 0 -0.0001126402 -1
vn 0 -0.0001126402 -1
vn 0 -0.0001126402 -1
vn 0 -0.0001126402 -1
vn 0.3307391 0.8948956 0.2996225
vn 0.3307391 0.8948955 0.2996225
vn 0.3307391 0.8948955 0.2996224
vn 0.3307391 0.8948955 0.2996224
vn 0.3329905 0.886862 -0.3203017
vn 0.3329905 0.886862 -0.3203017
vn 0.3357271 0.894147 -0.2962913
vn 0.3337033 0.8887596 -0.3142429
vn 0.3393743 0.9038559 -0.260518
vn 0.3393743 0.9038559 -0.260518
vn 0.3216666 0.8567063 0.403218
vn 0.3341801 0.8900347 0.3100998
vn 0.3055255 0.8137164 0.4944895
vn 0.3055255 0.8137164 0.4944895
vn 0.3369907 0.8975203 0.2844199
vn 0.3369907 0.8975202 0.2844199
vn 0.3308411 0.8811467 -0.3378235
vn 0.3308411 0.8811467 -0.3378235
vn 0.3308411 0.8811467 -0.3378235
vn 0.3308411 0.8811467 -0.3378235
vn 0.3288963 0.8759518 0.3528962
vn 0.3288963 0.8759518 0.3528962
vn 0.3288963 0.8759518 0.3528962
vn 0.3288963 0.8759518 0.3528962
vn 1 0 0
vn 1 0 0
vn 1 0 0
vn 1 0 0
vn 1 0 0
vn 1 0 0
vn -0.4005683 0.916203 0.01082253
vn -0.4005682 0.916203 0.01082253
vn -0.4005683 0.916203 0.01082253
vn -0.4005682 0.916203 0.01082253
vn -0.3656676 0.8363686 0.4083807
vn -0.3656676 0.8363686 0.4083807
vn -0.3799129 0.8689395 0.3171913
vn -0.3705168 0.8474562 0.380178
vn -0.3949828 0.9033893 0.1669618
vn -0.3949828 0.9033893 0.1669618
vn -0.3769181 0.862102 -0.338693
vn -0.3769181 0.862102 -0.338693
vn -0.3769181 0.862102 -0.338693
vn -0.3769181 0.862102 -0.338693
vn 0.318586 0.848487 -0.4225787
vn 0.3185861 0.848487 -0.4225787
vn 0.318586 0.848487 -0.4225787
vn 0.3185861 0.848487 -0.4225787
vn 0.3393022 0.9036735 0.2612437
vn 0.3393022 0.9036735 0.2612437
vn 0.3393022 0.9036735 0.2612437
vn 0.3393022 0.9036735 0.2612437
vn -1 0 0
vn -1 0 0
vn -1 0 0
vn -1 0 0
vn -1 0 0
vn -1 0 0
vn 0.3515058 0.9361799 -0.003279276
vn 0.3515058 0.93618 -0.003279275
vn 0.3515059 0.9361799 -0.003279276
vn 0.3515058 0.9361799 -0.003279275
vn -0.3525229 0.8063003 0.4749814
vn -0.3525229 0.8063003 0.4749815
vn -0.3525229 0.8063003 0.4749814
vn -0.3525229 0.8063003 0.4749815
vn -0.3894139 0.8906797 -0.2346198
vn -0.3928836 0.8986117 -0.1952932
vn -0.3852378 0.8811321 -0.2742227
vn -0.3852378 0.8811321 -0.2742226
vn -0.3992275 0.9131104 -0.08274512
vn -0.3992275 0.9131104 -0.08274511
vn 0.3323882 0.8852682 -0.3252971
vn 0.3323882 0.8852682 -0.3252971
vn 0.3323882 0.8852682 -0.3252971
vn 0.3323882 0.8852682 -0.3252971
vn 0.3431376 0.9138922 0.2169277
vn 0.3460673 0.9217051 0.1752059
vn 0.333817 0.8890443 0.3133153
vn 0.333817 0.8890443 0.3133153
vn 0.3472837 0.9249501 0.1544713
vn 0.3472837 0.9249501 0.1544713
vn 0.3341608 0.8899814 -0.3102734
vn 0.3341608 0.8899814 -0.3102733
vn 0.3341608 0.8899814 -0.3102734
vn 0.3341608 0.8899814 -0.3102733
vn 0.3515034 0.9361863 0.0007944605
vn 0.3515034 0.9361863 0.0007944605
vn 0.3515034 0.9361863 0.0007944605
vn 0.3515034 0.9361863 0.0007944605
vn 0.3298731 0.8785596 0.3454228
vn 0.3298731 0.8785596 0.3454227
vn 0.3298731 0.8785596 0.3454228
vn 0.3298731 0.8785596 0.3454227
vn 0.3514966 0.9361727 0.005541943
vn 0.3514966 0.9361727 0.005541943
vn 0.3514966 0.9361727 0.005541943
vn 0.3514966 0.9361727 0.005541943
vn -0.3609524 0.8255911 0.4337195
vn -0.3609524 0.8255911 0.4337195
vn -0.3609524 0.8255911 0.4337195
vn -0.3609524 0.8255911 0.4337195
vn -0.38467 0.8798161 -0.2791998
vn -0.3766214 0.8614119 -0.3407726
vn -0.3901694 0.8923901 -0.2267327
vn -0.3901694 0.8923901 -0.2267327
vn -0.3694934 0.8451123 -0.3863415
vn -0.3694934 0.8451123 -0.3863415
vn 0.328109 0.8738701 -0.3587415
vn 0.328109 0.8738701 -0.3587415
vn 0.328109 0.8738701 -0.3587415
vn 0.328109 0.8738701 -0.3587415
vn 0.3505387 0.933604 0.07420381
vn 0.3505387 0.933604 0.07420382
vn 0.3505387 0.933604 0.07420381
vn 0.3505387 0.933604 0.07420382
vn 0.3333608 0.8878496 0.317165
vn 0.3362837 0.8956354 0.2911193
vn 0.3323148 0.8850635 0.3259285
vn 0.3323148 0.8850635 0.3259285
vn 0.3437564 0.9155412 0.2088439
vn 0.3437564 0.9155412 0.2088439
vn 0.3505195 0.9335591 -0.07485639
vn 0.3505195 0.9335591 -0.07485639
vn 0.3505195 0.9335591 -0.07485639
vn 0.3505195 0.9335591 -0.07485639
vn 0.351413 0.9359694 0.02168409
vn 0.351413 0.9359694 0.02168409
vn 0.351413 0.9359694 0.02168409
vn 0.351413 0.9359694 0.02168409
vn 0.3514434 0.936007 -0.01945183
vn 0.3514434 0.936007 -0.01945183
vn 0.3514434 0.936007 -0.01945183
vn 0.3514434 0.936007 -0.01945183
vn -0.4005407 0.916108 -0.01769912
vn -0.4005406 0.916108 -0.01769912
vn -0.4005407 0.916108 -0.01769912
vn -0.4005406 0.916108 -0.01769912
vn -0.3757009 0.8593178 -0.3470184
vn -0.3757008 0.8593178 -0.3470184
vn -0.3700407 0.8463699 -0.3830506
vn -0.3664774 0.838219 -0.4038357
vn -0.365416 0.8357908 -0.4097863
vn -0.365416 0.8357909 -0.4097863
vn -0.3568562 0.8162103 0.4543725
vn -0.3568562 0.8162103 0.4543725
vn -0.3771073 0.8625283 0.3373944
vn -0.3638839 0.8322839 0.418201
vn -0.3719823 0.8508085 0.3711524
vn -0.3822276 0.87424 0.2993434
vn -0.3718232 0.8504406 0.3721535
vn -0.3683913 0.8425933 0.3928416
vn -0.3727595 0.8525814 0.3662724
vn -0.3727594 0.8525813 0.3662724
vn -0.395589 0.9048044 -0.1576016
vn -0.395589 0.9048044 -0.1576016
vn -0.395589 0.9048044 -0.1576016
vn -0.395589 0.9048044 -0.1576016
vn 0.3304612 0.8801309 -0.3408298
vn 0.3304612 0.8801309 -0.3408298
vn 0.3304612 0.8801309 -0.3408298
vn 0.3304612 0.8801309 -0.3408298
vn 0.3513222 0.9356971 0.03230593
vn 0.3513223 0.9356971 0.03230593
vn 0.3513222 0.9356971 0.03230593
vn 0.3513223 0.9356971 0.03230593
vn 0.3341984 0.8900844 0.3099373
vn 0.3383364 0.9011068 0.2711735
vn 0.332112 0.8845268 0.3275879
vn 0.332112 0.8845268 0.327588
vn 0.3489567 0.9293985 0.1201977
vn 0.3489567 0.9293985 0.1201977
vn -0.3975666 0.9093314 0.1227073
vn -0.3975666 0.9093314 0.1227073
vn -0.3975666 0.9093314 0.1227073
vn -0.3975666 0.9093314 0.1227073
vn -0.3773221 0.8630267 -0.3358765
vn -0.3855161 0.8817645 -0.2717879
vn -0.3712607 0.8491653 -0.3756113
vn -0.3712607 0.8491653 -0.3756113
vn -0.3940906 0.9013712 -0.179506
vn -0.3940906 0.9013712 -0.179506
vn -0.2975033 0.6804813 0.6696545
vn -0.2975033 0.6804813 0.6696545
vn -0.2975033 0.6804813 0.6696545
vn -0.2975033 0.6804813 0.6696545
vn -0.3956163 0.9048662 0.1571783
vn -0.3956163 0.9048662 0.1571783
vn -0.3956163 0.9048662 0.1571783
vn -0.3956163 0.9048662 0.1571783
vn -0.3990682 0.9127437 0.0874275
vn -0.3990682 0.9127437 0.0874275
vn -0.3990682 0.9127437 0.0874275
vn -0.3990682 0.9127437 0.0874275
vn -0.4005899 0.9162523 0.003066812
vn -0.4005899 0.9162523 0.003066812
vn -0.4005899 0.9162523 0.003066812
vn -0.4005899 0.9162523 0.003066812
vn -0.3744728 0.8565044 -0.3552046
vn -0.3744728 0.8565044 -0.3552046
vn -0.3732019 0.8535966 -0.3634464
vn -0.3718387 0.8504775 -0.372054
vn -0.3712309 0.849087 -0.3758176
vn -0.3712309 0.849087 -0.3758176
vn 0.1704395 0.03205463 -0.9848467
vn 0.1704395 0.03205462 -0.9848467
vn 0.1704395 0.03205462 -0.9848467
vn 0.1704395 0.03205463 -0.9848467
vn 0 0 1
vn 0 0 1
vn 0 0 1
vn 0 0 1
vn 0 -1 0
vn 0 -1 0
vn 0 -1 0
vn 0 -1 0
g Part2Land_0
f 3/3/3 2/2/2 1/1/1
f 3/3/3 4/4/4 2/2/2
f 5/5/5 4/4/4 3/3/3
f 6/6/6 4/4/4 5/5/5
f 9/9/9 8/8/8 7/7/7
f 10/10/10 8/8/8 9/9/9
f 10/10/10 11/11/11 8/8/8
f 10/10/10 12/12/12 11/11/11
f 10/10/10 13/13/13 12/12/12
f 10/10/10 15/15/15 14/14/14
f 16/16/16 15/15/15 10/10/10
f 15/15/15 16/16/16 17/17/17
f 17/17/17 16/16/16 18/18/18
f 18/18/18 16/16/16 19/19/19
f 10/10/10 20/20/20 16/16/16
f 20/20/20 21/21/21 16/16/16
f 24/24/24 23/23/23 22/22/22
f 25/25/25 23/23/23 24/24/24
f 25/25/25 24/24/24 26/26/26
f 29/29/29 28/28/28 27/27/27
f 30/30/30 28/28/28 29/29/29
f 30/30/30 31/31/31 28/28/28
f 30/30/30 32/32/32 31/31/31
f 31/31/31 32/32/32 33/33/33
f 30/30/30 35/35/35 34/34/34
f 30/30/30 36/36/36 35/35/35
f 30/30/30 37/37/37 36/36/36
f 40/40/40 39/39/39 38/38/38
f 40/40/40 41/41/41 39/39/39
f 39/39/39 41/41/41 42/42/42
f 45/45/45 44/44/44 43/43/43
f 46/46/46 44/44/44 45/45/45
f 46/46/46 45/45/45 47/47/47
f 46/46/46 48/48/48 44/44/44
f 46/46/46 49/49/49 48/48/48
f 46/46/46 50/50/50 49/49/49
f 53/53/53 52/52/52 51/51/51
f 56/56/56 55/55/55 54/54/54
f 59/59/59 58/58/58 57/57/57
f 62/62/62 61/61/61 60/60/60
f 62/62/62 63/63/63 61/61/61
f 66/66/66 65/65/65 64/64/64
f 69/69/69 68/68/68 67/67/67
f 72/72/72 71/71/71 70/70/70
f 75/75/75 74/74/74 73/73/73
f 76/76/76 74/74/74 75/75/75
f 77/77/77 74/74/74 76/76/76
f 80/80/80 79/79/79 78/78/78
f 80/80/80 81/81/81 79/79/79
f 79/79/79 81/81/81 82/82/82
f 80/80/80 83/83/83 81/81/81
f 81/81/81 83/83/83 84/84/84
f 87/87/87 86/86/86 85/85/85
f 87/87/87 88/88/88 86/86/86
f 91/91/91 90/90/90 89/89/89
f 94/94/94 93/93/93 92/92/92
f 96/96/96 93/93/93 95/95/95
f 97/97/97 93/93/93 96/96/96
f 98/98/98 93/93/93 97/97/97
f 101/101/101 100/100/100 99/99/99
f 104/104/104 103/103/103 102/102/102
f 107/107/107 106/106/106 105/105/105
f 110/110/110 109/109/109 108/108/108
f 108/108/108 111/111/111 110/110/110
f 108/108/108 112/112/112 111/111/111
f 112/112/112 113/113/113 111/111/111
f 113/113/113 114/114/114 111/111/111
f 113/113/113 115/115/115 114/114/114
f 115/115/115 116/116/116 114/114/114
f 115/115/115 117/117/117 116/116/116
f 117/117/117 118/118/118 116/116/116
f 117/117/117 119/119/119 118/118/118
f 117/117/117 120/120/120 119/119/119
f 120/120/120 121/121/121 119/119/119
f 121/121/121 122/122/122 119/119/119
f 121/121/121 123/123/123 122/122/122
f 123/123/123 124/124/124 122/122/122
f 123/123/123 125/125/125 124/124/124
f 125/125/125 126/126/126 124/124/124
f 125/125/125 127/127/127 126/126/126
f 127/127/127 128/128/128 126/126/126
f 127/127/127 129/129/129 128/128/128
f 129/129/129 130/130/130 128/128/128
f 129/129/129 131/131/131 130/130/130
f 129/129/129 132/132/132 131/131/131
f 132/132/132 133/133/133 131/131/131
f 132/132/132 134/134/134 133/133/133
f 134/134/134 135/135/135 133/133/133
f 134/134/134 136/136/136 135/135/135
f 136/136/136 137/137/137 135/135/135
f 136/136/136 138/138/138 137/137/137
f 136/136/136 139/139/139 138/138/138
f 139/139/139 140/140/140 138/138/138
f 140/140/140 141/141/141 138/138/138
f 141/141/141 142/142/142 138/138/138
f 141/141/141 143/143/143 142/142/142
f 143/143/143 144/144/144 142/142/142
f 143/143/143 145/145/145 144/144/144
f 143/143/143 146/146/146 145/145/145
f 146/146/146 147/147/147 145/145/145
f 146/146/146 148/148/148 147/147/147
f 148/148/148 149/149/149 147/147/147
f 149/149/149 150/150/150 147/147/147
f 149/149/149 151/151/151 150/150/150
f 151/151/151 152/152/152 150/150/150
f 151/151/151 153/153/153 152/152/152
f 153/153/153 154/154/154 152/152/152
f 153/153/153 155/155/155 154/154/154
f 155/155/155 156/156/156 154/154/154
f 156/156/156 157/157/157 154/154/154
f 156/156/156 158/158/158 157/157/157
f 156/156/156 159/159/159 158/158/158
f 156/156/156 160/160/160 159/159/159
f 156/156/156 161/161/161 160/160/160
f 161/161/161 162/162/162 160/160/160
f 161/161/161 163/163/163 162/162/162
f 163/163/163 164/164/164 162/162/162
f 163/163/163 165/165/165 164/164/164
f 168/168/168 167/167/167 166/166/166
f 169/169/169 168/168/168 166/166/166
f 172/172/172 171/171/171 170/170/170
f 173/173/173 172/172/172 170/170/170
f 176/176/176 175/175/175 174/174/174
f 177/177/177 176/176/176 174/174/174
f 180/180/180 179/179/179 178/178/178
f 181/181/181 180/180/180 178/178/178
f 184/184/184 183/183/183 182/182/182
f 185/185/185 184/184/184 182/182/182
f 186/186/186 184/184/184 185/185/185
f 187/187/187 186/186/186 185/185/185
f 190/190/190 189/189/189 188/188/188
f 191/191/191 190/190/190 188/188/188
f 188/188/188 189/189/189 192/192/192
f 189/189/189 193/193/193 192/192/192
f 196/196/196 195/195/195 194/194/194
f 197/197/197 196/196/196 194/194/194
f 200/200/200 199/199/199 198/198/198
f 201/201/201 200/200/200 198/198/198
f 204/204/204 203/203/203 202/202/202
f 205/205/205 204/204/204 202/202/202
f 203/203/203 206/206/206 202/202/202
f 206/206/206 207/207/207 202/202/202
f 210/210/210 209/209/209 208/208/208
f 211/211/211 210/210/210 208/208/208
f 214/214/214 213/213/213 212/212/212
f 215/215/215 214/214/214 212/212/212
f 216/216/216 214/214/214 215/215/215
f 217/217/217 216/216/216 215/215/215
f 220/220/220 219/219/219 218/218/218
f 221/221/221 220/220/220 218/218/218
f 224/224/224 223/223/223 222/222/222
f 225/225/225 224/224/224 222/222/222
f 228/228/228 227/227/227 226/226/226
f 229/229/229 228/228/228 226/226/226
f 232/232/232 231/231/231 230/230/230
f 233/233/233 232/232/232 230/230/230
f 233/233/233 234/234/234 232/232/232
f 234/234/234 235/235/235 232/232/232
f 238/238/238 237/237/237 236/236/236
f 239/239/239 238/238/238 236/236/236
f 242/242/242 241/241/241 240/240/240
f 243/243/243 242/242/242 240/240/240
f 246/246/246 245/245/245 244/244/244
f 247/247/247 246/246/246 244/244/244
f 244/244/244 245/245/245 248/248/248
f 245/245/245 249/249/249 248/248/248
f 252/252/252 251/251/251 250/250/250
f 253/253/253 252/252/252 250/250/250
f 256/256/256 255/255/255 254/254/254
f 257/257/257 256/256/256 254/254/254
f 254/254/254 255/255/255 258/258/258
f 255/255/255 259/259/259 258/258/258
f 262/262/262 261/261/261 260/260/260
f 263/263/263 262/262/262 260/260/260
f 266/266/266 265/265/265 264/264/264
f 267/267/267 266/266/266 264/264/264
f 270/270/270 269/269/269 268/268/268
f 271/271/271 270/270/270 268/268/268
f 274/274/274 273/273/273 272/272/272
f 275/275/275 274/274/274 272/272/272
f 278/278/278 277/277/277 276/276/276
f 279/279/279 278/278/278 276/276/276
f 282/282/282 281/281/281 280/280/280
f 283/283/283 282/282/282 280/280/280
f 280/280/280 281/281/281 284/284/284
f 281/281/281 285/285/285 284/284/284
f 288/288/288 287/287/287 286/286/286
f 289/289/289 288/288/288 286/286/286
f 292/292/292 291/291/291 290/290/290
f 293/293/293 292/292/292 290/290/290
f 296/296/296 295/295/295 294/294/294
f 297/297/297 296/296/296 294/294/294
f 294/294/294 295/295/295 298/298/298
f 295/295/295 299/299/299 298/298/298
f 302/302/302 301/301/301 300/300/300
f 303/303/303 302/302/302 300/300/300
f 306/306/306 305/305/305 304/304/304
f 307/307/307 306/306/306 304/304/304
f 310/310/310 309/309/309 308/308/308
f 311/311/311 310/310/310 308/308/308
f 314/314/314 313/313/313 312/312/312
f 315/315/315 314/314/314 312/312/312
f 318/318/318 317/317/317 316/316/316
f 319/319/319 318/318/318 316/316/316
f 320/320/320 318/318/318 319/319/319
f 321/321/321 320/320/320 319/319/319
f 324/324/324 323/323/323 322/322/322
f 325/325/325 324/324/324 322/322/322
f 326/326/326 324/324/324 325/325/325
f 327/327/327 326/326/326 325/325/325
f 328/328/328 326/326/326 327/327/327
f 329/329/329 328/328/328 327/327/327
f 330/330/330 328/328/328 329/329/329
f 331/331/331 330/330/330 329/329/329
f 334/334/334 333/333/333 332/332/332
f 335/335/335 334/334/334 332/332/332
f 338/338/338 337/337/337 336/336/336
f 339/339/339 338/338/338 336/336/336
f 342/342/342 341/341/341 340/340/340
f 343/343/343 342/342/342 340/340/340
f 346/346/346 345/345/345 344/344/344
f 347/347/347 346/346/346 344/344/344
f 344/344/344 345/345/345 348/348/348
f 345/345/345 349/349/349 348/348/348
f 352/352/352 351/351/351 350/350/350
f 353/353/353 352/352/352 350/350/350
f 356/356/356 355/355/355 354/354/354
f 357/357/357 356/356/356 354/354/354
f 354/354/354 355/355/355 358/358/358
f 355/355/355 359/359/359 358/358/358
f 362/362/362 361/361/361 360/360/360
f 363/363/363 362/362/362 360/360/360
f 366/366/366 365/365/365 364/364/364
f 367/367/367 366/366/366 364/364/364
f 370/370/370 369/369/369 368/368/368
f 371/371/371 370/370/370 368/368/368
f 374/374/374 373/373/373 372/372/372
f 375/375/375 374/374/374 372/372/372
f 378/378/378 377/377/377 376/376/376
f 379/379/379 378/378/378 376/376/376
f 380/380/380 378/378/378 379/379/379
f 381/381/381 380/380/380 379/379/379
f 384/384/384 383/383/383 382/382/382
f 385/385/385 384/384/384 382/382/382
f 388/388/388 387/387/387 386/386/386
f 389/389/389 388/388/388 386/386/386
f 392/392/392 391/391/391 390/390/390
f 393/393/393 392/392/392 390/390/390
