g Phone
v -0.5457083 0.06910813 -0.9999999
v -0.5092697 0.06910813 -0.8702677
v -0.5955137 0.06910813 -0.9501944
v 0.5457083 0.06910813 -0.9999999
v 0.5092698 0.06910813 -0.8702677
v 0.5955138 0.06910813 -0.9501944
v -0.5092697 0.06910813 0.7416036
v -0.5955137 0.06910813 0.9501945
v -0.5457083 0.06910813 0.9999999
v 0.5955138 0.06910813 0.9501945
v 0.5092698 0.06910813 0.7416036
v 0.5457083 0.06910813 0.9999999
v 0.5955138 1.525879E-05 -0.9501944
v 0.5457083 1.525879E-05 -0.9999999
v -0.5457083 1.525879E-05 -0.9999999
v -0.5955137 1.525879E-05 -0.9501944
v 0.5955138 1.525879E-05 0.9501945
v -0.5955137 1.525879E-05 0.9501945
v 0.5457083 1.525879E-05 0.9999999
v -0.5457083 1.525879E-05 0.9999999
v -0.5955137 1.525879E-05 -0.9501944
v -0.5955137 0.06910813 -0.9501944
v -0.5955137 0.06910813 0.9501945
v -0.5955137 1.525879E-05 0.9501945
v -0.5457083 1.525879E-05 -0.9999999
v -0.5457083 0.06910813 -0.9999999
v -0.5955137 0.06910813 -0.9501944
v -0.5955137 1.525879E-05 -0.9501944
v 0.5955138 1.525879E-05 -0.9501944
v 0.5955138 0.06910813 -0.9501944
v 0.5457083 0.06910813 -0.9999999
v 0.5457083 1.525879E-05 -0.9999999
v 0.5457083 1.525879E-05 0.9999999
v 0.5457083 0.06910813 0.9999999
v 0.5955138 0.06910813 0.9501945
v 0.5955138 1.525879E-05 0.9501945
v -0.5955137 1.525879E-05 0.9501945
v -0.5955137 0.06910813 0.9501945
v -0.5457083 0.06910813 0.9999999
v -0.5457083 1.525879E-05 0.9999999
v 0.5457083 1.525879E-05 -0.9999999
v 0.5457083 0.06910813 -0.9999999
v -0.5457083 0.06910813 -0.9999999
v -0.5457083 1.525879E-05 -0.9999999
v 0.5955138 1.525879E-05 0.9501945
v 0.5955138 0.06910813 0.9501945
v 0.5955138 0.06910813 -0.9501944
v 0.5955138 1.525879E-05 -0.9501944
v -0.5457083 1.525879E-05 0.9999999
v -0.5457083 0.06910813 0.9999999
v 0.5457083 0.06910813 0.9999999
v 0.5457083 1.525879E-05 0.9999999
v -0.5092697 0.06910813 0.7416036
v -0.5092697 0.06910813 -0.8702677
v 0.5092698 0.06910813 -0.8702677
v 0.5092698 0.06910813 0.7416036
v -0.09364462 0.07011521 -0.9274585
v -0.09364462 0.07011521 -0.9441824
v 0.09364462 0.07011521 -0.9441824
v 0.09364462 0.07011521 -0.9274585
v -0.04905772 0.07011521 0.7864957
v 1.525879E-05 0.07011521 0.8714885
v -0.08500803 0.07011521 0.8224154
v -0.09813082 0.07011521 0.8714885
v -0.08500803 0.07011521 0.9205614
v -0.04905772 0.07011521 0.9564811
v -1.525879E-05 0.07011521 0.9696344
v 0.04905778 0.07011521 0.9564811
v 0.08500803 0.07011521 0.9205614
v 0.09813076 0.07011521 0.8714885
v 0.08500803 0.07011521 0.8224154
v 0.04905778 0.07011521 0.7864957
v 1.525879E-05 0.07011521 0.7733424
vt 0.1577275 0.03972533
vt 0.1577275 0.03972533
vt 0.1577275 0.03972533
vt 0.1577275 0.03972533
vt 0.1577275 0.03972533
vt 0.1577275 0.03972533
vt 0.1577275 0.03972533
vt 0.1577275 0.03972533
vt 0.1577275 0.03972533
vt 0.1577275 0.03972533
vt 0.1577275 0.03972533
vt 0.1577275 0.03972533
vt 0.1577275 0.03972533
vt 0.1577275 0.03972533
vt 0.1577275 0.03972533
vt 0.1577275 0.03972533
vt 0.1577275 0.03972533
vt 0.1577275 0.03972533
vt 0.1577275 0.03972533
vt 0.1577275 0.03972533
vt 0.1577275 0.03972533
vt 0.1577275 0.03972533
vt 0.1577275 0.03972533
vt 0.1577275 0.03972533
vt 0.1577275 0.03972533
vt 0.1577275 0.03972533
vt 0.1577275 0.03972533
vt 0.1577275 0.03972533
vt 0.1577275 0.03972533
vt 0.1577275 0.03972533
vt 0.1577275 0.03972533
vt 0.1577275 0.03972533
vt 0.1577275 0.03972533
vt 0.1577275 0.03972533
vt 0.1577275 0.03972533
vt 0.1577275 0.03972533
vt 0.1577275 0.03972533
vt 0.1577275 0.03972533
vt 0.1577275 0.03972533
vt 0.1577275 0.03972533
vt 0.1577275 0.03972533
vt 0.1577275 0.03972533
vt 0.1577275 0.03972533
vt 0.1577275 0.03972533
vt 0.1577275 0.03972533
vt 0.1577275 0.03972533
vt 0.1577275 0.03972533
vt 0.1577275 0.03972533
vt 0.1577275 0.03972533
vt 0.1577275 0.03972533
vt 0.1577275 0.03972533
vt 0.1577275 0.03972533
vt 0.8592743 0.03245123
vt 0.8592743 0.03245123
vt 0.8592743 0.03245123
vt 0.8592743 0.03245123
vt 0.8592743 0.03245123
vt 0.8592743 0.03245123
vt 0.8592743 0.03245123
vt 0.8592743 0.03245123
vt 0.2377426 0.0413418
vt 0.1730839 0.04295827
vt 0.2377426 0.0413418
vt 0.2377426 0.0413418
vt 0.2377426 0.0413418
vt 0.2377426 0.0413418
vt 0.2377426 0.0413418
vt 0.2377426 0.0413418
vt 0.2377426 0.0413418
vt 0.2377426 0.0413418
vt 0.2377426 0.0413418
vt 0.2377426 0.0413418
vt 0.2377426 0.0413418
vn -0.003921628 0.9999924 0
vn -0.003921628 0.9999924 0
vn -0.003921628 0.9999924 0
vn -0.003921628 0.9999924 0
vn -0.003921628 0.9999924 0
vn -0.003921628 0.9999924 0
vn -0.003921628 0.9999924 0
vn -0.003921628 0.9999924 0
vn -0.003921628 0.9999924 0
vn -0.003921628 0.9999924 0
vn -0.003921628 0.9999924 0
vn -0.003921628 0.9999924 0
vn -0.003921628 -0.9999924 0
vn -0.003921628 -0.9999924 0
vn -0.003921628 -0.9999924 0
vn -0.003921628 -0.9999924 0
vn -0.003921628 -0.9999924 0
vn -0.003921628 -0.9999924 0
vn -0.003921628 -0.9999924 0
vn -0.003921628 -0.9999924 0
vn -0.9999924 0.003921628 0
vn -0.9999924 0.003921628 0
vn -0.9999924 0.003921628 0
vn -0.9999924 0.003921628 0
vn -0.7097986 0.003921628 -0.7043937
vn -0.7097986 0.003921628 -0.7043937
vn -0.7097986 0.003921628 -0.7043937
vn -0.7097986 0.003921628 -0.7043937
vn 0.7097985 0.003921628 -0.7043939
vn 0.7097985 0.003921628 -0.7043939
vn 0.7097985 0.003921628 -0.7043939
vn 0.7097985 0.003921628 -0.7043939
vn 0.7097985 0.003921628 0.7043939
vn 0.7097985 0.003921628 0.7043939
vn 0.7097985 0.003921628 0.7043939
vn 0.7097985 0.003921628 0.7043939
vn -0.7097986 0.003921628 0.7043937
vn -0.7097986 0.003921628 0.7043937
vn -0.7097986 0.003921628 0.7043937
vn -0.7097986 0.003921628 0.7043937
vn -0.003921628 0.003921628 -0.9999846
vn -0.003921628 0.003921628 -0.9999846
vn -0.003921628 0.003921628 -0.9999846
vn -0.003921628 0.003921628 -0.9999846
vn 0.9999924 0.003921628 0
vn 0.9999924 0.003921628 0
vn 0.9999924 0.003921628 0
vn 0.9999924 0.003921628 0
vn -0.003921628 0.003921628 0.9999846
vn -0.003921628 0.003921628 0.9999846
vn -0.003921628 0.003921628 0.9999846
vn -0.003921628 0.003921628 0.9999846
vn -0.003921628 0.9999924 0
vn -0.003921628 0.9999924 0
vn -0.003921628 0.9999924 0
vn -0.003921628 0.9999924 0
vn -0.003921628 0.9999924 0
vn -0.003921628 0.9999924 0
vn -0.003921628 0.9999924 0
vn -0.003921628 0.9999924 0
vn -0.003921628 0.9999924 0
vn -0.003921628 0.9999924 0
vn -0.003921628 0.9999924 0
vn -0.003921628 0.9999924 0
vn -0.003921628 0.9999924 0
vn -0.003921628 0.9999924 0
vn -0.003921628 0.9999924 0
vn -0.003921628 0.9999924 0
vn -0.003921628 0.9999924 0
vn -0.003921628 0.9999924 0
vn -0.003921628 0.9999924 0
vn -0.003921628 0.9999924 0
vn -0.003921628 0.9999924 0
g Phone_0
f 3/3/3 2/2/2 1/1/1
f 1/1/1 2/2/2 4/4/4
f 2/2/2 5/5/5 4/4/4
f 4/4/4 5/5/5 6/6/6
f 7/7/7 2/2/2 3/3/3
f 8/8/8 7/7/7 3/3/3
f 9/9/9 7/7/7 8/8/8
f 6/6/6 5/5/5 10/10/10
f 5/5/5 11/11/11 10/10/10
f 11/11/11 7/7/7 9/9/9
f 10/10/10 11/11/11 12/12/12
f 12/12/12 11/11/11 9/9/9
f 15/15/15 14/14/14 13/13/13
f 13/13/13 16/16/16 15/15/15
f 13/13/13 17/17/17 16/16/16
f 17/17/17 18/18/18 16/16/16
f 17/17/17 19/19/19 18/18/18
f 19/19/19 20/20/20 18/18/18
f 23/23/23 22/22/22 21/21/21
f 24/24/24 23/23/23 21/21/21
f 27/27/27 26/26/26 25/25/25
f 28/28/28 27/27/27 25/25/25
f 31/31/31 30/30/30 29/29/29
f 32/32/32 31/31/31 29/29/29
f 35/35/35 34/34/34 33/33/33
f 36/36/36 35/35/35 33/33/33
f 39/39/39 38/38/38 37/37/37
f 40/40/40 39/39/39 37/37/37
f 43/43/43 42/42/42 41/41/41
f 44/44/44 43/43/43 41/41/41
f 47/47/47 46/46/46 45/45/45
f 48/48/48 47/47/47 45/45/45
f 51/51/51 50/50/50 49/49/49
f 52/52/52 51/51/51 49/49/49
f 55/55/55 54/54/54 53/53/53
f 56/56/56 55/55/55 53/53/53
f 59/59/59 58/58/58 57/57/57
f 60/60/60 59/59/59 57/57/57
f 63/63/63 62/62/62 61/61/61
f 64/64/64 62/62/62 63/63/63
f 65/65/65 62/62/62 64/64/64
f 66/66/66 62/62/62 65/65/65
f 67/67/67 62/62/62 66/66/66
f 68/68/68 62/62/62 67/67/67
f 69/69/69 62/62/62 68/68/68
f 70/70/70 62/62/62 69/69/69
f 71/71/71 62/62/62 70/70/70
f 72/72/72 62/62/62 71/71/71
f 73/73/73 62/62/62 72/72/72
f 61/61/61 62/62/62 73/73/73
