# Exported from Unity
# 10/3/2025 10:17:14 AM
mtllib piwonia (1).mtl
v 6.396849 0.8016608 78.59195
v 6.518385 0.9410335 78.4311
v 6.668761 0.7528483 78.48475
v 6.668761 0.7528483 78.48475
v 6.371238 0.4847503 78.26173
v 6.396849 0.8016608 78.59195
v 6.018239 0.7919577 78.26287
v 6.184628 0.9763817 78.29688
v 6.176178 0.851431 78.50645
v 6.176178 0.851431 78.50645
v 6.378465 0.5088947 78.27866
v 6.018239 0.7919577 78.26287
v 6.403264 0.6759459 77.84632
v 6.322573 0.8843161 77.96024
v 6.13135 0.7247587 77.95352
v 6.13135 0.7247587 77.95352
v 6.371238 0.4847503 78.26173
v 6.403264 0.6759459 77.84632
v 6.775788 0.6978824 78.22927
v 6.65589 0.8704156 78.10287
v 6.662701 0.665126 77.95734
v 6.662701 0.665126 77.95734
v 6.371238 0.4847503 78.26173
v 6.775788 0.6978824 78.22927
v 6.396878 0.8013341 78.59218
v 6.668793 0.7525213 78.48498
v 6.518373 0.940864 78.43114
v 6.396878 0.8013341 78.59218
v 6.371195 0.4843583 78.26179
v 6.668793 0.7525213 78.48498
v 6.018033 0.7916427 78.26301
v 6.175972 0.8511144 78.50659
v 6.184574 0.9762079 78.29688
v 6.018033 0.7916427 78.26301
v 6.378416 0.5085011 78.27872
v 6.175972 0.8511144 78.50659
v 6.403154 0.6755781 77.84621
v 6.13124 0.7243921 77.95341
v 6.322546 0.8841434 77.96025
v 6.403154 0.6755781 77.84621
v 6.371195 0.4843583 78.26179
v 6.13124 0.7243921 77.95341
v 6.775919 0.6975039 78.22926
v 6.662831 0.6647491 77.95733
v 6.655887 0.8702411 78.10289
v 6.775919 0.6975039 78.22926
v 6.371195 0.4843583 78.26179
v 6.662831 0.6647491 77.95733
v 6.643703 0.6993999 78.03109
v 6.479616 0.7860227 77.94608
v 6.471088 0.5927258 77.90063
v 6.471088 0.5927258 77.90063
v 6.402698 0.5334085 78.26266
v 6.643703 0.6993999 78.03109
v 6.643799 0.6991037 78.03101
v 6.471184 0.5924279 77.90055
v 6.479593 0.7858856 77.94602
v 6.643799 0.6991037 78.03101
v 6.402696 0.5331174 78.2627
v 6.471184 0.5924279 77.90055
v 6.437187 0.8908356 78.36835
v 6.585017 0.8994974 78.2279
v 6.652603 0.7823756 78.37356
v 6.652603 0.7823756 78.37356
v 6.39566 0.5350535 78.26367
v 6.437187 0.8908356 78.36835
v 6.437244 0.8907232 78.36864
v 6.65266 0.7822616 78.37386
v 6.585095 0.8994168 78.228
v 6.437244 0.8907232 78.36864
v 6.395665 0.5348328 78.26386
v 6.65266 0.7822616 78.37386
v 6.187059 0.7391571 78.21217
v 6.29899 0.8517695 78.22599
v 6.280873 0.7902547 78.36733
v 6.280873 0.7902547 78.36733
v 6.402698 0.5487766 78.25883
v 6.187059 0.7391571 78.21217
v 6.186951 0.7390299 78.21236
v 6.280765 0.7901265 78.36752
v 6.298988 0.8517152 78.2261
v 6.186951 0.7390299 78.21236
v 6.402689 0.5485874 78.25899
v 6.280765 0.7901265 78.36752
v 6.076958 0.7087136 77.98841
v 6.167634 0.9244896 78.07825
v 6.058077 0.812322 78.2654
v 6.058077 0.812322 78.2654
v 6.397935 0.5053799 78.24486
v 6.076958 0.7087136 77.98841
v 6.076692 0.7085011 77.98861
v 6.057812 0.8121082 78.26559
v 6.167548 0.9244388 78.07841
v 6.076692 0.7085011 77.98861
v 6.397854 0.5051177 78.24509
v 6.057812 0.8121082 78.26559
v 6.242588 0.7519063 77.99975
v 6.278852 0.9050299 78.12971
v 6.136423 0.793689 78.2123
v 6.136423 0.793689 78.2123
v 6.398396 0.5318294 78.25772
v 6.242588 0.7519063 77.99975
v 6.242324 0.7517219 77.99977
v 6.136159 0.7935033 78.21233
v 6.278738 0.9049707 78.12979
v 6.242324 0.7517219 77.99977
v 6.39826 0.5315895 78.25783
v 6.136159 0.7935033 78.21233
v 6.484527 0.8410617 78.23667
v 6.472215 0.8318813 78.07803
v 6.597914 0.7496809 78.11716
v 6.597914 0.7496809 78.11716
v 6.413958 0.5583207 78.23743
v 6.484527 0.8410617 78.23667
v 6.484739 0.8409948 78.23679
v 6.598126 0.7496131 78.11729
v 6.472317 0.8318236 78.07804
v 6.484739 0.8409948 78.23679
v 6.414085 0.558164 78.23754
v 6.598126 0.7496131 78.11729
v 6.405091 0.6623163 78.03909
v 6.316104 0.7182968 78.05289
v 6.289779 0.6188634 78.06194
v 6.289779 0.6188634 78.06194
v 6.390575 0.6192108 78.22756
v 6.405091 0.6623163 78.03909
v 6.40508 0.6621566 78.03904
v 6.289768 0.6187031 78.06189
v 6.316064 0.7182318 78.05287
v 6.40508 0.6621566 78.03904
v 6.390573 0.6190721 78.22758
v 6.289768 0.6187031 78.06189
vt 0.7387546 0.8633158
vt 0.7290789 0.8443152
vt 0.719249 0.8633158
vt 0.69002 0.7421522
vt 0.6600261 0.7422876
vt 0.6837322 0.7693731
vt 0.7139528 0.7756672
vt 0.7131277 0.7973308
vt 0.7285251 0.7941162
vt 0.6840381 0.8794387
vt 0.6597397 0.9011741
vt 0.6839976 0.9059782
vt 0.7568396 0.7428192
vt 0.7418374 0.7421522
vt 0.743602 0.7639419
vt 0.7188678 0.8091876
vt 0.6926425 0.8238526
vt 0.7188678 0.837939
vt 0.7227948 0.7421522
vt 0.7221533 0.7641352
vt 0.7375143 0.7610188
vt 0.6597397 0.8379431
vt 0.6883194 0.8236542
vt 0.6597809 0.8091876
vt 0.6926034 0.8915236
vt 0.7121092 0.8915236
vt 0.7022792 0.8724998
vt 0.6882804 0.8443152
vt 0.6597397 0.8579649
vt 0.6879417 0.8730666
vt 0.7570488 0.8443152
vt 0.7419969 0.8619079
vt 0.7573059 0.8660218
vt 0.6844524 0.7756672
vt 0.6599679 0.7763048
vt 0.6824124 0.8020357
vt 0.6406042 0.9302049
vt 0.627872 0.9519923
vt 0.6427714 0.9521139
vt 0.6541061 0.842722
vt 0.627872 0.8568081
vt 0.6541061 0.8714734
vt 0.6430821 0.9034089
vt 0.627872 0.9214107
vt 0.643146 0.9254259
vt 0.6567839 0.7421522
vt 0.627872 0.754963
vt 0.6560625 0.7708881
vt 0.7314094 0.8963027
vt 0.7312466 0.9111257
vt 0.7438388 0.9073881
vt 0.7178302 0.7421522
vt 0.6932623 0.7422343
vt 0.7127312 0.7643221
vt 0.7629647 0.8724998
vt 0.7521842 0.886854
vt 0.7650375 0.8870139
vt 0.6929003 0.8677206
vt 0.7160067 0.855377
vt 0.6926034 0.8443152
vt 0.7361172 0.886175
vt 0.7488879 0.8908609
vt 0.748942 0.8724998
vt 0.6789193 0.9123502
vt 0.6597397 0.9325082
vt 0.6797893 0.9331669
vt 0.7647209 0.7900733
vt 0.7522697 0.7756672
vt 0.7518283 0.7940294
vt 0.6887754 0.7965172
vt 0.7088047 0.7947563
vt 0.6891173 0.7756672
vt 0.6464238 0.9034089
vt 0.6463882 0.9167163
vt 0.6558363 0.9150702
vt 0.7156404 0.9134144
vt 0.7280043 0.8964346
vt 0.7140208 0.8963027
vt 0.7622301 0.7553729
vt 0.7706822 0.7422099
vt 0.7611627 0.7421522
vt 0.6926034 0.936474
vt 0.7065945 0.9363447
vt 0.694223 0.9193622
vt 0.7328481 0.7873193
vt 0.748586 0.7944128
vt 0.7484879 0.7756672
vt 0.6284897 0.8044085
vt 0.6567256 0.7887049
vt 0.627872 0.7756672
vt 0.7153515 0.8891618
vt 0.732875 0.8893821
vt 0.7273281 0.8724998
vt 0.6563874 0.8091876
vt 0.627872 0.8238026
vt 0.6564974 0.8379429
vt 0.6597397 0.9540095
vt 0.6729141 0.9542773
vt 0.6709144 0.939539
vt 0.74435 0.8091876
vt 0.7231908 0.8274371
vt 0.7465873 0.8280962
vt 0.7269301 0.9292829
vt 0.7140985 0.9181935
vt 0.7140208 0.9332384
vt 0.6281045 0.8970368
vt 0.6510019 0.8898631
vt 0.627872 0.8778456
vt 0.7635983 0.8443152
vt 0.7605482 0.8591132
vt 0.7707656 0.8592337
vt 0.7546734 0.8266062
vt 0.7700913 0.8097768
vt 0.7509103 0.8091876
vt 0.7264227 0.9380828
vt 0.7140208 0.9380174
vt 0.7199628 0.9502846
vt 0.7107785 0.8963027
vt 0.6926034 0.9053897
vt 0.7107539 0.9145831
vt 0.6470944 0.9353817
vt 0.653769 0.9382365
vt 0.6537356 0.9302049
vt 0.6926034 0.9527849
vt 0.705367 0.9526747
vt 0.6952245 0.9412531
vt 0.7578644 0.8389772
vt 0.7523952 0.8313853
vt 0.7509103 0.8391182
vt 0.6889248 0.939539
vt 0.6761564 0.9395458
vt 0.6862618 0.95105
vn -0.3918287 -0.5279232 -0.7535034
vn -0.3918287 -0.5279232 -0.7535034
vn -0.3918287 -0.5279232 -0.7535034
vn -0.1388812 0.7198706 -0.6800722
vn -0.1388812 0.7198706 -0.6800722
vn -0.1388812 0.7198706 -0.6800722
vn 0.7307543 -0.5988948 -0.3276022
vn 0.7307543 -0.5988948 -0.3276022
vn 0.7307543 -0.5988948 -0.3276022
vn 0.5436597 0.6631637 -0.5144396
vn 0.5436598 0.6631637 -0.5144396
vn 0.5436597 0.6631636 -0.5144396
vn 0.281198 -0.3742246 0.8836762
vn 0.281198 -0.3742246 0.8836762
vn 0.281198 -0.3742246 0.8836762
vn 0.3171754 0.8519716 0.4165864
vn 0.3171754 0.8519715 0.4165865
vn 0.3171754 0.8519715 0.4165865
vn -0.8640844 -0.3098633 0.3966646
vn -0.8640844 -0.3098633 0.3966646
vn -0.8640844 -0.3098633 0.3966646
vn -0.4591353 0.884347 0.08441128
vn -0.4591352 0.884347 0.08441132
vn -0.4591352 0.884347 0.08441132
vn 0.3918036 0.5282329 0.7532994
vn 0.3918036 0.5282329 0.7532994
vn 0.3918036 0.5282329 0.7532994
vn 0.1388167 -0.7199873 0.6799618
vn 0.1388167 -0.7199873 0.6799618
vn 0.1388167 -0.7199873 0.6799618
vn -0.730604 0.5991658 0.327442
vn -0.730604 0.5991658 0.3274419
vn -0.730604 0.5991658 0.327442
vn -0.5435483 -0.6632916 0.5143923
vn -0.5435483 -0.6632916 0.5143923
vn -0.5435483 -0.6632916 0.5143923
vn -0.2811163 0.3745008 -0.8835852
vn -0.2811163 0.3745008 -0.8835852
vn -0.2811163 0.3745008 -0.8835852
vn -0.3171404 -0.8520547 -0.4164428
vn -0.3171404 -0.8520547 -0.4164429
vn -0.3171404 -0.8520547 -0.4164429
vn 0.8639783 0.310172 -0.3966547
vn 0.8639783 0.310172 -0.3966547
vn 0.8639783 0.310172 -0.3966547
vn 0.4589979 -0.8844241 -0.08435011
vn 0.4589979 -0.8844241 -0.08435006
vn 0.4589979 -0.8844241 -0.08435006
vn -0.5235513 -0.1730593 0.8342329
vn -0.5235513 -0.1730592 0.8342329
vn -0.5235513 -0.1730592 0.834233
vn -0.544157 0.8382717 0.03455102
vn -0.544157 0.8382717 0.03455107
vn -0.544157 0.8382717 0.03455104
vn 0.5233876 0.1733649 -0.8342722
vn 0.5233876 0.1733649 -0.8342722
vn 0.5233876 0.1733649 -0.8342722
vn 0.5440837 -0.8383255 -0.03440046
vn 0.5440837 -0.8383254 -0.03440047
vn 0.5440836 -0.8383255 -0.03440048
vn -0.3903828 -0.7974527 -0.4600764
vn -0.3903828 -0.7974527 -0.4600764
vn -0.3903828 -0.7974527 -0.4600765
vn 0.1550273 0.2621497 -0.9524936
vn 0.1550273 0.2621497 -0.9524936
vn 0.1550273 0.2621497 -0.9524936
vn 0.3904634 0.7975919 0.4597667
vn 0.3904634 0.7975919 0.4597667
vn 0.3904634 0.7975919 0.4597667
vn -0.155106 -0.2622979 0.95244
vn -0.155106 -0.262298 0.95244
vn -0.155106 -0.262298 0.95244
vn 0.706723 -0.6773723 -0.2042285
vn 0.706723 -0.6773723 -0.2042285
vn 0.706723 -0.6773723 -0.2042285
vn 0.614519 0.5597761 -0.5558932
vn 0.614519 0.5597761 -0.5558932
vn 0.614519 0.5597761 -0.5558932
vn -0.7065468 0.6776109 0.2040467
vn -0.7065468 0.6776109 0.2040467
vn -0.7065468 0.6776109 0.2040466
vn -0.6144135 -0.5599151 0.5558697
vn -0.6144136 -0.5599151 0.5558697
vn -0.6144135 -0.5599151 0.5558697
vn 0.8595125 -0.4567272 0.2294309
vn 0.8595125 -0.4567272 0.2294309
vn 0.8595126 -0.4567271 0.2294309
vn 0.6448187 0.729275 -0.228838
vn 0.6448187 0.729275 -0.228838
vn 0.6448187 0.729275 -0.2288379
vn -0.8593359 0.4570132 -0.2295229
vn -0.8593359 0.4570132 -0.229523
vn -0.8593359 0.4570132 -0.2295229
vn -0.6446841 -0.7293802 0.2288816
vn -0.6446841 -0.7293802 0.2288815
vn -0.6446841 -0.7293802 0.2288816
vn 0.6969733 -0.552789 0.4567851
vn 0.6969733 -0.552789 0.4567851
vn 0.6969733 -0.552789 0.456785
vn 0.6756089 0.7102206 0.1978363
vn 0.6756089 0.7102206 0.1978362
vn 0.6756089 0.7102207 0.1978362
vn -0.6967766 0.5530741 -0.4567399
vn -0.6967766 0.5530741 -0.4567399
vn -0.6967766 0.5530741 -0.4567399
vn -0.6755027 -0.7103416 -0.1977648
vn -0.6755027 -0.7103416 -0.1977648
vn -0.6755027 -0.7103416 -0.1977648
vn -0.5647776 -0.8201773 0.09129954
vn -0.5647776 -0.8201773 0.0912995
vn -0.5647776 -0.8201773 0.09129954
vn -0.6517361 0.1606526 -0.741236
vn -0.6517361 0.1606526 -0.741236
vn -0.6517361 0.1606526 -0.741236
vn 0.564582 0.8202819 -0.09156848
vn 0.564582 0.8202819 -0.09156854
vn 0.564582 0.8202819 -0.09156851
vn 0.6516523 -0.160802 0.7412773
vn 0.6516524 -0.1608019 0.7412772
vn 0.6516523 -0.160802 0.7412773
vn 0.1789255 0.04210361 0.9829613
vn 0.1789255 0.04210366 0.9829613
vn 0.1789255 0.04210361 0.9829613
vn -0.3133141 0.9307055 0.188737
vn -0.3133141 0.9307055 0.188737
vn -0.3133141 0.9307055 0.188737
vn -0.1790503 -0.04177785 -0.9829525
vn -0.1790503 -0.04177791 -0.9829525
vn -0.1790503 -0.04177791 -0.9829525
vn 0.3133602 -0.9307241 -0.1885681
vn 0.3133602 -0.9307241 -0.1885681
vn 0.3133602 -0.9307241 -0.1885681
f 1/1/1 2/2/2 3/3/3
f 4/4/4 5/5/5 6/6/6
f 7/7/7 8/8/8 9/9/9
f 10/10/10 11/11/11 12/12/12
f 13/13/13 14/14/14 15/15/15
f 16/16/16 17/17/17 18/18/18
f 19/19/19 20/20/20 21/21/21
f 22/22/22 23/23/23 24/24/24
f 25/25/25 26/26/26 27/27/27
f 28/28/28 29/29/29 30/30/30
f 31/31/31 32/32/32 33/33/33
f 34/34/34 35/35/35 36/36/36
f 37/37/37 38/38/38 39/39/39
f 40/40/40 41/41/41 42/42/42
f 43/43/43 44/44/44 45/45/45
f 46/46/46 47/47/47 48/48/48
f 49/49/49 50/50/50 51/51/51
f 52/52/52 53/53/53 54/54/54
f 55/55/55 56/56/56 57/57/57
f 58/58/58 59/59/59 60/60/60
f 61/61/61 62/62/62 63/63/63
f 64/64/64 65/65/65 66/66/66
f 67/67/67 68/68/68 69/69/69
f 70/70/70 71/71/71 72/72/72
f 73/73/73 74/74/74 75/75/75
f 76/76/76 77/77/77 78/78/78
f 79/79/79 80/80/80 81/81/81
f 82/82/82 83/83/83 84/84/84
f 85/85/85 86/86/86 87/87/87
f 88/88/88 89/89/89 90/90/90
f 91/91/91 92/92/92 93/93/93
f 94/94/94 95/95/95 96/96/96
f 97/97/97 98/98/98 99/99/99
f 100/100/100 101/101/101 102/102/102
f 103/103/103 104/104/104 105/105/105
f 106/106/106 107/107/107 108/108/108
f 109/109/109 110/110/110 111/111/111
f 112/112/112 113/113/113 114/114/114
f 115/115/115 116/116/116 117/117/117
f 118/118/118 119/119/119 120/120/120
f 121/121/121 122/122/122 123/123/123
f 124/124/124 125/125/125 126/126/126
f 127/127/127 128/128/128 129/129/129
f 130/130/130 131/131/131 132/132/132
