g Plane001
v -0.7629706 -1.122699 -8.821487E-06
v -0.9968644 -0.70127 -8.821487E-06
v 8.821487E-06 -0.8563122 -8.821487E-06
v -0.4129237 -1.533857 -8.821487E-06
v 8.821487E-06 -1.696463 -8.821487E-06
v 0.4128944 -1.533857 -8.821487E-06
v 0.996882 -0.70127 -8.821487E-06
v 0.7629414 -1.122699 -8.821487E-06
v 0.01863611 -0.3058447 0.04410899
v -1.06862 -0.2297008 -8.821487E-06
v 1.068731 -0.2297008 -8.821487E-06
v -0.02226019 0.1765555 0.04410899
v -0.9968644 0.1606358 -8.821487E-06
v 0.996882 0.1606358 -8.821487E-06
v 0.08637667 0.2248281 0.04410899
v -0.4129237 0.6664253 -8.821487E-06
v -0.7629706 0.4477509 -8.821487E-06
v -0.1216066 0.7498053 0.04410899
v 0.7629414 0.4477509 -8.821487E-06
v 0.4690102 0.6664718 -8.821487E-06
v 0.1776934 0.7498053 0.04410899
v -0.7629706 -1.122699 -8.821487E-06
v -0.7629706 -1.122699 0.04410899
v -0.9968644 -0.70127 0.04410899
v -0.9968644 -0.70127 -8.821487E-06
v -0.4129237 -1.533857 -8.821487E-06
v -0.4129237 -1.533857 0.04410899
v -0.7629706 -1.122699 0.04410899
v -0.7629706 -1.122699 -8.821487E-06
v 8.821487E-06 -1.696463 -8.821487E-06
v 8.821487E-06 -1.696463 0.04410899
v -0.4129237 -1.533857 0.04410899
v -0.4129237 -1.533857 -8.821487E-06
v 0.4128944 -1.533857 -8.821487E-06
v 0.4128944 -1.533857 0.04410899
v 8.821487E-06 -1.696463 0.04410899
v 8.821487E-06 -1.696463 -8.821487E-06
v 0.996882 -0.70127 -8.821487E-06
v 0.996882 -0.70127 0.04410899
v 0.7629414 -1.122699 0.04410899
v 0.7629414 -1.122699 -8.821487E-06
v 0.7629414 -1.122699 -8.821487E-06
v 0.7629414 -1.122699 0.04410899
v 0.4128944 -1.533857 0.04410899
v 0.4128944 -1.533857 -8.821487E-06
v -0.9968644 -0.70127 -8.821487E-06
v -0.9968644 -0.70127 0.04410899
v -1.06862 -0.2297008 0.04410899
v -1.06862 -0.2297008 -8.821487E-06
v 1.068731 -0.2297008 -8.821487E-06
v 1.068731 -0.2297008 0.04410899
v 0.996882 -0.70127 0.04410899
v 0.996882 -0.70127 -8.821487E-06
v -1.06862 -0.2297008 -8.821487E-06
v -1.06862 -0.2297008 0.04410899
v -0.9968644 0.1606358 0.04410899
v -0.9968644 0.1606358 -8.821487E-06
v 0.996882 0.1606358 -8.821487E-06
v 0.996882 0.1606358 0.04410899
v 1.068731 -0.2297008 0.04410899
v 1.068731 -0.2297008 -8.821487E-06
v -0.9968644 0.1606358 -8.821487E-06
v -0.9968644 0.1606358 0.04410899
v -0.7629706 0.4477509 0.04410899
v -0.7629706 0.4477509 -8.821487E-06
v -0.7629706 0.4477509 -8.821487E-06
v -0.7629706 0.4477509 0.04410899
v -0.4129237 0.6664253 0.04410899
v -0.4129237 0.6664253 -8.821487E-06
v -0.4129237 0.6664253 -8.821487E-06
v -0.4129237 0.6664253 0.04410899
v -0.1216066 0.7498053 0.04410899
v 0.1776934 0.7498053 0.04410899
v 0.4690102 0.6664718 0.04410899
v 0.4690102 0.6664718 -8.821487E-06
v 0.4690102 0.6664718 -8.821487E-06
v 0.4690102 0.6664718 0.04410899
v 0.7629414 0.4477509 0.04410899
v 0.7629414 0.4477509 -8.821487E-06
v 0.7629414 0.4477509 -8.821487E-06
v 0.7629414 0.4477509 0.04410899
v 0.996882 0.1606358 0.04410899
v 0.996882 0.1606358 -8.821487E-06
v -0.7629706 -1.122699 0.04410899
v -0.8526064 -1.22536 -0.06429446
v -1.113671 -0.7550049 -0.06429446
v -0.9968644 -0.70127 0.04410899
v -0.4129237 -1.533857 0.04410899
v -0.4619433 -1.684278 -0.06429446
v -0.8526064 -1.22536 -0.06429446
v -0.7629706 -1.122699 0.04410899
v 8.821487E-06 -1.696463 0.04410899
v -0.001065016 -1.865744 -0.06429446
v -0.4619433 -1.684278 -0.06429446
v -0.4129237 -1.533857 0.04410899
v 0.4128944 -1.533857 0.04410899
v 0.4597665 -1.684278 -0.06429446
v -0.001065016 -1.865744 -0.06429446
v 8.821487E-06 -1.696463 0.04410899
v 0.996882 -0.70127 0.04410899
v 1.111495 -0.7550049 -0.06429446
v 0.8504765 -1.22536 -0.06429446
v 0.7629414 -1.122699 0.04410899
v 0.7629414 -1.122699 0.04410899
v 0.8504765 -1.22536 -0.06429446
v 0.4597665 -1.684278 -0.06429446
v 0.4128944 -1.533857 0.04410899
v -0.9968644 -0.70127 0.04410899
v -1.113671 -0.7550049 -0.06429446
v -1.193783 -0.2286738 -0.06429446
v -1.06862 -0.2297008 0.04410899
v 1.068731 -0.2297008 0.04410899
v 1.191747 -0.2286738 -0.06429446
v 1.111495 -0.7550049 -0.06429446
v 0.996882 -0.70127 0.04410899
v -1.06862 -0.2297008 0.04410899
v -1.193783 -0.2286738 -0.06429446
v -1.113671 0.2069942 -0.06429446
v -0.9968644 0.1606358 0.04410899
v -0.02226019 0.1765555 0.04410899
v -0.02590156 0.2246879 -0.06429446
v 0.01863611 -0.3058447 0.04410899
v 0.01863611 -0.3058447 -0.06429446
v 0.996882 0.1606358 0.04410899
v 1.111495 0.2069942 -0.06429446
v 1.191747 -0.2286738 -0.06429446
v 1.068731 -0.2297008 0.04410899
v -0.9968644 0.1606358 0.04410899
v -1.113671 0.2069942 -0.06429446
v -0.8526064 0.5273961 -0.06429446
v -0.7629706 0.4477509 0.04410899
v -0.7629706 0.4477509 0.04410899
v -0.8526064 0.5273961 -0.06429446
v -0.4619433 0.7714673 -0.06429446
v -0.4129237 0.6664253 0.04410899
v -0.4129237 0.6664253 0.04410899
v -0.4619433 0.7714673 -0.06429446
v -0.1367794 0.8645579 -0.06429446
v -0.1216066 0.7498053 0.04410899
v 0.08637667 0.2248281 0.04410899
v 0.1972544 0.8645579 -0.06429446
v 0.1776934 0.7498053 0.04410899
v 0.08637667 0.2248281 -0.06429446
v 0.01863611 -0.3058447 0.04410899
v 0.01863611 -0.3058447 -0.06429446
v 0.1776934 0.7498053 0.04410899
v 0.1972544 0.8645579 -0.06429446
v 0.5223715 0.7715141 -0.06429446
v 0.4690102 0.6664718 0.04410899
v 0.4690102 0.6664718 0.04410899
v 0.5223715 0.7715141 -0.06429446
v 0.8504765 0.5273961 -0.06429446
v 0.7629414 0.4477509 0.04410899
v 0.7629414 0.4477509 0.04410899
v 0.8504765 0.5273961 -0.06429446
v 1.111495 0.2069942 -0.06429446
v 0.996882 0.1606358 0.04410899
v -0.1216066 0.7498053 0.04410899
v -0.1367794 0.8645579 -0.06429446
v -0.02590156 0.2246879 -0.06429446
v -0.02226019 0.1765555 0.04410899
vn -0.001784265 0.001784265 0.9999968
vn -0.01737738 -0.02940202 0.9994166
vn -0.001784265 -0.02160543 0.999765
vn -0.001784265 0.001784265 0.9999968
vn -0.001784265 0.001784265 0.9999968
vn -0.001784265 0.001784265 0.9999968
vn 0.02160543 -0.02940202 0.9993341
vn -0.001784265 0.001784265 0.9999968
vn -0.001784265 -0.02160543 0.999765
vn -0.03297055 -0.02160543 0.9992228
vn 0.0371986 -0.02160543 0.9990743
vn -0.05636024 0.009580851 0.9983646
vn -0.04076707 0.01737738 0.9990175
vn 0.04499513 0.01737738 0.998836
vn 0.06058824 0.009580851 0.9981169
vn -0.07974994 0.01737738 0.9966635
vn -0.04076707 0.0485636 0.9979878
vn -0.1421224 -0.02160543 0.9896133
vn 0.04499513 0.0485636 0.9978061
vn 0.08397794 0.01737738 0.9963161
vn 0.1463504 -0.02160543 0.9889968
vn 0.8714306 0.4851711 -0.07223335
vn 0.8714306 0.4851711 -0.07223335
vn 0.8714306 0.4851711 -0.07223335
vn 0.8714306 0.4851711 -0.07223335
vn 0.7622788 0.6488988 0
vn 0.7622788 0.6488988 0
vn 0.7622788 0.6488988 0
vn 0.7622788 0.6488988 0
vn 0.3646541 0.9295751 -0.0540147
vn 0.3646541 0.9295751 -0.0540147
vn 0.3646541 0.9295751 -0.0540147
vn 0.3646541 0.9295751 -0.0540147
vn -0.3682226 0.9295751 -0.0173872
vn -0.3682226 0.9295751 -0.0173872
vn -0.3682226 0.9295751 -0.0173872
vn -0.3682226 0.9295751 -0.0173872
vn -0.8749992 0.4851711 0
vn -0.8749992 0.4851711 0
vn -0.8749992 0.4851711 0
vn -0.8749992 0.4851711 0
vn -0.7580507 0.6488988 -0.06549411
vn -0.7580507 0.6488988 -0.06549411
vn -0.7580507 0.6488988 -0.06549411
vn -0.7580507 0.6488988 -0.06549411
vn 0.9883791 0.1499189 -0.02512236
vn 0.9883791 0.1499189 -0.02512236
vn 0.9883791 0.1499189 -0.02512236
vn 0.9883791 0.1499189 -0.02512236
vn -0.9919475 0.1499189 0
vn -0.9919475 0.1499189 0
vn -0.9919475 0.1499189 0
vn -0.9919475 0.1499189 0
vn 0.9805825 -0.1775367 -0.08329827
vn 0.9805825 -0.1775367 -0.08329827
vn 0.9805825 -0.1775367 -0.08329827
vn 0.9805825 -0.1775367 -0.08329827
vn -0.984151 -0.1775367 0
vn -0.984151 -0.1775367 0
vn -0.984151 -0.1775367 0
vn -0.984151 -0.1775367 0
vn 0.7778719 -0.6297373 0
vn 0.7778719 -0.6297373 0
vn 0.7778719 -0.6297373 0
vn 0.7778719 -0.6297373 0
vn 0.5283819 -0.8480409 -0.04048614
vn 0.5283819 -0.8480409 -0.04048614
vn 0.5283819 -0.8480409 -0.04048614
vn 0.5283819 -0.8480409 -0.04048614
vn 0.2710954 -0.9571928 -0.1014357
vn 0.2710954 -0.9571928 -0.1014357
vn 0.2710954 -0.9571928 -0.1014357
vn -0.2746639 -0.9649894 0
vn -0.2746639 -0.9649894 0
vn -0.2746639 -0.9649894 0
vn -0.5943229 -0.8012616 -0.06899338
vn -0.5943229 -0.8012616 -0.06899338
vn -0.5943229 -0.8012616 -0.06899338
vn -0.5943229 -0.8012616 -0.06899338
vn -0.7736439 -0.6297373 -0.07004411
vn -0.7736439 -0.6297373 -0.07004411
vn -0.7736439 -0.6297373 -0.07004411
vn -0.7736439 -0.6297373 -0.07004411
vn -0.5631367 -0.3100782 0.7659821
vn -0.5631367 -0.3100782 0.7659821
vn -0.5631367 -0.3100782 0.7659821
vn -0.5631367 -0.3100782 0.7659821
vn -0.4773746 -0.4036369 0.7805068
vn -0.4773746 -0.4036369 0.7805068
vn -0.4773746 -0.4036369 0.7805068
vn -0.4773746 -0.4036369 0.7805068
vn -0.2044948 -0.5283819 0.8240111
vn -0.2044948 -0.5283819 0.8240111
vn -0.2044948 -0.5283819 0.8240111
vn -0.2044948 -0.5283819 0.8240111
vn 0.2087229 -0.5283819 0.8229504
vn 0.2087229 -0.5283819 0.8229504
vn 0.2087229 -0.5283819 0.8229504
vn 0.2087229 -0.5283819 0.8229504
vn 0.5673648 -0.3178748 0.75964
vn 0.5673648 -0.3178748 0.75964
vn 0.5673648 -0.3178748 0.75964
vn 0.5673648 -0.3178748 0.75964
vn 0.4816025 -0.4114335 0.7738097
vn 0.4816025 -0.4114335 0.7738097
vn 0.4816025 -0.4114335 0.7738097
vn 0.4816025 -0.4114335 0.7738097
vn -0.6488988 -0.09957105 0.7543314
vn -0.6488988 -0.09957105 0.7543314
vn -0.6488988 -0.09957105 0.7543314
vn -0.6488988 -0.09957105 0.7543314
vn 0.6609235 -0.09957105 0.7438183
vn 0.6609235 -0.09957105 0.7438183
vn 0.6609235 -0.09957105 0.7438183
vn 0.6609235 -0.09957105 0.7438183
vn -0.6488988 0.1187327 0.7515536
vn -0.6488988 0.1187327 0.7515536
vn -0.6488988 0.1187327 0.7515536
vn -0.6488988 0.1187327 0.7515536
vn 0.9961756 0.08754647 0
vn 0.9961756 0.08754647 0
vn 0.9961756 0.08754647 0
vn 0.9961756 0.08754647 0
vn 0.653127 0.1187327 0.7478821
vn 0.653127 0.1187327 0.7478821
vn 0.653127 0.1187327 0.7478821
vn 0.653127 0.1187327 0.7478821
vn -0.5163573 0.4227986 0.7447258
vn -0.5163573 0.4227986 0.7447258
vn -0.5163573 0.4227986 0.7447258
vn -0.5163573 0.4227986 0.7447258
vn -0.3604261 0.5787297 0.7315497
vn -0.3604261 0.5787297 0.7315497
vn -0.3604261 0.5787297 0.7315497
vn -0.3604261 0.5787297 0.7315497
vn -0.1889018 0.664492 0.7230259
vn -0.1889018 0.664492 0.7230259
vn -0.1889018 0.664492 0.7230259
vn -0.1889018 0.664492 0.7230259
vn -0.984151 0.1733086 0.03756249
vn -0.984151 0.1733086 0.03756249
vn -0.984151 0.1733086 0.03756249
vn -0.984151 0.1733086 -0.03756249
vn -0.9919475 0.1265292 -0.005517693
vn -0.9919475 0.1265292 -0.005517693
vn 0.1853333 0.6566954 0.7310286
vn 0.1853333 0.6566954 0.7310286
vn 0.1853333 0.6566954 0.7310286
vn 0.1853333 0.6566954 0.7310286
vn 0.4036369 0.5475435 0.7329893
vn 0.4036369 0.5475435 0.7329893
vn 0.4036369 0.5475435 0.7329893
vn 0.4036369 0.5475435 0.7329893
vn 0.5205854 0.4305952 0.7372779
vn 0.5205854 0.4305952 0.7372779
vn 0.5205854 0.4305952 0.7372779
vn 0.5205854 0.4305952 0.7372779
vn 0.9805825 0.1733086 0.09177144
vn 0.9805825 0.1733086 0.09177144
vn 0.9805825 0.1733086 0.09177144
vn 0.9805825 0.1733086 0.09177144
g Plane001_0
f 3/3/3 2/2/2 1/1/1
f 4/4/4 3/3/3 1/1/1
f 5/5/5 3/3/3 4/4/4
f 6/6/6 3/3/3 5/5/5
f 7/7/7 3/3/3 6/6/6
f 8/8/8 7/7/7 6/6/6
f 3/3/3 9/9/9 2/2/2
f 9/9/9 10/10/10 2/2/2
f 11/11/11 9/9/9 3/3/3
f 7/7/7 11/11/11 3/3/3
f 9/9/9 12/12/12 10/10/10
f 12/12/12 13/13/13 10/10/10
f 11/11/11 14/14/14 9/9/9
f 14/14/14 15/15/15 9/9/9
f 12/12/12 16/16/16 13/13/13
f 16/16/16 17/17/17 13/13/13
f 12/12/12 18/18/18 16/16/16
f 14/14/14 19/19/19 15/15/15
f 19/19/19 20/20/20 15/15/15
f 15/15/15 20/20/20 21/21/21
f 24/24/24 23/23/23 22/22/22
f 25/25/25 24/24/24 22/22/22
f 28/28/28 27/27/27 26/26/26
f 29/29/29 28/28/28 26/26/26
f 32/32/32 31/31/31 30/30/30
f 33/33/33 32/32/32 30/30/30
f 36/36/36 35/35/35 34/34/34
f 37/37/37 36/36/36 34/34/34
f 40/40/40 39/39/39 38/38/38
f 41/41/41 40/40/40 38/38/38
f 44/44/44 43/43/43 42/42/42
f 45/45/45 44/44/44 42/42/42
f 48/48/48 47/47/47 46/46/46
f 49/49/49 48/48/48 46/46/46
f 52/52/52 51/51/51 50/50/50
f 53/53/53 52/52/52 50/50/50
f 56/56/56 55/55/55 54/54/54
f 57/57/57 56/56/56 54/54/54
f 60/60/60 59/59/59 58/58/58
f 61/61/61 60/60/60 58/58/58
f 64/64/64 63/63/63 62/62/62
f 65/65/65 64/64/64 62/62/62
f 68/68/68 67/67/67 66/66/66
f 69/69/69 68/68/68 66/66/66
f 72/72/72 71/71/71 70/70/70
f 75/75/75 74/74/74 73/73/73
f 78/78/78 77/77/77 76/76/76
f 79/79/79 78/78/78 76/76/76
f 82/82/82 81/81/81 80/80/80
f 83/83/83 82/82/82 80/80/80
f 86/86/86 85/85/85 84/84/84
f 87/87/87 86/86/86 84/84/84
f 90/90/90 89/89/89 88/88/88
f 91/91/91 90/90/90 88/88/88
f 94/94/94 93/93/93 92/92/92
f 95/95/95 94/94/94 92/92/92
f 98/98/98 97/97/97 96/96/96
f 99/99/99 98/98/98 96/96/96
f 102/102/102 101/101/101 100/100/100
f 103/103/103 102/102/102 100/100/100
f 106/106/106 105/105/105 104/104/104
f 107/107/107 106/106/106 104/104/104
f 110/110/110 109/109/109 108/108/108
f 111/111/111 110/110/110 108/108/108
f 114/114/114 113/113/113 112/112/112
f 115/115/115 114/114/114 112/112/112
f 118/118/118 117/117/117 116/116/116
f 119/119/119 118/118/118 116/116/116
f 122/122/122 121/121/121 120/120/120
f 122/122/122 123/123/123 121/121/121
f 126/126/126 125/125/125 124/124/124
f 127/127/127 126/126/126 124/124/124
f 130/130/130 129/129/129 128/128/128
f 131/131/131 130/130/130 128/128/128
f 134/134/134 133/133/133 132/132/132
f 135/135/135 134/134/134 132/132/132
f 138/138/138 137/137/137 136/136/136
f 139/139/139 138/138/138 136/136/136
f 142/142/142 141/141/141 140/140/140
f 141/141/141 143/143/143 140/140/140
f 140/140/140 143/143/143 144/144/144
f 143/143/143 145/145/145 144/144/144
f 148/148/148 147/147/147 146/146/146
f 149/149/149 148/148/148 146/146/146
f 152/152/152 151/151/151 150/150/150
f 153/153/153 152/152/152 150/150/150
f 156/156/156 155/155/155 154/154/154
f 157/157/157 156/156/156 154/154/154
f 160/160/160 159/159/159 158/158/158
f 161/161/161 160/160/160 158/158/158
