g Plane001
v -2.702682 -1.179483 -0.0002646446
v -1.119467 -2.762699 -0.0002646446
v -2.068582 -2.128499 -0.0002646446
v -2.925437 -0.05995059 -0.0002646446
v -3.33786E-05 -2.985354 -0.0002646446
v 2.92537 -0.05995059 -0.0002646446
v 1.119499 -2.762699 -0.0002646446
v 2.702715 -1.179483 -0.0002646446
v 2.068614 -2.128499 -0.0002646446
v 2.702715 1.059582 -0.0002646446
v 0.07603884 3.055435 -0.0002646446
v -1.119467 2.835262 -0.0002646446
v -2.702682 1.059582 -0.0002646446
v -2.068582 2.008598 -0.0002646446
v 1.271644 2.835262 -0.0002646446
v 2.068614 2.008598 -0.0002646446
v -2.068582 -2.128499 -0.0002646446
v -2.229763 -2.291369 0.14463
v -2.913023 -1.268863 0.14463
v -2.702682 -1.179483 -0.0002646446
v -1.119467 -2.762699 -0.0002646446
v -1.207258 -2.974628 0.14463
v -2.229763 -2.291369 0.14463
v -2.068582 -2.128499 -0.0002646446
v -3.33786E-05 -2.985354 -0.0002646446
v -0.001125813 -3.214564 0.14463
v -1.207258 -2.974628 0.14463
v -1.119467 -2.762699 -0.0002646446
v 1.119499 -2.762699 -0.0002646446
v 1.205006 -2.974628 0.14463
v -0.001125813 -3.214564 0.14463
v -3.33786E-05 -2.985354 -0.0002646446
v 2.702715 -1.179483 -0.0002646446
v 2.910771 -1.268863 0.14463
v 2.227611 -2.291369 0.14463
v 2.068614 -2.128499 -0.0002646446
v 2.068614 -2.128499 -0.0002646446
v 2.227611 -2.291369 0.14463
v 1.205006 -2.974628 0.14463
v 1.119499 -2.762699 -0.0002646446
v -2.702682 -1.179483 -0.0002646446
v -2.913023 -1.268863 0.14463
v -3.152958 -0.06273127 0.14463
v -2.925437 -0.05995059 -0.0002646446
v 2.92537 -0.05995059 -0.0002646446
v 3.150707 -0.06273127 0.14463
v 2.910771 -1.268863 0.14463
v 2.702715 -1.179483 -0.0002646446
v -2.925437 -0.05995059 -0.0002646446
v -3.152958 -0.06273127 0.14463
v -2.913023 1.1434 0.14463
v -2.702682 1.059582 -0.0002646446
v 2.702715 1.059582 -0.0002646446
v 2.910771 1.1434 0.14463
v 3.150707 -0.06273127 0.14463
v 2.92537 -0.05995059 -0.0002646446
v -2.702682 1.059582 -0.0002646446
v -2.913023 1.1434 0.14463
v -2.229763 2.165907 0.14463
v -2.068582 2.008598 -0.0002646446
v -2.068582 2.008598 -0.0002646446
v -2.229763 2.165907 0.14463
v -1.207258 3.056527 0.14463
v -1.119467 2.835262 -0.0002646446
v -1.119467 2.835262 -0.0002646446
v -1.207258 3.056527 0.14463
v 0.08080578 3.293781 0.14463
v 0.07603884 3.055435 -0.0002646446
v 0.07603884 3.055435 -0.0002646446
v 0.08080578 3.293781 0.14463
v 1.368968 3.056527 0.14463
v 1.271644 2.835262 -0.0002646446
v 1.271644 2.835262 -0.0002646446
v 1.368968 3.056527 0.14463
v 2.227611 2.165907 0.14463
v 2.068614 2.008598 -0.0002646446
v 2.068614 2.008598 -0.0002646446
v 2.227611 2.165907 0.14463
v 2.910771 1.1434 0.14463
v 2.702715 1.059582 -0.0002646446
v -2.229763 -2.291369 0.14463
v -2.229763 -2.291369 -0.2326522
v -2.913023 -1.268863 -0.2326522
v -2.913023 -1.268863 0.14463
v -1.207258 -2.974628 0.14463
v -1.207258 -2.974628 -0.2326522
v -2.229763 -2.291369 -0.2326522
v -2.229763 -2.291369 0.14463
v -0.001125813 -3.214564 0.14463
v -0.001125813 -3.214564 -0.2326522
v -1.207258 -2.974628 -0.2326522
v -1.207258 -2.974628 0.14463
v 1.205006 -2.974628 0.14463
v 1.205006 -2.974628 -0.2326522
v -0.001125813 -3.214564 -0.2326522
v -0.001125813 -3.214564 0.14463
v 2.910771 -1.268863 0.14463
v 2.910771 -1.268863 -0.2326522
v 2.227611 -2.291369 -0.2326522
v 2.227611 -2.291369 0.14463
v 2.227611 -2.291369 0.14463
v 2.227611 -2.291369 -0.2326522
v 1.205006 -2.974628 -0.2326522
v 1.205006 -2.974628 0.14463
v -2.913023 -1.268863 0.14463
v -2.913023 -1.268863 -0.2326522
v -3.152958 -0.06273127 -0.2326522
v -3.152958 -0.06273127 0.14463
v 3.150707 -0.06273127 0.14463
v 3.150707 -0.06273127 -0.2326522
v 2.910771 -1.268863 -0.2326522
v 2.910771 -1.268863 0.14463
v -3.152958 -0.06273127 0.14463
v -3.152958 -0.06273127 -0.2326522
v -2.913023 1.1434 -0.2326522
v -2.913023 1.1434 0.14463
v 2.910771 1.1434 0.14463
v 2.910771 1.1434 -0.2326522
v 3.150707 -0.06273127 -0.2326522
v 3.150707 -0.06273127 0.14463
v -2.913023 1.1434 0.14463
v -2.913023 1.1434 -0.2326522
v -2.229763 2.165907 -0.2326522
v -2.229763 2.165907 0.14463
v -2.229763 2.165907 0.14463
v -2.229763 2.165907 -0.2326522
v -1.207258 3.056527 -0.2326522
v -1.207258 3.056527 0.14463
v -1.207258 3.056527 0.14463
v -1.207258 3.056527 -0.2326522
v 0.08080578 3.293781 -0.2326522
v 0.08080578 3.293781 0.14463
v 0.08080578 3.293781 0.14463
v 0.08080578 3.293781 -0.2326522
v 1.368968 3.056527 -0.2326522
v 1.368968 3.056527 0.14463
v 1.368968 3.056527 0.14463
v 1.368968 3.056527 -0.2326522
v 2.227611 2.165907 -0.2326522
v 2.227611 2.165907 0.14463
v 2.227611 2.165907 0.14463
v 2.227611 2.165907 -0.2326522
v 2.910771 1.1434 -0.2326522
v 2.910771 1.1434 0.14463
vn 0.002515972 -0.002515972 0.9999937
vn 0.002515972 -0.002515972 0.9999937
vn 0.002515972 -0.002515972 0.9999937
vn 0.002515972 -0.002515972 0.9999937
vn 0.002515972 -0.002515972 0.9999937
vn 0.002515972 -0.002515972 0.9999937
vn 0.002515972 -0.002515972 0.9999937
vn 0.002515972 -0.002515972 0.9999937
vn 0.002515972 -0.002515972 0.9999937
vn 0.002515972 -0.002515972 0.9999937
vn 0.002515972 -0.002515972 0.9999937
vn 0.002515972 -0.002515972 0.9999937
vn 0.002515972 -0.002515972 0.9999937
vn 0.002515972 -0.002515972 0.9999937
vn 0.002515972 -0.002515972 0.9999937
vn 0.002515972 -0.002515972 0.9999937
vn 0.4492846 0.2978976 0.842259
vn 0.4492846 0.2978976 0.842259
vn 0.4492846 0.2978976 0.842259
vn 0.4492846 0.2978976 0.842259
vn 0.3029294 0.4519557 0.8390291
vn 0.3029294 0.4519557 0.8390291
vn 0.3029294 0.4519557 0.8390291
vn 0.3029294 0.4519557 0.8390291
vn 0.1026537 0.5289848 0.8423997
vn 0.1026537 0.5289848 0.8423997
vn 0.1026537 0.5289848 0.8423997
vn 0.1026537 0.5289848 0.8423997
vn -0.1053249 0.5289848 0.8420699
vn -0.1053249 0.5289848 0.8420699
vn -0.1053249 0.5289848 0.8420699
vn -0.1053249 0.5289848 0.8420699
vn -0.4519557 0.3056004 0.83806
vn -0.4519557 0.3056004 0.83806
vn -0.4519557 0.3056004 0.83806
vn -0.4519557 0.3056004 0.83806
vn -0.3056004 0.4519557 0.83806
vn -0.3056004 0.4519557 0.83806
vn -0.3056004 0.4519557 0.83806
vn -0.3056004 0.4519557 0.83806
vn 0.5340167 0.1053249 0.8388879
vn 0.5340167 0.1053249 0.8388879
vn 0.5340167 0.1053249 0.8388879
vn 0.5340167 0.1053249 0.8388879
vn -0.5366877 0.1053249 0.8371816
vn -0.5366877 0.1053249 0.8371816
vn -0.5366877 0.1053249 0.8371816
vn -0.5366877 0.1053249 0.8371816
vn 0.5340167 -0.1026537 0.8392189
vn 0.5340167 -0.1026537 0.8392189
vn 0.5340167 -0.1026537 0.8392189
vn 0.5340167 -0.1026537 0.8392189
vn -0.5366877 -0.1103567 0.8365331
vn -0.5366877 -0.1103567 0.8365331
vn -0.5366877 -0.1103567 0.8365331
vn -0.5366877 -0.1103567 0.8365331
vn 0.4569876 -0.3029294 0.8362991
vn 0.4569876 -0.3029294 0.8362991
vn 0.4569876 -0.3029294 0.8362991
vn 0.4569876 -0.3029294 0.8362991
vn 0.3568497 -0.4107701 0.8390031
vn 0.3568497 -0.4107701 0.8390031
vn 0.3568497 -0.4107701 0.8390031
vn 0.3568497 -0.4107701 0.8390031
vn 0.09495085 -0.5186108 0.8497218
vn 0.09495085 -0.5186108 0.8497218
vn 0.09495085 -0.5186108 0.8497218
vn 0.09495085 -0.5186108 0.8497218
vn -0.09762192 -0.5186108 0.8494191
vn -0.09762192 -0.5186108 0.8494191
vn -0.09762192 -0.5186108 0.8494191
vn -0.09762192 -0.5186108 0.8494191
vn -0.3903325 -0.3799585 0.8386132
vn -0.3903325 -0.3799585 0.8386132
vn -0.3903325 -0.3799585 0.8386132
vn -0.3903325 -0.3799585 0.8386132
vn -0.4596586 -0.3029294 0.8348339
vn -0.4596586 -0.3029294 0.8348339
vn -0.4596586 -0.3029294 0.8348339
vn -0.4596586 -0.3029294 0.8348339
vn -0.8293982 -0.5571254 -0.04135176
vn -0.8293982 -0.5571254 -0.04135176
vn -0.8293982 -0.5571254 -0.04135176
vn -0.8293982 -0.5571254 -0.04135176
vn -0.5520935 -0.8344301 0
vn -0.5520935 -0.8344301 0
vn -0.5520935 -0.8344301 0
vn -0.5520935 -0.8344301 0
vn -0.1977597 -0.9807854 0
vn -0.1977597 -0.9807854 0
vn -0.1977597 -0.9807854 0
vn -0.1977597 -0.9807854 0
vn 0.1950887 -0.9807854 -0.000690534
vn 0.1950887 -0.9807854 -0.000690534
vn 0.1950887 -0.9807854 -0.000690534
vn 0.1950887 -0.9807854 -0.000690534
vn 0.8344301 -0.5571254 0
vn 0.8344301 -0.5571254 0
vn 0.8344301 -0.5571254 0
vn 0.8344301 -0.5571254 0
vn 0.5571254 -0.8344301 0
vn 0.5571254 -0.8344301 0
vn 0.5571254 -0.8344301 0
vn 0.5571254 -0.8344301 0
vn -0.9834564 -0.1950887 0
vn -0.9834564 -0.1950887 0
vn -0.9834564 -0.1950887 0
vn -0.9834564 -0.1950887 0
vn 0.9807854 -0.1950887 -0.0006878313
vn 0.9807854 -0.1950887 -0.0006878313
vn 0.9807854 -0.1950887 -0.0006878313
vn 0.9807854 -0.1950887 -0.0006878313
vn -0.9834564 0.1977597 0
vn -0.9834564 0.1977597 0
vn -0.9834564 0.1977597 0
vn -0.9834564 0.1977597 0
vn 0.9807854 0.1977597 0
vn 0.9807854 0.1977597 0
vn 0.9807854 0.1977597 0
vn 0.9807854 0.1977597 0
vn -0.8293982 0.5520935 -0.0853899
vn -0.8293982 0.5520935 -0.0853899
vn -0.8293982 0.5520935 -0.0853899
vn -0.8293982 0.5520935 -0.0853899
vn -0.6599343 0.7523692 0
vn -0.6599343 0.7523692 0
vn -0.6599343 0.7523692 0
vn -0.6599343 0.7523692 0
vn -0.1823539 0.9834564 0
vn -0.1823539 0.9834564 0
vn -0.1823539 0.9834564 0
vn -0.1823539 0.9834564 0
vn 0.1796829 0.9834564 -0.02296999
vn 0.1796829 0.9834564 -0.02296999
vn 0.1796829 0.9834564 -0.02296999
vn 0.1796829 0.9834564 -0.02296999
vn 0.7188865 0.6907458 -0.07792562
vn 0.7188865 0.6907458 -0.07792562
vn 0.7188865 0.6907458 -0.07792562
vn 0.7188865 0.6907458 -0.07792562
vn 0.8344301 0.5520935 0
vn 0.8344301 0.5520935 0
vn 0.8344301 0.5520935 0
vn 0.8344301 0.5520935 0
g Plane001_0
f 3/3/3 2/2/2 1/1/1
f 2/2/2 4/4/4 1/1/1
f 5/5/5 4/4/4 2/2/2
f 6/6/6 4/4/4 5/5/5
f 7/7/7 6/6/6 5/5/5
f 8/8/8 6/6/6 7/7/7
f 9/9/9 8/8/8 7/7/7
f 6/6/6 10/10/10 4/4/4
f 10/10/10 11/11/11 4/4/4
f 4/4/4 11/11/11 12/12/12
f 4/4/4 12/12/12 13/13/13
f 13/13/13 12/12/12 14/14/14
f 10/10/10 15/15/15 11/11/11
f 10/10/10 16/16/16 15/15/15
f 19/19/19 18/18/18 17/17/17
f 20/20/20 19/19/19 17/17/17
f 23/23/23 22/22/22 21/21/21
f 24/24/24 23/23/23 21/21/21
f 27/27/27 26/26/26 25/25/25
f 28/28/28 27/27/27 25/25/25
f 31/31/31 30/30/30 29/29/29
f 32/32/32 31/31/31 29/29/29
f 35/35/35 34/34/34 33/33/33
f 36/36/36 35/35/35 33/33/33
f 39/39/39 38/38/38 37/37/37
f 40/40/40 39/39/39 37/37/37
f 43/43/43 42/42/42 41/41/41
f 44/44/44 43/43/43 41/41/41
f 47/47/47 46/46/46 45/45/45
f 48/48/48 47/47/47 45/45/45
f 51/51/51 50/50/50 49/49/49
f 52/52/52 51/51/51 49/49/49
f 55/55/55 54/54/54 53/53/53
f 56/56/56 55/55/55 53/53/53
f 59/59/59 58/58/58 57/57/57
f 60/60/60 59/59/59 57/57/57
f 63/63/63 62/62/62 61/61/61
f 64/64/64 63/63/63 61/61/61
f 67/67/67 66/66/66 65/65/65
f 68/68/68 67/67/67 65/65/65
f 71/71/71 70/70/70 69/69/69
f 72/72/72 71/71/71 69/69/69
f 75/75/75 74/74/74 73/73/73
f 76/76/76 75/75/75 73/73/73
f 79/79/79 78/78/78 77/77/77
f 80/80/80 79/79/79 77/77/77
f 83/83/83 82/82/82 81/81/81
f 84/84/84 83/83/83 81/81/81
f 87/87/87 86/86/86 85/85/85
f 88/88/88 87/87/87 85/85/85
f 91/91/91 90/90/90 89/89/89
f 92/92/92 91/91/91 89/89/89
f 95/95/95 94/94/94 93/93/93
f 96/96/96 95/95/95 93/93/93
f 99/99/99 98/98/98 97/97/97
f 100/100/100 99/99/99 97/97/97
f 103/103/103 102/102/102 101/101/101
f 104/104/104 103/103/103 101/101/101
f 107/107/107 106/106/106 105/105/105
f 108/108/108 107/107/107 105/105/105
f 111/111/111 110/110/110 109/109/109
f 112/112/112 111/111/111 109/109/109
f 115/115/115 114/114/114 113/113/113
f 116/116/116 115/115/115 113/113/113
f 119/119/119 118/118/118 117/117/117
f 120/120/120 119/119/119 117/117/117
f 123/123/123 122/122/122 121/121/121
f 124/124/124 123/123/123 121/121/121
f 127/127/127 126/126/126 125/125/125
f 128/128/128 127/127/127 125/125/125
f 131/131/131 130/130/130 129/129/129
f 132/132/132 131/131/131 129/129/129
f 135/135/135 134/134/134 133/133/133
f 136/136/136 135/135/135 133/133/133
f 139/139/139 138/138/138 137/137/137
f 140/140/140 139/139/139 137/137/137
f 143/143/143 142/142/142 141/141/141
f 144/144/144 143/143/143 141/141/141
