g Plane001
v -0.07658663 -0.09075034 10.3867
v 0.1049164 -0.09075034 10.3867
v 0.1049164 -0.09075236 1.557686
v -0.07658663 -0.09075236 1.557686
v -0.07658663 0.09075283 10.3867
v -0.07658663 0.09075081 1.557686
v 0.1049164 0.09075081 1.557686
v 0.1049164 0.09075283 10.3867
v -0.07658663 -0.09075034 10.3867
v -0.07658663 0.09075283 10.3867
v 0.1049164 0.09075283 10.3867
v 0.1049164 -0.09075034 10.3867
v 0.1049164 -0.09075034 10.3867
v 0.1049164 0.09075283 10.3867
v 0.1049164 0.09075081 1.557686
v 0.1049164 -0.09075236 1.557686
v -0.07658663 -0.09075236 1.557686
v -0.07658663 0.09075081 1.557686
v -0.07658663 0.09075283 10.3867
v -0.07658663 -0.09075034 10.3867
v -0.07658663 -0.09075236 1.557686
v 0.1049164 -0.09075236 1.557686
v 0.4318421 -0.04537669 0.9887075
v -0.4035116 -0.04537669 0.9887075
v 0.01416489 -1.125596E-06 -1.859665E-05
v -0.07658663 0.09075081 1.557686
v -0.07658663 -0.09075236 1.557686
v -0.4035116 -0.04537669 0.9887075
v -0.4035116 0.04537492 0.9887075
v 0.1049164 0.09075081 1.557686
v -0.07658663 0.09075081 1.557686
v -0.4035116 0.04537492 0.9887075
v 0.4318421 0.04537492 0.9887075
v 0.01416489 -1.125596E-06 -1.859665E-05
v 0.1049164 0.09075081 1.557686
v 0.4318421 0.04537492 0.9887075
v 0.4318421 -0.04537669 0.9887075
v 0.1049164 -0.09075236 1.557686
v -0.4035116 0.04537492 0.9887075
v -0.4035116 -0.04537669 0.9887075
v 0.01416489 -1.125596E-06 -1.859665E-05
v 0.4318421 -0.04537669 0.9887075
v 0.4318421 0.04537492 0.9887075
v 0.01416489 -1.125596E-06 -1.859665E-05
v -0.05058402 0.0647487 1.557686
v -0.05058402 -0.0647498 1.557686
v 0.07891437 -0.0647498 1.557686
v 0.07891437 0.0647487 1.557686
v 0.07891437 0.0647487 1.557686
v 0.4208927 0.1059628 2.637334
v -0.420893 0.1059629 3.114233
v -0.05058402 0.0647487 1.557686
v 0.07891437 -0.0647498 1.557686
v 0.4208927 -0.1059635 2.637334
v 0.4208927 0.1059628 2.637334
v 0.07891437 0.0647487 1.557686
v -0.05058402 -0.0647498 1.557686
v -0.420893 -0.1059634 3.114233
v 0.4208927 -0.1059635 2.637334
v 0.07891437 -0.0647498 1.557686
v -0.05058402 0.0647487 1.557686
v -0.420893 0.1059629 3.114233
v -0.420893 -0.1059634 3.114233
v -0.05058402 -0.0647498 1.557686
vt 0.4740032 0.4496526
vt 0.4669473 0.4496526
vt 0.4669473 0.6233476
vt 0.4740032 0.6233476
vt 0.481059 0.4496526
vt 0.4810591 0.6233476
vt 0.4881149 0.6233476
vt 0.4881149 0.4496526
vt 0.4740032 0.4496526
vt 0.481059 0.4496526
vt 0.4881149 0.4496526
vt 0.4669473 0.4496526
vt 0.4951708 0.4496526
vt 0.4881149 0.4496526
vt 0.4881149 0.6233476
vt 0.4951708 0.6233476
vt 0.4740032 0.6233476
vt 0.4810591 0.6233476
vt 0.481059 0.4496526
vt 0.4740032 0.4496526
vt 0.528953 0.9654393
vt 0.5218971 0.9654393
vt 0.525425 0.9654393
vt 0.528953 0.9654393
vt 0.528953 0.9654393
vt 0.5360088 0.9654393
vt 0.528953 0.9654393
vt 0.528953 0.9654393
vt 0.5324809 0.9654393
vt 0.528953 0.9654393
vt 0.5360088 0.9654393
vt 0.5324809 0.9654393
vt 0.528953 0.9654393
vt 0.528953 0.9654393
vt 0.528953 0.9654393
vt 0.528953 0.9654393
vt 0.525425 0.9654393
vt 0.5218971 0.9654393
vt 0.5324809 0.9654393
vt 0.528953 0.9654393
vt 0.528953 0.9654393
vt 0.525425 0.9654393
vt 0.528953 0.9654393
vt 0.528953 0.9654393
vt -0.5 15
vt -0.5 15
vt 0.5 15
vt 0.5 15
vt 0.250556 0.7628226
vt 0.250556 0.7628226
vt 0.250556 0.7628226
vt 0.250556 0.7628226
vt 0.250556 0.7628226
vt 0.250556 0.7628226
vt 0.250556 0.7628226
vt 0.250556 0.7628226
vt 0.250556 0.7628226
vt 0.250556 0.7628226
vt 0.250556 0.7628226
vt 0.250556 0.7628226
vt 0.250556 0.7628226
vt 0.250556 0.7628226
vt 0.250556 0.7628226
vt 0.250556 0.7628226
vn 0 -1 0
vn 0 -1 0
vn 0 -1 0
vn 0 -1 0
vn 0 1 0
vn 0 1 0
vn 0 1 0
vn 0 1 0
vn 0 0 1
vn 0 0 1
vn 0 0 1
vn 0 0 1
vn 1 0 0
vn 1 0 0
vn 1 0 0
vn 1 0 0
vn -1 0 0
vn -1 0 0
vn -1 0 0
vn -1 0 0
vn 0 -0.9968351 -0.07949696
vn 0 -0.9968351 -0.07949696
vn 0 -0.9968351 -0.07949696
vn 0 -0.9968351 -0.07949696
vn 0 -0.9989486 -0.0458447
vn -0.8670628 0 0.4981989
vn -0.8670627 0 0.4981989
vn -0.8670628 0 0.4981989
vn -0.8670628 0 0.4981989
vn 0 0.9968351 -0.07949733
vn 0 0.9968351 -0.07949732
vn 0 0.9968351 -0.07949732
vn 0 0.9968351 -0.07949732
vn 0 0.9989486 -0.04584519
vn 0.8670623 0 0.4981997
vn 0.8670623 0 0.4981997
vn 0.8670623 0 0.4981997
vn 0.8670623 0 0.4981997
vn -0.921178 0 -0.3891415
vn -0.921178 0 -0.3891416
vn -0.921178 0 -0.3891415
vn 0.9211777 0 -0.3891421
vn 0.9211777 0 -0.3891421
vn 0.9211777 0 -0.3891421
vn 0 0 -1
vn 0 0 -1
vn 0 0 -1
vn 0 0 -1
vn -0.01542438 0.9993874 -0.0314145
vn -0.01542438 0.9993874 -0.03141449
vn -0.01542438 0.9993874 -0.0314145
vn -0.01542438 0.9993874 -0.0314145
vn 0.9533194 0 -0.3019638
vn 0.9533194 0 -0.3019638
vn 0.9533194 0 -0.3019638
vn 0.9533194 0 -0.3019638
vn -0.01542437 -0.9993874 -0.03141415
vn -0.01542437 -0.9993874 -0.03141415
vn -0.01542437 -0.9993874 -0.03141415
vn -0.01542437 -0.9993874 -0.03141415
vn -0.9728481 0 -0.2314447
vn -0.9728481 0 -0.2314447
vn -0.9728481 0 -0.2314447
vn -0.9728481 0 -0.2314447
g Plane001_0
f 3/3/3 2/2/2 1/1/1
f 4/4/4 3/3/3 1/1/1
f 7/7/7 6/6/6 5/5/5
f 8/8/8 7/7/7 5/5/5
f 11/11/11 10/10/10 9/9/9
f 12/12/12 11/11/11 9/9/9
f 15/15/15 14/14/14 13/13/13
f 16/16/16 15/15/15 13/13/13
f 19/19/19 18/18/18 17/17/17
f 20/20/20 19/19/19 17/17/17
f 23/23/23 22/22/22 21/21/21
f 24/24/24 23/23/23 21/21/21
f 25/25/25 23/23/23 24/24/24
f 28/28/28 27/27/27 26/26/26
f 29/29/29 28/28/28 26/26/26
f 32/32/32 31/31/31 30/30/30
f 33/33/33 32/32/32 30/30/30
f 34/34/34 32/32/32 33/33/33
f 37/37/37 36/36/36 35/35/35
f 38/38/38 37/37/37 35/35/35
f 41/41/41 40/40/40 39/39/39
f 44/44/44 43/43/43 42/42/42
f 47/47/47 46/46/46 45/45/45
f 48/48/48 47/47/47 45/45/45
f 51/51/51 50/50/50 49/49/49
f 52/52/52 51/51/51 49/49/49
f 55/55/55 54/54/54 53/53/53
f 56/56/56 55/55/55 53/53/53
f 59/59/59 58/58/58 57/57/57
f 60/60/60 59/59/59 57/57/57
f 63/63/63 62/62/62 61/61/61
f 64/64/64 63/63/63 61/61/61
