g Plane001
v -0.7686905 -1.122062 -0.02939367
v -0.997609 -0.6987634 -0.04205942
v -4.172325E-06 -0.8563143 -0.04659283
v -0.4243308 -1.536013 -0.03009462
v -4.172325E-06 -1.696462 -0.04659283
v 0.4129188 -1.533863 -0.06351161
v 0.996853 -0.7012403 -0.1444137
v 0.7629802 -1.122716 -0.1039861
v 0.01859736 -0.3058439 -0.002519608
v -1.065238 -0.2266244 -0.04832208
v 1.068735 -0.229709 -0.1589956
v -0.01799786 0.1712958 -0.02018631
v -0.9909724 0.1631171 -0.04304087
v 0.996853 0.1606396 -0.1444137
v 0.08636606 0.2248567 -0.003267407
v -0.4073187 0.6642329 -0.03458142
v -0.7565387 0.4483539 -0.03177714
v -0.1121733 0.7453686 -0.01097906
v 0.7629802 0.4477462 -0.1039861
v 0.4690034 0.6664764 -0.06837237
v 0.1776906 0.7498087 -0.005651116
v -0.7686905 -1.122062 -0.02939367
v -0.7634093 -1.121968 0.01514697
v -0.9923745 -0.6986698 0.002761602
v -0.997609 -0.6987634 -0.04205942
v -0.4243308 -1.536013 -0.03009462
v -0.4190496 -1.53592 0.01407206
v -0.7634093 -1.121968 0.01514697
v -0.7686905 -1.122062 -0.02939367
v -4.172325E-06 -1.696462 -0.04659283
v -4.172325E-06 -1.696462 -0.002472878
v -0.4190496 -1.53592 0.01407206
v -0.4243308 -1.536013 -0.03009462
v 0.4129188 -1.533863 -0.06351161
v 0.4129188 -1.533863 -0.01939178
v -4.172325E-06 -1.696462 -0.002472878
v -4.172325E-06 -1.696462 -0.04659283
v 0.996853 -0.7012403 -0.1444137
v 0.996853 -0.7012403 -0.1003405
v 0.7629802 -1.122716 -0.05991292
v 0.7629802 -1.122716 -0.1039861
v 0.7629802 -1.122716 -0.1039861
v 0.7629802 -1.122716 -0.05991292
v 0.4129188 -1.533863 -0.01939178
v 0.4129188 -1.533863 -0.06351161
v -0.997609 -0.6987634 -0.04205942
v -0.9923745 -0.6986698 0.002761602
v -1.059957 -0.2265776 -0.003454328
v -1.065238 -0.2266244 -0.04832208
v 1.068735 -0.229709 -0.1589956
v 1.068735 -0.229709 -0.1149226
v 0.996853 -0.7012403 -0.1003405
v 0.996853 -0.7012403 -0.1444137
v -1.065238 -0.2266244 -0.04832208
v -1.059957 -0.2265776 -0.003454328
v -0.985691 0.1632105 0.001733422
v -0.9909724 0.1631171 -0.04304087
v 0.996853 0.1606396 -0.1444137
v 0.996853 0.1606396 -0.1003405
v 1.068735 -0.229709 -0.1149226
v 1.068735 -0.229709 -0.1589956
v -0.9909724 0.1631171 -0.04304087
v -0.985691 0.1632105 0.001733422
v -0.7512575 0.4484473 0.01276338
v -0.7565387 0.4483539 -0.03177714
v -0.7565387 0.4483539 -0.03177714
v -0.7512575 0.4484473 0.01276338
v -0.4020842 0.6642796 0.009585261
v -0.4073187 0.6642329 -0.03458142
v -0.4073187 0.6642329 -0.03458142
v -0.4020842 0.6642796 0.009585261
v -0.1121733 0.7453686 -0.01097906
v 0.1776906 0.7498087 -0.005651116
v 0.4690034 0.6664764 -0.02425241
v 0.4690034 0.6664764 -0.06837237
v 0.4690034 0.6664764 -0.06837237
v 0.4690034 0.6664764 -0.02425241
v 0.7629802 0.4477462 -0.05991292
v 0.7629802 0.4477462 -0.1039861
v 0.7629802 0.4477462 -0.1039861
v 0.7629802 0.4477462 -0.05991292
v 0.996853 0.1606396 -0.1003405
v 0.996853 0.1606396 -0.1444137
v -0.7634093 -1.121968 0.01514697
v -0.8661841 -1.224136 -0.09781671
v -1.121696 -0.7516698 -0.1174464
v -0.9923745 -0.6986698 0.002761602
v -0.4190496 -1.53592 0.01407206
v -0.4818176 -1.686133 -0.09276915
v -0.8661841 -1.224136 -0.09781671
v -0.7634093 -1.121968 0.01514697
v -4.172325E-06 -1.696462 -0.002472878
v -0.001079082 -1.865744 -0.1108564
v -0.4818176 -1.686133 -0.09276915
v -0.4190496 -1.53592 0.01407206
v 0.4129188 -1.533863 -0.01939178
v 0.4597495 -1.684263 -0.1318414
v -0.001079082 -1.865744 -0.1108564
v -4.172325E-06 -1.696462 -0.002472878
v 0.996853 -0.7012403 -0.1003405
v 1.111499 -0.7549881 -0.2324665
v 0.8504721 -1.225351 -0.1821773
v 0.7629802 -1.122716 -0.05991292
v 0.7629802 -1.122716 -0.05991292
v 0.8504721 -1.225351 -0.1821773
v 0.4597495 -1.684263 -0.1318414
v 0.4129188 -1.533863 -0.01939178
v -0.9923745 -0.6986698 0.002761602
v -1.121696 -0.7516698 -0.1174464
v -1.197177 -0.2247549 -0.1263732
v -1.059957 -0.2265776 -0.003454328
v 1.068735 -0.229709 -0.1149226
v 1.191747 -0.2286808 -0.2506006
v 1.111499 -0.7549881 -0.2324665
v 0.996853 -0.7012403 -0.1003405
v -1.059957 -0.2265776 -0.003454328
v -1.197177 -0.2247549 -0.1263732
v -1.114265 0.2102748 -0.1183811
v -0.985691 0.1632105 0.001733422
v -0.01799786 0.1712958 -0.02018631
v -0.03421581 0.2193416 -0.1275884
v 0.01859736 -0.3058439 -0.002519608
v 0.996853 0.1606396 -0.1003405
v 1.111499 0.207003 -0.2324665
v 1.191747 -0.2286808 -0.2506006
v 1.068735 -0.229709 -0.1149226
v -0.985691 0.1632105 0.001733422
v -1.114265 0.2102748 -0.1183811
v -0.8526303 0.5286015 -0.1002003
v -0.7512575 0.4484473 0.01276338
v -0.7512575 0.4484473 0.01276338
v -0.8526303 0.5286015 -0.1002003
v -0.4628891 0.7695316 -0.09753633
v -0.4020842 0.6642796 0.009585261
v -0.4020842 0.6642796 0.009585261
v -0.4628891 0.7695316 -0.09753633
v -0.1393744 0.8600148 -0.1177735
v -0.1121733 0.7453686 -0.01097906
v 0.08636606 0.2248567 -0.003267407
v 0.1972268 0.8645483 -0.1147825
v 0.1776906 0.7498087 -0.005651116
v 0.08636606 0.2248567 -0.1116508
v 0.01859736 -0.3058439 -0.002519608
v 0.01859736 -0.3058439 -0.1109031
v 0.1776906 0.7498087 -0.005651116
v 0.1972268 0.8645483 -0.1147825
v 0.5223771 0.7714945 -0.1378706
v 0.4690034 0.6664764 -0.02425241
v 0.4690034 0.6664764 -0.02425241
v 0.5223771 0.7714945 -0.1378706
v 0.8504721 0.527433 -0.1821773
v 0.7629802 0.4477462 -0.05991292
v 0.7629802 0.4477462 -0.05991292
v 0.8504721 0.527433 -0.1821773
v 1.111499 0.207003 -0.2324665
v 0.996853 0.1606396 -0.1003405
v -0.1121733 0.7453686 -0.01097906
v -0.1393744 0.8600148 -0.1177735
v -0.03421581 0.2193416 -0.1275884
v -0.01799786 0.1712958 -0.02018631
v -0.03421581 0.2193416 -0.1275884
v 0.01859736 -0.3058439 -0.1109031
v 0.01859736 -0.3058439 -0.002519608
vn 0.01304442 0.02590692 0.9995793
vn -0.01032639 -0.02083462 0.9997296
vn 0.05199564 -0.005254149 0.9986335
vn 0.02862489 0.01032639 0.9995369
vn 0.03641516 0.002536118 0.9993335
vn 0.05978584 0.01811659 0.9980468
vn 0.1143176 -0.01304442 0.9933586
vn 0.09094685 0.03369713 0.9952855
vn 0.05199564 -0.02083462 0.99843
vn -0.02590692 -0.01304442 0.9995793
vn 0.1376883 -0.02862489 0.9900619
vn -0.03369713 0.002536118 0.9994289
vn -0.02590692 0.01032639 0.999611
vn 0.1454785 -0.005254149 0.9893475
vn 0.161059 -0.01304442 0.9868585
vn -0.04148734 -0.01304442 0.9990538
vn -0.01811659 0.002536118 0.9998327
vn -0.07264829 -0.02862489 0.9969468
vn 0.1454785 0.002536118 0.9893582
vn 0.1688493 -0.01304442 0.9855555
vn 0.2000102 -0.02862489 0.9793756
vn 0.8777614 0.4699507 -0.09317308
vn 0.8777614 0.4699507 -0.09317308
vn 0.8777614 0.4699507 -0.09317308
vn 0.8777614 0.4699507 -0.09317308
vn 0.768698 0.6335458 -0.0878813
vn 0.768698 0.6335458 -0.0878813
vn 0.768698 0.6335458 -0.0878813
vn 0.768698 0.6335458 -0.0878813
vn 0.3558151 0.9373653 0
vn 0.3558151 0.9373653 0
vn 0.3558151 0.9373653 0
vn 0.3558151 0.9373653 0
vn -0.3686775 0.9295751 0
vn -0.3686775 0.9295751 0
vn -0.3686775 0.9295751 0
vn -0.3686775 0.9295751 0
vn -0.8750434 0.4855312 0
vn -0.8750434 0.4855312 0
vn -0.8750434 0.4855312 0
vn -0.8750434 0.4855312 0
vn -0.7581897 0.6491263 0.06151012
vn -0.7581897 0.6491263 0.06151012
vn -0.7581897 0.6491263 0.06151012
vn -0.7581897 0.6491263 0.06151012
vn 0.9868248 0.1427605 -0.07613308
vn 0.9868248 0.1427605 -0.07613308
vn 0.9868248 0.1427605 -0.07613308
vn 0.9868248 0.1427605 -0.07613308
vn -0.991897 0.1505507 0
vn -0.991897 0.1505507 0
vn -0.991897 0.1505507 0
vn -0.991897 0.1505507 0
vn 0.9790346 -0.1844298 -0.08646926
vn 0.9790346 -0.1844298 -0.08646926
vn 0.9790346 -0.1844298 -0.08646926
vn 0.9790346 -0.1844298 -0.08646926
vn -0.9841068 -0.1844298 0
vn -0.9841068 -0.1844298 0
vn -0.9841068 -0.1844298 0
vn -0.9841068 -0.1844298 0
vn 0.768698 -0.6284736 -0.1188453
vn 0.768698 -0.6284736 -0.1188453
vn 0.768698 -0.6284736 -0.1188453
vn 0.768698 -0.6284736 -0.1188453
vn 0.5272005 -0.8466004 -0.07298906
vn 0.5272005 -0.8466004 -0.07298906
vn 0.5272005 -0.8466004 -0.07298906
vn 0.5272005 -0.8466004 -0.07298906
vn 0.2701224 -0.9634541 0
vn 0.2701224 -0.9634541 0
vn 0.2701224 -0.9634541 0
vn -0.2751946 -0.9634541 0
vn -0.2751946 -0.9634541 0
vn -0.2751946 -0.9634541 0
vn -0.5945946 -0.799859 0.08174884
vn -0.5945946 -0.799859 0.08174884
vn -0.5945946 -0.799859 0.08174884
vn -0.5945946 -0.799859 0.08174884
vn -0.7737702 -0.6284736 -0.07937574
vn -0.7737702 -0.6284736 -0.07937574
vn -0.7737702 -0.6284736 -0.07937574
vn -0.7737702 -0.6284736 -0.07937574
vn -0.5790141 -0.2857029 0.7636207
vn -0.5790141 -0.2857029 0.7636207
vn -0.5790141 -0.2857029 0.7636207
vn -0.5790141 -0.2857029 0.7636207
vn -0.4699507 -0.3869761 0.7933447
vn -0.4699507 -0.3869761 0.7933447
vn -0.4699507 -0.3869761 0.7933447
vn -0.4699507 -0.3869761 0.7933447
vn -0.1661313 -0.5272005 0.8333427
vn -0.1661313 -0.5272005 0.8333427
vn -0.1661313 -0.5272005 0.8333427
vn -0.1661313 -0.5272005 0.8333427
vn 0.2389615 -0.5272005 0.815449
vn 0.2389615 -0.5272005 0.815449
vn 0.2389615 -0.5272005 0.815449
vn 0.2389615 -0.5272005 0.815449
vn 0.6518444 -0.2934932 0.6992572
vn 0.6518444 -0.2934932 0.6992572
vn 0.6518444 -0.2934932 0.6992572
vn 0.6518444 -0.2934932 0.6992572
vn 0.5505712 -0.3947663 0.735548
vn 0.5505712 -0.3947663 0.735548
vn 0.5505712 -0.3947663 0.735548
vn 0.5505712 -0.3947663 0.735548
vn -0.6647068 -0.08315659 0.742462
vn -0.6647068 -0.08315659 0.742462
vn -0.6647068 -0.08315659 0.742462
vn -0.6647068 -0.08315659 0.742462
vn 0.737537 -0.09094685 0.6691545
vn 0.737537 -0.09094685 0.6691545
vn 0.737537 -0.09094685 0.6691545
vn 0.737537 -0.09094685 0.6691545
vn -0.6569165 0.1115996 0.7456583
vn -0.6569165 0.1115996 0.7456583
vn -0.6569165 0.1115996 0.7456583
vn -0.6569165 0.1115996 0.7456583
vn 0.9868248 0.07264829 -0.144565
vn 0.9868248 0.07264829 -0.144565
vn 0.9868248 0.07264829 -0.144565
vn 0.7297468 0.1115996 0.6745481
vn 0.7297468 0.1115996 0.6745481
vn 0.7297468 0.1115996 0.6745481
vn 0.7297468 0.1115996 0.6745481
vn -0.5322727 0.3998386 0.7462003
vn -0.5322727 0.3998386 0.7462003
vn -0.5322727 0.3998386 0.7462003
vn -0.5322727 0.3998386 0.7462003
vn -0.3530971 0.5712239 0.7409627
vn -0.3530971 0.5712239 0.7409627
vn -0.3530971 0.5712239 0.7409627
vn -0.3530971 0.5712239 0.7409627
vn -0.1349703 0.6647068 0.7348114
vn -0.1349703 0.6647068 0.7348114
vn -0.1349703 0.6647068 0.7348114
vn -0.1349703 0.6647068 0.7348114
vn -0.9841068 0.1739215 0.03584915
vn -0.9841068 0.1739215 0.03584915
vn -0.9841068 0.1739215 0.03584915
vn -0.9841068 0.1739215 -0.03584915
vn -0.991897 0.12718 0
vn -0.991897 0.12718 0
vn 0.2389615 0.6491263 0.7221721
vn 0.2389615 0.6491263 0.7221721
vn 0.2389615 0.6491263 0.7221721
vn 0.2389615 0.6491263 0.7221721
vn 0.480459 0.5244824 0.7029064
vn 0.480459 0.5244824 0.7029064
vn 0.480459 0.5244824 0.7029064
vn 0.480459 0.5244824 0.7029064
vn 0.6128931 0.3998386 0.6815359
vn 0.6128931 0.3998386 0.6815359
vn 0.6128931 0.3998386 0.6815359
vn 0.6128931 0.3998386 0.6815359
vn 0.9868248 0.1661313 0
vn 0.9868248 0.1661313 0
vn 0.9868248 0.1661313 0
vn 0.9868248 0.1661313 0
vn 0.9946151 0.1038092 0
vn 0.9946151 0.1038092 0
vn 0.9946151 0.1038092 0
g Plane001_0
f 3/3/3 2/2/2 1/1/1
f 4/4/4 3/3/3 1/1/1
f 5/5/5 3/3/3 4/4/4
f 6/6/6 3/3/3 5/5/5
f 7/7/7 3/3/3 6/6/6
f 8/8/8 7/7/7 6/6/6
f 3/3/3 9/9/9 2/2/2
f 9/9/9 10/10/10 2/2/2
f 11/11/11 9/9/9 3/3/3
f 7/7/7 11/11/11 3/3/3
f 9/9/9 12/12/12 10/10/10
f 12/12/12 13/13/13 10/10/10
f 11/11/11 14/14/14 9/9/9
f 14/14/14 15/15/15 9/9/9
f 12/12/12 16/16/16 13/13/13
f 16/16/16 17/17/17 13/13/13
f 12/12/12 18/18/18 16/16/16
f 14/14/14 19/19/19 15/15/15
f 19/19/19 20/20/20 15/15/15
f 15/15/15 20/20/20 21/21/21
f 24/24/24 23/23/23 22/22/22
f 25/25/25 24/24/24 22/22/22
f 28/28/28 27/27/27 26/26/26
f 29/29/29 28/28/28 26/26/26
f 32/32/32 31/31/31 30/30/30
f 33/33/33 32/32/32 30/30/30
f 36/36/36 35/35/35 34/34/34
f 37/37/37 36/36/36 34/34/34
f 40/40/40 39/39/39 38/38/38
f 41/41/41 40/40/40 38/38/38
f 44/44/44 43/43/43 42/42/42
f 45/45/45 44/44/44 42/42/42
f 48/48/48 47/47/47 46/46/46
f 49/49/49 48/48/48 46/46/46
f 52/52/52 51/51/51 50/50/50
f 53/53/53 52/52/52 50/50/50
f 56/56/56 55/55/55 54/54/54
f 57/57/57 56/56/56 54/54/54
f 60/60/60 59/59/59 58/58/58
f 61/61/61 60/60/60 58/58/58
f 64/64/64 63/63/63 62/62/62
f 65/65/65 64/64/64 62/62/62
f 68/68/68 67/67/67 66/66/66
f 69/69/69 68/68/68 66/66/66
f 72/72/72 71/71/71 70/70/70
f 75/75/75 74/74/74 73/73/73
f 78/78/78 77/77/77 76/76/76
f 79/79/79 78/78/78 76/76/76
f 82/82/82 81/81/81 80/80/80
f 83/83/83 82/82/82 80/80/80
f 86/86/86 85/85/85 84/84/84
f 87/87/87 86/86/86 84/84/84
f 90/90/90 89/89/89 88/88/88
f 91/91/91 90/90/90 88/88/88
f 94/94/94 93/93/93 92/92/92
f 95/95/95 94/94/94 92/92/92
f 98/98/98 97/97/97 96/96/96
f 99/99/99 98/98/98 96/96/96
f 102/102/102 101/101/101 100/100/100
f 103/103/103 102/102/102 100/100/100
f 106/106/106 105/105/105 104/104/104
f 107/107/107 106/106/106 104/104/104
f 110/110/110 109/109/109 108/108/108
f 111/111/111 110/110/110 108/108/108
f 114/114/114 113/113/113 112/112/112
f 115/115/115 114/114/114 112/112/112
f 118/118/118 117/117/117 116/116/116
f 119/119/119 118/118/118 116/116/116
f 122/122/122 121/121/121 120/120/120
f 125/125/125 124/124/124 123/123/123
f 126/126/126 125/125/125 123/123/123
f 129/129/129 128/128/128 127/127/127
f 130/130/130 129/129/129 127/127/127
f 133/133/133 132/132/132 131/131/131
f 134/134/134 133/133/133 131/131/131
f 137/137/137 136/136/136 135/135/135
f 138/138/138 137/137/137 135/135/135
f 141/141/141 140/140/140 139/139/139
f 140/140/140 142/142/142 139/139/139
f 139/139/139 142/142/142 143/143/143
f 142/142/142 144/144/144 143/143/143
f 147/147/147 146/146/146 145/145/145
f 148/148/148 147/147/147 145/145/145
f 151/151/151 150/150/150 149/149/149
f 152/152/152 151/151/151 149/149/149
f 155/155/155 154/154/154 153/153/153
f 156/156/156 155/155/155 153/153/153
f 159/159/159 158/158/158 157/157/157
f 160/160/160 159/159/159 157/157/157
f 163/163/163 162/162/162 161/161/161
