g Plane001
v -3.242493E-05 1.696308 0.5093355
v -1.379755 4.999948 3.242493E-05
v -3.242493E-05 4.999948 0.5093355
v -1.658263 1.696308 3.242493E-05
v -1.549592 -0.4401169 3.242493E-05
v -3.242493E-05 -0.4401169 0.5093355
v -0.9810133 -5.000093 3.242493E-05
v -3.242493E-05 -4.304346 0.5093355
v 1.379689 4.999948 3.242493E-05
v 1.658408 1.696308 3.242493E-05
v 1.549527 -0.4401169 3.242493E-05
v 0.9811592 -5.000093 3.242493E-05
v -1.079175 -6.182861 -0.9126353
v -1.549592 -0.4401169 3.242493E-05
v -0.9810133 -5.000093 3.242493E-05
v -1.549592 -0.4401169 3.242493E-05
v -1.079175 -6.182861 -0.9126353
v -1.549592 -0.4401169 -0.9126353
v -1.658263 1.696308 3.242493E-05
v -1.658263 1.696308 -0.9126353
v 1.379689 4.999948 -0.9126353
v 1.658408 1.696308 3.242493E-05
v 1.379689 4.999948 3.242493E-05
v 1.658408 1.696308 -0.9126353
v -1.658263 1.696308 -0.9126353
v -1.379755 4.999948 3.242493E-05
v -1.658263 1.696308 3.242493E-05
v -1.379755 4.999948 -0.9126353
v 1.658408 1.696308 -0.9126353
v 1.549527 -0.4401169 3.242493E-05
v 1.658408 1.696308 3.242493E-05
v 1.549527 -0.4401169 -0.9126353
v 1.549527 -0.4401169 -0.9126353
v 0.9811592 -5.000093 3.242493E-05
v 1.549527 -0.4401169 3.242493E-05
v 0.9811592 -5.000093 3.242493E-05
v 1.549527 -0.4401169 -0.9126353
v 1.07911 -6.182861 -0.9126353
v -0.9606247 7.592285 3.242493E-05
v -3.242493E-05 4.999948 0.5093355
v -1.379755 4.999948 3.242493E-05
v -3.242493E-05 4.999948 0.5093355
v -0.9606247 7.592285 3.242493E-05
v -3.242493E-05 7.592285 0.5093355
v -0.9606247 7.592285 3.242493E-05
v -1.379755 4.999948 -0.9126353
v -0.9606247 7.592285 -0.9126353
v -1.379755 4.999948 3.242493E-05
v 0.9607701 7.592285 -0.9126353
v 1.379689 4.999948 3.242493E-05
v 0.9607701 7.592285 3.242493E-05
v 1.379689 4.999948 -0.9126353
v 0.9607701 7.592285 3.242493E-05
v -3.242493E-05 4.999948 0.5093355
v -3.242493E-05 7.592285 0.5093355
v -3.242493E-05 4.999948 0.5093355
v 0.9607701 7.592285 3.242493E-05
v 1.379689 4.999948 3.242493E-05
v -0.9810133 -5.825739 -0.9126353
v 0.9811592 -5.000093 3.242493E-05
v 0.9811592 -5.825739 -0.9126353
v 0.9811592 -5.000093 3.242493E-05
v -0.9810133 -5.825739 -0.9126353
v -0.9810133 -5.000093 3.242493E-05
v -0.9810133 -5.000093 3.242493E-05
v -3.242493E-05 -4.304346 0.5093355
v 0.9811592 -5.000093 3.242493E-05
v -1.362308 -0.427505 -0.1151547
v -0.8836927 -6.161211 -0.9485788
v -0.862884 -4.918957 -0.1395373
v -0.8836927 -6.161211 -0.9485788
v -1.362308 -0.427505 -0.1151547
v -1.320478 -0.4254031 -0.9126353
v -0.862884 -4.918957 -0.1395373
v -3.242493E-05 -0.4361229 0.3094397
v -1.362308 -0.427505 -0.1151547
v -3.242493E-05 -4.266301 0.3130131
v 0.8552523 -4.921479 -0.1340723
v 1.361403 -0.4241419 -0.1134729
v 0.8552523 -4.921479 -0.1340723
v 1.321045 -0.4203582 -0.9166293
v 1.361403 -0.4241419 -0.1134729
v 1.321045 -0.4203582 -0.9166293
v 0.8552523 -4.921479 -0.1340723
v 0.8834186 -6.169409 -0.9511013
v -3.242493E-05 4.995533 0.3094397
v -0.7958317 7.572106 -0.111371
v -1.216222 4.981239 -0.1136832
v -0.7958317 7.572106 -0.111371
v -3.242493E-05 4.995533 0.3094397
v -3.242493E-05 7.592285 0.3092294
v -1.181119 4.975564 -0.9126353
v -0.7958317 7.572106 -0.111371
v -0.7632513 7.560335 -0.9126353
v -1.216222 4.981239 -0.1136832
v 1.216157 4.981239 -0.1136832
v 0.7631869 7.560335 -0.9126353
v 0.7957668 7.572106 -0.111371
v 1.181265 4.975564 -0.9126353
v -3.242493E-05 4.995533 0.3094397
v 0.7957668 7.572106 -0.111371
v -3.242493E-05 7.592285 0.3092294
v 0.7957668 7.572106 -0.111371
v -3.242493E-05 4.995533 0.3094397
v 1.216157 4.981239 -0.1136832
v 0.8552523 -4.921479 -0.1340723
v -0.9810133 -5.677342 -1.04674
v 0.9811592 -5.677342 -1.04674
v -0.9810133 -5.677342 -1.04674
v 0.8552523 -4.921479 -0.1340723
v -0.862884 -4.918957 -0.1395373
v -3.242493E-05 -4.266301 0.3130131
v -0.862884 -4.918957 -0.1395373
v 0.8552523 -4.921479 -0.1340723
v -1.320478 -0.4254031 -0.9126353
v -1.079175 -6.182861 -0.9126353
v -0.8836927 -6.161211 -0.9485788
v -1.549592 -0.4401169 -0.9126353
v -1.458367 1.695677 -0.9126353
v -1.658263 1.696308 -0.9126353
v -1.181119 4.975564 -0.9126353
v -1.379755 4.999948 -0.9126353
v -0.7632513 7.560335 -0.9126353
v -0.9606247 7.592285 -0.9126353
v -0.8836927 -6.161211 -0.9485788
v -0.9810133 -5.000093 3.242493E-05
v -0.862884 -4.918957 -0.1395373
v -1.079175 -6.182861 -0.9126353
v 1.458302 1.695677 -0.9126353
v 1.379689 4.999948 -0.9126353
v 1.181265 4.975564 -0.9126353
v 1.658408 1.696308 -0.9126353
v 1.321045 -0.4203582 -0.9166293
v 1.549527 -0.4401169 -0.9126353
v 0.8834186 -6.169409 -0.9511013
v 1.07911 -6.182861 -0.9126353
v 0.9607701 7.592285 -0.9126353
v 0.7631869 7.560335 -0.9126353
v 0.8552523 -4.921479 -0.1340723
v 1.07911 -6.182861 -0.9126353
v 0.8834186 -6.169409 -0.9511013
v 0.9811592 -5.000093 3.242493E-05
v -3.242493E-05 7.592285 0.3092294
v -0.9606247 7.592285 3.242493E-05
v -0.7958317 7.572106 -0.111371
v -3.242493E-05 7.592285 0.5093355
v -0.9606247 7.592285 -0.9126353
v -0.7632513 7.560335 -0.9126353
v 0.7957668 7.572106 -0.111371
v 0.9607701 7.592285 3.242493E-05
v 0.7631869 7.560335 -0.9126353
v 0.9607701 7.592285 -0.9126353
v -0.862884 -4.918957 -0.1395373
v -0.9810133 -5.825739 -0.9126353
v -0.9810133 -5.677342 -1.04674
v -0.9810133 -5.000093 3.242493E-05
v -0.9810133 -5.677342 -1.04674
v 0.9811592 -5.825739 -0.9126353
v 0.9811592 -5.677342 -1.04674
v -0.9810133 -5.825739 -0.9126353
v 0.9811592 -5.677342 -1.04674
v 0.9811592 -5.000093 3.242493E-05
v 0.8552523 -4.921479 -0.1340723
v 0.9811592 -5.825739 -0.9126353
v 1.181265 4.975564 -0.9126353
v 1.458302 1.695677 -0.6402225
v 1.458302 1.695677 -0.9126353
v 1.181265 4.975564 -0.6402225
v -1.458367 1.695677 -0.9126353
v -1.181119 4.975564 -0.6402225
v -1.181119 4.975564 -0.9126353
v -1.458367 1.695677 -0.6402225
v 1.458302 1.695677 -0.9126353
v 1.321045 -0.4203582 -0.6440058
v 1.321045 -0.4203582 -0.9166293
v 1.458302 1.695677 -0.6402225
v -1.320478 -0.4254031 -0.9126353
v -1.458367 1.695677 -0.6402225
v -1.458367 1.695677 -0.9126353
v -1.320478 -0.4254031 -0.6402225
v -1.181119 4.975564 -0.6402225
v 1.458302 1.695677 -0.6402225
v 1.181265 4.975564 -0.6402225
v -1.458367 1.695677 -0.6402225
v 1.321045 -0.4203582 -0.6440058
v -1.320478 -0.4254031 -0.6402225
v -1.348225 3.946028 -0.8012319
v 1.375906 4.239882 -0.8012319
v -1.348225 4.239882 -0.8012319
v 1.375906 3.946028 -0.8012319
v -1.348225 3.946028 -0.6555667
v 1.375906 3.946028 -0.8012319
v -1.348225 3.946028 -0.8012319
v 1.375906 3.946028 -0.6555667
v 1.375906 4.239882 -0.6555667
v -1.348225 4.239882 -0.8012319
v 1.375906 4.239882 -0.8012319
v -1.348225 4.239882 -0.6555667
v 1.181265 4.975564 -0.6402225
v -1.181119 4.975564 -0.2660747
v -1.181119 4.975564 -0.6402225
v 1.181265 4.975564 -0.2660747
v -1.320478 -0.4254031 -0.6402225
v 1.321045 -0.4203582 -0.2700686
v 1.321045 -0.4203582 -0.6440058
v -1.320478 -0.4254031 -0.2660747
v -1.036715 -5.443604 -0.8012319
v 1.183157 -3.556682 -0.8012319
v -1.155475 -3.556682 -0.8012319
v 1.064396 -5.443604 -0.8012319
v -1.036715 -5.443604 -0.6555667
v 1.064396 -5.443604 -0.8012319
v -1.036715 -5.443604 -0.8012319
v 1.064396 -5.443604 -0.6555667
v 1.183157 -3.556682 -0.6555667
v -1.155475 -3.556682 -0.8012319
v 1.183157 -3.556682 -0.8012319
v -1.155475 -3.556682 -0.6555667
v -1.179858 3.777872 -1.706543
v -1.119112 2.179337 -1.140697
v -1.051639 2.179337 -1.570127
v -1.255528 3.777872 -1.277114
v -0.9618859 3.777872 -2.084264
v -0.857419 2.179337 -1.947847
v -0.6278853 3.777872 -2.364454
v -0.5595722 2.179337 -2.228037
v -0.2180047 3.777872 -2.513483
v -0.1942525 2.179337 -2.377276
v 0.2179399 3.777872 -2.513483
v 0.1943979 2.179337 -2.377276
v 0.627821 3.777872 -2.364454
v 0.5595074 2.179337 -2.228037
v 0.9618211 3.777872 -2.084264
v 0.8573542 2.179337 -1.947847
v 1.179794 3.777872 -1.706543
v 1.051785 2.179337 -1.570127
v 1.255464 3.777872 -1.277114
v 1.119257 2.179337 -1.140697
v -0.6278853 0.5808015 -2.364454
v -0.9618859 0.5808015 -2.084264
v -0.2180047 0.5808015 -2.513483
v 0.2179399 0.5808015 -2.513483
v 0.627821 0.5808015 -2.364454
v 0.9618211 0.5808015 -2.084264
v 1.179794 0.5808015 -1.706543
v 1.255464 0.5808015 -1.277114
v -1.179858 0.5808015 -1.706543
v -1.255528 0.5808015 -1.277114
v 1.119257 2.179337 -1.140697
v 1.255464 0.5808015 -0.5862021
v 1.119257 2.179337 -0.449996
v 1.255464 0.5808015 -1.277114
v -1.119112 2.179337 -1.140697
v -1.255528 3.777872 -0.5862021
v -1.119112 2.179337 -0.449996
v -1.255528 3.777872 -1.277114
v -1.056264 3.777872 -1.259668
v -1.179858 3.777872 -1.706543
v -0.9919434 3.777872 -1.63802
v -1.255528 3.777872 -1.277114
v -0.9618859 3.777872 -2.084264
v -0.8086534 3.777872 -1.955625
v -0.6278853 3.777872 -2.364454
v -0.5278325 3.777872 -2.191253
v -0.2180047 3.777872 -2.513483
v -0.1833229 3.777872 -2.31653
v 0.2179399 3.777872 -2.513483
v 0.1832581 3.777872 -2.31653
v 0.627821 3.777872 -2.364454
v 0.5277681 3.777872 -2.191253
v 0.9618211 3.777872 -2.084264
v 0.808589 3.777872 -1.955625
v 1.179794 3.777872 -1.706543
v 0.991879 3.777872 -1.63802
v 1.255464 3.777872 -1.277114
v 1.056409 3.777872 -1.259668
v 1.255464 3.777872 -0.5862021
v 1.055568 3.777872 -0.5862021
v -0.9919434 0.5808015 -1.63802
v -1.255528 0.5808015 -1.277114
v -1.056264 0.5808015 -1.259668
v -1.179858 0.5808015 -1.706543
v -0.8086534 0.5808015 -1.955625
v -0.9618859 0.5808015 -2.084264
v -0.5278325 0.5808015 -2.191253
v -0.6278853 0.5808015 -2.364454
v -0.1833229 0.5808015 -2.31653
v -0.2180047 0.5808015 -2.513483
v 0.1832581 0.5808015 -2.31653
v 0.2179399 0.5808015 -2.513483
v 0.5277681 0.5808015 -2.191253
v 0.627821 0.5808015 -2.364454
v 0.808589 0.5808015 -1.955625
v 0.9618211 0.5808015 -2.084264
v 0.991879 0.5808015 -1.638229
v 1.179794 0.5808015 -1.706543
v 1.056409 0.5808015 -1.259668
v 1.255464 0.5808015 -1.277114
v 1.055568 0.5808015 -0.5862021
v 1.255464 0.5808015 -0.5862021
v -1.255528 0.5808015 -0.5862021
v -1.055633 0.5808015 -0.5862021
v -1.055633 3.777872 -0.5862021
v -1.255528 3.777872 -0.5862021
v 1.255464 3.777872 -1.277114
v 1.119257 2.179337 -0.449996
v 1.255464 3.777872 -0.5862021
v 1.119257 2.179337 -1.140697
v -1.255528 0.5808015 -1.277114
v -1.119112 2.179337 -0.449996
v -1.255528 0.5808015 -0.5862021
v -1.119112 2.179337 -1.140697
vn -0.003921628 0.003921628 0.9999846
vn -0.3333309 0.003921628 0.9428017
vn -0.003921628 0.003921628 0.9999846
vn -0.2941154 0.003921628 0.9557618
vn -0.3098016 -0.01960766 0.950599
vn -0.003921628 -0.01960766 0.9998001
vn -0.8980324 0.349017 0.267815
vn -0.003921628 0.003921628 0.9999846
vn 0.3333308 0.003921628 0.9428018
vn 0.2941154 0.003921628 0.9557618
vn 0.3098015 -0.01960766 0.9505991
vn 0.8666601 0.3803893 0.3228069
vn -0.960777 -0.1215677 0.2492564
vn -0.960777 -0.1215677 0.2492564
vn -0.960777 -0.1215677 0.2492564
vn -0.9999924 -0.08235228 0
vn -0.9999924 -0.08235228 0
vn -0.9999924 -0.08235228 0
vn -0.9999924 -0.05097997 0
vn -0.9999924 -0.05097997 0
vn 0.9999924 0.0823524 0
vn 0.9999924 0.0823524 0
vn 0.9999924 0.0823524 0
vn 0.9999924 0.0823524 0
vn -0.9999924 0.0823524 0
vn -0.9999924 0.0823524 0
vn -0.9999924 0.0823524 0
vn -0.9999924 0.0823524 0
vn 0.9999924 -0.05097997 0
vn 0.9999924 -0.05097997 0
vn 0.9999924 -0.05097997 0
vn 0.9999924 -0.05097997 0
vn 0.9921493 -0.1215677 -0.02934423
vn 0.9921493 -0.1215677 -0.02934423
vn 0.9921493 -0.1215677 -0.02934423
vn 0.9764631 -0.08235228 0.1993436
vn 0.9764631 -0.08235228 0.1993436
vn 0.9764631 -0.08235228 0.1993436
vn -0.349017 0.05882311 0.9352684
vn -0.349017 0.05882311 0.9352684
vn -0.349017 0.05882311 0.9352684
vn -0.4666631 0.003921628 0.8844265
vn -0.4666631 0.003921628 0.8844265
vn -0.4666631 0.003921628 0.8844265
vn -0.9843062 0.1607832 -0.07273275
vn -0.9843062 0.1607832 -0.07273275
vn -0.9843062 0.1607832 -0.07273275
vn -0.9843062 0.1607832 -0.07273275
vn 0.9843062 0.1607832 -0.07273275
vn 0.9843062 0.1607832 -0.07273275
vn 0.9843062 0.1607832 -0.07273275
vn 0.9843062 0.1607832 -0.07273275
vn 0.4666631 0.003921628 0.8844265
vn 0.4666631 0.003921628 0.8844265
vn 0.4666631 0.003921628 0.8844265
vn 0.3490169 0.05882311 0.9352684
vn 0.3490169 0.05882311 0.9352684
vn 0.3490169 0.05882311 0.9352684
vn -0.003921628 -0.7411708 0.6713051
vn -0.4196047 -0.6470538 0.6365951
vn -0.003921628 -0.7411708 0.6713051
vn -0.4196047 -0.6470538 0.6365951
vn -0.003921628 -0.7411708 0.6713051
vn 0.4196046 -0.6156815 0.6669844
vn -0.003921628 -0.5921524 0.8058165
vn -0.003921628 -0.5921524 0.8058165
vn -0.003921628 -0.5921524 0.8058165
vn 0.9764631 0.1058816 -0.1879065
vn 0.9764631 0.1058816 -0.1879065
vn 0.9764631 0.1058816 -0.1879065
vn 0.9921493 0.07450926 0.1004398
vn 0.9921493 0.07450926 0.1004398
vn 0.9921493 0.07450926 0.1004398
vn -0.4901924 0.3725462 -0.7879852
vn 0.003921509 0.03529394 -0.9993693
vn 0.2941154 0.03529394 -0.9551181
vn -0.003921628 -0.003921509 -0.9999846
vn 0.4117615 0.4823493 -0.7731699
vn -0.2941154 0.03529394 -0.9551181
vn -0.9921494 0.1137247 0.05202262
vn -0.9921494 0.1137247 0.05202262
vn -0.9921494 0.1137247 0.05202262
vn -0.9843062 0.07450926 -0.1599677
vn -0.9843062 0.07450926 -0.1599677
vn -0.9843062 0.07450926 -0.1599677
vn 0.3254877 -0.05097997 -0.944171
vn 0.3254877 -0.05097997 -0.944171
vn 0.3254877 -0.05097997 -0.944171
vn 0.4666631 0.003921628 -0.8844265
vn 0.4666631 0.003921628 -0.8844265
vn 0.4666631 0.003921628 -0.8844265
vn 0.9843062 -0.1607831 0.07273301
vn 0.9843062 -0.1607831 0.07273301
vn 0.9843062 -0.1607831 0.07273301
vn 0.9843062 -0.1607831 0.07273301
vn -0.9843062 -0.1607831 0.07273301
vn -0.9843062 -0.1607831 0.07273301
vn -0.9843062 -0.1607831 0.07273301
vn -0.9843062 -0.1607831 0.07273301
vn -0.4666631 0.003921628 -0.8844265
vn -0.4666631 0.003921628 -0.8844265
vn -0.4666631 0.003921628 -0.8844265
vn -0.3254877 -0.05097997 -0.944171
vn -0.3254877 -0.05097997 -0.944171
vn -0.3254877 -0.05097997 -0.944171
vn -0.8823463 0.4352908 -0.178849
vn 0.003921509 0.7647001 -0.6443745
vn -0.003921628 0.7725432 -0.6349501
vn 0.003921509 0.7647001 -0.6443745
vn -0.8823463 0.4352908 -0.178849
vn 0.8509739 0.4901924 -0.1885599
vn 0.003921509 0.5686232 -0.8225888
vn 0.003921509 0.5686232 -0.8225888
vn 0.003921509 0.5686232 -0.8225888
vn -0.003921628 -0.003921509 -0.9999846
vn -0.1764693 -0.003921509 -0.9842983
vn -0.1764693 -0.003921509 -0.9842983
vn -0.003921628 0.003921628 -0.9999846
vn -0.003921628 0.003921628 -0.9999846
vn -0.003921628 0.003921628 -0.9999846
vn -0.003921628 0.003921628 -0.9999846
vn -0.003921628 0.003921628 -0.9999846
vn -0.003921628 0.003921628 -0.9999846
vn -0.003921628 0.003921628 -0.9999846
vn 0.2627431 -0.5999954 0.7556266
vn 0.4196046 -0.6156815 0.6669844
vn 0.8509739 0.4901924 -0.1885599
vn 0.2078415 -0.6078385 0.7663774
vn -0.003921628 0.003921628 -0.9999846
vn -0.003921628 0.003921628 -0.9999846
vn -0.003921628 0.003921628 -0.9999846
vn 0.003921509 0.003921628 -0.9999846
vn 0.01960766 0.003921628 -0.9998001
vn 0.01960766 0.003921628 -0.9998001
vn 0.1843123 -0.01176459 -0.9827973
vn 0.1921554 -0.01960766 -0.9811686
vn -0.003921628 0.003921628 -0.9999846
vn -0.003921628 0.003921628 -0.9999846
vn -0.8823463 0.4352908 -0.178849
vn -0.247057 -0.5372508 0.806427
vn -0.1999985 -0.5372508 0.8193669
vn -0.4196047 -0.6470538 0.6365951
vn 0.01176459 0.9999924 0
vn 0.0745092 0.9921494 -0.1004392
vn 0.08235228 0.9921494 -0.09411582
vn 0.003921509 0.9999924 0
vn 0.15294 0.9843062 -0.08803766
vn 0.1607831 0.9843062 -0.07273301
vn -0.0823524 0.9921494 -0.0941155
vn -0.09019542 0.9921494 -0.0866283
vn -0.15294 0.9843062 -0.08803766
vn -0.1607832 0.9843062 -0.07273261
vn -0.4901924 0.3725462 -0.7879852
vn -0.9921494 0.1058816 0.0665489
vn -0.9921494 0.06666625 0.1058077
vn -0.8980324 0.349017 0.267815
vn -0.003921628 -0.6705831 -0.741824
vn -0.003921628 -0.6705831 -0.741824
vn -0.003921628 -0.6705831 -0.741824
vn -0.003921628 -0.6705831 -0.741824
vn 0.9999924 0.05882311 0
vn 0.8666601 0.3803893 0.3228069
vn 0.4117615 0.4823493 -0.7731699
vn 0.9999924 0.003921628 0
vn -0.9999924 -0.08235228 0
vn -0.9999924 -0.08235228 0
vn -0.9999924 -0.08235228 0
vn -0.9999924 -0.08235228 0
vn 0.9999924 -0.08235228 0
vn 0.9999924 -0.08235228 0
vn 0.9999924 -0.08235228 0
vn 0.9999924 -0.08235228 0
vn -0.9999924 0.06666625 0
vn -0.9999924 0.06666625 0
vn -0.9999924 0.06666625 0
vn -0.9999924 0.06666625 0
vn 0.9999924 0.06666625 0
vn 0.9999924 0.06666625 0
vn 0.9999924 0.06666625 0
vn 0.9999924 0.06666625 0
vn -0.003921628 0.003921628 -0.9999846
vn -0.003921628 0.003921628 -0.9999846
vn -0.003921628 0.003921628 -0.9999846
vn -0.003921628 0.003921628 -0.9999846
vn -0.003921628 0.003921628 -0.9999846
vn -0.003921628 -0.003921509 -0.9999846
vn -0.003921628 0.003921628 -0.9999846
vn -0.003921628 0.003921628 -0.9999846
vn -0.003921628 0.003921628 -0.9999846
vn -0.003921628 0.003921628 -0.9999846
vn -0.003921628 -0.9999924 0
vn -0.003921628 -0.9999924 0
vn -0.003921628 -0.9999924 0
vn -0.003921628 -0.9999924 0
vn -0.003921628 0.9999924 0
vn -0.003921628 0.9999924 0
vn -0.003921628 0.9999924 0
vn -0.003921628 0.9999924 0
vn -0.003921628 0.9999924 0
vn -0.003921628 0.9999924 0
vn -0.003921628 0.9999924 0
vn -0.003921628 0.9999924 0
vn 0.003921509 -0.9999924 0
vn 0.003921509 -0.9999924 0
vn 0.003921509 -0.9999924 0
vn 0.003921509 -0.9999924 0
vn -0.003921628 0.003921628 -0.9999846
vn -0.003921628 0.003921628 -0.9999846
vn -0.003921628 0.003921628 -0.9999846
vn -0.003921628 0.003921628 -0.9999846
vn -0.003921628 -0.9999924 0
vn -0.003921628 -0.9999924 0
vn -0.003921628 -0.9999924 0
vn -0.003921628 -0.9999924 0
vn -0.003921628 0.9999924 0
vn -0.003921628 0.9999924 0
vn -0.003921628 0.9999924 0
vn -0.003921628 0.9999924 0
vn -0.9294047 -0.1058815 -0.3535477
vn -0.9843062 0.003921628 -0.1764253
vn -0.9529339 0.003921628 -0.3031528
vn -0.9764632 -0.09803843 -0.1921148
vn -0.7647001 -0.1058815 -0.635628
vn -0.7960724 0.003921628 -0.6051888
vn -0.4980354 -0.09803843 -0.8615969
vn -0.5372509 0.003921628 -0.8434134
vn -0.1764693 -0.09019536 -0.980165
vn -0.1921555 0.003921628 -0.9813567
vn 0.1764692 -0.08235228 -0.9808551
vn 0.1921554 0.003921628 -0.9813567
vn 0.4980354 -0.09019536 -0.8624532
vn 0.5372508 0.003921628 -0.8434135
vn 0.7647001 -0.09803843 -0.6368849
vn 0.7960724 0.003921628 -0.6051888
vn 0.9372478 -0.09803843 -0.334597
vn 0.9529339 0.003921628 -0.3031528
vn 0.9843062 -0.09019536 -0.1516775
vn 0.9843062 0.003921628 -0.1764253
vn -0.4980354 0.09803855 -0.8615969
vn -0.7647001 0.1058816 -0.635628
vn -0.1764693 0.09019542 -0.980165
vn 0.1764692 0.0823524 -0.980855
vn 0.4980354 0.09019542 -0.8624532
vn 0.7647001 0.09803855 -0.6368849
vn 0.9372478 0.09803855 -0.3345969
vn 0.9843062 0.09019542 -0.1516775
vn -0.9294047 0.1058816 -0.3535477
vn -0.9764632 0.09803855 -0.1921148
vn 0.9999924 0.0823524 0
vn 0.9999924 0.0823524 0
vn 0.9999924 0.0823524 0
vn 0.9999924 0.0823524 0
vn -0.9999924 -0.08235228 0
vn -0.9999924 -0.08235228 0
vn -0.9999924 -0.08235228 0
vn -0.9999924 -0.08235228 0
vn -0.003921628 0.9999924 0
vn -0.003921628 0.9999924 0
vn -0.003921628 0.9999924 0
vn -0.003921628 0.9999924 0
vn -0.003921628 0.9999924 0
vn -0.003921628 0.9999924 0
vn -0.003921628 0.9999924 0
vn -0.003921628 0.9999924 0
vn -0.003921628 0.9999924 0
vn -0.003921628 0.9999924 0
vn -0.003921628 0.9999924 0
vn -0.003921628 0.9999924 0
vn -0.003921628 0.9999924 0
vn -0.003921628 0.9999924 0
vn -0.003921628 0.9999924 0
vn -0.003921628 0.9999924 0
vn -0.003921628 0.9999924 0
vn -0.003921628 0.9999924 0
vn -0.003921628 0.9999924 0
vn -0.003921628 0.9999924 0
vn -0.003921628 0.9999924 0
vn -0.003921628 0.9999924 0
vn -0.003921628 -0.9999924 0
vn -0.003921628 -0.9999924 0
vn -0.003921628 -0.9999924 0
vn -0.003921628 -0.9999924 0
vn -0.003921628 -0.9999924 0
vn -0.003921628 -0.9999924 0
vn -0.003921628 -0.9999924 0
vn -0.003921628 -0.9999924 0
vn -0.003921628 -0.9999924 0
vn -0.003921628 -0.9999924 0
vn -0.003921628 -0.9999924 0
vn -0.003921628 -0.9999924 0
vn -0.003921628 -0.9999924 0
vn -0.003921628 -0.9999924 0
vn -0.003921628 -0.9999924 0
vn -0.003921628 -0.9999924 0
vn -0.003921628 -0.9999924 0
vn -0.003921628 -0.9999924 0
vn -0.003921628 -0.9999924 0
vn -0.003921628 -0.9999924 0
vn -0.003921628 -0.9999924 0
vn -0.003921628 -0.9999924 0
vn -0.003921628 -0.9999924 0
vn -0.003921628 -0.9999924 0
vn -0.003921628 0.9999924 0
vn -0.003921628 0.9999924 0
vn 0.9999924 -0.08235228 0
vn 0.9999924 -0.08235228 0
vn 0.9999924 -0.08235228 0
vn 0.9999924 -0.08235228 0
vn -0.9999924 0.0823524 0
vn -0.9999924 0.0823524 0
vn -0.9999924 0.0823524 0
vn -0.9999924 0.0823524 0
g Plane001_0
f 3/3/3 2/2/2 1/1/1
f 4/4/4 1/1/1 2/2/2
f 4/4/4 5/5/5 1/1/1
f 6/6/6 1/1/1 5/5/5
f 5/5/5 7/7/7 6/6/6
f 8/8/8 6/6/6 7/7/7
f 3/3/3 1/1/1 9/9/9
f 10/10/10 9/9/9 1/1/1
f 6/6/6 11/11/11 1/1/1
f 10/10/10 1/1/1 11/11/11
f 8/8/8 12/12/12 6/6/6
f 11/11/11 6/6/6 12/12/12
f 15/15/15 14/14/14 13/13/13
f 18/18/18 17/17/17 16/16/16
f 16/16/16 19/19/19 18/18/18
f 20/20/20 18/18/18 19/19/19
f 23/23/23 22/22/22 21/21/21
f 24/24/24 21/21/21 22/22/22
f 27/27/27 26/26/26 25/25/25
f 28/28/28 25/25/25 26/26/26
f 31/31/31 30/30/30 29/29/29
f 32/32/32 29/29/29 30/30/30
f 35/35/35 34/34/34 33/33/33
f 38/38/38 37/37/37 36/36/36
f 41/41/41 40/40/40 39/39/39
f 44/44/44 43/43/43 42/42/42
f 47/47/47 46/46/46 45/45/45
f 48/48/48 45/45/45 46/46/46
f 51/51/51 50/50/50 49/49/49
f 52/52/52 49/49/49 50/50/50
f 55/55/55 54/54/54 53/53/53
f 58/58/58 57/57/57 56/56/56
f 61/61/61 60/60/60 59/59/59
f 64/64/64 63/63/63 62/62/62
f 67/67/67 66/66/66 65/65/65
f 70/70/70 69/69/69 68/68/68
f 73/73/73 72/72/72 71/71/71
f 76/76/76 75/75/75 74/74/74
f 77/77/77 74/74/74 75/75/75
f 77/77/77 75/75/75 78/78/78
f 79/79/79 78/78/78 75/75/75
f 82/82/82 81/81/81 80/80/80
f 85/85/85 84/84/84 83/83/83
f 88/88/88 87/87/87 86/86/86
f 91/91/91 90/90/90 89/89/89
f 94/94/94 93/93/93 92/92/92
f 95/95/95 92/92/92 93/93/93
f 98/98/98 97/97/97 96/96/96
f 99/99/99 96/96/96 97/97/97
f 102/102/102 101/101/101 100/100/100
f 105/105/105 104/104/104 103/103/103
f 108/108/108 107/107/107 106/106/106
f 111/111/111 110/110/110 109/109/109
f 114/114/114 113/113/113 112/112/112
f 117/117/117 116/116/116 115/115/115
f 118/118/118 115/115/115 116/116/116
f 115/115/115 118/118/118 119/119/119
f 120/120/120 119/119/119 118/118/118
f 119/119/119 120/120/120 121/121/121
f 122/122/122 121/121/121 120/120/120
f 121/121/121 122/122/122 123/123/123
f 124/124/124 123/123/123 122/122/122
f 127/127/127 126/126/126 125/125/125
f 128/128/128 125/125/125 126/126/126
f 131/131/131 130/130/130 129/129/129
f 132/132/132 129/129/129 130/130/130
f 129/129/129 132/132/132 133/133/133
f 134/134/134 133/133/133 132/132/132
f 133/133/133 134/134/134 135/135/135
f 136/136/136 135/135/135 134/134/134
f 130/130/130 131/131/131 137/137/137
f 138/138/138 137/137/137 131/131/131
f 141/141/141 140/140/140 139/139/139
f 142/142/142 139/139/139 140/140/140
f 145/145/145 144/144/144 143/143/143
f 146/146/146 143/143/143 144/144/144
f 144/144/144 145/145/145 147/147/147
f 148/148/148 147/147/147 145/145/145
f 143/143/143 146/146/146 149/149/149
f 150/150/150 149/149/149 146/146/146
f 149/149/149 150/150/150 151/151/151
f 152/152/152 151/151/151 150/150/150
f 155/155/155 154/154/154 153/153/153
f 156/156/156 153/153/153 154/154/154
f 159/159/159 158/158/158 157/157/157
f 160/160/160 157/157/157 158/158/158
f 163/163/163 162/162/162 161/161/161
f 164/164/164 161/161/161 162/162/162
f 167/167/167 166/166/166 165/165/165
f 168/168/168 165/165/165 166/166/166
f 171/171/171 170/170/170 169/169/169
f 172/172/172 169/169/169 170/170/170
f 175/175/175 174/174/174 173/173/173
f 176/176/176 173/173/173 174/174/174
f 179/179/179 178/178/178 177/177/177
f 180/180/180 177/177/177 178/178/178
f 183/183/183 182/182/182 181/181/181
f 184/184/184 181/181/181 182/182/182
f 182/182/182 185/185/185 184/184/184
f 186/186/186 184/184/184 185/185/185
f 189/189/189 188/188/188 187/187/187
f 190/190/190 187/187/187 188/188/188
f 193/193/193 192/192/192 191/191/191
f 194/194/194 191/191/191 192/192/192
f 197/197/197 196/196/196 195/195/195
f 198/198/198 195/195/195 196/196/196
f 201/201/201 200/200/200 199/199/199
f 202/202/202 199/199/199 200/200/200
f 205/205/205 204/204/204 203/203/203
f 206/206/206 203/203/203 204/204/204
f 209/209/209 208/208/208 207/207/207
f 210/210/210 207/207/207 208/208/208
f 213/213/213 212/212/212 211/211/211
f 214/214/214 211/211/211 212/212/212
f 217/217/217 216/216/216 215/215/215
f 218/218/218 215/215/215 216/216/216
g Plane001_1
f 221/221/221 220/220/220 219/219/219
f 222/222/222 219/219/219 220/220/220
f 219/219/219 223/223/223 221/221/221
f 224/224/224 221/221/221 223/223/223
f 223/223/223 225/225/225 224/224/224
f 226/226/226 224/224/224 225/225/225
f 225/225/225 227/227/227 226/226/226
f 228/228/228 226/226/226 227/227/227
f 227/227/227 229/229/229 228/228/228
f 230/230/230 228/228/228 229/229/229
f 229/229/229 231/231/231 230/230/230
f 232/232/232 230/230/230 231/231/231
f 231/231/231 233/233/233 232/232/232
f 234/234/234 232/232/232 233/233/233
f 233/233/233 235/235/235 234/234/234
f 236/236/236 234/234/234 235/235/235
f 235/235/235 237/237/237 236/236/236
f 238/238/238 236/236/236 237/237/237
f 226/226/226 239/239/239 224/224/224
f 240/240/240 224/224/224 239/239/239
f 239/239/239 226/226/226 241/241/241
f 228/228/228 241/241/241 226/226/226
f 241/241/241 228/228/228 242/242/242
f 230/230/230 242/242/242 228/228/228
f 242/242/242 230/230/230 243/243/243
f 232/232/232 243/243/243 230/230/230
f 243/243/243 232/232/232 244/244/244
f 234/234/234 244/244/244 232/232/232
f 244/244/244 234/234/234 245/245/245
f 236/236/236 245/245/245 234/234/234
f 245/245/245 236/236/236 246/246/246
f 238/238/238 246/246/246 236/236/236
f 247/247/247 221/221/221 240/240/240
f 221/221/221 247/247/247 220/220/220
f 248/248/248 220/220/220 247/247/247
f 224/224/224 240/240/240 221/221/221
f 251/251/251 250/250/250 249/249/249
f 252/252/252 249/249/249 250/250/250
f 255/255/255 254/254/254 253/253/253
f 256/256/256 253/253/253 254/254/254
f 259/259/259 258/258/258 257/257/257
f 260/260/260 257/257/257 258/258/258
f 258/258/258 259/259/259 261/261/261
f 262/262/262 261/261/261 259/259/259
f 261/261/261 262/262/262 263/263/263
f 264/264/264 263/263/263 262/262/262
f 263/263/263 264/264/264 265/265/265
f 266/266/266 265/265/265 264/264/264
f 265/265/265 266/266/266 267/267/267
f 268/268/268 267/267/267 266/266/266
f 267/267/267 268/268/268 269/269/269
f 270/270/270 269/269/269 268/268/268
f 269/269/269 270/270/270 271/271/271
f 272/272/272 271/271/271 270/270/270
f 271/271/271 272/272/272 273/273/273
f 274/274/274 273/273/273 272/272/272
f 273/273/273 274/274/274 275/275/275
f 276/276/276 275/275/275 274/274/274
f 275/275/275 276/276/276 277/277/277
f 278/278/278 277/277/277 276/276/276
f 281/281/281 280/280/280 279/279/279
f 282/282/282 279/279/279 280/280/280
f 279/279/279 282/282/282 283/283/283
f 284/284/284 283/283/283 282/282/282
f 283/283/283 284/284/284 285/285/285
f 286/286/286 285/285/285 284/284/284
f 285/285/285 286/286/286 287/287/287
f 288/288/288 287/287/287 286/286/286
f 287/287/287 288/288/288 289/289/289
f 290/290/290 289/289/289 288/288/288
f 289/289/289 290/290/290 291/291/291
f 292/292/292 291/291/291 290/290/290
f 291/291/291 292/292/292 293/293/293
f 294/294/294 293/293/293 292/292/292
f 293/293/293 294/294/294 295/295/295
f 296/296/296 295/295/295 294/294/294
f 295/295/295 296/296/296 297/297/297
f 298/298/298 297/297/297 296/296/296
f 297/297/297 298/298/298 299/299/299
f 300/300/300 299/299/299 298/298/298
f 302/302/302 301/301/301 281/281/281
f 280/280/280 281/281/281 301/301/301
f 257/257/257 260/260/260 303/303/303
f 304/304/304 303/303/303 260/260/260
f 307/307/307 306/306/306 305/305/305
f 308/308/308 305/305/305 306/306/306
f 311/311/311 310/310/310 309/309/309
f 312/312/312 309/309/309 310/310/310
