g Plane001
v -0.7296164 -1.226303 0.03601193
v -0.9484155 -0.7320062 0.065027
v 0.004945278 -0.9159672 -0.04758
v -0.4005785 -1.709694 -0.009238243
v 0.004945278 -1.89706 -0.04758
v 0.3995142 -1.707178 -0.03613186
v 0.9218395 -0.835731 -0.03519416
v 0.7340788 -1.227043 -0.02902579
v 0.02270985 -0.2731891 0.02342868
v -1.013058 -0.1807148 0.07262635
v 1.057047 -0.2976152 -0.02650928
v -0.09764481 0.2713418 -0.004303932
v -0.9420991 0.2744508 0.06196761
v 1.083003 0.1584387 -0.02280831
v 0.1264346 0.3465447 0.02535319
v -0.5391417 0.8620603 -0.0177753
v -0.7874496 0.6226346 0.0302875
v -0.2570808 0.9568045 0.008378029
v 0.9020025 0.5184658 -0.02537441
v 0.6543359 0.806201 -0.03075314
v 0.3892009 0.936079 0.03048491
v -0.7296164 -1.226303 0.03601193
v -0.7245829 -1.226204 0.09749675
v -0.9433823 -0.7319075 0.1220708
v -0.9484155 -0.7320062 0.065027
v -0.4005785 -1.709694 -0.009238243
v -0.3954959 -1.709596 0.05565143
v -0.7245829 -1.226204 0.09749675
v -0.7296164 -1.226303 0.03601193
v 0.004945278 -1.89706 -0.04758
v 0.004945278 -1.89706 0.0228858
v -0.3954959 -1.709596 0.05565143
v -0.4005785 -1.709694 -0.009238243
v 0.3995142 -1.707178 -0.03613186
v 0.3995142 -1.707178 0.03310037
v 0.004945278 -1.89706 0.0228858
v 0.004945278 -1.89706 -0.04758
v 0.9218395 -0.835731 -0.03519416
v 0.9211487 -0.8364712 0.03359365
v 0.7340788 -1.227043 0.03986073
v 0.7340788 -1.227043 -0.02902579
v 0.7340788 -1.227043 -0.02902579
v 0.7340788 -1.227043 0.03986073
v 0.3995142 -1.707178 0.03310037
v 0.3995142 -1.707178 -0.03613186
v -0.9484155 -0.7320062 0.065027
v -0.9433823 -0.7319075 0.1220708
v -1.008025 -0.1806161 0.1274989
v -1.013058 -0.1807148 0.07262635
v 1.057047 -0.2976152 -0.02650928
v 1.056307 -0.2983553 0.04227877
v 0.9211487 -0.8364712 0.03359365
v 0.9218395 -0.835731 -0.03519416
v -1.013058 -0.1807148 0.07262635
v -1.008025 -0.1806161 0.1274989
v -0.9370661 0.2745495 0.1197515
v -0.9420991 0.2744508 0.06196761
v 1.083003 0.1584387 -0.02280831
v 1.082312 0.1576984 0.0459795
v 1.056307 -0.2983553 0.04227877
v 1.057047 -0.2976152 -0.02650928
v -0.9420991 0.2744508 0.06196761
v -0.9370661 0.2745495 0.1197515
v -0.7824163 0.6227334 0.09261131
v -0.7874496 0.6226346 0.0302875
v -0.7874496 0.6226346 0.0302875
v -0.7824163 0.6227334 0.09261131
v -0.5341082 0.862159 0.04820037
v -0.5391417 0.8620603 -0.0177753
v -0.5391417 0.8620603 -0.0177753
v -0.5341082 0.862159 0.04820037
v -0.2570808 0.9568045 0.008378029
v 0.3892009 0.936079 0.03048491
v 0.6535957 0.8054609 0.03838038
v 0.6543359 0.806201 -0.03075314
v 0.6543359 0.806201 -0.03075314
v 0.6535957 0.8054609 0.03838038
v 0.9013116 0.5177255 0.04351234
v 0.9020025 0.5184658 -0.02537441
v 0.9020025 0.5184658 -0.02537441
v 0.9013116 0.5177255 0.04351234
v 1.082312 0.1576984 0.0459795
v 1.083003 0.1584387 -0.02280831
v -0.7245829 -1.226204 0.09749675
v -0.8228304 -1.345473 -0.1304317
v -1.066993 -0.7937871 -0.1284577
v -0.9433823 -0.7319075 0.1220708
v -0.3954959 -1.709596 0.05565143
v -0.4555004 -1.884971 -0.1338365
v -0.8228304 -1.345473 -0.1304317
v -0.7245829 -1.226204 0.09749675
v 0.004945278 -1.89706 0.0228858
v 0.003908873 -2.09474 -0.1379815
v -0.4555004 -1.884971 -0.1338365
v -0.3954959 -1.709596 0.05565143
v 0.3995142 -1.707178 0.03310037
v 0.4443201 -1.882849 -0.1373893
v 0.003908873 -2.09474 -0.1379815
v 0.004945278 -1.89706 0.0228858
v 0.9211487 -0.8364712 0.03359365
v 1.024133 -0.9101938 -0.1470611
v 0.8176705 -1.346953 -0.1369946
v 0.7340788 -1.227043 0.03986073
v 0.7340788 -1.227043 0.03986073
v 0.8176705 -1.346953 -0.1369946
v 0.4443201 -1.882849 -0.1373893
v 0.3995142 -1.707178 0.03310037
v -0.9433823 -0.7319075 0.1220708
v -1.066993 -0.7937871 -0.1284577
v -1.139137 -0.1784943 -0.1279643
v -1.008025 -0.1806161 0.1274989
v 1.056307 -0.2983553 0.04227877
v 1.175033 -0.3095568 -0.138919
v 1.024133 -0.9101938 -0.1470611
v 0.9211487 -0.8364712 0.03359365
v -1.008025 -0.1806161 0.1274989
v -1.139137 -0.1784943 -0.1279643
v -1.059937 0.3295205 -0.1287044
v -0.9370661 0.2745495 0.1197515
v -0.09764481 0.2713418 -0.004303932
v -0.1131887 0.3274481 -0.1405474
v 0.02270985 -0.2731891 0.02342868
v -0.2570808 0.9568045 0.008378029
v -0.2830367 1.090729 -0.138919
v 0.02270985 -0.2731891 -0.1379322
v 1.082312 0.1576984 0.0459795
v 1.199558 0.1999879 -0.1332937
v 1.175033 -0.3095568 -0.138919
v 1.056307 -0.2983553 0.04227877
v -0.9370661 0.2745495 0.1197515
v -1.059937 0.3295205 -0.1287044
v -0.879282 0.7163918 -0.1308758
v -0.7824163 0.6227334 0.09261131
v -0.7824163 0.6227334 0.09261131
v -0.879282 0.7163918 -0.1308758
v -0.5922377 0.9850795 -0.1345273
v -0.5341082 0.862159 0.04820037
v -0.5341082 0.862159 0.04820037
v -0.5922377 0.9850795 -0.1345273
v -0.2830367 1.090729 -0.138919
v -0.2570808 0.9568045 0.008378029
v 0.1264346 0.3465447 0.02535319
v 0.4258156 1.068523 -0.133195
v 0.3892009 0.936079 0.03048491
v 0.3892009 0.936079 0.03048491
v 0.4258156 1.068523 -0.133195
v 0.7210021 0.9228544 -0.1312705
v 0.6535957 0.8054609 0.03838038
v 0.6535957 0.8054609 0.03838038
v 0.7210021 0.9228544 -0.1312705
v 0.9974866 0.6017613 -0.1314186
v 0.9013116 0.5177255 0.04351234
v 0.9013116 0.5177255 0.04351234
v 0.9974866 0.6017613 -0.1314186
v 1.199558 0.1999879 -0.1332937
v 1.082312 0.1576984 0.0459795
v 0.1264346 0.3465447 0.02535319
v 0.1264346 0.3465447 -0.1378335
v 0.4258156 1.068523 -0.133195
v 0.02270985 -0.2731891 0.02342868
v 0.02270985 -0.2731891 -0.1379322
v 0.1264346 0.3465447 -0.1378335
v 0.1264346 0.3465447 0.02535319
vn 0.116197 -0.00708282 0.9932009
vn 0.08502156 -0.04605222 0.9953143
vn 0.04605222 -0.03046447 0.9984744
vn 0.1006093 -0.00708282 0.9949008
vn 0.03046447 0.0007110238 0.9995356
vn -0.02409273 0.0007110238 0.9997095
vn 0.00708282 -0.03825831 0.9992428
vn -0.02409273 0.008504987 0.9996735
vn 0.05384606 -0.03046447 0.9980844
vn 0.06943381 -0.00708282 0.9975614
vn 0.03825831 -0.03825831 0.9985352
vn 0.05384606 0.03968042 0.9977605
vn 0.06943381 0.05526823 0.9960544
vn 0.05384606 0.008504987 0.998513
vn 0.06943381 -0.00708282 0.9975614
vn 0.00708282 0.02409273 0.9996846
vn 0.08502156 0.07085592 0.9938565
vn -0.07864982 -0.03825831 0.9961679
vn 0.05384606 0.04747432 0.9974201
vn 0.1084032 -0.00708282 0.9940818
vn 0.178548 -0.09281546 0.9795437
vn 0.9111723 0.4059926 -0.07025059
vn 0.9111723 0.4059926 -0.07025059
vn 0.9111723 0.4059926 -0.07025059
vn 0.9111723 0.4059926 -0.07025059
vn 0.8254396 0.56187 -0.05432746
vn 0.8254396 0.56187 -0.05432746
vn 0.8254396 0.56187 -0.05432746
vn 0.8254396 0.56187 -0.05432746
vn 0.4201581 0.9048005 -0.06930541
vn 0.4201581 0.9048005 -0.06930541
vn 0.4201581 0.9048005 -0.06930541
vn 0.4201581 0.9048005 -0.06930541
vn -0.4371681 0.8970066 -0.06529381
vn -0.4371681 0.8970066 -0.06529381
vn -0.4371681 0.8970066 -0.06529381
vn -0.4371681 0.8970066 -0.06529381
vn -0.9048005 0.4293742 0
vn -0.9048005 0.4293742 0
vn -0.9048005 0.4293742 0
vn -0.9048005 0.4293742 0
vn -0.8190679 0.5696639 -0.0679027
vn -0.8190679 0.5696639 -0.0679027
vn -0.8190679 0.5696639 -0.0679027
vn -0.8190679 0.5696639 -0.0679027
vn 0.989111 0.1176192 -0.0884599
vn 0.989111 0.1176192 -0.0884599
vn 0.989111 0.1176192 -0.0884599
vn 0.989111 0.1176192 -0.0884599
vn -0.9671515 0.2423212 -0.07680163
vn -0.9671515 0.2423212 -0.07680163
vn -0.9671515 0.2423212 -0.07680163
vn -0.9671515 0.2423212 -0.07680163
vn 0.9813171 -0.1551664 -0.1137547
vn 0.9813171 -0.1551664 -0.1137547
vn 0.9813171 -0.1551664 -0.1137547
vn 0.9813171 -0.1551664 -0.1137547
vn -0.998327 0.05526823 -0.01699139
vn -0.998327 0.05526823 -0.01699139
vn -0.998327 0.05526823 -0.01699139
vn -0.998327 0.05526823 -0.01699139
vn 0.9111723 -0.4123643 0
vn 0.9111723 -0.4123643 0
vn 0.9111723 -0.4123643 0
vn 0.9111723 -0.4123643 0
vn 0.6851499 -0.7241193 -0.07887216
vn 0.6851499 -0.7241193 -0.07887216
vn 0.6851499 -0.7241193 -0.07887216
vn 0.6851499 -0.7241193 -0.07887216
vn 0.3188378 -0.9501416 0
vn 0.3188378 -0.9501416 0
vn 0.3188378 -0.9501416 0
vn -0.444962 -0.8955845 0
vn -0.444962 -0.8955845 0
vn -0.444962 -0.8955845 0
vn -0.7567169 -0.6539744 0
vn -0.7567169 -0.6539744 0
vn -0.7567169 -0.6539744 0
vn -0.7567169 -0.6539744 0
vn -0.8970066 -0.4513336 0
vn -0.8970066 -0.4513336 0
vn -0.8970066 -0.4513336 0
vn -0.8970066 -0.4513336 0
vn -0.7878924 -0.3578072 0.5011982
vn -0.7878924 -0.3578072 0.5011982
vn -0.7878924 -0.3578072 0.5011982
vn -0.7878924 -0.3578072 0.5011982
vn -0.6553965 -0.4747153 0.5874528
vn -0.6553965 -0.4747153 0.5874528
vn -0.6553965 -0.4747153 0.5874528
vn -0.6553965 -0.4747153 0.5874528
vn -0.2657028 -0.6383866 0.722402
vn -0.2657028 -0.6383866 0.722402
vn -0.2657028 -0.6383866 0.722402
vn -0.2657028 -0.6383866 0.722402
vn 0.2876623 -0.615005 0.7341793
vn 0.2876623 -0.615005 0.7341793
vn 0.2876623 -0.615005 0.7341793
vn 0.2876623 -0.615005 0.7341793
vn 0.7475009 -0.3422194 0.5693226
vn 0.7475009 -0.3422194 0.5693226
vn 0.7475009 -0.3422194 0.5693226
vn 0.7475009 -0.3422194 0.5693226
vn 0.6383866 -0.4513336 0.6235066
vn 0.6383866 -0.4513336 0.6235066
vn 0.6383866 -0.4513336 0.6235066
vn 0.6383866 -0.4513336 0.6235066
vn -0.8814189 -0.1084032 0.4597276
vn -0.8814189 -0.1084032 0.4597276
vn -0.8814189 -0.1084032 0.4597276
vn -0.8814189 -0.1084032 0.4597276
vn 0.8098519 -0.2097235 0.5478649
vn 0.8098519 -0.2097235 0.5478649
vn 0.8098519 -0.2097235 0.5478649
vn 0.8098519 -0.2097235 0.5478649
vn -0.8814189 0.1410008 0.4507987
vn -0.8814189 0.1410008 0.4507987
vn -0.8814189 0.1410008 0.4507987
vn -0.8814189 0.1410008 0.4507987
vn 0.9735233 0.2111457 -0.08757835
vn 0.9735233 0.2111457 -0.08757835
vn 0.9735233 0.2111457 -0.08757835
vn 0.9735233 0.2189396 0.06571089
vn 0.9735233 0.2189396 0.06571089
vn 0.9735233 0.2189396 -0.06571089
vn 0.8410274 -0.04605222 0.5390289
vn 0.8410274 -0.04605222 0.5390289
vn 0.8410274 -0.04605222 0.5390289
vn 0.8410274 -0.04605222 0.5390289
vn -0.7878924 0.3748171 0.4886079
vn -0.7878924 0.3748171 0.4886079
vn -0.7878924 0.3748171 0.4886079
vn -0.7878924 0.3748171 0.4886079
vn -0.5540761 0.6320149 0.5418087
vn -0.5540761 0.6320149 0.5418087
vn -0.5540761 0.6320149 0.5418087
vn -0.5540761 0.6320149 0.5418087
vn -0.2033518 0.748923 0.630684
vn -0.2033518 0.748923 0.630684
vn -0.2033518 0.748923 0.630684
vn -0.2033518 0.748923 0.630684
vn -0.9048005 0.4059926 0.1284762
vn -0.9048005 0.4059926 0.1284762
vn -0.9048005 0.4059926 0.1284762
vn 0.3344256 0.7021597 0.6285947
vn 0.3344256 0.7021597 0.6285947
vn 0.3344256 0.7021597 0.6285947
vn 0.3344256 0.7021597 0.6285947
vn 0.6072111 0.5306945 0.5913188
vn 0.6072111 0.5306945 0.5913188
vn 0.6072111 0.5306945 0.5913188
vn 0.6072111 0.5306945 0.5913188
vn 0.7319131 0.3670232 0.5741055
vn 0.7319131 0.3670232 0.5741055
vn 0.7319131 0.3670232 0.5741055
vn 0.7319131 0.3670232 0.5741055
vn -0.9203882 0.382611 -0.08058823
vn -0.9203882 0.382611 -0.08058823
vn -0.9203882 0.382611 -0.08058823
vn -0.9827392 0.1643824 -0.08486556
vn -0.9827392 0.1643824 -0.08486556
vn -0.9827392 0.1643824 -0.08486556
vn -0.9827392 0.1643824 -0.08486556
g Plane001_0
f 3/3/3 2/2/2 1/1/1
f 4/4/4 3/3/3 1/1/1
f 5/5/5 3/3/3 4/4/4
f 6/6/6 3/3/3 5/5/5
f 7/7/7 3/3/3 6/6/6
f 8/8/8 7/7/7 6/6/6
f 3/3/3 9/9/9 2/2/2
f 9/9/9 10/10/10 2/2/2
f 11/11/11 9/9/9 3/3/3
f 7/7/7 11/11/11 3/3/3
f 9/9/9 12/12/12 10/10/10
f 12/12/12 13/13/13 10/10/10
f 11/11/11 14/14/14 9/9/9
f 14/14/14 15/15/15 9/9/9
f 12/12/12 16/16/16 13/13/13
f 16/16/16 17/17/17 13/13/13
f 12/12/12 18/18/18 16/16/16
f 14/14/14 19/19/19 15/15/15
f 19/19/19 20/20/20 15/15/15
f 15/15/15 20/20/20 21/21/21
f 24/24/24 23/23/23 22/22/22
f 25/25/25 24/24/24 22/22/22
f 28/28/28 27/27/27 26/26/26
f 29/29/29 28/28/28 26/26/26
f 32/32/32 31/31/31 30/30/30
f 33/33/33 32/32/32 30/30/30
f 36/36/36 35/35/35 34/34/34
f 37/37/37 36/36/36 34/34/34
f 40/40/40 39/39/39 38/38/38
f 41/41/41 40/40/40 38/38/38
f 44/44/44 43/43/43 42/42/42
f 45/45/45 44/44/44 42/42/42
f 48/48/48 47/47/47 46/46/46
f 49/49/49 48/48/48 46/46/46
f 52/52/52 51/51/51 50/50/50
f 53/53/53 52/52/52 50/50/50
f 56/56/56 55/55/55 54/54/54
f 57/57/57 56/56/56 54/54/54
f 60/60/60 59/59/59 58/58/58
f 61/61/61 60/60/60 58/58/58
f 64/64/64 63/63/63 62/62/62
f 65/65/65 64/64/64 62/62/62
f 68/68/68 67/67/67 66/66/66
f 69/69/69 68/68/68 66/66/66
f 72/72/72 71/71/71 70/70/70
f 75/75/75 74/74/74 73/73/73
f 78/78/78 77/77/77 76/76/76
f 79/79/79 78/78/78 76/76/76
f 82/82/82 81/81/81 80/80/80
f 83/83/83 82/82/82 80/80/80
f 86/86/86 85/85/85 84/84/84
f 87/87/87 86/86/86 84/84/84
f 90/90/90 89/89/89 88/88/88
f 91/91/91 90/90/90 88/88/88
f 94/94/94 93/93/93 92/92/92
f 95/95/95 94/94/94 92/92/92
f 98/98/98 97/97/97 96/96/96
f 99/99/99 98/98/98 96/96/96
f 102/102/102 101/101/101 100/100/100
f 103/103/103 102/102/102 100/100/100
f 106/106/106 105/105/105 104/104/104
f 107/107/107 106/106/106 104/104/104
f 110/110/110 109/109/109 108/108/108
f 111/111/111 110/110/110 108/108/108
f 114/114/114 113/113/113 112/112/112
f 115/115/115 114/114/114 112/112/112
f 118/118/118 117/117/117 116/116/116
f 119/119/119 118/118/118 116/116/116
f 122/122/122 121/121/121 120/120/120
f 120/120/120 121/121/121 123/123/123
f 121/121/121 124/124/124 123/123/123
f 122/122/122 125/125/125 121/121/121
f 128/128/128 127/127/127 126/126/126
f 129/129/129 128/128/128 126/126/126
f 132/132/132 131/131/131 130/130/130
f 133/133/133 132/132/132 130/130/130
f 136/136/136 135/135/135 134/134/134
f 137/137/137 136/136/136 134/134/134
f 140/140/140 139/139/139 138/138/138
f 141/141/141 140/140/140 138/138/138
f 144/144/144 143/143/143 142/142/142
f 147/147/147 146/146/146 145/145/145
f 148/148/148 147/147/147 145/145/145
f 151/151/151 150/150/150 149/149/149
f 152/152/152 151/151/151 149/149/149
f 155/155/155 154/154/154 153/153/153
f 156/156/156 155/155/155 153/153/153
f 159/159/159 158/158/158 157/157/157
f 162/162/162 161/161/161 160/160/160
f 163/163/163 162/162/162 160/160/160
