g Plane007
v -0.2777166 3.825141 -0.6545444
v 2.095289 5.338876 2.187399
v 3.327075 8.173984 -0.3511143
v 0.9540687 6.660006 -3.193302
v -2.963185 -0.7165489 -0.4404588
v -4.522323 -1.327315 1.375729
v -3.206319 -3.370282 1.818546
v -1.646936 -2.75976 0.002358913
v -3.328619 1.610076 -0.8935294
v 0.3516026 -0.06525993 -1.075148
v -1.332276 -3.706912 -1.610484
v -5.012742 -2.03182 -1.428865
v -0.9409666 0.5044956 -0.1167674
v 1.889015 2.208392 -0.1287289
v 2.138497 1.817081 3.141629
v -0.6914845 0.1131854 3.153591
v -2.05924 1.886898 -0.9274607
v 1.149358 2.403193 2.741043
v 0.07209492 -2.110424 4.318246
v -3.136259 -2.626719 0.649497
v -1.241467 -1.191101 -0.686523
v -1.270028 1.237074 -0.231988
v -1.712603 0.7847357 2.155909
v -1.684041 -1.643439 1.701373
v 0.3037567 0.996624 -0.80687
v 0.0789299 -1.896582 1.945972
v 3.973237 -2.666753 1.454821
v 4.198063 0.2264538 -1.298022
v -3.092808 -5.222599 1.463366
v -3.049111 -5.082234 4.103428
v -2.560889 -7.677625 4.233051
v -2.604585 -7.817989 1.592988
v -2.176169 2.160059 -1.264334
v -0.8206196 -0.7145958 -3.692997
v 2.647957 1.241467 -4.072102
v 1.292163 4.116122 -1.643439
v -1.549536 3.509505 -0.5778933
v -2.644131 5.859565 -1.098583
v -0.245738 6.876043 -1.552141
v 0.8488569 4.525985 -1.031696
v 2.768304 1.219742 -1.384925
v 1.985683 -0.3276792 0.6111727
v 3.700565 -2.187319 -0.1580224
v 4.483186 -0.640142 -2.15412
v -0.422719 0.6248426 -2.108715
v 0.8339658 -1.086378 0.1505346
v 0.8932853 -3.54116 -1.741816
v -0.3633995 -1.830184 -4.000822
v -0.2135153 1.52537 -2.063311
v -0.675374 0.8255014 0.4442005
v 0.9255075 -1.259208 0.1573696
v 1.38761 -0.5593414 -2.350385
v 0.6079192 3.927179 -1.617808
v 3.189884 3.800487 -1.061966
v 2.894998 1.297125 -0.26299
v 0.3130331 1.424063 -0.8188314
v -2.844302 -1.745966 0.6250868
v -3.81855 -5.469639 1.713823
v -4.983449 -6.259583 -2.030355
v -4.009201 -2.53591 -3.119092
v -2.792795 -3.324389 0.2144918
v -0.09512091 -3.172796 1.734572
v -0.6673183 -5.932962 3.025189
v -3.364991 -6.084555 1.505108
v 3.319751 8.179842 -0.3481851
v 2.087722 5.344734 2.190572
v -0.285284 3.830999 -0.6516151
v 0.9467454 6.666108 -3.190128
v -3.200705 -3.365156 1.825137
v -4.516708 -1.322189 1.382075
v -2.957569 -0.7114224 -0.4341121
v -1.641321 -2.754633 0.008949757
v -1.332032 -3.704714 -1.62684
v 0.3518467 -0.06306314 -1.091259
v -3.328375 1.612273 -0.9096408
v -5.012498 -2.029379 -1.445221
v 2.143623 1.808538 3.140164
v 1.894141 2.199848 -0.1301937
v -0.9358406 0.4961958 -0.1182323
v -0.6863585 0.1048861 3.152371
v 0.07941818 -2.114329 4.312632
v 1.156437 2.399532 2.735429
v -2.052161 1.883236 -0.9333196
v -3.12918 -2.630381 0.6438828
v -1.702594 0.7844915 2.157862
v -1.26002 1.23683 -0.2300348
v -1.231704 -1.191345 -0.6848145
v -1.674277 -1.643683 1.703082
v 3.975434 -2.660162 1.462145
v 0.08112717 -1.889991 1.953052
v 0.305954 1.003215 -0.7997904
v 4.20026 0.2332888 -1.290943
v -2.551125 -7.675917 4.232807
v -3.039104 -5.080525 4.103184
v -3.083042 -5.220646 1.463121
v -2.594821 -7.816036 1.592744
v 2.651619 1.236586 -4.064291
v -0.8169584 -0.7194781 -3.685186
v -2.172508 2.155176 -1.256279
v 1.295825 4.110995 -1.635384
v -0.2464705 6.873603 -1.561906
v -2.644863 5.857123 -1.108103
v -1.550512 3.507064 -0.5876584
v 0.8481245 4.523543 -1.041217
v 3.7074 -2.183414 -0.1521635
v 1.992518 -0.3235297 0.6170311
v 2.775383 1.223892 -1.379067
v 4.490265 -0.6359921 -2.148262
v 0.9025617 -3.538719 -1.744746
v 0.8432426 -1.083692 0.1476049
v -0.4134426 0.6275282 -2.111644
v -0.3541231 -1.827499 -4.003995
v 0.9333196 -1.253593 0.1602988
v -0.6675625 0.8311167 0.4473734
v -0.2057028 1.530984 -2.060381
v 1.395178 -0.5537267 -2.347212
v 2.896951 1.293952 -0.2722664
v 3.191837 3.797313 -1.071242
v 0.6098719 3.924006 -1.627084
v 0.3149858 1.42089 -0.8281074
v -4.974174 -6.262512 -2.032553
v -3.809274 -5.472813 1.711625
v -2.835026 -1.749139 0.6228895
v -3.999925 -2.539083 -3.121289
v -0.6626806 -5.937356 3.017377
v -0.09048319 -3.17719 1.727005
v -2.788157 -3.328783 0.2069235
v -3.360353 -6.088949 1.497296
v 0.9540687 6.660006 -3.193302
v 0.9467454 6.666108 -3.190128
v -0.285284 3.830999 -0.6516151
v -0.2777166 3.825141 -0.6545444
v 3.327075 8.173984 -0.3511143
v 3.319751 8.179842 -0.3481851
v 0.9467454 6.666108 -3.190128
v 0.9540687 6.660006 -3.193302
v 2.095289 5.338876 2.187399
v 2.087722 5.344734 2.190572
v 3.319751 8.179842 -0.3481851
v 3.327075 8.173984 -0.3511143
v -0.2777166 3.825141 -0.6545444
v -0.285284 3.830999 -0.6516151
v 2.087722 5.344734 2.190572
v 2.095289 5.338876 2.187399
v -1.646936 -2.75976 0.002358913
v -1.641321 -2.754633 0.008949757
v -2.957569 -0.7114224 -0.4341121
v -2.963185 -0.7165489 -0.4404588
v -3.206319 -3.370282 1.818546
v -3.200705 -3.365156 1.825137
v -1.641321 -2.754633 0.008949757
v -1.646936 -2.75976 0.002358913
v -4.522323 -1.327315 1.375729
v -4.516708 -1.322189 1.382075
v -3.200705 -3.365156 1.825137
v -3.206319 -3.370282 1.818546
v -2.963185 -0.7165489 -0.4404588
v -2.957569 -0.7114224 -0.4341121
v -4.516708 -1.322189 1.382075
v -4.522323 -1.327315 1.375729
v -5.012742 -2.03182 -1.428865
v -5.012498 -2.029379 -1.445221
v -3.328375 1.612273 -0.9096408
v -3.328619 1.610076 -0.8935294
v -1.332276 -3.706912 -1.610484
v -1.332032 -3.704714 -1.62684
v -5.012498 -2.029379 -1.445221
v -5.012742 -2.03182 -1.428865
v 0.3516026 -0.06525993 -1.075148
v 0.3518467 -0.06306314 -1.091259
v -1.332032 -3.704714 -1.62684
v -1.332276 -3.706912 -1.610484
v -3.328619 1.610076 -0.8935294
v -3.328375 1.612273 -0.9096408
v 0.3518467 -0.06306314 -1.091259
v 0.3516026 -0.06525993 -1.075148
v -0.6914845 0.1131854 3.153591
v -0.6863585 0.1048861 3.152371
v -0.9358406 0.4961958 -0.1182323
v -0.9409666 0.5044956 -0.1167674
v 2.138497 1.817081 3.141629
v 2.143623 1.808538 3.140164
v -0.6863585 0.1048861 3.152371
v -0.6914845 0.1131854 3.153591
v 1.889015 2.208392 -0.1287289
v 1.894141 2.199848 -0.1301937
v 2.143623 1.808538 3.140164
v 2.138497 1.817081 3.141629
v -0.9409666 0.5044956 -0.1167674
v -0.9358406 0.4961958 -0.1182323
v 1.894141 2.199848 -0.1301937
v 1.889015 2.208392 -0.1287289
v -3.136259 -2.626719 0.649497
v -3.12918 -2.630381 0.6438828
v -2.052161 1.883236 -0.9333196
v -2.05924 1.886898 -0.9274607
v 0.07209492 -2.110424 4.318246
v 0.07941818 -2.114329 4.312632
v -3.12918 -2.630381 0.6438828
v -3.136259 -2.626719 0.649497
v 1.149358 2.403193 2.741043
v 1.156437 2.399532 2.735429
v 0.07941818 -2.114329 4.312632
v 0.07209492 -2.110424 4.318246
v -2.05924 1.886898 -0.9274607
v -2.052161 1.883236 -0.9333196
v 1.156437 2.399532 2.735429
v 1.149358 2.403193 2.741043
v -1.684041 -1.643439 1.701373
v -1.674277 -1.643683 1.703082
v -1.231704 -1.191345 -0.6848145
v -1.241467 -1.191101 -0.686523
v -1.712603 0.7847357 2.155909
v -1.702594 0.7844915 2.157862
v -1.674277 -1.643683 1.703082
v -1.684041 -1.643439 1.701373
v -1.270028 1.237074 -0.231988
v -1.26002 1.23683 -0.2300348
v -1.702594 0.7844915 2.157862
v -1.712603 0.7847357 2.155909
v -1.241467 -1.191101 -0.686523
v -1.231704 -1.191345 -0.6848145
v -1.26002 1.23683 -0.2300348
v -1.270028 1.237074 -0.231988
v -2.392208 -4.052573 0.8701744
v -2.384397 -4.046715 0.8723717
v -1.873471 -3.836535 -1.535298
v -1.881283 -3.842393 -1.537495
v -3.868593 -2.077225 0.7293224
v -3.861026 -2.071122 0.7315197
v -2.384397 -4.046715 0.8723717
v -2.392208 -4.052573 0.8701744
v -3.357668 -1.866801 -1.678347
v -3.349857 -1.860942 -1.67615
v -3.861026 -2.071122 0.7315197
v -3.868593 -2.077225 0.7293224
v 4.198063 0.2264538 -1.298022
v 4.20026 0.2332888 -1.290943
v 0.305954 1.003215 -0.7997904
v 0.3037567 0.996624 -0.80687
v 3.973237 -2.666753 1.454821
v 3.975434 -2.660162 1.462145
v 4.20026 0.2332888 -1.290943
v 4.198063 0.2264538 -1.298022
v 0.0789299 -1.896582 1.945972
v 0.08112717 -1.889991 1.953052
v 3.975434 -2.660162 1.462145
v 3.973237 -2.666753 1.454821
v 0.3037567 0.996624 -0.80687
v 0.305954 1.003215 -0.7997904
v 0.08112717 -1.889991 1.953052
v 0.0789299 -1.896582 1.945972
v -2.604585 -7.817989 1.592988
v -2.594821 -7.816036 1.592744
v -3.083042 -5.220646 1.463121
v -3.092808 -5.222599 1.463366
v -2.560889 -7.677625 4.233051
v -2.551125 -7.675917 4.232807
v -2.594821 -7.816036 1.592744
v -2.604585 -7.817989 1.592988
v -3.049111 -5.082234 4.103428
v -3.039104 -5.080525 4.103184
v -2.551125 -7.675917 4.232807
v -2.560889 -7.677625 4.233051
v -3.092808 -5.222599 1.463366
v -3.083042 -5.220646 1.463121
v -3.039104 -5.080525 4.103184
v -3.049111 -5.082234 4.103428
v 1.292163 4.116122 -1.643439
v 1.295825 4.110995 -1.635384
v -2.172508 2.155176 -1.256279
v -2.176169 2.160059 -1.264334
v 2.647957 1.241467 -4.072102
v 2.651619 1.236586 -4.064291
v 1.295825 4.110995 -1.635384
v 1.292163 4.116122 -1.643439
v -0.8206196 -0.7145958 -3.692997
v -0.8169584 -0.7194781 -3.685186
v 2.651619 1.236586 -4.064291
v 2.647957 1.241467 -4.072102
v -2.176169 2.160059 -1.264334
v -2.172508 2.155176 -1.256279
v -0.8169584 -0.7194781 -3.685186
v -0.8206196 -0.7145958 -3.692997
v 0.8488569 4.525985 -1.031696
v 0.8481245 4.523543 -1.041217
v -1.550512 3.507064 -0.5876584
v -1.549536 3.509505 -0.5778933
v -0.245738 6.876043 -1.552141
v -0.2464705 6.873603 -1.561906
v 0.8481245 4.523543 -1.041217
v 0.8488569 4.525985 -1.031696
v -2.644131 5.859565 -1.098583
v -2.644863 5.857123 -1.108103
v -0.2464705 6.873603 -1.561906
v -0.245738 6.876043 -1.552141
v -1.549536 3.509505 -0.5778933
v -1.550512 3.507064 -0.5876584
v -2.644863 5.857123 -1.108103
v -2.644131 5.859565 -1.098583
v 4.483186 -0.640142 -2.15412
v 4.490265 -0.6359921 -2.148262
v 2.775383 1.223892 -1.379067
v 2.768304 1.219742 -1.384925
v 3.700565 -2.187319 -0.1580224
v 3.7074 -2.183414 -0.1521635
v 4.490265 -0.6359921 -2.148262
v 4.483186 -0.640142 -2.15412
v 1.985683 -0.3276792 0.6111727
v 1.992518 -0.3235297 0.6170311
v 3.7074 -2.183414 -0.1521635
v 3.700565 -2.187319 -0.1580224
v 2.768304 1.219742 -1.384925
v 2.775383 1.223892 -1.379067
v 1.992518 -0.3235297 0.6170311
v 1.985683 -0.3276792 0.6111727
v -0.3633995 -1.830184 -4.000822
v -0.3541231 -1.827499 -4.003995
v -0.4134426 0.6275282 -2.111644
v -0.422719 0.6248426 -2.108715
v 0.8932853 -3.54116 -1.741816
v 0.9025617 -3.538719 -1.744746
v -0.3541231 -1.827499 -4.003995
v -0.3633995 -1.830184 -4.000822
v 0.8339658 -1.086378 0.1505346
v 0.8432426 -1.083692 0.1476049
v 0.9025617 -3.538719 -1.744746
v 0.8932853 -3.54116 -1.741816
v -0.422719 0.6248426 -2.108715
v -0.4134426 0.6275282 -2.111644
v 0.8432426 -1.083692 0.1476049
v 0.8339658 -1.086378 0.1505346
v 1.38761 -0.5593414 -2.350385
v 1.395178 -0.5537267 -2.347212
v -0.2057028 1.530984 -2.060381
v -0.2135153 1.52537 -2.063311
v 0.9255075 -1.259208 0.1573696
v 0.9333196 -1.253593 0.1602988
v 1.395178 -0.5537267 -2.347212
v 1.38761 -0.5593414 -2.350385
v -0.675374 0.8255014 0.4442005
v -0.6675625 0.8311167 0.4473734
v 0.9333196 -1.253593 0.1602988
v 0.9255075 -1.259208 0.1573696
v -0.2135153 1.52537 -2.063311
v -0.2057028 1.530984 -2.060381
v -0.6675625 0.8311167 0.4473734
v -0.675374 0.8255014 0.4442005
v 0.3130331 1.424063 -0.8188314
v 0.3149858 1.42089 -0.8281074
v 0.6098719 3.924006 -1.627084
v 0.6079192 3.927179 -1.617808
v 2.894998 1.297125 -0.26299
v 2.896951 1.293952 -0.2722664
v 0.3149858 1.42089 -0.8281074
v 0.3130331 1.424063 -0.8188314
v 3.189884 3.800487 -1.061966
v 3.191837 3.797313 -1.071242
v 2.896951 1.293952 -0.2722664
v 2.894998 1.297125 -0.26299
v 0.6079192 3.927179 -1.617808
v 0.6098719 3.924006 -1.627084
v 3.191837 3.797313 -1.071242
v 3.189884 3.800487 -1.061966
v -4.009201 -2.53591 -3.119092
v -3.999925 -2.539083 -3.121289
v -2.835026 -1.749139 0.6228895
v -2.844302 -1.745966 0.6250868
v -4.983449 -6.259583 -2.030355
v -4.974174 -6.262512 -2.032553
v -3.999925 -2.539083 -3.121289
v -4.009201 -2.53591 -3.119092
v -3.81855 -5.469639 1.713823
v -3.809274 -5.472813 1.711625
v -4.974174 -6.262512 -2.032553
v -4.983449 -6.259583 -2.030355
v -2.844302 -1.745966 0.6250868
v -2.835026 -1.749139 0.6228895
v -3.809274 -5.472813 1.711625
v -3.81855 -5.469639 1.713823
v -3.364991 -6.084555 1.505108
v -3.360353 -6.088949 1.497296
v -2.788157 -3.328783 0.2069235
v -2.792795 -3.324389 0.2144918
v -0.6673183 -5.932962 3.025189
v -0.6626806 -5.937356 3.017377
v -3.360353 -6.088949 1.497296
v -3.364991 -6.084555 1.505108
v -0.09512091 -3.172796 1.734572
v -0.09048319 -3.17719 1.727005
v -0.6626806 -5.937356 3.017377
v -0.6673183 -5.932962 3.025189
v -2.792795 -3.324389 0.2144918
v -2.788157 -3.328783 0.2069235
v -0.09048319 -3.17719 1.727005
v -0.09512091 -3.172796 1.734572
v 0.9931269 2.886289 -1.443512
v 0.9975209 6.805251 -2.244929
v 4.983858 6.734947 -2.566668
v 4.979464 2.816229 -1.765007
v 4.983126 6.732995 -2.576432
v 0.9965444 6.803299 -2.254694
v 0.9921508 2.884336 -1.453276
v 4.978731 2.814277 -1.774771
v 4.979464 2.816229 -1.765007
v 4.978731 2.814277 -1.774771
v 0.9921508 2.884336 -1.453276
v 0.9931269 2.886289 -1.443512
v 4.983858 6.734947 -2.566668
v 4.983126 6.732995 -2.576432
v 4.978731 2.814277 -1.774771
v 4.979464 2.816229 -1.765007
v 0.9975209 6.805251 -2.244929
v 0.9965444 6.803299 -2.254694
v 4.983126 6.732995 -2.576432
v 4.983858 6.734947 -2.566668
v 0.9931269 2.886289 -1.443512
v 0.9921508 2.884336 -1.453276
v 0.9965444 6.803299 -2.254694
v 0.9975209 6.805251 -2.244929
vt 0.01 0.01
vt 0.01 0.99
vt 0.99 0.99
vt 0.99 0.01
vt 0.01 0.01
vt 0.01 0.99
vt 0.99 0.99
vt 0.99 0.01
vt 0.01 0.01
vt 0.01 0.99
vt 0.99 0.99
vt 0.99 0.01
vt 0.01 0.01
vt 0.01 0.99
vt 0.99 0.99
vt 0.99 0.01
vt 0.01 0.01
vt 0.01 0.99
vt 0.99 0.99
vt 0.99 0.01
vt 0.01 0.01
vt 0.01 0.99
vt 0.99 0.99
vt 0.99 0.01
vt 0.01 0.01
vt 0.01 0.99
vt 0.99 0.99
vt 0.99 0.01
vt 0.01 0.01
vt 0.01 0.99
vt 0.99 0.99
vt 0.99 0.01
vt 0.01 0.01
vt 0.01 0.99
vt 0.99 0.99
vt 0.99 0.01
vt 0.01 0.01
vt 0.01 0.99
vt 0.99 0.99
vt 0.99 0.01
vt 0.01 0.01
vt 0.01 0.99
vt 0.99 0.99
vt 0.99 0.01
vt 0.01 0.01
vt 0.01 0.99
vt 0.99 0.99
vt 0.99 0.01
vt 0.01 0.01
vt 0.01 0.99
vt 0.99 0.99
vt 0.99 0.01
vt 0.01 0.01
vt 0.01 0.99
vt 0.99 0.99
vt 0.99 0.01
vt 0.01 0.01
vt 0.01 0.99
vt 0.99 0.99
vt 0.99 0.01
vt 0.01 0.01
vt 0.01 0.99
vt 0.99 0.99
vt 0.99 0.01
vt 0.99 0.99
vt 0.01 0.99
vt 0.01 0.01
vt 0.99 0.01
vt 0.99 0.99
vt 0.01 0.99
vt 0.01 0.01
vt 0.99 0.01
vt 0.99 0.99
vt 0.01 0.99
vt 0.01 0.01
vt 0.99 0.01
vt 0.99 0.99
vt 0.01 0.99
vt 0.01 0.01
vt 0.99 0.01
vt 0.99 0.99
vt 0.01 0.99
vt 0.01 0.01
vt 0.99 0.01
vt 0.99 0.99
vt 0.01 0.99
vt 0.01 0.01
vt 0.99 0.01
vt 0.99 0.99
vt 0.01 0.99
vt 0.01 0.01
vt 0.99 0.01
vt 0.99 0.99
vt 0.01 0.99
vt 0.01 0.01
vt 0.99 0.01
vt 0.99 0.99
vt 0.01 0.99
vt 0.01 0.01
vt 0.99 0.01
vt 0.99 0.99
vt 0.01 0.99
vt 0.01 0.01
vt 0.99 0.01
vt 0.99 0.99
vt 0.01 0.99
vt 0.01 0.01
vt 0.99 0.01
vt 0.99 0.99
vt 0.01 0.99
vt 0.01 0.01
vt 0.99 0.01
vt 0.99 0.99
vt 0.01 0.99
vt 0.01 0.01
vt 0.99 0.01
vt 0.99 0.99
vt 0.01 0.99
vt 0.01 0.01
vt 0.99 0.01
vt 0.99 0.99
vt 0.01 0.99
vt 0.01 0.01
vt 0.99 0.01
vt 0.99 0.99
vt 0.01 0.99
vt 0.01 0.01
vt 0.99 0.01
vt 0.99 0.01
vt 0.99 0.01
vt 0.01 0.01
vt 0.01 0.01
vt 0.99 0.99
vt 0.99 0.99
vt 0.99 0.01
vt 0.99 0.01
vt 0.01 0.99
vt 0.01 0.99
vt 0.99 0.99
vt 0.99 0.99
vt 0.01 0.01
vt 0.01 0.01
vt 0.01 0.99
vt 0.01 0.99
vt 0.99 0.01
vt 0.99 0.01
vt 0.01 0.01
vt 0.01 0.01
vt 0.99 0.99
vt 0.99 0.99
vt 0.99 0.01
vt 0.99 0.01
vt 0.01 0.99
vt 0.01 0.99
vt 0.99 0.99
vt 0.99 0.99
vt 0.01 0.01
vt 0.01 0.01
vt 0.01 0.99
vt 0.01 0.99
vt 0.99 0.01
vt 0.99 0.01
vt 0.01 0.01
vt 0.01 0.01
vt 0.99 0.99
vt 0.99 0.99
vt 0.99 0.01
vt 0.99 0.01
vt 0.01 0.99
vt 0.01 0.99
vt 0.99 0.99
vt 0.99 0.99
vt 0.01 0.01
vt 0.01 0.01
vt 0.01 0.99
vt 0.01 0.99
vt 0.99 0.01
vt 0.99 0.01
vt 0.01 0.01
vt 0.01 0.01
vt 0.99 0.99
vt 0.99 0.99
vt 0.99 0.01
vt 0.99 0.01
vt 0.01 0.99
vt 0.01 0.99
vt 0.99 0.99
vt 0.99 0.99
vt 0.01 0.01
vt 0.01 0.01
vt 0.01 0.99
vt 0.01 0.99
vt 0.99 0.01
vt 0.99 0.01
vt 0.01 0.01
vt 0.01 0.01
vt 0.99 0.99
vt 0.99 0.99
vt 0.99 0.01
vt 0.99 0.01
vt 0.01 0.99
vt 0.01 0.99
vt 0.99 0.99
vt 0.99 0.99
vt 0.01 0.01
vt 0.01 0.01
vt 0.01 0.99
vt 0.01 0.99
vt 0.99 0.01
vt 0.99 0.01
vt 0.01 0.01
vt 0.01 0.01
vt 0.99 0.99
vt 0.99 0.99
vt 0.99 0.01
vt 0.99 0.01
vt 0.01 0.99
vt 0.01 0.99
vt 0.99 0.99
vt 0.99 0.99
vt 0.01 0.01
vt 0.01 0.01
vt 0.01 0.99
vt 0.01 0.99
vt 0.99 0.99
vt 0.99 0.99
vt 0.99 0.01
vt 0.99 0.01
vt 0.01 0.99
vt 0.01 0.99
vt 0.99 0.99
vt 0.99 0.99
vt 0.01 0.01
vt 0.01 0.01
vt 0.01 0.99
vt 0.01 0.99
vt 0.99 0.01
vt 0.99 0.01
vt 0.01 0.01
vt 0.01 0.01
vt 0.99 0.99
vt 0.99 0.99
vt 0.99 0.01
vt 0.99 0.01
vt 0.01 0.99
vt 0.01 0.99
vt 0.99 0.99
vt 0.99 0.99
vt 0.01 0.01
vt 0.01 0.01
vt 0.01 0.99
vt 0.01 0.99
vt 0.99 0.01
vt 0.99 0.01
vt 0.01 0.01
vt 0.01 0.01
vt 0.99 0.99
vt 0.99 0.99
vt 0.99 0.01
vt 0.99 0.01
vt 0.01 0.99
vt 0.01 0.99
vt 0.99 0.99
vt 0.99 0.99
vt 0.01 0.01
vt 0.01 0.01
vt 0.01 0.99
vt 0.01 0.99
vt 0.99 0.01
vt 0.99 0.01
vt 0.01 0.01
vt 0.01 0.01
vt 0.99 0.99
vt 0.99 0.99
vt 0.99 0.01
vt 0.99 0.01
vt 0.01 0.99
vt 0.01 0.99
vt 0.99 0.99
vt 0.99 0.99
vt 0.01 0.01
vt 0.01 0.01
vt 0.01 0.99
vt 0.01 0.99
vt 0.99 0.01
vt 0.99 0.01
vt 0.01 0.01
vt 0.01 0.01
vt 0.99 0.99
vt 0.99 0.99
vt 0.99 0.01
vt 0.99 0.01
vt 0.01 0.99
vt 0.01 0.99
vt 0.99 0.99
vt 0.99 0.99
vt 0.01 0.01
vt 0.01 0.01
vt 0.01 0.99
vt 0.01 0.99
vt 0.99 0.01
vt 0.99 0.01
vt 0.01 0.01
vt 0.01 0.01
vt 0.99 0.99
vt 0.99 0.99
vt 0.99 0.01
vt 0.99 0.01
vt 0.01 0.99
vt 0.01 0.99
vt 0.99 0.99
vt 0.99 0.99
vt 0.01 0.01
vt 0.01 0.01
vt 0.01 0.99
vt 0.01 0.99
vt 0.99 0.01
vt 0.99 0.01
vt 0.01 0.01
vt 0.01 0.01
vt 0.99 0.99
vt 0.99 0.99
vt 0.99 0.01
vt 0.99 0.01
vt 0.01 0.99
vt 0.01 0.99
vt 0.99 0.99
vt 0.99 0.99
vt 0.01 0.01
vt 0.01 0.01
vt 0.01 0.99
vt 0.01 0.99
vt 0.99 0.01
vt 0.99 0.01
vt 0.01 0.01
vt 0.01 0.01
vt 0.99 0.99
vt 0.99 0.99
vt 0.99 0.01
vt 0.99 0.01
vt 0.01 0.99
vt 0.01 0.99
vt 0.99 0.99
vt 0.99 0.99
vt 0.01 0.01
vt 0.01 0.01
vt 0.01 0.99
vt 0.01 0.99
vt 0.99 0.01
vt 0.99 0.01
vt 0.01 0.01
vt 0.01 0.01
vt 0.99 0.99
vt 0.99 0.99
vt 0.99 0.01
vt 0.99 0.01
vt 0.01 0.99
vt 0.01 0.99
vt 0.99 0.99
vt 0.99 0.99
vt 0.01 0.01
vt 0.01 0.01
vt 0.01 0.99
vt 0.01 0.99
vt 0.99 0.01
vt 0.99 0.01
vt 0.01 0.01
vt 0.01 0.01
vt 0.99 0.99
vt 0.99 0.99
vt 0.99 0.01
vt 0.99 0.01
vt 0.01 0.99
vt 0.01 0.99
vt 0.99 0.99
vt 0.99 0.99
vt 0.01 0.01
vt 0.01 0.01
vt 0.01 0.99
vt 0.01 0.99
vt 0.99 0.01
vt 0.99 0.01
vt 0.01 0.01
vt 0.01 0.01
vt 0.99 0.99
vt 0.99 0.99
vt 0.99 0.01
vt 0.99 0.01
vt 0.01 0.99
vt 0.01 0.99
vt 0.99 0.99
vt 0.99 0.99
vt 0.01 0.01
vt 0.01 0.01
vt 0.01 0.99
vt 0.01 0.99
vt 0.01 0.01
vt 0.01 0.99
vt 0.99 0.99
vt 0.99 0.01
vt 0.99 0.99
vt 0.01 0.99
vt 0.01 0.01
vt 0.99 0.01
vt 0.99 0.01
vt 0.99 0.01
vt 0.01 0.01
vt 0.01 0.01
vt 0.99 0.99
vt 0.99 0.99
vt 0.99 0.01
vt 0.99 0.01
vt 0.01 0.99
vt 0.01 0.99
vt 0.99 0.99
vt 0.99 0.99
vt 0.01 0.01
vt 0.01 0.01
vt 0.01 0.99
vt 0.01 0.99
g Plane007_0
f 3/3/3 2/2/2 1/1/1
f 4/4/4 3/3/3 1/1/1
f 7/7/7 6/6/6 5/5/5
f 8/8/8 7/7/7 5/5/5
f 11/11/11 10/10/10 9/9/9
f 12/12/12 11/11/11 9/9/9
f 15/15/15 14/14/14 13/13/13
f 16/16/16 15/15/15 13/13/13
f 19/19/19 18/18/18 17/17/17
f 20/20/20 19/19/19 17/17/17
f 23/23/23 22/22/22 21/21/21
f 24/24/24 23/23/23 21/21/21
f 27/27/27 26/26/26 25/25/25
f 28/28/28 27/27/27 25/25/25
f 31/31/31 30/30/30 29/29/29
f 32/32/32 31/31/31 29/29/29
f 35/35/35 34/34/34 33/33/33
f 36/36/36 35/35/35 33/33/33
f 39/39/39 38/38/38 37/37/37
f 40/40/40 39/39/39 37/37/37
f 43/43/43 42/42/42 41/41/41
f 44/44/44 43/43/43 41/41/41
f 47/47/47 46/46/46 45/45/45
f 48/48/48 47/47/47 45/45/45
f 51/51/51 50/50/50 49/49/49
f 52/52/52 51/51/51 49/49/49
f 55/55/55 54/54/54 53/53/53
f 56/56/56 55/55/55 53/53/53
f 59/59/59 58/58/58 57/57/57
f 60/60/60 59/59/59 57/57/57
f 63/63/63 62/62/62 61/61/61
f 64/64/64 63/63/63 61/61/61
f 67/67/67 66/66/66 65/65/65
f 68/68/68 67/67/67 65/65/65
f 71/71/71 70/70/70 69/69/69
f 72/72/72 71/71/71 69/69/69
f 75/75/75 74/74/74 73/73/73
f 76/76/76 75/75/75 73/73/73
f 79/79/79 78/78/78 77/77/77
f 80/80/80 79/79/79 77/77/77
f 83/83/83 82/82/82 81/81/81
f 84/84/84 83/83/83 81/81/81
f 87/87/87 86/86/86 85/85/85
f 88/88/88 87/87/87 85/85/85
f 91/91/91 90/90/90 89/89/89
f 92/92/92 91/91/91 89/89/89
f 95/95/95 94/94/94 93/93/93
f 96/96/96 95/95/95 93/93/93
f 99/99/99 98/98/98 97/97/97
f 100/100/100 99/99/99 97/97/97
f 103/103/103 102/102/102 101/101/101
f 104/104/104 103/103/103 101/101/101
f 107/107/107 106/106/106 105/105/105
f 108/108/108 107/107/107 105/105/105
f 111/111/111 110/110/110 109/109/109
f 112/112/112 111/111/111 109/109/109
f 115/115/115 114/114/114 113/113/113
f 116/116/116 115/115/115 113/113/113
f 119/119/119 118/118/118 117/117/117
f 120/120/120 119/119/119 117/117/117
f 123/123/123 122/122/122 121/121/121
f 124/124/124 123/123/123 121/121/121
f 127/127/127 126/126/126 125/125/125
f 128/128/128 127/127/127 125/125/125
f 131/131/131 130/130/130 129/129/129
f 132/132/132 131/131/131 129/129/129
f 135/135/135 134/134/134 133/133/133
f 136/136/136 135/135/135 133/133/133
f 139/139/139 138/138/138 137/137/137
f 140/140/140 139/139/139 137/137/137
f 143/143/143 142/142/142 141/141/141
f 144/144/144 143/143/143 141/141/141
f 147/147/147 146/146/146 145/145/145
f 148/148/148 147/147/147 145/145/145
f 151/151/151 150/150/150 149/149/149
f 152/152/152 151/151/151 149/149/149
f 155/155/155 154/154/154 153/153/153
f 156/156/156 155/155/155 153/153/153
f 159/159/159 158/158/158 157/157/157
f 160/160/160 159/159/159 157/157/157
f 163/163/163 162/162/162 161/161/161
f 164/164/164 163/163/163 161/161/161
f 167/167/167 166/166/166 165/165/165
f 168/168/168 167/167/167 165/165/165
f 171/171/171 170/170/170 169/169/169
f 172/172/172 171/171/171 169/169/169
f 175/175/175 174/174/174 173/173/173
f 176/176/176 175/175/175 173/173/173
f 179/179/179 178/178/178 177/177/177
f 180/180/180 179/179/179 177/177/177
f 183/183/183 182/182/182 181/181/181
f 184/184/184 183/183/183 181/181/181
f 187/187/187 186/186/186 185/185/185
f 188/188/188 187/187/187 185/185/185
f 191/191/191 190/190/190 189/189/189
f 192/192/192 191/191/191 189/189/189
f 195/195/195 194/194/194 193/193/193
f 196/196/196 195/195/195 193/193/193
f 199/199/199 198/198/198 197/197/197
f 200/200/200 199/199/199 197/197/197
f 203/203/203 202/202/202 201/201/201
f 204/204/204 203/203/203 201/201/201
f 207/207/207 206/206/206 205/205/205
f 208/208/208 207/207/207 205/205/205
f 211/211/211 210/210/210 209/209/209
f 212/212/212 211/211/211 209/209/209
f 215/215/215 214/214/214 213/213/213
f 216/216/216 215/215/215 213/213/213
f 219/219/219 218/218/218 217/217/217
f 220/220/220 219/219/219 217/217/217
f 223/223/223 222/222/222 221/221/221
f 224/224/224 223/223/223 221/221/221
f 227/227/227 226/226/226 225/225/225
f 228/228/228 227/227/227 225/225/225
f 231/231/231 230/230/230 229/229/229
f 232/232/232 231/231/231 229/229/229
f 235/235/235 234/234/234 233/233/233
f 236/236/236 235/235/235 233/233/233
f 239/239/239 238/238/238 237/237/237
f 240/240/240 239/239/239 237/237/237
f 243/243/243 242/242/242 241/241/241
f 244/244/244 243/243/243 241/241/241
f 247/247/247 246/246/246 245/245/245
f 248/248/248 247/247/247 245/245/245
f 251/251/251 250/250/250 249/249/249
f 252/252/252 251/251/251 249/249/249
f 255/255/255 254/254/254 253/253/253
f 256/256/256 255/255/255 253/253/253
f 259/259/259 258/258/258 257/257/257
f 260/260/260 259/259/259 257/257/257
f 263/263/263 262/262/262 261/261/261
f 264/264/264 263/263/263 261/261/261
f 267/267/267 266/266/266 265/265/265
f 268/268/268 267/267/267 265/265/265
f 271/271/271 270/270/270 269/269/269
f 272/272/272 271/271/271 269/269/269
f 275/275/275 274/274/274 273/273/273
f 276/276/276 275/275/275 273/273/273
f 279/279/279 278/278/278 277/277/277
f 280/280/280 279/279/279 277/277/277
f 283/283/283 282/282/282 281/281/281
f 284/284/284 283/283/283 281/281/281
f 287/287/287 286/286/286 285/285/285
f 288/288/288 287/287/287 285/285/285
f 291/291/291 290/290/290 289/289/289
f 292/292/292 291/291/291 289/289/289
f 295/295/295 294/294/294 293/293/293
f 296/296/296 295/295/295 293/293/293
f 299/299/299 298/298/298 297/297/297
f 300/300/300 299/299/299 297/297/297
f 303/303/303 302/302/302 301/301/301
f 304/304/304 303/303/303 301/301/301
f 307/307/307 306/306/306 305/305/305
f 308/308/308 307/307/307 305/305/305
f 311/311/311 310/310/310 309/309/309
f 312/312/312 311/311/311 309/309/309
f 315/315/315 314/314/314 313/313/313
f 316/316/316 315/315/315 313/313/313
f 319/319/319 318/318/318 317/317/317
f 320/320/320 319/319/319 317/317/317
f 323/323/323 322/322/322 321/321/321
f 324/324/324 323/323/323 321/321/321
f 327/327/327 326/326/326 325/325/325
f 328/328/328 327/327/327 325/325/325
f 331/331/331 330/330/330 329/329/329
f 332/332/332 331/331/331 329/329/329
f 335/335/335 334/334/334 333/333/333
f 336/336/336 335/335/335 333/333/333
f 339/339/339 338/338/338 337/337/337
f 340/340/340 339/339/339 337/337/337
f 343/343/343 342/342/342 341/341/341
f 344/344/344 343/343/343 341/341/341
f 347/347/347 346/346/346 345/345/345
f 348/348/348 347/347/347 345/345/345
f 351/351/351 350/350/350 349/349/349
f 352/352/352 351/351/351 349/349/349
f 355/355/355 354/354/354 353/353/353
f 356/356/356 355/355/355 353/353/353
f 359/359/359 358/358/358 357/357/357
f 360/360/360 359/359/359 357/357/357
f 363/363/363 362/362/362 361/361/361
f 364/364/364 363/363/363 361/361/361
f 367/367/367 366/366/366 365/365/365
f 368/368/368 367/367/367 365/365/365
f 371/371/371 370/370/370 369/369/369
f 372/372/372 371/371/371 369/369/369
f 375/375/375 374/374/374 373/373/373
f 376/376/376 375/375/375 373/373/373
f 379/379/379 378/378/378 377/377/377
f 380/380/380 379/379/379 377/377/377
f 383/383/383 382/382/382 381/381/381
f 384/384/384 383/383/383 381/381/381
f 387/387/387 386/386/386 385/385/385
f 388/388/388 387/387/387 385/385/385
f 391/391/391 390/390/390 389/389/389
f 392/392/392 391/391/391 389/389/389
f 395/395/395 394/394/394 393/393/393
f 396/396/396 395/395/395 393/393/393
f 399/399/399 398/398/398 397/397/397
f 400/400/400 399/399/399 397/397/397
f 403/403/403 402/402/402 401/401/401
f 404/404/404 403/403/403 401/401/401
f 407/407/407 406/406/406 405/405/405
f 408/408/408 407/407/407 405/405/405
f 411/411/411 410/410/410 409/409/409
f 412/412/412 411/411/411 409/409/409
f 415/415/415 414/414/414 413/413/413
f 416/416/416 415/415/415 413/413/413
f 419/419/419 418/418/418 417/417/417
f 420/420/420 419/419/419 417/417/417
