g pPlane1
v -22.16139 -2.27436E-08 -18.62057
v -125.9817 -2.27436E-08 -18.37576
v -124.9573 -0.8558264 -19.51956
v -22.10535 -0.8674649 -19.7637
v -22.10535 -0.8674649 -19.7637
v -12.98803 -0.8698677 -21.84561
v -13.11906 -2.27436E-08 -20.66848
v -22.16139 -2.27436E-08 -18.62057
v -7.388695 -2.27436E-08 -19.13601
v -7.269699 -0.861166 -20.28872
v -2.699608 -2.27436E-08 -19.87948
v -3.164238 -0.8786966 -20.9476
v 1.478558 -2.27436E-08 -23.51431
v 0.9161417 -0.8822467 -24.51284
v 7.487656 -2.27436E-08 -25.29348
v 7.419739 -0.8985116 -26.43893
v 21.87236 -2.27436E-08 -21.07253
v 21.85179 -0.8775173 -22.23709
v 21.85179 -0.8775173 -22.23709
v 124.6846 -0.8680954 -22.23904
v 125.7263 -2.27436E-08 -21.10696
v 21.87236 -2.27436E-08 -21.07253
v 1.478558 -2.27436E-08 -23.51431
v 7.487656 -2.27436E-08 -25.29348
v 22.00575 -2.27436E-08 85.95383
v -22.00576 -2.27436E-08 85.95383
v -2.699608 -2.27436E-08 -19.87948
v -7.388695 -2.27436E-08 -19.13601
v -13.11906 -2.27436E-08 -20.66848
v -22.16139 -2.27436E-08 -18.62057
v 21.87236 -2.27436E-08 -21.07253
v -22.00576 -2.27436E-08 85.95383
v -125.726 -2.27436E-08 86.19938
v -125.9817 -2.27436E-08 -18.37576
v -22.16139 -2.27436E-08 -18.62057
v 21.87236 -2.27436E-08 -21.07253
v 125.7263 -2.27436E-08 -21.10696
v 125.7263 -2.27436E-08 85.95383
v 22.00575 -2.27436E-08 85.95383
v -22.10535 -0.8674649 -19.7637
v -21.7174 -2.995339 -20.37911
v -12.71458 -2.995339 -22.40823
v -12.98803 -0.8698677 -21.84561
v 0.9161417 -0.8822467 -24.51284
v 0.6399156 -2.995338 -24.95657
v 7.266319 -2.995338 -26.89578
v 7.419739 -0.8985116 -26.43893
v -3.164238 -0.8786966 -20.9476
v -3.323818 -2.995339 -21.47238
v 0.6399156 -2.995338 -24.95657
v 0.9161417 -0.8822467 -24.51284
v -7.269699 -0.861166 -20.28872
v -7.09481 -2.995339 -20.889
v -3.323818 -2.995339 -21.47238
v -3.164238 -0.8786966 -20.9476
v -12.98803 -0.8698677 -21.84561
v -12.71458 -2.995339 -22.40823
v -7.09481 -2.995339 -20.889
v -7.269699 -0.861166 -20.28872
v 7.419739 -0.8985116 -26.43893
v 7.266319 -2.995338 -26.89578
v 21.4802 -2.995339 -22.79531
v 21.85179 -0.8775173 -22.23709
v -124.9573 -0.8558264 -19.51956
v -122.3911 -2.995339 -20.15023
v -21.7174 -2.995339 -20.37911
v -22.10535 -0.8674649 -19.7637
v 21.85179 -0.8775173 -22.23709
v 21.4802 -2.995339 -22.79531
v 122.1318 -2.995339 -22.81051
v 124.6846 -0.8680954 -22.23904
vt 0.9660745 0.8721729
vt 0.9660703 0.8678289
vt 0.9660348 0.8678718
vt 0.9660348 0.8721729
vt 0.9698091 0.8687869
vt 0.9695783 0.8687869
vt 0.9695784 0.8687989
vt 0.9698105 0.868799
vt 0.9693981 0.868799
vt 0.9693962 0.8687869
vt 0.9692856 0.8687999
vt 0.9693068 0.8687869
vt 0.9690356 0.8687982
vt 0.9690543 0.8687869
vt 0.9688411 0.8687983
vt 0.9688423 0.8687869
vt 0.9683876 0.8687994
vt 0.9683883 0.8687869
vt 0.9703788 0.8721729
vt 0.9703788 0.8678815
vt 0.9703437 0.8678289
vt 0.9703424 0.8721729
vt 0.9690356 0.8687982
vt 0.9688411 0.8687983
vt 0.9683834 0.8702165
vt 0.9698131 0.8702165
vt 0.9692856 0.8687999
vt 0.9693981 0.868799
vt 0.9695784 0.8687989
vt 0.9698105 0.868799
vt 0.9683876 0.8687994
vt 0.9703788 0.8721729
vt 0.9703788 0.8678289
vt 0.9660703 0.8678289
vt 0.9660745 0.8721729
vt 0.9703424 0.8721729
vt 0.9703437 0.8678289
vt 0.9660348 0.8678289
vt 0.9660348 0.8721729
vt 0.976822 0.8733292
vt 0.976822 0.8727679
vt 0.9760318 0.8727679
vt 0.9760318 0.8733286
vt 0.976822 0.8733253
vt 0.976822 0.8727679
vt 0.9760318 0.8727679
vt 0.9760318 0.8733211
vt 0.976822 0.8733263
vt 0.976822 0.8727679
vt 0.9760318 0.8727679
vt 0.9760318 0.8733253
vt 0.976822 0.873331
vt 0.976822 0.8727679
vt 0.9760318 0.8727679
vt 0.9760318 0.8733263
vt 0.976822 0.8733286
vt 0.976822 0.8727679
vt 0.9760318 0.8727679
vt 0.9760318 0.873331
vt 0.976822 0.8733211
vt 0.976822 0.8727679
vt 0.9760318 0.8727679
vt 0.9760318 0.8733266
vt 0.976822 0.8733323
vt 0.976822 0.8727679
vt 0.9760318 0.8727679
vt 0.9760318 0.8733292
vt 0.976822 0.8733266
vt 0.976822 0.8727679
vt 0.9760318 0.8727679
vt 0.9760318 0.873329
vn -0.01077577 0.7980602 -0.6024814
vn -0.001379681 0.7983267 -0.602223
vn -0.00137968 0.7983267 -0.602223
vn -0.01409694 0.7979491 -0.6025599
vn -0.01409694 0.7979491 -0.6025599
vn -0.01402483 0.8016375 -0.5976458
vn -0.02721829 0.8007196 -0.5984207
vn -0.01077577 0.7980602 -0.6024814
vn 0.05303857 0.8028918 -0.5937607
vn 0.04664682 0.8027342 -0.5945098
vn -0.2684597 0.7993501 -0.5375581
vn -0.2729148 0.7992011 -0.5355325
vn -0.2829437 0.7904088 -0.5433202
vn -0.284088 0.7904367 -0.5426821
vn 0.07307959 0.7888217 -0.610262
vn 0.0643783 0.7894188 -0.6104699
vn 0.01865435 0.7953258 -0.6058952
vn 0.02488863 0.794985 -0.6061183
vn 0.02488863 0.794985 -0.6061183
vn -0.0001427551 0.796165 -0.6050795
vn -0.0001427552 0.796165 -0.6050796
vn 0.01865435 0.7953258 -0.6058952
vn 0 1 0
vn 0 1 0
vn 0 1 0
vn 0 1 0
vn 0 1 0
vn 0 1 0
vn 0 1 0
vn 0 1 0
vn 0 1 0
vn 0 1 0
vn 0 1 0
vn 0 1 0
vn 0 1 0
vn 0 1 0
vn 0 1 0
vn 0 1 0
vn 0 1 0
vn -0.01597856 0.2760947 -0.9609976
vn -0.0243839 0.274364 -0.9613167
vn -0.01614036 0.257883 -0.9660413
vn -0.04952863 0.2538521 -0.9659741
vn -0.4442883 0.2354466 -0.8643916
vn -0.447129 0.2355089 -0.8629085
vn -0.2747205 0.2278638 -0.9341342
vn -0.2747205 0.2278638 -0.9341342
vn -0.6408058 0.2334823 -0.7313372
vn -0.6408057 0.2334823 -0.7313372
vn -0.447129 0.2355089 -0.8629085
vn -0.4442883 0.2354466 -0.8643916
vn 0.09994344 0.27446 -0.9563907
vn 0.08410571 0.2735693 -0.958168
vn -0.1502073 0.2524515 -0.9558797
vn -0.1502073 0.2524515 -0.9558797
vn -0.04952863 0.2538521 -0.9659741
vn -0.01614036 0.257883 -0.9660413
vn 0.08410571 0.2735693 -0.958168
vn 0.09994344 0.27446 -0.9563907
vn 0.2730116 0.1929779 -0.9424565
vn 0.2730116 0.1929779 -0.9424565
vn 0.0426126 0.2485327 -0.9676857
vn 0.02709708 0.2517491 -0.9674131
vn -0.00221688 0.2788839 -0.9603223
vn -0.002216879 0.2788839 -0.9603223
vn -0.0243839 0.274364 -0.9613167
vn -0.01597856 0.2760947 -0.9609976
vn 0.02709708 0.2517491 -0.9674131
vn 0.0426126 0.2485327 -0.9676857
vn -9.39575E-05 0.2572301 -0.9663502
vn -9.395752E-05 0.2572301 -0.9663502
g pPlane1_0
f 3/3/3 2/2/2 1/1/1
f 4/4/4 3/3/3 1/1/1
f 7/7/7 6/6/6 5/5/5
f 8/8/8 7/7/7 5/5/5
f 7/7/7 9/9/9 6/6/6
f 9/9/9 10/10/10 6/6/6
f 10/10/10 9/9/9 11/11/11
f 12/12/12 10/10/10 11/11/11
f 12/12/12 11/11/11 13/13/13
f 14/14/14 12/12/12 13/13/13
f 13/13/13 15/15/15 14/14/14
f 15/15/15 16/16/16 14/14/14
f 15/15/15 17/17/17 16/16/16
f 17/17/17 18/18/18 16/16/16
f 21/21/21 20/20/20 19/19/19
f 22/22/22 21/21/21 19/19/19
f 25/25/25 24/24/24 23/23/23
f 25/25/25 23/23/23 26/26/26
f 23/23/23 27/27/27 26/26/26
f 27/27/27 28/28/28 26/26/26
f 28/28/28 29/29/29 26/26/26
f 29/29/29 30/30/30 26/26/26
f 25/25/25 31/31/31 24/24/24
f 34/34/34 33/33/33 32/32/32
f 35/35/35 34/34/34 32/32/32
f 38/38/38 37/37/37 36/36/36
f 39/39/39 38/38/38 36/36/36
f 42/42/42 41/41/41 40/40/40
f 43/43/43 42/42/42 40/40/40
f 46/46/46 45/45/45 44/44/44
f 47/47/47 46/46/46 44/44/44
f 50/50/50 49/49/49 48/48/48
f 51/51/51 50/50/50 48/48/48
f 54/54/54 53/53/53 52/52/52
f 55/55/55 54/54/54 52/52/52
f 58/58/58 57/57/57 56/56/56
f 59/59/59 58/58/58 56/56/56
f 62/62/62 61/61/61 60/60/60
f 63/63/63 62/62/62 60/60/60
f 66/66/66 65/65/65 64/64/64
f 67/67/67 66/66/66 64/64/64
f 70/70/70 69/69/69 68/68/68
f 71/71/71 70/70/70 68/68/68
