g qiu
v 0.9151846 0.002643813 0.005938717
v 0.7415673 0.002643821 -0.5284002
v 0.6850635 -0.06719865 -0.4873478
v 0.8453421 -0.06719866 0.005938714
v 0.8453421 -0.06719866 0.005938714
v 0.6850635 -0.06719865 -0.4873478
v 0.6285598 0.002643832 -0.4462955
v 0.7754996 0.002643825 0.005938711
v 0.7754996 0.002643825 0.005938711
v 0.6285598 0.002643832 -0.4462955
v 0.6850635 0.0724863 -0.4873478
v 0.8453421 0.07248629 0.005938714
v 0.8453421 0.07248629 0.005938714
v 0.6850635 0.0724863 -0.4873478
v 0.7415673 0.002643821 -0.5284002
v 0.9151846 0.002643813 0.005938717
v 0.7415673 0.002643821 -0.5284002
v 0.2870315 0.00264384 -0.8586398
v 0.265449 -0.06719863 -0.7922157
v 0.6850635 -0.06719865 -0.4873478
v 0.6850635 -0.06719865 -0.4873478
v 0.265449 -0.06719863 -0.7922157
v 0.2438665 0.002643848 -0.7257916
v 0.6285598 0.002643832 -0.4462955
v 0.6285598 0.002643832 -0.4462955
v 0.2438665 0.002643848 -0.7257916
v 0.265449 0.07248631 -0.7922157
v 0.6850635 0.0724863 -0.4873478
v 0.6850635 0.0724863 -0.4873478
v 0.265449 0.07248631 -0.7922157
v 0.2870315 0.00264384 -0.8586398
v 0.7415673 0.002643821 -0.5284002
v 0.2870315 0.00264384 -0.8586398
v -0.2748057 0.002643865 -0.8586398
v -0.2532232 -0.0671986 -0.7922157
v 0.265449 -0.06719863 -0.7922157
v 0.265449 -0.06719863 -0.7922157
v -0.2532232 -0.0671986 -0.7922157
v -0.2316407 0.002643869 -0.7257916
v 0.2438665 0.002643848 -0.7257916
v 0.2438665 0.002643848 -0.7257916
v -0.2316407 0.002643869 -0.7257916
v -0.2532232 0.07248634 -0.7922157
v 0.265449 0.07248631 -0.7922157
v 0.265449 0.07248631 -0.7922157
v -0.2532232 0.07248634 -0.7922157
v -0.2748057 0.002643865 -0.8586398
v 0.2870315 0.00264384 -0.8586398
v -0.2748057 0.002643865 -0.8586398
v -0.7293415 0.002643885 -0.5284002
v -0.6728377 -0.06719859 -0.4873478
v -0.2532232 -0.0671986 -0.7922157
v -0.2532232 -0.0671986 -0.7922157
v -0.6728377 -0.06719859 -0.4873478
v -0.616334 0.002643886 -0.4462955
v -0.2316407 0.002643869 -0.7257916
v -0.2316407 0.002643869 -0.7257916
v -0.616334 0.002643886 -0.4462955
v -0.6728377 0.07248636 -0.4873478
v -0.2532232 0.07248634 -0.7922157
v -0.2532232 0.07248634 -0.7922157
v -0.6728377 0.07248636 -0.4873478
v -0.7293415 0.002643885 -0.5284002
v -0.2748057 0.002643865 -0.8586398
v -0.7293415 0.002643885 -0.5284002
v -0.9029587 0.002643892 0.005938717
v -0.8331162 -0.06719858 0.005938714
v -0.6728377 -0.06719859 -0.4873478
v -0.6728377 -0.06719859 -0.4873478
v -0.8331162 -0.06719858 0.005938714
v -0.7632738 0.002643892 0.005938711
v -0.616334 0.002643886 -0.4462955
v -0.616334 0.002643886 -0.4462955
v -0.7632738 0.002643892 0.005938711
v -0.8331162 0.07248636 0.005938714
v -0.6728377 0.07248636 -0.4873478
v -0.6728377 0.07248636 -0.4873478
v -0.8331162 0.07248636 0.005938714
v -0.9029587 0.002643892 0.005938717
v -0.7293415 0.002643885 -0.5284002
v -0.9029587 0.002643892 0.005938717
v -0.7293415 0.002643885 0.5402775
v -0.6728377 -0.06719859 0.4992251
v -0.8331162 -0.06719858 0.005938714
v -0.8331162 -0.06719858 0.005938714
v -0.6728377 -0.06719859 0.4992251
v -0.616334 0.002643886 0.4581728
v -0.7632738 0.002643892 0.005938711
v -0.7632738 0.002643892 0.005938711
v -0.616334 0.002643886 0.4581728
v -0.6728377 0.07248636 0.4992251
v -0.8331162 0.07248636 0.005938714
v -0.8331162 0.07248636 0.005938714
v -0.6728377 0.07248636 0.4992251
v -0.7293415 0.002643885 0.5402775
v -0.9029587 0.002643892 0.005938717
v -0.7293415 0.002643885 0.5402775
v -0.2748057 0.002643865 0.8705171
v -0.2532232 -0.0671986 0.804093
v -0.6728377 -0.06719859 0.4992251
v -0.6728377 -0.06719859 0.4992251
v -0.2532232 -0.0671986 0.804093
v -0.2316407 0.002643869 0.7376689
v -0.616334 0.002643886 0.4581728
v -0.616334 0.002643886 0.4581728
v -0.2316407 0.002643869 0.7376689
v -0.2532232 0.07248634 0.804093
v -0.6728377 0.07248636 0.4992251
v -0.6728377 0.07248636 0.4992251
v -0.2532232 0.07248634 0.804093
v -0.2748057 0.002643865 0.8705171
v -0.7293415 0.002643885 0.5402775
v -0.2748057 0.002643865 0.8705171
v 0.2870315 0.00264384 0.8705172
v 0.265449 -0.06719863 0.8040931
v -0.2532232 -0.0671986 0.804093
v -0.2532232 -0.0671986 0.804093
v 0.265449 -0.06719863 0.8040931
v 0.2438665 0.002643848 0.7376689
v -0.2316407 0.002643869 0.7376689
v -0.2316407 0.002643869 0.7376689
v 0.2438665 0.002643848 0.7376689
v 0.265449 0.07248631 0.8040931
v -0.2532232 0.07248634 0.804093
v -0.2532232 0.07248634 0.804093
v 0.265449 0.07248631 0.8040931
v 0.2870315 0.00264384 0.8705172
v -0.2748057 0.002643865 0.8705171
v 0.2870315 0.00264384 0.8705172
v 0.7415671 0.002643821 0.5402777
v 0.6850634 -0.06719865 0.4992253
v 0.265449 -0.06719863 0.8040931
v 0.265449 -0.06719863 0.8040931
v 0.6850634 -0.06719865 0.4992253
v 0.6285597 0.002643832 0.458173
v 0.2438665 0.002643848 0.7376689
v 0.2438665 0.002643848 0.7376689
v 0.6285597 0.002643832 0.458173
v 0.6850634 0.0724863 0.4992253
v 0.265449 0.07248631 0.8040931
v 0.265449 0.07248631 0.8040931
v 0.6850634 0.0724863 0.4992253
v 0.7415671 0.002643821 0.5402777
v 0.2870315 0.00264384 0.8705172
v 0.7415671 0.002643821 0.5402777
v 0.9151846 0.002643813 0.005938717
v 0.8453421 -0.06719866 0.005938714
v 0.6850634 -0.06719865 0.4992253
v 0.6850634 -0.06719865 0.4992253
v 0.8453421 -0.06719866 0.005938714
v 0.7754996 0.002643825 0.005938711
v 0.6285597 0.002643832 0.458173
v 0.6285597 0.002643832 0.458173
v 0.7754996 0.002643825 0.005938711
v 0.8453421 0.07248629 0.005938714
v 0.6850634 0.0724863 0.4992253
v 0.6850634 0.0724863 0.4992253
v 0.8453421 0.07248629 0.005938714
v 0.9151846 0.002643813 0.005938717
v 0.7415671 0.002643821 0.5402777
v 0.9151846 0.002643813 0.005938638
v 0.7415673 0.5369827 0.005938669
v 0.6850635 0.4959303 -0.0639038
v 0.8453421 0.002643819 -0.06390383
v 0.8453421 0.002643819 -0.06390383
v 0.6850635 0.4959303 -0.0639038
v 0.6285598 0.454878 0.005938676
v 0.7754996 0.002643819 0.00593865
v 0.7754996 0.002643819 0.00593865
v 0.6285598 0.454878 0.005938676
v 0.6850635 0.4959303 0.07578114
v 0.8453421 0.002643813 0.07578111
v 0.8453421 0.002643813 0.07578111
v 0.6850635 0.4959303 0.07578114
v 0.7415673 0.5369827 0.005938669
v 0.9151846 0.002643813 0.005938638
v 0.7415673 0.5369827 0.005938669
v 0.2870315 0.8672224 0.005938703
v 0.265449 0.8007982 -0.06390377
v 0.6850635 0.4959303 -0.0639038
v 0.6850635 0.4959303 -0.0639038
v 0.265449 0.8007982 -0.06390377
v 0.2438665 0.7343741 0.005938705
v 0.6285598 0.454878 0.005938676
v 0.6285598 0.454878 0.005938676
v 0.2438665 0.7343741 0.005938705
v 0.265449 0.8007982 0.07578117
v 0.6850635 0.4959303 0.07578114
v 0.6850635 0.4959303 0.07578114
v 0.265449 0.8007982 0.07578117
v 0.2870315 0.8672224 0.005938703
v 0.7415673 0.5369827 0.005938669
v 0.2870315 0.8672224 0.005938703
v -0.2748057 0.8672224 0.005938727
v -0.2532232 0.8007982 -0.06390375
v 0.265449 0.8007982 -0.06390377
v 0.265449 0.8007982 -0.06390377
v -0.2532232 0.8007982 -0.06390375
v -0.2316407 0.7343741 0.005938726
v 0.2438665 0.7343741 0.005938705
v 0.2438665 0.7343741 0.005938705
v -0.2316407 0.7343741 0.005938726
v -0.2532232 0.8007982 0.0757812
v 0.265449 0.8007982 0.07578117
v 0.265449 0.8007982 0.07578117
v -0.2532232 0.8007982 0.0757812
v -0.2748057 0.8672224 0.005938727
v 0.2870315 0.8672224 0.005938703
v -0.2748057 0.8672224 0.005938727
v -0.7293415 0.5369827 0.005938733
v -0.6728377 0.4959303 -0.06390375
v -0.2532232 0.8007982 -0.06390375
v -0.2532232 0.8007982 -0.06390375
v -0.6728377 0.4959303 -0.06390375
v -0.616334 0.454878 0.00593873
v -0.2316407 0.7343741 0.005938726
v -0.2316407 0.7343741 0.005938726
v -0.616334 0.454878 0.00593873
v -0.6728377 0.4959303 0.0757812
v -0.2532232 0.8007982 0.0757812
v -0.2532232 0.8007982 0.0757812
v -0.6728377 0.4959303 0.0757812
v -0.7293415 0.5369827 0.005938733
v -0.2748057 0.8672224 0.005938727
v -0.7293415 0.5369827 0.005938733
v -0.9029587 0.002643813 0.005938717
v -0.8331162 0.002643819 -0.06390376
v -0.6728377 0.4959303 -0.06390375
v -0.6728377 0.4959303 -0.06390375
v -0.8331162 0.002643819 -0.06390376
v -0.7632738 0.002643819 0.005938717
v -0.616334 0.454878 0.00593873
v -0.616334 0.454878 0.00593873
v -0.7632738 0.002643819 0.005938717
v -0.8331162 0.002643813 0.07578118
v -0.6728377 0.4959303 0.0757812
v -0.6728377 0.4959303 0.0757812
v -0.8331162 0.002643813 0.07578118
v -0.9029587 0.002643813 0.005938717
v -0.7293415 0.5369827 0.005938733
v -0.9029587 0.002643813 0.005938717
v -0.7293415 -0.5316949 0.005938686
v -0.6728377 -0.4906426 -0.06390379
v -0.8331162 0.002643819 -0.06390376
v -0.8331162 0.002643819 -0.06390376
v -0.6728377 -0.4906426 -0.06390379
v -0.616334 -0.4495902 0.005938691
v -0.7632738 0.002643819 0.005938717
v -0.7632738 0.002643819 0.005938717
v -0.616334 -0.4495902 0.005938691
v -0.6728377 -0.4906426 0.07578116
v -0.8331162 0.002643813 0.07578118
v -0.8331162 0.002643813 0.07578118
v -0.6728377 -0.4906426 0.07578116
v -0.7293415 -0.5316949 0.005938686
v -0.9029587 0.002643813 0.005938717
v -0.7293415 -0.5316949 0.005938686
v -0.2748057 -0.8619346 0.005938652
v -0.2532232 -0.7955105 -0.06390382
v -0.6728377 -0.4906426 -0.06390379
v -0.6728377 -0.4906426 -0.06390379
v -0.2532232 -0.7955105 -0.06390382
v -0.2316407 -0.7290864 0.005938662
v -0.616334 -0.4495902 0.005938691
v -0.616334 -0.4495902 0.005938691
v -0.2316407 -0.7290864 0.005938662
v -0.2532232 -0.7955105 0.07578113
v -0.6728377 -0.4906426 0.07578116
v -0.6728377 -0.4906426 0.07578116
v -0.2532232 -0.7955105 0.07578113
v -0.2748057 -0.8619346 0.005938652
v -0.7293415 -0.5316949 0.005938686
v -0.2748057 -0.8619346 0.005938652
v 0.2870315 -0.8619347 0.005938628
v 0.265449 -0.7955105 -0.06390385
v -0.2532232 -0.7955105 -0.06390382
v -0.2532232 -0.7955105 -0.06390382
v 0.265449 -0.7955105 -0.06390385
v 0.2438665 -0.7290864 0.005938641
v -0.2316407 -0.7290864 0.005938662
v -0.2316407 -0.7290864 0.005938662
v 0.2438665 -0.7290864 0.005938641
v 0.265449 -0.7955105 0.0757811
v -0.2532232 -0.7955105 0.07578113
v -0.2532232 -0.7955105 0.07578113
v 0.265449 -0.7955105 0.0757811
v 0.2870315 -0.8619347 0.005938628
v -0.2748057 -0.8619346 0.005938652
v 0.2870315 -0.8619347 0.005938628
v 0.7415671 -0.5316952 0.005938622
v 0.6850634 -0.4906428 -0.06390385
v 0.265449 -0.7955105 -0.06390385
v 0.265449 -0.7955105 -0.06390385
v 0.6850634 -0.4906428 -0.06390385
v 0.6285597 -0.4495904 0.005938637
v 0.2438665 -0.7290864 0.005938641
v 0.2438665 -0.7290864 0.005938641
v 0.6285597 -0.4495904 0.005938637
v 0.6850634 -0.4906428 0.0757811
v 0.265449 -0.7955105 0.0757811
v 0.265449 -0.7955105 0.0757811
v 0.6850634 -0.4906428 0.0757811
v 0.7415671 -0.5316952 0.005938622
v 0.2870315 -0.8619347 0.005938628
v 0.7415671 -0.5316952 0.005938622
v 0.9151846 0.002643813 0.005938638
v 0.8453421 0.002643819 -0.06390383
v 0.6850634 -0.4906428 -0.06390385
v 0.6850634 -0.4906428 -0.06390385
v 0.8453421 0.002643819 -0.06390383
v 0.7754996 0.002643819 0.00593865
v 0.6285597 -0.4495904 0.005938637
v 0.6285597 -0.4495904 0.005938637
v 0.7754996 0.002643819 0.00593865
v 0.8453421 0.002643813 0.07578111
v 0.6850634 -0.4906428 0.0757811
v 0.6850634 -0.4906428 0.0757811
v 0.8453421 0.002643813 0.07578111
v 0.9151846 0.002643813 0.005938638
v 0.7415671 -0.5316952 0.005938622
v 0.8966761 0.009109177 0.005938682
v 0.4043849 0.7666675 -0.2402069
v 0.4043849 0.009109177 -0.7906053
v 0.8966761 0.009109177 0.005938682
v 0.4043849 0.4773059 0.6503563
v 0.4043849 0.7666675 -0.2402069
v 0.8966761 0.009109177 0.005938682
v 0.4043849 -0.4590877 0.6503562
v 0.4043849 0.4773059 0.6503563
v 0.8966761 0.009109177 0.005938682
v 0.4043849 -0.7484491 -0.240207
v 0.4043849 -0.4590877 0.6503562
v 0.8966761 0.009109177 0.005938682
v 0.4043849 0.009109177 -0.7906053
v 0.4043849 -0.7484491 -0.240207
v 0.4043849 0.009109177 -0.7906053
v -0.392159 0.4773059 -0.6384789
v -0.392159 -0.4590877 -0.6384789
v 0.4043849 0.7666675 -0.2402069
v -0.392159 0.7666674 0.2520843
v -0.392159 0.4773059 -0.6384789
v 0.4043849 0.4773059 0.6503563
v -0.392159 0.009109108 0.8024826
v -0.392159 0.7666674 0.2520843
v 0.4043849 -0.4590877 0.6503562
v -0.392159 -0.7484491 0.252084
v -0.392159 0.009109108 0.8024826
v 0.4043849 -0.7484491 -0.240207
v -0.392159 -0.4590877 -0.6384789
v -0.392159 -0.7484491 0.252084
v -0.392159 0.4773059 -0.6384789
v 0.4043849 0.009109177 -0.7906053
v 0.4043849 0.7666675 -0.2402069
v -0.392159 0.7666674 0.2520843
v 0.4043849 0.7666675 -0.2402069
v 0.4043849 0.4773059 0.6503563
v -0.392159 0.009109108 0.8024826
v 0.4043849 0.4773059 0.6503563
v 0.4043849 -0.4590877 0.6503562
v -0.392159 -0.7484491 0.252084
v 0.4043849 -0.4590877 0.6503562
v 0.4043849 -0.7484491 -0.240207
v -0.392159 -0.4590877 -0.6384789
v 0.4043849 -0.7484491 -0.240207
v 0.4043849 0.009109177 -0.7906053
v -0.8844503 0.009109177 0.005938683
v -0.392159 0.4773059 -0.6384789
v -0.392159 0.7666674 0.2520843
v -0.8844503 0.009109177 0.005938683
v -0.392159 0.7666674 0.2520843
v -0.392159 0.009109108 0.8024826
v -0.8844503 0.009109177 0.005938683
v -0.392159 0.009109108 0.8024826
v -0.392159 -0.7484491 0.252084
v -0.8844503 0.009109177 0.005938683
v -0.392159 -0.7484491 0.252084
v -0.392159 -0.4590877 -0.6384789
v -0.8844503 0.009109177 0.005938683
v -0.392159 -0.4590877 -0.6384789
v -0.392159 0.4773059 -0.6384789
v 0.2121717 0.9101525 0.08019285
v -0.01348117 1.00701 0.1427902
v 0.06727406 1.018691 -0.09712861
v 0.2121717 0.9101525 0.08019285
v 0.06019347 0.7846522 0.2394762
v -0.01348117 1.00701 0.1427902
v 0.2121717 0.9101525 0.08019285
v 0.1864821 0.6589097 0.05931278
v 0.06019347 0.7846522 0.2394762
v 0.2121717 0.9101525 0.08019285
v 0.1908581 0.8035538 -0.1487205
v 0.1864821 0.6589097 0.05931278
v 0.2121717 0.9101525 0.08019285
v 0.06727406 1.018691 -0.09712861
v 0.1908581 0.8035538 -0.1487205
v 0.06727406 1.018691 -0.09712861
v -0.1742558 0.9602717 -0.04743593
v -0.04796721 0.834529 -0.2275995
v -0.01348117 1.00701 0.1427902
v -0.1786319 0.8156275 0.1605973
v -0.1742558 0.9602717 -0.04743593
v 0.06019347 0.7846522 0.2394762
v -0.0550478 0.60049 0.1090054
v -0.1786319 0.8156275 0.1605973
v 0.1864821 0.6589097 0.05931278
v 0.02570738 0.6121718 -0.1309134
v -0.0550478 0.60049 0.1090054
v 0.1908581 0.8035538 -0.1487205
v -0.04796721 0.834529 -0.2275995
v 0.02570738 0.6121718 -0.1309134
v -0.1742558 0.9602717 -0.04743593
v 0.06727406 1.018691 -0.09712861
v -0.01348117 1.00701 0.1427902
v -0.1786319 0.8156275 0.1605973
v -0.01348117 1.00701 0.1427902
v 0.06019347 0.7846522 0.2394762
v -0.0550478 0.60049 0.1090054
v 0.06019347 0.7846522 0.2394762
v 0.1864821 0.6589097 0.05931278
v 0.02570738 0.6121718 -0.1309134
v 0.1864821 0.6589097 0.05931278
v 0.1908581 0.8035538 -0.1487205
v -0.04796721 0.834529 -0.2275995
v 0.1908581 0.8035538 -0.1487205
v 0.06727406 1.018691 -0.09712861
v -0.1999455 0.7090287 -0.06831605
v -0.1742558 0.9602717 -0.04743593
v -0.1786319 0.8156275 0.1605973
v -0.1999455 0.7090287 -0.06831605
v -0.1786319 0.8156275 0.1605973
v -0.0550478 0.60049 0.1090054
v -0.1999455 0.7090287 -0.06831605
v -0.0550478 0.60049 0.1090054
v 0.02570738 0.6121718 -0.1309134
v -0.1999455 0.7090287 -0.06831605
v 0.02570738 0.6121718 -0.1309134
v -0.04796721 0.834529 -0.2275995
v -0.1999455 0.7090287 -0.06831605
v -0.04796721 0.834529 -0.2275995
v -0.1742558 0.9602717 -0.04743593
v 0.1350904 -0.7403448 0.2012029
v -0.0282176 -0.5772943 0.09649377
v 0.184816 -0.6394373 -0.02587403
v 0.1350904 -0.7403448 0.2012029
v -0.1140949 -0.7845207 0.2143973
v -0.0282176 -0.5772943 0.09649377
v 0.1350904 -0.7403448 0.2012029
v 0.04586345 -0.9747364 0.164898
v -0.1140949 -0.7845207 0.2143973
v 0.1350904 -0.7403448 0.2012029
v 0.2306006 -0.88507 0.01640216
v 0.04586345 -0.9747364 0.164898
v 0.1350904 -0.7403448 0.2012029
v 0.184816 -0.6394373 -0.02587403
v 0.2306006 -0.88507 0.01640216
v 0.184816 -0.6394373 -0.02587403
v -0.03363724 -0.6212488 -0.1530209
v 0.1263212 -0.8114647 -0.2025202
v -0.0282176 -0.5772943 0.09649377
v -0.2183743 -0.7109153 -0.004524972
v -0.03363724 -0.6212488 -0.1530209
v -0.1140949 -0.7845207 0.2143973
v -0.1725896 -0.956548 0.03775119
v -0.2183743 -0.7109153 -0.004524972
v 0.04586345 -0.9747364 0.164898
v 0.04044386 -1.018691 -0.08461661
v -0.1725896 -0.956548 0.03775119
v 0.2306006 -0.88507 0.01640216
v 0.1263212 -0.8114647 -0.2025202
v 0.04044386 -1.018691 -0.08461661
v -0.03363724 -0.6212488 -0.1530209
v 0.184816 -0.6394373 -0.02587403
v -0.0282176 -0.5772943 0.09649377
v -0.2183743 -0.7109153 -0.004524972
v -0.0282176 -0.5772943 0.09649377
v -0.1140949 -0.7845207 0.2143973
v -0.1725896 -0.956548 0.03775119
v -0.1140949 -0.7845207 0.2143973
v 0.04586345 -0.9747364 0.164898
v 0.04044386 -1.018691 -0.08461661
v 0.04586345 -0.9747364 0.164898
v 0.2306006 -0.88507 0.01640216
v 0.1263212 -0.8114647 -0.2025202
v 0.2306006 -0.88507 0.01640216
v 0.184816 -0.6394373 -0.02587403
v -0.122864 -0.8556406 -0.1893258
v -0.03363724 -0.6212488 -0.1530209
v -0.2183743 -0.7109153 -0.004524972
v -0.122864 -0.8556406 -0.1893258
v -0.2183743 -0.7109153 -0.004524972
v -0.1725896 -0.956548 0.03775119
v -0.122864 -0.8556406 -0.1893258
v -0.1725896 -0.956548 0.03775119
v 0.04044386 -1.018691 -0.08461661
v -0.122864 -0.8556406 -0.1893258
v 0.04044386 -1.018691 -0.08461661
v 0.1263212 -0.8114647 -0.2025202
v -0.122864 -0.8556406 -0.1893258
v 0.1263212 -0.8114647 -0.2025202
v -0.03363724 -0.6212488 -0.1530209
v 0.8673998 0.244695 0.005938678
v 0.6348869 0.169069 -0.06067526
v 0.8329179 0.1160068 -0.2096286
v 0.8673998 0.244695 0.005938678
v 0.7105281 0.148801 0.1803362
v 0.6348869 0.169069 -0.06067526
v 0.8673998 0.244695 0.005938678
v 0.9553076 0.08321258 0.1803362
v 0.7105281 0.148801 0.1803362
v 0.8673998 0.244695 0.005938678
v 1.030949 0.06294458 -0.06067529
v 0.9553076 0.08321258 0.1803362
v 0.8673998 0.244695 0.005938678
v 0.8329179 0.1160068 -0.2096286
v 1.030949 0.06294458 -0.06067529
v 0.8329179 0.1160068 -0.2096286
v 0.6547351 -0.05942085 -0.1684589
v 0.8995147 -0.1250093 -0.1684589
v 0.6348869 0.169069 -0.06067526
v 0.5790941 -0.03915291 0.07255263
v 0.6547351 -0.05942085 -0.1684589
v 0.7105281 0.148801 0.1803362
v 0.7771249 -0.09221513 0.2215059
v 0.5790941 -0.03915291 0.07255263
v 0.9553076 0.08321258 0.1803362
v 0.9751558 -0.1452774 0.07255255
v 0.7771249 -0.09221513 0.2215059
v 1.030949 0.06294458 -0.06067529
v 0.8995147 -0.1250093 -0.1684589
v 0.9751558 -0.1452774 0.07255255
v 0.6547351 -0.05942085 -0.1684589
v 0.8329179 0.1160068 -0.2096286
v 0.6348869 0.169069 -0.06067526
v 0.5790941 -0.03915291 0.07255263
v 0.6348869 0.169069 -0.06067526
v 0.7105281 0.148801 0.1803362
v 0.7771249 -0.09221513 0.2215059
v 0.7105281 0.148801 0.1803362
v 0.9553076 0.08321258 0.1803362
v 0.9751558 -0.1452774 0.07255255
v 0.9553076 0.08321258 0.1803362
v 1.030949 0.06294458 -0.06067529
v 0.8995147 -0.1250093 -0.1684589
v 1.030949 0.06294458 -0.06067529
v 0.8329179 0.1160068 -0.2096286
v 0.742643 -0.2209034 0.005938678
v 0.6547351 -0.05942085 -0.1684589
v 0.5790941 -0.03915291 0.07255263
v 0.742643 -0.2209034 0.005938678
v 0.5790941 -0.03915291 0.07255263
v 0.7771249 -0.09221513 0.2215059
v 0.742643 -0.2209034 0.005938678
v 0.7771249 -0.09221513 0.2215059
v 0.9751558 -0.1452774 0.07255255
v 0.742643 -0.2209034 0.005938678
v 0.9751558 -0.1452774 0.07255255
v 0.8995147 -0.1250093 -0.1684589
v 0.742643 -0.2209034 0.005938678
v 0.8995147 -0.1250093 -0.1684589
v 0.6547351 -0.05942085 -0.1684589
v -0.8290896 0.2511449 0.03359489
v -1.030949 0.1042734 0.07719065
v -0.9452042 0.1348498 -0.1593086
v -0.8290896 0.2511449 0.03359489
v -0.830829 0.09389845 0.2323144
v -1.030949 0.1042734 0.07719065
v -0.8290896 0.2511449 0.03359489
v -0.6214038 0.1180628 0.09168693
v -0.830829 0.09389845 0.2323144
v -0.8290896 0.2511449 0.03359489
v -0.6920916 0.1433721 -0.1503494
v -0.6214038 0.1180628 0.09168693
v -0.8290896 0.2511449 0.03359489
v -0.9452042 0.1348498 -0.1593086
v -0.6920916 0.1433721 -0.1503494
v -0.9452042 0.1348498 -0.1593086
v -1.018707 -0.0942709 -0.07980993
v -0.8092813 -0.07010656 -0.2204374
v -1.030949 0.1042734 0.07719065
v -0.9480188 -0.1195802 0.1622264
v -1.018707 -0.0942709 -0.07980993
v -0.830829 0.09389845 0.2323144
v -0.694906 -0.1110579 0.1711856
v -0.9480188 -0.1195802 0.1622264
v -0.6214038 0.1180628 0.09168693
v -0.6091617 -0.08048154 -0.06531368
v -0.694906 -0.1110579 0.1711856
v -0.6920916 0.1433721 -0.1503494
v -0.8092813 -0.07010656 -0.2204374
v -0.6091617 -0.08048154 -0.06531368
v -1.018707 -0.0942709 -0.07980993
v -0.9452042 0.1348498 -0.1593086
v -1.030949 0.1042734 0.07719065
v -0.9480188 -0.1195802 0.1622264
v -1.030949 0.1042734 0.07719065
v -0.830829 0.09389845 0.2323144
v -0.694906 -0.1110579 0.1711856
v -0.830829 0.09389845 0.2323144
v -0.6214038 0.1180628 0.09168693
v -0.6091617 -0.08048154 -0.06531368
v -0.6214038 0.1180628 0.09168693
v -0.6920916 0.1433721 -0.1503494
v -0.8092813 -0.07010656 -0.2204374
v -0.6920916 0.1433721 -0.1503494
v -0.9452042 0.1348498 -0.1593086
v -0.8110207 -0.227353 -0.02171792
v -1.018707 -0.0942709 -0.07980993
v -0.9480188 -0.1195802 0.1622264
v -0.8110207 -0.227353 -0.02171792
v -0.9480188 -0.1195802 0.1622264
v -0.694906 -0.1110579 0.1711856
v -0.8110207 -0.227353 -0.02171792
v -0.694906 -0.1110579 0.1711856
v -0.6091617 -0.08048154 -0.06531368
v -0.8110207 -0.227353 -0.02171792
v -0.6091617 -0.08048154 -0.06531368
v -0.8092813 -0.07010656 -0.2204374
v -0.8110207 -0.227353 -0.02171792
v -0.8092813 -0.07010656 -0.2204374
v -1.018707 -0.0942709 -0.07980993
v 0.134337 0.1815528 -0.7201824
v -0.1117785 0.1786426 -0.6598696
v -0.04000406 0.2330443 -0.8967404
v 0.134337 0.1815528 -0.7201824
v 0.0426852 -0.00134374 -0.5706239
v -0.1117785 0.1786426 -0.6598696
v 0.134337 0.1815528 -0.7201824
v 0.2099234 -0.05817972 -0.7523378
v 0.0426852 -0.00134374 -0.5706239
v 0.134337 0.1815528 -0.7201824
v 0.1588186 0.08668003 -0.9538888
v 0.2099234 -0.05817972 -0.7523378
v 0.134337 0.1815528 -0.7201824
v -0.04000406 0.2330443 -0.8967404
v 0.1588186 0.08668003 -0.9538888
v -0.04000406 0.2330443 -0.8967404
v -0.2394046 0.08197147 -0.8563007
v -0.07216626 0.02513547 -1.038015
v -0.1117785 0.1786426 -0.6598696
v -0.1882998 -0.0628883 -0.6547495
v -0.2394046 0.08197147 -0.8563007
v 0.0426852 -0.00134374 -0.5706239
v 0.010523 -0.2092525 -0.7118981
v -0.1882998 -0.0628883 -0.6547495
v 0.2099234 -0.05817972 -0.7523378
v 0.08229735 -0.1548508 -0.948769
v 0.010523 -0.2092525 -0.7118981
v 0.1588186 0.08668003 -0.9538888
v -0.07216626 0.02513547 -1.038015
v 0.08229735 -0.1548508 -0.948769
v -0.2394046 0.08197147 -0.8563007
v -0.04000406 0.2330443 -0.8967404
v -0.1117785 0.1786426 -0.6598696
v -0.1882998 -0.0628883 -0.6547495
v -0.1117785 0.1786426 -0.6598696
v 0.0426852 -0.00134374 -0.5706239
v 0.010523 -0.2092525 -0.7118981
v 0.0426852 -0.00134374 -0.5706239
v 0.2099234 -0.05817972 -0.7523378
v 0.08229735 -0.1548508 -0.948769
v 0.2099234 -0.05817972 -0.7523378
v 0.1588186 0.08668003 -0.9538888
v -0.07216626 0.02513547 -1.038015
v 0.1588186 0.08668003 -0.9538888
v -0.04000406 0.2330443 -0.8967404
v -0.163818 -0.157761 -0.8884562
v -0.2394046 0.08197147 -0.8563007
v -0.1882998 -0.0628883 -0.6547495
v -0.163818 -0.157761 -0.8884562
v -0.1882998 -0.0628883 -0.6547495
v 0.010523 -0.2092525 -0.7118981
v -0.163818 -0.157761 -0.8884562
v 0.010523 -0.2092525 -0.7118981
v 0.08229735 -0.1548508 -0.948769
v -0.163818 -0.157761 -0.8884562
v 0.08229735 -0.1548508 -0.948769
v -0.07216626 0.02513547 -1.038015
v -0.163818 -0.157761 -0.8884562
v -0.07216626 0.02513547 -1.038015
v -0.2394046 0.08197147 -0.8563007
v 0.1699486 0.06613817 0.68378
v -0.06960456 0.1182464 0.6196086
v 0.009291152 -0.1223455 0.6300953
v 0.1699486 0.06613817 0.68378
v 0.04146409 0.2453889 0.8085991
v -0.06960456 0.1182464 0.6196086
v 0.1699486 0.06613817 0.68378
v 0.1890039 0.08337561 0.9358884
v 0.04146409 0.2453889 0.8085991
v 0.1699486 0.06613817 0.68378
v 0.1691199 -0.1438967 0.8255669
v 0.1890039 0.08337561 0.9358884
v 0.1699486 0.06613817 0.68378
v 0.009291152 -0.1223455 0.6300953
v 0.1691199 -0.1438967 0.8255669
v 0.009291152 -0.1223455 0.6300953
v -0.2184851 -0.05958388 0.7217354
v -0.0709452 -0.2215972 0.8490248
v -0.06960456 0.1182464 0.6196086
v -0.1986011 0.1676885 0.8320568
v -0.2184851 -0.05958388 0.7217354
v 0.04146409 0.2453889 0.8085991
v -0.03877223 0.1461372 1.027529
v -0.1986011 0.1676885 0.8320568
v 0.1890039 0.08337561 0.9358884
v 0.04012334 -0.09445468 1.038015
v -0.03877223 0.1461372 1.027529
v 0.1691199 -0.1438967 0.8255669
v -0.0709452 -0.2215972 0.8490248
v 0.04012334 -0.09445468 1.038015
v -0.2184851 -0.05958388 0.7217354
v 0.009291152 -0.1223455 0.6300953
v -0.06960456 0.1182464 0.6196086
v -0.1986011 0.1676885 0.8320568
v -0.06960456 0.1182464 0.6196086
v 0.04146409 0.2453889 0.8085991
v -0.03877223 0.1461372 1.027529
v 0.04146409 0.2453889 0.8085991
v 0.1890039 0.08337561 0.9358884
v 0.04012334 -0.09445468 1.038015
v 0.1890039 0.08337561 0.9358884
v 0.1691199 -0.1438967 0.8255669
v -0.0709452 -0.2215972 0.8490248
v 0.1691199 -0.1438967 0.8255669
v 0.009291152 -0.1223455 0.6300953
v -0.1994297 -0.04234649 0.9738439
v -0.2184851 -0.05958388 0.7217354
v -0.1986011 0.1676885 0.8320568
v -0.1994297 -0.04234649 0.9738439
v -0.1986011 0.1676885 0.8320568
v -0.03877223 0.1461372 1.027529
v -0.1994297 -0.04234649 0.9738439
v -0.03877223 0.1461372 1.027529
v 0.04012334 -0.09445468 1.038015
v -0.1994297 -0.04234649 0.9738439
v 0.04012334 -0.09445468 1.038015
v -0.0709452 -0.2215972 0.8490248
v -0.1994297 -0.04234649 0.9738439
v -0.0709452 -0.2215972 0.8490248
v -0.2184851 -0.05958388 0.7217354
v 0.006112966 0.9117154 0.005938717
v 0.006112966 0.7380983 -0.5284002
v 0.07595542 0.6815945 -0.4873478
v 0.07595542 0.841873 0.005938714
v 0.07595542 0.841873 0.005938714
v 0.07595542 0.6815945 -0.4873478
v 0.00611291 0.6250908 -0.4462955
v 0.00611291 0.7720305 0.005938711
v 0.00611291 0.7720305 0.005938711
v 0.00611291 0.6250908 -0.4462955
v -0.06372955 0.6815945 -0.4873478
v -0.06372955 0.841873 0.005938714
v -0.06372955 0.841873 0.005938714
v -0.06372955 0.6815945 -0.4873478
v 0.006112966 0.7380983 -0.5284002
v 0.006112966 0.9117154 0.005938717
v 0.006112966 0.7380983 -0.5284002
v 0.00611291 0.2835625 -0.8586398
v 0.0759554 0.2619799 -0.7922157
v 0.07595542 0.6815945 -0.4873478
v 0.07595542 0.6815945 -0.4873478
v 0.0759554 0.2619799 -0.7922157
v 0.00611291 0.2403974 -0.7257916
v 0.00611291 0.6250908 -0.4462955
v 0.00611291 0.6250908 -0.4462955
v 0.00611291 0.2403974 -0.7257916
v -0.06372955 0.2619799 -0.7922157
v -0.06372955 0.6815945 -0.4873478
v -0.06372955 0.6815945 -0.4873478
v -0.06372955 0.2619799 -0.7922157
v 0.00611291 0.2835625 -0.8586398
v 0.006112966 0.7380983 -0.5284002
v 0.00611291 0.2835625 -0.8586398
v 0.006112882 -0.2782747 -0.8586398
v 0.07595537 -0.2566922 -0.7922157
v 0.0759554 0.2619799 -0.7922157
v 0.0759554 0.2619799 -0.7922157
v 0.07595537 -0.2566922 -0.7922157
v 0.006112882 -0.2351097 -0.7257916
v 0.00611291 0.2403974 -0.7257916
v 0.00611291 0.2403974 -0.7257916
v 0.006112882 -0.2351097 -0.7257916
v -0.06372958 -0.2566922 -0.7922157
v -0.06372955 0.2619799 -0.7922157
v -0.06372955 0.2619799 -0.7922157
v -0.06372958 -0.2566922 -0.7922157
v 0.006112882 -0.2782747 -0.8586398
v 0.00611291 0.2835625 -0.8586398
v 0.006112882 -0.2782747 -0.8586398
v 0.006112854 -0.7328106 -0.5284002
v 0.07595537 -0.6763068 -0.4873478
v 0.07595537 -0.2566922 -0.7922157
v 0.07595537 -0.2566922 -0.7922157
v 0.07595537 -0.6763068 -0.4873478
v 0.006112854 -0.6198031 -0.4462955
v 0.006112882 -0.2351097 -0.7257916
v 0.006112882 -0.2351097 -0.7257916
v 0.006112854 -0.6198031 -0.4462955
v -0.06372961 -0.6763068 -0.4873478
v -0.06372958 -0.2566922 -0.7922157
v -0.06372958 -0.2566922 -0.7922157
v -0.06372961 -0.6763068 -0.4873478
v 0.006112854 -0.7328106 -0.5284002
v 0.006112882 -0.2782747 -0.8586398
v 0.006112854 -0.7328106 -0.5284002
v 0.006112854 -0.9064278 0.005938717
v 0.07595537 -0.8365853 0.005938714
v 0.07595537 -0.6763068 -0.4873478
v 0.07595537 -0.6763068 -0.4873478
v 0.07595537 -0.8365853 0.005938714
v 0.006112854 -0.7667428 0.005938711
v 0.006112854 -0.6198031 -0.4462955
v 0.006112854 -0.6198031 -0.4462955
v 0.006112854 -0.7667428 0.005938711
v -0.06372961 -0.8365853 0.005938714
v -0.06372961 -0.6763068 -0.4873478
v -0.06372961 -0.6763068 -0.4873478
v -0.06372961 -0.8365853 0.005938714
v 0.006112854 -0.9064278 0.005938717
v 0.006112854 -0.7328106 -0.5284002
v 0.006112854 -0.9064278 0.005938717
v 0.006112854 -0.7328106 0.5402775
v 0.07595537 -0.6763068 0.4992251
v 0.07595537 -0.8365853 0.005938714
v 0.07595537 -0.8365853 0.005938714
v 0.07595537 -0.6763068 0.4992251
v 0.006112854 -0.6198031 0.4581728
v 0.006112854 -0.7667428 0.005938711
v 0.006112854 -0.7667428 0.005938711
v 0.006112854 -0.6198031 0.4581728
v -0.06372961 -0.6763068 0.4992251
v -0.06372961 -0.8365853 0.005938714
v -0.06372961 -0.8365853 0.005938714
v -0.06372961 -0.6763068 0.4992251
v 0.006112854 -0.7328106 0.5402775
v 0.006112854 -0.9064278 0.005938717
v 0.006112854 -0.7328106 0.5402775
v 0.006112882 -0.2782748 0.8705171
v 0.07595537 -0.2566922 0.804093
v 0.07595537 -0.6763068 0.4992251
v 0.07595537 -0.6763068 0.4992251
v 0.07595537 -0.2566922 0.804093
v 0.006112882 -0.2351097 0.7376689
v 0.006112854 -0.6198031 0.4581728
v 0.006112854 -0.6198031 0.4581728
v 0.006112882 -0.2351097 0.7376689
v -0.06372958 -0.2566922 0.804093
v -0.06372961 -0.6763068 0.4992251
v -0.06372961 -0.6763068 0.4992251
v -0.06372958 -0.2566922 0.804093
v 0.006112882 -0.2782748 0.8705171
v 0.006112854 -0.7328106 0.5402775
v 0.006112882 -0.2782748 0.8705171
v 0.00611291 0.2835624 0.8705172
v 0.0759554 0.2619799 0.8040931
v 0.07595537 -0.2566922 0.804093
v 0.07595537 -0.2566922 0.804093
v 0.0759554 0.2619799 0.8040931
v 0.00611291 0.2403974 0.7376689
v 0.006112882 -0.2351097 0.7376689
v 0.006112882 -0.2351097 0.7376689
v 0.00611291 0.2403974 0.7376689
v -0.06372955 0.2619799 0.8040931
v -0.06372958 -0.2566922 0.804093
v -0.06372958 -0.2566922 0.804093
v -0.06372955 0.2619799 0.8040931
v 0.00611291 0.2835624 0.8705172
v 0.006112882 -0.2782748 0.8705171
v 0.00611291 0.2835624 0.8705172
v 0.006112966 0.7380981 0.5402777
v 0.07595542 0.6815944 0.4992253
v 0.0759554 0.2619799 0.8040931
v 0.0759554 0.2619799 0.8040931
v 0.07595542 0.6815944 0.4992253
v 0.00611291 0.6250907 0.458173
v 0.00611291 0.2403974 0.7376689
v 0.00611291 0.2403974 0.7376689
v 0.00611291 0.6250907 0.458173
v -0.06372955 0.6815944 0.4992253
v -0.06372955 0.2619799 0.8040931
v -0.06372955 0.2619799 0.8040931
v -0.06372955 0.6815944 0.4992253
v 0.006112966 0.7380981 0.5402777
v 0.00611291 0.2835624 0.8705172
v 0.006112966 0.7380981 0.5402777
v 0.006112966 0.9117154 0.005938717
v 0.07595542 0.841873 0.005938714
v 0.07595542 0.6815944 0.4992253
v 0.07595542 0.6815944 0.4992253
v 0.07595542 0.841873 0.005938714
v 0.00611291 0.7720305 0.005938711
v 0.00611291 0.6250907 0.458173
v 0.00611291 0.6250907 0.458173
v 0.00611291 0.7720305 0.005938711
v -0.06372955 0.841873 0.005938714
v -0.06372955 0.6815944 0.4992253
v -0.06372955 0.6815944 0.4992253
v -0.06372955 0.841873 0.005938714
v 0.006112966 0.9117154 0.005938717
v 0.006112966 0.7380981 0.5402777
vt 0.1555176 0.9179688
vt 0.1555176 0.9179688
vt 0.1555176 0.9179688
vt 0.1555176 0.9179688
vt 0.1555176 0.9179688
vt 0.1555176 0.9179688
vt 0.1555176 0.9179688
vt 0.1555176 0.9179688
vt 0.1555176 0.9179688
vt 0.1555176 0.9179688
vt 0.1555176 0.9179688
vt 0.1555176 0.9179688
vt 0.1555176 0.9179688
vt 0.1555176 0.9179688
vt 0.1555176 0.9179688
vt 0.1555176 0.9179688
vt 0.1555176 0.9179688
vt 0.1555176 0.9179688
vt 0.1555176 0.9179688
vt 0.1555176 0.9179688
vt 0.1555176 0.9179688
vt 0.1555176 0.9179688
vt 0.1555176 0.9179688
vt 0.1555176 0.9179688
vt 0.1555176 0.9179688
vt 0.1555176 0.9179688
vt 0.1555176 0.9179688
vt 0.1555176 0.9179688
vt 0.1555176 0.9179688
vt 0.1555176 0.9179688
vt 0.1555176 0.9179688
vt 0.1555176 0.9179688
vt 0.1555176 0.9179688
vt 0.1555176 0.9179688
vt 0.1555176 0.9179688
vt 0.1555176 0.9179688
vt 0.1555176 0.9179688
vt 0.1555176 0.9179688
vt 0.1555176 0.9179688
vt 0.1555176 0.9179688
vt 0.1555176 0.9179688
vt 0.1555176 0.9179688
vt 0.1555176 0.9179688
vt 0.1555176 0.9179688
vt 0.1555176 0.9179688
vt 0.1555176 0.9179688
vt 0.1555176 0.9179688
vt 0.1555176 0.9179688
vt 0.1555176 0.9179688
vt 0.1555176 0.9179688
vt 0.1555176 0.9179688
vt 0.1555176 0.9179688
vt 0.1555176 0.9179688
vt 0.1555176 0.9179688
vt 0.1555176 0.9179688
vt 0.1555176 0.9179688
vt 0.1555176 0.9179688
vt 0.1555176 0.9179688
vt 0.1555176 0.9179688
vt 0.1555176 0.9179688
vt 0.1555176 0.9179688
vt 0.1555176 0.9179688
vt 0.1555176 0.9179688
vt 0.1555176 0.9179688
vt 0.1555176 0.9179688
vt 0.1555176 0.9179688
vt 0.1555176 0.9179688
vt 0.1555176 0.9179688
vt 0.1555176 0.9179688
vt 0.1555176 0.9179688
vt 0.1555176 0.9179688
vt 0.1555176 0.9179688
vt 0.1555176 0.9179688
vt 0.1555176 0.9179688
vt 0.1555176 0.9179688
vt 0.1555176 0.9179688
vt 0.1555176 0.9179688
vt 0.1555176 0.9179688
vt 0.1555176 0.9179688
vt 0.1555176 0.9179688
vt 0.1555176 0.9179688
vt 0.1555176 0.9179688
vt 0.1555176 0.9179688
vt 0.1555176 0.9179688
vt 0.1555176 0.9179688
vt 0.1555176 0.9179688
vt 0.1555176 0.9179688
vt 0.1555176 0.9179688
vt 0.1555176 0.9179688
vt 0.1555176 0.9179688
vt 0.1555176 0.9179688
vt 0.1555176 0.9179688
vt 0.1555176 0.9179688
vt 0.1555176 0.9179688
vt 0.1555176 0.9179688
vt 0.1555176 0.9179688
vt 0.1555176 0.9179688
vt 0.1555176 0.9179688
vt 0.1555176 0.9179688
vt 0.1555176 0.9179688
vt 0.1555176 0.9179688
vt 0.1555176 0.9179688
vt 0.1555176 0.9179688
vt 0.1555176 0.9179688
vt 0.1555176 0.9179688
vt 0.1555176 0.9179688
vt 0.1555176 0.9179688
vt 0.1555176 0.9179688
vt 0.1555176 0.9179688
vt 0.1555176 0.9179688
vt 0.1555176 0.9179688
vt 0.1555176 0.9179688
vt 0.1555176 0.9179688
vt 0.1555176 0.9179688
vt 0.1555176 0.9179688
vt 0.1555176 0.9179688
vt 0.1555176 0.9179688
vt 0.1555176 0.9179688
vt 0.1555176 0.9179688
vt 0.1555176 0.9179688
vt 0.1555176 0.9179688
vt 0.1555176 0.9179688
vt 0.1555176 0.9179688
vt 0.1555176 0.9179688
vt 0.1555176 0.9179688
vt 0.1555176 0.9179688
vt 0.1555176 0.9179688
vt 0.1555176 0.9179688
vt 0.1555176 0.9179688
vt 0.1555176 0.9179688
vt 0.1555176 0.9179688
vt 0.1555176 0.9179688
vt 0.1555176 0.9179688
vt 0.1555176 0.9179688
vt 0.1555176 0.9179688
vt 0.1555176 0.9179688
vt 0.1555176 0.9179688
vt 0.1555176 0.9179688
vt 0.1555176 0.9179688
vt 0.1555176 0.9179688
vt 0.1555176 0.9179688
vt 0.1555176 0.9179688
vt 0.1555176 0.9179688
vt 0.1555176 0.9179688
vt 0.1555176 0.9179688
vt 0.1555176 0.9179688
vt 0.1555176 0.9179688
vt 0.1555176 0.9179688
vt 0.1555176 0.9179688
vt 0.1555176 0.9179688
vt 0.1555176 0.9179688
vt 0.1555176 0.9179688
vt 0.1555176 0.9179688
vt 0.1555176 0.9179688
vt 0.1555176 0.9179688
vt 0.1555176 0.9179688
vt 0.1555176 0.9179688
vt 0.1555176 0.9179688
vt 0.1555176 0.9179688
vt 0.1555176 0.9179688
vt 0.1555176 0.9179688
vt 0.1555176 0.9179688
vt 0.1555176 0.9179688
vt 0.1555176 0.9179688
vt 0.1555176 0.9179688
vt 0.1555176 0.9179688
vt 0.1555176 0.9179688
vt 0.1555176 0.9179688
vt 0.1555176 0.9179688
vt 0.1555176 0.9179688
vt 0.1555176 0.9179688
vt 0.1555176 0.9179688
vt 0.1555176 0.9179688
vt 0.1555176 0.9179688
vt 0.1555176 0.9179688
vt 0.1555176 0.9179688
vt 0.1555176 0.9179688
vt 0.1555176 0.9179688
vt 0.1555176 0.9179688
vt 0.1555176 0.9179688
vt 0.1555176 0.9179688
vt 0.1555176 0.9179688
vt 0.1555176 0.9179688
vt 0.1555176 0.9179688
vt 0.1555176 0.9179688
vt 0.1555176 0.9179688
vt 0.1555176 0.9179688
vt 0.1555176 0.9179688
vt 0.1555176 0.9179688
vt 0.1555176 0.9179688
vt 0.1555176 0.9179688
vt 0.1555176 0.9179688
vt 0.1555176 0.9179688
vt 0.1555176 0.9179688
vt 0.1555176 0.9179688
vt 0.1555176 0.9179688
vt 0.1555176 0.9179688
vt 0.1555176 0.9179688
vt 0.1555176 0.9179688
vt 0.1555176 0.9179688
vt 0.1555176 0.9179688
vt 0.1555176 0.9179688
vt 0.1555176 0.9179688
vt 0.1555176 0.9179688
vt 0.1555176 0.9179688
vt 0.1555176 0.9179688
vt 0.1555176 0.9179688
vt 0.1555176 0.9179688
vt 0.1555176 0.9179688
vt 0.1555176 0.9179688
vt 0.1555176 0.9179688
vt 0.1555176 0.9179688
vt 0.1555176 0.9179688
vt 0.1555176 0.9179688
vt 0.1555176 0.9179688
vt 0.1555176 0.9179688
vt 0.1555176 0.9179688
vt 0.1555176 0.9179688
vt 0.1555176 0.9179688
vt 0.1555176 0.9179688
vt 0.1555176 0.9179688
vt 0.1555176 0.9179688
vt 0.1555176 0.9179688
vt 0.1555176 0.9179688
vt 0.1555176 0.9179688
vt 0.1555176 0.9179688
vt 0.1555176 0.9179688
vt 0.1555176 0.9179688
vt 0.1555176 0.9179688
vt 0.1555176 0.9179688
vt 0.1555176 0.9179688
vt 0.1555176 0.9179688
vt 0.1555176 0.9179688
vt 0.1555176 0.9179688
vt 0.1555176 0.9179688
vt 0.1555176 0.9179688
vt 0.1555176 0.9179688
vt 0.1555176 0.9179688
vt 0.1555176 0.9179688
vt 0.1555176 0.9179688
vt 0.1555176 0.9179688
vt 0.1555176 0.9179688
vt 0.1555176 0.9179688
vt 0.1555176 0.9179688
vt 0.1555176 0.9179688
vt 0.1555176 0.9179688
vt 0.1555176 0.9179688
vt 0.1555176 0.9179688
vt 0.1555176 0.9179688
vt 0.1555176 0.9179688
vt 0.1555176 0.9179688
vt 0.1555176 0.9179688
vt 0.1555176 0.9179688
vt 0.1555176 0.9179688
vt 0.1555176 0.9179688
vt 0.1555176 0.9179688
vt 0.1555176 0.9179688
vt 0.1555176 0.9179688
vt 0.1555176 0.9179688
vt 0.1555176 0.9179688
vt 0.1555176 0.9179688
vt 0.1555176 0.9179688
vt 0.1555176 0.9179688
vt 0.1555176 0.9179688
vt 0.1555176 0.9179688
vt 0.1555176 0.9179688
vt 0.1555176 0.9179688
vt 0.1555176 0.9179688
vt 0.1555176 0.9179688
vt 0.1555176 0.9179688
vt 0.1555176 0.9179688
vt 0.1555176 0.9179688
vt 0.1555176 0.9179688
vt 0.1555176 0.9179688
vt 0.1555176 0.9179688
vt 0.1555176 0.9179688
vt 0.1555176 0.9179688
vt 0.1555176 0.9179688
vt 0.1555176 0.9179688
vt 0.1555176 0.9179688
vt 0.1555176 0.9179688
vt 0.1555176 0.9179688
vt 0.1555176 0.9179688
vt 0.1555176 0.9179688
vt 0.1555176 0.9179688
vt 0.1555176 0.9179688
vt 0.1555176 0.9179688
vt 0.1555176 0.9179688
vt 0.1555176 0.9179688
vt 0.1555176 0.9179688
vt 0.1555176 0.9179688
vt 0.1555176 0.9179688
vt 0.1555176 0.9179688
vt 0.1555176 0.9179688
vt 0.1555176 0.9179688
vt 0.1555176 0.9179688
vt 0.1555176 0.9179688
vt 0.1555176 0.9179688
vt 0.1555176 0.9179688
vt 0.1555176 0.9179688
vt 0.1555176 0.9179688
vt 0.1555176 0.9179688
vt 0.1555176 0.9179688
vt 0.1555176 0.9179688
vt 0.1555176 0.9179688
vt 0.1555176 0.9179688
vt 0.1555176 0.9179688
vt 0.1555176 0.9179688
vt 0.1555176 0.9179688
vt 0.1555176 0.9179688
vt 0.1555176 0.9179688
vt 0.1555176 0.9179688
vt 0.1555176 0.9179688
vt 0.1555176 0.9179688
vt 0.1555176 0.9179688
vt 0.1555176 0.9179688
vt 0.1555176 0.9179688
vt 0.1555176 0.9179688
vt 0.1555176 0.9179688
vt 0.1555176 0.9179688
vt 0.1534424 0.8291016
vt 0.1534424 0.8291016
vt 0.1534424 0.8291016
vt 0.1534424 0.8291016
vt 0.1534424 0.8291016
vt 0.1534424 0.8291016
vt 0.1534424 0.8291016
vt 0.1534424 0.8291016
vt 0.1534424 0.8291016
vt 0.1534424 0.8291016
vt 0.1534424 0.8291016
vt 0.1534424 0.8291016
vt 0.1534424 0.8291016
vt 0.1534424 0.8291016
vt 0.1534424 0.8291016
vt 0.1534424 0.8291016
vt 0.1534424 0.8291016
vt 0.1534424 0.8291016
vt 0.1534424 0.8291016
vt 0.1534424 0.8291016
vt 0.1534424 0.8291016
vt 0.1534424 0.8291016
vt 0.1534424 0.8291016
vt 0.1534424 0.8291016
vt 0.1534424 0.8291016
vt 0.1534424 0.8291016
vt 0.1534424 0.8291016
vt 0.1534424 0.8291016
vt 0.1534424 0.8291016
vt 0.1534424 0.8291016
vt 0.1534424 0.8291016
vt 0.1534424 0.8291016
vt 0.1534424 0.8291016
vt 0.1534424 0.8291016
vt 0.1534424 0.8291016
vt 0.1534424 0.8291016
vt 0.1534424 0.8291016
vt 0.1534424 0.8291016
vt 0.1534424 0.8291016
vt 0.1534424 0.8291016
vt 0.1534424 0.8291016
vt 0.1534424 0.8291016
vt 0.1534424 0.8291016
vt 0.1534424 0.8291016
vt 0.1534424 0.8291016
vt 0.1534424 0.8291016
vt 0.1534424 0.8291016
vt 0.1534424 0.8291016
vt 0.1534424 0.8291016
vt 0.1534424 0.8291016
vt 0.1534424 0.8291016
vt 0.1534424 0.8291016
vt 0.1534424 0.8291016
vt 0.1534424 0.8291016
vt 0.1534424 0.8291016
vt 0.1534424 0.8291016
vt 0.1534424 0.8291016
vt 0.1534424 0.8291016
vt 0.1534424 0.8291016
vt 0.1534424 0.8291016
vt 0.9775391 0.9057617
vt 0.9775391 0.9057617
vt 0.9775391 0.9057617
vt 0.9775391 0.9057617
vt 0.9775391 0.9057617
vt 0.9775391 0.9057617
vt 0.9775391 0.9057617
vt 0.9775391 0.9057617
vt 0.9775391 0.9057617
vt 0.9775391 0.9057617
vt 0.9775391 0.9057617
vt 0.9775391 0.9057617
vt 0.9775391 0.9057617
vt 0.9775391 0.9057617
vt 0.9775391 0.9057617
vt 0.9775391 0.9057617
vt 0.9775391 0.9057617
vt 0.9775391 0.9057617
vt 0.9775391 0.9057617
vt 0.9775391 0.9057617
vt 0.9775391 0.9057617
vt 0.9775391 0.9057617
vt 0.9775391 0.9057617
vt 0.9775391 0.9057617
vt 0.9775391 0.9057617
vt 0.9775391 0.9057617
vt 0.9775391 0.9057617
vt 0.9775391 0.9057617
vt 0.9775391 0.9057617
vt 0.9775391 0.9057617
vt 0.9775391 0.9057617
vt 0.9775391 0.9057617
vt 0.9775391 0.9057617
vt 0.9775391 0.9057617
vt 0.9775391 0.9057617
vt 0.9775391 0.9057617
vt 0.9775391 0.9057617
vt 0.9775391 0.9057617
vt 0.9775391 0.9057617
vt 0.9775391 0.9057617
vt 0.9775391 0.9057617
vt 0.9775391 0.9057617
vt 0.9775391 0.9057617
vt 0.9775391 0.9057617
vt 0.9775391 0.9057617
vt 0.9775391 0.9057617
vt 0.9775391 0.9057617
vt 0.9775391 0.9057617
vt 0.9775391 0.9057617
vt 0.9775391 0.9057617
vt 0.9775391 0.9057617
vt 0.9775391 0.9057617
vt 0.9775391 0.9057617
vt 0.9775391 0.9057617
vt 0.9775391 0.9057617
vt 0.9775391 0.9057617
vt 0.9775391 0.9057617
vt 0.9775391 0.9057617
vt 0.9775391 0.9057617
vt 0.9775391 0.9057617
vt 0.9775391 0.9057617
vt 0.9775391 0.9057617
vt 0.9775391 0.9057617
vt 0.9775391 0.9057617
vt 0.9775391 0.9057617
vt 0.9775391 0.9057617
vt 0.9775391 0.9057617
vt 0.9775391 0.9057617
vt 0.9775391 0.9057617
vt 0.9775391 0.9057617
vt 0.9775391 0.9057617
vt 0.9775391 0.9057617
vt 0.9775391 0.9057617
vt 0.9775391 0.9057617
vt 0.9775391 0.9057617
vt 0.9775391 0.9057617
vt 0.9775391 0.9057617
vt 0.9775391 0.9057617
vt 0.9775391 0.9057617
vt 0.9775391 0.9057617
vt 0.9775391 0.9057617
vt 0.9775391 0.9057617
vt 0.9775391 0.9057617
vt 0.9775391 0.9057617
vt 0.9775391 0.9057617
vt 0.9775391 0.9057617
vt 0.9775391 0.9057617
vt 0.9775391 0.9057617
vt 0.9775391 0.9057617
vt 0.9775391 0.9057617
vt 0.9775391 0.9057617
vt 0.9775391 0.9057617
vt 0.9775391 0.9057617
vt 0.9775391 0.9057617
vt 0.9775391 0.9057617
vt 0.9775391 0.9057617
vt 0.9775391 0.9057617
vt 0.9775391 0.9057617
vt 0.9775391 0.9057617
vt 0.9775391 0.9057617
vt 0.9775391 0.9057617
vt 0.9775391 0.9057617
vt 0.9775391 0.9057617
vt 0.9775391 0.9057617
vt 0.9775391 0.9057617
vt 0.9775391 0.9057617
vt 0.9775391 0.9057617
vt 0.9775391 0.9057617
vt 0.9775391 0.9057617
vt 0.9775391 0.9057617
vt 0.9775391 0.9057617
vt 0.9775391 0.9057617
vt 0.9775391 0.9057617
vt 0.9775391 0.9057617
vt 0.9775391 0.9057617
vt 0.9775391 0.9057617
vt 0.9775391 0.9057617
vt 0.9775391 0.9057617
vt 0.9775391 0.9057617
vt 0.9775391 0.9057617
vt 0.9775391 0.9057617
vt 0.9775391 0.9057617
vt 0.9775391 0.9057617
vt 0.9775391 0.9057617
vt 0.9775391 0.9057617
vt 0.9775391 0.9057617
vt 0.9775391 0.9057617
vt 0.9775391 0.9057617
vt 0.9775391 0.9057617
vt 0.9775391 0.9057617
vt 0.9775391 0.9057617
vt 0.9775391 0.9057617
vt 0.9775391 0.9057617
vt 0.9775391 0.9057617
vt 0.9775391 0.9057617
vt 0.9775391 0.9057617
vt 0.9775391 0.9057617
vt 0.9775391 0.9057617
vt 0.9775391 0.9057617
vt 0.9775391 0.9057617
vt 0.9775391 0.9057617
vt 0.9775391 0.9057617
vt 0.9775391 0.9057617
vt 0.9775391 0.9057617
vt 0.9775391 0.9057617
vt 0.9775391 0.9057617
vt 0.9775391 0.9057617
vt 0.9775391 0.9057617
vt 0.9775391 0.9057617
vt 0.9775391 0.9057617
vt 0.9775391 0.9057617
vt 0.9775391 0.9057617
vt 0.9775391 0.9057617
vt 0.9775391 0.9057617
vt 0.9775391 0.9057617
vt 0.9775391 0.9057617
vt 0.9775391 0.9057617
vt 0.9775391 0.9057617
vt 0.9775391 0.9057617
vt 0.9775391 0.9057617
vt 0.9775391 0.9057617
vt 0.9775391 0.9057617
vt 0.9775391 0.9057617
vt 0.9775391 0.9057617
vt 0.9775391 0.9057617
vt 0.9775391 0.9057617
vt 0.9775391 0.9057617
vt 0.9775391 0.9057617
vt 0.9775391 0.9057617
vt 0.9775391 0.9057617
vt 0.9775391 0.9057617
vt 0.9775391 0.9057617
vt 0.9775391 0.9057617
vt 0.9775391 0.9057617
vt 0.9775391 0.9057617
vt 0.9775391 0.9057617
vt 0.9775391 0.9057617
vt 0.9775391 0.9057617
vt 0.9775391 0.9057617
vt 0.9775391 0.9057617
vt 0.9775391 0.9057617
vt 0.9775391 0.9057617
vt 0.9775391 0.9057617
vt 0.9775391 0.9057617
vt 0.9775391 0.9057617
vt 0.9775391 0.9057617
vt 0.9775391 0.9057617
vt 0.9775391 0.9057617
vt 0.9775391 0.9057617
vt 0.9775391 0.9057617
vt 0.9775391 0.9057617
vt 0.9775391 0.9057617
vt 0.9775391 0.9057617
vt 0.9775391 0.9057617
vt 0.9775391 0.9057617
vt 0.9775391 0.9057617
vt 0.9775391 0.9057617
vt 0.9775391 0.9057617
vt 0.9775391 0.9057617
vt 0.9775391 0.9057617
vt 0.9775391 0.9057617
vt 0.9775391 0.9057617
vt 0.9775391 0.9057617
vt 0.9775391 0.9057617
vt 0.9775391 0.9057617
vt 0.9775391 0.9057617
vt 0.9775391 0.9057617
vt 0.9775391 0.9057617
vt 0.9775391 0.9057617
vt 0.9775391 0.9057617
vt 0.9775391 0.9057617
vt 0.9775391 0.9057617
vt 0.9775391 0.9057617
vt 0.9775391 0.9057617
vt 0.9775391 0.9057617
vt 0.9775391 0.9057617
vt 0.9775391 0.9057617
vt 0.9775391 0.9057617
vt 0.9775391 0.9057617
vt 0.9775391 0.9057617
vt 0.9775391 0.9057617
vt 0.9775391 0.9057617
vt 0.9775391 0.9057617
vt 0.9775391 0.9057617
vt 0.9775391 0.9057617
vt 0.9775391 0.9057617
vt 0.9775391 0.9057617
vt 0.9775391 0.9057617
vt 0.9775391 0.9057617
vt 0.9775391 0.9057617
vt 0.9775391 0.9057617
vt 0.9775391 0.9057617
vt 0.9775391 0.9057617
vt 0.9775391 0.9057617
vt 0.9775391 0.9057617
vt 0.9775391 0.9057617
vt 0.9775391 0.9057617
vt 0.9775391 0.9057617
vt 0.9775391 0.9057617
vt 0.9775391 0.9057617
vt 0.9775391 0.9057617
vt 0.9775391 0.9057617
vt 0.9775391 0.9057617
vt 0.9775391 0.9057617
vt 0.9775391 0.9057617
vt 0.9775391 0.9057617
vt 0.9775391 0.9057617
vt 0.9775391 0.9057617
vt 0.9775391 0.9057617
vt 0.9775391 0.9057617
vt 0.9775391 0.9057617
vt 0.9775391 0.9057617
vt 0.9775391 0.9057617
vt 0.9775391 0.9057617
vt 0.9775391 0.9057617
vt 0.9775391 0.9057617
vt 0.9775391 0.9057617
vt 0.9775391 0.9057617
vt 0.9775391 0.9057617
vt 0.9775391 0.9057617
vt 0.9775391 0.9057617
vt 0.9775391 0.9057617
vt 0.9775391 0.9057617
vt 0.9775391 0.9057617
vt 0.9775391 0.9057617
vt 0.9775391 0.9057617
vt 0.9775391 0.9057617
vt 0.9775391 0.9057617
vt 0.9775391 0.9057617
vt 0.9775391 0.9057617
vt 0.9775391 0.9057617
vt 0.9775391 0.9057617
vt 0.9775391 0.9057617
vt 0.9775391 0.9057617
vt 0.9775391 0.9057617
vt 0.9775391 0.9057617
vt 0.9775391 0.9057617
vt 0.9775391 0.9057617
vt 0.9775391 0.9057617
vt 0.9775391 0.9057617
vt 0.9775391 0.9057617
vt 0.9775391 0.9057617
vt 0.9775391 0.9057617
vt 0.9775391 0.9057617
vt 0.9775391 0.9057617
vt 0.9775391 0.9057617
vt 0.9775391 0.9057617
vt 0.9775391 0.9057617
vt 0.9775391 0.9057617
vt 0.9775391 0.9057617
vt 0.9775391 0.9057617
vt 0.9775391 0.9057617
vt 0.9775391 0.9057617
vt 0.9775391 0.9057617
vt 0.9775391 0.9057617
vt 0.9775391 0.9057617
vt 0.9775391 0.9057617
vt 0.9775391 0.9057617
vt 0.9775391 0.9057617
vt 0.9775391 0.9057617
vt 0.9775391 0.9057617
vt 0.9775391 0.9057617
vt 0.9775391 0.9057617
vt 0.9775391 0.9057617
vt 0.9775391 0.9057617
vt 0.9775391 0.9057617
vt 0.9775391 0.9057617
vt 0.9775391 0.9057617
vt 0.9775391 0.9057617
vt 0.9775391 0.9057617
vt 0.9775391 0.9057617
vt 0.9775391 0.9057617
vt 0.9775391 0.9057617
vt 0.9775391 0.9057617
vt 0.9775391 0.9057617
vt 0.9775391 0.9057617
vt 0.9775391 0.9057617
vt 0.9775391 0.9057617
vt 0.9775391 0.9057617
vt 0.9775391 0.9057617
vt 0.9775391 0.9057617
vt 0.9775391 0.9057617
vt 0.9775391 0.9057617
vt 0.9775391 0.9057617
vt 0.9775391 0.9057617
vt 0.9775391 0.9057617
vt 0.9775391 0.9057617
vt 0.9775391 0.9057617
vt 0.9775391 0.9057617
vt 0.9775391 0.9057617
vt 0.9775391 0.9057617
vt 0.9775391 0.9057617
vt 0.9775391 0.9057617
vt 0.9775391 0.9057617
vt 0.9775391 0.9057617
vt 0.9775391 0.9057617
vt 0.9775391 0.9057617
vt 0.9775391 0.9057617
vt 0.9775391 0.9057617
vt 0.9775391 0.9057617
vt 0.9775391 0.9057617
vt 0.9775391 0.9057617
vt 0.9775391 0.9057617
vt 0.9775391 0.9057617
vt 0.9775391 0.9057617
vt 0.9775391 0.9057617
vt 0.9775391 0.9057617
vt 0.9775391 0.9057617
vt 0.9775391 0.9057617
vt 0.9775391 0.9057617
vt 0.9775391 0.9057617
vt 0.9775391 0.9057617
vt 0.9775391 0.9057617
vt 0.9775391 0.9057617
vt 0.9775391 0.9057617
vt 0.9775391 0.9057617
vt 0.9775391 0.9057617
vt 0.9775391 0.9057617
vt 0.9775391 0.9057617
vt 0.9775391 0.9057617
vt 0.1555176 0.9179688
vt 0.1555176 0.9179688
vt 0.1555176 0.9179688
vt 0.1555176 0.9179688
vt 0.1555176 0.9179688
vt 0.1555176 0.9179688
vt 0.1555176 0.9179688
vt 0.1555176 0.9179688
vt 0.1555176 0.9179688
vt 0.1555176 0.9179688
vt 0.1555176 0.9179688
vt 0.1555176 0.9179688
vt 0.1555176 0.9179688
vt 0.1555176 0.9179688
vt 0.1555176 0.9179688
vt 0.1555176 0.9179688
vt 0.1555176 0.9179688
vt 0.1555176 0.9179688
vt 0.1555176 0.9179688
vt 0.1555176 0.9179688
vt 0.1555176 0.9179688
vt 0.1555176 0.9179688
vt 0.1555176 0.9179688
vt 0.1555176 0.9179688
vt 0.1555176 0.9179688
vt 0.1555176 0.9179688
vt 0.1555176 0.9179688
vt 0.1555176 0.9179688
vt 0.1555176 0.9179688
vt 0.1555176 0.9179688
vt 0.1555176 0.9179688
vt 0.1555176 0.9179688
vt 0.1555176 0.9179688
vt 0.1555176 0.9179688
vt 0.1555176 0.9179688
vt 0.1555176 0.9179688
vt 0.1555176 0.9179688
vt 0.1555176 0.9179688
vt 0.1555176 0.9179688
vt 0.1555176 0.9179688
vt 0.1555176 0.9179688
vt 0.1555176 0.9179688
vt 0.1555176 0.9179688
vt 0.1555176 0.9179688
vt 0.1555176 0.9179688
vt 0.1555176 0.9179688
vt 0.1555176 0.9179688
vt 0.1555176 0.9179688
vt 0.1555176 0.9179688
vt 0.1555176 0.9179688
vt 0.1555176 0.9179688
vt 0.1555176 0.9179688
vt 0.1555176 0.9179688
vt 0.1555176 0.9179688
vt 0.1555176 0.9179688
vt 0.1555176 0.9179688
vt 0.1555176 0.9179688
vt 0.1555176 0.9179688
vt 0.1555176 0.9179688
vt 0.1555176 0.9179688
vt 0.1555176 0.9179688
vt 0.1555176 0.9179688
vt 0.1555176 0.9179688
vt 0.1555176 0.9179688
vt 0.1555176 0.9179688
vt 0.1555176 0.9179688
vt 0.1555176 0.9179688
vt 0.1555176 0.9179688
vt 0.1555176 0.9179688
vt 0.1555176 0.9179688
vt 0.1555176 0.9179688
vt 0.1555176 0.9179688
vt 0.1555176 0.9179688
vt 0.1555176 0.9179688
vt 0.1555176 0.9179688
vt 0.1555176 0.9179688
vt 0.1555176 0.9179688
vt 0.1555176 0.9179688
vt 0.1555176 0.9179688
vt 0.1555176 0.9179688
vt 0.1555176 0.9179688
vt 0.1555176 0.9179688
vt 0.1555176 0.9179688
vt 0.1555176 0.9179688
vt 0.1555176 0.9179688
vt 0.1555176 0.9179688
vt 0.1555176 0.9179688
vt 0.1555176 0.9179688
vt 0.1555176 0.9179688
vt 0.1555176 0.9179688
vt 0.1555176 0.9179688
vt 0.1555176 0.9179688
vt 0.1555176 0.9179688
vt 0.1555176 0.9179688
vt 0.1555176 0.9179688
vt 0.1555176 0.9179688
vt 0.1555176 0.9179688
vt 0.1555176 0.9179688
vt 0.1555176 0.9179688
vt 0.1555176 0.9179688
vt 0.1555176 0.9179688
vt 0.1555176 0.9179688
vt 0.1555176 0.9179688
vt 0.1555176 0.9179688
vt 0.1555176 0.9179688
vt 0.1555176 0.9179688
vt 0.1555176 0.9179688
vt 0.1555176 0.9179688
vt 0.1555176 0.9179688
vt 0.1555176 0.9179688
vt 0.1555176 0.9179688
vt 0.1555176 0.9179688
vt 0.1555176 0.9179688
vt 0.1555176 0.9179688
vt 0.1555176 0.9179688
vt 0.1555176 0.9179688
vt 0.1555176 0.9179688
vt 0.1555176 0.9179688
vt 0.1555176 0.9179688
vt 0.1555176 0.9179688
vt 0.1555176 0.9179688
vt 0.1555176 0.9179688
vt 0.1555176 0.9179688
vt 0.1555176 0.9179688
vt 0.1555176 0.9179688
vt 0.1555176 0.9179688
vt 0.1555176 0.9179688
vt 0.1555176 0.9179688
vt 0.1555176 0.9179688
vt 0.1555176 0.9179688
vt 0.1555176 0.9179688
vt 0.1555176 0.9179688
vt 0.1555176 0.9179688
vt 0.1555176 0.9179688
vt 0.1555176 0.9179688
vt 0.1555176 0.9179688
vt 0.1555176 0.9179688
vt 0.1555176 0.9179688
vt 0.1555176 0.9179688
vt 0.1555176 0.9179688
vt 0.1555176 0.9179688
vt 0.1555176 0.9179688
vt 0.1555176 0.9179688
vt 0.1555176 0.9179688
vt 0.1555176 0.9179688
vt 0.1555176 0.9179688
vt 0.1555176 0.9179688
vt 0.1555176 0.9179688
vt 0.1555176 0.9179688
vt 0.1555176 0.9179688
vt 0.1555176 0.9179688
vt 0.1555176 0.9179688
vt 0.1555176 0.9179688
vt 0.1555176 0.9179688
vt 0.1555176 0.9179688
vt 0.1555176 0.9179688
vt 0.1555176 0.9179688
vt 0.1555176 0.9179688
vt 0.1555176 0.9179688
vt 0.1555176 0.9179688
vn 0.6889648 -0.6889648 -0.223877
vn 0.6889648 -0.6889648 -0.223877
vn 0.6889648 -0.6889648 -0.223877
vn 0.6889648 -0.6889648 -0.223877
vn -0.6889648 -0.6889648 0.223877
vn -0.6889648 -0.6889648 0.223877
vn -0.6889648 -0.6889648 0.223877
vn -0.6889648 -0.6889648 0.223877
vn -0.6889648 0.6889648 0.223877
vn -0.6889648 0.6889648 0.223877
vn -0.6889648 0.6889648 0.223877
vn -0.6889648 0.6889648 0.223877
vn 0.6889648 0.6889648 -0.223877
vn 0.6889648 0.6889648 -0.223877
vn 0.6889648 0.6889648 -0.223877
vn 0.6889648 0.6889648 -0.223877
vn 0.4257813 -0.6889648 -0.5859375
vn 0.4257813 -0.6889648 -0.5859375
vn 0.4257813 -0.6889648 -0.5859375
vn 0.4257813 -0.6889648 -0.5859375
vn -0.4257813 -0.6889648 0.5859375
vn -0.4257813 -0.6889648 0.5859375
vn -0.4257813 -0.6889648 0.5859375
vn -0.4257813 -0.6889648 0.5859375
vn -0.4257813 0.6889648 0.5859375
vn -0.4257813 0.6889648 0.5859375
vn -0.4257813 0.6889648 0.5859375
vn -0.4257813 0.6889648 0.5859375
vn 0.4257813 0.6889648 -0.5859375
vn 0.4257813 0.6889648 -0.5859375
vn 0.4257813 0.6889648 -0.5859375
vn 0.4257813 0.6889648 -0.5859375
vn 0 -0.6889648 -0.7246094
vn 0 -0.6889648 -0.7246094
vn 0 -0.6889648 -0.7246094
vn 0 -0.6889648 -0.7246094
vn 0 -0.6889648 0.7246094
vn 0 -0.6889648 0.7246094
vn 0 -0.6889648 0.7246094
vn 0 -0.6889648 0.7246094
vn 0 0.6889648 0.7246094
vn 0 0.6889648 0.7246094
vn 0 0.6889648 0.7246094
vn 0 0.6889648 0.7246094
vn 0 0.6889648 -0.7246094
vn 0 0.6889648 -0.7246094
vn 0 0.6889648 -0.7246094
vn 0 0.6889648 -0.7246094
vn -0.4257813 -0.6889648 -0.5859375
vn -0.4257813 -0.6889648 -0.5859375
vn -0.4257813 -0.6889648 -0.5859375
vn -0.4257813 -0.6889648 -0.5859375
vn 0.4257813 -0.6889648 0.5859375
vn 0.4257813 -0.6889648 0.5859375
vn 0.4257813 -0.6889648 0.5859375
vn 0.4257813 -0.6889648 0.5859375
vn 0.4257813 0.6889648 0.5859375
vn 0.4257813 0.6889648 0.5859375
vn 0.4257813 0.6889648 0.5859375
vn 0.4257813 0.6889648 0.5859375
vn -0.4257813 0.6889648 -0.5859375
vn -0.4257813 0.6889648 -0.5859375
vn -0.4257813 0.6889648 -0.5859375
vn -0.4257813 0.6889648 -0.5859375
vn -0.6889648 -0.6889648 -0.223877
vn -0.6889648 -0.6889648 -0.223877
vn -0.6889648 -0.6889648 -0.223877
vn -0.6889648 -0.6889648 -0.223877
vn 0.6889648 -0.6889648 0.223877
vn 0.6889648 -0.6889648 0.223877
vn 0.6889648 -0.6889648 0.223877
vn 0.6889648 -0.6889648 0.223877
vn 0.6889648 0.6889648 0.223877
vn 0.6889648 0.6889648 0.223877
vn 0.6889648 0.6889648 0.223877
vn 0.6889648 0.6889648 0.223877
vn -0.6889648 0.6889648 -0.223877
vn -0.6889648 0.6889648 -0.223877
vn -0.6889648 0.6889648 -0.223877
vn -0.6889648 0.6889648 -0.223877
vn -0.6889648 -0.6889648 0.223877
vn -0.6889648 -0.6889648 0.223877
vn -0.6889648 -0.6889648 0.223877
vn -0.6889648 -0.6889648 0.223877
vn 0.6889648 -0.6889648 -0.223877
vn 0.6889648 -0.6889648 -0.223877
vn 0.6889648 -0.6889648 -0.223877
vn 0.6889648 -0.6889648 -0.223877
vn 0.6889648 0.6889648 -0.223877
vn 0.6889648 0.6889648 -0.223877
vn 0.6889648 0.6889648 -0.223877
vn 0.6889648 0.6889648 -0.223877
vn -0.6889648 0.6889648 0.223877
vn -0.6889648 0.6889648 0.223877
vn -0.6889648 0.6889648 0.223877
vn -0.6889648 0.6889648 0.223877
vn -0.4257813 -0.6889648 0.5859375
vn -0.4257813 -0.6889648 0.5859375
vn -0.4257813 -0.6889648 0.5859375
vn -0.4257813 -0.6889648 0.5859375
vn 0.4257813 -0.6889648 -0.5859375
vn 0.4257813 -0.6889648 -0.5859375
vn 0.4257813 -0.6889648 -0.5859375
vn 0.4257813 -0.6889648 -0.5859375
vn 0.4257813 0.6889648 -0.5859375
vn 0.4257813 0.6889648 -0.5859375
vn 0.4257813 0.6889648 -0.5859375
vn 0.4257813 0.6889648 -0.5859375
vn -0.4257813 0.6889648 0.5859375
vn -0.4257813 0.6889648 0.5859375
vn -0.4257813 0.6889648 0.5859375
vn -0.4257813 0.6889648 0.5859375
vn 0 -0.6889648 0.7246094
vn 0 -0.6889648 0.7246094
vn 0 -0.6889648 0.7246094
vn 0 -0.6889648 0.7246094
vn 0 -0.6889648 -0.7246094
vn 0 -0.6889648 -0.7246094
vn 0 -0.6889648 -0.7246094
vn 0 -0.6889648 -0.7246094
vn 0 0.6889648 -0.7246094
vn 0 0.6889648 -0.7246094
vn 0 0.6889648 -0.7246094
vn 0 0.6889648 -0.7246094
vn 0 0.6889648 0.7246094
vn 0 0.6889648 0.7246094
vn 0 0.6889648 0.7246094
vn 0 0.6889648 0.7246094
vn 0.4257813 -0.6889648 0.5859375
vn 0.4257813 -0.6889648 0.5859375
vn 0.4257813 -0.6889648 0.5859375
vn 0.4257813 -0.6889648 0.5859375
vn -0.4257813 -0.6889648 -0.5859375
vn -0.4257813 -0.6889648 -0.5859375
vn -0.4257813 -0.6889648 -0.5859375
vn -0.4257813 -0.6889648 -0.5859375
vn -0.4257813 0.6889648 -0.5859375
vn -0.4257813 0.6889648 -0.5859375
vn -0.4257813 0.6889648 -0.5859375
vn -0.4257813 0.6889648 -0.5859375
vn 0.4257813 0.6889648 0.5859375
vn 0.4257813 0.6889648 0.5859375
vn 0.4257813 0.6889648 0.5859375
vn 0.4257813 0.6889648 0.5859375
vn 0.6889648 -0.6889648 0.223877
vn 0.6889648 -0.6889648 0.223877
vn 0.6889648 -0.6889648 0.223877
vn 0.6889648 -0.6889648 0.223877
vn -0.6889648 -0.6889648 -0.223877
vn -0.6889648 -0.6889648 -0.223877
vn -0.6889648 -0.6889648 -0.223877
vn -0.6889648 -0.6889648 -0.223877
vn -0.6889648 0.6889648 -0.223877
vn -0.6889648 0.6889648 -0.223877
vn -0.6889648 0.6889648 -0.223877
vn -0.6889648 0.6889648 -0.223877
vn 0.6889648 0.6889648 0.223877
vn 0.6889648 0.6889648 0.223877
vn 0.6889648 0.6889648 0.223877
vn 0.6889648 0.6889648 0.223877
vn 0.6889648 0.223877 -0.6889648
vn 0.6889648 0.223877 -0.6889648
vn 0.6889648 0.223877 -0.6889648
vn 0.6889648 0.223877 -0.6889648
vn -0.6889648 -0.223877 -0.6889648
vn -0.6889648 -0.223877 -0.6889648
vn -0.6889648 -0.223877 -0.6889648
vn -0.6889648 -0.223877 -0.6889648
vn -0.6889648 -0.223877 0.6889648
vn -0.6889648 -0.223877 0.6889648
vn -0.6889648 -0.223877 0.6889648
vn -0.6889648 -0.223877 0.6889648
vn 0.6889648 0.223877 0.6889648
vn 0.6889648 0.223877 0.6889648
vn 0.6889648 0.223877 0.6889648
vn 0.6889648 0.223877 0.6889648
vn 0.4257813 0.5859375 -0.6889648
vn 0.4257813 0.5859375 -0.6889648
vn 0.4257813 0.5859375 -0.6889648
vn 0.4257813 0.5859375 -0.6889648
vn -0.4257813 -0.5859375 -0.6889648
vn -0.4257813 -0.5859375 -0.6889648
vn -0.4257813 -0.5859375 -0.6889648
vn -0.4257813 -0.5859375 -0.6889648
vn -0.4257813 -0.5859375 0.6889648
vn -0.4257813 -0.5859375 0.6889648
vn -0.4257813 -0.5859375 0.6889648
vn -0.4257813 -0.5859375 0.6889648
vn 0.4257813 0.5859375 0.6889648
vn 0.4257813 0.5859375 0.6889648
vn 0.4257813 0.5859375 0.6889648
vn 0.4257813 0.5859375 0.6889648
vn 0 0.7246094 -0.6889648
vn 0 0.7246094 -0.6889648
vn 0 0.7246094 -0.6889648
vn 0 0.7246094 -0.6889648
vn 0 -0.7246094 -0.6889648
vn 0 -0.7246094 -0.6889648
vn 0 -0.7246094 -0.6889648
vn 0 -0.7246094 -0.6889648
vn 0 -0.7246094 0.6889648
vn 0 -0.7246094 0.6889648
vn 0 -0.7246094 0.6889648
vn 0 -0.7246094 0.6889648
vn 0 0.7246094 0.6889648
vn 0 0.7246094 0.6889648
vn 0 0.7246094 0.6889648
vn 0 0.7246094 0.6889648
vn -0.4257813 0.5859375 -0.6889648
vn -0.4257813 0.5859375 -0.6889648
vn -0.4257813 0.5859375 -0.6889648
vn -0.4257813 0.5859375 -0.6889648
vn 0.4257813 -0.5859375 -0.6889648
vn 0.4257813 -0.5859375 -0.6889648
vn 0.4257813 -0.5859375 -0.6889648
vn 0.4257813 -0.5859375 -0.6889648
vn 0.4257813 -0.5859375 0.6889648
vn 0.4257813 -0.5859375 0.6889648
vn 0.4257813 -0.5859375 0.6889648
vn 0.4257813 -0.5859375 0.6889648
vn -0.4257813 0.5859375 0.6889648
vn -0.4257813 0.5859375 0.6889648
vn -0.4257813 0.5859375 0.6889648
vn -0.4257813 0.5859375 0.6889648
vn -0.6889648 0.223877 -0.6889648
vn -0.6889648 0.223877 -0.6889648
vn -0.6889648 0.223877 -0.6889648
vn -0.6889648 0.223877 -0.6889648
vn 0.6889648 -0.223877 -0.6889648
vn 0.6889648 -0.223877 -0.6889648
vn 0.6889648 -0.223877 -0.6889648
vn 0.6889648 -0.223877 -0.6889648
vn 0.6889648 -0.223877 0.6889648
vn 0.6889648 -0.223877 0.6889648
vn 0.6889648 -0.223877 0.6889648
vn 0.6889648 -0.223877 0.6889648
vn -0.6889648 0.223877 0.6889648
vn -0.6889648 0.223877 0.6889648
vn -0.6889648 0.223877 0.6889648
vn -0.6889648 0.223877 0.6889648
vn -0.6889648 -0.223877 -0.6889648
vn -0.6889648 -0.223877 -0.6889648
vn -0.6889648 -0.223877 -0.6889648
vn -0.6889648 -0.223877 -0.6889648
vn 0.6889648 0.223877 -0.6889648
vn 0.6889648 0.223877 -0.6889648
vn 0.6889648 0.223877 -0.6889648
vn 0.6889648 0.223877 -0.6889648
vn 0.6889648 0.223877 0.6889648
vn 0.6889648 0.223877 0.6889648
vn 0.6889648 0.223877 0.6889648
vn 0.6889648 0.223877 0.6889648
vn -0.6889648 -0.223877 0.6889648
vn -0.6889648 -0.223877 0.6889648
vn -0.6889648 -0.223877 0.6889648
vn -0.6889648 -0.223877 0.6889648
vn -0.4257813 -0.5859375 -0.6889648
vn -0.4257813 -0.5859375 -0.6889648
vn -0.4257813 -0.5859375 -0.6889648
vn -0.4257813 -0.5859375 -0.6889648
vn 0.4257813 0.5859375 -0.6889648
vn 0.4257813 0.5859375 -0.6889648
vn 0.4257813 0.5859375 -0.6889648
vn 0.4257813 0.5859375 -0.6889648
vn 0.4257813 0.5859375 0.6889648
vn 0.4257813 0.5859375 0.6889648
vn 0.4257813 0.5859375 0.6889648
vn 0.4257813 0.5859375 0.6889648
vn -0.4257813 -0.5859375 0.6889648
vn -0.4257813 -0.5859375 0.6889648
vn -0.4257813 -0.5859375 0.6889648
vn -0.4257813 -0.5859375 0.6889648
vn 0 -0.7246094 -0.6889648
vn 0 -0.7246094 -0.6889648
vn 0 -0.7246094 -0.6889648
vn 0 -0.7246094 -0.6889648
vn 0 0.7246094 -0.6889648
vn 0 0.7246094 -0.6889648
vn 0 0.7246094 -0.6889648
vn 0 0.7246094 -0.6889648
vn 0 0.7246094 0.6889648
vn 0 0.7246094 0.6889648
vn 0 0.7246094 0.6889648
vn 0 0.7246094 0.6889648
vn 0 -0.7246094 0.6889648
vn 0 -0.7246094 0.6889648
vn 0 -0.7246094 0.6889648
vn 0 -0.7246094 0.6889648
vn 0.4257813 -0.5859375 -0.6889648
vn 0.4257813 -0.5859375 -0.6889648
vn 0.4257813 -0.5859375 -0.6889648
vn 0.4257813 -0.5859375 -0.6889648
vn -0.4257813 0.5859375 -0.6889648
vn -0.4257813 0.5859375 -0.6889648
vn -0.4257813 0.5859375 -0.6889648
vn -0.4257813 0.5859375 -0.6889648
vn -0.4257813 0.5859375 0.6889648
vn -0.4257813 0.5859375 0.6889648
vn -0.4257813 0.5859375 0.6889648
vn -0.4257813 0.5859375 0.6889648
vn 0.4257813 -0.5859375 0.6889648
vn 0.4257813 -0.5859375 0.6889648
vn 0.4257813 -0.5859375 0.6889648
vn 0.4257813 -0.5859375 0.6889648
vn 0.6889648 -0.223877 -0.6889648
vn 0.6889648 -0.223877 -0.6889648
vn 0.6889648 -0.223877 -0.6889648
vn 0.6889648 -0.223877 -0.6889648
vn -0.6889648 0.223877 -0.6889648
vn -0.6889648 0.223877 -0.6889648
vn -0.6889648 0.223877 -0.6889648
vn -0.6889648 0.223877 -0.6889648
vn -0.6889648 0.223877 0.6889648
vn -0.6889648 0.223877 0.6889648
vn -0.6889648 0.223877 0.6889648
vn -0.6889648 0.223877 0.6889648
vn 0.6889648 -0.223877 0.6889648
vn 0.6889648 -0.223877 0.6889648
vn 0.6889648 -0.223877 0.6889648
vn 0.6889648 -0.223877 0.6889648
vn 0.7944336 0.3566895 -0.4909668
vn 0.7944336 0.3566895 -0.4909668
vn 0.7944336 0.3566895 -0.4909668
vn 0.7944336 0.5771484 0.1875
vn 0.7944336 0.5771484 0.1875
vn 0.7944336 0.5771484 0.1875
vn 0.7944336 0 0.6069336
vn 0.7944336 0 0.6069336
vn 0.7944336 0 0.6069336
vn 0.7944336 -0.5771484 0.1875
vn 0.7944336 -0.5771484 0.1875
vn 0.7944336 -0.5771484 0.1875
vn 0.7944336 -0.3566895 -0.4909668
vn 0.7944336 -0.3566895 -0.4909668
vn 0.7944336 -0.3566895 -0.4909668
vn -0.1875 0 -0.9819336
vn -0.1875 0 -0.9819336
vn -0.1875 0 -0.9819336
vn -0.1875 0.934082 -0.3034668
vn -0.1875 0.934082 -0.3034668
vn -0.1875 0.934082 -0.3034668
vn -0.1875 0.5771484 0.7944336
vn -0.1875 0.5771484 0.7944336
vn -0.1875 0.5771484 0.7944336
vn -0.1875 -0.5771484 0.7944336
vn -0.1875 -0.5771484 0.7944336
vn -0.1875 -0.5771484 0.7944336
vn -0.1875 -0.934082 -0.3034668
vn -0.1875 -0.934082 -0.3034668
vn -0.1875 -0.934082 -0.3034668
vn 0.1875 0.5771484 -0.7944336
vn 0.1875 0.5771484 -0.7944336
vn 0.1875 0.5771484 -0.7944336
vn 0.1875 0.934082 0.3034668
vn 0.1875 0.934082 0.3034668
vn 0.1875 0.934082 0.3034668
vn 0.1875 0 0.9819336
vn 0.1875 0 0.9819336
vn 0.1875 0 0.9819336
vn 0.1875 -0.934082 0.3034668
vn 0.1875 -0.934082 0.3034668
vn 0.1875 -0.934082 0.3034668
vn 0.1875 -0.5771484 -0.7944336
vn 0.1875 -0.5771484 -0.7944336
vn 0.1875 -0.5771484 -0.7944336
vn -0.7944336 0.5771484 -0.1875
vn -0.7944336 0.5771484 -0.1875
vn -0.7944336 0.5771484 -0.1875
vn -0.7944336 0.3566895 0.4909668
vn -0.7944336 0.3566895 0.4909668
vn -0.7944336 0.3566895 0.4909668
vn -0.7944336 -0.3566895 0.4909668
vn -0.7944336 -0.3566895 0.4909668
vn -0.7944336 -0.3566895 0.4909668
vn -0.7944336 -0.5771484 -0.1875
vn -0.7944336 -0.5771484 -0.1875
vn -0.7944336 -0.5771484 -0.1875
vn -0.7944336 0 -0.6069336
vn -0.7944336 0 -0.6069336
vn -0.7944336 0 -0.6069336
vn 0.4309082 0.8823242 0.1879883
vn 0.4309082 0.8823242 0.1879883
vn 0.4309082 0.8823242 0.1879883
vn 0.418457 0.4750977 0.7734375
vn 0.418457 0.4750977 0.7734375
vn 0.418457 0.4750977 0.7734375
vn 0.7666016 -0.1306152 0.628418
vn 0.7666016 -0.1306152 0.628418
vn 0.7666016 -0.1306152 0.628418
vn 0.9936523 -0.09771729 -0.04702759
vn 0.9936523 -0.09771729 -0.04702759
vn 0.9936523 -0.09771729 -0.04702759
vn 0.7866211 0.5283203 -0.3190918
vn 0.7866211 0.5283203 -0.3190918
vn 0.7866211 0.5283203 -0.3190918
vn -0.3015137 0.6694336 -0.6787109
vn -0.3015137 0.6694336 -0.6787109
vn -0.3015137 0.6694336 -0.6787109
vn -0.6694336 0.6162109 0.4143066
vn -0.6694336 0.6162109 0.4143066
vn -0.6694336 0.6162109 0.4143066
vn -0.3337402 -0.3967285 0.8549805
vn -0.3337402 -0.3967285 0.8549805
vn -0.3337402 -0.3967285 0.8549805
vn 0.2415771 -0.9697266 0.03408813
vn 0.2415771 -0.9697266 0.03408813
vn 0.2415771 -0.9697266 0.03408813
vn 0.2614746 -0.3105469 -0.9135742
vn 0.2614746 -0.3105469 -0.9135742
vn 0.2614746 -0.3105469 -0.9135742
vn -0.2415771 0.9697266 -0.03408813
vn -0.2415771 0.9697266 -0.03408813
vn -0.2415771 0.9697266 -0.03408813
vn -0.2614746 0.3105469 0.9135742
vn -0.2614746 0.3105469 0.9135742
vn -0.2614746 0.3105469 0.9135742
vn 0.3015137 -0.6694336 0.6787109
vn 0.3015137 -0.6694336 0.6787109
vn 0.3015137 -0.6694336 0.6787109
vn 0.6694336 -0.6162109 -0.4143066
vn 0.6694336 -0.6162109 -0.4143066
vn 0.6694336 -0.6162109 -0.4143066
vn 0.3337402 0.3967285 -0.8549805
vn 0.3337402 0.3967285 -0.8549805
vn 0.3337402 0.3967285 -0.8549805
vn -0.9936523 0.09771729 0.04702759
vn -0.9936523 0.09771729 0.04702759
vn -0.9936523 0.09771729 0.04702759
vn -0.7866211 -0.5283203 0.3190918
vn -0.7866211 -0.5283203 0.3190918
vn -0.7866211 -0.5283203 0.3190918
vn -0.4309082 -0.8823242 -0.1879883
vn -0.4309082 -0.8823242 -0.1879883
vn -0.4309082 -0.8823242 -0.1879883
vn -0.418457 -0.4750977 -0.7734375
vn -0.418457 -0.4750977 -0.7734375
vn -0.418457 -0.4750977 -0.7734375
vn -0.7666016 0.1306152 -0.628418
vn -0.7666016 0.1306152 -0.628418
vn -0.7666016 0.1306152 -0.628418
vn 0.4755859 0.7602539 0.4418945
vn 0.4755859 0.7602539 0.4418945
vn 0.4755859 0.7602539 0.4418945
vn -0.04446411 0.5078125 0.8598633
vn -0.04446411 0.5078125 0.8598633
vn -0.04446411 0.5078125 0.8598633
vn 0.08441162 -0.1837158 0.9790039
vn 0.08441162 -0.1837158 0.9790039
vn 0.08441162 -0.1837158 0.9790039
vn 0.684082 -0.3586426 0.6342773
vn 0.684082 -0.3586426 0.6342773
vn 0.684082 -0.3586426 0.6342773
vn 0.9257813 0.2247314 0.3024902
vn 0.9257813 0.2247314 0.3024902
vn 0.9257813 0.2247314 0.3024902
vn 0.4509277 0.5600586 -0.6948242
vn 0.4509277 0.5600586 -0.6948242
vn 0.4509277 0.5600586 -0.6948242
vn -0.5195313 0.8432617 -0.137207
vn -0.5195313 0.8432617 -0.137207
vn -0.5195313 0.8432617 -0.137207
vn -0.9106445 -0.1009521 0.3999023
vn -0.9106445 -0.1009521 0.3999023
vn -0.9106445 -0.1009521 0.3999023
vn -0.1820068 -0.9672852 0.1743164
vn -0.1820068 -0.9672852 0.1743164
vn -0.1820068 -0.9672852 0.1743164
vn 0.659668 -0.559082 -0.5019531
vn 0.659668 -0.559082 -0.5019531
vn 0.659668 -0.559082 -0.5019531
vn 0.1820068 0.9672852 -0.1743164
vn 0.1820068 0.9672852 -0.1743164
vn 0.1820068 0.9672852 -0.1743164
vn -0.659668 0.559082 0.5019531
vn -0.659668 0.559082 0.5019531
vn -0.659668 0.559082 0.5019531
vn -0.4509277 -0.5600586 0.6948242
vn -0.4509277 -0.5600586 0.6948242
vn -0.4509277 -0.5600586 0.6948242
vn 0.5195313 -0.8432617 0.137207
vn 0.5195313 -0.8432617 0.137207
vn 0.5195313 -0.8432617 0.137207
vn 0.9106445 0.1009521 -0.3999023
vn 0.9106445 0.1009521 -0.3999023
vn 0.9106445 0.1009521 -0.3999023
vn -0.684082 0.3586426 -0.6342773
vn -0.684082 0.3586426 -0.6342773
vn -0.684082 0.3586426 -0.6342773
vn -0.9257813 -0.2247314 -0.3024902
vn -0.9257813 -0.2247314 -0.3024902
vn -0.9257813 -0.2247314 -0.3024902
vn -0.4755859 -0.7602539 -0.4418945
vn -0.4755859 -0.7602539 -0.4418945
vn -0.4755859 -0.7602539 -0.4418945
vn 0.04446411 -0.5078125 -0.8598633
vn 0.04446411 -0.5078125 -0.8598633
vn 0.04446411 -0.5078125 -0.8598633
vn -0.08441162 0.1837158 -0.9790039
vn -0.08441162 0.1837158 -0.9790039
vn -0.08441162 0.1837158 -0.9790039
vn -0.138916 0.8598633 -0.4909668
vn -0.138916 0.8598633 -0.4909668
vn -0.138916 0.8598633 -0.4909668
vn -0.3518066 0.9169922 0.1875
vn -0.3518066 0.9169922 0.1875
vn -0.3518066 0.9169922 0.1875
vn 0.2055664 0.7670898 0.6069336
vn 0.2055664 0.7670898 0.6069336
vn 0.2055664 0.7670898 0.6069336
vn 0.7631836 0.6176758 0.1875
vn 0.7631836 0.6176758 0.1875
vn 0.7631836 0.6176758 0.1875
vn 0.550293 0.6748047 -0.4909668
vn 0.550293 0.6748047 -0.4909668
vn 0.550293 0.6748047 -0.4909668
vn -0.04852295 -0.1811523 -0.9819336
vn -0.04852295 -0.1811523 -0.9819336
vn -0.04852295 -0.1811523 -0.9819336
vn -0.9506836 0.06057739 -0.3034668
vn -0.9506836 0.06057739 -0.3034668
vn -0.9506836 0.06057739 -0.3034668
vn -0.605957 -0.0317688 0.7944336
vn -0.605957 -0.0317688 0.7944336
vn -0.605957 -0.0317688 0.7944336
vn 0.5087891 -0.3305664 0.7944336
vn 0.5087891 -0.3305664 0.7944336
vn 0.5087891 -0.3305664 0.7944336
vn 0.8535156 -0.4228516 -0.3034668
vn 0.8535156 -0.4228516 -0.3034668
vn 0.8535156 -0.4228516 -0.3034668
vn -0.5087891 0.3305664 -0.7944336
vn -0.5087891 0.3305664 -0.7944336
vn -0.5087891 0.3305664 -0.7944336
vn -0.8535156 0.4228516 0.3034668
vn -0.8535156 0.4228516 0.3034668
vn -0.8535156 0.4228516 0.3034668
vn 0.04852295 0.1811523 0.9819336
vn 0.04852295 0.1811523 0.9819336
vn 0.04852295 0.1811523 0.9819336
vn 0.9506836 -0.06057739 0.3034668
vn 0.9506836 -0.06057739 0.3034668
vn 0.9506836 -0.06057739 0.3034668
vn 0.605957 0.0317688 -0.7944336
vn 0.605957 0.0317688 -0.7944336
vn 0.605957 0.0317688 -0.7944336
vn -0.7631836 -0.6176758 -0.1875
vn -0.7631836 -0.6176758 -0.1875
vn -0.7631836 -0.6176758 -0.1875
vn -0.550293 -0.6748047 0.4909668
vn -0.550293 -0.6748047 0.4909668
vn -0.550293 -0.6748047 0.4909668
vn 0.138916 -0.8598633 0.4909668
vn 0.138916 -0.8598633 0.4909668
vn 0.138916 -0.8598633 0.4909668
vn 0.3518066 -0.9169922 -0.1875
vn 0.3518066 -0.9169922 -0.1875
vn 0.3518066 -0.9169922 -0.1875
vn -0.2055664 -0.7670898 -0.6069336
vn -0.2055664 -0.7670898 -0.6069336
vn -0.2055664 -0.7670898 -0.6069336
vn -0.6005859 0.7910156 -0.1154175
vn -0.6005859 0.7910156 -0.1154175
vn -0.6005859 0.7910156 -0.1154175
vn -0.4013672 0.7197266 0.565918
vn -0.4013672 0.7197266 0.565918
vn -0.4013672 0.7197266 0.565918
vn 0.3110352 0.7436523 0.5913086
vn 0.3110352 0.7436523 0.5913086
vn 0.3110352 0.7436523 0.5913086
vn 0.5522461 0.8295898 -0.07458496
vn 0.5522461 0.8295898 -0.07458496
vn 0.5522461 0.8295898 -0.07458496
vn -0.01081848 0.8588867 -0.5112305
vn -0.01081848 0.8588867 -0.5112305
vn -0.01081848 0.8588867 -0.5112305
vn -0.5444336 -0.1134644 -0.8305664
vn -0.5444336 -0.1134644 -0.8305664
vn -0.5444336 -0.1134644 -0.8305664
vn -0.9350586 -0.2526855 0.2467041
vn -0.9350586 -0.2526855 0.2467041
vn -0.9350586 -0.2526855 0.2467041
vn -0.02363586 -0.3000488 0.9536133
vn -0.02363586 -0.3000488 0.9536133
vn -0.02363586 -0.3000488 0.9536133
vn 0.9301758 -0.1899414 0.3127441
vn 0.9301758 -0.1899414 0.3127441
vn 0.9301758 -0.1899414 0.3127441
vn 0.6083984 -0.074646 -0.7895508
vn 0.6083984 -0.074646 -0.7895508
vn 0.6083984 -0.074646 -0.7895508
vn -0.9301758 0.1899414 -0.3127441
vn -0.9301758 0.1899414 -0.3127441
vn -0.9301758 0.1899414 -0.3127441
vn -0.6083984 0.074646 0.7895508
vn -0.6083984 0.074646 0.7895508
vn -0.6083984 0.074646 0.7895508
vn 0.5444336 0.1134644 0.8305664
vn 0.5444336 0.1134644 0.8305664
vn 0.5444336 0.1134644 0.8305664
vn 0.9350586 0.2526855 -0.2467041
vn 0.9350586 0.2526855 -0.2467041
vn 0.9350586 0.2526855 -0.2467041
vn 0.02363586 0.3000488 -0.9536133
vn 0.02363586 0.3000488 -0.9536133
vn 0.02363586 0.3000488 -0.9536133
vn -0.5522461 -0.8295898 0.07458496
vn -0.5522461 -0.8295898 0.07458496
vn -0.5522461 -0.8295898 0.07458496
vn 0.01081848 -0.8588867 0.5112305
vn 0.01081848 -0.8588867 0.5112305
vn 0.01081848 -0.8588867 0.5112305
vn 0.6005859 -0.7910156 0.1154175
vn 0.6005859 -0.7910156 0.1154175
vn 0.6005859 -0.7910156 0.1154175
vn 0.4013672 -0.7197266 -0.565918
vn 0.4013672 -0.7197266 -0.565918
vn 0.4013672 -0.7197266 -0.565918
vn -0.3110352 -0.7436523 -0.5913086
vn -0.3110352 -0.7436523 -0.5913086
vn -0.3110352 -0.7436523 -0.5913086
vn 0.04660034 0.9702148 0.2369385
vn 0.04660034 0.9702148 0.2369385
vn 0.04660034 0.9702148 0.2369385
vn 0.1904297 0.5620117 0.8041992
vn 0.1904297 0.5620117 0.8041992
vn 0.1904297 0.5620117 0.8041992
vn 0.75 0.1502686 0.6435547
vn 0.75 0.1502686 0.6435547
vn 0.75 0.1502686 0.6435547
vn 0.9521484 0.3034668 -0.02340698
vn 0.9521484 0.3034668 -0.02340698
vn 0.9521484 0.3034668 -0.02340698
vn 0.5170898 0.8100586 -0.2746582
vn 0.5170898 0.8100586 -0.2746582
vn 0.5170898 0.8100586 -0.2746582
vn -0.534668 0.5297852 -0.6577148
vn -0.534668 0.5297852 -0.6577148
vn -0.534668 0.5297852 -0.6577148
vn -0.8618164 0.2819824 0.4211426
vn -0.8618164 0.2819824 0.4211426
vn -0.8618164 0.2819824 0.4211426
vn -0.1580811 -0.5380859 0.8276367
vn -0.1580811 -0.5380859 0.8276367
vn -0.1580811 -0.5380859 0.8276367
vn 0.6035156 -0.796875 -8.21352E-05
vn 0.6035156 -0.796875 -8.21352E-05
vn 0.6035156 -0.796875 -8.21352E-05
vn 0.3708496 -0.1369629 -0.918457
vn 0.3708496 -0.1369629 -0.918457
vn 0.3708496 -0.1369629 -0.918457
vn -0.6035156 0.796875 8.183718E-05
vn -0.6035156 0.796875 8.183718E-05
vn -0.6035156 0.796875 8.183718E-05
vn -0.3708496 0.1369629 0.918457
vn -0.3708496 0.1369629 0.918457
vn -0.3708496 0.1369629 0.918457
vn 0.534668 -0.5297852 0.6577148
vn 0.534668 -0.5297852 0.6577148
vn 0.534668 -0.5297852 0.6577148
vn 0.8618164 -0.2819824 -0.4211426
vn 0.8618164 -0.2819824 -0.4211426
vn 0.8618164 -0.2819824 -0.4211426
vn 0.1580811 0.5380859 -0.8276367
vn 0.1580811 0.5380859 -0.8276367
vn 0.1580811 0.5380859 -0.8276367
vn -0.9521484 -0.3034668 0.02340698
vn -0.9521484 -0.3034668 0.02340698
vn -0.9521484 -0.3034668 0.02340698
vn -0.5170898 -0.8100586 0.2746582
vn -0.5170898 -0.8100586 0.2746582
vn -0.5170898 -0.8100586 0.2746582
vn -0.04660034 -0.9702148 -0.2369385
vn -0.04660034 -0.9702148 -0.2369385
vn -0.04660034 -0.9702148 -0.2369385
vn -0.1904297 -0.5620117 -0.8041992
vn -0.1904297 -0.5620117 -0.8041992
vn -0.1904297 -0.5620117 -0.8041992
vn -0.75 -0.1502686 -0.6435547
vn -0.75 -0.1502686 -0.6435547
vn -0.75 -0.1502686 -0.6435547
vn 0.2675781 0.0458374 -0.9619141
vn 0.2675781 0.0458374 -0.9619141
vn 0.2675781 0.0458374 -0.9619141
vn 0.3237305 0.6855469 -0.6513672
vn 0.3237305 0.6855469 -0.6513672
vn 0.3237305 0.6855469 -0.6513672
vn 0.7734375 0.625 -0.1011963
vn 0.7734375 0.625 -0.1011963
vn 0.7734375 0.625 -0.1011963
vn 0.9956055 -0.05230713 -0.07165527
vn 0.9956055 -0.05230713 -0.07165527
vn 0.9956055 -0.05230713 -0.07165527
vn 0.6831055 -0.4101563 -0.6035156
vn 0.6831055 -0.4101563 -0.6035156
vn 0.6831055 -0.4101563 -0.6035156
vn -0.4104004 -0.7641602 -0.4968262
vn -0.4104004 -0.7641602 -0.4968262
vn -0.4104004 -0.7641602 -0.4968262
vn -0.7700195 0.3317871 -0.5444336
vn -0.7700195 0.3317871 -0.5444336
vn -0.7700195 0.3317871 -0.5444336
vn -0.263916 0.9111328 0.3161621
vn -0.263916 0.9111328 0.3161621
vn -0.263916 0.9111328 0.3161621
vn 0.4082031 0.1728516 0.8959961
vn 0.4082031 0.1728516 0.8959961
vn 0.4082031 0.1728516 0.8959961
vn 0.317627 -0.8623047 0.3935547
vn 0.317627 -0.8623047 0.3935547
vn 0.317627 -0.8623047 0.3935547
vn -0.4082031 -0.1728516 -0.8959961
vn -0.4082031 -0.1728516 -0.8959961
vn -0.4082031 -0.1728516 -0.8959961
vn -0.317627 0.8623047 -0.3935547
vn -0.317627 0.8623047 -0.3935547
vn -0.317627 0.8623047 -0.3935547
vn 0.4104004 0.7641602 0.4968262
vn 0.4104004 0.7641602 0.4968262
vn 0.4104004 0.7641602 0.4968262
vn 0.7700195 -0.3317871 0.5444336
vn 0.7700195 -0.3317871 0.5444336
vn 0.7700195 -0.3317871 0.5444336
vn 0.263916 -0.9111328 -0.3161621
vn 0.263916 -0.9111328 -0.3161621
vn 0.263916 -0.9111328 -0.3161621
vn -0.9956055 0.05230713 0.07165527
vn -0.9956055 0.05230713 0.07165527
vn -0.9956055 0.05230713 0.07165527
vn -0.6831055 0.4101563 0.6035156
vn -0.6831055 0.4101563 0.6035156
vn -0.6831055 0.4101563 0.6035156
vn -0.2675781 -0.0458374 0.9619141
vn -0.2675781 -0.0458374 0.9619141
vn -0.2675781 -0.0458374 0.9619141
vn -0.3237305 -0.6855469 0.6513672
vn -0.3237305 -0.6855469 0.6513672
vn -0.3237305 -0.6855469 0.6513672
vn -0.7734375 -0.625 0.1011963
vn -0.7734375 -0.625 0.1011963
vn -0.7734375 -0.625 0.1011963
vn 0.6889648 0.6889648 -0.223877
vn 0.6889648 0.6889648 -0.223877
vn 0.6889648 0.6889648 -0.223877
vn 0.6889648 0.6889648 -0.223877
vn 0.6889648 -0.6889648 0.223877
vn 0.6889648 -0.6889648 0.223877
vn 0.6889648 -0.6889648 0.223877
vn 0.6889648 -0.6889648 0.223877
vn -0.6889648 -0.6889648 0.223877
vn -0.6889648 -0.6889648 0.223877
vn -0.6889648 -0.6889648 0.223877
vn -0.6889648 -0.6889648 0.223877
vn -0.6889648 0.6889648 -0.223877
vn -0.6889648 0.6889648 -0.223877
vn -0.6889648 0.6889648 -0.223877
vn -0.6889648 0.6889648 -0.223877
vn 0.6889648 0.4257813 -0.5859375
vn 0.6889648 0.4257813 -0.5859375
vn 0.6889648 0.4257813 -0.5859375
vn 0.6889648 0.4257813 -0.5859375
vn 0.6889648 -0.4257813 0.5859375
vn 0.6889648 -0.4257813 0.5859375
vn 0.6889648 -0.4257813 0.5859375
vn 0.6889648 -0.4257813 0.5859375
vn -0.6889648 -0.4257813 0.5859375
vn -0.6889648 -0.4257813 0.5859375
vn -0.6889648 -0.4257813 0.5859375
vn -0.6889648 -0.4257813 0.5859375
vn -0.6889648 0.4257813 -0.5859375
vn -0.6889648 0.4257813 -0.5859375
vn -0.6889648 0.4257813 -0.5859375
vn -0.6889648 0.4257813 -0.5859375
vn 0.6889648 0 -0.7246094
vn 0.6889648 0 -0.7246094
vn 0.6889648 0 -0.7246094
vn 0.6889648 0 -0.7246094
vn 0.6889648 0 0.7246094
vn 0.6889648 0 0.7246094
vn 0.6889648 0 0.7246094
vn 0.6889648 0 0.7246094
vn -0.6889648 0 0.7246094
vn -0.6889648 0 0.7246094
vn -0.6889648 0 0.7246094
vn -0.6889648 0 0.7246094
vn -0.6889648 0 -0.7246094
vn -0.6889648 0 -0.7246094
vn -0.6889648 0 -0.7246094
vn -0.6889648 0 -0.7246094
vn 0.6889648 -0.4257813 -0.5859375
vn 0.6889648 -0.4257813 -0.5859375
vn 0.6889648 -0.4257813 -0.5859375
vn 0.6889648 -0.4257813 -0.5859375
vn 0.6889648 0.4257813 0.5859375
vn 0.6889648 0.4257813 0.5859375
vn 0.6889648 0.4257813 0.5859375
vn 0.6889648 0.4257813 0.5859375
vn -0.6889648 0.4257813 0.5859375
vn -0.6889648 0.4257813 0.5859375
vn -0.6889648 0.4257813 0.5859375
vn -0.6889648 0.4257813 0.5859375
vn -0.6889648 -0.4257813 -0.5859375
vn -0.6889648 -0.4257813 -0.5859375
vn -0.6889648 -0.4257813 -0.5859375
vn -0.6889648 -0.4257813 -0.5859375
vn 0.6889648 -0.6889648 -0.223877
vn 0.6889648 -0.6889648 -0.223877
vn 0.6889648 -0.6889648 -0.223877
vn 0.6889648 -0.6889648 -0.223877
vn 0.6889648 0.6889648 0.223877
vn 0.6889648 0.6889648 0.223877
vn 0.6889648 0.6889648 0.223877
vn 0.6889648 0.6889648 0.223877
vn -0.6889648 0.6889648 0.223877
vn -0.6889648 0.6889648 0.223877
vn -0.6889648 0.6889648 0.223877
vn -0.6889648 0.6889648 0.223877
vn -0.6889648 -0.6889648 -0.223877
vn -0.6889648 -0.6889648 -0.223877
vn -0.6889648 -0.6889648 -0.223877
vn -0.6889648 -0.6889648 -0.223877
vn 0.6889648 -0.6889648 0.223877
vn 0.6889648 -0.6889648 0.223877
vn 0.6889648 -0.6889648 0.223877
vn 0.6889648 -0.6889648 0.223877
vn 0.6889648 0.6889648 -0.223877
vn 0.6889648 0.6889648 -0.223877
vn 0.6889648 0.6889648 -0.223877
vn 0.6889648 0.6889648 -0.223877
vn -0.6889648 0.6889648 -0.223877
vn -0.6889648 0.6889648 -0.223877
vn -0.6889648 0.6889648 -0.223877
vn -0.6889648 0.6889648 -0.223877
vn -0.6889648 -0.6889648 0.223877
vn -0.6889648 -0.6889648 0.223877
vn -0.6889648 -0.6889648 0.223877
vn -0.6889648 -0.6889648 0.223877
vn 0.6889648 -0.4257813 0.5859375
vn 0.6889648 -0.4257813 0.5859375
vn 0.6889648 -0.4257813 0.5859375
vn 0.6889648 -0.4257813 0.5859375
vn 0.6889648 0.4257813 -0.5859375
vn 0.6889648 0.4257813 -0.5859375
vn 0.6889648 0.4257813 -0.5859375
vn 0.6889648 0.4257813 -0.5859375
vn -0.6889648 0.4257813 -0.5859375
vn -0.6889648 0.4257813 -0.5859375
vn -0.6889648 0.4257813 -0.5859375
vn -0.6889648 0.4257813 -0.5859375
vn -0.6889648 -0.4257813 0.5859375
vn -0.6889648 -0.4257813 0.5859375
vn -0.6889648 -0.4257813 0.5859375
vn -0.6889648 -0.4257813 0.5859375
vn 0.6889648 0 0.7246094
vn 0.6889648 0 0.7246094
vn 0.6889648 0 0.7246094
vn 0.6889648 0 0.7246094
vn 0.6889648 0 -0.7246094
vn 0.6889648 0 -0.7246094
vn 0.6889648 0 -0.7246094
vn 0.6889648 0 -0.7246094
vn -0.6889648 0 -0.7246094
vn -0.6889648 0 -0.7246094
vn -0.6889648 0 -0.7246094
vn -0.6889648 0 -0.7246094
vn -0.6889648 0 0.7246094
vn -0.6889648 0 0.7246094
vn -0.6889648 0 0.7246094
vn -0.6889648 0 0.7246094
vn 0.6889648 0.4257813 0.5859375
vn 0.6889648 0.4257813 0.5859375
vn 0.6889648 0.4257813 0.5859375
vn 0.6889648 0.4257813 0.5859375
vn 0.6889648 -0.4257813 -0.5859375
vn 0.6889648 -0.4257813 -0.5859375
vn 0.6889648 -0.4257813 -0.5859375
vn 0.6889648 -0.4257813 -0.5859375
vn -0.6889648 -0.4257813 -0.5859375
vn -0.6889648 -0.4257813 -0.5859375
vn -0.6889648 -0.4257813 -0.5859375
vn -0.6889648 -0.4257813 -0.5859375
vn -0.6889648 0.4257813 0.5859375
vn -0.6889648 0.4257813 0.5859375
vn -0.6889648 0.4257813 0.5859375
vn -0.6889648 0.4257813 0.5859375
vn 0.6889648 0.6889648 0.223877
vn 0.6889648 0.6889648 0.223877
vn 0.6889648 0.6889648 0.223877
vn 0.6889648 0.6889648 0.223877
vn 0.6889648 -0.6889648 -0.223877
vn 0.6889648 -0.6889648 -0.223877
vn 0.6889648 -0.6889648 -0.223877
vn 0.6889648 -0.6889648 -0.223877
vn -0.6889648 -0.6889648 -0.223877
vn -0.6889648 -0.6889648 -0.223877
vn -0.6889648 -0.6889648 -0.223877
vn -0.6889648 -0.6889648 -0.223877
vn -0.6889648 0.6889648 0.223877
vn -0.6889648 0.6889648 0.223877
vn -0.6889648 0.6889648 0.223877
vn -0.6889648 0.6889648 0.223877
g qiu_0
f 3/3/3 2/2/2 1/1/1
f 4/4/4 3/3/3 1/1/1
f 7/7/7 6/6/6 5/5/5
f 8/8/8 7/7/7 5/5/5
f 11/11/11 10/10/10 9/9/9
f 12/12/12 11/11/11 9/9/9
f 15/15/15 14/14/14 13/13/13
f 16/16/16 15/15/15 13/13/13
f 19/19/19 18/18/18 17/17/17
f 20/20/20 19/19/19 17/17/17
f 23/23/23 22/22/22 21/21/21
f 24/24/24 23/23/23 21/21/21
f 27/27/27 26/26/26 25/25/25
f 28/28/28 27/27/27 25/25/25
f 31/31/31 30/30/30 29/29/29
f 32/32/32 31/31/31 29/29/29
f 35/35/35 34/34/34 33/33/33
f 36/36/36 35/35/35 33/33/33
f 39/39/39 38/38/38 37/37/37
f 40/40/40 39/39/39 37/37/37
f 43/43/43 42/42/42 41/41/41
f 44/44/44 43/43/43 41/41/41
f 47/47/47 46/46/46 45/45/45
f 48/48/48 47/47/47 45/45/45
f 51/51/51 50/50/50 49/49/49
f 52/52/52 51/51/51 49/49/49
f 55/55/55 54/54/54 53/53/53
f 56/56/56 55/55/55 53/53/53
f 59/59/59 58/58/58 57/57/57
f 60/60/60 59/59/59 57/57/57
f 63/63/63 62/62/62 61/61/61
f 64/64/64 63/63/63 61/61/61
f 67/67/67 66/66/66 65/65/65
f 68/68/68 67/67/67 65/65/65
f 71/71/71 70/70/70 69/69/69
f 72/72/72 71/71/71 69/69/69
f 75/75/75 74/74/74 73/73/73
f 76/76/76 75/75/75 73/73/73
f 79/79/79 78/78/78 77/77/77
f 80/80/80 79/79/79 77/77/77
f 83/83/83 82/82/82 81/81/81
f 84/84/84 83/83/83 81/81/81
f 87/87/87 86/86/86 85/85/85
f 88/88/88 87/87/87 85/85/85
f 91/91/91 90/90/90 89/89/89
f 92/92/92 91/91/91 89/89/89
f 95/95/95 94/94/94 93/93/93
f 96/96/96 95/95/95 93/93/93
f 99/99/99 98/98/98 97/97/97
f 100/100/100 99/99/99 97/97/97
f 103/103/103 102/102/102 101/101/101
f 104/104/104 103/103/103 101/101/101
f 107/107/107 106/106/106 105/105/105
f 108/108/108 107/107/107 105/105/105
f 111/111/111 110/110/110 109/109/109
f 112/112/112 111/111/111 109/109/109
f 115/115/115 114/114/114 113/113/113
f 116/116/116 115/115/115 113/113/113
f 119/119/119 118/118/118 117/117/117
f 120/120/120 119/119/119 117/117/117
f 123/123/123 122/122/122 121/121/121
f 124/124/124 123/123/123 121/121/121
f 127/127/127 126/126/126 125/125/125
f 128/128/128 127/127/127 125/125/125
f 131/131/131 130/130/130 129/129/129
f 132/132/132 131/131/131 129/129/129
f 135/135/135 134/134/134 133/133/133
f 136/136/136 135/135/135 133/133/133
f 139/139/139 138/138/138 137/137/137
f 140/140/140 139/139/139 137/137/137
f 143/143/143 142/142/142 141/141/141
f 144/144/144 143/143/143 141/141/141
f 147/147/147 146/146/146 145/145/145
f 148/148/148 147/147/147 145/145/145
f 151/151/151 150/150/150 149/149/149
f 152/152/152 151/151/151 149/149/149
f 155/155/155 154/154/154 153/153/153
f 156/156/156 155/155/155 153/153/153
f 159/159/159 158/158/158 157/157/157
f 160/160/160 159/159/159 157/157/157
f 163/163/163 162/162/162 161/161/161
f 164/164/164 163/163/163 161/161/161
f 167/167/167 166/166/166 165/165/165
f 168/168/168 167/167/167 165/165/165
f 171/171/171 170/170/170 169/169/169
f 172/172/172 171/171/171 169/169/169
f 175/175/175 174/174/174 173/173/173
f 176/176/176 175/175/175 173/173/173
f 179/179/179 178/178/178 177/177/177
f 180/180/180 179/179/179 177/177/177
f 183/183/183 182/182/182 181/181/181
f 184/184/184 183/183/183 181/181/181
f 187/187/187 186/186/186 185/185/185
f 188/188/188 187/187/187 185/185/185
f 191/191/191 190/190/190 189/189/189
f 192/192/192 191/191/191 189/189/189
f 195/195/195 194/194/194 193/193/193
f 196/196/196 195/195/195 193/193/193
f 199/199/199 198/198/198 197/197/197
f 200/200/200 199/199/199 197/197/197
f 203/203/203 202/202/202 201/201/201
f 204/204/204 203/203/203 201/201/201
f 207/207/207 206/206/206 205/205/205
f 208/208/208 207/207/207 205/205/205
f 211/211/211 210/210/210 209/209/209
f 212/212/212 211/211/211 209/209/209
f 215/215/215 214/214/214 213/213/213
f 216/216/216 215/215/215 213/213/213
f 219/219/219 218/218/218 217/217/217
f 220/220/220 219/219/219 217/217/217
f 223/223/223 222/222/222 221/221/221
f 224/224/224 223/223/223 221/221/221
f 227/227/227 226/226/226 225/225/225
f 228/228/228 227/227/227 225/225/225
f 231/231/231 230/230/230 229/229/229
f 232/232/232 231/231/231 229/229/229
f 235/235/235 234/234/234 233/233/233
f 236/236/236 235/235/235 233/233/233
f 239/239/239 238/238/238 237/237/237
f 240/240/240 239/239/239 237/237/237
f 243/243/243 242/242/242 241/241/241
f 244/244/244 243/243/243 241/241/241
f 247/247/247 246/246/246 245/245/245
f 248/248/248 247/247/247 245/245/245
f 251/251/251 250/250/250 249/249/249
f 252/252/252 251/251/251 249/249/249
f 255/255/255 254/254/254 253/253/253
f 256/256/256 255/255/255 253/253/253
f 259/259/259 258/258/258 257/257/257
f 260/260/260 259/259/259 257/257/257
f 263/263/263 262/262/262 261/261/261
f 264/264/264 263/263/263 261/261/261
f 267/267/267 266/266/266 265/265/265
f 268/268/268 267/267/267 265/265/265
f 271/271/271 270/270/270 269/269/269
f 272/272/272 271/271/271 269/269/269
f 275/275/275 274/274/274 273/273/273
f 276/276/276 275/275/275 273/273/273
f 279/279/279 278/278/278 277/277/277
f 280/280/280 279/279/279 277/277/277
f 283/283/283 282/282/282 281/281/281
f 284/284/284 283/283/283 281/281/281
f 287/287/287 286/286/286 285/285/285
f 288/288/288 287/287/287 285/285/285
f 291/291/291 290/290/290 289/289/289
f 292/292/292 291/291/291 289/289/289
f 295/295/295 294/294/294 293/293/293
f 296/296/296 295/295/295 293/293/293
f 299/299/299 298/298/298 297/297/297
f 300/300/300 299/299/299 297/297/297
f 303/303/303 302/302/302 301/301/301
f 304/304/304 303/303/303 301/301/301
f 307/307/307 306/306/306 305/305/305
f 308/308/308 307/307/307 305/305/305
f 311/311/311 310/310/310 309/309/309
f 312/312/312 311/311/311 309/309/309
f 315/315/315 314/314/314 313/313/313
f 316/316/316 315/315/315 313/313/313
f 319/319/319 318/318/318 317/317/317
f 320/320/320 319/319/319 317/317/317
f 323/323/323 322/322/322 321/321/321
f 326/326/326 325/325/325 324/324/324
f 329/329/329 328/328/328 327/327/327
f 332/332/332 331/331/331 330/330/330
f 335/335/335 334/334/334 333/333/333
f 338/338/338 337/337/337 336/336/336
f 341/341/341 340/340/340 339/339/339
f 344/344/344 343/343/343 342/342/342
f 347/347/347 346/346/346 345/345/345
f 350/350/350 349/349/349 348/348/348
f 353/353/353 352/352/352 351/351/351
f 356/356/356 355/355/355 354/354/354
f 359/359/359 358/358/358 357/357/357
f 362/362/362 361/361/361 360/360/360
f 365/365/365 364/364/364 363/363/363
f 368/368/368 367/367/367 366/366/366
f 371/371/371 370/370/370 369/369/369
f 374/374/374 373/373/373 372/372/372
f 377/377/377 376/376/376 375/375/375
f 380/380/380 379/379/379 378/378/378
f 383/383/383 382/382/382 381/381/381
f 386/386/386 385/385/385 384/384/384
f 389/389/389 388/388/388 387/387/387
f 392/392/392 391/391/391 390/390/390
f 395/395/395 394/394/394 393/393/393
f 398/398/398 397/397/397 396/396/396
f 401/401/401 400/400/400 399/399/399
f 404/404/404 403/403/403 402/402/402
f 407/407/407 406/406/406 405/405/405
f 410/410/410 409/409/409 408/408/408
f 413/413/413 412/412/412 411/411/411
f 416/416/416 415/415/415 414/414/414
f 419/419/419 418/418/418 417/417/417
f 422/422/422 421/421/421 420/420/420
f 425/425/425 424/424/424 423/423/423
f 428/428/428 427/427/427 426/426/426
f 431/431/431 430/430/430 429/429/429
f 434/434/434 433/433/433 432/432/432
f 437/437/437 436/436/436 435/435/435
f 440/440/440 439/439/439 438/438/438
f 443/443/443 442/442/442 441/441/441
f 446/446/446 445/445/445 444/444/444
f 449/449/449 448/448/448 447/447/447
f 452/452/452 451/451/451 450/450/450
f 455/455/455 454/454/454 453/453/453
f 458/458/458 457/457/457 456/456/456
f 461/461/461 460/460/460 459/459/459
f 464/464/464 463/463/463 462/462/462
f 467/467/467 466/466/466 465/465/465
f 470/470/470 469/469/469 468/468/468
f 473/473/473 472/472/472 471/471/471
f 476/476/476 475/475/475 474/474/474
f 479/479/479 478/478/478 477/477/477
f 482/482/482 481/481/481 480/480/480
f 485/485/485 484/484/484 483/483/483
f 488/488/488 487/487/487 486/486/486
f 491/491/491 490/490/490 489/489/489
f 494/494/494 493/493/493 492/492/492
f 497/497/497 496/496/496 495/495/495
f 500/500/500 499/499/499 498/498/498
f 503/503/503 502/502/502 501/501/501
f 506/506/506 505/505/505 504/504/504
f 509/509/509 508/508/508 507/507/507
f 512/512/512 511/511/511 510/510/510
f 515/515/515 514/514/514 513/513/513
f 518/518/518 517/517/517 516/516/516
f 521/521/521 520/520/520 519/519/519
f 524/524/524 523/523/523 522/522/522
f 527/527/527 526/526/526 525/525/525
f 530/530/530 529/529/529 528/528/528
f 533/533/533 532/532/532 531/531/531
f 536/536/536 535/535/535 534/534/534
f 539/539/539 538/538/538 537/537/537
f 542/542/542 541/541/541 540/540/540
f 545/545/545 544/544/544 543/543/543
f 548/548/548 547/547/547 546/546/546
f 551/551/551 550/550/550 549/549/549
f 554/554/554 553/553/553 552/552/552
f 557/557/557 556/556/556 555/555/555
f 560/560/560 559/559/559 558/558/558
f 563/563/563 562/562/562 561/561/561
f 566/566/566 565/565/565 564/564/564
f 569/569/569 568/568/568 567/567/567
f 572/572/572 571/571/571 570/570/570
f 575/575/575 574/574/574 573/573/573
f 578/578/578 577/577/577 576/576/576
f 581/581/581 580/580/580 579/579/579
f 584/584/584 583/583/583 582/582/582
f 587/587/587 586/586/586 585/585/585
f 590/590/590 589/589/589 588/588/588
f 593/593/593 592/592/592 591/591/591
f 596/596/596 595/595/595 594/594/594
f 599/599/599 598/598/598 597/597/597
f 602/602/602 601/601/601 600/600/600
f 605/605/605 604/604/604 603/603/603
f 608/608/608 607/607/607 606/606/606
f 611/611/611 610/610/610 609/609/609
f 614/614/614 613/613/613 612/612/612
f 617/617/617 616/616/616 615/615/615
f 620/620/620 619/619/619 618/618/618
f 623/623/623 622/622/622 621/621/621
f 626/626/626 625/625/625 624/624/624
f 629/629/629 628/628/628 627/627/627
f 632/632/632 631/631/631 630/630/630
f 635/635/635 634/634/634 633/633/633
f 638/638/638 637/637/637 636/636/636
f 641/641/641 640/640/640 639/639/639
f 644/644/644 643/643/643 642/642/642
f 647/647/647 646/646/646 645/645/645
f 650/650/650 649/649/649 648/648/648
f 653/653/653 652/652/652 651/651/651
f 656/656/656 655/655/655 654/654/654
f 659/659/659 658/658/658 657/657/657
f 662/662/662 661/661/661 660/660/660
f 665/665/665 664/664/664 663/663/663
f 668/668/668 667/667/667 666/666/666
f 671/671/671 670/670/670 669/669/669
f 674/674/674 673/673/673 672/672/672
f 677/677/677 676/676/676 675/675/675
f 680/680/680 679/679/679 678/678/678
f 683/683/683 682/682/682 681/681/681
f 686/686/686 685/685/685 684/684/684
f 689/689/689 688/688/688 687/687/687
f 692/692/692 691/691/691 690/690/690
f 695/695/695 694/694/694 693/693/693
f 698/698/698 697/697/697 696/696/696
f 701/701/701 700/700/700 699/699/699
f 704/704/704 703/703/703 702/702/702
f 707/707/707 706/706/706 705/705/705
f 710/710/710 709/709/709 708/708/708
f 713/713/713 712/712/712 711/711/711
f 716/716/716 715/715/715 714/714/714
f 719/719/719 718/718/718 717/717/717
f 722/722/722 721/721/721 720/720/720
f 725/725/725 724/724/724 723/723/723
f 728/728/728 727/727/727 726/726/726
f 731/731/731 730/730/730 729/729/729
f 734/734/734 733/733/733 732/732/732
f 737/737/737 736/736/736 735/735/735
f 740/740/740 739/739/739 738/738/738
f 743/743/743 742/742/742 741/741/741
f 744/744/744 743/743/743 741/741/741
f 747/747/747 746/746/746 745/745/745
f 748/748/748 747/747/747 745/745/745
f 751/751/751 750/750/750 749/749/749
f 752/752/752 751/751/751 749/749/749
f 755/755/755 754/754/754 753/753/753
f 756/756/756 755/755/755 753/753/753
f 759/759/759 758/758/758 757/757/757
f 760/760/760 759/759/759 757/757/757
f 763/763/763 762/762/762 761/761/761
f 764/764/764 763/763/763 761/761/761
f 767/767/767 766/766/766 765/765/765
f 768/768/768 767/767/767 765/765/765
f 771/771/771 770/770/770 769/769/769
f 772/772/772 771/771/771 769/769/769
f 775/775/775 774/774/774 773/773/773
f 776/776/776 775/775/775 773/773/773
f 779/779/779 778/778/778 777/777/777
f 780/780/780 779/779/779 777/777/777
f 783/783/783 782/782/782 781/781/781
f 784/784/784 783/783/783 781/781/781
f 787/787/787 786/786/786 785/785/785
f 788/788/788 787/787/787 785/785/785
f 791/791/791 790/790/790 789/789/789
f 792/792/792 791/791/791 789/789/789
f 795/795/795 794/794/794 793/793/793
f 796/796/796 795/795/795 793/793/793
f 799/799/799 798/798/798 797/797/797
f 800/800/800 799/799/799 797/797/797
f 803/803/803 802/802/802 801/801/801
f 804/804/804 803/803/803 801/801/801
f 807/807/807 806/806/806 805/805/805
f 808/808/808 807/807/807 805/805/805
f 811/811/811 810/810/810 809/809/809
f 812/812/812 811/811/811 809/809/809
f 815/815/815 814/814/814 813/813/813
f 816/816/816 815/815/815 813/813/813
f 819/819/819 818/818/818 817/817/817
f 820/820/820 819/819/819 817/817/817
f 823/823/823 822/822/822 821/821/821
f 824/824/824 823/823/823 821/821/821
f 827/827/827 826/826/826 825/825/825
f 828/828/828 827/827/827 825/825/825
f 831/831/831 830/830/830 829/829/829
f 832/832/832 831/831/831 829/829/829
f 835/835/835 834/834/834 833/833/833
f 836/836/836 835/835/835 833/833/833
f 839/839/839 838/838/838 837/837/837
f 840/840/840 839/839/839 837/837/837
f 843/843/843 842/842/842 841/841/841
f 844/844/844 843/843/843 841/841/841
f 847/847/847 846/846/846 845/845/845
f 848/848/848 847/847/847 845/845/845
f 851/851/851 850/850/850 849/849/849
f 852/852/852 851/851/851 849/849/849
f 855/855/855 854/854/854 853/853/853
f 856/856/856 855/855/855 853/853/853
f 859/859/859 858/858/858 857/857/857
f 860/860/860 859/859/859 857/857/857
f 863/863/863 862/862/862 861/861/861
f 864/864/864 863/863/863 861/861/861
f 867/867/867 866/866/866 865/865/865
f 868/868/868 867/867/867 865/865/865
f 871/871/871 870/870/870 869/869/869
f 872/872/872 871/871/871 869/869/869
f 875/875/875 874/874/874 873/873/873
f 876/876/876 875/875/875 873/873/873
f 879/879/879 878/878/878 877/877/877
f 880/880/880 879/879/879 877/877/877
f 883/883/883 882/882/882 881/881/881
f 884/884/884 883/883/883 881/881/881
f 887/887/887 886/886/886 885/885/885
f 888/888/888 887/887/887 885/885/885
f 891/891/891 890/890/890 889/889/889
f 892/892/892 891/891/891 889/889/889
f 895/895/895 894/894/894 893/893/893
f 896/896/896 895/895/895 893/893/893
f 899/899/899 898/898/898 897/897/897
f 900/900/900 899/899/899 897/897/897
