g Rock_Wall_02
v -1.058958 -0.9178929 1.439961
v -0.5603416 -0.8112891 2.607467
v -0.3108044 -0.9852314 2.125823
v 0.02423668 0.7041008 -1.692772E-05
v -0.007597685 0.7801549 1.701058
v -0.6171298 1.311064 0.5341952
v -0.5050213 1.23868 1.667572
v -0.6884131 1.362348 -1.692772E-05
v -0.007597685 0.7801549 1.701058
v -0.6440101 1.13703 2.114722
v -0.5050213 1.23868 1.667572
v -0.01484537 0.4459395 2.378021
v 0.0453372 -0.7070704 -1.692772E-05
v -0.3108044 -0.9852314 2.125823
v -0.04172564 -0.7577119 2.396369
v -0.007597685 0.7801549 1.701058
v -0.04172564 -0.7577119 2.396369
v -0.01484537 0.4459395 2.378021
v 0.0453372 -0.7070704 -1.692772E-05
v 0.02423668 0.7041008 -1.692772E-05
v -2.286279 0.5380483 -1.692772E-05
v -2.930581 0.2066772 0.5219936
v -3.079937 0.2629151 -1.692772E-05
v -2.204629 0.3136482 1.199965
v -2.398204 0.2481446 1.199965
v -1.492621 0.8130901 -1.692772E-05
v -1.410971 0.5886896 1.199965
v -1.116021 -0.291939 2.055915
v -2.150043 -0.4095521 1.679316
v -1.83124 -0.2626736 2.055915
v 0.3516629 -0.7793629 1.1918
v 1.570819 -0.399277 1.1918
v 1.750174 -0.7604642 1.1918
v -0.1508982 -0.4224875 1.1918
v 2.378513 0.7952003 -1.692772E-05
v 2.053931 0.8243744 2.327746
v 1.51871 0.8354752 -1.692772E-05
v 1.295318 -0.8267934 -1.692772E-05
v 1.327153 -0.9028473 1.701058
v 2.00806 -1.48504 -1.692772E-05
v 1.824668 -1.361464 1.667572
v 1.327153 -0.9028473 1.701058
v 1.368437 0.639148 2.592054
v 1.338896 -0.3649654 2.790583
v 1.51871 0.8354752 -1.692772E-05
v 1.368437 0.639148 2.592054
v 1.27431 0.5843778 -1.692772E-05
v 2.378513 0.7952003 -1.692772E-05
v 2.746214 -0.2151513 -1.692772E-05
v 2.874836 -0.5684488 2.076649
v -1.058958 -0.9178929 1.439961
v -0.3108044 -0.9852314 2.125823
v -0.1991544 -0.9582593 -1.692772E-05
v -1.058958 -0.9178929 -1.692772E-05
v 1.338896 -0.3649654 2.790583
v 1.368437 0.639148 2.592054
v 2.602088 0.1809895 2.721226
v -0.6171298 1.311064 0.5341952
v -1.748397 0.9764822 -1.692772E-05
v -0.6884131 1.362348 -1.692772E-05
v -1.681609 0.7928152 1.439961
v -0.9536386 0.2215395 2.760859
v -1.225286 -0.4607439 2.3938
v -1.516841 0.8034575 2.060961
v 1.570819 -0.399277 1.722067
v 1.298621 -0.4029465 2.347195
v 1.357244 0.01108384 2.347195
v -1.116021 -0.291939 2.055915
v -1.83124 -0.2626736 2.055915
v -1.679224 0.5509841 2.055915
v -1.428769 0.6377718 2.055915
v -0.1991544 -0.9582593 -1.692772E-05
v -0.3108044 -0.9852314 2.125823
v 0.0453372 -0.7070704 -1.692772E-05
v -1.679224 0.5509841 2.055915
v -2.209308 0.3264918 1.425099
v -1.410971 0.5886896 1.199965
v -2.204629 0.3136482 1.199965
v -1.428769 0.6377718 2.055915
v -1.225286 -0.4607439 2.3938
v -0.5603416 -0.8112891 2.607467
v -1.058958 -0.9178929 1.439961
v 2.602088 0.1809895 2.721226
v 2.053931 0.8243744 2.327746
v 2.378513 0.7952003 -1.692772E-05
v 1.368437 0.639148 2.592054
v 2.053931 0.8243744 2.327746
v 2.602088 0.1809895 2.721226
v -2.059585 -0.6602821 -1.692772E-05
v -2.074906 -0.6161544 1.199965
v -1.059509 -0.4470744 1.199965
v -1.058958 -0.9178929 -1.692772E-05
v -1.748397 0.9764822 -1.692772E-05
v -1.681609 0.7928152 1.439961
v -1.058958 -0.9178929 1.439961
v -1.225286 -0.4607439 2.3938
v -0.1635585 0.5160303 1.1918
v 1.556691 0.6507072 -1.692772E-05
v 1.556691 0.6507072 1.574821
v -0.01484537 0.4459395 2.378021
v -0.9536386 0.2215395 2.760859
v -0.6440101 1.13703 2.114722
v -0.5603416 -0.8112891 2.607467
v -0.04172564 -0.7577119 2.396369
v -0.3108044 -0.9852314 2.125823
v -2.074906 -0.6161544 1.199965
v -2.544899 -0.5370731 1.199965
v -2.398204 0.2481446 1.199965
v -2.204629 0.3136482 1.199965
v 2.874836 -0.5684488 2.076649
v 2.756948 -1.212476 -1.692772E-05
v 2.083197 -1.172385 2.499395
v -3.137459 -0.6598234 -1.692772E-05
v -3.024158 -0.5697331 0.588598
v -2.059585 -0.6602821 -1.692772E-05
v -0.165118 0.6274049 -1.692772E-05
v 1.556691 0.6507072 -1.692772E-05
v -0.1635585 0.5160303 1.1918
v -0.1635585 0.5160303 1.1918
v 0.4417534 0.6356614 2.09564
v -0.1588798 0.1664023 2.17151
v -0.1588798 0.1664023 2.17151
v 0.4748721 -0.4140472 2.347195
v -0.1508982 -0.4224875 1.356476
v -2.209308 0.3264918 1.425099
v -1.679224 0.5509841 2.055915
v -1.83124 -0.2626736 2.055915
v -2.150043 -0.4095521 1.679316
v 1.570819 -0.399277 1.722067
v 0.4748721 -0.4140472 2.347195
v 1.298621 -0.4029465 2.347195
v -0.1508982 -0.4224875 1.356476
v 1.570819 -0.399277 1.1918
v -0.1508982 -0.4224875 1.356476
v -0.1508982 -0.4224875 1.1918
v -3.079937 0.2629151 -1.692772E-05
v -2.930581 0.2066772 0.5219936
v -3.024158 -0.5697331 0.588598
v -0.9536386 0.2215395 2.760859
v -1.516841 0.8034575 2.060961
v -0.6440101 1.13703 2.114722
v -0.01484537 0.4459395 2.378021
v -0.04172564 -0.7577119 2.396369
v -0.5603416 -0.8112891 2.607467
v 1.357244 0.01108384 2.347195
v 1.298621 -0.4029465 2.347195
v 0.4748721 -0.4140472 2.347195
v 0.4417534 0.6356614 2.09564
v 1.556691 0.6507072 1.574821
v 1.357244 0.01108384 2.347195
v 1.559993 -0.7630329 -1.692772E-05
v 0.3516629 -0.7793629 1.1918
v 1.750174 -0.7604642 1.1918
v 0.3516629 -0.7793629 -1.692772E-05
v -2.204629 0.3136482 1.199965
v -2.209308 0.3264918 1.425099
v -2.150043 -0.4095521 1.679316
v 2.053931 0.8243744 2.327746
v 1.368437 0.639148 2.592054
v 1.51871 0.8354752 -1.692772E-05
v 2.083197 -1.172385 2.499395
v 1.327153 -0.9028473 1.701058
v 1.338896 -0.3649654 2.790583
v 1.824668 -1.361464 1.667572
v 1.327153 -0.9028473 1.701058
v 1.295318 -0.8267934 -1.692772E-05
v 1.27431 0.5843778 -1.692772E-05
v -2.059585 -0.6602821 -1.692772E-05
v -3.024158 -0.5697331 0.588598
v -2.544899 -0.5370731 1.199965
v -0.9536386 0.2215395 2.760859
v -0.5603416 -0.8112891 2.607467
v -1.225286 -0.4607439 2.3938
v -1.516841 0.8034575 2.060961
v -1.681609 0.7928152 1.439961
v -0.5050213 1.23868 1.667572
v -0.6171298 1.311064 0.5341952
v -0.6440101 1.13703 2.114722
v -1.059509 -0.4470744 1.199965
v -2.074906 -0.6161544 1.199965
v -2.150043 -0.4095521 1.679316
v 2.602088 0.1809895 2.721226
v 2.874836 -0.5684488 2.076649
v 2.083197 -1.172385 2.499395
v 1.824668 -1.361464 1.667572
v 2.756948 -1.212476 -1.692772E-05
v 2.00806 -1.48504 -1.692772E-05
v 2.083197 -1.172385 2.499395
v -2.930581 0.2066772 0.5219936
v -2.398204 0.2481446 1.199965
v -2.544899 -0.5370731 1.199965
v -3.024158 -0.5697331 0.588598
v -0.1508982 -0.4224875 1.1918
v 0.3516629 -0.7793629 1.1918
v 0.3516629 -0.7793629 -1.692772E-05
v -0.1508982 -0.4224875 -1.692772E-05
v 2.746214 -0.2151513 -1.692772E-05
v 2.756948 -1.212476 -1.692772E-05
v 2.874836 -0.5684488 2.076649
v 1.338896 -0.3649654 2.790583
v 2.602088 0.1809895 2.721226
v 2.083197 -1.172385 2.499395
v 1.570819 -0.399277 1.722067
v 1.357244 0.01108384 2.347195
v 1.556691 0.6507072 1.574821
v 2.602088 0.1809895 2.721226
v 2.378513 0.7952003 -1.692772E-05
v 2.874836 -0.5684488 2.076649
v -2.059585 -0.6602821 -1.692772E-05
v -1.059509 -0.4470744 1.199965
v -1.059509 -0.4470744 -1.692772E-05
v -0.1635585 0.5160303 1.1918
v 1.556691 0.6507072 1.574821
v 0.4417534 0.6356614 2.09564
v -1.225286 -0.4607439 2.3938
v -1.681609 0.7928152 1.439961
v -1.516841 0.8034575 2.060961
v -3.079937 0.2629151 -1.692772E-05
v -3.024158 -0.5697331 0.588598
v -3.137459 -0.6598234 -1.692772E-05
v -0.01484537 0.4459395 2.378021
v -0.5603416 -0.8112891 2.607467
v -0.9536386 0.2215395 2.760859
v 0.4417534 0.6356614 2.09564
v 0.4748721 -0.4140472 2.347195
v -0.1588798 0.1664023 2.17151
v 1.357244 0.01108384 2.347195
v 0.4748721 -0.4140472 2.347195
v 0.4417534 0.6356614 2.09564
v -2.204629 0.3136482 1.199965
v -2.150043 -0.4095521 1.679316
v -2.074906 -0.6161544 1.199965
v 1.327153 -0.9028473 1.701058
v 1.27431 0.5843778 -1.692772E-05
v 1.368437 0.639148 2.592054
v -2.059585 -0.6602821 -1.692772E-05
v -2.544899 -0.5370731 1.199965
v -2.074906 -0.6161544 1.199965
v -1.059509 -0.4470744 1.199965
v -2.150043 -0.4095521 1.679316
v -1.116021 -0.291939 2.055915
vn -0.2704474 -0.9450168 0.1838517
vn -0.2704474 -0.9450168 0.1838517
vn -0.2704474 -0.9450168 0.1838517
vn 0.6783988 0.7331081 -0.04824419
vn 0.6783988 0.7331081 -0.04824419
vn 0.6783988 0.7331081 -0.04824419
vn 0.6783988 0.7331081 -0.04824419
vn 0.6783988 0.7331081 -0.04824419
vn 0.6235069 0.7017413 0.3446713
vn 0.6235069 0.7017413 0.3446713
vn 0.6235069 0.7017413 0.3446713
vn 0.6235069 0.7017413 0.3446713
vn 0.6391903 -0.7646576 0.08206358
vn 0.6391903 -0.7646576 0.08206358
vn 0.6391903 -0.7646576 0.08206358
vn 0.9999087 -0.01969564 0
vn 0.9999087 -0.01969564 0
vn 0.9999087 -0.01969564 0
vn 0.9999087 0.01167125 0.006803783
vn 0.9999087 0.01167125 0.006803783
vn -0.3174977 0.9291506 0.1894053
vn -0.3174977 0.9291506 0.1894053
vn -0.3174977 0.9291506 0.1894053
vn -0.3174977 0.9291506 0.1894053
vn -0.3174977 0.9291506 0.1894053
vn -0.3174977 0.9291506 0.1894053
vn -0.3174977 0.9291506 0.1894053
vn -0.03519636 -0.9214917 0.3868001
vn -0.03519636 -0.9214917 0.3868001
vn -0.03519636 -0.9214917 0.3868001
vn -0.003829539 0.003829539 0.9999853
vn -0.003829539 0.003829539 0.9999853
vn -0.003829539 0.003829539 0.9999853
vn -0.003829539 0.003829539 0.9999853
vn 0.04322076 0.999726 0
vn 0.04322076 0.999726 0
vn 0.04322076 0.999726 0
vn -0.6782162 -0.7332908 -0.04803618
vn -0.6782162 -0.7332908 -0.04803618
vn -0.6782162 -0.7332908 -0.04803618
vn -0.6782162 -0.7332908 -0.04803618
vn -0.999726 0.02735466 0
vn -0.999726 0.02735466 0
vn -0.999726 0.02735466 0
vn -0.7174247 0.6938996 0.06168623
vn -0.7174247 0.6938996 0.06168623
vn -0.7174247 0.6938996 0.06168623
vn 0.9371751 0.3410228 -0.07352758
vn 0.9371751 0.3410228 -0.07352758
vn 0.9371751 0.3410228 -0.07352758
vn -0.0744049 -0.9999087 0
vn -0.0744049 -0.9999087 0
vn -0.0744049 -0.9999087 0
vn -0.04303807 -0.9999087 0
vn -0.02735466 0.1920305 0.9810076
vn -0.02735466 0.1920305 0.9810076
vn -0.02735466 0.1920305 0.9810076
vn -0.3410228 0.9291506 0.1427676
vn -0.3410228 0.9291506 0.1427676
vn -0.3410228 0.9291506 0.1427676
vn -0.3410228 0.9291506 0.1427676
vn -0.7879999 -0.01969564 0.6153602
vn -0.7879999 -0.01969564 0.6153602
vn -0.7879999 -0.01969564 0.6153602
vn 0.9058083 -0.1294795 0.4034184
vn 0.9058083 -0.1294795 0.4034184
vn 0.9058083 -0.1294795 0.4034184
vn -0.003829539 0.003829539 0.9999853
vn -0.003829539 0.003829539 0.9999853
vn -0.003829539 0.003829539 0.9999853
vn -0.003829539 0.003829539 0.9999853
vn 0.7176074 -0.6940823 0.05735382
vn 0.7176074 -0.6940823 0.05735382
vn 0.7176074 -0.6940823 0.05735382
vn -0.3253394 0.9448341 -0.03798565
vn -0.3253394 0.9448341 -0.03798565
vn -0.3253394 0.9448341 -0.03798565
vn -0.3253394 0.9448341 -0.03798565
vn -0.3253394 0.9448341 -0.03798565
vn -0.521382 -0.8038661 0.2862865
vn -0.521382 -0.8038661 0.2862865
vn -0.521382 -0.8038661 0.2862865
vn 0.7254491 0.6782162 0.1172455
vn 0.7254491 0.6782162 0.1172455
vn 0.7254491 0.6782162 0.1172455
vn 0.1373212 0.5997991 0.7882791
vn 0.1373212 0.5997991 0.7882791
vn 0.1373212 0.5997991 0.7882791
vn 0.1608463 -0.9842253 0.07368154
vn 0.1608463 -0.9842253 0.07368154
vn 0.1608463 -0.9842253 0.07368154
vn -0.9369923 -0.3412055 -0.07499415
vn -0.9369923 -0.3412055 -0.07499415
vn -0.9369923 -0.3412055 -0.07499415
vn -0.9369923 -0.3412055 -0.07499415
vn -0.9369923 -0.3412055 -0.07499415
vn -0.0744049 0.999726 0
vn -0.0744049 0.999726 0
vn -0.0744049 0.999726 0
vn 0.2157382 0.5135403 0.8305019
vn 0.2157382 0.5135403 0.8305019
vn 0.2157382 0.5135403 0.8305019
vn 0.2706302 -0.8509163 0.450223
vn 0.2706302 -0.8509163 0.450223
vn 0.2706302 -0.8509163 0.450223
vn -0.003829539 0.003829539 0.9999853
vn -0.003829539 0.003829539 0.9999853
vn -0.003829539 0.003829539 0.9999853
vn -0.003829539 0.003829539 0.9999853
vn 0.6548737 -0.7332908 0.1828251
vn 0.6548737 -0.7332908 0.1828251
vn 0.6548737 -0.7332908 0.1828251
vn -0.003829539 -0.992067 0.1256516
vn -0.003829539 -0.992067 0.1256516
vn -0.003829539 -0.992067 0.1256516
vn -0.01167125 0.9918843 0.1266071
vn -0.01167125 0.9918843 0.1266071
vn -0.01167125 0.9918843 0.1266071
vn -0.5684323 0.7723165 0.2835701
vn -0.5684323 0.7723165 0.2835701
vn -0.5684323 0.7723165 0.2835701
vn -0.6703745 -0.5999818 0.4366004
vn -0.6703745 -0.5999818 0.4366004
vn -0.6703745 -0.5999818 0.4366004
vn -0.7801582 0.1449803 0.6085506
vn -0.7801582 0.1449803 0.6085506
vn -0.7801582 0.1449803 0.6085506
vn -0.7801582 0.1449803 0.6085506
vn 0.01185393 -0.9999087 -0.006482382
vn 0.01185393 -0.9999087 -0.006482382
vn 0.01185393 -0.9999087 -0.006482382
vn 0.01185393 -0.9999087 -0.006482382
vn 0.01185393 -0.9999087 -0.006482382
vn 0.01185393 -0.9999087 -0.006482382
vn 0.01185393 -0.9999087 -0.006482382
vn -0.9448341 0.1371385 0.2974586
vn -0.9448341 0.1371385 0.2974586
vn -0.9448341 0.1371385 0.2974586
vn -0.2782891 0.6154825 0.7373849
vn -0.2782891 0.6154825 0.7373849
vn -0.2782891 0.6154825 0.7373849
vn 0.3725724 0.003829539 0.9279953
vn 0.3725724 0.003829539 0.9279953
vn 0.3725724 0.003829539 0.9279953
vn -0.003829539 0.003829539 0.9999853
vn -0.003829539 0.003829539 0.9999853
vn -0.003829539 0.003829539 0.9999853
vn 0.2941553 0.6938996 0.6572489
vn 0.2941553 0.6938996 0.6572489
vn 0.2941553 0.6938996 0.6572489
vn 0.01185393 -0.9999087 -0.006482382
vn 0.01185393 -0.9999087 -0.006482382
vn 0.01185393 -0.9999087 -0.006482382
vn 0.01185393 -0.9999087 -0.006482382
vn -0.999726 -0.08242929 0
vn -0.999726 -0.08242929 0
vn -0.999726 -0.08242929 0
vn -0.2390807 0.9683592 0.0715607
vn -0.2390807 0.9683592 0.0715607
vn -0.2390807 0.9683592 0.0715607
vn -0.6233242 -0.701924 0.3446297
vn -0.6233242 -0.701924 0.3446297
vn -0.6233242 -0.701924 0.3446297
vn -0.6233242 -0.701924 0.3446297
vn -0.999726 -0.01185393 0.02018489
vn -0.999726 -0.01185393 0.02018489
vn -0.999726 -0.01185393 0.02018489
vn -0.04303807 -0.992067 0.1181131
vn -0.04303807 -0.992067 0.1181131
vn -0.04303807 -0.992067 0.1181131
vn -0.4272816 -0.2863136 0.8575867
vn -0.4272816 -0.2863136 0.8575867
vn -0.4272816 -0.2863136 0.8575867
vn -0.3645479 0.9291506 0.06151375
vn -0.3645479 0.9291506 0.06151375
vn -0.3645479 0.9291506 0.06151375
vn -0.3723896 0.9213089 0.1118742
vn -0.3567062 0.9291506 0.09715846
vn 0.1530046 -0.8979666 0.4126084
vn 0.1530046 -0.8979666 0.4126084
vn 0.1530046 -0.8979666 0.4126084
vn 0.6391903 -0.3568889 0.6812239
vn 0.6391903 -0.3568889 0.6812239
vn 0.6391903 -0.3568889 0.6812239
vn 0.3412055 -0.9371751 0.0726748
vn 0.3412055 -0.9371751 0.0726748
vn 0.3412055 -0.9371751 0.0726748
vn 0.3412055 -0.9371751 0.0726748
vn -0.7801582 0.1449803 0.6085506
vn -0.7801582 0.1449803 0.6085506
vn -0.7801582 0.1449803 0.6085506
vn -0.7801582 0.1449803 0.6085506
vn -0.576274 -0.8117079 -0.09507201
vn -0.576274 -0.8117079 -0.09507201
vn -0.576274 -0.8117079 -0.09507201
vn -0.576274 -0.8117079 -0.09507201
vn 0.9999087 0.01167125 -0.006803783
vn 0.9999087 0.01167125 -0.006803783
vn 0.9999087 0.01167125 -0.006803783
vn 0.1451629 -0.2157382 0.9656007
vn 0.1451629 -0.2157382 0.9656007
vn 0.1451629 -0.2157382 0.9656007
vn 0.9528585 0.05087978 0.2991186
vn 0.9528585 0.05087978 0.2991186
vn 0.9528585 0.05087978 0.2991186
vn 0.9371751 0.3410228 -0.07352758
vn 0.9371751 0.3410228 -0.07352758
vn 0.9371751 0.3410228 -0.07352758
vn 0.2078965 -0.9763836 -0.05877099
vn 0.2078965 -0.9763836 -0.05877099
vn 0.2078965 -0.9763836 -0.05877099
vn -0.05872148 0.9918843 -0.1127713
vn -0.05872148 0.9918843 -0.1127713
vn -0.05872148 0.9918843 -0.1127713
vn -0.9526758 -0.1530046 0.2626756
vn -0.9526758 -0.1530046 0.2626756
vn -0.9526758 -0.1530046 0.2626756
vn -0.9840426 0.05872148 0.1679642
vn -0.9840426 0.05872148 0.1679642
vn -0.9840426 0.05872148 0.1679642
vn 0.3725724 0.003829539 0.9279953
vn 0.3725724 0.003829539 0.9279953
vn 0.3725724 0.003829539 0.9279953
vn -0.05872148 0.231239 0.9711232
vn -0.05872148 0.231239 0.9711232
vn -0.05872148 0.231239 0.9711232
vn -0.1136134 0.231239 0.9662404
vn -0.1136134 0.231239 0.9662404
vn -0.1136134 0.231239 0.9662404
vn -0.9840426 -0.1373212 -0.1131508
vn -0.9840426 -0.1373212 -0.1131508
vn -0.9840426 -0.1373212 -0.1131508
vn -0.999726 0.003829539 0.02309286
vn -0.999726 0.003829539 0.02309286
vn -0.999726 0.003829539 0.02309286
vn -0.1685054 -0.9842253 0.05391143
vn -0.1685054 -0.9842253 0.05391143
vn -0.1685054 -0.9842253 0.05391143
vn 0.04322076 -0.9842253 0.171559
vn 0.04322076 -0.9842253 0.171559
vn 0.04322076 -0.9842253 0.171559
g Rock_Wall_02_0
f 3/3/3 2/2/2 1/1/1
f 6/6/6 5/5/5 4/4/4
f 5/5/5 6/6/6 7/7/7
f 8/8/8 6/6/6 4/4/4
f 11/11/11 10/10/10 9/9/9
f 9/9/9 10/10/10 12/12/12
f 15/15/15 14/14/14 13/13/13
f 18/18/18 17/17/17 16/16/16
f 17/17/17 19/19/19 16/16/16
f 19/19/19 20/20/20 16/16/16
f 23/23/23 22/22/22 21/21/21
f 21/21/21 22/22/22 24/24/24
f 25/25/25 24/24/24 22/22/22
f 21/21/21 24/24/24 26/26/26
f 24/24/24 27/27/27 26/26/26
f 30/30/30 29/29/29 28/28/28
f 33/33/33 32/32/32 31/31/31
f 31/31/31 32/32/32 34/34/34
f 37/37/37 36/36/36 35/35/35
f 40/40/40 39/39/39 38/38/38
f 39/39/39 40/40/40 41/41/41
f 44/44/44 43/43/43 42/42/42
f 47/47/47 46/46/46 45/45/45
f 50/50/50 49/49/49 48/48/48
f 53/53/53 52/52/52 51/51/51
f 51/51/51 54/54/54 53/53/53
f 57/57/57 56/56/56 55/55/55
f 60/60/60 59/59/59 58/58/58
f 59/59/59 61/61/61 58/58/58
f 64/64/64 63/63/63 62/62/62
f 67/67/67 66/66/66 65/65/65
f 70/70/70 69/69/69 68/68/68
f 71/71/71 70/70/70 68/68/68
f 74/74/74 73/73/73 72/72/72
f 77/77/77 76/76/76 75/75/75
f 76/76/76 77/77/77 78/78/78
f 79/79/79 77/77/77 75/75/75
f 82/82/82 81/81/81 80/80/80
f 85/85/85 84/84/84 83/83/83
f 88/88/88 87/87/87 86/86/86
f 91/91/91 90/90/90 89/89/89
f 94/94/94 93/93/93 92/92/92
f 95/95/95 94/94/94 92/92/92
f 94/94/94 95/95/95 96/96/96
f 99/99/99 98/98/98 97/97/97
f 102/102/102 101/101/101 100/100/100
f 105/105/105 104/104/104 103/103/103
f 108/108/108 107/107/107 106/106/106
f 109/109/109 108/108/108 106/106/106
f 112/112/112 111/111/111 110/110/110
f 115/115/115 114/114/114 113/113/113
f 118/118/118 117/117/117 116/116/116
f 121/121/121 120/120/120 119/119/119
f 124/124/124 123/123/123 122/122/122
f 127/127/127 126/126/126 125/125/125
f 128/128/128 127/127/127 125/125/125
f 131/131/131 130/130/130 129/129/129
f 132/132/132 129/129/129 130/130/130
f 129/129/129 134/134/134 133/133/133
f 134/134/134 135/135/135 133/133/133
f 138/138/138 137/137/137 136/136/136
f 141/141/141 140/140/140 139/139/139
f 144/144/144 143/143/143 142/142/142
f 147/147/147 146/146/146 145/145/145
f 150/150/150 149/149/149 148/148/148
f 153/153/153 152/152/152 151/151/151
f 152/152/152 154/154/154 151/151/151
f 157/157/157 156/156/156 155/155/155
f 160/160/160 159/159/159 158/158/158
f 163/163/163 162/162/162 161/161/161
f 164/164/164 161/161/161 162/162/162
f 167/167/167 166/166/166 165/165/165
f 170/170/170 169/169/169 168/168/168
f 173/173/173 172/172/172 171/171/171
f 176/176/176 175/175/175 174/174/174
f 175/175/175 176/176/176 177/177/177
f 178/178/178 176/176/176 174/174/174
f 181/181/181 180/180/180 179/179/179
f 184/184/184 183/183/183 182/182/182
f 187/187/187 186/186/186 185/185/185
f 188/188/188 185/185/185 186/186/186
f 191/191/191 190/190/190 189/189/189
f 192/192/192 191/191/191 189/189/189
f 195/195/195 194/194/194 193/193/193
f 196/196/196 195/195/195 193/193/193
f 199/199/199 198/198/198 197/197/197
f 202/202/202 201/201/201 200/200/200
f 205/205/205 204/204/204 203/203/203
f 208/208/208 207/207/207 206/206/206
f 211/211/211 210/210/210 209/209/209
f 214/214/214 213/213/213 212/212/212
f 217/217/217 216/216/216 215/215/215
f 220/220/220 219/219/219 218/218/218
f 223/223/223 222/222/222 221/221/221
f 226/226/226 225/225/225 224/224/224
f 229/229/229 228/228/228 227/227/227
f 232/232/232 231/231/231 230/230/230
f 235/235/235 234/234/234 233/233/233
f 238/238/238 237/237/237 236/236/236
f 241/241/241 240/240/240 239/239/239
