g Rock_Flat_m_06
v -0.55841 0.2692996 0.1033316
v -0.4734918 0.442459 0.04032886
v -0.3288428 0.4575409 0.260029
v -0.1028715 -0.517408 0.2665218
v -0.3255879 -0.5500426 0.08035952
v -0.55841 -0.1661639 0.1495824
v -0.08514827 0.4829499 0.267016
v -0.3288428 0.4575409 0.260029
v -0.4734918 0.442459 0.04032886
v 0.3056833 0.5236962 0.03787494
v -0.1028715 -0.517408 0.2665218
v 0.2951517 -0.5500426 0.09239089
v -0.3255879 -0.5500426 0.08035952
v -0.4437031 0.02718985 -0.0002300739
v -0.55841 -0.1661639 0.1495824
v -0.27932 -0.4053596 -0.0002300739
v -0.3255879 -0.5500426 0.08035952
v -0.08514827 0.4829499 0.267016
v 0.3056833 0.5236962 0.03787494
v 0.2323705 0.2890337 0.2761503
v 0.55841 0.2322682 0.1630623
v 0.3052232 -0.3431919 0.2782464
v 0.55841 -0.3411298 0.1883861
v 0.55841 -0.4560071 0.08313733
v 0.2951517 -0.5500426 0.09239089
v -0.1028715 -0.517408 0.2665218
v -0.55841 0.2692996 0.1033316
v -0.3288428 0.4575409 0.260029
v -0.55841 0.1408401 0.2534168
v -0.4734918 0.442459 0.04032886
v -0.55841 0.2692996 0.1033316
v -0.4437031 0.02718985 -0.0002300739
v -0.55841 -0.1661639 0.1495824
v -0.4437031 0.02718985 -0.0002300739
v -0.55841 0.2692996 0.1033316
v 0.3056833 0.5236962 0.03787494
v 0.55841 0.3134714 -0.0002300739
v 0.55841 0.2322682 0.1630623
v 0.55841 0.3134714 -0.0002300739
v 0.3056833 0.5236962 0.03787494
v -0.4734918 0.442459 0.04032886
v -0.1028715 -0.517408 0.2665218
v -0.55841 -0.1661639 0.1495824
v -0.55841 0.1408401 0.2534168
v 0.55841 0.3134714 -0.0002300739
v -0.4734918 0.442459 0.04032886
v -0.4437031 0.02718985 -0.0002300739
v 0.55841 -0.19735 -0.0002300739
v 0.55841 -0.3411298 0.1883861
v 0.55841 0.2322682 0.1630623
v 0.55841 -0.4560071 0.08313733
v 0.55841 0.3134714 -0.0002300739
v -0.55841 0.1408401 0.2534168
v -0.08514827 0.4829499 0.267016
v 0.2323705 0.2890337 0.2761503
v -0.3288428 0.4575409 0.260029
v -0.1028715 -0.517408 0.2665218
v 0.3052232 -0.3431919 0.2782464
v 0.55841 -0.19735 -0.0002300739
v -0.4437031 0.02718985 -0.0002300739
v -0.27932 -0.4053596 -0.0002300739
v 0.55841 0.3134714 -0.0002300739
v 0.55841 -0.4560071 0.08313733
v 0.55841 -0.19735 -0.0002300739
v 0.2951517 -0.5500426 0.09239089
v -0.27932 -0.4053596 -0.0002300739
v -0.3255879 -0.5500426 0.08035952
v 0.2951517 -0.5500426 0.09239089
v -0.27932 -0.4053596 -0.0002300739
v -0.55841 0.1408401 0.2534168
v -0.55841 -0.1661639 0.1495824
v -0.55841 0.2692996 0.1033316
v 0.55841 0.2322682 0.1630623
v 0.55841 -0.3411298 0.1883861
v 0.3052232 -0.3431919 0.2782464
v 0.2323705 0.2890337 0.2761503
vn -0.7333277 0.5215647 0.43612
vn -0.7333277 0.5215647 0.43612
vn -0.7333277 0.5215647 0.43612
vn -0.5294077 -0.4509769 0.7185731
vn -0.5294077 -0.4509769 0.7185731
vn -0.5294077 -0.4509769 0.7185731
vn -0.1058816 0.9921494 -0.06654881
vn -0.1058816 0.9921494 -0.06654881
vn -0.1058816 0.9921494 -0.06654881
vn -0.1058816 0.9921494 -0.06654881
vn -0.003921628 -0.9843062 0.1764254
vn -0.003921628 -0.9843062 0.1764254
vn -0.003921628 -0.9843062 0.1764254
vn -0.6078385 -0.2313707 -0.7596051
vn -0.6078385 -0.2313707 -0.7596051
vn -0.6078385 -0.2313707 -0.7596051
vn -0.6078385 -0.2313707 -0.7596051
vn 0.3490169 0.6078385 0.7132458
vn 0.3490169 0.6078385 0.7132458
vn 0.3490169 0.6078385 0.7132458
vn 0.3490169 0.6078385 0.7132458
vn 0.2549 -0.654897 0.7114323
vn 0.2549 -0.654897 0.7114323
vn 0.2549 -0.654897 0.7114323
vn 0.2549 -0.654897 0.7114323
vn 0.2549 -0.654897 0.7114323
vn -0.7333277 0.5215647 0.43612
vn -0.7333277 0.5215647 0.43612
vn -0.7333277 0.5215647 0.43612
vn -0.6313678 0.0274508 -0.7749975
vn -0.6313678 0.0274508 -0.7749975
vn -0.6313678 0.0274508 -0.7749975
vn -0.7490139 -0.06666613 -0.6591918
vn -0.7490139 -0.06666613 -0.6591918
vn -0.7490139 -0.06666613 -0.6591918
vn 0.6313677 0.6941124 0.3458075
vn 0.6313677 0.6941124 0.3458075
vn 0.6313677 0.6941124 0.3458075
vn -0.01960778 0.15294 -0.9880409
vn -0.01960778 0.15294 -0.9880409
vn -0.01960778 0.15294 -0.9880409
vn -0.443134 -0.2862723 0.8495178
vn -0.443134 -0.2862723 0.8495178
vn -0.443134 -0.2862723 0.8495178
vn -0.0274508 0.09803855 -0.994804
vn -0.0274508 0.09803855 -0.994804
vn -0.0274508 0.09803855 -0.994804
vn 0.9999924 0.003921628 0
vn 0.9999924 0.003921628 0
vn 0.9999924 0.003921628 0
vn 0.9999924 0.003921628 0
vn 0.9999924 0.003921628 0
vn -0.0274508 0.003921628 0.9996155
vn -0.0274508 0.003921628 0.9996155
vn -0.0274508 0.003921628 0.9996155
vn -0.0274508 0.003921628 0.9996155
vn -0.0274508 0.003921628 0.9996155
vn -0.0274508 0.003921628 0.9996155
vn -0.003921628 0.003921628 -0.9999846
vn -0.003921628 0.003921628 -0.9999846
vn -0.003921628 0.003921628 -0.9999846
vn -0.003921628 0.003921628 -0.9999846
vn 0.0745092 -0.3098015 -0.9478773
vn 0.0745092 -0.3098015 -0.9478773
vn 0.0745092 -0.3098015 -0.9478773
vn 0.0745092 -0.3098015 -0.9478773
vn 0.01960766 -0.4901923 -0.8713937
vn 0.01960766 -0.4901923 -0.8713937
vn 0.01960766 -0.4901923 -0.8713937
vn -0.9999924 0.003921628 0
vn -0.9999924 0.003921628 0
vn -0.9999924 0.003921628 0
vn 0.3333308 0.04313695 0.9418226
vn 0.3333308 0.04313695 0.9418226
vn 0.3333308 0.04313695 0.9418226
vn 0.3333308 0.04313695 0.9418226
g Rock_Flat_m_06_0
f 3/3/3 2/2/2 1/1/1
f 6/6/6 5/5/5 4/4/4
f 9/9/9 8/8/8 7/7/7
f 10/10/10 9/9/9 7/7/7
f 13/13/13 12/12/12 11/11/11
f 16/16/16 15/15/15 14/14/14
f 15/15/15 16/16/16 17/17/17
f 20/20/20 19/19/19 18/18/18
f 20/20/20 21/21/21 19/19/19
f 24/24/24 23/23/23 22/22/22
f 25/25/25 24/24/24 22/22/22
f 22/22/22 26/26/26 25/25/25
f 29/29/29 28/28/28 27/27/27
f 32/32/32 31/31/31 30/30/30
f 35/35/35 34/34/34 33/33/33
f 38/38/38 37/37/37 36/36/36
f 41/41/41 40/40/40 39/39/39
f 44/44/44 43/43/43 42/42/42
f 47/47/47 46/46/46 45/45/45
f 50/50/50 49/49/49 48/48/48
f 51/51/51 48/48/48 49/49/49
f 52/52/52 50/50/50 48/48/48
f 55/55/55 54/54/54 53/53/53
f 53/53/53 54/54/54 56/56/56
f 57/57/57 55/55/55 53/53/53
f 58/58/58 55/55/55 57/57/57
f 61/61/61 60/60/60 59/59/59
f 59/59/59 60/60/60 62/62/62
f 65/65/65 64/64/64 63/63/63
f 65/65/65 66/66/66 64/64/64
f 69/69/69 68/68/68 67/67/67
f 72/72/72 71/71/71 70/70/70
f 75/75/75 74/74/74 73/73/73
f 76/76/76 75/75/75 73/73/73
