g Rock_Flat_m_07
v 0.09812203 -0.3102985 -0.0005525649
v -0.473137 -0.2915653 0.196762
v 0.3262161 -0.3298635 0.1789727
v 0.4832967 -0.04886538 -0.0008245409
v 0.3262161 -0.3298635 0.1789727
v 0.488288 -0.1681277 0.1255566
v 0.09812203 -0.3102985 -0.0005525649
v 0.2390451 0.2797098 -0.0006485581
v -0.3017225 0.3140566 0.3013065
v -0.2372521 0.1733416 -0.0003126264
v 0.2841424 -0.2430925 0.3221834
v 0.3888628 0.244451 0.3191118
v 0.434136 -0.006295741 0.3177681
v -0.3768632 0.1985538 0.3416525
v -0.4030354 -0.1407237 0.3424204
v -0.3768632 0.1985538 0.3416525
v -0.4088745 0.2827972 0.3130008
v -0.3017225 0.3140566 0.3013065
v 0.3888628 0.244451 0.3191118
v -0.473137 -0.2915653 0.196762
v -0.4030354 -0.1407237 0.3424204
v 0.2841424 -0.2430925 0.3221834
v 0.4832967 -0.04886538 -0.0008245409
v 0.468115 0.03552204 -0.000808537
v 0.09812203 -0.3102985 -0.0005525649
v 0.2390451 0.2797098 -0.0006485581
v -0.2372521 0.1733416 -0.0003126264
v 0.488288 -0.1681277 0.1255566
v 0.434136 -0.006295741 0.3177681
v 0.4832967 -0.04886538 -0.0008245409
v 0.468115 0.03552204 -0.000808537
v 0.4233696 0.2263097 0.07925957
v 0.2390451 0.2797098 -0.0006485581
v 0.3888628 0.244451 0.3191118
v -0.3017225 0.3140566 0.3013065
v -0.560116 0.007110298 0.1125986
v -0.559828 0.1392826 0.1223251
v -0.5572684 0.1819483 0.2093202
v -0.559828 0.1392826 0.1223251
v -0.4088745 0.2827972 0.3130008
v -0.5572684 0.1819483 0.2093202
v -0.2372521 0.1733416 -0.0003126264
v -0.4088745 0.2827972 0.3130008
v -0.3017225 0.3140566 0.3013065
v 0.09812203 -0.3102985 -0.0005525649
v -0.4417816 -0.2051621 0.05087978
v -0.473137 -0.2915653 0.196762
v -0.5572684 0.1819483 0.2093202
v -0.3768632 0.1985538 0.3416525
v -0.4030354 -0.1407237 0.3424204
v -0.4088745 0.2827972 0.3130008
v -0.4705773 -0.185949 0.2951954
v -0.2372521 0.1733416 -0.0003126264
v -0.559828 0.1392826 0.1223251
v -0.560116 0.007110298 0.1125986
v 0.488288 -0.1681277 0.1255566
v 0.3262161 -0.3298635 0.1789727
v 0.2841424 -0.2430925 0.3221834
v -0.560116 0.007110298 0.1125986
v -0.5572684 0.1819483 0.2093202
v -0.473137 -0.2915653 0.196762
v -0.4030354 -0.1407237 0.3424204
v -0.473137 -0.2915653 0.196762
v -0.4705773 -0.185949 0.2951954
v -0.4705773 -0.185949 0.2951954
v -0.473137 -0.2915653 0.196762
v -0.5572684 0.1819483 0.2093202
v -0.560116 0.007110298 0.1125986
v -0.473137 -0.2915653 0.196762
v -0.4417816 -0.2051621 0.05087978
v 0.434136 -0.006295741 0.3177681
v 0.3888628 0.244451 0.3191118
v 0.4233696 0.2263097 0.07925957
v 0.4233696 0.2263097 0.07925957
v 0.3888628 0.244451 0.3191118
v 0.2390451 0.2797098 -0.0006485581
v 0.4233696 0.2263097 0.07925957
v 0.2390451 0.2797098 -0.0006485581
v 0.468115 0.03552204 -0.000808537
v -0.473137 -0.2915653 0.196762
v 0.2841424 -0.2430925 0.3221834
v 0.3262161 -0.3298635 0.1789727
v -0.2372521 0.1733416 -0.0003126264
v -0.560116 0.007110298 0.1125986
v -0.4417816 -0.2051621 0.05087978
v 0.488288 -0.1681277 0.1255566
v 0.2841424 -0.2430925 0.3221834
v 0.434136 -0.006295741 0.3177681
v 0.09812203 -0.3102985 -0.0005525649
v -0.2372521 0.1733416 -0.0003126264
v -0.4417816 -0.2051621 0.05087978
vn -0.0518378 -0.9977132 -0.0433726
vn -0.0518378 -0.9977132 -0.0433726
vn -0.0518378 -0.9977132 -0.0433726
vn 0.4337753 -0.645252 -0.628879
vn 0.4337753 -0.645252 -0.628879
vn 0.4337753 -0.645252 -0.628879
vn 0.4337753 -0.645252 -0.628879
vn -0.1928223 0.8742472 -0.4455462
vn -0.1928223 0.8742472 -0.4455462
vn -0.1928223 0.8742472 -0.4455462
vn 0.02648693 -0.002989531 0.9996447
vn 0.02648693 -0.002989531 0.9996447
vn 0.02648693 -0.002989531 0.9996447
vn 0.02648693 -0.002989531 0.9996447
vn 0.02648693 -0.002989531 0.9996447
vn 0.010822 0.3259742 0.9453167
vn 0.010822 0.3259742 0.9453167
vn 0.010822 0.3259742 0.9453167
vn 0.010822 0.3259742 0.9453167
vn -0.07533526 -0.6765819 0.7325036
vn -0.07533526 -0.6765819 0.7325036
vn -0.07533526 -0.6765819 0.7325036
vn 0.002989531 -0.002989531 -0.9999911
vn 0.002989531 -0.002989531 -0.9999911
vn 0.002989531 -0.002989531 -0.9999911
vn 0.002989531 -0.002989531 -0.9999911
vn 0.002989531 -0.002989531 -0.9999911
vn 0.9742158 0.1771574 0.1397098
vn 0.9742158 0.1771574 0.1397098
vn 0.9742158 0.1771574 0.1397098
vn 0.9742158 0.1771574 0.1397098
vn 0.9742158 0.1771574 0.1397098
vn 0.09697914 0.9917341 0.08401453
vn 0.09697914 0.9917341 0.08401453
vn 0.09697914 0.9917341 0.08401453
vn -0.9995667 -0.002989531 0.02928371
vn -0.9995667 -0.002989531 0.02928371
vn -0.9995667 -0.002989531 0.02928371
vn -0.2946444 0.8585823 -0.4195488
vn -0.2946444 0.8585823 -0.4195488
vn -0.2946444 0.8585823 -0.4195488
vn -0.2946444 0.8429173 -0.4501945
vn -0.2946444 0.8429173 -0.4501945
vn -0.2946444 0.8429173 -0.4501945
vn -0.2084873 -0.8175664 -0.5367665
vn -0.2084873 -0.8175664 -0.5367665
vn -0.2084873 -0.8175664 -0.5367665
vn -0.5922782 0.04400539 0.8045309
vn -0.5922782 0.04400539 0.8045309
vn -0.5922782 0.04400539 0.8045309
vn -0.5922782 0.04400539 0.8045309
vn -0.5922782 0.04400539 0.8045309
vn -0.3573042 0.06750274 -0.9315456
vn -0.3573042 0.06750274 -0.9315456
vn -0.3573042 0.06750274 -0.9315456
vn 0.6844144 -0.5199325 0.5111235
vn 0.6844144 -0.5199325 0.5111235
vn 0.6844144 -0.5199325 0.5111235
vn -0.921242 -0.1753038 0.3472489
vn -0.921242 -0.1753038 0.3472489
vn -0.921242 -0.1753038 0.3472489
vn -0.05967033 -0.6765819 0.7339458
vn -0.05967033 -0.6765819 0.7339458
vn -0.05967033 -0.6765819 0.7339458
vn -0.9604043 -0.1753038 0.216546
vn -0.9604043 -0.1753038 0.216546
vn -0.9604043 -0.1753038 0.216546
vn -0.8429173 -0.3554506 -0.4039124
vn -0.8429173 -0.3554506 -0.4039124
vn -0.8429173 -0.3554506 -0.4039124
vn 0.9742158 0.1771574 0.1397098
vn 0.9742158 0.1771574 0.1397098
vn 0.9742158 0.1771574 0.1397098
vn 0.2927909 0.9525719 -0.08294784
vn 0.2927909 0.9525719 -0.08294784
vn 0.2927909 0.9525719 -0.08294784
vn 0.4572728 0.4356289 -0.7753251
vn 0.4572728 0.4356289 -0.7753251
vn 0.4572728 0.4356289 -0.7753251
vn -0.02834046 -0.8567287 0.5149881
vn -0.02834046 -0.8567287 0.5149881
vn -0.02834046 -0.8567287 0.5149881
vn -0.3573042 0.06750274 -0.9315456
vn -0.3573042 0.06750274 -0.9315456
vn -0.3573042 0.06750274 -0.9315456
vn 0.7000793 -0.4337753 0.5672107
vn 0.7000793 -0.4337753 0.5672107
vn 0.7000793 -0.4337753 0.5672107
vn -0.1066651 -0.07348174 -0.991576
vn -0.1066651 -0.07348174 -0.991576
vn -0.1066651 -0.07348174 -0.991576
g Rock_Flat_m_07_0
f 3/3/3 2/2/2 1/1/1
f 6/6/6 5/5/5 4/4/4
f 4/4/4 5/5/5 7/7/7
f 10/10/10 9/9/9 8/8/8
f 13/13/13 12/12/12 11/11/11
f 12/12/12 14/14/14 11/11/11
f 14/14/14 15/15/15 11/11/11
f 18/18/18 17/17/17 16/16/16
f 18/18/18 16/16/16 19/19/19
f 22/22/22 21/21/21 20/20/20
f 25/25/25 24/24/24 23/23/23
f 26/26/26 24/24/24 25/25/25
f 27/27/27 26/26/26 25/25/25
f 30/30/30 29/29/29 28/28/28
f 29/29/29 30/30/30 31/31/31
f 32/32/32 29/29/29 31/31/31
f 35/35/35 34/34/34 33/33/33
f 38/38/38 37/37/37 36/36/36
f 41/41/41 40/40/40 39/39/39
f 39/39/39 43/43/43 42/42/42
f 44/44/44 42/42/42 43/43/43
f 47/47/47 46/46/46 45/45/45
f 50/50/50 49/49/49 48/48/48
f 48/48/48 49/49/49 51/51/51
f 52/52/52 50/50/50 48/48/48
f 55/55/55 54/54/54 53/53/53
f 58/58/58 57/57/57 56/56/56
f 61/61/61 60/60/60 59/59/59
f 64/64/64 63/63/63 62/62/62
f 67/67/67 66/66/66 65/65/65
f 70/70/70 69/69/69 68/68/68
f 73/73/73 72/72/72 71/71/71
f 76/76/76 75/75/75 74/74/74
f 79/79/79 78/78/78 77/77/77
f 82/82/82 81/81/81 80/80/80
f 85/85/85 84/84/84 83/83/83
f 88/88/88 87/87/87 86/86/86
f 91/91/91 90/90/90 89/89/89
