g Rock_Chunk_07
v 2.90564 2.514898 17.814
v -6.489048 0.0002040863 13.27631
v -4.782764 1.87496 13.78043
v 12.86256 0.0002040863 -6.834731
v 13.45809 6.941576 -2.451153
v 12.36889 6.941576 -4.337666
v -7.56715 6.941576 7.172085
v -4.782764 1.87496 13.78043
v -6.489048 0.0002040863 13.27631
v 14.76866 4.808229 -0.7141781
v 13.10221 4.655428 3.665482
v 11.58072 6.941576 2.468536
v 8.828988 4.988457 10.89156
v 11.31234 4.490873 11.90828
v 9.173119 3.035992 11.20239
v 11.31234 4.490873 11.90828
v 13.82965 3.423222 13.85226
v 10.35635 3.134596 12.46464
v 11.58072 6.941576 2.468536
v 10.06446 5.538935 7.371248
v 8.484859 6.941576 10.58074
v 2.90564 2.514898 17.814
v -4.782764 1.87496 13.78043
v 9.173119 3.035992 11.20239
v 4.056877 2.610237 20.10472
v 11.34369 3.216219 20.10472
v 10.35635 3.134596 12.46464
v 13.82965 3.423222 13.85226
v 15.07688 4.836309 19.47261
v 11.34369 3.216219 20.10472
v 12.11161 4.564663 18.09675
v 14.12415 4.748808 13.03209
v 13.82965 3.423222 13.85226
v 11.31234 4.490873 11.90828
v 5.714187 12.99879 -2.319901
v 3.953703 13.25476 -3.785883
v 5.578362 11.71761 -4.825455
v 7.963766 11.37021 -2.839033
v 14.12415 4.748808 13.03209
v 12.11161 4.564663 18.09675
v 11.34369 3.216219 20.10472
v -7.56715 6.941576 7.172085
v -4.244694 6.941576 12.92696
v -4.782764 1.87496 13.78043
v -4.782764 1.87496 13.78043
v 8.484859 6.941576 10.58074
v 8.828988 4.988457 10.89156
v 9.173119 3.035992 11.20239
v -4.244694 6.941576 12.92696
v 8.484859 6.941576 10.58074
v -4.782764 1.87496 13.78043
v 14.12415 4.748808 13.03209
v 11.34369 3.216219 20.10472
v 13.82965 3.423222 13.85226
v -1.537359 12.75261 6.726738
v -0.8014317 6.941576 8.177048
v -5.600971 6.941576 3.767351
v -1.537359 12.75261 6.726738
v -5.937265 13.39255 2.655947
v -4.544418 14.49089 1.735874
v -1.29771 14.01877 4.739666
v -1.647718 12.76894 -4.825455
v 5.578362 11.71761 -4.825455
v 3.953703 13.25476 -3.785883
v -1.379337 14.03053 -3.785883
v -4.544418 14.49089 1.735874
v -5.937265 13.39255 2.655947
v -1.647718 12.76894 -4.825455
v -1.379337 14.03053 -3.785883
v 12.86256 0.0002040863 -6.834731
v 14.76866 4.808229 -0.7141781
v 13.45809 6.941576 -2.451153
v 7.963766 11.37021 -2.839033
v 9.564265 6.941576 -2.186037
v 5.578362 11.71761 4.208776
v 11.34369 3.216219 20.10472
v 2.903028 0.0002040863 19.98
v 4.056877 2.610237 20.10472
v 15.07688 4.836309 19.47261
v 12.11161 4.564663 18.09675
v 14.12415 4.748808 13.03209
v 14.76866 4.808229 -0.7141781
v 18.87929 5.185009 7.537762
v 13.10221 4.655428 3.665482
v 11.31234 4.490873 11.90828
v 10.06446 5.538935 7.371248
v 8.828988 4.988457 10.89156
v 8.484859 6.941576 10.58074
v 15.07688 4.836309 19.47261
v 15.61364 0.0002040863 22.19105
v 11.34369 3.216219 20.10472
v 11.31234 4.490873 11.90828
v 8.828988 4.988457 10.89156
v 10.06446 5.538935 7.371248
v 13.45809 6.941576 -2.451153
v 14.76866 4.808229 -0.7141781
v 11.58072 6.941576 2.468536
v 6.56439 0.0002040863 -6.834731
v 6.962067 6.941576 -4.337666
v 5.578362 11.71761 -4.825455
v 11.31234 4.490873 11.90828
v 10.35635 3.134596 12.46464
v 9.173119 3.035992 11.20239
v 5.578362 11.71761 -4.825455
v 9.564265 6.941576 -2.186037
v 7.963766 11.37021 -2.839033
v 5.578362 11.71761 4.208776
v 6.962067 6.941576 5.449474
v -0.8014317 6.941576 8.177048
v 6.962067 6.941576 -4.337666
v 6.56439 0.0002040863 -6.834731
v 12.86256 0.0002040863 -6.834731
v 12.36889 6.941576 -4.337666
v -2.618727 0.0002040863 -6.834731
v -1.647718 12.76894 -4.825455
v -8.069305 0.0002040863 2.606319
v -5.937265 13.39255 2.655947
v -1.537359 12.75261 6.726738
v -5.600971 6.941576 3.767351
v -1.647718 12.76894 -4.825455
v -2.618727 0.0002040863 -6.834731
v 6.56439 0.0002040863 -6.834731
v 12.86256 0.0002040863 -6.834731
v 14.13134 0.0002040863 -4.636739
v 14.76866 4.808229 -0.7141781
v -5.600971 6.941576 3.767351
v -7.56715 6.941576 7.172085
v -10.35937 0.0002040863 6.572634
v -8.069305 0.0002040863 2.606319
v -8.069305 0.0002040863 2.606319
v -10.35937 0.0002040863 6.572634
v -6.489048 0.0002040863 13.27631
v -2.618727 0.0002040863 -6.834731
v 1.67931 0.0002040863 17.55149
v 6.56439 0.0002040863 -6.834731
v 2.903028 0.0002040863 19.98
v 10.64498 0.0002040863 19.98
v 12.86256 0.0002040863 -6.834731
v 15.61364 0.0002040863 22.19105
v 14.13134 0.0002040863 -4.636739
v 20.6032 0.0002040863 6.572634
v 11.34369 3.216219 20.10472
v 10.64498 0.0002040863 19.98
v 2.903028 0.0002040863 19.98
v 14.13134 0.0002040863 -4.636739
v 18.87929 5.185009 7.537762
v 14.76866 4.808229 -0.7141781
v 5.578362 11.71761 4.208776
v -1.537359 12.75261 6.726738
v -1.29771 14.01877 4.739666
v 3.953703 13.25476 2.881884
v -1.537359 12.75261 6.726738
v 5.578362 11.71761 4.208776
v -0.8014317 6.941576 8.177048
v -4.244694 6.941576 12.92696
v -7.56715 6.941576 7.172085
v -5.600971 6.941576 3.767351
v -0.8014317 6.941576 8.177048
v 8.484859 6.941576 10.58074
v 6.962067 6.941576 5.449474
v 9.564265 6.941576 -2.186037
v 11.58072 6.941576 2.468536
v 12.36889 6.941576 -4.337666
v 6.962067 6.941576 -4.337666
v 13.45809 6.941576 -2.451153
v -1.647718 12.76894 -4.825455
v -5.937265 13.39255 2.655947
v -8.069305 0.0002040863 2.606319
v 1.67931 0.0002040863 17.55149
v 2.90564 2.514898 17.814
v 2.903028 0.0002040863 19.98
v 5.578362 11.71761 -4.825455
v 6.962067 6.941576 -4.337666
v 9.564265 6.941576 -2.186037
v -1.29771 14.01877 4.739666
v -4.544418 14.49089 1.735874
v -1.379337 14.03053 -3.785883
v 3.953703 13.25476 -3.785883
v 3.953703 13.25476 2.881884
v 5.714187 12.99879 -2.319901
v -5.937265 13.39255 2.655947
v -5.600971 6.941576 3.767351
v -8.069305 0.0002040863 2.606319
v -1.647718 12.76894 -4.825455
v 6.56439 0.0002040863 -6.834731
v 5.578362 11.71761 -4.825455
v 5.578362 11.71761 4.208776
v 3.953703 13.25476 2.881884
v 5.714187 12.99879 -2.319901
v 7.963766 11.37021 -2.839033
v 20.6032 0.0002040863 6.572634
v 15.07688 4.836309 19.47261
v 18.87929 5.185009 7.537762
v 11.58072 6.941576 2.468536
v 13.10221 4.655428 3.665482
v 10.06446 5.538935 7.371248
v 2.90564 2.514898 17.814
v 4.056877 2.610237 20.10472
v 2.903028 0.0002040863 19.98
v 11.34369 3.216219 20.10472
v 15.61364 0.0002040863 22.19105
v 10.64498 0.0002040863 19.98
v -10.35937 0.0002040863 6.572634
v -7.56715 6.941576 7.172085
v -6.489048 0.0002040863 13.27631
v 13.10221 4.655428 3.665482
v 11.31234 4.490873 11.90828
v 10.06446 5.538935 7.371248
v 2.90564 2.514898 17.814
v 1.67931 0.0002040863 17.55149
v -6.489048 0.0002040863 13.27631
v 20.6032 0.0002040863 6.572634
v 15.61364 0.0002040863 22.19105
v 15.07688 4.836309 19.47261
v 14.13134 0.0002040863 -4.636739
v 20.6032 0.0002040863 6.572634
v 18.87929 5.185009 7.537762
v 9.564265 6.941576 -2.186037
v 6.962067 6.941576 5.449474
v 5.578362 11.71761 4.208776
vn -0.4666631 0.1921555 0.8633087
vn -0.4666631 0.1921555 0.8633087
vn -0.4666631 0.1921555 0.8633087
vn 0.8431308 0.2313708 -0.4853843
vn 0.8431308 0.2313708 -0.4853843
vn 0.8431308 0.2313708 -0.4853843
vn -0.7647001 0.3098016 0.5650282
vn -0.7647001 0.3098016 0.5650282
vn -0.6627401 0.4352908 0.6093418
vn 0.7176416 0.6313678 0.2938796
vn 0.7176416 0.6313678 0.2938796
vn 0.7176416 0.6313678 0.2938796
vn -0.3647032 0.0823524 0.9274749
vn -0.3647032 0.0823524 0.9274749
vn -0.3647032 0.0823524 0.9274749
vn -0.349017 0.552937 0.7566028
vn -0.349017 0.552937 0.7566028
vn -0.349017 0.552937 0.7566028
vn 0.9058754 0.2313708 0.3547636
vn 0.9058754 0.2313708 0.3547636
vn 0.9058754 0.2313708 0.3547636
vn -0.0823524 0.9999924 0
vn -0.0823524 0.9999924 0
vn -0.0823524 0.9999924 0
vn -0.0823524 0.9999924 0
vn -0.0823524 0.9999924 0
vn -0.0823524 0.9999924 0
vn -0.0823524 0.9999924 0
vn -0.2862724 0.8431308 0.4551686
vn -0.2862724 0.8431308 0.4551686
vn -0.2862724 0.8431308 0.4551686
vn -0.35686 0.5450939 0.7586327
vn -0.35686 0.5450939 0.7586327
vn -0.35686 0.5450939 0.7586327
vn 0.4666631 0.7803862 -0.4162006
vn 0.4666631 0.7803862 -0.4162006
vn 0.4666631 0.7803862 -0.4162006
vn 0.4666631 0.7803862 -0.4162006
vn -0.9294047 -0.01960766 -0.3685409
vn -0.9294047 -0.01960766 -0.3685409
vn -0.9294047 -0.01960766 -0.3685409
vn -0.7647001 0.3098016 0.5650282
vn -0.850974 0.1764693 0.4946735
vn -0.7647001 0.3098016 0.5650282
vn 0.1607831 0.1843123 0.9696277
vn 0.1607831 0.1843123 0.9696277
vn 0.1607831 0.1843123 0.9696277
vn 0.1607831 0.1843123 0.9696277
vn 0.1764692 0.145097 0.973553
vn 0.1764692 0.145097 0.973553
vn 0.1764692 0.145097 0.973553
vn -0.9294047 -0.01960766 -0.3685409
vn -0.9294047 -0.01960766 -0.3685409
vn -0.9294047 -0.01960766 -0.3685409
vn -0.6705831 0.09803855 0.7353276
vn -0.6705831 0.09803855 0.7353276
vn -0.6705831 0.09803855 0.7353276
vn -0.3254877 0.8117585 0.4848772
vn -0.3254877 0.8117585 0.4848772
vn -0.3254877 0.8117585 0.4848772
vn -0.3254877 0.8117585 0.4848772
vn 0.09019536 0.6235247 -0.7765834
vn 0.09019536 0.6235247 -0.7765834
vn 0.09019536 0.6235247 -0.7765834
vn 0.09019536 0.6235247 -0.7765834
vn -0.7176416 0.5294077 -0.4524577
vn -0.7176416 0.5294077 -0.4524577
vn -0.7176416 0.5294077 -0.4524577
vn -0.7176416 0.5294077 -0.4524577
vn 0.858817 0.2392139 -0.4530012
vn 0.858817 0.2392139 -0.4530012
vn 0.8823462 0.1921555 -0.4295829
vn 0.8901893 0.3647032 0.2730469
vn 0.8901893 0.3647032 0.2730469
vn 0.8901893 0.3647032 0.2730469
vn 0.003921509 -0.04313689 0.9990615
vn 0.003921509 -0.04313689 0.9990615
vn 0.003921509 -0.05097997 0.998692
vn -0.09019542 0.9921494 -0.0866283
vn -0.09019542 0.9921494 -0.0866283
vn -0.09019542 0.9921494 -0.0866283
vn -0.09019542 0.9921494 -0.0866283
vn -0.09019542 0.9921494 -0.0866283
vn -0.09019542 0.9921494 -0.0866283
vn -0.09019542 0.9921494 -0.0866283
vn 0.9137185 0.2156847 0.3443815
vn 0.9137185 0.2156847 0.3443815
vn 0.9137185 0.2156847 0.3443815
vn -0.05882311 0.4823493 0.8740017
vn -0.05882311 0.4823493 0.8740017
vn -0.05882311 0.4823493 0.8740017
vn 0.1137246 0.9764632 0.1832659
vn 0.1137246 0.9764632 0.1832659
vn 0.1137246 0.9764632 0.1832659
vn 0.7097985 0.654897 0.2594149
vn 0.7097985 0.654897 0.2594149
vn 0.7097985 0.654897 0.2594149
vn 0.7882293 0.1686262 -0.5918275
vn 0.7882293 0.1686262 -0.5918275
vn 0.7882293 0.1686262 -0.5918275
vn -0.5921524 0.6235247 0.5104631
vn -0.5921524 0.6235247 0.5104631
vn -0.5921524 0.6235247 0.5104631
vn 0.6470538 0.1215677 -0.7526903
vn 0.6470538 0.1215677 -0.7526903
vn 0.6470538 0.1215677 -0.7526903
vn 0.3176446 0.3254877 0.8905951
vn 0.3176446 0.3254877 0.8905951
vn 0.3176446 0.3254877 0.8905951
vn -0.003921628 0.3411739 -0.939992
vn -0.003921628 0.3411739 -0.939992
vn -0.003921628 0.3411739 -0.939992
vn -0.003921628 0.3411739 -0.939992
vn -0.858817 0.145097 -0.4913046
vn -0.858817 0.145097 -0.4913046
vn -0.858817 0.145097 -0.4913046
vn -0.6705831 0.09019542 0.7363308
vn -0.6705831 0.09019542 0.7363308
vn -0.6705831 0.09019542 0.7363308
vn -0.003921628 0.15294 -0.9882277
vn -0.003921628 0.15294 -0.9882277
vn -0.003921628 0.15294 -0.9882277
vn 0.858817 0.2392139 -0.4530012
vn 0.8274447 0.2784293 -0.4876602
vn 0.858817 0.2392139 -0.4530012
vn -0.8039155 0.3647032 -0.4697994
vn -0.8039155 0.3647032 -0.4697994
vn -0.8039155 0.3647032 -0.4697994
vn -0.8039155 0.3647032 -0.4697994
vn -0.003921628 -0.9999924 0
vn -0.003921628 -0.9999924 0
vn -0.003921628 -0.9999924 0
vn -0.003921628 -0.9999924 0
vn -0.003921628 -0.9999924 0
vn -0.003921628 -0.9999924 0
vn -0.003921628 -0.9999924 0
vn -0.003921628 -0.9999924 0
vn -0.003921628 -0.9999924 0
vn -0.003921628 -0.9999924 0
vn -0.003921628 -0.9999924 0
vn -0.003921628 -0.9999924 0
vn 0.003921509 -0.04313689 0.9990615
vn -0.003921628 -0.03529382 0.9993693
vn 0.003921509 -0.04313689 0.9990615
vn 0.8352877 0.3019586 -0.459473
vn 0.8352877 0.3019586 -0.459473
vn 0.8666601 0.247057 -0.4334319
vn 0.3019584 0.7882293 0.5362048
vn 0.3019584 0.7882293 0.5362048
vn 0.3019584 0.7882293 0.5362048
vn 0.3019584 0.7882293 0.5362048
vn 0.35686 0.2705863 0.8941107
vn 0.35686 0.2705863 0.8941107
vn 0.35686 0.2705863 0.8941107
vn -0.003921628 0.9999924 0
vn -0.003921628 0.9999924 0
vn -0.003921628 0.9999924 0
vn -0.003921628 0.9999924 0
vn -0.003921628 0.9999924 0
vn -0.003921628 0.9999924 0
vn -0.003921628 0.9999924 0
vn -0.003921628 0.9999924 0
vn -0.003921628 0.9999924 0
vn -0.003921628 0.9999924 0
vn -0.003921628 0.9999924 0
vn -0.850974 0.1372539 -0.5069563
vn -0.850974 0.1372539 -0.5069563
vn -0.850974 0.1372539 -0.5069563
vn -0.8352878 0.3647032 0.4114436
vn -0.8352878 0.3647032 0.4114436
vn -0.8352878 0.3647032 0.4114436
vn 0.6313677 0.1058816 -0.7682213
vn 0.6313677 0.1058816 -0.7682213
vn 0.6313677 0.1058816 -0.7682213
vn 0.1450969 0.9921494 0
vn 0.1450969 0.9921494 0
vn 0.1450969 0.9921494 0
vn 0.1450969 0.9921494 0
vn 0.1450969 0.9921494 0
vn 0.1450969 0.9921494 0
vn -0.6392108 0.09803855 0.7627568
vn -0.6392108 0.09803855 0.7627568
vn -0.6392108 0.09803855 0.7627568
vn 0.02745074 0.1686262 -0.9852977
vn 0.02745074 0.1686262 -0.9852977
vn 0.02745074 0.1686262 -0.9852977
vn 0.5999954 0.7803862 0.1760765
vn 0.5999954 0.7803862 0.1760765
vn 0.5999954 0.7803862 0.1760765
vn 0.5999954 0.7803862 0.1760765
vn 0.9215616 0.247057 0.299478
vn 0.9215616 0.247057 0.299478
vn 0.9215616 0.247057 0.299478
vn 0.66274 0.6392108 0.3901092
vn 0.66274 0.6392108 0.3901092
vn 0.66274 0.6392108 0.3901092
vn -0.8431308 0.349017 0.4090446
vn -0.8431308 0.349017 0.4090446
vn -0.8431308 0.349017 0.4090446
vn -0.4039185 0.05098009 0.9133734
vn -0.4039185 0.05098009 0.9133734
vn -0.4039185 0.05098009 0.9133734
vn -0.8274447 0.2941154 0.4783633
vn -0.8274447 0.2941154 0.4783633
vn -0.8274447 0.2941154 0.4783633
vn 0.3882323 0.9137186 0.1199752
vn 0.3882323 0.9137186 0.1199752
vn 0.3882323 0.9137186 0.1199752
vn -0.4588201 0.1294109 0.8790546
vn -0.4588201 0.1294109 0.8790546
vn -0.4588201 0.1294109 0.8790546
vn 0.9215616 0.2705863 0.2784013
vn 0.9215616 0.2705863 0.2784013
vn 0.9215616 0.2705863 0.2784013
vn 0.8352877 0.3019586 -0.459473
vn 0.8117585 0.35686 -0.4622759
vn 0.8352877 0.3019586 -0.459473
vn 0.8901893 0.3333309 0.3105698
vn 0.8901893 0.3333309 0.3105698
vn 0.8901893 0.3333309 0.3105698
g Rock_Chunk_07_0
f 3/3/3 2/2/2 1/1/1
f 6/6/6 5/5/5 4/4/4
f 9/9/9 8/8/8 7/7/7
f 12/12/12 11/11/11 10/10/10
f 15/15/15 14/14/14 13/13/13
f 18/18/18 17/17/17 16/16/16
f 21/21/21 20/20/20 19/19/19
f 24/24/24 23/23/23 22/22/22
f 22/22/22 25/25/25 24/24/24
f 25/25/25 26/26/26 24/24/24
f 26/26/26 27/27/27 24/24/24
f 26/26/26 28/28/28 27/27/27
f 31/31/31 30/30/30 29/29/29
f 34/34/34 33/33/33 32/32/32
f 37/37/37 36/36/36 35/35/35
f 35/35/35 38/38/38 37/37/37
f 41/41/41 40/40/40 39/39/39
f 44/44/44 43/43/43 42/42/42
f 47/47/47 46/46/46 45/45/45
f 45/45/45 48/48/48 47/47/47
f 51/51/51 50/50/50 49/49/49
f 54/54/54 53/53/53 52/52/52
f 57/57/57 56/56/56 55/55/55
f 60/60/60 59/59/59 58/58/58
f 58/58/58 61/61/61 60/60/60
f 64/64/64 63/63/63 62/62/62
f 62/62/62 65/65/65 64/64/64
f 68/68/68 67/67/67 66/66/66
f 66/66/66 69/69/69 68/68/68
f 72/72/72 71/71/71 70/70/70
f 75/75/75 74/74/74 73/73/73
f 78/78/78 77/77/77 76/76/76
f 81/81/81 80/80/80 79/79/79
f 79/79/79 82/82/82 81/81/81
f 79/79/79 83/83/83 82/82/82
f 81/81/81 82/82/82 84/84/84
f 84/84/84 85/85/85 81/81/81
f 88/88/88 87/87/87 86/86/86
f 91/91/91 90/90/90 89/89/89
f 94/94/94 93/93/93 92/92/92
f 97/97/97 96/96/96 95/95/95
f 100/100/100 99/99/99 98/98/98
f 103/103/103 102/102/102 101/101/101
f 106/106/106 105/105/105 104/104/104
f 109/109/109 108/108/108 107/107/107
f 112/112/112 111/111/111 110/110/110
f 110/110/110 113/113/113 112/112/112
f 116/116/116 115/115/115 114/114/114
f 119/119/119 118/118/118 117/117/117
f 122/122/122 121/121/121 120/120/120
f 125/125/125 124/124/124 123/123/123
f 128/128/128 127/127/127 126/126/126
f 126/126/126 129/129/129 128/128/128
f 132/132/132 131/131/131 130/130/130
f 130/130/130 133/133/133 132/132/132
f 133/133/133 134/134/134 132/132/132
f 133/133/133 135/135/135 134/134/134
f 135/135/135 136/136/136 134/134/134
f 135/135/135 137/137/137 136/136/136
f 135/135/135 138/138/138 137/137/137
f 138/138/138 139/139/139 137/137/137
f 138/138/138 140/140/140 139/139/139
f 140/140/140 141/141/141 139/139/139
f 144/144/144 143/143/143 142/142/142
f 147/147/147 146/146/146 145/145/145
f 150/150/150 149/149/149 148/148/148
f 148/148/148 151/151/151 150/150/150
f 154/154/154 153/153/153 152/152/152
f 157/157/157 156/156/156 155/155/155
f 155/155/155 158/158/158 157/157/157
f 155/155/155 159/159/159 158/158/158
f 159/159/159 160/160/160 158/158/158
f 159/159/159 161/161/161 160/160/160
f 159/159/159 162/162/162 161/161/161
f 161/161/161 162/162/162 163/163/163
f 163/163/163 164/164/164 161/161/161
f 162/162/162 165/165/165 163/163/163
f 168/168/168 167/167/167 166/166/166
f 171/171/171 170/170/170 169/169/169
f 174/174/174 173/173/173 172/172/172
f 177/177/177 176/176/176 175/175/175
f 175/175/175 178/178/178 177/177/177
f 175/175/175 179/179/179 178/178/178
f 179/179/179 180/180/180 178/178/178
f 183/183/183 182/182/182 181/181/181
f 186/186/186 185/185/185 184/184/184
f 189/189/189 188/188/188 187/187/187
f 187/187/187 190/190/190 189/189/189
f 193/193/193 192/192/192 191/191/191
f 196/196/196 195/195/195 194/194/194
f 199/199/199 198/198/198 197/197/197
f 202/202/202 201/201/201 200/200/200
f 205/205/205 204/204/204 203/203/203
f 208/208/208 207/207/207 206/206/206
f 211/211/211 210/210/210 209/209/209
f 214/214/214 213/213/213 212/212/212
f 217/217/217 216/216/216 215/215/215
f 220/220/220 219/219/219 218/218/218
