g Rock_Medium_Flat_Dirt_03
v -8.440933 2.639115 6.362505
v -8.990568 2.639115 -0.5464716
v -3.226038 2.639115 -6.143208
v -3.226038 2.639115 6.362505
v 2.259195 2.639115 6.935444
v 2.259195 2.639115 -6.143208
v 11.16019 2.639115 4.589907
v 8.557943 2.639115 -5.285592
v 2.454238 0.8632889 8.414761
v -2.986894 -6.29425E-05 6.1628
v -3.941673 0.8632889 6.959826
v 9.798834 0.8632889 -5.835585
v 2.454238 0.8632889 -7.622525
v 8.143118 -6.29425E-05 -5.101663
v -2.986894 -6.29425E-05 -5.648787
v -8.431253 -6.29425E-05 -0.3625422
v -7.912094 -6.29425E-05 6.1628
v -2.986894 -6.29425E-05 6.1628
v 2.193941 -6.29425E-05 -5.648787
v 2.193941 -6.29425E-05 6.441023
v 8.143118 -6.29425E-05 -5.101663
v 10.60088 -6.29425E-05 4.225634
v -3.941673 0.8632889 6.959826
v -2.986894 -6.29425E-05 6.1628
v -7.912094 -6.29425E-05 6.1628
v -10.02243 0.8632889 6.959826
v -10.66349 1.55598 -1.096464
v -10.02243 1.55598 6.959826
v -10.02243 0.8632889 6.959826
v -10.66349 0.8632889 -1.096464
v 8.557943 2.639115 -5.285592
v 2.259195 2.639115 -6.143208
v 2.454238 1.55598 -7.622525
v 8.557943 2.639115 -5.285592
v 2.454238 1.55598 -7.622525
v 9.798834 1.55598 -5.835585
v 10.60088 -6.29425E-05 4.225634
v 2.193941 -6.29425E-05 6.441023
v 2.454238 0.8632889 8.414761
v 12.83312 0.8632889 5.679853
v -3.226038 2.639115 6.362505
v -3.941673 1.55598 6.959826
v -10.02243 1.55598 6.959826
v -8.440933 2.639115 6.362505
v -8.431253 -6.29425E-05 -0.3625422
v -10.66349 0.8632889 -1.096464
v -10.02243 0.8632889 6.959826
v -7.912094 -6.29425E-05 6.1628
v 9.798834 0.8632889 -5.835585
v 8.143118 -6.29425E-05 -5.101663
v 10.60088 -6.29425E-05 4.225634
v 12.83312 0.8632889 5.679853
v 12.83312 1.55598 5.679853
v 12.83312 0.8632889 5.679853
v 2.454238 0.8632889 8.414761
v 2.454238 1.55598 8.414761
v -3.226038 2.639115 6.362505
v 2.454238 1.55598 8.414761
v -3.941673 1.55598 6.959826
v -10.66349 1.55598 -1.096464
v -10.66349 0.8632889 -1.096464
v -3.941673 0.8632889 -7.622525
v -3.941673 1.55598 -7.622525
v 2.454238 1.55598 8.414761
v 2.259195 2.639115 6.935444
v 11.16019 2.639115 4.589907
v 12.83312 1.55598 5.679853
v 2.454238 1.55598 8.414761
v -3.226038 2.639115 6.362505
v 2.259195 2.639115 6.935444
v -3.941673 0.8632889 -7.622525
v -10.66349 0.8632889 -1.096464
v -8.431253 -6.29425E-05 -0.3625422
v -2.986894 -6.29425E-05 -5.648787
v 2.454238 1.55598 -7.622525
v 2.454238 0.8632889 -7.622525
v 9.798834 0.8632889 -5.835585
v 9.798834 1.55598 -5.835585
v 2.454238 0.8632889 -7.622525
v -3.941673 0.8632889 -7.622525
v -2.986894 -6.29425E-05 -5.648787
v 2.193941 -6.29425E-05 -5.648787
v -10.02243 1.55598 6.959826
v -10.66349 1.55598 -1.096464
v -8.990568 2.639115 -0.5464716
v -8.440933 2.639115 6.362505
v -3.941673 1.55598 6.959826
v -3.941673 0.8632889 6.959826
v -10.02243 0.8632889 6.959826
v -10.02243 1.55598 6.959826
v 8.143118 -6.29425E-05 -5.101663
v 2.454238 0.8632889 -7.622525
v 2.193941 -6.29425E-05 -5.648787
v -3.941673 1.55598 -7.622525
v -3.941673 0.8632889 -7.622525
v 2.454238 0.8632889 -7.622525
v 2.454238 1.55598 -7.622525
v 11.16019 2.639115 4.589907
v 8.557943 2.639115 -5.285592
v 9.798834 1.55598 -5.835585
v 12.83312 1.55598 5.679853
v 2.454238 0.8632889 8.414761
v 2.193941 -6.29425E-05 6.441023
v -2.986894 -6.29425E-05 6.1628
v -8.990568 2.639115 -0.5464716
v -10.66349 1.55598 -1.096464
v -3.941673 1.55598 -7.622525
v -3.226038 2.639115 -6.143208
v 9.798834 0.8632889 -5.835585
v 12.83312 0.8632889 5.679853
v 12.83312 1.55598 5.679853
v 9.798834 1.55598 -5.835585
v 2.454238 1.55598 8.414761
v 2.454238 0.8632889 8.414761
v -3.941673 0.8632889 6.959826
v -3.941673 1.55598 6.959826
v -3.226038 2.639115 -6.143208
v -3.941673 1.55598 -7.622525
v 2.454238 1.55598 -7.622525
v 2.259195 2.639115 -6.143208
vn -0.003921628 0.9999924 0
vn -0.003921628 0.9999924 0
vn -0.003921628 0.9999924 0
vn -0.003921628 0.9999924 0
vn -0.003921628 0.9999924 0
vn -0.003921628 0.9999924 0
vn -0.003921628 0.9999924 0
vn -0.003921628 0.9999924 0
vn -0.01960778 -0.8745031 0.4846234
vn -0.05882311 -0.7960724 0.602336
vn -0.07450926 -0.7176416 0.6924152
vn 0.1450969 -0.7882293 -0.5980313
vn 0.05882305 -0.8823462 -0.4669101
vn 0.09019536 -0.858817 -0.5042799
vn -0.003921628 -0.9999924 0
vn -0.003921628 -0.9999924 0
vn -0.003921628 -0.9999924 0
vn -0.003921628 -0.9999924 0
vn -0.003921628 -0.9999924 0
vn -0.003921628 -0.9999924 0
vn -0.003921628 -0.9999924 0
vn -0.003921628 -0.9999924 0
vn -0.07450926 -0.7176416 0.6924152
vn -0.05882311 -0.7960724 0.602336
vn -0.003921628 -0.6784261 0.7346581
vn -0.003921628 -0.6784261 0.7346581
vn -0.9999924 0.003921628 0
vn -0.9999924 0.003921628 0
vn -0.9999924 0.003921628 0
vn -0.9999924 0.003921628 0
vn 0.1372538 0.7176416 -0.6827532
vn 0.04313689 0.8117585 -0.5823979
vn 0.09019536 0.7490139 -0.6563863
vn 0.1372538 0.7176416 -0.6827532
vn 0.09019536 0.7490139 -0.6563863
vn 0.1843123 0.6078385 -0.7723738
vn 0.1058815 -0.9137185 0.3923105
vn 0.04313689 -0.9137185 0.4040515
vn -0.01960778 -0.8745031 0.4846234
vn 0.1058815 -0.9137185 0.3923105
vn -0.0823524 0.6313678 0.7710984
vn -0.09019542 0.5294077 0.8435593
vn -0.003921628 0.4823493 0.8759702
vn -0.003921628 0.4823493 0.8759702
vn -0.3254877 -0.9372478 -0.1249976
vn -0.3254877 -0.9372478 -0.1249976
vn -0.3725462 -0.9294047 0
vn -0.3725462 -0.9294047 0
vn 0.4196046 -0.8980324 -0.1321737
vn 0.4196046 -0.8980324 -0.1321737
vn 0.4196046 -0.8980324 -0.1321737
vn 0.4196046 -0.8980324 -0.1321737
vn 0.2549 0.003921628 0.9669595
vn 0.2549 0.003921628 0.9669595
vn 0.2549 0.003921628 0.9669595
vn 0.2549 0.003921628 0.9669595
vn -0.0823524 0.6313678 0.7710984
vn -0.03529394 0.7411709 0.670388
vn -0.09019542 0.5294077 0.8435593
vn -0.6941124 0.003921628 -0.7198559
vn -0.6941124 0.003921628 -0.7198559
vn -0.6941124 0.003921628 -0.7198559
vn -0.6941124 0.003921628 -0.7198559
vn -0.03529394 0.7411709 0.670388
vn 0.04313689 0.8117585 0.5823979
vn 0.15294 0.8039155 0.5747427
vn 0.15294 0.8039155 0.5747427
vn -0.03529394 0.7411709 0.670388
vn -0.0823524 0.6313678 0.7710984
vn 0.04313689 0.8117585 0.5823979
vn -0.1372539 -0.9294047 -0.3425905
vn -0.3254877 -0.9372478 -0.1249976
vn -0.3254877 -0.9372478 -0.1249976
vn -0.1372539 -0.9294047 -0.3425905
vn 0.1215677 0.003921628 -0.9925754
vn 0.1215677 0.003921628 -0.9925754
vn 0.2392138 0.003921628 -0.970959
vn 0.2392138 0.003921628 -0.970959
vn 0.05882305 -0.8823462 -0.4669101
vn -0.1372539 -0.9294047 -0.3425905
vn -0.1372539 -0.9294047 -0.3425905
vn 0.01960766 -0.9137185 -0.4058744
vn -0.552937 0.8352878 0
vn -0.552937 0.8352878 0
vn -0.552937 0.8352878 0
vn -0.552937 0.8352878 0
vn -0.1137247 0.003921628 0.9935046
vn -0.1137247 0.003921628 0.9935046
vn -0.003921628 0.003921628 0.9999846
vn -0.003921628 0.003921628 0.9999846
vn 0.09019536 -0.858817 -0.5042799
vn 0.05882305 -0.8823462 -0.4669101
vn 0.01960766 -0.9137185 -0.4058744
vn -0.003921628 0.003921628 -0.9999846
vn -0.003921628 0.003921628 -0.9999846
vn 0.1215677 0.003921628 -0.9925754
vn 0.1215677 0.003921628 -0.9925754
vn 0.6078385 0.7803862 -0.1467301
vn 0.6078385 0.7803862 -0.1467301
vn 0.6078385 0.7803862 -0.1467301
vn 0.6078385 0.7803862 -0.1467301
vn -0.01960778 -0.8745031 0.4846234
vn 0.04313689 -0.9137185 0.4040515
vn -0.05882311 -0.7960724 0.602336
vn -0.3960755 0.8196017 -0.4139775
vn -0.3960755 0.8196017 -0.4139775
vn -0.3960755 0.8196017 -0.4139775
vn -0.3960755 0.8196017 -0.4139775
vn 0.9686201 0.003921628 -0.2485151
vn 0.9686201 0.003921628 -0.2485151
vn 0.9686201 0.003921628 -0.2485151
vn 0.9686201 0.003921628 -0.2485151
vn -0.2235278 0.003921628 0.9746897
vn -0.2235278 0.003921628 0.9746897
vn -0.1137247 0.003921628 0.9935046
vn -0.1137247 0.003921628 0.9935046
vn -0.003921628 0.8039155 -0.5947306
vn -0.003921628 0.8039155 -0.5947306
vn 0.09019536 0.7490139 -0.6563863
vn 0.04313689 0.8117585 -0.5823979
g Rock_Medium_Flat_Dirt_03_0
f 3/3/3 2/2/2 1/1/1
f 1/1/1 4/4/4 3/3/3
f 4/4/4 5/5/5 3/3/3
f 5/5/5 6/6/6 3/3/3
f 5/5/5 7/7/7 6/6/6
f 7/7/7 8/8/8 6/6/6
f 11/11/11 10/10/10 9/9/9
f 14/14/14 13/13/13 12/12/12
f 17/17/17 16/16/16 15/15/15
f 15/15/15 18/18/18 17/17/17
f 15/15/15 19/19/19 18/18/18
f 19/19/19 20/20/20 18/18/18
f 19/19/19 21/21/21 20/20/20
f 21/21/21 22/22/22 20/20/20
f 25/25/25 24/24/24 23/23/23
f 23/23/23 26/26/26 25/25/25
f 29/29/29 28/28/28 27/27/27
f 27/27/27 30/30/30 29/29/29
f 33/33/33 32/32/32 31/31/31
f 36/36/36 35/35/35 34/34/34
f 39/39/39 38/38/38 37/37/37
f 37/37/37 40/40/40 39/39/39
f 43/43/43 42/42/42 41/41/41
f 41/41/41 44/44/44 43/43/43
f 47/47/47 46/46/46 45/45/45
f 45/45/45 48/48/48 47/47/47
f 51/51/51 50/50/50 49/49/49
f 49/49/49 52/52/52 51/51/51
f 55/55/55 54/54/54 53/53/53
f 53/53/53 56/56/56 55/55/55
f 59/59/59 58/58/58 57/57/57
f 62/62/62 61/61/61 60/60/60
f 60/60/60 63/63/63 62/62/62
f 66/66/66 65/65/65 64/64/64
f 64/64/64 67/67/67 66/66/66
f 70/70/70 69/69/69 68/68/68
f 73/73/73 72/72/72 71/71/71
f 71/71/71 74/74/74 73/73/73
f 77/77/77 76/76/76 75/75/75
f 75/75/75 78/78/78 77/77/77
f 81/81/81 80/80/80 79/79/79
f 79/79/79 82/82/82 81/81/81
f 85/85/85 84/84/84 83/83/83
f 83/83/83 86/86/86 85/85/85
f 89/89/89 88/88/88 87/87/87
f 87/87/87 90/90/90 89/89/89
f 93/93/93 92/92/92 91/91/91
f 96/96/96 95/95/95 94/94/94
f 94/94/94 97/97/97 96/96/96
f 100/100/100 99/99/99 98/98/98
f 98/98/98 101/101/101 100/100/100
f 104/104/104 103/103/103 102/102/102
f 107/107/107 106/106/106 105/105/105
f 105/105/105 108/108/108 107/107/107
f 111/111/111 110/110/110 109/109/109
f 109/109/109 112/112/112 111/111/111
f 115/115/115 114/114/114 113/113/113
f 113/113/113 116/116/116 115/115/115
f 119/119/119 118/118/118 117/117/117
f 117/117/117 120/120/120 119/119/119
