g Rock_Wall_06
v -3.464954 1.298281 0.6014783
v -3.05561 0.9806349 0.6014783
v -3.464954 0.4111624 0.6014783
v -2.076795 -1.129862 0.001478672
v -2.303312 -1.129862 2.700286
v -0.9389851 -0.3979917 2.129679
v -3.05561 0.9806349 2.700286
v -1.880805 1.308155 2.700286
v -1.427088 -0.2416081 2.700286
v -0.6877277 0.8552325 1.999964
v -0.8215272 -0.591712 1.999964
v -1.118974 -0.8388844 1.999964
v -0.9348996 1.152679 1.999964
v 1.056664 0.9686048 1.999964
v 0.759217 0.7214329 1.999964
v 0.671833 0.5835476 4.02546
v -0.8215272 -0.591712 3.860225
v -0.5756037 0.8449056 3.779083
v 1.968863 -0.2000723 3.33786E-06
v 1.968863 -1.710683 2.275508
v 1.975105 -1.824849 3.33786E-06
v 1.968863 -0.2000723 2.653416
v 1.975105 -1.824849 3.33786E-06
v 3.312876 -1.797499 1.464992
v 3.312876 -1.95445 3.33786E-06
v 3.312876 -1.797499 1.464992
v 3.312876 -0.2000723 3.33786E-06
v 3.312876 -1.95445 3.33786E-06
v 3.312876 -0.2000723 2.288673
v 3.312876 -0.2000723 2.288673
v 1.968863 -0.2000723 3.33786E-06
v 3.312876 -0.2000723 3.33786E-06
v 1.968863 -0.2000723 2.653416
v -3.464954 -0.3979917 0.001478672
v -3.464954 -0.3979917 0.6014783
v -2.076795 -1.129862 0.001478672
v -2.303312 -1.129862 2.700286
v -3.464954 -0.3979917 0.001478672
v -3.464954 0.4111624 0.6014783
v -3.464954 -0.3979917 0.6014783
v -3.464954 -0.3979917 2.700286
v -3.464954 1.298281 0.001478672
v -3.464954 1.298281 0.6014783
v -0.8215272 -0.591712 1.999964
v -0.6877277 0.8552325 1.999964
v -0.5756037 0.8449056 3.779083
v 2.627989 1.104902 3.33786E-06
v 2.627989 -0.9751806 3.33786E-06
v 2.627989 -0.9751806 3.149236
v 2.627989 1.104902 3.455421
v -2.727182 0.4500885 3.477891
v -2.727182 0.4500885 2.677929
v -1.92722 0.4500885 2.677929
v -1.92722 0.4500885 3.477891
v -1.791491 1.552376 0.001478672
v -3.05561 0.9806349 0.6014783
v -3.464954 1.298281 0.6014783
v -0.7850983 -0.2961948 0.0006842613
v -0.9389851 -0.3979917 2.129679
v -1.326426 1.074941 2.229547
v -0.6312118 1.275811 3.316741
v -0.7830555 1.214189 3.33786E-06
v -0.7850983 -0.2961948 0.0006842613
v -0.6312118 -0.1942844 3.316741
v -1.791491 1.552376 0.001478672
v -1.326426 1.074941 2.229547
v -1.880805 1.308155 2.700286
v -1.326426 1.074941 2.229547
v -1.791491 1.552376 0.001478672
v -1.415172 1.313716 0.0006842613
v -1.427088 -0.2416081 2.700286
v -0.9389851 -0.3979917 2.129679
v -2.303312 -1.129862 2.700286
v -2.076795 -1.129862 0.001478672
v -0.9389851 -0.3979917 2.129679
v -0.7850983 -0.2961948 0.0006842613
v -1.431174 -0.1942844 3.316741
v -1.431174 -0.1942844 3.33786E-06
v -1.415172 1.313716 0.0006842613
v -1.431174 1.275811 3.316741
v -1.431174 1.275811 3.316741
v -1.415172 1.313716 0.0006842613
v -0.7830555 1.214189 3.33786E-06
v -0.6312118 -0.1942844 3.316741
v -1.431174 -0.1942844 3.316741
v -1.431174 1.275811 3.316741
v -0.6312118 1.275811 3.316741
v -1.880805 1.308155 2.700286
v -3.05561 0.9806349 2.700286
v -3.05561 0.9806349 0.6014783
v -3.464954 0.4111624 0.6014783
v -3.05561 0.9806349 2.700286
v -3.464954 -0.3979917 2.700286
v -1.118974 -0.8388844 1.999964
v -1.118974 -0.8388844 3.33786E-06
v -0.7830555 1.214189 3.33786E-06
v -0.8215272 -0.591712 1.999964
v 0.7032685 -0.8300323 1.910424
v -1.118974 -0.8388844 1.999964
v 1.056664 0.9686048 1.999964
v 0.759217 0.7214329 1.999964
v -3.464954 -0.3979917 2.700286
v -3.05561 0.9806349 2.700286
v -1.427088 -0.2416081 2.700286
v -0.8215272 -0.591712 3.860225
v 0.6254172 -0.7255118 3.401742
v -0.8215272 -0.591712 1.999964
v 0.7032685 -0.8300323 1.910424
v -0.8215272 -0.591712 1.999964
v 0.6254172 -0.7255118 3.401742
v 0.6254172 -0.7255118 3.401742
v 0.759217 0.7214329 1.999964
v 0.7032685 -0.8300323 1.910424
v 0.759217 0.7214329 1.999964
v 0.6254172 -0.7255118 3.401742
v 0.671833 0.5835476 4.02546
v 2.627989 1.104902 3.455421
v 0.9078834 1.104902 3.756158
v 0.9822168 1.036697 3.33786E-06
v 1.985659 1.104902 4.064954
v 2.627989 1.104902 3.33786E-06
v -1.118974 -0.8388844 3.33786E-06
v -1.118974 -0.8388844 1.999964
v 0.7032685 -0.8300323 1.910424
v 0.9061813 -0.8266277 3.33786E-06
v 0.9078834 -0.9751806 3.3307
v 2.627989 -0.9751806 3.149236
v -0.5756037 0.8449056 3.779083
v -0.6877277 0.8552325 1.999964
v 0.759217 0.7214329 1.999964
v 1.968863 -1.710683 2.275508
v 3.312876 -1.797499 1.464992
v 1.975105 -1.824849 3.33786E-06
v -2.727182 -0.349987 3.477891
v -2.727182 0.4500885 3.477891
v -1.92722 0.4500885 3.477891
v -1.92722 -0.349987 3.477891
v 1.968863 -1.710683 2.275508
v 3.312876 -0.2000723 2.288673
v 3.312876 -1.797499 1.464992
v 1.98146 -1.695248 0.6000032
v 0.03143239 -1.250951 0.6000032
v 0.4757295 0.6990759 0.6000032
v 2.425757 0.2547791 0.6000032
v -1.690148 -0.1890643 4.12442
v -2.362098 -0.02099156 4.12442
v -2.362098 0.818917 4.12442
v -1.690148 0.9869897 4.12442
v -1.018085 0.818917 4.12442
v -1.018085 -0.02099156 4.12442
v 0.9822168 1.036697 3.33786E-06
v 0.9078834 1.104902 3.756158
v 0.9078834 -0.9751806 3.3307
v 0.9061813 -0.8266277 3.33786E-06
v 0.7032685 -0.8300323 1.910424
v 1.056664 0.9686048 1.999964
v 0.9822168 1.036697 3.33786E-06
v -1.326426 1.074941 2.229547
v -0.9389851 -0.3979917 2.129679
v -1.427088 -0.2416081 2.700286
v 2.627989 -0.9751806 3.149236
v 1.985659 1.104902 4.064954
v 2.627989 1.104902 3.455421
v -1.92722 -0.349987 3.477891
v -1.808627 -0.2695255 2.687122
v -2.727182 -0.349987 2.677929
v -1.690148 -0.1890643 4.12442
v -1.808627 -0.2695255 2.687122
v -2.362098 -0.02099156 2.696428
v 2.425757 0.2547791 0.6000032
v 2.425757 0.2547791 3.33786E-06
v 1.975105 -1.824849 3.33786E-06
v -0.6312118 -0.1942844 3.316741
v -0.7850983 -0.2961948 0.0006842613
v -1.431174 -0.1942844 3.33786E-06
v -2.727182 -0.349987 3.477891
v -2.727182 -0.349987 2.677929
v -2.727182 0.4500885 2.677929
v -2.727182 0.4500885 3.477891
v -0.9348996 1.152679 1.999964
v -0.7830555 1.214189 3.33786E-06
v 0.9822168 1.036697 3.33786E-06
v 0.03143239 -1.250951 0.6000032
v 0.03143239 -1.250951 3.33786E-06
v 0.4757295 0.6990759 3.33786E-06
v 0.4757295 0.6990759 0.6000032
v -1.92722 0.4500885 3.477891
v -1.92722 0.4500885 2.677929
v -1.808627 -0.2695255 2.687122
v 0.4757295 0.6990759 0.6000032
v 0.4757295 0.6990759 3.33786E-06
v 2.425757 0.2547791 3.33786E-06
v 2.425757 0.2547791 0.6000032
v -2.362098 -0.02099156 4.12442
v -2.362098 -0.02099156 2.696428
v -2.362098 0.818917 2.696428
v -2.362098 0.818917 4.12442
v -1.690148 0.9869897 4.12442
v -1.690148 0.9869897 2.696428
v -1.018085 0.818917 2.696428
v -1.018085 0.818917 4.12442
v -1.018085 0.818917 4.12442
v -1.018085 0.818917 2.696428
v -1.018085 -0.02099156 2.696428
v -1.018085 -0.02099156 4.12442
v 1.985659 1.104902 4.064954
v 2.627989 -0.9751806 3.149236
v 0.9078834 -0.9751806 3.3307
v 1.98146 -1.695248 0.6000032
v 1.975105 -1.824849 3.33786E-06
v 0.03143239 -1.250951 3.33786E-06
v -1.018085 -0.02099156 4.12442
v -1.018085 -0.02099156 2.696428
v -1.808627 -0.2695255 2.687122
v -2.362098 0.818917 4.12442
v -2.362098 0.818917 2.696428
v -1.690148 0.9869897 2.696428
v -1.690148 0.9869897 4.12442
v -0.8215272 -0.591712 1.999964
v -0.5756037 0.8449056 3.779083
v -0.8215272 -0.591712 3.860225
v -0.7850983 -0.2961948 0.0006842613
v -1.326426 1.074941 2.229547
v -1.415172 1.313716 0.0006842613
v 0.4896884 -0.9875507 3.33786E-06
v 0.7032685 -0.8300323 1.910424
v 0.9061813 -0.8266277 3.33786E-06
v -3.464954 1.298281 0.001478672
v -1.791491 1.552376 0.001478672
v -3.464954 1.298281 0.6014783
v 0.671833 0.5835476 4.02546
v 0.6254172 -0.7255118 3.401742
v -0.8215272 -0.591712 3.860225
v -1.431174 1.275811 3.316741
v -0.7830555 1.214189 3.33786E-06
v -0.6312118 1.275811 3.316741
v -3.05561 0.9806349 0.6014783
v -3.05561 0.9806349 2.700286
v -3.464954 0.4111624 0.6014783
v -1.880805 1.308155 2.700286
v -3.05561 0.9806349 0.6014783
v -1.791491 1.552376 0.001478672
v -1.118974 -0.8388844 1.999964
v -0.7830555 1.214189 3.33786E-06
v -0.9348996 1.152679 1.999964
v -3.464954 -0.3979917 2.700286
v -1.427088 -0.2416081 2.700286
v -2.303312 -1.129862 2.700286
v 3.312876 -0.2000723 2.288673
v 1.968863 -1.710683 2.275508
v 1.968863 -0.2000723 2.653416
v -2.303312 -1.129862 2.700286
v -3.464954 -0.3979917 0.6014783
v -3.464954 -0.3979917 2.700286
v -1.118974 -0.8388844 3.33786E-06
v 0.7032685 -0.8300323 1.910424
v 0.4896884 -0.9875507 3.33786E-06
v 0.9061813 -0.8266277 3.33786E-06
v 2.627989 -0.9751806 3.149236
v 2.627989 -0.9751806 3.33786E-06
v -0.5756037 0.8449056 3.779083
v 0.759217 0.7214329 1.999964
v 0.671833 0.5835476 4.02546
v 0.7032685 -0.8300323 1.910424
v 0.9822168 1.036697 3.33786E-06
v 0.9061813 -0.8266277 3.33786E-06
v -1.326426 1.074941 2.229547
v -1.427088 -0.2416081 2.700286
v -1.880805 1.308155 2.700286
v -1.92722 -0.349987 3.477891
v -2.727182 -0.349987 2.677929
v -2.727182 -0.349987 3.477891
v -1.690148 -0.1890643 4.12442
v -2.362098 -0.02099156 2.696428
v -2.362098 -0.02099156 4.12442
v 2.425757 0.2547791 0.6000032
v 1.975105 -1.824849 3.33786E-06
v 1.98146 -1.695248 0.6000032
v -0.6312118 -0.1942844 3.316741
v -1.431174 -0.1942844 3.33786E-06
v -1.431174 -0.1942844 3.316741
v -0.9348996 1.152679 1.999964
v 0.9822168 1.036697 3.33786E-06
v 1.056664 0.9686048 1.999964
v -1.92722 0.4500885 3.477891
v -1.808627 -0.2695255 2.687122
v -1.92722 -0.349987 3.477891
v 1.985659 1.104902 4.064954
v 0.9078834 -0.9751806 3.3307
v 0.9078834 1.104902 3.756158
v 1.98146 -1.695248 0.6000032
v 0.03143239 -1.250951 3.33786E-06
v 0.03143239 -1.250951 0.6000032
v -1.018085 -0.02099156 4.12442
v -1.808627 -0.2695255 2.687122
v -1.690148 -0.1890643 4.12442
vn -0.003921628 0.003921628 0.9999846
vn -0.003921628 0.003921628 0.9999846
vn -0.003921628 0.003921628 0.9999846
vn 0.4823492 -0.8745031 0.05082818
vn 0.4823492 -0.8745031 0.05082818
vn 0.4823492 -0.8745031 0.05082818
vn -0.003921628 0.003921628 0.9999846
vn -0.003921628 0.003921628 0.9999846
vn -0.003921628 0.003921628 0.9999846
vn -0.003921628 0.003921628 0.9999846
vn -0.003921628 0.003921628 0.9999846
vn -0.003921628 0.003921628 0.9999846
vn -0.003921628 0.003921628 0.9999846
vn -0.003921628 0.003921628 0.9999846
vn -0.003921628 0.003921628 0.9999846
vn -0.1764693 0.0823524 0.980855
vn -0.1764693 0.0823524 0.980855
vn -0.1764693 0.0823524 0.980855
vn -0.9999924 -0.003921509 0
vn -0.9999924 -0.003921509 0
vn -0.9999924 -0.003921509 0
vn -0.9999924 0.003921628 0
vn -0.09803855 -0.9921493 0.07764171
vn -0.09803855 -0.9921493 0.07764171
vn -0.09803855 -0.9921493 0.07764171
vn 0.9999924 0.003921628 0
vn 0.9999924 0.003921628 0
vn 0.9999924 0.003921628 0
vn 0.9999924 0.003921628 0
vn -0.003921628 0.9999924 0
vn -0.003921628 0.9999924 0
vn -0.003921628 0.9999924 0
vn -0.003921628 0.9999924 0
vn -0.4666631 -0.8823462 -0.06075129
vn -0.4666631 -0.8823462 -0.06075129
vn -0.4666631 -0.8823462 -0.06075129
vn -0.4823493 -0.8745031 -0.05082759
vn -0.9999924 0.003921628 0
vn -0.9999924 0.003921628 0
vn -0.9999924 0.003921628 0
vn -0.9999924 0.003921628 0
vn -0.9999924 0.003921628 0
vn -0.9999924 0.003921628 0
vn -0.9921494 0.09019542 0.08662822
vn -0.9921494 0.09019542 0.08662822
vn -0.9921494 0.09019542 0.08662822
vn 0.9999924 0.003921628 0
vn 0.9999924 0.003921628 0
vn 0.9999924 0.003921628 0
vn 0.9999924 0.003921628 0
vn -0.003921628 0.9999924 0
vn -0.003921628 0.9999924 0
vn -0.003921628 0.9999924 0
vn -0.003921628 0.9999924 0
vn 0.2705861 0.349017 0.8972014
vn 0.2705861 0.349017 0.8972014
vn 0.2705861 0.349017 0.8972014
vn 0.9686201 0.247057 0.02716627
vn 0.9686201 0.247057 0.02716627
vn 0.9686201 0.247057 0.02716627
vn 0.9999924 -0.003921509 0
vn 0.9999924 -0.003921509 0
vn 0.9999924 -0.003921509 0
vn 0.9999924 0.003921628 0
vn 0.4509769 0.8823463 0.13448
vn 0.4509769 0.8823463 0.13448
vn 0.4509769 0.8823463 0.13448
vn 0.5372508 0.8431308 0.02218189
vn 0.5372508 0.8431308 0.02218189
vn 0.5372508 0.8431308 0.02218189
vn 0.5529369 -0.5450939 0.6301852
vn 0.5529369 -0.5450939 0.6301852
vn 0.5529369 -0.5450939 0.6301852
vn 0.5450939 -0.8431308 0
vn 0.5450939 -0.8431308 0
vn 0.5450939 -0.8431308 0
vn -0.9999924 0.01176465 0
vn -0.9999924 0.01176465 0
vn -0.9999924 0.01176465 0
vn -0.9999924 0.003921628 0
vn 0.15294 0.9843062 0.08803766
vn 0.15294 0.9843062 0.08803766
vn 0.15294 0.9843062 0.08803766
vn -0.003921628 0.003921628 0.9999846
vn -0.003921628 0.003921628 0.9999846
vn -0.003921628 0.003921628 0.9999846
vn -0.003921628 0.003921628 0.9999846
vn -0.2705863 0.960777 -0.06074982
vn -0.2705863 0.960777 -0.06074982
vn -0.2705863 0.960777 -0.06074982
vn -0.9529339 0.2862724 0.09982527
vn -0.9529339 0.2862724 0.09982527
vn -0.9529339 0.2862724 0.09982527
vn -0.9843062 0.1607832 -0.07273275
vn -0.9843062 0.1607832 -0.07273275
vn -0.9843062 0.1607832 -0.07273275
vn 0.05097997 -0.05882305 0.9969658
vn 0.05097997 -0.05882305 0.9969658
vn 0.05097997 -0.05882305 0.9969658
vn 0.05097997 -0.05882305 0.9969658
vn 0.05097997 -0.05882305 0.9969658
vn -0.003921628 0.003921628 0.9999846
vn -0.003921628 0.003921628 0.9999846
vn -0.003921628 0.003921628 0.9999846
vn -0.09019542 -0.9921493 -0.086629
vn -0.09019542 -0.9921493 -0.086629
vn -0.09019542 -0.9921493 -0.086629
vn -0.15294 -0.9843062 0.08803766
vn -0.15294 -0.9843062 0.08803766
vn -0.15294 -0.9843062 0.08803766
vn 0.9999924 -0.03529382 0
vn 0.9999924 -0.03529382 0
vn 0.9999924 -0.03529382 0
vn 0.9999924 -0.05097997 0
vn 0.9999924 -0.05097997 0
vn 0.9999924 -0.05097997 0
vn -0.003921628 0.9999924 0
vn -0.003921628 0.9999924 0
vn -0.003921628 0.9999924 0
vn -0.003921628 0.9999924 0
vn -0.04313695 0.9999924 0
vn 0.003921509 -0.9999924 0
vn 0.003921509 -0.9999924 0
vn 0.003921509 -0.9999924 0
vn -0.003921628 -0.9999924 0
vn -0.003921628 -0.9999924 0
vn -0.003921628 -0.9999924 0
vn 0.09019536 0.9921494 -0.0866283
vn 0.09019536 0.9921494 -0.0866283
vn 0.09019536 0.9921494 -0.0866283
vn -0.03529394 -0.9999924 0
vn -0.03529394 -0.9999924 0
vn -0.03529394 -0.9999924 0
vn -0.003921628 0.003921628 0.9999846
vn -0.003921628 0.003921628 0.9999846
vn -0.003921628 0.003921628 0.9999846
vn -0.003921628 0.003921628 0.9999846
vn 0.4509769 -0.4117615 0.7918789
vn 0.4509769 -0.4117615 0.7918789
vn 0.4509769 -0.4117615 0.7918789
vn -0.003921628 0.003921628 0.9999846
vn -0.003921628 0.003921628 0.9999846
vn -0.003921628 0.003921628 0.9999846
vn -0.003921628 0.003921628 0.9999846
vn -0.003921628 0.003921628 0.9999846
vn -0.003921628 0.003921628 0.9999846
vn -0.003921628 0.003921628 0.9999846
vn -0.003921628 0.003921628 0.9999846
vn -0.003921628 0.003921628 0.9999846
vn -0.003921628 0.003921628 0.9999846
vn -0.9999924 0.003921628 0
vn -0.9999924 0.003921628 0
vn -0.9999924 0.003921628 0
vn -0.9999924 0.04313695 0
vn 0.9843062 -0.1921554 0
vn 0.9843062 -0.1921554 0
vn 0.9843062 -0.1921554 0
vn 0.7725431 0.1607832 0.6142685
vn 0.7725431 0.1607832 0.6142685
vn 0.7725431 0.1607832 0.6142685
vn 0.6862693 -0.1058815 0.7195996
vn 0.6862693 -0.1058815 0.7195996
vn 0.6862693 -0.1058815 0.7195996
vn 0.09019536 -0.9921493 -0.086629
vn 0.09019536 -0.9921493 -0.086629
vn 0.09019536 -0.9921493 -0.086629
vn -0.4039185 -0.9058754 0.1274341
vn -0.4039185 -0.9058754 0.1274341
vn -0.4039185 -0.9058754 0.1274341
vn 0.9764631 -0.2156846 0
vn 0.9764631 -0.2156846 0
vn 0.9764631 -0.2156846 0
vn -0.15294 -0.9843062 0.08803766
vn -0.15294 -0.9843062 0.08803766
vn -0.15294 -0.9843062 0.08803766
vn -0.9999924 0.003921628 0
vn -0.9999924 0.003921628 0
vn -0.9999924 0.003921628 0
vn -0.9999924 0.003921628 0
vn 0.09803843 0.9921494 0.07764094
vn 0.09803843 0.9921494 0.07764094
vn 0.09803843 0.9921494 0.07764094
vn -0.9764632 0.2235278 0
vn -0.9764632 0.2235278 0
vn -0.9764632 0.2235278 0
vn -0.9764632 0.2235278 0
vn 0.9843062 0.1607832 -0.07273275
vn 0.9843062 0.1607832 -0.07273275
vn 0.9843062 0.1607832 -0.07273275
vn 0.2235277 0.9764632 0
vn 0.2235277 0.9764632 0
vn 0.2235277 0.9764632 0
vn 0.2235277 0.9764632 0
vn -0.9999924 0.003921628 0
vn -0.9999924 0.003921628 0
vn -0.9999924 0.003921628 0
vn -0.9999924 0.003921628 0
vn 0.2392138 0.9686201 -0.06746767
vn 0.2392138 0.9686201 -0.06746767
vn 0.2392138 0.9686201 -0.06746767
vn 0.2392138 0.9686201 -0.06746767
vn 0.9999924 0.003921628 0
vn 0.9999924 0.003921628 0
vn 0.9999924 0.003921628 0
vn 0.9999924 0.003921628 0
vn 0.09803843 -0.3725461 0.9228206
vn 0.09803843 -0.3725461 0.9228206
vn 0.09803843 -0.3725461 0.9228206
vn -0.2784293 -0.9372478 0.2098661
vn -0.2784293 -0.9372478 0.2098661
vn -0.2784293 -0.9372478 0.2098661
vn 0.3019584 -0.9529339 -0.02716771
vn 0.3019584 -0.9529339 -0.02716771
vn 0.3019584 -0.9529339 -0.02716771
vn -0.2392139 0.9686201 -0.06746724
vn -0.2392139 0.9686201 -0.06746724
vn -0.2392139 0.9686201 -0.06746724
vn -0.2392139 0.9686201 -0.06746724
vn -0.9843062 0.1686262 -0.05202392
vn -0.9843062 0.1686262 -0.05202392
vn -0.9843062 0.1686262 -0.05202392
vn 0.9294047 0.3647032 0.05655545
vn 0.9294047 0.3647032 0.05655545
vn 0.9294047 0.3647032 0.05655545
vn 0.35686 -0.9294047 0.09411645
vn 0.35686 -0.9294047 0.09411645
vn 0.35686 -0.9294047 0.09411645
vn -0.15294 0.9921494 0
vn -0.15294 0.9921494 0
vn -0.15294 0.9921494 0
vn 0.2392138 -0.4274477 0.8718172
vn 0.2392138 -0.4274477 0.8718172
vn 0.2392138 -0.4274477 0.8718172
vn -0.003921628 0.9999924 0
vn -0.003921628 0.9999924 0
vn -0.003921628 0.9999924 0
vn -0.8117585 0.5843093 0
vn -0.8117585 0.5843093 0
vn -0.8117585 0.5843093 0
vn -0.3803893 0.9215616 0.07764132
vn -0.3803893 0.9215616 0.07764132
vn -0.3803893 0.9215616 0.07764132
vn -0.9921494 0.09019542 -0.08662822
vn -0.9921494 0.09019542 -0.08662822
vn -0.9921494 0.09019542 -0.08662822
vn -0.003921628 0.003921628 0.9999846
vn -0.003921628 0.003921628 0.9999846
vn -0.003921628 0.003921628 0.9999846
vn 0.2549 -0.2313707 0.9388789
vn 0.2549 -0.2313707 0.9388789
vn 0.2549 -0.2313707 0.9388789
vn -0.5294077 -0.8431308 -0.09411613
vn -0.5294077 -0.8431308 -0.09411613
vn -0.5294077 -0.8431308 -0.09411613
vn -0.09019542 -0.9921493 0.086629
vn -0.09019542 -0.9921493 0.086629
vn -0.09019542 -0.9921493 0.086629
vn -0.0823524 -0.9999924 0
vn -0.0823524 -0.9999924 0
vn -0.0823524 -0.9999924 0
vn 0.1921554 0.9764632 0.09795882
vn 0.1921554 0.9764632 0.09795882
vn 0.1921554 0.9764632 0.09795882
vn 0.9921493 -0.04313689 0.1173839
vn 0.9921493 -0.04313689 0.1173839
vn 0.9921493 -0.04313689 0.1173839
vn 0.6784261 0.1999985 0.7069219
vn 0.6784261 0.1999985 0.7069219
vn 0.6784261 0.1999985 0.7069219
vn -0.003921628 -0.9999924 0
vn -0.003921628 -0.9999924 0
vn -0.003921628 -0.9999924 0
vn -0.2392139 -0.9686201 -0.06746724
vn -0.2392139 -0.9686201 -0.06746724
vn -0.2392139 -0.9686201 -0.06746724
vn 0.9764631 -0.2235277 0
vn 0.9764631 -0.2235277 0
vn 0.9764631 -0.2235277 0
vn -0.003921628 -0.9999924 0
vn -0.003921628 -0.9999924 0
vn -0.003921628 -0.9999924 0
vn 0.09019536 0.9921494 0.0866283
vn 0.09019536 0.9921494 0.0866283
vn 0.09019536 0.9921494 0.0866283
vn 0.9921493 0.003921628 0.1249976
vn 0.9921493 0.003921628 0.1249976
vn 0.9921493 0.003921628 0.1249976
vn -0.2705863 -0.1921554 0.9433236
vn -0.2705863 -0.1921554 0.9433236
vn -0.2705863 -0.1921554 0.9433236
vn -0.2235278 -0.9764631 0
vn -0.2235278 -0.9764631 0
vn -0.2235278 -0.9764631 0
vn 0.2392138 -0.9686201 0.06746767
vn 0.2392138 -0.9686201 0.06746767
vn 0.2392138 -0.9686201 0.06746767
g Rock_Wall_06_0
f 3/3/3 2/2/2 1/1/1
f 6/6/6 5/5/5 4/4/4
f 9/9/9 8/8/8 7/7/7
f 12/12/12 11/11/11 10/10/10
f 13/13/13 12/12/12 10/10/10
f 14/14/14 13/13/13 10/10/10
f 15/15/15 14/14/14 10/10/10
f 18/18/18 17/17/17 16/16/16
f 21/21/21 20/20/20 19/19/19
f 19/19/19 20/20/20 22/22/22
f 25/25/25 24/24/24 23/23/23
f 28/28/28 27/27/27 26/26/26
f 29/29/29 26/26/26 27/27/27
f 32/32/32 31/31/31 30/30/30
f 33/33/33 30/30/30 31/31/31
f 36/36/36 35/35/35 34/34/34
f 35/35/35 36/36/36 37/37/37
f 40/40/40 39/39/39 38/38/38
f 40/40/40 41/41/41 39/39/39
f 38/38/38 39/39/39 42/42/42
f 39/39/39 43/43/43 42/42/42
f 46/46/46 45/45/45 44/44/44
f 49/49/49 48/48/48 47/47/47
f 50/50/50 49/49/49 47/47/47
f 53/53/53 52/52/52 51/51/51
f 54/54/54 53/53/53 51/51/51
f 57/57/57 56/56/56 55/55/55
f 60/60/60 59/59/59 58/58/58
f 63/63/63 62/62/62 61/61/61
f 64/64/64 63/63/63 61/61/61
f 67/67/67 66/66/66 65/65/65
f 70/70/70 69/69/69 68/68/68
f 73/73/73 72/72/72 71/71/71
f 76/76/76 75/75/75 74/74/74
f 79/79/79 78/78/78 77/77/77
f 80/80/80 79/79/79 77/77/77
f 83/83/83 82/82/82 81/81/81
f 86/86/86 85/85/85 84/84/84
f 87/87/87 86/86/86 84/84/84
f 90/90/90 89/89/89 88/88/88
f 93/93/93 92/92/92 91/91/91
f 96/96/96 95/95/95 94/94/94
f 99/99/99 98/98/98 97/97/97
f 101/101/101 98/98/98 100/100/100
f 104/104/104 103/103/103 102/102/102
f 107/107/107 106/106/106 105/105/105
f 110/110/110 109/109/109 108/108/108
f 113/113/113 112/112/112 111/111/111
f 116/116/116 115/115/115 114/114/114
f 119/119/119 118/118/118 117/117/117
f 117/117/117 118/118/118 120/120/120
f 121/121/121 119/119/119 117/117/117
f 124/124/124 123/123/123 122/122/122
f 127/127/127 126/126/126 125/125/125
f 130/130/130 129/129/129 128/128/128
f 133/133/133 132/132/132 131/131/131
f 136/136/136 135/135/135 134/134/134
f 137/137/137 136/136/136 134/134/134
f 140/140/140 139/139/139 138/138/138
f 143/143/143 142/142/142 141/141/141
f 144/144/144 143/143/143 141/141/141
f 147/147/147 146/146/146 145/145/145
f 148/148/148 147/147/147 145/145/145
f 149/149/149 148/148/148 145/145/145
f 150/150/150 149/149/149 145/145/145
f 153/153/153 152/152/152 151/151/151
f 154/154/154 153/153/153 151/151/151
f 157/157/157 156/156/156 155/155/155
f 160/160/160 159/159/159 158/158/158
f 163/163/163 162/162/162 161/161/161
f 166/166/166 165/165/165 164/164/164
f 169/169/169 168/168/168 167/167/167
f 172/172/172 171/171/171 170/170/170
f 175/175/175 174/174/174 173/173/173
f 178/178/178 177/177/177 176/176/176
f 179/179/179 178/178/178 176/176/176
f 182/182/182 181/181/181 180/180/180
f 185/185/185 184/184/184 183/183/183
f 186/186/186 185/185/185 183/183/183
f 189/189/189 188/188/188 187/187/187
f 192/192/192 191/191/191 190/190/190
f 193/193/193 192/192/192 190/190/190
f 196/196/196 195/195/195 194/194/194
f 197/197/197 196/196/196 194/194/194
f 200/200/200 199/199/199 198/198/198
f 201/201/201 200/200/200 198/198/198
f 204/204/204 203/203/203 202/202/202
f 205/205/205 204/204/204 202/202/202
f 208/208/208 207/207/207 206/206/206
f 211/211/211 210/210/210 209/209/209
f 214/214/214 213/213/213 212/212/212
f 217/217/217 216/216/216 215/215/215
f 218/218/218 217/217/217 215/215/215
f 221/221/221 220/220/220 219/219/219
f 224/224/224 223/223/223 222/222/222
f 227/227/227 226/226/226 225/225/225
f 230/230/230 229/229/229 228/228/228
f 233/233/233 232/232/232 231/231/231
f 236/236/236 235/235/235 234/234/234
f 239/239/239 238/238/238 237/237/237
f 242/242/242 241/241/241 240/240/240
f 245/245/245 244/244/244 243/243/243
f 248/248/248 247/247/247 246/246/246
f 251/251/251 250/250/250 249/249/249
f 254/254/254 253/253/253 252/252/252
f 257/257/257 256/256/256 255/255/255
f 260/260/260 259/259/259 258/258/258
f 263/263/263 262/262/262 261/261/261
f 266/266/266 265/265/265 264/264/264
f 269/269/269 268/268/268 267/267/267
f 272/272/272 271/271/271 270/270/270
f 275/275/275 274/274/274 273/273/273
f 278/278/278 277/277/277 276/276/276
f 281/281/281 280/280/280 279/279/279
f 284/284/284 283/283/283 282/282/282
f 287/287/287 286/286/286 285/285/285
f 290/290/290 289/289/289 288/288/288
f 293/293/293 292/292/292 291/291/291
f 296/296/296 295/295/295 294/294/294
