g Rock_Chunk_03
v 11.38596 32.74957 5.002033
v 4.745893 0.0002841949 11.0623
v 3.743637 32.11637 10.24123
v -1.417366 20.13506 8.506594
v 2.282687 0.0002841949 9.293333
v 0.04167557 19.82228 9.694807
v 11.38596 32.74957 5.002033
v 16.32573 0.0002841949 3.011822
v 4.745893 0.0002841949 11.0623
v -7.619724 36.61461 0.8747559
v -7.144821 36.82345 3.460026
v -7.223019 0.0002841949 5.981403
v -5.201338 0.0002841949 -5.946504
v -6.219809 37.2316 -2.503928
v -8.260559 0.0002841949 0.8118153
v -6.219809 37.2316 -2.503928
v -7.619724 36.61461 0.8747559
v -8.260559 0.0002841949 0.8118153
v -6.219809 37.2316 -2.503928
v -5.201338 0.0002841949 -5.946504
v 0.5137177 0.0002841949 -5.946504
v -7.144821 36.82345 3.460026
v -7.619724 36.61461 0.8747559
v -6.219809 37.2316 -2.503928
v -6.219809 37.2316 4.381226
v -5.126003 37.71413 1.975235
v -3.989285 38.21574 4.381226
v -3.923485 38.24435 4.231504
v -3.605928 38.38453 -2.503928
v -2.496866 45.94199 0.5133324
v -0.8223057 46.1699 3.542992
v 0.4917841 32.39483 7.938234
v -6.538317 21.95457 8.760258
v -8.914743 0.0002841949 8.632471
v -4.962933 21.25747 7.842873
v -0.8223057 46.1699 3.542992
v 9.941227 43.87644 1.524172
v 0.4917841 32.39483 7.938234
v -0.2672977 44.56686 -5.049145
v 13.05194 0.0002841949 -5.946504
v 7.882358 43.21462 -4.387331
v 9.941227 43.87644 1.524172
v 11.38596 32.74957 5.002033
v 0.4917841 32.39483 7.938234
v -6.538317 21.95457 8.760258
v -1.5051 0.0002841949 12.85988
v -8.914743 0.0002841949 8.632471
v 11.38596 32.74957 5.002033
v 3.743637 32.11637 10.24123
v 0.4917841 32.39483 7.938234
v -4.962933 21.25747 7.842873
v -8.914743 0.0002841949 8.632471
v -6.212179 0.0002841949 6.902601
v 13.05194 0.0002841949 -5.946504
v 16.32573 0.0002841949 3.011822
v 11.38596 32.74957 5.002033
v -3.605928 38.38453 -2.503928
v -6.219809 37.2316 -2.503928
v 0.5137177 0.0002841949 -5.946504
v 13.05194 0.0002841949 -5.946504
v 9.941227 43.87644 1.524172
v 7.882358 43.21462 -4.387331
v -8.260559 0.0002841949 0.8118153
v -7.619724 36.61461 0.8747559
v -7.223019 0.0002841949 5.981403
v 13.05194 0.0002841949 -5.946504
v 11.38596 32.74957 5.002033
v 9.941227 43.87644 1.524172
v 0.5137177 0.0002841949 -5.946504
v -5.126003 37.71413 1.975235
v -3.605928 38.38453 -2.503928
v -6.538317 21.95457 8.760258
v -2.157377 20.90845 11.67167
v -1.5051 0.0002841949 12.85988
v -5.201338 0.0002841949 -5.946504
v -8.260559 0.0002841949 0.8118153
v -7.223019 0.0002841949 5.981403
v -6.212179 0.0002841949 6.902601
v -5.201338 0.0002841949 7.823801
v 0.5137177 0.0002841949 -5.946504
v -2.809656 0.0002841949 3.011822
v -0.3245144 0.0002841949 7.823801
v -0.1805172 0.0002841949 7.524363
v 2.282687 0.0002841949 9.293333
v 13.05194 0.0002841949 -5.946504
v 4.745893 0.0002841949 11.0623
v 16.32573 0.0002841949 3.011822
v -1.5051 0.0002841949 12.85988
v -8.914743 0.0002841949 8.632471
v 3.743637 32.11637 10.24123
v 4.745893 0.0002841949 11.0623
v 2.282687 0.0002841949 9.293333
v -0.1805172 0.0002841949 7.524363
v -3.989285 38.21574 4.381226
v -0.3245144 0.0002841949 7.823801
v -5.201338 0.0002841949 7.823801
v -0.2672977 44.56686 -5.049145
v -2.496866 45.94199 0.5133324
v -2.809656 0.0002841949 3.011822
v -0.8223057 46.1699 3.542992
v -2.496866 45.94199 0.5133324
v -0.2672977 44.56686 -5.049145
v 9.941227 43.87644 1.524172
v 7.882358 43.21462 -4.387331
v -0.2672977 44.56686 -5.049145
v 0.5137177 0.0002841949 -5.946504
v 13.05194 0.0002841949 -5.946504
v -3.923485 38.24435 4.231504
v -0.1805172 0.0002841949 7.524363
v -3.989285 38.21574 4.381226
v 0.5137177 0.0002841949 -5.946504
v -2.809656 0.0002841949 3.011822
v -5.126003 37.71413 1.975235
v -3.989285 38.21574 4.381226
v -0.1805172 0.0002841949 7.524363
v -0.3245144 0.0002841949 7.823801
v -4.363104 21.14781 8.448423
v -5.201338 0.0002841949 7.823801
v -0.3245144 0.0002841949 7.823801
v -1.417366 20.13506 8.506594
v -0.1805172 0.0002841949 7.524363
v 2.282687 0.0002841949 9.293333
v -3.989285 38.21574 4.381226
v -5.201338 0.0002841949 7.823801
v -6.219809 37.2316 4.381226
v -2.809656 0.0002841949 3.011822
v -0.1805172 0.0002841949 7.524363
v -3.923485 38.24435 4.231504
v -4.363104 21.14781 8.448423
v -0.3245144 0.0002841949 7.823801
v -1.499378 20.19133 8.681107
v -5.126003 37.71413 1.975235
v -2.809656 0.0002841949 3.011822
v -3.923485 38.24435 4.231504
v -6.219809 37.2316 4.381226
v -5.201338 0.0002841949 7.823801
v -6.212179 0.0002841949 6.902601
v -7.223019 0.0002841949 5.981403
v -7.144821 36.82345 3.460026
v -6.219809 37.2316 4.381226
v -7.223019 0.0002841949 5.981403
v -5.201338 0.0002841949 7.823801
v -4.363104 21.14781 8.448423
v -4.962933 21.25747 7.842873
v -4.962933 21.25747 7.842873
v -6.212179 0.0002841949 6.902601
v -5.201338 0.0002841949 7.823801
v -2.496866 45.94199 0.5133324
v 0.4917841 32.39483 7.938234
v -0.1805172 0.0002841949 7.524363
v 0.4917841 32.39483 7.938234
v 3.743637 32.11637 10.24123
v -0.1805172 0.0002841949 7.524363
v 0.04167557 19.82228 9.694807
v 2.282687 0.0002841949 9.293333
v -1.5051 0.0002841949 12.85988
v -2.157377 20.90845 11.67167
v -2.157377 20.90845 11.67167
v -6.538317 21.95457 8.760258
v -4.962933 21.25747 7.842873
v -4.363104 21.14781 8.448423
v -1.499378 20.19133 8.681107
v 0.04167557 19.82228 9.694807
v -1.417366 20.13506 8.506594
v 0.5137177 0.0002841949 -5.946504
v -0.2672977 44.56686 -5.049145
v -2.809656 0.0002841949 3.011822
v -0.3245144 0.0002841949 7.823801
v -1.417366 20.13506 8.506594
v -1.499378 20.19133 8.681107
v -0.1805172 0.0002841949 7.524363
v -1.417366 20.13506 8.506594
v -0.3245144 0.0002841949 7.823801
v -2.496866 45.94199 0.5133324
v -0.1805172 0.0002841949 7.524363
v -2.809656 0.0002841949 3.011822
vn 0.5623696 0.03937221 0.8259481
vn 0.5623696 0.03937221 0.8259481
vn 0.5623696 0.03937221 0.8259481
vn 0.6405179 0.08626115 -0.7630831
vn 0.6405179 0.08626115 -0.7630831
vn 0.6405179 0.08626115 -0.7630831
vn 0.5701845 0.03937221 0.8205727
vn 0.5701845 0.03937221 0.8205727
vn 0.5701845 0.03937221 0.8205727
vn -0.9849663 0.01592767 0.1720109
vn -0.9849663 0.01592767 0.1720109
vn -0.9849663 0.01592767 0.1720109
vn -0.9146329 0.01592767 -0.4039714
vn -0.9146329 0.01592767 -0.4039714
vn -0.9146329 0.01592767 -0.4039714
vn -0.9224477 0.01592767 -0.3857935
vn -0.9224477 0.01592767 -0.3857935
vn -0.9224477 0.01592767 -0.3857935
vn -0.0002980232 0.09407604 -0.995565
vn -0.0002980232 0.09407604 -0.995565
vn -0.0002980232 0.09407604 -0.995565
vn -0.4066691 0.9146329 0
vn -0.4066691 0.9146329 0
vn -0.4066691 0.9146329 0
vn -0.4066691 0.9146329 0
vn -0.4066691 0.9146329 0
vn -0.4066691 0.9146329 0
vn -0.4066691 0.9146329 0
vn -0.4066691 0.9146329 0
vn -0.8755587 0.0706315 0.4779206
vn -0.8755587 0.0706315 0.4779206
vn -0.8755587 0.0706315 0.4779206
vn -0.4848174 0.05500185 -0.8728842
vn -0.4848174 0.05500185 -0.8728842
vn -0.4848174 0.05500185 -0.8728842
vn 0.2419617 0.3128911 0.9184518
vn 0.2419617 0.3128911 0.9184518
vn 0.2419617 0.3128911 0.9184518
vn 0.08566511 0.04718697 -0.9952059
vn 0.08566511 0.04718697 -0.9952059
vn 0.08566511 0.04718697 -0.9952059
vn 0.2341468 0.320706 0.9177815
vn 0.2341468 0.320706 0.9177815
vn 0.2341468 0.320706 0.9177815
vn -0.4926322 0.04718697 0.8689574
vn -0.4926322 0.04718697 0.8689574
vn -0.4926322 0.04718697 0.8689574
vn -0.0002980232 0.9927812 0.1199397
vn -0.0002980232 0.9927812 0.1199397
vn -0.0002980232 0.9927812 0.1199397
vn -0.5395212 0.0706315 -0.8390042
vn -0.5395212 0.0706315 -0.8390042
vn -0.5395212 0.0706315 -0.8390042
vn 0.9296665 0.1565946 -0.333464
vn 0.9296665 0.1565946 -0.333464
vn 0.9296665 0.1565946 -0.333464
vn -0.03937221 0.08626115 -0.9954942
vn -0.03937221 0.08626115 -0.9954942
vn -0.03937221 0.08626115 -0.9954942
vn 0.9296665 0.1253353 -0.3464263
vn 0.9296665 0.1253353 -0.3464263
vn 0.9296665 0.1253353 -0.3464263
vn -0.9771515 0.01592767 0.2119462
vn -0.9771515 0.01592767 0.2119462
vn -0.9771515 0.01592767 0.2119462
vn 0.9921852 0.09407604 -0.08196495
vn 0.9921852 0.09407604 -0.08196495
vn 0.9921852 0.09407604 -0.08196495
vn 0.9374814 0.0706315 0.3407929
vn 0.9374814 0.0706315 0.3407929
vn 0.9374814 0.0706315 0.3407929
vn -0.547336 0.03155732 0.8363178
vn -0.547336 0.03155732 0.8363178
vn -0.547336 0.03155732 0.8363178
vn -0.0002980232 -1 0
vn -0.0002980232 -1 0
vn -0.0002980232 -1 0
vn -0.0002980232 -1 0
vn -0.0002980232 -1 0
vn -0.0002980232 -1 0
vn -0.0002980232 -1 0
vn -0.0002980232 -1 0
vn -0.0002980232 -1 0
vn -0.0002980232 -1 0
vn -0.0002980232 -1 0
vn -0.0002980232 -1 0
vn -0.0002980232 -1 0
vn -0.0002980232 -1 0
vn -0.0002980232 -1 0
vn -0.5864102 0.0002980232 0.8100142
vn -0.5864102 0.0002980232 0.8100142
vn -0.5864102 0.0002980232 0.8100142
vn -0.5864102 0.0002980232 0.8100142
vn -0.0002980232 0.08626115 0.9962725
vn -0.0002980232 0.08626115 0.9962725
vn -0.0002980232 0.08626115 0.9962725
vn -0.9302626 -0.01533169 -0.366574
vn -0.9302626 -0.01533169 -0.366574
vn -0.9302626 -0.01533169 -0.366574
vn 0.1716282 0.9693366 -0.1758699
vn 0.1716282 0.9693366 -0.1758699
vn 0.1716282 0.9693366 -0.1758699
vn 0.1716282 0.9693366 -0.1758699
vn 0.1716282 0.9693366 -0.1758699
vn -0.0002980232 0.02374256 -0.9997181
vn -0.0002980232 0.02374256 -0.9997181
vn -0.0002980232 0.02374256 -0.9997181
vn 0.8984072 0.1253353 0.4208985
vn 0.8984072 0.1253353 0.4208985
vn 0.8984072 0.1253353 0.4208985
vn 0.9374814 0.0706315 0.3407929
vn 0.9374814 0.0706315 0.3407929
vn 0.9374814 0.0706315 0.3407929
vn 0.8905924 0.1253353 0.4371913
vn 0.8905924 0.1253353 0.4371913
vn 0.8905924 0.1253353 0.4371913
vn -0.0002980232 0.03155732 -0.9995019
vn -0.0002980232 0.03155732 -0.9995019
vn -0.0002980232 0.03155732 -0.9995019
vn 0.5779992 0.07844639 -0.812258
vn 0.5779992 0.07844639 -0.812258
vn 0.5779992 0.07844639 -0.812258
vn -0.03937221 0.09407604 0.9947861
vn -0.03937221 0.09407604 0.9947861
vn -0.03937221 0.09407604 0.9947861
vn 0.8671479 0.03937221 -0.496492
vn 0.8671479 0.03937221 -0.496492
vn 0.8671479 0.03937221 -0.496492
vn 0.09347993 0.04718697 -0.9945023
vn 0.09347993 0.04718697 -0.9945023
vn 0.09347993 0.04718697 -0.9945023
vn 0.8749627 0.03937221 -0.4825868
vn 0.8749627 0.03937221 -0.4825868
vn 0.8749627 0.03937221 -0.4825868
vn -0.6723732 0.04718697 0.7387068
vn -0.6723732 0.04718697 0.7387068
vn -0.6723732 0.04718697 0.7387068
vn -0.6723732 0.04718697 0.7387068
vn -0.7192622 0.04718697 0.6931344
vn -0.7192622 0.04718697 0.6931344
vn -0.7192622 0.04718697 0.6931344
vn 0.7108513 -0.007516861 -0.7033021
vn 0.7108513 -0.007516861 -0.7033021
vn 0.7108513 -0.007516861 -0.7033021
vn 0.6717772 -0.007516861 -0.7407151
vn 0.6717772 -0.007516861 -0.7407151
vn 0.6717772 -0.007516861 -0.7407151
vn -0.9146329 0.01592767 0.4039714
vn -0.9146329 0.01592767 0.4039714
vn -0.9146329 0.01592767 0.4039714
vn -0.5785953 0.0002980232 0.8156148
vn -0.5785953 0.0002980232 0.8156148
vn -0.5785953 0.0002980232 0.8156148
vn 0.6874069 0.06281662 0.7235509
vn 0.6874069 0.06281662 0.7235509
vn 0.6874069 0.06281662 0.7235509
vn 0.6874069 0.06281662 0.7235509
vn 0.3279248 0.9302626 -0.1645506
vn 0.3279248 0.9302626 -0.1645506
vn 0.3279248 0.9302626 -0.1645506
vn 0.3279248 0.9302626 -0.1645506
vn 0.3279248 0.9302626 -0.1645506
vn 0.3279248 0.9302626 -0.1645506
vn 0.3279248 0.9302626 -0.1645506
vn -0.9380773 -0.007516861 -0.3463444
vn -0.9380773 -0.007516861 -0.3463444
vn -0.9380773 -0.007516861 -0.3463444
vn -0.906818 -0.03877616 -0.419735
vn -0.906818 -0.03877616 -0.419735
vn -0.906818 -0.03877616 -0.419735
vn -0.8990033 -0.03096133 -0.4368461
vn -0.8990033 -0.03096133 -0.4368461
vn -0.8990033 -0.03096133 -0.4368461
vn -0.8599291 0.03155732 0.509437
vn -0.8599291 0.03155732 0.509437
vn -0.8599291 0.03155732 0.509437
g Rock_Chunk_03_0
f 3/3/3 2/2/2 1/1/1
f 6/6/6 5/5/5 4/4/4
f 9/9/9 8/8/8 7/7/7
f 12/12/12 11/11/11 10/10/10
f 15/15/15 14/14/14 13/13/13
f 18/18/18 17/17/17 16/16/16
f 21/21/21 20/20/20 19/19/19
f 24/24/24 23/23/23 22/22/22
f 22/22/22 25/25/25 24/24/24
f 25/25/25 26/26/26 24/24/24
f 25/25/25 27/27/27 26/26/26
f 27/27/27 28/28/28 26/26/26
f 24/24/24 26/26/26 29/29/29
f 32/32/32 31/31/31 30/30/30
f 35/35/35 34/34/34 33/33/33
f 38/38/38 37/37/37 36/36/36
f 41/41/41 40/40/40 39/39/39
f 44/44/44 43/43/43 42/42/42
f 47/47/47 46/46/46 45/45/45
f 50/50/50 49/49/49 48/48/48
f 53/53/53 52/52/52 51/51/51
f 56/56/56 55/55/55 54/54/54
f 59/59/59 58/58/58 57/57/57
f 62/62/62 61/61/61 60/60/60
f 65/65/65 64/64/64 63/63/63
f 68/68/68 67/67/67 66/66/66
f 71/71/71 70/70/70 69/69/69
f 74/74/74 73/73/73 72/72/72
f 77/77/77 76/76/76 75/75/75
f 75/75/75 78/78/78 77/77/77
f 75/75/75 79/79/79 78/78/78
f 75/75/75 80/80/80 79/79/79
f 80/80/80 81/81/81 79/79/79
f 82/82/82 79/79/79 81/81/81
f 81/81/81 83/83/83 82/82/82
f 83/83/83 81/81/81 80/80/80
f 80/80/80 84/84/84 83/83/83
f 82/82/82 83/83/83 84/84/84
f 80/80/80 85/85/85 84/84/84
f 85/85/85 86/86/86 84/84/84
f 85/85/85 87/87/87 86/86/86
f 78/78/78 79/79/79 88/88/88
f 79/79/79 82/82/82 88/88/88
f 82/82/82 84/84/84 88/88/88
f 88/88/88 89/89/89 78/78/78
f 92/92/92 91/91/91 90/90/90
f 90/90/90 93/93/93 92/92/92
f 96/96/96 95/95/95 94/94/94
f 99/99/99 98/98/98 97/97/97
f 102/102/102 101/101/101 100/100/100
f 100/100/100 103/103/103 102/102/102
f 103/103/103 104/104/104 102/102/102
f 107/107/107 106/106/106 105/105/105
f 110/110/110 109/109/109 108/108/108
f 113/113/113 112/112/112 111/111/111
f 116/116/116 115/115/115 114/114/114
f 119/119/119 118/118/118 117/117/117
f 122/122/122 121/121/121 120/120/120
f 125/125/125 124/124/124 123/123/123
f 128/128/128 127/127/127 126/126/126
f 131/131/131 130/130/130 129/129/129
f 134/134/134 133/133/133 132/132/132
f 137/137/137 136/136/136 135/135/135
f 135/135/135 138/138/138 137/137/137
f 141/141/141 140/140/140 139/139/139
f 144/144/144 143/143/143 142/142/142
f 147/147/147 146/146/146 145/145/145
f 150/150/150 149/149/149 148/148/148
f 153/153/153 152/152/152 151/151/151
f 156/156/156 155/155/155 154/154/154
f 154/154/154 157/157/157 156/156/156
f 160/160/160 159/159/159 158/158/158
f 158/158/158 161/161/161 160/160/160
f 158/158/158 162/162/162 161/161/161
f 158/158/158 163/163/163 162/162/162
f 163/163/163 164/164/164 162/162/162
f 167/167/167 166/166/166 165/165/165
f 170/170/170 169/169/169 168/168/168
f 173/173/173 172/172/172 171/171/171
f 176/176/176 175/175/175 174/174/174
