g Rock_Flat_m_08
v 0.7046242 -0.07125992 1.043081E-05
v 0.143074 -0.4524051 1.043081E-05
v 0.71191 -0.2451186 0.1160612
v 0.1171931 0.4222605 1.043081E-05
v 0.7046242 -0.07125992 1.043081E-05
v 0.4726531 0.4000552 1.043081E-05
v 0.6455766 0.2570577 1.043081E-05
v 0.143074 -0.4524051 1.043081E-05
v -0.345901 0.2527297 1.043081E-05
v -0.5412257 -0.2996425 0.02186781
v 0.4144319 -0.4809393 0.1982493
v 0.143074 -0.4524051 1.043081E-05
v -0.3768059 -0.4809393 0.1579926
v -0.5412257 -0.2996425 0.02186781
v -0.345901 0.2527297 1.043081E-05
v -0.7034923 -0.02691442 0.07456475
v -0.7099516 0.2142999 0.08752704
v -0.5325263 0.4021865 0.2472056
v -0.713388 0.02989304 0.1578186
v -0.7099516 0.2142999 0.08752704
v -0.7099516 0.2142999 0.08752704
v -0.345901 0.2527297 1.043081E-05
v -0.5325263 0.4021865 0.2472056
v -0.5325263 0.4021865 0.2472056
v -0.1030772 0.4363536 0.1101239
v 0.6020793 0.1995108 0.2614075
v 0.4143014 -0.3866806 0.2724558
v 0.6453156 -0.04607499 0.2659747
v 0.71191 -0.2451186 0.1160612
v -0.7099516 0.2142999 0.08752704
v -0.713388 0.02989304 0.1578186
v -0.7034923 -0.02691442 0.07456475
v 0.4143014 -0.3866806 0.2724558
v 0.4144319 -0.4809393 0.1982493
v -0.3768059 -0.4809393 0.1579926
v -0.5412257 -0.2996425 0.02186781
v -0.459603 -0.2984246 0.2713249
v -0.3768059 -0.4809393 0.1579926
v -0.7034923 -0.02691442 0.07456475
v -0.713388 0.02989304 0.1578186
v 0.6453156 -0.04607499 0.2659747
v 0.4143014 -0.3866806 0.2724558
v 0.6020793 0.1995108 0.2614075
v -0.459603 -0.2984246 0.2713249
v -0.5325263 0.4021865 0.2472056
v -0.713388 0.02989304 0.1578186
v -0.5325263 0.4021865 0.2472056
v -0.459603 -0.2984246 0.2713249
v 0.1171931 0.4222605 1.043081E-05
v -0.1030772 0.4363536 0.1101239
v -0.345901 0.2527297 1.043081E-05
v -0.5325263 0.4021865 0.2472056
v -0.345901 0.2527297 1.043081E-05
v -0.1030772 0.4363536 0.1101239
v 0.71191 -0.2451186 0.1160612
v 0.6453156 -0.04607499 0.2659747
v 0.7046242 -0.07125992 1.043081E-05
v 0.6020793 0.1995108 0.2614075
v 0.6455766 0.2570577 1.043081E-05
v 0.6455766 0.2570577 1.043081E-05
v 0.6020793 0.1995108 0.2614075
v 0.4726531 0.4000552 1.043081E-05
v 0.4726531 0.4000552 1.043081E-05
v 0.6020793 0.1995108 0.2614075
v -0.1030772 0.4363536 0.1101239
v 0.1171931 0.4222605 1.043081E-05
v 0.4726531 0.4000552 1.043081E-05
v -0.1030772 0.4363536 0.1101239
v 0.4143014 -0.3866806 0.2724558
v 0.71191 -0.2451186 0.1160612
v 0.4144319 -0.4809393 0.1982493
v 0.4143014 -0.3866806 0.2724558
v -0.3768059 -0.4809393 0.1579926
v -0.459603 -0.2984246 0.2713249
v -0.3768059 -0.4809393 0.1579926
v 0.143074 -0.4524051 1.043081E-05
v -0.5412257 -0.2996425 0.02186781
v 0.71191 -0.2451186 0.1160612
v 0.143074 -0.4524051 1.043081E-05
v 0.4144319 -0.4809393 0.1982493
vn 0.3494934 -0.5130678 -0.7839743
vn 0.3494934 -0.5130678 -0.7839743
vn 0.3494934 -0.5130678 -0.7839743
vn -0.001023233 0.001023233 -0.9999989
vn -0.001023233 0.001023233 -0.9999989
vn -0.001023233 0.001023233 -0.9999989
vn -0.001023233 0.001023233 -0.9999989
vn -0.03996956 -0.02234453 -0.998951
vn -0.03996956 -0.02234453 -0.998951
vn -0.03996956 -0.02234453 -0.998951
vn 0.006766021 -0.9882126 -0.1529383
vn 0.006766021 -0.9882126 -0.1529383
vn 0.006766021 -0.9882126 -0.1529383
vn -0.234701 0.04775882 -0.9708937
vn -0.234701 0.04775882 -0.9708937
vn -0.234701 0.04775882 -0.9708937
vn -0.234701 0.04775882 -0.9708937
vn -0.7799491 0.234701 0.5801679
vn -0.7799491 0.234701 0.5801679
vn -0.7799491 0.234701 0.5801679
vn -0.2269118 0.7487921 -0.6227532
vn -0.2269118 0.7487921 -0.6227532
vn -0.2269118 0.7487921 -0.6227532
vn 0.1313941 0.7799491 0.6118946
vn 0.1313941 0.7799491 0.6118946
vn 0.1313941 0.7799491 0.6118946
vn 0.5675926 -0.3650719 0.7379439
vn 0.5675926 -0.3650719 0.7379439
vn 0.5675926 -0.3650719 0.7379439
vn -0.9980483 -0.02234453 -0.05831206
vn -0.9980483 -0.02234453 -0.05831206
vn -0.9980483 -0.02234453 -0.05831206
vn -0.03996956 -0.6143281 0.7880377
vn -0.03996956 -0.6143281 0.7880377
vn -0.03996956 -0.6143281 0.7880377
vn -0.8033168 -0.5286463 0.2742538
vn -0.8033168 -0.5286463 0.2742538
vn -0.8033168 -0.5286463 0.2742538
vn -0.8033168 -0.5286463 0.2742538
vn -0.8033168 -0.5286463 0.2742538
vn -0.001023233 0.0166018 0.9998617
vn -0.001023233 0.0166018 0.9998617
vn -0.001023233 0.0166018 0.9998617
vn -0.001023233 0.0166018 0.9998617
vn -0.008812547 0.03218031 0.9994432
vn -0.4216433 -0.01455528 0.906645
vn -0.4216433 -0.01455528 0.906645
vn -0.4216433 -0.01455528 0.906645
vn -0.2658581 0.7332135 -0.6258733
vn -0.2658581 0.7332135 -0.6258733
vn -0.2658581 0.7332135 -0.6258733
vn -0.2580688 0.7254243 -0.638091
vn -0.2580688 0.7254243 -0.638091
vn -0.2580688 0.7254243 -0.638091
vn 0.9648448 0.172387 0.1983864
vn 0.9648448 0.172387 0.1983864
vn 0.9648448 0.172387 0.1983864
vn 0.9648448 0.172387 0.1983864
vn 0.9648448 0.172387 0.1983864
vn 0.6143281 0.7410028 0.2711379
vn 0.6143281 0.7410028 0.2711379
vn 0.6143281 0.7410028 0.2711379
vn 0.1547619 0.8188953 0.5526837
vn 0.1547619 0.8188953 0.5526837
vn 0.1547619 0.8188953 0.5526837
vn 0.06129086 0.9980483 -0.01195791
vn 0.06129086 0.9980483 -0.01195791
vn 0.06129086 0.9980483 -0.01195791
vn 0.5753819 -0.5052786 0.6431401
vn 0.5753819 -0.5052786 0.6431401
vn 0.5753819 -0.5052786 0.6431401
vn -0.05554807 -0.5442249 0.8370984
vn -0.05554807 -0.5442249 0.8370984
vn -0.05554807 -0.5442249 0.8370984
vn -0.172387 -0.6844315 -0.7084041
vn -0.172387 -0.6844315 -0.7084041
vn -0.172387 -0.6844315 -0.7084041
vn 0.3806504 -0.6922207 -0.6131359
vn 0.3806504 -0.6922207 -0.6131359
vn 0.3806504 -0.6922207 -0.6131359
g Rock_Flat_m_08_0
f 3/3/3 2/2/2 1/1/1
f 6/6/6 5/5/5 4/4/4
f 7/7/7 5/5/5 6/6/6
f 4/4/4 5/5/5 8/8/8
f 9/9/9 4/4/4 8/8/8
f 10/10/10 9/9/9 8/8/8
f 13/13/13 12/12/12 11/11/11
f 16/16/16 15/15/15 14/14/14
f 15/15/15 16/16/16 17/17/17
f 20/20/20 19/19/19 18/18/18
f 23/23/23 22/22/22 21/21/21
f 26/26/26 25/25/25 24/24/24
f 29/29/29 28/28/28 27/27/27
f 32/32/32 31/31/31 30/30/30
f 35/35/35 34/34/34 33/33/33
f 38/38/38 37/37/37 36/36/36
f 36/36/36 37/37/37 39/39/39
f 40/40/40 39/39/39 37/37/37
f 43/43/43 42/42/42 41/41/41
f 44/44/44 42/42/42 43/43/43
f 45/45/45 44/44/44 43/43/43
f 48/48/48 47/47/47 46/46/46
f 51/51/51 50/50/50 49/49/49
f 54/54/54 53/53/53 52/52/52
f 57/57/57 56/56/56 55/55/55
f 58/58/58 56/56/56 57/57/57
f 59/59/59 58/58/58 57/57/57
f 62/62/62 61/61/61 60/60/60
f 65/65/65 64/64/64 63/63/63
f 68/68/68 67/67/67 66/66/66
f 71/71/71 70/70/70 69/69/69
f 74/74/74 73/73/73 72/72/72
f 77/77/77 76/76/76 75/75/75
f 80/80/80 79/79/79 78/78/78
