g Rock_Medium_Tall_Snow_01
v 7.013366 15.51835 1.638732
v -4.916759 2.074667 6.809637
v -6.634967 5.051093 2.144979
v 4.042121 0.1055574 -1.214832
v 3.641712 0.799057 5.992165
v 5.76588 13.88563 4.319106
v -3.718862 8.773804E-05 -6.259175
v -6.07987 4.089295 -4.920653
v -5.32383 0.1577358 1.040709
v 5.76588 13.88563 4.319106
v 7.33014 3.702579 0.64363
v 4.042121 0.1055574 -1.214832
v 4.042121 0.1055574 -1.214832
v -5.32383 0.1577358 1.040709
v 3.641712 0.799057 5.992165
v 6.934912 4.386456 -3.035177
v 7.33014 3.702579 0.64363
v 8.733793 14.61503 1.433717
v 3.641712 0.799057 5.992165
v -5.32383 0.1577358 1.040709
v -4.916759 2.074667 6.809637
v 8.733793 14.61503 1.433717
v 4.26749 6.794835 -4.920653
v 6.934912 4.386456 -3.035177
v 3.947385 14.36227 4.62959
v 5.76588 13.88563 4.319106
v -4.916759 2.074667 6.809637
v 6.934912 4.386456 -3.035177
v 4.042121 0.1055574 -1.214832
v 7.33014 3.702579 0.64363
v 4.26749 6.794835 -4.920653
v -3.718862 8.773804E-05 -6.259175
v 6.934912 4.386456 -3.035177
v 4.26749 6.794835 -4.920653
v -6.07987 4.089295 -4.920653
v -3.718862 8.773804E-05 -6.259175
v 7.33014 3.702579 0.64363
v 5.76588 13.88563 4.319106
v 8.733793 14.61503 1.433717
v 7.013366 15.51835 1.638732
v 4.26749 6.794835 -4.920653
v 8.733793 14.61503 1.433717
v 5.76588 13.88563 4.319106
v 3.641712 0.799057 5.992165
v -4.916759 2.074667 6.809637
v -5.32383 0.1577358 1.040709
v -6.634967 5.051093 2.144979
v -4.916759 2.074667 6.809637
v 6.934912 4.386456 -3.035177
v -3.718862 8.773804E-05 -6.259175
v 4.042121 0.1055574 -1.214832
v 8.733793 14.61503 1.433717
v 5.76588 13.88563 4.319106
v 3.947385 14.36227 4.62959
v 7.013366 15.51835 1.638732
v -6.07987 4.089295 -4.920653
v 4.26749 6.794835 -4.920653
v 4.042121 0.1055574 -1.214832
v -3.718862 8.773804E-05 -6.259175
v -5.32383 0.1577358 1.040709
v 7.013366 15.51835 1.638732
v 3.947385 14.36227 4.62959
v -4.916759 2.074667 6.809637
v 7.013366 15.51835 1.638732
v 8.733793 14.61503 1.433717
v 3.947385 14.36227 4.62959
v -6.07987 4.089295 -4.920653
v -6.634967 5.051093 2.144979
v -5.32383 0.1577358 1.040709
v 7.013366 15.51835 1.638732
v -6.634967 5.051093 2.144979
v -6.07987 4.089295 -4.920653
vn -0.4766796 0.653359 0.5881314
vn -0.4766796 0.653359 0.5881314
vn -0.4766796 0.653359 0.5881314
vn 0.6064417 -0.3606269 0.7086442
vn 0.9828457 -0.1532207 0.1026539
vn 0.6064417 -0.3606269 0.7086442
vn -0.5150883 -0.8522565 -0.0913396
vn -0.9299007 -0.3529452 -0.1035101
vn -0.5919053 -0.8061663 0
vn 0.6064417 -0.3606269 0.7086442
vn -0.1386843 -0.3529452 0.9253088
vn 0.6064417 -0.3606269 0.7086442
vn 0.007268131 -0.9982091 0.0593789
vn -0.5919053 -0.8061663 0
vn -0.04650384 -0.9751639 0.2165471
vn 0.9828457 -0.1148122 -0.1443349
vn 0.9367554 -0.145539 0.3182888
vn 0.9367554 -0.145539 0.3182888
vn -0.04650384 -0.9751639 0.2165471
vn -0.5919053 -0.8061663 0
vn -0.6226322 -0.7293491 0.2835118
vn 0.4528075 0.3921809 -0.8007244
vn 0.4528075 0.3921809 -0.8007244
vn 0.6755772 0.1924563 -0.7117275
vn 0.1762659 0.04650384 0.9832435
vn 0.145539 0.07723063 0.9863335
vn 0.145539 0.07723063 0.9863335
vn 0.7754394 -0.6064417 -0.175847
vn 0.7754394 -0.6064417 -0.175847
vn 0.7754394 -0.6064417 -0.175847
vn 0.3759904 -0.2684464 -0.8868866
vn 0.3759904 -0.2684464 -0.8868866
vn 0.3759904 -0.2684464 -0.8868866
vn -0.0695489 0.2692735 -0.9605492
vn -0.0695489 0.2692735 -0.9605492
vn -0.0695489 0.2692735 -0.9605492
vn 0.9367554 -0.145539 0.3182888
vn 0.706304 -0.1378573 0.6943559
vn 0.9367554 -0.145539 0.3182888
vn 0.1916293 0.5534968 -0.8105057
vn 0.4528075 0.3921809 -0.8007244
vn 0.4528075 0.3921809 -0.8007244
vn 0.145539 0.07723063 0.9863335
vn 0.1071305 0.1079575 0.9883664
vn 0.145539 0.07723063 0.9863335
vn -0.5919053 -0.8061663 0
vn -0.9606275 -0.2684464 0.07163344
vn -0.6226322 -0.7293491 0.2835118
vn 0.4451258 -0.5910783 -0.6726734
vn 0.4451258 -0.5910783 -0.6726734
vn 0.4451258 -0.5910783 -0.6726734
vn 0.3529452 0.7224944 0.5945011
vn 0.2991732 0.8069933 0.509173
vn 0.3529452 0.7224944 0.5945011
vn -0.1617295 0.6226322 -0.7656192
vn -0.1617295 0.6226322 -0.7656192
vn -0.1617295 0.6226322 -0.7656192
vn 0.007268131 -0.9982091 0.0593789
vn -0.5150883 -0.8522565 -0.0913396
vn -0.5919053 -0.8061663 0
vn -0.7148127 0.4152259 -0.5626991
vn -0.7148127 0.4152259 -0.5626991
vn -0.7148127 0.4152259 -0.5626991
vn 0.4067172 0.6303139 0.6612756
vn 0.3529452 0.7224944 0.5945011
vn 0.3529452 0.7224944 0.5945011
vn -0.9299007 -0.3529452 -0.1035101
vn -0.9606275 -0.2684464 0.07163344
vn -0.5919053 -0.8061663 0
vn -0.6072688 0.7839481 -0.1290347
vn -0.6072688 0.7839481 -0.1290347
vn -0.6072688 0.7839481 -0.1290347
g Rock_Medium_Tall_Snow_01_0
f 3/3/3 2/2/2 1/1/1
f 6/6/6 5/5/5 4/4/4
f 9/9/9 8/8/8 7/7/7
f 12/12/12 11/11/11 10/10/10
f 15/15/15 14/14/14 13/13/13
f 18/18/18 17/17/17 16/16/16
f 21/21/21 20/20/20 19/19/19
f 24/24/24 23/23/23 22/22/22
f 27/27/27 26/26/26 25/25/25
f 30/30/30 29/29/29 28/28/28
f 33/33/33 32/32/32 31/31/31
f 36/36/36 35/35/35 34/34/34
f 39/39/39 38/38/38 37/37/37
f 42/42/42 41/41/41 40/40/40
f 45/45/45 44/44/44 43/43/43
f 48/48/48 47/47/47 46/46/46
f 51/51/51 50/50/50 49/49/49
f 54/54/54 53/53/53 52/52/52
f 57/57/57 56/56/56 55/55/55
f 60/60/60 59/59/59 58/58/58
f 63/63/63 62/62/62 61/61/61
f 66/66/66 65/65/65 64/64/64
f 69/69/69 68/68/68 67/67/67
f 72/72/72 71/71/71 70/70/70
