# Exported from Unity
# 10/3/2025 10:18:19 AM
mtllib rock_5.mtl
v 20.03048 0.01676875 156.0757
v 20.44277 -0.6819838 156.6266
v 20.72264 1.073991 156.7912
v 19.93017 1.029485 154.8991
v 20.02989 1.04971 152.7047
v 19.74517 -0.1845076 152.729
v 20.03048 0.01676875 156.0757
v 19.93017 1.029485 154.8991
v 19.74517 -0.1845076 152.729
v 19.98574 1.029485 155.551
v 22.35052 1.18809 156.9049
v 20.72264 1.073991 156.7912
v 20.44277 -0.6819838 156.6266
v 22.82872 0.9691489 152.8797
v 23.15177 1.033413 156.6693
v 22.91652 -0.6819832 153.9097
v 23.09439 -0.6819836 155.9962
v 23.17677 -0.353101 156.9626
v 20.03048 0.01676875 156.0757
v 20.72264 1.073991 156.7912
v 19.98574 1.029485 155.551
v 20.03076 -0.6819829 153.1088
v 20.44277 -0.6819838 156.6266
v 20.03048 0.01676875 156.0757
v 22.82872 0.9691489 152.8797
v 22.58475 1.229493 152.765
v 23.15177 1.033413 156.6693
v 20.72264 1.073991 156.7912
v 19.93017 1.029485 154.8991
v 19.98574 1.029485 155.551
v 22.35052 1.18809 156.9049
v 22.18081 1.202473 152.5213
v 20.02989 1.04971 152.7047
v 22.58475 1.229493 152.765
v 19.74517 -0.1845076 152.729
v 20.02989 1.04971 152.7047
v 22.18081 1.202473 152.5213
v 22.38706 0.004646286 152.5038
v 20.03076 -0.6819829 153.1088
v 19.74517 -0.1845076 152.729
v 22.38706 0.004646286 152.5038
v 22.58475 1.229493 152.765
v 22.38706 0.004646286 152.5038
v 22.18081 1.202473 152.5213
v 22.82872 0.9691489 152.8797
v 22.35052 1.18809 156.9049
v 23.15177 1.033413 156.6693
v 22.58475 1.229493 152.765
v 22.35052 1.18809 156.9049
v 23.17677 -0.353101 156.9626
v 23.15177 1.033413 156.6693
v 23.17677 -0.353101 156.9626
v 22.35052 1.18809 156.9049
v 20.44277 -0.6819838 156.6266
v 22.82872 0.9691489 152.8797
v 22.91652 -0.6819832 153.9097
v 22.38706 0.004646286 152.5038
v 22.91652 -0.6819832 153.9097
v 23.09439 -0.6819836 155.9962
v 20.44277 -0.6819838 156.6266
v 20.03076 -0.6819829 153.1088
v 20.03076 -0.6819829 153.1088
v 20.03048 0.01676875 156.0757
v 19.74517 -0.1845076 152.729
v 20.03076 -0.6819829 153.1088
v 22.38706 0.004646286 152.5038
v 22.91652 -0.6819832 153.9097
v 23.17677 -0.353101 156.9626
v 20.44277 -0.6819838 156.6266
v 23.09439 -0.6819836 155.9962
vn -0.7452416 0.2091151 0.6331555
vn -0.7452416 0.2091152 0.6331555
vn -0.7452416 0.2091151 0.6331555
vn -0.7772579 0.6282805 -0.03367353
vn -0.7772579 0.6282805 -0.03367353
vn -0.7772579 0.6282805 -0.03367353
vn -0.9963861 0 0.08493941
vn -0.9963861 0 0.08493941
vn -0.9963861 0 0.08493941
vn -0.9963861 0 0.08493941
vn -0.06128819 -0.2812155 0.9576855
vn -0.06128821 -0.2812155 0.9576855
vn -0.06128819 -0.2812155 0.9576855
vn 0.9963861 0 -0.08493941
vn 0.9963861 0 -0.08493941
vn 0.9963861 0 -0.08493941
vn 0.9963861 0 -0.08493941
vn 0.9963861 0 -0.08493941
vn -0.6786578 0.61794 0.3969555
vn -0.6786578 0.61794 0.3969555
vn -0.6786578 0.61794 0.3969555
vn -0.4952164 -0.8668314 0.05800082
vn -0.4952164 -0.8668314 0.05800082
vn -0.4952164 -0.8668313 0.05800082
vn 0.303296 0.9524098 -0.03044764
vn 0.303296 0.9524098 -0.03044764
vn 0.303296 0.9524098 -0.03044764
vn -0.02004539 0.9997976 0.001708801
vn -0.0200454 0.9997976 0.001708801
vn -0.02004539 0.9997976 0.001708801
vn -0.02004453 0.9997976 0.001708727
vn -0.02004437 0.9997976 0.001708714
vn -0.02004438 0.9997976 0.001708715
vn -0.02004709 0.9997976 0.001708945
vn -0.08493901 2.235605E-07 -0.9963862
vn -0.08493901 2.235605E-07 -0.9963862
vn -0.08493901 2.235605E-07 -0.9963862
vn -0.08493901 2.235605E-07 -0.9963862
vn -0.0100524 -0.9395398 -0.3422922
vn -0.0100524 -0.9395398 -0.3422922
vn -0.0100524 -0.9395398 -0.3422922
vn 0.4822047 0.3338304 -0.8099605
vn 0.4822047 0.3338304 -0.8099604
vn 0.4822047 0.3338304 -0.8099604
vn 0.4822084 0.3338276 -0.8099594
vn 0.05657628 0.99838 0.006039891
vn 0.05657628 0.99838 0.006039891
vn 0.05657628 0.99838 0.006039891
vn 0.2578141 0.5871527 0.7673225
vn 0.2578141 0.5871527 0.7673225
vn 0.2578141 0.5871527 0.7673225
vn -0.118299 -0.09285928 0.9886266
vn -0.118299 -0.09285928 0.9886266
vn -0.118299 -0.09285928 0.9886266
vn 0.6902011 -0.6344343 -0.3480167
vn 0.690201 -0.6344343 -0.3480167
vn 0.690201 -0.6344343 -0.3480167
vn 6.225606E-08 -1 1.283817E-08
vn 6.225606E-08 -1 1.283817E-08
vn 6.225606E-08 -1 1.283817E-08
vn 6.225606E-08 -1 1.283817E-08
vn -0.5036528 -0.8619787 0.05767507
vn -0.5036528 -0.8619787 0.05767507
vn -0.5036528 -0.8619787 0.05767507
vn 0.04248852 -0.9872973 -0.1530975
vn 0.04248852 -0.9872973 -0.1530975
vn 0.04248852 -0.9872973 -0.1530975
vn 0.0224428 -0.9952811 0.09440272
vn 0.02244279 -0.9952811 0.09440272
vn 0.02244279 -0.9952811 0.09440272
f 1/1/1 2/2/2 3/3/3
f 4/4/4 5/5/5 6/6/6
f 7/7/7 8/8/8 9/9/9
f 10/10/10 8/8/8 7/7/7
f 11/11/11 12/12/12 13/13/13
f 14/14/14 15/15/15 16/16/16
f 16/16/16 15/15/15 17/17/17
f 18/18/18 17/17/17 15/15/15
f 19/19/19 20/20/20 21/21/21
f 22/22/22 23/23/23 24/24/24
f 25/25/25 26/26/26 27/27/27
f 28/28/28 29/29/29 30/30/30
f 29/29/29 28/28/28 31/31/31
f 29/29/29 31/31/31 32/32/32
f 29/29/29 32/32/32 33/33/33
f 31/31/31 34/34/34 32/32/32
f 35/35/35 36/36/36 37/37/37
f 35/35/35 37/37/37 38/38/38
f 39/39/39 40/40/40 41/41/41
f 42/42/42 43/43/43 44/44/44
f 45/45/45 43/43/43 42/42/42
f 46/46/46 47/47/47 48/48/48
f 49/49/49 50/50/50 51/51/51
f 52/52/52 53/53/53 54/54/54
f 55/55/55 56/56/56 57/57/57
f 58/58/58 59/59/59 60/60/60
f 58/58/58 60/60/60 61/61/61
f 62/62/62 63/63/63 64/64/64
f 65/65/65 66/66/66 67/67/67
f 68/68/68 69/69/69 70/70/70
