g Rock_Chunk_Small_02
v 1.385308 4.724306 3.987894
v -0.04322243 4.724306 1.513674
v 1.385308 4.724306 -0.9605465
v 4.242367 4.724306 3.987894
v 4.242367 4.724306 -0.9605465
v 5.670897 4.724306 1.513674
v 4.693626 3.606636 -1.742044
v 6.573021 3.606636 1.513674
v 5.670897 4.724306 1.513674
v 4.242367 4.724306 -0.9605465
v -6.982584 3.606636 -5.676038
v -9.770432 3.606636 -0.847434
v -12.23279 0.0001125336 -1.33508
v -8.791185 0.0001125336 -7.295987
v -8.791185 0.0001125336 -7.295987
v -12.23279 0.0001125336 -1.33508
v -8.791185 0.0001125336 4.626223
v -1.907587 0.0001125336 4.626223
v -1.907587 0.0001125336 -7.295987
v 0.8106537 0.0001125336 -2.587614
v -1.592772 0.0001125336 4.080439
v 1.684698 0.0001125336 9.756985
v 1.684698 0.0001125336 -4.101175
v 9.68557 0.0001125336 -4.101175
v 9.68557 0.0001125336 9.756985
v 13.68601 0.0001125336 2.827906
v 13.68601 0.0001125336 2.827906
v 9.68557 0.0001125336 9.756985
v 7.983358 3.606636 8.136641
v 11.22365 3.606636 2.524164
v 9.68557 0.0001125336 -4.101175
v 13.68601 0.0001125336 2.827906
v 11.22365 3.606636 2.524164
v 7.983358 3.606636 -3.088311
v -6.982584 3.606636 3.981169
v -8.791185 0.0001125336 4.626223
v -12.23279 0.0001125336 -1.33508
v -9.770432 3.606636 -0.847434
v 0.8106537 0.0001125336 -2.587614
v 0.7948332 3.606636 -1.862275
v -1.407286 3.606636 -5.676038
v -1.907587 0.0001125336 -7.295987
v 1.502375 3.606636 8.136641
v -1.152191 3.606636 3.539005
v -0.9453478 3.606636 1.513674
v 0.9344425 3.606636 4.768995
v 4.693626 3.606636 4.768995
v 7.983358 3.606636 8.136641
v 6.573021 3.606636 1.513674
v -1.407286 3.606636 -5.676038
v -1.407286 3.606636 3.981169
v -6.982584 3.606636 -5.676038
v -6.982584 3.606636 3.981169
v -9.770432 3.606636 -0.847434
v 0.7948332 3.606636 -1.862275
v 0.9344425 3.606636 -1.742044
v 1.502375 3.606636 -3.088311
v 4.693626 3.606636 -1.742044
v 7.983358 3.606636 -3.088311
v 11.22365 3.606636 2.524164
v -1.592772 0.0001125336 4.080439
v -1.907587 0.0001125336 4.626223
v -1.407286 3.606636 3.981169
v -1.152191 3.606636 3.539005
v -1.407286 3.606636 3.981169
v -1.907587 0.0001125336 4.626223
v -8.791185 0.0001125336 4.626223
v -6.982584 3.606636 3.981169
v 1.385308 4.724306 -0.9605465
v 0.9344425 3.606636 -1.742044
v 4.693626 3.606636 -1.742044
v 4.242367 4.724306 -0.9605465
v 6.573021 3.606636 1.513674
v 4.693626 3.606636 4.768995
v 4.242367 4.724306 3.987894
v 5.670897 4.724306 1.513674
v 1.502375 3.606636 -3.088311
v 0.7948332 3.606636 -1.862275
v 0.8106537 0.0001125336 -2.587614
v 1.684698 0.0001125336 -4.101175
v 1.502375 3.606636 8.136641
v 1.684698 0.0001125336 9.756985
v -1.592772 0.0001125336 4.080439
v -1.152191 3.606636 3.539005
v 1.385308 4.724306 3.987894
v 0.9344425 3.606636 4.768995
v -0.9453478 3.606636 1.513674
v -0.04322243 4.724306 1.513674
v 7.983358 3.606636 8.136641
v 9.68557 0.0001125336 9.756985
v 1.684698 0.0001125336 9.756985
v 1.502375 3.606636 8.136641
v 4.242367 4.724306 3.987894
v 4.693626 3.606636 4.768995
v 0.9344425 3.606636 4.768995
v 1.385308 4.724306 3.987894
v -6.982584 3.606636 -5.676038
v -8.791185 0.0001125336 -7.295987
v -1.907587 0.0001125336 -7.295987
v -1.407286 3.606636 -5.676038
v 1.502375 3.606636 -3.088311
v 1.684698 0.0001125336 -4.101175
v 9.68557 0.0001125336 -4.101175
v 7.983358 3.606636 -3.088311
v 1.385308 4.724306 -0.9605465
v -0.04322243 4.724306 1.513674
v -0.9453478 3.606636 1.513674
v 0.9344425 3.606636 -1.742044
vn -0.003921628 0.9999924 0
vn -0.003921628 0.9999924 0
vn -0.003921628 0.9999924 0
vn -0.003921628 0.9999924 0
vn -0.003921628 0.9999924 0
vn -0.003921628 0.9999924 0
vn 0.7097985 0.5764662 -0.4048121
vn 0.7097985 0.5764662 -0.4048121
vn 0.7097985 0.5764662 -0.4048121
vn 0.7097985 0.5764662 -0.4048121
vn -0.7254847 0.552937 -0.4097957
vn -0.7254847 0.552937 -0.4097957
vn -0.7254847 0.552937 -0.4097957
vn -0.7254847 0.552937 -0.4097957
vn -0.003921628 -0.9999924 0
vn -0.003921628 -0.9999924 0
vn -0.003921628 -0.9999924 0
vn -0.003921628 -0.9999924 0
vn -0.003921628 -0.9999924 0
vn -0.003921628 -0.9999924 0
vn -0.003921628 -0.9999924 0
vn -0.003921628 -0.9999924 0
vn -0.003921628 -0.9999924 0
vn -0.003921628 -0.9999924 0
vn -0.003921628 -0.9999924 0
vn -0.003921628 -0.9999924 0
vn 0.7333277 0.5372509 0.4166436
vn 0.7333277 0.5372509 0.4166436
vn 0.7333277 0.5372509 0.4166436
vn 0.7333277 0.5372509 0.4166436
vn 0.756857 0.4823493 -0.4410291
vn 0.756857 0.4823493 -0.4410291
vn 0.756857 0.4823493 -0.4410291
vn 0.756857 0.4823493 -0.4410291
vn -0.7647001 0.4666631 0.444364
vn -0.7647001 0.4666631 0.444364
vn -0.7647001 0.4666631 0.444364
vn -0.7647001 0.4666631 0.444364
vn 0.858817 0.1058816 -0.501221
vn 0.858817 0.1058816 -0.501221
vn 0.858817 0.1058816 -0.501221
vn 0.858817 0.1058816 -0.501221
vn -0.003921628 0.9999924 0
vn -0.003921628 0.9999924 0
vn -0.003921628 0.9999924 0
vn -0.003921628 0.9999924 0
vn -0.003921628 0.9999924 0
vn -0.003921628 0.9999924 0
vn -0.003921628 0.9999924 0
vn -0.003921628 0.9999924 0
vn -0.003921628 0.9999924 0
vn -0.003921628 0.9999924 0
vn -0.003921628 0.9999924 0
vn -0.003921628 0.9999924 0
vn -0.003921628 0.9999924 0
vn -0.003921628 0.9999924 0
vn -0.003921628 0.9999924 0
vn -0.003921628 0.9999924 0
vn -0.003921628 0.9999924 0
vn -0.003921628 0.9999924 0
vn 0.8666601 -0.02745074 0.4981434
vn 0.8666601 -0.02745074 0.4981434
vn 0.8666601 -0.02745074 0.4981434
vn 0.8666601 -0.02745074 0.4981434
vn -0.003921628 0.1764693 0.9842983
vn -0.003921628 0.1764693 0.9842983
vn -0.003921628 0.1764693 0.9842983
vn -0.003921628 0.1764693 0.9842983
vn -0.003921628 0.5764662 -0.8171116
vn -0.003921628 0.5764662 -0.8171116
vn -0.003921628 0.5764662 -0.8171116
vn -0.003921628 0.5764662 -0.8171116
vn 0.7097985 0.5764662 0.4048121
vn 0.7097985 0.5764662 0.4048121
vn 0.7097985 0.5764662 0.4048121
vn 0.7097985 0.5764662 0.4048121
vn -0.858817 0.09803855 -0.5028139
vn -0.858817 0.09803855 -0.5028139
vn -0.858817 0.09803855 -0.5028139
vn -0.858817 0.09803855 -0.5028139
vn -0.850974 0.1764693 0.4946735
vn -0.850974 0.1764693 0.4946735
vn -0.850974 0.1764693 0.4946735
vn -0.850974 0.1764693 0.4946735
vn -0.7097986 0.5764662 0.4048119
vn -0.7097986 0.5764662 0.4048119
vn -0.7097986 0.5764662 0.4048119
vn -0.7097986 0.5764662 0.4048119
vn -0.003921628 0.4117616 0.9112831
vn -0.003921628 0.4117616 0.9112831
vn -0.003921628 0.4117616 0.9112831
vn -0.003921628 0.4117616 0.9112831
vn -0.003921628 0.5764662 0.8171116
vn -0.003921628 0.5764662 0.8171116
vn -0.003921628 0.5764662 0.8171116
vn -0.003921628 0.5764662 0.8171116
vn -0.003921628 0.4117616 -0.9112831
vn -0.003921628 0.4117616 -0.9112831
vn -0.003921628 0.4117616 -0.9112831
vn -0.003921628 0.4117616 -0.9112831
vn -0.003921628 0.2705863 -0.9626877
vn -0.003921628 0.2705863 -0.9626877
vn -0.003921628 0.2705863 -0.9626877
vn -0.003921628 0.2705863 -0.9626877
vn -0.7097986 0.5764662 -0.4048119
vn -0.7097986 0.5764662 -0.4048119
vn -0.7097986 0.5764662 -0.4048119
vn -0.7097986 0.5764662 -0.4048119
g Rock_Chunk_Small_02_0
f 3/3/3 2/2/2 1/1/1
f 1/1/1 4/4/4 3/3/3
f 4/4/4 5/5/5 3/3/3
f 4/4/4 6/6/6 5/5/5
f 9/9/9 8/8/8 7/7/7
f 7/7/7 10/10/10 9/9/9
f 13/13/13 12/12/12 11/11/11
f 11/11/11 14/14/14 13/13/13
f 17/17/17 16/16/16 15/15/15
f 15/15/15 18/18/18 17/17/17
f 15/15/15 19/19/19 18/18/18
f 19/19/19 20/20/20 18/18/18
f 20/20/20 21/21/21 18/18/18
f 20/20/20 22/22/22 21/21/21
f 20/20/20 23/23/23 22/22/22
f 23/23/23 24/24/24 22/22/22
f 24/24/24 25/25/25 22/22/22
f 24/24/24 26/26/26 25/25/25
f 29/29/29 28/28/28 27/27/27
f 27/27/27 30/30/30 29/29/29
f 33/33/33 32/32/32 31/31/31
f 31/31/31 34/34/34 33/33/33
f 37/37/37 36/36/36 35/35/35
f 35/35/35 38/38/38 37/37/37
f 41/41/41 40/40/40 39/39/39
f 39/39/39 42/42/42 41/41/41
f 45/45/45 44/44/44 43/43/43
f 43/43/43 46/46/46 45/45/45
f 43/43/43 47/47/47 46/46/46
f 43/43/43 48/48/48 47/47/47
f 48/48/48 49/49/49 47/47/47
f 44/44/44 45/45/45 50/50/50
f 51/51/51 44/44/44 50/50/50
f 51/51/51 50/50/50 52/52/52
f 53/53/53 51/51/51 52/52/52
f 52/52/52 54/54/54 53/53/53
f 45/45/45 55/55/55 50/50/50
f 45/45/45 56/56/56 55/55/55
f 56/56/56 57/57/57 55/55/55
f 56/56/56 58/58/58 57/57/57
f 58/58/58 59/59/59 57/57/57
f 58/58/58 49/49/49 59/59/59
f 49/49/49 48/48/48 59/59/59
f 48/48/48 60/60/60 59/59/59
f 63/63/63 62/62/62 61/61/61
f 61/61/61 64/64/64 63/63/63
f 67/67/67 66/66/66 65/65/65
f 65/65/65 68/68/68 67/67/67
f 71/71/71 70/70/70 69/69/69
f 69/69/69 72/72/72 71/71/71
f 75/75/75 74/74/74 73/73/73
f 73/73/73 76/76/76 75/75/75
f 79/79/79 78/78/78 77/77/77
f 77/77/77 80/80/80 79/79/79
f 83/83/83 82/82/82 81/81/81
f 81/81/81 84/84/84 83/83/83
f 87/87/87 86/86/86 85/85/85
f 85/85/85 88/88/88 87/87/87
f 91/91/91 90/90/90 89/89/89
f 89/89/89 92/92/92 91/91/91
f 95/95/95 94/94/94 93/93/93
f 93/93/93 96/96/96 95/95/95
f 99/99/99 98/98/98 97/97/97
f 97/97/97 100/100/100 99/99/99
f 103/103/103 102/102/102 101/101/101
f 101/101/101 104/104/104 103/103/103
f 107/107/107 106/106/106 105/105/105
f 105/105/105 108/108/108 107/107/107
