g Rock_Flat_m_03
v -0.2875356 0.1822206 0.3632446
v -0.3959657 -0.323016 0.2909622
v -0.3959657 0.3687998 0.2909622
v -0.2724146 0.4486881 0.3671124
v -0.2875356 0.1822206 0.3632446
v -0.2724146 0.4486881 0.3671124
v 0.04081759 0.4304001 0.3651525
v 0.3036118 0.4150454 0.1237224
v 0.04081759 0.4304001 0.3651525
v 0.2171689 0.4200944 2.652407E-06
v 0.2171689 0.4200944 2.652407E-06
v 0.355841 -0.00425458 2.652407E-06
v 0.3972972 0.1576506 0.02945292
v 0.1866673 -0.3590339 0.1003336
v 0.02785116 -0.3722729 0.2921044
v 0.3477418 -0.03589839 0.3026567
v -0.09088454 -0.3821632 2.652407E-06
v 0.02785116 -0.3722729 0.2921044
v 0.1866673 -0.3590339 0.1003336
v -0.3122095 -0.400607 0.3111841
v -0.3160644 -0.3970247 2.652407E-06
v -0.2947652 0.449999 2.652407E-06
v -0.3959657 0.3687998 0.2909622
v -0.3959657 -0.323016 0.2909622
v -0.2875356 0.1822206 0.3632446
v 0.04081759 0.4304001 0.3651525
v 0.3477418 -0.03589839 0.3026567
v 0.02785116 -0.3722729 0.2921044
v -0.3122095 -0.400607 0.3111841
v 0.04081759 0.4304001 0.3651525
v -0.2724146 0.4486881 0.3671124
v -0.2947652 0.449999 2.652407E-06
v 0.3972972 0.1576506 0.2733102
v 0.04081759 0.4304001 0.3651525
v 0.3036118 0.4150454 0.1237224
v -0.3959657 -0.323016 0.2909622
v -0.2875356 0.1822206 0.3632446
v -0.3122095 -0.400607 0.3111841
v 0.3036118 0.4150454 0.1237224
v 0.2171689 0.4200944 2.652407E-06
v 0.3972972 0.1576506 0.02945292
v -0.2947652 0.449999 2.652407E-06
v -0.2724146 0.4486881 0.3671124
v -0.3959657 0.3687998 0.2909622
v 0.1866673 -0.3590339 0.1003336
v 0.3049876 -0.2028786 2.652407E-06
v -0.09088454 -0.3821632 2.652407E-06
v 0.2171689 0.4200944 2.652407E-06
v -0.2947652 0.449999 2.652407E-06
v 0.355841 -0.00425458 2.652407E-06
v -0.09088454 -0.3821632 2.652407E-06
v 0.3049876 -0.2028786 2.652407E-06
v -0.3160644 -0.3970247 2.652407E-06
v 0.1866673 -0.3590339 0.1003336
v 0.3477418 -0.03589839 0.3026567
v 0.3049876 -0.2028786 2.652407E-06
v 0.3477418 -0.03589839 0.3026567
v 0.04081759 0.4304001 0.3651525
v 0.3972972 0.1576506 0.2733102
v 0.3049876 -0.2028786 2.652407E-06
v 0.3477418 -0.03589839 0.3026567
v 0.355841 -0.00425458 2.652407E-06
v 0.3972972 0.1576506 0.2733102
v -0.2947652 0.449999 2.652407E-06
v -0.3959657 -0.323016 0.2909622
v -0.3160644 -0.3970247 2.652407E-06
v 0.04081759 0.4304001 0.3651525
v -0.2947652 0.449999 2.652407E-06
v 0.2171689 0.4200944 2.652407E-06
v 0.3036118 0.4150454 0.1237224
v 0.3972972 0.1576506 0.02945292
v 0.3972972 0.1576506 0.2733102
v -0.3122095 -0.400607 0.3111841
v -0.3160644 -0.3970247 2.652407E-06
v -0.3959657 -0.323016 0.2909622
v 0.355841 -0.00425458 2.652407E-06
v 0.3972972 0.1576506 0.2733102
v 0.3972972 0.1576506 0.02945292
vn -0.5521166 -0.003644884 0.8337589
vn -0.5521166 -0.003644884 0.8337589
vn -0.5521166 -0.003644884 0.8337589
vn -0.5364614 0.01983809 0.8436917
vn 0.003644884 -0.01147252 0.9999275
vn 0.003644884 -0.01147252 0.9999275
vn 0.003644884 -0.01147252 0.9999275
vn 0.05843824 0.9982913 0
vn 0.05843824 0.9982913 0
vn 0.05843824 0.9982913 0
vn 0.293267 0.09811437 -0.9509826
vn 0.293267 0.09811437 -0.9509826
vn 0.293267 0.09811437 -0.9509826
vn 0.6298549 -0.6141997 0.4754382
vn 0.6298549 -0.6141997 0.4754382
vn 0.6298549 -0.6141997 0.4754382
vn 0.08192116 -0.9977534 0
vn 0.08192116 -0.9977534 0
vn 0.08192116 -0.9977534 0
vn 0.08192116 -0.9977534 0
vn 0.06626588 -0.9977534 -0.009847677
vn -0.9434979 -0.003644884 -0.3313585
vn -0.9434979 -0.003644884 -0.3313585
vn -0.9434979 -0.003644884 -0.3313585
vn 0.06626588 -0.08974874 0.9937575
vn 0.06626588 -0.08974874 0.9937575
vn 0.06626588 -0.08974874 0.9937575
vn 0.06626588 -0.08974874 0.9937575
vn 0.06626588 -0.08974874 0.9937575
vn 0.05843824 0.9982913 0
vn 0.05843824 0.9982913 0
vn 0.05843824 0.9982913 0
vn 0.5828892 0.5599443 0.5888146
vn 0.5828892 0.5599443 0.5888146
vn 0.5828892 0.5599443 0.5888146
vn -0.293805 -0.07409352 0.9529894
vn -0.293805 -0.07409352 0.9529894
vn -0.293805 -0.07409352 0.9529894
vn 0.7394418 0.4503574 -0.5004039
vn 0.7394418 0.4503574 -0.5004039
vn 0.7394418 0.4503574 -0.5004039
vn -0.5599443 0.8260835 0.06362709
vn -0.5599443 0.8260835 0.06362709
vn -0.5599443 0.8260835 0.06362709
vn 0.3010947 -0.6689931 -0.6795515
vn 0.3010947 -0.6689931 -0.6795515
vn 0.3010947 -0.6689931 -0.6795515
vn 0.003644884 -0.003644884 -0.9999867
vn 0.003644884 -0.003644884 -0.9999867
vn 0.003644884 -0.003644884 -0.9999867
vn 0.003644884 -0.003644884 -0.9999867
vn 0.003644884 -0.003644884 -0.9999867
vn 0.003644884 -0.003644884 -0.9999867
vn 0.8333732 -0.5202682 0.1865744
vn 0.8333732 -0.5202682 0.1865744
vn 0.8333732 -0.5202682 0.1865744
vn 0.3010947 0.06680381 0.9512514
vn 0.3010947 0.06680381 0.9512514
vn 0.3010947 0.06680381 0.9512514
vn 0.9664429 -0.2463013 -0.07296477
vn 0.9664429 -0.2463013 -0.07296477
vn 0.9664429 -0.2463013 -0.07296477
vn 0.9664429 -0.2463013 -0.07296477
vn -0.9591532 0.02766573 -0.2815312
vn -0.9591532 0.02766573 -0.2815312
vn -0.9591532 0.02766573 -0.2815312
vn 0.05843824 0.9982913 0
vn 0.05843824 0.9982913 0
vn 0.05843824 0.9982913 0
vn 0.94296 0.3407707 0
vn 0.94296 0.3407707 0
vn 0.94296 0.3407707 0
vn -0.6773586 -0.7316141 -0.07698099
vn -0.6773586 -0.7316141 -0.07698099
vn -0.6773586 -0.7316141 -0.07698099
vn 0.9664429 -0.2463013 -0.07296477
vn 0.9664429 -0.2463013 -0.07296477
vn 0.9664429 -0.2463013 -0.07296477
g Rock_Flat_m_03_0
f 3/3/3 2/2/2 1/1/1
f 4/4/4 3/3/3 1/1/1
f 7/7/7 6/6/6 5/5/5
f 10/10/10 9/9/9 8/8/8
f 13/13/13 12/12/12 11/11/11
f 16/16/16 15/15/15 14/14/14
f 19/19/19 18/18/18 17/17/17
f 17/17/17 18/18/18 20/20/20
f 21/21/21 17/17/17 20/20/20
f 24/24/24 23/23/23 22/22/22
f 27/27/27 26/26/26 25/25/25
f 28/28/28 27/27/27 25/25/25
f 29/29/29 28/28/28 25/25/25
f 32/32/32 31/31/31 30/30/30
f 35/35/35 34/34/34 33/33/33
f 38/38/38 37/37/37 36/36/36
f 41/41/41 40/40/40 39/39/39
f 44/44/44 43/43/43 42/42/42
f 47/47/47 46/46/46 45/45/45
f 50/50/50 49/49/49 48/48/48
f 51/51/51 49/49/49 50/50/50
f 51/51/51 50/50/50 52/52/52
f 49/49/49 51/51/51 53/53/53
f 56/56/56 55/55/55 54/54/54
f 59/59/59 58/58/58 57/57/57
f 62/62/62 61/61/61 60/60/60
f 63/63/63 61/61/61 62/62/62
f 66/66/66 65/65/65 64/64/64
f 69/69/69 68/68/68 67/67/67
f 72/72/72 71/71/71 70/70/70
f 75/75/75 74/74/74 73/73/73
f 78/78/78 77/77/77 76/76/76
