g Rock_Chunk_Small_04
v 5.534089 -3.71933E-05 -0.1820769
v 4.004582 -3.71933E-05 3.251953
v 2.095685 5.079925 1.919291
v 2.860354 5.079925 0.2023606
v -1.005053 5.079925 -1.865695
v -2.487115 5.079925 0.2023606
v -5.16085 -3.71933E-05 -0.1820769
v -2.196725 -3.71933E-05 -4.318189
v -0.366735 5.079925 3.039292
v -0.9200902 -3.71933E-05 5.491786
v -5.16085 -3.71933E-05 -0.1820769
v -2.487115 5.079925 0.2023606
v 2.095685 5.079925 1.919291
v 4.004582 -3.71933E-05 3.251953
v -0.9200902 -3.71933E-05 5.491786
v -0.366735 5.079925 3.039292
v -2.196725 -3.71933E-05 -4.318189
v -5.16085 -3.71933E-05 -0.1820769
v -0.9200902 -3.71933E-05 5.491786
v 2.832426 -3.71933E-05 -4.318189
v 4.004582 -3.71933E-05 3.251953
v 5.534089 -3.71933E-05 -0.1820769
v -1.005053 5.079925 -1.865695
v -2.196725 -3.71933E-05 -4.318189
v 2.832426 -3.71933E-05 -4.318189
v 1.509522 5.079925 -1.865695
v -0.366735 5.079925 3.039292
v -2.487115 5.079925 0.2023606
v -1.005053 5.079925 -1.865695
v 1.509522 5.079925 -1.865695
v 2.095685 5.079925 1.919291
v 2.860354 5.079925 0.2023606
v 5.534089 -3.71933E-05 -0.1820769
v 2.860354 5.079925 0.2023606
v 1.509522 5.079925 -1.865695
v 2.832426 -3.71933E-05 -4.318189
vn 0.8352877 0.4117616 0.3643442
vn 0.8352877 0.4117616 0.3643442
vn 0.8352877 0.4117616 0.3643442
vn 0.8352877 0.4117616 0.3643442
vn -0.7333277 0.4274478 -0.5286954
vn -0.7333277 0.4274478 -0.5286954
vn -0.7333277 0.4274478 -0.5286954
vn -0.7333277 0.4274478 -0.5286954
vn -0.7490139 0.349017 0.5631743
vn -0.7490139 0.349017 0.5631743
vn -0.7490139 0.349017 0.5631743
vn -0.7490139 0.349017 0.5631743
vn 0.3882323 0.3647032 0.8463258
vn 0.3882323 0.3647032 0.8463258
vn 0.3882323 0.3647032 0.8463258
vn 0.3882323 0.3647032 0.8463258
vn -0.003921628 -0.9999924 0
vn -0.003921628 -0.9999924 0
vn -0.003921628 -0.9999924 0
vn -0.003921628 -0.9999924 0
vn -0.003921628 -0.9999924 0
vn -0.003921628 -0.9999924 0
vn -0.003921628 0.4352908 -0.9002814
vn -0.003921628 0.4352908 -0.9002814
vn -0.003921628 0.4352908 -0.9002814
vn -0.003921628 0.4352908 -0.9002814
vn -0.003921628 0.9999924 0
vn -0.003921628 0.9999924 0
vn -0.003921628 0.9999924 0
vn -0.003921628 0.9999924 0
vn -0.003921628 0.9999924 0
vn -0.003921628 0.9999924 0
vn 0.756857 0.4352908 -0.487534
vn 0.756857 0.4352908 -0.487534
vn 0.756857 0.4352908 -0.487534
vn 0.756857 0.4352908 -0.487534
g Rock_Chunk_Small_04_0
f 3/3/3 2/2/2 1/1/1
f 1/1/1 4/4/4 3/3/3
f 7/7/7 6/6/6 5/5/5
f 5/5/5 8/8/8 7/7/7
f 11/11/11 10/10/10 9/9/9
f 9/9/9 12/12/12 11/11/11
f 15/15/15 14/14/14 13/13/13
f 13/13/13 16/16/16 15/15/15
f 19/19/19 18/18/18 17/17/17
f 17/17/17 20/20/20 19/19/19
f 20/20/20 21/21/21 19/19/19
f 20/20/20 22/22/22 21/21/21
f 25/25/25 24/24/24 23/23/23
f 23/23/23 26/26/26 25/25/25
f 29/29/29 28/28/28 27/27/27
f 27/27/27 30/30/30 29/29/29
f 27/27/27 31/31/31 30/30/30
f 31/31/31 32/32/32 30/30/30
f 35/35/35 34/34/34 33/33/33
f 33/33/33 36/36/36 35/35/35
