g Rock_Wall_05
v 0.78194 -0.9343426 0.595907
v 0.3726699 -0.616713 0.595907
v 0.78194 -0.04719615 0.595907
v -0.8504093 -1.145016 0.595907
v 0.9916179 -0.8947477 1.994424
v 2.570427 -1.10841 1.889958
v 2.191912 -1.280236 1.994424
v 1.125344 0.5523279 1.994424
v 0.9916179 -0.8947477 1.994424
v 0.6941595 -1.141779 1.994424
v 2.191912 -1.280236 1.994424
v 0.8783121 0.8496621 1.994424
v 2.572295 0.418478 1.994424
v 2.869754 0.6656339 1.994424
v 2.351411 0.7087152 2.647861
v 2.351411 -0.2330923 2.647861
v 2.109983 -0.4973061 2.647861
v 2.109983 0.9728043 2.647861
v 3.212535 0.7087152 2.647861
v 3.453963 0.9728043 2.647861
v 3.212535 -0.2330923 2.647861
v 3.453963 -0.4973061 2.647861
v 3.116287 0.6341321 4.705916
v 2.351411 -0.2330923 4.625357
v 2.351411 0.7087152 4.453157
v 3.138575 -0.2330923 4.574805
v 3.116287 0.6341321 4.705916
v 3.212535 0.7087152 2.647861
v 3.212535 -0.2330923 2.647861
v -0.8022234 -0.9441791 2.694678
v 0.3726699 -0.616713 2.694678
v 0.3726699 -0.616713 0.595907
v -2.420627 -1.029843 1.180739
v -2.420627 -1.029843 0.3807509
v -2.420627 -0.2298551 0.3807509
v -2.420627 -0.2298551 1.180739
v -1.334511 0.9816449 2.694678
v -0.3797548 1.493762 2.694678
v -0.8022234 -0.9441791 2.694678
v -1.356674 -0.7110929 2.224023
v -1.74403 0.7618811 2.12404
v -0.8022234 -0.9441791 2.694678
v -0.8504093 -1.145016 0.595907
v -0.8914979 -1.188471 -0.004115105
v -1.283835 -0.9876337 -0.004115105
v -1.303508 -0.9131758 0.595907
v -1.356674 -0.7110929 2.224023
v -0.8022234 -0.9441791 2.694678
v -1.356674 -0.7110929 2.224023
v -1.303508 -0.9131758 0.595907
v -1.74403 0.7618811 0.595907
v -1.74403 0.7618811 -0.004115105
v -1.74403 0.7618811 2.12404
v -1.283835 -0.9876337 -0.004115105
v 2.109983 0.9728043 2.647861
v 2.109983 0.9728043 -0.005484819
v 3.453963 0.9728043 -0.005484819
v 3.453963 0.9728043 2.647861
v 3.138575 -0.2330923 4.574805
v 3.212535 -0.2330923 2.647861
v 2.351411 -0.2330923 2.647861
v 2.351411 -0.2330923 4.625357
v 0.7381122 -1.038061 -0.004737854
v -0.8914979 -1.188471 -0.004115105
v -0.8504093 -1.145016 0.595907
v -1.334511 0.9816449 2.694678
v -1.74403 0.7618811 2.12404
v -0.3797548 1.493762 2.694678
v 1.237529 0.5418692 3.773573
v 2.485012 0.2806432 4.019856
v 1.901924 -0.5296795 4.235636
v 0.3726699 -0.616713 2.694678
v -0.8022234 -0.9441791 2.694678
v 0.78194 -0.04719615 2.694678
v -1.334511 0.9816449 2.694678
v -0.8022234 -0.9441791 2.694678
v -1.74403 0.7618811 2.12404
v 0.3820083 0.9728043 3.311136
v 0.3820083 0.9728043 -0.005484819
v 1.181996 0.9728043 -0.005484819
v 1.181996 0.9728043 3.311136
v 1.181996 0.9728043 3.311136
v 1.181996 0.9728043 -0.005484819
v 1.181996 -0.4973061 -0.005484819
v 1.181996 -0.4973061 3.311136
v 1.181996 -0.4973061 3.311136
v 1.181996 -0.4973061 -0.005484819
v 0.3820083 -0.4973061 -0.005484819
v 0.3820083 -0.4973061 3.311136
v 2.570427 -1.10841 1.889958
v 2.869754 0.6656339 1.994424
v 2.869754 0.6656339 -0.005484819
v 0.3820083 -0.4973061 3.311136
v 0.3820083 -0.4973061 -0.005484819
v 0.3820083 0.9728043 -0.005484819
v 0.3820083 0.9728043 3.311136
v 0.78194 -0.04719615 0.595907
v 0.78194 -0.04719615 2.694678
v 0.78194 0.7618811 2.694678
v 0.6941595 -1.141779 1.994424
v 0.7381122 -1.038061 -0.004737854
v 0.830126 0.8058341 -0.004737854
v 2.302852 -1.290446 -0.005484819
v 2.191912 -1.280236 1.994424
v 2.570427 -1.10841 1.889958
v 0.9916179 -0.8947477 3.854629
v 1.901924 -0.5296795 4.235636
v 2.43857 -1.028474 3.396177
v 2.43857 -1.028474 3.396177
v 2.570427 -1.10841 1.889958
v 0.9916179 -0.8947477 1.994424
v 1.901924 -0.5296795 4.235636
v 2.485012 0.2806432 4.019856
v 2.43857 -1.028474 3.396177
v 1.237529 0.5418692 3.773573
v 1.125344 0.5523279 1.994424
v 2.572295 0.418478 1.994424
v -2.541279 1.333017 4.060323
v -1.310231 -0.3375576 3.325206
v -3.390201 -0.3375576 3.750662
v -1.310231 -0.3375576 -0.005484819
v -1.310231 -0.3375576 3.325206
v -1.310231 1.382573 3.143667
v -1.310231 1.382573 -0.005484819
v -3.390201 1.382573 -0.005484819
v -1.310231 1.382573 -0.005484819
v -1.310231 1.382573 3.143667
v -3.390201 1.382573 3.449842
v 2.351411 0.7087152 4.453157
v 2.351411 0.7087152 2.647861
v 3.212535 0.7087152 2.647861
v 0.7381122 -1.038061 -0.004737854
v 0.6941595 -1.141779 1.994424
v 2.191912 -1.280236 1.994424
v 2.869754 0.6656339 1.994424
v 2.570427 -1.10841 1.889958
v 2.572295 0.418478 1.994424
v 0.3726699 -0.616713 0.595907
v 0.3726699 -0.616713 2.694678
v 0.78194 -0.04719615 2.694678
v 0.78194 -0.04719615 0.595907
v -0.8880117 -1.718642 0.594413
v -0.8880117 -1.718642 -0.005484819
v -2.837991 -1.274384 -0.005484819
v -2.837991 -1.274384 0.594413
v 3.453963 -0.4973061 2.647861
v 3.453963 -0.4973061 -0.005484819
v 2.109983 -0.4973061 -0.005484819
v 2.109983 -0.4973061 2.647861
v 1.181996 -0.4973061 3.311136
v 0.3820083 -0.4973061 3.311136
v 0.3820083 0.9728043 3.311136
v 1.181996 0.9728043 3.311136
v 0.78194 0.7618811 2.694678
v 0.78194 -0.04719615 2.694678
v -0.8022234 -0.9441791 2.694678
v -0.3797548 1.493762 2.694678
v 0.9916179 -0.8947477 1.994424
v 1.125344 0.5523279 1.994424
v 1.237529 0.5418692 3.773573
v 2.572295 0.418478 1.994424
v 2.570427 -1.10841 1.889958
v 2.43857 -1.028474 3.396177
v -3.390201 -0.3375576 -0.005484819
v -3.390201 -0.3375576 3.750662
v -1.310231 -0.3375576 3.325206
v -1.310231 -0.3375576 -0.005484819
v 2.351411 -0.2330923 2.647861
v 2.351411 0.7087152 2.647861
v 2.351411 0.7087152 4.453157
v 2.351411 -0.2330923 4.625357
v -2.541279 1.333017 4.060323
v -3.390201 -0.3375576 3.750662
v -3.390201 1.382573 3.449842
v -3.390201 1.382573 3.449842
v -1.310231 1.382573 3.143667
v -2.541279 1.333017 4.060323
v -0.3797548 1.493762 2.694678
v -0.6062419 1.493762 -0.004115105
v 0.830126 0.8058341 -0.004737854
v 2.351411 -0.2330923 4.625357
v 3.116287 0.6341321 4.705916
v 3.138575 -0.2330923 4.574805
v -1.310231 1.382573 3.143667
v -1.310231 -0.3375576 3.325206
v -1.374977 1.005551 3.84691
v -1.74403 0.7618811 2.12404
v -1.74403 0.7618811 0.595907
v -0.6062419 1.493762 -0.004115105
v -1.74403 0.7618811 -0.004115105
v -3.390201 1.382573 3.449842
v -3.390201 -0.3375576 3.750662
v -3.390201 -0.3375576 -0.005484819
v -3.390201 1.382573 -0.005484819
v -1.374977 1.005551 3.84691
v -1.310231 -0.3375576 3.325206
v -2.541279 1.333017 4.060323
v 3.453963 0.9728043 2.647861
v 3.453963 0.9728043 -0.005484819
v 3.453963 -0.4973061 -0.005484819
v 3.453963 -0.4973061 2.647861
v -2.837991 -1.274384 0.594413
v -2.837991 -1.274384 -0.005484819
v -2.393733 0.6757195 -0.005484819
v -2.393733 0.6757195 0.594413
v -2.393733 0.6757195 0.594413
v -2.393733 0.6757195 -0.005484819
v -0.4436295 0.2313366 -0.005484819
v -0.4436295 0.2313366 0.594413
v -0.4436295 0.2313366 0.594413
v -0.4436295 0.2313366 -0.005484819
v -0.8880117 -1.718642 -0.005484819
v -0.8880117 -1.718642 0.594413
v 2.109983 -0.4973061 2.647861
v 2.109983 -0.4973061 -0.005484819
v 2.109983 0.9728043 -0.005484819
v 2.109983 0.9728043 2.647861
v -0.8880117 -1.718642 0.594413
v -2.837991 -1.274384 0.594413
v -2.393733 0.6757195 0.594413
v -0.4436295 0.2313366 0.594413
v 0.8783121 0.8496621 1.994424
v 0.830126 0.8058341 -0.004737854
v 2.869754 0.6656339 -0.005484819
v 2.869754 0.6656339 1.994424
v -2.420627 -0.2298551 1.180739
v -2.420627 -0.2298551 0.3807509
v -1.620639 -0.2298551 0.3807509
v -1.620639 -0.2298551 1.180739
v -1.620639 -0.2298551 1.180739
v -1.620639 -0.2298551 0.3807509
v -1.620639 -1.029843 0.3807509
v -1.620639 -1.029843 1.180739
v -1.620639 -1.029843 1.180739
v -1.620639 -1.029843 0.3807509
v -2.420627 -1.029843 0.3807509
v -2.420627 -1.029843 1.180739
v -1.620639 -1.029843 1.180739
v -2.420627 -1.029843 1.180739
v -2.420627 -0.2298551 1.180739
v -1.620639 -0.2298551 1.180739
v -0.8022234 -0.9441791 2.694678
v 0.3726699 -0.616713 0.595907
v -0.8504093 -1.145016 0.595907
v 0.7381122 -1.038061 -0.004737854
v -0.8504093 -1.145016 0.595907
v 0.78194 -0.9343426 0.595907
v -1.374977 1.005551 3.84691
v -2.541279 1.333017 4.060323
v -1.310231 1.382573 3.143667
v 1.237529 0.5418692 3.773573
v 1.901924 -0.5296795 4.235636
v 0.9916179 -0.8947477 3.854629
v 2.570427 -1.10841 1.889958
v 2.869754 0.6656339 -0.005484819
v 2.7176 -0.9810345 -0.005484819
v 0.78194 -0.04719615 0.595907
v 0.78194 0.7618811 2.694678
v 0.830126 0.8058341 -0.004737854
v 0.6941595 -1.141779 1.994424
v 0.830126 0.8058341 -0.004737854
v 0.8783121 0.8496621 1.994424
v 2.43857 -1.028474 3.396177
v 0.9916179 -0.8947477 1.994424
v 0.9916179 -0.8947477 3.854629
v 1.237529 0.5418692 3.773573
v 2.572295 0.418478 1.994424
v 2.485012 0.2806432 4.019856
v 2.351411 0.7087152 4.453157
v 3.212535 0.7087152 2.647861
v 3.116287 0.6341321 4.705916
v 0.7381122 -1.038061 -0.004737854
v 2.191912 -1.280236 1.994424
v 2.302852 -1.290446 -0.005484819
v 0.9916179 -0.8947477 1.994424
v 1.237529 0.5418692 3.773573
v 0.9916179 -0.8947477 3.854629
v 2.572295 0.418478 1.994424
v 2.43857 -1.028474 3.396177
v 2.485012 0.2806432 4.019856
v 2.302852 -1.290446 -0.005484819
v 2.570427 -1.10841 1.889958
v 2.7176 -0.9810345 -0.005484819
v -0.3797548 1.493762 2.694678
v 0.830126 0.8058341 -0.004737854
v 0.78194 0.7618811 2.694678
v -1.74403 0.7618811 2.12404
v -0.6062419 1.493762 -0.004115105
v -0.3797548 1.493762 2.694678
vn -0.003921628 0.003921628 0.9999846
vn -0.003921628 0.003921628 0.9999846
vn -0.003921628 0.003921628 0.9999846
vn -0.003921628 0.003921628 0.9999846
vn 0.1058815 0.3333309 0.9368455
vn 0.1058815 0.3333309 0.9368455
vn 0.1058815 0.3333309 0.9368455
vn -0.003921628 0.003921628 0.9999846
vn -0.003921628 0.003921628 0.9999846
vn -0.003921628 0.003921628 0.9999846
vn -0.003921628 0.003921628 0.9999846
vn -0.003921628 0.003921628 0.9999846
vn -0.003921628 0.003921628 0.9999846
vn -0.003921628 0.003921628 0.9999846
vn -0.003921628 0.003921628 0.9999846
vn -0.003921628 0.003921628 0.9999846
vn -0.003921628 0.003921628 0.9999846
vn -0.003921628 0.003921628 0.9999846
vn -0.003921628 0.003921628 0.9999846
vn -0.003921628 0.003921628 0.9999846
vn -0.003921628 0.003921628 0.9999846
vn -0.003921628 0.003921628 0.9999846
vn -0.2941154 0.1686262 0.940777
vn -0.2941154 0.1686262 0.940777
vn -0.2941154 0.1686262 0.940777
vn 0.9999924 0.01960778 0
vn 0.9999924 0.01960778 0
vn 0.9999924 0.01960778 0
vn 0.9999924 0.003921628 0
vn 0.2705861 -0.960777 -0.06075129
vn 0.2705861 -0.960777 -0.06075129
vn 0.2705861 -0.960777 -0.06075129
vn -0.9999924 0.003921628 0
vn -0.9999924 0.003921628 0
vn -0.9999924 0.003921628 0
vn -0.9999924 0.003921628 0
vn -0.003921628 0.003921628 0.9999846
vn -0.003921628 0.003921628 0.9999846
vn -0.003921628 0.003921628 0.9999846
vn -0.6705831 -0.1294107 0.7304595
vn -0.6705831 -0.1294107 0.7304595
vn -0.6705831 -0.1294107 0.7304595
vn -0.450977 -0.8823462 0.1344803
vn -0.450977 -0.8823462 0.1344803
vn -0.450977 -0.8823462 0.1344803
vn -0.450977 -0.8823462 0.1344803
vn -0.450977 -0.8823462 0.1344803
vn -0.450977 -0.8823462 0.1344803
vn -0.9686201 -0.2549 0
vn -0.9686201 -0.2549 0
vn -0.9686201 -0.2549 0
vn -0.9686201 -0.2549 0
vn -0.9686201 -0.2549 0
vn -0.9686201 -0.2549 0
vn -0.003921628 0.9999924 0
vn -0.003921628 0.9999924 0
vn -0.003921628 0.9999924 0
vn -0.003921628 0.9999924 0
vn -0.003921628 -0.9999924 0
vn -0.003921628 -0.9999924 0
vn -0.003921628 -0.9999924 0
vn -0.003921628 -0.9999924 0
vn 0.09019536 -0.9921493 0.086629
vn 0.09019536 -0.9921493 0.086629
vn 0.09019536 -0.9921493 0.086629
vn -0.4745063 0.8823463 0
vn -0.4745063 0.8823463 0
vn -0.4745063 0.8823463 0
vn -0.1137247 0.3333309 0.9359259
vn -0.1137247 0.3333309 0.9359259
vn -0.1137247 0.3333309 0.9359259
vn -0.003921628 0.003921628 0.9999846
vn -0.003921628 0.003921628 0.9999846
vn -0.003921628 0.003921628 0.9999846
vn -0.756857 -0.2078415 0.6196526
vn -0.756857 -0.2078415 0.6196526
vn -0.756857 -0.2078415 0.6196526
vn -0.003921628 0.9999924 0
vn -0.003921628 0.9999924 0
vn -0.003921628 0.9999924 0
vn -0.003921628 0.9999924 0
vn 0.9999924 0.003921628 0
vn 0.9999924 0.003921628 0
vn 0.9999924 0.003921628 0
vn 0.9999924 0.003921628 0
vn -0.003921628 -0.9999924 0
vn -0.003921628 -0.9999924 0
vn -0.003921628 -0.9999924 0
vn -0.003921628 -0.9999924 0
vn 0.9843062 -0.1686261 -0.05202412
vn 0.9843062 -0.1686261 -0.05202412
vn 0.9843062 -0.1686261 -0.05202412
vn -0.9999924 0.003921628 0
vn -0.9999924 0.003921628 0
vn -0.9999924 0.003921628 0
vn -0.9999924 0.003921628 0
vn 0.9999924 0.003921628 0
vn 0.9999924 0.003921628 0
vn 0.9999924 0.003921628 0
vn -0.9999924 0.05098009 0
vn -0.9999924 0.05098009 0
vn -0.9999924 0.05098009 0
vn 0.4196046 -0.9058754 0.05763374
vn 0.4196046 -0.9058754 0.05763374
vn 0.4196046 -0.9058754 0.05763374
vn 0.09803843 -0.8274447 0.552923
vn 0.09803843 -0.8274447 0.552923
vn 0.09803843 -0.8274447 0.552923
vn -0.1294109 -0.9921493 0
vn -0.1294109 -0.9921493 0
vn -0.1294109 -0.9921493 0
vn 0.6941123 -0.3333308 0.6380429
vn 0.6941123 -0.3333308 0.6380429
vn 0.6941123 -0.3333308 0.6380429
vn 0.09019536 0.9921494 -0.0866283
vn 0.09019536 0.9921494 -0.0866283
vn 0.09019536 0.9921494 -0.0866283
vn 0.1921554 -0.2705861 0.9433236
vn 0.1921554 -0.2705861 0.9433236
vn 0.1921554 -0.2705861 0.9433236
vn 0.9999924 0.003921628 0
vn 0.9999924 0.003921628 0
vn 0.9999924 0.003921628 0
vn 0.9999924 0.003921628 0
vn -0.003921628 0.9999924 0
vn -0.003921628 0.9999924 0
vn -0.003921628 0.9999924 0
vn -0.003921628 0.9999924 0
vn -0.003921628 0.9999924 0
vn -0.003921628 0.9999924 0
vn -0.003921628 0.9999924 0
vn -0.09019542 -0.9921493 -0.086629
vn -0.09019542 -0.9921493 -0.086629
vn -0.09019542 -0.9921493 -0.086629
vn 0.05882305 -0.06666613 0.9960399
vn 0.05882305 -0.06666613 0.9960399
vn 0.05882305 -0.06666613 0.9960399
vn 0.8117585 -0.5843092 0
vn 0.8117585 -0.5843092 0
vn 0.8117585 -0.5843092 0
vn 0.8117585 -0.5843092 0
vn -0.2235278 -0.9764631 0
vn -0.2235278 -0.9764631 0
vn -0.2235278 -0.9764631 0
vn -0.2235278 -0.9764631 0
vn -0.003921628 -0.9999924 0
vn -0.003921628 -0.9999924 0
vn -0.003921628 -0.9999924 0
vn -0.003921628 -0.9999924 0
vn -0.003921628 0.003921628 0.9999846
vn -0.003921628 0.003921628 0.9999846
vn -0.003921628 0.003921628 0.9999846
vn -0.003921628 0.003921628 0.9999846
vn -0.003921628 0.003921628 0.9999846
vn -0.003921628 0.003921628 0.9999846
vn -0.003921628 0.003921628 0.9999846
vn -0.003921628 0.003921628 0.9999846
vn -0.9921494 0.09019542 0.08662822
vn -0.9921494 0.09019542 0.08662822
vn -0.9921494 0.09019542 0.08662822
vn 0.9999924 -0.003921509 0
vn 0.9999924 -0.003921509 0
vn 0.9999924 -0.003921509 0
vn -0.003921628 -0.9999924 0
vn -0.003921628 -0.9999924 0
vn -0.003921628 -0.9999924 0
vn -0.003921628 -0.9999924 0
vn -0.9999924 0.003921628 0
vn -0.9999924 0.003921628 0
vn -0.9999924 0.003921628 0
vn -0.9999924 0.003921628 0
vn -0.5686232 0.145097 0.8097003
vn -0.5686232 0.145097 0.8097003
vn -0.5686232 0.145097 0.8097003
vn 0.01176459 0.9999924 0
vn 0.01176459 0.9999924 0
vn 0.01176459 0.9999924 0
vn 0.4352908 0.8980324 -0.06371602
vn 0.4352908 0.8980324 -0.06371602
vn 0.4352908 0.8980324 -0.06371602
vn 0.06666613 -0.1450969 0.9871689
vn 0.06666613 -0.1450969 0.9871689
vn 0.06666613 -0.1450969 0.9871689
vn 0.9921493 0.01176465 0.1245045
vn 0.9921493 0.01176465 0.1245045
vn 0.9921493 0.01176465 0.1245045
vn -0.5372509 0.8431308 -0.0221792
vn -0.5372509 0.8431308 -0.0221792
vn -0.5372509 0.8431308 -0.0221792
vn -0.5372509 0.8431308 -0.0221792
vn -0.9999924 0.003921628 0
vn -0.9999924 0.003921628 0
vn -0.9999924 0.003921628 0
vn -0.9999924 0.003921628 0
vn 0.06666613 -0.35686 0.931776
vn 0.06666613 -0.35686 0.931776
vn 0.06666613 -0.35686 0.931776
vn 0.9999924 0.003921628 0
vn 0.9999924 0.003921628 0
vn 0.9999924 0.003921628 0
vn 0.9999924 0.003921628 0
vn -0.9764632 0.2235278 0
vn -0.9764632 0.2235278 0
vn -0.9764632 0.2235278 0
vn -0.9764632 0.2235278 0
vn 0.2235277 0.9764632 0
vn 0.2235277 0.9764632 0
vn 0.2235277 0.9764632 0
vn 0.2235277 0.9764632 0
vn 0.9764631 -0.2235277 0
vn 0.9764631 -0.2235277 0
vn 0.9764631 -0.2235277 0
vn 0.9764631 -0.2235277 0
vn -0.9999924 0.003921628 0
vn -0.9999924 0.003921628 0
vn -0.9999924 0.003921628 0
vn -0.9999924 0.003921628 0
vn -0.003921628 0.003921628 0.9999846
vn -0.003921628 0.003921628 0.9999846
vn -0.003921628 0.003921628 0.9999846
vn -0.003921628 0.003921628 0.9999846
vn 0.06666613 0.9999924 0
vn 0.06666613 0.9999924 0
vn 0.06666613 0.9999924 0
vn 0.09019536 0.9921494 -0.0866283
vn -0.003921628 0.9999924 0
vn -0.003921628 0.9999924 0
vn -0.003921628 0.9999924 0
vn -0.003921628 0.9999924 0
vn 0.9999924 0.003921628 0
vn 0.9999924 0.003921628 0
vn 0.9999924 0.003921628 0
vn 0.9999924 0.003921628 0
vn -0.003921628 -0.9999924 0
vn -0.003921628 -0.9999924 0
vn -0.003921628 -0.9999924 0
vn -0.003921628 -0.9999924 0
vn -0.003921628 0.003921628 0.9999846
vn -0.003921628 0.003921628 0.9999846
vn -0.003921628 0.003921628 0.9999846
vn -0.003921628 0.003921628 0.9999846
vn 0.3960754 -0.9137185 0.09078946
vn 0.3960754 -0.9137185 0.09078946
vn 0.3960754 -0.9137185 0.09078946
vn 0.1294107 -0.9764631 0.1725475
vn 0.1294107 -0.9764631 0.1725475
vn 0.1294107 -0.9764631 0.1725475
vn 0.3176446 0.8196017 0.4768176
vn 0.3176446 0.8196017 0.4768176
vn 0.3176446 0.8196017 0.4768176
vn -0.4274478 0.1215677 0.895829
vn -0.4274478 0.1215677 0.895829
vn -0.4274478 0.1215677 0.895829
vn 0.9921493 -0.09019536 0.08662897
vn 0.9921493 -0.09019536 0.08662897
vn 0.9921493 -0.09019536 0.08662897
vn 0.9999924 -0.04313689 0
vn 0.9999924 -0.04313689 0
vn 0.9999924 -0.04313689 0
vn -0.9921494 0.09019542 0.08662822
vn -0.9921494 0.09019542 0.08662822
vn -0.9921494 0.09019542 0.08662822
vn -0.09019542 -0.9921493 -0.086629
vn -0.09019542 -0.9921493 -0.086629
vn -0.09019542 -0.9921493 -0.086629
vn 0.1921554 0.9764632 0.09795882
vn 0.1921554 0.9764632 0.09795882
vn 0.1921554 0.9764632 0.09795882
vn 0.08235228 0.9921494 0.09411582
vn 0.08235228 0.9921494 0.09411582
vn 0.08235228 0.9921494 0.09411582
vn -0.1607832 -0.9843062 -0.07273261
vn -0.1607832 -0.9843062 -0.07273261
vn -0.1607832 -0.9843062 -0.07273261
vn -0.9843062 0.1686262 -0.05202392
vn -0.9843062 0.1686262 -0.05202392
vn -0.9843062 0.1686262 -0.05202392
vn 0.9999924 -0.05097997 0
vn 0.9999924 -0.05097997 0
vn 0.9999924 -0.05097997 0
vn 0.5999954 -0.8039154 0
vn 0.5999954 -0.8039154 0
vn 0.5999954 -0.8039154 0
vn 0.5294077 0.8431308 0.09411613
vn 0.5294077 0.8431308 0.09411613
vn 0.5294077 0.8431308 0.09411613
vn -0.4823493 0.8745031 0.05082759
vn -0.4823493 0.8745031 0.05082759
vn -0.4823493 0.8745031 0.05082759
g Rock_Wall_05_0
f 3/3/3 2/2/2 1/1/1
f 1/1/1 2/2/2 4/4/4
f 7/7/7 6/6/6 5/5/5
f 10/10/10 9/9/9 8/8/8
f 10/10/10 11/11/11 9/9/9
f 12/12/12 10/10/10 8/8/8
f 12/12/12 8/8/8 13/13/13
f 14/14/14 12/12/12 13/13/13
f 17/17/17 16/16/16 15/15/15
f 18/18/18 17/17/17 15/15/15
f 18/18/18 15/15/15 19/19/19
f 20/20/20 18/18/18 19/19/19
f 20/20/20 19/19/19 21/21/21
f 16/16/16 17/17/17 21/21/21
f 17/17/17 22/22/22 21/21/21
f 22/22/22 20/20/20 21/21/21
f 25/25/25 24/24/24 23/23/23
f 28/28/28 27/27/27 26/26/26
f 29/29/29 28/28/28 26/26/26
f 32/32/32 31/31/31 30/30/30
f 35/35/35 34/34/34 33/33/33
f 36/36/36 35/35/35 33/33/33
f 39/39/39 38/38/38 37/37/37
f 42/42/42 41/41/41 40/40/40
f 45/45/45 44/44/44 43/43/43
f 46/46/46 45/45/45 43/43/43
f 46/46/46 43/43/43 47/47/47
f 43/43/43 48/48/48 47/47/47
f 51/51/51 50/50/50 49/49/49
f 50/50/50 51/51/51 52/52/52
f 53/53/53 51/51/51 49/49/49
f 54/54/54 50/50/50 52/52/52
f 57/57/57 56/56/56 55/55/55
f 58/58/58 57/57/57 55/55/55
f 61/61/61 60/60/60 59/59/59
f 62/62/62 61/61/61 59/59/59
f 65/65/65 64/64/64 63/63/63
f 68/68/68 67/67/67 66/66/66
f 71/71/71 70/70/70 69/69/69
f 74/74/74 73/73/73 72/72/72
f 77/77/77 76/76/76 75/75/75
f 80/80/80 79/79/79 78/78/78
f 81/81/81 80/80/80 78/78/78
f 84/84/84 83/83/83 82/82/82
f 85/85/85 84/84/84 82/82/82
f 88/88/88 87/87/87 86/86/86
f 89/89/89 88/88/88 86/86/86
f 92/92/92 91/91/91 90/90/90
f 95/95/95 94/94/94 93/93/93
f 96/96/96 95/95/95 93/93/93
f 99/99/99 98/98/98 97/97/97
f 102/102/102 101/101/101 100/100/100
f 105/105/105 104/104/104 103/103/103
f 108/108/108 107/107/107 106/106/106
f 111/111/111 110/110/110 109/109/109
f 114/114/114 113/113/113 112/112/112
f 117/117/117 116/116/116 115/115/115
f 120/120/120 119/119/119 118/118/118
f 123/123/123 122/122/122 121/121/121
f 124/124/124 123/123/123 121/121/121
f 127/127/127 126/126/126 125/125/125
f 128/128/128 127/127/127 125/125/125
f 131/131/131 130/130/130 129/129/129
f 134/134/134 133/133/133 132/132/132
f 137/137/137 136/136/136 135/135/135
f 140/140/140 139/139/139 138/138/138
f 141/141/141 140/140/140 138/138/138
f 144/144/144 143/143/143 142/142/142
f 145/145/145 144/144/144 142/142/142
f 148/148/148 147/147/147 146/146/146
f 149/149/149 148/148/148 146/146/146
f 152/152/152 151/151/151 150/150/150
f 153/153/153 152/152/152 150/150/150
f 156/156/156 155/155/155 154/154/154
f 157/157/157 156/156/156 154/154/154
f 160/160/160 159/159/159 158/158/158
f 163/163/163 162/162/162 161/161/161
f 166/166/166 165/165/165 164/164/164
f 167/167/167 166/166/166 164/164/164
f 170/170/170 169/169/169 168/168/168
f 171/171/171 170/170/170 168/168/168
f 174/174/174 173/173/173 172/172/172
f 177/177/177 176/176/176 175/175/175
f 180/180/180 179/179/179 178/178/178
f 183/183/183 182/182/182 181/181/181
f 186/186/186 185/185/185 184/184/184
f 189/189/189 188/188/188 187/187/187
f 190/190/190 188/188/188 189/189/189
f 193/193/193 192/192/192 191/191/191
f 194/194/194 193/193/193 191/191/191
f 197/197/197 196/196/196 195/195/195
f 200/200/200 199/199/199 198/198/198
f 201/201/201 200/200/200 198/198/198
f 204/204/204 203/203/203 202/202/202
f 205/205/205 204/204/204 202/202/202
f 208/208/208 207/207/207 206/206/206
f 209/209/209 208/208/208 206/206/206
f 212/212/212 211/211/211 210/210/210
f 213/213/213 212/212/212 210/210/210
f 216/216/216 215/215/215 214/214/214
f 217/217/217 216/216/216 214/214/214
f 220/220/220 219/219/219 218/218/218
f 221/221/221 220/220/220 218/218/218
f 224/224/224 223/223/223 222/222/222
f 225/225/225 224/224/224 222/222/222
f 228/228/228 227/227/227 226/226/226
f 229/229/229 228/228/228 226/226/226
f 232/232/232 231/231/231 230/230/230
f 233/233/233 232/232/232 230/230/230
f 236/236/236 235/235/235 234/234/234
f 237/237/237 236/236/236 234/234/234
f 240/240/240 239/239/239 238/238/238
f 241/241/241 240/240/240 238/238/238
f 244/244/244 243/243/243 242/242/242
f 247/247/247 246/246/246 245/245/245
f 250/250/250 249/249/249 248/248/248
f 253/253/253 252/252/252 251/251/251
f 256/256/256 255/255/255 254/254/254
f 259/259/259 258/258/258 257/257/257
f 262/262/262 261/261/261 260/260/260
f 265/265/265 264/264/264 263/263/263
f 268/268/268 267/267/267 266/266/266
f 271/271/271 270/270/270 269/269/269
f 274/274/274 273/273/273 272/272/272
f 277/277/277 276/276/276 275/275/275
f 280/280/280 279/279/279 278/278/278
f 283/283/283 282/282/282 281/281/281
f 286/286/286 285/285/285 284/284/284
f 289/289/289 288/288/288 287/287/287
