g Rock_Chunk_02
v 3.632151 46.05945 -6.614571
v -6.916208 44.25911 -3.33432
v 5.078173 0.0003643036 -7.435146
v 20.87658 30.70881 1.329308
v 19.58153 0.0003643036 1.329308
v 9.583639 0.0003643036 8.724764
v 20.87658 30.70881 1.329308
v 14.37153 30.70881 -3.052919
v 19.58153 0.0003643036 1.329308
v 10.27173 45.47713 3.227209
v 14.37153 30.70881 6.209631
v -0.8579102 43.26497 8.860329
v 3.632151 46.05945 -6.614571
v 9.583639 0.0003643036 -5.310275
v 19.58153 0.0003643036 1.329308
v 20.87658 30.70881 1.329308
v 9.583639 0.0003643036 8.724764
v -1.206066 0.0003643036 14.39177
v 3.632151 46.05945 -6.614571
v 19.58153 0.0003643036 1.329308
v 14.37153 30.70881 -3.052919
v 3.632151 46.05945 -6.614571
v 5.078173 0.0003643036 -7.435146
v 9.583639 0.0003643036 -5.310275
v 20.87658 30.70881 1.329308
v 14.37153 30.70881 6.209631
v 14.37153 30.70881 -3.052919
v -9.685011 0.0003643036 -2.569202
v -16.02265 0.0003643036 8.981514
v -1.206066 0.0003643036 14.39177
v 5.078173 0.0003643036 -7.435146
v 9.583639 0.0003643036 8.724764
v 9.583639 0.0003643036 -5.310275
v 19.58153 0.0003643036 1.329308
v -9.685011 0.0003643036 -2.569202
v -11.44427 42.51525 4.817013
v -16.02265 0.0003643036 8.981514
v 14.37153 30.70881 -3.052919
v 14.37153 30.70881 6.209631
v 10.27173 45.47713 3.227209
v 14.37153 30.70881 6.209631
v 20.87658 30.70881 1.329308
v -1.206066 0.0003643036 14.39177
v -0.8579102 43.26497 8.860329
v -16.02265 0.0003643036 8.981514
v -11.44427 42.51525 4.817013
v -0.8579102 43.26497 8.860329
v -11.44427 42.51525 4.817013
v -6.916208 44.25911 -3.33432
v 3.632151 46.05945 -6.614571
v 10.27173 45.47713 3.227209
v 10.27173 46.42814 -3.374372
v -0.8579102 43.26497 8.860329
v -1.206066 0.0003643036 14.39177
v -16.02265 0.0003643036 8.981514
v 10.27173 46.42814 -3.374372
v 3.632151 46.05945 -6.614571
v 14.37153 30.70881 -3.052919
v -0.8579102 43.26497 8.860329
v 14.37153 30.70881 6.209631
v -1.206066 0.0003643036 14.39177
v -6.916208 44.25911 -3.33432
v -11.44427 42.51525 4.817013
v -9.685011 0.0003643036 -2.569202
v -6.916208 44.25911 -3.33432
v -9.685011 0.0003643036 -2.569202
v 5.078173 0.0003643036 -7.435146
v 10.27173 46.42814 -3.374372
v 14.37153 30.70881 -3.052919
v 10.27173 45.47713 3.227209
vn -0.3019586 0.003921628 -0.953313
vn -0.3019586 0.003921628 -0.953313
vn -0.3019586 0.003921628 -0.953313
vn 0.5921524 -0.02745074 0.8053584
vn 0.5921524 -0.02745074 0.8053584
vn 0.5921524 -0.02745074 0.8053584
vn 0.56078 -0.02745074 -0.8275096
vn 0.56078 -0.02745074 -0.8275096
vn 0.56078 -0.02745074 -0.8275096
vn 0.3882323 0.2862724 0.8759702
vn 0.3882323 0.2862724 0.8759702
vn 0.3882323 0.2862724 0.8759702
vn 0.5529369 0.05098009 -0.8316621
vn 0.5529369 0.05098009 -0.8316621
vn 0.5529369 0.05098009 -0.8316621
vn 0.4666631 0.04313695 0.8833826
vn 0.4666631 0.04313695 0.8833826
vn 0.4666631 0.04313695 0.8833826
vn 0.1686261 -0.1137246 -0.9790975
vn 0.1686261 -0.1137246 -0.9790975
vn 0.1686261 -0.1137246 -0.9790975
vn 0.4274477 0.0274508 -0.9036233
vn 0.4274477 0.0274508 -0.9036233
vn 0.4274477 0.0274508 -0.9036233
vn -0.003921628 0.9999924 0
vn -0.003921628 0.9999924 0
vn -0.003921628 0.9999924 0
vn -0.003921628 -0.9999924 0
vn -0.003921628 -0.9999924 0
vn -0.003921628 -0.9999924 0
vn -0.003921628 -0.9999924 0
vn -0.003921628 -0.9999924 0
vn -0.003921628 -0.9999924 0
vn -0.003921628 -0.9999924 0
vn -0.8745031 0.05098009 -0.4823332
vn -0.8745031 0.05098009 -0.4823332
vn -0.8745031 0.05098009 -0.4823332
vn 0.960777 0.2705863 -0.06075074
vn 0.960777 0.2705863 -0.06075074
vn 0.960777 0.2705863 -0.06075074
vn 0.5999954 -0.09019536 0.7949027
vn 0.5999954 -0.09019536 0.7949027
vn 0.5999954 -0.09019536 0.7949027
vn -0.3647032 0.1294109 0.922087
vn -0.3647032 0.1294109 0.922087
vn -0.3647032 0.1294109 0.922087
vn -0.1215677 0.9843062 0.1279162
vn -0.1215677 0.9843062 0.1279162
vn -0.1215677 0.9843062 0.1279162
vn -0.1215677 0.9843062 0.1279162
vn -0.1215677 0.9843062 0.1279162
vn -0.1215677 0.9843062 0.1279162
vn -0.3411739 0.1215677 0.932106
vn -0.3411739 0.1215677 0.932106
vn -0.3411739 0.1215677 0.932106
vn 0.4352908 0.09803855 -0.894936
vn 0.4352908 0.09803855 -0.894936
vn 0.4352908 0.09803855 -0.894936
vn 0.2627431 0.1215677 0.9571767
vn 0.2627431 0.1215677 0.9571767
vn 0.2627431 0.1215677 0.9571767
vn -0.8745031 0.04313695 -0.4830978
vn -0.8745031 0.04313695 -0.4830978
vn -0.8745031 0.04313695 -0.4830978
vn -0.3098016 0.003921628 -0.9507931
vn -0.3098016 0.003921628 -0.9507931
vn -0.3098016 0.003921628 -0.9507931
vn 0.9686201 0.2549001 0
vn 0.9686201 0.2549001 0
vn 0.9686201 0.2549001 0
g Rock_Chunk_02_0
f 3/3/3 2/2/2 1/1/1
f 6/6/6 5/5/5 4/4/4
f 9/9/9 8/8/8 7/7/7
f 12/12/12 11/11/11 10/10/10
f 15/15/15 14/14/14 13/13/13
f 18/18/18 17/17/17 16/16/16
f 21/21/21 20/20/20 19/19/19
f 24/24/24 23/23/23 22/22/22
f 27/27/27 26/26/26 25/25/25
f 30/30/30 29/29/29 28/28/28
f 28/28/28 31/31/31 30/30/30
f 31/31/31 32/32/32 30/30/30
f 31/31/31 33/33/33 32/32/32
f 33/33/33 34/34/34 32/32/32
f 37/37/37 36/36/36 35/35/35
f 40/40/40 39/39/39 38/38/38
f 43/43/43 42/42/42 41/41/41
f 46/46/46 45/45/45 44/44/44
f 49/49/49 48/48/48 47/47/47
f 47/47/47 50/50/50 49/49/49
f 47/47/47 51/51/51 50/50/50
f 51/51/51 52/52/52 50/50/50
f 55/55/55 54/54/54 53/53/53
f 58/58/58 57/57/57 56/56/56
f 61/61/61 60/60/60 59/59/59
f 64/64/64 63/63/63 62/62/62
f 67/67/67 66/66/66 65/65/65
f 70/70/70 69/69/69 68/68/68
