g Rock_Large_Tall_Snow_03
v -0.2646151 27.55734 10.74934
v 12.80182 8.041321 5.907677
v 6.891627 2.621864 12.78057
v 6.891627 2.621864 12.78057
v 4.683732 4.291534E-05 2.993973
v -7.239069 2.621864 10.55987
v 12.80182 8.041321 5.907677
v 4.683732 4.291534E-05 2.993973
v 6.891627 2.621864 12.78057
v 11.16745 2.621864 -4.860398
v 0.1723557 2.621864 -6.462338
v 4.683732 4.291534E-05 2.993973
v -7.239069 9.701296 5.600431
v -1.012244 37.64008 8.188969
v -0.2646151 27.55734 10.74934
v 3.889163 11.91346 -3.519616
v 0.1723557 2.621864 -6.462338
v 11.16745 2.621864 -4.860398
v 4.683732 4.291534E-05 2.993973
v -9.916367 2.621864 1.116365
v -7.239069 2.621864 10.55987
v -0.2646151 27.55734 10.74934
v 6.891627 2.621864 12.78057
v -7.239069 2.621864 10.55987
v -7.239069 9.701296 5.600431
v -0.2646151 27.55734 10.74934
v -7.239069 2.621864 10.55987
v -3.920828 11.64803 -0.4172974
v -7.239069 9.701296 5.600431
v -9.916367 2.621864 1.116365
v 12.80182 8.041321 5.907677
v 11.16745 2.621864 -4.860398
v 4.683732 4.291534E-05 2.993973
v -3.920828 11.64803 -0.4172974
v -9.916367 2.621864 1.116365
v 0.1723557 2.621864 -6.462338
v 4.683732 4.291534E-05 2.993973
v 0.1723557 2.621864 -6.462338
v -9.916367 2.621864 1.116365
v 7.895293 39.74471 9.903564
v -0.2646151 27.55734 10.74934
v -1.012244 37.64008 8.188969
v 6.609986 43.12952 4.214417
v 12.80182 8.041321 5.907677
v 7.895293 39.74471 9.903564
v 3.889163 11.91346 -3.519616
v -3.920828 11.64803 -0.4172974
v 0.1723557 2.621864 -6.462338
v 7.895293 39.74471 9.903564
v -1.012244 37.64008 8.188969
v 6.609986 43.12952 4.214417
v 11.16745 2.621864 -4.860398
v 12.80182 8.041321 5.907677
v 6.609986 43.12952 4.214417
v -3.920828 11.64803 -0.4172974
v -1.012244 37.64008 8.188969
v -7.239069 9.701296 5.600431
v -9.916367 2.621864 1.116365
v -7.239069 9.701296 5.600431
v -7.239069 2.621864 10.55987
v -1.012244 37.64008 8.188969
v -3.920828 11.64803 -0.4172974
v 3.889163 11.91346 -3.519616
v 6.609986 43.12952 4.214417
v 3.889163 11.91346 -3.519616
v 11.16745 2.621864 -4.860398
v 6.609986 43.12952 4.214417
v -1.012244 37.64008 8.188969
v 3.889163 11.91346 -3.519616
v 7.895293 39.74471 9.903564
v 12.80182 8.041321 5.907677
v -0.2646151 27.55734 10.74934
vn 0.6310164 0.2417682 0.7371339
vn 0.6310164 0.2417682 0.7371339
vn 0.6310164 0.2417682 0.7371339
vn 0.3554001 -0.9219445 0.1539775
vn 0.1793121 -0.9831926 0.03434496
vn -0.1116161 -0.9831926 0.1444793
vn 0.6692964 -0.7305444 0.1354521
vn 0.1793121 -0.9831926 0.03434496
vn 0.3554001 -0.9219445 0.1539775
vn 0.3707122 -0.9296005 0
vn -0.05036819 -0.9678805 -0.2463135
vn 0.1793121 -0.9831926 0.03434496
vn -0.9461206 0.3259844 0
vn -0.9690887 0.2034882 0.1394979
vn -0.7547206 0.1116161 0.6464818
vn 0.12572 0.2417682 -0.9621552
vn 0.141032 0.2494242 -0.9580697
vn 0.12572 0.2417682 -0.9621552
vn 0.1793121 -0.9831926 0.03434496
vn -0.1652082 -0.9831926 -0.07770886
vn -0.1116161 -0.9831926 0.1444793
vn -0.1575522 0.03505611 0.9868882
vn -0.1575522 0.03505611 0.9868882
vn -0.1575522 0.03505611 0.9868882
vn -0.9231527 0.2188002 0.3160943
vn -0.9001846 0.2494242 0.3570087
vn -0.9231527 0.2188002 0.3160943
vn -0.8619046 0.3719203 -0.3446675
vn -0.9461206 0.3259844 0
vn -0.8159686 0.4944164 -0.2995791
vn 0.6692964 -0.7305444 0.1354521
vn 0.3707122 -0.9296005 0
vn 0.1793121 -0.9831926 0.03434496
vn -0.4331684 0.3336403 -0.8372868
vn -0.5786325 0.2570803 -0.7740118
vn -0.4714484 0.3336403 -0.8163458
vn 0.1793121 -0.9831926 0.03434496
vn -0.05036819 -0.9678805 -0.2463135
vn -0.1652082 -0.9831926 -0.07770886
vn -0.2341123 0.2264563 0.9454676
vn -0.2341123 0.2264563 0.9454676
vn -0.2341123 0.2264563 0.9454676
vn 0.9678805 0.1652082 -0.1895086
vn 0.9678805 0.1652082 -0.1895086
vn 0.9755366 0.1652082 -0.1450333
vn -0.4331684 0.3259844 -0.8402972
vn -0.4331684 0.3336403 -0.8372868
vn -0.4714484 0.3336403 -0.8163458
vn -0.2877042 0.7930006 0.5370069
vn -0.2877042 0.7930006 0.5370069
vn -0.2877042 0.7930006 0.5370069
vn 0.9602246 0.1575522 -0.2305343
vn 0.9678805 0.1652082 -0.1895086
vn 0.9678805 0.1652082 -0.1895086
vn -0.8619046 0.3719203 -0.3446675
vn -0.9690887 0.2034882 0.1394979
vn -0.9461206 0.3259844 0
vn -0.9461206 0.1881763 0.2635251
vn -0.9231527 0.2188002 0.3160943
vn -0.9231527 0.2188002 0.3160943
vn -0.4714484 0.2877042 -0.8336442
vn -0.4331684 0.3336403 -0.8372868
vn -0.4331684 0.3259844 -0.8402972
vn 0.118064 0.2264563 -0.9668394
vn 0.12572 0.2417682 -0.9621552
vn 0.12572 0.2417682 -0.9621552
vn -0.5786325 0.2417682 -0.7789304
vn -0.4714484 0.2877042 -0.8336442
vn -0.4331684 0.3259844 -0.8402972
vn 0.2329041 -0.08744001 0.9685608
vn 0.2329041 -0.08744001 0.9685608
vn 0.2329041 -0.08744001 0.9685608
g Rock_Large_Tall_Snow_03_0
f 3/3/3 2/2/2 1/1/1
f 6/6/6 5/5/5 4/4/4
f 9/9/9 8/8/8 7/7/7
f 12/12/12 11/11/11 10/10/10
f 15/15/15 14/14/14 13/13/13
f 18/18/18 17/17/17 16/16/16
f 21/21/21 20/20/20 19/19/19
f 24/24/24 23/23/23 22/22/22
f 27/27/27 26/26/26 25/25/25
f 30/30/30 29/29/29 28/28/28
f 33/33/33 32/32/32 31/31/31
f 36/36/36 35/35/35 34/34/34
f 39/39/39 38/38/38 37/37/37
f 42/42/42 41/41/41 40/40/40
f 45/45/45 44/44/44 43/43/43
f 48/48/48 47/47/47 46/46/46
f 51/51/51 50/50/50 49/49/49
f 54/54/54 53/53/53 52/52/52
f 57/57/57 56/56/56 55/55/55
f 60/60/60 59/59/59 58/58/58
f 63/63/63 62/62/62 61/61/61
f 66/66/66 65/65/65 64/64/64
f 69/69/69 68/68/68 67/67/67
f 72/72/72 71/71/71 70/70/70
