g Rock_Flat_m_02
v 0.3842955 0.4484522 0.02557647
v 0.5892544 -0.4296249 5.424023E-06
v 0.6200638 -0.1993477 0.03308922
v 0.5970889 -0.2523507 0.2776339
v 0.559433 -0.5527244 0.1937526
v 0.1443458 -0.6655081 0.26849
v 0.5863137 -0.4501645 5.424023E-06
v -0.04499024 -0.6603158 5.424023E-06
v 0.2192899 -0.676536 0.07499546
v 0.5678648 -0.5496687 0.06720698
v -0.2445042 -0.646393 5.424023E-06
v -0.6378571 0.1230359 5.424023E-06
v -0.5423506 -0.4529445 0.0893088
v -0.4172524 -0.6321026 0.07428318
v -0.6458065 0.3952653 5.424023E-06
v -0.6601657 0.2787597 0.1217953
v -0.6651743 0.2916257 5.424023E-06
v -0.5818444 0.6671961 0.2148666
v -0.6601657 0.2787597 0.1217953
v -0.5493349 -0.3997346 0.1572685
v -0.6378571 0.1230359 5.424023E-06
v -0.5423506 -0.4529445 0.0893088
v -0.6651743 0.2916257 5.424023E-06
v -0.5423506 -0.4529445 0.0893088
v -0.5493349 -0.3997346 0.1572685
v -0.3092244 -0.6328608 0.300425
v -0.4172524 -0.6321026 0.07428318
v -0.04499024 -0.6603158 5.424023E-06
v 0.5892544 -0.4296249 5.424023E-06
v 0.3842955 0.4484522 0.02557647
v 0.5863137 -0.4501645 5.424023E-06
v -0.6378571 0.1230359 5.424023E-06
v -0.2445042 -0.646393 5.424023E-06
v -0.6651743 0.2916257 5.424023E-06
v -0.6458065 0.3952653 5.424023E-06
v -0.1064021 0.696604 5.424023E-06
v -0.3750015 0.5376866 0.3701767
v -0.5818444 0.6671961 0.2148666
v -0.1369817 0.8291231 0.1775783
v -0.5818444 0.6671961 0.2148666
v -0.6458065 0.3952653 5.424023E-06
v -0.1064021 0.696604 5.424023E-06
v -0.4172524 -0.6321026 0.07428318
v -0.3092244 -0.6328608 0.300425
v -0.2445042 -0.646393 5.424023E-06
v -0.04499024 -0.6603158 5.424023E-06
v 0.1443458 -0.6655081 0.26849
v 0.2192899 -0.676536 0.07499546
v 0.3616422 0.5106912 0.1021287
v -0.1369817 0.8291231 0.1775783
v -0.1064021 0.696604 5.424023E-06
v -0.04354286 0.6583278 0.3701767
v 0.4254205 0.3354617 0.3426988
v -0.334336 0.02265865 0.3623424
v 0.3616422 0.5106912 0.1021287
v 0.4254205 0.3354617 0.3426988
v -0.04354286 0.6583278 0.3701767
v -0.5493349 -0.3997346 0.1572685
v -0.334336 0.02265865 0.3623424
v -0.3092244 -0.6328608 0.300425
v -0.6601657 0.2787597 0.1217953
v -0.334336 0.02265865 0.3623424
v -0.5493349 -0.3997346 0.1572685
v -0.3750015 0.5376866 0.3701767
v -0.5818444 0.6671961 0.2148666
v 0.5970889 -0.2523507 0.2776339
v -0.334336 0.02265865 0.3623424
v 0.4254205 0.3354617 0.3426988
v 0.559433 -0.5527244 0.1937526
v 0.5892544 -0.4296249 5.424023E-06
v 0.5678648 -0.5496687 0.06720698
v 0.5970889 -0.2523507 0.2776339
v 0.6200638 -0.1993477 0.03308922
v 0.5863137 -0.4501645 5.424023E-06
v 0.5678648 -0.5496687 0.06720698
v 0.5892544 -0.4296249 5.424023E-06
v 0.6200638 -0.1993477 0.03308922
v 0.5970889 -0.2523507 0.2776339
v 0.4254205 0.3354617 0.3426988
v -0.1064021 0.696604 5.424023E-06
v -0.6378571 0.1230359 5.424023E-06
v 0.3842955 0.4484522 0.02557647
v 0.1443458 -0.6655081 0.26849
v -0.3092244 -0.6328608 0.300425
v -0.334336 0.02265865 0.3623424
v 0.5970889 -0.2523507 0.2776339
v 0.3616422 0.5106912 0.1021287
v 0.3842955 0.4484522 0.02557647
v 0.4254205 0.3354617 0.3426988
v -0.1064021 0.696604 5.424023E-06
v -0.1369817 0.8291231 0.1775783
v -0.5818444 0.6671961 0.2148666
v 0.2192899 -0.676536 0.07499546
v 0.1443458 -0.6655081 0.26849
v 0.559433 -0.5527244 0.1937526
v -0.04499024 -0.6603158 5.424023E-06
v 0.3842955 0.4484522 0.02557647
v -0.6378571 0.1230359 5.424023E-06
v -0.3750015 0.5376866 0.3701767
v -0.1369817 0.8291231 0.1775783
v -0.04354286 0.6583278 0.3701767
v 0.3616422 0.5106912 0.1021287
v -0.1064021 0.696604 5.424023E-06
v 0.3842955 0.4484522 0.02557647
v -0.04354286 0.6583278 0.3701767
v -0.334336 0.02265865 0.3623424
v -0.3750015 0.5376866 0.3701767
v 0.3616422 0.5106912 0.1021287
v -0.04354286 0.6583278 0.3701767
v -0.1369817 0.8291231 0.1775783
v 0.6200638 -0.1993477 0.03308922
v 0.4254205 0.3354617 0.3426988
v 0.3842955 0.4484522 0.02557647
v 0.2192899 -0.676536 0.07499546
v 0.559433 -0.5527244 0.1937526
v 0.5678648 -0.5496687 0.06720698
vn 0.2969021 0.09989041 -0.9496689
vn 0.2969021 0.09989041 -0.9496689
vn 0.2969021 0.09989041 -0.9496689
vn 0.2424404 -0.2891219 0.9260838
vn 0.2424404 -0.2891219 0.9260838
vn 0.2424404 -0.2891219 0.9260838
vn 0.1879787 -0.5769909 -0.7948242
vn 0.1879787 -0.5769909 -0.7948242
vn 0.1879787 -0.5769909 -0.7948242
vn 0.1879787 -0.5769909 -0.7948242
vn -0.40332 -0.2035391 -0.892135
vn -0.40332 -0.2035391 -0.892135
vn -0.40332 -0.2035391 -0.892135
vn -0.40332 -0.2035391 -0.892135
vn -0.9790581 0.1854731 0.0839343
vn -0.9790581 0.1854731 0.0839343
vn -0.9790581 0.1854731 0.0839343
vn -0.9790581 0.1854731 0.0839343
vn -0.9868383 -0.1568577 0.03931792
vn -0.9868383 -0.1568577 0.03931792
vn -0.9868383 -0.1568577 0.03931792
vn -0.9868383 -0.1568577 0.03931792
vn -0.9868383 -0.1568577 0.03931792
vn -0.7534309 -0.5536501 0.3547018
vn -0.7534309 -0.5536501 0.3547018
vn -0.7534309 -0.5536501 0.3547018
vn -0.7534309 -0.5536501 0.3547018
vn -0.006527483 0.02986819 -0.9995325
vn -0.006527483 0.02986819 -0.9995325
vn -0.006527483 0.02986819 -0.9995325
vn 0.00125277 -0.00125277 -0.9999985
vn 0.00125277 -0.00125277 -0.9999985
vn 0.00125277 -0.00125277 -0.9999985
vn 0.00125277 -0.00125277 -0.9999985
vn 0.00125277 -0.00125277 -0.9999985
vn 0.00125277 -0.00125277 -0.9999985
vn -0.1699126 0.6367273 0.7521357
vn -0.1699126 0.6367273 0.7521357
vn -0.1699126 0.6367273 0.7521357
vn -0.3488583 0.6289471 -0.694783
vn -0.3488583 0.6289471 -0.694783
vn -0.3488583 0.6289471 -0.694783
vn -0.0687694 -0.9971241 0.03184702
vn -0.0687694 -0.9971241 0.03184702
vn -0.0687694 -0.9971241 0.03184702
vn -0.0687694 -0.9971241 0.03184702
vn -0.0687694 -0.9971241 0.03184702
vn -0.0687694 -0.9971241 0.03184702
vn 0.4136057 0.7612112 -0.4994875
vn 0.4136057 0.7612112 -0.4994875
vn 0.4136057 0.7612112 -0.4994875
vn 0.04015404 -0.03237379 0.9986689
vn 0.04015404 -0.03237379 0.9986689
vn 0.04015404 -0.03237379 0.9986689
vn 0.5380897 0.7456507 0.3930197
vn 0.5380897 0.7456507 0.3930197
vn 0.5380897 0.7456507 0.3930197
vn -0.5822656 -0.102396 0.8065246
vn -0.5822656 -0.102396 0.8065246
vn -0.5822656 -0.102396 0.8065246
vn -0.6211668 -0.06349474 0.7811019
vn -0.6211668 -0.06349474 0.7811019
vn -0.6211668 -0.06349474 0.7811019
vn -0.6211668 -0.06349474 0.7811019
vn -0.6211668 -0.06349474 0.7811019
vn 0.06349474 -0.09461576 0.9934869
vn 0.06349474 -0.09461576 0.9934869
vn 0.06349474 -0.09461576 0.9934869
vn 0.9893439 -0.1412972 0.03512527
vn 0.9893439 -0.1412972 0.03512527
vn 0.9893439 -0.1412972 0.03512527
vn 0.9893439 -0.1412972 0.03512527
vn 0.9893439 -0.1412972 0.03512527
vn 0.9893439 -0.1412972 0.03512527
vn 0.9893439 -0.1412972 0.03512527
vn 0.9893439 -0.1412972 0.03512527
vn 0.9504427 0.2632756 0.1653623
vn 0.9504427 0.2632756 0.1653623
vn 0.9504427 0.2632756 0.1653623
vn 0.03237379 -0.03237379 -0.9989514
vn 0.03237379 -0.03237379 -0.9989514
vn 0.03237379 -0.03237379 -0.9989514
vn 0.06349474 -0.09461576 0.9934869
vn 0.06349474 -0.09461576 0.9934869
vn 0.06349474 -0.09461576 0.9934869
vn 0.06349474 -0.09461576 0.9934869
vn 0.9426624 0.341078 0
vn 0.9426624 0.341078 0
vn 0.9426624 0.341078 0
vn -0.3177373 0.7300902 -0.6049887
vn -0.3177373 0.7300902 -0.6049887
vn -0.3177373 0.7300902 -0.6049887
vn 0.2891219 -0.9426624 0.1667216
vn 0.2891219 -0.9426624 0.1667216
vn 0.2891219 -0.9426624 0.1667216
vn 0.01681328 0.0143078 -0.9997563
vn 0.01681328 0.0143078 -0.9997563
vn 0.01681328 0.0143078 -0.9997563
vn -0.2399349 0.6678483 0.7045636
vn -0.2399349 0.6678483 0.7045636
vn -0.2399349 0.6678483 0.7045636
vn 0.4136057 0.7612112 -0.4994875
vn 0.4136057 0.7612112 -0.4994875
vn 0.4136057 0.7612112 -0.4994875
vn 0.009033024 -0.01681328 0.9998178
vn 0.009033024 -0.01681328 0.9998178
vn 0.009033024 -0.01681328 0.9998178
vn 0.5380897 0.7456507 0.3930197
vn 0.5380897 0.7456507 0.3930197
vn 0.5380897 0.7456507 0.3930197
vn 0.9426624 0.341078 0
vn 0.9426624 0.341078 0
vn 0.9426624 0.341078 0
vn 0.3435836 -0.9426624 0
vn 0.3435836 -0.9426624 0
vn 0.3435836 -0.9426624 0
g Rock_Flat_m_02_0
f 3/3/3 2/2/2 1/1/1
f 6/6/6 5/5/5 4/4/4
f 9/9/9 8/8/8 7/7/7
f 10/10/10 9/9/9 7/7/7
f 13/13/13 12/12/12 11/11/11
f 14/14/14 13/13/13 11/11/11
f 17/17/17 16/16/16 15/15/15
f 16/16/16 18/18/18 15/15/15
f 21/21/21 20/20/20 19/19/19
f 20/20/20 21/21/21 22/22/22
f 23/23/23 21/21/21 19/19/19
f 26/26/26 25/25/25 24/24/24
f 27/27/27 26/26/26 24/24/24
f 30/30/30 29/29/29 28/28/28
f 31/31/31 28/28/28 29/29/29
f 33/33/33 32/32/32 28/28/28
f 35/35/35 32/32/32 34/34/34
f 35/35/35 36/36/36 32/32/32
f 39/39/39 38/38/38 37/37/37
f 42/42/42 41/41/41 40/40/40
f 45/45/45 44/44/44 43/43/43
f 45/45/45 46/46/46 44/44/44
f 46/46/46 47/47/47 44/44/44
f 48/48/48 47/47/47 46/46/46
f 51/51/51 50/50/50 49/49/49
f 54/54/54 53/53/53 52/52/52
f 57/57/57 56/56/56 55/55/55
f 60/60/60 59/59/59 58/58/58
f 63/63/63 62/62/62 61/61/61
f 61/61/61 62/62/62 64/64/64
f 65/65/65 61/61/61 64/64/64
f 68/68/68 67/67/67 66/66/66
f 71/71/71 70/70/70 69/69/69
f 72/72/72 69/69/69 70/70/70
f 73/73/73 72/72/72 70/70/70
f 76/76/76 75/75/75 74/74/74
f 79/79/79 78/78/78 77/77/77
f 82/82/82 81/81/81 80/80/80
f 85/85/85 84/84/84 83/83/83
f 86/86/86 85/85/85 83/83/83
f 89/89/89 88/88/88 87/87/87
f 92/92/92 91/91/91 90/90/90
f 95/95/95 94/94/94 93/93/93
f 98/98/98 97/97/97 96/96/96
f 101/101/101 100/100/100 99/99/99
f 104/104/104 103/103/103 102/102/102
f 107/107/107 106/106/106 105/105/105
f 110/110/110 109/109/109 108/108/108
f 113/113/113 112/112/112 111/111/111
f 116/116/116 115/115/115 114/114/114
