g Rock_Medium_Flat_Dirt_04
v -3.091796 2.63903 -5.098216
v -3.807766 1.55587 -6.577546
v -0.3356533 1.55587 -6.577546
v -0.5306692 2.63903 -5.098216
v -8.856375 2.63903 0.4982805
v -10.52936 1.55587 -0.05165195
v -3.807766 1.55587 -6.577546
v -3.091796 2.63903 -5.098216
v -1.320964 2.63903 5.233568
v -2.036593 1.55587 5.830551
v -8.117561 1.55587 5.830551
v -6.535952 2.63903 5.233568
v -6.535952 2.63903 5.233568
v -8.856375 2.63903 0.4982805
v -3.091796 2.63903 -5.098216
v -1.320964 2.63903 5.233568
v -0.5306692 2.63903 -5.098216
v 1.240162 2.63903 5.806345
v 5.767818 2.63903 -4.240757
v 10.14103 2.63903 3.461032
v 7.008492 0.8630838 -4.79069
v 11.81401 0.8630838 4.550669
v 11.81401 1.55587 4.550669
v 7.008492 1.55587 -4.79069
v -2.036593 1.55587 5.830551
v -2.036593 0.8630838 5.830551
v -8.117561 0.8630838 5.830551
v -8.117561 1.55587 5.830551
v 11.81401 0.8630838 4.550669
v 7.008492 0.8630838 -4.79069
v 9.581892 0.000169754 3.096569
v 1.435179 0.8630838 7.285675
v -1.081626 0.000169754 5.033779
v -2.036593 0.8630838 5.830551
v 7.008492 0.8630838 -4.79069
v -0.3356533 0.8630838 -6.577546
v 5.352897 0.000169754 -4.056992
v -8.117561 1.55587 5.830551
v -10.52936 1.55587 -0.05165195
v -8.856375 2.63903 0.4982805
v -6.007156 0.000169754 5.033779
v -8.297235 0.000169754 0.6823874
v -8.117561 0.8630838 5.830551
v 9.581892 0.000169754 3.096569
v 7.008492 0.8630838 -4.79069
v 5.352897 0.000169754 -4.056992
v 1.435179 1.55587 7.285675
v 1.240162 2.63903 5.806345
v 10.14103 2.63903 3.461032
v 11.81401 1.55587 4.550669
v 10.14103 2.63903 3.461032
v 5.767818 2.63903 -4.240757
v 7.008492 1.55587 -4.79069
v -6.535952 2.63903 5.233568
v -8.117561 1.55587 5.830551
v -8.856375 2.63903 0.4982805
v 1.435179 0.8630838 7.285675
v 1.175043 0.000169754 5.311983
v -1.081626 0.000169754 5.033779
v 9.581892 0.000169754 3.096569
v 1.175043 0.000169754 5.311983
v 1.435179 0.8630838 7.285675
v 11.81401 0.8630838 4.550669
v -1.320964 2.63903 5.233568
v 1.435179 1.55587 7.285675
v -2.036593 1.55587 5.830551
v 11.81401 1.55587 4.550669
v 10.14103 2.63903 3.461032
v 7.008492 1.55587 -4.79069
v -0.3356533 0.8630838 -6.577546
v -3.807766 0.8630838 -6.577546
v -2.852457 0.000169754 -4.603856
v -0.5961294 0.000169754 -4.603856
v -3.807766 1.55587 -6.577546
v -3.807766 0.8630838 -6.577546
v -0.3356533 0.8630838 -6.577546
v -0.3356533 1.55587 -6.577546
v 1.435179 1.55587 7.285675
v -1.320964 2.63903 5.233568
v 1.240162 2.63903 5.806345
v -10.52936 1.55587 -0.05165195
v -8.117561 1.55587 5.830551
v -8.117561 0.8630838 5.830551
v -10.52936 0.8630838 -0.05165195
v -8.117561 0.8630838 5.830551
v -8.297235 0.000169754 0.6823874
v -10.52936 0.8630838 -0.05165195
v -3.807766 0.8630838 -6.577546
v -10.52936 0.8630838 -0.05165195
v -8.297235 0.000169754 0.6823874
v -2.852457 0.000169754 -4.603856
v -2.036593 0.8630838 5.830551
v -1.081626 0.000169754 5.033779
v -6.007156 0.000169754 5.033779
v -8.117561 0.8630838 5.830551
v 1.435179 1.55587 7.285675
v 1.435179 0.8630838 7.285675
v -2.036593 0.8630838 5.830551
v -2.036593 1.55587 5.830551
v 11.81401 1.55587 4.550669
v 11.81401 0.8630838 4.550669
v 1.435179 0.8630838 7.285675
v 1.435179 1.55587 7.285675
v -0.3356533 1.55587 -6.577546
v -0.3356533 0.8630838 -6.577546
v 7.008492 0.8630838 -4.79069
v 7.008492 1.55587 -4.79069
v -2.852457 0.000169754 -4.603856
v -8.297235 0.000169754 0.6823874
v -6.007156 0.000169754 5.033779
v -1.081626 0.000169754 5.033779
v -0.5961294 0.000169754 -4.603856
v 1.175043 0.000169754 5.311983
v 5.352897 0.000169754 -4.056992
v 9.581892 0.000169754 3.096569
v 5.767818 2.63903 -4.240757
v -0.3356533 1.55587 -6.577546
v 7.008492 1.55587 -4.79069
v 5.352897 0.000169754 -4.056992
v -0.3356533 0.8630838 -6.577546
v -0.5961294 0.000169754 -4.603856
v 5.767818 2.63903 -4.240757
v -0.5306692 2.63903 -5.098216
v -0.3356533 1.55587 -6.577546
v -10.52936 1.55587 -0.05165195
v -10.52936 0.8630838 -0.05165195
v -3.807766 0.8630838 -6.577546
v -3.807766 1.55587 -6.577546
vn -0.003921628 0.8039155 -0.5947306
vn -0.003921628 0.8039155 -0.5947306
vn 0.09019536 0.7490139 -0.6563863
vn 0.04313689 0.8117585 -0.5823979
vn -0.3960755 0.8196017 -0.4139775
vn -0.3960755 0.8196017 -0.4139775
vn -0.3960755 0.8196017 -0.4139775
vn -0.3960755 0.8196017 -0.4139775
vn -0.003921628 0.4823493 0.8759702
vn -0.003921628 0.4823493 0.8759702
vn -0.003921628 0.4823493 0.8759702
vn -0.003921628 0.4823493 0.8759702
vn -0.003921628 0.9999924 0
vn -0.003921628 0.9999924 0
vn -0.003921628 0.9999924 0
vn -0.003921628 0.9999924 0
vn -0.003921628 0.9999924 0
vn -0.003921628 0.9999924 0
vn -0.003921628 0.9999924 0
vn -0.003921628 0.9999924 0
vn 0.8901893 0.003921628 -0.455574
vn 0.8901893 0.003921628 -0.455574
vn 0.8901893 0.003921628 -0.455574
vn 0.8901893 0.003921628 -0.455574
vn -0.003921628 0.003921628 0.9999846
vn -0.003921628 0.003921628 0.9999846
vn -0.003921628 0.003921628 0.9999846
vn -0.003921628 0.003921628 0.9999846
vn 0.4901923 -0.8352877 -0.2490098
vn 0.4274477 -0.8745031 -0.2292003
vn 0.4274477 -0.8745031 -0.2292003
vn -0.06666625 -0.8823462 0.4658549
vn -0.09803855 -0.8117585 0.5757053
vn -0.1215677 -0.7411708 0.6602175
vn 0.1450969 -0.7882293 -0.5980313
vn 0.05882305 -0.8823462 -0.4669101
vn 0.09019536 -0.858817 -0.5042799
vn -0.5372509 0.8117585 0.2289315
vn -0.5843093 0.7803862 0.2226655
vn -0.5372509 0.8117585 0.2289315
vn -0.3176447 -0.9294047 0.1879063
vn -0.35686 -0.9215616 0.1528894
vn -0.35686 -0.9215616 0.1528894
vn 0.4274477 -0.8745031 -0.2292003
vn 0.4274477 -0.8745031 -0.2292003
vn 0.3725461 -0.8980324 -0.2339814
vn -0.09803855 0.756857 0.6461856
vn 0.01176459 0.8039155 0.5946272
vn 0.15294 0.8039155 0.5747427
vn 0.15294 0.8039155 0.5747427
vn 0.5999954 0.7333277 -0.3197437
vn 0.5450939 0.7803862 -0.3063821
vn 0.5999954 0.7333277 -0.3197437
vn -0.4823493 0.8431308 0.2376332
vn -0.5372509 0.8117585 0.2289315
vn -0.5372509 0.8117585 0.2289315
vn -0.06666625 -0.8823462 0.4658549
vn 0.02745074 -0.9137185 0.4054195
vn -0.09803855 -0.8117585 0.5757053
vn 0.1058815 -0.9137185 0.3923105
vn 0.02745074 -0.9137185 0.4054195
vn -0.06666625 -0.8823462 0.4658549
vn 0.1058815 -0.9137185 0.3923105
vn -0.2235278 0.7097986 0.667998
vn -0.09803855 0.756857 0.6461856
vn -0.3098016 0.6078385 0.7311329
vn 0.654897 0.6705831 -0.3484655
vn 0.5999954 0.7333277 -0.3197437
vn 0.5999954 0.7333277 -0.3197437
vn 0.05882305 -0.8823462 -0.4669101
vn -0.1372539 -0.9294047 -0.3425905
vn -0.1372539 -0.9294047 -0.3425905
vn 0.01960766 -0.9137185 -0.4058744
vn -0.003921628 0.003921628 -0.9999846
vn -0.003921628 0.003921628 -0.9999846
vn 0.1215677 0.003921628 -0.9925754
vn 0.1215677 0.003921628 -0.9925754
vn -0.09803855 0.756857 0.6461856
vn -0.2235278 0.7097986 0.667998
vn 0.01176459 0.8039155 0.5946272
vn -0.9215616 0.003921628 0.3882124
vn -0.9215616 0.003921628 0.3882124
vn -0.9215616 0.003921628 0.3882124
vn -0.9215616 0.003921628 0.3882124
vn -0.35686 -0.9215616 0.1528894
vn -0.35686 -0.9215616 0.1528894
vn -0.4039185 -0.8980324 0.1743207
vn -0.1372539 -0.9294047 -0.3425905
vn -0.2705863 -0.9215616 -0.2784013
vn -0.2705863 -0.9215616 -0.2784013
vn -0.1372539 -0.9294047 -0.3425905
vn -0.1215677 -0.7411708 0.6602175
vn -0.09803855 -0.8117585 0.5757053
vn -0.003921628 -0.6784261 0.7346581
vn -0.003921628 -0.6784261 0.7346581
vn -0.3882324 0.003921628 0.9215532
vn -0.3882324 0.003921628 0.9215532
vn -0.3882324 0.003921628 0.9215532
vn -0.3882324 0.003921628 0.9215532
vn 0.2549 0.003921628 0.9669595
vn 0.2549 0.003921628 0.9669595
vn 0.2549 0.003921628 0.9669595
vn 0.2549 0.003921628 0.9669595
vn 0.1215677 0.003921628 -0.9925754
vn 0.1215677 0.003921628 -0.9925754
vn 0.2392138 0.003921628 -0.970959
vn 0.2392138 0.003921628 -0.970959
vn -0.003921628 -0.9999924 0
vn -0.003921628 -0.9999924 0
vn -0.003921628 -0.9999924 0
vn -0.003921628 -0.9999924 0
vn -0.003921628 -0.9999924 0
vn -0.003921628 -0.9999924 0
vn -0.003921628 -0.9999924 0
vn -0.003921628 -0.9999924 0
vn 0.1372538 0.7176416 -0.6827532
vn 0.09019536 0.7490139 -0.6563863
vn 0.1843123 0.6078385 -0.7723738
vn 0.09019536 -0.858817 -0.5042799
vn 0.05882305 -0.8823462 -0.4669101
vn 0.01960766 -0.9137185 -0.4058744
vn 0.1372538 0.7176416 -0.6827532
vn 0.04313689 0.8117585 -0.5823979
vn 0.09019536 0.7490139 -0.6563863
vn -0.6941124 0.003921628 -0.7198559
vn -0.6941124 0.003921628 -0.7198559
vn -0.6941124 0.003921628 -0.7198559
vn -0.6941124 0.003921628 -0.7198559
g Rock_Medium_Flat_Dirt_04_0
f 3/3/3 2/2/2 1/1/1
f 1/1/1 4/4/4 3/3/3
f 7/7/7 6/6/6 5/5/5
f 5/5/5 8/8/8 7/7/7
f 11/11/11 10/10/10 9/9/9
f 9/9/9 12/12/12 11/11/11
f 15/15/15 14/14/14 13/13/13
f 13/13/13 16/16/16 15/15/15
f 16/16/16 17/17/17 15/15/15
f 16/16/16 18/18/18 17/17/17
f 18/18/18 19/19/19 17/17/17
f 18/18/18 20/20/20 19/19/19
f 23/23/23 22/22/22 21/21/21
f 21/21/21 24/24/24 23/23/23
f 27/27/27 26/26/26 25/25/25
f 25/25/25 28/28/28 27/27/27
f 31/31/31 30/30/30 29/29/29
f 34/34/34 33/33/33 32/32/32
f 37/37/37 36/36/36 35/35/35
f 40/40/40 39/39/39 38/38/38
f 43/43/43 42/42/42 41/41/41
f 46/46/46 45/45/45 44/44/44
f 49/49/49 48/48/48 47/47/47
f 47/47/47 50/50/50 49/49/49
f 53/53/53 52/52/52 51/51/51
f 56/56/56 55/55/55 54/54/54
f 59/59/59 58/58/58 57/57/57
f 62/62/62 61/61/61 60/60/60
f 60/60/60 63/63/63 62/62/62
f 66/66/66 65/65/65 64/64/64
f 69/69/69 68/68/68 67/67/67
f 72/72/72 71/71/71 70/70/70
f 70/70/70 73/73/73 72/72/72
f 76/76/76 75/75/75 74/74/74
f 74/74/74 77/77/77 76/76/76
f 80/80/80 79/79/79 78/78/78
f 83/83/83 82/82/82 81/81/81
f 81/81/81 84/84/84 83/83/83
f 87/87/87 86/86/86 85/85/85
f 90/90/90 89/89/89 88/88/88
f 88/88/88 91/91/91 90/90/90
f 94/94/94 93/93/93 92/92/92
f 92/92/92 95/95/95 94/94/94
f 98/98/98 97/97/97 96/96/96
f 96/96/96 99/99/99 98/98/98
f 102/102/102 101/101/101 100/100/100
f 100/100/100 103/103/103 102/102/102
f 106/106/106 105/105/105 104/104/104
f 104/104/104 107/107/107 106/106/106
f 110/110/110 109/109/109 108/108/108
f 108/108/108 111/111/111 110/110/110
f 108/108/108 112/112/112 111/111/111
f 112/112/112 113/113/113 111/111/111
f 112/112/112 114/114/114 113/113/113
f 114/114/114 115/115/115 113/113/113
f 118/118/118 117/117/117 116/116/116
f 121/121/121 120/120/120 119/119/119
f 124/124/124 123/123/123 122/122/122
f 127/127/127 126/126/126 125/125/125
f 125/125/125 128/128/128 127/127/127
