g Rock_Flat_m_01
v -0.5701342 0.1189029 0.2859044
v -0.5757506 0.2964944 0.05464387
v -0.5232352 0.3849593 0.0343526
v -0.3155566 0.5361702 0.2020538
v 0.4918222 0.1709644 0.3201708
v 0.4620188 0.3040399 -0.002485693
v 0.630136 0.1421443 0.08359635
v 0.1705084 0.5340711 -0.002485693
v -0.01122463 0.609185 0.1986688
v -0.4903493 -0.4099383 0.1665204
v -0.3401784 -0.4920113 -0.002485693
v -0.427868 -0.431856 -0.002485693
v -0.4802887 -0.3984028 0.01774889
v -0.2925799 -0.5483845 0.1886649
v -0.2498415 -0.5680896 0.1112062
v -0.4802887 -0.3984028 0.01774889
v -0.5701342 0.1189029 0.2859044
v -0.5395553 -0.1465484 0.3476104
v -0.5757506 0.2964944 0.05464387
v -0.4903493 -0.4099383 0.1665204
v 0.3223623 -0.4772231 0.3255225
v -0.1616414 -0.3782438 0.4167106
v 0.4314589 -0.08520162 0.3758065
v -0.08236718 -0.4811187 0.3869638
v 0.4302486 -0.3851841 0.3247094
v 0.4314589 -0.08520162 0.3758065
v 0.6051737 -0.1658563 0.0708127
v 0.4302486 -0.3851841 0.3247094
v 0.630136 0.1421443 0.08359635
v 0.4918222 0.1709644 0.3201708
v 0.630136 0.1421443 0.08359635
v 0.4620188 0.3040399 -0.002485693
v 0.4620188 -0.2674074 -0.002485693
v 0.6051737 -0.1658563 0.0708127
v -0.427868 0.38651 -0.002485693
v -0.3155566 0.5361702 0.2020538
v -0.5232352 0.3849593 0.0343526
v -0.01122463 0.609185 0.1986688
v 0.1705084 0.5340711 -0.002485693
v 0.1468509 -0.5573293 0.07550257
v -0.2498415 -0.5680896 0.1112062
v -0.08236718 -0.4811187 0.3869638
v -0.2925799 -0.5483845 0.1886649
v 0.3223623 -0.4772231 0.3255225
v -0.1616414 -0.3782438 0.4167106
v -0.3155566 0.5361702 0.2020538
v -0.01122463 0.609185 0.1986688
v -0.5701342 0.1189029 0.2859044
v -0.5395553 -0.1465484 0.3476104
v 0.4314589 -0.08520162 0.3758065
v 0.4918222 0.1709644 0.3201708
v 0.1793397 -0.5080477 -0.002485693
v -0.427868 0.38651 -0.002485693
v -0.3401784 -0.4920113 -0.002485693
v -0.427868 -0.431856 -0.002485693
v 0.4620188 -0.2674074 -0.002485693
v 0.1705084 0.5340711 -0.002485693
v 0.4620188 0.3040399 -0.002485693
v 0.3223623 -0.4772231 0.3255225
v 0.4302486 -0.3851841 0.3247094
v 0.4620188 -0.2674074 -0.002485693
v 0.6051737 -0.1658563 0.0708127
v 0.1793397 -0.5080477 -0.002485693
v 0.1468509 -0.5573293 0.07550257
v -0.5757506 0.2964944 0.05464387
v -0.427868 0.38651 -0.002485693
v -0.5232352 0.3849593 0.0343526
v -0.4802887 -0.3984028 0.01774889
v -0.427868 -0.431856 -0.002485693
v -0.08236718 -0.4811187 0.3869638
v -0.2925799 -0.5483845 0.1886649
v -0.1616414 -0.3782438 0.4167106
v -0.4903493 -0.4099383 0.1665204
v -0.5395553 -0.1465484 0.3476104
v -0.2498415 -0.5680896 0.1112062
v 0.1468509 -0.5573293 0.07550257
v 0.1793397 -0.5080477 -0.002485693
v -0.3401784 -0.4920113 -0.002485693
vn -0.728408 0.529671 0.4345923
vn -0.728408 0.529671 0.4345923
vn -0.728408 0.529671 0.4345923
vn -0.728408 0.529671 0.4345923
vn 0.601601 0.7589829 0.2490405
vn 0.601601 0.7589829 0.2490405
vn 0.601601 0.7589829 0.2490405
vn 0.601601 0.7589829 0.2490405
vn 0.601601 0.7589829 0.2490405
vn -0.5602459 -0.8232692 -0.09139146
vn -0.5602459 -0.8232692 -0.09139146
vn -0.5602459 -0.8232692 -0.09139146
vn -0.5602459 -0.8232692 -0.09139146
vn -0.5602459 -0.8232692 -0.09139146
vn -0.5602459 -0.8232692 -0.09139146
vn -0.9882947 -0.1353335 -0.07041563
vn -0.9882947 -0.1353335 -0.07041563
vn -0.9882947 -0.1353335 -0.07041563
vn -0.9882947 -0.1353335 -0.07041563
vn -0.9882947 -0.1353335 -0.07041563
vn 0.150621 -0.1659085 0.9745705
vn 0.150621 -0.1659085 0.9745705
vn 0.150621 -0.1659085 0.9745705
vn 0.150621 -0.1659085 0.9745705
vn 0.150621 -0.1659085 0.9745705
vn 0.8538441 -0.08947116 0.5127818
vn 0.8538441 -0.08947116 0.5127818
vn 0.8538441 -0.08947116 0.5127818
vn 0.8538441 -0.08947116 0.5127818
vn 0.8538441 -0.08947116 0.5127818
vn 0.4563701 0.002253592 -0.8897872
vn 0.4563701 0.002253592 -0.8897872
vn 0.4563701 0.002253592 -0.8897872
vn 0.4563701 0.002253592 -0.8897872
vn -0.2086344 0.8430638 -0.4956966
vn -0.2086344 0.8430638 -0.4956966
vn -0.2086344 0.8430638 -0.4956966
vn -0.2086344 0.8430638 -0.4956966
vn -0.2086344 0.8430638 -0.4956966
vn 0.05125248 -0.9608563 0.2722651
vn 0.05125248 -0.9608563 0.2722651
vn 0.05125248 -0.9608563 0.2722651
vn 0.05125248 -0.9608563 0.2722651
vn 0.05125248 -0.9608563 0.2722651
vn -0.04047227 0.2239218 0.9737664
vn -0.04047227 0.2239218 0.9737664
vn -0.04047227 0.2239218 0.9737664
vn -0.04047227 0.2239218 0.9737664
vn -0.04047227 0.2239218 0.9737664
vn -0.04047227 0.2239218 0.9737664
vn -0.04047227 0.2239218 0.9737664
vn -0.002253592 0.002253592 -0.9999949
vn -0.002253592 0.002253592 -0.9999949
vn -0.002253592 0.002253592 -0.9999949
vn -0.002253592 0.002253592 -0.9999949
vn -0.002253592 0.002253592 -0.9999949
vn -0.002253592 0.002253592 -0.9999949
vn -0.002253592 0.002253592 -0.9999949
vn 0.6321759 -0.7468319 -0.2063874
vn 0.6321759 -0.7468319 -0.2063874
vn 0.6321759 -0.7468319 -0.2063874
vn 0.6321759 -0.7468319 -0.2063874
vn 0.6321759 -0.7468319 -0.2063874
vn 0.6321759 -0.7468319 -0.2063874
vn -0.361509 0.002253592 -0.9323659
vn -0.361509 0.002253592 -0.9323659
vn -0.361509 0.002253592 -0.9323659
vn -0.361509 0.002253592 -0.9323659
vn -0.361509 0.002253592 -0.9323659
vn -0.4685211 -0.5557387 0.6867623
vn -0.4685211 -0.5557387 0.6867623
vn -0.4685211 -0.5557387 0.6867623
vn -0.4685211 -0.5557387 0.6867623
vn -0.4685211 -0.5557387 0.6867623
vn -0.02518487 -0.8385566 -0.544232
vn -0.02518487 -0.8385566 -0.544232
vn -0.02518487 -0.8385566 -0.544232
vn -0.02518487 -0.8385566 -0.544232
g Rock_Flat_m_01_0
f 3/3/3 2/2/2 1/1/1
f 4/4/4 3/3/3 1/1/1
f 7/7/7 6/6/6 5/5/5
f 8/8/8 5/5/5 6/6/6
f 5/5/5 8/8/8 9/9/9
f 12/12/12 11/11/11 10/10/10
f 12/12/12 10/10/10 13/13/13
f 10/10/10 11/11/11 14/14/14
f 11/11/11 15/15/15 14/14/14
f 18/18/18 17/17/17 16/16/16
f 19/19/19 16/16/16 17/17/17
f 20/20/20 18/18/18 16/16/16
f 23/23/23 22/22/22 21/21/21
f 24/24/24 21/21/21 22/22/22
f 25/25/25 23/23/23 21/21/21
f 28/28/28 27/27/27 26/26/26
f 27/27/27 29/29/29 26/26/26
f 29/29/29 30/30/30 26/26/26
f 33/33/33 32/32/32 31/31/31
f 34/34/34 33/33/33 31/31/31
f 37/37/37 36/36/36 35/35/35
f 36/36/36 38/38/38 35/35/35
f 38/38/38 39/39/39 35/35/35
f 42/42/42 41/41/41 40/40/40
f 43/43/43 41/41/41 42/42/42
f 44/44/44 42/42/42 40/40/40
f 47/47/47 46/46/46 45/45/45
f 48/48/48 45/45/45 46/46/46
f 45/45/45 48/48/48 49/49/49
f 50/50/50 47/47/47 45/45/45
f 47/47/47 50/50/50 51/51/51
f 54/54/54 53/53/53 52/52/52
f 53/53/53 54/54/54 55/55/55
f 56/56/56 52/52/52 53/53/53
f 57/57/57 56/56/56 53/53/53
f 58/58/58 56/56/56 57/57/57
f 61/61/61 60/60/60 59/59/59
f 62/62/62 60/60/60 61/61/61
f 63/63/63 61/61/61 59/59/59
f 63/63/63 59/59/59 64/64/64
f 67/67/67 66/66/66 65/65/65
f 68/68/68 65/65/65 66/66/66
f 69/69/69 68/68/68 66/66/66
f 72/72/72 71/71/71 70/70/70
f 73/73/73 71/71/71 72/72/72
f 74/74/74 73/73/73 72/72/72
f 77/77/77 76/76/76 75/75/75
f 78/78/78 77/77/77 75/75/75
