g Rock_Wall_07
v -0.7937937 1.060373 5.828448
v -2.12032 1.060373 6.436541
v -3.349431 1.060373 6.131932
v -3.349431 1.060373 -0.00275898
v -0.7937937 1.060373 -0.00275898
v -2.12032 1.060373 6.436541
v -0.7937937 0.1079569 6.436541
v -1.237218 -0.7365541 6.436541
v -2.12032 1.060373 6.436541
v -0.7937937 1.060373 5.828448
v -0.7937937 0.1079569 6.436541
v -0.7937937 -1.099611 4.828823
v -0.7937937 0.1079569 6.436541
v -0.7937937 1.060373 5.828448
v -0.7937937 1.060373 -0.00275898
v -0.7937937 -1.099611 -0.00275898
v -0.7937937 1.060373 5.828448
v -2.787049 -1.03217 2.18364
v -3.861982 -1.59549 2.18364
v -4.793417 0.6326852 2.18364
v -5.326575 -1.317483 2.18364
v -2.453403 0.188324 2.18364
v -3.975883 -0.4725976 2.514475
v -6.056811 -0.3124251 3.348869
v -4.801847 -0.4090905 3.620506
v -6.056811 -0.3124251 -0.03666687
v -3.975883 -0.4725976 -0.03666687
v -3.814961 0.9770083 3.200312
v -3.975883 -0.4725976 2.514475
v -3.833694 0.8085928 3.706493
v 2.264091 -0.3296604 -0.00275898
v 2.264091 -1.840338 3.183077
v 2.271585 -1.954425 -0.00275898
v 2.264091 -0.3296604 3.711926
v 2.264091 -1.328536 3.711926
v 2.271585 -1.954425 -0.00275898
v 3.876867 -1.927074 2.048195
v 3.876867 -2.084062 -0.00275898
v 3.876867 -1.927074 2.048195
v 3.876867 -0.3296604 -0.00275898
v 3.876867 -2.084062 -0.00275898
v 3.876867 -0.3296604 3.201435
v 3.798748 -1.171923 3.649731
v 3.012499 -1.829284 3.326576
v 2.264091 -1.328536 3.711926
v 3.876867 -0.3296604 3.201435
v 2.264091 -0.3296604 -0.00275898
v 3.876867 -0.3296604 -0.00275898
v 2.264091 -0.3296604 3.711926
v 3.136703 -0.3296604 3.711926
v 0.9978876 -0.7078915 3.077232
v -0.02684021 -1.077506 3.077232
v -0.5260901 0.6849518 3.077232
v -0.02684021 -1.077506 3.077232
v 0.8394012 -1.050154 2.755201
v -1.072737 -0.9969511 -0.00275898
v -1.389335 -0.4997611 2.682702
v -0.02684021 -1.077506 3.077232
v -1.072737 -0.9969511 -0.00275898
v -1.42624 -0.8335938 -0.00275898
v 3.501258 -1.504257 -0.00275898
v 5.826847 -1.504257 2.655539
v 5.826847 -1.504257 -0.00275898
v 3.501258 -1.504257 4.147857
v 4.65862 -1.504257 4.110203
v 5.826847 -1.504257 2.655539
v 5.826847 1.210054 3.941038
v 5.826847 1.210054 -0.00275898
v 5.826847 -1.504257 -0.00275898
v 0.9909558 -1.104856 -0.00275898
v 0.9909558 -1.104856 4.660409
v 3.055024 -1.104856 4.406193
v 3.055024 -1.104856 -0.00275898
v -0.7937937 0.1079569 6.436541
v -0.7937937 -1.099611 4.828823
v -1.237218 -0.7365541 6.436541
v -1.237218 -0.7365541 6.436541
v -3.349431 -1.099611 5.377156
v -3.349431 1.060373 6.131932
v -5.278243 0.8670425 4.0422
v -3.833694 0.8085928 3.706493
v -4.757261 0.0375185 4.0422
v -5.326575 -1.317483 2.18364
v -5.326575 -1.317483 -0.00275898
v -4.793417 0.6326852 -0.00275898
v -4.793417 0.6326852 2.18364
v -6.450216 -0.1513162 2.702935
v -6.450216 -0.1513162 -0.00275898
v -4.742274 -0.1513162 -0.00275898
v -4.742274 -0.1513162 2.702935
v -1.13231 0.5285263 2.702935
v -3.010915 0.5285263 2.702935
v -3.010915 0.5285263 -0.00275898
v -1.13231 0.5285263 -0.00275898
v -2.453403 0.188324 2.18364
v -2.453403 0.188324 -0.00275898
v -2.787049 -1.03217 -0.00275898
v -2.787049 -1.03217 2.18364
v -6.450216 -0.9514284 2.702935
v -6.450216 -0.1513162 2.702935
v -4.742274 -0.1513162 2.702935
v -4.742274 -0.9514284 2.702935
v -1.13231 -1.631458 2.702935
v -1.13231 0.5285263 2.702935
v -1.13231 0.5285263 -0.00275898
v -1.13231 -1.631458 -0.00275898
v -4.742274 -0.9514284 2.702935
v -4.742274 -0.9514284 -0.00275898
v -6.450216 -0.9514284 -0.00275898
v -6.450216 -0.9514284 2.702935
v -4.742274 -0.1513162 2.702935
v -4.742274 -0.1513162 -0.00275898
v -4.742274 -0.9514284 -0.00275898
v -4.742274 -0.9514284 2.702935
v -3.010915 0.5285263 2.702935
v -3.010915 -1.631458 2.702935
v -3.010915 -1.631458 -0.00275898
v -3.010915 0.5285263 -0.00275898
v 2.279266 -1.824976 0.837256
v -0.0607481 -1.380615 0.837256
v 0.4724102 0.569365 0.837256
v 2.812424 0.1251917 0.837256
v -3.975883 -0.4725976 2.514475
v -4.801847 -0.4090905 3.620506
v -3.833694 0.8085928 3.706493
v -3.975883 -0.4725976 2.514475
v -3.814961 0.9770083 -0.03666687
v -3.975883 -0.4725976 -0.03666687
v -3.814961 0.9770083 3.200312
v -6.000985 0.1915088 3.826575
v -6.056811 -0.3124251 3.348869
v -5.895889 1.137368 2.98525
v -6.056811 -0.3124251 -0.03666687
v -5.895889 1.137368 -0.03666687
v -6.056811 -0.3124251 3.348869
v -6.000985 0.1915088 3.826575
v -4.801847 -0.4090905 3.620506
v -4.757261 0.0375185 4.0422
v -0.7937937 -1.099611 4.828823
v -0.7937937 -1.099611 -0.00275898
v -3.349431 -1.099611 -0.00275898
v -3.349431 -1.099611 5.377156
v 2.284324 0.9751353 5.688133
v 3.055024 0.9751353 4.834818
v 3.055024 -1.104856 4.406193
v -3.010915 -1.631458 2.702935
v -3.010915 0.5285263 2.702935
v -1.13231 0.5285263 2.702935
v -1.13231 -1.631458 2.702935
v -4.793417 0.6326852 2.18364
v -4.793417 0.6326852 -0.00275898
v -2.453403 0.188324 -0.00275898
v -2.453403 0.188324 2.18364
v -6.450216 -0.9514284 2.702935
v -6.450216 -0.9514284 -0.00275898
v -6.450216 -0.1513162 -0.00275898
v -6.450216 -0.1513162 2.702935
v -3.861982 -1.59549 2.18364
v -3.861982 -1.59549 -0.00275898
v -5.326575 -1.317483 -0.00275898
v -5.326575 -1.317483 2.18364
v 1.080128 0.9071317 -0.00275898
v 1.169487 0.8389416 2.386524
v -1.220358 1.023093 2.364419
v -1.220358 1.023093 -0.00275898
v -3.861982 -1.59549 2.18364
v -2.787049 -1.03217 2.18364
v -2.787049 -1.03217 -0.00275898
v -3.861982 -1.59549 -0.00275898
v -0.0607481 -1.380615 0.837256
v -0.0607481 -1.380615 -0.00275898
v 0.4724102 0.569365 -0.00275898
v 0.4724102 0.569365 0.837256
v 0.4724102 0.569365 0.837256
v 0.4724102 0.569365 -0.00275898
v 2.812424 0.1251917 -0.00275898
v 2.812424 0.1251917 0.837256
v 2.812424 0.1251917 0.837256
v 2.812424 0.1251917 -0.00275898
v 2.271585 -1.954425 -0.00275898
v 2.279266 -1.824976 0.837256
v 2.271585 -1.954425 -0.00275898
v -0.0607481 -1.380615 -0.00275898
v 1.138764 0.5628085 3.077232
v 0.9978876 -0.7078915 3.077232
v -0.5260901 0.6849518 3.077232
v 1.169487 0.8389416 2.386524
v 1.138764 0.5628085 3.077232
v -0.5260901 0.6849518 3.077232
v -1.220358 1.023093 2.364419
v 2.284324 0.9751353 5.688133
v 0.9909558 0.9751353 5.255949
v 3.055024 0.9751353 4.834818
v 1.080128 0.9071317 -0.00275898
v 3.055024 0.9751353 -0.00275898
v -1.220358 1.023093 2.364419
v -1.389335 -0.4997611 2.682702
v -1.42624 -0.8335938 -0.00275898
v -1.220358 1.023093 -0.00275898
v -1.389335 -0.4997611 2.682702
v -1.220358 1.023093 2.364419
v -0.5260901 0.6849518 3.077232
v 1.631083 -0.7588468 5.538639
v 3.055024 -1.104856 4.406193
v 0.9909558 -1.104856 4.660409
v 3.876867 -1.927074 2.048195
v 2.264091 -1.840338 3.183077
v 3.012499 -1.829284 3.326576
v 2.264091 -1.840338 3.183077
v 3.876867 -1.927074 2.048195
v 2.271585 -1.954425 -0.00275898
v 3.798748 -1.171923 3.649731
v 3.876867 -0.3296604 3.201435
v 3.876867 -1.927074 2.048195
v 3.876867 -1.927074 2.048195
v 3.012499 -1.829284 3.326576
v 3.798748 -1.171923 3.649731
v 3.798748 -1.171923 3.649731
v 3.136703 -0.3296604 3.711926
v 3.876867 -0.3296604 3.201435
v 2.264091 -1.328536 3.711926
v 3.136703 -0.3296604 3.711926
v 3.798748 -1.171923 3.649731
v -3.349431 -1.099611 5.377156
v -3.349431 -1.099611 -0.00275898
v -3.349431 1.060373 -0.00275898
v -3.349431 1.060373 6.131932
v 3.501258 -1.504257 -0.00275898
v 3.501258 1.210054 -0.00275898
v 3.501258 1.210054 4.064867
v 1.631083 -0.7588468 5.538639
v 0.9909558 -1.104856 4.660409
v 0.9909558 0.9751353 5.255949
v -5.895889 1.137368 2.98525
v -5.895889 1.137368 -0.03666687
v -3.814961 0.9770083 -0.03666687
v -3.814961 0.9770083 3.200312
v 0.4890828 -1.117221 -0.00275898
v -1.072737 -0.9969511 -0.00275898
v 0.8394012 -1.050154 2.755201
v 1.080128 0.9071317 -0.00275898
v 0.9909558 0.9751353 5.255949
v 0.9909558 -1.104856 4.660409
v 0.9909558 -1.104856 -0.00275898
v 0.9978876 -0.7078915 3.077232
v 1.138764 0.5628085 3.077232
v 1.169487 0.8389416 2.386524
v 0.9868345 -0.8077416 -0.00275898
v 0.8394012 -1.050154 2.755201
v 1.169487 0.8389416 2.386524
v 4.383236 1.210054 4.513163
v 4.65862 -1.504257 4.110203
v 3.501258 -1.504257 4.147857
v 4.65862 -1.504257 4.110203
v 5.826847 1.210054 3.941038
v 5.826847 -1.504257 2.655539
v 5.826847 1.210054 3.941038
v 4.65862 -1.504257 4.110203
v 4.383236 1.210054 4.513163
v 3.055024 0.9751353 -0.00275898
v 3.055024 -1.104856 -0.00275898
v 3.055024 -1.104856 4.406193
v 3.055024 0.9751353 4.834818
v -5.278243 0.8670425 4.0422
v -5.895889 1.137368 2.98525
v -3.814961 0.9770083 3.200312
v 3.501258 1.210054 -0.00275898
v 5.826847 1.210054 -0.00275898
v 5.826847 1.210054 3.941038
v 3.501258 1.210054 4.064867
v 4.383236 1.210054 4.513163
v 4.383236 1.210054 4.513163
v 3.501258 0.6650939 4.384088
v 3.501258 1.210054 4.064867
v -3.349431 1.060373 6.131932
v -2.12032 1.060373 6.436541
v -1.237218 -0.7365541 6.436541
v -1.237218 -0.7365541 6.436541
v -0.7937937 -1.099611 4.828823
v -3.349431 -1.099611 5.377156
v -3.010915 -1.631458 2.702935
v -1.13231 -1.631458 2.702935
v -1.13231 -1.631458 -0.00275898
v -3.010915 -1.631458 -0.00275898
v 3.501258 -1.504257 4.147857
v 3.501258 0.6650939 4.384088
v 4.383236 1.210054 4.513163
v 2.264091 -1.328536 3.711926
v 3.012499 -1.829284 3.326576
v 2.264091 -1.840338 3.183077
v -5.278243 0.8670425 4.0422
v -4.757261 0.0375185 4.0422
v -6.000985 0.1915088 3.826575
v -6.000985 0.1915088 3.826575
v -5.895889 1.137368 2.98525
v -5.278243 0.8670425 4.0422
v 2.284324 0.9751353 5.688133
v 3.055024 -1.104856 4.406193
v 1.631083 -0.7588468 5.538639
v 2.812424 0.1251917 0.837256
v 2.271585 -1.954425 -0.00275898
v 2.279266 -1.824976 0.837256
v 2.279266 -1.824976 0.837256
v -0.0607481 -1.380615 -0.00275898
v -0.0607481 -1.380615 0.837256
v -1.389335 -0.4997611 2.682702
v -0.5260901 0.6849518 3.077232
v -0.02684021 -1.077506 3.077232
v 0.9978876 -0.7078915 3.077232
v 0.8394012 -1.050154 2.755201
v -0.02684021 -1.077506 3.077232
v 0.4890828 -1.117221 -0.00275898
v 0.8394012 -1.050154 2.755201
v 0.9868345 -0.8077416 -0.00275898
v 3.501258 -1.504257 -0.00275898
v 3.501258 1.210054 4.064867
v 3.501258 -1.504257 4.147857
v 3.501258 0.6650939 4.384088
v -4.757261 0.0375185 4.0422
v -3.833694 0.8085928 3.706493
v -4.801847 -0.4090905 3.620506
v 1.631083 -0.7588468 5.538639
v 0.9909558 0.9751353 5.255949
v 2.284324 0.9751353 5.688133
v 3.136703 -0.3296604 3.711926
v 2.264091 -1.328536 3.711926
v 2.264091 -0.3296604 3.711926
v 0.9978876 -0.7078915 3.077232
v 1.169487 0.8389416 2.386524
v 0.8394012 -1.050154 2.755201
v 0.9868345 -0.8077416 -0.00275898
v 1.169487 0.8389416 2.386524
v 1.080128 0.9071317 -0.00275898
v -5.278243 0.8670425 4.0422
v -3.814961 0.9770083 3.200312
v -3.833694 0.8085928 3.706493
vn -0.003921628 0.9999924 0
vn -0.003921628 0.9999924 0
vn -0.003921628 0.9999924 0
vn -0.003921628 0.9999924 0
vn -0.003921628 0.9999924 0
vn -0.003921628 0.003921628 0.9999846
vn -0.003921628 0.003921628 0.9999846
vn -0.003921628 0.003921628 0.9999846
vn 0.35686 0.5058786 0.7853266
vn 0.35686 0.5058786 0.7853266
vn 0.35686 0.5058786 0.7853266
vn 0.9999924 0.003921628 0
vn 0.9999924 0.003921628 0
vn 0.9999924 0.003921628 0
vn 0.9999924 0.003921628 0
vn 0.9999924 0.003921628 0
vn 0.9999924 0.003921628 0
vn -0.003921628 0.003921628 0.9999846
vn -0.003921628 0.003921628 0.9999846
vn -0.003921628 0.003921628 0.9999846
vn -0.003921628 0.003921628 0.9999846
vn -0.003921628 0.003921628 0.9999846
vn -0.07450926 -0.9999924 0
vn -0.07450926 -0.9999924 0
vn -0.07450926 -0.9999924 0
vn -0.07450926 -0.9999924 0
vn -0.07450926 -0.9999924 0
vn 0.9921493 -0.1137246 -0.05202403
vn 0.9921493 -0.1137246 -0.05202403
vn 0.9921493 -0.1137246 -0.05202403
vn -0.9999924 -0.003921509 0
vn -0.9999924 -0.003921509 0
vn -0.9999924 -0.003921509 0
vn -0.9999924 0.003921628 0
vn -0.9999924 0.003921628 0
vn -0.0823524 -0.9921493 0.09411613
vn -0.0823524 -0.9921493 0.09411613
vn -0.0823524 -0.9921493 0.09411613
vn 0.9999924 0.003921628 0
vn 0.9999924 0.003921628 0
vn 0.9999924 0.003921628 0
vn 0.9999924 0.003921628 0
vn 0.09019536 -0.5215646 0.848431
vn 0.09019536 -0.5215646 0.848431
vn 0.09019536 -0.5215646 0.848431
vn -0.003921628 0.9999924 0
vn -0.003921628 0.9999924 0
vn -0.003921628 0.9999924 0
vn -0.003921628 0.9999924 0
vn -0.003921628 0.9999924 0
vn -0.003921628 0.003921628 0.9999846
vn -0.003921628 0.003921628 0.9999846
vn -0.003921628 0.003921628 0.9999846
vn 0.01960766 -0.9999924 0
vn 0.01960766 -0.9999924 0
vn 0.01960766 -0.9999924 0
vn -0.4196047 -0.8980324 0.1321735
vn -0.4196047 -0.8980324 0.1321735
vn -0.4196047 -0.8980324 0.1321735
vn -0.4196047 -0.8980324 0.1321735
vn -0.003921628 -0.9999924 0
vn -0.003921628 -0.9999924 0
vn -0.003921628 -0.9999924 0
vn -0.003921628 -0.9999924 0
vn -0.003921628 -0.9999924 0
vn 0.9999924 0.003921628 0
vn 0.9999924 0.003921628 0
vn 0.9999924 0.003921628 0
vn 0.9999924 0.003921628 0
vn -0.003921628 -0.9999924 0
vn -0.003921628 -0.9999924 0
vn -0.003921628 -0.9999924 0
vn -0.003921628 -0.9999924 0
vn 0.8352877 -0.4352908 0.3358814
vn 0.8352877 -0.4352908 0.3358814
vn 0.8352877 -0.4352908 0.3358814
vn -0.3882324 -0.3019584 0.8706875
vn -0.3882324 -0.3019584 0.8706875
vn -0.3882324 -0.3019584 0.8706875
vn 0.2313707 0.145097 0.9619846
vn 0.2313707 0.145097 0.9619846
vn 0.2313707 0.145097 0.9619846
vn -0.960777 0.2627431 -0.08873282
vn -0.960777 0.2627431 -0.08873282
vn -0.960777 0.2627431 -0.08873282
vn -0.960777 0.2627431 -0.08873282
vn -0.003921628 0.9999924 0
vn -0.003921628 0.9999924 0
vn -0.003921628 0.9999924 0
vn -0.003921628 0.9999924 0
vn -0.003921628 0.9999924 0
vn -0.003921628 0.9999924 0
vn -0.003921628 0.9999924 0
vn -0.003921628 0.9999924 0
vn 0.960777 -0.2627431 -0.08873366
vn 0.960777 -0.2627431 -0.08873366
vn 0.960777 -0.2627431 -0.08873366
vn 0.960777 -0.2627431 -0.08873366
vn -0.003921628 0.003921628 0.9999846
vn -0.003921628 0.003921628 0.9999846
vn -0.003921628 0.003921628 0.9999846
vn -0.003921628 0.003921628 0.9999846
vn 0.9999924 0.003921628 0
vn 0.9999924 0.003921628 0
vn 0.9999924 0.003921628 0
vn 0.9999924 0.003921628 0
vn -0.003921628 -0.9999924 0
vn -0.003921628 -0.9999924 0
vn -0.003921628 -0.9999924 0
vn -0.003921628 -0.9999924 0
vn 0.9999924 0.003921628 0
vn 0.9999924 0.003921628 0
vn 0.9999924 0.003921628 0
vn 0.9999924 0.003921628 0
vn -0.9999924 0.003921628 0
vn -0.9999924 0.003921628 0
vn -0.9999924 0.003921628 0
vn -0.9999924 0.003921628 0
vn -0.003921628 0.003921628 0.9999846
vn -0.003921628 0.003921628 0.9999846
vn -0.003921628 0.003921628 0.9999846
vn -0.003921628 0.003921628 0.9999846
vn 0.654897 -0.5529369 0.5151415
vn 0.654897 -0.5529369 0.5151415
vn 0.654897 -0.5529369 0.5151415
vn 0.9921493 -0.1137246 -0.05202403
vn 0.9921493 -0.1137246 -0.05202403
vn 0.9921493 -0.1137246 -0.05202403
vn 0.9921493 -0.1137246 -0.05202403
vn -0.9921494 0.1137247 -0.05202262
vn -0.9921494 0.1137247 -0.05202262
vn -0.9921494 0.1137247 -0.05202262
vn -0.9921494 0.1137247 -0.05202262
vn -0.9921494 0.1137247 -0.05202262
vn -0.2078416 -0.66274 0.7194286
vn -0.2078416 -0.66274 0.7194286
vn -0.2078416 -0.66274 0.7194286
vn -0.2078416 -0.66274 0.7194286
vn -0.003921628 -0.9999924 0
vn -0.003921628 -0.9999924 0
vn -0.003921628 -0.9999924 0
vn -0.003921628 -0.9999924 0
vn 0.7333277 -0.1372538 0.6658767
vn 0.7333277 -0.1372538 0.6658767
vn 0.7333277 -0.1372538 0.6658767
vn -0.003921628 0.003921628 0.9999846
vn -0.003921628 0.003921628 0.9999846
vn -0.003921628 0.003921628 0.9999846
vn -0.003921628 0.003921628 0.9999846
vn 0.1843123 0.9843062 0
vn 0.1843123 0.9843062 0
vn 0.1843123 0.9843062 0
vn 0.1843123 0.9843062 0
vn -0.9999924 0.003921628 0
vn -0.9999924 0.003921628 0
vn -0.9999924 0.003921628 0
vn -0.9999924 0.003921628 0
vn -0.1843123 -0.9843062 0
vn -0.1843123 -0.9843062 0
vn -0.1843123 -0.9843062 0
vn -0.1843123 -0.9843062 0
vn 0.0745092 0.9999924 0
vn 0.0745092 0.9999924 0
vn 0.0745092 0.9999924 0
vn 0.05097997 0.9999924 0
vn 0.4666631 -0.8823462 -0.06075178
vn 0.4666631 -0.8823462 -0.06075178
vn 0.4666631 -0.8823462 -0.06075178
vn 0.4666631 -0.8823462 -0.06075178
vn -0.960777 0.2627431 -0.08873282
vn -0.960777 0.2627431 -0.08873282
vn -0.960777 0.2627431 -0.08873282
vn -0.960777 0.2627431 -0.08873282
vn 0.1843123 0.9843062 0
vn 0.1843123 0.9843062 0
vn 0.1843123 0.9843062 0
vn 0.1843123 0.9843062 0
vn 0.9686201 -0.2549 0
vn 0.9686201 -0.2549 0
vn 0.9686201 -0.2549 0
vn -0.2392139 -0.960777 0.1403006
vn -0.2392139 -0.960777 0.1403006
vn -0.2392139 -0.960777 0.1403006
vn -0.003921628 0.003921628 0.9999846
vn -0.003921628 0.003921628 0.9999846
vn -0.003921628 0.003921628 0.9999846
vn 0.06666613 0.9215616 0.3824655
vn 0.06666613 0.9215616 0.3824655
vn 0.06666613 0.9215616 0.3824655
vn 0.06666613 0.9215616 0.3824655
vn -0.003921628 0.9999924 0
vn -0.003921628 0.9999924 0
vn -0.003921628 0.9999924 0
vn -0.003921628 0.9999924 0
vn -0.03529394 0.9999924 0
vn -0.9921494 0.1137247 -0.05202262
vn -0.9921494 0.1137247 -0.05202262
vn -0.9921494 0.1137247 -0.05202262
vn -0.9921494 0.1137247 -0.05202262
vn -0.6392108 0.2235278 0.7358294
vn -0.6392108 0.2235278 0.7358294
vn -0.6392108 0.2235278 0.7358294
vn 0.04313689 -0.9372478 0.3459854
vn 0.04313689 -0.9372478 0.3459854
vn 0.04313689 -0.9372478 0.3459854
vn -0.003921628 -0.9999924 0
vn -0.003921628 -0.9999924 0
vn -0.003921628 -0.9999924 0
vn -0.0274508 -0.9999924 0
vn -0.0274508 -0.9999924 0
vn -0.0274508 -0.9999924 0
vn 0.9921493 -0.05097997 0.1141964
vn 0.9921493 -0.05097997 0.1141964
vn 0.9921493 -0.05097997 0.1141964
vn 0.4901923 -0.7803862 0.3882124
vn 0.4901923 -0.7803862 0.3882124
vn 0.4901923 -0.7803862 0.3882124
vn 0.5294077 0.35686 0.7696612
vn 0.5294077 0.35686 0.7696612
vn 0.5294077 0.35686 0.7696612
vn 0.04313689 -0.03529382 0.9984456
vn 0.04313689 -0.03529382 0.9984456
vn 0.04313689 -0.03529382 0.9984456
vn -0.9999924 0.003921628 0
vn -0.9999924 0.003921628 0
vn -0.9999924 0.003921628 0
vn -0.9999924 0.003921628 0
vn -0.9999924 0.003921628 0
vn -0.9999924 0.003921628 0
vn -0.9999924 0.003921628 0
vn -0.756857 -0.1764692 0.629306
vn -0.756857 -0.1764692 0.629306
vn -0.756857 -0.1764692 0.629306
vn 0.0745092 0.9999924 0
vn 0.0745092 0.9999924 0
vn 0.0745092 0.9999924 0
vn 0.0745092 0.9999924 0
vn -0.07450926 -0.9999924 0
vn -0.07450926 -0.9999924 0
vn -0.07450926 -0.9999924 0
vn -0.9999924 0.003921628 0
vn -0.9999924 0.003921628 0
vn -0.9999924 0.003921628 0
vn -0.9999924 0.04313695 0
vn 0.9921493 -0.1137246 -0.05202403
vn 0.9921493 -0.1137246 -0.05202403
vn 0.9921493 -0.1137246 -0.05202403
vn 0.9843062 -0.1686261 0.05202412
vn 0.9843062 -0.1686261 0.05202412
vn 0.9843062 -0.1686261 0.05202412
vn 0.03529382 -0.1450969 0.9887877
vn 0.03529382 -0.1450969 0.9887877
vn 0.03529382 -0.1450969 0.9887877
vn 0.7490139 -0.2862723 0.5975168
vn 0.7490139 -0.2862723 0.5975168
vn 0.7490139 -0.2862723 0.5975168
vn 0.3647031 -0.09803843 0.9259483
vn 0.3647031 -0.09803843 0.9259483
vn 0.3647031 -0.09803843 0.9259483
vn 0.9999924 0.003921628 0
vn 0.9999924 0.003921628 0
vn 0.9999924 0.003921628 0
vn 0.9999924 0.003921628 0
vn 0.05097997 0.9764632 0.2095726
vn 0.05097997 0.9764632 0.2095726
vn 0.05097997 0.9764632 0.2095726
vn -0.003921628 0.9999924 0
vn -0.003921628 0.9999924 0
vn -0.003921628 0.9999924 0
vn -0.003921628 0.9999924 0
vn -0.003921628 0.9999924 0
vn -0.4039185 0.4666631 0.7868134
vn -0.4039185 0.4666631 0.7868134
vn -0.4039185 0.4666631 0.7868134
vn -0.2392139 -0.1137246 0.9642839
vn -0.2392139 -0.1137246 0.9642839
vn -0.2392139 -0.1137246 0.9642839
vn 0.05097997 -0.9686201 0.2432616
vn 0.05097997 -0.9686201 0.2432616
vn 0.05097997 -0.9686201 0.2432616
vn -0.003921628 -0.9999924 0
vn -0.003921628 -0.9999924 0
vn -0.003921628 -0.9999924 0
vn -0.003921628 -0.9999924 0
vn -0.07450926 -0.1058815 0.9915833
vn -0.07450926 -0.1058815 0.9915833
vn -0.07450926 -0.1058815 0.9915833
vn -0.1215677 -0.7097985 0.6938353
vn -0.1215677 -0.7097985 0.6938353
vn -0.1215677 -0.7097985 0.6938353
vn -0.1843123 -0.1137246 0.9762662
vn -0.1843123 -0.1137246 0.9762662
vn -0.1843123 -0.1137246 0.9762662
vn -0.6627401 0.5372509 0.5216675
vn -0.6627401 0.5372509 0.5216675
vn -0.6627401 0.5372509 0.5216675
vn 0.5529369 -0.2784292 0.7853267
vn 0.5529369 -0.2784292 0.7853267
vn 0.5529369 -0.2784292 0.7853267
vn 0.960777 -0.2627431 0.08873366
vn 0.960777 -0.2627431 0.08873366
vn 0.960777 -0.2627431 0.08873366
vn -0.1843123 -0.9843062 0
vn -0.1843123 -0.9843062 0
vn -0.1843123 -0.9843062 0
vn -0.3098016 -0.09019536 0.9465135
vn -0.3098016 -0.09019536 0.9465135
vn -0.3098016 -0.09019536 0.9465135
vn 0.2627431 -0.7254846 0.6361117
vn 0.2627431 -0.7254846 0.6361117
vn 0.2627431 -0.7254846 0.6361117
vn 0.5294077 -0.8509739 0
vn 0.5294077 -0.8509739 0
vn 0.5294077 -0.8509739 0
vn -0.9999924 0.003921628 0
vn -0.9999924 0.003921628 0
vn -0.9999924 0.003921628 0
vn -0.9999924 0.003921628 0
vn 0.654897 -0.5529369 0.5151415
vn 0.654897 -0.5529369 0.5151415
vn 0.654897 -0.5529369 0.5151415
vn -0.3176447 0.03529394 0.9475527
vn -0.3176447 0.03529394 0.9475527
vn -0.3176447 0.03529394 0.9475527
vn -0.003921628 0.003921628 0.9999846
vn -0.003921628 0.003921628 0.9999846
vn -0.003921628 0.003921628 0.9999846
vn 0.9450908 -0.2156846 -0.2455269
vn 0.9450908 -0.2156846 -0.2455269
vn 0.9450908 -0.2156846 -0.2455269
vn 0.9999924 -0.05097997 0
vn 0.9999924 -0.05097997 0
vn 0.9999924 -0.05097997 0
vn 0.1137246 0.9450909 0.3063821
vn 0.1137246 0.9450909 0.3063821
vn 0.1137246 0.9450909 0.3063821
g Rock_Wall_07_0
f 3/3/3 2/2/2 1/1/1
f 3/3/3 1/1/1 4/4/4
f 1/1/1 5/5/5 4/4/4
f 8/8/8 7/7/7 6/6/6
f 11/11/11 10/10/10 9/9/9
f 14/14/14 13/13/13 12/12/12
f 16/16/16 15/15/15 12/12/12
f 17/17/17 12/12/12 15/15/15
f 20/20/20 19/19/19 18/18/18
f 19/19/19 20/20/20 21/21/21
f 22/22/22 20/20/20 18/18/18
f 25/25/25 24/24/24 23/23/23
f 26/26/26 23/23/23 24/24/24
f 23/23/23 26/26/26 27/27/27
f 30/30/30 29/29/29 28/28/28
f 33/33/33 32/32/32 31/31/31
f 31/31/31 32/32/32 34/34/34
f 35/35/35 34/34/34 32/32/32
f 38/38/38 37/37/37 36/36/36
f 41/41/41 40/40/40 39/39/39
f 42/42/42 39/39/39 40/40/40
f 45/45/45 44/44/44 43/43/43
f 48/48/48 47/47/47 46/46/46
f 49/49/49 46/46/46 47/47/47
f 46/46/46 49/49/49 50/50/50
f 53/53/53 52/52/52 51/51/51
f 56/56/56 55/55/55 54/54/54
f 59/59/59 58/58/58 57/57/57
f 60/60/60 59/59/59 57/57/57
f 63/63/63 62/62/62 61/61/61
f 61/61/61 62/62/62 64/64/64
f 65/65/65 64/64/64 62/62/62
f 68/68/68 67/67/67 66/66/66
f 69/69/69 68/68/68 66/66/66
f 72/72/72 71/71/71 70/70/70
f 73/73/73 72/72/72 70/70/70
f 76/76/76 75/75/75 74/74/74
f 79/79/79 78/78/78 77/77/77
f 82/82/82 81/81/81 80/80/80
f 85/85/85 84/84/84 83/83/83
f 86/86/86 85/85/85 83/83/83
f 89/89/89 88/88/88 87/87/87
f 90/90/90 89/89/89 87/87/87
f 93/93/93 92/92/92 91/91/91
f 94/94/94 93/93/93 91/91/91
f 97/97/97 96/96/96 95/95/95
f 98/98/98 97/97/97 95/95/95
f 101/101/101 100/100/100 99/99/99
f 102/102/102 101/101/101 99/99/99
f 105/105/105 104/104/104 103/103/103
f 106/106/106 105/105/105 103/103/103
f 109/109/109 108/108/108 107/107/107
f 110/110/110 109/109/109 107/107/107
f 113/113/113 112/112/112 111/111/111
f 114/114/114 113/113/113 111/111/111
f 117/117/117 116/116/116 115/115/115
f 118/118/118 117/117/117 115/115/115
f 121/121/121 120/120/120 119/119/119
f 122/122/122 121/121/121 119/119/119
f 125/125/125 124/124/124 123/123/123
f 128/128/128 127/127/127 126/126/126
f 129/129/129 126/126/126 127/127/127
f 132/132/132 131/131/131 130/130/130
f 131/131/131 132/132/132 133/133/133
f 132/132/132 134/134/134 133/133/133
f 137/137/137 136/136/136 135/135/135
f 138/138/138 136/136/136 137/137/137
f 141/141/141 140/140/140 139/139/139
f 142/142/142 141/141/141 139/139/139
f 145/145/145 144/144/144 143/143/143
f 148/148/148 147/147/147 146/146/146
f 149/149/149 148/148/148 146/146/146
f 152/152/152 151/151/151 150/150/150
f 153/153/153 152/152/152 150/150/150
f 156/156/156 155/155/155 154/154/154
f 157/157/157 156/156/156 154/154/154
f 160/160/160 159/159/159 158/158/158
f 161/161/161 160/160/160 158/158/158
f 164/164/164 163/163/163 162/162/162
f 165/165/165 164/164/164 162/162/162
f 168/168/168 167/167/167 166/166/166
f 169/169/169 168/168/168 166/166/166
f 172/172/172 171/171/171 170/170/170
f 173/173/173 172/172/172 170/170/170
f 176/176/176 175/175/175 174/174/174
f 177/177/177 176/176/176 174/174/174
f 180/180/180 179/179/179 178/178/178
f 183/183/183 182/182/182 181/181/181
f 186/186/186 185/185/185 184/184/184
f 189/189/189 188/188/188 187/187/187
f 190/190/190 189/189/189 187/187/187
f 193/193/193 192/192/192 191/191/191
f 194/194/194 192/192/192 193/193/193
f 195/195/195 194/194/194 193/193/193
f 198/198/198 197/197/197 196/196/196
f 199/199/199 198/198/198 196/196/196
f 202/202/202 201/201/201 200/200/200
f 205/205/205 204/204/204 203/203/203
f 208/208/208 207/207/207 206/206/206
f 211/211/211 210/210/210 209/209/209
f 214/214/214 213/213/213 212/212/212
f 217/217/217 216/216/216 215/215/215
f 220/220/220 219/219/219 218/218/218
f 223/223/223 222/222/222 221/221/221
f 226/226/226 225/225/225 224/224/224
f 227/227/227 226/226/226 224/224/224
f 230/230/230 229/229/229 228/228/228
f 233/233/233 232/232/232 231/231/231
f 236/236/236 235/235/235 234/234/234
f 237/237/237 236/236/236 234/234/234
f 240/240/240 239/239/239 238/238/238
f 243/243/243 242/242/242 241/241/241
f 244/244/244 243/243/243 241/241/241
f 247/247/247 246/246/246 245/245/245
f 250/250/250 249/249/249 248/248/248
f 253/253/253 252/252/252 251/251/251
f 256/256/256 255/255/255 254/254/254
f 259/259/259 258/258/258 257/257/257
f 262/262/262 261/261/261 260/260/260
f 263/263/263 262/262/262 260/260/260
f 266/266/266 265/265/265 264/264/264
f 269/269/269 268/268/268 267/267/267
f 270/270/270 269/269/269 267/267/267
f 270/270/270 271/271/271 269/269/269
f 274/274/274 273/273/273 272/272/272
f 277/277/277 276/276/276 275/275/275
f 280/280/280 279/279/279 278/278/278
f 283/283/283 282/282/282 281/281/281
f 284/284/284 283/283/283 281/281/281
f 287/287/287 286/286/286 285/285/285
f 290/290/290 289/289/289 288/288/288
f 293/293/293 292/292/292 291/291/291
f 296/296/296 295/295/295 294/294/294
f 299/299/299 298/298/298 297/297/297
f 302/302/302 301/301/301 300/300/300
f 305/305/305 304/304/304 303/303/303
f 308/308/308 307/307/307 306/306/306
f 311/311/311 310/310/310 309/309/309
f 314/314/314 313/313/313 312/312/312
f 317/317/317 316/316/316 315/315/315
f 316/316/316 317/317/317 318/318/318
f 321/321/321 320/320/320 319/319/319
f 324/324/324 323/323/323 322/322/322
f 327/327/327 326/326/326 325/325/325
f 330/330/330 329/329/329 328/328/328
f 333/333/333 332/332/332 331/331/331
f 336/336/336 335/335/335 334/334/334
