# exported by gszh.xyz
mtllib gszh_xyz.mtl
g SF_Env_Stonepath_01
v 1.687347412109375 0.016582664102315903 0.977935791015625
v 1.42529296875 0.016582664102315903 -0.36480712890625
v 0.62890625 0.016582664102315903 0.0333251953125
v 1.687347412109375 0.016582664102315903 0.977935791015625
v 0.62890625 0.016582664102315903 0.0333251953125
v 0.911773681640625 0.016582664102315903 1.2311248779296875
v 0.15728759765625 0.016582664102315903 -1.2611236572265625
v -0.201416015625 0.016582664102315903 -2.693328857421875
v -1.687347412109375 0.016582664102315903 -2.44927978515625
v 0.15728759765625 0.016582664102315903 -1.2611236572265625
v -1.687347412109375 0.016582664102315903 -2.44927978515625
v -1.4220428466796875 0.016582664102315903 -0.821380615234375
v 0.0290985107421875 0.016582664102315903 -2.7519683837890625
v 1.4915771484375 0.016582664102315903 -3.2697296142578125
v 1.1251983642578125 0.016582664102315903 -3.6795806884765625
v 0.0290985107421875 0.016582664102315903 -2.7519683837890625
v 1.1251983642578125 0.016582664102315903 -3.6795806884765625
v 0.187225341796875 0.016582664102315903 -3.572509765625
v 0.25189208984375 0.016582664102315903 -2.1278076171875
v 1.277618408203125 0.016582664102315903 -2.40936279296875
v 1.4915771484375 0.016582664102315903 -3.2697296142578125
v 0.25189208984375 0.016582664102315903 -2.1278076171875
v 1.4915771484375 0.016582664102315903 -3.2697296142578125
v 0.0290985107421875 0.016582664102315903 -2.7519683837890625
v 0.10064697265625 0.016582664102315903 -3.7317962646484375
v -1.135650634765625 0.016582664102315903 -3.934051513671875
v -1.4414215087890625 0.016582664102315903 -2.748687744140625
v 0.10064697265625 0.016582664102315903 -3.7317962646484375
v -1.4414215087890625 0.016582664102315903 -2.748687744140625
v -0.152008056640625 0.016582664102315903 -2.9568328857421875
v 0.1647186279296875 0.016582664102315903 -1.95361328125
v 0.320709228515625 0.016582664102315903 -0.9902191162109375
v 1.047088623046875 0.016582664102315903 -0.8535614013671875
v 0.1647186279296875 0.016582664102315903 -1.95361328125
v 1.047088623046875 0.016582664102315903 -0.8535614013671875
v 0.94464111328125 0.016582664102315903 -2.0927734375
v 0.3151702880859375 0.016582664102315903 -0.84356689453125
v -0.0540771484375 0.016582664102315903 0.2449951171875
v 0.3911590576171875 0.016582664102315903 0.218841552734375
v 0.3151702880859375 0.016582664102315903 -0.84356689453125
v 0.3911590576171875 0.016582664102315903 0.218841552734375
v 0.6360931396484375 0.016582664102315903 -0.3108673095703125
v -0.4475555419921875 0.016582664102315903 -0.9271240234375
v -1.06573486328125 0.016582664102315903 -0.1505584716796875
v -0.0540771484375 0.016582664102315903 0.2449951171875
v -0.4475555419921875 0.016582664102315903 -0.9271240234375
v -0.0540771484375 0.016582664102315903 0.2449951171875
v 0.3151702880859375 0.016582664102315903 -0.84356689453125
v 0.203826904296875 0.016582664102315903 1.754180908203125
v 0.2940673828125 0.016582664102315903 2.9848175048828125
v 1.2490081787109375 0.016582664102315903 3.0199127197265625
v 0.203826904296875 0.016582664102315903 1.754180908203125
v 1.2490081787109375 0.016582664102315903 3.0199127197265625
v 1.4294586181640625 0.016582664102315903 1.79925537109375
v -1.452850341796875 0.016582664102315903 1.801910400390625
v -1.06134033203125 0.016582664102315903 3.507476806640625
v -0.10565185546875 0.016582664102315903 3.795745849609375
v -1.452850341796875 0.016582664102315903 1.801910400390625
v -0.10565185546875 0.016582664102315903 3.795745849609375
v -0.048309326171875 0.016582664102315903 1.677459716796875
v 0.99285888671875 0.016582664102315903 3.1518707275390625
v 0.7307281494140625 0.016582664102315903 3.934051513671875
v 1.184661865234375 0.016582664102315903 3.7542572021484375
v 0.99285888671875 0.016582664102315903 3.1518707275390625
v 1.184661865234375 0.016582664102315903 3.7542572021484375
v 1.35577392578125 0.016582664102315903 3.3836822509765625
v 0.321441650390625 0.016582664102315903 3.132720947265625
v 0.119140625 0.016582664102315903 3.67059326171875
v 0.7307281494140625 0.016582664102315903 3.934051513671875
v 0.321441650390625 0.016582664102315903 3.132720947265625
v 0.7307281494140625 0.016582664102315903 3.934051513671875
v 0.99285888671875 0.016582664102315903 3.1518707275390625
v 0.62188720703125 0.016582664102315903 0.630462646484375
v -1.0915679931640625 0.016582664102315903 -0.03790283203125
v -1.35760498046875 0.016582664102315903 1.1269378662109375
v 0.62188720703125 0.016582664102315903 0.630462646484375
v -1.35760498046875 0.016582664102315903 1.1269378662109375
v 0.54547119140625 0.016582664102315903 1.477783203125
vn 0 1 0
vn 0 1 0
vn 0 1 0
vn 0 1 0
vn 0 1 0
vn 0 1 0
vn 0 1 0
vn 0 1 0
vn 0 1 0
vn 0 1 0
vn 0 1 0
vn 0 1 0
vn 0 1 7.558162429255333e-10
vn 0 1 6.547181685689907e-10
vn 0 1 3.0201968703735815e-10
vn 0 1 7.558162429255333e-10
vn 0 1 3.0201968703735815e-10
vn 0 1 3.0201968703735815e-10
vn 0 1 1.0066160127664148e-9
vn 0 1 1.0066159017441123e-9
vn 0 1 6.547181685689907e-10
vn 0 1 1.0066160127664148e-9
vn 0 1 6.547181685689907e-10
vn 0 1 7.558162429255333e-10
vn 0 1 7.528930812128465e-10
vn 0 1 7.528930257016953e-10
vn 0 1 7.528930257016953e-10
vn 0 1 7.528930812128465e-10
vn 0 1 7.528930257016953e-10
vn 0 1 7.528930812128465e-10
vn 0 1 0
vn 0 1 0
vn 0 1 0
vn 0 1 0
vn 0 1 0
vn 0 1 0
vn 0 1 -2.504133289615851e-10
vn 0 1 -2.9018176750383873e-10
vn 0 1 -1.2009593319817213e-9
vn 0 1 -2.504133289615851e-10
vn 0 1 -1.2009593319817213e-9
vn 0 1 -1.2009593319817213e-9
vn 0 1 0
vn 0 1 0
vn 0 1 -2.9018176750383873e-10
vn 0 1 0
vn 0 1 -2.9018176750383873e-10
vn 0 1 -2.504133289615851e-10
vn 0 1 1.3919929653383178e-9
vn 0 1 1.3919930763606203e-9
vn 0 1 1.3919931873829228e-9
vn 0 1 1.3919929653383178e-9
vn 0 1 1.3919931873829228e-9
vn 0 1 1.3919931873829228e-9
vn 0 1 0
vn 0 1 0
vn 0 1 0
vn 0 1 0
vn 0 1 0
vn 0 1 0
vn 0 1 -6.846563871398814e-10
vn 0 1 -4.561902244848426e-10
vn 0 1 -1.931798276899599e-9
vn 0 1 -6.846563871398814e-10
vn 0 1 -1.931798276899599e-9
vn 0 1 -1.931798054854994e-9
vn 0 1 0
vn 0 1 0
vn 0 1 -4.561902244848426e-10
vn 0 1 0
vn 0 1 -4.561902244848426e-10
vn 0 1 -6.846563871398814e-10
vn 0 1 -6.716822653629606e-10
vn 0 1 -6.716822653629606e-10
vn 0 1 -6.716822098518094e-10
vn 0 1 -6.716822653629606e-10
vn 0 1 -6.716822098518094e-10
vn 0 1 -6.716823208741118e-10
vt 0.33400753140449524 0.0653957724571228
vt 0.33400753140449524 0.0653957724571228
vt 0.3340073525905609 0.0653957724571228
vt 0.33400753140449524 0.0653957724571228
vt 0.3340073525905609 0.0653957724571228
vt 0.3340073525905609 0.0653957724571228
vt 0.33400753140449524 0.0653957724571228
vt 0.33400753140449524 0.0653957724571228
vt 0.3340073525905609 0.0653957724571228
vt 0.33400753140449524 0.0653957724571228
vt 0.3340073525905609 0.0653957724571228
vt 0.3340073525905609 0.0653957724571228
vt 0.3340073525905609 0.0653957724571228
vt 0.33400753140449524 0.0653957724571228
vt 0.33400753140449524 0.0653957724571228
vt 0.3340073525905609 0.0653957724571228
vt 0.33400753140449524 0.0653957724571228
vt 0.3340073525905609 0.0653957724571228
vt 0.3340073525905609 0.0653957724571228
vt 0.33400753140449524 0.0653957724571228
vt 0.33400753140449524 0.0653957724571228
vt 0.3340073525905609 0.0653957724571228
vt 0.33400753140449524 0.0653957724571228
vt 0.3340073525905609 0.0653957724571228
vt 0.33400753140449524 0.0653957724571228
vt 0.33400753140449524 0.0653957724571228
vt 0.3340073525905609 0.0653957724571228
vt 0.33400753140449524 0.0653957724571228
vt 0.3340073525905609 0.0653957724571228
vt 0.3340073525905609 0.0653957724571228
vt 0.33400753140449524 0.0653957724571228
vt 0.33400753140449524 0.0653957724571228
vt 0.3340073525905609 0.0653957724571228
vt 0.33400753140449524 0.0653957724571228
vt 0.3340073525905609 0.0653957724571228
vt 0.3340073525905609 0.0653957724571228
vt 0.3340073525905609 0.0653957724571228
vt 0.33400753140449524 0.0653957724571228
vt 0.33400753140449524 0.0653957724571228
vt 0.3340073525905609 0.0653957724571228
vt 0.33400753140449524 0.0653957724571228
vt 0.3340073525905609 0.0653957724571228
vt 0.3340073525905609 0.0653957724571228
vt 0.33400753140449524 0.0653957724571228
vt 0.33400753140449524 0.0653957724571228
vt 0.3340073525905609 0.0653957724571228
vt 0.33400753140449524 0.0653957724571228
vt 0.3340073525905609 0.0653957724571228
vt 0.33400753140449524 0.0653957724571228
vt 0.33400753140449524 0.0653957724571228
vt 0.3340073525905609 0.0653957724571228
vt 0.33400753140449524 0.0653957724571228
vt 0.3340073525905609 0.0653957724571228
vt 0.3340073525905609 0.0653957724571228
vt 0.33400753140449524 0.0653957724571228
vt 0.33400753140449524 0.0653957724571228
vt 0.3340073525905609 0.0653957724571228
vt 0.33400753140449524 0.0653957724571228
vt 0.3340073525905609 0.0653957724571228
vt 0.3340073525905609 0.0653957724571228
vt 0.3340073525905609 0.0653957724571228
vt 0.33400753140449524 0.0653957724571228
vt 0.33400753140449524 0.0653957724571228
vt 0.3340073525905609 0.0653957724571228
vt 0.33400753140449524 0.0653957724571228
vt 0.3340073525905609 0.0653957724571228
vt 0.3340073525905609 0.0653957724571228
vt 0.33400753140449524 0.0653957724571228
vt 0.33400753140449524 0.0653957724571228
vt 0.3340073525905609 0.0653957724571228
vt 0.33400753140449524 0.0653957724571228
vt 0.3340073525905609 0.0653957724571228
vt 0.33400753140449524 0.0653957724571228
vt 0.33400753140449524 0.0653957724571228
vt 0.3340073525905609 0.0653957724571228
vt 0.33400753140449524 0.0653957724571228
vt 0.3340073525905609 0.0653957724571228
vt 0.3340073525905609 0.0653957724571228
usemtl lambert1
f 1/1/1 2/2/2 3/3/3
f 4/4/4 5/5/5 6/6/6
f 7/7/7 8/8/8 9/9/9
f 10/10/10 11/11/11 12/12/12
f 13/13/13 14/14/14 15/15/15
f 16/16/16 17/17/17 18/18/18
f 19/19/19 20/20/20 21/21/21
f 22/22/22 23/23/23 24/24/24
f 25/25/25 26/26/26 27/27/27
f 28/28/28 29/29/29 30/30/30
f 31/31/31 32/32/32 33/33/33
f 34/34/34 35/35/35 36/36/36
f 37/37/37 38/38/38 39/39/39
f 40/40/40 41/41/41 42/42/42
f 43/43/43 44/44/44 45/45/45
f 46/46/46 47/47/47 48/48/48
f 49/49/49 50/50/50 51/51/51
f 52/52/52 53/53/53 54/54/54
f 55/55/55 56/56/56 57/57/57
f 58/58/58 59/59/59 60/60/60
f 61/61/61 62/62/62 63/63/63
f 64/64/64 65/65/65 66/66/66
f 67/67/67 68/68/68 69/69/69
f 70/70/70 71/71/71 72/72/72
f 73/73/73 74/74/74 75/75/75
f 76/76/76 77/77/77 78/78/78
