# exported by gszh.xyz
mtllib gszh_xyz.mtl
g SF_Veh_Boat_01
v -1.0259171520495514 0.7979775065009278 0.9647826999407698
v 1.0259093250012299 0.7979775065009278 0.9647826999407698
v 1.0259093250012299 0.8889678114478272 0.9647826999407698
v -1.0259171520495514 0.7979775065009278 0.9647826999407698
v 1.0259093250012299 0.8889678114478272 0.9647826999407698
v -1.0259171520495514 0.8889678114478272 0.9647826999407698
v -1.0259171520495514 0.8889678114478272 0.9647826999407698
v 1.0259093250012299 0.8889678114478272 0.9647826999407698
v 1.0259093250012299 0.8889678114478272 0.3463744968157698
v -1.0259171520495514 0.8889678114478272 0.9647826999407698
v 1.0259093250012299 0.8889678114478272 0.3463744968157698
v -1.0259171520495514 0.8889678114478272 0.3463744968157698
v -1.0259171520495514 0.8889678114478272 0.3463744968157698
v 1.0259093250012299 0.8889678114478272 0.3463744968157698
v 1.0259093250012299 0.7979775065009278 0.3463744968157698
v -1.0259171520495514 0.8889678114478272 0.3463744968157698
v 1.0259093250012299 0.7979775065009278 0.3463744968157698
v -1.0259171520495514 0.7979775065009278 0.3463744968157698
v -1.0259171520495514 0.7979775065009278 -1.0509338527936052
v 1.0259093250012299 0.7979775065009278 -1.0509338527936052
v 1.0259093250012299 0.8889678114478272 -1.0509338527936052
v -1.0259171520495514 0.7979775065009278 -1.0509338527936052
v 1.0259093250012299 0.8889678114478272 -1.0509338527936052
v -1.0259171520495514 0.8889678114478272 -1.0509338527936052
v -1.0259171520495514 0.8889678114478272 -1.0509338527936052
v 1.0259093250012299 0.8889678114478272 -1.0509338527936052
v 1.0259093250012299 0.8889678114478272 -1.6693420559186052
v -1.0259171520495514 0.8889678114478272 -1.0509338527936052
v 1.0259093250012299 0.8889678114478272 -1.6693420559186052
v -1.0259171520495514 0.8889678114478272 -1.6693420559186052
v -1.0259171520495514 0.8889678114478272 -1.6693420559186052
v 1.0259093250012299 0.8889678114478272 -1.6693420559186052
v 1.0259093250012299 0.7979775065009278 -1.6693420559186052
v -1.0259171520495514 0.8889678114478272 -1.6693420559186052
v 1.0259093250012299 0.7979775065009278 -1.6693420559186052
v -1.0259171520495514 0.7979775065009278 -1.6693420559186052
v -0.790355781199942 5.8991162177335354e-8 0.9488525241595198
v -9.882689511186982e-8 5.8991162177335354e-8 1.7122802585345198
v -9.882689511186982e-8 0.9269755476538819 2.456390365956395
v -0.790355781199942 5.8991162177335354e-8 0.9488525241595198
v -9.882689511186982e-8 0.9269755476538819 2.456390365956395
v -1.1545487438464264 0.9269755476538819 1.6929626315813948
v -1.1545487438464264 0.9269755476538819 -2.45642091334048
v -9.882689511186982e-8 0.9269755476538819 -2.45642091334048
v -9.882689511186982e-8 5.8991162177335354e-8 -2.012359634043605
v -1.1545487438464264 0.9269755476538819 -2.45642091334048
v -9.882689511186982e-8 5.8991162177335354e-8 -2.012359634043605
v -0.790355781199942 5.8991162177335354e-8 -2.012359634043605
v -0.790355781199942 5.8991162177335354e-8 -2.012359634043605
v -9.882689511186982e-8 5.8991162177335354e-8 -2.012359634043605
v -9.882689511186982e-8 5.8991162177335354e-8 1.7122802585345198
v -0.790355781199942 5.8991162177335354e-8 -2.012359634043605
v -9.882689511186982e-8 5.8991162177335354e-8 1.7122802585345198
v -0.790355781199942 5.8991162177335354e-8 0.9488525241595198
v 0.7903555835461518 5.8991162177335354e-8 0.9488525241595198
v 0.7903555835461518 5.8991162177335354e-8 -2.012359634043605
v 1.1545485461926361 0.9269755476538819 -2.45642091334048
v 0.7903555835461518 5.8991162177335354e-8 0.9488525241595198
v 1.1545485461926361 0.9269755476538819 -2.45642091334048
v 1.1545485461926361 0.9269755476538819 1.6929626315813948
v -0.790355781199942 5.8991162177335354e-8 -2.012359634043605
v -0.790355781199942 5.8991162177335354e-8 0.9488525241595198
v -1.1545487438464264 0.9269755476538819 1.6929626315813948
v -0.790355781199942 5.8991162177335354e-8 -2.012359634043605
v -1.1545487438464264 0.9269755476538819 1.6929626315813948
v -1.1545487438464264 0.9269755476538819 -2.45642091334048
v -1.1545487438464264 1.1269753569190186 1.6929626315813948
v -9.882689511186982e-8 1.1269753569190186 2.456390365956395
v -9.882689511186982e-8 1.1269753569190186 2.313384994862645
v -1.1545487438464264 1.1269753569190186 1.6929626315813948
v -9.882689511186982e-8 1.1269753569190186 2.313384994862645
v -1.0256386791491607 1.1269753569190186 1.6279296725970198
v 1.1545485461926361 1.1269753569190186 1.6929626315813948
v 1.1545485461926361 1.1269753569190186 -2.45642091334048
v 1.0256346667981049 1.1269753569190186 -2.31341554224673
v 1.1545485461926361 1.1269753569190186 1.6929626315813948
v 1.0256346667981049 1.1269753569190186 -2.31341554224673
v 1.0256346667981049 1.1269753569190186 1.6279296725970198
v -9.882689511186982e-8 1.1269753569190186 -2.31341554224673
v -9.882689511186982e-8 1.1269753569190186 -2.45642091334048
v -1.1545487438464264 1.1269753569190186 -2.45642091334048
v -9.882689511186982e-8 1.1269753569190186 -2.31341554224673
v -1.1545487438464264 1.1269753569190186 -2.45642091334048
v -1.0256386791491607 1.1269753569190186 -2.31341554224673
v -1.1545487438464264 1.1269753569190186 -2.45642091334048
v -1.1545487438464264 1.1269753569190186 1.6929626315813948
v -1.0256386791491607 1.1269753569190186 1.6279296725970198
v -1.1545487438464264 1.1269753569190186 -2.45642091334048
v -1.0256386791491607 1.1269753569190186 1.6279296725970198
v -1.0256386791491607 1.1269753569190186 -2.31341554224673
v -9.882689511186982e-8 0.6742511385504883 1.8720702975970198
v -9.882689511186982e-8 0.6742511385504883 -2.102996841074855
v -0.811107734324942 0.6742511385504883 -2.102996841074855
v -9.882689511186982e-8 0.6742511385504883 1.8720702975970198
v -0.811107734324942 0.6742511385504883 -2.102996841074855
v -0.811107734324942 0.6742511385504883 1.2831725925188948
v -1.1545487438464264 0.9269755476538819 -2.45642091334048
v -1.1545487438464264 0.9269755476538819 1.6929626315813948
v -1.1545487438464264 1.1269753569190186 1.6929626315813948
v -1.1545487438464264 0.9269755476538819 -2.45642091334048
v -1.1545487438464264 1.1269753569190186 1.6929626315813948
v -1.1545487438464264 1.1269753569190186 -2.45642091334048
v -1.1545487438464264 1.1269753569190186 -2.45642091334048
v -9.882689511186982e-8 1.1269753569190186 -2.45642091334048
v -9.882689511186982e-8 0.9269755476538819 -2.45642091334048
v -1.1545487438464264 1.1269753569190186 -2.45642091334048
v -9.882689511186982e-8 0.9269755476538819 -2.45642091334048
v -1.1545487438464264 0.9269755476538819 -2.45642091334048
v 1.1545485461926361 0.9269755476538819 1.6929626315813948
v 1.1545485461926361 0.9269755476538819 -2.45642091334048
v 1.1545485461926361 1.1269753569190186 -2.45642091334048
v 1.1545485461926361 0.9269755476538819 1.6929626315813948
v 1.1545485461926361 1.1269753569190186 -2.45642091334048
v 1.1545485461926361 1.1269753569190186 1.6929626315813948
v -1.1545487438464264 0.9269755476538819 1.6929626315813948
v -9.882689511186982e-8 0.9269755476538819 2.456390365956395
v -9.882689511186982e-8 1.1269753569190186 2.456390365956395
v -1.1545487438464264 0.9269755476538819 1.6929626315813948
v -9.882689511186982e-8 1.1269753569190186 2.456390365956395
v -1.1545487438464264 1.1269753569190186 1.6929626315813948
v 1.0256346667981049 1.1269753569190186 1.6279296725970198
v 1.0256346667981049 1.1269753569190186 -2.31341554224673
v 0.8111075366711518 0.6742511385504883 -2.102996841074855
v 1.0256346667981049 1.1269753569190186 1.6279296725970198
v 0.8111075366711518 0.6742511385504883 -2.102996841074855
v 0.8111075366711518 0.6742511385504883 1.2831725925188948
v -9.882689511186982e-8 0.6742511385504883 -2.102996841074855
v -9.882689511186982e-8 1.1269753569190186 -2.31341554224673
v -1.0256386791491607 1.1269753569190186 -2.31341554224673
v -9.882689511186982e-8 0.6742511385504883 -2.102996841074855
v -1.0256386791491607 1.1269753569190186 -2.31341554224673
v -0.811107734324942 0.6742511385504883 -2.102996841074855
v -1.0256386791491607 1.1269753569190186 -2.31341554224673
v -1.0256386791491607 1.1269753569190186 1.6279296725970198
v -0.811107734324942 0.6742511385504883 1.2831725925188948
v -1.0256386791491607 1.1269753569190186 -2.31341554224673
v -0.811107734324942 0.6742511385504883 1.2831725925188948
v -0.811107734324942 0.6742511385504883 -2.102996841074855
v -1.0256386791491607 1.1269753569190186 1.6279296725970198
v -9.882689511186982e-8 1.1269753569190186 2.313384994862645
v -9.882689511186982e-8 0.6742511385504883 1.8720702975970198
v -1.0256386791491607 1.1269753569190186 1.6279296725970198
v -9.882689511186982e-8 0.6742511385504883 1.8720702975970198
v -0.811107734324942 0.6742511385504883 1.2831725925188948
v -9.882689511186982e-8 1.1269753569190186 2.456390365956395
v -9.882689511186982e-8 0.9269755476538819 2.456390365956395
v 1.1545485461926361 0.9269755476538819 1.6929626315813948
v -9.882689511186982e-8 1.1269753569190186 2.456390365956395
v 1.1545485461926361 0.9269755476538819 1.6929626315813948
v 1.1545485461926361 1.1269753569190186 1.6929626315813948
v -9.882689511186982e-8 1.1269753569190186 2.313384994862645
v -9.882689511186982e-8 1.1269753569190186 2.456390365956395
v 1.1545485461926361 1.1269753569190186 1.6929626315813948
v -9.882689511186982e-8 1.1269753569190186 2.313384994862645
v 1.1545485461926361 1.1269753569190186 1.6929626315813948
v 1.0256346667981049 1.1269753569190186 1.6279296725970198
v -9.882689511186982e-8 0.6742511385504883 1.8720702975970198
v -9.882689511186982e-8 1.1269753569190186 2.313384994862645
v 1.0256346667981049 1.1269753569190186 1.6279296725970198
v -9.882689511186982e-8 0.6742511385504883 1.8720702975970198
v 1.0256346667981049 1.1269753569190186 1.6279296725970198
v 0.8111075366711518 0.6742511385504883 1.2831725925188948
v 0.8111075366711518 0.6742511385504883 -2.102996841074855
v -9.882689511186982e-8 0.6742511385504883 -2.102996841074855
v -9.882689511186982e-8 0.6742511385504883 1.8720702975970198
v 0.8111075366711518 0.6742511385504883 -2.102996841074855
v -9.882689511186982e-8 0.6742511385504883 1.8720702975970198
v 0.8111075366711518 0.6742511385504883 1.2831725925188948
v 1.0256346667981049 1.1269753569190186 -2.31341554224673
v -9.882689511186982e-8 1.1269753569190186 -2.31341554224673
v -9.882689511186982e-8 0.6742511385504883 -2.102996841074855
v 1.0256346667981049 1.1269753569190186 -2.31341554224673
v -9.882689511186982e-8 0.6742511385504883 -2.102996841074855
v 0.8111075366711518 0.6742511385504883 -2.102996841074855
v 1.1545485461926361 1.1269753569190186 -2.45642091334048
v -9.882689511186982e-8 1.1269753569190186 -2.45642091334048
v -9.882689511186982e-8 1.1269753569190186 -2.31341554224673
v 1.1545485461926361 1.1269753569190186 -2.45642091334048
v -9.882689511186982e-8 1.1269753569190186 -2.31341554224673
v 1.0256346667981049 1.1269753569190186 -2.31341554224673
v -9.882689511186982e-8 0.9269755476538819 -2.45642091334048
v -9.882689511186982e-8 1.1269753569190186 -2.45642091334048
v 1.1545485461926361 1.1269753569190186 -2.45642091334048
v -9.882689511186982e-8 0.9269755476538819 -2.45642091334048
v 1.1545485461926361 1.1269753569190186 -2.45642091334048
v 1.1545485461926361 0.9269755476538819 -2.45642091334048
v -9.882689511186982e-8 5.8991162177335354e-8 -2.012359634043605
v -9.882689511186982e-8 0.9269755476538819 -2.45642091334048
v 1.1545485461926361 0.9269755476538819 -2.45642091334048
v -9.882689511186982e-8 5.8991162177335354e-8 -2.012359634043605
v 1.1545485461926361 0.9269755476538819 -2.45642091334048
v 0.7903555835461518 5.8991162177335354e-8 -2.012359634043605
v -9.882689511186982e-8 5.8991162177335354e-8 1.7122802585345198
v -9.882689511186982e-8 5.8991162177335354e-8 -2.012359634043605
v 0.7903555835461518 5.8991162177335354e-8 -2.012359634043605
v -9.882689511186982e-8 5.8991162177335354e-8 1.7122802585345198
v 0.7903555835461518 5.8991162177335354e-8 -2.012359634043605
v 0.7903555835461518 5.8991162177335354e-8 0.9488525241595198
v -9.882689511186982e-8 0.9269755476538819 2.456390365956395
v -9.882689511186982e-8 5.8991162177335354e-8 1.7122802585345198
v 0.7903555835461518 5.8991162177335354e-8 0.9488525241595198
v -9.882689511186982e-8 0.9269755476538819 2.456390365956395
v 0.7903555835461518 5.8991162177335354e-8 0.9488525241595198
v 1.1545485461926361 0.9269755476538819 1.6929626315813948
vn 0 0 1
vn 0 0 1
vn 0 0 1
vn 0 0 1
vn 0 0 1
vn 0 0 1
vn 0 1 0
vn 0 1 0
vn 0 1 0
vn 0 1 0
vn 0 1 0
vn 0 1 0
vn 0 0 -1
vn 0 0 -1
vn 0 0 -1
vn 0 0 -1
vn 0 0 -1
vn 0 0 -1
vn 0 0 1
vn 0 0 1
vn 0 0 1
vn 0 0 1
vn 0 0 1
vn 0 0 1
vn 0 1 0
vn 0 1 0
vn 0 1 0
vn 0 1 0
vn 0 1 0
vn 0 1 0
vn 0 0 -1
vn 0 0 -1
vn 0 0 -1
vn 0 0 -1
vn 0 0 -1
vn 0 0 -1
vn -0.4933561682701111 -0.6013822555541992 0.6284418106079102
vn -0.4933561682701111 -0.601382315158844 0.6284417510032654
vn -0.4933561682701111 -0.6013822555541992 0.6284417510032654
vn -0.4933561682701111 -0.6013822555541992 0.6284418106079102
vn -0.4933561682701111 -0.6013822555541992 0.6284417510032654
vn -0.49335619807243347 -0.6013822555541992 0.6284417510032654
vn 0 -0.43202894926071167 -0.9018597602844238
vn 0 -0.4320289194583893 -0.9018597602844238
vn 0 -0.4320289194583893 -0.9018597602844238
vn 0 -0.43202894926071167 -0.9018597602844238
vn 0 -0.4320289194583893 -0.9018597602844238
vn 0 -0.4320289194583893 -0.9018597602844238
vn 0 -1 0
vn 0 -1 0
vn 0 -1 0
vn 0 -1 0
vn 0 -1 0
vn 0 -1 0
vn 0.9307441711425781 -0.36567097902297974 0
vn 0.9307441711425781 -0.36567097902297974 0
vn 0.9307441711425781 -0.36567094922065735 0
vn 0.9307441711425781 -0.36567097902297974 0
vn 0.9307441711425781 -0.36567094922065735 0
vn 0.9307441711425781 -0.36567097902297974 0
vn -0.9307436347007751 -0.36567234992980957 0
vn -0.9307436347007751 -0.36567234992980957 0
vn -0.9307436347007751 -0.36567234992980957 0
vn -0.9307436347007751 -0.36567234992980957 0
vn -0.9307436347007751 -0.36567234992980957 0
vn -0.9307436347007751 -0.3656723201274872 0
vn 0 1 -6.515759309877467e-7
vn 0 1 -6.515759878311655e-7
vn 0 1 -6.515759309877467e-7
vn 0 1 -6.515759309877467e-7
vn 0 1 -6.515759309877467e-7
vn 0 1 -6.515759878311655e-7
vn 0 1 0
vn 0 1 0
vn 0 1 0
vn 0 1 0
vn 0 1 0
vn 0 1 0
vn 0 1 7.647037705282855e-7
vn 0 1 7.647037705282855e-7
vn 0 1 7.647037705282855e-7
vn 0 1 7.647037705282855e-7
vn 0 1 7.647037705282855e-7
vn 0 1 7.647037705282855e-7
vn 0 1 0
vn 0 1 0
vn 0 1 0
vn 0 1 0
vn 0 1 0
vn 0 1 0
vn 0 1 0
vn 0 1 0
vn 0 1 0
vn 0 1 0
vn 0 1 0
vn 0 1 0
vn -1 0 0
vn -1 0 0
vn -1 0 0
vn -1 0 0
vn -1 0 0
vn -1 0 0
vn 0 0 -1
vn 0 0 -1
vn 0 0 -1
vn 0 0 -1
vn 0 0 -1
vn 0 0 -1
vn 1 0 0
vn 1 0 0
vn 1 0 0
vn 1 0 0
vn 1 0 0
vn 1 0 0
vn -0.5515541434288025 0 0.8341391086578369
vn -0.5515541434288025 0 0.8341391086578369
vn -0.5515541434288025 0 0.8341391086578369
vn -0.5515541434288025 0 0.8341391086578369
vn -0.5515541434288025 0 0.8341391086578369
vn -0.5515541434288025 0 0.8341391086578369
vn -0.9036809802055359 0.42820629477500916 0
vn -0.9036810398101807 0.42820629477500916 0
vn -0.9036810398101807 0.42820629477500916 0
vn -0.9036809802055359 0.42820629477500916 0
vn -0.9036810398101807 0.42820629477500916 0
vn -0.9036809802055359 0.42820629477500916 0
vn 0 0.42148277163505554 0.9068363904953003
vn 0 0.42148277163505554 0.9068363904953003
vn 0 0.42148277163505554 0.9068363904953003
vn 0 0.42148277163505554 0.9068363904953003
vn 0 0.42148277163505554 0.9068363904953003
vn 0 0.42148277163505554 0.9068363904953003
vn 0.9036737680435181 0.42822158336639404 0
vn 0.9036737680435181 0.42822158336639404 0
vn 0.9036737680435181 0.42822161316871643 0
vn 0.9036737680435181 0.42822158336639404 0
vn 0.9036737680435181 0.42822161316871643 0
vn 0.9036737680435181 0.42822158336639404 0
vn 0.4346770942211151 0.6469224691390991 -0.6265357732772827
vn 0.4346770942211151 0.6469224691390991 -0.6265357732772827
vn 0.4346770942211151 0.6469224691390991 -0.6265357732772827
vn 0.4346770942211151 0.6469224691390991 -0.6265357732772827
vn 0.4346770942211151 0.6469224691390991 -0.6265357732772827
vn 0.4346770942211151 0.6469225287437439 -0.6265357732772827
vn 0.5515541434288025 0 0.8341391086578369
vn 0.5515541434288025 0 0.8341391086578369
vn 0.5515541434288025 0 0.8341391086578369
vn 0.5515541434288025 0 0.8341391086578369
vn 0.5515541434288025 0 0.8341391086578369
vn 0.5515541434288025 0 0.8341391086578369
vn 0 1 -7.446770382557588e-7
vn 0 1 -7.446770382557588e-7
vn 0 1 -7.446770382557588e-7
vn 0 1 -7.446770382557588e-7
vn 0 1 -7.446770382557588e-7
vn 0 1 -7.446770382557588e-7
vn -0.4346774220466614 0.6469230055809021 -0.6265349984169006
vn -0.43467745184898376 0.6469230651855469 -0.6265349984169006
vn -0.43467745184898376 0.6469230055809021 -0.6265349984169006
vn -0.4346774220466614 0.6469230055809021 -0.6265349984169006
vn -0.43467745184898376 0.6469230055809021 -0.6265349984169006
vn -0.43467745184898376 0.6469230651855469 -0.6265349984169006
vn 0 1 0
vn 0 1 0
vn 0 1 0
vn 0 1 0
vn 0 1 0
vn 0 1 0
vn 0 0.4214836061000824 0.9068360328674316
vn 0 0.4214835464954376 0.9068360328674316
vn 0 0.4214835464954376 0.9068360328674316
vn 0 0.4214836061000824 0.9068360328674316
vn 0 0.4214835464954376 0.9068360328674316
vn 0 0.4214836061000824 0.9068360328674316
vn 0 1 7.647059874216211e-7
vn 0 1 7.6470604426504e-7
vn 0 1 7.6470604426504e-7
vn 0 1 7.647059874216211e-7
vn 0 1 7.6470604426504e-7
vn 0 1 7.6470604426504e-7
vn 0 0 -1
vn 0 0 -1
vn 0 0 -1
vn 0 0 -1
vn 0 0 -1
vn 0 0 -1
vn 0 -0.4320289194583893 -0.9018597602844238
vn 0 -0.4320289194583893 -0.9018597602844238
vn 0 -0.43202894926071167 -0.9018597602844238
vn 0 -0.4320289194583893 -0.9018597602844238
vn 0 -0.43202894926071167 -0.9018597602844238
vn 0 -0.4320289194583893 -0.9018597602844238
vn 0 -1 0
vn 0 -1 0
vn 0 -1 0
vn 0 -1 0
vn 0 -1 0
vn 0 -1 0
vn 0.49335581064224243 -0.6013830900192261 0.6284412741661072
vn 0.49335581064224243 -0.6013830900192261 0.6284412741661072
vn 0.49335581064224243 -0.6013830304145813 0.6284412741661072
vn 0.49335581064224243 -0.6013830900192261 0.6284412741661072
vn 0.49335581064224243 -0.6013830304145813 0.6284412741661072
vn 0.49335578083992004 -0.6013830900192261 0.6284412741661072
vt 0.26492664217948914 0.3981216847896576
vt 0.26492661237716675 0.3981216847896576
vt 0.26492661237716675 0.3981216847896576
vt 0.26492664217948914 0.3981216847896576
vt 0.26492661237716675 0.3981216847896576
vt 0.26492664217948914 0.3981216847896576
vt 0.2953841984272003 0.3981216847896576
vt 0.29538416862487793 0.3981216847896576
vt 0.29538416862487793 0.3981216847896576
vt 0.2953841984272003 0.3981216847896576
vt 0.29538416862487793 0.3981216847896576
vt 0.2953841984272003 0.3981216847896576
vt 0.26492664217948914 0.3981216847896576
vt 0.26492661237716675 0.3981216847896576
vt 0.26492661237716675 0.3981216847896576
vt 0.26492664217948914 0.3981216847896576
vt 0.26492661237716675 0.3981216847896576
vt 0.26492664217948914 0.3981216847896576
vt 0.26492664217948914 0.3981216847896576
vt 0.26492661237716675 0.3981216847896576
vt 0.26492661237716675 0.3981216847896576
vt 0.26492664217948914 0.3981216847896576
vt 0.26492661237716675 0.3981216847896576
vt 0.26492664217948914 0.3981216847896576
vt 0.2953841984272003 0.3981216847896576
vt 0.29538416862487793 0.3981216847896576
vt 0.29538416862487793 0.3981216847896576
vt 0.2953841984272003 0.3981216847896576
vt 0.29538416862487793 0.3981216847896576
vt 0.2953841984272003 0.3981216847896576
vt 0.26492664217948914 0.3981216847896576
vt 0.26492661237716675 0.3981216847896576
vt 0.26492661237716675 0.3981216847896576
vt 0.26492664217948914 0.3981216847896576
vt 0.26492661237716675 0.3981216847896576
vt 0.26492664217948914 0.3981216847896576
vt 0.2374187558889389 0.3922256827354431
vt 0.23741872608661652 0.3922256827354431
vt 0.23741872608661652 0.3922257125377655
vt 0.2374187558889389 0.3922256827354431
vt 0.23741872608661652 0.3922257125377655
vt 0.2374187558889389 0.3922257125377655
vt 0.2374187558889389 0.3922257125377655
vt 0.23741872608661652 0.3922257125377655
vt 0.23741872608661652 0.3922256827354431
vt 0.2374187558889389 0.3922257125377655
vt 0.23741872608661652 0.3922256827354431
vt 0.2374187558889389 0.3922256827354431
vt 0.20311734080314636 0.3922256827354431
vt 0.20311731100082397 0.3922256827354431
vt 0.20311731100082397 0.39222562313079834
vt 0.20311734080314636 0.3922256827354431
vt 0.20311731100082397 0.39222562313079834
vt 0.20311734080314636 0.39222562313079834
vt 0.26387983560562134 0.3922256827354431
vt 0.26387977600097656 0.3922256827354431
vt 0.26387977600097656 0.3922257125377655
vt 0.26387983560562134 0.3922256827354431
vt 0.26387977600097656 0.3922257125377655
vt 0.26387983560562134 0.3922257125377655
vt 0.26387983560562134 0.3922256827354431
vt 0.26387983560562134 0.3922256827354431
vt 0.2638798952102661 0.3922257125377655
vt 0.26387983560562134 0.3922256827354431
vt 0.2638798952102661 0.3922257125377655
vt 0.26387983560562134 0.3922257125377655
vt 0.3330211639404297 0.3922257125377655
vt 0.3330211341381073 0.3922257125377655
vt 0.3330211341381073 0.3922257125377655
vt 0.3330211639404297 0.3922257125377655
vt 0.3330211341381073 0.3922257125377655
vt 0.3330211639404297 0.3922257125377655
vt 0.3330211043357849 0.3922257125377655
vt 0.3330211043357849 0.3922257125377655
vt 0.3330211043357849 0.3922257125377655
vt 0.3330211043357849 0.3922257125377655
vt 0.3330211043357849 0.3922257125377655
vt 0.3330211043357849 0.3922257125377655
vt 0.3330211341381073 0.3922257125377655
vt 0.3330211341381073 0.3922257125377655
vt 0.3330211639404297 0.3922257125377655
vt 0.3330211341381073 0.3922257125377655
vt 0.3330211639404297 0.3922257125377655
vt 0.3330211639404297 0.3922257125377655
vt 0.3330211639404297 0.3922257125377655
vt 0.3330211639404297 0.3922257125377655
vt 0.3330211639404297 0.3922257125377655
vt 0.3330211639404297 0.3922257125377655
vt 0.3330211639404297 0.3922257125377655
vt 0.3330211639404297 0.3922257125377655
vt 0.7105271220207214 0.007132768630981445
vt 0.7105266451835632 0.007132768630981445
vt 0.7105266451835632 0.007132768630981445
vt 0.7105271220207214 0.007132768630981445
vt 0.7105266451835632 0.007132768630981445
vt 0.7105271220207214 0.007132768630981445
vt 0.29871970415115356 0.3922257125377655
vt 0.29871976375579834 0.3922257125377655
vt 0.29871970415115356 0.3922257125377655
vt 0.29871970415115356 0.3922257125377655
vt 0.29871970415115356 0.3922257125377655
vt 0.29871970415115356 0.3922257125377655
vt 0.2722586393356323 0.3922257125377655
vt 0.27225860953330994 0.3922257125377655
vt 0.27225860953330994 0.3922257125377655
vt 0.2722586393356323 0.3922257125377655
vt 0.27225860953330994 0.3922257125377655
vt 0.2722586393356323 0.3922257125377655
vt 0.29871970415115356 0.3922257125377655
vt 0.2987196445465088 0.3922257125377655
vt 0.2987196445465088 0.3922257125377655
vt 0.29871970415115356 0.3922257125377655
vt 0.2987196445465088 0.3922257125377655
vt 0.29871970415115356 0.3922257125377655
vt 0.2722586393356323 0.3922257125377655
vt 0.27225860953330994 0.3922257125377655
vt 0.27225860953330994 0.3922257125377655
vt 0.2722586393356323 0.3922257125377655
vt 0.27225860953330994 0.3922257125377655
vt 0.2722586393356323 0.3922257125377655
vt 0.2964012026786804 0.3922257125377655
vt 0.2964012026786804 0.3922257125377655
vt 0.2964012026786804 0.3922257423400879
vt 0.2964012026786804 0.3922257125377655
vt 0.2964012026786804 0.3922257423400879
vt 0.2964012026786804 0.3922257423400879
vt 0.26754915714263916 0.3922257423400879
vt 0.26754915714263916 0.3922257125377655
vt 0.26754918694496155 0.3922257125377655
vt 0.26754915714263916 0.3922257423400879
vt 0.26754918694496155 0.3922257125377655
vt 0.26754918694496155 0.3922257423400879
vt 0.2964012324810028 0.3922257125377655
vt 0.2964012324810028 0.3922257125377655
vt 0.2964012622833252 0.3922257423400879
vt 0.2964012324810028 0.3922257125377655
vt 0.2964012622833252 0.3922257423400879
vt 0.2964012622833252 0.3922257423400879
vt 0.26754918694496155 0.3922257125377655
vt 0.26754915714263916 0.3922257125377655
vt 0.26754915714263916 0.3922257423400879
vt 0.26754918694496155 0.3922257125377655
vt 0.26754915714263916 0.3922257423400879
vt 0.26754918694496155 0.3922257423400879
vt 0.27225860953330994 0.3922257125377655
vt 0.27225860953330994 0.3922257125377655
vt 0.27225857973098755 0.3922257125377655
vt 0.27225860953330994 0.3922257125377655
vt 0.27225857973098755 0.3922257125377655
vt 0.27225857973098755 0.3922257125377655
vt 0.3330211341381073 0.3922257125377655
vt 0.3330211341381073 0.3922257125377655
vt 0.3330211043357849 0.3922257125377655
vt 0.3330211341381073 0.3922257125377655
vt 0.3330211043357849 0.3922257125377655
vt 0.3330211043357849 0.3922257125377655
vt 0.26754915714263916 0.3922257423400879
vt 0.26754915714263916 0.3922257125377655
vt 0.2675491273403168 0.3922257125377655
vt 0.26754915714263916 0.3922257423400879
vt 0.2675491273403168 0.3922257125377655
vt 0.2675491273403168 0.3922257423400879
vt 0.7105266451835632 0.007132768630981445
vt 0.7105266451835632 0.007132768630981445
vt 0.7105271220207214 0.007132768630981445
vt 0.7105266451835632 0.007132768630981445
vt 0.7105271220207214 0.007132768630981445
vt 0.7105271220207214 0.007132768630981445
vt 0.2675491273403168 0.3922257125377655
vt 0.26754915714263916 0.3922257125377655
vt 0.26754915714263916 0.3922257423400879
vt 0.2675491273403168 0.3922257125377655
vt 0.26754915714263916 0.3922257423400879
vt 0.2675491273403168 0.3922257423400879
vt 0.3330211043357849 0.3922257125377655
vt 0.3330211341381073 0.3922257125377655
vt 0.3330211341381073 0.3922257125377655
vt 0.3330211043357849 0.3922257125377655
vt 0.3330211341381073 0.3922257125377655
vt 0.3330211043357849 0.3922257125377655
vt 0.27225860953330994 0.3922257125377655
vt 0.27225860953330994 0.3922257125377655
vt 0.27225857973098755 0.3922257125377655
vt 0.27225860953330994 0.3922257125377655
vt 0.27225857973098755 0.3922257125377655
vt 0.27225857973098755 0.3922257125377655
vt 0.23741872608661652 0.3922256827354431
vt 0.23741872608661652 0.3922257125377655
vt 0.23741869628429413 0.3922257125377655
vt 0.23741872608661652 0.3922256827354431
vt 0.23741869628429413 0.3922257125377655
vt 0.23741869628429413 0.3922256827354431
vt 0.20311731100082397 0.39222562313079834
vt 0.20311731100082397 0.3922256827354431
vt 0.2031172811985016 0.3922256827354431
vt 0.20311731100082397 0.39222562313079834
vt 0.2031172811985016 0.3922256827354431
vt 0.2031172811985016 0.39222562313079834
vt 0.23741872608661652 0.3922257125377655
vt 0.23741872608661652 0.3922256827354431
vt 0.23741869628429413 0.3922256827354431
vt 0.23741872608661652 0.3922257125377655
vt 0.23741869628429413 0.3922256827354431
vt 0.23741869628429413 0.3922257125377655
usemtl lambert1
f 1/1/1 2/2/2 3/3/3
f 4/4/4 5/5/5 6/6/6
f 7/7/7 8/8/8 9/9/9
f 10/10/10 11/11/11 12/12/12
f 13/13/13 14/14/14 15/15/15
f 16/16/16 17/17/17 18/18/18
f 19/19/19 20/20/20 21/21/21
f 22/22/22 23/23/23 24/24/24
f 25/25/25 26/26/26 27/27/27
f 28/28/28 29/29/29 30/30/30
f 31/31/31 32/32/32 33/33/33
f 34/34/34 35/35/35 36/36/36
f 37/37/37 38/38/38 39/39/39
f 40/40/40 41/41/41 42/42/42
f 43/43/43 44/44/44 45/45/45
f 46/46/46 47/47/47 48/48/48
f 49/49/49 50/50/50 51/51/51
f 52/52/52 53/53/53 54/54/54
f 55/55/55 56/56/56 57/57/57
f 58/58/58 59/59/59 60/60/60
f 61/61/61 62/62/62 63/63/63
f 64/64/64 65/65/65 66/66/66
f 67/67/67 68/68/68 69/69/69
f 70/70/70 71/71/71 72/72/72
f 73/73/73 74/74/74 75/75/75
f 76/76/76 77/77/77 78/78/78
f 79/79/79 80/80/80 81/81/81
f 82/82/82 83/83/83 84/84/84
f 85/85/85 86/86/86 87/87/87
f 88/88/88 89/89/89 90/90/90
f 91/91/91 92/92/92 93/93/93
f 94/94/94 95/95/95 96/96/96
f 97/97/97 98/98/98 99/99/99
f 100/100/100 101/101/101 102/102/102
f 103/103/103 104/104/104 105/105/105
f 106/106/106 107/107/107 108/108/108
f 109/109/109 110/110/110 111/111/111
f 112/112/112 113/113/113 114/114/114
f 115/115/115 116/116/116 117/117/117
f 118/118/118 119/119/119 120/120/120
f 121/121/121 122/122/122 123/123/123
f 124/124/124 125/125/125 126/126/126
f 127/127/127 128/128/128 129/129/129
f 130/130/130 131/131/131 132/132/132
f 133/133/133 134/134/134 135/135/135
f 136/136/136 137/137/137 138/138/138
f 139/139/139 140/140/140 141/141/141
f 142/142/142 143/143/143 144/144/144
f 145/145/145 146/146/146 147/147/147
f 148/148/148 149/149/149 150/150/150
f 151/151/151 152/152/152 153/153/153
f 154/154/154 155/155/155 156/156/156
f 157/157/157 158/158/158 159/159/159
f 160/160/160 161/161/161 162/162/162
f 163/163/163 164/164/164 165/165/165
f 166/166/166 167/167/167 168/168/168
f 169/169/169 170/170/170 171/171/171
f 172/172/172 173/173/173 174/174/174
f 175/175/175 176/176/176 177/177/177
f 178/178/178 179/179/179 180/180/180
f 181/181/181 182/182/182 183/183/183
f 184/184/184 185/185/185 186/186/186
f 187/187/187 188/188/188 189/189/189
f 190/190/190 191/191/191 192/192/192
f 193/193/193 194/194/194 195/195/195
f 196/196/196 197/197/197 198/198/198
f 199/199/199 200/200/200 201/201/201
f 202/202/202 203/203/203 204/204/204
