g Shape
v -1.734018 -0.002026081 0.2121401
v -2.158293 -0.002026081 0.2121401
v -2.158293 3.99128 0.2121401
v -1.734018 3.567004 0.2121401
v 2.15829 3.99128 0.2121401
v 1.734014 3.567004 0.2121401
v 2.15829 0.7311952 0.2121401
v 1.734014 1.155472 0.2121401
v -0.8608582 0.7311952 0.2121401
v -0.4365819 1.155472 0.2121401
v -0.8608582 3.046056 0.2121401
v -0.4365819 2.62178 0.2121401
v 0.648716 3.046056 0.2121401
v 0.648716 2.62178 0.2121401
v -2.158293 -0.002026081 0.2121401
v -2.158293 -0.002026081 -0.212136
v -2.158293 3.99128 -0.212136
v -2.158293 3.99128 0.2121401
v -2.158293 -0.002026081 -0.212136
v -1.734018 -0.002026081 -0.212136
v -1.734018 3.567004 -0.212136
v -2.158293 3.99128 -0.212136
v 1.734014 3.567004 -0.212136
v 2.15829 3.99128 -0.212136
v 1.734014 1.155472 -0.212136
v 2.15829 0.7311952 -0.212136
v -0.4365819 1.155472 -0.212136
v -0.8608582 0.7311952 -0.212136
v -0.4365819 2.62178 -0.212136
v -0.8608582 3.046056 -0.212136
v 0.648716 2.62178 -0.212136
v 0.648716 3.046056 -0.212136
v -1.734018 -0.002026081 -0.212136
v -1.734018 -0.002026081 0.2121401
v -1.734018 3.567004 0.2121401
v -1.734018 3.567004 -0.212136
v -2.158293 3.99128 0.2121401
v -2.158293 3.99128 -0.212136
v 2.15829 3.99128 -0.212136
v 2.15829 3.99128 0.2121401
v 2.15829 3.99128 0.2121401
v 2.15829 3.99128 -0.212136
v 2.15829 0.7311952 -0.212136
v 2.15829 0.7311952 0.2121401
v 1.734014 3.567004 -0.212136
v 1.734014 3.567004 0.2121401
v 1.734014 1.155472 0.2121401
v 1.734014 1.155472 -0.212136
v 1.734014 1.155472 -0.212136
v 1.734014 1.155472 0.2121401
v -0.4365819 1.155472 0.2121401
v -0.4365819 1.155472 -0.212136
v -0.8608582 0.7311952 0.2121401
v -0.8608582 0.7311952 -0.212136
v -0.8608582 3.046056 -0.212136
v -0.8608582 3.046056 0.2121401
v -0.4365819 1.155472 -0.212136
v -0.4365819 1.155472 0.2121401
v -0.4365819 2.62178 0.2121401
v -0.4365819 2.62178 -0.212136
v -0.8608582 3.046056 0.2121401
v -0.8608582 3.046056 -0.212136
v 0.648716 3.046056 -0.212136
v 0.648716 3.046056 0.2121401
v -2.158293 -0.002026081 -0.212136
v -2.158293 -0.002026081 0.2121401
v -1.734018 -0.002026081 0.2121401
v -1.734018 -0.002026081 -0.212136
v 0.648716 3.046056 -0.212136
v 0.648716 2.62178 0.2121401
v 0.648716 3.046056 0.2121401
v 0.648716 2.62178 -0.212136
v -3.597155 4.724502 0.3535655
v -2.890028 4.724502 0.3535655
v -2.890028 -0.002026081 0.3535655
v -3.597155 -0.002026081 0.3535655
v -2.890028 4.724502 0.3535655
v -2.890028 4.724502 -0.3535616
v -2.890028 -0.002026081 -0.3535616
v -2.890028 -0.002026081 0.3535655
v -2.890028 4.724502 -0.3535616
v -3.597155 4.724502 -0.3535616
v -3.597155 -0.002026081 -0.3535616
v -2.890028 -0.002026081 -0.3535616
v -3.597155 4.724502 -0.3535616
v -3.597155 4.724502 0.3535655
v -3.597155 -0.002026081 0.3535655
v -3.597155 -0.002026081 -0.3535616
v 3.597151 -0.002026081 0.3535655
v 2.890024 -0.002026081 0.3535655
v 2.890024 4.724502 0.3535655
v 3.597151 4.724502 0.3535655
v 2.890024 -0.002026081 0.3535655
v 2.890024 -0.002026081 -0.3535616
v 2.890024 4.724502 -0.3535616
v 2.890024 4.724502 0.3535655
v 2.890024 -0.002026081 -0.3535616
v 3.597151 -0.002026081 -0.3535616
v 3.597151 4.724502 -0.3535616
v 2.890024 4.724502 -0.3535616
v 3.597151 -0.002026081 -0.3535616
v 3.597151 -0.002026081 0.3535655
v 3.597151 4.724502 0.3535655
v 3.597151 4.724502 -0.3535616
v 3.701395 5.159324 0.4348242
v 3.701395 4.289544 0.4348242
v -3.74507 4.289544 0.4348242
v -3.74507 5.159324 0.4348242
v 3.701395 4.289544 -0.4348202
v 3.701395 5.159324 -0.4348202
v -3.74507 5.159324 -0.4348202
v -3.74507 4.289544 -0.4348202
v 3.701395 4.289544 -0.4348202
v 3.701395 4.289544 0.4348242
v 3.701395 5.159324 0.4348242
v 3.701395 5.159324 -0.4348202
v -3.74507 4.289544 -0.4348202
v -3.74507 5.159324 0.4348242
v -3.74507 4.289544 0.4348242
v -3.74507 5.159324 -0.4348202
v 3.701395 5.159324 -0.4348202
v 3.701395 5.159324 0.4348242
v -3.74507 5.159324 0.4348242
v -3.74507 5.159324 -0.4348202
vn -0.003921628 0.003921628 0.9999846
vn -0.003921628 0.003921628 0.9999846
vn -0.003921628 0.003921628 0.9999846
vn -0.003921628 0.003921628 0.9999846
vn -0.003921628 0.003921628 0.9999846
vn -0.003921628 0.003921628 0.9999846
vn -0.003921628 0.003921628 0.9999846
vn -0.003921628 0.003921628 0.9999846
vn -0.003921628 0.003921628 0.9999846
vn -0.003921628 0.003921628 0.9999846
vn -0.003921628 0.003921628 0.9999846
vn -0.003921628 0.003921628 0.9999846
vn -0.003921628 0.003921628 0.9999846
vn -0.003921628 0.003921628 0.9999846
vn -0.9999924 0.003921628 0
vn -0.9999924 0.003921628 0
vn -0.9999924 0.003921628 0
vn -0.9999924 0.003921628 0
vn -0.003921628 0.003921628 -0.9999846
vn -0.003921628 0.003921628 -0.9999846
vn -0.003921628 0.003921628 -0.9999846
vn -0.003921628 0.003921628 -0.9999846
vn -0.003921628 0.003921628 -0.9999846
vn -0.003921628 0.003921628 -0.9999846
vn -0.003921628 0.003921628 -0.9999846
vn -0.003921628 0.003921628 -0.9999846
vn -0.003921628 0.003921628 -0.9999846
vn -0.003921628 0.003921628 -0.9999846
vn -0.003921628 0.003921628 -0.9999846
vn -0.003921628 0.003921628 -0.9999846
vn -0.003921628 0.003921628 -0.9999846
vn -0.003921628 0.003921628 -0.9999846
vn 0.9999924 0.003921628 0
vn 0.9999924 0.003921628 0
vn 0.9999924 0.003921628 0
vn 0.9999924 0.003921628 0
vn -0.003921628 0.9999924 0
vn -0.003921628 0.9999924 0
vn -0.003921628 0.9999924 0
vn -0.003921628 0.9999924 0
vn 0.9999924 0.003921628 0
vn 0.9999924 0.003921628 0
vn 0.9999924 0.003921628 0
vn 0.9999924 0.003921628 0
vn -0.9999924 0.003921628 0
vn -0.9999924 0.003921628 0
vn -0.9999924 0.003921628 0
vn -0.9999924 0.003921628 0
vn -0.003921628 0.9999924 0
vn -0.003921628 0.9999924 0
vn -0.003921628 0.9999924 0
vn -0.003921628 0.9999924 0
vn -0.9999924 0.003921628 0
vn -0.9999924 0.003921628 0
vn -0.9999924 0.003921628 0
vn -0.9999924 0.003921628 0
vn 0.9999924 0.003921628 0
vn 0.9999924 0.003921628 0
vn 0.9999924 0.003921628 0
vn 0.9999924 0.003921628 0
vn -0.003921628 0.9999924 0
vn -0.003921628 0.9999924 0
vn -0.003921628 0.9999924 0
vn -0.003921628 0.9999924 0
vn -0.003921628 -0.9999924 0
vn -0.003921628 -0.9999924 0
vn -0.003921628 -0.9999924 0
vn -0.003921628 -0.9999924 0
vn 0.9999924 0.003921628 0
vn 0.9999924 0.003921628 0
vn 0.9999924 0.003921628 0
vn 0.9999924 0.003921628 0
vn -0.003921628 0.003921628 0.9999846
vn -0.003921628 0.003921628 0.9999846
vn -0.003921628 0.003921628 0.9999846
vn -0.003921628 0.003921628 0.9999846
vn 0.9999924 0.003921628 0
vn 0.9999924 0.003921628 0
vn 0.9999924 0.003921628 0
vn 0.9999924 0.003921628 0
vn -0.003921628 0.003921628 -0.9999846
vn -0.003921628 0.003921628 -0.9999846
vn -0.003921628 0.003921628 -0.9999846
vn -0.003921628 0.003921628 -0.9999846
vn -0.9999924 0.003921628 0
vn -0.9999924 0.003921628 0
vn -0.9999924 0.003921628 0
vn -0.9999924 0.003921628 0
vn -0.003921628 0.003921628 0.9999846
vn -0.003921628 0.003921628 0.9999846
vn -0.003921628 0.003921628 0.9999846
vn -0.003921628 0.003921628 0.9999846
vn -0.9999924 0.003921628 0
vn -0.9999924 0.003921628 0
vn -0.9999924 0.003921628 0
vn -0.9999924 0.003921628 0
vn -0.003921628 0.003921628 -0.9999846
vn -0.003921628 0.003921628 -0.9999846
vn -0.003921628 0.003921628 -0.9999846
vn -0.003921628 0.003921628 -0.9999846
vn 0.9999924 0.003921628 0
vn 0.9999924 0.003921628 0
vn 0.9999924 0.003921628 0
vn 0.9999924 0.003921628 0
vn -0.003921628 0.003921628 0.9999846
vn -0.003921628 0.003921628 0.9999846
vn -0.003921628 0.003921628 0.9999846
vn -0.003921628 0.003921628 0.9999846
vn -0.003921628 0.003921628 -0.9999846
vn -0.003921628 0.003921628 -0.9999846
vn -0.003921628 0.003921628 -0.9999846
vn -0.003921628 0.003921628 -0.9999846
vn 0.9999924 0.003921628 0
vn 0.9999924 0.003921628 0
vn 0.9999924 0.003921628 0
vn 0.9999924 0.003921628 0
vn -0.9999924 0.003921628 0
vn -0.9999924 0.003921628 0
vn -0.9999924 0.003921628 0
vn -0.9999924 0.003921628 0
vn -0.003921628 0.9999924 0
vn -0.003921628 0.9999924 0
vn -0.003921628 0.9999924 0
vn -0.003921628 0.9999924 0
g Shape_0
f 3/3/3 2/2/2 1/1/1
f 4/4/4 3/3/3 1/1/1
f 5/5/5 3/3/3 4/4/4
f 6/6/6 5/5/5 4/4/4
f 7/7/7 5/5/5 6/6/6
f 8/8/8 7/7/7 6/6/6
f 9/9/9 7/7/7 8/8/8
f 10/10/10 9/9/9 8/8/8
f 11/11/11 9/9/9 10/10/10
f 12/12/12 11/11/11 10/10/10
f 13/13/13 11/11/11 12/12/12
f 14/14/14 13/13/13 12/12/12
f 17/17/17 16/16/16 15/15/15
f 18/18/18 17/17/17 15/15/15
f 21/21/21 20/20/20 19/19/19
f 22/22/22 21/21/21 19/19/19
f 23/23/23 21/21/21 22/22/22
f 24/24/24 23/23/23 22/22/22
f 25/25/25 23/23/23 24/24/24
f 26/26/26 25/25/25 24/24/24
f 27/27/27 25/25/25 26/26/26
f 28/28/28 27/27/27 26/26/26
f 29/29/29 27/27/27 28/28/28
f 30/30/30 29/29/29 28/28/28
f 31/31/31 29/29/29 30/30/30
f 32/32/32 31/31/31 30/30/30
f 35/35/35 34/34/34 33/33/33
f 36/36/36 35/35/35 33/33/33
f 39/39/39 38/38/38 37/37/37
f 40/40/40 39/39/39 37/37/37
f 43/43/43 42/42/42 41/41/41
f 44/44/44 43/43/43 41/41/41
f 47/47/47 46/46/46 45/45/45
f 48/48/48 47/47/47 45/45/45
f 51/51/51 50/50/50 49/49/49
f 52/52/52 51/51/51 49/49/49
f 55/55/55 54/54/54 53/53/53
f 56/56/56 55/55/55 53/53/53
f 59/59/59 58/58/58 57/57/57
f 60/60/60 59/59/59 57/57/57
f 63/63/63 62/62/62 61/61/61
f 64/64/64 63/63/63 61/61/61
f 67/67/67 66/66/66 65/65/65
f 68/68/68 67/67/67 65/65/65
f 71/71/71 70/70/70 69/69/69
f 69/69/69 70/70/70 72/72/72
f 75/75/75 74/74/74 73/73/73
f 76/76/76 75/75/75 73/73/73
f 79/79/79 78/78/78 77/77/77
f 80/80/80 79/79/79 77/77/77
f 83/83/83 82/82/82 81/81/81
f 84/84/84 83/83/83 81/81/81
f 87/87/87 86/86/86 85/85/85
f 88/88/88 87/87/87 85/85/85
f 91/91/91 90/90/90 89/89/89
f 92/92/92 91/91/91 89/89/89
f 95/95/95 94/94/94 93/93/93
f 96/96/96 95/95/95 93/93/93
f 99/99/99 98/98/98 97/97/97
f 100/100/100 99/99/99 97/97/97
f 103/103/103 102/102/102 101/101/101
f 104/104/104 103/103/103 101/101/101
f 107/107/107 106/106/106 105/105/105
f 108/108/108 107/107/107 105/105/105
f 111/111/111 110/110/110 109/109/109
f 112/112/112 111/111/111 109/109/109
f 115/115/115 114/114/114 113/113/113
f 116/116/116 115/115/115 113/113/113
f 119/119/119 118/118/118 117/117/117
f 117/117/117 118/118/118 120/120/120
f 123/123/123 122/122/122 121/121/121
f 124/124/124 123/123/123 121/121/121
