g SM_Bld_Block_Stairs_01
v 0.583957 1.143507 -1.250008
v 0.9999993 1.143507 -1.25
v 0.9999993 1.143507 -0.9375
v 0.583957 1.143507 -1.065758
v -0.4907768 1.143507 -1.250008
v -0.4907768 1.174249 -1.02903
v -1.000001 1.143507 -0.9375
v -1.000001 1.143507 -1.25
v 0.583957 7.450581E-09 -1.250008
v 0.9999993 7.450581E-09 -1.25
v 0.9999993 1.143507 -1.25
v 0.583957 1.143507 -1.250008
v -0.4907768 2.235174E-08 -1.250008
v -0.4907768 1.143507 -1.250008
v -1.000001 1.143507 -1.25
v -1.000001 7.450581E-09 -1.25
v -1.117253 1.243237 -1.25
v -1.151452 7.450581E-09 -1.25
v -1.000001 1.243237 -1.25
v 0.9999993 1.243237 -1.25
v 1.15145 7.450581E-09 -1.25
v 1.113616 1.243237 -1.25
v 0.5479729 0.6048098 -0.0006484985
v 0.9999993 0.5717536 0
v 0.9999993 0.5717536 0.3125
v 0.583957 0.5717536 0.2560654
v -0.4907768 0.5717536 0
v -0.4381454 0.5596862 0.1456833
v 0.5822251 0.2767748 0.578743
v 0.9999993 0.2858768 0.625
v 0.9999993 0.2858768 0.9375
v 0.583957 0.2858768 0.8876648
v -0.4907768 0.3226028 0.625
v -0.439656 0.2992201 0.8239975
v -1.000001 0.2858768 0.9375
v -1.000001 0.2858768 0.625
v 0.5767739 0.8473609 -0.6511002
v 0.9999993 0.8576305 -0.625
v 0.9999993 0.8576303 -0.3125
v 0.583957 0.8576303 -0.3665237
v -0.4907768 0.8576304 -0.6533127
v -0.4521835 0.8479323 -0.4355698
v -1.000001 0.8576303 -0.3125
v -1.000001 0.8576305 -0.625
v 0.583957 1.000569 -0.9799881
v 0.9999993 1.000569 -0.9375
v 0.9999993 1.000569 -0.625
v 0.5706971 0.9816115 -0.7230148
v -0.4907768 1.000569 -0.9600983
v -0.4907768 1.000569 -0.7270813
v -1.000001 1.000569 -0.625
v -1.000001 1.000569 -0.9375
v 0.583957 0.7146919 -0.3125
v 0.9999993 0.7146919 -0.3125
v 0.9999993 0.7146919 0
v 0.5175316 0.7802714 -0.07617188
v 0.583957 0.4288152 0.3125
v 0.9999993 0.4288152 0.3125
v 0.9999993 0.4288151 0.625
v 0.5807602 0.4120133 0.4897842
v 0.583957 0.1429384 0.9374924
v 0.9999993 0.1429384 0.9375
v 0.9999993 0.1429384 1.250008
v 0.583957 0.1429384 1.128479
v -0.4630821 0.1501668 0.9029999
v -0.4907768 0.1429384 1.136543
v -1.000001 0.1429384 1.250008
v -1.000001 0.1429384 0.9375
v 0.5706971 0.9816115 -0.7230148
v 0.9999993 1.000569 -0.625
v 0.9999993 0.8576305 -0.625
v 0.5767739 0.8473609 -0.6511002
v 0.5175316 0.7802714 -0.07617188
v 0.9999993 0.7146919 0
v 0.9999993 0.5717536 0
v 0.5479729 0.6048098 -0.0006484985
v 0.5807602 0.4120133 0.4897842
v 0.9999993 0.4288151 0.625
v 0.9999993 0.2858768 0.625
v 0.5822251 0.2767748 0.578743
v 0.583957 0.1429384 1.128479
v 0.9999993 0.1429384 1.250008
v 0.9999993 7.450581E-09 1.250008
v 0.583957 7.450581E-09 1.211166
v 0.583957 1.143507 -1.065758
v 0.9999993 1.143507 -0.9375
v 0.9999993 1.000569 -0.9375
v 0.583957 1.000569 -0.9799881
v 0.583957 0.5717536 0.2560654
v 0.9999993 0.5717536 0.3125
v 0.9999993 0.4288152 0.3125
v 0.583957 0.4288152 0.3125
v 0.583957 0.2858768 0.8876648
v 0.9999993 0.2858768 0.9375
v 0.9999993 0.1429384 0.9375
v 0.583957 0.1429384 0.9374924
v 0.583957 0.8576303 -0.3665237
v 0.9999993 0.8576303 -0.3125
v 0.9999993 0.7146919 -0.3125
v 0.583957 0.7146919 -0.3125
v -1.151452 7.450581E-09 1.250008
v -1.117253 0.3114058 1.250008
v -1.000001 0.3114058 1.250008
v -1.000001 7.450581E-09 1.250008
v -1.117253 1.010234 -0.5007629
v -1.117253 1.264474 -0.859993
v -1.000001 1.264474 -0.859993
v -1.000001 1.010234 -0.5007629
v -1.151452 7.450581E-09 -0.7726669
v -1.151452 7.450581E-09 -0.05434418
v -1.000001 7.450581E-09 -0.05434418
v -1.000005 7.450581E-09 -0.7726669
v -1.151452 7.450581E-09 -1.25
v -1.000001 7.450581E-09 -1.25
v -1.000001 7.450581E-09 0.6092911
v -1.151452 7.450581E-09 0.6092911
v -1.000001 7.450581E-09 1.250008
v -1.151452 7.450581E-09 1.250008
v -1.000001 1.010234 -0.5007629
v -1.000001 1.264474 -0.859993
v -1.000005 7.450581E-09 -0.7726669
v -1.000001 7.450581E-09 -0.05434418
v -1.000001 7.450581E-09 -1.25
v -1.000001 1.243237 -1.25
v -1.000001 0.3495121 0.9204941
v -1.000001 7.450581E-09 0.6092911
v -1.000001 7.450581E-09 1.250008
v -1.000001 0.3114058 1.250008
v -1.117253 1.264474 -0.859993
v -1.117253 1.010234 -0.5007629
v -1.151452 7.450581E-09 -0.05434418
v -1.151452 7.450581E-09 -0.7726669
v -1.151452 7.450581E-09 -1.25
v -1.117253 1.243237 -1.25
v -1.151452 7.450581E-09 0.6092911
v -1.076142 0.3495121 0.9204941
v 0.9999993 7.450581E-09 1.250008
v 0.9999993 0.3114058 1.250008
v 1.113616 0.3114058 1.250008
v 1.15145 7.450581E-09 1.250008
v 0.9999993 0.3779868 0.9281464
v 0.9999993 1.00916 -0.5893326
v 1.113616 1.00916 -0.5893326
v 1.073028 0.3779868 0.9281464
v 0.9999993 7.450581E-09 0.03832245
v 0.9999993 7.450581E-09 0.9132309
v 1.15145 7.450581E-09 0.9132309
v 1.15145 7.450581E-09 0.03832245
v 1.15145 7.450581E-09 1.250008
v 0.9999993 7.450581E-09 1.250008
v 0.9999993 7.450581E-09 -0.8542099
v 1.15145 7.450581E-09 -0.8542099
v 0.9999993 7.450581E-09 -1.25
v 1.15145 7.450581E-09 -1.25
v 1.073028 0.3779868 0.9281464
v 1.113616 1.00916 -0.5893326
v 1.15145 7.450581E-09 0.03832245
v 1.15145 7.450581E-09 0.9132309
v 1.15145 7.450581E-09 -0.8542099
v 1.113616 1.176816 -0.7998962
v 1.15145 7.450581E-09 -1.25
v 1.113616 1.243237 -1.25
v 0.9999993 1.00916 -0.5893326
v 0.9999993 0.3779868 0.9281464
v 0.9999993 7.450581E-09 0.9132309
v 0.9999993 7.450581E-09 0.03832245
v 0.9999993 7.450581E-09 1.250008
v 0.9999993 0.3114058 1.250008
v 0.9999993 1.176816 -0.7998962
v 0.9999993 7.450581E-09 -0.8542099
v 0.9999993 7.450581E-09 -1.25
v 0.9999993 1.243237 -1.25
v -1.000001 1.000569 -0.9375
v -1.000001 1.143507 -0.9375
v -0.4907768 1.174249 -1.02903
v -0.4907768 1.000569 -0.9600983
v -1.000001 0.8576305 -0.625
v -1.000001 1.000569 -0.625
v -0.4907768 1.000569 -0.7270813
v -0.4907768 0.8576304 -0.6533127
v -1.000001 0.7146919 -0.3125
v -1.000001 0.8576303 -0.3125
v -0.4521835 0.8479323 -0.4355698
v -0.4698684 0.7094383 -0.3499069
v -1.000001 0.7146919 0
v -1.000001 0.7146919 -0.3125
v -0.4698684 0.7094383 -0.3499069
v -0.4907768 0.7146919 -0.07498169
v -1.000001 0.5717536 0
v -1.000001 0.7146919 0
v -0.4907768 0.7146919 -0.07498169
v -0.4907768 0.5717536 0
v -1.000001 0.5717536 0.3125
v -1.000001 0.5717536 0
v -0.4907768 0.5717536 0
v -0.4381454 0.5596862 0.1456833
v -1.000001 0.4288152 0.3125
v -1.000001 0.5717536 0.3125
v -0.4381454 0.5596862 0.1456833
v -0.462796 0.422278 0.2496414
v -1.000001 0.4288151 0.625
v -1.000001 0.4288152 0.3125
v -0.462796 0.422278 0.2496414
v -0.4907768 0.4966097 0.5751724
v -1.000001 0.2858768 0.625
v -1.000001 0.4288151 0.625
v -0.4907768 0.4966097 0.5751724
v -0.4907768 0.3226028 0.625
v -1.000001 0.1429384 0.9375
v -1.000001 0.2858768 0.9375
v -0.439656 0.2992201 0.8239975
v -0.4630821 0.1501668 0.9029999
v -1.000001 7.450581E-09 1.250008
v -1.000001 0.1429384 1.250008
v -0.4907768 0.1429384 1.136543
v -0.4907768 2.235174E-08 1.215538
v -0.4907768 1.174249 -1.02903
v 0.583957 1.143507 -1.065758
v 0.583957 1.000569 -0.9799881
v -0.4907768 1.000569 -0.9600983
v -0.4907768 1.000569 -0.7270813
v 0.5706971 0.9816115 -0.7230148
v 0.5767739 0.8473609 -0.6511002
v -0.4907768 0.8576304 -0.6533127
v -0.4521835 0.8479323 -0.4355698
v 0.583957 0.8576303 -0.3665237
v 0.583957 0.7146919 -0.3125
v -0.4698684 0.7094383 -0.3499069
v -0.4698684 0.7094383 -0.3499069
v 0.583957 0.7146919 -0.3125
v 0.5175316 0.7802714 -0.07617188
v -0.4907768 0.7146919 -0.07498169
v -0.4907768 0.7146919 -0.07498169
v 0.5175316 0.7802714 -0.07617188
v 0.5479729 0.6048098 -0.0006484985
v -0.4907768 0.5717536 0
v -0.4381454 0.5596862 0.1456833
v 0.583957 0.5717536 0.2560654
v 0.583957 0.4288152 0.3125
v -0.462796 0.422278 0.2496414
v -0.462796 0.422278 0.2496414
v 0.583957 0.4288152 0.3125
v 0.5807602 0.4120133 0.4897842
v -0.4907768 0.4966097 0.5751724
v -0.4907768 0.4966097 0.5751724
v 0.5807602 0.4120133 0.4897842
v 0.5822251 0.2767748 0.578743
v -0.4907768 0.3226028 0.625
v -0.439656 0.2992201 0.8239975
v 0.583957 0.2858768 0.8876648
v 0.583957 0.1429384 0.9374924
v -0.4630821 0.1501668 0.9029999
v -0.4907768 0.1429384 1.136543
v 0.583957 0.1429384 1.128479
v 0.583957 7.450581E-09 1.211166
v -0.4907768 2.235174E-08 1.215538
v -1.076142 0.3495121 0.9204941
v -1.117253 0.3114058 1.250008
v -1.151452 7.450581E-09 1.250008
v -1.151452 7.450581E-09 0.6092911
v -1.117253 0.3114058 1.250008
v -1.076142 0.3495121 0.9204941
v -1.000001 0.3495121 0.9204941
v -1.000001 0.3114058 1.250008
v -1.117253 1.264474 -0.859993
v -1.117253 1.243237 -1.25
v -1.000001 1.243237 -1.25
v -1.000001 1.264474 -0.859993
v -1.076142 0.3495121 0.9204941
v -1.117253 1.010234 -0.5007629
v -1.000001 1.010234 -0.5007629
v -1.000001 0.3495121 0.9204941
v 0.9999993 0.3114058 1.250008
v 0.9999993 0.3779868 0.9281464
v 1.073028 0.3779868 0.9281464
v 1.113616 0.3114058 1.250008
v 1.15145 7.450581E-09 1.250008
v 1.113616 0.3114058 1.250008
v 1.073028 0.3779868 0.9281464
v 1.15145 7.450581E-09 0.9132309
v 0.9999993 1.00916 -0.5893326
v 0.9999993 1.176816 -0.7998962
v 1.113616 1.176816 -0.7998962
v 1.113616 1.00916 -0.5893326
v 0.9999993 1.176816 -0.7998962
v 0.9999993 1.243237 -1.25
v 1.113616 1.243237 -1.25
v 1.113616 1.176816 -0.7998962
vt 0.4441057 0.3263041
vt 0.4441057 0.3263041
vt 0.4441057 0.3263041
vt 0.4441057 0.3263041
vt 0.4441057 0.3263041
vt 0.4441057 0.3263041
vt 0.4441057 0.3263041
vt 0.4441057 0.3263041
vt 0.4441057 0.3263041
vt 0.4441057 0.3263041
vt 0.4441057 0.3263041
vt 0.4441057 0.3263041
vt 0.4441057 0.3263041
vt 0.4441057 0.3263041
vt 0.4441057 0.3263041
vt 0.4441057 0.3263041
vt 0.4441057 0.3263041
vt 0.4441057 0.3263041
vt 0.4441057 0.3263041
vt 0.4441057 0.3263041
vt 0.4441057 0.3263041
vt 0.4441057 0.3263041
vt 0.4441057 0.3263041
vt 0.4441057 0.3263041
vt 0.4441057 0.3263041
vt 0.4441057 0.3263041
vt 0.4441057 0.3263041
vt 0.4441057 0.3263041
vt 0.4441057 0.3263041
vt 0.4441057 0.3263041
vt 0.4441057 0.3263041
vt 0.4441057 0.3263041
vt 0.4441057 0.3263041
vt 0.4441057 0.3263041
vt 0.4441057 0.3263041
vt 0.4441057 0.3263041
vt 0.4441057 0.3263041
vt 0.4441057 0.3263041
vt 0.4441057 0.3263041
vt 0.4441057 0.3263041
vt 0.4441057 0.3263041
vt 0.4441057 0.3263041
vt 0.4441057 0.3263041
vt 0.4441057 0.3263041
vt 0.4441057 0.3263041
vt 0.4441057 0.3263041
vt 0.4441057 0.3263041
vt 0.4441057 0.3263041
vt 0.4441057 0.3263041
vt 0.4441057 0.3263041
vt 0.4441057 0.3263041
vt 0.4441057 0.3263041
vt 0.4441057 0.3263041
vt 0.4441057 0.3263041
vt 0.4441057 0.3263041
vt 0.4441057 0.3263041
vt 0.4441057 0.3263041
vt 0.4441057 0.3263041
vt 0.4441057 0.3263041
vt 0.4441057 0.3263041
vt 0.4441057 0.3263041
vt 0.4441057 0.3263041
vt 0.4441057 0.3263041
vt 0.4441057 0.3263041
vt 0.4441057 0.3263041
vt 0.4441057 0.3263041
vt 0.4441057 0.3263041
vt 0.4441057 0.3263041
vt 0.4441057 0.3263041
vt 0.4441057 0.3263041
vt 0.4441057 0.3263041
vt 0.4441057 0.3263041
vt 0.4441057 0.3263041
vt 0.4441057 0.3263041
vt 0.4441057 0.3263041
vt 0.4441057 0.3263041
vt 0.4441057 0.3263041
vt 0.4441057 0.3263041
vt 0.4441057 0.3263041
vt 0.4441057 0.3263041
vt 0.4441057 0.3263041
vt 0.4441057 0.3263041
vt 0.4441057 0.3263041
vt 0.4441057 0.3263041
vt 0.4441057 0.3263041
vt 0.4441057 0.3263041
vt 0.4441057 0.3263041
vt 0.4441057 0.3263041
vt 0.4441057 0.3263041
vt 0.4441057 0.3263041
vt 0.4441057 0.3263041
vt 0.4441057 0.3263041
vt 0.4441057 0.3263041
vt 0.4441057 0.3263041
vt 0.4441057 0.3263041
vt 0.4441057 0.3263041
vt 0.4441057 0.3263041
vt 0.4441057 0.3263041
vt 0.4441057 0.3263041
vt 0.4441057 0.3263041
vt 0.4441057 0.3263041
vt 0.4441057 0.3263041
vt 0.4441057 0.3263041
vt 0.4441057 0.3263041
vt 0.4441057 0.3263041
vt 0.4441057 0.3263041
vt 0.4441057 0.3263041
vt 0.4441057 0.3263041
vt 0.4441057 0.3263041
vt 0.4441057 0.3263041
vt 0.4441057 0.3263041
vt 0.4441057 0.3263041
vt 0.4441057 0.3263041
vt 0.4441057 0.3263041
vt 0.4441057 0.3263041
vt 0.4441057 0.3263041
vt 0.4441057 0.3263041
vt 0.4441057 0.3263041
vt 0.4441057 0.3263041
vt 0.4441057 0.3263041
vt 0.4441057 0.3263041
vt 0.4441057 0.3263041
vt 0.4441057 0.3263041
vt 0.4441057 0.3263041
vt 0.4441057 0.3263041
vt 0.4441057 0.3263041
vt 0.4441057 0.3263041
vt 0.4441057 0.3263041
vt 0.4441057 0.3263041
vt 0.4441057 0.3263041
vt 0.4441057 0.3263041
vt 0.4441057 0.3263041
vt 0.4441057 0.3263041
vt 0.4441057 0.3263041
vt 0.4441057 0.3263041
vt 0.4441057 0.3263041
vt 0.4441057 0.3263041
vt 0.4441057 0.3263041
vt 0.4441057 0.3263041
vt 0.4441057 0.3263041
vt 0.4441057 0.3263041
vt 0.4441057 0.3263041
vt 0.4441057 0.3263041
vt 0.4441057 0.3263041
vt 0.4441057 0.3263041
vt 0.4441057 0.3263041
vt 0.4441057 0.3263041
vt 0.4441057 0.3263041
vt 0.4441057 0.3263041
vt 0.4441057 0.3263041
vt 0.4441057 0.3263041
vt 0.4441057 0.3263041
vt 0.4441057 0.3263041
vt 0.4441057 0.3263041
vt 0.4441057 0.3263041
vt 0.4441057 0.3263041
vt 0.4441057 0.3263041
vt 0.4441057 0.3263041
vt 0.4441057 0.3263041
vt 0.4441057 0.3263041
vt 0.4441057 0.3263041
vt 0.4441057 0.3263041
vt 0.4441057 0.3263041
vt 0.4441057 0.3263041
vt 0.4441057 0.3263041
vt 0.4441057 0.3263041
vt 0.4441057 0.3263041
vt 0.4441057 0.3263041
vt 0.4441057 0.3263041
vt 0.4441057 0.3263041
vt 0.4441057 0.3263041
vt 0.4441057 0.3263041
vt 0.4441057 0.3263041
vt 0.4441057 0.3263041
vt 0.4441057 0.3263041
vt 0.4441057 0.3263041
vt 0.4441057 0.3263041
vt 0.4441057 0.3263041
vt 0.4441057 0.3263041
vt 0.4441057 0.3263041
vt 0.4441057 0.3263041
vt 0.4441057 0.3263041
vt 0.4441057 0.3263041
vt 0.4441057 0.3263041
vt 0.4441057 0.3263041
vt 0.4441057 0.3263041
vt 0.4441057 0.3263041
vt 0.4441057 0.3263041
vt 0.4441057 0.3263041
vt 0.4441057 0.3263041
vt 0.4441057 0.3263041
vt 0.4441057 0.3263041
vt 0.4441057 0.3263041
vt 0.4441057 0.3263041
vt 0.4441057 0.3263041
vt 0.4441057 0.3263041
vt 0.4441057 0.3263041
vt 0.4441057 0.3263041
vt 0.4441057 0.3263041
vt 0.4441057 0.3263041
vt 0.4441057 0.3263041
vt 0.4441057 0.3263041
vt 0.4441057 0.3263041
vt 0.4441057 0.3263041
vt 0.4441057 0.3263041
vt 0.4441057 0.3263041
vt 0.4441057 0.3263041
vt 0.4441057 0.3263041
vt 0.4441057 0.3263041
vt 0.4441057 0.3263041
vt 0.4441057 0.3263041
vt 0.4441057 0.3263041
vt 0.4441057 0.3263041
vt 0.4441057 0.3263041
vt 0.4441057 0.3263041
vt 0.4441057 0.3263041
vt 0.4441057 0.3263041
vt 0.4441057 0.3263041
vt 0.4441057 0.3263041
vt 0.4441057 0.3263041
vt 0.4441057 0.3263041
vt 0.4441057 0.3263041
vt 0.4441057 0.3263041
vt 0.4441057 0.3263041
vt 0.4441057 0.3263041
vt 0.4441057 0.3263041
vt 0.4441057 0.3263041
vt 0.4441057 0.3263041
vt 0.4441057 0.3263041
vt 0.4441057 0.3263041
vt 0.4441057 0.3263041
vt 0.4441057 0.3263041
vt 0.4441057 0.3263041
vt 0.4441057 0.3263041
vt 0.4441057 0.3263041
vt 0.4441057 0.3263041
vt 0.4441057 0.3263041
vt 0.4441057 0.3263041
vt 0.4441057 0.3263041
vt 0.4441057 0.3263041
vt 0.4441057 0.3263041
vt 0.4441057 0.3263041
vt 0.4441057 0.3263041
vt 0.4441057 0.3263041
vt 0.4441057 0.3263041
vt 0.4441057 0.3263041
vt 0.4441057 0.3263041
vt 0.4441057 0.3263041
vt 0.4441057 0.3263041
vt 0.4441057 0.3263041
vt 0.4441057 0.3263041
vt 0.4441057 0.3263041
vt 0.4441057 0.3263041
vt 0.4441057 0.3263041
vt 0.4441057 0.3263041
vt 0.4441057 0.3263041
vt 0.4441057 0.3263041
vt 0.4441057 0.3263041
vt 0.4441057 0.3263041
vt 0.4441057 0.3263041
vt 0.4441057 0.3263041
vt 0.4441057 0.3263041
vt 0.4441057 0.3263041
vt 0.4441057 0.3263041
vt 0.4441057 0.3263041
vt 0.4441057 0.3263041
vt 0.4441057 0.3263041
vt 0.4441057 0.3263041
vt 0.4441057 0.3263041
vt 0.4441057 0.3263041
vt 0.4441057 0.3263041
vt 0.4441057 0.3263041
vt 0.4441057 0.3263041
vt 0.4441057 0.3263041
vt 0.4441057 0.3263041
vt 0.4441057 0.3263041
vt 0.4441057 0.3263041
vt 0.4441057 0.3263041
vt 0.4441057 0.3263041
vt 0.4441057 0.3263041
vt 0.4441057 0.3263041
vt 0.4441057 0.3263041
vt 0.4441057 0.3263041
vt 0.4441057 0.3263041
vt 0.4441057 0.3263041
vt 0.4441057 0.3263041
vt 0.4441057 0.3263041
vt 0.4441057 0.3263041
vn 0.006488552 0.9992625 -0.03784787
vn 0 1 0
vn 0 1 0
vn 0.006488552 0.9992625 -0.03784787
vn -0.01116194 0.997718 -0.06658932
vn -0.01116194 0.997718 -0.06658932
vn -0.03528401 0.9977221 -0.05749447
vn -0.03528401 0.9977221 -0.05749447
vn 0 0 -1
vn 0 0 -1
vn 1.833803E-05 0 -1
vn 0 0 -1
vn 0 0 -1
vn 0 0 -1
vn -1.49824E-05 0 -1
vn 0 0 -1
vn 0 0 -1
vn 0 0 -1
vn 0 0 -1
vn 0 0 -1
vn 0 0 -1
vn 0 0 -1
vn 0.003172916 0.9962283 0.08671305
vn 0.03433047 0.9978527 0.05577845
vn 0.03433047 0.9978527 0.05577845
vn 0.003172916 0.9962283 0.08671305
vn -0.02799077 0.9926807 0.1174802
vn -0.02799077 0.9926807 0.1174802
vn 0.009385245 0.999942 0.005284159
vn -0.009229682 0.9998506 -0.01461893
vn -0.009229682 0.9998506 -0.01461893
vn 0.009385245 0.999942 0.005284159
vn -0.00672496 0.9992741 0.03749679
vn -0.00672496 0.9992741 0.03749679
vn -0.041434 0.9979014 0.04975937
vn -0.041434 0.9979014 0.04975937
vn -0.00514686 0.9999452 -0.009117341
vn -0.01060442 0.9997981 -0.01706813
vn -0.01060442 0.9997981 -0.01706813
vn -0.00514686 0.9999452 -0.009117341
vn 0.005990876 0.999949 0.00813605
vn 0.005990876 0.999949 0.00813605
vn 0.01166987 0.9997798 0.01743683
vn 0.01166987 0.9997798 0.01743683
vn -0.009336441 0.9993166 0.03576444
vn -0.02782492 0.9990807 0.03261051
vn -0.02782492 0.9990807 0.03261051
vn -0.009336441 0.9993166 0.03576444
vn 0.004578576 0.9998002 0.01945677
vn 0.004578576 0.9998002 0.01945677
vn 0 1 0
vn 0 1 0
vn 0.08151134 0.990747 -0.1085189
vn 0.08151134 0.990747 -0.1085189
vn 0.08151134 0.990747 -0.1085189
vn 0.08151134 0.990747 -0.1085189
vn -0.02561807 0.9990898 0.03410662
vn -0.02561807 0.9990898 0.03410662
vn -0.02561807 0.9990898 0.03410662
vn -0.02561807 0.9990898 0.03410662
vn 0.001595872 0.9999616 0.008616652
vn 0 1 0
vn 0 1 0
vn 0.001595872 0.9999616 0.008616652
vn -0.000940792 0.9998854 0.01510607
vn -0.000940792 0.9998854 0.01510607
vn -0.005073186 0.9999029 0.01297917
vn -0.005073186 0.9999029 0.01297917
vn -0.1478941 0.245328 0.9580926
vn -0.1478941 0.245328 0.9580926
vn -0.1478941 0.245328 0.9580926
vn -0.1478941 0.245328 0.9580926
vn -0.05617307 0.2253409 0.9726593
vn -0.05617307 0.2253409 0.9726593
vn -0.05617307 0.2253409 0.9726593
vn -0.05617307 0.2253409 0.9726593
vn -0.2111062 0.2967227 0.9313376
vn -0.2111062 0.2967227 0.9313376
vn -0.2111062 0.2967227 0.9313376
vn -0.2111062 0.2967227 0.9313376
vn -0.1820497 0.273209 0.9445712
vn -0.1820497 0.273209 0.9445712
vn -0.1820497 0.273209 0.9445712
vn -0.1820497 0.273209 0.9445712
vn -0.1928573 0.2819735 0.9398389
vn -0.1928573 0.2819735 0.9398389
vn -0.1928573 0.2819735 0.9398389
vn -0.1928573 0.2819735 0.9398389
vn -0.06639224 0.1932441 0.9789019
vn -0.06639224 0.1932441 0.9789019
vn -0.06639224 0.1932441 0.9789019
vn -0.06639224 0.1932441 0.9789019
vn -0.05890901 0.1714105 0.9834369
vn -0.05890901 0.1714105 0.9834369
vn -0.05890901 0.1714105 0.9834369
vn -0.05890901 0.1714105 0.9834369
vn -0.06366719 0.1853123 0.980615
vn -0.06366719 0.1853123 0.980615
vn -0.06366719 0.1853123 0.980615
vn -0.06366719 0.1853123 0.980615
vn 0 0 1
vn 0 0 1
vn 0 0 1
vn 0 0 1
vn 0 0.8162539 0.5776934
vn 0 0.8162539 0.5776934
vn 0 0.8162539 0.5776934
vn 0 0.8162539 0.5776934
vn 0 -1 0
vn 0 -1 0
vn 0 -1 0
vn 0 -1 0
vn 0 -1 0
vn 0 -1 0
vn 0 -1 0
vn 0 -1 0
vn 0 -1 0
vn 0 -1 0
vn 1 0 0
vn 1 0 0
vn 1 0 0
vn 1 0 0
vn 1 0 0
vn 1 0 0
vn 1 0 0
vn 1 0 0
vn 1 0 0
vn 1 0 0
vn -0.9995581 0.02952805 0.003419657
vn -0.9979318 0.0583297 0.02701498
vn -0.9979318 0.0583297 0.02701498
vn -0.9995581 0.02952805 0.003419657
vn -0.9996286 0.02724152 -0.0006670174
vn -0.9996286 0.02724152 -0.0006670174
vn -0.9953141 0.08478212 0.04649436
vn -0.9953141 0.08478212 0.04649436
vn 0 0 1
vn 0 0 1
vn 0 0 1
vn 0 0 1
vn 0 0.9233165 0.3840399
vn 0 0.9233165 0.3840399
vn 0 0.9233165 0.3840399
vn 0 0.9233165 0.3840399
vn 0 -1 0
vn 0 -1 0
vn 0 -1 0
vn 0 -1 0
vn 0 -1 0
vn 0 -1 0
vn 0 -1 0
vn 0 -1 0
vn 0 -1 0
vn 0 -1 0
vn 0.9937406 0.1027013 0.04395469
vn 0.9972811 0.06941666 0.02473371
vn 0.9972811 0.06941666 0.02473371
vn 0.9937406 0.1027013 0.04395469
vn 0.9994271 0.03361289 0.003962771
vn 0.9994271 0.03361289 0.003962771
vn 0.9995102 0.03119692 0.002449628
vn 0.9995102 0.03119692 0.002449628
vn -1 0 0
vn -1 0 0
vn -1 0 0
vn -1 0 0
vn -1 0 0
vn -1 0 0
vn -1 0 0
vn -1 0 0
vn -1 0 0
vn -1 0 0
vn 0.1025314 0.2116073 0.9719617
vn 0.1025314 0.2116073 0.9719617
vn 0.1025314 0.2116073 0.9719617
vn 0.1025314 0.2116073 0.9719617
vn 0.1230294 0.2479609 0.9609262
vn 0.1230294 0.2479609 0.9609262
vn 0.1230294 0.2479609 0.9609262
vn 0.1230294 0.2479609 0.9609262
vn 0.1451652 0.2797469 0.9490357
vn 0.1451652 0.2797469 0.9490357
vn 0.1451652 0.2797469 0.9490357
vn 0.1451652 0.2797469 0.9490357
vn 0.004103198 0.9999529 -0.008796991
vn 0.004103198 0.9999529 -0.008796991
vn 0.004103198 0.9999529 -0.008796991
vn 0.004103198 0.9999529 -0.008796991
vn 0.07103475 0.2530643 0.9648381
vn 0.07103475 0.2530643 0.9648381
vn 0.07103475 0.2530643 0.9648381
vn 0.07103475 0.2530643 0.9648381
vn 0.01509211 0.9995836 0.02459285
vn 0.01509211 0.9995836 0.02459285
vn 0.01509211 0.9995836 0.02459285
vn 0.01509211 0.9995836 0.02459285
vn 0.1987005 0.3253454 0.9244828
vn 0.1987005 0.3253454 0.9244828
vn 0.1987005 0.3253454 0.9244828
vn 0.1987005 0.3253454 0.9244828
vn -0.07073909 0.9904324 -0.1184891
vn -0.07073909 0.9904324 -0.1184891
vn -0.07073909 0.9904324 -0.1184891
vn -0.07073909 0.9904324 -0.1184891
vn 0.03237592 0.155223 0.9873488
vn 0.03237592 0.155223 0.9873488
vn 0.03237592 0.155223 0.9873488
vn 0.03237592 0.155223 0.9873488
vn 0.1248348 0.2497857 0.9602205
vn 0.1248348 0.2497857 0.9602205
vn 0.1248348 0.2497857 0.9602205
vn 0.1248348 0.2497857 0.9602205
vn 0.1386551 0.2637705 0.9545679
vn 0.1386551 0.2637705 0.9545679
vn 0.1386551 0.2637705 0.9545679
vn 0.1386551 0.2637705 0.9545679
vn 0.02993171 0.4388069 0.8980827
vn 0.02993171 0.4388069 0.8980827
vn 0.02993171 0.4388069 0.8980827
vn 0.02993171 0.4388069 0.8980827
vn 0.003776927 0.4652936 0.8851483
vn 0.003776927 0.4652936 0.8851483
vn 0.003776927 0.4652936 0.8851483
vn 0.003776927 0.4652936 0.8851483
vn -0.04870242 0.4465163 0.8934491
vn -0.04870242 0.4465163 0.8934491
vn -0.04870242 0.4465163 0.8934491
vn -0.04870242 0.4465163 0.8934491
vn -0.03148026 0.9893022 -0.1424433
vn -0.03148026 0.9893022 -0.1424433
vn -0.03148026 0.9893022 -0.1424433
vn -0.03148026 0.9893022 -0.1424433
vn -0.01970088 0.4257303 0.9046357
vn -0.01970088 0.4257303 0.9046357
vn -0.01970088 0.4257303 0.9046357
vn -0.01970088 0.4257303 0.9046357
vn -0.07672191 0.5002037 0.8625022
vn -0.07672191 0.5002037 0.8625022
vn -0.07672191 0.5002037 0.8625022
vn -0.07672191 0.5002037 0.8625022
vn 0.03541216 0.9931406 -0.1114347
vn 0.03541216 0.9931406 -0.1114347
vn 0.03541216 0.9931406 -0.1114347
vn 0.03541216 0.9931406 -0.1114347
vn 0.08065309 0.4084307 0.9092191
vn 0.08065309 0.4084307 0.9092191
vn 0.08065309 0.4084307 0.9092191
vn 0.08065309 0.4084307 0.9092191
vn -0.03924914 0.4059898 0.9130344
vn -0.03924914 0.4059898 0.9130344
vn -0.03924914 0.4059898 0.9130344
vn -0.03924914 0.4059898 0.9130344
vn 0.005035901 0.4922809 0.8704218
vn 0.005035901 0.4922809 0.8704218
vn 0.005035901 0.4922809 0.8704218
vn 0.005035901 0.4922809 0.8704218
vn -0.9832014 0.1792105 -0.03462203
vn -0.9832014 0.1792105 -0.03462203
vn -0.9832014 0.1792105 -0.03462203
vn -0.9832014 0.1792105 -0.03462203
vn 0 0.9933795 0.1148786
vn 0 0.9933795 0.1148786
vn 0 0.9933795 0.1148786
vn 0 0.9933795 0.1148786
vn 0 0.9985207 -0.05437266
vn 0 0.9985207 -0.05437266
vn 0 0.9985207 -0.05437266
vn 0 0.9985207 -0.05437266
vn 0 0.9068012 0.4215586
vn 0 0.9068012 0.4215586
vn 0 0.9068012 0.4215586
vn 0 0.9068012 0.4215586
vn 0 0.979267 0.2025738
vn 0 0.979267 0.2025738
vn 0 0.979267 0.2025738
vn 0 0.979267 0.2025738
vn 0.9849744 0.1670505 -0.0438118
vn 0.9849744 0.1670505 -0.0438118
vn 0.9849744 0.1670505 -0.0438118
vn 0.9849744 0.1670505 -0.0438118
vn 0 0.7823067 0.6228935
vn 0 0.7823067 0.6228935
vn 0 0.7823067 0.6228935
vn 0 0.7823067 0.6228935
vn 0 0.9892865 0.1459868
vn 0 0.9892865 0.1459868
vn 0 0.9892865 0.1459868
vn 0 0.9892865 0.1459868
g SM_Bld_Block_Stairs_01_0
f 3/3/3 2/2/2 1/1/1
f 4/4/4 3/3/3 1/1/1
f 4/4/4 1/1/1 5/5/5
f 6/6/6 4/4/4 5/5/5
f 6/6/6 5/5/5 7/7/7
f 5/5/5 8/8/8 7/7/7
f 11/11/11 10/10/10 9/9/9
f 12/12/12 11/11/11 9/9/9
f 12/12/12 9/9/9 13/13/13
f 14/14/14 12/12/12 13/13/13
f 14/14/14 13/13/13 15/15/15
f 13/13/13 16/16/16 15/15/15
f 16/16/16 18/18/18 17/17/17
f 19/19/19 16/16/16 17/17/17
f 21/21/21 10/10/10 20/20/20
f 22/22/22 21/21/21 20/20/20
f 25/25/25 24/24/24 23/23/23
f 26/26/26 25/25/25 23/23/23
f 26/26/26 23/23/23 27/27/27
f 28/28/28 26/26/26 27/27/27
f 31/31/31 30/30/30 29/29/29
f 32/32/32 31/31/31 29/29/29
f 32/32/32 29/29/29 33/33/33
f 34/34/34 32/32/32 33/33/33
f 34/34/34 33/33/33 35/35/35
f 33/33/33 36/36/36 35/35/35
f 39/39/39 38/38/38 37/37/37
f 40/40/40 39/39/39 37/37/37
f 40/40/40 37/37/37 41/41/41
f 42/42/42 40/40/40 41/41/41
f 42/42/42 41/41/41 43/43/43
f 41/41/41 44/44/44 43/43/43
f 47/47/47 46/46/46 45/45/45
f 48/48/48 47/47/47 45/45/45
f 48/48/48 45/45/45 49/49/49
f 50/50/50 48/48/48 49/49/49
f 50/50/50 49/49/49 51/51/51
f 49/49/49 52/52/52 51/51/51
f 55/55/55 54/54/54 53/53/53
f 56/56/56 55/55/55 53/53/53
f 59/59/59 58/58/58 57/57/57
f 60/60/60 59/59/59 57/57/57
f 63/63/63 62/62/62 61/61/61
f 64/64/64 63/63/63 61/61/61
f 64/64/64 61/61/61 65/65/65
f 66/66/66 64/64/64 65/65/65
f 66/66/66 65/65/65 67/67/67
f 65/65/65 68/68/68 67/67/67
f 71/71/71 70/70/70 69/69/69
f 72/72/72 71/71/71 69/69/69
f 75/75/75 74/74/74 73/73/73
f 76/76/76 75/75/75 73/73/73
f 79/79/79 78/78/78 77/77/77
f 80/80/80 79/79/79 77/77/77
f 83/83/83 82/82/82 81/81/81
f 84/84/84 83/83/83 81/81/81
f 87/87/87 86/86/86 85/85/85
f 88/88/88 87/87/87 85/85/85
f 91/91/91 90/90/90 89/89/89
f 92/92/92 91/91/91 89/89/89
f 95/95/95 94/94/94 93/93/93
f 96/96/96 95/95/95 93/93/93
f 99/99/99 98/98/98 97/97/97
f 100/100/100 99/99/99 97/97/97
f 103/103/103 102/102/102 101/101/101
f 104/104/104 103/103/103 101/101/101
f 107/107/107 106/106/106 105/105/105
f 108/108/108 107/107/107 105/105/105
f 111/111/111 110/110/110 109/109/109
f 112/112/112 111/111/111 109/109/109
f 112/112/112 109/109/109 113/113/113
f 114/114/114 112/112/112 113/113/113
f 111/111/111 115/115/115 110/110/110
f 115/115/115 116/116/116 110/110/110
f 115/115/115 117/117/117 116/116/116
f 117/117/117 118/118/118 116/116/116
f 121/121/121 120/120/120 119/119/119
f 122/122/122 121/121/121 119/119/119
f 121/121/121 123/123/123 120/120/120
f 123/123/123 124/124/124 120/120/120
f 122/122/122 119/119/119 125/125/125
f 126/126/126 122/122/122 125/125/125
f 126/126/126 125/125/125 127/127/127
f 125/125/125 128/128/128 127/127/127
f 131/131/131 130/130/130 129/129/129
f 132/132/132 131/131/131 129/129/129
f 132/132/132 129/129/129 133/133/133
f 129/129/129 134/134/134 133/133/133
f 131/131/131 135/135/135 130/130/130
f 135/135/135 136/136/136 130/130/130
f 139/139/139 138/138/138 137/137/137
f 140/140/140 139/139/139 137/137/137
f 143/143/143 142/142/142 141/141/141
f 144/144/144 143/143/143 141/141/141
f 147/147/147 146/146/146 145/145/145
f 148/148/148 147/147/147 145/145/145
f 147/147/147 149/149/149 146/146/146
f 149/149/149 150/150/150 146/146/146
f 148/148/148 145/145/145 151/151/151
f 152/152/152 148/148/148 151/151/151
f 152/152/152 151/151/151 153/153/153
f 154/154/154 152/152/152 153/153/153
f 157/157/157 156/156/156 155/155/155
f 158/158/158 157/157/157 155/155/155
f 157/157/157 159/159/159 156/156/156
f 159/159/159 160/160/160 156/156/156
f 159/159/159 161/161/161 160/160/160
f 161/161/161 162/162/162 160/160/160
f 165/165/165 164/164/164 163/163/163
f 166/166/166 165/165/165 163/163/163
f 165/165/165 167/167/167 164/164/164
f 167/167/167 168/168/168 164/164/164
f 166/166/166 163/163/163 169/169/169
f 170/170/170 166/166/166 169/169/169
f 170/170/170 169/169/169 171/171/171
f 169/169/169 172/172/172 171/171/171
f 175/175/175 174/174/174 173/173/173
f 176/176/176 175/175/175 173/173/173
f 179/179/179 178/178/178 177/177/177
f 180/180/180 179/179/179 177/177/177
f 183/183/183 182/182/182 181/181/181
f 184/184/184 183/183/183 181/181/181
f 187/187/187 186/186/186 185/185/185
f 188/188/188 187/187/187 185/185/185
f 191/191/191 190/190/190 189/189/189
f 192/192/192 191/191/191 189/189/189
f 195/195/195 194/194/194 193/193/193
f 196/196/196 195/195/195 193/193/193
f 199/199/199 198/198/198 197/197/197
f 200/200/200 199/199/199 197/197/197
f 203/203/203 202/202/202 201/201/201
f 204/204/204 203/203/203 201/201/201
f 207/207/207 206/206/206 205/205/205
f 208/208/208 207/207/207 205/205/205
f 211/211/211 210/210/210 209/209/209
f 212/212/212 211/211/211 209/209/209
f 215/215/215 214/214/214 213/213/213
f 216/216/216 215/215/215 213/213/213
f 219/219/219 218/218/218 217/217/217
f 220/220/220 219/219/219 217/217/217
f 223/223/223 222/222/222 221/221/221
f 224/224/224 223/223/223 221/221/221
f 227/227/227 226/226/226 225/225/225
f 228/228/228 227/227/227 225/225/225
f 231/231/231 230/230/230 229/229/229
f 232/232/232 231/231/231 229/229/229
f 235/235/235 234/234/234 233/233/233
f 236/236/236 235/235/235 233/233/233
f 239/239/239 238/238/238 237/237/237
f 240/240/240 239/239/239 237/237/237
f 243/243/243 242/242/242 241/241/241
f 244/244/244 243/243/243 241/241/241
f 247/247/247 246/246/246 245/245/245
f 248/248/248 247/247/247 245/245/245
f 251/251/251 250/250/250 249/249/249
f 252/252/252 251/251/251 249/249/249
f 255/255/255 254/254/254 253/253/253
f 256/256/256 255/255/255 253/253/253
f 259/259/259 258/258/258 257/257/257
f 260/260/260 259/259/259 257/257/257
f 263/263/263 262/262/262 261/261/261
f 264/264/264 263/263/263 261/261/261
f 267/267/267 266/266/266 265/265/265
f 268/268/268 267/267/267 265/265/265
f 271/271/271 270/270/270 269/269/269
f 272/272/272 271/271/271 269/269/269
f 275/275/275 274/274/274 273/273/273
f 276/276/276 275/275/275 273/273/273
f 279/279/279 278/278/278 277/277/277
f 280/280/280 279/279/279 277/277/277
f 283/283/283 282/282/282 281/281/281
f 284/284/284 283/283/283 281/281/281
f 287/287/287 286/286/286 285/285/285
f 288/288/288 287/287/287 285/285/285
