g SM_Bld_Block_01
v -0.1006248 1.025161 0.05456543
v -0.004299879 1.025161 -0.004295349
v -0.05640864 1.007745 -0.05640411
v -0.1487014 1.007745 0
v -7.152557E-07 1.25 -1.292198
v -0.0427711 1.236595 -1.248383
v -0.1863868 1.267337 -1.24839
v -0.1487052 1.282335 -1.292198
v -0.1487052 1.007745 -2.5
v -0.05640864 1.007745 -2.443596
v -0.004299879 1.025161 -2.495705
v -0.100621 1.025161 -2.554565
v -0.0427711 0 -1.24839
v -7.152557E-07 0 -1.292198
v -0.1487014 0 -1.248383
v -7.152557E-07 0 -1.204391
v -7.152557E-07 0 -0.1512756
v -0.1487014 0 -0.1512756
v -0.1487014 0 0
v -0.05640864 0 -0.05640411
v -0.1487014 0 -2.345383
v -7.152557E-07 0 -2.34539
v -0.1487014 0 -2.5
v -0.05640864 0 -2.443596
v -1.213139 0 -2.5
v -1.252335 0 -2.345383
v -1.252335 0 -2.45723
v -1.291829 0 -2.5
v -2.356137 0 -2.345383
v -2.356137 0 -1.248383
v -2.500001 0 -2.34539
v -2.443593 0 -2.443596
v -2.356137 0 -2.5
v -2.500001 0 -1.292198
v -2.45723 0 -1.24839
v -2.500001 0 -1.204391
v -2.356137 0 -0.1512756
v -2.500001 0 -0.1512756
v -2.356137 0 0
v -2.443593 0 -0.05640411
v -1.252415 0 -1.248344
v -1.252335 0 -0.1512756
v -1.291829 0 0
v -1.252335 0 -0.04277039
v -1.213139 0 0
v 0.009928942 1.022828 -1.248337
v 0.05456853 1.025161 -1.29409
v -7.152557E-07 1.007745 -1.292198
v -0.0427711 1.006269 -1.248383
v -2.554566 1.025161 -1.294083
v -2.509927 1.022828 -1.248322
v -2.45723 1.006269 -1.24839
v -2.500001 1.007745 -1.292198
v -2.500001 1.007745 -1.292198
v -2.45723 1.006269 -1.24839
v -2.45723 0 -1.24839
v -2.500001 0 -1.292198
v -0.1487014 1.007745 0
v -0.05640864 1.007745 -0.05640411
v -0.05640864 0 -0.05640411
v -0.1487014 0 0
v -0.0427711 1.006269 -1.248383
v -7.152557E-07 1.007745 -1.292198
v -7.152557E-07 0 -1.292198
v -0.0427711 0 -1.24839
v -0.1487014 0 -2.5
v -0.05640864 0 -2.443596
v -0.05640864 1.007745 -2.443596
v -0.1487052 1.007745 -2.5
v -0.1006248 1.11175 0.05456543
v -0.004299879 1.111749 -0.004295349
v -0.004299879 1.025161 -0.004295349
v -0.1006248 1.025161 0.05456543
v -2.554566 1.111749 -1.294083
v -2.509927 1.105152 -1.248322
v -2.509927 1.022828 -1.248322
v -2.554566 1.025161 -1.294083
v -0.100621 1.025161 -2.554565
v -0.004299879 1.025161 -2.495705
v -0.004299879 1.111749 -2.495705
v -0.100621 1.111749 -2.554565
v 0.009928942 1.105152 -1.248337
v 0.05456853 1.111749 -1.29409
v 0.05456853 1.025161 -1.29409
v 0.009928942 1.022828 -1.248337
v -0.1006248 1.140991 0.05456543
v -0.004299879 1.140991 -0.004295349
v -0.03247523 1.124357 -0.03247833
v -0.126622 1.124357 0.02506256
v -2.554566 1.140991 -1.294083
v -2.509927 1.132953 -1.248322
v -2.481435 1.117138 -1.24836
v -2.525063 1.124357 -1.293068
v -0.126622 1.124357 -2.525063
v -0.03247523 1.124357 -2.467522
v -0.004299879 1.140991 -2.495705
v -0.100621 1.140991 -2.554565
v 0.009928942 1.132953 -1.248337
v 0.05456853 1.140991 -1.29409
v 0.02506185 1.124357 -1.293068
v -0.01856685 1.117138 -1.24836
v -0.1006248 1.226262 0.05456543
v -0.004299879 1.226262 -0.004295349
v -0.004299879 1.140991 -0.004295349
v -0.1006248 1.140991 0.05456543
v -2.554566 1.226262 -1.294083
v -2.509927 1.214025 -1.248322
v -2.509927 1.132953 -1.248322
v -2.554566 1.140991 -1.294083
v -0.100621 1.140991 -2.554565
v -0.004299879 1.140991 -2.495705
v -0.004299879 1.226262 -2.495705
v -0.100621 1.226262 -2.554565
v 0.009928942 1.214025 -1.248337
v 0.05456853 1.226262 -1.29409
v 0.05456853 1.140991 -1.29409
v 0.009928942 1.132953 -1.248337
v -2.525063 1.124357 -1.293068
v -2.481435 1.117138 -1.24836
v -2.509927 1.105152 -1.248322
v -2.554566 1.111749 -1.294083
v -0.126622 1.124357 0.02506256
v -0.03247523 1.124357 -0.03247833
v -0.004299879 1.111749 -0.004295349
v -0.1006248 1.11175 0.05456543
v -0.01856685 1.117138 -1.24836
v 0.02506185 1.124357 -1.293068
v 0.05456853 1.111749 -1.29409
v 0.009928942 1.105152 -1.248337
v -0.100621 1.111749 -2.554565
v -0.004299879 1.111749 -2.495705
v -0.03247523 1.124357 -2.467522
v -0.126622 1.124357 -2.525063
v -0.1487052 1.25 0
v -0.05640864 1.25 -0.05640411
v -0.004299879 1.226262 -0.004295349
v -0.1006248 1.226262 0.05456543
v -2.500001 1.25 -1.292198
v -2.45723 1.236595 -1.248383
v -2.509927 1.214025 -1.248322
v -2.554566 1.226262 -1.294083
v -0.100621 1.226262 -2.554565
v -0.004299879 1.226262 -2.495705
v -0.05640864 1.25 -2.443596
v -0.1487052 1.25 -2.5
v -0.0427711 1.236595 -1.248383
v -7.152557E-07 1.25 -1.292198
v 0.05456853 1.226262 -1.29409
v 0.009928942 1.214025 -1.248337
v -1.252339 1.006269 -2.45723
v -1.213143 1.007745 -2.5
v -1.211457 1.025161 -2.554565
v -1.252431 1.022828 -2.509926
v -1.252431 1.022828 -2.509926
v -1.211457 1.025161 -2.554565
v -1.211457 1.111749 -2.554565
v -1.252431 1.105152 -2.509926
v -1.252431 1.105152 -2.509926
v -1.211457 1.111749 -2.554565
v -1.212365 1.124357 -2.525063
v -1.252381 1.117138 -2.481438
v -1.252381 1.117138 -2.481438
v -1.212365 1.124357 -2.525063
v -1.211457 1.140991 -2.554565
v -1.252431 1.132953 -2.509926
v -1.252431 1.132953 -2.509926
v -1.211457 1.140991 -2.554565
v -1.211457 1.226262 -2.554565
v -1.252431 1.214025 -2.509926
v -1.252431 1.214025 -2.509926
v -1.211457 1.226262 -2.554565
v -1.213143 1.25 -2.5
v -1.252339 1.236595 -2.45723
v -1.214402 1.267337 -1.24839
v -1.252339 1.267337 -1.24839
v -1.252339 1.267337 -1.290756
v -1.139935 1.282336 -1.373886
v -0.1487052 1.282335 -2.34539
v -0.1487052 1.282335 -1.292198
v -1.213143 1.282335 -2.34539
v -1.252339 1.236595 -0.04277039
v -1.213143 1.25 0
v -1.211461 1.226262 0.05456543
v -1.252434 1.214025 0.009925842
v -1.252434 1.214025 0.009925842
v -1.211461 1.226262 0.05456543
v -1.211461 1.140991 0.05456543
v -1.252434 1.132953 0.009925842
v -1.252434 1.132953 0.009925842
v -1.211461 1.140991 0.05456543
v -1.212365 1.124357 0.02506256
v -1.252381 1.117138 -0.01856232
v -1.252381 1.117138 -0.01856232
v -1.212365 1.124357 0.02506256
v -1.211461 1.111749 0.05456543
v -1.252434 1.105152 0.009925842
v -1.252434 1.105152 0.009925842
v -1.211461 1.111749 0.05456543
v -1.211461 1.025161 0.05456543
v -1.252434 1.022828 0.009925842
v -1.252434 1.022828 0.009925842
v -1.211461 1.025161 0.05456543
v -1.213139 1.007745 0
v -1.252335 1.006269 -0.04277039
v -1.252335 1.006269 -0.04277039
v -1.213139 1.007745 0
v -1.213139 0 0
v -1.252335 0 -0.04277039
v -1.252335 0 -2.45723
v -1.213139 0 -2.5
v -1.213143 1.007745 -2.5
v -1.252339 1.006269 -2.45723
v -2.495698 1.025161 -2.495705
v -2.443593 1.007745 -2.443596
v -2.356137 1.007745 -2.5
v -2.404416 1.025161 -2.554565
v -2.495698 1.111749 -2.495705
v -2.495698 1.025161 -2.495705
v -2.404416 1.025161 -2.554565
v -2.404416 1.111749 -2.554565
v -2.467526 1.124357 -2.467522
v -2.495698 1.111749 -2.495705
v -2.404416 1.111749 -2.554565
v -2.378308 1.124357 -2.525063
v -2.495698 1.140991 -2.495705
v -2.467526 1.124357 -2.467522
v -2.378308 1.124357 -2.525063
v -2.404416 1.140991 -2.554565
v -2.495698 1.226262 -2.495705
v -2.495698 1.140991 -2.495705
v -2.404416 1.140991 -2.554565
v -2.404416 1.226262 -2.554565
v -2.443593 1.25 -2.443596
v -2.495698 1.226262 -2.495705
v -2.404416 1.226262 -2.554565
v -2.356137 1.25 -2.5
v -2.45723 1.236595 -1.248383
v -2.500001 1.25 -1.292198
v -2.356137 1.282335 -1.292198
v -2.318288 1.267337 -1.24839
v -2.495698 1.226262 -0.004295349
v -2.443593 1.25 -0.05640411
v -2.356137 1.25 0
v -2.404416 1.226262 0.05456543
v -2.443593 1.25 -0.05640411
v -2.356137 1.282335 -0.1512756
v -2.500001 1.25 -0.1512756
v -2.495698 1.226262 -0.004295349
v -2.554566 1.226262 -0.1033173
v -2.495698 1.140991 -0.004295349
v -2.495698 1.226262 -0.004295349
v -2.404416 1.226262 0.05456543
v -2.404416 1.140991 0.05456543
v -2.467526 1.124357 -0.03247833
v -2.495698 1.140991 -0.004295349
v -2.404416 1.140991 0.05456543
v -2.378308 1.124357 0.02506256
v -2.495698 1.111749 -0.004295349
v -2.467526 1.124357 -0.03247833
v -2.378308 1.124357 0.02506256
v -2.404416 1.111749 0.05456543
v -2.495698 1.025161 -0.004295349
v -2.495698 1.111749 -0.004295349
v -2.404416 1.111749 0.05456543
v -2.404416 1.025161 0.05456543
v -2.443593 1.007745 -0.05640411
v -2.495698 1.025161 -0.004295349
v -2.404416 1.025161 0.05456543
v -2.356137 1.007745 0
v -2.443593 0 -0.05640411
v -2.443593 1.007745 -0.05640411
v -2.356137 1.007745 0
v -2.356137 0 0
v -2.443593 1.007745 -2.443596
v -2.443593 0 -2.443596
v -2.356137 0 -2.5
v -2.356137 1.007745 -2.5
v -2.500001 1.007745 -0.1512756
v -2.443593 1.007745 -0.05640411
v -2.443593 0 -0.05640411
v -2.500001 0 -0.1512756
v -2.554566 1.025161 -0.1033173
v -2.495698 1.025161 -0.004295349
v -2.443593 1.007745 -0.05640411
v -2.500001 1.007745 -0.1512756
v -2.554566 1.11175 -0.1033173
v -2.495698 1.111749 -0.004295349
v -2.495698 1.025161 -0.004295349
v -2.554566 1.025161 -0.1033173
v -2.525063 1.124357 -0.1292496
v -2.467526 1.124357 -0.03247833
v -2.495698 1.111749 -0.004295349
v -2.554566 1.11175 -0.1033173
v -2.554566 1.140991 -0.1033173
v -2.495698 1.140991 -0.004295349
v -2.467526 1.124357 -0.03247833
v -2.525063 1.124357 -0.1292496
v -2.554566 1.226262 -0.1033173
v -2.495698 1.226262 -0.004295349
v -2.495698 1.140991 -0.004295349
v -2.554566 1.140991 -0.1033173
v -1.213143 1.25 0
v -1.252339 1.236595 -0.04277039
v -1.252339 1.267337 -0.1888733
v -1.213143 1.282335 -0.1512833
v -7.152557E-07 1.25 -0.1512756
v -0.05640864 1.25 -0.05640411
v -0.1487052 1.25 0
v -0.1487052 1.282335 -0.1512756
v -0.004299879 1.226262 -0.004295349
v -0.05640864 1.25 -0.05640411
v -7.152557E-07 1.25 -0.1512756
v 0.05456853 1.226262 -0.1033325
v -0.004299879 1.140991 -0.004295349
v -0.004299879 1.226262 -0.004295349
v 0.05456853 1.226262 -0.1033325
v 0.05456853 1.140991 -0.1033325
v -0.03247523 1.124357 -0.03247833
v -0.004299879 1.140991 -0.004295349
v 0.05456853 1.140991 -0.1033325
v 0.02506185 1.124357 -0.1292496
v -0.004299879 1.111749 -0.004295349
v -0.03247523 1.124357 -0.03247833
v 0.02506185 1.124357 -0.1292496
v 0.05456853 1.111749 -0.1033325
v -0.004299879 1.025161 -0.004295349
v -0.004299879 1.111749 -0.004295349
v 0.05456853 1.111749 -0.1033325
v 0.05456853 1.025161 -0.1033325
v -0.05640864 1.007745 -0.05640411
v -0.004299879 1.025161 -0.004295349
v 0.05456853 1.025161 -0.1033325
v -7.152557E-07 1.007745 -0.1512756
v -0.05640864 0 -0.05640411
v -0.05640864 1.007745 -0.05640411
v -7.152557E-07 1.007745 -0.1512756
v -7.152557E-07 0 -0.1512756
v 0.05456853 1.025161 -2.393211
v -0.004299879 1.025161 -2.495705
v -0.05640864 1.007745 -2.443596
v -7.152557E-07 1.007745 -2.345383
v 0.05456853 1.111749 -2.393211
v -0.004299879 1.111749 -2.495705
v -0.004299879 1.025161 -2.495705
v 0.05456853 1.025161 -2.393211
v 0.02506185 1.124357 -2.367348
v -0.03247523 1.124357 -2.467522
v -0.004299879 1.111749 -2.495705
v 0.05456853 1.111749 -2.393211
v 0.05456853 1.140991 -2.393211
v -0.004299879 1.140991 -2.495705
v -0.03247523 1.124357 -2.467522
v 0.02506185 1.124357 -2.367348
v 0.05456853 1.226262 -2.393211
v -0.004299879 1.226262 -2.495705
v -0.004299879 1.140991 -2.495705
v 0.05456853 1.140991 -2.393211
v -7.152557E-07 1.25 -2.345383
v -0.05640864 1.25 -2.443596
v -0.004299879 1.226262 -2.495705
v 0.05456853 1.226262 -2.393211
v -0.1487052 1.25 -2.5
v -0.05640864 1.25 -2.443596
v -7.152557E-07 1.25 -2.345383
v -0.1487052 1.282335 -2.34539
v -1.252339 1.236595 -2.45723
v -1.213143 1.25 -2.5
v -1.213143 1.282335 -2.34539
v -1.252339 1.267337 -2.307907
v -2.500001 1.25 -2.345383
v -2.443593 1.25 -2.443596
v -2.356137 1.25 -2.5
v -2.356137 1.282335 -2.34539
v -2.495698 1.226262 -2.495705
v -2.443593 1.25 -2.443596
v -2.500001 1.25 -2.345383
v -2.554566 1.226262 -2.393204
v -2.495698 1.140991 -2.495705
v -2.495698 1.226262 -2.495705
v -2.554566 1.226262 -2.393204
v -2.554566 1.140991 -2.393204
v -2.467526 1.124357 -2.467522
v -2.495698 1.140991 -2.495705
v -2.554566 1.140991 -2.393204
v -2.525063 1.124357 -2.367348
v -2.495698 1.111749 -2.495705
v -2.467526 1.124357 -2.467522
v -2.525063 1.124357 -2.367348
v -2.554566 1.111749 -2.393204
v -2.495698 1.025161 -2.495705
v -2.495698 1.111749 -2.495705
v -2.554566 1.111749 -2.393204
v -2.554566 1.025161 -2.393204
v -2.443593 1.007745 -2.443596
v -2.495698 1.025161 -2.495705
v -2.554566 1.025161 -2.393204
v -2.500001 1.007745 -2.34539
v -2.443593 0 -2.443596
v -2.443593 1.007745 -2.443596
v -2.500001 1.007745 -2.34539
v -2.500001 0 -2.34539
v -7.152557E-07 1.007745 -2.345383
v -0.05640864 1.007745 -2.443596
v -0.05640864 0 -2.443596
v -7.152557E-07 0 -2.34539
v -2.45723 1.006269 -1.24839
v -2.500001 1.007745 -1.204391
v -2.500001 0 -1.204391
v -2.45723 0 -1.24839
v -2.509927 1.022828 -1.248322
v -2.554566 1.025161 -1.202446
v -2.500001 1.007745 -1.204391
v -2.45723 1.006269 -1.24839
v -2.509927 1.105152 -1.248322
v -2.554566 1.111749 -1.202446
v -2.554566 1.025161 -1.202446
v -2.509927 1.022828 -1.248322
v -2.481435 1.117138 -1.24836
v -2.525063 1.124357 -1.203499
v -2.554566 1.111749 -1.202446
v -2.509927 1.105152 -1.248322
v -2.509927 1.132953 -1.248322
v -2.554566 1.140991 -1.202446
v -2.525063 1.124357 -1.203499
v -2.481435 1.117138 -1.24836
v -2.509927 1.214025 -1.248322
v -2.554566 1.226262 -1.202446
v -2.554566 1.140991 -1.202446
v -2.509927 1.132953 -1.248322
v -2.45723 1.236595 -1.248383
v -2.500001 1.25 -1.204384
v -2.554566 1.226262 -1.202446
v -2.509927 1.214025 -1.248322
v -2.500001 1.25 -1.204384
v -2.45723 1.236595 -1.248383
v -2.318288 1.267337 -1.24839
v -2.356133 1.282335 -1.204391
v -1.139935 1.282335 -1.122704
v -1.252339 1.267337 -1.205956
v -1.252339 1.267337 -1.24839
v -1.214402 1.267337 -1.24839
v -0.1487052 1.282335 -1.204391
v -1.213143 1.282335 -0.1512833
v -0.1487052 1.282335 -0.1512756
v -0.0427711 1.236595 -1.248383
v -7.152557E-07 1.25 -1.204384
v -0.1487052 1.282335 -1.204391
v -0.1863868 1.267337 -1.24839
v -7.152557E-07 1.25 -1.204384
v -0.0427711 1.236595 -1.248383
v 0.009928942 1.214025 -1.248337
v 0.05456853 1.226262 -1.202454
v 0.05456853 1.226262 -1.202454
v 0.009928942 1.214025 -1.248337
v 0.009928942 1.132953 -1.248337
v 0.05456853 1.140991 -1.202454
v 0.05456853 1.140991 -1.202454
v 0.009928942 1.132953 -1.248337
v -0.01856685 1.117138 -1.24836
v 0.02506185 1.124357 -1.203499
v 0.02506185 1.124357 -1.203499
v -0.01856685 1.117138 -1.24836
v 0.009928942 1.105152 -1.248337
v 0.05456853 1.111749 -1.202454
v 0.05456853 1.111749 -1.202454
v 0.009928942 1.105152 -1.248337
v 0.009928942 1.022828 -1.248337
v 0.05456853 1.025161 -1.202454
v 0.05456853 1.025161 -1.202454
v 0.009928942 1.022828 -1.248337
v -0.0427711 1.006269 -1.248383
v -7.152557E-07 1.007745 -1.204384
v -7.152557E-07 1.007745 -1.204384
v -0.0427711 1.006269 -1.248383
v -0.0427711 0 -1.24839
v -7.152557E-07 0 -1.204391
v -1.291829 1.007745 -2.5
v -1.252339 1.006269 -2.45723
v -1.252431 1.022828 -2.509926
v -1.29358 1.025161 -2.554565
v -1.29358 1.025161 -2.554565
v -1.252431 1.022828 -2.509926
v -1.252431 1.105152 -2.509926
v -1.29358 1.111749 -2.554565
v -1.29358 1.111749 -2.554565
v -1.252431 1.105152 -2.509926
v -1.252381 1.117138 -2.481438
v -1.29263 1.124357 -2.525063
v -1.29263 1.124357 -2.525063
v -1.252381 1.117138 -2.481438
v -1.252431 1.132953 -2.509926
v -1.29358 1.140991 -2.554565
v -1.29358 1.140991 -2.554565
v -1.252431 1.132953 -2.509926
v -1.252431 1.214025 -2.509926
v -1.29358 1.226262 -2.554565
v -1.29358 1.226262 -2.554565
v -1.252431 1.214025 -2.509926
v -1.252339 1.236595 -2.45723
v -1.291829 1.25 -2.5
v -1.291829 1.25 -2.5
v -1.252339 1.236595 -2.45723
v -1.252339 1.267337 -2.307907
v -1.291829 1.282335 -2.34539
v -1.252339 1.267337 -1.24839
v -1.290398 1.267337 -1.24839
v -1.365037 1.282335 -1.373886
v -1.252339 1.267337 -1.290756
v -2.356137 1.282335 -1.292198
v -1.291829 1.282335 -2.34539
v -2.356137 1.282335 -2.34539
v -1.290398 1.267337 -1.24839
v -1.252339 1.267337 -1.24839
v -1.252339 1.267337 -1.205956
v -1.365037 1.282335 -1.122704
v -1.291829 1.282335 -0.1512756
v -2.356133 1.282335 -1.204391
v -2.356137 1.282335 -0.1512756
v -1.252339 1.236595 -0.04277039
v -1.291829 1.25 0
v -1.291829 1.282335 -0.1512756
v -1.252339 1.267337 -0.1888733
v -1.291829 1.25 0
v -1.252339 1.236595 -0.04277039
v -1.252434 1.214025 0.009925842
v -1.29358 1.226262 0.0545578
v -1.29358 1.226262 0.0545578
v -1.252434 1.214025 0.009925842
v -1.252434 1.132953 0.009925842
v -1.29358 1.140991 0.0545578
v -1.29358 1.140991 0.0545578
v -1.252434 1.132953 0.009925842
v -1.252381 1.117138 -0.01856232
v -1.29263 1.124357 0.02506256
v -1.29263 1.124357 0.02506256
v -1.252381 1.117138 -0.01856232
v -1.252434 1.105152 0.009925842
v -1.29358 1.111749 0.0545578
v -1.29358 1.111749 0.0545578
v -1.252434 1.105152 0.009925842
v -1.252434 1.022828 0.009925842
v -1.29358 1.025161 0.0545578
v -1.29358 1.025161 0.0545578
v -1.252434 1.022828 0.009925842
v -1.252335 1.006269 -0.04277039
v -1.291829 1.007745 0
v -1.291829 1.007745 0
v -1.252335 1.006269 -0.04277039
v -1.252335 0 -0.04277039
v -1.291829 0 0
v -1.291829 0 -2.5
v -1.252335 0 -2.45723
v -1.252339 1.006269 -2.45723
v -1.291829 1.007745 -2.5
v -2.500001 1.007745 -1.204391
v -2.500001 1.007745 -0.1512756
v -2.500001 0 -0.1512756
v -2.500001 0 -1.204391
v -2.554566 1.025161 -1.202446
v -2.554566 1.025161 -0.1033173
v -2.500001 1.007745 -0.1512756
v -2.500001 1.007745 -1.204391
v -2.554566 1.111749 -1.202446
v -2.554566 1.11175 -0.1033173
v -2.554566 1.025161 -0.1033173
v -2.554566 1.025161 -1.202446
v -2.525063 1.124357 -1.203499
v -2.525063 1.124357 -0.1292496
v -2.554566 1.11175 -0.1033173
v -2.554566 1.111749 -1.202446
v -2.554566 1.140991 -1.202446
v -2.554566 1.140991 -0.1033173
v -2.525063 1.124357 -0.1292496
v -2.525063 1.124357 -1.203499
v -2.554566 1.226262 -1.202446
v -2.554566 1.226262 -0.1033173
v -2.554566 1.140991 -0.1033173
v -2.554566 1.140991 -1.202446
v -2.500001 1.25 -1.204384
v -2.500001 1.25 -0.1512756
v -2.554566 1.226262 -0.1033173
v -2.554566 1.226262 -1.202446
v -2.500001 1.25 -0.1512756
v -2.500001 1.25 -1.204384
v -2.356133 1.282335 -1.204391
v -2.356137 1.282335 -0.1512756
v -1.252339 1.267337 -0.1888733
v -1.291829 1.282335 -0.1512756
v -1.365037 1.282335 -1.122704
v -1.252339 1.267337 -1.205956
v -1.213143 1.282335 -0.1512833
v -1.252339 1.267337 -0.1888733
v -1.252339 1.267337 -1.205956
v -1.139935 1.282335 -1.122704
v -7.152557E-07 1.25 -1.204384
v -7.152557E-07 1.25 -0.1512756
v -0.1487052 1.282335 -0.1512756
v -0.1487052 1.282335 -1.204391
v -7.152557E-07 1.25 -0.1512756
v -7.152557E-07 1.25 -1.204384
v 0.05456853 1.226262 -1.202454
v 0.05456853 1.226262 -0.1033325
v 0.05456853 1.226262 -0.1033325
v 0.05456853 1.226262 -1.202454
v 0.05456853 1.140991 -1.202454
v 0.05456853 1.140991 -0.1033325
v 0.05456853 1.140991 -0.1033325
v 0.05456853 1.140991 -1.202454
v 0.02506185 1.124357 -1.203499
v 0.02506185 1.124357 -0.1292496
v 0.02506185 1.124357 -0.1292496
v 0.02506185 1.124357 -1.203499
v 0.05456853 1.111749 -1.202454
v 0.05456853 1.111749 -0.1033325
v 0.05456853 1.111749 -0.1033325
v 0.05456853 1.111749 -1.202454
v 0.05456853 1.025161 -1.202454
v 0.05456853 1.025161 -0.1033325
v 0.05456853 1.025161 -0.1033325
v 0.05456853 1.025161 -1.202454
v -7.152557E-07 1.007745 -1.204384
v -7.152557E-07 1.007745 -0.1512756
v -7.152557E-07 1.007745 -0.1512756
v -7.152557E-07 1.007745 -1.204384
v -7.152557E-07 0 -1.204391
v -7.152557E-07 0 -0.1512756
v -7.152557E-07 1.007745 -1.292198
v -7.152557E-07 1.007745 -2.345383
v -7.152557E-07 0 -2.34539
v -7.152557E-07 0 -1.292198
v 0.05456853 1.025161 -1.29409
v 0.05456853 1.025161 -2.393211
v -7.152557E-07 1.007745 -2.345383
v -7.152557E-07 1.007745 -1.292198
v 0.05456853 1.111749 -1.29409
v 0.05456853 1.111749 -2.393211
v 0.05456853 1.025161 -2.393211
v 0.05456853 1.025161 -1.29409
v 0.02506185 1.124357 -1.293068
v 0.02506185 1.124357 -2.367348
v 0.05456853 1.111749 -2.393211
v 0.05456853 1.111749 -1.29409
v 0.05456853 1.140991 -1.29409
v 0.05456853 1.140991 -2.393211
v 0.02506185 1.124357 -2.367348
v 0.02506185 1.124357 -1.293068
v 0.05456853 1.226262 -1.29409
v 0.05456853 1.226262 -2.393211
v 0.05456853 1.140991 -2.393211
v 0.05456853 1.140991 -1.29409
v -7.152557E-07 1.25 -1.292198
v -7.152557E-07 1.25 -2.345383
v 0.05456853 1.226262 -2.393211
v 0.05456853 1.226262 -1.29409
v -7.152557E-07 1.25 -2.345383
v -7.152557E-07 1.25 -1.292198
v -0.1487052 1.282335 -1.292198
v -0.1487052 1.282335 -2.34539
v -1.139935 1.282336 -1.373886
v -1.252339 1.267337 -1.290756
v -1.252339 1.267337 -2.307907
v -1.213143 1.282335 -2.34539
v -1.291829 1.282335 -2.34539
v -1.252339 1.267337 -2.307907
v -1.252339 1.267337 -1.290756
v -1.365037 1.282335 -1.373886
v -2.500001 1.25 -1.292198
v -2.500001 1.25 -2.345383
v -2.356137 1.282335 -2.34539
v -2.356137 1.282335 -1.292198
v -2.500001 1.25 -2.345383
v -2.500001 1.25 -1.292198
v -2.554566 1.226262 -1.294083
v -2.554566 1.226262 -2.393204
v -2.554566 1.226262 -2.393204
v -2.554566 1.226262 -1.294083
v -2.554566 1.140991 -1.294083
v -2.554566 1.140991 -2.393204
v -2.554566 1.140991 -2.393204
v -2.554566 1.140991 -1.294083
v -2.525063 1.124357 -1.293068
v -2.525063 1.124357 -2.367348
v -2.525063 1.124357 -2.367348
v -2.525063 1.124357 -1.293068
v -2.554566 1.111749 -1.294083
v -2.554566 1.111749 -2.393204
v -2.554566 1.111749 -2.393204
v -2.554566 1.111749 -1.294083
v -2.554566 1.025161 -1.294083
v -2.554566 1.025161 -2.393204
v -2.554566 1.025161 -2.393204
v -2.554566 1.025161 -1.294083
v -2.500001 1.007745 -1.292198
v -2.500001 1.007745 -2.34539
v -2.500001 1.007745 -2.34539
v -2.500001 1.007745 -1.292198
v -2.500001 0 -1.292198
v -2.500001 0 -2.34539
v -2.356137 0 -2.5
v -1.291829 0 -2.5
v -1.291829 1.007745 -2.5
v -2.356137 1.007745 -2.5
v -2.356137 1.007745 -2.5
v -1.291829 1.007745 -2.5
v -1.29358 1.025161 -2.554565
v -2.404416 1.025161 -2.554565
v -2.404416 1.025161 -2.554565
v -1.29358 1.025161 -2.554565
v -1.29358 1.111749 -2.554565
v -2.404416 1.111749 -2.554565
v -2.404416 1.111749 -2.554565
v -1.29358 1.111749 -2.554565
v -1.29263 1.124357 -2.525063
v -2.378308 1.124357 -2.525063
v -2.378308 1.124357 -2.525063
v -1.29263 1.124357 -2.525063
v -1.29358 1.140991 -2.554565
v -2.404416 1.140991 -2.554565
v -2.404416 1.140991 -2.554565
v -1.29358 1.140991 -2.554565
v -1.29358 1.226262 -2.554565
v -2.404416 1.226262 -2.554565
v -2.404416 1.226262 -2.554565
v -1.29358 1.226262 -2.554565
v -1.291829 1.25 -2.5
v -2.356137 1.25 -2.5
v -2.356137 1.25 -2.5
v -1.291829 1.25 -2.5
v -1.291829 1.282335 -2.34539
v -2.356137 1.282335 -2.34539
v -1.290398 1.267337 -1.24839
v -2.318288 1.267337 -1.24839
v -2.356137 1.282335 -1.292198
v -1.365037 1.282335 -1.373886
v -2.356133 1.282335 -1.204391
v -2.318288 1.267337 -1.24839
v -1.290398 1.267337 -1.24839
v -1.365037 1.282335 -1.122704
v -1.291829 1.25 0
v -2.356137 1.25 0
v -2.356137 1.282335 -0.1512756
v -1.291829 1.282335 -0.1512756
v -2.356137 1.25 0
v -1.291829 1.25 0
v -1.29358 1.226262 0.0545578
v -2.404416 1.226262 0.05456543
v -2.404416 1.226262 0.05456543
v -1.29358 1.226262 0.0545578
v -1.29358 1.140991 0.0545578
v -2.404416 1.140991 0.05456543
v -2.404416 1.140991 0.05456543
v -1.29358 1.140991 0.0545578
v -1.29263 1.124357 0.02506256
v -2.378308 1.124357 0.02506256
v -2.378308 1.124357 0.02506256
v -1.29263 1.124357 0.02506256
v -1.29358 1.111749 0.0545578
v -2.404416 1.111749 0.05456543
v -2.404416 1.111749 0.05456543
v -1.29358 1.111749 0.0545578
v -1.29358 1.025161 0.0545578
v -2.404416 1.025161 0.05456543
v -2.404416 1.025161 0.05456543
v -1.29358 1.025161 0.0545578
v -1.291829 1.007745 0
v -2.356137 1.007745 0
v -2.356137 1.007745 0
v -1.291829 1.007745 0
v -1.291829 0 0
v -2.356137 0 0
v -1.213139 1.007745 0
v -0.1487014 1.007745 0
v -0.1487014 0 0
v -1.213139 0 0
v -1.211461 1.025161 0.05456543
v -0.1006248 1.025161 0.05456543
v -0.1487014 1.007745 0
v -1.213139 1.007745 0
v -1.211461 1.111749 0.05456543
v -0.1006248 1.11175 0.05456543
v -0.1006248 1.025161 0.05456543
v -1.211461 1.025161 0.05456543
v -1.212365 1.124357 0.02506256
v -0.126622 1.124357 0.02506256
v -0.1006248 1.11175 0.05456543
v -1.211461 1.111749 0.05456543
v -1.211461 1.140991 0.05456543
v -0.1006248 1.140991 0.05456543
v -0.126622 1.124357 0.02506256
v -1.212365 1.124357 0.02506256
v -1.211461 1.226262 0.05456543
v -0.1006248 1.226262 0.05456543
v -0.1006248 1.140991 0.05456543
v -1.211461 1.140991 0.05456543
v -1.213143 1.25 0
v -0.1487052 1.25 0
v -0.1006248 1.226262 0.05456543
v -1.211461 1.226262 0.05456543
v -0.1487052 1.282335 -0.1512756
v -0.1487052 1.25 0
v -1.213143 1.25 0
v -1.213143 1.282335 -0.1512833
v -0.1863868 1.267337 -1.24839
v -0.1487052 1.282335 -1.204391
v -1.139935 1.282335 -1.122704
v -1.214402 1.267337 -1.24839
v -0.1487052 1.282335 -1.292198
v -0.1863868 1.267337 -1.24839
v -1.214402 1.267337 -1.24839
v -1.139935 1.282336 -1.373886
v -1.213143 1.25 -2.5
v -0.1487052 1.25 -2.5
v -0.1487052 1.282335 -2.34539
v -1.213143 1.282335 -2.34539
v -1.211457 1.226262 -2.554565
v -0.100621 1.226262 -2.554565
v -0.1487052 1.25 -2.5
v -1.213143 1.25 -2.5
v -1.211457 1.140991 -2.554565
v -0.100621 1.140991 -2.554565
v -0.100621 1.226262 -2.554565
v -1.211457 1.226262 -2.554565
v -1.212365 1.124357 -2.525063
v -0.126622 1.124357 -2.525063
v -0.100621 1.140991 -2.554565
v -1.211457 1.140991 -2.554565
v -1.211457 1.111749 -2.554565
v -0.100621 1.111749 -2.554565
v -0.126622 1.124357 -2.525063
v -1.212365 1.124357 -2.525063
v -1.211457 1.025161 -2.554565
v -0.100621 1.025161 -2.554565
v -0.100621 1.111749 -2.554565
v -1.211457 1.111749 -2.554565
v -1.213143 1.007745 -2.5
v -0.1487052 1.007745 -2.5
v -0.100621 1.025161 -2.554565
v -1.211457 1.025161 -2.554565
v -1.213139 0 -2.5
v -0.1487014 0 -2.5
v -0.1487052 1.007745 -2.5
v -1.213143 1.007745 -2.5
vt 0.4460449 0.326416
vt 0.4460449 0.326416
vt 0.4460449 0.326416
vt 0.4460449 0.326416
vt 0.4460449 0.326416
vt 0.4460449 0.326416
vt 0.4460449 0.326416
vt 0.4460449 0.326416
vt 0.4460449 0.326416
vt 0.4460449 0.326416
vt 0.4460449 0.326416
vt 0.4460449 0.326416
vt 0.4460449 0.326416
vt 0.4460449 0.326416
vt 0.4460449 0.326416
vt 0.4460449 0.326416
vt 0.4460449 0.326416
vt 0.4460449 0.326416
vt 0.4460449 0.326416
vt 0.4460449 0.326416
vt 0.4460449 0.326416
vt 0.4460449 0.326416
vt 0.4460449 0.326416
vt 0.4460449 0.326416
vt 0.4460449 0.326416
vt 0.4460449 0.326416
vt 0.4460449 0.326416
vt 0.4460449 0.326416
vt 0.4460449 0.326416
vt 0.4460449 0.326416
vt 0.4460449 0.326416
vt 0.4460449 0.326416
vt 0.4460449 0.326416
vt 0.4460449 0.326416
vt 0.4460449 0.326416
vt 0.4460449 0.326416
vt 0.4460449 0.326416
vt 0.4460449 0.326416
vt 0.4460449 0.326416
vt 0.4460449 0.326416
vt 0.4460449 0.326416
vt 0.4460449 0.326416
vt 0.4460449 0.326416
vt 0.4460449 0.326416
vt 0.4460449 0.326416
vt 0.4460449 0.326416
vt 0.4460449 0.326416
vt 0.4460449 0.326416
vt 0.4460449 0.326416
vt 0.4460449 0.326416
vt 0.4460449 0.326416
vt 0.4460449 0.326416
vt 0.4460449 0.326416
vt 0.4460449 0.326416
vt 0.4460449 0.326416
vt 0.4460449 0.326416
vt 0.4460449 0.326416
vt 0.4460449 0.326416
vt 0.4460449 0.326416
vt 0.4460449 0.326416
vt 0.4460449 0.326416
vt 0.4460449 0.326416
vt 0.4460449 0.326416
vt 0.4460449 0.326416
vt 0.4460449 0.326416
vt 0.4460449 0.326416
vt 0.4460449 0.326416
vt 0.4460449 0.326416
vt 0.4460449 0.326416
vt 0.4460449 0.326416
vt 0.4460449 0.326416
vt 0.4460449 0.326416
vt 0.4460449 0.326416
vt 0.4460449 0.326416
vt 0.4460449 0.326416
vt 0.4460449 0.326416
vt 0.4460449 0.326416
vt 0.4460449 0.326416
vt 0.4460449 0.326416
vt 0.4460449 0.326416
vt 0.4460449 0.326416
vt 0.4460449 0.326416
vt 0.4460449 0.326416
vt 0.4460449 0.326416
vt 0.4460449 0.326416
vt 0.4460449 0.326416
vt 0.4460449 0.326416
vt 0.4460449 0.326416
vt 0.4460449 0.326416
vt 0.4460449 0.326416
vt 0.4460449 0.326416
vt 0.4460449 0.326416
vt 0.4460449 0.326416
vt 0.4460449 0.326416
vt 0.4460449 0.326416
vt 0.4460449 0.326416
vt 0.4460449 0.326416
vt 0.4460449 0.326416
vt 0.4460449 0.326416
vt 0.4460449 0.326416
vt 0.4460449 0.326416
vt 0.4460449 0.326416
vt 0.4460449 0.326416
vt 0.4460449 0.326416
vt 0.4460449 0.326416
vt 0.4460449 0.326416
vt 0.4460449 0.326416
vt 0.4460449 0.326416
vt 0.4460449 0.326416
vt 0.4460449 0.326416
vt 0.4460449 0.326416
vt 0.4460449 0.326416
vt 0.4460449 0.326416
vt 0.4460449 0.326416
vt 0.4460449 0.326416
vt 0.4460449 0.326416
vt 0.4460449 0.326416
vt 0.4460449 0.326416
vt 0.4460449 0.326416
vt 0.4460449 0.326416
vt 0.4460449 0.326416
vt 0.4460449 0.326416
vt 0.4460449 0.326416
vt 0.4460449 0.326416
vt 0.4460449 0.326416
vt 0.4460449 0.326416
vt 0.4460449 0.326416
vt 0.4460449 0.326416
vt 0.4460449 0.326416
vt 0.4460449 0.326416
vt 0.4460449 0.326416
vt 0.4460449 0.326416
vt 0.4460449 0.326416
vt 0.4460449 0.326416
vt 0.4460449 0.326416
vt 0.4460449 0.326416
vt 0.4460449 0.326416
vt 0.4460449 0.326416
vt 0.4460449 0.326416
vt 0.4460449 0.326416
vt 0.4460449 0.326416
vt 0.4460449 0.326416
vt 0.4460449 0.326416
vt 0.4460449 0.326416
vt 0.4460449 0.326416
vt 0.4460449 0.326416
vt 0.4460449 0.326416
vt 0.4460449 0.326416
vt 0.4460449 0.326416
vt 0.4460449 0.326416
vt 0.4460449 0.326416
vt 0.4460449 0.326416
vt 0.4460449 0.326416
vt 0.4460449 0.326416
vt 0.4460449 0.326416
vt 0.4460449 0.326416
vt 0.4460449 0.326416
vt 0.4460449 0.326416
vt 0.4460449 0.326416
vt 0.4460449 0.326416
vt 0.4460449 0.326416
vt 0.4460449 0.326416
vt 0.4460449 0.326416
vt 0.4460449 0.326416
vt 0.4460449 0.326416
vt 0.4460449 0.326416
vt 0.4460449 0.326416
vt 0.4460449 0.326416
vt 0.4460449 0.326416
vt 0.4460449 0.326416
vt 0.4460449 0.326416
vt 0.4460449 0.326416
vt 0.4460449 0.326416
vt 0.4460449 0.326416
vt 0.4460449 0.326416
vt 0.4460449 0.326416
vt 0.4460449 0.326416
vt 0.4460449 0.326416
vt 0.4460449 0.326416
vt 0.4460449 0.326416
vt 0.4460449 0.326416
vt 0.4460449 0.326416
vt 0.4460449 0.326416
vt 0.4460449 0.326416
vt 0.4460449 0.326416
vt 0.4460449 0.326416
vt 0.4460449 0.326416
vt 0.4460449 0.326416
vt 0.4460449 0.326416
vt 0.4460449 0.326416
vt 0.4460449 0.326416
vt 0.4460449 0.326416
vt 0.4460449 0.326416
vt 0.4460449 0.326416
vt 0.4460449 0.326416
vt 0.4460449 0.326416
vt 0.4460449 0.326416
vt 0.4460449 0.326416
vt 0.4460449 0.326416
vt 0.4460449 0.326416
vt 0.4460449 0.326416
vt 0.4460449 0.326416
vt 0.4460449 0.326416
vt 0.4460449 0.326416
vt 0.4460449 0.326416
vt 0.4460449 0.326416
vt 0.4460449 0.326416
vt 0.4460449 0.326416
vt 0.4460449 0.326416
vt 0.4460449 0.326416
vt 0.4460449 0.326416
vt 0.4460449 0.326416
vt 0.4460449 0.326416
vt 0.4460449 0.326416
vt 0.4460449 0.326416
vt 0.4460449 0.326416
vt 0.4460449 0.326416
vt 0.4460449 0.326416
vt 0.4460449 0.326416
vt 0.4460449 0.326416
vt 0.4460449 0.326416
vt 0.4460449 0.326416
vt 0.4460449 0.326416
vt 0.4460449 0.326416
vt 0.4460449 0.326416
vt 0.4460449 0.326416
vt 0.4460449 0.326416
vt 0.4460449 0.326416
vt 0.4460449 0.326416
vt 0.4460449 0.326416
vt 0.4460449 0.326416
vt 0.4460449 0.326416
vt 0.4460449 0.326416
vt 0.4460449 0.326416
vt 0.4460449 0.326416
vt 0.4460449 0.326416
vt 0.4460449 0.326416
vt 0.4460449 0.326416
vt 0.4460449 0.326416
vt 0.4460449 0.326416
vt 0.4460449 0.326416
vt 0.4460449 0.326416
vt 0.4460449 0.326416
vt 0.4460449 0.326416
vt 0.4460449 0.326416
vt 0.4460449 0.326416
vt 0.4460449 0.326416
vt 0.4460449 0.326416
vt 0.4460449 0.326416
vt 0.4460449 0.326416
vt 0.4460449 0.326416
vt 0.4460449 0.326416
vt 0.4460449 0.326416
vt 0.4460449 0.326416
vt 0.4460449 0.326416
vt 0.4460449 0.326416
vt 0.4460449 0.326416
vt 0.4460449 0.326416
vt 0.4460449 0.326416
vt 0.4460449 0.326416
vt 0.4460449 0.326416
vt 0.4460449 0.326416
vt 0.4460449 0.326416
vt 0.4460449 0.326416
vt 0.4460449 0.326416
vt 0.4460449 0.326416
vt 0.4460449 0.326416
vt 0.4460449 0.326416
vt 0.4460449 0.326416
vt 0.4460449 0.326416
vt 0.4460449 0.326416
vt 0.4460449 0.326416
vt 0.4460449 0.326416
vt 0.4460449 0.326416
vt 0.4460449 0.326416
vt 0.4460449 0.326416
vt 0.4460449 0.326416
vt 0.4460449 0.326416
vt 0.4460449 0.326416
vt 0.4460449 0.326416
vt 0.4460449 0.326416
vt 0.4460449 0.326416
vt 0.4460449 0.326416
vt 0.4460449 0.326416
vt 0.4460449 0.326416
vt 0.4460449 0.326416
vt 0.4460449 0.326416
vt 0.4460449 0.326416
vt 0.4460449 0.326416
vt 0.4460449 0.326416
vt 0.4460449 0.326416
vt 0.4460449 0.326416
vt 0.4460449 0.326416
vt 0.4460449 0.326416
vt 0.4460449 0.326416
vt 0.4460449 0.326416
vt 0.4460449 0.326416
vt 0.4460449 0.326416
vt 0.4460449 0.326416
vt 0.4460449 0.326416
vt 0.4460449 0.326416
vt 0.4460449 0.326416
vt 0.4460449 0.326416
vt 0.4460449 0.326416
vt 0.4460449 0.326416
vt 0.4460449 0.326416
vt 0.4460449 0.326416
vt 0.4460449 0.326416
vt 0.4460449 0.326416
vt 0.4460449 0.326416
vt 0.4460449 0.326416
vt 0.4460449 0.326416
vt 0.4460449 0.326416
vt 0.4460449 0.326416
vt 0.4460449 0.326416
vt 0.4460449 0.326416
vt 0.4460449 0.326416
vt 0.4460449 0.326416
vt 0.4460449 0.326416
vt 0.4460449 0.326416
vt 0.4460449 0.326416
vt 0.4460449 0.326416
vt 0.4460449 0.326416
vt 0.4460449 0.326416
vt 0.4460449 0.326416
vt 0.4460449 0.326416
vt 0.4460449 0.326416
vt 0.4460449 0.326416
vt 0.4460449 0.326416
vt 0.4460449 0.326416
vt 0.4460449 0.326416
vt 0.4460449 0.326416
vt 0.4460449 0.326416
vt 0.4460449 0.326416
vt 0.4460449 0.326416
vt 0.4460449 0.326416
vt 0.4460449 0.326416
vt 0.4460449 0.326416
vt 0.4460449 0.326416
vt 0.4460449 0.326416
vt 0.4460449 0.326416
vt 0.4460449 0.326416
vt 0.4460449 0.326416
vt 0.4460449 0.326416
vt 0.4460449 0.326416
vt 0.4460449 0.326416
vt 0.4460449 0.326416
vt 0.4460449 0.326416
vt 0.4460449 0.326416
vt 0.4460449 0.326416
vt 0.4460449 0.326416
vt 0.4460449 0.326416
vt 0.4460449 0.326416
vt 0.4460449 0.326416
vt 0.4460449 0.326416
vt 0.4460449 0.326416
vt 0.4460449 0.326416
vt 0.4460449 0.326416
vt 0.4460449 0.326416
vt 0.4460449 0.326416
vt 0.4460449 0.326416
vt 0.4460449 0.326416
vt 0.4460449 0.326416
vt 0.4460449 0.326416
vt 0.4460449 0.326416
vt 0.4460449 0.326416
vt 0.4460449 0.326416
vt 0.4460449 0.326416
vt 0.4460449 0.326416
vt 0.4460449 0.326416
vt 0.4460449 0.326416
vt 0.4460449 0.326416
vt 0.4460449 0.326416
vt 0.4460449 0.326416
vt 0.4460449 0.326416
vt 0.4460449 0.326416
vt 0.4460449 0.326416
vt 0.4460449 0.326416
vt 0.4460449 0.326416
vt 0.4460449 0.326416
vt 0.4460449 0.326416
vt 0.4460449 0.326416
vt 0.4460449 0.326416
vt 0.4460449 0.326416
vt 0.4460449 0.326416
vt 0.4460449 0.326416
vt 0.4460449 0.326416
vt 0.4460449 0.326416
vt 0.4460449 0.326416
vt 0.4460449 0.326416
vt 0.4460449 0.326416
vt 0.4460449 0.326416
vt 0.4460449 0.326416
vt 0.4460449 0.326416
vt 0.4460449 0.326416
vt 0.4460449 0.326416
vt 0.4460449 0.326416
vt 0.4460449 0.326416
vt 0.4460449 0.326416
vt 0.4460449 0.326416
vt 0.4460449 0.326416
vt 0.4460449 0.326416
vt 0.4460449 0.326416
vt 0.4460449 0.326416
vt 0.4460449 0.326416
vt 0.4460449 0.326416
vt 0.4460449 0.326416
vt 0.4460449 0.326416
vt 0.4460449 0.326416
vt 0.4460449 0.326416
vt 0.4460449 0.326416
vt 0.4460449 0.326416
vt 0.4460449 0.326416
vt 0.4460449 0.326416
vt 0.4460449 0.326416
vt 0.4460449 0.326416
vt 0.4460449 0.326416
vt 0.4460449 0.326416
vt 0.4460449 0.326416
vt 0.4460449 0.326416
vt 0.4460449 0.326416
vt 0.4460449 0.326416
vt 0.4460449 0.326416
vt 0.4460449 0.326416
vt 0.4460449 0.326416
vt 0.4460449 0.326416
vt 0.4460449 0.326416
vt 0.4460449 0.326416
vt 0.4460449 0.326416
vt 0.4460449 0.326416
vt 0.4460449 0.326416
vt 0.4460449 0.326416
vt 0.4460449 0.326416
vt 0.4460449 0.326416
vt 0.4460449 0.326416
vt 0.4460449 0.326416
vt 0.4460449 0.326416
vt 0.4460449 0.326416
vt 0.4460449 0.326416
vt 0.4460449 0.326416
vt 0.4460449 0.326416
vt 0.4460449 0.326416
vt 0.4460449 0.326416
vt 0.4460449 0.326416
vt 0.4460449 0.326416
vt 0.4460449 0.326416
vt 0.4460449 0.326416
vt 0.4460449 0.326416
vt 0.4460449 0.326416
vt 0.4460449 0.326416
vt 0.4460449 0.326416
vt 0.4460449 0.326416
vt 0.4460449 0.326416
vt 0.4460449 0.326416
vt 0.4460449 0.326416
vt 0.4460449 0.326416
vt 0.4460449 0.326416
vt 0.4460449 0.326416
vt 0.4460449 0.326416
vt 0.4460449 0.326416
vt 0.4460449 0.326416
vt 0.4460449 0.326416
vt 0.4460449 0.326416
vt 0.4460449 0.326416
vt 0.4460449 0.326416
vt 0.4460449 0.326416
vt 0.4460449 0.326416
vt 0.4460449 0.326416
vt 0.4460449 0.326416
vt 0.4460449 0.326416
vt 0.4460449 0.326416
vt 0.4460449 0.326416
vt 0.4460449 0.326416
vt 0.4460449 0.326416
vt 0.4460449 0.326416
vt 0.4460449 0.326416
vt 0.4460449 0.326416
vt 0.4460449 0.326416
vt 0.4460449 0.326416
vt 0.4460449 0.326416
vt 0.4460449 0.326416
vt 0.4460449 0.326416
vt 0.4460449 0.326416
vt 0.4460449 0.326416
vt 0.4460449 0.326416
vt 0.4460449 0.326416
vt 0.4460449 0.326416
vt 0.4460449 0.326416
vt 0.4460449 0.326416
vt 0.4460449 0.326416
vt 0.4460449 0.326416
vt 0.4460449 0.326416
vt 0.4460449 0.326416
vt 0.4460449 0.326416
vt 0.4460449 0.326416
vt 0.4460449 0.326416
vt 0.4460449 0.326416
vt 0.4460449 0.326416
vt 0.4460449 0.326416
vt 0.4460449 0.326416
vt 0.4460449 0.326416
vt 0.4460449 0.326416
vt 0.4460449 0.326416
vt 0.4460449 0.326416
vt 0.4460449 0.326416
vt 0.4460449 0.326416
vt 0.4460449 0.326416
vt 0.4460449 0.326416
vt 0.4460449 0.326416
vt 0.4460449 0.326416
vt 0.4460449 0.326416
vt 0.4460449 0.326416
vt 0.4460449 0.326416
vt 0.4460449 0.326416
vt 0.4460449 0.326416
vt 0.4460449 0.326416
vt 0.4460449 0.326416
vt 0.4460449 0.326416
vt 0.4460449 0.326416
vt 0.4460449 0.326416
vt 0.4460449 0.326416
vt 0.4460449 0.326416
vt 0.4460449 0.326416
vt 0.4460449 0.326416
vt 0.4460449 0.326416
vt 0.4460449 0.326416
vt 0.4460449 0.326416
vt 0.4460449 0.326416
vt 0.4460449 0.326416
vt 0.4460449 0.326416
vt 0.4460449 0.326416
vt 0.4460449 0.326416
vt 0.4460449 0.326416
vt 0.4460449 0.326416
vt 0.4460449 0.326416
vt 0.4460449 0.326416
vt 0.4460449 0.326416
vt 0.4460449 0.326416
vt 0.4460449 0.326416
vt 0.4460449 0.326416
vt 0.4460449 0.326416
vt 0.4460449 0.326416
vt 0.4460449 0.326416
vt 0.4460449 0.326416
vt 0.4460449 0.326416
vt 0.4460449 0.326416
vt 0.4460449 0.326416
vt 0.4460449 0.326416
vt 0.4460449 0.326416
vt 0.4460449 0.326416
vt 0.4460449 0.326416
vt 0.4460449 0.326416
vt 0.4460449 0.326416
vt 0.4460449 0.326416
vt 0.4460449 0.326416
vt 0.4460449 0.326416
vt 0.4460449 0.326416
vt 0.4460449 0.326416
vt 0.4460449 0.326416
vt 0.4460449 0.326416
vt 0.4460449 0.326416
vt 0.4460449 0.326416
vt 0.4460449 0.326416
vt 0.4460449 0.326416
vt 0.4460449 0.326416
vt 0.4460449 0.326416
vt 0.4460449 0.326416
vt 0.4460449 0.326416
vt 0.4460449 0.326416
vt 0.4460449 0.326416
vt 0.4460449 0.326416
vt 0.4460449 0.326416
vt 0.4460449 0.326416
vt 0.4460449 0.326416
vt 0.4460449 0.326416
vt 0.4460449 0.326416
vt 0.4460449 0.326416
vt 0.4460449 0.326416
vt 0.4460449 0.326416
vt 0.4460449 0.326416
vt 0.4460449 0.326416
vt 0.4460449 0.326416
vt 0.4460449 0.326416
vt 0.4460449 0.326416
vt 0.4460449 0.326416
vt 0.4460449 0.326416
vt 0.4460449 0.326416
vt 0.4460449 0.326416
vt 0.4460449 0.326416
vt 0.4460449 0.326416
vt 0.4460449 0.326416
vt 0.4460449 0.326416
vt 0.4460449 0.326416
vt 0.4460449 0.326416
vt 0.4460449 0.326416
vt 0.4460449 0.326416
vt 0.4460449 0.326416
vt 0.4460449 0.326416
vt 0.4460449 0.326416
vt 0.4460449 0.326416
vt 0.4460449 0.326416
vt 0.4460449 0.326416
vt 0.4460449 0.326416
vt 0.4460449 0.326416
vt 0.4460449 0.326416
vt 0.4460449 0.326416
vt 0.4460449 0.326416
vt 0.4460449 0.326416
vt 0.4460449 0.326416
vt 0.4460449 0.326416
vt 0.4460449 0.326416
vt 0.4460449 0.326416
vt 0.4460449 0.326416
vt 0.4460449 0.326416
vt 0.4460449 0.326416
vt 0.4460449 0.326416
vt 0.4460449 0.326416
vt 0.4460449 0.326416
vt 0.4460449 0.326416
vt 0.4460449 0.326416
vt 0.4460449 0.326416
vt 0.4460449 0.326416
vt 0.4460449 0.326416
vt 0.4460449 0.326416
vt 0.4460449 0.326416
vt 0.4460449 0.326416
vt 0.4460449 0.326416
vt 0.4460449 0.326416
vt 0.4460449 0.326416
vt 0.4460449 0.326416
vt 0.4460449 0.326416
vt 0.4460449 0.326416
vt 0.4460449 0.326416
vt 0.4460449 0.326416
vt 0.4460449 0.326416
vt 0.4460449 0.326416
vt 0.4460449 0.326416
vt 0.4460449 0.326416
vt 0.4460449 0.326416
vt 0.4460449 0.326416
vt 0.4460449 0.326416
vt 0.4460449 0.326416
vt 0.4460449 0.326416
vt 0.4460449 0.326416
vt 0.4460449 0.326416
vt 0.4460449 0.326416
vt 0.4460449 0.326416
vt 0.4460449 0.326416
vt 0.4460449 0.326416
vt 0.4460449 0.326416
vt 0.4460449 0.326416
vt 0.4460449 0.326416
vt 0.4460449 0.326416
vt 0.4460449 0.326416
vt 0.4460449 0.326416
vt 0.4460449 0.326416
vt 0.4460449 0.326416
vt 0.4460449 0.326416
vt 0.4460449 0.326416
vt 0.4460449 0.326416
vt 0.4460449 0.326416
vt 0.4460449 0.326416
vt 0.4460449 0.326416
vt 0.4460449 0.326416
vt 0.4460449 0.326416
vt 0.4460449 0.326416
vt 0.4460449 0.326416
vt 0.4460449 0.326416
vt 0.4460449 0.326416
vt 0.4460449 0.326416
vt 0.4460449 0.326416
vt 0.4460449 0.326416
vt 0.4460449 0.326416
vt 0.4460449 0.326416
vt 0.4460449 0.326416
vt 0.4460449 0.326416
vt 0.4460449 0.326416
vt 0.4460449 0.326416
vt 0.4460449 0.326416
vt 0.4460449 0.326416
vt 0.4460449 0.326416
vt 0.4460449 0.326416
vt 0.4460449 0.326416
vt 0.4460449 0.326416
vt 0.4460449 0.326416
vt 0.4460449 0.326416
vt 0.4460449 0.326416
vt 0.4460449 0.326416
vt 0.4460449 0.326416
vt 0.4460449 0.326416
vt 0.4460449 0.326416
vt 0.4460449 0.326416
vt 0.4460449 0.326416
vt 0.4460449 0.326416
vt 0.4460449 0.326416
vt 0.4460449 0.326416
vt 0.4460449 0.326416
vt 0.4460449 0.326416
vt 0.4460449 0.326416
vt 0.4460449 0.326416
vt 0.4460449 0.326416
vt 0.4460449 0.326416
vt 0.4460449 0.326416
vt 0.4460449 0.326416
vt 0.4460449 0.326416
vt 0.4460449 0.326416
vt 0.4460449 0.326416
vt 0.4460449 0.326416
vt 0.4460449 0.326416
vt 0.4460449 0.326416
vt 0.4460449 0.326416
vt 0.4460449 0.326416
vt 0.4460449 0.326416
vt 0.4460449 0.326416
vt 0.4460449 0.326416
vt 0.4460449 0.326416
vt 0.4460449 0.326416
vt 0.4460449 0.326416
vt 0.4460449 0.326416
vt 0.4460449 0.326416
vt 0.4460449 0.326416
vt 0.4460449 0.326416
vt 0.4460449 0.326416
vt 0.4460449 0.326416
vt 0.4460449 0.326416
vt 0.4460449 0.326416
vt 0.4460449 0.326416
vt 0.4460449 0.326416
vt 0.4460449 0.326416
vt 0.4460449 0.326416
vt 0.4460449 0.326416
vt 0.4460449 0.326416
vt 0.4460449 0.326416
vt 0.4460449 0.326416
vt 0.4460449 0.326416
vt 0.4460449 0.326416
vt 0.4460449 0.326416
vt 0.4460449 0.326416
vt 0.4460449 0.326416
vt 0.4460449 0.326416
vt 0.4460449 0.326416
vt 0.4460449 0.326416
vt 0.4460449 0.326416
vt 0.4460449 0.326416
vt 0.4460449 0.326416
vt 0.4460449 0.326416
vt 0.4460449 0.326416
vt 0.4460449 0.326416
vt 0.4460449 0.326416
vt 0.4460449 0.326416
vt 0.4460449 0.326416
vt 0.4460449 0.326416
vt 0.4460449 0.326416
vt 0.4460449 0.326416
vt 0.4460449 0.326416
vt 0.4460449 0.326416
vt 0.4460449 0.326416
vt 0.4460449 0.326416
vt 0.4460449 0.326416
vt 0.4460449 0.326416
vt 0.4460449 0.326416
vt 0.4460449 0.326416
vt 0.4460449 0.326416
vt 0.4460449 0.326416
vt 0.4460449 0.326416
vt 0.4460449 0.326416
vt 0.4460449 0.326416
vt 0.4460449 0.326416
vt 0.4460449 0.326416
vt 0.4460449 0.326416
vt 0.4460449 0.326416
vt 0.4460449 0.326416
vt 0.4460449 0.326416
vt 0.4460449 0.326416
vt 0.4460449 0.326416
vt 0.4460449 0.326416
vt 0.4460449 0.326416
vt 0.4460449 0.326416
vt 0.4460449 0.326416
vt 0.4460449 0.326416
vt 0.4460449 0.326416
vt 0.4460449 0.326416
vt 0.4460449 0.326416
vt 0.4460449 0.326416
vt 0.4460449 0.326416
vt 0.4460449 0.326416
vt 0.4460449 0.326416
vt 0.4460449 0.326416
vt 0.4460449 0.326416
vt 0.4460449 0.326416
vt 0.4460449 0.326416
vt 0.4460449 0.326416
vt 0.4460449 0.326416
vt 0.4460449 0.326416
vt 0.4460449 0.326416
vt 0.4460449 0.326416
vt 0.4460449 0.326416
vt 0.4460449 0.326416
vt 0.4460449 0.326416
vt 0.4460449 0.326416
vt 0.4460449 0.326416
vt 0.4460449 0.326416
vt 0.4460449 0.326416
vt 0.4460449 0.326416
vt 0.4460449 0.326416
vt 0.4460449 0.326416
vt 0.4460449 0.326416
vt 0.4460449 0.326416
vt 0.4460449 0.326416
vt 0.4460449 0.326416
vt 0.4460449 0.326416
vt 0.4460449 0.326416
vt 0.4460449 0.326416
vt 0.4460449 0.326416
vt 0.4460449 0.326416
vt 0.4460449 0.326416
vt 0.4460449 0.326416
vt 0.4460449 0.326416
vt 0.4460449 0.326416
vt 0.4460449 0.326416
vt 0.4460449 0.326416
vt 0.4460449 0.326416
vt 0.4460449 0.326416
vt 0.4460449 0.326416
vt 0.4460449 0.326416
vt 0.4460449 0.326416
vt 0.4460449 0.326416
vt 0.4460449 0.326416
vt 0.4460449 0.326416
vt 0.4460449 0.326416
vt 0.4460449 0.326416
vt 0.4460449 0.326416
vt 0.4460449 0.326416
vt 0.4460449 0.326416
vt 0.4460449 0.326416
vt 0.4460449 0.326416
vt 0.4460449 0.326416
vt 0.4460449 0.326416
vt 0.4460449 0.326416
vt 0.4460449 0.326416
vt 0.4460449 0.326416
vt 0.4460449 0.326416
vn 0.1231689 -0.9716797 0.2015381
vn 0.1231689 -0.9716797 0.2015381
vn 0.1231689 -0.9716797 0.2015381
vn 0.1231689 -0.9716797 0.2015381
vn 0.1878662 0.8706055 0.4545898
vn 0.1878662 0.8706055 0.4545898
vn 0.1878662 0.8706055 0.4545898
vn 0.1878662 0.8706055 0.4545898
vn 0.1231689 -0.9716797 -0.2015381
vn 0.1231689 -0.9716797 -0.2015381
vn 0.1231689 -0.9716797 -0.2015381
vn 0.1231689 -0.9716797 -0.2015381
vn 0 -1 0
vn 0 -1 0
vn 0 -1 0
vn 0 -1 0
vn 0 -1 0
vn 0 -1 0
vn 0 -1 0
vn 0 -1 0
vn 0 -1 0
vn 0 -1 0
vn 0 -1 0
vn 0 -1 0
vn 0 -1 0
vn 0 -1 0
vn 0 -1 0
vn 0 -1 0
vn 0 -1 0
vn 0 -1 0
vn 0 -1 0
vn 0 -1 0
vn 0 -1 0
vn 0 -1 0
vn 0 -1 0
vn 0 -1 0
vn 0 -1 0
vn 0 -1 0
vn 0 -1 0
vn 0 -1 0
vn 0 -1 0
vn 0 -1 0
vn 0 -1 0
vn 0 -1 0
vn 0 -1 0
vn 0.2961426 -0.921875 0.2498779
vn 0.2961426 -0.921875 0.2498779
vn 0.2961426 -0.921875 0.2498779
vn 0.2961426 -0.921875 0.2498779
vn -0.2961426 -0.921875 0.2498779
vn -0.2961426 -0.921875 0.2498779
vn -0.2961426 -0.921875 0.2498779
vn -0.2961426 -0.921875 0.2498779
vn -0.715332 0 0.6987305
vn -0.715332 0 0.6987305
vn -0.715332 0 0.6987305
vn -0.715332 0 0.6987305
vn 0.5214844 0 0.8530273
vn 0.5214844 0 0.8530273
vn 0.5214844 0 0.8530273
vn 0.5214844 0 0.8530273
vn 0.715332 0 0.6987305
vn 0.715332 0 0.6987305
vn 0.715332 0 0.6987305
vn 0.715332 0 0.6987305
vn 0.5214844 0 -0.8535156
vn 0.5214844 0 -0.8535156
vn 0.5214844 0 -0.8535156
vn 0.5214844 0 -0.8535156
vn 0.5214844 0 0.8535156
vn 0.5214844 0 0.8535156
vn 0.5214844 0 0.8535156
vn 0.5214844 0 0.8535156
vn -0.7158203 0 0.6982422
vn -0.7158203 0 0.6982422
vn -0.7158203 0 0.6982422
vn -0.7158203 0 0.6982422
vn 0.5214844 0 -0.8535156
vn 0.5214844 0 -0.8535156
vn 0.5214844 0 -0.8535156
vn 0.5214844 0 -0.8535156
vn 0.7158203 0 0.6982422
vn 0.7158203 0 0.6982422
vn 0.7158203 0 0.6982422
vn 0.7158203 0 0.6982422
vn 0.2058105 -0.9189453 0.3366699
vn 0.2058105 -0.9189453 0.3366699
vn 0.2058105 -0.9189453 0.3366699
vn 0.2058105 -0.9189453 0.3366699
vn -0.4672852 -0.8256836 0.3166504
vn -0.4672852 -0.8256836 0.3166504
vn -0.4672852 -0.8256836 0.3166504
vn -0.4672852 -0.8256836 0.3166504
vn 0.2058105 -0.9189453 -0.3366699
vn 0.2058105 -0.9189453 -0.3366699
vn 0.2058105 -0.9189453 -0.3366699
vn 0.2058105 -0.9189453 -0.3366699
vn 0.4672852 -0.8256836 0.3166504
vn 0.4672852 -0.8256836 0.3166504
vn 0.4672852 -0.8256836 0.3166504
vn 0.4672852 -0.8256836 0.3166504
vn 0.5214844 0 0.8535156
vn 0.5214844 0 0.8535156
vn 0.5214844 0 0.8535156
vn 0.5214844 0 0.8535156
vn -0.7158203 0 0.6982422
vn -0.7158203 0 0.6982422
vn -0.7158203 0 0.6982422
vn -0.7158203 0 0.6982422
vn 0.5214844 0 -0.8535156
vn 0.5214844 0 -0.8535156
vn 0.5214844 0 -0.8535156
vn 0.5214844 0 -0.8535156
vn 0.7158203 0 0.6982422
vn 0.7158203 0 0.6982422
vn 0.7158203 0 0.6982422
vn 0.7158203 0 0.6982422
vn -0.3518066 0.8110352 0.467041
vn -0.3518066 0.8110352 0.467041
vn -0.3518066 0.8110352 0.467041
vn -0.3518066 0.8110352 0.467041
vn 0.161377 0.9506836 0.2641602
vn 0.161377 0.9506836 0.2641602
vn 0.161377 0.9506836 0.2641602
vn 0.161377 0.9506836 0.2641602
vn 0.3520508 0.8110352 0.4672852
vn 0.3520508 0.8110352 0.4672852
vn 0.3520508 0.8110352 0.4672852
vn 0.3520508 0.8110352 0.4672852
vn 0.161377 0.9506836 -0.2641602
vn 0.161377 0.9506836 -0.2641602
vn 0.161377 0.9506836 -0.2641602
vn 0.161377 0.9506836 -0.2641602
vn 0.1640625 0.9492188 0.2683105
vn 0.1640625 0.9492188 0.2683105
vn 0.1640625 0.9492188 0.2683105
vn 0.1640625 0.9492188 0.2683105
vn -0.3391113 0.7636719 0.5493164
vn -0.3391113 0.7636719 0.5493164
vn -0.3391113 0.7636719 0.5493164
vn -0.3391113 0.7636719 0.5493164
vn 0.1640625 0.9492188 -0.2683105
vn 0.1640625 0.9492188 -0.2683105
vn 0.1640625 0.9492188 -0.2683105
vn 0.1640625 0.9492188 -0.2683105
vn 0.3391113 0.7636719 0.5493164
vn 0.3391113 0.7636719 0.5493164
vn 0.3391113 0.7636719 0.5493164
vn 0.3391113 0.7636719 0.5493164
vn -0.2768555 -0.9150391 -0.2939453
vn -0.2768555 -0.9150391 -0.2939453
vn -0.2768555 -0.9150391 -0.2939453
vn -0.2768555 -0.9150391 -0.2939453
vn -0.7368164 0 -0.6762695
vn -0.7368164 0 -0.6762695
vn -0.7368164 0 -0.6762695
vn -0.7368164 0 -0.6762695
vn -0.5083008 0.7900391 -0.3425293
vn -0.5083008 0.7900391 -0.3425293
vn -0.5083008 0.7900391 -0.3425293
vn -0.5083008 0.7900391 -0.3425293
vn -0.3493652 -0.8154297 -0.4614258
vn -0.3493652 -0.8154297 -0.4614258
vn -0.3493652 -0.8154297 -0.4614258
vn -0.3493652 -0.8154297 -0.4614258
vn -0.7368164 0 -0.6762695
vn -0.7368164 0 -0.6762695
vn -0.7368164 0 -0.6762695
vn -0.7368164 0 -0.6762695
vn -0.5917969 0.7368164 -0.3269043
vn -0.5917969 0.7368164 -0.3269043
vn -0.5917969 0.7368164 -0.3269043
vn -0.5917969 0.7368164 -0.3269043
vn -0.06646729 0.9960938 0.05950928
vn -0.06646729 0.9960938 0.05950928
vn -0.06646729 0.9960938 0.05950928
vn -0.03326416 0.9990234 0.02978516
vn 0 1 0
vn 0 1 0
vn 0 1 0
vn -0.5917969 0.7368164 0.3269043
vn -0.5917969 0.7368164 0.3269043
vn -0.5917969 0.7368164 0.3269043
vn -0.5917969 0.7368164 0.3269043
vn -0.7368164 0 0.6762695
vn -0.7368164 0 0.6762695
vn -0.7368164 0 0.6762695
vn -0.7368164 0 0.6762695
vn -0.3493652 -0.8154297 0.4614258
vn -0.3493652 -0.8154297 0.4614258
vn -0.3493652 -0.8154297 0.4614258
vn -0.3493652 -0.8154297 0.4614258
vn -0.5083008 0.7900391 0.3425293
vn -0.5083008 0.7900391 0.3425293
vn -0.5083008 0.7900391 0.3425293
vn -0.5083008 0.7900391 0.3425293
vn -0.7368164 0 0.6762695
vn -0.7368164 0 0.6762695
vn -0.7368164 0 0.6762695
vn -0.7368164 0 0.6762695
vn -0.2768555 -0.9150391 0.2939453
vn -0.2768555 -0.9150391 0.2939453
vn -0.2768555 -0.9150391 0.2939453
vn -0.2768555 -0.9150391 0.2939453
vn -0.7373047 0 0.6757813
vn -0.7373047 0 0.6757813
vn -0.7373047 0 0.6757813
vn -0.7373047 0 0.6757813
vn -0.7373047 0 -0.6757813
vn -0.7373047 0 -0.6757813
vn -0.7373047 0 -0.6757813
vn -0.7373047 0 -0.6757813
vn -0.1273193 -0.972168 -0.1975098
vn -0.1273193 -0.972168 -0.1975098
vn -0.1273193 -0.972168 -0.1975098
vn -0.1273193 -0.972168 -0.1975098
vn -0.5419922 0 -0.840332
vn -0.5419922 0 -0.840332
vn -0.5419922 0 -0.840332
vn -0.5419922 0 -0.840332
vn -0.1668701 0.9511719 -0.2587891
vn -0.1668701 0.9511719 -0.2587891
vn -0.1668701 0.9511719 -0.2587891
vn -0.1668701 0.9511719 -0.2587891
vn -0.2128906 -0.9194336 -0.3300781
vn -0.2128906 -0.9194336 -0.3300781
vn -0.2128906 -0.9194336 -0.3300781
vn -0.2128906 -0.9194336 -0.3300781
vn -0.5419922 0 -0.840332
vn -0.5419922 0 -0.840332
vn -0.5419922 0 -0.840332
vn -0.5419922 0 -0.840332
vn -0.1696777 0.949707 -0.2629395
vn -0.1696777 0.949707 -0.2629395
vn -0.1696777 0.949707 -0.2629395
vn -0.1696777 0.949707 -0.2629395
vn -0.1933594 0.8671875 0.4589844
vn -0.1933594 0.8671875 0.4589844
vn -0.1933594 0.8671875 0.4589844
vn -0.1933594 0.8671875 0.4589844
vn -0.1696777 0.949707 0.2629395
vn -0.1733398 0.9609375 0.2156982
vn -0.1733398 0.9609375 0.2156982
vn -0.1696777 0.949707 0.2629395
vn -0.2241211 0.9604492 0.1646729
vn -0.1765137 0.9697266 0.1678467
vn -0.2241211 0.9604492 0.1646729
vn -0.2712402 0.9487305 0.1612549
vn -0.2712402 0.9487305 0.1612549
vn -0.5419922 0 0.840332
vn -0.5419922 0 0.840332
vn -0.5419922 0 0.840332
vn -0.5419922 0 0.840332
vn -0.2128906 -0.9194336 0.3300781
vn -0.2128906 -0.9194336 0.3300781
vn -0.2128906 -0.9194336 0.3300781
vn -0.2128906 -0.9194336 0.3300781
vn -0.1668701 0.9511719 0.2587891
vn -0.1668701 0.9511719 0.2587891
vn -0.1668701 0.9511719 0.2587891
vn -0.1668701 0.9511719 0.2587891
vn -0.5419922 0 0.840332
vn -0.5419922 0 0.840332
vn -0.5419922 0 0.840332
vn -0.5419922 0 0.840332
vn -0.1273193 -0.972168 0.1975098
vn -0.1273193 -0.972168 0.1975098
vn -0.1273193 -0.972168 0.1975098
vn -0.1273193 -0.972168 0.1975098
vn -0.5419922 0 0.840332
vn -0.5419922 0 0.840332
vn -0.5419922 0 0.840332
vn -0.5419922 0 0.840332
vn -0.5419922 0 -0.840332
vn -0.5419922 0 -0.840332
vn -0.5419922 0 -0.840332
vn -0.5419922 0 -0.840332
vn -0.859375 0 0.5112305
vn -0.859375 0 0.5112305
vn -0.859375 0 0.5112305
vn -0.859375 0 0.5112305
vn -0.2036133 -0.9716797 0.1210938
vn -0.2036133 -0.9716797 0.1210938
vn -0.2036133 -0.9716797 0.1210938
vn -0.2036133 -0.9716797 0.1210938
vn -0.859375 0 0.5112305
vn -0.859375 0 0.5112305
vn -0.859375 0 0.5112305
vn -0.859375 0 0.5112305
vn -0.2668457 0.9506836 0.1585693
vn -0.2668457 0.9506836 0.1585693
vn -0.2668457 0.9506836 0.1585693
vn -0.2668457 0.9506836 0.1585693
vn -0.3400879 -0.918457 0.2021484
vn -0.3400879 -0.918457 0.2021484
vn -0.3400879 -0.918457 0.2021484
vn -0.3400879 -0.918457 0.2021484
vn -0.859375 0 0.5112305
vn -0.859375 0 0.5112305
vn -0.859375 0 0.5112305
vn -0.859375 0 0.5112305
vn -0.4934082 0.8510742 0.180542
vn -0.4934082 0.8510742 0.180542
vn -0.4934082 0.8510742 0.180542
vn -0.4934082 0.8510742 0.180542
vn 0.1693115 0.9711914 0.1663818
vn 0.1693115 0.9711914 0.1663818
vn 0.1693115 0.9711914 0.1663818
vn 0.1693115 0.9711914 0.1663818
vn 0.2712402 0.9487305 0.1611328
vn 0.2712402 0.9487305 0.1611328
vn 0.2712402 0.9487305 0.1611328
vn 0.2712402 0.9487305 0.1611328
vn 0.859375 0 0.5107422
vn 0.859375 0 0.5107422
vn 0.859375 0 0.5107422
vn 0.859375 0 0.5107422
vn 0.3400879 -0.918457 0.2021484
vn 0.3400879 -0.918457 0.2021484
vn 0.3400879 -0.918457 0.2021484
vn 0.3400879 -0.918457 0.2021484
vn 0.2668457 0.9506836 0.1585693
vn 0.2668457 0.9506836 0.1585693
vn 0.2668457 0.9506836 0.1585693
vn 0.2668457 0.9506836 0.1585693
vn 0.859375 0 0.5107422
vn 0.859375 0 0.5107422
vn 0.859375 0 0.5107422
vn 0.859375 0 0.5107422
vn 0.2036133 -0.9716797 0.1210938
vn 0.2036133 -0.9716797 0.1210938
vn 0.2036133 -0.9716797 0.1210938
vn 0.2036133 -0.9716797 0.1210938
vn 0.859375 0 0.5112305
vn 0.859375 0 0.5112305
vn 0.859375 0 0.5112305
vn 0.859375 0 0.5112305
vn 0.2061768 -0.9711914 -0.1184082
vn 0.2061768 -0.9711914 -0.1184082
vn 0.2061768 -0.9711914 -0.1184082
vn 0.2061768 -0.9711914 -0.1184082
vn 0.8671875 0 -0.4980469
vn 0.8671875 0 -0.4980469
vn 0.8671875 0 -0.4980469
vn 0.8671875 0 -0.4980469
vn 0.2700195 0.9501953 -0.1551514
vn 0.2700195 0.9501953 -0.1551514
vn 0.2700195 0.9501953 -0.1551514
vn 0.2700195 0.9501953 -0.1551514
vn 0.3442383 -0.9179688 -0.1976318
vn 0.3442383 -0.9179688 -0.1976318
vn 0.3442383 -0.9179688 -0.1976318
vn 0.3442383 -0.9179688 -0.1976318
vn 0.8671875 0 -0.4980469
vn 0.8671875 0 -0.4980469
vn 0.8671875 0 -0.4980469
vn 0.8671875 0 -0.4980469
vn 0.2744141 0.9487305 -0.1575928
vn 0.2744141 0.9487305 -0.1575928
vn 0.2744141 0.9487305 -0.1575928
vn 0.2744141 0.9487305 -0.1575928
vn 0.168335 0.972168 -0.1618652
vn 0.168335 0.972168 -0.1618652
vn 0.168335 0.972168 -0.1618652
vn 0.168335 0.972168 -0.1618652
vn -0.4904785 0.8535156 -0.177124
vn -0.4904785 0.8535156 -0.177124
vn -0.4904785 0.8535156 -0.177124
vn -0.4904785 0.8535156 -0.177124
vn -0.1755371 0.9707031 -0.1633301
vn -0.1755371 0.9707031 -0.1633301
vn -0.1755371 0.9707031 -0.1633301
vn -0.1755371 0.9707031 -0.1633301
vn -0.2744141 0.9487305 -0.1575928
vn -0.2744141 0.9487305 -0.1575928
vn -0.2744141 0.9487305 -0.1575928
vn -0.2744141 0.9487305 -0.1575928
vn -0.8671875 0 -0.4980469
vn -0.8671875 0 -0.4980469
vn -0.8671875 0 -0.4980469
vn -0.8671875 0 -0.4980469
vn -0.3442383 -0.9179688 -0.1977539
vn -0.3442383 -0.9179688 -0.1977539
vn -0.3442383 -0.9179688 -0.1977539
vn -0.3442383 -0.9179688 -0.1977539
vn -0.2700195 0.9501953 -0.1551514
vn -0.2700195 0.9501953 -0.1551514
vn -0.2700195 0.9501953 -0.1551514
vn -0.2700195 0.9501953 -0.1551514
vn -0.8671875 0 -0.4980469
vn -0.8671875 0 -0.4980469
vn -0.8671875 0 -0.4980469
vn -0.8671875 0 -0.4980469
vn -0.2061768 -0.9711914 -0.1184692
vn -0.2061768 -0.9711914 -0.1184692
vn -0.2061768 -0.9711914 -0.1184692
vn -0.2061768 -0.9711914 -0.1184692
vn -0.8671875 0 -0.4980469
vn -0.8671875 0 -0.4980469
vn -0.8671875 0 -0.4980469
vn -0.8671875 0 -0.4980469
vn 0.8671875 0 -0.4980469
vn 0.8671875 0 -0.4980469
vn 0.8671875 0 -0.4980469
vn 0.8671875 0 -0.4980469
vn -0.7172852 0 -0.6972656
vn -0.7172852 0 -0.6972656
vn -0.7172852 0 -0.6972656
vn -0.7172852 0 -0.6972656
vn -0.2966309 -0.921875 -0.2495117
vn -0.2966309 -0.921875 -0.2495117
vn -0.2966309 -0.921875 -0.2495117
vn -0.2966309 -0.921875 -0.2495117
vn -0.7167969 0 -0.6972656
vn -0.7167969 0 -0.6972656
vn -0.7167969 0 -0.6972656
vn -0.7167969 0 -0.6972656
vn -0.3527832 0.8110352 -0.4665527
vn -0.3527832 0.8110352 -0.4665527
vn -0.3527832 0.8110352 -0.4665527
vn -0.3527832 0.8110352 -0.4665527
vn -0.4677734 -0.8251953 -0.3161621
vn -0.4677734 -0.8251953 -0.3161621
vn -0.4677734 -0.8251953 -0.3161621
vn -0.4677734 -0.8251953 -0.3161621
vn -0.7167969 0 -0.6972656
vn -0.7167969 0 -0.6972656
vn -0.7167969 0 -0.6972656
vn -0.7167969 0 -0.6972656
vn -0.3400879 0.7636719 -0.5488281
vn -0.3400879 0.7636719 -0.5488281
vn -0.3400879 0.7636719 -0.5488281
vn -0.3400879 0.7636719 -0.5488281
vn -0.1936035 0.8676758 -0.4575195
vn -0.1936035 0.8676758 -0.4575195
vn -0.1936035 0.8676758 -0.4575195
vn -0.1936035 0.8676758 -0.4575195
vn -0.03326416 0.9990234 -0.02973938
vn -0.06646729 0.9960938 -0.05941772
vn -0.06646729 0.9960938 -0.05941772
vn -0.06646729 0.9960938 -0.05941772
vn 0 1 0
vn 0 1 0
vn 0 1 0
vn 0.1879883 0.871582 -0.453125
vn 0.1879883 0.871582 -0.453125
vn 0.1879883 0.871582 -0.453125
vn 0.1879883 0.871582 -0.453125
vn 0.3398438 0.7641602 -0.5483398
vn 0.3398438 0.7641602 -0.5483398
vn 0.3398438 0.7641602 -0.5483398
vn 0.3398438 0.7641602 -0.5483398
vn 0.7167969 0 -0.6972656
vn 0.7167969 0 -0.6972656
vn 0.7167969 0 -0.6972656
vn 0.7167969 0 -0.6972656
vn 0.4675293 -0.8256836 -0.3161621
vn 0.4675293 -0.8256836 -0.3161621
vn 0.4675293 -0.8256836 -0.3161621
vn 0.4675293 -0.8256836 -0.3161621
vn 0.3525391 0.8110352 -0.4665527
vn 0.3525391 0.8110352 -0.4665527
vn 0.3525391 0.8110352 -0.4665527
vn 0.3525391 0.8110352 -0.4665527
vn 0.7167969 0 -0.6972656
vn 0.7167969 0 -0.6972656
vn 0.7167969 0 -0.6972656
vn 0.7167969 0 -0.6972656
vn 0.2966309 -0.921875 -0.2493896
vn 0.2966309 -0.921875 -0.2493896
vn 0.2966309 -0.921875 -0.2493896
vn 0.2966309 -0.921875 -0.2493896
vn 0.7172852 0 -0.6972656
vn 0.7172852 0 -0.6972656
vn 0.7172852 0 -0.6972656
vn 0.7172852 0 -0.6972656
vn 0.276123 -0.9150391 -0.2944336
vn 0.276123 -0.9150391 -0.2944336
vn 0.276123 -0.9150391 -0.2944336
vn 0.276123 -0.9150391 -0.2944336
vn 0.7353516 0 -0.6777344
vn 0.7353516 0 -0.6777344
vn 0.7353516 0 -0.6777344
vn 0.7353516 0 -0.6777344
vn 0.5068359 0.7905273 -0.3439941
vn 0.5068359 0.7905273 -0.3439941
vn 0.5068359 0.7905273 -0.3439941
vn 0.5068359 0.7905273 -0.3439941
vn 0.3483887 -0.8154297 -0.4621582
vn 0.3483887 -0.8154297 -0.4621582
vn 0.3483887 -0.8154297 -0.4621582
vn 0.3483887 -0.8154297 -0.4621582
vn 0.7353516 0 -0.6777344
vn 0.7353516 0 -0.6777344
vn 0.7353516 0 -0.6777344
vn 0.7353516 0 -0.6777344
vn 0.590332 0.7373047 -0.3283691
vn 0.590332 0.7373047 -0.3283691
vn 0.590332 0.7373047 -0.3283691
vn 0.590332 0.7373047 -0.3283691
vn 0.487793 0.8549805 -0.1773682
vn 0.487793 0.8549805 -0.1773682
vn 0.487793 0.8549805 -0.1773682
vn 0.487793 0.8549805 -0.1773682
vn 0.06628418 0.9960938 0.05953979
vn 0.06628418 0.9960938 0.05953979
vn 0.03317261 0.9990234 0.02980042
vn 0.06628418 0.9960938 0.05953979
vn 0 1 0
vn 0 1 0
vn 0 1 0
vn 0.06628418 0.9960938 -0.05941772
vn 0.06628418 0.9960938 -0.05941772
vn 0.06628418 0.9960938 -0.05941772
vn 0.03317261 0.9990234 -0.02973938
vn 0 1 0
vn 0 1 0
vn 0 1 0
vn 0.4904785 0.8525391 0.1807861
vn 0.4904785 0.8525391 0.1807861
vn 0.4904785 0.8525391 0.1807861
vn 0.4904785 0.8525391 0.1807861
vn 0.590332 0.7373047 0.3283691
vn 0.590332 0.7373047 0.3283691
vn 0.590332 0.7373047 0.3283691
vn 0.590332 0.7373047 0.3283691
vn 0.7353516 0 0.6777344
vn 0.7353516 0 0.6777344
vn 0.7353516 0 0.6777344
vn 0.7353516 0 0.6777344
vn 0.3483887 -0.8154297 0.4624023
vn 0.3483887 -0.8154297 0.4624023
vn 0.3483887 -0.8154297 0.4624023
vn 0.3483887 -0.8154297 0.4624023
vn 0.5073242 0.7900391 0.3439941
vn 0.5073242 0.7900391 0.3439941
vn 0.5073242 0.7900391 0.3439941
vn 0.5073242 0.7900391 0.3439941
vn 0.7353516 0 0.6777344
vn 0.7353516 0 0.6777344
vn 0.7353516 0 0.6777344
vn 0.7353516 0 0.6777344
vn 0.276123 -0.9150391 0.2946777
vn 0.276123 -0.9150391 0.2946777
vn 0.276123 -0.9150391 0.2946777
vn 0.276123 -0.9150391 0.2946777
vn 0.7348633 0 0.6782227
vn 0.7348633 0 0.6782227
vn 0.7348633 0 0.6782227
vn 0.7348633 0 0.6782227
vn 0.7348633 0 -0.6782227
vn 0.7348633 0 -0.6782227
vn 0.7348633 0 -0.6782227
vn 0.7348633 0 -0.6782227
vn -1 0 0
vn -1 0 0
vn -1 0 0
vn -1 0 0
vn -0.3039551 -0.9526367 0
vn -0.3039551 -0.9526367 0
vn -0.3039551 -0.9526367 0
vn -0.3039551 -0.9526367 0
vn -1 0 0
vn -1 0 0
vn -1 0 0
vn -1 0 0
vn -0.3928223 0.9194336 0
vn -0.3928223 0.9194336 0
vn -0.3928223 0.9194336 0
vn -0.3928223 0.9194336 0
vn -0.4912109 -0.8710938 0
vn -0.4912109 -0.8710938 0
vn -0.4912109 -0.8710938 0
vn -0.4912109 -0.8710938 0
vn -1 0 0
vn -1 0 0
vn -1 0 0
vn -1 0 0
vn -0.3989258 0.9169922 0
vn -0.3989258 0.9169922 0
vn -0.3989258 0.9169922 0
vn -0.3989258 0.9169922 0
vn -0.2192383 0.9755859 0
vn -0.2192383 0.9755859 0
vn -0.2192383 0.9755859 0
vn -0.2192383 0.9755859 0
vn 0.1881104 0.9819336 -0.006923676
vn 0.1881104 0.9819336 -0.006923676
vn 0.1881104 0.9819336 -0.006923676
vn 0.1881104 0.9819336 -0.006923676
vn -0.1887207 0.9819336 -0.006950378
vn -0.1887207 0.9819336 -0.006950378
vn -0.1887207 0.9819336 -0.006950378
vn -0.1887207 0.9819336 -0.006950378
vn 0.2125244 0.9770508 0
vn 0.2125244 0.9770508 0
vn 0.2125244 0.9770508 0
vn 0.2125244 0.9770508 0
vn 0.3989258 0.9169922 0
vn 0.3989258 0.9169922 0
vn 0.3989258 0.9169922 0
vn 0.3989258 0.9169922 0
vn 1 0 0
vn 1 0 0
vn 1 0 0
vn 1 0 0
vn 0.4909668 -0.8710938 0
vn 0.4909668 -0.8710938 0
vn 0.4909668 -0.8710938 0
vn 0.4909668 -0.8710938 0
vn 0.3928223 0.9194336 0
vn 0.3928223 0.9194336 0
vn 0.3928223 0.9194336 0
vn 0.3928223 0.9194336 0
vn 1 0 0
vn 1 0 0
vn 1 0 0
vn 1 0 0
vn 0.3039551 -0.9526367 0
vn 0.3039551 -0.9526367 0
vn 0.3039551 -0.9526367 0
vn 0.3039551 -0.9526367 0
vn 1 0 0
vn 1 0 0
vn 1 0 0
vn 1 0 0
vn 1 0 0
vn 1 0 0
vn 1 0 0
vn 1 0 0
vn 0.3039551 -0.9526367 0
vn 0.3039551 -0.9526367 0
vn 0.3039551 -0.9526367 0
vn 0.3039551 -0.9526367 0
vn 1 0 0
vn 1 0 0
vn 1 0 0
vn 1 0 0
vn 0.3928223 0.9194336 0
vn 0.3928223 0.9194336 0
vn 0.3928223 0.9194336 0
vn 0.3928223 0.9194336 0
vn 0.4909668 -0.8710938 0
vn 0.4909668 -0.8710938 0
vn 0.4909668 -0.8710938 0
vn 0.4909668 -0.8710938 0
vn 1 0 0
vn 1 0 0
vn 1 0 0
vn 1 0 0
vn 0.3989258 0.9169922 0
vn 0.3989258 0.9169922 0
vn 0.3989258 0.9169922 0
vn 0.3989258 0.9169922 0
vn 0.2125244 0.9770508 0
vn 0.2125244 0.9770508 0
vn 0.2125244 0.9770508 0
vn 0.2125244 0.9770508 0
vn -0.1887207 0.9819336 0.006950378
vn -0.1887207 0.9819336 0.006950378
vn -0.1887207 0.9819336 0.006950378
vn -0.1887207 0.9819336 0.006950378
vn 0.1881104 0.9819336 0.006923676
vn 0.1881104 0.9819336 0.006923676
vn 0.1881104 0.9819336 0.006923676
vn 0.1881104 0.9819336 0.006923676
vn -0.2192383 0.9755859 0
vn -0.2192383 0.9755859 0
vn -0.2192383 0.9755859 0
vn -0.2192383 0.9755859 0
vn -0.3989258 0.9169922 0
vn -0.3989258 0.9169922 0
vn -0.3989258 0.9169922 0
vn -0.3989258 0.9169922 0
vn -1 0 0
vn -1 0 0
vn -1 0 0
vn -1 0 0
vn -0.4912109 -0.8710938 0
vn -0.4912109 -0.8710938 0
vn -0.4912109 -0.8710938 0
vn -0.4912109 -0.8710938 0
vn -0.3930664 0.9194336 0
vn -0.3930664 0.9194336 0
vn -0.3930664 0.9194336 0
vn -0.3930664 0.9194336 0
vn -1 0 0
vn -1 0 0
vn -1 0 0
vn -1 0 0
vn -0.3039551 -0.9526367 0
vn -0.3039551 -0.9526367 0
vn -0.3039551 -0.9526367 0
vn -0.3039551 -0.9526367 0
vn -1 0 0
vn -1 0 0
vn -1 0 0
vn -1 0 0
vn 0 0 -1
vn 0 0 -1
vn 0 0 -1
vn 0 0 -1
vn 0 -0.9526367 -0.3039551
vn 0 -0.9526367 -0.3039551
vn 0 -0.9526367 -0.3039551
vn 0 -0.9526367 -0.3039551
vn 0 0 -1
vn 0 0 -1
vn 0 0 -1
vn 0 0 -1
vn 0 0.9194336 -0.3930664
vn 0 0.9194336 -0.3930664
vn 0 0.9194336 -0.3930664
vn 0 0.9194336 -0.3930664
vn 0 -0.8710938 -0.4912109
vn 0 -0.8710938 -0.4912109
vn 0 -0.8710938 -0.4912109
vn 0 -0.8710938 -0.4912109
vn 0 0 -1
vn 0 0 -1
vn 0 0 -1
vn 0 0 -1
vn 0 0.9169922 -0.3989258
vn 0 0.9169922 -0.3989258
vn 0 0.9169922 -0.3989258
vn 0 0.9169922 -0.3989258
vn 0 0.9790039 -0.2047119
vn 0 0.9790039 -0.2047119
vn 0 0.9790039 -0.2047119
vn 0 0.9790039 -0.2047119
vn 0.006877899 0.9853516 0.1700439
vn 0.006877899 0.9853516 0.1700439
vn 0.006877899 0.9853516 0.1700439
vn 0.006877899 0.9853516 0.1700439
vn 0.00686264 0.9853516 -0.1696777
vn 0.00686264 0.9853516 -0.1696777
vn 0.00686264 0.9853516 -0.1696777
vn 0.00686264 0.9853516 -0.1696777
vn 0 0.9780273 0.2089844
vn 0 0.9780273 0.2089844
vn 0 0.9780273 0.2089844
vn 0 0.9780273 0.2089844
vn 0 0.9169922 0.3989258
vn 0 0.9169922 0.3989258
vn 0 0.9169922 0.3989258
vn 0 0.9169922 0.3989258
vn 0 0 1
vn 0 0 1
vn 0 0 1
vn 0 0 1
vn 0 -0.8710938 0.4912109
vn 0 -0.8710938 0.4912109
vn 0 -0.8710938 0.4912109
vn 0 -0.8710938 0.4912109
vn 0 0.9194336 0.3930664
vn 0 0.9194336 0.3930664
vn 0 0.9194336 0.3930664
vn 0 0.9194336 0.3930664
vn 0 0 1
vn 0 0 1
vn 0 0 1
vn 0 0 1
vn 0 -0.9526367 0.3041992
vn 0 -0.9526367 0.3041992
vn 0 -0.9526367 0.3041992
vn 0 -0.9526367 0.3041992
vn 0 0 1
vn 0 0 1
vn 0 0 1
vn 0 0 1
vn 0 0 1
vn 0 0 1
vn 0 0 1
vn 0 0 1
vn 0 -0.9526367 0.3039551
vn 0 -0.9526367 0.3039551
vn 0 -0.9526367 0.3039551
vn 0 -0.9526367 0.3039551
vn 0 0 1
vn 0 0 1
vn 0 0 1
vn 0 0 1
vn 0 0.9194336 0.3928223
vn 0 0.9194336 0.3928223
vn 0 0.9194336 0.3928223
vn 0 0.9194336 0.3928223
vn 0 -0.8710938 0.4912109
vn 0 -0.8710938 0.4912109
vn 0 -0.8710938 0.4912109
vn 0 -0.8710938 0.4912109
vn 0 0 1
vn 0 0 1
vn 0 0 1
vn 0 0 1
vn 0 0.9169922 0.3989258
vn 0 0.9169922 0.3989258
vn 0 0.9169922 0.3989258
vn 0 0.9169922 0.3989258
vn 0 0.9780273 0.2089844
vn 0 0.9780273 0.2089844
vn 0 0.9780273 0.2089844
vn 0 0.9780273 0.2089844
vn -0.00686264 0.9853516 -0.1696777
vn -0.00686264 0.9853516 -0.1696777
vn -0.00686264 0.9853516 -0.1696777
vn -0.00686264 0.9853516 -0.1696777
vn -0.006877899 0.9853516 0.1700439
vn -0.006877899 0.9853516 0.1700439
vn -0.006877899 0.9853516 0.1700439
vn -0.006877899 0.9853516 0.1700439
vn 0 0.9790039 -0.2047119
vn 0 0.9790039 -0.2047119
vn 0 0.9790039 -0.2047119
vn 0 0.9790039 -0.2047119
vn 0 0.9169922 -0.3989258
vn 0 0.9169922 -0.3989258
vn 0 0.9169922 -0.3989258
vn 0 0.9169922 -0.3989258
vn 0 0 -1
vn 0 0 -1
vn 0 0 -1
vn 0 0 -1
vn 0 -0.8710938 -0.4912109
vn 0 -0.8710938 -0.4912109
vn 0 -0.8710938 -0.4912109
vn 0 -0.8710938 -0.4912109
vn 0 0.9194336 -0.3930664
vn 0 0.9194336 -0.3930664
vn 0 0.9194336 -0.3930664
vn 0 0.9194336 -0.3930664
vn 0 0 -1
vn 0 0 -1
vn 0 0 -1
vn 0 0 -1
vn 0 -0.9526367 -0.3039551
vn 0 -0.9526367 -0.3039551
vn 0 -0.9526367 -0.3039551
vn 0 -0.9526367 -0.3039551
vn 0 0 -1
vn 0 0 -1
vn 0 0 -1
vn 0 0 -1
g SM_Bld_Block_01_0
f 3/3/3 2/2/2 1/1/1
f 4/4/4 3/3/3 1/1/1
f 7/7/7 6/6/6 5/5/5
f 8/8/8 7/7/7 5/5/5
f 11/11/11 10/10/10 9/9/9
f 12/12/12 11/11/11 9/9/9
f 15/15/15 14/14/14 13/13/13
f 15/15/15 13/13/13 16/16/16
f 15/15/15 16/16/16 17/17/17
f 18/18/18 15/15/15 17/17/17
f 18/18/18 17/17/17 19/19/19
f 17/17/17 20/20/20 19/19/19
f 15/15/15 21/21/21 14/14/14
f 21/21/21 22/22/22 14/14/14
f 21/21/21 23/23/23 22/22/22
f 23/23/23 24/24/24 22/22/22
f 25/25/25 23/23/23 21/21/21
f 26/26/26 25/25/25 21/21/21
f 26/26/26 21/21/21 15/15/15
f 26/26/26 27/27/27 25/25/25
f 26/26/26 28/28/28 27/27/27
f 26/26/26 29/29/29 28/28/28
f 30/30/30 29/29/29 26/26/26
f 29/29/29 30/30/30 31/31/31
f 29/29/29 31/31/31 32/32/32
f 33/33/33 29/29/29 32/32/32
f 29/29/29 33/33/33 28/28/28
f 30/30/30 34/34/34 31/31/31
f 30/30/30 35/35/35 34/34/34
f 30/30/30 36/36/36 35/35/35
f 30/30/30 37/37/37 36/36/36
f 37/37/37 38/38/38 36/36/36
f 37/37/37 39/39/39 38/38/38
f 39/39/39 40/40/40 38/38/38
f 41/41/41 30/30/30 26/26/26
f 37/37/37 42/42/42 39/39/39
f 42/42/42 37/37/37 30/30/30
f 41/41/41 42/42/42 30/30/30
f 42/42/42 43/43/43 39/39/39
f 42/42/42 44/44/44 43/43/43
f 42/42/42 45/45/45 44/44/44
f 42/42/42 41/41/41 18/18/18
f 42/42/42 18/18/18 45/45/45
f 41/41/41 15/15/15 18/18/18
f 41/41/41 26/26/26 15/15/15
f 18/18/18 19/19/19 45/45/45
f 48/48/48 47/47/47 46/46/46
f 49/49/49 48/48/48 46/46/46
f 52/52/52 51/51/51 50/50/50
f 53/53/53 52/52/52 50/50/50
f 56/56/56 55/55/55 54/54/54
f 57/57/57 56/56/56 54/54/54
f 60/60/60 59/59/59 58/58/58
f 61/61/61 60/60/60 58/58/58
f 64/64/64 63/63/63 62/62/62
f 65/65/65 64/64/64 62/62/62
f 68/68/68 67/67/67 66/66/66
f 69/69/69 68/68/68 66/66/66
f 72/72/72 71/71/71 70/70/70
f 73/73/73 72/72/72 70/70/70
f 76/76/76 75/75/75 74/74/74
f 77/77/77 76/76/76 74/74/74
f 80/80/80 79/79/79 78/78/78
f 81/81/81 80/80/80 78/78/78
f 84/84/84 83/83/83 82/82/82
f 85/85/85 84/84/84 82/82/82
f 88/88/88 87/87/87 86/86/86
f 89/89/89 88/88/88 86/86/86
f 92/92/92 91/91/91 90/90/90
f 93/93/93 92/92/92 90/90/90
f 96/96/96 95/95/95 94/94/94
f 97/97/97 96/96/96 94/94/94
f 100/100/100 99/99/99 98/98/98
f 101/101/101 100/100/100 98/98/98
f 104/104/104 103/103/103 102/102/102
f 105/105/105 104/104/104 102/102/102
f 108/108/108 107/107/107 106/106/106
f 109/109/109 108/108/108 106/106/106
f 112/112/112 111/111/111 110/110/110
f 113/113/113 112/112/112 110/110/110
f 116/116/116 115/115/115 114/114/114
f 117/117/117 116/116/116 114/114/114
f 120/120/120 119/119/119 118/118/118
f 121/121/121 120/120/120 118/118/118
f 124/124/124 123/123/123 122/122/122
f 125/125/125 124/124/124 122/122/122
f 128/128/128 127/127/127 126/126/126
f 129/129/129 128/128/128 126/126/126
f 132/132/132 131/131/131 130/130/130
f 133/133/133 132/132/132 130/130/130
f 136/136/136 135/135/135 134/134/134
f 137/137/137 136/136/136 134/134/134
f 140/140/140 139/139/139 138/138/138
f 141/141/141 140/140/140 138/138/138
f 144/144/144 143/143/143 142/142/142
f 145/145/145 144/144/144 142/142/142
f 148/148/148 147/147/147 146/146/146
f 149/149/149 148/148/148 146/146/146
f 152/152/152 151/151/151 150/150/150
f 153/153/153 152/152/152 150/150/150
f 156/156/156 155/155/155 154/154/154
f 157/157/157 156/156/156 154/154/154
f 160/160/160 159/159/159 158/158/158
f 161/161/161 160/160/160 158/158/158
f 164/164/164 163/163/163 162/162/162
f 165/165/165 164/164/164 162/162/162
f 168/168/168 167/167/167 166/166/166
f 169/169/169 168/168/168 166/166/166
f 172/172/172 171/171/171 170/170/170
f 173/173/173 172/172/172 170/170/170
f 176/176/176 175/175/175 174/174/174
f 177/177/177 176/176/176 174/174/174
f 177/177/177 179/179/179 178/178/178
f 180/180/180 177/177/177 178/178/178
f 183/183/183 182/182/182 181/181/181
f 184/184/184 183/183/183 181/181/181
f 187/187/187 186/186/186 185/185/185
f 188/188/188 187/187/187 185/185/185
f 191/191/191 190/190/190 189/189/189
f 192/192/192 191/191/191 189/189/189
f 195/195/195 194/194/194 193/193/193
f 196/196/196 195/195/195 193/193/193
f 199/199/199 198/198/198 197/197/197
f 200/200/200 199/199/199 197/197/197
f 203/203/203 202/202/202 201/201/201
f 204/204/204 203/203/203 201/201/201
f 207/207/207 206/206/206 205/205/205
f 208/208/208 207/207/207 205/205/205
f 211/211/211 210/210/210 209/209/209
f 212/212/212 211/211/211 209/209/209
f 215/215/215 214/214/214 213/213/213
f 216/216/216 215/215/215 213/213/213
f 219/219/219 218/218/218 217/217/217
f 220/220/220 219/219/219 217/217/217
f 223/223/223 222/222/222 221/221/221
f 224/224/224 223/223/223 221/221/221
f 227/227/227 226/226/226 225/225/225
f 228/228/228 227/227/227 225/225/225
f 231/231/231 230/230/230 229/229/229
f 232/232/232 231/231/231 229/229/229
f 235/235/235 234/234/234 233/233/233
f 236/236/236 235/235/235 233/233/233
f 239/239/239 238/238/238 237/237/237
f 240/240/240 239/239/239 237/237/237
f 243/243/243 242/242/242 241/241/241
f 244/244/244 243/243/243 241/241/241
f 243/243/243 246/246/246 245/245/245
f 246/246/246 247/247/247 245/245/245
f 248/248/248 245/245/245 247/247/247
f 249/249/249 248/248/248 247/247/247
f 252/252/252 251/251/251 250/250/250
f 253/253/253 252/252/252 250/250/250
f 256/256/256 255/255/255 254/254/254
f 257/257/257 256/256/256 254/254/254
f 260/260/260 259/259/259 258/258/258
f 261/261/261 260/260/260 258/258/258
f 264/264/264 263/263/263 262/262/262
f 265/265/265 264/264/264 262/262/262
f 268/268/268 267/267/267 266/266/266
f 269/269/269 268/268/268 266/266/266
f 272/272/272 271/271/271 270/270/270
f 273/273/273 272/272/272 270/270/270
f 276/276/276 275/275/275 274/274/274
f 277/277/277 276/276/276 274/274/274
f 280/280/280 279/279/279 278/278/278
f 281/281/281 280/280/280 278/278/278
f 284/284/284 283/283/283 282/282/282
f 285/285/285 284/284/284 282/282/282
f 288/288/288 287/287/287 286/286/286
f 289/289/289 288/288/288 286/286/286
f 292/292/292 291/291/291 290/290/290
f 293/293/293 292/292/292 290/290/290
f 296/296/296 295/295/295 294/294/294
f 297/297/297 296/296/296 294/294/294
f 300/300/300 299/299/299 298/298/298
f 301/301/301 300/300/300 298/298/298
f 304/304/304 303/303/303 302/302/302
f 305/305/305 304/304/304 302/302/302
f 308/308/308 307/307/307 306/306/306
f 309/309/309 308/308/308 306/306/306
f 312/312/312 311/311/311 310/310/310
f 313/313/313 312/312/312 310/310/310
f 316/316/316 315/315/315 314/314/314
f 317/317/317 316/316/316 314/314/314
f 320/320/320 319/319/319 318/318/318
f 321/321/321 320/320/320 318/318/318
f 324/324/324 323/323/323 322/322/322
f 325/325/325 324/324/324 322/322/322
f 328/328/328 327/327/327 326/326/326
f 329/329/329 328/328/328 326/326/326
f 332/332/332 331/331/331 330/330/330
f 333/333/333 332/332/332 330/330/330
f 336/336/336 335/335/335 334/334/334
f 337/337/337 336/336/336 334/334/334
f 340/340/340 339/339/339 338/338/338
f 341/341/341 340/340/340 338/338/338
f 344/344/344 343/343/343 342/342/342
f 345/345/345 344/344/344 342/342/342
f 348/348/348 347/347/347 346/346/346
f 349/349/349 348/348/348 346/346/346
f 352/352/352 351/351/351 350/350/350
f 353/353/353 352/352/352 350/350/350
f 356/356/356 355/355/355 354/354/354
f 357/357/357 356/356/356 354/354/354
f 360/360/360 359/359/359 358/358/358
f 361/361/361 360/360/360 358/358/358
f 364/364/364 363/363/363 362/362/362
f 365/365/365 364/364/364 362/362/362
f 368/368/368 367/367/367 366/366/366
f 369/369/369 368/368/368 366/366/366
f 372/372/372 371/371/371 370/370/370
f 373/373/373 372/372/372 370/370/370
f 376/376/376 375/375/375 374/374/374
f 377/377/377 376/376/376 374/374/374
f 380/380/380 379/379/379 378/378/378
f 381/381/381 380/380/380 378/378/378
f 384/384/384 383/383/383 382/382/382
f 385/385/385 384/384/384 382/382/382
f 388/388/388 387/387/387 386/386/386
f 389/389/389 388/388/388 386/386/386
f 392/392/392 391/391/391 390/390/390
f 393/393/393 392/392/392 390/390/390
f 396/396/396 395/395/395 394/394/394
f 397/397/397 396/396/396 394/394/394
f 400/400/400 399/399/399 398/398/398
f 401/401/401 400/400/400 398/398/398
f 404/404/404 403/403/403 402/402/402
f 405/405/405 404/404/404 402/402/402
f 408/408/408 407/407/407 406/406/406
f 409/409/409 408/408/408 406/406/406
f 412/412/412 411/411/411 410/410/410
f 413/413/413 412/412/412 410/410/410
f 416/416/416 415/415/415 414/414/414
f 417/417/417 416/416/416 414/414/414
f 420/420/420 419/419/419 418/418/418
f 421/421/421 420/420/420 418/418/418
f 424/424/424 423/423/423 422/422/422
f 425/425/425 424/424/424 422/422/422
f 428/428/428 427/427/427 426/426/426
f 429/429/429 428/428/428 426/426/426
f 432/432/432 431/431/431 430/430/430
f 433/433/433 432/432/432 430/430/430
f 436/436/436 435/435/435 434/434/434
f 437/437/437 436/436/436 434/434/434
f 440/440/440 439/439/439 438/438/438
f 441/441/441 440/440/440 438/438/438
f 438/438/438 443/443/443 442/442/442
f 443/443/443 444/444/444 442/442/442
f 447/447/447 446/446/446 445/445/445
f 448/448/448 447/447/447 445/445/445
f 451/451/451 450/450/450 449/449/449
f 452/452/452 451/451/451 449/449/449
f 455/455/455 454/454/454 453/453/453
f 456/456/456 455/455/455 453/453/453
f 459/459/459 458/458/458 457/457/457
f 460/460/460 459/459/459 457/457/457
f 463/463/463 462/462/462 461/461/461
f 464/464/464 463/463/463 461/461/461
f 467/467/467 466/466/466 465/465/465
f 468/468/468 467/467/467 465/465/465
f 471/471/471 470/470/470 469/469/469
f 472/472/472 471/471/471 469/469/469
f 475/475/475 474/474/474 473/473/473
f 476/476/476 475/475/475 473/473/473
f 479/479/479 478/478/478 477/477/477
f 480/480/480 479/479/479 477/477/477
f 483/483/483 482/482/482 481/481/481
f 484/484/484 483/483/483 481/481/481
f 487/487/487 486/486/486 485/485/485
f 488/488/488 487/487/487 485/485/485
f 491/491/491 490/490/490 489/489/489
f 492/492/492 491/491/491 489/489/489
f 495/495/495 494/494/494 493/493/493
f 496/496/496 495/495/495 493/493/493
f 499/499/499 498/498/498 497/497/497
f 500/500/500 499/499/499 497/497/497
f 503/503/503 502/502/502 501/501/501
f 504/504/504 503/503/503 501/501/501
f 507/507/507 506/506/506 505/505/505
f 508/508/508 507/507/507 505/505/505
f 507/507/507 510/510/510 509/509/509
f 510/510/510 511/511/511 509/509/509
f 514/514/514 513/513/513 512/512/512
f 515/515/515 514/514/514 512/512/512
f 515/515/515 517/517/517 516/516/516
f 517/517/517 518/518/518 516/516/516
f 521/521/521 520/520/520 519/519/519
f 522/522/522 521/521/521 519/519/519
f 525/525/525 524/524/524 523/523/523
f 526/526/526 525/525/525 523/523/523
f 529/529/529 528/528/528 527/527/527
f 530/530/530 529/529/529 527/527/527
f 533/533/533 532/532/532 531/531/531
f 534/534/534 533/533/533 531/531/531
f 537/537/537 536/536/536 535/535/535
f 538/538/538 537/537/537 535/535/535
f 541/541/541 540/540/540 539/539/539
f 542/542/542 541/541/541 539/539/539
f 545/545/545 544/544/544 543/543/543
f 546/546/546 545/545/545 543/543/543
f 549/549/549 548/548/548 547/547/547
f 550/550/550 549/549/549 547/547/547
f 553/553/553 552/552/552 551/551/551
f 554/554/554 553/553/553 551/551/551
f 557/557/557 556/556/556 555/555/555
f 558/558/558 557/557/557 555/555/555
f 561/561/561 560/560/560 559/559/559
f 562/562/562 561/561/561 559/559/559
f 565/565/565 564/564/564 563/563/563
f 566/566/566 565/565/565 563/563/563
f 569/569/569 568/568/568 567/567/567
f 570/570/570 569/569/569 567/567/567
f 573/573/573 572/572/572 571/571/571
f 574/574/574 573/573/573 571/571/571
f 577/577/577 576/576/576 575/575/575
f 578/578/578 577/577/577 575/575/575
f 581/581/581 580/580/580 579/579/579
f 582/582/582 581/581/581 579/579/579
f 585/585/585 584/584/584 583/583/583
f 586/586/586 585/585/585 583/583/583
f 589/589/589 588/588/588 587/587/587
f 590/590/590 589/589/589 587/587/587
f 593/593/593 592/592/592 591/591/591
f 594/594/594 593/593/593 591/591/591
f 597/597/597 596/596/596 595/595/595
f 598/598/598 597/597/597 595/595/595
f 601/601/601 600/600/600 599/599/599
f 602/602/602 601/601/601 599/599/599
f 605/605/605 604/604/604 603/603/603
f 606/606/606 605/605/605 603/603/603
f 609/609/609 608/608/608 607/607/607
f 610/610/610 609/609/609 607/607/607
f 613/613/613 612/612/612 611/611/611
f 614/614/614 613/613/613 611/611/611
f 617/617/617 616/616/616 615/615/615
f 618/618/618 617/617/617 615/615/615
f 621/621/621 620/620/620 619/619/619
f 622/622/622 621/621/621 619/619/619
f 625/625/625 624/624/624 623/623/623
f 626/626/626 625/625/625 623/623/623
f 629/629/629 628/628/628 627/627/627
f 630/630/630 629/629/629 627/627/627
f 633/633/633 632/632/632 631/631/631
f 634/634/634 633/633/633 631/631/631
f 637/637/637 636/636/636 635/635/635
f 638/638/638 637/637/637 635/635/635
f 641/641/641 640/640/640 639/639/639
f 642/642/642 641/641/641 639/639/639
f 645/645/645 644/644/644 643/643/643
f 646/646/646 645/645/645 643/643/643
f 649/649/649 648/648/648 647/647/647
f 650/650/650 649/649/649 647/647/647
f 653/653/653 652/652/652 651/651/651
f 654/654/654 653/653/653 651/651/651
f 657/657/657 656/656/656 655/655/655
f 658/658/658 657/657/657 655/655/655
f 661/661/661 660/660/660 659/659/659
f 662/662/662 661/661/661 659/659/659
f 665/665/665 664/664/664 663/663/663
f 666/666/666 665/665/665 663/663/663
f 669/669/669 668/668/668 667/667/667
f 670/670/670 669/669/669 667/667/667
f 673/673/673 672/672/672 671/671/671
f 674/674/674 673/673/673 671/671/671
f 677/677/677 676/676/676 675/675/675
f 678/678/678 677/677/677 675/675/675
f 681/681/681 680/680/680 679/679/679
f 682/682/682 681/681/681 679/679/679
f 685/685/685 684/684/684 683/683/683
f 686/686/686 685/685/685 683/683/683
f 689/689/689 688/688/688 687/687/687
f 690/690/690 689/689/689 687/687/687
f 693/693/693 692/692/692 691/691/691
f 694/694/694 693/693/693 691/691/691
f 697/697/697 696/696/696 695/695/695
f 698/698/698 697/697/697 695/695/695
f 701/701/701 700/700/700 699/699/699
f 702/702/702 701/701/701 699/699/699
f 705/705/705 704/704/704 703/703/703
f 706/706/706 705/705/705 703/703/703
f 709/709/709 708/708/708 707/707/707
f 710/710/710 709/709/709 707/707/707
f 713/713/713 712/712/712 711/711/711
f 714/714/714 713/713/713 711/711/711
f 717/717/717 716/716/716 715/715/715
f 718/718/718 717/717/717 715/715/715
f 721/721/721 720/720/720 719/719/719
f 722/722/722 721/721/721 719/719/719
f 725/725/725 724/724/724 723/723/723
f 726/726/726 725/725/725 723/723/723
f 729/729/729 728/728/728 727/727/727
f 730/730/730 729/729/729 727/727/727
f 733/733/733 732/732/732 731/731/731
f 734/734/734 733/733/733 731/731/731
f 737/737/737 736/736/736 735/735/735
f 738/738/738 737/737/737 735/735/735
f 741/741/741 740/740/740 739/739/739
f 742/742/742 741/741/741 739/739/739
f 745/745/745 744/744/744 743/743/743
f 746/746/746 745/745/745 743/743/743
f 749/749/749 748/748/748 747/747/747
f 750/750/750 749/749/749 747/747/747
f 753/753/753 752/752/752 751/751/751
f 754/754/754 753/753/753 751/751/751
f 757/757/757 756/756/756 755/755/755
f 758/758/758 757/757/757 755/755/755
f 761/761/761 760/760/760 759/759/759
f 762/762/762 761/761/761 759/759/759
f 765/765/765 764/764/764 763/763/763
f 766/766/766 765/765/765 763/763/763
f 769/769/769 768/768/768 767/767/767
f 770/770/770 769/769/769 767/767/767
f 773/773/773 772/772/772 771/771/771
f 774/774/774 773/773/773 771/771/771
f 777/777/777 776/776/776 775/775/775
f 778/778/778 777/777/777 775/775/775
f 781/781/781 780/780/780 779/779/779
f 782/782/782 781/781/781 779/779/779
f 785/785/785 784/784/784 783/783/783
f 786/786/786 785/785/785 783/783/783
f 789/789/789 788/788/788 787/787/787
f 790/790/790 789/789/789 787/787/787
f 793/793/793 792/792/792 791/791/791
f 794/794/794 793/793/793 791/791/791
f 797/797/797 796/796/796 795/795/795
f 798/798/798 797/797/797 795/795/795
f 801/801/801 800/800/800 799/799/799
f 802/802/802 801/801/801 799/799/799
f 805/805/805 804/804/804 803/803/803
f 806/806/806 805/805/805 803/803/803
f 809/809/809 808/808/808 807/807/807
f 810/810/810 809/809/809 807/807/807
f 813/813/813 812/812/812 811/811/811
f 814/814/814 813/813/813 811/811/811
f 817/817/817 816/816/816 815/815/815
f 818/818/818 817/817/817 815/815/815
f 821/821/821 820/820/820 819/819/819
f 822/822/822 821/821/821 819/819/819
f 825/825/825 824/824/824 823/823/823
f 826/826/826 825/825/825 823/823/823
f 829/829/829 828/828/828 827/827/827
f 830/830/830 829/829/829 827/827/827
f 833/833/833 832/832/832 831/831/831
f 834/834/834 833/833/833 831/831/831
f 837/837/837 836/836/836 835/835/835
f 838/838/838 837/837/837 835/835/835
f 841/841/841 840/840/840 839/839/839
f 842/842/842 841/841/841 839/839/839
