mtllib SM_Bld_Castle_Battlements_L_Corner_02.mtl
o SM_Bld_Castle_Battlements_L_Corner_02
v -4.999951 0.156536 4.548066
v -0.451904 0.156536 -0.000020
v -4.999951 0.305062 4.548066
v -0.451982 0.305062 -0.000020
v -4.999951 0.305062 5.451953
v 0.451924 0.305062 -0.000020
v -5.000732 0.156536 5.451933
v 0.451924 0.156536 -0.000020
v -4.999951 0.305062 5.297226
v 0.297158 0.305062 -0.000020
v -4.999951 0.305062 4.702871
v -0.297217 0.305062 -0.000020
v -4.999951 0.435308 5.180605
v 0.180557 0.435308 -0.000020
v -4.999951 0.435308 4.819472
v -0.180576 0.435308 -0.000020
v -4.999951 0.131782 5.383359
v 0.383252 0.131782 -0.000020
v -0.383389 0.131782 -0.000020
v -4.999951 0.131782 4.616719
v -4.999951 0.000004 5.383359
v 0.383252 0.000004 -0.000020
v -0.383389 0.000004 0.000000
v -4.999951 0.000004 4.616719
v -0.212764 0.435303 1.980117
v -0.104326 0.305057 2.023008
v 0.039580 0.305057 2.079922
v 0.039580 0.156531 2.079922
v -0.024248 0.131779 2.054688
v -0.024248 0.000000 2.054688
v -0.737139 0.000000 1.772695
v -0.737139 0.131779 1.772695
v -0.800889 0.156531 1.747461
v -0.800889 0.305057 1.747461
v -0.657022 0.305057 1.804375
v -0.548584 0.435303 1.847285
v -1.336982 0.435303 3.663750
v -1.254560 0.305057 3.746211
v -1.145107 0.305057 3.855644
v -1.145107 0.156531 3.855644
v -1.193623 0.131779 3.807109
v -1.193623 0.000000 3.807109
v -1.735732 0.000000 3.265019
v -1.735732 0.131779 3.265019
v -1.784209 0.156531 3.216543
v -1.784248 0.305057 3.216504
v -1.674873 0.305057 3.325879
v -1.592373 0.435303 3.408398
v -3.018232 0.435303 4.787051
v -2.973818 0.305057 4.894863
v -2.914873 0.305057 5.037949
v -2.914873 0.156531 5.037949
v -2.941006 0.131779 4.974492
v -2.941006 0.000000 4.974492
v -3.233037 0.000000 4.265664
v -3.233037 0.131779 4.265664
v -3.259170 0.156531 4.202266
v -3.259209 0.305057 4.202246
v -3.200264 0.305057 4.345254
v -3.155811 0.435303 4.453145
v -1.464717 0.000000 3.536055
v -4.999951 0.156536 4.548066
v -5.000732 0.156536 5.451933
v -2.914873 0.305057 5.037949
v -4.999951 0.305062 5.297226
v -4.999951 0.305062 5.451953
v -4.999951 0.305062 4.548066
v -4.999951 0.305062 4.702871
v -3.259209 0.305057 4.202246
v -4.999951 0.305062 5.451953
v -4.999951 0.305062 4.548066
v -2.973818 0.305057 4.894863
v -3.018232 0.435303 4.787051
v -4.999951 0.435308 5.180605
v -4.999951 0.305062 5.297226
v -4.999951 0.435308 5.180605
v -4.999951 0.435308 4.819472
v -4.999951 0.305062 4.702871
v -4.999951 0.435308 4.819472
v -3.155811 0.435303 4.453145
v -3.200264 0.305057 4.345254
v -5.000732 0.156536 5.451933
v -2.914873 0.156531 5.037949
v -3.259170 0.156531 4.202266
v -4.999951 0.156536 4.548066
v -4.999951 0.131782 4.616719
v -4.999951 0.131782 5.383359
v -4.999951 0.131782 5.383359
v -4.999951 0.000004 5.383359
v -2.941006 0.000000 4.974492
v -2.941006 0.131779 4.974492
v -3.233037 0.131779 4.265664
v -3.233037 0.000000 4.265664
v -4.999951 0.000004 4.616719
v -4.999951 0.131782 4.616719
v -4.999951 0.000004 4.616719
v -4.999951 0.000004 5.383359
v 0.297158 0.305062 -0.000020
v 0.180557 0.435308 -0.000020
v 0.451924 0.305062 -0.000020
v 0.297158 0.305062 -0.000020
v -0.104326 0.305057 2.023008
v 0.451924 0.156536 -0.000020
v 0.451924 0.305062 -0.000020
v 0.039580 0.305057 2.079922
v 0.383252 0.131782 -0.000020
v 0.451924 0.156536 -0.000020
v 0.039580 0.156531 2.079922
v 0.383252 0.000004 -0.000020
v 0.383252 0.131782 -0.000020
v -0.024248 0.131779 2.054688
v -0.383389 0.000004 0.000000
v 0.383252 0.000004 -0.000020
v -0.024248 0.000000 2.054688
v -0.383389 0.131782 -0.000020
v -0.383389 0.000004 0.000000
v -0.737139 0.000000 1.772695
v -0.451904 0.156536 -0.000020
v -0.383389 0.131782 -0.000020
v -0.737139 0.131779 1.772695
v -0.451982 0.305062 -0.000020
v -0.451904 0.156536 -0.000020
v -0.800889 0.156531 1.747461
v -0.297217 0.305062 -0.000020
v -0.451982 0.305062 -0.000020
v -0.800889 0.305057 1.747461
v -0.180576 0.435308 -0.000020
v -0.297217 0.305062 -0.000020
v -0.657022 0.305057 1.804375
v 0.180557 0.435308 -0.000020
v -0.180576 0.435308 -0.000020
v -0.548584 0.435303 1.847285
v -0.212764 0.435303 1.980117
v -0.104326 0.305057 2.023008
v -0.212764 0.435303 1.980117
v -1.254560 0.305057 3.746211
v 0.039580 0.156531 2.079922
v 0.039580 0.305057 2.079922
v -1.145107 0.305057 3.855644
v -0.024248 0.131779 2.054688
v 0.039580 0.156531 2.079922
v -1.145107 0.156531 3.855644
v -0.024248 0.000000 2.054688
v -0.024248 0.131779 2.054688
v -1.193623 0.131779 3.807109
v -1.193623 0.000000 3.807109
v -0.737139 0.131779 1.772695
v -0.737139 0.000000 1.772695
v -1.735732 0.000000 3.265019
v -0.800889 0.156531 1.747461
v -0.737139 0.131779 1.772695
v -1.735732 0.131779 3.265019
v -0.800889 0.305057 1.747461
v -0.800889 0.156531 1.747461
v -1.784209 0.156531 3.216543
v -1.784248 0.305057 3.216504
v -0.548584 0.435303 1.847285
v -0.657022 0.305057 1.804375
v -1.674873 0.305057 3.325879
v -1.592373 0.435303 3.408398
v -1.336982 0.435303 3.663750
v -1.254560 0.305057 3.746211
v -1.336982 0.435303 3.663750
v -3.018232 0.435303 4.787051
v -2.973818 0.305057 4.894863
v -2.914873 0.156531 5.037949
v -1.145107 0.156531 3.855644
v -1.145107 0.305057 3.855644
v -2.914873 0.305057 5.037949
v -2.941006 0.131779 4.974492
v -1.193623 0.131779 3.807109
v -1.145107 0.156531 3.855644
v -2.914873 0.156531 5.037949
v -2.941006 0.000000 4.974492
v -1.193623 0.000000 3.807109
v -1.193623 0.131779 3.807109
v -2.941006 0.131779 4.974492
v -1.735732 0.131779 3.265019
v -1.735732 0.000000 3.265019
v -3.233037 0.000000 4.265664
v -3.233037 0.131779 4.265664
v -1.784209 0.156531 3.216543
v -1.735732 0.131779 3.265019
v -3.233037 0.131779 4.265664
v -3.259170 0.156531 4.202266
v -3.259209 0.305057 4.202246
v -1.784248 0.305057 3.216504
v -1.784209 0.156531 3.216543
v -3.259170 0.156531 4.202266
v -3.155811 0.435303 4.453145
v -1.592373 0.435303 3.408398
v -1.674873 0.305057 3.325879
v -3.200264 0.305057 4.345254
vn -0.194847 -0.000090 -0.980834
vn 0.000000 0.000000 -1.000000
vn -0.194847 -0.000090 -0.980834
vn 0.000000 0.000000 -1.000000
vn 0.194714 -0.000577 0.980860
vn 0.000000 0.000000 -1.000000
vn 0.194714 -0.000577 0.980860
vn 0.000000 0.000000 -1.000000
vn -0.999997 0.002279 -0.000424
vn 0.000000 0.000000 -1.000000
vn -0.999998 0.002137 -0.000424
vn 0.000000 0.000000 -1.000000
vn 0.000002 1.000000 0.000000
vn 0.000000 0.000000 -1.000000
vn 0.000002 1.000000 0.000000
vn 0.000000 0.000000 -1.000000
vn 0.067287 -0.938399 0.338941
vn -0.000009 -0.000054 -1.000000
vn -0.000009 -0.000054 -1.000000
vn -0.067260 -0.938541 -0.338551
vn -0.000002 -1.000000 0.000000
vn -0.000013 -0.000074 -1.000000
vn -0.000013 -0.000074 -1.000000
vn -0.000002 -1.000000 0.000000
vn 0.736550 0.660385 0.146239
vn 0.736550 0.660385 0.146239
vn 0.000000 1.000000 0.000001
vn 0.980910 0.000000 0.194463
vn 0.337988 -0.938761 0.067017
vn 0.980895 0.000000 0.194536
vn 0.000000 -1.000000 -0.000001
vn -0.980665 -0.000014 -0.195695
vn -0.338412 -0.938570 -0.067559
vn -0.980640 -0.000258 -0.195819
vn 0.000000 1.000000 0.000001
vn -0.736386 0.660451 -0.146766
vn 0.625425 0.659167 0.417543
vn 0.625425 0.659167 0.417543
vn 0.000000 1.000000 0.000000
vn 0.831862 0.000000 0.554983
vn 0.287527 -0.938362 0.191845
vn 0.831811 0.000000 0.555060
vn 0.000000 -1.000000 0.000000
vn -0.831095 0.000000 -0.556130
vn -0.287506 -0.938252 -0.192413
vn -0.831014 -0.000182 -0.556252
vn 0.000000 1.000000 0.000000
vn -0.624957 0.659342 -0.417968
vn 0.000001 1.000000 0.000000
vn 0.000001 1.000000 0.000000
vn 0.194714 -0.000577 0.980860
vn 0.194714 -0.000577 0.980860
vn 0.067287 -0.938399 0.338941
vn -0.000001 -1.000000 0.000000
vn -0.000001 -1.000000 0.000000
vn -0.067260 -0.938541 -0.338551
vn -0.194847 -0.000090 -0.980834
vn -0.194847 -0.000090 -0.980834
vn 0.000001 1.000000 0.000000
vn 0.000001 1.000000 0.000000
vn 0.000000 -1.000000 0.000000
vn -0.999999 0.001092 -0.000470
vn -0.999999 0.001571 -0.000470
vn 0.000001 1.000000 0.000000
vn 0.000002 1.000000 0.000000
vn 0.000002 1.000000 0.000000
vn 0.000002 1.000000 0.000000
vn 0.000002 1.000000 0.000000
vn 0.000001 1.000000 0.000000
vn -0.999986 0.005260 0.000000
vn -1.000000 0.000000 0.000000
vn 0.146354 0.659901 0.736961
vn 0.146354 0.659901 0.736961
vn 0.146354 0.659901 0.736961
vn 0.146354 0.659901 0.736961
vn -1.000000 0.000000 0.000000
vn -1.000000 0.000000 0.000000
vn -0.146395 0.660007 -0.736858
vn -0.146395 0.660007 -0.736858
vn -0.146395 0.660007 -0.736858
vn -0.146395 0.660007 -0.736858
vn 0.067287 -0.938399 0.338941
vn 0.067287 -0.938399 0.338941
vn -0.067260 -0.938541 -0.338551
vn -0.067260 -0.938541 -0.338551
vn -0.999991 -0.004213 -0.000125
vn -0.999991 -0.004213 -0.000125
vn 0.194778 0.000000 0.980848
vn 0.194778 0.000000 0.980848
vn 0.194778 0.000000 0.980848
vn 0.194778 0.000000 0.980848
vn -0.194873 0.000000 -0.980828
vn -0.194873 0.000000 -0.980828
vn -0.194873 0.000000 -0.980828
vn -0.194873 0.000000 -0.980828
vn -1.000000 0.000000 0.000000
vn -1.000000 0.000000 0.000000
vn 0.736550 0.660385 0.146239
vn 0.736550 0.660385 0.146239
vn 0.000000 1.000000 0.000002
vn 0.000000 1.000000 0.000002
vn 0.000000 1.000000 0.000001
vn 0.980910 0.000000 0.194463
vn 0.980910 0.000000 0.194463
vn 0.980910 0.000000 0.194463
vn 0.337988 -0.938761 0.067017
vn 0.337988 -0.938761 0.067017
vn 0.337988 -0.938761 0.067017
vn 0.980895 0.000000 0.194536
vn 0.980895 0.000000 0.194536
vn 0.980895 0.000000 0.194536
vn 0.000000 -1.000000 -0.000002
vn 0.000000 -1.000000 -0.000002
vn 0.000000 -1.000000 -0.000001
vn -0.980665 -0.000014 -0.195695
vn -0.980665 -0.000014 -0.195695
vn -0.980665 -0.000014 -0.195695
vn -0.338412 -0.938570 -0.067559
vn -0.338412 -0.938570 -0.067559
vn -0.338412 -0.938570 -0.067559
vn -0.980640 -0.000258 -0.195819
vn -0.980640 -0.000258 -0.195819
vn -0.980640 -0.000258 -0.195819
vn 0.000000 1.000000 0.000002
vn 0.000000 1.000000 0.000002
vn 0.000000 1.000000 0.000001
vn -0.736386 0.660451 -0.146766
vn -0.736386 0.660451 -0.146766
vn -0.736386 0.660451 -0.146766
vn 0.000000 1.000000 0.000002
vn 0.000000 1.000000 0.000002
vn 0.000000 1.000000 0.000001
vn 0.000000 1.000000 0.000001
vn 0.625425 0.659167 0.417543
vn 0.625425 0.659167 0.417543
vn 0.000000 1.000000 0.000000
vn 0.831862 0.000000 0.554983
vn 0.831862 0.000000 0.554983
vn 0.831862 0.000000 0.554983
vn 0.287527 -0.938362 0.191845
vn 0.287527 -0.938362 0.191845
vn 0.287527 -0.938362 0.191845
vn 0.831811 0.000000 0.555060
vn 0.831811 0.000000 0.555060
vn 0.831811 0.000000 0.555060
vn 0.000000 -1.000000 0.000000
vn -0.831095 0.000000 -0.556130
vn -0.831095 0.000000 -0.556130
vn -0.831095 0.000000 -0.556130
vn -0.287506 -0.938252 -0.192413
vn -0.287506 -0.938252 -0.192413
vn -0.287506 -0.938252 -0.192413
vn -0.831014 -0.000182 -0.556252
vn -0.831014 -0.000182 -0.556252
vn -0.831014 -0.000182 -0.556252
vn 0.000000 1.000000 0.000000
vn -0.624957 0.659342 -0.417968
vn -0.624957 0.659342 -0.417968
vn -0.624957 0.659342 -0.417968
vn 0.000000 1.000000 0.000000
vn 0.000000 1.000000 0.000000
vn 0.417494 0.659717 0.624878
vn 0.417494 0.659717 0.624878
vn 0.417494 0.659717 0.624878
vn 0.417494 0.659717 0.624878
vn 0.555501 0.000000 0.831516
vn 0.555501 0.000000 0.831516
vn 0.555501 0.000000 0.831516
vn 0.555501 0.000000 0.831516
vn 0.191767 -0.938525 0.287048
vn 0.191767 -0.938525 0.287048
vn 0.191767 -0.938525 0.287048
vn 0.191767 -0.938525 0.287048
vn 0.555511 0.000000 0.831509
vn 0.555511 0.000000 0.831509
vn 0.555511 0.000000 0.831509
vn 0.555511 0.000000 0.831509
vn -0.555638 0.000000 -0.831424
vn -0.555638 0.000000 -0.831424
vn -0.555638 0.000000 -0.831424
vn -0.555638 0.000000 -0.831424
vn -0.191963 -0.938426 -0.287241
vn -0.191963 -0.938426 -0.287241
vn -0.191963 -0.938426 -0.287241
vn -0.191963 -0.938426 -0.287241
vn -0.555646 -0.000310 -0.831419
vn -0.555646 -0.000310 -0.831419
vn -0.555646 -0.000310 -0.831419
vn -0.555646 -0.000310 -0.831419
vn -0.417409 0.660008 -0.624627
vn -0.417409 0.660008 -0.624627
vn -0.417409 0.660008 -0.624627
vn -0.417409 0.660008 -0.624627
vt 0.197170 0.304173
vt 0.197975 0.304033
vt 0.197167 0.304155
vt 0.197975 0.304017
vt 0.197081 0.304213
vt 0.198081 0.304035
vt 0.197084 0.304232
vt 0.198080 0.304052
vt 0.197096 0.304203
vt 0.198062 0.304032
vt 0.197153 0.304165
vt 0.197993 0.304020
vt 0.197104 0.304179
vt 0.198049 0.304015
vt 0.197139 0.304156
vt 0.198007 0.304008
vt 0.197092 0.304230
vt 0.198071 0.304053
vt 0.197983 0.304037
vt 0.197165 0.304181
vt 0.197095 0.304246
vt 0.198071 0.304068
vt 0.197982 0.304052
vt 0.197167 0.304196
vt 0.197915 0.304109
vt 0.197926 0.304130
vt 0.197942 0.304137
vt 0.197941 0.304155
vt 0.197934 0.304155
vt 0.197934 0.304170
vt 0.197860 0.304136
vt 0.197860 0.304121
vt 0.197854 0.304115
vt 0.197854 0.304098
vt 0.197868 0.304104
vt 0.197880 0.304094
vt 0.197675 0.304182
vt 0.197681 0.304206
vt 0.197688 0.304217
vt 0.197688 0.304236
vt 0.197685 0.304234
vt 0.197686 0.304250
vt 0.197653 0.304199
vt 0.197652 0.304184
vt 0.197649 0.304176
vt 0.197649 0.304158
vt 0.197655 0.304168
vt 0.197659 0.304159
vt 0.197377 0.304209
vt 0.197376 0.304234
vt 0.197371 0.304246
vt 0.197373 0.304265
vt 0.197376 0.304263
vt 0.197378 0.304280
vt 0.197400 0.304222
vt 0.197398 0.304206
vt 0.197400 0.304198
vt 0.197398 0.304180
vt 0.197394 0.304191
vt 0.197388 0.304183
vt 0.197669 0.304224
vt 0.197170 0.304173
vt 0.197084 0.304232
vt 0.197371 0.304246
vt 0.197096 0.304203
vt 0.197081 0.304213
vt 0.197167 0.304155
vt 0.197153 0.304165
vt 0.197398 0.304180
vt 0.197081 0.304213
vt 0.197167 0.304155
vt 0.197376 0.304234
vt 0.197377 0.304209
vt 0.197104 0.304179
vt 0.197096 0.304203
vt 0.197104 0.304179
vt 0.197139 0.304156
vt 0.197153 0.304165
vt 0.197139 0.304156
vt 0.197388 0.304183
vt 0.197394 0.304191
vt 0.197084 0.304232
vt 0.197373 0.304265
vt 0.197400 0.304198
vt 0.197170 0.304173
vt 0.197165 0.304181
vt 0.197092 0.304230
vt 0.197092 0.304230
vt 0.197095 0.304246
vt 0.197378 0.304280
vt 0.197376 0.304263
vt 0.197398 0.304206
vt 0.197400 0.304222
vt 0.197167 0.304196
vt 0.197165 0.304181
vt 0.197167 0.304196
vt 0.197095 0.304246
vt 0.198062 0.304032
vt 0.198049 0.304015
vt 0.198081 0.304035
vt 0.198062 0.304032
vt 0.197926 0.304130
vt 0.198080 0.304052
vt 0.198081 0.304035
vt 0.197942 0.304137
vt 0.198071 0.304053
vt 0.198080 0.304052
vt 0.197941 0.304155
vt 0.198071 0.304068
vt 0.198071 0.304053
vt 0.197934 0.304155
vt 0.197982 0.304052
vt 0.198071 0.304068
vt 0.197934 0.304170
vt 0.197983 0.304037
vt 0.197982 0.304052
vt 0.197860 0.304136
vt 0.197975 0.304033
vt 0.197983 0.304037
vt 0.197860 0.304121
vt 0.197975 0.304017
vt 0.197975 0.304033
vt 0.197854 0.304115
vt 0.197993 0.304020
vt 0.197975 0.304017
vt 0.197854 0.304098
vt 0.198007 0.304008
vt 0.197993 0.304020
vt 0.197868 0.304104
vt 0.198049 0.304015
vt 0.198007 0.304008
vt 0.197880 0.304094
vt 0.197915 0.304109
vt 0.197926 0.304130
vt 0.197915 0.304109
vt 0.197681 0.304206
vt 0.197941 0.304155
vt 0.197942 0.304137
vt 0.197688 0.304217
vt 0.197934 0.304155
vt 0.197941 0.304155
vt 0.197688 0.304236
vt 0.197934 0.304170
vt 0.197934 0.304155
vt 0.197685 0.304234
vt 0.197686 0.304250
vt 0.197860 0.304121
vt 0.197860 0.304136
vt 0.197653 0.304199
vt 0.197854 0.304115
vt 0.197860 0.304121
vt 0.197652 0.304184
vt 0.197854 0.304098
vt 0.197854 0.304115
vt 0.197649 0.304176
vt 0.197649 0.304158
vt 0.197880 0.304094
vt 0.197868 0.304104
vt 0.197655 0.304168
vt 0.197659 0.304159
vt 0.197675 0.304182
vt 0.197681 0.304206
vt 0.197675 0.304182
vt 0.197377 0.304209
vt 0.197376 0.304234
vt 0.197373 0.304265
vt 0.197688 0.304236
vt 0.197688 0.304217
vt 0.197371 0.304246
vt 0.197376 0.304263
vt 0.197685 0.304234
vt 0.197688 0.304236
vt 0.197373 0.304265
vt 0.197378 0.304280
vt 0.197686 0.304250
vt 0.197685 0.304234
vt 0.197376 0.304263
vt 0.197652 0.304184
vt 0.197653 0.304199
vt 0.197400 0.304222
vt 0.197398 0.304206
vt 0.197649 0.304176
vt 0.197652 0.304184
vt 0.197398 0.304206
vt 0.197400 0.304198
vt 0.197398 0.304180
vt 0.197649 0.304158
vt 0.197649 0.304176
vt 0.197400 0.304198
vt 0.197388 0.304183
vt 0.197659 0.304159
vt 0.197655 0.304168
vt 0.197394 0.304191
usemtl DefaultMaterial
s 1
f 1/1/1 3/3/3 58/58/58
f 1/1/1 58/58/58 57/57/57
f 60/60/60 15/15/15 13/13/13
f 60/60/60 13/13/13 49/49/49
f 160/160/160 60/60/60 49/49/49
f 160/160/160 49/49/49 161/161/161
f 132/132/132 160/160/160 161/161/161
f 132/132/132 161/161/161 133/133/133
f 130/130/130 132/132/132 133/133/133
f 130/130/130 131/131/131 132/132/132
f 5/5/5 7/7/7 52/52/52
f 5/5/5 52/52/52 51/51/51
f 21/21/21 24/24/24 55/55/55
f 21/21/21 55/55/55 54/54/54
f 146/146/146 54/54/54 55/55/55
f 61/61/61 146/146/146 55/55/55
f 55/55/55 43/43/43 61/61/61
f 146/146/146 61/61/61 43/43/43
f 114/114/114 146/146/146 43/43/43
f 43/43/43 31/31/31 114/114/114
f 31/31/31 113/113/113 114/114/114
f 31/31/31 112/112/112 113/113/113
f 64/64/64 65/65/65 66/66/66
f 64/64/64 50/50/50 65/65/65
f 39/39/39 50/50/50 64/64/64
f 39/39/39 136/136/136 50/50/50
f 27/27/27 136/136/136 39/39/39
f 27/27/27 102/102/102 136/136/136
f 100/100/100 102/102/102 27/27/27
f 100/100/100 101/101/101 102/102/102
f 67/67/67 68/68/68 59/59/59
f 67/67/67 59/59/59 69/69/69
f 59/59/59 156/156/156 69/69/69
f 59/59/59 47/47/47 156/156/156
f 47/47/47 126/126/126 156/156/156
f 47/47/47 35/35/35 126/126/126
f 35/35/35 125/125/125 126/126/126
f 35/35/35 124/124/124 125/125/125
f 8/8/8 10/10/10 6/6/6
f 8/8/8 12/12/12 10/10/10
f 12/12/12 14/14/14 10/10/10
f 12/12/12 16/16/16 14/14/14
f 8/8/8 2/2/2 12/12/12
f 4/4/4 12/12/12 2/2/2
f 8/8/8 19/19/19 2/2/2
f 8/8/8 18/18/18 19/19/19
f 18/18/18 23/23/23 19/19/19
f 18/18/18 22/22/22 23/23/23
f 70/70/70 9/9/9 63/63/63
f 11/11/11 63/63/63 9/9/9
f 9/9/9 77/77/77 11/11/11
f 9/9/9 76/76/76 77/77/77
f 11/11/11 62/62/62 63/63/63
f 62/62/62 11/11/11 71/71/71
f 62/62/62 87/87/87 63/63/63
f 62/62/62 86/86/86 87/87/87
f 86/86/86 97/97/97 87/87/87
f 86/86/86 96/96/96 97/97/97
f 72/72/72 73/73/73 74/74/74
f 72/72/72 74/74/74 75/75/75
f 78/78/78 79/79/79 80/80/80
f 78/78/78 80/80/80 81/81/81
f 82/82/82 17/17/17 53/53/53
f 82/82/82 53/53/53 83/83/83
f 84/84/84 56/56/56 20/20/20
f 84/84/84 20/20/20 85/85/85
f 88/88/88 89/89/89 90/90/90
f 88/88/88 90/90/90 91/91/91
f 92/92/92 93/93/93 94/94/94
f 92/92/92 94/94/94 95/95/95
f 98/98/98 99/99/99 25/25/25
f 98/98/98 25/25/25 26/26/26
f 28/28/28 103/103/103 104/104/104
f 28/28/28 104/104/104 105/105/105
f 29/29/29 106/106/106 107/107/107
f 29/29/29 107/107/107 108/108/108
f 30/30/30 109/109/109 110/110/110
f 30/30/30 110/110/110 111/111/111
f 115/115/115 116/116/116 117/117/117
f 115/115/115 117/117/117 32/32/32
f 118/118/118 119/119/119 120/120/120
f 118/118/118 120/120/120 33/33/33
f 34/34/34 121/121/121 122/122/122
f 34/34/34 122/122/122 123/123/123
f 36/36/36 127/127/127 128/128/128
f 36/36/36 128/128/128 129/129/129
f 134/134/134 135/135/135 37/37/37
f 134/134/134 37/37/37 38/38/38
f 40/40/40 137/137/137 138/138/138
f 40/40/40 138/138/138 139/139/139
f 41/41/41 140/140/140 141/141/141
f 41/41/41 141/141/141 142/142/142
f 42/42/42 143/143/143 144/144/144
f 42/42/42 144/144/144 145/145/145
f 147/147/147 148/148/148 149/149/149
f 147/147/147 149/149/149 44/44/44
f 150/150/150 151/151/151 152/152/152
f 150/150/150 152/152/152 45/45/45
f 46/46/46 153/153/153 154/154/154
f 46/46/46 154/154/154 155/155/155
f 48/48/48 157/157/157 158/158/158
f 48/48/48 158/158/158 159/159/159
f 162/162/162 163/163/163 164/164/164
f 162/162/162 164/164/164 165/165/165
f 166/166/166 167/167/167 168/168/168
f 166/166/166 168/168/168 169/169/169
f 170/170/170 171/171/171 172/172/172
f 170/170/170 172/172/172 173/173/173
f 174/174/174 175/175/175 176/176/176
f 174/174/174 176/176/176 177/177/177
f 178/178/178 179/179/179 180/180/180
f 178/178/178 180/180/180 181/181/181
f 182/182/182 183/183/183 184/184/184
f 182/182/182 184/184/184 185/185/185
f 186/186/186 187/187/187 188/188/188
f 186/186/186 188/188/188 189/189/189
f 190/190/190 191/191/191 192/192/192
f 190/190/190 192/192/192 193/193/193
