# File generated by FabConvert.com - Free Image and 3D model conversion tools

mtllib SM_Bld_Castle_Base_Large_Windows_01.mtl

# SM_Bld_Castle_Base_Large_Windows_01_0
o obj1
v -5.51914215 2.01295757 8.69034958
v -5.51914215 2.01295757 8.78750992
v -5.51914215 1.04476118 8.78750992
v -5.51914215 1.04476118 8.69034958
v -5.74999237 1.04476118 8.69034958
v -5.74999237 1.04476118 8.78750992
v -5.74999237 2.01295757 8.78750992
v -5.74999237 2.01295757 8.69034958
v -4.47939301 2.01295805 8.67298508
v -4.47939301 2.01295757 8.82860184
v -4.47939301 0 8.82860184
v -4.47939301 0 8.67296982
v -4.78012848 0 8.67296982
v -4.78012848 0 8.82860184
v -4.78012848 2.01295757 8.82860184
v -4.78012848 2.01295757 8.67296982
v -6.48900604 2.01295757 8.67296982
v -6.48900604 2.01295757 8.82860184
v -6.48900604 0 8.82860184
v -6.48900604 0 8.67296982
v -6.78974152 0 8.67296982
v -6.78974152 0 8.82860184
v -6.78974152 2.01295757 8.82860184
v -6.78974152 2.01295805 8.67298508
v -4.78012848 0.82244444 8.67296982
v -4.78012848 0.82244444 8.79409409
v -6.48900604 0.82244444 8.79409409
v -6.48900604 0.82244444 8.67296982
v -6.48900604 1.044765 8.67296982
v -6.48900604 1.044765 8.79409409
v -4.78012848 1.044765 8.79409409
v -4.78012848 1.044765 8.67296982
v -6.78974152 2.56023359 8.67296982
v -6.78974152 2.56023359 8.91460037
v -4.47939301 2.56023359 8.91460037
v -4.47939301 2.56023359 8.67296982
v -4.47939301 2.01295805 8.67298508
v -4.47939301 2.01295757 8.91460037
v -6.78974152 2.01295757 8.91460037
v -6.78974152 2.01295805 8.67298508
v -4.47939301 2.01295805 8.67298508
v -4.47939301 2.56023359 8.67296982
v -4.47939301 2.56023359 8.91460037
v -4.47939301 2.01295757 8.91460037
v -6.78974152 2.56023359 8.67296982
v -6.78974152 2.01295805 8.67298508
v -6.78974152 2.01295757 8.91460037
v -6.78974152 2.56023359 8.91460037
v -5.77851868 1.0958209 8.76304245
v -6.45285034 1.0958209 8.76304245
v -6.50102997 1.02183819 8.76304245
v -5.73033905 1.02183819 8.76304245
v -5.77851868 1.95720816 8.76304245
v -5.73033905 2.03119087 8.76304245
v -6.50102997 2.03119087 8.76304245
v -6.45285034 1.95720816 8.76304245
v -5.77851868 1.95720816 8.76304245
v -6.45285034 1.95720816 8.76304245
v -6.45285034 1.0958209 8.76304245
v -5.77851868 1.0958209 8.76304245
v -4.81724548 1.0958209 8.76304245
v -5.49157715 1.0958209 8.76304245
v -5.53975677 1.02183819 8.76304245
v -4.76906586 1.02183819 8.76304245
v -4.81724548 1.95720816 8.76304245
v -4.76906586 2.03119087 8.76304245
v -5.53975677 2.03119087 8.76304245
v -5.49157715 1.95720816 8.76304245
v -4.81724548 1.95720816 8.76304245
v -5.49157715 1.95720816 8.76304245
v -5.49157715 1.0958209 8.76304245
v -4.81724548 1.0958209 8.76304245
v -1.69995117 2.01295757 8.69034958
v -1.69995117 2.01295757 8.78750992
v -1.69995117 1.04476118 8.78750992
v -1.69995117 1.04476118 8.69034958
v -1.93080139 1.04476118 8.69034958
v -1.93080139 1.04476118 8.78750992
v -1.93080139 2.01295757 8.78750992
v -1.93080139 2.01295757 8.69034958
v -0.66020203 2.01295805 8.67298508
v -0.66020203 2.01295757 8.82860184
v -0.66020203 0 8.82860184
v -0.66020203 0 8.67296982
v -0.9609375 0 8.67296982
v -0.9609375 0 8.82860184
v -0.9609375 2.01295757 8.82860184
v -0.9609375 2.01295757 8.67296982
v -2.66981506 2.01295757 8.67296982
v -2.66981506 2.01295757 8.82860184
v -2.66981506 0 8.82860184
v -2.66981506 0 8.67296982
v -2.97055054 0 8.67296982
v -2.97055054 0 8.82860184
v -2.97055054 2.01295757 8.82860184
v -2.97055054 2.01295805 8.67298508
v -0.9609375 0.82244444 8.67296982
v -0.9609375 0.82244444 8.79409409
v -2.66981506 0.82244444 8.79409409
v -2.66981506 0.82244444 8.67296982
v -2.66981506 1.044765 8.67296982
v -2.66981506 1.044765 8.79409409
v -0.9609375 1.044765 8.79409409
v -0.9609375 1.044765 8.67296982
v -2.97055054 2.56023359 8.67296982
v -2.97055054 2.56023359 8.91460037
v -0.66020203 2.56023359 8.91460037
v -0.66020203 2.56023359 8.67296982
v -0.66020203 2.01295805 8.67298508
v -0.66020203 2.01295757 8.91460037
v -2.97055054 2.01295757 8.91460037
v -2.97055054 2.01295805 8.67298508
v -0.66020203 2.01295805 8.67298508
v -0.66020203 2.56023359 8.67296982
v -0.66020203 2.56023359 8.91460037
v -0.66020203 2.01295757 8.91460037
v -2.97055054 2.56023359 8.67296982
v -2.97055054 2.01295805 8.67298508
v -2.97055054 2.01295757 8.91460037
v -2.97055054 2.56023359 8.91460037
v -1.9593277 1.0958209 8.76304245
v -2.63365936 1.0958209 8.76304245
v -2.68183899 1.02183819 8.76304245
v -1.91114807 1.02183819 8.76304245
v -1.9593277 1.95720816 8.76304245
v -1.91114807 2.03119087 8.76304245
v -2.68183899 2.03119087 8.76304245
v -2.63365936 1.95720816 8.76304245
v -1.9593277 1.95720816 8.76304245
v -2.63365936 1.95720816 8.76304245
v -2.63365936 1.0958209 8.76304245
v -1.9593277 1.0958209 8.76304245
v -0.9980545 1.0958209 8.76304245
v -1.67238617 1.0958209 8.76304245
v -1.7205658 1.02183819 8.76304245
v -0.94987488 1.02183819 8.76304245
v -0.9980545 1.95720816 8.76304245
v -0.94987488 2.03119087 8.76304245
v -1.7205658 2.03119087 8.76304245
v -1.67238617 1.95720816 8.76304245
v -0.9980545 1.95720816 8.76304245
v -1.67238617 1.95720816 8.76304245
v -1.67238617 1.0958209 8.76304245
v -0.9980545 1.0958209 8.76304245
v 1.93080139 2.01295757 8.69034958
v 1.93080139 2.01295757 8.78750992
v 1.93080139 1.04476118 8.78750992
v 1.93080139 1.04476118 8.69034958
v 1.69995117 1.04476118 8.69034958
v 1.69995117 1.04476118 8.78750992
v 1.69995117 2.01295757 8.78750992
v 1.69995117 2.01295757 8.69034958
v 2.97055054 2.01295805 8.67298508
v 2.97055054 2.01295757 8.82860184
v 2.97055054 0 8.82860184
v 2.97055054 0 8.67296982
v 2.66981506 0 8.67296982
v 2.66981506 0 8.82860184
v 2.66981506 2.01295757 8.82860184
v 2.66981506 2.01295757 8.67296982
v 0.9609375 2.01295757 8.67296982
v 0.9609375 2.01295757 8.82860184
v 0.9609375 0 8.82860184
v 0.9609375 0 8.67296982
v 0.66020203 0 8.67296982
v 0.66020203 0 8.82860184
v 0.66020203 2.01295757 8.82860184
v 0.66020203 2.01295805 8.67298508
v 2.66981506 0.82244444 8.67296982
v 2.66981506 0.82244444 8.79409409
v 0.9609375 0.82244444 8.79409409
v 0.9609375 0.82244444 8.67296982
v 0.9609375 1.044765 8.67296982
v 0.9609375 1.044765 8.79409409
v 2.66981506 1.044765 8.79409409
v 2.66981506 1.044765 8.67296982
v 0.66020203 2.56023359 8.67296982
v 0.66020203 2.56023359 8.91460037
v 2.97055054 2.56023359 8.91460037
v 2.97055054 2.56023359 8.67296982
v 2.97055054 2.01295805 8.67298508
v 2.97055054 2.01295757 8.91460037
v 0.66020203 2.01295757 8.91460037
v 0.66020203 2.01295805 8.67298508
v 2.97055054 2.01295805 8.67298508
v 2.97055054 2.56023359 8.67296982
v 2.97055054 2.56023359 8.91460037
v 2.97055054 2.01295757 8.91460037
v 0.66020203 2.56023359 8.67296982
v 0.66020203 2.01295805 8.67298508
v 0.66020203 2.01295757 8.91460037
v 0.66020203 2.56023359 8.91460037
v 1.67142487 1.0958209 8.76304245
v 0.9970932 1.0958209 8.76304245
v 0.94891357 1.02183819 8.76304245
v 1.71960449 1.02183819 8.76304245
v 1.67142487 1.95720816 8.76304245
v 1.71960449 2.03119087 8.76304245
v 0.94891357 2.03119087 8.76304245
v 0.9970932 1.95720816 8.76304245
v 1.67142487 1.95720816 8.76304245
v 0.9970932 1.95720816 8.76304245
v 0.9970932 1.0958209 8.76304245
v 1.67142487 1.0958209 8.76304245
v 2.63269806 1.0958209 8.76304245
v 1.95836639 1.0958209 8.76304245
v 1.91018677 1.02183819 8.76304245
v 2.68087769 1.02183819 8.76304245
v 2.63269806 1.95720816 8.76304245
v 2.68087769 2.03119087 8.76304245
v 1.91018677 2.03119087 8.76304245
v 1.95836639 1.95720816 8.76304245
v 2.63269806 1.95720816 8.76304245
v 1.95836639 1.95720816 8.76304245
v 1.95836639 1.0958209 8.76304245
v 2.63269806 1.0958209 8.76304245
v 5.74999237 2.01295757 8.69034958
v 5.74999237 2.01295757 8.78750992
v 5.74999237 1.04476118 8.78750992
v 5.74999237 1.04476118 8.69034958
v 5.51914215 1.04476118 8.69034958
v 5.51914215 1.04476118 8.78750992
v 5.51914215 2.01295757 8.78750992
v 5.51914215 2.01295757 8.69034958
v 6.78974152 2.01295805 8.67298508
v 6.78974152 2.01295757 8.82860184
v 6.78974152 0 8.82860184
v 6.78974152 0 8.67296982
v 6.48900604 0 8.67296982
v 6.48900604 0 8.82860184
v 6.48900604 2.01295757 8.82860184
v 6.48900604 2.01295757 8.67296982
v 4.78012848 2.01295757 8.67296982
v 4.78012848 2.01295757 8.82860184
v 4.78012848 0 8.82860184
v 4.78012848 0 8.67296982
v 4.47939301 0 8.67296982
v 4.47939301 0 8.82860184
v 4.47939301 2.01295757 8.82860184
v 4.47939301 2.01295805 8.67298508
v 6.48900604 0.82244444 8.67296982
v 6.48900604 0.82244444 8.79409409
v 4.78012848 0.82244444 8.79409409
v 4.78012848 0.82244444 8.67296982
v 4.78012848 1.044765 8.67296982
v 4.78012848 1.044765 8.79409409
v 6.48900604 1.044765 8.79409409
v 6.48900604 1.044765 8.67296982
v 4.47939301 2.56023359 8.67296982
v 4.47939301 2.56023359 8.91460037
v 6.78974152 2.56023359 8.91460037
v 6.78974152 2.56023359 8.67296982
v 6.78974152 2.01295805 8.67298508
v 6.78974152 2.01295757 8.91460037
v 4.47939301 2.01295757 8.91460037
v 4.47939301 2.01295805 8.67298508
v 6.78974152 2.01295805 8.67298508
v 6.78974152 2.56023359 8.67296982
v 6.78974152 2.56023359 8.91460037
v 6.78974152 2.01295757 8.91460037
v 4.47939301 2.56023359 8.67296982
v 4.47939301 2.01295805 8.67298508
v 4.47939301 2.01295757 8.91460037
v 4.47939301 2.56023359 8.91460037
v 5.49061584 1.0958209 8.76304245
v 4.81628418 1.0958209 8.76304245
v 4.76810455 1.02183819 8.76304245
v 5.53879547 1.02183819 8.76304245
v 5.49061584 1.95720816 8.76304245
v 5.53879547 2.03119087 8.76304245
v 4.76810455 2.03119087 8.76304245
v 4.81628418 1.95720816 8.76304245
v 5.49061584 1.95720816 8.76304245
v 4.81628418 1.95720816 8.76304245
v 4.81628418 1.0958209 8.76304245
v 5.49061584 1.0958209 8.76304245
v 6.45188904 1.0958209 8.76304245
v 5.77755737 1.0958209 8.76304245
v 5.72937775 1.02183819 8.76304245
v 6.50006866 1.02183819 8.76304245
v 6.45188904 1.95720816 8.76304245
v 6.50006866 2.03119087 8.76304245
v 5.72937775 2.03119087 8.76304245
v 5.77755737 1.95720816 8.76304245
v 6.45188904 1.95720816 8.76304245
v 5.77755737 1.95720816 8.76304245
v 5.77755737 1.0958209 8.76304245
v 6.45188904 1.0958209 8.76304245
v -8.69035339 2.01295757 -5.51914597
v -8.7875061 2.01295757 -5.51914597
v -8.7875061 1.04476118 -5.51914597
v -8.69035339 1.04476118 -5.51914597
v -8.69035339 1.04476118 -5.74999619
v -8.7875061 1.04476118 -5.74999619
v -8.7875061 2.01295757 -5.74999619
v -8.69035339 2.01295757 -5.74999619
v -8.67298889 2.01295805 -4.47939682
v -8.82859802 2.01295757 -4.47939682
v -8.82859802 0 -4.47939682
v -8.67297363 0 -4.47939682
v -8.67297363 0 -4.78013229
v -8.82859802 0 -4.78013229
v -8.82859802 2.01295757 -4.78013229
v -8.67297363 2.01295757 -4.78013229
v -8.67297363 2.01295757 -6.48900986
v -8.82859802 2.01295757 -6.48900986
v -8.82859802 0 -6.48900986
v -8.67297363 0 -6.48900986
v -8.67297363 0 -6.78974533
v -8.82859802 0 -6.78974533
v -8.82859802 2.01295757 -6.78974533
v -8.67298889 2.01295805 -6.78974533
v -8.67297363 0.82244444 -4.78013229
v -8.7940979 0.82244444 -4.78013229
v -8.7940979 0.82244444 -6.48900986
v -8.67297363 0.82244444 -6.48900986
v -8.67297363 1.044765 -6.48900986
v -8.7940979 1.044765 -6.48900986
v -8.7940979 1.044765 -4.78013229
v -8.67297363 1.044765 -4.78013229
v -8.67297363 2.56023359 -6.78974533
v -8.91459656 2.56023359 -6.78974533
v -8.91459656 2.56023359 -4.47939682
v -8.67297363 2.56023359 -4.47939682
v -8.67298889 2.01295805 -4.47939682
v -8.91459656 2.01295757 -4.47939682
v -8.91459656 2.01295757 -6.78974533
v -8.67298889 2.01295805 -6.78974533
v -8.67298889 2.01295805 -4.47939682
v -8.67297363 2.56023359 -4.47939682
v -8.91459656 2.56023359 -4.47939682
v -8.91459656 2.01295757 -4.47939682
v -8.67297363 2.56023359 -6.78974533
v -8.67298889 2.01295805 -6.78974533
v -8.91459656 2.01295757 -6.78974533
v -8.91459656 2.56023359 -6.78974533
v -8.76304626 1.0958209 -5.77852249
v -8.76304626 1.0958209 -6.45285416
v -8.76304626 1.02183819 -6.50103378
v -8.76304626 1.02183819 -5.73034286
v -8.76304626 1.95720816 -5.77852249
v -8.76304626 2.03119087 -5.73034286
v -8.76304626 2.03119087 -6.50103378
v -8.76304626 1.95720816 -6.45285416
v -8.76304626 1.95720816 -5.77852249
v -8.76304626 1.95720816 -6.45285416
v -8.76304626 1.0958209 -6.45285416
v -8.76304626 1.0958209 -5.77852249
v -8.76304626 1.0958209 -4.8172493
v -8.76304626 1.0958209 -5.49158096
v -8.76304626 1.02183819 -5.53976059
v -8.76304626 1.02183819 -4.76906967
v -8.76304626 1.95720816 -4.8172493
v -8.76304626 2.03119087 -4.76906967
v -8.76304626 2.03119087 -5.53976059
v -8.76304626 1.95720816 -5.49158096
v -8.76304626 1.95720816 -4.8172493
v -8.76304626 1.95720816 -5.49158096
v -8.76304626 1.0958209 -5.49158096
v -8.76304626 1.0958209 -4.8172493
v -8.69035339 2.01295757 -1.69995499
v -8.7875061 2.01295757 -1.69995499
v -8.7875061 1.04476118 -1.69995499
v -8.69035339 1.04476118 -1.69995499
v -8.69035339 1.04476118 -1.93080521
v -8.7875061 1.04476118 -1.93080521
v -8.7875061 2.01295757 -1.93080521
v -8.69035339 2.01295757 -1.93080521
v -8.67298889 2.01295805 -0.66020584
v -8.82859802 2.01295757 -0.66020584
v -8.82859802 0 -0.66020584
v -8.67297363 0 -0.66020584
v -8.67297363 0 -0.96094131
v -8.82859802 0 -0.96094131
v -8.82859802 2.01295757 -0.96094131
v -8.67297363 2.01295757 -0.96094131
v -8.67297363 2.01295757 -2.66981888
v -8.82859802 2.01295757 -2.66981888
v -8.82859802 0 -2.66981888
v -8.67297363 0 -2.66981888
v -8.67297363 0 -2.97055435
v -8.82859802 0 -2.97055435
v -8.82859802 2.01295757 -2.97055435
v -8.67298889 2.01295805 -2.97055435
v -8.67297363 0.82244444 -0.96094131
v -8.7940979 0.82244444 -0.96094131
v -8.7940979 0.82244444 -2.66981888
v -8.67297363 0.82244444 -2.66981888
v -8.67297363 1.044765 -2.66981888
v -8.7940979 1.044765 -2.66981888
v -8.7940979 1.044765 -0.96094131
v -8.67297363 1.044765 -0.96094131
v -8.67297363 2.56023359 -2.97055435
v -8.91459656 2.56023359 -2.97055435
v -8.91459656 2.56023359 -0.66020584
v -8.67297363 2.56023359 -0.66020584
v -8.67298889 2.01295805 -0.66020584
v -8.91459656 2.01295757 -0.66020584
v -8.91459656 2.01295757 -2.97055435
v -8.67298889 2.01295805 -2.97055435
v -8.67298889 2.01295805 -0.66020584
v -8.67297363 2.56023359 -0.66020584
v -8.91459656 2.56023359 -0.66020584
v -8.91459656 2.01295757 -0.66020584
v -8.67297363 2.56023359 -2.97055435
v -8.67298889 2.01295805 -2.97055435
v -8.91459656 2.01295757 -2.97055435
v -8.91459656 2.56023359 -2.97055435
v -8.76304626 1.0958209 -1.95933151
v -8.76304626 1.0958209 -2.63366318
v -8.76304626 1.02183819 -2.6818428
v -8.76304626 1.02183819 -1.91115189
v -8.76304626 1.95720816 -1.95933151
v -8.76304626 2.03119087 -1.91115189
v -8.76304626 2.03119087 -2.6818428
v -8.76304626 1.95720816 -2.63366318
v -8.76304626 1.95720816 -1.95933151
v -8.76304626 1.95720816 -2.63366318
v -8.76304626 1.0958209 -2.63366318
v -8.76304626 1.0958209 -1.95933151
v -8.76304626 1.0958209 -0.99805832
v -8.76304626 1.0958209 -1.67238998
v -8.76304626 1.02183819 -1.72056961
v -8.76304626 1.02183819 -0.94987869
v -8.76304626 1.95720816 -0.99805832
v -8.76304626 2.03119087 -0.94987869
v -8.76304626 2.03119087 -1.72056961
v -8.76304626 1.95720816 -1.67238998
v -8.76304626 1.95720816 -0.99805832
v -8.76304626 1.95720816 -1.67238998
v -8.76304626 1.0958209 -1.67238998
v -8.76304626 1.0958209 -0.99805832
v -8.69035339 2.01295757 1.93079758
v -8.7875061 2.01295757 1.93079758
v -8.7875061 1.04476118 1.93079758
v -8.69035339 1.04476118 1.93079758
v -8.69035339 1.04476118 1.69994736
v -8.7875061 1.04476118 1.69994736
v -8.7875061 2.01295757 1.69994736
v -8.69035339 2.01295757 1.69994736
v -8.67298889 2.01295805 2.97054672
v -8.82859802 2.01295757 2.97054672
v -8.82859802 0 2.97054672
v -8.67297363 0 2.97054672
v -8.67297363 0 2.66981125
v -8.82859802 0 2.66981125
v -8.82859802 2.01295757 2.66981125
v -8.67297363 2.01295757 2.66981125
v -8.67297363 2.01295757 0.96093369
v -8.82859802 2.01295757 0.96093369
v -8.82859802 0 0.96093369
v -8.67297363 0 0.96093369
v -8.67297363 0 0.66019821
v -8.82859802 0 0.66019821
v -8.82859802 2.01295757 0.66019821
v -8.67298889 2.01295805 0.66019821
v -8.67297363 0.82244444 2.66981125
v -8.7940979 0.82244444 2.66981125
v -8.7940979 0.82244444 0.96093369
v -8.67297363 0.82244444 0.96093369
v -8.67297363 1.044765 0.96093369
v -8.7940979 1.044765 0.96093369
v -8.7940979 1.044765 2.66981125
v -8.67297363 1.044765 2.66981125
v -8.67297363 2.56023359 0.66019821
v -8.91459656 2.56023359 0.66019821
v -8.91459656 2.56023359 2.97054672
v -8.67297363 2.56023359 2.97054672
v -8.67298889 2.01295805 2.97054672
v -8.91459656 2.01295757 2.97054672
v -8.91459656 2.01295757 0.66019821
v -8.67298889 2.01295805 0.66019821
v -8.67298889 2.01295805 2.97054672
v -8.67297363 2.56023359 2.97054672
v -8.91459656 2.56023359 2.97054672
v -8.91459656 2.01295757 2.97054672
v -8.67297363 2.56023359 0.66019821
v -8.67298889 2.01295805 0.66019821
v -8.91459656 2.01295757 0.66019821
v -8.91459656 2.56023359 0.66019821
v -8.76304626 1.0958209 1.67142105
v -8.76304626 1.0958209 0.99708939
v -8.76304626 1.02183819 0.94890976
v -8.76304626 1.02183819 1.71960068
v -8.76304626 1.95720816 1.67142105
v -8.76304626 2.03119087 1.71960068
v -8.76304626 2.03119087 0.94890976
v -8.76304626 1.95720816 0.99708939
v -8.76304626 1.95720816 1.67142105
v -8.76304626 1.95720816 0.99708939
v -8.76304626 1.0958209 0.99708939
v -8.76304626 1.0958209 1.67142105
v -8.76304626 1.0958209 2.63269424
v -8.76304626 1.0958209 1.95836258
v -8.76304626 1.02183819 1.91018295
v -8.76304626 1.02183819 2.68087387
v -8.76304626 1.95720816 2.63269424
v -8.76304626 2.03119087 2.68087387
v -8.76304626 2.03119087 1.91018295
v -8.76304626 1.95720816 1.95836258
v -8.76304626 1.95720816 2.63269424
v -8.76304626 1.95720816 1.95836258
v -8.76304626 1.0958209 1.95836258
v -8.76304626 1.0958209 2.63269424
v -8.69035339 2.01295757 5.74998856
v -8.7875061 2.01295757 5.74998856
v -8.7875061 1.04476118 5.74998856
v -8.69035339 1.04476118 5.74998856
v -8.69035339 1.04476118 5.51913834
v -8.7875061 1.04476118 5.51913834
v -8.7875061 2.01295757 5.51913834
v -8.69035339 2.01295757 5.51913834
v -8.67298889 2.01295805 6.7897377
v -8.82859802 2.01295757 6.7897377
v -8.82859802 0 6.7897377
v -8.67297363 0 6.7897377
v -8.67297363 0 6.48900223
v -8.82859802 0 6.48900223
v -8.82859802 2.01295757 6.48900223
v -8.67297363 2.01295757 6.48900223
v -8.67297363 2.01295757 4.78012466
v -8.82859802 2.01295757 4.78012466
v -8.82859802 0 4.78012466
v -8.67297363 0 4.78012466
v -8.67297363 0 4.47938919
v -8.82859802 0 4.47938919
v -8.82859802 2.01295757 4.47938919
v -8.67298889 2.01295805 4.47938919
v -8.67297363 0.82244444 6.48900223
v -8.7940979 0.82244444 6.48900223
v -8.7940979 0.82244444 4.78012466
v -8.67297363 0.82244444 4.78012466
v -8.67297363 1.044765 4.78012466
v -8.7940979 1.044765 4.78012466
v -8.7940979 1.044765 6.48900223
v -8.67297363 1.044765 6.48900223
v -8.67297363 2.56023359 4.47938919
v -8.91459656 2.56023359 4.47938919
v -8.91459656 2.56023359 6.7897377
v -8.67297363 2.56023359 6.7897377
v -8.67298889 2.01295805 6.7897377
v -8.91459656 2.01295757 6.7897377
v -8.91459656 2.01295757 4.47938919
v -8.67298889 2.01295805 4.47938919
v -8.67298889 2.01295805 6.7897377
v -8.67297363 2.56023359 6.7897377
v -8.91459656 2.56023359 6.7897377
v -8.91459656 2.01295757 6.7897377
v -8.67297363 2.56023359 4.47938919
v -8.67298889 2.01295805 4.47938919
v -8.91459656 2.01295757 4.47938919
v -8.91459656 2.56023359 4.47938919
v -8.76304626 1.0958209 5.49061203
v -8.76304626 1.0958209 4.81628036
v -8.76304626 1.02183819 4.76810074
v -8.76304626 1.02183819 5.53879166
v -8.76304626 1.95720816 5.49061203
v -8.76304626 2.03119087 5.53879166
v -8.76304626 2.03119087 4.76810074
v -8.76304626 1.95720816 4.81628036
v -8.76304626 1.95720816 5.49061203
v -8.76304626 1.95720816 4.81628036
v -8.76304626 1.0958209 4.81628036
v -8.76304626 1.0958209 5.49061203
v -8.76304626 1.0958209 6.45188522
v -8.76304626 1.0958209 5.77755356
v -8.76304626 1.02183819 5.72937393
v -8.76304626 1.02183819 6.50006485
v -8.76304626 1.95720816 6.45188522
v -8.76304626 2.03119087 6.50006485
v -8.76304626 2.03119087 5.72937393
v -8.76304626 1.95720816 5.77755356
v -8.76304626 1.95720816 6.45188522
v -8.76304626 1.95720816 5.77755356
v -8.76304626 1.0958209 5.77755356
v -8.76304626 1.0958209 6.45188522
v 5.51914215 2.01295757 -8.69034958
v 5.51914215 2.01295757 -8.78750992
v 5.51914215 1.04476118 -8.78750992
v 5.51914215 1.04476118 -8.69034958
v 5.74999237 1.04476118 -8.69034958
v 5.74999237 1.04476118 -8.78750992
v 5.74999237 2.01295757 -8.78750992
v 5.74999237 2.01295757 -8.69034958
v 4.47939301 2.01295805 -8.67298508
v 4.47939301 2.01295757 -8.82860184
v 4.47939301 0 -8.82860184
v 4.47939301 0 -8.67296982
v 4.78012848 0 -8.67296982
v 4.78012848 0 -8.82860184
v 4.78012848 2.01295757 -8.82860184
v 4.78012848 2.01295757 -8.67296982
v 6.48900604 2.01295757 -8.67296982
v 6.48900604 2.01295757 -8.82860184
v 6.48900604 0 -8.82860184
v 6.48900604 0 -8.67296982
v 6.78974152 0 -8.67296982
v 6.78974152 0 -8.82860184
v 6.78974152 2.01295757 -8.82860184
v 6.78974152 2.01295805 -8.67298508
v 4.78012848 0.82244444 -8.67296982
v 4.78012848 0.82244444 -8.79409409
v 6.48900604 0.82244444 -8.79409409
v 6.48900604 0.82244444 -8.67296982
v 6.48900604 1.044765 -8.67296982
v 6.48900604 1.044765 -8.79409409
v 4.78012848 1.044765 -8.79409409
v 4.78012848 1.044765 -8.67296982
v 6.78974152 2.56023359 -8.67296982
v 6.78974152 2.56023359 -8.91460037
v 4.47939301 2.56023359 -8.91460037
v 4.47939301 2.56023359 -8.67296982
v 4.47939301 2.01295805 -8.67298508
v 4.47939301 2.01295757 -8.91460037
v 6.78974152 2.01295757 -8.91460037
v 6.78974152 2.01295805 -8.67298508
v 4.47939301 2.01295805 -8.67298508
v 4.47939301 2.56023359 -8.67296982
v 4.47939301 2.56023359 -8.91460037
v 4.47939301 2.01295757 -8.91460037
v 6.78974152 2.56023359 -8.67296982
v 6.78974152 2.01295805 -8.67298508
v 6.78974152 2.01295757 -8.91460037
v 6.78974152 2.56023359 -8.91460037
v 5.77851868 1.0958209 -8.76304245
v 6.45285034 1.0958209 -8.76304245
v 6.50102997 1.02183819 -8.76304245
v 5.73033905 1.02183819 -8.76304245
v 5.77851868 1.95720816 -8.76304245
v 5.73033905 2.03119087 -8.76304245
v 6.50102997 2.03119087 -8.76304245
v 6.45285034 1.95720816 -8.76304245
v 5.77851868 1.95720816 -8.76304245
v 6.45285034 1.95720816 -8.76304245
v 6.45285034 1.0958209 -8.76304245
v 5.77851868 1.0958209 -8.76304245
v 4.81724548 1.0958209 -8.76304245
v 5.49157715 1.0958209 -8.76304245
v 5.53975677 1.02183819 -8.76304245
v 4.76906586 1.02183819 -8.76304245
v 4.81724548 1.95720816 -8.76304245
v 4.76906586 2.03119087 -8.76304245
v 5.53975677 2.03119087 -8.76304245
v 5.49157715 1.95720816 -8.76304245
v 4.81724548 1.95720816 -8.76304245
v 5.49157715 1.95720816 -8.76304245
v 5.49157715 1.0958209 -8.76304245
v 4.81724548 1.0958209 -8.76304245
v 1.69995117 2.01295757 -8.69034958
v 1.69995117 2.01295757 -8.78750992
v 1.69995117 1.04476118 -8.78750992
v 1.69995117 1.04476118 -8.69034958
v 1.93080139 1.04476118 -8.69034958
v 1.93080139 1.04476118 -8.78750992
v 1.93080139 2.01295757 -8.78750992
v 1.93080139 2.01295757 -8.69034958
v 0.66020203 2.01295805 -8.67298508
v 0.66020203 2.01295757 -8.82860184
v 0.66020203 0 -8.82860184
v 0.66020203 0 -8.67296982
v 0.9609375 0 -8.67296982
v 0.9609375 0 -8.82860184
v 0.9609375 2.01295757 -8.82860184
v 0.9609375 2.01295757 -8.67296982
v 2.66981506 2.01295757 -8.67296982
v 2.66981506 2.01295757 -8.82860184
v 2.66981506 0 -8.82860184
v 2.66981506 0 -8.67296982
v 2.97055054 0 -8.67296982
v 2.97055054 0 -8.82860184
v 2.97055054 2.01295757 -8.82860184
v 2.97055054 2.01295805 -8.67298508
v 0.9609375 0.82244444 -8.67296982
v 0.9609375 0.82244444 -8.79409409
v 2.66981506 0.82244444 -8.79409409
v 2.66981506 0.82244444 -8.67296982
v 2.66981506 1.044765 -8.67296982
v 2.66981506 1.044765 -8.79409409
v 0.9609375 1.044765 -8.79409409
v 0.9609375 1.044765 -8.67296982
v 2.97055054 2.56023359 -8.67296982
v 2.97055054 2.56023359 -8.91460037
v 0.66020203 2.56023359 -8.91460037
v 0.66020203 2.56023359 -8.67296982
v 0.66020203 2.01295805 -8.67298508
v 0.66020203 2.01295757 -8.91460037
v 2.97055054 2.01295757 -8.91460037
v 2.97055054 2.01295805 -8.67298508
v 0.66020203 2.01295805 -8.67298508
v 0.66020203 2.56023359 -8.67296982
v 0.66020203 2.56023359 -8.91460037
v 0.66020203 2.01295757 -8.91460037
v 2.97055054 2.56023359 -8.67296982
v 2.97055054 2.01295805 -8.67298508
v 2.97055054 2.01295757 -8.91460037
v 2.97055054 2.56023359 -8.91460037
v 1.9593277 1.0958209 -8.76304245
v 2.63365936 1.0958209 -8.76304245
v 2.68183899 1.02183819 -8.76304245
v 1.91114807 1.02183819 -8.76304245
v 1.9593277 1.95720816 -8.76304245
v 1.91114807 2.03119087 -8.76304245
v 2.68183899 2.03119087 -8.76304245
v 2.63365936 1.95720816 -8.76304245
v 1.9593277 1.95720816 -8.76304245
v 2.63365936 1.95720816 -8.76304245
v 2.63365936 1.0958209 -8.76304245
v 1.9593277 1.0958209 -8.76304245
v 0.9980545 1.0958209 -8.76304245
v 1.67238617 1.0958209 -8.76304245
v 1.7205658 1.02183819 -8.76304245
v 0.94987488 1.02183819 -8.76304245
v 0.9980545 1.95720816 -8.76304245
v 0.94987488 2.03119087 -8.76304245
v 1.7205658 2.03119087 -8.76304245
v 1.67238617 1.95720816 -8.76304245
v 0.9980545 1.95720816 -8.76304245
v 1.67238617 1.95720816 -8.76304245
v 1.67238617 1.0958209 -8.76304245
v 0.9980545 1.0958209 -8.76304245
v -1.93080139 2.01295757 -8.69034958
v -1.93080139 2.01295757 -8.78750992
v -1.93080139 1.04476118 -8.78750992
v -1.93080139 1.04476118 -8.69034958
v -1.69995117 1.04476118 -8.69034958
v -1.69995117 1.04476118 -8.78750992
v -1.69995117 2.01295757 -8.78750992
v -1.69995117 2.01295757 -8.69034958
v -2.97055054 2.01295805 -8.67298508
v -2.97055054 2.01295757 -8.82860184
v -2.97055054 0 -8.82860184
v -2.97055054 0 -8.67296982
v -2.66981506 0 -8.67296982
v -2.66981506 0 -8.82860184
v -2.66981506 2.01295757 -8.82860184
v -2.66981506 2.01295757 -8.67296982
v -0.9609375 2.01295757 -8.67296982
v -0.9609375 2.01295757 -8.82860184
v -0.9609375 0 -8.82860184
v -0.9609375 0 -8.67296982
v -0.66020203 0 -8.67296982
v -0.66020203 0 -8.82860184
v -0.66020203 2.01295757 -8.82860184
v -0.66020203 2.01295805 -8.67298508
v -2.66981506 0.82244444 -8.67296982
v -2.66981506 0.82244444 -8.79409409
v -0.9609375 0.82244444 -8.79409409
v -0.9609375 0.82244444 -8.67296982
v -0.9609375 1.044765 -8.67296982
v -0.9609375 1.044765 -8.79409409
v -2.66981506 1.044765 -8.79409409
v -2.66981506 1.044765 -8.67296982
v -0.66020203 2.56023359 -8.67296982
v -0.66020203 2.56023359 -8.91460037
v -2.97055054 2.56023359 -8.91460037
v -2.97055054 2.56023359 -8.67296982
v -2.97055054 2.01295805 -8.67298508
v -2.97055054 2.01295757 -8.91460037
v -0.66020203 2.01295757 -8.91460037
v -0.66020203 2.01295805 -8.67298508
v -2.97055054 2.01295805 -8.67298508
v -2.97055054 2.56023359 -8.67296982
v -2.97055054 2.56023359 -8.91460037
v -2.97055054 2.01295757 -8.91460037
v -0.66020203 2.56023359 -8.67296982
v -0.66020203 2.01295805 -8.67298508
v -0.66020203 2.01295757 -8.91460037
v -0.66020203 2.56023359 -8.91460037
v -1.67142487 1.0958209 -8.76304245
v -0.9970932 1.0958209 -8.76304245
v -0.94891357 1.02183819 -8.76304245
v -1.71960449 1.02183819 -8.76304245
v -1.67142487 1.95720816 -8.76304245
v -1.71960449 2.03119087 -8.76304245
v -0.94891357 2.03119087 -8.76304245
v -0.9970932 1.95720816 -8.76304245
v -1.67142487 1.95720816 -8.76304245
v -0.9970932 1.95720816 -8.76304245
v -0.9970932 1.0958209 -8.76304245
v -1.67142487 1.0958209 -8.76304245
v -2.63269806 1.0958209 -8.76304245
v -1.95836639 1.0958209 -8.76304245
v -1.91018677 1.02183819 -8.76304245
v -2.68087769 1.02183819 -8.76304245
v -2.63269806 1.95720816 -8.76304245
v -2.68087769 2.03119087 -8.76304245
v -1.91018677 2.03119087 -8.76304245
v -1.95836639 1.95720816 -8.76304245
v -2.63269806 1.95720816 -8.76304245
v -1.95836639 1.95720816 -8.76304245
v -1.95836639 1.0958209 -8.76304245
v -2.63269806 1.0958209 -8.76304245
v -5.74999237 2.01295757 -8.69034958
v -5.74999237 2.01295757 -8.78750992
v -5.74999237 1.04476118 -8.78750992
v -5.74999237 1.04476118 -8.69034958
v -5.51914215 1.04476118 -8.69034958
v -5.51914215 1.04476118 -8.78750992
v -5.51914215 2.01295757 -8.78750992
v -5.51914215 2.01295757 -8.69034958
v -6.78974152 2.01295805 -8.67298508
v -6.78974152 2.01295757 -8.82860184
v -6.78974152 0 -8.82860184
v -6.78974152 0 -8.67296982
v -6.48900604 0 -8.67296982
v -6.48900604 0 -8.82860184
v -6.48900604 2.01295757 -8.82860184
v -6.48900604 2.01295757 -8.67296982
v -4.78012848 2.01295757 -8.67296982
v -4.78012848 2.01295757 -8.82860184
v -4.78012848 0 -8.82860184
v -4.78012848 0 -8.67296982
v -4.47939301 0 -8.67296982
v -4.47939301 0 -8.82860184
v -4.47939301 2.01295757 -8.82860184
v -4.47939301 2.01295805 -8.67298508
v -6.48900604 0.82244444 -8.67296982
v -6.48900604 0.82244444 -8.79409409
v -4.78012848 0.82244444 -8.79409409
v -4.78012848 0.82244444 -8.67296982
v -4.78012848 1.044765 -8.67296982
v -4.78012848 1.044765 -8.79409409
v -6.48900604 1.044765 -8.79409409
v -6.48900604 1.044765 -8.67296982
v -4.47939301 2.56023359 -8.67296982
v -4.47939301 2.56023359 -8.91460037
v -6.78974152 2.56023359 -8.91460037
v -6.78974152 2.56023359 -8.67296982
v -6.78974152 2.01295805 -8.67298508
v -6.78974152 2.01295757 -8.91460037
v -4.47939301 2.01295757 -8.91460037
v -4.47939301 2.01295805 -8.67298508
v -6.78974152 2.01295805 -8.67298508
v -6.78974152 2.56023359 -8.67296982
v -6.78974152 2.56023359 -8.91460037
v -6.78974152 2.01295757 -8.91460037
v -4.47939301 2.56023359 -8.67296982
v -4.47939301 2.01295805 -8.67298508
v -4.47939301 2.01295757 -8.91460037
v -4.47939301 2.56023359 -8.91460037
v -5.49061584 1.0958209 -8.76304245
v -4.81628418 1.0958209 -8.76304245
v -4.76810455 1.02183819 -8.76304245
v -5.53879547 1.02183819 -8.76304245
v -5.49061584 1.95720816 -8.76304245
v -5.53879547 2.03119087 -8.76304245
v -4.76810455 2.03119087 -8.76304245
v -4.81628418 1.95720816 -8.76304245
v -5.49061584 1.95720816 -8.76304245
v -4.81628418 1.95720816 -8.76304245
v -4.81628418 1.0958209 -8.76304245
v -5.49061584 1.0958209 -8.76304245
v -6.45188904 1.0958209 -8.76304245
v -5.77755737 1.0958209 -8.76304245
v -5.72937775 1.02183819 -8.76304245
v -6.50006866 1.02183819 -8.76304245
v -6.45188904 1.95720816 -8.76304245
v -6.50006866 2.03119087 -8.76304245
v -5.72937775 2.03119087 -8.76304245
v -5.77755737 1.95720816 -8.76304245
v -6.45188904 1.95720816 -8.76304245
v -5.77755737 1.95720816 -8.76304245
v -5.77755737 1.0958209 -8.76304245
v -6.45188904 1.0958209 -8.76304245
v 8.69035339 2.01295757 5.51914597
v 8.78751373 2.01295757 5.51914597
v 8.78751373 1.04476118 5.51914597
v 8.69035339 1.04476118 5.51914597
v 8.69035339 1.04476118 5.74999619
v 8.78751373 1.04476118 5.74999619
v 8.78751373 2.01295757 5.74999619
v 8.69035339 2.01295757 5.74999619
v 8.67298889 2.01295805 4.47939682
v 8.82860565 2.01295757 4.47939682
v 8.82860565 0 4.47939682
v 8.67297363 0 4.47939682
v 8.67297363 0 4.78013229
v 8.82860565 0 4.78013229
v 8.82860565 2.01295757 4.78013229
v 8.67297363 2.01295757 4.78013229
v 8.67297363 2.01295757 6.48900986
v 8.82860565 2.01295757 6.48900986
v 8.82860565 0 6.48900986
v 8.67297363 0 6.48900986
v 8.67297363 0 6.78974533
v 8.82860565 0 6.78974533
v 8.82860565 2.01295757 6.78974533
v 8.67298889 2.01295805 6.78974533
v 8.67297363 0.82244444 4.78013229
v 8.7940979 0.82244444 4.78013229
v 8.7940979 0.82244444 6.48900986
v 8.67297363 0.82244444 6.48900986
v 8.67297363 1.044765 6.48900986
v 8.7940979 1.044765 6.48900986
v 8.7940979 1.044765 4.78013229
v 8.67297363 1.044765 4.78013229
v 8.67297363 2.56023359 6.78974533
v 8.91460419 2.56023359 6.78974533
v 8.91460419 2.56023359 4.47939682
v 8.67297363 2.56023359 4.47939682
v 8.67298889 2.01295805 4.47939682
v 8.91460419 2.01295757 4.47939682
v 8.91460419 2.01295757 6.78974533
v 8.67298889 2.01295805 6.78974533
v 8.67298889 2.01295805 4.47939682
v 8.67297363 2.56023359 4.47939682
v 8.91460419 2.56023359 4.47939682
v 8.91460419 2.01295757 4.47939682
v 8.67297363 2.56023359 6.78974533
v 8.67298889 2.01295805 6.78974533
v 8.91460419 2.01295757 6.78974533
v 8.91460419 2.56023359 6.78974533
v 8.76304626 1.0958209 5.77851486
v 8.76304626 1.0958209 6.45284653
v 8.76304626 1.02183819 6.50103378
v 8.76304626 1.02183819 5.73034286
v 8.76304626 1.95720816 5.77851486
v 8.76304626 2.03119087 5.73034286
v 8.76304626 2.03119087 6.50103378
v 8.76304626 1.95720816 6.45284653
v 8.76304626 1.95720816 5.77851486
v 8.76304626 1.95720816 6.45284653
v 8.76304626 1.0958209 6.45284653
v 8.76304626 1.0958209 5.77851486
v 8.76304626 1.0958209 4.81724167
v 8.76304626 1.0958209 5.49157333
v 8.76304626 1.02183819 5.53976059
v 8.76304626 1.02183819 4.76906967
v 8.76304626 1.95720816 4.81724167
v 8.76304626 2.03119087 4.76906967
v 8.76304626 2.03119087 5.53976059
v 8.76304626 1.95720816 5.49157333
v 8.76304626 1.95720816 4.81724167
v 8.76304626 1.95720816 5.49157333
v 8.76304626 1.0958209 5.49157333
v 8.76304626 1.0958209 4.81724167
v 8.69035339 2.01295757 1.69995117
v 8.78751373 2.01295757 1.69995117
v 8.78751373 1.04476118 1.69995117
v 8.69035339 1.04476118 1.69995117
v 8.69035339 1.04476118 1.93080139
v 8.78751373 1.04476118 1.93080139
v 8.78751373 2.01295757 1.93080139
v 8.69035339 2.01295757 1.93080139
v 8.67298889 2.01295805 0.66020203
v 8.82860565 2.01295757 0.66020203
v 8.82860565 0 0.66020203
v 8.67297363 0 0.66020203
v 8.67297363 0 0.9609375
v 8.82860565 0 0.9609375
v 8.82860565 2.01295757 0.9609375
v 8.67297363 2.01295757 0.9609375
v 8.67297363 2.01295757 2.66981506
v 8.82860565 2.01295757 2.66981506
v 8.82860565 0 2.66981506
v 8.67297363 0 2.66981506
v 8.67297363 0 2.97055054
v 8.82860565 0 2.97055054
v 8.82860565 2.01295757 2.97055054
v 8.67298889 2.01295805 2.97055054
v 8.67297363 0.82244444 0.9609375
v 8.7940979 0.82244444 0.9609375
v 8.7940979 0.82244444 2.66981506
v 8.67297363 0.82244444 2.66981506
v 8.67297363 1.044765 2.66981506
v 8.7940979 1.044765 2.66981506
v 8.7940979 1.044765 0.9609375
v 8.67297363 1.044765 0.9609375
v 8.67297363 2.56023359 2.97055054
v 8.91460419 2.56023359 2.97055054
v 8.91460419 2.56023359 0.66020203
v 8.67297363 2.56023359 0.66020203
v 8.67298889 2.01295805 0.66020203
v 8.91460419 2.01295757 0.66020203
v 8.91460419 2.01295757 2.97055054
v 8.67298889 2.01295805 2.97055054
v 8.67298889 2.01295805 0.66020203
v 8.67297363 2.56023359 0.66020203
v 8.91460419 2.56023359 0.66020203
v 8.91460419 2.01295757 0.66020203
v 8.67297363 2.56023359 2.97055054
v 8.67298889 2.01295805 2.97055054
v 8.91460419 2.01295757 2.97055054
v 8.91460419 2.56023359 2.97055054
v 8.76304626 1.0958209 1.9593277
v 8.76304626 1.0958209 2.63365936
v 8.76304626 1.02183819 2.68183899
v 8.76304626 1.02183819 1.91114807
v 8.76304626 1.95720816 1.9593277
v 8.76304626 2.03119087 1.91114807
v 8.76304626 2.03119087 2.68183899
v 8.76304626 1.95720816 2.63365936
v 8.76304626 1.95720816 1.9593277
v 8.76304626 1.95720816 2.63365936
v 8.76304626 1.0958209 2.63365936
v 8.76304626 1.0958209 1.9593277
v 8.76304626 1.0958209 0.9980545
v 8.76304626 1.0958209 1.67238617
v 8.76304626 1.02183819 1.7205658
v 8.76304626 1.02183819 0.94987488
v 8.76304626 1.95720816 0.9980545
v 8.76304626 2.03119087 0.94987488
v 8.76304626 2.03119087 1.7205658
v 8.76304626 1.95720816 1.67238617
v 8.76304626 1.95720816 0.9980545
v 8.76304626 1.95720816 1.67238617
v 8.76304626 1.0958209 1.67238617
v 8.76304626 1.0958209 0.9980545
v 8.69035339 2.01295757 -1.93080139
v 8.78751373 2.01295757 -1.93080139
v 8.78751373 1.04476118 -1.93080139
v 8.69035339 1.04476118 -1.93080139
v 8.69035339 1.04476118 -1.69995117
v 8.78751373 1.04476118 -1.69995117
v 8.78751373 2.01295757 -1.69995117
v 8.69035339 2.01295757 -1.69995117
v 8.67298889 2.01295805 -2.97055054
v 8.82860565 2.01295757 -2.97055054
v 8.82860565 0 -2.97055054
v 8.67297363 0 -2.97055054
v 8.67297363 0 -2.66981506
v 8.82860565 0 -2.66981506
v 8.82860565 2.01295757 -2.66981506
v 8.67297363 2.01295757 -2.66981506
v 8.67297363 2.01295757 -0.9609375
v 8.82860565 2.01295757 -0.9609375
v 8.82860565 0 -0.9609375
v 8.67297363 0 -0.9609375
v 8.67297363 0 -0.66020203
v 8.82860565 0 -0.66020203
v 8.82860565 2.01295757 -0.66020203
v 8.67298889 2.01295805 -0.66020203
v 8.67297363 0.82244444 -2.66981506
v 8.7940979 0.82244444 -2.66981506
v 8.7940979 0.82244444 -0.9609375
v 8.67297363 0.82244444 -0.9609375
v 8.67297363 1.044765 -0.9609375
v 8.7940979 1.044765 -0.9609375
v 8.7940979 1.044765 -2.66981506
v 8.67297363 1.044765 -2.66981506
v 8.67297363 2.56023359 -0.66020203
v 8.91460419 2.56023359 -0.66020203
v 8.91460419 2.56023359 -2.97055054
v 8.67297363 2.56023359 -2.97055054
v 8.67298889 2.01295805 -2.97055054
v 8.91460419 2.01295757 -2.97055054
v 8.91460419 2.01295757 -0.66020203
v 8.67298889 2.01295805 -0.66020203
v 8.67298889 2.01295805 -2.97055054
v 8.67297363 2.56023359 -2.97055054
v 8.91460419 2.56023359 -2.97055054
v 8.91460419 2.01295757 -2.97055054
v 8.67297363 2.56023359 -0.66020203
v 8.67298889 2.01295805 -0.66020203
v 8.91460419 2.01295757 -0.66020203
v 8.91460419 2.56023359 -0.66020203
v 8.76304626 1.0958209 -1.67142487
v 8.76304626 1.0958209 -0.9970932
v 8.76304626 1.02183819 -0.94891357
v 8.76304626 1.02183819 -1.71960449
v 8.76304626 1.95720816 -1.67142487
v 8.76304626 2.03119087 -1.71960449
v 8.76304626 2.03119087 -0.94891357
v 8.76304626 1.95720816 -0.9970932
v 8.76304626 1.95720816 -1.67142487
v 8.76304626 1.95720816 -0.9970932
v 8.76304626 1.0958209 -0.9970932
v 8.76304626 1.0958209 -1.67142487
v 8.76304626 1.0958209 -2.63269806
v 8.76304626 1.0958209 -1.95836639
v 8.76304626 1.02183819 -1.91018677
v 8.76304626 1.02183819 -2.68087769
v 8.76304626 1.95720816 -2.63269806
v 8.76304626 2.03119087 -2.68087769
v 8.76304626 2.03119087 -1.91018677
v 8.76304626 1.95720816 -1.95836639
v 8.76304626 1.95720816 -2.63269806
v 8.76304626 1.95720816 -1.95836639
v 8.76304626 1.0958209 -1.95836639
v 8.76304626 1.0958209 -2.63269806
v 8.69035339 2.01295757 -5.74999237
v 8.78751373 2.01295757 -5.74999237
v 8.78751373 1.04476118 -5.74999237
v 8.69035339 1.04476118 -5.74999237
v 8.69035339 1.04476118 -5.51914215
v 8.78751373 1.04476118 -5.51914215
v 8.78751373 2.01295757 -5.51914215
v 8.69035339 2.01295757 -5.51914215
v 8.67298889 2.01295805 -6.78974152
v 8.82860565 2.01295757 -6.78974152
v 8.82860565 0 -6.78974152
v 8.67297363 0 -6.78974152
v 8.67297363 0 -6.48900604
v 8.82860565 0 -6.48900604
v 8.82860565 2.01295757 -6.48900604
v 8.67297363 2.01295757 -6.48900604
v 8.67297363 2.01295757 -4.78012848
v 8.82860565 2.01295757 -4.78012848
v 8.82860565 0 -4.78012848
v 8.67297363 0 -4.78012848
v 8.67297363 0 -4.47939301
v 8.82860565 0 -4.47939301
v 8.82860565 2.01295757 -4.47939301
v 8.67298889 2.01295805 -4.47939301
v 8.67297363 0.82244444 -6.48900604
v 8.7940979 0.82244444 -6.48900604
v 8.7940979 0.82244444 -4.78012848
v 8.67297363 0.82244444 -4.78012848
v 8.67297363 1.044765 -4.78012848
v 8.7940979 1.044765 -4.78012848
v 8.7940979 1.044765 -6.48900604
v 8.67297363 1.044765 -6.48900604
v 8.67297363 2.56023359 -4.47939301
v 8.91460419 2.56023359 -4.47939301
v 8.91460419 2.56023359 -6.78974152
v 8.67297363 2.56023359 -6.78974152
v 8.67298889 2.01295805 -6.78974152
v 8.91460419 2.01295757 -6.78974152
v 8.91460419 2.01295757 -4.47939301
v 8.67298889 2.01295805 -4.47939301
v 8.67298889 2.01295805 -6.78974152
v 8.67297363 2.56023359 -6.78974152
v 8.91460419 2.56023359 -6.78974152
v 8.91460419 2.01295757 -6.78974152
v 8.67297363 2.56023359 -4.47939301
v 8.67298889 2.01295805 -4.47939301
v 8.91460419 2.01295757 -4.47939301
v 8.91460419 2.56023359 -4.47939301
v 8.76304626 1.0958209 -5.49061584
v 8.76304626 1.0958209 -4.81628418
v 8.76304626 1.02183819 -4.76810455
v 8.76304626 1.02183819 -5.53879547
v 8.76304626 1.95720816 -5.49061584
v 8.76304626 2.03119087 -5.53879547
v 8.76304626 2.03119087 -4.76810455
v 8.76304626 1.95720816 -4.81628418
v 8.76304626 1.95720816 -5.49061584
v 8.76304626 1.95720816 -4.81628418
v 8.76304626 1.0958209 -4.81628418
v 8.76304626 1.0958209 -5.49061584
v 8.76304626 1.0958209 -6.45188904
v 8.76304626 1.0958209 -5.77755737
v 8.76304626 1.02183819 -5.72937775
v 8.76304626 1.02183819 -6.50006866
v 8.76304626 1.95720816 -6.45188904
v 8.76304626 2.03119087 -6.50006866
v 8.76304626 2.03119087 -5.72937775
v 8.76304626 1.95720816 -5.77755737
v 8.76304626 1.95720816 -6.45188904
v 8.76304626 1.95720816 -5.77755737
v 8.76304626 1.0958209 -5.77755737
v 8.76304626 1.0958209 -6.45188904
v 8.67297363 2.12329602 8.67297745
v -8.67297363 2.12329602 8.67297745
v -8.67297363 0.41919404 8.67297745
v 8.67297363 0.41919404 8.67297745
v 8.78700256 2.49999952 -8.78700256
v -8.78701019 2.49999952 -8.78700256
v -8.78701019 2.49999952 8.78699875
v 0 2.49999952 8.78699875
v 8.78700256 2.49999952 8.78699875
v 8.67297363 0.4191941 -8.67297363
v -8.67297363 0.4191941 -8.67297363
v -8.67297363 2.12329602 -8.67297363
v 8.67297363 2.12329602 -8.67297363
v 8.78700256 0 8.78699875
v -8.78701019 0 8.78699875
v -8.78701019 0 -8.78700256
v 8.78700256 0 -8.78700256
v -8.78701019 2.23458004 8.78699875
v 8.78700256 2.23458004 8.78699875
v 8.78700256 2.23458004 -8.78700256
v -8.78701019 2.23458004 -8.78700256
v -8.78701019 0.30790991 8.78699875
v -8.78701019 0.30790997 -8.78700256
v 8.78700256 0.30790991 8.78699875
v 8.78700256 0.30790997 -8.78700256
v 8.67297363 0.41919404 8.67297745
v -8.67297363 0.41919404 8.67297745
v -8.67297363 2.12329602 8.67297745
v 8.67297363 2.12329602 8.67297745
v 8.67297363 2.12329602 -8.67297363
v -8.67297363 2.12329602 -8.67297363
v -8.67297363 0.4191941 -8.67297363
v 8.67297363 0.4191941 -8.67297363
vn 1 0 0
vn -1 0 0
vn 0 0 1
vn 1 -0 0
vn 1 -0 0
vn 1 -0 0
vn 0 -1 0
vn 0 1 0
vn 0 -1 -0
vn 1 -1E-05 0
vn 1 -1E-05 0
vn 5E-05 0 1
vn 5E-05 0 1
vn -5E-05 0 1
vn -5E-05 0 1
vn 0 -1 -0
vn -1 1E-05 0
vn -1 1E-05 0
vn -1 1E-05 0
vn 0 -1 -0
vn 1 -1E-05 0
vn 1 -1E-05 0
vn 0 0 -1
vn -2E-05 0 1
vn -2E-05 0 1
vn 2E-05 0 -1
vn 2E-05 0 -1
vn 0 -1 0
vn 0 0 -1
vn 0 0 -1
vn -1 -0 0
vn -1 0 0
vn -1 -0 0
vn -1 -0 0
vn -1 0 0
vn -1 0 0
vn 2E-05 0 1
vn 2E-05 0 1
vn -2E-05 0 -1
vn -2E-05 0 -1
vn 0 0 -1
vn 0 0 -1
vn 2E-05 0 -1
vn 2E-05 0 -1
vn 2E-05 0 -1
vn -1 -0 0
vn -1 -0 0
vn -1 0 0
vn -1 0 0
vn 0 0 -1
vn 0 0 -1
vn -1 -0 0
vn -1 -0 0
vn -1 0 0
vn -1 0 0
vn 0 -1 0
vn 1 -1E-05 0
vn 1 -1E-05 0
vn 1 -1E-05 0
vn 5E-05 0 -1
vn -5E-05 0 -1
vn 0 -1 0
vn 0 -1 0
vn -1 1E-05 0
vn -1 1E-05 0
vn 1 -0 0
vn 1 -1E-05 0
vn 1 -1E-05 0
vn 1 -1E-05 0
vn -0 -1 0
vn 1E-05 0 1
vn 1 -8E-05 0
vn 1 -8E-05 0
vn 1 8E-05 0
vn 1 8E-05 0
vn 1 -8E-05 0
vn 1 -8E-05 0
vn 1 8E-05 0
vn 1 8E-05 0
vn -1E-05 0 1
vn -1E-05 0 1
vn 1 -3E-05 0
vn 1 3E-05 0
vn 1 -3E-05 0
vn 1 -3E-05 0
vn 1 3E-05 0
vn 1 3E-05 0
vn 2E-05 0 -1
vn 2E-05 0 -1
vn 2E-05 0 -1
vn -2E-05 0 1
vn -2E-05 0 1
vn -2E-05 0 1
vn 1E-05 0 -1
vn 1E-05 0 -1
vn -2E-05 0 1
vn -2E-05 0 1
vn -2E-05 0 -1
vn -2E-05 0 -1
vn -2E-05 0 -1
vn 2E-05 0 1
vn 2E-05 0 1
vn 2E-05 0 1
vn -0 0 1
vn -0 0 1
vn -0 0 1
vn 1 -3E-05 0
vn 1 3E-05 0
vn 0.40161 0.82305 0.40162
vn -0.40161 0.82304 0.40163
vn -0.40164 0.82304 0.4016
vn 0.40163 0.82305 0.40161
vn -0.40161 -0.82304 0.40163
vn 0.40162 -0.82305 0.40162
vn 0.40163 -0.82305 0.40161
vn -0.40164 -0.82304 0.4016
vn 0.40161 -0.82306 -0.40161
vn -0.40161 -0.82305 -0.40162
vn -0.40162 -0.82305 -0.4016
vn 0.40161 -0.82306 -0.40161
vn -0.40161 0.82305 -0.40162
vn 0.40161 0.82306 -0.40161
vn 0.40161 0.82306 -0.40161
vn -0.40162 0.82305 -0.40161
vt 0.65208 0.11054
vt 0.65208 0.11051
vt 0.65192 0.11063
vt 0.52991 0.10859
vt 0.83124 0.07688
vt 0.71212 0.07688
vt 0.71212 0.07597
vt 0.83124 0.07597
vt 0.52938 0.10884
vt 0.65143 0.11059
usemtl mat0
f 1/1/1 2/1/1 3/1/1
f 3/1/1 4/1/1 1/1/1
f 5/1/2 6/1/2 7/1/2
f 7/1/2 8/1/2 5/1/2
f 2/1/3 7/1/3 6/1/3
f 6/1/3 3/1/3 2/1/3
f 9/1/4 10/1/4 11/1/5
f 11/1/5 12/1/6 9/1/4
f 13/1/2 14/1/2 15/1/2
f 15/1/2 16/1/2 13/1/2
f 10/1/3 15/1/3 14/1/3
f 14/1/3 11/1/3 10/1/3
f 17/1/1 18/1/1 19/1/1
f 19/1/1 20/1/1 17/1/1
f 21/1/2 22/1/2 23/1/2
f 23/1/2 24/1/2 21/1/2
f 18/1/3 23/1/3 22/1/3
f 22/1/3 19/1/3 18/1/3
f 25/1/7 26/1/7 27/1/7
f 27/1/7 28/1/7 25/1/7
f 29/1/8 30/1/8 31/1/8
f 31/1/8 32/1/8 29/1/8
f 26/1/3 31/1/3 30/1/3
f 30/1/3 27/1/3 26/1/3
f 33/2/8 34/2/8 35/2/8
f 35/2/8 36/2/8 33/2/8
f 37/2/9 38/2/9 39/2/9
f 39/2/9 40/2/9 37/2/9
f 35/2/3 34/2/3 39/2/3
f 39/2/3 38/2/3 35/2/3
f 41/3/10 42/3/11 43/3/11
f 43/3/11 44/3/11 41/3/10
f 45/3/2 46/3/2 47/3/2
f 47/3/2 48/3/2 45/3/2
f 49/4/3 50/4/3 51/4/3
f 51/4/3 52/4/3 49/4/3
f 53/4/12 49/4/12 52/4/13
f 52/4/13 54/4/13 53/4/12
f 54/4/3 55/4/3 56/4/3
f 56/4/3 53/4/3 54/4/3
f 50/4/14 56/4/14 55/4/15
f 55/4/15 51/4/15 50/4/14
f 57/5/3 58/6/3 59/7/3
f 59/7/3 60/8/3 57/5/3
f 61/4/3 62/4/3 63/4/3
f 63/4/3 64/4/3 61/4/3
f 65/4/12 61/4/12 64/4/13
f 64/4/13 66/4/13 65/4/12
f 66/4/3 67/4/3 68/4/3
f 68/4/3 65/4/3 66/4/3
f 62/4/14 68/4/14 67/4/15
f 67/4/15 63/4/15 62/4/14
f 69/5/3 70/6/3 71/7/3
f 71/7/3 72/8/3 69/5/3
f 73/1/1 74/1/1 75/1/1
f 75/1/1 76/1/1 73/1/1
f 77/1/2 78/1/2 79/1/2
f 79/1/2 80/1/2 77/1/2
f 74/1/3 79/1/3 78/1/3
f 78/1/3 75/1/3 74/1/3
f 81/1/1 82/1/1 83/1/1
f 83/1/1 84/1/1 81/1/1
f 85/1/2 86/1/2 87/1/2
f 87/1/2 88/1/2 85/1/2
f 82/1/3 87/1/3 86/1/3
f 86/1/3 83/1/3 82/1/3
f 89/1/1 90/1/1 91/1/1
f 91/1/1 92/1/1 89/1/1
f 93/1/2 94/1/2 95/1/2
f 95/1/2 96/1/2 93/1/2
f 90/1/3 95/1/3 94/1/3
f 94/1/3 91/1/3 90/1/3
f 97/1/7 98/1/7 99/1/7
f 99/1/7 100/1/7 97/1/7
f 101/1/8 102/1/8 103/1/8
f 103/1/8 104/1/8 101/1/8
f 98/1/3 103/1/3 102/1/3
f 102/1/3 99/1/3 98/1/3
f 105/2/8 106/2/8 107/2/8
f 107/2/8 108/2/8 105/2/8
f 109/2/16 110/2/16 111/2/16
f 111/2/16 112/2/16 109/2/16
f 107/2/3 106/2/3 111/2/3
f 111/2/3 110/2/3 107/2/3
f 113/3/1 114/3/1 115/3/1
f 115/3/1 116/3/1 113/3/1
f 117/3/17 118/3/18 119/3/19
f 119/3/19 120/3/19 117/3/17
f 121/4/3 122/4/3 123/4/3
f 123/4/3 124/4/3 121/4/3
f 125/4/12 121/4/12 124/4/13
f 124/4/13 126/4/13 125/4/12
f 126/4/3 127/4/3 128/4/3
f 128/4/3 125/4/3 126/4/3
f 122/4/14 128/4/14 127/4/15
f 127/4/15 123/4/15 122/4/14
f 129/5/3 130/6/3 131/7/3
f 131/7/3 132/8/3 129/5/3
f 133/4/3 134/4/3 135/4/3
f 135/4/3 136/4/3 133/4/3
f 137/4/12 133/4/12 136/4/13
f 136/4/13 138/4/13 137/4/12
f 138/4/3 139/4/3 140/4/3
f 140/4/3 137/4/3 138/4/3
f 134/4/14 140/4/14 139/4/15
f 139/4/15 135/4/15 134/4/14
f 141/5/3 142/6/3 143/7/3
f 143/7/3 144/8/3 141/5/3
f 145/1/1 146/1/1 147/1/1
f 147/1/1 148/1/1 145/1/1
f 149/1/2 150/1/2 151/1/2
f 151/1/2 152/1/2 149/1/2
f 146/1/3 151/1/3 150/1/3
f 150/1/3 147/1/3 146/1/3
f 153/1/1 154/1/1 155/1/1
f 155/1/1 156/1/1 153/1/1
f 157/1/2 158/1/2 159/1/2
f 159/1/2 160/1/2 157/1/2
f 154/1/3 159/1/3 158/1/3
f 158/1/3 155/1/3 154/1/3
f 161/1/1 162/1/1 163/1/1
f 163/1/1 164/1/1 161/1/1
f 165/1/2 166/1/2 167/1/2
f 167/1/2 168/1/2 165/1/2
f 162/1/3 167/1/3 166/1/3
f 166/1/3 163/1/3 162/1/3
f 169/1/7 170/1/7 171/1/7
f 171/1/7 172/1/7 169/1/7
f 173/1/8 174/1/8 175/1/8
f 175/1/8 176/1/8 173/1/8
f 170/1/3 175/1/3 174/1/3
f 174/1/3 171/1/3 170/1/3
f 177/2/8 178/2/8 179/2/8
f 179/2/8 180/2/8 177/2/8
f 181/2/9 182/2/9 183/2/9
f 183/2/9 184/2/9 181/2/9
f 179/2/3 178/2/3 183/2/3
f 183/2/3 182/2/3 179/2/3
f 185/3/1 186/3/1 187/3/1
f 187/3/1 188/3/1 185/3/1
f 189/3/2 190/3/2 191/3/2
f 191/3/2 192/3/2 189/3/2
f 193/4/3 194/4/3 195/4/3
f 195/4/3 196/4/3 193/4/3
f 197/4/12 193/4/12 196/4/13
f 196/4/13 198/4/13 197/4/12
f 198/4/3 199/4/3 200/4/3
f 200/4/3 197/4/3 198/4/3
f 194/4/14 200/4/14 199/4/15
f 199/4/15 195/4/15 194/4/14
f 201/5/3 202/6/3 203/7/3
f 203/7/3 204/8/3 201/5/3
f 205/4/3 206/4/3 207/4/3
f 207/4/3 208/4/3 205/4/3
f 209/4/12 205/4/12 208/4/13
f 208/4/13 210/4/13 209/4/12
f 210/4/3 211/4/3 212/4/3
f 212/4/3 209/4/3 210/4/3
f 206/4/14 212/4/14 211/4/15
f 211/4/15 207/4/15 206/4/14
f 213/5/3 214/6/3 215/7/3
f 215/7/3 216/8/3 213/5/3
f 217/1/1 218/1/1 219/1/1
f 219/1/1 220/1/1 217/1/1
f 221/1/2 222/1/2 223/1/2
f 223/1/2 224/1/2 221/1/2
f 218/1/3 223/1/3 222/1/3
f 222/1/3 219/1/3 218/1/3
f 225/1/1 226/1/1 227/1/1
f 227/1/1 228/1/1 225/1/1
f 229/1/2 230/1/2 231/1/2
f 231/1/2 232/1/2 229/1/2
f 226/1/3 231/1/3 230/1/3
f 230/1/3 227/1/3 226/1/3
f 233/1/1 234/1/1 235/1/1
f 235/1/1 236/1/1 233/1/1
f 237/1/2 238/1/2 239/1/2
f 239/1/2 240/1/2 237/1/2
f 234/1/3 239/1/3 238/1/3
f 238/1/3 235/1/3 234/1/3
f 241/1/7 242/1/7 243/1/7
f 243/1/7 244/1/7 241/1/7
f 245/1/8 246/1/8 247/1/8
f 247/1/8 248/1/8 245/1/8
f 242/1/3 247/1/3 246/1/3
f 246/1/3 243/1/3 242/1/3
f 249/2/8 250/2/8 251/2/8
f 251/2/8 252/2/8 249/2/8
f 253/2/20 254/2/20 255/2/20
f 255/2/20 256/2/20 253/2/20
f 251/2/3 250/2/3 255/2/3
f 255/2/3 254/2/3 251/2/3
f 257/3/21 258/3/22 259/3/22
f 259/3/22 260/3/22 257/3/21
f 261/3/2 262/3/2 263/3/2
f 263/3/2 264/3/2 261/3/2
f 265/4/3 266/4/3 267/4/3
f 267/4/3 268/4/3 265/4/3
f 269/4/12 265/4/12 268/4/13
f 268/4/13 270/4/13 269/4/12
f 270/4/3 271/4/3 272/4/3
f 272/4/3 269/4/3 270/4/3
f 266/4/14 272/4/14 271/4/15
f 271/4/15 267/4/15 266/4/14
f 273/5/3 274/6/3 275/7/3
f 275/7/3 276/8/3 273/5/3
f 277/4/3 278/4/3 279/4/3
f 279/4/3 280/4/3 277/4/3
f 281/4/12 277/4/12 280/4/13
f 280/4/13 282/4/13 281/4/12
f 282/4/3 283/4/3 284/4/3
f 284/4/3 281/4/3 282/4/3
f 278/4/14 284/4/14 283/4/15
f 283/4/15 279/4/15 278/4/14
f 285/5/3 286/6/3 287/7/3
f 287/7/3 288/8/3 285/5/3
f 289/1/3 290/1/3 291/1/3
f 291/1/3 292/1/3 289/1/3
f 293/1/23 294/1/23 295/1/23
f 295/1/23 296/1/23 293/1/23
f 290/1/2 295/1/2 294/1/2
f 294/1/2 291/1/2 290/1/2
f 297/1/24 298/1/25 299/1/25
f 299/1/25 300/1/24 297/1/24
f 301/1/23 302/1/23 303/1/23
f 303/1/23 304/1/23 301/1/23
f 298/1/2 303/1/2 302/1/2
f 302/1/2 299/1/2 298/1/2
f 305/1/3 306/1/3 307/1/3
f 307/1/3 308/1/3 305/1/3
f 309/1/26 310/1/27 311/1/27
f 311/1/27 312/1/26 309/1/26
f 306/1/2 311/1/2 310/1/2
f 310/1/2 307/1/2 306/1/2
f 313/1/7 314/1/7 315/1/7
f 315/1/7 316/1/7 313/1/7
f 317/1/8 318/1/8 319/1/8
f 319/1/8 320/1/8 317/1/8
f 314/1/2 319/1/2 318/1/2
f 318/1/2 315/1/2 314/1/2
f 321/2/8 322/2/8 323/2/8
f 323/2/8 324/2/8 321/2/8
f 325/2/28 326/2/28 327/2/28
f 327/2/28 328/2/28 325/2/28
f 323/2/2 322/2/2 327/2/2
f 327/2/2 326/2/2 323/2/2
f 329/3/3 330/3/3 331/3/3
f 331/3/3 332/3/3 329/3/3
f 333/3/29 334/3/30 335/3/30
f 335/3/30 336/3/30 333/3/29
f 337/4/31 338/4/31 339/4/31
f 339/4/31 340/4/31 337/4/31
f 341/4/2 337/4/2 340/4/2
f 340/4/2 342/4/2 341/4/2
f 342/4/32 343/4/32 344/4/32
f 344/4/32 341/4/32 342/4/32
f 338/4/2 344/4/2 343/4/2
f 343/4/2 339/4/2 338/4/2
f 345/5/2 346/6/2 347/7/2
f 347/7/2 348/8/2 345/5/2
f 349/4/33 350/4/33 351/4/34
f 351/4/34 352/4/34 349/4/33
f 353/4/2 349/4/2 352/4/2
f 352/4/2 354/4/2 353/4/2
f 354/4/35 355/4/35 356/4/36
f 356/4/36 353/4/36 354/4/35
f 350/4/2 356/4/2 355/4/2
f 355/4/2 351/4/2 350/4/2
f 357/5/2 358/6/2 359/7/2
f 359/7/2 360/8/2 357/5/2
f 361/1/3 362/1/3 363/1/3
f 363/1/3 364/1/3 361/1/3
f 365/1/23 366/1/23 367/1/23
f 367/1/23 368/1/23 365/1/23
f 362/1/2 367/1/2 366/1/2
f 366/1/2 363/1/2 362/1/2
f 369/1/37 370/1/38 371/1/38
f 371/1/38 372/1/37 369/1/37
f 373/1/23 374/1/23 375/1/23
f 375/1/23 376/1/23 373/1/23
f 370/1/2 375/1/2 374/1/2
f 374/1/2 371/1/2 370/1/2
f 377/1/3 378/1/3 379/1/3
f 379/1/3 380/1/3 377/1/3
f 381/1/39 382/1/40 383/1/40
f 383/1/40 384/1/39 381/1/39
f 378/1/2 383/1/2 382/1/2
f 382/1/2 379/1/2 378/1/2
f 385/1/7 386/1/7 387/1/7
f 387/1/7 388/1/7 385/1/7
f 389/1/8 390/1/8 391/1/8
f 391/1/8 392/1/8 389/1/8
f 386/1/2 391/1/2 390/1/2
f 390/1/2 387/1/2 386/1/2
f 393/2/8 394/2/8 395/2/8
f 395/2/8 396/2/8 393/2/8
f 397/2/28 398/2/28 399/2/28
f 399/2/28 400/2/28 397/2/28
f 395/2/2 394/2/2 399/2/2
f 399/2/2 398/2/2 395/2/2
f 401/3/3 402/3/3 403/3/3
f 403/3/3 404/3/3 401/3/3
f 405/3/41 406/3/41 407/3/41
f 407/3/41 408/3/42 405/3/41
f 409/4/33 410/4/33 411/4/34
f 411/4/34 412/4/34 409/4/33
f 413/4/2 409/4/2 412/4/2
f 412/4/2 414/4/2 413/4/2
f 414/4/35 415/4/35 416/4/36
f 416/4/36 413/4/36 414/4/35
f 410/4/2 416/4/2 415/4/2
f 415/4/2 411/4/2 410/4/2
f 417/5/2 418/6/2 419/7/2
f 419/7/2 420/8/2 417/5/2
f 421/4/33 422/4/33 423/4/34
f 423/4/34 424/4/34 421/4/33
f 425/4/2 421/4/2 424/4/2
f 424/4/2 426/4/2 425/4/2
f 426/4/35 427/4/35 428/4/36
f 428/4/36 425/4/36 426/4/35
f 422/4/2 428/4/2 427/4/2
f 427/4/2 423/4/2 422/4/2
f 429/5/2 430/6/2 431/7/2
f 431/7/2 432/8/2 429/5/2
f 433/1/3 434/1/3 435/1/3
f 435/1/3 436/1/3 433/1/3
f 437/1/23 438/1/23 439/1/23
f 439/1/23 440/1/23 437/1/23
f 434/1/2 439/1/2 438/1/2
f 438/1/2 435/1/2 434/1/2
f 441/1/3 442/1/3 443/1/3
f 443/1/3 444/1/3 441/1/3
f 445/1/23 446/1/23 447/1/23
f 447/1/23 448/1/23 445/1/23
f 442/1/2 447/1/2 446/1/2
f 446/1/2 443/1/2 442/1/2
f 449/1/3 450/1/3 451/1/3
f 451/1/3 452/1/3 449/1/3
f 453/1/23 454/1/23 455/1/23
f 455/1/23 456/1/23 453/1/23
f 450/1/2 455/1/2 454/1/2
f 454/1/2 451/1/2 450/1/2
f 457/1/7 458/1/7 459/1/7
f 459/1/7 460/1/7 457/1/7
f 461/1/8 462/1/8 463/1/8
f 463/1/8 464/1/8 461/1/8
f 458/1/2 463/1/2 462/1/2
f 462/1/2 459/1/2 458/1/2
f 465/2/8 466/2/8 467/2/8
f 467/2/8 468/2/8 465/2/8
f 469/2/28 470/2/28 471/2/28
f 471/2/28 472/2/28 469/2/28
f 467/2/2 466/2/2 471/2/2
f 471/2/2 470/2/2 467/2/2
f 473/3/3 474/3/3 475/3/3
f 475/3/3 476/3/3 473/3/3
f 477/3/43 478/3/44 479/3/45
f 479/3/45 480/3/45 477/3/43
f 481/4/46 482/4/46 483/4/47
f 483/4/47 484/4/47 481/4/46
f 485/4/2 481/4/2 484/4/2
f 484/4/2 486/4/2 485/4/2
f 486/4/48 487/4/48 488/4/49
f 488/4/49 485/4/49 486/4/48
f 482/4/2 488/4/2 487/4/2
f 487/4/2 483/4/2 482/4/2
f 489/5/2 490/6/2 491/7/2
f 491/7/2 492/8/2 489/5/2
f 493/4/33 494/4/33 495/4/34
f 495/4/34 496/4/34 493/4/33
f 497/4/2 493/4/2 496/4/2
f 496/4/2 498/4/2 497/4/2
f 498/4/35 499/4/35 500/4/36
f 500/4/36 497/4/36 498/4/35
f 494/4/2 500/4/2 499/4/2
f 499/4/2 495/4/2 494/4/2
f 501/5/2 502/6/2 503/7/2
f 503/7/2 504/8/2 501/5/2
f 505/1/3 506/1/3 507/1/3
f 507/1/3 508/1/3 505/1/3
f 509/1/23 510/1/23 511/1/23
f 511/1/23 512/1/23 509/1/23
f 506/1/2 511/1/2 510/1/2
f 510/1/2 507/1/2 506/1/2
f 513/1/3 514/1/3 515/1/3
f 515/1/3 516/1/3 513/1/3
f 517/1/23 518/1/23 519/1/23
f 519/1/23 520/1/23 517/1/23
f 514/1/2 519/1/2 518/1/2
f 518/1/2 515/1/2 514/1/2
f 521/1/3 522/1/3 523/1/3
f 523/1/3 524/1/3 521/1/3
f 525/1/23 526/1/23 527/1/23
f 527/1/23 528/1/23 525/1/23
f 522/1/2 527/1/2 526/1/2
f 526/1/2 523/1/2 522/1/2
f 529/1/7 530/1/7 531/1/7
f 531/1/7 532/1/7 529/1/7
f 533/1/8 534/1/8 535/1/8
f 535/1/8 536/1/8 533/1/8
f 530/1/2 535/1/2 534/1/2
f 534/1/2 531/1/2 530/1/2
f 537/2/8 538/2/8 539/2/8
f 539/2/8 540/2/8 537/2/8
f 541/2/28 542/2/28 543/2/28
f 543/2/28 544/2/28 541/2/28
f 539/2/2 538/2/2 543/2/2
f 543/2/2 542/2/2 539/2/2
f 545/3/3 546/3/3 547/3/3
f 547/3/3 548/3/3 545/3/3
f 549/3/50 550/3/51 551/3/50
f 551/3/50 552/3/50 549/3/50
f 553/4/52 554/4/52 555/4/53
f 555/4/53 556/4/53 553/4/52
f 557/4/2 553/4/2 556/4/2
f 556/4/2 558/4/2 557/4/2
f 558/4/54 559/4/54 560/4/55
f 560/4/55 557/4/55 558/4/54
f 554/4/2 560/4/2 559/4/2
f 559/4/2 555/4/2 554/4/2
f 561/5/2 562/6/2 563/7/2
f 563/7/2 564/8/2 561/5/2
f 565/4/52 566/4/52 567/4/53
f 567/4/53 568/4/53 565/4/52
f 569/4/2 565/4/2 568/4/2
f 568/4/2 570/4/2 569/4/2
f 570/4/54 571/4/54 572/4/55
f 572/4/55 569/4/55 570/4/54
f 566/4/2 572/4/2 571/4/2
f 571/4/2 567/4/2 566/4/2
f 573/5/2 574/6/2 575/7/2
f 575/7/2 576/8/2 573/5/2
f 577/1/2 578/1/2 579/1/2
f 579/1/2 580/1/2 577/1/2
f 581/1/1 582/1/1 583/1/1
f 583/1/1 584/1/1 581/1/1
f 578/1/23 583/1/23 582/1/23
f 582/1/23 579/1/23 578/1/23
f 585/1/2 586/1/2 587/1/2
f 587/1/2 588/1/2 585/1/2
f 589/1/1 590/1/1 591/1/1
f 591/1/1 592/1/1 589/1/1
f 586/1/23 591/1/23 590/1/23
f 590/1/23 587/1/23 586/1/23
f 593/1/2 594/1/2 595/1/2
f 595/1/2 596/1/2 593/1/2
f 597/1/1 598/1/1 599/1/1
f 599/1/1 600/1/1 597/1/1
f 594/1/23 599/1/23 598/1/23
f 598/1/23 595/1/23 594/1/23
f 601/1/7 602/1/7 603/1/7
f 603/1/7 604/1/7 601/1/7
f 605/1/8 606/1/8 607/1/8
f 607/1/8 608/1/8 605/1/8
f 602/1/23 607/1/23 606/1/23
f 606/1/23 603/1/23 602/1/23
f 609/2/8 610/2/8 611/2/8
f 611/2/8 612/2/8 609/2/8
f 613/2/56 614/2/56 615/2/56
f 615/2/56 616/2/56 613/2/56
f 611/2/23 610/2/23 615/2/23
f 615/2/23 614/2/23 611/2/23
f 617/3/2 618/3/2 619/3/2
f 619/3/2 620/3/2 617/3/2
f 621/3/57 622/3/57 623/3/58
f 623/3/58 624/3/59 621/3/57
f 625/4/23 626/4/23 627/4/23
f 627/4/23 628/4/23 625/4/23
f 629/4/60 625/4/60 628/4/60
f 628/4/60 630/4/60 629/4/60
f 630/4/23 631/4/23 632/4/23
f 632/4/23 629/4/23 630/4/23
f 626/4/61 632/4/61 631/4/61
f 631/4/61 627/4/61 626/4/61
f 633/5/23 634/6/23 635/7/23
f 635/7/23 636/8/23 633/5/23
f 637/4/23 638/4/23 639/4/23
f 639/4/23 640/4/23 637/4/23
f 641/4/60 637/4/60 640/4/60
f 640/4/60 642/4/60 641/4/60
f 642/4/23 643/4/23 644/4/23
f 644/4/23 641/4/23 642/4/23
f 638/4/61 644/4/61 643/4/61
f 643/4/61 639/4/61 638/4/61
f 645/5/23 646/6/23 647/7/23
f 647/7/23 648/8/23 645/5/23
f 649/1/2 650/1/2 651/1/2
f 651/1/2 652/1/2 649/1/2
f 653/1/1 654/1/1 655/1/1
f 655/1/1 656/1/1 653/1/1
f 650/1/23 655/1/23 654/1/23
f 654/1/23 651/1/23 650/1/23
f 657/1/2 658/1/2 659/1/2
f 659/1/2 660/1/2 657/1/2
f 661/1/1 662/1/1 663/1/1
f 663/1/1 664/1/1 661/1/1
f 658/1/23 663/1/23 662/1/23
f 662/1/23 659/1/23 658/1/23
f 665/1/2 666/1/2 667/1/2
f 667/1/2 668/1/2 665/1/2
f 669/1/1 670/1/1 671/1/1
f 671/1/1 672/1/1 669/1/1
f 666/1/23 671/1/23 670/1/23
f 670/1/23 667/1/23 666/1/23
f 673/1/7 674/1/7 675/1/7
f 675/1/7 676/1/7 673/1/7
f 677/1/8 678/1/8 679/1/8
f 679/1/8 680/1/8 677/1/8
f 674/1/23 679/1/23 678/1/23
f 678/1/23 675/1/23 674/1/23
f 681/2/8 682/2/8 683/2/8
f 683/2/8 684/2/8 681/2/8
f 685/2/62 686/2/62 687/2/62
f 687/2/62 688/2/62 685/2/62
f 683/2/23 682/2/23 687/2/23
f 687/2/23 686/2/23 683/2/23
f 689/3/2 690/3/2 691/3/2
f 691/3/2 692/3/2 689/3/2
f 693/3/1 694/3/1 695/3/1
f 695/3/1 696/3/1 693/3/1
f 697/4/23 698/4/23 699/4/23
f 699/4/23 700/4/23 697/4/23
f 701/4/60 697/4/60 700/4/60
f 700/4/60 702/4/60 701/4/60
f 702/4/23 703/4/23 704/4/23
f 704/4/23 701/4/23 702/4/23
f 698/4/61 704/4/61 703/4/61
f 703/4/61 699/4/61 698/4/61
f 705/5/23 706/6/23 707/7/23
f 707/7/23 708/8/23 705/5/23
f 709/4/23 710/4/23 711/4/23
f 711/4/23 712/4/23 709/4/23
f 713/4/60 709/4/60 712/4/60
f 712/4/60 714/4/60 713/4/60
f 714/4/23 715/4/23 716/4/23
f 716/4/23 713/4/23 714/4/23
f 710/4/61 716/4/61 715/4/61
f 715/4/61 711/4/61 710/4/61
f 717/5/23 718/6/23 719/7/23
f 719/7/23 720/8/23 717/5/23
f 721/1/2 722/1/2 723/1/2
f 723/1/2 724/1/2 721/1/2
f 725/1/1 726/1/1 727/1/1
f 727/1/1 728/1/1 725/1/1
f 722/1/23 727/1/23 726/1/23
f 726/1/23 723/1/23 722/1/23
f 729/1/2 730/1/2 731/1/2
f 731/1/2 732/1/2 729/1/2
f 733/1/1 734/1/1 735/1/1
f 735/1/1 736/1/1 733/1/1
f 730/1/23 735/1/23 734/1/23
f 734/1/23 731/1/23 730/1/23
f 737/1/2 738/1/2 739/1/2
f 739/1/2 740/1/2 737/1/2
f 741/1/1 742/1/1 743/1/1
f 743/1/1 744/1/1 741/1/1
f 738/1/23 743/1/23 742/1/23
f 742/1/23 739/1/23 738/1/23
f 745/1/7 746/1/7 747/1/7
f 747/1/7 748/1/7 745/1/7
f 749/1/8 750/1/8 751/1/8
f 751/1/8 752/1/8 749/1/8
f 746/1/23 751/1/23 750/1/23
f 750/1/23 747/1/23 746/1/23
f 753/2/8 754/2/8 755/2/8
f 755/2/8 756/2/8 753/2/8
f 757/2/63 758/2/63 759/2/63
f 759/2/63 760/2/63 757/2/63
f 755/2/23 754/2/23 759/2/23
f 759/2/23 758/2/23 755/2/23
f 761/3/64 762/3/64 763/3/65
f 763/3/65 764/3/64 761/3/64
f 765/3/1 766/3/1 767/3/1
f 767/3/1 768/3/1 765/3/1
f 769/4/23 770/4/23 771/4/23
f 771/4/23 772/4/23 769/4/23
f 773/4/60 769/4/60 772/4/60
f 772/4/60 774/4/60 773/4/60
f 774/4/23 775/4/23 776/4/23
f 776/4/23 773/4/23 774/4/23
f 770/4/61 776/4/61 775/4/61
f 775/4/61 771/4/61 770/4/61
f 777/5/23 778/6/23 779/7/23
f 779/7/23 780/8/23 777/5/23
f 781/4/23 782/4/23 783/4/23
f 783/4/23 784/4/23 781/4/23
f 785/4/60 781/4/60 784/4/60
f 784/4/60 786/4/60 785/4/60
f 786/4/23 787/4/23 788/4/23
f 788/4/23 785/4/23 786/4/23
f 782/4/61 788/4/61 787/4/61
f 787/4/61 783/4/61 782/4/61
f 789/5/23 790/6/23 791/7/23
f 791/7/23 792/8/23 789/5/23
f 793/1/2 794/1/2 795/1/2
f 795/1/2 796/1/2 793/1/2
f 797/1/1 798/1/1 799/1/1
f 799/1/1 800/1/1 797/1/1
f 794/1/23 799/1/23 798/1/23
f 798/1/23 795/1/23 794/1/23
f 801/1/2 802/1/2 803/1/2
f 803/1/2 804/1/2 801/1/2
f 805/1/1 806/1/1 807/1/1
f 807/1/1 808/1/1 805/1/1
f 802/1/23 807/1/23 806/1/23
f 806/1/23 803/1/23 802/1/23
f 809/1/2 810/1/2 811/1/2
f 811/1/2 812/1/2 809/1/2
f 813/1/66 814/1/5 815/1/5
f 815/1/5 816/1/66 813/1/66
f 810/1/23 815/1/23 814/1/23
f 814/1/23 811/1/23 810/1/23
f 817/1/7 818/1/7 819/1/7
f 819/1/7 820/1/7 817/1/7
f 821/1/8 822/1/8 823/1/8
f 823/1/8 824/1/8 821/1/8
f 818/1/23 823/1/23 822/1/23
f 822/1/23 819/1/23 818/1/23
f 825/2/8 826/2/8 827/2/8
f 827/2/8 828/2/8 825/2/8
f 829/2/62 830/2/62 831/2/62
f 831/2/62 832/2/62 829/2/62
f 827/2/23 826/2/23 831/2/23
f 831/2/23 830/2/23 827/2/23
f 833/3/2 834/3/2 835/3/2
f 835/3/2 836/3/2 833/3/2
f 837/3/67 838/3/67 839/3/68
f 839/3/68 840/3/69 837/3/67
f 841/4/23 842/4/23 843/4/23
f 843/4/23 844/4/23 841/4/23
f 845/4/60 841/4/60 844/4/60
f 844/4/60 846/4/60 845/4/60
f 846/4/23 847/4/23 848/4/23
f 848/4/23 845/4/23 846/4/23
f 842/4/61 848/4/61 847/4/61
f 847/4/61 843/4/61 842/4/61
f 849/5/23 850/6/23 851/7/23
f 851/7/23 852/8/23 849/5/23
f 853/4/23 854/4/23 855/4/23
f 855/4/23 856/4/23 853/4/23
f 857/4/60 853/4/60 856/4/60
f 856/4/60 858/4/60 857/4/60
f 858/4/23 859/4/23 860/4/23
f 860/4/23 857/4/23 858/4/23
f 854/4/61 860/4/61 859/4/61
f 859/4/61 855/4/61 854/4/61
f 861/5/23 862/6/23 863/7/23
f 863/7/23 864/8/23 861/5/23
f 865/1/23 866/1/23 867/1/23
f 867/1/23 868/1/23 865/1/23
f 869/1/3 870/1/3 871/1/3
f 871/1/3 872/1/3 869/1/3
f 866/1/1 871/1/1 870/1/1
f 870/1/1 867/1/1 866/1/1
f 873/1/23 874/1/23 875/1/23
f 875/1/23 876/1/23 873/1/23
f 877/1/3 878/1/3 879/1/3
f 879/1/3 880/1/3 877/1/3
f 874/1/1 879/1/1 878/1/1
f 878/1/1 875/1/1 874/1/1
f 881/1/23 882/1/23 883/1/23
f 883/1/23 884/1/23 881/1/23
f 885/1/3 886/1/3 887/1/3
f 887/1/3 888/1/3 885/1/3
f 882/1/1 887/1/1 886/1/1
f 886/1/1 883/1/1 882/1/1
f 889/1/7 890/1/7 891/1/7
f 891/1/7 892/1/7 889/1/7
f 893/1/8 894/1/8 895/1/8
f 895/1/8 896/1/8 893/1/8
f 890/1/1 895/1/1 894/1/1
f 894/1/1 891/1/1 890/1/1
f 897/2/8 898/2/8 899/2/8
f 899/2/8 900/2/8 897/2/8
f 901/2/70 902/2/70 903/2/70
f 903/2/70 904/2/70 901/2/70
f 899/2/1 898/2/1 903/2/1
f 903/2/1 902/2/1 899/2/1
f 905/3/23 906/3/23 907/3/23
f 907/3/23 908/3/23 905/3/23
f 909/3/71 910/3/71 911/3/71
f 911/3/71 912/3/71 909/3/71
f 913/4/72 914/4/72 915/4/73
f 915/4/73 916/4/72 913/4/72
f 917/4/1 913/4/1 916/4/1
f 916/4/1 918/4/1 917/4/1
f 918/4/74 919/4/75 920/4/74
f 920/4/74 917/4/74 918/4/74
f 914/4/1 920/4/1 919/4/1
f 919/4/1 915/4/1 914/4/1
f 921/5/1 922/6/1 923/7/1
f 923/7/1 924/8/1 921/5/1
f 925/4/76 926/4/76 927/4/76
f 927/4/76 928/4/77 925/4/76
f 929/4/1 925/4/1 928/4/1
f 928/4/1 930/4/1 929/4/1
f 930/4/78 931/4/79 932/4/79
f 932/4/79 929/4/79 930/4/78
f 926/4/1 932/4/1 931/4/1
f 931/4/1 927/4/1 926/4/1
f 933/5/1 934/6/1 935/7/1
f 935/7/1 936/8/1 933/5/1
f 937/1/23 938/1/23 939/1/23
f 939/1/23 940/1/23 937/1/23
f 941/1/3 942/1/3 943/1/3
f 943/1/3 944/1/3 941/1/3
f 938/1/1 943/1/1 942/1/1
f 942/1/1 939/1/1 938/1/1
f 945/1/23 946/1/23 947/1/23
f 947/1/23 948/1/23 945/1/23
f 949/1/3 950/1/3 951/1/3
f 951/1/3 952/1/3 949/1/3
f 946/1/1 951/1/1 950/1/1
f 950/1/1 947/1/1 946/1/1
f 953/1/23 954/1/23 955/1/23
f 955/1/23 956/1/23 953/1/23
f 957/1/3 958/1/3 959/1/3
f 959/1/3 960/1/3 957/1/3
f 954/1/1 959/1/1 958/1/1
f 958/1/1 955/1/1 954/1/1
f 961/1/7 962/1/7 963/1/7
f 963/1/7 964/1/7 961/1/7
f 965/1/8 966/1/8 967/1/8
f 967/1/8 968/1/8 965/1/8
f 962/1/1 967/1/1 966/1/1
f 966/1/1 963/1/1 962/1/1
f 969/2/8 970/2/8 971/2/8
f 971/2/8 972/2/8 969/2/8
f 973/2/70 974/2/70 975/2/70
f 975/2/70 976/2/70 973/2/70
f 971/2/1 970/2/1 975/2/1
f 975/2/1 974/2/1 971/2/1
f 977/3/23 978/3/23 979/3/23
f 979/3/23 980/3/23 977/3/23
f 981/3/80 982/3/80 983/3/81
f 983/3/81 984/3/80 981/3/80
f 985/4/82 986/4/82 987/4/82
f 987/4/82 988/4/82 985/4/82
f 989/4/1 985/4/1 988/4/1
f 988/4/1 990/4/1 989/4/1
f 990/4/83 991/4/83 992/4/83
f 992/4/83 989/4/83 990/4/83
f 986/4/1 992/4/1 991/4/1
f 991/4/1 987/4/1 986/4/1
f 993/5/1 994/6/1 995/7/1
f 995/7/1 996/8/1 993/5/1
f 997/4/84 998/4/84 999/4/85
f 999/4/85 1000/4/85 997/4/84
f 1001/4/1 997/4/1 1000/4/1
f 1000/4/1 1002/4/1 1001/4/1
f 1002/4/86 1003/4/86 1004/4/87
f 1004/4/87 1001/4/87 1002/4/86
f 998/4/1 1004/4/1 1003/4/1
f 1003/4/1 999/4/1 998/4/1
f 1005/5/1 1006/6/1 1007/7/1
f 1007/7/1 1008/8/1 1005/5/1
f 1009/1/23 1010/1/23 1011/1/23
f 1011/1/23 1012/1/23 1009/1/23
f 1013/1/3 1014/1/3 1015/1/3
f 1015/1/3 1016/1/3 1013/1/3
f 1010/1/1 1015/1/1 1014/1/1
f 1014/1/1 1011/1/1 1010/1/1
f 1017/1/88 1018/1/89 1019/1/89
f 1019/1/89 1020/1/90 1017/1/88
f 1021/1/3 1022/1/3 1023/1/3
f 1023/1/3 1024/1/3 1021/1/3
f 1018/1/1 1023/1/1 1022/1/1
f 1022/1/1 1019/1/1 1018/1/1
f 1025/1/23 1026/1/23 1027/1/23
f 1027/1/23 1028/1/23 1025/1/23
f 1029/1/91 1030/1/92 1031/1/92
f 1031/1/92 1032/1/93 1029/1/91
f 1026/1/1 1031/1/1 1030/1/1
f 1030/1/1 1027/1/1 1026/1/1
f 1033/1/7 1034/1/7 1035/1/7
f 1035/1/7 1036/1/7 1033/1/7
f 1037/1/8 1038/1/8 1039/1/8
f 1039/1/8 1040/1/8 1037/1/8
f 1034/1/1 1039/1/1 1038/1/1
f 1038/1/1 1035/1/1 1034/1/1
f 1041/2/8 1042/2/8 1043/2/8
f 1043/2/8 1044/2/8 1041/2/8
f 1045/2/70 1046/2/70 1047/2/70
f 1047/2/70 1048/2/70 1045/2/70
f 1043/2/1 1042/2/1 1047/2/1
f 1047/2/1 1046/2/1 1043/2/1
f 1049/3/94 1050/3/95 1051/3/94
f 1051/3/94 1052/3/94 1049/3/94
f 1053/3/96 1054/3/97 1055/3/96
f 1055/3/96 1056/3/96 1053/3/96
f 1057/4/82 1058/4/82 1059/4/82
f 1059/4/82 1060/4/82 1057/4/82
f 1061/4/1 1057/4/1 1060/4/1
f 1060/4/1 1062/4/1 1061/4/1
f 1062/4/83 1063/4/83 1064/4/83
f 1064/4/83 1061/4/83 1062/4/83
f 1058/4/1 1064/4/1 1063/4/1
f 1063/4/1 1059/4/1 1058/4/1
f 1065/5/1 1066/6/1 1067/7/1
f 1067/7/1 1068/8/1 1065/5/1
f 1069/4/84 1070/4/84 1071/4/85
f 1071/4/85 1072/4/85 1069/4/84
f 1073/4/1 1069/4/1 1072/4/1
f 1072/4/1 1074/4/1 1073/4/1
f 1074/4/86 1075/4/86 1076/4/87
f 1076/4/87 1073/4/87 1074/4/86
f 1070/4/1 1076/4/1 1075/4/1
f 1075/4/1 1071/4/1 1070/4/1
f 1077/5/1 1078/6/1 1079/7/1
f 1079/7/1 1080/8/1 1077/5/1
f 1081/1/23 1082/1/23 1083/1/23
f 1083/1/23 1084/1/23 1081/1/23
f 1085/1/3 1086/1/3 1087/1/3
f 1087/1/3 1088/1/3 1085/1/3
f 1082/1/1 1087/1/1 1086/1/1
f 1086/1/1 1083/1/1 1082/1/1
f 1089/1/98 1090/1/99 1091/1/99
f 1091/1/99 1092/1/100 1089/1/98
f 1093/1/3 1094/1/3 1095/1/3
f 1095/1/3 1096/1/3 1093/1/3
f 1090/1/1 1095/1/1 1094/1/1
f 1094/1/1 1091/1/1 1090/1/1
f 1097/1/23 1098/1/23 1099/1/23
f 1099/1/23 1100/1/23 1097/1/23
f 1101/1/101 1102/1/102 1103/1/102
f 1103/1/102 1104/1/103 1101/1/101
f 1098/1/1 1103/1/1 1102/1/1
f 1102/1/1 1099/1/1 1098/1/1
f 1105/1/7 1106/1/7 1107/1/7
f 1107/1/7 1108/1/7 1105/1/7
f 1109/1/8 1110/1/8 1111/1/8
f 1111/1/8 1112/1/8 1109/1/8
f 1106/1/1 1111/1/1 1110/1/1
f 1110/1/1 1107/1/1 1106/1/1
f 1113/2/8 1114/2/8 1115/2/8
f 1115/2/8 1116/2/8 1113/2/8
f 1117/2/70 1118/2/70 1119/2/70
f 1119/2/70 1120/2/70 1117/2/70
f 1115/2/1 1114/2/1 1119/2/1
f 1119/2/1 1118/2/1 1115/2/1
f 1121/3/23 1122/3/23 1123/3/23
f 1123/3/23 1124/3/23 1121/3/23
f 1125/3/104 1126/3/104 1127/3/105
f 1127/3/105 1128/3/106 1125/3/104
f 1129/4/107 1130/4/107 1131/4/107
f 1131/4/107 1132/4/107 1129/4/107
f 1133/4/1 1129/4/1 1132/4/1
f 1132/4/1 1134/4/1 1133/4/1
f 1134/4/108 1135/4/108 1136/4/108
f 1136/4/108 1133/4/108 1134/4/108
f 1130/4/1 1136/4/1 1135/4/1
f 1135/4/1 1131/4/1 1130/4/1
f 1137/5/1 1138/6/1 1139/7/1
f 1139/7/1 1140/8/1 1137/5/1
f 1141/4/84 1142/4/84 1143/4/85
f 1143/4/85 1144/4/85 1141/4/84
f 1145/4/1 1141/4/1 1144/4/1
f 1144/4/1 1146/4/1 1145/4/1
f 1146/4/86 1147/4/86 1148/4/87
f 1148/4/87 1145/4/87 1146/4/86
f 1142/4/1 1148/4/1 1147/4/1
f 1147/4/1 1143/4/1 1142/4/1
f 1149/5/1 1150/6/1 1151/7/1
f 1151/7/1 1152/8/1 1149/5/1
f 1153/9/3 1154/9/3 1155/9/3
f 1155/9/3 1156/9/3 1153/9/3
f 1157/10/8 1158/10/8 1159/10/8
f 1160/10/8 1161/10/8 1157/10/8
f 1157/10/8 1159/10/8 1160/10/8
f 1162/9/23 1163/9/23 1164/9/23
f 1164/9/23 1165/9/23 1162/9/23
f 1166/10/7 1167/10/7 1168/10/7
f 1168/10/7 1169/10/7 1166/10/7
f 1165/9/1 1153/9/1 1156/9/1
f 1156/9/1 1162/9/1 1165/9/1
f 1154/9/2 1164/9/2 1163/9/2
f 1163/9/2 1155/9/2 1154/9/2
f 1160/10/3 1159/10/3 1170/10/3
f 1170/10/3 1171/10/3 1161/10/3
f 1161/10/3 1160/10/3 1170/10/3
f 1157/10/1 1161/10/1 1171/10/1
f 1171/10/1 1172/10/1 1157/10/1
f 1158/10/23 1157/10/23 1172/10/23
f 1172/10/23 1173/10/23 1158/10/23
f 1159/10/2 1158/10/2 1173/10/2
f 1173/10/2 1170/10/2 1159/10/2
f 1174/10/2 1175/10/2 1168/10/2
f 1168/10/2 1167/10/2 1174/10/2
f 1176/10/3 1174/10/3 1167/10/3
f 1167/10/3 1166/10/3 1176/10/3
f 1177/10/1 1176/10/1 1166/10/1
f 1166/10/1 1169/10/1 1177/10/1
f 1169/10/23 1168/10/23 1175/10/23
f 1175/10/23 1177/10/23 1169/10/23
f 1178/10/109 1179/10/110 1174/10/111
f 1174/10/111 1176/10/112 1178/10/109
f 1180/10/113 1181/10/114 1171/10/115
f 1171/10/115 1170/10/116 1180/10/113
f 1182/10/117 1183/10/118 1173/10/119
f 1173/10/119 1172/10/120 1182/10/117
f 1184/10/121 1185/10/122 1177/10/123
f 1177/10/123 1175/10/124 1184/10/121
f 1185/10/122 1178/10/109 1176/10/112
f 1176/10/112 1177/10/123 1185/10/122
f 1181/10/114 1182/10/117 1172/10/120
f 1172/10/120 1171/10/115 1181/10/114
f 1179/10/110 1184/10/121 1175/10/124
f 1175/10/124 1174/10/111 1179/10/110
f 1183/10/118 1180/10/113 1170/10/116
f 1170/10/116 1173/10/119 1183/10/118
# Vertices: 1185, normals: 124, texture coordinates: 10, faces: 910

