g SM_Env_Fence_01
v -2.377075 0.5975821 0.02386475
v -2.383987 0.8695397 0.02386475
v -2.244857 0.7265506 0.02386475
v -2.339191 0.5814545 0.02386475
v -2.103683 0.8235002 0.02386475
v -2.119369 0.8624363 0.02386475
v -1.937149 0.8575447 0.02386475
v -2.372314 0.4103026 0.02386475
v -2.244857 0.7265506 0.02386475
v -2.244857 0.7265506 -0.02386475
v -2.339191 0.5814545 -0.02386475
v -2.339191 0.5814545 0.02386475
v -2.103683 0.8235002 0.02386475
v -2.103683 0.8235002 -0.02386475
v -2.244857 0.7265506 -0.02386475
v -2.244857 0.7265506 0.02386475
v -1.937149 0.8575447 -0.02386475
v -2.103683 0.8235002 -0.02386475
v -2.103683 0.8235002 0.02386475
v -1.937149 0.8575447 0.02386475
v -2.339191 0.5814545 0.02386475
v -2.339191 0.5814545 -0.02386475
v -2.372314 0.4103026 -0.02386475
v -2.372314 0.4103026 0.02386475
v -2.339191 0.5814545 -0.02386475
v -2.377075 0.5975821 -0.02386475
v -2.372314 0.4103026 -0.02386475
v -2.244857 0.7265506 -0.02386475
v -2.383987 0.8695397 -0.02386475
v -2.103683 0.8235002 -0.02386475
v -2.119369 0.8624361 -0.02386475
v -1.937149 0.8575447 -0.02386475
v -0.117599 0.5975821 0.02386475
v -0.1554866 0.5814545 0.02386475
v -0.2498164 0.7265506 0.02386475
v -0.1106868 0.8695397 0.02386475
v -0.3909907 0.8235002 0.02386475
v -0.3752971 0.8624363 0.02386475
v -0.5575175 0.8575447 0.02386475
v -0.1223521 0.4103026 0.02386475
v -0.2498164 0.7265506 0.02386475
v -0.1554866 0.5814545 0.02386475
v -0.1554866 0.5814545 -0.02386475
v -0.2498164 0.7265506 -0.02386475
v -0.3909907 0.8235002 0.02386475
v -0.2498164 0.7265506 0.02386475
v -0.2498164 0.7265506 -0.02386475
v -0.3909907 0.8235002 -0.02386475
v -0.5575175 0.8575447 -0.02386475
v -0.5575175 0.8575447 0.02386475
v -0.3909907 0.8235002 0.02386475
v -0.3909907 0.8235002 -0.02386475
v -0.1554866 0.5814545 0.02386475
v -0.1223521 0.4103026 0.02386475
v -0.1223521 0.4103026 -0.02386475
v -0.1554866 0.5814545 -0.02386475
v -0.1554866 0.5814545 -0.02386475
v -0.1223521 0.4103026 -0.02386475
v -0.117599 0.5975821 -0.02386475
v -0.2498164 0.7265506 -0.02386475
v -0.1106868 0.8695397 -0.02386475
v -0.3909907 0.8235002 -0.02386475
v -0.3752971 0.8624361 -0.02386475
v -0.5575175 0.8575447 -0.02386475
v -2.50019 0.1872787 0.05899811
v -2.50019 0.8575447 0.05899811
v -2.372314 0.8575447 0.05899811
v -2.372314 0.1872787 0.05899811
v -2.50019 0.8575447 -0.05899811
v -2.50019 0.1872787 -0.05899811
v -2.372314 0.1872787 -0.05899811
v -2.372314 0.8575447 -0.05899811
v -2.372314 0.1872787 0.05899811
v -2.372314 0.8575447 0.05899811
v -2.372314 0.8575447 -0.05899811
v -2.372314 0.1872787 -0.05899811
v -2.50019 0.1872787 -0.05899811
v -2.50019 0.8575447 -0.05899811
v -2.50019 0.8575447 0.05899811
v -2.50019 0.1872787 0.05899811
v -0.1223521 0.1872787 0.05899811
v -0.1223521 0.8575447 0.05899811
v -0.002028942 0.8575447 0.05899811
v -0.002028942 0.1872787 0.05899811
v -0.1223521 0.8575447 -0.05899811
v -0.1223521 0.1872787 -0.05899811
v -0.002028942 0.1872787 -0.05899811
v -0.002028942 0.8575447 -0.05899811
v -0.002028942 0.1872787 0.05899811
v -0.002028942 0.8575447 0.05899811
v -0.002028942 0.8575447 -0.05899811
v -0.002028942 0.1872787 -0.05899811
v -0.1223521 0.1872787 -0.05899811
v -0.1223521 0.8575447 -0.05899811
v -0.1223521 0.8575447 0.05899811
v -0.1223521 0.1872787 0.05899811
v -1.022605 0.1337729 0.114357
v -1.022605 0.1072493 0.05314636
v -2.50019 0.1320415 0.05314636
v -2.50019 0.1646965 0.114357
v 4.768372E-07 0.1646965 0.114357
v 4.768372E-07 0.1320415 0.05314636
v -2.50019 0.1320415 -0.05315399
v -1.022605 0.1072493 -0.05315399
v -1.022605 0.1337729 -0.1143646
v -2.50019 0.1646965 -0.1143646
v 4.768372E-07 0.1646965 -0.1143646
v 4.768372E-07 0.1320415 -0.05315399
v 4.768372E-07 0.1320415 0.05314636
v 4.768372E-07 0.1646965 0.114357
v 4.768372E-07 0.1646965 -0.1143646
v 4.768372E-07 0.1320415 -0.05315399
v 4.768372E-07 0.1013167 0.114357
v 4.768372E-07 0.1013169 -0.1143646
v 4.768372E-07 0.2493203 -0.114357
v 4.768372E-07 0.2493203 0.114357
v 4.768372E-07 0 0.114357
v 4.768372E-07 0 0
v 4.768372E-07 0 -0.114357
v -2.312995 0.9347589 0.1020813
v -1.501129 0.9274814 0.1038971
v -1.523216 0.9103737 0.05710602
v -2.312995 0.9144573 0.05674744
v -0.1909404 0.9154675 0.06291199
v -0.1909404 0.9366817 0.1123276
v -2.312995 0.9970477 0.1035156
v -2.312995 1.00475 -0.09889984
v -1.590194 1.010957 -0.09784698
v -1.527744 0.9957914 0.03990173
v -1.73101 0.9907081 0.1070709
v -0.1909404 0.9981313 0.1134186
v -0.1909404 1.002124 -0.1111603
v -1.227409 0.9903593 0.1095123
v -2.312995 0.9190502 -0.05764008
v -1.575798 0.9231448 -0.05889893
v -1.594657 0.9501936 -0.1023941
v -2.312995 0.9429264 -0.1013412
v -0.1909404 0.9410849 -0.1120377
v -0.1909404 0.9179432 -0.06325531
v -2.312995 0.8538241 0.09906769
v -1.507061 0.8465877 0.09783936
v -1.600589 0.8692999 -0.1084595
v -2.312995 0.8619914 -0.1043625
v -0.1909404 0.8598235 -0.1132126
v -0.1909404 0.8554206 0.1111526
v -2.50019 0.1320415 0.05314636
v -1.022605 0.1072493 0.05314636
v -1.022605 0.08229327 0.114357
v -2.50019 0.1013169 0.114357
v 4.768372E-07 0.1013167 0.114357
v 4.768372E-07 0.1320415 0.05314636
v -1.022605 0.08229351 -0.1143646
v -1.022605 0.1072493 -0.05315399
v -2.50019 0.1320415 -0.05315399
v -2.50019 0.1013167 -0.1143646
v 4.768372E-07 0.1013169 -0.1143646
v 4.768372E-07 0.1320415 -0.05315399
v -1.022605 0.2025075 0.114357
v 4.768372E-07 0.2493203 0.114357
v 4.768372E-07 0.1646965 0.114357
v -1.022605 0.1337729 0.114357
v -2.50019 0.2493203 0.114357
v -2.50019 0.1646965 0.114357
v -1.022605 0.1569953 -0.1143646
v -1.022605 0.2025075 -0.02143097
v -1.130874 0.2025075 -0.114357
v -0.7195926 0.2025075 -0.114357
v -1.022605 0.2025075 -0.02143097
v -1.022605 0.1569953 -0.1143646
v -2.50019 0 -0.114357
v -1.022605 0 -0.114357
v -1.022605 0.08229351 -0.1143646
v -2.50019 0.1013167 -0.1143646
v 4.768372E-07 0.1013169 -0.1143646
v 4.768372E-07 0 -0.114357
v -1.022605 0.08229327 0.114357
v -1.022605 0 0.114357
v -2.50019 0 0.114357
v -2.50019 0.1013169 0.114357
v 4.768372E-07 0.1013167 0.114357
v 4.768372E-07 0 0.114357
v -2.312995 0.8956995 0.1006317
v -1.50399 0.888442 0.100975
v -1.507061 0.8465877 0.09783936
v -2.312995 0.8538241 0.09906769
v -0.1909404 0.8554206 0.1111526
v -0.1909404 0.8974652 0.111763
v 0.0146718 0.8382123 0.1167679
v 0.01541185 0.925209 0.1368256
v 0.01541948 0.9252093 -0.1366882
v 0.01475573 0.8384221 -0.1166306
v 0.01468706 1.021045 -0.1166306
v 0.01477098 1.02083 0.1167679
v -2.312995 0.8619914 -0.1043625
v -1.600589 0.8692999 -0.1084595
v -1.597511 0.9111536 -0.1053162
v -2.312995 0.903867 -0.1027985
v -0.1909404 0.9018679 -0.1126099
v -0.1909404 0.8598235 -0.1132126
v -2.312995 0.9970477 0.1035156
v -1.73101 0.9907081 0.1070709
v -1.501129 0.9274814 0.1038971
v -2.312995 0.9347589 0.1020813
v -1.227409 0.9903593 0.1095123
v -0.1909404 0.9366817 0.1123276
v -0.1909404 0.9981313 0.1134186
v -2.312995 0.9429264 -0.1013412
v -1.594657 0.9501936 -0.1023941
v -1.590194 1.010957 -0.09784698
v -2.312995 1.00475 -0.09889984
v -0.1909404 1.002124 -0.1111603
v -0.1909404 0.9410849 -0.1120377
v -2.312995 0.9144573 0.05674744
v -1.523216 0.9103737 0.05710602
v -1.50399 0.888442 0.100975
v -2.312995 0.8956995 0.1006317
v -0.1909404 0.8974652 0.111763
v -0.1909404 0.9154675 0.06291199
v -2.312995 0.903867 -0.1027985
v -1.597511 0.9111536 -0.1053162
v -1.575798 0.9231448 -0.05889893
v -2.312995 0.9190502 -0.05764008
v -0.1909404 0.9179432 -0.06325531
v -0.1909404 0.9018679 -0.1126099
v -2.50019 0.2023158 -0.1143646
v -2.204006 0.2493203 -0.114357
v -2.50019 0.24932 -0.06848145
v -2.50019 0.1646965 -0.1143646
v -1.022605 0.1337729 -0.1143646
v -1.022605 0.1569953 -0.1143646
v -1.130874 0.2025075 -0.114357
v -2.204006 0.2493203 -0.114357
v -2.50019 0.2023158 -0.1143646
v -0.7195926 0.2025075 -0.114357
v 4.768372E-07 0.2493203 -0.114357
v 4.768372E-07 0.1646965 -0.1143646
v -2.50019 0.24932 -0.06848145
v -2.204006 0.2493203 -0.114357
v -1.130874 0.2025075 -0.114357
v -1.130874 0.2025075 -0.114357
v -1.022605 0.2025075 -0.02143097
v -2.50019 0.24932 -0.06848145
v -2.50019 0.2493203 0.114357
v -1.022605 0.2025075 0.114357
v 4.768372E-07 0.2493203 0.114357
v 4.768372E-07 0.2493203 -0.114357
v -1.022605 0.2025075 -0.02143097
v -0.7195926 0.2025075 -0.114357
v 4.768372E-07 0.2493203 -0.114357
v -0.1795421 0.8386385 0.1167679
v 0.0146718 0.8382123 0.1167679
v 0.01475573 0.8384221 -0.1166306
v -0.1794505 0.8432817 -0.1166306
v -0.1795115 0.925209 0.1368256
v 0.01541185 0.925209 0.1368256
v 0.0146718 0.8382123 0.1167679
v -0.1795421 0.8386385 0.1167679
v -0.1794429 1.016372 0.1167679
v 0.01477098 1.02083 0.1167679
v 0.01541185 0.925209 0.1368256
v -0.1795115 0.925209 0.1368256
v -0.1795192 1.020633 -0.1166306
v 0.01468706 1.021045 -0.1166306
v 0.01477098 1.02083 0.1167679
v -0.1794429 1.016372 0.1167679
v -0.1794887 0.9252095 -0.1366882
v 0.01541948 0.9252093 -0.1366882
v 0.01468706 1.021045 -0.1166306
v -0.1795192 1.020633 -0.1166306
v -0.1794505 0.8432817 -0.1166306
v 0.01475573 0.8384221 -0.1166306
v 0.01541948 0.9252093 -0.1366882
v -0.1794887 0.9252095 -0.1366882
v -1.73101 0.9907081 0.1070709
v -1.527744 0.9957914 0.03990173
v -1.501129 0.9274814 0.1038971
v -1.527744 0.9957914 0.03990173
v -1.227409 0.9903593 0.1095123
v -1.501129 0.9274814 0.1038971
v -2.549736 1.01282 0.1167679
v -2.325935 1.010327 0.1167679
v -2.325908 0.925209 0.1368256
v -2.549709 0.925209 0.1368256
v -2.549709 0.925209 0.1368256
v -2.325908 0.925209 0.1368256
v -2.325881 0.8399014 0.1167679
v -2.549682 0.8427472 0.1167679
v -2.549682 0.8427472 0.1167679
v -2.325881 0.8399014 0.1167679
v -2.32595 0.8488789 -0.1166306
v -2.549751 0.8460045 -0.1166306
v -2.549751 0.8460045 -0.1166306
v -2.32595 0.8488789 -0.1166306
v -2.325927 0.925209 -0.136673
v -2.549728 0.925209 -0.1366882
v -2.549728 0.925209 -0.1366882
v -2.325927 0.925209 -0.136673
v -2.325889 1.018709 -0.1166306
v -2.54969 1.016268 -0.1166306
v -2.54969 1.016268 -0.1166306
v -2.325889 1.018709 -0.1166306
v -2.325935 1.010327 0.1167679
v -2.549736 1.01282 0.1167679
v -2.312995 0.9347589 0.1020813
v -2.325908 0.925209 0.1368256
v -2.325935 1.010327 0.1167679
v -2.312995 0.9970477 0.1035156
v -2.312995 0.9144573 0.05674744
v -2.325908 0.925209 0.1368256
v -2.312995 0.9347589 0.1020813
v -2.312995 0.8956995 0.1006317
v -2.325908 0.925209 0.1368256
v -2.312995 0.9144573 0.05674744
v -2.549751 0.8460045 -0.1166306
v -2.549728 0.925209 -0.1366882
v -2.549709 0.925209 0.1368256
v -2.549682 0.8427472 0.1167679
v -2.54969 1.016268 -0.1166306
v -2.549736 1.01282 0.1167679
v -2.312995 0.8538241 0.09906769
v -2.325881 0.8399014 0.1167679
v -2.325908 0.925209 0.1368256
v -2.312995 0.8956995 0.1006317
v -2.312995 0.8619914 -0.1043625
v -2.32595 0.8488789 -0.1166306
v -2.325881 0.8399014 0.1167679
v -2.312995 0.8538241 0.09906769
v -2.312995 0.903867 -0.1027985
v -2.325927 0.925209 -0.136673
v -2.32595 0.8488789 -0.1166306
v -2.312995 0.8619914 -0.1043625
v -2.312995 0.9190502 -0.05764008
v -2.325927 0.925209 -0.136673
v -2.312995 0.903867 -0.1027985
v -2.312995 0.9429264 -0.1013412
v -2.325927 0.925209 -0.136673
v -2.312995 0.9190502 -0.05764008
v -2.312995 1.00475 -0.09889984
v -2.325889 1.018709 -0.1166306
v -2.325927 0.925209 -0.136673
v -2.312995 0.9429264 -0.1013412
v -2.312995 0.9970477 0.1035156
v -2.325935 1.010327 0.1167679
v -2.325889 1.018709 -0.1166306
v -2.312995 1.00475 -0.09889984
v -0.1909404 0.8554206 0.1111526
v -0.1795421 0.8386385 0.1167679
v -0.1794505 0.8432817 -0.1166306
v -0.1909404 0.8598235 -0.1132126
v -0.1909404 0.8974652 0.111763
v -0.1795115 0.925209 0.1368256
v -0.1795421 0.8386385 0.1167679
v -0.1909404 0.8554206 0.1111526
v -0.1909404 0.9154675 0.06291199
v -0.1795115 0.925209 0.1368256
v -0.1909404 0.8974652 0.111763
v -0.1909404 0.9366817 0.1123276
v -0.1795115 0.925209 0.1368256
v -0.1909404 0.9154675 0.06291199
v -0.1909404 0.9981313 0.1134186
v -0.1794429 1.016372 0.1167679
v -0.1795115 0.925209 0.1368256
v -0.1909404 0.9366817 0.1123276
v -0.1909404 1.002124 -0.1111603
v -0.1795192 1.020633 -0.1166306
v -0.1794429 1.016372 0.1167679
v -0.1909404 0.9981313 0.1134186
v -0.1909404 0.9410849 -0.1120377
v -0.1794887 0.9252095 -0.1366882
v -0.1795192 1.020633 -0.1166306
v -0.1909404 1.002124 -0.1111603
v -0.1909404 0.9179432 -0.06325531
v -0.1794887 0.9252095 -0.1366882
v -0.1909404 0.9410849 -0.1120377
v -0.1909404 0.9018679 -0.1126099
v -0.1794887 0.9252095 -0.1366882
v -0.1909404 0.9179432 -0.06325531
v -0.1909404 0.8598235 -0.1132126
v -0.1794505 0.8432817 -0.1166306
v -0.1794887 0.9252095 -0.1366882
v -0.1909404 0.9018679 -0.1126099
v -1.272834 0.2042116 0.02185059
v -1.272834 0.5517234 0.02185059
v -1.222606 0.5517234 0.02185059
v -1.222606 0.2042116 0.02185059
v -1.272834 0.5517234 -0.02185059
v -1.272834 0.2042116 -0.02185059
v -1.222606 0.2042116 -0.02185059
v -1.222606 0.5517234 -0.02185059
v -1.222606 0.2042116 0.02185059
v -1.222606 0.5517234 0.02185059
v -1.222606 0.5517234 -0.02185059
v -1.222606 0.2042116 -0.02185059
v -1.272834 0.2042116 -0.02185059
v -1.272834 0.5517234 -0.02185059
v -1.272834 0.5517234 0.02185059
v -1.272834 0.2042116 0.02185059
v -0.6209407 0.5669827 0.05059052
v -0.1223598 0.593202 0.05059052
v -0.1223598 0.5310657 0.05059052
v -0.6209407 0.5048463 0.05059052
v -1.249336 0.593202 0.05059052
v -1.249336 0.5310657 0.05059052
v -1.862518 0.5677512 0.04396057
v -1.861686 0.5061302 0.05589294
v -2.455001 0.593202 0.05060577
v -2.455001 0.5310657 0.05060577
v -0.6209407 0.5669827 -0.04281616
v -0.1223598 0.593202 -0.04281616
v -0.1223598 0.593202 0.05059052
v -0.6209407 0.5669827 0.05059052
v -1.249336 0.593202 -0.04281616
v -1.249336 0.593202 0.05059052
v -0.6209407 0.5048463 -0.04281616
v -0.1223598 0.5310657 -0.04281616
v -0.1223598 0.593202 -0.04281616
v -0.6209407 0.5669827 -0.04281616
v -1.249336 0.5310657 -0.04281616
v -1.249336 0.593202 -0.04281616
v -1.868049 0.498139 -0.03618622
v -1.868885 0.5597599 -0.04811859
v -2.455001 0.5310657 -0.04281616
v -2.455001 0.593202 -0.04281616
v -0.6209407 0.5048463 0.05059052
v -0.1223598 0.5310657 0.05059052
v -0.1223598 0.5310657 -0.04281616
v -0.6209407 0.5048463 -0.04281616
v -1.249336 0.5310657 0.05059052
v -1.249336 0.5310657 -0.04281616
v -2.455001 0.593202 -0.04281616
v -1.868885 0.5597599 -0.04811859
v -1.862518 0.5677512 0.04396057
v -2.455001 0.593202 0.05060577
v -1.249336 0.593202 0.05059052
v -1.249336 0.593202 -0.04281616
v -2.455001 0.5310657 0.05060577
v -1.861686 0.5061302 0.05589294
v -1.868049 0.498139 -0.03618622
v -2.455001 0.5310657 -0.04281616
v -1.249336 0.5310657 -0.04281616
v -1.249336 0.5310657 0.05059052
v -2.50019 0.1013167 -0.1143646
v -2.499807 0 -0.002883911
v -2.50019 0 -0.114357
v -2.50019 0.1013169 0.114357
v -2.50019 0 0.114357
v -2.50019 0.1320415 -0.05315399
v -2.50019 0.1320415 0.05314636
v -2.50019 0.24932 -0.06848145
v -2.50019 0.1646965 -0.1143646
v -2.50019 0.2023158 -0.1143646
v -2.50019 0.1646965 0.114357
v -2.50019 0.2493203 0.114357
vt 0.6479492 0.1331787
vt 0.6479492 0.1331787
vt 0.6479492 0.1331787
vt 0.6479492 0.1331787
vt 0.6479492 0.1331787
vt 0.6479492 0.1331787
vt 0.6479492 0.1331787
vt 0.6479492 0.1331787
vt 0.6479492 0.1331787
vt 0.6479492 0.1331787
vt 0.6479492 0.1331787
vt 0.6479492 0.1331787
vt 0.6479492 0.1331787
vt 0.6479492 0.1331787
vt 0.6479492 0.1331787
vt 0.6479492 0.1331787
vt 0.6479492 0.1331787
vt 0.6479492 0.1331787
vt 0.6479492 0.1331787
vt 0.6479492 0.1331787
vt 0.6479492 0.1331787
vt 0.6479492 0.1331787
vt 0.6479492 0.1331787
vt 0.6479492 0.1331787
vt 0.6479492 0.1331787
vt 0.6479492 0.1331787
vt 0.6479492 0.1331787
vt 0.6479492 0.1331787
vt 0.6479492 0.1331787
vt 0.6479492 0.1331787
vt 0.6479492 0.1331787
vt 0.6479492 0.1331787
vt 0.6479492 0.1331787
vt 0.6479492 0.1331787
vt 0.6479492 0.1331787
vt 0.6479492 0.1331787
vt 0.6479492 0.1331787
vt 0.6479492 0.1331787
vt 0.6479492 0.1331787
vt 0.6479492 0.1331787
vt 0.6479492 0.1331787
vt 0.6479492 0.1331787
vt 0.6479492 0.1331787
vt 0.6479492 0.1331787
vt 0.6479492 0.1331787
vt 0.6479492 0.1331787
vt 0.6479492 0.1331787
vt 0.6479492 0.1331787
vt 0.6479492 0.1331787
vt 0.6479492 0.1331787
vt 0.6479492 0.1331787
vt 0.6479492 0.1331787
vt 0.6479492 0.1331787
vt 0.6479492 0.1331787
vt 0.6479492 0.1331787
vt 0.6479492 0.1331787
vt 0.6479492 0.1331787
vt 0.6479492 0.1331787
vt 0.6479492 0.1331787
vt 0.6479492 0.1331787
vt 0.6479492 0.1331787
vt 0.6479492 0.1331787
vt 0.6479492 0.1331787
vt 0.6479492 0.1331787
vt 0.6479492 0.1331787
vt 0.6479492 0.1331787
vt 0.6479492 0.1331787
vt 0.6479492 0.1331787
vt 0.6479492 0.1331787
vt 0.6479492 0.1331787
vt 0.6479492 0.1331787
vt 0.6479492 0.1331787
vt 0.6479492 0.1331787
vt 0.6479492 0.1331787
vt 0.6479492 0.1331787
vt 0.6479492 0.1331787
vt 0.6479492 0.1331787
vt 0.6479492 0.1331787
vt 0.6479492 0.1331787
vt 0.6479492 0.1331787
vt 0.6479492 0.1331787
vt 0.6479492 0.1331787
vt 0.6479492 0.1331787
vt 0.6479492 0.1331787
vt 0.6479492 0.1331787
vt 0.6479492 0.1331787
vt 0.6479492 0.1331787
vt 0.6479492 0.1331787
vt 0.6479492 0.1331787
vt 0.6479492 0.1331787
vt 0.6479492 0.1331787
vt 0.6479492 0.1331787
vt 0.6479492 0.1331787
vt 0.6479492 0.1331787
vt 0.6479492 0.1331787
vt 0.6479492 0.1331787
vt 0.6479492 0.1331787
vt 0.6479492 0.1331787
vt 0.6479492 0.1331787
vt 0.6479492 0.1331787
vt 0.6479492 0.1331787
vt 0.6479492 0.1331787
vt 0.6479492 0.1331787
vt 0.6479492 0.1331787
vt 0.6479492 0.1331787
vt 0.6479492 0.1331787
vt 0.6479492 0.1331787
vt 0.6479492 0.1331787
vt 0.6479492 0.1331787
vt 0.6479492 0.1331787
vt 0.6479492 0.1331787
vt 0.6479492 0.1331787
vt 0.6479492 0.1331787
vt 0.6479492 0.1331787
vt 0.6479492 0.1331787
vt 0.6479492 0.1331787
vt 0.6479492 0.1331787
vt 0.6479492 0.1331787
vt 0.6479492 0.1331787
vt 0.6479492 0.1331787
vt 0.6479492 0.1331787
vt 0.6479492 0.1331787
vt 0.6479492 0.1331787
vt 0.6479492 0.1331787
vt 0.6479492 0.1331787
vt 0.6479492 0.1331787
vt 0.6479492 0.1331787
vt 0.6479492 0.1331787
vt 0.6479492 0.1331787
vt 0.6479492 0.1331787
vt 0.6479492 0.1331787
vt 0.6479492 0.1331787
vt 0.6479492 0.1331787
vt 0.6479492 0.1331787
vt 0.6479492 0.1331787
vt 0.6479492 0.1331787
vt 0.6479492 0.1331787
vt 0.6479492 0.1331787
vt 0.6479492 0.1331787
vt 0.6479492 0.1331787
vt 0.6479492 0.1331787
vt 0.6479492 0.1331787
vt 0.6479492 0.1331787
vt 0.6479492 0.1331787
vt 0.6479492 0.1331787
vt 0.6479492 0.1331787
vt 0.6479492 0.1331787
vt 0.6479492 0.1331787
vt 0.6479492 0.1331787
vt 0.6479492 0.1331787
vt 0.6479492 0.1331787
vt 0.6479492 0.1331787
vt 0.6479492 0.1331787
vt 0.6479492 0.1331787
vt 0.6479492 0.1331787
vt 0.6479492 0.1331787
vt 0.6479492 0.1331787
vt 0.6479492 0.1331787
vt 0.6479492 0.1331787
vt 0.6479492 0.1331787
vt 0.6479492 0.1331787
vt 0.6479492 0.1331787
vt 0.6479492 0.1331787
vt 0.6479492 0.1331787
vt 0.6479492 0.1331787
vt 0.6479492 0.1331787
vt 0.6479492 0.1331787
vt 0.6479492 0.1331787
vt 0.6479492 0.1331787
vt 0.6479492 0.1331787
vt 0.6479492 0.1331787
vt 0.6479492 0.1331787
vt 0.6479492 0.1331787
vt 0.6479492 0.1331787
vt 0.6479492 0.1331787
vt 0.6479492 0.1331787
vt 0.6479492 0.1331787
vt 0.6479492 0.1331787
vt 0.6479492 0.1331787
vt 0.6479492 0.1331787
vt 0.6479492 0.1331787
vt 0.6479492 0.1331787
vt 0.6479492 0.1331787
vt 0.6479492 0.1331787
vt 0.6479492 0.1331787
vt 0.6479492 0.1331787
vt 0.6479492 0.1331787
vt 0.6479492 0.1331787
vt 0.6479492 0.1331787
vt 0.6479492 0.1331787
vt 0.6479492 0.1331787
vt 0.6479492 0.1331787
vt 0.6479492 0.1331787
vt 0.6479492 0.1331787
vt 0.6479492 0.1331787
vt 0.6479492 0.1331787
vt 0.6479492 0.1331787
vt 0.6479492 0.1331787
vt 0.6479492 0.1331787
vt 0.6479492 0.1331787
vt 0.6479492 0.1331787
vt 0.6479492 0.1331787
vt 0.6479492 0.1331787
vt 0.6479492 0.1331787
vt 0.6479492 0.1331787
vt 0.6479492 0.1331787
vt 0.6479492 0.1331787
vt 0.6479492 0.1331787
vt 0.6479492 0.1331787
vt 0.6479492 0.1331787
vt 0.6479492 0.1331787
vt 0.6479492 0.1331787
vt 0.6479492 0.1331787
vt 0.6479492 0.1331787
vt 0.6479492 0.1331787
vt 0.6479492 0.1331787
vt 0.6479492 0.1331787
vt 0.6479492 0.1331787
vt 0.6479492 0.1331787
vt 0.6479492 0.1331787
vt 0.6479492 0.1331787
vt 0.6479492 0.1331787
vt 0.6479492 0.1331787
vt 0.6479492 0.1331787
vt 0.6479492 0.1331787
vt 0.6479492 0.1331787
vt 0.6479492 0.1331787
vt 0.6479492 0.1331787
vt 0.6479492 0.1331787
vt 0.6479492 0.1331787
vt 0.6479492 0.1331787
vt 0.6479492 0.1331787
vt 0.6479492 0.1331787
vt 0.6479492 0.1331787
vt 0.6479492 0.1331787
vt 0.6479492 0.1331787
vt 0.6479492 0.1331787
vt 0.6479492 0.1331787
vt 0.6479492 0.1331787
vt 0.6479492 0.1331787
vt 0.6479492 0.1331787
vt 0.6479492 0.1331787
vt 0.6479492 0.1331787
vt 0.6479492 0.1331787
vt 0.6479492 0.1331787
vt 0.6479492 0.1331787
vt 0.6479492 0.1331787
vt 0.6479492 0.1331787
vt 0.6479492 0.1331787
vt 0.6479492 0.1331787
vt 0.6479492 0.1331787
vt 0.6479492 0.1331787
vt 0.6479492 0.1331787
vt 0.6479492 0.1331787
vt 0.6479492 0.1331787
vt 0.6479492 0.1331787
vt 0.6479492 0.1331787
vt 0.6479492 0.1331787
vt 0.6479492 0.1331787
vt 0.6479492 0.1331787
vt 0.6479492 0.1331787
vt 0.6479492 0.1331787
vt 0.6479492 0.1331787
vt 0.6479492 0.1331787
vt 0.6479492 0.1331787
vt 0.6479492 0.1331787
vt 0.6479492 0.1331787
vt 0.6479492 0.1331787
vt 0.6479492 0.1331787
vt 0.6479492 0.1331787
vt 0.6479492 0.1331787
vt 0.6479492 0.1331787
vt 0.6479492 0.1331787
vt 0.6479492 0.1331787
vt 0.6479492 0.1331787
vt 0.6479492 0.1331787
vt 0.6479492 0.1331787
vt 0.6479492 0.1331787
vt 0.6479492 0.1331787
vt 0.6479492 0.1331787
vt 0.6479492 0.1331787
vt 0.6479492 0.1331787
vt 0.6479492 0.1331787
vt 0.6479492 0.1331787
vt 0.6479492 0.1331787
vt 0.6479492 0.1331787
vt 0.6479492 0.1331787
vt 0.6479492 0.1331787
vt 0.6479492 0.1331787
vt 0.6479492 0.1331787
vt 0.6479492 0.1331787
vt 0.6479492 0.1331787
vt 0.6479492 0.1331787
vt 0.6479492 0.1331787
vt 0.6479492 0.1331787
vt 0.6479492 0.1331787
vt 0.6479492 0.1331787
vt 0.6479492 0.1331787
vt 0.6479492 0.1331787
vt 0.6479492 0.1331787
vt 0.6479492 0.1331787
vt 0.6479492 0.1331787
vt 0.6479492 0.1331787
vt 0.6479492 0.1331787
vt 0.6479492 0.1331787
vt 0.6479492 0.1331787
vt 0.6479492 0.1331787
vt 0.6479492 0.1331787
vt 0.6479492 0.1331787
vt 0.6479492 0.1331787
vt 0.6479492 0.1331787
vt 0.6479492 0.1331787
vt 0.6479492 0.1331787
vt 0.6479492 0.1331787
vt 0.6479492 0.1331787
vt 0.6479492 0.1331787
vt 0.6479492 0.1331787
vt 0.6479492 0.1331787
vt 0.6479492 0.1331787
vt 0.6479492 0.1331787
vt 0.6479492 0.1331787
vt 0.6479492 0.1331787
vt 0.6479492 0.1331787
vt 0.6479492 0.1331787
vt 0.6479492 0.1331787
vt 0.6479492 0.1331787
vt 0.6479492 0.1331787
vt 0.6479492 0.1331787
vt 0.6479492 0.1331787
vt 0.6479492 0.1331787
vt 0.6479492 0.1331787
vt 0.6479492 0.1331787
vt 0.6479492 0.1331787
vt 0.6479492 0.1331787
vt 0.6479492 0.1331787
vt 0.6479492 0.1331787
vt 0.6479492 0.1331787
vt 0.6479492 0.1331787
vt 0.6479492 0.1331787
vt 0.6479492 0.1331787
vt 0.6479492 0.1331787
vt 0.6479492 0.1331787
vt 0.6479492 0.1331787
vt 0.6479492 0.1331787
vt 0.6479492 0.1331787
vt 0.6479492 0.1331787
vt 0.6479492 0.1331787
vt 0.6479492 0.1331787
vt 0.6479492 0.1331787
vt 0.6479492 0.1331787
vt 0.6479492 0.1331787
vt 0.6479492 0.1331787
vt 0.6479492 0.1331787
vt 0.6479492 0.1331787
vt 0.6479492 0.1331787
vt 0.6479492 0.1331787
vt 0.6479492 0.1331787
vt 0.6479492 0.1331787
vt 0.6479492 0.1331787
vt 0.6479492 0.1331787
vt 0.6479492 0.1331787
vt 0.6479492 0.1331787
vt 0.6479492 0.1331787
vt 0.6479492 0.1331787
vt 0.6479492 0.1331787
vt 0.6479492 0.1331787
vt 0.6479492 0.1331787
vt 0.6479492 0.1331787
vt 0.6479492 0.1331787
vt 0.6479492 0.1331787
vt 0.6479492 0.1331787
vt 0.6479492 0.1331787
vt 0.6479492 0.1331787
vt 0.6479492 0.1331787
vt 0.6479492 0.1331787
vt 0.6479492 0.1331787
vt 0.6479492 0.1331787
vt 0.6479492 0.1331787
vt 0.6479492 0.1331787
vt 0.6479492 0.1331787
vt 0.6479492 0.1331787
vt 0.6479492 0.1331787
vt 0.6479492 0.1331787
vt 0.6479492 0.1331787
vt 0.6479492 0.1331787
vt 0.6479492 0.1331787
vt 0.6479492 0.1331787
vt 0.6479492 0.1331787
vt 0.6479492 0.1331787
vt 0.6479492 0.1331787
vt 0.6479492 0.1331787
vt 0.6479492 0.1331787
vt 0.6479492 0.1331787
vt 0.6479492 0.1331787
vt 0.6479492 0.1331787
vt 0.6479492 0.1331787
vt 0.6479492 0.1331787
vt 0.6479492 0.1331787
vt 0.6479492 0.1331787
vt 0.6479492 0.1331787
vt 0.6479492 0.1331787
vt 0.6479492 0.1331787
vt 0.6479492 0.1331787
vt 0.6479492 0.1331787
vt 0.6479492 0.1331787
vt 0.6479492 0.1331787
vt 0.6479492 0.1331787
vt 0.6479492 0.1331787
vt 0.6479492 0.1331787
vt 0.6479492 0.1331787
vt 0.6479492 0.1331787
vt 0.6479492 0.1331787
vt 0.6479492 0.1331787
vt 0.6479492 0.1331787
vt 0.6479492 0.1331787
vt 0.6479492 0.1331787
vt 0.6479492 0.1331787
vt 0.6479492 0.1331787
vt 0.6479492 0.1331787
vt 0.6479492 0.1331787
vt 0.6479492 0.1331787
vt 0.6479492 0.1331787
vt 0.6479492 0.1331787
vt 0.6479492 0.1331787
vt 0.6479492 0.1331787
vt 0.6479492 0.1331787
vt 0.6479492 0.1331787
vt 0.6479492 0.1331787
vt 0.6479492 0.1331787
vt 0.6479492 0.1331787
vt 0.6479492 0.1331787
vt 0.6479492 0.1331787
vt 0.6479492 0.1331787
vt 0.6479492 0.1331787
vt 0.6479492 0.1331787
vt 0.6479492 0.1331787
vt 0.6479492 0.1331787
vt 0.6479492 0.1331787
vt 0.6479492 0.1331787
vt 0.6479492 0.1331787
vt 0.6479492 0.1331787
vt 0.6479492 0.1331787
vt 0.6479492 0.1331787
vt 0.6479492 0.1331787
vt 0.6479492 0.1331787
vt 0.6479492 0.1331787
vt 0.6479492 0.1331787
vt 0.6479492 0.1331787
vt 0.6479492 0.1331787
vt 0.6479492 0.1331787
vt 0.6479492 0.1331787
vt 0.6479492 0.1331787
vt 0.6479492 0.1331787
vn 0 0 1
vn 0 0 1
vn 0 0 1
vn 0 0 1
vn 0 0 1
vn 0 0 1
vn 0 0 1
vn 0 0 1
vn 0.8383789 -0.5449219 0
vn 0.8383789 -0.5449219 0
vn 0.8383789 -0.5449219 0
vn 0.8383789 -0.5449219 0
vn 0.565918 -0.8242188 0
vn 0.565918 -0.8242188 0
vn 0.565918 -0.8242188 0
vn 0.565918 -0.8242188 0
vn 0.2003174 -0.9799805 0
vn 0.2003174 -0.9799805 0
vn 0.2003174 -0.9799805 0
vn 0.2003174 -0.9799805 0
vn 0.9819336 -0.1900635 0
vn 0.9819336 -0.1900635 0
vn 0.9819336 -0.1900635 0
vn 0.9819336 -0.1900635 0
vn 0 0 -1
vn 0 0 -1
vn 0 0 -1
vn 0 0 -1
vn 0 0 -1
vn 0 0 -1
vn 0 0 -1
vn 0 0 -1
vn 0 0 1
vn 0 0 1
vn 0 0 1
vn 0 0 1
vn 0 0 1
vn 0 0 1
vn 0 0 1
vn 0 0 1
vn -0.8383789 -0.5449219 0
vn -0.8383789 -0.5449219 0
vn -0.8383789 -0.5449219 0
vn -0.8383789 -0.5449219 0
vn -0.565918 -0.8242188 0
vn -0.565918 -0.8242188 0
vn -0.565918 -0.8242188 0
vn -0.565918 -0.8242188 0
vn -0.2003174 -0.9794922 0
vn -0.2003174 -0.9794922 0
vn -0.2003174 -0.9794922 0
vn -0.2003174 -0.9794922 0
vn -0.9819336 -0.1900635 0
vn -0.9819336 -0.1900635 0
vn -0.9819336 -0.1900635 0
vn -0.9819336 -0.1900635 0
vn 0 0 -1
vn 0 0 -1
vn 0 0 -1
vn 0 0 -1
vn 0 0 -1
vn 0 0 -1
vn 0 0 -1
vn 0 0 -1
vn 0 0 1
vn 0 0 1
vn 0 0 1
vn 0 0 1
vn 0 0 -1
vn 0 0 -1
vn 0 0 -1
vn 0 0 -1
vn 1 0 0
vn 1 0 0
vn 1 0 0
vn 1 0 0
vn -1 0 0
vn -1 0 0
vn -1 0 0
vn -1 0 0
vn 0 0 1
vn 0 0 1
vn 0 0 1
vn 0 0 1
vn 0 0 -1
vn 0 0 -1
vn 0 0 -1
vn 0 0 -1
vn 1 0 0
vn 1 0 0
vn 1 0 0
vn 1 0 0
vn -1 0 0
vn -1 0 0
vn -1 0 0
vn -1 0 0
vn 0.003774643 -0.9003906 0.4353027
vn 0.003774643 -0.9003906 0.4353027
vn -0.01696777 -0.9003906 0.4350586
vn -0.01696777 -0.9003906 0.4350586
vn 0.02452087 -0.8999023 0.4350586
vn 0.02452087 -0.8999023 0.4350586
vn -0.01696777 -0.9003906 -0.4350586
vn 0.003774643 -0.9003906 -0.4353027
vn 0.003774643 -0.9003906 -0.4353027
vn -0.01696777 -0.9003906 -0.4350586
vn 0.02452087 -0.8999023 -0.4350586
vn 0.02452087 -0.8999023 -0.4350586
vn 1 0 0
vn 1 0 0
vn 1 0 0
vn 1 0 0
vn 1 0 0
vn 1 0 0
vn 1 0 0
vn 1 0 0
vn 1 0 0
vn 1 0 0
vn 1 0 0
vn -0.007080078 -0.9257813 0.3776855
vn -0.00202179 -0.9277344 0.3735352
vn -0.00202179 -0.9277344 0.3735352
vn -0.007080078 -0.9257813 0.3776855
vn 0.003036499 -0.9291992 0.3693848
vn 0.003036499 -0.9291992 0.3693848
vn 0.003881454 0.996582 0.08306885
vn -0.008636475 0.9990234 0.0380249
vn 0 0.9975586 0.06848145
vn 0.001111984 0.9941406 0.1088867
vn 0.01018524 0.9941406 0.1060791
vn -0.003118515 0.996582 0.08087158
vn 0.006481171 1 0.01777649
vn -0.007873535 0.9936523 0.1115112
vn 0.005931854 -0.862793 -0.5053711
vn -0.0004854202 -0.8710938 -0.4909668
vn -0.0004854202 -0.8710938 -0.4909668
vn 0.005931854 -0.862793 -0.5053711
vn -0.006904602 -0.8789063 -0.4768066
vn -0.006904602 -0.8789063 -0.4768066
vn -0.0002161264 -0.9970703 -0.07507324
vn -0.0001271963 -0.9975586 -0.06896973
vn -0.0001271963 -0.9975586 -0.06896973
vn -0.0002161264 -0.9970703 -0.07507324
vn -3.832579E-05 -0.9980469 -0.06280518
vn -3.832579E-05 -0.9980469 -0.06280518
vn 0.0134964 0.9101563 0.4140625
vn -0.003002167 0.9101563 0.4140625
vn -0.003002167 0.9101563 0.4140625
vn 0.0134964 0.9101563 0.4140625
vn -0.01950073 0.9101563 0.4138184
vn -0.01950073 0.9101563 0.4138184
vn -0.003002167 0.9101563 -0.4140625
vn -0.003002167 0.9101563 -0.4140625
vn 0.0134964 0.9101563 -0.4140625
vn 0.0134964 0.9101563 -0.4140625
vn -0.01950073 0.9101563 -0.4138184
vn -0.01950073 0.9101563 -0.4138184
vn 0 0 1
vn 0 0 1
vn 0 0 1
vn 0 0 1
vn 0 0 1
vn 0 0 1
vn 0.3532715 0.840332 -0.411377
vn 0.3532715 0.840332 -0.411377
vn 0.3532715 0.840332 -0.411377
vn -0.133667 0.8901367 -0.435791
vn -0.133667 0.8901367 -0.435791
vn -0.133667 0.8901367 -0.435791
vn 0 -8.308887E-05 -1
vn 0 -8.308887E-05 -1
vn 0 -8.308887E-05 -1
vn 0 -8.308887E-05 -1
vn 0 -8.308887E-05 -1
vn 0 -8.308887E-05 -1
vn 0 0 1
vn 0 0 1
vn 0 0 1
vn 0 0 1
vn 0 0 1
vn 0 0 1
vn 0 -0.05603027 0.9985352
vn -0.004428864 -0.0501709 0.9985352
vn -0.004428864 -0.0501709 0.9985352
vn 0 -0.05603027 0.9985352
vn -0.008857727 -0.04428101 0.9990234
vn -0.008857727 -0.04428101 0.9990234
vn 1 -0.008079529 0
vn 1 -0.0004525185 0
vn 1 -0.0004525185 0
vn 1 -0.008079529 0
vn 1 0.007171631 0
vn 1 0.007171631 0
vn -0.005199432 0.05633545 -0.9985352
vn -0.004589081 0.05053711 -0.9985352
vn -0.004589081 0.05053711 -0.9985352
vn -0.005199432 0.05633545 -0.9985352
vn -0.003974915 0.04473877 -0.9990234
vn -0.003974915 0.04473877 -0.9990234
vn -0.004283905 -0.04452515 0.9990234
vn -0.004283905 -0.04452515 0.9990234
vn -0.004611969 -0.04376221 0.9990234
vn -0.004283905 -0.04452515 0.9990234
vn -0.004940033 -0.04299927 0.9990234
vn -0.004940033 -0.04299927 0.9990234
vn -0.004940033 -0.04299927 0.9990234
vn -0.0005321503 0.0569458 -0.9985352
vn -0.00421524 0.0508728 -0.9985352
vn -0.00421524 0.0508728 -0.9985352
vn -0.0005321503 0.0569458 -0.9985352
vn -0.007896423 0.04476929 -0.9990234
vn -0.007896423 0.04476929 -0.9990234
vn 0.006256104 0.9077148 0.4194336
vn -0.0005664825 0.9130859 0.4082031
vn -0.0005664825 0.9130859 0.4082031
vn 0.006256104 0.9077148 0.4194336
vn -0.007389069 0.9179688 0.3967285
vn -0.007389069 0.9179688 0.3967285
vn -0.008247375 0.9589844 -0.2827148
vn -0.002223969 0.9594727 -0.2824707
vn -0.002223969 0.9594727 -0.2824707
vn -0.008247375 0.9589844 -0.2827148
vn 0.003801346 0.9594727 -0.2819824
vn 0.003801346 0.9594727 -0.2819824
vn -0.1101685 0.6943359 -0.7114258
vn -0.1101685 0.6943359 -0.7114258
vn -0.1101685 0.6943359 -0.7114258
vn 0 4.243851E-05 -1
vn 0 0 -1
vn 0 5.656481E-05 -1
vn 0 8.487701E-05 -1
vn 0 0 -1
vn 0 0 -1
vn 0 0 -1
vn 0 0 -1
vn 0 0 -1
vn 0.04196167 0.9619141 0.270752
vn 0.04196167 0.9619141 0.270752
vn 0.04196167 0.9619141 0.270752
vn 0.03286743 0.9985352 -0.03829956
vn 0.0009474754 1 -0.007663727
vn 0.03225708 0.9995117 -0.01914978
vn 0.03167725 0.9995117 0
vn -0.007038116 1 0
vn -0.04571533 0.9990234 0
vn -0.04571533 0.9990234 0
vn -0.0635376 0.9760742 -0.2071533
vn -0.0635376 0.9760742 -0.2071533
vn -0.0635376 0.9760742 -0.2071533
vn -0.01360321 -1 -0.01039886
vn -0.01360321 -1 -0.01039886
vn -0.01360321 -1 -0.01039886
vn -0.01360321 -1 -0.01039886
vn 0 -0.2252197 0.9741211
vn 0 -0.2252197 0.9741211
vn 0 -0.2252197 0.9741211
vn 0 -0.2252197 0.9741211
vn -0.002405167 0.2099609 0.9775391
vn -0.002405167 0.2099609 0.9775391
vn -0.002405167 0.2099609 0.9775391
vn -0.002405167 0.2099609 0.9775391
vn -0.0125351 1 0.009590149
vn -0.0125351 1 0.009590149
vn -0.0125351 1 0.009590149
vn -0.0125351 1 0.009590149
vn 0 0.2053223 -0.9785156
vn 0 0.2053223 -0.9785156
vn 0 0.2053223 -0.9785156
vn 0 0.2053223 -0.9785156
vn -0.002889633 -0.2313232 -0.9726563
vn -0.002889633 -0.2313232 -0.9726563
vn -0.002889633 -0.2313232 -0.9726563
vn -0.002889633 -0.2313232 -0.9726563
vn 0.2047119 0.7104492 0.6733398
vn 0.2047119 0.7104492 0.6733398
vn 0.2047119 0.7104492 0.6733398
vn -0.1624756 0.6401367 0.7509766
vn -0.1624756 0.6401367 0.7509766
vn -0.1624756 0.6401367 0.7509766
vn 0.001259804 0.2261963 0.9741211
vn 0.001259804 0.2261963 0.9741211
vn 0.001259804 0.2261963 0.9741211
vn 0.001259804 0.2261963 0.9741211
vn -0.001478195 -0.2325439 0.9726563
vn -0.001478195 -0.2325439 0.9726563
vn -0.001478195 -0.2325439 0.9726563
vn -0.001478195 -0.2325439 0.9726563
vn 0 -0.9995117 -0.02619934
vn 0 -0.9995117 -0.02619934
vn 0 -0.9995117 -0.02619934
vn 0 -0.9995117 -0.02619934
vn 0.001636505 -0.2496338 -0.9682617
vn 0.001636505 -0.2496338 -0.9682617
vn 0.001636505 -0.2496338 -0.9682617
vn 0.001636505 -0.2496338 -0.9682617
vn -0.001124382 0.2122803 -0.9770508
vn -0.001124382 0.2122803 -0.9770508
vn -0.001124382 0.2122803 -0.9770508
vn -0.001124382 0.2122803 -0.9770508
vn 0.0001165867 0.9995117 0.02532959
vn 0.0001165867 0.9995117 0.02532959
vn 0.0001165867 0.9995117 0.02532959
vn 0.0001165867 0.9995117 0.02532959
vn 0.8808594 0.05950928 0.4697266
vn 0.8808594 0.05950928 0.4697266
vn 0.8808594 0.05950928 0.4697266
vn 0.8808594 0.05950928 0.4697266
vn 0.8710938 -0.447998 0.2006836
vn 0.8710938 -0.447998 0.2006836
vn 0.8710938 -0.447998 0.2006836
vn 0.9545898 0.2739258 0.1171265
vn 0.9545898 0.2739258 0.1171265
vn 0.9545898 0.2739258 0.1171265
vn -1 0 0
vn -1 0 0
vn -1 0 0
vn -1 0 0
vn -1 0 0
vn -1 0 0
vn 0.890625 -0.0760498 0.4482422
vn 0.890625 -0.0760498 0.4482422
vn 0.890625 -0.0760498 0.4482422
vn 0.890625 -0.0760498 0.4482422
vn 0.7197266 -0.6933594 -0.02732849
vn 0.7197266 -0.6933594 -0.02732849
vn 0.7197266 -0.6933594 -0.02732849
vn 0.7197266 -0.6933594 -0.02732849
vn 0.8632813 -0.07806396 -0.498291
vn 0.8632813 -0.07806396 -0.498291
vn 0.8632813 -0.07806396 -0.498291
vn 0.8632813 -0.07806396 -0.498291
vn 0.9228516 0.3647461 -0.1226196
vn 0.9228516 0.3647461 -0.1226196
vn 0.9228516 0.3647461 -0.1226196
vn 0.9291992 -0.3244629 -0.1773682
vn 0.9291992 -0.3244629 -0.1773682
vn 0.9291992 -0.3244629 -0.1773682
vn 0.8955078 0.0635376 -0.4404297
vn 0.8955078 0.0635376 -0.4404297
vn 0.8955078 0.0635376 -0.4404297
vn 0.8955078 0.0635376 -0.4404297
vn 0.7231445 0.6899414 0.02554321
vn 0.7231445 0.6899414 0.02554321
vn 0.7231445 0.6899414 0.02554321
vn 0.7231445 0.6899414 0.02554321
vn -0.8237305 -0.5664063 -0.01136017
vn -0.8237305 -0.5664063 -0.01136017
vn -0.8237305 -0.5664063 -0.01136017
vn -0.8237305 -0.5664063 -0.01136017
vn -0.78125 -0.09887695 0.6166992
vn -0.78125 -0.09887695 0.6166992
vn -0.78125 -0.09887695 0.6166992
vn -0.78125 -0.09887695 0.6166992
vn -0.949707 0.293457 0.1081543
vn -0.949707 0.293457 0.1081543
vn -0.949707 0.293457 0.1081543
vn -0.8706055 -0.4523926 0.1942139
vn -0.8706055 -0.4523926 0.1942139
vn -0.8706055 -0.4523926 0.1942139
vn -0.7788086 0.07769775 0.6225586
vn -0.7788086 0.07769775 0.6225586
vn -0.7788086 0.07769775 0.6225586
vn -0.7788086 0.07769775 0.6225586
vn -0.8481445 0.5297852 0.009681702
vn -0.8481445 0.5297852 0.009681702
vn -0.8481445 0.5297852 0.009681702
vn -0.8481445 0.5297852 0.009681702
vn -0.7973633 0.07989502 -0.5986328
vn -0.7973633 0.07989502 -0.5986328
vn -0.7973633 0.07989502 -0.5986328
vn -0.7973633 0.07989502 -0.5986328
vn -0.9086914 -0.3774414 -0.1790771
vn -0.9086914 -0.3774414 -0.1790771
vn -0.9086914 -0.3774414 -0.1790771
vn -0.9326172 0.3425293 -0.1115723
vn -0.9326172 0.3425293 -0.1115723
vn -0.9326172 0.3425293 -0.1115723
vn -0.7509766 -0.1025391 -0.6518555
vn -0.7509766 -0.1025391 -0.6518555
vn -0.7509766 -0.1025391 -0.6518555
vn -0.7509766 -0.1025391 -0.6518555
vn 0 0 1
vn 0 0 1
vn 0 0 1
vn 0 0 1
vn 0 0 -1
vn 0 0 -1
vn 0 0 -1
vn 0 0 -1
vn 1 0 0
vn 1 0 0
vn 1 0 0
vn 1 0 0
vn -1 0 0
vn -1 0 0
vn -1 0 0
vn -1 0 0
vn 0 0 1
vn 0 0 1
vn 0 0 1
vn 0 0 1
vn -0.002513885 0.04803467 0.9990234
vn -0.002513885 0.04803467 0.9990234
vn 9.840727E-05 0.09594727 0.9956055
vn 9.840727E-05 0.09594727 0.9956055
vn 0.005218506 0.0960083 0.9956055
vn 0.005218506 0.0960083 0.9956055
vn -0.005420685 1 0
vn -0.05252075 0.9985352 0
vn -0.05252075 0.9985352 0
vn -0.005420685 1 0
vn 0.04168701 0.9990234 0
vn 0.04168701 0.9990234 0
vn 0 0 -1
vn 0 0 -1
vn 0 0 -1
vn 0 0 -1
vn 0.002040863 -0.04803467 -0.9990234
vn 0.002040863 -0.04803467 -0.9990234
vn -0.0001148582 -0.09594727 -0.9956055
vn -0.0001148582 -0.09594727 -0.9956055
vn -0.004306793 -0.0960083 -0.9956055
vn -0.004306793 -0.0960083 -0.9956055
vn 0.005420685 -1 0
vn 0.05252075 -0.9985352 0
vn 0.05252075 -0.9985352 0
vn 0.005420685 -1 0
vn -0.04168701 -0.9990234 0
vn -0.04168701 -0.9990234 0
vn 0.04940796 0.9975586 -0.04467773
vn 0.001063347 0.9990234 -0.04309082
vn 0.001063347 0.9990234 -0.04309082
vn 0.04940796 0.9975586 -0.04467773
vn -0.04727173 0.9980469 -0.04138184
vn -0.04727173 0.9980469 -0.04138184
vn -0.04937744 -0.9975586 0.04467773
vn -0.001029968 -0.9990234 0.04309082
vn -0.001029968 -0.9990234 0.04309082
vn -0.04937744 -0.9975586 0.04467773
vn 0.04730225 -0.9980469 0.04138184
vn 0.04730225 -0.9980469 0.04138184
vn -1 -0.001261711 0.001146317
vn -1 -0.001261711 5.638599E-05
vn -1 0 0.00343895
vn -1 -0.0009460449 -0.0008172989
vn -1 0 -0.003269196
vn -1 0 0
vn -1 0 0
vn -1 0 0
vn -1 0 0
vn -1 0 0
vn -1 0 0
vn -1 0 0
g SM_Env_Fence_01_0
f 3/3/3 2/2/2 1/1/1
f 4/4/4 3/3/3 1/1/1
f 3/3/3 5/5/5 2/2/2
f 5/5/5 6/6/6 2/2/2
f 6/6/6 5/5/5 7/7/7
f 4/4/4 1/1/1 8/8/8
f 11/11/11 10/10/10 9/9/9
f 12/12/12 11/11/11 9/9/9
f 15/15/15 14/14/14 13/13/13
f 16/16/16 15/15/15 13/13/13
f 19/19/19 18/18/18 17/17/17
f 20/20/20 19/19/19 17/17/17
f 23/23/23 22/22/22 21/21/21
f 24/24/24 23/23/23 21/21/21
f 27/27/27 26/26/26 25/25/25
f 25/25/25 26/26/26 28/28/28
f 26/26/26 29/29/29 28/28/28
f 28/28/28 29/29/29 30/30/30
f 29/29/29 31/31/31 30/30/30
f 30/30/30 31/31/31 32/32/32
f 35/35/35 34/34/34 33/33/33
f 36/36/36 35/35/35 33/33/33
f 37/37/37 35/35/35 36/36/36
f 38/38/38 37/37/37 36/36/36
f 37/37/37 38/38/38 39/39/39
f 33/33/33 34/34/34 40/40/40
f 43/43/43 42/42/42 41/41/41
f 44/44/44 43/43/43 41/41/41
f 47/47/47 46/46/46 45/45/45
f 48/48/48 47/47/47 45/45/45
f 51/51/51 50/50/50 49/49/49
f 52/52/52 51/51/51 49/49/49
f 55/55/55 54/54/54 53/53/53
f 56/56/56 55/55/55 53/53/53
f 59/59/59 58/58/58 57/57/57
f 59/59/59 57/57/57 60/60/60
f 61/61/61 59/59/59 60/60/60
f 61/61/61 60/60/60 62/62/62
f 63/63/63 61/61/61 62/62/62
f 63/63/63 62/62/62 64/64/64
f 67/67/67 66/66/66 65/65/65
f 68/68/68 67/67/67 65/65/65
f 71/71/71 70/70/70 69/69/69
f 72/72/72 71/71/71 69/69/69
f 75/75/75 74/74/74 73/73/73
f 76/76/76 75/75/75 73/73/73
f 79/79/79 78/78/78 77/77/77
f 80/80/80 79/79/79 77/77/77
f 83/83/83 82/82/82 81/81/81
f 84/84/84 83/83/83 81/81/81
f 87/87/87 86/86/86 85/85/85
f 88/88/88 87/87/87 85/85/85
f 91/91/91 90/90/90 89/89/89
f 92/92/92 91/91/91 89/89/89
f 95/95/95 94/94/94 93/93/93
f 96/96/96 95/95/95 93/93/93
f 99/99/99 98/98/98 97/97/97
f 100/100/100 99/99/99 97/97/97
f 97/97/97 98/98/98 101/101/101
f 98/98/98 102/102/102 101/101/101
f 105/105/105 104/104/104 103/103/103
f 106/106/106 105/105/105 103/103/103
f 105/105/105 107/107/107 104/104/104
f 107/107/107 108/108/108 104/104/104
f 111/111/111 110/110/110 109/109/109
f 112/112/112 111/111/111 109/109/109
f 112/112/112 109/109/109 113/113/113
f 114/114/114 112/112/112 113/113/113
f 111/111/111 115/115/115 110/110/110
f 115/115/115 116/116/116 110/110/110
f 114/114/114 113/113/113 117/117/117
f 114/114/114 117/117/117 118/118/118
f 118/118/118 119/119/119 114/114/114
f 122/122/122 121/121/121 120/120/120
f 123/123/123 122/122/122 120/120/120
f 122/122/122 124/124/124 121/121/121
f 124/124/124 125/125/125 121/121/121
f 128/128/128 127/127/127 126/126/126
f 126/126/126 129/129/129 128/128/128
f 126/126/126 130/130/130 129/129/129
f 128/128/128 129/129/129 131/131/131
f 131/131/131 132/132/132 128/128/128
f 129/129/129 133/133/133 131/131/131
f 136/136/136 135/135/135 134/134/134
f 137/137/137 136/136/136 134/134/134
f 136/136/136 138/138/138 135/135/135
f 138/138/138 139/139/139 135/135/135
f 142/142/142 141/141/141 140/140/140
f 143/143/143 142/142/142 140/140/140
f 142/142/142 144/144/144 141/141/141
f 144/144/144 145/145/145 141/141/141
f 148/148/148 147/147/147 146/146/146
f 149/149/149 148/148/148 146/146/146
f 148/148/148 150/150/150 147/147/147
f 150/150/150 151/151/151 147/147/147
f 154/154/154 153/153/153 152/152/152
f 155/155/155 154/154/154 152/152/152
f 152/152/152 153/153/153 156/156/156
f 153/153/153 157/157/157 156/156/156
f 160/160/160 159/159/159 158/158/158
f 161/161/161 160/160/160 158/158/158
f 161/161/161 158/158/158 162/162/162
f 163/163/163 161/161/161 162/162/162
f 166/166/166 165/165/165 164/164/164
f 169/169/169 168/168/168 167/167/167
f 172/172/172 171/171/171 170/170/170
f 173/173/173 172/172/172 170/170/170
f 172/172/172 174/174/174 171/171/171
f 174/174/174 175/175/175 171/171/171
f 178/178/178 177/177/177 176/176/176
f 179/179/179 178/178/178 176/176/176
f 176/176/176 177/177/177 180/180/180
f 177/177/177 181/181/181 180/180/180
f 184/184/184 183/183/183 182/182/182
f 185/185/185 184/184/184 182/182/182
f 184/184/184 186/186/186 183/183/183
f 186/186/186 187/187/187 183/183/183
f 190/190/190 189/189/189 188/188/188
f 191/191/191 190/190/190 188/188/188
f 190/190/190 192/192/192 189/189/189
f 192/192/192 193/193/193 189/189/189
f 196/196/196 195/195/195 194/194/194
f 197/197/197 196/196/196 194/194/194
f 196/196/196 198/198/198 195/195/195
f 198/198/198 199/199/199 195/195/195
f 202/202/202 201/201/201 200/200/200
f 203/203/203 202/202/202 200/200/200
f 202/202/202 205/205/205 204/204/204
f 205/205/205 206/206/206 204/204/204
f 209/209/209 208/208/208 207/207/207
f 210/210/210 209/209/209 207/207/207
f 209/209/209 211/211/211 208/208/208
f 211/211/211 212/212/212 208/208/208
f 215/215/215 214/214/214 213/213/213
f 216/216/216 215/215/215 213/213/213
f 215/215/215 217/217/217 214/214/214
f 217/217/217 218/218/218 214/214/214
f 221/221/221 220/220/220 219/219/219
f 222/222/222 221/221/221 219/219/219
f 221/221/221 223/223/223 220/220/220
f 223/223/223 224/224/224 220/220/220
f 227/227/227 226/226/226 225/225/225
f 230/230/230 229/229/229 228/228/228
f 228/228/228 231/231/231 230/230/230
f 228/228/228 232/232/232 231/231/231
f 228/228/228 233/233/233 232/232/232
f 229/229/229 230/230/230 234/234/234
f 229/229/229 234/234/234 235/235/235
f 235/235/235 236/236/236 229/229/229
f 239/239/239 238/238/238 237/237/237
f 242/242/242 241/241/241 240/240/240
f 242/242/242 243/243/243 241/241/241
f 243/243/243 244/244/244 241/241/241
f 241/241/241 244/244/244 245/245/245
f 241/241/241 245/245/245 246/246/246
f 249/249/249 248/248/248 247/247/247
f 252/252/252 251/251/251 250/250/250
f 253/253/253 252/252/252 250/250/250
f 256/256/256 255/255/255 254/254/254
f 257/257/257 256/256/256 254/254/254
f 260/260/260 259/259/259 258/258/258
f 261/261/261 260/260/260 258/258/258
f 264/264/264 263/263/263 262/262/262
f 265/265/265 264/264/264 262/262/262
f 268/268/268 267/267/267 266/266/266
f 269/269/269 268/268/268 266/266/266
f 272/272/272 271/271/271 270/270/270
f 273/273/273 272/272/272 270/270/270
f 276/276/276 275/275/275 274/274/274
f 279/279/279 278/278/278 277/277/277
f 282/282/282 281/281/281 280/280/280
f 283/283/283 282/282/282 280/280/280
f 286/286/286 285/285/285 284/284/284
f 287/287/287 286/286/286 284/284/284
f 290/290/290 289/289/289 288/288/288
f 291/291/291 290/290/290 288/288/288
f 294/294/294 293/293/293 292/292/292
f 295/295/295 294/294/294 292/292/292
f 298/298/298 297/297/297 296/296/296
f 299/299/299 298/298/298 296/296/296
f 302/302/302 301/301/301 300/300/300
f 303/303/303 302/302/302 300/300/300
f 306/306/306 305/305/305 304/304/304
f 307/307/307 306/306/306 304/304/304
f 310/310/310 309/309/309 308/308/308
f 313/313/313 312/312/312 311/311/311
f 316/316/316 315/315/315 314/314/314
f 317/317/317 316/316/316 314/314/314
f 315/315/315 316/316/316 318/318/318
f 316/316/316 319/319/319 318/318/318
f 322/322/322 321/321/321 320/320/320
f 323/323/323 322/322/322 320/320/320
f 326/326/326 325/325/325 324/324/324
f 327/327/327 326/326/326 324/324/324
f 330/330/330 329/329/329 328/328/328
f 331/331/331 330/330/330 328/328/328
f 334/334/334 333/333/333 332/332/332
f 337/337/337 336/336/336 335/335/335
f 340/340/340 339/339/339 338/338/338
f 341/341/341 340/340/340 338/338/338
f 344/344/344 343/343/343 342/342/342
f 345/345/345 344/344/344 342/342/342
f 348/348/348 347/347/347 346/346/346
f 349/349/349 348/348/348 346/346/346
f 352/352/352 351/351/351 350/350/350
f 353/353/353 352/352/352 350/350/350
f 356/356/356 355/355/355 354/354/354
f 359/359/359 358/358/358 357/357/357
f 362/362/362 361/361/361 360/360/360
f 363/363/363 362/362/362 360/360/360
f 366/366/366 365/365/365 364/364/364
f 367/367/367 366/366/366 364/364/364
f 370/370/370 369/369/369 368/368/368
f 371/371/371 370/370/370 368/368/368
f 374/374/374 373/373/373 372/372/372
f 377/377/377 376/376/376 375/375/375
f 380/380/380 379/379/379 378/378/378
f 381/381/381 380/380/380 378/378/378
f 384/384/384 383/383/383 382/382/382
f 385/385/385 384/384/384 382/382/382
f 388/388/388 387/387/387 386/386/386
f 389/389/389 388/388/388 386/386/386
f 392/392/392 391/391/391 390/390/390
f 393/393/393 392/392/392 390/390/390
f 396/396/396 395/395/395 394/394/394
f 397/397/397 396/396/396 394/394/394
f 400/400/400 399/399/399 398/398/398
f 401/401/401 400/400/400 398/398/398
f 401/401/401 398/398/398 402/402/402
f 403/403/403 401/401/401 402/402/402
f 403/403/403 402/402/402 404/404/404
f 405/405/405 403/403/403 404/404/404
f 405/405/405 404/404/404 406/406/406
f 407/407/407 405/405/405 406/406/406
f 410/410/410 409/409/409 408/408/408
f 411/411/411 410/410/410 408/408/408
f 411/411/411 408/408/408 412/412/412
f 413/413/413 411/411/411 412/412/412
f 416/416/416 415/415/415 414/414/414
f 417/417/417 416/416/416 414/414/414
f 417/417/417 414/414/414 418/418/418
f 419/419/419 417/417/417 418/418/418
f 419/419/419 418/418/418 420/420/420
f 421/421/421 419/419/419 420/420/420
f 421/421/421 420/420/420 422/422/422
f 423/423/423 421/421/421 422/422/422
f 426/426/426 425/425/425 424/424/424
f 427/427/427 426/426/426 424/424/424
f 427/427/427 424/424/424 428/428/428
f 429/429/429 427/427/427 428/428/428
f 432/432/432 431/431/431 430/430/430
f 433/433/433 432/432/432 430/430/430
f 432/432/432 434/434/434 431/431/431
f 434/434/434 435/435/435 431/431/431
f 438/438/438 437/437/437 436/436/436
f 439/439/439 438/438/438 436/436/436
f 438/438/438 440/440/440 437/437/437
f 440/440/440 441/441/441 437/437/437
f 444/444/444 443/443/443 442/442/442
f 442/442/442 443/443/443 445/445/445
f 445/445/445 443/443/443 446/446/446
f 445/445/445 447/447/447 442/442/442
f 445/445/445 448/448/448 447/447/447
f 447/447/447 448/448/448 449/449/449
f 449/449/449 450/450/450 447/447/447
f 449/449/449 451/451/451 450/450/450
f 448/448/448 452/452/452 449/449/449
f 452/452/452 453/453/453 449/449/449
