g SM_Env_Fence_Post_01
v 4.768372E-07 1.410488 0.1346359
v 0.1021657 1.410488 0.1021652
v 0.1021657 1.299109 0.1021652
v 4.768372E-07 1.299109 0.1346359
v 4.768372E-07 1.469327 -0.08069611
v 0.06123018 1.469327 -0.06123352
v 0.08069277 1.469327 0
v 4.768372E-07 1.469327 0
v 0.06123018 1.469327 0.06123352
v 4.768372E-07 1.469327 0.08069611
v -0.08069181 1.469327 0
v -0.06122923 1.469327 -0.06123352
v -0.06122923 1.469327 0.06123352
v 4.768372E-07 1.299109 -0.1346359
v 0.1021657 1.299109 -0.1021652
v 0.1021657 1.410488 -0.1021652
v 4.768372E-07 1.410488 -0.1346359
v 0.1346402 1.410488 0
v 0.1021657 1.410488 -0.1021652
v 0.1021657 1.299109 -0.1021652
v 0.1346402 1.299109 0
v -0.1021647 1.299109 -0.1021652
v -0.1021647 1.410488 -0.1021652
v -0.1346393 1.410488 0
v -0.1346393 1.299109 0
v -0.06122923 1.235675 -0.06123352
v -0.1021647 1.299109 -0.1021652
v -0.1346393 1.299109 0
v -0.08069181 1.235675 0
v 4.768372E-07 1.299109 0.1346359
v 0.1021657 1.299109 0.1021652
v 0.06123018 1.235675 0.06123352
v 4.768372E-07 1.235675 0.08069611
v 0.1346402 1.299109 0
v 0.1021657 1.299109 -0.1021652
v 0.06123018 1.235675 -0.06123352
v 0.08069277 1.235675 0
v 4.768372E-07 1.235675 -0.08069611
v 0.06123018 1.235675 -0.06123352
v 0.1021657 1.299109 -0.1021652
v 4.768372E-07 1.299109 -0.1346359
v 4.768372E-07 1.469327 0.08069611
v 0.06123018 1.469327 0.06123352
v 0.1021657 1.410488 0.1021652
v 4.768372E-07 1.410488 0.1346359
v -0.1021647 1.410488 -0.1021652
v -0.06122923 1.469327 -0.06123352
v -0.08069181 1.469327 0
v -0.1346393 1.410488 0
v 4.768372E-07 1.410488 -0.1346359
v 0.1021657 1.410488 -0.1021652
v 0.06123018 1.469327 -0.06123352
v 4.768372E-07 1.469327 -0.08069611
v 0.08069277 1.469327 0
v 0.06123018 1.469327 -0.06123352
v 0.1021657 1.410488 -0.1021652
v 0.1346402 1.410488 0
v -0.1346393 1.299109 0
v -0.1021647 1.299109 0.1021652
v -0.06122923 1.235675 0.06123352
v -0.08069181 1.235675 0
v -0.1346393 1.410488 0
v -0.1021647 1.410488 0.1021652
v -0.1021647 1.299109 0.1021652
v -0.1346393 1.299109 0
v -0.08069181 1.469327 0
v -0.06122923 1.469327 0.06123352
v -0.1021647 1.410488 0.1021652
v -0.1346393 1.410488 0
v 0.1021657 1.410488 0.1021652
v 0.06123018 1.469327 0.06123352
v 0.08069277 1.469327 0
v 0.1346402 1.410488 0
v 0.1021657 1.299109 0.1021652
v 0.1021657 1.410488 0.1021652
v 0.1346402 1.410488 0
v 0.1346402 1.299109 0
v 0.06123018 1.235675 0.06123352
v 0.1021657 1.299109 0.1021652
v 0.1346402 1.299109 0
v 0.08069277 1.235675 0
v -0.1021647 1.410488 -0.1021652
v -0.1021647 1.299109 -0.1021652
v 4.768372E-07 1.299109 -0.1346359
v 4.768372E-07 1.410488 -0.1346359
v -0.06122923 1.469327 -0.06123352
v -0.1021647 1.410488 -0.1021652
v 4.768372E-07 1.410488 -0.1346359
v 4.768372E-07 1.469327 -0.08069611
v -0.1021647 1.410488 0.1021652
v -0.06122923 1.469327 0.06123352
v 4.768372E-07 1.469327 0.08069611
v 4.768372E-07 1.410488 0.1346359
v -0.1021647 1.299109 0.1021652
v -0.1021647 1.410488 0.1021652
v 4.768372E-07 1.410488 0.1346359
v 4.768372E-07 1.299109 0.1346359
v -0.06122923 1.235675 0.06123352
v -0.1021647 1.299109 0.1021652
v 4.768372E-07 1.299109 0.1346359
v 4.768372E-07 1.235675 0.08069611
v -0.1021647 1.299109 -0.1021652
v -0.06122923 1.235675 -0.06123352
v 4.768372E-07 1.235675 -0.08069611
v 4.768372E-07 1.299109 -0.1346359
v 4.768372E-07 1.235675 -0.08069611
v 2.384186E-06 1.223932 -0.04291534
v 0.03910494 1.223932 -0.03910828
v 0.06123018 1.235675 -0.06123352
v 0.06123018 1.235675 -0.06123352
v 0.03910494 1.223932 -0.03910828
v 0.04290438 1.223932 0
v 0.08069277 1.235675 0
v 0.08069277 1.235675 0
v 0.04290438 1.223932 0
v 0.03910494 1.223932 0.03910828
v 0.06123018 1.235675 0.06123352
v 0.06123018 1.235675 0.06123352
v 0.03910494 1.223932 0.03910828
v 4.768372E-07 1.223932 0.04290771
v 4.768372E-07 1.235675 0.08069611
v 4.768372E-07 1.235675 0.08069611
v 4.768372E-07 1.223932 0.04290771
v -0.03910398 1.223932 0.03910828
v -0.06122923 1.235675 0.06123352
v -0.06122923 1.235675 0.06123352
v -0.03910398 1.223932 0.03910828
v -0.04290152 1.223932 0
v -0.08069181 1.235675 0
v -0.06122923 1.235675 -0.06123352
v -0.03910398 1.223932 -0.03910828
v 2.384186E-06 1.223932 -0.04291534
v 4.768372E-07 1.235675 -0.08069611
v -0.08069181 1.235675 0
v -0.04290152 1.223932 0
v -0.03910398 1.223932 -0.03910828
v -0.06122923 1.235675 -0.06123352
v 2.384186E-06 1.223932 -0.04291534
v 2.384186E-06 1.163231 -0.04291534
v 0.03910494 1.163231 -0.03910828
v 0.03910494 1.223932 -0.03910828
v 0.03910494 1.223932 -0.03910828
v 0.03910494 1.163231 -0.03910828
v 0.04290438 1.163231 0
v 0.04290438 1.223932 0
v 0.04290438 1.223932 0
v 0.04290438 1.163231 0
v 0.03910494 1.163231 0.03910828
v 0.03910494 1.223932 0.03910828
v 0.03910494 1.223932 0.03910828
v 0.03910494 1.163231 0.03910828
v 4.768372E-07 1.163231 0.04290771
v 4.768372E-07 1.223932 0.04290771
v 4.768372E-07 1.223932 0.04290771
v 4.768372E-07 1.163231 0.04290771
v -0.03910398 1.163231 0.03910828
v -0.03910398 1.223932 0.03910828
v -0.03910398 1.223932 0.03910828
v -0.03910398 1.163231 0.03910828
v -0.04290152 1.163231 0
v -0.04290152 1.223932 0
v -0.03910398 1.223932 -0.03910828
v -0.03910398 1.163231 -0.03910828
v 2.384186E-06 1.163231 -0.04291534
v 2.384186E-06 1.223932 -0.04291534
v -0.04290152 1.223932 0
v -0.04290152 1.163231 0
v -0.03910398 1.163231 -0.03910828
v -0.03910398 1.223932 -0.03910828
v -0.150125 0.8549924 0.1501236
v -0.150125 1.110904 0.1501236
v 0.150126 1.110904 0.1501236
v 0.150126 0.8549924 0.1501236
v -0.09494162 1.163231 0.09494019
v -0.09494162 1.163231 -0.09494019
v 0.09494257 1.163231 -0.09494019
v 0.09494257 1.163231 0.09494019
v -0.150125 1.110904 -0.1501236
v -0.150125 0.8549924 -0.1501236
v 0.150126 0.8549924 -0.1501236
v 0.150126 1.110904 -0.1501236
v -0.1512542 0 -0.1512527
v -0.1512542 0 0.1512527
v 0.1512551 0 0.1512527
v 0.1512551 0 -0.1512527
v 0.150126 0.8549924 0.1501236
v 0.150126 1.110904 0.1501236
v 0.150126 1.110904 -0.1501236
v 0.150126 0.8549924 -0.1501236
v -0.150125 0.8549924 -0.1501236
v -0.150125 1.110904 -0.1501236
v -0.150125 1.110904 0.1501236
v -0.150125 0.8549924 0.1501236
v -0.1234431 0.8309567 -0.1234436
v -0.150125 0.8549924 -0.1501236
v -0.150125 0.8549924 0.1501236
v -0.1234431 0.8309569 0.1234436
v -0.1234431 0.8309569 0.1234436
v -0.150125 0.8549924 0.1501236
v 0.150126 0.8549924 0.1501236
v 0.1234441 0.8309569 0.1234436
v 0.1234441 0.8309569 0.1234436
v 0.150126 0.8549924 0.1501236
v 0.150126 0.8549924 -0.1501236
v 0.1234441 0.8309567 -0.1234436
v -0.150125 0.8549924 -0.1501236
v -0.1234431 0.8309567 -0.1234436
v 0.1234441 0.8309567 -0.1234436
v 0.150126 0.8549924 -0.1501236
v -0.1512542 0.3303387 -0.1512527
v -0.1234431 0.3587434 -0.1234436
v -0.1234431 0.3587434 0.1234436
v -0.1512542 0.3303387 0.1512527
v -0.1512542 0.3303387 0.1512527
v -0.1234431 0.3587434 0.1234436
v 0.1234441 0.3587434 0.1234436
v 0.1512551 0.3303387 0.1512527
v 0.1512551 0.3303387 0.1512527
v 0.1234441 0.3587434 0.1234436
v 0.1234441 0.3587434 -0.1234436
v 0.1512551 0.3303387 -0.1512527
v -0.1234431 0.3587434 -0.1234436
v -0.1512542 0.3303387 -0.1512527
v 0.1512551 0.3303387 -0.1512527
v 0.1234441 0.3587434 -0.1234436
v -0.150125 1.110904 0.1501236
v -0.09494162 1.163231 0.09494019
v 0.09494257 1.163231 0.09494019
v 0.150126 1.110904 0.1501236
v -0.150125 1.110904 -0.1501236
v -0.09494162 1.163231 -0.09494019
v -0.09494162 1.163231 0.09494019
v -0.150125 1.110904 0.1501236
v -0.09494162 1.163231 -0.09494019
v -0.150125 1.110904 -0.1501236
v 0.150126 1.110904 -0.1501236
v 0.09494257 1.163231 -0.09494019
v 0.150126 1.110904 0.1501236
v 0.09494257 1.163231 0.09494019
v 0.09494257 1.163231 -0.09494019
v 0.150126 1.110904 -0.1501236
v -0.1512542 0 0.1512527
v -0.1512542 0.3303387 0.1512527
v 0.1512551 0.3303387 0.1512527
v 0.1512551 0 0.1512527
v 0.1512551 0 0.1512527
v 0.1512551 0.3303387 0.1512527
v 0.1512551 0.3303387 -0.1512527
v 0.1512551 0 -0.1512527
v -0.1512542 0.3303387 -0.1512527
v -0.1512542 0 -0.1512527
v 0.1512551 0 -0.1512527
v 0.1512551 0.3303387 -0.1512527
v -0.1512542 0 -0.1512527
v -0.1512542 0.3303387 -0.1512527
v -0.1512542 0.3303387 0.1512527
v -0.1512542 0 0.1512527
v 0.1234441 0.3587434 0.1234436
v 0.1234441 0.8309569 0.1234436
v 0.1234441 0.8309567 -0.1234436
v 0.1234441 0.3587434 -0.1234436
v -0.1234431 0.3587434 0.1234436
v -0.1234431 0.8309569 0.1234436
v 0.1234441 0.8309569 0.1234436
v 0.1234441 0.3587434 0.1234436
v -0.1234431 0.3587434 -0.1234436
v -0.1234431 0.8309567 -0.1234436
v -0.1234431 0.8309569 0.1234436
v -0.1234431 0.3587434 0.1234436
v -0.1234431 0.8309567 -0.1234436
v -0.1234431 0.3587434 -0.1234436
v 0.1234441 0.3587434 -0.1234436
v 0.1234441 0.8309567 -0.1234436
vt 0.6479347 0.1332117
vt 0.6479347 0.1332117
vt 0.6479347 0.1332117
vt 0.6479347 0.1332117
vt 0.6479347 0.1332117
vt 0.6479347 0.1332117
vt 0.6479347 0.1332117
vt 0.6479347 0.1332117
vt 0.6479347 0.1332117
vt 0.6479347 0.1332117
vt 0.6479347 0.1332117
vt 0.6479347 0.1332117
vt 0.6479347 0.1332117
vt 0.6479347 0.1332117
vt 0.6479347 0.1332117
vt 0.6479347 0.1332117
vt 0.6479347 0.1332117
vt 0.6479347 0.1332117
vt 0.6479347 0.1332117
vt 0.6479347 0.1332117
vt 0.6479347 0.1332117
vt 0.6479347 0.1332117
vt 0.6479347 0.1332117
vt 0.6479347 0.1332117
vt 0.6479347 0.1332117
vt 0.6479347 0.1332117
vt 0.6479347 0.1332117
vt 0.6479347 0.1332117
vt 0.6479347 0.1332117
vt 0.6479347 0.1332117
vt 0.6479347 0.1332117
vt 0.6479347 0.1332117
vt 0.6479347 0.1332117
vt 0.6479347 0.1332117
vt 0.6479347 0.1332117
vt 0.6479347 0.1332117
vt 0.6479347 0.1332117
vt 0.6479347 0.1332117
vt 0.6479347 0.1332117
vt 0.6479347 0.1332117
vt 0.6479347 0.1332117
vt 0.6479347 0.1332117
vt 0.6479347 0.1332117
vt 0.6479347 0.1332117
vt 0.6479347 0.1332117
vt 0.6479347 0.1332117
vt 0.6479347 0.1332117
vt 0.6479347 0.1332117
vt 0.6479347 0.1332117
vt 0.6479347 0.1332117
vt 0.6479347 0.1332117
vt 0.6479347 0.1332117
vt 0.6479347 0.1332117
vt 0.6479347 0.1332117
vt 0.6479347 0.1332117
vt 0.6479347 0.1332117
vt 0.6479347 0.1332117
vt 0.6479347 0.1332117
vt 0.6479347 0.1332117
vt 0.6479347 0.1332117
vt 0.6479347 0.1332117
vt 0.6479347 0.1332117
vt 0.6479347 0.1332117
vt 0.6479347 0.1332117
vt 0.6479347 0.1332117
vt 0.6479347 0.1332117
vt 0.6479347 0.1332117
vt 0.6479347 0.1332117
vt 0.6479347 0.1332117
vt 0.6479347 0.1332117
vt 0.6479347 0.1332117
vt 0.6479347 0.1332117
vt 0.6479347 0.1332117
vt 0.6479347 0.1332117
vt 0.6479347 0.1332117
vt 0.6479347 0.1332117
vt 0.6479347 0.1332117
vt 0.6479347 0.1332117
vt 0.6479347 0.1332117
vt 0.6479347 0.1332117
vt 0.6479347 0.1332117
vt 0.6479347 0.1332117
vt 0.6479347 0.1332117
vt 0.6479347 0.1332117
vt 0.6479347 0.1332117
vt 0.6479347 0.1332117
vt 0.6479347 0.1332117
vt 0.6479347 0.1332117
vt 0.6479347 0.1332117
vt 0.6479347 0.1332117
vt 0.6479347 0.1332117
vt 0.6479347 0.1332117
vt 0.6479347 0.1332117
vt 0.6479347 0.1332117
vt 0.6479347 0.1332117
vt 0.6479347 0.1332117
vt 0.6479347 0.1332117
vt 0.6479347 0.1332117
vt 0.6479347 0.1332117
vt 0.6479347 0.1332117
vt 0.6479347 0.1332117
vt 0.6479347 0.1332117
vt 0.6479347 0.1332117
vt 0.6479347 0.1332117
vt 0.6479347 0.1332117
vt 0.6479347 0.1332117
vt 0.6479347 0.1332117
vt 0.6479347 0.1332117
vt 0.6479347 0.1332117
vt 0.6479347 0.1332117
vt 0.6479347 0.1332117
vt 0.6479347 0.1332117
vt 0.6479347 0.1332117
vt 0.6479347 0.1332117
vt 0.6479347 0.1332117
vt 0.6479347 0.1332117
vt 0.6479347 0.1332117
vt 0.6479347 0.1332117
vt 0.6479347 0.1332117
vt 0.6479347 0.1332117
vt 0.6479347 0.1332117
vt 0.6479347 0.1332117
vt 0.6479347 0.1332117
vt 0.6479347 0.1332117
vt 0.6479347 0.1332117
vt 0.6479347 0.1332117
vt 0.6479347 0.1332117
vt 0.6479347 0.1332117
vt 0.6479347 0.1332117
vt 0.6479347 0.1332117
vt 0.6479347 0.1332117
vt 0.6479347 0.1332117
vt 0.6479347 0.1332117
vt 0.6479347 0.1332117
vt 0.6479347 0.1332117
vt 0.6479347 0.1332117
vt 0.6479347 0.1332117
vt 0.6479347 0.1332117
vt 0.6479347 0.1332117
vt 0.6479347 0.1332117
vt 0.6479347 0.1332117
vt 0.6479347 0.1332117
vt 0.6479347 0.1332117
vt 0.6479347 0.1332117
vt 0.6479347 0.1332117
vt 0.6479347 0.1332117
vt 0.6479347 0.1332117
vt 0.6479347 0.1332117
vt 0.6479347 0.1332117
vt 0.6479347 0.1332117
vt 0.6479347 0.1332117
vt 0.6479347 0.1332117
vt 0.6479347 0.1332117
vt 0.6479347 0.1332117
vt 0.6479347 0.1332117
vt 0.6479347 0.1332117
vt 0.6479347 0.1332117
vt 0.6479347 0.1332117
vt 0.6479347 0.1332117
vt 0.6479347 0.1332117
vt 0.6479347 0.1332117
vt 0.6479347 0.1332117
vt 0.6479347 0.1332117
vt 0.6479347 0.1332117
vt 0.6479347 0.1332117
vt 0.6479347 0.1332117
vt 0.6479347 0.1332117
vt 0.6479347 0.1332117
vt 0.6479347 0.1332117
vt 0.6480337 0.1332141
vt 0.6480337 0.1332141
vt 0.6480337 0.1332141
vt 0.6480337 0.1332141
vt 0.6480337 0.1332141
vt 0.6480337 0.1332141
vt 0.6480337 0.1332141
vt 0.6480337 0.1332141
vt 0.6480337 0.1332141
vt 0.6480337 0.1332141
vt 0.6480337 0.1332141
vt 0.6480337 0.1332141
vt 0.6480337 0.1332141
vt 0.6480337 0.1332141
vt 0.6480337 0.1332141
vt 0.6480337 0.1332141
vt 0.6480337 0.1332141
vt 0.6480337 0.1332141
vt 0.6480337 0.1332141
vt 0.6480337 0.1332141
vt 0.6480337 0.1332141
vt 0.6480337 0.1332141
vt 0.6480337 0.1332141
vt 0.6480337 0.1332141
vt 0.6480337 0.1332141
vt 0.6480337 0.1332141
vt 0.6480337 0.1332141
vt 0.6480337 0.1332141
vt 0.6480337 0.1332141
vt 0.6480337 0.1332141
vt 0.6480337 0.1332141
vt 0.6480337 0.1332141
vt 0.6480337 0.1332141
vt 0.6480337 0.1332141
vt 0.6480337 0.1332141
vt 0.6480337 0.1332141
vt 0.6480337 0.1332141
vt 0.6480337 0.1332141
vt 0.6480337 0.1332141
vt 0.6480337 0.1332141
vt 0.6480337 0.1332141
vt 0.6480337 0.1332141
vt 0.6480337 0.1332141
vt 0.6480337 0.1332141
vt 0.6480337 0.1332141
vt 0.6480337 0.1332141
vt 0.6480337 0.1332141
vt 0.6480337 0.1332141
vt 0.6480337 0.1332141
vt 0.6480337 0.1332141
vt 0.6480337 0.1332141
vt 0.6480337 0.1332141
vt 0.6480337 0.1332141
vt 0.6480337 0.1332141
vt 0.6480337 0.1332141
vt 0.6480337 0.1332141
vt 0.6480337 0.1332141
vt 0.6480337 0.1332141
vt 0.6480337 0.1332141
vt 0.6480337 0.1332141
vt 0.6480337 0.1332141
vt 0.6480337 0.1332141
vt 0.6480337 0.1332141
vt 0.6480337 0.1332141
vt 0.6480337 0.1332141
vt 0.6480337 0.1332141
vt 0.6480337 0.1332141
vt 0.6480337 0.1332141
vt 0.6480337 0.1332141
vt 0.6480337 0.1332141
vt 0.6480337 0.1332141
vt 0.6480337 0.1332141
vt 0.6480337 0.1332141
vt 0.6480337 0.1332141
vt 0.6480337 0.1332141
vt 0.6480337 0.1332141
vt 0.6480337 0.1332141
vt 0.6480337 0.1332141
vt 0.6480337 0.1332141
vt 0.6480337 0.1332141
vt 0.6480337 0.1332141
vt 0.6480337 0.1332141
vt 0.6480337 0.1332141
vt 0.6480337 0.1332141
vt 0.6480337 0.1332141
vt 0.6480337 0.1332141
vt 0.6480337 0.1332141
vt 0.6480337 0.1332141
vt 0.6480337 0.1332141
vt 0.6480337 0.1332141
vt 0.6480337 0.1332141
vt 0.6480337 0.1332141
vt 0.6480337 0.1332141
vt 0.6480337 0.1332141
vt 0.6480337 0.1332141
vt 0.6480337 0.1332141
vt 0.6480337 0.1332141
vt 0.6480337 0.1332141
vt 0.6480337 0.1332141
vt 0.6480337 0.1332141
vt 0.6480337 0.1332141
vt 0.6480337 0.1332141
vt 0.6480337 0.1332141
vt 0.6480337 0.1332141
vn 0.3028952 0 0.9530239
vn 0.3028952 0 0.9530239
vn 0.3028952 0 0.9530239
vn 0.3028952 0 0.9530239
vn 0 1 0
vn 0 1 0
vn 0 1 0
vn 0 1 0
vn 0 1 0
vn 0 1 0
vn 0 1 0
vn 0 1 0
vn 0 1 0
vn 0.3028952 0 -0.9530239
vn 0.3028952 0 -0.9530239
vn 0.3028952 0 -0.9530239
vn 0.3028952 0 -0.9530239
vn 0.9530136 0 -0.3029275
vn 0.9530136 0 -0.3029275
vn 0.9530136 0 -0.3029275
vn 0.9530136 0 -0.3029275
vn -0.9530136 0 -0.3029275
vn -0.9530136 0 -0.3029275
vn -0.9530136 0 -0.3029275
vn -0.9530136 0 -0.3029275
vn -0.7403807 -0.6296463 -0.2353337
vn -0.7403807 -0.6296463 -0.2353337
vn -0.7403807 -0.6296463 -0.2353337
vn -0.7403807 -0.6296463 -0.2353337
vn 0.2353319 -0.6296097 0.7404124
vn 0.2353319 -0.6296097 0.7404124
vn 0.2353319 -0.6296097 0.7404124
vn 0.2353319 -0.6296097 0.7404124
vn 0.7403807 -0.6296463 -0.2353337
vn 0.7403807 -0.6296463 -0.2353337
vn 0.7403807 -0.6296463 -0.2353337
vn 0.7403807 -0.6296463 -0.2353337
vn 0.2353319 -0.6296097 -0.7404124
vn 0.2353319 -0.6296097 -0.7404124
vn 0.2353319 -0.6296097 -0.7404124
vn 0.2353319 -0.6296097 -0.7404124
vn 0.2281085 0.6579468 0.7176855
vn 0.2281085 0.6579468 0.7176855
vn 0.2281085 0.6579468 0.7176855
vn 0.2281085 0.6579468 0.7176855
vn -0.7176523 0.6579827 -0.2281094
vn -0.7176523 0.6579827 -0.2281094
vn -0.7176523 0.6579827 -0.2281094
vn -0.7176523 0.6579827 -0.2281094
vn 0.2281085 0.6579468 -0.7176855
vn 0.2281085 0.6579468 -0.7176855
vn 0.2281085 0.6579468 -0.7176855
vn 0.2281085 0.6579468 -0.7176855
vn 0.7176523 0.6579827 -0.2281094
vn 0.7176523 0.6579827 -0.2281094
vn 0.7176523 0.6579827 -0.2281094
vn 0.7176523 0.6579827 -0.2281094
vn -0.7403807 -0.6296463 0.2353337
vn -0.7403807 -0.6296463 0.2353337
vn -0.7403807 -0.6296463 0.2353337
vn -0.7403807 -0.6296463 0.2353337
vn -0.9530136 0 0.3029275
vn -0.9530136 0 0.3029275
vn -0.9530136 0 0.3029275
vn -0.9530136 0 0.3029275
vn -0.7176523 0.6579827 0.2281094
vn -0.7176523 0.6579827 0.2281094
vn -0.7176523 0.6579827 0.2281094
vn -0.7176523 0.6579827 0.2281094
vn 0.7176523 0.6579827 0.2281094
vn 0.7176523 0.6579827 0.2281094
vn 0.7176523 0.6579827 0.2281094
vn 0.7176523 0.6579827 0.2281094
vn 0.9530136 0 0.3029275
vn 0.9530136 0 0.3029275
vn 0.9530136 0 0.3029275
vn 0.9530136 0 0.3029275
vn 0.7403807 -0.6296463 0.2353337
vn 0.7403807 -0.6296463 0.2353337
vn 0.7403807 -0.6296463 0.2353337
vn 0.7403807 -0.6296463 0.2353337
vn -0.3028952 0 -0.9530239
vn -0.3028952 0 -0.9530239
vn -0.3028952 0 -0.9530239
vn -0.3028952 0 -0.9530239
vn -0.2281085 0.6579468 -0.7176855
vn -0.2281085 0.6579468 -0.7176855
vn -0.2281085 0.6579468 -0.7176855
vn -0.2281085 0.6579468 -0.7176855
vn -0.2281085 0.6579468 0.7176855
vn -0.2281085 0.6579468 0.7176855
vn -0.2281085 0.6579468 0.7176855
vn -0.2281085 0.6579468 0.7176855
vn -0.3028952 0 0.9530239
vn -0.3028952 0 0.9530239
vn -0.3028952 0 0.9530239
vn -0.3028952 0 0.9530239
vn -0.2353319 -0.6296097 0.7404124
vn -0.2353319 -0.6296097 0.7404124
vn -0.2353319 -0.6296097 0.7404124
vn -0.2353319 -0.6296097 0.7404124
vn -0.2353319 -0.6296097 -0.7404124
vn -0.2353319 -0.6296097 -0.7404124
vn -0.2353319 -0.6296097 -0.7404124
vn -0.2353319 -0.6296097 -0.7404124
vn 0.07853075 -0.9376466 -0.3386027
vn 0.07853075 -0.9376466 -0.3386027
vn 0.07853075 -0.9376466 -0.3386027
vn 0.07853075 -0.9376466 -0.3386027
vn 0.3385766 -0.9376593 -0.07849148
vn 0.3385766 -0.9376593 -0.07849148
vn 0.3385766 -0.9376593 -0.07849148
vn 0.3385766 -0.9376593 -0.07849148
vn 0.3385766 -0.9376593 0.07849148
vn 0.3385766 -0.9376593 0.07849148
vn 0.3385766 -0.9376593 0.07849148
vn 0.3385766 -0.9376593 0.07849148
vn 0.07849699 -0.9376596 0.3385746
vn 0.07849699 -0.9376596 0.3385746
vn 0.07849699 -0.9376596 0.3385746
vn 0.07849699 -0.9376596 0.3385746
vn -0.07849699 -0.9376596 0.3385746
vn -0.07849699 -0.9376596 0.3385746
vn -0.07849699 -0.9376596 0.3385746
vn -0.07849699 -0.9376596 0.3385746
vn -0.3385699 -0.9376624 0.07848351
vn -0.3385699 -0.9376624 0.07848351
vn -0.3385699 -0.9376624 0.07848351
vn -0.3385699 -0.9376624 0.07848351
vn -0.07852705 -0.937648 -0.3385996
vn -0.07852705 -0.937648 -0.3385996
vn -0.07852705 -0.937648 -0.3385996
vn -0.07852705 -0.937648 -0.3385996
vn -0.3385699 -0.9376624 -0.07848351
vn -0.3385699 -0.9376624 -0.07848351
vn -0.3385699 -0.9376624 -0.07848351
vn -0.3385699 -0.9376624 -0.07848351
vn 0.09690291 0 -0.9952939
vn 0.09690291 0 -0.9952939
vn 0.09690291 0 -0.9952939
vn 0.09690291 0 -0.9952939
vn 0.9953139 0 -0.09669651
vn 0.9953139 0 -0.09669651
vn 0.9953139 0 -0.09669651
vn 0.9953139 0 -0.09669651
vn 0.9953139 0 0.09669651
vn 0.9953139 0 0.09669651
vn 0.9953139 0 0.09669651
vn 0.9953139 0 0.09669651
vn 0.09670586 0 0.995313
vn 0.09670586 0 0.995313
vn 0.09670586 0 0.995313
vn 0.09670586 0 0.995313
vn -0.09670586 0 0.995313
vn -0.09670586 0 0.995313
vn -0.09670586 0 0.995313
vn -0.09670586 0 0.995313
vn -0.9953186 0 0.09664842
vn -0.9953186 0 0.09664842
vn -0.9953186 0 0.09664842
vn -0.9953186 0 0.09664842
vn -0.09689354 0 -0.9952947
vn -0.09689354 0 -0.9952947
vn -0.09689354 0 -0.9952947
vn -0.09689354 0 -0.9952947
vn -0.9953186 0 -0.09664842
vn -0.9953186 0 -0.09664842
vn -0.9953186 0 -0.09664842
vn -0.9953186 0 -0.09664842
vn 0 0 1
vn 0 0 1
vn 0 0 1
vn 0 0 1
vn 0 1 0
vn 0 1 0
vn 0 1 0
vn 0 1 0
vn 0 0 -1
vn 0 0 -1
vn 0 0 -1
vn 0 0 -1
vn 0 -1 0
vn 0 -1 0
vn 0 -1 0
vn 0 -1 0
vn 1 0 0
vn 1 0 0
vn 1 0 0
vn 1 0 0
vn -1 0 0
vn -1 0 0
vn -1 0 0
vn -1 0 0
vn -0.669301 -0.7429913 0
vn -0.669301 -0.7429913 0
vn -0.669301 -0.7429913 0
vn -0.669301 -0.7429913 0
vn 0 -0.7429692 0.6693256
vn 0 -0.7429692 0.6693256
vn 0 -0.7429692 0.6693256
vn 0 -0.7429692 0.6693256
vn 0.669301 -0.7429913 0
vn 0.669301 -0.7429913 0
vn 0.669301 -0.7429913 0
vn 0.669301 -0.7429913 0
vn 0 -0.7429659 -0.6693292
vn 0 -0.7429659 -0.6693292
vn 0 -0.7429659 -0.6693292
vn 0 -0.7429659 -0.6693292
vn -0.7145343 0.6996004 0
vn -0.7145343 0.6996004 0
vn -0.7145343 0.6996004 0
vn -0.7145343 0.6996004 0
vn 0 0.699576 0.7145583
vn 0 0.699576 0.7145583
vn 0 0.699576 0.7145583
vn 0 0.699576 0.7145583
vn 0.7145343 0.6996004 0
vn 0.7145343 0.6996004 0
vn 0.7145343 0.6996004 0
vn 0.7145343 0.6996004 0
vn 0 0.699576 -0.7145583
vn 0 0.699576 -0.7145583
vn 0 0.699576 -0.7145583
vn 0 0.699576 -0.7145583
vn 0 0.7256366 0.6880782
vn 0 0.7256366 0.6880782
vn 0 0.7256366 0.6880782
vn 0 0.7256366 0.6880782
vn -0.6880781 0.7256366 0
vn -0.6880781 0.7256366 0
vn -0.6880781 0.7256366 0
vn -0.6880781 0.7256366 0
vn 0 0.7256366 -0.6880782
vn 0 0.7256366 -0.6880782
vn 0 0.7256366 -0.6880782
vn 0 0.7256366 -0.6880782
vn 0.6880781 0.7256366 0
vn 0.6880781 0.7256366 0
vn 0.6880781 0.7256366 0
vn 0.6880781 0.7256366 0
vn 0 0 1
vn 0 0 1
vn 0 0 1
vn 0 0 1
vn 1 0 0
vn 1 0 0
vn 1 0 0
vn 1 0 0
vn 0 0 -1
vn 0 0 -1
vn 0 0 -1
vn 0 0 -1
vn -1 0 0
vn -1 0 0
vn -1 0 0
vn -1 0 0
vn 1 0 0
vn 1 0 0
vn 1 0 0
vn 1 0 0
vn 0 0 1
vn 0 0 1
vn 0 0 1
vn 0 0 1
vn -1 0 0
vn -1 0 0
vn -1 0 0
vn -1 0 0
vn 0 0 -1
vn 0 0 -1
vn 0 0 -1
vn 0 0 -1
g SM_Env_Fence_Post_01_0
f 3/3/3 2/2/2 1/1/1
f 4/4/4 3/3/3 1/1/1
f 7/7/7 6/6/6 5/5/5
f 8/8/8 7/7/7 5/5/5
f 9/9/9 7/7/7 8/8/8
f 10/10/10 9/9/9 8/8/8
f 8/8/8 5/5/5 11/11/11
f 5/5/5 12/12/12 11/11/11
f 8/8/8 11/11/11 13/13/13
f 10/10/10 8/8/8 13/13/13
f 16/16/16 15/15/15 14/14/14
f 17/17/17 16/16/16 14/14/14
f 20/20/20 19/19/19 18/18/18
f 21/21/21 20/20/20 18/18/18
f 24/24/24 23/23/23 22/22/22
f 25/25/25 24/24/24 22/22/22
f 28/28/28 27/27/27 26/26/26
f 29/29/29 28/28/28 26/26/26
f 32/32/32 31/31/31 30/30/30
f 33/33/33 32/32/32 30/30/30
f 36/36/36 35/35/35 34/34/34
f 37/37/37 36/36/36 34/34/34
f 40/40/40 39/39/39 38/38/38
f 41/41/41 40/40/40 38/38/38
f 44/44/44 43/43/43 42/42/42
f 45/45/45 44/44/44 42/42/42
f 48/48/48 47/47/47 46/46/46
f 49/49/49 48/48/48 46/46/46
f 52/52/52 51/51/51 50/50/50
f 53/53/53 52/52/52 50/50/50
f 56/56/56 55/55/55 54/54/54
f 57/57/57 56/56/56 54/54/54
f 60/60/60 59/59/59 58/58/58
f 61/61/61 60/60/60 58/58/58
f 64/64/64 63/63/63 62/62/62
f 65/65/65 64/64/64 62/62/62
f 68/68/68 67/67/67 66/66/66
f 69/69/69 68/68/68 66/66/66
f 72/72/72 71/71/71 70/70/70
f 73/73/73 72/72/72 70/70/70
f 76/76/76 75/75/75 74/74/74
f 77/77/77 76/76/76 74/74/74
f 80/80/80 79/79/79 78/78/78
f 81/81/81 80/80/80 78/78/78
f 84/84/84 83/83/83 82/82/82
f 85/85/85 84/84/84 82/82/82
f 88/88/88 87/87/87 86/86/86
f 89/89/89 88/88/88 86/86/86
f 92/92/92 91/91/91 90/90/90
f 93/93/93 92/92/92 90/90/90
f 96/96/96 95/95/95 94/94/94
f 97/97/97 96/96/96 94/94/94
f 100/100/100 99/99/99 98/98/98
f 101/101/101 100/100/100 98/98/98
f 104/104/104 103/103/103 102/102/102
f 105/105/105 104/104/104 102/102/102
f 108/108/108 107/107/107 106/106/106
f 109/109/109 108/108/108 106/106/106
f 112/112/112 111/111/111 110/110/110
f 113/113/113 112/112/112 110/110/110
f 116/116/116 115/115/115 114/114/114
f 117/117/117 116/116/116 114/114/114
f 120/120/120 119/119/119 118/118/118
f 121/121/121 120/120/120 118/118/118
f 124/124/124 123/123/123 122/122/122
f 125/125/125 124/124/124 122/122/122
f 128/128/128 127/127/127 126/126/126
f 129/129/129 128/128/128 126/126/126
f 132/132/132 131/131/131 130/130/130
f 133/133/133 132/132/132 130/130/130
f 136/136/136 135/135/135 134/134/134
f 137/137/137 136/136/136 134/134/134
f 140/140/140 139/139/139 138/138/138
f 141/141/141 140/140/140 138/138/138
f 144/144/144 143/143/143 142/142/142
f 145/145/145 144/144/144 142/142/142
f 148/148/148 147/147/147 146/146/146
f 149/149/149 148/148/148 146/146/146
f 152/152/152 151/151/151 150/150/150
f 153/153/153 152/152/152 150/150/150
f 156/156/156 155/155/155 154/154/154
f 157/157/157 156/156/156 154/154/154
f 160/160/160 159/159/159 158/158/158
f 161/161/161 160/160/160 158/158/158
f 164/164/164 163/163/163 162/162/162
f 165/165/165 164/164/164 162/162/162
f 168/168/168 167/167/167 166/166/166
f 169/169/169 168/168/168 166/166/166
f 172/172/172 171/171/171 170/170/170
f 173/173/173 172/172/172 170/170/170
f 176/176/176 175/175/175 174/174/174
f 177/177/177 176/176/176 174/174/174
f 180/180/180 179/179/179 178/178/178
f 181/181/181 180/180/180 178/178/178
f 184/184/184 183/183/183 182/182/182
f 185/185/185 184/184/184 182/182/182
f 188/188/188 187/187/187 186/186/186
f 189/189/189 188/188/188 186/186/186
f 192/192/192 191/191/191 190/190/190
f 193/193/193 192/192/192 190/190/190
f 196/196/196 195/195/195 194/194/194
f 197/197/197 196/196/196 194/194/194
f 200/200/200 199/199/199 198/198/198
f 201/201/201 200/200/200 198/198/198
f 204/204/204 203/203/203 202/202/202
f 205/205/205 204/204/204 202/202/202
f 208/208/208 207/207/207 206/206/206
f 209/209/209 208/208/208 206/206/206
f 212/212/212 211/211/211 210/210/210
f 213/213/213 212/212/212 210/210/210
f 216/216/216 215/215/215 214/214/214
f 217/217/217 216/216/216 214/214/214
f 220/220/220 219/219/219 218/218/218
f 221/221/221 220/220/220 218/218/218
f 224/224/224 223/223/223 222/222/222
f 225/225/225 224/224/224 222/222/222
f 228/228/228 227/227/227 226/226/226
f 229/229/229 228/228/228 226/226/226
f 232/232/232 231/231/231 230/230/230
f 233/233/233 232/232/232 230/230/230
f 236/236/236 235/235/235 234/234/234
f 237/237/237 236/236/236 234/234/234
f 240/240/240 239/239/239 238/238/238
f 241/241/241 240/240/240 238/238/238
f 244/244/244 243/243/243 242/242/242
f 245/245/245 244/244/244 242/242/242
f 248/248/248 247/247/247 246/246/246
f 249/249/249 248/248/248 246/246/246
f 252/252/252 251/251/251 250/250/250
f 253/253/253 252/252/252 250/250/250
f 256/256/256 255/255/255 254/254/254
f 257/257/257 256/256/256 254/254/254
f 260/260/260 259/259/259 258/258/258
f 261/261/261 260/260/260 258/258/258
f 264/264/264 263/263/263 262/262/262
f 265/265/265 264/264/264 262/262/262
f 268/268/268 267/267/267 266/266/266
f 269/269/269 268/268/268 266/266/266
f 272/272/272 271/271/271 270/270/270
f 273/273/273 272/272/272 270/270/270
