g SM_Env_Plant_02
v 0.4148417 0.3324925 -0.2867775
v 0.3735657 0.4716812 0.0450058
v -0.07966805 0.2736958 -0.1667366
v 0.8650217 0.2897546 -0.1579971
v 0.3735657 0.4716812 0.0450058
v 0.4148417 0.3324925 -0.2867775
v 0.8650217 0.2897546 -0.1579971
v 1.063972 0.3779101 0.0654068
v 0.3735657 0.4716812 0.0450058
v 1.063972 0.3779101 0.0654068
v 1.060576 0.2908082 -0.07029724
v 1.229101 0.185933 0.05462265
v 1.063972 0.3779101 0.0654068
v 0.8650217 0.2897546 -0.1579971
v 1.060576 0.2908082 -0.07029724
v 0.1852713 0.2206715 -0.2652321
v -0.07966805 0.2736958 -0.1667366
v -0.1361246 0.1313671 -0.1789627
v 0.3735657 0.4716812 0.0450058
v -0.08549404 0.2318887 0.1906738
v -0.08258152 0.2527922 0.01196671
v -0.07966805 0.2736958 -0.1667366
v 0.4148417 0.3324925 -0.2867775
v -0.07966805 0.2736958 -0.1667366
v 0.1852713 0.2206715 -0.2652321
v -0.04785442 0.1230119 0.2025719
v -0.08549404 0.2318887 0.1906738
v 0.2126513 0.1507496 0.2892265
v 0.4046621 0.2629646 0.3376846
v 0.3735657 0.4716812 0.0450058
v 0.4046621 0.2629646 0.3376846
v -0.08549404 0.2318887 0.1906738
v 0.3735657 0.4716812 0.0450058
v 1.063972 0.3779101 0.0654068
v 0.8584232 0.3473785 0.2467995
v 0.8584232 0.3473785 0.2467995
v 0.4046621 0.2629646 0.3376846
v 0.3735657 0.4716812 0.0450058
v 1.063972 0.3779101 0.0654068
v 1.229101 0.185933 0.05462265
v 1.082889 0.2493417 0.1340179
v 0.8584232 0.3473785 0.2467995
v -0.1123648 0.110689 0.102478
v -0.1242447 0.1210278 -0.03824234
v -0.08258152 0.2527922 0.01196671
v -0.08549404 0.2318887 0.1906738
v -0.1361246 0.1313671 -0.1789627
v -0.07966805 0.2736958 -0.1667366
v -0.04785442 0.1230119 0.2025719
v -0.1123648 0.110689 0.102478
v -0.08549404 0.2318887 0.1906738
v -0.2559586 0.3063122 0.6626511
v -0.4280815 0.4938496 0.4069214
v 0.02674103 0.2618767 0.2372818
v -0.6664886 0.3870177 0.8781471
v -0.4280815 0.4938496 0.4069214
v -0.2559586 0.3063122 0.6626511
v -0.6664886 0.3870177 0.8781471
v -0.9473152 0.4057589 0.8614044
v -0.4280815 0.4938496 0.4069214
v -0.9473152 0.4057589 0.8614044
v -0.8660431 0.2978466 0.9480171
v -1.076191 0.2143756 0.9658623
v -0.9473152 0.4057589 0.8614044
v -0.6664886 0.3870177 0.8781471
v -0.8660431 0.2978466 0.9480171
v -0.1119194 0.194872 0.4801559
v 0.02674103 0.2618767 0.2372818
v 0.06093025 0.1191751 0.1918755
v -0.4280815 0.4938496 0.4069214
v -0.2085037 0.278628 -0.0345726
v -0.09088135 0.2702523 0.1013527
v 0.02674103 0.2618767 0.2372818
v -0.2559586 0.3063122 0.6626511
v 0.02674103 0.2618767 0.2372818
v -0.1119194 0.194872 0.4801559
v -0.2565594 0.1733156 -0.03105927
v -0.2085037 0.278628 -0.0345726
v -0.50457 0.2160405 0.08210754
v -0.6669731 0.33558 0.1876755
v -0.4280815 0.4938496 0.4069214
v -0.6669731 0.33558 0.1876755
v -0.2085037 0.278628 -0.0345726
v -0.4280815 0.4938496 0.4069214
v -0.9473152 0.4057589 0.8614044
v -0.9329224 0.4059901 0.5702515
v -0.9329224 0.4059901 0.5702515
v -0.6669731 0.33558 0.1876755
v -0.4280815 0.4938496 0.4069214
v -0.9473152 0.4057589 0.8614044
v -1.076191 0.2143756 0.9658623
v -1.018391 0.2898345 0.8110123
v -0.9329224 0.4059901 0.5702515
v -0.1440678 0.1445855 -0.001850128
v -0.04156876 0.1318804 0.09501266
v -0.09088135 0.2702523 0.1013527
v -0.2085037 0.278628 -0.0345726
v 0.06093025 0.1191751 0.1918755
v 0.02674103 0.2618767 0.2372818
v -0.2565594 0.1733156 -0.03105927
v -0.1440678 0.1445855 -0.001850128
v -0.2085037 0.278628 -0.0345726
v -0.6625938 0.22253 -0.1859207
v -0.4138069 0.3963631 -0.3810577
v -0.2391872 0.238462 0.1027107
v -0.8777599 0.2344775 -0.6087914
v -0.4138069 0.3963631 -0.3810577
v -0.6625938 0.22253 -0.1859207
v -0.8777599 0.2344775 -0.6087914
v -0.8651714 0.213119 -0.9095764
v -0.4138069 0.3963631 -0.3810577
v -0.8651714 0.213119 -0.9095764
v -0.9473476 0.1136029 -0.813652
v -0.9625149 0 -1.021782
v -0.8651714 0.213119 -0.9095764
v -0.8777599 0.2344775 -0.6087914
v -0.9473476 0.1136029 -0.813652
v -0.4768982 0.1411678 -0.02664948
v -0.2391872 0.238462 0.1027107
v -0.1875782 0.1042705 0.1567726
v -0.4138069 0.3963631 -0.3810577
v 0.03450584 0.235359 -0.1309662
v -0.1023388 0.2369105 -0.01412964
v -0.2391872 0.238462 0.1027107
v -0.6625938 0.22253 -0.1859207
v -0.2391872 0.238462 0.1027107
v -0.4768982 0.1411678 -0.02664948
v 0.03654289 0.1243332 -0.1638527
v 0.03450584 0.235359 -0.1309662
v -0.07538414 0.1265869 -0.4160614
v -0.1843929 0.2171084 -0.5941925
v -0.4138069 0.3963631 -0.3810577
v -0.1843929 0.2171084 -0.5941925
v 0.03450584 0.235359 -0.1309662
v -0.4138069 0.3963631 -0.3810577
v -0.8651714 0.213119 -0.9095764
v -0.5677738 0.230963 -0.8734512
v -0.5677738 0.230963 -0.8734512
v -0.1843929 0.2171084 -0.5941925
v -0.4138069 0.3963631 -0.3810577
v -0.8651714 0.213119 -0.9095764
v -0.9625149 0 -1.021782
v -0.809557 0.09074397 -0.9665794
v -0.5677738 0.230963 -0.8734512
v 0.007303238 0.1101804 -0.04862213
v -0.09013557 0.1072254 0.05407333
v -0.1023388 0.2369105 -0.01412964
v 0.03450584 0.235359 -0.1309662
v -0.1875782 0.1042705 0.1567726
v -0.2391872 0.238462 0.1027107
v 0.03654289 0.1243332 -0.1638527
v 0.007303238 0.1101804 -0.04862213
v 0.03450584 0.235359 -0.1309662
v 0.4243736 0.4521686 0.3108559
v 0.1437683 0.5795699 0.4466095
v 0.07286072 0.3652464 -0.001899719
v 0.5603943 0.5197774 0.7195435
v 0.1437683 0.5795699 0.4466095
v 0.4243736 0.4521686 0.3108559
v 0.5603943 0.5197774 0.7195435
v 0.4900665 0.5139155 0.9829674
v 0.1437683 0.5795699 0.4466095
v 0.4900665 0.5139155 0.9829674
v 0.5951195 0.4309445 0.9140167
v 0.5883827 0.3487016 1.110542
v 0.4900665 0.5139155 0.9829674
v 0.5603943 0.5197774 0.7195435
v 0.5951195 0.4309445 0.9140167
v 0.289711 0.3309807 0.152504
v 0.07286072 0.3652464 -0.001899719
v 0.05615234 0.229129 -0.0436554
v 0.1437683 0.5795699 0.4466095
v -0.2042274 0.3298165 0.1846085
v -0.06568146 0.3475314 0.09135437
v 0.07286072 0.3652464 -0.001899719
v 0.4243736 0.4521686 0.3108559
v 0.07286072 0.3652464 -0.001899719
v 0.289711 0.3309807 0.152504
v -0.1907501 0.2308549 0.2259293
v -0.2042274 0.3298165 0.1846085
v -0.1208115 0.2735239 0.4700775
v -0.0597496 0.3902661 0.6367188
v 0.1437683 0.5795699 0.4466095
v -0.0597496 0.3902661 0.6367188
v -0.2042274 0.3298165 0.1846085
v 0.1437683 0.5795699 0.4466095
v 0.4900665 0.5139155 0.9829674
v 0.2465668 0.4796501 0.9307823
v 0.2465668 0.4796501 0.9307823
v -0.0597496 0.3902661 0.6367188
v 0.1437683 0.5795699 0.4466095
v 0.4900665 0.5139155 0.9829674
v 0.5883827 0.3487016 1.110542
v 0.449955 0.3968969 1.039692
v 0.2465668 0.4796501 0.9307823
v -0.1474037 0.2143608 0.1242752
v -0.04562759 0.2217444 0.04031372
v -0.06568146 0.3475314 0.09135437
v -0.2042274 0.3298165 0.1846085
v 0.05615234 0.229129 -0.0436554
v 0.07286072 0.3652464 -0.001899719
v -0.1907501 0.2308549 0.2259293
v -0.1474037 0.2143608 0.1242752
v -0.2042274 0.3298165 0.1846085
v -0.1507187 0.4268764 -0.6277771
v 0.05373383 0.5943903 -0.4615555
v -0.2464294 0.3518299 -0.2011337
v 0.1079025 0.5025339 -0.9192543
v 0.05373383 0.5943903 -0.4615555
v -0.1507187 0.4268764 -0.6277771
v 0.1079025 0.5025339 -0.9192543
v 0.3289185 0.5342919 -0.980545
v 0.05373383 0.5943903 -0.4615555
v 0.3289185 0.5342919 -0.980545
v 0.2444687 0.4370685 -1.032909
v 0.4087105 0.3903474 -1.110546
v 0.3289185 0.5342919 -0.980545
v 0.1079025 0.5025339 -0.9192543
v 0.2444687 0.4370685 -1.032909
v -0.2040443 0.3132838 -0.4433136
v -0.2464294 0.3518299 -0.2011337
v -0.2507706 0.2247299 -0.1624756
v 0.05373383 0.5943903 -0.4615555
v 0.02517319 0.3770174 -0.05084229
v -0.1106262 0.3644236 -0.1259842
v -0.2464294 0.3518299 -0.2011337
v -0.1507187 0.4268764 -0.6277771
v -0.2464294 0.3518299 -0.2011337
v -0.2040443 0.3132838 -0.4433136
v 0.06985855 0.2904342 -0.07430267
v 0.02517319 0.3770174 -0.05084229
v 0.2327728 0.3512453 -0.2379379
v 0.3238258 0.470144 -0.3651886
v 0.05373383 0.5943903 -0.4615555
v 0.3238258 0.470144 -0.3651886
v 0.02517319 0.3770174 -0.05084229
v 0.05373383 0.5943903 -0.4615555
v 0.3289185 0.5342919 -0.980545
v 0.4155159 0.5310612 -0.7490349
v 0.4155159 0.5310612 -0.7490349
v 0.3238258 0.470144 -0.3651886
v 0.05373383 0.5943903 -0.4615555
v 0.3289185 0.5342919 -0.980545
v 0.4087105 0.3903474 -1.110546
v 0.4078255 0.440361 -0.96661
v 0.4155159 0.5310612 -0.7490349
v -0.02795029 0.257356 -0.06581116
v -0.1393585 0.2410434 -0.1141434
v -0.1106262 0.3644236 -0.1259842
v 0.02517319 0.3770174 -0.05084229
v -0.2507706 0.2247299 -0.1624756
v -0.2464294 0.3518299 -0.2011337
v 0.06985855 0.2904342 -0.07430267
v -0.02795029 0.257356 -0.06581116
v 0.02517319 0.3770174 -0.05084229
v -0.5575562 0.4035192 0.2318802
v -0.5418911 0.5397762 -0.0240097
v -0.1657343 0.3703785 0.1071968
v -0.9261818 0.4021451 0.1576042
v -0.5418911 0.5397762 -0.0240097
v -0.5575562 0.4035192 0.2318802
v -0.9261818 0.4021451 0.1576042
v -1.09806 0.3974293 -0.0008621216
v -0.5418911 0.5397762 -0.0240097
v -1.09806 0.3974293 -0.0008621216
v -1.087838 0.3161181 0.09970856
v -1.229101 0.2502134 0.006160736
v -1.09806 0.3974293 -0.0008621216
v -0.9261818 0.4021451 0.1576042
v -1.087838 0.3161181 0.09970856
v -0.3731995 0.3161844 0.194191
v -0.1657343 0.3703785 0.1071968
v -0.1185064 0.2562574 0.1025429
v -0.5418911 0.5397762 -0.0240097
v -0.1781855 0.3661843 -0.1820869
v -0.1719599 0.3682813 -0.03744507
v -0.1657343 0.3703785 0.1071968
v -0.5575562 0.4035192 0.2318802
v -0.1657343 0.3703785 0.1071968
v -0.3731995 0.3161844 0.194191
v -0.2080097 0.2794882 -0.1987648
v -0.1781855 0.3661843 -0.1820869
v -0.4217157 0.3051133 -0.2532616
v -0.5793104 0.3961911 -0.2735558
v -0.5418911 0.5397762 -0.0240097
v -0.5793104 0.3961911 -0.2735558
v -0.1781855 0.3661843 -0.1820869
v -0.5418911 0.5397762 -0.0240097
v -1.09806 0.3974293 -0.0008621216
v -0.9402838 0.3973947 -0.1700363
v -0.9402838 0.3973947 -0.1700363
v -0.5793104 0.3961911 -0.2735558
v -0.5418911 0.5397762 -0.0240097
v -1.09806 0.3974293 -0.0008621216
v -1.229101 0.2502134 0.006160736
v -1.115649 0.3021817 -0.06352615
v -0.9402838 0.3973947 -0.1700363
v -0.1511869 0.2623558 -0.1228828
v -0.1348467 0.2593066 -0.0101738
v -0.1719599 0.3682813 -0.03744507
v -0.1781855 0.3661843 -0.1820869
v -0.1185064 0.2562574 0.1025429
v -0.1657343 0.3703785 0.1071968
v -0.2080097 0.2794882 -0.1987648
v -0.1511869 0.2623558 -0.1228828
v -0.1781855 0.3661843 -0.1820869
v 0.2374315 0.5249712 -0.273819
v 0.2358494 0.6860881 -0.06705856
v -0.01134586 0.4072287 -0.09573364
v 0.5215483 0.5552381 -0.3050079
v 0.2358494 0.6860881 -0.06705856
v 0.2374315 0.5249712 -0.273819
v 0.6554613 0.6553043 -0.2213821
v 0.6485996 0.5862529 -0.2977715
v 0.6554613 0.6553043 -0.2213821
v 0.6485996 0.5862529 -0.2977715
v 0.7788572 0.5832804 -0.259758
v 0.1343918 0.4146014 -0.2076416
v -0.01134586 0.4072287 -0.09573364
v -0.01527786 0.3097205 -0.08460236
v 0.2358494 0.6860881 -0.06705856
v 0.05897236 0.4213487 0.1229362
v 0.0238142 0.4142891 0.0135994
v -0.01134586 0.4072287 -0.09573364
v 0.2374315 0.5249712 -0.273819
v -0.01134586 0.4072287 -0.09573364
v 0.1343918 0.4146014 -0.2076416
v 0.1062155 0.3645011 0.1274719
v 0.05897236 0.4213487 0.1229362
v 0.2654781 0.4403809 0.1242599
v 0.3602896 0.5496418 0.1082344
v 0.2358494 0.6860881 -0.06705856
v 0.3602896 0.5496418 0.1082344
v 0.05897236 0.4213487 0.1229362
v 0.2358494 0.6860881 -0.06705856
v 0.6554613 0.6553043 -0.2213821
v 0.6011896 0.5712306 -0.05735016
v 0.3602896 0.5496418 0.1082344
v 0.6554613 0.6553043 -0.2213821
v 0.7788572 0.5832804 -0.259758
v 0.7033844 0.5927628 -0.1798286
v 0.6554613 0.6553043 -0.2213821
v 0.7033844 0.5927628 -0.1798286
v 0.6011896 0.5712306 -0.05735016
v 0.0537281 0.3335676 0.08111572
v 0.01922512 0.3216439 -0.001739502
v 0.0238142 0.4142891 0.0135994
v 0.05897236 0.4213487 0.1229362
v -0.01527786 0.3097205 -0.08460236
v -0.01134586 0.4072287 -0.09573364
v 0.1062155 0.3645011 0.1274719
v 0.0537281 0.3335676 0.08111572
v 0.05897236 0.4213487 0.1229362
v 0.1451025 0.3006948 -0.6476555
v 0.3544874 0.4914006 -0.4240837
v -0.1179857 0.3482789 -0.2102089
v 0.5544958 0.2955259 -0.8877144
v 0.3544874 0.4914006 -0.4240837
v 0.1451025 0.3006948 -0.6476555
v 0.5544958 0.2955259 -0.8877144
v 0.8555136 0.2740697 -0.8913956
v 0.3544874 0.4914006 -0.4240837
v 0.8555136 0.2740697 -0.8913956
v 0.7549696 0.1692027 -0.960331
v 0.9619207 0.05406225 -0.9794846
v 0.8555136 0.2740697 -0.8913956
v 0.5544958 0.2955259 -0.8877144
v 0.7549696 0.1692027 -0.960331
v -0.002842903 0.2335633 -0.447464
v -0.1179857 0.3482789 -0.2102089
v -0.1687975 0.2183708 -0.1459007
v 0.3544874 0.4914006 -0.4240837
v 0.1314764 0.3641809 0.04870605
v 0.006747246 0.3562306 -0.08074951
v -0.1179857 0.3482789 -0.2102089
v 0.1451025 0.3006948 -0.6476555
v -0.1179857 0.3482789 -0.2102089
v -0.002842903 0.2335633 -0.447464
v 0.1645079 0.2534784 0.05684662
v 0.1314764 0.3641809 0.04870605
v 0.4096518 0.246725 -0.06965256
v 0.5809546 0.3284801 -0.1952629
v 0.3544874 0.4914006 -0.4240837
v 0.5809546 0.3284801 -0.1952629
v 0.1314764 0.3641809 0.04870605
v 0.3544874 0.4914006 -0.4240837
v 0.8555136 0.2740697 -0.8913956
v 0.8370314 0.3135365 -0.5944633
v 0.8370314 0.3135365 -0.5944633
v 0.5809546 0.3284801 -0.1952629
v 0.3544874 0.4914006 -0.4240837
v 0.8555136 0.2740697 -0.8913956
v 0.9619207 0.05406225 -0.9794846
v 0.9157972 0.1558427 -0.8305168
v 0.8370314 0.3135365 -0.5944633
v 0.04775906 0.2376536 0.03556442
v -0.06051731 0.2280124 -0.05516815
v 0.006747246 0.3562306 -0.08074951
v 0.1314764 0.3641809 0.04870605
v -0.1687975 0.2183708 -0.1459007
v -0.1179857 0.3482789 -0.2102089
v 0.1645079 0.2534784 0.05684662
v 0.04775906 0.2376536 0.03556442
v 0.1314764 0.3641809 0.04870605
v 0.03051662 0.4854168 0.4127731
v -0.1892099 0.612204 0.3467598
v -0.002465248 0.4072899 0.0961113
v -0.06141376 0.4507989 0.682888
v -0.1892099 0.612204 0.3467598
v 0.03051662 0.4854168 0.4127731
v -0.211606 0.5034202 0.7809258
v -0.1253138 0.4492043 0.7972145
v -0.211606 0.5034202 0.7809258
v -0.1253138 0.4492043 0.7972145
v -0.2101831 0.409942 0.8955879
v 0.03753185 0.3948921 0.2751732
v -0.002465248 0.4072899 0.0961113
v 0.01125622 0.3129805 0.07234573
v -0.1892099 0.612204 0.3467598
v -0.2280817 0.3739456 0.06534958
v -0.1152697 0.3906182 0.08073044
v -0.002465248 0.4072899 0.0961113
v 0.03051662 0.4854168 0.4127731
v -0.002465248 0.4072899 0.0961113
v 0.03753185 0.3948921 0.2751732
v -0.2380152 0.3073767 0.09623337
v -0.2280817 0.3739456 0.06534958
v -0.3155642 0.3426317 0.2507515
v -0.3636751 0.4271597 0.3590317
v -0.1892099 0.612204 0.3467598
v -0.3636751 0.4271597 0.3590317
v -0.2280817 0.3739456 0.06534958
v -0.1892099 0.612204 0.3467598
v -0.211606 0.5034202 0.7809258
v -0.3169374 0.4130353 0.6480522
v -0.3636751 0.4271597 0.3590317
v -0.211606 0.5034202 0.7809258
v -0.2101831 0.409942 0.8955879
v -0.2534494 0.4261225 0.7953835
v -0.211606 0.5034202 0.7809258
v -0.2534494 0.4261225 0.7953835
v -0.3169374 0.4130353 0.6480522
v -0.1689425 0.296585 0.06503677
v -0.07884693 0.3047823 0.06868744
v -0.1152697 0.3906182 0.08073044
v -0.2280817 0.3739456 0.06534958
v 0.01125622 0.3129805 0.07234573
v -0.002465248 0.4072899 0.0961113
v -0.2380152 0.3073767 0.09623337
v -0.1689425 0.296585 0.06503677
v -0.2280817 0.3739456 0.06534958
vt 0.9140625 0.4660645
vt 0.9140625 0.4660645
vt 0.9140625 0.4660645
vt 0.9140625 0.4660645
vt 0.9140625 0.4660645
vt 0.9140625 0.4660645
vt 0.9140625 0.4660645
vt 0.9140625 0.4660645
vt 0.9140625 0.4660645
vt 0.9140625 0.4660645
vt 0.9140625 0.4660645
vt 0.9140625 0.4660645
vt 0.9140625 0.4660645
vt 0.9140625 0.4660645
vt 0.9140625 0.4660645
vt 0.9140625 0.4660645
vt 0.9140625 0.4660645
vt 0.9140625 0.4660645
vt 0.9140625 0.4660645
vt 0.9140625 0.4660645
vt 0.9140625 0.4660645
vt 0.9140625 0.4660645
vt 0.9140625 0.4660645
vt 0.9140625 0.4660645
vt 0.9140625 0.4660645
vt 0.9140625 0.4660645
vt 0.9140625 0.4660645
vt 0.9140625 0.4660645
vt 0.9140625 0.4660645
vt 0.9140625 0.4660645
vt 0.9140625 0.4660645
vt 0.9140625 0.4660645
vt 0.9140625 0.4660645
vt 0.9140625 0.4660645
vt 0.9140625 0.4660645
vt 0.9140625 0.4660645
vt 0.9140625 0.4660645
vt 0.9140625 0.4660645
vt 0.9140625 0.4660645
vt 0.9140625 0.4660645
vt 0.9140625 0.4660645
vt 0.9140625 0.4660645
vt 0.9140625 0.4660645
vt 0.9140625 0.4660645
vt 0.9140625 0.4660645
vt 0.9140625 0.4660645
vt 0.9140625 0.4660645
vt 0.9140625 0.4660645
vt 0.9140625 0.4660645
vt 0.9140625 0.4660645
vt 0.9140625 0.4660645
vt 0.9140625 0.4660645
vt 0.9140625 0.4660645
vt 0.9140625 0.4660645
vt 0.9140625 0.4660645
vt 0.9140625 0.4660645
vt 0.9140625 0.4660645
vt 0.9140625 0.4660645
vt 0.9140625 0.4660645
vt 0.9140625 0.4660645
vt 0.9140625 0.4660645
vt 0.9140625 0.4660645
vt 0.9140625 0.4660645
vt 0.9140625 0.4660645
vt 0.9140625 0.4660645
vt 0.9140625 0.4660645
vt 0.9140625 0.4660645
vt 0.9140625 0.4660645
vt 0.9140625 0.4660645
vt 0.9140625 0.4660645
vt 0.9140625 0.4660645
vt 0.9140625 0.4660645
vt 0.9140625 0.4660645
vt 0.9140625 0.4660645
vt 0.9140625 0.4660645
vt 0.9140625 0.4660645
vt 0.9140625 0.4660645
vt 0.9140625 0.4660645
vt 0.9140625 0.4660645
vt 0.9140625 0.4660645
vt 0.9140625 0.4660645
vt 0.9140625 0.4660645
vt 0.9140625 0.4660645
vt 0.9140625 0.4660645
vt 0.9140625 0.4660645
vt 0.9140625 0.4660645
vt 0.9140625 0.4660645
vt 0.9140625 0.4660645
vt 0.9140625 0.4660645
vt 0.9140625 0.4660645
vt 0.9140625 0.4660645
vt 0.9140625 0.4660645
vt 0.9140625 0.4660645
vt 0.9140625 0.4660645
vt 0.9140625 0.4660645
vt 0.9140625 0.4660645
vt 0.9140625 0.4660645
vt 0.9140625 0.4660645
vt 0.9140625 0.4660645
vt 0.9140625 0.4660645
vt 0.9140625 0.4660645
vt 0.9140625 0.4660645
vt 0.8706055 0.5126953
vt 0.8706055 0.5126953
vt 0.8706055 0.5126953
vt 0.8706055 0.5126953
vt 0.8706055 0.5126953
vt 0.8706055 0.5126953
vt 0.8706055 0.5126953
vt 0.8706055 0.5126953
vt 0.8706055 0.5126953
vt 0.8706055 0.5126953
vt 0.8706055 0.5126953
vt 0.8706055 0.5126953
vt 0.8706055 0.5126953
vt 0.8706055 0.5126953
vt 0.8706055 0.5126953
vt 0.8706055 0.5126953
vt 0.8706055 0.5126953
vt 0.8706055 0.5126953
vt 0.8706055 0.5126953
vt 0.8706055 0.5126953
vt 0.8706055 0.5126953
vt 0.8706055 0.5126953
vt 0.8706055 0.5126953
vt 0.8706055 0.5126953
vt 0.8706055 0.5126953
vt 0.8706055 0.5126953
vt 0.8706055 0.5126953
vt 0.8706055 0.5126953
vt 0.8706055 0.5126953
vt 0.8706055 0.5126953
vt 0.8706055 0.5126953
vt 0.8706055 0.5126953
vt 0.8706055 0.5126953
vt 0.8706055 0.5126953
vt 0.8706055 0.5126953
vt 0.8706055 0.5126953
vt 0.8706055 0.5126953
vt 0.8706055 0.5126953
vt 0.8706055 0.5126953
vt 0.8706055 0.5126953
vt 0.8706055 0.5126953
vt 0.8706055 0.5126953
vt 0.8706055 0.5126953
vt 0.8706055 0.5126953
vt 0.8706055 0.5126953
vt 0.8706055 0.5126953
vt 0.8706055 0.5126953
vt 0.8706055 0.5126953
vt 0.8706055 0.5126953
vt 0.8706055 0.5126953
vt 0.8706055 0.5126953
vt 0.9140625 0.4660645
vt 0.9140625 0.4660645
vt 0.9140625 0.4660645
vt 0.9140625 0.4660645
vt 0.9140625 0.4660645
vt 0.9140625 0.4660645
vt 0.9140625 0.4660645
vt 0.9140625 0.4660645
vt 0.9140625 0.4660645
vt 0.9140625 0.4660645
vt 0.9140625 0.4660645
vt 0.9140625 0.4660645
vt 0.9140625 0.4660645
vt 0.9140625 0.4660645
vt 0.9140625 0.4660645
vt 0.9140625 0.4660645
vt 0.9140625 0.4660645
vt 0.9140625 0.4660645
vt 0.9140625 0.4660645
vt 0.9140625 0.4660645
vt 0.9140625 0.4660645
vt 0.9140625 0.4660645
vt 0.9140625 0.4660645
vt 0.9140625 0.4660645
vt 0.9140625 0.4660645
vt 0.9140625 0.4660645
vt 0.9140625 0.4660645
vt 0.9140625 0.4660645
vt 0.9140625 0.4660645
vt 0.9140625 0.4660645
vt 0.9140625 0.4660645
vt 0.9140625 0.4660645
vt 0.9140625 0.4660645
vt 0.9140625 0.4660645
vt 0.9140625 0.4660645
vt 0.9140625 0.4660645
vt 0.9140625 0.4660645
vt 0.9140625 0.4660645
vt 0.9140625 0.4660645
vt 0.9140625 0.4660645
vt 0.9140625 0.4660645
vt 0.9140625 0.4660645
vt 0.9140625 0.4660645
vt 0.9140625 0.4660645
vt 0.9140625 0.4660645
vt 0.9140625 0.4660645
vt 0.9140625 0.4660645
vt 0.9140625 0.4660645
vt 0.9140625 0.4660645
vt 0.9140625 0.4660645
vt 0.9140625 0.4660645
vt 0.9140625 0.4660645
vt 0.9140625 0.4660645
vt 0.9140625 0.4660645
vt 0.9140625 0.4660645
vt 0.9140625 0.4660645
vt 0.9140625 0.4660645
vt 0.9140625 0.4660645
vt 0.9140625 0.4660645
vt 0.9140625 0.4660645
vt 0.9140625 0.4660645
vt 0.9140625 0.4660645
vt 0.9140625 0.4660645
vt 0.9140625 0.4660645
vt 0.9140625 0.4660645
vt 0.9140625 0.4660645
vt 0.9140625 0.4660645
vt 0.9140625 0.4660645
vt 0.9140625 0.4660645
vt 0.9140625 0.4660645
vt 0.9140625 0.4660645
vt 0.9140625 0.4660645
vt 0.9140625 0.4660645
vt 0.9140625 0.4660645
vt 0.9140625 0.4660645
vt 0.9140625 0.4660645
vt 0.9140625 0.4660645
vt 0.9140625 0.4660645
vt 0.9140625 0.4660645
vt 0.9140625 0.4660645
vt 0.9140625 0.4660645
vt 0.9140625 0.4660645
vt 0.9140625 0.4660645
vt 0.9140625 0.4660645
vt 0.9140625 0.4660645
vt 0.9140625 0.4660645
vt 0.9140625 0.4660645
vt 0.9140625 0.4660645
vt 0.9140625 0.4660645
vt 0.9140625 0.4660645
vt 0.9140625 0.4660645
vt 0.9140625 0.4660645
vt 0.9140625 0.4660645
vt 0.9140625 0.4660645
vt 0.9140625 0.4660645
vt 0.9140625 0.4660645
vt 0.9140625 0.4660645
vt 0.9140625 0.4660645
vt 0.9140625 0.4660645
vt 0.9140625 0.4660645
vt 0.9140625 0.4660645
vt 0.9140625 0.4660645
vt 0.9140625 0.4660645
vt 0.9140625 0.4660645
vt 0.9140625 0.4660645
vt 0.9140625 0.4660645
vt 0.9140625 0.4660645
vt 0.9140625 0.4660645
vt 0.9140625 0.4660645
vt 0.9140625 0.4660645
vt 0.9140625 0.4660645
vt 0.9140625 0.4660645
vt 0.9140625 0.4660645
vt 0.9140625 0.4660645
vt 0.9140625 0.4660645
vt 0.9140625 0.4660645
vt 0.9140625 0.4660645
vt 0.9140625 0.4660645
vt 0.9140625 0.4660645
vt 0.9140625 0.4660645
vt 0.9140625 0.4660645
vt 0.9140625 0.4660645
vt 0.9140625 0.4660645
vt 0.9140625 0.4660645
vt 0.9140625 0.4660645
vt 0.9140625 0.4660645
vt 0.9140625 0.4660645
vt 0.9140625 0.4660645
vt 0.9140625 0.4660645
vt 0.9140625 0.4660645
vt 0.9140625 0.4660645
vt 0.9140625 0.4660645
vt 0.9140625 0.4660645
vt 0.9140625 0.4660645
vt 0.9140625 0.4660645
vt 0.9140625 0.4660645
vt 0.9140625 0.4660645
vt 0.9140625 0.4660645
vt 0.9140625 0.4660645
vt 0.9140625 0.4660645
vt 0.9140625 0.4660645
vt 0.9140625 0.4660645
vt 0.9140625 0.4660645
vt 0.9140625 0.4660645
vt 0.9140625 0.4660645
vt 0.9140625 0.4660645
vt 0.9140625 0.4660645
vt 0.9140625 0.4660645
vt 0.9140625 0.4660645
vt 0.9140625 0.4660645
vt 0.9140625 0.4660645
vt 0.9140625 0.4660645
vt 0.9140625 0.4660645
vt 0.9140625 0.4660645
vt 0.9140625 0.4660645
vt 0.9140625 0.4660645
vt 0.9140625 0.4660645
vt 0.9140625 0.4660645
vt 0.9140625 0.4660645
vt 0.9140625 0.4660645
vt 0.9140625 0.4660645
vt 0.9140625 0.4660645
vt 0.9140625 0.4660645
vt 0.9140625 0.4660645
vt 0.9140625 0.4660645
vt 0.9140625 0.4660645
vt 0.9140625 0.4660645
vt 0.9140625 0.4660645
vt 0.9140625 0.4660645
vt 0.9140625 0.4660645
vt 0.9140625 0.4660645
vt 0.9140625 0.4660645
vt 0.9140625 0.4660645
vt 0.9140625 0.4660645
vt 0.9140625 0.4660645
vt 0.9140625 0.4660645
vt 0.9140625 0.4660645
vt 0.9140625 0.4660645
vt 0.9140625 0.4660645
vt 0.9140625 0.4660645
vt 0.9140625 0.4660645
vt 0.9140625 0.4660645
vt 0.9140625 0.4660645
vt 0.9140625 0.4660645
vt 0.9140625 0.4660645
vt 0.9140625 0.4660645
vt 0.9140625 0.4660645
vt 0.9140625 0.4660645
vt 0.9140625 0.4660645
vt 0.9140625 0.4660645
vt 0.9140625 0.4660645
vt 0.9140625 0.4660645
vt 0.9140625 0.4660645
vt 0.9140625 0.4660645
vt 0.9140625 0.4660645
vt 0.9140625 0.4660645
vt 0.9140625 0.4660645
vt 0.9140625 0.4660645
vt 0.9140625 0.4660645
vt 0.9140625 0.4660645
vt 0.8745117 0.5126953
vt 0.8745117 0.5126953
vt 0.8745117 0.5126953
vt 0.8745117 0.5126953
vt 0.8745117 0.5126953
vt 0.8745117 0.5126953
vt 0.8745117 0.5126953
vt 0.8745117 0.5126953
vt 0.8745117 0.5126953
vt 0.8745117 0.5126953
vt 0.8745117 0.5126953
vt 0.8745117 0.5126953
vt 0.8745117 0.5126953
vt 0.8745117 0.5126953
vt 0.8745117 0.5126953
vt 0.8745117 0.5126953
vt 0.8745117 0.5126953
vt 0.8745117 0.5126953
vt 0.8745117 0.5126953
vt 0.8745117 0.5126953
vt 0.8745117 0.5126953
vt 0.8745117 0.5126953
vt 0.8745117 0.5126953
vt 0.8745117 0.5126953
vt 0.8745117 0.5126953
vt 0.8745117 0.5126953
vt 0.8745117 0.5126953
vt 0.8745117 0.5126953
vt 0.8745117 0.5126953
vt 0.8745117 0.5126953
vt 0.8745117 0.5126953
vt 0.8745117 0.5126953
vt 0.8745117 0.5126953
vt 0.8745117 0.5126953
vt 0.8745117 0.5126953
vt 0.8745117 0.5126953
vt 0.8745117 0.5126953
vt 0.8745117 0.5126953
vt 0.8745117 0.5126953
vt 0.8745117 0.5126953
vt 0.8745117 0.5126953
vt 0.8745117 0.5126953
vt 0.8745117 0.5126953
vt 0.8745117 0.5126953
vt 0.8745117 0.5126953
vt 0.8745117 0.5126953
vt 0.8745117 0.5126953
vt 0.8745117 0.5126953
vt 0.8745117 0.5126953
vt 0.8745117 0.5126953
vt 0.8745117 0.5126953
vt 0.8745117 0.5126953
vt 0.8745117 0.5126953
vt 0.8745117 0.5126953
vt 0.8745117 0.5126953
vt 0.8745117 0.5126953
vt 0.8745117 0.5126953
vt 0.8745117 0.5126953
vt 0.8745117 0.5126953
vt 0.8745117 0.5126953
vt 0.8745117 0.5126953
vt 0.8745117 0.5126953
vt 0.8745117 0.5126953
vt 0.8745117 0.5126953
vt 0.8745117 0.5126953
vt 0.8745117 0.5126953
vt 0.8745117 0.5126953
vt 0.8745117 0.5126953
vt 0.8745117 0.5126953
vt 0.8745117 0.5126953
vt 0.8745117 0.5126953
vt 0.8745117 0.5126953
vt 0.8745117 0.5126953
vt 0.8745117 0.5126953
vt 0.8745117 0.5126953
vt 0.8745117 0.5126953
vt 0.8745117 0.5126953
vt 0.8745117 0.5126953
vt 0.8745117 0.5126953
vt 0.8745117 0.5126953
vt 0.8745117 0.5126953
vt 0.8745117 0.5126953
vt 0.8745117 0.5126953
vt 0.8745117 0.5126953
vt 0.8745117 0.5126953
vt 0.8745117 0.5126953
vt 0.8745117 0.5126953
vt 0.8745117 0.5126953
vt 0.8745117 0.5126953
vt 0.8745117 0.5126953
vt 0.8745117 0.5126953
vt 0.8745117 0.5126953
vt 0.8745117 0.5126953
vt 0.8745117 0.5126953
vt 0.8745117 0.5126953
vt 0.8745117 0.5126953
vt 0.8745117 0.5126953
vt 0.8745117 0.5126953
vn -0.2033691 0.8935547 -0.4001465
vn -0.2033691 0.8935547 -0.4001465
vn -0.2033691 0.8935547 -0.4001465
vn 0.1895752 0.9135742 -0.3596191
vn 0.1895752 0.9135742 -0.3596191
vn 0.1895752 0.9135742 -0.3596191
vn 0.1326904 0.8759766 -0.4638672
vn 0.1326904 0.8759766 -0.4638672
vn 0.1326904 0.8759766 -0.4638672
vn 0.6806641 0.6083984 -0.4077148
vn 0.6806641 0.6083984 -0.4077148
vn 0.6806641 0.6083984 -0.4077148
vn 0.2330322 0.815918 -0.5292969
vn 0.2330322 0.815918 -0.5292969
vn 0.2330322 0.815918 -0.5292969
vn -0.3056641 0.2011719 -0.9306641
vn -0.3056641 0.2011719 -0.9306641
vn -0.3056641 0.2011719 -0.9306641
vn -0.4362793 0.8945313 0.09753418
vn -0.4362793 0.8945313 0.09753418
vn -0.4362793 0.8945313 0.09753418
vn -0.4362793 0.8945313 0.09753418
vn -0.2602539 0.3620605 -0.8950195
vn -0.2602539 0.3620605 -0.8950195
vn -0.2602539 0.3620605 -0.8950195
vn -0.3151855 -0.005233765 0.9492188
vn -0.3034668 0.04089355 0.9521484
vn -0.3034668 0.04089355 0.9521484
vn -0.2912598 0.0869751 0.9526367
vn -0.223999 0.7822266 0.581543
vn -0.223999 0.7822266 0.581543
vn -0.223999 0.7822266 0.581543
vn 0.1199951 0.9477539 0.2954102
vn 0.1199951 0.9477539 0.2954102
vn 0.1199951 0.9477539 0.2954102
vn -0.03433228 0.8120117 0.5825195
vn -0.03433228 0.8120117 0.5825195
vn -0.03433228 0.8120117 0.5825195
vn 0.5595703 0.4526367 0.6938477
vn 0.5688477 0.4506836 0.6879883
vn 0.5595703 0.4526367 0.6938477
vn 0.550293 0.4545898 0.7001953
vn -0.9707031 0.2354736 0.05026245
vn -0.9584961 0.2802734 0.05432129
vn -0.9584961 0.2802734 0.05432129
vn -0.9707031 0.2354736 0.05026245
vn -0.9438477 0.324707 0.05825806
vn -0.9438477 0.324707 0.05825806
vn -0.8076172 -0.2193604 0.5473633
vn -0.8076172 -0.2193604 0.5473633
vn -0.8076172 -0.2193604 0.5473633
vn 0.5131836 0.8193359 0.2553711
vn 0.5131836 0.8193359 0.2553711
vn 0.5131836 0.8193359 0.2553711
vn 0.3654785 0.8505859 0.3776855
vn 0.3654785 0.8505859 0.3776855
vn 0.3654785 0.8505859 0.3776855
vn 0.05001831 0.9682617 0.244873
vn 0.05001831 0.9682617 0.244873
vn 0.05001831 0.9682617 0.244873
vn -0.1480713 0.5488281 0.8227539
vn -0.1480713 0.5488281 0.8227539
vn -0.1480713 0.5488281 0.8227539
vn -0.004985809 0.6235352 0.7817383
vn -0.004985809 0.6235352 0.7817383
vn -0.004985809 0.6235352 0.7817383
vn 0.8618164 0.04589844 0.5048828
vn 0.8618164 0.04589844 0.5048828
vn 0.8618164 0.04589844 0.5048828
vn 0.361084 0.8964844 -0.2573242
vn 0.361084 0.8964844 -0.2573242
vn 0.361084 0.8964844 -0.2573242
vn 0.361084 0.8964844 -0.2573242
vn 0.8251953 0.2032471 0.5273438
vn 0.8251953 0.2032471 0.5273438
vn 0.8251953 0.2032471 0.5273438
vn -0.3894043 0.1473389 -0.9091797
vn -0.3947754 0.1934814 -0.8979492
vn -0.3947754 0.1934814 -0.8979492
vn -0.3994141 0.2391357 -0.8852539
vn -0.1278076 0.8652344 -0.4851074
vn -0.1278076 0.8652344 -0.4851074
vn -0.1278076 0.8652344 -0.4851074
vn -0.1739502 0.9848633 -0.0078125
vn -0.1739502 0.9848633 -0.0078125
vn -0.1739502 0.9848633 -0.0078125
vn -0.2700195 0.8959961 -0.3525391
vn -0.2700195 0.8959961 -0.3525391
vn -0.2700195 0.8959961 -0.3525391
vn -0.8422852 0.5366211 -0.04650879
vn -0.8413086 0.5380859 -0.05169678
vn -0.8422852 0.5366211 -0.04650879
vn -0.84375 0.5351563 -0.04129028
vn 0.7167969 0.2357178 -0.65625
vn 0.7099609 0.2807617 -0.6459961
vn 0.7099609 0.2807617 -0.6459961
vn 0.7167969 0.2357178 -0.65625
vn 0.7016602 0.3251953 -0.6337891
vn 0.7016602 0.3251953 -0.6337891
vn 0.2175293 -0.1314697 -0.9672852
vn 0.2175293 -0.1314697 -0.9672852
vn 0.2175293 -0.1314697 -0.9672852
vn -0.3000488 0.8696289 0.3920898
vn -0.3000488 0.8696289 0.3920898
vn -0.3000488 0.8696289 0.3920898
vn -0.4226074 0.8740234 0.2397461
vn -0.4226074 0.8740234 0.2397461
vn -0.4226074 0.8740234 0.2397461
vn -0.2932129 0.9526367 -0.07989502
vn -0.2932129 0.9526367 -0.07989502
vn -0.2932129 0.9526367 -0.07989502
vn -0.8432617 0.4951172 -0.2088623
vn -0.8432617 0.4951172 -0.2088623
vn -0.8432617 0.4951172 -0.2088623
vn -0.8032227 0.5908203 -0.07556152
vn -0.8032227 0.5908203 -0.07556152
vn -0.8032227 0.5908203 -0.07556152
vn -0.5170898 0.1412354 0.8442383
vn -0.5170898 0.1412354 0.8442383
vn -0.5170898 0.1412354 0.8442383
vn 0.2104492 0.9492188 0.2338867
vn 0.2104492 0.9492188 0.2338867
vn 0.2104492 0.9492188 0.2338867
vn 0.2104492 0.9492188 0.2338867
vn -0.5463867 0.2905273 0.7856445
vn -0.5463867 0.2905273 0.7856445
vn -0.5463867 0.2905273 0.7856445
vn 0.90625 0.135376 -0.4008789
vn 0.8930664 0.1796875 -0.4128418
vn 0.8930664 0.1796875 -0.4128418
vn 0.8779297 0.2235107 -0.423584
vn 0.4458008 0.8613281 -0.2445068
vn 0.4458008 0.8613281 -0.2445068
vn 0.4458008 0.8613281 -0.2445068
vn -0.01895142 0.949707 -0.3129883
vn -0.01895142 0.949707 -0.3129883
vn -0.01895142 0.949707 -0.3129883
vn 0.3146973 0.8657227 -0.3891602
vn 0.3146973 0.8657227 -0.3891602
vn 0.3146973 0.8657227 -0.3891602
vn 0.07025146 0.4472656 -0.8916016
vn 0.05957031 0.4436035 -0.894043
vn 0.07025146 0.4472656 -0.8916016
vn 0.08093262 0.4509277 -0.8891602
vn 0.6357422 0.364502 0.6806641
vn 0.6230469 0.4077148 0.6674805
vn 0.6230469 0.4077148 0.6674805
vn 0.6357422 0.364502 0.6806641
vn 0.609375 0.4499512 0.652832
vn 0.609375 0.4499512 0.652832
vn 0.9692383 -0.0531311 0.239502
vn 0.9692383 -0.0531311 0.239502
vn 0.9692383 -0.0531311 0.239502
vn 0.1812744 0.8759766 -0.4472656
vn 0.1812744 0.8759766 -0.4472656
vn 0.1812744 0.8759766 -0.4472656
vn 0.296875 0.9213867 -0.2512207
vn 0.296875 0.9213867 -0.2512207
vn 0.296875 0.9213867 -0.2512207
vn 0.1089478 0.9926758 0.05117798
vn 0.1089478 0.9926758 0.05117798
vn 0.1089478 0.9926758 0.05117798
vn 0.7041016 0.6464844 0.2946777
vn 0.7041016 0.6464844 0.2946777
vn 0.7041016 0.6464844 0.2946777
vn 0.6845703 0.7016602 0.1983643
vn 0.6845703 0.7016602 0.1983643
vn 0.6845703 0.7016602 0.1983643
vn 0.5893555 0.1699219 -0.7900391
vn 0.5893555 0.1699219 -0.7900391
vn 0.5893555 0.1699219 -0.7900391
vn -0.3515625 0.8652344 -0.3579102
vn -0.3515625 0.8652344 -0.3579102
vn -0.3515625 0.8652344 -0.3579102
vn -0.3515625 0.8652344 -0.3579102
vn 0.5820313 0.3266602 -0.7446289
vn 0.5820313 0.3266602 -0.7446289
vn 0.5820313 0.3266602 -0.7446289
vn -0.9604492 -0.01483917 0.277832
vn -0.9575195 0.03198242 0.2861328
vn -0.9575195 0.03198242 0.2861328
vn -0.9526367 0.07873535 0.2939453
vn -0.6274414 0.7724609 0.09729004
vn -0.6274414 0.7724609 0.09729004
vn -0.6274414 0.7724609 0.09729004
vn -0.1848145 0.9541016 0.236084
vn -0.1848145 0.9541016 0.236084
vn -0.1848145 0.9541016 0.236084
vn -0.5039063 0.8188477 0.2758789
vn -0.5039063 0.8188477 0.2758789
vn -0.5039063 0.8188477 0.2758789
vn -0.251709 0.4907227 0.8339844
vn -0.255127 0.4912109 0.8330078
vn -0.251709 0.4907227 0.8339844
vn -0.2480469 0.4899902 0.8354492
vn -0.5961914 0.1719971 -0.7841797
vn -0.59375 0.2176514 -0.7744141
vn -0.59375 0.2176514 -0.7744141
vn -0.5961914 0.1719971 -0.7841797
vn -0.590332 0.2629395 -0.7631836
vn -0.590332 0.2629395 -0.7631836
vn -0.9018555 -0.2653809 -0.3413086
vn -0.9018555 -0.2653809 -0.3413086
vn -0.9018555 -0.2653809 -0.3413086
vn -0.6313477 0.7753906 -0.005184174
vn -0.6313477 0.7753906 -0.005184174
vn -0.6313477 0.7753906 -0.005184174
vn -0.5 0.8354492 -0.2269287
vn -0.5 0.8354492 -0.2269287
vn -0.5 0.8354492 -0.2269287
vn -0.1971436 0.956543 -0.215332
vn -0.1971436 0.956543 -0.215332
vn -0.1971436 0.956543 -0.215332
vn -0.199707 0.5932617 -0.7797852
vn -0.199707 0.5932617 -0.7797852
vn -0.199707 0.5932617 -0.7797852
vn -0.2897949 0.6367188 -0.7148438
vn -0.2897949 0.6367188 -0.7148438
vn -0.2897949 0.6367188 -0.7148438
vn -0.9853516 -0.01792908 -0.1695557
vn -0.9853516 -0.01792908 -0.1695557
vn -0.9853516 -0.01792908 -0.1695557
vn -0.3146973 0.8476563 0.4267578
vn -0.3146973 0.8476563 0.4267578
vn -0.3146973 0.8476563 0.4267578
vn -0.3146973 0.8476563 0.4267578
vn -0.9707031 0.1429443 -0.192627
vn -0.9707031 0.1429443 -0.192627
vn -0.9707031 0.1429443 -0.192627
vn 0.671875 0.1503906 0.7250977
vn 0.6699219 0.1977539 0.7158203
vn 0.6699219 0.1977539 0.7158203
vn 0.6655273 0.2446289 0.7050781
vn 0.2260742 0.8544922 0.4680176
vn 0.2260742 0.8544922 0.4680176
vn 0.2260742 0.8544922 0.4680176
vn 0.1419678 0.9892578 -0.03927612
vn 0.1419678 0.9892578 -0.03927612
vn 0.1419678 0.9892578 -0.03927612
vn 0.3393555 0.9130859 0.2259521
vn 0.3393555 0.9130859 0.2259521
vn 0.3393555 0.9130859 0.2259521
vn 0.7602539 0.6030273 -0.2412109
vn 0.7641602 0.6108398 -0.2076416
vn 0.7602539 0.6030273 -0.2412109
vn 0.7558594 0.5942383 -0.2744141
vn -0.4555664 0.1420898 0.8789063
vn -0.4562988 0.1879883 0.8696289
vn -0.4562988 0.1879883 0.8696289
vn -0.4555664 0.1420898 0.8789063
vn -0.4562988 0.2333984 0.8588867
vn -0.4562988 0.2333984 0.8588867
vn 0.147583 -0.1870117 0.9711914
vn 0.147583 -0.1870117 0.9711914
vn 0.147583 -0.1870117 0.9711914
vn 0.2215576 0.8549805 0.46875
vn 0.2215576 0.8549805 0.46875
vn 0.2215576 0.8549805 0.46875
vn -0.09661865 0.8808594 0.4631348
vn -0.09661865 0.8808594 0.4631348
vn -0.09661865 0.8808594 0.4631348
vn -0.2329102 0.9462891 0.2243652
vn -0.2329102 0.9462891 0.2243652
vn -0.2329102 0.9462891 0.2243652
vn -0.6206055 0.5776367 0.5302734
vn -0.6206055 0.5776367 0.5302734
vn -0.6206055 0.5776367 0.5302734
vn -0.5361328 0.6289063 0.5629883
vn -0.5361328 0.6289063 0.5629883
vn -0.5361328 0.6289063 0.5629883
vn 0.3596191 0.1110229 0.9267578
vn 0.3596191 0.1110229 0.9267578
vn 0.3596191 0.1110229 0.9267578
vn 0.4194336 0.9072266 -0.03120422
vn 0.4194336 0.9072266 -0.03120422
vn 0.4194336 0.9072266 -0.03120422
vn 0.4194336 0.9072266 -0.03120422
vn 0.3127441 0.2666016 0.9116211
vn 0.3127441 0.2666016 0.9116211
vn 0.3127441 0.2666016 0.9116211
vn 0.2568359 0.09661865 -0.9614258
vn 0.2445068 0.1425781 -0.9589844
vn 0.2445068 0.1425781 -0.9589844
vn 0.2316895 0.1882324 -0.9545898
vn 0.1793213 0.8408203 -0.5107422
vn 0.1793213 0.8408203 -0.5107422
vn 0.1793213 0.8408203 -0.5107422
vn -0.2502441 0.9394531 -0.2335205
vn -0.2502441 0.9394531 -0.2335205
vn -0.2502441 0.9394531 -0.2335205
vn -0.1345215 0.8676758 -0.4790039
vn -0.1345215 0.8676758 -0.4790039
vn -0.1345215 0.8676758 -0.4790039
vn -0.6196289 0.5078125 -0.5981445
vn -0.6074219 0.5117188 -0.6074219
vn -0.6196289 0.5078125 -0.5981445
vn -0.6313477 0.5043945 -0.5888672
vn 0.9628906 0.2561035 -0.08349609
vn 0.9501953 0.3010254 -0.08221436
vn 0.9501953 0.3010254 -0.08221436
vn 0.9628906 0.2561035 -0.08349609
vn 0.9350586 0.3452148 -0.08068848
vn 0.9350586 0.3452148 -0.08068848
vn 0.7753906 -0.1485596 -0.6142578
vn 0.7753906 -0.1485596 -0.6142578
vn 0.7753906 -0.1485596 -0.6142578
vn -0.6318359 0.609375 -0.4794922
vn -0.6318359 0.609375 -0.4794922
vn -0.6318359 0.609375 -0.4794922
vn -0.1561279 0.7597656 -0.6308594
vn -0.1624756 0.769043 -0.6181641
vn -0.1497803 0.7792969 -0.6083984
vn -0.1593018 0.75 -0.6420898
vn -0.1434326 0.7407227 -0.6567383
vn 0.2106934 0.7158203 -0.6660156
vn 0.2106934 0.7158203 -0.6660156
vn 0.2106934 0.7158203 -0.6660156
vn -0.6054688 -0.06610107 -0.7929688
vn -0.6054688 -0.06610107 -0.7929688
vn -0.6054688 -0.06610107 -0.7929688
vn -0.7436523 0.6386719 0.197876
vn -0.7436523 0.6386719 0.197876
vn -0.7436523 0.6386719 0.197876
vn -0.7436523 0.6386719 0.197876
vn -0.609375 0.09686279 -0.7871094
vn -0.609375 0.09686279 -0.7871094
vn -0.609375 0.09686279 -0.7871094
vn -0.01275635 0.06896973 0.9975586
vn -0.01707458 0.1162109 0.9931641
vn -0.01707458 0.1162109 0.9931641
vn -0.0213623 0.163208 0.9863281
vn -0.2509766 0.6694336 0.6992188
vn -0.2509766 0.6694336 0.6992188
vn -0.2509766 0.6694336 0.6992188
vn 0.2493896 0.8344727 0.4909668
vn 0.246582 0.8271484 0.5053711
vn 0.2493896 0.8344727 0.4909668
vn 0.2521973 0.8422852 0.4765625
vn 0.5507813 0.7119141 0.435791
vn 0.5507813 0.7119141 0.435791
vn 0.5507813 0.7119141 0.435791
vn 0.4746094 0.7094727 0.5205078
vn 0.4746094 0.7094727 0.5205078
vn 0.4746094 0.7094727 0.5205078
vn -0.9365234 -0.05831909 0.3452148
vn -0.9399414 -0.01183319 0.3417969
vn -0.9399414 -0.01183319 0.3417969
vn -0.9365234 -0.05831909 0.3452148
vn -0.940918 0.03469849 0.3376465
vn -0.940918 0.03469849 0.3376465
vn -0.4963379 -0.3491211 0.7949219
vn -0.4963379 -0.3491211 0.7949219
vn -0.4963379 -0.3491211 0.7949219
vn -0.4099121 0.847168 -0.338623
vn -0.4099121 0.847168 -0.338623
vn -0.4099121 0.847168 -0.338623
vn -0.2648926 0.8417969 -0.4699707
vn -0.2648926 0.8417969 -0.4699707
vn -0.2648926 0.8417969 -0.4699707
vn 0.06173706 0.9287109 -0.3657227
vn 0.06173706 0.9287109 -0.3657227
vn 0.06173706 0.9287109 -0.3657227
vn 0.1582031 0.4318848 -0.8876953
vn 0.1582031 0.4318848 -0.8876953
vn 0.1582031 0.4318848 -0.8876953
vn 0.02746582 0.5307617 -0.847168
vn 0.02746582 0.5307617 -0.847168
vn 0.02746582 0.5307617 -0.847168
vn -0.8735352 0.1063232 -0.4753418
vn -0.8735352 0.1063232 -0.4753418
vn -0.8735352 0.1063232 -0.4753418
vn -0.2216797 0.9628906 0.154541
vn -0.2216797 0.9628906 0.154541
vn -0.2216797 0.9628906 0.154541
vn -0.2216797 0.9628906 0.154541
vn -0.8168945 0.2529297 -0.5185547
vn -0.8168945 0.2529297 -0.5185547
vn -0.8168945 0.2529297 -0.5185547
vn 0.4536133 0.1992188 0.8686523
vn 0.4645996 0.2424316 0.8515625
vn 0.4645996 0.2424316 0.8515625
vn 0.4746094 0.2849121 0.8330078
vn 0.2697754 0.8901367 0.3669434
vn 0.2697754 0.8901367 0.3669434
vn 0.2697754 0.8901367 0.3669434
vn 0.3105469 0.9443359 -0.1062012
vn 0.3105469 0.9443359 -0.1062012
vn 0.3105469 0.9443359 -0.1062012
vn 0.4064941 0.8847656 0.2276611
vn 0.4064941 0.8847656 0.2276611
vn 0.4064941 0.8847656 0.2276611
vn 0.894043 0.447998 -0.01515198
vn 0.8959961 0.4436035 -0.02568054
vn 0.894043 0.447998 -0.01515198
vn 0.8916016 0.4523926 -0.004615784
vn -0.6420898 0.4121094 0.6464844
vn -0.6298828 0.4541016 0.6303711
vn -0.6298828 0.4541016 0.6303711
vn -0.6420898 0.4121094 0.6464844
vn -0.6162109 0.4951172 0.6123047
vn -0.6162109 0.4951172 0.6123047
vn -0.1816406 0.01809692 0.9833984
vn -0.1816406 0.01809692 0.9833984
vn -0.1816406 0.01809692 0.9833984
vn 0.5395508 0.8027344 -0.2541504
vn 0.5395508 0.8027344 -0.2541504
vn 0.5395508 0.8027344 -0.2541504
vn 0.451416 0.8544922 0.2568359
vn 0.4401855 0.8632813 0.2470703
vn 0.4243164 0.8686523 0.2558594
vn 0.4648438 0.847168 0.2573242
vn 0.4733887 0.8364258 0.276123
vn 0.3466797 0.7290039 0.590332
vn 0.3466797 0.7290039 0.590332
vn 0.3466797 0.7290039 0.590332
vn 0.9609375 0.1905518 -0.201416
vn 0.9609375 0.1905518 -0.201416
vn 0.9609375 0.1905518 -0.201416
vn -0.02522278 0.7646484 -0.644043
vn -0.02522278 0.7646484 -0.644043
vn -0.02522278 0.7646484 -0.644043
vn -0.02520752 0.7646484 -0.644043
vn 0.9199219 0.347168 -0.1815186
vn 0.9199219 0.347168 -0.1815186
vn 0.9199219 0.347168 -0.1815186
vn -0.8979492 -0.06787109 -0.4350586
vn -0.902832 -0.02082825 -0.4294434
vn -0.902832 -0.02082825 -0.4294434
vn -0.9057617 0.02626038 -0.4228516
vn -0.6738281 0.6074219 -0.4211426
vn -0.6738281 0.6074219 -0.4211426
vn -0.6738281 0.6074219 -0.4211426
vn -0.7246094 0.6748047 0.1390381
vn -0.734375 0.6660156 0.1290283
vn -0.7246094 0.6748047 0.1390381
vn -0.7143555 0.6835938 0.1489258
vn -0.7675781 0.4921875 0.4108887
vn -0.7675781 0.4921875 0.4108887
vn -0.7675781 0.4921875 0.4108887
vn -0.8120117 0.4968262 0.3059082
vn -0.8120117 0.4968262 0.3059082
vn -0.8120117 0.4968262 0.3059082
vn 0.07806396 0.1206055 -0.9897461
vn 0.07183838 0.1665039 -0.9833984
vn 0.07183838 0.1665039 -0.9833984
vn 0.07806396 0.1206055 -0.9897461
vn 0.06549072 0.2120361 -0.9750977
vn 0.06549072 0.2120361 -0.9750977
vn -0.4309082 -0.3261719 -0.8413086
vn -0.4309082 -0.3261719 -0.8413086
vn -0.4309082 -0.3261719 -0.8413086
g SM_Env_Plant_02_0
f 3/3/3 2/2/2 1/1/1
f 6/6/6 5/5/5 4/4/4
f 9/9/9 8/8/8 7/7/7
f 12/12/12 11/11/11 10/10/10
f 15/15/15 14/14/14 13/13/13
f 18/18/18 17/17/17 16/16/16
f 21/21/21 20/20/20 19/19/19
f 22/22/22 21/21/21 19/19/19
f 25/25/25 24/24/24 23/23/23
f 28/28/28 27/27/27 26/26/26
f 28/28/28 29/29/29 27/27/27
f 32/32/32 31/31/31 30/30/30
f 35/35/35 34/34/34 33/33/33
f 38/38/38 37/37/37 36/36/36
f 41/41/41 40/40/40 39/39/39
f 42/42/42 41/41/41 39/39/39
f 45/45/45 44/44/44 43/43/43
f 46/46/46 45/45/45 43/43/43
f 47/47/47 44/44/44 45/45/45
f 48/48/48 47/47/47 45/45/45
f 51/51/51 50/50/50 49/49/49
f 54/54/54 53/53/53 52/52/52
f 57/57/57 56/56/56 55/55/55
f 60/60/60 59/59/59 58/58/58
f 63/63/63 62/62/62 61/61/61
f 66/66/66 65/65/65 64/64/64
f 69/69/69 68/68/68 67/67/67
f 72/72/72 71/71/71 70/70/70
f 73/73/73 72/72/72 70/70/70
f 76/76/76 75/75/75 74/74/74
f 79/79/79 78/78/78 77/77/77
f 79/79/79 80/80/80 78/78/78
f 83/83/83 82/82/82 81/81/81
f 86/86/86 85/85/85 84/84/84
f 89/89/89 88/88/88 87/87/87
f 92/92/92 91/91/91 90/90/90
f 93/93/93 92/92/92 90/90/90
f 96/96/96 95/95/95 94/94/94
f 97/97/97 96/96/96 94/94/94
f 98/98/98 95/95/95 96/96/96
f 99/99/99 98/98/98 96/96/96
f 102/102/102 101/101/101 100/100/100
f 105/105/105 104/104/104 103/103/103
f 108/108/108 107/107/107 106/106/106
f 111/111/111 110/110/110 109/109/109
f 114/114/114 113/113/113 112/112/112
f 117/117/117 116/116/116 115/115/115
f 120/120/120 119/119/119 118/118/118
f 123/123/123 122/122/122 121/121/121
f 124/124/124 123/123/123 121/121/121
f 127/127/127 126/126/126 125/125/125
f 130/130/130 129/129/129 128/128/128
f 130/130/130 131/131/131 129/129/129
f 134/134/134 133/133/133 132/132/132
f 137/137/137 136/136/136 135/135/135
f 140/140/140 139/139/139 138/138/138
f 143/143/143 142/142/142 141/141/141
f 144/144/144 143/143/143 141/141/141
f 147/147/147 146/146/146 145/145/145
f 148/148/148 147/147/147 145/145/145
f 149/149/149 146/146/146 147/147/147
f 150/150/150 149/149/149 147/147/147
f 153/153/153 152/152/152 151/151/151
f 156/156/156 155/155/155 154/154/154
f 159/159/159 158/158/158 157/157/157
f 162/162/162 161/161/161 160/160/160
f 165/165/165 164/164/164 163/163/163
f 168/168/168 167/167/167 166/166/166
f 171/171/171 170/170/170 169/169/169
f 174/174/174 173/173/173 172/172/172
f 175/175/175 174/174/174 172/172/172
f 178/178/178 177/177/177 176/176/176
f 181/181/181 180/180/180 179/179/179
f 181/181/181 182/182/182 180/180/180
f 185/185/185 184/184/184 183/183/183
f 188/188/188 187/187/187 186/186/186
f 191/191/191 190/190/190 189/189/189
f 194/194/194 193/193/193 192/192/192
f 195/195/195 194/194/194 192/192/192
f 198/198/198 197/197/197 196/196/196
f 199/199/199 198/198/198 196/196/196
f 200/200/200 197/197/197 198/198/198
f 201/201/201 200/200/200 198/198/198
f 204/204/204 203/203/203 202/202/202
f 207/207/207 206/206/206 205/205/205
f 210/210/210 209/209/209 208/208/208
f 213/213/213 212/212/212 211/211/211
f 216/216/216 215/215/215 214/214/214
f 219/219/219 218/218/218 217/217/217
f 222/222/222 221/221/221 220/220/220
f 225/225/225 224/224/224 223/223/223
f 226/226/226 225/225/225 223/223/223
f 229/229/229 228/228/228 227/227/227
f 232/232/232 231/231/231 230/230/230
f 232/232/232 233/233/233 231/231/231
f 236/236/236 235/235/235 234/234/234
f 239/239/239 238/238/238 237/237/237
f 242/242/242 241/241/241 240/240/240
f 245/245/245 244/244/244 243/243/243
f 246/246/246 245/245/245 243/243/243
f 249/249/249 248/248/248 247/247/247
f 250/250/250 249/249/249 247/247/247
f 251/251/251 248/248/248 249/249/249
f 252/252/252 251/251/251 249/249/249
f 255/255/255 254/254/254 253/253/253
f 258/258/258 257/257/257 256/256/256
f 261/261/261 260/260/260 259/259/259
f 264/264/264 263/263/263 262/262/262
f 267/267/267 266/266/266 265/265/265
f 270/270/270 269/269/269 268/268/268
f 273/273/273 272/272/272 271/271/271
f 276/276/276 275/275/275 274/274/274
f 277/277/277 276/276/276 274/274/274
f 280/280/280 279/279/279 278/278/278
f 283/283/283 282/282/282 281/281/281
f 283/283/283 284/284/284 282/282/282
f 287/287/287 286/286/286 285/285/285
f 290/290/290 289/289/289 288/288/288
f 293/293/293 292/292/292 291/291/291
f 296/296/296 295/295/295 294/294/294
f 297/297/297 296/296/296 294/294/294
f 300/300/300 299/299/299 298/298/298
f 301/301/301 300/300/300 298/298/298
f 302/302/302 299/299/299 300/300/300
f 303/303/303 302/302/302 300/300/300
f 306/306/306 305/305/305 304/304/304
f 309/309/309 308/308/308 307/307/307
f 312/312/312 311/311/311 310/310/310
f 311/311/311 313/313/313 310/310/310
f 314/314/314 310/310/310 313/313/313
f 317/317/317 316/316/316 315/315/315
f 320/320/320 319/319/319 318/318/318
f 323/323/323 322/322/322 321/321/321
f 324/324/324 323/323/323 321/321/321
f 327/327/327 326/326/326 325/325/325
f 330/330/330 329/329/329 328/328/328
f 330/330/330 331/331/331 329/329/329
f 334/334/334 333/333/333 332/332/332
f 337/337/337 336/336/336 335/335/335
f 335/335/335 338/338/338 337/337/337
f 341/341/341 340/340/340 339/339/339
f 344/344/344 343/343/343 342/342/342
f 347/347/347 346/346/346 345/345/345
f 348/348/348 347/347/347 345/345/345
f 349/349/349 346/346/346 347/347/347
f 350/350/350 349/349/349 347/347/347
f 353/353/353 352/352/352 351/351/351
f 356/356/356 355/355/355 354/354/354
f 359/359/359 358/358/358 357/357/357
f 362/362/362 361/361/361 360/360/360
f 365/365/365 364/364/364 363/363/363
f 368/368/368 367/367/367 366/366/366
f 371/371/371 370/370/370 369/369/369
f 374/374/374 373/373/373 372/372/372
f 375/375/375 374/374/374 372/372/372
f 378/378/378 377/377/377 376/376/376
f 381/381/381 380/380/380 379/379/379
f 381/381/381 382/382/382 380/380/380
f 385/385/385 384/384/384 383/383/383
f 388/388/388 387/387/387 386/386/386
f 391/391/391 390/390/390 389/389/389
f 394/394/394 393/393/393 392/392/392
f 395/395/395 394/394/394 392/392/392
f 398/398/398 397/397/397 396/396/396
f 399/399/399 398/398/398 396/396/396
f 400/400/400 397/397/397 398/398/398
f 401/401/401 400/400/400 398/398/398
f 404/404/404 403/403/403 402/402/402
f 407/407/407 406/406/406 405/405/405
f 410/410/410 409/409/409 408/408/408
f 409/409/409 411/411/411 408/408/408
f 412/412/412 408/408/408 411/411/411
f 415/415/415 414/414/414 413/413/413
f 418/418/418 417/417/417 416/416/416
f 421/421/421 420/420/420 419/419/419
f 422/422/422 421/421/421 419/419/419
f 425/425/425 424/424/424 423/423/423
f 428/428/428 427/427/427 426/426/426
f 428/428/428 429/429/429 427/427/427
f 432/432/432 431/431/431 430/430/430
f 435/435/435 434/434/434 433/433/433
f 433/433/433 436/436/436 435/435/435
f 439/439/439 438/438/438 437/437/437
f 442/442/442 441/441/441 440/440/440
f 445/445/445 444/444/444 443/443/443
f 446/446/446 445/445/445 443/443/443
f 447/447/447 444/444/444 445/445/445
f 448/448/448 447/447/447 445/445/445
f 451/451/451 450/450/450 449/449/449
