g SM_Env_SteppingStone_02
v -0.08775711 0.1572149 0.5646286
v 0.5594559 0.1572149 0.1461334
v 0.6223946 0 0.1658325
v -0.09775925 0 0.631485
v 0.09703827 0.1572149 -0.6218872
v 0.4494591 0.1572149 -0.4522552
v 0.5594559 0.1572149 0.1461334
v -0.08775711 0.1572149 0.5646286
v -0.4492531 0.1572149 0.4464569
v -0.5574341 0.1572149 -0.3301468
v 0.1078606 0 -0.6887512
v 0.5 0 -0.5
v 0.4494591 0.1572149 -0.4522552
v 0.09703827 0.1572149 -0.6218872
v 0.6223946 0 0.1658325
v 0.5594559 0.1572149 0.1461334
v 0.4494591 0.1572149 -0.4522552
v 0.5 0 -0.5
v -0.6203728 0 -0.3641281
v -0.5574341 0.1572149 -0.3301468
v -0.4492531 0.1572149 0.4464569
v -0.5 0 0.5
v -0.5 0 0.5
v -0.4492531 0.1572149 0.4464569
v -0.08775711 0.1572149 0.5646286
v -0.09775925 0 0.631485
v -0.5574341 0.1572149 -0.3301468
v -0.6203728 0 -0.3641281
v 0.1078606 0 -0.6887512
v 0.09703827 0.1572149 -0.6218872
vt 0.4436915 0.3265093
vt 0.4436915 0.3265093
vt 0.4436915 0.3265093
vt 0.4436915 0.3265093
vt 0.4436915 0.3265093
vt 0.4436915 0.3265093
vt 0.4436915 0.3265093
vt 0.4436915 0.3265093
vt 0.4436915 0.3265093
vt 0.4436915 0.3265093
vt 0.4436915 0.3265093
vt 0.4436915 0.3265093
vt 0.4436915 0.3265093
vt 0.4436915 0.3265093
vt 0.4436915 0.3265093
vt 0.4436915 0.3265093
vt 0.4436915 0.3265093
vt 0.4436915 0.3265093
vt 0.4436915 0.3265093
vt 0.4436915 0.3265093
vt 0.4436915 0.3265093
vt 0.4436915 0.3265093
vt 0.4436915 0.3265093
vt 0.4436915 0.3265093
vt 0.4436915 0.3265093
vt 0.4436915 0.3265093
vt 0.4436915 0.3265093
vt 0.4436915 0.3265093
vt 0.4436915 0.3265093
vt 0.4436915 0.3265093
vn 0.5167623 0.3070002 0.7991918
vn 0.5167623 0.3070002 0.7991918
vn 0.5167623 0.3070002 0.7991918
vn 0.5167623 0.3070002 0.7991918
vn 0 1 0
vn 0 1 0
vn 0 1 0
vn 0 1 0
vn 0 1 0
vn 0 1 0
vn 0.4008562 0.3817831 -0.8328001
vn 0.4008562 0.3817831 -0.8328001
vn 0.4008562 0.3817831 -0.8328001
vn 0.4008562 0.3817831 -0.8328001
vn 0.9220812 0.3479031 -0.1694986
vn 0.9220812 0.3479031 -0.1694986
vn 0.9220812 0.3479031 -0.1694986
vn 0.9220812 0.3479031 -0.1694986
vn -0.9298915 0.3442713 0.1295338
vn -0.9298915 0.3442713 0.1295338
vn -0.9298915 0.3442713 0.1295338
vn -0.9298915 0.3442713 0.1295338
vn -0.2860589 0.3903541 0.8750966
vn -0.2860589 0.3903541 0.8750966
vn -0.2860589 0.3903541 0.8750966
vn -0.2860589 0.3903541 0.8750966
vn -0.3830273 0.3390708 -0.8592561
vn -0.3830273 0.3390708 -0.8592561
vn -0.3830273 0.3390708 -0.8592561
vn -0.3830273 0.3390708 -0.8592561
g SM_Env_SteppingStone_02_0
f 3/3/3 2/2/2 1/1/1
f 4/4/4 3/3/3 1/1/1
f 7/7/7 6/6/6 5/5/5
f 8/8/8 7/7/7 5/5/5
f 8/8/8 5/5/5 9/9/9
f 5/5/5 10/10/10 9/9/9
f 13/13/13 12/12/12 11/11/11
f 14/14/14 13/13/13 11/11/11
f 17/17/17 16/16/16 15/15/15
f 18/18/18 17/17/17 15/15/15
f 21/21/21 20/20/20 19/19/19
f 22/22/22 21/21/21 19/19/19
f 25/25/25 24/24/24 23/23/23
f 26/26/26 25/25/25 23/23/23
f 29/29/29 28/28/28 27/27/27
f 30/30/30 29/29/29 27/27/27
