g SM_Env_SteppingStone_01
v -0.05134201 0.1572149 0.3221359
v 0.2518501 0.1572149 0.1713409
v 0.3084831 0 0.1932983
v -0.06134796 0 0.3889999
v -0.1638985 0.1572149 -0.4943161
v 0.2759476 0.1572149 -0.3130722
v 0.2518501 0.1572149 0.1713409
v -0.05134201 0.1572149 0.3221359
v -0.2542343 0.1572149 0.2527008
v -0.419487 0.1572149 -0.2276001
v -0.1530724 0 -0.5611801
v 0.3352928 0 -0.3457108
v 0.2759476 0.1572149 -0.3130722
v -0.1638985 0.1572149 -0.4943161
v 0.3084831 0 0.1932983
v 0.2518501 0.1572149 0.1713409
v 0.2759476 0.1572149 -0.3130722
v 0.3352928 0 -0.3457108
v -0.4879532 0 -0.2482986
v -0.419487 0.1572149 -0.2276001
v -0.2542343 0.1572149 0.2527008
v -0.2932396 0 0.3153152
v -0.2932396 0 0.3153152
v -0.2542343 0.1572149 0.2527008
v -0.05134201 0.1572149 0.3221359
v -0.06134796 0 0.3889999
v -0.419487 0.1572149 -0.2276001
v -0.4879532 0 -0.2482986
v -0.1530724 0 -0.5611801
v -0.1638985 0.1572149 -0.4943161
vt 0.4436915 0.3265093
vt 0.4436915 0.3265093
vt 0.4436915 0.3265093
vt 0.4436915 0.3265093
vt 0.4436915 0.3265093
vt 0.4436915 0.3265093
vt 0.4436915 0.3265093
vt 0.4436915 0.3265093
vt 0.4436915 0.3265093
vt 0.4436915 0.3265093
vt 0.4436915 0.3265093
vt 0.4436915 0.3265093
vt 0.4436915 0.3265093
vt 0.4436915 0.3265093
vt 0.4436915 0.3265093
vt 0.4436915 0.3265093
vt 0.4436915 0.3265093
vt 0.4436915 0.3265093
vt 0.4436915 0.3265093
vt 0.4436915 0.3265093
vt 0.4436915 0.3265093
vt 0.4436915 0.3265093
vt 0.4436915 0.3265093
vt 0.4436915 0.3265093
vt 0.4436915 0.3265093
vt 0.4436915 0.3265093
vt 0.4436915 0.3265093
vt 0.4436915 0.3265093
vt 0.4436915 0.3265093
vt 0.4436915 0.3265093
vn 0.4360802 0.3039384 0.8470274
vn 0.4360802 0.3039384 0.8470274
vn 0.4360802 0.3039384 0.8470274
vn 0.4360802 0.3039384 0.8470274
vn 0 1 0
vn 0 1 0
vn 0 1 0
vn 0 1 0
vn 0 1 0
vn 0 1 0
vn 0.3675338 0.3541535 -0.8599385
vn 0.3675338 0.3541535 -0.8599385
vn 0.3675338 0.3541535 -0.8599385
vn 0.3675338 0.3541535 -0.8599385
vn 0.937704 0.34429 0.04664334
vn 0.937704 0.34429 0.04664334
vn 0.937704 0.34429 0.04664334
vn 0.937704 0.34429 0.04664334
vn -0.8876134 0.3441858 0.3060699
vn -0.8876134 0.3441858 0.3060699
vn -0.8876134 0.3441858 0.3060699
vn -0.8876134 0.3441858 0.3060699
vn -0.2862046 0.4026455 0.8694616
vn -0.2862046 0.4026455 0.8694616
vn -0.2862046 0.4026455 0.8694616
vn -0.2862046 0.4026455 0.8694616
vn -0.6657832 0.3109342 -0.6782718
vn -0.6657832 0.3109342 -0.6782718
vn -0.6657832 0.3109342 -0.6782718
vn -0.6657832 0.3109342 -0.6782718
g SM_Env_SteppingStone_01_0
f 3/3/3 2/2/2 1/1/1
f 4/4/4 3/3/3 1/1/1
f 7/7/7 6/6/6 5/5/5
f 8/8/8 7/7/7 5/5/5
f 8/8/8 5/5/5 9/9/9
f 5/5/5 10/10/10 9/9/9
f 13/13/13 12/12/12 11/11/11
f 14/14/14 13/13/13 11/11/11
f 17/17/17 16/16/16 15/15/15
f 18/18/18 17/17/17 15/15/15
f 21/21/21 20/20/20 19/19/19
f 22/22/22 21/21/21 19/19/19
f 25/25/25 24/24/24 23/23/23
f 26/26/26 25/25/25 23/23/23
f 29/29/29 28/28/28 27/27/27
f 30/30/30 29/29/29 27/27/27
