g SM_Env_Rock_03
v -0.2519188 0.8538668 0.2913971
v 0.3115082 0.6653053 0.1439438
v 0.4210892 0.4372676 0.3810425
v -0.2923164 0.5126649 0.625679
v -0.02077866 1.119787 -0.2222214
v 0.248539 1.022462 -0.0916748
v 0.2788582 0.9871572 0.1111679
v -0.2132339 1.082159 0.1622925
v 0.06104279 0.5063969 -0.629097
v 0.3505707 0.4564494 -0.2005005
v 0.3218498 0.7114949 -0.1464386
v -0.005111694 0.9290572 -0.4177399
v 0.4210892 0.4372676 0.3810425
v 0.3115082 0.6653053 0.1439438
v 0.3218498 0.7114949 -0.1464386
v 0.3505707 0.4564494 -0.2005005
v -0.5909309 0.5562845 -0.399292
v -0.5993614 0.797397 -0.299324
v -0.5883217 0.7383742 0.06536102
v -0.6111298 0.537809 0.2782669
v -0.3600311 0.9742604 0.09672546
v -0.3528328 1.019711 -0.1444321
v -0.02077866 1.119787 -0.2222214
v -0.2132339 1.082159 0.1622925
v -0.6111298 0.537809 0.2782669
v -0.5883217 0.7383742 0.06536102
v -0.2519188 0.8538668 0.2913971
v -0.2923164 0.5126649 0.625679
v -0.5993614 0.797397 -0.299324
v -0.5909309 0.5562845 -0.399292
v 0.06104279 0.5063969 -0.629097
v -0.005111694 0.9290572 -0.4177399
v 0.1761703 0.2518762 -0.7639236
v -0.7118492 0.2605017 -0.480751
v -0.2519188 0.8538668 0.2913971
v -0.2132339 1.082159 0.1622925
v 0.2788582 0.9871572 0.1111679
v 0.3115082 0.6653053 0.1439438
v 0.3115082 0.6653053 0.1439438
v 0.2788582 0.9871572 0.1111679
v 0.248539 1.022462 -0.0916748
v 0.3218498 0.7114949 -0.1464386
v 0.3218498 0.7114949 -0.1464386
v 0.248539 1.022462 -0.0916748
v -0.02077866 1.119787 -0.2222214
v -0.005111694 0.9290572 -0.4177399
v -0.3600311 0.9742604 0.09672546
v -0.2132339 1.082159 0.1622925
v -0.2519188 0.8538668 0.2913971
v -0.5883217 0.7383742 0.06536102
v -0.005111694 0.9290572 -0.4177399
v -0.02077866 1.119787 -0.2222214
v -0.3528328 1.019711 -0.1444321
v -0.5993614 0.797397 -0.299324
v -0.3528328 1.019711 -0.1444321
v -0.3600311 0.9742604 0.09672546
v -0.5883217 0.7383742 0.06536102
v -0.2923164 0.5126649 0.625679
v -0.3246536 0.2530939 0.7639313
v -0.7088547 0.2665694 0.4351578
v -0.6111298 0.537809 0.2782669
v -0.6111298 0.537809 0.2782669
v -0.7088547 0.2665694 0.4351578
v -0.7118492 0.2605017 -0.480751
v -0.5909309 0.5562845 -0.399292
v -0.8086014 0.01123649 -0.4593277
v -0.8031731 0.01354563 0.4157715
v 0.3505707 0.4564494 -0.2005005
v 0.7017746 0.2114613 -0.3652878
v 0.7753716 0.2120525 0.4469528
v 0.4210892 0.4372676 0.3810425
v 0.4210892 0.4372676 0.3810425
v 0.7753716 0.2120525 0.4469528
v -0.3246536 0.2530939 0.7639313
v -0.2923164 0.5126649 0.625679
v 0.06104279 0.5063969 -0.629097
v 0.1761703 0.2518762 -0.7639236
v 0.7017746 0.2114613 -0.3652878
v 0.3505707 0.4564494 -0.2005005
v 0.5276833 -0.1561022 -0.2432404
v 0.1160851 -0.1554357 -0.5086899
v -0.5635529 -0.1510077 -0.3201294
v -0.5597687 -0.1493984 0.289772
v 0.563549 -0.1562327 0.2976227
v -0.211525 -0.1554357 0.5086975
v -0.3246536 0.2530939 0.7639313
v -0.3035011 0.004883111 0.7298889
v -0.8031731 0.01354563 0.4157715
v -0.7088547 0.2665694 0.4351578
v -0.7118492 0.2605017 -0.480751
v -0.8086014 0.01123649 -0.4593277
v 0.1665611 0.004883111 -0.7298813
v 0.1761703 0.2518762 -0.7639236
v 0.1761703 0.2518762 -0.7639236
v 0.1665611 0.004883111 -0.7298813
v 0.7571335 0.003926873 -0.3490143
v 0.7017746 0.2114613 -0.3652878
v 0.7017746 0.2114613 -0.3652878
v 0.7571335 0.003926873 -0.3490143
v 0.8085976 0.003739357 0.4270401
v 0.7753716 0.2120525 0.4469528
v 0.7753716 0.2120525 0.4469528
v 0.8085976 0.003739357 0.4270401
v -0.3035011 0.004883111 0.7298889
v -0.3246536 0.2530939 0.7639313
v -0.005111694 0.9290572 -0.4177399
v -0.3528328 1.019711 -0.1444321
v -0.5993614 0.797397 -0.299324
v -0.3035011 0.004883111 0.7298889
v -0.211525 -0.1554357 0.5086975
v -0.5597687 -0.1493984 0.289772
v -0.8031731 0.01354563 0.4157715
v -0.8031731 0.01354563 0.4157715
v -0.5597687 -0.1493984 0.289772
v -0.5635529 -0.1510077 -0.3201294
v -0.8086014 0.01123649 -0.4593277
v -0.8086014 0.01123649 -0.4593277
v -0.5635529 -0.1510077 -0.3201294
v 0.1160851 -0.1554357 -0.5086899
v 0.1665611 0.004883111 -0.7298813
v 0.1665611 0.004883111 -0.7298813
v 0.1160851 -0.1554357 -0.5086899
v 0.5276833 -0.1561022 -0.2432404
v 0.7571335 0.003926873 -0.3490143
v 0.7571335 0.003926873 -0.3490143
v 0.5276833 -0.1561022 -0.2432404
v 0.563549 -0.1562327 0.2976227
v 0.8085976 0.003739357 0.4270401
v 0.8085976 0.003739357 0.4270401
v 0.563549 -0.1562327 0.2976227
v -0.211525 -0.1554357 0.5086975
v -0.3035011 0.004883111 0.7298889
vt 0.4436915 0.3265522
vt 0.4436915 0.3265522
vt 0.4436915 0.3265522
vt 0.4436915 0.3265522
vt 0.4436915 0.3265522
vt 0.4436915 0.3265522
vt 0.4436915 0.3265522
vt 0.4436915 0.3265522
vt 0.4436915 0.3265522
vt 0.4436915 0.3265522
vt 0.4436915 0.3265522
vt 0.4436915 0.3265522
vt 0.4436915 0.3265522
vt 0.4436915 0.3265522
vt 0.4436915 0.3265522
vt 0.4436915 0.3265522
vt 0.4436915 0.3265522
vt 0.4436915 0.3265522
vt 0.4436915 0.3265522
vt 0.4436915 0.3265522
vt 0.4436915 0.3265522
vt 0.4436915 0.3265522
vt 0.4436915 0.3265522
vt 0.4436915 0.3265522
vt 0.4436915 0.3265522
vt 0.4436915 0.3265522
vt 0.4436915 0.3265522
vt 0.4436915 0.3265522
vt 0.4436915 0.3265522
vt 0.4436915 0.3265522
vt 0.4436915 0.3265522
vt 0.4436915 0.3265522
vt 0.4436915 0.3265522
vt 0.4436915 0.3265522
vt 0.4436915 0.3265522
vt 0.4436915 0.3265522
vt 0.4436915 0.3265522
vt 0.4436915 0.3265522
vt 0.4436915 0.3265522
vt 0.4436915 0.3265522
vt 0.4436915 0.3265522
vt 0.4436915 0.3265522
vt 0.4436915 0.3265522
vt 0.4436915 0.3265522
vt 0.4436915 0.3265522
vt 0.4436915 0.3265522
vt 0.4436915 0.3265522
vt 0.4436915 0.3265522
vt 0.4436915 0.3265522
vt 0.4436915 0.3265522
vt 0.4436915 0.3265522
vt 0.4436915 0.3265522
vt 0.4436915 0.3265522
vt 0.4436915 0.3265522
vt 0.4436915 0.3265522
vt 0.4436915 0.3265522
vt 0.4436915 0.3265522
vt 0.4436915 0.3265522
vt 0.4436915 0.3265522
vt 0.4436915 0.3265522
vt 0.4436915 0.3265522
vt 0.4436915 0.3265522
vt 0.4436915 0.3265522
vt 0.4436915 0.3265522
vt 0.4436915 0.3265522
vt 0.4436915 0.3265522
vt 0.4436915 0.3265522
vt 0.4436915 0.3265522
vt 0.4436915 0.3265522
vt 0.4436915 0.3265522
vt 0.4436915 0.3265522
vt 0.4436915 0.3265522
vt 0.4436915 0.3265522
vt 0.4436915 0.3265522
vt 0.4436915 0.3265522
vt 0.4436915 0.3265522
vt 0.4436915 0.3265522
vt 0.4436915 0.3265522
vt 0.4436915 0.3265522
vt 0.4436915 0.3265522
vt 0.4436915 0.3265522
vt 0.4436915 0.3265522
vt 0.4436915 0.3265522
vt 0.4436915 0.3265522
vt 0.4436915 0.3265522
vt 0.4436915 0.3265522
vt 0.4436915 0.3265522
vt 0.4436915 0.3265522
vt 0.4436915 0.3265522
vt 0.4436915 0.3265522
vt 0.4436915 0.3265522
vt 0.4436915 0.3265522
vt 0.4436915 0.3265522
vt 0.4436915 0.3265522
vt 0.4436915 0.3265522
vt 0.4436915 0.3265522
vt 0.4436915 0.3265522
vt 0.4436915 0.3265522
vt 0.4436915 0.3265522
vt 0.4436915 0.3265522
vt 0.4436915 0.3265522
vt 0.4436915 0.3265522
vt 0.4436915 0.3265522
vt 0.4436915 0.3265522
vt 0.4436915 0.3265522
vt 0.4436915 0.3265522
vt 0.4436915 0.3265522
vt 0.4436915 0.3265522
vt 0.4436915 0.3265522
vt 0.4436915 0.3265522
vt 0.4436915 0.3265522
vt 0.4436915 0.3265522
vt 0.4436915 0.3265522
vt 0.4436915 0.3265522
vt 0.4436915 0.3265522
vt 0.4436915 0.3265522
vt 0.4436915 0.3265522
vt 0.4436915 0.3265522
vt 0.4436915 0.3265522
vt 0.4436915 0.3265522
vt 0.4436915 0.3265522
vt 0.4436915 0.3265522
vt 0.4436915 0.3265522
vt 0.4436915 0.3265522
vt 0.4436915 0.3265522
vt 0.4436915 0.3265522
vt 0.4436915 0.3265522
vt 0.4436915 0.3265522
vt 0.4436915 0.3265522
vt 0.4436915 0.3265522
vt 0.4436915 0.3265522
vt 0.4436915 0.3265522
vn 0.3393799 0.6866137 0.6429486
vn 0.3393799 0.6866137 0.6429486
vn 0.3393799 0.6866137 0.6429486
vn 0.3393799 0.6866137 0.6429486
vn 0.2231332 0.9579234 0.1805395
vn 0.2231332 0.9579234 0.1805395
vn 0.2231332 0.9579234 0.1805395
vn 0.2231332 0.9579234 0.1805395
vn 0.767923 0.323927 -0.5525989
vn 0.767923 0.323927 -0.5525989
vn 0.767923 0.323927 -0.5525989
vn 0.767923 0.323927 -0.5525989
vn 0.9648971 0.2583474 -0.04722416
vn 0.9648971 0.2583474 -0.04722416
vn 0.9648971 0.2583474 -0.04722416
vn 0.9648971 0.2583474 -0.04722416
vn -0.9995021 0.03087715 -0.006487542
vn -0.9995021 0.03087715 -0.006487542
vn -0.9995021 0.03087715 -0.006487542
vn -0.9995021 0.03087715 -0.006487542
vn -0.398479 0.9171617 -0.005373793
vn -0.398479 0.9171617 -0.005373793
vn -0.398479 0.9171617 -0.005373793
vn -0.398479 0.9171617 -0.005373793
vn -0.5641167 0.6184092 0.5471219
vn -0.5641167 0.6184092 0.5471219
vn -0.5641167 0.6184092 0.5471219
vn -0.5641167 0.6184092 0.5471219
vn -0.271795 0.3834495 -0.882663
vn -0.2777017 0.3684581 -0.887198
vn -0.2777017 0.3684581 -0.887198
vn -0.271795 0.3834495 -0.882663
vn -0.2835306 0.3533635 -0.8914845
vn -0.2835306 0.3533635 -0.8914845
vn 0.2477889 0.2709782 0.9301459
vn 0.2477889 0.2709782 0.9301459
vn 0.2477889 0.2709782 0.9301459
vn 0.2477889 0.2709782 0.9301459
vn 0.9861201 0.165556 -0.01258748
vn 0.9861201 0.165556 -0.01258748
vn 0.9861201 0.165556 -0.01258748
vn 0.9861201 0.165556 -0.01258748
vn 0.6495556 0.428519 -0.6280517
vn 0.6495556 0.428519 -0.6280517
vn 0.6495556 0.428519 -0.6280517
vn 0.6495556 0.428519 -0.6280517
vn -0.608981 0.4773861 0.6334389
vn -0.6221389 0.4626137 0.6316105
vn -0.608981 0.4773861 0.6334389
vn -0.5955826 0.4919699 0.6350173
vn -0.3538322 0.6551825 -0.6674868
vn -0.3538322 0.6551825 -0.6674868
vn -0.3538322 0.6551825 -0.6674868
vn -0.7137361 0.6894556 0.1234168
vn -0.7137361 0.6894556 0.1234168
vn -0.7137361 0.6894556 0.1234168
vn -0.7137361 0.6894556 0.1234168
vn -0.5865204 0.4986048 0.6382688
vn -0.5865204 0.4986048 0.6382688
vn -0.5865204 0.4986048 0.6382688
vn -0.5865204 0.4986048 0.6382688
vn -0.9333379 0.3589252 -0.007282176
vn -0.9340083 0.3572439 -0.002274838
vn -0.9340083 0.3572439 -0.002274838
vn -0.9333379 0.3589252 -0.007282176
vn -0.9346523 0.3555525 0.002732563
vn -0.9346523 0.3555525 0.002732563
vn 0.5495793 0.8341907 -0.04569919
vn 0.5495793 0.8341907 -0.04569919
vn 0.5495793 0.8341907 -0.04569919
vn 0.5495793 0.8341907 -0.04569919
vn 0.2823046 0.5254851 0.8026017
vn 0.2823046 0.5254851 0.8026017
vn 0.2823046 0.5254851 0.8026017
vn 0.2823046 0.5254851 0.8026017
vn 0.5174507 0.7404056 -0.4290038
vn 0.5174507 0.7404056 -0.4290038
vn 0.5174507 0.7404056 -0.4290038
vn 0.5174507 0.7404056 -0.4290038
vn -0.005328023 -0.9999821 0.002712961
vn -0.005042458 -0.9999732 0.005307922
vn -0.004949508 -0.9999798 0.003988294
vn -0.005632907 -0.9999712 -0.005088932
vn -0.006020974 -0.9999416 -0.008967774
vn -0.005956422 -0.9998185 -0.01809708
vn -0.5882216 -0.0003391468 0.8086997
vn -0.5882216 -0.0003391468 0.8086997
vn -0.5882216 -0.0003391468 0.8086997
vn -0.5882216 -0.0003391468 0.8086997
vn -0.2849177 -0.04594667 -0.9574502
vn -0.2849177 -0.04594667 -0.9574502
vn -0.2849177 -0.04594667 -0.9574502
vn -0.2849177 -0.04594667 -0.9574502
vn 0.5714189 -0.0332565 -0.8199844
vn 0.5714189 -0.0332565 -0.8199844
vn 0.5714189 -0.0332565 -0.8199844
vn 0.5714189 -0.0332565 -0.8199844
vn 0.975027 0.2083751 -0.07682578
vn 0.975027 0.2083751 -0.07682578
vn 0.975027 0.2083751 -0.07682578
vn 0.975027 0.2083751 -0.07682578
vn 0.2674611 -0.08161338 0.9601061
vn 0.2674611 -0.08161338 0.9601061
vn 0.2674611 -0.08161338 0.9601061
vn 0.2674611 -0.08161338 0.9601061
vn -0.2853172 0.7404151 -0.6085882
vn -0.2853172 0.7404151 -0.6085882
vn -0.2853172 0.7404151 -0.6085882
vn -0.3098726 -0.8264139 0.4701266
vn -0.3098726 -0.8264139 0.4701266
vn -0.3098726 -0.8264139 0.4701266
vn -0.3098726 -0.8264139 0.4701266
vn -0.5542693 -0.8323184 0.005634724
vn -0.5542693 -0.8323184 0.005634724
vn -0.5542693 -0.8323184 0.005634724
vn -0.5542693 -0.8323184 0.005634724
vn -0.1725282 -0.7784202 -0.6035695
vn -0.1725282 -0.7784202 -0.6035695
vn -0.1725282 -0.7784202 -0.6035695
vn -0.1725282 -0.7784202 -0.6035695
vn 0.3246365 -0.7994983 -0.5053847
vn 0.3246365 -0.7994983 -0.5053847
vn 0.3246365 -0.7994983 -0.5053847
vn 0.3246365 -0.7994983 -0.5053847
vn 0.5600182 -0.8276385 -0.03733681
vn 0.5600182 -0.8276385 -0.03733681
vn 0.5600182 -0.8276385 -0.03733681
vn 0.5600182 -0.8276385 -0.03733681
vn 0.1690153 -0.7633181 0.6235216
vn 0.1690153 -0.7633181 0.6235216
vn 0.1690153 -0.7633181 0.6235216
vn 0.1690153 -0.7633181 0.6235216
g SM_Env_Rock_03_0
f 3/3/3 2/2/2 1/1/1
f 4/4/4 3/3/3 1/1/1
f 7/7/7 6/6/6 5/5/5
f 8/8/8 7/7/7 5/5/5
f 11/11/11 10/10/10 9/9/9
f 12/12/12 11/11/11 9/9/9
f 15/15/15 14/14/14 13/13/13
f 16/16/16 15/15/15 13/13/13
f 19/19/19 18/18/18 17/17/17
f 20/20/20 19/19/19 17/17/17
f 23/23/23 22/22/22 21/21/21
f 24/24/24 23/23/23 21/21/21
f 27/27/27 26/26/26 25/25/25
f 28/28/28 27/27/27 25/25/25
f 31/31/31 30/30/30 29/29/29
f 32/32/32 31/31/31 29/29/29
f 31/31/31 33/33/33 30/30/30
f 33/33/33 34/34/34 30/30/30
f 37/37/37 36/36/36 35/35/35
f 38/38/38 37/37/37 35/35/35
f 41/41/41 40/40/40 39/39/39
f 42/42/42 41/41/41 39/39/39
f 45/45/45 44/44/44 43/43/43
f 46/46/46 45/45/45 43/43/43
f 49/49/49 48/48/48 47/47/47
f 49/49/49 47/47/47 50/50/50
f 53/53/53 52/52/52 51/51/51
f 56/56/56 55/55/55 54/54/54
f 57/57/57 56/56/56 54/54/54
f 60/60/60 59/59/59 58/58/58
f 61/61/61 60/60/60 58/58/58
f 64/64/64 63/63/63 62/62/62
f 65/65/65 64/64/64 62/62/62
f 64/64/64 66/66/66 63/63/63
f 66/66/66 67/67/67 63/63/63
f 70/70/70 69/69/69 68/68/68
f 71/71/71 70/70/70 68/68/68
f 74/74/74 73/73/73 72/72/72
f 75/75/75 74/74/74 72/72/72
f 78/78/78 77/77/77 76/76/76
f 79/79/79 78/78/78 76/76/76
f 82/82/82 81/81/81 80/80/80
f 80/80/80 83/83/83 82/82/82
f 80/80/80 84/84/84 83/83/83
f 84/84/84 85/85/85 83/83/83
f 88/88/88 87/87/87 86/86/86
f 89/89/89 88/88/88 86/86/86
f 92/92/92 91/91/91 90/90/90
f 93/93/93 92/92/92 90/90/90
f 96/96/96 95/95/95 94/94/94
f 97/97/97 96/96/96 94/94/94
f 100/100/100 99/99/99 98/98/98
f 101/101/101 100/100/100 98/98/98
f 104/104/104 103/103/103 102/102/102
f 105/105/105 104/104/104 102/102/102
f 108/108/108 107/107/107 106/106/106
f 111/111/111 110/110/110 109/109/109
f 112/112/112 111/111/111 109/109/109
f 115/115/115 114/114/114 113/113/113
f 116/116/116 115/115/115 113/113/113
f 119/119/119 118/118/118 117/117/117
f 120/120/120 119/119/119 117/117/117
f 123/123/123 122/122/122 121/121/121
f 124/124/124 123/123/123 121/121/121
f 127/127/127 126/126/126 125/125/125
f 128/128/128 127/127/127 125/125/125
f 131/131/131 130/130/130 129/129/129
f 132/132/132 131/131/131 129/129/129
