g SM_Env_GroundMound_01
v -5.580711 0 5.194263
v -4.568497 0.04756747 5.482128
v -3.610176 0 7.017334
v -0.7136307 0 7.974104
v -6.079216 0.08787268 2.550693
v -2.058594 0.1369406 5.526833
v 0.4545441 0.1074809 7.189816
v 0.7795868 0 7.979464
v 1.999741 0 7.450758
v 3.907951 0 6.594154
v -7.79863 0 2.179152
v -7.049759 0.05821574 0.5769186
v -4.107582 0.2390012 3.105907
v -7.79863 0 -1.348666
v -6.419197 0.1865455 -2.309901
v 2.523293 0.07538459 4.609877
v 0.4545441 0.1074809 7.189816
v 3.906921 0.1167324 4.439116
v 5.626244 0 5.400206
v 3.755455 0.3603828 1.977265
v 2.523293 0.07538459 4.609877
v 5.626503 0.2030486 3.295604
v 6.099152 0.2976885 1.855932
v 2.292404 0.8255655 0.6024847
v 1.58268 0.526617 2.084716
v -7.208435 0 -3.685239
v -6.419197 0.1865455 -2.309901
v -6.275734 0.267287 0.06172085
v -5.377907 0.3232421 -0.6213808
v -5.195023 0.3605968 1.881464
v -3.635201 0.4683504 -0.8044033
v -7.208435 0 -3.685239
v -4.526398 0.1223965 -4.29305
v -4.170052 0 -6.706496
v -3.623779 0.1400203 -5.387609
v -0.8515091 0.08459111 -6.869341
v -0.8613892 0 -7.979465
v 1.779228 0.1121894 -6.815736
v 3.433342 0 -7.55014
v 2.286804 0.4803912 -5.04845
v 2.803398 0.2164304 -6.234227
v 3.433342 0 -7.55014
v -5.92305 0 -5.56671
v -7.208435 0 -3.685239
v 5.273941 0 -5.918013
v 4.77002 0.0314101 -5.239471
v 5.915253 0 -5.179076
v 5.915253 0 -5.179076
v 6.182762 0.17397 -2.423245
v 4.86879 0.09078477 -3.902007
v 7.79863 0 -2.115583
v 6.182762 0.17397 -2.423245
v 7.238403 0 3.099453
v 6.403343 0.09581845 -0.3901148
v 6.182762 0.17397 -2.423245
v -2.058594 0.1369406 5.526833
v -0.4376678 0.4384875 5.617741
v 0.4545441 0.1074809 7.189816
v -0.4376678 0.4384875 5.617741
v 2.523293 0.07538459 4.609877
v 0.4545441 0.1074809 7.189816
v 0.6964798 0.4373522 3.558282
v -0.7967529 0.7315087 3.506376
v 1.58268 0.526617 2.084716
v 3.755455 0.3603828 1.977265
v 2.292404 0.8255655 0.6024847
v 6.403343 0.09581845 -0.3901148
v 2.292404 0.8255655 0.6024847
v 5.30085 0.4089287 -1.816501
v 6.403343 0.09581845 -0.3901148
v 6.182762 0.17397 -2.423245
v 7.238403 0 3.099453
v 6.099152 0.2976885 1.855932
v -2.058594 0.1369406 5.526833
v -4.568497 0.04756747 5.482128
v -3.538696 0.4075286 3.836589
v -1.508713 0.2438976 4.735785
v -3.538696 0.4075286 3.836589
v -2.920311 0.4740124 2.719477
v -1.508713 0.2438976 4.735785
v -0.4376678 0.4384875 5.617741
v -2.058594 0.1369406 5.526833
v -3.538696 0.4075286 3.836589
v -4.568497 0.04756747 5.482128
v -4.107582 0.2390012 3.105907
v -1.508713 0.2438976 4.735785
v -0.7967529 0.7315087 3.506376
v -0.4376678 0.4384875 5.617741
v -2.920311 0.4740124 2.719477
v -3.538696 0.4075286 3.836589
v -4.107582 0.2390012 3.105907
v -0.7967529 0.7315087 3.506376
v -1.508713 0.2438976 4.735785
v -2.920311 0.4740124 2.719477
v -4.107582 0.2390012 3.105907
v -2.956131 0.6538206 1.907793
v -5.195023 0.3605968 1.881464
v -6.079216 0.08787268 2.550693
v -3.106125 0.8673457 0.2331972
v -0.8490448 0.8371603 2.585321
v -0.7967529 0.7315087 3.506376
v -2.920311 0.4740124 2.719477
v -0.7967529 0.7315087 3.506376
v -0.8490448 0.8371603 2.585321
v 0.2378235 0.5133772 1.2375
v -0.7967529 0.7315087 3.506376
v 0.2378235 0.5133772 1.2375
v 0.6964798 0.4373522 3.558282
v 0.9079666 0.4346535 1.198079
v 0.2378235 0.5133772 1.2375
v 0.9724121 0.5407559 -0.0102129
v 0.2512665 0.660028 -0.235877
v 0.9079666 0.4346535 1.198079
v 1.58268 0.526617 2.084716
v 0.6964798 0.4373522 3.558282
v 5.626244 0 5.400206
v 5.626503 0.2030486 3.295604
v 7.238403 0 3.099453
v 6.099152 0.2976885 1.855932
v -0.8490448 0.8371603 2.585321
v -2.920311 0.4740124 2.719477
v -1.473198 1.202545 1.362783
v -2.956131 0.6538206 1.907793
v -1.473198 1.202545 1.362783
v -2.920311 0.4740124 2.719477
v -2.956131 0.6538206 1.907793
v -2.179718 1.154885 0.3069162
v -3.106125 0.8673457 0.2331972
v -3.106125 0.8673457 0.2331972
v -4.107582 0.2390012 3.105907
v -0.8490448 0.8371603 2.585321
v -1.473198 1.202545 1.362783
v -0.8783875 1.161564 0.72159
v 0.2378235 0.5133772 1.2375
v -0.8490448 0.8371603 2.585321
v -0.8783875 1.161564 0.72159
v 0.2512665 0.660028 -0.235877
v 0.9079666 0.4346535 1.198079
v 2.292404 0.8255655 0.6024847
v 1.58268 0.526617 2.084716
v 0.9724121 0.5407559 -0.0102129
v -6.079216 0.08787268 2.550693
v -7.049759 0.05821574 0.5769186
v -6.275734 0.267287 0.06172085
v -5.195023 0.3605968 1.881464
v 3.755455 0.3603828 1.977265
v 6.403343 0.09581845 -0.3901148
v 6.099152 0.2976885 1.855932
v -5.195023 0.3605968 1.881464
v -3.635201 0.4683504 -0.8044033
v -3.106125 0.8673457 0.2331972
v -3.106125 0.8673457 0.2331972
v -2.736816 0.6613069 -1.385127
v -1.08535 0.7654904 -2.142646
v -2.179718 1.154885 0.3069162
v -1.473198 1.202545 1.362783
v -2.179718 1.154885 0.3069162
v -0.8783875 1.161564 0.72159
v -1.08535 0.7654904 -2.142646
v -6.419197 0.1865455 -2.309901
v -6.275734 0.267287 0.06172085
v -7.049759 0.05821574 0.5769186
v -4.800095 0.5062776 -3.06368
v -3.702919 0.795406 -2.164734
v 2.292404 0.8255655 0.6024847
v 0.9724121 0.5407559 -0.0102129
v 1.612732 0.4871197 -2.421672
v 2.286804 0.4803912 -5.04845
v 2.752815 0.6016166 -2.230318
v 3.780121 0.5894825 -3.123719
v 2.292404 0.8255655 0.6024847
v 1.612732 0.4871197 -2.421672
v 0.2882767 0.4726763 -1.830994
v 0.9724121 0.5407559 -0.0102129
v -3.106125 0.8673457 0.2331972
v -2.736816 0.6613069 -1.385127
v -1.08535 0.7654904 -2.142646
v 0.2512665 0.660028 -0.235877
v -0.8783875 1.161564 0.72159
v -1.08535 0.7654904 -2.142646
v 0.2882767 0.4726763 -1.830994
v 0.2512665 0.660028 -0.235877
v 0.9724121 0.5407559 -0.0102129
v 5.30085 0.4089287 -1.816501
v 2.752815 0.6016166 -2.230318
v 3.780121 0.5894825 -3.123719
v -3.635201 0.4683504 -0.8044033
v -3.702919 0.795406 -2.164734
v -2.736816 0.6613069 -1.385127
v -3.702919 0.795406 -2.164734
v -2.735336 0.7085713 -2.65772
v -2.736816 0.6613069 -1.385127
v -2.735336 0.7085713 -2.65772
v -1.08535 0.7654904 -2.142646
v -2.736816 0.6613069 -1.385127
v -0.01182556 0.7028467 -4.426933
v -4.800095 0.5062776 -3.06368
v -3.31424 0.5825167 -4.164246
v -1.08535 0.7654904 -2.142646
v -0.01182556 0.7028467 -4.426933
v 0.2882767 0.4726763 -1.830994
v 1.100616 0.5333067 -3.900736
v 1.612732 0.4871197 -2.421672
v 2.292404 0.8255655 0.6024847
v 2.752815 0.6016166 -2.230318
v 5.30085 0.4089287 -1.816501
v -5.377907 0.3232421 -0.6213808
v -6.419197 0.1865455 -2.309901
v -4.780121 0.5075434 -1.796475
v -3.702919 0.795406 -2.164734
v -5.377907 0.3232421 -0.6213808
v -4.780121 0.5075434 -1.796475
v -3.635201 0.4683504 -0.8044033
v -3.635201 0.4683504 -0.8044033
v -4.780121 0.5075434 -1.796475
v -3.702919 0.795406 -2.164734
v 0.2882767 0.4726763 -1.830994
v -0.01182556 0.7028467 -4.426933
v 1.612732 0.4871197 -2.421672
v 2.286804 0.4803912 -5.04845
v 1.100616 0.5333067 -3.900736
v -2.735336 0.7085713 -2.65772
v -3.702919 0.795406 -2.164734
v -4.800095 0.5062776 -3.06368
v -2.735336 0.7085713 -2.65772
v -2.398949 0.4123376 -4.879669
v -0.01182556 0.7028467 -4.426933
v 0.04071045 0.5857087 -5.130437
v -0.4959488 0.4414065 -5.819574
v -3.623779 0.1400203 -5.387609
v -0.8515091 0.08459111 -6.869341
v -0.4959488 0.4414065 -5.819574
v -0.01182556 0.7028467 -4.426933
v 0.04071045 0.5857087 -5.130437
v 1.100616 0.5333067 -3.900736
v 0.9685669 0.2514302 -5.446123
v -6.419197 0.1865455 -2.309901
v -4.526398 0.1223965 -4.29305
v -4.800095 0.5062776 -3.06368
v -3.31424 0.5825167 -4.164246
v -2.735336 0.7085713 -2.65772
v -3.31424 0.5825167 -4.164246
v -2.398949 0.4123376 -4.879669
v 2.286804 0.4803912 -5.04845
v 1.100616 0.5333067 -3.900736
v 0.9685669 0.2514302 -5.446123
v 1.779228 0.1121894 -6.815736
v 3.780121 0.5894825 -3.123719
v 2.286804 0.4803912 -5.04845
v 3.30471 0.4485565 -4.573652
v 2.803398 0.2164304 -6.234227
v 3.708046 0.2103105 -5.173047
v 4.77002 0.0314101 -5.239471
v 4.86879 0.09078477 -3.902007
v 3.433342 0 -7.55014
v 4.86879 0.09078477 -3.902007
v 5.30085 0.4089287 -1.816501
v 3.780121 0.5894825 -3.123719
v 3.708046 0.2103105 -5.173047
v 3.30471 0.4485565 -4.573652
v 5.30085 0.4089287 -1.816501
v 4.86879 0.09078477 -3.902007
v 6.182762 0.17397 -2.423245
v -3.623779 0.1400203 -5.387609
v -3.31424 0.5825167 -4.164246
v -4.526398 0.1223965 -4.29305
v -3.623779 0.1400203 -5.387609
v -2.398949 0.4123376 -4.879669
v -3.31424 0.5825167 -4.164246
v 0.9685669 0.2514302 -5.446123
v 0.04071045 0.5857087 -5.130437
v -0.4959488 0.4414065 -5.819574
v 3.30471 0.4485565 -4.573652
v 2.286804 0.4803912 -5.04845
v 3.708046 0.2103105 -5.173047
v 1.779228 0.1121894 -6.815736
v -0.4959488 0.4414065 -5.819574
v -0.8515091 0.08459111 -6.869341
v 0.9685669 0.2514302 -5.446123
v -0.4959488 0.4414065 -5.819574
v 1.779228 0.1121894 -6.815736
vt 0.9664243 0.5050909
vt 0.9664244 0.5050908
vt 0.9664244 0.5050909
vt 0.9664244 0.5050909
vt 0.9664243 0.5050908
vt 0.9664244 0.5050908
vt 0.9664244 0.5050908
vt 0.9664244 0.5050909
vt 0.9664244 0.5050909
vt 0.9664244 0.5050909
vt 0.9664244 0.5050909
vt 0.9664244 0.5050908
vt 0.9664244 0.5050909
vt 0.9664243 0.5050909
vt 0.9664243 0.5050908
vt 0.9664244 0.5050908
vt 0.9664244 0.5050908
vt 0.9664243 0.5050908
vt 0.9664244 0.5050909
vt 0.9664243 0.5050908
vt 0.9664244 0.5050908
vt 0.9664243 0.5050908
vt 0.9664243 0.5050909
vt 0.9664244 0.5050909
vt 0.9664243 0.5050909
vt 0.9664243 0.5050909
vt 0.9664243 0.5050908
vt 0.9664244 0.5050909
vt 0.9664243 0.505091
vt 0.9664244 0.505091
vt 0.9664243 0.5050909
vt 0.9664243 0.5050909
vt 0.9664245 0.5050908
vt 0.9664243 0.5050909
vt 0.9664243 0.5050908
vt 0.9664243 0.5050908
vt 0.9664243 0.5050909
vt 0.9664243 0.5050908
vt 0.9664243 0.5050909
vt 0.9664243 0.5050908
vt 0.9664243 0.5050909
vt 0.9664243 0.5050909
vt 0.9664243 0.5050909
vt 0.9664243 0.5050909
vt 0.9664243 0.5050909
vt 0.9664243 0.5050908
vt 0.9664243 0.5050909
vt 0.9664243 0.5050909
vt 0.9664243 0.5050908
vt 0.9664243 0.5050908
vt 0.9664243 0.5050909
vt 0.9664243 0.5050908
vt 0.9664244 0.5050909
vt 0.9664243 0.5050908
vt 0.9664243 0.5050908
vt 0.9664244 0.5050908
vt 0.9664243 0.505091
vt 0.9664244 0.5050908
vt 0.9664243 0.505091
vt 0.9664244 0.5050908
vt 0.9664244 0.5050908
vt 0.9664243 0.505091
vt 0.9664244 0.5050909
vt 0.9664243 0.5050909
vt 0.9664243 0.5050908
vt 0.9664244 0.5050909
vt 0.9664243 0.5050908
vt 0.9664244 0.5050909
vt 0.9664243 0.505091
vt 0.9664243 0.5050908
vt 0.9664243 0.5050908
vt 0.9664244 0.5050909
vt 0.9664243 0.5050909
vt 0.9664244 0.5050908
vt 0.9664244 0.5050908
vt 0.9664243 0.505091
vt 0.9664243 0.5050909
vt 0.9664243 0.505091
vt 0.9664243 0.5050909
vt 0.9664243 0.5050909
vt 0.9664243 0.505091
vt 0.9664244 0.5050908
vt 0.9664243 0.505091
vt 0.9664244 0.5050908
vt 0.9664244 0.5050909
vt 0.9664243 0.5050909
vt 0.9664244 0.5050909
vt 0.9664243 0.505091
vt 0.9664243 0.5050909
vt 0.9664243 0.505091
vt 0.9664244 0.5050909
vt 0.9664244 0.5050909
vt 0.9664243 0.5050909
vt 0.9664243 0.5050909
vt 0.9664244 0.5050909
vt 0.9664244 0.5050909
vt 0.9664244 0.505091
vt 0.9664243 0.5050908
vt 0.9664243 0.5050909
vt 0.9664243 0.5050909
vt 0.9664244 0.5050909
vt 0.9664243 0.5050909
vt 0.9664244 0.5050909
vt 0.9664243 0.5050909
vt 0.9664243 0.5050908
vt 0.9664244 0.5050909
vt 0.9664243 0.5050908
vt 0.9664243 0.505091
vt 0.9664244 0.5050908
vt 0.9664243 0.5050908
vt 0.9664243 0.5050908
vt 0.9664243 0.5050909
vt 0.9664244 0.5050908
vt 0.9664243 0.5050909
vt 0.9664243 0.505091
vt 0.9664244 0.5050909
vt 0.9664243 0.5050908
vt 0.9664244 0.5050909
vt 0.9664243 0.5050909
vt 0.9664243 0.5050909
vt 0.9664243 0.5050909
vt 0.9664244 0.5050908
vt 0.9664244 0.5050909
vt 0.9664244 0.5050908
vt 0.9664243 0.5050909
vt 0.9664244 0.5050909
vt 0.9664243 0.5050908
vt 0.9664243 0.5050909
vt 0.9664243 0.5050909
vt 0.9664244 0.5050909
vt 0.9664243 0.5050909
vt 0.9664244 0.5050908
vt 0.9664244 0.5050908
vt 0.9664243 0.5050908
vt 0.9664243 0.5050909
vt 0.9664244 0.5050908
vt 0.9664243 0.5050909
vt 0.9664244 0.5050908
vt 0.9664244 0.5050909
vt 0.9664243 0.5050909
vt 0.9664243 0.5050908
vt 0.9664243 0.5050908
vt 0.9664244 0.5050908
vt 0.9664244 0.5050909
vt 0.9664244 0.505091
vt 0.9664243 0.5050908
vt 0.9664243 0.5050908
vt 0.9664243 0.5050909
vt 0.9664244 0.505091
vt 0.9664243 0.5050909
vt 0.9664243 0.5050909
vt 0.9664243 0.5050909
vt 0.9664243 0.5050909
vt 0.9664243 0.505091
vt 0.9664243 0.5050908
vt 0.9664244 0.5050908
vt 0.9664243 0.5050908
vt 0.9664244 0.5050908
vt 0.9664243 0.505091
vt 0.9664243 0.5050908
vt 0.9664244 0.5050909
vt 0.9664244 0.5050908
vt 0.9664243 0.5050909
vt 0.9664243 0.505091
vt 0.9664244 0.5050909
vt 0.9664243 0.5050908
vt 0.9664243 0.5050908
vt 0.9664243 0.5050908
vt 0.9664243 0.5050909
vt 0.9664243 0.5050909
vt 0.9664244 0.5050909
vt 0.9664243 0.5050908
vt 0.9664243 0.5050909
vt 0.9664243 0.5050908
vt 0.9664243 0.5050909
vt 0.9664243 0.5050909
vt 0.9664243 0.505091
vt 0.9664243 0.5050909
vt 0.9664244 0.5050908
vt 0.9664243 0.505091
vt 0.9664243 0.5050909
vt 0.9664243 0.5050909
vt 0.9664243 0.5050908
vt 0.9664243 0.505091
vt 0.9664243 0.5050909
vt 0.9664243 0.5050909
vt 0.9664243 0.5050909
vt 0.9664243 0.505091
vt 0.9664243 0.5050909
vt 0.9664243 0.505091
vt 0.9664243 0.5050909
vt 0.9664243 0.5050909
vt 0.9664243 0.5050909
vt 0.9664243 0.505091
vt 0.9664243 0.5050909
vt 0.9664245 0.5050909
vt 0.9664243 0.5050909
vt 0.9664245 0.5050909
vt 0.9664243 0.505091
vt 0.9664245 0.5050909
vt 0.9664243 0.5050909
vt 0.9664243 0.5050908
vt 0.9664243 0.5050908
vt 0.9664244 0.5050909
vt 0.9664243 0.5050909
vt 0.9664243 0.505091
vt 0.9664243 0.505091
vt 0.9664243 0.5050908
vt 0.9664243 0.5050909
vt 0.9664243 0.505091
vt 0.9664243 0.505091
vt 0.9664243 0.5050909
vt 0.9664243 0.5050909
vt 0.9664243 0.5050909
vt 0.9664243 0.5050909
vt 0.9664243 0.505091
vt 0.9664243 0.5050909
vt 0.9664245 0.5050909
vt 0.9664243 0.5050908
vt 0.9664243 0.5050908
vt 0.9664243 0.5050908
vt 0.9664243 0.5050909
vt 0.9664243 0.505091
vt 0.9664243 0.5050909
vt 0.9664243 0.5050909
vt 0.9664243 0.505091
vt 0.9664245 0.5050909
vt 0.9664245 0.505091
vt 0.9664243 0.505091
vt 0.9664243 0.5050908
vt 0.9664243 0.5050908
vt 0.9664243 0.505091
vt 0.9664245 0.5050909
vt 0.9664245 0.505091
vt 0.9664243 0.5050908
vt 0.9664243 0.5050909
vt 0.9664243 0.5050908
vt 0.9664245 0.5050908
vt 0.9664243 0.5050909
vt 0.9664245 0.5050909
vt 0.9664243 0.5050909
vt 0.9664245 0.5050909
vt 0.9664243 0.505091
vt 0.9664243 0.5050908
vt 0.9664243 0.5050908
vt 0.9664243 0.5050909
vt 0.9664243 0.5050908
vt 0.9664243 0.5050909
vt 0.9664243 0.5050908
vt 0.9664243 0.5050909
vt 0.9664243 0.5050909
vt 0.9664243 0.5050909
vt 0.9664243 0.5050908
vt 0.9664243 0.5050908
vt 0.9664243 0.5050909
vt 0.9664243 0.5050908
vt 0.9664243 0.505091
vt 0.9664243 0.5050909
vt 0.9664243 0.5050909
vt 0.9664243 0.5050909
vt 0.9664243 0.505091
vt 0.9664243 0.5050908
vt 0.9664243 0.5050908
vt 0.9664243 0.5050908
vt 0.9664245 0.5050909
vt 0.9664245 0.5050908
vt 0.9664243 0.5050908
vt 0.9664243 0.505091
vt 0.9664245 0.5050909
vt 0.9664243 0.5050909
vt 0.9664245 0.505091
vt 0.9664243 0.505091
vt 0.9664243 0.5050909
vt 0.9664243 0.5050908
vt 0.9664243 0.5050909
vt 0.9664243 0.5050908
vt 0.9664243 0.505091
vt 0.9664243 0.5050908
vt 0.9664243 0.5050909
vt 0.9664243 0.505091
vt 0.9664243 0.5050908
vn -0.06253535 0.9965821 0.05397601
vn -0.05408841 0.9967989 0.05887643
vn -0.04021905 0.9976195 0.05601659
vn -0.02247071 0.9963827 0.08195484
vn -0.06680477 0.996942 0.04054291
vn -0.02027725 0.9948332 0.09947658
vn 0.01494441 0.9938376 0.1098344
vn 0.02459645 0.9918668 0.1248808
vn 0.04991154 0.9923205 0.1131758
vn 0.02153581 0.9970735 0.07335249
vn -0.06387007 0.9977844 0.01862458
vn -0.0843731 0.9963881 0.009586567
vn -0.09359795 0.9936841 0.06189829
vn -0.120562 0.9926751 -0.007812168
vn -0.1438352 0.9896012 -0.001005953
vn 0.005227588 0.9993972 0.03432015
vn -0.003008442 0.9989337 0.04606916
vn 0.002475258 0.9970759 0.0763782
vn 0.02218291 0.9963356 0.08260372
vn 0.01053056 0.995683 0.09222005
vn -0.02241215 0.9933213 0.1131836
vn 0.02330439 0.9960402 0.0857956
vn 0.03057272 0.9966728 0.07555556
vn -0.02653147 0.9823021 0.1854149
vn -0.02653147 0.9823021 0.1854149
vn -0.1618189 0.9859736 -0.04087383
vn -0.1089086 0.9933569 -0.03716251
vn -0.07682312 0.9968576 -0.01931578
vn -0.07917945 0.9967353 -0.01579131
vn -0.07675825 0.9970066 -0.009271457
vn -0.08388749 0.9964369 -0.008742017
vn -0.06302042 0.9949812 -0.077723
vn -0.07469701 0.9944985 -0.07343768
vn -0.04324049 0.9973409 -0.05866358
vn -0.06402117 0.994809 -0.07909732
vn -0.0226612 0.9964059 -0.08161987
vn -0.008558884 0.9957401 -0.09180614
vn 0.008388175 0.9860554 -0.1662058
vn 0.01857174 0.9969428 -0.07589505
vn 0.01929029 0.9776757 -0.2092322
vn 0.00639184 0.9822744 -0.1873395
vn 0.00292925 0.9894917 -0.1445597
vn 0 1 0
vn -0.0294757 0.9991258 -0.02964278
vn 0.02672688 0.9992939 -0.0264091
vn 0.0174413 0.9990264 -0.04052354
vn 0.02978314 0.9985225 -0.04544976
vn 0.07584713 0.9946486 -0.07015266
vn 0.04574218 0.9970739 -0.06124744
vn -0.01454187 0.9989574 -0.04327329
vn 0.1006261 0.9948411 -0.01286684
vn 0.07584713 0.9946486 -0.07015266
vn 0.07894352 0.996843 0.008480525
vn 0.09042673 0.9957436 0.01782739
vn 0.10189 0.9944245 0.02717032
vn -0.1906888 0.933163 0.3047043
vn -0.1906888 0.933163 0.3047043
vn -0.1906888 0.933163 0.3047043
vn 0.1656877 0.9810761 0.100186
vn 0.1435382 0.9816335 0.1256676
vn 0.1596429 0.9803576 0.1158148
vn 0.1523122 0.982694 0.1054202
vn 0.1887801 0.9765581 0.1034232
vn 0.1193571 0.9841183 0.1313965
vn 0.1735724 0.9741045 0.1448896
vn 0.1735724 0.9741045 0.1448896
vn 0.1954961 0.9763956 0.09183038
vn 0.1954961 0.9763956 0.09183038
vn 0.2268462 0.9731776 0.03828938
vn 0.280866 0.9595714 -0.01835798
vn 0.2629247 0.9647784 0.008559568
vn 0.2985057 0.9533343 -0.04525581
vn 0.2985057 0.9533343 -0.04525581
vn -0.01133408 0.9857671 0.1677346
vn -0.0383235 0.9809209 0.1905928
vn -0.01133408 0.9857671 0.1677346
vn 0.02953718 0.9930385 0.1140263
vn 0.02953718 0.9930385 0.1140263
vn 0.04337078 0.9955837 0.08325936
vn -0.1831951 0.9830608 0.00557456
vn -0.1831951 0.9830608 0.00557456
vn -0.1831951 0.9830608 0.00557456
vn -0.3047233 0.9522781 0.01761064
vn -0.3047233 0.9522781 0.01761064
vn -0.3047233 0.9522781 0.01761064
vn -0.3199081 0.9295265 0.1834099
vn -0.3199081 0.9295265 0.1834099
vn -0.3199081 0.9295265 0.1834099
vn -0.212448 0.9753559 -0.05955477
vn -0.212448 0.9753559 -0.05955477
vn -0.212448 0.9753559 -0.05955477
vn -0.2085805 0.944495 0.2538175
vn -0.2085805 0.944495 0.2538175
vn -0.1988075 0.9522924 0.2315484
vn -0.1165494 0.9716595 0.2056551
vn -0.1201053 0.9681311 0.2197654
vn -0.114761 0.9733427 0.1985799
vn -0.1349106 0.9670612 0.2158513
vn -0.09452596 0.9789002 0.1811609
vn -0.1637651 0.9789771 0.1215934
vn -0.1637651 0.9789771 0.1215934
vn -0.1637651 0.9789771 0.1215934
vn 0.3789544 0.9215772 0.08419688
vn 0.3789544 0.9215772 0.08419688
vn 0.3789544 0.9215772 0.08419688
vn 0.193479 0.9810855 -0.006098495
vn 0.1554646 0.9878401 0.001635568
vn 0.1554646 0.9878401 0.001635568
vn 0.1194963 0.9915054 0.0513586
vn 0.1412999 0.9887508 0.04905396
vn 0.1268001 0.9872411 0.09631643
vn 0.1320236 0.9862531 0.09937007
vn -0.1197213 0.9927367 -0.01186277
vn -0.1197213 0.9927367 -0.01186277
vn -0.1197213 0.9927367 -0.01186277
vn 0.1358043 0.9861551 0.09515937
vn 0.1365899 0.9853119 0.102488
vn 0.1365899 0.9853119 0.102488
vn 0.1373679 0.9844144 0.1098109
vn -0.1399287 0.9268264 0.3484434
vn -0.1399287 0.9268264 0.3484434
vn -0.1399287 0.9268264 0.3484434
vn -0.2879427 0.9417936 0.1735332
vn -0.2798725 0.9417225 0.1866281
vn -0.2376901 0.9420167 0.2368714
vn -0.247588 0.9575455 0.1476712
vn -0.2983696 0.9425415 0.1503028
vn -0.3038686 0.9412678 0.1472372
vn -0.2017552 0.9691396 0.1416448
vn -0.2017552 0.9691396 0.1416448
vn 0.2413298 0.9567029 0.1627254
vn 0.2413298 0.9567029 0.1627254
vn 0.2413298 0.9567029 0.1627254
vn 0.4567735 0.8815465 0.1193057
vn 0.445139 0.8833548 0.1467495
vn 0.4567735 0.8815465 0.1193057
vn 0.4680005 0.8789519 0.0917554
vn -0.2403053 0.9676749 0.07654206
vn -0.2403053 0.9676749 0.07654206
vn -0.2384006 0.9677799 0.08103839
vn -0.2422043 0.9675468 0.0720439
vn -0.218913 0.9718278 0.08733734
vn -0.2057165 0.9747805 0.08650824
vn -0.218913 0.9718278 0.08733734
vn -0.2320693 0.9686967 0.0881504
vn 0.02216433 0.9960038 -0.08651693
vn 0.02216433 0.9960038 -0.08651693
vn 0.02216433 0.9960038 -0.08651693
vn -0.3574958 0.9181671 -0.1707806
vn -0.3403072 0.922675 -0.1812785
vn -0.3403072 0.922675 -0.1812785
vn -0.2949815 0.9275994 -0.2292273
vn -0.3229736 0.9267898 -0.1916993
vn -0.2663427 0.9263753 -0.2662527
vn -0.2663427 0.9263753 -0.2662527
vn 0.01174132 0.9985293 -0.05292831
vn 0.0256114 0.9950132 -0.0963988
vn 0.0256114 0.9950132 -0.0963988
vn 0.03942783 0.9894132 -0.1396674
vn -0.2313808 0.9728441 -0.006100527
vn -0.2708769 0.9624746 -0.01638152
vn -0.2708769 0.9624746 -0.01638152
vn -0.2158987 0.9751284 -0.05012383
vn -0.2158987 0.9751284 -0.05012383
vn -0.17948 0.9813046 -0.06948411
vn -0.17948 0.9813046 -0.06948411
vn -0.1375945 0.9893098 -0.04831143
vn -0.05891727 0.9977115 -0.03317512
vn -0.06737374 0.9963267 -0.05285664
vn -0.02235647 0.9989783 -0.03927537
vn -0.08418199 0.9921831 -0.09211958
vn -0.03689989 0.9987388 -0.03404594
vn -0.02360592 0.9993151 -0.02849513
vn -0.02360592 0.9993151 -0.02849513
vn -0.132832 0.9789517 -0.1549492
vn -0.132832 0.9789517 -0.1549492
vn -0.132832 0.9789517 -0.1549492
vn 0.2609756 0.9565474 -0.1300339
vn 0.2908729 0.944667 -0.1516486
vn 0.2609756 0.9565474 -0.1300339
vn 0.2131644 0.9709069 -0.1090904
vn 0.2131644 0.9709069 -0.1090904
vn 0.1955737 0.9745092 -0.1099216
vn 0.0653161 0.9959627 0.06157867
vn 0.0653161 0.9959627 0.06157867
vn 0.0653161 0.9959627 0.06157867
vn -0.05580147 0.9701439 0.2360233
vn -0.05580147 0.9701439 0.2360233
vn -0.05580147 0.9701439 0.2360233
vn 0.1080202 0.993459 0.03702294
vn 0.1080202 0.993459 0.03702294
vn 0.1080202 0.993459 0.03702294
vn -0.05216629 0.9984961 -0.0168607
vn -0.03432115 0.9994107 -0.0004973827
vn -0.04599365 0.9982555 0.03702196
vn -0.02259561 0.9990216 -0.03801595
vn -0.08773722 0.9949114 -0.04953237
vn -0.08773722 0.9949114 -0.04953237
vn 0.1940639 0.9788755 0.0643579
vn 0.178411 0.9837629 0.01949606
vn 0.1940639 0.9788755 0.0643579
vn 0.162351 0.9864058 -0.02541025
vn 0.162351 0.9864058 -0.02541025
vn 0.0856883 0.9942209 -0.06467193
vn 0.0856883 0.9942209 -0.06467193
vn 0.0856883 0.9942209 -0.06467193
vn -0.2064936 0.9772587 0.04822679
vn -0.2060882 0.9777629 0.03882609
vn -0.2147805 0.973626 0.07695331
vn -0.2228726 0.9691101 0.10561
vn -0.0698827 0.9903386 0.119774
vn -0.0698827 0.9903386 0.119774
vn -0.0698827 0.9903386 0.119774
vn -0.173844 0.9554869 0.2383757
vn -0.173844 0.9554869 0.2383757
vn -0.173844 0.9554869 0.2383757
vn 0.02712461 0.9959967 0.08517487
vn 0.02712461 0.9959967 0.08517487
vn 0.04157247 0.9979563 0.04852608
vn 0.01681798 0.999764 -0.01375182
vn 0.05595566 0.9983636 0.0118018
vn -0.04412815 0.9654906 -0.2566722
vn -0.04412815 0.9654906 -0.2566722
vn -0.04412815 0.9654906 -0.2566722
vn -0.09013467 0.9911423 -0.09753351
vn -0.09700952 0.9807921 -0.1692216
vn -0.08978069 0.9834063 -0.1576437
vn -0.08590271 0.9841182 -0.1553455
vn -0.1042265 0.9779858 -0.1807778
vn -0.1270144 0.9598833 -0.2499829
vn -0.1302338 0.9513453 -0.2792512
vn -0.1270144 0.9598833 -0.2499829
vn 0.2156173 0.9656982 -0.1446933
vn 0.2444965 0.9546214 -0.1700569
vn 0.2444965 0.9546214 -0.1700569
vn 0.2729846 0.9420172 -0.1951485
vn -0.3349222 0.8756322 -0.3479877
vn -0.3179677 0.8825639 -0.3463776
vn -0.3179677 0.8825639 -0.3463776
vn -0.3009056 0.8891973 -0.3446504
vn 0.09164851 0.9887812 -0.1179508
vn 0.09164851 0.9887812 -0.1179508
vn 0.09164851 0.9887812 -0.1179508
vn -0.1189517 0.9784098 -0.1690111
vn -0.1191846 0.9785051 -0.168294
vn -0.1189517 0.9784098 -0.1690111
vn -0.1187187 0.978314 -0.1697281
vn 0.08936524 0.9880811 -0.1253379
vn 0.1312061 0.9823062 -0.1336392
vn 0.08936524 0.9880811 -0.1253379
vn 0.1568465 0.9801122 -0.1215698
vn 0.164197 0.9804305 -0.1086062
vn 0.153431 0.9837803 -0.09292596
vn 0.1624708 0.9851382 -0.05573199
vn 0.1406485 0.9855144 -0.09475902
vn 0.2913129 0.9369788 -0.1928926
vn 0.2848618 0.9370511 -0.2019627
vn 0.2883723 0.9384838 -0.1899726
vn 0.2901106 0.9391445 -0.1839662
vn 0.2824748 0.9414388 -0.1841221
vn 0.1377191 0.9744931 -0.1771906
vn 0.1377191 0.9744931 -0.1771906
vn 0.1377191 0.9744931 -0.1771906
vn -0.3203756 0.9138484 -0.2494807
vn -0.3203756 0.9138484 -0.2494807
vn -0.3203756 0.9138484 -0.2494807
vn -0.1033073 0.9480688 -0.3008208
vn -0.0762568 0.9436536 -0.3220291
vn -0.0762568 0.9436536 -0.3220291
vn 0.2083869 0.9120238 -0.3532528
vn 0.2083869 0.9120238 -0.3532528
vn 0.2083869 0.9120238 -0.3532528
vn 0.1565801 0.949465 -0.2720274
vn 0.1565801 0.949465 -0.2720274
vn 0.1565801 0.949465 -0.2720274
vn -0.003399768 0.9471465 -0.3207833
vn -0.003399768 0.9471465 -0.3207833
vn -0.003399768 0.9471465 -0.3207833
vn 0.1339823 0.9907522 -0.02142122
vn 0.1339823 0.9907522 -0.02142122
vn 0.1339823 0.9907522 -0.02142122
g SM_Env_GroundMound_01_0
f 3/3/3 2/2/2 1/1/1
f 3/3/3 4/4/4 2/2/2
f 5/5/5 1/1/1 2/2/2
f 4/4/4 6/6/6 2/2/2
f 4/4/4 7/7/7 6/6/6
f 8/8/8 7/7/7 4/4/4
f 7/7/7 8/8/8 9/9/9
f 10/10/10 7/7/7 9/9/9
f 5/5/5 11/11/11 1/1/1
f 11/11/11 5/5/5 12/12/12
f 13/13/13 5/5/5 2/2/2
f 11/11/11 12/12/12 14/14/14
f 12/12/12 15/15/15 14/14/14
f 17/17/17 10/10/10 16/16/16
f 10/10/10 18/18/18 16/16/16
f 10/10/10 19/19/19 18/18/18
f 20/20/20 18/18/18 19/19/19
f 18/18/18 20/20/20 21/21/21
f 22/22/22 20/20/20 19/19/19
f 20/20/20 22/22/22 23/23/23
f 25/25/25 21/21/21 24/24/24
f 27/27/27 26/26/26 14/14/14
f 29/29/29 27/27/27 28/28/28
f 29/29/29 28/28/28 30/30/30
f 30/30/30 31/31/31 29/29/29
f 33/33/33 32/32/32 27/27/27
f 33/33/33 34/34/34 32/32/32
f 34/34/34 33/33/33 35/35/35
f 35/35/35 36/36/36 34/34/34
f 36/36/36 37/37/37 34/34/34
f 37/37/37 36/36/36 38/38/38
f 38/38/38 39/39/39 37/37/37
f 41/41/41 38/38/38 40/40/40
f 42/42/42 38/38/38 41/41/41
f 44/44/44 34/34/34 43/43/43
f 46/46/46 45/45/45 39/39/39
f 46/46/46 47/47/47 45/45/45
f 46/46/46 49/49/49 48/48/48
f 50/50/50 49/49/49 46/46/46
f 52/52/52 51/51/51 48/48/48
f 51/51/51 54/54/54 53/53/53
f 51/51/51 55/55/55 54/54/54
f 58/58/58 57/57/57 56/56/56
f 61/61/61 60/60/60 59/59/59
f 62/62/62 59/59/59 60/60/60
f 59/59/59 62/62/62 63/63/63
f 64/64/64 62/62/62 60/60/60
f 66/66/66 60/60/60 65/65/65
f 66/66/66 65/65/65 67/67/67
f 67/67/67 69/69/69 68/68/68
f 71/71/71 69/69/69 70/70/70
f 70/70/70 73/73/73 72/72/72
f 76/76/76 75/75/75 74/74/74
f 77/77/77 76/76/76 74/74/74
f 77/77/77 79/79/79 78/78/78
f 82/82/82 81/81/81 80/80/80
f 85/85/85 84/84/84 83/83/83
f 88/88/88 87/87/87 86/86/86
f 91/91/91 90/90/90 89/89/89
f 94/94/94 93/93/93 92/92/92
f 94/94/94 96/96/96 95/95/95
f 98/98/98 95/95/95 97/97/97
f 99/99/99 97/97/97 95/95/95
f 102/102/102 101/101/101 100/100/100
f 105/105/105 104/104/104 103/103/103
f 108/108/108 107/107/107 106/106/106
f 110/110/110 108/108/108 109/109/109
f 111/111/111 110/110/110 109/109/109
f 110/110/110 111/111/111 112/112/112
f 115/115/115 114/114/114 113/113/113
f 118/118/118 117/117/117 116/116/116
f 119/119/119 117/117/117 118/118/118
f 122/122/122 121/121/121 120/120/120
f 125/125/125 124/124/124 123/123/123
f 127/127/127 126/126/126 124/124/124
f 123/123/123 127/127/127 128/128/128
f 130/130/130 126/126/126 129/129/129
f 133/133/133 132/132/132 131/131/131
f 136/136/136 135/135/135 134/134/134
f 136/136/136 134/134/134 137/137/137
f 140/140/140 139/139/139 138/138/138
f 139/139/139 141/141/141 138/138/138
f 144/144/144 143/143/143 142/142/142
f 145/145/145 144/144/144 142/142/142
f 148/148/148 147/147/147 146/146/146
f 151/151/151 150/150/150 149/149/149
f 153/153/153 150/150/150 152/152/152
f 155/155/155 154/154/154 152/152/152
f 158/158/158 157/157/157 156/156/156
f 158/158/158 159/159/159 157/157/157
f 162/162/162 161/161/161 160/160/160
f 164/164/164 163/163/163 160/160/160
f 167/167/167 166/166/166 165/165/165
f 169/169/169 168/168/168 167/167/167
f 170/170/170 168/168/168 169/169/169
f 169/169/169 172/172/172 171/171/171
f 174/174/174 172/172/172 173/173/173
f 177/177/177 176/176/176 175/175/175
f 180/180/180 179/179/179 178/178/178
f 181/181/181 180/180/180 178/178/178
f 183/183/183 181/181/181 182/182/182
f 186/186/186 185/185/185 184/184/184
f 189/189/189 188/188/188 187/187/187
f 192/192/192 191/191/191 190/190/190
f 195/195/195 194/194/194 193/193/193
f 194/194/194 196/196/196 193/193/193
f 193/193/193 198/198/198 197/197/197
f 201/201/201 200/200/200 199/199/199
f 203/203/203 202/202/202 200/200/200
f 206/206/206 205/205/205 204/204/204
f 209/209/209 208/208/208 207/207/207
f 209/209/209 210/210/210 208/208/208
f 213/213/213 212/212/212 211/211/211
f 216/216/216 215/215/215 214/214/214
f 219/219/219 218/218/218 217/217/217
f 221/221/221 219/219/219 220/220/220
f 224/224/224 223/223/223 222/222/222
f 227/227/227 226/226/226 225/225/225
f 226/226/226 227/227/227 228/228/228
f 229/229/229 226/226/226 228/228/228
f 229/229/229 230/230/230 226/226/226
f 232/232/232 231/231/231 230/230/230
f 235/235/235 234/234/234 233/233/233
f 236/236/236 234/234/234 235/235/235
f 239/239/239 238/238/238 237/237/237
f 239/239/239 240/240/240 238/238/238
f 243/243/243 242/242/242 241/241/241
f 246/246/246 245/245/245 244/244/244
f 244/244/244 247/247/247 246/246/246
f 250/250/250 249/249/249 248/248/248
f 252/252/252 251/251/251 249/249/249
f 252/252/252 253/253/253 251/251/251
f 254/254/254 253/253/253 252/252/252
f 253/253/253 255/255/255 251/251/251
f 258/258/258 257/257/257 256/256/256
f 258/258/258 256/256/256 259/259/259
f 259/259/259 260/260/260 258/258/258
f 263/263/263 262/262/262 261/261/261
f 266/266/266 265/265/265 264/264/264
f 269/269/269 268/268/268 267/267/267
f 272/272/272 271/271/271 270/270/270
f 275/275/275 274/274/274 273/273/273
f 278/278/278 277/277/277 276/276/276
f 281/281/281 280/280/280 279/279/279
