g SM_Env_Rock_Large_03
v 1.740845 5.415962 1.710739
v 1.726135 3.905372 1.566864
v 2.579346 3.94331 2.303253
v 2.701141 2.745407 2.416061
v 1.814606 2.705986 1.650955
v 2.452026 0.09247868 2.54985
v 3.266388 0.1203868 3.259201
v 3.595154 2.039315 3.349442
v 1.814606 2.705986 1.650955
v 1.636261 0.06689923 1.955734
v 2.701141 2.745407 2.416061
v 3.059753 3.334123 0.4441376
v 1.726135 3.905372 1.566864
v 2.848022 3.349624 0.07121277
v 1.515442 3.713592 0.349472
v 1.740845 5.415962 1.710739
v 0.3527222 6.667288 0.174942
v 1.726135 3.905372 1.566864
v 1.515442 3.713592 0.349472
v 2.324097 2.687457 -0.8975525
v 2.848022 3.349624 0.07121277
v 1.726135 3.905372 1.566864
v 0.3527222 6.667288 0.174942
v 1.515442 3.713592 0.349472
v 2.324097 2.687457 -0.8975525
v 1.380249 3.052357 -1.339264
v 2.226837 2.547037 -2.221893
v 1.135254 3.01079 -1.892426
v 2.226837 2.547037 -2.221893
v 1.380249 3.052357 -1.339264
v 1.085571 2.477518 -3.568115
v 1.475494 3.156968 -0.9892883
v 2.324097 2.687457 -0.8975525
v 1.515442 3.713592 0.349472
v 1.380249 3.052357 -1.339264
v 1.515442 3.713592 0.349472
v 0.3527222 6.667288 0.174942
v 0.6445313 5.08767 -0.4219055
v 0.395874 6.070385 -1.159744
v 1.475494 3.156968 -0.9892883
v 0.6445313 5.08767 -0.4219055
v 0.3527222 6.667288 0.174942
v 0.395874 6.070385 -1.159744
v 0.6445313 5.08767 -0.4219055
v 1.515442 3.713592 0.349472
v 0.6445313 5.08767 -0.4219055
v 1.475494 3.156968 -0.9892883
v 0.2894592 5.274356 -2.139816
v 1.380249 3.052357 -1.339264
v 1.475494 3.156968 -0.9892883
v 1.135254 3.01079 -1.892426
v 0.395874 6.070385 -1.159744
v 1.135254 3.01079 -1.892426
v 0.2894592 5.274356 -2.139816
v 0.5545654 4.800443 -2.432281
v 1.085571 2.477518 -3.568115
v 1.135254 3.01079 -1.892426
v 1.015961 3.397844 -2.762115
v 0.9274292 4.128563 -3.289764
v 0.9274292 4.128563 -3.289764
v 0.6958618 4.299191 -4.525681
v 1.135254 3.01079 -1.892426
v 0.5545654 4.800443 -2.432281
v 1.015961 3.397844 -2.762115
v 0.5545654 4.800443 -2.432281
v 0.2894592 5.274356 -2.139816
v 0.9274292 4.128563 -3.289764
v 0.5545654 4.800443 -2.432281
v 0.9274292 4.128563 -3.289764
v 1.015961 3.397844 -2.762115
v -0.8562927 4.935955 -3.064758
v 0.2894592 5.274356 -2.139816
v -0.7783813 5.769216 -2.331467
v 0.2894592 5.274356 -2.139816
v 0.395874 6.070385 -1.159744
v -0.7783813 5.769216 -2.331467
v 0.395874 6.070385 -1.159744
v -1.355042 6.175129 -1.137329
v -0.7783813 5.769216 -2.331467
v 0.2323608 6.420034 -0.6130066
v -0.1262207 6.569257 -0.1122131
v 0.3527222 6.667288 0.174942
v 0.65271 7.310971 2.222672
v -1.412537 6.484578 0.04722595
v -1.638855 6.195588 -0.9442749
v -1.355042 6.175129 -1.137329
v -1.550446 6.421074 -0.1403046
v -1.286011 6.815667 1.294937
v -1.225586 7.135665 2.331406
v -0.6891479 7.411805 3.171707
v -0.2002563 7.559968 3.537018
v 1.168823 7.520158 3.082352
v 0.6958618 4.299191 -4.525681
v 0.2894592 5.274356 -2.139816
v -0.8562927 4.935955 -3.064758
v 0.124939 3.985537 -5.454941
v 0.2894592 5.274356 -2.139816
v 0.6958618 4.299191 -4.525681
v 0.9274292 4.128563 -3.289764
v 0.3527222 6.667288 0.174942
v 0.2323608 6.420034 -0.6130066
v 0.395874 6.070385 -1.159744
v 0.395874 6.070385 -1.159744
v 0.2323608 6.420034 -0.6130066
v -1.355042 6.175129 -1.137329
v -1.355042 6.175129 -1.137329
v -0.8562927 4.935955 -3.064758
v -0.7783813 5.769216 -2.331467
v -1.355042 6.175129 -1.137329
v -2.002747 5.04739 -2.101013
v -1.535706 5.428549 -1.902252
v -1.782135 6.161873 -0.9375
v -2.342102 4.245474 -4.317734
v -0.8562927 4.935955 -3.064758
v -1.535706 5.428549 -1.902252
v 0.124939 3.985537 -5.454941
v -0.8562927 4.935955 -3.064758
v -1.355042 6.175129 -1.137329
v -1.535706 5.428549 -1.902252
v -2.002747 5.04739 -2.101013
v -2.342102 4.245474 -4.317734
v -1.535706 5.428549 -1.902252
v -1.355042 6.175129 -1.137329
v -1.638855 6.195588 -0.9442749
v -1.782135 6.161873 -0.9375
v -1.638855 6.195588 -0.9442749
v -1.550446 6.421074 -0.1403046
v -1.782135 6.161873 -0.9375
v -2.853394 4.075171 -2.613052
v -2.342102 4.245474 -4.317734
v -2.002747 5.04739 -2.101013
v -1.602722 5.733845 -0.05828857
v -1.782135 6.161873 -0.9375
v -1.550446 6.421074 -0.1403046
v -1.550049 5.664319 0.1152496
v -1.360596 6.176291 0.4955444
v -1.602722 5.733845 -0.05828857
v -1.693909 4.837632 0.04675293
v -1.360596 6.176291 0.4955444
v -1.412537 6.484578 0.04722595
v -1.286011 6.815667 1.294937
v -1.360596 6.176291 0.4955444
v -1.550446 6.421074 -0.1403046
v -1.412537 6.484578 0.04722595
v -2.058594 5.166502 -0.5079193
v -2.853394 4.075171 -2.613052
v -1.999237 6.010757 -0.6309967
v -2.002747 5.04739 -2.101013
v -1.782135 6.161873 -0.9375
v -1.999237 6.010757 -0.6309967
v -1.999237 6.010757 -0.6309967
v -1.782135 6.161873 -0.9375
v -1.602722 5.733845 -0.05828857
v -2.058594 5.166502 -0.5079193
v -1.999237 6.010757 -0.6309967
v -1.602722 5.733845 -0.05828857
v -1.922546 4.850446 -0.1669769
v -2.16806 4.825219 -0.4407654
v -2.002747 5.04739 -2.101013
v -1.999237 6.010757 -0.6309967
v -2.853394 4.075171 -2.613052
v -2.058594 5.166502 -0.5079193
v -1.602722 5.733845 -0.05828857
v -2.16806 4.825219 -0.4407654
v -2.058594 5.166502 -0.5079193
v -2.16806 4.825219 -0.4407654
v -2.853394 4.075171 -2.613052
v -1.75354 4.869394 0.3286285
v -1.693909 4.837632 0.04675293
v -1.550049 5.664319 0.1152496
v -1.922546 4.850446 -0.1669769
v -1.992096 4.666553 0.1455536
v -2.16806 4.825219 -0.4407654
v -1.403534 6.100737 0.796524
v -1.527802 5.550954 0.6807404
v -1.360596 6.176291 0.4955444
v -1.286011 6.815667 1.294937
v -1.527802 5.550954 0.6807404
v -1.75354 4.869394 0.3286285
v -1.360596 6.176291 0.4955444
v -1.550049 5.664319 0.1152496
v -1.527802 5.550954 0.6807404
v -1.403534 6.100737 0.796524
v -1.447845 5.372849 0.9515839
v -1.75354 4.869394 0.3286285
v -1.574341 4.712666 2.249054
v -1.447845 5.372849 0.9515839
v -1.403534 6.100737 0.796524
v -1.693909 4.837632 0.04675293
v -1.75354 4.869394 0.3286285
v -1.830933 4.783983 0.1729279
v -1.992096 4.666553 0.1455536
v -1.602722 5.733845 -0.05828857
v -1.693909 4.837632 0.04675293
v -1.992096 4.666553 0.1455536
v -1.922546 4.850446 -0.1669769
v -1.602722 5.733845 -0.05828857
v -1.992096 4.666553 0.1455536
v -1.900299 4.111541 1.824417
v -1.75354 4.869394 0.3286285
v -1.447845 5.372849 0.9515839
v -1.574341 4.712666 2.249054
v -1.992096 4.666553 0.1455536
v -3.192017 4.495713 0.3101196
v -2.16806 4.825219 -0.4407654
v -1.992096 4.666553 0.1455536
v -1.75354 4.869394 0.3286285
v -1.900299 4.111541 1.824417
v -3.165466 3.084598 1.300003
v -4.311951 3.903385 -1.214081
v -4.243835 3.881777 -2.337219
v -2.16806 4.825219 -0.4407654
v -3.192017 4.495713 0.3101196
v -2.853394 4.075171 -2.613052
v -4.243835 3.881777 -2.337219
v -2.342102 4.245474 -4.317734
v -2.853394 4.075171 -2.613052
v -2.16806 4.825219 -0.4407654
v -4.243835 3.881777 -2.337219
v -2.342102 4.245474 -4.317734
v -4.243835 3.881777 -2.337219
v -4.180817 2.710252 -4.205032
v -3.399536 3.243118 2.192307
v -3.165466 3.084598 1.300003
v -3.038391 3.270135 2.225647
v -3.02887 2.722685 2.640793
v -3.399536 3.243118 2.192307
v -3.038391 3.270135 2.225647
v -1.900299 4.111541 1.824417
v -1.900299 4.111541 1.824417
v -3.038391 3.270135 2.225647
v -3.165466 3.084598 1.300003
v -3.165466 3.084598 1.300003
v -3.192017 4.495713 0.3101196
v -1.992096 4.666553 0.1455536
v -1.900299 4.111541 1.824417
v -1.574341 4.712666 2.249054
v -3.02887 2.722685 2.640793
v -4.180817 2.710252 -4.205032
v -3.224609 2.459984 -5.460495
v -2.342102 4.245474 -4.317734
v -1.863708 3.036888 -6.010071
v -1.200012 2.597162 4.961151
v -0.3007507 3.64464 4.829453
v -0.5488892 2.603976 6.129959
v 0.4540405 4.281361 4.993622
v -1.848145 2.232397 3.188736
v -0.3007507 3.64464 4.829453
v -1.200012 2.597162 4.961151
v 0.9037476 4.143814 6.564835
v 0.604248 3.674742 6.954834
v 0.4540405 4.281361 4.993622
v -0.5488892 2.603976 6.129959
v -0.3007507 3.64464 4.829453
v -0.2002563 7.559968 3.537018
v 0.4540405 4.281361 4.993622
v 1.0896 4.248989 5.446457
v 0.9037476 4.143814 6.564835
v 0.4540405 4.281361 4.993622
v 1.0896 4.248989 5.446457
v 3.385132 3.828102 5.024841
v 2.410034 4.074695 5.955887
v -3.02887 2.722685 2.640793
v -1.574341 4.712666 2.249054
v -1.848145 2.232397 3.188736
v -1.848145 2.232397 3.188736
v -0.9421387 6.596541 3.262466
v -0.3007507 3.64464 4.829453
v -0.6891479 7.411805 3.171707
v -0.3007507 3.64464 4.829453
v -0.9421387 6.596541 3.262466
v -0.2002563 7.559968 3.537018
v 1.0896 4.248989 5.446457
v 0.4540405 4.281361 4.993622
v 0.9435425 6.68233 4.207474
v 0.4540405 4.281361 4.993622
v -0.2002563 7.559968 3.537018
v 0.9435425 6.68233 4.207474
v 2.410034 4.074695 5.955887
v 0.9037476 4.143814 6.564835
v 1.0896 4.248989 5.446457
v 2.061188 5.935515 3.724045
v 1.0896 4.248989 5.446457
v 0.9435425 6.68233 4.207474
v 2.061188 5.935515 3.724045
v 3.385132 3.828102 5.024841
v 1.0896 4.248989 5.446457
v 2.925598 4.153633 4.104813
v 3.439789 3.263789 3.201508
v 3.385132 3.828102 5.024841
v -0.8503113 7.314161 3.124191
v -0.6891479 7.411805 3.171707
v -0.9421387 6.596541 3.262466
v 0.9435425 6.68233 4.207474
v -0.2002563 7.559968 3.537018
v 1.168823 7.520158 3.082352
v 0.9435425 6.68233 4.207474
v 1.168823 7.520158 3.082352
v 2.061188 5.935515 3.724045
v 2.925598 4.153633 4.104813
v 3.385132 3.828102 5.024841
v 2.061188 5.935515 3.724045
v 1.568726 5.510792 2.230896
v 1.168823 7.520158 3.082352
v 0.65271 7.310971 2.222672
v 1.568726 5.510792 2.230896
v 1.168823 7.520158 3.082352
v 2.925598 4.153633 4.104813
v 2.061188 5.935515 3.724045
v 2.463135 5.635063 3.038528
v 2.061188 5.935515 3.724045
v 1.568726 5.510792 2.230896
v 2.463135 5.635063 3.038528
v 2.925598 4.153633 4.104813
v 2.463135 5.635063 3.038528
v 3.439789 3.263789 3.201508
v -0.8503113 7.314161 3.124191
v -0.9421387 6.596541 3.262466
v -1.574341 4.712666 2.249054
v -1.848145 2.232397 3.188736
v -1.333221 5.678729 2.232361
v -1.286011 6.815667 1.294937
v -0.8503113 7.314161 3.124191
v -1.574341 4.712666 2.249054
v -1.090332 6.985077 2.708771
v -1.333221 5.678729 2.232361
v -1.090332 6.985077 2.708771
v -1.574341 4.712666 2.249054
v 3.439789 3.263789 3.201508
v 2.463135 5.635063 3.038528
v 1.740845 5.415962 1.710739
v 1.568726 5.510792 2.230896
v 1.740845 5.415962 1.710739
v 2.463135 5.635063 3.038528
v 3.439789 3.263789 3.201508
v 1.740845 5.415962 1.710739
v 2.579346 3.94331 2.303253
v -1.090332 6.985077 2.708771
v -1.333221 5.678729 2.232361
v -1.286011 6.815667 1.294937
v -1.574341 4.712666 2.249054
v -1.403534 6.100737 0.796524
v -1.225586 7.135665 2.331406
v -1.090332 6.985077 2.708771
v -1.286011 6.815667 1.294937
v -0.8503113 7.314161 3.124191
v -1.090332 6.985077 2.708771
v -0.6891479 7.411805 3.171707
v -1.225586 7.135665 2.331406
v -0.6891479 7.411805 3.171707
v -1.090332 6.985077 2.708771
v 1.568726 5.510792 2.230896
v 0.65271 7.310971 2.222672
v 1.740845 5.415962 1.710739
v 0.3527222 6.667288 0.174942
v 1.740845 5.415962 1.710739
v 0.65271 7.310971 2.222672
v -3.165466 3.084598 1.300003
v -3.26828 1.853122 1.373672
v -3.295929 3.319408 0.345047
v -3.192017 4.495713 0.3101196
v 2.226837 2.547037 -2.221893
v 2.3349 1.294541 -2.285934
v 2.435852 1.440451 -0.9098206
v 2.324097 2.687457 -0.8975525
v 2.579346 3.94331 2.303253
v 2.701141 2.745407 2.416061
v 3.595154 2.039315 3.349442
v 3.439789 3.263789 3.201508
v 2.324097 2.687457 -0.8975525
v 2.435852 1.440451 -0.9098206
v 2.980347 2.128511 0.09689331
v 2.848022 3.349624 0.07121277
v 3.200256 2.112403 0.4844055
v 3.059753 3.334123 0.4441376
v -4.180817 2.710252 -4.205032
v -4.281952 1.464881 -4.343704
v -3.224609 2.459984 -5.460495
v -3.550537 -0.1683956 -5.382217
v -4.645508 -0.1546293 -3.822479
v -1.200012 2.597162 4.961151
v -1.226044 1.346626 5.177948
v -1.899445 0.9676005 3.336273
v -1.848145 2.232397 3.188736
v 2.410034 4.074695 5.955887
v 2.525238 2.881931 6.211609
v 0.960022 2.95375 6.844315
v 0.9037476 4.143814 6.564835
v 3.059753 3.334123 0.4441376
v 3.200256 2.112403 0.4844055
v 1.814606 2.705986 1.650955
v 1.726135 3.905372 1.566864
v 1.636261 0.06689923 1.955734
v 2.857147 0.06942432 1.092575
v 1.085571 2.477518 -3.568115
v 1.148987 1.222307 -3.684753
v 2.3349 1.294541 -2.285934
v 2.226837 2.547037 -2.221893
v -4.311951 3.903385 -1.214081
v -4.459595 2.703918 -1.238754
v -4.388794 2.68147 -2.405731
v -4.243835 3.881777 -2.337219
v -4.281952 1.464881 -4.343704
v -4.180817 2.710252 -4.205032
v -3.02887 2.722685 2.640793
v -3.126373 1.47706 2.766983
v -3.511505 2.017838 2.300827
v -3.399536 3.243118 2.192307
v -3.399536 3.243118 2.192307
v -3.511505 2.017838 2.300827
v -3.26828 1.853122 1.373672
v -3.165466 3.084598 1.300003
v -3.192017 4.495713 0.3101196
v -3.295929 3.319408 0.345047
v -4.459595 2.703918 -1.238754
v -4.311951 3.903385 -1.214081
v -4.086243 -0.07435162 -0.3404846
v -2.995972 -0.0313545 0.8852234
v -0.5488892 2.603976 6.129959
v -0.5494995 1.353704 6.392334
v -1.226044 1.346626 5.177948
v -1.200012 2.597162 4.961151
v -2.342102 4.245474 -4.317734
v -1.863708 3.036888 -6.010071
v 0.5013428 2.907765 -6.289063
v 0.124939 3.985537 -5.454941
v 0.124939 3.985537 -5.454941
v 0.5013428 2.907765 -6.289063
v 0.7440186 3.115202 -4.67981
v 0.6958618 4.299191 -4.525681
v 0.6958618 4.299191 -4.525681
v 0.7440186 3.115202 -4.67981
v 1.148987 1.222307 -3.684753
v 1.085571 2.477518 -3.568115
v 0.5013428 2.907765 -6.289063
v 0.8443298 -0.09068806 -5.12677
v 0.5918579 -0.1197756 -6.348083
v 0.604248 3.674742 6.954834
v 0.6487427 2.466338 7.249573
v -0.5494995 1.353704 6.392334
v -0.5488892 2.603976 6.129959
v 0.9037476 4.143814 6.564835
v 0.960022 2.95375 6.844315
v 0.6487427 2.466338 7.249573
v 0.604248 3.674742 6.954834
v 3.385132 3.828102 5.024841
v 3.538391 2.625694 5.24411
v 2.525238 2.881931 6.211609
v 2.410034 4.074695 5.955887
v -1.848145 2.232397 3.188736
v -1.899445 0.9676005 3.336273
v -3.126373 1.47706 2.766983
v -3.02887 2.722685 2.640793
v 3.439789 3.263789 3.201508
v 3.595154 2.039315 3.349442
v 3.538391 2.625694 5.24411
v 3.385132 3.828102 5.024841
v -3.26828 1.853122 1.373672
v -2.974091 -0.01562698 1.638321
v -2.995972 -0.0313545 0.8852234
v -3.295929 3.319408 0.345047
v 2.3349 1.294541 -2.285934
v 2.011169 0.0122525 -1.025314
v 2.130249 0.03547614 0.01652527
v 2.435852 1.440451 -0.9098206
v 2.435852 1.440451 -0.9098206
v 2.130249 0.03547614 0.01652527
v 2.651489 0.05999177 0.7965698
v 2.980347 2.128511 0.09689331
v -1.226044 1.346626 5.177948
v -1.065735 0.07500474 4.53714
v -1.714294 0.03558891 3.129822
v -1.899445 0.9676005 3.336273
v 2.525238 2.881931 6.211609
v 2.366089 0.1494376 5.410629
v 0.9649658 0.1354889 5.859665
v 0.960022 2.95375 6.844315
v 2.980347 2.128511 0.09689331
v 2.651489 0.05999177 0.7965698
v 2.857147 0.06942432 1.092575
v 3.200256 2.112403 0.4844055
v 1.148987 1.222307 -3.684753
v 0.9124451 -0.02787049 -2.103394
v 2.011169 0.0122525 -1.025314
v 2.3349 1.294541 -2.285934
v -4.459595 2.703918 -1.238754
v -4.086243 -0.07435162 -0.3404846
v -5.643921 -0.124678 -1.547623
v -4.388794 2.68147 -2.405731
v -4.388794 2.68147 -2.405731
v -5.643921 -0.124678 -1.547623
v -4.645508 -0.1546293 -3.822479
v -4.281952 1.464881 -4.343704
v -3.126373 1.47706 2.766983
v -2.825775 0.008189607 2.685562
v -3.174042 -0.004699301 2.335464
v -3.511505 2.017838 2.300827
v -3.511505 2.017838 2.300827
v -3.174042 -0.004699301 2.335464
v -2.974091 -0.01562698 1.638321
v -3.26828 1.853122 1.373672
v -0.5494995 1.353704 6.392334
v -0.4316406 0.1044087 5.46553
v -1.065735 0.07500474 4.53714
v -1.226044 1.346626 5.177948
v -3.224609 2.459984 -5.460495
v -3.550537 -0.1683956 -5.382217
v -1.133331 -0.1549984 -6.679672
v -1.863708 3.036888 -6.010071
v -1.863708 3.036888 -6.010071
v -1.133331 -0.1549984 -6.679672
v 0.5918579 -0.1197756 -6.348083
v 0.5013428 2.907765 -6.289063
v 0.7440186 3.115202 -4.67981
v 0.8443298 -0.09068806 -5.12677
v 0.9124451 -0.02787049 -2.103394
v 1.148987 1.222307 -3.684753
v 0.6487427 2.466338 7.249573
v 0.6838379 0.1368126 6.151779
v -0.4316406 0.1044087 5.46553
v -0.5494995 1.353704 6.392334
v 0.960022 2.95375 6.844315
v 0.9649658 0.1354889 5.859665
v 0.6838379 0.1368126 6.151779
v 0.6487427 2.466338 7.249573
v 3.538391 2.625694 5.24411
v 3.259521 0.1495935 4.69606
v 2.366089 0.1494376 5.410629
v 2.525238 2.881931 6.211609
v -1.899445 0.9676005 3.336273
v -1.714294 0.03558891 3.129822
v -2.825775 0.008189607 2.685562
v -3.126373 1.47706 2.766983
v 3.595154 2.039315 3.349442
v 3.266388 0.1203868 3.259201
v 3.259521 0.1495935 4.69606
v 3.538391 2.625694 5.24411
vt 0.4433594 0.326416
vt 0.4433594 0.326416
vt 0.4433594 0.326416
vt 0.4433594 0.326416
vt 0.4433594 0.326416
vt 0.4433594 0.326416
vt 0.4433594 0.326416
vt 0.4433594 0.326416
vt 0.4433594 0.326416
vt 0.4433594 0.326416
vt 0.4433594 0.326416
vt 0.4433594 0.326416
vt 0.4433594 0.326416
vt 0.4433594 0.326416
vt 0.4433594 0.326416
vt 0.4433594 0.326416
vt 0.4433594 0.326416
vt 0.4433594 0.326416
vt 0.4433594 0.326416
vt 0.4433594 0.326416
vt 0.4433594 0.326416
vt 0.4433594 0.326416
vt 0.4433594 0.326416
vt 0.4433594 0.326416
vt 0.4433594 0.326416
vt 0.4433594 0.326416
vt 0.4433594 0.326416
vt 0.4433594 0.326416
vt 0.4433594 0.326416
vt 0.4433594 0.326416
vt 0.4433594 0.326416
vt 0.4433594 0.326416
vt 0.4433594 0.326416
vt 0.4433594 0.326416
vt 0.4433594 0.326416
vt 0.4433594 0.326416
vt 0.4433594 0.326416
vt 0.4433594 0.326416
vt 0.4433594 0.326416
vt 0.4433594 0.326416
vt 0.4433594 0.326416
vt 0.4433594 0.326416
vt 0.4433594 0.326416
vt 0.4433594 0.326416
vt 0.4433594 0.326416
vt 0.4433594 0.326416
vt 0.4433594 0.326416
vt 0.4433594 0.326416
vt 0.4433594 0.326416
vt 0.4433594 0.326416
vt 0.4433594 0.326416
vt 0.4433594 0.326416
vt 0.4433594 0.326416
vt 0.4433594 0.326416
vt 0.4433594 0.326416
vt 0.4433594 0.326416
vt 0.4433594 0.326416
vt 0.4433594 0.326416
vt 0.4433594 0.326416
vt 0.4433594 0.326416
vt 0.4433594 0.326416
vt 0.4433594 0.326416
vt 0.4433594 0.326416
vt 0.4433594 0.326416
vt 0.4433594 0.326416
vt 0.4433594 0.326416
vt 0.4433594 0.326416
vt 0.4433594 0.326416
vt 0.4433594 0.326416
vt 0.4433594 0.326416
vt 0.4433594 0.326416
vt 0.4433594 0.326416
vt 0.4433594 0.326416
vt 0.4433594 0.326416
vt 0.4433594 0.326416
vt 0.4433594 0.326416
vt 0.4433594 0.326416
vt 0.4433594 0.326416
vt 0.4433594 0.326416
vt 0.4433594 0.326416
vt 0.4433594 0.326416
vt 0.4433594 0.326416
vt 0.4433594 0.326416
vt 0.4433594 0.326416
vt 0.4433594 0.326416
vt 0.4433594 0.326416
vt 0.4433594 0.326416
vt 0.4433594 0.326416
vt 0.4433594 0.326416
vt 0.4433594 0.326416
vt 0.4433594 0.326416
vt 0.4433594 0.326416
vt 0.4433594 0.326416
vt 0.4433594 0.326416
vt 0.4433594 0.326416
vt 0.4433594 0.326416
vt 0.4433594 0.326416
vt 0.4433594 0.326416
vt 0.4433594 0.326416
vt 0.4433594 0.326416
vt 0.4433594 0.326416
vt 0.4433594 0.326416
vt 0.4433594 0.326416
vt 0.4433594 0.326416
vt 0.4433594 0.326416
vt 0.4433594 0.326416
vt 0.4433594 0.326416
vt 0.4433594 0.326416
vt 0.4433594 0.326416
vt 0.4433594 0.326416
vt 0.4433594 0.326416
vt 0.4433594 0.326416
vt 0.4433594 0.326416
vt 0.4433594 0.326416
vt 0.4433594 0.326416
vt 0.4433594 0.326416
vt 0.4433594 0.326416
vt 0.4433594 0.326416
vt 0.4433594 0.326416
vt 0.4433594 0.326416
vt 0.4433594 0.326416
vt 0.4433594 0.326416
vt 0.4433594 0.326416
vt 0.4433594 0.326416
vt 0.4433594 0.326416
vt 0.4433594 0.326416
vt 0.4433594 0.326416
vt 0.4433594 0.326416
vt 0.4433594 0.326416
vt 0.4433594 0.326416
vt 0.4433594 0.326416
vt 0.4433594 0.326416
vt 0.4433594 0.326416
vt 0.4433594 0.326416
vt 0.4433594 0.326416
vt 0.4433594 0.326416
vt 0.4433594 0.326416
vt 0.4433594 0.326416
vt 0.4433594 0.326416
vt 0.4433594 0.326416
vt 0.4433594 0.326416
vt 0.4433594 0.326416
vt 0.4433594 0.326416
vt 0.4433594 0.326416
vt 0.4433594 0.326416
vt 0.4433594 0.326416
vt 0.4433594 0.326416
vt 0.4433594 0.326416
vt 0.4433594 0.326416
vt 0.4433594 0.326416
vt 0.4433594 0.326416
vt 0.4433594 0.326416
vt 0.4433594 0.326416
vt 0.4433594 0.326416
vt 0.4433594 0.326416
vt 0.4433594 0.326416
vt 0.4433594 0.326416
vt 0.4433594 0.326416
vt 0.4433594 0.326416
vt 0.4433594 0.326416
vt 0.4433594 0.326416
vt 0.4433594 0.326416
vt 0.4433594 0.326416
vt 0.4433594 0.326416
vt 0.4433594 0.326416
vt 0.4433594 0.326416
vt 0.4433594 0.326416
vt 0.4433594 0.326416
vt 0.4433594 0.326416
vt 0.4433594 0.326416
vt 0.4433594 0.326416
vt 0.4433594 0.326416
vt 0.4433594 0.326416
vt 0.4433594 0.326416
vt 0.4433594 0.326416
vt 0.4433594 0.326416
vt 0.4433594 0.326416
vt 0.4433594 0.326416
vt 0.4433594 0.326416
vt 0.4433594 0.326416
vt 0.4433594 0.326416
vt 0.4433594 0.326416
vt 0.4433594 0.326416
vt 0.4433594 0.326416
vt 0.4433594 0.326416
vt 0.4433594 0.326416
vt 0.4433594 0.326416
vt 0.4433594 0.326416
vt 0.4433594 0.326416
vt 0.4433594 0.326416
vt 0.4433594 0.326416
vt 0.4433594 0.326416
vt 0.4433594 0.326416
vt 0.4433594 0.326416
vt 0.4433594 0.326416
vt 0.4433594 0.326416
vt 0.4433594 0.326416
vt 0.4433594 0.326416
vt 0.4433594 0.326416
vt 0.4433594 0.326416
vt 0.4433594 0.326416
vt 0.4433594 0.326416
vt 0.4433594 0.326416
vt 0.4433594 0.326416
vt 0.4433594 0.326416
vt 0.4433594 0.326416
vt 0.4433594 0.326416
vt 0.4433594 0.326416
vt 0.4433594 0.326416
vt 0.4433594 0.326416
vt 0.4433594 0.326416
vt 0.4433594 0.326416
vt 0.4433594 0.326416
vt 0.4433594 0.326416
vt 0.4433594 0.326416
vt 0.4433594 0.326416
vt 0.4433594 0.326416
vt 0.4433594 0.326416
vt 0.4433594 0.326416
vt 0.4433594 0.326416
vt 0.4433594 0.326416
vt 0.4433594 0.326416
vt 0.4433594 0.326416
vt 0.4433594 0.326416
vt 0.4433594 0.326416
vt 0.4433594 0.326416
vt 0.4433594 0.326416
vt 0.4433594 0.326416
vt 0.4433594 0.326416
vt 0.4433594 0.326416
vt 0.4433594 0.326416
vt 0.4433594 0.326416
vt 0.4433594 0.326416
vt 0.4433594 0.326416
vt 0.4433594 0.326416
vt 0.4433594 0.326416
vt 0.4433594 0.326416
vt 0.4433594 0.326416
vt 0.4433594 0.326416
vt 0.4433594 0.326416
vt 0.4433594 0.326416
vt 0.4433594 0.326416
vt 0.4433594 0.326416
vt 0.4433594 0.326416
vt 0.4433594 0.326416
vt 0.4433594 0.326416
vt 0.4433594 0.326416
vt 0.4433594 0.326416
vt 0.4433594 0.326416
vt 0.4433594 0.326416
vt 0.4433594 0.326416
vt 0.4433594 0.326416
vt 0.4433594 0.326416
vt 0.4433594 0.326416
vt 0.4433594 0.326416
vt 0.4433594 0.326416
vt 0.4433594 0.326416
vt 0.4433594 0.326416
vt 0.4433594 0.326416
vt 0.4433594 0.326416
vt 0.4433594 0.326416
vt 0.4433594 0.326416
vt 0.4433594 0.326416
vt 0.4433594 0.326416
vt 0.4433594 0.326416
vt 0.4433594 0.326416
vt 0.4433594 0.326416
vt 0.4433594 0.326416
vt 0.4433594 0.326416
vt 0.4433594 0.326416
vt 0.4433594 0.326416
vt 0.4433594 0.326416
vt 0.4433594 0.326416
vt 0.4433594 0.326416
vt 0.4433594 0.326416
vt 0.4433594 0.326416
vt 0.4433594 0.326416
vt 0.4433594 0.326416
vt 0.4433594 0.326416
vt 0.4433594 0.326416
vt 0.4433594 0.326416
vt 0.4433594 0.326416
vt 0.4433594 0.326416
vt 0.4433594 0.326416
vt 0.4433594 0.326416
vt 0.4433594 0.326416
vt 0.4433594 0.326416
vt 0.4433594 0.326416
vt 0.4433594 0.326416
vt 0.4433594 0.326416
vt 0.4433594 0.326416
vt 0.4433594 0.326416
vt 0.4433594 0.326416
vt 0.4433594 0.326416
vt 0.4433594 0.326416
vt 0.4433594 0.326416
vt 0.4433594 0.326416
vt 0.4433594 0.326416
vt 0.4433594 0.326416
vt 0.4433594 0.326416
vt 0.4433594 0.326416
vt 0.4433594 0.326416
vt 0.4433594 0.326416
vt 0.4433594 0.326416
vt 0.4433594 0.326416
vt 0.4433594 0.326416
vt 0.4433594 0.326416
vt 0.4433594 0.326416
vt 0.4433594 0.326416
vt 0.4433594 0.326416
vt 0.4433594 0.326416
vt 0.4433594 0.326416
vt 0.4433594 0.326416
vt 0.4433594 0.326416
vt 0.4433594 0.326416
vt 0.4433594 0.326416
vt 0.4433594 0.326416
vt 0.4433594 0.326416
vt 0.4433594 0.326416
vt 0.4433594 0.326416
vt 0.4433594 0.326416
vt 0.4433594 0.326416
vt 0.4433594 0.326416
vt 0.4433594 0.326416
vt 0.4433594 0.326416
vt 0.4433594 0.326416
vt 0.4433594 0.326416
vt 0.4433594 0.326416
vt 0.4433594 0.326416
vt 0.4433594 0.326416
vt 0.4433594 0.326416
vt 0.4433594 0.326416
vt 0.4433594 0.326416
vt 0.4433594 0.326416
vt 0.4433594 0.326416
vt 0.4433594 0.326416
vt 0.4433594 0.326416
vt 0.4433594 0.326416
vt 0.4433594 0.326416
vt 0.4433594 0.326416
vt 0.4433594 0.326416
vt 0.4433594 0.326416
vt 0.4433594 0.326416
vt 0.4433594 0.326416
vt 0.4433594 0.326416
vt 0.4433594 0.326416
vt 0.4433594 0.326416
vt 0.4433594 0.326416
vt 0.4433594 0.326416
vt 0.4433594 0.326416
vt 0.4433594 0.326416
vt 0.4433594 0.326416
vt 0.4433594 0.326416
vt 0.4433594 0.326416
vt 0.4433594 0.326416
vt 0.4433594 0.326416
vt 0.4433594 0.326416
vt 0.4433594 0.326416
vt 0.4433594 0.326416
vt 0.4433594 0.326416
vt 0.4433594 0.326416
vt 0.4433594 0.326416
vt 0.4433594 0.326416
vt 0.4433594 0.326416
vt 0.4433594 0.326416
vt 0.4433594 0.326416
vt 0.4433594 0.326416
vt 0.4433594 0.326416
vt 0.4433594 0.326416
vt 0.4433594 0.326416
vt 0.4433594 0.326416
vt 0.4433594 0.326416
vt 0.4433594 0.326416
vt 0.4433594 0.326416
vt 0.4433594 0.326416
vt 0.4433594 0.326416
vt 0.4433594 0.326416
vt 0.4433594 0.326416
vt 0.4433594 0.326416
vt 0.4433594 0.326416
vt 0.4433594 0.326416
vt 0.4433594 0.326416
vt 0.4433594 0.326416
vt 0.4433594 0.326416
vt 0.4433594 0.326416
vt 0.4433594 0.326416
vt 0.4433594 0.326416
vt 0.4433594 0.326416
vt 0.4433594 0.326416
vt 0.4433594 0.326416
vt 0.4433594 0.326416
vt 0.4433594 0.326416
vt 0.4433594 0.326416
vt 0.4433594 0.326416
vt 0.4433594 0.326416
vt 0.4433594 0.326416
vt 0.4433594 0.326416
vt 0.4433594 0.326416
vt 0.4433594 0.326416
vt 0.4433594 0.326416
vt 0.4433594 0.326416
vt 0.4433594 0.326416
vt 0.4433594 0.326416
vt 0.4433594 0.326416
vt 0.4433594 0.326416
vt 0.4433594 0.326416
vt 0.4433594 0.326416
vt 0.4433594 0.326416
vt 0.4433594 0.326416
vt 0.4433594 0.326416
vt 0.4433594 0.326416
vt 0.4433594 0.326416
vt 0.4433594 0.326416
vt 0.4433594 0.326416
vt 0.4433594 0.326416
vt 0.4433594 0.326416
vt 0.4433594 0.326416
vt 0.4433594 0.326416
vt 0.4433594 0.326416
vt 0.4433594 0.326416
vt 0.4433594 0.326416
vt 0.4433594 0.326416
vt 0.4433594 0.326416
vt 0.4433594 0.326416
vt 0.4433594 0.326416
vt 0.4433594 0.326416
vt 0.4433594 0.326416
vt 0.4433594 0.326416
vt 0.4433594 0.326416
vt 0.4433594 0.326416
vt 0.4433594 0.326416
vt 0.4433594 0.326416
vt 0.4433594 0.326416
vt 0.4433594 0.326416
vt 0.4433594 0.326416
vt 0.4433594 0.326416
vt 0.4433594 0.326416
vt 0.4433594 0.326416
vt 0.4433594 0.326416
vt 0.4433594 0.326416
vt 0.4433594 0.326416
vt 0.4433594 0.326416
vt 0.4433594 0.326416
vt 0.4433594 0.326416
vt 0.4433594 0.326416
vt 0.4433594 0.326416
vt 0.4433594 0.326416
vt 0.4433594 0.326416
vt 0.4433594 0.326416
vt 0.4433594 0.326416
vt 0.4433594 0.326416
vt 0.4433594 0.326416
vt 0.4433594 0.326416
vt 0.4433594 0.326416
vt 0.4433594 0.326416
vt 0.4433594 0.326416
vt 0.4433594 0.326416
vt 0.4433594 0.326416
vt 0.4433594 0.326416
vt 0.4433594 0.326416
vt 0.4433594 0.326416
vt 0.4433594 0.326416
vt 0.4433594 0.326416
vt 0.4433594 0.326416
vt 0.4433594 0.326416
vt 0.4433594 0.326416
vt 0.4433594 0.326416
vt 0.4433594 0.326416
vt 0.4433594 0.326416
vt 0.4433594 0.326416
vt 0.4433594 0.326416
vt 0.4433594 0.326416
vt 0.4433594 0.326416
vt 0.4433594 0.326416
vt 0.4433594 0.326416
vt 0.4433594 0.326416
vt 0.4433594 0.326416
vt 0.4433594 0.326416
vt 0.4433594 0.326416
vt 0.4433594 0.326416
vt 0.4433594 0.326416
vt 0.4433594 0.326416
vt 0.4433594 0.326416
vt 0.4433594 0.326416
vt 0.4433594 0.326416
vt 0.4433594 0.326416
vt 0.4433594 0.326416
vt 0.4433594 0.326416
vt 0.4433594 0.326416
vt 0.4433594 0.326416
vt 0.4433594 0.326416
vt 0.4433594 0.326416
vt 0.4433594 0.326416
vt 0.4433594 0.326416
vt 0.4433594 0.326416
vt 0.4433594 0.326416
vt 0.4433594 0.326416
vt 0.4433594 0.326416
vt 0.4433594 0.326416
vt 0.4433594 0.326416
vt 0.4433594 0.326416
vt 0.4433594 0.326416
vt 0.4433594 0.326416
vt 0.4433594 0.326416
vt 0.4433594 0.326416
vt 0.4433594 0.326416
vt 0.4433594 0.326416
vt 0.4433594 0.326416
vt 0.4433594 0.326416
vt 0.4433594 0.326416
vt 0.4433594 0.326416
vt 0.4433594 0.326416
vt 0.4433594 0.326416
vt 0.4433594 0.326416
vt 0.4433594 0.326416
vt 0.4433594 0.326416
vt 0.4433594 0.326416
vt 0.4433594 0.326416
vt 0.4433594 0.326416
vt 0.4433594 0.326416
vt 0.4433594 0.326416
vt 0.4433594 0.326416
vt 0.4433594 0.326416
vt 0.4433594 0.326416
vt 0.4433594 0.326416
vt 0.4433594 0.326416
vt 0.4433594 0.326416
vt 0.4433594 0.326416
vt 0.4433594 0.326416
vt 0.4433594 0.326416
vt 0.4433594 0.326416
vt 0.4433594 0.326416
vt 0.4433594 0.326416
vt 0.4433594 0.326416
vt 0.4433594 0.326416
vt 0.4433594 0.326416
vt 0.4433594 0.326416
vn 0.6503906 0.06573486 -0.7568359
vn 0.6523438 0.0304718 -0.7573242
vn 0.6523438 0.0304718 -0.7573242
vn 0.6630859 -0.04840088 -0.7470703
vn 0.6533203 -0.004852295 -0.7568359
vn 0.6469727 -0.1032104 -0.7553711
vn 0.6708984 -0.09179688 -0.7358398
vn 0.6708984 -0.09179688 -0.7358398
vn 0.6225586 -0.1144409 -0.7744141
vn 0.6225586 -0.1144409 -0.7744141
vn 0.6469727 -0.1032104 -0.7553711
vn 0.2966309 0.9462891 -0.1290283
vn 0.2595215 0.9526367 -0.1593018
vn 0.2595215 0.9526367 -0.1593018
vn 0.2218018 0.956543 -0.1890869
vn 0.762207 0.05401611 -0.6450195
vn 0.762207 0.05401611 -0.6450195
vn 0.762207 0.05401611 -0.6450195
vn 0.09344482 0.7978516 -0.5957031
vn 0.09344482 0.7978516 -0.5957031
vn 0.09344482 0.7978516 -0.5957031
vn 0.9135742 0.3469238 -0.2127686
vn 0.9135742 0.3469238 -0.2127686
vn 0.9135742 0.3469238 -0.2127686
vn 0.4084473 0.9042969 -0.1258545
vn 0.4084473 0.9042969 -0.1258545
vn 0.4084473 0.9042969 -0.1258545
vn 0.3115234 0.9150391 -0.2561035
vn 0.3115234 0.9150391 -0.2561035
vn 0.3266602 0.9208984 -0.2138672
vn 0.2958984 0.9077148 -0.2976074
vn 0.4812012 0.7998047 -0.3586426
vn 0.4812012 0.7998047 -0.3586426
vn 0.4824219 0.8037109 -0.3486328
vn 0.4802246 0.7958984 -0.3686523
vn 0.8569336 0.3129883 -0.409668
vn 0.8569336 0.3129883 -0.409668
vn 0.8569336 0.3129883 -0.409668
vn 0.9228516 0.3513184 0.1567383
vn 0.9228516 0.3513184 0.1567383
vn 0.9228516 0.3513184 0.1567383
vn 0.9775391 0.2028809 -0.05914307
vn 0.9775391 0.2028809 -0.05914307
vn 0.9775391 0.2028809 -0.05914307
vn 0.8745117 0.4377441 -0.2080078
vn 0.8745117 0.4377441 -0.2080078
vn 0.8745117 0.4377441 -0.2080078
vn 0.8818359 0.3012695 -0.3630371
vn 0.8793945 0.2978516 -0.3713379
vn 0.8867188 0.3115234 -0.3410645
vn 0.8696289 0.2805176 -0.40625
vn 0.8862305 0.3081055 -0.3464355
vn 0.902832 0.3625488 0.230835
vn 0.902832 0.3625488 0.230835
vn 0.902832 0.3625488 0.230835
vn 0.9887695 0.1205444 -0.08959961
vn 0.9873047 0.1391602 -0.07354736
vn 0.9916992 0.1196289 -0.05096436
vn 0.9946289 0.1000366 -0.02833557
vn 0.9785156 0.1218262 -0.1665039
vn 0.9785156 0.1218262 -0.1665039
vn 0.9506836 0.310791 0.0079422
vn 0.9506836 0.310791 0.0079422
vn 0.9506836 0.310791 0.0079422
vn 0.8710938 0.4909668 -0.005870819
vn 0.8710938 0.4909668 -0.005870819
vn 0.8710938 0.4909668 -0.005870819
vn 0.9428711 0.262207 0.2047119
vn 0.9428711 0.262207 0.2047119
vn 0.9428711 0.262207 0.2047119
vn 0.3979492 0.5849609 -0.7070313
vn 0.3979492 0.5849609 -0.7070313
vn 0.3979492 0.5849609 -0.7070313
vn 0.4228516 0.6806641 -0.5986328
vn 0.4228516 0.6806641 -0.5986328
vn 0.4228516 0.6806641 -0.5986328
vn 0.05319214 0.953125 -0.2983398
vn 0.005172729 0.9521484 -0.3061523
vn 0.05319214 0.953125 -0.2983398
vn -0.03012085 0.9516602 -0.3051758
vn -0.06167603 0.9575195 -0.2814941
vn -0.0171814 0.9545898 -0.2973633
vn -0.09729004 0.9628906 -0.2524414
vn -0.1028442 0.9604492 -0.2580566
vn -0.09509277 0.9619141 -0.2561035
vn -0.07171631 0.956543 -0.2817383
vn -0.0894165 0.9614258 -0.2597656
vn -0.1177368 0.9570313 -0.2648926
vn -0.1049194 0.9575195 -0.2687988
vn -0.1044922 0.9624023 -0.25
vn -0.07342529 0.9702148 -0.2314453
vn -0.04211426 0.9760742 -0.2122803
vn 0.04153442 0.9311523 -0.3618164
vn 0.02819824 0.9267578 -0.3740234
vn 0.04153442 0.9311523 -0.3618164
vn 0.05484009 0.9355469 -0.3493652
vn 0.8339844 0.5458984 -0.08093262
vn 0.8339844 0.5458984 -0.08093262
vn 0.8339844 0.5458984 -0.08093262
vn 0.5532227 0.7670898 -0.3251953
vn 0.5532227 0.7670898 -0.3251953
vn 0.5532227 0.7670898 -0.3251953
vn 0.04394531 0.8476563 -0.5288086
vn 0.04394531 0.8476563 -0.5288086
vn 0.04394531 0.8476563 -0.5288086
vn -0.6923828 0.512207 -0.5083008
vn -0.6923828 0.512207 -0.5083008
vn -0.6923828 0.512207 -0.5083008
vn -0.3164063 0.7148438 -0.6235352
vn -0.3164063 0.7148438 -0.6235352
vn -0.3186035 0.7148438 -0.6225586
vn -0.3144531 0.7143555 -0.625
vn -0.07641602 0.9086914 -0.4101563
vn -0.07641602 0.9086914 -0.4101563
vn -0.06506348 0.9047852 -0.4213867
vn -0.08770752 0.9125977 -0.3989258
vn -0.4621582 0.6865234 -0.5610352
vn -0.4621582 0.6865234 -0.5610352
vn -0.4621582 0.6865234 -0.5610352
vn -0.565918 0.7993164 -0.2023926
vn -0.565918 0.7993164 -0.2023926
vn -0.565918 0.7993164 -0.2023926
vn -0.2263184 0.8759766 -0.4255371
vn -0.2263184 0.8759766 -0.4255371
vn -0.2263184 0.8759766 -0.4255371
vn -0.2331543 0.9428711 -0.2387695
vn -0.2331543 0.9428711 -0.2387695
vn -0.2331543 0.9428711 -0.2387695
vn -0.706543 0.6933594 -0.1425781
vn -0.706543 0.6933594 -0.1425781
vn -0.706543 0.6933594 -0.1425781
vn -0.9516602 0.1067505 0.2880859
vn -0.9638672 0.1027222 0.2467041
vn -0.9482422 0.1073608 0.2995605
vn -0.9370117 0.1177979 0.3293457
vn -0.9404297 0.1083984 0.3225098
vn -0.9350586 0.1224365 0.3327637
vn -0.9321289 0.1342773 0.3366699
vn -0.9941406 -0.01507568 0.1048584
vn -0.9941406 -0.01507568 0.1048584
vn -0.9941406 -0.01507568 0.1048584
vn -0.7792969 0.470459 0.4138184
vn -0.7792969 0.470459 0.4138184
vn -0.7792969 0.470459 0.4138184
vn -0.9472656 0.1104126 0.3005371
vn -0.9472656 0.1104126 0.3005371
vn -0.9472656 0.1104126 0.3005371
vn -0.8041992 0.4978027 -0.3242188
vn -0.8041992 0.4978027 -0.3242188
vn -0.8041992 0.4978027 -0.3242188
vn -0.00610733 0.8984375 0.4387207
vn -0.00610733 0.8984375 0.4387207
vn -0.00610733 0.8984375 0.4387207
vn -0.7797852 0.1436768 0.609375
vn -0.7797852 0.1436768 0.609375
vn -0.7602539 0.1661377 0.6279297
vn -0.7397461 0.1883545 0.6459961
vn -0.7397461 0.1883545 0.6459961
vn -0.53125 0.7089844 -0.4633789
vn -0.53125 0.7089844 -0.4633789
vn -0.53125 0.7089844 -0.4633789
vn -0.8417969 0.3508301 0.4106445
vn -0.8417969 0.3508301 0.4106445
vn -0.8417969 0.3508301 0.4106445
vn -0.9262695 0.3320313 0.1776123
vn -0.9262695 0.3320313 0.1776123
vn -0.9262695 0.3320313 0.1776123
vn -0.9570313 0.1850586 -0.2232666
vn -0.9570313 0.1850586 -0.2232666
vn -0.9570313 0.1850586 -0.2232666
vn -0.484375 0.796875 0.361084
vn -0.484375 0.796875 0.361084
vn -0.484375 0.796875 0.361084
vn -0.9707031 0.2269287 -0.08148193
vn -0.96875 0.2355957 -0.07904053
vn -0.9707031 0.2269287 -0.08148193
vn -0.972168 0.2182617 -0.08392334
vn -0.9575195 0.2783203 0.07519531
vn -0.9570313 0.2758789 0.0914917
vn -0.9570313 0.2758789 0.0914917
vn -0.9555664 0.2736816 0.1077881
vn -0.925293 0.1282959 0.3574219
vn -0.9233398 0.1329346 0.3601074
vn -0.925293 0.1282959 0.3574219
vn -0.9267578 0.1235962 0.3549805
vn -0.9960938 0.0447998 -0.07434082
vn -0.9960938 0.0447998 -0.07434082
vn -0.9960938 0.0447998 -0.07434082
vn -0.5283203 0.8188477 -0.2253418
vn -0.5380859 0.8227539 -0.1838379
vn -0.5400391 0.8164063 -0.2053223
vn -0.5532227 0.8071289 -0.206665
vn 0.269043 0.08508301 0.9594727
vn 0.269043 0.08508301 0.9594727
vn 0.269043 0.08508301 0.9594727
vn -0.9399414 0.3413086 -0.008338928
vn -0.9399414 0.3413086 -0.008338928
vn -0.9399414 0.3413086 -0.008338928
vn -0.90625 0.4064941 0.1177979
vn -0.90625 0.4060059 0.1167603
vn -0.90625 0.4064941 0.1177979
vn -0.9057617 0.4072266 0.1188354
vn -0.09637451 0.953125 0.2868652
vn -0.09637451 0.953125 0.2868652
vn -0.09637451 0.953125 0.2868652
vn -0.7021484 0.6635742 0.2578125
vn -0.7314453 0.6347656 0.2497559
vn -0.7021484 0.6635742 0.2578125
vn -0.6713867 0.6918945 0.2653809
vn -0.3737793 0.925293 -0.06628418
vn -0.3820801 0.9233398 -0.04092407
vn -0.3737793 0.925293 -0.06628418
vn -0.3652344 0.9262695 -0.09161377
vn -0.1256104 0.9902344 0.06124878
vn -0.1256104 0.9902344 0.06124878
vn -0.1256104 0.9902344 0.06124878
vn -0.1846924 0.9453125 -0.2680664
vn -0.1846924 0.9453125 -0.2680664
vn -0.1846924 0.9453125 -0.2680664
vn -0.590332 0.6748047 -0.4431152
vn -0.590332 0.6748047 -0.4431152
vn -0.590332 0.6748047 -0.4431152
vn -0.0559082 0.9804688 -0.1888428
vn -0.0559082 0.9804688 -0.1888428
vn -0.0559082 0.9804688 -0.1888428
vn -0.1398926 0.5966797 0.7900391
vn -0.1179199 0.5986328 0.7919922
vn -0.1398926 0.5966797 0.7900391
vn -0.1618652 0.5947266 0.7875977
vn -0.6098633 0.7890625 -0.07446289
vn -0.6098633 0.7890625 -0.07446289
vn -0.6098633 0.7890625 -0.07446289
vn 0.03041077 0.5742188 0.8178711
vn 0.03041077 0.5742188 0.8178711
vn 0.03041077 0.5742188 0.8178711
vn -0.8110352 0.5595703 -0.1694336
vn -0.8110352 0.5595703 -0.1694336
vn -0.8110352 0.5595703 -0.1694336
vn -0.5556641 0.6254883 -0.5478516
vn -0.5307617 0.6269531 -0.5698242
vn -0.5307617 0.6269531 -0.5698242
vn -0.5053711 0.628418 -0.5913086
vn -0.6796875 0.6303711 0.375
vn -0.6601563 0.6430664 0.3886719
vn -0.6601563 0.6430664 0.3886719
vn -0.6401367 0.6547852 0.4018555
vn -0.7431641 0.6552734 0.1368408
vn -0.7431641 0.6552734 0.1368408
vn -0.7431641 0.6552734 0.1368408
vn -0.7021484 0.6635742 0.2590332
vn -0.7255859 0.6396484 0.253418
vn -0.7255859 0.6396484 0.253418
vn -0.7485352 0.6152344 0.2476807
vn -0.432373 0.2927246 0.8530273
vn -0.432373 0.2927246 0.8530273
vn -0.432373 0.2927246 0.8530273
vn -0.01430511 0.9956055 0.09124756
vn -0.01430511 0.9956055 0.09124756
vn -0.01430511 0.9956055 0.09124756
vn 0.1638184 0.9824219 -0.08862305
vn 0.1638184 0.9824219 -0.08862305
vn 0.1638184 0.9824219 -0.08862305
vn -0.2617188 0.3671875 0.8925781
vn -0.2617188 0.3671875 0.8925781
vn -0.2617188 0.3671875 0.8925781
vn -0.7807617 0.1518555 0.605957
vn -0.7807617 0.1518555 0.605957
vn -0.7807617 0.1518555 0.605957
vn -0.6132813 0.2641602 0.7441406
vn -0.6132813 0.2641602 0.7441406
vn -0.5991211 0.2697754 0.7539063
vn -0.6274414 0.2585449 0.734375
vn -0.5292969 0.3596191 0.7685547
vn -0.5292969 0.3596191 0.7685547
vn -0.5292969 0.3596191 0.7685547
vn -0.2607422 0.3479004 0.9003906
vn -0.2607422 0.3479004 0.9003906
vn -0.2607422 0.3479004 0.9003906
vn 0.08905029 0.9902344 0.1079102
vn 0.08905029 0.9902344 0.1079102
vn 0.08905029 0.9902344 0.1079102
vn 0.5751953 0.3984375 0.7143555
vn 0.5751953 0.3984375 0.7143555
vn 0.5751953 0.3984375 0.7143555
vn 0.2502441 0.6176758 0.7456055
vn 0.2502441 0.6176758 0.7456055
vn 0.2502441 0.6176758 0.7456055
vn 0.7705078 0.6152344 -0.1672363
vn 0.7705078 0.6152344 -0.1672363
vn 0.7705078 0.6152344 -0.1672363
vn -0.3972168 0.2224121 0.8901367
vn -0.3972168 0.2224121 0.8901367
vn -0.3972168 0.2224121 0.8901367
vn 0.2248535 0.7592773 0.6103516
vn 0.2248535 0.7592773 0.6103516
vn 0.2248535 0.7592773 0.6103516
vn 0.6157227 0.5678711 0.5463867
vn 0.6157227 0.5678711 0.5463867
vn 0.6157227 0.5678711 0.5463867
vn 0.8793945 0.3598633 -0.3117676
vn 0.8793945 0.3598633 -0.3117676
vn 0.8720703 0.3464355 -0.3459473
vn 0.8632813 0.3325195 -0.3793945
vn 0.8632813 0.3325195 -0.3793945
vn 0.75 0.3791504 -0.5424805
vn 0.75 0.3791504 -0.5424805
vn 0.75 0.3791504 -0.5424805
vn 0.8369141 0.467041 0.2858887
vn 0.8369141 0.467041 0.2858887
vn 0.8369141 0.467041 0.2858887
vn 0.1569824 0.9350586 -0.3178711
vn 0.1569824 0.9350586 -0.3178711
vn 0.1569824 0.9350586 -0.3178711
vn 0.9121094 0.3852539 0.1396484
vn 0.9121094 0.3852539 0.1396484
vn 0.9121094 0.3852539 0.1396484
vn -0.9472656 0.1730957 0.2692871
vn -0.9501953 0.1834717 0.251709
vn -0.9472656 0.2020264 0.2486572
vn -0.9526367 0.1938477 0.2340088
vn -0.9404297 0.2388916 0.2423096
vn -0.9404297 0.2388916 0.2423096
vn -0.8945313 0.102356 0.4355469
vn -0.8945313 0.102356 0.4355469
vn -0.8945313 0.102356 0.4355469
vn -0.9584961 0.2364502 -0.15979
vn -0.9584961 0.2364502 -0.15979
vn -0.9584961 0.2364502 -0.15979
vn 0.8154297 0.302002 -0.4934082
vn 0.8154297 0.302002 -0.4934082
vn 0.8154297 0.302002 -0.4934082
vn 0.01947021 0.9848633 -0.1730957
vn 0.01947021 0.9848633 -0.1730957
vn 0.01947021 0.9848633 -0.1730957
vn 0.7797852 0.2062988 -0.5908203
vn 0.7797852 0.2062988 -0.5908203
vn 0.7797852 0.2062988 -0.5908203
vn -0.9829102 0.1392822 0.1193848
vn -0.9829102 0.1392822 0.1193848
vn -0.9873047 0.1429443 0.07147217
vn -0.9887695 0.1462402 0.0234375
vn -0.9887695 0.1462402 0.0234375
vn -0.9072266 -0.3845215 0.1716309
vn -0.9072266 -0.3845215 0.1716309
vn -0.9072266 -0.3845215 0.1716309
vn -0.3681641 0.8203125 -0.4372559
vn -0.3681641 0.8203125 -0.4372559
vn -0.3681641 0.8203125 -0.4372559
vn -0.8422852 0.3239746 0.4311523
vn -0.8422852 0.3239746 0.4311523
vn -0.8422852 0.3239746 0.4311523
vn 0.871582 0.4443359 0.2073975
vn 0.871582 0.4443359 0.2073975
vn 0.871582 0.4443359 0.2073975
vn 0.7963867 0.5341797 -0.2844238
vn 0.7963867 0.5341797 -0.2844238
vn 0.7963867 0.5341797 -0.2844238
vn -0.9833984 0.0914917 0.1568604
vn -0.9833984 0.0914917 0.1568604
vn -0.9833984 0.0914917 0.1568604
vn -0.9833984 0.0914917 0.1568604
vn 0.9926758 0.08978271 -0.08239746
vn 0.9926758 0.08978271 -0.08239746
vn 0.9926758 0.08978271 -0.08239746
vn 0.9926758 0.08978271 -0.08239746
vn 0.7255859 0.008934021 -0.6879883
vn 0.7255859 0.008934021 -0.6879883
vn 0.7255859 0.008934021 -0.6879883
vn 0.7255859 0.008934021 -0.6879883
vn 0.8525391 0.08148193 -0.5166016
vn 0.8525391 0.08148193 -0.5166016
vn 0.8603516 0.0826416 -0.5029297
vn 0.8603516 0.0826416 -0.5029297
vn 0.8681641 0.08374023 -0.4892578
vn 0.8681641 0.08374023 -0.4892578
vn -0.7758789 0.1317139 -0.6171875
vn -0.7817383 0.08618164 -0.6176758
vn -0.7817383 0.08618164 -0.6176758
vn -0.7856445 0.04046631 -0.6171875
vn -0.7856445 0.04046631 -0.6171875
vn -0.9414063 0.07653809 0.3283691
vn -0.9414063 0.07653809 0.3283691
vn -0.9414063 0.07653809 0.3283691
vn -0.9414063 0.07653809 0.3283691
vn 0.3737793 0.2287598 0.8989258
vn 0.3737793 0.2287598 0.8989258
vn 0.3737793 0.2287598 0.8989258
vn 0.3737793 0.2287598 0.8989258
vn 0.6655273 0.1009521 0.7392578
vn 0.6450195 0.09155273 0.7587891
vn 0.6450195 0.09155273 0.7587891
vn 0.6655273 0.1009521 0.7392578
vn 0.6240234 0.08209229 0.7773438
vn 0.6240234 0.08209229 0.7773438
vn 0.7563477 0.09832764 -0.6464844
vn 0.7563477 0.09832764 -0.6464844
vn 0.7563477 0.09832764 -0.6464844
vn 0.7563477 0.09832764 -0.6464844
vn -0.9902344 0.1231689 -0.06243896
vn -0.9902344 0.1231689 -0.06243896
vn -0.9892578 0.1160889 -0.08746338
vn -0.9892578 0.1160889 -0.08746338
vn -0.987793 0.1088867 -0.1124268
vn -0.987793 0.1088867 -0.1124268
vn -0.6879883 0.1262207 0.7148438
vn -0.6879883 0.1262207 0.7148438
vn -0.6879883 0.1262207 0.7148438
vn -0.6879883 0.1262207 0.7148438
vn -0.9624023 0.0645752 -0.263916
vn -0.9624023 0.0645752 -0.263916
vn -0.9624023 0.0645752 -0.263916
vn -0.9624023 0.0645752 -0.263916
vn -0.8188477 0.08917236 0.5668945
vn -0.8027344 0.0737915 0.5917969
vn -0.8027344 0.0737915 0.5917969
vn -0.8188477 0.08917236 0.5668945
vn -0.7851563 0.05838013 0.6162109
vn -0.7851563 0.05838013 0.6162109
vn -0.8691406 0.1019287 0.4836426
vn -0.8691406 0.1019287 0.4836426
vn -0.8691406 0.1019287 0.4836426
vn -0.8691406 0.1019287 0.4836426
vn -0.1452637 0.7084961 -0.6904297
vn -0.1452637 0.7084961 -0.6904297
vn -0.1452637 0.7084961 -0.6904297
vn -0.1452637 0.7084961 -0.6904297
vn 0.8823242 0.317627 -0.3479004
vn 0.8823242 0.317627 -0.3479004
vn 0.8823242 0.317627 -0.3479004
vn 0.8823242 0.317627 -0.3479004
vn 0.9643555 0.0723877 -0.2546387
vn 0.9746094 0.05844116 -0.2154541
vn 0.9643555 0.0723877 -0.2546387
vn 0.9643555 0.0723877 -0.2546387
vn 0.9833984 0.04437256 -0.1757813
vn 0.9833984 0.04437256 -0.1757813
vn 0.9833984 0.04437256 -0.1757813
vn -0.6655273 0.1536865 0.7304688
vn -0.6655273 0.1536865 0.7304688
vn -0.6655273 0.1536865 0.7304688
vn -0.6655273 0.1536865 0.7304688
vn 0.6425781 0.2038574 0.7387695
vn 0.6425781 0.2038574 0.7387695
vn 0.6425781 0.2038574 0.7387695
vn 0.6425781 0.2038574 0.7387695
vn 0.7021484 0.2133789 0.6791992
vn 0.7021484 0.2133789 0.6791992
vn 0.7021484 0.2133789 0.6791992
vn 0.7021484 0.2133789 0.6791992
vn -0.3754883 0.1224365 0.9189453
vn -0.3754883 0.1224365 0.9189453
vn -0.3754883 0.1224365 0.9189453
vn -0.3754883 0.1224365 0.9189453
vn 0.9921875 0.1248169 -0.008895874
vn 0.9921875 0.1248169 -0.008895874
vn 0.9921875 0.1248169 -0.008895874
vn 0.9921875 0.1248169 -0.008895874
vn -0.9897461 -0.1239624 -0.07342529
vn -0.9897461 -0.1239624 -0.07342529
vn -0.9897461 -0.1239624 -0.07342529
vn -0.9897461 -0.1239624 -0.07342529
vn 0.9580078 -0.2792969 -0.06762695
vn 0.9580078 -0.2792969 -0.06762695
vn 0.9580078 -0.2792969 -0.06762695
vn 0.9580078 -0.2792969 -0.06762695
vn 0.8618164 -0.3354492 -0.3803711
vn 0.8618164 -0.3354492 -0.3803711
vn 0.8618164 -0.3354492 -0.3803711
vn 0.8618164 -0.3354492 -0.3803711
vn -0.8735352 -0.2878418 0.3925781
vn -0.8735352 -0.2878418 0.3925781
vn -0.8735352 -0.2878418 0.3925781
vn -0.8735352 -0.2878418 0.3925781
vn 0.3217773 -0.2980957 0.8984375
vn 0.3217773 -0.2980957 0.8984375
vn 0.3217773 -0.2980957 0.8984375
vn 0.3217773 -0.2980957 0.8984375
vn 0.8100586 -0.2937012 -0.5073242
vn 0.8100586 -0.2937012 -0.5073242
vn 0.8100586 -0.2937012 -0.5073242
vn 0.8100586 -0.2937012 -0.5073242
vn 0.5605469 -0.6699219 -0.4865723
vn 0.5605469 -0.6699219 -0.4865723
vn 0.5605469 -0.6699219 -0.4865723
vn 0.5605469 -0.6699219 -0.4865723
vn -0.815918 0.2868652 0.5019531
vn -0.815918 0.2868652 0.5019531
vn -0.815918 0.2868652 0.5019531
vn -0.815918 0.2868652 0.5019531
vn -0.9194336 0.2391357 -0.3120117
vn -0.9194336 0.2391357 -0.3120117
vn -0.9194336 0.2391357 -0.3120117
vn -0.9194336 0.2391357 -0.3120117
vn -0.7817383 -0.151001 0.6049805
vn -0.7817383 -0.151001 0.6049805
vn -0.7817383 -0.151001 0.6049805
vn -0.7817383 -0.151001 0.6049805
vn -0.9545898 -0.173584 -0.2416992
vn -0.9545898 -0.173584 -0.2416992
vn -0.9545898 -0.173584 -0.2416992
vn -0.9545898 -0.173584 -0.2416992
vn -0.7832031 -0.3884277 0.4855957
vn -0.7832031 -0.3884277 0.4855957
vn -0.7832031 -0.3884277 0.4855957
vn -0.7832031 -0.3884277 0.4855957
vn -0.4460449 0.05975342 -0.8930664
vn -0.4460449 0.05975342 -0.8930664
vn -0.4460449 0.05975342 -0.8930664
vn -0.4460449 0.05975342 -0.8930664
vn 0.01548767 0.1183472 -0.9926758
vn 0.01548767 0.1183472 -0.9926758
vn 0.01548767 0.1183472 -0.9926758
vn 0.01548767 0.1183472 -0.9926758
vn 0.9868164 -0.06756592 -0.1469727
vn 0.9868164 -0.06756592 -0.1469727
vn 0.9868164 -0.06756592 -0.1469727
vn 0.9868164 -0.06756592 -0.1469727
vn -0.3112793 -0.4780273 0.8212891
vn -0.3112793 -0.4780273 0.8212891
vn -0.3112793 -0.4780273 0.8212891
vn -0.3112793 -0.4780273 0.8212891
vn 0.8129883 -0.2130127 0.5419922
vn 0.8129883 -0.2130127 0.5419922
vn 0.8129883 -0.2130127 0.5419922
vn 0.8129883 -0.2130127 0.5419922
vn 0.6225586 -0.244873 0.7431641
vn 0.6225586 -0.244873 0.7431641
vn 0.6225586 -0.244873 0.7431641
vn 0.6225586 -0.244873 0.7431641
vn -0.4233398 -0.1917725 0.8852539
vn -0.4233398 -0.1917725 0.8852539
vn -0.4233398 -0.1917725 0.8852539
vn -0.4233398 -0.1917725 0.8852539
vn 0.9887695 -0.1433105 0.04534912
vn 0.9887695 -0.1433105 0.04534912
vn 0.9887695 -0.1433105 0.04534912
vn 0.9887695 -0.1433105 0.04534912
g SM_Env_Rock_Large_03_0
f 3/3/3 2/2/2 1/1/1
f 3/3/3 4/4/4 2/2/2
f 4/4/4 5/5/5 2/2/2
f 7/7/7 6/6/6 4/4/4
f 8/8/8 7/7/7 4/4/4
f 6/6/6 10/10/10 9/9/9
f 11/11/11 6/6/6 9/9/9
f 14/14/14 13/13/13 12/12/12
f 14/14/14 15/15/15 13/13/13
f 18/18/18 17/17/17 16/16/16
f 21/21/21 20/20/20 19/19/19
f 24/24/24 23/23/23 22/22/22
f 27/27/27 26/26/26 25/25/25
f 30/30/30 29/29/29 28/28/28
f 31/31/31 28/28/28 29/29/29
f 34/34/34 33/33/33 32/32/32
f 32/32/32 33/33/33 35/35/35
f 38/38/38 37/37/37 36/36/36
f 41/41/41 40/40/40 39/39/39
f 44/44/44 43/43/43 42/42/42
f 47/47/47 46/46/46 45/45/45
f 50/50/50 49/49/49 48/48/48
f 49/49/49 51/51/51 48/48/48
f 48/48/48 52/52/52 50/50/50
f 55/55/55 54/54/54 53/53/53
f 58/58/58 57/57/57 56/56/56
f 58/58/58 56/56/56 59/59/59
f 56/56/56 61/61/61 60/60/60
f 64/64/64 63/63/63 62/62/62
f 67/67/67 66/66/66 65/65/65
f 70/70/70 69/69/69 68/68/68
f 73/73/73 72/72/72 71/71/71
f 76/76/76 75/75/75 74/74/74
f 79/79/79 78/78/78 77/77/77
f 81/81/81 80/80/80 78/78/78
f 82/82/82 80/80/80 81/81/81
f 83/83/83 82/82/82 81/81/81
f 84/84/84 83/83/83 81/81/81
f 81/81/81 85/85/85 84/84/84
f 81/81/81 86/86/86 85/85/85
f 87/87/87 84/84/84 85/85/85
f 84/84/84 88/88/88 83/83/83
f 83/83/83 88/88/88 89/89/89
f 90/90/90 83/83/83 89/89/89
f 91/91/91 83/83/83 90/90/90
f 83/83/83 91/91/91 92/92/92
f 95/95/95 94/94/94 93/93/93
f 93/93/93 96/96/96 95/95/95
f 99/99/99 98/98/98 97/97/97
f 102/102/102 101/101/101 100/100/100
f 105/105/105 104/104/104 103/103/103
f 108/108/108 107/107/107 106/106/106
f 111/111/111 110/110/110 109/109/109
f 109/109/109 110/110/110 112/112/112
f 115/115/115 114/114/114 113/113/113
f 116/116/116 113/113/113 114/114/114
f 119/119/119 118/118/118 117/117/117
f 122/122/122 121/121/121 120/120/120
f 125/125/125 124/124/124 123/123/123
f 128/128/128 127/127/127 126/126/126
f 131/131/131 130/130/130 129/129/129
f 134/134/134 133/133/133 132/132/132
f 132/132/132 135/135/135 134/134/134
f 134/134/134 135/135/135 136/136/136
f 138/138/138 135/135/135 137/137/137
f 141/141/141 140/140/140 139/139/139
f 144/144/144 143/143/143 142/142/142
f 147/147/147 146/146/146 145/145/145
f 150/150/150 149/149/149 148/148/148
f 153/153/153 152/152/152 151/151/151
f 156/156/156 155/155/155 154/154/154
f 156/156/156 158/158/158 157/157/157
f 161/161/161 160/160/160 159/159/159
f 164/164/164 163/163/163 162/162/162
f 167/167/167 166/166/166 165/165/165
f 170/170/170 169/169/169 168/168/168
f 173/173/173 172/172/172 171/171/171
f 176/176/176 175/175/175 174/174/174
f 176/176/176 174/174/174 177/177/177
f 180/180/180 179/179/179 178/178/178
f 180/180/180 181/181/181 179/179/179
f 184/184/184 183/183/183 182/182/182
f 185/185/185 184/184/184 182/182/182
f 188/188/188 187/187/187 186/186/186
f 191/191/191 190/190/190 189/189/189
f 192/192/192 190/190/190 191/191/191
f 192/192/192 191/191/191 189/189/189
f 195/195/195 194/194/194 193/193/193
f 198/198/198 197/197/197 196/196/196
f 201/201/201 200/200/200 199/199/199
f 201/201/201 199/199/199 202/202/202
f 205/205/205 204/204/204 203/203/203
f 208/208/208 207/207/207 206/206/206
f 206/206/206 209/209/209 208/208/208
f 212/212/212 211/211/211 210/210/210
f 213/213/213 212/212/212 210/210/210
f 216/216/216 215/215/215 214/214/214
f 219/219/219 218/218/218 217/217/217
f 222/222/222 221/221/221 220/220/220
f 225/225/225 224/224/224 223/223/223
f 228/228/228 227/227/227 226/226/226
f 228/228/228 226/226/226 229/229/229
f 232/232/232 231/231/231 230/230/230
f 235/235/235 234/234/234 233/233/233
f 238/238/238 237/237/237 236/236/236
f 241/241/241 240/240/240 239/239/239
f 241/241/241 242/242/242 240/240/240
f 245/245/245 244/244/244 243/243/243
f 246/246/246 244/244/244 245/245/245
f 249/249/249 248/248/248 247/247/247
f 252/252/252 251/251/251 250/250/250
f 251/251/251 252/252/252 253/253/253
f 256/256/256 255/255/255 254/254/254
f 259/259/259 258/258/258 257/257/257
f 262/262/262 261/261/261 260/260/260
f 265/265/265 264/264/264 263/263/263
f 268/268/268 267/267/267 266/266/266
f 271/271/271 270/270/270 269/269/269
f 270/270/270 272/272/272 269/269/269
f 275/275/275 274/274/274 273/273/273
f 278/278/278 277/277/277 276/276/276
f 281/281/281 280/280/280 279/279/279
f 284/284/284 283/283/283 282/282/282
f 287/287/287 286/286/286 285/285/285
f 290/290/290 289/289/289 288/288/288
f 293/293/293 292/292/292 291/291/291
f 296/296/296 295/295/295 294/294/294
f 299/299/299 298/298/298 297/297/297
f 302/302/302 301/301/301 300/300/300
f 304/304/304 302/302/302 303/303/303
f 307/307/307 306/306/306 305/305/305
f 310/310/310 309/309/309 308/308/308
f 313/313/313 312/312/312 311/311/311
f 316/316/316 315/315/315 314/314/314
f 319/319/319 318/318/318 317/317/317
f 320/320/320 318/318/318 319/319/319
f 322/322/322 319/319/319 321/321/321
f 325/325/325 324/324/324 323/323/323
f 328/328/328 327/327/327 326/326/326
f 331/331/331 330/330/330 329/329/329
f 334/334/334 333/333/333 332/332/332
f 337/337/337 336/336/336 335/335/335
f 340/340/340 339/339/339 338/338/338
f 340/340/340 342/342/342 341/341/341
f 345/345/345 344/344/344 343/343/343
f 348/348/348 347/347/347 346/346/346
f 351/351/351 350/350/350 349/349/349
f 354/354/354 353/353/353 352/352/352
f 357/357/357 356/356/356 355/355/355
f 360/360/360 359/359/359 358/358/358
f 361/361/361 360/360/360 358/358/358
f 364/364/364 363/363/363 362/362/362
f 365/365/365 364/364/364 362/362/362
f 368/368/368 367/367/367 366/366/366
f 369/369/369 368/368/368 366/366/366
f 372/372/372 371/371/371 370/370/370
f 373/373/373 372/372/372 370/370/370
f 374/374/374 372/372/372 373/373/373
f 375/375/375 374/374/374 373/373/373
f 378/378/378 377/377/377 376/376/376
f 378/378/378 379/379/379 377/377/377
f 379/379/379 380/380/380 377/377/377
f 383/383/383 382/382/382 381/381/381
f 384/384/384 383/383/383 381/381/381
f 387/387/387 386/386/386 385/385/385
f 388/388/388 387/387/387 385/385/385
f 391/391/391 390/390/390 389/389/389
f 392/392/392 391/391/391 389/389/389
f 391/391/391 393/393/393 390/390/390
f 393/393/393 394/394/394 390/390/390
f 397/397/397 396/396/396 395/395/395
f 398/398/398 397/397/397 395/395/395
f 401/401/401 400/400/400 399/399/399
f 402/402/402 401/401/401 399/399/399
f 403/403/403 401/401/401 402/402/402
f 404/404/404 403/403/403 402/402/402
f 407/407/407 406/406/406 405/405/405
f 408/408/408 407/407/407 405/405/405
f 411/411/411 410/410/410 409/409/409
f 412/412/412 411/411/411 409/409/409
f 415/415/415 414/414/414 413/413/413
f 416/416/416 415/415/415 413/413/413
f 415/415/415 417/417/417 414/414/414
f 417/417/417 418/418/418 414/414/414
f 421/421/421 420/420/420 419/419/419
f 422/422/422 421/421/421 419/419/419
f 425/425/425 424/424/424 423/423/423
f 426/426/426 425/425/425 423/423/423
f 429/429/429 428/428/428 427/427/427
f 430/430/430 429/429/429 427/427/427
f 433/433/433 432/432/432 431/431/431
f 434/434/434 433/433/433 431/431/431
f 432/432/432 436/436/436 435/435/435
f 436/436/436 437/437/437 435/435/435
f 440/440/440 439/439/439 438/438/438
f 441/441/441 440/440/440 438/438/438
f 444/444/444 443/443/443 442/442/442
f 445/445/445 444/444/444 442/442/442
f 448/448/448 447/447/447 446/446/446
f 449/449/449 448/448/448 446/446/446
f 452/452/452 451/451/451 450/450/450
f 453/453/453 452/452/452 450/450/450
f 456/456/456 455/455/455 454/454/454
f 457/457/457 456/456/456 454/454/454
f 460/460/460 459/459/459 458/458/458
f 461/461/461 460/460/460 458/458/458
f 464/464/464 463/463/463 462/462/462
f 465/465/465 464/464/464 462/462/462
f 468/468/468 467/467/467 466/466/466
f 469/469/469 468/468/468 466/466/466
f 472/472/472 471/471/471 470/470/470
f 473/473/473 472/472/472 470/470/470
f 476/476/476 475/475/475 474/474/474
f 477/477/477 476/476/476 474/474/474
f 480/480/480 479/479/479 478/478/478
f 481/481/481 480/480/480 478/478/478
f 484/484/484 483/483/483 482/482/482
f 485/485/485 484/484/484 482/482/482
f 488/488/488 487/487/487 486/486/486
f 489/489/489 488/488/488 486/486/486
f 492/492/492 491/491/491 490/490/490
f 493/493/493 492/492/492 490/490/490
f 496/496/496 495/495/495 494/494/494
f 497/497/497 496/496/496 494/494/494
f 500/500/500 499/499/499 498/498/498
f 501/501/501 500/500/500 498/498/498
f 504/504/504 503/503/503 502/502/502
f 505/505/505 504/504/504 502/502/502
f 508/508/508 507/507/507 506/506/506
f 509/509/509 508/508/508 506/506/506
f 512/512/512 511/511/511 510/510/510
f 513/513/513 512/512/512 510/510/510
f 516/516/516 515/515/515 514/514/514
f 517/517/517 516/516/516 514/514/514
f 520/520/520 519/519/519 518/518/518
f 521/521/521 520/520/520 518/518/518
f 524/524/524 523/523/523 522/522/522
f 525/525/525 524/524/524 522/522/522
f 528/528/528 527/527/527 526/526/526
f 529/529/529 528/528/528 526/526/526
f 532/532/532 531/531/531 530/530/530
f 533/533/533 532/532/532 530/530/530
f 536/536/536 535/535/535 534/534/534
f 537/537/537 536/536/536 534/534/534
