g SM_Env_Bridge_03
v -1.152679 2.567974 1.234512
v -1.152679 2.466242 1.234512
v -1.207977 2.481578 1.161091
v -1.207977 2.552639 1.161091
v -1.123411 2.567974 0.8291092
v -1.152679 2.567974 1.234512
v -1.207977 2.552639 1.161091
v -1.207977 2.552639 0.9025307
v -1.123411 2.466242 0.8291092
v -1.123411 2.567974 0.8291092
v -1.207977 2.552639 0.9025307
v -1.207977 2.481578 0.9025307
v -1.152679 2.466242 1.234512
v -1.123411 2.466242 0.8291092
v -1.207977 2.481578 0.9025307
v -1.207977 2.481578 1.161091
v -1.207977 2.481578 1.161091
v -1.207977 2.481578 0.9025307
v -1.207977 2.552639 0.9025307
v -1.207977 2.552639 1.161091
v 1.207977 2.478259 0.8904572
v 1.207977 2.478259 1.173164
v 1.207977 2.555957 1.173164
v 1.207977 2.555957 0.8904572
v 1.125761 2.466242 0.8301506
v 1.125761 2.567974 0.8301506
v 0.4637566 2.574955 0.8579445
v 0.4746704 2.473867 0.8558273
v -1.123411 2.567974 0.8291092
v -1.123411 2.466242 0.8291092
v 0.4637566 2.574955 0.8579445
v 1.125761 2.567974 0.8301506
v 1.082991 2.567974 1.233471
v 0.4550381 2.568006 1.024384
v 0.8332577 2.564987 1.223412
v -1.152679 2.567974 1.234512
v -1.123411 2.567974 0.8291092
v 0.1307945 2.56185 1.213055
v 1.082991 2.567974 1.233471
v 1.082991 2.466242 1.233471
v 0.4563427 2.459261 1.205677
v 0.8332577 2.564987 1.223412
v 0.1307945 2.56185 1.213055
v -1.152679 2.466242 1.234512
v -1.152679 2.567974 1.234512
v 1.082991 2.466242 1.233471
v 1.125761 2.466242 0.8301506
v 0.4746704 2.473867 0.8558273
v 0.4563427 2.459261 1.205677
v -1.123411 2.466242 0.8291092
v -1.152679 2.466242 1.234512
v 1.207977 2.555957 0.8904572
v 1.125761 2.567974 0.8301506
v 1.125761 2.466242 0.8301506
v 1.207977 2.478259 0.8904572
v 1.207977 2.555957 1.173164
v 1.082991 2.567974 1.233471
v 1.125761 2.567974 0.8301506
v 1.207977 2.555957 0.8904572
v 1.207977 2.478259 1.173164
v 1.082991 2.466242 1.233471
v 1.082991 2.567974 1.233471
v 1.207977 2.555957 1.173164
v 1.207977 2.478259 0.8904572
v 1.125761 2.466242 0.8301506
v 1.082991 2.466242 1.233471
v 1.207977 2.478259 1.173164
v 0.4550381 2.568006 1.024384
v 0.8332577 2.564987 1.223412
v 0.4563427 2.459261 1.205677
v 0.1307945 2.56185 1.213055
v 0.4550381 2.568006 1.024384
v 0.4563427 2.459261 1.205677
v -0.2009621 2.572616 -0.89674
v -0.1971397 2.485522 -0.8900986
v -1.079788 2.466242 -0.8031769
v -1.079788 2.567974 -0.8031769
v -0.09361076 2.548695 -1.234512
v -0.2009621 2.572616 -0.89674
v -1.079788 2.567974 -0.8031769
v -1.079788 2.567974 -1.209641
v -1.18807 2.565454 -0.8132477
v -1.18807 2.565454 -1.19957
v 0.140522 2.586366 -1.203522
v 0.1824551 2.548644 -0.8069153
v 1.080399 2.567974 -1.209641
v 1.080399 2.567974 -0.8031769
v 1.214649 2.557768 -0.8439522
v 1.214649 2.557768 -1.168865
v -0.08978844 2.461601 -1.226997
v -0.09361076 2.548695 -1.234512
v -1.079788 2.567974 -1.209641
v -1.079788 2.466242 -1.209641
v -1.18807 2.565454 -1.19957
v -1.18807 2.468762 -1.19957
v -0.1971397 2.485522 -0.8900986
v -0.08978844 2.461601 -1.226997
v -1.079788 2.466242 -1.209641
v -1.079788 2.466242 -0.8031769
v -1.18807 2.468762 -1.19957
v -1.18807 2.468762 -0.8132477
v 0.1714611 2.44785 -0.8142471
v 0.12953 2.485572 -1.211823
v 1.080399 2.466242 -0.8031769
v 1.080399 2.466242 -1.209641
v 1.214649 2.476448 -1.168865
v 1.214649 2.476448 -0.8439522
v -1.18807 2.468762 -0.8132477
v -1.18807 2.468762 -1.19957
v -1.18807 2.565454 -1.19957
v -1.18807 2.565454 -0.8132477
v 1.214649 2.476448 -1.168865
v 1.214649 2.476448 -0.8439522
v 1.214649 2.557768 -0.8439522
v 1.214649 2.557768 -1.168865
v 1.214649 2.476448 -0.8439522
v 1.080399 2.466242 -0.8031769
v 1.080399 2.567974 -0.8031769
v 1.214649 2.557768 -0.8439522
v 1.214649 2.557768 -1.168865
v 1.080399 2.567974 -1.209641
v 1.080399 2.466242 -1.209641
v 1.214649 2.476448 -1.168865
v -1.079788 2.567974 -0.8031769
v -1.079788 2.466242 -0.8031769
v -1.18807 2.468762 -0.8132477
v -1.18807 2.565454 -0.8132477
v 0.1824551 2.548644 -0.8069153
v 0.1714611 2.44785 -0.8142471
v -0.1971397 2.485522 -0.8900986
v -0.2009621 2.572616 -0.89674
v 0.12953 2.485572 -1.211823
v 0.140522 2.586366 -1.203522
v -0.09361076 2.548695 -1.234512
v -0.08978844 2.461601 -1.226997
v 1.080399 2.567974 -0.8031769
v 1.080399 2.466242 -0.8031769
v 0.1714611 2.44785 -0.8142471
v 0.1824551 2.548644 -0.8069153
v 1.080399 2.466242 -1.209641
v 1.080399 2.567974 -1.209641
v 0.140522 2.586366 -1.203522
v 0.12953 2.485572 -1.211823
v -1.152679 2.567974 -0.3926811
v -1.152679 2.466242 -0.3926811
v -1.25 2.481578 -0.4487076
v -1.25 2.552639 -0.4487076
v -1.123411 2.567974 -0.7666054
v -1.152679 2.567974 -0.3926811
v -1.25 2.552639 -0.4487076
v -1.25 2.552639 -0.7105789
v -1.123411 2.466242 -0.7666054
v -1.123411 2.567974 -0.7666054
v -1.25 2.552639 -0.7105789
v -1.25 2.481578 -0.7105789
v -1.152679 2.466242 -0.3926811
v -1.123411 2.466242 -0.7666054
v -1.25 2.481578 -0.7105789
v -1.25 2.481578 -0.4487076
v -1.25 2.481578 -0.4487076
v -1.25 2.481578 -0.7105789
v -1.25 2.552639 -0.7105789
v -1.25 2.552639 -0.4487076
v 1.25 2.478259 -0.7228088
v 1.25 2.478259 -0.4364777
v 1.25 2.555957 -0.4364777
v 1.25 2.555957 -0.7228088
v 1.035723 2.466242 -0.7656403
v 1.035723 2.567974 -0.7656403
v -0.4957981 2.579912 -0.7376823
v -0.4876728 2.478643 -0.7419014
v -1.123411 2.567974 -0.7666054
v -1.123411 2.466242 -0.7666054
v 1.035723 2.567974 -0.7656403
v 1.086163 2.567974 -0.3936462
v -0.5377102 2.555573 -0.4173851
v -0.4957981 2.579912 -0.7376823
v 1.25 2.555957 -0.4364777
v 1.25 2.555957 -0.7228088
v -1.152679 2.567974 -0.3926811
v -1.123411 2.567974 -0.7666054
v 1.086163 2.567974 -0.3936462
v 1.086163 2.466242 -0.3936462
v -0.5295849 2.454304 -0.4216042
v -0.5377102 2.555573 -0.4173851
v -1.152679 2.466242 -0.3926811
v -1.152679 2.567974 -0.3926811
v 1.086163 2.466242 -0.3936462
v 1.035723 2.466242 -0.7656403
v -0.4876728 2.478643 -0.7419014
v -0.5295849 2.454304 -0.4216042
v 1.25 2.478259 -0.7228088
v 1.25 2.478259 -0.4364777
v -1.123411 2.466242 -0.7666054
v -1.152679 2.466242 -0.3926811
v 1.25 2.555957 -0.7228088
v 1.035723 2.567974 -0.7656403
v 1.035723 2.466242 -0.7656403
v 1.25 2.478259 -0.7228088
v 1.25 2.478259 -0.4364777
v 1.086163 2.466242 -0.3936462
v 1.086163 2.567974 -0.3936462
v 1.25 2.555957 -0.4364777
v 1.152679 2.567974 -0.3500175
v 1.152679 2.466242 -0.3500175
v 1.207977 2.481578 -0.2816162
v 1.207977 2.552639 -0.2816162
v 1.123411 2.567974 0.02765274
v 1.152679 2.567974 -0.3500175
v 1.207977 2.552639 -0.2816162
v 1.207977 2.552639 -0.0407486
v 1.123411 2.466242 0.02765274
v 1.123411 2.567974 0.02765274
v 1.207977 2.552639 -0.0407486
v 1.207977 2.481578 -0.0407486
v 1.152679 2.466242 -0.3500175
v 1.123411 2.466242 0.02765274
v 1.207977 2.481578 -0.0407486
v 1.207977 2.481578 -0.2816162
v 1.207977 2.481578 -0.2816162
v 1.207977 2.481578 -0.0407486
v 1.207977 2.552639 -0.0407486
v 1.207977 2.552639 -0.2816162
v -1.207977 2.478259 -0.02949905
v -1.207977 2.478259 -0.2928658
v -1.207977 2.555957 -0.2928658
v -1.207977 2.555957 -0.02949905
v -1.125761 2.466242 0.02667999
v -1.125761 2.567974 0.02667999
v -0.4637566 2.574955 0.0007858276
v -0.4746704 2.473867 0.002758026
v 1.123411 2.567974 0.02765274
v 1.123411 2.466242 0.02765274
v -1.125761 2.567974 0.02667999
v -1.082991 2.567974 -0.3490448
v -0.8332577 2.564987 -0.3396759
v -0.4550381 2.568006 -0.1542625
v -0.4637566 2.574955 0.0007858276
v 1.123411 2.567974 0.02765274
v -0.1307945 2.56185 -0.3300247
v 1.152679 2.567974 -0.3500175
v -1.082991 2.567974 -0.3490448
v -1.082991 2.466242 -0.3490448
v -0.4563427 2.459261 -0.3231506
v -0.8332577 2.564987 -0.3396759
v -0.1307945 2.56185 -0.3300247
v 1.152679 2.466242 -0.3500175
v 1.152679 2.567974 -0.3500175
v -1.082991 2.466242 -0.3490448
v -1.125761 2.466242 0.02667999
v -0.4746704 2.473867 0.002758026
v -0.4563427 2.459261 -0.3231506
v 1.123411 2.466242 0.02765274
v 1.152679 2.466242 -0.3500175
v -1.207977 2.555957 -0.02949905
v -1.125761 2.567974 0.02667999
v -1.125761 2.466242 0.02667999
v -1.207977 2.478259 -0.02949905
v -1.207977 2.555957 -0.2928658
v -1.082991 2.567974 -0.3490448
v -1.125761 2.567974 0.02667999
v -1.207977 2.555957 -0.02949905
v -1.207977 2.478259 -0.2928658
v -1.082991 2.466242 -0.3490448
v -1.082991 2.567974 -0.3490448
v -1.207977 2.555957 -0.2928658
v -1.207977 2.478259 -0.02949905
v -1.125761 2.466242 0.02667999
v -1.082991 2.466242 -0.3490448
v -1.207977 2.478259 -0.2928658
v -0.4550381 2.568006 -0.1542625
v -0.8332577 2.564987 -0.3396759
v -0.4563427 2.459261 -0.3231506
v -0.1307945 2.56185 -0.3300247
v -0.4550381 2.568006 -0.1542625
v -0.4563427 2.459261 -0.3231506
v 1.152679 2.567974 0.4523621
v 1.152679 2.466242 0.4523621
v 1.25 2.481578 0.505127
v 1.25 2.552639 0.505127
v 1.123411 2.567974 0.8045273
v 1.152679 2.567974 0.4523621
v 1.25 2.552639 0.505127
v 1.25 2.552639 0.7517624
v 1.123411 2.466242 0.8045273
v 1.123411 2.567974 0.8045273
v 1.25 2.552639 0.7517624
v 1.25 2.481578 0.7517624
v 1.152679 2.466242 0.4523621
v 1.123411 2.466242 0.8045273
v 1.25 2.481578 0.7517624
v 1.25 2.481578 0.505127
v 1.25 2.481578 0.505127
v 1.25 2.481578 0.7517624
v 1.25 2.552639 0.7517624
v 1.25 2.552639 0.505127
v -1.25 2.478259 0.763279
v -1.25 2.478259 0.4936104
v -1.25 2.555957 0.4936104
v -1.25 2.555957 0.763279
v -1.035723 2.466242 0.8036194
v -1.035723 2.567974 0.8036194
v 0.4957981 2.579912 0.7772865
v 0.4876728 2.478643 0.7812614
v 1.123411 2.567974 0.8045273
v 1.123411 2.466242 0.8045273
v -1.035723 2.567974 0.8036194
v -1.086163 2.567974 0.45327
v 0.5377102 2.555573 0.4756279
v 0.4957981 2.579912 0.7772865
v -1.25 2.555957 0.4936104
v -1.25 2.555957 0.763279
v 1.152679 2.567974 0.4523621
v 1.123411 2.567974 0.8045273
v -1.086163 2.567974 0.45327
v -1.086163 2.466242 0.45327
v 0.5295849 2.454304 0.4796028
v 0.5377102 2.555573 0.4756279
v 1.152679 2.466242 0.4523621
v 1.152679 2.567974 0.4523621
v -1.086163 2.466242 0.45327
v -1.035723 2.466242 0.8036194
v 0.4876728 2.478643 0.7812614
v 0.5295849 2.454304 0.4796028
v -1.25 2.478259 0.763279
v -1.25 2.478259 0.4936104
v 1.123411 2.466242 0.8045273
v 1.152679 2.466242 0.4523621
v -1.25 2.555957 0.763279
v -1.035723 2.567974 0.8036194
v -1.035723 2.466242 0.8036194
v -1.25 2.478259 0.763279
v -1.25 2.478259 0.4936104
v -1.086163 2.466242 0.45327
v -1.086163 2.567974 0.45327
v -1.25 2.555957 0.4936104
v 0.2009621 2.572616 0.1449318
v 0.1971397 2.485522 0.1390991
v 1.079788 2.466242 0.06772614
v 1.079788 2.567974 0.06772614
v 0.09361076 2.548695 0.4024658
v 0.2009621 2.572616 0.1449318
v 1.079788 2.567974 0.06772614
v 1.079788 2.567974 0.3831635
v 1.18807 2.565454 0.07554245
v 1.18807 2.565454 0.3753471
v -0.140522 2.586366 0.3784142
v -0.1824551 2.548644 0.06603241
v -1.080399 2.567974 0.3831635
v -1.080399 2.567974 0.06772614
v -1.214649 2.557768 0.09937286
v -1.214649 2.557768 0.3515167
v 0.08978844 2.461601 0.3966331
v 0.09361076 2.548695 0.4024658
v 1.079788 2.567974 0.3831635
v 1.079788 2.466242 0.3831635
v 1.18807 2.565454 0.3753471
v 1.18807 2.468762 0.3753471
v 0.1971397 2.485522 0.1390991
v 0.08978844 2.461601 0.3966331
v 1.079788 2.466242 0.3831635
v 1.079788 2.466242 0.06772614
v 1.18807 2.468762 0.3753471
v 1.18807 2.468762 0.07554245
v -0.1714611 2.44785 0.07247543
v -0.12953 2.485572 0.3848572
v -1.080399 2.466242 0.06772614
v -1.080399 2.466242 0.3831635
v -1.214649 2.476448 0.3515167
v -1.214649 2.476448 0.09937286
v 1.18807 2.468762 0.07554245
v 1.18807 2.468762 0.3753471
v 1.18807 2.565454 0.3753471
v 1.18807 2.565454 0.07554245
v -1.214649 2.476448 0.3515167
v -1.214649 2.476448 0.09937286
v -1.214649 2.557768 0.09937286
v -1.214649 2.557768 0.3515167
v -1.214649 2.476448 0.09937286
v -1.080399 2.466242 0.06772614
v -1.080399 2.567974 0.06772614
v -1.214649 2.557768 0.09937286
v -1.214649 2.557768 0.3515167
v -1.080399 2.567974 0.3831635
v -1.080399 2.466242 0.3831635
v -1.214649 2.476448 0.3515167
v 1.079788 2.567974 0.06772614
v 1.079788 2.466242 0.06772614
v 1.18807 2.468762 0.07554245
v 1.18807 2.565454 0.07554245
v -0.1824551 2.548644 0.06603241
v -0.1714611 2.44785 0.07247543
v 0.1971397 2.485522 0.1390991
v 0.2009621 2.572616 0.1449318
v -0.12953 2.485572 0.3848572
v -0.140522 2.586366 0.3784142
v 0.09361076 2.548695 0.4024658
v 0.08978844 2.461601 0.3966331
v -1.080399 2.466242 0.3831635
v -1.080399 2.567974 0.3831635
v -1.080399 2.567974 0.06772614
v -1.080399 2.466242 0.06772614
v -0.1714611 2.44785 0.07247543
v -0.1824551 2.548644 0.06603241
v 1.080763 2.284149 1.351707
v 0.7214546 2.284149 1.351707
v 0.7214546 2.521416 1.351707
v 1.080763 2.521416 1.351707
v 1.080763 2.521416 1.351707
v 0.7214546 2.521416 1.351707
v 0.6953678 2.521416 -1.161018
v 1.054676 2.521416 -1.161018
v 1.054676 2.521416 -1.161018
v 0.6953678 2.521416 -1.161018
v 0.6953678 2.284149 -1.161018
v 1.054676 2.284149 -1.161018
v 1.054676 2.284149 -1.161018
v 0.6953678 2.284149 -1.161018
v 0.7214546 2.284149 1.351707
v 1.080763 2.284149 1.351707
v 0.7214546 2.284149 1.351707
v 0.6953678 2.284149 -1.161018
v 0.6953678 2.521416 -1.161018
v 0.7214546 2.521416 1.351707
v 1.054676 2.284149 -1.161018
v 1.080763 2.284149 1.351707
v 1.080763 2.521416 1.351707
v 1.054676 2.521416 -1.161018
v -0.6847591 2.284149 1.351707
v -1.044067 2.284149 1.351707
v -1.044067 2.521416 1.351707
v -0.6847591 2.521416 1.351707
v -0.6847591 2.521416 1.351707
v -1.044067 2.521416 1.351707
v -1.094505 2.521416 -1.161018
v -0.7351971 2.521416 -1.161018
v -0.7351971 2.521416 -1.161018
v -1.094505 2.521416 -1.161018
v -1.094505 2.284149 -1.161018
v -0.7351971 2.284149 -1.161018
v -0.7351971 2.284149 -1.161018
v -1.094505 2.284149 -1.161018
v -1.044067 2.284149 1.351707
v -0.6847591 2.284149 1.351707
v -1.044067 2.284149 1.351707
v -1.094505 2.284149 -1.161018
v -1.094505 2.521416 -1.161018
v -1.044067 2.521416 1.351707
v -0.7351971 2.284149 -1.161018
v -0.6847591 2.284149 1.351707
v -0.6847591 2.521416 1.351707
v -0.7351971 2.521416 -1.161018
vt 0.6518555 0.1105347
vt 0.6518555 0.1105347
vt 0.6518555 0.1105347
vt 0.6518555 0.1105347
vt 0.6518555 0.1105347
vt 0.6518555 0.1105347
vt 0.6518555 0.1105347
vt 0.6518555 0.1105347
vt 0.6518555 0.1105347
vt 0.6518555 0.1105347
vt 0.6518555 0.1105347
vt 0.6518555 0.1105347
vt 0.6518555 0.1105347
vt 0.6518555 0.1105347
vt 0.6518555 0.1105347
vt 0.6518555 0.1105347
vt 0.6518555 0.1105347
vt 0.6518555 0.1105347
vt 0.6518555 0.1105347
vt 0.6518555 0.1105347
vt 0.6518555 0.1105347
vt 0.6518555 0.1105347
vt 0.6518555 0.1105347
vt 0.6518555 0.1105347
vt 0.6518555 0.1105347
vt 0.6518555 0.1105347
vt 0.6518555 0.1105347
vt 0.6518555 0.1105347
vt 0.6518555 0.1105347
vt 0.6518555 0.1105347
vt 0.6518555 0.1105347
vt 0.6518555 0.1105347
vt 0.6518555 0.1105347
vt 0.6518555 0.1105347
vt 0.6518555 0.1105347
vt 0.6518555 0.1105347
vt 0.6518555 0.1105347
vt 0.6518555 0.1105347
vt 0.6518555 0.1105347
vt 0.6518555 0.1105347
vt 0.6518555 0.1105347
vt 0.6518555 0.1105347
vt 0.6518555 0.1105347
vt 0.6518555 0.1105347
vt 0.6518555 0.1105347
vt 0.6518555 0.1105347
vt 0.6518555 0.1105347
vt 0.6518555 0.1105347
vt 0.6518555 0.1105347
vt 0.6518555 0.1105347
vt 0.6518555 0.1105347
vt 0.6518555 0.1105347
vt 0.6518555 0.1105347
vt 0.6518555 0.1105347
vt 0.6518555 0.1105347
vt 0.6518555 0.1105347
vt 0.6518555 0.1105347
vt 0.6518555 0.1105347
vt 0.6518555 0.1105347
vt 0.6518555 0.1105347
vt 0.6518555 0.1105347
vt 0.6518555 0.1105347
vt 0.6518555 0.1105347
vt 0.6518555 0.1105347
vt 0.6518555 0.1105347
vt 0.6518555 0.1105347
vt 0.6518555 0.1105347
vt 0.6518555 0.1105347
vt 0.6518555 0.1105347
vt 0.6518555 0.1105347
vt 0.6518555 0.1105347
vt 0.6518555 0.1105347
vt 0.6518555 0.1105347
vt 0.6518555 0.1105347
vt 0.6518555 0.1105347
vt 0.6518555 0.1105347
vt 0.6518555 0.1105347
vt 0.6518555 0.1105347
vt 0.6518555 0.1105347
vt 0.6518555 0.1105347
vt 0.6518555 0.1105347
vt 0.6518555 0.1105347
vt 0.6518555 0.1105347
vt 0.6518555 0.1105347
vt 0.6518555 0.1105347
vt 0.6518555 0.1105347
vt 0.6518555 0.1105347
vt 0.6518555 0.1105347
vt 0.6518555 0.1105347
vt 0.6518555 0.1105347
vt 0.6518555 0.1105347
vt 0.6518555 0.1105347
vt 0.6518555 0.1105347
vt 0.6518555 0.1105347
vt 0.6518555 0.1105347
vt 0.6518555 0.1105347
vt 0.6518555 0.1105347
vt 0.6518555 0.1105347
vt 0.6518555 0.1105347
vt 0.6518555 0.1105347
vt 0.6518555 0.1105347
vt 0.6518555 0.1105347
vt 0.6518555 0.1105347
vt 0.6518555 0.1105347
vt 0.6518555 0.1105347
vt 0.6518555 0.1105347
vt 0.6518555 0.1105347
vt 0.6518555 0.1105347
vt 0.6518555 0.1105347
vt 0.6518555 0.1105347
vt 0.6518555 0.1105347
vt 0.6518555 0.1105347
vt 0.6518555 0.1105347
vt 0.6518555 0.1105347
vt 0.6518555 0.1105347
vt 0.6518555 0.1105347
vt 0.6518555 0.1105347
vt 0.6518555 0.1105347
vt 0.6518555 0.1105347
vt 0.6518555 0.1105347
vt 0.6518555 0.1105347
vt 0.6518555 0.1105347
vt 0.6518555 0.1105347
vt 0.6518555 0.1105347
vt 0.6518555 0.1105347
vt 0.6518555 0.1105347
vt 0.6518555 0.1105347
vt 0.6518555 0.1105347
vt 0.6518555 0.1105347
vt 0.6518555 0.1105347
vt 0.6518555 0.1105347
vt 0.6518555 0.1105347
vt 0.6518555 0.1105347
vt 0.6518555 0.1105347
vt 0.6518555 0.1105347
vt 0.6518555 0.1105347
vt 0.6518555 0.1105347
vt 0.6518555 0.1105347
vt 0.6518555 0.1105347
vt 0.6518555 0.1105347
vt 0.6518555 0.1105347
vt 0.6518555 0.1105347
vt 0.6518555 0.1105347
vt 0.6518555 0.1105347
vt 0.6518555 0.1105347
vt 0.6518555 0.1105347
vt 0.6518555 0.1105347
vt 0.6518555 0.1105347
vt 0.6518555 0.1105347
vt 0.6518555 0.1105347
vt 0.6518555 0.1105347
vt 0.6518555 0.1105347
vt 0.6518555 0.1105347
vt 0.6518555 0.1105347
vt 0.6518555 0.1105347
vt 0.6518555 0.1105347
vt 0.6518555 0.1105347
vt 0.6518555 0.1105347
vt 0.6518555 0.1105347
vt 0.6518555 0.1105347
vt 0.6518555 0.1105347
vt 0.6518555 0.1105347
vt 0.6518555 0.1105347
vt 0.6518555 0.1105347
vt 0.6518555 0.1105347
vt 0.6518555 0.1105347
vt 0.6518555 0.1105347
vt 0.6518555 0.1105347
vt 0.6518555 0.1105347
vt 0.6518555 0.1105347
vt 0.6518555 0.1105347
vt 0.6518555 0.1105347
vt 0.6518555 0.1105347
vt 0.6518555 0.1105347
vt 0.6518555 0.1105347
vt 0.6518555 0.1105347
vt 0.6518555 0.1105347
vt 0.6518555 0.1105347
vt 0.6518555 0.1105347
vt 0.6518555 0.1105347
vt 0.6518555 0.1105347
vt 0.6518555 0.1105347
vt 0.6518555 0.1105347
vt 0.6518555 0.1105347
vt 0.6518555 0.1105347
vt 0.6518555 0.1105347
vt 0.6518555 0.1105347
vt 0.6518555 0.1105347
vt 0.6518555 0.1105347
vt 0.6518555 0.1105347
vt 0.6518555 0.1105347
vt 0.6518555 0.1105347
vt 0.6518555 0.1105347
vt 0.6518555 0.1105347
vt 0.6518555 0.1105347
vt 0.6518555 0.1105347
vt 0.6518555 0.1105347
vt 0.6518555 0.1105347
vt 0.6518555 0.1105347
vt 0.6518555 0.1105347
vt 0.6518555 0.1105347
vt 0.6518555 0.1105347
vt 0.6518555 0.1105347
vt 0.6518555 0.1105347
vt 0.6518555 0.1105347
vt 0.6518555 0.1105347
vt 0.6518555 0.1105347
vt 0.6518555 0.1105347
vt 0.6518555 0.1105347
vt 0.6518555 0.1105347
vt 0.6518555 0.1105347
vt 0.6518555 0.1105347
vt 0.6518555 0.1105347
vt 0.6518555 0.1105347
vt 0.6518555 0.1105347
vt 0.6518555 0.1105347
vt 0.6518555 0.1105347
vt 0.6518555 0.1105347
vt 0.6518555 0.1105347
vt 0.6518555 0.1105347
vt 0.6518555 0.1105347
vt 0.6518555 0.1105347
vt 0.6518555 0.1105347
vt 0.6518555 0.1105347
vt 0.6518555 0.1105347
vt 0.6518555 0.1105347
vt 0.6518555 0.1105347
vt 0.6518555 0.1105347
vt 0.6518555 0.1105347
vt 0.6518555 0.1105347
vt 0.6518555 0.1105347
vt 0.6518555 0.1105347
vt 0.6518555 0.1105347
vt 0.6518555 0.1105347
vt 0.6518555 0.1105347
vt 0.6518555 0.1105347
vt 0.6518555 0.1105347
vt 0.6518555 0.1105347
vt 0.6518555 0.1105347
vt 0.6518555 0.1105347
vt 0.6518555 0.1105347
vt 0.6518555 0.1105347
vt 0.6518555 0.1105347
vt 0.6518555 0.1105347
vt 0.6518555 0.1105347
vt 0.6518555 0.1105347
vt 0.6518555 0.1105347
vt 0.6518555 0.1105347
vt 0.6518555 0.1105347
vt 0.6518555 0.1105347
vt 0.6518555 0.1105347
vt 0.6518555 0.1105347
vt 0.6518555 0.1105347
vt 0.6518555 0.1105347
vt 0.6518555 0.1105347
vt 0.6518555 0.1105347
vt 0.6518555 0.1105347
vt 0.6518555 0.1105347
vt 0.6518555 0.1105347
vt 0.6518555 0.1105347
vt 0.6518555 0.1105347
vt 0.6518555 0.1105347
vt 0.6518555 0.1105347
vt 0.6518555 0.1105347
vt 0.6518555 0.1105347
vt 0.6518555 0.1105347
vt 0.6518555 0.1105347
vt 0.6518555 0.1105347
vt 0.6518555 0.1105347
vt 0.6518555 0.1105347
vt 0.6518555 0.1105347
vt 0.6518555 0.1105347
vt 0.6518555 0.1105347
vt 0.6518555 0.1105347
vt 0.6518555 0.1105347
vt 0.6518555 0.1105347
vt 0.6518555 0.1105347
vt 0.6518555 0.1105347
vt 0.6518555 0.1105347
vt 0.6518555 0.1105347
vt 0.6518555 0.1105347
vt 0.6518555 0.1105347
vt 0.6518555 0.1105347
vt 0.6518555 0.1105347
vt 0.6518555 0.1105347
vt 0.6518555 0.1105347
vt 0.6518555 0.1105347
vt 0.6518555 0.1105347
vt 0.6518555 0.1105347
vt 0.6518555 0.1105347
vt 0.6518555 0.1105347
vt 0.6518555 0.1105347
vt 0.6518555 0.1105347
vt 0.6518555 0.1105347
vt 0.6518555 0.1105347
vt 0.6518555 0.1105347
vt 0.6518555 0.1105347
vt 0.6518555 0.1105347
vt 0.6518555 0.1105347
vt 0.6518555 0.1105347
vt 0.6518555 0.1105347
vt 0.6518555 0.1105347
vt 0.6518555 0.1105347
vt 0.6518555 0.1105347
vt 0.6518555 0.1105347
vt 0.6518555 0.1105347
vt 0.6518555 0.1105347
vt 0.6518555 0.1105347
vt 0.6518555 0.1105347
vt 0.6518555 0.1105347
vt 0.6518555 0.1105347
vt 0.6518555 0.1105347
vt 0.6518555 0.1105347
vt 0.6518555 0.1105347
vt 0.6518555 0.1105347
vt 0.6518555 0.1105347
vt 0.6518555 0.1105347
vt 0.6518555 0.1105347
vt 0.6518555 0.1105347
vt 0.6518555 0.1105347
vt 0.6518555 0.1105347
vt 0.6518555 0.1105347
vt 0.6518555 0.1105347
vt 0.6518555 0.1105347
vt 0.6518555 0.1105347
vt 0.6518555 0.1105347
vt 0.6518555 0.1105347
vt 0.6518555 0.1105347
vt 0.6518555 0.1105347
vt 0.6518555 0.1105347
vt 0.6518555 0.1105347
vt 0.6518555 0.1105347
vt 0.6518555 0.1105347
vt 0.6518555 0.1105347
vt 0.6518555 0.1105347
vt 0.6518555 0.1105347
vt 0.6518555 0.1105347
vt 0.6518555 0.1105347
vt 0.6518555 0.1105347
vt 0.6518555 0.1105347
vt 0.6518555 0.1105347
vt 0.6518555 0.1105347
vt 0.6518555 0.1105347
vt 0.6518555 0.1105347
vt 0.6518555 0.1105347
vt 0.6518555 0.1105347
vt 0.6518555 0.1105347
vt 0.6518555 0.1105347
vt 0.6518555 0.1105347
vt 0.6518555 0.1105347
vt 0.6518555 0.1105347
vt 0.6518555 0.1105347
vt 0.6518555 0.1105347
vt 0.6518555 0.1105347
vt 0.6518555 0.1105347
vt 0.6518555 0.1105347
vt 0.6518555 0.1105347
vt 0.6518555 0.1105347
vt 0.6518555 0.1105347
vt 0.6518555 0.1105347
vt 0.6518555 0.1105347
vt 0.6518555 0.1105347
vt 0.6518555 0.1105347
vt 0.6518555 0.1105347
vt 0.6518555 0.1105347
vt 0.6518555 0.1105347
vt 0.6518555 0.1105347
vt 0.6518555 0.1105347
vt 0.6518555 0.1105347
vt 0.6518555 0.1105347
vt 0.6518555 0.1105347
vt 0.6518555 0.1105347
vt 0.6518555 0.1105347
vt 0.6518555 0.1105347
vt 0.6518555 0.1105347
vt 0.6518555 0.1105347
vt 0.6518555 0.1105347
vt 0.6518555 0.1105347
vt 0.6518555 0.1105347
vt 0.6518555 0.1105347
vt 0.6518555 0.1105347
vt 0.6518555 0.1105347
vt 0.6518555 0.1105347
vt 0.6518555 0.1105347
vt 0.6518555 0.1105347
vt 0.6518555 0.1105347
vt 0.6518555 0.1105347
vt 0.6518555 0.1105347
vt 0.6518555 0.1105347
vt 0.6518555 0.1105347
vt 0.6518555 0.1105347
vt 0.6518555 0.1105347
vt 0.6518555 0.1105347
vt 0.6518555 0.1105347
vt 0.6518555 0.1105347
vt 0.6518555 0.1105347
vt 0.6518555 0.1105347
vt 0.6518555 0.1105347
vt 0.6518555 0.1105347
vt 0.6518555 0.1105347
vt 0.6518555 0.1105347
vt 0.6518555 0.1105347
vt 0.6518555 0.1105347
vt 0.6518555 0.1105347
vt 0.6518555 0.1105347
vt 0.6518555 0.1105347
vt 0.6518555 0.1105347
vt 0.6518555 0.1105347
vt 0.6518555 0.1105347
vt 0.6518555 0.1105347
vt 0.6518555 0.1105347
vt 0.6518555 0.1105347
vt 0.6518555 0.1105347
vt 0.6518555 0.1105347
vt 0.6518555 0.1105347
vt 0.6518555 0.1105347
vt 0.6518555 0.1105347
vt 0.6518555 0.1105347
vt 0.6518555 0.1105347
vt 0.6518555 0.1105347
vt 0.6518555 0.1105347
vt 0.6518555 0.1105347
vt 0.6518555 0.1105347
vt 0.6518555 0.1105347
vt 0.6518555 0.1105347
vt 0.6518555 0.1105347
vt 0.6518555 0.1105347
vt 0.6518555 0.1105347
vt 0.6518555 0.1105347
vt 0.6518555 0.1105347
vt 0.6518555 0.1105347
vt 0.6518555 0.1105347
vt 0.6518555 0.1105347
vt 0.6518555 0.1105347
vt 0.6518555 0.1105347
vt 0.6518555 0.1105347
vt 0.6518555 0.1105347
vt 0.6518555 0.1105347
vt 0.6518555 0.1105347
vt 0.6518555 0.1105347
vt 0.6518555 0.1105347
vt 0.6518555 0.1105347
vt 0.6518555 0.1105347
vt 0.6518555 0.1105347
vt 0.6518555 0.1105347
vt 0.6518555 0.1105347
vt 0.6518555 0.1105347
vt 0.6518555 0.1105347
vt 0.6518555 0.1105347
vt 0.6518555 0.1105347
vt 0.6518555 0.1105347
vt 0.6518555 0.1105347
vn -0.7988281 0 0.6015625
vn -0.7988281 0 0.6015625
vn -0.7988281 0 0.6015625
vn -0.7988281 0 0.6015625
vn -0.2142334 0.9765625 -0.00944519
vn -0.2142334 0.9765625 -0.00944519
vn -0.2142334 0.9765625 -0.00944519
vn -0.2142334 0.9765625 -0.00944519
vn -0.6557617 0 -0.7548828
vn -0.6557617 0 -0.7548828
vn -0.6557617 0 -0.7548828
vn -0.6557617 0 -0.7548828
vn -0.2142334 -0.9765625 -0.00944519
vn -0.2142334 -0.9765625 -0.00944519
vn -0.2142334 -0.9765625 -0.00944519
vn -0.2142334 -0.9765625 -0.00944519
vn -1 0 0
vn -1 0 0
vn -1 0 0
vn -1 0 0
vn 1 0 0
vn 1 0 0
vn 1 0 0
vn 1 0 0
vn -0.04058838 0.008247375 -0.9990234
vn -0.04058838 0.008247375 -0.9990234
vn -0.01161194 0.009811401 -1
vn -0.01161194 0.009811401 -1
vn 0.01737976 0.01137543 -1
vn 0.01737976 0.01137543 -1
vn -0.000483036 1 0.02095032
vn 0.0105896 1 0.001123428
vn -0.00553894 0.9995117 0.02770996
vn -0.004066467 0.9990234 0.04150391
vn -0.01360321 0.9990234 0.04098511
vn 0.002182007 0.9995117 0.02789307
vn -0.004390717 1 -0.0003170967
vn 0.005470276 0.9990234 0.04199219
vn -0.0430603 -0.007152557 0.9990234
vn -0.0430603 -0.007152557 0.9990234
vn -0.01287079 -0.0078125 1
vn -0.0430603 -0.007152557 0.9990234
vn 0.01734924 -0.008460999 1
vn 0.01734924 -0.008460999 1
vn 0.01734924 -0.008460999 1
vn -0.0004715919 -1 -0.01942444
vn -0.0004715919 -1 -0.01942444
vn -0.0001418591 -1 -0.01937866
vn -0.0001418591 -1 -0.01937866
vn 0.000187993 -1 -0.01931763
vn 0.000187993 -1 -0.01931763
vn 0.5913086 0 -0.8061523
vn 0.5913086 0 -0.8061523
vn 0.5913086 0 -0.8061523
vn 0.5913086 0 -0.8061523
vn 0.1152344 0.9931641 0.007183075
vn 0.1152344 0.9931641 0.007183075
vn 0.1152344 0.9931641 0.007183075
vn 0.1152344 0.9931641 0.007183075
vn 0.4345703 0 0.9008789
vn 0.4345703 0 0.9008789
vn 0.4345703 0 0.9008789
vn 0.4345703 0 0.9008789
vn 0.1152344 -0.9931641 0.007183075
vn 0.1152344 -0.9931641 0.007183075
vn 0.1152344 -0.9931641 0.007183075
vn 0.1152344 -0.9931641 0.007183075
vn -0.2558594 0.828125 0.4985352
vn -0.2558594 0.828125 0.4985352
vn -0.2558594 0.828125 0.4985352
vn 0.2714844 0.8261719 0.4936523
vn 0.2714844 0.8261719 0.4936523
vn 0.2714844 0.8261719 0.4936523
vn 0.1013794 0.03701782 0.9941406
vn 0.1013794 0.03701782 0.9941406
vn 0.1013794 0.03701782 0.9941406
vn 0.1013794 0.03701782 0.9941406
vn -0.009780884 1 -0.007381439
vn -0.009780884 1 -0.007381439
vn -0.008705139 1 -0.01564026
vn -0.008705139 1 -0.01564026
vn -0.02326965 0.9995117 0
vn -0.02326965 0.9995117 0
vn -0.01293182 0.9995117 0.03173828
vn -0.01293182 0.9995117 0.03173828
vn 0.03771973 0.9990234 0.02349854
vn 0.03771973 0.9990234 0.02349854
vn 0.07580566 0.9970703 0
vn 0.07580566 0.9970703 0
vn -0.02183533 -0.04019165 -0.9990234
vn -0.02183533 -0.04019165 -0.9990234
vn -0.05728149 -0.02011108 -0.9980469
vn -0.05728149 -0.02011108 -0.9980469
vn -0.09259033 0 -0.9956055
vn -0.09259033 0 -0.9956055
vn -0.005214691 -1 0.006496429
vn -0.005214691 -1 0.006496429
vn -0.006793976 -1 0.01678467
vn -0.006793976 -1 0.01678467
vn -0.02326965 -0.9995117 0
vn -0.02326965 -0.9995117 0
vn -0.01013947 -0.9995117 -0.03372192
vn -0.01013947 -0.9995117 -0.03372192
vn 0.0378418 -0.9990234 -0.02345276
vn 0.0378418 -0.9990234 -0.02345276
vn 0.07580566 -0.9970703 0
vn 0.07580566 -0.9970703 0
vn -1 0 0
vn -1 0 0
vn -1 0 0
vn -1 0 0
vn 1 0 0
vn 1 0 0
vn 1 0 0
vn 1 0 0
vn 0.2905273 0 0.9570313
vn 0.2905273 0 0.9570313
vn 0.2905273 0 0.9570313
vn 0.2905273 0 0.9570313
vn 0.2905273 0 -0.9570313
vn 0.2905273 0 -0.9570313
vn 0.2905273 0 -0.9570313
vn 0.2905273 0 -0.9570313
vn -0.09259033 0 0.9956055
vn -0.09259033 0 0.9956055
vn -0.09259033 0 0.9956055
vn -0.09259033 0 0.9956055
vn -0.2148438 0.004608154 0.9765625
vn -0.2148438 0.004608154 0.9765625
vn -0.2148438 0.004608154 0.9765625
vn -0.2148438 0.004608154 0.9765625
vn 0.1012573 0.0002975464 -0.9946289
vn 0.1012573 0.0002975464 -0.9946289
vn 0.1012573 0.0002975464 -0.9946289
vn 0.1012573 0.0002975464 -0.9946289
vn -0.007442474 -0.0357666 0.9995117
vn -0.007442474 -0.0357666 0.9995117
vn -0.007442474 -0.0357666 0.9995117
vn -0.007442474 -0.0357666 0.9995117
vn -0.001261711 0.04101563 -0.9990234
vn -0.001261711 0.04101563 -0.9990234
vn -0.001261711 0.04101563 -0.9990234
vn -0.001261711 0.04101563 -0.9990234
vn -0.4990234 0 0.8666992
vn -0.4990234 0 0.8666992
vn -0.4990234 0 0.8666992
vn -0.4990234 0 0.8666992
vn -0.1357422 0.9907227 -0.006248474
vn -0.1357422 0.9907227 -0.006248474
vn -0.1357422 0.9907227 -0.006248474
vn -0.1357422 0.9907227 -0.006248474
vn -0.4047852 0 -0.9145508
vn -0.4047852 0 -0.9145508
vn -0.4047852 0 -0.9145508
vn -0.4047852 0 -0.9145508
vn -0.1357422 -0.9907227 -0.006248474
vn -0.1357422 -0.9907227 -0.006248474
vn -0.1357422 -0.9907227 -0.006248474
vn -0.1357422 -0.9907227 -0.006248474
vn -1 0 0
vn -1 0 0
vn -1 0 0
vn -1 0 0
vn 1 0 0
vn 1 0 0
vn 1 0 0
vn 1 0 0
vn -0.01675415 0.02011108 -0.9995117
vn -0.01675415 0.02011108 -0.9995117
vn 0.01261139 0.02128601 -0.9995117
vn 0.01261139 0.02128601 -0.9995117
vn 0.04196167 0.02244568 -0.9990234
vn 0.04196167 0.02244568 -0.9990234
vn 0.03167725 0.9995117 0.01515198
vn 0.03167725 0.9995117 0.01515198
vn 7.688999E-05 0.9995117 0.03509521
vn 7.688999E-05 0.9995117 0.03509521
vn 0.06341553 0.9980469 -0.004859924
vn 0.06341553 0.9980469 -0.004859924
vn 0.0002534389 0.9995117 0.0350647
vn 0.0002534389 0.9995117 0.0350647
vn -0.01579285 -0.02140808 0.9995117
vn -0.01579285 -0.02140808 0.9995117
vn 0.01355743 -0.02023315 0.9995117
vn 0.01355743 -0.02023315 0.9995117
vn 0.04290771 -0.01904297 0.9990234
vn 0.04290771 -0.01904297 0.9990234
vn 0.03167725 -0.9995117 -0.02000427
vn 0.03167725 -0.9995117 -0.02000427
vn 7.504225E-05 -0.9995117 -0.0350647
vn 7.504225E-05 -0.9995117 -0.0350647
vn 0.06341553 -0.9980469 -0.004859924
vn 0.06341553 -0.9980469 -0.004859924
vn 0.0002503395 -0.9995117 -0.03500366
vn 0.0002503395 -0.9995117 -0.03500366
vn 0.1960449 0 -0.9804688
vn 0.1960449 0 -0.9804688
vn 0.1960449 0 -0.9804688
vn 0.1960449 0 -0.9804688
vn 0.2529297 0 0.9672852
vn 0.2529297 0 0.9672852
vn 0.2529297 0 0.9672852
vn 0.2529297 0 0.9672852
vn 0.777832 0 -0.6289063
vn 0.777832 0 -0.6289063
vn 0.777832 0 -0.6289063
vn 0.777832 0 -0.6289063
vn 0.2142334 0.9765625 0.01013184
vn 0.2142334 0.9765625 0.01013184
vn 0.2142334 0.9765625 0.01013184
vn 0.2142334 0.9765625 0.01013184
vn 0.6289063 0 0.7773438
vn 0.6289063 0 0.7773438
vn 0.6289063 0 0.7773438
vn 0.6289063 0 0.7773438
vn 0.2142334 -0.9765625 0.01013184
vn 0.2142334 -0.9765625 0.01013184
vn 0.2142334 -0.9765625 0.01013184
vn 0.2142334 -0.9765625 0.01013184
vn 1 0 0
vn 1 0 0
vn 1 0 0
vn 1 0 0
vn -1 0 0
vn -1 0 0
vn -1 0 0
vn -1 0 0
vn 0.03781128 0.0076828 0.9990234
vn 0.03781128 0.0076828 0.9990234
vn 0.01081848 0.009140015 1
vn 0.01081848 0.009140015 1
vn -0.01620483 0.01059723 1
vn -0.01620483 0.01059723 1
vn -0.001089096 1 -0.01818848
vn 0.01190948 1 0.001355171
vn 0.004520416 1 -0.004543304
vn -0.001670837 0.9995117 -0.03231812
vn -0.003582001 0.9990234 -0.04498291
vn 0.001237869 0.9995117 -0.02456665
vn -0.0007166862 1 -0.01461029
vn -0.004776001 1 -0.0003702641
vn 0.04013062 -0.00668335 -0.9990234
vn 0.04013062 -0.00668335 -0.9990234
vn 0.01198578 -0.007289886 -1
vn 0.04013062 -0.00668335 -0.9990234
vn -0.01615906 -0.007888794 -1
vn -0.01615906 -0.007888794 -1
vn -0.01615906 -0.007888794 -1
vn 0.0004715919 -1 0.02085876
vn 0.0004715919 -1 0.02085876
vn 0.0001418591 -1 0.02079773
vn 0.0001418591 -1 0.02079773
vn -0.000187993 -1 0.02073669
vn -0.000187993 -1 0.02073669
vn -0.5639648 0 0.8256836
vn -0.5639648 0 0.8256836
vn -0.5639648 0 0.8256836
vn -0.5639648 0 0.8256836
vn -0.1152344 0.9931641 -0.007709503
vn -0.1152344 0.9931641 -0.007709503
vn -0.1152344 0.9931641 -0.007709503
vn -0.1152344 0.9931641 -0.007709503
vn -0.4099121 0 -0.9121094
vn -0.4099121 0 -0.9121094
vn -0.4099121 0 -0.9121094
vn -0.4099121 0 -0.9121094
vn -0.1152344 -0.9931641 -0.007709503
vn -0.1152344 -0.9931641 -0.007709503
vn -0.1152344 -0.9931641 -0.007709503
vn -0.1152344 -0.9931641 -0.007709503
vn 0.2509766 0.8129883 -0.5253906
vn 0.2509766 0.8129883 -0.5253906
vn 0.2509766 0.8129883 -0.5253906
vn -0.2666016 0.8115234 -0.5205078
vn -0.2666016 0.8115234 -0.5205078
vn -0.2666016 0.8115234 -0.5205078
vn 0.4765625 0 -0.8789063
vn 0.4765625 0 -0.8789063
vn 0.4765625 0 -0.8789063
vn 0.4765625 0 -0.8789063
vn 0.1357422 0.9907227 0.006633759
vn 0.1357422 0.9907227 0.006633759
vn 0.1357422 0.9907227 0.006633759
vn 0.1357422 0.9907227 0.006633759
vn 0.3847656 0 0.9228516
vn 0.3847656 0 0.9228516
vn 0.3847656 0 0.9228516
vn 0.3847656 0 0.9228516
vn 0.1357422 -0.9907227 0.006633759
vn 0.1357422 -0.9907227 0.006633759
vn 0.1357422 -0.9907227 0.006633759
vn 0.1357422 -0.9907227 0.006633759
vn 1 0 0
vn 1 0 0
vn 1 0 0
vn 1 0 0
vn -1 0 0
vn -1 0 0
vn -1 0 0
vn -1 0 0
vn 0.01577759 0.01893616 0.9995117
vn 0.01577759 0.01893616 0.9995117
vn -0.01187897 0.02005005 0.9995117
vn -0.01187897 0.02005005 0.9995117
vn -0.03952026 0.02114868 0.9990234
vn -0.03952026 0.02114868 0.9990234
vn -0.03167725 0.9995117 -0.01608276
vn -0.03167725 0.9995117 -0.01608276
vn -7.688999E-05 0.9995117 -0.03726196
vn -7.688999E-05 0.9995117 -0.03726196
vn -0.06341553 0.9980469 0.005161285
vn -0.06341553 0.9980469 0.005161285
vn -0.0002534389 0.9995117 -0.03723145
vn -0.0002534389 0.9995117 -0.03723145
vn 0.01487732 -0.02017212 -0.9995117
vn 0.01487732 -0.02017212 -0.9995117
vn -0.01277161 -0.01905823 -0.9995117
vn -0.01277161 -0.01905823 -0.9995117
vn -0.04040527 -0.01794434 -0.9990234
vn -0.04040527 -0.01794434 -0.9990234
vn -0.03167725 -0.9995117 0.02124023
vn -0.03167725 -0.9995117 0.02124023
vn -7.498264E-05 -0.9995117 0.03723145
vn -7.498264E-05 -0.9995117 0.03723145
vn -0.06341553 -0.9980469 0.005161285
vn -0.06341553 -0.9980469 0.005161285
vn -0.0002501011 -0.9995117 0.03717041
vn -0.0002501011 -0.9995117 0.03717041
vn -0.1850586 0 0.9829102
vn -0.1850586 0 0.9829102
vn -0.1850586 0 0.9829102
vn -0.1850586 0 0.9829102
vn -0.2391357 0 -0.9711914
vn -0.2391357 0 -0.9711914
vn -0.2391357 0 -0.9711914
vn -0.2391357 0 -0.9711914
vn -0.08355713 0.0324707 -0.9960938
vn -0.08355713 0.0324707 -0.9960938
vn -0.08355713 0.0324707 -0.9960938
vn -0.08355713 0.0324707 -0.9960938
vn 0.009994507 1 0.00969696
vn 0.009994507 1 0.00969696
vn 0.008766174 0.9995117 0.02032471
vn 0.008766174 0.9995117 0.02032471
vn 0.02326965 0.9995117 0
vn 0.02326965 0.9995117 0
vn 0.01300812 0.9990234 -0.0406189
vn 0.01300812 0.9990234 -0.0406189
vn -0.03778076 0.9990234 -0.0300293
vn -0.03778076 0.9990234 -0.0300293
vn -0.07580566 0.9970703 0
vn -0.07580566 0.9970703 0
vn 0.01695251 -0.03121948 0.9995117
vn 0.01695251 -0.03121948 0.9995117
vn 0.04449463 -0.01561737 0.9990234
vn 0.04449463 -0.01561737 0.9990234
vn 0.07202148 0 0.9975586
vn 0.07202148 0 0.9975586
vn 0.004993439 -1 -0.008537292
vn 0.004993439 -1 -0.008537292
vn 0.006744385 -0.9995117 -0.02177429
vn 0.006744385 -0.9995117 -0.02177429
vn 0.02326965 -0.9995117 0
vn 0.02326965 -0.9995117 0
vn 0.01003265 -0.9990234 0.04321289
vn 0.01003265 -0.9990234 0.04321289
vn -0.03781128 -0.9990234 0.03001404
vn -0.03781128 -0.9990234 0.03001404
vn -0.07580566 -0.9970703 0
vn -0.07580566 -0.9970703 0
vn 1 0 0
vn 1 0 0
vn 1 0 0
vn 1 0 0
vn -1 0 0
vn -1 0 0
vn -1 0 0
vn -1 0 0
vn -0.2294922 0 -0.9731445
vn -0.2294922 0 -0.9731445
vn -0.2294922 0 -0.9731445
vn -0.2294922 0 -0.9731445
vn -0.2294922 0 0.9731445
vn -0.2294922 0 0.9731445
vn -0.2294922 0 0.9731445
vn -0.2294922 0 0.9731445
vn 0.07202148 0 -0.9975586
vn 0.07202148 0 -0.9975586
vn 0.07202148 0 -0.9975586
vn 0.07202148 0 -0.9975586
vn 0.1896973 0.004051208 -0.9819336
vn 0.1896973 0.004051208 -0.9819336
vn 0.1896973 0.004051208 -0.9819336
vn 0.1896973 0.004051208 -0.9819336
vn -0.03890991 0.01594543 0.9990234
vn -0.03890991 0.01594543 0.9990234
vn -0.07873535 0 0.9970703
vn -0.07873535 0 0.9970703
vn 0.0009794235 0.03186035 0.9995117
vn 0.0009794235 0.03186035 0.9995117
vn 0.001027107 -0.03173828 -0.9995117
vn 0.001027107 -0.03173828 -0.9995117
vn 0.001027107 -0.03173828 -0.9995117
vn 0.001027107 -0.03173828 -0.9995117
vn 0 0 1
vn 0 0 1
vn 0 0 1
vn 0 0 1
vn 0 1 0
vn 0 1 0
vn 0 1 0
vn 0 1 0
vn 0 0 -1
vn 0 0 -1
vn 0 0 -1
vn 0 0 -1
vn 0 -1 0
vn 0 -1 0
vn 0 -1 0
vn 0 -1 0
vn -1 0 0.01038361
vn -1 0 0.01038361
vn -1 0 0.01038361
vn -1 0 0.01038361
vn 1 0 -0.01038361
vn 1 0 -0.01038361
vn 1 0 -0.01038361
vn 1 0 -0.01038361
vn 0 0 1
vn 0 0 1
vn 0 0 1
vn 0 0 1
vn 0 1 0
vn 0 1 0
vn 0 1 0
vn 0 1 0
vn 0 0 -1
vn 0 0 -1
vn 0 0 -1
vn 0 0 -1
vn 0 -1 0
vn 0 -1 0
vn 0 -1 0
vn 0 -1 0
vn -1 0 0.02006531
vn -1 0 0.02006531
vn -1 0 0.02006531
vn -1 0 0.02006531
vn 1 0 -0.02006531
vn 1 0 -0.02006531
vn 1 0 -0.02006531
vn 1 0 -0.02006531
g SM_Env_Bridge_03_0
f 3/3/3 2/2/2 1/1/1
f 4/4/4 3/3/3 1/1/1
f 7/7/7 6/6/6 5/5/5
f 8/8/8 7/7/7 5/5/5
f 11/11/11 10/10/10 9/9/9
f 12/12/12 11/11/11 9/9/9
f 15/15/15 14/14/14 13/13/13
f 16/16/16 15/15/15 13/13/13
f 19/19/19 18/18/18 17/17/17
f 20/20/20 19/19/19 17/17/17
f 23/23/23 22/22/22 21/21/21
f 24/24/24 23/23/23 21/21/21
f 27/27/27 26/26/26 25/25/25
f 28/28/28 27/27/27 25/25/25
f 29/29/29 27/27/27 28/28/28
f 30/30/30 29/29/29 28/28/28
f 33/33/33 32/32/32 31/31/31
f 31/31/31 34/34/34 33/33/33
f 34/34/34 35/35/35 33/33/33
f 36/36/36 34/34/34 31/31/31
f 31/31/31 37/37/37 36/36/36
f 36/36/36 38/38/38 34/34/34
f 41/41/41 40/40/40 39/39/39
f 42/42/42 41/41/41 39/39/39
f 44/44/44 41/41/41 43/43/43
f 45/45/45 44/44/44 43/43/43
f 48/48/48 47/47/47 46/46/46
f 49/49/49 48/48/48 46/46/46
f 50/50/50 48/48/48 49/49/49
f 51/51/51 50/50/50 49/49/49
f 54/54/54 53/53/53 52/52/52
f 55/55/55 54/54/54 52/52/52
f 58/58/58 57/57/57 56/56/56
f 59/59/59 58/58/58 56/56/56
f 62/62/62 61/61/61 60/60/60
f 63/63/63 62/62/62 60/60/60
f 66/66/66 65/65/65 64/64/64
f 67/67/67 66/66/66 64/64/64
f 70/70/70 69/69/69 68/68/68
f 73/73/73 72/72/72 71/71/71
f 76/76/76 75/75/75 74/74/74
f 77/77/77 76/76/76 74/74/74
f 80/80/80 79/79/79 78/78/78
f 81/81/81 80/80/80 78/78/78
f 82/82/82 80/80/80 81/81/81
f 83/83/83 82/82/82 81/81/81
f 78/78/78 79/79/79 84/84/84
f 79/79/79 85/85/85 84/84/84
f 84/84/84 85/85/85 86/86/86
f 85/85/85 87/87/87 86/86/86
f 86/86/86 87/87/87 88/88/88
f 89/89/89 86/86/86 88/88/88
f 92/92/92 91/91/91 90/90/90
f 93/93/93 92/92/92 90/90/90
f 94/94/94 92/92/92 93/93/93
f 95/95/95 94/94/94 93/93/93
f 98/98/98 97/97/97 96/96/96
f 99/99/99 98/98/98 96/96/96
f 100/100/100 98/98/98 99/99/99
f 101/101/101 100/100/100 99/99/99
f 96/96/96 97/97/97 102/102/102
f 97/97/97 103/103/103 102/102/102
f 102/102/102 103/103/103 104/104/104
f 103/103/103 105/105/105 104/104/104
f 104/104/104 105/105/105 106/106/106
f 107/107/107 104/104/104 106/106/106
f 110/110/110 109/109/109 108/108/108
f 111/111/111 110/110/110 108/108/108
f 114/114/114 113/113/113 112/112/112
f 115/115/115 114/114/114 112/112/112
f 118/118/118 117/117/117 116/116/116
f 119/119/119 118/118/118 116/116/116
f 122/122/122 121/121/121 120/120/120
f 123/123/123 122/122/122 120/120/120
f 126/126/126 125/125/125 124/124/124
f 127/127/127 126/126/126 124/124/124
f 130/130/130 129/129/129 128/128/128
f 131/131/131 130/130/130 128/128/128
f 134/134/134 133/133/133 132/132/132
f 135/135/135 134/134/134 132/132/132
f 138/138/138 137/137/137 136/136/136
f 139/139/139 138/138/138 136/136/136
f 142/142/142 141/141/141 140/140/140
f 143/143/143 142/142/142 140/140/140
f 146/146/146 145/145/145 144/144/144
f 147/147/147 146/146/146 144/144/144
f 150/150/150 149/149/149 148/148/148
f 151/151/151 150/150/150 148/148/148
f 154/154/154 153/153/153 152/152/152
f 155/155/155 154/154/154 152/152/152
f 158/158/158 157/157/157 156/156/156
f 159/159/159 158/158/158 156/156/156
f 162/162/162 161/161/161 160/160/160
f 163/163/163 162/162/162 160/160/160
f 166/166/166 165/165/165 164/164/164
f 167/167/167 166/166/166 164/164/164
f 170/170/170 169/169/169 168/168/168
f 171/171/171 170/170/170 168/168/168
f 172/172/172 170/170/170 171/171/171
f 173/173/173 172/172/172 171/171/171
f 176/176/176 175/175/175 174/174/174
f 177/177/177 176/176/176 174/174/174
f 174/174/174 175/175/175 178/178/178
f 179/179/179 174/174/174 178/178/178
f 180/180/180 176/176/176 177/177/177
f 181/181/181 180/180/180 177/177/177
f 184/184/184 183/183/183 182/182/182
f 185/185/185 184/184/184 182/182/182
f 186/186/186 184/184/184 185/185/185
f 187/187/187 186/186/186 185/185/185
f 190/190/190 189/189/189 188/188/188
f 191/191/191 190/190/190 188/188/188
f 188/188/188 189/189/189 192/192/192
f 193/193/193 188/188/188 192/192/192
f 194/194/194 190/190/190 191/191/191
f 195/195/195 194/194/194 191/191/191
f 198/198/198 197/197/197 196/196/196
f 199/199/199 198/198/198 196/196/196
f 202/202/202 201/201/201 200/200/200
f 203/203/203 202/202/202 200/200/200
f 206/206/206 205/205/205 204/204/204
f 207/207/207 206/206/206 204/204/204
f 210/210/210 209/209/209 208/208/208
f 211/211/211 210/210/210 208/208/208
f 214/214/214 213/213/213 212/212/212
f 215/215/215 214/214/214 212/212/212
f 218/218/218 217/217/217 216/216/216
f 219/219/219 218/218/218 216/216/216
f 222/222/222 221/221/221 220/220/220
f 223/223/223 222/222/222 220/220/220
f 226/226/226 225/225/225 224/224/224
f 227/227/227 226/226/226 224/224/224
f 230/230/230 229/229/229 228/228/228
f 231/231/231 230/230/230 228/228/228
f 232/232/232 230/230/230 231/231/231
f 233/233/233 232/232/232 231/231/231
f 236/236/236 235/235/235 234/234/234
f 234/234/234 237/237/237 236/236/236
f 234/234/234 238/238/238 237/237/237
f 237/237/237 238/238/238 239/239/239
f 240/240/240 237/237/237 239/239/239
f 239/239/239 241/241/241 240/240/240
f 244/244/244 243/243/243 242/242/242
f 245/245/245 244/244/244 242/242/242
f 247/247/247 244/244/244 246/246/246
f 248/248/248 247/247/247 246/246/246
f 251/251/251 250/250/250 249/249/249
f 252/252/252 251/251/251 249/249/249
f 253/253/253 251/251/251 252/252/252
f 254/254/254 253/253/253 252/252/252
f 257/257/257 256/256/256 255/255/255
f 258/258/258 257/257/257 255/255/255
f 261/261/261 260/260/260 259/259/259
f 262/262/262 261/261/261 259/259/259
f 265/265/265 264/264/264 263/263/263
f 266/266/266 265/265/265 263/263/263
f 269/269/269 268/268/268 267/267/267
f 270/270/270 269/269/269 267/267/267
f 273/273/273 272/272/272 271/271/271
f 276/276/276 275/275/275 274/274/274
f 279/279/279 278/278/278 277/277/277
f 280/280/280 279/279/279 277/277/277
f 283/283/283 282/282/282 281/281/281
f 284/284/284 283/283/283 281/281/281
f 287/287/287 286/286/286 285/285/285
f 288/288/288 287/287/287 285/285/285
f 291/291/291 290/290/290 289/289/289
f 292/292/292 291/291/291 289/289/289
f 295/295/295 294/294/294 293/293/293
f 296/296/296 295/295/295 293/293/293
f 299/299/299 298/298/298 297/297/297
f 300/300/300 299/299/299 297/297/297
f 303/303/303 302/302/302 301/301/301
f 304/304/304 303/303/303 301/301/301
f 305/305/305 303/303/303 304/304/304
f 306/306/306 305/305/305 304/304/304
f 309/309/309 308/308/308 307/307/307
f 310/310/310 309/309/309 307/307/307
f 307/307/307 308/308/308 311/311/311
f 312/312/312 307/307/307 311/311/311
f 313/313/313 309/309/309 310/310/310
f 314/314/314 313/313/313 310/310/310
f 317/317/317 316/316/316 315/315/315
f 318/318/318 317/317/317 315/315/315
f 319/319/319 317/317/317 318/318/318
f 320/320/320 319/319/319 318/318/318
f 323/323/323 322/322/322 321/321/321
f 324/324/324 323/323/323 321/321/321
f 321/321/321 322/322/322 325/325/325
f 326/326/326 321/321/321 325/325/325
f 327/327/327 323/323/323 324/324/324
f 328/328/328 327/327/327 324/324/324
f 331/331/331 330/330/330 329/329/329
f 332/332/332 331/331/331 329/329/329
f 335/335/335 334/334/334 333/333/333
f 336/336/336 335/335/335 333/333/333
f 339/339/339 338/338/338 337/337/337
f 340/340/340 339/339/339 337/337/337
f 343/343/343 342/342/342 341/341/341
f 344/344/344 343/343/343 341/341/341
f 345/345/345 343/343/343 344/344/344
f 346/346/346 345/345/345 344/344/344
f 341/341/341 342/342/342 347/347/347
f 342/342/342 348/348/348 347/347/347
f 347/347/347 348/348/348 349/349/349
f 348/348/348 350/350/350 349/349/349
f 349/349/349 350/350/350 351/351/351
f 352/352/352 349/349/349 351/351/351
f 355/355/355 354/354/354 353/353/353
f 356/356/356 355/355/355 353/353/353
f 357/357/357 355/355/355 356/356/356
f 358/358/358 357/357/357 356/356/356
f 361/361/361 360/360/360 359/359/359
f 362/362/362 361/361/361 359/359/359
f 363/363/363 361/361/361 362/362/362
f 364/364/364 363/363/363 362/362/362
f 359/359/359 360/360/360 365/365/365
f 360/360/360 366/366/366 365/365/365
f 365/365/365 366/366/366 367/367/367
f 366/366/366 368/368/368 367/367/367
f 367/367/367 368/368/368 369/369/369
f 370/370/370 367/367/367 369/369/369
f 373/373/373 372/372/372 371/371/371
f 374/374/374 373/373/373 371/371/371
f 377/377/377 376/376/376 375/375/375
f 378/378/378 377/377/377 375/375/375
f 381/381/381 380/380/380 379/379/379
f 382/382/382 381/381/381 379/379/379
f 385/385/385 384/384/384 383/383/383
f 386/386/386 385/385/385 383/383/383
f 389/389/389 388/388/388 387/387/387
f 390/390/390 389/389/389 387/387/387
f 393/393/393 392/392/392 391/391/391
f 394/394/394 393/393/393 391/391/391
f 397/397/397 396/396/396 395/395/395
f 398/398/398 397/397/397 395/395/395
f 395/395/395 396/396/396 399/399/399
f 396/396/396 400/400/400 399/399/399
f 403/403/403 402/402/402 401/401/401
f 404/404/404 403/403/403 401/401/401
f 407/407/407 406/406/406 405/405/405
f 408/408/408 407/407/407 405/405/405
f 411/411/411 410/410/410 409/409/409
f 412/412/412 411/411/411 409/409/409
f 415/415/415 414/414/414 413/413/413
f 416/416/416 415/415/415 413/413/413
f 419/419/419 418/418/418 417/417/417
f 420/420/420 419/419/419 417/417/417
f 423/423/423 422/422/422 421/421/421
f 424/424/424 423/423/423 421/421/421
f 427/427/427 426/426/426 425/425/425
f 428/428/428 427/427/427 425/425/425
f 431/431/431 430/430/430 429/429/429
f 432/432/432 431/431/431 429/429/429
f 435/435/435 434/434/434 433/433/433
f 436/436/436 435/435/435 433/433/433
f 439/439/439 438/438/438 437/437/437
f 440/440/440 439/439/439 437/437/437
f 443/443/443 442/442/442 441/441/441
f 444/444/444 443/443/443 441/441/441
f 447/447/447 446/446/446 445/445/445
f 448/448/448 447/447/447 445/445/445
f 451/451/451 450/450/450 449/449/449
f 452/452/452 451/451/451 449/449/449
