# File generated by FabConvert.com - Free Image and 3D model conversion tools

mtllib SM_Prop_StoneBrazier_01.mtl

# SM_Prop_StoneBrazier_01_0
o obj1
v 0.05592346 1.26392841 0.28764343
v 0.09210205 1.23932362 0.29047775
v 0.10523605 1.23521471 0.2588768
v 0.04315948 1.27743483 0.25400543
v 0.06798172 1.20546317 0.3044014
v 0.0638504 1.17711234 0.28276825
v 0.03180313 1.23006797 0.30156708
v 0.00177002 1.21933246 0.27790451
v 0.0404892 1.07283747 -0.28427887
v -0.00090027 1.01473498 -0.26038361
v -0.06297684 1.0569551 -0.26524734
v -0.02158737 1.11505747 -0.28914261
v -0.07999802 1.10093975 0.01842117
v -0.05450058 1.14715052 -0.00825882
v -0.24424744 1.27167881 0.03736496
v -0.27667999 1.21289384 0.07131195
v -0.07616806 1.12908602 -0.0602417
v -0.27180862 1.24869871 -0.028759
v -0.10165787 1.08287513 -0.03355408
v -0.30423737 1.18991363 0.00518799
v 0.08518982 1.01360345 -0.104599
v 0.11274719 1.03658354 -0.03847504
v 0.08031845 0.97779846 -0.00452805
v 0.05275726 0.95481831 -0.07065201
v -0.30792999 1.28548932 0.03009796
v -0.32244873 1.27338374 -0.00473404
v -0.33953094 1.24241662 0.01314926
v -0.32501602 1.25452232 0.04798126
v 0.06282806 1.14553106 -0.00779343
v 0.10920715 1.10925579 -0.00228119
v 0.23223495 1.20863998 -0.11606216
v 0.17323303 1.25478601 -0.12307739
v 0.08694458 1.07436919 -0.04452896
v 0.20391083 1.16426063 -0.16980743
v 0.04056168 1.11064434 -0.05003738
v 0.14490891 1.21040654 -0.17681885
v 0.02758026 0.97794223 0.06214523
v 0.05590057 1.0223217 0.1158905
v -0.00310135 1.06846762 0.10887527
v -0.03142166 1.02408814 0.05513382
v 0.25484467 1.25605714 -0.20629501
v 0.23960876 1.23218584 -0.23520279
v 0.20787048 1.25700736 -0.23897552
v 0.22310638 1.28087878 -0.21006775
v 0.04687881 1.1165843 -0.09494781
v -0.00191498 1.14977336 -0.09877014
v -0.03445435 1.10409927 -0.07999039
v 0.01434326 1.07091022 -0.07616425
v 0.36068726 0.69203877 0.36067963
v 0.37828064 0.71032536 0.37828827
v 0.02303696 0.71032536 0.37828827
v 3.81E-06 0.69203877 0.36067963
v 0.13607025 1.09263444 2.67E-05
v 0.10045624 1.09263444 -0.10043335
v -3.81E-06 1.09263444 -0.13605118
v -3.81E-06 1.09263444 2.67E-05
v 0.37828064 0.71032536 -0.37828064
v 0.36068726 0.69203877 -0.360672
v 3.81E-06 0.69203877 -0.360672
v 0.03153992 0.71032536 -0.37828064
v 0.37828064 0.71032536 -0.03821945
v 0.36068726 0.69203901 3.81E-06
v -0.37828064 0.71032536 -0.03728867
v -0.37828064 0.71032536 -0.37828064
v -0.36068344 0.69203877 -0.360672
v -0.36068344 0.69203877 3.81E-06
v 0.3641777 0.82770467 0.3641777
v 0.21961975 0.82770467 0.21961212
v 3.81E-06 0.82770467 0.29756165
v 0.02782059 0.82770467 0.3641777
v 0.3641777 0.82770467 -0.36418533
v 0.21961975 0.82770467 -0.21961975
v 0.29756165 0.82770467 7.63E-06
v 0.3641777 0.82770467 -0.03746414
v 3.81E-06 0.82770467 -0.29756927
v 0.0308075 0.82770467 -0.36418533
v -0.29756165 0.82770467 7.63E-06
v -0.21961975 0.82770467 -0.21961975
v -0.3641777 0.82770467 -0.36418533
v -0.3641777 0.82770467 -0.03548431
v 0.203125 0.88086623 0.20314407
v 3.81E-06 0.88086623 0.27524948
v 0.203125 0.88086623 -0.20313263
v 0.27521515 0.88086623 7.63E-06
v 3.81E-06 0.88086623 -0.27521133
v -0.27521896 0.88086623 7.63E-06
v -0.203125 0.88086623 -0.20313263
v -0.41333771 0.4098087 3.81E-06
v -0.41333771 0.4098087 -0.41332626
v -0.44612885 0.17353076 -0.44613266
v -0.44612885 0.14557758 3.81E-06
v 0.03358459 0.38592497 0.43252182
v 0.04060745 0.41580385 0.42499542
v 0 0.41749352 0.4248848
v 0 0.37630087 0.43141174
v 0.44613266 0.17353076 -0.44613266
v 0.41333389 0.4098087 -0.41332626
v 0.41333389 0.4098087 3.81E-06
v 0.44613266 0.14557758 3.81E-06
v 0.04060364 0.41580516 -0.42496872
v 0.03358078 0.38592461 -0.43248749
v 0 0.3763023 -0.43138123
v 0 0.41749373 -0.42484283
v -0.38054276 0.6740396 -0.38053513
v -0.38054276 0.6740396 3.81E-06
v 0.38054276 0.6740396 0.38054657
v 3.81E-06 0.6740396 0.38054657
v 0.38054276 0.6740396 -0.38053513
v 0.38054276 0.6740396 3.81E-06
v 3.81E-06 0.6740396 -0.38053513
v 0.44613266 0.17353076 0.44612122
v 0.15005875 0.28970087 0.42763901
v 3.81E-06 0.24300164 0.42763901
v 3.81E-06 0.14557758 0.44612122
v 0.16710663 0.41394675 0.41426468
v 0.41333389 0.4098087 0.41333008
v 3.81E-06 0.58006263 0.40088654
v 0.12799835 0.53819251 0.40088654
v -0.44612885 0.17353076 0.44612122
v -0.15005875 0.28970087 0.42763901
v -0.16710663 0.41394675 0.41426468
v -0.41333771 0.4098087 0.41333008
v 0.12799835 0.53819263 -0.40089035
v 3.81E-06 0.58006293 -0.40089035
v 0.15005875 0.28970087 -0.42765045
v 0.16710663 0.41394675 -0.41427231
v 3.81E-06 0.24300164 -0.42765045
v 3.81E-06 0.14557758 -0.44613266
v -0.16710663 0.41394675 -0.41427231
v -0.15005875 0.28970087 -0.42765045
v 0.03171539 0.4456673 0.41737366
v 0 0.45781225 0.41859055
v -0.12799454 0.53819251 0.40088654
v -0.38054276 0.6740396 0.38054657
v -0.12799454 0.53819263 -0.40089035
v 0.03171539 0.44566599 -0.41733932
v 0 0.45781446 -0.41856384
v -0.10046387 1.09263444 -0.10043335
v -0.13607788 1.09263444 2.67E-05
v -0.203125 0.88086623 0.20314407
v -0.21961975 0.82770467 0.21961212
v -0.31864929 0.82770467 0.31864929
v -0.26918411 0.82770467 0.3641777
v -0.02853394 0.82770467 0.3641777
v -0.36986923 0.78034461 0.36987305
v -0.37828064 0.71032536 0.37828827
v -0.02573013 0.71032536 0.37828827
v -0.36068344 0.69203877 0.36067963
v -0.03171921 0.44566697 0.41737366
v -0.04061127 0.41580355 0.42499542
v -0.03358841 0.38592511 0.43252182
v -0.03358459 0.38592419 -0.43248749
v -0.04060745 0.41580501 -0.42496872
v -0.03171921 0.44566631 -0.41732788
v -0.0421257 0.71032536 -0.37828064
v -0.03874588 0.82770467 -0.36418533
v 0.3641777 0.82770467 0.03138733
v 0.37828064 0.71032536 0.03064728
v -0.37828064 0.71032536 0.03666306
v -0.3641777 0.82770467 0.27674484
v -0.3641777 0.82770467 0.03419876
v -0.10046387 1.09263444 0.10048676
v -3.81E-06 1.09263444 0.13610458
v 0.10045624 1.09263444 0.10048676
v 0.14977646 0.29239047 0.45581818
v 3.81E-06 0.24587765 0.45581818
v 0.16711807 0.41664964 0.44243622
v 0.12830353 0.54090869 0.42906189
v 3.81E-06 0.58296716 0.42906189
v -0.12830353 0.54090869 0.42906189
v -0.16711807 0.41664964 0.44243622
v -0.14977264 0.29239047 0.45581818
v 0.14977646 0.29239178 -0.45580292
v 0.16711807 0.41665041 -0.44242477
v 3.81E-06 0.24587907 -0.45580292
v 0.12830353 0.54090881 -0.42905045
v 3.81E-06 0.58296734 -0.42905045
v -0.14977264 0.29239178 -0.45580292
v -0.16711807 0.41665041 -0.44242477
v -0.12830353 0.54090881 -0.42905045
v 0.12046432 0.31399024 0.45346451
v 3.81E-06 0.28291255 0.45279694
v 0.13019562 0.41614163 0.44248962
v 0.10580063 0.51828671 0.43148422
v 3.81E-06 0.54484504 0.43219376
v -0.10580063 0.51828659 0.43148422
v -0.13019562 0.41614163 0.44248962
v -0.12046432 0.31399024 0.45346451
v 0.12046432 0.31399146 -0.45345306
v 0.13019562 0.4161422 -0.44247437
v 3.81E-06 0.28291383 -0.45278549
v 0.10580063 0.5182873 -0.43147278
v 3.81E-06 0.54484558 -0.43218231
v -0.12046814 0.31399146 -0.45345306
v -0.13019562 0.4161422 -0.44247437
v -0.10580063 0.51828682 -0.43147278
v 0.12105942 0.30854428 0.39624786
v 0 0.27708912 0.39558792
v 0.13017273 0.41066939 0.38527679
v 0.10515976 0.51278865 0.37427521
v 3.81E-06 0.53896594 0.37496567
v -0.10515976 0.51278853 0.37427521
v -0.13017273 0.41066939 0.38527679
v -0.12105942 0.30854428 0.39624786
v 0.12106323 0.30854428 -0.39622116
v 0.13017273 0.41066992 -0.38526154
v 3.81E-06 0.27708918 -0.39556885
v 0.10515976 0.51278973 -0.37424469
v 3.81E-06 0.53896701 -0.37495804
v -0.12105942 0.30854428 -0.39622116
v -0.13017273 0.41066974 -0.38526154
v -0.10515594 0.51278925 -0.37424469
v 0.15460205 0.88086623 -0.15459061
v 0.20947266 0.88086623 7.63E-06
v 0 0.88086623 -0.20947266
v -0.15460587 0.88086623 -0.15459061
v -0.20947647 0.88086623 7.63E-06
v 0 0.88086623 0.20948792
v -0.15460587 0.88086623 0.15462875
v 0.15460205 0.88086623 0.15462875
v 0.15460205 0.92074358 -0.15459061
v 0.20947266 0.92074358 7.63E-06
v 0.20947266 0.88086623 7.63E-06
v 0.15460205 0.88086623 -0.15459061
v 0 0.92074358 -0.20947266
v 0 0.88086623 -0.20947266
v -0.15460587 0.92074358 -0.15459061
v -0.15460587 0.88086623 -0.15459061
v -0.20947647 0.92074358 7.63E-06
v -0.20947647 0.88086623 7.63E-06
v 0 0.92074358 0.20948792
v -0.15460587 0.92074358 0.15462875
v -0.15460587 0.88086623 0.15462875
v 0 0.88086623 0.20948792
v 0.15460205 0.92074358 0.15462875
v 0.15460205 0.88086623 0.15462875
v 0.10892105 0.92074358 -0.10890198
v 0.14757919 0.92074358 7.63E-06
v 0 0.92074358 -0.14756012
v -0.10892487 0.92074358 -0.10890198
v -0.14758682 0.92074358 7.63E-06
v 0 0.92074358 0.14760208
v -0.10892487 0.92074358 0.10893631
v 0.10892105 0.92074358 0.10893631
v 0.10892105 0.9573369 -0.10890198
v 0.14757919 0.9573369 7.63E-06
v 0 0.9573369 -0.14756012
v -0.10892487 0.9573369 -0.10890198
v -0.14758682 0.9573369 7.63E-06
v 0 0.9573369 0.14760208
v -0.10892487 0.9573369 0.10893631
v 0.10892105 0.9573369 0.10893631
v 0.21042252 1.02889168 -0.21040344
v 0.28510284 1.02889168 7.63E-06
v 0 1.02889168 -0.28509903
v -0.21042252 1.02889168 -0.21040344
v -0.28510666 1.02889168 7.63E-06
v 0 1.02889168 0.28513336
v -0.21042252 1.02889168 0.21046066
v 0.21042252 1.02889168 0.21046066
v 0.271698 1.11527693 -0.27167892
v 0.36812592 1.11527693 7.63E-06
v 0 1.11527693 -0.36811447
v -0.27170181 1.11527693 -0.27167892
v -0.36813736 1.11527693 7.63E-06
v 0 1.11527693 0.36816788
v -0.27170181 1.11527693 0.27172852
v 0.271698 1.11527693 0.27172852
v 0.271698 1.19151711 -0.27167892
v 0.36812592 1.19151711 7.63E-06
v 0 1.19151711 -0.36811447
v -0.27170181 1.19151711 -0.27167892
v -0.36813736 1.19151711 7.63E-06
v 0 1.19151711 0.36816788
v -0.27170181 1.19151711 0.27172852
v 0.271698 1.19151711 0.27172852
v 0.21847534 1.19151711 -0.21845627
v 0.29601669 1.19151711 7.63E-06
v 0 1.19151711 -0.29600143
v -0.21848297 1.19151711 -0.21845627
v -0.29602051 1.19151711 7.63E-06
v 0 1.19151711 0.29606247
v -0.21848297 1.19151711 0.21850967
v 0.21847534 1.19151711 0.21850967
v 0.20303345 1.07025862 -0.20301056
v 0.27509308 1.07025862 2.67E-05
v 0 1.07025862 -0.27507782
v -0.20304108 1.07025862 -0.20301056
v -0.27510071 1.07025862 2.67E-05
v 0 1.07025862 0.27513123
v -0.20304108 1.07025862 0.20306396
v 0.20303345 1.07025862 0.20306396
v 0.16576767 1.02020574 -0.16574478
v 0.22453308 1.02020574 2.67E-05
v -7.63E-06 1.02020574 -0.22451401
v -0.1657753 1.02020574 -0.16574478
v -0.22454071 1.02020574 2.67E-05
v -7.63E-06 1.02020574 0.22456741
v -0.1657753 1.02020574 0.16579819
v 0.16576767 1.02020574 0.16579819
v 0.05222702 0.36660895 0.40351486
v 0 0.34494689 0.40283966
v 0.06522369 0.4106696 0.39234161
v 0.04536819 0.45472765 0.38113785
v 0 0.47639185 0.38184357
v -0.04537201 0.45472756 0.38113785
v -0.06522369 0.4106696 0.39234161
v -0.05223083 0.36660895 0.40351486
v 0.05223083 0.36660895 -0.40348816
v 0.06522369 0.41066989 -0.39233017
v 0 0.34494695 -0.40282059
v 0.04536819 0.45472807 -0.38110352
v 0 0.47639245 -0.38183212
v -0.05223083 0.36660895 -0.40348816
v -0.06522369 0.41066974 -0.39233017
v -0.04537201 0.45472789 -0.38110352
v -0.03406525 0.13081783 -0.51282883
v -0.51283264 0.13081783 -0.51282883
v -0.51283264 0.13081783 -0.0386734
v -0.51283264 0.13081783 0.02934265
v -0.51283264 0.13081783 0.51282883
v 0.02994537 0.03343657 -0.51282883
v 0 -1E-08 -0.47141266
v 0.03647232 0.13081783 -0.51282883
v 0.47141647 -1E-08 7.63E-06
v 0.51283264 0.03343657 -0.03253555
v 0.51283264 0.13081783 -0.04151154
v -0.02680588 0.03343657 -0.51282883
v -0.51283264 0.03343657 -0.51282883
v -0.51283264 0.03343657 -0.04144287
v 0.51283264 0.03343657 0.04034805
v 0.51283264 0.13081783 0.04297256
v 3.81E-06 -1E-08 0.47141266
v 0.03061676 0.03343657 0.51282883
v 0.02585983 0.13081783 0.51282883
v -0.03511047 0.03343657 0.51282883
v -0.04567337 0.13081783 0.51282883
v -0.51283264 0.03343657 0.03168869
v -0.51283264 0.03343657 0.51282883
v 0.51283264 0.13081783 -0.51282883
v 0.51283264 0.03343657 -0.51282883
v 0.47141647 -1E-08 -0.47141266
v -0.47141647 -1E-08 -0.47141266
v -0.47142029 -1E-08 7.63E-06
v -0.47142029 -1E-08 0.47141266
v 0.47141647 -1E-08 0.47141266
v 0.51283264 0.03343657 0.51282883
v 0.51283264 0.13081783 0.51282883
v 0.22453308 1.02020574 2.67E-05
v 0.16576767 1.02020574 -0.16574478
v -7.63E-06 1.02020574 -0.22451401
v -0.1657753 1.02020574 -0.16574478
v -0.22454071 1.02020574 2.67E-05
v -0.1657753 1.02020574 0.16579819
v -7.63E-06 1.02020574 0.22456741
v 0.16576767 1.02020574 0.16579819
vn 0.55153 0.82519 0.12199
vn 0.55153 0.82519 0.12199
vn 0.55153 0.82519 0.12199
vn 0.81731 -0.42008 0.39439
vn 0.81731 -0.42008 0.39439
vn 0.81731 -0.42008 0.39439
vn -0.40918 -0.51512 0.75314
vn -0.40918 -0.51512 0.75314
vn -0.40918 -0.51512 0.75314
vn -0.60658 0.63103 0.48359
vn -0.60658 0.63103 0.48359
vn -0.60658 0.63103 0.48359
vn 0.12831 0.29761 0.94603
vn 0.12831 0.29761 0.94603
vn -0.12831 -0.29765 -0.94601
vn -0.12831 -0.29765 -0.94601
vn -0.12831 -0.29765 -0.94601
vn 0.3809 0.29571 0.87605
vn 0.38075 0.29581 0.87608
vn 0.39678 0.28492 0.87257
vn 0.39678 0.28492 0.87257
vn 0.42255 0.78695 -0.44961
vn 0.42279 0.7868 -0.44966
vn 0.41284 0.79315 -0.44774
vn 0.41284 0.79315 -0.44774
vn -0.38115 -0.29561 -0.87598
vn -0.38077 -0.29587 -0.87606
vn -0.33956 -0.32287 -0.88343
vn -0.33956 -0.32287 -0.88343
vn -0.42361 -0.78627 0.44981
vn -0.42193 -0.78736 0.44949
vn -0.35409 -0.82775 0.43525
vn -0.35409 -0.82775 0.43525
vn 0.82459 -0.5442 -0.15456
vn 0.82459 -0.5442 -0.15456
vn -0.82457 0.54424 0.15454
vn -0.82457 0.54424 0.15454
vn -0.82457 0.54424 0.15454
vn 0.36127 0.57362 0.73515
vn 0.36145 0.57382 0.7349
vn 0.31326 0.52118 0.79388
vn 0.31326 0.52118 0.79388
vn 0.78006 -0.61781 0.09907
vn 0.78211 -0.61567 0.09623
vn 0.71416 -0.67596 0.1818
vn 0.71416 -0.67596 0.1818
vn -0.3612 -0.57353 -0.73525
vn -0.36118 -0.57352 -0.73527
vn -0.35671 -0.56872 -0.74116
vn -0.35671 -0.56872 -0.74116
vn -0.78127 0.61655 -0.09742
vn -0.78061 0.61724 -0.09833
vn -0.76077 0.63687 -0.12498
vn -0.76077 0.63687 -0.12498
vn -0.49319 -0.52515 0.69353
vn -0.49319 -0.52515 0.69353
vn -0.49318 -0.52515 0.69353
vn -0.49319 -0.52515 0.69353
vn 0.49318 0.52511 -0.69357
vn 0.49318 0.52511 -0.69357
vn 0.54609 0.76299 -0.34588
vn 0.55271 0.77827 -0.29801
vn 0.55269 0.77821 -0.29819
vn -0.82871 0.55177 -0.09379
vn -0.82559 0.56014 -0.06806
vn -0.82578 0.55971 -0.06944
vn -0.55171 -0.77599 0.3057
vn -0.55171 -0.77599 0.3057
vn -0.55262 -0.77816 0.29846
vn -0.55263 -0.77816 0.29844
vn 0.82358 -0.56468 0.05348
vn 0.82358 -0.56468 0.05348
vn 0.82567 -0.55996 0.06862
vn 0.82578 -0.55969 0.06948
vn 0.23769 0.88253 -0.40577
vn 0.23769 0.88253 -0.40577
vn 0.23769 0.88253 -0.40577
vn 0.00863 0.49652 0.86798
vn 0.00863 0.49652 0.86798
vn -0.69438 -0.53908 0.4767
vn -0.69438 -0.53908 0.4767
vn -0.69438 -0.53908 0.4767
vn -0.50043 -0.20904 -0.84016
vn -0.50043 -0.20904 -0.84016
vn 0.49673 0.71081 0.49801
vn 0.49673 0.71081 0.49801
vn 0.49673 0.71081 0.49801
vn 0.49673 0.71081 0.49801
vn -0.70122 0.68535 -0.19642
vn -0.70122 0.68535 -0.19642
vn -0.70122 0.68535 -0.19642
vn -0.70122 0.68535 -0.19642
vn -0.34167 -0.55242 -0.76032
vn -0.34167 -0.55242 -0.76032
vn -0.34167 -0.55242 -0.76032
vn 0.86586 -0.49827 -0.04488
vn 0.86586 -0.49827 -0.04488
vn 0.86586 -0.49827 -0.04488
vn 0.56142 0.80193 -0.20424
vn 0.56142 0.80193 -0.20424
vn -0.81821 0.57457 -0.02023
vn -0.81821 0.57457 -0.02023
vn -0.5543 -0.78222 0.2844
vn -0.5543 -0.78222 0.2844
vn 0.82926 -0.55002 0.09909
vn 0.82926 -0.55002 0.09909
vn 0.3625 0.30795 0.87964
vn 0.3625 0.30795 0.87964
vn 0.43379 0.7796 -0.45172
vn 0.43379 0.7796 -0.45172
vn -0.42677 -0.26406 -0.86495
vn -0.42677 -0.26406 -0.86495
vn -0.49755 -0.7339 0.46243
vn -0.49755 -0.7339 0.46243
vn 0.41686 0.6322 0.6531
vn 0.41686 0.6322 0.6531
vn 0.84744 -0.53083 -0.00823
vn 0.84744 -0.53083 -0.00823
vn -0.3667 -0.57942 -0.72787
vn -0.3667 -0.57942 -0.72787
vn -0.80422 0.59086 -0.06413
vn -0.80422 0.59086 -0.06413
vn 0 -0.69363 0.72033
vn 0 -0.69363 0.72033
vn 0 1 0
vn 0 -0.69363 -0.72033
vn 0 -0.69363 -0.72033
vn 0 -0.69363 -0.72033
vn 0.72066 -0.69328 0
vn 0.72066 -0.69328 0
vn 0.72066 -0.69328 0
vn -0.72056 -0.69339 0
vn -0.72056 -0.69339 0
vn 0 1 -0
vn 0 1 -0
vn 0 1 0
vn 0 1 0
vn 0.31105 0.36787 0.87631
vn 0.31105 0.36787 0.87631
vn 0.31105 0.36787 0.87631
vn 0.31105 0.36787 0.87631
vn 0.87618 0.36829 -0.31093
vn 0.87618 0.36829 -0.31093
vn 0.87618 0.36829 -0.31093
vn 0.87618 0.36829 -0.31093
vn 0.31094 0.36834 -0.87615
vn 0.31094 0.36834 -0.87615
vn 0.31094 0.36834 -0.87615
vn -0.87619 0.36825 -0.31095
vn -0.87619 0.36825 -0.31095
vn -0.87619 0.36825 -0.31095
vn -0.99155 0.12965 0.00422
vn -0.99155 0.12965 0.00422
vn -0.99155 0.12965 0.00422
vn -0.03725 0.19738 0.97962
vn -0.03725 0.19738 0.97962
vn -0.03725 0.19738 0.97962
vn 0.99155 0.12968 0.00422
vn 0.99155 0.12968 0.00422
vn 0.99155 0.12968 0.00422
vn -0.03741 0.19747 -0.9796
vn -0.03741 0.19747 -0.9796
vn -0.03741 0.19747 -0.9796
vn 0 0.11935 0.99285
vn 0 0.11935 0.99285
vn -0.99286 0.11927 0
vn -0.99286 0.11927 0
vn 0 0.11923 -0.99287
vn 0 0.11923 -0.99287
vn 0.99286 0.11928 0
vn 0.99286 0.11928 0
vn -0.67157 0.74094 0
vn 0 0.74108 0.67142
vn 0 0.74108 0.67142
vn 0.67163 0.74089 -0
vn 0.67163 0.74089 -0
vn 0.67163 0.74089 -0
vn 0.67163 0.74089 -0
vn 0 0.74102 -0.67149
vn -0.01827 0.14586 0.98914
vn -0.01827 0.14586 0.98914
vn -0.01827 0.14586 0.98914
vn -0.00398 0.12684 0.99191
vn -0.00398 0.12684 0.99191
vn -0.00398 0.12684 0.99191
vn 0.01321 0.16021 0.98699
vn 0.01321 0.16021 0.98699
vn 0.01321 0.16021 0.98699
vn 0.01321 0.16021 0.98699
vn 0.00398 0.12684 0.99192
vn 0.00398 0.12684 0.99192
vn 0.00398 0.12684 0.99192
vn 0.00398 0.12684 0.99192
vn 0.0132 0.16033 -0.98698
vn 0.0132 0.16033 -0.98698
vn 0.0132 0.16033 -0.98698
vn 0.0132 0.16033 -0.98698
vn -0.00391 0.1269 -0.99191
vn -0.00391 0.1269 -0.99191
vn -0.01825 0.14586 -0.98914
vn -0.01825 0.14586 -0.98914
vn -0.01825 0.14586 -0.98914
vn 0.00391 0.12689 -0.99191
vn 0.00391 0.12689 -0.99191
vn 0.99239 0.12315 0
vn 0.99239 0.12315 0
vn 0.01068 0.11994 0.99272
vn 0.01068 0.11994 0.99272
vn 0.01068 0.11994 0.99272
vn 0.0533 0.20073 0.97819
vn 0.0533 0.20073 0.97819
vn 0.0533 0.20073 0.97819
vn 0.0533 0.20073 0.97819
vn -0.01068 0.11994 0.99272
vn -0.01068 0.11994 0.99272
vn -0.01068 0.11994 0.99272
vn -0.99239 0.12317 0
vn -0.99239 0.12317 0
vn -0.01071 0.11997 -0.99272
vn -0.01071 0.11997 -0.99272
vn -0.01071 0.11997 -0.99272
vn 0.05315 0.20062 -0.97823
vn 0.05315 0.20062 -0.97823
vn 0.05315 0.20062 -0.97823
vn 0.01071 0.11997 -0.99272
vn 0.01071 0.11997 -0.99272
vn 0.01071 0.11997 -0.99272
vn -0.31104 0.36789 0.87631
vn -0.31104 0.36789 0.87631
vn -0.31104 0.36789 0.87631
vn 0 1 -0
vn 0 1 -0
vn -1E-05 0.11935 0.99285
vn -1E-05 0.11935 0.99285
vn -1E-05 0.11935 0.99285
vn 0 -0.69363 0.72033
vn 0 -0.69363 0.72033
vn 0 0.74108 0.67141
vn 0 0.74108 0.67141
vn -0.0132 0.16021 0.987
vn -0.0132 0.16021 0.987
vn -0.0132 0.16021 0.987
vn -0.0533 0.20072 0.9782
vn -0.0533 0.20072 0.9782
vn -0.0533 0.20072 0.9782
vn -0.0533 0.20072 0.9782
vn 0.03724 0.19742 0.97961
vn 0.03724 0.19742 0.97961
vn 0.03724 0.19742 0.97961
vn 0.01828 0.14586 0.98914
vn 0.01828 0.14586 0.98914
vn 0.01828 0.14586 0.98914
vn 0.01825 0.14586 -0.98914
vn 0.01825 0.14586 -0.98914
vn 0.01825 0.14586 -0.98914
vn 0.03733 0.19744 -0.9796
vn 0.03733 0.19744 -0.9796
vn -0.05339 0.20077 -0.97818
vn -0.05339 0.20077 -0.97818
vn -0.05339 0.20077 -0.97818
vn -0.05339 0.20077 -0.97818
vn -0.01319 0.16033 -0.98698
vn 0 0.74102 -0.67148
vn 0 0.74102 -0.67148
vn 0 -0.69363 -0.72033
vn 0 0.11923 -0.99287
vn 0 0.11923 -0.99287
vn 0 0.11923 -0.99287
vn 0 1 0
vn 0 1 0
vn 0 1 0
vn 0 1 0
vn -0.31093 0.36833 -0.87616
vn -0.31093 0.36833 -0.87616
vn 0.99286 0.11927 0
vn 0.99286 0.11927 0
vn 0.72065 -0.6933 -0
vn 0.72065 -0.6933 -0
vn 0.72065 -0.6933 -0
vn 0.67165 0.74087 0
vn 0.67165 0.74087 0
vn 0.67165 0.74087 0
vn 0.99239 0.12316 0
vn 0.99239 0.12316 0
vn 0.99239 0.12316 0
vn 0.99155 0.12968 -0.00422
vn 0.99155 0.12968 -0.00422
vn 0.99155 0.12968 -0.00422
vn 0.99155 0.12968 -0.00422
vn -0.99155 0.12964 -0.00422
vn -0.99155 0.12964 -0.00422
vn -0.99155 0.12964 -0.00422
vn -0.99239 0.12317 0
vn -0.99239 0.12317 0
vn -0.67158 0.74093 0
vn -0.67158 0.74093 0
vn -0.72063 -0.69332 0
vn -0.72063 -0.69332 0
vn -0.72063 -0.69332 0
vn -0.72063 -0.69332 0
vn -0.99286 0.11927 -0
vn -0.99286 0.11927 -0
vn -0.99286 0.11927 -0
vn 0 1 0
vn 0 1 0
vn -0.87619 0.36821 0.31097
vn -0.87619 0.36821 0.31097
vn 0.87618 0.36825 0.31096
vn 0.87618 0.36825 0.31096
vn 0.87618 0.36825 0.31096
vn 0.87618 0.36825 0.31096
vn 0.29553 -0.95056 0.09535
vn 0.29553 -0.95056 0.09535
vn 0.29553 -0.95056 0.09535
vn 0.29553 -0.95056 0.09535
vn 0.99066 -0.1352 0.0177
vn 0.99066 -0.1352 0.0177
vn 0.99066 -0.1352 0.0177
vn 0.9547 0.29565 -0.0338
vn 0.9547 0.29565 -0.0338
vn 0.9547 0.29565 -0.0338
vn 0.30973 0.94596 -0.09603
vn 0.30973 0.94596 -0.09603
vn -0.30973 0.94596 -0.09605
vn -0.30973 0.94596 -0.09605
vn -0.30973 0.94596 -0.09605
vn -0.95469 0.29566 -0.03386
vn -0.95469 0.29566 -0.03386
vn -0.29553 -0.95056 0.09537
vn -0.29553 -0.95056 0.09537
vn -0.99066 -0.13518 0.01777
vn -0.99066 -0.13518 0.01777
vn 0.99066 -0.13519 -0.01772
vn 0.99066 -0.13519 -0.01772
vn 0.99066 -0.13519 -0.01772
vn 0.99066 -0.13519 -0.01772
vn 0.29554 -0.95055 -0.09549
vn 0.29554 -0.95055 -0.09549
vn 0.29554 -0.95055 -0.09549
vn 0.30972 0.94596 0.09608
vn 0.30972 0.94596 0.09608
vn 0.30972 0.94596 0.09608
vn 0.95468 0.29571 0.03383
vn 0.95468 0.29571 0.03383
vn 0.95468 0.29571 0.03383
vn -0.29552 -0.95055 -0.09551
vn -0.29552 -0.95055 -0.09551
vn -0.29552 -0.95055 -0.09551
vn -0.99066 -0.13518 -0.01778
vn -0.99066 -0.13518 -0.01778
vn -0.99066 -0.13518 -0.01778
vn -0.30973 0.94596 0.0961
vn -0.30973 0.94596 0.0961
vn -0.30973 0.94596 0.0961
vn -0.95467 0.29572 0.03389
vn -0.95467 0.29572 0.03389
vn -0.95467 0.29572 0.03389
vn -0.95467 0.29572 0.03389
vn -0.0251 0.07881 0.99657
vn -0.0251 0.07881 0.99657
vn -0.00027 0.10702 0.99426
vn -0.00027 0.10702 0.99426
vn -0.00033 0.10701 0.99426
vn -0.00033 0.10701 0.99426
vn -0.00033 0.10701 0.99426
vn 0.02688 0.08117 0.99634
vn 0.02688 0.08117 0.99634
vn 0.02688 0.08117 0.99634
vn -0.02688 0.08117 0.99634
vn -0.02688 0.08117 0.99634
vn -0.02688 0.08117 0.99634
vn 0.00035 0.10701 0.99426
vn 0.00035 0.10701 0.99426
vn 0.02507 0.07881 0.99657
vn 0.02507 0.07881 0.99657
vn 0.02507 0.07881 0.99657
vn 0.00029 0.10703 0.99426
vn 0.00029 0.10703 0.99426
vn 0.00029 0.10703 0.99426
vn 0.00029 0.10703 0.99426
vn -0.00065 0.10702 -0.99426
vn -0.00065 0.10702 -0.99426
vn -0.00065 0.10702 -0.99426
vn -0.00065 0.10702 -0.99426
vn -0.02502 0.0787 -0.99658
vn -0.02502 0.0787 -0.99658
vn -0.02502 0.0787 -0.99658
vn 0.02682 0.08117 -0.99634
vn 0.02682 0.08117 -0.99634
vn 0.02682 0.08117 -0.99634
vn 0.02682 0.08117 -0.99634
vn -0.00032 0.10698 -0.99426
vn -0.00032 0.10698 -0.99426
vn -0.00032 0.10698 -0.99426
vn 0.02499 0.0787 -0.99658
vn 0.02499 0.0787 -0.99658
vn 0.02499 0.0787 -0.99658
vn 0.02499 0.0787 -0.99658
vn 0.00058 0.10702 -0.99426
vn 0.00058 0.10702 -0.99426
vn -0.02682 0.08117 -0.99634
vn -0.02682 0.08117 -0.99634
vn -0.02682 0.08117 -0.99634
vn 0.00034 0.10698 -0.99426
vn 0.00034 0.10698 -0.99426
vn 0.00034 0.10698 -0.99426
vn -0.24899 0.96372 -0.0962
vn -0.24899 0.96372 -0.0962
vn -0.24899 0.96372 -0.0962
vn -0.99581 0.09042 -0.0136
vn -0.99581 0.09042 -0.0136
vn -0.99581 0.09042 -0.0136
vn -0.97227 -0.23219 0.0279
vn -0.97227 -0.23219 0.0279
vn -0.97227 -0.23219 0.0279
vn -0.97227 -0.23219 0.0279
vn -0.24076 -0.96569 0.09736
vn -0.24076 -0.96569 0.09736
vn -0.24076 -0.96569 0.09736
vn 0.24072 -0.9657 0.09736
vn 0.24072 -0.9657 0.09736
vn 0.24072 -0.9657 0.09736
vn 0.24072 -0.9657 0.09736
vn 0.97227 -0.23219 0.0279
vn 0.97227 -0.23219 0.0279
vn 0.97227 -0.23219 0.0279
vn 0.97227 -0.23219 0.0279
vn 0.24899 0.96372 -0.09622
vn 0.24899 0.96372 -0.09622
vn 0.24899 0.96372 -0.09622
vn 0.99581 0.0904 -0.0136
vn 0.99581 0.0904 -0.0136
vn 0.99581 0.0904 -0.0136
vn 0.99581 0.0904 -0.0136
vn -0.99582 0.09036 0.01364
vn -0.99582 0.09036 0.01364
vn -0.99582 0.09036 0.01364
vn -0.99582 0.09036 0.01364
vn -0.24901 0.96371 0.09622
vn -0.24901 0.96371 0.09622
vn -0.24901 0.96371 0.09622
vn -0.24901 0.96371 0.09622
vn -0.24076 -0.96569 -0.09733
vn -0.24076 -0.96569 -0.09733
vn -0.24076 -0.96569 -0.09733
vn -0.97227 -0.23218 -0.02789
vn -0.97227 -0.23218 -0.02789
vn -0.97227 -0.23218 -0.02789
vn 0.249 0.96371 0.0962
vn 0.249 0.96371 0.0962
vn 0.249 0.96371 0.0962
vn 0.249 0.96371 0.0962
vn 0.99582 0.09034 0.01357
vn 0.99582 0.09034 0.01357
vn 0.99582 0.09034 0.01357
vn 0.24075 -0.96569 -0.09735
vn 0.24075 -0.96569 -0.09735
vn 0.24075 -0.96569 -0.09735
vn 0.24075 -0.96569 -0.09735
vn 0.97227 -0.2322 -0.02793
vn 0.97227 -0.2322 -0.02793
vn 0 1 0
vn 0 1 0
vn 0 1 0
vn 0 1 -0
vn 0 1 -0
vn 0 1 -0
vn 0 1 -0
vn 0 1 -0
vn 0 1 0
vn 0 1 0
vn 0 1 -0
vn 0.9424 0 -0.33448
vn 0.33452 0 -0.94239
vn -0.33451 0 -0.94239
vn -0.9424 0 -0.33448
vn -0.33442 0 0.94243
vn -0.94242 0 0.33444
vn 0.33442 0 0.94242
vn 0.94242 0 0.33444
vn 0 1 0
vn 0 1 0
vn 0 1 0
vn 0 1 0
vn 0 1 0
vn 0 1 0
vn 0 1 0
vn 0 1 -0
vn 0 1 -0
vn 0 1 -0
vn 0 1 -0
vn 0.94239 0 -0.33451
vn 0.33448 0 -0.9424
vn -0.33447 0 -0.94241
vn -0.94238 0 -0.33454
vn -0.33452 0 0.94239
vn -0.9424 0 0.33448
vn 0.33453 0 0.94238
vn 0.94241 0 0.33445
vn 0.45548 -0.87544 -0.16167
vn 0.45548 -0.87544 -0.16167
vn 0.45548 -0.87544 -0.16167
vn 0.16167 -0.87545 -0.45547
vn 0.16167 -0.87545 -0.45547
vn 0.16167 -0.87545 -0.45547
vn 0.16167 -0.87545 -0.45547
vn -0.16167 -0.87545 -0.45547
vn -0.16167 -0.87545 -0.45547
vn -0.16167 -0.87545 -0.45547
vn -0.16167 -0.87545 -0.45547
vn -0.4555 -0.87543 -0.16169
vn -0.4555 -0.87543 -0.16169
vn -0.4555 -0.87543 -0.16169
vn -0.4555 -0.87543 -0.16169
vn -0.16164 -0.87546 0.45546
vn -0.16164 -0.87546 0.45546
vn -0.45551 -0.87543 0.16166
vn -0.45551 -0.87543 0.16166
vn -0.45551 -0.87543 0.16166
vn 0.16164 -0.87546 0.45546
vn 0.16164 -0.87546 0.45546
vn 0.16164 -0.87546 0.45546
vn 0.16164 -0.87546 0.45546
vn 0.45549 -0.87544 0.16164
vn 0.45549 -0.87544 0.16164
vn 0.45549 -0.87544 0.16164
vn 0.45549 -0.87544 0.16164
vn 0.69849 -0.67131 -0.24791
vn 0.69849 -0.67131 -0.24791
vn 0.24795 -0.67129 -0.6985
vn 0.24795 -0.67129 -0.6985
vn 0.24795 -0.67129 -0.6985
vn -0.24794 -0.67129 -0.69849
vn -0.24794 -0.67129 -0.69849
vn -0.69846 -0.67133 -0.24792
vn -0.69846 -0.67133 -0.24792
vn -0.69846 -0.67133 -0.24792
vn -0.69846 -0.67133 -0.24792
vn -0.24791 -0.67132 0.69848
vn -0.24791 -0.67132 0.69848
vn -0.69847 -0.67133 0.24789
vn -0.69847 -0.67133 0.24789
vn -0.69847 -0.67133 0.24789
vn 0.24791 -0.67131 0.69848
vn 0.24791 -0.67131 0.69848
vn 0.24791 -0.67131 0.69848
vn 0.24791 -0.67131 0.69848
vn 0.69851 -0.6713 0.24788
vn 0.69851 -0.6713 0.24788
vn 0.69851 -0.6713 0.24788
vn 0.69851 -0.6713 0.24788
vn 0.9424 0 -0.33448
vn 0.3345 0 -0.9424
vn -0.33449 0 -0.9424
vn -0.94239 0 -0.33451
vn -0.33449 0 0.9424
vn -0.94241 0 0.33446
vn 0.3345 0 0.9424
vn 0.94242 0 0.33444
vn 0 1 -0
vn 0 1 -0
vn 0 1 -0
vn 0 1 -0
vn 0 1 -0
vn 0 1 0
vn 0 1 0
vn 0 1 0
vn 0 1 0
vn 0 1 0
vn 0 1 0
vn 0 1 -0
vn 0 1 -0
vn 0 1 -0
vn -0.93018 0.16054 0.33014
vn -0.33016 0.16052 0.93018
vn -0.33016 0.16052 0.93018
vn -0.33016 0.16052 0.93018
vn 0.33015 0.16052 0.93018
vn 0.33015 0.16052 0.93018
vn 0.33015 0.16052 0.93018
vn 0.93018 0.16053 0.33013
vn 0.93018 0.16053 0.33013
vn 0.93018 0.16053 0.33013
vn 0.33015 0.16054 -0.93018
vn 0.33015 0.16054 -0.93018
vn 0.33015 0.16054 -0.93018
vn 0.33015 0.16054 -0.93018
vn 0.9302 0.16047 -0.33011
vn 0.9302 0.16047 -0.33011
vn 0.9302 0.16047 -0.33011
vn 0.9302 0.16047 -0.33011
vn -0.33016 0.16055 -0.93017
vn -0.33016 0.16055 -0.93017
vn -0.33016 0.16055 -0.93017
vn -0.93019 0.1605 -0.33012
vn -0.93019 0.1605 -0.33012
vn -0.93019 0.1605 -0.33012
vn -0.68286 0.68923 0.24223
vn -0.68286 0.68923 0.24223
vn -0.68286 0.68923 0.24223
vn -0.68286 0.68923 0.24223
vn -0.24223 0.68928 0.6828
vn -0.24223 0.68928 0.6828
vn -0.24223 0.68928 0.6828
vn -0.24223 0.68928 0.6828
vn 0.24224 0.68925 0.68283
vn 0.24224 0.68925 0.68283
vn 0.24224 0.68925 0.68283
vn 0.68286 0.68922 0.24223
vn 0.68286 0.68922 0.24223
vn 0.68286 0.68922 0.24223
vn 0.68286 0.68922 0.24223
vn 0.24226 0.68925 -0.68282
vn 0.24226 0.68925 -0.68282
vn 0.24226 0.68925 -0.68282
vn 0.24226 0.68925 -0.68282
vn 0.68286 0.68923 -0.24223
vn 0.68286 0.68923 -0.24223
vn 0.68286 0.68923 -0.24223
vn 0.68286 0.68923 -0.24223
vn -0.24225 0.68928 -0.68279
vn -0.24225 0.68928 -0.68279
vn -0.24225 0.68928 -0.68279
vn -0.68286 0.68922 -0.24223
vn -0.68286 0.68922 -0.24223
vn -0.68286 0.68922 -0.24223
vn -0.68286 0.68922 -0.24223
vn 0.84501 0.16465 0.50877
vn 0.84501 0.16465 0.50877
vn 0.84501 0.16465 0.50877
vn 0.84501 0.16465 0.50877
vn -0.85984 0.16383 0.48357
vn -0.85984 0.16383 0.48357
vn -0.85984 0.16383 0.48357
vn -0.85984 0.16383 0.48357
vn -0.61963 0.18365 0.76311
vn -0.61963 0.18365 0.76311
vn -0.61963 0.18365 0.76311
vn -0.61963 0.18365 0.76311
vn -0.61043 0.17876 -0.77164
vn -0.61043 0.17876 -0.77164
vn -0.61043 0.17876 -0.77164
vn -0.80942 0.16918 -0.56233
vn -0.80942 0.16918 -0.56233
vn 0.72841 0.19102 -0.65797
vn 0.72841 0.19102 -0.65797
vn 0.72841 0.19102 -0.65797
vn 0.55947 0.17311 -0.81058
vn 0.63293 0.19092 0.7503
vn 0.63293 0.19092 0.7503
vn 0.63293 0.19092 0.7503
vn 0.02357 -0.1018 0.99453
vn 0.02357 -0.1018 0.99453
vn 0.02357 -0.1018 0.99453
vn 0.02357 -0.1018 0.99453
vn 0.15888 0.12434 0.97944
vn 0.15888 0.12434 0.97944
vn 0.03533 0.16068 0.98637
vn 0.03533 0.16068 0.98637
vn 0.03913 0.09394 0.99481
vn -0.03918 0.09394 0.99481
vn -0.03918 0.09394 0.99481
vn -0.03918 0.09394 0.99481
vn -0.03918 0.09394 0.99481
vn -0.0353 0.16069 0.98637
vn -0.0353 0.16069 0.98637
vn -0.0353 0.16069 0.98637
vn -0.02353 -0.1018 0.99453
vn -0.02353 -0.1018 0.99453
vn -0.02353 -0.1018 0.99453
vn -0.02353 -0.1018 0.99453
vn -0.15891 0.12434 0.97943
vn -0.15891 0.12434 0.97943
vn -0.15891 0.12434 0.97943
vn -0.15891 0.12434 0.97943
vn 0.15874 0.12418 -0.97948
vn 0.15874 0.12418 -0.97948
vn 0.15874 0.12418 -0.97948
vn 0.02368 -0.10176 -0.99453
vn 0.02368 -0.10176 -0.99453
vn 0.02368 -0.10176 -0.99453
vn 0.03936 0.09375 -0.99482
vn 0.03936 0.09375 -0.99482
vn 0.03936 0.09375 -0.99482
vn 0.03936 0.09375 -0.99482
vn 0.03521 0.1609 -0.98634
vn 0.03521 0.1609 -0.98634
vn 0.03521 0.1609 -0.98634
vn -0.02371 -0.10176 -0.99453
vn -0.02371 -0.10176 -0.99453
vn -0.02371 -0.10176 -0.99453
vn -0.1588 0.12417 -0.97947
vn -0.1588 0.12417 -0.97947
vn -0.1588 0.12417 -0.97947
vn -0.03936 0.09376 -0.99482
vn -0.03936 0.09376 -0.99482
vn -0.03936 0.09376 -0.99482
vn -0.03525 0.16091 -0.98634
vn -0.03525 0.16091 -0.98634
vn 0.23722 -0.6899 0.68393
vn 0.23722 -0.6899 0.68393
vn 0.23722 -0.6899 0.68393
vn 0.80384 -0.06819 0.59093
vn 0.80384 -0.06819 0.59093
vn 0.80384 -0.06819 0.59093
vn 0.78252 0.42108 0.45865
vn 0.78252 0.42108 0.45865
vn 0.78252 0.42108 0.45865
vn 0.78252 0.42108 0.45865
vn 0.37822 0.84007 0.38889
vn 0.37822 0.84007 0.38889
vn 0.37822 0.84007 0.38889
vn -0.37818 0.84007 0.38893
vn -0.37818 0.84007 0.38893
vn -0.37818 0.84007 0.38893
vn -0.78253 0.42109 0.45861
vn -0.78253 0.42109 0.45861
vn -0.78253 0.42109 0.45861
vn -0.78253 0.42109 0.45861
vn -0.23727 -0.68986 0.68395
vn -0.23727 -0.68986 0.68395
vn -0.23727 -0.68986 0.68395
vn -0.80384 -0.06816 0.59093
vn -0.80384 -0.06816 0.59093
vn -0.80384 -0.06816 0.59093
vn 0.80368 -0.06824 -0.59113
vn 0.80368 -0.06824 -0.59113
vn 0.80368 -0.06824 -0.59113
vn 0.80368 -0.06824 -0.59113
vn 0.23735 -0.68973 -0.68406
vn 0.23735 -0.68973 -0.68406
vn 0.23735 -0.68973 -0.68406
vn 0.37826 0.84001 -0.38898
vn 0.37826 0.84001 -0.38898
vn 0.37826 0.84001 -0.38898
vn 0.37826 0.84001 -0.38898
vn 0.78236 0.42124 -0.45877
vn 0.78236 0.42124 -0.45877
vn 0.78236 0.42124 -0.45877
vn -0.23731 -0.68977 -0.68404
vn -0.23731 -0.68977 -0.68404
vn -0.23731 -0.68977 -0.68404
vn -0.80368 -0.06829 -0.59113
vn -0.80368 -0.06829 -0.59113
vn -0.80368 -0.06829 -0.59113
vn -0.37831 0.83996 -0.38904
vn -0.37831 0.83996 -0.38904
vn -0.37831 0.83996 -0.38904
vn -0.78232 0.42134 -0.45875
vn -0.78232 0.42134 -0.45875
vn -0.78232 0.42134 -0.45875
vn -0.78232 0.42134 -0.45875
vn 0.02751 0.91032 -0.413
vn 0.02751 0.91032 -0.413
vn 0.02751 0.91032 -0.413
vn 0.02751 0.91032 -0.413
vn -0.41382 0.90994 0.02764
vn -0.41382 0.90994 0.02764
vn -0.41382 0.90994 0.02764
vn -0.41382 0.90994 0.02764
vn -0.41207 0.91074 -0.02739
vn -0.41207 0.91074 -0.02739
vn -0.41207 0.91074 -0.02739
vn -0.85539 0.07631 -0.51233
vn -0.85539 0.07631 -0.51233
vn -0.85539 0.07631 -0.51233
vn 0.5525 0.08812 0.82884
vn 0.5525 0.08812 0.82884
vn 0.5525 0.08812 0.82884
vn 0.5525 0.08812 0.82884
vn 0 0 -1
vn -1 -2E-05 0
vn 0.60107 0.07113 -0.79602
vn 0.60107 0.07113 -0.79602
vn 0.60107 0.07113 -0.79602
vn 0.60107 0.07113 -0.79602
vn -0.88813 0.03034 0.45859
vn -0.88813 0.03034 0.45859
vn -0.88813 0.03034 0.45859
vn 0.80526 0.0959 0.58511
vn 0.80526 0.0959 0.58511
vn 0.80526 0.0959 0.58511
vn 0.80526 0.0959 0.58511
vn -1 0 0
vn -0.02758 0.91011 -0.41345
vn -0.02758 0.91011 -0.41345
vn -0.02758 0.91011 -0.41345
vn -0.02758 0.91011 -0.41345
vn 0 -0.77808 -0.62817
vn 0 -0.77808 -0.62817
vn 0 -0.77808 -0.62817
vn 0 -0.77808 -0.62817
vn 0 -0.77808 -0.62817
vn -0.62821 -0.77805 -0
vn -0.62821 -0.77805 -0
vn -0.62821 -0.77805 -0
vn -0.62821 -0.77805 0
vn -0.62821 -0.77805 0
vn 0.87439 0.07594 -0.47924
vn 0.87439 0.07594 -0.47924
vn 0.87439 0.07594 -0.47924
vn -0.58884 0.05211 0.80657
vn -0.58884 0.05211 0.80657
vn -0.58884 0.05211 0.80657
vn -0.58884 0.05211 0.80657
vn -0.48554 0.04209 -0.8732
vn 0.02783 0.90932 0.41516
vn 0.02783 0.90932 0.41516
vn 0.02783 0.90932 0.41516
vn 0.02783 0.90932 0.41516
vn 0 0 1
vn 0 -0.77808 0.62817
vn 0 -0.77808 0.62817
vn 0 -0.77808 0.62817
vn 0 -0.77808 0.62817
vn -0.02729 0.91105 0.4114
vn -0.02729 0.91105 0.4114
vn -0.02729 0.91105 0.4114
vn -0.02729 0.91105 0.4114
vn 0.41467 0.90955 -0.02776
vn 0.41467 0.90955 -0.02776
vn 0.41467 0.90955 -0.02776
vn 0.41467 0.90955 -0.02776
vn 1 0 0
vn 0.62816 -0.77808 0
vn 0.62816 -0.77808 0
vn 0.62817 -0.77807 0
vn 0.41439 0.90968 0.02772
vn 0.41439 0.90968 0.02772
vn 0.41439 0.90968 0.02772
vn -0.37071 0.83683 0.40285
vn -0.37071 0.83683 0.40285
vn -0.37071 0.83683 0.40285
vn -0.37093 0.8367 0.40291
vn -0.37093 0.8367 0.40291
vn 0.61809 0.75496 -0.21911
vn 0.61809 0.75496 -0.21911
vn 0.61809 0.75496 -0.21911
vn 0.21912 0.75494 -0.6181
vn 0.21912 0.75494 -0.6181
vn 0.21912 0.75494 -0.6181
vn -0.21912 0.75495 -0.61809
vn -0.21912 0.75495 -0.61809
vn -0.21912 0.75495 -0.61809
vn -0.61809 0.75496 -0.21911
vn -0.61809 0.75496 -0.21911
vn -0.61809 0.75496 -0.21911
vn -0.21912 0.75495 0.61809
vn -0.21912 0.75495 0.61809
vn -0.21912 0.75495 0.61809
vn -0.21912 0.75495 0.61809
vn -0.61809 0.75495 0.21911
vn -0.61809 0.75495 0.21911
vn -0.61809 0.75495 0.21911
vn -0.61809 0.75495 0.21911
vn 0.21912 0.75493 0.61811
vn 0.21912 0.75493 0.61811
vn 0.21912 0.75493 0.61811
vn 0.61809 0.75495 0.21911
vn 0.61809 0.75495 0.21911
vn 0.61809 0.75495 0.21911
vn 0.6181 0.75495 0.21911
vt 0.64454 0.08509
vt 0.44289 0.32654
vt 0.32343 0.32251
vt 0.8516 0.51392
usemtl mat0
f 1/1/1 2/1/2 3/1/3
f 3/1/3 4/1/2 1/1/1
f 2/1/4 5/1/5 6/1/6
f 6/1/6 3/1/6 2/1/4
f 5/1/7 7/1/8 8/1/8
f 8/1/8 6/1/9 5/1/7
f 7/1/10 1/1/10 4/1/11
f 4/1/11 8/1/12 7/1/10
f 5/1/13 2/1/14 1/1/13
f 1/1/13 7/1/14 5/1/13
f 9/1/15 10/1/15 11/1/16
f 11/1/16 12/1/17 9/1/15
f 13/1/18 14/1/19 15/1/20
f 15/1/20 16/1/21 13/1/18
f 14/1/22 17/1/23 18/1/24
f 18/1/24 15/1/25 14/1/22
f 17/1/26 19/1/27 20/1/28
f 20/1/28 18/1/29 17/1/26
f 19/1/30 13/1/31 16/1/32
f 16/1/32 20/1/33 19/1/30
f 21/1/34 22/1/34 23/1/35
f 23/1/35 24/1/34 21/1/34
f 25/1/36 26/1/37 27/1/38
f 27/1/38 28/1/37 25/1/36
f 29/1/39 30/1/40 31/1/41
f 31/1/41 32/1/42 29/1/39
f 30/1/43 33/1/44 34/1/45
f 34/1/45 31/1/46 30/1/43
f 33/1/47 35/1/48 36/1/49
f 36/1/49 34/1/50 33/1/47
f 35/1/51 29/1/52 32/1/53
f 32/1/53 36/1/54 35/1/51
f 37/1/55 38/1/56 39/1/57
f 39/1/57 40/1/58 37/1/55
f 41/1/59 42/1/60 43/1/59
f 43/1/59 44/1/60 41/1/59
f 4/1/61 3/1/61 45/1/62
f 45/1/62 46/1/63 4/1/61
f 8/1/64 4/1/64 46/1/65
f 46/1/65 47/1/66 8/1/64
f 6/1/67 8/1/68 47/1/69
f 47/1/69 48/1/70 6/1/67
f 3/1/71 6/1/72 48/1/73
f 48/1/73 45/1/74 3/1/71
f 18/1/75 26/1/76 25/1/77
f 25/1/77 15/1/76 18/1/75
f 15/1/78 25/1/79 28/1/79
f 28/1/79 16/1/78 15/1/78
f 16/1/80 28/1/81 27/1/80
f 27/1/80 20/1/82 16/1/80
f 20/1/83 27/1/83 26/1/84
f 26/1/84 18/1/83 20/1/83
f 31/1/85 41/1/86 44/1/87
f 44/1/87 32/1/88 31/1/85
f 32/1/89 44/1/90 43/1/91
f 43/1/91 36/1/92 32/1/89
f 36/1/93 43/1/94 42/1/93
f 42/1/93 34/1/95 36/1/93
f 34/1/96 42/1/96 41/1/97
f 41/1/97 31/1/98 34/1/96
f 45/1/62 9/1/99 12/1/100
f 12/1/100 46/1/63 45/1/62
f 46/1/65 12/1/101 11/1/102
f 11/1/102 47/1/66 46/1/65
f 47/1/69 11/1/103 10/1/104
f 10/1/104 48/1/70 47/1/69
f 48/1/73 10/1/105 9/1/106
f 9/1/106 45/1/74 48/1/73
f 23/1/107 22/1/108 14/1/19
f 14/1/19 13/1/18 23/1/107
f 22/1/109 21/1/110 17/1/23
f 17/1/23 14/1/22 22/1/109
f 21/1/111 24/1/112 19/1/27
f 19/1/27 17/1/26 21/1/111
f 24/1/113 23/1/114 13/1/31
f 13/1/31 19/1/30 24/1/113
f 39/1/115 38/1/116 30/1/40
f 30/1/40 29/1/39 39/1/115
f 38/1/117 37/1/118 33/1/44
f 33/1/44 30/1/43 38/1/117
f 37/1/119 40/1/120 35/1/48
f 35/1/48 33/1/47 37/1/119
f 40/1/121 39/1/122 29/1/52
f 29/1/52 35/1/51 40/1/121
f 49/2/123 50/2/123 51/2/123
f 51/2/123 52/2/124 49/2/123
f 53/3/125 54/3/125 55/3/125
f 55/3/125 56/3/125 53/3/125
f 57/2/126 58/2/127 59/2/128
f 59/2/128 60/2/128 57/2/126
f 58/2/129 57/2/130 61/2/129
f 61/2/129 62/2/131 58/2/129
f 63/2/132 64/2/133 65/2/132
f 65/2/132 66/2/132 63/2/132
f 67/2/134 68/2/134 69/2/134
f 69/2/134 70/2/134 67/2/134
f 71/2/135 72/2/135 73/2/135
f 73/2/135 74/2/135 71/2/135
f 75/2/136 72/2/137 71/2/136
f 71/2/136 76/2/137 75/2/136
f 77/2/125 78/2/125 79/2/125
f 79/2/125 80/2/125 77/2/125
f 68/2/138 81/2/139 82/2/140
f 82/2/140 69/2/141 68/2/138
f 72/2/142 83/2/143 84/2/144
f 84/2/144 73/2/145 72/2/142
f 85/2/146 83/2/147 72/2/146
f 72/2/146 75/2/148 85/2/146
f 86/2/149 87/2/150 78/2/151
f 78/2/151 77/2/151 86/2/149
f 88/2/152 89/2/153 90/2/152
f 90/2/152 91/2/154 88/2/152
f 92/2/155 93/2/156 94/2/156
f 94/2/156 95/2/157 92/2/155
f 96/2/158 97/2/159 98/2/160
f 98/2/160 99/2/160 96/2/158
f 100/2/161 101/2/162 102/2/163
f 102/2/163 103/2/161 100/2/161
f 50/2/164 67/2/165 70/2/164
f 70/2/164 51/2/165 50/2/164
f 80/2/166 79/2/166 64/2/167
f 64/2/167 63/2/167 80/2/166
f 71/2/168 57/2/169 60/2/168
f 60/2/168 76/2/168 71/2/168
f 57/2/170 71/2/170 74/2/171
f 74/2/171 61/2/170 57/2/170
f 66/2/172 65/2/172 104/2/172
f 104/2/172 105/2/172 66/2/172
f 106/2/173 49/2/174 52/2/173
f 52/2/173 107/2/173 106/2/173
f 108/2/175 58/2/176 62/2/177
f 62/2/177 109/2/178 108/2/175
f 58/2/179 108/2/179 110/2/179
f 110/2/179 59/2/179 58/2/179
f 111/2/180 112/2/181 113/2/182
f 113/2/182 114/2/182 111/2/180
f 115/2/183 112/2/184 111/2/185
f 111/2/185 116/2/184 115/2/183
f 117/2/186 118/2/187 106/2/188
f 106/2/188 107/2/189 117/2/186
f 119/2/190 120/2/191 121/2/192
f 121/2/192 122/2/193 119/2/190
f 108/2/194 123/2/195 124/2/196
f 124/2/196 110/2/197 108/2/194
f 96/2/198 125/2/199 126/2/198
f 126/2/198 97/2/198 96/2/198
f 127/2/200 125/2/201 96/2/200
f 96/2/200 128/2/202 127/2/200
f 129/2/203 130/2/203 90/2/203
f 90/2/203 89/2/204 129/2/203
f 97/2/205 108/2/206 109/2/206
f 109/2/206 98/2/206 97/2/205
f 106/2/207 118/2/208 115/2/209
f 115/2/209 116/2/209 106/2/207
f 93/2/210 131/2/211 132/2/212
f 132/2/212 94/2/213 93/2/210
f 121/2/214 133/2/215 134/2/215
f 134/2/215 122/2/216 121/2/214
f 105/2/217 104/2/217 89/2/218
f 89/2/218 88/2/217 105/2/217
f 104/2/219 135/2/219 129/2/220
f 129/2/220 89/2/221 104/2/219
f 136/2/222 100/2/222 103/2/223
f 103/2/223 137/2/224 136/2/222
f 126/2/225 123/2/226 108/2/225
f 108/2/225 97/2/227 126/2/225
f 55/3/125 138/3/125 139/3/125
f 139/3/125 56/3/125 55/3/125
f 82/2/228 140/2/229 141/2/229
f 141/2/229 69/2/230 82/2/228
f 69/2/231 141/2/232 142/2/231
f 142/2/231 143/2/231 144/2/231
f 144/2/231 69/2/231 142/2/231
f 143/2/233 145/2/233 146/2/234
f 146/2/234 147/2/235 144/2/234
f 144/2/234 143/2/233 146/2/234
f 147/2/236 146/2/237 148/2/236
f 148/2/236 52/2/237 147/2/236
f 52/2/238 148/2/239 134/2/239
f 134/2/239 107/2/238 52/2/238
f 134/2/240 133/2/241 117/2/242
f 117/2/242 107/2/242 134/2/240
f 132/2/243 149/2/244 150/2/245
f 150/2/245 94/2/246 132/2/243
f 94/2/247 150/2/248 151/2/249
f 151/2/249 95/2/249 94/2/247
f 113/2/250 120/2/251 119/2/252
f 119/2/252 114/2/251 113/2/250
f 90/2/253 130/2/254 127/2/255
f 127/2/255 128/2/254 90/2/253
f 102/2/256 152/2/257 153/2/256
f 153/2/256 103/2/257 102/2/256
f 103/2/258 153/2/259 154/2/260
f 154/2/260 137/2/261 103/2/258
f 124/2/262 135/2/262 104/2/262
f 104/2/262 110/2/262 124/2/262
f 110/2/263 104/2/264 65/2/264
f 65/2/264 59/2/263 110/2/263
f 59/2/128 65/2/128 64/2/265
f 64/2/265 155/2/128 59/2/128
f 155/2/266 64/2/267 79/2/268
f 79/2/268 156/2/267 155/2/266
f 79/2/269 78/2/270 75/2/271
f 75/2/271 156/2/272 79/2/269
f 78/2/273 87/2/274 85/2/273
f 85/2/273 75/2/273 78/2/273
f 157/2/275 67/2/276 50/2/276
f 50/2/276 158/2/276 157/2/275
f 158/2/277 50/2/278 49/2/278
f 49/2/278 62/2/279 158/2/277
f 62/2/280 49/2/281 106/2/282
f 106/2/282 109/2/281 62/2/280
f 109/2/283 106/2/284 116/2/285
f 116/2/285 98/2/283 109/2/283
f 98/2/286 116/2/287 111/2/288
f 111/2/288 99/2/289 98/2/286
f 119/2/290 122/2/291 88/2/290
f 88/2/290 91/2/292 119/2/290
f 122/2/293 134/2/293 105/2/294
f 105/2/294 88/2/294 122/2/293
f 134/2/295 148/2/296 66/2/295
f 66/2/295 105/2/295 134/2/295
f 148/2/297 146/2/298 159/2/299
f 159/2/299 66/2/300 148/2/297
f 145/2/301 160/2/302 161/2/303
f 161/2/303 159/2/301 146/2/302
f 146/2/302 145/2/301 161/2/303
f 142/2/304 141/2/304 77/2/304
f 77/2/304 161/2/305 160/2/304
f 160/2/304 142/2/304 77/2/304
f 141/2/306 140/2/306 86/2/307
f 86/2/307 77/2/307 141/2/306
f 56/3/125 139/3/125 162/3/125
f 162/3/125 163/3/125 56/3/125
f 163/3/125 164/3/125 53/3/125
f 53/3/125 56/3/125 163/3/125
f 84/2/308 81/2/309 68/2/310
f 68/2/310 73/2/311 84/2/308
f 73/2/125 68/2/125 67/2/125
f 67/2/125 157/2/125 73/2/125
f 165/2/312 166/2/313 113/2/314
f 113/2/314 112/2/315 165/2/312
f 167/2/316 165/2/317 112/2/317
f 112/2/317 115/2/318 167/2/316
f 168/2/319 167/2/320 115/2/321
f 115/2/321 118/2/319 168/2/319
f 169/2/322 168/2/323 118/2/323
f 118/2/323 117/2/323 169/2/322
f 170/2/324 169/2/325 117/2/326
f 117/2/326 133/2/324 170/2/324
f 171/2/327 170/2/328 133/2/328
f 133/2/328 121/2/328 171/2/327
f 166/2/329 172/2/330 120/2/330
f 120/2/330 113/2/329 166/2/329
f 172/2/331 171/2/332 121/2/331
f 121/2/331 120/2/331 172/2/331
f 173/2/333 174/2/334 126/2/335
f 126/2/335 125/2/336 173/2/333
f 175/2/337 173/2/337 125/2/338
f 125/2/338 127/2/339 175/2/337
f 176/2/340 177/2/341 124/2/342
f 124/2/342 123/2/340 176/2/340
f 174/2/343 176/2/343 123/2/344
f 123/2/344 126/2/345 174/2/343
f 178/2/346 175/2/347 127/2/348
f 127/2/348 130/2/347 178/2/346
f 179/2/349 178/2/350 130/2/351
f 130/2/351 129/2/351 179/2/349
f 177/2/352 180/2/353 135/2/353
f 135/2/353 124/2/354 177/2/352
f 180/2/355 179/2/356 129/2/357
f 129/2/357 135/2/358 180/2/355
f 181/2/359 182/2/360 166/2/359
f 166/2/359 165/2/359 181/2/359
f 183/2/361 181/2/361 165/2/362
f 165/2/362 167/2/361 183/2/361
f 184/2/363 183/2/364 167/2/363
f 167/2/363 168/2/365 184/2/363
f 185/2/366 184/2/366 168/2/367
f 168/2/367 169/2/368 185/2/366
f 186/2/369 185/2/370 169/2/371
f 169/2/371 170/2/370 186/2/369
f 187/2/372 186/2/373 170/2/372
f 170/2/372 171/2/373 187/2/372
f 182/2/374 188/2/375 172/2/376
f 172/2/376 166/2/374 182/2/374
f 188/2/377 187/2/378 171/2/379
f 171/2/379 172/2/380 188/2/377
f 189/2/381 190/2/382 174/2/383
f 174/2/383 173/2/384 189/2/381
f 191/2/385 189/2/386 173/2/387
f 173/2/387 175/2/387 191/2/385
f 192/2/388 193/2/389 177/2/390
f 177/2/390 176/2/391 192/2/388
f 190/2/392 192/2/393 176/2/392
f 176/2/392 174/2/394 190/2/392
f 194/2/395 191/2/396 175/2/397
f 175/2/397 178/2/398 194/2/395
f 195/2/399 194/2/400 178/2/399
f 178/2/399 179/2/399 195/2/399
f 193/2/401 196/2/402 180/2/403
f 180/2/403 177/2/403 193/2/401
f 196/2/404 195/2/405 179/2/405
f 179/2/405 180/2/406 196/2/404
f 197/2/407 198/2/408 182/2/408
f 182/2/408 181/2/409 197/2/407
f 199/2/410 197/2/411 181/2/410
f 181/2/410 183/2/412 199/2/410
f 200/2/413 199/2/414 183/2/415
f 183/2/415 184/2/416 200/2/413
f 201/2/417 200/2/418 184/2/418
f 184/2/418 185/2/419 201/2/417
f 202/2/420 201/2/421 185/2/422
f 185/2/422 186/2/423 202/2/420
f 203/2/424 202/2/425 186/2/426
f 186/2/426 187/2/427 203/2/424
f 198/2/428 204/2/429 188/2/430
f 188/2/430 182/2/429 198/2/428
f 204/2/431 203/2/432 187/2/433
f 187/2/433 188/2/434 204/2/431
f 205/2/435 206/2/436 190/2/437
f 190/2/437 189/2/438 205/2/435
f 207/2/439 205/2/440 189/2/441
f 189/2/441 191/2/442 207/2/439
f 208/2/443 209/2/444 193/2/445
f 193/2/445 192/2/444 208/2/443
f 206/2/446 208/2/446 192/2/447
f 192/2/447 190/2/448 206/2/446
f 210/2/449 207/2/450 191/2/451
f 191/2/451 194/2/452 210/2/449
f 211/2/453 210/2/454 194/2/453
f 194/2/453 195/2/455 211/2/453
f 209/2/456 212/2/457 196/2/458
f 196/2/458 193/2/459 209/2/456
f 212/2/460 211/2/461 195/2/460
f 195/2/460 196/2/460 212/2/460
f 213/2/462 214/2/463 84/2/463
f 84/2/463 83/2/464 213/2/462
f 215/2/465 213/2/466 83/2/466
f 83/2/466 85/2/466 215/2/465
f 216/2/467 215/2/468 85/2/468
f 85/2/468 87/2/468 216/2/467
f 217/2/125 216/2/125 87/2/125
f 87/2/125 86/2/125 217/2/125
f 218/2/125 219/2/125 140/2/125
f 140/2/125 82/2/125 218/2/125
f 219/2/469 217/2/469 86/2/469
f 86/2/469 140/2/469 219/2/469
f 220/2/470 218/2/471 82/2/471
f 82/2/471 81/2/471 220/2/470
f 214/2/472 220/2/472 81/2/472
f 81/2/472 84/2/472 214/2/472
f 221/4/473 222/4/473 223/4/473
f 223/4/473 224/4/473 221/4/473
f 225/4/474 221/4/474 224/4/474
f 224/4/474 226/4/474 225/4/474
f 227/4/475 225/4/475 226/4/475
f 226/4/475 228/4/475 227/4/475
f 229/4/476 227/4/476 228/4/476
f 228/4/476 230/4/476 229/4/476
f 231/4/477 232/4/477 233/4/477
f 233/4/477 234/4/477 231/4/477
f 232/4/478 229/4/478 230/4/478
f 230/4/478 233/4/478 232/4/478
f 235/4/479 231/4/479 234/4/479
f 234/4/479 236/4/479 235/4/479
f 222/4/480 235/4/480 236/4/480
f 236/4/480 223/4/480 222/4/480
f 237/4/125 238/4/125 222/4/125
f 222/4/125 221/4/125 237/4/125
f 239/4/481 237/4/482 221/4/483
f 221/4/483 225/4/484 239/4/481
f 240/4/485 239/4/486 225/4/486
f 225/4/486 227/4/487 240/4/485
f 241/4/488 240/4/488 227/4/489
f 227/4/489 229/4/488 241/4/488
f 242/4/490 243/4/490 232/4/491
f 232/4/491 231/4/490 242/4/490
f 243/4/125 241/4/125 229/4/125
f 229/4/125 232/4/125 243/4/125
f 244/4/125 242/4/125 231/4/125
f 231/4/125 235/4/125 244/4/125
f 238/4/125 244/4/125 235/4/125
f 235/4/125 222/4/125 238/4/125
f 245/4/492 246/4/492 238/4/492
f 238/4/492 237/4/492 245/4/492
f 247/4/493 245/4/493 237/4/493
f 237/4/493 239/4/493 247/4/493
f 248/4/494 247/4/494 239/4/494
f 239/4/494 240/4/494 248/4/494
f 249/4/495 248/4/495 240/4/495
f 240/4/495 241/4/495 249/4/495
f 250/4/496 251/4/496 243/4/496
f 243/4/496 242/4/496 250/4/496
f 251/4/497 249/4/497 241/4/497
f 241/4/497 243/4/497 251/4/497
f 252/4/498 250/4/498 242/4/498
f 242/4/498 244/4/498 252/4/498
f 246/4/499 252/4/499 244/4/499
f 244/4/499 238/4/499 246/4/499
f 253/4/500 254/4/500 246/4/501
f 246/4/501 245/4/502 253/4/500
f 255/4/503 253/4/504 245/4/505
f 245/4/505 247/4/506 255/4/503
f 256/4/507 255/4/508 247/4/509
f 247/4/509 248/4/510 256/4/507
f 257/4/511 256/4/512 248/4/513
f 248/4/513 249/4/514 257/4/511
f 258/4/515 259/4/516 251/4/515
f 251/4/515 250/4/516 258/4/515
f 259/4/517 257/4/517 249/4/518
f 249/4/518 251/4/519 259/4/517
f 260/4/520 258/4/521 250/4/522
f 250/4/522 252/4/523 260/4/520
f 254/4/524 260/4/525 252/4/526
f 252/4/526 246/4/527 254/4/524
f 261/4/528 262/4/529 254/4/528
f 254/4/528 253/4/529 261/4/528
f 263/4/530 261/4/530 253/4/531
f 253/4/531 255/4/532 263/4/530
f 264/4/533 263/4/533 255/4/533
f 255/4/533 256/4/534 264/4/533
f 265/4/535 264/4/536 256/4/537
f 256/4/537 257/4/538 265/4/535
f 266/4/539 267/4/539 259/4/540
f 259/4/540 258/4/539 266/4/539
f 267/4/541 265/4/542 257/4/542
f 257/4/542 259/4/543 267/4/541
f 268/4/544 266/4/545 258/4/546
f 258/4/546 260/4/547 268/4/544
f 262/4/548 268/4/549 260/4/550
f 260/4/550 254/4/551 262/4/548
f 269/4/552 270/4/552 262/4/552
f 262/4/552 261/4/552 269/4/552
f 271/4/553 269/4/553 261/4/553
f 261/4/553 263/4/553 271/4/553
f 272/4/554 271/4/554 263/4/554
f 263/4/554 264/4/554 272/4/554
f 273/4/555 272/4/555 264/4/555
f 264/4/555 265/4/555 273/4/555
f 274/4/556 275/4/556 267/4/556
f 267/4/556 266/4/556 274/4/556
f 275/4/557 273/4/557 265/4/557
f 265/4/557 267/4/557 275/4/557
f 276/4/558 274/4/558 266/4/558
f 266/4/558 268/4/558 276/4/558
f 270/4/559 276/4/559 268/4/559
f 268/4/559 262/4/559 270/4/559
f 277/4/125 278/4/125 270/4/125
f 270/4/125 269/4/125 277/4/125
f 279/4/560 277/4/560 269/4/560
f 269/4/560 271/4/561 279/4/560
f 280/4/562 279/4/563 271/4/564
f 271/4/564 272/4/563 280/4/562
f 281/4/125 280/4/125 272/4/125
f 272/4/125 273/4/125 281/4/125
f 282/4/565 283/4/566 275/4/566
f 275/4/566 274/4/567 282/4/565
f 283/4/125 281/4/125 273/4/125
f 273/4/125 275/4/125 283/4/125
f 284/4/568 282/4/569 274/4/568
f 274/4/568 276/4/570 284/4/568
f 278/4/571 284/4/571 276/4/572
f 276/4/572 270/4/573 278/4/571
f 285/4/574 286/4/574 278/4/574
f 278/4/574 277/4/574 285/4/574
f 287/4/575 285/4/576 277/4/576
f 277/4/576 279/4/577 287/4/575
f 288/4/578 287/4/579 279/4/580
f 279/4/580 280/4/578 288/4/578
f 289/4/581 288/4/582 280/4/582
f 280/4/582 281/4/583 289/4/581
f 290/4/584 291/4/585 283/4/586
f 283/4/586 282/4/587 290/4/584
f 291/4/588 289/4/589 281/4/590
f 281/4/590 283/4/591 291/4/588
f 292/4/592 290/4/593 282/4/594
f 282/4/594 284/4/594 292/4/592
f 286/4/595 292/4/596 284/4/596
f 284/4/596 278/4/597 286/4/595
f 293/4/598 294/4/599 286/4/600
f 286/4/600 285/4/601 293/4/598
f 295/4/602 293/4/603 285/4/604
f 285/4/604 287/4/605 295/4/602
f 296/4/606 295/4/607 287/4/608
f 287/4/608 288/4/608 296/4/606
f 297/4/609 296/4/610 288/4/611
f 288/4/611 289/4/612 297/4/609
f 298/4/613 299/4/614 291/4/615
f 291/4/615 290/4/616 298/4/613
f 299/4/617 297/4/618 289/4/619
f 289/4/619 291/4/620 299/4/617
f 300/4/621 298/4/622 290/4/623
f 290/4/623 292/4/623 300/4/621
f 294/4/624 300/4/625 292/4/626
f 292/4/626 286/4/627 294/4/624
f 52/2/628 69/2/629 144/2/630
f 144/2/630 147/2/631 52/2/628
f 51/2/632 70/2/633 69/2/634
f 69/2/634 52/2/635 51/2/632
f 66/2/636 77/2/637 80/2/638
f 80/2/638 63/2/639 66/2/636
f 159/2/640 161/2/641 77/2/642
f 77/2/642 66/2/640 159/2/640
f 76/2/643 60/2/643 59/2/644
f 59/2/644 75/2/643 76/2/643
f 75/2/645 59/2/646 155/2/645
f 155/2/645 156/2/647 75/2/645
f 62/2/648 73/2/648 157/2/648
f 157/2/648 158/2/648 62/2/648
f 61/2/649 74/2/650 73/2/651
f 73/2/651 62/2/649 61/2/649
f 301/2/652 302/2/653 198/2/654
f 198/2/654 197/2/655 301/2/652
f 303/2/656 301/2/657 197/2/656
f 197/2/656 199/2/656 303/2/656
f 304/2/658 303/2/659 199/2/658
f 199/2/658 200/2/658 304/2/658
f 305/2/660 304/2/660 200/2/660
f 200/2/660 201/2/660 305/2/660
f 306/2/661 305/2/662 201/2/663
f 201/2/663 202/2/664 306/2/661
f 307/2/665 306/2/666 202/2/665
f 202/2/665 203/2/667 307/2/665
f 302/2/668 308/2/669 204/2/670
f 204/2/670 198/2/671 302/2/668
f 308/2/672 307/2/673 203/2/674
f 203/2/674 204/2/675 308/2/672
f 309/2/676 310/2/676 206/2/677
f 206/2/677 205/2/678 309/2/676
f 311/2/679 309/2/680 205/2/681
f 205/2/681 207/2/679 311/2/679
f 312/2/682 313/2/683 209/2/684
f 209/2/684 208/2/685 312/2/682
f 310/2/686 312/2/686 208/2/687
f 208/2/687 206/2/688 310/2/686
f 314/2/689 311/2/690 207/2/691
f 207/2/691 210/2/691 314/2/689
f 315/2/692 314/2/692 210/2/693
f 210/2/693 211/2/694 315/2/692
f 313/2/695 316/2/696 212/2/697
f 212/2/697 209/2/695 313/2/695
f 316/2/698 315/2/698 211/2/698
f 211/2/698 212/2/699 316/2/698
f 92/2/700 95/2/701 302/2/702
f 302/2/702 301/2/701 92/2/700
f 93/2/703 92/2/704 301/2/705
f 301/2/705 303/2/704 93/2/703
f 131/2/706 93/2/707 303/2/708
f 303/2/708 304/2/709 131/2/706
f 132/2/710 131/2/710 304/2/711
f 304/2/711 305/2/712 132/2/710
f 149/2/713 132/2/714 305/2/715
f 305/2/715 306/2/714 149/2/713
f 150/2/716 149/2/717 306/2/718
f 306/2/718 307/2/719 150/2/716
f 95/2/720 151/2/721 308/2/722
f 308/2/722 302/2/721 95/2/720
f 151/2/723 150/2/724 307/2/725
f 307/2/725 308/2/724 151/2/723
f 101/2/726 100/2/727 310/2/728
f 310/2/728 309/2/729 101/2/726
f 102/2/730 101/2/731 309/2/732
f 309/2/732 311/2/732 102/2/730
f 136/2/733 137/2/734 313/2/735
f 313/2/735 312/2/736 136/2/733
f 100/2/737 136/2/738 312/2/737
f 312/2/737 310/2/739 100/2/737
f 152/2/740 102/2/741 311/2/742
f 311/2/742 314/2/740 152/2/740
f 153/2/743 152/2/744 314/2/743
f 314/2/743 315/2/745 153/2/743
f 137/2/746 154/2/747 316/2/747
f 316/2/747 313/2/748 137/2/746
f 154/2/749 153/2/750 315/2/751
f 315/2/751 316/2/752 154/2/749
f 317/2/753 318/2/754 90/2/755
f 90/2/755 128/2/756 317/2/753
f 318/2/757 319/2/758 91/2/759
f 91/2/759 90/2/760 318/2/757
f 320/2/761 321/2/762 119/2/763
f 119/2/763 91/2/761 320/2/761
f 322/2/764 323/2/765 128/2/766
f 128/2/766 324/2/766 322/2/764
f 99/2/767 325/2/768 326/2/769
f 326/2/769 327/2/770 99/2/767
f 328/2/771 329/2/771 318/2/771
f 318/2/771 317/2/771 328/2/771
f 318/2/772 329/2/772 330/2/772
f 330/2/772 319/2/772 318/2/772
f 331/2/773 325/2/774 99/2/775
f 99/2/775 332/2/776 331/2/773
f 114/2/777 333/2/778 334/2/777
f 334/2/777 335/2/779 114/2/777
f 336/2/780 333/2/781 114/2/782
f 114/2/782 337/2/783 336/2/780
f 338/2/784 339/2/784 321/2/784
f 321/2/784 320/2/784 338/2/784
f 340/2/785 324/2/786 128/2/787
f 128/2/787 96/2/788 340/2/785
f 340/2/771 341/2/771 322/2/771
f 322/2/771 324/2/771 340/2/771
f 342/2/789 323/2/789 322/2/790
f 322/2/790 341/2/789 342/2/789
f 323/2/791 343/2/792 329/2/793
f 329/2/793 328/2/792 323/2/791
f 329/2/794 343/2/795 344/2/794
f 344/2/794 330/2/796 329/2/794
f 344/2/797 345/2/798 339/2/798
f 339/2/798 338/2/798 344/2/797
f 128/2/799 323/2/800 328/2/801
f 328/2/801 317/2/801 128/2/799
f 330/2/802 344/2/803 91/2/804
f 91/2/804 319/2/805 330/2/802
f 91/2/806 344/2/806 338/2/806
f 338/2/806 320/2/806 91/2/806
f 321/2/807 337/2/808 114/2/809
f 114/2/809 119/2/810 321/2/807
f 321/2/811 339/2/811 336/2/811
f 336/2/811 337/2/811 321/2/811
f 339/2/812 345/2/813 333/2/813
f 333/2/813 336/2/813 339/2/812
f 333/2/814 346/2/815 347/2/815
f 347/2/815 334/2/814 333/2/814
f 334/2/811 347/2/811 348/2/811
f 348/2/811 335/2/811 334/2/811
f 335/2/816 348/2/817 111/2/818
f 111/2/818 114/2/819 335/2/816
f 348/2/820 332/2/821 99/2/822
f 99/2/822 111/2/823 348/2/820
f 348/2/824 347/2/824 331/2/824
f 331/2/824 332/2/824 348/2/824
f 347/2/825 346/2/826 325/2/826
f 325/2/826 331/2/826 347/2/825
f 325/2/827 342/2/827 341/2/827
f 341/2/827 326/2/827 325/2/827
f 326/2/824 341/2/824 340/2/824
f 340/2/824 327/2/824 326/2/824
f 327/2/828 340/2/829 96/2/830
f 96/2/830 99/2/830 327/2/828
f 145/2/831 143/2/832 142/2/833
f 160/2/834 145/2/835 142/2/834
f 54/3/836 53/3/837 349/3/837
f 349/3/837 350/3/838 54/3/836
f 55/3/839 54/3/840 350/3/839
f 350/3/839 351/3/841 55/3/839
f 138/3/842 55/3/843 351/3/844
f 351/3/844 352/3/843 138/3/842
f 139/3/845 138/3/846 352/3/847
f 352/3/847 353/3/847 139/3/845
f 163/3/848 162/3/849 354/3/850
f 354/3/850 355/3/851 163/3/848
f 162/3/852 139/3/853 353/3/854
f 353/3/854 354/3/855 162/3/852
f 164/3/856 163/3/857 355/3/857
f 355/3/857 356/3/858 164/3/856
f 53/3/859 164/3/860 356/3/861
f 356/3/861 349/3/862 53/3/859
# Vertices: 356, normals: 862, texture coordinates: 4, faces: 658

