# File generated by FabConvert.com - Free Image and 3D model conversion tools

mtllib SM_Prop_StoneCircle_01.mtl

# SM_Prop_StoneCircle_01_0
o obj1
v -0.11970514 0.0998363 -0.68258965
v -0.06323734 0.0998363 -0.70093775
v -0.06323734 0 -0.70093775
v -0.30968386 0 -0.6208595
v -0.30968386 0.0998363 -0.6208595
v -0.25443214 0.0998363 -0.63881242
v -0.66663015 0.09582442 -0.07049566
v -0.66663015 0.09582442 -0.12955852
v -0.66663015 0 -0.12955852
v -0.66663015 0 0.12956983
v -0.66663015 0.09582442 0.12956983
v -0.66663015 0.09582442 0.07888724
v -0.26630425 0.10002892 0.63495505
v -0.30968529 0.10002892 0.6208595
v -0.30968529 0 0.6208595
v -0.06323451 0 0.70093775
v -0.06323451 0.10002892 0.70093775
v -0.13121435 0.10002892 0.67884934
v 0.66663015 0.16157645 0.30363989
v 0.51431668 0.16157645 0.51327676
v 0.51431668 0 0.51327676
v 0.66663015 0 0.30363989
v 0.6389128 0.07234398 -0.34178978
v 0.66663015 0.07234398 -0.30363989
v 0.66663015 0 -0.30363989
v 0.51431668 0 -0.51328236
v 0.51431668 0.07234398 -0.51328236
v 0.53874844 0.07234398 -0.47965473
v -0.27159172 0 -0.21786892
v 0.14282078 0 -0.35252053
v 0.02827995 0 -0
v -0.27159172 0 0.21786892
v 0.14282078 0 0.35252053
v 0.39894164 0 -0
v 0.06971234 0.15395582 -0.07377829
v -0.01905601 0.15395582 -0.04493569
v 0.04775829 0.15395582 0.00173326
v -0.01905601 0.15395582 0.04840219
v 0.06971234 0.15395582 0.0772448
v 0.12457334 0.15395582 0.00173325
v -0.3867476 0 -0.40575057
v 0.1255464 0 -0.57221067
v -0.3867476 0.0998363 -0.40575057
v -0.27159172 0.16157645 -0.21786892
v -0.32677752 0.16157645 -0.4252367
v 0.1255464 0.0998363 -0.57221067
v 0.14282078 0.16157645 -0.35252053
v -0.48586637 0 0.26933151
v -0.48586637 0 -0.26932585
v -0.48586637 0.09582442 0.26933151
v -0.27159172 0.16157645 0.21786892
v -0.48586637 0.16157645 -0.22668195
v -0.48586637 0.16157645 0.20804405
v -0.48586637 0.09582442 -0.26932585
v 0.1255464 0 0.57221067
v -0.3867476 0 0.40575057
v 0.1255464 0.10002892 0.57221067
v 0.14282078 0.16157645 0.35252053
v -0.33099931 0.16157645 0.4238649
v 0.07294413 0.16157645 0.55511862
v -0.3867476 0.10002892 0.40575057
v 0.60254085 0 0.08431739
v 0.28592506 0 0.52009767
v 0.60254085 0.16157645 0.08431739
v 0.39894164 0.16157645 -0
v 0.43877566 0.16157645 0.40032548
v 0.28592506 0.16157645 0.52009767
v 0.28592506 0 -0.52009767
v 0.60254085 0 -0.08431739
v 0.28592506 0.07234398 -0.52009767
v 0.57466727 0.16157645 -0.12268183
v 0.31564122 0.16157645 -0.47919726
v 0.60254085 0.07234398 -0.08431739
v -0.32334107 0.0998363 -0.58273786
v 0.07684605 0.16157645 -0.55638647
v -0.07961546 0.16157645 -0.65384007
v -0.2815153 0.16157645 -0.59493971
v -0.01977044 0.0998363 -0.67129874
v -0.62627363 0.09582442 0.16077232
v -0.62790871 0.16157645 -0.10395232
v -0.62660289 0.16157645 0.10748695
v -0.62825024 0.09582442 -0.15923405
v -0.02212331 0.10002892 0.67290461
v -0.28012872 0.16157645 0.58984804
v -0.0726707 0.16157645 0.65663254
v -0.3260963 0.10002892 0.57505023
v 0.41790032 0 0.49570829
v 0.41893244 0.0915685 0.49567747
v 0.47700185 0.07234398 -0.51439589
v 0.62783486 0.16157645 -0.30400896
v 0.50196302 0.16157645 -0.47957927
v 0.65547299 0.07234398 -0.26545846
v -0.00407961 0.1359669 -0.21021071
v 0.12613052 0.1359669 -0.27818012
v -0.13520235 0.16157645 -0.2621848
v -0.11149985 0.1359669 -0.22679093
v -0.20088974 0.1359669 0.17192441
v -0.20088974 0.1359669 -0.17192441
v 0.12613052 0.1359669 0.27818012
v 0.32823965 0.1359669 -0
v -0.05967222 0.08498002 -0.07133022
v 0.07930082 0.08498002 -0.11648525
v 0.11741471 0.08498002 -0.23935834
v 0.00800809 0.08498002 -0.17713737
v -0.09991321 0.08498002 -0.19456607
v -0.163968 0.08498002 -0.14793155
v -0.05967222 0.08498002 0.07479674
v -0.163968 0.08498002 0.14793155
v 0.07930082 0.08498002 0.11995177
v 0.11741471 0.08498002 0.23935834
v 0.16518956 0.08498002 0.00173326
v 0.29131791 0.08498002 -0
vn -0.30903 0 -0.95105
vn -1 0 0
vn -0.30902 0 0.95105
vn 0.80901 0 0.58779
vn 0.80902 0 -0.58778
vn 0 -1 0
vn 0 1 0
vn -0.8526 0 0.52257
vn -0.8526 0 0.52257
vn -0.67658 0.71401 0.18006
vn -0.67658 0.71401 0.18006
vn -0.67658 0.71401 0.18006
vn 0.99692 0 -0.07839
vn 0.99692 0 -0.07839
vn 0.23353 0 0.97235
vn 0.23353 0 0.97235
vn 0.23351 0 -0.97236
vn 0.23351 0 -0.97236
vn 0.23351 0 -0.97236
vn 0.99692 0 0.07839
vn 0.99692 0 0.07839
vn 0 1 -0
vn 0 1 -0
vn -0.8526 0 -0.52257
vn 0.38262 0 -0.92391
vn -0.76045 0 0.6494
vn -0.76045 0 -0.6494
vn -0.76045 0 -0.6494
vn -0.76045 0 -0.6494
vn 0 1 0
vn 0 1 0
vn 0 1 0
vn 0.38262 0 0.92391
vn 0.38262 0 0.92391
vn 0.38262 0 0.92391
vn -0.94141 0 -0.33726
vn -0.94141 0 -0.33726
vn 0 1 -0
vn 0.56337 -0 -0.82621
vn -0.61167 0 0.79111
vn 0 1 0
vn 0 1 0
vn -0.61168 -0 -0.7911
vn 0.56338 -0 0.8262
vn -0.94141 0 0.33726
vn 0.95986 0 -0.28048
vn 0 1 0
vn 0 1 0
vn 0 1 0
vn -0.18065 0.00086 0.98355
vn -0.18065 0.00086 0.98355
vn -0.18065 0.00086 0.98355
vn 0.02983 -0 -0.99956
vn 0 1 -0
vn 0 1 -0
vn 0.95986 0 0.28048
vn 0.08934 0.94147 0.32504
vn 0.08934 0.94147 0.32504
vn 0.34057 0.94022 0
vn 0.11246 0.93143 -0.34612
vn 0.11246 0.93143 -0.34612
vn 0.11246 0.93143 -0.34612
vn -0.3306 0.9127 -0.24019
vn -0.3306 0.9127 -0.24019
vn -0.3306 0.9127 0.24019
vn -0.3306 0.9127 0.24019
vn 0 1 0
vn 0 1 0
vn 0 1 -0
vn 0 1 -0
vn 0 1 -0
vn 0 1 0
vn 0 1 -0
vn 0 1 -0
vn -0.27123 0.47915 -0.83477
vn -0.27123 0.47915 -0.83477
vn -0.8617 0.50741 0
vn -0.27123 0.47915 0.83477
vn -0.27123 0.47915 0.83477
vn -0.27123 0.47915 0.83477
vn 0.73038 0.43008 0.53064
vn 0.73038 0.43008 0.53064
vn 0.73038 0.43008 0.53064
vn 0.73038 0.43008 -0.53064
vn 0.73038 0.43008 -0.53064
vn -0.69805 0.50548 0.50716
vn -0.69805 0.50548 0.50716
vn -0.69805 0.50548 0.50716
vn -0.69805 0.50548 -0.50716
vn -0.69805 0.50548 -0.50716
vn 0.25657 0.55737 -0.78963
vn 0.25657 0.55737 -0.78963
vn 0.25657 0.55737 -0.78963
vn 0.80994 0.58651 0
vn 0.80994 0.58651 0
vn 0.40297 0.53623 0.74167
vn 0.40297 0.53623 0.74167
vn 0.45908 0.66784 0.58587
vn 0.45908 0.66784 0.58587
vn -0.5899 0.70454 0.39452
vn -0.5899 0.70454 0.39452
vn 0.18099 -0.00062 0.98348
vn 0.18099 -0.00062 0.98348
vn 0.18099 -0.00062 0.98348
vn 0.16673 0.91003 0.37954
vn 0.16673 0.91003 0.37954
vn 0.16673 0.91003 0.37954
vn 0.16673 0.91003 0.37954
vn 0.44725 0.5855 0.67613
vn 0.44725 0.5855 0.67613
vn 0.44725 0.5855 0.67613
vn -0.13399 0.51215 0.84838
vn -0.13399 0.51215 0.84838
vn -0.69596 0.68946 -0.20071
vn -0.69596 0.68946 -0.20071
vn -0.77747 0.57329 0.2586
vn -0.77747 0.57329 0.2586
vn -0.77747 0.57329 0.2586
vn -0.58096 0.57117 0.57987
vn -0.58096 0.57117 0.57987
vn -0.58096 0.57117 0.57987
vn -0.58096 0.57117 0.57987
vn -0.25988 0.53433 0.80434
vn -0.25988 0.53433 0.80434
vn -0.25988 0.53433 0.80434
vn 0.04401 0.5881 0.80759
vn 0.04401 0.5881 0.80759
vn 0.04401 0.5881 0.80759
vn 0.04401 0.5881 0.80759
vn 0.46528 0.5728 0.67484
vn 0.46528 0.5728 0.67484
vn 0.46528 0.5728 0.67484
vn 0.46528 0.5728 0.67484
vn 0.7032 0.66835 0.24253
vn 0.7032 0.66835 0.24253
vn 0.7032 0.66835 0.24253
vn 0 1 0
vn 0 1 0
vn 0 1 0
vn 0.73232 0.63839 -0.23699
vn 0.73232 0.63839 -0.23699
vn -0.53797 0.52299 -0.66111
vn -0.53797 0.52299 -0.66111
vn 0.44591 0.57653 -0.68467
vn 0.44591 0.57653 -0.68467
vn 0.44591 0.57653 -0.68467
vn 0.44591 0.57653 -0.68467
vn -0.7781 0.57887 -0.24389
vn -0.7781 0.57887 -0.24389
vn 0.08819 0.61883 -0.78056
vn 0.08819 0.61883 -0.78056
vn 0.08819 0.61883 -0.78056
vn 0.08819 0.61883 -0.78056
vn -0.25091 0.51024 -0.82262
vn -0.25091 0.51024 -0.82262
vn 0.03449 0.54381 -0.8385
vn 0.03449 0.54381 -0.8385
vn 0.03449 0.54381 -0.8385
vn -0.54843 0.50034 -0.66999
vn -0.54843 0.50034 -0.66999
vn -0.48949 0.57213 0.65808
vn -0.48949 0.57213 0.65808
vn -0.03352 0.68145 0.73109
vn -0.03352 0.68145 0.73109
vn -0.75365 0.57076 -0.32596
vn -0.75365 0.57076 -0.32596
vn -0.75365 0.57076 -0.32596
vn -0.75365 0.57076 -0.32596
vn -0.85788 0.51384 0.0031
vn -0.85788 0.51384 0.0031
vn -0.85788 0.51384 0.0031
vn -0.73673 0.57044 0.36309
vn -0.73673 0.57044 0.36309
vn -0.73673 0.57044 0.36309
vn 0.50551 0.46922 0.72408
vn 0.50551 0.46922 0.72408
vn 0.88498 0.38692 0.25905
vn 0.88498 0.38692 0.25905
vn 0.013 0.38716 -0.92192
vn 0.013 0.38716 -0.92192
vn -0.51437 0.49294 -0.70174
vn -0.51437 0.49294 -0.70174
vn -0.51437 0.49294 -0.70174
vn 0.89973 0.39036 -0.1952
vn 0.89973 0.39036 -0.1952
vn 0.89973 0.39036 -0.1952
vn 0.76754 0.32326 -0.55352
vn 0.76754 0.32326 -0.55352
vn 0.76754 0.32326 -0.55352
vn 0.45574 0.36903 -0.81001
vn 0.45574 0.36903 -0.81001
vn 0.45574 0.36903 -0.81001
vt 0.85131 0.51234
usemtl mat0
f 1/1/1 2/1/1 3/1/1
f 3/1/1 4/1/1 5/1/1
f 5/1/1 6/1/1 1/1/1
f 1/1/1 3/1/1 5/1/1
f 7/1/2 8/1/2 9/1/2
f 9/1/2 10/1/2 11/1/2
f 12/1/2 7/1/2 9/1/2
f 9/1/2 11/1/2 12/1/2
f 13/1/3 14/1/3 15/1/3
f 15/1/3 16/1/3 17/1/3
f 18/1/3 13/1/3 15/1/3
f 15/1/3 17/1/3 18/1/3
f 19/1/4 20/1/4 21/1/4
f 21/1/4 22/1/4 19/1/4
f 23/1/5 24/1/5 25/1/5
f 25/1/5 26/1/5 27/1/5
f 28/1/5 23/1/5 25/1/5
f 25/1/5 27/1/5 28/1/5
f 29/1/6 30/1/6 31/1/6
f 32/1/6 29/1/6 31/1/6
f 33/1/6 32/1/6 31/1/6
f 34/1/6 33/1/6 31/1/6
f 30/1/6 34/1/6 31/1/6
f 35/1/7 36/1/7 37/1/7
f 36/1/7 38/1/7 37/1/7
f 38/1/7 39/1/7 37/1/7
f 39/1/7 40/1/7 37/1/7
f 40/1/7 35/1/7 37/1/7
f 41/1/6 42/1/6 30/1/6
f 30/1/6 29/1/6 41/1/6
f 43/1/8 41/1/8 29/1/8
f 29/1/8 44/1/9 43/1/8
f 44/1/10 45/1/11 43/1/12
f 42/1/13 46/1/13 47/1/14
f 47/1/14 30/1/13 42/1/13
f 48/1/6 49/1/6 29/1/6
f 29/1/6 32/1/6 48/1/6
f 50/1/15 48/1/16 32/1/16
f 32/1/16 51/1/16 50/1/15
f 52/1/7 53/1/7 51/1/7
f 51/1/7 44/1/7 52/1/7
f 49/1/17 54/1/18 44/1/19
f 44/1/19 29/1/17 49/1/17
f 55/1/6 56/1/6 32/1/6
f 32/1/6 33/1/6 55/1/6
f 57/1/20 55/1/20 33/1/20
f 33/1/20 58/1/21 57/1/20
f 59/1/22 60/1/23 58/1/22
f 58/1/22 51/1/22 59/1/22
f 56/1/24 61/1/24 51/1/24
f 51/1/24 32/1/24 56/1/24
f 62/1/6 63/1/6 33/1/6
f 33/1/6 34/1/6 62/1/6
f 64/1/25 62/1/25 34/1/25
f 34/1/25 65/1/25 64/1/25
f 66/1/7 64/1/7 65/1/7
f 65/1/7 58/1/7 67/1/7
f 67/1/7 66/1/7 65/1/7
f 63/1/26 67/1/26 58/1/26
f 58/1/26 33/1/26 63/1/26
f 68/1/6 69/1/6 34/1/6
f 34/1/6 30/1/6 68/1/6
f 70/1/27 68/1/28 30/1/28
f 30/1/28 47/1/29 70/1/27
f 71/1/30 72/1/31 47/1/32
f 47/1/32 65/1/32 71/1/30
f 69/1/33 73/1/34 65/1/35
f 65/1/35 34/1/33 69/1/33
f 4/1/6 3/1/6 42/1/6
f 42/1/6 41/1/6 4/1/6
f 5/1/36 4/1/36 41/1/36
f 41/1/36 43/1/36 74/1/37
f 74/1/37 5/1/36 41/1/36
f 75/1/38 76/1/38 77/1/38
f 77/1/38 45/1/38 75/1/38
f 2/1/39 78/1/39 46/1/39
f 46/1/39 42/1/39 3/1/39
f 3/1/39 2/1/39 46/1/39
f 10/1/6 9/1/6 49/1/6
f 49/1/6 48/1/6 10/1/6
f 11/1/40 10/1/40 48/1/40
f 48/1/40 50/1/40 79/1/40
f 79/1/40 11/1/40 48/1/40
f 53/1/41 52/1/42 80/1/41
f 80/1/41 81/1/41 53/1/41
f 8/1/43 82/1/43 54/1/43
f 54/1/43 49/1/43 9/1/43
f 9/1/43 8/1/43 54/1/43
f 16/1/6 15/1/6 56/1/6
f 56/1/6 55/1/6 16/1/6
f 17/1/44 16/1/44 55/1/44
f 55/1/44 57/1/44 83/1/44
f 83/1/44 17/1/44 55/1/44
f 59/1/7 84/1/7 85/1/7
f 85/1/7 60/1/7 59/1/7
f 14/1/45 86/1/45 61/1/45
f 61/1/45 56/1/45 15/1/45
f 15/1/45 14/1/45 61/1/45
f 87/1/6 63/1/6 62/1/6
f 62/1/6 22/1/6 21/1/6
f 21/1/6 87/1/6 62/1/6
f 19/1/46 22/1/46 62/1/46
f 62/1/46 64/1/46 19/1/46
f 20/1/47 19/1/47 64/1/48
f 64/1/48 66/1/49 20/1/47
f 21/1/50 20/1/51 88/1/52
f 88/1/52 87/1/50 21/1/50
f 26/1/6 25/1/6 69/1/6
f 69/1/6 68/1/6 26/1/6
f 27/1/53 26/1/53 68/1/53
f 68/1/53 70/1/53 89/1/53
f 89/1/53 27/1/53 68/1/53
f 72/1/54 71/1/55 90/1/55
f 90/1/55 91/1/55 72/1/54
f 24/1/56 92/1/56 73/1/56
f 73/1/56 69/1/56 25/1/56
f 25/1/56 24/1/56 73/1/56
f 93/1/57 94/1/58 47/1/58
f 47/1/58 95/1/58 96/1/58
f 96/1/58 93/1/57 47/1/58
f 97/1/59 98/1/59 44/1/59
f 44/1/59 51/1/59 97/1/59
f 99/1/60 97/1/60 51/1/61
f 51/1/61 58/1/62 99/1/60
f 100/1/63 99/1/63 58/1/64
f 58/1/64 65/1/64 100/1/63
f 94/1/65 100/1/65 65/1/66
f 65/1/66 47/1/66 94/1/65
f 101/1/67 102/1/67 103/1/67
f 104/1/67 105/1/67 106/1/68
f 101/1/67 103/1/67 104/1/67
f 104/1/67 106/1/68 101/1/67
f 107/1/7 101/1/7 106/1/7
f 106/1/7 108/1/7 107/1/7
f 109/1/69 107/1/70 108/1/71
f 108/1/71 110/1/69 109/1/69
f 111/1/72 109/1/72 110/1/72
f 110/1/72 112/1/72 111/1/72
f 102/1/73 111/1/73 112/1/74
f 112/1/74 103/1/74 102/1/73
f 36/1/75 35/1/75 102/1/76
f 102/1/76 101/1/75 36/1/75
f 38/1/77 36/1/77 101/1/77
f 101/1/77 107/1/77 38/1/77
f 39/1/78 38/1/79 107/1/80
f 107/1/80 109/1/78 39/1/78
f 40/1/81 39/1/82 109/1/83
f 109/1/83 111/1/83 40/1/81
f 35/1/84 40/1/84 111/1/84
f 111/1/84 102/1/85 35/1/84
f 103/1/86 112/1/87 100/1/88
f 100/1/88 94/1/88 103/1/86
f 112/1/89 110/1/90 99/1/89
f 99/1/89 100/1/89 112/1/89
f 110/1/91 108/1/92 97/1/91
f 97/1/91 99/1/93 110/1/91
f 108/1/94 106/1/94 98/1/95
f 98/1/95 97/1/95 108/1/94
f 104/1/96 103/1/96 94/1/97
f 94/1/97 93/1/97 104/1/96
f 88/1/98 66/1/98 67/1/99
f 20/1/100 66/1/101 88/1/101
f 87/1/102 88/1/103 67/1/104
f 67/1/104 63/1/104 87/1/102
f 44/1/105 98/1/106 96/1/107
f 96/1/107 95/1/108 44/1/105
f 98/1/109 106/1/110 105/1/109
f 105/1/109 96/1/111 98/1/109
f 96/1/112 105/1/112 104/1/112
f 104/1/112 93/1/113 96/1/112
f 59/1/114 51/1/115 61/1/115
f 59/1/116 61/1/116 86/1/117
f 86/1/117 84/1/118 59/1/116
f 86/1/119 14/1/120 13/1/121
f 13/1/121 84/1/122 86/1/119
f 84/1/123 13/1/123 18/1/124
f 18/1/124 85/1/125 84/1/123
f 18/1/126 17/1/127 83/1/128
f 83/1/128 85/1/129 18/1/126
f 85/1/130 83/1/131 57/1/132
f 57/1/132 60/1/133 85/1/130
f 58/1/134 60/1/135 57/1/136
f 75/1/137 45/1/138 44/1/138
f 95/1/139 47/1/138 75/1/137
f 75/1/137 44/1/138 95/1/139
f 75/1/140 47/1/141 46/1/141
f 6/1/142 5/1/143 74/1/142
f 74/1/142 77/1/142 6/1/142
f 46/1/144 78/1/145 76/1/146
f 76/1/146 75/1/147 46/1/144
f 77/1/148 74/1/148 43/1/148
f 43/1/148 45/1/149 77/1/148
f 78/1/150 2/1/151 1/1/152
f 1/1/152 76/1/153 78/1/150
f 76/1/154 1/1/154 6/1/154
f 6/1/154 77/1/155 76/1/154
f 52/1/156 44/1/157 54/1/158
f 52/1/159 54/1/160 82/1/160
f 82/1/160 80/1/160 52/1/159
f 81/1/161 79/1/161 50/1/161
f 50/1/161 53/1/162 81/1/161
f 51/1/163 53/1/164 50/1/163
f 82/1/165 8/1/166 7/1/167
f 7/1/167 80/1/168 82/1/165
f 80/1/169 7/1/170 12/1/171
f 12/1/171 81/1/171 80/1/169
f 12/1/172 11/1/173 79/1/172
f 79/1/172 81/1/174 12/1/172
f 71/1/175 65/1/176 73/1/176
f 71/1/177 73/1/177 92/1/178
f 92/1/178 90/1/178 71/1/177
f 91/1/179 89/1/180 70/1/179
f 70/1/179 72/1/180 91/1/179
f 47/1/181 72/1/182 70/1/183
f 92/1/184 24/1/184 23/1/185
f 23/1/185 90/1/186 92/1/184
f 90/1/187 23/1/188 28/1/189
f 28/1/189 91/1/188 90/1/187
f 28/1/190 27/1/191 89/1/190
f 89/1/190 91/1/192 28/1/190
# Vertices: 112, normals: 192, texture coordinates: 1, faces: 220

