g SM_Prop_Bucket_01
v 0.129416 5.551115E-17 0.1015549
v 0.129416 0.4057404 0.1015549
v 0.1633282 0.4057404 0.01968765
v 0.1633282 5.551115E-17 0.01968765
v 0.1633282 5.551115E-17 -0.01968765
v 0.1633282 0.4057404 -0.01968765
v 0.129416 0.4057404 -0.1015587
v 0.129416 5.551115E-17 -0.1015587
v 0.1015716 5.551115E-17 -0.1293983
v 0.1015716 0.4057404 -0.1293983
v 0.01970339 0.4057404 -0.163311
v 0.01970339 5.551115E-17 -0.163311
v -0.01966858 5.551115E-17 -0.163311
v -0.01966858 0.4057404 -0.163311
v -0.101542 0.4057404 -0.1293983
v -0.101542 5.551115E-17 -0.1293983
v -0.1293864 5.551115E-17 -0.1015549
v -0.1293864 0.4057404 -0.1015549
v -0.1632934 0.4057404 -0.01968765
v -0.1632934 5.551115E-17 -0.01968765
v -0.1632934 5.551115E-17 0.01968765
v -0.1632934 0.4057404 0.01968765
v -0.1293864 0.4057404 0.1015549
v -0.1293864 5.551115E-17 0.1015549
v -0.101542 5.551115E-17 0.1293983
v -0.101542 0.4057404 0.1293983
v -0.01966858 0.4057404 0.163311
v -0.01966858 5.551115E-17 0.163311
v 0.01970625 5.551115E-17 0.163311
v 0.01970625 0.4057404 0.163311
v 0.1015739 0.4057404 0.1293983
v 0.1015739 5.551115E-17 0.1293983
v 0.1421838 5.551115E-17 0
v 0.1633282 5.551115E-17 -0.01968765
v 0.129416 5.551115E-17 -0.1015587
v 0.1005435 5.551115E-17 -0.1005249
v 0.1015716 5.551115E-17 -0.1293983
v 0.01970339 5.551115E-17 -0.163311
v 1.716614E-05 5.551115E-17 -0.1421661
v -0.01966858 5.551115E-17 -0.163311
v -0.101542 5.551115E-17 -0.1293983
v -0.1005197 5.551115E-17 -0.1005249
v -0.1293864 5.551115E-17 -0.1015549
v -0.1632934 5.551115E-17 -0.01968765
v -0.1421466 5.551115E-17 0
v -0.1632934 5.551115E-17 0.01968765
v -0.1293864 5.551115E-17 0.1015549
v -0.1005197 5.551115E-17 0.1005249
v -0.101542 5.551115E-17 0.1293983
v -0.01966858 5.551115E-17 0.163311
v 1.716614E-05 5.551115E-17 0.1421661
v 0.01970625 5.551115E-17 0.163311
v 0.1015739 5.551115E-17 0.1293983
v 0.1005435 5.551115E-17 0.1005249
v 0.129416 5.551115E-17 0.1015549
v 0.1633282 5.551115E-17 0.01968765
v 0.1005435 5.551115E-17 -0.1005249
v 0.129416 5.551115E-17 -0.1015587
v 0.129416 0.4057404 -0.1015587
v 0.1005435 0.4057404 -0.1005249
v 0.1005435 0.4057404 -0.1005249
v 0.129416 0.4057404 -0.1015587
v 0.1633282 0.4057404 -0.01968765
v 0.1421838 0.4057404 0
v 0.1633282 0.4057404 0.01968765
v 0.129416 0.4057404 0.1015549
v 0.1005435 0.4057404 0.1005249
v 0.1015739 0.4057404 0.1293983
v 0.01970625 0.4057404 0.163311
v 1.716614E-05 0.4057404 0.1421661
v -0.01966858 0.4057404 0.163311
v -0.101542 0.4057404 0.1293983
v -0.1005197 0.4057404 0.1005249
v -0.1293864 0.4057404 0.1015549
v -0.1632934 0.4057404 0.01968765
v -0.1421466 0.4057404 0
v -0.1632934 0.4057404 -0.01968765
v -0.1293864 0.4057404 -0.1015549
v -0.1005197 0.4057404 -0.1005249
v -0.101542 0.4057404 -0.1293983
v -0.01966858 0.4057404 -0.163311
v 1.716614E-05 0.4057404 -0.1421661
v 0.01970339 0.4057404 -0.163311
v 0.1015716 0.4057404 -0.1293983
v 0.1421838 0.4057404 0
v 0.1633282 0.4057404 -0.01968765
v 0.1633282 5.551115E-17 -0.01968765
v 0.1421838 5.551115E-17 0
v -0.1005197 5.551115E-17 -0.1005249
v -0.101542 5.551115E-17 -0.1293983
v -0.101542 0.4057404 -0.1293983
v -0.1005197 0.4057404 -0.1005249
v 1.716614E-05 0.4057404 -0.1421661
v -0.01966858 0.4057404 -0.163311
v -0.01966858 5.551115E-17 -0.163311
v 1.716614E-05 5.551115E-17 -0.1421661
v -0.1005197 5.551115E-17 0.1005249
v -0.1293864 5.551115E-17 0.1015549
v -0.1293864 0.4057404 0.1015549
v -0.1005197 0.4057404 0.1005249
v -0.1421466 0.4057404 0
v -0.1632934 0.4057404 0.01968765
v -0.1632934 5.551115E-17 0.01968765
v -0.1421466 5.551115E-17 0
v 0.1005435 5.551115E-17 0.1005249
v 0.1015739 5.551115E-17 0.1293983
v 0.1015739 0.4057404 0.1293983
v 0.1005435 0.4057404 0.1005249
v 1.716614E-05 0.4057404 0.1421661
v 0.01970625 0.4057404 0.163311
v 0.01970625 5.551115E-17 0.163311
v 1.716614E-05 5.551115E-17 0.1421661
v 0.1421838 5.551115E-17 0
v 0.1633282 5.551115E-17 0.01968765
v 0.1633282 0.4057404 0.01968765
v 0.1421838 0.4057404 0
v 0.1005435 0.4057404 0.1005249
v 0.129416 0.4057404 0.1015549
v 0.129416 5.551115E-17 0.1015549
v 0.1005435 5.551115E-17 0.1005249
v 1.716614E-05 5.551115E-17 -0.1421661
v 0.01970339 5.551115E-17 -0.163311
v 0.01970339 0.4057404 -0.163311
v 1.716614E-05 0.4057404 -0.1421661
v 0.1005435 0.4057404 -0.1005249
v 0.1015716 0.4057404 -0.1293983
v 0.1015716 5.551115E-17 -0.1293983
v 0.1005435 5.551115E-17 -0.1005249
v -0.1421466 5.551115E-17 0
v -0.1632934 5.551115E-17 -0.01968765
v -0.1632934 0.4057404 -0.01968765
v -0.1421466 0.4057404 0
v -0.1005197 0.4057404 -0.1005249
v -0.1293864 0.4057404 -0.1015549
v -0.1293864 5.551115E-17 -0.1015549
v -0.1005197 5.551115E-17 -0.1005249
v 1.716614E-05 5.551115E-17 0.1421661
v -0.01966858 5.551115E-17 0.163311
v -0.01966858 0.4057404 0.163311
v 1.716614E-05 0.4057404 0.1421661
v -0.1005197 0.4057404 0.1005249
v -0.101542 0.4057404 0.1293983
v -0.101542 5.551115E-17 0.1293983
v -0.1005197 5.551115E-17 0.1005249
v 0.1421838 5.551115E-17 0
v 0.1421838 0.04598208 0
v 0.1005435 0.04598208 0.1005249
v 0.1005435 5.551115E-17 0.1005249
v 0.1005435 5.551115E-17 -0.1005249
v 0.1005435 0.04598208 -0.1005249
v 0.1421838 0.04598208 0
v 0.1421838 5.551115E-17 0
v 1.716614E-05 5.551115E-17 -0.1421661
v 1.716614E-05 0.04598208 -0.1421661
v 0.1005435 0.04598208 -0.1005249
v 0.1005435 5.551115E-17 -0.1005249
v -0.1005197 5.551115E-17 -0.1005249
v -0.1005197 0.04598208 -0.1005249
v 1.716614E-05 0.04598208 -0.1421661
v 1.716614E-05 5.551115E-17 -0.1421661
v -0.1421466 5.551115E-17 0
v -0.1421466 0.04598208 0
v -0.1005197 0.04598208 -0.1005249
v -0.1005197 5.551115E-17 -0.1005249
v -0.1005197 5.551115E-17 0.1005249
v -0.1005197 0.04598208 0.1005249
v -0.1421466 0.04598208 0
v -0.1421466 5.551115E-17 0
v 1.716614E-05 5.551115E-17 0.1421661
v 1.716614E-05 0.04598208 0.1421661
v -0.1005197 0.04598208 0.1005249
v -0.1005197 5.551115E-17 0.1005249
v 0.1005435 5.551115E-17 0.1005249
v 0.1005435 0.04598208 0.1005249
v 1.716614E-05 0.04598208 0.1421661
v 1.716614E-05 5.551115E-17 0.1421661
v 0.1005435 0.4057404 0.1005249
v 0.1005435 0.1155657 0.1005249
v 0.1421838 0.1155657 0
v 0.1421838 0.4057404 0
v 0.1421838 0.4057404 0
v 0.1421838 0.1155657 0
v 0.1005435 0.1155657 -0.1005249
v 0.1005435 0.4057404 -0.1005249
v 0.1005435 0.4057404 -0.1005249
v 0.1005435 0.1155657 -0.1005249
v 1.716614E-05 0.1155657 -0.1421661
v 1.716614E-05 0.4057404 -0.1421661
v 1.716614E-05 0.4057404 -0.1421661
v 1.716614E-05 0.1155657 -0.1421661
v -0.1005197 0.1155657 -0.1005249
v -0.1005197 0.4057404 -0.1005249
v -0.1005197 0.4057404 -0.1005249
v -0.1005197 0.1155657 -0.1005249
v -0.1421466 0.1155657 0
v -0.1421466 0.4057404 0
v -0.1421466 0.4057404 0
v -0.1421466 0.1155657 0
v -0.1005197 0.1155657 0.1005249
v -0.1005197 0.4057404 0.1005249
v -0.1005197 0.4057404 0.1005249
v -0.1005197 0.1155657 0.1005249
v 1.716614E-05 0.1155657 0.1421661
v 1.716614E-05 0.4057404 0.1421661
v 1.716614E-05 0.4057404 0.1421661
v 1.716614E-05 0.1155657 0.1421661
v 0.1005435 0.1155657 0.1005249
v 0.1005435 0.4057404 0.1005249
v 0.1278148 0.3110846 0.1278114
v 0.1278148 0.3503272 0.1278114
v 0.1807537 0.3503272 0
v 0.1807537 0.3110846 0
v 0.1807537 0.3110846 0
v 0.1807537 0.3503272 0
v 0.1278148 0.3503272 -0.1278114
v 0.1278148 0.3110846 -0.1278114
v 0.1278148 0.3110846 -0.1278114
v 0.1278148 0.3503272 -0.1278114
v 1.430511E-06 0.3503272 -0.1807556
v 1.430511E-06 0.3110846 -0.1807556
v 1.430511E-06 0.3110846 -0.1807556
v 1.430511E-06 0.3503272 -0.1807556
v -0.1278124 0.3503272 -0.1278114
v -0.1278124 0.3110846 -0.1278114
v -0.1278124 0.3110846 -0.1278114
v -0.1278124 0.3503272 -0.1278114
v -0.1807542 0.3503272 0
v -0.1807542 0.3110846 0
v -0.1807542 0.3110846 0
v -0.1807542 0.3503272 0
v -0.1278124 0.3503272 0.1278114
v -0.1278124 0.3110846 0.1278114
v -0.1278124 0.3110846 0.1278114
v -0.1278124 0.3503272 0.1278114
v 1.430511E-06 0.3503272 0.1807556
v 1.430511E-06 0.3110846 0.1807556
v 1.430511E-06 0.3110846 0.1807556
v 1.430511E-06 0.3503272 0.1807556
v 0.1278148 0.3503272 0.1278114
v 0.1278148 0.3110846 0.1278114
v 0.1278148 0.07047908 0.1278114
v 0.1278148 0.1097217 0.1278114
v 0.1807537 0.1097217 0
v 0.1807537 0.07047908 0
v 0.1807537 0.07047908 0
v 0.1807537 0.1097217 0
v 0.1278148 0.1097217 -0.1278114
v 0.1278148 0.07047908 -0.1278114
v 0.1278148 0.07047908 -0.1278114
v 0.1278148 0.1097217 -0.1278114
v 1.430511E-06 0.1097217 -0.1807556
v 1.430511E-06 0.07047908 -0.1807556
v 1.430511E-06 0.07047908 -0.1807556
v 1.430511E-06 0.1097217 -0.1807556
v -0.1278124 0.1097217 -0.1278114
v -0.1278124 0.07047908 -0.1278114
v -0.1278124 0.07047908 -0.1278114
v -0.1278124 0.1097217 -0.1278114
v -0.1807542 0.1097217 0
v -0.1807542 0.07047908 0
v -0.1807542 0.07047908 0
v -0.1807542 0.1097217 0
v -0.1278124 0.1097217 0.1278114
v -0.1278124 0.07047908 0.1278114
v -0.1278124 0.07047908 0.1278114
v -0.1278124 0.1097217 0.1278114
v 1.430511E-06 0.1097217 0.1807556
v 1.430511E-06 0.07047908 0.1807556
v 1.430511E-06 0.07047908 0.1807556
v 1.430511E-06 0.1097217 0.1807556
v 0.1278148 0.1097217 0.1278114
v 0.1278148 0.07047908 0.1278114
v -0.1005197 0.1155657 0.1005249
v 1.716614E-05 0.1155657 0
v 1.716614E-05 0.1155657 0.1421661
v -0.1421466 0.1155657 0
v 0.1005435 0.1155657 0.1005249
v -0.1005197 0.1155657 -0.1005249
v 0.1421838 0.1155657 0
v 1.716614E-05 0.1155657 -0.1421661
v 0.1005435 0.1155657 -0.1005249
v 1.716614E-05 0.04598208 0.1421661
v 1.716614E-05 0.04598208 0
v -0.1005197 0.04598208 0.1005249
v 0.1005435 0.04598208 0.1005249
v -0.1421466 0.04598208 0
v 0.1421838 0.04598208 0
v -0.1005197 0.04598208 -0.1005249
v 0.1005435 0.04598208 -0.1005249
v 1.716614E-05 0.04598208 -0.1421661
v -0.1807542 0.1097217 0
v -0.1018701 0.1097217 0.1018715
v -0.1278124 0.1097217 0.1278114
v -0.1440649 0.1097217 0
v 1.430511E-06 0.1097217 0.1440659
v -0.1278124 0.1097217 -0.1278114
v 1.430511E-06 0.1097217 0.1807556
v -0.1018705 0.1097217 -0.1018715
v 0.1018729 0.1097217 0.1018715
v 1.430511E-06 0.1097217 -0.1807556
v 0.1278148 0.1097217 0.1278114
v 1.430511E-06 0.1097217 -0.1440659
v 0.1440673 0.1097217 0
v 0.1278148 0.1097217 -0.1278114
v 0.1807537 0.1097217 0
v 0.1018729 0.1097217 -0.1018715
v 0.1278148 0.07047908 0.1278114
v 1.430511E-06 0.07047908 0.1440659
v 1.430511E-06 0.07047908 0.1807556
v 0.1018729 0.07047908 0.1018715
v -0.1018701 0.07047908 0.1018715
v 0.1807537 0.07047908 0
v -0.1278124 0.07047908 0.1278114
v 0.1440673 0.07047908 0
v -0.1440649 0.07047908 0
v 0.1278148 0.07047908 -0.1278114
v -0.1807542 0.07047908 0
v 0.1018729 0.07047908 -0.1018715
v -0.1018705 0.07047908 -0.1018715
v 1.430511E-06 0.07047908 -0.1807556
v -0.1278124 0.07047908 -0.1278114
v 1.430511E-06 0.07047908 -0.1440659
v -0.1807542 0.3503272 0
v -0.1018701 0.3503272 0.1018715
v -0.1278124 0.3503272 0.1278114
v -0.1440649 0.3503272 0
v 1.430511E-06 0.3503272 0.1440659
v -0.1278124 0.3503272 -0.1278114
v 1.430511E-06 0.3503272 0.1807556
v -0.1018705 0.3503272 -0.1018715
v 0.1018729 0.3503272 0.1018715
v 1.430511E-06 0.3503272 -0.1807556
v 0.1278148 0.3503272 0.1278114
v 1.430511E-06 0.3503272 -0.1440659
v 0.1440673 0.3503272 0
v 0.1278148 0.3503272 -0.1278114
v 0.1807537 0.3503272 0
v 0.1018729 0.3503272 -0.1018715
v 0.1278148 0.3110846 0.1278114
v 1.430511E-06 0.3110846 0.1440659
v 1.430511E-06 0.3110846 0.1807556
v 0.1018729 0.3110846 0.1018715
v -0.1018701 0.3110846 0.1018715
v 0.1807537 0.3110846 0
v -0.1278124 0.3110846 0.1278114
v 0.1440673 0.3110846 0
v -0.1440649 0.3110846 0
v 0.1278148 0.3110846 -0.1278114
v -0.1807542 0.3110846 0
v 0.1018729 0.3110846 -0.1018715
v -0.1018705 0.3110846 -0.1018715
v 1.430511E-06 0.3110846 -0.1807556
v -0.1278124 0.3110846 -0.1278114
v 1.430511E-06 0.3110846 -0.1440659
vt 0.9926758 0.4523926
vt 0.9926758 0.4523926
vt 0.9926758 0.4523926
vt 0.9926758 0.4523926
vt 0.9926758 0.4523926
vt 0.9926758 0.4523926
vt 0.9926758 0.4523926
vt 0.9926758 0.4523926
vt 0.9926758 0.4523926
vt 0.9926758 0.4523926
vt 0.9926758 0.4523926
vt 0.9926758 0.4523926
vt 0.9926758 0.4523926
vt 0.9926758 0.4523926
vt 0.9926758 0.4523926
vt 0.9926758 0.4523926
vt 0.9926758 0.4523926
vt 0.9926758 0.4523926
vt 0.9926758 0.4523926
vt 0.9926758 0.4523926
vt 0.9926758 0.4523926
vt 0.9926758 0.4523926
vt 0.9926758 0.4523926
vt 0.9926758 0.4523926
vt 0.9926758 0.4523926
vt 0.9926758 0.4523926
vt 0.9926758 0.4523926
vt 0.9926758 0.4523926
vt 0.9926758 0.4523926
vt 0.9926758 0.4523926
vt 0.9926758 0.4523926
vt 0.9926758 0.4523926
vt 0.9926758 0.4523926
vt 0.9926758 0.4523926
vt 0.9926758 0.4523926
vt 0.9926758 0.4523926
vt 0.9926758 0.4523926
vt 0.9926758 0.4523926
vt 0.9926758 0.4523926
vt 0.9926758 0.4523926
vt 0.9926758 0.4523926
vt 0.9926758 0.4523926
vt 0.9926758 0.4523926
vt 0.9926758 0.4523926
vt 0.9926758 0.4523926
vt 0.9926758 0.4523926
vt 0.9926758 0.4523926
vt 0.9926758 0.4523926
vt 0.9926758 0.4523926
vt 0.9926758 0.4523926
vt 0.9926758 0.4523926
vt 0.9926758 0.4523926
vt 0.9926758 0.4523926
vt 0.9926758 0.4523926
vt 0.9926758 0.4523926
vt 0.9926758 0.4523926
vt 0.9926758 0.4523926
vt 0.9926758 0.4523926
vt 0.9926758 0.4523926
vt 0.9926758 0.4523926
vt 0.9926758 0.4523926
vt 0.9926758 0.4523926
vt 0.9926758 0.4523926
vt 0.9926758 0.4523926
vt 0.9926758 0.4523926
vt 0.9926758 0.4523926
vt 0.9926758 0.4523926
vt 0.9926758 0.4523926
vt 0.9926758 0.4523926
vt 0.9926758 0.4523926
vt 0.9926758 0.4523926
vt 0.9926758 0.4523926
vt 0.9926758 0.4523926
vt 0.9926758 0.4523926
vt 0.9926758 0.4523926
vt 0.9926758 0.4523926
vt 0.9926758 0.4523926
vt 0.9926758 0.4523926
vt 0.9926758 0.4523926
vt 0.9926758 0.4523926
vt 0.9926758 0.4523926
vt 0.9926758 0.4523926
vt 0.9926758 0.4523926
vt 0.9926758 0.4523926
vt 0.9926758 0.4523926
vt 0.9926758 0.4523926
vt 0.9926758 0.4523926
vt 0.9926758 0.4523926
vt 0.9926758 0.4523926
vt 0.9926758 0.4523926
vt 0.9926758 0.4523926
vt 0.9926758 0.4523926
vt 0.9926758 0.4523926
vt 0.9926758 0.4523926
vt 0.9926758 0.4523926
vt 0.9926758 0.4523926
vt 0.9926758 0.4523926
vt 0.9926758 0.4523926
vt 0.9926758 0.4523926
vt 0.9926758 0.4523926
vt 0.9926758 0.4523926
vt 0.9926758 0.4523926
vt 0.9926758 0.4523926
vt 0.9926758 0.4523926
vt 0.9926758 0.4523926
vt 0.9926758 0.4523926
vt 0.9926758 0.4523926
vt 0.9926758 0.4523926
vt 0.9926758 0.4523926
vt 0.9926758 0.4523926
vt 0.9926758 0.4523926
vt 0.9926758 0.4523926
vt 0.9926758 0.4523926
vt 0.9926758 0.4523926
vt 0.9926758 0.4523926
vt 0.9926758 0.4523926
vt 0.9926758 0.4523926
vt 0.9926758 0.4523926
vt 0.9926758 0.4523926
vt 0.9926758 0.4523926
vt 0.9926758 0.4523926
vt 0.9926758 0.4523926
vt 0.9926758 0.4523926
vt 0.9926758 0.4523926
vt 0.9926758 0.4523926
vt 0.9926758 0.4523926
vt 0.9926758 0.4523926
vt 0.9926758 0.4523926
vt 0.9926758 0.4523926
vt 0.9926758 0.4523926
vt 0.9926758 0.4523926
vt 0.9926758 0.4523926
vt 0.9926758 0.4523926
vt 0.9926758 0.4523926
vt 0.9926758 0.4523926
vt 0.9926758 0.4523926
vt 0.9926758 0.4523926
vt 0.9926758 0.4523926
vt 0.9926758 0.4523926
vt 0.9926758 0.4523926
vt 0.9926758 0.4523926
vt 0.9926758 0.4523926
vt 0.9926758 0.4523926
vt 0.9926758 0.4523926
vt 0.9926758 0.4523926
vt 0.9926758 0.4523926
vt 0.9926758 0.4523926
vt 0.9926758 0.4523926
vt 0.9926758 0.4523926
vt 0.9926758 0.4523926
vt 0.9926758 0.4523926
vt 0.9926758 0.4523926
vt 0.9926758 0.4523926
vt 0.9926758 0.4523926
vt 0.9926758 0.4523926
vt 0.9926758 0.4523926
vt 0.9926758 0.4523926
vt 0.9926758 0.4523926
vt 0.9926758 0.4523926
vt 0.9926758 0.4523926
vt 0.9926758 0.4523926
vt 0.9926758 0.4523926
vt 0.9926758 0.4523926
vt 0.9926758 0.4523926
vt 0.9926758 0.4523926
vt 0.9926758 0.4523926
vt 0.9926758 0.4523926
vt 0.9926758 0.4523926
vt 0.9926758 0.4523926
vt 0.9926758 0.4523926
vt 0.9926758 0.4523926
vt 0.9926758 0.4523926
vt 0.9926758 0.4523926
vt 0.9926758 0.4523926
vt 0.9926758 0.4523926
vt 0.9926758 0.4523926
vt 0.9926758 0.4523926
vt 0.9926758 0.4523926
vt 0.9926758 0.4523926
vt 0.9926758 0.4523926
vt 0.9926758 0.4523926
vt 0.9926758 0.4523926
vt 0.9926758 0.4523926
vt 0.9926758 0.4523926
vt 0.9926758 0.4523926
vt 0.9926758 0.4523926
vt 0.9926758 0.4523926
vt 0.9926758 0.4523926
vt 0.9926758 0.4523926
vt 0.9926758 0.4523926
vt 0.9926758 0.4523926
vt 0.9926758 0.4523926
vt 0.9926758 0.4523926
vt 0.9926758 0.4523926
vt 0.9926758 0.4523926
vt 0.9926758 0.4523926
vt 0.9926758 0.4523926
vt 0.9926758 0.4523926
vt 0.9926758 0.4523926
vt 0.9926758 0.4523926
vt 0.9926758 0.4523926
vt 0.9926758 0.4523926
vt 0.9926758 0.4523926
vt 0.9926758 0.4523926
vt 0.9926758 0.4523926
vt 0.9926758 0.4523926
vt 0.9926758 0.4523926
vt 0.9926758 0.4523926
vt 0.4414063 0.326416
vt 0.4414063 0.326416
vt 0.4414063 0.326416
vt 0.4414063 0.326416
vt 0.4414063 0.326416
vt 0.4414063 0.326416
vt 0.4414063 0.326416
vt 0.4414063 0.326416
vt 0.4414063 0.326416
vt 0.4414063 0.326416
vt 0.4414063 0.326416
vt 0.4414063 0.326416
vt 0.4414063 0.326416
vt 0.4414063 0.326416
vt 0.4414063 0.326416
vt 0.4414063 0.326416
vt 0.4414063 0.326416
vt 0.4414063 0.326416
vt 0.4414063 0.326416
vt 0.4414063 0.326416
vt 0.4414063 0.326416
vt 0.4414063 0.326416
vt 0.4414063 0.326416
vt 0.4414063 0.326416
vt 0.4414063 0.326416
vt 0.4414063 0.326416
vt 0.4414063 0.326416
vt 0.4414063 0.326416
vt 0.4414063 0.326416
vt 0.4414063 0.326416
vt 0.4414063 0.326416
vt 0.4414063 0.326416
vt 0.4414063 0.326416
vt 0.4414063 0.326416
vt 0.4414063 0.326416
vt 0.4414063 0.326416
vt 0.4414063 0.326416
vt 0.4414063 0.326416
vt 0.4414063 0.326416
vt 0.4414063 0.326416
vt 0.4414063 0.326416
vt 0.4414063 0.326416
vt 0.4414063 0.326416
vt 0.4414063 0.326416
vt 0.4414063 0.326416
vt 0.4414063 0.326416
vt 0.4414063 0.326416
vt 0.4414063 0.326416
vt 0.4414063 0.326416
vt 0.4414063 0.326416
vt 0.4414063 0.326416
vt 0.4414063 0.326416
vt 0.4414063 0.326416
vt 0.4414063 0.326416
vt 0.4414063 0.326416
vt 0.4414063 0.326416
vt 0.4414063 0.326416
vt 0.4414063 0.326416
vt 0.4414063 0.326416
vt 0.4414063 0.326416
vt 0.4414063 0.326416
vt 0.4414063 0.326416
vt 0.4414063 0.326416
vt 0.4414063 0.326416
vt 0.9926758 0.4523926
vt 0.9926758 0.4523926
vt 0.9926758 0.4523926
vt 0.9926758 0.4523926
vt 0.9926758 0.4523926
vt 0.9926758 0.4523926
vt 0.9926758 0.4523926
vt 0.9926758 0.4523926
vt 0.9926758 0.4523926
vt 0.9926758 0.4523926
vt 0.9926758 0.4523926
vt 0.9926758 0.4523926
vt 0.9926758 0.4523926
vt 0.9926758 0.4523926
vt 0.9926758 0.4523926
vt 0.9926758 0.4523926
vt 0.9926758 0.4523926
vt 0.9926758 0.4523926
vt 0.4414063 0.326416
vt 0.4414063 0.326416
vt 0.4414063 0.326416
vt 0.4414063 0.326416
vt 0.4414063 0.326416
vt 0.4414063 0.326416
vt 0.4414063 0.326416
vt 0.4414063 0.326416
vt 0.4414063 0.326416
vt 0.4414063 0.326416
vt 0.4414063 0.326416
vt 0.4414063 0.326416
vt 0.4414063 0.326416
vt 0.4414063 0.326416
vt 0.4414063 0.326416
vt 0.4414063 0.326416
vt 0.4414063 0.326416
vt 0.4414063 0.326416
vt 0.4414063 0.326416
vt 0.4414063 0.326416
vt 0.4414063 0.326416
vt 0.4414063 0.326416
vt 0.4414063 0.326416
vt 0.4414063 0.326416
vt 0.4414063 0.326416
vt 0.4414063 0.326416
vt 0.4414063 0.326416
vt 0.4414063 0.326416
vt 0.4414063 0.326416
vt 0.4414063 0.326416
vt 0.4414063 0.326416
vt 0.4414063 0.326416
vt 0.4414063 0.326416
vt 0.4414063 0.326416
vt 0.4414063 0.326416
vt 0.4414063 0.326416
vt 0.4414063 0.326416
vt 0.4414063 0.326416
vt 0.4414063 0.326416
vt 0.4414063 0.326416
vt 0.4414063 0.326416
vt 0.4414063 0.326416
vt 0.4414063 0.326416
vt 0.4414063 0.326416
vt 0.4414063 0.326416
vt 0.4414063 0.326416
vt 0.4414063 0.326416
vt 0.4414063 0.326416
vt 0.4414063 0.326416
vt 0.4414063 0.326416
vt 0.4414063 0.326416
vt 0.4414063 0.326416
vt 0.4414063 0.326416
vt 0.4414063 0.326416
vt 0.4414063 0.326416
vt 0.4414063 0.326416
vt 0.4414063 0.326416
vt 0.4414063 0.326416
vt 0.4414063 0.326416
vt 0.4414063 0.326416
vt 0.4414063 0.326416
vt 0.4414063 0.326416
vt 0.4414063 0.326416
vt 0.4414063 0.326416
vn 0.9238281 0 0.3828125
vn 0.9238281 0 0.3828125
vn 0.9238281 0 0.3828125
vn 0.9238281 0 0.3828125
vn 0.9238281 0 -0.3825684
vn 0.9238281 0 -0.3825684
vn 0.9238281 0 -0.3825684
vn 0.9238281 0 -0.3825684
vn 0.3828125 0 -0.9238281
vn 0.3828125 0 -0.9238281
vn 0.3828125 0 -0.9238281
vn 0.3828125 0 -0.9238281
vn -0.3825684 0 -0.9238281
vn -0.3825684 0 -0.9238281
vn -0.3825684 0 -0.9238281
vn -0.3825684 0 -0.9238281
vn -0.9238281 0 -0.3825684
vn -0.9238281 0 -0.3825684
vn -0.9238281 0 -0.3825684
vn -0.9238281 0 -0.3825684
vn -0.9238281 0 0.3825684
vn -0.9238281 0 0.3825684
vn -0.9238281 0 0.3825684
vn -0.9238281 0 0.3825684
vn -0.3825684 0 0.9238281
vn -0.3825684 0 0.9238281
vn -0.3825684 0 0.9238281
vn -0.3825684 0 0.9238281
vn 0.3828125 0 0.9238281
vn 0.3828125 0 0.9238281
vn 0.3828125 0 0.9238281
vn 0.3828125 0 0.9238281
vn 0 -1 0
vn 0 -1 0
vn 0 -1 0
vn 0 -1 0
vn 0 -1 0
vn 0 -1 0
vn 0 -1 0
vn 0 -1 0
vn 0 -1 0
vn 0 -1 0
vn 0 -1 0
vn 0 -1 0
vn 0 -1 0
vn 0 -1 0
vn 0 -1 0
vn 0 -1 0
vn 0 -1 0
vn 0 -1 0
vn 0 -1 0
vn 0 -1 0
vn 0 -1 0
vn 0 -1 0
vn 0 -1 0
vn 0 -1 0
vn -0.03579712 0 -0.9995117
vn -0.03579712 0 -0.9995117
vn -0.03579712 0 -0.9995117
vn -0.03579712 0 -0.9995117
vn 0 1 0
vn 0 1 0
vn 0 1 0
vn 0 1 0
vn 0 1 0
vn 0 1 0
vn 0 1 0
vn 0 1 0
vn 0 1 0
vn 0 1 0
vn 0 1 0
vn 0 1 0
vn 0 1 0
vn 0 1 0
vn 0 1 0
vn 0 1 0
vn 0 1 0
vn 0 1 0
vn 0 1 0
vn 0 1 0
vn 0 1 0
vn 0 1 0
vn 0 1 0
vn 0 1 0
vn 0.6816406 0 0.7319336
vn 0.6816406 0 0.7319336
vn 0.6816406 0 0.7319336
vn 0.6816406 0 0.7319336
vn -0.9995117 0 0.03540039
vn -0.9995117 0 0.03540039
vn -0.9995117 0 0.03540039
vn -0.9995117 0 0.03540039
vn 0.7319336 0 -0.6816406
vn 0.7319336 0 -0.6816406
vn 0.7319336 0 -0.6816406
vn 0.7319336 0 -0.6816406
vn 0.03564453 0 0.9995117
vn 0.03564453 0 0.9995117
vn 0.03564453 0 0.9995117
vn 0.03564453 0 0.9995117
vn -0.6816406 0 -0.7319336
vn -0.6816406 0 -0.7319336
vn -0.6816406 0 -0.7319336
vn -0.6816406 0 -0.7319336
vn 0.9995117 0 -0.03567505
vn 0.9995117 0 -0.03567505
vn 0.9995117 0 -0.03567505
vn 0.9995117 0 -0.03567505
vn -0.7319336 0 0.6816406
vn -0.7319336 0 0.6816406
vn -0.7319336 0 0.6816406
vn -0.7319336 0 0.6816406
vn 0.6816406 0 -0.7319336
vn 0.6816406 0 -0.7319336
vn 0.6816406 0 -0.7319336
vn 0.6816406 0 -0.7319336
vn -0.03564453 0 0.9995117
vn -0.03564453 0 0.9995117
vn -0.03564453 0 0.9995117
vn -0.03564453 0 0.9995117
vn -0.7319336 0 -0.6816406
vn -0.7319336 0 -0.6816406
vn -0.7319336 0 -0.6816406
vn -0.7319336 0 -0.6816406
vn 0.9995117 0 0.0355835
vn 0.9995117 0 0.0355835
vn 0.9995117 0 0.0355835
vn 0.9995117 0 0.0355835
vn -0.6816406 0 0.7319336
vn -0.6816406 0 0.7319336
vn -0.6816406 0 0.7319336
vn -0.6816406 0 0.7319336
vn 0.03564453 0 -0.9995117
vn 0.03564453 0 -0.9995117
vn 0.03564453 0 -0.9995117
vn 0.03564453 0 -0.9995117
vn 0.7319336 0 0.6816406
vn 0.7319336 0 0.6816406
vn 0.7319336 0 0.6816406
vn 0.7319336 0 0.6816406
vn -0.9995117 0 -0.03540039
vn -0.9995117 0 -0.03540039
vn -0.9995117 0 -0.03540039
vn -0.9995117 0 -0.03540039
vn -0.9238281 0 -0.3828125
vn -0.9238281 0 -0.3828125
vn -0.9238281 0 -0.3828125
vn -0.9238281 0 -0.3828125
vn -0.9238281 0 0.3828125
vn -0.9238281 0 0.3828125
vn -0.9238281 0 0.3828125
vn -0.9238281 0 0.3828125
vn -0.3828125 0 0.9238281
vn -0.3828125 0 0.9238281
vn -0.3828125 0 0.9238281
vn -0.3828125 0 0.9238281
vn 0.3825684 0 0.9238281
vn 0.3825684 0 0.9238281
vn 0.3825684 0 0.9238281
vn 0.3825684 0 0.9238281
vn 0.9238281 0 0.3825684
vn 0.9238281 0 0.3825684
vn 0.9238281 0 0.3825684
vn 0.9238281 0 0.3825684
vn 0.9238281 0 -0.3825684
vn 0.9238281 0 -0.3825684
vn 0.9238281 0 -0.3825684
vn 0.9238281 0 -0.3825684
vn 0.3825684 0 -0.9238281
vn 0.3825684 0 -0.9238281
vn 0.3825684 0 -0.9238281
vn 0.3825684 0 -0.9238281
vn -0.3828125 0 -0.9238281
vn -0.3828125 0 -0.9238281
vn -0.3828125 0 -0.9238281
vn -0.3828125 0 -0.9238281
vn -0.9238281 0 -0.3828125
vn -0.9238281 0 -0.3828125
vn -0.9238281 0 -0.3828125
vn -0.9238281 0 -0.3828125
vn -0.9238281 0 0.3828125
vn -0.9238281 0 0.3828125
vn -0.9238281 0 0.3828125
vn -0.9238281 0 0.3828125
vn -0.3828125 0 0.9238281
vn -0.3828125 0 0.9238281
vn -0.3828125 0 0.9238281
vn -0.3828125 0 0.9238281
vn 0.3825684 0 0.9238281
vn 0.3825684 0 0.9238281
vn 0.3825684 0 0.9238281
vn 0.3825684 0 0.9238281
vn 0.9238281 0 0.3825684
vn 0.9238281 0 0.3825684
vn 0.9238281 0 0.3825684
vn 0.9238281 0 0.3825684
vn 0.9238281 0 -0.3825684
vn 0.9238281 0 -0.3825684
vn 0.9238281 0 -0.3825684
vn 0.9238281 0 -0.3825684
vn 0.3825684 0 -0.9238281
vn 0.3825684 0 -0.9238281
vn 0.3825684 0 -0.9238281
vn 0.3825684 0 -0.9238281
vn -0.3828125 0 -0.9238281
vn -0.3828125 0 -0.9238281
vn -0.3828125 0 -0.9238281
vn -0.3828125 0 -0.9238281
vn 0.9238281 0 0.3825684
vn 0.9238281 0 0.3825684
vn 0.9238281 0 0.3825684
vn 0.9238281 0 0.3825684
vn 0.9238281 0 -0.3825684
vn 0.9238281 0 -0.3825684
vn 0.9238281 0 -0.3825684
vn 0.9238281 0 -0.3825684
vn 0.3828125 0 -0.9238281
vn 0.3828125 0 -0.9238281
vn 0.3828125 0 -0.9238281
vn 0.3828125 0 -0.9238281
vn -0.3828125 0 -0.9238281
vn -0.3828125 0 -0.9238281
vn -0.3828125 0 -0.9238281
vn -0.3828125 0 -0.9238281
vn -0.9238281 0 -0.3825684
vn -0.9238281 0 -0.3825684
vn -0.9238281 0 -0.3825684
vn -0.9238281 0 -0.3825684
vn -0.9238281 0 0.3825684
vn -0.9238281 0 0.3825684
vn -0.9238281 0 0.3825684
vn -0.9238281 0 0.3825684
vn -0.3828125 0 0.9238281
vn -0.3828125 0 0.9238281
vn -0.3828125 0 0.9238281
vn -0.3828125 0 0.9238281
vn 0.3828125 0 0.9238281
vn 0.3828125 0 0.9238281
vn 0.3828125 0 0.9238281
vn 0.3828125 0 0.9238281
vn 0.9238281 0 0.3825684
vn 0.9238281 0 0.3825684
vn 0.9238281 0 0.3825684
vn 0.9238281 0 0.3825684
vn 0.9238281 0 -0.3825684
vn 0.9238281 0 -0.3825684
vn 0.9238281 0 -0.3825684
vn 0.9238281 0 -0.3825684
vn 0.3828125 0 -0.9238281
vn 0.3828125 0 -0.9238281
vn 0.3828125 0 -0.9238281
vn 0.3828125 0 -0.9238281
vn -0.3828125 0 -0.9238281
vn -0.3828125 0 -0.9238281
vn -0.3828125 0 -0.9238281
vn -0.3828125 0 -0.9238281
vn -0.9238281 0 -0.3825684
vn -0.9238281 0 -0.3825684
vn -0.9238281 0 -0.3825684
vn -0.9238281 0 -0.3825684
vn -0.9238281 0 0.3825684
vn -0.9238281 0 0.3825684
vn -0.9238281 0 0.3825684
vn -0.9238281 0 0.3825684
vn -0.3828125 0 0.9238281
vn -0.3828125 0 0.9238281
vn -0.3828125 0 0.9238281
vn -0.3828125 0 0.9238281
vn 0.3828125 0 0.9238281
vn 0.3828125 0 0.9238281
vn 0.3828125 0 0.9238281
vn 0.3828125 0 0.9238281
vn 0 1 0
vn 0 1 0
vn 0 1 0
vn 0 1 0
vn 0 1 0
vn 0 1 0
vn 0 1 0
vn 0 1 0
vn 0 1 0
vn 0 -1 0
vn 0 -1 0
vn 0 -1 0
vn 0 -1 0
vn 0 -1 0
vn 0 -1 0
vn 0 -1 0
vn 0 -1 0
vn 0 -1 0
vn 0 1 0
vn 0 1 0
vn 0 1 0
vn 0 1 0
vn 0 1 0
vn 0 1 0
vn 0 1 0
vn 0 1 0
vn 0 1 0
vn 0 1 0
vn 0 1 0
vn 0 1 0
vn 0 1 0
vn 0 1 0
vn 0 1 0
vn 0 1 0
vn 0 -1 0
vn 0 -1 0
vn 0 -1 0
vn 0 -1 0
vn 0 -1 0
vn 0 -1 0
vn 0 -1 0
vn 0 -1 0
vn 0 -1 0
vn 0 -1 0
vn 0 -1 0
vn 0 -1 0
vn 0 -1 0
vn 0 -1 0
vn 0 -1 0
vn 0 -1 0
vn 0 1 0
vn 0 1 0
vn 0 1 0
vn 0 1 0
vn 0 1 0
vn 0 1 0
vn 0 1 0
vn 0 1 0
vn 0 1 0
vn 0 1 0
vn 0 1 0
vn 0 1 0
vn 0 1 0
vn 0 1 0
vn 0 1 0
vn 0 1 0
vn 0 -1 0
vn 0 -1 0
vn 0 -1 0
vn 0 -1 0
vn 0 -1 0
vn 0 -1 0
vn 0 -1 0
vn 0 -1 0
vn 0 -1 0
vn 0 -1 0
vn 0 -1 0
vn 0 -1 0
vn 0 -1 0
vn 0 -1 0
vn 0 -1 0
vn 0 -1 0
g SM_Prop_Bucket_01_0
f 3/3/3 2/2/2 1/1/1
f 4/4/4 3/3/3 1/1/1
f 7/7/7 6/6/6 5/5/5
f 8/8/8 7/7/7 5/5/5
f 11/11/11 10/10/10 9/9/9
f 12/12/12 11/11/11 9/9/9
f 15/15/15 14/14/14 13/13/13
f 16/16/16 15/15/15 13/13/13
f 19/19/19 18/18/18 17/17/17
f 20/20/20 19/19/19 17/17/17
f 23/23/23 22/22/22 21/21/21
f 24/24/24 23/23/23 21/21/21
f 27/27/27 26/26/26 25/25/25
f 28/28/28 27/27/27 25/25/25
f 31/31/31 30/30/30 29/29/29
f 32/32/32 31/31/31 29/29/29
f 35/35/35 34/34/34 33/33/33
f 36/36/36 35/35/35 33/33/33
f 38/38/38 37/37/37 36/36/36
f 39/39/39 38/38/38 36/36/36
f 41/41/41 40/40/40 39/39/39
f 42/42/42 41/41/41 39/39/39
f 44/44/44 43/43/43 42/42/42
f 45/45/45 44/44/44 42/42/42
f 47/47/47 46/46/46 45/45/45
f 48/48/48 47/47/47 45/45/45
f 50/50/50 49/49/49 48/48/48
f 51/51/51 50/50/50 48/48/48
f 53/53/53 52/52/52 51/51/51
f 54/54/54 53/53/53 51/51/51
f 56/56/56 55/55/55 54/54/54
f 33/33/33 56/56/56 54/54/54
f 59/59/59 58/58/58 57/57/57
f 60/60/60 59/59/59 57/57/57
f 63/63/63 62/62/62 61/61/61
f 64/64/64 63/63/63 61/61/61
f 66/66/66 65/65/65 64/64/64
f 67/67/67 66/66/66 64/64/64
f 69/69/69 68/68/68 67/67/67
f 70/70/70 69/69/69 67/67/67
f 72/72/72 71/71/71 70/70/70
f 73/73/73 72/72/72 70/70/70
f 75/75/75 74/74/74 73/73/73
f 76/76/76 75/75/75 73/73/73
f 78/78/78 77/77/77 76/76/76
f 79/79/79 78/78/78 76/76/76
f 81/81/81 80/80/80 79/79/79
f 82/82/82 81/81/81 79/79/79
f 84/84/84 83/83/83 82/82/82
f 61/61/61 84/84/84 82/82/82
f 87/87/87 86/86/86 85/85/85
f 88/88/88 87/87/87 85/85/85
f 91/91/91 90/90/90 89/89/89
f 92/92/92 91/91/91 89/89/89
f 95/95/95 94/94/94 93/93/93
f 96/96/96 95/95/95 93/93/93
f 99/99/99 98/98/98 97/97/97
f 100/100/100 99/99/99 97/97/97
f 103/103/103 102/102/102 101/101/101
f 104/104/104 103/103/103 101/101/101
f 107/107/107 106/106/106 105/105/105
f 108/108/108 107/107/107 105/105/105
f 111/111/111 110/110/110 109/109/109
f 112/112/112 111/111/111 109/109/109
f 115/115/115 114/114/114 113/113/113
f 116/116/116 115/115/115 113/113/113
f 119/119/119 118/118/118 117/117/117
f 120/120/120 119/119/119 117/117/117
f 123/123/123 122/122/122 121/121/121
f 124/124/124 123/123/123 121/121/121
f 127/127/127 126/126/126 125/125/125
f 128/128/128 127/127/127 125/125/125
f 131/131/131 130/130/130 129/129/129
f 132/132/132 131/131/131 129/129/129
f 135/135/135 134/134/134 133/133/133
f 136/136/136 135/135/135 133/133/133
f 139/139/139 138/138/138 137/137/137
f 140/140/140 139/139/139 137/137/137
f 143/143/143 142/142/142 141/141/141
f 144/144/144 143/143/143 141/141/141
f 147/147/147 146/146/146 145/145/145
f 148/148/148 147/147/147 145/145/145
f 151/151/151 150/150/150 149/149/149
f 152/152/152 151/151/151 149/149/149
f 155/155/155 154/154/154 153/153/153
f 156/156/156 155/155/155 153/153/153
f 159/159/159 158/158/158 157/157/157
f 160/160/160 159/159/159 157/157/157
f 163/163/163 162/162/162 161/161/161
f 164/164/164 163/163/163 161/161/161
f 167/167/167 166/166/166 165/165/165
f 168/168/168 167/167/167 165/165/165
f 171/171/171 170/170/170 169/169/169
f 172/172/172 171/171/171 169/169/169
f 175/175/175 174/174/174 173/173/173
f 176/176/176 175/175/175 173/173/173
f 179/179/179 178/178/178 177/177/177
f 180/180/180 179/179/179 177/177/177
f 183/183/183 182/182/182 181/181/181
f 184/184/184 183/183/183 181/181/181
f 187/187/187 186/186/186 185/185/185
f 188/188/188 187/187/187 185/185/185
f 191/191/191 190/190/190 189/189/189
f 192/192/192 191/191/191 189/189/189
f 195/195/195 194/194/194 193/193/193
f 196/196/196 195/195/195 193/193/193
f 199/199/199 198/198/198 197/197/197
f 200/200/200 199/199/199 197/197/197
f 203/203/203 202/202/202 201/201/201
f 204/204/204 203/203/203 201/201/201
f 207/207/207 206/206/206 205/205/205
f 208/208/208 207/207/207 205/205/205
f 211/211/211 210/210/210 209/209/209
f 212/212/212 211/211/211 209/209/209
f 215/215/215 214/214/214 213/213/213
f 216/216/216 215/215/215 213/213/213
f 219/219/219 218/218/218 217/217/217
f 220/220/220 219/219/219 217/217/217
f 223/223/223 222/222/222 221/221/221
f 224/224/224 223/223/223 221/221/221
f 227/227/227 226/226/226 225/225/225
f 228/228/228 227/227/227 225/225/225
f 231/231/231 230/230/230 229/229/229
f 232/232/232 231/231/231 229/229/229
f 235/235/235 234/234/234 233/233/233
f 236/236/236 235/235/235 233/233/233
f 239/239/239 238/238/238 237/237/237
f 240/240/240 239/239/239 237/237/237
f 243/243/243 242/242/242 241/241/241
f 244/244/244 243/243/243 241/241/241
f 247/247/247 246/246/246 245/245/245
f 248/248/248 247/247/247 245/245/245
f 251/251/251 250/250/250 249/249/249
f 252/252/252 251/251/251 249/249/249
f 255/255/255 254/254/254 253/253/253
f 256/256/256 255/255/255 253/253/253
f 259/259/259 258/258/258 257/257/257
f 260/260/260 259/259/259 257/257/257
f 263/263/263 262/262/262 261/261/261
f 264/264/264 263/263/263 261/261/261
f 267/267/267 266/266/266 265/265/265
f 268/268/268 267/267/267 265/265/265
f 271/271/271 270/270/270 269/269/269
f 272/272/272 271/271/271 269/269/269
f 275/275/275 274/274/274 273/273/273
f 273/273/273 274/274/274 276/276/276
f 277/277/277 274/274/274 275/275/275
f 276/276/276 274/274/274 278/278/278
f 279/279/279 274/274/274 277/277/277
f 278/278/278 274/274/274 280/280/280
f 281/281/281 274/274/274 279/279/279
f 280/280/280 274/274/274 281/281/281
f 284/284/284 283/283/283 282/282/282
f 282/282/282 283/283/283 285/285/285
f 286/286/286 283/283/283 284/284/284
f 285/285/285 283/283/283 287/287/287
f 288/288/288 283/283/283 286/286/286
f 287/287/287 283/283/283 289/289/289
f 290/290/290 283/283/283 288/288/288
f 289/289/289 283/283/283 290/290/290
f 293/293/293 292/292/292 291/291/291
f 292/292/292 294/294/294 291/291/291
f 295/295/295 292/292/292 293/293/293
f 291/291/291 294/294/294 296/296/296
f 297/297/297 295/295/295 293/293/293
f 294/294/294 298/298/298 296/296/296
f 299/299/299 295/295/295 297/297/297
f 296/296/296 298/298/298 300/300/300
f 301/301/301 299/299/299 297/297/297
f 298/298/298 302/302/302 300/300/300
f 303/303/303 299/299/299 301/301/301
f 300/300/300 302/302/302 304/304/304
f 305/305/305 303/303/303 301/301/301
f 302/302/302 306/306/306 304/304/304
f 306/306/306 303/303/303 305/305/305
f 304/304/304 306/306/306 305/305/305
f 309/309/309 308/308/308 307/307/307
f 308/308/308 310/310/310 307/307/307
f 311/311/311 308/308/308 309/309/309
f 307/307/307 310/310/310 312/312/312
f 313/313/313 311/311/311 309/309/309
f 310/310/310 314/314/314 312/312/312
f 315/315/315 311/311/311 313/313/313
f 312/312/312 314/314/314 316/316/316
f 317/317/317 315/315/315 313/313/313
f 314/314/314 318/318/318 316/316/316
f 319/319/319 315/315/315 317/317/317
f 316/316/316 318/318/318 320/320/320
f 321/321/321 319/319/319 317/317/317
f 318/318/318 322/322/322 320/320/320
f 322/322/322 319/319/319 321/321/321
f 320/320/320 322/322/322 321/321/321
f 325/325/325 324/324/324 323/323/323
f 324/324/324 326/326/326 323/323/323
f 327/327/327 324/324/324 325/325/325
f 323/323/323 326/326/326 328/328/328
f 329/329/329 327/327/327 325/325/325
f 326/326/326 330/330/330 328/328/328
f 331/331/331 327/327/327 329/329/329
f 328/328/328 330/330/330 332/332/332
f 333/333/333 331/331/331 329/329/329
f 330/330/330 334/334/334 332/332/332
f 335/335/335 331/331/331 333/333/333
f 332/332/332 334/334/334 336/336/336
f 337/337/337 335/335/335 333/333/333
f 334/334/334 338/338/338 336/336/336
f 338/338/338 335/335/335 337/337/337
f 336/336/336 338/338/338 337/337/337
f 341/341/341 340/340/340 339/339/339
f 340/340/340 342/342/342 339/339/339
f 343/343/343 340/340/340 341/341/341
f 339/339/339 342/342/342 344/344/344
f 345/345/345 343/343/343 341/341/341
f 342/342/342 346/346/346 344/344/344
f 347/347/347 343/343/343 345/345/345
f 344/344/344 346/346/346 348/348/348
f 349/349/349 347/347/347 345/345/345
f 346/346/346 350/350/350 348/348/348
f 351/351/351 347/347/347 349/349/349
f 348/348/348 350/350/350 352/352/352
f 353/353/353 351/351/351 349/349/349
f 350/350/350 354/354/354 352/352/352
f 354/354/354 351/351/351 353/353/353
f 352/352/352 354/354/354 353/353/353
