g SM_Prop_Bowl_01
v 0.06710413 0.078394 -0.2065396
v 0.03994 0.003461473 -0.1229146
v 0.104553 0.003461275 -0.07595724
v 0.1756957 0.07839394 -0.12765
v -0.06710729 0.07839391 -0.2065396
v -0.03994 0.003461462 -0.1229146
v 0.03994 0.003461473 -0.1229146
v 0.06710413 0.078394 -0.2065396
v -0.1756925 0.07839391 -0.12765
v -0.1045489 0.00346126 -0.07595724
v -0.03994 0.003461462 -0.1229146
v -0.06710729 0.07839391 -0.2065396
v -0.2171704 0.07839373 1.111837E-05
v -0.1292339 0.003461171 -2.000401E-06
v -0.1045489 0.00346126 -0.07595724
v -0.1756925 0.07839391 -0.12765
v -0.1756925 0.07839379 0.1276595
v -0.1045489 0.003461123 0.07596523
v -0.1292339 0.003461171 -2.000401E-06
v -0.2171704 0.07839373 1.111837E-05
v -0.03994 0.003461268 0.1229146
v -0.1045489 0.003461123 0.07596523
v -0.1756925 0.07839379 0.1276595
v -0.06710729 0.07839391 0.2065428
v 0.06710413 0.07839397 0.2065428
v 0.03994 0.003461286 0.1229146
v -0.03994 0.003461268 0.1229146
v -0.06710729 0.07839391 0.2065428
v 0.1756957 0.07839382 0.1276595
v 0.104553 0.003461141 0.07596523
v 0.03994 0.003461286 0.1229146
v 0.06710413 0.07839397 0.2065428
v 0.2171704 0.07839373 1.111837E-05
v 0.1292339 0.003461137 -2.000401E-06
v 0.104553 0.003461141 0.07596523
v 0.1756957 0.07839382 0.1276595
v 0.1756957 0.07839394 -0.12765
v 0.104553 0.003461275 -0.07595724
v 0.1292339 0.003461137 -2.000401E-06
v 0.2171704 0.07839373 1.111837E-05
v 0.1756957 0.07839394 -0.12765
v 0.1955022 0.158282 -0.1420372
v 0.07467097 0.158282 -0.2298278
v 0.06710413 0.078394 -0.2065396
v 0.06710413 0.078394 -0.2065396
v 0.07467097 0.158282 -0.2298278
v -0.07467732 0.158282 -0.2298278
v -0.06710729 0.07839391 -0.2065396
v -0.06710729 0.07839391 -0.2065396
v -0.07467732 0.158282 -0.2298278
v -0.1955022 0.158282 -0.1420372
v -0.1756925 0.07839391 -0.12765
v -0.1756925 0.07839391 -0.12765
v -0.1955022 0.158282 -0.1420372
v -0.2416562 0.158282 1.111837E-05
v -0.2171704 0.07839373 1.111837E-05
v -0.2171704 0.07839373 1.111837E-05
v -0.2416562 0.158282 1.111837E-05
v -0.1955022 0.158282 0.1420498
v -0.1756925 0.07839379 0.1276595
v -0.1756925 0.07839379 0.1276595
v -0.1955022 0.158282 0.1420498
v -0.07467732 0.158282 0.2298278
v -0.06710729 0.07839391 0.2065428
v -0.06710729 0.07839391 0.2065428
v -0.07467732 0.158282 0.2298278
v 0.07467097 0.1582819 0.2298278
v 0.06710413 0.07839397 0.2065428
v 0.06710413 0.07839397 0.2065428
v 0.07467097 0.1582819 0.2298278
v 0.1955022 0.1582819 0.1420498
v 0.1756957 0.07839382 0.1276595
v 0.1756957 0.07839382 0.1276595
v 0.1955022 0.1582819 0.1420498
v 0.2416562 0.158282 1.111837E-05
v 0.2171704 0.07839373 1.111837E-05
v 0.2171704 0.07839373 1.111837E-05
v 0.2416562 0.158282 1.111837E-05
v 0.1955022 0.158282 -0.1420372
v 0.1756957 0.07839394 -0.12765
v 0.06145957 0.08409443 -0.1891656
v 0.1609249 0.08409443 -0.1169156
v 0.07690954 0.02197336 -0.05587585
v 0.02937636 0.02197336 -0.09041759
v -0.06146273 0.08409443 -0.1891656
v 0.06145957 0.08409443 -0.1891656
v 0.02937636 0.02197336 -0.09041759
v -0.02937953 0.02197336 -0.09041759
v -0.1609189 0.08409443 -0.1169156
v -0.06146273 0.08409443 -0.1891656
v -0.02937953 0.02197336 -0.09041759
v -0.07690963 0.02197336 -0.05587585
v -0.1989123 0.08409443 1.072915E-05
v -0.1609189 0.08409443 -0.1169156
v -0.07690963 0.02197336 -0.05587585
v -0.09506643 0.02197336 -1.532731E-06
v -0.1609189 0.08409443 0.1169277
v -0.1989123 0.08409443 1.072915E-05
v -0.09506643 0.02197336 -1.532731E-06
v -0.07690963 0.02197336 0.05587892
v -0.02937953 0.02197336 0.09041452
v -0.06146273 0.08409443 0.1891748
v -0.1609189 0.08409443 0.1169277
v -0.07690963 0.02197336 0.05587892
v 0.06145957 0.08409443 0.1891748
v -0.06146273 0.08409443 0.1891748
v -0.02937953 0.02197336 0.09041452
v 0.02937636 0.02197336 0.09041452
v 0.1609249 0.08409443 0.1169277
v 0.06145957 0.08409443 0.1891748
v 0.02937636 0.02197336 0.09041452
v 0.07690954 0.02197336 0.05587892
v 0.1989122 0.08409443 1.072915E-05
v 0.1609249 0.08409443 0.1169277
v 0.07690954 0.02197336 0.05587892
v 0.09506327 0.02197336 -1.532731E-06
v 0.1609249 0.08409443 -0.1169156
v 0.1989122 0.08409443 1.072915E-05
v 0.09506327 0.02197336 -1.532731E-06
v 0.07690954 0.02197336 -0.05587585
v 0.1609249 0.08409443 -0.1169156
v 0.06145957 0.08409443 -0.1891656
v 0.06868488 0.1581683 -0.2113994
v 0.1798266 0.1581683 -0.1306489
v 0.06145957 0.08409443 -0.1891656
v -0.06146273 0.08409443 -0.1891656
v -0.06868806 0.1581683 -0.2113994
v 0.06868488 0.1581683 -0.2113994
v -0.06146273 0.08409443 -0.1891656
v -0.1609189 0.08409443 -0.1169156
v -0.1798236 0.1581683 -0.1306489
v -0.06868806 0.1581683 -0.2113994
v -0.1609189 0.08409443 -0.1169156
v -0.1989123 0.08409443 1.072915E-05
v -0.2222804 0.1581683 1.072915E-05
v -0.1798236 0.1581683 -0.1306489
v -0.1989123 0.08409443 1.072915E-05
v -0.1609189 0.08409443 0.1169277
v -0.1798236 0.1581683 0.130658
v -0.2222804 0.1581683 1.072915E-05
v -0.1609189 0.08409443 0.1169277
v -0.06146273 0.08409443 0.1891748
v -0.06868806 0.1581683 0.2113994
v -0.1798236 0.1581683 0.130658
v -0.06146273 0.08409443 0.1891748
v 0.06145957 0.08409443 0.1891748
v 0.06868488 0.1581683 0.2113994
v -0.06868806 0.1581683 0.2113994
v 0.06145957 0.08409443 0.1891748
v 0.1609249 0.08409443 0.1169277
v 0.1798266 0.1581683 0.130658
v 0.06868488 0.1581683 0.2113994
v 0.1609249 0.08409443 0.1169277
v 0.1989122 0.08409443 1.072915E-05
v 0.2222772 0.1581683 1.072915E-05
v 0.1798266 0.1581683 0.130658
v 0.1989122 0.08409443 1.072915E-05
v 0.1609249 0.08409443 -0.1169156
v 0.1798266 0.1581683 -0.1306489
v 0.2222772 0.1581683 1.072915E-05
v 0.1292339 0.003461137 -2.000401E-06
v 3.176677E-06 0 -1.588342E-06
v 0.104553 0.003461141 0.07596523
v 0.104553 0.003461275 -0.07595724
v 0.03994 0.003461286 0.1229146
v 0.03994 0.003461473 -0.1229146
v -0.03994 0.003461268 0.1229146
v -0.03994 0.003461462 -0.1229146
v -0.1045489 0.003461123 0.07596523
v -0.1045489 0.00346126 -0.07595724
v -0.1292339 0.003461171 -2.000401E-06
v 0.09506327 0.02197336 -1.532731E-06
v 0.07690954 0.02197336 0.05587892
v 3.176677E-06 0.02378969 -1.588342E-06
v 0.07690954 0.02197336 -0.05587585
v 0.02937636 0.02197336 0.09041452
v 0.02937636 0.02197336 -0.09041759
v -0.02937953 0.02197336 0.09041452
v -0.02937953 0.02197336 -0.09041759
v -0.07690963 0.02197336 0.05587892
v -0.07690963 0.02197336 -0.05587585
v -0.09506643 0.02197336 -1.532731E-06
v 0.2222772 0.1581683 1.072915E-05
v 0.2416562 0.158282 1.111837E-05
v 0.1955022 0.1582819 0.1420498
v 0.1798266 0.1581683 0.130658
v 0.1798266 0.1581683 -0.1306489
v 0.07467097 0.1582819 0.2298278
v 0.1955022 0.158282 -0.1420372
v 0.06868488 0.1581683 0.2113994
v 0.06868488 0.1581683 -0.2113994
v -0.07467732 0.158282 0.2298278
v 0.07467097 0.158282 -0.2298278
v -0.06868806 0.1581683 0.2113994
v -0.06868806 0.1581683 -0.2113994
v -0.1955022 0.158282 0.1420498
v -0.07467732 0.158282 -0.2298278
v -0.1798236 0.1581683 0.130658
v -0.1798236 0.1581683 -0.1306489
v -0.2416562 0.158282 1.111837E-05
v -0.1955022 0.158282 -0.1420372
v -0.2222804 0.1581683 1.072915E-05
vt 0.384792 0.4242495
vt 0.384792 0.4242495
vt 0.384792 0.4242495
vt 0.384792 0.4242495
vt 0.384792 0.4242495
vt 0.384792 0.4242495
vt 0.384792 0.4242495
vt 0.384792 0.4242495
vt 0.384792 0.4242495
vt 0.384792 0.4242495
vt 0.384792 0.4242495
vt 0.384792 0.4242495
vt 0.384792 0.4242495
vt 0.384792 0.4242495
vt 0.384792 0.4242495
vt 0.384792 0.4242495
vt 0.384792 0.4242495
vt 0.384792 0.4242495
vt 0.384792 0.4242495
vt 0.384792 0.4242495
vt 0.384792 0.4242495
vt 0.384792 0.4242495
vt 0.384792 0.4242495
vt 0.384792 0.4242495
vt 0.384792 0.4242495
vt 0.384792 0.4242495
vt 0.384792 0.4242495
vt 0.384792 0.4242495
vt 0.384792 0.4242495
vt 0.384792 0.4242495
vt 0.384792 0.4242495
vt 0.384792 0.4242495
vt 0.384792 0.4242495
vt 0.384792 0.4242495
vt 0.384792 0.4242495
vt 0.384792 0.4242495
vt 0.384792 0.4242495
vt 0.384792 0.4242495
vt 0.384792 0.4242495
vt 0.384792 0.4242495
vt 0.384792 0.4242495
vt 0.384792 0.4242495
vt 0.384792 0.4242495
vt 0.384792 0.4242495
vt 0.384792 0.4242495
vt 0.384792 0.4242495
vt 0.384792 0.4242495
vt 0.384792 0.4242495
vt 0.384792 0.4242495
vt 0.384792 0.4242495
vt 0.384792 0.4242495
vt 0.384792 0.4242495
vt 0.384792 0.4242495
vt 0.384792 0.4242495
vt 0.384792 0.4242495
vt 0.384792 0.4242495
vt 0.384792 0.4242495
vt 0.384792 0.4242495
vt 0.384792 0.4242495
vt 0.384792 0.4242495
vt 0.384792 0.4242495
vt 0.384792 0.4242495
vt 0.384792 0.4242495
vt 0.384792 0.4242495
vt 0.384792 0.4242495
vt 0.384792 0.4242495
vt 0.384792 0.4242495
vt 0.384792 0.4242495
vt 0.384792 0.4242495
vt 0.384792 0.4242495
vt 0.384792 0.4242495
vt 0.384792 0.4242495
vt 0.384792 0.4242495
vt 0.384792 0.4242495
vt 0.384792 0.4242495
vt 0.384792 0.4242495
vt 0.384792 0.4242495
vt 0.384792 0.4242495
vt 0.384792 0.4242495
vt 0.384792 0.4242495
vt 0.6453404 0.1128268
vt 0.6453404 0.1128268
vt 0.6453404 0.1128268
vt 0.6453404 0.1128268
vt 0.6453404 0.1128268
vt 0.6453404 0.1128268
vt 0.6453404 0.1128268
vt 0.6453404 0.1128268
vt 0.6453404 0.1128268
vt 0.6453404 0.1128268
vt 0.6453404 0.1128268
vt 0.6453404 0.1128268
vt 0.6453404 0.1128268
vt 0.6453404 0.1128268
vt 0.6453404 0.1128268
vt 0.6453404 0.1128268
vt 0.6453404 0.1128268
vt 0.6453404 0.1128268
vt 0.6453404 0.1128268
vt 0.6453404 0.1128268
vt 0.6453404 0.1128268
vt 0.6453404 0.1128268
vt 0.6453404 0.1128268
vt 0.6453404 0.1128268
vt 0.6453404 0.1128268
vt 0.6453404 0.1128268
vt 0.6453404 0.1128268
vt 0.6453404 0.1128268
vt 0.6453404 0.1128268
vt 0.6453404 0.1128268
vt 0.6453404 0.1128268
vt 0.6453404 0.1128268
vt 0.6453404 0.1128268
vt 0.6453404 0.1128268
vt 0.6453404 0.1128268
vt 0.6453404 0.1128268
vt 0.6453404 0.1128268
vt 0.6453404 0.1128268
vt 0.6453404 0.1128268
vt 0.6453404 0.1128268
vt 0.6453404 0.1128268
vt 0.6453404 0.1128268
vt 0.6453404 0.1128268
vt 0.6453404 0.1128268
vt 0.6453404 0.1128268
vt 0.6453404 0.1128268
vt 0.6453404 0.1128268
vt 0.6453404 0.1128268
vt 0.6453404 0.1128268
vt 0.6453404 0.1128268
vt 0.6453404 0.1128268
vt 0.6453404 0.1128268
vt 0.6453404 0.1128268
vt 0.6453404 0.1128268
vt 0.6453404 0.1128268
vt 0.6453404 0.1128268
vt 0.6453404 0.1128268
vt 0.6453404 0.1128268
vt 0.6453404 0.1128268
vt 0.6453404 0.1128268
vt 0.6453404 0.1128268
vt 0.6453404 0.1128268
vt 0.6453404 0.1128268
vt 0.6453404 0.1128268
vt 0.6453404 0.1128268
vt 0.6453404 0.1128268
vt 0.6453404 0.1128268
vt 0.6453404 0.1128268
vt 0.6453404 0.1128268
vt 0.6453404 0.1128268
vt 0.6453404 0.1128268
vt 0.6453404 0.1128268
vt 0.6453404 0.1128268
vt 0.6453404 0.1128268
vt 0.6453404 0.1128268
vt 0.6453404 0.1128268
vt 0.6453404 0.1128268
vt 0.6453404 0.1128268
vt 0.6453404 0.1128268
vt 0.6453404 0.1128268
vt 0.384792 0.4242495
vt 0.384792 0.4242495
vt 0.384792 0.4242495
vt 0.384792 0.4242495
vt 0.384792 0.4242495
vt 0.384792 0.4242495
vt 0.384792 0.4242495
vt 0.384792 0.4242495
vt 0.384792 0.4242495
vt 0.384792 0.4242495
vt 0.384792 0.4242495
vt 0.6453404 0.1128268
vt 0.6453404 0.1128268
vt 0.6453404 0.1128268
vt 0.6453404 0.1128268
vt 0.6453404 0.1128268
vt 0.6453404 0.1128268
vt 0.6453404 0.1128268
vt 0.6453404 0.1128268
vt 0.6453404 0.1128268
vt 0.6453404 0.1128268
vt 0.6453404 0.1128268
vt 0.6453404 0.1128268
vt 0.6453404 0.1128268
vt 0.6453404 0.1128268
vt 0.6453404 0.1128268
vt 0.6453404 0.1128268
vt 0.6453404 0.1128268
vt 0.6453404 0.1128268
vt 0.6453404 0.1128268
vt 0.6453404 0.1128268
vt 0.6453404 0.1128268
vt 0.6453404 0.1128268
vt 0.6453404 0.1128268
vt 0.6453404 0.1128268
vt 0.6453404 0.1128268
vt 0.6453404 0.1128268
vt 0.6453404 0.1128268
vt 0.6453404 0.1128268
vt 0.6453404 0.1128268
vt 0.6453404 0.1128268
vt 0.6453404 0.1128268
vn 0.3922552 -0.7447684 -0.5398665
vn 0.3922552 -0.7447684 -0.5398665
vn 0.3922552 -0.7447684 -0.5398665
vn 0.3922552 -0.7447684 -0.5398665
vn 0 -0.7447537 -0.6673394
vn 0 -0.7447537 -0.6673394
vn 0 -0.7447537 -0.6673394
vn 0 -0.7447537 -0.6673394
vn -0.3922675 -0.7447734 -0.5398508
vn -0.3922675 -0.7447734 -0.5398508
vn -0.3922675 -0.7447734 -0.5398508
vn -0.3922675 -0.7447734 -0.5398508
vn -0.6346447 -0.744781 -0.2062216
vn -0.6346447 -0.744781 -0.2062216
vn -0.6346447 -0.744781 -0.2062216
vn -0.6346447 -0.744781 -0.2062216
vn -0.6346267 -0.7447979 0.2062155
vn -0.6346267 -0.7447979 0.2062155
vn -0.6346267 -0.7447979 0.2062155
vn -0.6346267 -0.7447979 0.2062155
vn -0.3922334 -0.7447805 0.5398656
vn -0.3922334 -0.7447805 0.5398656
vn -0.3922334 -0.7447805 0.5398656
vn -0.3922334 -0.7447805 0.5398656
vn 0 -0.7447656 0.6673261
vn 0 -0.7447656 0.6673261
vn 0 -0.7447656 0.6673261
vn 0 -0.7447656 0.6673261
vn 0.3922211 -0.7447757 0.5398812
vn 0.3922211 -0.7447757 0.5398812
vn 0.3922211 -0.7447757 0.5398812
vn 0.3922211 -0.7447757 0.5398812
vn 0.6346352 -0.7447962 0.2061961
vn 0.6346352 -0.7447962 0.2061961
vn 0.6346352 -0.7447962 0.2061961
vn 0.6346352 -0.7447962 0.2061961
vn 0.6346532 -0.7447792 -0.2062021
vn 0.6346532 -0.7447792 -0.2062021
vn 0.6346532 -0.7447792 -0.2062021
vn 0.6346532 -0.7447792 -0.2062021
vn 0.5642924 -0.2798249 -0.776706
vn 0.5642924 -0.2798249 -0.776706
vn 0.5642924 -0.2798249 -0.776706
vn 0.5642924 -0.2798249 -0.776706
vn 0 -0.2798624 -0.9600402
vn 0 -0.2798624 -0.9600402
vn 0 -0.2798624 -0.9600402
vn 0 -0.2798624 -0.9600402
vn -0.5643094 -0.2798454 -0.7766863
vn -0.5643094 -0.2798454 -0.7766863
vn -0.5643094 -0.2798454 -0.7766863
vn -0.5643094 -0.2798454 -0.7766863
vn -0.9130592 -0.279845 -0.2966641
vn -0.9130592 -0.279845 -0.2966641
vn -0.9130592 -0.279845 -0.2966641
vn -0.9130592 -0.279845 -0.2966641
vn -0.9130507 -0.2798502 0.2966857
vn -0.9130507 -0.2798502 0.2966857
vn -0.9130507 -0.2798502 0.2966857
vn -0.9130507 -0.2798502 0.2966857
vn -0.5642672 -0.2798449 0.7767171
vn -0.5642672 -0.2798449 0.7767171
vn -0.5642672 -0.2798449 0.7767171
vn -0.5642672 -0.2798449 0.7767171
vn 0 -0.2798268 0.9600505
vn 0 -0.2798268 0.9600505
vn 0 -0.2798268 0.9600505
vn 0 -0.2798268 0.9600505
vn 0.5642502 -0.2798246 0.7767367
vn 0.5642502 -0.2798246 0.7767367
vn 0.5642502 -0.2798246 0.7767367
vn 0.5642502 -0.2798246 0.7767367
vn 0.9130584 -0.2798338 0.2966774
vn 0.9130584 -0.2798338 0.2966774
vn 0.9130584 -0.2798338 0.2966774
vn 0.9130584 -0.2798338 0.2966774
vn 0.9130669 -0.2798284 -0.2966559
vn 0.9130669 -0.2798284 -0.2966559
vn 0.9130669 -0.2798284 -0.2966559
vn 0.9130669 -0.2798284 -0.2966559
vn -0.3129512 0.8464593 0.4307762
vn -0.3129512 0.8464593 0.4307762
vn -0.3129512 0.8464593 0.4307762
vn -0.3129512 0.8464593 0.4307762
vn 0 0.8464399 0.5324843
vn 0 0.8464399 0.5324843
vn 0 0.8464399 0.5324843
vn 0 0.8464399 0.5324843
vn 0.3129723 0.8464549 0.4307694
vn 0.3129723 0.8464549 0.4307694
vn 0.3129723 0.8464549 0.4307694
vn 0.3129723 0.8464549 0.4307694
vn 0.5063765 0.8464682 0.164543
vn 0.5063765 0.8464682 0.164543
vn 0.5063765 0.8464682 0.164543
vn 0.5063765 0.8464682 0.164543
vn 0.5063565 0.8464809 -0.1645395
vn 0.5063565 0.8464809 -0.1645395
vn 0.5063565 0.8464809 -0.1645395
vn 0.5063565 0.8464809 -0.1645395
vn 0.3129352 0.846476 -0.4307552
vn 0.3129352 0.846476 -0.4307552
vn 0.3129352 0.846476 -0.4307552
vn 0.3129352 0.846476 -0.4307552
vn 0 0.8464696 -0.532437
vn 0 0.8464696 -0.532437
vn 0 0.8464696 -0.532437
vn 0 0.8464696 -0.532437
vn -0.312914 0.8464803 -0.430762
vn -0.312914 0.8464803 -0.430762
vn -0.312914 0.8464803 -0.430762
vn -0.312914 0.8464803 -0.430762
vn -0.5063483 0.8464915 -0.16451
vn -0.5063483 0.8464915 -0.16451
vn -0.5063483 0.8464915 -0.16451
vn -0.5063483 0.8464915 -0.16451
vn -0.5063683 0.8464789 0.1645135
vn -0.5063683 0.8464789 0.1645135
vn -0.5063683 0.8464789 0.1645135
vn -0.5063683 0.8464789 0.1645135
vn -0.5629503 0.2874113 0.7749075
vn -0.5629503 0.2874113 0.7749075
vn -0.5629503 0.2874113 0.7749075
vn -0.5629503 0.2874113 0.7749075
vn 0 0.2874857 0.957785
vn 0 0.2874857 0.957785
vn 0 0.2874857 0.957785
vn 0 0.2874857 0.957785
vn 0.5629751 0.2874222 0.7748855
vn 0.5629751 0.2874222 0.7748855
vn 0.5629751 0.2874222 0.7748855
vn 0.5629751 0.2874222 0.7748855
vn 0.9109362 0.2873679 0.2959981
vn 0.9109362 0.2873679 0.2959981
vn 0.9109362 0.2873679 0.2959981
vn 0.9109362 0.2873679 0.2959981
vn 0.9109302 0.2873624 -0.2960218
vn 0.9109302 0.2873624 -0.2960218
vn 0.9109302 0.2873624 -0.2960218
vn 0.9109302 0.2873624 -0.2960218
vn 0.5629561 0.2873637 -0.774921
vn 0.5629561 0.2873637 -0.774921
vn 0.5629561 0.2873637 -0.774921
vn 0.5629561 0.2873637 -0.774921
vn 0 0.2873768 -0.9578175
vn 0 0.2873768 -0.9578175
vn 0 0.2873768 -0.9578175
vn 0 0.2873768 -0.9578175
vn -0.5629313 0.2873528 -0.7749431
vn -0.5629313 0.2873528 -0.7749431
vn -0.5629313 0.2873528 -0.7749431
vn -0.5629313 0.2873528 -0.7749431
vn -0.9109536 0.2873271 -0.2959844
vn -0.9109536 0.2873271 -0.2959844
vn -0.9109536 0.2873271 -0.2959844
vn -0.9109536 0.2873271 -0.2959844
vn -0.9109595 0.2873326 0.2959606
vn -0.9109595 0.2873326 0.2959606
vn -0.9109595 0.2873326 0.2959606
vn -0.9109595 0.2873326 0.2959606
vn 0.02677302 -0.9996415 0
vn 0 -1 0
vn 0.02165938 -0.9996415 0.01573603
vn 0.02166079 -0.9996415 -0.01573818
vn 0.008272859 -0.9996415 0.02546165
vn 0.008274289 -0.9996415 -0.02546337
vn -0.008272983 -0.9996415 0.02546111
vn -0.008274408 -0.9996415 -0.02546286
vn -0.02165898 -0.9996415 0.01573569
vn -0.02166038 -0.9996415 -0.01573789
vn -0.02677196 -0.9996415 0
vn 0.01910371 0.9998176 0
vn 0.01545495 0.9998176 0.01122783
vn 0 1 0
vn 0.01545581 0.9998176 -0.0112279
vn 0.005903096 0.9998176 0.01816721
vn 0.005903949 0.9998176 -0.01816695
vn -0.00590304 0.9998176 0.0181666
vn -0.005903894 0.9998176 -0.01816635
vn -0.01545394 0.9998176 0.01122744
vn -0.0154548 0.9998176 -0.01122751
vn -0.0191018 0.9998176 0
vn -0.00586496 0.9999828 0
vn -0.00586496 0.9999828 0
vn -0.00474362 0.9999828 -0.003446304
vn -0.00474362 0.9999828 -0.003446304
vn -0.004745729 0.9999828 0.003448007
vn -0.001811573 0.9999828 -0.005576818
vn -0.004745729 0.9999828 0.003448007
vn -0.001811573 0.9999828 -0.005576818
vn -0.001812817 0.9999828 0.005579015
vn 0.001812971 0.9999828 -0.005578431
vn -0.001812817 0.9999828 0.005579015
vn 0.001812971 0.9999828 -0.005578431
vn 0.001812705 0.9999828 0.005578727
vn 0.004746494 0.9999828 -0.003448682
vn 0.001812705 0.9999828 0.005578727
vn 0.004746494 0.9999828 -0.003448682
vn 0.00474562 0.9999828 0.003447786
vn 0.00586644 0.9999828 0
vn 0.00474562 0.9999828 0.003447786
vn 0.00586644 0.9999828 0
g SM_Prop_Bowl_01_0
f 3/3/3 2/2/2 1/1/1
f 4/4/4 3/3/3 1/1/1
f 7/7/7 6/6/6 5/5/5
f 8/8/8 7/7/7 5/5/5
f 11/11/11 10/10/10 9/9/9
f 12/12/12 11/11/11 9/9/9
f 15/15/15 14/14/14 13/13/13
f 16/16/16 15/15/15 13/13/13
f 19/19/19 18/18/18 17/17/17
f 20/20/20 19/19/19 17/17/17
f 23/23/23 22/22/22 21/21/21
f 24/24/24 23/23/23 21/21/21
f 27/27/27 26/26/26 25/25/25
f 28/28/28 27/27/27 25/25/25
f 31/31/31 30/30/30 29/29/29
f 32/32/32 31/31/31 29/29/29
f 35/35/35 34/34/34 33/33/33
f 36/36/36 35/35/35 33/33/33
f 39/39/39 38/38/38 37/37/37
f 40/40/40 39/39/39 37/37/37
f 43/43/43 42/42/42 41/41/41
f 44/44/44 43/43/43 41/41/41
f 47/47/47 46/46/46 45/45/45
f 48/48/48 47/47/47 45/45/45
f 51/51/51 50/50/50 49/49/49
f 52/52/52 51/51/51 49/49/49
f 55/55/55 54/54/54 53/53/53
f 56/56/56 55/55/55 53/53/53
f 59/59/59 58/58/58 57/57/57
f 60/60/60 59/59/59 57/57/57
f 63/63/63 62/62/62 61/61/61
f 64/64/64 63/63/63 61/61/61
f 67/67/67 66/66/66 65/65/65
f 68/68/68 67/67/67 65/65/65
f 71/71/71 70/70/70 69/69/69
f 72/72/72 71/71/71 69/69/69
f 75/75/75 74/74/74 73/73/73
f 76/76/76 75/75/75 73/73/73
f 79/79/79 78/78/78 77/77/77
f 80/80/80 79/79/79 77/77/77
f 83/83/83 82/82/82 81/81/81
f 84/84/84 83/83/83 81/81/81
f 87/87/87 86/86/86 85/85/85
f 88/88/88 87/87/87 85/85/85
f 91/91/91 90/90/90 89/89/89
f 92/92/92 91/91/91 89/89/89
f 95/95/95 94/94/94 93/93/93
f 96/96/96 95/95/95 93/93/93
f 99/99/99 98/98/98 97/97/97
f 100/100/100 99/99/99 97/97/97
f 103/103/103 102/102/102 101/101/101
f 104/104/104 103/103/103 101/101/101
f 107/107/107 106/106/106 105/105/105
f 108/108/108 107/107/107 105/105/105
f 111/111/111 110/110/110 109/109/109
f 112/112/112 111/111/111 109/109/109
f 115/115/115 114/114/114 113/113/113
f 116/116/116 115/115/115 113/113/113
f 119/119/119 118/118/118 117/117/117
f 120/120/120 119/119/119 117/117/117
f 123/123/123 122/122/122 121/121/121
f 124/124/124 123/123/123 121/121/121
f 127/127/127 126/126/126 125/125/125
f 128/128/128 127/127/127 125/125/125
f 131/131/131 130/130/130 129/129/129
f 132/132/132 131/131/131 129/129/129
f 135/135/135 134/134/134 133/133/133
f 136/136/136 135/135/135 133/133/133
f 139/139/139 138/138/138 137/137/137
f 140/140/140 139/139/139 137/137/137
f 143/143/143 142/142/142 141/141/141
f 144/144/144 143/143/143 141/141/141
f 147/147/147 146/146/146 145/145/145
f 148/148/148 147/147/147 145/145/145
f 151/151/151 150/150/150 149/149/149
f 152/152/152 151/151/151 149/149/149
f 155/155/155 154/154/154 153/153/153
f 156/156/156 155/155/155 153/153/153
f 159/159/159 158/158/158 157/157/157
f 160/160/160 159/159/159 157/157/157
f 163/163/163 162/162/162 161/161/161
f 161/161/161 162/162/162 164/164/164
f 165/165/165 162/162/162 163/163/163
f 164/164/164 162/162/162 166/166/166
f 167/167/167 162/162/162 165/165/165
f 166/166/166 162/162/162 168/168/168
f 169/169/169 162/162/162 167/167/167
f 168/168/168 162/162/162 170/170/170
f 171/171/171 162/162/162 169/169/169
f 170/170/170 162/162/162 171/171/171
f 174/174/174 173/173/173 172/172/172
f 174/174/174 172/172/172 175/175/175
f 174/174/174 176/176/176 173/173/173
f 174/174/174 175/175/175 177/177/177
f 174/174/174 178/178/178 176/176/176
f 174/174/174 177/177/177 179/179/179
f 174/174/174 180/180/180 178/178/178
f 174/174/174 179/179/179 181/181/181
f 174/174/174 182/182/182 180/180/180
f 174/174/174 181/181/181 182/182/182
f 185/185/185 184/184/184 183/183/183
f 186/186/186 185/185/185 183/183/183
f 183/183/183 184/184/184 187/187/187
f 188/188/188 185/185/185 186/186/186
f 184/184/184 189/189/189 187/187/187
f 190/190/190 188/188/188 186/186/186
f 187/187/187 189/189/189 191/191/191
f 192/192/192 188/188/188 190/190/190
f 189/189/189 193/193/193 191/191/191
f 194/194/194 192/192/192 190/190/190
f 191/191/191 193/193/193 195/195/195
f 196/196/196 192/192/192 194/194/194
f 193/193/193 197/197/197 195/195/195
f 198/198/198 196/196/196 194/194/194
f 195/195/195 197/197/197 199/199/199
f 200/200/200 196/196/196 198/198/198
f 197/197/197 201/201/201 199/199/199
f 202/202/202 200/200/200 198/198/198
f 199/199/199 201/201/201 202/202/202
f 201/201/201 200/200/200 202/202/202
