# exported by gszh.xyz
mtllib gszh_xyz.mtl
g SM_Prop_Table_03
v -0.4189910888671875 0.7427234649658203 0.4496002197265625
v -0.30394744873046875 0.7427234649658203 0.4312896728515625
v -0.30394744873046875 0.7896583080291748 0.4312896728515625
v -0.4189910888671875 0.7427234649658203 0.4496002197265625
v -0.30394744873046875 0.7896583080291748 0.4312896728515625
v -0.4189910888671875 0.7896583080291748 0.4496002197265625
v -0.4189910888671875 0.7896583080291748 0.4496002197265625
v -0.30394744873046875 0.7896583080291748 0.4312896728515625
v -0.30394744873046875 0.7896583080291748 -0.4496002197265625
v -0.4189910888671875 0.7896583080291748 0.4496002197265625
v -0.30394744873046875 0.7896583080291748 -0.4496002197265625
v -0.4189910888671875 0.7896583080291748 -0.4496002197265625
v -0.4189910888671875 0.7896583080291748 -0.4496002197265625
v -0.30394744873046875 0.7896583080291748 -0.4496002197265625
v -0.30394744873046875 0.7427234649658203 -0.4496002197265625
v -0.4189910888671875 0.7896583080291748 -0.4496002197265625
v -0.30394744873046875 0.7427234649658203 -0.4496002197265625
v -0.4189910888671875 0.7427234649658203 -0.4496002197265625
v -0.4189910888671875 0.7427234649658203 -0.4496002197265625
v -0.30394744873046875 0.7427234649658203 -0.4496002197265625
v -0.30394744873046875 0.7427234649658203 0.4312896728515625
v -0.4189910888671875 0.7427234649658203 -0.4496002197265625
v -0.30394744873046875 0.7427234649658203 0.4312896728515625
v -0.4189910888671875 0.7427234649658203 0.4496002197265625
v 0.41899871826171875 0.7427234649658203 0.4496002197265625
v 0.41899871826171875 0.7427234649658203 -0.4496002197265625
v 0.41899871826171875 0.7896583080291748 -0.4496002197265625
v 0.41899871826171875 0.7427234649658203 0.4496002197265625
v 0.41899871826171875 0.7896583080291748 -0.4496002197265625
v 0.41899871826171875 0.7896583080291748 0.4496002197265625
v -0.4189910888671875 0.7427234649658203 -0.4496002197265625
v -0.4189910888671875 0.7427234649658203 0.4496002197265625
v -0.4189910888671875 0.7896583080291748 0.4496002197265625
v -0.4189910888671875 0.7427234649658203 -0.4496002197265625
v -0.4189910888671875 0.7896583080291748 0.4496002197265625
v -0.4189910888671875 0.7896583080291748 -0.4496002197265625
v -0.21021270751953125 0.7896583080291748 0.46254730224609375
v 0.41899871826171875 0.7896583080291748 0.4496002197265625
v 0.41899871826171875 0.7896583080291748 -0.4496002197265625
v -0.21021270751953125 0.7896583080291748 0.46254730224609375
v 0.41899871826171875 0.7896583080291748 -0.4496002197265625
v -0.19403076171875 0.7896583080291748 -0.4340667724609375
v -0.19403076171875 0.7427234649658203 -0.4340667724609375
v -0.19403076171875 0.7896583080291748 -0.4340667724609375
v 0.41899871826171875 0.7896583080291748 -0.4496002197265625
v -0.19403076171875 0.7427234649658203 -0.4340667724609375
v 0.41899871826171875 0.7896583080291748 -0.4496002197265625
v 0.41899871826171875 0.7427234649658203 -0.4496002197265625
v -0.21021270751953125 0.7427234649658203 0.46254730224609375
v -0.19403076171875 0.7427234649658203 -0.4340667724609375
v 0.41899871826171875 0.7427234649658203 -0.4496002197265625
v -0.21021270751953125 0.7427234649658203 0.46254730224609375
v 0.41899871826171875 0.7427234649658203 -0.4496002197265625
v 0.41899871826171875 0.7427234649658203 0.4496002197265625
v -0.21021270751953125 0.7896583080291748 0.46254730224609375
v -0.21021270751953125 0.7427234649658203 0.46254730224609375
v 0.41899871826171875 0.7427234649658203 0.4496002197265625
v -0.21021270751953125 0.7896583080291748 0.46254730224609375
v 0.41899871826171875 0.7427234649658203 0.4496002197265625
v 0.41899871826171875 0.7896583080291748 0.4496002197265625
v -0.30394744873046875 0.7896583080291748 0.4312896728515625
v -0.21021270751953125 0.7896583080291748 0.46254730224609375
v -0.19403076171875 0.7896583080291748 -0.4340667724609375
v -0.30394744873046875 0.7896583080291748 0.4312896728515625
v -0.19403076171875 0.7896583080291748 -0.4340667724609375
v -0.30394744873046875 0.7896583080291748 -0.4496002197265625
v -0.30394744873046875 0.7427234649658203 -0.4496002197265625
v -0.30394744873046875 0.7896583080291748 -0.4496002197265625
v -0.19403076171875 0.7896583080291748 -0.4340667724609375
v -0.30394744873046875 0.7427234649658203 -0.4496002197265625
v -0.19403076171875 0.7896583080291748 -0.4340667724609375
v -0.19403076171875 0.7427234649658203 -0.4340667724609375
v -0.30394744873046875 0.7427234649658203 0.4312896728515625
v -0.30394744873046875 0.7427234649658203 -0.4496002197265625
v -0.19403076171875 0.7427234649658203 -0.4340667724609375
v -0.30394744873046875 0.7427234649658203 0.4312896728515625
v -0.19403076171875 0.7427234649658203 -0.4340667724609375
v -0.21021270751953125 0.7427234649658203 0.46254730224609375
v -0.30394744873046875 0.7896583080291748 0.4312896728515625
v -0.30394744873046875 0.7427234649658203 0.4312896728515625
v -0.21021270751953125 0.7427234649658203 0.46254730224609375
v -0.30394744873046875 0.7896583080291748 0.4312896728515625
v -0.21021270751953125 0.7427234649658203 0.46254730224609375
v -0.21021270751953125 0.7896583080291748 0.46254730224609375
v -0.359222412109375 0.6571791768074036 0.385467529296875
v 0.35923004150390625 0.6571791768074036 0.385467529296875
v 0.35923004150390625 0.7427235841751099 0.385467529296875
v -0.359222412109375 0.6571791768074036 0.385467529296875
v 0.35923004150390625 0.7427235841751099 0.385467529296875
v -0.359222412109375 0.7427235841751099 0.385467529296875
v -0.359222412109375 0.7427235841751099 -0.385467529296875
v 0.35923004150390625 0.7427235841751099 -0.385467529296875
v 0.35923004150390625 0.6571791768074036 -0.385467529296875
v -0.359222412109375 0.7427235841751099 -0.385467529296875
v 0.35923004150390625 0.6571791768074036 -0.385467529296875
v -0.359222412109375 0.6571791768074036 -0.385467529296875
v -0.359222412109375 0.6571791768074036 -0.385467529296875
v 0.35923004150390625 0.6571791768074036 -0.385467529296875
v 0.35923004150390625 0.6571791768074036 0.385467529296875
v -0.359222412109375 0.6571791768074036 -0.385467529296875
v 0.35923004150390625 0.6571791768074036 0.385467529296875
v -0.359222412109375 0.6571791768074036 0.385467529296875
v 0.35923004150390625 0.6571791768074036 0.385467529296875
v 0.35923004150390625 0.6571791768074036 -0.385467529296875
v 0.35923004150390625 0.7427235841751099 -0.385467529296875
v 0.35923004150390625 0.6571791768074036 0.385467529296875
v 0.35923004150390625 0.7427235841751099 -0.385467529296875
v 0.35923004150390625 0.7427235841751099 0.385467529296875
v -0.359222412109375 0.6571791768074036 -0.385467529296875
v -0.359222412109375 0.6571791768074036 0.385467529296875
v -0.359222412109375 0.7427235841751099 0.385467529296875
v -0.359222412109375 0.6571791768074036 -0.385467529296875
v -0.359222412109375 0.7427235841751099 0.385467529296875
v -0.359222412109375 0.7427235841751099 -0.385467529296875
v -0.452056884765625 0 -0.466278076171875
v -0.40612030029296875 0.5807449221611023 -0.42432403564453125
v -0.31082916259765625 0.5807449221611023 -0.42432403564453125
v -0.452056884765625 0 -0.466278076171875
v -0.31082916259765625 0.5807449221611023 -0.42432403564453125
v -0.3567657470703125 0 -0.466278076171875
v -0.40612030029296875 0.5807449221611023 -0.32207489013671875
v -0.452056884765625 0 -0.3640289306640625
v -0.3567657470703125 0 -0.3640289306640625
v -0.40612030029296875 0.5807449221611023 -0.32207489013671875
v -0.3567657470703125 0 -0.3640289306640625
v -0.31082916259765625 0.5807449221611023 -0.32207489013671875
v -0.452056884765625 0 -0.3640289306640625
v -0.452056884765625 0 -0.466278076171875
v -0.3567657470703125 0 -0.466278076171875
v -0.452056884765625 0 -0.3640289306640625
v -0.3567657470703125 0 -0.466278076171875
v -0.3567657470703125 0 -0.3640289306640625
v -0.3567657470703125 0 -0.466278076171875
v -0.31082916259765625 0.5807449221611023 -0.42432403564453125
v -0.31082916259765625 0.5807449221611023 -0.32207489013671875
v -0.3567657470703125 0 -0.466278076171875
v -0.31082916259765625 0.5807449221611023 -0.32207489013671875
v -0.3567657470703125 0 -0.3640289306640625
v -0.452056884765625 0 -0.3640289306640625
v -0.40612030029296875 0.5807449221611023 -0.32207489013671875
v -0.40612030029296875 0.5807449221611023 -0.42432403564453125
v -0.452056884765625 0 -0.3640289306640625
v -0.40612030029296875 0.5807449221611023 -0.42432403564453125
v -0.452056884765625 0 -0.466278076171875
v -0.40612030029296875 0.5807449221611023 -0.42432403564453125
v -0.3823394775390625 0.7427235841751099 -0.41210174560546875
v -0.28704833984375 0.7427235841751099 -0.41210174560546875
v -0.40612030029296875 0.5807449221611023 -0.42432403564453125
v -0.28704833984375 0.7427235841751099 -0.41210174560546875
v -0.31082916259765625 0.5807449221611023 -0.42432403564453125
v -0.31082916259765625 0.5807449221611023 -0.32207489013671875
v -0.31082916259765625 0.5807449221611023 -0.42432403564453125
v -0.28704833984375 0.7427235841751099 -0.41210174560546875
v -0.31082916259765625 0.5807449221611023 -0.32207489013671875
v -0.28704833984375 0.7427235841751099 -0.41210174560546875
v -0.28704833984375 0.7427235841751099 -0.30985260009765625
v -0.3823394775390625 0.7427235841751099 -0.30985260009765625
v -0.40612030029296875 0.5807449221611023 -0.32207489013671875
v -0.31082916259765625 0.5807449221611023 -0.32207489013671875
v -0.3823394775390625 0.7427235841751099 -0.30985260009765625
v -0.31082916259765625 0.5807449221611023 -0.32207489013671875
v -0.28704833984375 0.7427235841751099 -0.30985260009765625
v -0.40612030029296875 0.5807449221611023 -0.42432403564453125
v -0.40612030029296875 0.5807449221611023 -0.32207489013671875
v -0.3823394775390625 0.7427235841751099 -0.30985260009765625
v -0.40612030029296875 0.5807449221611023 -0.42432403564453125
v -0.3823394775390625 0.7427235841751099 -0.30985260009765625
v -0.3823394775390625 0.7427235841751099 -0.41210174560546875
v -0.452056884765625 0 0.466278076171875
v -0.3567657470703125 0 0.466278076171875
v -0.33448028564453125 0.25388211011886597 0.4321441650390625
v -0.452056884765625 0 0.466278076171875
v -0.33448028564453125 0.25388211011886597 0.4321441650390625
v -0.42977142333984375 0.25388211011886597 0.4321441650390625
v -0.42977142333984375 0.25388211011886597 0.32988739013671875
v -0.33448028564453125 0.25388211011886597 0.32988739013671875
v -0.3567657470703125 0 0.3640289306640625
v -0.42977142333984375 0.25388211011886597 0.32988739013671875
v -0.3567657470703125 0 0.3640289306640625
v -0.452056884765625 0 0.3640289306640625
v -0.452056884765625 0 0.3640289306640625
v -0.3567657470703125 0 0.3640289306640625
v -0.3567657470703125 0 0.466278076171875
v -0.452056884765625 0 0.3640289306640625
v -0.3567657470703125 0 0.466278076171875
v -0.452056884765625 0 0.466278076171875
v -0.3567657470703125 0 0.466278076171875
v -0.3567657470703125 0 0.3640289306640625
v -0.33448028564453125 0.25388211011886597 0.32988739013671875
v -0.3567657470703125 0 0.466278076171875
v -0.33448028564453125 0.25388211011886597 0.32988739013671875
v -0.33448028564453125 0.25388211011886597 0.4321441650390625
v -0.452056884765625 0 0.3640289306640625
v -0.452056884765625 0 0.466278076171875
v -0.42977142333984375 0.25388211011886597 0.4321441650390625
v -0.452056884765625 0 0.3640289306640625
v -0.42977142333984375 0.25388211011886597 0.4321441650390625
v -0.42977142333984375 0.25388211011886597 0.32988739013671875
v -0.42977142333984375 0.25388211011886597 0.32988739013671875
v -0.42977142333984375 0.25388211011886597 0.4321441650390625
v -0.41880035400390625 0.3669208288192749 0.4275054931640625
v -0.42977142333984375 0.25388211011886597 0.32988739013671875
v -0.41880035400390625 0.3669208288192749 0.4275054931640625
v -0.4096221923828125 0.4615378975868225 0.37326812744140625
v -0.42977142333984375 0.25388211011886597 0.32988739013671875
v -0.4096221923828125 0.4615378975868225 0.37326812744140625
v -0.3912506103515625 0.6508848667144775 0.41587066650390625
v -0.42977142333984375 0.25388211011886597 0.32988739013671875
v -0.3912506103515625 0.6508848667144775 0.41587066650390625
v -0.3823394775390625 0.7427235841751099 0.41210174560546875
v -0.42977142333984375 0.25388211011886597 0.32988739013671875
v -0.3823394775390625 0.7427235841751099 0.41210174560546875
v -0.3823394775390625 0.7427235841751099 0.30985260009765625
v -0.3823394775390625 0.7427235841751099 0.30985260009765625
v -0.28704833984375 0.7427235841751099 0.30985260009765625
v -0.33448028564453125 0.25388211011886597 0.32988739013671875
v -0.3823394775390625 0.7427235841751099 0.30985260009765625
v -0.33448028564453125 0.25388211011886597 0.32988739013671875
v -0.42977142333984375 0.25388211011886597 0.32988739013671875
v -0.33448028564453125 0.25388211011886597 0.4321441650390625
v -0.33448028564453125 0.25388211011886597 0.32988739013671875
v -0.28704833984375 0.7427235841751099 0.30985260009765625
v -0.33448028564453125 0.25388211011886597 0.4321441650390625
v -0.28704833984375 0.7427235841751099 0.30985260009765625
v -0.28704833984375 0.7427235841751099 0.41210174560546875
v -0.42977142333984375 0.25388211011886597 0.4321441650390625
v -0.33448028564453125 0.25388211011886597 0.4321441650390625
v -0.28704833984375 0.7427235841751099 0.41210174560546875
v -0.42977142333984375 0.25388211011886597 0.4321441650390625
v -0.28704833984375 0.7427235841751099 0.41210174560546875
v -0.3823394775390625 0.7427235841751099 0.41210174560546875
v -0.42977142333984375 0.25388211011886597 0.4321441650390625
v -0.3823394775390625 0.7427235841751099 0.41210174560546875
v -0.3912506103515625 0.6508848667144775 0.41587066650390625
v -0.42977142333984375 0.25388211011886597 0.4321441650390625
v -0.3912506103515625 0.6508848667144775 0.41587066650390625
v -0.36559295654296875 0.48123493790626526 0.422821044921875
v -0.42977142333984375 0.25388211011886597 0.4321441650390625
v -0.36559295654296875 0.48123493790626526 0.422821044921875
v -0.41880035400390625 0.3669208288192749 0.4275054931640625
v -0.3912506103515625 0.6508848667144775 0.41587066650390625
v -0.4096221923828125 0.4615378975868225 0.37326812744140625
v -0.36559295654296875 0.48123493790626526 0.422821044921875
v -0.36559295654296875 0.48123493790626526 0.422821044921875
v -0.4096221923828125 0.4615378975868225 0.37326812744140625
v -0.41880035400390625 0.3669208288192749 0.4275054931640625
v 0.43106842041015625 0.22395148873329163 -0.43822479248046875
v 0.33577728271484375 0.22395148873329163 -0.43822479248046875
v 0.28704833984375 0.7427235841751099 -0.41210174560546875
v 0.43106842041015625 0.22395148873329163 -0.43822479248046875
v 0.28704833984375 0.7427235841751099 -0.41210174560546875
v 0.38234710693359375 0.7427235841751099 -0.41210174560546875
v 0.43106842041015625 0.22395148873329163 -0.43822479248046875
v 0.38234710693359375 0.7427235841751099 -0.41210174560546875
v 0.42502593994140625 0.4370332360267639 -0.40252685546875
v 0.43106842041015625 0.22395148873329163 -0.43822479248046875
v 0.42502593994140625 0.4370332360267639 -0.40252685546875
v 0.39361572265625 0.2747174799442291 -0.43566131591796875
v 0.38234710693359375 0.7427235841751099 -0.30985260009765625
v 0.28704833984375 0.7427235841751099 -0.30985260009765625
v 0.33577728271484375 0.22395148873329163 -0.33597564697265625
v 0.38234710693359375 0.7427235841751099 -0.30985260009765625
v 0.33577728271484375 0.22395148873329163 -0.33597564697265625
v 0.43106842041015625 0.22395148873329163 -0.33597564697265625
v 0.452056884765625 0 -0.3640289306640625
v 0.3567657470703125 0 -0.3640289306640625
v 0.3567657470703125 0 -0.466278076171875
v 0.452056884765625 0 -0.3640289306640625
v 0.3567657470703125 0 -0.466278076171875
v 0.452056884765625 0 -0.466278076171875
v 0.33577728271484375 0.22395148873329163 -0.43822479248046875
v 0.33577728271484375 0.22395148873329163 -0.33597564697265625
v 0.28704833984375 0.7427235841751099 -0.30985260009765625
v 0.33577728271484375 0.22395148873329163 -0.43822479248046875
v 0.28704833984375 0.7427235841751099 -0.30985260009765625
v 0.28704833984375 0.7427235841751099 -0.41210174560546875
v 0.43106842041015625 0.22395148873329163 -0.33597564697265625
v 0.43106842041015625 0.22395148873329163 -0.43822479248046875
v 0.42645263671875 0.27311041951179504 -0.39945220947265625
v 0.43106842041015625 0.22395148873329163 -0.33597564697265625
v 0.42645263671875 0.27311041951179504 -0.39945220947265625
v 0.42502593994140625 0.4370332360267639 -0.40252685546875
v 0.43106842041015625 0.22395148873329163 -0.33597564697265625
v 0.42502593994140625 0.4370332360267639 -0.40252685546875
v 0.38234710693359375 0.7427235841751099 -0.41210174560546875
v 0.43106842041015625 0.22395148873329163 -0.33597564697265625
v 0.38234710693359375 0.7427235841751099 -0.41210174560546875
v 0.38234710693359375 0.7427235841751099 -0.30985260009765625
v 0.452056884765625 0 -0.3640289306640625
v 0.452056884765625 0 -0.466278076171875
v 0.43106842041015625 0.22395148873329163 -0.43822479248046875
v 0.452056884765625 0 -0.3640289306640625
v 0.43106842041015625 0.22395148873329163 -0.43822479248046875
v 0.43106842041015625 0.22395148873329163 -0.33597564697265625
v 0.452056884765625 0 -0.466278076171875
v 0.3567657470703125 0 -0.466278076171875
v 0.33577728271484375 0.22395148873329163 -0.43822479248046875
v 0.452056884765625 0 -0.466278076171875
v 0.33577728271484375 0.22395148873329163 -0.43822479248046875
v 0.43106842041015625 0.22395148873329163 -0.43822479248046875
v 0.3567657470703125 0 -0.466278076171875
v 0.3567657470703125 0 -0.3640289306640625
v 0.33577728271484375 0.22395148873329163 -0.33597564697265625
v 0.3567657470703125 0 -0.466278076171875
v 0.33577728271484375 0.22395148873329163 -0.33597564697265625
v 0.33577728271484375 0.22395148873329163 -0.43822479248046875
v 0.43106842041015625 0.22395148873329163 -0.33597564697265625
v 0.33577728271484375 0.22395148873329163 -0.33597564697265625
v 0.3567657470703125 0 -0.3640289306640625
v 0.43106842041015625 0.22395148873329163 -0.33597564697265625
v 0.3567657470703125 0 -0.3640289306640625
v 0.452056884765625 0 -0.3640289306640625
v 0.42645263671875 0.27311041951179504 -0.39945220947265625
v 0.39361572265625 0.2747174799442291 -0.43566131591796875
v 0.42502593994140625 0.4370332360267639 -0.40252685546875
v 0.43106842041015625 0.22395148873329163 -0.43822479248046875
v 0.39361572265625 0.2747174799442291 -0.43566131591796875
v 0.42645263671875 0.27311041951179504 -0.39945220947265625
v 0.401275634765625 0 0.466278076171875
v 0.43364715576171875 0.25180697441101074 0.4478607177734375
v 0.41327667236328125 0.5303164720535278 0.427490234375
v 0.401275634765625 0 0.466278076171875
v 0.41327667236328125 0.5303164720535278 0.427490234375
v 0.3179931640625 0.5303164720535278 0.427490234375
v 0.401275634765625 0 0.466278076171875
v 0.3179931640625 0.5303164720535278 0.427490234375
v 0.3567657470703125 0 0.466278076171875
v 0.41327667236328125 0.5303164720535278 0.32523345947265625
v 0.452056884765625 0 0.3640289306640625
v 0.3567657470703125 0 0.3640289306640625
v 0.41327667236328125 0.5303164720535278 0.32523345947265625
v 0.3567657470703125 0 0.3640289306640625
v 0.3179931640625 0.5303164720535278 0.32523345947265625
v 0.452056884765625 0 0.3640289306640625
v 0.452056884765625 0 0.42043304443359375
v 0.43637847900390625 0 0.44541168212890625
v 0.452056884765625 0 0.3640289306640625
v 0.43637847900390625 0 0.44541168212890625
v 0.401275634765625 0 0.466278076171875
v 0.452056884765625 0 0.3640289306640625
v 0.401275634765625 0 0.466278076171875
v 0.3567657470703125 0 0.466278076171875
v 0.452056884765625 0 0.3640289306640625
v 0.3567657470703125 0 0.466278076171875
v 0.3567657470703125 0 0.3640289306640625
v 0.3567657470703125 0 0.466278076171875
v 0.3179931640625 0.5303164720535278 0.427490234375
v 0.3179931640625 0.5303164720535278 0.32523345947265625
v 0.3567657470703125 0 0.466278076171875
v 0.3179931640625 0.5303164720535278 0.32523345947265625
v 0.3567657470703125 0 0.3640289306640625
v 0.452056884765625 0 0.3640289306640625
v 0.41327667236328125 0.5303164720535278 0.32523345947265625
v 0.41327667236328125 0.5303164720535278 0.427490234375
v 0.452056884765625 0 0.3640289306640625
v 0.41327667236328125 0.5303164720535278 0.427490234375
v 0.43364715576171875 0.25180697441101074 0.4478607177734375
v 0.452056884765625 0 0.3640289306640625
v 0.43364715576171875 0.25180697441101074 0.4478607177734375
v 0.452056884765625 0 0.42043304443359375
v 0.3179931640625 0.5303164720535278 0.427490234375
v 0.28704833984375 0.7427235841751099 0.41210174560546875
v 0.28704833984375 0.7427235841751099 0.30985260009765625
v 0.3179931640625 0.5303164720535278 0.427490234375
v 0.28704833984375 0.7427235841751099 0.30985260009765625
v 0.3179931640625 0.5303164720535278 0.32523345947265625
v 0.38234710693359375 0.7427235841751099 0.30985260009765625
v 0.41327667236328125 0.5303164720535278 0.32523345947265625
v 0.3179931640625 0.5303164720535278 0.32523345947265625
v 0.38234710693359375 0.7427235841751099 0.30985260009765625
v 0.3179931640625 0.5303164720535278 0.32523345947265625
v 0.28704833984375 0.7427235841751099 0.30985260009765625
v 0.41327667236328125 0.5303164720535278 0.427490234375
v 0.41327667236328125 0.5303164720535278 0.32523345947265625
v 0.38234710693359375 0.7427235841751099 0.30985260009765625
v 0.41327667236328125 0.5303164720535278 0.427490234375
v 0.38234710693359375 0.7427235841751099 0.30985260009765625
v 0.38234710693359375 0.7427235841751099 0.41210174560546875
v 0.3179931640625 0.5303164720535278 0.427490234375
v 0.41327667236328125 0.5303164720535278 0.427490234375
v 0.38234710693359375 0.7427235841751099 0.41210174560546875
v 0.3179931640625 0.5303164720535278 0.427490234375
v 0.38234710693359375 0.7427235841751099 0.41210174560546875
v 0.28704833984375 0.7427235841751099 0.41210174560546875
v 0.43637847900390625 0 0.44541168212890625
v 0.43364715576171875 0.25180697441101074 0.4478607177734375
v 0.401275634765625 0 0.466278076171875
v 0.452056884765625 0 0.42043304443359375
v 0.43364715576171875 0.25180697441101074 0.4478607177734375
v 0.43637847900390625 0 0.44541168212890625
vn 0.15718351304531097 0 0.9875693917274475
vn 0.15718351304531097 0 0.9875693917274475
vn 0.15718351304531097 0 0.9875693917274475
vn 0.15718351304531097 0 0.9875693917274475
vn 0.15718351304531097 0 0.9875693917274475
vn 0.15718351304531097 0 0.9875693917274475
vn 0 1 0
vn 0 1 0
vn 0 1 0
vn 0 1 0
vn 0 1 0
vn 0 1 0
vn 0 0 -1
vn 0 0 -1
vn 0 0 -1
vn 0 0 -1
vn 0 0 -1
vn 0 0 -1
vn 0 -1 0
vn 0 -1 0
vn 0 -1 0
vn 0 -1 0
vn 0 -1 0
vn 0 -1 0
vn 1 0 0
vn 1 0 0
vn 1 0 0
vn 1 0 0
vn 1 0 0
vn 1 0 0
vn -1 0 0
vn -1 0 0
vn -1 0 0
vn -1 0 0
vn -1 0 0
vn -1 0 0
vn 0 1 2.672406651527126e-8
vn 0 1 2.672406651527126e-8
vn 0 1 2.672407006798494e-8
vn 0 1 2.672406651527126e-8
vn 0 1 2.672407006798494e-8
vn 0 1 2.672406651527126e-8
vn -0.025330688804388046 0 -0.9996791481971741
vn -0.025330688804388046 0 -0.9996791481971741
vn -0.025330688804388046 0 -0.9996791481971741
vn -0.025330688804388046 0 -0.9996791481971741
vn -0.025330688804388046 0 -0.9996791481971741
vn -0.025330688804388046 0 -0.9996791481971741
vn 0 -1 0
vn 0 -1 0
vn 0 -1 0
vn 0 -1 0
vn 0 -1 0
vn 0 -1 0
vn 0.02057233639061451 0 0.9997883439064026
vn 0.02057233639061451 0 0.9997883439064026
vn 0.02057233639061451 0 0.9997883439064026
vn 0.02057233639061451 0 0.9997883439064026
vn 0.02057233639061451 0 0.9997883439064026
vn 0.02057233639061451 0 0.9997883439064026
vn 0 1 0
vn 0 1 0
vn 0 1 0
vn 0 1 0
vn 0 1 0
vn 0 1 0
vn 0.13992974162101746 0 -0.9901614189147949
vn 0.13992974162101746 0 -0.9901614189147949
vn 0.13992974162101746 0 -0.9901614189147949
vn 0.13992974162101746 0 -0.9901614189147949
vn 0.13992974162101746 0 -0.9901614189147949
vn 0.13992974162101746 0 -0.9901614189147949
vn 0 -1 0
vn 0 -1 0
vn 0 -1 0
vn 0 -1 0
vn 0 -1 0
vn 0 -1 0
vn -0.316343754529953 0 0.9486446380615234
vn -0.316343754529953 0 0.9486446380615234
vn -0.316343754529953 0 0.9486446380615234
vn -0.316343754529953 0 0.9486446380615234
vn -0.316343754529953 0 0.9486446380615234
vn -0.316343754529953 0 0.9486446380615234
vn 0 0 1
vn 0 0 1
vn 0 0 1
vn 0 0 1
vn 0 0 1
vn 0 0 1
vn 0 0 -1
vn 0 0 -1
vn 0 0 -1
vn 0 0 -1
vn 0 0 -1
vn 0 0 -1
vn 0 -1 0
vn 0 -1 0
vn 0 -1 0
vn 0 -1 0
vn 0 -1 0
vn 0 -1 0
vn 1 0 0
vn 1 0 0
vn 1 0 0
vn 1 0 0
vn 1 0 0
vn 1 0 0
vn -1 0 0
vn -1 0 0
vn -1 0 0
vn -1 0 0
vn -1 0 0
vn -1 0 0
vn 0 0.07205397635698318 -0.9974007606506348
vn 0 0.07205397635698318 -0.9974007606506348
vn 0 0.07205397635698318 -0.9974007606506348
vn 0 0.07205397635698318 -0.9974007606506348
vn 0 0.07205397635698318 -0.9974007606506348
vn 0 0.07205397635698318 -0.9974007606506348
vn 0 -0.07205396890640259 0.9974007606506348
vn 0 -0.07205397635698318 0.9974007606506348
vn 0 -0.07205396890640259 0.9974007606506348
vn 0 -0.07205396890640259 0.9974007606506348
vn 0 -0.07205396890640259 0.9974007606506348
vn 0 -0.07205397635698318 0.9974007606506348
vn 0 -1 0
vn 0 -1 0
vn 0 -1 0
vn 0 -1 0
vn 0 -1 0
vn 0 -1 0
vn 0.9968862533569336 -0.07885312288999557 0
vn 0.9968862533569336 -0.07885313034057617 0
vn 0.9968862533569336 -0.07885312288999557 0
vn 0.9968862533569336 -0.07885312288999557 0
vn 0.9968862533569336 -0.07885312288999557 0
vn 0.9968862533569336 -0.07885313034057617 0
vn -0.9968862533569336 0.07885313034057617 0
vn -0.9968862533569336 0.07885312288999557 0
vn -0.9968862533569336 0.07885313034057617 0
vn -0.9968862533569336 0.07885313034057617 0
vn -0.9968862533569336 0.07885313034057617 0
vn -0.9968862533569336 0.07885312288999557 0
vn 0 0.0752422884106636 -0.9971652626991272
vn 0 0.0752422884106636 -0.9971652626991272
vn 0 0.0752422884106636 -0.9971652626991272
vn 0 0.0752422884106636 -0.9971652626991272
vn 0 0.0752422884106636 -0.9971652626991272
vn 0 0.0752422884106636 -0.9971652626991272
vn 0.9893938899040222 -0.14525732398033142 0
vn 0.9893938899040222 -0.14525730907917023 0
vn 0.9893938899040222 -0.14525732398033142 0
vn 0.9893938899040222 -0.14525732398033142 0
vn 0.9893938899040222 -0.14525732398033142 0
vn 0.9893938899040222 -0.14525730907917023 0
vn 0 -0.07524228096008301 0.9971652626991272
vn 0 -0.0752422884106636 0.9971652626991272
vn 0 -0.07524228096008301 0.9971652626991272
vn 0 -0.07524228096008301 0.9971652626991272
vn 0 -0.07524228096008301 0.9971652626991272
vn 0 -0.0752422884106636 0.9971652626991272
vn -0.9893938899040222 0.14525726437568665 0
vn -0.9893938899040222 0.14525727927684784 0
vn -0.9893938899040222 0.14525726437568665 0
vn -0.9893938899040222 0.14525726437568665 0
vn -0.9893938899040222 0.14525726437568665 0
vn -0.9893938899040222 0.14525727927684784 0
vn 0 0.1332489401102066 0.9910826086997986
vn 0 0.1332489550113678 0.9910826086997986
vn 0 0.1332489401102066 0.9910826086997986
vn 0 0.1332489401102066 0.9910826086997986
vn 0 0.1332489401102066 0.9910826086997986
vn 0 0.1332489550113678 0.9910826086997986
vn 0 -0.13327819108963013 -0.9910786747932434
vn 0 -0.13327819108963013 -0.9910786747932434
vn 0 -0.13327819108963013 -0.9910786747932434
vn 0 -0.13327819108963013 -0.9910786747932434
vn 0 -0.13327819108963013 -0.9910786747932434
vn 0 -0.13327819108963013 -0.9910786747932434
vn 0 -1 0
vn 0 -1 0
vn 0 -1 0
vn 0 -1 0
vn 0 -1 0
vn 0 -1 0
vn 0.9961695671081543 -0.08744260668754578 0
vn 0.9961695671081543 -0.08744260668754578 0
vn 0.9961695671081543 -0.08744261413812637 0
vn 0.9961695671081543 -0.08744260668754578 0
vn 0.9961695671081543 -0.08744261413812637 0
vn 0.9961695671081543 -0.08744260668754578 0
vn -0.9961695671081543 0.08744246512651443 0
vn -0.9961695671081543 0.08744246512651443 0
vn -0.9961695671081543 0.08744246512651443 0
vn -0.9961695671081543 0.08744246512651443 0
vn -0.9961695671081543 0.08744246512651443 0
vn -0.9961695671081543 0.08744248002767563 0
vn -0.9953254461288452 0.09657800942659378 0.000008742739737499505
vn -0.9953254461288452 0.09657800197601318 0.000008742740646994207
vn -0.9953254461288452 0.09657799452543259 0.000008742740646994207
vn -0.9953254461288452 0.09657800942659378 0.000008742739737499505
vn -0.9953254461288452 0.09657799452543259 0.000008742740646994207
vn -0.9953254461288452 0.09657799452543259 0.000008742740646994207
vn -0.9953254461288452 0.09657800942659378 0.000008742739737499505
vn -0.9953254461288452 0.09657799452543259 0.000008742740646994207
vn -0.9953254461288452 0.09657797962427139 0.000008742739737499505
vn -0.9953254461288452 0.09657800942659378 0.000008742739737499505
vn -0.9953254461288452 0.09657797962427139 0.000008742739737499505
vn -0.9953254461288452 0.09657800197601318 0.000008742739737499505
vn -0.9953254461288452 0.09657800942659378 0.000008742739737499505
vn -0.9953254461288452 0.09657800197601318 0.000008742739737499505
vn -0.9953254461288452 0.09657800197601318 0.000008742739737499505
vn 0 -0.04094985872507095 -0.9991611838340759
vn 0 -0.04094985872507095 -0.9991611838340759
vn 0 -0.04094985872507095 -0.9991611838340759
vn 0 -0.04094985872507095 -0.9991611838340759
vn 0 -0.04094985872507095 -0.9991611838340759
vn 0 -0.04094985872507095 -0.9991611838340759
vn 0.9953256249427795 -0.09657567739486694 0
vn 0.9953256249427795 -0.09657567739486694 0
vn 0.9953256249427795 -0.09657566994428635 0
vn 0.9953256249427795 -0.09657567739486694 0
vn 0.9953256249427795 -0.09657566994428635 0
vn 0.9953256249427795 -0.09657566994428635 0
vn -0.000005683832569047809 0.04096995294094086 0.9991603493690491
vn -0.000005683832114300458 0.04096995294094086 0.9991603493690491
vn -0.0000056838330237951595 0.040969960391521454 0.9991603493690491
vn -0.000005683832569047809 0.04096995294094086 0.9991603493690491
vn -0.0000056838330237951595 0.040969960391521454 0.9991603493690491
vn -0.000005683832114300458 0.04096995294094086 0.9991603493690491
vn -0.000005683832569047809 0.04096995294094086 0.9991603493690491
vn -0.000005683832114300458 0.04096995294094086 0.9991603493690491
vn -0.000005683832569047809 0.04096995294094086 0.9991603493690491
vn -0.000005683832569047809 0.04096995294094086 0.9991603493690491
vn -0.000005683832569047809 0.04096995294094086 0.9991603493690491
vn -0.000005683831659553107 0.04096994921565056 0.9991603493690491
vn -0.000005683832569047809 0.04096995294094086 0.9991603493690491
vn -0.000005683831659553107 0.04096994921565056 0.9991603493690491
vn -0.0000056838330237951595 0.04096995294094086 0.9991603493690491
vn -0.7285333871841431 -0.08232171088457108 0.6800457835197449
vn -0.7285333871841431 -0.08232172578573227 0.6800457835197449
vn -0.7285333871841431 -0.08232171833515167 0.6800457835197449
vn -0.7618171572685242 0.376197874546051 0.5273610949516296
vn -0.7618171572685242 0.376197874546051 0.5273610949516296
vn -0.761817216873169 0.3761979043483734 0.5273610949516296
vn 0.11772023141384125 0.05276927724480629 -0.9916437864303589
vn 0.11772024631500244 0.05276928097009659 -0.9916437864303589
vn 0.11772023886442184 0.05276927351951599 -0.9916437864303589
vn 0.11772023141384125 0.05276927724480629 -0.9916437864303589
vn 0.11772023886442184 0.05276927351951599 -0.9916437864303589
vn 0.11772024631500244 0.05276927724480629 -0.9916437864303589
vn 0.11772023141384125 0.05276927724480629 -0.9916437864303589
vn 0.11772024631500244 0.05276927724480629 -0.9916437864303589
vn 0.11772023886442184 0.05276928097009659 -0.9916437864303589
vn 0.11772023141384125 0.05276927724480629 -0.9916437864303589
vn 0.11772023886442184 0.05276928097009659 -0.9916437864303589
vn 0.11772024631500244 0.05276928097009659 -0.9916437864303589
vn 0 -0.050291821360588074 0.9987345933914185
vn 0 -0.05029181018471718 0.9987345933914185
vn 0 -0.05029181391000748 0.9987345933914185
vn 0 -0.050291821360588074 0.9987345933914185
vn 0 -0.05029181391000748 0.9987345933914185
vn 0 -0.050291817635297775 0.9987345933914185
vn 0 -1 0
vn 0 -1 0
vn 0 -1 0
vn 0 -1 0
vn 0 -1 0
vn 0 -1 0
vn -0.9956174492835999 -0.09351957589387894 0
vn -0.9956174492835999 -0.09351956844329834 0
vn -0.9956174492835999 -0.09351957589387894 0
vn -0.9956174492835999 -0.09351957589387894 0
vn -0.9956174492835999 -0.09351957589387894 0
vn -0.9956174492835999 -0.09351956844329834 0
vn 0.9926113486289978 0.09524711221456528 0.07517149299383163
vn 0.9926113486289978 0.09524711221456528 0.07517149299383163
vn 0.9926113486289978 0.09524711221456528 0.07517150044441223
vn 0.9926113486289978 0.09524711221456528 0.07517149299383163
vn 0.9926113486289978 0.09524711221456528 0.07517150044441223
vn 0.9926113486289978 0.09524711221456528 0.07517149299383163
vn 0.9926113486289978 0.09524711221456528 0.07517149299383163
vn 0.9926113486289978 0.09524711221456528 0.07517149299383163
vn 0.9926113486289978 0.09524711966514587 0.07517148554325104
vn 0.9926113486289978 0.09524711221456528 0.07517149299383163
vn 0.9926113486289978 0.09524711966514587 0.07517148554325104
vn 0.9926113486289978 0.09524711221456528 0.07517149299383163
vn 0.9956371188163757 0.09330978244543076 0
vn 0.9956371188163757 0.09330977499485016 0
vn 0.9956371188163757 0.09330978244543076 0
vn 0.9956371188163757 0.09330978244543076 0
vn 0.9956371188163757 0.09330978244543076 0
vn 0.9956371188163757 0.09330977499485016 0
vn 0 0.12429363280534744 -0.9922454953193665
vn 0 0.12429363280534744 -0.9922454953193665
vn 0 0.12429363280534744 -0.9922454953193665
vn 0 0.12429363280534744 -0.9922454953193665
vn 0 0.12429363280534744 -0.9922454953193665
vn 0 0.12429363280534744 -0.9922454953193665
vn -0.9956371188163757 -0.09330993890762329 0
vn -0.9956371188163757 -0.09330994635820389 0
vn -0.9956371188163757 -0.09330993890762329 0
vn -0.9956371188163757 -0.09330993890762329 0
vn -0.9956371188163757 -0.09330993890762329 0
vn -0.9956371188163757 -0.09330994635820389 0
vn 0 -0.12429363280534744 0.9922454953193665
vn 0 -0.12429363280534744 0.9922454953193665
vn 0 -0.12429363280534744 0.9922454953193665
vn 0 -0.12429363280534744 0.9922454953193665
vn 0 -0.12429363280534744 0.9922454953193665
vn 0 -0.12429363280534744 0.9922454953193665
vn 0.7406086325645447 -0.006156999617815018 -0.6719083786010742
vn 0.7406087517738342 -0.006157000083476305 -0.6719083189964294
vn 0.7406086921691895 -0.006156999617815018 -0.6719083189964294
vn 0.6493124961853027 0.5076273679733276 -0.566310703754425
vn 0.6493124961853027 0.5076273083686829 -0.5663106441497803
vn 0.6493124961853027 0.5076273679733276 -0.566310703754425
vn 0 0.07294607162475586 0.9973359107971191
vn 0 0.07294606417417526 0.9973359107971191
vn 0 0.07294605672359467 0.9973359107971191
vn 0 0.07294607162475586 0.9973359107971191
vn 0 0.07294605672359467 0.9973359107971191
vn 0 0.07294605672359467 0.9973359107971191
vn 0 0.07294607162475586 0.9973359107971191
vn 0 0.07294605672359467 0.9973359107971191
vn 0 0.07294606417417526 0.9973359107971191
vn 0 -0.07296033948659897 -0.9973348379135132
vn 0 -0.07296033948659897 -0.9973348379135132
vn 0 -0.07296033203601837 -0.9973348379135132
vn 0 -0.07296033948659897 -0.9973348379135132
vn 0 -0.07296033203601837 -0.9973348379135132
vn 0 -0.07296033948659897 -0.9973348379135132
vn 0 -1 0
vn 0 -1 0
vn 0 -1 0
vn 0 -1 0
vn 0 -1 0
vn 0 -1 0
vn 0 -1 0
vn 0 -1 0
vn 0 -1 0
vn 0 -1 0
vn 0 -1 0
vn 0 -1 0
vn -0.9973379969596863 -0.07291752099990845 0
vn -0.9973379969596863 -0.07291751354932785 0
vn -0.9973379969596863 -0.07291751354932785 0
vn -0.9973379969596863 -0.07291752099990845 0
vn -0.9973379969596863 -0.07291751354932785 0
vn -0.9973379969596863 -0.07291751354932785 0
vn 0.9973369240760803 0.07293208688497543 -0.000022073587388149463
vn 0.9973369240760803 0.07293208688497543 -0.000022073589207138866
vn 0.9973369240760803 0.07293209433555603 -0.000022073589207138866
vn 0.9973369240760803 0.07293208688497543 -0.000022073587388149463
vn 0.9973369240760803 0.07293209433555603 -0.000022073589207138866
vn 0.9973369240760803 0.07293208688497543 -0.000022073587388149463
vn 0.9973369240760803 0.07293208688497543 -0.000022073587388149463
vn 0.9973369240760803 0.07293208688497543 -0.000022073587388149463
vn 0.9973369240760803 0.07293208688497543 -0.000022073587388149463
vn -0.989553689956665 -0.14416462182998657 0
vn -0.9895537495613098 -0.14416459202766418 0
vn -0.9895537495613098 -0.14416460692882538 0
vn -0.989553689956665 -0.14416462182998657 0
vn -0.9895537495613098 -0.14416460692882538 0
vn -0.9895537495613098 -0.14416460692882538 0
vn 0 -0.07222305983304977 -0.997388482093811
vn 0 -0.07222305983304977 -0.997388482093811
vn 0 -0.07222306728363037 -0.997388482093811
vn 0 -0.07222305983304977 -0.997388482093811
vn 0 -0.07222306728363037 -0.997388482093811
vn 0 -0.07222305983304977 -0.997388482093811
vn 0.9895638823509216 0.1440950334072113 0
vn 0.9895638823509216 0.1440950334072113 0
vn 0.9895638823509216 0.14409500360488892 0
vn 0.9895638823509216 0.1440950334072113 0
vn 0.9895638823509216 0.14409500360488892 0
vn 0.9895638823509216 0.14409500360488892 0
vn 0 0.07225872576236725 0.9973859190940857
vn 0 0.07225872576236725 0.9973859190940857
vn 0 0.07225871831178665 0.9973859190940857
vn 0 0.07225872576236725 0.9973859190940857
vn 0 0.07225871831178665 0.9973859190940857
vn 0 0.07225872576236725 0.9973859190940857
vn 0.510972261428833 -0.002817984437569976 0.8595925569534302
vn 0.5109723210334778 -0.002817984204739332 0.8595925569534302
vn 0.510972261428833 -0.0028179839719086885 0.8595925569534302
vn 0.8469725251197815 0.004016639199107885 0.5316214561462402
vn 0.8469725847244263 0.004016639199107885 0.5316214561462402
vn 0.8469725251197815 0.004016639199107885 0.5316214561462402
vt 0.9933059215545654 0.4507867097854614
vt 0.9933059215545654 0.4507867097854614
vt 0.9933059215545654 0.4507867097854614
vt 0.9933059215545654 0.4507867097854614
vt 0.9933059215545654 0.4507867097854614
vt 0.9933059215545654 0.4507867097854614
vt 0.9933059215545654 0.4507867097854614
vt 0.9933059215545654 0.4507867097854614
vt 0.9933059215545654 0.4507867097854614
vt 0.9933059215545654 0.4507867097854614
vt 0.9933059215545654 0.4507867097854614
vt 0.9933059215545654 0.4507867097854614
vt 0.9933059215545654 0.4507867097854614
vt 0.9933059215545654 0.4507867097854614
vt 0.9933059215545654 0.4507867097854614
vt 0.9933059215545654 0.4507867097854614
vt 0.9933059215545654 0.4507867097854614
vt 0.9933059215545654 0.4507867097854614
vt 0.9933059215545654 0.4507867097854614
vt 0.9933059215545654 0.4507867097854614
vt 0.9933059215545654 0.45078665018081665
vt 0.9933059215545654 0.4507867097854614
vt 0.9933059215545654 0.45078665018081665
vt 0.9933059215545654 0.45078665018081665
vt 0.9933059215545654 0.4507867097854614
vt 0.9933059215545654 0.4507867097854614
vt 0.9933059215545654 0.4507867097854614
vt 0.9933059215545654 0.4507867097854614
vt 0.9933059215545654 0.4507867097854614
vt 0.9933059215545654 0.4507867097854614
vt 0.9933059215545654 0.4507867097854614
vt 0.9933059215545654 0.4507867097854614
vt 0.9933059215545654 0.4507867097854614
vt 0.9933059215545654 0.4507867097854614
vt 0.9933059215545654 0.4507867097854614
vt 0.9933059215545654 0.4507867097854614
vt 0.9933059215545654 0.4507867097854614
vt 0.9933059215545654 0.4507867097854614
vt 0.9933059215545654 0.4507867097854614
vt 0.9933059215545654 0.4507867097854614
vt 0.9933059215545654 0.4507867097854614
vt 0.9933059215545654 0.4507867097854614
vt 0.9933059215545654 0.4507867097854614
vt 0.9933059215545654 0.4507867097854614
vt 0.9933059215545654 0.4507867097854614
vt 0.9933059215545654 0.4507867097854614
vt 0.9933059215545654 0.4507867097854614
vt 0.9933059215545654 0.4507867097854614
vt 0.9933059215545654 0.45078665018081665
vt 0.9933059215545654 0.4507867097854614
vt 0.9933059215545654 0.4507867097854614
vt 0.9933059215545654 0.45078665018081665
vt 0.9933059215545654 0.4507867097854614
vt 0.9933059215545654 0.45078665018081665
vt 0.9933059215545654 0.4507867097854614
vt 0.9933059215545654 0.4507867097854614
vt 0.9933059215545654 0.4507867097854614
vt 0.9933059215545654 0.4507867097854614
vt 0.9933059215545654 0.4507867097854614
vt 0.9933059215545654 0.4507867097854614
vt 0.9933059215545654 0.4507867097854614
vt 0.9933059215545654 0.4507867097854614
vt 0.9933059215545654 0.4507867097854614
vt 0.9933059215545654 0.4507867097854614
vt 0.9933059215545654 0.4507867097854614
vt 0.9933059215545654 0.4507867097854614
vt 0.9933059215545654 0.4507867097854614
vt 0.9933059215545654 0.4507867097854614
vt 0.9933059215545654 0.4507867097854614
vt 0.9933059215545654 0.4507867097854614
vt 0.9933059215545654 0.4507867097854614
vt 0.9933059215545654 0.4507867097854614
vt 0.9933059215545654 0.45078665018081665
vt 0.9933059215545654 0.4507867097854614
vt 0.9933059215545654 0.4507867097854614
vt 0.9933059215545654 0.45078665018081665
vt 0.9933059215545654 0.4507867097854614
vt 0.9933059215545654 0.45078665018081665
vt 0.9933059215545654 0.4507867097854614
vt 0.9933059215545654 0.4507867097854614
vt 0.9933059215545654 0.4507867097854614
vt 0.9933059215545654 0.4507867097854614
vt 0.9933059215545654 0.4507867097854614
vt 0.9933059215545654 0.4507867097854614
vt 0.9933059215545654 0.4507867097854614
vt 0.9933059215545654 0.4507867097854614
vt 0.9933059215545654 0.4507867097854614
vt 0.9933059215545654 0.4507867097854614
vt 0.9933059215545654 0.4507867097854614
vt 0.9933059215545654 0.4507867097854614
vt 0.9933059215545654 0.4507867097854614
vt 0.9933059215545654 0.4507867097854614
vt 0.9933059215545654 0.4507867097854614
vt 0.9933059215545654 0.4507867097854614
vt 0.9933059215545654 0.4507867097854614
vt 0.9933059215545654 0.4507867097854614
vt 0.9933059215545654 0.4507867097854614
vt 0.9933059215545654 0.4507867097854614
vt 0.9933059215545654 0.45078665018081665
vt 0.9933059215545654 0.4507867097854614
vt 0.9933059215545654 0.45078665018081665
vt 0.9933059215545654 0.45078665018081665
vt 0.9933059215545654 0.4507867097854614
vt 0.9933059215545654 0.4507867097854614
vt 0.9933059215545654 0.4507867097854614
vt 0.9933059215545654 0.4507867097854614
vt 0.9933059215545654 0.4507867097854614
vt 0.9933059215545654 0.4507867097854614
vt 0.9933059215545654 0.4507867097854614
vt 0.9933059215545654 0.4507867097854614
vt 0.9933059215545654 0.4507867097854614
vt 0.9933059215545654 0.4507867097854614
vt 0.9933059215545654 0.4507867097854614
vt 0.9933059215545654 0.4507867097854614
vt 0.9933059215545654 0.4507867097854614
vt 0.9933059215545654 0.4507867097854614
vt 0.9933059215545654 0.4507867097854614
vt 0.9933059215545654 0.4507867097854614
vt 0.9933059215545654 0.4507867097854614
vt 0.9933059215545654 0.4507867097854614
vt 0.9933059215545654 0.4507867097854614
vt 0.9933059215545654 0.4507867097854614
vt 0.9933059215545654 0.4507867097854614
vt 0.9933059215545654 0.4507867097854614
vt 0.9933059215545654 0.4507867097854614
vt 0.9933059215545654 0.4507867097854614
vt 0.9933059215545654 0.4507867097854614
vt 0.9933059215545654 0.45078665018081665
vt 0.9933059215545654 0.45078665018081665
vt 0.9933059215545654 0.4507867097854614
vt 0.9933059215545654 0.45078665018081665
vt 0.9933059215545654 0.4507867097854614
vt 0.9933059215545654 0.4507867097854614
vt 0.9933059215545654 0.4507867097854614
vt 0.9933059215545654 0.4507867097854614
vt 0.9933059215545654 0.4507867097854614
vt 0.9933059215545654 0.4507867097854614
vt 0.9933059215545654 0.4507867097854614
vt 0.9933059215545654 0.4507867097854614
vt 0.9933059215545654 0.4507867097854614
vt 0.9933059215545654 0.4507867097854614
vt 0.9933059215545654 0.4507867097854614
vt 0.9933059215545654 0.4507867097854614
vt 0.9933059215545654 0.4507867097854614
vt 0.9933059215545654 0.4507867097854614
vt 0.9933059215545654 0.4507867097854614
vt 0.9933059215545654 0.4507867097854614
vt 0.9933059215545654 0.4507867097854614
vt 0.9933059215545654 0.4507867097854614
vt 0.9933059215545654 0.4507867097854614
vt 0.9933059215545654 0.4507867097854614
vt 0.9933059215545654 0.4507867097854614
vt 0.9933059215545654 0.4507867097854614
vt 0.9933059215545654 0.4507867097854614
vt 0.9933059215545654 0.4507867097854614
vt 0.9933059215545654 0.4507867097854614
vt 0.9933059215545654 0.4507867097854614
vt 0.9933059215545654 0.4507867097854614
vt 0.9933059215545654 0.4507867097854614
vt 0.9933059215545654 0.4507867097854614
vt 0.9933059215545654 0.4507867097854614
vt 0.9933059215545654 0.4507867097854614
vt 0.9933059215545654 0.4507867097854614
vt 0.9933059215545654 0.4507867097854614
vt 0.9933059215545654 0.4507867097854614
vt 0.9933059215545654 0.4507867097854614
vt 0.9933059215545654 0.4507867097854614
vt 0.9933059215545654 0.4507867097854614
vt 0.9933059215545654 0.4507867097854614
vt 0.9933059215545654 0.4507867097854614
vt 0.9933059215545654 0.4507867097854614
vt 0.9933059215545654 0.4507867097854614
vt 0.9933059215545654 0.4507867097854614
vt 0.9933059215545654 0.4507867097854614
vt 0.9933059215545654 0.4507867097854614
vt 0.9933059215545654 0.4507867097854614
vt 0.9933059215545654 0.4507867097854614
vt 0.9933059215545654 0.4507867097854614
vt 0.9933059215545654 0.4507867097854614
vt 0.9933059215545654 0.4507867097854614
vt 0.9933059215545654 0.4507867097854614
vt 0.9933059215545654 0.4507867097854614
vt 0.9933059215545654 0.45078665018081665
vt 0.9933059215545654 0.4507867097854614
vt 0.9933059215545654 0.45078665018081665
vt 0.9933059215545654 0.45078665018081665
vt 0.9933059215545654 0.4507867097854614
vt 0.9933059215545654 0.4507867097854614
vt 0.9933059215545654 0.4507867097854614
vt 0.9933059215545654 0.4507867097854614
vt 0.9933059215545654 0.4507867097854614
vt 0.9933059215545654 0.4507867097854614
vt 0.9933059215545654 0.4507867097854614
vt 0.9933059215545654 0.4507867097854614
vt 0.9933059215545654 0.4507867097854614
vt 0.9933059215545654 0.4507867097854614
vt 0.9933059215545654 0.4507867097854614
vt 0.9933059215545654 0.4507867097854614
vt 0.9933059215545654 0.4507867097854614
vt 0.9933059215545654 0.4507867097854614
vt 0.9933059215545654 0.4507867097854614
vt 0.9933059215545654 0.4507867097854614
vt 0.9933059215545654 0.4507867097854614
vt 0.9933059215545654 0.4507867097854614
vt 0.9933059215545654 0.4507867097854614
vt 0.9933059215545654 0.4507867097854614
vt 0.9933059215545654 0.4507867097854614
vt 0.9933059215545654 0.4507867097854614
vt 0.9933059215545654 0.4507867097854614
vt 0.9933059215545654 0.4507867097854614
vt 0.9933059215545654 0.4507867097854614
vt 0.9933059215545654 0.4507867097854614
vt 0.9933059215545654 0.4507867097854614
vt 0.9933059215545654 0.4507867097854614
vt 0.9933059215545654 0.4507867097854614
vt 0.9933059215545654 0.4507867097854614
vt 0.9933059215545654 0.4507867097854614
vt 0.9933059215545654 0.4507867097854614
vt 0.9933059215545654 0.4507867097854614
vt 0.9933059215545654 0.4507867097854614
vt 0.9933059215545654 0.4507867097854614
vt 0.9933059215545654 0.4507867097854614
vt 0.9933059215545654 0.4507867097854614
vt 0.9933059215545654 0.4507867097854614
vt 0.9933059215545654 0.4507867097854614
vt 0.9933059215545654 0.4507867097854614
vt 0.9933059215545654 0.4507867097854614
vt 0.9933059215545654 0.4507867097854614
vt 0.9933059215545654 0.4507867097854614
vt 0.9933059215545654 0.4507867097854614
vt 0.9933059215545654 0.4507867097854614
vt 0.9933059215545654 0.4507867097854614
vt 0.9933059215545654 0.4507867097854614
vt 0.9933059215545654 0.4507867097854614
vt 0.9933059215545654 0.4507867097854614
vt 0.9933059215545654 0.4507867097854614
vt 0.9933059215545654 0.4507867097854614
vt 0.9933059215545654 0.4507867097854614
vt 0.9933059215545654 0.4507867097854614
vt 0.9933059215545654 0.4507867097854614
vt 0.9933059215545654 0.4507867097854614
vt 0.9933059215545654 0.4507867097854614
vt 0.9933059215545654 0.4507867097854614
vt 0.9933059215545654 0.4507867097854614
vt 0.9933059215545654 0.4507867097854614
vt 0.9933059215545654 0.4507867097854614
vt 0.9933059215545654 0.4507867097854614
vt 0.9933059215545654 0.4507867097854614
vt 0.9933059215545654 0.4507867097854614
vt 0.9933059215545654 0.4507867097854614
vt 0.9933059215545654 0.4507867097854614
vt 0.9933059215545654 0.4507867097854614
vt 0.9933059215545654 0.4507867097854614
vt 0.9933059215545654 0.4507867097854614
vt 0.9933059215545654 0.4507867097854614
vt 0.9933059215545654 0.4507867097854614
vt 0.9933059215545654 0.4507867097854614
vt 0.9933059215545654 0.4507867097854614
vt 0.9933059215545654 0.4507867097854614
vt 0.9933059215545654 0.4507867097854614
vt 0.9933059215545654 0.4507867097854614
vt 0.9933059215545654 0.4507867097854614
vt 0.9933059215545654 0.4507867097854614
vt 0.9933059215545654 0.4507867097854614
vt 0.9933059215545654 0.4507867097854614
vt 0.9933059215545654 0.4507867097854614
vt 0.9933059215545654 0.45078665018081665
vt 0.9933059215545654 0.4507867097854614
vt 0.9933059215545654 0.45078665018081665
vt 0.9933059215545654 0.45078665018081665
vt 0.9933059215545654 0.4507867097854614
vt 0.9933059215545654 0.4507867097854614
vt 0.9933059215545654 0.4507867097854614
vt 0.9933059215545654 0.4507867097854614
vt 0.9933059215545654 0.4507867097854614
vt 0.9933059215545654 0.4507867097854614
vt 0.9933059215545654 0.4507867097854614
vt 0.9933059215545654 0.4507867097854614
vt 0.9933059215545654 0.4507867097854614
vt 0.9933059215545654 0.4507867097854614
vt 0.9933059215545654 0.4507867097854614
vt 0.9933059215545654 0.4507867097854614
vt 0.9933059215545654 0.4507867097854614
vt 0.9933059215545654 0.4507867097854614
vt 0.9933059215545654 0.4507867097854614
vt 0.9933059215545654 0.4507867097854614
vt 0.9933059215545654 0.4507867097854614
vt 0.9933059215545654 0.4507867097854614
vt 0.9933059215545654 0.4507867097854614
vt 0.9933059215545654 0.4507867097854614
vt 0.9933059215545654 0.4507867097854614
vt 0.9933059215545654 0.4507867097854614
vt 0.9933059215545654 0.4507867097854614
vt 0.9933059215545654 0.4507867097854614
vt 0.9933059215545654 0.4507867097854614
vt 0.9933059215545654 0.4507867097854614
vt 0.9933059215545654 0.4507867097854614
vt 0.9933059215545654 0.4507867097854614
vt 0.9933059215545654 0.4507867097854614
vt 0.9933059215545654 0.4507867097854614
vt 0.9933059215545654 0.4507867097854614
vt 0.9933059215545654 0.4507867097854614
vt 0.9933059215545654 0.4507867097854614
vt 0.9933059215545654 0.4507867097854614
vt 0.9933059215545654 0.4507867097854614
vt 0.9933059215545654 0.4507867097854614
vt 0.9933059215545654 0.4507867097854614
vt 0.9933059215545654 0.4507867097854614
vt 0.9933059215545654 0.4507867097854614
vt 0.9933059215545654 0.4507867097854614
vt 0.9933059215545654 0.4507867097854614
vt 0.9933059215545654 0.4507867097854614
vt 0.9933059215545654 0.4507867097854614
vt 0.9933059215545654 0.4507867097854614
vt 0.9933059215545654 0.4507867097854614
vt 0.9933059215545654 0.4507867097854614
vt 0.9933059215545654 0.4507867097854614
vt 0.9933059215545654 0.4507867097854614
vt 0.9933059215545654 0.4507867097854614
vt 0.9933059215545654 0.4507867097854614
vt 0.9933059215545654 0.4507867097854614
vt 0.9933059215545654 0.4507867097854614
vt 0.9933059215545654 0.4507867097854614
vt 0.9933059215545654 0.4507867097854614
vt 0.9933059215545654 0.4507867097854614
vt 0.9933059215545654 0.4507867097854614
vt 0.9933059215545654 0.4507867097854614
vt 0.9933059215545654 0.4507867097854614
vt 0.9933059215545654 0.4507867097854614
vt 0.9933059215545654 0.4507867097854614
vt 0.9933059215545654 0.4507867097854614
vt 0.9933059215545654 0.4507867097854614
vt 0.9933059215545654 0.4507867097854614
vt 0.9933059215545654 0.4507867097854614
vt 0.9933059215545654 0.45078665018081665
vt 0.9933059215545654 0.45078665018081665
vt 0.9933059215545654 0.4507867097854614
vt 0.9933059215545654 0.45078665018081665
vt 0.9933059215545654 0.45078665018081665
vt 0.9933059215545654 0.4507867097854614
vt 0.9933059215545654 0.45078665018081665
vt 0.9933059215545654 0.45078665018081665
vt 0.9933059215545654 0.4507867097854614
vt 0.9933059215545654 0.45078665018081665
vt 0.9933059215545654 0.4507867097854614
vt 0.9933059215545654 0.4507867097854614
vt 0.9933059215545654 0.4507867097854614
vt 0.9933059215545654 0.4507867097854614
vt 0.9933059215545654 0.4507867097854614
vt 0.9933059215545654 0.4507867097854614
vt 0.9933059215545654 0.4507867097854614
vt 0.9933059215545654 0.4507867097854614
vt 0.9933059215545654 0.4507867097854614
vt 0.9933059215545654 0.4507867097854614
vt 0.9933059215545654 0.4507867097854614
vt 0.9933059215545654 0.4507867097854614
vt 0.9933059215545654 0.4507867097854614
vt 0.9933059215545654 0.4507867097854614
vt 0.9933059215545654 0.4507867097854614
vt 0.9933059215545654 0.4507867097854614
vt 0.9933059215545654 0.4507867097854614
vt 0.9933059215545654 0.4507867097854614
vt 0.9933059215545654 0.4507867097854614
vt 0.9933059215545654 0.4507867097854614
vt 0.9933059215545654 0.4507867097854614
vt 0.9933059215545654 0.4507867097854614
vt 0.9933059215545654 0.4507867097854614
vt 0.9933059215545654 0.4507867097854614
vt 0.9933059215545654 0.4507867097854614
vt 0.9933059215545654 0.4507867097854614
vt 0.9933059215545654 0.4507867097854614
vt 0.9933059215545654 0.4507867097854614
vt 0.9933059215545654 0.4507867097854614
vt 0.9933059215545654 0.4507867097854614
vt 0.9933059215545654 0.4507867097854614
vt 0.9933059215545654 0.4507867097854614
vt 0.9933059215545654 0.4507867097854614
vt 0.9933059215545654 0.4507867097854614
vt 0.9933059215545654 0.4507867097854614
vt 0.9933059215545654 0.4507867097854614
vt 0.9933059215545654 0.4507867097854614
vt 0.9933059215545654 0.4507867097854614
vt 0.9933059215545654 0.4507867097854614
vt 0.9933059215545654 0.4507867097854614
vt 0.9933059215545654 0.4507867097854614
vt 0.9933059215545654 0.4507867097854614
vt 0.9933059215545654 0.4507867097854614
vt 0.9933059215545654 0.4507867097854614
vt 0.9933059215545654 0.4507867097854614
vt 0.9933059215545654 0.4507867097854614
usemtl lambert358
f 1/1/1 2/2/2 3/3/3
f 4/4/4 5/5/5 6/6/6
f 7/7/7 8/8/8 9/9/9
f 10/10/10 11/11/11 12/12/12
f 13/13/13 14/14/14 15/15/15
f 16/16/16 17/17/17 18/18/18
f 19/19/19 20/20/20 21/21/21
f 22/22/22 23/23/23 24/24/24
f 25/25/25 26/26/26 27/27/27
f 28/28/28 29/29/29 30/30/30
f 31/31/31 32/32/32 33/33/33
f 34/34/34 35/35/35 36/36/36
f 37/37/37 38/38/38 39/39/39
f 40/40/40 41/41/41 42/42/42
f 43/43/43 44/44/44 45/45/45
f 46/46/46 47/47/47 48/48/48
f 49/49/49 50/50/50 51/51/51
f 52/52/52 53/53/53 54/54/54
f 55/55/55 56/56/56 57/57/57
f 58/58/58 59/59/59 60/60/60
f 61/61/61 62/62/62 63/63/63
f 64/64/64 65/65/65 66/66/66
f 67/67/67 68/68/68 69/69/69
f 70/70/70 71/71/71 72/72/72
f 73/73/73 74/74/74 75/75/75
f 76/76/76 77/77/77 78/78/78
f 79/79/79 80/80/80 81/81/81
f 82/82/82 83/83/83 84/84/84
f 85/85/85 86/86/86 87/87/87
f 88/88/88 89/89/89 90/90/90
f 91/91/91 92/92/92 93/93/93
f 94/94/94 95/95/95 96/96/96
f 97/97/97 98/98/98 99/99/99
f 100/100/100 101/101/101 102/102/102
f 103/103/103 104/104/104 105/105/105
f 106/106/106 107/107/107 108/108/108
f 109/109/109 110/110/110 111/111/111
f 112/112/112 113/113/113 114/114/114
f 115/115/115 116/116/116 117/117/117
f 118/118/118 119/119/119 120/120/120
f 121/121/121 122/122/122 123/123/123
f 124/124/124 125/125/125 126/126/126
f 127/127/127 128/128/128 129/129/129
f 130/130/130 131/131/131 132/132/132
f 133/133/133 134/134/134 135/135/135
f 136/136/136 137/137/137 138/138/138
f 139/139/139 140/140/140 141/141/141
f 142/142/142 143/143/143 144/144/144
f 145/145/145 146/146/146 147/147/147
f 148/148/148 149/149/149 150/150/150
f 151/151/151 152/152/152 153/153/153
f 154/154/154 155/155/155 156/156/156
f 157/157/157 158/158/158 159/159/159
f 160/160/160 161/161/161 162/162/162
f 163/163/163 164/164/164 165/165/165
f 166/166/166 167/167/167 168/168/168
f 169/169/169 170/170/170 171/171/171
f 172/172/172 173/173/173 174/174/174
f 175/175/175 176/176/176 177/177/177
f 178/178/178 179/179/179 180/180/180
f 181/181/181 182/182/182 183/183/183
f 184/184/184 185/185/185 186/186/186
f 187/187/187 188/188/188 189/189/189
f 190/190/190 191/191/191 192/192/192
f 193/193/193 194/194/194 195/195/195
f 196/196/196 197/197/197 198/198/198
f 199/199/199 200/200/200 201/201/201
f 202/202/202 203/203/203 204/204/204
f 205/205/205 206/206/206 207/207/207
f 208/208/208 209/209/209 210/210/210
f 211/211/211 212/212/212 213/213/213
f 214/214/214 215/215/215 216/216/216
f 217/217/217 218/218/218 219/219/219
f 220/220/220 221/221/221 222/222/222
f 223/223/223 224/224/224 225/225/225
f 226/226/226 227/227/227 228/228/228
f 229/229/229 230/230/230 231/231/231
f 232/232/232 233/233/233 234/234/234
f 235/235/235 236/236/236 237/237/237
f 238/238/238 239/239/239 240/240/240
f 241/241/241 242/242/242 243/243/243
f 244/244/244 245/245/245 246/246/246
f 247/247/247 248/248/248 249/249/249
f 250/250/250 251/251/251 252/252/252
f 253/253/253 254/254/254 255/255/255
f 256/256/256 257/257/257 258/258/258
f 259/259/259 260/260/260 261/261/261
f 262/262/262 263/263/263 264/264/264
f 265/265/265 266/266/266 267/267/267
f 268/268/268 269/269/269 270/270/270
f 271/271/271 272/272/272 273/273/273
f 274/274/274 275/275/275 276/276/276
f 277/277/277 278/278/278 279/279/279
f 280/280/280 281/281/281 282/282/282
f 283/283/283 284/284/284 285/285/285
f 286/286/286 287/287/287 288/288/288
f 289/289/289 290/290/290 291/291/291
f 292/292/292 293/293/293 294/294/294
f 295/295/295 296/296/296 297/297/297
f 298/298/298 299/299/299 300/300/300
f 301/301/301 302/302/302 303/303/303
f 304/304/304 305/305/305 306/306/306
f 307/307/307 308/308/308 309/309/309
f 310/310/310 311/311/311 312/312/312
f 313/313/313 314/314/314 315/315/315
f 316/316/316 317/317/317 318/318/318
f 319/319/319 320/320/320 321/321/321
f 322/322/322 323/323/323 324/324/324
f 325/325/325 326/326/326 327/327/327
f 328/328/328 329/329/329 330/330/330
f 331/331/331 332/332/332 333/333/333
f 334/334/334 335/335/335 336/336/336
f 337/337/337 338/338/338 339/339/339
f 340/340/340 341/341/341 342/342/342
f 343/343/343 344/344/344 345/345/345
f 346/346/346 347/347/347 348/348/348
f 349/349/349 350/350/350 351/351/351
f 352/352/352 353/353/353 354/354/354
f 355/355/355 356/356/356 357/357/357
f 358/358/358 359/359/359 360/360/360
f 361/361/361 362/362/362 363/363/363
f 364/364/364 365/365/365 366/366/366
f 367/367/367 368/368/368 369/369/369
f 370/370/370 371/371/371 372/372/372
f 373/373/373 374/374/374 375/375/375
f 376/376/376 377/377/377 378/378/378
f 379/379/379 380/380/380 381/381/381
f 382/382/382 383/383/383 384/384/384
f 385/385/385 386/386/386 387/387/387
f 388/388/388 389/389/389 390/390/390
