g SM_Wep_Shuriken_02
v -0.001965061 -0.1233377 0.002075672
v 0.001965063 -0.1233377 0.002075672
v 0.001965063 -0.1233377 -0.00207746
v -0.001965061 -0.1233377 -0.00207746
v 0.001965063 0.1233377 0.002075672
v -0.001965061 0.1233377 0.002075672
v -0.001965061 0.1233377 -0.00207746
v 0.001965063 0.1233377 -0.00207746
v -0.001965046 -0.002076976 -0.1233373
v 0.001965046 -0.002076976 -0.1233373
v 0.001965046 0.002076797 -0.1233373
v -0.001965046 0.002076797 -0.1233373
v -0.001965046 0.002076797 0.1233373
v 0.001965046 0.002076797 0.1233373
v 0.001965046 -0.002076976 0.1233373
v -0.001965046 -0.002076976 0.1233373
v -0.009772688 -0.03608063 0.0360803
v -0.001965061 -0.1233377 0.002075672
v -0.001965061 -0.1233377 -0.00207746
v -0.009772688 -0.03608063 -0.0360803
v -0.009772688 -0.03608063 -0.0360803
v -0.001965061 -0.1233377 -0.00207746
v 0.001965063 -0.1233377 -0.00207746
v 0.009772688 -0.03608066 -0.0360803
v 0.009772688 -0.03608066 -0.0360803
v 0.001965063 -0.1233377 -0.00207746
v 0.001965063 -0.1233377 0.002075672
v 0.009772688 -0.03608066 0.0360803
v 0.009772688 -0.03608066 0.0360803
v 0.001965063 -0.1233377 0.002075672
v -0.001965061 -0.1233377 0.002075672
v -0.009772688 -0.03608063 0.0360803
v 0.009772688 0.03608027 0.0360803
v 0.001965063 0.1233377 0.002075672
v 0.001965063 0.1233377 -0.00207746
v 0.009772688 0.03608027 -0.0360803
v 0.009772688 0.03608027 -0.0360803
v 0.001965063 0.1233377 -0.00207746
v -0.001965061 0.1233377 -0.00207746
v -0.009772688 0.0360803 -0.0360803
v -0.009772688 0.0360803 -0.0360803
v -0.001965061 0.1233377 -0.00207746
v -0.001965061 0.1233377 0.002075672
v -0.009772688 0.0360803 0.0360803
v -0.009772688 0.0360803 0.0360803
v -0.001965061 0.1233377 0.002075672
v 0.001965063 0.1233377 0.002075672
v 0.009772688 0.03608027 0.0360803
v -0.009772688 -0.03608063 -0.0360803
v -0.001965046 -0.002076976 -0.1233373
v -0.001965046 0.002076797 -0.1233373
v -0.009772688 0.0360803 -0.0360803
v -0.009772688 -0.02005184 -0.0200513
v -0.009772688 0.0200513 -0.0200513
v -0.009772688 0.0360803 0.0360803
v -0.009772688 0.0200513 0.0200513
v -0.009772688 -0.02005184 0.0200513
v -0.009772688 -0.03608063 0.0360803
v -0.001965046 -0.002076976 0.1233373
v -0.001965046 0.002076797 0.1233373
v -0.009772688 0.0360803 -0.0360803
v -0.001965046 0.002076797 -0.1233373
v 0.001965046 0.002076797 -0.1233373
v 0.009772688 0.03608027 -0.0360803
v 0.009772688 0.03608027 -0.0360803
v 0.001965046 0.002076797 -0.1233373
v 0.001965046 -0.002076976 -0.1233373
v 0.009772688 -0.03608066 -0.0360803
v 0.009772688 0.0200513 -0.0200513
v 0.009772688 -0.02005184 -0.0200513
v 0.009772688 -0.03608066 0.0360803
v 0.009772688 -0.02005184 0.0200513
v 0.009772688 0.0200513 0.0200513
v 0.009772688 0.03608027 0.0360803
v 0.001965046 0.002076797 0.1233373
v 0.001965046 -0.002076976 0.1233373
v 0.009772688 -0.03608066 -0.0360803
v 0.001965046 -0.002076976 -0.1233373
v -0.001965046 -0.002076976 -0.1233373
v -0.009772688 -0.03608063 -0.0360803
v -0.009772688 -0.03608063 0.0360803
v -0.001965046 -0.002076976 0.1233373
v 0.001965046 -0.002076976 0.1233373
v 0.009772688 -0.03608066 0.0360803
v 0.009772688 0.03608027 0.0360803
v 0.001965046 0.002076797 0.1233373
v -0.001965046 0.002076797 0.1233373
v -0.009772688 0.0360803 0.0360803
v 0.009772688 0.0200513 -0.0200513
v -0.009772688 0.0200513 -0.0200513
v -0.009772688 0.0200513 0.0200513
v 0.009772688 0.0200513 0.0200513
v 0.009772688 0.0200513 0.0200513
v -0.009772688 0.0200513 0.0200513
v -0.009772688 -0.02005184 0.0200513
v 0.009772688 -0.02005184 0.0200513
v 0.009772688 0.0200513 -0.0200513
v 0.009772688 -0.02005184 -0.0200513
v -0.009772688 -0.02005184 -0.0200513
v -0.009772688 0.0200513 -0.0200513
v 0.009772688 -0.02005184 -0.0200513
v 0.009772688 -0.02005184 0.0200513
v -0.009772688 -0.02005184 0.0200513
v -0.009772688 -0.02005184 -0.0200513
vt 0.5626763 0.4736858
vt 0.5626763 0.4736858
vt 0.5626763 0.4736858
vt 0.5626763 0.4736858
vt 0.5626763 0.4736858
vt 0.5626763 0.4736857
vt 0.5626763 0.4736857
vt 0.5626763 0.4736858
vt 0.5626763 0.4736857
vt 0.5626763 0.4736858
vt 0.5626763 0.4736858
vt 0.5626763 0.4736857
vt 0.5626763 0.4736857
vt 0.5626763 0.4736857
vt 0.5626763 0.4736857
vt 0.5626763 0.4736857
vt 0.5626763 0.4736858
vt 0.5626763 0.4736858
vt 0.5626763 0.4736858
vt 0.5626763 0.4736858
vt 0.5626763 0.4736858
vt 0.5626763 0.4736858
vt 0.5626763 0.4736858
vt 0.5626763 0.4736857
vt 0.5626761 0.4736858
vt 0.5626763 0.4736858
vt 0.5626763 0.4736858
vt 0.5626762 0.4736858
vt 0.5626763 0.4736857
vt 0.5626762 0.4736858
vt 0.5626762 0.4736857
vt 0.5626763 0.4736858
vt 0.5626762 0.4736858
vt 0.5626763 0.4736858
vt 0.5626763 0.4736858
vt 0.5626761 0.4736858
vt 0.5626761 0.4736857
vt 0.5626763 0.4736858
vt 0.5626763 0.4736857
vt 0.5626761 0.4736859
vt 0.5626763 0.4736858
vt 0.5626763 0.4736858
vt 0.5626763 0.4736858
vt 0.5626763 0.4736858
vt 0.5626763 0.4736858
vt 0.5626763 0.4736858
vt 0.5626763 0.4736857
vt 0.5626763 0.4736858
vt 0.5626763 0.4736858
vt 0.5626763 0.4736858
vt 0.5626763 0.4736858
vt 0.5626763 0.4736858
vt 0.5626762 0.4736858
vt 0.5626762 0.4736859
vt 0.5626763 0.4736858
vt 0.5626763 0.4736859
vt 0.5626763 0.4736858
vt 0.5626763 0.4736858
vt 0.5626763 0.4736858
vt 0.5626763 0.4736858
vt 0.5626763 0.4736858
vt 0.5626762 0.4736858
vt 0.5626762 0.4736858
vt 0.5626763 0.4736858
vt 0.5626761 0.4736858
vt 0.5626763 0.4736858
vt 0.5626763 0.4736858
vt 0.5626761 0.4736858
vt 0.5626763 0.4736858
vt 0.5626763 0.4736858
vt 0.5626762 0.4736858
vt 0.5626763 0.4736858
vt 0.5626763 0.4736858
vt 0.5626762 0.4736858
vt 0.5626763 0.4736858
vt 0.5626763 0.4736858
vt 0.5626763 0.4736857
vt 0.5626763 0.4736858
vt 0.5626763 0.4736858
vt 0.5626763 0.4736858
vt 0.5626763 0.4736858
vt 0.5626763 0.4736858
vt 0.5626763 0.4736857
vt 0.5626763 0.4736858
vt 0.5626761 0.4736857
vt 0.5626763 0.4736858
vt 0.5626763 0.4736857
vt 0.5626761 0.4736858
vt 0.5626763 0.4736857
vt 0.5626763 0.4736857
vt 0.5626763 0.4736857
vt 0.5626763 0.4736857
vt 0.5626763 0.4736858
vt 0.5626763 0.4736858
vt 0.5626762 0.4736858
vt 0.5626762 0.4736858
vt 0.5626762 0.4736857
vt 0.5626762 0.4736857
vt 0.5626762 0.4736857
vt 0.5626762 0.4736857
vt 0.5626763 0.4736857
vt 0.5626763 0.4736857
vt 0.5626763 0.4736857
vt 0.5626763 0.4736857
vn 0 -1 0
vn 0 -1 0
vn 0 -1 0
vn 0 -1 0
vn 0 1 0
vn 0 1 0
vn 0 1 0
vn 0 1 0
vn 0 0 -1
vn 0 0 -1
vn 0 0 -1
vn 0 0 -1
vn 0 0 1
vn 0 0 1
vn 0 0 1
vn 0 0 1
vn -0.9995579 -0.02973378 0
vn -0.9960207 -0.08912241 0
vn -0.9960207 -0.08912241 0
vn -0.9995579 -0.02973378 0
vn 0 -0.3630913 -0.9317535
vn 0 -0.3630913 -0.9317535
vn 0 -0.3630913 -0.9317535
vn 0 -0.3630913 -0.9317535
vn 0.9995579 -0.02973378 0
vn 0.9960207 -0.08912242 0
vn 0.9960207 -0.08912242 0
vn 0.9995579 -0.02973378 0
vn 0 -0.3631079 0.9317471
vn 0 -0.3631079 0.9317471
vn 0 -0.3631079 0.9317471
vn 0 -0.3631079 0.9317471
vn 0.9995579 0.02973365 0
vn 0.9960207 0.08912203 0
vn 0.9960207 0.08912203 0
vn 0.9995579 0.02973365 0
vn 0 0.36309 -0.9317541
vn 0 0.36309 -0.9317541
vn 0 0.36309 -0.9317541
vn 0 0.36309 -0.9317541
vn -0.9995579 0.02973367 0
vn -0.9960207 0.08912209 0
vn -0.9960207 0.08912209 0
vn -0.9995579 0.02973367 0
vn 0 0.3631066 0.9317476
vn 0 0.3631066 0.9317476
vn 0 0.3631066 0.9317476
vn 0 0.3631066 0.9317476
vn -0.9995579 0 -0.02973384
vn -0.9960207 0 -0.08912262
vn -0.9960207 0 -0.08912262
vn -0.9995579 0 -0.02973384
vn -1 0 0
vn -1 0 0
vn -0.9995579 0 0.02973384
vn -1 0 0
vn -1 0 0
vn -0.9995579 0 0.02973384
vn -0.9960207 0 0.08912262
vn -0.9960207 0 0.08912262
vn 0 0.9317513 -0.3630974
vn 0 0.9317513 -0.3630974
vn 0 0.9317513 -0.3630974
vn 0 0.9317513 -0.3630974
vn 0.9995579 0 -0.02973384
vn 0.9960207 0 -0.08912262
vn 0.9960207 0 -0.08912262
vn 0.9995579 0 -0.02973384
vn 1 0 0
vn 1 0 0
vn 0.9995579 0 0.02973384
vn 1 0 0
vn 1 0 0
vn 0.9995579 0 0.02973384
vn 0.9960207 0 0.08912262
vn 0.9960207 0 0.08912262
vn 0 -0.9317505 -0.363099
vn 0 -0.9317505 -0.363099
vn 0 -0.9317505 -0.363099
vn 0 -0.9317505 -0.363099
vn 0 -0.9317505 0.363099
vn 0 -0.9317505 0.363099
vn 0 -0.9317505 0.363099
vn 0 -0.9317505 0.363099
vn 0 0.9317513 0.3630974
vn 0 0.9317513 0.3630974
vn 0 0.9317513 0.3630974
vn 0 0.9317513 0.3630974
vn 0 -1 0
vn 0 -1 0
vn 0 -1 0
vn 0 -1 0
vn 0 0 -1
vn 0 0 -1
vn 0 0 -1
vn 0 0 -1
vn 0 0 1
vn 0 0 1
vn 0 0 1
vn 0 0 1
vn 0 1 0
vn 0 1 0
vn 0 1 0
vn 0 1 0
g SM_Wep_Shuriken_02_0
f 3/3/3 2/2/2 1/1/1
f 4/4/4 3/3/3 1/1/1
f 7/7/7 6/6/6 5/5/5
f 8/8/8 7/7/7 5/5/5
f 11/11/11 10/10/10 9/9/9
f 12/12/12 11/11/11 9/9/9
f 15/15/15 14/14/14 13/13/13
f 16/16/16 15/15/15 13/13/13
f 19/19/19 18/18/18 17/17/17
f 20/20/20 19/19/19 17/17/17
f 23/23/23 22/22/22 21/21/21
f 24/24/24 23/23/23 21/21/21
f 27/27/27 26/26/26 25/25/25
f 28/28/28 27/27/27 25/25/25
f 31/31/31 30/30/30 29/29/29
f 32/32/32 31/31/31 29/29/29
f 35/35/35 34/34/34 33/33/33
f 36/36/36 35/35/35 33/33/33
f 39/39/39 38/38/38 37/37/37
f 40/40/40 39/39/39 37/37/37
f 43/43/43 42/42/42 41/41/41
f 44/44/44 43/43/43 41/41/41
f 47/47/47 46/46/46 45/45/45
f 48/48/48 47/47/47 45/45/45
f 51/51/51 50/50/50 49/49/49
f 52/52/52 51/51/51 49/49/49
f 49/49/49 53/53/53 52/52/52
f 53/53/53 54/54/54 52/52/52
f 52/52/52 54/54/54 55/55/55
f 54/54/54 56/56/56 55/55/55
f 57/57/57 53/53/53 49/49/49
f 58/58/58 57/57/57 49/49/49
f 56/56/56 57/57/57 58/58/58
f 55/55/55 56/56/56 58/58/58
f 58/58/58 59/59/59 55/55/55
f 59/59/59 60/60/60 55/55/55
f 63/63/63 62/62/62 61/61/61
f 64/64/64 63/63/63 61/61/61
f 67/67/67 66/66/66 65/65/65
f 68/68/68 67/67/67 65/65/65
f 65/65/65 69/69/69 68/68/68
f 69/69/69 70/70/70 68/68/68
f 68/68/68 70/70/70 71/71/71
f 70/70/70 72/72/72 71/71/71
f 73/73/73 69/69/69 65/65/65
f 74/74/74 73/73/73 65/65/65
f 72/72/72 73/73/73 74/74/74
f 71/71/71 72/72/72 74/74/74
f 74/74/74 75/75/75 71/71/71
f 75/75/75 76/76/76 71/71/71
f 79/79/79 78/78/78 77/77/77
f 80/80/80 79/79/79 77/77/77
f 83/83/83 82/82/82 81/81/81
f 84/84/84 83/83/83 81/81/81
f 87/87/87 86/86/86 85/85/85
f 88/88/88 87/87/87 85/85/85
f 91/91/91 90/90/90 89/89/89
f 92/92/92 91/91/91 89/89/89
f 95/95/95 94/94/94 93/93/93
f 96/96/96 95/95/95 93/93/93
f 99/99/99 98/98/98 97/97/97
f 100/100/100 99/99/99 97/97/97
f 103/103/103 102/102/102 101/101/101
f 104/104/104 103/103/103 101/101/101
