g Sphere002
v 0.04835081 1.485768 21.80973
v -1.051574 1.030163 21.80973
v -2.231167 2.209757 20.95628
v 0.04835081 3.15383 20.95628
v -1.051574 1.030163 21.80973
v -1.507179 -0.06976223 21.80973
v -3.175241 -0.06976223 20.95628
v -2.231167 2.209757 20.95628
v -1.507179 -0.06976223 21.80973
v -1.051574 -1.169687 21.80973
v -2.231167 -2.348783 20.95628
v -3.175241 -0.06976223 20.95628
v -1.051574 -1.169687 21.80973
v 0.04835081 -1.624794 21.80973
v 0.04835081 -3.292856 20.95628
v -2.231167 -2.348783 20.95628
v 0.04835081 -1.624794 21.80973
v 1.147778 -1.169687 21.80973
v 2.327372 -2.348783 20.95628
v 0.04835081 -3.292856 20.95628
v 1.147778 -1.169687 21.80973
v 1.603383 -0.06976223 21.80973
v 3.271445 -0.06976223 20.95628
v 2.327372 -2.348783 20.95628
v 1.603383 -0.06976223 21.80973
v 1.147778 1.030163 21.80973
v 2.327372 2.209757 20.95628
v 3.271445 -0.06976223 20.95628
v 1.147778 1.030163 21.80973
v 0.04835081 1.485768 21.80973
v 0.04835081 3.15383 20.95628
v 2.327372 2.209757 20.95628
v 0.04835081 3.15383 20.95628
v -2.231167 2.209757 20.95628
v -3.175241 3.15383 18.77486
v 0.04835081 4.489275 18.77486
v -2.231167 2.209757 20.95628
v -3.175241 -0.06976223 20.95628
v -4.510685 -0.06976223 18.77486
v -3.175241 3.15383 18.77486
v -3.175241 -0.06976223 20.95628
v -2.231167 -2.348783 20.95628
v -3.175241 -3.292856 18.77486
v -4.510685 -0.06976223 18.77486
v -2.231167 -2.348783 20.95628
v 0.04835081 -3.292856 20.95628
v 0.04835081 -4.628301 18.77486
v -3.175241 -3.292856 18.77486
v 0.04835081 -3.292856 20.95628
v 2.327372 -2.348783 20.95628
v 3.271445 -3.292856 18.77486
v 0.04835081 -4.628301 18.77486
v 2.327372 -2.348783 20.95628
v 3.271445 -0.06976223 20.95628
v 4.60689 -0.06976223 18.77486
v 3.271445 -3.292856 18.77486
v 3.271445 -0.06976223 20.95628
v 2.327372 2.209757 20.95628
v 3.271445 3.15383 18.77486
v 4.60689 -0.06976223 18.77486
v 2.327372 2.209757 20.95628
v 0.04835081 3.15383 20.95628
v 0.04835081 4.489275 18.77486
v 3.271445 3.15383 18.77486
v 0.04835081 4.489275 18.77486
v -3.175241 3.15383 18.77486
v -2.231167 2.209757 16.16073
v 0.04835081 3.15383 16.16073
v -3.175241 3.15383 18.77486
v -4.510685 -0.06976223 18.77486
v -3.175241 -0.06976223 16.16073
v -2.231167 2.209757 16.16073
v -4.510685 -0.06976223 18.77486
v -3.175241 -3.292856 18.77486
v -2.231167 -2.348783 16.16073
v -3.175241 -0.06976223 16.16073
v -3.175241 -3.292856 18.77486
v 0.04835081 -4.628301 18.77486
v 0.04835081 -3.292856 16.16073
v -2.231167 -2.348783 16.16073
v 0.04835081 -4.628301 18.77486
v 3.271445 -3.292856 18.77486
v 2.327372 -2.348783 16.16073
v 0.04835081 -3.292856 16.16073
v 3.271445 -3.292856 18.77486
v 4.60689 -0.06976223 18.77486
v 3.271445 -0.06976223 16.16073
v 2.327372 -2.348783 16.16073
v 4.60689 -0.06976223 18.77486
v 3.271445 3.15383 18.77486
v 2.327372 2.209757 16.16073
v 3.271445 -0.06976223 16.16073
v 3.271445 3.15383 18.77486
v 0.04835081 4.489275 18.77486
v 0.04835081 3.15383 16.16073
v 2.327372 2.209757 16.16073
v 0.04835081 -0.06976223 14.82578
v 0.04835081 3.15383 16.16073
v -2.231167 2.209757 16.16073
v 0.04835081 -0.06976223 14.82578
v -2.231167 2.209757 16.16073
v -3.175241 -0.06976223 16.16073
v 0.04835081 -0.06976223 14.82578
v -3.175241 -0.06976223 16.16073
v -2.231167 -2.348783 16.16073
v 0.04835081 -0.06976223 14.82578
v -2.231167 -2.348783 16.16073
v 0.04835081 -3.292856 16.16073
v 0.04835081 -0.06976223 14.82578
v 0.04835081 -3.292856 16.16073
v 2.327372 -2.348783 16.16073
v 0.04835081 -0.06976223 14.82578
v 2.327372 -2.348783 16.16073
v 3.271445 -0.06976223 16.16073
v 0.04835081 -0.06976223 14.82578
v 3.271445 -0.06976223 16.16073
v 2.327372 2.209757 16.16073
v 0.04835081 -0.06976223 14.82578
v 2.327372 2.209757 16.16073
v 0.04835081 3.15383 16.16073
v 0.04835081 1.277135 22.39629
v 0.04835081 0.8942285 22.39629
v -0.6338115 0.6119027 22.39629
v -0.9041872 0.8827763 22.39629
v -0.9161372 -0.06976223 22.39629
v -1.298547 -0.06976223 22.39629
v -0.6338115 -0.7514267 22.39629
v -0.9041872 -1.021802 22.39629
v 0.04835081 -1.033752 22.39629
v 0.04835081 -1.41666 22.39629
v 0.7300155 -0.7514267 22.39629
v 1.000391 -1.021802 22.39629
v 1.012341 -0.06976223 22.39629
v 1.394751 -0.06976223 22.39629
v 0.7300155 0.6119027 22.39629
v 1.000391 0.8827763 22.39629
v 0.04835081 1.485768 21.80973
v 0.04835081 1.277135 22.39629
v -0.9041872 0.8827763 22.39629
v -1.051574 1.030163 21.80973
v -1.051574 1.030163 21.80973
v -0.9041872 0.8827763 22.39629
v -1.298547 -0.06976223 22.39629
v -1.507179 -0.06976223 21.80973
v -1.507179 -0.06976223 21.80973
v -1.298547 -0.06976223 22.39629
v -0.9041872 -1.021802 22.39629
v -1.051574 -1.169687 21.80973
v -1.051574 -1.169687 21.80973
v -0.9041872 -1.021802 22.39629
v 0.04835081 -1.41666 22.39629
v 0.04835081 -1.624794 21.80973
v 0.04835081 -1.624794 21.80973
v 0.04835081 -1.41666 22.39629
v 1.000391 -1.021802 22.39629
v 1.147778 -1.169687 21.80973
v 1.147778 -1.169687 21.80973
v 1.000391 -1.021802 22.39629
v 1.394751 -0.06976223 22.39629
v 1.603383 -0.06976223 21.80973
v 1.603383 -0.06976223 21.80973
v 1.394751 -0.06976223 22.39629
v 1.000391 0.8827763 22.39629
v 1.147778 1.030163 21.80973
v 1.147778 1.030163 21.80973
v 1.000391 0.8827763 22.39629
v 0.04835081 1.277135 22.39629
v 0.04835081 1.485768 21.80973
v -0.4426069 0.4211955 21.80973
v -0.6338115 0.6119027 22.39629
v 0.04835081 0.8942285 22.39629
v 0.04835081 0.6248488 21.80973
v 0.04835081 0.6248488 21.80973
v 0.04835081 0.8942285 22.39629
v 0.7300155 0.6119027 22.39629
v 0.5388112 0.4211955 21.80973
v 0.5388112 0.4211955 21.80973
v 0.7300155 0.6119027 22.39629
v 1.012341 -0.06976223 22.39629
v 0.7424638 -0.06976223 21.80973
v 0.7424638 -0.06976223 21.80973
v 1.012341 -0.06976223 22.39629
v 0.7300155 -0.7514267 22.39629
v 0.5388112 -0.56072 21.80973
v 0.5388112 -0.56072 21.80973
v 0.7300155 -0.7514267 22.39629
v 0.04835081 -1.033752 22.39629
v 0.04835081 -0.7638748 21.80973
v 0.04835081 -0.7638748 21.80973
v 0.04835081 -1.033752 22.39629
v -0.6338115 -0.7514267 22.39629
v -0.4426069 -0.56072 21.80973
v -0.4426069 -0.56072 21.80973
v -0.6338115 -0.7514267 22.39629
v -0.9161372 -0.06976223 22.39629
v -0.6462603 -0.06976223 21.80973
v -0.6462603 -0.06976223 21.80973
v -0.9161372 -0.06976223 22.39629
v -0.6338115 0.6119027 22.39629
v -0.4426069 0.4211955 21.80973
v 0.2539959 -0.3341622 22.10351
v 0.08021832 -0.2878551 22.10351
v 0.08021832 -0.2878551 28.00347
v 0.2539959 -0.3341622 28.00347
v 0.08021832 -0.2878551 22.10351
v 0.20719 -0.1608829 22.10351
v 0.20719 -0.1608829 28.00347
v 0.08021832 -0.2878551 28.00347
v 0.20719 -0.1608829 22.10351
v 0.2539959 -0.3341622 22.10351
v 0.2539959 -0.3341622 28.00347
v 0.20719 -0.1608829 28.00347
v 0.08021832 -0.2878551 22.10351
v 0.2539959 -0.3341622 22.10351
v 0.20719 -0.1608829 22.10351
v 0.20719 -0.1608829 28.00347
v 0.2539959 -0.3341622 28.00347
v 0.08021832 -0.2878551 28.00347
vn -0.1836877 0.4512078 0.87331
vn -0.1836877 0.4512078 0.87331
vn -0.1836877 0.4512078 0.87331
vn -0.1836877 0.4512078 0.87331
vn -0.4512078 0.1836877 0.87331
vn -0.4512078 0.1836877 0.87331
vn -0.4512078 0.1836877 0.87331
vn -0.4512078 0.1836877 0.87331
vn -0.4512078 -0.1850563 0.873021
vn -0.4512078 -0.1850563 0.873021
vn -0.4512078 -0.1850563 0.873021
vn -0.4512078 -0.1850563 0.873021
vn -0.1836877 -0.4453461 0.8763137
vn -0.1836877 -0.4453461 0.8763137
vn -0.1836877 -0.4453461 0.8763137
vn -0.1836877 -0.4453461 0.8763137
vn 0.1850563 -0.4453461 0.8760257
vn 0.1850563 -0.4453461 0.8760257
vn 0.1850563 -0.4453461 0.8760257
vn 0.1850563 -0.4453461 0.8760257
vn 0.4453461 -0.1850563 0.8760257
vn 0.4453461 -0.1850563 0.8760257
vn 0.4453461 -0.1850563 0.8760257
vn 0.4453461 -0.1850563 0.8760257
vn 0.4453461 0.1836877 0.8763137
vn 0.4453461 0.1836877 0.8763137
vn 0.4453461 0.1836877 0.8763137
vn 0.4453461 0.1836877 0.8763137
vn 0.1850563 0.4512078 0.873021
vn 0.1850563 0.4512078 0.873021
vn 0.1850563 0.4512078 0.873021
vn 0.1850563 0.4512078 0.873021
vn -0.3355235 0.8054912 0.4884751
vn -0.3355235 0.8054912 0.4884751
vn -0.3355235 0.8054912 0.4884751
vn -0.3355235 0.8054912 0.4884751
vn -0.8054912 0.3355235 0.4884751
vn -0.8054912 0.3355235 0.4884751
vn -0.8054912 0.3355235 0.4884751
vn -0.8054912 0.3355235 0.4884751
vn -0.8054912 -0.3296617 0.49245
vn -0.8054912 -0.3296617 0.49245
vn -0.8054912 -0.3296617 0.49245
vn -0.8054912 -0.3296617 0.49245
vn -0.3355235 -0.8068598 0.4862111
vn -0.3355235 -0.8068598 0.4862111
vn -0.3355235 -0.8068598 0.4862111
vn -0.3355235 -0.8068598 0.4862111
vn 0.3296617 -0.8068598 0.4902045
vn 0.3296617 -0.8068598 0.4902045
vn 0.3296617 -0.8068598 0.4902045
vn 0.3296617 -0.8068598 0.4902045
vn 0.8068598 -0.3296617 0.4902045
vn 0.8068598 -0.3296617 0.4902045
vn 0.8068598 -0.3296617 0.4902045
vn 0.8068598 -0.3296617 0.4902045
vn 0.8068598 0.3355235 0.4862111
vn 0.8068598 0.3355235 0.4862111
vn 0.8068598 0.3355235 0.4862111
vn 0.8068598 0.3355235 0.4862111
vn 0.3296617 0.8054912 0.49245
vn 0.3296617 0.8054912 0.49245
vn 0.3296617 0.8054912 0.49245
vn 0.3296617 0.8054912 0.49245
vn -0.3427536 0.8344122 -0.4315973
vn -0.3427536 0.8344122 -0.4315973
vn -0.3427536 0.8344122 -0.4315973
vn -0.3427536 0.8344122 -0.4315973
vn -0.8344122 0.3427536 -0.4315972
vn -0.8344122 0.3427536 -0.4315972
vn -0.8344122 0.3427536 -0.4315972
vn -0.8344122 0.3427536 -0.4315972
vn -0.8344122 -0.3441223 -0.4305068
vn -0.8344122 -0.3441223 -0.4305068
vn -0.8344122 -0.3441223 -0.4305068
vn -0.8344122 -0.3441223 -0.4305068
vn -0.3427536 -0.8357809 -0.4289409
vn -0.3427536 -0.8357809 -0.4289409
vn -0.3427536 -0.8357809 -0.4289409
vn -0.3427536 -0.8357809 -0.4289409
vn 0.3441223 -0.8357809 -0.4278437
vn 0.3441223 -0.8357809 -0.4278437
vn 0.3441223 -0.8357809 -0.4278437
vn 0.3441223 -0.8357809 -0.4278437
vn 0.8357809 -0.3441223 -0.4278437
vn 0.8357809 -0.3441223 -0.4278437
vn 0.8357809 -0.3441223 -0.4278437
vn 0.8357809 -0.3441223 -0.4278437
vn 0.8357809 0.3427536 -0.4289409
vn 0.8357809 0.3427536 -0.4289409
vn 0.8357809 0.3427536 -0.4289409
vn 0.8357809 0.3427536 -0.4289409
vn 0.3441223 0.8344122 -0.4305068
vn 0.3441223 0.8344122 -0.4305068
vn 0.3441223 0.8344122 -0.4305068
vn 0.3441223 0.8344122 -0.4305068
vn -0.1547666 0.3789051 -0.9124025
vn -0.1547666 0.3789051 -0.9124025
vn -0.1547666 0.3789051 -0.9124025
vn -0.3789051 0.1547666 -0.9124025
vn -0.3789051 0.1547666 -0.9124025
vn -0.3789051 0.1547666 -0.9124025
vn -0.3789051 -0.1561352 -0.9121693
vn -0.3789051 -0.1561352 -0.9121693
vn -0.3789051 -0.1561352 -0.9121693
vn -0.1547666 -0.3802736 -0.9118329
vn -0.1547666 -0.3802736 -0.9118329
vn -0.1547666 -0.3802736 -0.9118329
vn 0.1561352 -0.3802736 -0.9115996
vn 0.1561352 -0.3802736 -0.9115996
vn 0.1561352 -0.3802736 -0.9115996
vn 0.3802736 -0.1561352 -0.9115996
vn 0.3802736 -0.1561352 -0.9115996
vn 0.3802736 -0.1561352 -0.9115996
vn 0.3802736 0.1547666 -0.9118329
vn 0.3802736 0.1547666 -0.9118329
vn 0.3802736 0.1547666 -0.9118329
vn 0.1561352 0.3789051 -0.9121693
vn 0.1561352 0.3789051 -0.9121693
vn 0.1561352 0.3789051 -0.9121693
vn -0.00293088 0.00293088 0.9999914
vn -0.00293088 0.00293088 0.9999914
vn -0.00293088 0.00293088 0.9999914
vn -0.00293088 0.00293088 0.9999914
vn -0.00293088 0.00293088 0.9999914
vn -0.00293088 0.00293088 0.9999914
vn -0.00293088 0.00293088 0.9999914
vn -0.00293088 0.00293088 0.9999914
vn -0.00293088 0.00293088 0.9999914
vn -0.00293088 0.00293088 0.9999914
vn -0.00293088 0.00293088 0.9999914
vn -0.00293088 0.00293088 0.9999914
vn -0.00293088 0.00293088 0.9999914
vn -0.00293088 0.00293088 0.9999914
vn -0.00293088 0.00293088 0.9999914
vn -0.00293088 0.00293088 0.9999914
vn -0.3644445 0.8777939 0.3108989
vn -0.3644445 0.8777939 0.3108989
vn -0.3644445 0.8777939 0.3108989
vn -0.3644445 0.8777939 0.3108989
vn -0.8777939 0.3644445 0.3108988
vn -0.8777939 0.3644445 0.3108988
vn -0.8777939 0.3644445 0.3108988
vn -0.8777939 0.3644445 0.3108988
vn -0.8777939 -0.3658131 0.3092874
vn -0.8777939 -0.3658131 0.3092874
vn -0.8777939 -0.3658131 0.3092874
vn -0.8777939 -0.3658131 0.3092874
vn -0.3644445 -0.8791625 0.3070072
vn -0.3644445 -0.8791625 0.3070072
vn -0.3644445 -0.8791625 0.3070072
vn -0.3644445 -0.8791625 0.3070072
vn 0.3658131 -0.8791625 0.3053751
vn 0.3658131 -0.8791625 0.3053751
vn 0.3658131 -0.8791625 0.3053751
vn 0.3658131 -0.8791625 0.3053751
vn 0.8791625 -0.3658131 0.3053752
vn 0.8791625 -0.3658131 0.3053752
vn 0.8791625 -0.3658131 0.3053752
vn 0.8791625 -0.3658131 0.3053752
vn 0.8791625 0.3644445 0.3070072
vn 0.8791625 0.3644445 0.3070072
vn 0.8791625 0.3644445 0.3070072
vn 0.8791625 0.3644445 0.3070072
vn 0.3658131 0.8777939 0.3092873
vn 0.3658131 0.8777939 0.3092873
vn 0.3658131 0.8777939 0.3092873
vn 0.3658131 0.8777939 0.3092873
vn 0.3513526 -0.8502414 0.3919706
vn 0.3513526 -0.8502414 0.3919706
vn 0.3513526 -0.8502414 0.3919706
vn 0.3513526 -0.8502414 0.3919706
vn -0.3499839 -0.8502414 0.3931931
vn -0.3499839 -0.8502414 0.3931931
vn -0.3499839 -0.8502414 0.3931931
vn -0.3499839 -0.8502414 0.3931931
vn -0.8488728 -0.3513526 0.3949258
vn -0.8488728 -0.3513526 0.3949258
vn -0.8488728 -0.3513526 0.3949258
vn -0.8488728 -0.3513526 0.3949258
vn -0.8488728 0.3499839 0.3961392
vn -0.8488728 0.3499839 0.3961392
vn -0.8488728 0.3499839 0.3961392
vn -0.8488728 0.3499839 0.3961392
vn -0.3499839 0.8488728 0.3961392
vn -0.3499839 0.8488728 0.3961392
vn -0.3499839 0.8488728 0.3961392
vn -0.3499839 0.8488728 0.3961392
vn 0.3513526 0.8488728 0.3949258
vn 0.3513526 0.8488728 0.3949258
vn 0.3513526 0.8488728 0.3949258
vn 0.3513526 0.8488728 0.3949258
vn 0.8502414 0.3499839 0.3931931
vn 0.8502414 0.3499839 0.3931931
vn 0.8502414 0.3499839 0.3931931
vn 0.8502414 0.3499839 0.3931931
vn 0.8502414 -0.3513526 0.3919705
vn 0.8502414 -0.3513526 0.3919705
vn 0.8502414 -0.3513526 0.3919705
vn 0.8502414 -0.3513526 0.3919705
vn -0.2559904 -0.9659258 -0.03816098
vn -0.2559904 -0.9659258 -0.03816098
vn -0.2559904 -0.9659258 -0.03816098
vn -0.2559904 -0.9659258 -0.03816098
vn -0.7042674 0.7042674 -0.08952607
vn -0.7042674 0.7042674 -0.08952607
vn -0.7042674 0.7042674 -0.08952607
vn -0.7042674 0.7042674 -0.08952607
vn 0.9659258 0.2559904 -0.03816098
vn 0.9659258 0.2559904 -0.03816098
vn 0.9659258 0.2559904 -0.03816098
vn 0.9659258 0.2559904 -0.03816098
vn -0.00293088 0.00293088 -0.9999914
vn -0.00293088 0.00293088 -0.9999914
vn -0.00293088 0.00293088 -0.9999914
vn -0.00293088 0.00293088 0.9999914
vn -0.00293088 0.00293088 0.9999914
vn -0.00293088 0.00293088 0.9999914
g Sphere002_0
f 3/3/3 2/2/2 1/1/1
f 4/4/4 3/3/3 1/1/1
f 7/7/7 6/6/6 5/5/5
f 8/8/8 7/7/7 5/5/5
f 11/11/11 10/10/10 9/9/9
f 12/12/12 11/11/11 9/9/9
f 15/15/15 14/14/14 13/13/13
f 16/16/16 15/15/15 13/13/13
f 19/19/19 18/18/18 17/17/17
f 20/20/20 19/19/19 17/17/17
f 23/23/23 22/22/22 21/21/21
f 24/24/24 23/23/23 21/21/21
f 27/27/27 26/26/26 25/25/25
f 28/28/28 27/27/27 25/25/25
f 31/31/31 30/30/30 29/29/29
f 32/32/32 31/31/31 29/29/29
f 35/35/35 34/34/34 33/33/33
f 36/36/36 35/35/35 33/33/33
f 39/39/39 38/38/38 37/37/37
f 40/40/40 39/39/39 37/37/37
f 43/43/43 42/42/42 41/41/41
f 44/44/44 43/43/43 41/41/41
f 47/47/47 46/46/46 45/45/45
f 48/48/48 47/47/47 45/45/45
f 51/51/51 50/50/50 49/49/49
f 52/52/52 51/51/51 49/49/49
f 55/55/55 54/54/54 53/53/53
f 56/56/56 55/55/55 53/53/53
f 59/59/59 58/58/58 57/57/57
f 60/60/60 59/59/59 57/57/57
f 63/63/63 62/62/62 61/61/61
f 64/64/64 63/63/63 61/61/61
f 67/67/67 66/66/66 65/65/65
f 68/68/68 67/67/67 65/65/65
f 71/71/71 70/70/70 69/69/69
f 72/72/72 71/71/71 69/69/69
f 75/75/75 74/74/74 73/73/73
f 76/76/76 75/75/75 73/73/73
f 79/79/79 78/78/78 77/77/77
f 80/80/80 79/79/79 77/77/77
f 83/83/83 82/82/82 81/81/81
f 84/84/84 83/83/83 81/81/81
f 87/87/87 86/86/86 85/85/85
f 88/88/88 87/87/87 85/85/85
f 91/91/91 90/90/90 89/89/89
f 92/92/92 91/91/91 89/89/89
f 95/95/95 94/94/94 93/93/93
f 96/96/96 95/95/95 93/93/93
f 99/99/99 98/98/98 97/97/97
f 102/102/102 101/101/101 100/100/100
f 105/105/105 104/104/104 103/103/103
f 108/108/108 107/107/107 106/106/106
f 111/111/111 110/110/110 109/109/109
f 114/114/114 113/113/113 112/112/112
f 117/117/117 116/116/116 115/115/115
f 120/120/120 119/119/119 118/118/118
f 123/123/123 122/122/122 121/121/121
f 124/124/124 123/123/123 121/121/121
f 125/125/125 123/123/123 124/124/124
f 126/126/126 125/125/125 124/124/124
f 127/127/127 125/125/125 126/126/126
f 128/128/128 127/127/127 126/126/126
f 129/129/129 127/127/127 128/128/128
f 130/130/130 129/129/129 128/128/128
f 131/131/131 129/129/129 130/130/130
f 132/132/132 131/131/131 130/130/130
f 133/133/133 131/131/131 132/132/132
f 134/134/134 133/133/133 132/132/132
f 135/135/135 133/133/133 134/134/134
f 136/136/136 135/135/135 134/134/134
f 122/122/122 135/135/135 136/136/136
f 121/121/121 122/122/122 136/136/136
f 139/139/139 138/138/138 137/137/137
f 140/140/140 139/139/139 137/137/137
f 143/143/143 142/142/142 141/141/141
f 144/144/144 143/143/143 141/141/141
f 147/147/147 146/146/146 145/145/145
f 148/148/148 147/147/147 145/145/145
f 151/151/151 150/150/150 149/149/149
f 152/152/152 151/151/151 149/149/149
f 155/155/155 154/154/154 153/153/153
f 156/156/156 155/155/155 153/153/153
f 159/159/159 158/158/158 157/157/157
f 160/160/160 159/159/159 157/157/157
f 163/163/163 162/162/162 161/161/161
f 164/164/164 163/163/163 161/161/161
f 167/167/167 166/166/166 165/165/165
f 168/168/168 167/167/167 165/165/165
f 171/171/171 170/170/170 169/169/169
f 172/172/172 171/171/171 169/169/169
f 175/175/175 174/174/174 173/173/173
f 176/176/176 175/175/175 173/173/173
f 179/179/179 178/178/178 177/177/177
f 180/180/180 179/179/179 177/177/177
f 183/183/183 182/182/182 181/181/181
f 184/184/184 183/183/183 181/181/181
f 187/187/187 186/186/186 185/185/185
f 188/188/188 187/187/187 185/185/185
f 191/191/191 190/190/190 189/189/189
f 192/192/192 191/191/191 189/189/189
f 195/195/195 194/194/194 193/193/193
f 196/196/196 195/195/195 193/193/193
f 199/199/199 198/198/198 197/197/197
f 200/200/200 199/199/199 197/197/197
f 203/203/203 202/202/202 201/201/201
f 204/204/204 203/203/203 201/201/201
f 207/207/207 206/206/206 205/205/205
f 208/208/208 207/207/207 205/205/205
f 211/211/211 210/210/210 209/209/209
f 212/212/212 211/211/211 209/209/209
f 215/215/215 214/214/214 213/213/213
f 218/218/218 217/217/217 216/216/216
