g Sphere001
v 0.225502 1.744194 -6.007566
v -0.8742275 1.288713 -6.007566
v -2.053413 2.467899 -6.861338
v 0.225502 3.412262 -6.861338
v -0.8742275 1.288713 -6.007566
v -1.329708 0.1884785 -6.007566
v -2.997774 0.1884785 -6.861338
v -2.053413 2.467899 -6.861338
v -1.329708 0.1884785 -6.007566
v -0.8742275 -0.911253 -6.007566
v -2.053413 -2.090441 -6.861338
v -2.997774 0.1884785 -6.861338
v -0.8742275 -0.911253 -6.007566
v 0.225502 -1.366732 -6.007566
v 0.225502 -3.034801 -6.861338
v -2.053413 -2.090441 -6.861338
v 0.225502 -1.366732 -6.007566
v 1.325741 -0.911253 -6.007566
v 2.504927 -2.090441 -6.861338
v 0.225502 -3.034801 -6.861338
v 1.325741 -0.911253 -6.007566
v 1.781219 0.1884785 -6.007566
v 3.449287 0.1884785 -6.861338
v 2.504927 -2.090441 -6.861338
v 1.781219 0.1884785 -6.007566
v 1.325741 1.288713 -6.007566
v 2.504927 2.467899 -6.861338
v 3.449287 0.1884785 -6.861338
v 1.325741 1.288713 -6.007566
v 0.225502 1.744194 -6.007566
v 0.225502 3.412262 -6.861338
v 2.504927 2.467899 -6.861338
v 0.225502 3.412262 -6.861338
v -2.053413 2.467899 -6.861338
v -2.997774 3.412262 -9.042578
v 0.225502 4.747324 -9.042578
v -2.053413 2.467899 -6.861338
v -2.997774 0.1884785 -6.861338
v -4.332838 0.1884785 -9.042578
v -2.997774 3.412262 -9.042578
v -2.997774 0.1884785 -6.861338
v -2.053413 -2.090441 -6.861338
v -2.997774 -3.034801 -9.042578
v -4.332838 0.1884785 -9.042578
v -2.053413 -2.090441 -6.861338
v 0.225502 -3.034801 -6.861338
v 0.225502 -4.369862 -9.042578
v -2.997774 -3.034801 -9.042578
v 0.225502 -3.034801 -6.861338
v 2.504927 -2.090441 -6.861338
v 3.449287 -3.034801 -9.042578
v 0.225502 -4.369862 -9.042578
v 2.504927 -2.090441 -6.861338
v 3.449287 0.1884785 -6.861338
v 4.784349 0.1884785 -9.042578
v 3.449287 -3.034801 -9.042578
v 3.449287 0.1884785 -6.861338
v 2.504927 2.467899 -6.861338
v 3.449287 3.412262 -9.042578
v 4.784349 0.1884785 -9.042578
v 2.504927 2.467899 -6.861338
v 0.225502 3.412262 -6.861338
v 0.225502 4.747324 -9.042578
v 3.449287 3.412262 -9.042578
v 0.225502 4.747324 -9.042578
v -2.997774 3.412262 -9.042578
v -2.053413 2.467899 -11.65653
v 0.225502 3.412262 -11.65653
v -2.997774 3.412262 -9.042578
v -4.332838 0.1884785 -9.042578
v -2.997774 0.1884785 -11.65653
v -2.053413 2.467899 -11.65653
v -4.332838 0.1884785 -9.042578
v -2.997774 -3.034801 -9.042578
v -2.053413 -2.090441 -11.65653
v -2.997774 0.1884785 -11.65653
v -2.997774 -3.034801 -9.042578
v 0.225502 -4.369862 -9.042578
v 0.225502 -3.034801 -11.65653
v -2.053413 -2.090441 -11.65653
v 0.225502 -4.369862 -9.042578
v 3.449287 -3.034801 -9.042578
v 2.504927 -2.090441 -11.65653
v 0.225502 -3.034801 -11.65653
v 3.449287 -3.034801 -9.042578
v 4.784349 0.1884785 -9.042578
v 3.449287 0.1884785 -11.65653
v 2.504927 -2.090441 -11.65653
v 4.784349 0.1884785 -9.042578
v 3.449287 3.412262 -9.042578
v 2.504927 2.467899 -11.65653
v 3.449287 0.1884785 -11.65653
v 3.449287 3.412262 -9.042578
v 0.225502 4.747324 -9.042578
v 0.225502 3.412262 -11.65653
v 2.504927 2.467899 -11.65653
v 0.225502 0.1884785 -12.99159
v 0.225502 3.412262 -11.65653
v -2.053413 2.467899 -11.65653
v 0.225502 0.1884785 -12.99159
v -2.053413 2.467899 -11.65653
v -2.997774 0.1884785 -11.65653
v 0.225502 0.1884785 -12.99159
v -2.997774 0.1884785 -11.65653
v -2.053413 -2.090441 -11.65653
v 0.225502 0.1884785 -12.99159
v -2.053413 -2.090441 -11.65653
v 0.225502 -3.034801 -11.65653
v 0.225502 0.1884785 -12.99159
v 0.225502 -3.034801 -11.65653
v 2.504927 -2.090441 -11.65653
v 0.225502 0.1884785 -12.99159
v 2.504927 -2.090441 -11.65653
v 3.449287 0.1884785 -11.65653
v 0.225502 0.1884785 -12.99159
v 3.449287 0.1884785 -11.65653
v 2.504927 2.467899 -11.65653
v 0.225502 0.1884785 -12.99159
v 2.504927 2.467899 -11.65653
v 0.225502 3.412262 -11.65653
v 0.225502 1.535685 -5.421007
v 0.225502 1.152576 -5.421007
v -0.4561977 0.8701782 -5.421007
v -0.72645 1.140936 -5.421007
v -0.738596 0.1884785 -5.421007
v -1.121199 0.1884785 -5.421007
v -0.4561977 -0.4932232 -5.421007
v -0.72645 -0.7639828 -5.421007
v 0.225502 -0.7756214 -5.421007
v 0.225502 -1.158226 -5.421007
v 0.9072056 -0.4932232 -5.421007
v 1.177963 -0.7639828 -5.421007
v 1.189602 0.1884785 -5.421007
v 1.572712 0.1884785 -5.421007
v 0.9072056 0.8701782 -5.421007
v 1.177963 1.140936 -5.421007
v 0.225502 1.744194 -6.007566
v 0.225502 1.535685 -5.421007
v -0.72645 1.140936 -5.421007
v -0.8742275 1.288713 -6.007566
v -0.8742275 1.288713 -6.007566
v -0.72645 1.140936 -5.421007
v -1.121199 0.1884785 -5.421007
v -1.329708 0.1884785 -6.007566
v -1.329708 0.1884785 -6.007566
v -1.121199 0.1884785 -5.421007
v -0.72645 -0.7639828 -5.421007
v -0.8742275 -0.911253 -6.007566
v -0.8742275 -0.911253 -6.007566
v -0.72645 -0.7639828 -5.421007
v 0.225502 -1.158226 -5.421007
v 0.225502 -1.366732 -6.007566
v 0.225502 -1.366732 -6.007566
v 0.225502 -1.158226 -5.421007
v 1.177963 -0.7639828 -5.421007
v 1.325741 -0.911253 -6.007566
v 1.325741 -0.911253 -6.007566
v 1.177963 -0.7639828 -5.421007
v 1.572712 0.1884785 -5.421007
v 1.781219 0.1884785 -6.007566
v 1.781219 0.1884785 -6.007566
v 1.572712 0.1884785 -5.421007
v 1.177963 1.140936 -5.421007
v 1.325741 1.288713 -6.007566
v 1.325741 1.288713 -6.007566
v 1.177963 1.140936 -5.421007
v 0.225502 1.535685 -5.421007
v 0.225502 1.744194 -6.007566
v -0.2654018 0.6793842 -6.007566
v -0.4561977 0.8701782 -5.421007
v 0.225502 1.152576 -5.421007
v 0.225502 0.8828316 -6.007566
v 0.225502 0.8828316 -6.007566
v 0.225502 1.152576 -5.421007
v 0.9072056 0.8701782 -5.421007
v 0.7164078 0.6793842 -6.007566
v 0.7164078 0.6793842 -6.007566
v 0.9072056 0.8701782 -5.421007
v 1.189602 0.1884785 -5.421007
v 0.919857 0.1884785 -6.007566
v 0.919857 0.1884785 -6.007566
v 1.189602 0.1884785 -5.421007
v 0.9072056 -0.4932232 -5.421007
v 0.7164078 -0.3024292 -6.007566
v 0.7164078 -0.3024292 -6.007566
v 0.9072056 -0.4932232 -5.421007
v 0.225502 -0.7756214 -5.421007
v 0.225502 -0.5053711 -6.007566
v 0.225502 -0.5053711 -6.007566
v 0.225502 -0.7756214 -5.421007
v -0.4561977 -0.4932232 -5.421007
v -0.2654018 -0.3024292 -6.007566
v -0.2654018 -0.3024292 -6.007566
v -0.4561977 -0.4932232 -5.421007
v -0.738596 0.1884785 -5.421007
v -0.4683437 0.1884785 -6.007566
v -0.4683437 0.1884785 -6.007566
v -0.738596 0.1884785 -5.421007
v -0.4561977 0.8701782 -5.421007
v -0.2654018 0.6793842 -6.007566
v 0.08784676 -0.07620621 -16.34139
v -0.08574104 -0.02964783 -16.34139
v -0.08574104 -0.02964783 0.05436516
v 0.08784676 -0.07620621 0.05436516
v -0.08574104 -0.02964783 -16.34139
v 0.04128647 0.09738159 -16.34139
v 0.04128647 0.09738159 0.05436516
v -0.08574104 -0.02964783 0.05436516
v 0.04128647 0.09738159 -16.34139
v 0.08784676 -0.07620621 -16.34139
v 0.08784676 -0.07620621 0.05436516
v 0.04128647 0.09738159 0.05436516
v -0.08574104 -0.02964783 -16.34139
v 0.08784676 -0.07620621 -16.34139
v 0.04128647 0.09738159 -16.34139
v 0.04128647 0.09738159 0.05436516
v 0.08784676 -0.07620621 0.05436516
v -0.08574104 -0.02964783 0.05436516
v -0.22188 -1.564108 -28.4192
v 0.1556625 -1.564108 -28.4192
v 0.1556625 1.706745 -28.4192
v -0.22188 1.706745 -28.4192
v -0.22188 -1.564108 -16.27307
v -0.22188 1.706745 -16.27307
v 0.1556625 1.706745 -16.27307
v 0.1556625 -1.564108 -16.27307
v -0.22188 -1.564108 -28.4192
v -0.22188 -1.564108 -16.27307
v 0.1556625 -1.564108 -16.27307
v 0.1556625 -1.564108 -28.4192
v 0.1556625 1.706745 -28.4192
v 0.1556625 1.706745 -16.27307
v -0.22188 1.706745 -16.27307
v -0.22188 1.706745 -28.4192
v 0.1556625 -1.564108 -28.4192
v 0.1556625 -1.066116 -27.9207
v 0.1556625 1.208246 -27.9207
v 0.1556625 1.706745 -28.4192
v 0.1556625 1.208246 -16.77106
v 0.1556625 1.706745 -16.27307
v 0.1556625 -1.066116 -16.77106
v 0.1556625 -1.564108 -16.27307
v -0.22188 1.706745 -28.4192
v -0.22188 1.208246 -27.9207
v -0.22188 -1.066116 -27.9207
v -0.22188 -1.564108 -28.4192
v -0.22188 -1.066116 -16.77106
v -0.22188 -1.564108 -16.27307
v -0.22188 1.208246 -16.77106
v -0.22188 1.706745 -16.27307
vn -0.1843123 0.450977 0.8732976
vn -0.1843123 0.450977 0.8732976
vn -0.1843123 0.450977 0.8732976
vn -0.1843123 0.450977 0.8732976
vn -0.450977 0.1843123 0.8732976
vn -0.450977 0.1843123 0.8732976
vn -0.450977 0.1843123 0.8732976
vn -0.450977 0.1843123 0.8732976
vn -0.450977 -0.1843123 0.8732976
vn -0.450977 -0.1843123 0.8732976
vn -0.450977 -0.1843123 0.8732976
vn -0.450977 -0.1843123 0.8732976
vn -0.1843123 -0.4509769 0.8732976
vn -0.1843123 -0.4509769 0.8732976
vn -0.1843123 -0.4509769 0.8732976
vn -0.1843123 -0.4509769 0.8732976
vn 0.1843123 -0.4509769 0.8732977
vn 0.1843123 -0.4509769 0.8732977
vn 0.1843123 -0.4509769 0.8732977
vn 0.1843123 -0.4509769 0.8732977
vn 0.4509769 -0.1843123 0.8732977
vn 0.4509769 -0.1843123 0.8732977
vn 0.4509769 -0.1843123 0.8732977
vn 0.4509769 -0.1843123 0.8732977
vn 0.4509769 0.1843123 0.8732977
vn 0.4509769 0.1843123 0.8732977
vn 0.4509769 0.1843123 0.8732977
vn 0.4509769 0.1843123 0.8732977
vn 0.1843123 0.450977 0.8732976
vn 0.1843123 0.450977 0.8732976
vn 0.1843123 0.450977 0.8732976
vn 0.1843123 0.450977 0.8732976
vn -0.3333309 0.8039155 0.492555
vn -0.3333309 0.8039155 0.492555
vn -0.3333309 0.8039155 0.492555
vn -0.3333309 0.8039155 0.492555
vn -0.8039155 0.3333309 0.492555
vn -0.8039155 0.3333309 0.492555
vn -0.8039155 0.3333309 0.492555
vn -0.8039155 0.3333309 0.492555
vn -0.8039155 -0.3333308 0.4925551
vn -0.8039155 -0.3333308 0.4925551
vn -0.8039155 -0.3333308 0.4925551
vn -0.8039155 -0.3333308 0.4925551
vn -0.3333309 -0.8039154 0.492555
vn -0.3333309 -0.8039154 0.492555
vn -0.3333309 -0.8039154 0.492555
vn -0.3333309 -0.8039154 0.492555
vn 0.3333308 -0.8039154 0.4925551
vn 0.3333308 -0.8039154 0.4925551
vn 0.3333308 -0.8039154 0.4925551
vn 0.3333308 -0.8039154 0.4925551
vn 0.8039154 -0.3333308 0.4925551
vn 0.8039154 -0.3333308 0.4925551
vn 0.8039154 -0.3333308 0.4925551
vn 0.8039154 -0.3333308 0.4925551
vn 0.8039154 0.3333309 0.4925551
vn 0.8039154 0.3333309 0.4925551
vn 0.8039154 0.3333309 0.4925551
vn 0.8039154 0.3333309 0.4925551
vn 0.3333308 0.8039155 0.4925551
vn 0.3333308 0.8039155 0.4925551
vn 0.3333308 0.8039155 0.4925551
vn 0.3333308 0.8039155 0.4925551
vn -0.349017 0.8352878 -0.424831
vn -0.349017 0.8352878 -0.424831
vn -0.349017 0.8352878 -0.424831
vn -0.349017 0.8352878 -0.424831
vn -0.8352878 0.349017 -0.424831
vn -0.8352878 0.349017 -0.424831
vn -0.8352878 0.349017 -0.424831
vn -0.8352878 0.349017 -0.424831
vn -0.8352878 -0.3490169 -0.4248311
vn -0.8352878 -0.3490169 -0.4248311
vn -0.8352878 -0.3490169 -0.4248311
vn -0.8352878 -0.3490169 -0.4248311
vn -0.349017 -0.8352877 -0.4248311
vn -0.349017 -0.8352877 -0.4248311
vn -0.349017 -0.8352877 -0.4248311
vn -0.349017 -0.8352877 -0.4248311
vn 0.3490169 -0.8352877 -0.4248312
vn 0.3490169 -0.8352877 -0.4248312
vn 0.3490169 -0.8352877 -0.4248312
vn 0.3490169 -0.8352877 -0.4248312
vn 0.8352877 -0.3490169 -0.4248312
vn 0.8352877 -0.3490169 -0.4248312
vn 0.8352877 -0.3490169 -0.4248312
vn 0.8352877 -0.3490169 -0.4248312
vn 0.8352877 0.349017 -0.4248311
vn 0.8352877 0.349017 -0.4248311
vn 0.8352877 0.349017 -0.4248311
vn 0.8352877 0.349017 -0.4248311
vn 0.3490169 0.8352878 -0.4248311
vn 0.3490169 0.8352878 -0.4248311
vn 0.3490169 0.8352878 -0.4248311
vn 0.3490169 0.8352878 -0.4248311
vn -0.15294 0.3803893 -0.9120928
vn -0.15294 0.3803893 -0.9120928
vn -0.15294 0.3803893 -0.9120928
vn -0.3803893 0.15294 -0.9120928
vn -0.3803893 0.15294 -0.9120928
vn -0.3803893 0.15294 -0.9120928
vn -0.3803893 -0.15294 -0.9120928
vn -0.3803893 -0.15294 -0.9120928
vn -0.3803893 -0.15294 -0.9120928
vn -0.15294 -0.3803892 -0.9120929
vn -0.15294 -0.3803892 -0.9120929
vn -0.15294 -0.3803892 -0.9120929
vn 0.15294 -0.3803892 -0.9120929
vn 0.15294 -0.3803892 -0.9120929
vn 0.15294 -0.3803892 -0.9120929
vn 0.3803892 -0.15294 -0.9120929
vn 0.3803892 -0.15294 -0.9120929
vn 0.3803892 -0.15294 -0.9120929
vn 0.3803892 0.15294 -0.9120929
vn 0.3803892 0.15294 -0.9120929
vn 0.3803892 0.15294 -0.9120929
vn 0.15294 0.3803893 -0.9120928
vn 0.15294 0.3803893 -0.9120928
vn 0.15294 0.3803893 -0.9120928
vn -0.003921628 0.003921628 0.9999846
vn -0.003921628 0.003921628 0.9999846
vn -0.003921628 0.003921628 0.9999846
vn -0.003921628 0.003921628 0.9999846
vn -0.003921628 0.003921628 0.9999846
vn -0.003921628 0.003921628 0.9999846
vn -0.003921628 0.003921628 0.9999846
vn -0.003921628 0.003921628 0.9999846
vn -0.003921628 0.003921628 0.9999846
vn -0.003921628 0.003921628 0.9999846
vn -0.003921628 0.003921628 0.9999846
vn -0.003921628 0.003921628 0.9999846
vn -0.003921628 0.003921628 0.9999846
vn -0.003921628 0.003921628 0.9999846
vn -0.003921628 0.003921628 0.9999846
vn -0.003921628 0.003921628 0.9999846
vn -0.3647032 0.8745031 0.3197434
vn -0.3647032 0.8745031 0.3197434
vn -0.3647032 0.8745031 0.3197434
vn -0.3647032 0.8745031 0.3197434
vn -0.8745031 0.3647032 0.3197435
vn -0.8745031 0.3647032 0.3197435
vn -0.8745031 0.3647032 0.3197435
vn -0.8745031 0.3647032 0.3197435
vn -0.8745031 -0.3647031 0.3197436
vn -0.8745031 -0.3647031 0.3197436
vn -0.8745031 -0.3647031 0.3197436
vn -0.8745031 -0.3647031 0.3197436
vn -0.3647032 -0.8745031 0.3197434
vn -0.3647032 -0.8745031 0.3197434
vn -0.3647032 -0.8745031 0.3197434
vn -0.3647032 -0.8745031 0.3197434
vn 0.3647031 -0.8745031 0.3197436
vn 0.3647031 -0.8745031 0.3197436
vn 0.3647031 -0.8745031 0.3197436
vn 0.3647031 -0.8745031 0.3197436
vn 0.8745031 -0.3647031 0.3197436
vn 0.8745031 -0.3647031 0.3197436
vn 0.8745031 -0.3647031 0.3197436
vn 0.8745031 -0.3647031 0.3197436
vn 0.8745031 0.3647032 0.3197435
vn 0.8745031 0.3647032 0.3197435
vn 0.8745031 0.3647032 0.3197435
vn 0.8745031 0.3647032 0.3197435
vn 0.3647031 0.8745031 0.3197436
vn 0.3647031 0.8745031 0.3197436
vn 0.3647031 0.8745031 0.3197436
vn 0.3647031 0.8745031 0.3197436
vn 0.3490169 -0.8509739 0.3924673
vn 0.3490169 -0.8509739 0.3924673
vn 0.3490169 -0.8509739 0.3924673
vn 0.3490169 -0.8509739 0.3924673
vn -0.349017 -0.8509739 0.3924673
vn -0.349017 -0.8509739 0.3924673
vn -0.349017 -0.8509739 0.3924673
vn -0.349017 -0.8509739 0.3924673
vn -0.850974 -0.3490169 0.3924672
vn -0.850974 -0.3490169 0.3924672
vn -0.850974 -0.3490169 0.3924672
vn -0.850974 -0.3490169 0.3924672
vn -0.850974 0.349017 0.3924671
vn -0.850974 0.349017 0.3924671
vn -0.850974 0.349017 0.3924671
vn -0.850974 0.349017 0.3924671
vn -0.349017 0.850974 0.3924671
vn -0.349017 0.850974 0.3924671
vn -0.349017 0.850974 0.3924671
vn -0.349017 0.850974 0.3924671
vn 0.3490169 0.850974 0.3924672
vn 0.3490169 0.850974 0.3924672
vn 0.3490169 0.850974 0.3924672
vn 0.3490169 0.850974 0.3924672
vn 0.8509739 0.349017 0.3924673
vn 0.8509739 0.349017 0.3924673
vn 0.8509739 0.349017 0.3924673
vn 0.8509739 0.349017 0.3924673
vn 0.8509739 -0.3490169 0.3924674
vn 0.8509739 -0.3490169 0.3924674
vn 0.8509739 -0.3490169 0.3924674
vn 0.8509739 -0.3490169 0.3924674
vn -0.2549001 -0.9686201 0
vn -0.2549001 -0.9686201 0
vn -0.2549001 -0.9686201 0
vn -0.2549001 -0.9686201 0
vn -0.7097986 0.7097986 0
vn -0.7097986 0.7097986 0
vn -0.7097986 0.7097986 0
vn -0.7097986 0.7097986 0
vn 0.9686201 0.2549001 0
vn 0.9686201 0.2549001 0
vn 0.9686201 0.2549001 0
vn 0.9686201 0.2549001 0
vn 0.003921509 0.003921628 -0.9999846
vn 0.003921509 0.003921628 -0.9999846
vn 0.003921509 0.003921628 -0.9999846
vn -0.003921628 0.003921628 0.9999846
vn -0.003921628 0.003921628 0.9999846
vn -0.003921628 0.003921628 0.9999846
vn -0.003921628 0.003921628 -0.9999846
vn -0.003921628 0.003921628 -0.9999846
vn -0.003921628 0.003921628 -0.9999846
vn -0.003921628 0.003921628 -0.9999846
vn -0.003921628 0.003921628 0.9999846
vn -0.003921628 0.003921628 0.9999846
vn -0.003921628 0.003921628 0.9999846
vn -0.003921628 0.003921628 0.9999846
vn -0.003921628 -0.9999924 0
vn -0.003921628 -0.9999924 0
vn -0.003921628 -0.9999924 0
vn -0.003921628 -0.9999924 0
vn -0.003921628 0.9999924 0
vn -0.003921628 0.9999924 0
vn -0.003921628 0.9999924 0
vn -0.003921628 0.9999924 0
vn 0.9999924 0.003921628 0
vn 0.9999924 0.003921628 0
vn 0.9999924 0.003921628 0
vn 0.9999924 0.003921628 0
vn 0.9999924 0.003921628 0
vn 0.9999924 0.003921628 0
vn 0.9999924 0.003921628 0
vn 0.9999924 0.003921628 0
vn -0.9999924 0.003921628 0
vn -0.9999924 0.003921628 0
vn -0.9999924 0.003921628 0
vn -0.9999924 0.003921628 0
vn -0.9999924 0.003921628 0
vn -0.9999924 0.003921628 0
vn -0.9999924 0.003921628 0
vn -0.9999924 0.003921628 0
g Sphere001_0
f 3/3/3 2/2/2 1/1/1
f 4/4/4 3/3/3 1/1/1
f 7/7/7 6/6/6 5/5/5
f 8/8/8 7/7/7 5/5/5
f 11/11/11 10/10/10 9/9/9
f 12/12/12 11/11/11 9/9/9
f 15/15/15 14/14/14 13/13/13
f 16/16/16 15/15/15 13/13/13
f 19/19/19 18/18/18 17/17/17
f 20/20/20 19/19/19 17/17/17
f 23/23/23 22/22/22 21/21/21
f 24/24/24 23/23/23 21/21/21
f 27/27/27 26/26/26 25/25/25
f 28/28/28 27/27/27 25/25/25
f 31/31/31 30/30/30 29/29/29
f 32/32/32 31/31/31 29/29/29
f 35/35/35 34/34/34 33/33/33
f 36/36/36 35/35/35 33/33/33
f 39/39/39 38/38/38 37/37/37
f 40/40/40 39/39/39 37/37/37
f 43/43/43 42/42/42 41/41/41
f 44/44/44 43/43/43 41/41/41
f 47/47/47 46/46/46 45/45/45
f 48/48/48 47/47/47 45/45/45
f 51/51/51 50/50/50 49/49/49
f 52/52/52 51/51/51 49/49/49
f 55/55/55 54/54/54 53/53/53
f 56/56/56 55/55/55 53/53/53
f 59/59/59 58/58/58 57/57/57
f 60/60/60 59/59/59 57/57/57
f 63/63/63 62/62/62 61/61/61
f 64/64/64 63/63/63 61/61/61
f 67/67/67 66/66/66 65/65/65
f 68/68/68 67/67/67 65/65/65
f 71/71/71 70/70/70 69/69/69
f 72/72/72 71/71/71 69/69/69
f 75/75/75 74/74/74 73/73/73
f 76/76/76 75/75/75 73/73/73
f 79/79/79 78/78/78 77/77/77
f 80/80/80 79/79/79 77/77/77
f 83/83/83 82/82/82 81/81/81
f 84/84/84 83/83/83 81/81/81
f 87/87/87 86/86/86 85/85/85
f 88/88/88 87/87/87 85/85/85
f 91/91/91 90/90/90 89/89/89
f 92/92/92 91/91/91 89/89/89
f 95/95/95 94/94/94 93/93/93
f 96/96/96 95/95/95 93/93/93
f 99/99/99 98/98/98 97/97/97
f 102/102/102 101/101/101 100/100/100
f 105/105/105 104/104/104 103/103/103
f 108/108/108 107/107/107 106/106/106
f 111/111/111 110/110/110 109/109/109
f 114/114/114 113/113/113 112/112/112
f 117/117/117 116/116/116 115/115/115
f 120/120/120 119/119/119 118/118/118
f 123/123/123 122/122/122 121/121/121
f 124/124/124 123/123/123 121/121/121
f 125/125/125 123/123/123 124/124/124
f 126/126/126 125/125/125 124/124/124
f 127/127/127 125/125/125 126/126/126
f 128/128/128 127/127/127 126/126/126
f 129/129/129 127/127/127 128/128/128
f 130/130/130 129/129/129 128/128/128
f 131/131/131 129/129/129 130/130/130
f 132/132/132 131/131/131 130/130/130
f 133/133/133 131/131/131 132/132/132
f 134/134/134 133/133/133 132/132/132
f 135/135/135 133/133/133 134/134/134
f 136/136/136 135/135/135 134/134/134
f 122/122/122 135/135/135 136/136/136
f 121/121/121 122/122/122 136/136/136
f 139/139/139 138/138/138 137/137/137
f 140/140/140 139/139/139 137/137/137
f 143/143/143 142/142/142 141/141/141
f 144/144/144 143/143/143 141/141/141
f 147/147/147 146/146/146 145/145/145
f 148/148/148 147/147/147 145/145/145
f 151/151/151 150/150/150 149/149/149
f 152/152/152 151/151/151 149/149/149
f 155/155/155 154/154/154 153/153/153
f 156/156/156 155/155/155 153/153/153
f 159/159/159 158/158/158 157/157/157
f 160/160/160 159/159/159 157/157/157
f 163/163/163 162/162/162 161/161/161
f 164/164/164 163/163/163 161/161/161
f 167/167/167 166/166/166 165/165/165
f 168/168/168 167/167/167 165/165/165
f 171/171/171 170/170/170 169/169/169
f 172/172/172 171/171/171 169/169/169
f 175/175/175 174/174/174 173/173/173
f 176/176/176 175/175/175 173/173/173
f 179/179/179 178/178/178 177/177/177
f 180/180/180 179/179/179 177/177/177
f 183/183/183 182/182/182 181/181/181
f 184/184/184 183/183/183 181/181/181
f 187/187/187 186/186/186 185/185/185
f 188/188/188 187/187/187 185/185/185
f 191/191/191 190/190/190 189/189/189
f 192/192/192 191/191/191 189/189/189
f 195/195/195 194/194/194 193/193/193
f 196/196/196 195/195/195 193/193/193
f 199/199/199 198/198/198 197/197/197
f 200/200/200 199/199/199 197/197/197
f 203/203/203 202/202/202 201/201/201
f 204/204/204 203/203/203 201/201/201
f 207/207/207 206/206/206 205/205/205
f 208/208/208 207/207/207 205/205/205
f 211/211/211 210/210/210 209/209/209
f 212/212/212 211/211/211 209/209/209
f 215/215/215 214/214/214 213/213/213
f 218/218/218 217/217/217 216/216/216
f 221/221/221 220/220/220 219/219/219
f 222/222/222 221/221/221 219/219/219
f 225/225/225 224/224/224 223/223/223
f 226/226/226 225/225/225 223/223/223
f 229/229/229 228/228/228 227/227/227
f 230/230/230 229/229/229 227/227/227
f 233/233/233 232/232/232 231/231/231
f 234/234/234 233/233/233 231/231/231
f 237/237/237 236/236/236 235/235/235
f 238/238/238 237/237/237 235/235/235
f 239/239/239 237/237/237 238/238/238
f 240/240/240 239/239/239 238/238/238
f 241/241/241 239/239/239 240/240/240
f 242/242/242 241/241/241 240/240/240
f 236/236/236 241/241/241 242/242/242
f 235/235/235 236/236/236 242/242/242
f 245/245/245 244/244/244 243/243/243
f 246/246/246 245/245/245 243/243/243
f 247/247/247 245/245/245 246/246/246
f 248/248/248 247/247/247 246/246/246
f 249/249/249 247/247/247 248/248/248
f 250/250/250 249/249/249 248/248/248
f 244/244/244 249/249/249 250/250/250
f 243/243/243 244/244/244 250/250/250
g Sphere001_1
f 239/239/239 241/241/241 236/236/236
f 237/237/237 239/239/239 236/236/236
f 247/247/247 249/249/249 244/244/244
f 245/245/245 247/247/247 244/244/244
