# exported by gszh.xyz
mtllib gszh_xyz.mtl
g SM_Env_SteppingStone_04
v 0.360565185546875 0.1572149395942688 -0.3159637451171875
v 0.421539306640625 0 -0.2867584228515625
v 0.18798065185546875 0 -1.1119308471679688
v 0.360565185546875 0.1572149395942688 -0.3159637451171875
v 0.18798065185546875 0 -1.1119308471679688
v 0.150665283203125 0.1572149395942688 -1.05755615234375
v -0.7193145751953125 0.1572149395942688 -0.841156005859375
v 0.360565185546875 0.1572149395942688 -0.3159637451171875
v 0.150665283203125 0.1572149395942688 -1.05755615234375
v -0.7193145751953125 0.1572149395942688 -0.841156005859375
v 0.150665283203125 0.1572149395942688 -1.05755615234375
v -0.4536399841308594 0.1572149395942688 -1.1281967163085938
v -0.7800483703613281 0 -0.8711471557617188
v -0.7193145751953125 0.1572149395942688 -0.841156005859375
v -0.4536399841308594 0.1572149395942688 -1.1281967163085938
v -0.7800483703613281 0 -0.8711471557617188
v -0.4536399841308594 0.1572149395942688 -1.1281967163085938
v -0.48442840576171875 0 -1.1905288696289062
v 0.18798065185546875 0 -1.1119308471679688
v -0.48442840576171875 0 -1.1905288696289062
v -0.4536399841308594 0.1572149395942688 -1.1281967163085938
v 0.18798065185546875 0 -1.1119308471679688
v -0.4536399841308594 0.1572149395942688 -1.1281967163085938
v 0.150665283203125 0.1572149395942688 -1.05755615234375
v -0.6836700439453125 0 -0.07967376708984375
v 0.1776885986328125 0 0.05910491943359375
v 0.14141464233398438 0.1572149395942688 -0.005126953125
v -0.6836700439453125 0 -0.07967376708984375
v 0.14141464233398438 0.1572149395942688 -0.005126953125
v -0.6326980590820312 0.1572149395942688 -0.129852294921875
v 0.14141464233398438 0.1572149395942688 -0.005126953125
v 0.360565185546875 0.1572149395942688 -0.3159637451171875
v -0.7193145751953125 0.1572149395942688 -0.841156005859375
v 0.14141464233398438 0.1572149395942688 -0.005126953125
v -0.7193145751953125 0.1572149395942688 -0.841156005859375
v -0.6326980590820312 0.1572149395942688 -0.129852294921875
v 0.1776885986328125 0 0.05910491943359375
v 0.421539306640625 0 -0.2867584228515625
v 0.360565185546875 0.1572149395942688 -0.3159637451171875
v 0.1776885986328125 0 0.05910491943359375
v 0.360565185546875 0.1572149395942688 -0.3159637451171875
v 0.14141464233398438 0.1572149395942688 -0.005126953125
v -0.6326980590820312 0.1572149395942688 -0.129852294921875
v -0.7193145751953125 0.1572149395942688 -0.841156005859375
v -0.7800483703613281 0 -0.8711471557617188
v -0.6326980590820312 0.1572149395942688 -0.129852294921875
v -0.7800483703613281 0 -0.8711471557617188
v -0.6836700439453125 0 -0.07967376708984375
v -1.1899986267089844 0.1572149395942688 0.54205322265625
v -1.2273941040039062 0 0.5983734130859375
v -0.8094825744628906 0 0.5778350830078125
v -1.1899986267089844 0.1572149395942688 0.54205322265625
v -0.8094825744628906 0 0.5778350830078125
v -0.8514747619628906 0.1572149395942688 0.5339508056640625
v -0.9459609985351562 0.1572149395942688 -0.2451629638671875
v -1.1899986267089844 0.1572149395942688 0.54205322265625
v -0.8514747619628906 0.1572149395942688 0.5339508056640625
v -0.9459609985351562 0.1572149395942688 -0.2451629638671875
v -0.8514747619628906 0.1572149395942688 0.5339508056640625
v -0.6243705749511719 0.1572149395942688 0.1053924560546875
v -0.9078216552734375 0 -0.30113983154296875
v -0.9459609985351562 0.1572149395942688 -0.2451629638671875
v -0.6243705749511719 0.1572149395942688 0.1053924560546875
v -0.9078216552734375 0 -0.30113983154296875
v -0.6243705749511719 0.1572149395942688 0.1053924560546875
v -0.5567855834960938 0 0.100982666015625
v -0.8094825744628906 0 0.5778350830078125
v -0.5567855834960938 0 0.100982666015625
v -0.6243705749511719 0.1572149395942688 0.1053924560546875
v -0.8094825744628906 0 0.5778350830078125
v -0.6243705749511719 0.1572149395942688 0.1053924560546875
v -0.8514747619628906 0.1572149395942688 0.5339508056640625
v -1.3437347412109375 0 -0.1596527099609375
v -1.4062118530273438 0 0.4333648681640625
v -1.3443489074707031 0.1572149395942688 0.39318084716796875
v -1.3437347412109375 0 -0.1596527099609375
v -1.3443489074707031 0.1572149395942688 0.39318084716796875
v -1.2904930114746094 0.1572149395942688 -0.1118927001953125
v -1.3443489074707031 0.1572149395942688 0.39318084716796875
v -1.1899986267089844 0.1572149395942688 0.54205322265625
v -0.9459609985351562 0.1572149395942688 -0.2451629638671875
v -1.3443489074707031 0.1572149395942688 0.39318084716796875
v -0.9459609985351562 0.1572149395942688 -0.2451629638671875
v -1.2904930114746094 0.1572149395942688 -0.1118927001953125
v -1.4062118530273438 0 0.4333648681640625
v -1.2273941040039062 0 0.5983734130859375
v -1.1899986267089844 0.1572149395942688 0.54205322265625
v -1.4062118530273438 0 0.4333648681640625
v -1.1899986267089844 0.1572149395942688 0.54205322265625
v -1.3443489074707031 0.1572149395942688 0.39318084716796875
v -1.2904930114746094 0.1572149395942688 -0.1118927001953125
v -0.9459609985351562 0.1572149395942688 -0.2451629638671875
v -0.9078216552734375 0 -0.30113983154296875
v -1.2904930114746094 0.1572149395942688 -0.1118927001953125
v -0.9078216552734375 0 -0.30113983154296875
v -1.3437347412109375 0 -0.1596527099609375
v 0.718780517578125 0.1572149395942688 -0.38291168212890625
v 0.7074966430664062 0 -0.316253662109375
v 1.0810089111328125 0 -0.5048294067382812
v 0.718780517578125 0.1572149395942688 -0.38291168212890625
v 1.0810089111328125 0 -0.5048294067382812
v 1.024810791015625 0.1572149395942688 -0.527862548828125
v 0.6219062805175781 0.1572149395942688 -1.2013702392578125
v 0.718780517578125 0.1572149395942688 -0.38291168212890625
v 1.024810791015625 0.1572149395942688 -0.527862548828125
v 0.6219062805175781 0.1572149395942688 -1.2013702392578125
v 1.024810791015625 0.1572149395942688 -0.527862548828125
v 1.0581932067871094 0.1572149395942688 -1.01171875
v 0.6340103149414062 0 -1.2680130004882812
v 0.6219062805175781 0.1572149395942688 -1.2013702392578125
v 1.0581932067871094 0.1572149395942688 -1.01171875
v 0.6340103149414062 0 -1.2680130004882812
v 1.0581932067871094 0.1572149395942688 -1.01171875
v 1.1181526184082031 0 -1.0432205200195312
v 1.0810089111328125 0 -0.5048294067382812
v 1.1181526184082031 0 -1.0432205200195312
v 1.0581932067871094 0.1572149395942688 -1.01171875
v 1.0810089111328125 0 -0.5048294067382812
v 1.0581932067871094 0.1572149395942688 -1.01171875
v 1.024810791015625 0.1572149395942688 -0.527862548828125
v 0.29319000244140625 0 -0.9616165161132812
v 0.47705841064453125 0 -0.3943634033203125
v 0.5172576904296875 0.1572149395942688 -0.4562225341796875
v 0.29319000244140625 0 -0.9616165161132812
v 0.5172576904296875 0.1572149395942688 -0.4562225341796875
v 0.3612480163574219 0.1572149395942688 -0.939605712890625
v 0.5172576904296875 0.1572149395942688 -0.4562225341796875
v 0.718780517578125 0.1572149395942688 -0.38291168212890625
v 0.6219062805175781 0.1572149395942688 -1.2013702392578125
v 0.5172576904296875 0.1572149395942688 -0.4562225341796875
v 0.6219062805175781 0.1572149395942688 -1.2013702392578125
v 0.3612480163574219 0.1572149395942688 -0.939605712890625
v 0.47705841064453125 0 -0.3943634033203125
v 0.7074966430664062 0 -0.316253662109375
v 0.718780517578125 0.1572149395942688 -0.38291168212890625
v 0.47705841064453125 0 -0.3943634033203125
v 0.718780517578125 0.1572149395942688 -0.38291168212890625
v 0.5172576904296875 0.1572149395942688 -0.4562225341796875
v 0.3612480163574219 0.1572149395942688 -0.939605712890625
v 0.6219062805175781 0.1572149395942688 -1.2013702392578125
v 0.6340103149414062 0 -1.2680130004882812
v 0.3612480163574219 0.1572149395942688 -0.939605712890625
v 0.6340103149414062 0 -1.2680130004882812
v 0.29319000244140625 0 -0.9616165161132812
v 0.5650520324707031 0.1572149395942688 0.12551116943359375
v 0.49759674072265625 0 0.13002777099609375
v 0.7678260803222656 0 0.4494781494140625
v 0.5650520324707031 0.1572149395942688 0.12551116943359375
v 0.7678260803222656 0 0.4494781494140625
v 0.7771682739257812 0.1572149395942688 0.38946533203125
v 1.3385848999023438 0.1572149395942688 -0.1589508056640625
v 0.5650520324707031 0.1572149395942688 0.12551116943359375
v 0.7771682739257812 0.1572149395942688 0.38946533203125
v 1.3385848999023438 0.1572149395942688 -0.1589508056640625
v 0.7771682739257812 0.1572149395942688 0.38946533203125
v 1.2555351257324219 0.1572149395942688 0.30947113037109375
v 1.4062118530273438 0 -0.16266632080078125
v 1.3385848999023438 0.1572149395942688 -0.1589508056640625
v 1.2555351257324219 0.1572149395942688 0.30947113037109375
v 1.4062118530273438 0 -0.16266632080078125
v 1.2555351257324219 0.1572149395942688 0.30947113037109375
v 1.3001060485839844 0 0.36046600341796875
v 0.7678260803222656 0 0.4494781494140625
v 1.3001060485839844 0 0.36046600341796875
v 1.2555351257324219 0.1572149395942688 0.30947113037109375
v 0.7678260803222656 0 0.4494781494140625
v 1.2555351257324219 0.1572149395942688 0.30947113037109375
v 0.7771682739257812 0.1572149395942688 0.38946533203125
v 1.0289878845214844 0 -0.42293548583984375
v 0.5200119018554688 0 -0.11225128173828125
v 0.5895195007324219 0.1572149395942688 -0.08753204345703125
v 1.0289878845214844 0 -0.42293548583984375
v 0.5895195007324219 0.1572149395942688 -0.08753204345703125
v 1.0234031677246094 0.1572149395942688 -0.35163116455078125
v 0.5895195007324219 0.1572149395942688 -0.08753204345703125
v 0.5650520324707031 0.1572149395942688 0.12551116943359375
v 1.3385848999023438 0.1572149395942688 -0.1589508056640625
v 0.5895195007324219 0.1572149395942688 -0.08753204345703125
v 1.3385848999023438 0.1572149395942688 -0.1589508056640625
v 1.0234031677246094 0.1572149395942688 -0.35163116455078125
v 0.5200119018554688 0 -0.11225128173828125
v 0.49759674072265625 0 0.13002777099609375
v 0.5650520324707031 0.1572149395942688 0.12551116943359375
v 0.5200119018554688 0 -0.11225128173828125
v 0.5650520324707031 0.1572149395942688 0.12551116943359375
v 0.5895195007324219 0.1572149395942688 -0.08753204345703125
v 1.0234031677246094 0.1572149395942688 -0.35163116455078125
v 1.3385848999023438 0.1572149395942688 -0.1589508056640625
v 1.4062118530273438 0 -0.16266632080078125
v 1.0234031677246094 0.1572149395942688 -0.35163116455078125
v 1.4062118530273438 0 -0.16266632080078125
v 1.0289878845214844 0 -0.42293548583984375
v -0.352783203125 0.18665340542793274 1.2127838134765625
v -0.39178466796875 0.02943846583366394 1.26800537109375
v 0.4608421325683594 0.02943846583366394 1.175933837890625
v -0.352783203125 0.18665340542793274 1.2127838134765625
v 0.4608421325683594 0.02943846583366394 1.175933837890625
v 0.413482666015625 0.18665340542793274 1.1300430297851562
v 0.3458366394042969 0.18665340542793274 0.23610687255859375
v -0.352783203125 0.18665340542793274 1.2127838134765625
v 0.413482666015625 0.18665340542793274 1.1300430297851562
v 0.3458366394042969 0.18665340542793274 0.23610687255859375
v 0.413482666015625 0.18665340542793274 1.1300430297851562
v 0.5843276977539062 0.18665340542793274 0.5460968017578125
v 0.3855705261230469 0.02943846583366394 0.18125152587890625
v 0.3458366394042969 0.18665340542793274 0.23610687255859375
v 0.5843276977539062 0.18665340542793274 0.5460968017578125
v 0.3855705261230469 0.02943846583366394 0.18125152587890625
v 0.5843276977539062 0.18665340542793274 0.5460968017578125
v 0.65093994140625 0.02943846583366394 0.52618408203125
v 0.4608421325683594 0.02943846583366394 1.175933837890625
v 0.65093994140625 0.02943846583366394 0.52618408203125
v 0.5843276977539062 0.18665340542793274 0.5460968017578125
v 0.4608421325683594 0.02943846583366394 1.175933837890625
v 0.5843276977539062 0.18665340542793274 0.5460968017578125
v 0.413482666015625 0.18665340542793274 1.1300430297851562
v -0.4108619689941406 0.02943846583366394 0.14373016357421875
v -0.6919326782226562 0.02943846583366394 0.9696807861328125
v -0.622528076171875 0.18665340542793274 0.9446792602539062
v -0.4108619689941406 0.02943846583366394 0.14373016357421875
v -0.622528076171875 0.18665340542793274 0.9446792602539062
v -0.36992645263671875 0.18665340542793274 0.20238494873046875
v -0.622528076171875 0.18665340542793274 0.9446792602539062
v -0.352783203125 0.18665340542793274 1.2127838134765625
v 0.3458366394042969 0.18665340542793274 0.23610687255859375
v -0.622528076171875 0.18665340542793274 0.9446792602539062
v 0.3458366394042969 0.18665340542793274 0.23610687255859375
v -0.36992645263671875 0.18665340542793274 0.20238494873046875
v -0.6919326782226562 0.02943846583366394 0.9696807861328125
v -0.39178466796875 0.02943846583366394 1.26800537109375
v -0.352783203125 0.18665340542793274 1.2127838134765625
v -0.6919326782226562 0.02943846583366394 0.9696807861328125
v -0.352783203125 0.18665340542793274 1.2127838134765625
v -0.622528076171875 0.18665340542793274 0.9446792602539062
v -0.36992645263671875 0.18665340542793274 0.20238494873046875
v 0.3458366394042969 0.18665340542793274 0.23610687255859375
v 0.3855705261230469 0.02943846583366394 0.18125152587890625
v -0.36992645263671875 0.18665340542793274 0.20238494873046875
v 0.3855705261230469 0.02943846583366394 0.18125152587890625
v -0.4108619689941406 0.02943846583366394 0.14373016357421875
vn 0.9330825805664062 0.35941872000694275 -0.013230251148343086
vn 0.929466187953949 0.3671511113643646 0.03595356270670891
vn 0.9157329797744751 0.3070076107978821 -0.2591899335384369
vn 0.9330825805664062 0.35941872000694275 -0.013230251148343086
vn 0.9157329797744751 0.3070076107978821 -0.2591899335384369
vn 0.9157329797744751 0.3070076107978821 -0.2591899335384369
vn 0 1 -2.2490740381186924e-9
vn 0 1 -1.4664794933949565e-9
vn 0 1 -4.2197343397276654e-9
vn 0 1 -2.2490740381186924e-9
vn 0 1 -4.2197343397276654e-9
vn 0 1 -4.219734783816875e-9
vn -0.9061778783798218 0.38388222455978394 -0.17741496860980988
vn -0.9119394421577454 0.3812190294265747 -0.151784285902977
vn -0.6783008575439453 0.38176730275154114 -0.627822995185852
vn -0.9061778783798218 0.38388222455978394 -0.17741496860980988
vn -0.6783008575439453 0.38176730275154114 -0.627822995185852
vn -0.6783008575439453 0.38176730275154114 -0.627822995185852
vn 0.10884874314069748 0.3478916585445404 -0.9311946034431458
vn 0.10884872823953629 0.347891628742218 -0.9311946034431458
vn 0.10884873569011688 0.347891628742218 -0.9311946034431458
vn 0.10884874314069748 0.3478916585445404 -0.9311946034431458
vn 0.10884873569011688 0.347891628742218 -0.9311946034431458
vn 0.10884872823953629 0.347891628742218 -0.9311946034431458
vn -0.1493334174156189 0.34425655007362366 0.926923394203186
vn -0.1493334323167801 0.34425655007362366 0.926923394203186
vn -0.1493334025144577 0.34425655007362366 0.926923394203186
vn -0.1493334174156189 0.34425655007362366 0.926923394203186
vn -0.1493334025144577 0.34425655007362366 0.926923394203186
vn -0.1493334025144577 0.34425655007362366 0.926923394203186
vn 0 1 0
vn 0 1 -1.4664794933949565e-9
vn 0 1 -2.2490740381186924e-9
vn 0 1 0
vn 0 1 -2.2490740381186924e-9
vn 0 1 0
vn 0.7524463534355164 0.3903537690639496 0.5305171608924866
vn 0.929466187953949 0.3671511113643646 0.03595356270670891
vn 0.9330825805664062 0.35941872000694275 -0.013230251148343086
vn 0.7524463534355164 0.3903537690639496 0.5305171608924866
vn 0.9330825805664062 0.35941872000694275 -0.013230251148343086
vn 0.7524462938308716 0.3903537392616272 0.5305172204971313
vn -0.9338704347610474 0.33904898166656494 0.11371822655200958
vn -0.9119394421577454 0.3812190294265747 -0.151784285902977
vn -0.9061778783798218 0.38388222455978394 -0.17741496860980988
vn -0.9338704347610474 0.33904898166656494 0.11371822655200958
vn -0.9061778783798218 0.38388222455978394 -0.17741496860980988
vn -0.9338704347610474 0.33904898166656494 0.11371822655200958
vn -0.22012391686439514 0.3630481958389282 0.9053957462310791
vn -0.2570374310016632 0.36966267228126526 0.8929060697555542
vn 0.03603466972708702 0.30392035841941833 0.9520156979560852
vn -0.22012391686439514 0.3630481958389282 0.9053957462310791
vn 0.03603466972708702 0.30392035841941833 0.9520156979560852
vn 0.03603466600179672 0.30392035841941833 0.9520156979560852
vn 0 1 5.276729608816311e-10
vn 0 1 5.36049871158184e-10
vn 0 1 0
vn 0 1 5.276729608816311e-10
vn 0 1 0
vn 0 1 0
vn 0.33254072070121765 0.3928714096546173 -0.8573614954948425
vn 0.24777841567993164 0.3916167914867401 -0.886138916015625
vn 0.6973201632499695 0.3541451096534729 -0.6231579780578613
vn 0.33254072070121765 0.3928714096546173 -0.8573614954948425
vn 0.6973201632499695 0.3541451096534729 -0.6231579780578613
vn 0.6973201632499695 0.3541450798511505 -0.6231579780578613
vn 0.8295825719833374 0.34428566694259644 0.4396136701107025
vn 0.8295825719833374 0.34428563714027405 0.4396136701107025
vn 0.8295825123786926 0.34428566694259644 0.4396136701107025
vn 0.8295825719833374 0.34428566694259644 0.4396136701107025
vn 0.8295825123786926 0.34428566694259644 0.4396136701107025
vn 0.8295825719833374 0.34428563714027405 0.4396136999130249
vn -0.9336854219436646 0.34416183829307556 -0.09891475737094879
vn -0.9336854219436646 0.34416183829307556 -0.09891475737094879
vn -0.9336854219436646 0.34416186809539795 -0.0989147499203682
vn -0.9336854219436646 0.34416183829307556 -0.09891475737094879
vn -0.9336854219436646 0.34416186809539795 -0.0989147499203682
vn -0.9336854219436646 0.34416186809539795 -0.09891476482152939
vn 0 1 1.4342147469648125e-9
vn 0 1 5.36049871158184e-10
vn 0 1 5.276729608816311e-10
vn 0 1 1.4342147469648125e-9
vn 0 1 5.276729608816311e-10
vn 0 1 1.4342147469648125e-9
vn -0.6276715397834778 0.4026423394680023 0.6662638783454895
vn -0.2570374310016632 0.36966267228126526 0.8929060697555542
vn -0.22012391686439514 0.3630481958389282 0.9053957462310791
vn -0.6276715397834778 0.4026423394680023 0.6662638783454895
vn -0.22012391686439514 0.3630481958389282 0.9053957462310791
vn -0.6276715397834778 0.40264230966567993 0.6662638783454895
vn -0.31561169028282166 0.31093963980674744 -0.8964964151382446
vn 0.24777841567993164 0.3916167914867401 -0.886138916015625
vn 0.33254072070121765 0.3928714096546173 -0.8573614954948425
vn -0.31561169028282166 0.31093963980674744 -0.8964964151382446
vn 0.33254072070121765 0.3928714096546173 -0.8573614954948425
vn -0.31561172008514404 0.31093961000442505 -0.8964964151382446
vn 0.16675995290279388 0.3630502223968506 0.9167255163192749
vn 0.12795677781105042 0.36966487765312195 0.9203124046325684
vn 0.4197700619697571 0.3039179742336273 0.8552350401878357
vn 0.16675995290279388 0.3630502223968506 0.9167255163192749
vn 0.4197700619697571 0.3039179742336273 0.8552350401878357
vn 0.4197700619697571 0.3039180338382721 0.8552350401878357
vn 0 1 -1.0553323770423617e-9
vn 0 1 -1.072091304621381e-9
vn 0 1 0
vn 0 1 -1.0553323770423617e-9
vn 0 1 0
vn 0 1 0
vn -0.04450835660099983 0.3928968906402588 -0.9185047745704651
vn -0.13364426791667938 0.3916414678096771 -0.9103604555130005
vn 0.3839491605758667 0.3541751205921173 -0.8527268171310425
vn -0.04450835660099983 0.3928968906402588 -0.9185047745704651
vn 0.3839491605758667 0.3541751205921173 -0.8527268171310425
vn 0.3839491605758667 0.3541751205921173 -0.8527268171310425
vn 0.9366534948348999 0.3442445695400238 0.06462141126394272
vn 0.9366534948348999 0.3442445397377014 0.06462140381336212
vn 0.9366534948348999 0.3442445695400238 0.06462141126394272
vn 0.9366534948348999 0.3442445695400238 0.06462141126394272
vn 0.9366534948348999 0.3442445695400238 0.06462141126394272
vn 0.9366534948348999 0.3442445695400238 0.06462141126394272
vn -0.8933144807815552 0.3442058861255646 0.28898370265960693
vn -0.8933144807815552 0.3442058861255646 0.2889837324619293
vn -0.8933144807815552 0.3442058861255646 0.2889837324619293
vn -0.8933144807815552 0.3442058861255646 0.28898370265960693
vn -0.8933144807815552 0.3442058861255646 0.2889837324619293
vn -0.8933144211769104 0.34420591592788696 0.2889837324619293
vn 0 1 -2.868530524224866e-9
vn 0 1 -1.072091304621381e-9
vn 0 1 -1.0553323770423617e-9
vn 0 1 -2.868530524224866e-9
vn 0 1 -1.0553323770423617e-9
vn 0 1 -2.868530302180261e-9
vn -0.30280569195747375 0.40264710783958435 0.863819420337677
vn 0.12795677781105042 0.36966487765312195 0.9203124046325684
vn 0.16675995290279388 0.3630502223968506 0.9167255163192749
vn -0.30280569195747375 0.40264710783958435 0.863819420337677
vn 0.16675995290279388 0.3630502223968506 0.9167255163192749
vn -0.30280566215515137 0.40264710783958435 0.863819420337677
vn -0.6526340246200562 0.31095755100250244 -0.690922737121582
vn -0.13364426791667938 0.3916414678096771 -0.9103604555130005
vn -0.04450835660099983 0.3928968906402588 -0.9185047745704651
vn -0.6526340246200562 0.31095755100250244 -0.690922737121582
vn -0.04450835660099983 0.3928968906402588 -0.9185047745704651
vn -0.6526340246200562 0.31095755100250244 -0.690922737121582
vn -0.8528599143028259 0.36305269598960876 0.3752634823322296
vn -0.8653689622879028 0.3696686029434204 0.33835145831108093
vn -0.7342417240142822 0.3039146959781647 0.607062578201294
vn -0.8528599143028259 0.36305269598960876 0.3752634823322296
vn -0.7342417240142822 0.3039146959781647 0.607062578201294
vn -0.7342417240142822 0.3039146661758423 0.607062578201294
vn 0 1 3.3220803885569694e-10
vn 0 1 2.7616253728268703e-10
vn 0 1 3.864819575483125e-9
vn 0 1 3.3220803885569694e-10
vn 0 1 3.864819575483125e-9
vn 0 1 3.864819575483125e-9
vn 0.8830220699310303 0.3928532898426056 -0.25678449869155884
vn 0.8543823957443237 0.3915952146053314 -0.3415902853012085
vn 0.9186239242553711 0.3541460335254669 0.1752445250749588
vn 0.8830220699310303 0.3928532898426056 -0.25678449869155884
vn 0.9186239242553711 0.3541460335254669 0.1752445250749588
vn 0.9186239242553711 0.3541460633277893 0.1752445250749588
vn 0.15484769642353058 0.3442721366882324 0.9260123372077942
vn 0.15484768152236938 0.3442721366882324 0.9260123372077942
vn 0.15484769642353058 0.3442721366882324 0.9260123372077942
vn 0.15484769642353058 0.3442721366882324 0.9260123372077942
vn 0.15484769642353058 0.3442721366882324 0.9260123372077942
vn 0.15484768152236938 0.34427210688591003 0.926012396812439
vn -0.48871910572052 0.34417787194252014 -0.8016827702522278
vn -0.48871910572052 0.34417784214019775 -0.8016827702522278
vn -0.48871907591819763 0.34417781233787537 -0.8016827702522278
vn -0.48871910572052 0.34417787194252014 -0.8016827702522278
vn -0.48871907591819763 0.34417781233787537 -0.8016827702522278
vn -0.48871910572052 0.34417787194252014 -0.8016827702522278
vn 0 1 -5.7369260453299376e-9
vn 0 1 2.7616253728268703e-10
vn 0 1 3.3220803885569694e-10
vn 0 1 -5.7369260453299376e-9
vn 0 1 3.3220803885569694e-10
vn 0 1 -5.736925601240728e-9
vn -0.9105386734008789 0.4026533365249634 -0.09375274181365967
vn -0.8653689622879028 0.3696686029434204 0.33835145831108093
vn -0.8528599143028259 0.36305269598960876 0.3752634823322296
vn -0.9105386734008789 0.4026533365249634 -0.09375274181365967
vn -0.8528599143028259 0.36305269598960876 0.3752634823322296
vn -0.9105386734008789 0.40265336632728577 -0.09375274181365967
vn 0.520319938659668 0.3109014928340912 -0.7953662276268005
vn 0.8543823957443237 0.3915952146053314 -0.3415902853012085
vn 0.8830220699310303 0.3928532898426056 -0.25678449869155884
vn 0.520319938659668 0.3109014928340912 -0.7953662276268005
vn 0.8830220699310303 0.3928532898426056 -0.25678449869155884
vn 0.5203199982643127 0.3109015226364136 -0.7953661680221558
vn -0.143219992518425 0.35941195487976074 0.9221231341362
vn -0.19109846651554108 0.36714473366737366 0.9103220105171204
vn 0.10217388719320297 0.3069950044155121 0.9462106227874756
vn -0.143219992518425 0.35941195487976074 0.9221231341362
vn 0.10217388719320297 0.3069950044155121 0.9462106227874756
vn 0.10217387974262238 0.3069950044155121 0.9462106227874756
vn 0 1 1.7562944432114591e-9
vn 0 1 2.4537596399198947e-9
vn 0 1 0
vn 0 1 1.7562944432114591e-9
vn 0 1 0
vn 0 1 0
vn 0.326650470495224 0.38391152024269104 -0.8636616468429565
vn 0.30235856771469116 0.3812490999698639 -0.8736294507980347
vn 0.7325342893600464 0.38180476427078247 -0.5635766983032227
vn 0.326650470495224 0.38391152024269104 -0.8636616468429565
vn 0.7325342893600464 0.38180476427078247 -0.5635766983032227
vn 0.7325342893600464 0.3818047344684601 -0.5635766983032227
vn 0.8998095393180847 0.3479064702987671 0.263256311416626
vn 0.8998095393180847 0.3479064702987671 0.2632562816143036
vn 0.8998095393180847 0.3479064702987671 0.2632562816143036
vn 0.8998095393180847 0.3479064702987671 0.263256311416626
vn 0.8998095393180847 0.3479064702987671 0.2632562816143036
vn 0.8998095393180847 0.3479064404964447 0.2632562816143036
vn -0.88881516456604 0.34427282214164734 -0.30246296525001526
vn -0.88881516456604 0.34427282214164734 -0.30246296525001526
vn -0.88881516456604 0.3442728519439697 -0.30246299505233765
vn -0.88881516456604 0.34427282214164734 -0.30246296525001526
vn -0.88881516456604 0.3442728519439697 -0.30246299505233765
vn -0.88881516456604 0.34427282214164734 -0.30246299505233765
vn 0 1 3.76069619889563e-9
vn 0 1 2.4537596399198947e-9
vn 0 1 1.7562944432114591e-9
vn 0 1 3.76069619889563e-9
vn 0 1 1.7562944432114591e-9
vn 0 1 3.76069575480642e-9
vn -0.6490229368209839 0.39036044478416443 0.6529838442802429
vn -0.19109846651554108 0.36714473366737366 0.9103220105171204
vn -0.143219992518425 0.35941195487976074 0.9221231341362
vn -0.6490229368209839 0.39036044478416443 0.6529838442802429
vn -0.143219992518425 0.35941195487976074 0.9221231341362
vn -0.6490229368209839 0.39036044478416443 0.6529838442802429
vn 0.04427776858210564 0.3390721082687378 -0.9397178292274475
vn 0.30235856771469116 0.3812490999698639 -0.8736294507980347
vn 0.326650470495224 0.38391152024269104 -0.8636616468429565
vn 0.04427776858210564 0.3390721082687378 -0.9397178292274475
vn 0.326650470495224 0.38391152024269104 -0.8636616468429565
vn 0.04427776485681534 0.3390721082687378 -0.9397178292274475
vt 0.44369152188301086 0.3265092968940735
vt 0.44369152188301086 0.3265092968940735
vt 0.44369152188301086 0.3265092968940735
vt 0.44369152188301086 0.3265092968940735
vt 0.44369152188301086 0.3265092968940735
vt 0.44369152188301086 0.3265092968940735
vt 0.44369152188301086 0.3265092968940735
vt 0.44369152188301086 0.3265092968940735
vt 0.44369152188301086 0.3265092968940735
vt 0.44369152188301086 0.3265092968940735
vt 0.44369152188301086 0.3265092968940735
vt 0.44369152188301086 0.3265092968940735
vt 0.44369152188301086 0.3265092968940735
vt 0.44369152188301086 0.3265092968940735
vt 0.44369152188301086 0.3265092968940735
vt 0.44369152188301086 0.3265092968940735
vt 0.44369152188301086 0.3265092968940735
vt 0.44369152188301086 0.3265092968940735
vt 0.44369152188301086 0.3265092968940735
vt 0.44369152188301086 0.3265092968940735
vt 0.44369152188301086 0.3265092968940735
vt 0.44369152188301086 0.3265092968940735
vt 0.44369152188301086 0.3265092968940735
vt 0.44369152188301086 0.3265092968940735
vt 0.44369152188301086 0.3265092968940735
vt 0.44369152188301086 0.3265092968940735
vt 0.44369152188301086 0.3265092968940735
vt 0.44369152188301086 0.3265092968940735
vt 0.44369152188301086 0.3265092968940735
vt 0.44369152188301086 0.3265092968940735
vt 0.44369152188301086 0.3265092968940735
vt 0.44369152188301086 0.3265092968940735
vt 0.44369152188301086 0.3265092968940735
vt 0.44369152188301086 0.3265092968940735
vt 0.44369152188301086 0.3265092968940735
vt 0.44369152188301086 0.3265092968940735
vt 0.44369152188301086 0.3265092968940735
vt 0.44369152188301086 0.3265092968940735
vt 0.44369152188301086 0.3265092968940735
vt 0.44369152188301086 0.3265092968940735
vt 0.44369152188301086 0.3265092968940735
vt 0.44369152188301086 0.3265092968940735
vt 0.44369152188301086 0.3265092968940735
vt 0.44369152188301086 0.3265092968940735
vt 0.44369152188301086 0.3265092968940735
vt 0.44369152188301086 0.3265092968940735
vt 0.44369152188301086 0.3265092968940735
vt 0.44369152188301086 0.3265092968940735
vt 0.44369152188301086 0.3265092968940735
vt 0.44369152188301086 0.3265092968940735
vt 0.44369152188301086 0.3265092968940735
vt 0.44369152188301086 0.3265092968940735
vt 0.44369152188301086 0.3265092968940735
vt 0.44369152188301086 0.3265092968940735
vt 0.44369152188301086 0.3265092968940735
vt 0.44369152188301086 0.3265092968940735
vt 0.44369152188301086 0.3265092968940735
vt 0.44369152188301086 0.3265092968940735
vt 0.44369152188301086 0.3265092968940735
vt 0.44369152188301086 0.3265092968940735
vt 0.44369152188301086 0.3265092968940735
vt 0.44369152188301086 0.3265092968940735
vt 0.44369152188301086 0.3265092968940735
vt 0.44369152188301086 0.3265092968940735
vt 0.44369152188301086 0.3265092968940735
vt 0.44369152188301086 0.3265092968940735
vt 0.44369152188301086 0.3265092968940735
vt 0.44369152188301086 0.3265092968940735
vt 0.44369152188301086 0.3265092968940735
vt 0.44369152188301086 0.3265092968940735
vt 0.44369152188301086 0.3265092968940735
vt 0.44369152188301086 0.3265092968940735
vt 0.44369152188301086 0.3265092968940735
vt 0.44369152188301086 0.3265092968940735
vt 0.44369152188301086 0.3265092968940735
vt 0.44369152188301086 0.3265092968940735
vt 0.44369152188301086 0.3265092968940735
vt 0.44369152188301086 0.3265092968940735
vt 0.44369152188301086 0.3265092968940735
vt 0.44369152188301086 0.3265092968940735
vt 0.44369152188301086 0.3265092968940735
vt 0.44369152188301086 0.3265092968940735
vt 0.44369152188301086 0.3265092968940735
vt 0.44369152188301086 0.3265092968940735
vt 0.44369152188301086 0.3265092968940735
vt 0.44369152188301086 0.3265092968940735
vt 0.44369152188301086 0.3265092968940735
vt 0.44369152188301086 0.3265092968940735
vt 0.44369152188301086 0.3265092968940735
vt 0.44369152188301086 0.3265092968940735
vt 0.44369152188301086 0.3265092968940735
vt 0.44369152188301086 0.3265092968940735
vt 0.44369152188301086 0.3265092968940735
vt 0.44369152188301086 0.3265092968940735
vt 0.44369152188301086 0.3265092968940735
vt 0.44369152188301086 0.3265092968940735
vt 0.44369152188301086 0.3265092968940735
vt 0.44369152188301086 0.3265092968940735
vt 0.44369152188301086 0.3265092968940735
vt 0.44369152188301086 0.3265092968940735
vt 0.44369152188301086 0.3265092968940735
vt 0.44369152188301086 0.3265092968940735
vt 0.44369152188301086 0.3265092968940735
vt 0.44369152188301086 0.3265092968940735
vt 0.44369152188301086 0.3265092968940735
vt 0.44369152188301086 0.3265092968940735
vt 0.44369152188301086 0.3265092968940735
vt 0.44369152188301086 0.3265092968940735
vt 0.44369152188301086 0.3265092968940735
vt 0.44369152188301086 0.3265092968940735
vt 0.44369152188301086 0.3265092968940735
vt 0.44369152188301086 0.3265092968940735
vt 0.44369152188301086 0.3265092968940735
vt 0.44369152188301086 0.3265092968940735
vt 0.44369152188301086 0.3265092968940735
vt 0.44369152188301086 0.3265092968940735
vt 0.44369152188301086 0.3265092968940735
vt 0.44369152188301086 0.3265092968940735
vt 0.44369152188301086 0.3265092968940735
vt 0.44369152188301086 0.3265092968940735
vt 0.44369152188301086 0.3265092968940735
vt 0.44369152188301086 0.3265092968940735
vt 0.44369152188301086 0.3265092968940735
vt 0.44369152188301086 0.3265092968940735
vt 0.44369152188301086 0.3265092968940735
vt 0.44369152188301086 0.3265092968940735
vt 0.44369152188301086 0.3265092968940735
vt 0.44369152188301086 0.3265092968940735
vt 0.44369152188301086 0.3265092968940735
vt 0.44369152188301086 0.3265092968940735
vt 0.44369152188301086 0.3265092968940735
vt 0.44369152188301086 0.3265092968940735
vt 0.44369152188301086 0.3265092968940735
vt 0.44369152188301086 0.3265092968940735
vt 0.44369152188301086 0.3265092968940735
vt 0.44369152188301086 0.3265092968940735
vt 0.44369152188301086 0.3265092968940735
vt 0.44369152188301086 0.3265092968940735
vt 0.44369152188301086 0.3265092968940735
vt 0.44369152188301086 0.3265092968940735
vt 0.44369152188301086 0.3265092968940735
vt 0.44369152188301086 0.3265092968940735
vt 0.44369152188301086 0.3265092968940735
vt 0.44369152188301086 0.3265092968940735
vt 0.44369152188301086 0.3265092968940735
vt 0.44369152188301086 0.3265092968940735
vt 0.44369152188301086 0.3265092968940735
vt 0.44369152188301086 0.3265092968940735
vt 0.44369152188301086 0.3265092968940735
vt 0.44369152188301086 0.3265092968940735
vt 0.44369152188301086 0.3265092968940735
vt 0.44369152188301086 0.3265092968940735
vt 0.44369152188301086 0.3265092968940735
vt 0.44369152188301086 0.3265092968940735
vt 0.44369152188301086 0.3265092968940735
vt 0.44369152188301086 0.3265092968940735
vt 0.44369152188301086 0.3265092968940735
vt 0.44369152188301086 0.3265092968940735
vt 0.44369152188301086 0.3265092968940735
vt 0.44369152188301086 0.3265092968940735
vt 0.44369152188301086 0.3265092968940735
vt 0.44369152188301086 0.3265092968940735
vt 0.44369152188301086 0.3265092968940735
vt 0.44369152188301086 0.3265092968940735
vt 0.44369152188301086 0.3265092968940735
vt 0.44369152188301086 0.3265092968940735
vt 0.44369152188301086 0.3265092968940735
vt 0.44369152188301086 0.3265092968940735
vt 0.44369152188301086 0.3265092968940735
vt 0.44369152188301086 0.3265092968940735
vt 0.44369152188301086 0.3265092968940735
vt 0.44369152188301086 0.3265092968940735
vt 0.44369152188301086 0.3265092968940735
vt 0.44369152188301086 0.3265092968940735
vt 0.44369152188301086 0.3265092968940735
vt 0.44369152188301086 0.3265092968940735
vt 0.44369152188301086 0.3265092968940735
vt 0.44369152188301086 0.3265092968940735
vt 0.44369152188301086 0.3265092968940735
vt 0.44369152188301086 0.3265092968940735
vt 0.44369152188301086 0.3265092968940735
vt 0.44369152188301086 0.3265092968940735
vt 0.44369152188301086 0.3265092968940735
vt 0.44369152188301086 0.3265092968940735
vt 0.44369152188301086 0.3265092968940735
vt 0.44369152188301086 0.3265092968940735
vt 0.44369152188301086 0.3265092968940735
vt 0.44369152188301086 0.3265092968940735
vt 0.44369152188301086 0.3265092968940735
vt 0.44369152188301086 0.3265092968940735
vt 0.44369152188301086 0.3265092968940735
vt 0.44369152188301086 0.3265092968940735
vt 0.44369152188301086 0.3265092968940735
vt 0.44369152188301086 0.3265092968940735
vt 0.44369152188301086 0.3265092968940735
vt 0.44369152188301086 0.3265092968940735
vt 0.44369152188301086 0.3265092968940735
vt 0.44369152188301086 0.3265092968940735
vt 0.44369152188301086 0.3265092968940735
vt 0.44369152188301086 0.3265092968940735
vt 0.44369152188301086 0.3265092968940735
vt 0.44369152188301086 0.3265092968940735
vt 0.44369152188301086 0.3265092968940735
vt 0.44369152188301086 0.3265092968940735
vt 0.44369152188301086 0.3265092968940735
vt 0.44369152188301086 0.3265092968940735
vt 0.44369152188301086 0.3265092968940735
vt 0.44369152188301086 0.3265092968940735
vt 0.44369152188301086 0.3265092968940735
vt 0.44369152188301086 0.3265092968940735
vt 0.44369152188301086 0.3265092968940735
vt 0.44369152188301086 0.3265092968940735
vt 0.44369152188301086 0.3265092968940735
vt 0.44369152188301086 0.3265092968940735
vt 0.44369152188301086 0.3265092968940735
vt 0.44369152188301086 0.3265092968940735
vt 0.44369152188301086 0.3265092968940735
vt 0.44369152188301086 0.3265092968940735
vt 0.44369152188301086 0.3265092968940735
vt 0.44369152188301086 0.3265092968940735
vt 0.44369152188301086 0.3265092968940735
vt 0.44369152188301086 0.3265092968940735
vt 0.44369152188301086 0.3265092968940735
vt 0.44369152188301086 0.3265092968940735
vt 0.44369152188301086 0.3265092968940735
vt 0.44369152188301086 0.3265092968940735
vt 0.44369152188301086 0.3265092968940735
vt 0.44369152188301086 0.3265092968940735
vt 0.44369152188301086 0.3265092968940735
vt 0.44369152188301086 0.3265092968940735
vt 0.44369152188301086 0.3265092968940735
vt 0.44369152188301086 0.3265092968940735
vt 0.44369152188301086 0.3265092968940735
vt 0.44369152188301086 0.3265092968940735
vt 0.44369152188301086 0.3265092968940735
vt 0.44369152188301086 0.3265092968940735
vt 0.44369152188301086 0.3265092968940735
vt 0.44369152188301086 0.3265092968940735
vt 0.44369152188301086 0.3265092968940735
vt 0.44369152188301086 0.3265092968940735
usemtl lambert358
f 1/1/1 2/2/2 3/3/3
f 4/4/4 5/5/5 6/6/6
f 7/7/7 8/8/8 9/9/9
f 10/10/10 11/11/11 12/12/12
f 13/13/13 14/14/14 15/15/15
f 16/16/16 17/17/17 18/18/18
f 19/19/19 20/20/20 21/21/21
f 22/22/22 23/23/23 24/24/24
f 25/25/25 26/26/26 27/27/27
f 28/28/28 29/29/29 30/30/30
f 31/31/31 32/32/32 33/33/33
f 34/34/34 35/35/35 36/36/36
f 37/37/37 38/38/38 39/39/39
f 40/40/40 41/41/41 42/42/42
f 43/43/43 44/44/44 45/45/45
f 46/46/46 47/47/47 48/48/48
f 49/49/49 50/50/50 51/51/51
f 52/52/52 53/53/53 54/54/54
f 55/55/55 56/56/56 57/57/57
f 58/58/58 59/59/59 60/60/60
f 61/61/61 62/62/62 63/63/63
f 64/64/64 65/65/65 66/66/66
f 67/67/67 68/68/68 69/69/69
f 70/70/70 71/71/71 72/72/72
f 73/73/73 74/74/74 75/75/75
f 76/76/76 77/77/77 78/78/78
f 79/79/79 80/80/80 81/81/81
f 82/82/82 83/83/83 84/84/84
f 85/85/85 86/86/86 87/87/87
f 88/88/88 89/89/89 90/90/90
f 91/91/91 92/92/92 93/93/93
f 94/94/94 95/95/95 96/96/96
f 97/97/97 98/98/98 99/99/99
f 100/100/100 101/101/101 102/102/102
f 103/103/103 104/104/104 105/105/105
f 106/106/106 107/107/107 108/108/108
f 109/109/109 110/110/110 111/111/111
f 112/112/112 113/113/113 114/114/114
f 115/115/115 116/116/116 117/117/117
f 118/118/118 119/119/119 120/120/120
f 121/121/121 122/122/122 123/123/123
f 124/124/124 125/125/125 126/126/126
f 127/127/127 128/128/128 129/129/129
f 130/130/130 131/131/131 132/132/132
f 133/133/133 134/134/134 135/135/135
f 136/136/136 137/137/137 138/138/138
f 139/139/139 140/140/140 141/141/141
f 142/142/142 143/143/143 144/144/144
f 145/145/145 146/146/146 147/147/147
f 148/148/148 149/149/149 150/150/150
f 151/151/151 152/152/152 153/153/153
f 154/154/154 155/155/155 156/156/156
f 157/157/157 158/158/158 159/159/159
f 160/160/160 161/161/161 162/162/162
f 163/163/163 164/164/164 165/165/165
f 166/166/166 167/167/167 168/168/168
f 169/169/169 170/170/170 171/171/171
f 172/172/172 173/173/173 174/174/174
f 175/175/175 176/176/176 177/177/177
f 178/178/178 179/179/179 180/180/180
f 181/181/181 182/182/182 183/183/183
f 184/184/184 185/185/185 186/186/186
f 187/187/187 188/188/188 189/189/189
f 190/190/190 191/191/191 192/192/192
f 193/193/193 194/194/194 195/195/195
f 196/196/196 197/197/197 198/198/198
f 199/199/199 200/200/200 201/201/201
f 202/202/202 203/203/203 204/204/204
f 205/205/205 206/206/206 207/207/207
f 208/208/208 209/209/209 210/210/210
f 211/211/211 212/212/212 213/213/213
f 214/214/214 215/215/215 216/216/216
f 217/217/217 218/218/218 219/219/219
f 220/220/220 221/221/221 222/222/222
f 223/223/223 224/224/224 225/225/225
f 226/226/226 227/227/227 228/228/228
f 229/229/229 230/230/230 231/231/231
f 232/232/232 233/233/233 234/234/234
f 235/235/235 236/236/236 237/237/237
f 238/238/238 239/239/239 240/240/240
