# Blender v2.83.9 OBJ File: ''
# www.blender.org
mtllib stonehias.mtl
o stonehias_Plane
v 1.055028 0.254056 -0.871864
v 0.771734 0.254056 -0.456690
v 0.503092 0.254056 -0.407846
v 0.385867 0.254056 -0.588569
v 0.307717 0.254056 -0.832788
v 0.444479 0.254056 -1.018395
v 0.747312 0.254056 -1.111199
v 1.001300 0.254056 -1.013511
v 0.801040 0.254056 0.324812
v 1.084335 0.254056 0.153858
v 1.055028 0.254056 -0.041517
v 0.913381 0.254056 -0.163627
v 0.556820 0.254056 -0.075708
v 0.566589 0.254056 0.212471
v 0.239335 0.254056 -0.378540
v 0.029306 0.254056 -0.686257
v -0.112341 0.254056 0.036633
v 0.175838 0.254056 -0.031749
v -0.507977 0.254056 -0.598338
v -0.576358 0.254056 -0.217355
v -0.488439 0.254056 -0.041517
v -0.014653 0.254056 0.715563
v 0.239335 0.254056 0.515303
v 0.146532 0.254056 0.349234
v -0.117225 0.254056 0.339465
v -0.253989 0.254056 0.500650
v -0.185607 0.254056 0.652066
v 0.698468 0.254056 0.910939
v 0.859652 0.254056 0.798598
v 0.840115 0.254056 0.554378
v 0.556820 0.254056 0.461575
v 0.361445 0.254056 0.598338
v 0.400520 0.254056 0.788829
v -0.037723 0.254056 -0.922484
v -0.219798 0.254056 -0.847442
v -0.376098 0.254056 -0.959783
v -0.019538 0.254056 -1.091661
v -0.156301 0.254056 -1.160042
v -0.376098 0.254056 -1.106314
v -1.040375 0.254056 -0.368771
v -0.791271 0.254056 -0.442037
v -0.664277 0.254056 -0.666719
v -0.820577 0.254056 -0.842557
v -1.015953 0.254056 -0.754638
v -1.074566 0.254056 -0.534841
v -0.669161 0.254056 0.554378
v -0.517745 0.254056 0.495766
v -0.351676 0.254056 0.275968
v -0.542167 0.254056 0.173396
v -0.771733 0.254056 0.432269
v -0.957340 0.254056 0.222240
v -0.810809 0.254056 0.119668
v -0.879190 0.254056 -0.041517
v -1.035491 0.254056 -0.002442
v -1.084334 0.254056 0.129436
v -1.137316 0.254056 0.523201
v -1.173173 0.254056 0.789696
v -1.232793 0.254056 0.573916
v -1.232793 0.254056 0.798598
v -1.084334 0.254056 0.700910
v 1.188366 0.254056 0.909916
v 1.219140 0.254056 1.133568
v 1.136897 0.254056 1.121206
v 1.103872 0.254056 0.945129
v 1.232793 0.254056 -0.319927
v 1.232793 0.254056 -0.461575
v 1.167369 0.254056 -0.290621
v 1.074566 0.254056 -0.373656
v 1.069681 0.254056 -0.495766
v 1.157600 0.254056 -0.529956
v -0.439595 0.254056 1.135621
v -0.141647 0.254056 1.023279
v -0.195376 0.254056 0.857210
v -0.356561 0.254056 0.754638
v -0.556821 0.254056 0.837673
v 0.371213 0.254056 1.232793
v 0.473786 0.254056 1.150274
v 0.420058 0.254056 1.028164
v 0.263757 0.254056 1.091661
v -0.768691 0.254056 0.961516
v -0.986664 0.254056 1.088925
v -0.903612 0.254056 0.886517
v -1.015953 0.254056 0.984204
v -0.864537 0.254056 1.164927
v -0.713121 0.254056 1.081892
v 1.055028 -0.161139 -0.871864
v 0.771734 -0.161139 -0.456690
v 0.503092 -0.161139 -0.407846
v 0.385867 -0.161139 -0.588569
v 0.307717 -0.161139 -0.832788
v 0.444479 -0.161139 -1.018395
v 0.747312 -0.161139 -1.111199
v 1.001300 -0.161139 -1.013511
v 0.801040 -0.161139 0.324812
v 1.084335 -0.161139 0.153858
v 1.055028 -0.161139 -0.041517
v 0.913381 -0.161139 -0.163627
v 0.556820 -0.161139 -0.075708
v 0.566589 -0.161139 0.212471
v 0.239335 -0.161139 -0.378540
v 0.029306 -0.161139 -0.686257
v -0.112341 -0.161139 0.036633
v 0.175838 -0.161139 -0.031749
v -0.507977 -0.161139 -0.598338
v -0.576358 -0.161139 -0.217355
v -0.488439 -0.161139 -0.041517
v -0.014653 -0.161139 0.715563
v 0.239335 -0.161139 0.515303
v 0.146532 -0.161139 0.349234
v -0.117225 -0.161139 0.339465
v -0.253989 -0.161139 0.500650
v -0.185607 -0.161139 0.652066
v 0.698468 -0.161139 0.910939
v 0.859652 -0.161139 0.798598
v 0.840115 -0.161139 0.554378
v 0.556820 -0.161139 0.461575
v 0.361445 -0.161139 0.598338
v 0.400520 -0.161139 0.788829
v -0.219798 -0.161139 -0.847442
v -0.037723 -0.161139 -0.922484
v -0.376098 -0.161139 -0.959783
v -0.019538 -0.161139 -1.091661
v -0.156301 -0.161139 -1.160042
v -0.376098 -0.161139 -1.106314
v -1.040375 -0.161139 -0.368771
v -0.791271 -0.161139 -0.442037
v -0.664277 -0.161139 -0.666719
v -0.820577 -0.161139 -0.842557
v -1.015953 -0.161139 -0.754638
v -1.074566 -0.161139 -0.534841
v -0.669161 -0.161139 0.554378
v -0.517745 -0.161139 0.495766
v -0.351676 -0.161139 0.275968
v -0.542167 -0.161139 0.173396
v -0.771733 -0.161139 0.432269
v -0.957340 -0.161139 0.222240
v -0.810809 -0.161139 0.119668
v -0.879190 -0.161139 -0.041517
v -1.035491 -0.161139 -0.002442
v -1.084334 -0.161139 0.129436
v -1.232793 -0.161139 0.573916
v -1.232793 -0.161139 0.798598
v -1.173173 -0.161139 0.789696
v -1.084334 -0.161139 0.700910
v -1.137316 -0.161139 0.523201
v 1.188366 -0.161139 0.909916
v 1.219140 -0.161139 1.133568
v 1.136897 -0.161139 1.121206
v 1.103872 -0.161139 0.945129
v 1.232793 -0.161139 -0.319927
v 1.232793 -0.161139 -0.461575
v 1.167369 -0.161139 -0.290621
v 1.074566 -0.161139 -0.373656
v 1.069681 -0.161139 -0.495766
v 1.157600 -0.161139 -0.529956
v -0.439595 -0.161139 1.135621
v -0.141647 -0.161139 1.023279
v -0.195376 -0.161139 0.857210
v -0.356561 -0.161139 0.754638
v -0.556821 -0.161139 0.837673
v 0.473786 -0.161139 1.150274
v 0.420058 -0.161139 1.028164
v 0.263757 -0.161139 1.091661
v 0.371213 -0.161139 1.232793
v -0.903612 -0.161139 0.886517
v -1.015953 -0.161139 0.984204
v -0.768691 -0.161139 0.961516
v -0.986664 -0.161139 1.088925
v -0.864537 -0.161139 1.164927
v -0.713121 -0.161139 1.081892
vt 0.072098 0.146387
vt 0.093890 0.088937
vt 0.196903 0.049317
vt 0.319727 0.086956
vt 0.375195 0.162235
vt 0.343499 0.261286
vt 0.295954 0.334584
vt 0.186998 0.314774
vt 0.270201 0.586176
vt 0.175112 0.631739
vt 0.060212 0.562402
vt 0.072098 0.483161
vt 0.129548 0.433636
vt 0.274164 0.469293
vt 0.440569 0.641643
vt 0.547545 0.637681
vt 0.603014 0.703054
vt 0.575279 0.764466
vt 0.505943 0.790220
vt 0.402930 0.708998
vt 0.151340 0.823898
vt 0.159263 0.724847
vt 0.274163 0.687208
vt 0.353404 0.742676
vt 0.337556 0.819936
vt 0.216713 0.869462
vt 0.488114 0.221665
vt 0.706027 0.257324
vt 0.733761 0.411844
vt 0.698103 0.483161
vt 0.545564 0.514857
vt 0.428684 0.487123
vt 0.402930 0.346470
vt 0.832812 0.158273
vt 0.912054 0.193931
vt 0.935825 0.283078
vt 0.921959 0.350432
vt 0.820926 0.320717
vt 0.769420 0.229589
vt 0.813002 0.675320
vt 0.771401 0.724846
vt 0.709989 0.701074
vt 0.642634 0.611927
vt 0.719894 0.570326
vt 0.856585 0.483161
vt 0.919978 0.499010
vt 0.939788 0.552497
vt 0.888282 0.590136
vt 0.828850 0.548535
vt 0.038894 0.954742
vt 0.005537 0.959756
vt 0.018019 0.869047
vt 0.052288 0.883328
vt 0.000000 0.312793
vt 0.030497 0.285059
vt 0.066155 0.298926
vt 0.064174 0.348451
vt 0.026535 0.382129
vt 0.000000 0.370243
vt 0.579241 0.847670
vt 0.644615 0.806068
vt 0.725837 0.839745
vt 0.678293 0.960589
vt 0.557450 0.915025
vt 0.349442 1.000000
vt 0.307841 0.966532
vt 0.329632 0.917006
vt 0.393025 0.942759
vt 0.515300 0.125856
vt 0.507924 0.057241
vt 0.563393 0.029506
vt 0.652539 0.051298
vt 0.652539 0.110728
vt 0.589146 0.156292
vt 0.900174 0.941650
vt 0.850642 0.972475
vt 0.789230 0.938797
vt 0.811768 0.889974
vt 0.866490 0.859556
vt 0.912053 0.899176
vt 1.000000 0.823898
vt 0.975820 0.820287
vt 0.939788 0.784277
vt 0.961277 0.712202
vt 1.000000 0.732771
vt 0.072098 0.146387
vt 0.186998 0.314774
vt 0.295954 0.334584
vt 0.343499 0.261286
vt 0.375195 0.162235
vt 0.319727 0.086956
vt 0.196903 0.049317
vt 0.093890 0.088937
vt 0.270201 0.586176
vt 0.274164 0.469293
vt 0.129548 0.433636
vt 0.072098 0.483161
vt 0.060212 0.562402
vt 0.175112 0.631739
vt 0.440569 0.641643
vt 0.402930 0.708998
vt 0.505943 0.790220
vt 0.575279 0.764466
vt 0.603014 0.703054
vt 0.547545 0.637681
vt 0.151340 0.823898
vt 0.216713 0.869462
vt 0.337556 0.819936
vt 0.353404 0.742676
vt 0.274163 0.687208
vt 0.159263 0.724847
vt 0.488114 0.221665
vt 0.402930 0.346470
vt 0.428684 0.487123
vt 0.545564 0.514857
vt 0.698103 0.483161
vt 0.733761 0.411844
vt 0.706027 0.257324
vt 0.832812 0.158273
vt 0.769420 0.229589
vt 0.820926 0.320717
vt 0.921959 0.350432
vt 0.935825 0.283078
vt 0.912054 0.193931
vt 0.813002 0.675320
vt 0.719894 0.570326
vt 0.642634 0.611927
vt 0.709989 0.701074
vt 0.771401 0.724846
vt 0.856585 0.483161
vt 0.828850 0.548535
vt 0.888282 0.590136
vt 0.939788 0.552497
vt 0.919978 0.499010
vt 0.038894 0.954742
vt 0.052288 0.883328
vt 0.018019 0.869047
vt 0.005537 0.959756
vt 0.000000 0.312793
vt 0.000000 0.370243
vt 0.026535 0.382129
vt 0.064174 0.348451
vt 0.066155 0.298926
vt 0.030497 0.285059
vt 0.579241 0.847670
vt 0.557450 0.915025
vt 0.678293 0.960589
vt 0.725837 0.839745
vt 0.644615 0.806068
vt 0.349442 1.000000
vt 0.393025 0.942759
vt 0.329632 0.917006
vt 0.307841 0.966532
vt 0.515300 0.125856
vt 0.589146 0.156292
vt 0.652539 0.110728
vt 0.652539 0.051298
vt 0.563393 0.029506
vt 0.507924 0.057241
vt 0.900174 0.941650
vt 0.912053 0.899176
vt 0.866490 0.859556
vt 0.811768 0.889974
vt 0.789230 0.938797
vt 0.850642 0.972475
vt 1.000000 0.823898
vt 1.000000 0.732771
vt 0.961277 0.712202
vt 0.939788 0.784277
vt 0.975820 0.820287
vn 0.0000 1.0000 -0.0000
vn 0.0000 -1.0000 0.0000
vn -0.3624 0.0000 -0.9320
vn 0.7474 0.0000 -0.6644
vn 0.2309 0.0000 0.9730
vn 0.6728 0.0000 -0.7398
vn -0.4104 0.0000 -0.9119
vn 0.9836 0.0000 0.1801
vn 0.4088 0.0000 0.9126
vn -0.9662 0.0000 -0.2577
vn -0.1615 0.0000 -0.9869
vn 0.3528 0.0000 0.9357
vn -0.9795 0.0000 0.2017
vn -0.9843 0.0000 -0.1767
vn 0.9514 0.0000 -0.3078
vn 0.3610 0.0000 0.9326
vn -0.8944 0.0000 0.4472
vn 0.5369 0.0000 -0.8437
vn 0.7979 0.0000 0.6028
vn -0.2034 0.0000 0.9791
vn -0.3830 0.0000 -0.9237
vn 0.4741 0.0000 -0.8805
vn 0.6192 0.0000 0.7853
vn -0.9306 0.0000 0.3661
vn -0.7482 0.0000 -0.6635
vn 0.8729 0.0000 -0.4878
vn 0.9153 0.0000 -0.4027
vn -0.7657 0.0000 0.6432
vn 0.0370 0.0000 -0.9993
vn -0.3764 0.0000 -0.9265
vn 0.5735 0.0000 0.8192
vn -0.7625 0.0000 -0.6470
vn -0.7956 0.0000 0.6058
vn 0.9206 0.0000 -0.3905
vn -0.9114 0.0000 0.4116
vn 0.6268 0.0000 0.7792
vn -0.2425 0.0000 -0.9701
vn -0.3482 0.0000 0.9374
vn 0.8260 0.0000 0.5636
vn -0.6562 0.0000 -0.7546
vn -0.9378 0.0000 -0.3473
vn 0.5718 0.0000 0.8204
vn 0.1789 0.0000 0.9839
vn 0.4859 0.0000 -0.8740
vn -0.5900 0.0000 0.8074
vn 0.9968 0.0000 -0.0797
vn -0.8390 0.0000 0.5442
vn -0.9630 0.0000 0.2694
vn -1.0000 0.0000 0.0000
vn 0.3113 0.0000 -0.9503
vn -0.9524 0.0000 0.3048
vn 0.4808 0.0000 0.8768
vn 0.7069 0.0000 0.7073
vn -0.5735 0.0000 -0.8192
vn -0.8051 0.0000 -0.5932
vn 0.9079 0.0000 -0.4191
vn 0.9583 0.0000 -0.2857
vn -0.9796 0.0000 0.2009
vn -0.2930 0.0000 -0.9561
vn -0.5284 0.0000 0.8490
vn 0.1477 0.0000 0.9890
vn -0.3792 0.0000 0.9253
vn 0.3590 0.0000 -0.9333
vn -0.4691 0.0000 -0.8831
vn 0.3811 0.0000 0.9246
vn 0.9350 0.0000 -0.3547
vn 0.9907 0.0000 -0.1363
vn -0.5836 0.0000 0.8120
vn 0.5167 0.0000 0.8562
vn -0.9829 0.0000 0.1843
vn 0.9943 0.0000 0.1069
vn 0.9889 0.0000 -0.1483
vn -0.3847 0.0000 -0.9230
vn 0.4472 0.0000 -0.8944
vn 0.6529 0.0000 -0.7574
vn -0.1486 0.0000 0.9889
vn -0.2375 0.0000 -0.9714
vn -0.2394 0.0000 -0.9709
vn 1.0000 0.0000 0.0000
vn -0.9994 0.0000 0.0339
vn -0.6668 0.0000 0.7452
vn 0.2822 0.0000 0.9594
vn -0.4321 0.0000 0.9018
vn -0.9992 0.0000 0.0400
vn 0.8706 0.0000 0.4921
vn 0.8259 0.0000 -0.5637
usemtl None
s off
f 1/1/1 8/2/1 7/3/1 6/4/1 5/5/1 4/6/1 3/7/1 2/8/1
f 14/9/1 9/10/1 10/11/1 11/12/1 12/13/1 13/14/1
f 24/15/1 25/16/1 26/17/1 27/18/1 22/19/1 23/20/1
f 29/21/1 30/22/1 31/23/1 32/24/1 33/25/1 28/26/1
f 16/27/1 19/28/1 20/29/1 21/30/1 17/31/1 18/32/1 15/33/1
f 43/34/1 44/35/1 45/36/1 40/37/1 41/38/1 42/39/1
f 50/40/1 46/41/1 47/42/1 48/43/1 49/44/1
f 53/45/1 54/46/1 55/47/1 51/48/1 52/49/1
f 63/50/1 62/51/1 61/52/1 64/53/1
f 66/54/1 70/55/1 69/56/1 68/57/1 67/58/1 65/59/1
f 73/60/1 74/61/1 75/62/1 71/63/1 72/64/1
f 76/65/1 77/66/1 78/67/1 79/68/1
f 34/69/1 37/70/1 38/71/1 39/72/1 36/73/1 35/74/1
f 81/75/1 84/76/1 85/77/1 80/78/1 82/79/1 83/80/1
f 59/81/1 57/82/1 60/83/1 56/84/1 58/85/1
f 86/86/2 87/87/2 88/88/2 89/89/2 90/90/2 91/91/2 92/92/2 93/93/2
f 99/94/2 98/95/2 97/96/2 96/97/2 95/98/2 94/99/2
f 109/100/2 108/101/2 107/102/2 112/103/2 111/104/2 110/105/2
f 114/106/2 113/107/2 118/108/2 117/109/2 116/110/2 115/111/2
f 101/112/2 100/113/2 103/114/2 102/115/2 106/116/2 105/117/2 104/118/2
f 128/119/2 127/120/2 126/121/2 125/122/2 130/123/2 129/124/2
f 135/125/2 134/126/2 133/127/2 132/128/2 131/129/2
f 138/130/2 137/131/2 136/132/2 140/133/2 139/134/2
f 148/135/2 149/136/2 146/137/2 147/138/2
f 151/139/2 150/140/2 152/141/2 153/142/2 154/143/2 155/144/2
f 158/145/2 157/146/2 156/147/2 160/148/2 159/149/2
f 164/150/2 163/151/2 162/152/2 161/153/2
f 120/154/2 119/155/2 121/156/2 124/157/2 123/158/2 122/159/2
f 168/160/2 166/161/2 165/162/2 167/163/2 170/164/2 169/165/2
f 142/166/2 141/167/2 145/168/2 144/169/2 143/170/2
f 70/55/3 155/144/3 154/143/3 69/56/3
f 42/39/4 127/120/4 128/119/4 43/34/4
f 17/31/5 102/115/5 103/114/5 18/32/5
f 66/54/6 151/139/6 155/144/6 70/55/6
f 43/34/7 128/119/7 129/124/7 44/35/7
f 18/32/8 103/114/8 100/113/8 15/33/8
f 67/58/9 152/141/9 150/140/9 65/59/9
f 44/35/10 129/124/10 130/123/10 45/36/10
f 16/27/11 101/112/11 104/118/11 19/28/11
f 71/63/12 156/147/12 157/146/12 72/64/12
f 45/36/13 130/123/13 125/122/13 40/37/13
f 19/28/14 104/118/14 105/117/14 20/29/14
f 72/64/15 157/146/15 158/145/15 73/60/15
f 46/41/16 131/129/16 132/128/16 47/42/16
f 20/29/17 105/117/17 106/116/17 21/30/17
f 73/60/18 158/145/18 159/149/18 74/61/18
f 47/42/19 132/128/19 133/127/19 48/43/19
f 21/30/20 106/116/20 102/115/20 17/31/20
f 74/61/21 159/149/21 160/148/21 75/62/21
f 48/43/22 133/127/22 134/126/22 49/44/22
f 22/19/23 107/102/23 108/101/23 23/20/23
f 75/62/24 160/148/24 156/147/24 71/63/24
f 49/44/25 134/126/25 135/125/25 50/40/25
f 23/20/26 108/101/26 109/100/26 24/15/26
f 77/66/27 161/153/27 162/152/27 78/67/27
f 50/40/28 135/125/28 131/129/28 46/41/28
f 24/15/29 109/100/29 110/105/29 25/16/29
f 78/67/30 162/152/30 163/151/30 79/68/30
f 51/48/31 136/132/31 137/131/31 52/49/31
f 25/16/32 110/105/32 111/104/32 26/17/32
f 79/68/33 163/151/33 164/150/33 76/65/33
f 52/49/34 137/131/34 138/130/34 53/45/34
f 26/17/35 111/104/35 112/103/35 27/18/35
f 76/65/36 164/150/36 161/153/36 77/66/36
f 53/45/37 138/130/37 139/134/37 54/46/37
f 27/18/38 112/103/38 107/102/38 22/19/38
f 2/8/39 87/87/39 86/86/39 1/1/39
f 82/79/40 165/162/40 166/161/40 83/80/40
f 54/46/41 139/134/41 140/133/41 55/47/41
f 28/26/42 113/107/42 114/106/42 29/21/42
f 3/7/43 88/88/43 87/87/43 2/8/43
f 80/78/44 167/163/44 165/162/44 82/79/44
f 55/47/45 140/133/45 136/132/45 51/48/45
f 29/21/46 114/106/46 115/111/46 30/22/46
f 4/6/47 89/89/47 88/88/47 3/7/47
f 83/80/48 166/161/48 168/160/48 81/75/48
f 58/85/49 141/167/49 142/166/49 59/81/49
f 30/22/50 115/111/50 116/110/50 31/23/50
f 5/5/51 90/90/51 89/89/51 4/6/51
f 84/76/52 169/165/52 170/164/52 85/77/52
f 57/82/53 143/170/53 144/169/53 60/83/53
f 31/23/54 116/110/54 117/109/54 32/24/54
f 6/4/55 91/91/55 90/90/55 5/5/55
f 85/77/56 170/164/56 167/163/56 80/78/56
f 60/83/57 144/169/57 145/168/57 56/84/57
f 32/24/58 117/109/58 118/108/58 33/25/58
f 7/3/59 92/92/59 91/91/59 6/4/59
f 81/75/60 168/160/60 169/165/60 84/76/60
f 59/81/61 142/166/61 143/170/61 57/82/61
f 33/25/62 118/108/62 113/107/62 28/26/62
f 8/2/63 93/93/63 92/92/63 7/3/63
f 56/84/64 145/168/64 141/167/64 58/85/64
f 35/74/65 119/155/65 120/154/65 34/69/65
f 1/1/66 86/86/66 93/93/66 8/2/66
f 62/51/67 147/138/67 146/137/67 61/52/67
f 36/73/68 121/156/68 119/155/68 35/74/68
f 9/10/69 94/99/69 95/98/69 10/11/69
f 64/53/70 149/136/70 148/135/70 63/50/70
f 34/69/71 120/154/71 122/159/71 37/70/71
f 10/11/72 95/98/72 96/97/72 11/12/72
f 61/52/73 146/137/73 149/136/73 64/53/73
f 37/70/74 122/159/74 123/158/74 38/71/74
f 11/12/75 96/97/75 97/96/75 12/13/75
f 63/50/76 148/135/76 147/138/76 62/51/76
f 38/71/77 123/158/77 124/157/77 39/72/77
f 12/13/78 97/96/78 98/95/78 13/14/78
f 65/59/79 150/140/79 151/139/79 66/54/79
f 39/72/49 124/157/49 121/156/49 36/73/49
f 13/14/80 98/95/80 99/94/80 14/9/80
f 68/57/81 153/142/81 152/141/81 67/58/81
f 40/37/82 125/122/82 126/121/82 41/38/82
f 14/9/83 99/94/83 94/99/83 9/10/83
f 69/56/84 154/143/84 153/142/84 68/57/84
f 41/38/85 126/121/85 127/120/85 42/39/85
f 15/33/86 100/113/86 101/112/86 16/27/86
