# Exported from Unity
# 10/3/2025 10:17:46 AM
mtllib Thuja_BushTree_s_04 (9).mtl
v 5.894216 -1.125618 100.8262
v 6.114944 0.2779452 100.1369
v 5.458509 -0.3213605 100.5708
v 6.874496 -0.3206824 100.3377
v 7.469429 -0.8213584 99.5612
v 6.817081 0.1122311 99.77226
v 6.114944 0.2779452 100.1369
v 6.874496 -0.3206824 100.3377
v 6.817081 0.1122311 99.77226
v 6.874496 -0.3206824 100.3377
v 6.936685 -1.927193 100.1756
v 7.469429 -0.8213584 99.5612
v 6.936685 -1.927193 100.1756
v 5.894216 -1.125618 100.8262
v 6.176528 -2.032541 100.3805
v 7.469429 -0.8213584 99.5612
v 6.964753 -0.03228343 99.06139
v 6.817081 0.1122311 99.77226
v 6.964753 -0.03228343 99.06139
v 6.268232 0.6302186 99.22706
v 6.817081 0.1122311 99.77226
v 6.964753 -0.03228343 99.06139
v 6.55533 -0.5731353 98.21646
v 6.268232 0.6302186 99.22706
v 7.086765 -1.246506 98.4985
v 6.805779 -2.327988 99.01661
v 6.014788 -2.415738 98.46569
v 7.086765 -1.246506 98.4985
v 7.469429 -0.8213584 99.5612
v 6.805779 -2.327988 99.01661
v 5.932803 -0.93185 97.93935
v 5.390811 -0.2424064 98.32745
v 6.55533 -0.5731353 98.21646
v 5.390811 -0.2424064 98.32745
v 4.54072 -0.7302665 99.18537
v 5.558064 0.7030166 99.21911
v 5.390811 -0.2424064 98.32745
v 5.204409 -2.071404 98.38816
v 4.54072 -0.7302665 99.18537
v 5.204409 -2.071404 98.38816
v 5.932803 -0.93185 97.93935
v 6.014788 -2.415738 98.46569
v 5.932803 -0.93185 97.93935
v 6.55533 -0.5731353 98.21646
v 6.014788 -2.415738 98.46569
v 4.54072 -0.7302665 99.18537
v 5.429077 0.4634215 99.71958
v 5.558064 0.7030166 99.21911
v 4.926208 -0.1677709 99.9289
v 5.458509 -0.3213605 100.5708
v 5.429077 0.4634215 99.71958
v 5.458509 -0.3213605 100.5708
v 5.064421 -1.908362 100.1741
v 5.894216 -1.125618 100.8262
v 5.064421 -1.908362 100.1741
v 4.54072 -0.7302665 99.18537
v 5.234288 -2.331228 99.4915
v 5.234288 -2.331228 99.4915
v 6.066801 -2.475912 99.67033
v 5.064421 -1.908362 100.1741
v 6.066801 -2.475912 99.67033
v 6.805779 -2.327988 99.01661
v 6.936685 -1.927193 100.1756
v 6.014788 -2.415738 98.46569
v 5.234288 -2.331228 99.4915
v 5.204409 -2.071404 98.38816
v 6.268232 0.6302186 99.22706
v 5.558064 0.7030166 99.21911
v 5.429077 0.4634215 99.71958
v 5.558064 0.7030166 99.21911
v 6.268232 0.6302186 99.22706
v 5.860834 0.448603 98.81708
v 6.268232 0.6302186 99.22706
v 6.114944 0.2779452 100.1369
v 6.817081 0.1122311 99.77226
v 6.268232 0.6302186 99.22706
v 5.429077 0.4634215 99.71958
v 6.114944 0.2779452 100.1369
v 6.874496 -0.3206824 100.3377
v 6.114944 0.2779452 100.1369
v 5.894216 -1.125618 100.8262
v 6.874496 -0.3206824 100.3377
v 5.894216 -1.125618 100.8262
v 6.936685 -1.927193 100.1756
v 7.086765 -1.246506 98.4985
v 6.964753 -0.03228343 99.06139
v 7.469429 -0.8213584 99.5612
v 7.086765 -1.246506 98.4985
v 6.55533 -0.5731353 98.21646
v 6.964753 -0.03228343 99.06139
v 6.55533 -0.5731353 98.21646
v 5.860834 0.448603 98.81708
v 6.268232 0.6302186 99.22706
v 7.086765 -1.246506 98.4985
v 6.014788 -2.415738 98.46569
v 6.55533 -0.5731353 98.21646
v 7.469429 -0.8213584 99.5612
v 6.936685 -1.927193 100.1756
v 6.805779 -2.327988 99.01661
v 5.390811 -0.2424064 98.32745
v 5.860834 0.448603 98.81708
v 6.55533 -0.5731353 98.21646
v 5.390811 -0.2424064 98.32745
v 5.558064 0.7030166 99.21911
v 5.860834 0.448603 98.81708
v 5.390811 -0.2424064 98.32745
v 5.932803 -0.93185 97.93935
v 5.204409 -2.071404 98.38816
v 4.926208 -0.1677709 99.9289
v 5.429077 0.4634215 99.71958
v 4.54072 -0.7302665 99.18537
v 5.458509 -0.3213605 100.5708
v 6.114944 0.2779452 100.1369
v 5.429077 0.4634215 99.71958
v 4.926208 -0.1677709 99.9289
v 5.064421 -1.908362 100.1741
v 5.458509 -0.3213605 100.5708
v 5.064421 -1.908362 100.1741
v 6.176528 -2.032541 100.3805
v 5.894216 -1.125618 100.8262
v 4.926208 -0.1677709 99.9289
v 4.54072 -0.7302665 99.18537
v 5.064421 -1.908362 100.1741
v 4.54072 -0.7302665 99.18537
v 5.204409 -2.071404 98.38816
v 5.234288 -2.331228 99.4915
v 6.066801 -2.475912 99.67033
v 6.176528 -2.032541 100.3805
v 5.064421 -1.908362 100.1741
v 6.066801 -2.475912 99.67033
v 6.936685 -1.927193 100.1756
v 6.176528 -2.032541 100.3805
v 6.066801 -2.475912 99.67033
v 6.014788 -2.415738 98.46569
v 6.805779 -2.327988 99.01661
v 6.066801 -2.475912 99.67033
v 5.234288 -2.331228 99.4915
v 6.014788 -2.415738 98.46569
vn 0.2344013 0.2909021 0.9275947
vn 0.2344013 0.2909021 0.9275947
vn 0.2344013 0.2909021 0.9275947
vn 0.8666241 0.374116 0.3301513
vn 0.8666241 0.374116 0.3301513
vn 0.8666241 0.374116 0.3301513
vn 0.5171438 0.5990806 0.6112813
vn 0.5171438 0.5990806 0.6112813
vn 0.5171438 0.5990806 0.6112813
vn 0.7785578 -0.0224786 0.6271701
vn 0.7785578 -0.0224786 0.6271701
vn 0.7785578 -0.0224786 0.6271701
vn 0.3008419 -0.2492996 0.9205128
vn 0.3008419 -0.2492996 0.9205128
vn 0.3008419 -0.2492996 0.9205128
vn 0.8991331 0.4320692 0.06982645
vn 0.8991331 0.4320692 0.06982645
vn 0.8991331 0.4320692 0.06982645
vn 0.8034368 0.5953887 0.001288676
vn 0.8034368 0.5953887 0.001288676
vn 0.8034368 0.5953887 0.001288676
vn 0.5028657 0.4995469 -0.7053928
vn 0.5028657 0.4995469 -0.7053928
vn 0.5028657 0.4995469 -0.7053928
vn 0.5654817 -0.3540657 -0.7448946
vn 0.5654817 -0.3540657 -0.7448946
vn 0.5654817 -0.3540657 -0.7448946
vn 0.9493704 -0.2428108 -0.1993462
vn 0.9493704 -0.2428108 -0.1993462
vn 0.9493704 -0.2428108 -0.1993462
vn 0.06787077 0.3995126 -0.9142118
vn 0.06787077 0.3995126 -0.9142118
vn 0.06787077 0.3995126 -0.9142118
vn -0.7887909 0.3997447 -0.4669188
vn -0.7887909 0.3997447 -0.4669188
vn -0.7887909 0.3997447 -0.4669188
vn -0.7197306 0.03536749 -0.693352
vn -0.7197306 0.03536749 -0.693352
vn -0.7197306 0.03536749 -0.693352
vn -0.06154776 -0.2408149 -0.9686176
vn -0.06154776 -0.2408149 -0.9686176
vn -0.06154776 -0.2408149 -0.9686176
vn 0.5157937 -0.1868645 -0.8360853
vn 0.5157937 -0.1868645 -0.8360853
vn 0.5157937 -0.1868645 -0.8360853
vn -0.8929917 0.4451668 0.06627548
vn -0.8929917 0.4451668 0.06627548
vn -0.8929917 0.4451668 0.06627548
vn -0.5826739 0.481611 0.6546311
vn -0.5826739 0.481611 0.6546311
vn -0.5826739 0.481611 0.6546311
vn -0.575994 -0.04086188 0.8164321
vn -0.575994 -0.04086188 0.8164321
vn -0.575994 -0.04086188 0.8164321
vn -0.9571033 -0.289599 0.009256535
vn -0.9571033 -0.289599 0.009256535
vn -0.9571033 -0.289599 0.009256535
vn -0.305555 -0.749502 0.5872673
vn -0.305555 -0.749502 0.5872673
vn -0.305555 -0.749502 0.5872673
vn 0.5170994 -0.7868946 0.3367568
vn 0.5170994 -0.7868946 0.3367568
vn 0.5170994 -0.7868946 0.3367568
vn -0.4800068 -0.8336596 -0.2731393
vn -0.4800068 -0.8336596 -0.2731393
vn -0.4800068 -0.8336596 -0.2731393
vn 0.1152604 0.8039382 0.5834368
vn 0.1152604 0.8039382 0.5834368
vn 0.1152604 0.8039382 0.5834368
vn 0.1154029 0.778913 -0.6164225
vn 0.1154029 0.778913 -0.6164225
vn 0.1154029 0.778913 -0.6164225
vn 0.4936236 0.7196439 0.4883117
vn 0.4936236 0.7196439 0.4883117
vn 0.4936236 0.7196439 0.4883117
vn 0.04294825 0.869831 0.4914769
vn 0.04294825 0.869831 0.4914769
vn 0.04294825 0.869831 0.4914769
vn 0.1091558 0.310787 0.9441909
vn 0.1091558 0.310787 0.9441909
vn 0.1091558 0.310787 0.9441909
vn 0.489201 -0.04767036 0.8708673
vn 0.489201 -0.04767036 0.8708673
vn 0.489201 -0.04767036 0.8708673
vn 0.8786339 0.2038059 -0.4318166
vn 0.8786339 0.2038059 -0.4318166
vn 0.8786339 0.2038059 -0.4318166
vn 0.7610084 0.249151 -0.5989909
vn 0.7610084 0.249151 -0.5989909
vn 0.7610084 0.249151 -0.5989909
vn 0.4192208 0.5113295 -0.7501974
vn 0.4192208 0.5113295 -0.7501974
vn 0.4192208 0.5113295 -0.7501974
vn 0.2413181 -0.1418446 -0.9600238
vn 0.2413181 -0.1418446 -0.9600238
vn 0.2413181 -0.1418446 -0.9600238
vn 0.9508206 -0.3055291 0.05091251
vn 0.9508206 -0.3055291 0.05091251
vn 0.9508206 -0.3055291 0.05091251
vn 0.07259026 0.4099533 -0.9092134
vn 0.07259026 0.4099533 -0.9092134
vn 0.07259026 0.4099533 -0.9092134
vn -0.3554991 0.5412542 -0.7620133
vn -0.3554991 0.5412542 -0.7620133
vn -0.3554991 0.5412542 -0.7620133
vn -0.5549963 0.02025216 -0.8316063
vn -0.5549963 0.02025216 -0.8316063
vn -0.5549963 0.02025216 -0.8316063
vn -0.8762267 0.4772566 -0.066731
vn -0.8762267 0.4772566 -0.066731
vn -0.8762267 0.4772566 -0.066731
vn -0.2389924 0.5814002 0.7777252
vn -0.2389924 0.5814002 0.7777252
vn -0.2389924 0.5814002 0.7777252
vn -0.7630447 0.02094528 0.6460062
vn -0.7630447 0.02094528 0.6460062
vn -0.7630447 0.02094528 0.6460062
vn -0.2165575 -0.3596401 0.9076133
vn -0.2165575 -0.3596401 0.9076133
vn -0.2165575 -0.3596401 0.9076133
vn -0.8859432 -0.003595037 0.4637798
vn -0.8859432 -0.003595037 0.4637798
vn -0.8859432 -0.003595037 0.4637798
vn -0.9504357 -0.2996216 -0.08306
vn -0.9504357 -0.2996216 -0.08306
vn -0.9504357 -0.2996216 -0.08306
vn -0.2298211 -0.7064724 0.669387
vn -0.2298211 -0.7064724 0.669387
vn -0.2298211 -0.7064724 0.669387
vn 0.3101497 -0.7293909 0.6097509
vn 0.3101497 -0.7293909 0.6097509
vn 0.3101497 -0.7293909 0.6097509
vn 0.207558 -0.9751472 -0.07750896
vn 0.207558 -0.9751472 -0.07750896
vn 0.207558 -0.9751472 -0.07750896
vn -0.2277382 -0.9717647 -0.06171446
vn -0.2277382 -0.9717647 -0.06171446
vn -0.2277382 -0.9717647 -0.06171446
f 1/1/1 2/2/2 3/3/3
f 4/4/4 5/5/5 6/6/6
f 7/7/7 8/8/8 9/9/9
f 10/10/10 11/11/11 12/12/12
f 13/13/13 14/14/14 15/15/15
f 16/16/16 17/17/17 18/18/18
f 19/19/19 20/20/20 21/21/21
f 22/22/22 23/23/23 24/24/24
f 25/25/25 26/26/26 27/27/27
f 28/28/28 29/29/29 30/30/30
f 31/31/31 32/32/32 33/33/33
f 34/34/34 35/35/35 36/36/36
f 37/37/37 38/38/38 39/39/39
f 40/40/40 41/41/41 42/42/42
f 43/43/43 44/44/44 45/45/45
f 46/46/46 47/47/47 48/48/48
f 49/49/49 50/50/50 51/51/51
f 52/52/52 53/53/53 54/54/54
f 55/55/55 56/56/56 57/57/57
f 58/58/58 59/59/59 60/60/60
f 61/61/61 62/62/62 63/63/63
f 64/64/64 65/65/65 66/66/66
f 67/67/67 68/68/68 69/69/69
f 70/70/70 71/71/71 72/72/72
f 73/73/73 74/74/74 75/75/75
f 76/76/76 77/77/77 78/78/78
f 79/79/79 80/80/80 81/81/81
f 82/82/82 83/83/83 84/84/84
f 85/85/85 86/86/86 87/87/87
f 88/88/88 89/89/89 90/90/90
f 91/91/91 92/92/92 93/93/93
f 94/94/94 95/95/95 96/96/96
f 97/97/97 98/98/98 99/99/99
f 100/100/100 101/101/101 102/102/102
f 103/103/103 104/104/104 105/105/105
f 106/106/106 107/107/107 108/108/108
f 109/109/109 110/110/110 111/111/111
f 112/112/112 113/113/113 114/114/114
f 115/115/115 116/116/116 117/117/117
f 118/118/118 119/119/119 120/120/120
f 121/121/121 122/122/122 123/123/123
f 124/124/124 125/125/125 126/126/126
f 127/127/127 128/128/128 129/129/129
f 130/130/130 131/131/131 132/132/132
f 133/133/133 134/134/134 135/135/135
f 136/136/136 137/137/137 138/138/138
