g Thuja_Tree_m_06
v -0.4603958 3.8237 -0.0444327
v -0.5761766 3.18595 -0.3943003
v -0.3670366 3.91683 -0.2290851
v -0.8623762 1.650114 -0.1552395
v -0.7302194 0.8965825 0.1140484
v -0.6806318 1.031724 -0.3404274
v -0.5761766 3.18595 -0.3943003
v -0.8623762 1.650114 -0.1552395
v -0.6309677 1.637105 -0.6207347
v -0.8623762 1.650114 -0.1552395
v -0.6806318 1.031724 -0.3404274
v -0.6309677 1.637105 -0.6207347
v -0.6952479 3.038335 0.1354752
v -0.51358 2.450325 0.6387732
v -0.7677926 1.431026 0.5210028
v -0.8623762 1.650114 -0.1552395
v -0.7677926 1.431026 0.5210028
v -0.7302194 0.8965825 0.1140484
v -0.2235543 2.905107 -0.7104208
v -0.004389584 3.930834 -0.2828814
v -0.2266151 3.826303 -0.361395
v -0.2235543 2.905107 -0.7104208
v -0.2266151 3.826303 -0.361395
v -0.3670366 3.91683 -0.2290851
v -0.2235543 2.905107 -0.7104208
v 0.2974209 2.503433 -0.7353676
v -0.004389584 3.930834 -0.2828814
v 0.2974209 2.503433 -0.7353676
v 0.612164 2.559142 -0.4911796
v 0.2650513 3.718557 -0.2440838
v 0.144373 1.16587 -0.901042
v -0.189501 0.7877653 -0.6984065
v 0.3308619 0.764502 -0.6784338
v 0.2974209 2.503433 -0.7353676
v 0.144373 1.16587 -0.901042
v 0.7564882 1.268106 -0.5422211
v 0.144373 1.16587 -0.901042
v 0.3308619 0.764502 -0.6784338
v 0.7564882 1.268106 -0.5422211
v -0.2235543 2.905107 -0.7104208
v -0.5761766 3.18595 -0.3943003
v -0.6309677 1.637105 -0.6207347
v 0.144373 1.16587 -0.901042
v -0.3614504 1.589201 -0.8127334
v -0.189501 0.7877653 -0.6984065
v 0.658614 2.871819 -0.02560782
v 0.2756116 3.823471 0.01127666
v 0.2650513 3.718557 -0.2440838
v 0.658614 2.871819 -0.02560782
v 0.6405544 2.70163 0.2905892
v 0.2756116 3.823471 0.01127666
v 0.6405544 2.70163 0.2905892
v 0.4542951 2.45637 0.6455839
v 0.1479697 3.643563 0.3007668
v 0.8801509 1.249511 0.1518512
v 0.7122574 0.7502687 -0.118814
v 0.5429099 0.6368601 0.3389523
v 0.6405544 2.70163 0.2905892
v 0.8801509 1.249511 0.1518512
v 0.5291355 1.208265 0.7703179
v 0.8801509 1.249511 0.1518512
v 0.5429099 0.6368601 0.3389523
v 0.5291355 1.208265 0.7703179
v 0.658614 2.871819 -0.02560782
v 0.612164 2.559142 -0.4911796
v 0.7564882 1.268106 -0.5422211
v 0.8801509 1.249511 0.1518512
v 0.8801509 1.249511 0.1518512
v 0.7564882 1.268106 -0.5422211
v 0.7122574 0.7502687 -0.118814
v -0.03209126 2.462339 0.7726902
v -0.02199 3.924635 0.1996022
v 0.1479697 3.643563 0.3007668
v -0.03209126 2.462339 0.7726902
v -0.51358 2.450325 0.6387732
v -0.02199 3.924635 0.1996022
v -0.1692222 1.023077 0.9044644
v 0.1066467 0.6800196 0.7205774
v -0.3513492 0.7762102 0.6742804
v -0.51358 2.450325 0.6387732
v -0.1692222 1.023077 0.9044644
v -0.7677926 1.431026 0.5210028
v -0.1692222 1.023077 0.9044644
v -0.3513492 0.7762102 0.6742804
v -0.7677926 1.431026 0.5210028
v -0.03209126 2.462339 0.7726902
v 0.4542951 2.45637 0.6455839
v 0.5291355 1.208265 0.7703179
v -0.1692222 1.023077 0.9044644
v 0.5291355 1.208265 0.7703179
v 0.1066467 0.6800196 0.7205774
v -0.6403036 0.7852401 0.5484749
v -0.7302194 0.8965825 0.1140484
v -0.7677926 1.431026 0.5210028
v -0.2198045 0.475165 -0.001961887
v -0.1696048 0.5747992 -0.4241446
v -0.6806318 1.031724 -0.3404274
v -0.1696048 0.5747992 -0.4241446
v 0.4119008 0.5202376 -0.1613613
v 0.3308619 0.764502 -0.6784338
v 0.4119008 0.5202376 -0.1613613
v 0.7122574 0.7502687 -0.118814
v 0.7564882 1.268106 -0.5422211
v -0.2198045 0.475165 -0.001961887
v -0.1696048 0.5143453 0.4201443
v 0.5429099 0.6368601 0.3389523
v 0.5429099 0.6368601 0.3389523
v 0.1066467 0.6800196 0.7205774
v 0.5291355 1.208265 0.7703179
v -0.02199 3.924635 0.1996022
v 0.2756116 3.823471 0.01127666
v 0.1479697 3.643563 0.3007668
v 0.02071029 4.113956 -0.04703456
v -0.004389584 3.930834 -0.2828814
v 0.2650513 3.718557 -0.2440838
v -0.2537047 4.094595 -0.1162888
v -0.4603958 3.8237 -0.0444327
v -0.3670366 3.91683 -0.2290851
v -0.004389584 3.930834 -0.2828814
v -0.2537047 4.094595 -0.1162888
v -0.2266151 3.826303 -0.361395
v 0.02071029 4.113956 -0.04703456
v -0.02199 3.924635 0.1996022
v -0.3231884 3.858825 0.1336385
v -0.4603958 3.8237 -0.0444327
v -0.3231884 3.858825 0.1336385
v -0.6952479 3.038335 0.1354752
v -0.6952479 3.038335 0.1354752
v -0.3231884 3.858825 0.1336385
v -0.51358 2.450325 0.6387732
v -0.6952479 3.038335 0.1354752
v -0.5761766 3.18595 -0.3943003
v -0.4603958 3.8237 -0.0444327
v -0.6952479 3.038335 0.1354752
v -0.8623762 1.650114 -0.1552395
v -0.5761766 3.18595 -0.3943003
v -0.6952479 3.038335 0.1354752
v -0.7677926 1.431026 0.5210028
v -0.8623762 1.650114 -0.1552395
v -0.2235543 2.905107 -0.7104208
v -0.3670366 3.91683 -0.2290851
v -0.5761766 3.18595 -0.3943003
v 0.2974209 2.503433 -0.7353676
v 0.2650513 3.718557 -0.2440838
v -0.004389584 3.930834 -0.2828814
v -0.2235543 2.905107 -0.7104208
v 0.144373 1.16587 -0.901042
v 0.2974209 2.503433 -0.7353676
v 0.2974209 2.503433 -0.7353676
v 0.7564882 1.268106 -0.5422211
v 0.612164 2.559142 -0.4911796
v -0.2235543 2.905107 -0.7104208
v -0.3614504 1.589201 -0.8127334
v 0.144373 1.16587 -0.901042
v -0.2235543 2.905107 -0.7104208
v -0.6309677 1.637105 -0.6207347
v -0.3614504 1.589201 -0.8127334
v -0.3614504 1.589201 -0.8127334
v -0.6309677 1.637105 -0.6207347
v -0.189501 0.7877653 -0.6984065
v 0.658614 2.871819 -0.02560782
v 0.2650513 3.718557 -0.2440838
v 0.612164 2.559142 -0.4911796
v 0.6405544 2.70163 0.2905892
v 0.1479697 3.643563 0.3007668
v 0.2756116 3.823471 0.01127666
v 0.658614 2.871819 -0.02560782
v 0.8801509 1.249511 0.1518512
v 0.6405544 2.70163 0.2905892
v 0.6405544 2.70163 0.2905892
v 0.5291355 1.208265 0.7703179
v 0.4542951 2.45637 0.6455839
v -0.03209126 2.462339 0.7726902
v 0.1479697 3.643563 0.3007668
v 0.4542951 2.45637 0.6455839
v -0.51358 2.450325 0.6387732
v -0.3231884 3.858825 0.1336385
v -0.02199 3.924635 0.1996022
v -0.03209126 2.462339 0.7726902
v -0.1692222 1.023077 0.9044644
v -0.51358 2.450325 0.6387732
v -0.03209126 2.462339 0.7726902
v 0.5291355 1.208265 0.7703179
v -0.1692222 1.023077 0.9044644
v -0.2198045 0.475165 -0.001961887
v -0.7302194 0.8965825 0.1140484
v -0.1696048 0.5143453 0.4201443
v -0.1696048 0.5143453 0.4201443
v -0.3513492 0.7762102 0.6742804
v 0.1066467 0.6800196 0.7205774
v -0.3513492 0.7762102 0.6742804
v -0.6403036 0.7852401 0.5484749
v -0.7677926 1.431026 0.5210028
v -0.2198045 0.475165 -0.001961887
v -0.6806318 1.031724 -0.3404274
v -0.7302194 0.8965825 0.1140484
v -0.6806318 1.031724 -0.3404274
v -0.189501 0.7877653 -0.6984065
v -0.6309677 1.637105 -0.6207347
v -0.2198045 0.475165 -0.001961887
v 0.4119008 0.5202376 -0.1613613
v -0.1696048 0.5747992 -0.4241446
v -0.1696048 0.5747992 -0.4241446
v 0.3308619 0.764502 -0.6784338
v -0.189501 0.7877653 -0.6984065
v 0.4119008 0.5202376 -0.1613613
v 0.7564882 1.268106 -0.5422211
v 0.3308619 0.764502 -0.6784338
v -0.2198045 0.475165 -0.001961887
v 0.5429099 0.6368601 0.3389523
v 0.4119008 0.5202376 -0.1613613
v -0.1696048 0.5143453 0.4201443
v 0.1066467 0.6800196 0.7205774
v 0.5429099 0.6368601 0.3389523
v 0.4119008 0.5202376 -0.1613613
v 0.5429099 0.6368601 0.3389523
v 0.7122574 0.7502687 -0.118814
v 0.02071029 4.113956 -0.04703456
v 0.2756116 3.823471 0.01127666
v -0.02199 3.924635 0.1996022
v 0.02071029 4.113956 -0.04703456
v 0.2650513 3.718557 -0.2440838
v 0.2756116 3.823471 0.01127666
v 0.02071029 4.113956 -0.04703456
v -0.2537047 4.094595 -0.1162888
v -0.004389584 3.930834 -0.2828814
v -0.2537047 4.094595 -0.1162888
v -0.3670366 3.91683 -0.2290851
v -0.2266151 3.826303 -0.361395
v 0.02071029 4.113956 -0.04703456
v -0.3231884 3.858825 0.1336385
v -0.2537047 4.094595 -0.1162888
v -0.2537047 4.094595 -0.1162888
v -0.3231884 3.858825 0.1336385
v -0.4603958 3.8237 -0.0444327
v -0.1696048 0.5143453 0.4201443
v -0.6403036 0.7852401 0.5484749
v -0.3513492 0.7762102 0.6742804
v -0.1696048 0.5143453 0.4201443
v -0.7302194 0.8965825 0.1140484
v -0.6403036 0.7852401 0.5484749
v -0.1696048 0.5747992 -0.4241446
v -0.189501 0.7877653 -0.6984065
v -0.6806318 1.031724 -0.3404274
v 0.07045084 0.7689404 0.09698355
v 0.07848591 2.771616E-05 0.1080796
v -0.07854128 2.771616E-05 0.1080796
v -0.07042968 0.7689404 0.09698355
v -0.1139718 0.7689404 -0.03700995
v -0.1270574 2.771616E-05 -0.04129523
v -2.771616E-05 2.771616E-05 -0.1335831
v -2.771616E-05 0.7689404 -0.1198853
v 0.113993 0.7689404 -0.03700995
v 0.1270786 2.771616E-05 -0.04129523
v 0.07848591 2.771616E-05 0.1080796
v 0.07045084 0.7689404 0.09698355
v -0.07042968 0.7689404 0.09698355
v -0.07854128 2.771616E-05 0.1080796
v -0.1270574 2.771616E-05 -0.04129523
v -0.1139718 0.7689404 -0.03700995
v -2.771616E-05 0.7689404 -0.1198853
v -2.771616E-05 2.771616E-05 -0.1335831
v 0.1270786 2.771616E-05 -0.04129523
v 0.113993 0.7689404 -0.03700995
vn -0.9009626 0.3222581 -0.2905445
vn -0.9009626 0.3222581 -0.2905445
vn -0.9009626 0.3222581 -0.2905445
vn -0.954975 -0.2332982 -0.1832884
vn -0.954975 -0.2332982 -0.1832884
vn -0.954975 -0.2332982 -0.1832884
vn -0.8932465 0.09849238 -0.4386455
vn -0.8932465 0.09849238 -0.4386455
vn -0.8932465 0.09849238 -0.4386455
vn -0.8855305 -0.1329895 -0.44514
vn -0.8855305 -0.1329895 -0.44514
vn -0.8855305 -0.1329895 -0.44514
vn -0.8546662 0.1602209 0.4938369
vn -0.8546662 0.1602209 0.4938369
vn -0.8546662 0.1602209 0.4938369
vn -0.9858392 -0.1407055 0.09123021
vn -0.9858392 -0.1407055 0.09123021
vn -0.9858392 -0.1407055 0.09123021
vn 0.1638537 0.3531224 -0.921117
vn 0.1638537 0.3531224 -0.921117
vn 0.1638537 0.3531224 -0.921117
vn -0.5460238 0.2913939 -0.7854601
vn -0.5460238 0.2913939 -0.7854601
vn -0.5460238 0.2913939 -0.7854601
vn 0.2178661 0.3376902 -0.9156963
vn 0.2178661 0.3376902 -0.9156963
vn 0.2178661 0.3376902 -0.9156963
vn 0.5419407 0.3299742 -0.7729278
vn 0.5419407 0.3299742 -0.7729278
vn 0.5419407 0.3299742 -0.7729278
vn 0.009532511 -0.4802122 -0.8771006
vn 0.009532511 -0.4802122 -0.8771006
vn 0.009532511 -0.4802122 -0.8771006
vn 0.4956443 0.05219603 -0.8669558
vn 0.4956443 0.05219603 -0.8669558
vn 0.4956443 0.05219603 -0.8669558
vn 0.5187925 -0.2178661 -0.8266733
vn 0.5187925 -0.2178661 -0.8266733
vn 0.5187925 -0.2178661 -0.8266733
vn -0.6000363 0.1370727 -0.7881418
vn -0.6000363 0.1370727 -0.7881418
vn -0.6000363 0.1370727 -0.7881418
vn -0.3299742 -0.202434 -0.922029
vn -0.3299742 -0.202434 -0.922029
vn -0.3299742 -0.202434 -0.922029
vn 0.9045955 0.3762705 -0.2003184
vn 0.9045955 0.3762705 -0.2003184
vn 0.9045955 0.3762705 -0.2003184
vn 0.9045955 0.3531224 0.2387709
vn 0.9045955 0.3531224 0.2387709
vn 0.9045955 0.3531224 0.2387709
vn 0.7039779 0.3608384 0.6117276
vn 0.7039779 0.3608384 0.6117276
vn 0.7039779 0.3608384 0.6117276
vn 0.8814473 -0.4184837 0.2189111
vn 0.8814473 -0.4184837 0.2189111
vn 0.8814473 -0.4184837 0.2189111
vn 0.8660152 0.09849238 0.4902213
vn 0.8660152 0.09849238 0.4902213
vn 0.8660152 0.09849238 0.4902213
vn 0.835151 -0.3181749 0.4486509
vn 0.835151 -0.3181749 0.4486509
vn 0.835151 -0.3181749 0.4486509
vn 0.97404 0.1139245 -0.19562
vn 0.97404 0.1139245 -0.19562
vn 0.97404 0.1139245 -0.19562
vn 0.9817561 0.1139245 -0.1522373
vn 0.9586079 -0.2255822 -0.1737342
vn 0.9586079 -0.2255822 -0.1737342
vn 0.9586079 -0.2255822 -0.1737342
vn 0.04811281 0.3608384 0.9313865
vn 0.04811281 0.3608384 0.9313865
vn 0.04811281 0.3608384 0.9313865
vn -0.2605296 0.3531224 0.8985705
vn -0.2605296 0.3531224 0.8985705
vn -0.2605296 0.3531224 0.8985705
vn -0.1988012 -0.580521 0.7896033
vn -0.1988012 -0.580521 0.7896033
vn -0.1988012 -0.580521 0.7896033
vn -0.5228757 0.02904785 0.8519139
vn -0.5228757 0.02904785 0.8519139
vn -0.5228757 0.02904785 0.8519139
vn -0.6309005 -0.2255822 0.7423458
vn -0.6309005 -0.2255822 0.7423458
vn -0.6309005 -0.2255822 0.7423458
vn 0.2487304 0.1139245 0.9618495
vn 0.2487304 0.1139245 0.9618495
vn 0.2487304 0.1139245 0.9618495
vn 0.2564464 -0.2873107 0.9228693
vn 0.2564464 -0.2873107 0.9228693
vn 0.2564464 -0.2873107 0.9228693
vn -0.9704071 -0.1870019 0.1527754
vn -0.9704071 -0.1870019 0.1527754
vn -0.9704071 -0.1870019 0.1527754
vn -0.6694808 -0.7039779 -0.2370876
vn -0.6694808 -0.7039779 -0.2370876
vn -0.6694808 -0.7039779 -0.2370876
vn 0.1175573 -0.8891634 -0.4422315
vn 0.1175573 -0.8891634 -0.4422315
vn 0.1175573 -0.8891634 -0.4422315
vn 0.5265086 -0.5650889 -0.6351876
vn 0.5265086 -0.5650889 -0.6351876
vn 0.5265086 -0.5650889 -0.6351876
vn 0.1792858 -0.9817561 0.06333697
vn 0.1792858 -0.9817561 0.06333697
vn 0.1792858 -0.9817561 0.06333697
vn 0.5419407 -0.4956443 0.6787024
vn 0.5419407 -0.4956443 0.6787024
vn 0.5419407 -0.4956443 0.6787024
vn 0.5728049 0.561456 0.5972117
vn 0.5728049 0.561456 0.5972117
vn 0.5728049 0.561456 0.5972117
vn 0.5650889 0.6231844 -0.5406623
vn 0.5650889 0.6231844 -0.5406623
vn 0.5650889 0.6231844 -0.5406623
vn -0.8006538 0.5846041 -0.1311162
vn -0.8006538 0.5846041 -0.1311162
vn -0.8006538 0.5846041 -0.1311162
vn -0.05219603 0.6694808 -0.7409933
vn -0.05219603 0.6694808 -0.7409933
vn -0.05219603 0.6694808 -0.7409933
vn -0.2913939 0.7852217 0.5463666
vn -0.2913939 0.7852217 0.5463666
vn -0.2913939 0.7852217 0.5463666
vn -0.7775056 0.3531224 0.5203745
vn -0.7775056 0.3531224 0.5203745
vn -0.7775056 0.3531224 0.5203745
vn -0.7080611 0.3222581 0.6283305
vn -0.7080611 0.3222581 0.6283305
vn -0.7080611 0.3222581 0.6283305
vn -0.954975 0.2528136 -0.1552675
vn -0.954975 0.2528136 -0.1552675
vn -0.954975 0.2528136 -0.1552675
vn -0.9704071 0.1525048 -0.1872226
vn -0.9704071 0.1525048 -0.1872226
vn -0.9704071 0.1525048 -0.1872226
vn -0.9858392 0.08306026 0.1456777
vn -0.9858392 0.08306026 0.1456777
vn -0.9858392 0.08306026 0.1456777
vn -0.4765793 0.3222581 -0.8179376
vn -0.4765793 0.3222581 -0.8179376
vn -0.4765793 0.3222581 -0.8179376
vn 0.4030516 0.3531224 -0.8443068
vn 0.4030516 0.3531224 -0.8443068
vn 0.4030516 0.3531224 -0.8443068
vn 0.04039675 0.1216406 -0.9917518
vn 0.04039675 0.1216406 -0.9917518
vn 0.04039675 0.1216406 -0.9917518
vn 0.5959531 0.09849238 -0.7969561
vn 0.5959531 0.09849238 -0.7969561
vn 0.5959531 0.09849238 -0.7969561
vn -0.09849238 0.09077632 -0.9909889
vn -0.09849238 0.09077632 -0.9909889
vn -0.09849238 0.09077632 -0.9909889
vn -0.561456 0.1216406 -0.8185174
vn -0.561456 0.1216406 -0.8185174
vn -0.561456 0.1216406 -0.8185174
vn -0.5923202 -0.2332982 -0.7711865
vn -0.5923202 -0.2332982 -0.7711865
vn -0.5923202 -0.2332982 -0.7711865
vn 0.8891634 0.3299742 -0.3170261
vn 0.8891634 0.3299742 -0.3170261
vn 0.8891634 0.3299742 -0.3170261
vn 0.7348422 0.3762705 0.5642937
vn 0.7348422 0.3762705 0.5642937
vn 0.7348422 0.3762705 0.5642937
vn 0.9817561 0.1447887 0.1232526
vn 0.9817561 0.1447887 0.1232526
vn 0.9817561 0.1447887 0.1232526
vn 0.8505831 0.1062084 0.5150031
vn 0.8505831 0.1062084 0.5150031
vn 0.8505831 0.1062084 0.5150031
vn 0.2410143 0.3299742 0.9127043
vn 0.2410143 0.3299742 0.9127043
vn 0.2410143 0.3299742 0.9127043
vn -0.2759618 0.3608384 0.8908651
vn -0.2759618 0.3608384 0.8908651
vn -0.2759618 0.3608384 0.8908651
vn -0.2682457 0.1139245 0.9565905
vn -0.2682457 0.1139245 0.9565905
vn -0.2682457 0.1139245 0.9565905
vn 0.1715698 0.0753442 0.9822866
vn 0.1715698 0.0753442 0.9822866
vn 0.1715698 0.0753442 0.9822866
vn -0.6077523 -0.7811385 0.1430375
vn -0.6077523 -0.7811385 0.1430375
vn -0.6077523 -0.7811385 0.1430375
vn -0.2219493 -0.7502743 0.6227576
vn -0.2219493 -0.7502743 0.6227576
vn -0.2219493 -0.7502743 0.6227576
vn -0.3994187 -0.04039675 0.9158782
vn -0.3994187 -0.04039675 0.9158782
vn -0.3994187 -0.04039675 0.9158782
vn -0.6463326 -0.7039779 -0.2943964
vn -0.6463326 -0.7039779 -0.2943964
vn -0.6463326 -0.7039779 -0.2943964
vn -0.6540487 -0.2718785 -0.7059054
vn -0.6540487 -0.2718785 -0.7059054
vn -0.6540487 -0.2718785 -0.7059054
vn 0.009532511 -0.97404 -0.2261749
vn 0.009532511 -0.97404 -0.2261749
vn 0.009532511 -0.97404 -0.2261749
vn -0.01361573 -0.7888546 -0.6144291
vn -0.01361573 -0.7888546 -0.6144291
vn -0.01361573 -0.7888546 -0.6144291
vn 0.7579904 -0.5419407 -0.3629751
vn 0.7579904 -0.5419407 -0.3629751
vn 0.7579904 -0.5419407 -0.3629751
vn 0.1175573 -0.97404 0.1934586
vn 0.1175573 -0.97404 0.1934586
vn 0.1175573 -0.97404 0.1934586
vn 0.1947179 -0.9200276 0.3400502
vn 0.1947179 -0.9200276 0.3400502
vn 0.1947179 -0.9200276 0.3400502
vn 0.6036692 -0.7965707 0.03253764
vn 0.6036692 -0.7965707 0.03253764
vn 0.6036692 -0.7965707 0.03253764
vn 0.5650889 0.6077523 0.5579531
vn 0.5650889 0.6077523 0.5579531
vn 0.5650889 0.6077523 0.5579531
vn 0.7502743 0.6000363 -0.2775697
vn 0.7502743 0.6000363 -0.2775697
vn 0.7502743 0.6000363 -0.2775697
vn 0.1021252 0.7775056 -0.6205283
vn 0.1021252 0.7775056 -0.6205283
vn 0.1021252 0.7775056 -0.6205283
vn -0.2759618 0.6309005 -0.7251273
vn -0.2759618 0.6309005 -0.7251273
vn -0.2759618 0.6309005 -0.7251273
vn -0.2142333 0.7389253 0.6388219
vn -0.2142333 0.7389253 0.6388219
vn -0.2142333 0.7389253 0.6388219
vn -0.6771969 0.6231844 0.3912104
vn -0.6771969 0.6231844 0.3912104
vn -0.6771969 0.6231844 0.3912104
vn -0.2759618 -0.7579904 0.5910125
vn -0.2759618 -0.7579904 0.5910125
vn -0.2759618 -0.7579904 0.5910125
vn -0.5151596 -0.8505831 -0.1054467
vn -0.5151596 -0.8505831 -0.1054467
vn -0.5151596 -0.8505831 -0.1054467
vn -0.6386166 -0.6345334 -0.4353576
vn -0.6386166 -0.6345334 -0.4353576
vn -0.6386166 -0.6345334 -0.4353576
vn 0.001816452 0.01361573 0.9999056
vn 0.001816452 0.01361573 0.9999056
vn 0.001816452 0.01361573 0.9999056
vn 0.001816452 0.01361573 0.9999056
vn -0.5846041 0.01361573 -0.8112044
vn -0.5846041 0.01361573 -0.8112044
vn -0.5846041 0.01361573 -0.8112044
vn -0.5846041 0.01361573 -0.8112044
vn 0.9508919 0.01361573 0.3092237
vn 0.9508919 0.01361573 0.3092237
vn 0.9508919 0.01361573 0.3092237
vn 0.9508919 0.01361573 0.3092237
vn -0.9472589 0.01361573 0.3201798
vn -0.9472589 0.01361573 0.3201798
vn -0.9472589 0.01361573 0.3201798
vn -0.9472589 0.01361573 0.3201798
vn 0.588237 0.01361573 -0.8085739
vn 0.588237 0.01361573 -0.8085739
vn 0.588237 0.01361573 -0.8085739
vn 0.588237 0.01361573 -0.8085739
g Thuja_Tree_m_06_0
f 3/3/3 2/2/2 1/1/1
f 6/6/6 5/5/5 4/4/4
f 9/9/9 8/8/8 7/7/7
f 12/12/12 11/11/11 10/10/10
f 15/15/15 14/14/14 13/13/13
f 18/18/18 17/17/17 16/16/16
f 21/21/21 20/20/20 19/19/19
f 24/24/24 23/23/23 22/22/22
f 27/27/27 26/26/26 25/25/25
f 30/30/30 29/29/29 28/28/28
f 33/33/33 32/32/32 31/31/31
f 36/36/36 35/35/35 34/34/34
f 39/39/39 38/38/38 37/37/37
f 42/42/42 41/41/41 40/40/40
f 45/45/45 44/44/44 43/43/43
f 48/48/48 47/47/47 46/46/46
f 51/51/51 50/50/50 49/49/49
f 54/54/54 53/53/53 52/52/52
f 57/57/57 56/56/56 55/55/55
f 60/60/60 59/59/59 58/58/58
f 63/63/63 62/62/62 61/61/61
f 66/66/66 65/65/65 64/64/64
f 67/67/67 66/66/66 64/64/64
f 70/70/70 69/69/69 68/68/68
f 73/73/73 72/72/72 71/71/71
f 76/76/76 75/75/75 74/74/74
f 79/79/79 78/78/78 77/77/77
f 82/82/82 81/81/81 80/80/80
f 85/85/85 84/84/84 83/83/83
f 88/88/88 87/87/87 86/86/86
f 91/91/91 90/90/90 89/89/89
f 94/94/94 93/93/93 92/92/92
f 97/97/97 96/96/96 95/95/95
f 100/100/100 99/99/99 98/98/98
f 103/103/103 102/102/102 101/101/101
f 106/106/106 105/105/105 104/104/104
f 109/109/109 108/108/108 107/107/107
f 112/112/112 111/111/111 110/110/110
f 115/115/115 114/114/114 113/113/113
f 118/118/118 117/117/117 116/116/116
f 121/121/121 120/120/120 119/119/119
f 124/124/124 123/123/123 122/122/122
f 127/127/127 126/126/126 125/125/125
f 130/130/130 129/129/129 128/128/128
f 133/133/133 132/132/132 131/131/131
f 136/136/136 135/135/135 134/134/134
f 139/139/139 138/138/138 137/137/137
f 142/142/142 141/141/141 140/140/140
f 145/145/145 144/144/144 143/143/143
f 148/148/148 147/147/147 146/146/146
f 151/151/151 150/150/150 149/149/149
f 154/154/154 153/153/153 152/152/152
f 157/157/157 156/156/156 155/155/155
f 160/160/160 159/159/159 158/158/158
f 163/163/163 162/162/162 161/161/161
f 166/166/166 165/165/165 164/164/164
f 169/169/169 168/168/168 167/167/167
f 172/172/172 171/171/171 170/170/170
f 175/175/175 174/174/174 173/173/173
f 178/178/178 177/177/177 176/176/176
f 181/181/181 180/180/180 179/179/179
f 184/184/184 183/183/183 182/182/182
f 187/187/187 186/186/186 185/185/185
f 190/190/190 189/189/189 188/188/188
f 193/193/193 192/192/192 191/191/191
f 196/196/196 195/195/195 194/194/194
f 199/199/199 198/198/198 197/197/197
f 202/202/202 201/201/201 200/200/200
f 205/205/205 204/204/204 203/203/203
f 208/208/208 207/207/207 206/206/206
f 211/211/211 210/210/210 209/209/209
f 214/214/214 213/213/213 212/212/212
f 217/217/217 216/216/216 215/215/215
f 220/220/220 219/219/219 218/218/218
f 223/223/223 222/222/222 221/221/221
f 226/226/226 225/225/225 224/224/224
f 229/229/229 228/228/228 227/227/227
f 232/232/232 231/231/231 230/230/230
f 235/235/235 234/234/234 233/233/233
f 238/238/238 237/237/237 236/236/236
f 241/241/241 240/240/240 239/239/239
f 244/244/244 243/243/243 242/242/242
f 247/247/247 246/246/246 245/245/245
f 248/248/248 247/247/247 245/245/245
f 251/251/251 250/250/250 249/249/249
f 252/252/252 251/251/251 249/249/249
f 255/255/255 254/254/254 253/253/253
f 256/256/256 255/255/255 253/253/253
f 259/259/259 258/258/258 257/257/257
f 260/260/260 259/259/259 257/257/257
f 263/263/263 262/262/262 261/261/261
f 264/264/264 263/263/263 261/261/261
