g tree02
v 2.005623 16.20568 -0.05349445
v 2.389554 15.9726 0.04235697
v 2.045954 16.3492 0.3534822
v 2.045954 16.3492 0.3534822
v 2.389554 15.9726 0.04235697
v 2.411552 16.10198 0.5163779
v -0.4048128 12.28676 0.6499419
v -0.3393402 12.29881 1.475943
v -1.569699 15.36869 0.4561434
v 0.2462459 11.09516 0.9264975
v -0.4048128 12.28676 0.6499419
v -0.8432169 11.16692 0.5514712
v 0.2462459 11.09516 0.9264975
v 1.390705 6.79493 1.224528
v 0.1980581 11.26958 1.740452
v 1.458273 6.418331 0.2738681
v -1.569699 15.36869 0.4561434
v -0.3393402 12.29881 1.475943
v -3.145754 18.39875 0.5614233
v -0.3393402 12.29881 1.475943
v -0.3896232 10.97836 1.899158
v -1.350236 11.45605 1.889206
v 0.1980581 11.26958 1.740452
v -0.4048128 12.28676 0.6499419
v -1.569699 15.36869 0.4561434
v -0.8432169 11.16692 0.5514712
v 0.2462459 11.09516 0.9264975
v -0.8432169 11.16692 0.5514712
v 1.458273 6.418331 0.2738681
v -0.3393402 12.29881 1.475943
v -3.55535 18.38356 0.8138847
v -3.145754 18.39875 0.5614233
v -1.569699 15.36869 0.4561434
v -3.145754 18.39875 0.5614233
v -3.076091 18.46789 0.07797432
v -0.3393402 12.29881 1.475943
v -1.350236 11.45605 1.889206
v -3.55535 18.38356 0.8138847
v -1.569699 15.36869 0.4561434
v -3.076091 18.46789 0.07797432
v -2.040578 14.56416 0.6473231
v -0.8432169 11.16692 0.5514712
v -1.569699 15.36869 0.4561434
v -2.040578 14.56416 0.6473231
v 0.1980581 11.26958 1.740452
v 1.390705 6.79493 1.224528
v -0.3896232 10.97836 1.899158
v 1.390705 6.79493 1.224528
v 0.4651856 6.859354 1.734167
v -0.3896232 10.97836 1.899158
v 1.458273 6.418331 0.2738681
v -0.8432169 11.16692 0.5514712
v 0.5453243 6.44714 -0.4651856
v -1.251242 11.25649 0.8641682
v -3.55535 18.38356 0.8138847
v -1.350236 11.45605 1.889206
v -3.55535 18.38356 0.8138847
v -1.251242 11.25649 0.8641682
v -2.040578 14.56416 0.6473231
v -2.040578 14.56416 0.6473231
v -1.251242 11.25649 0.8641682
v -0.8432169 11.16692 0.5514712
v -0.3896232 10.97836 1.899158
v -0.3707671 7.190907 1.130772
v -1.350236 11.45605 1.889206
v -0.3896232 10.97836 1.899158
v 0.4651856 6.859354 1.734167
v -0.3707671 7.190907 1.130772
v 0.5453243 6.44714 -0.4651856
v -0.8432169 11.16692 0.5514712
v -1.251242 11.25649 0.8641682
v -3.584682 18.65383 0.4655714
v -3.076091 18.46789 0.07797432
v -3.145754 18.39875 0.5614233
v -3.145754 18.39875 0.5614233
v -3.55535 18.38356 0.8138847
v -3.584682 18.65383 0.4655714
v -3.55535 18.38356 0.8138847
v -2.040578 14.56416 0.6473231
v -3.584682 18.65383 0.4655714
v -1.350236 11.45605 1.889206
v -0.4943795 6.913828 0.1869202
v -1.251242 11.25649 0.8641682
v -0.3707671 7.190907 1.130772
v -0.4943795 6.913828 0.1869202
v -1.350236 11.45605 1.889206
v -0.4943795 6.913828 0.1869202
v 0.5453243 6.44714 -0.4651856
v -1.251242 11.25649 0.8641682
v 0.4651856 6.859354 1.734167
v -1.045919 -1.002584 2.188284
v -0.3707671 7.190907 1.130772
v 0.4651856 6.859354 1.734167
v 1.390705 6.79493 1.224528
v -1.045919 -1.002584 2.188284
v -3.584682 18.65383 0.4655714
v -2.040578 14.56416 0.6473231
v -3.076091 18.46789 0.07797432
v -1.558177 -1.002584 -0.9093513
v 0.5453243 6.44714 -0.4651856
v -0.4943795 6.913828 0.1869202
v 1.390705 6.79493 1.224528
v 1.458273 6.418331 0.2738681
v 0.5725608 -1.002584 1.967772
v 0.5725608 -1.002584 1.967772
v -1.045919 -1.002584 2.188284
v 1.390705 6.79493 1.224528
v -1.558177 -1.002584 -0.9093513
v -0.4943795 6.913828 0.1869202
v -0.3707671 7.190907 1.130772
v -0.08583069 -1.002584 -1.096341
v 0.5453243 6.44714 -0.4651856
v -1.558177 -1.002584 -0.9093513
v 0.5453243 6.44714 -0.4651856
v -0.08583069 -1.002584 -1.096341
v 1.458273 6.418331 0.2738681
v 1.162337 -1.002584 -0.1247287
v 1.458273 6.418331 0.2738681
v 1.162337 -1.002584 -0.1247287
v 0.5725608 -1.002584 1.967772
v -0.3707671 7.190907 1.130772
v -1.045919 -1.002584 2.188284
v -1.770308 -1.002584 0.1172576
v -1.558177 -1.002584 -0.9093513
v -0.3707671 7.190907 1.130772
v -1.770308 -1.002584 0.1172576
v -0.4048128 12.28676 0.6499419
v 1.297996 13.58626 0.7054625
v 1.329423 13.61035 1.380615
v -0.3393402 12.29881 1.475943
v 0.2462459 11.09516 0.9264975
v 1.957435 13.03944 0.8337889
v 1.297996 13.58626 0.7054625
v -0.4048128 12.28676 0.6499419
v -0.3393402 12.29881 1.475943
v 1.329423 13.61035 1.380615
v 1.911343 13.129 1.517322
v 0.1980581 11.26958 1.740452
v 0.1980581 11.26958 1.740452
v 1.911343 13.129 1.517322
v 1.957435 13.03944 0.8337889
v 0.2462459 11.09516 0.9264975
v 7.225091 20.19846 -1.371849
v 6.538939 20.27598 3.724531
v 6.675122 23.83559 3.379884
v 6.675122 23.83559 3.379884
v 6.538939 20.27598 3.724531
v 5.809837 23.4679 4.660002
v 7.225091 20.19846 -1.371849
v 6.675122 23.83559 3.379884
v 6.262383 22.83412 -0.8129759
v 7.225091 20.19846 -1.371849
v 6.262383 22.83412 -0.8129759
v 5.849645 19.28394 -3.639293
v 6.206339 22.50624 -3.746668
v 5.849645 19.28394 -3.639293
v 6.262383 22.83412 -0.8129759
v 7.225091 20.19846 -1.371849
v 5.505521 18.01692 1.096203
v 6.538939 20.27598 3.724531
v 6.867349 16.58176 1.011874
v 6.248765 15.21469 1.732595
v 3.78438 17.84721 4.681477
v 5.809837 23.4679 4.660002
v 6.538939 20.27598 3.724531
v 3.78438 17.84721 4.681477
v 7.225091 20.19846 -1.371849
v 5.849645 19.28394 -3.639293
v 4.791085 17.06207 -0.5725608
v 7.225091 20.19846 -1.371849
v 4.791085 17.06207 -0.5725608
v 5.505521 18.01692 1.096203
v 6.248765 15.21469 1.732595
v 6.867349 16.58176 1.011874
v 4.312874 15.32416 0.2115378
v 4.089744 25.1309 5.028743
v 6.675122 23.83559 3.379884
v 5.809837 23.4679 4.660002
v 5.505521 18.01692 1.096203
v 3.78438 17.84721 4.681477
v 6.538939 20.27598 3.724531
v 6.867349 16.58176 1.011874
v 3.78438 17.84721 4.681477
v 5.505521 18.01692 1.096203
v 6.675122 23.83559 3.379884
v 4.089744 25.1309 5.028743
v 6.262383 22.83412 -0.8129759
v 6.262383 22.83412 -0.8129759
v 3.210317 25.35612 -2.56083
v 6.206339 22.50624 -3.746668
v 4.089744 25.1309 5.028743
v 6.867349 16.58176 1.011874
v 5.505521 18.01692 1.096203
v 4.791085 17.06207 -0.5725608
v 6.867349 16.58176 1.011874
v 4.791085 17.06207 -0.5725608
v 4.312874 15.32416 0.2115378
v 2.160662 15.41635 3.63025
v 6.248765 15.21469 1.732595
v 4.312874 15.32416 0.2115378
v 5.809837 23.4679 4.660002
v 3.78438 17.84721 4.681477
v 3.35069 19.95962 6.802262
v 4.312874 15.32416 0.2115378
v 4.791085 17.06207 -0.5725608
v 3.930515 15.50382 -3.435019
v 2.047525 16.92536 4.576198
v 3.78438 17.84721 4.681477
v 6.248765 15.21469 1.732595
v 4.312874 15.32416 0.2115378
v 3.930515 15.50382 -3.435019
v 2.266989 14.38817 -2.700155
v 2.13133 21.48643 -5.566279
v 5.849645 19.28394 -3.639293
v 6.206339 22.50624 -3.746668
v -0.9521627 20.24141 -7.045434
v 1.922342 26.10251 2.132239
v 3.210317 25.35612 -2.56083
v 4.089744 25.1309 5.028743
v 5.809837 23.4679 4.660002
v 3.35069 19.95962 6.802262
v 4.089744 25.1309 5.028743
v 4.791085 17.06207 -0.5725608
v 5.849645 19.28394 -3.639293
v 2.043335 17.42452 -3.506777
v 3.930515 15.50382 -3.435019
v 4.791085 17.06207 -0.5725608
v 2.043335 17.42452 -3.506777
v 2.047525 16.92536 4.576198
v 6.248765 15.21469 1.732595
v 2.160662 15.41635 3.63025
v 3.35069 19.95962 6.802262
v 3.78438 17.84721 4.681477
v 2.047525 16.92536 4.576198
v 2.160662 15.41635 3.63025
v 4.312874 15.32416 0.2115378
v 1.49389 15.66829 1.445564
v 2.13133 21.48643 -5.566279
v 6.206339 22.50624 -3.746668
v 3.210317 25.35612 -2.56083
v -0.9521627 20.24141 -7.045434
v 2.043335 17.42452 -3.506777
v 5.849645 19.28394 -3.639293
v 4.089744 25.1309 5.028743
v 3.35069 19.95962 6.802262
v 1.170194 21.20045 7.769684
v 2.043335 17.42452 -3.506777
v 2.266989 14.38817 -2.700155
v 3.930515 15.50382 -3.435019
v 4.312874 15.32416 0.2115378
v 2.266989 14.38817 -2.700155
v 1.49389 15.66829 1.445564
v 2.13133 21.48643 -5.566279
v -1.461801 22.86293 -6.560938
v -0.9521627 20.24141 -7.045434
v 3.35069 19.95962 6.802262
v -0.8117895 19.68673 7.639263
v 1.170194 21.20045 7.769684
v 1.49389 15.66829 1.445564
v 2.047525 16.92536 4.576198
v 2.160662 15.41635 3.63025
v 3.35069 19.95962 6.802262
v 2.047525 16.92536 4.576198
v -0.8117895 19.68673 7.639263
v 1.922342 26.10251 2.132239
v 4.089744 25.1309 5.028743
v -0.254488 26.50006 3.436975
v 1.922342 26.10251 2.132239
v -1.603745 26.01714 -1.504889
v 3.210317 25.35612 -2.56083
v 1.49389 15.66829 1.445564
v 2.266989 14.38817 -2.700155
v -1.236575 16.88607 -3.057897
v 1.170194 21.20045 7.769684
v -0.254488 26.50006 3.436975
v 4.089744 25.1309 5.028743
v -4.25093 22.37005 6.387428
v -1.100392 23.14944 6.1203
v 3.210317 25.35612 -2.56083
v -1.603745 26.01714 -1.504889
v -1.372759 23.98591 -3.171557
v 2.13133 21.48643 -5.566279
v -1.236575 16.88607 -3.057897
v 2.266989 14.38817 -2.700155
v 2.043335 17.42452 -3.506777
v -2.376844 27.10083 0.6384187
v 1.922342 26.10251 2.132239
v -0.254488 26.50006 3.436975
v 1.922342 26.10251 2.132239
v -2.376844 27.10083 0.6384187
v -1.603745 26.01714 -1.504889
v -1.100392 23.14944 6.1203
v -0.254488 26.50006 3.436975
v 1.170194 21.20045 7.769684
v -1.372759 23.98591 -3.171557
v -1.461801 22.86293 -6.560938
v 2.13133 21.48643 -5.566279
v 2.043335 17.42452 -3.506777
v -0.9521627 20.24141 -7.045434
v -1.236575 16.88607 -3.057897
v -3.358409 15.54834 0.9348783
v 2.047525 16.92536 4.576198
v 1.49389 15.66829 1.445564
v -1.991343 16.23083 -1.157099
v 1.49389 15.66829 1.445564
v -1.236575 16.88607 -3.057897
v -3.358409 15.54834 0.9348783
v -4.025181 23.44066 -4.330159
v -1.461801 22.86293 -6.560938
v -1.372759 23.98591 -3.171557
v -2.743491 24.35518 2.834105
v -0.254488 26.50006 3.436975
v -1.100392 23.14944 6.1203
v 1.170194 21.20045 7.769684
v -0.8117895 19.68673 7.639263
v -4.25093 22.37005 6.387428
v 2.047525 16.92536 4.576198
v -3.358409 15.54834 0.9348783
v -2.583738 16.53514 3.157277
v -0.8117895 19.68673 7.639263
v 2.047525 16.92536 4.576198
v -2.583738 16.53514 3.157277
v -5.605948 20.28907 5.365534
v -0.8117895 19.68673 7.639263
v -4.794614 18.66693 4.713951
v -2.743491 24.35518 2.834105
v -5.362391 24.35099 2.355893
v -0.254488 26.50006 3.436975
v -0.8117895 19.68673 7.639263
v -2.583738 16.53514 3.157277
v -4.794614 18.66693 4.713951
v -2.583738 16.53514 3.157277
v -3.358409 15.54834 0.9348783
v -5.07955 15.77357 4.279214
v -2.376844 27.10083 0.6384187
v -0.254488 26.50006 3.436975
v -5.362391 24.35099 2.355893
v -3.327505 26.02708 -4.399821
v -1.372759 23.98591 -3.171557
v -1.603745 26.01714 -1.504889
v -0.8117895 19.68673 7.639263
v -5.605948 20.28907 5.365534
v -4.25093 22.37005 6.387428
v -1.603745 26.01714 -1.504889
v -2.376844 27.10083 0.6384187
v -4.445252 26.38588 -2.576543
v -0.9521627 20.24141 -7.045434
v -1.461801 22.86293 -6.560938
v -4.025181 23.44066 -4.330159
v -2.743491 24.35518 2.834105
v -1.100392 23.14944 6.1203
v -4.25093 22.37005 6.387428
v -1.236575 16.88607 -3.057897
v -0.9521627 20.24141 -7.045434
v -6.198344 18.70673 -1.238809
v -1.991343 16.23083 -1.157099
v -3.327505 26.02708 -4.399821
v -1.603745 26.01714 -1.504889
v -4.445252 26.38588 -2.576543
v -1.372759 23.98591 -3.171557
v -3.327505 26.02708 -4.399821
v -4.025181 23.44066 -4.330159
v -5.07955 15.77357 4.279214
v -4.794614 18.66693 4.713951
v -2.583738 16.53514 3.157277
v -3.358409 15.54834 0.9348783
v -1.991343 16.23083 -1.157099
v -5.988308 15.20788 -1.024583
v -2.743491 24.35518 2.834105
v -6.605844 21.83265 2.663877
v -5.362391 24.35099 2.355893
v -6.605844 21.83265 2.663877
v -2.743491 24.35518 2.834105
v -4.25093 22.37005 6.387428
v -5.604901 20.62534 -3.277884
v -0.9521627 20.24141 -7.045434
v -4.025181 23.44066 -4.330159
v -5.362391 24.35099 2.355893
v -4.445252 26.38588 -2.576543
v -2.376844 27.10083 0.6384187
v -4.25093 22.37005 6.387428
v -5.605948 20.28907 5.365534
v -6.605844 21.83265 2.663877
v -6.198344 18.70673 -1.238809
v -0.9521627 20.24141 -7.045434
v -5.604901 20.62534 -3.277884
v -5.060694 16.67342 -3.085134
v -1.991343 16.23083 -1.157099
v -6.198344 18.70673 -1.238809
v -1.991343 16.23083 -1.157099
v -5.060694 16.67342 -3.085134
v -5.988308 15.20788 -1.024583
v -5.362391 24.35099 2.355893
v -5.62009 23.50508 -0.1320615
v -4.445252 26.38588 -2.576543
v -5.07955 15.77357 4.279214
v -3.358409 15.54834 0.9348783
v -5.988308 15.20788 -1.024583
v -5.62009 23.50508 -0.1320615
v -5.362391 24.35099 2.355893
v -7.38942 21.79075 0.4194789
v -5.62009 23.50508 -0.1320615
v -6.405761 24.70611 -2.439837
v -4.445252 26.38588 -2.576543
v -6.887115 19.29285 2.960336
v -5.605948 20.28907 5.365534
v -4.794614 18.66693 4.713951
v -7.534507 17.30929 -1.438369
v -5.060694 16.67342 -3.085134
v -6.198344 18.70673 -1.238809
v -6.605844 21.83265 2.663877
v -7.38942 21.79075 0.4194789
v -5.362391 24.35099 2.355893
v -7.918438 18.57579 3.366789
v -6.887115 19.29285 2.960336
v -4.794614 18.66693 4.713951
v -4.025181 23.44066 -4.330159
v -5.62009 23.50508 -0.1320615
v -7.38942 21.79075 0.4194789
v -4.025181 23.44066 -4.330159
v -7.38942 21.79075 0.4194789
v -5.604901 20.62534 -3.277884
v -5.604901 20.62534 -3.277884
v -7.38942 21.79075 0.4194789
v -6.198344 18.70673 -1.238809
v -4.794614 18.66693 4.713951
v -5.07955 15.77357 4.279214
v -7.59317 16.47334 4.2855
v -7.59317 16.47334 4.2855
v -5.07955 15.77357 4.279214
v -5.988308 15.20788 -1.024583
v -6.405761 24.70611 -2.439837
v -5.62009 23.50508 -0.1320615
v -4.025181 23.44066 -4.330159
v -6.887115 19.29285 2.960336
v -6.198344 18.70673 -1.238809
v -7.38942 21.79075 0.4194789
v -6.198344 18.70673 -1.238809
v -6.887115 19.29285 2.960336
v -7.918438 18.57579 3.366789
v -5.060694 16.67342 -3.085134
v -7.534507 17.30929 -1.438369
v -5.988308 15.20788 -1.024583
v -3.327505 26.02708 -4.399821
v -4.445252 26.38588 -2.576543
v -6.405761 24.70611 -2.439837
v -4.025181 23.44066 -4.330159
v -3.327505 26.02708 -4.399821
v -6.405761 24.70611 -2.439837
v -5.605948 20.28907 5.365534
v -7.38942 21.79075 0.4194789
v -6.605844 21.83265 2.663877
v -5.605948 20.28907 5.365534
v -6.887115 19.29285 2.960336
v -7.38942 21.79075 0.4194789
v -4.794614 18.66693 4.713951
v -7.59317 16.47334 4.2855
v -7.918438 18.57579 3.366789
v -7.59317 16.47334 4.2855
v -8.460026 16.9416 2.275231
v -7.918438 18.57579 3.366789
v -8.460026 16.9416 2.275231
v -7.59317 16.47334 4.2855
v -5.988308 15.20788 -1.024583
v -8.460026 16.9416 2.275231
v -5.988308 15.20788 -1.024583
v -7.534507 17.30929 -1.438369
v -7.918438 18.57579 3.366789
v -7.534507 17.30929 -1.438369
v -6.198344 18.70673 -1.238809
v -8.460026 16.9416 2.275231
v -7.534507 17.30929 -1.438369
v -7.918438 18.57579 3.366789
v 0.5725608 -1.002584 1.967772
v 1.162337 -1.002584 -0.1247287
v -1.770308 -1.002584 0.1172576
v -1.045919 -1.002584 2.188284
v -0.08583069 -1.002584 -1.096341
v -1.558177 -1.002584 -0.9093513
v 1.297996 13.58626 0.7054625
v 2.005623 16.20568 -0.05349445
v 2.045954 16.3492 0.3534822
v 1.329423 13.61035 1.380615
v 1.957435 13.03944 0.8337889
v 2.389554 15.9726 0.04235697
v 2.005623 16.20568 -0.05349445
v 1.297996 13.58626 0.7054625
v 1.329423 13.61035 1.380615
v 2.045954 16.3492 0.3534822
v 2.411552 16.10198 0.5163779
v 1.911343 13.129 1.517322
v 1.911343 13.129 1.517322
v 2.411552 16.10198 0.5163779
v 2.389554 15.9726 0.04235697
v 1.957435 13.03944 0.8337889
vt 0.3451102 0.4525361
vt 0.3451102 0.4525361
vt 0.3451102 0.4525361
vt 0.3451102 0.4525361
vt 0.3451102 0.4525361
vt 0.3451102 0.4525361
vt 0.3451102 0.4525361
vt 0.3451102 0.4525361
vt 0.3451102 0.4525361
vt 0.3451102 0.4525361
vt 0.3451102 0.4525361
vt 0.3451102 0.4525361
vt 0.3451102 0.4525361
vt 0.3451102 0.4525361
vt 0.3451102 0.4525361
vt 0.3451102 0.4525361
vt 0.3451102 0.4525361
vt 0.3451102 0.4525361
vt 0.3451102 0.4525361
vt 0.3451102 0.4525361
vt 0.3451102 0.4525361
vt 0.3451102 0.4525361
vt 0.3451102 0.4525361
vt 0.3451102 0.4525361
vt 0.3451102 0.4525361
vt 0.3451102 0.4525361
vt 0.3451102 0.4525361
vt 0.3451102 0.4525361
vt 0.3451102 0.4525361
vt 0.3451102 0.4525361
vt 0.3451102 0.4525361
vt 0.3451102 0.4525361
vt 0.3451102 0.4525361
vt 0.3451102 0.4525361
vt 0.3451102 0.4525361
vt 0.3451102 0.4525361
vt 0.3451102 0.4525361
vt 0.3451102 0.4525361
vt 0.3451102 0.4525361
vt 0.3451102 0.4525361
vt 0.3451102 0.4525361
vt 0.3451102 0.4525361
vt 0.3451102 0.4525361
vt 0.3451102 0.4525361
vt 0.3451102 0.4525361
vt 0.3451102 0.4525361
vt 0.3451102 0.4525361
vt 0.3451102 0.4525361
vt 0.3451102 0.4525361
vt 0.3451102 0.4525361
vt 0.3451102 0.4525361
vt 0.3451102 0.4525361
vt 0.3451102 0.4525361
vt 0.3451102 0.4525361
vt 0.3451102 0.4525361
vt 0.3451102 0.4525361
vt 0.3451102 0.4525361
vt 0.3451102 0.4525361
vt 0.3451102 0.4525361
vt 0.3451102 0.4525361
vt 0.3451102 0.4525361
vt 0.3451102 0.4525361
vt 0.3451102 0.4525361
vt 0.3451102 0.4525361
vt 0.3451102 0.4525361
vt 0.3451102 0.4525361
vt 0.3451102 0.4525361
vt 0.3451102 0.4525361
vt 0.3451102 0.4525361
vt 0.3451102 0.4525361
vt 0.3451102 0.4525361
vt 0.3451102 0.4525361
vt 0.3451102 0.4525361
vt 0.3451102 0.4525361
vt 0.3451102 0.4525361
vt 0.3451102 0.4525361
vt 0.3451102 0.4525361
vt 0.3451102 0.4525361
vt 0.3451102 0.4525361
vt 0.3451102 0.4525361
vt 0.3451102 0.4525361
vt 0.3451102 0.4525361
vt 0.3451102 0.4525361
vt 0.3451102 0.4525361
vt 0.3451102 0.4525361
vt 0.3451102 0.4525361
vt 0.3451102 0.4525361
vt 0.3451102 0.4525361
vt 0.3451102 0.4525361
vt 0.3451102 0.4525361
vt 0.3451102 0.4525361
vt 0.3451102 0.4525361
vt 0.3451102 0.4525361
vt 0.3451102 0.4525361
vt 0.3451102 0.4525361
vt 0.3451102 0.4525361
vt 0.3451102 0.4525361
vt 0.3451102 0.4525361
vt 0.3451102 0.4525361
vt 0.3451102 0.4525361
vt 0.3451102 0.4525361
vt 0.3451102 0.4525361
vt 0.3451102 0.4525361
vt 0.3451102 0.4525361
vt 0.3451102 0.4525361
vt 0.3451102 0.4525361
vt 0.3451102 0.4525361
vt 0.3451102 0.4525361
vt 0.3451102 0.4525361
vt 0.3451102 0.4525361
vt 0.3451102 0.4525361
vt 0.3451102 0.4525361
vt 0.3451102 0.4525361
vt 0.3451102 0.4525361
vt 0.3451102 0.4525361
vt 0.3451102 0.4525361
vt 0.3451102 0.4525361
vt 0.3451102 0.4525361
vt 0.3451102 0.4525361
vt 0.3451102 0.4525361
vt 0.3451102 0.4525361
vt 0.3451102 0.4525361
vt 0.3451102 0.4525361
vt 0.3451102 0.4525361
vt 0.3451102 0.4525361
vt 0.3451102 0.4525361
vt 0.3451102 0.4525361
vt 0.3451102 0.4525361
vt 0.3451102 0.4525361
vt 0.3451102 0.4525361
vt 0.3451102 0.4525361
vt 0.3451102 0.4525361
vt 0.3451102 0.4525361
vt 0.3451102 0.4525361
vt 0.3451102 0.4525361
vt 0.3451102 0.4525361
vt 0.3451102 0.4525361
vt 0.3451102 0.4525361
vt 0.3451102 0.4525361
vt 0.3451102 0.4525361
vt 0.3451102 0.4525361
vt 0.3451102 0.4525361
vt 0.6903596 0.5072625
vt 0.6903596 0.5072625
vt 0.6903596 0.5072625
vt 0.6903596 0.5072625
vt 0.6903596 0.5072625
vt 0.6903596 0.5072625
vt 0.6903596 0.5072625
vt 0.6903596 0.5072625
vt 0.6903596 0.5072625
vt 0.6903596 0.5072625
vt 0.6903596 0.5072625
vt 0.6903596 0.5072625
vt 0.6903596 0.5072625
vt 0.6903596 0.5072625
vt 0.6903596 0.5072625
vt 0.6903596 0.5072625
vt 0.6903596 0.5072625
vt 0.6903596 0.5072625
vt 0.6903596 0.5072625
vt 0.6903596 0.5072625
vt 0.6903596 0.5072625
vt 0.6903596 0.5072625
vt 0.6903596 0.5072625
vt 0.6903596 0.5072625
vt 0.6903596 0.5072625
vt 0.6903596 0.5072625
vt 0.6903596 0.5072625
vt 0.6903596 0.5072625
vt 0.6903596 0.5072625
vt 0.6903596 0.5072625
vt 0.6903596 0.5072625
vt 0.6903596 0.5072625
vt 0.6903596 0.5072625
vt 0.6903596 0.5072625
vt 0.6903596 0.5072625
vt 0.6903596 0.5072625
vt 0.6903596 0.5072625
vt 0.6903596 0.5072625
vt 0.6903596 0.5072625
vt 0.6903596 0.5072625
vt 0.6903596 0.5072625
vt 0.6903596 0.5072625
vt 0.6903596 0.5072625
vt 0.6903596 0.5072625
vt 0.6903596 0.5072625
vt 0.6903596 0.5072625
vt 0.6903596 0.5072625
vt 0.6903596 0.5072625
vt 0.6903596 0.5072625
vt 0.6903596 0.5072625
vt 0.6903596 0.5072625
vt 0.6903596 0.5072625
vt 0.6903596 0.5072625
vt 0.6903596 0.5072625
vt 0.6903596 0.5072625
vt 0.6903596 0.5072625
vt 0.6903596 0.5072625
vt 0.6903596 0.5072625
vt 0.6903596 0.5072625
vt 0.6903596 0.5072625
vt 0.6903596 0.5072625
vt 0.6903596 0.5072625
vt 0.6903596 0.5072625
vt 0.6903596 0.5072625
vt 0.6903596 0.5072625
vt 0.6903596 0.5072625
vt 0.6903596 0.5072625
vt 0.6903596 0.5072625
vt 0.6903596 0.5072625
vt 0.6903596 0.5072625
vt 0.6903596 0.5072625
vt 0.6903596 0.5072625
vt 0.6903596 0.5072625
vt 0.6903596 0.5072625
vt 0.6903596 0.5072625
vt 0.6903596 0.5072625
vt 0.6903596 0.5072625
vt 0.6903596 0.5072625
vt 0.6903596 0.5072625
vt 0.6903596 0.5072625
vt 0.6903596 0.5072625
vt 0.6903596 0.5072625
vt 0.6903596 0.5072625
vt 0.6903596 0.5072625
vt 0.6903596 0.5072625
vt 0.6903596 0.5072625
vt 0.6903596 0.5072625
vt 0.6903596 0.5072625
vt 0.6903596 0.5072625
vt 0.6903596 0.5072625
vt 0.6903596 0.5072625
vt 0.6903596 0.5072625
vt 0.6903596 0.5072625
vt 0.6903596 0.5072625
vt 0.6903596 0.5072625
vt 0.6903596 0.5072625
vt 0.6903596 0.5072625
vt 0.6903596 0.5072625
vt 0.6903596 0.5072625
vt 0.6903596 0.5072625
vt 0.6903596 0.5072625
vt 0.6903596 0.5072625
vt 0.6903596 0.5072625
vt 0.6903596 0.5072625
vt 0.6903596 0.5072625
vt 0.6903596 0.5072625
vt 0.6903596 0.5072625
vt 0.6903596 0.5072625
vt 0.6903596 0.5072625
vt 0.6903596 0.5072625
vt 0.6903596 0.5072625
vt 0.6903596 0.5072625
vt 0.6903596 0.5072625
vt 0.6903596 0.5072625
vt 0.6903596 0.5072625
vt 0.6903596 0.5072625
vt 0.6903596 0.5072625
vt 0.6903596 0.5072625
vt 0.6903596 0.5072625
vt 0.6903596 0.5072625
vt 0.6903596 0.5072625
vt 0.6903596 0.5072625
vt 0.6903596 0.5072625
vt 0.6903596 0.5072625
vt 0.6903596 0.5072625
vt 0.6903596 0.5072625
vt 0.6903596 0.5072625
vt 0.6903596 0.5072625
vt 0.6903596 0.5072625
vt 0.6903596 0.5072625
vt 0.6903596 0.5072625
vt 0.6903596 0.5072625
vt 0.6903596 0.5072625
vt 0.6903596 0.5072625
vt 0.6903596 0.5072625
vt 0.6903596 0.5072625
vt 0.6903596 0.5072625
vt 0.6903596 0.5072625
vt 0.6903596 0.5072625
vt 0.6903596 0.5072625
vt 0.6903596 0.5072625
vt 0.6903596 0.5072625
vt 0.6903596 0.5072625
vt 0.6903596 0.5072625
vt 0.6903596 0.5072625
vt 0.6903596 0.5072625
vt 0.6903596 0.5072625
vt 0.6903596 0.5072625
vt 0.6903596 0.5072625
vt 0.6903596 0.5072625
vt 0.6903596 0.5072625
vt 0.6903596 0.5072625
vt 0.6903596 0.5072625
vt 0.6903596 0.5072625
vt 0.6903596 0.5072625
vt 0.6903596 0.5072625
vt 0.6903596 0.5072625
vt 0.6903596 0.5072625
vt 0.6903596 0.5072625
vt 0.6903596 0.5072625
vt 0.6903596 0.5072625
vt 0.6903596 0.5072625
vt 0.6903596 0.5072625
vt 0.6903596 0.5072625
vt 0.6903596 0.5072625
vt 0.6903596 0.5072625
vt 0.6903596 0.5072625
vt 0.6903596 0.5072625
vt 0.6903596 0.5072625
vt 0.6903596 0.5072625
vt 0.6903596 0.5072625
vt 0.6903596 0.5072625
vt 0.6903596 0.5072625
vt 0.6903596 0.5072625
vt 0.6903596 0.5072625
vt 0.6903596 0.5072625
vt 0.6903596 0.5072625
vt 0.6903596 0.5072625
vt 0.6903596 0.5072625
vt 0.6903596 0.5072625
vt 0.6903596 0.5072625
vt 0.6903596 0.5072625
vt 0.6903596 0.5072625
vt 0.6903596 0.5072625
vt 0.6903596 0.5072625
vt 0.6903596 0.5072625
vt 0.6903596 0.5072625
vt 0.6903596 0.5072625
vt 0.6903596 0.5072625
vt 0.6903596 0.5072625
vt 0.6903596 0.5072625
vt 0.6903596 0.5072625
vt 0.6903596 0.5072625
vt 0.6903596 0.5072625
vt 0.6903596 0.5072625
vt 0.6903596 0.5072625
vt 0.6903596 0.5072625
vt 0.6903596 0.5072625
vt 0.6903596 0.5072625
vt 0.6903596 0.5072625
vt 0.6903596 0.5072625
vt 0.6903596 0.5072625
vt 0.6903596 0.5072625
vt 0.6903596 0.5072625
vt 0.6903596 0.5072625
vt 0.6903596 0.5072625
vt 0.6903596 0.5072625
vt 0.6903596 0.5072625
vt 0.6903596 0.5072625
vt 0.6903596 0.5072625
vt 0.6903596 0.5072625
vt 0.6903596 0.5072625
vt 0.6903596 0.5072625
vt 0.6903596 0.5072625
vt 0.6903596 0.5072625
vt 0.6903596 0.5072625
vt 0.6903596 0.5072625
vt 0.6903596 0.5072625
vt 0.6903596 0.5072625
vt 0.6903596 0.5072625
vt 0.6903596 0.5072625
vt 0.6903596 0.5072625
vt 0.6903596 0.5072625
vt 0.6903596 0.5072625
vt 0.6903596 0.5072625
vt 0.6903596 0.5072625
vt 0.6903596 0.5072625
vt 0.6903596 0.5072625
vt 0.6903596 0.5072625
vt 0.6903596 0.5072625
vt 0.6903596 0.5072625
vt 0.6903596 0.5072625
vt 0.6903596 0.5072625
vt 0.6903596 0.5072625
vt 0.6903596 0.5072625
vt 0.6903596 0.5072625
vt 0.6903596 0.5072625
vt 0.6903596 0.5072625
vt 0.6903596 0.5072625
vt 0.6903596 0.5072625
vt 0.6903596 0.5072625
vt 0.6903596 0.5072625
vt 0.6903596 0.5072625
vt 0.6903596 0.5072625
vt 0.6903596 0.5072625
vt 0.6903596 0.5072625
vt 0.6903596 0.5072625
vt 0.6903596 0.5072625
vt 0.6903596 0.5072625
vt 0.6903596 0.5072625
vt 0.6903596 0.5072625
vt 0.6903596 0.5072625
vt 0.6903596 0.5072625
vt 0.6903596 0.5072625
vt 0.6903596 0.5072625
vt 0.6903596 0.5072625
vt 0.6903596 0.5072625
vt 0.6903596 0.5072625
vt 0.6903596 0.5072625
vt 0.6903596 0.5072625
vt 0.6903596 0.5072625
vt 0.6903596 0.5072625
vt 0.6903596 0.5072625
vt 0.6903596 0.5072625
vt 0.6903596 0.5072625
vt 0.6903596 0.5072625
vt 0.6903596 0.5072625
vt 0.6903596 0.5072625
vt 0.6903596 0.5072625
vt 0.6903596 0.5072625
vt 0.6903596 0.5072625
vt 0.6903596 0.5072625
vt 0.6903596 0.5072625
vt 0.6903596 0.5072625
vt 0.6903596 0.5072625
vt 0.6903596 0.5072625
vt 0.6903596 0.5072625
vt 0.6903596 0.5072625
vt 0.6903596 0.5072625
vt 0.6903596 0.5072625
vt 0.6903596 0.5072625
vt 0.6903596 0.5072625
vt 0.6903596 0.5072625
vt 0.6903596 0.5072625
vt 0.6903596 0.5072625
vt 0.6903596 0.5072625
vt 0.6903596 0.5072625
vt 0.6903596 0.5072625
vt 0.6903596 0.5072625
vt 0.6903596 0.5072625
vt 0.6903596 0.5072625
vt 0.6903596 0.5072625
vt 0.6903596 0.5072625
vt 0.6903596 0.5072625
vt 0.6903596 0.5072625
vt 0.6903596 0.5072625
vt 0.6903596 0.5072625
vt 0.6903596 0.5072625
vt 0.6903596 0.5072625
vt 0.6903596 0.5072625
vt 0.6903596 0.5072625
vt 0.6903596 0.5072625
vt 0.6903596 0.5072625
vt 0.6903596 0.5072625
vt 0.6903596 0.5072625
vt 0.6903596 0.5072625
vt 0.6903596 0.5072625
vt 0.6903596 0.5072625
vt 0.6903596 0.5072625
vt 0.6903596 0.5072625
vt 0.6903596 0.5072625
vt 0.6903596 0.5072625
vt 0.6903596 0.5072625
vt 0.6903596 0.5072625
vt 0.6903596 0.5072625
vt 0.6903596 0.5072625
vt 0.6903596 0.5072625
vt 0.6903596 0.5072625
vt 0.6903596 0.5072625
vt 0.6903596 0.5072625
vt 0.6903596 0.5072625
vt 0.6903596 0.5072625
vt 0.6903596 0.5072625
vt 0.6903596 0.5072625
vt 0.6903596 0.5072625
vt 0.6903596 0.5072625
vt 0.6903596 0.5072625
vt 0.6903596 0.5072625
vt 0.6903596 0.5072625
vt 0.6903596 0.5072625
vt 0.6903596 0.5072625
vt 0.3451102 0.4525361
vt 0.3451102 0.4525361
vt 0.3451102 0.4525361
vt 0.3451102 0.4525361
vt 0.3451102 0.4525361
vt 0.3451102 0.4525361
vt 0.3451102 0.4525361
vt 0.3451102 0.4525361
vt 0.3451102 0.4525361
vt 0.3451102 0.4525361
vt 0.3451102 0.4525361
vt 0.3451102 0.4525361
vt 0.3451102 0.4525361
vt 0.3451102 0.4525361
vt 0.3451102 0.4525361
vt 0.3451102 0.4525361
vt 0.3451102 0.4525361
vt 0.3451102 0.4525361
vt 0.3451102 0.4525361
vt 0.3451102 0.4525361
vt 0.3451102 0.4525361
vt 0.3451102 0.4525361
vn 0.5477487 0.7700126 -0.3271879
vn 0.5477487 0.7700126 -0.3271879
vn 0.5477487 0.7700126 -0.3271879
vn 0.6179254 0.7544178 -0.2214093
vn 0.6179254 0.7544178 -0.2214093
vn 0.6179254 0.7544178 -0.2214093
vn 0.9371985 0.3487963 0
vn 0.9371985 0.3487963 0
vn 0.9371985 0.3487963 0
vn 0.321624 -0.04091746 -0.9459829
vn 0.321624 -0.04091746 -0.9459829
vn 0.321624 -0.04091746 -0.9459829
vn 0.9669677 0.2548987 0
vn 0.9669677 0.2548987 0
vn 0.9669677 0.2548987 0
vn 0.9669677 0.2548987 0
vn 0.8596449 0.4347242 0.2683756
vn 0.8596449 0.4347242 0.2683756
vn 0.8596449 0.4347242 0.2683756
vn 0.1344863 0.2943709 0.9461814
vn 0.1344863 0.2943709 0.9461814
vn 0.1344863 0.2943709 0.9461814
vn 0.1110941 0.3021684 0.9467589
vn 0.1890681 0.01366436 -0.9818689
vn 0.1890681 0.01366436 -0.9818689
vn 0.1890681 0.01366436 -0.9818689
vn 0.3294214 0.2163969 -0.9190506
vn 0.3294214 0.2163969 -0.9190506
vn 0.3294214 0.2163969 -0.9190506
vn 0.4853695 0.3411554 0.8050027
vn 0.4853695 0.3411554 0.8050027
vn 0.4853695 0.3411554 0.8050027
vn 0.8752397 0.4503191 0.1765452
vn 0.8752397 0.4503191 0.1765452
vn 0.8752397 0.4503191 0.1765452
vn 0.2124603 0.2163969 0.9529077
vn 0.2124603 0.2163969 0.9529077
vn 0.2124603 0.2163969 0.9529077
vn -0.1072333 -0.1734734 -0.9789832
vn -0.1072333 -0.1734734 -0.9789832
vn -0.1072333 -0.1734734 -0.9789832
vn -0.2709787 -0.07210708 -0.9598808
vn -0.2709787 -0.07210708 -0.9598808
vn -0.2709787 -0.07210708 -0.9598808
vn 0.2748396 -0.03312004 0.9609195
vn 0.2748396 -0.03312004 0.9609195
vn 0.2748396 -0.03312004 0.9609195
vn 0.4853695 0.06824625 0.8716415
vn 0.4853695 0.06824625 0.8716415
vn 0.4853695 0.06824625 0.8716415
vn 0.6023306 0.3333579 -0.7253071
vn 0.6023306 0.3333579 -0.7253071
vn 0.6023306 0.3333579 -0.7253071
vn -0.949353 -0.3060292 -0.0712392
vn -0.949353 -0.3060292 -0.0712392
vn -0.949353 -0.3060292 -0.0712392
vn -0.5594827 -0.1890681 -0.8069897
vn -0.5594827 -0.1890681 -0.8069897
vn -0.5594827 -0.1890681 -0.8069897
vn -0.6218619 -0.1968656 -0.7579787
vn -0.6218619 -0.1968656 -0.7579787
vn -0.6218619 -0.1968656 -0.7579787
vn -0.1072333 -0.1968656 0.9745486
vn -0.1072333 -0.1968656 0.9745486
vn -0.1072333 -0.1968656 0.9745486
vn -0.6218619 -0.1578785 0.7670476
vn -0.6218619 -0.1578785 0.7670476
vn -0.6218619 -0.1578785 0.7670476
vn -0.6062671 -0.009727836 -0.7952016
vn -0.6062671 -0.009727836 -0.7952016
vn -0.6062671 -0.009727836 -0.7952016
vn 0.4619773 0.8635814 0.2020004
vn 0.4619773 0.8635814 0.2020004
vn 0.4619773 0.8635814 0.2020004
vn 0.321624 0.7622153 0.5617703
vn 0.321624 0.7622153 0.5617703
vn 0.321624 0.7622153 0.5617703
vn -0.9103659 -0.3528137 -0.2162322
vn -0.9103659 -0.3528137 -0.2162322
vn -0.9103659 -0.3528137 -0.2162322
vn -0.9874805 -0.1577412 0
vn -0.9874805 -0.1577412 0
vn -0.9874805 -0.1577412 0
vn -0.949353 -0.2514474 0.1884227
vn -0.949353 -0.2514474 0.1884227
vn -0.949353 -0.2514474 0.1884227
vn -0.5204957 0.04485404 -0.8526854
vn -0.5204957 0.04485404 -0.8526854
vn -0.5204957 0.04485404 -0.8526854
vn -0.5360905 0.1540177 0.8299913
vn -0.5360905 0.1540177 0.8299913
vn -0.5360905 0.1540177 0.8299913
vn 0.4775721 -0.04091746 0.8776393
vn 0.4775721 -0.04091746 0.8776393
vn 0.4775721 -0.04091746 0.8776393
vn -0.6452541 -0.2748396 -0.7128186
vn -0.6452541 -0.2748396 -0.7128186
vn -0.6452541 -0.2748396 -0.7128186
vn -0.4659139 0.1852072 -0.8652298
vn -0.4659139 0.1852072 -0.8652298
vn -0.4659139 0.1852072 -0.8652298
vn 0.9922008 -0.09549928 0.08010897
vn 0.9922008 -0.09549928 0.08010897
vn 0.9922008 -0.09549928 0.08010897
vn 0.1344863 0.08384097 0.9873622
vn 0.1344863 0.08384097 0.9873622
vn 0.1344863 0.08384097 0.9873622
vn -0.9883399 0.122828 0.08998623
vn -0.9883399 0.122828 0.08998623
vn -0.9883399 0.122828 0.08998623
vn -0.122828 0.09163845 -0.9881881
vn -0.122828 0.09163845 -0.9881881
vn -0.122828 0.09163845 -0.9881881
vn 0.6257228 0.01366436 -0.7799258
vn 0.6257228 0.01366436 -0.7799258
vn 0.6257228 0.01366436 -0.7799258
vn 0.6179254 0.02146173 -0.7859437
vn 0.9610112 -0.05651224 0.270673
vn 0.9610112 -0.05651224 0.270673
vn 0.9610112 -0.05651224 0.270673
vn -0.9337581 0.122828 0.3361681
vn -0.9337581 0.122828 0.3361681
vn -0.9337581 0.122828 0.3361681
vn -0.9649477 0.1852072 -0.1859414
vn -0.9649477 0.1852072 -0.1859414
vn -0.9649477 0.1852072 -0.1859414
vn -0.6120583 0.7908126 0
vn -0.6120583 0.7908126 0
vn -0.6120583 0.7908126 0
vn -0.6120583 0.7908126 0
vn 0.1188915 -0.1344863 -0.9837572
vn 0.1188915 -0.1344863 -0.9837572
vn 0.1188915 -0.1344863 -0.9837572
vn 0.1188915 -0.1344863 -0.9837572
vn -0.09163845 0.1930047 0.9769092
vn -0.09163845 0.1930047 0.9769092
vn -0.09163845 0.1930047 0.9769092
vn -0.09163845 0.1930047 0.9769092
vn 0.7426839 -0.649115 0.1645309
vn 0.7426839 -0.649115 0.1645309
vn 0.7426839 -0.649115 0.1645309
vn 0.7426839 -0.649115 0.1645309
vn 0.9922008 -0.02532262 0.1220505
vn 0.9922008 -0.02532262 0.1220505
vn 0.9922008 -0.02532262 0.1220505
vn 0.8284553 0.02146173 0.5596438
vn 0.8284553 0.02146173 0.5596438
vn 0.8284553 0.02146173 0.5596438
vn 0.9142268 0.372345 -0.1598394
vn 0.9142268 0.372345 -0.1598394
vn 0.9142268 0.372345 -0.1598394
vn 0.7114942 0.3879398 -0.5858999
vn 0.7114942 0.3879398 -0.5858999
vn 0.7114942 0.3879398 -0.5858999
vn 0.9922008 -0.1110941 -0.05653014
vn 0.9922008 -0.1110941 -0.05653014
vn 0.9922008 -0.1110941 -0.05653014
vn 0.8440501 -0.5243565 0.1123816
vn 0.8440501 -0.5243565 0.1123816
vn 0.8440501 -0.5243565 0.1123816
vn 0.7660761 -0.009727836 0.6426763
vn 0.7660761 -0.009727836 0.6426763
vn 0.7660761 -0.009727836 0.6426763
vn 0.4463825 -0.1578785 0.8808048
vn 0.4463825 -0.1578785 0.8808048
vn 0.4463825 -0.1578785 0.8808048
vn 0.7504812 -0.6335202 -0.1882288
vn 0.7504812 -0.6335202 -0.1882288
vn 0.7504812 -0.6335202 -0.1882288
vn 0.7894683 -0.610128 0.06695999
vn 0.7894683 -0.610128 0.06695999
vn 0.7894683 -0.610128 0.06695999
vn 0.4853695 -0.571141 -0.6619776
vn 0.4853695 -0.571141 -0.6619776
vn 0.4853695 -0.571141 -0.6619776
vn 0.6257228 0.5204957 0.5809951
vn 0.6257228 0.5204957 0.5809951
vn 0.6257228 0.5204957 0.5809951
vn 0.688102 -0.6647098 0.2909922
vn 0.688102 -0.6647098 0.2909922
vn 0.688102 -0.6647098 0.2909922
vn 0.688102 0.6296593 0.3606172
vn 0.688102 0.6296593 0.3606172
vn 0.688102 0.6296593 0.3606172
vn 0.2982318 0.9181633 -0.2608333
vn 0.2982318 0.9181633 -0.2608333
vn 0.2982318 0.9181633 -0.2608333
vn 0.6647098 0.7388231 -0.1109116
vn 0.6647098 0.7388231 -0.1109116
vn 0.6647098 0.7388231 -0.1109116
vn 0.6566892 0.7541614 0
vn 0.571141 0.5828749 -0.5779747
vn 0.571141 0.5828749 -0.5779747
vn 0.571141 0.5828749 -0.5779747
vn 0.4619773 -0.4697747 -0.7522557
vn 0.4619773 -0.4697747 -0.7522557
vn 0.4619773 -0.4697747 -0.7522557
vn -0.05257867 -0.9986168 0
vn -0.05257867 -0.9986168 0
vn -0.05257867 -0.9986168 0
vn 0.8362527 -0.2982318 0.4601513
vn 0.8362527 -0.2982318 0.4601513
vn 0.8362527 -0.2982318 0.4601513
vn 0.9454164 -0.3138266 -0.08775348
vn 0.9454164 -0.3138266 -0.08775348
vn 0.9454164 -0.3138266 -0.08775348
vn 0.2670422 -0.5945332 0.7584317
vn 0.2670422 -0.5945332 0.7584317
vn 0.2670422 -0.5945332 0.7584317
vn 0.5243565 -0.8440501 -0.1123816
vn 0.5243565 -0.8440501 -0.1123816
vn 0.5243565 -0.8440501 -0.1123816
vn 0.4229903 -0.0799045 -0.9026043
vn 0.4229903 -0.0799045 -0.9026043
vn 0.4229903 -0.0799045 -0.9026043
vn 0.4463825 -0.03312004 -0.8942291
vn 0.437061 0.8994319 0
vn 0.437061 0.8994319 0
vn 0.437061 0.8994319 0
vn 0.4229903 0.2397891 0.8738309
vn 0.4229903 0.2397891 0.8738309
vn 0.4229903 0.2397891 0.8738309
vn 0.3762059 -0.8050631 -0.4586311
vn 0.3762059 -0.8050631 -0.4586311
vn 0.3762059 -0.8050631 -0.4586311
vn 0.6257228 0.5906724 -0.5094872
vn 0.6257228 0.5906724 -0.5094872
vn 0.6257228 0.5906724 -0.5094872
vn 0.3528137 -0.4775721 0.8046412
vn 0.3528137 -0.4775721 0.8046412
vn 0.3528137 -0.4775721 0.8046412
vn 0.2982318 -0.6413176 0.7069438
vn 0.2982318 -0.6413176 0.7069438
vn 0.2982318 -0.6413176 0.7069438
vn -0.1462202 -0.9844034 -0.09782396
vn -0.1462202 -0.9844034 -0.09782396
vn -0.1462202 -0.9844034 -0.09782396
vn 0.2202578 0.5594827 -0.7990404
vn 0.2202578 0.5594827 -0.7990404
vn 0.2202578 0.5594827 -0.7990404
vn 0.2748396 -0.6257228 -0.7300234
vn 0.2748396 -0.6257228 -0.7300234
vn 0.2748396 -0.6257228 -0.7300234
vn 0.4931669 0.2163969 0.8425905
vn 0.4931669 0.2163969 0.8425905
vn 0.4931669 0.2163969 0.8425905
vn -0.2319916 -0.2670422 -0.935344
vn -0.2319916 -0.2670422 -0.935344
vn -0.2319916 -0.2670422 -0.935344
vn 0.01752526 -0.9532138 0.3017885
vn 0.01752526 -0.9532138 0.3017885
vn 0.01752526 -0.9532138 0.3017885
vn 0.3450162 0.2319916 -0.9094744
vn 0.3450162 0.2319916 -0.9094744
vn 0.3450162 0.2319916 -0.9094744
vn 0.2046629 -0.3528137 0.9130365
vn 0.2046629 -0.3528137 0.9130365
vn 0.2046629 -0.3528137 0.9130365
vn -0.9337581 -0.2358525 0.2692013
vn -0.9337581 -0.2358525 0.2692013
vn -0.9337581 -0.2358525 0.2692013
vn 0.1890681 -0.6335202 0.7502702
vn 0.1890681 -0.6335202 0.7502702
vn 0.1890681 -0.6335202 0.7502702
vn 0.2514474 0.9571503 0.1436572
vn 0.2514474 0.9571503 0.1436572
vn 0.2514474 0.9571503 0.1436572
vn 0.1110941 0.9883399 -0.1041265
vn 0.1110941 0.9883399 -0.1041265
vn 0.1110941 0.9883399 -0.1041265
vn -0.5828749 -0.7972657 0.1569211
vn -0.5828749 -0.7972657 0.1569211
vn -0.5828749 -0.7972657 0.1569211
vn -0.09163845 0.6140646 0.7839178
vn -0.09163845 0.6140646 0.7839178
vn -0.09163845 0.6140646 0.7839178
vn -0.07604361 0.5906724 0.8033203
vn -0.07604361 0.5906724 0.8033203
vn -0.08384097 0.6296593 -0.7723341
vn -0.08384097 0.6296593 -0.7723341
vn -0.08384097 0.6296593 -0.7723341
vn -0.08384097 0.6218619 -0.778626
vn -0.09163845 -0.2592448 -0.9614544
vn -0.09163845 -0.2592448 -0.9614544
vn -0.09163845 -0.2592448 -0.9614544
vn 0.2124603 0.9727452 0.09288388
vn 0.2124603 0.9727452 0.09288388
vn 0.2124603 0.9727452 0.09288388
vn 0.321624 0.8869737 -0.3314145
vn 0.321624 0.8869737 -0.3314145
vn 0.321624 0.8869737 -0.3314145
vn -0.02146173 0.6296593 0.7765749
vn -0.02146173 0.6296593 0.7765749
vn -0.02146173 0.6296593 0.7765749
vn 0.4151928 0.8635814 -0.2860805
vn 0.4151928 0.8635814 -0.2860805
vn 0.4151928 0.8635814 -0.2860805
vn 0.04091746 -0.7660761 -0.6414462
vn 0.04091746 -0.7660761 -0.6414462
vn 0.04091746 -0.7660761 -0.6414462
vn -0.01366436 -0.9298216 0.3677569
vn -0.01366436 -0.9298216 0.3677569
vn -0.01366436 -0.9298216 0.3677569
vn 0.07210708 -0.9532138 -0.2935711
vn 0.07210708 -0.9532138 -0.2935711
vn 0.07210708 -0.9532138 -0.2935711
vn 0.05651224 -0.9610112 -0.270673
vn -0.06044877 0.949353 -0.3083421
vn -0.06044877 0.949353 -0.3083421
vn -0.06044877 0.949353 -0.3083421
vn -0.6218619 0.5750775 0.5315765
vn -0.6218619 0.5750775 0.5315765
vn -0.6218619 0.5750775 0.5315765
vn -0.2085994 0.1852072 0.9603044
vn -0.2085994 0.1852072 0.9603044
vn -0.2085994 0.1852072 0.9603044
vn -0.05265141 -0.9064294 0.4190629
vn -0.05265141 -0.9064294 0.4190629
vn -0.05265141 -0.9064294 0.4190629
vn -0.1150306 -0.7894683 0.6029161
vn -0.1150306 -0.7894683 0.6029161
vn -0.1150306 -0.7894683 0.6029161
vn -0.4191294 -0.5087618 0.751992
vn -0.4191294 -0.5087618 0.751992
vn -0.4191294 -0.5087618 0.751992
vn -0.1774099 -0.06430966 0.9820336
vn -0.1774099 -0.06430966 0.9820336
vn -0.1774099 -0.06430966 0.9820336
vn -0.2709787 -0.7348865 0.6217012
vn -0.2709787 -0.7348865 0.6217012
vn -0.2709787 -0.7348865 0.6217012
vn 0.3840033 -0.8830371 0.2697904
vn 0.3840033 -0.8830371 0.2697904
vn 0.3840033 -0.8830371 0.2697904
vn -0.4269269 0.7622153 0.4865813
vn -0.4269269 0.7622153 0.4865813
vn -0.4269269 0.7622153 0.4865813
vn 0.7660761 0.4581164 -0.4508401
vn 0.7660761 0.4581164 -0.4508401
vn 0.7660761 0.4581164 -0.4508401
vn -0.4425216 -0.1500811 0.8841099
vn -0.4425216 -0.1500811 0.8841099
vn -0.4425216 -0.1500811 0.8841099
vn 0.2514474 0.8947711 -0.3689971
vn 0.2514474 0.8947711 -0.3689971
vn 0.2514474 0.8947711 -0.3689971
vn -0.6530515 0.01366436 -0.7571902
vn -0.6530515 0.01366436 -0.7571902
vn -0.6530515 0.01366436 -0.7571902
vn -0.1852072 0.8869737 0.4230554
vn -0.1852072 0.8869737 0.4230554
vn -0.1852072 0.8869737 0.4230554
vn -0.4581164 -0.6958994 -0.5530401
vn -0.4581164 -0.6958994 -0.5530401
vn -0.4581164 -0.6958994 -0.5530401
vn -0.4581164 -0.6958994 -0.5530401
vn 0.1656759 0.9805425 -0.1052985
vn 0.1656759 0.9805425 -0.1052985
vn 0.1656759 0.9805425 -0.1052985
vn 0.4229903 -0.1344863 -0.8960986
vn 0.4229903 -0.1344863 -0.8960986
vn 0.4229903 -0.1344863 -0.8960986
vn 0.4463825 -0.1734734 0.8778666
vn 0.4463825 -0.1734734 0.8778666
vn 0.4463825 -0.1734734 0.8778666
vn 0.24365 -0.9610112 -0.1307372
vn 0.24365 -0.9610112 -0.1307372
vn 0.24365 -0.9610112 -0.1307372
vn -0.1774099 0.2085994 0.9617754
vn -0.1774099 0.2085994 0.9617754
vn -0.1774099 0.2085994 0.9617754
vn -0.5360905 0.8089997 0.2410945
vn -0.5360905 0.8089997 0.2410945
vn -0.5360905 0.8089997 0.2410945
vn -0.6218619 0.06044877 -0.7807904
vn -0.6218619 0.06044877 -0.7807904
vn -0.6218619 0.06044877 -0.7807904
vn -0.5906724 0.77781 0.2147505
vn -0.5906724 0.77781 0.2147505
vn -0.5906724 0.77781 0.2147505
vn -0.8245945 0.3021684 0.4782658
vn -0.8245945 0.3021684 0.4782658
vn -0.8245945 0.3021684 0.4782658
vn -0.5672801 -0.5087618 -0.6475761
vn -0.5672801 -0.5087618 -0.6475761
vn -0.5672801 -0.5087618 -0.6475761
vn 0.4385851 0.7232282 -0.5334642
vn 0.4385851 0.7232282 -0.5334642
vn 0.4385851 0.7232282 -0.5334642
vn 0.1968656 -0.8362527 -0.5117864
vn 0.1968656 -0.8362527 -0.5117864
vn 0.1968656 -0.8362527 -0.5117864
vn -0.9337581 0.3567501 -0.02872442
vn -0.9337581 0.3567501 -0.02872442
vn -0.9337581 0.3567501 -0.02872442
vn 0.05651224 -0.9922008 0.1111033
vn 0.05651224 -0.9922008 0.1111033
vn 0.05651224 -0.9922008 0.1111033
vn -0.7154307 0.6842412 -0.1413255
vn -0.7154307 0.6842412 -0.1413255
vn -0.7154307 0.6842412 -0.1413255
vn -0.5282931 0.660849 0.5330901
vn -0.5282931 0.660849 0.5330901
vn -0.5282931 0.660849 0.5330901
vn -0.6296593 -0.5399513 0.5585533
vn -0.6296593 -0.5399513 0.5585533
vn -0.6296593 -0.5399513 0.5585533
vn -0.3957372 0.4893061 -0.7771561
vn -0.3957372 0.4893061 -0.7771561
vn -0.3957372 0.4893061 -0.7771561
vn -0.8479867 0.4503191 0.2795197
vn -0.8479867 0.4503191 0.2795197
vn -0.8479867 0.4503191 0.2795197
vn -0.2787762 0.7466204 0.6040213
vn -0.2787762 0.7466204 0.6040213
vn -0.2787762 0.7466204 0.6040213
vn -0.7154307 0.6452541 -0.2679664
vn -0.7154307 0.6452541 -0.2679664
vn -0.7154307 0.6452541 -0.2679664
vn -0.8245945 0.2787762 -0.492268
vn -0.8245945 0.2787762 -0.492268
vn -0.8245945 0.2787762 -0.492268
vn -0.9103659 -0.1344863 -0.3913403
vn -0.9103659 -0.1344863 -0.3913403
vn -0.9103659 -0.1344863 -0.3913403
vn -0.03705657 -0.1422837 0.989132
vn -0.03705657 -0.1422837 0.989132
vn -0.03705657 -0.1422837 0.989132
vn -0.2631813 -0.9532138 0.1487247
vn -0.2631813 -0.9532138 0.1487247
vn -0.2631813 -0.9532138 0.1487247
vn -0.5828749 -0.7816709 -0.2219178
vn -0.5828749 -0.7816709 -0.2219178
vn -0.5828749 -0.7816709 -0.2219178
vn -0.949353 -0.3060292 -0.0712392
vn -0.949353 -0.3060292 -0.0712392
vn -0.949353 -0.3060292 -0.0712392
vn -0.6140646 0.7622153 -0.2048234
vn -0.6140646 0.7622153 -0.2048234
vn -0.6140646 0.7622153 -0.2048234
vn -0.5594827 -0.532154 -0.6354457
vn -0.5594827 -0.532154 -0.6354457
vn -0.5594827 -0.532154 -0.6354457
vn -0.5906724 0.6452541 -0.4845134
vn -0.5906724 0.6452541 -0.4845134
vn -0.5906724 0.6452541 -0.4845134
vn -0.5750775 0.1306255 -0.8076031
vn -0.5750775 0.1306255 -0.8076031
vn -0.5750775 0.1306255 -0.8076031
vn -0.9415555 -0.03312004 0.3352258
vn -0.9415555 -0.03312004 0.3352258
vn -0.9415555 -0.03312004 0.3352258
vn -0.8947711 0.2163969 0.3905855
vn -0.8947711 0.2163969 0.3905855
vn -0.8947711 0.2163969 0.3905855
vn -0.3801425 0.3177632 0.8686301
vn -0.3801425 0.3177632 0.8686301
vn -0.3801425 0.3177632 0.8686301
vn -0.9181633 0.03705657 0.3944654
vn -0.9181633 0.03705657 0.3944654
vn -0.9181633 0.03705657 0.3944654
vn -0.5416622 -0.8405962 0
vn -0.5416622 -0.8405962 0
vn -0.5416622 -0.8405962 0
vn -0.7544178 -0.6023306 -0.2608673
vn -0.7544178 -0.6023306 -0.2608673
vn -0.7544178 -0.6023306 -0.2608673
vn -0.6842412 0.6920385 -0.2299927
vn -0.6842412 0.6920385 -0.2299927
vn -0.6842412 0.6920385 -0.2299927
vn -0.8947711 0.4191294 -0.1539976
vn -0.8947711 0.4191294 -0.1539976
vn -0.8947711 0.4191294 -0.1539976
vn 0.001930416 -0.9999982 0
vn 0.001930416 -0.9999982 0
vn 0.001930416 -0.9999982 0
vn 0.001930416 -0.9999982 0
vn 0.001930416 -0.9999982 0
vn 0.001930416 -0.9999982 0
vn -0.9647604 0.2631302 0
vn -0.9647604 0.2631302 0
vn -0.9647604 0.2631302 0
vn -0.9647604 0.2631302 0
vn 0.001930416 -0.2670422 -0.9636829
vn 0.001930416 -0.2670422 -0.9636829
vn 0.001930416 -0.2670422 -0.9636829
vn 0.001930416 -0.2670422 -0.9636829
vn -0.03705657 0.3411554 0.9392762
vn -0.03705657 0.3411554 0.9392762
vn -0.03705657 0.3411554 0.9392762
vn -0.03705657 0.3411554 0.9392762
vn 0.9898738 -0.14195 0
vn 0.9898738 -0.14195 0
vn 0.9898738 -0.14195 0
vn 0.9898738 -0.14195 0
g tree02_0
f 3/3/3 2/2/2 1/1/1
f 6/6/6 5/5/5 4/4/4
f 9/9/9 8/8/8 7/7/7
f 12/12/12 11/11/11 10/10/10
f 15/15/15 14/14/14 13/13/13
f 14/14/14 16/16/16 13/13/13
f 19/19/19 18/18/18 17/17/17
f 22/22/22 21/21/21 20/20/20
f 20/20/20 21/21/21 23/23/23
f 26/26/26 25/25/25 24/24/24
f 29/29/29 28/28/28 27/27/27
f 32/32/32 31/31/31 30/30/30
f 35/35/35 34/34/34 33/33/33
f 38/38/38 37/37/37 36/36/36
f 41/41/41 40/40/40 39/39/39
f 44/44/44 43/43/43 42/42/42
f 47/47/47 46/46/46 45/45/45
f 50/50/50 49/49/49 48/48/48
f 53/53/53 52/52/52 51/51/51
f 56/56/56 55/55/55 54/54/54
f 59/59/59 58/58/58 57/57/57
f 62/62/62 61/61/61 60/60/60
f 65/65/65 64/64/64 63/63/63
f 68/68/68 67/67/67 66/66/66
f 71/71/71 70/70/70 69/69/69
f 74/74/74 73/73/73 72/72/72
f 77/77/77 76/76/76 75/75/75
f 80/80/80 79/79/79 78/78/78
f 83/83/83 82/82/82 81/81/81
f 86/86/86 85/85/85 84/84/84
f 89/89/89 88/88/88 87/87/87
f 92/92/92 91/91/91 90/90/90
f 95/95/95 94/94/94 93/93/93
f 98/98/98 97/97/97 96/96/96
f 101/101/101 100/100/100 99/99/99
f 104/104/104 103/103/103 102/102/102
f 107/107/107 106/106/106 105/105/105
f 110/110/110 109/109/109 108/108/108
f 113/113/113 112/112/112 111/111/111
f 116/116/116 115/115/115 114/114/114
f 117/117/117 115/115/115 116/116/116
f 120/120/120 119/119/119 118/118/118
f 123/123/123 122/122/122 121/121/121
f 126/126/126 125/125/125 124/124/124
f 129/129/129 128/128/128 127/127/127
f 130/130/130 129/129/129 127/127/127
f 133/133/133 132/132/132 131/131/131
f 134/134/134 133/133/133 131/131/131
f 137/137/137 136/136/136 135/135/135
f 138/138/138 137/137/137 135/135/135
f 141/141/141 140/140/140 139/139/139
f 142/142/142 141/141/141 139/139/139
f 145/145/145 144/144/144 143/143/143
f 148/148/148 147/147/147 146/146/146
f 151/151/151 150/150/150 149/149/149
f 154/154/154 153/153/153 152/152/152
f 157/157/157 156/156/156 155/155/155
f 160/160/160 159/159/159 158/158/158
f 163/163/163 162/162/162 161/161/161
f 166/166/166 165/165/165 164/164/164
f 169/169/169 168/168/168 167/167/167
f 172/172/172 171/171/171 170/170/170
f 175/175/175 174/174/174 173/173/173
f 178/178/178 177/177/177 176/176/176
f 181/181/181 180/180/180 179/179/179
f 184/184/184 183/183/183 182/182/182
f 187/187/187 186/186/186 185/185/185
f 190/190/190 189/189/189 188/188/188
f 189/189/189 191/191/191 188/188/188
f 194/194/194 193/193/193 192/192/192
f 197/197/197 196/196/196 195/195/195
f 200/200/200 199/199/199 198/198/198
f 203/203/203 202/202/202 201/201/201
f 206/206/206 205/205/205 204/204/204
f 209/209/209 208/208/208 207/207/207
f 212/212/212 211/211/211 210/210/210
f 215/215/215 214/214/214 213/213/213
f 214/214/214 216/216/216 213/213/213
f 219/219/219 218/218/218 217/217/217
f 222/222/222 221/221/221 220/220/220
f 225/225/225 224/224/224 223/223/223
f 228/228/228 227/227/227 226/226/226
f 231/231/231 230/230/230 229/229/229
f 234/234/234 233/233/233 232/232/232
f 237/237/237 236/236/236 235/235/235
f 240/240/240 239/239/239 238/238/238
f 243/243/243 242/242/242 241/241/241
f 246/246/246 245/245/245 244/244/244
f 249/249/249 248/248/248 247/247/247
f 252/252/252 251/251/251 250/250/250
f 255/255/255 254/254/254 253/253/253
f 258/258/258 257/257/257 256/256/256
f 261/261/261 260/260/260 259/259/259
f 264/264/264 263/263/263 262/262/262
f 267/267/267 266/266/266 265/265/265
f 270/270/270 269/269/269 268/268/268
f 273/273/273 272/272/272 271/271/271
f 276/276/276 275/275/275 274/274/274
f 274/274/274 278/278/278 277/277/277
f 281/281/281 280/280/280 279/279/279
f 281/281/281 279/279/279 282/282/282
f 285/285/285 284/284/284 283/283/283
f 288/288/288 287/287/287 286/286/286
f 291/291/291 290/290/290 289/289/289
f 294/294/294 293/293/293 292/292/292
f 297/297/297 296/296/296 295/295/295
f 300/300/300 299/299/299 298/298/298
f 303/303/303 302/302/302 301/301/301
f 306/306/306 305/305/305 304/304/304
f 307/307/307 304/304/304 305/305/305
f 310/310/310 309/309/309 308/308/308
f 313/313/313 312/312/312 311/311/311
f 316/316/316 315/315/315 314/314/314
f 319/319/319 318/318/318 317/317/317
f 322/322/322 321/321/321 320/320/320
f 325/325/325 324/324/324 323/323/323
f 328/328/328 327/327/327 326/326/326
f 331/331/331 330/330/330 329/329/329
f 334/334/334 333/333/333 332/332/332
f 337/337/337 336/336/336 335/335/335
f 340/340/340 339/339/339 338/338/338
f 343/343/343 342/342/342 341/341/341
f 346/346/346 345/345/345 344/344/344
f 349/349/349 348/348/348 347/347/347
f 352/352/352 351/351/351 350/350/350
f 355/355/355 354/354/354 353/353/353
f 356/356/356 355/355/355 353/353/353
f 359/359/359 358/358/358 357/357/357
f 362/362/362 361/361/361 360/360/360
f 365/365/365 364/364/364 363/363/363
f 368/368/368 367/367/367 366/366/366
f 371/371/371 370/370/370 369/369/369
f 374/374/374 373/373/373 372/372/372
f 377/377/377 376/376/376 375/375/375
f 380/380/380 379/379/379 378/378/378
f 383/383/383 382/382/382 381/381/381
f 386/386/386 385/385/385 384/384/384
f 389/389/389 388/388/388 387/387/387
f 392/392/392 391/391/391 390/390/390
f 395/395/395 394/394/394 393/393/393
f 398/398/398 397/397/397 396/396/396
f 401/401/401 400/400/400 399/399/399
f 404/404/404 403/403/403 402/402/402
f 407/407/407 406/406/406 405/405/405
f 410/410/410 409/409/409 408/408/408
f 413/413/413 412/412/412 411/411/411
f 416/416/416 415/415/415 414/414/414
f 419/419/419 418/418/418 417/417/417
f 422/422/422 421/421/421 420/420/420
f 425/425/425 424/424/424 423/423/423
f 428/428/428 427/427/427 426/426/426
f 431/431/431 430/430/430 429/429/429
f 434/434/434 433/433/433 432/432/432
f 437/437/437 436/436/436 435/435/435
f 440/440/440 439/439/439 438/438/438
f 443/443/443 442/442/442 441/441/441
f 446/446/446 445/445/445 444/444/444
f 449/449/449 448/448/448 447/447/447
f 452/452/452 451/451/451 450/450/450
f 455/455/455 454/454/454 453/453/453
f 458/458/458 457/457/457 456/456/456
f 461/461/461 460/460/460 459/459/459
f 464/464/464 463/463/463 462/462/462
f 467/467/467 466/466/466 465/465/465
f 470/470/470 469/469/469 468/468/468
f 473/473/473 472/472/472 471/471/471
f 476/476/476 475/475/475 474/474/474
f 477/477/477 476/476/476 474/474/474
f 476/476/476 478/478/478 475/475/475
f 476/476/476 479/479/479 478/478/478
f 482/482/482 481/481/481 480/480/480
f 483/483/483 482/482/482 480/480/480
f 486/486/486 485/485/485 484/484/484
f 487/487/487 486/486/486 484/484/484
f 490/490/490 489/489/489 488/488/488
f 491/491/491 490/490/490 488/488/488
f 494/494/494 493/493/493 492/492/492
f 495/495/495 494/494/494 492/492/492
