g tree01
v -1.521363 12.77322 -4.826603
v -4.689391 16.45754 -6.601175
v -4.214782 13.37943 -6.109893
v -1.521363 12.77322 -4.826603
v -2.673644 18.11778 -6.569614
v -4.689391 16.45754 -6.601175
v -4.214782 13.37943 -6.109893
v -4.689391 16.45754 -6.601175
v -5.169954 14.9825 -3.833915
v -2.673644 18.11778 -6.569614
v -3.855103 19.15156 -5.138047
v -4.689391 16.45754 -6.601175
v -5.216999 20.34969 -3.596313
v 1.327481 17.84683 -7.078166
v -2.673644 18.11778 -6.569614
v -1.521363 12.77322 -4.826603
v -4.214782 13.37943 -6.109893
v -5.169954 14.9825 -3.833915
v -5.103855 12.98343 0.9776769
v -5.169954 14.9825 -3.833915
v -7.261329 16.36107 -2.124252
v -5.103855 12.98343 0.9776769
v -5.103855 12.98343 0.9776769
v -7.261329 16.36107 -2.124252
v -7.565627 15.85133 1.239098
v -7.261329 16.36107 -2.124252
v -4.756086 22.64949 -1.298897
v -7.954484 22.0397 1.719662
v -5.169954 14.9825 -3.833915
v -4.756086 22.64949 -1.298897
v -7.261329 16.36107 -2.124252
v -5.169954 14.9825 -3.833915
v -5.216999 20.34969 -3.596313
v -4.756086 22.64949 -1.298897
v -4.689391 16.45754 -6.601175
v -5.216999 20.34969 -3.596313
v -5.169954 14.9825 -3.833915
v -3.855103 19.15156 -5.138047
v -3.674074 25.27264 -4.019709
v -5.216999 20.34969 -3.596313
v -5.216999 20.34969 -3.596313
v -3.674074 25.27264 -4.019709
v -4.756086 22.64949 -1.298897
v -3.674074 25.27264 -4.019709
v -2.32528 25.91101 -1.219697
v -4.756086 22.64949 -1.298897
v -4.081391 22.4363 1.976916
v -2.32528 25.91101 -1.219697
v -0.6840978 30.40759 0.6382451
v -4.081391 22.4363 1.976916
v -2.673644 18.11778 -6.569614
v -0.9026446 25.6609 -4.568159
v -3.855103 19.15156 -5.138047
v -3.855103 19.15156 -5.138047
v -0.9026446 25.6609 -4.568159
v -3.674074 25.27264 -4.019709
v -0.9026446 25.6609 -4.568159
v -2.32528 25.91101 -1.219697
v -3.674074 25.27264 -4.019709
v -0.8841844 25.89553 -2.993673
v -0.8841844 25.89553 -2.993673
v 1.794348 28.70685 2.097205
v -0.6840978 30.40759 0.6382451
v 1.171462 26.16409 -0.3854094
v 1.794348 28.70685 2.097205
v -0.8841844 25.89553 -2.993673
v 3.370025 25.15294 1.629147
v -2.32528 25.91101 -1.219697
v -0.8841844 25.89553 -2.993673
v -0.6840978 30.40759 0.6382451
v -0.6840978 30.40759 0.6382451
v 1.794348 28.70685 2.097205
v -1.190863 31.07097 2.827877
v -0.6840978 30.40759 0.6382451
v -1.190863 31.07097 2.827877
v -2.348504 29.28389 1.539227
v -1.190863 31.07097 2.827877
v 0.8254795 24.59199 3.381091
v -0.8954988 23.4808 4.660211
v 1.794348 28.70685 2.097205
v 0.8254795 24.59199 3.381091
v -1.190863 31.07097 2.827877
v 1.794348 28.70685 2.097205
v 3.370025 25.15294 1.629147
v 0.8254795 24.59199 3.381091
v 3.370025 25.15294 1.629147
v 3.607032 23.51236 2.76654
v 0.8254795 24.59199 3.381091
v 3.370025 25.15294 1.629147
v 3.561774 20.76416 1.52434
v 3.607032 23.51236 2.76654
v 3.038335 24.29365 -2.134971
v 3.561774 20.76416 1.52434
v 2.440459 19.79648 4.179052
v 3.607032 23.51236 2.76654
v 3.561774 20.76416 1.52434
v 4.042338 19.1587 4.263612
v 2.440459 19.79648 4.179052
v 3.561774 20.76416 1.52434
v 6.994797 20.96782 1.953096
v 4.042338 19.1587 4.263612
v 3.561774 20.76416 1.52434
v 6.892968 20.72247 0.2362866
v 6.994797 20.96782 1.953096
v 3.607032 23.51236 2.76654
v 2.440459 19.79648 4.179052
v 0.8254795 24.59199 3.381091
v 0.8695459 19.20634 4.855533
v 0.8254795 24.59199 3.381091
v 0.8695459 19.20634 4.855533
v -1.271255 19.28435 4.231455
v 2.440459 19.79648 4.179052
v 3.877982 14.19407 4.370205
v 2.859091 14.34116 4.043279
v 2.440459 19.79648 4.179052
v 1.309616 17.36448 6.697396
v 0.8695459 19.20634 4.855533
v 0.8695459 19.20634 4.855533
v 1.309616 17.36448 6.697396
v 0.1603127 18.93361 7.078513
v 1.309616 17.36448 6.697396
v -0.7210183 13.24426 5.446264
v 0.1603127 18.93361 7.078513
v 2.440459 19.79648 4.179052
v 2.859091 14.34116 4.043279
v 1.309616 17.36448 6.697396
v 1.309616 17.36448 6.697396
v 2.859091 14.34116 4.043279
v -0.7210183 13.24426 5.446264
v 3.877982 14.19407 4.370205
v 3.640379 12.15629 2.52477
v 2.859091 14.34116 4.043279
v 6.994797 20.96782 1.953096
v 7.954733 15.79 1.701202
v 6.859025 19.52851 2.871347
v 6.994797 20.96782 1.953096
v 6.892968 20.72247 0.2362866
v 7.954733 15.79 1.701202
v 6.892968 20.72247 0.2362866
v 6.886417 15.21475 -1.996221
v 7.954733 15.79 1.701202
v 6.994797 20.96782 1.953096
v 6.859025 19.52851 2.871347
v 4.042338 19.1587 4.263612
v 4.042338 19.1587 4.263612
v 3.877982 14.19407 4.370205
v 2.440459 19.79648 4.179052
v 6.859025 19.52851 2.871347
v 3.877982 14.19407 4.370205
v 4.042338 19.1587 4.263612
v 6.859025 19.52851 2.871347
v 7.954733 15.79 1.701202
v 3.877982 14.19407 4.370205
v 7.954733 15.79 1.701202
v 7.321723 12.51537 0.1028962
v 3.877982 14.19407 4.370205
v 6.886417 15.21475 -1.996221
v 7.321723 12.51537 0.1028962
v 7.954733 15.79 1.701202
v 3.877982 14.19407 4.370205
v 7.321723 12.51537 0.1028962
v 3.640379 12.15629 2.52477
v 7.321723 12.51537 0.1028962
v 1.586521 10.41328 -1.160147
v 3.640379 12.15629 2.52477
v -0.5120006 10.69971 1.803031
v 7.321723 12.51537 0.1028962
v 3.919071 13.23652 -2.734633
v 1.586521 10.41328 -1.160147
v 3.640379 12.15629 2.52477
v -0.5120006 10.69971 1.803031
v 2.859091 14.34116 4.043279
v 2.859091 14.34116 4.043279
v -0.5120006 10.69971 1.803031
v -0.7210183 13.24426 5.446264
v -0.7210183 13.24426 5.446264
v -0.5120006 10.69971 1.803031
v -3.538896 13.07097 4.401171
v -0.5120006 10.69971 1.803031
v -2.499163 11.48993 2.584915
v -3.538896 13.07097 4.401171
v -0.5120006 10.69971 1.803031
v -1.822087 11.03736 -2.518469
v -2.499163 11.48993 2.584915
v -2.499163 11.48993 2.584915
v -5.103855 12.98343 0.9776769
v -3.538896 13.07097 4.401171
v -2.499163 11.48993 2.584915
v -4.214782 13.37943 -6.109893
v -5.103855 12.98343 0.9776769
v -1.521363 12.77322 -4.826603
v -4.214782 13.37943 -6.109893
v -1.822087 11.03736 -2.518469
v 1.586521 10.41328 -1.160147
v -1.822087 11.03736 -2.518469
v -4.214782 13.37943 -6.109893
v -2.499163 11.48993 2.584915
v 3.919071 13.23652 -2.734633
v 4.463352 13.87906 -4.639023
v 1.586521 10.41328 -1.160147
v 4.463352 13.87906 -4.639023
v 2.196307 14.21908 -6.65477
v 1.586521 10.41328 -1.160147
v 1.586521 10.41328 -1.160147
v -1.822087 11.03736 -2.518469
v -0.5120006 10.69971 1.803031
v 2.196307 14.21908 -6.65477
v -1.521363 12.77322 -4.826603
v 1.586521 10.41328 -1.160147
v -5.103855 12.98343 0.9776769
v -7.565627 15.85133 1.239098
v -3.538896 13.07097 4.401171
v -3.538896 13.07097 4.401171
v -7.954484 22.0397 1.719662
v -4.342813 17.92127 3.461482
v -2.787979 23.33073 3.010097
v -1.271255 19.28435 4.231455
v -3.538896 13.07097 4.401171
v -4.342813 17.92127 3.461482
v -2.243102 15.87634 5.929804
v -4.342813 17.92127 3.461482
v -4.081391 22.4363 1.976916
v -2.787979 23.33073 3.010097
v -7.565627 15.85133 1.239098
v -7.261329 16.36107 -2.124252
v -7.954484 22.0397 1.719662
v -7.565627 15.85133 1.239098
v -7.954484 22.0397 1.719662
v -3.538896 13.07097 4.401171
v -4.342813 17.92127 3.461482
v -7.954484 22.0397 1.719662
v -4.081391 22.4363 1.976916
v -0.7210183 13.24426 5.446264
v -3.538896 13.07097 4.401171
v -2.243102 15.87634 5.929804
v -0.7210183 13.24426 5.446264
v -2.243102 15.87634 5.929804
v 0.1603127 18.93361 7.078513
v -2.243102 15.87634 5.929804
v -1.271255 19.28435 4.231455
v 0.1603127 18.93361 7.078513
v 0.1603127 18.93361 7.078513
v -1.271255 19.28435 4.231455
v 0.8695459 19.20634 4.855533
v -4.342813 17.92127 3.461482
v -1.271255 19.28435 4.231455
v -2.243102 15.87634 5.929804
v -1.271255 19.28435 4.231455
v -2.787979 23.33073 3.010097
v -0.8954988 23.4808 4.660211
v -0.8954988 23.4808 4.660211
v 0.8254795 24.59199 3.381091
v -1.271255 19.28435 4.231455
v -2.787979 23.33073 3.010097
v -1.190863 31.07097 2.827877
v -0.8954988 23.4808 4.660211
v -4.081391 22.4363 1.976916
v -4.756086 22.64949 -1.298897
v -4.081391 22.4363 1.976916
v -7.954484 22.0397 1.719662
v -4.081391 22.4363 1.976916
v -2.348504 29.28389 1.539227
v -1.190863 31.07097 2.827877
v -0.6840978 30.40759 0.6382451
v -2.348504 29.28389 1.539227
v -4.081391 22.4363 1.976916
v 7.321723 12.51537 0.1028962
v 6.886417 15.21475 -1.996221
v 3.919071 13.23652 -2.734633
v 3.919071 13.23652 -2.734633
v 4.493722 17.34781 -4.854591
v 4.463352 13.87906 -4.639023
v 3.919071 13.23652 -2.734633
v 4.960589 19.03425 -2.751307
v 4.493722 17.34781 -4.854591
v 4.960589 19.03425 -2.751307
v 4.03936 21.02915 -3.964924
v 4.493722 17.34781 -4.854591
v 6.886417 15.21475 -1.996221
v 6.892968 20.72247 0.2362866
v 4.960589 19.03425 -2.751307
v 6.886417 15.21475 -1.996221
v 4.960589 19.03425 -2.751307
v 3.919071 13.23652 -2.734633
v 4.463352 13.87906 -4.639023
v 4.493722 17.34781 -4.854591
v 2.196307 14.21908 -6.65477
v 2.196307 14.21908 -6.65477
v 1.327481 17.84683 -7.078166
v -1.521363 12.77322 -4.826603
v 2.196307 14.21908 -6.65477
v 4.03936 21.02915 -3.964924
v 1.327481 17.84683 -7.078166
v 4.493722 17.34781 -4.854591
v 4.03936 21.02915 -3.964924
v 2.196307 14.21908 -6.65477
v 4.03936 21.02915 -3.964924
v 2.336843 22.45476 -3.361688
v 1.327481 17.84683 -7.078166
v 1.327481 17.84683 -7.078166
v 2.336843 22.45476 -3.361688
v -2.673644 18.11778 -6.569614
v 2.336843 22.45476 -3.361688
v -0.9026446 25.6609 -4.568159
v -2.673644 18.11778 -6.569614
v -0.9026446 25.6609 -4.568159
v 1.171462 26.16409 -0.3854094
v -0.8841844 25.89553 -2.993673
v 4.03936 21.02915 -3.964924
v 3.038335 24.29365 -2.134971
v 2.336843 22.45476 -3.361688
v 2.336843 22.45476 -3.361688
v 1.171462 26.16409 -0.3854094
v -0.9026446 25.6609 -4.568159
v 2.336843 22.45476 -3.361688
v 3.038335 24.29365 -2.134971
v 1.171462 26.16409 -0.3854094
v 6.892968 20.72247 0.2362866
v 3.561774 20.76416 1.52434
v 4.960589 19.03425 -2.751307
v 4.960589 19.03425 -2.751307
v 3.561774 20.76416 1.52434
v 3.038335 24.29365 -2.134971
v 4.960589 19.03425 -2.751307
v 3.038335 24.29365 -2.134971
v 4.03936 21.02915 -3.964924
v 3.370025 25.15294 1.629147
v 1.171462 26.16409 -0.3854094
v 3.038335 24.29365 -2.134971
v -1.4636 -0.0001244545 -0.8439398
v 0.8588271 -0.0001244545 -1.598431
v -0.7388835 3.157184 -0.5991917
v 0.4699693 3.157184 -0.991622
v -1.4636 -0.0001244545 1.598181
v -1.4636 -0.0001244545 -0.8439398
v -0.7388835 3.157184 0.6721883
v -0.7388835 3.157184 -0.5991917
v 0.8588271 -0.0001244545 2.352672
v -1.4636 -0.0001244545 1.598181
v 0.4699693 3.157184 1.064619
v -0.7388835 3.157184 0.6721883
v 0.8588271 -0.0001244545 2.352672
v 0.4699693 3.157184 1.064619
v 2.294563 -0.0001244545 0.377419
v 1.216719 3.157184 0.03620052
v 2.294563 -0.0001244545 0.377419
v 1.216719 3.157184 0.03620052
v 0.8588271 -0.0001244545 -1.598431
v 0.4699693 3.157184 -0.991622
v -1.4636 -0.0001244545 -0.8439398
v 0.2168846 -0.0001244545 0.377419
v 0.8588271 -0.0001244545 -1.598431
v -1.4636 -0.0001244545 1.598181
v 0.8588271 -0.0001244545 2.352672
v 2.294563 -0.0001244545 0.377419
v -0.182097 15.01049 -1.583543
v -0.4488778 15.01049 -0.7611661
v -1.147988 15.01049 -1.269122
v -1.147988 15.01049 -0.2538052
v -0.182097 15.01049 0.06061602
v 0.415184 15.01049 -0.7611661
v 0.4699693 3.157184 -0.991622
v 0.3068042 5.047283 -0.309186
v -0.7388835 3.157184 -0.5991917
v -0.6596828 5.047283 0.004639149
v -0.7388835 3.157184 -0.5991917
v -0.6596828 5.047283 0.004639149
v -0.7388835 3.157184 0.6721883
v -0.6596828 5.047283 1.020552
v -0.6400313 6.203136 0.7912869
v -0.6400313 6.203136 -0.2246261
v -0.7388835 3.157184 0.6721883
v -0.6596828 5.047283 1.020552
v 0.4699693 3.157184 1.064619
v 0.3068042 5.047283 1.334378
v 1.216719 3.157184 0.03620052
v 0.4699693 3.157184 1.064619
v 0.9034891 5.047283 0.5125957
v 0.3068042 5.047283 1.334378
v 0.4699693 3.157184 -0.991622
v 1.216719 3.157184 0.03620052
v 0.3068042 5.047283 -0.309186
v 0.9034891 5.047283 0.5125957
v -0.6596828 5.047283 0.004639149
v 0.3068042 5.047283 -0.309186
v -0.6400313 6.203136 -0.2246261
v 0.32586 6.203136 -0.5384512
v 0.3068042 5.047283 1.334378
v -0.6596828 5.047283 1.020552
v 0.32586 6.203136 1.105113
v -0.6400313 6.203136 0.7912869
v 2.898394 7.553121 3.665141
v 2.73106 7.934833 3.419797
v 3.168153 7.554907 3.347743
v 3.000819 7.936619 3.101803
v 0.9034891 5.047283 0.5125957
v 0.9231405 6.203136 0.2833304
v 0.3068042 5.047283 -0.309186
v 0.32586 6.203136 -0.5384512
v 0.32586 6.203136 1.105113
v -0.6400313 6.203136 0.7912869
v -0.182097 15.01049 0.06061602
v -1.147988 15.01049 -0.2538052
v -0.6400313 6.203136 0.7912869
v -0.6400313 6.203136 -0.2246261
v -1.147988 15.01049 -0.2538052
v -1.147988 15.01049 -1.269122
v 0.32586 6.203136 -0.5384512
v -0.182097 15.01049 -1.583543
v -0.6400313 6.203136 -0.2246261
v -1.147988 15.01049 -1.269122
v 0.9231405 6.203136 0.2833304
v 0.415184 15.01049 -0.7611661
v 0.32586 6.203136 -0.5384512
v -0.182097 15.01049 -1.583543
v 0.32586 6.203136 1.105113
v -0.182097 15.01049 0.06061602
v 0.9231405 6.203136 0.2833304
v 0.415184 15.01049 -0.7611661
v 0.9034891 5.047283 0.5125957
v 0.3068042 5.047283 1.334378
v 2.517278 6.311516 2.156755
v 0.3068042 5.047283 1.334378
v 2.232632 6.228147 2.556926
v 2.517278 6.311516 2.156755
v 0.9034891 5.047283 0.5125957
v 2.517278 6.311516 2.156755
v 0.9231405 6.203136 0.2833304
v 2.517278 6.311516 2.156755
v 2.26062 6.787911 1.953691
v 0.9231405 6.203136 0.2833304
v 0.9231405 6.203136 0.2833304
v 2.26062 6.787911 1.953691
v 0.32586 6.203136 1.105113
v 2.26062 6.787911 1.953691
v 1.975974 6.704542 2.353267
v 0.32586 6.203136 1.105113
v 0.3068042 5.047283 1.334378
v 0.32586 6.203136 1.105113
v 2.232632 6.228147 2.556926
v 0.32586 6.203136 1.105113
v 1.975974 6.704542 2.353267
v 2.232632 6.228147 2.556926
v 2.517278 6.311516 2.156755
v 2.232632 6.228147 2.556926
v 3.168153 7.554907 3.347743
v 2.232632 6.228147 2.556926
v 2.898394 7.553121 3.665141
v 3.168153 7.554907 3.347743
v 2.517278 6.311516 2.156755
v 3.168153 7.554907 3.347743
v 2.26062 6.787911 1.953691
v 3.168153 7.554907 3.347743
v 3.000819 7.936619 3.101803
v 2.26062 6.787911 1.953691
v 2.26062 6.787911 1.953691
v 3.000819 7.936619 3.101803
v 1.975974 6.704542 2.353267
v 3.000819 7.936619 3.101803
v 2.73106 7.934833 3.419797
v 1.975974 6.704542 2.353267
v 2.232632 6.228147 2.556926
v 1.975974 6.704542 2.353267
v 2.898394 7.553121 3.665141
v 1.975974 6.704542 2.353267
v 2.73106 7.934833 3.419797
v 2.898394 7.553121 3.665141
v 3.621919 7.042782 4.942476
v 4.714055 10.50737 4.7543
v 5.297044 8.800682 4.82159
v 3.621919 7.042782 4.942476
v 5.297044 8.800682 4.82159
v 5.866336 6.718834 2.860629
v 5.866336 6.718834 2.860629
v 5.297044 8.800682 4.82159
v 5.667441 10.59967 1.004474
v 5.297044 8.800682 4.82159
v 4.714055 10.50737 4.7543
v 5.667441 10.59967 1.004474
v 3.780321 11.21065 2.091846
v 5.667441 10.59967 1.004474
v 4.714055 10.50737 4.7543
v 3.780321 11.21065 2.091846
v 1.021992 8.6 2.435445
v 4.284108 8.483284 0.6489635
v 1.021992 8.6 2.435445
v 3.043694 6.99693 2.228809
v 4.284108 8.483284 0.6489635
v 3.043694 6.99693 2.228809
v 5.866336 6.718834 2.860629
v 4.284108 8.483284 0.6489635
v 1.021992 8.6 2.435445
v 3.621919 7.042782 4.942476
v 3.043694 6.99693 2.228809
v 3.621919 7.042782 4.942476
v 5.866336 6.718834 2.860629
v 3.043694 6.99693 2.228809
v 5.866336 6.718834 2.860629
v 5.667441 10.59967 1.004474
v 4.284108 8.483284 0.6489635
v 4.284108 8.483284 0.6489635
v 5.667441 10.59967 1.004474
v 3.780321 11.21065 2.091846
v 1.021992 8.6 2.435445
v 4.714055 10.50737 4.7543
v 3.621919 7.042782 4.942476
v 4.714055 10.50737 4.7543
v 1.021992 8.6 2.435445
v 3.780321 11.21065 2.091846
vt 0.6600291 0.5177505
vt 0.6600291 0.5177505
vt 0.6600291 0.5177505
vt 0.6600291 0.5177505
vt 0.6600291 0.5177505
vt 0.6600291 0.5177505
vt 0.6600291 0.5177505
vt 0.6600291 0.5177505
vt 0.6600291 0.5177505
vt 0.6600291 0.5177505
vt 0.6600291 0.5177505
vt 0.6600291 0.5177505
vt 0.6600291 0.5177505
vt 0.6600291 0.5177505
vt 0.6600291 0.5177505
vt 0.6600291 0.5177505
vt 0.6600291 0.5177505
vt 0.6600291 0.5177505
vt 0.6600291 0.5177505
vt 0.6600291 0.5177505
vt 0.6600291 0.5177505
vt 0.6600291 0.5177505
vt 0.6600291 0.5177505
vt 0.6600291 0.5177505
vt 0.6600291 0.5177505
vt 0.6600291 0.5177505
vt 0.6600291 0.5177505
vt 0.6600291 0.5177505
vt 0.6600291 0.5177505
vt 0.6600291 0.5177505
vt 0.6600291 0.5177505
vt 0.6600291 0.5177505
vt 0.6600291 0.5177505
vt 0.6600291 0.5177505
vt 0.6600291 0.5177505
vt 0.6600291 0.5177505
vt 0.6600291 0.5177505
vt 0.6600291 0.5177505
vt 0.6600291 0.5177505
vt 0.6600291 0.5177505
vt 0.6600291 0.5177505
vt 0.6600291 0.5177505
vt 0.6600291 0.5177505
vt 0.6600291 0.5177505
vt 0.6600291 0.5177505
vt 0.6600291 0.5177505
vt 0.6600291 0.5177505
vt 0.6600291 0.5177505
vt 0.6600291 0.5177505
vt 0.6600291 0.5177505
vt 0.6600291 0.5177505
vt 0.6600291 0.5177505
vt 0.6600291 0.5177505
vt 0.6600291 0.5177505
vt 0.6600291 0.5177505
vt 0.6600291 0.5177505
vt 0.6600291 0.5177505
vt 0.6600291 0.5177505
vt 0.6600291 0.5177505
vt 0.6600291 0.5177505
vt 0.6600291 0.5177505
vt 0.6600291 0.5177505
vt 0.6600291 0.5177505
vt 0.6600291 0.5177505
vt 0.6600291 0.5177505
vt 0.6600291 0.5177505
vt 0.6600291 0.5177505
vt 0.6600291 0.5177505
vt 0.6600291 0.5177505
vt 0.6600291 0.5177505
vt 0.6600291 0.5177505
vt 0.6600291 0.5177505
vt 0.6600291 0.5177505
vt 0.6600291 0.5177505
vt 0.6600291 0.5177505
vt 0.6600291 0.5177505
vt 0.6600291 0.5177505
vt 0.6600291 0.5177505
vt 0.6600291 0.5177505
vt 0.6600291 0.5177505
vt 0.6600291 0.5177505
vt 0.6600291 0.5177505
vt 0.6600291 0.5177505
vt 0.6600291 0.5177505
vt 0.6600291 0.5177505
vt 0.6600291 0.5177505
vt 0.6600291 0.5177505
vt 0.6600291 0.5177505
vt 0.6600291 0.5177505
vt 0.6600291 0.5177505
vt 0.6600291 0.5177505
vt 0.6600291 0.5177505
vt 0.6600291 0.5177505
vt 0.6600291 0.5177505
vt 0.6600291 0.5177505
vt 0.6600291 0.5177505
vt 0.6600291 0.5177505
vt 0.6600291 0.5177505
vt 0.6600291 0.5177505
vt 0.6600291 0.5177505
vt 0.6600291 0.5177505
vt 0.6600291 0.5177505
vt 0.6600291 0.5177505
vt 0.6600291 0.5177505
vt 0.6600291 0.5177505
vt 0.6600291 0.5177505
vt 0.6600291 0.5177505
vt 0.6600291 0.5177505
vt 0.6600291 0.5177505
vt 0.6600291 0.5177505
vt 0.6600291 0.5177505
vt 0.6600291 0.5177505
vt 0.6600291 0.5177505
vt 0.6600291 0.5177505
vt 0.6600291 0.5177505
vt 0.6600291 0.5177505
vt 0.6600291 0.5177505
vt 0.6600291 0.5177505
vt 0.6600291 0.5177505
vt 0.6600291 0.5177505
vt 0.6600291 0.5177505
vt 0.6600291 0.5177505
vt 0.6600291 0.5177505
vt 0.6600291 0.5177505
vt 0.6600291 0.5177505
vt 0.6600291 0.5177505
vt 0.6600291 0.5177505
vt 0.6600291 0.5177505
vt 0.6600291 0.5177505
vt 0.6600291 0.5177505
vt 0.6600291 0.5177505
vt 0.6600291 0.5177505
vt 0.6600291 0.5177505
vt 0.6600291 0.5177505
vt 0.6600291 0.5177505
vt 0.6600291 0.5177505
vt 0.6600291 0.5177505
vt 0.6600291 0.5177505
vt 0.6600291 0.5177505
vt 0.6600291 0.5177505
vt 0.6600291 0.5177505
vt 0.6600291 0.5177505
vt 0.6600291 0.5177505
vt 0.6600291 0.5177505
vt 0.6600291 0.5177505
vt 0.6600291 0.5177505
vt 0.6600291 0.5177505
vt 0.6600291 0.5177505
vt 0.6600291 0.5177505
vt 0.6600291 0.5177505
vt 0.6600291 0.5177505
vt 0.6600291 0.5177505
vt 0.6600291 0.5177505
vt 0.6600291 0.5177505
vt 0.6600291 0.5177505
vt 0.6600291 0.5177505
vt 0.6600291 0.5177505
vt 0.6600291 0.5177505
vt 0.6600291 0.5177505
vt 0.6600291 0.5177505
vt 0.6600291 0.5177505
vt 0.6600291 0.5177505
vt 0.6600291 0.5177505
vt 0.6600291 0.5177505
vt 0.6600291 0.5177505
vt 0.6600291 0.5177505
vt 0.6600291 0.5177505
vt 0.6600291 0.5177505
vt 0.6600291 0.5177505
vt 0.6600291 0.5177505
vt 0.6600291 0.5177505
vt 0.6600291 0.5177505
vt 0.6600291 0.5177505
vt 0.6600291 0.5177505
vt 0.6600291 0.5177505
vt 0.6600291 0.5177505
vt 0.6600291 0.5177505
vt 0.6600291 0.5177505
vt 0.6600291 0.5177505
vt 0.6600291 0.5177505
vt 0.6600291 0.5177505
vt 0.6600291 0.5177505
vt 0.6600291 0.5177505
vt 0.6600291 0.5177505
vt 0.6600291 0.5177505
vt 0.6600291 0.5177505
vt 0.6600291 0.5177505
vt 0.6600291 0.5177505
vt 0.6600291 0.5177505
vt 0.6600291 0.5177505
vt 0.6600291 0.5177505
vt 0.6600291 0.5177505
vt 0.6600291 0.5177505
vt 0.6600291 0.5177505
vt 0.6600291 0.5177505
vt 0.6600291 0.5177505
vt 0.6600291 0.5177505
vt 0.6600291 0.5177505
vt 0.6600291 0.5177505
vt 0.6600291 0.5177505
vt 0.6600291 0.5177505
vt 0.6600291 0.5177505
vt 0.6600291 0.5177505
vt 0.6600291 0.5177505
vt 0.6600291 0.5177505
vt 0.6600291 0.5177505
vt 0.6600291 0.5177505
vt 0.6600291 0.5177505
vt 0.6600291 0.5177505
vt 0.6600291 0.5177505
vt 0.6600291 0.5177505
vt 0.6600291 0.5177505
vt 0.6600291 0.5177505
vt 0.6600291 0.5177505
vt 0.6600291 0.5177505
vt 0.6600291 0.5177505
vt 0.6600291 0.5177505
vt 0.6600291 0.5177505
vt 0.6600291 0.5177505
vt 0.6600291 0.5177505
vt 0.6600291 0.5177505
vt 0.6600291 0.5177505
vt 0.6600291 0.5177505
vt 0.6600291 0.5177505
vt 0.6600291 0.5177505
vt 0.6600291 0.5177505
vt 0.6600291 0.5177505
vt 0.6600291 0.5177505
vt 0.6600291 0.5177505
vt 0.6600291 0.5177505
vt 0.6600291 0.5177505
vt 0.6600291 0.5177505
vt 0.6600291 0.5177505
vt 0.6600291 0.5177505
vt 0.6600291 0.5177505
vt 0.6600291 0.5177505
vt 0.6600291 0.5177505
vt 0.6600291 0.5177505
vt 0.6600291 0.5177505
vt 0.6600291 0.5177505
vt 0.6600291 0.5177505
vt 0.6600291 0.5177505
vt 0.6600291 0.5177505
vt 0.6600291 0.5177505
vt 0.6600291 0.5177505
vt 0.6600291 0.5177505
vt 0.6600291 0.5177505
vt 0.6600291 0.5177505
vt 0.6600291 0.5177505
vt 0.6600291 0.5177505
vt 0.6600291 0.5177505
vt 0.6600291 0.5177505
vt 0.6600291 0.5177505
vt 0.6600291 0.5177505
vt 0.6600291 0.5177505
vt 0.6600291 0.5177505
vt 0.6600291 0.5177505
vt 0.6600291 0.5177505
vt 0.6600291 0.5177505
vt 0.6600291 0.5177505
vt 0.6600291 0.5177505
vt 0.6600291 0.5177505
vt 0.6600291 0.5177505
vt 0.6600291 0.5177505
vt 0.6600291 0.5177505
vt 0.6600291 0.5177505
vt 0.6600291 0.5177505
vt 0.6600291 0.5177505
vt 0.6600291 0.5177505
vt 0.6600291 0.5177505
vt 0.6600291 0.5177505
vt 0.6600291 0.5177505
vt 0.6600291 0.5177505
vt 0.6600291 0.5177505
vt 0.6600291 0.5177505
vt 0.6600291 0.5177505
vt 0.6600291 0.5177505
vt 0.6600291 0.5177505
vt 0.6600291 0.5177505
vt 0.6600291 0.5177505
vt 0.6600291 0.5177505
vt 0.6600291 0.5177505
vt 0.6600291 0.5177505
vt 0.6600291 0.5177505
vt 0.6600291 0.5177505
vt 0.6600291 0.5177505
vt 0.6600291 0.5177505
vt 0.6600291 0.5177505
vt 0.6600291 0.5177505
vt 0.6600291 0.5177505
vt 0.6600291 0.5177505
vt 0.6600291 0.5177505
vt 0.6600291 0.5177505
vt 0.6600291 0.5177505
vt 0.6600291 0.5177505
vt 0.6600291 0.5177505
vt 0.6600291 0.5177505
vt 0.6600291 0.5177505
vt 0.6600291 0.5177505
vt 0.6600291 0.5177505
vt 0.6600291 0.5177505
vt 0.6600291 0.5177505
vt 0.6600291 0.5177505
vt 0.6600291 0.5177505
vt 0.6600291 0.5177505
vt 0.6600291 0.5177505
vt 0.6600291 0.5177505
vt 0.6600291 0.5177505
vt 0.6600291 0.5177505
vt 0.6600291 0.5177505
vt 0.6600291 0.5177505
vt 0.6600291 0.5177505
vt 0.6600291 0.5177505
vt 0.6600291 0.5177505
vt 0.6600291 0.5177505
vt 0.6600291 0.5177505
vt 0.6600291 0.5177505
vt 0.6600291 0.5177505
vt 0.6600291 0.5177505
vt 0.6600291 0.5177505
vt 0.6600291 0.5177505
vt 0.6600291 0.5177505
vt 0.6600291 0.5177505
vt 0.6600291 0.5177505
vt 0.6600291 0.5177505
vt 0.6600291 0.5177505
vt 0.6600291 0.5177505
vt 0.6600291 0.5177505
vt 0.6600291 0.5177505
vt 0.3295547 0.4737734
vt 0.3295547 0.4737734
vt 0.3295547 0.4737734
vt 0.3295547 0.4737734
vt 0.3295547 0.4737734
vt 0.3295547 0.4737734
vt 0.3295547 0.4737734
vt 0.3295547 0.4737734
vt 0.3295547 0.4737734
vt 0.3295547 0.4737734
vt 0.3295547 0.4737734
vt 0.3295547 0.4737734
vt 0.3295547 0.4737734
vt 0.3295547 0.4737734
vt 0.3295547 0.4737734
vt 0.3295547 0.4737734
vt 0.3295547 0.4737734
vt 0.3295547 0.4737734
vt 0.3295547 0.4737734
vt 0.3295547 0.4737734
vt 0.3295547 0.4737734
vt 0.3295547 0.4737734
vt 0.3295547 0.4737734
vt 0.3295547 0.4737734
vt 0.3295547 0.4737734
vt 0.3295547 0.4737734
vt 0.3295547 0.4737734
vt 0.3295547 0.4737734
vt 0.3295547 0.4737734
vt 0.3295547 0.4737734
vt 0.3295547 0.4737734
vt 0.3295547 0.4737734
vt 0.3295547 0.4737734
vt 0.3295547 0.4737734
vt 0.3295547 0.4737734
vt 0.3295547 0.4737734
vt 0.3295547 0.4737734
vt 0.3295547 0.4737734
vt 0.3295547 0.4737734
vt 0.3295547 0.4737734
vt 0.3295547 0.4737734
vt 0.3295547 0.4737734
vt 0.3295547 0.4737734
vt 0.3295547 0.4737734
vt 0.3295547 0.4737734
vt 0.3295547 0.4737734
vt 0.3295547 0.4737734
vt 0.3295547 0.4737734
vt 0.3295547 0.4737734
vt 0.3295547 0.4737734
vt 0.3295547 0.4737734
vt 0.3295547 0.4737734
vt 0.3295547 0.4737734
vt 0.3295547 0.4737734
vt 0.3295547 0.4737734
vt 0.3295547 0.4737734
vt 0.3295547 0.4737734
vt 0.3295547 0.4737734
vt 0.3295547 0.4737734
vt 0.3295547 0.4737734
vt 0.3295547 0.4737734
vt 0.3295547 0.4737734
vt 0.3295547 0.4737734
vt 0.3295547 0.4737734
vt 0.3295547 0.4737734
vt 0.3295547 0.4737734
vt 0.3295547 0.4737734
vt 0.3295547 0.4737734
vt 0.3295547 0.4737734
vt 0.3295547 0.4737734
vt 0.3295547 0.4737734
vt 0.3295547 0.4737734
vt 0.3295547 0.4737734
vt 0.3295547 0.4737734
vt 0.3295547 0.4737734
vt 0.3295547 0.4737734
vt 0.3295547 0.4737734
vt 0.3295547 0.4737734
vt 0.3295547 0.4737734
vt 0.3295547 0.4737734
vt 0.3295547 0.4737734
vt 0.3295547 0.4737734
vt 0.3295547 0.4737734
vt 0.3295547 0.4737734
vt 0.3295547 0.4737734
vt 0.3295547 0.4737734
vt 0.3295547 0.4737734
vt 0.3295547 0.4737734
vt 0.3295547 0.4737734
vt 0.3295547 0.4737734
vt 0.3295547 0.4737734
vt 0.3295547 0.4737734
vt 0.3295547 0.4737734
vt 0.3295547 0.4737734
vt 0.3295547 0.4737734
vt 0.3295547 0.4737734
vt 0.3295547 0.4737734
vt 0.3295547 0.4737734
vt 0.3295547 0.4737734
vt 0.3295547 0.4737734
vt 0.3295547 0.4737734
vt 0.3295547 0.4737734
vt 0.3295547 0.4737734
vt 0.3295547 0.4737734
vt 0.3295547 0.4737734
vt 0.3295547 0.4737734
vt 0.3295547 0.4737734
vt 0.3295547 0.4737734
vt 0.3295547 0.4737734
vt 0.3295547 0.4737734
vt 0.3295547 0.4737734
vt 0.3295547 0.4737734
vt 0.3295547 0.4737734
vt 0.3295547 0.4737734
vt 0.3295547 0.4737734
vt 0.3295547 0.4737734
vt 0.3295547 0.4737734
vt 0.3295547 0.4737734
vt 0.3295547 0.4737734
vt 0.3295547 0.4737734
vt 0.3295547 0.4737734
vt 0.3295547 0.4737734
vt 0.3295547 0.4737734
vt 0.3295547 0.4737734
vt 0.3295547 0.4737734
vt 0.3295547 0.4737734
vt 0.3295547 0.4737734
vt 0.3295547 0.4737734
vt 0.3295547 0.4737734
vt 0.3295547 0.4737734
vt 0.3295547 0.4737734
vt 0.3295547 0.4737734
vt 0.3295547 0.4737734
vt 0.3295547 0.4737734
vt 0.3295547 0.4737734
vt 0.3295547 0.4737734
vt 0.3295547 0.4737734
vt 0.3295547 0.4737734
vt 0.6406274 0.3347285
vt 0.6406274 0.3347285
vt 0.6406274 0.3347285
vt 0.6406274 0.3347285
vt 0.6406274 0.3347285
vt 0.6406274 0.3347285
vt 0.6406274 0.3347285
vt 0.6406274 0.3347285
vt 0.6406274 0.3347285
vt 0.6406274 0.3347285
vt 0.6406274 0.3347285
vt 0.6406274 0.3347285
vt 0.6406274 0.3347285
vt 0.6406274 0.3347285
vt 0.6406274 0.3347285
vt 0.6406274 0.3347285
vt 0.6406274 0.3347285
vt 0.6406274 0.3347285
vt 0.6406274 0.3347285
vt 0.6406274 0.3347285
vt 0.6406274 0.3347285
vt 0.6406274 0.3347285
vt 0.6406274 0.3347285
vt 0.6406274 0.3347285
vt 0.6406274 0.3347285
vt 0.6406274 0.3347285
vt 0.6406274 0.3347285
vt 0.6406274 0.3347285
vt 0.6406274 0.3347285
vt 0.6406274 0.3347285
vt 0.6406274 0.3347285
vt 0.6406274 0.3347285
vt 0.6406274 0.3347285
vt 0.6406274 0.3347285
vt 0.6406274 0.3347285
vt 0.6406274 0.3347285
vt 0.6406274 0.3347285
vt 0.6406274 0.3347285
vt 0.6406274 0.3347285
vt 0.6406274 0.3347285
vt 0.6406274 0.3347285
vt 0.6406274 0.3347285
vn 0.4117616 -0.08235234 -0.9075629
vn 0.4117616 -0.08235234 -0.9075629
vn 0.4117616 -0.08235234 -0.9075629
vn 0.2235277 -0.2549 -0.940777
vn 0.2235277 -0.2549 -0.940777
vn 0.2235277 -0.2549 -0.940777
vn -0.9450908 -0.1843123 -0.2698748
vn -0.9450908 -0.1843123 -0.2698748
vn -0.9450908 -0.1843123 -0.2698748
vn -0.4274477 0.5294076 -0.7328138
vn -0.4274477 0.5294076 -0.7328138
vn -0.4274477 0.5294076 -0.7328138
vn -0.3882322 0.5294076 -0.7543231
vn -0.1372538 -0.3333308 -0.9327658
vn -0.1372538 -0.3333308 -0.9327658
vn -0.1372538 -0.3333308 -0.9327658
vn -0.9215615 -0.35686 -0.1528899
vn -0.9215615 -0.35686 -0.1528899
vn -0.9215615 -0.35686 -0.1528899
vn -0.6784261 -0.6862693 -0.2622449
vn -0.6784261 -0.6862693 -0.2622449
vn -0.6784261 -0.6862693 -0.2622449
vn -0.7568569 -0.6313677 -0.1689449
vn -0.7568569 -0.6313677 -0.1689449
vn -0.7568569 -0.6313677 -0.1689449
vn -0.6784261 0.3568599 -0.6421751
vn -0.6784261 0.3568599 -0.6421751
vn -0.6784261 0.3568599 -0.6421751
vn -0.4745061 0.3019584 -0.8268404
vn -0.4745061 0.3019584 -0.8268404
vn -0.4745061 0.3019584 -0.8268404
vn -0.9764631 -0.01960772 0.2147916
vn -0.9764631 -0.01960772 0.2147916
vn -0.9764631 -0.01960772 0.2147916
vn -0.9843061 -0.003921568 -0.176426
vn -0.9843061 -0.003921568 -0.176426
vn -0.9843061 -0.003921568 -0.176426
vn -0.6784261 0.1529399 -0.7185732
vn -0.6784261 0.1529399 -0.7185732
vn -0.6784261 0.1529399 -0.7185732
vn -0.9529338 0.2862723 -0.09982684
vn -0.9529338 0.2862723 -0.09982684
vn -0.9529338 0.2862723 -0.09982684
vn -0.7803861 0.5764661 0.2422486
vn -0.7803861 0.5764661 0.2422486
vn -0.7803861 0.5764661 0.2422486
vn -0.7882292 0.5843092 0.1930737
vn -0.9215615 0.3725461 -0.1092421
vn -0.9215615 0.3725461 -0.1092421
vn -0.9215615 0.3725461 -0.1092421
vn -0.5921522 0.3333308 -0.7336528
vn -0.5921522 0.3333308 -0.7336528
vn -0.5921522 0.3333308 -0.7336528
vn -0.2156845 0.1843122 -0.9589104
vn -0.2156845 0.1843122 -0.9589104
vn -0.2156845 0.1843122 -0.9589104
vn -0.1686261 0.9764631 -0.1344809
vn -0.1686261 0.9764631 -0.1344809
vn -0.1686261 0.9764631 -0.1344809
vn -0.1686261 0.9764631 -0.1344809
vn 0.6627401 0.4509768 -0.5978256
vn 0.6627401 0.4509768 -0.5978256
vn 0.6627401 0.4509768 -0.5978256
vn 0.6941124 0.4039184 -0.5958674
vn 0.6941124 0.4039184 -0.5958674
vn 0.6941124 0.4039184 -0.5958674
vn 0.7097985 0.3960754 -0.5825036
vn -0.6784261 0.4745061 -0.560876
vn -0.6784261 0.4745061 -0.560876
vn -0.6784261 0.4745061 -0.560876
vn 0.5999954 0.7882292 -0.1367486
vn 0.5999954 0.7882292 -0.1367486
vn 0.5999954 0.7882292 -0.1367486
vn -0.6470538 0.6784261 -0.3479358
vn -0.6470538 0.6784261 -0.3479358
vn -0.6470538 0.6784261 -0.3479358
vn 0.4823493 0.2235277 0.8469797
vn 0.4823493 0.2235277 0.8469797
vn 0.4823493 0.2235277 0.8469797
vn 0.3725462 0.1921554 0.9079018
vn 0.3725462 0.1921554 0.9079018
vn 0.3725462 0.1921554 0.9079018
vn 0.5450939 0.1294107 0.8283269
vn 0.5450939 0.1294107 0.8283269
vn 0.5450939 0.1294107 0.8283269
vn 0.3803893 0.5607799 0.7354114
vn 0.3803893 0.5607799 0.7354114
vn 0.3803893 0.5607799 0.7354114
vn 0.9921493 0.04313684 -0.117384
vn 0.9921493 0.04313684 -0.117384
vn 0.9921493 0.04313684 -0.117384
vn 0.9921493 0.04313684 -0.117384
vn 0.9294047 -0.1686262 0.3282867
vn 0.9294047 -0.1686262 0.3282867
vn 0.9294047 -0.1686262 0.3282867
vn 0.3098016 0.8431307 0.4394925
vn 0.3098016 0.8431307 0.4394925
vn 0.3098016 0.8431307 0.4394925
vn -0.1137246 0.8509738 0.5127478
vn -0.1137246 0.8509738 0.5127478
vn -0.1137246 0.8509738 0.5127478
vn -0.04313684 0.9921492 -0.1173844
vn -0.04313684 0.9921492 -0.1173844
vn -0.04313684 0.9921492 -0.1173844
vn 0.3019585 0.2549 0.9186115
vn 0.3019585 0.2549 0.9186115
vn 0.3019585 0.2549 0.9186115
vn 0.3019585 0.2549 0.9186115
vn -0.262743 0.2549 0.930587
vn -0.262743 0.2549 0.930587
vn -0.262743 0.2549 0.930587
vn -0.3098015 -0.05098003 0.9494336
vn -0.3098015 -0.05098003 0.9494336
vn -0.3098015 -0.05098003 0.9494336
vn 0.03529388 0.7097985 0.7035201
vn 0.03529388 0.7097985 0.7035201
vn 0.03529388 0.7097985 0.7035201
vn 0.8039154 0.5058784 0.312741
vn 0.8039154 0.5058784 0.312741
vn 0.8039154 0.5058784 0.312741
vn -0.05097997 -0.2705862 0.961345
vn -0.05097997 -0.2705862 0.961345
vn -0.05097997 -0.2705862 0.961345
vn 0.8901893 0.05882299 0.4517775
vn 0.8901893 0.05882299 0.4517775
vn 0.8901893 0.05882299 0.4517775
vn 0.4431339 -0.450977 0.7747594
vn 0.4431339 -0.450977 0.7747594
vn 0.4431339 -0.450977 0.7747594
vn -0.3176446 -0.6156816 0.7211367
vn -0.3176446 -0.6156816 0.7211367
vn -0.3176446 -0.6156816 0.7211367
vn 0.9137185 0.1529399 0.3764676
vn 0.9137185 0.1529399 0.3764676
vn 0.9137185 0.1529399 0.3764676
vn 0.9764631 0.1843122 -0.1120212
vn 0.9764631 0.1843122 -0.1120212
vn 0.9764631 0.1843122 -0.1120212
vn 0.9529339 0.1137246 -0.2810404
vn 0.9529339 0.1137246 -0.2810404
vn 0.9529339 0.1137246 -0.2810404
vn 0.3333308 0.4823492 0.8100802
vn 0.3333308 0.4823492 0.8100802
vn 0.3333308 0.4823492 0.8100802
vn -0.04313684 0.01960766 0.9988768
vn -0.04313684 0.01960766 0.9988768
vn -0.04313684 0.01960766 0.9988768
vn 0.4431339 0.003921509 0.8964469
vn 0.4431339 0.003921509 0.8964469
vn 0.4431339 0.003921509 0.8964469
vn 0.5686231 -0.09019542 0.8176384
vn 0.5686231 -0.09019542 0.8176384
vn 0.5686231 -0.09019542 0.8176384
vn 0.6078385 -0.4431339 0.6589118
vn 0.6078385 -0.4431339 0.6589118
vn 0.6078385 -0.4431339 0.6589118
vn 0.960777 -0.05098003 -0.2725961
vn 0.960777 -0.05098003 -0.2725961
vn 0.960777 -0.05098003 -0.2725961
vn 0.4745062 -0.6235247 0.621338
vn 0.4745062 -0.6235247 0.621338
vn 0.4745062 -0.6235247 0.621338
vn 0.2784293 -0.9215616 0.2705575
vn 0.2784293 -0.9215616 0.2705575
vn 0.2784293 -0.9215616 0.2705575
vn 0.2705862 -0.9215616 0.2784013
vn 0.3882324 -0.6705831 -0.6321344
vn 0.3882324 -0.6705831 -0.6321344
vn 0.3882324 -0.6705831 -0.6321344
vn 0.05098003 -0.56078 0.8263938
vn 0.05098003 -0.56078 0.8263938
vn 0.05098003 -0.56078 0.8263938
vn 0.4352908 -0.7254847 0.5330984
vn 0.4352908 -0.7254847 0.5330984
vn 0.4352908 -0.7254847 0.5330984
vn -0.1607831 -0.8117585 0.561424
vn -0.1607831 -0.8117585 0.561424
vn -0.1607831 -0.8117585 0.561424
vn -0.05097997 -0.7647001 0.6423666
vn -0.05097997 -0.7647001 0.6423666
vn -0.05097997 -0.7647001 0.6423666
vn -0.3568599 -0.9294047 0.09411645
vn -0.3568599 -0.9294047 0.09411645
vn -0.3568599 -0.9294047 0.09411645
vn -0.6078384 -0.7411708 0.2849532
vn -0.6078384 -0.7411708 0.2849532
vn -0.6078384 -0.7411708 0.2849532
vn -0.4431338 -0.8901893 -0.1058084
vn -0.4431338 -0.8901893 -0.1058084
vn -0.4431338 -0.8901893 -0.1058084
vn 0.09803849 -0.8039154 -0.5866075
vn 0.09803849 -0.8039154 -0.5866075
vn 0.09803849 -0.8039154 -0.5866075
vn 0.09019542 -0.8039154 -0.5878646
vn -0.6784261 -0.7333277 -0.04436647
vn -0.6784261 -0.7333277 -0.04436647
vn -0.6784261 -0.7333277 -0.04436647
vn 0.7725431 -0.6313677 0.06746746
vn 0.7725431 -0.6313677 0.06746746
vn 0.7725431 -0.6313677 0.06746746
vn 0.3333308 -0.7882293 -0.5172864
vn 0.3333308 -0.7882293 -0.5172864
vn 0.3333308 -0.7882293 -0.5172864
vn -0.1686261 -0.9843062 -0.0520243
vn -0.1686261 -0.9843062 -0.0520243
vn -0.1686261 -0.9843062 -0.0520243
vn 0.04313695 -0.8274447 -0.5598879
vn 0.04313695 -0.8274447 -0.5598879
vn 0.04313695 -0.8274447 -0.5598879
vn -0.7019553 -0.6313677 0.329596
vn -0.7019553 -0.6313677 0.329596
vn -0.7019553 -0.6313677 0.329596
vn -0.3019584 0.1294107 0.9444967
vn -0.3019584 0.1294107 0.9444967
vn -0.3019584 0.1294107 0.9444967
vn -0.3098015 0.1686261 0.9357287
vn -0.3098015 0.1686261 0.9357287
vn -0.7646999 -0.003921568 0.6443746
vn -0.7646999 -0.003921568 0.6443746
vn -0.7646999 -0.003921568 0.6443746
vn -0.7019553 0.2549 0.6650449
vn -0.7019553 0.2549 0.6650449
vn -0.7019553 0.2549 0.6650449
vn -0.9921492 -0.05098003 -0.1141969
vn -0.9921492 -0.05098003 -0.1141969
vn -0.9921492 -0.05098003 -0.1141969
vn -0.6548969 -0.09803849 0.7493321
vn -0.6548969 -0.09803849 0.7493321
vn -0.6548969 -0.09803849 0.7493321
vn -0.09803843 0.3176446 0.943128
vn -0.09803843 0.3176446 0.943128
vn -0.09803843 0.3176446 0.943128
vn -0.3098015 -0.3411739 0.8874815
vn -0.3098015 -0.3411739 0.8874815
vn -0.3098015 -0.3411739 0.8874815
vn -0.1372538 -0.2549 0.9571768
vn -0.1372538 -0.2549 0.9571768
vn -0.1372538 -0.2549 0.9571768
vn -0.7803861 0.4431338 0.4411688
vn -0.7803861 0.4431338 0.4411688
vn -0.7803861 0.4431338 0.4411688
vn 0.003921568 0.9921492 0.1249981
vn 0.003921568 0.9921492 0.1249981
vn 0.003921568 0.9921492 0.1249981
vn -0.4117615 0.4980353 0.76316
vn -0.4117615 0.4980353 0.76316
vn -0.4117615 0.4980353 0.76316
vn -0.6548969 -0.01960772 0.7554639
vn -0.6548969 -0.01960772 0.7554639
vn -0.6548969 -0.01960772 0.7554639
vn 0.6470539 -0.1372539 0.7499884
vn 0.6470539 -0.1372539 0.7499884
vn 0.6470539 -0.1372539 0.7499884
vn -0.6548969 0.1529399 0.7400808
vn -0.6548969 0.1529399 0.7400808
vn -0.6548969 0.1529399 0.7400808
vn -0.6784261 0.1607831 0.7168589
vn -0.1058815 0.9921492 0.06655105
vn -0.1058815 0.9921492 0.06655105
vn -0.1058815 0.9921492 0.06655105
vn -0.86666 0.2470568 0.4334321
vn -0.86666 0.2470568 0.4334321
vn -0.86666 0.2470568 0.4334321
vn -0.5137215 0.07450914 -0.8547155
vn -0.5137215 0.07450914 -0.8547155
vn -0.5137215 0.07450914 -0.8547155
vn 0.4980354 -0.4823493 -0.7206246
vn 0.4980354 -0.4823493 -0.7206246
vn 0.4980354 -0.4823493 -0.7206246
vn 0.960777 0.01176453 0.2770725
vn 0.960777 0.01176453 0.2770725
vn 0.960777 0.01176453 0.2770725
vn 0.9843062 -0.1764693 0
vn 0.9843062 -0.1764693 0
vn 0.9843062 -0.1764693 0
vn 0.9137185 0.1999984 -0.3537218
vn 0.9137185 0.1999984 -0.3537218
vn 0.9137185 0.1999984 -0.3537218
vn 0.7411708 0.2549 -0.6210409
vn 0.7411708 0.2549 -0.6210409
vn 0.7411708 0.2549 -0.6210409
vn 0.2705862 -0.05098003 -0.961345
vn 0.2705862 -0.05098003 -0.961345
vn 0.2705862 -0.05098003 -0.961345
vn 0.6627401 -0.05098003 -0.7471122
vn 0.6627401 -0.05098003 -0.7471122
vn 0.6627401 -0.05098003 -0.7471122
vn -0.3725461 -0.1921554 -0.9079018
vn -0.3725461 -0.1921554 -0.9079018
vn -0.3725461 -0.1921554 -0.9079018
vn 0.7019554 0.0901953 -0.7064866
vn 0.7019554 0.0901953 -0.7064866
vn 0.7019554 0.0901953 -0.7064866
vn 0.349017 0.262743 -0.8995295
vn 0.349017 0.262743 -0.8995295
vn 0.349017 0.262743 -0.8995295
vn 0.2156847 0.5843092 -0.7823445
vn 0.2156847 0.5843092 -0.7823445
vn 0.2156847 0.5843092 -0.7823445
vn -0.05882299 0.6313677 -0.7732494
vn -0.05882299 0.6313677 -0.7732494
vn -0.05882299 0.6313677 -0.7732494
vn 0.450977 0.1294107 -0.883104
vn 0.450977 0.1294107 -0.883104
vn 0.450977 0.1294107 -0.883104
vn 0.05882311 0.9843061 -0.1663771
vn 0.05882311 0.9843061 -0.1663771
vn 0.05882311 0.9843061 -0.1663771
vn 0.1294108 0.5137215 -0.848141
vn 0.1294108 0.5137215 -0.848141
vn 0.1294108 0.5137215 -0.848141
vn 0.7097985 0.5607799 -0.4262768
vn 0.7097985 0.5607799 -0.4262768
vn 0.7097985 0.5607799 -0.4262768
vn -0.1529399 0.5921522 -0.7911796
vn -0.1529399 0.5921522 -0.7911796
vn -0.1529399 0.5921522 -0.7911796
vn -0.1450969 0.8980323 -0.4153129
vn -0.1450969 0.8980323 -0.4153129
vn -0.1450969 0.8980323 -0.4153129
vn 0.9294047 0.3176446 0.1879065
vn 0.9294047 0.3176446 0.1879065
vn 0.9294047 0.3176446 0.1879065
vn 0.9294047 0.3568599 -0.09411653
vn 0.9294047 0.3568599 -0.09411653
vn 0.9294047 0.3568599 -0.09411653
vn 0.5764662 0.7882292 -0.2153634
vn 0.5764662 0.7882292 -0.2153634
vn 0.5764662 0.7882292 -0.2153634
vn -0.3019584 0.1450969 -0.9422144
vn -0.3019584 0.1450969 -0.9422144
vn -0.3019584 0.1450969 -0.9422144
vn -0.3098015 0.1450969 -0.9396648
vn -0.9747856 0.2231437 0
vn -0.9747856 0.2231437 0
vn -0.9747856 0.2231437 0
vn -0.9747856 0.2231437 0
vn -0.2941153 0.3333308 0.8957605
vn -0.2941153 0.3333308 0.8957605
vn -0.2941153 0.3333308 0.8957605
vn -0.2941153 0.3333308 0.8957605
vn 0.7647001 0.3176446 0.5606565
vn 0.7647001 0.3176446 0.5606565
vn 0.7647001 0.3176446 0.5606565
vn 0.7647001 0.3176446 0.5606565
vn 0.7882293 0.2078415 -0.5792206
vn 0.7882293 0.2078415 -0.5792206
vn 0.7882293 0.2078415 -0.5792206
vn 0.7882293 0.2078415 -0.5792206
vn -0.003921509 -0.9999924 0
vn -0.003921509 -0.9999924 0
vn -0.003921509 -0.9999924 0
vn -0.003921509 -0.9999924 0
vn -0.003921509 -0.9999924 0
vn -0.003921509 -0.9999924 0
vn -0.003921509 0.9999923 -0.000345267
vn -0.003921509 0.9999923 -0.000345267
vn -0.003921509 0.9999923 -0.000345267
vn -0.003921509 0.9999923 -0.000345267
vn -0.003921509 0.9999923 -0.000345267
vn -0.003921509 0.9999923 -0.000345267
vn -0.2941153 0.3019584 -0.9068171
vn -0.2941153 0.3019584 -0.9068171
vn -0.2941153 0.3019584 -0.9068171
vn -0.2941153 0.3019584 -0.9068171
vn -0.9990709 0.04309709 0
vn -0.9990709 0.04309709 0
vn -0.9990709 0.04309709 0
vn -0.9990709 0.04309709 0
vn -0.9998079 0.01960405 0
vn -0.9998079 0.01960405 0
vn -0.3019584 -0.1607831 0.9396648
vn -0.3019584 -0.1607831 0.9396648
vn -0.3019584 -0.1607831 0.9396648
vn -0.3019584 -0.1607831 0.9396648
vn 0.8117585 -0.01176465 0.5838748
vn 0.8117585 -0.01176465 0.5838748
vn 0.8117585 -0.01176465 0.5838748
vn 0.8117585 -0.01176465 0.5838748
vn 0.7803862 0.2705861 -0.5637202
vn 0.7803862 0.2705861 -0.5637202
vn 0.7803862 0.2705861 -0.5637202
vn 0.7803862 0.2705861 -0.5637202
vn -0.3019584 -0.1843123 -0.9353342
vn -0.3019584 -0.1843123 -0.9353342
vn -0.3019584 -0.1843123 -0.9353342
vn -0.3019584 -0.1843123 -0.9353342
vn -0.3019584 0.1921554 0.9337544
vn -0.3019584 0.1921554 0.9337544
vn -0.3019584 0.1921554 0.9337544
vn -0.3019584 0.1921554 0.9337544
vn 0.6078385 0.5999954 0.5201326
vn 0.6078385 0.5999954 0.5201326
vn 0.6078385 0.5999954 0.5201326
vn 0.6078385 0.5999954 0.5201326
vn 0.8039154 -0.1294108 -0.5804936
vn 0.8039154 -0.1294108 -0.5804936
vn 0.8039154 -0.1294108 -0.5804936
vn 0.8039154 -0.1294108 -0.5804936
vn -0.3098015 0.09803843 0.9457333
vn -0.3098015 0.09803843 0.9457333
vn -0.3098015 0.09803843 0.9457333
vn -0.3098015 0.09803843 0.9457333
vn -0.9982743 -0.05872206 0
vn -0.9982743 -0.05872206 0
vn -0.9982743 -0.05872206 0
vn -0.9982743 -0.05872206 0
vn -0.3098015 -0.1294108 -0.9419532
vn -0.3098015 -0.1294108 -0.9419532
vn -0.3098015 -0.1294108 -0.9419532
vn -0.3098015 -0.1294108 -0.9419532
vn 0.8117585 -0.01960772 -0.583664
vn 0.8117585 -0.01960772 -0.583664
vn 0.8117585 -0.01960772 -0.583664
vn 0.8117585 -0.01960772 -0.583664
vn 0.8039154 0.1137246 0.5837694
vn 0.8039154 0.1137246 0.5837694
vn 0.8039154 0.1137246 0.5837694
vn 0.8039154 0.1137246 0.5837694
vn 0.3960754 -0.8745031 0.2799438
vn 0.3960754 -0.8745031 0.2799438
vn 0.3960754 -0.8745031 0.2799438
vn 0.450977 -0.8823462 0.1344803
vn 0.450977 -0.8823462 0.1344803
vn 0.450977 -0.8823462 0.1344803
vn 0.756857 -0.1372539 -0.6390062
vn 0.756857 -0.1372539 -0.6390062
vn 0.756857 -0.1372539 -0.6390062
vn 0.7490139 0.1294107 -0.6497931
vn 0.7490139 0.1294107 -0.6497931
vn 0.7490139 0.1294107 -0.6497931
vn -0.2235277 0.9607769 -0.1641435
vn -0.2235277 0.9607769 -0.1641435
vn -0.2235277 0.9607769 -0.1641435
vn -0.285553 0.9583629 0
vn -0.285553 0.9583629 0
vn -0.285553 0.9583629 0
vn -0.5999954 0.1686261 0.7820299
vn -0.5999954 0.1686261 0.7820299
vn -0.5999954 0.1686261 0.7820299
vn -0.6078384 0.01176453 0.7939736
vn -0.6078384 0.01176453 0.7939736
vn -0.6078384 0.01176453 0.7939736
vn 0.6627401 -0.6705831 0.3333075
vn 0.6627401 -0.6705831 0.3333075
vn 0.6627401 -0.6705831 0.3333075
vn 0.56078 -0.6784262 0.4746195
vn 0.56078 -0.6784262 0.4746195
vn 0.56078 -0.6784262 0.4746195
vn 0.7803862 0.1686261 -0.6021317
vn 0.7803862 0.1686261 -0.6021317
vn 0.7803862 0.1686261 -0.6021317
vn 0.8352877 0.01176453 -0.5496871
vn 0.8352877 0.01176453 -0.5496871
vn 0.8352877 0.01176453 -0.5496871
vn -0.6313677 0.7097985 -0.3123476
vn -0.6313677 0.7097985 -0.3123476
vn -0.6313677 0.7097985 -0.3123476
vn -0.5372508 0.7176415 -0.4431166
vn -0.5372508 0.7176415 -0.4431166
vn -0.5372508 0.7176415 -0.4431166
vn -0.7646999 -0.145097 0.6278383
vn -0.7646999 -0.145097 0.6278383
vn -0.7646999 -0.145097 0.6278383
vn -0.8196015 0.01176453 0.5728132
vn -0.8196015 0.01176453 0.5728132
vn -0.8196015 0.01176453 0.5728132
vn 0.01960772 0.05097997 0.9985072
vn 0.01960772 0.05097997 0.9985072
vn 0.01960772 0.05097997 0.9985072
vn 0.552937 -0.4823493 0.6794114
vn 0.552937 -0.4823493 0.6794114
vn 0.552937 -0.4823493 0.6794114
vn 0.9764631 0.1215676 0.1781603
vn 0.9764631 0.1215676 0.1781603
vn 0.9764631 0.1215676 0.1781603
vn 0.9137185 0.3254876 0.2432617
vn 0.9137185 0.3254876 0.2432617
vn 0.9137185 0.3254876 0.2432617
vn 0.3647031 0.9215615 0.1331017
vn 0.3647031 0.9215615 0.1331017
vn 0.3647031 0.9215615 0.1331017
vn -0.4431338 0.3568599 -0.8223645
vn -0.4431338 0.3568599 -0.8223645
vn -0.4431338 0.3568599 -0.8223645
vn -0.4431338 -0.45882 -0.7701406
vn -0.4431338 -0.45882 -0.7701406
vn -0.4431338 -0.45882 -0.7701406
vn 0.07450926 -0.756857 -0.6493196
vn 0.07450926 -0.756857 -0.6493196
vn 0.07450926 -0.756857 -0.6493196
vn -0.6078384 -0.7803862 0.1467305
vn -0.6078384 -0.7803862 0.1467305
vn -0.6078384 -0.7803862 0.1467305
vn -0.1058815 -0.9921493 0.06655016
vn -0.1058815 -0.9921493 0.06655016
vn -0.1058815 -0.9921493 0.06655016
vn 0.6470539 -0.3019585 -0.7001016
vn 0.6470539 -0.3019585 -0.7001016
vn 0.6470539 -0.3019585 -0.7001016
vn -0.3647031 0.3803892 -0.8498799
vn -0.3647031 0.3803892 -0.8498799
vn -0.3647031 0.3803892 -0.8498799
vn -0.5999954 0.2313707 0.7658154
vn -0.5999954 0.2313707 0.7658154
vn -0.5999954 0.2313707 0.7658154
vn -0.6078384 0.6941123 0.3856691
vn -0.6078384 0.6941123 0.3856691
vn -0.6078384 0.6941123 0.3856691
g tree01_0
f 3/3/3 2/2/2 1/1/1
f 6/6/6 5/5/5 4/4/4
f 9/9/9 8/8/8 7/7/7
f 12/12/12 11/11/11 10/10/10
f 13/13/13 11/11/11 12/12/12
f 16/16/16 15/15/15 14/14/14
f 19/19/19 18/18/18 17/17/17
f 22/22/22 21/21/21 20/20/20
f 25/25/25 24/24/24 23/23/23
f 28/28/28 27/27/27 26/26/26
f 31/31/31 30/30/30 29/29/29
f 34/34/34 33/33/33 32/32/32
f 37/37/37 36/36/36 35/35/35
f 40/40/40 39/39/39 38/38/38
f 43/43/43 42/42/42 41/41/41
f 46/46/46 45/45/45 44/44/44
f 47/47/47 45/45/45 46/46/46
f 50/50/50 49/49/49 48/48/48
f 53/53/53 52/52/52 51/51/51
f 56/56/56 55/55/55 54/54/54
f 59/59/59 58/58/58 57/57/57
f 58/58/58 60/60/60 57/57/57
f 63/63/63 62/62/62 61/61/61
f 66/66/66 65/65/65 64/64/64
f 65/65/65 67/67/67 64/64/64
f 70/70/70 69/69/69 68/68/68
f 73/73/73 72/72/72 71/71/71
f 76/76/76 75/75/75 74/74/74
f 79/79/79 78/78/78 77/77/77
f 82/82/82 81/81/81 80/80/80
f 85/85/85 84/84/84 83/83/83
f 88/88/88 87/87/87 86/86/86
f 91/91/91 90/90/90 89/89/89
f 92/92/92 89/89/89 90/90/90
f 95/95/95 94/94/94 93/93/93
f 98/98/98 97/97/97 96/96/96
f 101/101/101 100/100/100 99/99/99
f 104/104/104 103/103/103 102/102/102
f 107/107/107 106/106/106 105/105/105
f 108/108/108 106/106/106 107/107/107
f 111/111/111 110/110/110 109/109/109
f 114/114/114 113/113/113 112/112/112
f 117/117/117 116/116/116 115/115/115
f 120/120/120 119/119/119 118/118/118
f 123/123/123 122/122/122 121/121/121
f 126/126/126 125/125/125 124/124/124
f 129/129/129 128/128/128 127/127/127
f 132/132/132 131/131/131 130/130/130
f 135/135/135 134/134/134 133/133/133
f 138/138/138 137/137/137 136/136/136
f 141/141/141 140/140/140 139/139/139
f 144/144/144 143/143/143 142/142/142
f 147/147/147 146/146/146 145/145/145
f 150/150/150 149/149/149 148/148/148
f 153/153/153 152/152/152 151/151/151
f 156/156/156 155/155/155 154/154/154
f 159/159/159 158/158/158 157/157/157
f 162/162/162 161/161/161 160/160/160
f 165/165/165 164/164/164 163/163/163
f 165/165/165 166/166/166 164/164/164
f 169/169/169 168/168/168 167/167/167
f 172/172/172 171/171/171 170/170/170
f 175/175/175 174/174/174 173/173/173
f 178/178/178 177/177/177 176/176/176
f 181/181/181 180/180/180 179/179/179
f 184/184/184 183/183/183 182/182/182
f 187/187/187 186/186/186 185/185/185
f 190/190/190 189/189/189 188/188/188
f 193/193/193 192/192/192 191/191/191
f 193/193/193 191/191/191 194/194/194
f 197/197/197 196/196/196 195/195/195
f 200/200/200 199/199/199 198/198/198
f 203/203/203 202/202/202 201/201/201
f 206/206/206 205/205/205 204/204/204
f 209/209/209 208/208/208 207/207/207
f 212/212/212 211/211/211 210/210/210
f 215/215/215 214/214/214 213/213/213
f 217/217/217 216/216/216 215/215/215
f 220/220/220 219/219/219 218/218/218
f 223/223/223 222/222/222 221/221/221
f 226/226/226 225/225/225 224/224/224
f 229/229/229 228/228/228 227/227/227
f 232/232/232 231/231/231 230/230/230
f 235/235/235 234/234/234 233/233/233
f 238/238/238 237/237/237 236/236/236
f 241/241/241 240/240/240 239/239/239
f 244/244/244 243/243/243 242/242/242
f 247/247/247 246/246/246 245/245/245
f 250/250/250 249/249/249 248/248/248
f 253/253/253 252/252/252 251/251/251
f 256/256/256 255/255/255 254/254/254
f 254/254/254 255/255/255 257/257/257
f 260/260/260 259/259/259 258/258/258
f 263/263/263 262/262/262 261/261/261
f 266/266/266 265/265/265 264/264/264
f 269/269/269 268/268/268 267/267/267
f 272/272/272 271/271/271 270/270/270
f 275/275/275 274/274/274 273/273/273
f 278/278/278 277/277/277 276/276/276
f 281/281/281 280/280/280 279/279/279
f 284/284/284 283/283/283 282/282/282
f 287/287/287 286/286/286 285/285/285
f 290/290/290 289/289/289 288/288/288
f 293/293/293 292/292/292 291/291/291
f 296/296/296 295/295/295 294/294/294
f 299/299/299 298/298/298 297/297/297
f 302/302/302 301/301/301 300/300/300
f 305/305/305 304/304/304 303/303/303
f 308/308/308 307/307/307 306/306/306
f 311/311/311 310/310/310 309/309/309
f 314/314/314 313/313/313 312/312/312
f 317/317/317 316/316/316 315/315/315
f 320/320/320 319/319/319 318/318/318
f 323/323/323 322/322/322 321/321/321
f 326/326/326 325/325/325 324/324/324
f 329/329/329 328/328/328 327/327/327
f 332/332/332 331/331/331 330/330/330
f 332/332/332 333/333/333 331/331/331
f 336/336/336 335/335/335 334/334/334
f 336/336/336 337/337/337 335/335/335
f 340/340/340 339/339/339 338/338/338
f 340/340/340 341/341/341 339/339/339
f 344/344/344 343/343/343 342/342/342
f 344/344/344 345/345/345 343/343/343
f 348/348/348 347/347/347 346/346/346
f 348/348/348 349/349/349 347/347/347
f 352/352/352 351/351/351 350/350/350
f 350/350/350 351/351/351 353/353/353
f 353/353/353 351/351/351 354/354/354
f 354/354/354 351/351/351 355/355/355
f 355/355/355 351/351/351 352/352/352
f 358/358/358 357/357/357 356/356/356
f 359/359/359 357/357/357 358/358/358
f 360/360/360 357/357/357 359/359/359
f 361/361/361 357/357/357 360/360/360
f 356/356/356 357/357/357 361/361/361
f 364/364/364 363/363/363 362/362/362
f 364/364/364 365/365/365 363/363/363
f 368/368/368 367/367/367 366/366/366
f 368/368/368 369/369/369 367/367/367
f 370/370/370 367/367/367 369/369/369
f 370/370/370 371/371/371 367/367/367
f 374/374/374 373/373/373 372/372/372
f 374/374/374 375/375/375 373/373/373
f 378/378/378 377/377/377 376/376/376
f 378/378/378 379/379/379 377/377/377
f 382/382/382 381/381/381 380/380/380
f 382/382/382 383/383/383 381/381/381
f 386/386/386 385/385/385 384/384/384
f 386/386/386 387/387/387 385/385/385
f 390/390/390 389/389/389 388/388/388
f 390/390/390 391/391/391 389/389/389
f 394/394/394 393/393/393 392/392/392
f 394/394/394 395/395/395 393/393/393
f 398/398/398 397/397/397 396/396/396
f 398/398/398 399/399/399 397/397/397
f 402/402/402 401/401/401 400/400/400
f 402/402/402 403/403/403 401/401/401
f 406/406/406 405/405/405 404/404/404
f 406/406/406 407/407/407 405/405/405
f 410/410/410 409/409/409 408/408/408
f 410/410/410 411/411/411 409/409/409
f 414/414/414 413/413/413 412/412/412
f 414/414/414 415/415/415 413/413/413
f 418/418/418 417/417/417 416/416/416
f 418/418/418 419/419/419 417/417/417
f 422/422/422 421/421/421 420/420/420
f 425/425/425 424/424/424 423/423/423
f 428/428/428 427/427/427 426/426/426
f 431/431/431 430/430/430 429/429/429
f 434/434/434 433/433/433 432/432/432
f 437/437/437 436/436/436 435/435/435
f 440/440/440 439/439/439 438/438/438
f 443/443/443 442/442/442 441/441/441
f 446/446/446 445/445/445 444/444/444
f 449/449/449 448/448/448 447/447/447
f 452/452/452 451/451/451 450/450/450
f 455/455/455 454/454/454 453/453/453
f 458/458/458 457/457/457 456/456/456
f 461/461/461 460/460/460 459/459/459
f 464/464/464 463/463/463 462/462/462
f 467/467/467 466/466/466 465/465/465
f 470/470/470 469/469/469 468/468/468
f 473/473/473 472/472/472 471/471/471
f 476/476/476 475/475/475 474/474/474
f 479/479/479 478/478/478 477/477/477
f 482/482/482 481/481/481 480/480/480
f 485/485/485 484/484/484 483/483/483
f 488/488/488 487/487/487 486/486/486
f 491/491/491 490/490/490 489/489/489
f 494/494/494 493/493/493 492/492/492
f 497/497/497 496/496/496 495/495/495
f 500/500/500 499/499/499 498/498/498
f 503/503/503 502/502/502 501/501/501
f 506/506/506 505/505/505 504/504/504
f 509/509/509 508/508/508 507/507/507
