g tree01
v 2.249487E-08 0.001213372 0.1242142
v -0.1242142 0.001213372 1.309648E-08
v -0.1242142 2.394081 1.309648E-08
v 2.249487E-08 2.394081 0.1242142
v 0.1242142 0.001213372 6.185668E-09
v 2.249487E-08 0.001213372 0.1242142
v 2.249487E-08 2.394081 0.1242142
v 0.1242142 2.394081 6.185668E-09
v -0.1242142 0.001213372 1.309648E-08
v 1.163572E-08 0.001213372 -0.1242142
v 1.163572E-08 2.394081 -0.1242142
v -0.1242142 2.394081 1.309648E-08
v 1.163572E-08 0.001213372 -0.1242142
v 0.1242142 0.001213372 6.185668E-09
v 0.1242142 2.394081 6.185668E-09
v 1.163572E-08 2.394081 -0.1242142
v 0.029197 1.346305 -0.02021229
v -0.1657287 1.470914 0.4970049
v 0.4518398 1.477338 0.3349196
v 0.7696429 1.910893 0.7269255
v 0.8657348 1.654952 0.1134465
v 0.4518398 1.477338 0.3349196
v 0.029197 1.346305 -0.02021229
v -0.4403862 1.504573 0.04018823
v -0.1657287 1.470914 0.4970049
v 0.029197 1.346305 -0.02021229
v -0.2594699 1.497513 -0.3932139
v -0.4403862 1.504573 0.04018823
v 0.029197 1.346305 -0.02021229
v 0.4356808 1.37992 -0.1694878
v -0.2594699 1.497513 -0.3932139
v 0.1097934 1.636074 -0.8623003
v 0.7696429 1.910893 0.7269255
v 0.9302441 2.396326 0.2832604
v 0.8657348 1.654952 0.1134465
v -0.1638203 1.834991 0.9647778
v 0.1554623 2.361718 1.174309
v 0.2274284 1.751277 0.7250879
v -1.002262 1.859301 -0.1413389
v -0.9448455 2.339761 0.3103496
v -0.7910841 1.845281 0.4563053
v -0.3978649 1.794285 -0.9457427
v -0.6103934 2.388554 -0.7966843
v -0.6189367 1.829494 -0.581906
v 0.6036913 2.007243 -0.4638751
v 0.5868089 2.329517 -0.803292
v 0.1097934 1.636074 -0.8623003
v 0.4356808 1.37992 -0.1694878
v 0.7696429 1.910893 0.7269255
v 0.5757648 2.355248 0.8258384
v 0.9302441 2.396326 0.2832604
v -0.1638203 1.834991 0.9647778
v -0.7224108 2.440879 0.8736666
v 0.1554623 2.361718 1.174309
v -1.002262 1.859301 -0.1413389
v -0.8610505 2.299693 -0.2620114
v -0.9448455 2.339761 0.3103496
v -0.3978649 1.794285 -0.9457427
v -0.0879455 2.30479 -0.890729
v -0.6103934 2.388554 -0.7966843
v 0.6036913 2.007243 -0.4638751
v 1.006444 2.249602 -0.2929538
v 0.5868089 2.329517 -0.803292
v 0.8657348 1.654952 0.1134465
v 0.1852583 2.629812 0.8246851
v 0.04125435 3.128111 0.5213338
v 0.7740033 2.697066 0.4701364
v 0.5757648 2.355248 0.8258384
v -0.7439277 2.775419 0.5090619
v -0.4256431 3.176524 0.3089656
v -0.1400573 2.927187 0.691831
v -0.6871587 2.898322 -0.4857794
v -0.2918584 3.294735 -0.4471415
v -0.8652044 2.789576 0.03536859
v 0.2741113 2.755449 -0.885571
v 0.1644449 3.176468 -0.4970589
v -0.2363169 2.891745 -0.8821646
v 0.9484045 2.744606 0.2132277
v 0.5148365 3.116925 0.08453885
v 0.7016885 2.826453 -0.4762376
v 0.5148365 3.116925 0.08453885
v 0.01566901 3.300221 0.006130797
v 0.1644449 3.176468 -0.4970589
v 0.5148365 3.116925 0.08453885
v 0.1644449 3.176468 -0.4970589
v 0.7016885 2.826453 -0.4762376
v 0.7016885 2.826453 -0.4762376
v 0.1644449 3.176468 -0.4970589
v 0.2741113 2.755449 -0.885571
v 0.1644449 3.176468 -0.4970589
v 0.01566901 3.300221 0.006130797
v -0.2918584 3.294735 -0.4471415
v 0.1644449 3.176468 -0.4970589
v -0.2918584 3.294735 -0.4471415
v -0.2363169 2.891745 -0.8821646
v -0.2363169 2.891745 -0.8821646
v -0.2918584 3.294735 -0.4471415
v -0.6871587 2.898322 -0.4857794
v -0.2918584 3.294735 -0.4471415
v 0.01566901 3.300221 0.006130797
v -0.4256431 3.176524 0.3089656
v -0.2918584 3.294735 -0.4471415
v -0.4256431 3.176524 0.3089656
v -0.8652044 2.789576 0.03536859
v -0.8652044 2.789576 0.03536859
v -0.4256431 3.176524 0.3089656
v -0.7439277 2.775419 0.5090619
v -0.4256431 3.176524 0.3089656
v 0.01566901 3.300221 0.006130797
v 0.04125435 3.128111 0.5213338
v -0.4256431 3.176524 0.3089656
v 0.04125435 3.128111 0.5213338
v -0.1400573 2.927187 0.691831
v -0.1400573 2.927187 0.691831
v 0.04125435 3.128111 0.5213338
v 0.1852583 2.629812 0.8246851
v 0.04125435 3.128111 0.5213338
v 0.01566901 3.300221 0.006130797
v 0.5148365 3.116925 0.08453885
v 0.04125435 3.128111 0.5213338
v 0.5148365 3.116925 0.08453885
v 0.7740033 2.697066 0.4701364
v 0.9484045 2.744606 0.2132277
v 1.006444 2.249602 -0.2929538
v 0.9484045 2.744606 0.2132277
v 0.7016885 2.826453 -0.4762376
v 1.006444 2.249602 -0.2929538
v 0.7016885 2.826453 -0.4762376
v 0.5868089 2.329517 -0.803292
v 0.5868089 2.329517 -0.803292
v 0.7016885 2.826453 -0.4762376
v 0.2741113 2.755449 -0.885571
v -0.0879455 2.30479 -0.890729
v 0.2741113 2.755449 -0.885571
v -0.2363169 2.891745 -0.8821646
v -0.0879455 2.30479 -0.890729
v -0.2363169 2.891745 -0.8821646
v -0.6103934 2.388554 -0.7966843
v -0.6103934 2.388554 -0.7966843
v -0.2363169 2.891745 -0.8821646
v -0.6871587 2.898322 -0.4857794
v -0.8610505 2.299693 -0.2620114
v -0.6871587 2.898322 -0.4857794
v -0.8652044 2.789576 0.03536859
v -0.8610505 2.299693 -0.2620114
v -0.8652044 2.789576 0.03536859
v -0.9448455 2.339761 0.3103496
v -0.9448455 2.339761 0.3103496
v -0.8652044 2.789576 0.03536859
v -0.7439277 2.775419 0.5090619
v -0.7224108 2.440879 0.8736666
v -0.7439277 2.775419 0.5090619
v -0.1400573 2.927187 0.691831
v -0.7224108 2.440879 0.8736666
v -0.1400573 2.927187 0.691831
v 0.1554623 2.361718 1.174309
v 0.1554623 2.361718 1.174309
v -0.1400573 2.927187 0.691831
v 0.1852583 2.629812 0.8246851
v 0.5757648 2.355248 0.8258384
v 0.7740033 2.697066 0.4701364
v 0.9302441 2.396326 0.2832604
v 0.9484045 2.744606 0.2132277
v 0.5868089 2.329517 -0.803292
v 0.2741113 2.755449 -0.885571
v -0.0879455 2.30479 -0.890729
v 0.5868089 2.329517 -0.803292
v -0.0879455 2.30479 -0.890729
v 0.1097934 1.636074 -0.8623003
v -0.3978649 1.794285 -0.9457427
v -0.6103934 2.388554 -0.7966843
v -0.6871587 2.898322 -0.4857794
v -0.8610505 2.299693 -0.2620114
v -0.6103934 2.388554 -0.7966843
v -0.8610505 2.299693 -0.2620114
v -0.6189367 1.829494 -0.581906
v -0.6189367 1.829494 -0.581906
v -0.8610505 2.299693 -0.2620114
v -1.002262 1.859301 -0.1413389
v -0.9448455 2.339761 0.3103496
v -0.7439277 2.775419 0.5090619
v -0.7224108 2.440879 0.8736666
v -0.9448455 2.339761 0.3103496
v -0.7224108 2.440879 0.8736666
v -0.7910841 1.845281 0.4563053
v -0.7910841 1.845281 0.4563053
v -0.7224108 2.440879 0.8736666
v -0.1638203 1.834991 0.9647778
v 0.1554623 2.361718 1.174309
v 0.1852583 2.629812 0.8246851
v 0.5757648 2.355248 0.8258384
v 0.1554623 2.361718 1.174309
v 0.5757648 2.355248 0.8258384
v 0.2274284 1.751277 0.7250879
v 0.2274284 1.751277 0.7250879
v 0.5757648 2.355248 0.8258384
v 0.7696429 1.910893 0.7269255
v 0.9302441 2.396326 0.2832604
v 0.9484045 2.744606 0.2132277
v 1.006444 2.249602 -0.2929538
v 0.9302441 2.396326 0.2832604
v 1.006444 2.249602 -0.2929538
v 0.8657348 1.654952 0.1134465
v -0.2594699 1.497513 -0.3932139
v 0.1097934 1.636074 -0.8623003
v -0.3978649 1.794285 -0.9457427
v -0.2594699 1.497513 -0.3932139
v -0.3978649 1.794285 -0.9457427
v -0.6189367 1.829494 -0.581906
v -0.4403862 1.504573 0.04018823
v -0.4403862 1.504573 0.04018823
v -0.6189367 1.829494 -0.581906
v -1.002262 1.859301 -0.1413389
v -0.4403862 1.504573 0.04018823
v -1.002262 1.859301 -0.1413389
v -0.7910841 1.845281 0.4563053
v -0.4403862 1.504573 0.04018823
v -0.7910841 1.845281 0.4563053
v -0.1657287 1.470914 0.4970049
v -0.1657287 1.470914 0.4970049
v -0.7910841 1.845281 0.4563053
v -0.1638203 1.834991 0.9647778
v 0.8657348 1.654952 0.1134465
v 0.6036913 2.007243 -0.4638751
v 0.4356808 1.37992 -0.1694878
v 0.8657348 1.654952 0.1134465
v 0.4356808 1.37992 -0.1694878
v 0.4518398 1.477338 0.3349196
v 0.4518398 1.477338 0.3349196
v 0.4356808 1.37992 -0.1694878
v 0.029197 1.346305 -0.02021229
v -0.1657287 1.470914 0.4970049
v -0.1638203 1.834991 0.9647778
v 0.2274284 1.751277 0.7250879
v 0.4518398 1.477338 0.3349196
v 0.2274284 1.751277 0.7250879
v 0.7696429 1.910893 0.7269255
vt 0.8569619 0.3581878
vt 0.8569619 0.3581878
vt 0.8569619 0.3581878
vt 0.8569619 0.3581878
vt 0.8569619 0.3581878
vt 0.8569619 0.3581878
vt 0.8569619 0.3581878
vt 0.8569619 0.3581878
vt 0.8569619 0.3581878
vt 0.8569619 0.3581878
vt 0.8569619 0.3581878
vt 0.8569619 0.3581878
vt 0.8569619 0.3581878
vt 0.8569619 0.3581878
vt 0.8569619 0.3581878
vt 0.8569619 0.3581878
vt 0.665039 0.4980468
vt 0.665039 0.4980468
vt 0.665039 0.4980468
vt 0.665039 0.4980468
vt 0.665039 0.4980468
vt 0.665039 0.4980468
vt 0.665039 0.4980468
vt 0.665039 0.4980468
vt 0.665039 0.4980468
vt 0.665039 0.4980468
vt 0.665039 0.4980468
vt 0.665039 0.4980468
vt 0.665039 0.4980468
vt 0.665039 0.4980468
vt 0.665039 0.4980468
vt 0.665039 0.4980468
vt 0.665039 0.4980468
vt 0.665039 0.4980468
vt 0.665039 0.4980468
vt 0.665039 0.4980468
vt 0.665039 0.4980468
vt 0.665039 0.4980468
vt 0.665039 0.4980468
vt 0.665039 0.4980468
vt 0.665039 0.4980468
vt 0.665039 0.4980468
vt 0.665039 0.4980468
vt 0.665039 0.4980468
vt 0.665039 0.4980468
vt 0.665039 0.4980468
vt 0.665039 0.4980468
vt 0.665039 0.4980468
vt 0.665039 0.4980468
vt 0.665039 0.4980468
vt 0.665039 0.4980468
vt 0.665039 0.4980468
vt 0.665039 0.4980468
vt 0.665039 0.4980468
vt 0.665039 0.4980468
vt 0.665039 0.4980468
vt 0.665039 0.4980468
vt 0.665039 0.4980468
vt 0.665039 0.4980468
vt 0.665039 0.4980468
vt 0.665039 0.4980468
vt 0.665039 0.4980468
vt 0.665039 0.4980468
vt 0.665039 0.4980468
vt 0.665039 0.4980468
vt 0.665039 0.4980468
vt 0.665039 0.4980468
vt 0.665039 0.4980468
vt 0.665039 0.4980468
vt 0.665039 0.4980468
vt 0.665039 0.4980468
vt 0.665039 0.4980468
vt 0.665039 0.4980468
vt 0.665039 0.4980468
vt 0.665039 0.4980468
vt 0.665039 0.4980468
vt 0.665039 0.4980468
vt 0.665039 0.4980468
vt 0.665039 0.4980468
vt 0.665039 0.4980468
vt 0.665039 0.4980468
vt 0.665039 0.4980468
vt 0.665039 0.4980468
vt 0.665039 0.4980468
vt 0.665039 0.4980468
vt 0.665039 0.4980468
vt 0.665039 0.4980468
vt 0.665039 0.4980468
vt 0.665039 0.4980468
vt 0.665039 0.4980468
vt 0.665039 0.4980468
vt 0.665039 0.4980468
vt 0.665039 0.4980468
vt 0.665039 0.4980468
vt 0.665039 0.4980468
vt 0.665039 0.4980468
vt 0.665039 0.4980468
vt 0.665039 0.4980468
vt 0.665039 0.4980468
vt 0.665039 0.4980468
vt 0.665039 0.4980468
vt 0.665039 0.4980468
vt 0.665039 0.4980468
vt 0.665039 0.4980468
vt 0.665039 0.4980468
vt 0.665039 0.4980468
vt 0.665039 0.4980468
vt 0.665039 0.4980468
vt 0.665039 0.4980468
vt 0.665039 0.4980468
vt 0.665039 0.4980468
vt 0.665039 0.4980468
vt 0.665039 0.4980468
vt 0.665039 0.4980468
vt 0.665039 0.4980468
vt 0.665039 0.4980468
vt 0.665039 0.4980468
vt 0.665039 0.4980468
vt 0.665039 0.4980468
vt 0.665039 0.4980468
vt 0.665039 0.4980468
vt 0.665039 0.4980468
vt 0.665039 0.4980468
vt 0.665039 0.4980468
vt 0.665039 0.4980468
vt 0.665039 0.4980468
vt 0.665039 0.4980468
vt 0.665039 0.4980468
vt 0.665039 0.4980468
vt 0.665039 0.4980468
vt 0.665039 0.4980468
vt 0.665039 0.4980468
vt 0.665039 0.4980468
vt 0.665039 0.4980468
vt 0.665039 0.4980468
vt 0.665039 0.4980468
vt 0.665039 0.4980468
vt 0.665039 0.4980468
vt 0.665039 0.4980468
vt 0.665039 0.4980468
vt 0.665039 0.4980468
vt 0.665039 0.4980468
vt 0.665039 0.4980468
vt 0.665039 0.4980468
vt 0.665039 0.4980468
vt 0.665039 0.4980468
vt 0.665039 0.4980468
vt 0.665039 0.4980468
vt 0.665039 0.4980468
vt 0.665039 0.4980468
vt 0.665039 0.4980468
vt 0.665039 0.4980468
vt 0.665039 0.4980468
vt 0.665039 0.4980468
vt 0.665039 0.4980468
vt 0.665039 0.4980468
vt 0.665039 0.4980468
vt 0.665039 0.4980468
vt 0.665039 0.4980468
vt 0.665039 0.4980468
vt 0.665039 0.4980468
vt 0.665039 0.4980468
vt 0.665039 0.4980468
vt 0.665039 0.4980468
vt 0.665039 0.4980468
vt 0.665039 0.4980468
vt 0.665039 0.4980468
vt 0.665039 0.4980468
vt 0.665039 0.4980468
vt 0.665039 0.4980468
vt 0.665039 0.4980468
vt 0.665039 0.4980468
vt 0.665039 0.4980468
vt 0.665039 0.4980468
vt 0.665039 0.4980468
vt 0.665039 0.4980468
vt 0.665039 0.4980468
vt 0.665039 0.4980468
vt 0.665039 0.4980468
vt 0.665039 0.4980468
vt 0.665039 0.4980468
vt 0.665039 0.4980468
vt 0.665039 0.4980468
vt 0.665039 0.4980468
vt 0.665039 0.4980468
vt 0.665039 0.4980468
vt 0.665039 0.4980468
vt 0.665039 0.4980468
vt 0.665039 0.4980468
vt 0.665039 0.4980468
vt 0.665039 0.4980468
vt 0.665039 0.4980468
vt 0.665039 0.4980468
vt 0.665039 0.4980468
vt 0.665039 0.4980468
vt 0.665039 0.4980468
vt 0.665039 0.4980468
vt 0.665039 0.4980468
vt 0.665039 0.4980468
vt 0.665039 0.4980468
vt 0.665039 0.4980468
vt 0.665039 0.4980468
vt 0.665039 0.4980468
vt 0.665039 0.4980468
vt 0.665039 0.4980468
vt 0.665039 0.4980468
vt 0.665039 0.4980468
vt 0.665039 0.4980468
vt 0.665039 0.4980468
vt 0.665039 0.4980468
vt 0.665039 0.4980468
vt 0.665039 0.4980468
vt 0.665039 0.4980468
vt 0.665039 0.4980468
vt 0.665039 0.4980468
vt 0.665039 0.4980468
vt 0.665039 0.4980468
vt 0.665039 0.4980468
vt 0.665039 0.4980468
vt 0.665039 0.4980468
vt 0.665039 0.4980468
vt 0.665039 0.4980468
vt 0.665039 0.4980468
vt 0.665039 0.4980468
vt 0.665039 0.4980468
vt 0.665039 0.4980468
vt 0.665039 0.4980468
vt 0.665039 0.4980468
vt 0.665039 0.4980468
vt 0.665039 0.4980468
vt 0.665039 0.4980468
vt 0.665039 0.4980468
vt 0.665039 0.4980468
vt 0.665039 0.4980468
vt 0.665039 0.4980468
vt 0.665039 0.4980468
vt 0.665039 0.4980468
vn -0.7071067 0 0.7071068
vn -0.7071067 0 0.7071068
vn -0.7071067 0 0.7071068
vn -0.7071067 0 0.7071068
vn 0.7071068 0 0.7071067
vn 0.7071068 0 0.7071067
vn 0.7071068 0 0.7071067
vn 0.7071068 0 0.7071067
vn -0.7071068 0 -0.7071068
vn -0.7071068 0 -0.7071068
vn -0.7071068 0 -0.7071068
vn -0.7071068 0 -0.7071068
vn 0.7071068 0 -0.7071068
vn 0.7071068 0 -0.7071068
vn 0.7071068 0 -0.7071068
vn 0.7071068 0 -0.7071068
vn 0.07861353 -0.9620238 0.2614004
vn 0.07861353 -0.9620238 0.2614004
vn 0.07861353 -0.9620238 0.2614004
vn 0.532721 -0.7481533 0.3955692
vn 0.532721 -0.7481533 0.3955692
vn 0.532721 -0.7481533 0.3955692
vn -0.3042261 -0.9458475 0.1132211
vn -0.3042261 -0.9458475 0.1132211
vn -0.3042261 -0.9458475 0.1132211
vn -0.3311321 -0.9355353 -0.1229848
vn -0.3311321 -0.9355353 -0.1229848
vn -0.3311321 -0.9355353 -0.1229848
vn -0.04833996 -0.9381306 -0.3428908
vn -0.04833996 -0.9381306 -0.3428908
vn -0.04833996 -0.9381306 -0.3428908
vn -0.05585051 -0.9447402 -0.3230273
vn 0.9694731 -0.131727 0.2068089
vn 0.9694731 -0.131727 0.2068089
vn 0.9694731 -0.131727 0.2068089
vn 0.3600889 -0.5250356 0.7711508
vn 0.3600889 -0.5250356 0.7711508
vn 0.3600889 -0.5250356 0.7711508
vn -0.9265874 -0.1928214 0.3228864
vn -0.9265874 -0.1928214 0.3228864
vn -0.9265874 -0.1928214 0.3228864
vn -0.8484602 -0.1784566 -0.4982654
vn -0.8484602 -0.1784566 -0.4982654
vn -0.8484602 -0.1784566 -0.4982654
vn 0.7406248 -0.4684843 -0.4816608
vn 0.7406248 -0.4684843 -0.4816608
vn 0.7406248 -0.4684843 -0.4816608
vn 0.7404231 -0.4376815 -0.5101065
vn 0.8064952 0.2307091 0.5443701
vn 0.8064952 0.2307091 0.5443701
vn 0.8064952 0.2307091 0.5443701
vn -0.3328988 -0.1673629 0.9279914
vn -0.3328988 -0.1673629 0.9279914
vn -0.3328988 -0.1673629 0.9279914
vn -0.9520738 0.2620617 -0.157731
vn -0.9520738 0.2620617 -0.157731
vn -0.9520738 0.2620617 -0.157731
vn -0.1439624 0.1920112 -0.9707762
vn -0.1439624 0.1920112 -0.9707762
vn -0.1439624 0.1920112 -0.9707762
vn 0.5872625 -0.5721743 -0.5724852
vn 0.5872625 -0.5721743 -0.5724852
vn 0.5872625 -0.5721743 -0.5724852
vn 0.5838919 -0.5477024 -0.5992432
vn 0.3801255 0.5586302 0.7371817
vn 0.3801255 0.5586302 0.7371817
vn 0.3801255 0.5586302 0.7371817
vn 0.3840998 0.5494126 0.7420331
vn -0.3656587 0.6313295 0.6838983
vn -0.3656587 0.6313295 0.6838983
vn -0.3656587 0.6313295 0.6838983
vn -0.7006323 0.7076038 -0.0917128
vn -0.7006323 0.7076038 -0.0917128
vn -0.7006323 0.7076038 -0.0917128
vn 0.1801162 0.6920042 -0.6990624
vn 0.1801162 0.6920042 -0.6990624
vn 0.1801162 0.6920042 -0.6990624
vn 0.6695843 0.726737 -0.1533302
vn 0.6695843 0.726737 -0.1533302
vn 0.6695843 0.726737 -0.1533302
vn 0.3589033 0.9254351 -0.1214833
vn 0.3589033 0.9254351 -0.1214833
vn 0.3589033 0.9254351 -0.1214833
vn 0.5363945 0.8090248 -0.2403327
vn 0.5363945 0.8090248 -0.2403327
vn 0.5363945 0.8090248 -0.2403327
vn 0.4560398 0.6647862 -0.5916815
vn 0.4560398 0.6647862 -0.5916815
vn 0.4560398 0.6647862 -0.5916815
vn 0.2301106 0.9586025 -0.1677207
vn 0.2301106 0.9586025 -0.1677207
vn 0.2301106 0.9586025 -0.1677207
vn 0.117811 0.7359447 -0.6667128
vn 0.117811 0.7359447 -0.6667128
vn 0.117811 0.7359447 -0.6667128
vn -0.5294321 0.5875878 -0.6119169
vn -0.5294321 0.5875878 -0.6119169
vn -0.5294321 0.5875878 -0.6119169
vn -0.1918492 0.9742597 0.1183721
vn -0.1918492 0.9742597 0.1183721
vn -0.1918492 0.9742597 0.1183721
vn -0.6608948 0.7504784 0.0003933585
vn -0.6608948 0.7504784 0.0003933585
vn -0.6608948 0.7504784 0.0003933585
vn -0.7151606 0.6688058 0.203086
vn -0.7151606 0.6688058 0.203086
vn -0.7151606 0.6688058 0.203086
vn -0.04674186 0.9467392 0.3185906
vn -0.04674186 0.9467392 0.3185906
vn -0.04674186 0.9467392 0.3185906
vn -0.2148511 0.7373388 0.6404456
vn -0.2148511 0.7373388 0.6404456
vn -0.2148511 0.7373388 0.6404456
vn 0.1651477 0.5472387 0.8205218
vn 0.1651477 0.5472387 0.8205218
vn 0.1651477 0.5472387 0.8205218
vn 0.2893318 0.9121345 0.2903408
vn 0.2893318 0.9121345 0.2903408
vn 0.2893318 0.9121345 0.2903408
vn 0.4676128 0.7369351 0.4881238
vn 0.4676128 0.7369351 0.4881238
vn 0.4676128 0.7369351 0.4881238
vn 0.4910497 0.7339951 0.469171
vn 0.8839863 0.3808783 -0.2711088
vn 0.8839863 0.3808783 -0.2711088
vn 0.8839863 0.3808783 -0.2711088
vn 0.770447 0.2165191 -0.599609
vn 0.770447 0.2165191 -0.599609
vn 0.770447 0.2165191 -0.599609
vn 0.6260878 0.3225014 -0.7099345
vn 0.6260878 0.3225014 -0.7099345
vn 0.6260878 0.3225014 -0.7099345
vn -0.002978141 0.01383689 -0.9998998
vn -0.002978141 0.01383689 -0.9998998
vn -0.002978141 0.01383689 -0.9998998
vn -0.1819865 -0.031663 -0.9827911
vn -0.1819865 -0.031663 -0.9827911
vn -0.1819865 -0.031663 -0.9827911
vn -0.6183397 0.3392511 -0.708918
vn -0.6183397 0.3392511 -0.708918
vn -0.6183397 0.3392511 -0.708918
vn -0.9431974 0.1665201 -0.2874885
vn -0.9431974 0.1665201 -0.2874885
vn -0.9431974 0.1665201 -0.2874885
vn -0.9852152 0.08271973 -0.1500285
vn -0.9852152 0.08271973 -0.1500285
vn -0.9852152 0.08271973 -0.1500285
vn -0.9181284 0.3119549 0.2443859
vn -0.9181284 0.3119549 0.2443859
vn -0.9181284 0.3119549 0.2443859
vn -0.3638732 0.6755251 0.6412972
vn -0.3638732 0.6755251 0.6412972
vn -0.3638732 0.6755251 0.6412972
vn -0.2218056 0.5632334 0.7959713
vn -0.2218056 0.5632334 0.7959713
vn -0.2218056 0.5632334 0.7959713
vn 0.4102799 0.7064689 0.5766906
vn 0.4102799 0.7064689 0.5766906
vn 0.4102799 0.7064689 0.5766906
vn 0.8306299 0.09008317 0.5494897
vn 0.8306299 0.09008317 0.5494897
vn 0.8306299 0.09008317 0.5494897
vn 0.8190171 0.0717623 0.5692638
vn 0.1313322 -0.09421676 -0.9868511
vn 0.1313322 -0.09421676 -0.9868511
vn 0.1313322 -0.09421676 -0.9868511
vn 0.1286563 -0.004115244 -0.9916807
vn 0.1286563 -0.004115244 -0.9916807
vn 0.1286563 -0.004115244 -0.9916807
vn 0.1641952 0.006618001 -0.9864057
vn -0.9067909 0.1114245 -0.4065894
vn -0.9067909 0.1114245 -0.4065894
vn -0.9067909 0.1114245 -0.4065894
vn -0.8842053 -0.1556769 -0.4403926
vn -0.8842053 -0.1556769 -0.4403926
vn -0.8842053 -0.1556769 -0.4403926
vn -0.7509928 0.06063708 -0.6575204
vn -0.7509928 0.06063708 -0.6575204
vn -0.7509928 0.06063708 -0.6575204
vn -0.9093679 0.2783954 0.3091054
vn -0.9093679 0.2783954 0.3091054
vn -0.9093679 0.2783954 0.3091054
vn -0.9063705 -0.1673352 0.3879323
vn -0.9063705 -0.1673352 0.3879323
vn -0.9063705 -0.1673352 0.3879323
vn -0.5744079 -0.424302 0.7000168
vn -0.5744079 -0.424302 0.7000168
vn -0.5744079 -0.424302 0.7000168
vn 0.475194 0.6782105 0.5605544
vn 0.475194 0.6782105 0.5605544
vn 0.475194 0.6782105 0.5605544
vn 0.5680643 -0.4432947 0.6933922
vn 0.5680643 -0.4432947 0.6933922
vn 0.5680643 -0.4432947 0.6933922
vn 0.05393334 -0.1944864 0.9794214
vn 0.05393334 -0.1944864 0.9794214
vn 0.05393334 -0.1944864 0.9794214
vn 0.9902669 -0.02407052 0.1370843
vn 0.9902669 -0.02407052 0.1370843
vn 0.9902669 -0.02407052 0.1370843
vn 0.9794508 -0.1220092 0.1605923
vn 0.9794508 -0.1220092 0.1605923
vn 0.9794508 -0.1220092 0.1605923
vn -0.2056263 -0.8826823 -0.422599
vn -0.2056263 -0.8826823 -0.422599
vn -0.2056263 -0.8826823 -0.422599
vn -0.5716952 -0.7738993 -0.2724786
vn -0.5716952 -0.7738993 -0.2724786
vn -0.5716952 -0.7738993 -0.2724786
vn -0.5905257 -0.772373 -0.2339218
vn -0.4307128 -0.8447592 -0.3175979
vn -0.4307128 -0.8447592 -0.3175979
vn -0.4307128 -0.8447592 -0.3175979
vn -0.5661967 -0.8041066 0.1812013
vn -0.5661967 -0.8041066 0.1812013
vn -0.5661967 -0.8041066 0.1812013
vn -0.5096226 -0.8245855 0.2456492
vn -0.5096226 -0.8245855 0.2456492
vn -0.5096226 -0.8245855 0.2456492
vn -0.455647 -0.701564 0.5478995
vn -0.455647 -0.701564 0.5478995
vn -0.455647 -0.701564 0.5478995
vn 0.6738563 -0.4540187 -0.5829105
vn 0.6738563 -0.4540187 -0.5829105
vn 0.6738563 -0.4540187 -0.5829105
vn 0.4582306 -0.8753247 0.1543738
vn 0.4582306 -0.8753247 0.1543738
vn 0.4582306 -0.8753247 0.1543738
vn 0.1475822 -0.971974 0.1829917
vn 0.1475822 -0.971974 0.1829917
vn 0.1475822 -0.971974 0.1829917
vn 0.2027218 -0.7731603 0.6009384
vn 0.2027218 -0.7731603 0.6009384
vn 0.2027218 -0.7731603 0.6009384
vn 0.1734187 -0.75634 0.6307739
vn 0.2147664 -0.7369386 0.6409344
vn 0.2147664 -0.7369386 0.6409344
g tree01_0
f 3/3/3 2/2/2 1/1/1
f 4/4/4 3/3/3 1/1/1
f 7/7/7 6/6/6 5/5/5
f 8/8/8 7/7/7 5/5/5
f 11/11/11 10/10/10 9/9/9
f 12/12/12 11/11/11 9/9/9
f 15/15/15 14/14/14 13/13/13
f 16/16/16 15/15/15 13/13/13
f 19/19/19 18/18/18 17/17/17
f 22/22/22 21/21/21 20/20/20
f 25/25/25 24/24/24 23/23/23
f 28/28/28 27/27/27 26/26/26
f 31/31/31 30/30/30 29/29/29
f 31/31/31 32/32/32 30/30/30
f 35/35/35 34/34/34 33/33/33
f 38/38/38 37/37/37 36/36/36
f 41/41/41 40/40/40 39/39/39
f 44/44/44 43/43/43 42/42/42
f 47/47/47 46/46/46 45/45/45
f 47/47/47 45/45/45 48/48/48
f 51/51/51 50/50/50 49/49/49
f 54/54/54 53/53/53 52/52/52
f 57/57/57 56/56/56 55/55/55
f 60/60/60 59/59/59 58/58/58
f 63/63/63 62/62/62 61/61/61
f 61/61/61 62/62/62 64/64/64
f 67/67/67 66/66/66 65/65/65
f 67/67/67 65/65/65 68/68/68
f 71/71/71 70/70/70 69/69/69
f 74/74/74 73/73/73 72/72/72
f 77/77/77 76/76/76 75/75/75
f 80/80/80 79/79/79 78/78/78
f 83/83/83 82/82/82 81/81/81
f 86/86/86 85/85/85 84/84/84
f 89/89/89 88/88/88 87/87/87
f 92/92/92 91/91/91 90/90/90
f 95/95/95 94/94/94 93/93/93
f 98/98/98 97/97/97 96/96/96
f 101/101/101 100/100/100 99/99/99
f 104/104/104 103/103/103 102/102/102
f 107/107/107 106/106/106 105/105/105
f 110/110/110 109/109/109 108/108/108
f 113/113/113 112/112/112 111/111/111
f 116/116/116 115/115/115 114/114/114
f 119/119/119 118/118/118 117/117/117
f 122/122/122 121/121/121 120/120/120
f 123/123/123 121/121/121 122/122/122
f 126/126/126 125/125/125 124/124/124
f 129/129/129 128/128/128 127/127/127
f 132/132/132 131/131/131 130/130/130
f 135/135/135 134/134/134 133/133/133
f 138/138/138 137/137/137 136/136/136
f 141/141/141 140/140/140 139/139/139
f 144/144/144 143/143/143 142/142/142
f 147/147/147 146/146/146 145/145/145
f 150/150/150 149/149/149 148/148/148
f 153/153/153 152/152/152 151/151/151
f 156/156/156 155/155/155 154/154/154
f 159/159/159 158/158/158 157/157/157
f 162/162/162 161/161/161 160/160/160
f 163/163/163 161/161/161 162/162/162
f 166/166/166 165/165/165 164/164/164
f 169/169/169 168/168/168 167/167/167
f 170/170/170 168/168/168 169/169/169
f 173/173/173 172/172/172 171/171/171
f 176/176/176 175/175/175 174/174/174
f 179/179/179 178/178/178 177/177/177
f 182/182/182 181/181/181 180/180/180
f 185/185/185 184/184/184 183/183/183
f 188/188/188 187/187/187 186/186/186
f 191/191/191 190/190/190 189/189/189
f 194/194/194 193/193/193 192/192/192
f 197/197/197 196/196/196 195/195/195
f 200/200/200 199/199/199 198/198/198
f 203/203/203 202/202/202 201/201/201
f 206/206/206 205/205/205 204/204/204
f 209/209/209 208/208/208 207/207/207
f 210/210/210 209/209/209 207/207/207
f 213/213/213 212/212/212 211/211/211
f 216/216/216 215/215/215 214/214/214
f 219/219/219 218/218/218 217/217/217
f 222/222/222 221/221/221 220/220/220
f 225/225/225 224/224/224 223/223/223
f 228/228/228 227/227/227 226/226/226
f 231/231/231 230/230/230 229/229/229
f 234/234/234 233/233/233 232/232/232
f 235/235/235 234/234/234 232/232/232
f 237/237/237 236/236/236 235/235/235
