g Truck
v -1.997772 1.747725 3.353652
v -1.997772 1.747725 -3.353645
v 1.997764 1.747725 -3.353645
v 1.997764 1.747725 3.353652
v 2.173191 1.747725 -3.528893
v -2.173198 1.747725 -3.528893
v -1.997772 3.744148 3.353652
v -2.173198 3.744148 3.5289
v -2.173198 3.744148 -3.528893
v -1.997772 3.744148 -3.353645
v 1.997764 3.744148 3.353652
v 2.173191 3.744148 3.5289
v 1.997764 3.744148 -3.353645
v 2.173191 3.744148 -3.528893
v 2.181442 2.296427 -3.540731
v 2.181442 2.197234 -3.540731
v 2.181442 2.197234 3.542532
v 2.181442 2.296427 3.542532
v 2.182698 2.007099 -1.419465
v 2.182698 2.838672 -0.5878913
v 2.182698 2.660017 -0.5139899
v 2.182698 1.933017 -1.24081
v 2.182698 0.8311288 -1.419465
v 2.182698 0.9050305 -1.24081
v 2.182698 -0.0004448891 -0.5878913
v 2.182698 0.1782107 -0.5139899
v 2.182698 -0.0004448891 0.587899
v 2.182698 0.1782107 0.5139973
v 2.182698 0.8311288 1.419472
v 2.182698 0.9050305 1.240817
v 2.182698 2.007099 1.419472
v 2.182698 1.933017 1.240817
v 2.182698 2.838672 0.587899
v 2.182698 2.660017 0.5139973
v -2.403872 1.11418 -0.1263645
v 2.381264 1.11418 -0.1263645
v 2.381264 1.292835 -0.3048408
v -2.403872 1.292835 -0.3048408
v 2.381264 2.007099 -1.419465
v 2.381264 1.933017 -1.24081
v 2.381264 2.660017 -0.5139899
v 2.381264 2.838672 -0.5878913
v 2.381264 0.8311288 -1.419465
v 2.381264 0.9050305 -1.24081
v 2.381264 -0.0004448891 -0.5878913
v 2.381264 0.1782107 -0.5139899
v 2.381264 -0.0004448891 0.587899
v 2.381264 0.1782107 0.5139973
v 2.381264 0.8311288 1.419472
v 2.381264 0.9050305 1.240817
v 2.381264 2.007099 1.419472
v 2.381264 1.933017 1.240817
v 2.381264 2.838672 0.587899
v 2.381264 2.660017 0.5139973
v 2.381264 1.11418 -0.1263645
v 2.381264 1.11418 0.1263721
v 2.381264 1.292835 0.304848
v 2.381264 1.292835 -0.3048408
v 2.381264 1.545393 -0.3048408
v 2.381264 1.545393 0.304848
v 2.381264 1.724048 -0.1263645
v 2.381264 1.724048 0.1263721
v 2.182698 0.9050305 -1.24081
v 2.381264 0.9050305 -1.24081
v 2.381264 0.1782107 -0.5139899
v 2.182698 0.1782107 -0.5139899
v -2.34432 2.402436 -0.8503144
v -2.34432 2.27275 -0.9800012
v -2.22145 2.27275 -0.9800012
v -2.22145 2.402436 -0.8503144
v 2.182698 0.8311288 -1.419465
v 2.381264 0.8311288 -1.419465
v 2.381264 2.007099 -1.419465
v 2.182698 2.007099 -1.419465
v 2.182698 1.933017 -1.24081
v 2.381264 1.933017 -1.24081
v 2.381264 0.9050305 -1.24081
v 2.182698 0.9050305 -1.24081
v -2.403872 1.292835 -0.3048408
v 2.381264 1.292835 -0.3048408
v 2.381264 1.545393 -0.3048408
v -2.403872 1.545393 -0.3048408
v 2.182698 2.007099 -1.419465
v 2.381264 2.007099 -1.419465
v 2.381264 2.838672 -0.5878913
v 2.182698 2.838672 -0.5878913
v 2.182698 2.838672 -0.5878913
v 2.381264 2.838672 -0.5878913
v 2.381264 2.838672 0.587899
v 2.182698 2.838672 0.587899
v 2.182698 2.660017 -0.5139899
v 2.381264 2.660017 -0.5139899
v 2.381264 1.933017 -1.24081
v 2.182698 1.933017 -1.24081
v -2.403872 1.545393 -0.3048408
v 2.381264 1.545393 -0.3048408
v 2.381264 1.724048 -0.1263645
v -2.403872 1.724048 -0.1263645
v 2.182698 2.660017 0.5139973
v 2.381264 2.660017 0.5139973
v 2.381264 2.660017 -0.5139899
v 2.182698 2.660017 -0.5139899
v 2.182698 2.838672 0.587899
v 2.381264 2.838672 0.587899
v 2.381264 2.007099 1.419472
v 2.182698 2.007099 1.419472
v -2.403872 1.11418 0.1263721
v -2.403872 1.292835 0.304848
v 2.381264 1.292835 0.304848
v 2.381264 1.11418 0.1263721
v 2.182698 1.933017 1.240817
v 2.381264 1.933017 1.240817
v 2.381264 2.660017 0.5139973
v 2.182698 2.660017 0.5139973
v -2.403872 1.724048 0.1263721
v 2.381264 1.724048 0.1263721
v 2.381264 1.545393 0.304848
v -2.403872 1.545393 0.304848
v 2.182698 2.007099 1.419472
v 2.381264 2.007099 1.419472
v 2.381264 0.8311288 1.419472
v 2.182698 0.8311288 1.419472
v 2.182698 0.9050305 1.240817
v 2.381264 0.9050305 1.240817
v 2.381264 1.933017 1.240817
v 2.182698 1.933017 1.240817
v -2.403872 1.545393 0.304848
v 2.381264 1.545393 0.304848
v 2.381264 1.292835 0.304848
v -2.403872 1.292835 0.304848
v 2.182698 0.8311288 1.419472
v 2.381264 0.8311288 1.419472
v 2.381264 -0.0004448891 0.587899
v 2.182698 -0.0004448891 0.587899
v 2.182698 0.1782107 0.5139973
v 2.381264 0.1782107 0.5139973
v 2.381264 0.9050305 1.240817
v 2.182698 0.9050305 1.240817
v -2.403872 1.11418 0.1263721
v 2.381264 1.11418 0.1263721
v 2.381264 1.11418 -0.1263645
v -2.403872 1.11418 -0.1263645
v 2.182698 -0.0004448891 0.587899
v 2.381264 -0.0004448891 0.587899
v 2.381264 -0.0004448891 -0.5878913
v 2.182698 -0.0004448891 -0.5878913
v 2.182698 0.1782107 -0.5139899
v 2.381264 0.1782107 -0.5139899
v 2.381264 0.1782107 0.5139973
v 2.182698 0.1782107 0.5139973
v -2.34432 2.402436 -0.8503144
v -2.382168 1.636155 -0.08995199
v -2.382168 1.50898 -0.2171273
v -2.34432 2.27275 -0.9800012
v 2.182698 -0.0004448891 -0.5878913
v 2.381264 -0.0004448891 -0.5878913
v 2.381264 0.8311288 -1.419465
v 2.182698 0.8311288 -1.419465
v -2.403872 2.007099 -1.419465
v -2.403872 2.838672 -0.5878913
v -2.403872 2.660017 -0.5139899
v -2.403872 1.933017 -1.24081
v -2.403872 0.8311288 -1.419465
v -2.403872 0.9050305 -1.24081
v -2.403872 -0.0004448891 -0.5878913
v -2.403872 0.1782107 -0.5139899
v -2.403872 -0.0004448891 0.587899
v -2.403872 0.1782107 0.5139973
v -2.403872 0.8311288 1.419472
v -2.403872 0.9050305 1.240817
v -2.403872 2.007099 1.419472
v -2.403872 1.933017 1.240817
v -2.403872 2.838672 0.587899
v -2.403872 2.660017 0.5139973
v -2.403872 1.292835 0.304848
v -2.403872 1.11418 0.1263721
v -2.403872 1.11418 -0.1263645
v -2.403872 1.292835 -0.3048408
v -2.403872 1.545393 0.304848
v -2.403872 1.545393 -0.3048408
v -2.403872 1.724048 0.1263721
v -2.403872 1.724048 -0.1263645
v -2.205306 2.007099 -1.419465
v -2.205306 1.933017 -1.24081
v -2.205306 2.660017 -0.5139899
v -2.205306 2.838672 -0.5878913
v -2.205306 0.8311288 -1.419465
v -2.205306 0.9050305 -1.24081
v -2.205306 -0.0004448891 -0.5878913
v -2.205306 0.1782107 -0.5139899
v -2.205306 -0.0004448891 0.587899
v -2.205306 0.1782107 0.5139973
v -2.205306 0.8311288 1.419472
v -2.205306 0.9050305 1.240817
v -2.205306 2.007099 1.419472
v -2.205306 1.933017 1.240817
v -2.205306 2.838672 0.587899
v -2.205306 2.660017 0.5139973
v -2.403872 0.9050305 -1.24081
v -2.205306 0.9050305 -1.24081
v -2.205306 0.1782107 -0.5139899
v -2.403872 0.1782107 -0.5139899
v -2.382168 1.636155 -0.08995199
v -2.347369 1.636155 -0.08995199
v -2.347369 1.50898 -0.2171273
v -2.382168 1.50898 -0.2171273
v -2.403872 0.8311288 -1.419465
v -2.205306 0.8311288 -1.419465
v -2.205306 2.007099 -1.419465
v -2.403872 2.007099 -1.419465
v -2.403872 1.933017 -1.24081
v -2.205306 1.933017 -1.24081
v -2.205306 0.9050305 -1.24081
v -2.403872 0.9050305 -1.24081
v -2.403872 2.007099 -1.419465
v -2.205306 2.007099 -1.419465
v -2.205306 2.838672 -0.5878913
v -2.403872 2.838672 -0.5878913
v -2.403872 2.838672 -0.5878913
v -2.205306 2.838672 -0.5878913
v -2.205306 2.838672 0.587899
v -2.403872 2.838672 0.587899
v -2.403872 2.660017 -0.5139899
v -2.205306 2.660017 -0.5139899
v -2.205306 1.933017 -1.24081
v -2.403872 1.933017 -1.24081
v -2.403872 2.660017 0.5139973
v -2.205306 2.660017 0.5139973
v -2.205306 2.660017 -0.5139899
v -2.403872 2.660017 -0.5139899
v -2.403872 2.838672 0.587899
v -2.205306 2.838672 0.587899
v -2.205306 2.007099 1.419472
v -2.403872 2.007099 1.419472
v -2.403872 1.933017 1.240817
v -2.205306 1.933017 1.240817
v -2.205306 2.660017 0.5139973
v -2.403872 2.660017 0.5139973
v -2.34432 2.27275 -0.9800012
v -2.382168 1.50898 -0.2171273
v -2.347369 1.50898 -0.2171273
v -2.22145 2.27275 -0.9800012
v -2.403872 2.007099 1.419472
v -2.205306 2.007099 1.419472
v -2.205306 0.8311288 1.419472
v -2.403872 0.8311288 1.419472
v -2.403872 0.9050305 1.240817
v -2.205306 0.9050305 1.240817
v -2.205306 1.933017 1.240817
v -2.403872 1.933017 1.240817
v -2.22145 2.27275 -0.9800012
v -2.347369 1.50898 -0.2171273
v -2.347369 1.636155 -0.08995199
v -2.22145 2.402436 -0.8503144
v -2.403872 0.8311288 1.419472
v -2.205306 0.8311288 1.419472
v -2.205306 -0.0004448891 0.587899
v -2.403872 -0.0004448891 0.587899
v -2.403872 0.1782107 0.5139973
v -2.205306 0.1782107 0.5139973
v -2.205306 0.9050305 1.240817
v -2.403872 0.9050305 1.240817
v -2.22145 2.402436 -0.8503144
v -2.347369 1.636155 -0.08995199
v -2.382168 1.636155 -0.08995199
v -2.34432 2.402436 -0.8503144
v -2.403872 -0.0004448891 0.587899
v -2.205306 -0.0004448891 0.587899
v -2.205306 -0.0004448891 -0.5878913
v -2.403872 -0.0004448891 -0.5878913
v -2.403872 0.1782107 -0.5139899
v -2.205306 0.1782107 -0.5139899
v -2.205306 0.1782107 0.5139973
v -2.403872 0.1782107 0.5139973
v -2.403872 1.724048 -0.1263645
v 2.381264 1.724048 -0.1263645
v 2.381264 1.724048 0.1263721
v -2.403872 1.724048 0.1263721
v -2.403872 -0.0004448891 -0.5878913
v -2.205306 -0.0004448891 -0.5878913
v -2.205306 0.8311288 -1.419465
v -2.403872 0.8311288 -1.419465
v -2.34432 1.513105 -1.296595
v -2.34432 1.329786 -1.296595
v -2.22145 1.329786 -1.296595
v -2.22145 1.513105 -1.296595
v -2.34432 1.513105 -1.296595
v -2.382168 1.50898 -0.2171273
v -2.382168 1.329248 -0.2171273
v -2.34432 1.329786 -1.296595
v -2.382168 1.50898 -0.2171273
v -2.347369 1.50898 -0.2171273
v -2.347369 1.329248 -0.2171273
v -2.382168 1.329248 -0.2171273
v -2.34432 1.329786 -1.296595
v -2.382168 1.329248 -0.2171273
v -2.347369 1.329248 -0.2171273
v -2.22145 1.329786 -1.296595
v -2.22145 1.329786 -1.296595
v -2.347369 1.329248 -0.2171273
v -2.347369 1.50898 -0.2171273
v -2.22145 1.513105 -1.296595
v -2.22145 1.513105 -1.296595
v -2.347369 1.50898 -0.2171273
v -2.382168 1.50898 -0.2171273
v -2.34432 1.513105 -1.296595
v -2.34432 0.5687063 -0.9834092
v -2.34432 0.4391985 -0.8537226
v -2.22145 0.4391985 -0.8537226
v -2.22145 0.5687063 -0.9834092
v -2.34432 0.5687063 -0.9834092
v -2.382168 1.329248 -0.2171273
v -2.382168 1.202072 -0.08995199
v -2.34432 0.4391985 -0.8537226
v -2.382168 1.329248 -0.2171273
v -2.347369 1.329248 -0.2171273
v -2.347369 1.202072 -0.08995199
v -2.382168 1.202072 -0.08995199
v -2.34432 0.4391985 -0.8537226
v -2.382168 1.202072 -0.08995199
v -2.347369 1.202072 -0.08995199
v -2.22145 0.4391985 -0.8537226
v -2.22145 0.4391985 -0.8537226
v -2.347369 1.202072 -0.08995199
v -2.347369 1.329248 -0.2171273
v -2.22145 0.5687063 -0.9834092
v -2.22145 0.5687063 -0.9834092
v -2.347369 1.329248 -0.2171273
v -2.382168 1.329248 -0.2171273
v -2.34432 0.5687063 -0.9834092
v -2.34432 0.122426 -0.09407759
v -2.34432 0.122426 0.08924174
v -2.22145 0.122426 0.08924174
v -2.22145 0.122426 -0.09407759
v -2.34432 0.122426 -0.09407759
v -2.382168 1.202072 -0.08995199
v -2.382168 1.202072 0.08995914
v -2.34432 0.122426 0.08924174
v -2.382168 1.202072 -0.08995199
v -2.347369 1.202072 -0.08995199
v -2.347369 1.202072 0.08995914
v -2.382168 1.202072 0.08995914
v -2.34432 0.122426 0.08924174
v -2.382168 1.202072 0.08995914
v -2.347369 1.202072 0.08995914
v -2.22145 0.122426 0.08924174
v -2.22145 0.122426 0.08924174
v -2.347369 1.202072 0.08995914
v -2.347369 1.202072 -0.08995199
v -2.22145 0.122426 -0.09407759
v -2.22145 0.122426 -0.09407759
v -2.347369 1.202072 -0.08995199
v -2.382168 1.202072 -0.08995199
v -2.34432 0.122426 -0.09407759
v -2.34432 0.4357905 0.8503215
v -2.34432 0.5652978 0.9800084
v -2.22145 0.5652978 0.9800084
v -2.22145 0.4357905 0.8503215
v -2.34432 0.4357905 0.8503215
v -2.382168 1.202072 0.08995914
v -2.382168 1.329248 0.217135
v -2.34432 0.5652978 0.9800084
v -2.382168 1.202072 0.08995914
v -2.347369 1.202072 0.08995914
v -2.347369 1.329248 0.217135
v -2.382168 1.329248 0.217135
v -2.34432 0.5652978 0.9800084
v -2.382168 1.329248 0.217135
v -2.347369 1.329248 0.217135
v -2.22145 0.5652978 0.9800084
v -2.22145 0.5652978 0.9800084
v -2.347369 1.329248 0.217135
v -2.347369 1.202072 0.08995914
v -2.22145 0.4357905 0.8503215
v -2.22145 0.4357905 0.8503215
v -2.347369 1.202072 0.08995914
v -2.382168 1.202072 0.08995914
v -2.34432 0.4357905 0.8503215
v -2.34432 1.324943 1.296602
v -2.34432 1.508262 1.296602
v -2.22145 1.508262 1.296602
v -2.22145 1.324943 1.296602
v -2.34432 1.324943 1.296602
v -2.382168 1.329248 0.217135
v -2.382168 1.50898 0.217135
v -2.34432 1.508262 1.296602
v -2.382168 1.329248 0.217135
v -2.347369 1.329248 0.217135
v -2.347369 1.50898 0.217135
v -2.382168 1.50898 0.217135
v -2.34432 1.508262 1.296602
v -2.382168 1.50898 0.217135
v -2.347369 1.50898 0.217135
v -2.22145 1.508262 1.296602
v -2.22145 1.508262 1.296602
v -2.347369 1.50898 0.217135
v -2.347369 1.329248 0.217135
v -2.22145 1.324943 1.296602
v -2.22145 1.324943 1.296602
v -2.347369 1.329248 0.217135
v -2.382168 1.329248 0.217135
v -2.34432 1.324943 1.296602
v -2.34432 2.269342 0.9834168
v -2.34432 2.399029 0.8537295
v -2.22145 2.399029 0.8537295
v -2.22145 2.269342 0.9834168
v -2.34432 2.269342 0.9834168
v -2.382168 1.50898 0.217135
v -2.382168 1.636155 0.08995914
v -2.34432 2.399029 0.8537295
v -2.382168 1.50898 0.217135
v -2.347369 1.50898 0.217135
v -2.347369 1.636155 0.08995914
v -2.382168 1.636155 0.08995914
v -2.34432 2.399029 0.8537295
v -2.382168 1.636155 0.08995914
v -2.347369 1.636155 0.08995914
v -2.22145 2.399029 0.8537295
v -2.22145 2.399029 0.8537295
v -2.347369 1.636155 0.08995914
v -2.347369 1.50898 0.217135
v -2.22145 2.269342 0.9834168
v -2.22145 2.269342 0.9834168
v -2.347369 1.50898 0.217135
v -2.382168 1.50898 0.217135
v -2.34432 2.269342 0.9834168
v -2.34432 2.715622 0.09408474
v -2.34432 2.715622 -0.08923459
v -2.22145 2.715622 -0.08923459
v -2.22145 2.715622 0.09408474
v -2.34432 2.715622 0.09408474
v -2.382168 1.636155 0.08995914
v -2.382168 1.636155 -0.08995199
v -2.34432 2.715622 -0.08923459
v -2.382168 1.636155 0.08995914
v -2.347369 1.636155 0.08995914
v -2.347369 1.636155 -0.08995199
v -2.382168 1.636155 -0.08995199
v -2.34432 2.715622 -0.08923459
v -2.382168 1.636155 -0.08995199
v -2.347369 1.636155 -0.08995199
v -2.22145 2.715622 -0.08923459
v -2.22145 2.715622 -0.08923459
v -2.347369 1.636155 -0.08995199
v -2.347369 1.636155 0.08995914
v -2.22145 2.715622 0.09408474
v -2.22145 2.715622 0.09408474
v -2.347369 1.636155 0.08995914
v -2.382168 1.636155 0.08995914
v -2.34432 2.715622 0.09408474
v 2.319201 2.402436 -0.8503144
v 2.19633 2.402436 -0.8503144
v 2.19633 2.27275 -0.9800012
v 2.319201 2.27275 -0.9800012
v 2.319201 2.402436 -0.8503144
v 2.319201 2.27275 -0.9800012
v 2.357048 1.50898 -0.2171273
v 2.357048 1.636155 -0.08995199
v 2.357048 1.636155 -0.08995199
v 2.357048 1.50898 -0.2171273
v 2.32225 1.50898 -0.2171273
v 2.32225 1.636155 -0.08995199
v 2.319201 2.27275 -0.9800012
v 2.19633 2.27275 -0.9800012
v 2.32225 1.50898 -0.2171273
v 2.357048 1.50898 -0.2171273
v 2.19633 2.27275 -0.9800012
v 2.19633 2.402436 -0.8503144
v 2.32225 1.636155 -0.08995199
v 2.32225 1.50898 -0.2171273
v 2.19633 2.402436 -0.8503144
v 2.319201 2.402436 -0.8503144
v 2.357048 1.636155 -0.08995199
v 2.32225 1.636155 -0.08995199
v 2.319201 1.513105 -1.296595
v 2.19633 1.513105 -1.296595
v 2.19633 1.329786 -1.296595
v 2.319201 1.329786 -1.296595
v 2.319201 1.513105 -1.296595
v 2.319201 1.329786 -1.296595
v 2.357048 1.329248 -0.2171273
v 2.357048 1.50898 -0.2171273
v 2.357048 1.50898 -0.2171273
v 2.357048 1.329248 -0.2171273
v 2.32225 1.329248 -0.2171273
v 2.32225 1.50898 -0.2171273
v 2.319201 1.329786 -1.296595
v 2.19633 1.329786 -1.296595
v 2.32225 1.329248 -0.2171273
v 2.357048 1.329248 -0.2171273
v 2.19633 1.329786 -1.296595
v 2.19633 1.513105 -1.296595
v 2.32225 1.50898 -0.2171273
v 2.32225 1.329248 -0.2171273
v 2.19633 1.513105 -1.296595
v 2.319201 1.513105 -1.296595
v 2.357048 1.50898 -0.2171273
v 2.32225 1.50898 -0.2171273
v 2.319201 0.5687063 -0.9834092
v 2.19633 0.5687063 -0.9834092
v 2.19633 0.4391985 -0.8537226
v 2.319201 0.4391985 -0.8537226
v 2.319201 0.5687063 -0.9834092
v 2.319201 0.4391985 -0.8537226
v 2.357048 1.202072 -0.08995199
v 2.357048 1.329248 -0.2171273
v 2.357048 1.329248 -0.2171273
v 2.357048 1.202072 -0.08995199
v 2.32225 1.202072 -0.08995199
v 2.32225 1.329248 -0.2171273
v 2.319201 0.4391985 -0.8537226
v 2.19633 0.4391985 -0.8537226
v 2.32225 1.202072 -0.08995199
v 2.357048 1.202072 -0.08995199
v 2.19633 0.4391985 -0.8537226
v 2.19633 0.5687063 -0.9834092
v 2.32225 1.329248 -0.2171273
v 2.32225 1.202072 -0.08995199
v 2.19633 0.5687063 -0.9834092
v 2.319201 0.5687063 -0.9834092
v 2.357048 1.329248 -0.2171273
v 2.32225 1.329248 -0.2171273
v 2.319201 0.122426 -0.09407759
v 2.19633 0.122426 -0.09407759
v 2.19633 0.122426 0.08924174
v 2.319201 0.122426 0.08924174
v 2.319201 0.122426 -0.09407759
v 2.319201 0.122426 0.08924174
v 2.357048 1.202072 0.08995914
v 2.357048 1.202072 -0.08995199
v 2.357048 1.202072 -0.08995199
v 2.357048 1.202072 0.08995914
v 2.32225 1.202072 0.08995914
v 2.32225 1.202072 -0.08995199
v 2.319201 0.122426 0.08924174
v 2.19633 0.122426 0.08924174
v 2.32225 1.202072 0.08995914
v 2.357048 1.202072 0.08995914
v 2.19633 0.122426 0.08924174
v 2.19633 0.122426 -0.09407759
v 2.32225 1.202072 -0.08995199
v 2.32225 1.202072 0.08995914
v 2.19633 0.122426 -0.09407759
v 2.319201 0.122426 -0.09407759
v 2.357048 1.202072 -0.08995199
v 2.32225 1.202072 -0.08995199
v 2.319201 0.4357905 0.8503215
v 2.19633 0.4357905 0.8503215
v 2.19633 0.5652978 0.9800084
v 2.319201 0.5652978 0.9800084
v 2.319201 0.4357905 0.8503215
v 2.319201 0.5652978 0.9800084
v 2.357048 1.329248 0.217135
v 2.357048 1.202072 0.08995914
v 2.357048 1.202072 0.08995914
v 2.357048 1.329248 0.217135
v 2.32225 1.329248 0.217135
v 2.32225 1.202072 0.08995914
v 2.319201 0.5652978 0.9800084
v 2.19633 0.5652978 0.9800084
v 2.32225 1.329248 0.217135
v 2.357048 1.329248 0.217135
v 2.19633 0.5652978 0.9800084
v 2.19633 0.4357905 0.8503215
v 2.32225 1.202072 0.08995914
v 2.32225 1.329248 0.217135
v 2.19633 0.4357905 0.8503215
v 2.319201 0.4357905 0.8503215
v 2.357048 1.202072 0.08995914
v 2.32225 1.202072 0.08995914
v 2.319201 1.324943 1.296602
v 2.19633 1.324943 1.296602
v 2.19633 1.508262 1.296602
v 2.319201 1.508262 1.296602
v 2.319201 1.324943 1.296602
v 2.319201 1.508262 1.296602
v 2.357048 1.50898 0.217135
v 2.357048 1.329248 0.217135
v 2.357048 1.329248 0.217135
v 2.357048 1.50898 0.217135
v 2.32225 1.50898 0.217135
v 2.32225 1.329248 0.217135
v 2.319201 1.508262 1.296602
v 2.19633 1.508262 1.296602
v 2.32225 1.50898 0.217135
v 2.357048 1.50898 0.217135
v 2.19633 1.508262 1.296602
v 2.19633 1.324943 1.296602
v 2.32225 1.329248 0.217135
v 2.32225 1.50898 0.217135
v 2.19633 1.324943 1.296602
v 2.319201 1.324943 1.296602
v 2.357048 1.329248 0.217135
v 2.32225 1.329248 0.217135
v 2.319201 2.269342 0.9834168
v 2.19633 2.269342 0.9834168
v 2.19633 2.399029 0.8537295
v 2.319201 2.399029 0.8537295
v 2.319201 2.269342 0.9834168
v 2.319201 2.399029 0.8537295
v 2.357048 1.636155 0.08995914
v 2.357048 1.50898 0.217135
v 2.357048 1.50898 0.217135
v 2.357048 1.636155 0.08995914
v 2.32225 1.636155 0.08995914
v 2.32225 1.50898 0.217135
v 2.319201 2.399029 0.8537295
v 2.19633 2.399029 0.8537295
v 2.32225 1.636155 0.08995914
v 2.357048 1.636155 0.08995914
v 2.19633 2.399029 0.8537295
v 2.19633 2.269342 0.9834168
v 2.32225 1.50898 0.217135
v 2.32225 1.636155 0.08995914
v 2.19633 2.269342 0.9834168
v 2.319201 2.269342 0.9834168
v 2.357048 1.50898 0.217135
v 2.32225 1.50898 0.217135
v 2.319201 2.715622 0.09408474
v 2.19633 2.715622 0.09408474
v 2.19633 2.715622 -0.08923459
v 2.319201 2.715622 -0.08923459
v 2.319201 2.715622 0.09408474
v 2.319201 2.715622 -0.08923459
v 2.357048 1.636155 -0.08995199
v 2.357048 1.636155 0.08995914
v 2.357048 1.636155 0.08995914
v 2.357048 1.636155 -0.08995199
v 2.32225 1.636155 -0.08995199
v 2.32225 1.636155 0.08995914
v 2.319201 2.715622 -0.08923459
v 2.19633 2.715622 -0.08923459
v 2.32225 1.636155 -0.08995199
v 2.357048 1.636155 -0.08995199
v 2.19633 2.715622 -0.08923459
v 2.19633 2.715622 0.09408474
v 2.32225 1.636155 0.08995914
v 2.32225 1.636155 -0.08995199
v 2.19633 2.715622 0.09408474
v 2.319201 2.715622 0.09408474
v 2.357048 1.636155 0.08995914
v 2.32225 1.636155 0.08995914
v -0.2530093 1.378576 7.781118
v 0.2530022 1.378576 7.781118
v 0.2530022 1.378576 2.205844
v -0.2530093 1.378576 2.205844
v -0.2530093 1.378576 8.214483
v 0.2530022 1.378576 8.214483
v -0.9742687 1.378576 7.781118
v -0.9742687 1.378576 8.214483
v 0.974261 1.378576 8.214483
v 0.974261 1.378576 7.781118
v -0.2530093 1.692299 7.781118
v -0.2530093 1.692299 2.205844
v 0.2530022 1.692299 2.205844
v 0.2530022 1.692299 7.781118
v -0.2530093 1.692299 8.214483
v 0.2530022 1.692299 8.214483
v -0.9742687 1.692299 7.781118
v -0.9742687 1.692299 8.214483
v 0.974261 1.692299 8.214483
v 0.974261 1.692299 7.781118
v 0.2530022 1.378576 2.205844
v 0.2530022 1.692299 2.205844
v -0.2530093 1.692299 2.205844
v -0.2530093 1.378576 2.205844
v -0.2530093 1.378576 7.781118
v -0.2530093 1.692299 7.781118
v -0.9742687 1.692299 7.781118
v -0.9742687 1.378576 7.781118
v -0.2530093 1.378576 2.205844
v -0.2530093 1.692299 2.205844
v -0.2530093 1.692299 7.781118
v -0.2530093 1.378576 7.781118
v 0.974261 1.378576 8.214483
v 0.974261 1.692299 8.214483
v 0.974261 1.692299 7.781118
v 0.974261 1.378576 7.781118
v -0.2530093 1.378576 8.214483
v -0.2530093 1.692299 8.214483
v 0.2530022 1.692299 8.214483
v 0.2530022 1.378576 8.214483
v 0.974261 1.692299 8.214483
v 0.974261 1.378576 8.214483
v -0.9742687 1.378576 8.214483
v -0.9742687 1.692299 8.214483
v 0.974261 1.378576 7.781118
v 0.974261 1.692299 7.781118
v 0.2530022 1.692299 7.781118
v 0.2530022 1.378576 7.781118
v -0.9742687 1.378576 7.781118
v -0.9742687 1.692299 7.781118
v -0.9742687 1.692299 8.214483
v -0.9742687 1.378576 8.214483
v 0.2530022 1.378576 7.781118
v 0.2530022 1.692299 7.781118
v 0.2530022 1.692299 2.205844
v 0.2530022 1.378576 2.205844
v -2.173198 1.747725 3.5289
v -2.173198 1.637949 3.5289
v -2.173198 1.637949 -3.528893
v -2.173198 1.747725 -3.528893
v -2.173198 3.744148 -3.528893
v -2.173198 3.744148 3.5289
v -2.173198 1.747725 -3.528893
v -2.173198 1.637949 -3.528893
v 2.173191 1.637949 -3.528893
v 2.173191 1.747725 -3.528893
v 2.173191 1.747725 3.5289
v 2.173191 1.637949 3.5289
v -2.173198 1.637949 3.5289
v -2.173198 1.747725 3.5289
v -2.173198 3.744148 3.5289
v 2.173191 3.744148 3.5289
v 2.173191 1.747725 -3.528893
v 2.173191 1.637949 -3.528893
v 2.173191 1.637949 3.5289
v 2.173191 1.747725 3.5289
v 2.173191 3.744148 -3.528893
v 2.173191 3.744148 3.5289
v -2.173198 1.637949 -3.528893
v -2.173198 1.637949 3.5289
v 2.173191 1.637949 3.5289
v 2.173191 1.637949 -3.528893
v -1.997772 3.744148 3.353652
v -1.997772 1.747725 3.353652
v 1.997764 1.747725 3.353652
v 1.997764 3.744148 3.353652
v -2.173198 3.744148 -3.528893
v -2.173198 1.747725 -3.528893
v -1.997772 1.747725 -3.353645
v -1.997772 3.744148 -3.353645
v -1.997772 1.747725 -3.353645
v -1.997772 1.747725 3.353652
v -1.997772 3.744148 3.353652
v -1.997772 3.744148 -3.353645
v 1.997764 1.747725 3.353652
v 1.997764 1.747725 -3.353645
v 1.997764 3.744148 -3.353645
v 1.997764 3.744148 3.353652
v 1.997764 1.747725 -3.353645
v 2.173191 1.747725 -3.528893
v 2.173191 3.744148 -3.528893
v 1.997764 3.744148 -3.353645
v 2.181442 2.795623 -3.540731
v 2.181442 2.69625 -3.540731
v 2.181442 2.69625 3.542532
v 2.181442 2.795623 3.542532
v 2.181442 3.294639 -3.540731
v 2.181442 3.195446 -3.540731
v 2.181442 3.195446 3.542532
v 2.181442 3.294639 3.542532
v -1.994722 2.296427 3.346657
v -1.994722 2.197234 3.346657
v 1.990051 2.197234 3.346657
v 1.990051 2.296427 3.346657
v -1.994722 2.795623 3.346657
v -1.994722 2.69625 3.346657
v 1.990051 2.69625 3.346657
v 1.990051 2.795623 3.346657
v -1.994722 3.294639 3.346657
v -1.994722 3.195446 3.346657
v 1.990051 3.195446 3.346657
v 1.990051 3.294639 3.346657
v 2.181442 2.296427 3.542532
v 2.181442 2.197234 3.542532
v -2.181628 2.197234 3.542532
v -2.181628 2.296427 3.542532
v 2.181442 2.795623 3.542532
v 2.181442 2.69625 3.542532
v -2.181628 2.69625 3.542532
v -2.181628 2.795623 3.542532
v 2.181442 3.294639 3.542532
v 2.181442 3.195446 3.542532
v -2.181628 3.195446 3.542532
v -2.181628 3.294639 3.542532
v -2.181628 2.296427 -3.540731
v -2.181628 2.197234 -3.540731
v -1.994722 2.197234 -3.365304
v -1.994722 2.296427 -3.365304
v -2.181628 2.795623 -3.540731
v -2.181628 2.69625 -3.540731
v -1.994722 2.69625 -3.365304
v -1.994722 2.795623 -3.365304
v -2.181628 3.294639 -3.540731
v -2.181628 3.195446 -3.540731
v -1.994722 3.195446 -3.365304
v -1.994722 3.294639 -3.365304
v -1.994722 2.296427 -3.365304
v -1.994722 2.197234 -3.365304
v -1.994722 2.197234 3.346657
v -1.994722 2.296427 3.346657
v -1.994722 2.795623 -3.365304
v -1.994722 2.69625 -3.365304
v -1.994722 2.69625 3.346657
v -1.994722 2.795623 3.346657
v -1.994722 3.294639 -3.365304
v -1.994722 3.195446 -3.365304
v -1.994722 3.195446 3.346657
v -1.994722 3.294639 3.346657
v -2.181628 2.296427 3.542532
v -2.181628 2.197234 3.542532
v -2.181628 2.197234 -3.540731
v -2.181628 2.296427 -3.540731
v -2.181628 2.795623 3.542532
v -2.181628 2.69625 3.542532
v -2.181628 2.69625 -3.540731
v -2.181628 2.795623 -3.540731
v -2.181628 3.294639 3.542532
v -2.181628 3.195446 3.542532
v -2.181628 3.195446 -3.540731
v -2.181628 3.294639 -3.540731
v 1.990051 2.296427 3.346657
v 1.990051 2.197234 3.346657
v 1.990051 2.197234 -3.365304
v 1.990051 2.296427 -3.365304
v 1.990051 2.795623 3.346657
v 1.990051 2.69625 3.346657
v 1.990051 2.69625 -3.365304
v 1.990051 2.795623 -3.365304
v 1.990051 3.294639 3.346657
v 1.990051 3.195446 3.346657
v 1.990051 3.195446 -3.365304
v 1.990051 3.294639 -3.365304
v 1.990051 2.296427 -3.365304
v 1.990051 2.197234 -3.365304
v 2.181442 2.197234 -3.540731
v 2.181442 2.296427 -3.540731
v 1.990051 2.795623 -3.365304
v 1.990051 2.69625 -3.365304
v 2.181442 2.69625 -3.540731
v 2.181442 2.795623 -3.540731
v 1.990051 3.294639 -3.365304
v 1.990051 3.195446 -3.365304
v 2.181442 3.195446 -3.540731
v 2.181442 3.294639 -3.540731
vt 0.6254181 0.1930501
vt 0.6254181 0.1930501
vt 0.6254181 0.1930501
vt 0.6254181 0.1930501
vt 0.6254181 0.1930501
vt 0.6254181 0.1930501
vt 0.6254181 0.1930501
vt 0.6254181 0.1930501
vt 0.6254181 0.1930501
vt 0.6254181 0.1930501
vt 0.6254181 0.1930501
vt 0.6254181 0.1930501
vt 0.6254181 0.1930501
vt 0.6254181 0.1930501
vt 0.6348311 0.178617
vt 0.6348311 0.178617
vt 0.6348311 0.178617
vt 0.6348311 0.178617
vt 0.6454991 0.003536207
vt 0.6454991 0.003536207
vt 0.6454991 0.003536207
vt 0.6454991 0.003536207
vt 0.6454991 0.003536207
vt 0.6454991 0.003536207
vt 0.6454991 0.003536207
vt 0.6454991 0.003536207
vt 0.6454991 0.003536207
vt 0.6454991 0.003536207
vt 0.6454991 0.003536207
vt 0.6454991 0.003536207
vt 0.6454991 0.003536207
vt 0.6454991 0.003536207
vt 0.6454991 0.003536207
vt 0.6454991 0.003536207
vt 0.6454991 0.003536207
vt 0.6454991 0.003536207
vt 0.6454991 0.003536207
vt 0.6454991 0.003536207
vt 0.6454991 0.003536207
vt 0.6454991 0.003536207
vt 0.6454991 0.003536207
vt 0.6454991 0.003536207
vt 0.6454991 0.003536207
vt 0.6454991 0.003536207
vt 0.6454991 0.003536207
vt 0.6454991 0.003536207
vt 0.6454991 0.003536207
vt 0.6454991 0.003536207
vt 0.6454991 0.003536207
vt 0.6454991 0.003536207
vt 0.6454991 0.003536207
vt 0.6454991 0.003536207
vt 0.6454991 0.003536207
vt 0.6454991 0.003536207
vt 0.6454991 0.003536207
vt 0.6454991 0.003536207
vt 0.6454991 0.003536207
vt 0.6454991 0.003536207
vt 0.6454991 0.003536207
vt 0.6454991 0.003536207
vt 0.6454991 0.003536207
vt 0.6454991 0.003536207
vt 0.6454991 0.003536207
vt 0.6454991 0.003536207
vt 0.6454991 0.003536207
vt 0.6454991 0.003536207
vt 0.6454991 0.003536207
vt 0.6454991 0.003536207
vt 0.6454991 0.003536207
vt 0.6454991 0.003536207
vt 0.6454991 0.003536207
vt 0.6454991 0.003536207
vt 0.6454991 0.003536207
vt 0.6454991 0.003536207
vt 0.6454991 0.003536207
vt 0.6454991 0.003536207
vt 0.6454991 0.003536207
vt 0.6454991 0.003536207
vt 0.6454991 0.003536207
vt 0.6454991 0.003536207
vt 0.6454991 0.003536207
vt 0.6454991 0.003536207
vt 0.6454991 0.003536207
vt 0.6454991 0.003536207
vt 0.6454991 0.003536207
vt 0.6454991 0.003536207
vt 0.6454991 0.003536207
vt 0.6454991 0.003536207
vt 0.6454991 0.003536207
vt 0.6454991 0.003536207
vt 0.6454991 0.003536207
vt 0.6454991 0.003536207
vt 0.6454991 0.003536207
vt 0.6454991 0.003536207
vt 0.6454991 0.003536207
vt 0.6454991 0.003536207
vt 0.6454991 0.003536207
vt 0.6454991 0.003536207
vt 0.6454991 0.003536207
vt 0.6454991 0.003536207
vt 0.6454991 0.003536207
vt 0.6454991 0.003536207
vt 0.6454991 0.003536207
vt 0.6454991 0.003536207
vt 0.6454991 0.003536207
vt 0.6454991 0.003536207
vt 0.6454991 0.003536207
vt 0.6454991 0.003536207
vt 0.6454991 0.003536207
vt 0.6454991 0.003536207
vt 0.6454991 0.003536207
vt 0.6454991 0.003536207
vt 0.6454991 0.003536207
vt 0.6454991 0.003536207
vt 0.6454991 0.003536207
vt 0.6454991 0.003536207
vt 0.6454991 0.003536207
vt 0.6454991 0.003536207
vt 0.6454991 0.003536207
vt 0.6454991 0.003536207
vt 0.6454991 0.003536207
vt 0.6454991 0.003536207
vt 0.6454991 0.003536207
vt 0.6454991 0.003536207
vt 0.6454991 0.003536207
vt 0.6454991 0.003536207
vt 0.6454991 0.003536207
vt 0.6454991 0.003536207
vt 0.6454991 0.003536207
vt 0.6454991 0.003536207
vt 0.6454991 0.003536207
vt 0.6454991 0.003536207
vt 0.6454991 0.003536207
vt 0.6454991 0.003536207
vt 0.6454991 0.003536207
vt 0.6454991 0.003536207
vt 0.6454991 0.003536207
vt 0.6454991 0.003536207
vt 0.6454991 0.003536207
vt 0.6454991 0.003536207
vt 0.6454991 0.003536207
vt 0.6454991 0.003536207
vt 0.6454991 0.003536207
vt 0.6454991 0.003536207
vt 0.6454991 0.003536207
vt 0.6454991 0.003536207
vt 0.6454991 0.003536207
vt 0.6454991 0.003536207
vt 0.6454991 0.003536207
vt 0.6454991 0.003536207
vt 0.6454991 0.003536207
vt 0.6454991 0.003536207
vt 0.6454991 0.003536207
vt 0.6454991 0.003536207
vt 0.6454991 0.003536207
vt 0.6454991 0.003536207
vt 0.6454991 0.003536207
vt 0.6454991 0.003536207
vt 0.6454991 0.003536207
vt 0.6454991 0.003536207
vt 0.6454991 0.003536207
vt 0.6454991 0.003536207
vt 0.6454991 0.003536207
vt 0.6454991 0.003536207
vt 0.6454991 0.003536207
vt 0.6454991 0.003536207
vt 0.6454991 0.003536207
vt 0.6454991 0.003536207
vt 0.6454991 0.003536207
vt 0.6454991 0.003536207
vt 0.6454991 0.003536207
vt 0.6454991 0.003536207
vt 0.6454991 0.003536207
vt 0.6454991 0.003536207
vt 0.6454991 0.003536207
vt 0.6454991 0.003536207
vt 0.6454991 0.003536207
vt 0.6454991 0.003536207
vt 0.6454991 0.003536207
vt 0.6454991 0.003536207
vt 0.6454991 0.003536207
vt 0.6454991 0.003536207
vt 0.6454991 0.003536207
vt 0.6454991 0.003536207
vt 0.6454991 0.003536207
vt 0.6454991 0.003536207
vt 0.6454991 0.003536207
vt 0.6454991 0.003536207
vt 0.6454991 0.003536207
vt 0.6454991 0.003536207
vt 0.6454991 0.003536207
vt 0.6454991 0.003536207
vt 0.6454991 0.003536207
vt 0.6454991 0.003536207
vt 0.6454991 0.003536207
vt 0.6454991 0.003536207
vt 0.6454991 0.003536207
vt 0.6454991 0.003536207
vt 0.6454991 0.003536207
vt 0.6454991 0.003536207
vt 0.6454991 0.003536207
vt 0.6454991 0.003536207
vt 0.6454991 0.003536207
vt 0.6454991 0.003536207
vt 0.6454991 0.003536207
vt 0.6454991 0.003536207
vt 0.6454991 0.003536207
vt 0.6454991 0.003536207
vt 0.6454991 0.003536207
vt 0.6454991 0.003536207
vt 0.6454991 0.003536207
vt 0.6454991 0.003536207
vt 0.6454991 0.003536207
vt 0.6454991 0.003536207
vt 0.6454991 0.003536207
vt 0.6454991 0.003536207
vt 0.6454991 0.003536207
vt 0.6454991 0.003536207
vt 0.6454991 0.003536207
vt 0.6454991 0.003536207
vt 0.6454991 0.003536207
vt 0.6454991 0.003536207
vt 0.6454991 0.003536207
vt 0.6454991 0.003536207
vt 0.6454991 0.003536207
vt 0.6454991 0.003536207
vt 0.6454991 0.003536207
vt 0.6454991 0.003536207
vt 0.6454991 0.003536207
vt 0.6454991 0.003536207
vt 0.6454991 0.003536207
vt 0.6454991 0.003536207
vt 0.6454991 0.003536207
vt 0.6454991 0.003536207
vt 0.6454991 0.003536207
vt 0.6454991 0.003536207
vt 0.6454991 0.003536207
vt 0.6454991 0.003536207
vt 0.6454991 0.003536207
vt 0.6454991 0.003536207
vt 0.6454991 0.003536207
vt 0.6454991 0.003536207
vt 0.6454991 0.003536207
vt 0.6454991 0.003536207
vt 0.6454991 0.003536207
vt 0.6454991 0.003536207
vt 0.6454991 0.003536207
vt 0.6454991 0.003536207
vt 0.6454991 0.003536207
vt 0.6454991 0.003536207
vt 0.6454991 0.003536207
vt 0.6454991 0.003536207
vt 0.6454991 0.003536207
vt 0.6454991 0.003536207
vt 0.6454991 0.003536207
vt 0.6454991 0.003536207
vt 0.6454991 0.003536207
vt 0.6454991 0.003536207
vt 0.6454991 0.003536207
vt 0.6454991 0.003536207
vt 0.6454991 0.003536207
vt 0.6454991 0.003536207
vt 0.6454991 0.003536207
vt 0.6454991 0.003536207
vt 0.6454991 0.003536207
vt 0.6454991 0.003536207
vt 0.6454991 0.003536207
vt 0.6454991 0.003536207
vt 0.6454991 0.003536207
vt 0.6454991 0.003536207
vt 0.6454991 0.003536207
vt 0.6454991 0.003536207
vt 0.6454991 0.003536207
vt 0.6454991 0.003536207
vt 0.6454991 0.003536207
vt 0.6454991 0.003536207
vt 0.6454991 0.003536207
vt 0.6454991 0.003536207
vt 0.6454991 0.003536207
vt 0.6454991 0.003536207
vt 0.6454991 0.003536207
vt 0.6454991 0.003536207
vt 0.6454991 0.003536207
vt 0.6454991 0.003536207
vt 0.6454991 0.003536207
vt 0.6454991 0.003536207
vt 0.6454991 0.003536207
vt 0.6454991 0.003536207
vt 0.6454991 0.003536207
vt 0.6454991 0.003536207
vt 0.6454991 0.003536207
vt 0.6454991 0.003536207
vt 0.6454991 0.003536207
vt 0.6454991 0.003536207
vt 0.6454991 0.003536207
vt 0.6454991 0.003536207
vt 0.6454991 0.003536207
vt 0.6454991 0.003536207
vt 0.6454991 0.003536207
vt 0.6454991 0.003536207
vt 0.6454991 0.003536207
vt 0.6454991 0.003536207
vt 0.6454991 0.003536207
vt 0.6454991 0.003536207
vt 0.6454991 0.003536207
vt 0.6454991 0.003536207
vt 0.6454991 0.003536207
vt 0.6454991 0.003536207
vt 0.6454991 0.003536207
vt 0.6454991 0.003536207
vt 0.6454991 0.003536207
vt 0.6454991 0.003536207
vt 0.6454991 0.003536207
vt 0.6454991 0.003536207
vt 0.6454991 0.003536207
vt 0.6454991 0.003536207
vt 0.6454991 0.003536207
vt 0.6454991 0.003536207
vt 0.6454991 0.003536207
vt 0.6454991 0.003536207
vt 0.6454991 0.003536207
vt 0.6454991 0.003536207
vt 0.6454991 0.003536207
vt 0.6454991 0.003536207
vt 0.6454991 0.003536207
vt 0.6454991 0.003536207
vt 0.6454991 0.003536207
vt 0.6454991 0.003536207
vt 0.6454991 0.003536207
vt 0.6454991 0.003536207
vt 0.6454991 0.003536207
vt 0.6454991 0.003536207
vt 0.6454991 0.003536207
vt 0.6454991 0.003536207
vt 0.6454991 0.003536207
vt 0.6454991 0.003536207
vt 0.6454991 0.003536207
vt 0.6454991 0.003536207
vt 0.6454991 0.003536207
vt 0.6454991 0.003536207
vt 0.6454991 0.003536207
vt 0.6454991 0.003536207
vt 0.6454991 0.003536207
vt 0.6454991 0.003536207
vt 0.6454991 0.003536207
vt 0.6454991 0.003536207
vt 0.6454991 0.003536207
vt 0.6454991 0.003536207
vt 0.6454991 0.003536207
vt 0.6454991 0.003536207
vt 0.6454991 0.003536207
vt 0.6454991 0.003536207
vt 0.6454991 0.003536207
vt 0.6454991 0.003536207
vt 0.6454991 0.003536207
vt 0.6454991 0.003536207
vt 0.6454991 0.003536207
vt 0.6454991 0.003536207
vt 0.6454991 0.003536207
vt 0.6454991 0.003536207
vt 0.6454991 0.003536207
vt 0.6454991 0.003536207
vt 0.6454991 0.003536207
vt 0.6454991 0.003536207
vt 0.6454991 0.003536207
vt 0.6454991 0.003536207
vt 0.6454991 0.003536207
vt 0.6454991 0.003536207
vt 0.6454991 0.003536207
vt 0.6454991 0.003536207
vt 0.6454991 0.003536207
vt 0.6454991 0.003536207
vt 0.6454991 0.003536207
vt 0.6454991 0.003536207
vt 0.6454991 0.003536207
vt 0.6454991 0.003536207
vt 0.6454991 0.003536207
vt 0.6454991 0.003536207
vt 0.6454991 0.003536207
vt 0.6454991 0.003536207
vt 0.6454991 0.003536207
vt 0.6454991 0.003536207
vt 0.6454991 0.003536207
vt 0.6454991 0.003536207
vt 0.6454991 0.003536207
vt 0.6454991 0.003536207
vt 0.6454991 0.003536207
vt 0.6454991 0.003536207
vt 0.6454991 0.003536207
vt 0.6454991 0.003536207
vt 0.6454991 0.003536207
vt 0.6454991 0.003536207
vt 0.6454991 0.003536207
vt 0.6454991 0.003536207
vt 0.6454991 0.003536207
vt 0.6454991 0.003536207
vt 0.6454991 0.003536207
vt 0.6454991 0.003536207
vt 0.6454991 0.003536207
vt 0.6454991 0.003536207
vt 0.6454991 0.003536207
vt 0.6454991 0.003536207
vt 0.6454991 0.003536207
vt 0.6454991 0.003536207
vt 0.6454991 0.003536207
vt 0.6454991 0.003536207
vt 0.6454991 0.003536207
vt 0.6454991 0.003536207
vt 0.6454991 0.003536207
vt 0.6454991 0.003536207
vt 0.6454991 0.003536207
vt 0.6454991 0.003536207
vt 0.6454991 0.003536207
vt 0.6454991 0.003536207
vt 0.6454991 0.003536207
vt 0.6454991 0.003536207
vt 0.6454991 0.003536207
vt 0.6454991 0.003536207
vt 0.6454991 0.003536207
vt 0.6454991 0.003536207
vt 0.6454991 0.003536207
vt 0.6454991 0.003536207
vt 0.6454991 0.003536207
vt 0.6454991 0.003536207
vt 0.6454991 0.003536207
vt 0.6454991 0.003536207
vt 0.6454991 0.003536207
vt 0.6454991 0.003536207
vt 0.6454991 0.003536207
vt 0.6454991 0.003536207
vt 0.6454991 0.003536207
vt 0.6454991 0.003536207
vt 0.6454991 0.003536207
vt 0.6454991 0.003536207
vt 0.6454991 0.003536207
vt 0.6454991 0.003536207
vt 0.6454991 0.003536207
vt 0.6454991 0.003536207
vt 0.6454991 0.003536207
vt 0.6454991 0.003536207
vt 0.6454991 0.003536207
vt 0.6454991 0.003536207
vt 0.6454991 0.003536207
vt 0.6454991 0.003536207
vt 0.6454991 0.003536207
vt 0.6454991 0.003536207
vt 0.6454991 0.003536207
vt 0.6454991 0.003536207
vt 0.6454991 0.003536207
vt 0.6454991 0.003536207
vt 0.6454991 0.003536207
vt 0.6454991 0.003536207
vt 0.6454991 0.003536207
vt 0.6454991 0.003536207
vt 0.6454991 0.003536207
vt 0.6454991 0.003536207
vt 0.6454991 0.003536207
vt 0.6454991 0.003536207
vt 0.6454991 0.003536207
vt 0.6454991 0.003536207
vt 0.6454991 0.003536207
vt 0.6454991 0.003536207
vt 0.6454991 0.003536207
vt 0.6454991 0.003536207
vt 0.6454991 0.003536207
vt 0.6454991 0.003536207
vt 0.6454991 0.003536207
vt 0.6454991 0.003536207
vt 0.6454991 0.003536207
vt 0.6454991 0.003536207
vt 0.6454991 0.003536207
vt 0.6454991 0.003536207
vt 0.6454991 0.003536207
vt 0.6454991 0.003536207
vt 0.6454991 0.003536207
vt 0.6454991 0.003536207
vt 0.6454991 0.003536207
vt 0.6454991 0.003536207
vt 0.6454991 0.003536207
vt 0.6454991 0.003536207
vt 0.6454991 0.003536207
vt 0.6454991 0.003536207
vt 0.6454991 0.003536207
vt 0.6454991 0.003536207
vt 0.6454991 0.003536207
vt 0.6454991 0.003536207
vt 0.6454991 0.003536207
vt 0.6454991 0.003536207
vt 0.6454991 0.003536207
vt 0.6454991 0.003536207
vt 0.6454991 0.003536207
vt 0.6454991 0.003536207
vt 0.6454991 0.003536207
vt 0.6454991 0.003536207
vt 0.6454991 0.003536207
vt 0.6454991 0.003536207
vt 0.6454991 0.003536207
vt 0.6454991 0.003536207
vt 0.6454991 0.003536207
vt 0.6454991 0.003536207
vt 0.6454991 0.003536207
vt 0.6454991 0.003536207
vt 0.6454991 0.003536207
vt 0.6454991 0.003536207
vt 0.6454991 0.003536207
vt 0.6454991 0.003536207
vt 0.6454991 0.003536207
vt 0.6454991 0.003536207
vt 0.6454991 0.003536207
vt 0.6454991 0.003536207
vt 0.6454991 0.003536207
vt 0.6454991 0.003536207
vt 0.6454991 0.003536207
vt 0.6454991 0.003536207
vt 0.6454991 0.003536207
vt 0.6454991 0.003536207
vt 0.6454991 0.003536207
vt 0.6454991 0.003536207
vt 0.6454991 0.003536207
vt 0.6454991 0.003536207
vt 0.6454991 0.003536207
vt 0.6454991 0.003536207
vt 0.6454991 0.003536207
vt 0.6454991 0.003536207
vt 0.6454991 0.003536207
vt 0.6454991 0.003536207
vt 0.6454991 0.003536207
vt 0.6454991 0.003536207
vt 0.6454991 0.003536207
vt 0.6454991 0.003536207
vt 0.6454991 0.003536207
vt 0.6454991 0.003536207
vt 0.6454991 0.003536207
vt 0.6454991 0.003536207
vt 0.6454991 0.003536207
vt 0.6454991 0.003536207
vt 0.6454991 0.003536207
vt 0.6454991 0.003536207
vt 0.6454991 0.003536207
vt 0.6454991 0.003536207
vt 0.6454991 0.003536207
vt 0.6454991 0.003536207
vt 0.6454991 0.003536207
vt 0.6454991 0.003536207
vt 0.6454991 0.003536207
vt 0.6454991 0.003536207
vt 0.6454991 0.003536207
vt 0.6454991 0.003536207
vt 0.6454991 0.003536207
vt 0.6454991 0.003536207
vt 0.6454991 0.003536207
vt 0.6454991 0.003536207
vt 0.6454991 0.003536207
vt 0.6454991 0.003536207
vt 0.6454991 0.003536207
vt 0.6454991 0.003536207
vt 0.6454991 0.003536207
vt 0.6454991 0.003536207
vt 0.6454991 0.003536207
vt 0.6454991 0.003536207
vt 0.6454991 0.003536207
vt 0.6454991 0.003536207
vt 0.6454991 0.003536207
vt 0.6454991 0.003536207
vt 0.6454991 0.003536207
vt 0.6454991 0.003536207
vt 0.6454991 0.003536207
vt 0.6454991 0.003536207
vt 0.6454991 0.003536207
vt 0.6454991 0.003536207
vt 0.6454991 0.003536207
vt 0.6454991 0.003536207
vt 0.6454991 0.003536207
vt 0.6454991 0.003536207
vt 0.6454991 0.003536207
vt 0.6454991 0.003536207
vt 0.6454991 0.003536207
vt 0.6454991 0.003536207
vt 0.6454991 0.003536207
vt 0.6454991 0.003536207
vt 0.6454991 0.003536207
vt 0.6454991 0.003536207
vt 0.6454991 0.003536207
vt 0.6454991 0.003536207
vt 0.6454991 0.003536207
vt 0.6454991 0.003536207
vt 0.6454991 0.003536207
vt 0.6454991 0.003536207
vt 0.6454991 0.003536207
vt 0.6454991 0.003536207
vt 0.6454991 0.003536207
vt 0.6454991 0.003536207
vt 0.6454991 0.003536207
vt 0.6454991 0.003536207
vt 0.6454991 0.003536207
vt 0.6454991 0.003536207
vt 0.6454991 0.003536207
vt 0.6454991 0.003536207
vt 0.6454991 0.003536207
vt 0.6454991 0.003536207
vt 0.6454991 0.003536207
vt 0.6454991 0.003536207
vt 0.6454991 0.003536207
vt 0.6454991 0.003536207
vt 0.6454991 0.003536207
vt 0.6454991 0.003536207
vt 0.6454991 0.003536207
vt 0.6454991 0.003536207
vt 0.6454991 0.003536207
vt 0.6454991 0.003536207
vt 0.6454991 0.003536207
vt 0.6454991 0.003536207
vt 0.6454991 0.003536207
vt 0.6454991 0.003536207
vt 0.6454991 0.003536207
vt 0.6454991 0.003536207
vt 0.6454991 0.003536207
vt 0.6454991 0.003536207
vt 0.6454991 0.003536207
vt 0.6454991 0.003536207
vt 0.6454991 0.003536207
vt 0.6454991 0.003536207
vt 0.6454991 0.003536207
vt 0.6454991 0.003536207
vt 0.6454991 0.003536207
vt 0.6454991 0.003536207
vt 0.6454991 0.003536207
vt 0.6454991 0.003536207
vt 0.6454991 0.003536207
vt 0.6454991 0.003536207
vt 0.6454991 0.003536207
vt 0.6454991 0.003536207
vt 0.6454991 0.003536207
vt 0.6454991 0.003536207
vt 0.6454991 0.003536207
vt 0.6454991 0.003536207
vt 0.6454991 0.003536207
vt 0.6454991 0.003536207
vt 0.6454991 0.003536207
vt 0.6454991 0.003536207
vt 0.6454991 0.003536207
vt 0.6454991 0.003536207
vt 0.6348311 0.1804996
vt 0.6348311 0.1804996
vt 0.6348311 0.1804996
vt 0.6348311 0.1804996
vt 0.6348311 0.1804996
vt 0.6348311 0.1804996
vt 0.6348311 0.1804996
vt 0.6348311 0.1804996
vt 0.6348311 0.1804996
vt 0.6348311 0.1804996
vt 0.6348311 0.1804996
vt 0.6348311 0.1804996
vt 0.6348311 0.1804996
vt 0.6348311 0.1804996
vt 0.6348311 0.1804996
vt 0.6348311 0.1804996
vt 0.6348311 0.1804996
vt 0.6348311 0.1804996
vt 0.6348311 0.1804996
vt 0.6348311 0.1804996
vt 0.6348311 0.1804996
vt 0.6348311 0.1804996
vt 0.6348311 0.1804996
vt 0.6348311 0.1804996
vt 0.6348311 0.1804996
vt 0.6348311 0.1804996
vt 0.6348311 0.1804996
vt 0.6348311 0.1804996
vt 0.6348311 0.1804996
vt 0.6348311 0.1804996
vt 0.6348311 0.1804996
vt 0.6348311 0.1804996
vt 0.6348311 0.1804996
vt 0.6348311 0.1804996
vt 0.6348311 0.1804996
vt 0.6348311 0.1804996
vt 0.6348311 0.1804996
vt 0.6348311 0.1804996
vt 0.6348311 0.1804996
vt 0.6348311 0.1804996
vt 0.6348311 0.1804996
vt 0.6348311 0.1804996
vt 0.6348311 0.1804996
vt 0.6348311 0.1804996
vt 0.6348311 0.1804996
vt 0.6348311 0.1804996
vt 0.6348311 0.1804996
vt 0.6348311 0.1804996
vt 0.6348311 0.1804996
vt 0.6348311 0.1804996
vt 0.6348311 0.1804996
vt 0.6348311 0.1804996
vt 0.6348311 0.1804996
vt 0.6348311 0.1804996
vt 0.6348311 0.1804996
vt 0.6348311 0.1804996
vt 0.6254181 0.1930501
vt 0.6254181 0.1930501
vt 0.6254181 0.1930501
vt 0.6254181 0.1930501
vt 0.6254181 0.1930501
vt 0.6254181 0.1930501
vt 0.6254181 0.1930501
vt 0.6254181 0.1930501
vt 0.6254181 0.1930501
vt 0.6254181 0.1930501
vt 0.6254181 0.1930501
vt 0.6254181 0.1930501
vt 0.6254181 0.1930501
vt 0.6254181 0.1930501
vt 0.6254181 0.1930501
vt 0.6254181 0.1930501
vt 0.6254181 0.1930501
vt 0.6254181 0.1930501
vt 0.6254181 0.1930501
vt 0.6254181 0.1930501
vt 0.6254181 0.1930501
vt 0.6254181 0.1930501
vt 0.6254181 0.1930501
vt 0.6254181 0.1930501
vt 0.6254181 0.1930501
vt 0.6254181 0.1930501
vt 0.6254181 0.1930501
vt 0.6254181 0.1930501
vt 0.6254181 0.1930501
vt 0.6254181 0.1930501
vt 0.6254181 0.1930501
vt 0.6254181 0.1930501
vt 0.6254181 0.1930501
vt 0.6254181 0.1930501
vt 0.6254181 0.1930501
vt 0.6254181 0.1930501
vt 0.6254181 0.1930501
vt 0.6254181 0.1930501
vt 0.6254181 0.1930501
vt 0.6254181 0.1930501
vt 0.6254181 0.1930501
vt 0.6254181 0.1930501
vt 0.6254181 0.1930501
vt 0.6254181 0.1930501
vt 0.6254181 0.1930501
vt 0.6254181 0.1930501
vt 0.6348311 0.178617
vt 0.6348311 0.178617
vt 0.6348311 0.178617
vt 0.6348311 0.178617
vt 0.6348311 0.178617
vt 0.6348311 0.178617
vt 0.6348311 0.178617
vt 0.6348311 0.178617
vt 0.6348311 0.178617
vt 0.6348311 0.178617
vt 0.6348311 0.178617
vt 0.6348311 0.178617
vt 0.6348311 0.178617
vt 0.6348311 0.178617
vt 0.6348311 0.178617
vt 0.6348311 0.178617
vt 0.6348311 0.178617
vt 0.6348311 0.178617
vt 0.6348311 0.178617
vt 0.6348311 0.178617
vt 0.6348311 0.178617
vt 0.6348311 0.178617
vt 0.6348311 0.178617
vt 0.6348311 0.178617
vt 0.6348311 0.178617
vt 0.6348311 0.178617
vt 0.6348311 0.178617
vt 0.6348311 0.178617
vt 0.6348311 0.178617
vt 0.6348311 0.178617
vt 0.6348311 0.178617
vt 0.6348311 0.178617
vt 0.6348311 0.178617
vt 0.6348311 0.178617
vt 0.6348311 0.178617
vt 0.6348311 0.178617
vt 0.6348311 0.178617
vt 0.6348311 0.178617
vt 0.6348311 0.178617
vt 0.6348311 0.178617
vt 0.6348311 0.178617
vt 0.6348311 0.178617
vt 0.6348311 0.178617
vt 0.6348311 0.178617
vt 0.6348311 0.178617
vt 0.6348311 0.178617
vt 0.6348311 0.178617
vt 0.6348311 0.178617
vt 0.6348311 0.178617
vt 0.6348311 0.178617
vt 0.6348311 0.178617
vt 0.6348311 0.178617
vt 0.6348311 0.178617
vt 0.6348311 0.178617
vt 0.6348311 0.178617
vt 0.6348311 0.178617
vt 0.6348311 0.178617
vt 0.6348311 0.178617
vt 0.6348311 0.178617
vt 0.6348311 0.178617
vt 0.6348311 0.178617
vt 0.6348311 0.178617
vt 0.6348311 0.178617
vt 0.6348311 0.178617
vt 0.6348311 0.178617
vt 0.6348311 0.178617
vt 0.6348311 0.178617
vt 0.6348311 0.178617
vt 0.6348311 0.178617
vt 0.6348311 0.178617
vt 0.6348311 0.178617
vt 0.6348311 0.178617
vt 0.6348311 0.178617
vt 0.6348311 0.178617
vt 0.6348311 0.178617
vt 0.6348311 0.178617
vt 0.6348311 0.178617
vt 0.6348311 0.178617
vt 0.6348311 0.178617
vt 0.6348311 0.178617
vt 0.6348311 0.178617
vt 0.6348311 0.178617
vt 0.6348311 0.178617
vt 0.6348311 0.178617
vt 0.6348311 0.178617
vt 0.6348311 0.178617
vt 0.6348311 0.178617
vt 0.6348311 0.178617
vt 0.6348311 0.178617
vt 0.6348311 0.178617
vt 0.6348311 0.178617
vt 0.6348311 0.178617
vn -0.003921628 0.9999924 0
vn -0.003921628 0.9999924 0
vn -0.003921628 0.9999924 0
vn -0.003921628 0.9999924 0
vn -0.003921628 0.9999924 0
vn -0.003921628 0.9999924 0
vn -0.003921628 0.9999924 0
vn -0.003921628 0.9999924 0
vn -0.003921628 0.9999924 0
vn -0.003921628 0.9999924 0
vn -0.003921628 0.9999924 0
vn -0.003921628 0.9999924 0
vn -0.003921628 0.9999924 0
vn -0.003921628 0.9999924 0
vn 0.9999924 0.003921628 0
vn 0.9999924 0.003921628 0
vn 0.9999924 0.003921628 0
vn 0.9999924 0.003921628 0
vn -0.9999924 0.003921628 0
vn -0.9999924 0.003921628 0
vn -0.9999924 0.003921628 0
vn -0.9999924 0.003921628 0
vn -0.9999924 0.003921628 0
vn -0.9999924 0.003921628 0
vn -0.9999924 0.003921628 0
vn -0.9999924 0.003921628 0
vn -0.9999924 0.003921628 0
vn -0.9999924 0.003921628 0
vn -0.9999924 0.003921628 0
vn -0.9999924 0.003921628 0
vn -0.9999924 0.003921628 0
vn -0.9999924 0.003921628 0
vn -0.9999924 0.003921628 0
vn -0.9999924 0.003921628 0
vn -0.003921628 -0.7097985 -0.7043939
vn -0.003921628 -0.7097985 -0.7043939
vn -0.003921628 -0.7097985 -0.7043939
vn -0.003921628 -0.7097985 -0.7043939
vn 0.9999924 0.003921628 0
vn 0.9999924 0.003921628 0
vn 0.9999924 0.003921628 0
vn 0.9999924 0.003921628 0
vn 0.9999924 0.003921628 0
vn 0.9999924 0.003921628 0
vn 0.9999924 0.003921628 0
vn 0.9999924 0.003921628 0
vn 0.9999924 0.003921628 0
vn 0.9999924 0.003921628 0
vn 0.9999924 0.003921628 0
vn 0.9999924 0.003921628 0
vn 0.9999924 0.003921628 0
vn 0.9999924 0.003921628 0
vn 0.9999924 0.003921628 0
vn 0.9999924 0.003921628 0
vn 0.9999924 0.003921628 0
vn 0.9999924 0.003921628 0
vn 0.9999924 0.003921628 0
vn 0.9999924 0.003921628 0
vn 0.9999924 0.003921628 0
vn 0.9999924 0.003921628 0
vn 0.9999924 0.003921628 0
vn 0.9999924 0.003921628 0
vn -0.003921628 0.7097986 0.7043937
vn -0.003921628 0.7097986 0.7043937
vn -0.003921628 0.7097986 0.7043937
vn -0.003921628 0.7097986 0.7043937
vn -0.003921628 0.7097986 -0.7043937
vn -0.003921628 0.7097986 -0.7043937
vn -0.003921628 0.7097986 -0.7043937
vn -0.003921628 0.7097986 -0.7043937
vn -0.003921628 0.003921628 -0.9999846
vn -0.003921628 0.003921628 -0.9999846
vn -0.003921628 0.003921628 -0.9999846
vn -0.003921628 0.003921628 -0.9999846
vn -0.003921628 0.003921628 0.9999846
vn -0.003921628 0.003921628 0.9999846
vn -0.003921628 0.003921628 0.9999846
vn -0.003921628 0.003921628 0.9999846
vn -0.003921628 0.003921628 -0.9999846
vn -0.003921628 0.003921628 -0.9999846
vn -0.003921628 0.003921628 -0.9999846
vn -0.003921628 0.003921628 -0.9999846
vn -0.003921628 0.7097986 -0.7043937
vn -0.003921628 0.7097986 -0.7043937
vn -0.003921628 0.7097986 -0.7043937
vn -0.003921628 0.7097986 -0.7043937
vn -0.003921628 0.9999924 0
vn -0.003921628 0.9999924 0
vn -0.003921628 0.9999924 0
vn -0.003921628 0.9999924 0
vn -0.003921628 -0.7097985 0.7043939
vn -0.003921628 -0.7097985 0.7043939
vn -0.003921628 -0.7097985 0.7043939
vn -0.003921628 -0.7097985 0.7043939
vn -0.003921628 0.7097986 -0.7043937
vn -0.003921628 0.7097986 -0.7043937
vn -0.003921628 0.7097986 -0.7043937
vn -0.003921628 0.7097986 -0.7043937
vn -0.003921628 -0.9999924 0
vn -0.003921628 -0.9999924 0
vn -0.003921628 -0.9999924 0
vn -0.003921628 -0.9999924 0
vn -0.003921628 0.7097986 0.7043937
vn -0.003921628 0.7097986 0.7043937
vn -0.003921628 0.7097986 0.7043937
vn -0.003921628 0.7097986 0.7043937
vn -0.003921628 -0.7097985 0.7043939
vn -0.003921628 -0.7097985 0.7043939
vn -0.003921628 -0.7097985 0.7043939
vn -0.003921628 -0.7097985 0.7043939
vn -0.003921628 -0.7097985 -0.7043939
vn -0.003921628 -0.7097985 -0.7043939
vn -0.003921628 -0.7097985 -0.7043939
vn -0.003921628 -0.7097985 -0.7043939
vn -0.003921628 0.7097986 0.7043937
vn -0.003921628 0.7097986 0.7043937
vn -0.003921628 0.7097986 0.7043937
vn -0.003921628 0.7097986 0.7043937
vn -0.003921628 0.003921628 0.9999846
vn -0.003921628 0.003921628 0.9999846
vn -0.003921628 0.003921628 0.9999846
vn -0.003921628 0.003921628 0.9999846
vn -0.003921628 0.003921628 -0.9999846
vn -0.003921628 0.003921628 -0.9999846
vn -0.003921628 0.003921628 -0.9999846
vn -0.003921628 0.003921628 -0.9999846
vn -0.003921628 0.003921628 0.9999846
vn -0.003921628 0.003921628 0.9999846
vn -0.003921628 0.003921628 0.9999846
vn -0.003921628 0.003921628 0.9999846
vn -0.003921628 -0.7097985 0.7043939
vn -0.003921628 -0.7097985 0.7043939
vn -0.003921628 -0.7097985 0.7043939
vn -0.003921628 -0.7097985 0.7043939
vn -0.003921628 0.7097986 -0.7043937
vn -0.003921628 0.7097986 -0.7043937
vn -0.003921628 0.7097986 -0.7043937
vn -0.003921628 0.7097986 -0.7043937
vn -0.003921628 -0.9999924 0
vn -0.003921628 -0.9999924 0
vn -0.003921628 -0.9999924 0
vn -0.003921628 -0.9999924 0
vn -0.003921628 -0.9999924 0
vn -0.003921628 -0.9999924 0
vn -0.003921628 -0.9999924 0
vn -0.003921628 -0.9999924 0
vn -0.003921628 0.9999924 0
vn -0.003921628 0.9999924 0
vn -0.003921628 0.9999924 0
vn -0.003921628 0.9999924 0
vn -0.9999924 0.0274508 0
vn -0.9999924 0.0274508 0
vn -0.9999924 0.0274508 0
vn -0.9999924 0.0274508 0
vn -0.003921628 -0.7097985 -0.7043939
vn -0.003921628 -0.7097985 -0.7043939
vn -0.003921628 -0.7097985 -0.7043939
vn -0.003921628 -0.7097985 -0.7043939
vn -0.9999924 0.003921628 0
vn -0.9999924 0.003921628 0
vn -0.9999924 0.003921628 0
vn -0.9999924 0.003921628 0
vn -0.9999924 0.003921628 0
vn -0.9999924 0.003921628 0
vn -0.9999924 0.003921628 0
vn -0.9999924 0.003921628 0
vn -0.9999924 0.003921628 0
vn -0.9999924 0.003921628 0
vn -0.9999924 0.003921628 0
vn -0.9999924 0.003921628 0
vn -0.9999924 0.003921628 0
vn -0.9999924 0.003921628 0
vn -0.9999924 0.003921628 0
vn -0.9999924 0.003921628 0
vn -0.9999924 0.003921628 0
vn -0.9999924 0.003921628 0
vn -0.9999924 0.003921628 0
vn -0.9999924 0.003921628 0
vn -0.9999924 0.003921628 0
vn -0.9999924 0.003921628 0
vn -0.9999924 0.003921628 0
vn -0.9999924 0.003921628 0
vn 0.9999924 0.003921628 0
vn 0.9999924 0.003921628 0
vn 0.9999924 0.003921628 0
vn 0.9999924 0.003921628 0
vn 0.9999924 0.003921628 0
vn 0.9999924 0.003921628 0
vn 0.9999924 0.003921628 0
vn 0.9999924 0.003921628 0
vn 0.9999924 0.003921628 0
vn 0.9999924 0.003921628 0
vn 0.9999924 0.003921628 0
vn 0.9999924 0.003921628 0
vn 0.9999924 0.003921628 0
vn 0.9999924 0.003921628 0
vn 0.9999924 0.003921628 0
vn 0.9999924 0.003921628 0
vn -0.003921628 0.7097986 0.7043937
vn -0.003921628 0.7097986 0.7043937
vn -0.003921628 0.7097986 0.7043937
vn -0.003921628 0.7097986 0.7043937
vn -0.003921628 -0.7097985 0.7043939
vn -0.003921628 -0.7097985 0.7043939
vn -0.003921628 -0.7097985 0.7043939
vn -0.003921628 -0.7097985 0.7043939
vn -0.003921628 0.003921628 -0.9999846
vn -0.003921628 0.003921628 -0.9999846
vn -0.003921628 0.003921628 -0.9999846
vn -0.003921628 0.003921628 -0.9999846
vn -0.003921628 0.003921628 0.9999846
vn -0.003921628 0.003921628 0.9999846
vn -0.003921628 0.003921628 0.9999846
vn -0.003921628 0.003921628 0.9999846
vn -0.003921628 0.7097986 -0.7043937
vn -0.003921628 0.7097986 -0.7043937
vn -0.003921628 0.7097986 -0.7043937
vn -0.003921628 0.7097986 -0.7043937
vn -0.003921628 0.9999924 0
vn -0.003921628 0.9999924 0
vn -0.003921628 0.9999924 0
vn -0.003921628 0.9999924 0
vn -0.003921628 -0.7097985 0.7043939
vn -0.003921628 -0.7097985 0.7043939
vn -0.003921628 -0.7097985 0.7043939
vn -0.003921628 -0.7097985 0.7043939
vn -0.003921628 -0.9999924 0
vn -0.003921628 -0.9999924 0
vn -0.003921628 -0.9999924 0
vn -0.003921628 -0.9999924 0
vn -0.003921628 0.7097986 0.7043937
vn -0.003921628 0.7097986 0.7043937
vn -0.003921628 0.7097986 0.7043937
vn -0.003921628 0.7097986 0.7043937
vn -0.003921628 -0.7097985 -0.7043939
vn -0.003921628 -0.7097985 -0.7043939
vn -0.003921628 -0.7097985 -0.7043939
vn -0.003921628 -0.7097985 -0.7043939
vn -0.003921628 -0.7097985 -0.7043939
vn -0.003921628 -0.7097985 -0.7043939
vn -0.003921628 -0.7097985 -0.7043939
vn -0.003921628 -0.7097985 -0.7043939
vn -0.003921628 0.003921628 0.9999846
vn -0.003921628 0.003921628 0.9999846
vn -0.003921628 0.003921628 0.9999846
vn -0.003921628 0.003921628 0.9999846
vn -0.003921628 0.003921628 -0.9999846
vn -0.003921628 0.003921628 -0.9999846
vn -0.003921628 0.003921628 -0.9999846
vn -0.003921628 0.003921628 -0.9999846
vn 0.9921493 -0.08235228 0.09411633
vn 0.9921493 -0.08235228 0.09411633
vn 0.9921493 -0.08235228 0.09411633
vn 0.9921493 -0.08235228 0.09411633
vn -0.003921628 -0.7097985 0.7043939
vn -0.003921628 -0.7097985 0.7043939
vn -0.003921628 -0.7097985 0.7043939
vn -0.003921628 -0.7097985 0.7043939
vn -0.003921628 0.7097986 -0.7043937
vn -0.003921628 0.7097986 -0.7043937
vn -0.003921628 0.7097986 -0.7043937
vn -0.003921628 0.7097986 -0.7043937
vn -0.003921628 0.7019554 0.7122101
vn -0.003921628 0.7019554 0.7122101
vn -0.003921628 0.7019554 0.7122101
vn -0.003921628 0.7019554 0.7122101
vn -0.003921628 -0.9999924 0
vn -0.003921628 -0.9999924 0
vn -0.003921628 -0.9999924 0
vn -0.003921628 -0.9999924 0
vn -0.003921628 0.9999924 0
vn -0.003921628 0.9999924 0
vn -0.003921628 0.9999924 0
vn -0.003921628 0.9999924 0
vn -0.003921628 0.9999924 0
vn -0.003921628 0.9999924 0
vn -0.003921628 0.9999924 0
vn -0.003921628 0.9999924 0
vn -0.003921628 -0.7097985 -0.7043939
vn -0.003921628 -0.7097985 -0.7043939
vn -0.003921628 -0.7097985 -0.7043939
vn -0.003921628 -0.7097985 -0.7043939
vn -0.003921628 0.003921628 -0.9999846
vn -0.003921628 0.003921628 -0.9999846
vn -0.003921628 0.003921628 -0.9999846
vn -0.003921628 0.003921628 -0.9999846
vn -0.9999924 0.003921628 0
vn -0.9999924 0.003921628 0
vn -0.9999924 0.003921628 0
vn -0.9999924 0.003921628 0
vn -0.003921628 0.003921628 0.9999846
vn -0.003921628 0.003921628 0.9999846
vn -0.003921628 0.003921628 0.9999846
vn -0.003921628 0.003921628 0.9999846
vn -0.003921628 -0.9999924 0
vn -0.003921628 -0.9999924 0
vn -0.003921628 -0.9999924 0
vn -0.003921628 -0.9999924 0
vn 0.9921493 0.003921628 0.1249976
vn 0.9921493 0.003921628 0.1249976
vn 0.9921493 0.003921628 0.1249976
vn 0.9921493 0.003921628 0.1249976
vn -0.003921628 0.9999924 0
vn -0.003921628 0.9999924 0
vn -0.003921628 0.9999924 0
vn -0.003921628 0.9999924 0
vn -0.003921628 -0.7097985 -0.7043939
vn -0.003921628 -0.7097985 -0.7043939
vn -0.003921628 -0.7097985 -0.7043939
vn -0.003921628 -0.7097985 -0.7043939
vn -0.9999924 -0.02745074 0
vn -0.9999924 -0.02745074 0
vn -0.9999924 -0.02745074 0
vn -0.9999924 -0.02745074 0
vn -0.003921628 0.7097986 0.7043937
vn -0.003921628 0.7097986 0.7043937
vn -0.003921628 0.7097986 0.7043937
vn -0.003921628 0.7097986 0.7043937
vn -0.003921628 -0.7097985 0.7043939
vn -0.003921628 -0.7097985 0.7043939
vn -0.003921628 -0.7097985 0.7043939
vn -0.003921628 -0.7097985 0.7043939
vn 0.9921493 0.0823524 0.09411623
vn 0.9921493 0.0823524 0.09411623
vn 0.9921493 0.0823524 0.09411623
vn 0.9921493 0.0823524 0.09411623
vn -0.003921628 0.7097986 -0.7043937
vn -0.003921628 0.7097986 -0.7043937
vn -0.003921628 0.7097986 -0.7043937
vn -0.003921628 0.7097986 -0.7043937
vn -0.003921628 -0.9999924 0
vn -0.003921628 -0.9999924 0
vn -0.003921628 -0.9999924 0
vn -0.003921628 -0.9999924 0
vn -0.9999924 -0.03529382 0
vn -0.9999924 -0.03529382 0
vn -0.9999924 -0.03529382 0
vn -0.9999924 -0.03529382 0
vn -0.003921628 0.9999924 0
vn -0.003921628 0.9999924 0
vn -0.003921628 0.9999924 0
vn -0.003921628 0.9999924 0
vn -0.003921628 -0.003921509 0.9999846
vn -0.003921628 -0.003921509 0.9999846
vn -0.003921628 -0.003921509 0.9999846
vn -0.003921628 -0.003921509 0.9999846
vn 0.9921493 0.1137247 -0.05202377
vn 0.9921493 0.1137247 -0.05202377
vn 0.9921493 0.1137247 -0.05202377
vn 0.9921493 0.1137247 -0.05202377
vn -0.003921628 0.003921628 -0.9999846
vn -0.003921628 0.003921628 -0.9999846
vn -0.003921628 0.003921628 -0.9999846
vn -0.003921628 0.003921628 -0.9999846
vn -0.003921628 -0.7097985 0.7043939
vn -0.003921628 -0.7097985 0.7043939
vn -0.003921628 -0.7097985 0.7043939
vn -0.003921628 -0.7097985 0.7043939
vn -0.9999924 -0.02745074 0
vn -0.9999924 -0.02745074 0
vn -0.9999924 -0.02745074 0
vn -0.9999924 -0.02745074 0
vn -0.003921628 0.7097986 -0.7043937
vn -0.003921628 0.7097986 -0.7043937
vn -0.003921628 0.7097986 -0.7043937
vn -0.003921628 0.7097986 -0.7043937
vn -0.003921628 0.7097986 0.7043937
vn -0.003921628 0.7097986 0.7043937
vn -0.003921628 0.7097986 0.7043937
vn -0.003921628 0.7097986 0.7043937
vn 0.9921493 0.0823524 -0.09411623
vn 0.9921493 0.0823524 -0.09411623
vn 0.9921493 0.0823524 -0.09411623
vn 0.9921493 0.0823524 -0.09411623
vn -0.003921628 -0.7019554 -0.7122101
vn -0.003921628 -0.7019554 -0.7122101
vn -0.003921628 -0.7019554 -0.7122101
vn -0.003921628 -0.7019554 -0.7122101
vn -0.003921628 0.003921628 0.9999846
vn -0.003921628 0.003921628 0.9999846
vn -0.003921628 0.003921628 0.9999846
vn -0.003921628 0.003921628 0.9999846
vn -0.9999924 0.003921628 0
vn -0.9999924 0.003921628 0
vn -0.9999924 0.003921628 0
vn -0.9999924 0.003921628 0
vn -0.003921628 0.003921628 -0.9999846
vn -0.003921628 0.003921628 -0.9999846
vn -0.003921628 0.003921628 -0.9999846
vn -0.003921628 0.003921628 -0.9999846
vn -0.003921628 0.9999924 0
vn -0.003921628 0.9999924 0
vn -0.003921628 0.9999924 0
vn -0.003921628 0.9999924 0
vn 0.9921493 0.003921628 -0.1249976
vn 0.9921493 0.003921628 -0.1249976
vn 0.9921493 0.003921628 -0.1249976
vn 0.9921493 0.003921628 -0.1249976
vn -0.003921628 -0.9999924 0
vn -0.003921628 -0.9999924 0
vn -0.003921628 -0.9999924 0
vn -0.003921628 -0.9999924 0
vn -0.003921628 0.7097986 0.7043937
vn -0.003921628 0.7097986 0.7043937
vn -0.003921628 0.7097986 0.7043937
vn -0.003921628 0.7097986 0.7043937
vn -0.9999924 0.0274508 0
vn -0.9999924 0.0274508 0
vn -0.9999924 0.0274508 0
vn -0.9999924 0.0274508 0
vn -0.003921628 -0.7097985 -0.7043939
vn -0.003921628 -0.7097985 -0.7043939
vn -0.003921628 -0.7097985 -0.7043939
vn -0.003921628 -0.7097985 -0.7043939
vn -0.003921628 0.7097986 -0.7043937
vn -0.003921628 0.7097986 -0.7043937
vn -0.003921628 0.7097986 -0.7043937
vn -0.003921628 0.7097986 -0.7043937
vn 0.9921493 -0.08235228 -0.09411633
vn 0.9921493 -0.08235228 -0.09411633
vn 0.9921493 -0.08235228 -0.09411633
vn 0.9921493 -0.08235228 -0.09411633
vn -0.003921628 -0.7097985 0.7043939
vn -0.003921628 -0.7097985 0.7043939
vn -0.003921628 -0.7097985 0.7043939
vn -0.003921628 -0.7097985 0.7043939
vn -0.003921628 0.9999924 0
vn -0.003921628 0.9999924 0
vn -0.003921628 0.9999924 0
vn -0.003921628 0.9999924 0
vn -0.9999924 0.03529394 0
vn -0.9999924 0.03529394 0
vn -0.9999924 0.03529394 0
vn -0.9999924 0.03529394 0
vn -0.003921628 -0.9999924 0
vn -0.003921628 -0.9999924 0
vn -0.003921628 -0.9999924 0
vn -0.003921628 -0.9999924 0
vn -0.003921628 0.003921628 -0.9999846
vn -0.003921628 0.003921628 -0.9999846
vn -0.003921628 0.003921628 -0.9999846
vn -0.003921628 0.003921628 -0.9999846
vn 0.9921493 -0.1137246 -0.05202403
vn 0.9921493 -0.1137246 -0.05202403
vn 0.9921493 -0.1137246 -0.05202403
vn 0.9921493 -0.1137246 -0.05202403
vn -0.003921628 -0.003921509 0.9999846
vn -0.003921628 -0.003921509 0.9999846
vn -0.003921628 -0.003921509 0.9999846
vn -0.003921628 -0.003921509 0.9999846
vn -0.003921628 0.7097986 -0.7043937
vn -0.003921628 0.7097986 -0.7043937
vn -0.003921628 0.7097986 -0.7043937
vn -0.003921628 0.7097986 -0.7043937
vn 0.9999924 0.0274508 0
vn 0.9999924 0.0274508 0
vn 0.9999924 0.0274508 0
vn 0.9999924 0.0274508 0
vn -0.003921628 -0.7097985 0.7043939
vn -0.003921628 -0.7097985 0.7043939
vn -0.003921628 -0.7097985 0.7043939
vn -0.003921628 -0.7097985 0.7043939
vn -0.003921628 -0.7097985 -0.7043939
vn -0.003921628 -0.7097985 -0.7043939
vn -0.003921628 -0.7097985 -0.7043939
vn -0.003921628 -0.7097985 -0.7043939
vn -0.9921494 -0.08235228 0.0941157
vn -0.9921494 -0.08235228 0.0941157
vn -0.9921494 -0.08235228 0.0941157
vn -0.9921494 -0.08235228 0.0941157
vn -0.003921628 0.7019554 0.7122101
vn -0.003921628 0.7019554 0.7122101
vn -0.003921628 0.7019554 0.7122101
vn -0.003921628 0.7019554 0.7122101
vn -0.003921628 0.003921628 -0.9999846
vn -0.003921628 0.003921628 -0.9999846
vn -0.003921628 0.003921628 -0.9999846
vn -0.003921628 0.003921628 -0.9999846
vn 0.9999924 0.003921628 0
vn 0.9999924 0.003921628 0
vn 0.9999924 0.003921628 0
vn 0.9999924 0.003921628 0
vn -0.003921628 0.003921628 0.9999846
vn -0.003921628 0.003921628 0.9999846
vn -0.003921628 0.003921628 0.9999846
vn -0.003921628 0.003921628 0.9999846
vn -0.003921628 -0.9999924 0
vn -0.003921628 -0.9999924 0
vn -0.003921628 -0.9999924 0
vn -0.003921628 -0.9999924 0
vn -0.9921494 0.003921628 0.1249971
vn -0.9921494 0.003921628 0.1249971
vn -0.9921494 0.003921628 0.1249971
vn -0.9921494 0.003921628 0.1249971
vn -0.003921628 0.9999924 0
vn -0.003921628 0.9999924 0
vn -0.003921628 0.9999924 0
vn -0.003921628 0.9999924 0
vn -0.003921628 -0.7097985 -0.7043939
vn -0.003921628 -0.7097985 -0.7043939
vn -0.003921628 -0.7097985 -0.7043939
vn -0.003921628 -0.7097985 -0.7043939
vn 0.9999924 -0.02745074 0
vn 0.9999924 -0.02745074 0
vn 0.9999924 -0.02745074 0
vn 0.9999924 -0.02745074 0
vn -0.003921628 0.7097986 0.7043937
vn -0.003921628 0.7097986 0.7043937
vn -0.003921628 0.7097986 0.7043937
vn -0.003921628 0.7097986 0.7043937
vn -0.003921628 -0.7097985 0.7043939
vn -0.003921628 -0.7097985 0.7043939
vn -0.003921628 -0.7097985 0.7043939
vn -0.003921628 -0.7097985 0.7043939
vn -0.9921494 0.0823524 0.0941156
vn -0.9921494 0.0823524 0.0941156
vn -0.9921494 0.0823524 0.0941156
vn -0.9921494 0.0823524 0.0941156
vn -0.003921628 0.7097986 -0.7043937
vn -0.003921628 0.7097986 -0.7043937
vn -0.003921628 0.7097986 -0.7043937
vn -0.003921628 0.7097986 -0.7043937
vn -0.003921628 -0.9999924 0
vn -0.003921628 -0.9999924 0
vn -0.003921628 -0.9999924 0
vn -0.003921628 -0.9999924 0
vn 0.9999924 -0.03529382 0
vn 0.9999924 -0.03529382 0
vn 0.9999924 -0.03529382 0
vn 0.9999924 -0.03529382 0
vn -0.003921628 0.9999924 0
vn -0.003921628 0.9999924 0
vn -0.003921628 0.9999924 0
vn -0.003921628 0.9999924 0
vn -0.003921628 -0.003921509 0.9999846
vn -0.003921628 -0.003921509 0.9999846
vn -0.003921628 -0.003921509 0.9999846
vn -0.003921628 -0.003921509 0.9999846
vn -0.9921494 0.1137247 -0.05202262
vn -0.9921494 0.1137247 -0.05202262
vn -0.9921494 0.1137247 -0.05202262
vn -0.9921494 0.1137247 -0.05202262
vn -0.003921628 0.003921628 -0.9999846
vn -0.003921628 0.003921628 -0.9999846
vn -0.003921628 0.003921628 -0.9999846
vn -0.003921628 0.003921628 -0.9999846
vn -0.003921628 -0.7097985 0.7043939
vn -0.003921628 -0.7097985 0.7043939
vn -0.003921628 -0.7097985 0.7043939
vn -0.003921628 -0.7097985 0.7043939
vn 0.9999924 -0.02745074 0
vn 0.9999924 -0.02745074 0
vn 0.9999924 -0.02745074 0
vn 0.9999924 -0.02745074 0
vn -0.003921628 0.7097986 -0.7043937
vn -0.003921628 0.7097986 -0.7043937
vn -0.003921628 0.7097986 -0.7043937
vn -0.003921628 0.7097986 -0.7043937
vn -0.003921628 0.7097986 0.7043937
vn -0.003921628 0.7097986 0.7043937
vn -0.003921628 0.7097986 0.7043937
vn -0.003921628 0.7097986 0.7043937
vn -0.9921494 0.0823524 -0.0941156
vn -0.9921494 0.0823524 -0.0941156
vn -0.9921494 0.0823524 -0.0941156
vn -0.9921494 0.0823524 -0.0941156
vn -0.003921628 -0.7019554 -0.7122101
vn -0.003921628 -0.7019554 -0.7122101
vn -0.003921628 -0.7019554 -0.7122101
vn -0.003921628 -0.7019554 -0.7122101
vn -0.003921628 0.003921628 0.9999846
vn -0.003921628 0.003921628 0.9999846
vn -0.003921628 0.003921628 0.9999846
vn -0.003921628 0.003921628 0.9999846
vn 0.9999924 0.003921628 0
vn 0.9999924 0.003921628 0
vn 0.9999924 0.003921628 0
vn 0.9999924 0.003921628 0
vn -0.003921628 0.003921628 -0.9999846
vn -0.003921628 0.003921628 -0.9999846
vn -0.003921628 0.003921628 -0.9999846
vn -0.003921628 0.003921628 -0.9999846
vn -0.003921628 0.9999924 0
vn -0.003921628 0.9999924 0
vn -0.003921628 0.9999924 0
vn -0.003921628 0.9999924 0
vn -0.9921494 0.003921628 -0.1249971
vn -0.9921494 0.003921628 -0.1249971
vn -0.9921494 0.003921628 -0.1249971
vn -0.9921494 0.003921628 -0.1249971
vn -0.003921628 -0.9999924 0
vn -0.003921628 -0.9999924 0
vn -0.003921628 -0.9999924 0
vn -0.003921628 -0.9999924 0
vn -0.003921628 0.7097986 0.7043937
vn -0.003921628 0.7097986 0.7043937
vn -0.003921628 0.7097986 0.7043937
vn -0.003921628 0.7097986 0.7043937
vn 0.9999924 0.0274508 0
vn 0.9999924 0.0274508 0
vn 0.9999924 0.0274508 0
vn 0.9999924 0.0274508 0
vn -0.003921628 -0.7097985 -0.7043939
vn -0.003921628 -0.7097985 -0.7043939
vn -0.003921628 -0.7097985 -0.7043939
vn -0.003921628 -0.7097985 -0.7043939
vn -0.003921628 0.7097986 -0.7043937
vn -0.003921628 0.7097986 -0.7043937
vn -0.003921628 0.7097986 -0.7043937
vn -0.003921628 0.7097986 -0.7043937
vn -0.9921494 -0.08235228 -0.0941157
vn -0.9921494 -0.08235228 -0.0941157
vn -0.9921494 -0.08235228 -0.0941157
vn -0.9921494 -0.08235228 -0.0941157
vn -0.003921628 -0.7097985 0.7043939
vn -0.003921628 -0.7097985 0.7043939
vn -0.003921628 -0.7097985 0.7043939
vn -0.003921628 -0.7097985 0.7043939
vn -0.003921628 0.9999924 0
vn -0.003921628 0.9999924 0
vn -0.003921628 0.9999924 0
vn -0.003921628 0.9999924 0
vn 0.9999924 0.03529394 0
vn 0.9999924 0.03529394 0
vn 0.9999924 0.03529394 0
vn 0.9999924 0.03529394 0
vn -0.003921628 -0.9999924 0
vn -0.003921628 -0.9999924 0
vn -0.003921628 -0.9999924 0
vn -0.003921628 -0.9999924 0
vn -0.003921628 0.003921628 -0.9999846
vn -0.003921628 0.003921628 -0.9999846
vn -0.003921628 0.003921628 -0.9999846
vn -0.003921628 0.003921628 -0.9999846
vn -0.9921494 -0.1137246 -0.05202289
vn -0.9921494 -0.1137246 -0.05202289
vn -0.9921494 -0.1137246 -0.05202289
vn -0.9921494 -0.1137246 -0.05202289
vn -0.003921628 -0.003921509 0.9999846
vn -0.003921628 -0.003921509 0.9999846
vn -0.003921628 -0.003921509 0.9999846
vn -0.003921628 -0.003921509 0.9999846
vn -0.003921628 -0.9999924 0
vn -0.003921628 -0.9999924 0
vn -0.003921628 -0.9999924 0
vn -0.003921628 -0.9999924 0
vn -0.003921628 -0.9999924 0
vn -0.003921628 -0.9999924 0
vn -0.003921628 -0.9999924 0
vn -0.003921628 -0.9999924 0
vn -0.003921628 -0.9999924 0
vn -0.003921628 -0.9999924 0
vn -0.003921628 0.9999924 0
vn -0.003921628 0.9999924 0
vn -0.003921628 0.9999924 0
vn -0.003921628 0.9999924 0
vn -0.003921628 0.9999924 0
vn -0.003921628 0.9999924 0
vn -0.003921628 0.9999924 0
vn -0.003921628 0.9999924 0
vn -0.003921628 0.9999924 0
vn -0.003921628 0.9999924 0
vn -0.003921628 0.003921628 -0.9999846
vn -0.003921628 0.003921628 -0.9999846
vn -0.003921628 0.003921628 -0.9999846
vn -0.003921628 0.003921628 -0.9999846
vn -0.003921628 0.003921628 -0.9999846
vn -0.003921628 0.003921628 -0.9999846
vn -0.003921628 0.003921628 -0.9999846
vn -0.003921628 0.003921628 -0.9999846
vn -0.9999924 0.003921628 0
vn -0.9999924 0.003921628 0
vn -0.9999924 0.003921628 0
vn -0.9999924 0.003921628 0
vn 0.9999924 0.003921628 0
vn 0.9999924 0.003921628 0
vn 0.9999924 0.003921628 0
vn 0.9999924 0.003921628 0
vn -0.003921628 0.003921628 0.9999846
vn -0.003921628 0.003921628 0.9999846
vn -0.003921628 0.003921628 0.9999846
vn -0.003921628 0.003921628 0.9999846
vn -0.003921628 0.003921628 0.9999846
vn -0.003921628 0.003921628 0.9999846
vn -0.003921628 0.003921628 0.9999846
vn -0.003921628 0.003921628 0.9999846
vn -0.003921628 0.003921628 -0.9999846
vn -0.003921628 0.003921628 -0.9999846
vn -0.003921628 0.003921628 -0.9999846
vn -0.003921628 0.003921628 -0.9999846
vn -0.9999924 0.003921628 0
vn -0.9999924 0.003921628 0
vn -0.9999924 0.003921628 0
vn -0.9999924 0.003921628 0
vn 0.9999924 0.003921628 0
vn 0.9999924 0.003921628 0
vn 0.9999924 0.003921628 0
vn 0.9999924 0.003921628 0
vn -0.9999924 0.003921628 0
vn -0.9999924 0.003921628 0
vn -0.9999924 0.003921628 0
vn -0.9999924 0.003921628 0
vn -0.9999924 0.003921628 0
vn -0.9999924 0.003921628 0
vn -0.003921628 0.003921628 -0.9999846
vn -0.003921628 0.003921628 -0.9999846
vn -0.003921628 0.003921628 -0.9999846
vn -0.003921628 0.003921628 -0.9999846
vn -0.003921628 0.003921628 0.9999846
vn -0.003921628 0.003921628 0.9999846
vn -0.003921628 0.003921628 0.9999846
vn -0.003921628 0.003921628 0.9999846
vn -0.003921628 0.003921628 0.9999846
vn -0.003921628 0.003921628 0.9999846
vn 0.9999924 0.003921628 0
vn 0.9999924 0.003921628 0
vn 0.9999924 0.003921628 0
vn 0.9999924 0.003921628 0
vn 0.9999924 0.003921628 0
vn 0.9999924 0.003921628 0
vn -0.003921628 -0.9999924 0
vn -0.003921628 -0.9999924 0
vn -0.003921628 -0.9999924 0
vn -0.003921628 -0.9999924 0
vn -0.003921628 0.003921628 -0.9999846
vn -0.003921628 0.003921628 -0.9999846
vn -0.003921628 0.003921628 -0.9999846
vn -0.003921628 0.003921628 -0.9999846
vn 0.7097985 0.003921628 -0.7043939
vn 0.7097985 0.003921628 -0.7043939
vn 0.7097985 0.003921628 -0.7043939
vn 0.7097985 0.003921628 -0.7043939
vn 0.9999924 0.003921628 0
vn 0.9999924 0.003921628 0
vn 0.9999924 0.003921628 0
vn 0.9999924 0.003921628 0
vn -0.9999924 0.003921628 0
vn -0.9999924 0.003921628 0
vn -0.9999924 0.003921628 0
vn -0.9999924 0.003921628 0
vn -0.7097986 0.003921628 -0.7043937
vn -0.7097986 0.003921628 -0.7043937
vn -0.7097986 0.003921628 -0.7043937
vn -0.7097986 0.003921628 -0.7043937
vn 0.9999924 0.003921628 0
vn 0.9999924 0.003921628 0
vn 0.9999924 0.003921628 0
vn 0.9999924 0.003921628 0
vn 0.9999924 0.003921628 0
vn 0.9999924 0.003921628 0
vn 0.9999924 0.003921628 0
vn 0.9999924 0.003921628 0
vn -0.003921628 0.003921628 -0.9999846
vn -0.003921628 0.003921628 -0.9999846
vn -0.003921628 0.003921628 -0.9999846
vn -0.003921628 0.003921628 -0.9999846
vn -0.003921628 0.003921628 -0.9999846
vn -0.003921628 0.003921628 -0.9999846
vn -0.003921628 0.003921628 -0.9999846
vn -0.003921628 0.003921628 -0.9999846
vn -0.003921628 0.003921628 -0.9999846
vn -0.003921628 0.003921628 -0.9999846
vn -0.003921628 0.003921628 -0.9999846
vn -0.003921628 0.003921628 -0.9999846
vn -0.003921628 0.003921628 0.9999846
vn -0.003921628 0.003921628 0.9999846
vn -0.003921628 0.003921628 0.9999846
vn -0.003921628 0.003921628 0.9999846
vn -0.003921628 0.003921628 0.9999846
vn -0.003921628 0.003921628 0.9999846
vn -0.003921628 0.003921628 0.9999846
vn -0.003921628 0.003921628 0.9999846
vn -0.003921628 0.003921628 0.9999846
vn -0.003921628 0.003921628 0.9999846
vn -0.003921628 0.003921628 0.9999846
vn -0.003921628 0.003921628 0.9999846
vn 0.6862693 0.003921628 -0.727337
vn 0.6862693 0.003921628 -0.727337
vn 0.6862693 0.003921628 -0.727337
vn 0.6862693 0.003921628 -0.727337
vn 0.6862693 0.003921628 -0.727337
vn 0.6862693 0.003921628 -0.727337
vn 0.6862693 0.003921628 -0.727337
vn 0.6862693 0.003921628 -0.727337
vn 0.6862693 0.003921628 -0.727337
vn 0.6862693 0.003921628 -0.727337
vn 0.6862693 0.003921628 -0.727337
vn 0.6862693 0.003921628 -0.727337
vn 0.9999924 0.003921628 0
vn 0.9999924 0.003921628 0
vn 0.9999924 0.003921628 0
vn 0.9999924 0.003921628 0
vn 0.9999924 0.003921628 0
vn 0.9999924 0.003921628 0
vn 0.9999924 0.003921628 0
vn 0.9999924 0.003921628 0
vn 0.9999924 0.003921628 0
vn 0.9999924 0.003921628 0
vn 0.9999924 0.003921628 0
vn 0.9999924 0.003921628 0
vn -0.9999924 0.003921628 0
vn -0.9999924 0.003921628 0
vn -0.9999924 0.003921628 0
vn -0.9999924 0.003921628 0
vn -0.9999924 0.003921628 0
vn -0.9999924 0.003921628 0
vn -0.9999924 0.003921628 0
vn -0.9999924 0.003921628 0
vn -0.9999924 0.003921628 0
vn -0.9999924 0.003921628 0
vn -0.9999924 0.003921628 0
vn -0.9999924 0.003921628 0
vn -0.9999924 0.003921628 0
vn -0.9999924 0.003921628 0
vn -0.9999924 0.003921628 0
vn -0.9999924 0.003921628 0
vn -0.9999924 0.003921628 0
vn -0.9999924 0.003921628 0
vn -0.9999924 0.003921628 0
vn -0.9999924 0.003921628 0
vn -0.9999924 0.003921628 0
vn -0.9999924 0.003921628 0
vn -0.9999924 0.003921628 0
vn -0.9999924 0.003921628 0
vn -0.6784263 0.003921628 -0.7346581
vn -0.6784263 0.003921628 -0.7346581
vn -0.6784263 0.003921628 -0.7346581
vn -0.6784263 0.003921628 -0.7346581
vn -0.6784263 0.003921628 -0.7346581
vn -0.6784263 0.003921628 -0.7346581
vn -0.6784263 0.003921628 -0.7346581
vn -0.6784263 0.003921628 -0.7346581
vn -0.6784263 0.003921628 -0.7346581
vn -0.6784263 0.003921628 -0.7346581
vn -0.6784263 0.003921628 -0.7346581
vn -0.6784263 0.003921628 -0.7346581
g Truck_0
f 3/3/3 2/2/2 1/1/1
f 4/4/4 3/3/3 1/1/1
f 3/3/3 5/5/5 2/2/2
f 5/5/5 6/6/6 2/2/2
f 9/9/9 8/8/8 7/7/7
f 10/10/10 9/9/9 7/7/7
f 7/7/7 8/8/8 11/11/11
f 8/8/8 12/12/12 11/11/11
f 11/11/11 12/12/12 13/13/13
f 12/12/12 14/14/14 13/13/13
f 17/17/17 16/16/16 15/15/15
f 18/18/18 17/17/17 15/15/15
f 21/21/21 20/20/20 19/19/19
f 22/22/22 21/21/21 19/19/19
f 22/22/22 19/19/19 23/23/23
f 24/24/24 22/22/22 23/23/23
f 24/24/24 23/23/23 25/25/25
f 26/26/26 24/24/24 25/25/25
f 26/26/26 25/25/25 27/27/27
f 28/28/28 26/26/26 27/27/27
f 28/28/28 27/27/27 29/29/29
f 30/30/30 28/28/28 29/29/29
f 30/30/30 29/29/29 31/31/31
f 32/32/32 30/30/30 31/31/31
f 32/32/32 31/31/31 33/33/33
f 34/34/34 32/32/32 33/33/33
f 34/34/34 33/33/33 20/20/20
f 21/21/21 34/34/34 20/20/20
f 37/37/37 36/36/36 35/35/35
f 38/38/38 37/37/37 35/35/35
f 41/41/41 40/40/40 39/39/39
f 42/42/42 41/41/41 39/39/39
f 39/39/39 40/40/40 43/43/43
f 40/40/40 44/44/44 43/43/43
f 43/43/43 44/44/44 45/45/45
f 44/44/44 46/46/46 45/45/45
f 45/45/45 46/46/46 47/47/47
f 46/46/46 48/48/48 47/47/47
f 47/47/47 48/48/48 49/49/49
f 48/48/48 50/50/50 49/49/49
f 49/49/49 50/50/50 51/51/51
f 50/50/50 52/52/52 51/51/51
f 51/51/51 52/52/52 53/53/53
f 52/52/52 54/54/54 53/53/53
f 54/54/54 41/41/41 42/42/42
f 53/53/53 54/54/54 42/42/42
f 57/57/57 56/56/56 55/55/55
f 55/55/55 58/58/58 57/57/57
f 58/58/58 59/59/59 57/57/57
f 59/59/59 60/60/60 57/57/57
f 59/59/59 61/61/61 60/60/60
f 61/61/61 62/62/62 60/60/60
f 65/65/65 64/64/64 63/63/63
f 66/66/66 65/65/65 63/63/63
f 69/69/69 68/68/68 67/67/67
f 70/70/70 69/69/69 67/67/67
f 73/73/73 72/72/72 71/71/71
f 74/74/74 73/73/73 71/71/71
f 77/77/77 76/76/76 75/75/75
f 78/78/78 77/77/77 75/75/75
f 81/81/81 80/80/80 79/79/79
f 82/82/82 81/81/81 79/79/79
f 85/85/85 84/84/84 83/83/83
f 86/86/86 85/85/85 83/83/83
f 89/89/89 88/88/88 87/87/87
f 90/90/90 89/89/89 87/87/87
f 93/93/93 92/92/92 91/91/91
f 94/94/94 93/93/93 91/91/91
f 97/97/97 96/96/96 95/95/95
f 98/98/98 97/97/97 95/95/95
f 101/101/101 100/100/100 99/99/99
f 102/102/102 101/101/101 99/99/99
f 105/105/105 104/104/104 103/103/103
f 106/106/106 105/105/105 103/103/103
f 109/109/109 108/108/108 107/107/107
f 110/110/110 109/109/109 107/107/107
f 113/113/113 112/112/112 111/111/111
f 114/114/114 113/113/113 111/111/111
f 117/117/117 116/116/116 115/115/115
f 118/118/118 117/117/117 115/115/115
f 121/121/121 120/120/120 119/119/119
f 122/122/122 121/121/121 119/119/119
f 125/125/125 124/124/124 123/123/123
f 126/126/126 125/125/125 123/123/123
f 129/129/129 128/128/128 127/127/127
f 130/130/130 129/129/129 127/127/127
f 133/133/133 132/132/132 131/131/131
f 134/134/134 133/133/133 131/131/131
f 137/137/137 136/136/136 135/135/135
f 138/138/138 137/137/137 135/135/135
f 141/141/141 140/140/140 139/139/139
f 142/142/142 141/141/141 139/139/139
f 145/145/145 144/144/144 143/143/143
f 146/146/146 145/145/145 143/143/143
f 149/149/149 148/148/148 147/147/147
f 150/150/150 149/149/149 147/147/147
f 153/153/153 152/152/152 151/151/151
f 154/154/154 153/153/153 151/151/151
f 157/157/157 156/156/156 155/155/155
f 158/158/158 157/157/157 155/155/155
f 161/161/161 160/160/160 159/159/159
f 162/162/162 161/161/161 159/159/159
f 162/162/162 159/159/159 163/163/163
f 164/164/164 162/162/162 163/163/163
f 164/164/164 163/163/163 165/165/165
f 166/166/166 164/164/164 165/165/165
f 166/166/166 165/165/165 167/167/167
f 168/168/168 166/166/166 167/167/167
f 168/168/168 167/167/167 169/169/169
f 170/170/170 168/168/168 169/169/169
f 170/170/170 169/169/169 171/171/171
f 172/172/172 170/170/170 171/171/171
f 172/172/172 171/171/171 173/173/173
f 174/174/174 172/172/172 173/173/173
f 174/174/174 173/173/173 160/160/160
f 161/161/161 174/174/174 160/160/160
f 177/177/177 176/176/176 175/175/175
f 175/175/175 178/178/178 177/177/177
f 175/175/175 179/179/179 178/178/178
f 179/179/179 180/180/180 178/178/178
f 179/179/179 181/181/181 180/180/180
f 181/181/181 182/182/182 180/180/180
f 185/185/185 184/184/184 183/183/183
f 186/186/186 185/185/185 183/183/183
f 183/183/183 184/184/184 187/187/187
f 184/184/184 188/188/188 187/187/187
f 187/187/187 188/188/188 189/189/189
f 188/188/188 190/190/190 189/189/189
f 189/189/189 190/190/190 191/191/191
f 190/190/190 192/192/192 191/191/191
f 191/191/191 192/192/192 193/193/193
f 192/192/192 194/194/194 193/193/193
f 193/193/193 194/194/194 195/195/195
f 194/194/194 196/196/196 195/195/195
f 195/195/195 196/196/196 197/197/197
f 196/196/196 198/198/198 197/197/197
f 198/198/198 185/185/185 186/186/186
f 197/197/197 198/198/198 186/186/186
f 201/201/201 200/200/200 199/199/199
f 202/202/202 201/201/201 199/199/199
f 205/205/205 204/204/204 203/203/203
f 206/206/206 205/205/205 203/203/203
f 209/209/209 208/208/208 207/207/207
f 210/210/210 209/209/209 207/207/207
f 213/213/213 212/212/212 211/211/211
f 214/214/214 213/213/213 211/211/211
f 217/217/217 216/216/216 215/215/215
f 218/218/218 217/217/217 215/215/215
f 221/221/221 220/220/220 219/219/219
f 222/222/222 221/221/221 219/219/219
f 225/225/225 224/224/224 223/223/223
f 226/226/226 225/225/225 223/223/223
f 229/229/229 228/228/228 227/227/227
f 230/230/230 229/229/229 227/227/227
f 233/233/233 232/232/232 231/231/231
f 234/234/234 233/233/233 231/231/231
f 237/237/237 236/236/236 235/235/235
f 238/238/238 237/237/237 235/235/235
f 241/241/241 240/240/240 239/239/239
f 242/242/242 241/241/241 239/239/239
f 245/245/245 244/244/244 243/243/243
f 246/246/246 245/245/245 243/243/243
f 249/249/249 248/248/248 247/247/247
f 250/250/250 249/249/249 247/247/247
f 253/253/253 252/252/252 251/251/251
f 254/254/254 253/253/253 251/251/251
f 257/257/257 256/256/256 255/255/255
f 258/258/258 257/257/257 255/255/255
f 261/261/261 260/260/260 259/259/259
f 262/262/262 261/261/261 259/259/259
f 265/265/265 264/264/264 263/263/263
f 266/266/266 265/265/265 263/263/263
f 269/269/269 268/268/268 267/267/267
f 270/270/270 269/269/269 267/267/267
f 273/273/273 272/272/272 271/271/271
f 274/274/274 273/273/273 271/271/271
f 277/277/277 276/276/276 275/275/275
f 278/278/278 277/277/277 275/275/275
f 281/281/281 280/280/280 279/279/279
f 282/282/282 281/281/281 279/279/279
f 285/285/285 284/284/284 283/283/283
f 286/286/286 285/285/285 283/283/283
f 289/289/289 288/288/288 287/287/287
f 290/290/290 289/289/289 287/287/287
f 293/293/293 292/292/292 291/291/291
f 294/294/294 293/293/293 291/291/291
f 297/297/297 296/296/296 295/295/295
f 298/298/298 297/297/297 295/295/295
f 301/301/301 300/300/300 299/299/299
f 302/302/302 301/301/301 299/299/299
f 305/305/305 304/304/304 303/303/303
f 306/306/306 305/305/305 303/303/303
f 309/309/309 308/308/308 307/307/307
f 310/310/310 309/309/309 307/307/307
f 313/313/313 312/312/312 311/311/311
f 314/314/314 313/313/313 311/311/311
f 317/317/317 316/316/316 315/315/315
f 318/318/318 317/317/317 315/315/315
f 321/321/321 320/320/320 319/319/319
f 322/322/322 321/321/321 319/319/319
f 325/325/325 324/324/324 323/323/323
f 326/326/326 325/325/325 323/323/323
f 329/329/329 328/328/328 327/327/327
f 330/330/330 329/329/329 327/327/327
f 333/333/333 332/332/332 331/331/331
f 334/334/334 333/333/333 331/331/331
f 337/337/337 336/336/336 335/335/335
f 338/338/338 337/337/337 335/335/335
f 341/341/341 340/340/340 339/339/339
f 342/342/342 341/341/341 339/339/339
f 345/345/345 344/344/344 343/343/343
f 346/346/346 345/345/345 343/343/343
f 349/349/349 348/348/348 347/347/347
f 350/350/350 349/349/349 347/347/347
f 353/353/353 352/352/352 351/351/351
f 354/354/354 353/353/353 351/351/351
f 357/357/357 356/356/356 355/355/355
f 358/358/358 357/357/357 355/355/355
f 361/361/361 360/360/360 359/359/359
f 362/362/362 361/361/361 359/359/359
f 365/365/365 364/364/364 363/363/363
f 366/366/366 365/365/365 363/363/363
f 369/369/369 368/368/368 367/367/367
f 370/370/370 369/369/369 367/367/367
f 373/373/373 372/372/372 371/371/371
f 374/374/374 373/373/373 371/371/371
f 377/377/377 376/376/376 375/375/375
f 378/378/378 377/377/377 375/375/375
f 381/381/381 380/380/380 379/379/379
f 382/382/382 381/381/381 379/379/379
f 385/385/385 384/384/384 383/383/383
f 386/386/386 385/385/385 383/383/383
f 389/389/389 388/388/388 387/387/387
f 390/390/390 389/389/389 387/387/387
f 393/393/393 392/392/392 391/391/391
f 394/394/394 393/393/393 391/391/391
f 397/397/397 396/396/396 395/395/395
f 398/398/398 397/397/397 395/395/395
f 401/401/401 400/400/400 399/399/399
f 402/402/402 401/401/401 399/399/399
f 405/405/405 404/404/404 403/403/403
f 406/406/406 405/405/405 403/403/403
f 409/409/409 408/408/408 407/407/407
f 410/410/410 409/409/409 407/407/407
f 413/413/413 412/412/412 411/411/411
f 414/414/414 413/413/413 411/411/411
f 417/417/417 416/416/416 415/415/415
f 418/418/418 417/417/417 415/415/415
f 421/421/421 420/420/420 419/419/419
f 422/422/422 421/421/421 419/419/419
f 425/425/425 424/424/424 423/423/423
f 426/426/426 425/425/425 423/423/423
f 429/429/429 428/428/428 427/427/427
f 430/430/430 429/429/429 427/427/427
f 433/433/433 432/432/432 431/431/431
f 434/434/434 433/433/433 431/431/431
f 437/437/437 436/436/436 435/435/435
f 438/438/438 437/437/437 435/435/435
f 441/441/441 440/440/440 439/439/439
f 442/442/442 441/441/441 439/439/439
f 445/445/445 444/444/444 443/443/443
f 446/446/446 445/445/445 443/443/443
f 449/449/449 448/448/448 447/447/447
f 450/450/450 449/449/449 447/447/447
f 453/453/453 452/452/452 451/451/451
f 454/454/454 453/453/453 451/451/451
f 457/457/457 456/456/456 455/455/455
f 458/458/458 457/457/457 455/455/455
f 461/461/461 460/460/460 459/459/459
f 462/462/462 461/461/461 459/459/459
f 465/465/465 464/464/464 463/463/463
f 466/466/466 465/465/465 463/463/463
f 469/469/469 468/468/468 467/467/467
f 470/470/470 469/469/469 467/467/467
f 473/473/473 472/472/472 471/471/471
f 474/474/474 473/473/473 471/471/471
f 477/477/477 476/476/476 475/475/475
f 478/478/478 477/477/477 475/475/475
f 481/481/481 480/480/480 479/479/479
f 482/482/482 481/481/481 479/479/479
f 485/485/485 484/484/484 483/483/483
f 486/486/486 485/485/485 483/483/483
f 489/489/489 488/488/488 487/487/487
f 490/490/490 489/489/489 487/487/487
f 493/493/493 492/492/492 491/491/491
f 494/494/494 493/493/493 491/491/491
f 497/497/497 496/496/496 495/495/495
f 498/498/498 497/497/497 495/495/495
f 501/501/501 500/500/500 499/499/499
f 502/502/502 501/501/501 499/499/499
f 505/505/505 504/504/504 503/503/503
f 506/506/506 505/505/505 503/503/503
f 509/509/509 508/508/508 507/507/507
f 510/510/510 509/509/509 507/507/507
f 513/513/513 512/512/512 511/511/511
f 514/514/514 513/513/513 511/511/511
f 517/517/517 516/516/516 515/515/515
f 518/518/518 517/517/517 515/515/515
f 521/521/521 520/520/520 519/519/519
f 522/522/522 521/521/521 519/519/519
f 525/525/525 524/524/524 523/523/523
f 526/526/526 525/525/525 523/523/523
f 529/529/529 528/528/528 527/527/527
f 530/530/530 529/529/529 527/527/527
f 533/533/533 532/532/532 531/531/531
f 534/534/534 533/533/533 531/531/531
f 537/537/537 536/536/536 535/535/535
f 538/538/538 537/537/537 535/535/535
f 541/541/541 540/540/540 539/539/539
f 542/542/542 541/541/541 539/539/539
f 545/545/545 544/544/544 543/543/543
f 546/546/546 545/545/545 543/543/543
f 549/549/549 548/548/548 547/547/547
f 550/550/550 549/549/549 547/547/547
f 553/553/553 552/552/552 551/551/551
f 554/554/554 553/553/553 551/551/551
f 557/557/557 556/556/556 555/555/555
f 558/558/558 557/557/557 555/555/555
f 561/561/561 560/560/560 559/559/559
f 562/562/562 561/561/561 559/559/559
f 565/565/565 564/564/564 563/563/563
f 566/566/566 565/565/565 563/563/563
f 569/569/569 568/568/568 567/567/567
f 570/570/570 569/569/569 567/567/567
f 573/573/573 572/572/572 571/571/571
f 574/574/574 573/573/573 571/571/571
f 577/577/577 576/576/576 575/575/575
f 578/578/578 577/577/577 575/575/575
f 581/581/581 580/580/580 579/579/579
f 582/582/582 581/581/581 579/579/579
f 585/585/585 584/584/584 583/583/583
f 586/586/586 585/585/585 583/583/583
f 589/589/589 588/588/588 587/587/587
f 590/590/590 589/589/589 587/587/587
f 593/593/593 592/592/592 591/591/591
f 594/594/594 593/593/593 591/591/591
f 597/597/597 596/596/596 595/595/595
f 598/598/598 597/597/597 595/595/595
f 601/601/601 600/600/600 599/599/599
f 602/602/602 601/601/601 599/599/599
f 605/605/605 604/604/604 603/603/603
f 606/606/606 605/605/605 603/603/603
f 609/609/609 608/608/608 607/607/607
f 610/610/610 609/609/609 607/607/607
f 613/613/613 612/612/612 611/611/611
f 614/614/614 613/613/613 611/611/611
f 617/617/617 616/616/616 615/615/615
f 618/618/618 617/617/617 615/615/615
f 621/621/621 620/620/620 619/619/619
f 622/622/622 621/621/621 619/619/619
f 625/625/625 624/624/624 623/623/623
f 626/626/626 625/625/625 623/623/623
f 629/629/629 628/628/628 627/627/627
f 630/630/630 629/629/629 627/627/627
f 633/633/633 632/632/632 631/631/631
f 634/634/634 633/633/633 631/631/631
f 637/637/637 636/636/636 635/635/635
f 638/638/638 637/637/637 635/635/635
f 641/641/641 640/640/640 639/639/639
f 642/642/642 641/641/641 639/639/639
f 645/645/645 644/644/644 643/643/643
f 646/646/646 645/645/645 643/643/643
f 647/647/647 643/643/643 644/644/644
f 648/648/648 647/647/647 644/644/644
f 649/649/649 643/643/643 647/647/647
f 650/650/650 649/649/649 647/647/647
f 651/651/651 648/648/648 644/644/644
f 652/652/652 651/651/651 644/644/644
f 655/655/655 654/654/654 653/653/653
f 656/656/656 655/655/655 653/653/653
f 653/653/653 657/657/657 656/656/656
f 657/657/657 658/658/658 656/656/656
f 653/653/653 659/659/659 657/657/657
f 659/659/659 660/660/660 657/657/657
f 658/658/658 661/661/661 656/656/656
f 661/661/661 662/662/662 656/656/656
f 665/665/665 664/664/664 663/663/663
f 666/666/666 665/665/665 663/663/663
f 669/669/669 668/668/668 667/667/667
f 670/670/670 669/669/669 667/667/667
f 673/673/673 672/672/672 671/671/671
f 674/674/674 673/673/673 671/671/671
f 677/677/677 676/676/676 675/675/675
f 678/678/678 677/677/677 675/675/675
f 681/681/681 680/680/680 679/679/679
f 682/682/682 681/681/681 679/679/679
f 683/683/683 681/681/681 682/682/682
f 684/684/684 683/683/683 682/682/682
f 679/679/679 680/680/680 685/685/685
f 680/680/680 686/686/686 685/685/685
f 689/689/689 688/688/688 687/687/687
f 690/690/690 689/689/689 687/687/687
f 693/693/693 692/692/692 691/691/691
f 694/694/694 693/693/693 691/691/691
f 697/697/697 696/696/696 695/695/695
f 698/698/698 697/697/697 695/695/695
f 701/701/701 700/700/700 699/699/699
f 702/702/702 701/701/701 699/699/699
f 703/703/703 702/702/702 699/699/699
f 704/704/704 703/703/703 699/699/699
f 707/707/707 706/706/706 705/705/705
f 708/708/708 707/707/707 705/705/705
f 711/711/711 710/710/710 709/709/709
f 712/712/712 711/711/711 709/709/709
f 713/713/713 712/712/712 709/709/709
f 714/714/714 713/713/713 709/709/709
f 717/717/717 716/716/716 715/715/715
f 718/718/718 717/717/717 715/715/715
f 718/718/718 715/715/715 719/719/719
f 720/720/720 718/718/718 719/719/719
f 723/723/723 722/722/722 721/721/721
f 724/724/724 723/723/723 721/721/721
f 727/727/727 726/726/726 725/725/725
f 728/728/728 727/727/727 725/725/725
f 731/731/731 730/730/730 729/729/729
f 732/732/732 731/731/731 729/729/729
f 735/735/735 734/734/734 733/733/733
f 736/736/736 735/735/735 733/733/733
f 739/739/739 738/738/738 737/737/737
f 740/740/740 739/739/739 737/737/737
f 743/743/743 742/742/742 741/741/741
f 744/744/744 743/743/743 741/741/741
f 747/747/747 746/746/746 745/745/745
f 748/748/748 747/747/747 745/745/745
f 751/751/751 750/750/750 749/749/749
f 752/752/752 751/751/751 749/749/749
f 755/755/755 754/754/754 753/753/753
f 756/756/756 755/755/755 753/753/753
f 759/759/759 758/758/758 757/757/757
f 760/760/760 759/759/759 757/757/757
f 763/763/763 762/762/762 761/761/761
f 764/764/764 763/763/763 761/761/761
f 767/767/767 766/766/766 765/765/765
f 768/768/768 767/767/767 765/765/765
f 771/771/771 770/770/770 769/769/769
f 772/772/772 771/771/771 769/769/769
f 775/775/775 774/774/774 773/773/773
f 776/776/776 775/775/775 773/773/773
f 779/779/779 778/778/778 777/777/777
f 780/780/780 779/779/779 777/777/777
f 783/783/783 782/782/782 781/781/781
f 784/784/784 783/783/783 781/781/781
f 787/787/787 786/786/786 785/785/785
f 788/788/788 787/787/787 785/785/785
f 791/791/791 790/790/790 789/789/789
f 792/792/792 791/791/791 789/789/789
f 795/795/795 794/794/794 793/793/793
f 796/796/796 795/795/795 793/793/793
f 799/799/799 798/798/798 797/797/797
f 800/800/800 799/799/799 797/797/797
f 803/803/803 802/802/802 801/801/801
f 804/804/804 803/803/803 801/801/801
f 807/807/807 806/806/806 805/805/805
f 808/808/808 807/807/807 805/805/805
f 811/811/811 810/810/810 809/809/809
f 812/812/812 811/811/811 809/809/809
f 815/815/815 814/814/814 813/813/813
f 816/816/816 815/815/815 813/813/813
f 819/819/819 818/818/818 817/817/817
f 820/820/820 819/819/819 817/817/817
f 823/823/823 822/822/822 821/821/821
f 824/824/824 823/823/823 821/821/821
f 827/827/827 826/826/826 825/825/825
f 828/828/828 827/827/827 825/825/825
f 831/831/831 830/830/830 829/829/829
f 832/832/832 831/831/831 829/829/829
f 835/835/835 834/834/834 833/833/833
f 836/836/836 835/835/835 833/833/833
