g Wep_Tanto_Covered_01
v -3.309953 1.320118 -3.219271
v -1.854264 1.32013 -5.434085
v 0.1324297 1.32013 -6.244326
v 2.119124 1.320118 -5.434085
v 3.574813 1.320118 -3.219271
v 4.10887 1.320142 -0.1942158
v 3.574812 1.320118 2.830839
v 2.119124 1.320118 5.045652
v 0.1324297 1.32013 5.855894
v -1.854264 1.32013 5.045652
v -3.309953 1.320118 2.830839
v -3.844011 1.320118 -0.1942158
v -3.309953 2.457613 -3.219271
v -1.854264 2.457613 -5.434085
v 0.1324297 2.457607 -6.244326
v 2.119124 2.457613 -5.434085
v 3.574813 2.457613 -3.219271
v 4.10887 2.457589 -0.1942158
v 3.574812 2.457613 2.830839
v 2.119124 2.457613 5.045652
v 0.1324297 2.457607 5.855894
v -1.854264 2.457613 5.045652
v -3.309953 2.457613 2.830839
v -3.844011 2.457613 -0.1942158
v 0.1324297 1.32013 -0.1942158
v 0.1324297 2.457607 -0.1942158
v 0.8007647 2.457613 2.741575
v 0.8007647 9.004574 2.741575
v 0.8007647 13.95856 2.741575
v 0.8007647 19.58999 2.741575
v 0.8007647 2.457613 -3.216219
v 0.8007647 9.004574 -3.216219
v 0.8007647 13.95856 -3.216219
v 0.8007647 19.58999 -3.216219
v 1.124251 6.52768 1.658201
v 1.76512 8.103937 -0.2369405
v 1.124251 6.527645 -2.132845
v 1.76512 4.951281 -0.2369405
v 1.124251 11.48159 1.658201
v 1.76512 13.05789 -0.2369405
v 1.124251 11.48159 -2.132845
v 1.76512 9.905237 -0.2369405
v 1.124251 16.4356 1.658201
v 1.76512 18.0119 -0.2369405
v 1.124251 16.4356 -2.132845
v 1.76512 14.85922 -0.2369405
v 1.76512 2.457613 -0.1942158
v 1.76512 9.004562 -0.2369405
v 1.76512 13.95854 -0.2369405
v 1.76512 19.58999 -0.2369405
v 1.76512 19.58999 -0.2399921
v -0.1300214 2.457607 3.242064
v -0.1300214 9.004574 3.242064
v -0.1300214 13.95856 3.242064
v -0.1300214 19.58999 3.242064
v -0.1300214 2.457607 -3.716707
v -0.1300214 9.004574 -3.716707
v -0.1300214 13.95856 -3.716707
v -0.1300214 19.58999 -3.716707
v 1.121199 19.85367 3.008604
v 2.192366 19.85366 -0.2407551
v 1.121199 21.66055 3.008604
v 2.192366 21.66056 -0.2407551
v 1.121199 19.85367 -3.483248
v 1.121199 21.66055 -3.483248
v -0.1300214 19.85364 3.755522
v -0.1300214 21.66055 3.755522
v -0.1300214 19.85364 -4.230165
v -0.1300214 21.66055 -4.230165
v -1.057756 2.457607 2.741575
v -1.057756 9.004574 2.741575
v -1.057756 13.95856 2.741575
v -1.057756 19.58999 2.741575
v -1.057756 2.457607 -3.216219
v -1.057756 9.004574 -3.216219
v -1.057756 13.95856 -3.216219
v -1.057756 19.58999 -3.216219
v -1.384294 6.52768 1.658201
v -2.022111 8.103937 -0.2369405
v -1.384294 6.527645 -2.132845
v -2.022111 4.951292 -0.2369405
v -1.384294 11.48159 1.658201
v -2.022111 13.05789 -0.2369405
v -1.384294 11.48159 -2.132845
v -2.022111 9.905237 -0.2369405
v -1.384294 16.4356 1.658201
v -2.022111 18.0119 -0.2369405
v -1.384294 16.4356 -2.132845
v -2.022111 14.85922 -0.2369405
v -2.022111 2.457613 -0.1942158
v -2.022111 9.004574 -0.2369405
v -2.022111 13.95856 -0.2369405
v -2.022111 19.58999 -0.2369405
v -2.022111 19.58999 -0.2399921
v -1.37819 19.85366 3.008604
v -2.449357 19.85367 -0.2407551
v -1.37819 21.66055 3.008604
v -2.449357 21.66055 -0.2407551
v -1.37819 19.85366 -3.483248
v -1.37819 21.66055 -3.483248
v -0.1300214 23.28912 2.227354
v -0.1300214 23.98166 -0.2377033
v 0.6420733 23.28913 1.766539
v 1.304305 23.28913 -0.2392292
v 0.6420733 23.28913 -2.241182
v -0.1300214 23.28912 -2.701998
v -0.8990644 23.28912 1.766539
v -1.561296 23.28913 -0.2392292
v -0.8990644 23.28912 -2.241182
v -0.984957 -46.81837 2.363479
v 1.011803 -46.83268 2.362669
v -0.9824291 -45.98138 -6.183707
v 1.014331 -45.99568 -6.184518
v 1.470994 -46.27797 -3.335643
v -1.440778 -46.2571 -3.334463
v 1.470151 -46.55696 -0.4865885
v -1.44162 -46.53609 -0.4854083
v 1.587865 -15.73439 -1.524341
v 1.587862 -15.79408 1.337731
v 1.130341 -15.85354 4.199803
v -0.8664706 -15.85262 4.199821
v -1.323985 -15.79273 1.337761
v -1.323981 -15.73305 -1.524317
v -0.8664601 -15.67358 -4.386389
v 1.130351 -15.6745 -4.386401
v 1.588353 -0.1219571 -1.41195
v 1.588353 -0.1219571 1.450741
v 1.130836 -0.1219571 4.313427
v -0.865976 -0.1219571 4.313427
v -1.323493 -0.1219571 1.450741
v -1.323493 -0.1219571 -1.41195
v -0.865976 -0.1219571 -4.274642
v 1.130836 -0.1219571 -4.274642
v -1.570633 1.282209 4.900784
v 1.835492 1.282209 4.900784
v 1.831035 -0.1219571 4.89707
v -1.566175 -0.1219571 4.89707
v -1.566175 -0.1219571 -4.858279
v 1.831034 -0.1219571 -4.858279
v 1.835493 1.282209 -4.861999
v -1.570633 1.282209 -4.861999
v -1.98883 1.358038 1.545352
v 2.25369 1.358038 1.545352
v 2.483082 -0.1219571 1.577968
v -2.218222 -0.1219571 1.577968
v -1.98883 1.358038 -1.506567
v -2.218222 -0.1219571 -1.539183
v 2.25369 1.358038 -1.506567
v 2.483082 -0.1219571 -1.539183
v 1.588353 -13.41736 -1.482701
v 1.588353 -13.4619 1.379645
v 1.130836 -13.50645 4.241985
v -0.865976 -13.50645 4.241985
v -1.323493 -13.4619 1.379645
v -1.323493 -13.41736 -1.482701
v -0.865976 -13.37282 -4.345047
v 1.130836 -13.37282 -4.345047
v 1.040152 -42.18647 -5.830073
v -0.9566191 -42.17384 -5.829418
v -1.414783 -42.4224 -2.977646
v -1.415439 -42.67385 -0.1260161
v -0.9585866 -42.92819 2.725464
v 1.038184 -42.94081 2.724808
v 1.496349 -42.69226 -0.1269699
v 1.497005 -42.44081 -2.9786
v -1.336823 -24.63964 -1.809716
v -1.336919 -24.76332 1.050305
v -0.8794982 -24.8881 3.910291
v 1.117307 -24.89293 3.910148
v 1.574919 -24.77036 1.050103
v 1.575015 -24.64669 -1.809919
v 1.117595 -24.5219 -4.669905
v -0.8792109 -24.51708 -4.669762
v -1.367096 -33.5376 -2.294242
v -1.367409 -33.7252 0.5623043
v -0.9102089 -33.91481 3.418756
v 1.086583 -33.92354 3.418404
v 1.54441 -33.73794 0.5617917
v 1.544723 -33.55033 -2.294755
v 1.087523 -33.36072 -5.151212
v -0.909269 -33.35199 -5.150855
v -1.323493 -6.774604 -1.41195
v -1.323493 -6.774604 1.450741
v -0.865976 -6.774604 4.313427
v 1.130836 -6.774604 4.313427
v 1.588353 -6.774604 1.450741
v 1.588353 -6.774604 -1.41195
v 1.130836 -6.774604 -4.274642
v -0.865976 -6.774604 -4.274642
v 3.476603 -1.50308 -2.513921
v 3.304467 1.104808 -2.146733
v 3.324141 0.9763122 1.896381
v 3.487954 -1.64367 2.084881
v 4.688534 -2.637661 -0.2500415
v 4.407793 1.845038 -0.06920111
v 1.194933 -1.828814 2.084881
v 1.189214 -2.920192 -0.2500415
v 1.183582 -1.688224 -2.513933
v 1.011445 0.9196818 -2.146733
v 0.9084724 1.5625 -0.06920111
v 1.03112 0.7911801 1.896381
v 1.669768 -14.02671 3.379488
v 3.778729 -13.85643 3.379488
v 3.773509 -13.79178 1.264656
v 1.664548 -13.96206 1.264656
v 1.238036 -11.33293 -1.125491
v 1.232972 -11.27021 -3.177059
v 3.283908 -11.16775 -1.125491
v 3.278845 -11.10503 -3.177059
v 1.584531 -21.11827 5.115962
v 4.870166 -20.85299 5.115962
v 4.862034 -20.75226 1.82119
v 1.576399 -21.01754 1.82119
v 1.02726 -16.6486 -0.09131432
v 1.018202 -16.53641 -3.761185
v 4.686946 -16.35312 -0.09131432
v 4.677888 -16.24093 -3.761185
v 5.226635 1.561254 -0.09135008
v 5.429142 -1.952451 -0.2442241
v 4.526397 -0.9279608 1.854336
v 4.396379 0.9799361 1.666278
v 4.51485 -0.8003175 -2.27176
v 4.378834 1.095128 -1.948846
v 3.310473 -7.567987 3.332001
v 1.504073 -7.713837 3.332001
v 1.499602 -7.658461 1.520574
v 3.781153 -7.47425 1.520574
v 3.776706 -6.910655 -1.627851
v 1.564186 -7.089293 -1.627851
v 1.55985 -7.035589 -3.384471
v 3.311596 -6.894157 -3.384471
v 3.368406 -22.73267 3.413266
v 2.997694 -18.24217 -1.981557
v -1.854264 1.32013 -5.434085
v -1.854264 2.457613 -5.434085
v 0.1324297 1.32013 -6.244326
v 0.1324297 2.457607 -6.244326
v 2.119124 1.320118 -5.434085
v 2.119124 2.457613 -5.434085
v 3.574813 1.320118 -3.219271
v 3.574813 2.457613 -3.219271
v 4.10887 1.320142 -0.1942158
v 4.10887 2.457589 -0.1942158
v 3.574812 1.320118 2.830839
v 3.574812 2.457613 2.830839
v 2.119124 1.320118 5.045652
v 2.119124 2.457613 5.045652
v 0.1324297 1.32013 5.855894
v 0.1324297 2.457607 5.855894
v -1.854264 1.32013 5.045652
v -1.854264 2.457613 5.045652
v -3.309953 1.320118 2.830839
v -3.309953 2.457613 2.830839
v -3.844011 1.320118 -0.1942158
v -3.309953 1.320118 -3.219271
v -3.844011 2.457613 -0.1942158
v -3.309953 2.457613 -3.219271
v -1.854264 1.32013 -5.434085
v -3.309953 1.320118 -3.219271
v 0.1324297 1.32013 -6.244326
v 2.119124 1.320118 -5.434085
v 3.574813 1.320118 -3.219271
v 4.10887 1.320142 -0.1942158
v 3.574812 1.320118 2.830839
v 2.119124 1.320118 5.045652
v 0.1324297 1.32013 5.855894
v -1.854264 1.32013 5.045652
v -3.309953 1.320118 2.830839
v -3.844011 1.320118 -0.1942158
v -3.309953 2.457613 -3.219271
v -1.854264 2.457613 -5.434085
v 0.1324297 2.457607 -6.244326
v 2.119124 2.457613 -5.434085
v 3.574813 2.457613 -3.219271
v 4.10887 2.457589 -0.1942158
v 3.574812 2.457613 2.830839
v 2.119124 2.457613 5.045652
v 0.1324297 2.457607 5.855894
v -1.854264 2.457613 5.045652
v -3.309953 2.457613 2.830839
v -3.844011 2.457613 -0.1942158
v 1.76512 8.103937 -0.2369405
v 1.76512 8.103937 -0.2369405
v 1.124251 6.527645 -2.132845
v 1.76512 4.951281 -0.2369405
v 1.76512 13.05789 -0.2369405
v 1.76512 13.05789 -0.2369405
v 1.124251 11.48159 -2.132845
v 1.76512 9.905237 -0.2369405
v 1.76512 18.0119 -0.2369405
v 1.76512 18.0119 -0.2369405
v 1.124251 16.4356 -2.132845
v 1.76512 14.85922 -0.2369405
v 1.76512 2.457613 -0.1942158
v 1.76512 4.951281 -0.2369405
v 1.76512 9.004562 -0.2369405
v 1.76512 9.905237 -0.2369405
v 1.76512 13.95854 -0.2369405
v 1.76512 14.85922 -0.2369405
v 1.76512 19.58999 -0.2369405
v 1.124251 6.52768 1.658201
v 1.76512 8.103937 -0.2369405
v 1.76512 4.951281 -0.2369405
v 1.124251 11.48159 1.658201
v 1.76512 13.05789 -0.2369405
v 1.76512 9.905237 -0.2369405
v 1.124251 16.4356 1.658201
v 1.76512 18.0119 -0.2369405
v 1.76512 14.85922 -0.2369405
v 0.8007647 9.004574 2.741575
v 0.8007647 2.457613 2.741575
v 0.8007647 13.95856 2.741575
v 0.8007647 19.58999 2.741575
v 0.8007647 2.457613 -3.216219
v 0.8007647 9.004574 -3.216219
v 0.8007647 13.95856 -3.216219
v 0.8007647 19.58999 -3.216219
v 2.192366 19.85366 -0.2407551
v 2.192366 21.66056 -0.2407551
v 1.121199 19.85367 3.008604
v 1.121199 21.66055 3.008604
v 1.121199 19.85367 -3.483248
v 1.121199 21.66055 -3.483248
v 0.8007647 19.58999 2.741575
v 2.192366 19.85366 -0.2407551
v 1.121199 19.85367 3.008604
v -0.1300214 23.98166 -0.2377033
v 0.6420733 23.28913 1.766539
v 1.121199 19.85367 -3.483248
v 0.8007647 19.58999 -3.216219
v 2.192366 19.85366 -0.2407551
v 1.76512 19.58999 -0.2399921
v -0.1300214 23.98166 -0.2377033
v 1.304305 23.28913 -0.2392292
v 0.8007647 19.58999 2.741575
v -0.1300214 19.58999 3.242064
v 1.121199 19.85367 3.008604
v -0.1300214 19.58999 3.242064
v -0.1300214 19.85364 3.755522
v 1.121199 19.85367 3.008604
v -0.1300214 19.85364 -4.230165
v -0.1300214 19.58999 -3.716707
v 1.121199 19.85367 -3.483248
v -0.1300214 19.58999 -3.716707
v 0.8007647 19.58999 -3.216219
v 1.121199 19.85367 -3.483248
v -0.1300214 23.98166 -0.2377033
v 0.6420733 23.28913 -2.241182
v -2.022111 8.103937 -0.2369405
v -2.022111 8.103937 -0.2369405
v -1.384294 6.527645 -2.132845
v -2.022111 4.951292 -0.2369405
v -2.022111 13.05789 -0.2369405
v -2.022111 13.05789 -0.2369405
v -1.384294 11.48159 -2.132845
v -2.022111 9.905237 -0.2369405
v -2.022111 18.0119 -0.2369405
v -2.022111 18.0119 -0.2369405
v -1.384294 16.4356 -2.132845
v -2.022111 14.85922 -0.2369405
v -2.022111 2.457613 -0.1942158
v -2.022111 4.951292 -0.2369405
v -2.022111 9.004574 -0.2369405
v -2.022111 9.905237 -0.2369405
v -2.022111 13.95856 -0.2369405
v -2.022111 14.85922 -0.2369405
v -2.022111 19.58999 -0.2369405
v -1.384294 6.52768 1.658201
v -2.022111 4.951292 -0.2369405
v -2.022111 8.103937 -0.2369405
v -1.384294 11.48159 1.658201
v -2.022111 9.905237 -0.2369405
v -2.022111 13.05789 -0.2369405
v -1.384294 16.4356 1.658201
v -2.022111 14.85922 -0.2369405
v -2.022111 18.0119 -0.2369405
v -1.057756 9.004574 2.741575
v -0.1300214 9.004574 3.242064
v -1.057756 2.457607 2.741575
v -0.1300214 2.457607 3.242064
v -1.057756 13.95856 2.741575
v -0.1300214 13.95856 3.242064
v -1.057756 19.58999 2.741575
v -0.1300214 19.58999 3.242064
v -1.057756 2.457607 -3.216219
v -0.1300214 2.457607 -3.716707
v -1.057756 9.004574 -3.216219
v -0.1300214 9.004574 -3.716707
v -1.057756 13.95856 -3.216219
v -0.1300214 13.95856 -3.716707
v -1.057756 19.58999 -3.216219
v -0.1300214 19.58999 -3.716707
v -2.449357 19.85367 -0.2407551
v -2.449357 21.66055 -0.2407551
v -1.37819 19.85366 3.008604
v -1.37819 21.66055 3.008604
v -0.1300214 19.85364 3.755522
v -0.1300214 21.66055 3.755522
v -0.1300214 19.85364 -4.230165
v -0.1300214 21.66055 -4.230165
v -1.37819 19.85366 -3.483248
v -1.37819 21.66055 -3.483248
v -0.1300214 23.98166 -0.2377033
v -0.1300214 23.98166 -0.2377033
v -1.561296 23.28913 -0.2392292
v -0.1300214 23.28912 -2.701998
v -0.1300214 23.98166 -0.2377033
v -0.8990644 23.28912 -2.241182
v -2.449357 19.85367 -0.2407551
v -1.057756 19.58999 2.741575
v -1.37819 19.85366 3.008604
v -2.022111 19.58999 -0.2399921
v -1.057756 19.58999 -3.216219
v -2.449357 19.85367 -0.2407551
v -1.37819 19.85366 -3.483248
v -1.057756 19.58999 2.741575
v -1.37819 19.85366 3.008604
v -0.1300214 19.58999 3.242064
v -1.37819 19.85366 3.008604
v -0.1300214 19.85364 3.755522
v -0.1300214 19.58999 3.242064
v -0.1300214 23.98166 -0.2377033
v -0.1300214 23.28912 2.227354
v -0.8990644 23.28912 1.766539
v -1.057756 19.58999 -3.216219
v -0.1300214 19.58999 -3.716707
v -1.37819 19.85366 -3.483248
v -0.1300214 19.58999 -3.716707
v -0.1300214 19.85364 -4.230165
v -1.37819 19.85366 -3.483248
v 0.6420733 23.28913 1.766539
v 1.121199 21.66055 3.008604
v -0.1300214 23.28912 2.227354
v -0.1300214 21.66055 3.755522
v 1.304305 23.28913 -0.2392292
v 2.192366 21.66056 -0.2407551
v 0.6420733 23.28913 1.766539
v 1.121199 21.66055 3.008604
v 1.121199 21.66055 -3.483248
v 2.192366 21.66056 -0.2407551
v 0.6420733 23.28913 -2.241182
v 1.304305 23.28913 -0.2392292
v -0.1300214 21.66055 -4.230165
v 1.121199 21.66055 -3.483248
v -0.1300214 23.28912 -2.701998
v 0.6420733 23.28913 -2.241182
v -1.37819 21.66055 3.008604
v -2.449357 21.66055 -0.2407551
v -0.8990644 23.28912 1.766539
v -1.561296 23.28913 -0.2392292
v -1.561296 23.28913 -0.2392292
v -2.449357 21.66055 -0.2407551
v -0.8990644 23.28912 -2.241182
v -1.37819 21.66055 -3.483248
v -0.8990644 23.28912 -2.241182
v -1.37819 21.66055 -3.483248
v -0.1300214 23.28912 -2.701998
v -0.1300214 21.66055 -4.230165
v -0.1300214 21.66055 3.755522
v -1.37819 21.66055 3.008604
v -0.1300214 23.28912 2.227354
v -0.8990644 23.28912 1.766539
v -1.570633 1.282209 4.900784
v 1.835492 1.282209 4.900784
v 1.831035 -0.1219571 4.89707
v 1.835492 1.282209 4.900784
v 1.835492 1.282209 4.900784
v 2.25369 1.358038 1.545352
v 2.483082 -0.1219571 1.577968
v -1.98883 1.358038 1.545352
v -1.570633 1.282209 4.900784
v -1.570633 1.282209 4.900784
v -1.566175 -0.1219571 4.89707
v -2.218222 -0.1219571 1.577968
v -1.566175 -0.1219571 -4.858279
v -1.570633 1.282209 -4.861999
v -1.570633 1.282209 -4.861999
v -2.218222 -0.1219571 -1.539183
v -1.570633 1.282209 -4.861999
v 1.835493 1.282209 -4.861999
v -1.98883 1.358038 -1.506567
v 1.831034 -0.1219571 -4.858279
v 1.835493 1.282209 -4.861999
v 2.483082 -0.1219571 -1.539183
v 2.25369 1.358038 -1.506567
v 1.835493 1.282209 -4.861999
v -1.98883 1.358038 -1.506567
v -1.98883 1.358038 1.545352
v -2.218222 -0.1219571 -1.539183
v -2.218222 -0.1219571 1.577968
v 2.483082 -0.1219571 1.577968
v 2.25369 1.358038 1.545352
v 2.483082 -0.1219571 -1.539183
v 2.25369 1.358038 -1.506567
v 1.496349 -42.69226 -0.1269699
v 1.470151 -46.55696 -0.4865885
v 1.038184 -42.94081 2.724808
v 1.011803 -46.83268 2.362669
v -0.9585866 -42.92819 2.725464
v -0.984957 -46.81837 2.363479
v -1.415439 -42.67385 -0.1260161
v -1.44162 -46.53609 -0.4854083
v -1.414783 -42.4224 -2.977646
v -1.440778 -46.2571 -3.334463
v -0.9824291 -45.98138 -6.183707
v -0.9566191 -42.17384 -5.829418
v 1.470994 -46.27797 -3.335643
v 1.497005 -42.44081 -2.9786
v 1.014331 -45.99568 -6.184518
v 1.040152 -42.18647 -5.830073
v 1.588353 -6.774604 1.450741
v 1.588353 -13.4619 1.379645
v 1.130836 -6.774604 4.313427
v 1.130836 -13.50645 4.241985
v -0.865976 -13.50645 4.241985
v -0.865976 -6.774604 4.313427
v -1.323493 -13.4619 1.379645
v -1.323493 -6.774604 1.450741
v -1.323493 -13.41736 -1.482701
v -1.323493 -6.774604 -1.41195
v -0.865976 -13.37282 -4.345047
v -0.865976 -6.774604 -4.274642
v 1.130836 -13.37282 -4.345047
v 1.588353 -13.41736 -1.482701
v 1.130836 -6.774604 -4.274642
v 1.588353 -6.774604 -1.41195
v 1.831035 -0.1219571 4.89707
v -1.566175 -0.1219571 4.89707
v -1.566175 -0.1219571 -4.858279
v 1.831034 -0.1219571 -4.858279
v 2.483082 -0.1219571 1.577968
v -2.218222 -0.1219571 1.577968
v -2.218222 -0.1219571 -1.539183
v 2.483082 -0.1219571 -1.539183
v 1.588353 -13.4619 1.379645
v 1.588353 -13.41736 -1.482701
v 1.130836 -13.50645 4.241985
v 1.588353 -13.4619 1.379645
v 1.587862 -15.79408 1.337731
v -0.865976 -13.50645 4.241985
v 1.130836 -13.50645 4.241985
v 1.130341 -15.85354 4.199803
v -1.323493 -13.4619 1.379645
v -0.865976 -13.50645 4.241985
v -0.8664706 -15.85262 4.199821
v -1.323493 -13.41736 -1.482701
v -1.323493 -13.4619 1.379645
v -1.323985 -15.79273 1.337761
v -0.865976 -13.37282 -4.345047
v -1.323493 -13.41736 -1.482701
v -1.323981 -15.73305 -1.524317
v 1.130836 -13.37282 -4.345047
v -0.865976 -13.37282 -4.345047
v -0.8664601 -15.67358 -4.386389
v 1.587865 -15.73439 -1.524341
v 1.588353 -13.41736 -1.482701
v 1.130351 -15.6745 -4.386401
v 1.130836 -13.37282 -4.345047
v -0.9566191 -42.17384 -5.829418
v 1.040152 -42.18647 -5.830073
v -0.909269 -33.35199 -5.150855
v -0.9566191 -42.17384 -5.829418
v -1.414783 -42.4224 -2.977646
v -1.367096 -33.5376 -2.294242
v -1.414783 -42.4224 -2.977646
v -1.415439 -42.67385 -0.1260161
v -1.367409 -33.7252 0.5623043
v -1.415439 -42.67385 -0.1260161
v -0.9585866 -42.92819 2.725464
v -0.9102089 -33.91481 3.418756
v -0.9585866 -42.92819 2.725464
v 1.038184 -42.94081 2.724808
v 1.086583 -33.92354 3.418404
v 1.038184 -42.94081 2.724808
v 1.496349 -42.69226 -0.1269699
v 1.497005 -42.44081 -2.9786
v 1.496349 -42.69226 -0.1269699
v 1.54441 -33.73794 0.5617917
v 1.040152 -42.18647 -5.830073
v 1.497005 -42.44081 -2.9786
v 1.087523 -33.36072 -5.151212
v 1.544723 -33.55033 -2.294755
v 1.011803 -46.83268 2.362669
v 1.470151 -46.55696 -0.4865885
v -0.984957 -46.81837 2.363479
v -1.44162 -46.53609 -0.4854083
v -1.440778 -46.2571 -3.334463
v 1.470994 -46.27797 -3.335643
v 1.014331 -45.99568 -6.184518
v -0.9824291 -45.98138 -6.183707
v -1.323981 -15.73305 -1.524317
v -1.323985 -15.79273 1.337761
v -1.323985 -15.79273 1.337761
v -0.8664706 -15.85262 4.199821
v -1.336919 -24.76332 1.050305
v -0.8664706 -15.85262 4.199821
v 1.130341 -15.85354 4.199803
v -0.8794982 -24.8881 3.910291
v 1.130341 -15.85354 4.199803
v 1.587862 -15.79408 1.337731
v 1.117307 -24.89293 3.910148
v 1.574919 -24.77036 1.050103
v 1.587865 -15.73439 -1.524341
v 1.587862 -15.79408 1.337731
v 1.575015 -24.64669 -1.809919
v 1.130351 -15.6745 -4.386401
v 1.587865 -15.73439 -1.524341
v 1.117595 -24.5219 -4.669905
v -0.8664601 -15.67358 -4.386389
v 1.130351 -15.6745 -4.386401
v -0.8664601 -15.67358 -4.386389
v -1.323981 -15.73305 -1.524317
v -0.8792109 -24.51708 -4.669762
v -1.336823 -24.63964 -1.809716
v -1.323493 -0.1219571 -1.41195
v -1.323493 -0.1219571 1.450741
v -1.323493 -0.1219571 1.450741
v -0.865976 -0.1219571 4.313427
v -0.865976 -0.1219571 4.313427
v 1.130836 -0.1219571 4.313427
v 1.130836 -0.1219571 4.313427
v 1.588353 -0.1219571 1.450741
v 1.588353 -0.1219571 -1.41195
v 1.588353 -0.1219571 1.450741
v 1.130836 -0.1219571 -4.274642
v 1.588353 -0.1219571 -1.41195
v -0.865976 -0.1219571 -4.274642
v 1.130836 -0.1219571 -4.274642
v -0.865976 -0.1219571 -4.274642
v -1.323493 -0.1219571 -1.41195
v 5.226635 1.561254 -0.09135008
v 4.526397 -0.9279608 1.854336
v 5.226635 1.561254 -0.09135008
v 4.51485 -0.8003175 -2.27176
v 5.429142 -1.952451 -0.2442241
v 5.226635 1.561254 -0.09135008
v 3.304467 1.104808 -2.146733
v 1.011445 0.9196818 -2.146733
v 0.9084724 1.5625 -0.06920111
v 4.407793 1.845038 -0.06920111
v 1.03112 0.7911801 1.896381
v 3.324141 0.9763122 1.896381
v 1.194933 -1.828814 2.084881
v 3.487954 -1.64367 2.084881
v 3.310473 -7.567987 3.332001
v 3.487954 -1.64367 2.084881
v 3.487954 -1.64367 2.084881
v 3.781153 -7.47425 1.520574
v 4.688534 -2.637661 -0.2500415
v 3.781153 -7.47425 1.520574
v 1.189214 -2.920192 -0.2500415
v 1.194933 -1.828814 2.084881
v 1.499602 -7.658461 1.520574
v 1.504073 -7.713837 3.332001
v 1.183582 -1.688224 -2.513933
v 1.564186 -7.089293 -1.627851
v 1.189214 -2.920192 -0.2500415
v 4.688534 -2.637661 -0.2500415
v 3.776706 -6.910655 -1.627851
v 4.688534 -2.637661 -0.2500415
v 4.688534 -2.637661 -0.2500415
v 3.476603 -1.50308 -2.513921
v 3.311596 -6.894157 -3.384471
v 3.311596 -6.894157 -3.384471
v 1.55985 -7.035589 -3.384471
v 4.870166 -20.85299 5.115962
v 3.778729 -13.85643 3.379488
v 3.773509 -13.79178 1.264656
v 4.862034 -20.75226 1.82119
v 1.664548 -13.96206 1.264656
v 1.669768 -14.02671 3.379488
v 1.576399 -21.01754 1.82119
v 1.584531 -21.11827 5.115962
v 1.238036 -11.33293 -1.125491
v 1.02726 -16.6486 -0.09131432
v 4.686946 -16.35312 -0.09131432
v 3.283908 -11.16775 -1.125491
v 4.677888 -16.24093 -3.761185
v 3.278845 -11.10503 -3.177059
v 1.018202 -16.53641 -3.761185
v 1.232972 -11.27021 -3.177059
v 5.429142 -1.952451 -0.2442241
v 4.688534 -2.637661 -0.2500415
v 4.526397 -0.9279608 1.854336
v 3.487954 -1.64367 2.084881
v 3.487954 -1.64367 2.084881
v 3.324141 0.9763122 1.896381
v 4.526397 -0.9279608 1.854336
v 3.324141 0.9763122 1.896381
v 4.396379 0.9799361 1.666278
v 4.526397 -0.9279608 1.854336
v 3.324141 0.9763122 1.896381
v 4.407793 1.845038 -0.06920111
v 4.396379 0.9799361 1.666278
v 4.407793 1.845038 -0.06920111
v 5.226635 1.561254 -0.09135008
v 4.396379 0.9799361 1.666278
v 3.476603 -1.50308 -2.513921
v 4.688534 -2.637661 -0.2500415
v 4.51485 -0.8003175 -2.27176
v 5.429142 -1.952451 -0.2442241
v 5.226635 1.561254 -0.09135008
v 4.407793 1.845038 -0.06920111
v 4.378834 1.095128 -1.948846
v 4.407793 1.845038 -0.06920111
v 3.304467 1.104808 -2.146733
v 4.378834 1.095128 -1.948846
v 4.378834 1.095128 -1.948846
v 3.304467 1.104808 -2.146733
v 4.51485 -0.8003175 -2.27176
v 3.304467 1.104808 -2.146733
v 3.476603 -1.50308 -2.513921
v 4.51485 -0.8003175 -2.27176
v 1.669768 -14.02671 3.379488
v 1.504073 -7.713837 3.332001
v 3.778729 -13.85643 3.379488
v 3.310473 -7.567987 3.332001
v 3.781153 -7.47425 1.520574
v 1.499602 -7.658461 1.520574
v 3.773509 -13.79178 1.264656
v 1.664548 -13.96206 1.264656
v 3.778729 -13.85643 3.379488
v 3.310473 -7.567987 3.332001
v 3.773509 -13.79178 1.264656
v 3.773509 -13.79178 1.264656
v 1.238036 -11.33293 -1.125491
v 1.564186 -7.089293 -1.627851
v 3.283908 -11.16775 -1.125491
v 3.776706 -6.910655 -1.627851
v 1.55985 -7.035589 -3.384471
v 1.564186 -7.089293 -1.627851
v 3.311596 -6.894157 -3.384471
v 1.55985 -7.035589 -3.384471
v 3.278845 -11.10503 -3.177059
v 1.232972 -11.27021 -3.177059
v 3.283908 -11.16775 -1.125491
v 3.776706 -6.910655 -1.627851
v 3.278845 -11.10503 -3.177059
v 3.776706 -6.910655 -1.627851
v 3.311596 -6.894157 -3.384471
v 3.278845 -11.10503 -3.177059
v 1.584531 -21.11827 5.115962
v 4.870166 -20.85299 5.115962
v 4.870166 -20.85299 5.115962
v 4.862034 -20.75226 1.82119
v 3.368406 -22.73267 3.413266
v 4.862034 -20.75226 1.82119
v 1.576399 -21.01754 1.82119
v 3.368406 -22.73267 3.413266
v 1.576399 -21.01754 1.82119
v 1.584531 -21.11827 5.115962
v 3.368406 -22.73267 3.413266
v 1.018202 -16.53641 -3.761185
v 1.02726 -16.6486 -0.09131432
v 1.02726 -16.6486 -0.09131432
v 4.686946 -16.35312 -0.09131432
v 2.997694 -18.24217 -1.981557
v 4.686946 -16.35312 -0.09131432
v 4.677888 -16.24093 -3.761185
v 2.997694 -18.24217 -1.981557
v 4.677888 -16.24093 -3.761185
v 1.018202 -16.53641 -3.761185
v 2.997694 -18.24217 -1.981557
vt 0.7304688 0.8496094
vt 0.7304688 0.8496094
vt 0.7304688 0.8496094
vt 0.7304688 0.8496094
vt 0.7304688 0.8496094
vt 0.7304688 0.8496094
vt 0.7304688 0.8496094
vt 0.7304688 0.8496094
vt 0.7304688 0.8496094
vt 0.7304688 0.8496094
vt 0.7304688 0.8496094
vt 0.7304688 0.8496094
vt 0.7304688 0.8496094
vt 0.7304688 0.8496094
vt 0.7304688 0.8496094
vt 0.7304688 0.8496094
vt 0.7304688 0.8496094
vt 0.7304688 0.8496094
vt 0.7304688 0.8496094
vt 0.7304688 0.8496094
vt 0.7304688 0.8496094
vt 0.7304688 0.8496094
vt 0.7304688 0.8496094
vt 0.7304688 0.8496094
vt 0.7304688 0.8496094
vt 0.7304688 0.8496094
vt 0.7250977 0.2490234
vt 0.7250977 0.2490234
vt 0.7250977 0.2490234
vt 0.7250977 0.2490234
vt 0.7250977 0.2490234
vt 0.7250977 0.2490234
vt 0.7250977 0.2490234
vt 0.7250977 0.2490234
vt 0.7250977 0.2490234
vt 0.7304688 0.8496094
vt 0.7304688 0.8496094
vt 0.7304688 0.8496094
vt 0.7250977 0.2490234
vt 0.7304688 0.8496094
vt 0.7304688 0.8496094
vt 0.7304688 0.8496094
vt 0.7250977 0.2490234
vt 0.7304688 0.8496094
vt 0.7304688 0.8496094
vt 0.7304688 0.8496094
vt 0.7250977 0.2490234
vt 0.7250977 0.2490234
vt 0.7250977 0.2490234
vt 0.7250977 0.2490234
vt 0.7304688 0.8496094
vt 0.7299805 0.2548828
vt 0.7299805 0.2548828
vt 0.7299805 0.2548828
vt 0.7299805 0.2548828
vt 0.7299805 0.2548828
vt 0.7299805 0.2548828
vt 0.7299805 0.2548828
vt 0.7299805 0.2548828
vt 0.7304688 0.8496094
vt 0.7304688 0.8496094
vt 0.7304688 0.8496094
vt 0.7304688 0.8496094
vt 0.7304688 0.8496094
vt 0.7304688 0.8496094
vt 0.7304688 0.8496094
vt 0.7304688 0.8496094
vt 0.7304688 0.8496094
vt 0.7304688 0.8496094
vt 0.7250977 0.2490234
vt 0.7250977 0.2490234
vt 0.7250977 0.2490234
vt 0.7250977 0.2490234
vt 0.7250977 0.2490234
vt 0.7250977 0.2490234
vt 0.7250977 0.2490234
vt 0.7250977 0.2490234
vt 0.7250977 0.2490234
vt 0.7304688 0.8496094
vt 0.7304688 0.8496094
vt 0.7304688 0.8496094
vt 0.7250977 0.2490234
vt 0.7304688 0.8496094
vt 0.7304688 0.8496094
vt 0.7304688 0.8496094
vt 0.7250977 0.2490234
vt 0.7304688 0.8496094
vt 0.7304688 0.8496094
vt 0.7304688 0.8496094
vt 0.7250977 0.2490234
vt 0.7250977 0.2490234
vt 0.7250977 0.2490234
vt 0.7250977 0.2490234
vt 0.7304688 0.8496094
vt 0.7304688 0.8496094
vt 0.7304688 0.8496094
vt 0.7304688 0.8496094
vt 0.7304688 0.8496094
vt 0.7304688 0.8496094
vt 0.7304688 0.8496094
vt 0.7304688 0.8496094
vt 0.7304688 0.8496094
vt 0.7304688 0.8496094
vt 0.7304688 0.8496094
vt 0.7304688 0.8496094
vt 0.7304688 0.8496094
vt 0.7304688 0.8496094
vt 0.7304688 0.8496094
vt 0.7304688 0.8496094
vt 0.7304688 0.8486328
vt 0.7304688 0.8486328
vt 0.7304688 0.8486328
vt 0.7304688 0.8486328
vt 0.7304688 0.8486328
vt 0.7304688 0.8486328
vt 0.7304688 0.8486328
vt 0.7304688 0.8486328
vt 0.7304688 0.8486328
vt 0.7304688 0.8486328
vt 0.7304688 0.8486328
vt 0.7304688 0.8486328
vt 0.7304688 0.8486328
vt 0.7304688 0.8486328
vt 0.7304688 0.8486328
vt 0.7304688 0.8486328
vt 0.7304688 0.8486328
vt 0.7304688 0.8486328
vt 0.7304688 0.8486328
vt 0.7304688 0.8486328
vt 0.7304688 0.8486328
vt 0.7304688 0.8486328
vt 0.7304688 0.8486328
vt 0.7304688 0.8486328
vt 0.7304688 0.8486328
vt 0.7304688 0.8486328
vt 0.7304688 0.8486328
vt 0.7304688 0.8486328
vt 0.7304688 0.8486328
vt 0.7304688 0.8486328
vt 0.7304688 0.8486328
vt 0.7304688 0.8486328
vt 0.7304688 0.8486328
vt 0.7304688 0.8486328
vt 0.7304688 0.8486328
vt 0.7304688 0.8486328
vt 0.7304688 0.8486328
vt 0.7304688 0.8486328
vt 0.7304688 0.8486328
vt 0.7304688 0.8486328
vt 0.5532227 0.4404297
vt 0.5532227 0.4404297
vt 0.5532227 0.4404297
vt 0.5532227 0.4404297
vt 0.5532227 0.4404297
vt 0.5532227 0.4404297
vt 0.5532227 0.4404297
vt 0.5532227 0.4404297
vt 0.7304688 0.8486328
vt 0.7304688 0.8486328
vt 0.7304688 0.8486328
vt 0.7304688 0.8486328
vt 0.7304688 0.8486328
vt 0.7304688 0.8486328
vt 0.7304688 0.8486328
vt 0.7304688 0.8486328
vt 0.5532227 0.4404297
vt 0.5532227 0.4404297
vt 0.5532227 0.4404297
vt 0.5532227 0.4404297
vt 0.5532227 0.4404297
vt 0.5532227 0.4404297
vt 0.5532227 0.4404297
vt 0.5532227 0.4404297
vt 0.5532227 0.4404297
vt 0.5532227 0.4404297
vt 0.5532227 0.4404297
vt 0.5532227 0.4404297
vt 0.5532227 0.4404297
vt 0.5532227 0.4404297
vt 0.5532227 0.4404297
vt 0.5532227 0.4404297
vt 0.5532227 0.4404297
vt 0.5532227 0.4404297
vt 0.5532227 0.4404297
vt 0.5532227 0.4404297
vt 0.5532227 0.4404297
vt 0.5532227 0.4404297
vt 0.5532227 0.4404297
vt 0.5532227 0.4404297
vt 0.4902344 0.7890625
vt 0.4902344 0.7890625
vt 0.4902344 0.7890625
vt 0.4902344 0.7890625
vt 0.4902344 0.7890625
vt 0.4902344 0.7890625
vt 0.4902344 0.7890625
vt 0.4902344 0.7890625
vt 0.4902344 0.7890625
vt 0.4902344 0.7890625
vt 0.4902344 0.7890625
vt 0.4902344 0.7890625
vt 0.4902344 0.7890625
vt 0.4902344 0.7890625
vt 0.4902344 0.7890625
vt 0.4902344 0.7890625
vt 0.4902344 0.7890625
vt 0.4902344 0.7890625
vt 0.4902344 0.7890625
vt 0.4902344 0.7890625
vt 0.4902344 0.7890625
vt 0.4902344 0.7890625
vt 0.4902344 0.7890625
vt 0.4902344 0.7890625
vt 0.4902344 0.7890625
vt 0.4902344 0.7890625
vt 0.4902344 0.7890625
vt 0.4902344 0.7890625
vt 0.4902344 0.7890625
vt 0.4902344 0.7890625
vt 0.4902344 0.7890625
vt 0.4902344 0.7890625
vt 0.4902344 0.7890625
vt 0.4902344 0.7890625
vt 0.4902344 0.7890625
vt 0.4902344 0.7890625
vt 0.4902344 0.7890625
vt 0.4902344 0.7890625
vt 0.4902344 0.7890625
vt 0.4902344 0.7890625
vt 0.4902344 0.7890625
vt 0.4902344 0.7890625
vt 0.4902344 0.7890625
vt 0.4902344 0.7890625
vt 0.7304688 0.8496094
vt 0.7304688 0.8496094
vt 0.7304688 0.8496094
vt 0.7304688 0.8496094
vt 0.7304688 0.8496094
vt 0.7304688 0.8496094
vt 0.7304688 0.8496094
vt 0.7304688 0.8496094
vt 0.7304688 0.8496094
vt 0.7304688 0.8496094
vt 0.7304688 0.8496094
vt 0.7304688 0.8496094
vt 0.7304688 0.8496094
vt 0.7304688 0.8496094
vt 0.7304688 0.8496094
vt 0.7304688 0.8496094
vt 0.7304688 0.8496094
vt 0.7304688 0.8496094
vt 0.7304688 0.8496094
vt 0.7304688 0.8496094
vt 0.7304688 0.8496094
vt 0.7304688 0.8496094
vt 0.7304688 0.8496094
vt 0.7304688 0.8496094
vt 0.7304688 0.8496094
vt 0.7304688 0.8496094
vt 0.7304688 0.8496094
vt 0.7304688 0.8496094
vt 0.7304688 0.8496094
vt 0.7304688 0.8496094
vt 0.7304688 0.8496094
vt 0.7304688 0.8496094
vt 0.7304688 0.8496094
vt 0.7304688 0.8496094
vt 0.7304688 0.8496094
vt 0.7304688 0.8496094
vt 0.7304688 0.8496094
vt 0.7304688 0.8496094
vt 0.7304688 0.8496094
vt 0.7304688 0.8496094
vt 0.7304688 0.8496094
vt 0.7304688 0.8496094
vt 0.7304688 0.8496094
vt 0.7304688 0.8496094
vt 0.7304688 0.8496094
vt 0.7304688 0.8496094
vt 0.7304688 0.8496094
vt 0.7304688 0.8496094
vt 0.7250977 0.2490234
vt 0.7250977 0.2490234
vt 0.7250977 0.2490234
vt 0.7250977 0.2490234
vt 0.7250977 0.2490234
vt 0.7250977 0.2490234
vt 0.7250977 0.2490234
vt 0.7250977 0.2490234
vt 0.7250977 0.2490234
vt 0.7250977 0.2490234
vt 0.7250977 0.2490234
vt 0.7250977 0.2490234
vt 0.7250977 0.2490234
vt 0.7250977 0.2490234
vt 0.7250977 0.2490234
vt 0.7250977 0.2490234
vt 0.7250977 0.2490234
vt 0.7250977 0.2490234
vt 0.7250977 0.2490234
vt 0.7304688 0.8496094
vt 0.7304688 0.8496094
vt 0.7304688 0.8496094
vt 0.7304688 0.8496094
vt 0.7304688 0.8496094
vt 0.7304688 0.8496094
vt 0.7304688 0.8496094
vt 0.7304688 0.8496094
vt 0.7304688 0.8496094
vt 0.7299805 0.2548828
vt 0.7299805 0.2548828
vt 0.7299805 0.2548828
vt 0.7299805 0.2548828
vt 0.7299805 0.2548828
vt 0.7299805 0.2548828
vt 0.7299805 0.2548828
vt 0.7299805 0.2548828
vt 0.7304688 0.8496094
vt 0.7304688 0.8496094
vt 0.7304688 0.8496094
vt 0.7304688 0.8496094
vt 0.7304688 0.8496094
vt 0.7304688 0.8496094
vt 0.7304688 0.8496094
vt 0.7304688 0.8496094
vt 0.7304688 0.8496094
vt 0.7304688 0.8496094
vt 0.7304688 0.8496094
vt 0.7304688 0.8496094
vt 0.7304688 0.8496094
vt 0.7304688 0.8496094
vt 0.7304688 0.8496094
vt 0.7304688 0.8496094
vt 0.7304688 0.8496094
vt 0.7304688 0.8496094
vt 0.7304688 0.8496094
vt 0.7304688 0.8496094
vt 0.7304688 0.8496094
vt 0.7304688 0.8496094
vt 0.7304688 0.8496094
vt 0.7304688 0.8496094
vt 0.7304688 0.8496094
vt 0.7304688 0.8496094
vt 0.7304688 0.8496094
vt 0.7304688 0.8496094
vt 0.7304688 0.8496094
vt 0.7304688 0.8496094
vt 0.7304688 0.8496094
vt 0.7250977 0.2490234
vt 0.7250977 0.2490234
vt 0.7250977 0.2490234
vt 0.7250977 0.2490234
vt 0.7250977 0.2490234
vt 0.7250977 0.2490234
vt 0.7250977 0.2490234
vt 0.7250977 0.2490234
vt 0.7250977 0.2490234
vt 0.7250977 0.2490234
vt 0.7250977 0.2490234
vt 0.7250977 0.2490234
vt 0.7250977 0.2490234
vt 0.7250977 0.2490234
vt 0.7250977 0.2490234
vt 0.7250977 0.2490234
vt 0.7250977 0.2490234
vt 0.7250977 0.2490234
vt 0.7250977 0.2490234
vt 0.7304688 0.8496094
vt 0.7304688 0.8496094
vt 0.7304688 0.8496094
vt 0.7304688 0.8496094
vt 0.7304688 0.8496094
vt 0.7304688 0.8496094
vt 0.7304688 0.8496094
vt 0.7304688 0.8496094
vt 0.7304688 0.8496094
vt 0.7299805 0.2548828
vt 0.7299805 0.2548828
vt 0.7299805 0.2548828
vt 0.7299805 0.2548828
vt 0.7299805 0.2548828
vt 0.7299805 0.2548828
vt 0.7299805 0.2548828
vt 0.7299805 0.2548828
vt 0.7299805 0.2548828
vt 0.7299805 0.2548828
vt 0.7299805 0.2548828
vt 0.7299805 0.2548828
vt 0.7299805 0.2548828
vt 0.7299805 0.2548828
vt 0.7299805 0.2548828
vt 0.7299805 0.2548828
vt 0.7304688 0.8496094
vt 0.7304688 0.8496094
vt 0.7304688 0.8496094
vt 0.7304688 0.8496094
vt 0.7304688 0.8496094
vt 0.7304688 0.8496094
vt 0.7304688 0.8496094
vt 0.7304688 0.8496094
vt 0.7304688 0.8496094
vt 0.7304688 0.8496094
vt 0.7304688 0.8496094
vt 0.7304688 0.8496094
vt 0.7304688 0.8496094
vt 0.7304688 0.8496094
vt 0.7304688 0.8496094
vt 0.7304688 0.8496094
vt 0.7304688 0.8496094
vt 0.7304688 0.8496094
vt 0.7304688 0.8496094
vt 0.7304688 0.8496094
vt 0.7304688 0.8496094
vt 0.7304688 0.8496094
vt 0.7304688 0.8496094
vt 0.7304688 0.8496094
vt 0.7304688 0.8496094
vt 0.7304688 0.8496094
vt 0.7304688 0.8496094
vt 0.7304688 0.8496094
vt 0.7304688 0.8496094
vt 0.7304688 0.8496094
vt 0.7304688 0.8496094
vt 0.7304688 0.8496094
vt 0.7304688 0.8496094
vt 0.7304688 0.8496094
vt 0.7304688 0.8496094
vt 0.7304688 0.8496094
vt 0.7304688 0.8496094
vt 0.7304688 0.8496094
vt 0.7304688 0.8496094
vt 0.7304688 0.8496094
vt 0.7304688 0.8496094
vt 0.7304688 0.8496094
vt 0.7304688 0.8496094
vt 0.7304688 0.8496094
vt 0.7304688 0.8496094
vt 0.7304688 0.8496094
vt 0.7304688 0.8496094
vt 0.7304688 0.8496094
vt 0.7304688 0.8496094
vt 0.7304688 0.8496094
vt 0.7304688 0.8496094
vt 0.7304688 0.8496094
vt 0.7304688 0.8496094
vt 0.7304688 0.8496094
vt 0.7304688 0.8496094
vt 0.7304688 0.8496094
vt 0.7304688 0.8496094
vt 0.7304688 0.8496094
vt 0.7304688 0.8496094
vt 0.7304688 0.8496094
vt 0.7304688 0.8496094
vt 0.7304688 0.8496094
vt 0.7304688 0.8496094
vt 0.7304688 0.8496094
vt 0.7304688 0.8496094
vt 0.7304688 0.8496094
vt 0.7304688 0.8496094
vt 0.7304688 0.8496094
vt 0.7304688 0.8496094
vt 0.7304688 0.8496094
vt 0.7304688 0.8486328
vt 0.7304688 0.8486328
vt 0.7304688 0.8486328
vt 0.7304688 0.8486328
vt 0.7304688 0.8486328
vt 0.7304688 0.8486328
vt 0.7304688 0.8486328
vt 0.7304688 0.8486328
vt 0.7304688 0.8486328
vt 0.7304688 0.8486328
vt 0.7304688 0.8486328
vt 0.7304688 0.8486328
vt 0.7304688 0.8486328
vt 0.7304688 0.8486328
vt 0.7304688 0.8486328
vt 0.7304688 0.8486328
vt 0.7304688 0.8486328
vt 0.7304688 0.8486328
vt 0.7304688 0.8486328
vt 0.7304688 0.8486328
vt 0.7304688 0.8486328
vt 0.7304688 0.8486328
vt 0.7304688 0.8486328
vt 0.7304688 0.8486328
vt 0.7304688 0.8486328
vt 0.7304688 0.8486328
vt 0.7304688 0.8486328
vt 0.7304688 0.8486328
vt 0.7304688 0.8486328
vt 0.7304688 0.8486328
vt 0.7304688 0.8486328
vt 0.7304688 0.8486328
vt 0.7304688 0.8486328
vt 0.7304688 0.8486328
vt 0.7304688 0.8486328
vt 0.7304688 0.8486328
vt 0.7304688 0.8486328
vt 0.7304688 0.8486328
vt 0.7304688 0.8486328
vt 0.7304688 0.8486328
vt 0.7304688 0.8486328
vt 0.7304688 0.8486328
vt 0.7304688 0.8486328
vt 0.7304688 0.8486328
vt 0.7304688 0.8486328
vt 0.7304688 0.8486328
vt 0.7304688 0.8486328
vt 0.7304688 0.8486328
vt 0.5532227 0.4404297
vt 0.5532227 0.4404297
vt 0.5532227 0.4404297
vt 0.5532227 0.4404297
vt 0.5532227 0.4404297
vt 0.5532227 0.4404297
vt 0.5532227 0.4404297
vt 0.5532227 0.4404297
vt 0.5532227 0.4404297
vt 0.5532227 0.4404297
vt 0.5532227 0.4404297
vt 0.5532227 0.4404297
vt 0.5532227 0.4404297
vt 0.5532227 0.4404297
vt 0.5532227 0.4404297
vt 0.5532227 0.4404297
vt 0.7304688 0.8486328
vt 0.7304688 0.8486328
vt 0.7304688 0.8486328
vt 0.7304688 0.8486328
vt 0.7304688 0.8486328
vt 0.7304688 0.8486328
vt 0.7304688 0.8486328
vt 0.7304688 0.8486328
vt 0.7304688 0.8486328
vt 0.7304688 0.8486328
vt 0.7304688 0.8486328
vt 0.7304688 0.8486328
vt 0.7304688 0.8486328
vt 0.7304688 0.8486328
vt 0.7304688 0.8486328
vt 0.7304688 0.8486328
vt 0.7304688 0.8486328
vt 0.7304688 0.8486328
vt 0.7304688 0.8486328
vt 0.7304688 0.8486328
vt 0.7304688 0.8486328
vt 0.7304688 0.8486328
vt 0.7304688 0.8486328
vt 0.7304688 0.8486328
vt 0.7304688 0.8486328
vt 0.7304688 0.8486328
vt 0.7304688 0.8486328
vt 0.7304688 0.8486328
vt 0.7304688 0.8486328
vt 0.7304688 0.8486328
vt 0.7304688 0.8486328
vt 0.7304688 0.8486328
vt 0.5532227 0.4404297
vt 0.5532227 0.4404297
vt 0.5532227 0.4404297
vt 0.5532227 0.4404297
vt 0.5532227 0.4404297
vt 0.5532227 0.4404297
vt 0.5532227 0.4404297
vt 0.5532227 0.4404297
vt 0.5532227 0.4404297
vt 0.5532227 0.4404297
vt 0.5532227 0.4404297
vt 0.5532227 0.4404297
vt 0.5532227 0.4404297
vt 0.5532227 0.4404297
vt 0.5532227 0.4404297
vt 0.5532227 0.4404297
vt 0.5532227 0.4404297
vt 0.5532227 0.4404297
vt 0.5532227 0.4404297
vt 0.5532227 0.4404297
vt 0.5532227 0.4404297
vt 0.5532227 0.4404297
vt 0.5532227 0.4404297
vt 0.5532227 0.4404297
vt 0.7304688 0.8486328
vt 0.7304688 0.8486328
vt 0.7304688 0.8486328
vt 0.7304688 0.8486328
vt 0.7304688 0.8486328
vt 0.7304688 0.8486328
vt 0.7304688 0.8486328
vt 0.7304688 0.8486328
vt 0.5532227 0.4404297
vt 0.5532227 0.4404297
vt 0.5532227 0.4404297
vt 0.5532227 0.4404297
vt 0.5532227 0.4404297
vt 0.5532227 0.4404297
vt 0.5532227 0.4404297
vt 0.5532227 0.4404297
vt 0.5532227 0.4404297
vt 0.5532227 0.4404297
vt 0.5532227 0.4404297
vt 0.5532227 0.4404297
vt 0.5532227 0.4404297
vt 0.5532227 0.4404297
vt 0.5532227 0.4404297
vt 0.5532227 0.4404297
vt 0.5532227 0.4404297
vt 0.5532227 0.4404297
vt 0.5532227 0.4404297
vt 0.5532227 0.4404297
vt 0.5532227 0.4404297
vt 0.5532227 0.4404297
vt 0.5532227 0.4404297
vt 0.5532227 0.4404297
vt 0.5532227 0.4404297
vt 0.5532227 0.4404297
vt 0.5532227 0.4404297
vt 0.5532227 0.4404297
vt 0.5532227 0.4404297
vt 0.5532227 0.4404297
vt 0.5532227 0.4404297
vt 0.5532227 0.4404297
vt 0.5532227 0.4404297
vt 0.5532227 0.4404297
vt 0.5532227 0.4404297
vt 0.5532227 0.4404297
vt 0.5532227 0.4404297
vt 0.5532227 0.4404297
vt 0.5532227 0.4404297
vt 0.5532227 0.4404297
vt 0.4902344 0.7890625
vt 0.4902344 0.7890625
vt 0.4902344 0.7890625
vt 0.4902344 0.7890625
vt 0.4902344 0.7890625
vt 0.4902344 0.7890625
vt 0.4902344 0.7890625
vt 0.4902344 0.7890625
vt 0.4902344 0.7890625
vt 0.4902344 0.7890625
vt 0.4902344 0.7890625
vt 0.4902344 0.7890625
vt 0.4902344 0.7890625
vt 0.4902344 0.7890625
vt 0.4902344 0.7890625
vt 0.4902344 0.7890625
vt 0.4902344 0.7890625
vt 0.4902344 0.7890625
vt 0.4902344 0.7890625
vt 0.4902344 0.7890625
vt 0.4902344 0.7890625
vt 0.4902344 0.7890625
vt 0.4902344 0.7890625
vt 0.4902344 0.7890625
vt 0.4902344 0.7890625
vt 0.4902344 0.7890625
vt 0.4902344 0.7890625
vt 0.4902344 0.7890625
vt 0.4902344 0.7890625
vt 0.4902344 0.7890625
vt 0.4902344 0.7890625
vt 0.4902344 0.7890625
vt 0.4902344 0.7890625
vt 0.4902344 0.7890625
vt 0.4902344 0.7890625
vt 0.4902344 0.7890625
vt 0.4902344 0.7890625
vt 0.4902344 0.7890625
vt 0.4902344 0.7890625
vt 0.4902344 0.7890625
vt 0.4902344 0.7890625
vt 0.4902344 0.7890625
vt 0.4902344 0.7890625
vt 0.4902344 0.7890625
vt 0.4902344 0.7890625
vt 0.4902344 0.7890625
vt 0.4902344 0.7890625
vt 0.4902344 0.7890625
vt 0.4902344 0.7890625
vt 0.4902344 0.7890625
vt 0.4902344 0.7890625
vt 0.4902344 0.7890625
vt 0.4902344 0.7890625
vt 0.4902344 0.7890625
vt 0.4902344 0.7890625
vt 0.4902344 0.7890625
vt 0.4902344 0.7890625
vt 0.4902344 0.7890625
vt 0.4902344 0.7890625
vt 0.4902344 0.7890625
vt 0.4902344 0.7890625
vt 0.4902344 0.7890625
vt 0.4902344 0.7890625
vt 0.4902344 0.7890625
vt 0.4902344 0.7890625
vt 0.4902344 0.7890625
vt 0.4902344 0.7890625
vt 0.4902344 0.7890625
vt 0.4902344 0.7890625
vt 0.4902344 0.7890625
vt 0.4902344 0.7890625
vt 0.4902344 0.7890625
vt 0.4902344 0.7890625
vt 0.4902344 0.7890625
vt 0.4902344 0.7890625
vt 0.4902344 0.7890625
vt 0.4902344 0.7890625
vt 0.4902344 0.7890625
vt 0.4902344 0.7890625
vt 0.4902344 0.7890625
vt 0.4902344 0.7890625
vt 0.4902344 0.7890625
vt 0.4902344 0.7890625
vt 0.4902344 0.7890625
vt 0.4902344 0.7890625
vt 0.4902344 0.7890625
vt 0.4902344 0.7890625
vt 0.4902344 0.7890625
vt 0.4902344 0.7890625
vt 0.4902344 0.7890625
vt 0.4902344 0.7890625
vt 0.4902344 0.7890625
vt 0.4902344 0.7890625
vt 0.4902344 0.7890625
vt 0.4902344 0.7890625
vt 0.4902344 0.7890625
vt 0.4902344 0.7890625
vt 0.4902344 0.7890625
vt 0.4902344 0.7890625
vt 0.4902344 0.7890625
vt 0.4902344 0.7890625
vt 0.4902344 0.7890625
vt 0.4902344 0.7890625
vt 0.4902344 0.7890625
vt 0.4902344 0.7890625
vt 0.4902344 0.7890625
vt 0.4902344 0.7890625
vt 0.4902344 0.7890625
vt 0.4902344 0.7890625
vt 0.4902344 0.7890625
vt 0.4902344 0.7890625
vt 0.4902344 0.7890625
vt 0.4902344 0.7890625
vt 0.4902344 0.7890625
vt 0.4902344 0.7890625
vt 0.4902344 0.7890625
vt 0.4902344 0.7890625
vt 0.4902344 0.7890625
vt 0.4902344 0.7890625
vt 0.4902344 0.7890625
vt 0.4902344 0.7890625
vt 0.4902344 0.7890625
vt 0.4902344 0.7890625
vt 0.4902344 0.7890625
vt 0.4902344 0.7890625
vt 0.4902344 0.7890625
vt 0.4902344 0.7890625
vt 0.4902344 0.7890625
vt 0.4902344 0.7890625
vt 0.4902344 0.7890625
vt 0.4902344 0.7890625
vt 0.4902344 0.7890625
vt 0.4902344 0.7890625
vn -0.8354492 0 -0.5493164
vn -0.8354492 0 -0.5493164
vn -0.3776855 0 -0.9257813
vn 0.3776855 0 -0.9257813
vn 0.8354492 0 -0.5493164
vn 0.9848633 0 -0.1738281
vn 0.9848633 0 0.1738281
vn 0.8354492 0 0.5493164
vn 0.3776855 0 0.9257813
vn -0.3776855 0 0.9257813
vn -0.8354492 0 0.5493164
vn -0.9848633 0 0.1738281
vn -0.8354492 0 -0.5493164
vn -0.8354492 0 -0.5493164
vn -0.3776855 0 -0.9257813
vn 0.3776855 0 -0.9257813
vn 0.8354492 0 -0.5493164
vn 0.9848633 0 -0.1738281
vn 0.9848633 0 0.1738281
vn 0.8354492 0 0.5493164
vn 0.3776855 0 0.9257813
vn -0.3776855 0 0.9257813
vn -0.8354492 0 0.5493164
vn -0.9848633 0 0.1738281
vn 0 -1 0
vn 0 1 0
vn 0.9526367 0.004512787 0.3041992
vn 0.953125 0 0.3017578
vn 0.953125 0 0.3017578
vn 0.953125 -0.003347397 0.3022461
vn 0.9536133 0.0009841919 -0.3015137
vn 0.9536133 0 -0.3017578
vn 0.9536133 0 -0.3017578
vn 0.953125 -0.003335953 -0.3022461
vn 0.9511719 -0.0009684563 0.3081055
vn 0.949707 -0.004005432 -0.3132324
vn 0.9511719 -0.0009651184 -0.3078613
vn 0.949707 0.0009841919 -0.3127441
vn 0.9516602 0 0.307373
vn 0.949707 -0.004005432 -0.3132324
vn 0.9516602 0 -0.3071289
vn 0.949707 0.004005432 -0.3132324
vn 0.9516602 0.0005049706 0.3076172
vn 0.949707 -0.003335953 -0.3137207
vn 0.9516602 0.0005030632 -0.3076172
vn 0.949707 0.004005432 -0.3132324
vn 0.9526367 -0.005207062 -0.3039551
vn 0.9511719 0 -0.3078613
vn 0.9511719 0 -0.3078613
vn 0.9511719 0 -0.3078613
vn 0.5180664 -0.8388672 0.1674805
vn 0.4736328 0 0.8808594
vn 0.4736328 0 0.8808594
vn 0.4736328 0 0.8808594
vn 0.4736328 0 0.8808594
vn 0.4736328 0 -0.8808594
vn 0.4736328 0 -0.8808594
vn 0.4736328 0 -0.8808594
vn 0.4736328 0 -0.8808594
vn 0.949707 0 0.3129883
vn 0.949707 0 0.3129883
vn 0.949707 0 0.3129883
vn 0.949707 0 0.3129883
vn 0.949707 0 -0.3137207
vn 0.949707 0 -0.3137207
vn 0.5126953 0 0.8588867
vn 0.5126953 0 0.8588867
vn 0.5126953 0 -0.8588867
vn 0.5126953 0 -0.8588867
vn -0.9526367 0.004207611 0.3046875
vn -0.953125 0 0.3024902
vn -0.953125 0 0.3024902
vn -0.953125 -0.002973557 0.3029785
vn -0.953125 0.0006790161 -0.302002
vn -0.953125 0 -0.3024902
vn -0.953125 0 -0.3024902
vn -0.953125 -0.002962112 -0.3029785
vn -0.9511719 -0.0008597374 0.3081055
vn -0.949707 -0.003557205 -0.3125
vn -0.9511719 -0.0008568764 -0.3078613
vn -0.9501953 0.0006790161 -0.3120117
vn -0.9516602 0 0.307373
vn -0.949707 -0.003557205 -0.3125
vn -0.9516602 0 -0.307373
vn -0.949707 0.003557205 -0.3125
vn -0.9516602 0.0004482269 0.3076172
vn -0.949707 -0.002962112 -0.3129883
vn -0.9516602 0.000446558 -0.3076172
vn -0.949707 0.003557205 -0.3125
vn -0.9526367 -0.005207062 -0.3039551
vn -0.9511719 0 -0.3078613
vn -0.9511719 0 -0.3078613
vn -0.9511719 0 -0.3078613
vn -0.5180664 -0.8388672 0.1674805
vn -0.949707 0 0.3129883
vn -0.949707 0 0.3129883
vn -0.949707 0 0.3129883
vn -0.949707 0 0.3129883
vn -0.949707 0 -0.3137207
vn -0.949707 0 -0.3137207
vn 0.1593018 0.9501953 0.2670898
vn 0.1593018 0.9501953 0.2670898
vn 0.1593018 0.9501953 0.2670898
vn 0.4304199 0.8911133 0.1420898
vn 0.4301758 0.8916016 -0.142334
vn 0.1594238 0.9501953 -0.2670898
vn -0.4311523 0.8911133 0.142334
vn -0.4311523 0.8911133 0.142334
vn -0.4309082 0.8911133 -0.1425781
vn -0.000259161 -0.09265137 0.9956055
vn 0.9873047 -0.02128601 0.1567383
vn -0.9873047 0.02128601 -0.1567383
vn 0.0002593994 0.09265137 -0.9956055
vn 1 -0.006744385 -0.0003647804
vn -1 0.006744385 0.0003647804
vn 1 -0.006744385 -0.0003647804
vn -0.9873047 -0.007965088 0.1574707
vn 1 -0.001030922 -2.026558E-05
vn 1 -0.000620842 -1.174212E-05
vn 0.9873047 -0.004188538 0.1577148
vn 0 -0.0226593 0.9995117
vn -0.9873047 -0.002962112 0.1578369
vn -1 0.000620842 1.180172E-05
vn -0.9873047 0.004188538 -0.1577148
vn 0 0.0226593 -0.9995117
vn 0 -1 0
vn 0 -1 0
vn 0 -1 0
vn 0 -1 0
vn 0 -1 0
vn 0 -1 0
vn 0 -1 0
vn 0 -1 0
vn 0 -0.002645493 1
vn 0 -0.002645493 1
vn 0 -0.002645493 1
vn 0 -0.002645493 1
vn 0 -0.002649307 -1
vn 0 -0.002649307 -1
vn 0 -0.002649307 -1
vn 0 -0.002649307 -1
vn 0 1 0.007530212
vn 0 1 0.01506042
vn 0.9814453 -0.003623962 0.192749
vn -0.9799805 0.1546631 0.1256104
vn -0.9799805 0.1546631 -0.1256104
vn -0.9814453 -0.00362587 -0.192749
vn 0 1 -0.007530212
vn 0.9814453 -0.00362587 -0.192749
vn 1 -0.0001404285 0
vn 1 -7.021427E-05 0
vn 0.9873047 -0.002132416 0.1578369
vn 0 -0.01306152 1
vn -0.9873047 -0.002153397 0.1578369
vn -1 0.0001052618 0
vn -0.9873047 0.002363205 -0.1578369
vn 0 0.01309967 -1
vn 0.0001912117 0.08203125 -0.996582
vn -0.9873047 0.01867676 -0.1569824
vn -1 0.005813599 0.000282526
vn -0.9873047 -0.007202148 0.1575928
vn -0.000191927 -0.08203125 0.996582
vn 0.9873047 -0.01869202 0.1569824
vn 1 -0.006046295 -0.0003032684
vn 1 -0.006046295 -0.0003032684
vn -1 0.002092361 5.698204E-05
vn -1 0.002744675 8.517504E-05
vn -0.9873047 -0.004695892 0.1577148
vn -4.261732E-05 -0.04693604 0.9990234
vn 0.9873047 -0.01011658 0.1575928
vn 1 -0.002744675 -8.517504E-05
vn 0.9873047 0.004695892 -0.1577148
vn 4.154444E-05 0.04693604 -0.9990234
vn -0.9873047 0.01557159 -0.1572266
vn -1 0.004699707 0.0001988411
vn -0.9873047 -0.006290436 0.1575928
vn -0.0001264811 -0.0692749 0.9975586
vn 0.9873047 -0.01557159 0.1572266
vn 1 -0.004699707 -0.0001988411
vn 9.191036E-05 0.06182861 -0.9980469
vn 0.0001244545 0.0692749 -0.9975586
vn -1 0 0
vn -0.9873047 -0.0008382797 0.1578369
vn 0 -0.003538132 1
vn 0.9873047 -0.0005583763 0.1578369
vn 1 0 0
vn 1 0 0
vn 0 0.003557205 -1
vn -0.9873047 0.0008411407 -0.1578369
vn -0.01176453 0.145752 -0.9892578
vn -0.01119995 0.1386719 -0.9902344
vn -0.0748291 0.9267578 0.3684082
vn -0.005764008 0.07141113 0.9975586
vn 0.8896484 0.0004839897 0.4570313
vn -0.07684326 0.9511719 -0.2980957
vn -0.005764008 0.07141113 0.9975586
vn 0.02812195 -0.3483887 -0.9370117
vn -0.0123291 0.15271 -0.9882813
vn -0.01119232 0.1386719 -0.9902344
vn -0.07684326 0.9511719 -0.2980957
vn -0.0748291 0.9267578 0.3684082
vn -0.01921082 0.2380371 0.9711914
vn -0.01921082 0.2380371 0.9711914
vn 0.987793 0.1546631 0.002290726
vn 0.006355286 -0.07873535 -0.9970703
vn -0.9985352 0.05264282 0.004074097
vn -0.9980469 0.06494141 0.004447937
vn -0.01546478 0.1915283 0.9814453
vn 0.9648438 0.262207 0.005634308
vn -0.01921082 0.2380371 0.9711914
vn -0.01921082 0.2380371 0.9711914
vn 0.987793 0.1546631 0.002290726
vn 0.006355286 -0.07873535 -0.9970703
vn -0.9990234 0.04034424 0.003700256
vn -0.9990234 0.04034424 0.003700256
vn -0.01546478 0.1915283 0.9814453
vn 0.9648438 0.262207 0.005634308
vn 0.8852539 0.1049805 0.4528809
vn 0.9243164 0.03674316 0.3796387
vn 0.8852539 0.1049805 0.4528809
vn 0.8852539 0.1049805 0.4528809
vn 0.887207 0.1385498 -0.4396973
vn 0.887207 0.1385498 -0.4396973
vn -0.0166626 0.2064209 0.9785156
vn -0.0166626 0.2064209 0.9785156
vn 0.02812195 -0.3483887 -0.9370117
vn 0.9677734 0.00643158 0.251709
vn 0.02516174 -0.3117676 0.949707
vn -0.9960938 -0.08947754 -0.0002775192
vn -0.9970703 -0.07720947 -0.01654053
vn 0.9589844 -0.1224365 -0.255127
vn 0.05609131 -0.6943359 0.7172852
vn -0.6411133 -0.7670898 -0.02186584
vn -0.3776855 0 -0.9257813
vn -0.3776855 0 -0.9257813
vn 0.3776855 0 -0.9257813
vn 0.3776855 0 -0.9257813
vn 0.8354492 0 -0.5493164
vn 0.8354492 0 -0.5493164
vn 0.9848633 0 -0.1738281
vn 0.9848633 0 -0.1738281
vn 0.9848633 0 0.1738281
vn 0.9848633 0 0.1738281
vn 0.8354492 0 0.5493164
vn 0.8354492 0 0.5493164
vn 0.3776855 0 0.9257813
vn 0.3776855 0 0.9257813
vn -0.3776855 0 0.9257813
vn -0.3776855 0 0.9257813
vn -0.8354492 0 0.5493164
vn -0.8354492 0 0.5493164
vn -0.9848633 0 0.1738281
vn -0.9848633 0 0.1738281
vn -0.9848633 0 -0.1738281
vn -0.9848633 0 -0.1738281
vn -0.9848633 0 -0.1738281
vn -0.9848633 0 -0.1738281
vn 0 -1 0
vn 0 -1 0
vn 0 -1 0
vn 0 -1 0
vn 0 -1 0
vn 0 -1 0
vn 0 -1 0
vn 0 -1 0
vn 0 -1 0
vn 0 -1 0
vn 0 -1 0
vn 0 -1 0
vn 0 1 0
vn 0 1 0
vn 0 1 0
vn 0 1 0
vn 0 1 0
vn 0 1 0
vn 0 1 0
vn 0 1 0
vn 0 1 0
vn 0 1 0
vn 0 1 0
vn 0 1 0
vn 0.949707 -0.004020691 0.3132324
vn 0.949707 -0.004005432 -0.3132324
vn 0.9511719 -0.0009651184 -0.3078613
vn 0.949707 0.0009841919 -0.3127441
vn 0.949707 -0.004020691 0.3132324
vn 0.949707 -0.004005432 -0.3132324
vn 0.9516602 0 -0.3071289
vn 0.949707 0.004005432 -0.3132324
vn 0.949707 -0.003347397 0.3137207
vn 0.949707 -0.003335953 -0.3137207
vn 0.9516602 0.0005030632 -0.3076172
vn 0.949707 0.004005432 -0.3132324
vn 0.9501953 0.005348206 0.3120117
vn 0.9487305 0.004512787 0.3154297
vn 0.9511719 0 0.3081055
vn 0.949707 0.004020691 0.3132324
vn 0.9511719 0 0.3081055
vn 0.949707 0.004020691 0.3132324
vn 0.9511719 0 0.3081055
vn 0.9511719 -0.0009684563 0.3081055
vn 0.949707 -0.004020691 0.3132324
vn 0.9487305 0.004512787 0.3154297
vn 0.9516602 0 0.307373
vn 0.949707 -0.004020691 0.3132324
vn 0.949707 0.004020691 0.3132324
vn 0.9516602 0.0005049706 0.3076172
vn 0.949707 -0.003347397 0.3137207
vn 0.949707 0.004020691 0.3132324
vn 0.4736328 0 0.8808594
vn 0.4736328 0 0.8808594
vn 0.4736328 0 0.8808594
vn 0.4736328 0 0.8808594
vn 0.4736328 0 -0.8808594
vn 0.4736328 0 -0.8808594
vn 0.4736328 0 -0.8808594
vn 0.4736328 0 -0.8808594
vn 0.949707 0 -0.3137207
vn 0.949707 0 -0.3137207
vn 0.5126953 0 0.8588867
vn 0.5126953 0 0.8588867
vn 0.5126953 0 -0.8588867
vn 0.5126953 0 -0.8588867
vn 0.5258789 -0.8330078 0.1717529
vn 0.5258789 -0.8330078 0.1717529
vn 0.5336914 -0.8271484 0.1760254
vn 0.4304199 0.8911133 0.1420898
vn 0.4304199 0.8911133 0.1420898
vn 0.5336914 -0.8271484 -0.1762695
vn 0.5258789 -0.8330078 -0.1719971
vn 0.5258789 -0.8330078 -0.1719971
vn 0.5175781 -0.8388672 -0.1677246
vn 0.4301758 0.8916016 -0.142334
vn 0.4301758 0.8916016 -0.142334
vn 0.2666016 -0.8261719 0.4960938
vn 0.2666016 -0.8261719 0.4960938
vn 0.2666016 -0.8261719 0.4960938
vn 0.2631836 -0.8583984 0.4406738
vn 0.2631836 -0.8583984 0.4406738
vn 0.2631836 -0.8583984 0.4406738
vn 0.2631836 -0.8583984 -0.4406738
vn 0.2631836 -0.8583984 -0.4406738
vn 0.2631836 -0.8583984 -0.4406738
vn 0.2666016 -0.8261719 -0.4960938
vn 0.2666016 -0.8261719 -0.4960938
vn 0.2666016 -0.8261719 -0.4960938
vn 0.1594238 0.9501953 -0.2670898
vn 0.1594238 0.9501953 -0.2670898
vn -0.949707 -0.003570557 0.3127441
vn -0.949707 -0.003557205 -0.3125
vn -0.9511719 -0.0008568764 -0.3078613
vn -0.9501953 0.0006790161 -0.3120117
vn -0.949707 -0.003570557 0.3127441
vn -0.949707 -0.003557205 -0.3125
vn -0.9516602 0 -0.307373
vn -0.949707 0.003557205 -0.3125
vn -0.949707 -0.002973557 0.3129883
vn -0.949707 -0.002962112 -0.3129883
vn -0.9516602 0.000446558 -0.3076172
vn -0.949707 0.003557205 -0.3125
vn -0.9501953 0.005348206 0.3120117
vn -0.9492188 0.004207611 0.3149414
vn -0.9511719 0 0.3081055
vn -0.949707 0.003570557 0.3127441
vn -0.9511719 0 0.3081055
vn -0.949707 0.003570557 0.3127441
vn -0.9511719 0 0.3081055
vn -0.9511719 -0.0008597374 0.3081055
vn -0.9492188 0.004207611 0.3149414
vn -0.949707 -0.003570557 0.3127441
vn -0.9516602 0 0.307373
vn -0.949707 0.003570557 0.3127441
vn -0.949707 -0.003570557 0.3127441
vn -0.9516602 0.0004482269 0.3076172
vn -0.949707 0.003570557 0.3127441
vn -0.949707 -0.002973557 0.3129883
vn -0.4748535 0 0.8798828
vn -0.4748535 0 0.8798828
vn -0.4748535 0 0.8798828
vn -0.4748535 0 0.8798828
vn -0.4748535 0 0.8798828
vn -0.4748535 0 0.8798828
vn -0.4748535 0 0.8798828
vn -0.4748535 0 0.8798828
vn -0.4748535 0 -0.8798828
vn -0.4748535 0 -0.8798828
vn -0.4748535 0 -0.8798828
vn -0.4748535 0 -0.8798828
vn -0.4748535 0 -0.8798828
vn -0.4748535 0 -0.8798828
vn -0.4748535 0 -0.8798828
vn -0.4748535 0 -0.8798828
vn -0.949707 0 -0.3137207
vn -0.949707 0 -0.3137207
vn -0.5136719 0 0.8579102
vn -0.5136719 0 0.8579102
vn -0.5136719 0 0.8579102
vn -0.5136719 0 0.8579102
vn -0.5136719 0 -0.8579102
vn -0.5136719 0 -0.8579102
vn -0.5136719 0 -0.8579102
vn -0.5136719 0 -0.8579102
vn -0.4311523 0.8911133 0.142334
vn -0.4309082 0.8911133 -0.1425781
vn -0.4309082 0.8911133 -0.1425781
vn -0.1600342 0.9501953 -0.2670898
vn -0.1600342 0.9501953 -0.2670898
vn -0.1600342 0.9501953 -0.2670898
vn -0.5258789 -0.8330078 0.1717529
vn -0.5258789 -0.8330078 0.1717529
vn -0.5336914 -0.8271484 0.1760254
vn -0.5175781 -0.8388672 -0.1677246
vn -0.5258789 -0.8330078 -0.1719971
vn -0.5258789 -0.8330078 -0.1719971
vn -0.5336914 -0.8271484 -0.1762695
vn -0.267334 -0.8266602 0.4953613
vn -0.267334 -0.8266602 0.4953613
vn -0.267334 -0.8266602 0.4953613
vn -0.2636719 -0.8579102 0.4406738
vn -0.2636719 -0.8579102 0.4406738
vn -0.2636719 -0.8579102 0.4406738
vn -0.1600342 0.9501953 0.2670898
vn -0.1600342 0.9501953 0.2670898
vn -0.1600342 0.9501953 0.2670898
vn -0.267334 -0.8266602 -0.4953613
vn -0.267334 -0.8266602 -0.4953613
vn -0.267334 -0.8266602 -0.4953613
vn -0.2636719 -0.8579102 -0.4406738
vn -0.2636719 -0.8579102 -0.4406738
vn -0.2636719 -0.8579102 -0.4406738
vn 0.3991699 0.6274414 0.668457
vn 0.3991699 0.6274414 0.668457
vn 0.3991699 0.6274414 0.668457
vn 0.3991699 0.6274414 0.668457
vn 0.8432617 0.4597168 0.2783203
vn 0.8432617 0.4599609 0.2783203
vn 0.8432617 0.4599609 0.2783203
vn 0.8432617 0.4602051 0.2780762
vn 0.8427734 0.4604492 -0.2785645
vn 0.8427734 0.4602051 -0.2785645
vn 0.8427734 0.4602051 -0.2785645
vn 0.8427734 0.4599609 -0.2788086
vn 0.3991699 0.6274414 -0.668457
vn 0.3991699 0.6274414 -0.668457
vn 0.3991699 0.6274414 -0.668457
vn 0.3991699 0.6274414 -0.668457
vn -0.8432617 0.4602051 0.2780762
vn -0.8432617 0.4599609 0.2783203
vn -0.8432617 0.4599609 0.2783203
vn -0.8432617 0.4597168 0.2783203
vn -0.8427734 0.4599609 -0.2788086
vn -0.8427734 0.4602051 -0.2785645
vn -0.8427734 0.4602051 -0.2785645
vn -0.8427734 0.4604492 -0.2785645
vn -0.4003906 0.6274414 -0.6679688
vn -0.4001465 0.6274414 -0.6679688
vn -0.4001465 0.6274414 -0.6679688
vn -0.3999023 0.6269531 -0.668457
vn -0.3999023 0.6269531 0.668457
vn -0.4001465 0.6274414 0.6679688
vn -0.4001465 0.6274414 0.6679688
vn -0.4003906 0.6274414 0.6679688
vn 0 0.9995117 0.02259827
vn 0 0.9995117 0.02259827
vn 0.9814453 -0.003623962 0.192749
vn 0.9814453 -0.003623962 0.192749
vn 0.9799805 0.1546631 0.1256104
vn 0.9799805 0.1546631 0.1256104
vn 0.9799805 0.1546631 0.1256104
vn -0.9799805 0.1546631 0.1256104
vn -0.9799805 0.1546631 0.1256104
vn -0.9814453 -0.00362587 0.192749
vn -0.9814453 -0.00362587 0.192749
vn -0.9814453 -0.00362587 0.192749
vn -0.9814453 -0.00362587 -0.192749
vn -0.9814453 -0.00362587 -0.192749
vn -0.9799805 0.1546631 -0.1256104
vn -0.9799805 0.1546631 -0.1256104
vn 0 0.9995117 -0.02259827
vn 0 0.9995117 -0.02259827
vn 0 1 -0.01506042
vn 0.9814453 -0.00362587 -0.192749
vn 0.9814453 -0.00362587 -0.192749
vn 0.9799805 0.1546631 -0.1256104
vn 0.9799805 0.1546631 -0.1256104
vn 0.9799805 0.1546631 -0.1256104
vn -0.9882813 0.1531982 0
vn -0.9882813 0.1531982 0
vn -0.9882813 0.1531982 0
vn -0.9882813 0.1531982 0
vn 0.9882813 0.1531982 0
vn 0.9882813 0.1531982 0
vn 0.9882813 0.1531982 0
vn 0.9882813 0.1531982 0
vn 0.9873047 -0.01998901 0.1568604
vn 0.9873047 -0.02128601 0.1567383
vn -0.0002251863 -0.08734131 0.9960938
vn -0.0002596378 -0.09265137 0.9956055
vn -0.9873047 -0.007583618 0.1575928
vn -0.9873047 -0.007965088 0.1574707
vn -1 0.006278992 0.0003237724
vn -1 0.006744385 0.0003647804
vn -0.9873047 0.01998901 -0.1568604
vn -0.9873047 0.02128601 -0.1567383
vn 0.0002596378 0.09265137 -0.9956055
vn 0.0002254248 0.08734131 -0.9960938
vn 0.9873047 0.007965088 -0.1574707
vn 0.9873047 0.007392883 -0.1575928
vn 0.9873047 0.007965088 -0.1574707
vn 0.9873047 0.007392883 -0.1575928
vn 0.9873047 -0.001117706 0.1578369
vn 0.9873047 -0.002588272 0.1578369
vn 0 -0.007076263 1
vn 0 -0.01551819 1
vn -0.9873047 -0.002151489 0.1578369
vn -0.9873047 -0.000837326 0.1578369
vn -1 0.0001052618 0
vn -1 0 0
vn -0.9873047 0.002363205 -0.1578369
vn -0.9873047 0.0008406639 -0.1578369
vn 0 0.01553345 -1
vn 0 0.00711441 -1
vn 0.9873047 0.002155304 -0.1578369
vn 0.9873047 0.002155304 -0.1578369
vn 0.9873047 0.001121521 -0.1578369
vn 0.9873047 0.0005602837 -0.1578369
vn 0 -1 0
vn 0 -1 0
vn 0 -1 0
vn 0 -1 0
vn 0 -1 0
vn 0 -1 0
vn 0 -1 0
vn 0 -1 0
vn 1 -7.021427E-05 0
vn 1 -0.0001404285 0
vn 0.9873047 -0.002132416 0.1578369
vn 0.9873047 -0.002588272 0.1578369
vn 0.9873047 -0.005332947 0.1577148
vn 0 -0.01306152 1
vn 0 -0.01551819 1
vn 0 -0.02734375 0.9995117
vn -0.9873047 -0.002153397 0.1578369
vn -0.9873047 -0.002151489 0.1578369
vn -0.9873047 -0.003297806 0.1578369
vn -1 0.0001052618 0
vn -1 0.0001052618 0
vn -1 0.001030922 2.032518E-05
vn -0.9873047 0.002363205 -0.1578369
vn -0.9873047 0.002363205 -0.1578369
vn -0.9873047 0.005332947 -0.1577148
vn 0 0.01309967 -1
vn 0 0.01553345 -1
vn 0 0.02734375 -0.9995117
vn 0.9873047 0.003129959 -0.1578369
vn 0.9873047 0.002155304 -0.1578369
vn 0.9873047 0.003129959 -0.1578369
vn 0.9873047 0.002155304 -0.1578369
vn 0.0002254248 0.08734131 -0.9960938
vn 0.0001912117 0.08203125 -0.996582
vn -0.9873047 0.01374817 -0.1573486
vn -0.9873047 0.01867676 -0.1569824
vn -0.9873047 0.01998901 -0.1568604
vn -1 0.004047394 0.000156045
vn -1 0.005813599 0.000282526
vn -1 0.006278992 0.0003237724
vn -0.9873047 -0.005760193 0.1577148
vn -0.9873047 -0.007202148 0.1575928
vn -0.9873047 -0.007583618 0.1575928
vn -9.393692E-05 -0.06182861 0.9980469
vn -0.000191927 -0.08203125 0.996582
vn -0.0002251863 -0.08734131 0.9960938
vn 0.9873047 -0.01374817 0.1573486
vn 0.9873047 -0.01869202 0.1569824
vn 0.9873047 -0.01998901 0.1568604
vn 1 -0.006046295 -0.0003032684
vn 1 -0.006046295 -0.0003032684
vn 1 -0.004047394 -0.0001561642
vn 0.9873047 0.007392883 -0.1575928
vn 0.9873047 0.007392883 -0.1575928
vn 0.9873047 0.006290436 -0.1575928
vn 0.9873047 0.005760193 -0.1577148
vn -0.007167816 -0.9951172 -0.09747314
vn -0.007171631 -0.9951172 -0.09747314
vn -0.007171631 -0.9951172 -0.09747314
vn -0.007171631 -0.9951172 -0.09747314
vn -0.007171631 -0.9951172 -0.09747314
vn -0.007171631 -0.9951172 -0.09747314
vn -0.007171631 -0.9951172 -0.09747314
vn -0.007167816 -0.9951172 -0.09747314
vn -1 0.000620842 1.180172E-05
vn -1 0.001030922 2.032518E-05
vn -0.9873047 -0.002962112 0.1578369
vn -0.9873047 -0.003297806 0.1578369
vn -0.9873047 -0.004165649 0.1577148
vn 0 -0.0226593 0.9995117
vn 0 -0.02734375 0.9995117
vn -2.390146E-05 -0.03948975 0.9990234
vn 0.9873047 -0.004188538 0.1577148
vn 0.9873047 -0.005332947 0.1577148
vn 0.9873047 -0.008293152 0.1575928
vn 1 -0.002092361 -5.698204E-05
vn 1 -0.001030922 -2.026558E-05
vn 1 -0.000620842 -1.174212E-05
vn 0.9873047 0.004165649 -0.1577148
vn 0.9873047 0.003129959 -0.1578369
vn 0.9873047 0.003129959 -0.1578369
vn 2.485514E-05 0.03948975 -0.9990234
vn 0 0.02734375 -0.9995117
vn 0 0.0226593 -0.9995117
vn -0.9873047 0.004188538 -0.1577148
vn -0.9873047 0.005332947 -0.1577148
vn -0.9873047 0.008293152 -0.1575928
vn -0.9873047 0.01011658 -0.1575928
vn -1 0 0
vn -1 0 0
vn -0.9873047 0 0.1578369
vn -0.9873047 0 0.1578369
vn 0 0 1
vn 0 0 1
vn 0.9873047 0 0.1578369
vn 0.9873047 0 0.1578369
vn 1 0 0
vn 1 0 0
vn 0.9873047 0 -0.1578369
vn 0.9873047 0 -0.1578369
vn 0 0 -1
vn 0 0 -1
vn -0.9873047 0 -0.1578369
vn -0.9873047 0 -0.1578369
vn 0.9243164 0.03674316 0.3796387
vn 0.9243164 0.03674316 0.3796387
vn 0.887207 0.1385498 -0.4396973
vn 0.9238281 0.06964111 -0.3769531
vn 0.9238281 0.06964111 -0.3769531
vn 0.9238281 0.06964111 -0.3769531
vn -0.07684326 0.9511719 -0.2980957
vn -0.07678223 0.9511719 -0.2980957
vn -0.0748291 0.9267578 0.3684082
vn -0.0748291 0.9267578 0.3684082
vn -0.005764008 0.07141113 0.9975586
vn -0.005764008 0.07141113 0.9975586
vn -0.0166626 0.2064209 0.9785156
vn -0.0166626 0.2064209 0.9785156
vn 0.9677734 0.00643158 0.251709
vn 0.9672852 0.02420044 0.2526855
vn 0.8896484 0.0004839897 0.4570313
vn 0.8896484 0.0004839897 0.4570313
vn 0.02812195 -0.3483887 -0.9370117
vn 0.02812195 -0.3483887 -0.9370117
vn -0.9970703 -0.07220459 0.01391602
vn -0.9985352 -0.05358887 0.01448059
vn -0.9990234 -0.04446411 0.01020813
vn -0.9995117 -0.03491211 0.00139904
vn -0.9975586 -0.06481934 -0.0328064
vn 0.02516174 -0.3117676 0.949707
vn 0.02516174 -0.3117676 0.949707
vn 0.02516174 -0.3117676 0.949707
vn 0.9589844 -0.1224365 -0.255127
vn 0.9589844 -0.1224365 -0.255127
vn 0.8901367 0.04598999 -0.4533691
vn 0.8901367 0.04598999 -0.4533691
vn 0.8901367 0.04598999 -0.4533691
vn -0.01290131 0.15979 -0.9873047
vn -0.01290131 0.15979 -0.9873047
vn 0.987793 0.1546631 0.002290726
vn 0.987793 0.1546631 0.002290726
vn 0.006355286 -0.07873535 -0.9970703
vn 0.006355286 -0.07873535 -0.9970703
vn -1 -0.01324463 0.002063751
vn -1 -0.0002632141 0.00246048
vn -1 0.0127182 0.002857208
vn -1 0.0127182 0.002857208
vn -0.01546478 0.1915283 0.9814453
vn -0.01546478 0.1915283 0.9814453
vn 0.9648438 0.262207 0.005634308
vn 0.9648438 0.262207 0.005634308
vn -0.008926392 0.1105957 -0.9936523
vn -0.008926392 0.1105957 -0.9936523
vn -0.008926392 0.1105957 -0.9936523
vn -0.008926392 0.1105957 -0.9936523
vn 0.5668945 -0.6171875 0.5454102
vn 0.5600586 -0.621582 0.5478516
vn 0.5600586 -0.621582 0.5478516
vn 0.5532227 -0.625 0.5507813
vn 0.1625977 0.08093262 0.9833984
vn 0.1625977 0.08093262 0.9833984
vn 0.1625977 0.08093262 0.9833984
vn 0.208252 0.1099854 0.9716797
vn 0.208252 0.1099854 0.9716797
vn 0.208252 0.1099854 0.9716797
vn 0.09240723 0.8911133 0.4448242
vn 0.09240723 0.8911133 0.4448242
vn 0.09240723 0.8911133 0.4448242
vn 0.3063965 0.8510742 0.4262695
vn 0.3063965 0.8510742 0.4262695
vn 0.3063965 0.8510742 0.4262695
vn 0.5424805 -0.5981445 -0.5898438
vn 0.5478516 -0.5952148 -0.5878906
vn 0.5478516 -0.5952148 -0.5878906
vn 0.5527344 -0.5922852 -0.5859375
vn 0.2971191 0.8852539 -0.357666
vn 0.2971191 0.8852539 -0.357666
vn 0.2971191 0.8852539 -0.357666
vn 0.07659912 0.9257813 -0.3706055
vn 0.07659912 0.9257813 -0.3706055
vn 0.07659912 0.9257813 -0.3706055
vn 0.1798096 0.1777344 -0.9672852
vn 0.1798096 0.1777344 -0.9672852
vn 0.1798096 0.1777344 -0.9672852
vn 0.1295166 0.1466064 -0.9804688
vn 0.1295166 0.1466064 -0.9804688
vn 0.1295166 0.1466064 -0.9804688
vn -0.00060606 0.007507324 1
vn -0.00060606 0.007507324 1
vn -0.00060606 0.007507324 1
vn -0.00060606 0.007507324 1
vn -0.003269196 0.04046631 -0.9990234
vn -0.003269196 0.04046631 -0.9990234
vn -0.003269196 0.04046631 -0.9990234
vn -0.003269196 0.04046631 -0.9990234
vn 0.9970703 0.07427979 -0.0001915693
vn 0.9970703 0.07427979 -0.0001915693
vn 0.9970703 0.07427979 -0.0001915693
vn 0.9677734 -0.01133728 0.2509766
vn -0.009552002 0.1182861 0.9931641
vn -0.009552002 0.1182861 0.9931641
vn -0.009552002 0.1182861 0.9931641
vn -0.009552002 0.1182861 0.9931641
vn -0.9970703 0.07720947 0.004821777
vn -0.9970703 0.07720947 0.004821777
vn 0.003974915 -0.04922485 -0.9990234
vn 0.003974915 -0.04922485 -0.9990234
vn 0.003974915 -0.04922485 -0.9990234
vn 0.003974915 -0.04922485 -0.9990234
vn 0.9931641 -0.1156616 -0.005989075
vn 0.9931641 -0.1156616 -0.005989075
vn 0.9931641 -0.1156616 -0.005989075
vn 0.9663086 -0.02012634 -0.2561035
vn 0.9663086 -0.02012634 -0.2561035
vn 0.9663086 -0.02012634 -0.2561035
vn 0.05609131 -0.6943359 0.7172852
vn 0.05609131 -0.6943359 0.7172852
vn 0.7900391 -0.612793 -0.02067566
vn 0.7900391 -0.612793 -0.02067566
vn 0.7900391 -0.612793 -0.02067566
vn 0.0524292 -0.6494141 -0.7587891
vn 0.0524292 -0.6494141 -0.7587891
vn 0.0524292 -0.6494141 -0.7587891
vn -0.6816406 -0.7314453 -0.02067566
vn -0.6816406 -0.7314453 -0.02067566
vn -0.6816406 -0.7314453 -0.02067566
vn -0.6411133 -0.7670898 -0.02186584
vn -0.6411133 -0.7670898 -0.02186584
vn 0.05911255 -0.7319336 0.6787109
vn 0.05911255 -0.7319336 0.6787109
vn 0.05911255 -0.7319336 0.6787109
vn 0.7558594 -0.6542969 -0.02186584
vn 0.7558594 -0.6542969 -0.02186584
vn 0.7558594 -0.6542969 -0.02186584
vn 0.05563354 -0.6889648 -0.7226563
vn 0.05563354 -0.6889648 -0.7226563
vn 0.05563354 -0.6889648 -0.7226563
g Wep_Tanto_Covered_01_0
f 13/13/13 2/2/2 1/1/1
f 13/13/13 14/14/14 2/2/2
f 235/235/235 3/3/3 234/234/234
f 235/235/235 15/15/15 3/3/3
f 237/237/237 4/4/4 236/236/236
f 237/237/237 16/16/16 4/4/4
f 239/239/239 5/5/5 238/238/238
f 239/239/239 17/17/17 5/5/5
f 241/241/241 6/6/6 240/240/240
f 241/241/241 18/18/18 6/6/6
f 243/243/243 7/7/7 242/242/242
f 243/243/243 19/19/19 7/7/7
f 245/245/245 8/8/8 244/244/244
f 245/245/245 20/20/20 8/8/8
f 247/247/247 9/9/9 246/246/246
f 247/247/247 21/21/21 9/9/9
f 249/249/249 10/10/10 248/248/248
f 249/249/249 22/22/22 10/10/10
f 251/251/251 11/11/11 250/250/250
f 251/251/251 23/23/23 11/11/11
f 253/253/253 12/12/12 252/252/252
f 253/253/253 24/24/24 12/12/12
f 256/256/256 255/255/255 254/254/254
f 256/256/256 257/257/257 255/255/255
f 25/25/25 259/259/259 258/258/258
f 25/25/25 258/258/258 260/260/260
f 25/25/25 260/260/260 261/261/261
f 25/25/25 261/261/261 262/262/262
f 25/25/25 262/262/262 263/263/263
f 25/25/25 263/263/263 264/264/264
f 25/25/25 264/264/264 265/265/265
f 25/25/25 265/265/265 266/266/266
f 25/25/25 266/266/266 267/267/267
f 25/25/25 267/267/267 268/268/268
f 25/25/25 268/268/268 269/269/269
f 25/25/25 269/269/269 259/259/259
f 26/26/26 271/271/271 270/270/270
f 26/26/26 272/272/272 271/271/271
f 26/26/26 273/273/273 272/272/272
f 26/26/26 274/274/274 273/273/273
f 26/26/26 275/275/275 274/274/274
f 26/26/26 276/276/276 275/275/275
f 26/26/26 277/277/277 276/276/276
f 26/26/26 278/278/278 277/277/277
f 26/26/26 279/279/279 278/278/278
f 26/26/26 280/280/280 279/279/279
f 26/26/26 281/281/281 280/280/280
f 26/26/26 270/270/270 281/281/281
f 37/37/37 36/36/36 38/38/38
f 41/41/41 40/40/40 42/42/42
f 45/45/45 44/44/44 46/46/46
f 282/282/282 28/28/28 35/35/35
f 282/282/282 296/296/296 28/28/28
f 297/297/297 28/28/28 296/296/296
f 39/39/39 28/28/28 297/297/297
f 35/35/35 28/28/28 27/27/27
f 35/35/35 27/27/27 295/295/295
f 295/295/295 27/27/27 294/294/294
f 39/39/39 29/29/29 28/28/28
f 286/286/286 29/29/29 39/39/39
f 286/286/286 298/298/298 29/29/29
f 299/299/299 29/29/29 298/298/298
f 43/43/43 29/29/29 299/299/299
f 43/43/43 30/30/30 29/29/29
f 290/290/290 30/30/30 43/43/43
f 290/290/290 300/300/300 30/30/30
f 283/283/283 32/32/32 48/48/48
f 284/284/284 32/32/32 283/283/283
f 289/289/289 48/48/48 32/32/32
f 289/289/289 32/32/32 288/288/288
f 288/288/288 32/32/32 33/33/33
f 288/288/288 33/33/33 287/287/287
f 287/287/287 33/33/33 49/49/49
f 293/293/293 49/49/49 33/33/33
f 293/293/293 33/33/33 292/292/292
f 292/292/292 33/33/33 34/34/34
f 292/292/292 34/34/34 291/291/291
f 291/291/291 34/34/34 50/50/50
f 284/284/284 31/31/31 32/32/32
f 285/285/285 31/31/31 284/284/284
f 285/285/285 47/47/47 31/31/31
f 303/303/303 302/302/302 301/301/301
f 306/306/306 305/305/305 304/304/304
f 309/309/309 308/308/308 307/307/307
f 53/53/53 311/311/311 310/310/310
f 53/53/53 52/52/52 311/311/311
f 54/54/54 53/53/53 310/310/310
f 54/54/54 310/310/310 312/312/312
f 55/55/55 54/54/54 312/312/312
f 55/55/55 312/312/312 313/313/313
f 56/56/56 315/315/315 314/314/314
f 56/56/56 57/57/57 315/315/315
f 57/57/57 316/316/316 315/315/315
f 57/57/57 58/58/58 316/316/316
f 58/58/58 317/317/317 316/316/316
f 58/58/58 59/59/59 317/317/317
f 63/63/63 60/60/60 61/61/61
f 63/63/63 62/62/62 60/60/60
f 65/65/65 318/318/318 64/64/64
f 65/65/65 319/319/319 318/318/318
f 321/321/321 66/66/66 320/320/320
f 321/321/321 67/67/67 66/66/66
f 69/69/69 322/322/322 68/68/68
f 69/69/69 323/323/323 322/322/322
f 103/103/103 102/102/102 101/101/101
f 325/325/325 324/324/324 51/51/51
f 325/325/325 326/326/326 324/324/324
f 328/328/328 104/104/104 327/327/327
f 331/331/331 330/330/330 329/329/329
f 331/331/331 332/332/332 330/330/330
f 334/334/334 105/105/105 333/333/333
f 337/337/337 336/336/336 335/335/335
f 340/340/340 339/339/339 338/338/338
f 343/343/343 342/342/342 341/341/341
f 346/346/346 345/345/345 344/344/344
f 348/348/348 106/106/106 347/347/347
f 79/79/79 80/80/80 81/81/81
f 83/83/83 84/84/84 85/85/85
f 87/87/87 88/88/88 89/89/89
f 71/71/71 349/349/349 78/78/78
f 363/363/363 349/349/349 71/71/71
f 71/71/71 364/364/364 363/363/363
f 71/71/71 82/82/82 364/364/364
f 71/71/71 78/78/78 70/70/70
f 70/70/70 78/78/78 362/362/362
f 70/70/70 362/362/362 361/361/361
f 72/72/72 82/82/82 71/71/71
f 72/72/72 353/353/353 82/82/82
f 365/365/365 353/353/353 72/72/72
f 72/72/72 366/366/366 365/365/365
f 72/72/72 86/86/86 366/366/366
f 73/73/73 86/86/86 72/72/72
f 73/73/73 357/357/357 86/86/86
f 367/367/367 357/357/357 73/73/73
f 75/75/75 350/350/350 91/91/91
f 75/75/75 351/351/351 350/350/350
f 91/91/91 356/356/356 75/75/75
f 75/75/75 356/356/356 355/355/355
f 75/75/75 355/355/355 76/76/76
f 76/76/76 355/355/355 354/354/354
f 76/76/76 354/354/354 92/92/92
f 92/92/92 360/360/360 76/76/76
f 76/76/76 360/360/360 359/359/359
f 76/76/76 359/359/359 77/77/77
f 77/77/77 359/359/359 358/358/358
f 77/77/77 358/358/358 93/93/93
f 74/74/74 351/351/351 75/75/75
f 74/74/74 352/352/352 351/351/351
f 90/90/90 352/352/352 74/74/74
f 370/370/370 369/369/369 368/368/368
f 373/373/373 372/372/372 371/371/371
f 376/376/376 375/375/375 374/374/374
f 379/379/379 378/378/378 377/377/377
f 379/379/379 380/380/380 378/378/378
f 377/377/377 378/378/378 382/382/382
f 377/377/377 382/382/382 381/381/381
f 381/381/381 382/382/382 384/384/384
f 381/381/381 384/384/384 383/383/383
f 387/387/387 386/386/386 385/385/385
f 387/387/387 388/388/388 386/386/386
f 389/389/389 388/388/388 387/387/387
f 389/389/389 390/390/390 388/388/388
f 391/391/391 390/390/390 389/389/389
f 391/391/391 392/392/392 390/390/390
f 95/95/95 98/98/98 96/96/96
f 95/95/95 97/97/97 98/98/98
f 393/393/393 100/100/100 99/99/99
f 393/393/393 394/394/394 100/100/100
f 397/397/397 396/396/396 395/395/395
f 397/397/397 398/398/398 396/396/396
f 401/401/401 400/400/400 399/399/399
f 401/401/401 402/402/402 400/400/400
f 108/108/108 107/107/107 403/403/403
f 109/109/109 405/405/405 404/404/404
f 408/408/408 407/407/407 406/406/406
f 410/410/410 409/409/409 94/94/94
f 410/410/410 411/411/411 409/409/409
f 414/414/414 413/413/413 412/412/412
f 414/414/414 415/415/415 413/413/413
f 418/418/418 417/417/417 416/416/416
f 421/421/421 420/420/420 419/419/419
f 424/424/424 423/423/423 422/422/422
f 427/427/427 426/426/426 425/425/425
f 430/430/430 429/429/429 428/428/428
f 433/433/433 432/432/432 431/431/431
f 433/433/433 434/434/434 432/432/432
f 437/437/437 436/436/436 435/435/435
f 437/437/437 438/438/438 436/436/436
f 441/441/441 440/440/440 439/439/439
f 441/441/441 442/442/442 440/440/440
f 445/445/445 444/444/444 443/443/443
f 445/445/445 446/446/446 444/444/444
f 449/449/449 448/448/448 447/447/447
f 449/449/449 450/450/450 448/448/448
f 453/453/453 452/452/452 451/451/451
f 453/453/453 454/454/454 452/452/452
f 457/457/457 456/456/456 455/455/455
f 457/457/457 458/458/458 456/456/456
f 461/461/461 460/460/460 459/459/459
f 461/461/461 462/462/462 460/460/460
f 137/137/137 135/135/135 134/134/134
f 137/137/137 136/136/136 135/135/135
f 141/141/141 139/139/139 138/138/138
f 141/141/141 140/140/140 139/139/139
f 463/463/463 143/143/143 142/142/142
f 463/463/463 464/464/464 143/143/143
f 142/142/142 143/143/143 148/148/148
f 142/142/142 148/148/148 481/481/481
f 481/481/481 148/148/148 480/480/480
f 481/481/481 480/480/480 479/479/479
f 144/144/144 466/466/466 465/465/465
f 469/469/469 468/468/468 467/467/467
f 145/145/145 471/471/471 470/470/470
f 474/474/474 473/473/473 472/472/472
f 147/147/147 476/476/476 475/475/475
f 478/478/478 146/146/146 477/477/477
f 483/483/483 149/149/149 482/482/482
f 486/486/486 485/485/485 484/484/484
f 489/489/489 488/488/488 487/487/487
f 489/489/489 490/490/490 488/488/488
f 493/493/493 492/492/492 491/491/491
f 493/493/493 494/494/494 492/492/492
f 114/114/114 164/164/164 116/116/116
f 114/114/114 165/165/165 164/164/164
f 111/111/111 495/495/495 163/163/163
f 111/111/111 496/496/496 495/495/495
f 110/110/110 497/497/497 162/162/162
f 110/110/110 498/498/498 497/497/497
f 117/117/117 499/499/499 161/161/161
f 117/117/117 500/500/500 499/499/499
f 115/115/115 501/501/501 160/160/160
f 115/115/115 502/502/502 501/501/501
f 112/112/112 503/503/503 159/159/159
f 112/112/112 504/504/504 503/503/503
f 506/506/506 113/113/113 505/505/505
f 506/506/506 158/158/158 113/113/113
f 509/509/509 508/508/508 507/507/507
f 509/509/509 510/510/510 508/508/508
f 187/187/187 151/151/151 150/150/150
f 187/187/187 186/186/186 151/151/151
f 623/623/623 186/186/186 187/187/187
f 623/623/623 624/624/624 186/186/186
f 152/152/152 511/511/511 185/185/185
f 152/152/152 512/512/512 511/511/511
f 185/185/185 511/511/511 622/622/622
f 185/185/185 622/622/622 621/621/621
f 153/153/153 513/513/513 184/184/184
f 153/153/153 514/514/514 513/513/513
f 184/184/184 513/513/513 620/620/620
f 184/184/184 620/620/620 619/619/619
f 515/515/515 183/183/183 154/154/154
f 515/515/515 516/516/516 183/183/183
f 183/183/183 516/516/516 618/618/618
f 183/183/183 618/618/618 617/617/617
f 517/517/517 182/182/182 155/155/155
f 517/517/517 518/518/518 182/182/182
f 182/182/182 518/518/518 616/616/616
f 182/182/182 616/616/616 615/615/615
f 519/519/519 189/189/189 156/156/156
f 519/519/519 520/520/520 189/189/189
f 189/189/189 520/520/520 630/630/630
f 189/189/189 630/630/630 629/629/629
f 522/522/522 157/157/157 521/521/521
f 522/522/522 188/188/188 157/157/157
f 627/627/627 188/188/188 522/522/522
f 627/627/627 628/628/628 188/188/188
f 525/525/525 524/524/524 523/523/523
f 525/525/525 526/526/526 524/524/524
f 625/625/625 526/526/526 525/525/525
f 625/625/625 626/626/626 526/526/526
f 527/527/527 129/129/129 128/128/128
f 527/527/527 528/528/528 129/129/129
f 531/531/531 527/527/527 128/128/128
f 531/531/531 128/128/128 127/127/127
f 532/532/532 129/129/129 528/528/528
f 532/532/532 130/130/130 129/129/129
f 532/532/532 131/131/131 130/130/130
f 532/532/532 533/533/533 131/131/131
f 533/533/533 132/132/132 131/131/131
f 533/533/533 529/529/529 132/132/132
f 529/529/529 133/133/133 132/132/132
f 529/529/529 530/530/530 133/133/133
f 534/534/534 133/133/133 530/530/530
f 534/534/534 531/531/531 127/127/127
f 534/534/534 126/126/126 133/133/133
f 534/534/534 127/127/127 126/126/126
f 119/119/119 536/536/536 535/535/535
f 119/119/119 118/118/118 536/536/536
f 120/120/120 538/538/538 537/537/537
f 120/120/120 539/539/539 538/538/538
f 121/121/121 541/541/541 540/540/540
f 121/121/121 542/542/542 541/541/541
f 122/122/122 544/544/544 543/543/543
f 122/122/122 545/545/545 544/544/544
f 123/123/123 547/547/547 546/546/546
f 123/123/123 548/548/548 547/547/547
f 124/124/124 550/550/550 549/549/549
f 124/124/124 551/551/551 550/550/550
f 125/125/125 553/553/553 552/552/552
f 125/125/125 554/554/554 553/553/553
f 557/557/557 556/556/556 555/555/555
f 557/557/557 558/558/558 556/556/556
f 181/181/181 560/560/560 559/559/559
f 181/181/181 180/180/180 560/560/560
f 173/173/173 180/180/180 181/181/181
f 173/173/173 608/608/608 180/180/180
f 609/609/609 608/608/608 173/173/173
f 609/609/609 610/610/610 608/608/608
f 562/562/562 174/174/174 561/561/561
f 562/562/562 563/563/563 174/174/174
f 561/561/561 174/174/174 614/614/614
f 561/561/561 614/614/614 613/613/613
f 613/613/613 614/614/614 612/612/612
f 613/613/613 612/612/612 611/611/611
f 565/565/565 175/175/175 564/564/564
f 565/565/565 566/566/566 175/175/175
f 564/564/564 175/175/175 167/167/167
f 564/564/564 167/167/167 166/166/166
f 166/166/166 167/167/167 592/592/592
f 166/166/166 592/592/592 591/591/591
f 568/568/568 176/176/176 567/567/567
f 568/568/568 569/569/569 176/176/176
f 567/567/567 176/176/176 168/168/168
f 567/567/567 168/168/168 595/595/595
f 595/595/595 168/168/168 594/594/594
f 595/595/595 594/594/594 593/593/593
f 571/571/571 177/177/177 570/570/570
f 571/571/571 572/572/572 177/177/177
f 570/570/570 177/177/177 169/169/169
f 570/570/570 169/169/169 598/598/598
f 598/598/598 169/169/169 597/597/597
f 598/598/598 597/597/597 596/596/596
f 574/574/574 178/178/178 573/573/573
f 574/574/574 575/575/575 178/178/178
f 573/573/573 178/178/178 170/170/170
f 573/573/573 170/170/170 601/601/601
f 601/601/601 170/170/170 600/600/600
f 601/601/601 600/600/600 599/599/599
f 179/179/179 577/577/577 576/576/576
f 179/179/179 578/578/578 577/577/577
f 171/171/171 578/578/578 179/179/179
f 171/171/171 602/602/602 578/578/578
f 603/603/603 602/602/602 171/171/171
f 603/603/603 604/604/604 602/602/602
f 581/581/581 580/580/580 579/579/579
f 581/581/581 582/582/582 580/580/580
f 172/172/172 582/582/582 581/581/581
f 172/172/172 605/605/605 582/582/582
f 606/606/606 605/605/605 172/172/172
f 606/606/606 607/607/607 605/605/605
f 585/585/585 584/584/584 583/583/583
f 585/585/585 586/586/586 584/584/584
f 588/588/588 584/584/584 586/586/586
f 588/588/588 586/586/586 587/587/587
f 587/587/587 589/589/589 588/588/588
f 587/587/587 590/590/590 589/589/589
f 220/220/220 218/218/218 221/221/221
f 632/632/632 219/219/219 631/631/631
f 633/633/633 222/222/222 223/223/223
f 636/636/636 635/635/635 634/634/634
f 190/190/190 199/199/199 191/191/191
f 190/190/190 198/198/198 199/199/199
f 664/664/664 198/198/198 190/190/190
f 664/664/664 665/665/665 198/198/198
f 637/637/637 200/200/200 195/195/195
f 637/637/637 638/638/638 200/200/200
f 192/192/192 639/639/639 201/201/201
f 192/192/192 640/640/640 639/639/639
f 193/193/193 641/641/641 196/196/196
f 193/193/193 642/642/642 641/641/641
f 224/224/224 643/643/643 225/225/225
f 224/224/224 644/644/644 643/643/643
f 227/227/227 646/646/646 645/645/645
f 725/725/725 227/227/227 645/645/645
f 648/648/648 194/194/194 647/647/647
f 650/650/650 197/197/197 649/649/649
f 650/650/650 226/226/226 197/197/197
f 653/653/653 652/652/652 651/651/651
f 653/653/653 654/654/654 652/652/652
f 670/670/670 654/654/654 653/653/653
f 670/670/670 671/671/671 654/654/654
f 672/672/672 671/671/671 670/670/670
f 672/672/672 673/673/673 671/671/671
f 230/230/230 651/651/651 655/655/655
f 230/230/230 229/229/229 651/651/651
f 228/228/228 657/657/657 656/656/656
f 228/228/228 658/658/658 657/657/657
f 231/231/231 660/660/660 659/659/659
f 663/663/663 662/662/662 661/661/661
f 211/211/211 202/202/202 210/210/210
f 211/211/211 203/203/203 202/202/202
f 212/212/212 667/667/667 666/666/666
f 212/212/212 204/204/204 667/667/667
f 669/669/669 205/205/205 668/668/668
f 669/669/669 213/213/213 205/205/205
f 215/215/215 206/206/206 207/207/207
f 215/215/215 214/214/214 206/206/206
f 207/207/207 206/206/206 731/731/731
f 207/207/207 731/731/731 730/730/730
f 675/675/675 208/208/208 674/674/674
f 675/675/675 216/216/216 208/208/208
f 217/217/217 677/677/677 676/676/676
f 217/217/217 209/209/209 677/677/677
f 680/680/680 679/679/679 678/678/678
f 680/680/680 681/681/681 679/679/679
f 684/684/684 683/683/683 682/682/682
f 684/684/684 685/685/685 683/683/683
f 688/688/688 687/687/687 686/686/686
f 691/691/691 690/690/690 689/689/689
f 694/694/694 693/693/693 692/692/692
f 697/697/697 696/696/696 695/695/695
f 700/700/700 699/699/699 698/698/698
f 700/700/700 701/701/701 699/699/699
f 704/704/704 703/703/703 702/702/702
f 707/707/707 706/706/706 705/705/705
f 710/710/710 709/709/709 708/708/708
f 713/713/713 712/712/712 711/711/711
f 716/716/716 715/715/715 714/714/714
f 716/716/716 717/717/717 715/715/715
f 720/720/720 719/719/719 718/718/718
f 720/720/720 721/721/721 719/719/719
f 724/724/724 723/723/723 722/722/722
f 728/728/728 727/727/727 726/726/726
f 728/728/728 729/729/729 727/727/727
f 734/734/734 733/733/733 732/732/732
f 734/734/734 735/735/735 733/733/733
f 738/738/738 737/737/737 736/736/736
f 741/741/741 740/740/740 739/739/739
f 232/232/232 743/743/743 742/742/742
f 746/746/746 745/745/745 744/744/744
f 749/749/749 748/748/748 747/747/747
f 752/752/752 751/751/751 750/750/750
f 233/233/233 754/754/754 753/753/753
f 757/757/757 756/756/756 755/755/755
f 760/760/760 759/759/759 758/758/758
f 763/763/763 762/762/762 761/761/761
