# Export from Prisma3D 3.1.3
mtllib 圆柱体.mtl
o 圆柱体_1
usemtl Default
o 圆柱体
v -0.1545085 -0.05 0.4755283
v -0.1545085 0 0.4755283
v 0 0 0.5
v 0 -0.05 0.5
v -0.1545085 0 0.4755283
v -0.1545085 0.05 0.4755283
v 0 0.05 0.5
v 0 0 0.5
v -0.2938926 -0.05 0.4045085
v -0.2938926 0 0.4045085
v -0.1545085 0 0.4755283
v -0.1545085 -0.05 0.4755283
v -0.2938926 0 0.4045085
v -0.2938926 0.05 0.4045085
v -0.1545085 0.05 0.4755283
v -0.1545085 0 0.4755283
v -0.4045085 -0.05 0.2938926
v -0.4045085 0 0.2938926
v -0.2938926 0 0.4045085
v -0.2938926 -0.05 0.4045085
v -0.4045085 0 0.2938926
v -0.4045085 0.05 0.2938926
v -0.2938926 0.05 0.4045085
v -0.2938926 0 0.4045085
v -0.4755283 -0.05 0.1545085
v -0.4755283 0 0.1545085
v -0.4045085 0 0.2938926
v -0.4045085 -0.05 0.2938926
v -0.4755283 0 0.1545085
v -0.4755283 0.05 0.1545085
v -0.4045085 0.05 0.2938926
v -0.4045085 0 0.2938926
v -0.5 -0.05 -2.185569E-08
v -0.5 0 -2.185569E-08
v -0.4755283 0 0.1545085
v -0.4755283 -0.05 0.1545085
v -0.5 0 -2.185569E-08
v -0.5 0.05 -2.185569E-08
v -0.4755283 0.05 0.1545085
v -0.4755283 0 0.1545085
v -0.4755282 -0.05 -0.1545085
v -0.4755282 0 -0.1545085
v -0.5 0 -2.185569E-08
v -0.5 -0.05 -2.185569E-08
v -0.4755282 0 -0.1545085
v -0.4755282 0.05 -0.1545085
v -0.5 0.05 -2.185569E-08
v -0.5 0 -2.185569E-08
v -0.4045085 -0.05 -0.2938926
v -0.4045085 0 -0.2938926
v -0.4755282 0 -0.1545085
v -0.4755282 -0.05 -0.1545085
v -0.4045085 0 -0.2938926
v -0.4045085 0.05 -0.2938926
v -0.4755282 0.05 -0.1545085
v -0.4755282 0 -0.1545085
v -0.2938926 -0.05 -0.4045085
v -0.2938926 0 -0.4045085
v -0.4045085 0 -0.2938926
v -0.4045085 -0.05 -0.2938926
v -0.2938926 0 -0.4045085
v -0.2938926 0.05 -0.4045085
v -0.4045085 0.05 -0.2938926
v -0.4045085 0 -0.2938926
v -0.1545084 -0.05 -0.4755283
v -0.1545084 0 -0.4755283
v -0.2938926 0 -0.4045085
v -0.2938926 -0.05 -0.4045085
v -0.1545084 0 -0.4755283
v -0.1545084 0.05 -0.4755283
v -0.2938926 0.05 -0.4045085
v -0.2938926 0 -0.4045085
v 4.371139E-08 -0.05 -0.5
v 4.371139E-08 0 -0.5
v -0.1545084 0 -0.4755283
v -0.1545084 -0.05 -0.4755283
v 4.371139E-08 0 -0.5
v 4.371139E-08 0.05 -0.5
v -0.1545084 0.05 -0.4755283
v -0.1545084 0 -0.4755283
v 0.1545085 -0.05 -0.4755283
v 0.1545085 0 -0.4755283
v 4.371139E-08 0 -0.5
v 4.371139E-08 -0.05 -0.5
v 0.1545085 0 -0.4755283
v 0.1545085 0.05 -0.4755283
v 4.371139E-08 0.05 -0.5
v 4.371139E-08 0 -0.5
v 0.2938927 -0.05 -0.4045085
v 0.2938927 0 -0.4045085
v 0.1545085 0 -0.4755283
v 0.1545085 -0.05 -0.4755283
v 0.2938927 0 -0.4045085
v 0.2938927 0.05 -0.4045085
v 0.1545085 0.05 -0.4755283
v 0.1545085 0 -0.4755283
v 0.4045086 -0.05 -0.2938926
v 0.4045086 0 -0.2938926
v 0.2938927 0 -0.4045085
v 0.2938927 -0.05 -0.4045085
v 0.4045086 0 -0.2938926
v 0.4045086 0.05 -0.2938926
v 0.2938927 0.05 -0.4045085
v 0.2938927 0 -0.4045085
v 0.4755282 -0.05 -0.1545086
v 0.4755282 0 -0.1545086
v 0.4045086 0 -0.2938926
v 0.4045086 -0.05 -0.2938926
v 0.4755282 0 -0.1545086
v 0.4755282 0.05 -0.1545086
v 0.4045086 0.05 -0.2938926
v 0.4045086 0 -0.2938926
v 0.5 -0.05 5.96244E-09
v 0.5 0 5.96244E-09
v 0.4755282 0 -0.1545086
v 0.4755282 -0.05 -0.1545086
v 0.5 0 5.96244E-09
v 0.5 0.05 5.96244E-09
v 0.4755282 0.05 -0.1545086
v 0.4755282 0 -0.1545086
v 0.4755282 -0.05 0.1545086
v 0.4755282 0 0.1545086
v 0.5 0 5.96244E-09
v 0.5 -0.05 5.96244E-09
v 0.4755282 0 0.1545086
v 0.4755282 0.05 0.1545086
v 0.5 0.05 5.96244E-09
v 0.5 0 5.96244E-09
v 0.4045084 -0.05 0.2938927
v 0.4045084 0 0.2938927
v 0.4755282 0 0.1545086
v 0.4755282 -0.05 0.1545086
v 0.4045084 0 0.2938927
v 0.4045084 0.05 0.2938927
v 0.4755282 0.05 0.1545086
v 0.4755282 0 0.1545086
v 0.2938925 -0.05 0.4045087
v 0.2938925 0 0.4045087
v 0.4045084 0 0.2938927
v 0.4045084 -0.05 0.2938927
v 0.2938925 0 0.4045087
v 0.2938925 0.05 0.4045087
v 0.4045084 0.05 0.2938927
v 0.4045084 0 0.2938927
v 0.1545085 -0.05 0.4755283
v 0.1545085 0 0.4755283
v 0.2938925 0 0.4045087
v 0.2938925 -0.05 0.4045087
v 0.1545085 0 0.4755283
v 0.1545085 0.05 0.4755283
v 0.2938925 0.05 0.4045087
v 0.2938925 0 0.4045087
v 0 -0.05 0.5
v 0 0 0.5
v 0.1545085 0 0.4755283
v 0.1545085 -0.05 0.4755283
v 0 0 0.5
v 0 0.05 0.5
v 0.1545085 0.05 0.4755283
v 0.1545085 0 0.4755283
v 0 0.05100015 0.4648902
v 0 0.05 0.5
v -0.1545085 0.05 0.4755283
v -0.143659 0.05100015 0.4421366
v -0.143659 0.05100015 0.4421366
v -0.1545085 0.05 0.4755283
v -0.2938926 0.05 0.4045085
v -0.2732556 0.05100015 0.3761039
v -0.2732556 0.05100015 0.3761039
v -0.2938926 0.05 0.4045085
v -0.4045085 0.05 0.2938926
v -0.3761039 0.05100015 0.2732556
v -0.3761039 0.05100015 0.2732556
v -0.4045085 0.05 0.2938926
v -0.4755283 0.05 0.1545085
v -0.4421366 0.05100015 0.143659
v -0.4421366 0.05100015 0.143659
v -0.4755283 0.05 0.1545085
v -0.5 0.05 -2.185569E-08
v -0.4648902 0.05100015 -6.785856E-08
v -0.4648902 0.05100015 -6.785856E-08
v -0.5 0.05 -2.185569E-08
v -0.4755282 0.05 -0.1545085
v -0.4421366 0.05100015 -0.143659
v -0.4421366 0.05100015 -0.143659
v -0.4755282 0.05 -0.1545085
v -0.4045085 0.05 -0.2938926
v -0.3761039 0.05100015 -0.2732556
v -0.3761039 0.05100015 -0.2732556
v -0.4045085 0.05 -0.2938926
v -0.2938926 0.05 -0.4045085
v -0.2732556 0.05100015 -0.3761039
v -0.2732556 0.05100015 -0.3761039
v -0.2938926 0.05 -0.4045085
v -0.1545084 0.05 -0.4755283
v -0.1436588 0.05100015 -0.4421366
v -0.1436588 0.05100015 -0.4421366
v -0.1545084 0.05 -0.4755283
v 4.371139E-08 0.05 -0.5
v 4.0642E-08 0.05100015 -0.4648902
v 4.0642E-08 0.05100015 -0.4648902
v 4.371139E-08 0.05 -0.5
v 0.1545085 0.05 -0.4755283
v 0.143659 0.05100015 -0.4421366
v 0.143659 0.05100015 -0.4421366
v 0.1545085 0.05 -0.4755283
v 0.2938927 0.05 -0.4045085
v 0.2732557 0.05100015 -0.3761039
v 0.2732557 0.05100015 -0.3761039
v 0.2938927 0.05 -0.4045085
v 0.4045086 0.05 -0.2938926
v 0.376104 0.05100015 -0.2732556
v 0.376104 0.05100015 -0.2732556
v 0.4045086 0.05 -0.2938926
v 0.4755282 0.05 -0.1545086
v 0.4421366 0.05100015 -0.143659
v 0.4421366 0.05100015 -0.143659
v 0.4755282 0.05 -0.1545086
v 0.5 0.05 5.96244E-09
v 0.4648902 0.05100015 -2.842278E-09
v 0.4648902 0.05100015 -2.842278E-09
v 0.5 0.05 5.96244E-09
v 0.4755282 0.05 0.1545086
v 0.4421366 0.05100015 0.143659
v 0.4421366 0.05100015 0.143659
v 0.4755282 0.05 0.1545086
v 0.4045084 0.05 0.2938927
v 0.3761039 0.05100015 0.2732558
v 0.3761039 0.05100015 0.2732558
v 0.4045084 0.05 0.2938927
v 0.2938925 0.05 0.4045087
v 0.2732555 0.05100015 0.376104
v 0.2732555 0.05100015 0.376104
v 0.2938925 0.05 0.4045087
v 0.1545085 0.05 0.4755283
v 0.143659 0.05100015 0.4421366
v 0.143659 0.05100015 0.4421366
v 0.1545085 0.05 0.4755283
v 0 0.05 0.5
v 0 0.05100015 0.4648902
v -8.128399E-08 -0.05100015 0.4648902
v 0 -0.05 0.5
v 0.1545085 -0.05 0.4755283
v 0.143659 -0.05100015 0.4421366
v 0.143659 -0.05100015 0.4421366
v 0.1545085 -0.05 0.4755283
v 0.2938925 -0.05 0.4045087
v 0.2732555 -0.05100015 0.376104
v 0.2732555 -0.05100015 0.376104
v 0.2938925 -0.05 0.4045087
v 0.4045084 -0.05 0.2938927
v 0.3761039 -0.05100015 0.2732558
v 0.3761039 -0.05100015 0.2732558
v 0.4045084 -0.05 0.2938927
v 0.4755282 -0.05 0.1545086
v 0.4421366 -0.05100015 0.143659
v 0.4421366 -0.05100015 0.143659
v 0.4755282 -0.05 0.1545086
v 0.5 -0.05 5.96244E-09
v 0.4648902 -0.05100015 3.071301E-08
v 0.4648902 -0.05100015 3.071301E-08
v 0.5 -0.05 5.96244E-09
v 0.4755282 -0.05 -0.1545086
v 0.4421366 -0.05100015 -0.143659
v 0.4421366 -0.05100015 -0.143659
v 0.4755282 -0.05 -0.1545086
v 0.4045086 -0.05 -0.2938926
v 0.376104 -0.05100015 -0.2732556
v 0.376104 -0.05100015 -0.2732556
v 0.4045086 -0.05 -0.2938926
v 0.2938927 -0.05 -0.4045085
v 0.2732557 -0.05100015 -0.3761039
v 0.2732557 -0.05100015 -0.3761039
v 0.2938927 -0.05 -0.4045085
v 0.1545085 -0.05 -0.4755283
v 0.143659 -0.05100015 -0.4421366
v 0.143659 -0.05100015 -0.4421366
v 0.1545085 -0.05 -0.4755283
v 4.371139E-08 -0.05 -0.5
v 4.0642E-08 -0.05100015 -0.4648902
v 4.0642E-08 -0.05100015 -0.4648902
v 4.371139E-08 -0.05 -0.5
v -0.1545084 -0.05 -0.4755283
v -0.1436588 -0.05100015 -0.4421366
v -0.1436588 -0.05100015 -0.4421366
v -0.1545084 -0.05 -0.4755283
v -0.2938926 -0.05 -0.4045085
v -0.2732556 -0.05100015 -0.3761039
v -0.2732556 -0.05100015 -0.3761039
v -0.2938926 -0.05 -0.4045085
v -0.4045085 -0.05 -0.2938926
v -0.3761039 -0.05100015 -0.2732556
v -0.3761039 -0.05100015 -0.2732556
v -0.4045085 -0.05 -0.2938926
v -0.4755282 -0.05 -0.1545085
v -0.4421366 -0.05100015 -0.143659
v -0.4421366 -0.05100015 -0.143659
v -0.4755282 -0.05 -0.1545085
v -0.5 -0.05 -2.185569E-08
v -0.4648902 -0.05100015 -3.430328E-08
v -0.4648902 -0.05100015 -3.430328E-08
v -0.5 -0.05 -2.185569E-08
v -0.4755283 -0.05 0.1545085
v -0.4421366 -0.05100015 0.143659
v -0.4421366 -0.05100015 0.143659
v -0.4755283 -0.05 0.1545085
v -0.4045085 -0.05 0.2938926
v -0.3761039 -0.05100015 0.2732556
v -0.3761039 -0.05100015 0.2732556
v -0.4045085 -0.05 0.2938926
v -0.2938926 -0.05 0.4045085
v -0.2732556 -0.05100015 0.3761039
v -0.2732556 -0.05100015 0.3761039
v -0.2938926 -0.05 0.4045085
v -0.1545085 -0.05 0.4755283
v -0.143659 -0.05100015 0.4421366
v -0.143659 -0.05100015 0.4421366
v -0.1545085 -0.05 0.4755283
v 0 -0.05 0.5
v -8.128399E-08 -0.05100015 0.4648902
v -0.2732556 0.05100015 -0.3761039
v -0.1436588 0.05100015 -0.4421366
v -0.1436588 -0.05100015 -0.4421366
v -0.2732556 -0.05100015 -0.3761039
v 4.0642E-08 -0.05100015 -0.4648902
v -0.1436588 -0.05100015 -0.4421366
v -0.1436588 0.05100015 -0.4421366
v 4.0642E-08 0.05100015 -0.4648902
v 0.143659 -0.05100015 -0.4421366
v 4.0642E-08 -0.05100015 -0.4648902
v 4.0642E-08 0.05100015 -0.4648902
v 0.143659 0.05100015 -0.4421366
v 0.143659 0.05100015 -0.4421366
v 0.2732557 0.05100015 -0.3761039
v 0.2732557 -0.05100015 -0.3761039
v 0.143659 -0.05100015 -0.4421366
v 0.2732557 0.05100015 -0.3761039
v 0.376104 0.05100015 -0.2732556
v 0.376104 -0.05100015 -0.2732556
v 0.2732557 -0.05100015 -0.3761039
v 0.376104 0.05100015 -0.2732556
v 0.4421366 0.05100015 -0.143659
v 0.4421366 -0.05100015 -0.143659
v 0.376104 -0.05100015 -0.2732556
v 0.4421366 0.05100015 -0.143659
v 0.4648902 0.05100015 -2.842278E-09
v 0.4648902 -0.05100015 3.071301E-08
v 0.4421366 -0.05100015 -0.143659
v 0.4648902 0.05100015 -2.842278E-09
v 0.4421366 0.05100015 0.143659
v 0.4421366 -0.05100015 0.143659
v 0.4648902 -0.05100015 3.071301E-08
v 0.4421366 0.05100015 0.143659
v 0.3761039 0.05100015 0.2732558
v 0.3761039 -0.05100015 0.2732558
v 0.4421366 -0.05100015 0.143659
v 0.3761039 0.05100015 0.2732558
v 0.2732555 0.05100015 0.376104
v 0.2732555 -0.05100015 0.376104
v 0.3761039 -0.05100015 0.2732558
v 0.2732555 0.05100015 0.376104
v 0.143659 0.05100015 0.4421366
v 0.143659 -0.05100015 0.4421366
v 0.2732555 -0.05100015 0.376104
v 0.143659 0.05100015 0.4421366
v 0 0.05100015 0.4648902
v -8.128399E-08 -0.05100015 0.4648902
v 0.143659 -0.05100015 0.4421366
v 0 0.05100015 0.4648902
v -0.143659 0.05100015 0.4421366
v -0.143659 -0.05100015 0.4421366
v -8.128399E-08 -0.05100015 0.4648902
v -0.143659 0.05100015 0.4421366
v -0.2732556 0.05100015 0.3761039
v -0.2732556 -0.05100015 0.3761039
v -0.143659 -0.05100015 0.4421366
v -0.2732556 0.05100015 0.3761039
v -0.3761039 0.05100015 0.2732556
v -0.3761039 -0.05100015 0.2732556
v -0.2732556 -0.05100015 0.3761039
v -0.3761039 0.05100015 0.2732556
v -0.4421366 0.05100015 0.143659
v -0.4421366 -0.05100015 0.143659
v -0.3761039 -0.05100015 0.2732556
v -0.4421366 0.05100015 0.143659
v -0.4648902 0.05100015 -6.785856E-08
v -0.4648902 -0.05100015 -3.430328E-08
v -0.4421366 -0.05100015 0.143659
v -0.4648902 0.05100015 -6.785856E-08
v -0.4421366 0.05100015 -0.143659
v -0.4421366 -0.05100015 -0.143659
v -0.4648902 -0.05100015 -3.430328E-08
v -0.4421366 0.05100015 -0.143659
v -0.3761039 0.05100015 -0.2732556
v -0.3761039 -0.05100015 -0.2732556
v -0.4421366 -0.05100015 -0.143659
v -0.3761039 0.05100015 -0.2732556
v -0.2732556 0.05100015 -0.3761039
v -0.2732556 -0.05100015 -0.3761039
v -0.3761039 -0.05100015 -0.2732556
vn -0.3090169 0 0.9510565
vn -0.3090169 0 0.9510565
vn 1.072847E-08 0 1
vn 1.072847E-08 0 1
vn -0.3090169 0 0.9510565
vn -0.3090169 0 0.9510565
vn 1.072847E-08 0 1
vn 1.072847E-08 0 1
vn -0.5877853 0 0.809017
vn -0.5877853 0 0.8090169
vn -0.3090169 0 0.9510565
vn -0.3090169 0 0.9510565
vn -0.5877853 0 0.8090169
vn -0.5877853 0 0.809017
vn -0.3090169 0 0.9510565
vn -0.3090169 0 0.9510565
vn -0.809017 0 0.5877853
vn -0.809017 0 0.5877853
vn -0.5877853 0 0.8090169
vn -0.5877853 0 0.809017
vn -0.809017 0 0.5877853
vn -0.809017 0 0.5877853
vn -0.5877853 0 0.809017
vn -0.5877853 0 0.8090169
vn -0.9510565 0 0.3090169
vn -0.9510565 0 0.3090169
vn -0.809017 0 0.5877853
vn -0.809017 0 0.5877853
vn -0.9510565 0 0.3090169
vn -0.9510565 0 0.3090169
vn -0.809017 0 0.5877853
vn -0.809017 0 0.5877853
vn -1 0 -1.877482E-07
vn -1 0 -1.877482E-07
vn -0.9510565 0 0.3090169
vn -0.9510565 0 0.3090169
vn -1 0 -1.877482E-07
vn -1 0 -1.877482E-07
vn -0.9510565 0 0.3090169
vn -0.9510565 0 0.3090169
vn -0.9510565 0 -0.309017
vn -0.9510565 0 -0.309017
vn -1 0 -1.877482E-07
vn -1 0 -1.877482E-07
vn -0.9510565 0 -0.309017
vn -0.9510565 0 -0.309017
vn -1 0 -1.877482E-07
vn -1 0 -1.877482E-07
vn -0.8090171 0 -0.5877852
vn -0.8090171 0 -0.5877852
vn -0.9510565 0 -0.309017
vn -0.9510565 0 -0.309017
vn -0.8090171 0 -0.5877852
vn -0.8090171 0 -0.5877852
vn -0.9510565 0 -0.309017
vn -0.9510565 0 -0.309017
vn -0.5877853 0 -0.809017
vn -0.5877852 0 -0.809017
vn -0.8090171 0 -0.5877852
vn -0.8090171 0 -0.5877852
vn -0.5877852 0 -0.809017
vn -0.5877853 0 -0.809017
vn -0.8090171 0 -0.5877852
vn -0.8090171 0 -0.5877852
vn -0.3090168 0 -0.9510565
vn -0.3090168 0 -0.9510565
vn -0.5877852 0 -0.809017
vn -0.5877853 0 -0.809017
vn -0.3090168 0 -0.9510565
vn -0.3090168 0 -0.9510565
vn -0.5877853 0 -0.809017
vn -0.5877852 0 -0.809017
vn 8.04635E-08 0 -1
vn 8.04635E-08 0 -1
vn -0.3090168 0 -0.9510565
vn -0.3090168 0 -0.9510565
vn 8.04635E-08 0 -1
vn 8.04635E-08 0 -1
vn -0.3090168 0 -0.9510565
vn -0.3090168 0 -0.9510565
vn 0.309017 0 -0.9510565
vn 0.309017 0 -0.9510565
vn 8.04635E-08 0 -1
vn 8.04635E-08 0 -1
vn 0.309017 0 -0.9510565
vn 0.309017 0 -0.9510565
vn 8.04635E-08 0 -1
vn 8.04635E-08 0 -1
vn 0.5877854 0 -0.8090169
vn 0.5877854 0 -0.8090169
vn 0.309017 0 -0.9510565
vn 0.309017 0 -0.9510565
vn 0.5877854 0 -0.8090169
vn 0.5877854 0 -0.8090169
vn 0.309017 0 -0.9510565
vn 0.309017 0 -0.9510565
vn 0.8090171 0 -0.5877852
vn 0.8090171 0 -0.5877851
vn 0.5877854 0 -0.8090169
vn 0.5877854 0 -0.8090169
vn 0.8090171 0 -0.5877851
vn 0.8090171 0 -0.5877852
vn 0.5877854 0 -0.8090169
vn 0.5877854 0 -0.8090169
vn 0.9510565 0 -0.309017
vn 0.9510565 0 -0.309017
vn 0.8090171 0 -0.5877851
vn 0.8090171 0 -0.5877852
vn 0.9510565 0 -0.309017
vn 0.9510565 0 -0.309017
vn 0.8090171 0 -0.5877852
vn 0.8090171 0 -0.5877851
vn 1 0 0
vn 1 0 0
vn 0.9510565 0 -0.309017
vn 0.9510565 0 -0.309017
vn 1 0 0
vn 1 0 0
vn 0.9510565 0 -0.309017
vn 0.9510565 0 -0.309017
vn 0.9510565 0 0.3090171
vn 0.9510565 0 0.3090171
vn 1 0 0
vn 1 0 0
vn 0.9510565 0 0.3090171
vn 0.9510565 0 0.3090171
vn 1 0 0
vn 1 0 0
vn 0.8090169 0 0.5877854
vn 0.8090169 0 0.5877854
vn 0.9510565 0 0.3090171
vn 0.9510565 0 0.3090171
vn 0.8090169 0 0.5877854
vn 0.8090169 0 0.5877854
vn 0.9510565 0 0.3090171
vn 0.9510565 0 0.3090171
vn 0.5877851 0 0.8090172
vn 0.5877851 0 0.8090172
vn 0.8090169 0 0.5877854
vn 0.8090169 0 0.5877854
vn 0.5877851 0 0.8090172
vn 0.5877851 0 0.8090172
vn 0.8090169 0 0.5877854
vn 0.8090169 0 0.5877854
vn 0.3090168 0 0.9510565
vn 0.3090168 0 0.9510565
vn 0.5877851 0 0.8090172
vn 0.5877851 0 0.8090172
vn 0.3090168 0 0.9510565
vn 0.3090168 0 0.9510565
vn 0.5877851 0 0.8090172
vn 0.5877851 0 0.8090172
vn 1.072847E-08 0 1
vn 1.072847E-08 0 1
vn 0.3090168 0 0.9510565
vn 0.3090168 0 0.9510565
vn 1.072847E-08 0 1
vn 1.072847E-08 0 1
vn 0.3090168 0 0.9510565
vn 0.3090168 0 0.9510565
vn 0 0.9995944 0.02847458
vn 0 0.9995945 0.02847459
vn -0.008799117 0.9995945 0.02708092
vn -0.008799138 0.9995944 0.02708091
vn -0.008799138 0.9995944 0.02708091
vn -0.008799117 0.9995945 0.02708092
vn -0.01673692 0.9995945 0.02303641
vn -0.01673693 0.9995946 0.0230364
vn -0.01673693 0.9995946 0.0230364
vn -0.01673692 0.9995945 0.02303641
vn -0.02303641 0.9995945 0.01673692
vn -0.0230364 0.9995946 0.01673693
vn -0.0230364 0.9995946 0.01673693
vn -0.02303641 0.9995945 0.01673692
vn -0.02708091 0.9995945 0.008799116
vn -0.02708091 0.9995944 0.008799136
vn -0.02708091 0.9995944 0.008799136
vn -0.02708091 0.9995945 0.008799116
vn -0.0284746 0.9995945 -1.287709E-09
vn -0.0284746 0.9995946 -9.633519E-09
vn -0.0284746 0.9995946 -9.633519E-09
vn -0.0284746 0.9995945 -1.287709E-09
vn -0.02708095 0.9995945 -0.008799129
vn -0.02708094 0.9995944 -0.008799144
vn -0.02708094 0.9995944 -0.008799144
vn -0.02708095 0.9995945 -0.008799129
vn -0.02303643 0.9995945 -0.01673693
vn -0.02303642 0.9995946 -0.01673695
vn -0.02303642 0.9995946 -0.01673695
vn -0.02303643 0.9995945 -0.01673693
vn -0.01673692 0.9995945 -0.02303641
vn -0.01673694 0.9995946 -0.0230364
vn -0.01673694 0.9995946 -0.0230364
vn -0.01673692 0.9995945 -0.02303641
vn -0.008799111 0.9995945 -0.02708091
vn -0.008799125 0.9995944 -0.0270809
vn -0.008799125 0.9995944 -0.0270809
vn -0.008799111 0.9995945 -0.02708091
vn 2.207501E-09 0.9995945 -0.02847458
vn 1.806284E-09 0.9995944 -0.02847458
vn 1.806284E-09 0.9995944 -0.02847458
vn 2.207501E-09 0.9995945 -0.02847458
vn 0.008799125 0.9995945 -0.02708094
vn 0.008799144 0.9995944 -0.02708093
vn 0.008799144 0.9995944 -0.02708093
vn 0.008799125 0.9995945 -0.02708094
vn 0.01673695 0.9995945 -0.02303645
vn 0.01673697 0.9995946 -0.02303644
vn 0.01673697 0.9995946 -0.02303644
vn 0.01673695 0.9995945 -0.02303645
vn 0.02303646 0.9995945 -0.01673694
vn 0.02303644 0.9995946 -0.01673696
vn 0.02303644 0.9995946 -0.01673696
vn 0.02303646 0.9995945 -0.01673694
vn 0.02708095 0.9995945 -0.00879913
vn 0.02708094 0.9995944 -0.00879914
vn 0.02708094 0.9995944 -0.00879914
vn 0.02708095 0.9995945 -0.00879913
vn 0.0284746 0.9995945 7.358339E-10
vn 0.0284746 0.9995946 -4.515712E-10
vn 0.0284746 0.9995946 -4.515712E-10
vn 0.0284746 0.9995945 7.358339E-10
vn 0.02708095 0.9995945 0.008799135
vn 0.02708095 0.9995944 0.008799145
vn 0.02708095 0.9995944 0.008799145
vn 0.02708095 0.9995945 0.008799135
vn 0.02303646 0.9995945 0.01673696
vn 0.02303645 0.9995946 0.01673697
vn 0.02303645 0.9995946 0.01673697
vn 0.02303646 0.9995945 0.01673696
vn 0.01673693 0.9995945 0.02303645
vn 0.01673696 0.9995946 0.02303644
vn 0.01673696 0.9995946 0.02303644
vn 0.01673693 0.9995945 0.02303645
vn 0.008799114 0.9995945 0.02708093
vn 0.008799132 0.9995944 0.02708092
vn 0.008799132 0.9995944 0.02708092
vn 0.008799114 0.9995945 0.02708093
vn 0 0.9995945 0.02847459
vn 0 0.9995944 0.02847458
vn -7.526185E-09 -0.9995944 0.02847458
vn 6.070628E-09 -0.9995945 0.02847459
vn 0.008799115 -0.9995945 0.02708093
vn 0.008799131 -0.9995944 0.02708092
vn 0.008799131 -0.9995944 0.02708092
vn 0.008799115 -0.9995945 0.02708093
vn 0.01673693 -0.9995945 0.02303645
vn 0.01673696 -0.9995946 0.02303644
vn 0.01673696 -0.9995946 0.02303644
vn 0.01673693 -0.9995945 0.02303645
vn 0.02303646 -0.9995945 0.01673696
vn 0.02303645 -0.9995946 0.01673697
vn 0.02303645 -0.9995946 0.01673697
vn 0.02303646 -0.9995945 0.01673696
vn 0.02708095 -0.9995945 0.008799134
vn 0.02708095 -0.9995944 0.008799145
vn 0.02708095 -0.9995944 0.008799145
vn 0.02708095 -0.9995945 0.008799134
vn 0.0284746 -0.9995945 -1.471668E-09
vn 0.02847461 -0.9995946 2.558903E-09
vn 0.02847461 -0.9995946 2.558903E-09
vn 0.0284746 -0.9995945 -1.471668E-09
vn 0.02708095 -0.9995945 -0.00879913
vn 0.02708094 -0.9995944 -0.008799139
vn 0.02708094 -0.9995944 -0.008799139
vn 0.02708095 -0.9995945 -0.00879913
vn 0.02303646 -0.9995945 -0.01673695
vn 0.02303644 -0.9995946 -0.01673696
vn 0.02303644 -0.9995946 -0.01673696
vn 0.02303646 -0.9995945 -0.01673695
vn 0.01673695 -0.9995945 -0.02303645
vn 0.01673697 -0.9995946 -0.02303644
vn 0.01673697 -0.9995946 -0.02303644
vn 0.01673695 -0.9995945 -0.02303645
vn 0.008799123 -0.9995945 -0.02708094
vn 0.008799143 -0.9995944 -0.02708093
vn 0.008799143 -0.9995944 -0.02708093
vn 0.008799123 -0.9995945 -0.02708094
vn 1.655626E-09 -0.9995945 -0.02847458
vn 1.20419E-09 -0.9995944 -0.02847458
vn 1.20419E-09 -0.9995944 -0.02847458
vn 1.655626E-09 -0.9995945 -0.02847458
vn -0.008799112 -0.9995945 -0.02708091
vn -0.008799126 -0.9995944 -0.0270809
vn -0.008799126 -0.9995944 -0.0270809
vn -0.008799112 -0.9995945 -0.02708091
vn -0.01673692 -0.9995945 -0.02303641
vn -0.01673694 -0.9995946 -0.0230364
vn -0.01673694 -0.9995946 -0.0230364
vn -0.01673692 -0.9995945 -0.02303641
vn -0.02303643 -0.9995945 -0.01673693
vn -0.02303642 -0.9995946 -0.01673695
vn -0.02303642 -0.9995946 -0.01673695
vn -0.02303643 -0.9995945 -0.01673693
vn -0.02708095 -0.9995945 -0.008799128
vn -0.02708094 -0.9995944 -0.008799143
vn -0.02708094 -0.9995944 -0.008799143
vn -0.02708095 -0.9995945 -0.008799128
vn -0.0284746 -0.9995945 -3.127294E-09
vn -0.0284746 -0.9995946 -5.719902E-09
vn -0.0284746 -0.9995946 -5.719902E-09
vn -0.0284746 -0.9995945 -3.127294E-09
vn -0.02708092 -0.9995945 0.008799117
vn -0.02708091 -0.9995944 0.008799137
vn -0.02708091 -0.9995944 0.008799137
vn -0.02708092 -0.9995945 0.008799117
vn -0.02303641 -0.9995945 0.01673692
vn -0.0230364 -0.9995946 0.01673693
vn -0.0230364 -0.9995946 0.01673693
vn -0.02303641 -0.9995945 0.01673692
vn -0.01673692 -0.9995945 0.02303641
vn -0.01673693 -0.9995946 0.0230364
vn -0.01673693 -0.9995946 0.0230364
vn -0.01673692 -0.9995945 0.02303641
vn -0.008799117 -0.9995945 0.02708092
vn -0.008799137 -0.9995944 0.02708091
vn -0.008799137 -0.9995944 0.02708091
vn -0.008799117 -0.9995945 0.02708092
vn 6.070628E-09 -0.9995945 0.02847459
vn -7.526185E-09 -0.9995944 0.02847458
vn 0.5877848 0 0.8090173
vn 0.3090175 0 0.9510563
vn 0.3090175 0 0.9510563
vn 0.5877848 0 0.8090173
vn 3.754964E-08 0 1
vn 0.3090175 0 0.9510563
vn 0.3090175 0 0.9510563
vn 3.754964E-08 0 1
vn -0.3090175 0 0.9510563
vn 3.754964E-08 0 1
vn 3.754964E-08 0 1
vn -0.3090175 0 0.9510563
vn -0.3090175 0 0.9510563
vn -0.5877849 0 0.8090172
vn -0.5877849 0 0.8090172
vn -0.3090175 0 0.9510563
vn -0.5877849 0 0.8090172
vn -0.8090174 0 0.5877847
vn -0.8090174 0 0.5877847
vn -0.5877849 0 0.8090172
vn -0.8090174 0 0.5877847
vn -0.9510563 1.30262E-08 0.3090175
vn -0.9510563 1.30262E-08 0.3090175
vn -0.8090174 0 0.5877847
vn -0.9510563 1.30262E-08 0.3090175
vn -1 2.557866E-15 1.072847E-08
vn -1 -6.394666E-15 -4.291388E-08
vn -0.9510563 1.30262E-08 0.3090175
vn -1 2.557866E-15 1.072847E-08
vn -0.9510564 -1.30262E-08 -0.3090174
vn -0.9510564 -1.30262E-08 -0.3090174
vn -1 -6.394666E-15 -4.291388E-08
vn -0.9510564 -1.30262E-08 -0.3090174
vn -0.8090171 0 -0.587785
vn -0.8090171 0 -0.587785
vn -0.9510564 -1.30262E-08 -0.3090174
vn -0.8090171 0 -0.587785
vn -0.5877845 0 -0.8090176
vn -0.5877845 0 -0.8090176
vn -0.8090171 0 -0.587785
vn -0.5877845 0 -0.8090176
vn -0.3090173 3.155453E-08 -0.9510564
vn -0.3090173 3.155453E-08 -0.9510564
vn -0.5877845 0 -0.8090176
vn -0.3090173 3.155453E-08 -0.9510564
vn -6.437082E-08 2.557867E-14 -1
vn 9.655623E-08 -4.092586E-14 -1
vn -0.3090173 3.155453E-08 -0.9510564
vn -6.437082E-08 2.557867E-14 -1
vn 0.3090176 -3.155454E-08 -0.9510563
vn 0.3090176 -3.155454E-08 -0.9510563
vn 9.655623E-08 -4.092586E-14 -1
vn 0.3090176 -3.155454E-08 -0.9510563
vn 0.587785 0 -0.8090172
vn 0.587785 0 -0.8090172
vn 0.3090176 -3.155454E-08 -0.9510563
vn 0.587785 0 -0.8090172
vn 0.8090172 0 -0.587785
vn 0.8090172 0 -0.587785
vn 0.587785 0 -0.8090172
vn 0.8090172 0 -0.587785
vn 0.9510563 -1.302619E-08 -0.3090176
vn 0.9510563 -1.302619E-08 -0.3090176
vn 0.8090172 0 -0.587785
vn 0.9510563 -1.302619E-08 -0.3090176
vn 1 1.278933E-14 8.046352E-08
vn 1 2.557866E-15 2.682117E-08
vn 0.9510563 -1.302619E-08 -0.3090176
vn 1 1.278933E-14 8.046352E-08
vn 0.9510563 1.30262E-08 0.3090177
vn 0.9510563 1.30262E-08 0.3090177
vn 1 2.557866E-15 2.682117E-08
vn 0.9510563 1.30262E-08 0.3090177
vn 0.8090172 0 0.587785
vn 0.8090172 0 0.587785
vn 0.9510563 1.30262E-08 0.3090177
vn 0.8090172 0 0.587785
vn 0.5877848 0 0.8090173
vn 0.5877848 0 0.8090173
vn 0.8090172 0 0.587785
vt -0.05 0
vt -0.05 0.5
vt 0 0.5
vt 0 0
vt -0.05 0.5
vt -0.05 1
vt 0 1
vt 0 0.5
vt -0.1 0
vt -0.1 0.5
vt -0.05 0.5
vt -0.05 0
vt -0.1 0.5
vt -0.1 1
vt -0.05 1
vt -0.05 0.5
vt -0.15 0
vt -0.15 0.5
vt -0.1 0.5
vt -0.1 0
vt -0.15 0.5
vt -0.15 1
vt -0.1 1
vt -0.1 0.5
vt -0.2 0
vt -0.2 0.5
vt -0.15 0.5
vt -0.15 0
vt -0.2 0.5
vt -0.2 1
vt -0.15 1
vt -0.15 0.5
vt -0.25 0
vt -0.25 0.5
vt -0.2 0.5
vt -0.2 0
vt -0.25 0.5
vt -0.25 1
vt -0.2 1
vt -0.2 0.5
vt -0.3 0
vt -0.3 0.5
vt -0.25 0.5
vt -0.25 0
vt -0.3 0.5
vt -0.3 1
vt -0.25 1
vt -0.25 0.5
vt -0.35 0
vt -0.35 0.5
vt -0.3 0.5
vt -0.3 0
vt -0.35 0.5
vt -0.35 1
vt -0.3 1
vt -0.3 0.5
vt -0.4 0
vt -0.4 0.5
vt -0.35 0.5
vt -0.35 0
vt -0.4 0.5
vt -0.4 1
vt -0.35 1
vt -0.35 0.5
vt -0.45 0
vt -0.45 0.5
vt -0.4 0.5
vt -0.4 0
vt -0.45 0.5
vt -0.45 1
vt -0.4 1
vt -0.4 0.5
vt -0.5 0
vt -0.5 0.5
vt -0.45 0.5
vt -0.45 0
vt -0.5 0.5
vt -0.5 1
vt -0.45 1
vt -0.45 0.5
vt -0.55 0
vt -0.55 0.5
vt -0.5 0.5
vt -0.5 0
vt -0.55 0.5
vt -0.55 1
vt -0.5 1
vt -0.5 0.5
vt -0.6 0
vt -0.6 0.5
vt -0.55 0.5
vt -0.55 0
vt -0.6 0.5
vt -0.6 1
vt -0.55 1
vt -0.55 0.5
vt -0.65 0
vt -0.65 0.5
vt -0.6 0.5
vt -0.6 0
vt -0.65 0.5
vt -0.65 1
vt -0.6 1
vt -0.6 0.5
vt -0.7 0
vt -0.7 0.5
vt -0.65 0.5
vt -0.65 0
vt -0.7 0.5
vt -0.7 1
vt -0.65 1
vt -0.65 0.5
vt -0.75 0
vt -0.75 0.5
vt -0.7 0.5
vt -0.7 0
vt -0.75 0.5
vt -0.75 1
vt -0.7 1
vt -0.7 0.5
vt -0.8 0
vt -0.8 0.5
vt -0.75 0.5
vt -0.75 0
vt -0.8 0.5
vt -0.8 1
vt -0.75 1
vt -0.75 0.5
vt -0.85 0
vt -0.85 0.5
vt -0.8 0.5
vt -0.8 0
vt -0.85 0.5
vt -0.85 1
vt -0.8 1
vt -0.8 0.5
vt -0.9 0
vt -0.9 0.5
vt -0.85 0.5
vt -0.85 0
vt -0.9 0.5
vt -0.9 1
vt -0.85 1
vt -0.85 0.5
vt -0.95 0
vt -0.95 0.5
vt -0.9 0.5
vt -0.9 0
vt -0.95 0.5
vt -0.95 1
vt -0.9 1
vt -0.9 0.5
vt -1 0
vt -1 0.5
vt -0.95 0.5
vt -0.95 0
vt -1 0.5
vt -1 1
vt -0.95 1
vt -0.95 0.5
vt 0.5 0.75
vt 0.5 1
vt 0.6545085 0.9755282
vt 0.5772542 0.7377641
vt 0.5772542 0.7377641
vt 0.6545085 0.9755282
vt 0.7938926 0.9045085
vt 0.6469463 0.7022542
vt 0.6469463 0.7022542
vt 0.7938926 0.9045085
vt 0.9045085 0.7938926
vt 0.7022542 0.6469463
vt 0.7022542 0.6469463
vt 0.9045085 0.7938926
vt 0.9755282 0.6545085
vt 0.7377641 0.5772542
vt 0.7377641 0.5772542
vt 0.9755282 0.6545085
vt 1 0.5
vt 0.75 0.5
vt 0.75 0.5
vt 1 0.5
vt 0.9755282 0.3454915
vt 0.7377641 0.4227457
vt 0.7377641 0.4227457
vt 0.9755282 0.3454915
vt 0.9045085 0.2061074
vt 0.7022542 0.3530537
vt 0.7022542 0.3530537
vt 0.9045085 0.2061074
vt 0.7938926 0.09549147
vt 0.6469463 0.2977457
vt 0.6469463 0.2977457
vt 0.7938926 0.09549147
vt 0.6545084 0.0244717
vt 0.5772542 0.2622359
vt 0.5772542 0.2622359
vt 0.6545084 0.0244717
vt 0.5 0
vt 0.5 0.25
vt 0.5 0.25
vt 0.5 0
vt 0.3454915 0.02447173
vt 0.4227458 0.2622359
vt 0.4227458 0.2622359
vt 0.3454915 0.02447173
vt 0.2061073 0.09549153
vt 0.3530537 0.2977458
vt 0.3530537 0.2977458
vt 0.2061073 0.09549153
vt 0.09549144 0.2061075
vt 0.2977457 0.3530537
vt 0.2977457 0.3530537
vt 0.09549144 0.2061075
vt 0.02447176 0.3454915
vt 0.2622359 0.4227457
vt 0.2622359 0.4227457
vt 0.02447176 0.3454915
vt 0 0.5
vt 0.25 0.5
vt 0.25 0.5
vt 0 0.5
vt 0.02447176 0.6545086
vt 0.2622359 0.5772543
vt 0.2622359 0.5772543
vt 0.02447176 0.6545086
vt 0.09549159 0.7938927
vt 0.2977458 0.6469464
vt 0.2977458 0.6469464
vt 0.09549159 0.7938927
vt 0.2061075 0.9045086
vt 0.3530537 0.7022543
vt 0.3530537 0.7022543
vt 0.2061075 0.9045086
vt 0.3454915 0.9755282
vt 0.4227458 0.7377641
vt 0.4227458 0.7377641
vt 0.3454915 0.9755282
vt 0.5000001 1
vt 0.5000001 0.75
vt 0.5000001 0.75
vt 0.5000001 1
vt 0.3454915 0.9755282
vt 0.4227458 0.7377641
vt 0.4227458 0.7377641
vt 0.3454915 0.9755282
vt 0.2061075 0.9045086
vt 0.3530537 0.7022543
vt 0.3530537 0.7022543
vt 0.2061075 0.9045086
vt 0.09549159 0.7938927
vt 0.2977458 0.6469464
vt 0.2977458 0.6469464
vt 0.09549159 0.7938927
vt 0.02447176 0.6545086
vt 0.2622359 0.5772543
vt 0.2622359 0.5772543
vt 0.02447176 0.6545086
vt 0 0.5
vt 0.25 0.5
vt 0.25 0.5
vt 0 0.5
vt 0.02447176 0.3454915
vt 0.2622359 0.4227457
vt 0.2622359 0.4227457
vt 0.02447176 0.3454915
vt 0.09549144 0.2061075
vt 0.2977457 0.3530537
vt 0.2977457 0.3530537
vt 0.09549144 0.2061075
vt 0.2061073 0.09549153
vt 0.3530537 0.2977458
vt 0.3530537 0.2977458
vt 0.2061073 0.09549153
vt 0.3454915 0.02447173
vt 0.4227458 0.2622359
vt 0.4227458 0.2622359
vt 0.3454915 0.02447173
vt 0.5 0
vt 0.5 0.25
vt 0.5 0.25
vt 0.5 0
vt 0.6545084 0.0244717
vt 0.5772542 0.2622359
vt 0.5772542 0.2622359
vt 0.6545084 0.0244717
vt 0.7938926 0.09549147
vt 0.6469463 0.2977457
vt 0.6469463 0.2977457
vt 0.7938926 0.09549147
vt 0.9045085 0.2061074
vt 0.7022542 0.3530537
vt 0.7022542 0.3530537
vt 0.9045085 0.2061074
vt 0.9755282 0.3454915
vt 0.7377641 0.4227457
vt 0.7377641 0.4227457
vt 0.9755282 0.3454915
vt 1 0.5
vt 0.75 0.5
vt 0.75 0.5
vt 1 0.5
vt 0.9755282 0.6545085
vt 0.7377641 0.5772542
vt 0.7377641 0.5772542
vt 0.9755282 0.6545085
vt 0.9045085 0.7938926
vt 0.7022542 0.6469463
vt 0.7022542 0.6469463
vt 0.9045085 0.7938926
vt 0.7938926 0.9045085
vt 0.6469463 0.7022542
vt 0.6469463 0.7022542
vt 0.7938926 0.9045085
vt 0.6545085 0.9755282
vt 0.5772542 0.7377641
vt 0.5772542 0.7377641
vt 0.6545085 0.9755282
vt 0.5 1
vt 0.5 0.75
vt 0.6469463 0.2977457
vt 0.5772542 0.2622359
vt 0.5772542 0.2622359
vt 0.6469463 0.2977457
vt 0.5 0.25
vt 0.5772542 0.2622359
vt 0.5772542 0.2622359
vt 0.5 0.25
vt 0.4227458 0.2622359
vt 0.5 0.25
vt 0.5 0.25
vt 0.4227458 0.2622359
vt 0.4227458 0.2622359
vt 0.3530537 0.2977458
vt 0.3530537 0.2977458
vt 0.4227458 0.2622359
vt 0.3530537 0.2977458
vt 0.2977457 0.3530537
vt 0.2977457 0.3530537
vt 0.3530537 0.2977458
vt 0.2977457 0.3530537
vt 0.2622359 0.4227457
vt 0.2622359 0.4227457
vt 0.2977457 0.3530537
vt 0.2622359 0.4227457
vt 0.25 0.5
vt 0.25 0.5
vt 0.2622359 0.4227457
vt 0.25 0.5
vt 0.2622359 0.5772543
vt 0.2622359 0.5772543
vt 0.25 0.5
vt 0.2622359 0.5772543
vt 0.2977458 0.6469464
vt 0.2977458 0.6469464
vt 0.2622359 0.5772543
vt 0.2977458 0.6469464
vt 0.3530537 0.7022543
vt 0.3530537 0.7022543
vt 0.2977458 0.6469464
vt 0.3530537 0.7022543
vt 0.4227458 0.7377641
vt 0.4227458 0.7377641
vt 0.3530537 0.7022543
vt 0.4227458 0.7377641
vt 0.5000001 0.75
vt 0.5000001 0.75
vt 0.4227458 0.7377641
vt 0.5 0.75
vt 0.5772542 0.7377641
vt 0.5772542 0.7377641
vt 0.5 0.75
vt 0.5772542 0.7377641
vt 0.6469463 0.7022542
vt 0.6469463 0.7022542
vt 0.5772542 0.7377641
vt 0.6469463 0.7022542
vt 0.7022542 0.6469463
vt 0.7022542 0.6469463
vt 0.6469463 0.7022542
vt 0.7022542 0.6469463
vt 0.7377641 0.5772542
vt 0.7377641 0.5772542
vt 0.7022542 0.6469463
vt 0.7377641 0.5772542
vt 0.75 0.5
vt 0.75 0.5
vt 0.7377641 0.5772542
vt 0.75 0.5
vt 0.7377641 0.4227457
vt 0.7377641 0.4227457
vt 0.75 0.5
vt 0.7377641 0.4227457
vt 0.7022542 0.3530537
vt 0.7022542 0.3530537
vt 0.7377641 0.4227457
vt 0.7022542 0.3530537
vt 0.6469463 0.2977457
vt 0.6469463 0.2977457
vt 0.7022542 0.3530537
usemtl Default
f 3/3/3 2/2/2 1/1/1
f 3/3/3 1/1/1 4/4/4
f 7/7/7 6/6/6 5/5/5
f 7/7/7 5/5/5 8/8/8
f 11/11/11 10/10/10 9/9/9
f 11/11/11 9/9/9 12/12/12
f 15/15/15 14/14/14 13/13/13
f 15/15/15 13/13/13 16/16/16
f 19/19/19 18/18/18 17/17/17
f 19/19/19 17/17/17 20/20/20
f 23/23/23 22/22/22 21/21/21
f 23/23/23 21/21/21 24/24/24
f 27/27/27 26/26/26 25/25/25
f 27/27/27 25/25/25 28/28/28
f 31/31/31 30/30/30 29/29/29
f 31/31/31 29/29/29 32/32/32
f 35/35/35 34/34/34 33/33/33
f 35/35/35 33/33/33 36/36/36
f 39/39/39 38/38/38 37/37/37
f 39/39/39 37/37/37 40/40/40
f 43/43/43 42/42/42 41/41/41
f 43/43/43 41/41/41 44/44/44
f 47/47/47 46/46/46 45/45/45
f 47/47/47 45/45/45 48/48/48
f 51/51/51 50/50/50 49/49/49
f 51/51/51 49/49/49 52/52/52
f 55/55/55 54/54/54 53/53/53
f 55/55/55 53/53/53 56/56/56
f 59/59/59 58/58/58 57/57/57
f 59/59/59 57/57/57 60/60/60
f 63/63/63 62/62/62 61/61/61
f 63/63/63 61/61/61 64/64/64
f 67/67/67 66/66/66 65/65/65
f 67/67/67 65/65/65 68/68/68
f 71/71/71 70/70/70 69/69/69
f 71/71/71 69/69/69 72/72/72
f 75/75/75 74/74/74 73/73/73
f 75/75/75 73/73/73 76/76/76
f 79/79/79 78/78/78 77/77/77
f 79/79/79 77/77/77 80/80/80
f 83/83/83 82/82/82 81/81/81
f 83/83/83 81/81/81 84/84/84
f 87/87/87 86/86/86 85/85/85
f 87/87/87 85/85/85 88/88/88
f 91/91/91 90/90/90 89/89/89
f 91/91/91 89/89/89 92/92/92
f 95/95/95 94/94/94 93/93/93
f 95/95/95 93/93/93 96/96/96
f 99/99/99 98/98/98 97/97/97
f 99/99/99 97/97/97 100/100/100
f 103/103/103 102/102/102 101/101/101
f 103/103/103 101/101/101 104/104/104
f 107/107/107 106/106/106 105/105/105
f 107/107/107 105/105/105 108/108/108
f 111/111/111 110/110/110 109/109/109
f 111/111/111 109/109/109 112/112/112
f 115/115/115 114/114/114 113/113/113
f 115/115/115 113/113/113 116/116/116
f 119/119/119 118/118/118 117/117/117
f 119/119/119 117/117/117 120/120/120
f 123/123/123 122/122/122 121/121/121
f 123/123/123 121/121/121 124/124/124
f 127/127/127 126/126/126 125/125/125
f 127/127/127 125/125/125 128/128/128
f 131/131/131 130/130/130 129/129/129
f 131/131/131 129/129/129 132/132/132
f 135/135/135 134/134/134 133/133/133
f 135/135/135 133/133/133 136/136/136
f 139/139/139 138/138/138 137/137/137
f 139/139/139 137/137/137 140/140/140
f 143/143/143 142/142/142 141/141/141
f 143/143/143 141/141/141 144/144/144
f 147/147/147 146/146/146 145/145/145
f 147/147/147 145/145/145 148/148/148
f 151/151/151 150/150/150 149/149/149
f 151/151/151 149/149/149 152/152/152
f 155/155/155 154/154/154 153/153/153
f 155/155/155 153/153/153 156/156/156
f 159/159/159 158/158/158 157/157/157
f 159/159/159 157/157/157 160/160/160
f 163/163/163 162/162/162 161/161/161
f 163/163/163 161/161/161 164/164/164
f 167/167/167 166/166/166 165/165/165
f 167/167/167 165/165/165 168/168/168
f 171/171/171 170/170/170 169/169/169
f 171/171/171 169/169/169 172/172/172
f 175/175/175 174/174/174 173/173/173
f 175/175/175 173/173/173 176/176/176
f 179/179/179 178/178/178 177/177/177
f 179/179/179 177/177/177 180/180/180
f 183/183/183 182/182/182 181/181/181
f 183/183/183 181/181/181 184/184/184
f 187/187/187 186/186/186 185/185/185
f 187/187/187 185/185/185 188/188/188
f 191/191/191 190/190/190 189/189/189
f 191/191/191 189/189/189 192/192/192
f 195/195/195 194/194/194 193/193/193
f 195/195/195 193/193/193 196/196/196
f 199/199/199 198/198/198 197/197/197
f 199/199/199 197/197/197 200/200/200
f 203/203/203 202/202/202 201/201/201
f 203/203/203 201/201/201 204/204/204
f 207/207/207 206/206/206 205/205/205
f 207/207/207 205/205/205 208/208/208
f 211/211/211 210/210/210 209/209/209
f 211/211/211 209/209/209 212/212/212
f 215/215/215 214/214/214 213/213/213
f 215/215/215 213/213/213 216/216/216
f 219/219/219 218/218/218 217/217/217
f 219/219/219 217/217/217 220/220/220
f 223/223/223 222/222/222 221/221/221
f 223/223/223 221/221/221 224/224/224
f 227/227/227 226/226/226 225/225/225
f 227/227/227 225/225/225 228/228/228
f 231/231/231 230/230/230 229/229/229
f 231/231/231 229/229/229 232/232/232
f 235/235/235 234/234/234 233/233/233
f 235/235/235 233/233/233 236/236/236
f 239/239/239 238/238/238 237/237/237
f 239/239/239 237/237/237 240/240/240
f 243/243/243 242/242/242 241/241/241
f 243/243/243 241/241/241 244/244/244
f 247/247/247 246/246/246 245/245/245
f 247/247/247 245/245/245 248/248/248
f 251/251/251 250/250/250 249/249/249
f 251/251/251 249/249/249 252/252/252
f 255/255/255 254/254/254 253/253/253
f 255/255/255 253/253/253 256/256/256
f 259/259/259 258/258/258 257/257/257
f 259/259/259 257/257/257 260/260/260
f 263/263/263 262/262/262 261/261/261
f 263/263/263 261/261/261 264/264/264
f 267/267/267 266/266/266 265/265/265
f 267/267/267 265/265/265 268/268/268
f 271/271/271 270/270/270 269/269/269
f 271/271/271 269/269/269 272/272/272
f 275/275/275 274/274/274 273/273/273
f 275/275/275 273/273/273 276/276/276
f 279/279/279 278/278/278 277/277/277
f 279/279/279 277/277/277 280/280/280
f 283/283/283 282/282/282 281/281/281
f 283/283/283 281/281/281 284/284/284
f 287/287/287 286/286/286 285/285/285
f 287/287/287 285/285/285 288/288/288
f 291/291/291 290/290/290 289/289/289
f 291/291/291 289/289/289 292/292/292
f 295/295/295 294/294/294 293/293/293
f 295/295/295 293/293/293 296/296/296
f 299/299/299 298/298/298 297/297/297
f 299/299/299 297/297/297 300/300/300
f 303/303/303 302/302/302 301/301/301
f 303/303/303 301/301/301 304/304/304
f 307/307/307 306/306/306 305/305/305
f 307/307/307 305/305/305 308/308/308
f 311/311/311 310/310/310 309/309/309
f 311/311/311 309/309/309 312/312/312
f 315/315/315 314/314/314 313/313/313
f 315/315/315 313/313/313 316/316/316
f 319/319/319 318/318/318 317/317/317
f 319/319/319 317/317/317 320/320/320
f 323/323/323 322/322/322 321/321/321
f 323/323/323 321/321/321 324/324/324
f 327/327/327 326/326/326 325/325/325
f 327/327/327 325/325/325 328/328/328
f 331/331/331 330/330/330 329/329/329
f 331/331/331 329/329/329 332/332/332
f 335/335/335 334/334/334 333/333/333
f 335/335/335 333/333/333 336/336/336
f 339/339/339 338/338/338 337/337/337
f 339/339/339 337/337/337 340/340/340
f 343/343/343 342/342/342 341/341/341
f 343/343/343 341/341/341 344/344/344
f 347/347/347 346/346/346 345/345/345
f 347/347/347 345/345/345 348/348/348
f 351/351/351 350/350/350 349/349/349
f 351/351/351 349/349/349 352/352/352
f 355/355/355 354/354/354 353/353/353
f 355/355/355 353/353/353 356/356/356
f 359/359/359 358/358/358 357/357/357
f 359/359/359 357/357/357 360/360/360
f 363/363/363 362/362/362 361/361/361
f 363/363/363 361/361/361 364/364/364
f 367/367/367 366/366/366 365/365/365
f 367/367/367 365/365/365 368/368/368
f 371/371/371 370/370/370 369/369/369
f 371/371/371 369/369/369 372/372/372
f 375/375/375 374/374/374 373/373/373
f 375/375/375 373/373/373 376/376/376
f 379/379/379 378/378/378 377/377/377
f 379/379/379 377/377/377 380/380/380
f 383/383/383 382/382/382 381/381/381
f 383/383/383 381/381/381 384/384/384
f 387/387/387 386/386/386 385/385/385
f 387/387/387 385/385/385 388/388/388
f 391/391/391 390/390/390 389/389/389
f 391/391/391 389/389/389 392/392/392
f 395/395/395 394/394/394 393/393/393
f 395/395/395 393/393/393 396/396/396
f 399/399/399 398/398/398 397/397/397
f 399/399/399 397/397/397 400/400/400
