# Exported OBJ from Prisma3D Exporter v2019
g Cube
v 0.7727527 0.6340361 -0.8368534
v 0.4972429 0.8545814 -0.5637924
v -0.3632953 0.4912012 -0.5834393
v -0.3632953 0.4912012 -0.5834393
v -0.5985979 0.3365227 -0.568621
v -0.5027571 -0.2176209 -0.5008171
v 0.7727527 0.1741142 -0.8368534
v 0.7727527 0.6340361 -0.8368534
v 0.6705562 0.5725491 0.1444462
v 0.5144569 -0.1291649 0.3040079
v 0.1211817 0.0007434487 0.4598903
v 0.1211817 0.0007434487 0.4598903
v -0.5027571 0.22474 0.499183
v -0.5027571 0.5610229 0.2466007
v 0.4972429 0.6112322 0.4362078
v 0.6705562 0.5725491 0.1444462
v -0.5985979 0.4272854 -0.3821521
v -0.5027571 0.5610229 0.2466007
v -0.5027571 0.22474 0.499183
v -0.5027571 0.1013295 0.2202014
v -0.5027571 0.1013295 0.2202014
v -0.5027571 -0.2176209 -0.5008171
v -0.5985979 0.3365227 -0.568621
v -0.5985979 0.4272854 -0.3821521
v -0.5985979 0.4272854 -0.3821521
v -0.5985979 0.3365227 -0.568621
v -0.3632953 0.4912012 -0.5834393
v -0.3632953 0.4912012 -0.5834393
v 0.4972429 0.8545814 -0.5637924
v 0.4972429 0.8545814 -0.08684965
v 0.4972429 0.6112322 0.4362078
v -0.5027571 0.5610229 0.2466007
v -0.5985979 0.4272854 -0.3821521
v -0.5027571 0.1013295 0.2202014
v -0.5027571 0.22474 0.499183
v 0.1211817 0.0007434487 0.4598903
v 0.1211817 0.0007434487 0.4598903
v 0.5144569 -0.1291649 0.3040079
v 0.3993821 0.01210923 -0.4740621
v 0.7727527 0.1741142 -0.8368534
v -0.5027571 -0.2176209 -0.5008171
v -0.5027571 0.1013295 0.2202014
v 0.7727527 0.6340361 -0.8368534
v 0.7727527 0.1741142 -0.8368534
v 0.3993821 0.01210923 -0.4740621
v 0.7896392 0.179071 -0.4355269
v 0.7896392 0.179071 -0.4355269
v 0.4972429 0.8545814 -0.08684965
v 0.4972429 0.8545814 -0.5637924
v 0.7727527 0.6340361 -0.8368534
v 0.6705562 0.5725491 0.1444462
v 0.4972429 0.6112322 0.4362078
v 0.4972429 0.8545814 -0.08684965
v 0.7896392 0.179071 -0.4355269
v 0.7896392 0.179071 -0.4355269
v 0.3993821 0.01210923 -0.4740621
v 0.5144569 -0.1291649 0.3040079
v 0.6705562 0.5725491 0.1444462
vn -0.1312144 0.1898539 -0.5292179
vn -0.1410638 0.3573609 -0.4309612
vn -0.1312144 0.1898539 -0.5292179
vn -0.1312144 0.1898539 -0.5292179
vn -0.1064813 0.0008118224 -0.5674455
vn -0.1064813 0.0008118224 -0.5674455
vn -0.1064813 0.0008118224 -0.5674455
vn -0.1312144 0.1898539 -0.5292179
vn 0.2056001 0.04112196 0.537932
vn 0.2305508 0.06807476 0.5249242
vn 0.2056001 0.04112196 0.537932
vn 0.2056001 0.04112196 0.537932
vn 0.179713 0.01398186 0.5484898
vn 0.179713 0.01398186 0.5484898
vn 0.179713 0.01398186 0.5484898
vn 0.2056001 0.04112196 0.537932
vn -0.5731714 -0.05101084 0.04696564
vn -0.5749831 -0.01025938 0.05120993
vn -0.5749831 -0.01025938 0.05120993
vn -0.5731714 -0.05101084 0.04696564
vn -0.5731714 -0.05101084 0.04696564
vn -0.5684674 -0.09150491 0.04248438
vn -0.5684674 -0.09150491 0.04248438
vn -0.5731714 -0.05101084 0.04696564
vn -0.2845483 0.4891821 -0.1143089
vn -0.3037401 0.4414743 -0.2148853
vn -0.3037401 0.4414743 -0.2148853
vn -0.2544639 0.518164 -0.009356742
vn -0.2544639 0.518164 -0.009356742
vn -0.2544639 0.518164 -0.009356742
vn -0.2544639 0.518164 -0.009356742
vn -0.2544639 0.518164 -0.009356742
vn -0.2845483 0.4891821 -0.1143089
vn -0.1215915 -0.5344086 0.1815387
vn -0.1673391 -0.5053326 0.2235394
vn -0.1673391 -0.5053326 0.2235394
vn -0.07412873 -0.5559456 0.136977
vn -0.07412873 -0.5559456 0.136977
vn -0.07412873 -0.5559456 0.136977
vn -0.07412873 -0.5559456 0.136977
vn -0.07412873 -0.5559456 0.136977
vn -0.1215915 -0.5344086 0.1815387
vn 0.4876525 -0.3089556 -0.008651749
vn 0.4876525 -0.3089556 -0.008651749
vn 0.4876525 -0.3089556 -0.008651749
vn 0.4691359 -0.3345852 0.03602113
vn 0.4492023 0.3606494 0.03850428
vn 0.4492023 0.3606494 0.03850428
vn 0.4919374 0.282433 0.1075291
vn 0.4919374 0.282433 0.1075291
vn 0.3893411 0.4251159 -0.03198849
vn 0.3893411 0.4251159 -0.03198849
vn 0.4492023 0.3606494 0.03850428
vn 0.4492023 0.3606494 0.03850428
vn 0.4691359 -0.3345852 0.03602113
vn 0.4464036 -0.3572083 0.08037031
vn 0.4464036 -0.3572083 0.08037031
vn 0.4464036 -0.3572083 0.08037031
vt 0 0.573372
vt 0 1
vt 0.7646974 1
vt 0.7646974 1
vt 1 1
vt 1 0
vt 0 0
vt 0 0.573372
vt 1 0.1785342
vt 1 0
vt 0.6239387 0
vt 0.6239387 0
vt 0 0
vt 0 1
vt 1 1
vt 1 0.1785342
vt 0.2494842 1
vt 1 1
vt 1 0
vt 0.7210185 0
vt 0.7210185 0
vt 0 0
vt 0 1
vt 0.2494842 1
vt 1 0.2494841
vt 1 0
vt 0.7646976 0
vt 0.7646976 0
vt 0 0
vt 0 0.4769425
vt 0 1
vt 1 1
vt 1 0.2494841
vt 0 0.7210185
vt 0 1
vt 0.6239386 1
vt 0.6239386 1
vt 1 1
vt 1 0.3984543
vt 1 0
vt 0 0
vt 0 0.7210185
vt 1 0.573372
vt 1 0
vt 0.6015457 0
vt 0.5739194 0.3519799
vt 0.5739194 0.3519799
vt 0.5230575 1
vt 1 1
vt 1 0.573372
vt 0 0.178534
vt 0 1
vt 0.5230575 1
vt 0.5739194 0.3519799
vt 0.5739194 0.3519799
vt 0.6015457 0
vt 0 0
vt 0 0.178534
usemtl Material
f 3/3/3 2/2/2 1/1/1
f 5/5/5 4/4/4 6/6/6
f 4/4/4 7/7/7 6/6/6
f 7/7/7 4/4/4 8/8/8
f 11/11/11 10/10/10 9/9/9
f 12/12/12 16/16/16 15/15/15
f 14/14/14 12/12/12 15/15/15
f 13/13/13 12/12/12 14/14/14
f 19/19/19 18/18/18 17/17/17
f 19/19/19 17/17/17 20/20/20
f 23/23/23 22/22/22 21/21/21
f 23/23/23 21/21/21 24/24/24
f 27/27/27 26/26/26 25/25/25
f 32/32/32 31/31/31 30/30/30
f 28/28/28 32/32/32 30/30/30
f 33/33/33 32/32/32 28/28/28
f 28/28/28 30/30/30 29/29/29
f 36/36/36 35/35/35 34/34/34
f 39/39/39 38/38/38 37/37/37
f 39/39/39 37/37/37 42/42/42
f 41/41/41 39/39/39 42/42/42
f 41/41/41 40/40/40 39/39/39
f 45/45/45 44/44/44 43/43/43
f 45/45/45 43/43/43 46/46/46
f 49/49/49 48/48/48 47/47/47
f 49/49/49 47/47/47 50/50/50
f 53/53/53 52/52/52 51/51/51
f 53/53/53 51/51/51 54/54/54
f 57/57/57 56/56/56 55/55/55
f 57/57/57 55/55/55 58/58/58
