# Exported from Unity
# 10/1/2025 2:01:48 PM
mtllib rock_5 (8).mtl
v -11.56466 -1.81955 293.6427
v -3.120049 0.6119975 290.7475
v -14.88086 0.3927818 294.9792
v -18.51296 -1.822902 291.5024
v -14.88086 0.3927818 294.9792
v -18.04156 -0.2655554 293.3061
v -11.56466 -1.81955 293.6427
v -16.37024 -1.82077 285.4778
v -8.452512 1.900439 282.4889
v -8.770832 -1.816629 284.8854
v -14.64993 2.157784 293.491
v -18.4459 2.119791 286.6902
v -17.97401 2.103363 290.6416
v -6.801633 2.397618 283.8696
v -4.857331 2.40712 288.8161
v -6.801633 2.397618 283.8696
v -6.709213 2.044467 282.4651
v -8.452512 1.900439 282.4889
v -18.4459 2.119791 286.6902
v -3.120049 0.6119975 290.7475
v -4.857331 2.40712 288.8161
v -14.64993 2.157784 293.491
v -18.51296 -1.822902 291.5024
v -18.67266 -1.822766 290.1727
v -11.56466 -1.81955 293.6427
v -16.37024 -1.82077 285.4778
v -8.770832 -1.816629 284.8854
v -18.04156 -0.2655554 293.3061
v -17.97401 2.103363 290.6416
v -18.51296 -1.822902 291.5024
v -18.67266 -1.822766 290.1727
v -18.878 -0.8361347 287.119
v -16.37024 -1.82077 285.4778
v -18.4459 2.119791 286.6902
v -8.452512 1.900439 282.4889
v -3.188673 -0.425272 285.8895
v -3.798126 -0.305349 283.917
v -4.031723 0.7668342 283.2916
v -3.798126 -0.305349 283.917
v -6.709213 2.044467 282.4651
v -4.031723 0.7668342 283.2916
v -8.770832 -1.816629 284.8854
v -6.709213 2.044467 282.4651
v -8.452512 1.900439 282.4889
v -11.56466 -1.81955 293.6427
v -3.983755 -1.185885 289.6009
v -3.120049 0.6119975 290.7475
v -4.031723 0.7668342 283.2916
v -6.801633 2.397618 283.8696
v -4.857331 2.40712 288.8161
v -6.709213 2.044467 282.4651
v -3.641858 1.82514 289.1821
v -8.770832 -1.816629 284.8854
v -3.798126 -0.305349 283.917
v -3.188673 -0.425272 285.8895
v -18.04156 -0.2655554 293.3061
v -14.88086 0.3927818 294.9792
v -14.64993 2.157784 293.491
v -3.188673 -0.425272 285.8895
v -4.031723 0.7668342 283.2916
v -3.120049 0.6119975 290.7475
v -4.857331 2.40712 288.8161
v -3.120049 0.6119975 290.7475
v -3.641858 1.82514 289.1821
v -3.641858 1.82514 289.1821
v -3.120049 0.6119975 290.7475
v -4.031723 0.7668342 283.2916
v -3.188673 -0.425272 285.8895
v -3.120049 0.6119975 290.7475
v -3.983755 -1.185885 289.6009
v -17.97401 2.103363 290.6416
v -18.4459 2.119791 286.6902
v -18.878 -0.8361347 287.119
v -18.878 -0.8361347 287.119
v -18.4459 2.119791 286.6902
v -16.37024 -1.82077 285.4778
v -18.878 -0.8361347 287.119
v -16.37024 -1.82077 285.4778
v -18.67266 -1.822766 290.1727
v -3.120049 0.6119975 290.7475
v -14.64993 2.157784 293.491
v -14.88086 0.3927818 294.9792
v -8.770832 -1.816629 284.8854
v -3.188673 -0.425272 285.8895
v -3.983755 -1.185885 289.6009
v -18.04156 -0.2655554 293.3061
v -14.64993 2.157784 293.491
v -17.97401 2.103363 290.6416
v -11.56466 -1.81955 293.6427
v -8.770832 -1.816629 284.8854
v -3.983755 -1.185885 289.6009
vn 0.339309 -0.03687512 0.9399519
vn 0.339309 -0.03687512 0.9399519
vn 0.339309 -0.03687511 0.9399519
vn -0.2482564 -0.5353457 0.8073251
vn -0.2482564 -0.5353457 0.8073251
vn -0.2482564 -0.5353457 0.8073251
vn -0.248259 -0.5353435 0.8073257
vn -0.07192653 -0.3682507 -0.9269401
vn -0.07192653 -0.3682507 -0.9269401
vn -0.07192655 -0.3682507 -0.9269401
vn -0.03564705 0.9993047 0.0109297
vn -0.03564705 0.9993047 0.0109297
vn -0.03564705 0.9993047 0.0109297
vn -0.0356491 0.9993046 0.01093033
vn -0.0356491 0.9993046 0.01093033
vn -0.1268421 0.9168285 -0.3785982
vn -0.1268421 0.9168285 -0.3785982
vn -0.1268421 0.9168285 -0.3785982
vn -0.1268433 0.9168288 -0.3785971
vn 0.30553 0.6501225 0.6956955
vn 0.30553 0.6501226 0.6956954
vn 0.30553 0.6501225 0.6956955
vn 0.0008580499 -0.9999996 -0.0002631522
vn 0.0008580499 -0.9999996 -0.0002631522
vn 0.0008580499 -0.9999996 -0.0002631521
vn 0.0008549027 -0.9999996 -0.0002621872
vn 0.0008549026 -0.9999996 -0.0002621872
vn -0.987826 0.1006196 0.1186403
vn -0.987826 0.1006196 0.1186403
vn -0.987826 0.1006196 0.1186403
vn -0.987825 0.1006206 0.1186476
vn -0.9878258 0.1006211 0.1186411
vn -0.3855676 0.05004918 -0.9213212
vn -0.3855676 0.05004919 -0.9213212
vn -0.3855676 0.05004919 -0.9213212
vn 0.9558122 0.02323128 -0.2930587
vn 0.9558122 0.02323128 -0.2930587
vn 0.9558122 0.02323128 -0.2930587
vn 0.03189106 -0.3373385 -0.940843
vn 0.03189103 -0.3373385 -0.940843
vn 0.031891 -0.3373385 -0.940843
vn 0.03694245 -0.3739623 -0.9267079
vn 0.03694245 -0.3739622 -0.9267079
vn 0.03694243 -0.3739622 -0.9267079
vn 0.4673067 -0.4434577 0.7648332
vn 0.4673067 -0.4434577 0.7648332
vn 0.4673067 -0.4434577 0.7648332
vn 0.6364949 0.728801 -0.2524348
vn 0.6364949 0.728801 -0.2524348
vn 0.6364949 0.728801 -0.2524348
vn 0.636494 0.7288007 -0.2524377
vn 0.6364909 0.7288039 -0.2524367
vn 0.3956608 -0.8941671 -0.2095654
vn 0.3956608 -0.8941671 -0.2095654
vn 0.3956608 -0.8941671 -0.2095654
vn -0.5304961 0.4274899 0.7320015
vn -0.5304961 0.4274899 0.7320015
vn -0.5304961 0.4274899 0.7320015
vn 0.9555058 0.2746174 -0.107675
vn 0.9555058 0.2746174 -0.107675
vn 0.9555058 0.2746174 -0.107675
vn 0.2829432 0.6456273 0.7093015
vn 0.2829432 0.6456273 0.7093015
vn 0.2829432 0.6456273 0.7093015
vn 0.9787374 0.1705282 -0.1139876
vn 0.9787374 0.1705282 -0.1139876
vn 0.9787374 0.1705282 -0.1139876
vn 0.942425 -0.3201937 0.09649483
vn 0.942425 -0.3201937 0.09649483
vn 0.942425 -0.3201937 0.09649483
vn -0.9878256 0.1006195 0.1186432
vn -0.9878256 0.1006195 0.1186432
vn -0.9878256 0.1006195 0.1186432
vn -0.5580585 -0.02411893 -0.829451
vn -0.5580585 -0.02411893 -0.829451
vn -0.5580585 -0.02411894 -0.829451
vn -0.6456313 -0.6947022 -0.3170948
vn -0.6456313 -0.6947023 -0.3170948
vn -0.6456313 -0.6947022 -0.3170948
vn 0.2951452 0.4251446 0.8556526
vn 0.2951452 0.4251446 0.8556526
vn 0.2951452 0.4251446 0.8556526
vn 0.3956608 -0.8941672 -0.2095652
vn 0.3956608 -0.8941672 -0.2095652
vn 0.3956608 -0.8941672 -0.2095652
vn -0.580179 0.4740939 0.6622894
vn -0.5801791 0.4740939 0.6622894
vn -0.580179 0.4740939 0.6622894
vn 0.1591612 -0.9859729 0.05024918
vn 0.1591612 -0.9859729 0.05024919
vn 0.1591612 -0.9859729 0.05024918
f 1/1/1 2/2/2 3/3/3
f 4/4/4 5/5/5 6/6/6
f 7/7/7 5/5/5 4/4/4
f 8/8/8 9/9/9 10/10/10
f 11/11/11 12/12/12 13/13/13
f 11/11/11 14/14/14 12/12/12
f 11/11/11 15/15/15 14/14/14
f 16/16/16 17/17/17 18/18/18
f 19/19/19 16/16/16 18/18/18
f 20/20/20 21/21/21 22/22/22
f 23/23/23 24/24/24 25/25/25
f 25/25/25 24/24/24 26/26/26
f 25/25/25 26/26/26 27/27/27
f 28/28/28 29/29/29 30/30/30
f 31/31/31 30/30/30 29/29/29
f 31/31/31 29/29/29 32/32/32
f 33/33/33 34/34/34 35/35/35
f 36/36/36 37/37/37 38/38/38
f 39/39/39 40/40/40 41/41/41
f 42/42/42 43/43/43 39/39/39
f 43/43/43 42/42/42 44/44/44
f 45/45/45 46/46/46 47/47/47
f 48/48/48 49/49/49 50/50/50
f 51/51/51 49/49/49 48/48/48
f 48/48/48 50/50/50 52/52/52
f 53/53/53 54/54/54 55/55/55
f 56/56/56 57/57/57 58/58/58
f 59/59/59 60/60/60 61/61/61
f 62/62/62 63/63/63 64/64/64
f 65/65/65 66/66/66 67/67/67
f 68/68/68 69/69/69 70/70/70
f 71/71/71 72/72/72 73/73/73
f 74/74/74 75/75/75 76/76/76
f 77/77/77 78/78/78 79/79/79
f 80/80/80 81/81/81 82/82/82
f 83/83/83 84/84/84 85/85/85
f 86/86/86 87/87/87 88/88/88
f 89/89/89 90/90/90 91/91/91
