# Exported from Unity
# 10/1/2025 2:02:57 PM
mtllib Mound_Snow_01 1 (5).mtl
v 10.84468 4.104169 302.812
v 14.81893 4.104169 304.9878
v 17.25937 4.104169 304.4033
v 18.69281 4.104169 302.2631
v 21.46792 4.10417 298.7312
v 9.331883 4.104169 302.1273
v 8.490151 4.104169 301.8948
v 7.720185 4.10417 300.5295
v 22.69558 4.10417 296.4009
v 6.275369 4.10417 296.8577
v 22.72834 4.104171 294.852
v 22.00612 4.104171 290.5454
v 3.789392 4.104171 292.8386
v 21.51857 4.104171 290.058
v 20.77499 4.104172 285.5701
v 3.137761 4.104171 292.4036
v 3.66063 4.104171 291.7448
v 5.829844 4.104172 289.6434
v 7.846481 4.104172 286.0496
v 19.70255 4.104173 281.9257
v 9.013224 4.104173 282.0352
v 18.81006 4.104173 279.796
v 10.40573 4.104173 279.8469
v 16.94831 4.104173 278.4553
v 12.79565 4.104173 278.9572
v 10.40573 4.104173 279.8469
v 9.637994 -6.800172 275.7345
v 7.781909 -6.800173 278.6525
v 9.013224 4.104173 282.0352
v 9.013224 4.104173 282.0352
v 7.781909 -6.800173 278.6525
v 6.226458 -6.800174 284.0051
v 7.846481 4.104172 286.0496
v 7.846481 4.104172 286.0496
v 6.226458 -6.800174 284.0051
v 3.537714 -6.800175 288.7965
v 5.829844 4.104172 289.6434
v 22.69558 4.10417 296.4009
v 26.02484 -6.800176 297.8067
v 26.06877 -6.800176 295.7417
v 22.72834 4.104171 294.852
v 6.275369 4.10417 296.8577
v 4.131403 -6.800176 298.4157
v 6.057306 -6.800177 303.3115
v 7.720185 4.10417 300.5295
v 0.6450854 -6.800175 291.5984
v -0.05218115 -6.800175 292.4772
v 3.137761 4.104171 292.4036
v 3.66063 4.104171 291.7448
v 8.490151 4.104169 301.8948
v 7.084513 -6.800177 305.1321
v 8.207134 -6.800177 305.4418
v 9.331883 4.104169 302.1273
v 10.84468 4.104169 302.812
v 10.22326 -6.800178 306.3546
v 15.52302 -6.800178 309.2559
v 14.81893 4.104169 304.9878
v 12.82511 -6.800172 274.5482
v 12.79565 4.104173 278.9572
v 16.94831 4.104173 278.4553
v 18.36157 -6.800172 273.8797
v 17.25937 4.104169 304.4033
v 18.77643 -6.800178 308.4767
v 20.68792 -6.800177 305.6234
v 18.69281 4.104169 302.2631
v 21.51857 4.104171 290.058
v 24.45505 -6.800175 289.3498
v 23.46409 -6.800174 283.3657
v 20.77499 4.104172 285.5701
v 7.720185 4.10417 300.5295
v 6.057306 -6.800177 303.3115
v 7.084513 -6.800177 305.1321
v 8.490151 4.104169 301.8948
v 20.77499 4.104172 285.5701
v 23.46409 -6.800174 283.3657
v 22.0338 -6.800173 278.5065
v 19.70255 4.104173 281.9257
v 3.537714 -6.800175 288.7965
v 0.6450854 -6.800175 291.5984
v 3.66063 4.104171 291.7448
v 5.829844 4.104172 289.6434
v 9.331883 4.104169 302.1273
v 8.207134 -6.800177 305.4418
v 10.22326 -6.800178 306.3546
v 10.84468 4.104169 302.812
v 16.94831 4.104173 278.4553
v 18.81006 4.104173 279.796
v 20.84381 -6.800172 275.6667
v 18.36157 -6.800172 273.8797
v 3.789392 4.104171 292.8386
v 0.8169733 -6.800175 293.057
v 4.131403 -6.800176 298.4157
v 6.275369 4.10417 296.8577
v 3.137761 4.104171 292.4036
v -0.05218115 -6.800175 292.4772
v 0.8169733 -6.800175 293.057
v 3.789392 4.104171 292.8386
v 22.72834 4.104171 294.852
v 26.06877 -6.800176 295.7417
v 25.10542 -6.800175 289.9995
v 22.00612 4.104171 290.5454
v 19.70255 4.104173 281.9257
v 22.0338 -6.800173 278.5065
v 20.84381 -6.800172 275.6667
v 18.81006 4.104173 279.796
v 9.637994 -6.800172 275.7345
v 10.40573 4.104173 279.8469
v 12.79565 4.104173 278.9572
v 12.82511 -6.800172 274.5482
v 18.77643 -6.800178 308.4767
v 15.52302 -6.800178 309.2559
v 10.22326 -6.800178 306.3546
v 20.68792 -6.800177 305.6234
v 24.3878 -6.800177 300.9137
v 8.207134 -6.800177 305.4418
v 7.084513 -6.800177 305.1321
v 6.057306 -6.800177 303.3115
v 26.02484 -6.800176 297.8067
v 4.131403 -6.800176 298.4157
v 26.06877 -6.800176 295.7417
v 25.10542 -6.800175 289.9995
v 0.8169733 -6.800175 293.057
v 24.45505 -6.800175 289.3498
v 23.46409 -6.800174 283.3657
v -0.05218115 -6.800175 292.4772
v 0.6450854 -6.800175 291.5984
v 3.537714 -6.800175 288.7965
v 6.226458 -6.800174 284.0051
v 22.0338 -6.800173 278.5065
v 7.781909 -6.800173 278.6525
v 20.84381 -6.800172 275.6667
v 9.637994 -6.800172 275.7345
v 18.36157 -6.800172 273.8797
v 12.82511 -6.800172 274.5482
v 21.46792 4.10417 298.7312
v 18.69281 4.104169 302.2631
v 20.68792 -6.800177 305.6234
v 24.3878 -6.800177 300.9137
v 21.46792 4.10417 298.7312
v 24.3878 -6.800177 300.9137
v 26.02484 -6.800176 297.8067
v 22.69558 4.10417 296.4009
v 14.81893 4.104169 304.9878
v 15.52302 -6.800178 309.2559
v 18.77643 -6.800178 308.4767
v 17.25937 4.104169 304.4033
v 22.00612 4.104171 290.5454
v 25.10542 -6.800175 289.9995
v 24.45505 -6.800175 289.3498
v 21.51857 4.104171 290.058
vn 0.0004167334 0.9999976 0.002171603
vn 0.0004167334 0.9999976 0.002171603
vn 0.0004167334 0.9999976 0.002171603
vn 0.0004167334 0.9999976 0.002171603
vn 0.0004167334 0.9999976 0.002171603
vn 0.0004167334 0.9999976 0.002171603
vn 0.0004167334 0.9999976 0.002171603
vn 0.0004167334 0.9999976 0.002171603
vn 0.0004167334 0.9999976 0.002171603
vn 0.0004167334 0.9999976 0.002171603
vn 0.0004167334 0.9999976 0.002171603
vn 0.0004167334 0.9999976 0.002171603
vn 0.0004167334 0.9999976 0.002171603
vn 0.0004167334 0.9999976 0.002171603
vn 0.0004167334 0.9999976 0.002171603
vn 0.0004167334 0.9999976 0.002171603
vn 0.0004167334 0.9999976 0.002171603
vn 0.0004167334 0.9999976 0.002171603
vn 0.0004167334 0.9999976 0.002171603
vn 0.0004167334 0.9999976 0.002171603
vn 0.0004167334 0.9999976 0.002171603
vn 0.0004167334 0.9999976 0.002171603
vn 0.0004167334 0.9999976 0.002171603
vn 0.0004167334 0.9999976 0.002171603
vn 0.0004167334 0.9999976 0.002171603
vn -0.6520373 0.634025 -0.4157639
vn -0.6520373 0.634025 -0.4157639
vn -0.7377093 0.5893475 -0.3293243
vn -0.7377093 0.5893475 -0.3293243
vn -0.7377093 0.5893475 -0.3293243
vn -0.7377093 0.5893475 -0.3293243
vn -0.7683237 0.5511654 -0.3254157
vn -0.7683237 0.5511654 -0.3254157
vn -0.7683237 0.5511654 -0.3254157
vn -0.7683237 0.5511654 -0.3254157
vn -0.6536989 0.5609161 -0.507987
vn -0.6536989 0.5609161 -0.507987
vn 0.7152422 0.6986932 0.01601084
vn 0.7152422 0.6986932 0.01601084
vn 0.7283795 0.6832896 -0.05078137
vn 0.7283795 0.6832896 -0.05078137
vn -0.7174518 0.5985521 0.3563682
vn -0.7174518 0.5985521 0.3563682
vn -0.7105305 0.6165563 0.3391233
vn -0.7105305 0.6165563 0.3391233
vn -0.6109659 0.5609161 -0.5586535
vn -0.6394241 0.5800068 -0.5047066
vn -0.6394241 0.5800068 -0.5047066
vn -0.6109659 0.5609161 -0.5586535
vn -0.1811544 0.7136045 0.6767213
vn -0.1811544 0.7136045 0.6767213
vn -0.2326363 0.7136045 0.6607942
vn -0.2326363 0.7136045 0.6607942
vn -0.3142818 0.7062097 0.6344248
vn -0.3142818 0.7062097 0.6344248
vn -0.3488343 0.6986932 0.6246139
vn -0.3488343 0.6986932 0.6246139
vn -0.1716302 0.7749162 -0.6083157
vn -0.1716302 0.7749162 -0.6083157
vn -0.04676823 0.7811734 -0.6225598
vn -0.04676823 0.7811734 -0.6225598
vn 0.583232 0.7136046 0.3880838
vn 0.583232 0.7136046 0.3880838
vn 0.5593817 0.720879 0.4091765
vn 0.5593817 0.720879 0.4091765
vn 0.7413807 0.6592386 -0.1255357
vn 0.7413807 0.6592386 -0.1255357
vn 0.7252452 0.6673833 -0.1691717
vn 0.7252452 0.6673833 -0.1691717
vn -0.7105305 0.6165563 0.3391233
vn -0.7105305 0.6165563 0.3391233
vn -0.674728 0.634025 0.3778288
vn -0.674728 0.634025 0.3778288
vn 0.7252452 0.6673833 -0.1691717
vn 0.7252452 0.6673833 -0.1691717
vn 0.6821081 0.6910537 -0.2391097
vn 0.6821081 0.6910537 -0.2391097
vn -0.6536989 0.5609161 -0.507987
vn -0.6109659 0.5609161 -0.5586535
vn -0.6109659 0.5609161 -0.5586535
vn -0.6536989 0.5609161 -0.507987
vn -0.2326363 0.7136045 0.6607942
vn -0.2326363 0.7136045 0.6607942
vn -0.3142818 0.7062097 0.6344248
vn -0.3142818 0.7062097 0.6344248
vn 0.3561545 0.7933733 -0.4936728
vn 0.3561545 0.7933733 -0.4936728
vn 0.3561545 0.7933733 -0.4936728
vn 0.3561545 0.7933733 -0.4936728
vn -0.6762804 0.6076216 0.4164622
vn -0.6762804 0.6076216 0.4164622
vn -0.7174518 0.5985521 0.3563682
vn -0.7174518 0.5985521 0.3563682
vn -0.486289 0.4682324 0.7377543
vn -0.486289 0.4682324 0.7377543
vn -0.486289 0.4682324 0.7377543
vn -0.486289 0.4682324 0.7377543
vn 0.7283795 0.6832896 -0.05078137
vn 0.7283795 0.6832896 -0.05078137
vn 0.7271258 0.6753999 -0.122976
vn 0.7271258 0.6753999 -0.122976
vn 0.6821081 0.6910537 -0.2391097
vn 0.6821081 0.6910537 -0.2391097
vn 0.6538968 0.7062098 -0.2714528
vn 0.6538968 0.7062098 -0.2714528
vn -0.2345491 0.7620792 -0.6035081
vn -0.2345491 0.7620792 -0.6035081
vn -0.1716302 0.7749162 -0.6083157
vn -0.1716302 0.7749162 -0.6083157
vn 0.0004167334 -0.9999976 0.002171278
vn 0.0004167334 -0.9999976 0.002171278
vn 0.0004167334 -0.9999976 0.002171278
vn 0.0004167334 -0.9999976 0.002171278
vn 0.0004167334 -0.9999976 0.002171278
vn 0.0004167334 -0.9999976 0.002171278
vn 0.0004167334 -0.9999976 0.002171278
vn 0.0004167334 -0.9999976 0.002171278
vn 0.0004167334 -0.9999976 0.002171278
vn 0.0004167334 -0.9999976 0.002171278
vn 0.0004167334 -0.9999976 0.002171278
vn 0.0004167334 -0.9999976 0.002171278
vn 0.0004167334 -0.9999976 0.002171278
vn 0.0004167334 -0.9999976 0.002171278
vn 0.0004167334 -0.9999976 0.002171278
vn 0.0004167334 -0.9999976 0.002171278
vn 0.0004167334 -0.9999976 0.002171278
vn 0.0004167334 -0.9999976 0.002171278
vn 0.0004167334 -0.9999976 0.002171278
vn 0.0004167334 -0.9999976 0.002171278
vn 0.0004167334 -0.9999976 0.002171278
vn 0.0004167334 -0.9999976 0.002171278
vn 0.0004167334 -0.9999976 0.002171278
vn 0.0004167334 -0.9999976 0.002171278
vn 0.0004167334 -0.9999976 0.002171278
vn 0.584603 0.720879 0.3722535
vn 0.5593817 0.720879 0.4091765
vn 0.5593817 0.720879 0.4091765
vn 0.584603 0.720879 0.3722535
vn 0.584603 0.720879 0.3722535
vn 0.584603 0.720879 0.3722535
vn 0.6138632 0.7208791 0.3217224
vn 0.6138632 0.7208791 0.3217224
vn 0.1178859 0.7802492 0.6142591
vn 0.1178859 0.7802492 0.6142591
vn 0.1178859 0.7802492 0.6142591
vn 0.1178859 0.7802492 0.6142591
vn 0.5689842 0.5985523 -0.5639079
vn 0.5689842 0.5985523 -0.5639079
vn 0.5689842 0.5985523 -0.5639079
vn 0.5689842 0.5985523 -0.5639079
f 1/1/1 2/2/2 3/3/3
f 3/3/3 4/4/4 1/1/1
f 4/4/4 5/5/5 1/1/1
f 5/5/5 6/6/6 1/1/1
f 5/5/5 7/7/7 6/6/6
f 5/5/5 8/8/8 7/7/7
f 5/5/5 9/9/9 8/8/8
f 9/9/9 10/10/10 8/8/8
f 9/9/9 11/11/11 10/10/10
f 11/11/11 12/12/12 10/10/10
f 12/12/12 13/13/13 10/10/10
f 12/12/12 14/14/14 13/13/13
f 14/14/14 15/15/15 13/13/13
f 15/15/15 16/16/16 13/13/13
f 15/15/15 17/17/17 16/16/16
f 15/15/15 18/18/18 17/17/17
f 15/15/15 19/19/19 18/18/18
f 15/15/15 20/20/20 19/19/19
f 20/20/20 21/21/21 19/19/19
f 20/20/20 22/22/22 21/21/21
f 22/22/22 23/23/23 21/21/21
f 22/22/22 24/24/24 23/23/23
f 24/24/24 25/25/25 23/23/23
f 26/26/26 27/27/27 28/28/28
f 28/28/28 29/29/29 26/26/26
f 30/30/30 31/31/31 32/32/32
f 32/32/32 33/33/33 30/30/30
f 34/34/34 35/35/35 36/36/36
f 36/36/36 37/37/37 34/34/34
f 38/38/38 39/39/39 40/40/40
f 40/40/40 41/41/41 38/38/38
f 42/42/42 43/43/43 44/44/44
f 44/44/44 45/45/45 42/42/42
f 46/46/46 47/47/47 48/48/48
f 48/48/48 49/49/49 46/46/46
f 50/50/50 51/51/51 52/52/52
f 52/52/52 53/53/53 50/50/50
f 54/54/54 55/55/55 56/56/56
f 56/56/56 57/57/57 54/54/54
f 58/58/58 59/59/59 60/60/60
f 60/60/60 61/61/61 58/58/58
f 62/62/62 63/63/63 64/64/64
f 64/64/64 65/65/65 62/62/62
f 66/66/66 67/67/67 68/68/68
f 68/68/68 69/69/69 66/66/66
f 70/70/70 71/71/71 72/72/72
f 72/72/72 73/73/73 70/70/70
f 74/74/74 75/75/75 76/76/76
f 76/76/76 77/77/77 74/74/74
f 78/78/78 79/79/79 80/80/80
f 80/80/80 81/81/81 78/78/78
f 82/82/82 83/83/83 84/84/84
f 84/84/84 85/85/85 82/82/82
f 86/86/86 87/87/87 88/88/88
f 88/88/88 89/89/89 86/86/86
f 90/90/90 91/91/91 92/92/92
f 92/92/92 93/93/93 90/90/90
f 94/94/94 95/95/95 96/96/96
f 96/96/96 97/97/97 94/94/94
f 98/98/98 99/99/99 100/100/100
f 100/100/100 101/101/101 98/98/98
f 102/102/102 103/103/103 104/104/104
f 104/104/104 105/105/105 102/102/102
f 106/106/106 107/107/107 108/108/108
f 108/108/108 109/109/109 106/106/106
f 110/110/110 111/111/111 112/112/112
f 112/112/112 113/113/113 110/110/110
f 112/112/112 114/114/114 113/113/113
f 112/112/112 115/115/115 114/114/114
f 115/115/115 116/116/116 114/114/114
f 116/116/116 117/117/117 114/114/114
f 117/117/117 118/118/118 114/114/114
f 117/117/117 119/119/119 118/118/118
f 119/119/119 120/120/120 118/118/118
f 119/119/119 121/121/121 120/120/120
f 119/119/119 122/122/122 121/121/121
f 122/122/122 123/123/123 121/121/121
f 122/122/122 124/124/124 123/123/123
f 122/122/122 125/125/125 124/124/124
f 125/125/125 126/126/126 124/124/124
f 126/126/126 127/127/127 124/124/124
f 127/127/127 128/128/128 124/124/124
f 128/128/128 129/129/129 124/124/124
f 128/128/128 130/130/130 129/129/129
f 130/130/130 131/131/131 129/129/129
f 130/130/130 132/132/132 131/131/131
f 132/132/132 133/133/133 131/131/131
f 132/132/132 134/134/134 133/133/133
f 135/135/135 136/136/136 137/137/137
f 137/137/137 138/138/138 135/135/135
f 139/139/139 140/140/140 141/141/141
f 141/141/141 142/142/142 139/139/139
f 143/143/143 144/144/144 145/145/145
f 145/145/145 146/146/146 143/143/143
f 147/147/147 148/148/148 149/149/149
f 149/149/149 150/150/150 147/147/147
v 10.10623 7.352084 298.0074
v 11.86321 7.352083 299.8942
v 13.28599 7.352083 300.0155
v 14.44342 7.352083 299.1162
v 16.57469 7.352084 297.7054
v 9.411739 7.352084 297.3667
v 8.998726 7.352084 297.0905
v 8.827312 7.352084 296.2152
v 17.655 7.352084 296.6666
v 8.704372 7.352084 293.9733
v 17.95004 7.352084 295.8359
v 18.33105 7.352084 293.3805
v 8.08128 7.352085 291.3574
v 18.15499 7.352084 293.0299
v 18.55693 7.352085 290.4728
v 7.807213 7.352085 291.0057
v 8.207585 7.352085 290.7435
v 9.755469 7.352085 289.9969
v 11.48816 7.352085 288.4169
v 18.63021 7.352085 288.3124
v 12.83712 7.352086 286.4576
v 18.5295 7.352085 287.0023
v 13.98105 7.352086 285.525
v 17.76398 7.352086 285.9448
v 15.43119 7.352086 285.4723
v 13.98105 7.352086 285.525
v 14.3027 1.899913 283.1664
v 12.77774 1.899913 284.4101
v 12.83712 7.352086 286.4576
v 12.83712 7.352086 286.4576
v 12.77774 1.899913 284.4101
v 10.97921 1.899912 287.0226
v 11.48816 7.352085 288.4169
v 11.48816 7.352085 288.4169
v 10.97921 1.899912 287.0226
v 8.669086 1.899912 289.1291
v 9.755469 7.352085 289.9969
v 17.655 7.352084 296.6666
v 19.2015 1.89991 298.022
v 19.59495 1.899911 296.9146
v 17.95004 7.352084 295.8359
v 8.704372 7.352084 293.9733
v 7.267426 1.899911 294.4309
v 7.431047 1.89991 297.42
v 8.827312 7.352084 296.2152
v 6.605042 1.899912 290.1245
v 6.071087 1.899912 290.4743
v 7.807213 7.352085 291.0057
v 8.207585 7.352085 290.7435
v 8.998726 7.352084 297.0905
v 7.65987 1.89991 298.5873
v 8.210767 1.89991 298.9556
v 9.411739 7.352084 297.3667
v 10.10623 7.352084 298.0074
v 9.136284 1.89991 299.8096
v 11.4793 1.89991 302.3256
v 11.86321 7.352083 299.8942
v 16.23652 1.899913 283.0963
v 15.43119 7.352086 285.4723
v 17.76398 7.352086 285.9448
v 19.34657 1.899913 283.7265
v 13.28599 7.352083 300.0155
v 13.37603 1.89991 302.4872
v 14.91935 1.89991 301.2884
v 14.44342 7.352083 299.1162
v 18.15499 7.352084 293.0299
v 19.86783 1.899911 293.1732
v 20.40406 1.899912 289.7636
v 18.55693 7.352085 290.4728
v 8.827312 7.352084 296.2152
v 7.431047 1.89991 297.42
v 7.65987 1.89991 298.5873
v 8.998726 7.352084 297.0905
v 18.55693 7.352085 290.4728
v 20.40406 1.899912 289.7636
v 20.50158 1.899912 286.883
v 18.63021 7.352085 288.3124
v 8.669086 1.899912 289.1291
v 6.605042 1.899912 290.1245
v 8.207585 7.352085 290.7435
v 9.755469 7.352085 289.9969
v 9.411739 7.352084 297.3667
v 8.210767 1.89991 298.9556
v 9.136284 1.89991 299.8096
v 10.10623 7.352084 298.0074
v 17.76398 7.352086 285.9448
v 18.5295 7.352085 287.0023
v 20.36729 1.899912 285.1362
v 19.34657 1.899913 283.7265
v 8.08128 7.352085 291.3574
v 6.436721 1.899912 290.9431
v 7.267426 1.899911 294.4309
v 8.704372 7.352084 293.9733
v 7.807213 7.352085 291.0057
v 6.071087 1.899912 290.4743
v 6.436721 1.899912 290.9431
v 8.08128 7.352085 291.3574
v 17.95004 7.352084 295.8359
v 19.59495 1.899911 296.9146
v 20.10278 1.899911 293.6406
v 18.33105 7.352084 293.3805
v 18.63021 7.352085 288.3124
v 20.50158 1.899912 286.883
v 20.36729 1.899912 285.1362
v 18.5295 7.352085 287.0023
v 14.3027 1.899913 283.1664
v 13.98105 7.352086 285.525
v 15.43119 7.352086 285.4723
v 16.23652 1.899913 283.0963
v 13.37603 1.89991 302.4872
v 11.4793 1.89991 302.3256
v 9.136284 1.89991 299.8096
v 14.91935 1.89991 301.2884
v 17.76099 1.89991 299.407
v 8.210767 1.89991 298.9556
v 7.65987 1.89991 298.5873
v 7.431047 1.89991 297.42
v 19.2015 1.89991 298.022
v 7.267426 1.899911 294.4309
v 19.59495 1.899911 296.9146
v 20.10278 1.899911 293.6406
v 6.436721 1.899912 290.9431
v 19.86783 1.899911 293.1732
v 20.40406 1.899912 289.7636
v 6.071087 1.899912 290.4743
v 6.605042 1.899912 290.1245
v 8.669086 1.899912 289.1291
v 10.97921 1.899912 287.0226
v 20.50158 1.899912 286.883
v 12.77774 1.899913 284.4101
v 20.36729 1.899912 285.1362
v 14.3027 1.899913 283.1664
v 19.34657 1.899913 283.7265
v 16.23652 1.899913 283.0963
v 16.57469 7.352084 297.7054
v 14.44342 7.352083 299.1162
v 14.91935 1.89991 301.2884
v 17.76099 1.89991 299.407
v 16.57469 7.352084 297.7054
v 17.76099 1.89991 299.407
v 19.2015 1.89991 298.022
v 17.655 7.352084 296.6666
v 11.86321 7.352083 299.8942
v 11.4793 1.89991 302.3256
v 13.37603 1.89991 302.4872
v 13.28599 7.352083 300.0155
v 18.33105 7.352084 293.3805
v 20.10278 1.899911 293.6406
v 19.86783 1.899911 293.1732
v 18.15499 7.352084 293.0299
vn -0.0003274235 0.9999968 0.002495061
vn -0.0003274235 0.9999968 0.002495061
vn -0.0003274235 0.9999968 0.002495061
vn -0.0003274235 0.9999968 0.002495061
vn -0.0003274235 0.9999968 0.002495061
vn -0.0003274235 0.9999968 0.002495061
vn -0.0003274235 0.9999968 0.002495061
vn -0.0003274235 0.9999968 0.002495061
vn -0.0003274235 0.9999968 0.002495061
vn -0.0003274235 0.9999968 0.002495061
vn -0.0003274235 0.9999968 0.002495061
vn -0.0003274235 0.9999968 0.002495061
vn -0.0003274235 0.9999968 0.002495061
vn -0.0003274235 0.9999968 0.002495061
vn -0.0003274235 0.9999968 0.002495061
vn -0.0003274235 0.9999968 0.002495061
vn -0.0003274235 0.9999968 0.002495061
vn -0.0003274235 0.9999968 0.002495061
vn -0.0003274235 0.9999968 0.002495061
vn -0.0003274235 0.9999968 0.002495061
vn -0.0003274235 0.9999968 0.002495061
vn -0.0003274235 0.9999968 0.002495061
vn -0.0003274235 0.9999968 0.002495061
vn -0.0003274235 0.9999968 0.002495061
vn -0.0003274235 0.9999968 0.002495061
vn -0.5121102 0.5845349 -0.6293346
vn -0.5121102 0.5845349 -0.6293346
vn -0.6217223 0.5396575 -0.567654
vn -0.6217223 0.5396575 -0.567654
vn -0.6217223 0.5396575 -0.567654
vn -0.6217223 0.5396575 -0.567654
vn -0.6497945 0.5019971 -0.5707593
vn -0.6497945 0.5019971 -0.5707593
vn -0.6497945 0.5019971 -0.5707593
vn -0.6497945 0.5019971 -0.5707593
vn -0.4781071 0.5115575 -0.7139486
vn -0.4781071 0.5115575 -0.7139486
vn 0.7148044 0.6512337 0.2548515
vn 0.7148044 0.6512337 0.2548515
vn 0.7482859 0.6351454 0.1914642
vn 0.7482859 0.6351454 0.1914642
vn -0.8276489 0.5488291 0.117405
vn -0.8276489 0.5488291 0.117405
vn -0.8173525 0.5668786 0.1028762
vn -0.8173525 0.5668786 0.1028762
vn -0.4194603 0.5115574 -0.749908
vn -0.4663637 0.5303881 -0.7079501
vn -0.4663637 0.5303881 -0.7079501
vn -0.4194603 0.5115574 -0.749908
vn -0.4093772 0.6669353 0.6225813
vn -0.4093772 0.6669353 0.6225813
vn -0.4560222 0.6669353 0.5892715
vn -0.4560222 0.6669353 0.5892715
vn -0.52891 0.6591327 0.5346011
vn -0.52891 0.6591327 0.5346011
vn -0.5597084 0.6512338 0.5124658
vn -0.5597084 0.6512338 0.5124658
vn 0.03067891 0.7329105 -0.679633
vn 0.03067891 0.7329105 -0.679633
vn 0.1632821 0.7397801 -0.6527361
vn 0.1632821 0.7397801 -0.6527361
vn 0.4589403 0.6669353 0.5870018
vn 0.4589403 0.6669353 0.5870018
vn 0.4283786 0.6746422 0.6011238
vn 0.4283786 0.6746422 0.6011238
vn 0.783007 0.6102815 0.1202354
vn 0.783007 0.6102815 0.1202354
vn 0.7824068 0.6186673 0.07134727
vn 0.7824068 0.6186673 0.07134727
vn -0.8173525 0.5668786 0.1028762
vn -0.8173525 0.5668786 0.1028762
vn -0.7967114 0.5845348 0.1535252
vn -0.7967114 0.5845348 0.1535252
vn 0.7824068 0.6186673 0.07134727
vn 0.7824068 0.6186673 0.07134727
vn 0.7655547 0.6432381 -0.01306066
vn 0.7655547 0.6432381 -0.01306066
vn -0.4781071 0.5115575 -0.7139486
vn -0.4194603 0.5115574 -0.749908
vn -0.4194603 0.5115574 -0.749908
vn -0.4781071 0.5115575 -0.7139486
vn -0.4560222 0.6669353 0.5892715
vn -0.4560222 0.6669353 0.5892715
vn -0.52891 0.6591327 0.5346011
vn -0.52891 0.6591327 0.5346011
vn 0.5331184 0.7532509 -0.3852245
vn 0.5331184 0.7532509 -0.3852245
vn 0.5331184 0.7532509 -0.3852245
vn 0.5331184 0.7532509 -0.3852245
vn -0.8076978 0.5579029 0.1907058
vn -0.8076978 0.5579029 0.1907058
vn -0.8276489 0.5488291 0.117405
vn -0.8276489 0.5488291 0.117405
vn -0.7117389 0.4221161 0.5614674
vn -0.7117389 0.4221161 0.5614674
vn -0.7117389 0.4221161 0.5614674
vn -0.7117389 0.4221161 0.5614674
vn 0.7482859 0.6351454 0.1914642
vn 0.7482859 0.6351454 0.1914642
vn 0.7700067 0.6269552 0.118393
vn 0.7700067 0.6269552 0.118393
vn 0.7655547 0.6432381 -0.01306066
vn 0.7655547 0.6432381 -0.01306066
vn 0.7500028 0.6591328 -0.05513437
vn 0.7500028 0.6591328 -0.05513437
vn -0.03514096 0.7188994 -0.6942253
vn -0.03514096 0.7188994 -0.6942253
vn 0.03067891 0.7329105 -0.679633
vn 0.03067891 0.7329105 -0.679633
vn -0.0003274235 -0.9999968 0.002494735
vn -0.0003274235 -0.9999968 0.002494735
vn -0.0003274235 -0.9999968 0.002494735
vn -0.0003274235 -0.9999968 0.002494735
vn -0.0003274235 -0.9999968 0.002494735
vn -0.0003274235 -0.9999968 0.002494735
vn -0.0003274235 -0.9999968 0.002494735
vn -0.0003274235 -0.9999968 0.002494735
vn -0.0003274235 -0.9999968 0.002494735
vn -0.0003274235 -0.9999968 0.002494735
vn -0.0003274235 -0.9999968 0.002494735
vn -0.0003274235 -0.9999968 0.002494735
vn -0.0003274235 -0.9999968 0.002494735
vn -0.0003274235 -0.9999968 0.002494735
vn -0.0003274235 -0.9999968 0.002494735
vn -0.0003274235 -0.9999968 0.002494735
vn -0.0003274235 -0.9999968 0.002494735
vn -0.0003274235 -0.9999968 0.002494735
vn -0.0003274235 -0.9999968 0.002494735
vn -0.0003274235 -0.9999968 0.002494735
vn -0.0003274235 -0.9999968 0.002494735
vn -0.0003274235 -0.9999968 0.002494735
vn -0.0003274235 -0.9999968 0.002494735
vn -0.0003274235 -0.9999968 0.002494735
vn -0.0003274235 -0.9999968 0.002494735
vn 0.4662501 0.6746422 0.5722489
vn 0.4283786 0.6746422 0.6011238
vn 0.4283786 0.6746422 0.6011238
vn 0.4662501 0.6746422 0.5722489
vn 0.4662501 0.6746422 0.5722489
vn 0.4662501 0.6746422 0.5722489
vn 0.5127653 0.6746422 0.5309704
vn 0.5127653 0.6746422 0.5309704
vn -0.08769725 0.7387637 0.6682345
vn -0.08769725 0.7387637 0.6682345
vn -0.08769725 0.7387637 0.6682345
vn -0.08769725 0.7387637 0.6682345
vn 0.7487382 0.5488293 -0.3717224
vn 0.7487382 0.5488293 -0.3717224
vn 0.7487382 0.5488293 -0.3717224
vn 0.7487382 0.5488293 -0.3717224
f 151/151/151 152/152/152 153/153/153
f 153/153/153 154/154/154 151/151/151
f 154/154/154 155/155/155 151/151/151
f 155/155/155 156/156/156 151/151/151
f 155/155/155 157/157/157 156/156/156
f 155/155/155 158/158/158 157/157/157
f 155/155/155 159/159/159 158/158/158
f 159/159/159 160/160/160 158/158/158
f 159/159/159 161/161/161 160/160/160
f 161/161/161 162/162/162 160/160/160
f 162/162/162 163/163/163 160/160/160
f 162/162/162 164/164/164 163/163/163
f 164/164/164 165/165/165 163/163/163
f 165/165/165 166/166/166 163/163/163
f 165/165/165 167/167/167 166/166/166
f 165/165/165 168/168/168 167/167/167
f 165/165/165 169/169/169 168/168/168
f 165/165/165 170/170/170 169/169/169
f 170/170/170 171/171/171 169/169/169
f 170/170/170 172/172/172 171/171/171
f 172/172/172 173/173/173 171/171/171
f 172/172/172 174/174/174 173/173/173
f 174/174/174 175/175/175 173/173/173
f 176/176/176 177/177/177 178/178/178
f 178/178/178 179/179/179 176/176/176
f 180/180/180 181/181/181 182/182/182
f 182/182/182 183/183/183 180/180/180
f 184/184/184 185/185/185 186/186/186
f 186/186/186 187/187/187 184/184/184
f 188/188/188 189/189/189 190/190/190
f 190/190/190 191/191/191 188/188/188
f 192/192/192 193/193/193 194/194/194
f 194/194/194 195/195/195 192/192/192
f 196/196/196 197/197/197 198/198/198
f 198/198/198 199/199/199 196/196/196
f 200/200/200 201/201/201 202/202/202
f 202/202/202 203/203/203 200/200/200
f 204/204/204 205/205/205 206/206/206
f 206/206/206 207/207/207 204/204/204
f 208/208/208 209/209/209 210/210/210
f 210/210/210 211/211/211 208/208/208
f 212/212/212 213/213/213 214/214/214
f 214/214/214 215/215/215 212/212/212
f 216/216/216 217/217/217 218/218/218
f 218/218/218 219/219/219 216/216/216
f 220/220/220 221/221/221 222/222/222
f 222/222/222 223/223/223 220/220/220
f 224/224/224 225/225/225 226/226/226
f 226/226/226 227/227/227 224/224/224
f 228/228/228 229/229/229 230/230/230
f 230/230/230 231/231/231 228/228/228
f 232/232/232 233/233/233 234/234/234
f 234/234/234 235/235/235 232/232/232
f 236/236/236 237/237/237 238/238/238
f 238/238/238 239/239/239 236/236/236
f 240/240/240 241/241/241 242/242/242
f 242/242/242 243/243/243 240/240/240
f 244/244/244 245/245/245 246/246/246
f 246/246/246 247/247/247 244/244/244
f 248/248/248 249/249/249 250/250/250
f 250/250/250 251/251/251 248/248/248
f 252/252/252 253/253/253 254/254/254
f 254/254/254 255/255/255 252/252/252
f 256/256/256 257/257/257 258/258/258
f 258/258/258 259/259/259 256/256/256
f 260/260/260 261/261/261 262/262/262
f 262/262/262 263/263/263 260/260/260
f 262/262/262 264/264/264 263/263/263
f 262/262/262 265/265/265 264/264/264
f 265/265/265 266/266/266 264/264/264
f 266/266/266 267/267/267 264/264/264
f 267/267/267 268/268/268 264/264/264
f 267/267/267 269/269/269 268/268/268
f 269/269/269 270/270/270 268/268/268
f 269/269/269 271/271/271 270/270/270
f 269/269/269 272/272/272 271/271/271
f 272/272/272 273/273/273 271/271/271
f 272/272/272 274/274/274 273/273/273
f 272/272/272 275/275/275 274/274/274
f 275/275/275 276/276/276 274/274/274
f 276/276/276 277/277/277 274/274/274
f 277/277/277 278/278/278 274/274/274
f 278/278/278 279/279/279 274/274/274
f 278/278/278 280/280/280 279/279/279
f 280/280/280 281/281/281 279/279/279
f 280/280/280 282/282/282 281/281/281
f 282/282/282 283/283/283 281/281/281
f 282/282/282 284/284/284 283/283/283
f 285/285/285 286/286/286 287/287/287
f 287/287/287 288/288/288 285/285/285
f 289/289/289 290/290/290 291/291/291
f 291/291/291 292/292/292 289/289/289
f 293/293/293 294/294/294 295/295/295
f 295/295/295 296/296/296 293/293/293
f 297/297/297 298/298/298 299/299/299
f 299/299/299 300/300/300 297/297/297
