# Export from Prisma3D 3.1.3
mtllib 无标题.mtl
o default
v 0.866025 -1 -0.4999999
v 0.866025 1 -0.4999999
v 8.742278E-08 1 -1
v 8.742278E-08 1 -1
v 8.742278E-08 -1 -1
v 0.866025 -1 -0.4999999
v 0.8660249 -1 0.5000001
v 0.8660249 1 0.5000001
v 0.866025 1 -0.4999999
v 0.866025 1 -0.4999999
v 0.866025 -1 -0.4999999
v 0.8660249 -1 0.5000001
v -8.742278E-08 -1 1
v -8.742278E-08 1 1
v 0.8660249 1 0.5000001
v 0.8660249 1 0.5000001
v 0.8660249 -1 0.5000001
v -8.742278E-08 -1 1
v -0.866025 -1 0.4999999
v -0.866025 1 0.4999999
v -8.742278E-08 1 1
v -8.742278E-08 1 1
v -8.742278E-08 -1 1
v -0.866025 -1 0.4999999
v -0.866025 1 0.4999999
v 0.8660249 1 0.5000001
v -8.742278E-08 1 1
v -0.866025 1 0.4999999
v 0.866025 1 -0.4999999
v 0.8660249 1 0.5000001
v -0.8660249 1 -0.5000001
v 0.866025 1 -0.4999999
v -0.866025 1 0.4999999
v 0.866025 1 -0.4999999
v -0.8660249 1 -0.5000001
v 8.742278E-08 1 -1
v -0.8660249 -1 -0.5000001
v -0.8660249 1 -0.5000001
v -0.866025 1 0.4999999
v -0.866025 1 0.4999999
v -0.866025 -1 0.4999999
v -0.8660249 -1 -0.5000001
v 8.742278E-08 -1 -1
v 8.742278E-08 1 -1
v -0.8660249 1 -0.5000001
v -0.8660249 1 -0.5000001
v -0.8660249 -1 -0.5000001
v 8.742278E-08 -1 -1
v 0.8660249 -1 0.5000001
v -0.866025 -1 0.4999999
v -8.742278E-08 -1 1
v 0.866025 -1 -0.4999999
v -0.866025 -1 0.4999999
v 0.8660249 -1 0.5000001
v 0.866025 -1 -0.4999999
v -0.8660249 -1 -0.5000001
v -0.866025 -1 0.4999999
v -0.8660249 -1 -0.5000001
v 0.866025 -1 -0.4999999
v 8.742278E-08 -1 -1
vn 0.5000002 0 -0.8660253
vn 0.5000003 0 -0.8660253
vn 0.5000002 0 -0.8660253
vn 0.5000002 0 -0.8660253
vn 0.5000003 0 -0.8660253
vn 0.5000002 0 -0.8660253
vn 1 0 1.192093E-07
vn 1 0 1.192093E-07
vn 1 0 1.192093E-07
vn 1 0 1.192093E-07
vn 1 0 1.192093E-07
vn 1 0 1.192093E-07
vn 0.5000002 -5.553334E-09 0.8660253
vn 0.5000002 -5.553334E-09 0.8660253
vn 0.5000002 -5.553334E-09 0.8660253
vn 0.5000002 -5.553334E-09 0.8660253
vn 0.5000002 -5.553334E-09 0.8660253
vn 0.5000002 -5.553334E-09 0.8660253
vn -0.5000002 0 0.8660253
vn -0.5000003 0 0.8660253
vn -0.5000002 0 0.8660253
vn -0.5000002 0 0.8660253
vn -0.5000003 0 0.8660253
vn -0.5000002 0 0.8660253
vn 0 1 0
vn 0 1 0
vn 0 1 0
vn 0 1 0
vn 0 1 0
vn 0 1 0
vn 0 1 0
vn 0 1 0
vn 0 1 0
vn 0 1 0
vn 0 1 0
vn 0 1 0
vn -1 0 -1.192093E-07
vn -1 0 -1.192093E-07
vn -1 0 -1.192093E-07
vn -1 0 -1.192093E-07
vn -1 0 -1.192093E-07
vn -1 0 -1.192093E-07
vn -0.5000002 -5.553334E-09 -0.8660253
vn -0.5000002 -5.553334E-09 -0.8660253
vn -0.5000002 -5.553334E-09 -0.8660253
vn -0.5000002 -5.553334E-09 -0.8660253
vn -0.5000002 -5.553334E-09 -0.8660253
vn -0.5000002 -5.553334E-09 -0.8660253
vn 0 -1 0
vn 0 -1 0
vn 0 -1 0
vn 0 -1 0
vn 0 -1 0
vn 0 -1 0
vn 0 -1 0
vn 0 -1 0
vn 0 -1 0
vn 0 -1 0
vn 0 -1 0
vn 0 -1 0
vt 0.833333 0.5
vt 0.833333 1
vt 1 1
vt 1 1
vt 1 0.5
vt 0.833333 0.5
vt 0.666667 0.5
vt 0.666667 1
vt 0.833333 1
vt 0.833333 1
vt 0.833333 0.5
vt 0.666667 0.5
vt 0.5 0.5
vt 0.5 1
vt 0.666667 1
vt 0.666667 1
vt 0.666667 0.5
vt 0.5 0.5
vt 0.333333 0.5
vt 0.333333 1
vt 0.5 1
vt 0.5 1
vt 0.5 0.5
vt 0.333333 0.5
vt 0.042154 0.13
vt 0.457846 0.13
vt 0.25 0.01
vt 0.042154 0.13
vt 0.457846 0.37
vt 0.457846 0.13
vt 0.042154 0.37
vt 0.457846 0.37
vt 0.042154 0.13
vt 0.457846 0.37
vt 0.042154 0.37
vt 0.25 0.49
vt 0.166667 0.5
vt 0.166667 1
vt 0.333333 1
vt 0.333333 1
vt 0.333333 0.5
vt 0.166667 0.5
vt 0 0.5
vt 0 1
vt 0.166667 1
vt 0.166667 1
vt 0.166667 0.5
vt 0 0.5
vt 0.957846 0.13
vt 0.542154 0.13
vt 0.75 0.01
vt 0.957846 0.37
vt 0.542154 0.13
vt 0.957846 0.13
vt 0.957846 0.37
vt 0.542154 0.37
vt 0.542154 0.13
vt 0.542154 0.37
vt 0.957846 0.37
vt 0.75 0.49
usemtl default
f 3/3/3 2/2/2 1/1/1
f 6/6/6 5/5/5 4/4/4
f 9/9/9 8/8/8 7/7/7
f 12/12/12 11/11/11 10/10/10
f 15/15/15 14/14/14 13/13/13
f 18/18/18 17/17/17 16/16/16
f 21/21/21 20/20/20 19/19/19
f 24/24/24 23/23/23 22/22/22
f 27/27/27 26/26/26 25/25/25
f 30/30/30 29/29/29 28/28/28
f 33/33/33 32/32/32 31/31/31
f 36/36/36 35/35/35 34/34/34
f 39/39/39 38/38/38 37/37/37
f 42/42/42 41/41/41 40/40/40
f 45/45/45 44/44/44 43/43/43
f 48/48/48 47/47/47 46/46/46
f 51/51/51 50/50/50 49/49/49
f 54/54/54 53/53/53 52/52/52
f 57/57/57 56/56/56 55/55/55
f 60/60/60 59/59/59 58/58/58
