# exported by gszh.xyz
mtllib gszh_xyz.mtl
g SM_Env_Tree_DirtPile_01
v 27.981143951416016 10.54128646850586 -13.852312088012695
v 12.201899528503418 12.10582160949707 -33.11879348754883
v 5.400803089141846 16.692270278930664 1.7368597984313965
v 12.201899528503418 12.10582160949707 -33.11879348754883
v -27.432035446166992 9.243896484375 -18.619382858276367
v 5.400803089141846 16.692270278930664 1.7368597984313965
v -27.432035446166992 9.243896484375 -18.619382858276367
v -42.45743179321289 11.437320709228516 3.5962626934051514
v 5.400803089141846 16.692270278930664 1.7368597984313965
v -42.45743179321289 11.437320709228516 3.5962626934051514
v -24.737783432006836 10.528915405273438 25.93705177307129
v 5.400803089141846 16.692270278930664 1.7368597984313965
v -24.737783432006836 10.528915405273438 25.93705177307129
v 8.936468124389648 13.15664005279541 32.82648849487305
v 5.400803089141846 16.692270278930664 1.7368597984313965
v 8.936468124389648 13.15664005279541 32.82648849487305
v 24.11895751953125 11.437320709228516 20.102001190185547
v 5.400803089141846 16.692270278930664 1.7368597984313965
v 24.11895751953125 11.437320709228516 20.102001190185547
v 31.077983856201172 9.104480743408203 4.349092960357666
v 5.400803089141846 16.692270278930664 1.7368597984313965
v 31.077983856201172 9.104480743408203 4.349092960357666
v 27.981143951416016 10.54128646850586 -13.852312088012695
v 5.400803089141846 16.692270278930664 1.7368597984313965
v 47.531925201416016 0 -19.547636032104492
v 5.4008026123046875 0 -48.663352966308594
v 12.201899528503418 12.10582160949707 -33.11879348754883
v 47.531925201416016 0 -19.547636032104492
v 12.201899528503418 12.10582160949707 -33.11879348754883
v 27.981143951416016 10.54128646850586 -13.852312088012695
v 5.4008026123046875 0 -48.663352966308594
v -30.23754119873047 0 -33.901485443115234
v -27.432035446166992 9.243896484375 -18.619382858276367
v 5.4008026123046875 0 -48.663352966308594
v -27.432035446166992 9.243896484375 -18.619382858276367
v 12.201899528503418 12.10582160949707 -33.11879348754883
v -30.23754119873047 0 -33.901485443115234
v -55.801021575927734 0 3.5962636470794678
v -42.45743179321289 11.437320709228516 3.5962626934051514
v -30.23754119873047 0 -33.901485443115234
v -42.45743179321289 11.437320709228516 3.5962626934051514
v -27.432035446166992 9.243896484375 -18.619382858276367
v -55.801021575927734 0 3.5962636470794678
v -30.23754119873047 0 37.37520217895508
v -24.737783432006836 10.528915405273438 25.93705177307129
v -55.801021575927734 0 3.5962636470794678
v -24.737783432006836 10.528915405273438 25.93705177307129
v -42.45743179321289 11.437320709228516 3.5962626934051514
v -30.23754119873047 0 37.37520217895508
v 8.830963134765625 0 48.663352966308594
v 8.936468124389648 13.15664005279541 32.82648849487305
v -30.23754119873047 0 37.37520217895508
v 8.936468124389648 13.15664005279541 32.82648849487305
v -24.737783432006836 10.528915405273438 25.93705177307129
v 8.830963134765625 0 48.663352966308594
v 41.039146423339844 0 37.375205993652344
v 24.11895751953125 11.437320709228516 20.102001190185547
v 8.830963134765625 0 48.663352966308594
v 24.11895751953125 11.437320709228516 20.102001190185547
v 8.936468124389648 13.15664005279541 32.82648849487305
v 41.039146423339844 0 37.375205993652344
v 55.801021575927734 0 1.7368605136871338
v 31.077983856201172 9.104480743408203 4.349092960357666
v 41.039146423339844 0 37.375205993652344
v 31.077983856201172 9.104480743408203 4.349092960357666
v 24.11895751953125 11.437320709228516 20.102001190185547
v 55.801021575927734 0 1.7368605136871338
v 47.531925201416016 0 -19.547636032104492
v 27.981143951416016 10.54128646850586 -13.852312088012695
v 55.801021575927734 0 1.7368605136871338
v 27.981143951416016 10.54128646850586 -13.852312088012695
v 31.077983856201172 9.104480743408203 4.349092960357666
vn 0.2045508623123169 0.974859356880188 -0.08836366981267929
vn 0.2045508623123169 0.974859356880188 -0.08836366981267929
vn 0.2045508623123169 0.974859356880188 -0.08836366981267929
vn -0.12699531018733978 0.9799193739891052 -0.15372130274772644
vn -0.1269952952861786 0.9799193739891052 -0.15372130274772644
vn -0.12699532508850098 0.9799193739891052 -0.15372133255004883
vn -0.11415459215641022 0.9781452417373657 -0.17378312349319458
vn -0.11415459215641022 0.9781452417373657 -0.17378313839435577
vn -0.11415459215641022 0.9781452417373657 -0.17378313839435577
vn -0.10362932085990906 0.9870645999908447 0.12232916802167892
vn -0.10362932831048965 0.9870645999908447 0.12232918292284012
vn -0.10362932085990906 0.9870645999908447 0.12232918292284012
vn -0.10236550122499466 0.9870021939277649 0.12388712912797928
vn -0.10236551612615585 0.9870021939277649 0.12388712912797928
vn -0.10236550867557526 0.9870021939277649 0.12388714402914047
vn 0.18628652393817902 0.9783574938774109 0.09007718414068222
vn 0.1862865388393402 0.9783574938774109 0.09007719904184341
vn 0.1862865388393402 0.9783574938774109 0.09007719159126282
vn 0.2848612070083618 0.9584336876869202 -0.01609322614967823
vn 0.2848612368106842 0.9584336876869202 -0.01609322987496853
vn 0.2848612070083618 0.9584336876869202 -0.01609322614967823
vn 0.2806624472141266 0.9593985676765442 0.02798139490187168
vn 0.2806624472141266 0.9593985676765442 0.02798139490187168
vn 0.2806624174118042 0.9593985676765442 0.027981391176581383
vn 0.4478837251663208 0.73270183801651 -0.5123945474624634
vn 0.4478837847709656 0.7327017784118652 -0.5123945474624634
vn 0.4478837847709656 0.73270183801651 -0.5123945474624634
vn 0.4478837251663208 0.73270183801651 -0.5123945474624634
vn 0.4478837847709656 0.73270183801651 -0.5123945474624634
vn 0.4478837549686432 0.73270183801651 -0.5123945474624634
vn -0.22807878255844116 0.8322477340698242 -0.5053154826164246
vn -0.22807878255844116 0.8322477340698242 -0.5053155422210693
vn -0.22807879745960236 0.8322477340698242 -0.5053155422210693
vn -0.22807878255844116 0.8322477340698242 -0.5053154826164246
vn -0.22807879745960236 0.8322477340698242 -0.5053155422210693
vn -0.22807879745960236 0.8322477340698242 -0.5053155422210693
vn -0.5530160069465637 0.72939133644104 -0.402692973613739
vn -0.5530160069465637 0.7293912768363953 -0.4026929438114166
vn -0.553015947341919 0.72939133644104 -0.40269291400909424
vn -0.5530160069465637 0.72939133644104 -0.402692973613739
vn -0.553015947341919 0.72939133644104 -0.40269291400909424
vn -0.5530160069465637 0.7293912768363953 -0.4026929438114166
vn -0.5555334687232971 0.7056090831756592 0.43988457322120667
vn -0.5555334687232971 0.7056090831756592 0.43988457322120667
vn -0.5555334687232971 0.7056090235710144 0.43988457322120667
vn -0.5555334687232971 0.7056090831756592 0.43988457322120667
vn -0.5555334687232971 0.7056090235710144 0.43988457322120667
vn -0.5555334091186523 0.7056090235710144 0.43988463282585144
vn -0.18312232196331024 0.7605950236320496 0.6228655576705933
vn -0.18312230706214905 0.7605950236320496 0.6228655576705933
vn -0.18312227725982666 0.7605949640274048 0.6228655576705933
vn -0.18312232196331024 0.7605950236320496 0.6228655576705933
vn -0.18312227725982666 0.7605949640274048 0.6228655576705933
vn -0.18312230706214905 0.7605949640274048 0.6228655576705933
vn 0.2735332250595093 0.8334405422210693 0.4801628887653351
vn 0.27353325486183167 0.8334406018257141 0.4801628589630127
vn 0.2735332250595093 0.8334406018257141 0.4801628291606903
vn 0.2735332250595093 0.8334405422210693 0.4801628887653351
vn 0.2735332250595093 0.8334406018257141 0.4801628291606903
vn 0.2735332250595093 0.8334405422210693 0.4801628887653351
vn 0.40189284086227417 0.9065958857536316 0.12870928645133972
vn 0.4018928110599518 0.9065958857536316 0.1287093162536621
vn 0.40189284086227417 0.9065958857536316 0.12870930135250092
vn 0.40189284086227417 0.9065958857536316 0.12870928645133972
vn 0.40189284086227417 0.9065958857536316 0.12870930135250092
vn 0.40189284086227417 0.9065958857536316 0.12870928645133972
vn 0.39182355999946594 0.9166050553321838 -0.07943233847618103
vn 0.39182355999946594 0.9166050553321838 -0.07943234592676163
vn 0.39182355999946594 0.9166050553321838 -0.07943234592676163
vn 0.39182355999946594 0.9166050553321838 -0.07943233847618103
vn 0.39182355999946594 0.9166050553321838 -0.07943234592676163
vn 0.39182355999946594 0.9166050553321838 -0.07943233847618103
vt 0.4357207715511322 0.4670833349227905
vt 0.4357208013534546 0.4670833349227905
vt 0.4357208013534546 0.4670833349227905
vt 0.4357208013534546 0.4670833349227905
vt 0.4357208013534546 0.4670833349227905
vt 0.4357208013534546 0.4670833349227905
vt 0.4357208013534546 0.4670833349227905
vt 0.4357208013534546 0.4670833349227905
vt 0.4357208013534546 0.4670833349227905
vt 0.4357208013534546 0.4670833349227905
vt 0.4357208013534546 0.4670833349227905
vt 0.4357208013534546 0.4670833349227905
vt 0.4357208013534546 0.4670833349227905
vt 0.4357208013534546 0.4670833349227905
vt 0.4357208013534546 0.4670833349227905
vt 0.4357208013534546 0.4670833349227905
vt 0.4357207715511322 0.4670833349227905
vt 0.4357208013534546 0.4670833349227905
vt 0.4357207715511322 0.4670833349227905
vt 0.4357207715511322 0.4670833349227905
vt 0.4357208013534546 0.4670833349227905
vt 0.4357207715511322 0.4670833349227905
vt 0.4357207715511322 0.4670833349227905
vt 0.4357208013534546 0.4670833349227905
vt 0.4357208013534546 0.4670833349227905
vt 0.4357208013534546 0.4670833349227905
vt 0.4357208013534546 0.4670833349227905
vt 0.4357208013534546 0.4670833349227905
vt 0.4357208013534546 0.4670833349227905
vt 0.4357207715511322 0.4670833349227905
vt 0.4357208013534546 0.4670833349227905
vt 0.4357208013534546 0.4670833349227905
vt 0.4357208013534546 0.4670833349227905
vt 0.4357208013534546 0.4670833349227905
vt 0.4357208013534546 0.4670833349227905
vt 0.4357208013534546 0.4670833349227905
vt 0.4357208013534546 0.4670833349227905
vt 0.4357208013534546 0.4670833349227905
vt 0.4357208013534546 0.4670833349227905
vt 0.4357208013534546 0.4670833349227905
vt 0.4357208013534546 0.4670833349227905
vt 0.4357208013534546 0.4670833349227905
vt 0.4357208013534546 0.4670833349227905
vt 0.4357208013534546 0.4670833349227905
vt 0.4357208013534546 0.4670833349227905
vt 0.4357208013534546 0.4670833349227905
vt 0.4357208013534546 0.4670833349227905
vt 0.4357208013534546 0.4670833349227905
vt 0.4357208013534546 0.4670833349227905
vt 0.4357208013534546 0.4670833349227905
vt 0.4357208013534546 0.4670833349227905
vt 0.4357208013534546 0.4670833349227905
vt 0.4357208013534546 0.4670833349227905
vt 0.4357208013534546 0.4670833349227905
vt 0.4357208013534546 0.4670833349227905
vt 0.4357208013534546 0.4670833349227905
vt 0.4357207715511322 0.4670833349227905
vt 0.4357208013534546 0.4670833349227905
vt 0.4357207715511322 0.4670833349227905
vt 0.4357208013534546 0.4670833349227905
vt 0.4357208013534546 0.4670833349227905
vt 0.4357208013534546 0.4670833349227905
vt 0.4357207715511322 0.4670833349227905
vt 0.4357208013534546 0.4670833349227905
vt 0.4357207715511322 0.4670833349227905
vt 0.4357207715511322 0.4670833349227905
vt 0.4357208013534546 0.4670833349227905
vt 0.4357208013534546 0.4670833349227905
vt 0.4357207715511322 0.4670833349227905
vt 0.4357208013534546 0.4670833349227905
vt 0.4357207715511322 0.4670833349227905
vt 0.4357207715511322 0.4670833349227905
usemtl lambert2
f 1/1/1 2/2/2 3/3/3
f 4/4/4 5/5/5 6/6/6
f 7/7/7 8/8/8 9/9/9
f 10/10/10 11/11/11 12/12/12
f 13/13/13 14/14/14 15/15/15
f 16/16/16 17/17/17 18/18/18
f 19/19/19 20/20/20 21/21/21
f 22/22/22 23/23/23 24/24/24
f 25/25/25 26/26/26 27/27/27
f 28/28/28 29/29/29 30/30/30
f 31/31/31 32/32/32 33/33/33
f 34/34/34 35/35/35 36/36/36
f 37/37/37 38/38/38 39/39/39
f 40/40/40 41/41/41 42/42/42
f 43/43/43 44/44/44 45/45/45
f 46/46/46 47/47/47 48/48/48
f 49/49/49 50/50/50 51/51/51
f 52/52/52 53/53/53 54/54/54
f 55/55/55 56/56/56 57/57/57
f 58/58/58 59/59/59 60/60/60
f 61/61/61 62/62/62 63/63/63
f 64/64/64 65/65/65 66/66/66
f 67/67/67 68/68/68 69/69/69
f 70/70/70 71/71/71 72/72/72
