# Export from Prisma3D 2.1.1
mtllib New Project.mtl
o Cube
v -0.01862992 0.3726691 0.1605386
v -0.1157275 0.513869 0.07818644
v -0.1663881 0.5055367 -0.05324732
v -0.01815337 0.4071643 -0.1410669
v -0.01815337 0.4071643 -0.1410669
v 0.05329591 0.5054228 -0.04266105
v 0.07690008 0.5229934 0.09448481
v -0.01862992 0.3726691 0.1605386
v -0.02922896 0.327374 0.170309
v -0.01862992 0.3726691 0.1605386
v 0.07690008 0.5229934 0.09448481
v 0.1822994 0.4770324 0.08661088
v -0.2313401 0.4687233 0.06273696
v -0.1157275 0.513869 0.07818644
v -0.01862992 0.3726691 0.1605386
v -0.02922896 0.327374 0.170309
v -0.2660732 0.4713924 -0.04321145
v -0.1663881 0.5055367 -0.05324732
v -0.1157275 0.513869 0.07818644
v -0.2313401 0.4687233 0.06273696
v -0.01847804 0.3661201 -0.1581678
v -0.01815337 0.4071643 -0.1410669
v -0.1663881 0.5055367 -0.05324732
v -0.2660732 0.4713924 -0.04321145
v 0.1595906 0.4481702 -0.04101634
v 0.05329591 0.5054228 -0.04266105
v -0.01815337 0.4071643 -0.1410669
v -0.01847804 0.3661201 -0.1581678
v 0.1822994 0.4770324 0.08661088
v 0.07690008 0.5229934 0.09448481
v 0.05329591 0.5054228 -0.04266105
v 0.1595906 0.4481702 -0.04101634
v -0.01045629 0.03401558 0.07838501
v -0.01802036 0.3120187 0.1695181
v 0.2907516 0.2901549 0.1485738
v -0.004284352 -0.04552516 0.03198801
v -0.002798937 -0.05062993 0.02926696
v -0.343683 0.2817872 0.1485739
v -0.01802036 0.3120187 0.1695181
v -0.01045629 0.03401558 0.07838501
v -0.0003700927 -0.04430701 -0.01890367
v -0.343683 0.2817872 -0.1485739
v -0.343683 0.2817872 0.1485739
v -0.002798937 -0.05062993 0.02926696
v -0.02482226 0.03104115 -0.066432
v -0.01802036 0.3120187 -0.1695181
v -0.343683 0.2817872 -0.1485739
v -0.0003700927 -0.04430701 -0.01890367
v -0.004284337 -0.04552516 -0.01598655
v 0.2907516 0.290155 -0.1485738
v -0.01802036 0.3120187 -0.1695181
v -0.02482226 0.03104115 -0.066432
v -0.004284352 -0.04552516 0.03198801
v 0.2907516 0.2901549 0.1485738
v 0.2907516 0.290155 -0.1485738
v -0.004284337 -0.04552516 -0.01598655
v -0.3182112 0.3648812 0.1385954
v -0.2313401 0.4687233 0.06273696
v -0.02922896 0.327374 0.170309
v -0.0292317 0.327354 0.170314
v -0.0292317 0.327354 0.170314
v -0.01802036 0.3120187 0.1695181
v -0.343683 0.2817872 0.1485739
v -0.3182112 0.3648812 0.1385954
v -0.0292317 0.327354 0.170314
v -0.02922896 0.327374 0.170309
v 0.1822994 0.4770324 0.08661088
v 0.2695181 0.3681312 0.1420634
v 0.2695181 0.3681312 0.1420634
v 0.2907516 0.2901549 0.1485738
v -0.01802036 0.3120187 0.1695181
v -0.0292317 0.327354 0.170314
v 0.2695181 0.3681312 0.1420634
v 0.1822994 0.4770324 0.08661088
v 0.1595906 0.4481702 -0.04101634
v 0.2703678 0.3789482 -0.1340067
v 0.2703678 0.3789482 -0.1340067
v 0.2907516 0.290155 -0.1485738
v 0.2907516 0.2901549 0.1485738
v 0.2695181 0.3681312 0.1420634
v 0.2703678 0.3789482 -0.1340067
v 0.1595906 0.4481702 -0.04101634
v -0.01847804 0.3661201 -0.1581678
v -0.01847818 0.3661041 -0.1581746
v -0.01847818 0.3661041 -0.1581746
v -0.01802036 0.3120187 -0.1695181
v 0.2907516 0.290155 -0.1485738
v 0.2703678 0.3789482 -0.1340067
v -0.01847818 0.3661041 -0.1581746
v -0.01847804 0.3661201 -0.1581678
v -0.2660732 0.4713924 -0.04321145
v -0.3132456 0.3536164 -0.1305758
v -0.3132456 0.3536164 -0.1305758
v -0.343683 0.2817872 -0.1485739
v -0.01802036 0.3120187 -0.1695181
v -0.01847818 0.3661041 -0.1581746
v -0.3132456 0.3536164 -0.1305758
v -0.2660732 0.4713924 -0.04321145
v -0.2313401 0.4687233 0.06273696
v -0.3182112 0.3648812 0.1385954
v -0.3182112 0.3648812 0.1385954
v -0.343683 0.2817872 0.1485739
v -0.343683 0.2817872 -0.1485739
v -0.3132456 0.3536164 -0.1305758
vn 0.7144145 0.6986355 -0.03899095
vn 0.7144145 0.6986355 -0.03899095
vn 0.7144145 0.6986355 -0.03899095
vn 0.7144145 0.6986355 -0.03899095
vn -0.8352014 0.549464 0.02297659
vn -0.8352014 0.549464 0.02297659
vn -0.8352014 0.549464 0.02297659
vn -0.8352014 0.549464 0.02297659
vn 0.405856 0.5858092 0.7015045
vn 0.5962022 0.4259647 0.6805123
vn 0.5962022 0.4259647 0.6805123
vn 0.405856 0.5858092 0.7015045
vn -0.3911103 0.6980633 0.5997836
vn -0.5567957 0.58679 0.5879252
vn -0.5567957 0.58679 0.5879252
vn -0.3911103 0.6980633 0.5997836
vn -0.3614 0.8655609 -0.3466906
vn -0.4188092 0.8687447 -0.2643512
vn -0.3463324 0.9374288 0.03579365
vn -0.3463324 0.9374288 0.03579365
vn -0.3484264 0.7801031 -0.519652
vn -0.449381 0.7131364 -0.5380458
vn -0.4188092 0.8687447 -0.2643512
vn -0.3614 0.8655609 -0.3466906
vn 0.4952545 0.8323311 -0.2488936
vn 0.5363054 0.8044279 -0.2554843
vn 0.6148534 0.6685196 -0.4183741
vn 0.4253372 0.7963049 -0.4301009
vn 0.5451256 0.8361014 -0.06142003
vn 0.4303126 0.8991705 -0.07952025
vn 0.5363054 0.8044279 -0.2554843
vn 0.4952545 0.8323311 -0.2488936
vn 0.4544972 -0.6800078 0.5753449
vn 0.4544972 -0.6800078 0.5753449
vn 0.6371327 -0.7082466 0.3040536
vn 0.6371327 -0.7082466 0.3040536
vn -0.6039165 -0.7466059 0.279042
vn -0.6039165 -0.7466059 0.279042
vn -0.4554622 -0.6981588 0.5523844
vn -0.4554622 -0.6981588 0.5523844
vn -0.6096153 -0.7466304 -0.2662937
vn -0.6096153 -0.7466304 -0.2662937
vn -0.6039165 -0.7466059 0.279042
vn -0.6039165 -0.7466059 0.279042
vn -0.485725 -0.7220024 -0.4927308
vn -0.485725 -0.7220024 -0.4927308
vn -0.6096153 -0.7466304 -0.2662937
vn -0.6096153 -0.7466304 -0.2662937
vn 0.3718064 -0.7361376 -0.5655629
vn 0.3718064 -0.7361376 -0.5655629
vn 0.3718064 -0.7361376 -0.5655629
vn 0.3718064 -0.7361376 -0.5655629
vn 0.6371327 -0.7082466 0.3040536
vn 0.6371327 -0.7082466 0.3040536
vn 0.7511158 -0.6601705 1.710057E-08
vn 0.7511158 -0.6601705 1.710057E-08
vn -0.2097906 0.7814323 0.5876663
vn -0.3911103 0.6980633 0.5997836
vn -0.3911103 0.6980633 0.5997836
vn -0.009986186 0.7620341 0.6474599
vn -0.2492367 0.03665178 0.9677488
vn -0.01314394 0.09877887 0.9950225
vn -0.2492367 0.03665178 0.9677488
vn -0.2492367 0.03665178 0.9677488
vn -0.009986186 0.7620341 0.6474599
vn 0.405856 0.5858092 0.7015045
vn 0.405856 0.5858092 0.7015045
vn 0.2178528 0.4547294 0.8635747
vn 0.2178528 0.4547294 0.8635747
vn 0.2237419 0.1549453 0.9622534
vn -0.01314394 0.09877887 0.9950225
vn 0.2237419 0.1549453 0.9622534
vn 0.8504522 0.5256307 -0.02105985
vn 0.5451256 0.8361014 -0.06142003
vn 0.4952545 0.8323311 -0.2488936
vn 0.8504522 0.5256307 -0.02105985
vn 0.8504522 0.5256307 -0.02105985
vn 0.9699997 0.2430969 0.002119452
vn 0.9699997 0.2430969 0.002119452
vn 0.8504522 0.5256307 -0.02105985
vn 0.2141143 0.7175454 -0.6627848
vn 0.4952545 0.8323311 -0.2488936
vn 0.4253372 0.7963049 -0.4301009
vn -0.01443612 0.7376108 -0.6750718
vn -0.01443612 0.7376108 -0.6750718
vn -0.01320916 0.5462295 -0.8375314
vn 0.1961766 0.4906774 -0.8489702
vn 0.2141143 0.7175454 -0.6627848
vn -0.01443612 0.7376108 -0.6750718
vn -0.3484264 0.7801031 -0.519652
vn -0.3614 0.8655609 -0.3466906
vn -0.2366964 0.7196711 -0.6527237
vn -0.2366964 0.7196711 -0.6527237
vn -0.2219733 0.5760764 -0.786679
vn -0.01320916 0.5462295 -0.8375314
vn -0.01443612 0.7376108 -0.6750718
vn -0.9074199 0.4197989 0.01892196
vn -0.8687552 0.4933645 0.04307865
vn -0.8687552 0.4933645 0.04307865
vn -0.8687552 0.4933645 0.04307865
vn -0.9392875 0.3430889 -0.00537646
vn -0.9392875 0.3430889 -0.00537646
vn -0.9392875 0.3430889 -0.00537646
vn -0.9074199 0.4197989 0.01892196
vt 0.4881074 1
vt 1 1
vt 1 0
vt 0.4881074 0
vt 0.4881074 0
vt 0 0
vt 0 1
vt 0.4881074 1
vt 0.5118926 0.9349702
vt 0.5118926 1
vt 1 1
vt 1 0.9349702
vt 0 0.9349702
vt 0 1
vt 0.5118926 1
vt 0.5118926 0.9349702
vt 0 0.9349702
vt 0 1
vt 1 1
vt 1 0.9349702
vt 0.4881074 0.9349702
vt 0.4881074 1
vt 1 1
vt 1 0.9349702
vt 0 0.9349702
vt 0 1
vt 0.4881074 1
vt 0.4881074 0.9349702
vt 0 0.9349702
vt 0 1
vt 1 1
vt 1 0.9349702
vt 0.5118926 0.6430746
vt 0.5118926 0.9349319
vt 1 0.9349319
vt 1 0.6430746
vt 0 0.6430746
vt 0 0.9349319
vt 0.5118926 0.9349319
vt 0.5118926 0.6430746
vt 0 0.6430746
vt 0 0.9349319
vt 1 0.9349319
vt 1 0.6430746
vt 0.4881074 0.6430746
vt 0.4881074 0.9349319
vt 1 0.9349319
vt 1 0.6430746
vt 0 0.6430746
vt 0 0.9349319
vt 0.4881074 0.9349319
vt 0.4881074 0.6430746
vt 0 0.6430746
vt 0 0.9349319
vt 1 0.9349319
vt 1 0.6430746
vt 0 0.9349446
vt 0 0.9349702
vt 0.5118926 0.9349702
vt 0.5118926 0.9349446
vt 0.5118926 0.9349446
vt 0.5118926 0.9349319
vt 0 0.9349319
vt 0 0.9349446
vt 0.5118926 0.9349446
vt 0.5118926 0.9349702
vt 1 0.9349702
vt 1 0.9349446
vt 1 0.9349446
vt 1 0.9349319
vt 0.5118926 0.9349319
vt 0.5118926 0.9349446
vt 0 0.9349446
vt 0 0.9349702
vt 1 0.9349702
vt 1 0.9349446
vt 1 0.9349446
vt 1 0.9349319
vt 0 0.9349319
vt 0 0.9349446
vt 0 0.9349446
vt 0 0.9349702
vt 0.4881074 0.9349702
vt 0.4881074 0.9349446
vt 0.4881074 0.9349446
vt 0.4881074 0.9349319
vt 0 0.9349319
vt 0 0.9349446
vt 0.4881074 0.9349446
vt 0.4881074 0.9349702
vt 1 0.9349702
vt 1 0.9349446
vt 1 0.9349446
vt 1 0.9349319
vt 0.4881074 0.9349319
vt 0.4881074 0.9349446
vt 0 0.9349446
vt 0 0.9349702
vt 1 0.9349702
vt 1 0.9349446
vt 1 0.9349446
vt 1 0.9349319
vt 0 0.9349319
vt 0 0.9349446
usemtl Material
f 3/3/3 2/2/2 1/1/1
f 3/3/3 1/1/1 4/4/4
f 7/7/7 6/6/6 5/5/5
f 7/7/7 5/5/5 8/8/8
f 11/11/11 10/10/10 9/9/9
f 11/11/11 9/9/9 12/12/12
f 15/15/15 14/14/14 13/13/13
f 15/15/15 13/13/13 16/16/16
f 19/19/19 18/18/18 17/17/17
f 19/19/19 17/17/17 20/20/20
f 23/23/23 22/22/22 21/21/21
f 23/23/23 21/21/21 24/24/24
f 27/27/27 26/26/26 25/25/25
f 27/27/27 25/25/25 28/28/28
f 31/31/31 30/30/30 29/29/29
f 31/31/31 29/29/29 32/32/32
f 35/35/35 34/34/34 33/33/33
f 35/35/35 33/33/33 36/36/36
f 39/39/39 38/38/38 37/37/37
f 39/39/39 37/37/37 40/40/40
f 43/43/43 42/42/42 41/41/41
f 43/43/43 41/41/41 44/44/44
f 47/47/47 46/46/46 45/45/45
f 47/47/47 45/45/45 48/48/48
f 51/51/51 50/50/50 49/49/49
f 51/51/51 49/49/49 52/52/52
f 55/55/55 54/54/54 53/53/53
f 55/55/55 53/53/53 56/56/56
f 59/59/59 58/58/58 57/57/57
f 59/59/59 57/57/57 60/60/60
f 63/63/63 62/62/62 61/61/61
f 63/63/63 61/61/61 64/64/64
f 67/67/67 66/66/66 65/65/65
f 67/67/67 65/65/65 68/68/68
f 71/71/71 70/70/70 69/69/69
f 71/71/71 69/69/69 72/72/72
f 75/75/75 74/74/74 73/73/73
f 75/75/75 73/73/73 76/76/76
f 79/79/79 78/78/78 77/77/77
f 79/79/79 77/77/77 80/80/80
f 83/83/83 82/82/82 81/81/81
f 83/83/83 81/81/81 84/84/84
f 87/87/87 86/86/86 85/85/85
f 87/87/87 85/85/85 88/88/88
f 91/91/91 90/90/90 89/89/89
f 91/91/91 89/89/89 92/92/92
f 95/95/95 94/94/94 93/93/93
f 95/95/95 93/93/93 96/96/96
f 99/99/99 98/98/98 97/97/97
f 99/99/99 97/97/97 100/100/100
f 103/103/103 102/102/102 101/101/101
f 103/103/103 101/101/101 104/104/104
