# Export from Prisma3D 3.2.2
mtllib 立方体.mtl
o 立方体
v 0.5 -0.5 -0.5
v 0.5 0.5 -0.5
v -0.5 0.5 -0.5
v -0.5 -0.5 -0.5
v 0.0002231448 -0.5 -0.0002231416
v 0.0002231448 0.5 -0.0002231416
v 0.5 0.5 0.5
v 0.5 -0.5 0.5
v 0.5 -0.5 0.5
v 0.5 0.5 0.5
v 0.5 0.5 -0.5
v 0.5 -0.5 -0.5
v -0.5 -0.5 -0.5
v -0.5 0.5 -0.5
v 0.0002231448 0.5 -0.0002231416
v 0.0002231448 -0.5 -0.0002231416
v 0.5 0.5 -0.5
v 0.5 0.5 0.5
v 0.0002231448 0.5 -0.0002231416
v -0.5 0.5 -0.5
v -0.5 -0.5 -0.5
v 0.0002231448 -0.5 -0.0002231416
v 0.5 -0.5 0.5
v 0.5 -0.5 -0.5
vn 0 0 -1
vn 0 0 -1
vn 0 0 -1
vn 0 0 -1
vn -0.7071068 0 0.7071068
vn -0.7071068 0 0.7071068
vn -0.7074223 0 0.7067912
vn -0.7074223 0 0.7067912
vn 1 0 0
vn 1 0 0
vn 1 0 0
vn 1 0 0
vn -0.7067912 0 0.7074223
vn -0.7067912 0 0.7074223
vn -0.7071068 0 0.7071068
vn -0.7071068 0 0.7071068
vn 0 1 0
vn 0 1 0
vn 0 1 0
vn 0 1 0
vn 0 -1 0
vn 0 -1 0
vn 0 -1 0
vn 0 -1 0
vt 0 0
vt 0 1
vt 1 1
vt 1 0
vt 0 0
vt 0 1
vt 1 1
vt 1 0
vt 0 0
vt 0 1
vt 1 1
vt 1 0
vt 0 0
vt 0 1
vt 1 1
vt 1 0
vt 0 0
vt 0 1
vt 1 1
vt 1 0
vt 0 0
vt 0 1
vt 1 1
vt 1 0
usemtl 默认
f 3/3/3 2/2/2 1/1/1
f 3/3/3 1/1/1 4/4/4
f 7/7/7 6/6/6 5/5/5
f 7/7/7 5/5/5 8/8/8
f 11/11/11 10/10/10 9/9/9
f 11/11/11 9/9/9 12/12/12
f 15/15/15 14/14/14 13/13/13
f 15/15/15 13/13/13 16/16/16
f 19/19/19 18/18/18 17/17/17
f 19/19/19 17/17/17 20/20/20
f 23/23/23 22/22/22 21/21/21
f 23/23/23 21/21/21 24/24/24
