# Export from Prisma3D 3.1.3
mtllib 平面.mtl
o 金字塔
v 0 0.09021738 0.1579631
v 0 0.3206678 0.0001579657
v 0 0.3206678 0.0001579657
v 0 0.09021738 0.1579631
v 0 0.09021738 -0.1579631
v 0 0.3206678 -0.0001579657
v 0 0.3206678 -0.0001579657
v 0 0.09021738 -0.1579631
v 0 0.09021738 0.1579631
v 0 0.3206678 0.0001579657
v 0 0.3206678 -0.0001579657
v 0 0.09021738 -0.1579631
v 0 0.09021738 -0.1579631
v 0 0.3206678 -0.0001579657
v 0 0.3206678 0.0001579657
v 0 0.09021738 0.1579631
v 0 0.3206678 -0.0001579657
v 0 0.3206678 0.0001579657
v 0 0.3206678 0.0001579657
v 0 0.3206678 -0.0001579657
v 0 0.09021738 -0.1579631
v 0 0.09021738 0.1579631
v 0 0.09021738 0.1579631
v 0 0.09021738 -0.1579631
vn -1 0 0
vn -1 0 0
vn 1 0 0
vn 1 0 0
vn 1 0 0
vn 1 0 0
vn -1 0 0
vn -1 0 0
vn 1 0 0
vn 1 0 0
vn 1 0 0
vn 1 0 0
vn -1 0 0
vn -1 0 0
vn -1 0 0
vn -1 0 0
vn 1 0 0
vn 1 0 0
vn -1 0 0
vn -1 0 0
vn -1 0 0
vn -1 0 0
vn 1 0 0
vn 1 0 0
vt 0 -1
vt 0 0
vt 1 0
vt 1 -1
vt 0 -1
vt 0 0
vt 1 0
vt 1 -1
vt 0 -1
vt 0 0
vt 1 0
vt 1 -1
vt 0 -1
vt 0 0
vt 1 0
vt 1 -1
vt 0 0
vt 0 1
vt 1 1
vt 1 0
vt 0 0
vt 0 1
vt 1 1
vt 1 0
usemtl Default
f 3/3/3 2/2/2 1/1/1
f 3/3/3 1/1/1 4/4/4
f 7/7/7 6/6/6 5/5/5
f 7/7/7 5/5/5 8/8/8
f 11/11/11 10/10/10 9/9/9
f 11/11/11 9/9/9 12/12/12
f 15/15/15 14/14/14 13/13/13
f 15/15/15 13/13/13 16/16/16
f 19/19/19 18/18/18 17/17/17
f 19/19/19 17/17/17 20/20/20
f 23/23/23 22/22/22 21/21/21
f 23/23/23 21/21/21 24/24/24
o 平面
v 0 0.2588848 0.03760481
v 0 -0.2588848 0.03760481
v 0 -0.2588848 -0.03760481
v 0 0.2588848 -0.03760481
vn -1 0 0
vn -1 0 0
vn -1 0 0
vn -1 0 0
vt 0 0
vt 0 1
vt 1 1
vt 1 0
usemtl Default
f 27/27/27 26/26/26 25/25/25
f 27/27/27 25/25/25 28/28/28
