# Export from Prisma3D 2.1.1
mtllib New Project.mtl
o Cube
v 0.5 -0.5 0.2071586
v 0.3742102 -0.06073816 0.1107606
v -0.5 -0.09528854 -0.2166627
v -1.46828 -0.4757214 -0.5
v -0.5 -0.5 0.5
v -0.5 0.2426705 0.1615516
v -0.1051668 0.3142623 0.5
v 0.5 -0.38142 0.6482153
v 0.5 -0.38142 0.6482153
v -0.1051668 0.3142623 0.5
v 0.3742102 -0.06073816 0.1107606
v 0.5 -0.5 0.2071586
v -1.46828 -0.4757214 -0.5
v -0.5 -0.09528854 -0.2166627
v -0.5 0.2426705 0.1615516
v -0.5 -0.5 0.5
v 0.3742102 -0.06073816 0.1107606
v -0.1051668 0.3142623 0.5
v -0.5 0.2426705 0.1615516
v -0.5 -0.09528854 -0.2166627
v -1.46828 -0.4757214 -0.5
v -0.5 -0.5 0.5
v 0.5 -0.38142 0.6482153
v 0.5 -0.5 0.2071586
vn 0.3428281 -0.1444681 -0.928223
vn 0.3428281 -0.1444681 -0.928223
vn 0.3428281 -0.1444681 -0.928223
vn 0.3428281 -0.1444681 -0.928223
vn -0.4227662 0.1235551 0.8977766
vn -0.4227662 0.1235551 0.8977766
vn -0.4227662 0.1235551 0.8977766
vn -0.4227662 0.1235551 0.8977766
vn 0.8485447 0.5062099 0.1540246
vn 0.8485447 0.5062099 0.1540246
vn 0.8485447 0.5062099 0.1540246
vn 0.8485447 0.5062099 0.1540246
vn -0.7620324 0.6291313 0.1532992
vn -0.7620324 0.6291313 0.1532992
vn -0.7620324 0.6291313 0.1532992
vn -0.7620324 0.6291313 0.1532992
vn 0.2655859 0.7698277 -0.5803701
vn 0.2655859 0.7698277 -0.5803701
vn 0.2655859 0.7698277 -0.5803701
vn 0.2655859 0.7698277 -0.5803701
vn 0.0268311 -0.9958761 0.08666619
vn 0.0268311 -0.9958761 0.08666619
vn 0.0268311 -0.9958761 0.08666619
vn 0.0268311 -0.9958761 0.08666619
vt 0 0
vt 0 1
vt 1 1
vt 1 0
vt 0 0
vt 0 1
vt 1 1
vt 1 0
vt 0 0
vt 0 1
vt 1 1
vt 1 0
vt 0 0
vt 0 1
vt 1 1
vt 1 0
vt 0 0
vt 0 1
vt 1 1
vt 1 0
vt 0 0
vt 0 1
vt 1 1
vt 1 0
usemtl Material
f 3/3/3 2/2/2 1/1/1
f 3/3/3 1/1/1 4/4/4
f 7/7/7 6/6/6 5/5/5
f 7/7/7 5/5/5 8/8/8
f 11/11/11 10/10/10 9/9/9
f 11/11/11 9/9/9 12/12/12
f 15/15/15 14/14/14 13/13/13
f 15/15/15 13/13/13 16/16/16
f 19/19/19 18/18/18 17/17/17
f 19/19/19 17/17/17 20/20/20
f 23/23/23 22/22/22 21/21/21
f 23/23/23 21/21/21 24/24/24
